<?xml version="1.0" encoding="UTF-8" standalone="no"?>
<!DOCTYPE svg PUBLIC "-//W3C//DTD SVG 1.1//EN"
 "http://www.w3.org/Graphics/SVG/1.1/DTD/svg11.dtd">
<!-- Generated by graphviz version 2.43.0 (0)
 -->
<!-- Title: HoTT_Classes_orders_nat_int Pages: 1 -->
<svg width="1118pt" height="563pt"
 viewBox="0.00 0.00 1118.00 563.00" xmlns="http://www.w3.org/2000/svg" xmlns:xlink="http://www.w3.org/1999/xlink">
<g id="graph0" class="graph" transform="scale(1 1) rotate(0) translate(4 559)">
<title>HoTT_Classes_orders_nat_int</title>
<polygon fill="white" stroke="transparent" points="-4,4 -4,-559 1114,-559 1114,4 -4,4"/>
<g id="clust1" class="cluster">
<title>cluster_nat_int</title>
<polygon fill="#ffffc3" stroke="black" points="10.69,-8 10.69,-547 1099.31,-547 1099.31,-8 10.69,-8"/>
<text text-anchor="middle" x="43.69" y="-531.8" font-family="Times,serif" font-size="14.00">nat_int</text>
</g>
<!-- nat_int_nat_morphism_order_embedding -->
<g id="node1" class="node">
<title>nat_int_nat_morphism_order_embedding</title>
<g id="a_node1"><a xlink:href="nat_int.html#nat_morphism_order_embedding" xlink:title="nat_morphism_order_embedding">
<ellipse fill="#f070d1" stroke="black" cx="860.19" cy="-402" rx="163.26" ry="18"/>
<ellipse fill="none" stroke="black" cx="860.19" cy="-402" rx="167.27" ry="22"/>
<ellipse fill="none" stroke="black" cx="860.19" cy="-402" rx="171.27" ry="26"/>
<text text-anchor="middle" x="860.19" y="-398.3" font-family="Times,serif" font-size="14.00">nat_morphism_order_embedding</text>
</a>
</g>
</g>
<!-- nat_int_strictlyorderpreserving_semiring_homomorphism -->
<g id="node2" class="node">
<title>nat_int_strictlyorderpreserving_semiring_homomorphism</title>
<g id="a_node2"><a xlink:href="nat_int.html#strictlyorderpreserving_semiring_homomorphism" xlink:title="strictlyorderpreserving_semiring_homomorphism">
<ellipse fill="#f070d1" stroke="black" cx="657.19" cy="-322" rx="241.26" ry="18"/>
<text text-anchor="middle" x="657.19" y="-318.3" font-family="Times,serif" font-size="14.00">strictlyorderpreserving_semiring_homomorphism</text>
</a>
</g>
</g>
<!-- nat_int_nat_morphism_order_embedding&#45;&gt;nat_int_strictlyorderpreserving_semiring_homomorphism -->
<g id="edge1" class="edge">
<title>nat_int_nat_morphism_order_embedding&#45;&gt;nat_int_strictlyorderpreserving_semiring_homomorphism</title>
<path fill="none" stroke="black" d="M799.28,-377.6C770.97,-366.72 737.61,-353.9 710.34,-343.42"/>
<polygon fill="black" stroke="black" points="711.55,-340.14 700.96,-339.82 709.04,-346.67 711.55,-340.14"/>
</g>
<!-- nat_int_orderpreserving_semiring_homomorphism -->
<g id="node3" class="node">
<title>nat_int_orderpreserving_semiring_homomorphism</title>
<g id="a_node3"><a xlink:href="nat_int.html#orderpreserving_semiring_homomorphism" xlink:title="orderpreserving_semiring_homomorphism">
<ellipse fill="#f070d1" stroke="black" cx="811.19" cy="-250" rx="207.96" ry="18"/>
<text text-anchor="middle" x="811.19" y="-246.3" font-family="Times,serif" font-size="14.00">orderpreserving_semiring_homomorphism</text>
</a>
</g>
</g>
<!-- nat_int_nat_morphism_order_embedding&#45;&gt;nat_int_orderpreserving_semiring_homomorphism -->
<g id="edge2" class="edge">
<title>nat_int_nat_morphism_order_embedding&#45;&gt;nat_int_orderpreserving_semiring_homomorphism</title>
<path fill="none" stroke="black" d="M886.1,-376.1C903.6,-356.16 921.17,-327.69 907.19,-304 899.17,-290.42 886.29,-280.07 872.53,-272.3"/>
<polygon fill="black" stroke="black" points="873.89,-269.06 863.4,-267.55 870.66,-275.27 873.89,-269.06"/>
</g>
<!-- nat_int_nat_int_lt_plus -->
<g id="node9" class="node">
<title>nat_int_nat_int_lt_plus</title>
<g id="a_node9"><a xlink:href="nat_int.html#nat_int_lt_plus" xlink:title="nat_int_lt_plus">
<ellipse fill="#f070d1" stroke="black" cx="405.19" cy="-250" rx="77.99" ry="18"/>
<text text-anchor="middle" x="405.19" y="-246.3" font-family="Times,serif" font-size="14.00">nat_int_lt_plus</text>
</a>
</g>
</g>
<!-- nat_int_strictlyorderpreserving_semiring_homomorphism&#45;&gt;nat_int_nat_int_lt_plus -->
<g id="edge3" class="edge">
<title>nat_int_strictlyorderpreserving_semiring_homomorphism&#45;&gt;nat_int_nat_int_lt_plus</title>
<path fill="none" stroke="black" d="M597.79,-304.5C557.05,-293.19 503.29,-278.25 462.92,-267.04"/>
<polygon fill="black" stroke="black" points="463.8,-263.65 453.22,-264.34 461.92,-270.39 463.8,-263.65"/>
</g>
<!-- nat_int_nat_int_le_plus -->
<g id="node10" class="node">
<title>nat_int_nat_int_le_plus</title>
<g id="a_node10"><a xlink:href="nat_int.html#nat_int_le_plus" xlink:title="nat_int_le_plus">
<ellipse fill="#f070d1" stroke="black" cx="430.19" cy="-178" rx="79.09" ry="18"/>
<text text-anchor="middle" x="430.19" y="-174.3" font-family="Times,serif" font-size="14.00">nat_int_le_plus</text>
</a>
</g>
</g>
<!-- nat_int_orderpreserving_semiring_homomorphism&#45;&gt;nat_int_nat_int_le_plus -->
<g id="edge4" class="edge">
<title>nat_int_orderpreserving_semiring_homomorphism&#45;&gt;nat_int_nat_int_le_plus</title>
<path fill="none" stroke="black" d="M726.63,-233.46C658.38,-220.92 563.51,-203.5 499.64,-191.76"/>
<polygon fill="black" stroke="black" points="500.13,-188.29 489.67,-189.93 498.87,-195.18 500.13,-188.29"/>
</g>
<!-- nat_int_le_iff_lt_S -->
<g id="node4" class="node">
<title>nat_int_le_iff_lt_S</title>
<g id="a_node4"><a xlink:href="nat_int.html#le_iff_lt_S" xlink:title="le_iff_lt_S">
<ellipse fill="#f070d1" stroke="black" cx="503.19" cy="-490" rx="54.68" ry="18"/>
<ellipse fill="none" stroke="black" cx="503.19" cy="-490" rx="58.68" ry="22"/>
<ellipse fill="none" stroke="black" cx="503.19" cy="-490" rx="62.69" ry="26"/>
<text text-anchor="middle" x="503.19" y="-486.3" font-family="Times,serif" font-size="14.00">le_iff_lt_S</text>
</a>
</g>
</g>
<!-- nat_int_le_iff_lt_plus_1 -->
<g id="node5" class="node">
<title>nat_int_le_iff_lt_plus_1</title>
<g id="a_node5"><a xlink:href="nat_int.html#le_iff_lt_plus_1" xlink:title="le_iff_lt_plus_1">
<ellipse fill="#f070d1" stroke="black" cx="503.19" cy="-402" rx="77.99" ry="18"/>
<text text-anchor="middle" x="503.19" y="-398.3" font-family="Times,serif" font-size="14.00">le_iff_lt_plus_1</text>
</a>
</g>
</g>
<!-- nat_int_le_iff_lt_S&#45;&gt;nat_int_le_iff_lt_plus_1 -->
<g id="edge5" class="edge">
<title>nat_int_le_iff_lt_S&#45;&gt;nat_int_le_iff_lt_plus_1</title>
<path fill="none" stroke="black" d="M503.19,-463.66C503.19,-453.11 503.19,-440.84 503.19,-430.1"/>
<polygon fill="black" stroke="black" points="506.69,-430 503.19,-420 499.69,-430 506.69,-430"/>
</g>
<!-- nat_int_lt_iff_plus_1_le -->
<g id="node8" class="node">
<title>nat_int_lt_iff_plus_1_le</title>
<g id="a_node8"><a xlink:href="nat_int.html#lt_iff_plus_1_le" xlink:title="lt_iff_plus_1_le">
<ellipse fill="#f070d1" stroke="black" cx="207.19" cy="-322" rx="77.99" ry="18"/>
<text text-anchor="middle" x="207.19" y="-318.3" font-family="Times,serif" font-size="14.00">lt_iff_plus_1_le</text>
</a>
</g>
</g>
<!-- nat_int_le_iff_lt_plus_1&#45;&gt;nat_int_lt_iff_plus_1_le -->
<g id="edge6" class="edge">
<title>nat_int_le_iff_lt_plus_1&#45;&gt;nat_int_lt_iff_plus_1_le</title>
<path fill="none" stroke="black" d="M453.98,-388.03C402.44,-374.45 321.5,-353.12 266.48,-338.62"/>
<polygon fill="black" stroke="black" points="267.08,-335.16 256.52,-336 265.29,-341.93 267.08,-335.16"/>
</g>
<!-- nat_int_pos_ge_1 -->
<g id="node6" class="node">
<title>nat_int_pos_ge_1</title>
<g id="a_node6"><a xlink:href="nat_int.html#pos_ge_1" xlink:title="pos_ge_1">
<ellipse fill="#f070d1" stroke="black" cx="294.19" cy="-402" rx="52.77" ry="18"/>
<ellipse fill="none" stroke="black" cx="294.19" cy="-402" rx="56.78" ry="22"/>
<ellipse fill="none" stroke="black" cx="294.19" cy="-402" rx="60.79" ry="26"/>
<text text-anchor="middle" x="294.19" y="-398.3" font-family="Times,serif" font-size="14.00">pos_ge_1</text>
</a>
</g>
</g>
<!-- nat_int_pos_ge_1&#45;&gt;nat_int_lt_iff_plus_1_le -->
<g id="edge7" class="edge">
<title>nat_int_pos_ge_1&#45;&gt;nat_int_lt_iff_plus_1_le</title>
<path fill="none" stroke="black" d="M268.56,-378.02C257.5,-368.11 244.59,-356.53 233.47,-346.56"/>
<polygon fill="black" stroke="black" points="235.52,-343.7 225.74,-339.63 230.85,-348.91 235.52,-343.7"/>
</g>
<!-- nat_int_lt_iff_S_le -->
<g id="node7" class="node">
<title>nat_int_lt_iff_S_le</title>
<g id="a_node7"><a xlink:href="nat_int.html#lt_iff_S_le" xlink:title="lt_iff_S_le">
<ellipse fill="#f070d1" stroke="black" cx="105.19" cy="-402" rx="54.68" ry="18"/>
<ellipse fill="none" stroke="black" cx="105.19" cy="-402" rx="58.68" ry="22"/>
<ellipse fill="none" stroke="black" cx="105.19" cy="-402" rx="62.69" ry="26"/>
<text text-anchor="middle" x="105.19" y="-398.3" font-family="Times,serif" font-size="14.00">lt_iff_S_le</text>
</a>
</g>
</g>
<!-- nat_int_lt_iff_S_le&#45;&gt;nat_int_lt_iff_plus_1_le -->
<g id="edge8" class="edge">
<title>nat_int_lt_iff_S_le&#45;&gt;nat_int_lt_iff_plus_1_le</title>
<path fill="none" stroke="black" d="M134.14,-378.86C147.7,-368.49 163.84,-356.15 177.49,-345.71"/>
<polygon fill="black" stroke="black" points="179.8,-348.35 185.62,-339.49 175.55,-342.79 179.8,-348.35"/>
</g>
<!-- nat_int_lt_iff_plus_1_le&#45;&gt;nat_int_nat_int_lt_plus -->
<g id="edge9" class="edge">
<title>nat_int_lt_iff_plus_1_le&#45;&gt;nat_int_nat_int_lt_plus</title>
<path fill="none" stroke="black" d="M248.21,-306.5C279.25,-295.53 322.01,-280.41 355.07,-268.72"/>
<polygon fill="black" stroke="black" points="356.29,-272 364.55,-265.37 353.96,-265.4 356.29,-272"/>
</g>
<!-- nat_int_nat_int_lt_plus&#45;&gt;nat_int_nat_int_le_plus -->
<g id="edge10" class="edge">
<title>nat_int_nat_int_lt_plus&#45;&gt;nat_int_nat_int_le_plus</title>
<path fill="none" stroke="black" d="M411.37,-231.7C414.18,-223.81 417.58,-214.3 420.71,-205.55"/>
<polygon fill="black" stroke="black" points="424.01,-206.7 424.08,-196.1 417.42,-204.34 424.01,-206.7"/>
</g>
<!-- nat_int_nat_int_nonneg_decompose -->
<g id="node11" class="node">
<title>nat_int_nat_int_nonneg_decompose</title>
<g id="a_node11"><a xlink:href="nat_int.html#nat_int_nonneg_decompose" xlink:title="nat_int_nonneg_decompose">
<ellipse fill="#f070d1" stroke="black" cx="430.19" cy="-106" rx="137.58" ry="18"/>
<text text-anchor="middle" x="430.19" y="-102.3" font-family="Times,serif" font-size="14.00">nat_int_nonneg_decompose</text>
</a>
</g>
</g>
<!-- nat_int_nat_int_le_plus&#45;&gt;nat_int_nat_int_nonneg_decompose -->
<g id="edge11" class="edge">
<title>nat_int_nat_int_le_plus&#45;&gt;nat_int_nat_int_nonneg_decompose</title>
<path fill="none" stroke="black" d="M430.19,-159.7C430.19,-151.98 430.19,-142.71 430.19,-134.11"/>
<polygon fill="black" stroke="black" points="433.69,-134.1 430.19,-124.1 426.69,-134.1 433.69,-134.1"/>
</g>
<!-- nat_int_nat_int_to_semiring -->
<g id="node12" class="node">
<title>nat_int_nat_int_to_semiring</title>
<g id="a_node12"><a xlink:href="nat_int.html#nat_int_to_semiring" xlink:title="nat_int_to_semiring">
<ellipse fill="#f070d1" stroke="black" cx="294.19" cy="-34" rx="102.08" ry="18"/>
<text text-anchor="middle" x="294.19" y="-30.3" font-family="Times,serif" font-size="14.00">nat_int_to_semiring</text>
</a>
</g>
</g>
<!-- nat_int_nat_int_nonneg_decompose&#45;&gt;nat_int_nat_int_to_semiring -->
<g id="edge12" class="edge">
<title>nat_int_nat_int_nonneg_decompose&#45;&gt;nat_int_nat_int_to_semiring</title>
<path fill="none" stroke="black" d="M397.96,-88.41C379.02,-78.66 354.91,-66.25 334.7,-55.85"/>
<polygon fill="black" stroke="black" points="336.21,-52.69 325.72,-51.23 333.01,-58.92 336.21,-52.69"/>
</g>
<!-- nat_int_to_semiring_nonneg -->
<g id="node13" class="node">
<title>nat_int_to_semiring_nonneg</title>
<g id="a_node13"><a xlink:href="nat_int.html#to_semiring_nonneg" xlink:title="to_semiring_nonneg">
<ellipse fill="#f070d1" stroke="black" cx="593.19" cy="-34" rx="103.98" ry="18"/>
<text text-anchor="middle" x="593.19" y="-30.3" font-family="Times,serif" font-size="14.00">to_semiring_nonneg</text>
</a>
</g>
</g>
<!-- nat_int_nat_int_nonneg_decompose&#45;&gt;nat_int_to_semiring_nonneg -->
<g id="edge13" class="edge">
<title>nat_int_nat_int_nonneg_decompose&#45;&gt;nat_int_to_semiring_nonneg</title>
<path fill="none" stroke="black" d="M468.4,-88.59C491.85,-78.52 522.03,-65.56 546.83,-54.91"/>
<polygon fill="black" stroke="black" points="548.25,-58.11 556.05,-50.95 545.48,-51.68 548.25,-58.11"/>
</g>
</g>
</svg>
