<?xml version="1.0" encoding="UTF-8" standalone="no"?>
<!DOCTYPE svg PUBLIC "-//W3C//DTD SVG 1.1//EN"
 "http://www.w3.org/Graphics/SVG/1.1/DTD/svg11.dtd">
<!-- Generated by graphviz version 2.43.0 (0)
 -->
<!-- Title: HoTT_Spaces_No_Addition Pages: 1 -->
<svg width="2698pt" height="1353pt"
 viewBox="0.00 0.00 2698.00 1353.00" xmlns="http://www.w3.org/2000/svg" xmlns:xlink="http://www.w3.org/1999/xlink">
<g id="graph0" class="graph" transform="scale(1 1) rotate(0) translate(4 1349)">
<title>HoTT_Spaces_No_Addition</title>
<polygon fill="white" stroke="transparent" points="-4,4 -4,-1349 2694,-1349 2694,4 -4,4"/>
<g id="clust1" class="cluster">
<title>cluster_Addition</title>
<polygon fill="#ffffc3" stroke="black" points="8,-14.72 8,-1330.28 2682,-1330.28 2682,-14.72 8,-14.72"/>
<text text-anchor="middle" x="46.5" y="-1315.08" font-family="Times,serif" font-size="14.00">Addition</text>
</g>
<!-- Addition_sub -->
<g id="node1" class="node">
<title>Addition_sub</title>
<g id="a_node1"><a xlink:href="Addition.html#sub" xlink:title="sub">
<ellipse fill="#f070d1" stroke="black" cx="2475" cy="-1063.72" rx="27.14" ry="18"/>
<ellipse fill="none" stroke="black" cx="2475" cy="-1063.72" rx="31.12" ry="22"/>
<ellipse fill="none" stroke="black" cx="2475" cy="-1063.72" rx="35.1" ry="26"/>
<text text-anchor="middle" x="2475" y="-1060.02" font-family="Times,serif" font-size="14.00">sub</text>
</a>
</g>
</g>
<!-- Addition_plus -->
<g id="node12" class="node">
<title>Addition_plus</title>
<g id="a_node12"><a xlink:href="Addition.html#plus" xlink:title="plus">
<ellipse fill="#f070d1" stroke="black" cx="2197" cy="-916.72" rx="30.59" ry="18"/>
<text text-anchor="middle" x="2197" y="-913.02" font-family="Times,serif" font-size="14.00">plus</text>
</a>
</g>
</g>
<!-- Addition_sub&#45;&gt;Addition_plus -->
<g id="edge1" class="edge">
<title>Addition_sub&#45;&gt;Addition_plus</title>
<path fill="none" stroke="black" d="M2447.64,-1046.93C2442.15,-1043.84 2436.41,-1040.64 2431,-1037.72 2359.37,-999.03 2274,-956.02 2228.78,-933.47"/>
<polygon fill="black" stroke="black" points="2230.27,-930.31 2219.76,-928.98 2227.15,-936.57 2230.27,-930.31"/>
</g>
<!-- Addition_plus_negate -->
<g id="node2" class="node">
<title>Addition_plus_negate</title>
<g id="a_node2"><a xlink:href="Addition.html#plus_negate" xlink:title="plus_negate">
<ellipse fill="#f070d1" stroke="black" cx="2373" cy="-1225.72" rx="66.11" ry="18"/>
<ellipse fill="none" stroke="black" cx="2373" cy="-1225.72" rx="70.1" ry="22"/>
<ellipse fill="none" stroke="black" cx="2373" cy="-1225.72" rx="74.09" ry="26"/>
<text text-anchor="middle" x="2373" y="-1222.02" font-family="Times,serif" font-size="14.00">plus_negate</text>
</a>
</g>
</g>
<!-- Addition_plus_cut -->
<g id="node7" class="node">
<title>Addition_plus_cut</title>
<g id="a_node7"><a xlink:href="Addition.html#plus_cut" xlink:title="plus_cut">
<ellipse fill="#f070d1" stroke="black" cx="2139" cy="-1063.72" rx="49.29" ry="18"/>
<text text-anchor="middle" x="2139" y="-1060.02" font-family="Times,serif" font-size="14.00">plus_cut</text>
</a>
</g>
</g>
<!-- Addition_plus_negate&#45;&gt;Addition_plus_cut -->
<g id="edge2" class="edge">
<title>Addition_plus_negate&#45;&gt;Addition_plus_cut</title>
<path fill="none" stroke="black" d="M2339.97,-1202.13C2294.62,-1171.12 2213.68,-1115.79 2169.63,-1085.66"/>
<polygon fill="black" stroke="black" points="2171.56,-1082.74 2161.33,-1079.99 2167.61,-1088.52 2171.56,-1082.74"/>
</g>
<!-- Addition_plus_lt_r -->
<g id="node8" class="node">
<title>Addition_plus_lt_r</title>
<g id="a_node8"><a xlink:href="Addition.html#plus_lt_r" xlink:title="plus_lt_r">
<ellipse fill="#f070d1" stroke="black" cx="2256" cy="-1063.72" rx="50.09" ry="18"/>
<text text-anchor="middle" x="2256" y="-1060.02" font-family="Times,serif" font-size="14.00">plus_lt_r</text>
</a>
</g>
</g>
<!-- Addition_plus_negate&#45;&gt;Addition_plus_lt_r -->
<g id="edge3" class="edge">
<title>Addition_plus_negate&#45;&gt;Addition_plus_lt_r</title>
<path fill="none" stroke="black" d="M2355.23,-1200.42C2333.35,-1170.5 2296.39,-1119.95 2274.28,-1089.72"/>
<polygon fill="black" stroke="black" points="2276.92,-1087.41 2268.2,-1081.4 2271.27,-1091.54 2276.92,-1087.41"/>
</g>
<!-- Addition_plus_lt_l -->
<g id="node10" class="node">
<title>Addition_plus_lt_l</title>
<g id="a_node10"><a xlink:href="Addition.html#plus_lt_l" xlink:title="plus_lt_l">
<ellipse fill="#f070d1" stroke="black" cx="2373" cy="-1063.72" rx="48.99" ry="18"/>
<text text-anchor="middle" x="2373" y="-1060.02" font-family="Times,serif" font-size="14.00">plus_lt_l</text>
</a>
</g>
</g>
<!-- Addition_plus_negate&#45;&gt;Addition_plus_lt_l -->
<g id="edge4" class="edge">
<title>Addition_plus_negate&#45;&gt;Addition_plus_lt_l</title>
<path fill="none" stroke="black" d="M2373,-1199.72C2373,-1170.6 2373,-1122.64 2373,-1092.41"/>
<polygon fill="black" stroke="black" points="2376.5,-1092.15 2373,-1082.15 2369.5,-1092.15 2376.5,-1092.15"/>
</g>
<!-- Addition_zero_plus -->
<g id="node3" class="node">
<title>Addition_zero_plus</title>
<g id="a_node3"><a xlink:href="Addition.html#zero_plus" xlink:title="zero_plus">
<ellipse fill="#f070d1" stroke="black" cx="2218" cy="-1225.72" rx="54.68" ry="18"/>
<ellipse fill="none" stroke="black" cx="2218" cy="-1225.72" rx="58.68" ry="22"/>
<ellipse fill="none" stroke="black" cx="2218" cy="-1225.72" rx="62.69" ry="26"/>
<text text-anchor="middle" x="2218" y="-1222.02" font-family="Times,serif" font-size="14.00">zero_plus</text>
</a>
</g>
</g>
<!-- Addition_zero_plus&#45;&gt;Addition_plus_cut -->
<g id="edge5" class="edge">
<title>Addition_zero_plus&#45;&gt;Addition_plus_cut</title>
<path fill="none" stroke="black" d="M2205.83,-1200.07C2191.22,-1170.49 2166.84,-1121.1 2151.91,-1090.87"/>
<polygon fill="black" stroke="black" points="2154.99,-1089.19 2147.42,-1081.77 2148.71,-1092.29 2154.99,-1089.19"/>
</g>
<!-- Addition_plus_zero -->
<g id="node4" class="node">
<title>Addition_plus_zero</title>
<g id="a_node4"><a xlink:href="Addition.html#plus_zero" xlink:title="plus_zero">
<ellipse fill="#f070d1" stroke="black" cx="2075" cy="-1225.72" rx="54.68" ry="18"/>
<ellipse fill="none" stroke="black" cx="2075" cy="-1225.72" rx="58.68" ry="22"/>
<ellipse fill="none" stroke="black" cx="2075" cy="-1225.72" rx="62.69" ry="26"/>
<text text-anchor="middle" x="2075" y="-1222.02" font-family="Times,serif" font-size="14.00">plus_zero</text>
</a>
</g>
</g>
<!-- Addition_plus_zero&#45;&gt;Addition_plus_cut -->
<g id="edge6" class="edge">
<title>Addition_plus_zero&#45;&gt;Addition_plus_cut</title>
<path fill="none" stroke="black" d="M2085,-1199.72C2096.81,-1170.19 2116.38,-1121.27 2128.43,-1091.14"/>
<polygon fill="black" stroke="black" points="2131.75,-1092.28 2132.21,-1081.69 2125.25,-1089.68 2131.75,-1092.28"/>
</g>
<!-- Addition_plus_assoc -->
<g id="node5" class="node">
<title>Addition_plus_assoc</title>
<g id="a_node5"><a xlink:href="Addition.html#plus_assoc" xlink:title="plus_assoc">
<ellipse fill="#f070d1" stroke="black" cx="1927" cy="-1225.72" rx="59.61" ry="18"/>
<ellipse fill="none" stroke="black" cx="1927" cy="-1225.72" rx="63.6" ry="22"/>
<ellipse fill="none" stroke="black" cx="1927" cy="-1225.72" rx="67.59" ry="26"/>
<text text-anchor="middle" x="1927" y="-1222.02" font-family="Times,serif" font-size="14.00">plus_assoc</text>
</a>
</g>
</g>
<!-- Addition_plus_assoc&#45;&gt;Addition_plus_cut -->
<g id="edge7" class="edge">
<title>Addition_plus_assoc&#45;&gt;Addition_plus_cut</title>
<path fill="none" stroke="black" d="M1956.92,-1202.13C1997.74,-1171.33 2070.35,-1116.53 2110.44,-1086.28"/>
<polygon fill="black" stroke="black" points="2112.6,-1089.03 2118.47,-1080.21 2108.38,-1083.44 2112.6,-1089.03"/>
</g>
<!-- Addition_plus_comm -->
<g id="node6" class="node">
<title>Addition_plus_comm</title>
<g id="a_node6"><a xlink:href="Addition.html#plus_comm" xlink:title="plus_comm">
<ellipse fill="#f070d1" stroke="black" cx="1771" cy="-1225.72" rx="62.3" ry="18"/>
<ellipse fill="none" stroke="black" cx="1771" cy="-1225.72" rx="66.3" ry="22"/>
<ellipse fill="none" stroke="black" cx="1771" cy="-1225.72" rx="70.29" ry="26"/>
<text text-anchor="middle" x="1771" y="-1222.02" font-family="Times,serif" font-size="14.00">plus_comm</text>
</a>
</g>
</g>
<!-- Addition_plus_comm&#45;&gt;Addition_plus_cut -->
<g id="edge8" class="edge">
<title>Addition_plus_comm&#45;&gt;Addition_plus_cut</title>
<path fill="none" stroke="black" d="M1815.39,-1205.42C1887.69,-1173.98 2029.76,-1112.22 2099.07,-1082.08"/>
<polygon fill="black" stroke="black" points="2100.58,-1085.24 2108.35,-1078.05 2097.78,-1078.82 2100.58,-1085.24"/>
</g>
<!-- Addition_plus_cut&#45;&gt;Addition_plus -->
<g id="edge9" class="edge">
<title>Addition_plus_cut&#45;&gt;Addition_plus</title>
<path fill="none" stroke="black" d="M2145.77,-1045.8C2155.81,-1020.7 2174.74,-973.38 2186.56,-943.82"/>
<polygon fill="black" stroke="black" points="2189.81,-945.11 2190.28,-934.53 2183.31,-942.51 2189.81,-945.11"/>
</g>
<!-- Addition_plus_lt_r&#45;&gt;Addition_plus -->
<g id="edge10" class="edge">
<title>Addition_plus_lt_r&#45;&gt;Addition_plus</title>
<path fill="none" stroke="black" d="M2249.12,-1045.8C2238.9,-1020.7 2219.65,-973.38 2207.62,-943.82"/>
<polygon fill="black" stroke="black" points="2210.85,-942.47 2203.84,-934.53 2204.37,-945.11 2210.85,-942.47"/>
</g>
<!-- Addition_plus_le_r -->
<g id="node9" class="node">
<title>Addition_plus_le_r</title>
<g id="a_node9"><a xlink:href="Addition.html#plus_le_r" xlink:title="plus_le_r">
<ellipse fill="#f070d1" stroke="black" cx="2012" cy="-1063.72" rx="51.99" ry="18"/>
<ellipse fill="none" stroke="black" cx="2012" cy="-1063.72" rx="55.99" ry="22"/>
<ellipse fill="none" stroke="black" cx="2012" cy="-1063.72" rx="59.99" ry="26"/>
<text text-anchor="middle" x="2012" y="-1060.02" font-family="Times,serif" font-size="14.00">plus_le_r</text>
</a>
</g>
</g>
<!-- Addition_plus_le_r&#45;&gt;Addition_plus -->
<g id="edge11" class="edge">
<title>Addition_plus_le_r&#45;&gt;Addition_plus</title>
<path fill="none" stroke="black" d="M2040.1,-1040.7C2075.69,-1012.8 2136.55,-965.1 2171.08,-938.04"/>
<polygon fill="black" stroke="black" points="2173.55,-940.55 2179.26,-931.62 2169.23,-935.04 2173.55,-940.55"/>
</g>
<!-- Addition_plus_lt_l&#45;&gt;Addition_plus -->
<g id="edge12" class="edge">
<title>Addition_plus_lt_l&#45;&gt;Addition_plus</title>
<path fill="none" stroke="black" d="M2353.83,-1046.93C2321.83,-1020.56 2257.54,-967.59 2222.02,-938.33"/>
<polygon fill="black" stroke="black" points="2224,-935.43 2214.06,-931.77 2219.55,-940.83 2224,-935.43"/>
</g>
<!-- Addition_plus_le_l -->
<g id="node11" class="node">
<title>Addition_plus_le_l</title>
<g id="a_node11"><a xlink:href="Addition.html#plus_le_l" xlink:title="plus_le_l">
<ellipse fill="#f070d1" stroke="black" cx="1876" cy="-1063.72" rx="50.08" ry="18"/>
<ellipse fill="none" stroke="black" cx="1876" cy="-1063.72" rx="54.09" ry="22"/>
<ellipse fill="none" stroke="black" cx="1876" cy="-1063.72" rx="58.09" ry="26"/>
<text text-anchor="middle" x="1876" y="-1060.02" font-family="Times,serif" font-size="14.00">plus_le_l</text>
</a>
</g>
</g>
<!-- Addition_plus_le_l&#45;&gt;Addition_plus -->
<g id="edge13" class="edge">
<title>Addition_plus_le_l&#45;&gt;Addition_plus</title>
<path fill="none" stroke="black" d="M1916.01,-1044.65C1980.16,-1015.67 2104.86,-959.34 2164.15,-932.56"/>
<polygon fill="black" stroke="black" points="2165.75,-935.67 2173.43,-928.37 2162.87,-929.3 2165.75,-935.67"/>
</g>
<!-- Addition_plus_outer -->
<g id="node13" class="node">
<title>Addition_plus_outer</title>
<g id="a_node13"><a xlink:href="Addition.html#plus_outer" xlink:title="plus_outer">
<ellipse fill="#f070d1" stroke="black" cx="2197" cy="-783.72" rx="59.59" ry="18"/>
<text text-anchor="middle" x="2197" y="-780.02" font-family="Times,serif" font-size="14.00">plus_outer</text>
</a>
</g>
</g>
<!-- Addition_plus&#45;&gt;Addition_plus_outer -->
<g id="edge14" class="edge">
<title>Addition_plus&#45;&gt;Addition_plus_outer</title>
<path fill="none" stroke="black" d="M2197,-898.59C2197,-876.63 2197,-838.26 2197,-812.19"/>
<polygon fill="black" stroke="black" points="2200.5,-811.85 2197,-801.85 2193.5,-811.85 2200.5,-811.85"/>
</g>
<!-- Addition_plus_outer_subproof2 -->
<g id="node14" class="node">
<title>Addition_plus_outer_subproof2</title>
<g id="a_node14"><a xlink:href="Addition.html#plus_outer_subproof2" xlink:title="plus_outer_subproof2">
<ellipse fill="#f070d1" stroke="black" cx="2330" cy="-651.72" rx="110.48" ry="18"/>
<text text-anchor="middle" x="2330" y="-648.02" font-family="Times,serif" font-size="14.00">plus_outer_subproof2</text>
</a>
</g>
</g>
<!-- Addition_plus_outer&#45;&gt;Addition_plus_outer_subproof2 -->
<g id="edge15" class="edge">
<title>Addition_plus_outer&#45;&gt;Addition_plus_outer_subproof2</title>
<path fill="none" stroke="black" d="M2213.84,-766.25C2236.87,-743.74 2278.37,-703.19 2305.02,-677.14"/>
<polygon fill="black" stroke="black" points="2307.74,-679.37 2312.45,-669.88 2302.85,-674.36 2307.74,-679.37"/>
</g>
<!-- Addition_plus_outer_subproof1 -->
<g id="node15" class="node">
<title>Addition_plus_outer_subproof1</title>
<g id="a_node15"><a xlink:href="Addition.html#plus_outer_subproof1" xlink:title="plus_outer_subproof1">
<ellipse fill="#f070d1" stroke="black" cx="1852" cy="-651.72" rx="110.48" ry="18"/>
<text text-anchor="middle" x="1852" y="-648.02" font-family="Times,serif" font-size="14.00">plus_outer_subproof1</text>
</a>
</g>
</g>
<!-- Addition_plus_outer&#45;&gt;Addition_plus_outer_subproof1 -->
<g id="edge16" class="edge">
<title>Addition_plus_outer&#45;&gt;Addition_plus_outer_subproof1</title>
<path fill="none" stroke="black" d="M2161.06,-769.18C2099.57,-746.01 1974.03,-698.7 1903.33,-672.06"/>
<polygon fill="black" stroke="black" points="1904.33,-668.7 1893.73,-668.45 1901.86,-675.25 1904.33,-668.7"/>
</g>
<!-- Addition_plus_outer_subproof0 -->
<g id="node16" class="node">
<title>Addition_plus_outer_subproof0</title>
<g id="a_node16"><a xlink:href="Addition.html#plus_outer_subproof0" xlink:title="plus_outer_subproof0">
<ellipse fill="#f070d1" stroke="black" cx="2091" cy="-651.72" rx="110.48" ry="18"/>
<text text-anchor="middle" x="2091" y="-648.02" font-family="Times,serif" font-size="14.00">plus_outer_subproof0</text>
</a>
</g>
</g>
<!-- Addition_plus_outer&#45;&gt;Addition_plus_outer_subproof0 -->
<g id="edge17" class="edge">
<title>Addition_plus_outer&#45;&gt;Addition_plus_outer_subproof0</title>
<path fill="none" stroke="black" d="M2183.36,-765.99C2165.09,-743.59 2132.54,-703.67 2111.37,-677.7"/>
<polygon fill="black" stroke="black" points="2113.96,-675.34 2104.92,-669.8 2108.53,-679.76 2113.96,-675.34"/>
</g>
<!-- Addition_plus_outer_subproof -->
<g id="node17" class="node">
<title>Addition_plus_outer_subproof</title>
<g id="a_node17"><a xlink:href="Addition.html#plus_outer_subproof" xlink:title="plus_outer_subproof">
<ellipse fill="#f070d1" stroke="black" cx="2563" cy="-651.72" rx="104.78" ry="18"/>
<text text-anchor="middle" x="2563" y="-648.02" font-family="Times,serif" font-size="14.00">plus_outer_subproof</text>
</a>
</g>
</g>
<!-- Addition_plus_outer&#45;&gt;Addition_plus_outer_subproof -->
<g id="edge18" class="edge">
<title>Addition_plus_outer&#45;&gt;Addition_plus_outer_subproof</title>
<path fill="none" stroke="black" d="M2234.11,-769.54C2299.33,-746.37 2434.71,-698.29 2509.85,-671.6"/>
<polygon fill="black" stroke="black" points="2511.34,-674.78 2519.6,-668.14 2509,-668.19 2511.34,-674.78"/>
</g>
<!-- Addition_plus_inner_cut -->
<g id="node18" class="node">
<title>Addition_plus_inner_cut</title>
<g id="a_node18"><a xlink:href="Addition.html#plus_inner_cut" xlink:title="plus_inner_cut">
<ellipse fill="#f070d1" stroke="black" cx="2091" cy="-518.72" rx="77.99" ry="18"/>
<text text-anchor="middle" x="2091" y="-515.02" font-family="Times,serif" font-size="14.00">plus_inner_cut</text>
</a>
</g>
</g>
<!-- Addition_plus_outer_subproof2&#45;&gt;Addition_plus_inner_cut -->
<g id="edge19" class="edge">
<title>Addition_plus_outer_subproof2&#45;&gt;Addition_plus_inner_cut</title>
<path fill="none" stroke="black" d="M2299.73,-634.13C2256.28,-610.31 2176.25,-566.45 2128.92,-540.5"/>
<polygon fill="black" stroke="black" points="2130.36,-537.3 2119.91,-535.56 2126.99,-543.44 2130.36,-537.3"/>
</g>
<!-- Addition_plus_outer_subproof1&#45;&gt;Addition_plus_inner_cut -->
<g id="edge20" class="edge">
<title>Addition_plus_outer_subproof1&#45;&gt;Addition_plus_inner_cut</title>
<path fill="none" stroke="black" d="M1882.27,-634.13C1925.72,-610.31 2005.75,-566.45 2053.08,-540.5"/>
<polygon fill="black" stroke="black" points="2055.01,-543.44 2062.09,-535.56 2051.64,-537.3 2055.01,-543.44"/>
</g>
<!-- Addition_plus_outer_subproof0&#45;&gt;Addition_plus_inner_cut -->
<g id="edge21" class="edge">
<title>Addition_plus_outer_subproof0&#45;&gt;Addition_plus_inner_cut</title>
<path fill="none" stroke="black" d="M2091,-633.59C2091,-611.63 2091,-573.26 2091,-547.19"/>
<polygon fill="black" stroke="black" points="2094.5,-546.85 2091,-536.85 2087.5,-546.85 2094.5,-546.85"/>
</g>
<!-- Addition_plus_inner -->
<g id="node19" class="node">
<title>Addition_plus_inner</title>
<g id="a_node19"><a xlink:href="Addition.html#plus_inner" xlink:title="plus_inner">
<ellipse fill="#f070d1" stroke="black" cx="2091" cy="-371.72" rx="59.29" ry="18"/>
<text text-anchor="middle" x="2091" y="-368.02" font-family="Times,serif" font-size="14.00">plus_inner</text>
</a>
</g>
</g>
<!-- Addition_plus_inner_cut&#45;&gt;Addition_plus_inner -->
<g id="edge22" class="edge">
<title>Addition_plus_inner_cut&#45;&gt;Addition_plus_inner</title>
<path fill="none" stroke="black" d="M2091,-500.52C2091,-475.66 2091,-429.46 2091,-399.95"/>
<polygon fill="black" stroke="black" points="2094.5,-399.9 2091,-389.9 2087.5,-399.9 2094.5,-399.9"/>
</g>
<!-- Addition_plus_inner_subproof3 -->
<g id="node20" class="node">
<title>Addition_plus_inner_subproof3</title>
<g id="a_node20"><a xlink:href="Addition.html#plus_inner_subproof3" xlink:title="plus_inner_subproof3">
<ellipse fill="#f070d1" stroke="black" cx="2086" cy="-209.72" rx="110.48" ry="18"/>
<text text-anchor="middle" x="2086" y="-206.02" font-family="Times,serif" font-size="14.00">plus_inner_subproof3</text>
</a>
</g>
</g>
<!-- Addition_plus_inner&#45;&gt;Addition_plus_inner_subproof3 -->
<g id="edge23" class="edge">
<title>Addition_plus_inner&#45;&gt;Addition_plus_inner_subproof3</title>
<path fill="none" stroke="black" d="M2090.46,-353.6C2089.6,-326.07 2087.91,-271.73 2086.87,-238.57"/>
<polygon fill="black" stroke="black" points="2090.36,-238.09 2086.55,-228.2 2083.36,-238.31 2090.36,-238.09"/>
</g>
<!-- Addition_plus_inner_subproof2 -->
<g id="node21" class="node">
<title>Addition_plus_inner_subproof2</title>
<g id="a_node21"><a xlink:href="Addition.html#plus_inner_subproof2" xlink:title="plus_inner_subproof2">
<ellipse fill="#f070d1" stroke="black" cx="2325" cy="-209.72" rx="110.48" ry="18"/>
<text text-anchor="middle" x="2325" y="-206.02" font-family="Times,serif" font-size="14.00">plus_inner_subproof2</text>
</a>
</g>
</g>
<!-- Addition_plus_inner&#45;&gt;Addition_plus_inner_subproof2 -->
<g id="edge24" class="edge">
<title>Addition_plus_inner&#45;&gt;Addition_plus_inner_subproof2</title>
<path fill="none" stroke="black" d="M2113.86,-355.09C2155.54,-326.59 2244.02,-266.09 2292.15,-233.18"/>
<polygon fill="black" stroke="black" points="2294.37,-235.91 2300.64,-227.37 2290.41,-230.13 2294.37,-235.91"/>
</g>
<!-- Addition_plus_inner_subproof1 -->
<g id="node22" class="node">
<title>Addition_plus_inner_subproof1</title>
<g id="a_node22"><a xlink:href="Addition.html#plus_inner_subproof1" xlink:title="plus_inner_subproof1">
<ellipse fill="#f070d1" stroke="black" cx="1847" cy="-209.72" rx="110.48" ry="18"/>
<text text-anchor="middle" x="1847" y="-206.02" font-family="Times,serif" font-size="14.00">plus_inner_subproof1</text>
</a>
</g>
</g>
<!-- Addition_plus_inner&#45;&gt;Addition_plus_inner_subproof1 -->
<g id="edge25" class="edge">
<title>Addition_plus_inner&#45;&gt;Addition_plus_inner_subproof1</title>
<path fill="none" stroke="black" d="M2067.16,-355.09C2023.61,-326.53 1931.06,-265.84 1880.94,-232.98"/>
<polygon fill="black" stroke="black" points="1882.68,-229.93 1872.4,-227.37 1878.84,-235.78 1882.68,-229.93"/>
</g>
<!-- Addition_plus_inner_subproof0 -->
<g id="node23" class="node">
<title>Addition_plus_inner_subproof0</title>
<g id="a_node23"><a xlink:href="Addition.html#plus_inner_subproof0" xlink:title="plus_inner_subproof0">
<ellipse fill="#f070d1" stroke="black" cx="2564" cy="-209.72" rx="110.48" ry="18"/>
<text text-anchor="middle" x="2564" y="-206.02" font-family="Times,serif" font-size="14.00">plus_inner_subproof0</text>
</a>
</g>
</g>
<!-- Addition_plus_inner&#45;&gt;Addition_plus_inner_subproof0 -->
<g id="edge26" class="edge">
<title>Addition_plus_inner&#45;&gt;Addition_plus_inner_subproof0</title>
<path fill="none" stroke="black" d="M2128.91,-357.9C2212.2,-329.72 2411.48,-262.31 2508.73,-229.42"/>
<polygon fill="black" stroke="black" points="2510.03,-232.67 2518.38,-226.15 2507.78,-226.04 2510.03,-232.67"/>
</g>
<!-- Addition_plus_inner_subproof -->
<g id="node24" class="node">
<title>Addition_plus_inner_subproof</title>
<g id="a_node24"><a xlink:href="Addition.html#plus_inner_subproof" xlink:title="plus_inner_subproof">
<ellipse fill="#f070d1" stroke="black" cx="2086" cy="-62.72" rx="104.78" ry="18"/>
<text text-anchor="middle" x="2086" y="-59.02" font-family="Times,serif" font-size="14.00">plus_inner_subproof</text>
</a>
</g>
</g>
<!-- Addition_plus_inner_subproof3&#45;&gt;Addition_plus_inner_subproof -->
<g id="edge27" class="edge">
<title>Addition_plus_inner_subproof3&#45;&gt;Addition_plus_inner_subproof</title>
<path fill="none" stroke="black" d="M2086,-191.52C2086,-166.66 2086,-120.46 2086,-90.95"/>
<polygon fill="black" stroke="black" points="2089.5,-90.9 2086,-80.9 2082.5,-90.9 2089.5,-90.9"/>
</g>
<!-- Addition_HasAddition -->
<g id="node35" class="node">
<title>Addition_HasAddition</title>
<g id="a_node35"><a xlink:href="Addition.html#HasAddition" xlink:title="HasAddition">
<ellipse fill="#e2cdfa" stroke="black" cx="1264" cy="-62.72" rx="67.69" ry="18"/>
<text text-anchor="middle" x="1264" y="-59.02" font-family="Times,serif" font-size="14.00">HasAddition</text>
</a>
</g>
</g>
<!-- Addition_plus_inner_subproof3&#45;&gt;Addition_HasAddition -->
<g id="edge28" class="edge">
<title>Addition_plus_inner_subproof3&#45;&gt;Addition_HasAddition</title>
<path fill="none" stroke="black" d="M2022.25,-194.99C2004.1,-191.21 1984.29,-187.19 1966,-183.72 1733.23,-139.59 1455.63,-94.29 1330.71,-74.3"/>
<polygon fill="black" stroke="black" points="1330.97,-70.8 1320.54,-72.67 1329.86,-77.71 1330.97,-70.8"/>
</g>
<!-- Addition_plus_inner_subproof2&#45;&gt;Addition_plus_inner_subproof -->
<g id="edge29" class="edge">
<title>Addition_plus_inner_subproof2&#45;&gt;Addition_plus_inner_subproof</title>
<path fill="none" stroke="black" d="M2297.58,-192.09C2254.27,-165.81 2170.01,-114.69 2121.92,-85.51"/>
<polygon fill="black" stroke="black" points="2123.46,-82.35 2113.1,-80.16 2119.83,-88.34 2123.46,-82.35"/>
</g>
<!-- Addition_plus_inner_subproof2&#45;&gt;Addition_HasAddition -->
<g id="edge30" class="edge">
<title>Addition_plus_inner_subproof2&#45;&gt;Addition_HasAddition</title>
<path fill="none" stroke="black" d="M2262.89,-194.81C2244.33,-190.92 2223.89,-186.89 2205,-183.72 1882.56,-129.66 1494.34,-87.28 1336.26,-70.98"/>
<polygon fill="black" stroke="black" points="1336.49,-67.48 1326.18,-69.94 1335.77,-74.44 1336.49,-67.48"/>
</g>
<!-- Addition_plus_inner_subproof1&#45;&gt;Addition_plus_inner_subproof -->
<g id="edge31" class="edge">
<title>Addition_plus_inner_subproof1&#45;&gt;Addition_plus_inner_subproof</title>
<path fill="none" stroke="black" d="M1874.42,-192.09C1917.73,-165.81 2001.99,-114.69 2050.08,-85.51"/>
<polygon fill="black" stroke="black" points="2052.17,-88.34 2058.9,-80.16 2048.54,-82.35 2052.17,-88.34"/>
</g>
<!-- Addition_plus_inner_subproof1&#45;&gt;Addition_HasAddition -->
<g id="edge32" class="edge">
<title>Addition_plus_inner_subproof1&#45;&gt;Addition_HasAddition</title>
<path fill="none" stroke="black" d="M1789.24,-194.35C1677.41,-166.54 1432.58,-105.65 1321.2,-77.95"/>
<polygon fill="black" stroke="black" points="1322.04,-74.55 1311.49,-75.53 1320.35,-81.34 1322.04,-74.55"/>
</g>
<!-- Addition_hasaddition_decsort -->
<g id="node25" class="node">
<title>Addition_hasaddition_decsort</title>
<g id="a_node25"><a xlink:href="Addition.html#hasaddition_decsort" xlink:title="hasaddition_decsort">
<ellipse fill="#f070d1" stroke="black" cx="835" cy="-209.72" rx="103.98" ry="18"/>
<ellipse fill="none" stroke="black" cx="835" cy="-209.72" rx="107.98" ry="22"/>
<ellipse fill="none" stroke="black" cx="835" cy="-209.72" rx="111.98" ry="26"/>
<text text-anchor="middle" x="835" y="-206.02" font-family="Times,serif" font-size="14.00">hasaddition_decsort</text>
</a>
</g>
</g>
<!-- Addition_Build_HasAddition -->
<g id="node34" class="node">
<title>Addition_Build_HasAddition</title>
<g id="a_node34"><a xlink:href="Addition.html#Build_HasAddition" xlink:title="Build_HasAddition">
<ellipse fill="#7faaff" stroke="black" cx="714" cy="-62.72" rx="96.68" ry="18"/>
<text text-anchor="middle" x="714" y="-59.02" font-family="Times,serif" font-size="14.00">Build_HasAddition</text>
</a>
</g>
</g>
<!-- Addition_hasaddition_decsort&#45;&gt;Addition_Build_HasAddition -->
<g id="edge33" class="edge">
<title>Addition_hasaddition_decsort&#45;&gt;Addition_Build_HasAddition</title>
<path fill="none" stroke="black" d="M814.47,-184.12C792.23,-157.47 756.94,-115.18 734.65,-88.47"/>
<polygon fill="black" stroke="black" points="737.27,-86.15 728.18,-80.71 731.9,-90.63 737.27,-86.15"/>
</g>
<!-- Addition_hasaddition_decsort&#45;&gt;Addition_HasAddition -->
<g id="edge34" class="edge">
<title>Addition_hasaddition_decsort&#45;&gt;Addition_HasAddition</title>
<path fill="none" stroke="black" d="M896.47,-187.94C982.01,-159.03 1135.3,-107.22 1214.15,-80.57"/>
<polygon fill="black" stroke="black" points="1215.49,-83.81 1223.84,-77.29 1213.25,-77.18 1215.49,-83.81"/>
</g>
<!-- Addition_hasaddition_ordsort -->
<g id="node26" class="node">
<title>Addition_hasaddition_ordsort</title>
<g id="a_node26"><a xlink:href="Addition.html#hasaddition_ordsort" xlink:title="hasaddition_ordsort">
<ellipse fill="#f070d1" stroke="black" cx="594" cy="-209.72" rx="103.19" ry="18"/>
<ellipse fill="none" stroke="black" cx="594" cy="-209.72" rx="107.19" ry="22"/>
<ellipse fill="none" stroke="black" cx="594" cy="-209.72" rx="111.18" ry="26"/>
<text text-anchor="middle" x="594" y="-206.02" font-family="Times,serif" font-size="14.00">hasaddition_ordsort</text>
</a>
</g>
</g>
<!-- Addition_hasaddition_ordsort&#45;&gt;Addition_Build_HasAddition -->
<g id="edge35" class="edge">
<title>Addition_hasaddition_ordsort&#45;&gt;Addition_Build_HasAddition</title>
<path fill="none" stroke="black" d="M614.36,-184.12C636.41,-157.47 671.41,-115.18 693.52,-88.47"/>
<polygon fill="black" stroke="black" points="696.26,-90.65 699.94,-80.71 690.86,-86.18 696.26,-90.65"/>
</g>
<!-- Addition_hasaddition_ordsort&#45;&gt;Addition_HasAddition -->
<g id="edge36" class="edge">
<title>Addition_hasaddition_ordsort&#45;&gt;Addition_HasAddition</title>
<path fill="none" stroke="black" d="M673.82,-191.45C809.5,-162.08 1082.15,-103.08 1203.43,-76.83"/>
<polygon fill="black" stroke="black" points="1204.26,-80.23 1213.3,-74.69 1202.78,-73.39 1204.26,-80.23"/>
</g>
<!-- Addition_hasaddition_maxsort -->
<g id="node27" class="node">
<title>Addition_hasaddition_maxsort</title>
<g id="a_node27"><a xlink:href="Addition.html#hasaddition_maxsort" xlink:title="hasaddition_maxsort">
<ellipse fill="#f070d1" stroke="black" cx="349" cy="-209.72" rx="107.46" ry="18"/>
<ellipse fill="none" stroke="black" cx="349" cy="-209.72" rx="111.47" ry="22"/>
<ellipse fill="none" stroke="black" cx="349" cy="-209.72" rx="115.48" ry="26"/>
<text text-anchor="middle" x="349" y="-206.02" font-family="Times,serif" font-size="14.00">hasaddition_maxsort</text>
</a>
</g>
</g>
<!-- Addition_hasaddition_maxsort&#45;&gt;Addition_Build_HasAddition -->
<g id="edge37" class="edge">
<title>Addition_hasaddition_maxsort&#45;&gt;Addition_Build_HasAddition</title>
<path fill="none" stroke="black" d="M404.04,-186.85C475.03,-158.65 597.42,-110.03 665.22,-83.1"/>
<polygon fill="black" stroke="black" points="666.82,-86.23 674.82,-79.28 664.23,-79.72 666.82,-86.23"/>
</g>
<!-- Addition_hasaddition_maxsort&#45;&gt;Addition_HasAddition -->
<g id="edge38" class="edge">
<title>Addition_hasaddition_maxsort&#45;&gt;Addition_HasAddition</title>
<path fill="none" stroke="black" d="M431.94,-191.57C445.96,-188.83 460.38,-186.12 474,-183.72 739.59,-137.02 1057.33,-92.05 1194.89,-73.11"/>
<polygon fill="black" stroke="black" points="1195.45,-76.57 1204.88,-71.74 1194.5,-69.63 1195.45,-76.57"/>
</g>
<!-- Addition_sum_options -->
<g id="node28" class="node">
<title>Addition_sum_options</title>
<g id="a_node28"><a xlink:href="Addition.html#sum_options" xlink:title="sum_options">
<ellipse fill="#f070d1" stroke="black" cx="1642" cy="-209.72" rx="68.8" ry="18"/>
<ellipse fill="none" stroke="black" cx="1642" cy="-209.72" rx="72.79" ry="22"/>
<ellipse fill="none" stroke="black" cx="1642" cy="-209.72" rx="76.79" ry="26"/>
<text text-anchor="middle" x="1642" y="-206.02" font-family="Times,serif" font-size="14.00">sum_options</text>
</a>
</g>
</g>
<!-- Addition_sum_options&#45;&gt;Addition_HasAddition -->
<g id="edge39" class="edge">
<title>Addition_sum_options&#45;&gt;Addition_HasAddition</title>
<path fill="none" stroke="black" d="M1592.58,-189.76C1519.19,-161.61 1382.35,-109.12 1310.61,-81.6"/>
<polygon fill="black" stroke="black" points="1311.52,-78.2 1300.93,-77.89 1309.02,-84.74 1311.52,-78.2"/>
</g>
<!-- Addition_empty_options -->
<g id="node29" class="node">
<title>Addition_empty_options</title>
<g id="a_node29"><a xlink:href="Addition.html#empty_options" xlink:title="empty_options">
<ellipse fill="#f070d1" stroke="black" cx="1460" cy="-209.72" rx="78.77" ry="18"/>
<ellipse fill="none" stroke="black" cx="1460" cy="-209.72" rx="82.78" ry="22"/>
<ellipse fill="none" stroke="black" cx="1460" cy="-209.72" rx="86.79" ry="26"/>
<text text-anchor="middle" x="1460" y="-206.02" font-family="Times,serif" font-size="14.00">empty_options</text>
</a>
</g>
</g>
<!-- Addition_empty_options&#45;&gt;Addition_HasAddition -->
<g id="edge40" class="edge">
<title>Addition_empty_options&#45;&gt;Addition_HasAddition</title>
<path fill="none" stroke="black" d="M1428.51,-185.42C1391.44,-158 1330.34,-112.8 1293.95,-85.88"/>
<polygon fill="black" stroke="black" points="1295.82,-82.91 1285.7,-79.78 1291.66,-88.54 1295.82,-82.91"/>
</g>
<!-- Addition_HasAddition_sind -->
<g id="node30" class="node">
<title>Addition_HasAddition_sind</title>
<g id="a_node30"><a xlink:href="Addition.html#HasAddition_sind" xlink:title="HasAddition_sind">
<ellipse fill="#f070d1" stroke="black" cx="116" cy="-209.72" rx="91.77" ry="18"/>
<ellipse fill="none" stroke="black" cx="116" cy="-209.72" rx="95.78" ry="22"/>
<ellipse fill="none" stroke="black" cx="116" cy="-209.72" rx="99.78" ry="26"/>
<text text-anchor="middle" x="116" y="-206.02" font-family="Times,serif" font-size="14.00">HasAddition_sind</text>
</a>
</g>
</g>
<!-- Addition_HasAddition_sind&#45;&gt;Addition_Build_HasAddition -->
<g id="edge41" class="edge">
<title>Addition_HasAddition_sind&#45;&gt;Addition_Build_HasAddition</title>
<path fill="none" stroke="black" d="M187.24,-191.45C303.89,-163.16 533.96,-107.37 647.47,-79.85"/>
<polygon fill="black" stroke="black" points="648.53,-83.2 657.42,-77.44 646.88,-76.39 648.53,-83.2"/>
</g>
<!-- Addition_HasAddition_sind&#45;&gt;Addition_HasAddition -->
<g id="edge42" class="edge">
<title>Addition_HasAddition_sind&#45;&gt;Addition_HasAddition</title>
<path fill="none" stroke="black" d="M186.72,-191.31C199.41,-188.52 212.56,-185.86 225,-183.72 584.3,-121.96 1019.09,-83.26 1189.96,-69.44"/>
<polygon fill="black" stroke="black" points="1190.42,-72.92 1200.1,-68.63 1189.86,-65.94 1190.42,-72.92"/>
</g>
<!-- Addition_HasAddition_rec -->
<g id="node31" class="node">
<title>Addition_HasAddition_rec</title>
<g id="a_node31"><a xlink:href="Addition.html#HasAddition_rec" xlink:title="HasAddition_rec">
<ellipse fill="#f070d1" stroke="black" cx="1264" cy="-371.72" rx="87.18" ry="18"/>
<ellipse fill="none" stroke="black" cx="1264" cy="-371.72" rx="91.18" ry="22"/>
<ellipse fill="none" stroke="black" cx="1264" cy="-371.72" rx="95.18" ry="26"/>
<text text-anchor="middle" x="1264" y="-368.02" font-family="Times,serif" font-size="14.00">HasAddition_rec</text>
</a>
</g>
</g>
<!-- Addition_HasAddition_rect -->
<g id="node33" class="node">
<title>Addition_HasAddition_rect</title>
<g id="a_node33"><a xlink:href="Addition.html#HasAddition_rect" xlink:title="HasAddition_rect">
<ellipse fill="#f070d1" stroke="black" cx="1264" cy="-209.72" rx="90.98" ry="18"/>
<text text-anchor="middle" x="1264" y="-206.02" font-family="Times,serif" font-size="14.00">HasAddition_rect</text>
</a>
</g>
</g>
<!-- Addition_HasAddition_rec&#45;&gt;Addition_HasAddition_rect -->
<g id="edge43" class="edge">
<title>Addition_HasAddition_rec&#45;&gt;Addition_HasAddition_rect</title>
<path fill="none" stroke="black" d="M1264,-345.72C1264,-316.6 1264,-268.64 1264,-238.41"/>
<polygon fill="black" stroke="black" points="1267.5,-238.15 1264,-228.15 1260.5,-238.15 1267.5,-238.15"/>
</g>
<!-- Addition_HasAddition_ind -->
<g id="node32" class="node">
<title>Addition_HasAddition_ind</title>
<g id="a_node32"><a xlink:href="Addition.html#HasAddition_ind" xlink:title="HasAddition_ind">
<ellipse fill="#7fffd4" stroke="black" cx="1060" cy="-209.72" rx="87.18" ry="18"/>
<ellipse fill="none" stroke="black" cx="1060" cy="-209.72" rx="91.18" ry="22"/>
<ellipse fill="none" stroke="black" cx="1060" cy="-209.72" rx="95.18" ry="26"/>
<text text-anchor="middle" x="1060" y="-206.02" font-family="Times,serif" font-size="14.00">HasAddition_ind</text>
</a>
</g>
</g>
<!-- Addition_HasAddition_ind&#45;&gt;Addition_Build_HasAddition -->
<g id="edge44" class="edge">
<title>Addition_HasAddition_ind&#45;&gt;Addition_Build_HasAddition</title>
<path fill="none" stroke="black" d="M1009.69,-187.64C942.92,-159.66 825.93,-110.63 760.92,-83.38"/>
<polygon fill="black" stroke="black" points="761.91,-80 751.34,-79.37 759.21,-86.46 761.91,-80"/>
</g>
<!-- Addition_HasAddition_ind&#45;&gt;Addition_HasAddition -->
<g id="edge45" class="edge">
<title>Addition_HasAddition_ind&#45;&gt;Addition_HasAddition</title>
<path fill="none" stroke="black" d="M1093.23,-185.1C1131.9,-157.61 1195.27,-112.58 1232.97,-85.77"/>
<polygon fill="black" stroke="black" points="1235.4,-88.34 1241.52,-79.7 1231.34,-82.64 1235.4,-88.34"/>
</g>
<!-- Addition_HasAddition_rect&#45;&gt;Addition_Build_HasAddition -->
<g id="edge46" class="edge">
<title>Addition_HasAddition_rect&#45;&gt;Addition_Build_HasAddition</title>
<path fill="none" stroke="black" d="M1211.76,-194.95C1110.35,-168.21 887.17,-109.37 777.44,-80.45"/>
<polygon fill="black" stroke="black" points="778.07,-76.99 767.5,-77.83 776.28,-83.76 778.07,-76.99"/>
</g>
<!-- Addition_HasAddition_rect&#45;&gt;Addition_HasAddition -->
<g id="edge47" class="edge">
<title>Addition_HasAddition_rect&#45;&gt;Addition_HasAddition</title>
<path fill="none" stroke="black" d="M1264,-191.52C1264,-166.66 1264,-120.46 1264,-90.95"/>
<polygon fill="black" stroke="black" points="1267.5,-90.9 1264,-80.9 1260.5,-90.9 1267.5,-90.9"/>
</g>
</g>
</svg>
