<?xml version="1.0" encoding="UTF-8" standalone="no"?>
<!DOCTYPE svg PUBLIC "-//W3C//DTD SVG 1.1//EN"
 "http://www.w3.org/Graphics/SVG/1.1/DTD/svg11.dtd">
<!-- Generated by graphviz version 2.43.0 (0)
 -->
<!-- Title: HoTT_HFiber Pages: 1 -->
<svg width="3616pt" height="1812pt"
 viewBox="0.00 0.00 3616.00 1812.00" xmlns="http://www.w3.org/2000/svg" xmlns:xlink="http://www.w3.org/1999/xlink">
<g id="graph0" class="graph" transform="scale(1 1) rotate(0) translate(4 1808)">
<title>HoTT_HFiber</title>
<polygon fill="white" stroke="transparent" points="-4,4 -4,-1808 3612,-1808 3612,4 -4,4"/>
<g id="clust1" class="cluster">
<title>cluster_HFiber</title>
<polygon fill="#ffffc3" stroke="black" points="8,-28.02 8,-1775.98 3600,-1775.98 3600,-28.02 8,-28.02"/>
<text text-anchor="middle" x="41.5" y="-1760.78" font-family="Times,serif" font-size="14.00">HFiber</text>
</g>
<!-- HFiber_ap_isinj_embedding_beta -->
<g id="node1" class="node">
<title>HFiber_ap_isinj_embedding_beta</title>
<g id="a_node1"><a xlink:href="HFiber.html#ap_isinj_embedding_beta" xlink:title="ap_isinj_embedding_beta">
<ellipse fill="#f070d1" stroke="black" cx="3457" cy="-1576.02" rx="126.96" ry="18"/>
<ellipse fill="none" stroke="black" cx="3457" cy="-1576.02" rx="130.97" ry="22"/>
<ellipse fill="none" stroke="black" cx="3457" cy="-1576.02" rx="134.98" ry="26"/>
<text text-anchor="middle" x="3457" y="-1572.32" font-family="Times,serif" font-size="14.00">ap_isinj_embedding_beta</text>
</a>
</g>
</g>
<!-- HFiber_equiv_ap_isembedding -->
<g id="node5" class="node">
<title>HFiber_equiv_ap_isembedding</title>
<g id="a_node5"><a xlink:href="HFiber.html#equiv_ap_isembedding" xlink:title="equiv_ap_isembedding">
<ellipse fill="#f070d1" stroke="black" cx="2862" cy="-1268.02" rx="115.88" ry="18"/>
<text text-anchor="middle" x="2862" y="-1264.32" font-family="Times,serif" font-size="14.00">equiv_ap_isembedding</text>
</a>
</g>
</g>
<!-- HFiber_ap_isinj_embedding_beta&#45;&gt;HFiber_equiv_ap_isembedding -->
<g id="edge1" class="edge">
<title>HFiber_ap_isinj_embedding_beta&#45;&gt;HFiber_equiv_ap_isembedding</title>
<path fill="none" stroke="black" d="M3411.3,-1551.52C3298.9,-1493.72 3010.38,-1345.33 2903.04,-1290.13"/>
<polygon fill="black" stroke="black" points="2904.32,-1286.85 2893.82,-1285.39 2901.12,-1293.08 2904.32,-1286.85"/>
</g>
<!-- HFiber_isembedding_equiv_fun -->
<g id="node2" class="node">
<title>HFiber_isembedding_equiv_fun</title>
<g id="a_node2"><a xlink:href="HFiber.html#isembedding_equiv_fun" xlink:title="isembedding_equiv_fun">
<ellipse fill="#f070d1" stroke="black" cx="3464" cy="-1268.02" rx="119.67" ry="18"/>
<ellipse fill="none" stroke="black" cx="3464" cy="-1268.02" rx="123.68" ry="22"/>
<ellipse fill="none" stroke="black" cx="3464" cy="-1268.02" rx="127.68" ry="26"/>
<text text-anchor="middle" x="3464" y="-1264.32" font-family="Times,serif" font-size="14.00">isembedding_equiv_fun</text>
</a>
</g>
</g>
<!-- HFiber_isembedding_isequiv_ap -->
<g id="node4" class="node">
<title>HFiber_isembedding_isequiv_ap</title>
<g id="a_node4"><a xlink:href="HFiber.html#isembedding_isequiv_ap" xlink:title="isembedding_isequiv_ap">
<ellipse fill="#f070d1" stroke="black" cx="3421" cy="-960.02" rx="123.48" ry="18"/>
<text text-anchor="middle" x="3421" y="-956.32" font-family="Times,serif" font-size="14.00">isembedding_isequiv_ap</text>
</a>
</g>
</g>
<!-- HFiber_isembedding_equiv_fun&#45;&gt;HFiber_isembedding_isequiv_ap -->
<g id="edge2" class="edge">
<title>HFiber_isembedding_equiv_fun&#45;&gt;HFiber_isembedding_isequiv_ap</title>
<path fill="none" stroke="black" d="M3460.48,-1241.98C3452.49,-1185.14 3433.05,-1046.76 3424.8,-988.06"/>
<polygon fill="black" stroke="black" points="3428.25,-987.48 3423.4,-978.07 3421.32,-988.46 3428.25,-987.48"/>
</g>
<!-- HFiber_equiv_isequiv_ap_isembedding -->
<g id="node3" class="node">
<title>HFiber_equiv_isequiv_ap_isembedding</title>
<g id="a_node3"><a xlink:href="HFiber.html#equiv_isequiv_ap_isembedding" xlink:title="equiv_isequiv_ap_isembedding">
<ellipse fill="#f070d1" stroke="black" cx="3157" cy="-1268.02" rx="153.28" ry="18"/>
<ellipse fill="none" stroke="black" cx="3157" cy="-1268.02" rx="157.28" ry="22"/>
<ellipse fill="none" stroke="black" cx="3157" cy="-1268.02" rx="161.27" ry="26"/>
<text text-anchor="middle" x="3157" y="-1264.32" font-family="Times,serif" font-size="14.00">equiv_isequiv_ap_isembedding</text>
</a>
</g>
</g>
<!-- HFiber_equiv_isequiv_ap_isembedding&#45;&gt;HFiber_isembedding_isequiv_ap -->
<g id="edge3" class="edge">
<title>HFiber_equiv_isequiv_ap_isembedding&#45;&gt;HFiber_isembedding_isequiv_ap</title>
<path fill="none" stroke="black" d="M3178.38,-1242.24C3227.87,-1184.88 3349.86,-1043.48 3399.48,-985.96"/>
<polygon fill="black" stroke="black" points="3402.38,-987.96 3406.26,-978.11 3397.08,-983.39 3402.38,-987.96"/>
</g>
<!-- HFiber_isequiv_ap_isembedding -->
<g id="node6" class="node">
<title>HFiber_isequiv_ap_isembedding</title>
<g id="a_node6"><a xlink:href="HFiber.html#isequiv_ap_isembedding" xlink:title="isequiv_ap_isembedding">
<ellipse fill="#f070d1" stroke="black" cx="2905" cy="-960.02" rx="123.48" ry="18"/>
<text text-anchor="middle" x="2905" y="-956.32" font-family="Times,serif" font-size="14.00">isequiv_ap_isembedding</text>
</a>
</g>
</g>
<!-- HFiber_equiv_isequiv_ap_isembedding&#45;&gt;HFiber_isequiv_ap_isembedding -->
<g id="edge4" class="edge">
<title>HFiber_equiv_isequiv_ap_isembedding&#45;&gt;HFiber_isequiv_ap_isembedding</title>
<path fill="none" stroke="black" d="M3136.38,-1241.98C3088.99,-1184.43 2972.76,-1043.3 2925.49,-985.91"/>
<polygon fill="black" stroke="black" points="2928.1,-983.56 2919.04,-978.07 2922.69,-988.01 2928.1,-983.56"/>
</g>
<!-- HFiber_istruncmap_from_ap -->
<g id="node8" class="node">
<title>HFiber_istruncmap_from_ap</title>
<g id="a_node8"><a xlink:href="HFiber.html#istruncmap_from_ap" xlink:title="istruncmap_from_ap">
<ellipse fill="#f070d1" stroke="black" cx="3264" cy="-652.02" rx="105.08" ry="18"/>
<text text-anchor="middle" x="3264" y="-648.32" font-family="Times,serif" font-size="14.00">istruncmap_from_ap</text>
</a>
</g>
</g>
<!-- HFiber_isembedding_isequiv_ap&#45;&gt;HFiber_istruncmap_from_ap -->
<g id="edge5" class="edge">
<title>HFiber_isembedding_isequiv_ap&#45;&gt;HFiber_istruncmap_from_ap</title>
<path fill="none" stroke="black" d="M3412.11,-941.69C3385.88,-890.57 3308.7,-740.14 3277.41,-679.15"/>
<polygon fill="black" stroke="black" points="3280.47,-677.46 3272.79,-670.16 3274.24,-680.66 3280.47,-677.46"/>
</g>
<!-- HFiber_equiv_ap_isembedding&#45;&gt;HFiber_isequiv_ap_isembedding -->
<g id="edge6" class="edge">
<title>HFiber_equiv_ap_isembedding&#45;&gt;HFiber_isequiv_ap_isembedding</title>
<path fill="none" stroke="black" d="M2864.44,-1249.69C2871.57,-1198.89 2892.5,-1049.99 2901.17,-988.29"/>
<polygon fill="black" stroke="black" points="2904.67,-988.55 2902.59,-978.16 2897.73,-987.58 2904.67,-988.55"/>
</g>
<!-- HFiber_istruncmap_ap -->
<g id="node9" class="node">
<title>HFiber_istruncmap_ap</title>
<g id="a_node9"><a xlink:href="HFiber.html#istruncmap_ap" xlink:title="istruncmap_ap">
<ellipse fill="#f070d1" stroke="black" cx="3061" cy="-652.02" rx="79.09" ry="18"/>
<text text-anchor="middle" x="3061" y="-648.32" font-family="Times,serif" font-size="14.00">istruncmap_ap</text>
</a>
</g>
</g>
<!-- HFiber_isequiv_ap_isembedding&#45;&gt;HFiber_istruncmap_ap -->
<g id="edge7" class="edge">
<title>HFiber_isequiv_ap_isembedding&#45;&gt;HFiber_istruncmap_ap</title>
<path fill="none" stroke="black" d="M2913.83,-941.69C2939.9,-890.57 3016.59,-740.14 3047.68,-679.15"/>
<polygon fill="black" stroke="black" points="3050.84,-680.66 3052.26,-670.16 3044.6,-677.48 3050.84,-680.66"/>
</g>
<!-- HFiber_equiv_istruncmap_ap -->
<g id="node7" class="node">
<title>HFiber_equiv_istruncmap_ap</title>
<g id="a_node7"><a xlink:href="HFiber.html#equiv_istruncmap_ap" xlink:title="equiv_istruncmap_ap">
<ellipse fill="#f070d1" stroke="black" cx="3163" cy="-960.02" rx="108.58" ry="18"/>
<ellipse fill="none" stroke="black" cx="3163" cy="-960.02" rx="112.58" ry="22"/>
<ellipse fill="none" stroke="black" cx="3163" cy="-960.02" rx="116.58" ry="26"/>
<text text-anchor="middle" x="3163" y="-956.32" font-family="Times,serif" font-size="14.00">equiv_istruncmap_ap</text>
</a>
</g>
</g>
<!-- HFiber_equiv_istruncmap_ap&#45;&gt;HFiber_istruncmap_from_ap -->
<g id="edge8" class="edge">
<title>HFiber_equiv_istruncmap_ap&#45;&gt;HFiber_istruncmap_from_ap</title>
<path fill="none" stroke="black" d="M3171.27,-933.98C3190.07,-877.02 3235.89,-738.19 3255.2,-679.7"/>
<polygon fill="black" stroke="black" points="3258.56,-680.66 3258.37,-670.07 3251.92,-678.47 3258.56,-680.66"/>
</g>
<!-- HFiber_equiv_istruncmap_ap&#45;&gt;HFiber_istruncmap_ap -->
<g id="edge9" class="edge">
<title>HFiber_equiv_istruncmap_ap&#45;&gt;HFiber_istruncmap_ap</title>
<path fill="none" stroke="black" d="M3154.65,-933.98C3135.67,-877.02 3089.39,-738.19 3069.89,-679.7"/>
<polygon fill="black" stroke="black" points="3073.16,-678.45 3066.68,-670.07 3066.52,-680.66 3073.16,-678.45"/>
</g>
<!-- HFiber_hfiber_ap -->
<g id="node29" class="node">
<title>HFiber_hfiber_ap</title>
<g id="a_node29"><a xlink:href="HFiber.html#hfiber_ap" xlink:title="hfiber_ap">
<ellipse fill="#f070d1" stroke="black" cx="3069" cy="-371.02" rx="53.89" ry="18"/>
<text text-anchor="middle" x="3069" y="-367.32" font-family="Times,serif" font-size="14.00">hfiber_ap</text>
</a>
</g>
</g>
<!-- HFiber_istruncmap_from_ap&#45;&gt;HFiber_hfiber_ap -->
<g id="edge10" class="edge">
<title>HFiber_istruncmap_from_ap&#45;&gt;HFiber_hfiber_ap</title>
<path fill="none" stroke="black" d="M3252.1,-633.99C3218.97,-586.6 3125.61,-453.01 3086.54,-397.11"/>
<polygon fill="black" stroke="black" points="3089.35,-395.02 3080.75,-388.83 3083.61,-399.03 3089.35,-395.02"/>
</g>
<!-- HFiber_istruncmap_ap&#45;&gt;HFiber_hfiber_ap -->
<g id="edge11" class="edge">
<title>HFiber_istruncmap_ap&#45;&gt;HFiber_hfiber_ap</title>
<path fill="none" stroke="black" d="M3061.49,-633.99C3062.83,-587.2 3066.58,-456.38 3068.22,-399.27"/>
<polygon fill="black" stroke="black" points="3071.72,-399.28 3068.51,-389.19 3064.72,-399.08 3071.72,-399.28"/>
</g>
<!-- HFiber_istruncmap_const -->
<g id="node10" class="node">
<title>HFiber_istruncmap_const</title>
<g id="a_node10"><a xlink:href="HFiber.html#istruncmap_const" xlink:title="istruncmap_const">
<ellipse fill="#f070d1" stroke="black" cx="3203" cy="-1576.02" rx="92.89" ry="18"/>
<ellipse fill="none" stroke="black" cx="3203" cy="-1576.02" rx="96.89" ry="22"/>
<ellipse fill="none" stroke="black" cx="3203" cy="-1576.02" rx="100.88" ry="26"/>
<text text-anchor="middle" x="3203" y="-1572.32" font-family="Times,serif" font-size="14.00">istruncmap_const</text>
</a>
</g>
</g>
<!-- HFiber_hfiber_const -->
<g id="node11" class="node">
<title>HFiber_hfiber_const</title>
<g id="a_node11"><a xlink:href="HFiber.html#hfiber_const" xlink:title="hfiber_const">
<ellipse fill="#f070d1" stroke="black" cx="3008" cy="-1576.02" rx="67.68" ry="18"/>
<ellipse fill="none" stroke="black" cx="3008" cy="-1576.02" rx="71.68" ry="22"/>
<ellipse fill="none" stroke="black" cx="3008" cy="-1576.02" rx="75.69" ry="26"/>
<text text-anchor="middle" x="3008" y="-1572.32" font-family="Times,serif" font-size="14.00">hfiber_const</text>
</a>
</g>
</g>
<!-- HFiber_hfiber_functor_forall_id -->
<g id="node12" class="node">
<title>HFiber_hfiber_functor_forall_id</title>
<g id="a_node12"><a xlink:href="HFiber.html#hfiber_functor_forall_id" xlink:title="hfiber_functor_forall_id">
<ellipse fill="#f070d1" stroke="black" cx="2788" cy="-1576.02" rx="118.09" ry="18"/>
<ellipse fill="none" stroke="black" cx="2788" cy="-1576.02" rx="122.09" ry="22"/>
<ellipse fill="none" stroke="black" cx="2788" cy="-1576.02" rx="126.08" ry="26"/>
<text text-anchor="middle" x="2788" y="-1572.32" font-family="Times,serif" font-size="14.00">hfiber_functor_forall_id</text>
</a>
</g>
</g>
<!-- HFiber_istruncmap_compose -->
<g id="node13" class="node">
<title>HFiber_istruncmap_compose</title>
<g id="a_node13"><a xlink:href="HFiber.html#istruncmap_compose" xlink:title="istruncmap_compose">
<ellipse fill="#f070d1" stroke="black" cx="2527" cy="-1576.02" rx="108.58" ry="18"/>
<ellipse fill="none" stroke="black" cx="2527" cy="-1576.02" rx="112.58" ry="22"/>
<ellipse fill="none" stroke="black" cx="2527" cy="-1576.02" rx="116.58" ry="26"/>
<text text-anchor="middle" x="2527" y="-1572.32" font-family="Times,serif" font-size="14.00">istruncmap_compose</text>
</a>
</g>
</g>
<!-- HFiber_hfiber_compose -->
<g id="node14" class="node">
<title>HFiber_hfiber_compose</title>
<g id="a_node14"><a xlink:href="HFiber.html#hfiber_compose" xlink:title="hfiber_compose">
<ellipse fill="#f070d1" stroke="black" cx="2527" cy="-1268.02" rx="83.39" ry="18"/>
<text text-anchor="middle" x="2527" y="-1264.32" font-family="Times,serif" font-size="14.00">hfiber_compose</text>
</a>
</g>
</g>
<!-- HFiber_istruncmap_compose&#45;&gt;HFiber_hfiber_compose -->
<g id="edge12" class="edge">
<title>HFiber_istruncmap_compose&#45;&gt;HFiber_hfiber_compose</title>
<path fill="none" stroke="black" d="M2527,-1549.98C2527,-1493.26 2527,-1355.34 2527,-1296.43"/>
<polygon fill="black" stroke="black" points="2530.5,-1296.07 2527,-1286.07 2523.5,-1296.07 2530.5,-1296.07"/>
</g>
<!-- HFiber_hfiber_hfiber_compose_map -->
<g id="node15" class="node">
<title>HFiber_hfiber_hfiber_compose_map</title>
<g id="a_node15"><a xlink:href="HFiber.html#hfiber_hfiber_compose_map" xlink:title="hfiber_hfiber_compose_map">
<ellipse fill="#f070d1" stroke="black" cx="2245" cy="-1576.02" rx="139.17" ry="18"/>
<ellipse fill="none" stroke="black" cx="2245" cy="-1576.02" rx="143.17" ry="22"/>
<ellipse fill="none" stroke="black" cx="2245" cy="-1576.02" rx="147.18" ry="26"/>
<text text-anchor="middle" x="2245" y="-1572.32" font-family="Times,serif" font-size="14.00">hfiber_hfiber_compose_map</text>
</a>
</g>
</g>
<!-- HFiber_hfiber_compose_map -->
<g id="node16" class="node">
<title>HFiber_hfiber_compose_map</title>
<g id="a_node16"><a xlink:href="HFiber.html#hfiber_compose_map" xlink:title="hfiber_compose_map">
<ellipse fill="#f070d1" stroke="black" cx="2245" cy="-1268.02" rx="107.48" ry="18"/>
<text text-anchor="middle" x="2245" y="-1264.32" font-family="Times,serif" font-size="14.00">hfiber_compose_map</text>
</a>
</g>
</g>
<!-- HFiber_hfiber_hfiber_compose_map&#45;&gt;HFiber_hfiber_compose_map -->
<g id="edge13" class="edge">
<title>HFiber_hfiber_hfiber_compose_map&#45;&gt;HFiber_hfiber_compose_map</title>
<path fill="none" stroke="black" d="M2245,-1549.98C2245,-1493.26 2245,-1355.34 2245,-1296.43"/>
<polygon fill="black" stroke="black" points="2248.5,-1296.07 2245,-1286.07 2241.5,-1296.07 2248.5,-1296.07"/>
</g>
<!-- HFiber_hfiber_fibration -->
<g id="node17" class="node">
<title>HFiber_hfiber_fibration</title>
<g id="a_node17"><a xlink:href="HFiber.html#hfiber_fibration" xlink:title="hfiber_fibration">
<ellipse fill="#f070d1" stroke="black" cx="1990" cy="-1576.02" rx="81.8" ry="18"/>
<ellipse fill="none" stroke="black" cx="1990" cy="-1576.02" rx="85.79" ry="22"/>
<ellipse fill="none" stroke="black" cx="1990" cy="-1576.02" rx="89.79" ry="26"/>
<text text-anchor="middle" x="1990" y="-1572.32" font-family="Times,serif" font-size="14.00">hfiber_fibration</text>
</a>
</g>
</g>
<!-- HFiber_equiv_fibration_replacement -->
<g id="node18" class="node">
<title>HFiber_equiv_fibration_replacement</title>
<g id="a_node18"><a xlink:href="HFiber.html#equiv_fibration_replacement" xlink:title="equiv_fibration_replacement">
<ellipse fill="#f070d1" stroke="black" cx="1732" cy="-1576.02" rx="142.18" ry="18"/>
<ellipse fill="none" stroke="black" cx="1732" cy="-1576.02" rx="146.18" ry="22"/>
<ellipse fill="none" stroke="black" cx="1732" cy="-1576.02" rx="150.17" ry="26"/>
<text text-anchor="middle" x="1732" y="-1572.32" font-family="Times,serif" font-size="14.00">equiv_fibration_replacement</text>
</a>
</g>
</g>
<!-- HFiber_hfiber_functor_hfiber -->
<g id="node19" class="node">
<title>HFiber_hfiber_functor_hfiber</title>
<g id="a_node19"><a xlink:href="HFiber.html#hfiber_functor_hfiber" xlink:title="hfiber_functor_hfiber">
<ellipse fill="#f070d1" stroke="black" cx="1190" cy="-1576.02" rx="107.79" ry="18"/>
<ellipse fill="none" stroke="black" cx="1190" cy="-1576.02" rx="111.78" ry="22"/>
<ellipse fill="none" stroke="black" cx="1190" cy="-1576.02" rx="115.78" ry="26"/>
<text text-anchor="middle" x="1190" y="-1572.32" font-family="Times,serif" font-size="14.00">hfiber_functor_hfiber</text>
</a>
</g>
</g>
<!-- HFiber_hfiber_functor_hfiber_subproof -->
<g id="node20" class="node">
<title>HFiber_hfiber_functor_hfiber_subproof</title>
<g id="a_node20"><a xlink:href="HFiber.html#hfiber_functor_hfiber_subproof" xlink:title="hfiber_functor_hfiber_subproof">
<ellipse fill="#f070d1" stroke="black" cx="1171" cy="-1268.02" rx="153.27" ry="18"/>
<text text-anchor="middle" x="1171" y="-1264.32" font-family="Times,serif" font-size="14.00">hfiber_functor_hfiber_subproof</text>
</a>
</g>
</g>
<!-- HFiber_hfiber_functor_hfiber&#45;&gt;HFiber_hfiber_functor_hfiber_subproof -->
<g id="edge14" class="edge">
<title>HFiber_hfiber_functor_hfiber&#45;&gt;HFiber_hfiber_functor_hfiber_subproof</title>
<path fill="none" stroke="black" d="M1188.45,-1549.98C1184.92,-1493.14 1176.32,-1354.76 1172.68,-1296.06"/>
<polygon fill="black" stroke="black" points="1176.17,-1295.83 1172.06,-1286.07 1169.18,-1296.26 1176.17,-1295.83"/>
</g>
<!-- HFiber_functor_hfiber -->
<g id="node27" class="node">
<title>HFiber_functor_hfiber</title>
<g id="a_node27"><a xlink:href="HFiber.html#functor_hfiber" xlink:title="functor_hfiber">
<ellipse fill="#f070d1" stroke="black" cx="806" cy="-1268.02" rx="76.09" ry="18"/>
<text text-anchor="middle" x="806" y="-1264.32" font-family="Times,serif" font-size="14.00">functor_hfiber</text>
</a>
</g>
</g>
<!-- HFiber_hfiber_functor_hfiber&#45;&gt;HFiber_functor_hfiber -->
<g id="edge15" class="edge">
<title>HFiber_hfiber_functor_hfiber&#45;&gt;HFiber_functor_hfiber</title>
<path fill="none" stroke="black" d="M1159.55,-1550.76C1087.1,-1493.03 905.28,-1348.14 834.67,-1291.87"/>
<polygon fill="black" stroke="black" points="836.63,-1288.95 826.62,-1285.46 832.26,-1294.43 836.63,-1288.95"/>
</g>
<!-- HFiber_functor_hfiber_compose -->
<g id="node21" class="node">
<title>HFiber_functor_hfiber_compose</title>
<g id="a_node21"><a xlink:href="HFiber.html#functor_hfiber_compose" xlink:title="functor_hfiber_compose">
<ellipse fill="#f070d1" stroke="black" cx="419" cy="-1576.02" rx="120.79" ry="18"/>
<ellipse fill="none" stroke="black" cx="419" cy="-1576.02" rx="124.78" ry="22"/>
<ellipse fill="none" stroke="black" cx="419" cy="-1576.02" rx="128.78" ry="26"/>
<text text-anchor="middle" x="419" y="-1572.32" font-family="Times,serif" font-size="14.00">functor_hfiber_compose</text>
</a>
</g>
</g>
<!-- HFiber_functor_hfiber_compose&#45;&gt;HFiber_functor_hfiber -->
<g id="edge16" class="edge">
<title>HFiber_functor_hfiber_compose&#45;&gt;HFiber_functor_hfiber</title>
<path fill="none" stroke="black" d="M449.69,-1550.76C522.7,-1493.03 705.94,-1348.14 777.11,-1291.87"/>
<polygon fill="black" stroke="black" points="779.54,-1294.41 785.21,-1285.46 775.2,-1288.92 779.54,-1294.41"/>
</g>
<!-- HFiber_equiv_functor_hfiber2 -->
<g id="node22" class="node">
<title>HFiber_equiv_functor_hfiber2</title>
<g id="a_node22"><a xlink:href="HFiber.html#equiv_functor_hfiber2" xlink:title="equiv_functor_hfiber2">
<ellipse fill="#f070d1" stroke="black" cx="1444" cy="-1576.02" rx="111.59" ry="18"/>
<ellipse fill="none" stroke="black" cx="1444" cy="-1576.02" rx="115.59" ry="22"/>
<ellipse fill="none" stroke="black" cx="1444" cy="-1576.02" rx="119.58" ry="26"/>
<text text-anchor="middle" x="1444" y="-1572.32" font-family="Times,serif" font-size="14.00">equiv_functor_hfiber2</text>
</a>
</g>
</g>
<!-- HFiber_isequiv_functor_hfiber2 -->
<g id="node23" class="node">
<title>HFiber_isequiv_functor_hfiber2</title>
<g id="a_node23"><a xlink:href="HFiber.html#isequiv_functor_hfiber2" xlink:title="isequiv_functor_hfiber2">
<ellipse fill="#f070d1" stroke="black" cx="1462" cy="-1268.02" rx="119.68" ry="18"/>
<text text-anchor="middle" x="1462" y="-1264.32" font-family="Times,serif" font-size="14.00">isequiv_functor_hfiber2</text>
</a>
</g>
</g>
<!-- HFiber_equiv_functor_hfiber2&#45;&gt;HFiber_isequiv_functor_hfiber2 -->
<g id="edge17" class="edge">
<title>HFiber_equiv_functor_hfiber2&#45;&gt;HFiber_isequiv_functor_hfiber2</title>
<path fill="none" stroke="black" d="M1445.47,-1549.98C1448.82,-1493.14 1456.96,-1354.76 1460.41,-1296.06"/>
<polygon fill="black" stroke="black" points="1463.9,-1296.26 1461,-1286.07 1456.92,-1295.84 1463.9,-1296.26"/>
</g>
<!-- HFiber_functor_hfiber2 -->
<g id="node24" class="node">
<title>HFiber_functor_hfiber2</title>
<g id="a_node24"><a xlink:href="HFiber.html#functor_hfiber2" xlink:title="functor_hfiber2">
<ellipse fill="#f070d1" stroke="black" cx="1462" cy="-960.02" rx="81.79" ry="18"/>
<text text-anchor="middle" x="1462" y="-956.32" font-family="Times,serif" font-size="14.00">functor_hfiber2</text>
</a>
</g>
</g>
<!-- HFiber_isequiv_functor_hfiber2&#45;&gt;HFiber_functor_hfiber2 -->
<g id="edge18" class="edge">
<title>HFiber_isequiv_functor_hfiber2&#45;&gt;HFiber_functor_hfiber2</title>
<path fill="none" stroke="black" d="M1462,-1249.69C1462,-1198.89 1462,-1049.99 1462,-988.29"/>
<polygon fill="black" stroke="black" points="1465.5,-988.16 1462,-978.16 1458.5,-988.16 1465.5,-988.16"/>
</g>
<!-- HFiber_equiv_functor_hfiber -->
<g id="node25" class="node">
<title>HFiber_equiv_functor_hfiber</title>
<g id="a_node25"><a xlink:href="HFiber.html#equiv_functor_hfiber" xlink:title="equiv_functor_hfiber">
<ellipse fill="#f070d1" stroke="black" cx="942" cy="-1576.02" rx="105.89" ry="18"/>
<ellipse fill="none" stroke="black" cx="942" cy="-1576.02" rx="109.88" ry="22"/>
<ellipse fill="none" stroke="black" cx="942" cy="-1576.02" rx="113.88" ry="26"/>
<text text-anchor="middle" x="942" y="-1572.32" font-family="Times,serif" font-size="14.00">equiv_functor_hfiber</text>
</a>
</g>
</g>
<!-- HFiber_equiv_functor_hfiber&#45;&gt;HFiber_functor_hfiber -->
<g id="edge19" class="edge">
<title>HFiber_equiv_functor_hfiber&#45;&gt;HFiber_functor_hfiber</title>
<path fill="none" stroke="black" d="M930.87,-1549.98C905.5,-1492.91 843.59,-1353.61 817.69,-1295.34"/>
<polygon fill="black" stroke="black" points="820.83,-1293.78 813.58,-1286.07 814.44,-1296.63 820.83,-1293.78"/>
</g>
<!-- HFiber_isequiv_functor_hfiber -->
<g id="node26" class="node">
<title>HFiber_isequiv_functor_hfiber</title>
<g id="a_node26"><a xlink:href="HFiber.html#isequiv_functor_hfiber" xlink:title="isequiv_functor_hfiber">
<ellipse fill="#f070d1" stroke="black" cx="688" cy="-1576.02" rx="113.96" ry="18"/>
<ellipse fill="none" stroke="black" cx="688" cy="-1576.02" rx="117.97" ry="22"/>
<ellipse fill="none" stroke="black" cx="688" cy="-1576.02" rx="121.98" ry="26"/>
<text text-anchor="middle" x="688" y="-1572.32" font-family="Times,serif" font-size="14.00">isequiv_functor_hfiber</text>
</a>
</g>
</g>
<!-- HFiber_isequiv_functor_hfiber&#45;&gt;HFiber_functor_hfiber -->
<g id="edge20" class="edge">
<title>HFiber_isequiv_functor_hfiber&#45;&gt;HFiber_functor_hfiber</title>
<path fill="none" stroke="black" d="M697.66,-1549.98C719.62,-1493.02 773.16,-1354.19 795.71,-1295.7"/>
<polygon fill="black" stroke="black" points="799.1,-1296.66 799.43,-1286.07 792.56,-1294.14 799.1,-1296.66"/>
</g>
<!-- HFiber_equiv_hfiber_homotopic -->
<g id="node28" class="node">
<title>HFiber_equiv_hfiber_homotopic</title>
<g id="a_node28"><a xlink:href="HFiber.html#equiv_hfiber_homotopic" xlink:title="equiv_hfiber_homotopic">
<ellipse fill="#f070d1" stroke="black" cx="144" cy="-1576.02" rx="120.46" ry="18"/>
<ellipse fill="none" stroke="black" cx="144" cy="-1576.02" rx="124.47" ry="22"/>
<ellipse fill="none" stroke="black" cx="144" cy="-1576.02" rx="128.48" ry="26"/>
<text text-anchor="middle" x="144" y="-1572.32" font-family="Times,serif" font-size="14.00">equiv_hfiber_homotopic</text>
</a>
</g>
</g>
<!-- HFiber_equiv_path_hfiber -->
<g id="node32" class="node">
<title>HFiber_equiv_path_hfiber</title>
<g id="a_node32"><a xlink:href="HFiber.html#equiv_path_hfiber" xlink:title="equiv_path_hfiber">
<ellipse fill="#f070d1" stroke="black" cx="2976" cy="-119.02" rx="92.88" ry="18"/>
<text text-anchor="middle" x="2976" y="-115.32" font-family="Times,serif" font-size="14.00">equiv_path_hfiber</text>
</a>
</g>
</g>
<!-- HFiber_hfiber_ap&#45;&gt;HFiber_equiv_path_hfiber -->
<g id="edge21" class="edge">
<title>HFiber_hfiber_ap&#45;&gt;HFiber_equiv_path_hfiber</title>
<path fill="none" stroke="black" d="M3062.61,-352.84C3046.64,-309.92 3004.93,-197.79 2985.82,-146.42"/>
<polygon fill="black" stroke="black" points="2989.08,-145.15 2982.31,-137 2982.52,-147.59 2989.08,-145.15"/>
</g>
<!-- HFiber_path_hfiber -->
<g id="node30" class="node">
<title>HFiber_path_hfiber</title>
<g id="a_node30"><a xlink:href="HFiber.html#path_hfiber" xlink:title="path_hfiber">
<ellipse fill="#f070d1" stroke="black" cx="2884" cy="-652.02" rx="63.87" ry="18"/>
<ellipse fill="none" stroke="black" cx="2884" cy="-652.02" rx="67.88" ry="22"/>
<ellipse fill="none" stroke="black" cx="2884" cy="-652.02" rx="71.89" ry="26"/>
<text text-anchor="middle" x="2884" y="-648.32" font-family="Times,serif" font-size="14.00">path_hfiber</text>
</a>
</g>
</g>
<!-- HFiber_path_hfiber_uncurried -->
<g id="node31" class="node">
<title>HFiber_path_hfiber_uncurried</title>
<g id="a_node31"><a xlink:href="HFiber.html#path_hfiber_uncurried" xlink:title="path_hfiber_uncurried">
<ellipse fill="#f070d1" stroke="black" cx="2884" cy="-371.02" rx="113.18" ry="18"/>
<text text-anchor="middle" x="2884" y="-367.32" font-family="Times,serif" font-size="14.00">path_hfiber_uncurried</text>
</a>
</g>
</g>
<!-- HFiber_path_hfiber&#45;&gt;HFiber_path_hfiber_uncurried -->
<g id="edge22" class="edge">
<title>HFiber_path_hfiber&#45;&gt;HFiber_path_hfiber_uncurried</title>
<path fill="none" stroke="black" d="M2884,-625.77C2884,-573.44 2884,-453.54 2884,-399.42"/>
<polygon fill="black" stroke="black" points="2887.5,-399.21 2884,-389.21 2880.5,-399.21 2887.5,-399.21"/>
</g>
<!-- HFiber_path_hfiber_uncurried&#45;&gt;HFiber_equiv_path_hfiber -->
<g id="edge23" class="edge">
<title>HFiber_path_hfiber_uncurried&#45;&gt;HFiber_equiv_path_hfiber</title>
<path fill="none" stroke="black" d="M2890.32,-352.84C2906.12,-309.92 2947.38,-197.79 2966.29,-146.42"/>
<polygon fill="black" stroke="black" points="2969.58,-147.59 2969.75,-137 2963.02,-145.17 2969.58,-147.59"/>
</g>
</g>
</svg>
