<?xml version="1.0" encoding="UTF-8" standalone="no"?>
<!DOCTYPE svg PUBLIC "-//W3C//DTD SVG 1.1//EN"
 "http://www.w3.org/Graphics/SVG/1.1/DTD/svg11.dtd">
<!-- Generated by graphviz version 2.43.0 (0)
 -->
<!-- Title: HoTT_Classes_orders_naturals Pages: 1 -->
<svg width="1200pt" height="604pt"
 viewBox="0.00 0.00 1200.00 604.00" xmlns="http://www.w3.org/2000/svg" xmlns:xlink="http://www.w3.org/1999/xlink">
<g id="graph0" class="graph" transform="scale(1 1) rotate(0) translate(4 600)">
<title>HoTT_Classes_orders_naturals</title>
<polygon fill="white" stroke="transparent" points="-4,4 -4,-600 1196,-600 1196,4 -4,4"/>
<g id="clust1" class="cluster">
<title>cluster_naturals</title>
<polygon fill="#ffffc3" stroke="black" points="8,-11.17 8,-584.83 1184,-584.83 1184,-11.17 8,-11.17"/>
<text text-anchor="middle" x="46" y="-569.63" font-family="Times,serif" font-size="14.00">naturals</text>
</g>
<!-- naturals_between_to_ring -->
<g id="node1" class="node">
<title>naturals_between_to_ring</title>
<g id="a_node1"><a xlink:href="naturals.html#between_to_ring" xlink:title="between_to_ring">
<ellipse fill="#f070d1" stroke="black" cx="1081" cy="-505.17" rx="87.18" ry="18"/>
<ellipse fill="none" stroke="black" cx="1081" cy="-505.17" rx="91.18" ry="22"/>
<ellipse fill="none" stroke="black" cx="1081" cy="-505.17" rx="95.18" ry="26"/>
<text text-anchor="middle" x="1081" y="-501.47" font-family="Times,serif" font-size="14.00">between_to_ring</text>
</a>
</g>
</g>
<!-- naturals_negate_to_ring_nonpos -->
<g id="node2" class="node">
<title>naturals_negate_to_ring_nonpos</title>
<g id="a_node2"><a xlink:href="naturals.html#negate_to_ring_nonpos" xlink:title="negate_to_ring_nonpos">
<ellipse fill="#f070d1" stroke="black" cx="843" cy="-505.17" rx="116.98" ry="18"/>
<ellipse fill="none" stroke="black" cx="843" cy="-505.17" rx="120.98" ry="22"/>
<ellipse fill="none" stroke="black" cx="843" cy="-505.17" rx="124.98" ry="26"/>
<text text-anchor="middle" x="843" y="-501.47" font-family="Times,serif" font-size="14.00">negate_to_ring_nonpos</text>
</a>
</g>
</g>
<!-- naturals_slow_nat_le_dec -->
<g id="node3" class="node">
<title>naturals_slow_nat_le_dec</title>
<g id="a_node3"><a xlink:href="naturals.html#slow_nat_le_dec" xlink:title="slow_nat_le_dec">
<ellipse fill="#f070d1" stroke="black" cx="608" cy="-505.17" rx="84.49" ry="18"/>
<ellipse fill="none" stroke="black" cx="608" cy="-505.17" rx="88.49" ry="22"/>
<ellipse fill="none" stroke="black" cx="608" cy="-505.17" rx="92.49" ry="26"/>
<text text-anchor="middle" x="608" y="-501.47" font-family="Times,serif" font-size="14.00">slow_nat_le_dec</text>
</a>
</g>
</g>
<!-- naturals_OrderReflecting_instance_0 -->
<g id="node4" class="node">
<title>naturals_OrderReflecting_instance_0</title>
<g id="a_node4"><a xlink:href="naturals.html#OrderReflecting_instance_0" xlink:title="OrderReflecting_instance_0">
<ellipse fill="#f070d1" stroke="black" cx="351" cy="-505.17" rx="138.38" ry="18"/>
<ellipse fill="none" stroke="black" cx="351" cy="-505.17" rx="142.38" ry="22"/>
<ellipse fill="none" stroke="black" cx="351" cy="-505.17" rx="146.38" ry="26"/>
<text text-anchor="middle" x="351" y="-501.47" font-family="Times,serif" font-size="14.00">OrderReflecting_instance_0</text>
</a>
</g>
</g>
<!-- naturals_nat_ne_0_pos -->
<g id="node6" class="node">
<title>naturals_nat_ne_0_pos</title>
<g id="a_node6"><a xlink:href="naturals.html#nat_ne_0_pos" xlink:title="nat_ne_0_pos">
<ellipse fill="#f070d1" stroke="black" cx="313" cy="-382.17" rx="72.29" ry="18"/>
<text text-anchor="middle" x="313" y="-378.47" font-family="Times,serif" font-size="14.00">nat_ne_0_pos</text>
</a>
</g>
</g>
<!-- naturals_OrderReflecting_instance_0&#45;&gt;naturals_nat_ne_0_pos -->
<g id="edge1" class="edge">
<title>naturals_OrderReflecting_instance_0&#45;&gt;naturals_nat_ne_0_pos</title>
<path fill="none" stroke="black" d="M343.13,-479.09C336.8,-458.96 327.94,-430.74 321.47,-410.13"/>
<polygon fill="black" stroke="black" points="324.75,-408.89 318.41,-400.4 318.07,-410.99 324.75,-408.89"/>
</g>
<!-- naturals_nat_ne_0_ge_1 -->
<g id="node5" class="node">
<title>naturals_nat_ne_0_ge_1</title>
<g id="a_node5"><a xlink:href="naturals.html#nat_ne_0_ge_1" xlink:title="nat_ne_0_ge_1">
<ellipse fill="#f070d1" stroke="black" cx="101" cy="-505.17" rx="77.2" ry="18"/>
<ellipse fill="none" stroke="black" cx="101" cy="-505.17" rx="81.19" ry="22"/>
<ellipse fill="none" stroke="black" cx="101" cy="-505.17" rx="85.19" ry="26"/>
<text text-anchor="middle" x="101" y="-501.47" font-family="Times,serif" font-size="14.00">nat_ne_0_ge_1</text>
</a>
</g>
</g>
<!-- naturals_nat_ne_0_ge_1&#45;&gt;naturals_nat_ne_0_pos -->
<g id="edge2" class="edge">
<title>naturals_nat_ne_0_ge_1&#45;&gt;naturals_nat_ne_0_pos</title>
<path fill="none" stroke="black" d="M139.88,-481.97C178.95,-459.68 238.67,-425.59 276.77,-403.85"/>
<polygon fill="black" stroke="black" points="278.54,-406.86 285.49,-398.87 275.07,-400.78 278.54,-406.86"/>
</g>
<!-- naturals_nat_0_or_pos -->
<g id="node8" class="node">
<title>naturals_nat_0_or_pos</title>
<g id="a_node8"><a xlink:href="naturals.html#nat_0_or_pos" xlink:title="nat_0_or_pos">
<ellipse fill="#f070d1" stroke="black" cx="277" cy="-271.17" rx="70.69" ry="18"/>
<text text-anchor="middle" x="277" y="-267.47" font-family="Times,serif" font-size="14.00">nat_0_or_pos</text>
</a>
</g>
</g>
<!-- naturals_nat_ne_0_pos&#45;&gt;naturals_nat_0_or_pos -->
<g id="edge3" class="edge">
<title>naturals_nat_ne_0_pos&#45;&gt;naturals_nat_0_or_pos</title>
<path fill="none" stroke="black" d="M307.38,-364.14C301.62,-346.72 292.6,-319.41 285.89,-299.07"/>
<polygon fill="black" stroke="black" points="289.16,-297.84 282.7,-289.44 282.52,-300.03 289.16,-297.84"/>
</g>
<!-- naturals_nat_0_or_ge_1 -->
<g id="node7" class="node">
<title>naturals_nat_0_or_ge_1</title>
<g id="a_node7"><a xlink:href="naturals.html#nat_0_or_ge_1" xlink:title="nat_0_or_ge_1">
<ellipse fill="#f070d1" stroke="black" cx="139" cy="-382.17" rx="76.08" ry="18"/>
<ellipse fill="none" stroke="black" cx="139" cy="-382.17" rx="80.08" ry="22"/>
<ellipse fill="none" stroke="black" cx="139" cy="-382.17" rx="84.09" ry="26"/>
<text text-anchor="middle" x="139" y="-378.47" font-family="Times,serif" font-size="14.00">nat_0_or_ge_1</text>
</a>
</g>
</g>
<!-- naturals_nat_0_or_ge_1&#45;&gt;naturals_nat_0_or_pos -->
<g id="edge4" class="edge">
<title>naturals_nat_0_or_ge_1&#45;&gt;naturals_nat_0_or_pos</title>
<path fill="none" stroke="black" d="M168.6,-357.78C192.16,-339.18 224.94,-313.29 248.26,-294.86"/>
<polygon fill="black" stroke="black" points="250.72,-297.38 256.4,-288.44 246.38,-291.89 250.72,-297.38"/>
</g>
<!-- naturals_nat_not_neg -->
<g id="node9" class="node">
<title>naturals_nat_not_neg</title>
<g id="a_node9"><a xlink:href="naturals.html#nat_not_neg" xlink:title="nat_not_neg">
<ellipse fill="#f070d1" stroke="black" cx="277" cy="-159.17" rx="66.89" ry="18"/>
<text text-anchor="middle" x="277" y="-155.47" font-family="Times,serif" font-size="14.00">nat_not_neg</text>
</a>
</g>
</g>
<!-- naturals_nat_0_or_pos&#45;&gt;naturals_nat_not_neg -->
<g id="edge5" class="edge">
<title>naturals_nat_0_or_pos&#45;&gt;naturals_nat_not_neg</title>
<path fill="none" stroke="black" d="M277,-252.98C277,-235.38 277,-207.77 277,-187.24"/>
<polygon fill="black" stroke="black" points="280.5,-187.23 277,-177.23 273.5,-187.23 280.5,-187.23"/>
</g>
<!-- naturals_nat_nonneg -->
<g id="node11" class="node">
<title>naturals_nat_nonneg</title>
<g id="a_node11"><a xlink:href="naturals.html#nat_nonneg" xlink:title="nat_nonneg">
<ellipse fill="#f070d1" stroke="black" cx="199" cy="-47.17" rx="64.19" ry="18"/>
<text text-anchor="middle" x="199" y="-43.47" font-family="Times,serif" font-size="14.00">nat_nonneg</text>
</a>
</g>
</g>
<!-- naturals_nat_not_neg&#45;&gt;naturals_nat_nonneg -->
<g id="edge6" class="edge">
<title>naturals_nat_not_neg&#45;&gt;naturals_nat_nonneg</title>
<path fill="none" stroke="black" d="M264.81,-140.98C251.92,-122.79 231.44,-93.91 216.75,-73.2"/>
<polygon fill="black" stroke="black" points="219.49,-71.01 210.85,-64.87 213.78,-75.05 219.49,-71.01"/>
</g>
<!-- naturals_nat_le_plus -->
<g id="node10" class="node">
<title>naturals_nat_le_plus</title>
<g id="a_node10"><a xlink:href="naturals.html#nat_le_plus" xlink:title="nat_le_plus">
<ellipse fill="#f070d1" stroke="black" cx="122" cy="-159.17" rx="62.3" ry="18"/>
<ellipse fill="none" stroke="black" cx="122" cy="-159.17" rx="66.3" ry="22"/>
<ellipse fill="none" stroke="black" cx="122" cy="-159.17" rx="70.29" ry="26"/>
<text text-anchor="middle" x="122" y="-155.47" font-family="Times,serif" font-size="14.00">nat_le_plus</text>
</a>
</g>
</g>
<!-- naturals_nat_le_plus&#45;&gt;naturals_nat_nonneg -->
<g id="edge7" class="edge">
<title>naturals_nat_le_plus&#45;&gt;naturals_nat_nonneg</title>
<path fill="none" stroke="black" d="M139.09,-133.75C151.65,-115.8 168.68,-91.48 181.37,-73.35"/>
<polygon fill="black" stroke="black" points="184.35,-75.2 187.21,-65 178.61,-71.19 184.35,-75.2"/>
</g>
</g>
</svg>
