<?xml version="1.0" encoding="UTF-8" standalone="no"?>
<!DOCTYPE svg PUBLIC "-//W3C//DTD SVG 1.1//EN"
 "http://www.w3.org/Graphics/SVG/1.1/DTD/svg11.dtd">
<!-- Generated by graphviz version 2.43.0 (0)
 -->
<!-- Title: HoTT_Spaces_Nat_Paths Pages: 1 -->
<svg width="654pt" height="331pt"
 viewBox="0.00 0.00 654.00 331.00" xmlns="http://www.w3.org/2000/svg" xmlns:xlink="http://www.w3.org/1999/xlink">
<g id="graph0" class="graph" transform="scale(1 1) rotate(0) translate(4 327)">
<title>HoTT_Spaces_Nat_Paths</title>
<polygon fill="white" stroke="transparent" points="-4,4 -4,-327 650,-327 650,4 -4,4"/>
<g id="clust1" class="cluster">
<title>cluster_Paths</title>
<polygon fill="#ffffc3" stroke="black" points="18.93,-8 18.93,-315 627.07,-315 627.07,-8 18.93,-8"/>
<text text-anchor="middle" x="46.93" y="-299.8" font-family="Times,serif" font-size="14.00">Paths</text>
</g>
<!-- Paths_equiv_path_nat -->
<g id="node1" class="node">
<title>Paths_equiv_path_nat</title>
<g id="a_node1"><a xlink:href="Paths.html#equiv_path_nat" xlink:title="equiv_path_nat">
<ellipse fill="#f070d1" stroke="black" cx="322.1" cy="-258" rx="81.46" ry="18"/>
<ellipse fill="none" stroke="black" cx="322.1" cy="-258" rx="85.48" ry="22"/>
<ellipse fill="none" stroke="black" cx="322.1" cy="-258" rx="89.49" ry="26"/>
<text text-anchor="middle" x="322.1" y="-254.3" font-family="Times,serif" font-size="14.00">equiv_path_nat</text>
</a>
</g>
</g>
<!-- Paths_isequiv_path_nat -->
<g id="node2" class="node">
<title>Paths_isequiv_path_nat</title>
<g id="a_node2"><a xlink:href="Paths.html#isequiv_path_nat" xlink:title="isequiv_path_nat">
<ellipse fill="#f070d1" stroke="black" cx="322.1" cy="-178" rx="89.08" ry="18"/>
<text text-anchor="middle" x="322.1" y="-174.3" font-family="Times,serif" font-size="14.00">isequiv_path_nat</text>
</a>
</g>
</g>
<!-- Paths_equiv_path_nat&#45;&gt;Paths_isequiv_path_nat -->
<g id="edge1" class="edge">
<title>Paths_equiv_path_nat&#45;&gt;Paths_isequiv_path_nat</title>
<path fill="none" stroke="black" d="M322.1,-231.89C322.1,-223.84 322.1,-214.88 322.1,-206.66"/>
<polygon fill="black" stroke="black" points="325.6,-206.41 322.1,-196.41 318.6,-206.41 325.6,-206.41"/>
</g>
<!-- Paths_path_nat -->
<g id="node3" class="node">
<title>Paths_path_nat</title>
<g id="a_node3"><a xlink:href="Paths.html#path_nat" xlink:title="path_nat">
<ellipse fill="#f070d1" stroke="black" cx="158.1" cy="-106" rx="51.19" ry="18"/>
<text text-anchor="middle" x="158.1" y="-102.3" font-family="Times,serif" font-size="14.00">path_nat</text>
</a>
</g>
</g>
<!-- Paths_isequiv_path_nat&#45;&gt;Paths_path_nat -->
<g id="edge2" class="edge">
<title>Paths_isequiv_path_nat&#45;&gt;Paths_path_nat</title>
<path fill="none" stroke="black" d="M285.7,-161.46C259.98,-150.49 225.49,-135.76 198.85,-124.39"/>
<polygon fill="black" stroke="black" points="199.99,-121.08 189.42,-120.37 197.24,-127.51 199.99,-121.08"/>
</g>
<!-- Paths_idcode_nat -->
<g id="node4" class="node">
<title>Paths_idcode_nat</title>
<g id="a_node4"><a xlink:href="Paths.html#idcode_nat" xlink:title="idcode_nat">
<ellipse fill="#f070d1" stroke="black" cx="466.1" cy="-106" rx="60.39" ry="18"/>
<text text-anchor="middle" x="466.1" y="-102.3" font-family="Times,serif" font-size="14.00">idcode_nat</text>
</a>
</g>
</g>
<!-- Paths_isequiv_path_nat&#45;&gt;Paths_idcode_nat -->
<g id="edge3" class="edge">
<title>Paths_isequiv_path_nat&#45;&gt;Paths_idcode_nat</title>
<path fill="none" stroke="black" d="M354.77,-161.12C376.21,-150.69 404.37,-137.01 427,-126.01"/>
<polygon fill="black" stroke="black" points="428.54,-129.15 436,-121.63 425.48,-122.85 428.54,-129.15"/>
</g>
<!-- Paths_code_nat -->
<g id="node5" class="node">
<title>Paths_code_nat</title>
<g id="a_node5"><a xlink:href="Paths.html#code_nat" xlink:title="code_nat">
<ellipse fill="#f070d1" stroke="black" cx="312.1" cy="-34" rx="51.99" ry="18"/>
<text text-anchor="middle" x="312.1" y="-30.3" font-family="Times,serif" font-size="14.00">code_nat</text>
</a>
</g>
</g>
<!-- Paths_path_nat&#45;&gt;Paths_code_nat -->
<g id="edge4" class="edge">
<title>Paths_path_nat&#45;&gt;Paths_code_nat</title>
<path fill="none" stroke="black" d="M188.15,-91.34C212.24,-80.39 246.24,-64.93 272.54,-52.98"/>
<polygon fill="black" stroke="black" points="274.19,-56.07 281.85,-48.75 271.3,-49.7 274.19,-56.07"/>
</g>
<!-- Paths_idcode_nat&#45;&gt;Paths_code_nat -->
<g id="edge5" class="edge">
<title>Paths_idcode_nat&#45;&gt;Paths_code_nat</title>
<path fill="none" stroke="black" d="M434.19,-90.5C410.28,-79.63 377.42,-64.69 351.82,-53.06"/>
<polygon fill="black" stroke="black" points="352.94,-49.72 342.39,-48.77 350.05,-56.1 352.94,-49.72"/>
</g>
</g>
</svg>
