<?xml version="1.0" encoding="UTF-8" standalone="no"?>
<!DOCTYPE svg PUBLIC "-//W3C//DTD SVG 1.1//EN"
 "http://www.w3.org/Graphics/SVG/1.1/DTD/svg11.dtd">
<!-- Generated by graphviz version 2.43.0 (0)
 -->
<!-- Title: HoTT_Classes_orders_integers Pages: 1 -->
<svg width="542pt" height="275pt"
 viewBox="0.00 0.00 542.00 275.00" xmlns="http://www.w3.org/2000/svg" xmlns:xlink="http://www.w3.org/1999/xlink">
<g id="graph0" class="graph" transform="scale(1 1) rotate(0) translate(4 271)">
<title>HoTT_Classes_orders_integers</title>
<polygon fill="white" stroke="transparent" points="-4,4 -4,-271 538,-271 538,4 -4,4"/>
<g id="clust1" class="cluster">
<title>cluster_integers</title>
<polygon fill="#ffffc3" stroke="black" points="8.75,-8 8.75,-259 525.25,-259 525.25,-8 8.75,-8"/>
<text text-anchor="middle" x="46.75" y="-243.8" font-family="Times,serif" font-size="14.00">integers</text>
</g>
<!-- integers_slow_int_le_dec -->
<g id="node1" class="node">
<title>integers_slow_int_le_dec</title>
<g id="a_node1"><a xlink:href="integers.html#slow_int_le_dec" xlink:title="slow_int_le_dec">
<ellipse fill="#f070d1" stroke="black" cx="386.9" cy="-202" rx="81.8" ry="18"/>
<ellipse fill="none" stroke="black" cx="386.9" cy="-202" rx="85.79" ry="22"/>
<ellipse fill="none" stroke="black" cx="386.9" cy="-202" rx="89.79" ry="26"/>
<text text-anchor="middle" x="386.9" y="-198.3" font-family="Times,serif" font-size="14.00">slow_int_le_dec</text>
</a>
</g>
</g>
<!-- integers_Biinduction_instance_0 -->
<g id="node2" class="node">
<title>integers_Biinduction_instance_0</title>
<g id="a_node2"><a xlink:href="integers.html#Biinduction_instance_0" xlink:title="Biinduction_instance_0">
<ellipse fill="#f070d1" stroke="black" cx="386.9" cy="-114" rx="117.78" ry="18"/>
<text text-anchor="middle" x="386.9" y="-110.3" font-family="Times,serif" font-size="14.00">Biinduction_instance_0</text>
</a>
</g>
</g>
<!-- integers_slow_int_le_dec&#45;&gt;integers_Biinduction_instance_0 -->
<g id="edge1" class="edge">
<title>integers_slow_int_le_dec&#45;&gt;integers_Biinduction_instance_0</title>
<path fill="none" stroke="black" d="M386.9,-175.66C386.9,-165.11 386.9,-152.84 386.9,-142.1"/>
<polygon fill="black" stroke="black" points="390.4,-142 386.9,-132 383.4,-142 390.4,-142"/>
</g>
<!-- integers_induction -->
<g id="node4" class="node">
<title>integers_induction</title>
<g id="a_node4"><a xlink:href="integers.html#induction" xlink:title="induction">
<ellipse fill="#f070d1" stroke="black" cx="256.9" cy="-34" rx="53.89" ry="18"/>
<text text-anchor="middle" x="256.9" y="-30.3" font-family="Times,serif" font-size="14.00">induction</text>
</a>
</g>
</g>
<!-- integers_Biinduction_instance_0&#45;&gt;integers_induction -->
<g id="edge2" class="edge">
<title>integers_Biinduction_instance_0&#45;&gt;integers_induction</title>
<path fill="none" stroke="black" d="M359.33,-96.46C339.37,-84.48 312.28,-68.23 290.96,-55.44"/>
<polygon fill="black" stroke="black" points="292.6,-52.34 282.22,-50.2 289,-58.34 292.6,-52.34"/>
</g>
<!-- integers_induction_nonneg -->
<g id="node3" class="node">
<title>integers_induction_nonneg</title>
<g id="a_node3"><a xlink:href="integers.html#induction_nonneg" xlink:title="induction_nonneg">
<ellipse fill="#f070d1" stroke="black" cx="127.9" cy="-114" rx="92.89" ry="18"/>
<ellipse fill="none" stroke="black" cx="127.9" cy="-114" rx="96.89" ry="22"/>
<ellipse fill="none" stroke="black" cx="127.9" cy="-114" rx="100.88" ry="26"/>
<text text-anchor="middle" x="127.9" y="-110.3" font-family="Times,serif" font-size="14.00">induction_nonneg</text>
</a>
</g>
</g>
<!-- integers_induction_nonneg&#45;&gt;integers_induction -->
<g id="edge3" class="edge">
<title>integers_induction_nonneg&#45;&gt;integers_induction</title>
<path fill="none" stroke="black" d="M166.25,-89.81C184.34,-78.87 205.73,-65.94 223.19,-55.38"/>
<polygon fill="black" stroke="black" points="225.17,-58.27 231.92,-50.1 221.55,-52.28 225.17,-58.27"/>
</g>
</g>
</svg>
