<?xml version="1.0" encoding="UTF-8" standalone="no"?>
<!DOCTYPE svg PUBLIC "-//W3C//DTD SVG 1.1//EN"
 "http://www.w3.org/Graphics/SVG/1.1/DTD/svg11.dtd">
<!-- Generated by graphviz version 2.43.0 (0)
 -->
<!-- Title: HoTT_Truncations_Core Pages: 1 -->
<svg width="2892pt" height="1450pt"
 viewBox="0.00 0.00 2892.00 1450.00" xmlns="http://www.w3.org/2000/svg" xmlns:xlink="http://www.w3.org/1999/xlink">
<g id="graph0" class="graph" transform="scale(1 1) rotate(0) translate(4 1446)">
<title>HoTT_Truncations_Core</title>
<polygon fill="white" stroke="transparent" points="-4,4 -4,-1446 2888,-1446 2888,4 -4,4"/>
<g id="clust1" class="cluster">
<title>cluster_Core</title>
<polygon fill="#ffffc3" stroke="black" points="8,-16.82 8,-1425.18 2876,-1425.18 2876,-16.82 8,-16.82"/>
<text text-anchor="middle" x="33" y="-1409.98" font-family="Times,serif" font-size="14.00">Core</text>
</g>
<g id="clust2" class="cluster">
<title>cluster_Core_Trunc</title>
<polygon fill="#ffffa3" stroke="black" points="889,-33.63 889,-342.63 1229,-342.63 1229,-33.63 889,-33.63"/>
<text text-anchor="middle" x="918" y="-327.43" font-family="Times,serif" font-size="14.00">Trunc</text>
</g>
<!-- Core_Trunc_Trunc_ind -->
<g id="node1" class="node">
<title>Core_Trunc_Trunc_ind</title>
<g id="a_node1"><a xlink:href="Core.html#Trunc.Trunc_ind" xlink:title="Trunc_ind">
<ellipse fill="#f070d1" stroke="black" cx="1164" cy="-239.82" rx="56.59" ry="18"/>
<text text-anchor="middle" x="1164" y="-236.12" font-family="Times,serif" font-size="14.00">Trunc_ind</text>
</a>
</g>
</g>
<!-- Core_Trunc_tr -->
<g id="node3" class="node">
<title>Core_Trunc_tr</title>
<g id="a_node3"><a xlink:href="Core.html#Trunc.tr" xlink:title="tr">
<ellipse fill="#7faaff" stroke="black" cx="1164" cy="-87.82" rx="27" ry="18"/>
<text text-anchor="middle" x="1164" y="-84.12" font-family="Times,serif" font-size="14.00">tr</text>
</a>
</g>
</g>
<!-- Core_Trunc_Trunc_ind&#45;&gt;Core_Trunc_tr -->
<g id="edge1" class="edge">
<title>Core_Trunc_Trunc_ind&#45;&gt;Core_Trunc_tr</title>
<path fill="none" stroke="black" d="M1164,-221.61C1164,-195.73 1164,-146.54 1164,-115.84"/>
<polygon fill="black" stroke="black" points="1167.5,-115.82 1164,-105.82 1160.5,-115.82 1167.5,-115.82"/>
</g>
<!-- Core_Trunc_Trunc -->
<g id="node4" class="node">
<title>Core_Trunc_Trunc</title>
<g id="a_node4"><a xlink:href="Core.html#Trunc.Trunc" xlink:title="Trunc">
<ellipse fill="#e2cdfa" stroke="black" cx="1037" cy="-87.82" rx="37.89" ry="18"/>
<text text-anchor="middle" x="1037" y="-84.12" font-family="Times,serif" font-size="14.00">Trunc</text>
</a>
</g>
</g>
<!-- Core_Trunc_Trunc_ind&#45;&gt;Core_Trunc_Trunc -->
<g id="edge2" class="edge">
<title>Core_Trunc_Trunc_ind&#45;&gt;Core_Trunc_Trunc</title>
<path fill="none" stroke="black" d="M1149.92,-222.19C1127.4,-195.58 1083.15,-143.32 1057.23,-112.71"/>
<polygon fill="black" stroke="black" points="1059.89,-110.43 1050.75,-105.06 1054.54,-114.95 1059.89,-110.43"/>
</g>
<!-- Core_Trunc_istrunc_truncation -->
<g id="node2" class="node">
<title>Core_Trunc_istrunc_truncation</title>
<g id="a_node2"><a xlink:href="Core.html#Trunc.istrunc_truncation" xlink:title="istrunc_truncation">
<ellipse fill="#facdef" stroke="black" cx="993" cy="-239.82" rx="96.38" ry="18"/>
<text text-anchor="middle" x="993" y="-236.12" font-family="Times,serif" font-size="14.00">istrunc_truncation</text>
</a>
</g>
</g>
<!-- Core_Trunc_istrunc_truncation&#45;&gt;Core_Trunc_Trunc -->
<g id="edge3" class="edge">
<title>Core_Trunc_istrunc_truncation&#45;&gt;Core_Trunc_Trunc</title>
<path fill="none" stroke="black" d="M998.05,-221.61C1005.67,-195.61 1020.19,-146.11 1029.19,-115.44"/>
<polygon fill="black" stroke="black" points="1032.56,-116.4 1032.01,-105.82 1025.84,-114.43 1032.56,-116.4"/>
</g>
<!-- Core_Trunc_swap -->
<g id="node5" class="node">
<title>Core_Trunc_swap</title>
<g id="a_node5"><a xlink:href="Core.html#Trunc_swap" xlink:title="Trunc_swap">
<ellipse fill="#f070d1" stroke="black" cx="1861" cy="-1305.82" rx="65.77" ry="18"/>
<ellipse fill="none" stroke="black" cx="1861" cy="-1305.82" rx="69.78" ry="22"/>
<ellipse fill="none" stroke="black" cx="1861" cy="-1305.82" rx="73.79" ry="26"/>
<text text-anchor="middle" x="1861" y="-1302.12" font-family="Times,serif" font-size="14.00">Trunc_swap</text>
</a>
</g>
</g>
<!-- Core_Trunc_min -->
<g id="node6" class="node">
<title>Core_Trunc_min</title>
<g id="a_node6"><a xlink:href="Core.html#Trunc_min" xlink:title="Trunc_min">
<ellipse fill="#f070d1" stroke="black" cx="1861" cy="-1120.82" rx="59.59" ry="18"/>
<text text-anchor="middle" x="1861" y="-1117.12" font-family="Times,serif" font-size="14.00">Trunc_min</text>
</a>
</g>
</g>
<!-- Core_Trunc_swap&#45;&gt;Core_Trunc_min -->
<g id="edge4" class="edge">
<title>Core_Trunc_swap&#45;&gt;Core_Trunc_min</title>
<path fill="none" stroke="black" d="M1861,-1279.75C1861,-1245.51 1861,-1184.33 1861,-1149.01"/>
<polygon fill="black" stroke="black" points="1864.5,-1148.94 1861,-1138.94 1857.5,-1148.94 1864.5,-1148.94"/>
</g>
<!-- Core_O_leq_Tr_leq -->
<g id="node7" class="node">
<title>Core_O_leq_Tr_leq</title>
<g id="a_node7"><a xlink:href="Core.html#O_leq_Tr_leq" xlink:title="O_leq_Tr_leq">
<ellipse fill="#f070d1" stroke="black" cx="1861" cy="-935.82" rx="69.59" ry="18"/>
<text text-anchor="middle" x="1861" y="-932.12" font-family="Times,serif" font-size="14.00">O_leq_Tr_leq</text>
</a>
</g>
</g>
<!-- Core_Trunc_min&#45;&gt;Core_O_leq_Tr_leq -->
<g id="edge5" class="edge">
<title>Core_Trunc_min&#45;&gt;Core_O_leq_Tr_leq</title>
<path fill="none" stroke="black" d="M1861,-1102.6C1861,-1070.77 1861,-1002.5 1861,-964.24"/>
<polygon fill="black" stroke="black" points="1864.5,-963.85 1861,-953.85 1857.5,-963.85 1864.5,-963.85"/>
</g>
<!-- Core_Trunc_functor -->
<g id="node35" class="node">
<title>Core_Trunc_functor</title>
<g id="a_node35"><a xlink:href="Core.html#Trunc_functor" xlink:title="Trunc_functor">
<ellipse fill="#f070d1" stroke="black" cx="2793" cy="-565.82" rx="75.29" ry="18"/>
<text text-anchor="middle" x="2793" y="-562.12" font-family="Times,serif" font-size="14.00">Trunc_functor</text>
</a>
</g>
</g>
<!-- Core_Trunc_min&#45;&gt;Core_Trunc_functor -->
<g id="edge6" class="edge">
<title>Core_Trunc_min&#45;&gt;Core_Trunc_functor</title>
<path fill="none" stroke="black" d="M1872.34,-1102.71C1890.29,-1074.64 1924.77,-1016.47 1940,-961.82 1954.19,-910.92 1923.55,-763.99 1959,-724.82 2069.93,-602.23 2529.3,-626.29 2691,-591.82 2704.92,-588.85 2719.83,-585.37 2733.84,-581.96"/>
<polygon fill="black" stroke="black" points="2734.98,-585.29 2743.85,-579.5 2733.31,-578.49 2734.98,-585.29"/>
</g>
<!-- Core_equiv_tr -->
<g id="node37" class="node">
<title>Core_equiv_tr</title>
<g id="a_node37"><a xlink:href="Core.html#equiv_tr" xlink:title="equiv_tr">
<ellipse fill="#f070d1" stroke="black" cx="1342" cy="-935.82" rx="48.99" ry="18"/>
<text text-anchor="middle" x="1342" y="-932.12" font-family="Times,serif" font-size="14.00">equiv_tr</text>
</a>
</g>
</g>
<!-- Core_Trunc_min&#45;&gt;Core_equiv_tr -->
<g id="edge7" class="edge">
<title>Core_Trunc_min&#45;&gt;Core_equiv_tr</title>
<path fill="none" stroke="black" d="M1821.04,-1107.4C1740.46,-1082.08 1553.03,-1021.81 1399,-961.82 1393.05,-959.5 1386.82,-956.92 1380.74,-954.33"/>
<polygon fill="black" stroke="black" points="1381.95,-951.04 1371.39,-950.27 1379.17,-957.46 1381.95,-951.04"/>
</g>
<!-- Core_Tr -->
<g id="node40" class="node">
<title>Core_Tr</title>
<g id="a_node40"><a xlink:href="Core.html#Tr" xlink:title="Tr">
<ellipse fill="#f070d1" stroke="black" cx="1493" cy="-396.82" rx="27" ry="18"/>
<text text-anchor="middle" x="1493" y="-393.12" font-family="Times,serif" font-size="14.00">Tr</text>
</a>
</g>
</g>
<!-- Core_O_leq_Tr_leq&#45;&gt;Core_Tr -->
<g id="edge8" class="edge">
<title>Core_O_leq_Tr_leq&#45;&gt;Core_Tr</title>
<path fill="none" stroke="black" d="M1867.31,-917.54C1885.29,-868.47 1936.04,-731.34 1944,-724.82 2201.45,-513.85 2467.56,-847.22 2681,-591.82 2695.82,-574.08 2696.34,-557.1 2681,-539.82 2602.47,-451.34 1722.88,-407.88 1530.17,-399.38"/>
<polygon fill="black" stroke="black" points="1530.13,-395.88 1519.98,-398.94 1529.82,-402.87 1530.13,-395.88"/>
</g>
<!-- Core_isembedding_paths -->
<g id="node8" class="node">
<title>Core_isembedding_paths</title>
<g id="a_node8"><a xlink:href="Core.html#isembedding_paths" xlink:title="isembedding_paths">
<ellipse fill="#f070d1" stroke="black" cx="1286" cy="-1120.82" rx="100.96" ry="18"/>
<ellipse fill="none" stroke="black" cx="1286" cy="-1120.82" rx="104.97" ry="22"/>
<ellipse fill="none" stroke="black" cx="1286" cy="-1120.82" rx="108.98" ry="26"/>
<text text-anchor="middle" x="1286" y="-1117.12" font-family="Times,serif" font-size="14.00">isembedding_paths</text>
</a>
</g>
</g>
<!-- Core_ap_paths_inverse -->
<g id="node9" class="node">
<title>Core_ap_paths_inverse</title>
<g id="a_node9"><a xlink:href="Core.html#ap_paths_inverse" xlink:title="ap_paths_inverse">
<ellipse fill="#f070d1" stroke="black" cx="982" cy="-935.82" rx="90.98" ry="18"/>
<text text-anchor="middle" x="982" y="-932.12" font-family="Times,serif" font-size="14.00">ap_paths_inverse</text>
</a>
</g>
</g>
<!-- Core_isembedding_paths&#45;&gt;Core_ap_paths_inverse -->
<g id="edge9" class="edge">
<title>Core_isembedding_paths&#45;&gt;Core_ap_paths_inverse</title>
<path fill="none" stroke="black" d="M1247.19,-1096.45C1187.78,-1060.69 1075.15,-992.89 1017.68,-958.29"/>
<polygon fill="black" stroke="black" points="1019.32,-955.2 1008.95,-953.04 1015.71,-961.19 1019.32,-955.2"/>
</g>
<!-- Core_isequiv_isequiv_compose_embedding -->
<g id="node11" class="node">
<title>Core_isequiv_isequiv_compose_embedding</title>
<g id="a_node11"><a xlink:href="Core.html#isequiv_isequiv_compose_embedding" xlink:title="isequiv_isequiv_compose_embedding">
<ellipse fill="#f070d1" stroke="black" cx="1591" cy="-935.82" rx="182.77" ry="18"/>
<text text-anchor="middle" x="1591" y="-932.12" font-family="Times,serif" font-size="14.00">isequiv_isequiv_compose_embedding</text>
</a>
</g>
</g>
<!-- Core_isembedding_paths&#45;&gt;Core_isequiv_isequiv_compose_embedding -->
<g id="edge10" class="edge">
<title>Core_isembedding_paths&#45;&gt;Core_isequiv_isequiv_compose_embedding</title>
<path fill="none" stroke="black" d="M1324.94,-1096.45C1384.08,-1060.97 1495.81,-993.93 1553.87,-959.1"/>
<polygon fill="black" stroke="black" points="1555.93,-961.94 1562.71,-953.79 1552.33,-955.94 1555.93,-961.94"/>
</g>
<!-- Core_isembedding_precompose_surjection_hset -->
<g id="node10" class="node">
<title>Core_isembedding_precompose_surjection_hset</title>
<g id="a_node10"><a xlink:href="Core.html#isembedding_precompose_surjection_hset" xlink:title="isembedding_precompose_surjection_hset">
<ellipse fill="#f070d1" stroke="black" cx="1132" cy="-750.82" rx="206.06" ry="18"/>
<ellipse fill="none" stroke="black" cx="1132" cy="-750.82" rx="210.06" ry="22"/>
<ellipse fill="none" stroke="black" cx="1132" cy="-750.82" rx="214.06" ry="26"/>
<text text-anchor="middle" x="1132" y="-747.12" font-family="Times,serif" font-size="14.00">isembedding_precompose_surjection_hset</text>
</a>
</g>
</g>
<!-- Core_inO_tr_istrunc -->
<g id="node27" class="node">
<title>Core_inO_tr_istrunc</title>
<g id="a_node27"><a xlink:href="Core.html#inO_tr_istrunc" xlink:title="inO_tr_istrunc">
<ellipse fill="#f070d1" stroke="black" cx="1603" cy="-565.82" rx="76.89" ry="18"/>
<text text-anchor="middle" x="1603" y="-562.12" font-family="Times,serif" font-size="14.00">inO_tr_istrunc</text>
</a>
</g>
</g>
<!-- Core_isembedding_precompose_surjection_hset&#45;&gt;Core_inO_tr_istrunc -->
<g id="edge11" class="edge">
<title>Core_isembedding_precompose_surjection_hset&#45;&gt;Core_inO_tr_istrunc</title>
<path fill="none" stroke="black" d="M1193.58,-725.89C1288.78,-688.9 1469.65,-618.63 1555.5,-585.27"/>
<polygon fill="black" stroke="black" points="1556.94,-588.47 1564.99,-581.59 1554.4,-581.94 1556.94,-588.47"/>
</g>
<!-- Core_isequiv_surj_emb -->
<g id="node12" class="node">
<title>Core_isequiv_surj_emb</title>
<g id="a_node12"><a xlink:href="Core.html#isequiv_surj_emb" xlink:title="isequiv_surj_emb">
<ellipse fill="#f070d1" stroke="black" cx="1591" cy="-750.82" rx="90.98" ry="18"/>
<text text-anchor="middle" x="1591" y="-747.12" font-family="Times,serif" font-size="14.00">isequiv_surj_emb</text>
</a>
</g>
</g>
<!-- Core_isequiv_isequiv_compose_embedding&#45;&gt;Core_isequiv_surj_emb -->
<g id="edge12" class="edge">
<title>Core_isequiv_isequiv_compose_embedding&#45;&gt;Core_isequiv_surj_emb</title>
<path fill="none" stroke="black" d="M1591,-917.6C1591,-885.77 1591,-817.5 1591,-779.24"/>
<polygon fill="black" stroke="black" points="1594.5,-778.85 1591,-768.85 1587.5,-778.85 1594.5,-778.85"/>
</g>
<!-- Core_cancelR_issurjection -->
<g id="node14" class="node">
<title>Core_cancelR_issurjection</title>
<g id="a_node14"><a xlink:href="Core.html#cancelR_issurjection" xlink:title="cancelR_issurjection">
<ellipse fill="#f070d1" stroke="black" cx="1805" cy="-750.82" rx="105.08" ry="18"/>
<text text-anchor="middle" x="1805" y="-747.12" font-family="Times,serif" font-size="14.00">cancelR_issurjection</text>
</a>
</g>
</g>
<!-- Core_isequiv_isequiv_compose_embedding&#45;&gt;Core_cancelR_issurjection -->
<g id="edge13" class="edge">
<title>Core_isequiv_isequiv_compose_embedding&#45;&gt;Core_cancelR_issurjection</title>
<path fill="none" stroke="black" d="M1611.13,-917.6C1649.73,-884.6 1734.15,-812.41 1777.74,-775.13"/>
<polygon fill="black" stroke="black" points="1780.06,-777.75 1785.39,-768.59 1775.51,-772.43 1780.06,-777.75"/>
</g>
<!-- Core_isequiv_surj_emb&#45;&gt;Core_Tr -->
<g id="edge14" class="edge">
<title>Core_isequiv_surj_emb&#45;&gt;Core_Tr</title>
<path fill="none" stroke="black" d="M1642.15,-735.88C1657.75,-731.94 1675.01,-727.89 1691,-724.82 1908.2,-683.03 2815.73,-705.33 2669,-539.82 2591.34,-452.22 1721.5,-408.11 1530.1,-399.43"/>
<polygon fill="black" stroke="black" points="1530.13,-395.93 1519.98,-398.97 1529.82,-402.92 1530.13,-395.93"/>
</g>
<!-- Core_issurj_retr -->
<g id="node13" class="node">
<title>Core_issurj_retr</title>
<g id="a_node13"><a xlink:href="Core.html#issurj_retr" xlink:title="issurj_retr">
<ellipse fill="#f070d1" stroke="black" cx="2593" cy="-565.82" rx="59.27" ry="18"/>
<ellipse fill="none" stroke="black" cx="2593" cy="-565.82" rx="63.28" ry="22"/>
<ellipse fill="none" stroke="black" cx="2593" cy="-565.82" rx="67.29" ry="26"/>
<text text-anchor="middle" x="2593" y="-562.12" font-family="Times,serif" font-size="14.00">issurj_retr</text>
</a>
</g>
</g>
<!-- Core_issurj_retr&#45;&gt;Core_Tr -->
<g id="edge15" class="edge">
<title>Core_issurj_retr&#45;&gt;Core_Tr</title>
<path fill="none" stroke="black" d="M2544.72,-547.49C2535.59,-544.63 2526.07,-541.92 2517,-539.82 2136.96,-451.71 1664.05,-410.85 1529.96,-400.52"/>
<polygon fill="black" stroke="black" points="1530.06,-397.02 1519.82,-399.75 1529.53,-404 1530.06,-397.02"/>
</g>
<!-- Core_cancelR_issurjection&#45;&gt;Core_Trunc_functor -->
<g id="edge16" class="edge">
<title>Core_cancelR_issurjection&#45;&gt;Core_Trunc_functor</title>
<path fill="none" stroke="black" d="M1874.64,-737.29C1896.81,-733.3 1921.44,-728.87 1944,-724.82 2272.89,-665.69 2356.61,-658.74 2684,-591.82 2699.53,-588.64 2716.23,-584.95 2731.79,-581.39"/>
<polygon fill="black" stroke="black" points="2732.86,-584.74 2741.82,-579.08 2731.29,-577.92 2732.86,-584.74"/>
</g>
<!-- Core_equiv_merely_issurjection -->
<g id="node15" class="node">
<title>Core_equiv_merely_issurjection</title>
<g id="a_node15"><a xlink:href="Core.html#equiv_merely_issurjection" xlink:title="equiv_merely_issurjection">
<ellipse fill="#f070d1" stroke="black" cx="347" cy="-935.82" rx="131.09" ry="18"/>
<ellipse fill="none" stroke="black" cx="347" cy="-935.82" rx="135.08" ry="22"/>
<ellipse fill="none" stroke="black" cx="347" cy="-935.82" rx="139.08" ry="26"/>
<text text-anchor="middle" x="347" y="-932.12" font-family="Times,serif" font-size="14.00">equiv_merely_issurjection</text>
</a>
</g>
</g>
<!-- Core_iff_merely_issurjection -->
<g id="node16" class="node">
<title>Core_iff_merely_issurjection</title>
<g id="a_node16"><a xlink:href="Core.html#iff_merely_issurjection" xlink:title="iff_merely_issurjection">
<ellipse fill="#f070d1" stroke="black" cx="347" cy="-750.82" rx="115.08" ry="18"/>
<text text-anchor="middle" x="347" y="-747.12" font-family="Times,serif" font-size="14.00">iff_merely_issurjection</text>
</a>
</g>
</g>
<!-- Core_equiv_merely_issurjection&#45;&gt;Core_iff_merely_issurjection -->
<g id="edge17" class="edge">
<title>Core_equiv_merely_issurjection&#45;&gt;Core_iff_merely_issurjection</title>
<path fill="none" stroke="black" d="M347,-909.75C347,-875.51 347,-814.33 347,-779.01"/>
<polygon fill="black" stroke="black" points="350.5,-778.94 347,-768.94 343.5,-778.94 350.5,-778.94"/>
</g>
<!-- Core_merely -->
<g id="node23" class="node">
<title>Core_merely</title>
<g id="a_node23"><a xlink:href="Core.html#merely" xlink:title="merely">
<ellipse fill="#f070d1" stroke="black" cx="232" cy="-565.82" rx="42.79" ry="18"/>
<text text-anchor="middle" x="232" y="-562.12" font-family="Times,serif" font-size="14.00">merely</text>
</a>
</g>
</g>
<!-- Core_iff_merely_issurjection&#45;&gt;Core_merely -->
<g id="edge18" class="edge">
<title>Core_iff_merely_issurjection&#45;&gt;Core_merely</title>
<path fill="none" stroke="black" d="M336.18,-732.6C315.82,-700.2 271.72,-630.03 247.95,-592.2"/>
<polygon fill="black" stroke="black" points="250.66,-589.93 242.37,-583.33 244.73,-593.65 250.66,-589.93"/>
</g>
<!-- Core_BuildIsSurjection -->
<g id="node17" class="node">
<title>Core_BuildIsSurjection</title>
<g id="a_node17"><a xlink:href="Core.html#BuildIsSurjection" xlink:title="BuildIsSurjection">
<ellipse fill="#f070d1" stroke="black" cx="115" cy="-750.82" rx="90.98" ry="18"/>
<ellipse fill="none" stroke="black" cx="115" cy="-750.82" rx="94.98" ry="22"/>
<ellipse fill="none" stroke="black" cx="115" cy="-750.82" rx="98.98" ry="26"/>
<text text-anchor="middle" x="115" y="-747.12" font-family="Times,serif" font-size="14.00">BuildIsSurjection</text>
</a>
</g>
</g>
<!-- Core_BuildIsSurjection&#45;&gt;Core_merely -->
<g id="edge19" class="edge">
<title>Core_BuildIsSurjection&#45;&gt;Core_merely</title>
<path fill="none" stroke="black" d="M130.78,-725.14C153,-690.39 193.29,-627.37 215.75,-592.23"/>
<polygon fill="black" stroke="black" points="218.89,-593.83 221.32,-583.52 212.99,-590.06 218.89,-593.83"/>
</g>
<!-- Core_merely_inhabited_iff_inhabited_stable -->
<g id="node18" class="node">
<title>Core_merely_inhabited_iff_inhabited_stable</title>
<g id="a_node18"><a xlink:href="Core.html#merely_inhabited_iff_inhabited_stable" xlink:title="merely_inhabited_iff_inhabited_stable">
<ellipse fill="#f070d1" stroke="black" cx="2314" cy="-565.82" rx="185.77" ry="18"/>
<ellipse fill="none" stroke="black" cx="2314" cy="-565.82" rx="189.77" ry="22"/>
<ellipse fill="none" stroke="black" cx="2314" cy="-565.82" rx="193.77" ry="26"/>
<text text-anchor="middle" x="2314" y="-562.12" font-family="Times,serif" font-size="14.00">merely_inhabited_iff_inhabited_stable</text>
</a>
</g>
</g>
<!-- Core_merely_inhabited_iff_inhabited_stable&#45;&gt;Core_Tr -->
<g id="edge20" class="edge">
<title>Core_merely_inhabited_iff_inhabited_stable&#45;&gt;Core_Tr</title>
<path fill="none" stroke="black" d="M2210.44,-543.75C2025.27,-506.09 1645.85,-428.91 1528.43,-405.02"/>
<polygon fill="black" stroke="black" points="1529.02,-401.57 1518.53,-403.01 1527.63,-408.43 1529.02,-401.57"/>
</g>
<!-- Core_contr_inhab_prop -->
<g id="node19" class="node">
<title>Core_contr_inhab_prop</title>
<g id="a_node19"><a xlink:href="Core.html#contr_inhab_prop" xlink:title="contr_inhab_prop">
<ellipse fill="#f070d1" stroke="black" cx="793" cy="-750.82" rx="90.98" ry="18"/>
<ellipse fill="none" stroke="black" cx="793" cy="-750.82" rx="94.98" ry="22"/>
<ellipse fill="none" stroke="black" cx="793" cy="-750.82" rx="98.98" ry="26"/>
<text text-anchor="middle" x="793" y="-747.12" font-family="Times,serif" font-size="14.00">contr_inhab_prop</text>
</a>
</g>
</g>
<!-- Core_contr_inhab_prop&#45;&gt;Core_merely -->
<g id="edge21" class="edge">
<title>Core_contr_inhab_prop&#45;&gt;Core_merely</title>
<path fill="none" stroke="black" d="M724.39,-731.98C625.58,-705.52 438.14,-652.41 284,-591.82 278.51,-589.66 272.78,-587.17 267.23,-584.61"/>
<polygon fill="black" stroke="black" points="268.66,-581.41 258.12,-580.3 265.66,-587.74 268.66,-581.41"/>
</g>
<!-- Core_contr_inhab_prop&#45;&gt;Core_inO_tr_istrunc -->
<g id="edge22" class="edge">
<title>Core_contr_inhab_prop&#45;&gt;Core_inO_tr_istrunc</title>
<path fill="none" stroke="black" d="M867.53,-733.7C1045.96,-695.08 1485.26,-599.88 1517,-591.82 1527.16,-589.23 1537.94,-586.28 1548.3,-583.32"/>
<polygon fill="black" stroke="black" points="1549.44,-586.64 1558.08,-580.5 1547.5,-579.91 1549.44,-586.64"/>
</g>
<!-- Core_himage -->
<g id="node20" class="node">
<title>Core_himage</title>
<g id="a_node20"><a xlink:href="Core.html#himage" xlink:title="himage">
<ellipse fill="#f070d1" stroke="black" cx="1751" cy="-565.82" rx="44.72" ry="18"/>
<ellipse fill="none" stroke="black" cx="1751" cy="-565.82" rx="48.7" ry="22"/>
<ellipse fill="none" stroke="black" cx="1751" cy="-565.82" rx="52.69" ry="26"/>
<text text-anchor="middle" x="1751" y="-562.12" font-family="Times,serif" font-size="14.00">himage</text>
</a>
</g>
</g>
<!-- Core_himage&#45;&gt;Core_Tr -->
<g id="edge23" class="edge">
<title>Core_himage&#45;&gt;Core_Tr</title>
<path fill="none" stroke="black" d="M1719.88,-544.67C1669.01,-511.75 1568.89,-446.94 1520.49,-415.61"/>
<polygon fill="black" stroke="black" points="1522.1,-412.48 1511.8,-409.98 1518.29,-418.36 1522.1,-412.48"/>
</g>
<!-- Core_hor -->
<g id="node21" class="node">
<title>Core_hor</title>
<g id="a_node21"><a xlink:href="Core.html#hor" xlink:title="hor">
<ellipse fill="#f070d1" stroke="black" cx="637" cy="-750.82" rx="27" ry="18"/>
<ellipse fill="none" stroke="black" cx="637" cy="-750.82" rx="31" ry="22"/>
<ellipse fill="none" stroke="black" cx="637" cy="-750.82" rx="35" ry="26"/>
<text text-anchor="middle" x="637" y="-747.12" font-family="Times,serif" font-size="14.00">hor</text>
</a>
</g>
</g>
<!-- Core_hor&#45;&gt;Core_merely -->
<g id="edge24" class="edge">
<title>Core_hor&#45;&gt;Core_merely</title>
<path fill="none" stroke="black" d="M610.26,-734C604.62,-730.84 598.66,-727.63 593,-724.82 459.13,-658.23 420.07,-653.78 284,-591.82 278.87,-589.48 273.49,-586.97 268.21,-584.46"/>
<polygon fill="black" stroke="black" points="269.42,-581.16 258.89,-580.01 266.4,-587.48 269.42,-581.16"/>
</g>
<!-- Core_hexists -->
<g id="node22" class="node">
<title>Core_hexists</title>
<g id="a_node22"><a xlink:href="Core.html#hexists" xlink:title="hexists">
<ellipse fill="#f070d1" stroke="black" cx="532" cy="-750.82" rx="44.36" ry="18"/>
<ellipse fill="none" stroke="black" cx="532" cy="-750.82" rx="48.38" ry="22"/>
<ellipse fill="none" stroke="black" cx="532" cy="-750.82" rx="52.39" ry="26"/>
<text text-anchor="middle" x="532" y="-747.12" font-family="Times,serif" font-size="14.00">hexists</text>
</a>
</g>
</g>
<!-- Core_hexists&#45;&gt;Core_merely -->
<g id="edge25" class="edge">
<title>Core_hexists&#45;&gt;Core_merely</title>
<path fill="none" stroke="black" d="M499.89,-730.23C442.22,-695.05 321.71,-621.54 264.06,-586.37"/>
<polygon fill="black" stroke="black" points="265.73,-583.29 255.37,-581.07 262.08,-589.27 265.73,-583.29"/>
</g>
<!-- Core_merely&#45;&gt;Core_Tr -->
<g id="edge26" class="edge">
<title>Core_merely&#45;&gt;Core_Tr</title>
<path fill="none" stroke="black" d="M256.46,-551C264.94,-546.77 274.67,-542.53 284,-539.82 731.94,-409.78 1306.12,-398.42 1455.93,-397.75"/>
<polygon fill="black" stroke="black" points="1455.99,-401.25 1465.98,-397.72 1455.97,-394.25 1455.99,-401.25"/>
</g>
<!-- Core_istruncmap_mapinO_tr -->
<g id="node24" class="node">
<title>Core_istruncmap_mapinO_tr</title>
<g id="a_node24"><a xlink:href="Core.html#istruncmap_mapinO_tr" xlink:title="istruncmap_mapinO_tr">
<ellipse fill="#f070d1" stroke="black" cx="1384" cy="-565.82" rx="116.19" ry="18"/>
<ellipse fill="none" stroke="black" cx="1384" cy="-565.82" rx="120.18" ry="22"/>
<ellipse fill="none" stroke="black" cx="1384" cy="-565.82" rx="124.18" ry="26"/>
<text text-anchor="middle" x="1384" y="-562.12" font-family="Times,serif" font-size="14.00">istruncmap_mapinO_tr</text>
</a>
</g>
</g>
<!-- Core_istruncmap_mapinO_tr&#45;&gt;Core_Tr -->
<g id="edge27" class="edge">
<title>Core_istruncmap_mapinO_tr&#45;&gt;Core_Tr</title>
<path fill="none" stroke="black" d="M1400.32,-539.81C1420.97,-508.18 1456.31,-454.03 1476.87,-422.53"/>
<polygon fill="black" stroke="black" points="1479.96,-424.2 1482.5,-413.91 1474.1,-420.37 1479.96,-424.2"/>
</g>
<!-- Core_mapinO_tr_istruncmap -->
<g id="node25" class="node">
<title>Core_mapinO_tr_istruncmap</title>
<g id="a_node25"><a xlink:href="Core.html#mapinO_tr_istruncmap" xlink:title="mapinO_tr_istruncmap">
<ellipse fill="#f070d1" stroke="black" cx="1117" cy="-565.82" rx="116.19" ry="18"/>
<ellipse fill="none" stroke="black" cx="1117" cy="-565.82" rx="120.18" ry="22"/>
<ellipse fill="none" stroke="black" cx="1117" cy="-565.82" rx="124.18" ry="26"/>
<text text-anchor="middle" x="1117" y="-562.12" font-family="Times,serif" font-size="14.00">mapinO_tr_istruncmap</text>
</a>
</g>
</g>
<!-- Core_mapinO_tr_istruncmap&#45;&gt;Core_Tr -->
<g id="edge28" class="edge">
<title>Core_mapinO_tr_istruncmap&#45;&gt;Core_Tr</title>
<path fill="none" stroke="black" d="M1168.49,-541.95C1247.69,-506.77 1397.02,-440.44 1461.76,-411.69"/>
<polygon fill="black" stroke="black" points="1463.32,-414.83 1471.04,-407.57 1460.48,-408.43 1463.32,-414.83"/>
</g>
<!-- Core_istrunc_inO_tr -->
<g id="node26" class="node">
<title>Core_istrunc_inO_tr</title>
<g id="a_node26"><a xlink:href="Core.html#istrunc_inO_tr" xlink:title="istrunc_inO_tr">
<ellipse fill="#f070d1" stroke="black" cx="890" cy="-565.82" rx="76.87" ry="18"/>
<ellipse fill="none" stroke="black" cx="890" cy="-565.82" rx="80.88" ry="22"/>
<ellipse fill="none" stroke="black" cx="890" cy="-565.82" rx="84.89" ry="26"/>
<text text-anchor="middle" x="890" y="-562.12" font-family="Times,serif" font-size="14.00">istrunc_inO_tr</text>
</a>
</g>
</g>
<!-- Core_istrunc_inO_tr&#45;&gt;Core_Tr -->
<g id="edge29" class="edge">
<title>Core_istrunc_inO_tr&#45;&gt;Core_Tr</title>
<path fill="none" stroke="black" d="M951.42,-547.81C1077.22,-512.96 1360.63,-434.48 1458.78,-407.29"/>
<polygon fill="black" stroke="black" points="1459.78,-410.65 1468.48,-404.61 1457.91,-403.9 1459.78,-410.65"/>
</g>
<!-- Core_inO_tr_istrunc&#45;&gt;Core_Tr -->
<g id="edge30" class="edge">
<title>Core_inO_tr_istrunc&#45;&gt;Core_Tr</title>
<path fill="none" stroke="black" d="M1591.85,-547.88C1572.29,-518.2 1531.76,-456.65 1509.14,-422.32"/>
<polygon fill="black" stroke="black" points="1511.96,-420.23 1503.53,-413.81 1506.11,-424.09 1511.96,-420.23"/>
</g>
<!-- Core_is1functor_Tr -->
<g id="node28" class="node">
<title>Core_is1functor_Tr</title>
<g id="a_node28"><a xlink:href="Core.html#is1functor_Tr" xlink:title="is1functor_Tr">
<ellipse fill="#f070d1" stroke="black" cx="2299" cy="-935.82" rx="72.61" ry="18"/>
<ellipse fill="none" stroke="black" cx="2299" cy="-935.82" rx="76.6" ry="22"/>
<ellipse fill="none" stroke="black" cx="2299" cy="-935.82" rx="80.59" ry="26"/>
<text text-anchor="middle" x="2299" y="-932.12" font-family="Times,serif" font-size="14.00">is1functor_Tr</text>
</a>
</g>
</g>
<!-- Core_Trunc_functor_idmap -->
<g id="node30" class="node">
<title>Core_Trunc_functor_idmap</title>
<g id="a_node30"><a xlink:href="Core.html#Trunc_functor_idmap" xlink:title="Trunc_functor_idmap">
<ellipse fill="#f070d1" stroke="black" cx="2759" cy="-750.82" rx="108.58" ry="18"/>
<text text-anchor="middle" x="2759" y="-747.12" font-family="Times,serif" font-size="14.00">Trunc_functor_idmap</text>
</a>
</g>
</g>
<!-- Core_is1functor_Tr&#45;&gt;Core_Trunc_functor_idmap -->
<g id="edge31" class="edge">
<title>Core_is1functor_Tr&#45;&gt;Core_Trunc_functor_idmap</title>
<path fill="none" stroke="black" d="M2348.67,-915.06C2437.23,-879.83 2621.38,-806.56 2709.69,-771.43"/>
<polygon fill="black" stroke="black" points="2711.21,-774.6 2719.21,-767.65 2708.62,-768.09 2711.21,-774.6"/>
</g>
<!-- Core_Trunc_functor_compose -->
<g id="node31" class="node">
<title>Core_Trunc_functor_compose</title>
<g id="a_node31"><a xlink:href="Core.html#Trunc_functor_compose" xlink:title="Trunc_functor_compose">
<ellipse fill="#f070d1" stroke="black" cx="2088" cy="-750.82" rx="120.48" ry="18"/>
<text text-anchor="middle" x="2088" y="-747.12" font-family="Times,serif" font-size="14.00">Trunc_functor_compose</text>
</a>
</g>
</g>
<!-- Core_is1functor_Tr&#45;&gt;Core_Trunc_functor_compose -->
<g id="edge32" class="edge">
<title>Core_is1functor_Tr&#45;&gt;Core_Trunc_functor_compose</title>
<path fill="none" stroke="black" d="M2271.85,-911.27C2231.36,-876.15 2155.61,-810.45 2115.13,-775.35"/>
<polygon fill="black" stroke="black" points="2117.38,-772.66 2107.53,-768.75 2112.79,-777.95 2117.38,-772.66"/>
</g>
<!-- Core_is0functor_Tr -->
<g id="node34" class="node">
<title>Core_is0functor_Tr</title>
<g id="a_node34"><a xlink:href="Core.html#is0functor_Tr" xlink:title="is0functor_Tr">
<ellipse fill="#f070d1" stroke="black" cx="2299" cy="-750.82" rx="72.59" ry="18"/>
<text text-anchor="middle" x="2299" y="-747.12" font-family="Times,serif" font-size="14.00">is0functor_Tr</text>
</a>
</g>
</g>
<!-- Core_is1functor_Tr&#45;&gt;Core_is0functor_Tr -->
<g id="edge33" class="edge">
<title>Core_is1functor_Tr&#45;&gt;Core_is0functor_Tr</title>
<path fill="none" stroke="black" d="M2299,-909.75C2299,-875.51 2299,-814.33 2299,-779.01"/>
<polygon fill="black" stroke="black" points="2302.5,-778.94 2299,-768.94 2295.5,-778.94 2302.5,-778.94"/>
</g>
<!-- Core_equiv_Trunc_prod_cmp -->
<g id="node29" class="node">
<title>Core_equiv_Trunc_prod_cmp</title>
<g id="a_node29"><a xlink:href="Core.html#equiv_Trunc_prod_cmp" xlink:title="equiv_Trunc_prod_cmp">
<ellipse fill="#f070d1" stroke="black" cx="662" cy="-565.82" rx="116.98" ry="18"/>
<ellipse fill="none" stroke="black" cx="662" cy="-565.82" rx="120.98" ry="22"/>
<ellipse fill="none" stroke="black" cx="662" cy="-565.82" rx="124.98" ry="26"/>
<text text-anchor="middle" x="662" y="-562.12" font-family="Times,serif" font-size="14.00">equiv_Trunc_prod_cmp</text>
</a>
</g>
</g>
<!-- Core_equiv_Trunc_prod_cmp&#45;&gt;Core_Tr -->
<g id="edge34" class="edge">
<title>Core_equiv_Trunc_prod_cmp&#45;&gt;Core_Tr</title>
<path fill="none" stroke="black" d="M749.75,-547.18C929.95,-510.97 1335.04,-429.56 1457.36,-404.98"/>
<polygon fill="black" stroke="black" points="1458.21,-408.38 1467.32,-402.98 1456.83,-401.52 1458.21,-408.38"/>
</g>
<!-- Core_Trunc_functor_idmap&#45;&gt;Core_Trunc_functor -->
<g id="edge35" class="edge">
<title>Core_Trunc_functor_idmap&#45;&gt;Core_Trunc_functor</title>
<path fill="none" stroke="black" d="M2762.2,-732.6C2768.14,-700.64 2780.9,-631.92 2788,-593.75"/>
<polygon fill="black" stroke="black" points="2791.45,-594.32 2789.83,-583.85 2784.57,-593.05 2791.45,-594.32"/>
</g>
<!-- Core_Trunc_functor_compose&#45;&gt;Core_Trunc_functor -->
<g id="edge36" class="edge">
<title>Core_Trunc_functor_compose&#45;&gt;Core_Trunc_functor</title>
<path fill="none" stroke="black" d="M2147.15,-735.12C2257.05,-707.71 2500.08,-646.6 2704,-591.82 2714.56,-588.98 2725.81,-585.88 2736.62,-582.86"/>
<polygon fill="black" stroke="black" points="2737.72,-586.19 2746.4,-580.12 2735.83,-579.45 2737.72,-586.19"/>
</g>
<!-- Core_Trunc_functor_equiv -->
<g id="node32" class="node">
<title>Core_Trunc_functor_equiv</title>
<g id="a_node32"><a xlink:href="Core.html#Trunc_functor_equiv" xlink:title="Trunc_functor_equiv">
<ellipse fill="#f070d1" stroke="black" cx="406" cy="-565.82" rx="105.1" ry="18"/>
<ellipse fill="none" stroke="black" cx="406" cy="-565.82" rx="109.09" ry="22"/>
<ellipse fill="none" stroke="black" cx="406" cy="-565.82" rx="113.08" ry="26"/>
<text text-anchor="middle" x="406" y="-562.12" font-family="Times,serif" font-size="14.00">Trunc_functor_equiv</text>
</a>
</g>
</g>
<!-- Core_Trunc_functor_equiv&#45;&gt;Core_Tr -->
<g id="edge37" class="edge">
<title>Core_Trunc_functor_equiv&#45;&gt;Core_Tr</title>
<path fill="none" stroke="black" d="M486.92,-547.57C500.61,-544.85 514.69,-542.16 528,-539.82 888.53,-476.4 1328.28,-418.83 1456.38,-402.45"/>
<polygon fill="black" stroke="black" points="1456.96,-405.91 1466.43,-401.17 1456.07,-398.96 1456.96,-405.91"/>
</g>
<!-- Core_Trunc_functor_isequiv -->
<g id="node33" class="node">
<title>Core_Trunc_functor_isequiv</title>
<g id="a_node33"><a xlink:href="Core.html#Trunc_functor_isequiv" xlink:title="Trunc_functor_isequiv">
<ellipse fill="#f070d1" stroke="black" cx="2511" cy="-750.82" rx="113.17" ry="18"/>
<ellipse fill="none" stroke="black" cx="2511" cy="-750.82" rx="117.18" ry="22"/>
<ellipse fill="none" stroke="black" cx="2511" cy="-750.82" rx="121.18" ry="26"/>
<text text-anchor="middle" x="2511" y="-747.12" font-family="Times,serif" font-size="14.00">Trunc_functor_isequiv</text>
</a>
</g>
</g>
<!-- Core_Trunc_functor_isequiv&#45;&gt;Core_Trunc_functor -->
<g id="edge38" class="edge">
<title>Core_Trunc_functor_isequiv&#45;&gt;Core_Trunc_functor</title>
<path fill="none" stroke="black" d="M2547.87,-725.89C2603.05,-690.08 2706.31,-623.07 2759.47,-588.57"/>
<polygon fill="black" stroke="black" points="2761.7,-591.3 2768.18,-582.92 2757.89,-585.43 2761.7,-591.3"/>
</g>
<!-- Core_is0functor_Tr&#45;&gt;Core_Trunc_functor -->
<g id="edge39" class="edge">
<title>Core_is0functor_Tr&#45;&gt;Core_Trunc_functor</title>
<path fill="none" stroke="black" d="M2337.76,-735.46C2426.93,-702.42 2646.45,-621.11 2744.42,-584.81"/>
<polygon fill="black" stroke="black" points="2745.91,-587.99 2754.08,-581.24 2743.48,-581.43 2745.91,-587.99"/>
</g>
<!-- Core_Trunc_functor&#45;&gt;Core_Tr -->
<g id="edge40" class="edge">
<title>Core_Trunc_functor&#45;&gt;Core_Tr</title>
<path fill="none" stroke="black" d="M2749.42,-551.1C2735.07,-546.98 2718.96,-542.77 2704,-539.82 2246.65,-449.35 1679.93,-409.44 1530.52,-400.06"/>
<polygon fill="black" stroke="black" points="1530.29,-396.54 1520.09,-399.41 1529.86,-403.52 1530.29,-396.54"/>
</g>
<!-- Core_untrunc_istrunc -->
<g id="node36" class="node">
<title>Core_untrunc_istrunc</title>
<g id="a_node36"><a xlink:href="Core.html#untrunc_istrunc" xlink:title="untrunc_istrunc">
<ellipse fill="#f070d1" stroke="black" cx="1183" cy="-935.82" rx="84.49" ry="18"/>
<ellipse fill="none" stroke="black" cx="1183" cy="-935.82" rx="88.49" ry="22"/>
<ellipse fill="none" stroke="black" cx="1183" cy="-935.82" rx="92.49" ry="26"/>
<text text-anchor="middle" x="1183" y="-932.12" font-family="Times,serif" font-size="14.00">untrunc_istrunc</text>
</a>
</g>
</g>
<!-- Core_isequiv_tr -->
<g id="node38" class="node">
<title>Core_isequiv_tr</title>
<g id="a_node38"><a xlink:href="Core.html#isequiv_tr" xlink:title="isequiv_tr">
<ellipse fill="#f070d1" stroke="black" cx="1421" cy="-750.82" rx="56.59" ry="18"/>
<text text-anchor="middle" x="1421" y="-747.12" font-family="Times,serif" font-size="14.00">isequiv_tr</text>
</a>
</g>
</g>
<!-- Core_untrunc_istrunc&#45;&gt;Core_isequiv_tr -->
<g id="edge41" class="edge">
<title>Core_untrunc_istrunc&#45;&gt;Core_isequiv_tr</title>
<path fill="none" stroke="black" d="M1213.63,-911.27C1259.86,-875.72 1346.87,-808.82 1392.08,-774.05"/>
<polygon fill="black" stroke="black" points="1394.48,-776.62 1400.28,-767.75 1390.22,-771.07 1394.48,-776.62"/>
</g>
<!-- Core_equiv_tr&#45;&gt;Core_isequiv_tr -->
<g id="edge42" class="edge">
<title>Core_equiv_tr&#45;&gt;Core_isequiv_tr</title>
<path fill="none" stroke="black" d="M1349.29,-917.93C1363.07,-886.01 1393.03,-816.6 1409.53,-778.38"/>
<polygon fill="black" stroke="black" points="1412.86,-779.5 1413.61,-768.93 1406.44,-776.72 1412.86,-779.5"/>
</g>
<!-- Core_trunc_iff_isequiv_truncation -->
<g id="node39" class="node">
<title>Core_trunc_iff_isequiv_truncation</title>
<g id="a_node39"><a xlink:href="Core.html#trunc_iff_isequiv_truncation" xlink:title="trunc_iff_isequiv_truncation">
<ellipse fill="#f070d1" stroke="black" cx="1962" cy="-565.82" rx="139.98" ry="18"/>
<text text-anchor="middle" x="1962" y="-562.12" font-family="Times,serif" font-size="14.00">trunc_iff_isequiv_truncation</text>
</a>
</g>
</g>
<!-- Core_isequiv_tr&#45;&gt;Core_trunc_iff_isequiv_truncation -->
<g id="edge43" class="edge">
<title>Core_isequiv_tr&#45;&gt;Core_trunc_iff_isequiv_truncation</title>
<path fill="none" stroke="black" d="M1456.92,-736.84C1467.85,-732.93 1479.9,-728.66 1491,-724.82 1639.28,-673.47 1814.68,-615.31 1903.77,-585.95"/>
<polygon fill="black" stroke="black" points="1905.01,-589.22 1913.42,-582.77 1902.82,-582.57 1905.01,-589.22"/>
</g>
<!-- Core_trunc_iff_isequiv_truncation&#45;&gt;Core_Tr -->
<g id="edge44" class="edge">
<title>Core_trunc_iff_isequiv_truncation&#45;&gt;Core_Tr</title>
<path fill="none" stroke="black" d="M1916.6,-548.65C1822.48,-515.14 1608.02,-438.77 1525.86,-409.52"/>
<polygon fill="black" stroke="black" points="1526.89,-406.17 1516.29,-406.11 1524.54,-412.76 1526.89,-406.17"/>
</g>
<!-- Core_Tr&#45;&gt;Core_Trunc_Trunc_ind -->
<g id="edge45" class="edge">
<title>Core_Tr&#45;&gt;Core_Trunc_Trunc_ind</title>
<path fill="none" stroke="black" d="M1471.67,-385.77C1417.54,-360.27 1274.2,-292.73 1203.95,-259.64"/>
<polygon fill="black" stroke="black" points="1205.08,-256.3 1194.54,-255.2 1202.09,-262.63 1205.08,-256.3"/>
</g>
<!-- Core_Tr&#45;&gt;Core_Trunc_istrunc_truncation -->
<g id="edge46" class="edge">
<title>Core_Tr&#45;&gt;Core_Trunc_istrunc_truncation</title>
<path fill="none" stroke="black" d="M1467.6,-390.46C1404.21,-376.77 1234.32,-338.06 1098,-288.82 1076.29,-280.97 1052.87,-270.47 1033.66,-261.3"/>
<polygon fill="black" stroke="black" points="1035.13,-258.12 1024.6,-256.91 1032.08,-264.42 1035.13,-258.12"/>
</g>
<!-- Core_Trunc_rec_tr -->
<g id="node41" class="node">
<title>Core_Trunc_rec_tr</title>
<g id="a_node41"><a xlink:href="Core.html#Trunc_rec_tr" xlink:title="Trunc_rec_tr">
<ellipse fill="#f070d1" stroke="black" cx="94" cy="-565.82" rx="69.58" ry="18"/>
<ellipse fill="none" stroke="black" cx="94" cy="-565.82" rx="73.59" ry="22"/>
<ellipse fill="none" stroke="black" cx="94" cy="-565.82" rx="77.59" ry="26"/>
<text text-anchor="middle" x="94" y="-562.12" font-family="Times,serif" font-size="14.00">Trunc_rec_tr</text>
</a>
</g>
</g>
<!-- Core_Trunc_rec_tr&#45;&gt;Core_Trunc_istrunc_truncation -->
<g id="edge47" class="edge">
<title>Core_Trunc_rec_tr&#45;&gt;Core_Trunc_istrunc_truncation</title>
<path fill="none" stroke="black" d="M145.56,-546.23C303.98,-489.14 782.48,-316.69 941.21,-259.48"/>
<polygon fill="black" stroke="black" points="942.53,-262.73 950.75,-256.04 940.16,-256.14 942.53,-262.73"/>
</g>
<!-- Core_Trunc_rec -->
<g id="node42" class="node">
<title>Core_Trunc_rec</title>
<g id="a_node42"><a xlink:href="Core.html#Trunc_rec" xlink:title="Trunc_rec">
<ellipse fill="#f070d1" stroke="black" cx="835" cy="-396.82" rx="56.59" ry="18"/>
<text text-anchor="middle" x="835" y="-393.12" font-family="Times,serif" font-size="14.00">Trunc_rec</text>
</a>
</g>
</g>
<!-- Core_Trunc_rec_tr&#45;&gt;Core_Trunc_rec -->
<g id="edge48" class="edge">
<title>Core_Trunc_rec_tr&#45;&gt;Core_Trunc_rec</title>
<path fill="none" stroke="black" d="M150.28,-547.85C160.16,-545.05 170.35,-542.26 180,-539.82 399.52,-484.19 663.84,-431.07 777.96,-408.8"/>
<polygon fill="black" stroke="black" points="778.73,-412.21 787.88,-406.86 777.39,-405.34 778.73,-412.21"/>
</g>
<!-- Core_Trunc_rec&#45;&gt;Core_Trunc_Trunc_ind -->
<g id="edge49" class="edge">
<title>Core_Trunc_rec&#45;&gt;Core_Trunc_Trunc_ind</title>
<path fill="none" stroke="black" d="M873.34,-383.5C925.76,-365.94 1021.97,-331.11 1098,-288.82 1111.35,-281.39 1125.16,-271.7 1136.68,-262.98"/>
<polygon fill="black" stroke="black" points="1138.85,-265.73 1144.62,-256.84 1134.57,-260.19 1138.85,-265.73"/>
</g>
</g>
</svg>
