<?xml version="1.0" encoding="UTF-8" standalone="no"?>
<!DOCTYPE svg PUBLIC "-//W3C//DTD SVG 1.1//EN"
 "http://www.w3.org/Graphics/SVG/1.1/DTD/svg11.dtd">
<!-- Generated by graphviz version 2.43.0 (0)
 -->
<!-- Title: HoTT_Homotopy_NullHomotopy Pages: 1 -->
<svg width="1993pt" height="1001pt"
 viewBox="0.00 0.00 1993.00 1000.50" xmlns="http://www.w3.org/2000/svg" xmlns:xlink="http://www.w3.org/1999/xlink">
<g id="graph0" class="graph" transform="scale(1 1) rotate(0) translate(4 996.5)">
<title>HoTT_Homotopy_NullHomotopy</title>
<polygon fill="white" stroke="transparent" points="-4,4 -4,-996.5 1989,-996.5 1989,4 -4,4"/>
<g id="clust1" class="cluster">
<title>cluster_NullHomotopy</title>
<polygon fill="#ffffc3" stroke="black" points="8,-44.36 8,-948.14 1977,-948.14 1977,-44.36 8,-44.36"/>
<text text-anchor="middle" x="68" y="-932.94" font-family="Times,serif" font-size="14.00">NullHomotopy</text>
</g>
<!-- NullHomotopy_nullhomotopy_ap -->
<g id="node1" class="node">
<title>NullHomotopy_nullhomotopy_ap</title>
<g id="a_node1"><a xlink:href="NullHomotopy.html#nullhomotopy_ap" xlink:title="nullhomotopy_ap">
<ellipse fill="#f070d1" stroke="black" cx="1871" cy="-632.36" rx="89.87" ry="18"/>
<ellipse fill="none" stroke="black" cx="1871" cy="-632.36" rx="93.88" ry="22"/>
<ellipse fill="none" stroke="black" cx="1871" cy="-632.36" rx="97.88" ry="26"/>
<text text-anchor="middle" x="1871" y="-628.66" font-family="Times,serif" font-size="14.00">nullhomotopy_ap</text>
</a>
</g>
</g>
<!-- NullHomotopy_NullHomotopy -->
<g id="node8" class="node">
<title>NullHomotopy_NullHomotopy</title>
<g id="a_node8"><a xlink:href="NullHomotopy.html#NullHomotopy" xlink:title="NullHomotopy">
<ellipse fill="#f070d1" stroke="black" cx="979" cy="-188.36" rx="77.99" ry="18"/>
<text text-anchor="middle" x="979" y="-184.66" font-family="Times,serif" font-size="14.00">NullHomotopy</text>
</a>
</g>
</g>
<!-- NullHomotopy_nullhomotopy_ap&#45;&gt;NullHomotopy_NullHomotopy -->
<g id="edge1" class="edge">
<title>NullHomotopy_nullhomotopy_ap&#45;&gt;NullHomotopy_NullHomotopy</title>
<path fill="none" stroke="black" d="M1826.15,-609.14C1672.32,-532.91 1167.41,-282.72 1019.84,-209.6"/>
<polygon fill="black" stroke="black" points="1021.16,-206.34 1010.65,-205.04 1018.05,-212.62 1021.16,-206.34"/>
</g>
<!-- NullHomotopy_cancelR_nullhomotopy_equiv -->
<g id="node2" class="node">
<title>NullHomotopy_cancelR_nullhomotopy_equiv</title>
<g id="a_node2"><a xlink:href="NullHomotopy.html#cancelR_nullhomotopy_equiv" xlink:title="cancelR_nullhomotopy_equiv">
<ellipse fill="#f070d1" stroke="black" cx="1603" cy="-632.36" rx="144.09" ry="18"/>
<ellipse fill="none" stroke="black" cx="1603" cy="-632.36" rx="148.08" ry="22"/>
<ellipse fill="none" stroke="black" cx="1603" cy="-632.36" rx="152.07" ry="26"/>
<text text-anchor="middle" x="1603" y="-628.66" font-family="Times,serif" font-size="14.00">cancelR_nullhomotopy_equiv</text>
</a>
</g>
</g>
<!-- NullHomotopy_cancelR_nullhomotopy_equiv&#45;&gt;NullHomotopy_NullHomotopy -->
<g id="edge2" class="edge">
<title>NullHomotopy_cancelR_nullhomotopy_equiv&#45;&gt;NullHomotopy_NullHomotopy</title>
<path fill="none" stroke="black" d="M1568.56,-606.96C1458.47,-528.98 1116.12,-286.49 1010.41,-211.61"/>
<polygon fill="black" stroke="black" points="1012.25,-208.62 1002.07,-205.7 1008.21,-214.33 1012.25,-208.62"/>
</g>
<!-- NullHomotopy_cancelL_nullhomotopy_equiv -->
<g id="node3" class="node">
<title>NullHomotopy_cancelL_nullhomotopy_equiv</title>
<g id="a_node3"><a xlink:href="NullHomotopy.html#cancelL_nullhomotopy_equiv" xlink:title="cancelL_nullhomotopy_equiv">
<ellipse fill="#f070d1" stroke="black" cx="1281" cy="-632.36" rx="143.77" ry="18"/>
<ellipse fill="none" stroke="black" cx="1281" cy="-632.36" rx="147.77" ry="22"/>
<ellipse fill="none" stroke="black" cx="1281" cy="-632.36" rx="151.77" ry="26"/>
<text text-anchor="middle" x="1281" y="-628.66" font-family="Times,serif" font-size="14.00">cancelL_nullhomotopy_equiv</text>
</a>
</g>
</g>
<!-- NullHomotopy_cancelL_nullhomotopy_equiv&#45;&gt;NullHomotopy_NullHomotopy -->
<g id="edge3" class="edge">
<title>NullHomotopy_cancelL_nullhomotopy_equiv&#45;&gt;NullHomotopy_NullHomotopy</title>
<path fill="none" stroke="black" d="M1263.9,-606.33C1210.91,-528.78 1049.85,-293.05 996.43,-214.86"/>
<polygon fill="black" stroke="black" points="999.27,-212.82 990.74,-206.54 993.49,-216.77 999.27,-212.82"/>
</g>
<!-- NullHomotopy_nullhomotopy_composeL -->
<g id="node4" class="node">
<title>NullHomotopy_nullhomotopy_composeL</title>
<g id="a_node4"><a xlink:href="NullHomotopy.html#nullhomotopy_composeL" xlink:title="nullhomotopy_composeL">
<ellipse fill="#f070d1" stroke="black" cx="979" cy="-632.36" rx="124.59" ry="18"/>
<ellipse fill="none" stroke="black" cx="979" cy="-632.36" rx="128.58" ry="22"/>
<ellipse fill="none" stroke="black" cx="979" cy="-632.36" rx="132.58" ry="26"/>
<text text-anchor="middle" x="979" y="-628.66" font-family="Times,serif" font-size="14.00">nullhomotopy_composeL</text>
</a>
</g>
</g>
<!-- NullHomotopy_nullhomotopy_composeL&#45;&gt;NullHomotopy_NullHomotopy -->
<g id="edge4" class="edge">
<title>NullHomotopy_nullhomotopy_composeL&#45;&gt;NullHomotopy_NullHomotopy</title>
<path fill="none" stroke="black" d="M979,-606.33C979,-529.41 979,-296.87 979,-216.8"/>
<polygon fill="black" stroke="black" points="982.5,-216.54 979,-206.54 975.5,-216.54 982.5,-216.54"/>
</g>
<!-- NullHomotopy_nullhomotopy_composeR -->
<g id="node5" class="node">
<title>NullHomotopy_nullhomotopy_composeR</title>
<g id="a_node5"><a xlink:href="NullHomotopy.html#nullhomotopy_composeR" xlink:title="nullhomotopy_composeR">
<ellipse fill="#f070d1" stroke="black" cx="694" cy="-632.36" rx="126.17" ry="18"/>
<ellipse fill="none" stroke="black" cx="694" cy="-632.36" rx="130.18" ry="22"/>
<ellipse fill="none" stroke="black" cx="694" cy="-632.36" rx="134.18" ry="26"/>
<text text-anchor="middle" x="694" y="-628.66" font-family="Times,serif" font-size="14.00">nullhomotopy_composeR</text>
</a>
</g>
</g>
<!-- NullHomotopy_nullhomotopy_composeR&#45;&gt;NullHomotopy_NullHomotopy -->
<g id="edge5" class="edge">
<title>NullHomotopy_nullhomotopy_composeR&#45;&gt;NullHomotopy_NullHomotopy</title>
<path fill="none" stroke="black" d="M710.14,-606.33C760.04,-528.94 911.52,-294.01 962.25,-215.34"/>
<polygon fill="black" stroke="black" points="965.44,-216.84 967.92,-206.54 959.56,-213.05 965.44,-216.84"/>
</g>
<!-- NullHomotopy_nullhomotopy_homotopic -->
<g id="node6" class="node">
<title>NullHomotopy_nullhomotopy_homotopic</title>
<g id="a_node6"><a xlink:href="NullHomotopy.html#nullhomotopy_homotopic" xlink:title="nullhomotopy_homotopic">
<ellipse fill="#f070d1" stroke="black" cx="407" cy="-632.36" rx="126.96" ry="18"/>
<ellipse fill="none" stroke="black" cx="407" cy="-632.36" rx="130.97" ry="22"/>
<ellipse fill="none" stroke="black" cx="407" cy="-632.36" rx="134.98" ry="26"/>
<text text-anchor="middle" x="407" y="-628.66" font-family="Times,serif" font-size="14.00">nullhomotopy_homotopic</text>
</a>
</g>
</g>
<!-- NullHomotopy_nullhomotopy_homotopic&#45;&gt;NullHomotopy_NullHomotopy -->
<g id="edge6" class="edge">
<title>NullHomotopy_nullhomotopy_homotopic&#45;&gt;NullHomotopy_NullHomotopy</title>
<path fill="none" stroke="black" d="M438.57,-606.96C539.38,-529.06 852.67,-286.97 949.91,-211.83"/>
<polygon fill="black" stroke="black" points="952.08,-214.58 957.85,-205.7 947.8,-209.04 952.08,-214.58"/>
</g>
<!-- NullHomotopy_istrunc_nullhomotopy -->
<g id="node7" class="node">
<title>NullHomotopy_istrunc_nullhomotopy</title>
<g id="a_node7"><a xlink:href="NullHomotopy.html#istrunc_nullhomotopy" xlink:title="istrunc_nullhomotopy">
<ellipse fill="#f070d1" stroke="black" cx="135" cy="-632.36" rx="111.27" ry="18"/>
<ellipse fill="none" stroke="black" cx="135" cy="-632.36" rx="115.28" ry="22"/>
<ellipse fill="none" stroke="black" cx="135" cy="-632.36" rx="119.28" ry="26"/>
<text text-anchor="middle" x="135" y="-628.66" font-family="Times,serif" font-size="14.00">istrunc_nullhomotopy</text>
</a>
</g>
</g>
<!-- NullHomotopy_istrunc_nullhomotopy&#45;&gt;NullHomotopy_NullHomotopy -->
<g id="edge7" class="edge">
<title>NullHomotopy_istrunc_nullhomotopy&#45;&gt;NullHomotopy_NullHomotopy</title>
<path fill="none" stroke="black" d="M179.48,-608.06C327.21,-530.7 800.03,-283.08 939.76,-209.91"/>
<polygon fill="black" stroke="black" points="941.62,-212.88 948.86,-205.14 938.37,-206.68 941.62,-212.88"/>
</g>
</g>
</svg>
