<?xml version="1.0" encoding="UTF-8" standalone="no"?>
<!DOCTYPE svg PUBLIC "-//W3C//DTD SVG 1.1//EN"
 "http://www.w3.org/Graphics/SVG/1.1/DTD/svg11.dtd">
<!-- Generated by graphviz version 2.43.0 (0)
 -->
<!-- Title: HoTT_Algebra_Rings_CRing Pages: 1 -->
<svg width="2503pt" height="1256pt"
 viewBox="0.00 0.00 2503.00 1255.50" xmlns="http://www.w3.org/2000/svg" xmlns:xlink="http://www.w3.org/1999/xlink">
<g id="graph0" class="graph" transform="scale(1 1) rotate(0) translate(4 1251.5)">
<title>HoTT_Algebra_Rings_CRing</title>
<polygon fill="white" stroke="transparent" points="-4,4 -4,-1251.5 2499,-1251.5 2499,4 -4,4"/>
<g id="clust1" class="cluster">
<title>cluster_CRing</title>
<polygon fill="#ffffc3" stroke="black" points="8,-16.55 8,-1230.95 2487,-1230.95 2487,-16.55 8,-16.55"/>
<text text-anchor="middle" x="38" y="-1215.75" font-family="Times,serif" font-size="14.00">CRing</text>
</g>
<!-- CRing_cring_quotient_map -->
<g id="node1" class="node">
<title>CRing_cring_quotient_map</title>
<g id="a_node1"><a xlink:href="CRing.html#cring_quotient_map" xlink:title="cring_quotient_map">
<ellipse fill="#f070d1" stroke="black" cx="228" cy="-599.55" rx="102.87" ry="18"/>
<ellipse fill="none" stroke="black" cx="228" cy="-599.55" rx="106.88" ry="22"/>
<ellipse fill="none" stroke="black" cx="228" cy="-599.55" rx="110.88" ry="26"/>
<text text-anchor="middle" x="228" y="-595.85" font-family="Times,serif" font-size="14.00">cring_quotient_map</text>
</a>
</g>
</g>
<!-- CRing_cring_quotient -->
<g id="node2" class="node">
<title>CRing_cring_quotient</title>
<g id="a_node2"><a xlink:href="CRing.html#cring_quotient" xlink:title="cring_quotient">
<ellipse fill="#f070d1" stroke="black" cx="244" cy="-417.55" rx="77.99" ry="18"/>
<text text-anchor="middle" x="244" y="-413.85" font-family="Times,serif" font-size="14.00">cring_quotient</text>
</a>
</g>
</g>
<!-- CRing_cring_quotient_map&#45;&gt;CRing_cring_quotient -->
<g id="edge1" class="edge">
<title>CRing_cring_quotient_map&#45;&gt;CRing_cring_quotient</title>
<path fill="none" stroke="black" d="M230.22,-573.52C233.2,-540.05 238.46,-480.91 241.55,-446.17"/>
<polygon fill="black" stroke="black" points="245.07,-446.08 242.47,-435.81 238.09,-445.46 245.07,-446.08"/>
</g>
<!-- CRing_isgraph_CRing -->
<g id="node8" class="node">
<title>CRing_isgraph_CRing</title>
<g id="a_node8"><a xlink:href="CRing.html#isgraph_CRing" xlink:title="isgraph_CRing">
<ellipse fill="#f070d1" stroke="black" cx="419" cy="-417.55" rx="78.79" ry="18"/>
<text text-anchor="middle" x="419" y="-413.85" font-family="Times,serif" font-size="14.00">isgraph_CRing</text>
</a>
</g>
</g>
<!-- CRing_cring_quotient_map&#45;&gt;CRing_isgraph_CRing -->
<g id="edge2" class="edge">
<title>CRing_cring_quotient_map&#45;&gt;CRing_isgraph_CRing</title>
<path fill="none" stroke="black" d="M254.16,-573.9C290.92,-539.26 357.41,-476.59 393.7,-442.39"/>
<polygon fill="black" stroke="black" points="396.51,-444.55 401.39,-435.14 391.71,-439.46 396.51,-444.55"/>
</g>
<!-- CRing_commutative_quotientring_mult -->
<g id="node3" class="node">
<title>CRing_commutative_quotientring_mult</title>
<g id="a_node3"><a xlink:href="CRing.html#commutative_quotientring_mult" xlink:title="commutative_quotientring_mult">
<ellipse fill="#f070d1" stroke="black" cx="985" cy="-235.55" rx="159.47" ry="18"/>
<text text-anchor="middle" x="985" y="-231.85" font-family="Times,serif" font-size="14.00">commutative_quotientring_mult</text>
</a>
</g>
</g>
<!-- CRing_cring_quotient&#45;&gt;CRing_commutative_quotientring_mult -->
<g id="edge3" class="edge">
<title>CRing_cring_quotient&#45;&gt;CRing_commutative_quotientring_mult</title>
<path fill="none" stroke="black" d="M289.94,-402.91C303.16,-399.11 317.62,-395.06 331,-391.55 537.41,-337.47 782.62,-281.56 905.9,-254.03"/>
<polygon fill="black" stroke="black" points="907,-257.37 916,-251.78 905.48,-250.54 907,-257.37"/>
</g>
<!-- CRing_Build_CRing -->
<g id="node34" class="node">
<title>CRing_Build_CRing</title>
<g id="a_node34"><a xlink:href="CRing.html#Build_CRing" xlink:title="Build_CRing">
<ellipse fill="#7faaff" stroke="black" cx="321" cy="-70.55" rx="67.69" ry="18"/>
<text text-anchor="middle" x="321" y="-66.85" font-family="Times,serif" font-size="14.00">Build_CRing</text>
</a>
</g>
</g>
<!-- CRing_cring_quotient&#45;&gt;CRing_Build_CRing -->
<g id="edge4" class="edge">
<title>CRing_cring_quotient&#45;&gt;CRing_Build_CRing</title>
<path fill="none" stroke="black" d="M229.03,-399.61C199.36,-363.87 138.51,-278.4 169,-209.55 192.35,-156.82 246.89,-115.62 283.88,-92.44"/>
<polygon fill="black" stroke="black" points="286.17,-95.14 292.88,-86.94 282.52,-89.17 286.17,-95.14"/>
</g>
<!-- CRing_CRing -->
<g id="node35" class="node">
<title>CRing_CRing</title>
<g id="a_node35"><a xlink:href="CRing.html#CRing" xlink:title="CRing">
<ellipse fill="#e2cdfa" stroke="black" cx="1102" cy="-70.55" rx="38.99" ry="18"/>
<text text-anchor="middle" x="1102" y="-66.85" font-family="Times,serif" font-size="14.00">CRing</text>
</a>
</g>
</g>
<!-- CRing_commutative_quotientring_mult&#45;&gt;CRing_CRing -->
<g id="edge5" class="edge">
<title>CRing_commutative_quotientring_mult&#45;&gt;CRing_CRing</title>
<path fill="none" stroke="black" d="M997.3,-217.41C1018.09,-188.45 1060.25,-129.72 1084.24,-96.29"/>
<polygon fill="black" stroke="black" points="1087.23,-98.14 1090.21,-87.97 1081.54,-94.05 1087.23,-98.14"/>
</g>
<!-- CRing_hasequiv_CRing -->
<g id="node4" class="node">
<title>CRing_hasequiv_CRing</title>
<g id="a_node4"><a xlink:href="CRing.html#hasequiv_CRing" xlink:title="hasequiv_CRing">
<ellipse fill="#f070d1" stroke="black" cx="524" cy="-930.55" rx="85.27" ry="18"/>
<ellipse fill="none" stroke="black" cx="524" cy="-930.55" rx="89.28" ry="22"/>
<ellipse fill="none" stroke="black" cx="524" cy="-930.55" rx="93.29" ry="26"/>
<text text-anchor="middle" x="524" y="-926.85" font-family="Times,serif" font-size="14.00">hasequiv_CRing</text>
</a>
</g>
</g>
<!-- CRing_is1cat_CRing -->
<g id="node5" class="node">
<title>CRing_is1cat_CRing</title>
<g id="a_node5"><a xlink:href="CRing.html#is1cat_CRing" xlink:title="is1cat_CRing">
<ellipse fill="#f070d1" stroke="black" cx="524" cy="-765.55" rx="71.49" ry="18"/>
<text text-anchor="middle" x="524" y="-761.85" font-family="Times,serif" font-size="14.00">is1cat_CRing</text>
</a>
</g>
</g>
<!-- CRing_hasequiv_CRing&#45;&gt;CRing_is1cat_CRing -->
<g id="edge6" class="edge">
<title>CRing_hasequiv_CRing&#45;&gt;CRing_is1cat_CRing</title>
<path fill="none" stroke="black" d="M524,-904.44C524,-874.56 524,-824.86 524,-793.99"/>
<polygon fill="black" stroke="black" points="527.5,-793.92 524,-783.92 520.5,-793.92 527.5,-793.92"/>
</g>
<!-- CRing_is2graph_CRing -->
<g id="node6" class="node">
<title>CRing_is2graph_CRing</title>
<g id="a_node6"><a xlink:href="CRing.html#is2graph_CRing" xlink:title="is2graph_CRing">
<ellipse fill="#f070d1" stroke="black" cx="614" cy="-599.55" rx="84.49" ry="18"/>
<text text-anchor="middle" x="614" y="-595.85" font-family="Times,serif" font-size="14.00">is2graph_CRing</text>
</a>
</g>
</g>
<!-- CRing_is1cat_CRing&#45;&gt;CRing_is2graph_CRing -->
<g id="edge7" class="edge">
<title>CRing_is1cat_CRing&#45;&gt;CRing_is2graph_CRing</title>
<path fill="none" stroke="black" d="M533.29,-747.62C549.06,-718.89 581.14,-660.43 599.75,-626.51"/>
<polygon fill="black" stroke="black" points="602.88,-628.09 604.62,-617.64 596.74,-624.72 602.88,-628.09"/>
</g>
<!-- CRing_is01cat_CRing -->
<g id="node7" class="node">
<title>CRing_is01cat_CRing</title>
<g id="a_node7"><a xlink:href="CRing.html#is01cat_CRing" xlink:title="is01cat_CRing">
<ellipse fill="#f070d1" stroke="black" cx="434" cy="-599.55" rx="77.19" ry="18"/>
<text text-anchor="middle" x="434" y="-595.85" font-family="Times,serif" font-size="14.00">is01cat_CRing</text>
</a>
</g>
</g>
<!-- CRing_is1cat_CRing&#45;&gt;CRing_is01cat_CRing -->
<g id="edge8" class="edge">
<title>CRing_is1cat_CRing&#45;&gt;CRing_is01cat_CRing</title>
<path fill="none" stroke="black" d="M514.71,-747.62C498.94,-718.89 466.86,-660.43 448.25,-626.51"/>
<polygon fill="black" stroke="black" points="451.26,-624.72 443.38,-617.64 445.12,-628.09 451.26,-624.72"/>
</g>
<!-- CRing_is2graph_CRing&#45;&gt;CRing_isgraph_CRing -->
<g id="edge9" class="edge">
<title>CRing_is2graph_CRing&#45;&gt;CRing_isgraph_CRing</title>
<path fill="none" stroke="black" d="M596,-581.94C561.18,-549.79 484.48,-478.99 444.45,-442.04"/>
<polygon fill="black" stroke="black" points="446.67,-439.33 436.95,-435.12 441.93,-444.48 446.67,-439.33"/>
</g>
<!-- CRing_is01cat_CRing&#45;&gt;CRing_isgraph_CRing -->
<g id="edge10" class="edge">
<title>CRing_is01cat_CRing&#45;&gt;CRing_isgraph_CRing</title>
<path fill="none" stroke="black" d="M432.56,-581.29C429.95,-549.98 424.42,-483.57 421.29,-445.98"/>
<polygon fill="black" stroke="black" points="424.75,-445.43 420.43,-435.76 417.78,-446.01 424.75,-445.43"/>
</g>
<!-- CRing_cring_ring -->
<g id="node29" class="node">
<title>CRing_cring_ring</title>
<g id="a_node29"><a xlink:href="CRing.html#cring_ring" xlink:title="cring_ring">
<ellipse fill="#f070d1" stroke="black" cx="1220" cy="-235.55" rx="57.69" ry="18"/>
<text text-anchor="middle" x="1220" y="-231.85" font-family="Times,serif" font-size="14.00">cring_ring</text>
</a>
</g>
</g>
<!-- CRing_isgraph_CRing&#45;&gt;CRing_cring_ring -->
<g id="edge11" class="edge">
<title>CRing_isgraph_CRing&#45;&gt;CRing_cring_ring</title>
<path fill="none" stroke="black" d="M464.95,-402.76C478.44,-398.91 493.26,-394.88 507,-391.55 791.63,-322.59 871.37,-341.88 1153,-261.55 1160.81,-259.32 1169,-256.6 1176.87,-253.78"/>
<polygon fill="black" stroke="black" points="1178.09,-257.07 1186.26,-250.33 1175.67,-250.5 1178.09,-257.07"/>
</g>
<!-- CRing_ideal_quotient_product_left -->
<g id="node9" class="node">
<title>CRing_ideal_quotient_product_left</title>
<g id="a_node9"><a xlink:href="CRing.html#ideal_quotient_product_left" xlink:title="ideal_quotient_product_left">
<ellipse fill="#f070d1" stroke="black" cx="2334" cy="-599.55" rx="137.27" ry="18"/>
<ellipse fill="none" stroke="black" cx="2334" cy="-599.55" rx="141.27" ry="22"/>
<ellipse fill="none" stroke="black" cx="2334" cy="-599.55" rx="145.28" ry="26"/>
<text text-anchor="middle" x="2334" y="-595.85" font-family="Times,serif" font-size="14.00">ideal_quotient_product_left</text>
</a>
</g>
</g>
<!-- CRing_ideal_quotient_subset_prod -->
<g id="node10" class="node">
<title>CRing_ideal_quotient_subset_prod</title>
<g id="a_node10"><a xlink:href="CRing.html#ideal_quotient_subset_prod" xlink:title="ideal_quotient_subset_prod">
<ellipse fill="#f070d1" stroke="black" cx="2341" cy="-417.55" rx="137.58" ry="18"/>
<text text-anchor="middle" x="2341" y="-413.85" font-family="Times,serif" font-size="14.00">ideal_quotient_subset_prod</text>
</a>
</g>
</g>
<!-- CRing_ideal_quotient_product_left&#45;&gt;CRing_ideal_quotient_subset_prod -->
<g id="edge12" class="edge">
<title>CRing_ideal_quotient_product_left&#45;&gt;CRing_ideal_quotient_subset_prod</title>
<path fill="none" stroke="black" d="M2334.97,-573.52C2336.28,-540.05 2338.58,-480.91 2339.93,-446.17"/>
<polygon fill="black" stroke="black" points="2343.44,-445.94 2340.33,-435.81 2336.44,-445.67 2343.44,-445.94"/>
</g>
<!-- CRing_rng_mult_comm -->
<g id="node22" class="node">
<title>CRing_rng_mult_comm</title>
<g id="a_node22"><a xlink:href="CRing.html#rng_mult_comm" xlink:title="rng_mult_comm">
<ellipse fill="#f070d1" stroke="black" cx="2077" cy="-235.55" rx="85.29" ry="18"/>
<text text-anchor="middle" x="2077" y="-231.85" font-family="Times,serif" font-size="14.00">rng_mult_comm</text>
</a>
</g>
</g>
<!-- CRing_ideal_quotient_subset_prod&#45;&gt;CRing_rng_mult_comm -->
<g id="edge13" class="edge">
<title>CRing_ideal_quotient_subset_prod&#45;&gt;CRing_rng_mult_comm</title>
<path fill="none" stroke="black" d="M2316.16,-399.62C2268.26,-366.95 2163.11,-295.26 2109.63,-258.8"/>
<polygon fill="black" stroke="black" points="2111.43,-255.79 2101.2,-253.05 2107.49,-261.57 2111.43,-255.79"/>
</g>
<!-- CRing_ideal_quotient_product -->
<g id="node11" class="node">
<title>CRing_ideal_quotient_product</title>
<g id="a_node11"><a xlink:href="CRing.html#ideal_quotient_product" xlink:title="ideal_quotient_product">
<ellipse fill="#f070d1" stroke="black" cx="641" cy="-417.55" rx="116.98" ry="18"/>
<ellipse fill="none" stroke="black" cx="641" cy="-417.55" rx="120.98" ry="22"/>
<ellipse fill="none" stroke="black" cx="641" cy="-417.55" rx="124.98" ry="26"/>
<text text-anchor="middle" x="641" y="-413.85" font-family="Times,serif" font-size="14.00">ideal_quotient_product</text>
</a>
</g>
</g>
<!-- CRing_ideal_quotient_product&#45;&gt;CRing_rng_mult_comm -->
<g id="edge14" class="edge">
<title>CRing_ideal_quotient_product&#45;&gt;CRing_rng_mult_comm</title>
<path fill="none" stroke="black" d="M729.14,-399.11C744.4,-396.37 760.13,-393.73 775,-391.55 1309.26,-313.09 1452.08,-360.12 1983,-261.55 1995.06,-259.31 2007.85,-256.33 2019.98,-253.21"/>
<polygon fill="black" stroke="black" points="2021.21,-256.5 2029.98,-250.56 2019.42,-249.73 2021.21,-256.5"/>
</g>
<!-- CRing_cring_negate -->
<g id="node24" class="node">
<title>CRing_cring_negate</title>
<g id="a_node24"><a xlink:href="CRing.html#cring_negate" xlink:title="cring_negate">
<ellipse fill="#f070d1" stroke="black" cx="1367" cy="-235.55" rx="70.69" ry="18"/>
<text text-anchor="middle" x="1367" y="-231.85" font-family="Times,serif" font-size="14.00">cring_negate</text>
</a>
</g>
</g>
<!-- CRing_ideal_quotient_product&#45;&gt;CRing_cring_negate -->
<g id="edge15" class="edge">
<title>CRing_ideal_quotient_product&#45;&gt;CRing_cring_negate</title>
<path fill="none" stroke="black" d="M725.09,-398.28C848.8,-370.96 1086.87,-316.76 1287,-261.55 1296.27,-258.99 1306.08,-256.09 1315.53,-253.19"/>
<polygon fill="black" stroke="black" points="1316.71,-256.49 1325.22,-250.19 1314.63,-249.81 1316.71,-256.49"/>
</g>
<!-- CRing_ideal_intersection_is_product -->
<g id="node12" class="node">
<title>CRing_ideal_intersection_is_product</title>
<g id="a_node12"><a xlink:href="CRing.html#ideal_intersection_is_product" xlink:title="ideal_intersection_is_product">
<ellipse fill="#f070d1" stroke="black" cx="1971" cy="-1112.55" rx="145.67" ry="18"/>
<ellipse fill="none" stroke="black" cx="1971" cy="-1112.55" rx="149.67" ry="22"/>
<ellipse fill="none" stroke="black" cx="1971" cy="-1112.55" rx="153.67" ry="26"/>
<text text-anchor="middle" x="1971" y="-1108.85" font-family="Times,serif" font-size="14.00">ideal_intersection_is_product</text>
</a>
</g>
</g>
<!-- CRing_ideal_intersection_subset_product -->
<g id="node13" class="node">
<title>CRing_ideal_intersection_subset_product</title>
<g id="a_node13"><a xlink:href="CRing.html#ideal_intersection_subset_product" xlink:title="ideal_intersection_subset_product">
<ellipse fill="#f070d1" stroke="black" cx="1971" cy="-930.55" rx="168.97" ry="18"/>
<text text-anchor="middle" x="1971" y="-926.85" font-family="Times,serif" font-size="14.00">ideal_intersection_subset_product</text>
</a>
</g>
</g>
<!-- CRing_ideal_intersection_is_product&#45;&gt;CRing_ideal_intersection_subset_product -->
<g id="edge16" class="edge">
<title>CRing_ideal_intersection_is_product&#45;&gt;CRing_ideal_intersection_subset_product</title>
<path fill="none" stroke="black" d="M1971,-1086.52C1971,-1053.05 1971,-993.91 1971,-959.17"/>
<polygon fill="black" stroke="black" points="1974.5,-958.81 1971,-948.81 1967.5,-958.81 1974.5,-958.81"/>
</g>
<!-- CRing_ideal_product_intersection_sum_subset_ -->
<g id="node14" class="node">
<title>CRing_ideal_product_intersection_sum_subset_</title>
<g id="a_node14"><a xlink:href="CRing.html#ideal_product_intersection_sum_subset'" xlink:title="ideal_product_intersection_sum_subset&#39;">
<ellipse fill="#f070d1" stroke="black" cx="1971" cy="-765.55" rx="194.97" ry="18"/>
<text text-anchor="middle" x="1971" y="-761.85" font-family="Times,serif" font-size="14.00">ideal_product_intersection_sum_subset&#39;</text>
</a>
</g>
</g>
<!-- CRing_ideal_intersection_subset_product&#45;&gt;CRing_ideal_product_intersection_sum_subset_ -->
<g id="edge17" class="edge">
<title>CRing_ideal_intersection_subset_product&#45;&gt;CRing_ideal_product_intersection_sum_subset_</title>
<path fill="none" stroke="black" d="M1971,-912.41C1971,-884.24 1971,-827.89 1971,-794.07"/>
<polygon fill="black" stroke="black" points="1974.5,-793.95 1971,-783.95 1967.5,-793.95 1974.5,-793.95"/>
</g>
<!-- CRing_ideal_product_comm -->
<g id="node15" class="node">
<title>CRing_ideal_product_comm</title>
<g id="a_node15"><a xlink:href="CRing.html#ideal_product_comm" xlink:title="ideal_product_comm">
<ellipse fill="#f070d1" stroke="black" cx="1971" cy="-599.55" rx="105.88" ry="18"/>
<text text-anchor="middle" x="1971" y="-595.85" font-family="Times,serif" font-size="14.00">ideal_product_comm</text>
</a>
</g>
</g>
<!-- CRing_ideal_product_intersection_sum_subset_&#45;&gt;CRing_ideal_product_comm -->
<g id="edge18" class="edge">
<title>CRing_ideal_product_intersection_sum_subset_&#45;&gt;CRing_ideal_product_comm</title>
<path fill="none" stroke="black" d="M1971,-747.31C1971,-718.81 1971,-661.67 1971,-627.71"/>
<polygon fill="black" stroke="black" points="1974.5,-627.56 1971,-617.56 1967.5,-627.56 1974.5,-627.56"/>
</g>
<!-- CRing_ideal_product_subset_product_commutative -->
<g id="node16" class="node">
<title>CRing_ideal_product_subset_product_commutative</title>
<g id="a_node16"><a xlink:href="CRing.html#ideal_product_subset_product_commutative" xlink:title="ideal_product_subset_product_commutative">
<ellipse fill="#f070d1" stroke="black" cx="1971" cy="-417.55" rx="213.66" ry="18"/>
<text text-anchor="middle" x="1971" y="-413.85" font-family="Times,serif" font-size="14.00">ideal_product_subset_product_commutative</text>
</a>
</g>
</g>
<!-- CRing_ideal_product_comm&#45;&gt;CRing_ideal_product_subset_product_commutative -->
<g id="edge19" class="edge">
<title>CRing_ideal_product_comm&#45;&gt;CRing_ideal_product_subset_product_commutative</title>
<path fill="none" stroke="black" d="M1971,-581.29C1971,-549.98 1971,-483.57 1971,-445.98"/>
<polygon fill="black" stroke="black" points="1974.5,-445.76 1971,-435.76 1967.5,-445.76 1974.5,-445.76"/>
</g>
<!-- CRing_ideal_product_subset_product_commutative&#45;&gt;CRing_rng_mult_comm -->
<g id="edge20" class="edge">
<title>CRing_ideal_product_subset_product_commutative&#45;&gt;CRing_rng_mult_comm</title>
<path fill="none" stroke="black" d="M1981.16,-399.29C1999.89,-367.49 2039.92,-299.51 2061.86,-262.26"/>
<polygon fill="black" stroke="black" points="2064.96,-263.89 2067.02,-253.49 2058.93,-260.34 2064.96,-263.89"/>
</g>
<!-- CRing_isinvertible_cring -->
<g id="node17" class="node">
<title>CRing_isinvertible_cring</title>
<g id="a_node17"><a xlink:href="CRing.html#isinvertible_cring" xlink:title="isinvertible_cring">
<ellipse fill="#f070d1" stroke="black" cx="1640" cy="-417.55" rx="91.77" ry="18"/>
<ellipse fill="none" stroke="black" cx="1640" cy="-417.55" rx="95.78" ry="22"/>
<ellipse fill="none" stroke="black" cx="1640" cy="-417.55" rx="99.78" ry="26"/>
<text text-anchor="middle" x="1640" y="-413.85" font-family="Times,serif" font-size="14.00">isinvertible_cring</text>
</a>
</g>
</g>
<!-- CRing_isinvertible_cring&#45;&gt;CRing_rng_mult_comm -->
<g id="edge21" class="edge">
<title>CRing_isinvertible_cring&#45;&gt;CRing_rng_mult_comm</title>
<path fill="none" stroke="black" d="M1691.85,-395.2C1777.66,-359.85 1947.92,-289.72 2030.25,-255.81"/>
<polygon fill="black" stroke="black" points="2031.93,-258.9 2039.84,-251.85 2029.27,-252.43 2031.93,-258.9"/>
</g>
<!-- CRing_rng_mult_move_right_assoc -->
<g id="node18" class="node">
<title>CRing_rng_mult_move_right_assoc</title>
<g id="a_node18"><a xlink:href="CRing.html#rng_mult_move_right_assoc" xlink:title="rng_mult_move_right_assoc">
<ellipse fill="#f070d1" stroke="black" cx="1390" cy="-599.55" rx="139.17" ry="18"/>
<ellipse fill="none" stroke="black" cx="1390" cy="-599.55" rx="143.17" ry="22"/>
<ellipse fill="none" stroke="black" cx="1390" cy="-599.55" rx="147.18" ry="26"/>
<text text-anchor="middle" x="1390" y="-595.85" font-family="Times,serif" font-size="14.00">rng_mult_move_right_assoc</text>
</a>
</g>
</g>
<!-- CRing_rng_mult_move_left_assoc -->
<g id="node19" class="node">
<title>CRing_rng_mult_move_left_assoc</title>
<g id="a_node19"><a xlink:href="CRing.html#rng_mult_move_left_assoc" xlink:title="rng_mult_move_left_assoc">
<ellipse fill="#f070d1" stroke="black" cx="1390" cy="-417.55" rx="131.88" ry="18"/>
<text text-anchor="middle" x="1390" y="-413.85" font-family="Times,serif" font-size="14.00">rng_mult_move_left_assoc</text>
</a>
</g>
</g>
<!-- CRing_rng_mult_move_right_assoc&#45;&gt;CRing_rng_mult_move_left_assoc -->
<g id="edge22" class="edge">
<title>CRing_rng_mult_move_right_assoc&#45;&gt;CRing_rng_mult_move_left_assoc</title>
<path fill="none" stroke="black" d="M1390,-573.52C1390,-540.05 1390,-480.91 1390,-446.17"/>
<polygon fill="black" stroke="black" points="1393.5,-445.81 1390,-435.81 1386.5,-445.81 1393.5,-445.81"/>
</g>
<!-- CRing_rng_mult_move_left_assoc&#45;&gt;CRing_rng_mult_comm -->
<g id="edge23" class="edge">
<title>CRing_rng_mult_move_left_assoc&#45;&gt;CRing_rng_mult_comm</title>
<path fill="none" stroke="black" d="M1448.52,-401.34C1554.94,-373.67 1787.24,-313.17 1983,-261.55 1993.86,-258.69 2005.42,-255.62 2016.59,-252.66"/>
<polygon fill="black" stroke="black" points="2017.51,-256.04 2026.27,-250.08 2015.71,-249.27 2017.51,-256.04"/>
</g>
<!-- CRing_rng_mult_permute_2_3 -->
<g id="node20" class="node">
<title>CRing_rng_mult_permute_2_3</title>
<g id="a_node20"><a xlink:href="CRing.html#rng_mult_permute_2_3" xlink:title="rng_mult_permute_2_3">
<ellipse fill="#f070d1" stroke="black" cx="1115" cy="-417.55" rx="116.98" ry="18"/>
<ellipse fill="none" stroke="black" cx="1115" cy="-417.55" rx="120.98" ry="22"/>
<ellipse fill="none" stroke="black" cx="1115" cy="-417.55" rx="124.98" ry="26"/>
<text text-anchor="middle" x="1115" y="-413.85" font-family="Times,serif" font-size="14.00">rng_mult_permute_2_3</text>
</a>
</g>
</g>
<!-- CRing_rng_mult_permute_2_3&#45;&gt;CRing_rng_mult_comm -->
<g id="edge24" class="edge">
<title>CRing_rng_mult_permute_2_3&#45;&gt;CRing_rng_mult_comm</title>
<path fill="none" stroke="black" d="M1205.44,-399.56C1220,-396.86 1234.91,-394.11 1249,-391.55 1574.95,-332.28 1659.51,-333.08 1983,-261.55 1994.35,-259.04 2006.39,-256.07 2017.93,-253.08"/>
<polygon fill="black" stroke="black" points="2019.14,-256.38 2027.92,-250.44 2017.36,-249.61 2019.14,-256.38"/>
</g>
<!-- CRing_rng_power_mult -->
<g id="node21" class="node">
<title>CRing_rng_power_mult</title>
<g id="a_node21"><a xlink:href="CRing.html#rng_power_mult" xlink:title="rng_power_mult">
<ellipse fill="#f070d1" stroke="black" cx="878" cy="-417.55" rx="85.6" ry="18"/>
<ellipse fill="none" stroke="black" cx="878" cy="-417.55" rx="89.59" ry="22"/>
<ellipse fill="none" stroke="black" cx="878" cy="-417.55" rx="93.59" ry="26"/>
<text text-anchor="middle" x="878" y="-413.85" font-family="Times,serif" font-size="14.00">rng_power_mult</text>
</a>
</g>
</g>
<!-- CRing_rng_power_mult&#45;&gt;CRing_rng_mult_comm -->
<g id="edge25" class="edge">
<title>CRing_rng_power_mult&#45;&gt;CRing_rng_mult_comm</title>
<path fill="none" stroke="black" d="M944.81,-399.21C956.81,-396.42 969.24,-393.73 981,-391.55 1422.52,-309.58 1542.4,-348.34 1983,-261.55 1994.91,-259.2 2007.54,-256.21 2019.55,-253.1"/>
<polygon fill="black" stroke="black" points="2020.69,-256.42 2029.46,-250.49 2018.9,-249.66 2020.69,-256.42"/>
</g>
<!-- CRing_rng_mult_comm&#45;&gt;CRing_CRing -->
<g id="edge26" class="edge">
<title>CRing_rng_mult_comm&#45;&gt;CRing_CRing</title>
<path fill="none" stroke="black" d="M2028.44,-220.6C2013.9,-216.7 1997.87,-212.68 1983,-209.55 1667.73,-143.12 1282.82,-93.5 1149.85,-77.26"/>
<polygon fill="black" stroke="black" points="1149.96,-73.74 1139.61,-76.01 1149.11,-80.69 1149.96,-73.74"/>
</g>
<!-- CRing_Build_CRing_ -->
<g id="node23" class="node">
<title>CRing_Build_CRing_</title>
<g id="a_node23"><a xlink:href="CRing.html#Build_CRing'" xlink:title="Build_CRing&#39;">
<ellipse fill="#f070d1" stroke="black" cx="730" cy="-235.55" rx="70.37" ry="18"/>
<ellipse fill="none" stroke="black" cx="730" cy="-235.55" rx="74.38" ry="22"/>
<ellipse fill="none" stroke="black" cx="730" cy="-235.55" rx="78.39" ry="26"/>
<text text-anchor="middle" x="730" y="-231.85" font-family="Times,serif" font-size="14.00">Build_CRing&#39;</text>
</a>
</g>
</g>
<!-- CRing_Build_CRing_&#45;&gt;CRing_Build_CRing -->
<g id="edge27" class="edge">
<title>CRing_Build_CRing_&#45;&gt;CRing_Build_CRing</title>
<path fill="none" stroke="black" d="M681.07,-215.05C601.16,-183.2 443.79,-120.49 366.3,-89.6"/>
<polygon fill="black" stroke="black" points="367.39,-86.27 356.81,-85.82 364.8,-92.77 367.39,-86.27"/>
</g>
<!-- CRing_Build_CRing_&#45;&gt;CRing_CRing -->
<g id="edge28" class="edge">
<title>CRing_Build_CRing_&#45;&gt;CRing_CRing</title>
<path fill="none" stroke="black" d="M775.99,-214.4C850.66,-181.68 996.78,-117.66 1065.12,-87.71"/>
<polygon fill="black" stroke="black" points="1066.86,-90.77 1074.62,-83.55 1064.05,-84.36 1066.86,-90.77"/>
</g>
<!-- CRing_cring_negate&#45;&gt;CRing_CRing -->
<g id="edge29" class="edge">
<title>CRing_cring_negate&#45;&gt;CRing_CRing</title>
<path fill="none" stroke="black" d="M1341.11,-218.62C1292.11,-188.49 1186.01,-123.22 1133.19,-90.73"/>
<polygon fill="black" stroke="black" points="1134.93,-87.69 1124.57,-85.44 1131.26,-93.66 1134.93,-87.69"/>
</g>
<!-- CRing_cring_zero -->
<g id="node25" class="node">
<title>CRing_cring_zero</title>
<g id="a_node25"><a xlink:href="CRing.html#cring_zero" xlink:title="cring_zero">
<ellipse fill="#f070d1" stroke="black" cx="1907" cy="-235.55" rx="59.27" ry="18"/>
<ellipse fill="none" stroke="black" cx="1907" cy="-235.55" rx="63.28" ry="22"/>
<ellipse fill="none" stroke="black" cx="1907" cy="-235.55" rx="67.29" ry="26"/>
<text text-anchor="middle" x="1907" y="-231.85" font-family="Times,serif" font-size="14.00">cring_zero</text>
</a>
</g>
</g>
<!-- CRing_cring_zero&#45;&gt;CRing_CRing -->
<g id="edge30" class="edge">
<title>CRing_cring_zero&#45;&gt;CRing_CRing</title>
<path fill="none" stroke="black" d="M1857.98,-217.61C1848.74,-214.71 1839.12,-211.89 1830,-209.55 1575.96,-144.51 1264.9,-95.55 1148.7,-78.3"/>
<polygon fill="black" stroke="black" points="1149.12,-74.83 1138.72,-76.83 1148.1,-81.75 1149.12,-74.83"/>
</g>
<!-- CRing_cring_plus -->
<g id="node26" class="node">
<title>CRing_cring_plus</title>
<g id="a_node26"><a xlink:href="CRing.html#cring_plus" xlink:title="cring_plus">
<ellipse fill="#f070d1" stroke="black" cx="1755" cy="-235.55" rx="58.49" ry="18"/>
<ellipse fill="none" stroke="black" cx="1755" cy="-235.55" rx="62.49" ry="22"/>
<ellipse fill="none" stroke="black" cx="1755" cy="-235.55" rx="66.49" ry="26"/>
<text text-anchor="middle" x="1755" y="-231.85" font-family="Times,serif" font-size="14.00">cring_plus</text>
</a>
</g>
</g>
<!-- CRing_cring_plus&#45;&gt;CRing_CRing -->
<g id="edge31" class="edge">
<title>CRing_cring_plus&#45;&gt;CRing_CRing</title>
<path fill="none" stroke="black" d="M1706.12,-217.81C1697.14,-214.92 1687.82,-212.05 1679,-209.55 1482.32,-153.79 1243.79,-101.54 1146.52,-80.88"/>
<polygon fill="black" stroke="black" points="1147.24,-77.45 1136.73,-78.8 1145.79,-84.3 1147.24,-77.45"/>
</g>
<!-- CRing_issig_CRing -->
<g id="node27" class="node">
<title>CRing_issig_CRing</title>
<g id="a_node27"><a xlink:href="CRing.html#issig_CRing" xlink:title="issig_CRing">
<ellipse fill="#f070d1" stroke="black" cx="561" cy="-235.55" rx="64.99" ry="18"/>
<ellipse fill="none" stroke="black" cx="561" cy="-235.55" rx="68.99" ry="22"/>
<ellipse fill="none" stroke="black" cx="561" cy="-235.55" rx="72.99" ry="26"/>
<text text-anchor="middle" x="561" y="-231.85" font-family="Times,serif" font-size="14.00">issig_CRing</text>
</a>
</g>
</g>
<!-- CRing_issig_CRing&#45;&gt;CRing_Build_CRing -->
<g id="edge32" class="edge">
<title>CRing_issig_CRing&#45;&gt;CRing_Build_CRing</title>
<path fill="none" stroke="black" d="M528.13,-212.23C481.94,-180.86 398.38,-124.1 352.78,-93.13"/>
<polygon fill="black" stroke="black" points="354.7,-90.2 344.46,-87.48 350.76,-96 354.7,-90.2"/>
</g>
<!-- CRing_issig_CRing&#45;&gt;CRing_CRing -->
<g id="edge33" class="edge">
<title>CRing_issig_CRing&#45;&gt;CRing_CRing</title>
<path fill="none" stroke="black" d="M615.24,-217.98C624.5,-215.16 634.03,-212.27 643,-209.55 796.89,-162.96 979.98,-108.08 1060.51,-83.97"/>
<polygon fill="black" stroke="black" points="1061.69,-87.27 1070.27,-81.04 1059.68,-80.56 1061.69,-87.27"/>
</g>
<!-- CRing_cring_commutative -->
<g id="node28" class="node">
<title>CRing_cring_commutative</title>
<g id="a_node28"><a xlink:href="CRing.html#cring_commutative" xlink:title="cring_commutative">
<ellipse fill="#f070d1" stroke="black" cx="1563" cy="-235.55" rx="99.39" ry="18"/>
<ellipse fill="none" stroke="black" cx="1563" cy="-235.55" rx="103.38" ry="22"/>
<ellipse fill="none" stroke="black" cx="1563" cy="-235.55" rx="107.38" ry="26"/>
<text text-anchor="middle" x="1563" y="-231.85" font-family="Times,serif" font-size="14.00">cring_commutative</text>
</a>
</g>
</g>
<!-- CRing_cring_commutative&#45;&gt;CRing_CRing -->
<g id="edge34" class="edge">
<title>CRing_cring_commutative&#45;&gt;CRing_CRing</title>
<path fill="none" stroke="black" d="M1504.15,-213.74C1408.82,-180.04 1223.15,-114.39 1141.8,-85.62"/>
<polygon fill="black" stroke="black" points="1142.54,-82.17 1131.95,-82.14 1140.21,-88.77 1142.54,-82.17"/>
</g>
<!-- CRing_cring_ring&#45;&gt;CRing_CRing -->
<g id="edge35" class="edge">
<title>CRing_cring_ring&#45;&gt;CRing_CRing</title>
<path fill="none" stroke="black" d="M1207.82,-217.72C1186.95,-188.9 1144.29,-129.96 1119.99,-96.4"/>
<polygon fill="black" stroke="black" points="1122.64,-94.09 1113.94,-88.05 1116.97,-98.2 1122.64,-94.09"/>
</g>
<!-- CRing_CRing_sind -->
<g id="node30" class="node">
<title>CRing_CRing_sind</title>
<g id="a_node30"><a xlink:href="CRing.html#CRing_sind" xlink:title="CRing_sind">
<ellipse fill="#f070d1" stroke="black" cx="399" cy="-235.55" rx="63.08" ry="18"/>
<ellipse fill="none" stroke="black" cx="399" cy="-235.55" rx="67.09" ry="22"/>
<ellipse fill="none" stroke="black" cx="399" cy="-235.55" rx="71.09" ry="26"/>
<text text-anchor="middle" x="399" y="-231.85" font-family="Times,serif" font-size="14.00">CRing_sind</text>
</a>
</g>
</g>
<!-- CRing_CRing_sind&#45;&gt;CRing_Build_CRing -->
<g id="edge36" class="edge">
<title>CRing_CRing_sind&#45;&gt;CRing_Build_CRing</title>
<path fill="none" stroke="black" d="M387.15,-209.79C372.69,-179.58 348.35,-128.7 333.57,-97.82"/>
<polygon fill="black" stroke="black" points="336.6,-96.05 329.13,-88.54 330.29,-99.07 336.6,-96.05"/>
</g>
<!-- CRing_CRing_sind&#45;&gt;CRing_CRing -->
<g id="edge37" class="edge">
<title>CRing_CRing_sind&#45;&gt;CRing_CRing</title>
<path fill="none" stroke="black" d="M450.88,-217.63C460.2,-214.8 469.86,-211.99 479,-209.55 693.23,-152.46 953.24,-100.3 1056.54,-80.24"/>
<polygon fill="black" stroke="black" points="1057.47,-83.63 1066.62,-78.29 1056.14,-76.76 1057.47,-83.63"/>
</g>
<!-- CRing_CRing_rec -->
<g id="node31" class="node">
<title>CRing_CRing_rec</title>
<g id="a_node31"><a xlink:href="CRing.html#CRing_rec" xlink:title="CRing_rec">
<ellipse fill="#f070d1" stroke="black" cx="82" cy="-417.55" rx="57.71" ry="18"/>
<ellipse fill="none" stroke="black" cx="82" cy="-417.55" rx="61.7" ry="22"/>
<ellipse fill="none" stroke="black" cx="82" cy="-417.55" rx="65.69" ry="26"/>
<text text-anchor="middle" x="82" y="-413.85" font-family="Times,serif" font-size="14.00">CRing_rec</text>
</a>
</g>
</g>
<!-- CRing_CRing_rect -->
<g id="node33" class="node">
<title>CRing_CRing_rect</title>
<g id="a_node33"><a xlink:href="CRing.html#CRing_rect" xlink:title="CRing_rect">
<ellipse fill="#f070d1" stroke="black" cx="78" cy="-235.55" rx="61.99" ry="18"/>
<text text-anchor="middle" x="78" y="-231.85" font-family="Times,serif" font-size="14.00">CRing_rect</text>
</a>
</g>
</g>
<!-- CRing_CRing_rec&#45;&gt;CRing_CRing_rect -->
<g id="edge38" class="edge">
<title>CRing_CRing_rec&#45;&gt;CRing_CRing_rect</title>
<path fill="none" stroke="black" d="M81.44,-391.52C80.7,-358.05 79.39,-298.91 78.61,-264.17"/>
<polygon fill="black" stroke="black" points="82.1,-263.73 78.38,-253.81 75.11,-263.89 82.1,-263.73"/>
</g>
<!-- CRing_CRing_ind -->
<g id="node32" class="node">
<title>CRing_CRing_ind</title>
<g id="a_node32"><a xlink:href="CRing.html#CRing_ind" xlink:title="CRing_ind">
<ellipse fill="#7fffd4" stroke="black" cx="244" cy="-235.55" rx="57.71" ry="18"/>
<ellipse fill="none" stroke="black" cx="244" cy="-235.55" rx="61.7" ry="22"/>
<ellipse fill="none" stroke="black" cx="244" cy="-235.55" rx="65.69" ry="26"/>
<text text-anchor="middle" x="244" y="-231.85" font-family="Times,serif" font-size="14.00">CRing_ind</text>
</a>
</g>
</g>
<!-- CRing_CRing_ind&#45;&gt;CRing_Build_CRing -->
<g id="edge39" class="edge">
<title>CRing_CRing_ind&#45;&gt;CRing_Build_CRing</title>
<path fill="none" stroke="black" d="M255.69,-209.79C269.97,-179.58 294,-128.7 308.59,-97.82"/>
<polygon fill="black" stroke="black" points="311.87,-99.08 312.97,-88.54 305.54,-96.09 311.87,-99.08"/>
</g>
<!-- CRing_CRing_ind&#45;&gt;CRing_CRing -->
<g id="edge40" class="edge">
<title>CRing_CRing_ind&#45;&gt;CRing_CRing</title>
<path fill="none" stroke="black" d="M291.7,-217.48C300.7,-214.6 310.09,-211.81 319,-209.55 593.99,-139.89 932.07,-93.14 1054.73,-77.41"/>
<polygon fill="black" stroke="black" points="1055.42,-80.85 1064.9,-76.11 1054.54,-73.9 1055.42,-80.85"/>
</g>
<!-- CRing_CRing_rect&#45;&gt;CRing_Build_CRing -->
<g id="edge41" class="edge">
<title>CRing_CRing_rect&#45;&gt;CRing_Build_CRing</title>
<path fill="none" stroke="black" d="M101.74,-218.62C145.57,-189.23 239.2,-126.42 288.74,-93.19"/>
<polygon fill="black" stroke="black" points="290.81,-96.02 297.16,-87.54 286.91,-90.21 290.81,-96.02"/>
</g>
<!-- CRing_CRing_rect&#45;&gt;CRing_CRing -->
<g id="edge42" class="edge">
<title>CRing_CRing_rect&#45;&gt;CRing_CRing</title>
<path fill="none" stroke="black" d="M119.42,-222.03C134.88,-217.66 152.65,-212.99 169,-209.55 504.75,-138.87 915.95,-91.44 1054.14,-76.55"/>
<polygon fill="black" stroke="black" points="1054.81,-80 1064.38,-75.46 1054.06,-73.04 1054.81,-80"/>
</g>
</g>
</svg>
