<?xml version="1.0" encoding="UTF-8" standalone="no"?>
<!DOCTYPE svg PUBLIC "-//W3C//DTD SVG 1.1//EN"
 "http://www.w3.org/Graphics/SVG/1.1/DTD/svg11.dtd">
<!-- Generated by graphviz version 2.43.0 (0)
 -->
<!-- Title: HoTT_Equiv_BiInv Pages: 1 -->
<svg width="2393pt" height="1201pt"
 viewBox="0.00 0.00 2393.00 1200.50" xmlns="http://www.w3.org/2000/svg" xmlns:xlink="http://www.w3.org/1999/xlink">
<g id="graph0" class="graph" transform="scale(1 1) rotate(0) translate(4 1196.5)">
<title>HoTT_Equiv_BiInv</title>
<polygon fill="white" stroke="transparent" points="-4,4 -4,-1196.5 2389,-1196.5 2389,4 -4,4"/>
<g id="clust1" class="cluster">
<title>cluster_BiInv</title>
<polygon fill="#ffffc3" stroke="black" points="8,-15.41 8,-1177.09 2377,-1177.09 2377,-15.41 8,-15.41"/>
<text text-anchor="middle" x="35" y="-1161.89" font-family="Times,serif" font-size="14.00">BiInv</text>
</g>
<!-- BiInv_biinv_compat_pes -->
<g id="node1" class="node">
<title>BiInv_biinv_compat_pes</title>
<g id="a_node1"><a xlink:href="BiInv.html#biinv_compat_pes" xlink:title="biinv_compat_pes">
<ellipse fill="#f070d1" stroke="black" cx="1311" cy="-897.41" rx="92.89" ry="18"/>
<ellipse fill="none" stroke="black" cx="1311" cy="-897.41" rx="96.89" ry="22"/>
<ellipse fill="none" stroke="black" cx="1311" cy="-897.41" rx="100.88" ry="26"/>
<text text-anchor="middle" x="1311" y="-893.71" font-family="Times,serif" font-size="14.00">biinv_compat_pes</text>
</a>
</g>
</g>
<!-- BiInv_biinv_compat_ps -->
<g id="node3" class="node">
<title>BiInv_biinv_compat_ps</title>
<g id="a_node3"><a xlink:href="BiInv.html#biinv_compat_ps" xlink:title="biinv_compat_ps">
<ellipse fill="#f070d1" stroke="black" cx="1311" cy="-728.41" rx="87.18" ry="18"/>
<text text-anchor="middle" x="1311" y="-724.71" font-family="Times,serif" font-size="14.00">biinv_compat_ps</text>
</a>
</g>
</g>
<!-- BiInv_biinv_compat_pes&#45;&gt;BiInv_biinv_compat_ps -->
<g id="edge1" class="edge">
<title>BiInv_biinv_compat_pes&#45;&gt;BiInv_biinv_compat_ps</title>
<path fill="none" stroke="black" d="M1311,-871.41C1311,-840.64 1311,-788.58 1311,-756.77"/>
<polygon fill="black" stroke="black" points="1314.5,-756.43 1311,-746.43 1307.5,-756.43 1314.5,-756.43"/>
</g>
<!-- BiInv_biinv_compat_pre -->
<g id="node2" class="node">
<title>BiInv_biinv_compat_pre</title>
<g id="a_node2"><a xlink:href="BiInv.html#biinv_compat_pre" xlink:title="biinv_compat_pre">
<ellipse fill="#f070d1" stroke="black" cx="1665" cy="-897.41" rx="92.1" ry="18"/>
<ellipse fill="none" stroke="black" cx="1665" cy="-897.41" rx="96.09" ry="22"/>
<ellipse fill="none" stroke="black" cx="1665" cy="-897.41" rx="100.08" ry="26"/>
<text text-anchor="middle" x="1665" y="-893.71" font-family="Times,serif" font-size="14.00">biinv_compat_pre</text>
</a>
</g>
</g>
<!-- BiInv_biinv_compat_pr -->
<g id="node4" class="node">
<title>BiInv_biinv_compat_pr</title>
<g id="a_node4"><a xlink:href="BiInv.html#biinv_compat_pr" xlink:title="biinv_compat_pr">
<ellipse fill="#f070d1" stroke="black" cx="1665" cy="-728.41" rx="87.18" ry="18"/>
<text text-anchor="middle" x="1665" y="-724.71" font-family="Times,serif" font-size="14.00">biinv_compat_pr</text>
</a>
</g>
</g>
<!-- BiInv_biinv_compat_pre&#45;&gt;BiInv_biinv_compat_pr -->
<g id="edge2" class="edge">
<title>BiInv_biinv_compat_pre&#45;&gt;BiInv_biinv_compat_pr</title>
<path fill="none" stroke="black" d="M1665,-871.41C1665,-840.64 1665,-788.58 1665,-756.77"/>
<polygon fill="black" stroke="black" points="1668.5,-756.43 1665,-746.43 1661.5,-756.43 1668.5,-756.43"/>
</g>
<!-- BiInv_isequiv_isbiinv -->
<g id="node17" class="node">
<title>BiInv_isequiv_isbiinv</title>
<g id="a_node17"><a xlink:href="BiInv.html#isequiv_isbiinv" xlink:title="isequiv_isbiinv">
<ellipse fill="#f070d1" stroke="black" cx="1576" cy="-558.41" rx="79.09" ry="18"/>
<text text-anchor="middle" x="1576" y="-554.71" font-family="Times,serif" font-size="14.00">isequiv_isbiinv</text>
</a>
</g>
</g>
<!-- BiInv_biinv_compat_ps&#45;&gt;BiInv_isequiv_isbiinv -->
<g id="edge3" class="edge">
<title>BiInv_biinv_compat_ps&#45;&gt;BiInv_isequiv_isbiinv</title>
<path fill="none" stroke="black" d="M1336.89,-711C1385.01,-680.5 1488.17,-615.09 1541.9,-581.03"/>
<polygon fill="black" stroke="black" points="1543.82,-583.96 1550.39,-575.65 1540.07,-578.04 1543.82,-583.96"/>
</g>
<!-- BiInv_BiInv -->
<g id="node29" class="node">
<title>BiInv_BiInv</title>
<g id="a_node29"><a xlink:href="BiInv.html#BiInv" xlink:title="BiInv">
<ellipse fill="#e2cdfa" stroke="black" cx="904" cy="-558.41" rx="35.19" ry="18"/>
<text text-anchor="middle" x="904" y="-554.71" font-family="Times,serif" font-size="14.00">BiInv</text>
</a>
</g>
</g>
<!-- BiInv_biinv_compat_ps&#45;&gt;BiInv_BiInv -->
<g id="edge4" class="edge">
<title>BiInv_biinv_compat_ps&#45;&gt;BiInv_BiInv</title>
<path fill="none" stroke="black" d="M1273.8,-712.06C1195.89,-679.9 1016.45,-605.83 939.79,-574.18"/>
<polygon fill="black" stroke="black" points="941.11,-570.94 930.53,-570.36 938.44,-577.41 941.11,-570.94"/>
</g>
<!-- BiInv_biinv_compat_pr&#45;&gt;BiInv_isequiv_isbiinv -->
<g id="edge5" class="edge">
<title>BiInv_biinv_compat_pr&#45;&gt;BiInv_isequiv_isbiinv</title>
<path fill="none" stroke="black" d="M1655.98,-710.38C1640.38,-680.95 1608.3,-620.39 1589.86,-585.58"/>
<polygon fill="black" stroke="black" points="1592.82,-583.69 1585.05,-576.49 1586.64,-586.97 1592.82,-583.69"/>
</g>
<!-- BiInv_biinv_compat_pr&#45;&gt;BiInv_BiInv -->
<g id="edge6" class="edge">
<title>BiInv_biinv_compat_pr&#45;&gt;BiInv_BiInv</title>
<path fill="none" stroke="black" d="M1614.28,-713.77C1599.7,-709.96 1583.75,-705.92 1569,-702.41 1334.67,-646.73 1051.62,-589 946.22,-567.84"/>
<polygon fill="black" stroke="black" points="946.78,-564.38 936.29,-565.84 945.41,-571.24 946.78,-564.38"/>
</g>
<!-- BiInv_biinv_idmap -->
<g id="node5" class="node">
<title>BiInv_biinv_idmap</title>
<g id="a_node5"><a xlink:href="BiInv.html#biinv_idmap" xlink:title="biinv_idmap">
<ellipse fill="#f070d1" stroke="black" cx="91" cy="-728.41" rx="66.89" ry="18"/>
<ellipse fill="none" stroke="black" cx="91" cy="-728.41" rx="70.89" ry="22"/>
<ellipse fill="none" stroke="black" cx="91" cy="-728.41" rx="74.89" ry="26"/>
<text text-anchor="middle" x="91" y="-724.71" font-family="Times,serif" font-size="14.00">biinv_idmap</text>
</a>
</g>
</g>
<!-- BiInv_Build_BiInv -->
<g id="node28" class="node">
<title>BiInv_Build_BiInv</title>
<g id="a_node28"><a xlink:href="BiInv.html#Build_BiInv" xlink:title="Build_BiInv">
<ellipse fill="#7faaff" stroke="black" cx="555" cy="-558.41" rx="63.89" ry="18"/>
<text text-anchor="middle" x="555" y="-554.71" font-family="Times,serif" font-size="14.00">Build_BiInv</text>
</a>
</g>
</g>
<!-- BiInv_biinv_idmap&#45;&gt;BiInv_Build_BiInv -->
<g id="edge7" class="edge">
<title>BiInv_biinv_idmap&#45;&gt;BiInv_Build_BiInv</title>
<path fill="none" stroke="black" d="M141.54,-709.11C231.98,-676.37 420.25,-608.2 508.04,-576.42"/>
<polygon fill="black" stroke="black" points="509.27,-579.69 517.48,-573 506.88,-573.11 509.27,-579.69"/>
</g>
<!-- BiInv_biinv_idmap&#45;&gt;BiInv_BiInv -->
<g id="edge8" class="edge">
<title>BiInv_biinv_idmap&#45;&gt;BiInv_BiInv</title>
<path fill="none" stroke="black" d="M145.47,-710.38C155.26,-707.55 165.4,-704.78 175,-702.41 433.06,-638.85 748.02,-584.96 861.07,-566.36"/>
<polygon fill="black" stroke="black" points="861.76,-569.79 871.06,-564.72 860.62,-562.88 861.76,-569.79"/>
</g>
<!-- BiInv_Build_IsBiInv -->
<g id="node38" class="node">
<title>BiInv_Build_IsBiInv</title>
<g id="a_node38"><a xlink:href="BiInv.html#Build_IsBiInv" xlink:title="Build_IsBiInv">
<ellipse fill="#7faaff" stroke="black" cx="812" cy="-65.41" rx="72.29" ry="18"/>
<text text-anchor="middle" x="812" y="-61.71" font-family="Times,serif" font-size="14.00">Build_IsBiInv</text>
</a>
</g>
</g>
<!-- BiInv_biinv_idmap&#45;&gt;BiInv_Build_IsBiInv -->
<g id="edge9" class="edge">
<title>BiInv_biinv_idmap&#45;&gt;BiInv_Build_IsBiInv</title>
<path fill="none" stroke="black" d="M113.62,-703.4C186.88,-626.07 425.51,-377.86 642,-193.41 688.14,-154.1 745.21,-112.85 780.09,-88.4"/>
<polygon fill="black" stroke="black" points="782.26,-91.15 788.46,-82.56 778.25,-85.41 782.26,-91.15"/>
</g>
<!-- BiInv_equiv_biinv_equiv -->
<g id="node6" class="node">
<title>BiInv_equiv_biinv_equiv</title>
<g id="a_node6"><a xlink:href="BiInv.html#equiv_biinv_equiv" xlink:title="equiv_biinv_equiv">
<ellipse fill="#f070d1" stroke="black" cx="1425" cy="-1067.41" rx="92.89" ry="18"/>
<ellipse fill="none" stroke="black" cx="1425" cy="-1067.41" rx="96.89" ry="22"/>
<ellipse fill="none" stroke="black" cx="1425" cy="-1067.41" rx="100.88" ry="26"/>
<text text-anchor="middle" x="1425" y="-1063.71" font-family="Times,serif" font-size="14.00">equiv_biinv_equiv</text>
</a>
</g>
</g>
<!-- BiInv_equiv_isbiinv_isequiv -->
<g id="node9" class="node">
<title>BiInv_equiv_isbiinv_isequiv</title>
<g id="a_node9"><a xlink:href="BiInv.html#equiv_isbiinv_isequiv" xlink:title="equiv_isbiinv_isequiv">
<ellipse fill="#f070d1" stroke="black" cx="2096" cy="-897.41" rx="108.58" ry="18"/>
<text text-anchor="middle" x="2096" y="-893.71" font-family="Times,serif" font-size="14.00">equiv_isbiinv_isequiv</text>
</a>
</g>
</g>
<!-- BiInv_equiv_biinv_equiv&#45;&gt;BiInv_equiv_isbiinv_isequiv -->
<g id="edge10" class="edge">
<title>BiInv_equiv_biinv_equiv&#45;&gt;BiInv_equiv_isbiinv_isequiv</title>
<path fill="none" stroke="black" d="M1495.54,-1048.75C1625.44,-1016.23 1900.82,-947.28 2028.45,-915.33"/>
<polygon fill="black" stroke="black" points="2029.63,-918.64 2038.48,-912.81 2027.93,-911.85 2029.63,-918.64"/>
</g>
<!-- BiInv_issig_biinv -->
<g id="node20" class="node">
<title>BiInv_issig_biinv</title>
<g id="a_node20"><a xlink:href="BiInv.html#issig_biinv" xlink:title="issig_biinv">
<ellipse fill="#f070d1" stroke="black" cx="700" cy="-728.41" rx="59.59" ry="18"/>
<text text-anchor="middle" x="700" y="-724.71" font-family="Times,serif" font-size="14.00">issig_biinv</text>
</a>
</g>
</g>
<!-- BiInv_equiv_biinv_equiv&#45;&gt;BiInv_issig_biinv -->
<g id="edge11" class="edge">
<title>BiInv_equiv_biinv_equiv&#45;&gt;BiInv_issig_biinv</title>
<path fill="none" stroke="black" d="M1331.6,-1057.51C1170.06,-1040.33 847.8,-997.58 765,-923.41 716.44,-879.92 704.1,-799.08 701,-756.8"/>
<polygon fill="black" stroke="black" points="704.49,-756.45 700.39,-746.68 697.5,-756.88 704.49,-756.45"/>
</g>
<!-- BiInv_biinv_equiv -->
<g id="node7" class="node">
<title>BiInv_biinv_equiv</title>
<g id="a_node7"><a xlink:href="BiInv.html#biinv_equiv" xlink:title="biinv_equiv">
<ellipse fill="#f070d1" stroke="black" cx="256" cy="-728.41" rx="63.87" ry="18"/>
<ellipse fill="none" stroke="black" cx="256" cy="-728.41" rx="67.88" ry="22"/>
<ellipse fill="none" stroke="black" cx="256" cy="-728.41" rx="71.89" ry="26"/>
<text text-anchor="middle" x="256" y="-724.71" font-family="Times,serif" font-size="14.00">biinv_equiv</text>
</a>
</g>
</g>
<!-- BiInv_isbiinv_isequiv -->
<g id="node12" class="node">
<title>BiInv_isbiinv_isequiv</title>
<g id="a_node12"><a xlink:href="BiInv.html#isbiinv_isequiv" xlink:title="isbiinv_isequiv">
<ellipse fill="#f070d1" stroke="black" cx="1019" cy="-389.41" rx="79.09" ry="18"/>
<text text-anchor="middle" x="1019" y="-385.71" font-family="Times,serif" font-size="14.00">isbiinv_isequiv</text>
</a>
</g>
</g>
<!-- BiInv_biinv_equiv&#45;&gt;BiInv_isbiinv_isequiv -->
<g id="edge12" class="edge">
<title>BiInv_biinv_equiv&#45;&gt;BiInv_isbiinv_isequiv</title>
<path fill="none" stroke="black" d="M276.83,-703.39C313.9,-662.16 395.59,-577.97 482,-532.41 632.81,-452.9 831.44,-415.48 939.91,-399.94"/>
<polygon fill="black" stroke="black" points="940.7,-403.37 950.12,-398.51 939.73,-396.44 940.7,-403.37"/>
</g>
<!-- BiInv_biinv_equiv&#45;&gt;BiInv_Build_BiInv -->
<g id="edge13" class="edge">
<title>BiInv_biinv_equiv&#45;&gt;BiInv_Build_BiInv</title>
<path fill="none" stroke="black" d="M293.87,-706.13C351.77,-673.6 461.59,-611.9 518.6,-579.86"/>
<polygon fill="black" stroke="black" points="520.61,-582.75 527.61,-574.8 517.18,-576.65 520.61,-582.75"/>
</g>
<!-- BiInv_biinv_equiv&#45;&gt;BiInv_BiInv -->
<g id="edge14" class="edge">
<title>BiInv_biinv_equiv&#45;&gt;BiInv_BiInv</title>
<path fill="none" stroke="black" d="M308.6,-710.74C318.03,-707.88 327.79,-704.99 337,-702.41 532.75,-647.56 769.18,-591.03 862.88,-569"/>
<polygon fill="black" stroke="black" points="863.87,-572.36 872.81,-566.67 862.27,-565.55 863.87,-572.36"/>
</g>
<!-- BiInv_equiv_biinv -->
<g id="node8" class="node">
<title>BiInv_equiv_biinv</title>
<g id="a_node8"><a xlink:href="BiInv.html#equiv_biinv" xlink:title="equiv_biinv">
<ellipse fill="#f070d1" stroke="black" cx="1488" cy="-728.41" rx="63.87" ry="18"/>
<ellipse fill="none" stroke="black" cx="1488" cy="-728.41" rx="67.88" ry="22"/>
<ellipse fill="none" stroke="black" cx="1488" cy="-728.41" rx="71.89" ry="26"/>
<text text-anchor="middle" x="1488" y="-724.71" font-family="Times,serif" font-size="14.00">equiv_biinv</text>
</a>
</g>
</g>
<!-- BiInv_equiv_biinv&#45;&gt;BiInv_isequiv_isbiinv -->
<g id="edge15" class="edge">
<title>BiInv_equiv_biinv&#45;&gt;BiInv_isequiv_isbiinv</title>
<path fill="none" stroke="black" d="M1500.98,-702.62C1517.36,-671.36 1545.41,-617.82 1562.17,-585.81"/>
<polygon fill="black" stroke="black" points="1565.45,-587.1 1566.99,-576.62 1559.25,-583.85 1565.45,-587.1"/>
</g>
<!-- BiInv_equiv_biinv&#45;&gt;BiInv_BiInv -->
<g id="edge16" class="edge">
<title>BiInv_equiv_biinv&#45;&gt;BiInv_BiInv</title>
<path fill="none" stroke="black" d="M1434.9,-710.84C1425.61,-707.99 1416.03,-705.09 1407,-702.41 1235.11,-651.46 1029.11,-594.03 943.9,-570.43"/>
<polygon fill="black" stroke="black" points="944.69,-567.01 934.12,-567.72 942.82,-573.76 944.69,-567.01"/>
</g>
<!-- BiInv_ishprop_isbiinv -->
<g id="node10" class="node">
<title>BiInv_ishprop_isbiinv</title>
<g id="a_node10"><a xlink:href="BiInv.html#ishprop_isbiinv" xlink:title="ishprop_isbiinv">
<ellipse fill="#f070d1" stroke="black" cx="2288" cy="-728.41" rx="81.49" ry="18"/>
<text text-anchor="middle" x="2288" y="-724.71" font-family="Times,serif" font-size="14.00">ishprop_isbiinv</text>
</a>
</g>
</g>
<!-- BiInv_equiv_isbiinv_isequiv&#45;&gt;BiInv_ishprop_isbiinv -->
<g id="edge17" class="edge">
<title>BiInv_equiv_isbiinv_isequiv&#45;&gt;BiInv_ishprop_isbiinv</title>
<path fill="none" stroke="black" d="M2115.47,-879.48C2149.91,-849.52 2221.66,-787.12 2260.91,-752.97"/>
<polygon fill="black" stroke="black" points="2263.52,-755.34 2268.77,-746.14 2258.93,-750.06 2263.52,-755.34"/>
</g>
<!-- BiInv_iff_isbiinv_isequiv -->
<g id="node11" class="node">
<title>BiInv_iff_isbiinv_isequiv</title>
<g id="a_node11"><a xlink:href="BiInv.html#iff_isbiinv_isequiv" xlink:title="iff_isbiinv_isequiv">
<ellipse fill="#f070d1" stroke="black" cx="2096" cy="-728.41" rx="92.88" ry="18"/>
<text text-anchor="middle" x="2096" y="-724.71" font-family="Times,serif" font-size="14.00">iff_isbiinv_isequiv</text>
</a>
</g>
</g>
<!-- BiInv_equiv_isbiinv_isequiv&#45;&gt;BiInv_iff_isbiinv_isequiv -->
<g id="edge18" class="edge">
<title>BiInv_equiv_isbiinv_isequiv&#45;&gt;BiInv_iff_isbiinv_isequiv</title>
<path fill="none" stroke="black" d="M2096,-879.17C2096,-850.29 2096,-791.91 2096,-757.19"/>
<polygon fill="black" stroke="black" points="2099.5,-756.81 2096,-746.81 2092.5,-756.81 2099.5,-756.81"/>
</g>
<!-- BiInv_ishprop_isbiinv&#45;&gt;BiInv_isequiv_isbiinv -->
<g id="edge19" class="edge">
<title>BiInv_ishprop_isbiinv&#45;&gt;BiInv_isequiv_isbiinv</title>
<path fill="none" stroke="black" d="M2240.46,-713.78C2226.79,-709.97 2211.83,-705.92 2198,-702.41 2091.52,-675.4 1776.82,-604.44 1640.35,-573.82"/>
<polygon fill="black" stroke="black" points="1640.97,-570.37 1630.44,-571.6 1639.43,-577.2 1640.97,-570.37"/>
</g>
<!-- BiInv_prod_isbiinv -->
<g id="node21" class="node">
<title>BiInv_prod_isbiinv</title>
<g id="a_node21"><a xlink:href="BiInv.html#prod_isbiinv" xlink:title="prod_isbiinv">
<ellipse fill="#f070d1" stroke="black" cx="734" cy="-219.41" rx="67.69" ry="18"/>
<text text-anchor="middle" x="734" y="-215.71" font-family="Times,serif" font-size="14.00">prod_isbiinv</text>
</a>
</g>
</g>
<!-- BiInv_ishprop_isbiinv&#45;&gt;BiInv_prod_isbiinv -->
<g id="edge20" class="edge">
<title>BiInv_ishprop_isbiinv&#45;&gt;BiInv_prod_isbiinv</title>
<path fill="none" stroke="black" d="M2239.43,-713.89C2226.01,-710.16 2211.44,-706.12 2198,-702.41 2006.54,-649.61 1949.5,-662.76 1767,-584.41 1725.96,-566.79 1721.58,-551.07 1681,-532.41 1659.42,-522.49 978.28,-300.09 784.8,-236.98"/>
<polygon fill="black" stroke="black" points="785.74,-233.6 775.15,-233.83 783.57,-240.26 785.74,-233.6"/>
</g>
<!-- BiInv_iff_isbiinv_isequiv&#45;&gt;BiInv_isbiinv_isequiv -->
<g id="edge21" class="edge">
<title>BiInv_iff_isbiinv_isequiv&#45;&gt;BiInv_isbiinv_isequiv</title>
<path fill="none" stroke="black" d="M2041.3,-713.76C1943.14,-688.39 1742.35,-632.19 1689,-584.41 1669.9,-567.31 1684.1,-548.33 1664,-532.41 1576.84,-463.4 1251.62,-417.46 1099.02,-399.24"/>
<polygon fill="black" stroke="black" points="1099.12,-395.73 1088.78,-398.03 1098.3,-402.68 1099.12,-395.73"/>
</g>
<!-- BiInv_iff_isbiinv_isequiv&#45;&gt;BiInv_isequiv_isbiinv -->
<g id="edge22" class="edge">
<title>BiInv_iff_isbiinv_isequiv&#45;&gt;BiInv_isequiv_isbiinv</title>
<path fill="none" stroke="black" d="M2050.31,-712.65C1954.25,-681.62 1731.81,-609.75 1629.39,-576.66"/>
<polygon fill="black" stroke="black" points="1630.16,-573.23 1619.56,-573.49 1628,-579.89 1630.16,-573.23"/>
</g>
<!-- BiInv_isbiinv_isequiv&#45;&gt;BiInv_Build_IsBiInv -->
<g id="edge23" class="edge">
<title>BiInv_isbiinv_isequiv&#45;&gt;BiInv_Build_IsBiInv</title>
<path fill="none" stroke="black" d="M945,-382.9C859.23,-372.1 721.42,-340.12 657,-245.41 614.65,-183.14 712.29,-118.33 771.25,-86.5"/>
<polygon fill="black" stroke="black" points="773.15,-89.45 780.35,-81.68 769.88,-83.26 773.15,-89.45"/>
</g>
<!-- BiInv_IsBiInv -->
<g id="node39" class="node">
<title>BiInv_IsBiInv</title>
<g id="a_node39"><a xlink:href="BiInv.html#IsBiInv" xlink:title="IsBiInv">
<ellipse fill="#e2cdfa" stroke="black" cx="1598" cy="-65.41" rx="43.59" ry="18"/>
<text text-anchor="middle" x="1598" y="-61.71" font-family="Times,serif" font-size="14.00">IsBiInv</text>
</a>
</g>
</g>
<!-- BiInv_isbiinv_isequiv&#45;&gt;BiInv_IsBiInv -->
<g id="edge24" class="edge">
<title>BiInv_isbiinv_isequiv&#45;&gt;BiInv_IsBiInv</title>
<path fill="none" stroke="black" d="M1092.44,-382.58C1241.17,-369.08 1569.62,-330.16 1637,-245.41 1672.86,-200.31 1638.44,-129.41 1615.25,-91.81"/>
<polygon fill="black" stroke="black" points="1617.97,-89.56 1609.64,-83 1612.06,-93.31 1617.97,-89.56"/>
</g>
<!-- BiInv_isequiv_sect_biinv -->
<g id="node13" class="node">
<title>BiInv_isequiv_sect_biinv</title>
<g id="a_node13"><a xlink:href="BiInv.html#isequiv_sect_biinv" xlink:title="isequiv_sect_biinv">
<ellipse fill="#f070d1" stroke="black" cx="1879" cy="-558.41" rx="94.79" ry="18"/>
<ellipse fill="none" stroke="black" cx="1879" cy="-558.41" rx="98.79" ry="22"/>
<ellipse fill="none" stroke="black" cx="1879" cy="-558.41" rx="102.78" ry="26"/>
<text text-anchor="middle" x="1879" y="-554.71" font-family="Times,serif" font-size="14.00">isequiv_sect_biinv</text>
</a>
</g>
</g>
<!-- BiInv_isequiv_isbiinv_ -->
<g id="node15" class="node">
<title>BiInv_isequiv_isbiinv_</title>
<g id="a_node15"><a xlink:href="BiInv.html#isequiv_isbiinv'" xlink:title="isequiv_isbiinv&#39;">
<ellipse fill="#f070d1" stroke="black" cx="1993" cy="-389.41" rx="81.49" ry="18"/>
<text text-anchor="middle" x="1993" y="-385.71" font-family="Times,serif" font-size="14.00">isequiv_isbiinv&#39;</text>
</a>
</g>
</g>
<!-- BiInv_isequiv_sect_biinv&#45;&gt;BiInv_isequiv_isbiinv_ -->
<g id="edge25" class="edge">
<title>BiInv_isequiv_sect_biinv&#45;&gt;BiInv_isequiv_isbiinv_</title>
<path fill="none" stroke="black" d="M1896.07,-532.41C1917.53,-500.97 1954.17,-447.3 1975.73,-415.72"/>
<polygon fill="black" stroke="black" points="1978.63,-417.66 1981.38,-407.43 1972.85,-413.72 1978.63,-417.66"/>
</g>
<!-- BiInv_sect_is_retr_isbiinv -->
<g id="node14" class="node">
<title>BiInv_sect_is_retr_isbiinv</title>
<g id="a_node14"><a xlink:href="BiInv.html#sect_is_retr_isbiinv" xlink:title="sect_is_retr_isbiinv">
<ellipse fill="#f070d1" stroke="black" cx="2107" cy="-558.41" rx="99.39" ry="18"/>
<ellipse fill="none" stroke="black" cx="2107" cy="-558.41" rx="103.38" ry="22"/>
<ellipse fill="none" stroke="black" cx="2107" cy="-558.41" rx="107.38" ry="26"/>
<text text-anchor="middle" x="2107" y="-554.71" font-family="Times,serif" font-size="14.00">sect_is_retr_isbiinv</text>
</a>
</g>
</g>
<!-- BiInv_sect_is_retr_isbiinv&#45;&gt;BiInv_isequiv_isbiinv_ -->
<g id="edge26" class="edge">
<title>BiInv_sect_is_retr_isbiinv&#45;&gt;BiInv_isequiv_isbiinv_</title>
<path fill="none" stroke="black" d="M2089.93,-532.41C2068.47,-500.97 2031.83,-447.3 2010.27,-415.72"/>
<polygon fill="black" stroke="black" points="2013.15,-413.72 2004.62,-407.43 2007.37,-417.66 2013.15,-413.72"/>
</g>
<!-- BiInv_sect_retr_homotopic_isbiinv -->
<g id="node19" class="node">
<title>BiInv_sect_retr_homotopic_isbiinv</title>
<g id="a_node19"><a xlink:href="BiInv.html#sect_retr_homotopic_isbiinv" xlink:title="sect_retr_homotopic_isbiinv">
<ellipse fill="#f070d1" stroke="black" cx="1846" cy="-219.41" rx="139.98" ry="18"/>
<text text-anchor="middle" x="1846" y="-215.71" font-family="Times,serif" font-size="14.00">sect_retr_homotopic_isbiinv</text>
</a>
</g>
</g>
<!-- BiInv_isequiv_isbiinv_&#45;&gt;BiInv_sect_retr_homotopic_isbiinv -->
<g id="edge27" class="edge">
<title>BiInv_isequiv_isbiinv_&#45;&gt;BiInv_sect_retr_homotopic_isbiinv</title>
<path fill="none" stroke="black" d="M1978.37,-371.69C1952.35,-341.95 1897.93,-279.76 1867.6,-245.09"/>
<polygon fill="black" stroke="black" points="1870.01,-242.54 1860.79,-237.32 1864.74,-247.15 1870.01,-242.54"/>
</g>
<!-- BiInv_retr_is_sect_isbiinv -->
<g id="node16" class="node">
<title>BiInv_retr_is_sect_isbiinv</title>
<g id="a_node16"><a xlink:href="BiInv.html#retr_is_sect_isbiinv" xlink:title="retr_is_sect_isbiinv">
<ellipse fill="#f070d1" stroke="black" cx="1878" cy="-728.41" rx="99.39" ry="18"/>
<ellipse fill="none" stroke="black" cx="1878" cy="-728.41" rx="103.38" ry="22"/>
<ellipse fill="none" stroke="black" cx="1878" cy="-728.41" rx="107.38" ry="26"/>
<text text-anchor="middle" x="1878" y="-724.71" font-family="Times,serif" font-size="14.00">retr_is_sect_isbiinv</text>
</a>
</g>
</g>
<!-- BiInv_retr_is_sect_isbiinv&#45;&gt;BiInv_isequiv_isbiinv -->
<g id="edge28" class="edge">
<title>BiInv_retr_is_sect_isbiinv&#45;&gt;BiInv_isequiv_isbiinv</title>
<path fill="none" stroke="black" d="M1836.64,-704.4C1777.73,-671.63 1670.5,-611.98 1613.68,-580.37"/>
<polygon fill="black" stroke="black" points="1615.11,-577.17 1604.67,-575.36 1611.71,-583.28 1615.11,-577.17"/>
</g>
<!-- BiInv_isequiv_retr_biinv -->
<g id="node18" class="node">
<title>BiInv_isequiv_retr_biinv</title>
<g id="a_node18"><a xlink:href="BiInv.html#isequiv_retr_biinv" xlink:title="isequiv_retr_biinv">
<ellipse fill="#f070d1" stroke="black" cx="1800" cy="-389.41" rx="93.68" ry="18"/>
<text text-anchor="middle" x="1800" y="-385.71" font-family="Times,serif" font-size="14.00">isequiv_retr_biinv</text>
</a>
</g>
</g>
<!-- BiInv_isequiv_isbiinv&#45;&gt;BiInv_isequiv_retr_biinv -->
<g id="edge29" class="edge">
<title>BiInv_isequiv_isbiinv&#45;&gt;BiInv_isequiv_retr_biinv</title>
<path fill="none" stroke="black" d="M1597.89,-541.1C1638.1,-511.12 1723.8,-447.22 1769.62,-413.06"/>
<polygon fill="black" stroke="black" points="1771.77,-415.83 1777.69,-407.04 1767.58,-410.21 1771.77,-415.83"/>
</g>
<!-- BiInv_isequiv_retr_biinv&#45;&gt;BiInv_sect_retr_homotopic_isbiinv -->
<g id="edge30" class="edge">
<title>BiInv_isequiv_retr_biinv&#45;&gt;BiInv_sect_retr_homotopic_isbiinv</title>
<path fill="none" stroke="black" d="M1804.66,-371.38C1812.65,-342.2 1829.02,-282.42 1838.59,-247.48"/>
<polygon fill="black" stroke="black" points="1842.06,-248.06 1841.32,-237.49 1835.31,-246.21 1842.06,-248.06"/>
</g>
<!-- BiInv_sect_retr_homotopic_isbiinv&#45;&gt;BiInv_IsBiInv -->
<g id="edge31" class="edge">
<title>BiInv_sect_retr_homotopic_isbiinv&#45;&gt;BiInv_IsBiInv</title>
<path fill="none" stroke="black" d="M1818.51,-201.56C1772.21,-173.19 1678.92,-116.01 1629.84,-85.93"/>
<polygon fill="black" stroke="black" points="1631.57,-82.88 1621.22,-80.64 1627.91,-88.85 1631.57,-82.88"/>
</g>
<!-- BiInv_issig_biinv&#45;&gt;BiInv_Build_BiInv -->
<g id="edge32" class="edge">
<title>BiInv_issig_biinv&#45;&gt;BiInv_Build_BiInv</title>
<path fill="none" stroke="black" d="M685.57,-710.69C659.84,-680.88 605.94,-618.44 576.07,-583.82"/>
<polygon fill="black" stroke="black" points="578.56,-581.35 569.37,-576.07 573.26,-585.92 578.56,-581.35"/>
</g>
<!-- BiInv_issig_biinv&#45;&gt;BiInv_BiInv -->
<g id="edge33" class="edge">
<title>BiInv_issig_biinv&#45;&gt;BiInv_BiInv</title>
<path fill="none" stroke="black" d="M719.56,-711.3C756.6,-680.8 836.96,-614.62 878.3,-580.58"/>
<polygon fill="black" stroke="black" points="880.76,-583.08 886.26,-574.02 876.31,-577.68 880.76,-583.08"/>
</g>
<!-- BiInv_prod_isbiinv&#45;&gt;BiInv_Build_IsBiInv -->
<g id="edge34" class="edge">
<title>BiInv_prod_isbiinv&#45;&gt;BiInv_Build_IsBiInv</title>
<path fill="none" stroke="black" d="M742.8,-201.27C756.37,-174.82 782.53,-123.84 798.51,-92.7"/>
<polygon fill="black" stroke="black" points="801.66,-94.22 803.12,-83.72 795.44,-91.02 801.66,-94.22"/>
</g>
<!-- BiInv_prod_isbiinv&#45;&gt;BiInv_IsBiInv -->
<g id="edge35" class="edge">
<title>BiInv_prod_isbiinv&#45;&gt;BiInv_IsBiInv</title>
<path fill="none" stroke="black" d="M772.84,-204.51C784.95,-200.53 798.43,-196.45 811,-193.41 1084.16,-127.44 1419.08,-86.23 1545.97,-72"/>
<polygon fill="black" stroke="black" points="1546.62,-75.45 1556.17,-70.86 1545.84,-68.49 1546.62,-75.45"/>
</g>
<!-- BiInv_biinv_isbiinv -->
<g id="node22" class="node">
<title>BiInv_biinv_isbiinv</title>
<g id="a_node22"><a xlink:href="BiInv.html#biinv_isbiinv" xlink:title="biinv_isbiinv">
<ellipse fill="#f070d1" stroke="black" cx="1129" cy="-728.41" rx="68.8" ry="18"/>
<ellipse fill="none" stroke="black" cx="1129" cy="-728.41" rx="72.79" ry="22"/>
<ellipse fill="none" stroke="black" cx="1129" cy="-728.41" rx="76.79" ry="26"/>
<text text-anchor="middle" x="1129" y="-724.71" font-family="Times,serif" font-size="14.00">biinv_isbiinv</text>
</a>
</g>
</g>
<!-- BiInv_biinv_isbiinv&#45;&gt;BiInv_BiInv -->
<g id="edge36" class="edge">
<title>BiInv_biinv_isbiinv&#45;&gt;BiInv_BiInv</title>
<path fill="none" stroke="black" d="M1098.19,-704.4C1054.05,-671.45 973.51,-611.31 931.37,-579.85"/>
<polygon fill="black" stroke="black" points="933.33,-576.95 923.23,-573.77 929.14,-582.55 933.33,-576.95"/>
</g>
<!-- BiInv_biinv_fun -->
<g id="node23" class="node">
<title>BiInv_biinv_fun</title>
<g id="a_node23"><a xlink:href="BiInv.html#biinv_fun" xlink:title="biinv_fun">
<ellipse fill="#f070d1" stroke="black" cx="973" cy="-728.41" rx="53.12" ry="18"/>
<ellipse fill="none" stroke="black" cx="973" cy="-728.41" rx="57.1" ry="22"/>
<ellipse fill="none" stroke="black" cx="973" cy="-728.41" rx="61.09" ry="26"/>
<text text-anchor="middle" x="973" y="-724.71" font-family="Times,serif" font-size="14.00">biinv_fun</text>
</a>
</g>
</g>
<!-- BiInv_biinv_fun&#45;&gt;BiInv_BiInv -->
<g id="edge37" class="edge">
<title>BiInv_biinv_fun&#45;&gt;BiInv_BiInv</title>
<path fill="none" stroke="black" d="M962.82,-702.62C949.96,-671.33 927.95,-617.72 914.8,-585.72"/>
<polygon fill="black" stroke="black" points="917.91,-584.06 910.87,-576.14 911.43,-586.72 917.91,-584.06"/>
</g>
<!-- BiInv_BiInv_sind -->
<g id="node24" class="node">
<title>BiInv_BiInv_sind</title>
<g id="a_node24"><a xlink:href="BiInv.html#BiInv_sind" xlink:title="BiInv_sind">
<ellipse fill="#f070d1" stroke="black" cx="555" cy="-728.41" rx="59.27" ry="18"/>
<ellipse fill="none" stroke="black" cx="555" cy="-728.41" rx="63.28" ry="22"/>
<ellipse fill="none" stroke="black" cx="555" cy="-728.41" rx="67.29" ry="26"/>
<text text-anchor="middle" x="555" y="-724.71" font-family="Times,serif" font-size="14.00">BiInv_sind</text>
</a>
</g>
</g>
<!-- BiInv_BiInv_sind&#45;&gt;BiInv_Build_BiInv -->
<g id="edge38" class="edge">
<title>BiInv_BiInv_sind&#45;&gt;BiInv_Build_BiInv</title>
<path fill="none" stroke="black" d="M555,-702.26C555,-671.31 555,-618.94 555,-586.94"/>
<polygon fill="black" stroke="black" points="558.5,-586.53 555,-576.53 551.5,-586.53 558.5,-586.53"/>
</g>
<!-- BiInv_BiInv_sind&#45;&gt;BiInv_BiInv -->
<g id="edge39" class="edge">
<title>BiInv_BiInv_sind&#45;&gt;BiInv_BiInv</title>
<path fill="none" stroke="black" d="M596.06,-707.65C665.64,-674.15 805.45,-606.85 869.96,-575.8"/>
<polygon fill="black" stroke="black" points="871.78,-578.8 879.28,-571.31 868.75,-572.5 871.78,-578.8"/>
</g>
<!-- BiInv_BiInv_rec -->
<g id="node25" class="node">
<title>BiInv_BiInv_rec</title>
<g id="a_node25"><a xlink:href="BiInv.html#BiInv_rec" xlink:title="BiInv_rec">
<ellipse fill="#f070d1" stroke="black" cx="836" cy="-897.41" rx="53.9" ry="18"/>
<ellipse fill="none" stroke="black" cx="836" cy="-897.41" rx="57.89" ry="22"/>
<ellipse fill="none" stroke="black" cx="836" cy="-897.41" rx="61.89" ry="26"/>
<text text-anchor="middle" x="836" y="-893.71" font-family="Times,serif" font-size="14.00">BiInv_rec</text>
</a>
</g>
</g>
<!-- BiInv_BiInv_rect -->
<g id="node27" class="node">
<title>BiInv_BiInv_rect</title>
<g id="a_node27"><a xlink:href="BiInv.html#BiInv_rect" xlink:title="BiInv_rect">
<ellipse fill="#f070d1" stroke="black" cx="836" cy="-728.41" rx="57.69" ry="18"/>
<text text-anchor="middle" x="836" y="-724.71" font-family="Times,serif" font-size="14.00">BiInv_rect</text>
</a>
</g>
</g>
<!-- BiInv_BiInv_rec&#45;&gt;BiInv_BiInv_rect -->
<g id="edge40" class="edge">
<title>BiInv_BiInv_rec&#45;&gt;BiInv_BiInv_rect</title>
<path fill="none" stroke="black" d="M836,-871.41C836,-840.64 836,-788.58 836,-756.77"/>
<polygon fill="black" stroke="black" points="839.5,-756.43 836,-746.43 832.5,-756.43 839.5,-756.43"/>
</g>
<!-- BiInv_BiInv_ind -->
<g id="node26" class="node">
<title>BiInv_BiInv_ind</title>
<g id="a_node26"><a xlink:href="BiInv.html#BiInv_ind" xlink:title="BiInv_ind">
<ellipse fill="#7fffd4" stroke="black" cx="408" cy="-728.41" rx="53.9" ry="18"/>
<ellipse fill="none" stroke="black" cx="408" cy="-728.41" rx="57.89" ry="22"/>
<ellipse fill="none" stroke="black" cx="408" cy="-728.41" rx="61.89" ry="26"/>
<text text-anchor="middle" x="408" y="-724.71" font-family="Times,serif" font-size="14.00">BiInv_ind</text>
</a>
</g>
</g>
<!-- BiInv_BiInv_ind&#45;&gt;BiInv_Build_BiInv -->
<g id="edge41" class="edge">
<title>BiInv_BiInv_ind&#45;&gt;BiInv_Build_BiInv</title>
<path fill="none" stroke="black" d="M428.75,-703.7C456.47,-672.01 505.36,-616.14 533.48,-584.01"/>
<polygon fill="black" stroke="black" points="536.2,-586.21 540.15,-576.38 530.93,-581.61 536.2,-586.21"/>
</g>
<!-- BiInv_BiInv_ind&#45;&gt;BiInv_BiInv -->
<g id="edge42" class="edge">
<title>BiInv_BiInv_ind&#45;&gt;BiInv_BiInv</title>
<path fill="none" stroke="black" d="M454.18,-711.05C462.44,-708.15 470.97,-705.18 479,-702.41 621.19,-653.46 790.77,-596.97 865.45,-572.18"/>
<polygon fill="black" stroke="black" points="866.96,-575.37 875.35,-568.9 864.76,-568.72 866.96,-575.37"/>
</g>
<!-- BiInv_BiInv_rect&#45;&gt;BiInv_Build_BiInv -->
<g id="edge43" class="edge">
<title>BiInv_BiInv_rect&#45;&gt;BiInv_Build_BiInv</title>
<path fill="none" stroke="black" d="M810.57,-712.21C760.04,-682 646.97,-614.4 589.68,-580.15"/>
<polygon fill="black" stroke="black" points="591.36,-577.07 580.99,-574.95 587.77,-583.08 591.36,-577.07"/>
</g>
<!-- BiInv_BiInv_rect&#45;&gt;BiInv_BiInv -->
<g id="edge44" class="edge">
<title>BiInv_BiInv_rect&#45;&gt;BiInv_BiInv</title>
<path fill="none" stroke="black" d="M842.89,-710.38C854.76,-681.07 879.11,-620.9 893.23,-586.03"/>
<polygon fill="black" stroke="black" points="896.58,-587.07 897.09,-576.49 890.09,-584.45 896.58,-587.07"/>
</g>
<!-- BiInv_Build_BiInv&#45;&gt;BiInv_IsBiInv -->
<g id="edge45" class="edge">
<title>BiInv_Build_BiInv&#45;&gt;BiInv_IsBiInv</title>
<path fill="none" stroke="black" d="M614.45,-551.93C838.66,-530.97 1622.09,-455.11 1657,-415.41 1664.43,-406.96 1667.45,-278.11 1649,-193.41 1641.05,-156.93 1623.65,-117.38 1611.39,-92.28"/>
<polygon fill="black" stroke="black" points="1614.4,-90.48 1606.81,-83.09 1608.14,-93.6 1614.4,-90.48"/>
</g>
<!-- BiInv_BiInv&#45;&gt;BiInv_IsBiInv -->
<g id="edge46" class="edge">
<title>BiInv_BiInv&#45;&gt;BiInv_IsBiInv</title>
<path fill="none" stroke="black" d="M939.16,-556.59C1076.85,-552.58 1576.49,-530.2 1672,-415.41 1703.55,-377.49 1684.86,-241.04 1672,-193.41 1661.46,-154.41 1635.65,-115.07 1617.49,-90.73"/>
<polygon fill="black" stroke="black" points="1620.27,-88.6 1611.43,-82.77 1614.71,-92.85 1620.27,-88.6"/>
</g>
<!-- BiInv_eissect_biinv -->
<g id="node30" class="node">
<title>BiInv_eissect_biinv</title>
<g id="a_node30"><a xlink:href="BiInv.html#eissect_biinv" xlink:title="eissect_biinv">
<ellipse fill="#f070d1" stroke="black" cx="1550" cy="-219.41" rx="70.37" ry="18"/>
<ellipse fill="none" stroke="black" cx="1550" cy="-219.41" rx="74.38" ry="22"/>
<ellipse fill="none" stroke="black" cx="1550" cy="-219.41" rx="78.39" ry="26"/>
<text text-anchor="middle" x="1550" y="-215.71" font-family="Times,serif" font-size="14.00">eissect_biinv</text>
</a>
</g>
</g>
<!-- BiInv_eissect_biinv&#45;&gt;BiInv_IsBiInv -->
<g id="edge47" class="edge">
<title>BiInv_eissect_biinv&#45;&gt;BiInv_IsBiInv</title>
<path fill="none" stroke="black" d="M1557.93,-193.31C1566.65,-165.68 1580.63,-121.42 1589.56,-93.15"/>
<polygon fill="black" stroke="black" points="1592.92,-94.11 1592.6,-83.52 1586.25,-92 1592.92,-94.11"/>
</g>
<!-- BiInv_eisretr_biinv -->
<g id="node31" class="node">
<title>BiInv_eisretr_biinv</title>
<g id="a_node31"><a xlink:href="BiInv.html#eisretr_biinv" xlink:title="eisretr_biinv">
<ellipse fill="#f070d1" stroke="black" cx="1376" cy="-219.41" rx="69.58" ry="18"/>
<ellipse fill="none" stroke="black" cx="1376" cy="-219.41" rx="73.59" ry="22"/>
<ellipse fill="none" stroke="black" cx="1376" cy="-219.41" rx="77.59" ry="26"/>
<text text-anchor="middle" x="1376" y="-215.71" font-family="Times,serif" font-size="14.00">eisretr_biinv</text>
</a>
</g>
</g>
<!-- BiInv_eisretr_biinv&#45;&gt;BiInv_IsBiInv -->
<g id="edge48" class="edge">
<title>BiInv_eisretr_biinv&#45;&gt;BiInv_IsBiInv</title>
<path fill="none" stroke="black" d="M1409.24,-195.66C1452.26,-166.2 1526.61,-115.29 1567.99,-86.96"/>
<polygon fill="black" stroke="black" points="1570.03,-89.81 1576.3,-81.27 1566.07,-84.03 1570.03,-89.81"/>
</g>
<!-- BiInv_retr_biinv -->
<g id="node32" class="node">
<title>BiInv_retr_biinv</title>
<g id="a_node32"><a xlink:href="BiInv.html#retr_biinv" xlink:title="retr_biinv">
<ellipse fill="#f070d1" stroke="black" cx="2216" cy="-219.41" rx="55.8" ry="18"/>
<ellipse fill="none" stroke="black" cx="2216" cy="-219.41" rx="59.8" ry="22"/>
<ellipse fill="none" stroke="black" cx="2216" cy="-219.41" rx="63.79" ry="26"/>
<text text-anchor="middle" x="2216" y="-215.71" font-family="Times,serif" font-size="14.00">retr_biinv</text>
</a>
</g>
</g>
<!-- BiInv_retr_biinv&#45;&gt;BiInv_IsBiInv -->
<g id="edge49" class="edge">
<title>BiInv_retr_biinv&#45;&gt;BiInv_IsBiInv</title>
<path fill="none" stroke="black" d="M2169.1,-201.57C2160.47,-198.69 2151.5,-195.85 2143,-193.41 1961.67,-141.38 1741.87,-95.21 1646.28,-75.95"/>
<polygon fill="black" stroke="black" points="1646.83,-72.49 1636.33,-73.95 1645.45,-79.35 1646.83,-72.49"/>
</g>
<!-- BiInv_sect_biinv -->
<g id="node33" class="node">
<title>BiInv_sect_biinv</title>
<g id="a_node33"><a xlink:href="BiInv.html#sect_biinv" xlink:title="sect_biinv">
<ellipse fill="#f070d1" stroke="black" cx="2069" cy="-219.41" rx="57.37" ry="18"/>
<ellipse fill="none" stroke="black" cx="2069" cy="-219.41" rx="61.38" ry="22"/>
<ellipse fill="none" stroke="black" cx="2069" cy="-219.41" rx="65.39" ry="26"/>
<text text-anchor="middle" x="2069" y="-215.71" font-family="Times,serif" font-size="14.00">sect_biinv</text>
</a>
</g>
</g>
<!-- BiInv_sect_biinv&#45;&gt;BiInv_IsBiInv -->
<g id="edge50" class="edge">
<title>BiInv_sect_biinv&#45;&gt;BiInv_IsBiInv</title>
<path fill="none" stroke="black" d="M2020.47,-201.89C2011.99,-199.04 2003.24,-196.12 1995,-193.41 1866.64,-151.2 1714.33,-103 1641.29,-80.01"/>
<polygon fill="black" stroke="black" points="1642.11,-76.6 1631.52,-76.93 1640.01,-83.27 1642.11,-76.6"/>
</g>
<!-- BiInv_IsBiInv_sind -->
<g id="node34" class="node">
<title>BiInv_IsBiInv_sind</title>
<g id="a_node34"><a xlink:href="BiInv.html#IsBiInv_sind" xlink:title="IsBiInv_sind">
<ellipse fill="#f070d1" stroke="black" cx="1054" cy="-219.41" rx="67.68" ry="18"/>
<ellipse fill="none" stroke="black" cx="1054" cy="-219.41" rx="71.68" ry="22"/>
<ellipse fill="none" stroke="black" cx="1054" cy="-219.41" rx="75.69" ry="26"/>
<text text-anchor="middle" x="1054" y="-215.71" font-family="Times,serif" font-size="14.00">IsBiInv_sind</text>
</a>
</g>
</g>
<!-- BiInv_IsBiInv_sind&#45;&gt;BiInv_Build_IsBiInv -->
<g id="edge51" class="edge">
<title>BiInv_IsBiInv_sind&#45;&gt;BiInv_Build_IsBiInv</title>
<path fill="none" stroke="black" d="M1018.81,-196.31C972.6,-167.29 891.99,-116.65 846.25,-87.93"/>
<polygon fill="black" stroke="black" points="847.92,-84.84 837.59,-82.49 844.2,-90.77 847.92,-84.84"/>
</g>
<!-- BiInv_IsBiInv_sind&#45;&gt;BiInv_IsBiInv -->
<g id="edge52" class="edge">
<title>BiInv_IsBiInv_sind&#45;&gt;BiInv_IsBiInv</title>
<path fill="none" stroke="black" d="M1110.2,-201.74C1119.8,-198.94 1129.68,-196.07 1139,-193.41 1290.31,-150.23 1470.32,-101.06 1552.73,-78.68"/>
<polygon fill="black" stroke="black" points="1553.79,-82.02 1562.53,-76.02 1551.96,-75.26 1553.79,-82.02"/>
</g>
<!-- BiInv_IsBiInv_rec -->
<g id="node35" class="node">
<title>BiInv_IsBiInv_rec</title>
<g id="a_node35"><a xlink:href="BiInv.html#IsBiInv_rec" xlink:title="IsBiInv_rec">
<ellipse fill="#f070d1" stroke="black" cx="1578" cy="-389.41" rx="62.3" ry="18"/>
<ellipse fill="none" stroke="black" cx="1578" cy="-389.41" rx="66.3" ry="22"/>
<ellipse fill="none" stroke="black" cx="1578" cy="-389.41" rx="70.29" ry="26"/>
<text text-anchor="middle" x="1578" y="-385.71" font-family="Times,serif" font-size="14.00">IsBiInv_rec</text>
</a>
</g>
</g>
<!-- BiInv_IsBiInv_rect -->
<g id="node37" class="node">
<title>BiInv_IsBiInv_rect</title>
<g id="a_node37"><a xlink:href="BiInv.html#IsBiInv_rect" xlink:title="IsBiInv_rect">
<ellipse fill="#f070d1" stroke="black" cx="1214" cy="-219.41" rx="66.09" ry="18"/>
<text text-anchor="middle" x="1214" y="-215.71" font-family="Times,serif" font-size="14.00">IsBiInv_rect</text>
</a>
</g>
</g>
<!-- BiInv_IsBiInv_rec&#45;&gt;BiInv_IsBiInv_rect -->
<g id="edge53" class="edge">
<title>BiInv_IsBiInv_rec&#45;&gt;BiInv_IsBiInv_rect</title>
<path fill="none" stroke="black" d="M1535.17,-368.65C1464.64,-336.09 1324.91,-271.6 1255.35,-239.5"/>
<polygon fill="black" stroke="black" points="1256.56,-236.2 1246.02,-235.19 1253.63,-242.56 1256.56,-236.2"/>
</g>
<!-- BiInv_IsBiInv_ind -->
<g id="node36" class="node">
<title>BiInv_IsBiInv_ind</title>
<g id="a_node36"><a xlink:href="BiInv.html#IsBiInv_ind" xlink:title="IsBiInv_ind">
<ellipse fill="#7fffd4" stroke="black" cx="890" cy="-219.41" rx="62.3" ry="18"/>
<ellipse fill="none" stroke="black" cx="890" cy="-219.41" rx="66.3" ry="22"/>
<ellipse fill="none" stroke="black" cx="890" cy="-219.41" rx="70.29" ry="26"/>
<text text-anchor="middle" x="890" y="-215.71" font-family="Times,serif" font-size="14.00">IsBiInv_ind</text>
</a>
</g>
</g>
<!-- BiInv_IsBiInv_ind&#45;&gt;BiInv_Build_IsBiInv -->
<g id="edge54" class="edge">
<title>BiInv_IsBiInv_ind&#45;&gt;BiInv_Build_IsBiInv</title>
<path fill="none" stroke="black" d="M877.29,-193.65C863.02,-165.84 839.95,-120.89 825.4,-92.53"/>
<polygon fill="black" stroke="black" points="828.5,-90.9 820.82,-83.6 822.27,-94.09 828.5,-90.9"/>
</g>
<!-- BiInv_IsBiInv_ind&#45;&gt;BiInv_IsBiInv -->
<g id="edge55" class="edge">
<title>BiInv_IsBiInv_ind&#45;&gt;BiInv_IsBiInv</title>
<path fill="none" stroke="black" d="M941.19,-201.34C950.4,-198.51 959.95,-195.75 969,-193.41 1182.21,-138.32 1441.17,-92.59 1548.12,-74.61"/>
<polygon fill="black" stroke="black" points="1549.01,-78.01 1558.29,-72.9 1547.85,-71.1 1549.01,-78.01"/>
</g>
<!-- BiInv_IsBiInv_rect&#45;&gt;BiInv_Build_IsBiInv -->
<g id="edge56" class="edge">
<title>BiInv_IsBiInv_rect&#45;&gt;BiInv_Build_IsBiInv</title>
<path fill="none" stroke="black" d="M1176.9,-204.38C1103.59,-176.67 940.27,-114.91 859.34,-84.31"/>
<polygon fill="black" stroke="black" points="860.48,-81 849.89,-80.74 858,-87.55 860.48,-81"/>
</g>
<!-- BiInv_IsBiInv_rect&#45;&gt;BiInv_IsBiInv -->
<g id="edge57" class="edge">
<title>BiInv_IsBiInv_rect&#45;&gt;BiInv_IsBiInv</title>
<path fill="none" stroke="black" d="M1249.78,-204.25C1321.59,-175.82 1482.81,-112.01 1557.99,-82.25"/>
<polygon fill="black" stroke="black" points="1559.57,-85.39 1567.58,-78.46 1556.99,-78.88 1559.57,-85.39"/>
</g>
</g>
</svg>
