<?xml version="1.0" encoding="UTF-8" standalone="no"?>
<!DOCTYPE svg PUBLIC "-//W3C//DTD SVG 1.1//EN"
 "http://www.w3.org/Graphics/SVG/1.1/DTD/svg11.dtd">
<!-- Generated by graphviz version 2.43.0 (0)
 -->
<!-- Title: HoTT_WildCat_MonoidalTwistConstruction Pages: 1 -->
<svg width="1146pt" height="577pt"
 viewBox="0.00 0.00 1146.00 577.00" xmlns="http://www.w3.org/2000/svg" xmlns:xlink="http://www.w3.org/1999/xlink">
<g id="graph0" class="graph" transform="scale(1 1) rotate(0) translate(4 573)">
<title>HoTT_WildCat_MonoidalTwistConstruction</title>
<polygon fill="white" stroke="transparent" points="-4,4 -4,-573 1142,-573 1142,4 -4,4"/>
<g id="clust1" class="cluster">
<title>cluster_MonoidalTwistConstruction</title>
<polygon fill="#ffffc3" stroke="black" points="8,-8.2 8,-560.8 1130,-560.8 1130,-8.2 8,-8.2"/>
<text text-anchor="middle" x="115" y="-545.6" font-family="Times,serif" font-size="14.00">MonoidalTwistConstruction</text>
</g>
<!-- MonoidalTwistConstruction_twist_hex_ -->
<g id="node1" class="node">
<title>MonoidalTwistConstruction_twist_hex_</title>
<g id="a_node1"><a xlink:href="MonoidalTwistConstruction.html#twist_hex'" xlink:title="twist_hex&#39;">
<ellipse fill="#f070d1" stroke="black" cx="1056" cy="-264.2" rx="57.71" ry="18"/>
<ellipse fill="none" stroke="black" cx="1056" cy="-264.2" rx="61.7" ry="22"/>
<ellipse fill="none" stroke="black" cx="1056" cy="-264.2" rx="65.69" ry="26"/>
<text text-anchor="middle" x="1056" y="-260.5" font-family="Times,serif" font-size="14.00">twist_hex&#39;</text>
</a>
</g>
</g>
<!-- MonoidalTwistConstruction_moveR_fmap01_twistL -->
<g id="node12" class="node">
<title>MonoidalTwistConstruction_moveR_fmap01_twistL</title>
<g id="a_node12"><a xlink:href="MonoidalTwistConstruction.html#moveR_fmap01_twistL" xlink:title="moveR_fmap01_twistL">
<ellipse fill="#f070d1" stroke="black" cx="866" cy="-182.2" rx="115.88" ry="18"/>
<text text-anchor="middle" x="866" y="-178.5" font-family="Times,serif" font-size="14.00">moveR_fmap01_twistL</text>
</a>
</g>
</g>
<!-- MonoidalTwistConstruction_twist_hex_&#45;&gt;MonoidalTwistConstruction_moveR_fmap01_twistL -->
<g id="edge1" class="edge">
<title>MonoidalTwistConstruction_twist_hex_&#45;&gt;MonoidalTwistConstruction_moveR_fmap01_twistL</title>
<path fill="none" stroke="black" d="M1011.93,-244.65C982.45,-232.24 943.69,-215.91 913.52,-203.21"/>
<polygon fill="black" stroke="black" points="914.62,-199.88 904.05,-199.22 911.91,-206.33 914.62,-199.88"/>
</g>
<!-- MonoidalTwistConstruction_moveR_twistR -->
<g id="node15" class="node">
<title>MonoidalTwistConstruction_moveR_twistR</title>
<g id="a_node15"><a xlink:href="MonoidalTwistConstruction.html#moveR_twistR" xlink:title="moveR_twistR">
<ellipse fill="#f070d1" stroke="black" cx="635" cy="-182.2" rx="77.19" ry="18"/>
<text text-anchor="middle" x="635" y="-178.5" font-family="Times,serif" font-size="14.00">moveR_twistR</text>
</a>
</g>
</g>
<!-- MonoidalTwistConstruction_twist_hex_&#45;&gt;MonoidalTwistConstruction_moveR_twistR -->
<g id="edge2" class="edge">
<title>MonoidalTwistConstruction_twist_hex_&#45;&gt;MonoidalTwistConstruction_moveR_twistR</title>
<path fill="none" stroke="black" d="M1008.33,-246.01C999.33,-243.13 989.93,-240.38 981,-238.2 876.08,-212.59 847.65,-217.2 741,-200.2 729.9,-198.43 718.14,-196.55 706.65,-194.71"/>
<polygon fill="black" stroke="black" points="707.08,-191.24 696.65,-193.11 705.97,-198.15 707.08,-191.24"/>
</g>
<!-- MonoidalTwistConstruction_twist_nat_l -->
<g id="node21" class="node">
<title>MonoidalTwistConstruction_twist_nat_l</title>
<g id="a_node21"><a xlink:href="MonoidalTwistConstruction.html#twist_nat_l" xlink:title="twist_nat_l">
<ellipse fill="#f070d1" stroke="black" cx="1061" cy="-182.2" rx="61.19" ry="18"/>
<text text-anchor="middle" x="1061" y="-178.5" font-family="Times,serif" font-size="14.00">twist_nat_l</text>
</a>
</g>
</g>
<!-- MonoidalTwistConstruction_twist_hex_&#45;&gt;MonoidalTwistConstruction_twist_nat_l -->
<g id="edge3" class="edge">
<title>MonoidalTwistConstruction_twist_hex_&#45;&gt;MonoidalTwistConstruction_twist_nat_l</title>
<path fill="none" stroke="black" d="M1057.58,-237.89C1058.13,-229.17 1058.74,-219.36 1059.29,-210.49"/>
<polygon fill="black" stroke="black" points="1062.8,-210.46 1059.93,-200.27 1055.82,-210.03 1062.8,-210.46"/>
</g>
<!-- MonoidalTwistConstruction_issymmetricmonoidal_twist -->
<g id="node2" class="node">
<title>MonoidalTwistConstruction_issymmetricmonoidal_twist</title>
<g id="a_node2"><a xlink:href="MonoidalTwistConstruction.html#issymmetricmonoidal_twist" xlink:title="issymmetricmonoidal_twist">
<ellipse fill="#f070d1" stroke="black" cx="379" cy="-502.2" rx="137.59" ry="18"/>
<ellipse fill="none" stroke="black" cx="379" cy="-502.2" rx="141.58" ry="22"/>
<ellipse fill="none" stroke="black" cx="379" cy="-502.2" rx="145.58" ry="26"/>
<text text-anchor="middle" x="379" y="-498.5" font-family="Times,serif" font-size="14.00">issymmetricmonoidal_twist</text>
</a>
</g>
</g>
<!-- MonoidalTwistConstruction_ismonoidal_twist -->
<g id="node3" class="node">
<title>MonoidalTwistConstruction_ismonoidal_twist</title>
<g id="a_node3"><a xlink:href="MonoidalTwistConstruction.html#ismonoidal_twist" xlink:title="ismonoidal_twist">
<ellipse fill="#f070d1" stroke="black" cx="406" cy="-420.2" rx="89.08" ry="18"/>
<text text-anchor="middle" x="406" y="-416.5" font-family="Times,serif" font-size="14.00">ismonoidal_twist</text>
</a>
</g>
</g>
<!-- MonoidalTwistConstruction_issymmetricmonoidal_twist&#45;&gt;MonoidalTwistConstruction_ismonoidal_twist -->
<g id="edge4" class="edge">
<title>MonoidalTwistConstruction_issymmetricmonoidal_twist&#45;&gt;MonoidalTwistConstruction_ismonoidal_twist</title>
<path fill="none" stroke="black" d="M387.54,-475.89C390.55,-466.98 393.94,-456.93 396.99,-447.91"/>
<polygon fill="black" stroke="black" points="400.36,-448.86 400.24,-438.27 393.73,-446.62 400.36,-448.86"/>
</g>
<!-- MonoidalTwistConstruction_hexagon_twist -->
<g id="node4" class="node">
<title>MonoidalTwistConstruction_hexagon_twist</title>
<g id="a_node4"><a xlink:href="MonoidalTwistConstruction.html#hexagon_twist" xlink:title="hexagon_twist">
<ellipse fill="#f070d1" stroke="black" cx="222" cy="-420.2" rx="77.19" ry="18"/>
<text text-anchor="middle" x="222" y="-416.5" font-family="Times,serif" font-size="14.00">hexagon_twist</text>
</a>
</g>
</g>
<!-- MonoidalTwistConstruction_issymmetricmonoidal_twist&#45;&gt;MonoidalTwistConstruction_hexagon_twist -->
<g id="edge5" class="edge">
<title>MonoidalTwistConstruction_issymmetricmonoidal_twist&#45;&gt;MonoidalTwistConstruction_hexagon_twist</title>
<path fill="none" stroke="black" d="M332.32,-477.42C309.96,-466.02 283.45,-452.51 262.02,-441.6"/>
<polygon fill="black" stroke="black" points="263.37,-438.36 252.87,-436.93 260.2,-444.59 263.37,-438.36"/>
</g>
<!-- MonoidalTwistConstruction_pentagon_twist -->
<g id="node5" class="node">
<title>MonoidalTwistConstruction_pentagon_twist</title>
<g id="a_node5"><a xlink:href="MonoidalTwistConstruction.html#pentagon_twist" xlink:title="pentagon_twist">
<ellipse fill="#f070d1" stroke="black" cx="581" cy="-346.2" rx="81.79" ry="18"/>
<text text-anchor="middle" x="581" y="-342.5" font-family="Times,serif" font-size="14.00">pentagon_twist</text>
</a>
</g>
</g>
<!-- MonoidalTwistConstruction_ismonoidal_twist&#45;&gt;MonoidalTwistConstruction_pentagon_twist -->
<g id="edge6" class="edge">
<title>MonoidalTwistConstruction_ismonoidal_twist&#45;&gt;MonoidalTwistConstruction_pentagon_twist</title>
<path fill="none" stroke="black" d="M443.54,-403.76C470.25,-392.77 506.3,-377.94 534.78,-366.22"/>
<polygon fill="black" stroke="black" points="536.2,-369.42 544.12,-362.37 533.54,-362.94 536.2,-369.42"/>
</g>
<!-- MonoidalTwistConstruction_triangle_twist -->
<g id="node6" class="node">
<title>MonoidalTwistConstruction_triangle_twist</title>
<g id="a_node6"><a xlink:href="MonoidalTwistConstruction.html#triangle_twist" xlink:title="triangle_twist">
<ellipse fill="#f070d1" stroke="black" cx="316" cy="-346.2" rx="75.29" ry="18"/>
<text text-anchor="middle" x="316" y="-342.5" font-family="Times,serif" font-size="14.00">triangle_twist</text>
</a>
</g>
</g>
<!-- MonoidalTwistConstruction_ismonoidal_twist&#45;&gt;MonoidalTwistConstruction_triangle_twist -->
<g id="edge7" class="edge">
<title>MonoidalTwistConstruction_ismonoidal_twist&#45;&gt;MonoidalTwistConstruction_triangle_twist</title>
<path fill="none" stroke="black" d="M385.13,-402.5C373,-392.8 357.55,-380.44 344.34,-369.87"/>
<polygon fill="black" stroke="black" points="346.45,-367.08 336.45,-363.56 342.07,-372.54 346.45,-367.08"/>
</g>
<!-- MonoidalTwistConstruction_associator_twist -->
<g id="node8" class="node">
<title>MonoidalTwistConstruction_associator_twist</title>
<g id="a_node8"><a xlink:href="MonoidalTwistConstruction.html#associator_twist" xlink:title="associator_twist">
<ellipse fill="#f070d1" stroke="black" cx="294" cy="-264.2" rx="85.59" ry="18"/>
<text text-anchor="middle" x="294" y="-260.5" font-family="Times,serif" font-size="14.00">associator_twist</text>
</a>
</g>
</g>
<!-- MonoidalTwistConstruction_hexagon_twist&#45;&gt;MonoidalTwistConstruction_associator_twist -->
<g id="edge8" class="edge">
<title>MonoidalTwistConstruction_hexagon_twist&#45;&gt;MonoidalTwistConstruction_associator_twist</title>
<path fill="none" stroke="black" d="M220.63,-401.86C219.85,-382.85 220.75,-351.89 232,-328.2 239.29,-312.85 251.88,-298.99 263.81,-288.21"/>
<polygon fill="black" stroke="black" points="266.21,-290.76 271.5,-281.58 261.64,-285.46 266.21,-290.76"/>
</g>
<!-- MonoidalTwistConstruction_pentagon_twist&#45;&gt;MonoidalTwistConstruction_associator_twist -->
<g id="edge9" class="edge">
<title>MonoidalTwistConstruction_pentagon_twist&#45;&gt;MonoidalTwistConstruction_associator_twist</title>
<path fill="none" stroke="black" d="M532.31,-331.63C482.88,-317.85 406.29,-296.5 353.34,-281.74"/>
<polygon fill="black" stroke="black" points="353.98,-278.29 343.41,-278.97 352.1,-285.03 353.98,-278.29"/>
</g>
<!-- MonoidalTwistConstruction_moveR_fmap01_twistR -->
<g id="node11" class="node">
<title>MonoidalTwistConstruction_moveR_fmap01_twistR</title>
<g id="a_node11"><a xlink:href="MonoidalTwistConstruction.html#moveR_fmap01_twistR" xlink:title="moveR_fmap01_twistR">
<ellipse fill="#f070d1" stroke="black" cx="514" cy="-264.2" rx="116.18" ry="18"/>
<text text-anchor="middle" x="514" y="-260.5" font-family="Times,serif" font-size="14.00">moveR_fmap01_twistR</text>
</a>
</g>
</g>
<!-- MonoidalTwistConstruction_pentagon_twist&#45;&gt;MonoidalTwistConstruction_moveR_fmap01_twistR -->
<g id="edge10" class="edge">
<title>MonoidalTwistConstruction_pentagon_twist&#45;&gt;MonoidalTwistConstruction_moveR_fmap01_twistR</title>
<path fill="none" stroke="black" d="M566.79,-328.24C557.46,-317.1 545.11,-302.35 534.7,-289.92"/>
<polygon fill="black" stroke="black" points="537.29,-287.56 528.19,-282.14 531.93,-292.06 537.29,-287.56"/>
</g>
<!-- MonoidalTwistConstruction_pentagon_twist&#45;&gt;MonoidalTwistConstruction_moveR_twistR -->
<g id="edge11" class="edge">
<title>MonoidalTwistConstruction_pentagon_twist&#45;&gt;MonoidalTwistConstruction_moveR_twistR</title>
<path fill="none" stroke="black" d="M605.94,-329.02C618.38,-319.41 632.2,-306.01 639,-290.2 649.96,-264.7 646.77,-232.53 642.21,-210.16"/>
<polygon fill="black" stroke="black" points="645.61,-209.32 639.99,-200.33 638.78,-210.86 645.61,-209.32"/>
</g>
<!-- MonoidalTwistConstruction_moveR_twistL -->
<g id="node16" class="node">
<title>MonoidalTwistConstruction_moveR_twistL</title>
<g id="a_node16"><a xlink:href="MonoidalTwistConstruction.html#moveR_twistL" xlink:title="moveR_twistL">
<ellipse fill="#f070d1" stroke="black" cx="896" cy="-264.2" rx="76.09" ry="18"/>
<text text-anchor="middle" x="896" y="-260.5" font-family="Times,serif" font-size="14.00">moveR_twistL</text>
</a>
</g>
</g>
<!-- MonoidalTwistConstruction_pentagon_twist&#45;&gt;MonoidalTwistConstruction_moveR_twistL -->
<g id="edge12" class="edge">
<title>MonoidalTwistConstruction_pentagon_twist&#45;&gt;MonoidalTwistConstruction_moveR_twistL</title>
<path fill="none" stroke="black" d="M636.5,-332.77C683.21,-322.11 751.69,-306 811,-290.2 820.81,-287.59 831.21,-284.66 841.25,-281.75"/>
<polygon fill="black" stroke="black" points="842.51,-285.03 851.13,-278.87 840.55,-278.31 842.51,-285.03"/>
</g>
<!-- MonoidalTwistConstruction_twist_nat_m -->
<g id="node20" class="node">
<title>MonoidalTwistConstruction_twist_nat_m</title>
<g id="a_node20"><a xlink:href="MonoidalTwistConstruction.html#twist_nat_m" xlink:title="twist_nat_m">
<ellipse fill="#f070d1" stroke="black" cx="735" cy="-264.2" rx="66.89" ry="18"/>
<text text-anchor="middle" x="735" y="-260.5" font-family="Times,serif" font-size="14.00">twist_nat_m</text>
</a>
</g>
</g>
<!-- MonoidalTwistConstruction_pentagon_twist&#45;&gt;MonoidalTwistConstruction_twist_nat_m -->
<g id="edge13" class="edge">
<title>MonoidalTwistConstruction_pentagon_twist&#45;&gt;MonoidalTwistConstruction_twist_nat_m</title>
<path fill="none" stroke="black" d="M611.43,-329.4C635.89,-316.69 670.4,-298.76 696.74,-285.08"/>
<polygon fill="black" stroke="black" points="698.42,-288.15 705.68,-280.43 695.2,-281.94 698.42,-288.15"/>
</g>
<!-- MonoidalTwistConstruction_left_unitor_twist -->
<g id="node7" class="node">
<title>MonoidalTwistConstruction_left_unitor_twist</title>
<g id="a_node7"><a xlink:href="MonoidalTwistConstruction.html#left_unitor_twist" xlink:title="left_unitor_twist">
<ellipse fill="#f070d1" stroke="black" cx="103" cy="-264.2" rx="87.18" ry="18"/>
<text text-anchor="middle" x="103" y="-260.5" font-family="Times,serif" font-size="14.00">left_unitor_twist</text>
</a>
</g>
</g>
<!-- MonoidalTwistConstruction_triangle_twist&#45;&gt;MonoidalTwistConstruction_left_unitor_twist -->
<g id="edge14" class="edge">
<title>MonoidalTwistConstruction_triangle_twist&#45;&gt;MonoidalTwistConstruction_left_unitor_twist</title>
<path fill="none" stroke="black" d="M277.43,-330.71C242.39,-317.56 190.53,-298.08 152.46,-283.78"/>
<polygon fill="black" stroke="black" points="153.69,-280.5 143.09,-280.26 151.22,-287.05 153.69,-280.5"/>
</g>
<!-- MonoidalTwistConstruction_triangle_twist&#45;&gt;MonoidalTwistConstruction_associator_twist -->
<g id="edge15" class="edge">
<title>MonoidalTwistConstruction_triangle_twist&#45;&gt;MonoidalTwistConstruction_associator_twist</title>
<path fill="none" stroke="black" d="M311.33,-328.24C308.47,-317.81 304.73,-304.21 301.46,-292.31"/>
<polygon fill="black" stroke="black" points="304.76,-291.13 298.73,-282.42 298.01,-292.99 304.76,-291.13"/>
</g>
<!-- MonoidalTwistConstruction_associator_twist__unfold -->
<g id="node9" class="node">
<title>MonoidalTwistConstruction_associator_twist__unfold</title>
<g id="a_node9"><a xlink:href="MonoidalTwistConstruction.html#associator_twist'_unfold" xlink:title="associator_twist&#39;_unfold">
<ellipse fill="#f070d1" stroke="black" cx="267" cy="-182.2" rx="122.38" ry="18"/>
<text text-anchor="middle" x="267" y="-178.5" font-family="Times,serif" font-size="14.00">associator_twist&#39;_unfold</text>
</a>
</g>
</g>
<!-- MonoidalTwistConstruction_associator_twist&#45;&gt;MonoidalTwistConstruction_associator_twist__unfold -->
<g id="edge16" class="edge">
<title>MonoidalTwistConstruction_associator_twist&#45;&gt;MonoidalTwistConstruction_associator_twist__unfold</title>
<path fill="none" stroke="black" d="M288.27,-246.24C284.72,-235.7 280.07,-221.93 276.03,-209.95"/>
<polygon fill="black" stroke="black" points="279.32,-208.77 272.81,-200.42 272.69,-211.01 279.32,-208.77"/>
</g>
<!-- MonoidalTwistConstruction_associator_twist_ -->
<g id="node10" class="node">
<title>MonoidalTwistConstruction_associator_twist_</title>
<g id="a_node10"><a xlink:href="MonoidalTwistConstruction.html#associator_twist'" xlink:title="associator_twist&#39;">
<ellipse fill="#f070d1" stroke="black" cx="199" cy="-108.2" rx="88.28" ry="18"/>
<text text-anchor="middle" x="199" y="-104.5" font-family="Times,serif" font-size="14.00">associator_twist&#39;</text>
</a>
</g>
</g>
<!-- MonoidalTwistConstruction_associator_twist__unfold&#45;&gt;MonoidalTwistConstruction_associator_twist_ -->
<g id="edge17" class="edge">
<title>MonoidalTwistConstruction_associator_twist__unfold&#45;&gt;MonoidalTwistConstruction_associator_twist_</title>
<path fill="none" stroke="black" d="M250.88,-164.14C242.25,-154.99 231.46,-143.57 221.96,-133.51"/>
<polygon fill="black" stroke="black" points="224.41,-131.01 215,-126.14 219.32,-135.82 224.41,-131.01"/>
</g>
<!-- MonoidalTwistConstruction_twiste -->
<g id="node22" class="node">
<title>MonoidalTwistConstruction_twiste</title>
<g id="a_node22"><a xlink:href="MonoidalTwistConstruction.html#twiste" xlink:title="twiste">
<ellipse fill="#f070d1" stroke="black" cx="631" cy="-35.2" rx="39.79" ry="18"/>
<text text-anchor="middle" x="631" y="-31.5" font-family="Times,serif" font-size="14.00">twiste</text>
</a>
</g>
</g>
<!-- MonoidalTwistConstruction_associator_twist_&#45;&gt;MonoidalTwistConstruction_twiste -->
<g id="edge18" class="edge">
<title>MonoidalTwistConstruction_associator_twist_&#45;&gt;MonoidalTwistConstruction_twiste</title>
<path fill="none" stroke="black" d="M263.42,-95.79C274.29,-93.89 285.46,-91.97 296,-90.2 398.57,-72.95 519,-53.81 583.87,-43.59"/>
<polygon fill="black" stroke="black" points="584.46,-47.04 593.79,-42.03 583.37,-40.13 584.46,-47.04"/>
</g>
<!-- MonoidalTwistConstruction_moveL_fmap01_twistR -->
<g id="node13" class="node">
<title>MonoidalTwistConstruction_moveL_fmap01_twistR</title>
<g id="a_node13"><a xlink:href="MonoidalTwistConstruction.html#moveL_fmap01_twistR" xlink:title="moveL_fmap01_twistR">
<ellipse fill="#f070d1" stroke="black" cx="421" cy="-108.2" rx="115.88" ry="18"/>
<text text-anchor="middle" x="421" y="-104.5" font-family="Times,serif" font-size="14.00">moveL_fmap01_twistR</text>
</a>
</g>
</g>
<!-- MonoidalTwistConstruction_moveR_fmap01_twistR&#45;&gt;MonoidalTwistConstruction_moveL_fmap01_twistR -->
<g id="edge19" class="edge">
<title>MonoidalTwistConstruction_moveR_fmap01_twistR&#45;&gt;MonoidalTwistConstruction_moveL_fmap01_twistR</title>
<path fill="none" stroke="black" d="M503.69,-246.13C487.42,-219.19 455.68,-166.63 436.61,-135.04"/>
<polygon fill="black" stroke="black" points="439.52,-133.1 431.35,-126.35 433.53,-136.72 439.52,-133.1"/>
</g>
<!-- MonoidalTwistConstruction_moveL_fmap01_twistL -->
<g id="node14" class="node">
<title>MonoidalTwistConstruction_moveL_fmap01_twistL</title>
<g id="a_node14"><a xlink:href="MonoidalTwistConstruction.html#moveL_fmap01_twistL" xlink:title="moveL_fmap01_twistL">
<ellipse fill="#f070d1" stroke="black" cx="1008" cy="-108.2" rx="114.28" ry="18"/>
<text text-anchor="middle" x="1008" y="-104.5" font-family="Times,serif" font-size="14.00">moveL_fmap01_twistL</text>
</a>
</g>
</g>
<!-- MonoidalTwistConstruction_moveR_fmap01_twistL&#45;&gt;MonoidalTwistConstruction_moveL_fmap01_twistL -->
<g id="edge20" class="edge">
<title>MonoidalTwistConstruction_moveR_fmap01_twistL&#45;&gt;MonoidalTwistConstruction_moveL_fmap01_twistL</title>
<path fill="none" stroke="black" d="M898.22,-164.86C918.41,-154.63 944.64,-141.33 966.39,-130.3"/>
<polygon fill="black" stroke="black" points="968.08,-133.37 975.41,-125.72 964.91,-127.13 968.08,-133.37"/>
</g>
<!-- MonoidalTwistConstruction_moveL_fmap01_twistR&#45;&gt;MonoidalTwistConstruction_twiste -->
<g id="edge21" class="edge">
<title>MonoidalTwistConstruction_moveL_fmap01_twistR&#45;&gt;MonoidalTwistConstruction_twiste</title>
<path fill="none" stroke="black" d="M467.09,-91.62C504.06,-79.12 555.43,-61.75 590.76,-49.81"/>
<polygon fill="black" stroke="black" points="591.92,-53.11 600.28,-46.59 589.68,-46.48 591.92,-53.11"/>
</g>
<!-- MonoidalTwistConstruction_moveL_fmap01_twistL&#45;&gt;MonoidalTwistConstruction_twiste -->
<g id="edge22" class="edge">
<title>MonoidalTwistConstruction_moveL_fmap01_twistL&#45;&gt;MonoidalTwistConstruction_twiste</title>
<path fill="none" stroke="black" d="M937.53,-93.93C861.27,-79.57 741.87,-57.08 676.88,-44.84"/>
<polygon fill="black" stroke="black" points="677.41,-41.38 666.94,-42.97 676.12,-48.26 677.41,-41.38"/>
</g>
<!-- MonoidalTwistConstruction_moveL_twistR -->
<g id="node17" class="node">
<title>MonoidalTwistConstruction_moveL_twistR</title>
<g id="a_node17"><a xlink:href="MonoidalTwistConstruction.html#moveL_twistR" xlink:title="moveL_twistR">
<ellipse fill="#f070d1" stroke="black" cx="631" cy="-108.2" rx="76.09" ry="18"/>
<text text-anchor="middle" x="631" y="-104.5" font-family="Times,serif" font-size="14.00">moveL_twistR</text>
</a>
</g>
</g>
<!-- MonoidalTwistConstruction_moveR_twistR&#45;&gt;MonoidalTwistConstruction_moveL_twistR -->
<g id="edge23" class="edge">
<title>MonoidalTwistConstruction_moveR_twistR&#45;&gt;MonoidalTwistConstruction_moveL_twistR</title>
<path fill="none" stroke="black" d="M634.05,-164.14C633.6,-156.01 633.05,-146.08 632.54,-136.91"/>
<polygon fill="black" stroke="black" points="636.02,-136.43 631.97,-126.64 629.03,-136.82 636.02,-136.43"/>
</g>
<!-- MonoidalTwistConstruction_moveL_twistL -->
<g id="node18" class="node">
<title>MonoidalTwistConstruction_moveL_twistL</title>
<g id="a_node18"><a xlink:href="MonoidalTwistConstruction.html#moveL_twistL" xlink:title="moveL_twistL">
<ellipse fill="#f070d1" stroke="black" cx="800" cy="-108.2" rx="75.29" ry="18"/>
<text text-anchor="middle" x="800" y="-104.5" font-family="Times,serif" font-size="14.00">moveL_twistL</text>
</a>
</g>
</g>
<!-- MonoidalTwistConstruction_moveR_twistL&#45;&gt;MonoidalTwistConstruction_moveL_twistL -->
<g id="edge24" class="edge">
<title>MonoidalTwistConstruction_moveR_twistL&#45;&gt;MonoidalTwistConstruction_moveL_twistL</title>
<path fill="none" stroke="black" d="M848.13,-250.12C807.39,-237.91 753.53,-218.82 741,-200.2 732.07,-186.93 734.62,-178.87 741,-164.2 746.52,-151.51 756.57,-140.43 766.83,-131.59"/>
<polygon fill="black" stroke="black" points="769.06,-134.29 774.64,-125.29 764.66,-128.84 769.06,-134.29"/>
</g>
<!-- MonoidalTwistConstruction_moveL_twistR&#45;&gt;MonoidalTwistConstruction_twiste -->
<g id="edge25" class="edge">
<title>MonoidalTwistConstruction_moveL_twistR&#45;&gt;MonoidalTwistConstruction_twiste</title>
<path fill="none" stroke="black" d="M631,-90.01C631,-81.99 631,-72.25 631,-63.27"/>
<polygon fill="black" stroke="black" points="634.5,-63.23 631,-53.23 627.5,-63.23 634.5,-63.23"/>
</g>
<!-- MonoidalTwistConstruction_moveL_twistL&#45;&gt;MonoidalTwistConstruction_twiste -->
<g id="edge26" class="edge">
<title>MonoidalTwistConstruction_moveL_twistL&#45;&gt;MonoidalTwistConstruction_twiste</title>
<path fill="none" stroke="black" d="M764.16,-92.14C735.95,-80.3 696.78,-63.84 668.22,-51.84"/>
<polygon fill="black" stroke="black" points="669.55,-48.6 658.98,-47.96 666.84,-55.06 669.55,-48.6"/>
</g>
<!-- MonoidalTwistConstruction_twist_nat_r -->
<g id="node19" class="node">
<title>MonoidalTwistConstruction_twist_nat_r</title>
<g id="a_node19"><a xlink:href="MonoidalTwistConstruction.html#twist_nat_r" xlink:title="twist_nat_r">
<ellipse fill="#f070d1" stroke="black" cx="113" cy="-502.2" rx="62.3" ry="18"/>
<ellipse fill="none" stroke="black" cx="113" cy="-502.2" rx="66.3" ry="22"/>
<ellipse fill="none" stroke="black" cx="113" cy="-502.2" rx="70.29" ry="26"/>
<text text-anchor="middle" x="113" y="-498.5" font-family="Times,serif" font-size="14.00">twist_nat_r</text>
</a>
</g>
</g>
</g>
</svg>
