<?xml version="1.0" encoding="UTF-8" standalone="no"?>
<!DOCTYPE svg PUBLIC "-//W3C//DTD SVG 1.1//EN"
 "http://www.w3.org/Graphics/SVG/1.1/DTD/svg11.dtd">
<!-- Generated by graphviz version 2.43.0 (0)
 -->
<!-- Title: HoTT_Algebra_AbGroups_AbHom Pages: 1 -->
<svg width="942pt" height="475pt"
 viewBox="0.00 0.00 942.00 475.00" xmlns="http://www.w3.org/2000/svg" xmlns:xlink="http://www.w3.org/1999/xlink">
<g id="graph0" class="graph" transform="scale(1 1) rotate(0) translate(4 471)">
<title>HoTT_Algebra_AbGroups_AbHom</title>
<polygon fill="white" stroke="transparent" points="-4,4 -4,-471 938,-471 938,4 -4,4"/>
<g id="clust1" class="cluster">
<title>cluster_AbHom</title>
<polygon fill="#ffffc3" stroke="black" points="10.36,-8 10.36,-459 923.64,-459 923.64,-8 10.36,-8"/>
<text text-anchor="middle" x="44.86" y="-443.8" font-family="Times,serif" font-size="14.00">AbHom</text>
</g>
<!-- AbHom_isembedding_precompose_surjection_ab -->
<g id="node1" class="node">
<title>AbHom_isembedding_precompose_surjection_ab</title>
<g id="a_node1"><a xlink:href="AbHom.html#isembedding_precompose_surjection_ab" xlink:title="isembedding_precompose_surjection_ab">
<ellipse fill="#f070d1" stroke="black" cx="647.4" cy="-402" rx="196.87" ry="18"/>
<ellipse fill="none" stroke="black" cx="647.4" cy="-402" rx="200.87" ry="22"/>
<ellipse fill="none" stroke="black" cx="647.4" cy="-402" rx="204.87" ry="26"/>
<text text-anchor="middle" x="647.4" y="-398.3" font-family="Times,serif" font-size="14.00">isembedding_precompose_surjection_ab</text>
</a>
</g>
</g>
<!-- AbHom_is0bifunctor_ab_hom -->
<g id="node3" class="node">
<title>AbHom_is0bifunctor_ab_hom</title>
<g id="a_node3"><a xlink:href="AbHom.html#is0bifunctor_ab_hom" xlink:title="is0bifunctor_ab_hom">
<ellipse fill="#f070d1" stroke="black" cx="774.4" cy="-322" rx="106.68" ry="18"/>
<text text-anchor="middle" x="774.4" y="-318.3" font-family="Times,serif" font-size="14.00">is0bifunctor_ab_hom</text>
</a>
</g>
</g>
<!-- AbHom_isembedding_precompose_surjection_ab&#45;&gt;AbHom_is0bifunctor_ab_hom -->
<g id="edge1" class="edge">
<title>AbHom_isembedding_precompose_surjection_ab&#45;&gt;AbHom_is0bifunctor_ab_hom</title>
<path fill="none" stroke="black" d="M687.59,-376.32C703.87,-366.32 722.52,-354.86 738.36,-345.14"/>
<polygon fill="black" stroke="black" points="740.63,-347.85 747.32,-339.64 736.96,-341.89 740.63,-347.85"/>
</g>
<!-- AbHom_is1bifunctor_ab_hom -->
<g id="node2" class="node">
<title>AbHom_is1bifunctor_ab_hom</title>
<g id="a_node2"><a xlink:href="AbHom.html#is1bifunctor_ab_hom" xlink:title="is1bifunctor_ab_hom">
<ellipse fill="#f070d1" stroke="black" cx="209.4" cy="-402" rx="106.67" ry="18"/>
<ellipse fill="none" stroke="black" cx="209.4" cy="-402" rx="110.68" ry="22"/>
<ellipse fill="none" stroke="black" cx="209.4" cy="-402" rx="114.68" ry="26"/>
<text text-anchor="middle" x="209.4" y="-398.3" font-family="Times,serif" font-size="14.00">is1bifunctor_ab_hom</text>
</a>
</g>
</g>
<!-- AbHom_is1bifunctor_ab_hom&#45;&gt;AbHom_is0bifunctor_ab_hom -->
<g id="edge2" class="edge">
<title>AbHom_is1bifunctor_ab_hom&#45;&gt;AbHom_is0bifunctor_ab_hom</title>
<path fill="none" stroke="black" d="M305.57,-387.72C411.66,-373.08 581.04,-349.7 684.54,-335.41"/>
<polygon fill="black" stroke="black" points="685.23,-338.84 694.65,-334.01 684.27,-331.91 685.23,-338.84"/>
</g>
<!-- AbHom_is1functor_ab_hom10 -->
<g id="node4" class="node">
<title>AbHom_is1functor_ab_hom10</title>
<g id="a_node4"><a xlink:href="AbHom.html#is1functor_ab_hom10" xlink:title="is1functor_ab_hom10">
<ellipse fill="#f070d1" stroke="black" cx="163.4" cy="-322" rx="109.68" ry="18"/>
<text text-anchor="middle" x="163.4" y="-318.3" font-family="Times,serif" font-size="14.00">is1functor_ab_hom10</text>
</a>
</g>
</g>
<!-- AbHom_is1bifunctor_ab_hom&#45;&gt;AbHom_is1functor_ab_hom10 -->
<g id="edge3" class="edge">
<title>AbHom_is1bifunctor_ab_hom&#45;&gt;AbHom_is1functor_ab_hom10</title>
<path fill="none" stroke="black" d="M194.6,-375.89C189.45,-367.16 183.68,-357.37 178.51,-348.61"/>
<polygon fill="black" stroke="black" points="181.48,-346.77 173.39,-339.93 175.45,-350.32 181.48,-346.77"/>
</g>
<!-- AbHom_is1functor_ab_hom01 -->
<g id="node5" class="node">
<title>AbHom_is1functor_ab_hom01</title>
<g id="a_node5"><a xlink:href="AbHom.html#is1functor_ab_hom01" xlink:title="is1functor_ab_hom01">
<ellipse fill="#f070d1" stroke="black" cx="471.4" cy="-322" rx="109.68" ry="18"/>
<text text-anchor="middle" x="471.4" y="-318.3" font-family="Times,serif" font-size="14.00">is1functor_ab_hom01</text>
</a>
</g>
</g>
<!-- AbHom_is1bifunctor_ab_hom&#45;&gt;AbHom_is1functor_ab_hom01 -->
<g id="edge4" class="edge">
<title>AbHom_is1bifunctor_ab_hom&#45;&gt;AbHom_is1functor_ab_hom01</title>
<path fill="none" stroke="black" d="M276.88,-380.91C318.34,-368.57 371,-352.89 411.07,-340.96"/>
<polygon fill="black" stroke="black" points="412.13,-344.3 420.71,-338.09 410.13,-337.59 412.13,-344.3"/>
</g>
<!-- AbHom_is0functor_ab_hom10 -->
<g id="node6" class="node">
<title>AbHom_is0functor_ab_hom10</title>
<g id="a_node6"><a xlink:href="AbHom.html#is0functor_ab_hom10" xlink:title="is0functor_ab_hom10">
<ellipse fill="#f070d1" stroke="black" cx="312.4" cy="-250" rx="109.68" ry="18"/>
<text text-anchor="middle" x="312.4" y="-246.3" font-family="Times,serif" font-size="14.00">is0functor_ab_hom10</text>
</a>
</g>
</g>
<!-- AbHom_is0bifunctor_ab_hom&#45;&gt;AbHom_is0functor_ab_hom10 -->
<g id="edge5" class="edge">
<title>AbHom_is0bifunctor_ab_hom&#45;&gt;AbHom_is0functor_ab_hom10</title>
<path fill="none" stroke="black" d="M697.86,-309.4C615.96,-296.99 486.27,-277.34 400.27,-264.31"/>
<polygon fill="black" stroke="black" points="400.67,-260.83 390.26,-262.8 399.62,-267.75 400.67,-260.83"/>
</g>
<!-- AbHom_is0functor_ab_hom01 -->
<g id="node7" class="node">
<title>AbHom_is0functor_ab_hom01</title>
<g id="a_node7"><a xlink:href="AbHom.html#is0functor_ab_hom01" xlink:title="is0functor_ab_hom01">
<ellipse fill="#f070d1" stroke="black" cx="620.4" cy="-250" rx="109.68" ry="18"/>
<text text-anchor="middle" x="620.4" y="-246.3" font-family="Times,serif" font-size="14.00">is0functor_ab_hom01</text>
</a>
</g>
</g>
<!-- AbHom_is0bifunctor_ab_hom&#45;&gt;AbHom_is0functor_ab_hom01 -->
<g id="edge6" class="edge">
<title>AbHom_is0bifunctor_ab_hom&#45;&gt;AbHom_is0functor_ab_hom01</title>
<path fill="none" stroke="black" d="M739.07,-304.94C717.14,-294.97 688.76,-282.07 665.25,-271.38"/>
<polygon fill="black" stroke="black" points="666.39,-268.06 655.84,-267.11 663.49,-274.43 666.39,-268.06"/>
</g>
<!-- AbHom_is1functor_ab_hom10&#45;&gt;AbHom_is0functor_ab_hom10 -->
<g id="edge7" class="edge">
<title>AbHom_is1functor_ab_hom10&#45;&gt;AbHom_is0functor_ab_hom10</title>
<path fill="none" stroke="black" d="M197.96,-304.76C219.03,-294.87 246.14,-282.13 268.68,-271.54"/>
<polygon fill="black" stroke="black" points="270.47,-274.57 278.03,-267.15 267.5,-268.23 270.47,-274.57"/>
</g>
<!-- AbHom_is1functor_ab_hom01&#45;&gt;AbHom_is0functor_ab_hom01 -->
<g id="edge8" class="edge">
<title>AbHom_is1functor_ab_hom01&#45;&gt;AbHom_is0functor_ab_hom01</title>
<path fill="none" stroke="black" d="M505.96,-304.76C527.03,-294.87 554.14,-282.13 576.68,-271.54"/>
<polygon fill="black" stroke="black" points="578.47,-274.57 586.03,-267.15 575.5,-268.23 578.47,-274.57"/>
</g>
<!-- AbHom_ab_hom -->
<g id="node8" class="node">
<title>AbHom_ab_hom</title>
<g id="a_node8"><a xlink:href="AbHom.html#ab_hom" xlink:title="ab_hom">
<ellipse fill="#f070d1" stroke="black" cx="466.4" cy="-178" rx="46.29" ry="18"/>
<text text-anchor="middle" x="466.4" y="-174.3" font-family="Times,serif" font-size="14.00">ab_hom</text>
</a>
</g>
</g>
<!-- AbHom_is0functor_ab_hom10&#45;&gt;AbHom_ab_hom -->
<g id="edge9" class="edge">
<title>AbHom_is0functor_ab_hom10&#45;&gt;AbHom_ab_hom</title>
<path fill="none" stroke="black" d="M347.74,-232.94C371.72,-222.04 403.43,-207.62 428.04,-196.44"/>
<polygon fill="black" stroke="black" points="429.77,-199.5 437.43,-192.17 426.88,-193.12 429.77,-199.5"/>
</g>
<!-- AbHom_is0functor_ab_hom01&#45;&gt;AbHom_ab_hom -->
<g id="edge10" class="edge">
<title>AbHom_is0functor_ab_hom01&#45;&gt;AbHom_ab_hom</title>
<path fill="none" stroke="black" d="M585.07,-232.94C561.09,-222.04 529.38,-207.62 504.77,-196.44"/>
<polygon fill="black" stroke="black" points="505.93,-193.12 495.38,-192.17 503.04,-199.5 505.93,-193.12"/>
</g>
<!-- AbHom_grp_hom -->
<g id="node9" class="node">
<title>AbHom_grp_hom</title>
<g id="a_node9"><a xlink:href="AbHom.html#grp_hom" xlink:title="grp_hom">
<ellipse fill="#f070d1" stroke="black" cx="466.4" cy="-106" rx="51.19" ry="18"/>
<text text-anchor="middle" x="466.4" y="-102.3" font-family="Times,serif" font-size="14.00">grp_hom</text>
</a>
</g>
</g>
<!-- AbHom_ab_hom&#45;&gt;AbHom_grp_hom -->
<g id="edge11" class="edge">
<title>AbHom_ab_hom&#45;&gt;AbHom_grp_hom</title>
<path fill="none" stroke="black" d="M466.4,-159.7C466.4,-151.98 466.4,-142.71 466.4,-134.11"/>
<polygon fill="black" stroke="black" points="469.91,-134.1 466.4,-124.1 462.91,-134.1 469.91,-134.1"/>
</g>
<!-- AbHom_negate_hom -->
<g id="node10" class="node">
<title>AbHom_negate_hom</title>
<g id="a_node10"><a xlink:href="AbHom.html#negate_hom" xlink:title="negate_hom">
<ellipse fill="#f070d1" stroke="black" cx="364.4" cy="-34" rx="66.89" ry="18"/>
<text text-anchor="middle" x="364.4" y="-30.3" font-family="Times,serif" font-size="14.00">negate_hom</text>
</a>
</g>
</g>
<!-- AbHom_grp_hom&#45;&gt;AbHom_negate_hom -->
<g id="edge12" class="edge">
<title>AbHom_grp_hom&#45;&gt;AbHom_negate_hom</title>
<path fill="none" stroke="black" d="M444.02,-89.64C429.97,-79.99 411.63,-67.41 396.1,-56.75"/>
<polygon fill="black" stroke="black" points="398.03,-53.83 387.8,-51.06 394.06,-59.6 398.03,-53.83"/>
</g>
<!-- AbHom_ab_homo_add -->
<g id="node11" class="node">
<title>AbHom_ab_homo_add</title>
<g id="a_node11"><a xlink:href="AbHom.html#ab_homo_add" xlink:title="ab_homo_add">
<ellipse fill="#f070d1" stroke="black" cx="568.4" cy="-34" rx="73.39" ry="18"/>
<text text-anchor="middle" x="568.4" y="-30.3" font-family="Times,serif" font-size="14.00">ab_homo_add</text>
</a>
</g>
</g>
<!-- AbHom_grp_hom&#45;&gt;AbHom_ab_homo_add -->
<g id="edge13" class="edge">
<title>AbHom_grp_hom&#45;&gt;AbHom_ab_homo_add</title>
<path fill="none" stroke="black" d="M488.79,-89.64C502.74,-80.06 520.92,-67.59 536.39,-56.97"/>
<polygon fill="black" stroke="black" points="538.39,-59.85 544.65,-51.3 534.43,-54.07 538.39,-59.85"/>
</g>
</g>
</svg>
