<?xml version="1.0" encoding="UTF-8" standalone="no"?>
<!DOCTYPE svg PUBLIC "-//W3C//DTD SVG 1.1//EN"
 "http://www.w3.org/Graphics/SVG/1.1/DTD/svg11.dtd">
<!-- Generated by graphviz version 2.43.0 (0)
 -->
<!-- Title: HoTT_Classes_implementations_bool Pages: 1 -->
<svg width="549pt" height="278pt"
 viewBox="0.00 0.00 549.00 278.50" xmlns="http://www.w3.org/2000/svg" xmlns:xlink="http://www.w3.org/1999/xlink">
<g id="graph0" class="graph" transform="scale(1 1) rotate(0) translate(4 274.5)">
<title>HoTT_Classes_implementations_bool</title>
<polygon fill="white" stroke="transparent" points="-4,4 -4,-274.5 545,-274.5 545,4 -4,4"/>
<g id="clust1" class="cluster">
<title>cluster_bool</title>
<polygon fill="#ffffc3" stroke="black" points="8,-12.09 8,-258.41 533,-258.41 533,-12.09 8,-12.09"/>
<text text-anchor="middle" x="31.5" y="-243.21" font-family="Times,serif" font-size="14.00">bool</text>
</g>
<!-- bool_lattice_bool -->
<g id="node1" class="node">
<title>bool_lattice_bool</title>
<g id="a_node1"><a xlink:href="bool.html#lattice_bool" xlink:title="lattice_bool">
<ellipse fill="#f070d1" stroke="black" cx="273" cy="-172.09" rx="63.87" ry="18"/>
<ellipse fill="none" stroke="black" cx="273" cy="-172.09" rx="67.88" ry="22"/>
<ellipse fill="none" stroke="black" cx="273" cy="-172.09" rx="71.89" ry="26"/>
<text text-anchor="middle" x="273" y="-168.39" font-family="Times,serif" font-size="14.00">lattice_bool</text>
</a>
</g>
</g>
<!-- bool_top_bool -->
<g id="node2" class="node">
<title>bool_top_bool</title>
<g id="a_node2"><a xlink:href="bool.html#top_bool" xlink:title="top_bool">
<ellipse fill="#f070d1" stroke="black" cx="66" cy="-51.09" rx="50.09" ry="18"/>
<text text-anchor="middle" x="66" y="-47.39" font-family="Times,serif" font-size="14.00">top_bool</text>
</a>
</g>
</g>
<!-- bool_lattice_bool&#45;&gt;bool_top_bool -->
<g id="edge1" class="edge">
<title>bool_lattice_bool&#45;&gt;bool_top_bool</title>
<path fill="none" stroke="black" d="M235.99,-149.81C197.51,-127.69 137.75,-93.34 100.3,-71.81"/>
<polygon fill="black" stroke="black" points="101.7,-68.57 91.28,-66.62 98.21,-74.64 101.7,-68.57"/>
</g>
<!-- bool_bottom_bool -->
<g id="node3" class="node">
<title>bool_bottom_bool</title>
<g id="a_node3"><a xlink:href="bool.html#bottom_bool" xlink:title="bottom_bool">
<ellipse fill="#f070d1" stroke="black" cx="202" cy="-51.09" rx="67.69" ry="18"/>
<text text-anchor="middle" x="202" y="-47.39" font-family="Times,serif" font-size="14.00">bottom_bool</text>
</a>
</g>
</g>
<!-- bool_lattice_bool&#45;&gt;bool_bottom_bool -->
<g id="edge2" class="edge">
<title>bool_lattice_bool&#45;&gt;bool_bottom_bool</title>
<path fill="none" stroke="black" d="M258.29,-146.43C246.31,-126.36 229.46,-98.12 217.32,-77.77"/>
<polygon fill="black" stroke="black" points="220.24,-75.83 212.11,-69.04 214.23,-79.42 220.24,-75.83"/>
</g>
<!-- bool_meet_bool -->
<g id="node4" class="node">
<title>bool_meet_bool</title>
<g id="a_node4"><a xlink:href="bool.html#meet_bool" xlink:title="meet_bool">
<ellipse fill="#f070d1" stroke="black" cx="345" cy="-51.09" rx="57.69" ry="18"/>
<text text-anchor="middle" x="345" y="-47.39" font-family="Times,serif" font-size="14.00">meet_bool</text>
</a>
</g>
</g>
<!-- bool_lattice_bool&#45;&gt;bool_meet_bool -->
<g id="edge3" class="edge">
<title>bool_lattice_bool&#45;&gt;bool_meet_bool</title>
<path fill="none" stroke="black" d="M287.92,-146.43C300.06,-126.36 317.15,-98.12 329.46,-77.77"/>
<polygon fill="black" stroke="black" points="332.56,-79.41 334.74,-69.04 326.57,-75.78 332.56,-79.41"/>
</g>
<!-- bool_join_bool -->
<g id="node5" class="node">
<title>bool_join_bool</title>
<g id="a_node5"><a xlink:href="bool.html#join_bool" xlink:title="join_bool">
<ellipse fill="#f070d1" stroke="black" cx="473" cy="-51.09" rx="51.99" ry="18"/>
<text text-anchor="middle" x="473" y="-47.39" font-family="Times,serif" font-size="14.00">join_bool</text>
</a>
</g>
</g>
<!-- bool_lattice_bool&#45;&gt;bool_join_bool -->
<g id="edge4" class="edge">
<title>bool_lattice_bool&#45;&gt;bool_join_bool</title>
<path fill="none" stroke="black" d="M309.22,-149.54C346.27,-127.5 403.36,-93.53 439.42,-72.07"/>
<polygon fill="black" stroke="black" points="441.3,-75.02 448.11,-66.9 437.72,-69.01 441.3,-75.02"/>
</g>
</g>
</svg>
