<?xml version="1.0" encoding="UTF-8" standalone="no"?>
<!DOCTYPE svg PUBLIC "-//W3C//DTD SVG 1.1//EN"
 "http://www.w3.org/Graphics/SVG/1.1/DTD/svg11.dtd">
<!-- Generated by graphviz version 2.43.0 (0)
 -->
<!-- Title: HoTT_Pointed_pEquiv Pages: 1 -->
<svg width="3301pt" height="1654pt"
 viewBox="0.00 0.00 3301.00 1654.50" xmlns="http://www.w3.org/2000/svg" xmlns:xlink="http://www.w3.org/1999/xlink">
<g id="graph0" class="graph" transform="scale(1 1) rotate(0) translate(4 1650.5)">
<title>HoTT_Pointed_pEquiv</title>
<polygon fill="white" stroke="transparent" points="-4,4 -4,-1650.5 3297,-1650.5 3297,4 -4,4"/>
<g id="clust1" class="cluster">
<title>cluster_pEquiv</title>
<polygon fill="#ffffc3" stroke="black" points="8,-73.59 8,-1572.91 3285,-1572.91 3285,-73.59 8,-73.59"/>
<text text-anchor="middle" x="41.5" y="-1557.71" font-family="Times,serif" font-size="14.00">pEquiv</text>
</g>
<!-- pEquiv_equiv_pequiv_inverse -->
<g id="node1" class="node">
<title>pEquiv_equiv_pequiv_inverse</title>
<g id="a_node1"><a xlink:href="pEquiv.html#equiv_pequiv_inverse" xlink:title="equiv_pequiv_inverse">
<ellipse fill="#f070d1" stroke="black" cx="3159" cy="-1048.59" rx="110.48" ry="18"/>
<ellipse fill="none" stroke="black" cx="3159" cy="-1048.59" rx="114.48" ry="22"/>
<ellipse fill="none" stroke="black" cx="3159" cy="-1048.59" rx="118.48" ry="26"/>
<text text-anchor="middle" x="3159" y="-1044.89" font-family="Times,serif" font-size="14.00">equiv_pequiv_inverse</text>
</a>
</g>
</g>
<!-- pEquiv_pequiv_pequiv_postcompose -->
<g id="node2" class="node">
<title>pEquiv_pequiv_pequiv_postcompose</title>
<g id="a_node2"><a xlink:href="pEquiv.html#pequiv_pequiv_postcompose" xlink:title="pequiv_pequiv_postcompose">
<ellipse fill="#f070d1" stroke="black" cx="2872" cy="-1048.59" rx="142.18" ry="18"/>
<ellipse fill="none" stroke="black" cx="2872" cy="-1048.59" rx="146.18" ry="22"/>
<ellipse fill="none" stroke="black" cx="2872" cy="-1048.59" rx="150.17" ry="26"/>
<text text-anchor="middle" x="2872" y="-1044.89" font-family="Times,serif" font-size="14.00">pequiv_pequiv_postcompose</text>
</a>
</g>
</g>
<!-- pEquiv_Build_pEquiv_ -->
<g id="node12" class="node">
<title>pEquiv_Build_pEquiv_</title>
<g id="a_node12"><a xlink:href="pEquiv.html#Build_pEquiv'" xlink:title="Build_pEquiv&#39;">
<ellipse fill="#f070d1" stroke="black" cx="2715" cy="-312.59" rx="74.99" ry="18"/>
<text text-anchor="middle" x="2715" y="-308.89" font-family="Times,serif" font-size="14.00">Build_pEquiv&#39;</text>
</a>
</g>
</g>
<!-- pEquiv_pequiv_pequiv_postcompose&#45;&gt;pEquiv_Build_pEquiv_ -->
<g id="edge1" class="edge">
<title>pEquiv_pequiv_pequiv_postcompose&#45;&gt;pEquiv_Build_pEquiv_</title>
<path fill="none" stroke="black" d="M2866.6,-1022.32C2842.57,-910 2745.54,-456.38 2720.78,-340.6"/>
<polygon fill="black" stroke="black" points="2724.19,-339.81 2718.67,-330.76 2717.34,-341.27 2724.19,-339.81"/>
</g>
<!-- pEquiv_pequiv_pequiv_precompose -->
<g id="node3" class="node">
<title>pEquiv_pequiv_pequiv_precompose</title>
<g id="a_node3"><a xlink:href="pEquiv.html#pequiv_pequiv_precompose" xlink:title="pequiv_pequiv_precompose">
<ellipse fill="#f070d1" stroke="black" cx="2558" cy="-1048.59" rx="137.59" ry="18"/>
<ellipse fill="none" stroke="black" cx="2558" cy="-1048.59" rx="141.58" ry="22"/>
<ellipse fill="none" stroke="black" cx="2558" cy="-1048.59" rx="145.58" ry="26"/>
<text text-anchor="middle" x="2558" y="-1044.89" font-family="Times,serif" font-size="14.00">pequiv_pequiv_precompose</text>
</a>
</g>
</g>
<!-- pEquiv_pequiv_pequiv_precompose&#45;&gt;pEquiv_Build_pEquiv_ -->
<g id="edge2" class="edge">
<title>pEquiv_pequiv_pequiv_precompose&#45;&gt;pEquiv_Build_pEquiv_</title>
<path fill="none" stroke="black" d="M2563.4,-1022.32C2587.43,-910 2684.46,-456.38 2709.22,-340.6"/>
<polygon fill="black" stroke="black" points="2712.66,-341.27 2711.33,-330.76 2705.81,-339.81 2712.66,-341.27"/>
</g>
<!-- pEquiv_moveR_pequiv_fV -->
<g id="node4" class="node">
<title>pEquiv_moveR_pequiv_fV</title>
<g id="a_node4"><a xlink:href="pEquiv.html#moveR_pequiv_fV" xlink:title="moveR_pequiv_fV">
<ellipse fill="#f070d1" stroke="black" cx="2294" cy="-1048.59" rx="92.1" ry="18"/>
<ellipse fill="none" stroke="black" cx="2294" cy="-1048.59" rx="96.09" ry="22"/>
<ellipse fill="none" stroke="black" cx="2294" cy="-1048.59" rx="100.08" ry="26"/>
<text text-anchor="middle" x="2294" y="-1044.89" font-family="Times,serif" font-size="14.00">moveR_pequiv_fV</text>
</a>
</g>
</g>
<!-- pEquiv_moveL_pequiv_fV -->
<g id="node5" class="node">
<title>pEquiv_moveL_pequiv_fV</title>
<g id="a_node5"><a xlink:href="pEquiv.html#moveL_pequiv_fV" xlink:title="moveL_pequiv_fV">
<ellipse fill="#f070d1" stroke="black" cx="2077" cy="-1048.59" rx="90.98" ry="18"/>
<ellipse fill="none" stroke="black" cx="2077" cy="-1048.59" rx="94.98" ry="22"/>
<ellipse fill="none" stroke="black" cx="2077" cy="-1048.59" rx="98.98" ry="26"/>
<text text-anchor="middle" x="2077" y="-1044.89" font-family="Times,serif" font-size="14.00">moveL_pequiv_fV</text>
</a>
</g>
</g>
<!-- pEquiv_moveR_pequiv_Vf -->
<g id="node6" class="node">
<title>pEquiv_moveR_pequiv_Vf</title>
<g id="a_node6"><a xlink:href="pEquiv.html#moveR_pequiv_Vf" xlink:title="moveR_pequiv_Vf">
<ellipse fill="#f070d1" stroke="black" cx="1860" cy="-1048.59" rx="92.1" ry="18"/>
<ellipse fill="none" stroke="black" cx="1860" cy="-1048.59" rx="96.09" ry="22"/>
<ellipse fill="none" stroke="black" cx="1860" cy="-1048.59" rx="100.08" ry="26"/>
<text text-anchor="middle" x="1860" y="-1044.89" font-family="Times,serif" font-size="14.00">moveR_pequiv_Vf</text>
</a>
</g>
</g>
<!-- pEquiv_moveL_pequiv_Vf -->
<g id="node7" class="node">
<title>pEquiv_moveL_pequiv_Vf</title>
<g id="a_node7"><a xlink:href="pEquiv.html#moveL_pequiv_Vf" xlink:title="moveL_pequiv_Vf">
<ellipse fill="#f070d1" stroke="black" cx="1643" cy="-1048.59" rx="90.98" ry="18"/>
<ellipse fill="none" stroke="black" cx="1643" cy="-1048.59" rx="94.98" ry="22"/>
<ellipse fill="none" stroke="black" cx="1643" cy="-1048.59" rx="98.98" ry="26"/>
<text text-anchor="middle" x="1643" y="-1044.89" font-family="Times,serif" font-size="14.00">moveL_pequiv_Vf</text>
</a>
</g>
</g>
<!-- pEquiv_moveL_pequiv_Mf -->
<g id="node8" class="node">
<title>pEquiv_moveL_pequiv_Mf</title>
<g id="a_node8"><a xlink:href="pEquiv.html#moveL_pequiv_Mf" xlink:title="moveL_pequiv_Mf">
<ellipse fill="#f070d1" stroke="black" cx="1424" cy="-1048.59" rx="94.46" ry="18"/>
<ellipse fill="none" stroke="black" cx="1424" cy="-1048.59" rx="98.47" ry="22"/>
<ellipse fill="none" stroke="black" cx="1424" cy="-1048.59" rx="102.48" ry="26"/>
<text text-anchor="middle" x="1424" y="-1044.89" font-family="Times,serif" font-size="14.00">moveL_pequiv_Mf</text>
</a>
</g>
</g>
<!-- pEquiv_moveR_pequiv_Mf -->
<g id="node9" class="node">
<title>pEquiv_moveR_pequiv_Mf</title>
<g id="a_node9"><a xlink:href="pEquiv.html#moveR_pequiv_Mf" xlink:title="moveR_pequiv_Mf">
<ellipse fill="#f070d1" stroke="black" cx="1201" cy="-1048.59" rx="94.79" ry="18"/>
<ellipse fill="none" stroke="black" cx="1201" cy="-1048.59" rx="98.79" ry="22"/>
<ellipse fill="none" stroke="black" cx="1201" cy="-1048.59" rx="102.78" ry="26"/>
<text text-anchor="middle" x="1201" y="-1044.89" font-family="Times,serif" font-size="14.00">moveR_pequiv_Mf</text>
</a>
</g>
</g>
<!-- pEquiv_pequiv_adjointify_ -->
<g id="node10" class="node">
<title>pEquiv_pequiv_adjointify_</title>
<g id="a_node10"><a xlink:href="pEquiv.html#pequiv_adjointify'" xlink:title="pequiv_adjointify&#39;">
<ellipse fill="#f070d1" stroke="black" cx="979" cy="-1048.59" rx="92.89" ry="18"/>
<ellipse fill="none" stroke="black" cx="979" cy="-1048.59" rx="96.89" ry="22"/>
<ellipse fill="none" stroke="black" cx="979" cy="-1048.59" rx="100.88" ry="26"/>
<text text-anchor="middle" x="979" y="-1044.89" font-family="Times,serif" font-size="14.00">pequiv_adjointify&#39;</text>
</a>
</g>
</g>
<!-- pEquiv_pequiv_adjointify -->
<g id="node11" class="node">
<title>pEquiv_pequiv_adjointify</title>
<g id="a_node11"><a xlink:href="pEquiv.html#pequiv_adjointify" xlink:title="pequiv_adjointify">
<ellipse fill="#f070d1" stroke="black" cx="762" cy="-1048.59" rx="90.2" ry="18"/>
<ellipse fill="none" stroke="black" cx="762" cy="-1048.59" rx="94.19" ry="22"/>
<ellipse fill="none" stroke="black" cx="762" cy="-1048.59" rx="98.18" ry="26"/>
<text text-anchor="middle" x="762" y="-1044.89" font-family="Times,serif" font-size="14.00">pequiv_adjointify</text>
</a>
</g>
</g>
<!-- pEquiv_pequiv_transitive -->
<g id="node13" class="node">
<title>pEquiv_pequiv_transitive</title>
<g id="a_node13"><a xlink:href="pEquiv.html#pequiv_transitive" xlink:title="pequiv_transitive">
<ellipse fill="#f070d1" stroke="black" cx="547" cy="-1048.59" rx="90.98" ry="18"/>
<ellipse fill="none" stroke="black" cx="547" cy="-1048.59" rx="94.98" ry="22"/>
<ellipse fill="none" stroke="black" cx="547" cy="-1048.59" rx="98.98" ry="26"/>
<text text-anchor="middle" x="547" y="-1044.89" font-family="Times,serif" font-size="14.00">pequiv_transitive</text>
</a>
</g>
</g>
<!-- pEquiv_pequiv_compose -->
<g id="node14" class="node">
<title>pEquiv_pequiv_compose</title>
<g id="a_node14"><a xlink:href="pEquiv.html#pequiv_compose" xlink:title="pequiv_compose">
<ellipse fill="#f070d1" stroke="black" cx="547" cy="-312.59" rx="87.18" ry="18"/>
<text text-anchor="middle" x="547" y="-308.89" font-family="Times,serif" font-size="14.00">pequiv_compose</text>
</a>
</g>
</g>
<!-- pEquiv_pequiv_transitive&#45;&gt;pEquiv_pequiv_compose -->
<g id="edge3" class="edge">
<title>pEquiv_pequiv_transitive&#45;&gt;pEquiv_pequiv_compose</title>
<path fill="none" stroke="black" d="M547,-1022.32C547,-910.11 547,-457.29 547,-340.95"/>
<polygon fill="black" stroke="black" points="550.5,-340.76 547,-330.76 543.5,-340.76 550.5,-340.76"/>
</g>
<!-- pEquiv_pequiv_symmetric -->
<g id="node15" class="node">
<title>pEquiv_pequiv_symmetric</title>
<g id="a_node15"><a xlink:href="pEquiv.html#pequiv_symmetric" xlink:title="pequiv_symmetric">
<ellipse fill="#f070d1" stroke="black" cx="326" cy="-1048.59" rx="95.58" ry="18"/>
<ellipse fill="none" stroke="black" cx="326" cy="-1048.59" rx="99.58" ry="22"/>
<ellipse fill="none" stroke="black" cx="326" cy="-1048.59" rx="103.58" ry="26"/>
<text text-anchor="middle" x="326" y="-1044.89" font-family="Times,serif" font-size="14.00">pequiv_symmetric</text>
</a>
</g>
</g>
<!-- pEquiv_pequiv_reflexive -->
<g id="node16" class="node">
<title>pEquiv_pequiv_reflexive</title>
<g id="a_node16"><a xlink:href="pEquiv.html#pequiv_reflexive" xlink:title="pequiv_reflexive">
<ellipse fill="#f070d1" stroke="black" cx="110" cy="-1048.59" rx="86.39" ry="18"/>
<ellipse fill="none" stroke="black" cx="110" cy="-1048.59" rx="90.39" ry="22"/>
<ellipse fill="none" stroke="black" cx="110" cy="-1048.59" rx="94.38" ry="26"/>
<text text-anchor="middle" x="110" y="-1044.89" font-family="Times,serif" font-size="14.00">pequiv_reflexive</text>
</a>
</g>
</g>
</g>
</svg>
