<?xml version="1.0" encoding="UTF-8" standalone="no"?>
<!DOCTYPE svg PUBLIC "-//W3C//DTD SVG 1.1//EN"
 "http://www.w3.org/Graphics/SVG/1.1/DTD/svg11.dtd">
<!-- Generated by graphviz version 2.43.0 (0)
 -->
<!-- Title: HoTT_Truncations_Connectedness Pages: 1 -->
<svg width="3340pt" height="1674pt"
 viewBox="0.00 0.00 3340.00 1674.00" xmlns="http://www.w3.org/2000/svg" xmlns:xlink="http://www.w3.org/1999/xlink">
<g id="graph0" class="graph" transform="scale(1 1) rotate(0) translate(4 1670)">
<title>HoTT_Truncations_Connectedness</title>
<polygon fill="white" stroke="transparent" points="-4,4 -4,-1670 3336,-1670 3336,4 -4,4"/>
<g id="clust1" class="cluster">
<title>cluster_Connectedness</title>
<polygon fill="#ffffc3" stroke="black" points="8,-30.09 8,-1635.91 3324,-1635.91 3324,-30.09 8,-30.09"/>
<text text-anchor="middle" x="70.5" y="-1620.71" font-family="Times,serif" font-size="14.00">Connectedness</text>
</g>
<!-- Connectedness_wedge_incl_elim_uncurried -->
<g id="node1" class="node">
<title>Connectedness_wedge_incl_elim_uncurried</title>
<g id="a_node1"><a xlink:href="Connectedness.html#wedge_incl_elim_uncurried" xlink:title="wedge_incl_elim_uncurried">
<ellipse fill="#f070d1" stroke="black" cx="3172" cy="-1091.09" rx="135.69" ry="18"/>
<ellipse fill="none" stroke="black" cx="3172" cy="-1091.09" rx="139.68" ry="22"/>
<ellipse fill="none" stroke="black" cx="3172" cy="-1091.09" rx="143.68" ry="26"/>
<text text-anchor="middle" x="3172" y="-1087.39" font-family="Times,serif" font-size="14.00">wedge_incl_elim_uncurried</text>
</a>
</g>
</g>
<!-- Connectedness_wedge_incl_elim -->
<g id="node5" class="node">
<title>Connectedness_wedge_incl_elim</title>
<g id="a_node5"><a xlink:href="Connectedness.html#wedge_incl_elim" xlink:title="wedge_incl_elim">
<ellipse fill="#f070d1" stroke="black" cx="2913" cy="-760.09" rx="86.38" ry="18"/>
<text text-anchor="middle" x="2913" y="-756.39" font-family="Times,serif" font-size="14.00">wedge_incl_elim</text>
</a>
</g>
</g>
<!-- Connectedness_wedge_incl_elim_uncurried&#45;&gt;Connectedness_wedge_incl_elim -->
<g id="edge1" class="edge">
<title>Connectedness_wedge_incl_elim_uncurried&#45;&gt;Connectedness_wedge_incl_elim</title>
<path fill="none" stroke="black" d="M3152.32,-1065.09C3104.18,-1003.93 2980.89,-847.33 2932.71,-786.13"/>
<polygon fill="black" stroke="black" points="2935.37,-783.84 2926.43,-778.15 2929.87,-788.17 2935.37,-783.84"/>
</g>
<!-- Connectedness_wedge_incl_comp3 -->
<g id="node2" class="node">
<title>Connectedness_wedge_incl_comp3</title>
<g id="a_node2"><a xlink:href="Connectedness.html#wedge_incl_comp3" xlink:title="wedge_incl_comp3">
<ellipse fill="#f070d1" stroke="black" cx="3211" cy="-1421.09" rx="96.7" ry="18"/>
<ellipse fill="none" stroke="black" cx="3211" cy="-1421.09" rx="100.69" ry="22"/>
<ellipse fill="none" stroke="black" cx="3211" cy="-1421.09" rx="104.68" ry="26"/>
<text text-anchor="middle" x="3211" y="-1417.39" font-family="Times,serif" font-size="14.00">wedge_incl_comp3</text>
</a>
</g>
</g>
<!-- Connectedness_wedge_incl_comp2 -->
<g id="node3" class="node">
<title>Connectedness_wedge_incl_comp2</title>
<g id="a_node3"><a xlink:href="Connectedness.html#wedge_incl_comp2" xlink:title="wedge_incl_comp2">
<ellipse fill="#f070d1" stroke="black" cx="2701" cy="-1091.09" rx="96.68" ry="18"/>
<text text-anchor="middle" x="2701" y="-1087.39" font-family="Times,serif" font-size="14.00">wedge_incl_comp2</text>
</a>
</g>
</g>
<!-- Connectedness_wedge_incl_comp3&#45;&gt;Connectedness_wedge_incl_comp2 -->
<g id="edge2" class="edge">
<title>Connectedness_wedge_incl_comp3&#45;&gt;Connectedness_wedge_incl_comp2</title>
<path fill="none" stroke="black" d="M3174.32,-1396.5C3079.5,-1335.51 2827.23,-1173.27 2735.21,-1114.09"/>
<polygon fill="black" stroke="black" points="2736.86,-1110.99 2726.56,-1108.52 2733.08,-1116.88 2736.86,-1110.99"/>
</g>
<!-- Connectedness_wedge_incl_comp1 -->
<g id="node4" class="node">
<title>Connectedness_wedge_incl_comp1</title>
<g id="a_node4"><a xlink:href="Connectedness.html#wedge_incl_comp1" xlink:title="wedge_incl_comp1">
<ellipse fill="#f070d1" stroke="black" cx="2913" cy="-1091.09" rx="96.68" ry="18"/>
<text text-anchor="middle" x="2913" y="-1087.39" font-family="Times,serif" font-size="14.00">wedge_incl_comp1</text>
</a>
</g>
</g>
<!-- Connectedness_wedge_incl_comp3&#45;&gt;Connectedness_wedge_incl_comp1 -->
<g id="edge3" class="edge">
<title>Connectedness_wedge_incl_comp3&#45;&gt;Connectedness_wedge_incl_comp1</title>
<path fill="none" stroke="black" d="M3188.6,-1395.43C3133.29,-1334.55 2990.7,-1177.61 2935.39,-1116.73"/>
<polygon fill="black" stroke="black" points="2937.8,-1114.18 2928.49,-1109.13 2932.62,-1118.89 2937.8,-1114.18"/>
</g>
<!-- Connectedness_wedge_incl_comp2&#45;&gt;Connectedness_wedge_incl_elim -->
<g id="edge4" class="edge">
<title>Connectedness_wedge_incl_comp2&#45;&gt;Connectedness_wedge_incl_elim</title>
<path fill="none" stroke="black" d="M2712.1,-1072.86C2747.02,-1018.67 2854.76,-851.46 2896.37,-786.9"/>
<polygon fill="black" stroke="black" points="2899.54,-788.44 2902.01,-778.14 2893.65,-784.65 2899.54,-788.44"/>
</g>
<!-- Connectedness_wedge_incl_comp1&#45;&gt;Connectedness_wedge_incl_elim -->
<g id="edge5" class="edge">
<title>Connectedness_wedge_incl_comp1&#45;&gt;Connectedness_wedge_incl_elim</title>
<path fill="none" stroke="black" d="M2913,-1072.86C2913,-1019.12 2913,-854.2 2913,-788.5"/>
<polygon fill="black" stroke="black" points="2916.5,-788.14 2913,-778.14 2909.5,-788.14 2916.5,-788.14"/>
</g>
<!-- Connectedness_isconn_wedge_incl -->
<g id="node6" class="node">
<title>Connectedness_isconn_wedge_incl</title>
<g id="a_node6"><a xlink:href="Connectedness.html#isconn_wedge_incl" xlink:title="isconn_wedge_incl">
<ellipse fill="#f070d1" stroke="black" cx="2913" cy="-429.09" rx="96.38" ry="18"/>
<text text-anchor="middle" x="2913" y="-425.39" font-family="Times,serif" font-size="14.00">isconn_wedge_incl</text>
</a>
</g>
</g>
<!-- Connectedness_wedge_incl_elim&#45;&gt;Connectedness_isconn_wedge_incl -->
<g id="edge6" class="edge">
<title>Connectedness_wedge_incl_elim&#45;&gt;Connectedness_isconn_wedge_incl</title>
<path fill="none" stroke="black" d="M2913,-741.86C2913,-688.12 2913,-523.2 2913,-457.5"/>
<polygon fill="black" stroke="black" points="2916.5,-457.14 2913,-447.14 2909.5,-457.14 2916.5,-457.14"/>
</g>
<!-- Connectedness_conn_point_incl -->
<g id="node26" class="node">
<title>Connectedness_conn_point_incl</title>
<g id="a_node26"><a xlink:href="Connectedness.html#conn_point_incl" xlink:title="conn_point_incl">
<ellipse fill="#f070d1" stroke="black" cx="3037" cy="-128.09" rx="81.79" ry="18"/>
<text text-anchor="middle" x="3037" y="-124.39" font-family="Times,serif" font-size="14.00">conn_point_incl</text>
</a>
</g>
</g>
<!-- Connectedness_isconn_wedge_incl&#45;&gt;Connectedness_conn_point_incl -->
<g id="edge7" class="edge">
<title>Connectedness_isconn_wedge_incl&#45;&gt;Connectedness_conn_point_incl</title>
<path fill="none" stroke="black" d="M2920.2,-410.72C2940.97,-360.64 3001.06,-215.75 3025.98,-155.67"/>
<polygon fill="black" stroke="black" points="3029.33,-156.71 3029.93,-146.13 3022.87,-154.03 3029.33,-156.71"/>
</g>
<!-- Connectedness_istrunc_extension_along_conn -->
<g id="node32" class="node">
<title>Connectedness_istrunc_extension_along_conn</title>
<g id="a_node32"><a xlink:href="Connectedness.html#istrunc_extension_along_conn" xlink:title="istrunc_extension_along_conn">
<ellipse fill="#f070d1" stroke="black" cx="2788" cy="-128.09" rx="148.67" ry="18"/>
<text text-anchor="middle" x="2788" y="-124.39" font-family="Times,serif" font-size="14.00">istrunc_extension_along_conn</text>
</a>
</g>
</g>
<!-- Connectedness_isconn_wedge_incl&#45;&gt;Connectedness_istrunc_extension_along_conn -->
<g id="edge8" class="edge">
<title>Connectedness_isconn_wedge_incl&#45;&gt;Connectedness_istrunc_extension_along_conn</title>
<path fill="none" stroke="black" d="M2905.74,-410.72C2884.81,-360.64 2824.23,-215.75 2799.11,-155.67"/>
<polygon fill="black" stroke="black" points="2802.21,-154.01 2795.13,-146.13 2795.75,-156.71 2802.21,-154.01"/>
</g>
<!-- Connectedness_isconnected_trunc -->
<g id="node7" class="node">
<title>Connectedness_isconnected_trunc</title>
<g id="a_node7"><a xlink:href="Connectedness.html#isconnected_trunc" xlink:title="isconnected_trunc">
<ellipse fill="#f070d1" stroke="black" cx="2985" cy="-1421.09" rx="94.79" ry="18"/>
<ellipse fill="none" stroke="black" cx="2985" cy="-1421.09" rx="98.79" ry="22"/>
<ellipse fill="none" stroke="black" cx="2985" cy="-1421.09" rx="102.78" ry="26"/>
<text text-anchor="middle" x="2985" y="-1417.39" font-family="Times,serif" font-size="14.00">isconnected_trunc</text>
</a>
</g>
</g>
<!-- Connectedness_indecomposable_0connected -->
<g id="node8" class="node">
<title>Connectedness_indecomposable_0connected</title>
<g id="a_node8"><a xlink:href="Connectedness.html#indecomposable_0connected" xlink:title="indecomposable_0connected">
<ellipse fill="#f070d1" stroke="black" cx="1597" cy="-760.09" rx="142.98" ry="18"/>
<ellipse fill="none" stroke="black" cx="1597" cy="-760.09" rx="146.97" ry="22"/>
<ellipse fill="none" stroke="black" cx="1597" cy="-760.09" rx="150.97" ry="26"/>
<text text-anchor="middle" x="1597" y="-756.39" font-family="Times,serif" font-size="14.00">indecomposable_0connected</text>
</a>
</g>
</g>
<!-- Connectedness_merely_path_is0connected -->
<g id="node13" class="node">
<title>Connectedness_merely_path_is0connected</title>
<g id="a_node13"><a xlink:href="Connectedness.html#merely_path_is0connected" xlink:title="merely_path_is0connected">
<ellipse fill="#f070d1" stroke="black" cx="1578" cy="-429.09" rx="133.78" ry="18"/>
<text text-anchor="middle" x="1578" y="-425.39" font-family="Times,serif" font-size="14.00">merely_path_is0connected</text>
</a>
</g>
</g>
<!-- Connectedness_indecomposable_0connected&#45;&gt;Connectedness_merely_path_is0connected -->
<g id="edge9" class="edge">
<title>Connectedness_indecomposable_0connected&#45;&gt;Connectedness_merely_path_is0connected</title>
<path fill="none" stroke="black" d="M1595.54,-733.82C1592.04,-673.21 1583.19,-519.97 1579.58,-457.36"/>
<polygon fill="black" stroke="black" points="1583.05,-456.89 1578.98,-447.11 1576.07,-457.29 1583.05,-456.89"/>
</g>
<!-- Connectedness_isconnected_pred -->
<g id="node23" class="node">
<title>Connectedness_isconnected_pred</title>
<g id="a_node23"><a xlink:href="Connectedness.html#isconnected_pred" xlink:title="isconnected_pred">
<ellipse fill="#f070d1" stroke="black" cx="1315" cy="-429.09" rx="91.78" ry="18"/>
<text text-anchor="middle" x="1315" y="-425.39" font-family="Times,serif" font-size="14.00">isconnected_pred</text>
</a>
</g>
</g>
<!-- Connectedness_indecomposable_0connected&#45;&gt;Connectedness_isconnected_pred -->
<g id="edge10" class="edge">
<title>Connectedness_indecomposable_0connected&#45;&gt;Connectedness_isconnected_pred</title>
<path fill="none" stroke="black" d="M1575.57,-734.09C1523.05,-672.81 1388.37,-515.69 1336.14,-454.75"/>
<polygon fill="black" stroke="black" points="1338.79,-452.46 1329.62,-447.15 1333.47,-457.02 1338.79,-452.46"/>
</g>
<!-- Connectedness_equiv_component_image_unit -->
<g id="node9" class="node">
<title>Connectedness_equiv_component_image_unit</title>
<g id="a_node9"><a xlink:href="Connectedness.html#equiv_component_image_unit" xlink:title="equiv_component_image_unit">
<ellipse fill="#f070d1" stroke="black" cx="2709" cy="-1421.09" rx="147.57" ry="18"/>
<ellipse fill="none" stroke="black" cx="2709" cy="-1421.09" rx="151.57" ry="22"/>
<ellipse fill="none" stroke="black" cx="2709" cy="-1421.09" rx="155.57" ry="26"/>
<text text-anchor="middle" x="2709" y="-1417.39" font-family="Times,serif" font-size="14.00">equiv_component_image_unit</text>
</a>
</g>
</g>
<!-- Connectedness_merely_path_component -->
<g id="node10" class="node">
<title>Connectedness_merely_path_component</title>
<g id="a_node10"><a xlink:href="Connectedness.html#merely_path_component" xlink:title="merely_path_component">
<ellipse fill="#f070d1" stroke="black" cx="2403" cy="-1421.09" rx="124.27" ry="18"/>
<ellipse fill="none" stroke="black" cx="2403" cy="-1421.09" rx="128.27" ry="22"/>
<ellipse fill="none" stroke="black" cx="2403" cy="-1421.09" rx="132.28" ry="26"/>
<text text-anchor="middle" x="2403" y="-1417.39" font-family="Times,serif" font-size="14.00">merely_path_component</text>
</a>
</g>
</g>
<!-- Connectedness_is0connected_component -->
<g id="node11" class="node">
<title>Connectedness_is0connected_component</title>
<g id="a_node11"><a xlink:href="Connectedness.html#is0connected_component" xlink:title="is0connected_component">
<ellipse fill="#f070d1" stroke="black" cx="2117" cy="-1421.09" rx="127.28" ry="18"/>
<ellipse fill="none" stroke="black" cx="2117" cy="-1421.09" rx="131.28" ry="22"/>
<ellipse fill="none" stroke="black" cx="2117" cy="-1421.09" rx="135.28" ry="26"/>
<text text-anchor="middle" x="2117" y="-1417.39" font-family="Times,serif" font-size="14.00">is0connected_component</text>
</a>
</g>
</g>
<!-- Connectedness_is0connected_merely_allpath -->
<g id="node12" class="node">
<title>Connectedness_is0connected_merely_allpath</title>
<g id="a_node12"><a xlink:href="Connectedness.html#is0connected_merely_allpath" xlink:title="is0connected_merely_allpath">
<ellipse fill="#f070d1" stroke="black" cx="1011" cy="-1421.09" rx="144.88" ry="18"/>
<ellipse fill="none" stroke="black" cx="1011" cy="-1421.09" rx="148.88" ry="22"/>
<ellipse fill="none" stroke="black" cx="1011" cy="-1421.09" rx="152.87" ry="26"/>
<text text-anchor="middle" x="1011" y="-1417.39" font-family="Times,serif" font-size="14.00">is0connected_merely_allpath</text>
</a>
</g>
</g>
<!-- Connectedness_isconnected_isconnected_allpath -->
<g id="node29" class="node">
<title>Connectedness_isconnected_isconnected_allpath</title>
<g id="a_node29"><a xlink:href="Connectedness.html#isconnected_isconnected_allpath" xlink:title="isconnected_isconnected_allpath">
<ellipse fill="#f070d1" stroke="black" cx="629" cy="-1091.09" rx="161.67" ry="18"/>
<text text-anchor="middle" x="629" y="-1087.39" font-family="Times,serif" font-size="14.00">isconnected_isconnected_allpath</text>
</a>
</g>
</g>
<!-- Connectedness_is0connected_merely_allpath&#45;&gt;Connectedness_isconnected_isconnected_allpath -->
<g id="edge11" class="edge">
<title>Connectedness_is0connected_merely_allpath&#45;&gt;Connectedness_isconnected_isconnected_allpath</title>
<path fill="none" stroke="black" d="M982.29,-1395.43C911.09,-1334.3 727.11,-1176.33 656.84,-1115.99"/>
<polygon fill="black" stroke="black" points="658.72,-1112.99 648.85,-1109.13 654.16,-1118.3 658.72,-1112.99"/>
</g>
<!-- Connectedness_isconnected_paths -->
<g id="node31" class="node">
<title>Connectedness_isconnected_paths</title>
<g id="a_node31"><a xlink:href="Connectedness.html#isconnected_paths" xlink:title="isconnected_paths">
<ellipse fill="#f070d1" stroke="black" cx="988" cy="-128.09" rx="96.38" ry="18"/>
<text text-anchor="middle" x="988" y="-124.39" font-family="Times,serif" font-size="14.00">isconnected_paths</text>
</a>
</g>
</g>
<!-- Connectedness_merely_path_is0connected&#45;&gt;Connectedness_isconnected_paths -->
<g id="edge12" class="edge">
<title>Connectedness_merely_path_is0connected&#45;&gt;Connectedness_isconnected_paths</title>
<path fill="none" stroke="black" d="M1545.44,-411.58C1444.97,-360.67 1139.93,-206.08 1028.94,-149.83"/>
<polygon fill="black" stroke="black" points="1030.24,-146.57 1019.74,-145.17 1027.08,-152.81 1030.24,-146.57"/>
</g>
<!-- Connectedness_isconnmap_minus_two -->
<g id="node14" class="node">
<title>Connectedness_isconnmap_minus_two</title>
<g id="a_node14"><a xlink:href="Connectedness.html#isconnmap_minus_two" xlink:title="isconnmap_minus_two">
<ellipse fill="#f070d1" stroke="black" cx="1841" cy="-1421.09" rx="114.29" ry="18"/>
<ellipse fill="none" stroke="black" cx="1841" cy="-1421.09" rx="118.28" ry="22"/>
<ellipse fill="none" stroke="black" cx="1841" cy="-1421.09" rx="122.28" ry="26"/>
<text text-anchor="middle" x="1841" y="-1417.39" font-family="Times,serif" font-size="14.00">isconnmap_minus_two</text>
</a>
</g>
</g>
<!-- Connectedness_isconnected_minus_two -->
<g id="node15" class="node">
<title>Connectedness_isconnected_minus_two</title>
<g id="a_node15"><a xlink:href="Connectedness.html#isconnected_minus_two" xlink:title="isconnected_minus_two">
<ellipse fill="#f070d1" stroke="black" cx="1841" cy="-1091.09" rx="120.48" ry="18"/>
<text text-anchor="middle" x="1841" y="-1087.39" font-family="Times,serif" font-size="14.00">isconnected_minus_two</text>
</a>
</g>
</g>
<!-- Connectedness_isconnmap_minus_two&#45;&gt;Connectedness_isconnected_minus_two -->
<g id="edge13" class="edge">
<title>Connectedness_isconnmap_minus_two&#45;&gt;Connectedness_isconnected_minus_two</title>
<path fill="none" stroke="black" d="M1841,-1394.89C1841,-1334.61 1841,-1182.41 1841,-1119.72"/>
<polygon fill="black" stroke="black" points="1844.5,-1119.44 1841,-1109.44 1837.5,-1119.44 1844.5,-1119.44"/>
</g>
<!-- Connectedness_isconnmap_pred_add -->
<g id="node16" class="node">
<title>Connectedness_isconnmap_pred_add</title>
<g id="a_node16"><a xlink:href="Connectedness.html#isconnmap_pred_add" xlink:title="isconnmap_pred_add">
<ellipse fill="#f070d1" stroke="black" cx="1565" cy="-1091.09" rx="107.79" ry="18"/>
<ellipse fill="none" stroke="black" cx="1565" cy="-1091.09" rx="111.78" ry="22"/>
<ellipse fill="none" stroke="black" cx="1565" cy="-1091.09" rx="115.78" ry="26"/>
<text text-anchor="middle" x="1565" y="-1087.39" font-family="Times,serif" font-size="14.00">isconnmap_pred_add</text>
</a>
</g>
</g>
<!-- Connectedness_isconnected_pred_add -->
<g id="node21" class="node">
<title>Connectedness_isconnected_pred_add</title>
<g id="a_node21"><a xlink:href="Connectedness.html#isconnected_pred_add" xlink:title="isconnected_pred_add">
<ellipse fill="#f070d1" stroke="black" cx="1315" cy="-760.09" rx="113.18" ry="18"/>
<text text-anchor="middle" x="1315" y="-756.39" font-family="Times,serif" font-size="14.00">isconnected_pred_add</text>
</a>
</g>
</g>
<!-- Connectedness_isconnmap_pred_add&#45;&gt;Connectedness_isconnected_pred_add -->
<g id="edge14" class="edge">
<title>Connectedness_isconnmap_pred_add&#45;&gt;Connectedness_isconnected_pred_add</title>
<path fill="none" stroke="black" d="M1546.21,-1065.36C1499.9,-1004.41 1380.67,-847.51 1334.07,-786.18"/>
<polygon fill="black" stroke="black" points="1336.83,-784.03 1327.99,-778.18 1331.26,-788.26 1336.83,-784.03"/>
</g>
<!-- Connectedness_isconnmap_pred_ -->
<g id="node17" class="node">
<title>Connectedness_isconnmap_pred_</title>
<g id="a_node17"><a xlink:href="Connectedness.html#isconnmap_pred'" xlink:title="isconnmap_pred&#39;">
<ellipse fill="#f070d1" stroke="black" cx="1084" cy="-1091.09" rx="89.08" ry="18"/>
<ellipse fill="none" stroke="black" cx="1084" cy="-1091.09" rx="93.08" ry="22"/>
<ellipse fill="none" stroke="black" cx="1084" cy="-1091.09" rx="97.08" ry="26"/>
<text text-anchor="middle" x="1084" y="-1087.39" font-family="Times,serif" font-size="14.00">isconnmap_pred&#39;</text>
</a>
</g>
</g>
<!-- Connectedness_isconnected_pred_ -->
<g id="node22" class="node">
<title>Connectedness_isconnected_pred_</title>
<g id="a_node22"><a xlink:href="Connectedness.html#isconnected_pred'" xlink:title="isconnected_pred&#39;">
<ellipse fill="#f070d1" stroke="black" cx="1090" cy="-760.09" rx="94.48" ry="18"/>
<text text-anchor="middle" x="1090" y="-756.39" font-family="Times,serif" font-size="14.00">isconnected_pred&#39;</text>
</a>
</g>
</g>
<!-- Connectedness_isconnmap_pred_&#45;&gt;Connectedness_isconnected_pred_ -->
<g id="edge15" class="edge">
<title>Connectedness_isconnmap_pred_&#45;&gt;Connectedness_isconnected_pred_</title>
<path fill="none" stroke="black" d="M1084.46,-1064.82C1085.57,-1004.21 1088.36,-850.97 1089.5,-788.36"/>
<polygon fill="black" stroke="black" points="1093.01,-788.17 1089.69,-778.11 1086.01,-788.04 1093.01,-788.17"/>
</g>
<!-- Connectedness_is0connected_isconnected -->
<g id="node18" class="node">
<title>Connectedness_is0connected_isconnected</title>
<g id="a_node18"><a xlink:href="Connectedness.html#is0connected_isconnected" xlink:title="is0connected_isconnected">
<ellipse fill="#f070d1" stroke="black" cx="1561" cy="-1421.09" rx="131.09" ry="18"/>
<ellipse fill="none" stroke="black" cx="1561" cy="-1421.09" rx="135.08" ry="22"/>
<ellipse fill="none" stroke="black" cx="1561" cy="-1421.09" rx="139.08" ry="26"/>
<text text-anchor="middle" x="1561" y="-1417.39" font-family="Times,serif" font-size="14.00">is0connected_isconnected</text>
</a>
</g>
</g>
<!-- Connectedness_isconnected_pred_add_ -->
<g id="node20" class="node">
<title>Connectedness_isconnected_pred_add_</title>
<g id="a_node20"><a xlink:href="Connectedness.html#isconnected_pred_add'" xlink:title="isconnected_pred_add&#39;">
<ellipse fill="#f070d1" stroke="black" cx="1315" cy="-1091.09" rx="115.88" ry="18"/>
<text text-anchor="middle" x="1315" y="-1087.39" font-family="Times,serif" font-size="14.00">isconnected_pred_add&#39;</text>
</a>
</g>
</g>
<!-- Connectedness_is0connected_isconnected&#45;&gt;Connectedness_isconnected_pred_add_ -->
<g id="edge16" class="edge">
<title>Connectedness_is0connected_isconnected&#45;&gt;Connectedness_isconnected_pred_add_</title>
<path fill="none" stroke="black" d="M1542.31,-1395.16C1496.68,-1334.32 1379.96,-1178.7 1334.01,-1117.43"/>
<polygon fill="black" stroke="black" points="1336.56,-1114.99 1327.76,-1109.09 1330.96,-1119.19 1336.56,-1114.99"/>
</g>
<!-- Connectedness_merely_isconnected -->
<g id="node19" class="node">
<title>Connectedness_merely_isconnected</title>
<g id="a_node19"><a xlink:href="Connectedness.html#merely_isconnected" xlink:title="merely_isconnected">
<ellipse fill="#f070d1" stroke="black" cx="1293" cy="-1421.09" rx="102.87" ry="18"/>
<ellipse fill="none" stroke="black" cx="1293" cy="-1421.09" rx="106.88" ry="22"/>
<ellipse fill="none" stroke="black" cx="1293" cy="-1421.09" rx="110.88" ry="26"/>
<text text-anchor="middle" x="1293" y="-1417.39" font-family="Times,serif" font-size="14.00">merely_isconnected</text>
</a>
</g>
</g>
<!-- Connectedness_merely_isconnected&#45;&gt;Connectedness_isconnected_pred_add_ -->
<g id="edge17" class="edge">
<title>Connectedness_merely_isconnected&#45;&gt;Connectedness_isconnected_pred_add_</title>
<path fill="none" stroke="black" d="M1294.69,-1394.89C1298.73,-1334.61 1308.94,-1182.41 1313.15,-1119.72"/>
<polygon fill="black" stroke="black" points="1316.66,-1119.65 1313.84,-1109.44 1309.67,-1119.18 1316.66,-1119.65"/>
</g>
<!-- Connectedness_isconnected_pred_add_&#45;&gt;Connectedness_isconnected_pred_add -->
<g id="edge18" class="edge">
<title>Connectedness_isconnected_pred_add_&#45;&gt;Connectedness_isconnected_pred_add</title>
<path fill="none" stroke="black" d="M1315,-1072.86C1315,-1019.12 1315,-854.2 1315,-788.5"/>
<polygon fill="black" stroke="black" points="1318.5,-788.14 1315,-778.14 1311.5,-788.14 1318.5,-788.14"/>
</g>
<!-- Connectedness_isconnected_pred_add&#45;&gt;Connectedness_isconnected_pred -->
<g id="edge19" class="edge">
<title>Connectedness_isconnected_pred_add&#45;&gt;Connectedness_isconnected_pred</title>
<path fill="none" stroke="black" d="M1315,-741.86C1315,-688.12 1315,-523.2 1315,-457.5"/>
<polygon fill="black" stroke="black" points="1318.5,-457.14 1315,-447.14 1311.5,-457.14 1318.5,-457.14"/>
</g>
<!-- Connectedness_isconnected_pred_&#45;&gt;Connectedness_isconnected_pred -->
<g id="edge20" class="edge">
<title>Connectedness_isconnected_pred_&#45;&gt;Connectedness_isconnected_pred</title>
<path fill="none" stroke="black" d="M1101.78,-741.86C1138.91,-687.56 1253.66,-519.78 1297.62,-455.5"/>
<polygon fill="black" stroke="black" points="1300.58,-457.37 1303.34,-447.14 1294.8,-453.42 1300.58,-457.37"/>
</g>
<!-- Connectedness_conn_point_elim_comp -->
<g id="node24" class="node">
<title>Connectedness_conn_point_elim_comp</title>
<g id="a_node24"><a xlink:href="Connectedness.html#conn_point_elim_comp" xlink:title="conn_point_elim_comp">
<ellipse fill="#f070d1" stroke="black" cx="855" cy="-760.09" rx="114.29" ry="18"/>
<ellipse fill="none" stroke="black" cx="855" cy="-760.09" rx="118.28" ry="22"/>
<ellipse fill="none" stroke="black" cx="855" cy="-760.09" rx="122.28" ry="26"/>
<text text-anchor="middle" x="855" y="-756.39" font-family="Times,serif" font-size="14.00">conn_point_elim_comp</text>
</a>
</g>
</g>
<!-- Connectedness_conn_point_elim -->
<g id="node25" class="node">
<title>Connectedness_conn_point_elim</title>
<g id="a_node25"><a xlink:href="Connectedness.html#conn_point_elim" xlink:title="conn_point_elim">
<ellipse fill="#f070d1" stroke="black" cx="988" cy="-429.09" rx="85.29" ry="18"/>
<text text-anchor="middle" x="988" y="-425.39" font-family="Times,serif" font-size="14.00">conn_point_elim</text>
</a>
</g>
</g>
<!-- Connectedness_conn_point_elim_comp&#45;&gt;Connectedness_conn_point_elim -->
<g id="edge21" class="edge">
<title>Connectedness_conn_point_elim_comp&#45;&gt;Connectedness_conn_point_elim</title>
<path fill="none" stroke="black" d="M865.11,-734.09C889.63,-673.43 952.1,-518.88 977.26,-456.65"/>
<polygon fill="black" stroke="black" points="980.6,-457.73 981.1,-447.15 974.11,-455.1 980.6,-457.73"/>
</g>
<!-- Connectedness_conn_point_elim&#45;&gt;Connectedness_isconnected_paths -->
<g id="edge22" class="edge">
<title>Connectedness_conn_point_elim&#45;&gt;Connectedness_isconnected_paths</title>
<path fill="none" stroke="black" d="M988,-410.72C988,-360.85 988,-216.94 988,-156.42"/>
<polygon fill="black" stroke="black" points="991.5,-156.13 988,-146.13 984.5,-156.13 991.5,-156.13"/>
</g>
<!-- Connectedness_conn_pointed_type -->
<g id="node27" class="node">
<title>Connectedness_conn_pointed_type</title>
<g id="a_node27"><a xlink:href="Connectedness.html#conn_pointed_type" xlink:title="conn_pointed_type">
<ellipse fill="#f070d1" stroke="black" cx="735" cy="-1421.09" rx="96.7" ry="18"/>
<ellipse fill="none" stroke="black" cx="735" cy="-1421.09" rx="100.69" ry="22"/>
<ellipse fill="none" stroke="black" cx="735" cy="-1421.09" rx="104.68" ry="26"/>
<text text-anchor="middle" x="735" y="-1417.39" font-family="Times,serif" font-size="14.00">conn_pointed_type</text>
</a>
</g>
</g>
<!-- Connectedness_isconnmap_isconnmap_ap_surj -->
<g id="node28" class="node">
<title>Connectedness_isconnmap_isconnmap_ap_surj</title>
<g id="a_node28"><a xlink:href="Connectedness.html#isconnmap_isconnmap_ap_surj" xlink:title="isconnmap_isconnmap_ap_surj">
<ellipse fill="#f070d1" stroke="black" cx="451" cy="-1421.09" rx="152.96" ry="18"/>
<ellipse fill="none" stroke="black" cx="451" cy="-1421.09" rx="156.97" ry="22"/>
<ellipse fill="none" stroke="black" cx="451" cy="-1421.09" rx="160.97" ry="26"/>
<text text-anchor="middle" x="451" y="-1417.39" font-family="Times,serif" font-size="14.00">isconnmap_isconnmap_ap_surj</text>
</a>
</g>
</g>
<!-- Connectedness_isconnmap_isconnmap_ap_surj&#45;&gt;Connectedness_isconnected_isconnected_allpath -->
<g id="edge23" class="edge">
<title>Connectedness_isconnmap_isconnmap_ap_surj&#45;&gt;Connectedness_isconnected_isconnected_allpath</title>
<path fill="none" stroke="black" d="M464.53,-1395.16C497.41,-1334.57 581.3,-1179.98 614.84,-1118.19"/>
<polygon fill="black" stroke="black" points="618.08,-1119.55 619.77,-1109.09 611.92,-1116.21 618.08,-1119.55"/>
</g>
<!-- Connectedness_isconnmap_ap_isconnmap -->
<g id="node30" class="node">
<title>Connectedness_isconnmap_ap_isconnmap</title>
<g id="a_node30"><a xlink:href="Connectedness.html#isconnmap_ap_isconnmap" xlink:title="isconnmap_ap_isconnmap">
<ellipse fill="#f070d1" stroke="black" cx="747" cy="-429.09" rx="129.98" ry="18"/>
<ellipse fill="none" stroke="black" cx="747" cy="-429.09" rx="133.98" ry="22"/>
<ellipse fill="none" stroke="black" cx="747" cy="-429.09" rx="137.98" ry="26"/>
<text text-anchor="middle" x="747" y="-425.39" font-family="Times,serif" font-size="14.00">isconnmap_ap_isconnmap</text>
</a>
</g>
</g>
<!-- Connectedness_isconnmap_ap_isconnmap&#45;&gt;Connectedness_isconnected_paths -->
<g id="edge24" class="edge">
<title>Connectedness_isconnmap_ap_isconnmap&#45;&gt;Connectedness_isconnected_paths</title>
<path fill="none" stroke="black" d="M767.13,-403.11C812.54,-346.77 922.5,-210.35 967.89,-154.04"/>
<polygon fill="black" stroke="black" points="970.8,-156 974.35,-146.02 965.35,-151.61 970.8,-156"/>
</g>
<!-- Connectedness_isconnmap_isconnected -->
<g id="node33" class="node">
<title>Connectedness_isconnmap_isconnected</title>
<g id="a_node33"><a xlink:href="Connectedness.html#isconnmap_isconnected" xlink:title="isconnmap_isconnected">
<ellipse fill="#f070d1" stroke="black" cx="144" cy="-1421.09" rx="120.46" ry="18"/>
<ellipse fill="none" stroke="black" cx="144" cy="-1421.09" rx="124.47" ry="22"/>
<ellipse fill="none" stroke="black" cx="144" cy="-1421.09" rx="128.48" ry="26"/>
<text text-anchor="middle" x="144" y="-1417.39" font-family="Times,serif" font-size="14.00">isconnmap_isconnected</text>
</a>
</g>
</g>
</g>
</svg>
