<?xml version="1.0" encoding="UTF-8" standalone="no"?>
<!DOCTYPE svg PUBLIC "-//W3C//DTD SVG 1.1//EN"
 "http://www.w3.org/Graphics/SVG/1.1/DTD/svg11.dtd">
<!-- Generated by graphviz version 2.43.0 (0)
 -->
<!-- Title: HoTT_Homotopy_Cover Pages: 1 -->
<svg width="1316pt" height="662pt"
 viewBox="0.00 0.00 1316.00 662.00" xmlns="http://www.w3.org/2000/svg" xmlns:xlink="http://www.w3.org/1999/xlink">
<g id="graph0" class="graph" transform="scale(1 1) rotate(0) translate(4 658)">
<title>HoTT_Homotopy_Cover</title>
<polygon fill="white" stroke="transparent" points="-4,4 -4,-658 1312,-658 1312,4 -4,4"/>
<g id="clust1" class="cluster">
<title>cluster_Cover</title>
<polygon fill="#ffffc3" stroke="black" points="8,-14.74 8,-639.26 1300,-639.26 1300,-14.74 8,-14.74"/>
<text text-anchor="middle" x="37.5" y="-624.06" font-family="Times,serif" font-size="14.00">Cover</text>
</g>
<!-- Cover_equiv_comp_equiv_map -->
<g id="node1" class="node">
<title>Cover_equiv_comp_equiv_map</title>
<g id="a_node1"><a xlink:href="Cover.html#equiv_comp_equiv_map" xlink:title="equiv_comp_equiv_map">
<ellipse fill="#f070d1" stroke="black" cx="1050" cy="-534.74" rx="119.67" ry="18"/>
<ellipse fill="none" stroke="black" cx="1050" cy="-534.74" rx="123.68" ry="22"/>
<ellipse fill="none" stroke="black" cx="1050" cy="-534.74" rx="127.68" ry="26"/>
<text text-anchor="middle" x="1050" y="-531.04" font-family="Times,serif" font-size="14.00">equiv_comp_equiv_map</text>
</a>
</g>
</g>
<!-- Cover_equiv_comp_property -->
<g id="node2" class="node">
<title>Cover_equiv_comp_property</title>
<g id="a_node2"><a xlink:href="Cover.html#equiv_comp_property" xlink:title="equiv_comp_property">
<ellipse fill="#f070d1" stroke="black" cx="932" cy="-371.74" rx="110.48" ry="18"/>
<text text-anchor="middle" x="932" y="-368.04" font-family="Times,serif" font-size="14.00">equiv_comp_property</text>
</a>
</g>
</g>
<!-- Cover_equiv_comp_equiv_map&#45;&gt;Cover_equiv_comp_property -->
<g id="edge1" class="edge">
<title>Cover_equiv_comp_equiv_map&#45;&gt;Cover_equiv_comp_property</title>
<path fill="none" stroke="black" d="M1031.82,-508.93C1009.81,-478.91 972.95,-428.61 950.71,-398.26"/>
<polygon fill="black" stroke="black" points="953.31,-395.89 944.58,-389.9 947.67,-400.03 953.31,-395.89"/>
</g>
<!-- Cover_equiv_functor_O_cover -->
<g id="node11" class="node">
<title>Cover_equiv_functor_O_cover</title>
<g id="a_node11"><a xlink:href="Cover.html#equiv_functor_O_cover" xlink:title="equiv_functor_O_cover">
<ellipse fill="#f070d1" stroke="black" cx="1176" cy="-371.74" rx="115.88" ry="18"/>
<text text-anchor="middle" x="1176" y="-368.04" font-family="Times,serif" font-size="14.00">equiv_functor_O_cover</text>
</a>
</g>
</g>
<!-- Cover_equiv_comp_equiv_map&#45;&gt;Cover_equiv_functor_O_cover -->
<g id="edge2" class="edge">
<title>Cover_equiv_comp_equiv_map&#45;&gt;Cover_equiv_functor_O_cover</title>
<path fill="none" stroke="black" d="M1069.41,-508.93C1093.01,-478.78 1132.61,-428.18 1156.33,-397.87"/>
<polygon fill="black" stroke="black" points="1159.16,-399.93 1162.57,-389.9 1153.65,-395.62 1159.16,-399.93"/>
</g>
<!-- Cover_comp -->
<g id="node6" class="node">
<title>Cover_comp</title>
<g id="a_node6"><a xlink:href="Cover.html#comp" xlink:title="comp">
<ellipse fill="#f070d1" stroke="black" cx="958" cy="-209.74" rx="36" ry="18"/>
<text text-anchor="middle" x="958" y="-206.04" font-family="Times,serif" font-size="14.00">comp</text>
</a>
</g>
</g>
<!-- Cover_equiv_comp_property&#45;&gt;Cover_comp -->
<g id="edge3" class="edge">
<title>Cover_equiv_comp_property&#45;&gt;Cover_comp</title>
<path fill="none" stroke="black" d="M934.78,-353.62C939.3,-325.83 948.26,-270.7 953.63,-237.63"/>
<polygon fill="black" stroke="black" points="957.09,-238.17 955.24,-227.74 950.18,-237.05 957.09,-238.17"/>
</g>
<!-- Cover_pequiv_pfunctor_pcomp -->
<g id="node3" class="node">
<title>Cover_pequiv_pfunctor_pcomp</title>
<g id="a_node3"><a xlink:href="Cover.html#pequiv_pfunctor_pcomp" xlink:title="pequiv_pfunctor_pcomp">
<ellipse fill="#f070d1" stroke="black" cx="662" cy="-534.74" rx="120.79" ry="18"/>
<ellipse fill="none" stroke="black" cx="662" cy="-534.74" rx="124.78" ry="22"/>
<ellipse fill="none" stroke="black" cx="662" cy="-534.74" rx="128.78" ry="26"/>
<text text-anchor="middle" x="662" y="-531.04" font-family="Times,serif" font-size="14.00">pequiv_pfunctor_pcomp</text>
</a>
</g>
</g>
<!-- Cover_pequiv_pfunctor_pTr_pcover -->
<g id="node7" class="node">
<title>Cover_pequiv_pfunctor_pTr_pcover</title>
<g id="a_node7"><a xlink:href="Cover.html#pequiv_pfunctor_pTr_pcover" xlink:title="pequiv_pfunctor_pTr_pcover">
<ellipse fill="#f070d1" stroke="black" cx="662" cy="-371.74" rx="141.88" ry="18"/>
<text text-anchor="middle" x="662" y="-368.04" font-family="Times,serif" font-size="14.00">pequiv_pfunctor_pTr_pcover</text>
</a>
</g>
</g>
<!-- Cover_pequiv_pfunctor_pcomp&#45;&gt;Cover_pequiv_pfunctor_pTr_pcover -->
<g id="edge4" class="edge">
<title>Cover_pequiv_pfunctor_pcomp&#45;&gt;Cover_pequiv_pfunctor_pTr_pcover</title>
<path fill="none" stroke="black" d="M662,-508.58C662,-479.12 662,-430.5 662,-400.12"/>
<polygon fill="black" stroke="black" points="665.5,-399.82 662,-389.82 658.5,-399.82 665.5,-399.82"/>
</g>
<!-- Cover_pfunctor_pcomp -->
<g id="node4" class="node">
<title>Cover_pfunctor_pcomp</title>
<g id="a_node4"><a xlink:href="Cover.html#pfunctor_pcomp" xlink:title="pfunctor_pcomp">
<ellipse fill="#f070d1" stroke="black" cx="409" cy="-371.74" rx="85.27" ry="18"/>
<ellipse fill="none" stroke="black" cx="409" cy="-371.74" rx="89.28" ry="22"/>
<ellipse fill="none" stroke="black" cx="409" cy="-371.74" rx="93.29" ry="26"/>
<text text-anchor="middle" x="409" y="-368.04" font-family="Times,serif" font-size="14.00">pfunctor_pcomp</text>
</a>
</g>
</g>
<!-- Cover_pfunctor_pTr_pcover -->
<g id="node8" class="node">
<title>Cover_pfunctor_pTr_pcover</title>
<g id="a_node8"><a xlink:href="Cover.html#pfunctor_pTr_pcover" xlink:title="pfunctor_pTr_pcover">
<ellipse fill="#f070d1" stroke="black" cx="645" cy="-209.74" rx="106.68" ry="18"/>
<text text-anchor="middle" x="645" y="-206.04" font-family="Times,serif" font-size="14.00">pfunctor_pTr_pcover</text>
</a>
</g>
</g>
<!-- Cover_pfunctor_pcomp&#45;&gt;Cover_pfunctor_pTr_pcover -->
<g id="edge5" class="edge">
<title>Cover_pfunctor_pcomp&#45;&gt;Cover_pfunctor_pTr_pcover</title>
<path fill="none" stroke="black" d="M443.32,-347.47C488.5,-316.84 567.41,-263.34 611.95,-233.14"/>
<polygon fill="black" stroke="black" points="614.07,-235.94 620.38,-227.43 610.14,-230.14 614.07,-235.94"/>
</g>
<!-- Cover_pcomp -->
<g id="node5" class="node">
<title>Cover_pcomp</title>
<g id="a_node5"><a xlink:href="Cover.html#pcomp" xlink:title="pcomp">
<ellipse fill="#f070d1" stroke="black" cx="471" cy="-209.74" rx="41.68" ry="18"/>
<ellipse fill="none" stroke="black" cx="471" cy="-209.74" rx="45.69" ry="22"/>
<ellipse fill="none" stroke="black" cx="471" cy="-209.74" rx="49.69" ry="26"/>
<text text-anchor="middle" x="471" y="-206.04" font-family="Times,serif" font-size="14.00">pcomp</text>
</a>
</g>
</g>
<!-- Cover_O_pcover -->
<g id="node14" class="node">
<title>Cover_O_pcover</title>
<g id="a_node14"><a xlink:href="Cover.html#O_pcover" xlink:title="O_pcover">
<ellipse fill="#f070d1" stroke="black" cx="388" cy="-62.74" rx="53.89" ry="18"/>
<text text-anchor="middle" x="388" y="-59.04" font-family="Times,serif" font-size="14.00">O_pcover</text>
</a>
</g>
</g>
<!-- Cover_pcomp&#45;&gt;Cover_O_pcover -->
<g id="edge6" class="edge">
<title>Cover_pcomp&#45;&gt;Cover_O_pcover</title>
<path fill="none" stroke="black" d="M457.11,-184.47C442.08,-158.22 418.22,-116.53 402.83,-89.65"/>
<polygon fill="black" stroke="black" points="405.78,-87.75 397.77,-80.81 399.7,-91.23 405.78,-87.75"/>
</g>
<!-- Cover_O_cover -->
<g id="node15" class="node">
<title>Cover_O_cover</title>
<g id="a_node15"><a xlink:href="Cover.html#O_cover" xlink:title="O_cover">
<ellipse fill="#f070d1" stroke="black" cx="1054" cy="-62.74" rx="48.19" ry="18"/>
<text text-anchor="middle" x="1054" y="-59.04" font-family="Times,serif" font-size="14.00">O_cover</text>
</a>
</g>
</g>
<!-- Cover_comp&#45;&gt;Cover_O_cover -->
<g id="edge7" class="edge">
<title>Cover_comp&#45;&gt;Cover_O_cover</title>
<path fill="none" stroke="black" d="M968.83,-192.39C985.45,-167.28 1017.39,-119.04 1037.08,-89.29"/>
<polygon fill="black" stroke="black" points="1040.17,-90.97 1042.77,-80.7 1034.33,-87.11 1040.17,-90.97"/>
</g>
<!-- Cover_pequiv_pfunctor_pTr_pcover&#45;&gt;Cover_pfunctor_pTr_pcover -->
<g id="edge8" class="edge">
<title>Cover_pequiv_pfunctor_pTr_pcover&#45;&gt;Cover_pfunctor_pTr_pcover</title>
<path fill="none" stroke="black" d="M660.18,-353.62C657.24,-325.95 651.42,-271.17 647.9,-238.06"/>
<polygon fill="black" stroke="black" points="651.34,-237.31 646.81,-227.74 644.38,-238.05 651.34,-237.31"/>
</g>
<!-- Cover_pfunctor_pTr_pcover&#45;&gt;Cover_O_pcover -->
<g id="edge9" class="edge">
<title>Cover_pfunctor_pTr_pcover&#45;&gt;Cover_O_pcover</title>
<path fill="none" stroke="black" d="M616.02,-192.39C568.46,-165.56 474.06,-112.29 422.9,-83.43"/>
<polygon fill="black" stroke="black" points="424.61,-80.37 414.18,-78.51 421.17,-86.47 424.61,-80.37"/>
</g>
<!-- Cover_pequiv_pfunctor_O_pcover -->
<g id="node9" class="node">
<title>Cover_pequiv_pfunctor_O_pcover</title>
<g id="a_node9"><a xlink:href="Cover.html#pequiv_pfunctor_O_pcover" xlink:title="pequiv_pfunctor_O_pcover">
<ellipse fill="#f070d1" stroke="black" cx="157" cy="-371.74" rx="133.46" ry="18"/>
<ellipse fill="none" stroke="black" cx="157" cy="-371.74" rx="137.47" ry="22"/>
<ellipse fill="none" stroke="black" cx="157" cy="-371.74" rx="141.48" ry="26"/>
<text text-anchor="middle" x="157" y="-368.04" font-family="Times,serif" font-size="14.00">pequiv_pfunctor_O_pcover</text>
</a>
</g>
</g>
<!-- Cover_pfunctor_O_pcover -->
<g id="node10" class="node">
<title>Cover_pfunctor_O_pcover</title>
<g id="a_node10"><a xlink:href="Cover.html#pfunctor_O_pcover" xlink:title="pfunctor_O_pcover">
<ellipse fill="#f070d1" stroke="black" cx="306" cy="-209.74" rx="97.48" ry="18"/>
<text text-anchor="middle" x="306" y="-206.04" font-family="Times,serif" font-size="14.00">pfunctor_O_pcover</text>
</a>
</g>
</g>
<!-- Cover_pequiv_pfunctor_O_pcover&#45;&gt;Cover_pfunctor_O_pcover -->
<g id="edge10" class="edge">
<title>Cover_pequiv_pfunctor_O_pcover&#45;&gt;Cover_pfunctor_O_pcover</title>
<path fill="none" stroke="black" d="M180.28,-345.74C208.38,-315.56 255.32,-265.16 283.2,-235.22"/>
<polygon fill="black" stroke="black" points="285.94,-237.41 290.2,-227.71 280.82,-232.64 285.94,-237.41"/>
</g>
<!-- Cover_pfunctor_O_pcover&#45;&gt;Cover_O_pcover -->
<g id="edge11" class="edge">
<title>Cover_pfunctor_O_pcover&#45;&gt;Cover_O_pcover</title>
<path fill="none" stroke="black" d="M315.57,-191.82C329.82,-166.61 356.76,-118.99 373.46,-89.45"/>
<polygon fill="black" stroke="black" points="376.62,-90.97 378.49,-80.55 370.52,-87.53 376.62,-90.97"/>
</g>
<!-- Cover_functor_O_cover -->
<g id="node12" class="node">
<title>Cover_functor_O_cover</title>
<g id="a_node12"><a xlink:href="Cover.html#functor_O_cover" xlink:title="functor_O_cover">
<ellipse fill="#f070d1" stroke="black" cx="1150" cy="-209.74" rx="85.59" ry="18"/>
<text text-anchor="middle" x="1150" y="-206.04" font-family="Times,serif" font-size="14.00">functor_O_cover</text>
</a>
</g>
</g>
<!-- Cover_equiv_functor_O_cover&#45;&gt;Cover_functor_O_cover -->
<g id="edge12" class="edge">
<title>Cover_equiv_functor_O_cover&#45;&gt;Cover_functor_O_cover</title>
<path fill="none" stroke="black" d="M1173.22,-353.62C1168.7,-325.83 1159.74,-270.7 1154.37,-237.63"/>
<polygon fill="black" stroke="black" points="1157.82,-237.05 1152.76,-227.74 1150.91,-238.17 1157.82,-237.05"/>
</g>
<!-- Cover_functor_O_cover&#45;&gt;Cover_O_cover -->
<g id="edge13" class="edge">
<title>Cover_functor_O_cover&#45;&gt;Cover_O_cover</title>
<path fill="none" stroke="black" d="M1138.8,-191.82C1122.04,-166.5 1090.31,-118.57 1070.77,-89.07"/>
<polygon fill="black" stroke="black" points="1073.57,-86.95 1065.13,-80.55 1067.73,-90.82 1073.57,-86.95"/>
</g>
<!-- Cover_O_pcover_prod -->
<g id="node13" class="node">
<title>Cover_O_pcover_prod</title>
<g id="a_node13"><a xlink:href="Cover.html#O_pcover_prod" xlink:title="O_pcover_prod">
<ellipse fill="#f070d1" stroke="black" cx="103" cy="-209.74" rx="79.11" ry="18"/>
<ellipse fill="none" stroke="black" cx="103" cy="-209.74" rx="83.1" ry="22"/>
<ellipse fill="none" stroke="black" cx="103" cy="-209.74" rx="87.09" ry="26"/>
<text text-anchor="middle" x="103" y="-206.04" font-family="Times,serif" font-size="14.00">O_pcover_prod</text>
</a>
</g>
</g>
<!-- Cover_O_pcover_prod&#45;&gt;Cover_O_pcover -->
<g id="edge14" class="edge">
<title>Cover_O_pcover_prod&#45;&gt;Cover_O_pcover</title>
<path fill="none" stroke="black" d="M145.67,-187.03C201.33,-158.71 297.84,-109.61 350.72,-82.71"/>
<polygon fill="black" stroke="black" points="352.42,-85.76 359.75,-78.11 349.25,-79.53 352.42,-85.76"/>
</g>
</g>
</svg>
