<?xml version="1.0" encoding="UTF-8" standalone="no"?>
<!DOCTYPE svg PUBLIC "-//W3C//DTD SVG 1.1//EN"
 "http://www.w3.org/Graphics/SVG/1.1/DTD/svg11.dtd">
<!-- Generated by graphviz version 2.43.0 (0)
 -->
<!-- Title: HoTT_Homotopy_HSpace_Core Pages: 1 -->
<svg width="4091pt" height="2050pt"
 viewBox="0.00 0.00 4091.00 2049.50" xmlns="http://www.w3.org/2000/svg" xmlns:xlink="http://www.w3.org/1999/xlink">
<g id="graph0" class="graph" transform="scale(1 1) rotate(0) translate(4 2045.5)">
<title>HoTT_Homotopy_HSpace_Core</title>
<polygon fill="white" stroke="transparent" points="-4,4 -4,-2045.5 4087,-2045.5 4087,4 -4,4"/>
<g id="clust1" class="cluster">
<title>cluster_Core</title>
<polygon fill="#ffffc3" stroke="black" points="8,-27.82 8,-2013.68 4075,-2013.68 4075,-27.82 8,-27.82"/>
<text text-anchor="middle" x="33" y="-1998.48" font-family="Times,serif" font-size="14.00">Core</text>
</g>
<!-- Core_ishspace_loops -->
<g id="node1" class="node">
<title>Core_ishspace_loops</title>
<g id="a_node1"><a xlink:href="Core.html#ishspace_loops" xlink:title="ishspace_loops">
<ellipse fill="#f070d1" stroke="black" cx="930" cy="-896.82" rx="79.11" ry="18"/>
<ellipse fill="none" stroke="black" cx="930" cy="-896.82" rx="83.1" ry="22"/>
<ellipse fill="none" stroke="black" cx="930" cy="-896.82" rx="87.09" ry="26"/>
<text text-anchor="middle" x="930" y="-893.12" font-family="Times,serif" font-size="14.00">ishspace_loops</text>
</a>
</g>
</g>
<!-- Core_Build_IsHSpace -->
<g id="node31" class="node">
<title>Core_Build_IsHSpace</title>
<g id="a_node31"><a xlink:href="Core.html#Build_IsHSpace" xlink:title="Build_IsHSpace">
<ellipse fill="#7faaff" stroke="black" cx="700" cy="-618.82" rx="83.39" ry="18"/>
<text text-anchor="middle" x="700" y="-615.12" font-family="Times,serif" font-size="14.00">Build_IsHSpace</text>
</a>
</g>
</g>
<!-- Core_ishspace_loops&#45;&gt;Core_Build_IsHSpace -->
<g id="edge1" class="edge">
<title>Core_ishspace_loops&#45;&gt;Core_Build_IsHSpace</title>
<path fill="none" stroke="black" d="M909.59,-871.33C866.07,-819.11 764.57,-697.31 720.75,-644.73"/>
<polygon fill="black" stroke="black" points="723.32,-642.35 714.23,-636.9 717.95,-646.83 723.32,-642.35"/>
</g>
<!-- Core_IsHSpace -->
<g id="node32" class="node">
<title>Core_IsHSpace</title>
<g id="a_node32"><a xlink:href="Core.html#IsHSpace" xlink:title="IsHSpace">
<ellipse fill="#e2cdfa" stroke="black" cx="1645" cy="-618.82" rx="54.69" ry="18"/>
<text text-anchor="middle" x="1645" y="-615.12" font-family="Times,serif" font-size="14.00">IsHSpace</text>
</a>
</g>
</g>
<!-- Core_ishspace_loops&#45;&gt;Core_IsHSpace -->
<g id="edge2" class="edge">
<title>Core_ishspace_loops&#45;&gt;Core_IsHSpace</title>
<path fill="none" stroke="black" d="M981.71,-875.86C1116.32,-823.9 1475.84,-685.12 1601.17,-636.74"/>
<polygon fill="black" stroke="black" points="1602.76,-639.88 1610.83,-633.01 1600.24,-633.35 1602.76,-639.88"/>
</g>
<!-- Core_ishspace_equiv_hspace -->
<g id="node2" class="node">
<title>Core_ishspace_equiv_hspace</title>
<g id="a_node2"><a xlink:href="Core.html#ishspace_equiv_hspace" xlink:title="ishspace_equiv_hspace">
<ellipse fill="#f070d1" stroke="black" cx="700" cy="-896.82" rx="116.98" ry="18"/>
<ellipse fill="none" stroke="black" cx="700" cy="-896.82" rx="120.98" ry="22"/>
<ellipse fill="none" stroke="black" cx="700" cy="-896.82" rx="124.98" ry="26"/>
<text text-anchor="middle" x="700" y="-893.12" font-family="Times,serif" font-size="14.00">ishspace_equiv_hspace</text>
</a>
</g>
</g>
<!-- Core_ishspace_equiv_hspace&#45;&gt;Core_Build_IsHSpace -->
<g id="edge3" class="edge">
<title>Core_ishspace_equiv_hspace&#45;&gt;Core_Build_IsHSpace</title>
<path fill="none" stroke="black" d="M700,-870.35C700,-818.42 700,-700.68 700,-647.19"/>
<polygon fill="black" stroke="black" points="703.5,-647.09 700,-637.09 696.5,-647.09 703.5,-647.09"/>
</g>
<!-- Core_ishspace_equiv_hspace&#45;&gt;Core_IsHSpace -->
<g id="edge4" class="edge">
<title>Core_ishspace_equiv_hspace&#45;&gt;Core_IsHSpace</title>
<path fill="none" stroke="black" d="M770.26,-875.3C952.75,-822 1438.48,-680.14 1595.38,-634.32"/>
<polygon fill="black" stroke="black" points="1596.61,-637.6 1605.23,-631.44 1594.65,-630.88 1596.61,-637.6"/>
</g>
<!-- Core_hspace_path_pforall_from_path_arrow -->
<g id="node3" class="node">
<title>Core_hspace_path_pforall_from_path_arrow</title>
<g id="a_node3"><a xlink:href="Core.html#hspace_path_pforall_from_path_arrow" xlink:title="hspace_path_pforall_from_path_arrow">
<ellipse fill="#f070d1" stroke="black" cx="2890" cy="-1815.82" rx="186.57" ry="18"/>
<ellipse fill="none" stroke="black" cx="2890" cy="-1815.82" rx="190.57" ry="22"/>
<ellipse fill="none" stroke="black" cx="2890" cy="-1815.82" rx="194.57" ry="26"/>
<text text-anchor="middle" x="2890" y="-1812.12" font-family="Times,serif" font-size="14.00">hspace_path_pforall_from_path_arrow</text>
</a>
</g>
</g>
<!-- Core_hspace_phomotopy_from_homotopy -->
<g id="node4" class="node">
<title>Core_hspace_phomotopy_from_homotopy</title>
<g id="a_node4"><a xlink:href="Core.html#hspace_phomotopy_from_homotopy" xlink:title="hspace_phomotopy_from_homotopy">
<ellipse fill="#f070d1" stroke="black" cx="2890" cy="-1509.82" rx="175.47" ry="18"/>
<text text-anchor="middle" x="2890" y="-1506.12" font-family="Times,serif" font-size="14.00">hspace_phomotopy_from_homotopy</text>
</a>
</g>
</g>
<!-- Core_hspace_path_pforall_from_path_arrow&#45;&gt;Core_hspace_phomotopy_from_homotopy -->
<g id="edge5" class="edge">
<title>Core_hspace_path_pforall_from_path_arrow&#45;&gt;Core_hspace_phomotopy_from_homotopy</title>
<path fill="none" stroke="black" d="M2890,-1789.69C2890,-1733.29 2890,-1597.03 2890,-1538.4"/>
<polygon fill="black" stroke="black" points="2893.5,-1538.08 2890,-1528.08 2886.5,-1538.08 2893.5,-1538.08"/>
</g>
<!-- Core_phomotopy_from_homotopy -->
<g id="node5" class="node">
<title>Core_phomotopy_from_homotopy</title>
<g id="a_node5"><a xlink:href="Core.html#phomotopy_from_homotopy" xlink:title="phomotopy_from_homotopy">
<ellipse fill="#f070d1" stroke="black" cx="3059" cy="-1203.82" rx="139.18" ry="18"/>
<text text-anchor="middle" x="3059" y="-1200.12" font-family="Times,serif" font-size="14.00">phomotopy_from_homotopy</text>
</a>
</g>
</g>
<!-- Core_hspace_phomotopy_from_homotopy&#45;&gt;Core_phomotopy_from_homotopy -->
<g id="edge6" class="edge">
<title>Core_hspace_phomotopy_from_homotopy&#45;&gt;Core_phomotopy_from_homotopy</title>
<path fill="none" stroke="black" d="M2899.57,-1491.61C2927.81,-1440.82 3010.89,-1291.37 3044.57,-1230.78"/>
<polygon fill="black" stroke="black" points="3047.73,-1232.29 3049.53,-1221.85 3041.62,-1228.89 3047.73,-1232.29"/>
</g>
<!-- Core_pequiv_hspace_left_op -->
<g id="node16" class="node">
<title>Core_pequiv_hspace_left_op</title>
<g id="a_node16"><a xlink:href="Core.html#pequiv_hspace_left_op" xlink:title="pequiv_hspace_left_op">
<ellipse fill="#f070d1" stroke="black" cx="3353" cy="-1203.82" rx="114.28" ry="18"/>
<text text-anchor="middle" x="3353" y="-1200.12" font-family="Times,serif" font-size="14.00">pequiv_hspace_left_op</text>
</a>
</g>
</g>
<!-- Core_hspace_phomotopy_from_homotopy&#45;&gt;Core_pequiv_hspace_left_op -->
<g id="edge7" class="edge">
<title>Core_hspace_phomotopy_from_homotopy&#45;&gt;Core_pequiv_hspace_left_op</title>
<path fill="none" stroke="black" d="M2915.88,-1491.83C2994.5,-1440.21 3230.52,-1285.24 3319,-1227.15"/>
<polygon fill="black" stroke="black" points="3321.14,-1229.93 3327.58,-1221.51 3317.3,-1224.08 3321.14,-1229.93"/>
</g>
<!-- Core_pmap_hspace_left_op -->
<g id="node17" class="node">
<title>Core_pmap_hspace_left_op</title>
<g id="a_node17"><a xlink:href="Core.html#pmap_hspace_left_op" xlink:title="pmap_hspace_left_op">
<ellipse fill="#f070d1" stroke="black" cx="2747" cy="-1203.82" rx="108.58" ry="18"/>
<text text-anchor="middle" x="2747" y="-1200.12" font-family="Times,serif" font-size="14.00">pmap_hspace_left_op</text>
</a>
</g>
</g>
<!-- Core_hspace_phomotopy_from_homotopy&#45;&gt;Core_pmap_hspace_left_op -->
<g id="edge8" class="edge">
<title>Core_hspace_phomotopy_from_homotopy&#45;&gt;Core_pmap_hspace_left_op</title>
<path fill="none" stroke="black" d="M2881.9,-1491.61C2858.06,-1440.92 2788,-1291.99 2759.39,-1231.16"/>
<polygon fill="black" stroke="black" points="2762.43,-1229.41 2755.01,-1221.85 2756.1,-1232.39 2762.43,-1229.41"/>
</g>
<!-- Core_isequiv_hspace_left_op_pt -->
<g id="node21" class="node">
<title>Core_isequiv_hspace_left_op_pt</title>
<g id="a_node21"><a xlink:href="Core.html#isequiv_hspace_left_op_pt" xlink:title="isequiv_hspace_left_op_pt">
<ellipse fill="#f070d1" stroke="black" cx="2405" cy="-1203.82" rx="129.98" ry="18"/>
<text text-anchor="middle" x="2405" y="-1200.12" font-family="Times,serif" font-size="14.00">isequiv_hspace_left_op_pt</text>
</a>
</g>
</g>
<!-- Core_hspace_phomotopy_from_homotopy&#45;&gt;Core_isequiv_hspace_left_op_pt -->
<g id="edge9" class="edge">
<title>Core_hspace_phomotopy_from_homotopy&#45;&gt;Core_isequiv_hspace_left_op_pt</title>
<path fill="none" stroke="black" d="M2862.89,-1491.83C2780.45,-1440.16 2532.81,-1284.93 2440.34,-1226.97"/>
<polygon fill="black" stroke="black" points="2441.96,-1223.86 2431.63,-1221.51 2438.24,-1229.79 2441.96,-1223.86"/>
</g>
<!-- Core_phomotopy_from_path_arrow -->
<g id="node6" class="node">
<title>Core_phomotopy_from_path_arrow</title>
<g id="a_node6"><a xlink:href="Core.html#phomotopy_from_path_arrow" xlink:title="phomotopy_from_path_arrow">
<ellipse fill="#f070d1" stroke="black" cx="3086" cy="-896.82" rx="145.67" ry="18"/>
<text text-anchor="middle" x="3086" y="-893.12" font-family="Times,serif" font-size="14.00">phomotopy_from_path_arrow</text>
</a>
</g>
</g>
<!-- Core_phomotopy_from_homotopy&#45;&gt;Core_phomotopy_from_path_arrow -->
<g id="edge10" class="edge">
<title>Core_phomotopy_from_homotopy&#45;&gt;Core_phomotopy_from_path_arrow</title>
<path fill="none" stroke="black" d="M3060.53,-1185.55C3065.01,-1134.91 3078.15,-986.5 3083.59,-925"/>
<polygon fill="black" stroke="black" points="3087.09,-925.18 3084.49,-914.91 3080.12,-924.56 3087.09,-925.18"/>
</g>
<!-- Core_ishomogeneous_hspace -->
<g id="node7" class="node">
<title>Core_ishomogeneous_hspace</title>
<g id="a_node7"><a xlink:href="Core.html#ishomogeneous_hspace" xlink:title="ishomogeneous_hspace">
<ellipse fill="#f070d1" stroke="black" cx="3419" cy="-1509.82" rx="118.88" ry="18"/>
<ellipse fill="none" stroke="black" cx="3419" cy="-1509.82" rx="122.88" ry="22"/>
<ellipse fill="none" stroke="black" cx="3419" cy="-1509.82" rx="126.88" ry="26"/>
<text text-anchor="middle" x="3419" y="-1506.12" font-family="Times,serif" font-size="14.00">ishomogeneous_hspace</text>
</a>
</g>
</g>
<!-- Core_IsHomogeneous -->
<g id="node13" class="node">
<title>Core_IsHomogeneous</title>
<g id="a_node13"><a xlink:href="Core.html#IsHomogeneous" xlink:title="IsHomogeneous">
<ellipse fill="#f070d1" stroke="black" cx="3537" cy="-117.82" rx="85.29" ry="18"/>
<text text-anchor="middle" x="3537" y="-114.12" font-family="Times,serif" font-size="14.00">IsHomogeneous</text>
</a>
</g>
</g>
<!-- Core_ishomogeneous_hspace&#45;&gt;Core_IsHomogeneous -->
<g id="edge11" class="edge">
<title>Core_ishomogeneous_hspace&#45;&gt;Core_IsHomogeneous</title>
<path fill="none" stroke="black" d="M3425.65,-1483.67C3438.18,-1435.05 3464.97,-1324.6 3476,-1229.82 3493.06,-1083.19 3486,-1045.45 3486,-897.82 3486,-897.82 3486,-897.82 3486,-617.82 3486,-436.88 3519.6,-220.93 3532.25,-146.01"/>
<polygon fill="black" stroke="black" points="3535.73,-146.44 3533.96,-135.99 3528.83,-145.26 3535.73,-146.44"/>
</g>
<!-- Core_ishomogeneous_hspace&#45;&gt;Core_pequiv_hspace_left_op -->
<g id="edge12" class="edge">
<title>Core_ishomogeneous_hspace&#45;&gt;Core_pequiv_hspace_left_op</title>
<path fill="none" stroke="black" d="M3413.54,-1483.69C3401.27,-1427.17 3371.59,-1290.47 3358.91,-1232.04"/>
<polygon fill="black" stroke="black" points="3362.29,-1231.11 3356.75,-1222.08 3355.45,-1232.59 3362.29,-1231.11"/>
</g>
<!-- Core_ishspace_homogeneous -->
<g id="node8" class="node">
<title>Core_ishspace_homogeneous</title>
<g id="a_node8"><a xlink:href="Core.html#ishspace_homogeneous" xlink:title="ishspace_homogeneous">
<ellipse fill="#f070d1" stroke="black" cx="1751" cy="-896.82" rx="118.88" ry="18"/>
<ellipse fill="none" stroke="black" cx="1751" cy="-896.82" rx="122.88" ry="22"/>
<ellipse fill="none" stroke="black" cx="1751" cy="-896.82" rx="126.88" ry="26"/>
<text text-anchor="middle" x="1751" y="-893.12" font-family="Times,serif" font-size="14.00">ishspace_homogeneous</text>
</a>
</g>
</g>
<!-- Core_homogeneous_pt_id -->
<g id="node11" class="node">
<title>Core_homogeneous_pt_id</title>
<g id="a_node11"><a xlink:href="Core.html#homogeneous_pt_id" xlink:title="homogeneous_pt_id">
<ellipse fill="#f070d1" stroke="black" cx="3623" cy="-618.82" rx="102.08" ry="18"/>
<text text-anchor="middle" x="3623" y="-615.12" font-family="Times,serif" font-size="14.00">homogeneous_pt_id</text>
</a>
</g>
</g>
<!-- Core_ishspace_homogeneous&#45;&gt;Core_homogeneous_pt_id -->
<g id="edge13" class="edge">
<title>Core_ishspace_homogeneous&#45;&gt;Core_homogeneous_pt_id</title>
<path fill="none" stroke="black" d="M1841.99,-878.6C1857.01,-875.9 1872.43,-873.21 1887,-870.82 2516.04,-767.57 3277.08,-665.35 3533.66,-631.51"/>
<polygon fill="black" stroke="black" points="3534.22,-634.97 3543.67,-630.19 3533.3,-628.03 3534.22,-634.97"/>
</g>
<!-- Core_ishspace_homogeneous&#45;&gt;Core_Build_IsHSpace -->
<g id="edge14" class="edge">
<title>Core_ishspace_homogeneous&#45;&gt;Core_Build_IsHSpace</title>
<path fill="none" stroke="black" d="M1674.99,-875.86C1475.77,-823.54 941.39,-683.21 760.68,-635.76"/>
<polygon fill="black" stroke="black" points="761.38,-632.32 750.82,-633.17 759.6,-639.09 761.38,-632.32"/>
</g>
<!-- Core_ishspace_homogeneous&#45;&gt;Core_IsHSpace -->
<g id="edge15" class="edge">
<title>Core_ishspace_homogeneous&#45;&gt;Core_IsHSpace</title>
<path fill="none" stroke="black" d="M1741.41,-870.84C1721.44,-818.86 1675.59,-699.47 1655.15,-646.26"/>
<polygon fill="black" stroke="black" points="1658.38,-644.91 1651.53,-636.83 1651.85,-647.42 1658.38,-644.91"/>
</g>
<!-- Core_homogeneous_pt_id_beta_ -->
<g id="node9" class="node">
<title>Core_homogeneous_pt_id_beta_</title>
<g id="a_node9"><a xlink:href="Core.html#homogeneous_pt_id_beta'" xlink:title="homogeneous_pt_id_beta&#39;">
<ellipse fill="#f070d1" stroke="black" cx="3930" cy="-896.82" rx="129.19" ry="18"/>
<ellipse fill="none" stroke="black" cx="3930" cy="-896.82" rx="133.18" ry="22"/>
<ellipse fill="none" stroke="black" cx="3930" cy="-896.82" rx="137.18" ry="26"/>
<text text-anchor="middle" x="3930" y="-893.12" font-family="Times,serif" font-size="14.00">homogeneous_pt_id_beta&#39;</text>
</a>
</g>
</g>
<!-- Core_homogeneous_pt_id_beta_&#45;&gt;Core_homogeneous_pt_id -->
<g id="edge16" class="edge">
<title>Core_homogeneous_pt_id_beta_&#45;&gt;Core_homogeneous_pt_id</title>
<path fill="none" stroke="black" d="M3902.76,-871.33C3844.17,-818.66 3706.86,-695.22 3649.21,-643.39"/>
<polygon fill="black" stroke="black" points="3651.4,-640.65 3641.62,-636.57 3646.72,-645.85 3651.4,-640.65"/>
</g>
<!-- Core_homogeneous_pt_id_beta -->
<g id="node10" class="node">
<title>Core_homogeneous_pt_id_beta</title>
<g id="a_node10"><a xlink:href="Core.html#homogeneous_pt_id_beta" xlink:title="homogeneous_pt_id_beta">
<ellipse fill="#f070d1" stroke="black" cx="3640" cy="-896.82" rx="126.96" ry="18"/>
<ellipse fill="none" stroke="black" cx="3640" cy="-896.82" rx="130.97" ry="22"/>
<ellipse fill="none" stroke="black" cx="3640" cy="-896.82" rx="134.98" ry="26"/>
<text text-anchor="middle" x="3640" y="-893.12" font-family="Times,serif" font-size="14.00">homogeneous_pt_id_beta</text>
</a>
</g>
</g>
<!-- Core_homogeneous_pt_id_beta&#45;&gt;Core_homogeneous_pt_id -->
<g id="edge17" class="edge">
<title>Core_homogeneous_pt_id_beta&#45;&gt;Core_homogeneous_pt_id</title>
<path fill="none" stroke="black" d="M3638.43,-870.35C3635.23,-818.42 3627.98,-700.68 3624.69,-647.19"/>
<polygon fill="black" stroke="black" points="3628.17,-646.85 3624.06,-637.09 3621.18,-647.28 3628.17,-646.85"/>
</g>
<!-- Core_ishomogeneous -->
<g id="node12" class="node">
<title>Core_ishomogeneous</title>
<g id="a_node12"><a xlink:href="Core.html#ishomogeneous" xlink:title="ishomogeneous">
<ellipse fill="#f070d1" stroke="black" cx="3605" cy="-368.82" rx="82.59" ry="18"/>
<text text-anchor="middle" x="3605" y="-365.12" font-family="Times,serif" font-size="14.00">ishomogeneous</text>
</a>
</g>
</g>
<!-- Core_homogeneous_pt_id&#45;&gt;Core_ishomogeneous -->
<g id="edge18" class="edge">
<title>Core_homogeneous_pt_id&#45;&gt;Core_ishomogeneous</title>
<path fill="none" stroke="black" d="M3621.76,-600.78C3618.69,-558.48 3610.71,-448.43 3606.97,-397.02"/>
<polygon fill="black" stroke="black" points="3610.46,-396.71 3606.25,-386.99 3603.48,-397.22 3610.46,-396.71"/>
</g>
<!-- Core_ishomogeneous&#45;&gt;Core_IsHomogeneous -->
<g id="edge19" class="edge">
<title>Core_ishomogeneous&#45;&gt;Core_IsHomogeneous</title>
<path fill="none" stroke="black" d="M3600.33,-350.71C3588.7,-308.15 3558.43,-197.28 3544.37,-145.81"/>
<polygon fill="black" stroke="black" points="3547.72,-144.78 3541.71,-136.06 3540.96,-146.63 3547.72,-144.78"/>
</g>
<!-- Core_isequiv_hspace_right_op -->
<g id="node14" class="node">
<title>Core_isequiv_hspace_right_op</title>
<g id="a_node14"><a xlink:href="Core.html#isequiv_hspace_right_op" xlink:title="isequiv_hspace_right_op">
<ellipse fill="#f070d1" stroke="black" cx="2034" cy="-1203.82" rx="123.48" ry="18"/>
<ellipse fill="none" stroke="black" cx="2034" cy="-1203.82" rx="127.48" ry="22"/>
<ellipse fill="none" stroke="black" cx="2034" cy="-1203.82" rx="131.48" ry="26"/>
<text text-anchor="middle" x="2034" y="-1200.12" font-family="Times,serif" font-size="14.00">isequiv_hspace_right_op</text>
</a>
</g>
</g>
<!-- Core_isequiv_hspace_right_op_pt -->
<g id="node20" class="node">
<title>Core_isequiv_hspace_right_op_pt</title>
<g id="a_node20"><a xlink:href="Core.html#isequiv_hspace_right_op_pt" xlink:title="isequiv_hspace_right_op_pt">
<ellipse fill="#f070d1" stroke="black" cx="2034" cy="-896.82" rx="137.58" ry="18"/>
<text text-anchor="middle" x="2034" y="-893.12" font-family="Times,serif" font-size="14.00">isequiv_hspace_right_op_pt</text>
</a>
</g>
</g>
<!-- Core_isequiv_hspace_right_op&#45;&gt;Core_isequiv_hspace_right_op_pt -->
<g id="edge20" class="edge">
<title>Core_isequiv_hspace_right_op&#45;&gt;Core_isequiv_hspace_right_op_pt</title>
<path fill="none" stroke="black" d="M2034,-1177.6C2034,-1121.02 2034,-984.32 2034,-925.5"/>
<polygon fill="black" stroke="black" points="2037.5,-925.14 2034,-915.14 2030.5,-925.14 2037.5,-925.14"/>
</g>
<!-- Core_isequiv_hspace_left_op -->
<g id="node15" class="node">
<title>Core_isequiv_hspace_left_op</title>
<g id="a_node15"><a xlink:href="Core.html#isequiv_hspace_left_op" xlink:title="isequiv_hspace_left_op">
<ellipse fill="#f070d1" stroke="black" cx="2405" cy="-1509.82" rx="116.19" ry="18"/>
<ellipse fill="none" stroke="black" cx="2405" cy="-1509.82" rx="120.18" ry="22"/>
<ellipse fill="none" stroke="black" cx="2405" cy="-1509.82" rx="124.18" ry="26"/>
<text text-anchor="middle" x="2405" y="-1506.12" font-family="Times,serif" font-size="14.00">isequiv_hspace_left_op</text>
</a>
</g>
</g>
<!-- Core_isequiv_hspace_left_op&#45;&gt;Core_isequiv_hspace_left_op_pt -->
<g id="edge21" class="edge">
<title>Core_isequiv_hspace_left_op&#45;&gt;Core_isequiv_hspace_left_op_pt</title>
<path fill="none" stroke="black" d="M2405,-1483.69C2405,-1427.29 2405,-1291.03 2405,-1232.4"/>
<polygon fill="black" stroke="black" points="2408.5,-1232.08 2405,-1222.08 2401.5,-1232.08 2408.5,-1232.08"/>
</g>
<!-- Core_equiv_hspace_left_op -->
<g id="node19" class="node">
<title>Core_equiv_hspace_left_op</title>
<g id="a_node19"><a xlink:href="Core.html#equiv_hspace_left_op" xlink:title="equiv_hspace_left_op">
<ellipse fill="#f070d1" stroke="black" cx="3358" cy="-896.82" rx="108.58" ry="18"/>
<text text-anchor="middle" x="3358" y="-893.12" font-family="Times,serif" font-size="14.00">equiv_hspace_left_op</text>
</a>
</g>
</g>
<!-- Core_pequiv_hspace_left_op&#45;&gt;Core_equiv_hspace_left_op -->
<g id="edge22" class="edge">
<title>Core_pequiv_hspace_left_op&#45;&gt;Core_equiv_hspace_left_op</title>
<path fill="none" stroke="black" d="M3353.28,-1185.55C3354.11,-1134.91 3356.55,-986.5 3357.55,-925"/>
<polygon fill="black" stroke="black" points="3361.06,-924.96 3357.72,-914.91 3354.06,-924.85 3361.06,-924.96"/>
</g>
<!-- Core_pmap_hspace_left_op&#45;&gt;Core_IsHSpace -->
<g id="edge23" class="edge">
<title>Core_pmap_hspace_left_op&#45;&gt;Core_IsHSpace</title>
<path fill="none" stroke="black" d="M2695.03,-1187.87C2591.66,-1155.69 2358.37,-1070.56 2221,-922.82 2203.79,-904.32 2215.78,-888.78 2198,-870.82 2053.75,-725.17 1809.63,-655.98 1700.54,-631.12"/>
<polygon fill="black" stroke="black" points="1701.25,-627.69 1690.73,-628.92 1699.72,-634.52 1701.25,-627.69"/>
</g>
<!-- Core_equiv_hspace_right_op -->
<g id="node18" class="node">
<title>Core_equiv_hspace_right_op</title>
<g id="a_node18"><a xlink:href="Core.html#equiv_hspace_right_op" xlink:title="equiv_hspace_right_op">
<ellipse fill="#f070d1" stroke="black" cx="1332" cy="-896.82" rx="115.87" ry="18"/>
<ellipse fill="none" stroke="black" cx="1332" cy="-896.82" rx="119.87" ry="22"/>
<ellipse fill="none" stroke="black" cx="1332" cy="-896.82" rx="123.88" ry="26"/>
<text text-anchor="middle" x="1332" y="-893.12" font-family="Times,serif" font-size="14.00">equiv_hspace_right_op</text>
</a>
</g>
</g>
<!-- Core_equiv_hspace_right_op&#45;&gt;Core_IsHSpace -->
<g id="edge24" class="edge">
<title>Core_equiv_hspace_right_op&#45;&gt;Core_IsHSpace</title>
<path fill="none" stroke="black" d="M1359.78,-871.33C1419.79,-818.41 1560.84,-694.03 1619.11,-642.65"/>
<polygon fill="black" stroke="black" points="1621.58,-645.14 1626.77,-635.9 1616.95,-639.89 1621.58,-645.14"/>
</g>
<!-- Core_equiv_hspace_left_op&#45;&gt;Core_IsHSpace -->
<g id="edge25" class="edge">
<title>Core_equiv_hspace_left_op&#45;&gt;Core_IsHSpace</title>
<path fill="none" stroke="black" d="M3296.19,-881.96C3278.41,-878.15 3258.97,-874.15 3241,-870.82 2643.69,-760.12 1914.73,-657.08 1704.39,-627.97"/>
<polygon fill="black" stroke="black" points="1704.86,-624.5 1694.48,-626.6 1703.9,-631.44 1704.86,-624.5"/>
</g>
<!-- Core_isequiv_hspace_right_op_pt&#45;&gt;Core_IsHSpace -->
<g id="edge26" class="edge">
<title>Core_isequiv_hspace_right_op_pt&#45;&gt;Core_IsHSpace</title>
<path fill="none" stroke="black" d="M2010.25,-878.97C1942.88,-831.17 1750.6,-694.74 1675.54,-641.49"/>
<polygon fill="black" stroke="black" points="1677.16,-638.35 1666.98,-635.42 1673.11,-644.06 1677.16,-638.35"/>
</g>
<!-- Core_isequiv_hspace_left_op_pt&#45;&gt;Core_IsHSpace -->
<g id="edge27" class="edge">
<title>Core_isequiv_hspace_left_op_pt&#45;&gt;Core_IsHSpace</title>
<path fill="none" stroke="black" d="M2391.36,-1185.83C2357.48,-1143.19 2267.82,-1027.61 2206,-922.82 2192.97,-900.74 2199.22,-888.86 2181,-870.82 2039.16,-730.42 1804,-658.58 1698.78,-632.09"/>
<polygon fill="black" stroke="black" points="1699.56,-628.67 1689.01,-629.66 1697.87,-635.47 1699.56,-628.67"/>
</g>
<!-- Core_issig_ishspace -->
<g id="node22" class="node">
<title>Core_issig_ishspace</title>
<g id="a_node22"><a xlink:href="Core.html#issig_ishspace" xlink:title="issig_ishspace">
<ellipse fill="#f070d1" stroke="black" cx="292" cy="-896.82" rx="76.87" ry="18"/>
<ellipse fill="none" stroke="black" cx="292" cy="-896.82" rx="80.88" ry="22"/>
<ellipse fill="none" stroke="black" cx="292" cy="-896.82" rx="84.89" ry="26"/>
<text text-anchor="middle" x="292" y="-893.12" font-family="Times,serif" font-size="14.00">issig_ishspace</text>
</a>
</g>
</g>
<!-- Core_issig_ishspace&#45;&gt;Core_Build_IsHSpace -->
<g id="edge28" class="edge">
<title>Core_issig_ishspace&#45;&gt;Core_Build_IsHSpace</title>
<path fill="none" stroke="black" d="M326.08,-872.77C403.38,-820.48 591.16,-693.45 667.21,-642.01"/>
<polygon fill="black" stroke="black" points="669.59,-644.62 675.91,-636.12 665.67,-638.82 669.59,-644.62"/>
</g>
<!-- Core_issig_ishspace&#45;&gt;Core_IsHSpace -->
<g id="edge29" class="edge">
<title>Core_issig_ishspace&#45;&gt;Core_IsHSpace</title>
<path fill="none" stroke="black" d="M353.55,-878.86C364.33,-876.06 375.47,-873.27 386,-870.82 847.05,-763.67 1409.61,-661.56 1587.95,-629.87"/>
<polygon fill="black" stroke="black" points="1588.66,-633.3 1597.9,-628.1 1587.44,-626.41 1588.66,-633.3"/>
</g>
<!-- Core_hspace_mon_unit -->
<g id="node23" class="node">
<title>Core_hspace_mon_unit</title>
<g id="a_node23"><a xlink:href="Core.html#hspace_mon_unit" xlink:title="hspace_mon_unit">
<ellipse fill="#f070d1" stroke="black" cx="2824" cy="-896.82" rx="90.2" ry="18"/>
<ellipse fill="none" stroke="black" cx="2824" cy="-896.82" rx="94.19" ry="22"/>
<ellipse fill="none" stroke="black" cx="2824" cy="-896.82" rx="98.18" ry="26"/>
<text text-anchor="middle" x="2824" y="-893.12" font-family="Times,serif" font-size="14.00">hspace_mon_unit</text>
</a>
</g>
</g>
<!-- Core_hspace_mon_unit&#45;&gt;Core_IsHSpace -->
<g id="edge30" class="edge">
<title>Core_hspace_mon_unit&#45;&gt;Core_IsHSpace</title>
<path fill="none" stroke="black" d="M2752.02,-878.97C2534.56,-828.07 1887.62,-676.62 1697.87,-632.2"/>
<polygon fill="black" stroke="black" points="1698.66,-628.79 1688.13,-629.92 1697.07,-635.61 1698.66,-628.79"/>
</g>
<!-- Core_hspace_right_identity -->
<g id="node24" class="node">
<title>Core_hspace_right_identity</title>
<g id="a_node24"><a xlink:href="Core.html#hspace_right_identity" xlink:title="hspace_right_identity">
<ellipse fill="#f070d1" stroke="black" cx="2589" cy="-896.82" rx="110.48" ry="18"/>
<ellipse fill="none" stroke="black" cx="2589" cy="-896.82" rx="114.48" ry="22"/>
<ellipse fill="none" stroke="black" cx="2589" cy="-896.82" rx="118.48" ry="26"/>
<text text-anchor="middle" x="2589" y="-893.12" font-family="Times,serif" font-size="14.00">hspace_right_identity</text>
</a>
</g>
</g>
<!-- Core_hspace_right_identity&#45;&gt;Core_IsHSpace -->
<g id="edge31" class="edge">
<title>Core_hspace_right_identity&#45;&gt;Core_IsHSpace</title>
<path fill="none" stroke="black" d="M2519.97,-875.64C2338.43,-822.56 1850.86,-680.01 1694.2,-634.21"/>
<polygon fill="black" stroke="black" points="1694.94,-630.78 1684.36,-631.33 1692.98,-637.5 1694.94,-630.78"/>
</g>
<!-- Core_hspace_left_identity -->
<g id="node25" class="node">
<title>Core_hspace_left_identity</title>
<g id="a_node25"><a xlink:href="Core.html#hspace_left_identity" xlink:title="hspace_left_identity">
<ellipse fill="#f070d1" stroke="black" cx="2341" cy="-896.82" rx="103.19" ry="18"/>
<ellipse fill="none" stroke="black" cx="2341" cy="-896.82" rx="107.19" ry="22"/>
<ellipse fill="none" stroke="black" cx="2341" cy="-896.82" rx="111.18" ry="26"/>
<text text-anchor="middle" x="2341" y="-893.12" font-family="Times,serif" font-size="14.00">hspace_left_identity</text>
</a>
</g>
</g>
<!-- Core_hspace_left_identity&#45;&gt;Core_IsHSpace -->
<g id="edge32" class="edge">
<title>Core_hspace_left_identity&#45;&gt;Core_IsHSpace</title>
<path fill="none" stroke="black" d="M2286.1,-874.05C2151.71,-820.76 1808.44,-684.64 1687.75,-636.78"/>
<polygon fill="black" stroke="black" points="1689.03,-633.52 1678.44,-633.09 1686.45,-640.02 1689.03,-633.52"/>
</g>
<!-- Core_hspace_op -->
<g id="node26" class="node">
<title>Core_hspace_op</title>
<g id="a_node26"><a xlink:href="Core.html#hspace_op" xlink:title="hspace_op">
<ellipse fill="#f070d1" stroke="black" cx="1540" cy="-896.82" rx="58.49" ry="18"/>
<ellipse fill="none" stroke="black" cx="1540" cy="-896.82" rx="62.49" ry="22"/>
<ellipse fill="none" stroke="black" cx="1540" cy="-896.82" rx="66.49" ry="26"/>
<text text-anchor="middle" x="1540" y="-893.12" font-family="Times,serif" font-size="14.00">hspace_op</text>
</a>
</g>
</g>
<!-- Core_hspace_op&#45;&gt;Core_IsHSpace -->
<g id="edge33" class="edge">
<title>Core_hspace_op&#45;&gt;Core_IsHSpace</title>
<path fill="none" stroke="black" d="M1549.5,-870.84C1569.28,-818.86 1614.7,-699.47 1634.94,-646.26"/>
<polygon fill="black" stroke="black" points="1638.25,-647.42 1638.53,-636.83 1631.7,-644.93 1638.25,-647.42"/>
</g>
<!-- Core_IsHSpace_sind -->
<g id="node27" class="node">
<title>Core_IsHSpace_sind</title>
<g id="a_node27"><a xlink:href="Core.html#IsHSpace_sind" xlink:title="IsHSpace_sind">
<ellipse fill="#f070d1" stroke="black" cx="103" cy="-896.82" rx="78.77" ry="18"/>
<ellipse fill="none" stroke="black" cx="103" cy="-896.82" rx="82.78" ry="22"/>
<ellipse fill="none" stroke="black" cx="103" cy="-896.82" rx="86.79" ry="26"/>
<text text-anchor="middle" x="103" y="-893.12" font-family="Times,serif" font-size="14.00">IsHSpace_sind</text>
</a>
</g>
</g>
<!-- Core_IsHSpace_sind&#45;&gt;Core_Build_IsHSpace -->
<g id="edge34" class="edge">
<title>Core_IsHSpace_sind&#45;&gt;Core_Build_IsHSpace</title>
<path fill="none" stroke="black" d="M148.85,-874.62C260.97,-822.79 547.73,-690.22 656.91,-639.74"/>
<polygon fill="black" stroke="black" points="658.69,-642.78 666.3,-635.4 655.75,-636.42 658.69,-642.78"/>
</g>
<!-- Core_IsHSpace_sind&#45;&gt;Core_IsHSpace -->
<g id="edge35" class="edge">
<title>Core_IsHSpace_sind&#45;&gt;Core_IsHSpace</title>
<path fill="none" stroke="black" d="M165.16,-878.65C176.07,-875.87 187.34,-873.15 198,-870.82 732.76,-754.3 1388.11,-656.71 1585.82,-628.23"/>
<polygon fill="black" stroke="black" points="1586.59,-631.66 1595.99,-626.77 1585.59,-624.73 1586.59,-631.66"/>
</g>
<!-- Core_IsHSpace_rec -->
<g id="node28" class="node">
<title>Core_IsHSpace_rec</title>
<g id="a_node28"><a xlink:href="Core.html#IsHSpace_rec" xlink:title="IsHSpace_rec">
<ellipse fill="#f070d1" stroke="black" cx="1113" cy="-1203.82" rx="73.39" ry="18"/>
<ellipse fill="none" stroke="black" cx="1113" cy="-1203.82" rx="77.39" ry="22"/>
<ellipse fill="none" stroke="black" cx="1113" cy="-1203.82" rx="81.39" ry="26"/>
<text text-anchor="middle" x="1113" y="-1200.12" font-family="Times,serif" font-size="14.00">IsHSpace_rec</text>
</a>
</g>
</g>
<!-- Core_IsHSpace_rect -->
<g id="node30" class="node">
<title>Core_IsHSpace_rect</title>
<g id="a_node30"><a xlink:href="Core.html#IsHSpace_rect" xlink:title="IsHSpace_rect">
<ellipse fill="#f070d1" stroke="black" cx="1113" cy="-896.82" rx="77.19" ry="18"/>
<text text-anchor="middle" x="1113" y="-893.12" font-family="Times,serif" font-size="14.00">IsHSpace_rect</text>
</a>
</g>
</g>
<!-- Core_IsHSpace_rec&#45;&gt;Core_IsHSpace_rect -->
<g id="edge36" class="edge">
<title>Core_IsHSpace_rec&#45;&gt;Core_IsHSpace_rect</title>
<path fill="none" stroke="black" d="M1113,-1177.6C1113,-1121.02 1113,-984.32 1113,-925.5"/>
<polygon fill="black" stroke="black" points="1116.5,-925.14 1113,-915.14 1109.5,-925.14 1116.5,-925.14"/>
</g>
<!-- Core_IsHSpace_ind -->
<g id="node29" class="node">
<title>Core_IsHSpace_ind</title>
<g id="a_node29"><a xlink:href="Core.html#IsHSpace_ind" xlink:title="IsHSpace_ind">
<ellipse fill="#7fffd4" stroke="black" cx="476" cy="-896.82" rx="73.39" ry="18"/>
<ellipse fill="none" stroke="black" cx="476" cy="-896.82" rx="77.39" ry="22"/>
<ellipse fill="none" stroke="black" cx="476" cy="-896.82" rx="81.39" ry="26"/>
<text text-anchor="middle" x="476" y="-893.12" font-family="Times,serif" font-size="14.00">IsHSpace_ind</text>
</a>
</g>
</g>
<!-- Core_IsHSpace_ind&#45;&gt;Core_Build_IsHSpace -->
<g id="edge37" class="edge">
<title>Core_IsHSpace_ind&#45;&gt;Core_Build_IsHSpace</title>
<path fill="none" stroke="black" d="M495.88,-871.33C538.26,-819.11 637.11,-697.31 679.79,-644.73"/>
<polygon fill="black" stroke="black" points="682.55,-646.87 686.14,-636.9 677.12,-642.46 682.55,-646.87"/>
</g>
<!-- Core_IsHSpace_ind&#45;&gt;Core_IsHSpace -->
<g id="edge38" class="edge">
<title>Core_IsHSpace_ind&#45;&gt;Core_IsHSpace</title>
<path fill="none" stroke="black" d="M535.45,-878.93C545.62,-876.14 556.1,-873.35 566,-870.82 957.16,-771.05 1432.23,-666.15 1590.67,-631.61"/>
<polygon fill="black" stroke="black" points="1591.62,-634.98 1600.64,-629.43 1590.13,-628.14 1591.62,-634.98"/>
</g>
<!-- Core_IsHSpace_rect&#45;&gt;Core_Build_IsHSpace -->
<g id="edge39" class="edge">
<title>Core_IsHSpace_rect&#45;&gt;Core_Build_IsHSpace</title>
<path fill="none" stroke="black" d="M1088.71,-879.59C1018.28,-832.52 813.91,-695.95 733.28,-642.06"/>
<polygon fill="black" stroke="black" points="734.78,-638.86 724.52,-636.21 730.89,-644.68 734.78,-638.86"/>
</g>
<!-- Core_IsHSpace_rect&#45;&gt;Core_IsHSpace -->
<g id="edge40" class="edge">
<title>Core_IsHSpace_rect&#45;&gt;Core_IsHSpace</title>
<path fill="none" stroke="black" d="M1143.13,-880.19C1234.37,-832.86 1507.56,-691.13 1607.69,-639.18"/>
<polygon fill="black" stroke="black" points="1609.56,-642.15 1616.82,-634.44 1606.34,-635.94 1609.56,-642.15"/>
</g>
</g>
</svg>
