<?xml version="1.0" encoding="UTF-8" standalone="no"?>
<!DOCTYPE svg PUBLIC "-//W3C//DTD SVG 1.1//EN"
 "http://www.w3.org/Graphics/SVG/1.1/DTD/svg11.dtd">
<!-- Generated by graphviz version 2.43.0 (0)
 -->
<!-- Title: HoTT_Types_Forall Pages: 1 -->
<svg width="2098pt" height="1053pt"
 viewBox="0.00 0.00 2098.00 1053.00" xmlns="http://www.w3.org/2000/svg" xmlns:xlink="http://www.w3.org/1999/xlink">
<g id="graph0" class="graph" transform="scale(1 1) rotate(0) translate(4 1049)">
<title>HoTT_Types_Forall</title>
<polygon fill="white" stroke="transparent" points="-4,4 -4,-1049 2094,-1049 2094,4 -4,4"/>
<g id="clust1" class="cluster">
<title>cluster_Forall</title>
<polygon fill="#ffffc3" stroke="black" points="8,-11.82 8,-1033.18 2082,-1033.18 2082,-11.82 8,-11.82"/>
<text text-anchor="middle" x="37" y="-1017.98" font-family="Times,serif" font-size="14.00">Forall</text>
</g>
<!-- Forall_equiv_flip -->
<g id="node1" class="node">
<title>Forall_equiv_flip</title>
<g id="a_node1"><a xlink:href="Forall.html#equiv_flip" xlink:title="equiv_flip">
<ellipse fill="#f070d1" stroke="black" cx="2011" cy="-948.82" rx="55.46" ry="18"/>
<ellipse fill="none" stroke="black" cx="2011" cy="-948.82" rx="59.48" ry="22"/>
<ellipse fill="none" stroke="black" cx="2011" cy="-948.82" rx="63.49" ry="26"/>
<text text-anchor="middle" x="2011" y="-945.12" font-family="Times,serif" font-size="14.00">equiv_flip</text>
</a>
</g>
</g>
<!-- Forall_isequiv_flip -->
<g id="node2" class="node">
<title>Forall_isequiv_flip</title>
<g id="a_node2"><a xlink:href="Forall.html#isequiv_flip" xlink:title="isequiv_flip">
<ellipse fill="#f070d1" stroke="black" cx="2011" cy="-818.82" rx="63.09" ry="18"/>
<text text-anchor="middle" x="2011" y="-815.12" font-family="Times,serif" font-size="14.00">isequiv_flip</text>
</a>
</g>
</g>
<!-- Forall_equiv_flip&#45;&gt;Forall_isequiv_flip -->
<g id="edge1" class="edge">
<title>Forall_equiv_flip&#45;&gt;Forall_isequiv_flip</title>
<path fill="none" stroke="black" d="M2011,-922.54C2011,-900.75 2011,-869.37 2011,-847.04"/>
<polygon fill="black" stroke="black" points="2014.5,-846.88 2011,-836.88 2007.5,-846.88 2014.5,-846.88"/>
</g>
<!-- Forall_equiv_contr_forall -->
<g id="node3" class="node">
<title>Forall_equiv_contr_forall</title>
<g id="a_node3"><a xlink:href="Forall.html#equiv_contr_forall" xlink:title="equiv_contr_forall">
<ellipse fill="#f070d1" stroke="black" cx="1828" cy="-948.82" rx="93.68" ry="18"/>
<ellipse fill="none" stroke="black" cx="1828" cy="-948.82" rx="97.68" ry="22"/>
<ellipse fill="none" stroke="black" cx="1828" cy="-948.82" rx="101.68" ry="26"/>
<text text-anchor="middle" x="1828" y="-945.12" font-family="Times,serif" font-size="14.00">equiv_contr_forall</text>
</a>
</g>
</g>
<!-- Forall_isequiv_path_forall11 -->
<g id="node4" class="node">
<title>Forall_isequiv_path_forall11</title>
<g id="a_node4"><a xlink:href="Forall.html#isequiv_path_forall11" xlink:title="isequiv_path_forall11">
<ellipse fill="#f070d1" stroke="black" cx="1591" cy="-948.82" rx="109.69" ry="18"/>
<ellipse fill="none" stroke="black" cx="1591" cy="-948.82" rx="113.69" ry="22"/>
<ellipse fill="none" stroke="black" cx="1591" cy="-948.82" rx="117.68" ry="26"/>
<text text-anchor="middle" x="1591" y="-945.12" font-family="Times,serif" font-size="14.00">isequiv_path_forall11</text>
</a>
</g>
</g>
<!-- Forall_path_forall11 -->
<g id="node5" class="node">
<title>Forall_path_forall11</title>
<g id="a_node5"><a xlink:href="Forall.html#path_forall11" xlink:title="path_forall11">
<ellipse fill="#f070d1" stroke="black" cx="1308" cy="-818.82" rx="72.29" ry="18"/>
<text text-anchor="middle" x="1308" y="-815.12" font-family="Times,serif" font-size="14.00">path_forall11</text>
</a>
</g>
</g>
<!-- Forall_isequiv_path_forall11&#45;&gt;Forall_path_forall11 -->
<g id="edge2" class="edge">
<title>Forall_isequiv_path_forall11&#45;&gt;Forall_path_forall11</title>
<path fill="none" stroke="black" d="M1541.06,-925.24C1486.98,-900.78 1401.64,-862.18 1350.61,-839.1"/>
<polygon fill="black" stroke="black" points="1352.05,-835.91 1341.5,-834.98 1349.17,-842.29 1352.05,-835.91"/>
</g>
<!-- Forall_equiv_path_forall11 -->
<g id="node6" class="node">
<title>Forall_equiv_path_forall11</title>
<g id="a_node6"><a xlink:href="Forall.html#equiv_path_forall11" xlink:title="equiv_path_forall11">
<ellipse fill="#f070d1" stroke="black" cx="1183" cy="-688.82" rx="102.08" ry="18"/>
<text text-anchor="middle" x="1183" y="-685.12" font-family="Times,serif" font-size="14.00">equiv_path_forall11</text>
</a>
</g>
</g>
<!-- Forall_path_forall11&#45;&gt;Forall_equiv_path_forall11 -->
<g id="edge3" class="edge">
<title>Forall_path_forall11&#45;&gt;Forall_equiv_path_forall11</title>
<path fill="none" stroke="black" d="M1291.66,-801.09C1270.07,-778.98 1231.87,-739.87 1207,-714.4"/>
<polygon fill="black" stroke="black" points="1209.24,-711.68 1199.74,-706.97 1204.23,-716.57 1209.24,-711.68"/>
</g>
<!-- Forall_equiv_functor_forall_id -->
<g id="node11" class="node">
<title>Forall_equiv_functor_forall_id</title>
<g id="a_node11"><a xlink:href="Forall.html#equiv_functor_forall_id" xlink:title="equiv_functor_forall_id">
<ellipse fill="#f070d1" stroke="black" cx="1304" cy="-558.82" rx="116.18" ry="18"/>
<text text-anchor="middle" x="1304" y="-555.12" font-family="Times,serif" font-size="14.00">equiv_functor_forall_id</text>
</a>
</g>
</g>
<!-- Forall_equiv_path_forall11&#45;&gt;Forall_equiv_functor_forall_id -->
<g id="edge4" class="edge">
<title>Forall_equiv_path_forall11&#45;&gt;Forall_equiv_functor_forall_id</title>
<path fill="none" stroke="black" d="M1199.07,-670.83C1220.04,-648.64 1256.89,-609.66 1280.87,-584.29"/>
<polygon fill="black" stroke="black" points="1283.54,-586.56 1287.87,-576.89 1278.45,-581.75 1283.54,-586.56"/>
</g>
<!-- Forall_equiv_path_forall -->
<g id="node34" class="node">
<title>Forall_equiv_path_forall</title>
<g id="a_node34"><a xlink:href="Forall.html#equiv_path_forall" xlink:title="equiv_path_forall">
<ellipse fill="#f070d1" stroke="black" cx="739" cy="-558.82" rx="90.18" ry="18"/>
<text text-anchor="middle" x="739" y="-555.12" font-family="Times,serif" font-size="14.00">equiv_path_forall</text>
</a>
</g>
</g>
<!-- Forall_equiv_path_forall11&#45;&gt;Forall_equiv_path_forall -->
<g id="edge5" class="edge">
<title>Forall_equiv_path_forall11&#45;&gt;Forall_equiv_path_forall</title>
<path fill="none" stroke="black" d="M1132.07,-673.14C1049.27,-649.27 885.92,-602.18 798.13,-576.87"/>
<polygon fill="black" stroke="black" points="798.9,-573.45 788.32,-574.04 796.96,-580.18 798.9,-573.45"/>
</g>
<!-- Forall_iff_functor_forall -->
<g id="node7" class="node">
<title>Forall_iff_functor_forall</title>
<g id="a_node7"><a xlink:href="Forall.html#iff_functor_forall" xlink:title="iff_functor_forall">
<ellipse fill="#f070d1" stroke="black" cx="1124" cy="-298.82" rx="87.18" ry="18"/>
<ellipse fill="none" stroke="black" cx="1124" cy="-298.82" rx="91.18" ry="22"/>
<ellipse fill="none" stroke="black" cx="1124" cy="-298.82" rx="95.18" ry="26"/>
<text text-anchor="middle" x="1124" y="-295.12" font-family="Times,serif" font-size="14.00">iff_functor_forall</text>
</a>
</g>
</g>
<!-- Forall_functor_forall -->
<g id="node22" class="node">
<title>Forall_functor_forall</title>
<g id="a_node22"><a xlink:href="Forall.html#functor_forall" xlink:title="functor_forall">
<ellipse fill="#f070d1" stroke="black" cx="1332" cy="-168.82" rx="73.39" ry="18"/>
<text text-anchor="middle" x="1332" y="-165.12" font-family="Times,serif" font-size="14.00">functor_forall</text>
</a>
</g>
</g>
<!-- Forall_iff_functor_forall&#45;&gt;Forall_functor_forall -->
<g id="edge6" class="edge">
<title>Forall_iff_functor_forall&#45;&gt;Forall_functor_forall</title>
<path fill="none" stroke="black" d="M1161.67,-274.64C1200.36,-250.83 1260.07,-214.09 1297.55,-191.03"/>
<polygon fill="black" stroke="black" points="1299.43,-193.98 1306.11,-185.76 1295.76,-188.02 1299.43,-193.98"/>
</g>
<!-- Forall_equiv_functor_forall_covariant_compose -->
<g id="node8" class="node">
<title>Forall_equiv_functor_forall_covariant_compose</title>
<g id="a_node8"><a xlink:href="Forall.html#equiv_functor_forall_covariant_compose" xlink:title="equiv_functor_forall_covariant_compose">
<ellipse fill="#f070d1" stroke="black" cx="1726" cy="-818.82" rx="195.76" ry="18"/>
<ellipse fill="none" stroke="black" cx="1726" cy="-818.82" rx="199.76" ry="22"/>
<ellipse fill="none" stroke="black" cx="1726" cy="-818.82" rx="203.77" ry="26"/>
<text text-anchor="middle" x="1726" y="-815.12" font-family="Times,serif" font-size="14.00">equiv_functor_forall_covariant_compose</text>
</a>
</g>
</g>
<!-- Forall_equiv_functor_forall_covariant -->
<g id="node9" class="node">
<title>Forall_equiv_functor_forall_covariant</title>
<g id="a_node9"><a xlink:href="Forall.html#equiv_functor_forall_covariant" xlink:title="equiv_functor_forall_covariant">
<ellipse fill="#f070d1" stroke="black" cx="1726" cy="-688.82" rx="150.57" ry="18"/>
<text text-anchor="middle" x="1726" y="-685.12" font-family="Times,serif" font-size="14.00">equiv_functor_forall_covariant</text>
</a>
</g>
</g>
<!-- Forall_equiv_functor_forall_covariant_compose&#45;&gt;Forall_equiv_functor_forall_covariant -->
<g id="edge7" class="edge">
<title>Forall_equiv_functor_forall_covariant_compose&#45;&gt;Forall_equiv_functor_forall_covariant</title>
<path fill="none" stroke="black" d="M1726,-792.54C1726,-770.75 1726,-739.37 1726,-717.04"/>
<polygon fill="black" stroke="black" points="1729.5,-716.88 1726,-706.88 1722.5,-716.88 1729.5,-716.88"/>
</g>
<!-- Forall_functor_forall_compose -->
<g id="node20" class="node">
<title>Forall_functor_forall_compose</title>
<g id="a_node20"><a xlink:href="Forall.html#functor_forall_compose" xlink:title="functor_forall_compose">
<ellipse fill="#f070d1" stroke="black" cx="1896" cy="-558.82" rx="118.08" ry="18"/>
<text text-anchor="middle" x="1896" y="-555.12" font-family="Times,serif" font-size="14.00">functor_forall_compose</text>
</a>
</g>
</g>
<!-- Forall_equiv_functor_forall_covariant_compose&#45;&gt;Forall_functor_forall_compose -->
<g id="edge8" class="edge">
<title>Forall_equiv_functor_forall_covariant_compose&#45;&gt;Forall_functor_forall_compose</title>
<path fill="none" stroke="black" d="M1789.11,-794.05C1823.94,-777.43 1864.4,-751.56 1886,-714.82 1909.21,-675.36 1906.03,-620.05 1901.26,-587.28"/>
<polygon fill="black" stroke="black" points="1904.66,-586.41 1899.61,-577.09 1897.75,-587.52 1904.66,-586.41"/>
</g>
<!-- Forall_equiv_functor_forall_ -->
<g id="node12" class="node">
<title>Forall_equiv_functor_forall_</title>
<g id="a_node12"><a xlink:href="Forall.html#equiv_functor_forall'" xlink:title="equiv_functor_forall&#39;">
<ellipse fill="#f070d1" stroke="black" cx="1617" cy="-558.82" rx="105.08" ry="18"/>
<text text-anchor="middle" x="1617" y="-555.12" font-family="Times,serif" font-size="14.00">equiv_functor_forall&#39;</text>
</a>
</g>
</g>
<!-- Forall_equiv_functor_forall_covariant&#45;&gt;Forall_equiv_functor_forall_ -->
<g id="edge9" class="edge">
<title>Forall_equiv_functor_forall_covariant&#45;&gt;Forall_equiv_functor_forall_</title>
<path fill="none" stroke="black" d="M1711.53,-670.83C1692.71,-648.74 1659.72,-609.99 1638.12,-584.62"/>
<polygon fill="black" stroke="black" points="1640.68,-582.24 1631.53,-576.89 1635.35,-586.78 1640.68,-582.24"/>
</g>
<!-- Forall_equiv_functor_forall_pb -->
<g id="node10" class="node">
<title>Forall_equiv_functor_forall_pb</title>
<g id="a_node10"><a xlink:href="Forall.html#equiv_functor_forall_pb" xlink:title="equiv_functor_forall_pb">
<ellipse fill="#f070d1" stroke="black" cx="1430" cy="-688.82" rx="118.88" ry="18"/>
<ellipse fill="none" stroke="black" cx="1430" cy="-688.82" rx="122.88" ry="22"/>
<ellipse fill="none" stroke="black" cx="1430" cy="-688.82" rx="126.88" ry="26"/>
<text text-anchor="middle" x="1430" y="-685.12" font-family="Times,serif" font-size="14.00">equiv_functor_forall_pb</text>
</a>
</g>
</g>
<!-- Forall_equiv_functor_forall_pb&#45;&gt;Forall_equiv_functor_forall_ -->
<g id="edge10" class="edge">
<title>Forall_equiv_functor_forall_pb&#45;&gt;Forall_equiv_functor_forall_</title>
<path fill="none" stroke="black" d="M1465.17,-663.75C1499.36,-640.35 1550.87,-605.09 1584.22,-582.26"/>
<polygon fill="black" stroke="black" points="1586.42,-585 1592.7,-576.46 1582.47,-579.22 1586.42,-585"/>
</g>
<!-- Forall_equiv_functor_forall -->
<g id="node13" class="node">
<title>Forall_equiv_functor_forall</title>
<g id="a_node13"><a xlink:href="Forall.html#equiv_functor_forall" xlink:title="equiv_functor_forall">
<ellipse fill="#f070d1" stroke="black" cx="1617" cy="-428.82" rx="102.88" ry="18"/>
<text text-anchor="middle" x="1617" y="-425.12" font-family="Times,serif" font-size="14.00">equiv_functor_forall</text>
</a>
</g>
</g>
<!-- Forall_equiv_functor_forall_id&#45;&gt;Forall_equiv_functor_forall -->
<g id="edge11" class="edge">
<title>Forall_equiv_functor_forall_id&#45;&gt;Forall_equiv_functor_forall</title>
<path fill="none" stroke="black" d="M1343.32,-541.74C1400.68,-518.29 1507.16,-474.74 1569.04,-449.44"/>
<polygon fill="black" stroke="black" points="1570.64,-452.56 1578.57,-445.54 1567.99,-446.09 1570.64,-452.56"/>
</g>
<!-- Forall_equiv_functor_forall_&#45;&gt;Forall_equiv_functor_forall -->
<g id="edge12" class="edge">
<title>Forall_equiv_functor_forall_&#45;&gt;Forall_equiv_functor_forall</title>
<path fill="none" stroke="black" d="M1617,-540.56C1617,-519.19 1617,-482.52 1617,-457.27"/>
<polygon fill="black" stroke="black" points="1620.5,-457.22 1617,-447.22 1613.5,-457.22 1620.5,-457.22"/>
</g>
<!-- Forall_isequiv_functor_forall -->
<g id="node14" class="node">
<title>Forall_isequiv_functor_forall</title>
<g id="a_node14"><a xlink:href="Forall.html#isequiv_functor_forall" xlink:title="isequiv_functor_forall">
<ellipse fill="#f070d1" stroke="black" cx="1767" cy="-298.82" rx="110.48" ry="18"/>
<text text-anchor="middle" x="1767" y="-295.12" font-family="Times,serif" font-size="14.00">isequiv_functor_forall</text>
</a>
</g>
</g>
<!-- Forall_equiv_functor_forall&#45;&gt;Forall_isequiv_functor_forall -->
<g id="edge13" class="edge">
<title>Forall_equiv_functor_forall&#45;&gt;Forall_isequiv_functor_forall</title>
<path fill="none" stroke="black" d="M1636.61,-411.09C1662.89,-388.67 1709.66,-348.76 1739.46,-323.32"/>
<polygon fill="black" stroke="black" points="1742.05,-325.72 1747.39,-316.56 1737.51,-320.39 1742.05,-325.72"/>
</g>
<!-- Forall_isequiv_functor_forall&#45;&gt;Forall_functor_forall -->
<g id="edge14" class="edge">
<title>Forall_isequiv_functor_forall&#45;&gt;Forall_functor_forall</title>
<path fill="none" stroke="black" d="M1715.82,-282.76C1633.3,-258.48 1471.53,-210.88 1386.77,-185.94"/>
<polygon fill="black" stroke="black" points="1387.66,-182.55 1377.07,-183.09 1385.68,-189.27 1387.66,-182.55"/>
</g>
<!-- Forall_functor_forall_equiv_pb_beta -->
<g id="node15" class="node">
<title>Forall_functor_forall_equiv_pb_beta</title>
<g id="a_node15"><a xlink:href="Forall.html#functor_forall_equiv_pb_beta" xlink:title="functor_forall_equiv_pb_beta">
<ellipse fill="#f070d1" stroke="black" cx="999" cy="-558.82" rx="143.77" ry="18"/>
<ellipse fill="none" stroke="black" cx="999" cy="-558.82" rx="147.77" ry="22"/>
<ellipse fill="none" stroke="black" cx="999" cy="-558.82" rx="151.77" ry="26"/>
<text text-anchor="middle" x="999" y="-555.12" font-family="Times,serif" font-size="14.00">functor_forall_equiv_pb_beta</text>
</a>
</g>
</g>
<!-- Forall_functor_forall_equiv_pb -->
<g id="node16" class="node">
<title>Forall_functor_forall_equiv_pb</title>
<g id="a_node16"><a xlink:href="Forall.html#functor_forall_equiv_pb" xlink:title="functor_forall_equiv_pb">
<ellipse fill="#f070d1" stroke="black" cx="987" cy="-428.82" rx="118.88" ry="18"/>
<text text-anchor="middle" x="987" y="-425.12" font-family="Times,serif" font-size="14.00">functor_forall_equiv_pb</text>
</a>
</g>
</g>
<!-- Forall_functor_forall_equiv_pb_beta&#45;&gt;Forall_functor_forall_equiv_pb -->
<g id="edge15" class="edge">
<title>Forall_functor_forall_equiv_pb_beta&#45;&gt;Forall_functor_forall_equiv_pb</title>
<path fill="none" stroke="black" d="M996.63,-532.54C994.59,-510.75 991.64,-479.37 989.55,-457.04"/>
<polygon fill="black" stroke="black" points="993.02,-456.51 988.6,-446.88 986.05,-457.17 993.02,-456.51"/>
</g>
<!-- Forall_functor_forall_equiv -->
<g id="node17" class="node">
<title>Forall_functor_forall_equiv</title>
<g id="a_node17"><a xlink:href="Forall.html#functor_forall_equiv" xlink:title="functor_forall_equiv">
<ellipse fill="#f070d1" stroke="black" cx="908" cy="-298.82" rx="102.88" ry="18"/>
<text text-anchor="middle" x="908" y="-295.12" font-family="Times,serif" font-size="14.00">functor_forall_equiv</text>
</a>
</g>
</g>
<!-- Forall_functor_forall_equiv_pb&#45;&gt;Forall_functor_forall_equiv -->
<g id="edge16" class="edge">
<title>Forall_functor_forall_equiv_pb&#45;&gt;Forall_functor_forall_equiv</title>
<path fill="none" stroke="black" d="M976.51,-410.83C963.05,-389.02 939.58,-351 923.92,-325.62"/>
<polygon fill="black" stroke="black" points="926.76,-323.56 918.53,-316.89 920.81,-327.24 926.76,-323.56"/>
</g>
<!-- Forall_functor_forall_equiv&#45;&gt;Forall_functor_forall -->
<g id="edge17" class="edge">
<title>Forall_functor_forall_equiv&#45;&gt;Forall_functor_forall</title>
<path fill="none" stroke="black" d="M957.47,-282.89C1037.55,-258.71 1194.97,-211.19 1277.91,-186.15"/>
<polygon fill="black" stroke="black" points="1279.09,-189.45 1287.65,-183.21 1277.07,-182.75 1279.09,-189.45"/>
</g>
<!-- Forall_functor_forall_pb -->
<g id="node18" class="node">
<title>Forall_functor_forall_pb</title>
<g id="a_node18"><a xlink:href="Forall.html#functor_forall_pb" xlink:title="functor_forall_pb">
<ellipse fill="#f070d1" stroke="black" cx="1541" cy="-298.82" rx="89.08" ry="18"/>
<ellipse fill="none" stroke="black" cx="1541" cy="-298.82" rx="93.08" ry="22"/>
<ellipse fill="none" stroke="black" cx="1541" cy="-298.82" rx="97.08" ry="26"/>
<text text-anchor="middle" x="1541" y="-295.12" font-family="Times,serif" font-size="14.00">functor_forall_pb</text>
</a>
</g>
</g>
<!-- Forall_functor_forall_pb&#45;&gt;Forall_functor_forall -->
<g id="edge18" class="edge">
<title>Forall_functor_forall_pb&#45;&gt;Forall_functor_forall</title>
<path fill="none" stroke="black" d="M1503.15,-274.64C1464.27,-250.83 1404.27,-214.09 1366.62,-191.03"/>
<polygon fill="black" stroke="black" points="1368.37,-187.99 1358.01,-185.76 1364.71,-193.96 1368.37,-187.99"/>
</g>
<!-- Forall_functor_forall_id -->
<g id="node19" class="node">
<title>Forall_functor_forall_id</title>
<g id="a_node19"><a xlink:href="Forall.html#functor_forall_id" xlink:title="functor_forall_id">
<ellipse fill="#f070d1" stroke="black" cx="1332" cy="-298.82" rx="86.39" ry="18"/>
<ellipse fill="none" stroke="black" cx="1332" cy="-298.82" rx="90.39" ry="22"/>
<ellipse fill="none" stroke="black" cx="1332" cy="-298.82" rx="94.38" ry="26"/>
<text text-anchor="middle" x="1332" y="-295.12" font-family="Times,serif" font-size="14.00">functor_forall_id</text>
</a>
</g>
</g>
<!-- Forall_functor_forall_id&#45;&gt;Forall_functor_forall -->
<g id="edge19" class="edge">
<title>Forall_functor_forall_id&#45;&gt;Forall_functor_forall</title>
<path fill="none" stroke="black" d="M1332,-272.54C1332,-250.75 1332,-219.37 1332,-197.04"/>
<polygon fill="black" stroke="black" points="1335.5,-196.88 1332,-186.88 1328.5,-196.88 1335.5,-196.88"/>
</g>
<!-- Forall_functor_forall_compose&#45;&gt;Forall_functor_forall -->
<g id="edge20" class="edge">
<title>Forall_functor_forall_compose&#45;&gt;Forall_functor_forall</title>
<path fill="none" stroke="black" d="M1901.83,-540.81C1917.29,-492.24 1953.69,-351.41 1886,-272.82 1825.78,-202.91 1553.46,-180.1 1414.35,-172.94"/>
<polygon fill="black" stroke="black" points="1414.32,-169.44 1404.16,-172.43 1413.97,-176.43 1414.32,-169.44"/>
</g>
<!-- Forall_ap_functor_forall -->
<g id="node21" class="node">
<title>Forall_ap_functor_forall</title>
<g id="a_node21"><a xlink:href="Forall.html#ap_functor_forall" xlink:title="ap_functor_forall">
<ellipse fill="#f070d1" stroke="black" cx="690" cy="-298.82" rx="89.08" ry="18"/>
<ellipse fill="none" stroke="black" cx="690" cy="-298.82" rx="93.08" ry="22"/>
<ellipse fill="none" stroke="black" cx="690" cy="-298.82" rx="97.08" ry="26"/>
<text text-anchor="middle" x="690" y="-295.12" font-family="Times,serif" font-size="14.00">ap_functor_forall</text>
</a>
</g>
</g>
<!-- Forall_ap_functor_forall&#45;&gt;Forall_functor_forall -->
<g id="edge21" class="edge">
<title>Forall_ap_functor_forall&#45;&gt;Forall_functor_forall</title>
<path fill="none" stroke="black" d="M760.32,-280.8C772.21,-278.05 784.44,-275.3 796,-272.82 963.92,-236.91 1162.69,-200.23 1264.49,-181.86"/>
<polygon fill="black" stroke="black" points="1265.11,-185.31 1274.33,-180.09 1263.87,-178.42 1265.11,-185.31"/>
</g>
<!-- Forall_path_forall_1 -->
<g id="node37" class="node">
<title>Forall_path_forall_1</title>
<g id="a_node37"><a xlink:href="Forall.html#path_forall_1" xlink:title="path_forall_1">
<ellipse fill="#f070d1" stroke="black" cx="598" cy="-168.82" rx="70.69" ry="18"/>
<text text-anchor="middle" x="598" y="-165.12" font-family="Times,serif" font-size="14.00">path_forall_1</text>
</a>
</g>
</g>
<!-- Forall_ap_functor_forall&#45;&gt;Forall_path_forall_1 -->
<g id="edge22" class="edge">
<title>Forall_ap_functor_forall&#45;&gt;Forall_path_forall_1</title>
<path fill="none" stroke="black" d="M672.26,-273.14C656.13,-250.7 632.42,-217.72 616.16,-195.09"/>
<polygon fill="black" stroke="black" points="618.79,-192.75 610.11,-186.67 613.1,-196.84 618.79,-192.75"/>
</g>
<!-- Forall_dpath_forall_constant -->
<g id="node23" class="node">
<title>Forall_dpath_forall_constant</title>
<g id="a_node23"><a xlink:href="Forall.html#dpath_forall_constant" xlink:title="dpath_forall_constant">
<ellipse fill="#f070d1" stroke="black" cx="845" cy="-688.82" rx="110.48" ry="18"/>
<ellipse fill="none" stroke="black" cx="845" cy="-688.82" rx="114.48" ry="22"/>
<ellipse fill="none" stroke="black" cx="845" cy="-688.82" rx="118.48" ry="26"/>
<text text-anchor="middle" x="845" y="-685.12" font-family="Times,serif" font-size="14.00">dpath_forall_constant</text>
</a>
</g>
</g>
<!-- Forall_dpath_forall_constant&#45;&gt;Forall_equiv_path_forall -->
<g id="edge23" class="edge">
<title>Forall_dpath_forall_constant&#45;&gt;Forall_equiv_path_forall</title>
<path fill="none" stroke="black" d="M824.56,-663.14C805.81,-640.5 778.18,-607.13 759.43,-584.49"/>
<polygon fill="black" stroke="black" points="762.03,-582.14 752.95,-576.67 756.64,-586.61 762.03,-582.14"/>
</g>
<!-- Forall_dpath_forall -->
<g id="node24" class="node">
<title>Forall_dpath_forall</title>
<g id="a_node24"><a xlink:href="Forall.html#dpath_forall" xlink:title="dpath_forall">
<ellipse fill="#f070d1" stroke="black" cx="634" cy="-688.82" rx="66.11" ry="18"/>
<ellipse fill="none" stroke="black" cx="634" cy="-688.82" rx="70.1" ry="22"/>
<ellipse fill="none" stroke="black" cx="634" cy="-688.82" rx="74.09" ry="26"/>
<text text-anchor="middle" x="634" y="-685.12" font-family="Times,serif" font-size="14.00">dpath_forall</text>
</a>
</g>
</g>
<!-- Forall_dpath_forall&#45;&gt;Forall_equiv_path_forall -->
<g id="edge24" class="edge">
<title>Forall_dpath_forall&#45;&gt;Forall_equiv_path_forall</title>
<path fill="none" stroke="black" d="M653.75,-663.75C672.27,-641.17 699.84,-607.57 718.57,-584.73"/>
<polygon fill="black" stroke="black" points="721.41,-586.79 725.04,-576.84 715.99,-582.35 721.41,-586.79"/>
</g>
<!-- Forall_ap_precomposeD -->
<g id="node25" class="node">
<title>Forall_ap_precomposeD</title>
<g id="a_node25"><a xlink:href="Forall.html#ap_precomposeD" xlink:title="ap_precomposeD">
<ellipse fill="#f070d1" stroke="black" cx="507" cy="-428.82" rx="89.87" ry="18"/>
<ellipse fill="none" stroke="black" cx="507" cy="-428.82" rx="93.88" ry="22"/>
<ellipse fill="none" stroke="black" cx="507" cy="-428.82" rx="97.88" ry="26"/>
<text text-anchor="middle" x="507" y="-425.12" font-family="Times,serif" font-size="14.00">ap_precomposeD</text>
</a>
</g>
</g>
<!-- Forall_ap_lambdaD -->
<g id="node26" class="node">
<title>Forall_ap_lambdaD</title>
<g id="a_node26"><a xlink:href="Forall.html#ap_lambdaD" xlink:title="ap_lambdaD">
<ellipse fill="#f070d1" stroke="black" cx="507" cy="-298.82" rx="67.69" ry="18"/>
<text text-anchor="middle" x="507" y="-295.12" font-family="Times,serif" font-size="14.00">ap_lambdaD</text>
</a>
</g>
</g>
<!-- Forall_ap_precomposeD&#45;&gt;Forall_ap_lambdaD -->
<g id="edge25" class="edge">
<title>Forall_ap_precomposeD&#45;&gt;Forall_ap_lambdaD</title>
<path fill="none" stroke="black" d="M507,-402.54C507,-380.75 507,-349.37 507,-327.04"/>
<polygon fill="black" stroke="black" points="510.5,-326.88 507,-316.88 503.5,-326.88 510.5,-326.88"/>
</g>
<!-- Forall_ap_lambdaD&#45;&gt;Forall_path_forall_1 -->
<g id="edge26" class="edge">
<title>Forall_ap_lambdaD&#45;&gt;Forall_path_forall_1</title>
<path fill="none" stroke="black" d="M518.9,-281.09C534.41,-259.27 561.7,-220.88 579.82,-195.4"/>
<polygon fill="black" stroke="black" points="582.87,-197.15 585.81,-186.97 577.16,-193.09 582.87,-197.15"/>
</g>
<!-- Forall_ap_apply_lD2 -->
<g id="node27" class="node">
<title>Forall_ap_apply_lD2</title>
<g id="a_node27"><a xlink:href="Forall.html#ap_apply_lD2" xlink:title="ap_apply_lD2">
<ellipse fill="#f070d1" stroke="black" cx="1375" cy="-948.82" rx="72.27" ry="18"/>
<ellipse fill="none" stroke="black" cx="1375" cy="-948.82" rx="76.28" ry="22"/>
<ellipse fill="none" stroke="black" cx="1375" cy="-948.82" rx="80.29" ry="26"/>
<text text-anchor="middle" x="1375" y="-945.12" font-family="Times,serif" font-size="14.00">ap_apply_lD2</text>
</a>
</g>
</g>
<!-- Forall_ap_apply_lD -->
<g id="node28" class="node">
<title>Forall_ap_apply_lD</title>
<g id="a_node28"><a xlink:href="Forall.html#ap_apply_lD" xlink:title="ap_apply_lD">
<ellipse fill="#f070d1" stroke="black" cx="1203" cy="-948.82" rx="66.11" ry="18"/>
<ellipse fill="none" stroke="black" cx="1203" cy="-948.82" rx="70.1" ry="22"/>
<ellipse fill="none" stroke="black" cx="1203" cy="-948.82" rx="74.09" ry="26"/>
<text text-anchor="middle" x="1203" y="-945.12" font-family="Times,serif" font-size="14.00">ap_apply_lD</text>
</a>
</g>
</g>
<!-- Forall_apD_transport_forall_constant -->
<g id="node29" class="node">
<title>Forall_apD_transport_forall_constant</title>
<g id="a_node29"><a xlink:href="Forall.html#apD_transport_forall_constant" xlink:title="apD_transport_forall_constant">
<ellipse fill="#f070d1" stroke="black" cx="952" cy="-948.82" rx="150.58" ry="18"/>
<ellipse fill="none" stroke="black" cx="952" cy="-948.82" rx="154.58" ry="22"/>
<ellipse fill="none" stroke="black" cx="952" cy="-948.82" rx="158.57" ry="26"/>
<text text-anchor="middle" x="952" y="-945.12" font-family="Times,serif" font-size="14.00">apD_transport_forall_constant</text>
</a>
</g>
</g>
<!-- Forall_transport_forall_constant -->
<g id="node30" class="node">
<title>Forall_transport_forall_constant</title>
<g id="a_node30"><a xlink:href="Forall.html#transport_forall_constant" xlink:title="transport_forall_constant">
<ellipse fill="#f070d1" stroke="black" cx="952" cy="-818.82" rx="128.08" ry="18"/>
<text text-anchor="middle" x="952" y="-815.12" font-family="Times,serif" font-size="14.00">transport_forall_constant</text>
</a>
</g>
</g>
<!-- Forall_apD_transport_forall_constant&#45;&gt;Forall_transport_forall_constant -->
<g id="edge27" class="edge">
<title>Forall_apD_transport_forall_constant&#45;&gt;Forall_transport_forall_constant</title>
<path fill="none" stroke="black" d="M952,-922.54C952,-900.75 952,-869.37 952,-847.04"/>
<polygon fill="black" stroke="black" points="955.5,-846.88 952,-836.88 948.5,-846.88 955.5,-846.88"/>
</g>
<!-- Forall_transport_forall -->
<g id="node31" class="node">
<title>Forall_transport_forall</title>
<g id="a_node31"><a xlink:href="Forall.html#transport_forall" xlink:title="transport_forall">
<ellipse fill="#f070d1" stroke="black" cx="684" cy="-948.82" rx="83.37" ry="18"/>
<ellipse fill="none" stroke="black" cx="684" cy="-948.82" rx="87.38" ry="22"/>
<ellipse fill="none" stroke="black" cx="684" cy="-948.82" rx="91.39" ry="26"/>
<text text-anchor="middle" x="684" y="-945.12" font-family="Times,serif" font-size="14.00">transport_forall</text>
</a>
</g>
</g>
<!-- Forall_path_forall_V -->
<g id="node32" class="node">
<title>Forall_path_forall_V</title>
<g id="a_node32"><a xlink:href="Forall.html#path_forall_V" xlink:title="path_forall_V">
<ellipse fill="#f070d1" stroke="black" cx="495" cy="-948.82" rx="71.49" ry="18"/>
<ellipse fill="none" stroke="black" cx="495" cy="-948.82" rx="75.49" ry="22"/>
<ellipse fill="none" stroke="black" cx="495" cy="-948.82" rx="79.49" ry="26"/>
<text text-anchor="middle" x="495" y="-945.12" font-family="Times,serif" font-size="14.00">path_forall_V</text>
</a>
</g>
</g>
<!-- Forall_path_forall_pp -->
<g id="node33" class="node">
<title>Forall_path_forall_pp</title>
<g id="a_node33"><a xlink:href="Forall.html#path_forall_pp" xlink:title="path_forall_pp">
<ellipse fill="#f070d1" stroke="black" cx="424" cy="-168.82" rx="76.87" ry="18"/>
<ellipse fill="none" stroke="black" cx="424" cy="-168.82" rx="80.88" ry="22"/>
<ellipse fill="none" stroke="black" cx="424" cy="-168.82" rx="84.89" ry="26"/>
<text text-anchor="middle" x="424" y="-165.12" font-family="Times,serif" font-size="14.00">path_forall_pp</text>
</a>
</g>
</g>
<!-- Forall_eta_path_forall -->
<g id="node38" class="node">
<title>Forall_eta_path_forall</title>
<g id="a_node38"><a xlink:href="Forall.html#eta_path_forall" xlink:title="eta_path_forall">
<ellipse fill="#f070d1" stroke="black" cx="511" cy="-49.82" rx="79.09" ry="18"/>
<text text-anchor="middle" x="511" y="-46.12" font-family="Times,serif" font-size="14.00">eta_path_forall</text>
</a>
</g>
</g>
<!-- Forall_path_forall_pp&#45;&gt;Forall_eta_path_forall -->
<g id="edge28" class="edge">
<title>Forall_path_forall_pp&#45;&gt;Forall_eta_path_forall</title>
<path fill="none" stroke="black" d="M442.24,-143.3C456.91,-123.57 477.45,-95.95 492.25,-76.04"/>
<polygon fill="black" stroke="black" points="495.25,-77.87 498.41,-67.76 489.63,-73.69 495.25,-77.87"/>
</g>
<!-- Forall_isequiv_path_forall -->
<g id="node35" class="node">
<title>Forall_isequiv_path_forall</title>
<g id="a_node35"><a xlink:href="Forall.html#isequiv_path_forall" xlink:title="isequiv_path_forall">
<ellipse fill="#f070d1" stroke="black" cx="739" cy="-428.82" rx="98.28" ry="18"/>
<text text-anchor="middle" x="739" y="-425.12" font-family="Times,serif" font-size="14.00">isequiv_path_forall</text>
</a>
</g>
</g>
<!-- Forall_equiv_path_forall&#45;&gt;Forall_isequiv_path_forall -->
<g id="edge29" class="edge">
<title>Forall_equiv_path_forall&#45;&gt;Forall_isequiv_path_forall</title>
<path fill="none" stroke="black" d="M739,-540.56C739,-519.19 739,-482.52 739,-457.27"/>
<polygon fill="black" stroke="black" points="742.5,-457.22 739,-447.22 735.5,-457.22 742.5,-457.22"/>
</g>
<!-- Forall_equiv_apD10 -->
<g id="node36" class="node">
<title>Forall_equiv_apD10</title>
<g id="a_node36"><a xlink:href="Forall.html#equiv_apD10" xlink:title="equiv_apD10">
<ellipse fill="#f070d1" stroke="black" cx="319" cy="-948.82" rx="70.7" ry="18"/>
<ellipse fill="none" stroke="black" cx="319" cy="-948.82" rx="74.7" ry="22"/>
<ellipse fill="none" stroke="black" cx="319" cy="-948.82" rx="78.69" ry="26"/>
<text text-anchor="middle" x="319" y="-945.12" font-family="Times,serif" font-size="14.00">equiv_apD10</text>
</a>
</g>
</g>
<!-- Forall_path_forall_1&#45;&gt;Forall_eta_path_forall -->
<g id="edge30" class="edge">
<title>Forall_path_forall_1&#45;&gt;Forall_eta_path_forall</title>
<path fill="none" stroke="black" d="M585.54,-151.06C570.95,-131.45 546.66,-98.79 529.79,-76.1"/>
<polygon fill="black" stroke="black" points="532.5,-73.87 523.72,-67.94 526.88,-78.05 532.5,-73.87"/>
</g>
<!-- Forall_apD10_path_forall -->
<g id="node39" class="node">
<title>Forall_apD10_path_forall</title>
<g id="a_node39"><a xlink:href="Forall.html#apD10_path_forall" xlink:title="apD10_path_forall">
<ellipse fill="#f070d1" stroke="black" cx="119" cy="-948.82" rx="94.79" ry="18"/>
<ellipse fill="none" stroke="black" cx="119" cy="-948.82" rx="98.79" ry="22"/>
<ellipse fill="none" stroke="black" cx="119" cy="-948.82" rx="102.78" ry="26"/>
<text text-anchor="middle" x="119" y="-945.12" font-family="Times,serif" font-size="14.00">apD10_path_forall</text>
</a>
</g>
</g>
</g>
</svg>
