<?xml version="1.0" encoding="UTF-8" standalone="no"?>
<!DOCTYPE svg PUBLIC "-//W3C//DTD SVG 1.1//EN"
 "http://www.w3.org/Graphics/SVG/1.1/DTD/svg11.dtd">
<!-- Generated by graphviz version 2.43.0 (0)
 -->
<!-- Title: HoTT_Spaces_NatSeq_Core Pages: 1 -->
<svg width="732pt" height="370pt"
 viewBox="0.00 0.00 732.00 370.00" xmlns="http://www.w3.org/2000/svg" xmlns:xlink="http://www.w3.org/1999/xlink">
<g id="graph0" class="graph" transform="scale(1 1) rotate(0) translate(4 366)">
<title>HoTT_Spaces_NatSeq_Core</title>
<polygon fill="white" stroke="transparent" points="-4,4 -4,-366 728,-366 728,4 -4,4"/>
<g id="clust1" class="cluster">
<title>cluster_Core</title>
<polygon fill="#ffffc3" stroke="black" points="8,-8.54 8,-353.46 716,-353.46 716,-8.54 8,-8.54"/>
<text text-anchor="middle" x="33" y="-338.26" font-family="Times,serif" font-size="14.00">Core</text>
</g>
<!-- Core_seq_agree_lt_iff_seq_agree_inductive -->
<g id="node1" class="node">
<title>Core_seq_agree_lt_iff_seq_agree_inductive</title>
<g id="a_node1"><a xlink:href="Core.html#seq_agree_lt_iff_seq_agree_inductive" xlink:title="seq_agree_lt_iff_seq_agree_inductive">
<ellipse fill="#f070d1" stroke="black" cx="362" cy="-292.54" rx="180.86" ry="18"/>
<ellipse fill="none" stroke="black" cx="362" cy="-292.54" rx="184.86" ry="22"/>
<ellipse fill="none" stroke="black" cx="362" cy="-292.54" rx="188.87" ry="26"/>
<text text-anchor="middle" x="362" y="-288.84" font-family="Times,serif" font-size="14.00">seq_agree_lt_iff_seq_agree_inductive</text>
</a>
</g>
</g>
<!-- Core_seq_agree_lt_seq_agree_inductive -->
<g id="node2" class="node">
<title>Core_seq_agree_lt_seq_agree_inductive</title>
<g id="a_node2"><a xlink:href="Core.html#seq_agree_lt_seq_agree_inductive" xlink:title="seq_agree_lt_seq_agree_inductive">
<ellipse fill="#f070d1" stroke="black" cx="189" cy="-207.54" rx="167.07" ry="18"/>
<text text-anchor="middle" x="189" y="-203.84" font-family="Times,serif" font-size="14.00">seq_agree_lt_seq_agree_inductive</text>
</a>
</g>
</g>
<!-- Core_seq_agree_lt_iff_seq_agree_inductive&#45;&gt;Core_seq_agree_lt_seq_agree_inductive -->
<g id="edge1" class="edge">
<title>Core_seq_agree_lt_iff_seq_agree_inductive&#45;&gt;Core_seq_agree_lt_seq_agree_inductive</title>
<path fill="none" stroke="black" d="M311.5,-267.31C286.58,-255.36 256.81,-241.08 232.86,-229.59"/>
<polygon fill="black" stroke="black" points="234.19,-226.34 223.66,-225.17 231.16,-232.65 234.19,-226.34"/>
</g>
<!-- Core_seq_agree_inductive_seq_agree_lt -->
<g id="node3" class="node">
<title>Core_seq_agree_inductive_seq_agree_lt</title>
<g id="a_node3"><a xlink:href="Core.html#seq_agree_inductive_seq_agree_lt" xlink:title="seq_agree_inductive_seq_agree_lt">
<ellipse fill="#f070d1" stroke="black" cx="541" cy="-207.54" rx="167.07" ry="18"/>
<text text-anchor="middle" x="541" y="-203.84" font-family="Times,serif" font-size="14.00">seq_agree_inductive_seq_agree_lt</text>
</a>
</g>
</g>
<!-- Core_seq_agree_lt_iff_seq_agree_inductive&#45;&gt;Core_seq_agree_inductive_seq_agree_lt -->
<g id="edge2" class="edge">
<title>Core_seq_agree_lt_iff_seq_agree_inductive&#45;&gt;Core_seq_agree_inductive_seq_agree_lt</title>
<path fill="none" stroke="black" d="M413.77,-267.54C439.78,-255.48 470.98,-241.01 495.97,-229.42"/>
<polygon fill="black" stroke="black" points="497.63,-232.51 505.23,-225.13 494.68,-226.16 497.63,-232.51"/>
</g>
<!-- Core_seq_agree_inductive -->
<g id="node4" class="node">
<title>Core_seq_agree_inductive</title>
<g id="a_node4"><a xlink:href="Core.html#seq_agree_inductive" xlink:title="seq_agree_inductive">
<ellipse fill="#f070d1" stroke="black" cx="447" cy="-121.54" rx="104.78" ry="18"/>
<text text-anchor="middle" x="447" y="-117.84" font-family="Times,serif" font-size="14.00">seq_agree_inductive</text>
</a>
</g>
</g>
<!-- Core_seq_agree_lt_seq_agree_inductive&#45;&gt;Core_seq_agree_inductive -->
<g id="edge3" class="edge">
<title>Core_seq_agree_lt_seq_agree_inductive&#45;&gt;Core_seq_agree_inductive</title>
<path fill="none" stroke="black" d="M238.74,-190.35C282.26,-176.18 345.43,-155.61 390.77,-140.85"/>
<polygon fill="black" stroke="black" points="392.02,-144.12 400.45,-137.7 389.85,-137.47 392.02,-144.12"/>
</g>
<!-- Core_seq_agree_lt -->
<g id="node5" class="node">
<title>Core_seq_agree_lt</title>
<g id="a_node5"><a xlink:href="Core.html#seq_agree_lt" xlink:title="seq_agree_lt">
<ellipse fill="#f070d1" stroke="black" cx="639" cy="-121.54" rx="68.79" ry="18"/>
<text text-anchor="middle" x="639" y="-117.84" font-family="Times,serif" font-size="14.00">seq_agree_lt</text>
</a>
</g>
</g>
<!-- Core_seq_agree_lt_seq_agree_inductive&#45;&gt;Core_seq_agree_lt -->
<g id="edge4" class="edge">
<title>Core_seq_agree_lt_seq_agree_inductive&#45;&gt;Core_seq_agree_lt</title>
<path fill="none" stroke="black" d="M297.29,-193.81C371.97,-183.95 473.21,-168.44 561,-147.54 570.45,-145.29 580.4,-142.47 589.92,-139.53"/>
<polygon fill="black" stroke="black" points="591.17,-142.8 599.65,-136.45 589.06,-136.13 591.17,-142.8"/>
</g>
<!-- Core_seq_agree_inductive_seq_agree_lt&#45;&gt;Core_seq_agree_inductive -->
<g id="edge5" class="edge">
<title>Core_seq_agree_inductive_seq_agree_lt&#45;&gt;Core_seq_agree_inductive</title>
<path fill="none" stroke="black" d="M521.98,-189.54C508.09,-177.13 489.08,-160.14 473.67,-146.38"/>
<polygon fill="black" stroke="black" points="475.78,-143.57 465.99,-139.52 471.12,-148.79 475.78,-143.57"/>
</g>
<!-- Core_seq_agree_inductive_seq_agree_lt&#45;&gt;Core_seq_agree_lt -->
<g id="edge6" class="edge">
<title>Core_seq_agree_inductive_seq_agree_lt&#45;&gt;Core_seq_agree_lt</title>
<path fill="none" stroke="black" d="M560.83,-189.54C575.64,-176.86 596.02,-159.38 612.27,-145.46"/>
<polygon fill="black" stroke="black" points="614.55,-148.11 619.86,-138.94 609.99,-142.8 614.55,-148.11"/>
</g>
<!-- Core_tail -->
<g id="node9" class="node">
<title>Core_tail</title>
<g id="a_node9"><a xlink:href="Core.html#tail" xlink:title="tail">
<ellipse fill="#f070d1" stroke="black" cx="238" cy="-36.54" rx="27" ry="18"/>
<text text-anchor="middle" x="238" y="-32.84" font-family="Times,serif" font-size="14.00">tail</text>
</a>
</g>
</g>
<!-- Core_seq_agree_inductive&#45;&gt;Core_tail -->
<g id="edge7" class="edge">
<title>Core_seq_agree_inductive&#45;&gt;Core_tail</title>
<path fill="none" stroke="black" d="M407.2,-104.74C367.47,-88.96 307.16,-65.01 270.3,-50.37"/>
<polygon fill="black" stroke="black" points="271.15,-46.94 260.57,-46.5 268.57,-53.45 271.15,-46.94"/>
</g>
<!-- Core_head -->
<g id="node10" class="node">
<title>Core_head</title>
<g id="a_node10"><a xlink:href="Core.html#head" xlink:title="head">
<ellipse fill="#f070d1" stroke="black" cx="381" cy="-36.54" rx="33.29" ry="18"/>
<text text-anchor="middle" x="381" y="-32.84" font-family="Times,serif" font-size="14.00">head</text>
</a>
</g>
</g>
<!-- Core_seq_agree_inductive&#45;&gt;Core_head -->
<g id="edge8" class="edge">
<title>Core_seq_agree_inductive&#45;&gt;Core_head</title>
<path fill="none" stroke="black" d="M433.32,-103.35C423.63,-91.16 410.5,-74.65 399.82,-61.21"/>
<polygon fill="black" stroke="black" points="402.5,-58.96 393.54,-53.31 397.03,-63.32 402.5,-58.96"/>
</g>
<!-- Core_tail_cons -->
<g id="node6" class="node">
<title>Core_tail_cons</title>
<g id="a_node6"><a xlink:href="Core.html#tail_cons" xlink:title="tail_cons">
<ellipse fill="#f070d1" stroke="black" cx="75" cy="-121.54" rx="51.21" ry="18"/>
<ellipse fill="none" stroke="black" cx="75" cy="-121.54" rx="55.2" ry="22"/>
<ellipse fill="none" stroke="black" cx="75" cy="-121.54" rx="59.19" ry="26"/>
<text text-anchor="middle" x="75" y="-117.84" font-family="Times,serif" font-size="14.00">tail_cons</text>
</a>
</g>
</g>
<!-- Core_cons -->
<g id="node8" class="node">
<title>Core_cons</title>
<g id="a_node8"><a xlink:href="Core.html#cons" xlink:title="cons">
<ellipse fill="#f070d1" stroke="black" cx="118" cy="-36.54" rx="31.7" ry="18"/>
<text text-anchor="middle" x="118" y="-32.84" font-family="Times,serif" font-size="14.00">cons</text>
</a>
</g>
</g>
<!-- Core_tail_cons&#45;&gt;Core_cons -->
<g id="edge9" class="edge">
<title>Core_tail_cons&#45;&gt;Core_cons</title>
<path fill="none" stroke="black" d="M87.67,-96.09C93.06,-85.69 99.34,-73.57 104.78,-63.06"/>
<polygon fill="black" stroke="black" points="108.01,-64.44 109.5,-53.95 101.79,-61.22 108.01,-64.44"/>
</g>
<!-- Core_tail_cons&#45;&gt;Core_tail -->
<g id="edge10" class="edge">
<title>Core_tail_cons&#45;&gt;Core_tail</title>
<path fill="none" stroke="black" d="M112.81,-101.29C141.75,-86.56 181.12,-66.51 207.93,-52.85"/>
<polygon fill="black" stroke="black" points="209.53,-55.97 216.86,-48.31 206.36,-49.73 209.53,-55.97"/>
</g>
<!-- Core_cons_head_tail -->
<g id="node7" class="node">
<title>Core_cons_head_tail</title>
<g id="a_node7"><a xlink:href="Core.html#cons_head_tail" xlink:title="cons_head_tail">
<ellipse fill="#f070d1" stroke="black" cx="238" cy="-121.54" rx="77.99" ry="18"/>
<ellipse fill="none" stroke="black" cx="238" cy="-121.54" rx="81.99" ry="22"/>
<ellipse fill="none" stroke="black" cx="238" cy="-121.54" rx="85.99" ry="26"/>
<text text-anchor="middle" x="238" y="-117.84" font-family="Times,serif" font-size="14.00">cons_head_tail</text>
</a>
</g>
</g>
<!-- Core_cons_head_tail&#45;&gt;Core_cons -->
<g id="edge11" class="edge">
<title>Core_cons_head_tail&#45;&gt;Core_cons</title>
<path fill="none" stroke="black" d="M204.57,-97.42C186.15,-84.68 163.53,-69.04 146.04,-56.94"/>
<polygon fill="black" stroke="black" points="147.62,-53.77 137.41,-50.96 143.64,-59.53 147.62,-53.77"/>
</g>
<!-- Core_cons_head_tail&#45;&gt;Core_tail -->
<g id="edge12" class="edge">
<title>Core_cons_head_tail&#45;&gt;Core_tail</title>
<path fill="none" stroke="black" d="M238,-95.19C238,-85.53 238,-74.48 238,-64.66"/>
<polygon fill="black" stroke="black" points="241.5,-64.61 238,-54.61 234.5,-64.61 241.5,-64.61"/>
</g>
<!-- Core_cons_head_tail&#45;&gt;Core_head -->
<g id="edge13" class="edge">
<title>Core_cons_head_tail&#45;&gt;Core_head</title>
<path fill="none" stroke="black" d="M276.7,-98.08C299.86,-84.64 328.88,-67.79 350.43,-55.29"/>
<polygon fill="black" stroke="black" points="352.27,-58.26 359.16,-50.22 348.76,-52.21 352.27,-58.26"/>
</g>
</g>
</svg>
