<?xml version="1.0" encoding="UTF-8" standalone="no"?>
<!DOCTYPE svg PUBLIC "-//W3C//DTD SVG 1.1//EN"
 "http://www.w3.org/Graphics/SVG/1.1/DTD/svg11.dtd">
<!-- Generated by graphviz version 2.43.0 (0)
 -->
<!-- Title: HoTT_Basics_Numeral Pages: 1 -->
<svg width="1594pt" height="801pt"
 viewBox="0.00 0.00 1594.00 801.00" xmlns="http://www.w3.org/2000/svg" xmlns:xlink="http://www.w3.org/1999/xlink">
<g id="graph0" class="graph" transform="scale(1 1) rotate(0) translate(4 797)">
<title>HoTT_Basics_Numeral</title>
<polygon fill="white" stroke="transparent" points="-4,4 -4,-797 1590,-797 1590,4 -4,4"/>
<g id="clust1" class="cluster">
<title>cluster_Numeral</title>
<polygon fill="#ffffc3" stroke="black" points="8,-23.76 8,-769.24 1578,-769.24 1578,-23.76 8,-23.76"/>
<text text-anchor="middle" x="47.5" y="-754.04" font-family="Times,serif" font-size="14.00">Numeral</text>
</g>
<!-- Numeral_int_of_int -->
<g id="node1" class="node">
<title>Numeral_int_of_int</title>
<g id="a_node1"><a xlink:href="Numeral.html#int_of_int" xlink:title="int_of_int">
<ellipse fill="#f070d1" stroke="black" cx="994" cy="-338.76" rx="53.9" ry="18"/>
<ellipse fill="none" stroke="black" cx="994" cy="-338.76" rx="57.89" ry="22"/>
<ellipse fill="none" stroke="black" cx="994" cy="-338.76" rx="61.89" ry="26"/>
<text text-anchor="middle" x="994" y="-335.06" font-family="Times,serif" font-size="14.00">int_of_int</text>
</a>
</g>
</g>
<!-- Numeral_int -->
<g id="node16" class="node">
<title>Numeral_int</title>
<g id="a_node16"><a xlink:href="Numeral.html#int" xlink:title="int">
<ellipse fill="#e2cdfa" stroke="black" cx="846" cy="-100.76" rx="27" ry="18"/>
<text text-anchor="middle" x="846" y="-97.06" font-family="Times,serif" font-size="14.00">int</text>
</a>
</g>
</g>
<!-- Numeral_int_of_int&#45;&gt;Numeral_int -->
<g id="edge1" class="edge">
<title>Numeral_int_of_int&#45;&gt;Numeral_int</title>
<path fill="none" stroke="black" d="M978.72,-313.39C950.32,-268.11 889.72,-171.48 861.31,-126.17"/>
<polygon fill="black" stroke="black" points="864.19,-124.18 855.91,-117.57 858.26,-127.9 864.19,-124.18"/>
</g>
<!-- Numeral_uint_of_uint -->
<g id="node2" class="node">
<title>Numeral_uint_of_uint</title>
<g id="a_node2"><a xlink:href="Numeral.html#uint_of_uint" xlink:title="uint_of_uint">
<ellipse fill="#f070d1" stroke="black" cx="482" cy="-338.76" rx="65.77" ry="18"/>
<ellipse fill="none" stroke="black" cx="482" cy="-338.76" rx="69.78" ry="22"/>
<ellipse fill="none" stroke="black" cx="482" cy="-338.76" rx="73.79" ry="26"/>
<text text-anchor="middle" x="482" y="-335.06" font-family="Times,serif" font-size="14.00">uint_of_uint</text>
</a>
</g>
</g>
<!-- Numeral_uint -->
<g id="node23" class="node">
<title>Numeral_uint</title>
<g id="a_node23"><a xlink:href="Numeral.html#uint" xlink:title="uint">
<ellipse fill="#e2cdfa" stroke="black" cx="315" cy="-100.76" rx="29.5" ry="18"/>
<text text-anchor="middle" x="315" y="-97.06" font-family="Times,serif" font-size="14.00">uint</text>
</a>
</g>
</g>
<!-- Numeral_uint_of_uint&#45;&gt;Numeral_uint -->
<g id="edge2" class="edge">
<title>Numeral_uint_of_uint&#45;&gt;Numeral_uint</title>
<path fill="none" stroke="black" d="M464.76,-313.39C432.65,-268.02 364.05,-171.08 332.07,-125.88"/>
<polygon fill="black" stroke="black" points="334.82,-123.71 326.19,-117.57 329.1,-127.75 334.82,-123.71"/>
</g>
<!-- Numeral_numeral_sind -->
<g id="node3" class="node">
<title>Numeral_numeral_sind</title>
<g id="a_node3"><a xlink:href="Numeral.html#numeral_sind" xlink:title="numeral_sind">
<ellipse fill="#f070d1" stroke="black" cx="1318" cy="-338.76" rx="73.39" ry="18"/>
<ellipse fill="none" stroke="black" cx="1318" cy="-338.76" rx="77.39" ry="22"/>
<ellipse fill="none" stroke="black" cx="1318" cy="-338.76" rx="81.39" ry="26"/>
<text text-anchor="middle" x="1318" y="-335.06" font-family="Times,serif" font-size="14.00">numeral_sind</text>
</a>
</g>
</g>
<!-- Numeral_Hex -->
<g id="node7" class="node">
<title>Numeral_Hex</title>
<g id="a_node7"><a xlink:href="Numeral.html#Hex" xlink:title="Hex">
<ellipse fill="#7faaff" stroke="black" cx="1318" cy="-100.76" rx="29.5" ry="18"/>
<text text-anchor="middle" x="1318" y="-97.06" font-family="Times,serif" font-size="14.00">Hex</text>
</a>
</g>
</g>
<!-- Numeral_numeral_sind&#45;&gt;Numeral_Hex -->
<g id="edge3" class="edge">
<title>Numeral_numeral_sind&#45;&gt;Numeral_Hex</title>
<path fill="none" stroke="black" d="M1318,-312.5C1318,-267.81 1318,-175.16 1318,-129.05"/>
<polygon fill="black" stroke="black" points="1321.5,-128.91 1318,-118.91 1314.5,-128.91 1321.5,-128.91"/>
</g>
<!-- Numeral_Dec -->
<g id="node8" class="node">
<title>Numeral_Dec</title>
<g id="a_node8"><a xlink:href="Numeral.html#Dec" xlink:title="Dec">
<ellipse fill="#7faaff" stroke="black" cx="1394" cy="-100.76" rx="28.7" ry="18"/>
<text text-anchor="middle" x="1394" y="-97.06" font-family="Times,serif" font-size="14.00">Dec</text>
</a>
</g>
</g>
<!-- Numeral_numeral_sind&#45;&gt;Numeral_Dec -->
<g id="edge4" class="edge">
<title>Numeral_numeral_sind&#45;&gt;Numeral_Dec</title>
<path fill="none" stroke="black" d="M1326.13,-312.5C1340.62,-267.51 1370.76,-173.92 1385.51,-128.13"/>
<polygon fill="black" stroke="black" points="1388.84,-129.2 1388.57,-118.61 1382.18,-127.05 1388.84,-129.2"/>
</g>
<!-- Numeral_numeral -->
<g id="node9" class="node">
<title>Numeral_numeral</title>
<g id="a_node9"><a xlink:href="Numeral.html#numeral" xlink:title="numeral">
<ellipse fill="#e2cdfa" stroke="black" cx="1221" cy="-100.76" rx="49.29" ry="18"/>
<text text-anchor="middle" x="1221" y="-97.06" font-family="Times,serif" font-size="14.00">numeral</text>
</a>
</g>
</g>
<!-- Numeral_numeral_sind&#45;&gt;Numeral_numeral -->
<g id="edge5" class="edge">
<title>Numeral_numeral_sind&#45;&gt;Numeral_numeral</title>
<path fill="none" stroke="black" d="M1307.8,-312.95C1289.36,-268.08 1250.63,-173.84 1231.77,-127.96"/>
<polygon fill="black" stroke="black" points="1235,-126.6 1227.96,-118.69 1228.52,-129.27 1235,-126.6"/>
</g>
<!-- Numeral_numeral_rec -->
<g id="node4" class="node">
<title>Numeral_numeral_rec</title>
<g id="a_node4"><a xlink:href="Numeral.html#numeral_rec" xlink:title="numeral_rec">
<ellipse fill="#f070d1" stroke="black" cx="1146" cy="-599.76" rx="68.46" ry="18"/>
<ellipse fill="none" stroke="black" cx="1146" cy="-599.76" rx="72.48" ry="22"/>
<ellipse fill="none" stroke="black" cx="1146" cy="-599.76" rx="76.49" ry="26"/>
<text text-anchor="middle" x="1146" y="-596.06" font-family="Times,serif" font-size="14.00">numeral_rec</text>
</a>
</g>
</g>
<!-- Numeral_numeral_rect -->
<g id="node6" class="node">
<title>Numeral_numeral_rect</title>
<g id="a_node6"><a xlink:href="Numeral.html#numeral_rect" xlink:title="numeral_rect">
<ellipse fill="#f070d1" stroke="black" cx="1146" cy="-338.76" rx="72.29" ry="18"/>
<text text-anchor="middle" x="1146" y="-335.06" font-family="Times,serif" font-size="14.00">numeral_rect</text>
</a>
</g>
</g>
<!-- Numeral_numeral_rec&#45;&gt;Numeral_numeral_rect -->
<g id="edge6" class="edge">
<title>Numeral_numeral_rec&#45;&gt;Numeral_numeral_rect</title>
<path fill="none" stroke="black" d="M1146,-573.45C1146,-524.6 1146,-417.65 1146,-367.18"/>
<polygon fill="black" stroke="black" points="1149.5,-367.02 1146,-357.02 1142.5,-367.02 1149.5,-367.02"/>
</g>
<!-- Numeral_numeral_ind -->
<g id="node5" class="node">
<title>Numeral_numeral_ind</title>
<g id="a_node5"><a xlink:href="Numeral.html#numeral_ind" xlink:title="numeral_ind">
<ellipse fill="#7fffd4" stroke="black" cx="1494" cy="-338.76" rx="68.46" ry="18"/>
<ellipse fill="none" stroke="black" cx="1494" cy="-338.76" rx="72.48" ry="22"/>
<ellipse fill="none" stroke="black" cx="1494" cy="-338.76" rx="76.49" ry="26"/>
<text text-anchor="middle" x="1494" y="-335.06" font-family="Times,serif" font-size="14.00">numeral_ind</text>
</a>
</g>
</g>
<!-- Numeral_numeral_ind&#45;&gt;Numeral_Hex -->
<g id="edge7" class="edge">
<title>Numeral_numeral_ind&#45;&gt;Numeral_Hex</title>
<path fill="none" stroke="black" d="M1475.83,-313.39C1441.92,-267.92 1369.39,-170.67 1335.78,-125.6"/>
<polygon fill="black" stroke="black" points="1338.57,-123.49 1329.79,-117.57 1332.96,-127.68 1338.57,-123.49"/>
</g>
<!-- Numeral_numeral_ind&#45;&gt;Numeral_Dec -->
<g id="edge8" class="edge">
<title>Numeral_numeral_ind&#45;&gt;Numeral_Dec</title>
<path fill="none" stroke="black" d="M1483.49,-312.95C1464.43,-267.97 1424.35,-173.38 1404.96,-127.63"/>
<polygon fill="black" stroke="black" points="1408.17,-126.23 1401.04,-118.38 1401.72,-128.96 1408.17,-126.23"/>
</g>
<!-- Numeral_numeral_ind&#45;&gt;Numeral_numeral -->
<g id="edge9" class="edge">
<title>Numeral_numeral_ind&#45;&gt;Numeral_numeral</title>
<path fill="none" stroke="black" d="M1466.83,-314.27C1414.21,-268.78 1299.05,-169.23 1247.21,-124.42"/>
<polygon fill="black" stroke="black" points="1249.31,-121.6 1239.45,-117.71 1244.73,-126.9 1249.31,-121.6"/>
</g>
<!-- Numeral_numeral_rect&#45;&gt;Numeral_Hex -->
<g id="edge10" class="edge">
<title>Numeral_numeral_rect&#45;&gt;Numeral_Hex</title>
<path fill="none" stroke="black" d="M1158.37,-320.79C1188.46,-279.5 1265.58,-173.69 1300.43,-125.87"/>
<polygon fill="black" stroke="black" points="1303.36,-127.79 1306.42,-117.64 1297.71,-123.66 1303.36,-127.79"/>
</g>
<!-- Numeral_numeral_rect&#45;&gt;Numeral_Dec -->
<g id="edge11" class="edge">
<title>Numeral_numeral_rect&#45;&gt;Numeral_Dec</title>
<path fill="none" stroke="black" d="M1163.44,-321.17C1207.39,-279.34 1322.69,-169.62 1371.57,-123.1"/>
<polygon fill="black" stroke="black" points="1374,-125.63 1378.83,-116.2 1369.17,-120.56 1374,-125.63"/>
</g>
<!-- Numeral_numeral_rect&#45;&gt;Numeral_numeral -->
<g id="edge12" class="edge">
<title>Numeral_numeral_rect&#45;&gt;Numeral_numeral</title>
<path fill="none" stroke="black" d="M1151.39,-320.79C1164.28,-280.23 1196.95,-177.45 1212.51,-128.49"/>
<polygon fill="black" stroke="black" points="1215.86,-129.49 1215.55,-118.9 1209.19,-127.37 1215.86,-129.49"/>
</g>
<!-- Numeral_int_sind -->
<g id="node10" class="node">
<title>Numeral_int_sind</title>
<g id="a_node10"><a xlink:href="Numeral.html#int_sind" xlink:title="int_sind">
<ellipse fill="#f070d1" stroke="black" cx="740" cy="-338.76" rx="47.4" ry="18"/>
<ellipse fill="none" stroke="black" cx="740" cy="-338.76" rx="51.4" ry="22"/>
<ellipse fill="none" stroke="black" cx="740" cy="-338.76" rx="55.39" ry="26"/>
<text text-anchor="middle" x="740" y="-335.06" font-family="Times,serif" font-size="14.00">int_sind</text>
</a>
</g>
</g>
<!-- Numeral_IntHex -->
<g id="node14" class="node">
<title>Numeral_IntHex</title>
<g id="a_node14"><a xlink:href="Numeral.html#IntHex" xlink:title="IntHex">
<ellipse fill="#7faaff" stroke="black" cx="749" cy="-100.76" rx="42.49" ry="18"/>
<text text-anchor="middle" x="749" y="-97.06" font-family="Times,serif" font-size="14.00">IntHex</text>
</a>
</g>
</g>
<!-- Numeral_int_sind&#45;&gt;Numeral_IntHex -->
<g id="edge13" class="edge">
<title>Numeral_int_sind&#45;&gt;Numeral_IntHex</title>
<path fill="none" stroke="black" d="M740.96,-312.5C742.67,-267.81 746.2,-175.16 747.96,-129.05"/>
<polygon fill="black" stroke="black" points="751.46,-129.04 748.35,-118.91 744.47,-128.77 751.46,-129.04"/>
</g>
<!-- Numeral_IntDec -->
<g id="node15" class="node">
<title>Numeral_IntDec</title>
<g id="a_node15"><a xlink:href="Numeral.html#IntDec" xlink:title="IntDec">
<ellipse fill="#7faaff" stroke="black" cx="647" cy="-100.76" rx="41.69" ry="18"/>
<text text-anchor="middle" x="647" y="-97.06" font-family="Times,serif" font-size="14.00">IntDec</text>
</a>
</g>
</g>
<!-- Numeral_int_sind&#45;&gt;Numeral_IntDec -->
<g id="edge14" class="edge">
<title>Numeral_int_sind&#45;&gt;Numeral_IntDec</title>
<path fill="none" stroke="black" d="M730.22,-312.95C712.58,-268.17 675.56,-174.23 657.44,-128.25"/>
<polygon fill="black" stroke="black" points="660.59,-126.71 653.67,-118.69 654.08,-129.27 660.59,-126.71"/>
</g>
<!-- Numeral_int_sind&#45;&gt;Numeral_int -->
<g id="edge15" class="edge">
<title>Numeral_int_sind&#45;&gt;Numeral_int</title>
<path fill="none" stroke="black" d="M751.14,-312.95C771.4,-267.86 814.04,-172.91 834.53,-127.29"/>
<polygon fill="black" stroke="black" points="837.76,-128.64 838.67,-118.09 831.38,-125.77 837.76,-128.64"/>
</g>
<!-- Numeral_int_rec -->
<g id="node11" class="node">
<title>Numeral_int_rec</title>
<g id="a_node11"><a xlink:href="Numeral.html#int_rec" xlink:title="int_rec">
<ellipse fill="#f070d1" stroke="black" cx="620" cy="-599.76" rx="42.45" ry="18"/>
<ellipse fill="none" stroke="black" cx="620" cy="-599.76" rx="46.47" ry="22"/>
<ellipse fill="none" stroke="black" cx="620" cy="-599.76" rx="50.49" ry="26"/>
<text text-anchor="middle" x="620" y="-596.06" font-family="Times,serif" font-size="14.00">int_rec</text>
</a>
</g>
</g>
<!-- Numeral_int_rect -->
<g id="node13" class="node">
<title>Numeral_int_rect</title>
<g id="a_node13"><a xlink:href="Numeral.html#int_rect" xlink:title="int_rect">
<ellipse fill="#f070d1" stroke="black" cx="620" cy="-338.76" rx="46.29" ry="18"/>
<text text-anchor="middle" x="620" y="-335.06" font-family="Times,serif" font-size="14.00">int_rect</text>
</a>
</g>
</g>
<!-- Numeral_int_rec&#45;&gt;Numeral_int_rect -->
<g id="edge16" class="edge">
<title>Numeral_int_rec&#45;&gt;Numeral_int_rect</title>
<path fill="none" stroke="black" d="M620,-573.45C620,-524.6 620,-417.65 620,-367.18"/>
<polygon fill="black" stroke="black" points="623.5,-367.02 620,-357.02 616.5,-367.02 623.5,-367.02"/>
</g>
<!-- Numeral_int_ind -->
<g id="node12" class="node">
<title>Numeral_int_ind</title>
<g id="a_node12"><a xlink:href="Numeral.html#int_ind" xlink:title="int_ind">
<ellipse fill="#7fffd4" stroke="black" cx="864" cy="-338.76" rx="42.45" ry="18"/>
<ellipse fill="none" stroke="black" cx="864" cy="-338.76" rx="46.47" ry="22"/>
<ellipse fill="none" stroke="black" cx="864" cy="-338.76" rx="50.49" ry="26"/>
<text text-anchor="middle" x="864" y="-335.06" font-family="Times,serif" font-size="14.00">int_ind</text>
</a>
</g>
</g>
<!-- Numeral_int_ind&#45;&gt;Numeral_IntHex -->
<g id="edge17" class="edge">
<title>Numeral_int_ind&#45;&gt;Numeral_IntHex</title>
<path fill="none" stroke="black" d="M852.13,-313.39C830.27,-268.53 783.85,-173.29 761.52,-127.46"/>
<polygon fill="black" stroke="black" points="764.67,-125.92 757.14,-118.46 758.37,-128.98 764.67,-125.92"/>
</g>
<!-- Numeral_int_ind&#45;&gt;Numeral_IntDec -->
<g id="edge18" class="edge">
<title>Numeral_int_ind&#45;&gt;Numeral_IntDec</title>
<path fill="none" stroke="black" d="M842.8,-314.7C801.45,-269.73 710.44,-170.76 668.7,-125.36"/>
<polygon fill="black" stroke="black" points="671.08,-122.78 661.73,-117.79 665.93,-127.52 671.08,-122.78"/>
</g>
<!-- Numeral_int_ind&#45;&gt;Numeral_int -->
<g id="edge19" class="edge">
<title>Numeral_int_ind&#45;&gt;Numeral_int</title>
<path fill="none" stroke="black" d="M862.07,-312.5C858.66,-267.81 851.6,-175.16 848.08,-129.05"/>
<polygon fill="black" stroke="black" points="851.56,-128.62 847.31,-118.91 844.58,-129.15 851.56,-128.62"/>
</g>
<!-- Numeral_int_rect&#45;&gt;Numeral_IntHex -->
<g id="edge20" class="edge">
<title>Numeral_int_rect&#45;&gt;Numeral_IntHex</title>
<path fill="none" stroke="black" d="M629.28,-320.79C651.59,-279.97 708.37,-176.08 734.92,-127.52"/>
<polygon fill="black" stroke="black" points="738.08,-129.03 739.81,-118.58 731.94,-125.68 738.08,-129.03"/>
</g>
<!-- Numeral_int_rect&#45;&gt;Numeral_IntDec -->
<g id="edge21" class="edge">
<title>Numeral_int_rect&#45;&gt;Numeral_IntDec</title>
<path fill="none" stroke="black" d="M621.99,-320.41C626.64,-279.73 638.28,-177.99 643.89,-128.99"/>
<polygon fill="black" stroke="black" points="647.39,-129.15 645.05,-118.82 640.43,-128.36 647.39,-129.15"/>
</g>
<!-- Numeral_int_rect&#45;&gt;Numeral_int -->
<g id="edge22" class="edge">
<title>Numeral_int_rect&#45;&gt;Numeral_int</title>
<path fill="none" stroke="black" d="M635.53,-321.54C675.13,-280.19 779.87,-170.81 824.92,-123.77"/>
<polygon fill="black" stroke="black" points="827.72,-125.91 832.11,-116.26 822.67,-121.06 827.72,-125.91"/>
</g>
<!-- Numeral_uint_sind -->
<g id="node17" class="node">
<title>Numeral_uint_sind</title>
<g id="a_node17"><a xlink:href="Numeral.html#uint_sind" xlink:title="uint_sind">
<ellipse fill="#f070d1" stroke="black" cx="199" cy="-338.76" rx="53.12" ry="18"/>
<ellipse fill="none" stroke="black" cx="199" cy="-338.76" rx="57.1" ry="22"/>
<ellipse fill="none" stroke="black" cx="199" cy="-338.76" rx="61.09" ry="26"/>
<text text-anchor="middle" x="199" y="-335.06" font-family="Times,serif" font-size="14.00">uint_sind</text>
</a>
</g>
</g>
<!-- Numeral_UIntHex -->
<g id="node21" class="node">
<title>Numeral_UIntHex</title>
<g id="a_node21"><a xlink:href="Numeral.html#UIntHex" xlink:title="UIntHex">
<ellipse fill="#7faaff" stroke="black" cx="208" cy="-100.76" rx="50.09" ry="18"/>
<text text-anchor="middle" x="208" y="-97.06" font-family="Times,serif" font-size="14.00">UIntHex</text>
</a>
</g>
</g>
<!-- Numeral_uint_sind&#45;&gt;Numeral_UIntHex -->
<g id="edge23" class="edge">
<title>Numeral_uint_sind&#45;&gt;Numeral_UIntHex</title>
<path fill="none" stroke="black" d="M199.96,-312.5C201.67,-267.81 205.2,-175.16 206.96,-129.05"/>
<polygon fill="black" stroke="black" points="210.46,-129.04 207.35,-118.91 203.47,-128.77 210.46,-129.04"/>
</g>
<!-- Numeral_UIntDec -->
<g id="node22" class="node">
<title>Numeral_UIntDec</title>
<g id="a_node22"><a xlink:href="Numeral.html#UIntDec" xlink:title="UIntDec">
<ellipse fill="#7faaff" stroke="black" cx="91" cy="-100.76" rx="49.29" ry="18"/>
<text text-anchor="middle" x="91" y="-97.06" font-family="Times,serif" font-size="14.00">UIntDec</text>
</a>
</g>
</g>
<!-- Numeral_uint_sind&#45;&gt;Numeral_UIntDec -->
<g id="edge24" class="edge">
<title>Numeral_uint_sind&#45;&gt;Numeral_UIntDec</title>
<path fill="none" stroke="black" d="M187.65,-312.95C167.11,-268.08 123.99,-173.84 102.99,-127.96"/>
<polygon fill="black" stroke="black" points="106.09,-126.32 98.75,-118.69 99.72,-129.24 106.09,-126.32"/>
</g>
<!-- Numeral_uint_sind&#45;&gt;Numeral_uint -->
<g id="edge25" class="edge">
<title>Numeral_uint_sind&#45;&gt;Numeral_uint</title>
<path fill="none" stroke="black" d="M211.19,-312.95C233.36,-267.86 280.03,-172.91 302.45,-127.29"/>
<polygon fill="black" stroke="black" points="305.71,-128.6 306.98,-118.09 299.42,-125.52 305.71,-128.6"/>
</g>
<!-- Numeral_uint_rec -->
<g id="node18" class="node">
<title>Numeral_uint_rec</title>
<g id="a_node18"><a xlink:href="Numeral.html#uint_rec" xlink:title="uint_rec">
<ellipse fill="#f070d1" stroke="black" cx="72" cy="-599.76" rx="48.18" ry="18"/>
<ellipse fill="none" stroke="black" cx="72" cy="-599.76" rx="52.18" ry="22"/>
<ellipse fill="none" stroke="black" cx="72" cy="-599.76" rx="56.19" ry="26"/>
<text text-anchor="middle" x="72" y="-596.06" font-family="Times,serif" font-size="14.00">uint_rec</text>
</a>
</g>
</g>
<!-- Numeral_uint_rect -->
<g id="node20" class="node">
<title>Numeral_uint_rect</title>
<g id="a_node20"><a xlink:href="Numeral.html#uint_rect" xlink:title="uint_rect">
<ellipse fill="#f070d1" stroke="black" cx="68" cy="-338.76" rx="51.99" ry="18"/>
<text text-anchor="middle" x="68" y="-335.06" font-family="Times,serif" font-size="14.00">uint_rect</text>
</a>
</g>
</g>
<!-- Numeral_uint_rec&#45;&gt;Numeral_uint_rect -->
<g id="edge26" class="edge">
<title>Numeral_uint_rec&#45;&gt;Numeral_uint_rect</title>
<path fill="none" stroke="black" d="M71.61,-573.45C70.85,-524.6 69.2,-417.65 68.42,-367.18"/>
<polygon fill="black" stroke="black" points="71.92,-366.97 68.27,-357.02 64.92,-367.07 71.92,-366.97"/>
</g>
<!-- Numeral_uint_ind -->
<g id="node19" class="node">
<title>Numeral_uint_ind</title>
<g id="a_node19"><a xlink:href="Numeral.html#uint_ind" xlink:title="uint_ind">
<ellipse fill="#7fffd4" stroke="black" cx="334" cy="-338.76" rx="48.18" ry="18"/>
<ellipse fill="none" stroke="black" cx="334" cy="-338.76" rx="52.18" ry="22"/>
<ellipse fill="none" stroke="black" cx="334" cy="-338.76" rx="56.19" ry="26"/>
<text text-anchor="middle" x="334" y="-335.06" font-family="Times,serif" font-size="14.00">uint_ind</text>
</a>
</g>
</g>
<!-- Numeral_uint_ind&#45;&gt;Numeral_UIntHex -->
<g id="edge27" class="edge">
<title>Numeral_uint_ind&#45;&gt;Numeral_UIntHex</title>
<path fill="none" stroke="black" d="M320.99,-313.39C297.1,-268.64 246.44,-173.76 221.9,-127.79"/>
<polygon fill="black" stroke="black" points="224.88,-125.94 217.08,-118.76 218.7,-129.23 224.88,-125.94"/>
</g>
<!-- Numeral_uint_ind&#45;&gt;Numeral_UIntDec -->
<g id="edge28" class="edge">
<title>Numeral_uint_ind&#45;&gt;Numeral_UIntDec</title>
<path fill="none" stroke="black" d="M310.26,-314.7C263.76,-269.55 161.2,-169.94 114.72,-124.8"/>
<polygon fill="black" stroke="black" points="117.11,-122.24 107.5,-117.79 112.24,-127.26 117.11,-122.24"/>
</g>
<!-- Numeral_uint_ind&#45;&gt;Numeral_uint -->
<g id="edge29" class="edge">
<title>Numeral_uint_ind&#45;&gt;Numeral_uint</title>
<path fill="none" stroke="black" d="M331.97,-312.5C328.37,-267.81 320.91,-175.16 317.2,-129.05"/>
<polygon fill="black" stroke="black" points="320.67,-128.6 316.38,-118.91 313.69,-129.16 320.67,-128.6"/>
</g>
<!-- Numeral_uint_rect&#45;&gt;Numeral_UIntHex -->
<g id="edge30" class="edge">
<title>Numeral_uint_rect&#45;&gt;Numeral_UIntHex</title>
<path fill="none" stroke="black" d="M78.07,-320.79C102.34,-279.88 164.17,-175.65 192.9,-127.22"/>
<polygon fill="black" stroke="black" points="195.93,-128.97 198.02,-118.58 189.91,-125.39 195.93,-128.97"/>
</g>
<!-- Numeral_uint_rect&#45;&gt;Numeral_UIntDec -->
<g id="edge31" class="edge">
<title>Numeral_uint_rect&#45;&gt;Numeral_UIntDec</title>
<path fill="none" stroke="black" d="M69.69,-320.41C73.66,-279.73 83.57,-177.99 88.35,-128.99"/>
<polygon fill="black" stroke="black" points="91.85,-129.11 89.34,-118.82 84.88,-128.43 91.85,-129.11"/>
</g>
<!-- Numeral_uint_rect&#45;&gt;Numeral_uint -->
<g id="edge32" class="edge">
<title>Numeral_uint_rect&#45;&gt;Numeral_uint</title>
<path fill="none" stroke="black" d="M84.98,-321.54C128.43,-280.02 243.68,-169.91 292.57,-123.19"/>
<polygon fill="black" stroke="black" points="295.01,-125.7 299.82,-116.26 290.17,-120.64 295.01,-125.7"/>
</g>
</g>
</svg>
