<?xml version="1.0" encoding="UTF-8" standalone="no"?>
<!DOCTYPE svg PUBLIC "-//W3C//DTD SVG 1.1//EN"
 "http://www.w3.org/Graphics/SVG/1.1/DTD/svg11.dtd">
<!-- Generated by graphviz version 2.43.0 (0)
 -->
<!-- Title: HoTT_Cubical_DPathCube Pages: 1 -->
<svg width="1390pt" height="699pt"
 viewBox="0.00 0.00 1390.00 699.00" xmlns="http://www.w3.org/2000/svg" xmlns:xlink="http://www.w3.org/1999/xlink">
<g id="graph0" class="graph" transform="scale(1 1) rotate(0) translate(4 695)">
<title>HoTT_Cubical_DPathCube</title>
<polygon fill="white" stroke="transparent" points="-4,4 -4,-695 1386,-695 1386,4 -4,4"/>
<g id="clust1" class="cluster">
<title>cluster_DPathCube</title>
<polygon fill="#ffffc3" stroke="black" points="8,-30.88 8,-660.12 1374,-660.12 1374,-30.88 8,-30.88"/>
<text text-anchor="middle" x="56.5" y="-644.92" font-family="Times,serif" font-size="14.00">DPathCube</text>
</g>
<!-- DPathCube_dc_fill_back -->
<g id="node1" class="node">
<title>DPathCube_dc_fill_back</title>
<g id="a_node1"><a xlink:href="DPathCube.html#dc_fill_back" xlink:title="dc_fill_back">
<ellipse fill="#f070d1" stroke="black" cx="1294" cy="-439.88" rx="63.87" ry="18"/>
<ellipse fill="none" stroke="black" cx="1294" cy="-439.88" rx="67.88" ry="22"/>
<ellipse fill="none" stroke="black" cx="1294" cy="-439.88" rx="71.89" ry="26"/>
<text text-anchor="middle" x="1294" y="-436.18" font-family="Times,serif" font-size="14.00">dc_fill_back</text>
</a>
</g>
</g>
<!-- DPathCube_DPathCube -->
<g id="node9" class="node">
<title>DPathCube_DPathCube</title>
<g id="a_node9"><a xlink:href="DPathCube.html#DPathCube" xlink:title="DPathCube">
<ellipse fill="#f070d1" stroke="black" cx="712" cy="-130.88" rx="63.09" ry="18"/>
<text text-anchor="middle" x="712" y="-127.18" font-family="Times,serif" font-size="14.00">DPathCube</text>
</a>
</g>
</g>
<!-- DPathCube_dc_fill_back&#45;&gt;DPathCube_DPathCube -->
<g id="edge1" class="edge">
<title>DPathCube_dc_fill_back&#45;&gt;DPathCube_DPathCube</title>
<path fill="none" stroke="black" d="M1254.45,-418.02C1147.66,-361.69 854.47,-207.03 749.77,-151.81"/>
<polygon fill="black" stroke="black" points="751.3,-148.65 740.82,-147.08 748.03,-154.85 751.3,-148.65"/>
</g>
<!-- DPathCube_dc_fill_front -->
<g id="node2" class="node">
<title>DPathCube_dc_fill_front</title>
<g id="a_node2"><a xlink:href="DPathCube.html#dc_fill_front" xlink:title="dc_fill_front">
<ellipse fill="#f070d1" stroke="black" cx="1131" cy="-439.88" rx="64.99" ry="18"/>
<ellipse fill="none" stroke="black" cx="1131" cy="-439.88" rx="68.99" ry="22"/>
<ellipse fill="none" stroke="black" cx="1131" cy="-439.88" rx="72.99" ry="26"/>
<text text-anchor="middle" x="1131" y="-436.18" font-family="Times,serif" font-size="14.00">dc_fill_front</text>
</a>
</g>
</g>
<!-- DPathCube_dc_fill_front&#45;&gt;DPathCube_DPathCube -->
<g id="edge2" class="edge">
<title>DPathCube_dc_fill_front&#45;&gt;DPathCube_DPathCube</title>
<path fill="none" stroke="black" d="M1100.19,-416.31C1022.49,-359.37 819.25,-210.46 742.2,-154.01"/>
<polygon fill="black" stroke="black" points="744.01,-151 733.87,-147.91 739.87,-156.64 744.01,-151"/>
</g>
<!-- DPathCube_dc_fill_bottom -->
<g id="node3" class="node">
<title>DPathCube_dc_fill_bottom</title>
<g id="a_node3"><a xlink:href="DPathCube.html#dc_fill_bottom" xlink:title="dc_fill_bottom">
<ellipse fill="#f070d1" stroke="black" cx="957" cy="-439.88" rx="75.3" ry="18"/>
<ellipse fill="none" stroke="black" cx="957" cy="-439.88" rx="79.29" ry="22"/>
<ellipse fill="none" stroke="black" cx="957" cy="-439.88" rx="83.29" ry="26"/>
<text text-anchor="middle" x="957" y="-436.18" font-family="Times,serif" font-size="14.00">dc_fill_bottom</text>
</a>
</g>
</g>
<!-- DPathCube_dc_fill_bottom&#45;&gt;DPathCube_DPathCube -->
<g id="edge3" class="edge">
<title>DPathCube_dc_fill_bottom&#45;&gt;DPathCube_DPathCube</title>
<path fill="none" stroke="black" d="M937.57,-414.54C891.83,-357.22 777.77,-214.29 731.73,-156.61"/>
<polygon fill="black" stroke="black" points="734.42,-154.37 725.45,-148.73 728.95,-158.73 734.42,-154.37"/>
</g>
<!-- DPathCube_dc_fill_top -->
<g id="node4" class="node">
<title>DPathCube_dc_fill_top</title>
<g id="a_node4"><a xlink:href="DPathCube.html#dc_fill_top" xlink:title="dc_fill_top">
<ellipse fill="#f070d1" stroke="black" cx="790" cy="-439.88" rx="57.37" ry="18"/>
<ellipse fill="none" stroke="black" cx="790" cy="-439.88" rx="61.38" ry="22"/>
<ellipse fill="none" stroke="black" cx="790" cy="-439.88" rx="65.39" ry="26"/>
<text text-anchor="middle" x="790" y="-436.18" font-family="Times,serif" font-size="14.00">dc_fill_top</text>
</a>
</g>
</g>
<!-- DPathCube_dc_fill_top&#45;&gt;DPathCube_DPathCube -->
<g id="edge4" class="edge">
<title>DPathCube_dc_fill_top&#45;&gt;DPathCube_DPathCube</title>
<path fill="none" stroke="black" d="M783.62,-413.76C769.13,-356.73 733.85,-217.9 718.89,-159.01"/>
<polygon fill="black" stroke="black" points="722.2,-157.81 716.34,-148.98 715.41,-159.54 722.2,-157.81"/>
</g>
<!-- DPathCube_dc_fill_right -->
<g id="node5" class="node">
<title>DPathCube_dc_fill_right</title>
<g id="a_node5"><a xlink:href="DPathCube.html#dc_fill_right" xlink:title="dc_fill_right">
<ellipse fill="#f070d1" stroke="black" cx="634" cy="-439.88" rx="64.99" ry="18"/>
<ellipse fill="none" stroke="black" cx="634" cy="-439.88" rx="68.99" ry="22"/>
<ellipse fill="none" stroke="black" cx="634" cy="-439.88" rx="72.99" ry="26"/>
<text text-anchor="middle" x="634" y="-436.18" font-family="Times,serif" font-size="14.00">dc_fill_right</text>
</a>
</g>
</g>
<!-- DPathCube_dc_fill_right&#45;&gt;DPathCube_DPathCube -->
<g id="edge5" class="edge">
<title>DPathCube_dc_fill_right&#45;&gt;DPathCube_DPathCube</title>
<path fill="none" stroke="black" d="M640.38,-413.76C654.87,-356.73 690.15,-217.9 705.11,-159.01"/>
<polygon fill="black" stroke="black" points="708.59,-159.54 707.66,-148.98 701.8,-157.81 708.59,-159.54"/>
</g>
<!-- DPathCube_dc_fill_left -->
<g id="node6" class="node">
<title>DPathCube_dc_fill_left</title>
<g id="a_node6"><a xlink:href="DPathCube.html#dc_fill_left" xlink:title="dc_fill_left">
<ellipse fill="#f070d1" stroke="black" cx="477" cy="-439.88" rx="57.71" ry="18"/>
<ellipse fill="none" stroke="black" cx="477" cy="-439.88" rx="61.7" ry="22"/>
<ellipse fill="none" stroke="black" cx="477" cy="-439.88" rx="65.69" ry="26"/>
<text text-anchor="middle" x="477" y="-436.18" font-family="Times,serif" font-size="14.00">dc_fill_left</text>
</a>
</g>
</g>
<!-- DPathCube_dc_fill_left&#45;&gt;DPathCube_DPathCube -->
<g id="edge6" class="edge">
<title>DPathCube_dc_fill_left&#45;&gt;DPathCube_DPathCube</title>
<path fill="none" stroke="black" d="M495.44,-414.79C539.08,-357.79 648.33,-215.05 692.76,-157.02"/>
<polygon fill="black" stroke="black" points="695.77,-158.84 699.07,-148.77 690.22,-154.58 695.77,-158.84"/>
</g>
<!-- DPathCube_equiv_dc_const -->
<g id="node7" class="node">
<title>DPathCube_equiv_dc_const</title>
<g id="a_node7"><a xlink:href="DPathCube.html#equiv_dc_const" xlink:title="equiv_dc_const">
<ellipse fill="#f070d1" stroke="black" cx="305" cy="-439.88" rx="80.68" ry="18"/>
<ellipse fill="none" stroke="black" cx="305" cy="-439.88" rx="84.68" ry="22"/>
<ellipse fill="none" stroke="black" cx="305" cy="-439.88" rx="88.69" ry="26"/>
<text text-anchor="middle" x="305" y="-436.18" font-family="Times,serif" font-size="14.00">equiv_dc_const</text>
</a>
</g>
</g>
<!-- DPathCube_equiv_dc_const&#45;&gt;DPathCube_DPathCube -->
<g id="edge7" class="edge">
<title>DPathCube_equiv_dc_const&#45;&gt;DPathCube_DPathCube</title>
<path fill="none" stroke="black" d="M336.26,-415.3C412.61,-357.71 607.79,-210.49 682.4,-154.21"/>
<polygon fill="black" stroke="black" points="684.59,-156.94 690.47,-148.12 680.38,-151.35 684.59,-156.94"/>
</g>
<!-- DPathCube_equiv_dc_const_ -->
<g id="node8" class="node">
<title>DPathCube_equiv_dc_const_</title>
<g id="a_node8"><a xlink:href="DPathCube.html#equiv_dc_const'" xlink:title="equiv_dc_const&#39;">
<ellipse fill="#f070d1" stroke="black" cx="107" cy="-439.88" rx="83.37" ry="18"/>
<ellipse fill="none" stroke="black" cx="107" cy="-439.88" rx="87.38" ry="22"/>
<ellipse fill="none" stroke="black" cx="107" cy="-439.88" rx="91.39" ry="26"/>
<text text-anchor="middle" x="107" y="-436.18" font-family="Times,serif" font-size="14.00">equiv_dc_const&#39;</text>
</a>
</g>
</g>
<!-- DPathCube_equiv_dc_const_&#45;&gt;DPathCube_DPathCube -->
<g id="edge8" class="edge">
<title>DPathCube_equiv_dc_const_&#45;&gt;DPathCube_DPathCube</title>
<path fill="none" stroke="black" d="M150.51,-416.8C263.6,-359.42 565.47,-206.24 673.16,-151.59"/>
<polygon fill="black" stroke="black" points="675.04,-154.56 682.37,-146.92 671.87,-148.32 675.04,-154.56"/>
</g>
</g>
</svg>
