<?xml version="1.0" encoding="UTF-8" standalone="no"?>
<!DOCTYPE svg PUBLIC "-//W3C//DTD SVG 1.1//EN"
 "http://www.w3.org/Graphics/SVG/1.1/DTD/svg11.dtd">
<!-- Generated by graphviz version 2.43.0 (0)
 -->
<!-- Title: HoTT_Algebra_Universal_Operation Pages: 1 -->
<svg width="1569pt" height="789pt"
 viewBox="0.00 0.00 1569.00 788.50" xmlns="http://www.w3.org/2000/svg" xmlns:xlink="http://www.w3.org/1999/xlink">
<g id="graph0" class="graph" transform="scale(1 1) rotate(0) translate(4 784.5)">
<title>HoTT_Algebra_Universal_Operation</title>
<polygon fill="white" stroke="transparent" points="-4,4 -4,-784.5 1565,-784.5 1565,4 -4,4"/>
<g id="clust1" class="cluster">
<title>cluster_Operation</title>
<polygon fill="#ffffc3" stroke="black" points="8,-12.93 8,-767.57 1553,-767.57 1553,-12.93 8,-12.93"/>
<text text-anchor="middle" x="52" y="-752.37" font-family="Times,serif" font-size="14.00">Operation</text>
</g>
<!-- Operation_equiv_operation_curry -->
<g id="node1" class="node">
<title>Operation_equiv_operation_curry</title>
<g id="a_node1"><a xlink:href="Operation.html#equiv_operation_curry" xlink:title="equiv_operation_curry">
<ellipse fill="#f070d1" stroke="black" cx="1207" cy="-675.93" rx="114.29" ry="18"/>
<ellipse fill="none" stroke="black" cx="1207" cy="-675.93" rx="118.28" ry="22"/>
<ellipse fill="none" stroke="black" cx="1207" cy="-675.93" rx="122.28" ry="26"/>
<text text-anchor="middle" x="1207" y="-672.23" font-family="Times,serif" font-size="14.00">equiv_operation_curry</text>
</a>
</g>
</g>
<!-- Operation_isequiv_operation_curry -->
<g id="node2" class="node">
<title>Operation_isequiv_operation_curry</title>
<g id="a_node2"><a xlink:href="Operation.html#isequiv_operation_curry" xlink:title="isequiv_operation_curry">
<ellipse fill="#f070d1" stroke="black" cx="1207" cy="-545.93" rx="122.38" ry="18"/>
<text text-anchor="middle" x="1207" y="-542.23" font-family="Times,serif" font-size="14.00">isequiv_operation_curry</text>
</a>
</g>
</g>
<!-- Operation_equiv_operation_curry&#45;&gt;Operation_isequiv_operation_curry -->
<g id="edge1" class="edge">
<title>Operation_equiv_operation_curry&#45;&gt;Operation_isequiv_operation_curry</title>
<path fill="none" stroke="black" d="M1207,-649.64C1207,-627.85 1207,-596.47 1207,-574.14"/>
<polygon fill="black" stroke="black" points="1210.5,-573.99 1207,-563.99 1203.5,-573.99 1210.5,-573.99"/>
</g>
<!-- Operation_path_operation_uncurry_to_curry -->
<g id="node3" class="node">
<title>Operation_path_operation_uncurry_to_curry</title>
<g id="a_node3"><a xlink:href="Operation.html#path_operation_uncurry_to_curry" xlink:title="path_operation_uncurry_to_curry">
<ellipse fill="#f070d1" stroke="black" cx="1034" cy="-416.93" rx="164.37" ry="18"/>
<text text-anchor="middle" x="1034" y="-413.23" font-family="Times,serif" font-size="14.00">path_operation_uncurry_to_curry</text>
</a>
</g>
</g>
<!-- Operation_isequiv_operation_curry&#45;&gt;Operation_path_operation_uncurry_to_curry -->
<g id="edge2" class="edge">
<title>Operation_isequiv_operation_curry&#45;&gt;Operation_path_operation_uncurry_to_curry</title>
<path fill="none" stroke="black" d="M1184.03,-528.06C1153.52,-505.67 1099.53,-466.03 1065.31,-440.92"/>
<polygon fill="black" stroke="black" points="1067.2,-437.96 1057.07,-434.86 1063.06,-443.6 1067.2,-437.96"/>
</g>
<!-- Operation_path_operation_curry_to_cunurry -->
<g id="node4" class="node">
<title>Operation_path_operation_curry_to_cunurry</title>
<g id="a_node4"><a xlink:href="Operation.html#path_operation_curry_to_cunurry" xlink:title="path_operation_curry_to_cunurry">
<ellipse fill="#f070d1" stroke="black" cx="1381" cy="-416.93" rx="164.37" ry="18"/>
<text text-anchor="middle" x="1381" y="-413.23" font-family="Times,serif" font-size="14.00">path_operation_curry_to_cunurry</text>
</a>
</g>
</g>
<!-- Operation_isequiv_operation_curry&#45;&gt;Operation_path_operation_curry_to_cunurry -->
<g id="edge3" class="edge">
<title>Operation_isequiv_operation_curry&#45;&gt;Operation_path_operation_curry_to_cunurry</title>
<path fill="none" stroke="black" d="M1230.11,-528.06C1260.79,-505.67 1315.09,-466.03 1349.5,-440.92"/>
<polygon fill="black" stroke="black" points="1351.78,-443.58 1357.8,-434.86 1347.66,-437.93 1351.78,-443.58"/>
</g>
<!-- Operation_operation_curry -->
<g id="node8" class="node">
<title>Operation_operation_curry</title>
<g id="a_node8"><a xlink:href="Operation.html#operation_curry" xlink:title="operation_curry">
<ellipse fill="#f070d1" stroke="black" cx="1025" cy="-287.93" rx="84.49" ry="18"/>
<text text-anchor="middle" x="1025" y="-284.23" font-family="Times,serif" font-size="14.00">operation_curry</text>
</a>
</g>
</g>
<!-- Operation_path_operation_uncurry_to_curry&#45;&gt;Operation_operation_curry -->
<g id="edge4" class="edge">
<title>Operation_path_operation_uncurry_to_curry&#45;&gt;Operation_operation_curry</title>
<path fill="none" stroke="black" d="M1032.79,-398.8C1031.29,-377.69 1028.73,-341.53 1026.95,-316.49"/>
<polygon fill="black" stroke="black" points="1030.42,-315.92 1026.22,-306.19 1023.44,-316.41 1030.42,-315.92"/>
</g>
<!-- Operation_operation_uncurry -->
<g id="node10" class="node">
<title>Operation_operation_uncurry</title>
<g id="a_node10"><a xlink:href="Operation.html#operation_uncurry" xlink:title="operation_uncurry">
<ellipse fill="#f070d1" stroke="black" cx="826" cy="-287.93" rx="96.38" ry="18"/>
<text text-anchor="middle" x="826" y="-284.23" font-family="Times,serif" font-size="14.00">operation_uncurry</text>
</a>
</g>
</g>
<!-- Operation_path_operation_uncurry_to_curry&#45;&gt;Operation_operation_uncurry -->
<g id="edge5" class="edge">
<title>Operation_path_operation_uncurry_to_curry&#45;&gt;Operation_operation_uncurry</title>
<path fill="none" stroke="black" d="M1006.38,-399.06C969.01,-376.24 902.31,-335.52 861.33,-310.5"/>
<polygon fill="black" stroke="black" points="863.1,-307.48 852.75,-305.26 859.46,-313.46 863.1,-307.48"/>
</g>
<!-- Operation_expand_cons_dom -->
<g id="node5" class="node">
<title>Operation_expand_cons_dom</title>
<g id="a_node5"><a xlink:href="Operation.html#expand_cons_dom" xlink:title="expand_cons_dom">
<ellipse fill="#f070d1" stroke="black" cx="1361" cy="-287.93" rx="94.48" ry="18"/>
<text text-anchor="middle" x="1361" y="-284.23" font-family="Times,serif" font-size="14.00">expand_cons_dom</text>
</a>
</g>
</g>
<!-- Operation_path_operation_curry_to_cunurry&#45;&gt;Operation_expand_cons_dom -->
<g id="edge6" class="edge">
<title>Operation_path_operation_curry_to_cunurry&#45;&gt;Operation_expand_cons_dom</title>
<path fill="none" stroke="black" d="M1378.3,-398.8C1374.96,-377.59 1369.23,-341.21 1365.29,-316.15"/>
<polygon fill="black" stroke="black" points="1368.73,-315.52 1363.72,-306.19 1361.82,-316.61 1368.73,-315.52"/>
</g>
<!-- Operation_path_operation_curry_to_cunurry&#45;&gt;Operation_operation_curry -->
<g id="edge7" class="edge">
<title>Operation_path_operation_curry_to_cunurry&#45;&gt;Operation_operation_curry</title>
<path fill="none" stroke="black" d="M1335.19,-399.58C1268.56,-375.81 1145.31,-331.85 1075.92,-307.09"/>
<polygon fill="black" stroke="black" points="1077.09,-303.79 1066.49,-303.73 1074.74,-310.39 1077.09,-303.79"/>
</g>
<!-- Operation_path_operation_curry_to_cunurry&#45;&gt;Operation_operation_uncurry -->
<g id="edge8" class="edge">
<title>Operation_path_operation_curry_to_cunurry&#45;&gt;Operation_operation_uncurry</title>
<path fill="none" stroke="black" d="M1313.5,-400.48C1207.16,-376.15 1001.72,-329.14 894.66,-304.64"/>
<polygon fill="black" stroke="black" points="895.14,-301.16 884.61,-302.34 893.58,-307.98 895.14,-301.16"/>
</g>
<!-- Operation_expand_cons_dom_ -->
<g id="node6" class="node">
<title>Operation_expand_cons_dom_</title>
<g id="a_node6"><a xlink:href="Operation.html#expand_cons_dom'" xlink:title="expand_cons_dom&#39;">
<ellipse fill="#f070d1" stroke="black" cx="1196" cy="-170.93" rx="96.68" ry="18"/>
<text text-anchor="middle" x="1196" y="-167.23" font-family="Times,serif" font-size="14.00">expand_cons_dom&#39;</text>
</a>
</g>
</g>
<!-- Operation_expand_cons_dom&#45;&gt;Operation_expand_cons_dom_ -->
<g id="edge9" class="edge">
<title>Operation_expand_cons_dom&#45;&gt;Operation_expand_cons_dom_</title>
<path fill="none" stroke="black" d="M1337.36,-270.45C1308.77,-250.52 1260.5,-216.88 1228.45,-194.54"/>
<polygon fill="black" stroke="black" points="1230.07,-191.41 1219.86,-188.56 1226.07,-197.15 1230.07,-191.41"/>
</g>
<!-- Operation_cons_dom -->
<g id="node14" class="node">
<title>Operation_cons_dom</title>
<g id="a_node14"><a xlink:href="Operation.html#cons_dom" xlink:title="cons_dom">
<ellipse fill="#f070d1" stroke="black" cx="1025" cy="-170.93" rx="55.79" ry="18"/>
<text text-anchor="middle" x="1025" y="-167.23" font-family="Times,serif" font-size="14.00">cons_dom</text>
</a>
</g>
</g>
<!-- Operation_expand_cons_dom&#45;&gt;Operation_cons_dom -->
<g id="edge10" class="edge">
<title>Operation_expand_cons_dom&#45;&gt;Operation_cons_dom</title>
<path fill="none" stroke="black" d="M1317.07,-271.89C1253.54,-250.15 1136.52,-210.09 1071.55,-187.86"/>
<polygon fill="black" stroke="black" points="1072.56,-184.51 1061.97,-184.58 1070.29,-191.13 1072.56,-184.51"/>
</g>
<!-- Operation_tail_dom -->
<g id="node16" class="node">
<title>Operation_tail_dom</title>
<g id="a_node16"><a xlink:href="Operation.html#tail_dom" xlink:title="tail_dom">
<ellipse fill="#f070d1" stroke="black" cx="1361" cy="-170.93" rx="50.09" ry="18"/>
<text text-anchor="middle" x="1361" y="-167.23" font-family="Times,serif" font-size="14.00">tail_dom</text>
</a>
</g>
</g>
<!-- Operation_expand_cons_dom&#45;&gt;Operation_tail_dom -->
<g id="edge11" class="edge">
<title>Operation_expand_cons_dom&#45;&gt;Operation_tail_dom</title>
<path fill="none" stroke="black" d="M1361,-269.46C1361,-250.86 1361,-221.17 1361,-199.43"/>
<polygon fill="black" stroke="black" points="1364.5,-199.18 1361,-189.18 1357.5,-199.18 1364.5,-199.18"/>
</g>
<!-- Operation_head_dom -->
<g id="node18" class="node">
<title>Operation_head_dom</title>
<g id="a_node18"><a xlink:href="Operation.html#head_dom" xlink:title="head_dom">
<ellipse fill="#f070d1" stroke="black" cx="1487" cy="-170.93" rx="57.69" ry="18"/>
<text text-anchor="middle" x="1487" y="-167.23" font-family="Times,serif" font-size="14.00">head_dom</text>
</a>
</g>
</g>
<!-- Operation_expand_cons_dom&#45;&gt;Operation_head_dom -->
<g id="edge12" class="edge">
<title>Operation_expand_cons_dom&#45;&gt;Operation_head_dom</title>
<path fill="none" stroke="black" d="M1379.32,-270.21C1401,-250.42 1437.22,-217.36 1461.6,-195.11"/>
<polygon fill="black" stroke="black" points="1464.04,-197.62 1469.06,-188.3 1459.32,-192.45 1464.04,-197.62"/>
</g>
<!-- Operation_cons_dom_ -->
<g id="node15" class="node">
<title>Operation_cons_dom_</title>
<g id="a_node15"><a xlink:href="Operation.html#cons_dom'" xlink:title="cons_dom&#39;">
<ellipse fill="#f070d1" stroke="black" cx="1066" cy="-54.93" rx="58.49" ry="18"/>
<text text-anchor="middle" x="1066" y="-51.23" font-family="Times,serif" font-size="14.00">cons_dom&#39;</text>
</a>
</g>
</g>
<!-- Operation_expand_cons_dom_&#45;&gt;Operation_cons_dom_ -->
<g id="edge13" class="edge">
<title>Operation_expand_cons_dom_&#45;&gt;Operation_cons_dom_</title>
<path fill="none" stroke="black" d="M1176.82,-153.11C1154.38,-133.43 1117.14,-100.77 1092.09,-78.81"/>
<polygon fill="black" stroke="black" points="1094.25,-76.04 1084.42,-72.08 1089.63,-81.3 1094.25,-76.04"/>
</g>
<!-- Operation_tail_dom_ -->
<g id="node17" class="node">
<title>Operation_tail_dom_</title>
<g id="a_node17"><a xlink:href="Operation.html#tail_dom'" xlink:title="tail_dom&#39;">
<ellipse fill="#f070d1" stroke="black" cx="1236" cy="-54.93" rx="52.79" ry="18"/>
<text text-anchor="middle" x="1236" y="-51.23" font-family="Times,serif" font-size="14.00">tail_dom&#39;</text>
</a>
</g>
</g>
<!-- Operation_expand_cons_dom_&#45;&gt;Operation_tail_dom_ -->
<g id="edge14" class="edge">
<title>Operation_expand_cons_dom_&#45;&gt;Operation_tail_dom_</title>
<path fill="none" stroke="black" d="M1202.08,-152.61C1208.6,-134.01 1219.06,-104.2 1226.64,-82.6"/>
<polygon fill="black" stroke="black" points="1229.99,-83.63 1230,-73.03 1223.39,-81.31 1229.99,-83.63"/>
</g>
<!-- Operation_head_dom_ -->
<g id="node19" class="node">
<title>Operation_head_dom_</title>
<g id="a_node19"><a xlink:href="Operation.html#head_dom'" xlink:title="head_dom&#39;">
<ellipse fill="#f070d1" stroke="black" cx="1445" cy="-54.93" rx="59.59" ry="18"/>
<text text-anchor="middle" x="1445" y="-51.23" font-family="Times,serif" font-size="14.00">head_dom&#39;</text>
</a>
</g>
</g>
<!-- Operation_expand_cons_dom_&#45;&gt;Operation_head_dom_ -->
<g id="edge15" class="edge">
<title>Operation_expand_cons_dom_&#45;&gt;Operation_head_dom_</title>
<path fill="none" stroke="black" d="M1230.62,-154.08C1276.1,-133.26 1355.83,-96.75 1404.19,-74.61"/>
<polygon fill="black" stroke="black" points="1405.79,-77.73 1413.42,-70.38 1402.88,-71.36 1405.79,-77.73"/>
</g>
<!-- Operation_computation_example_operation_curry -->
<g id="node7" class="node">
<title>Operation_computation_example_operation_curry</title>
<g id="a_node7"><a xlink:href="Operation.html#computation_example_operation_curry" xlink:title="computation_example_operation_curry">
<ellipse fill="#f070d1" stroke="black" cx="653" cy="-416.93" rx="190.37" ry="18"/>
<ellipse fill="none" stroke="black" cx="653" cy="-416.93" rx="194.37" ry="22"/>
<ellipse fill="none" stroke="black" cx="653" cy="-416.93" rx="198.37" ry="26"/>
<text text-anchor="middle" x="653" y="-413.23" font-family="Times,serif" font-size="14.00">computation_example_operation_curry</text>
</a>
</g>
</g>
<!-- Operation_computation_example_operation_curry&#45;&gt;Operation_operation_curry -->
<g id="edge16" class="edge">
<title>Operation_computation_example_operation_curry&#45;&gt;Operation_operation_curry</title>
<path fill="none" stroke="black" d="M721.66,-392.49C794.15,-367.74 906.82,-329.27 972.51,-306.85"/>
<polygon fill="black" stroke="black" points="973.91,-310.07 982.25,-303.52 971.65,-303.44 973.91,-310.07"/>
</g>
<!-- Operation_nil_dom -->
<g id="node13" class="node">
<title>Operation_nil_dom</title>
<g id="a_node13"><a xlink:href="Operation.html#nil_dom" xlink:title="nil_dom">
<ellipse fill="#f070d1" stroke="black" cx="653" cy="-287.93" rx="46.59" ry="18"/>
<text text-anchor="middle" x="653" y="-284.23" font-family="Times,serif" font-size="14.00">nil_dom</text>
</a>
</g>
</g>
<!-- Operation_computation_example_operation_curry&#45;&gt;Operation_nil_dom -->
<g id="edge17" class="edge">
<title>Operation_computation_example_operation_curry&#45;&gt;Operation_nil_dom</title>
<path fill="none" stroke="black" d="M653,-390.84C653,-369.34 653,-338.44 653,-316.31"/>
<polygon fill="black" stroke="black" points="656.5,-316.23 653,-306.23 649.5,-316.23 656.5,-316.23"/>
</g>
<!-- Operation_CurriedOperation -->
<g id="node11" class="node">
<title>Operation_CurriedOperation</title>
<g id="a_node11"><a xlink:href="Operation.html#CurriedOperation" xlink:title="CurriedOperation">
<ellipse fill="#f070d1" stroke="black" cx="672" cy="-170.93" rx="92.88" ry="18"/>
<text text-anchor="middle" x="672" y="-167.23" font-family="Times,serif" font-size="14.00">CurriedOperation</text>
</a>
</g>
</g>
<!-- Operation_operation_curry&#45;&gt;Operation_CurriedOperation -->
<g id="edge18" class="edge">
<title>Operation_operation_curry&#45;&gt;Operation_CurriedOperation</title>
<path fill="none" stroke="black" d="M980.65,-272.48C916.19,-251.48 796.69,-212.55 726.8,-189.78"/>
<polygon fill="black" stroke="black" points="727.88,-186.45 717.28,-186.68 725.71,-193.11 727.88,-186.45"/>
</g>
<!-- Operation_FiniteOperation -->
<g id="node12" class="node">
<title>Operation_FiniteOperation</title>
<g id="a_node12"><a xlink:href="Operation.html#FiniteOperation" xlink:title="FiniteOperation">
<ellipse fill="#f070d1" stroke="black" cx="867" cy="-170.93" rx="84.49" ry="18"/>
<text text-anchor="middle" x="867" y="-167.23" font-family="Times,serif" font-size="14.00">FiniteOperation</text>
</a>
</g>
</g>
<!-- Operation_operation_curry&#45;&gt;Operation_FiniteOperation -->
<g id="edge19" class="edge">
<title>Operation_operation_curry&#45;&gt;Operation_FiniteOperation</title>
<path fill="none" stroke="black" d="M1002.36,-270.45C974.91,-250.47 928.5,-216.69 897.81,-194.35"/>
<polygon fill="black" stroke="black" points="899.74,-191.43 889.6,-188.37 895.62,-197.09 899.74,-191.43"/>
</g>
<!-- Operation_operation_curry&#45;&gt;Operation_cons_dom -->
<g id="edge20" class="edge">
<title>Operation_operation_curry&#45;&gt;Operation_cons_dom</title>
<path fill="none" stroke="black" d="M1025,-269.46C1025,-250.86 1025,-221.17 1025,-199.43"/>
<polygon fill="black" stroke="black" points="1028.5,-199.18 1025,-189.18 1021.5,-199.18 1028.5,-199.18"/>
</g>
<!-- Operation_computation_example_operation_uncurry -->
<g id="node9" class="node">
<title>Operation_computation_example_operation_uncurry</title>
<g id="a_node9"><a xlink:href="Operation.html#computation_example_operation_uncurry" xlink:title="computation_example_operation_uncurry">
<ellipse fill="#f070d1" stroke="black" cx="226" cy="-416.93" rx="202.26" ry="18"/>
<ellipse fill="none" stroke="black" cx="226" cy="-416.93" rx="206.26" ry="22"/>
<ellipse fill="none" stroke="black" cx="226" cy="-416.93" rx="210.26" ry="26"/>
<text text-anchor="middle" x="226" y="-413.23" font-family="Times,serif" font-size="14.00">computation_example_operation_uncurry</text>
</a>
</g>
</g>
<!-- Operation_computation_example_operation_uncurry&#45;&gt;Operation_operation_uncurry -->
<g id="edge21" class="edge">
<title>Operation_computation_example_operation_uncurry&#45;&gt;Operation_operation_uncurry</title>
<path fill="none" stroke="black" d="M328.8,-394.17C450.3,-368.45 649.25,-326.34 754.89,-303.98"/>
<polygon fill="black" stroke="black" points="755.76,-307.37 764.82,-301.88 754.31,-300.52 755.76,-307.37"/>
</g>
<!-- Operation_operation_uncurry&#45;&gt;Operation_CurriedOperation -->
<g id="edge22" class="edge">
<title>Operation_operation_uncurry&#45;&gt;Operation_CurriedOperation</title>
<path fill="none" stroke="black" d="M803.61,-270.21C776.96,-250.3 732.33,-216.98 702.53,-194.73"/>
<polygon fill="black" stroke="black" points="704.28,-191.66 694.17,-188.48 700.09,-197.27 704.28,-191.66"/>
</g>
<!-- Operation_operation_uncurry&#45;&gt;Operation_FiniteOperation -->
<g id="edge23" class="edge">
<title>Operation_operation_uncurry&#45;&gt;Operation_FiniteOperation</title>
<path fill="none" stroke="black" d="M832.05,-269.96C838.77,-251.1 849.71,-220.42 857.56,-198.4"/>
<polygon fill="black" stroke="black" points="860.86,-199.56 860.93,-188.97 854.27,-197.21 860.86,-199.56"/>
</g>
<!-- Operation_cons_dom&#45;&gt;Operation_cons_dom_ -->
<g id="edge24" class="edge">
<title>Operation_cons_dom&#45;&gt;Operation_cons_dom_</title>
<path fill="none" stroke="black" d="M1031.23,-152.61C1037.92,-134.01 1048.64,-104.2 1056.41,-82.6"/>
<polygon fill="black" stroke="black" points="1059.76,-83.63 1059.85,-73.03 1053.17,-81.26 1059.76,-83.63"/>
</g>
<!-- Operation_tail_dom&#45;&gt;Operation_tail_dom_ -->
<g id="edge25" class="edge">
<title>Operation_tail_dom&#45;&gt;Operation_tail_dom_</title>
<path fill="none" stroke="black" d="M1343.36,-153.84C1321.86,-134.23 1285.4,-100.98 1261.01,-78.74"/>
<polygon fill="black" stroke="black" points="1263.3,-76.09 1253.55,-71.94 1258.58,-81.26 1263.3,-76.09"/>
</g>
<!-- Operation_head_dom&#45;&gt;Operation_head_dom_ -->
<g id="edge26" class="edge">
<title>Operation_head_dom&#45;&gt;Operation_head_dom_</title>
<path fill="none" stroke="black" d="M1480.62,-152.61C1473.77,-134.01 1462.79,-104.2 1454.83,-82.6"/>
<polygon fill="black" stroke="black" points="1458.04,-81.2 1451.3,-73.03 1451.47,-83.62 1458.04,-81.2"/>
</g>
</g>
</svg>
