<?xml version="1.0" encoding="UTF-8" standalone="no"?>
<!DOCTYPE svg PUBLIC "-//W3C//DTD SVG 1.1//EN"
 "http://www.w3.org/Graphics/SVG/1.1/DTD/svg11.dtd">
<!-- Generated by graphviz version 2.43.0 (0)
 -->
<!-- Title: HoTT_Homotopy_Join_JoinSusp Pages: 1 -->
<svg width="798pt" height="403pt"
 viewBox="0.00 0.00 798.00 403.00" xmlns="http://www.w3.org/2000/svg" xmlns:xlink="http://www.w3.org/1999/xlink">
<g id="graph0" class="graph" transform="scale(1 1) rotate(0) translate(4 399)">
<title>HoTT_Homotopy_Join_JoinSusp</title>
<polygon fill="white" stroke="transparent" points="-4,4 -4,-399 794,-399 794,4 -4,4"/>
<g id="clust1" class="cluster">
<title>cluster_JoinSusp</title>
<polygon fill="#ffffc3" stroke="black" points="19.51,-8 19.51,-387 770.49,-387 770.49,-8 19.51,-8"/>
<text text-anchor="middle" x="59.01" y="-371.8" font-family="Times,serif" font-size="14.00">JoinSusp</text>
</g>
<!-- JoinSusp_equiv_join_sphere -->
<g id="node1" class="node">
<title>JoinSusp_equiv_join_sphere</title>
<g id="a_node1"><a xlink:href="JoinSusp.html#equiv_join_sphere" xlink:title="equiv_join_sphere">
<ellipse fill="#f070d1" stroke="black" cx="395.28" cy="-330" rx="93.68" ry="18"/>
<ellipse fill="none" stroke="black" cx="395.28" cy="-330" rx="97.68" ry="22"/>
<ellipse fill="none" stroke="black" cx="395.28" cy="-330" rx="101.68" ry="26"/>
<text text-anchor="middle" x="395.28" y="-326.3" font-family="Times,serif" font-size="14.00">equiv_join_sphere</text>
</a>
</g>
</g>
<!-- JoinSusp_equiv_bool_pow_sphere -->
<g id="node2" class="node">
<title>JoinSusp_equiv_bool_pow_sphere</title>
<g id="a_node2"><a xlink:href="JoinSusp.html#equiv_bool_pow_sphere" xlink:title="equiv_bool_pow_sphere">
<ellipse fill="#f070d1" stroke="black" cx="395.28" cy="-250" rx="119.68" ry="18"/>
<text text-anchor="middle" x="395.28" y="-246.3" font-family="Times,serif" font-size="14.00">equiv_bool_pow_sphere</text>
</a>
</g>
</g>
<!-- JoinSusp_equiv_join_sphere&#45;&gt;JoinSusp_equiv_bool_pow_sphere -->
<g id="edge1" class="edge">
<title>JoinSusp_equiv_join_sphere&#45;&gt;JoinSusp_equiv_bool_pow_sphere</title>
<path fill="none" stroke="black" d="M395.28,-303.89C395.28,-295.84 395.28,-286.88 395.28,-278.66"/>
<polygon fill="black" stroke="black" points="398.78,-278.41 395.28,-268.41 391.78,-278.41 398.78,-278.41"/>
</g>
<!-- JoinSusp_bool_pow -->
<g id="node3" class="node">
<title>JoinSusp_bool_pow</title>
<g id="a_node3"><a xlink:href="JoinSusp.html#bool_pow" xlink:title="bool_pow">
<ellipse fill="#f070d1" stroke="black" cx="170.28" cy="-178" rx="53.89" ry="18"/>
<text text-anchor="middle" x="170.28" y="-174.3" font-family="Times,serif" font-size="14.00">bool_pow</text>
</a>
</g>
</g>
<!-- JoinSusp_equiv_bool_pow_sphere&#45;&gt;JoinSusp_bool_pow -->
<g id="edge2" class="edge">
<title>JoinSusp_equiv_bool_pow_sphere&#45;&gt;JoinSusp_bool_pow</title>
<path fill="none" stroke="black" d="M345.62,-233.55C307.61,-221.72 255.49,-205.51 217.98,-193.84"/>
<polygon fill="black" stroke="black" points="218.88,-190.45 208.29,-190.83 216.8,-197.14 218.88,-190.45"/>
</g>
<!-- JoinSusp_equiv_join_susp -->
<g id="node4" class="node">
<title>JoinSusp_equiv_join_susp</title>
<g id="a_node4"><a xlink:href="JoinSusp.html#equiv_join_susp" xlink:title="equiv_join_susp">
<ellipse fill="#f070d1" stroke="black" cx="548.28" cy="-178" rx="83.39" ry="18"/>
<text text-anchor="middle" x="548.28" y="-174.3" font-family="Times,serif" font-size="14.00">equiv_join_susp</text>
</a>
</g>
</g>
<!-- JoinSusp_equiv_bool_pow_sphere&#45;&gt;JoinSusp_equiv_join_susp -->
<g id="edge3" class="edge">
<title>JoinSusp_equiv_bool_pow_sphere&#45;&gt;JoinSusp_equiv_join_susp</title>
<path fill="none" stroke="black" d="M430.76,-232.76C452.88,-222.65 481.48,-209.56 504.93,-198.83"/>
<polygon fill="black" stroke="black" points="506.66,-201.89 514.3,-194.55 503.75,-195.52 506.66,-201.89"/>
</g>
<!-- JoinSusp_isequiv_join_to_susp -->
<g id="node5" class="node">
<title>JoinSusp_isequiv_join_to_susp</title>
<g id="a_node5"><a xlink:href="JoinSusp.html#isequiv_join_to_susp" xlink:title="isequiv_join_to_susp">
<ellipse fill="#f070d1" stroke="black" cx="495.28" cy="-106" rx="104.78" ry="18"/>
<text text-anchor="middle" x="495.28" y="-102.3" font-family="Times,serif" font-size="14.00">isequiv_join_to_susp</text>
</a>
</g>
</g>
<!-- JoinSusp_equiv_join_susp&#45;&gt;JoinSusp_isequiv_join_to_susp -->
<g id="edge4" class="edge">
<title>JoinSusp_equiv_join_susp&#45;&gt;JoinSusp_isequiv_join_to_susp</title>
<path fill="none" stroke="black" d="M535.45,-160.05C529.16,-151.75 521.46,-141.58 514.49,-132.38"/>
<polygon fill="black" stroke="black" points="517.18,-130.14 508.36,-124.28 511.6,-134.36 517.18,-130.14"/>
</g>
<!-- JoinSusp_susp_to_join -->
<g id="node6" class="node">
<title>JoinSusp_susp_to_join</title>
<g id="a_node6"><a xlink:href="JoinSusp.html#susp_to_join" xlink:title="susp_to_join">
<ellipse fill="#f070d1" stroke="black" cx="207.28" cy="-34" rx="67.69" ry="18"/>
<text text-anchor="middle" x="207.28" y="-30.3" font-family="Times,serif" font-size="14.00">susp_to_join</text>
</a>
</g>
</g>
<!-- JoinSusp_isequiv_join_to_susp&#45;&gt;JoinSusp_susp_to_join -->
<g id="edge5" class="edge">
<title>JoinSusp_isequiv_join_to_susp&#45;&gt;JoinSusp_susp_to_join</title>
<path fill="none" stroke="black" d="M437.34,-90.92C387.4,-78.78 315.64,-61.34 265.59,-49.17"/>
<polygon fill="black" stroke="black" points="266.11,-45.7 255.57,-46.74 264.46,-52.5 266.11,-45.7"/>
</g>
<!-- JoinSusp_join_to_susp -->
<g id="node7" class="node">
<title>JoinSusp_join_to_susp</title>
<g id="a_node7"><a xlink:href="JoinSusp.html#join_to_susp" xlink:title="join_to_susp">
<ellipse fill="#f070d1" stroke="black" cx="580.28" cy="-34" rx="67.69" ry="18"/>
<text text-anchor="middle" x="580.28" y="-30.3" font-family="Times,serif" font-size="14.00">join_to_susp</text>
</a>
</g>
</g>
<!-- JoinSusp_isequiv_join_to_susp&#45;&gt;JoinSusp_join_to_susp -->
<g id="edge6" class="edge">
<title>JoinSusp_isequiv_join_to_susp&#45;&gt;JoinSusp_join_to_susp</title>
<path fill="none" stroke="black" d="M515.85,-88.05C526.87,-78.98 540.6,-67.68 552.54,-57.84"/>
<polygon fill="black" stroke="black" points="554.98,-60.37 560.48,-51.31 550.53,-54.96 554.98,-60.37"/>
</g>
</g>
</svg>
