<?xml version="1.0" encoding="UTF-8" standalone="no"?>
<!DOCTYPE svg PUBLIC "-//W3C//DTD SVG 1.1//EN"
 "http://www.w3.org/Graphics/SVG/1.1/DTD/svg11.dtd">
<!-- Generated by graphviz version 2.43.0 (0)
 -->
<!-- Title: HoTT_Classes_theory_ua_prod_algebra Pages: 1 -->
<svg width="1694pt" height="851pt"
 viewBox="0.00 0.00 1694.00 851.00" xmlns="http://www.w3.org/2000/svg" xmlns:xlink="http://www.w3.org/1999/xlink">
<g id="graph0" class="graph" transform="scale(1 1) rotate(0) translate(4 847)">
<title>HoTT_Classes_theory_ua_prod_algebra</title>
<polygon fill="white" stroke="transparent" points="-4,4 -4,-847 1690,-847 1690,4 -4,4"/>
<g id="clust1" class="cluster">
<title>cluster_ua_prod_algebra</title>
<polygon fill="#ffffc3" stroke="black" points="12.61,-8 12.61,-835 1673.39,-835 1673.39,-8 12.61,-8"/>
<text text-anchor="middle" x="79.61" y="-819.8" font-family="Times,serif" font-size="14.00">ua_prod_algebra</text>
</g>
<!-- ua_prod_algebra_ump_bin_prod_algebra -->
<g id="node1" class="node">
<title>ua_prod_algebra_ump_bin_prod_algebra</title>
<g id="a_node1"><a xlink:href="ua_prod_algebra.html#ump_bin_prod_algebra" xlink:title="ump_bin_prod_algebra">
<ellipse fill="#f070d1" stroke="black" cx="449.02" cy="-778" rx="115.87" ry="18"/>
<ellipse fill="none" stroke="black" cx="449.02" cy="-778" rx="119.87" ry="22"/>
<ellipse fill="none" stroke="black" cx="449.02" cy="-778" rx="123.88" ry="26"/>
<text text-anchor="middle" x="449.02" y="-774.3" font-family="Times,serif" font-size="14.00">ump_bin_prod_algebra</text>
</a>
</g>
</g>
<!-- ua_prod_algebra_BinProdAlgebra -->
<g id="node4" class="node">
<title>ua_prod_algebra_BinProdAlgebra</title>
<g id="a_node4"><a xlink:href="ua_prod_algebra.html#BinProdAlgebra" xlink:title="BinProdAlgebra">
<ellipse fill="#f070d1" stroke="black" cx="239.02" cy="-538" rx="84.49" ry="18"/>
<text text-anchor="middle" x="239.02" y="-534.3" font-family="Times,serif" font-size="14.00">BinProdAlgebra</text>
</a>
</g>
</g>
<!-- ua_prod_algebra_ump_bin_prod_algebra&#45;&gt;ua_prod_algebra_BinProdAlgebra -->
<g id="edge1" class="edge">
<title>ua_prod_algebra_ump_bin_prod_algebra&#45;&gt;ua_prod_algebra_BinProdAlgebra</title>
<path fill="none" stroke="black" d="M432.29,-751.91C415.73,-729.24 388.24,-696.92 356.02,-680 267.53,-633.52 198.8,-720.13 134.02,-644 119.05,-626.4 121.91,-611.68 134.02,-592 144,-575.79 160.64,-564.35 177.76,-556.37"/>
<polygon fill="black" stroke="black" points="179.48,-559.44 187.28,-552.28 176.71,-553.01 179.48,-559.44"/>
</g>
<!-- ua_prod_algebra_trunc_bin_prod_algebras -->
<g id="node5" class="node">
<title>ua_prod_algebra_trunc_bin_prod_algebras</title>
<g id="a_node5"><a xlink:href="ua_prod_algebra.html#trunc_bin_prod_algebras" xlink:title="trunc_bin_prod_algebras">
<ellipse fill="#f070d1" stroke="black" cx="222.02" cy="-698" rx="124.58" ry="18"/>
<text text-anchor="middle" x="222.02" y="-694.3" font-family="Times,serif" font-size="14.00">trunc_bin_prod_algebras</text>
</a>
</g>
</g>
<!-- ua_prod_algebra_ump_bin_prod_algebra&#45;&gt;ua_prod_algebra_trunc_bin_prod_algebras -->
<g id="edge2" class="edge">
<title>ua_prod_algebra_ump_bin_prod_algebra&#45;&gt;ua_prod_algebra_trunc_bin_prod_algebras</title>
<path fill="none" stroke="black" d="M386.39,-755.48C352.23,-743.74 310.32,-729.34 277.37,-718.02"/>
<polygon fill="black" stroke="black" points="278.48,-714.7 267.89,-714.76 276.21,-721.32 278.48,-714.7"/>
</g>
<!-- ua_prod_algebra_ump_prod_algebra -->
<g id="node7" class="node">
<title>ua_prod_algebra_ump_prod_algebra</title>
<g id="a_node7"><a xlink:href="ua_prod_algebra.html#ump_prod_algebra" xlink:title="ump_prod_algebra">
<ellipse fill="#f070d1" stroke="black" cx="1101.02" cy="-698" rx="96.68" ry="18"/>
<text text-anchor="middle" x="1101.02" y="-694.3" font-family="Times,serif" font-size="14.00">ump_prod_algebra</text>
</a>
</g>
</g>
<!-- ua_prod_algebra_ump_bin_prod_algebra&#45;&gt;ua_prod_algebra_ump_prod_algebra -->
<g id="edge3" class="edge">
<title>ua_prod_algebra_ump_bin_prod_algebra&#45;&gt;ua_prod_algebra_ump_prod_algebra</title>
<path fill="none" stroke="black" d="M554.5,-764.38C681.45,-749.19 892.39,-723.96 1011.67,-709.69"/>
<polygon fill="black" stroke="black" points="1012.35,-713.13 1021.86,-708.47 1011.52,-706.18 1012.35,-713.13"/>
</g>
<!-- ua_prod_algebra_snd_prod_algebra -->
<g id="node2" class="node">
<title>ua_prod_algebra_snd_prod_algebra</title>
<g id="a_node2"><a xlink:href="ua_prod_algebra.html#snd_prod_algebra" xlink:title="snd_prod_algebra">
<ellipse fill="#f070d1" stroke="black" cx="578.02" cy="-618" rx="92.89" ry="18"/>
<ellipse fill="none" stroke="black" cx="578.02" cy="-618" rx="96.89" ry="22"/>
<ellipse fill="none" stroke="black" cx="578.02" cy="-618" rx="100.88" ry="26"/>
<text text-anchor="middle" x="578.02" y="-614.3" font-family="Times,serif" font-size="14.00">snd_prod_algebra</text>
</a>
</g>
</g>
<!-- ua_prod_algebra_snd_prod_algebra&#45;&gt;ua_prod_algebra_BinProdAlgebra -->
<g id="edge4" class="edge">
<title>ua_prod_algebra_snd_prod_algebra&#45;&gt;ua_prod_algebra_BinProdAlgebra</title>
<path fill="none" stroke="black" d="M504.46,-600.08C444.76,-586.34 361.38,-567.15 304.08,-553.97"/>
<polygon fill="black" stroke="black" points="304.59,-550.49 294.06,-551.66 303.02,-557.32 304.59,-550.49"/>
</g>
<!-- ua_prod_algebra_hom_proj_prod_algebra -->
<g id="node13" class="node">
<title>ua_prod_algebra_hom_proj_prod_algebra</title>
<g id="a_node13"><a xlink:href="ua_prod_algebra.html#hom_proj_prod_algebra" xlink:title="hom_proj_prod_algebra">
<ellipse fill="#f070d1" stroke="black" cx="632.02" cy="-538" rx="118.88" ry="18"/>
<text text-anchor="middle" x="632.02" y="-534.3" font-family="Times,serif" font-size="14.00">hom_proj_prod_algebra</text>
</a>
</g>
</g>
<!-- ua_prod_algebra_snd_prod_algebra&#45;&gt;ua_prod_algebra_hom_proj_prod_algebra -->
<g id="edge5" class="edge">
<title>ua_prod_algebra_snd_prod_algebra&#45;&gt;ua_prod_algebra_hom_proj_prod_algebra</title>
<path fill="none" stroke="black" d="M595.11,-592.32C601.23,-583.48 608.13,-573.51 614.3,-564.59"/>
<polygon fill="black" stroke="black" points="617.36,-566.33 620.17,-556.12 611.6,-562.35 617.36,-566.33"/>
</g>
<!-- ua_prod_algebra_fst_prod_algebra -->
<g id="node3" class="node">
<title>ua_prod_algebra_fst_prod_algebra</title>
<g id="a_node3"><a xlink:href="ua_prod_algebra.html#fst_prod_algebra" xlink:title="fst_prod_algebra">
<ellipse fill="#f070d1" stroke="black" cx="239.02" cy="-618" rx="88.29" ry="18"/>
<ellipse fill="none" stroke="black" cx="239.02" cy="-618" rx="92.29" ry="22"/>
<ellipse fill="none" stroke="black" cx="239.02" cy="-618" rx="96.28" ry="26"/>
<text text-anchor="middle" x="239.02" y="-614.3" font-family="Times,serif" font-size="14.00">fst_prod_algebra</text>
</a>
</g>
</g>
<!-- ua_prod_algebra_fst_prod_algebra&#45;&gt;ua_prod_algebra_BinProdAlgebra -->
<g id="edge6" class="edge">
<title>ua_prod_algebra_fst_prod_algebra&#45;&gt;ua_prod_algebra_BinProdAlgebra</title>
<path fill="none" stroke="black" d="M239.02,-591.89C239.02,-583.84 239.02,-574.88 239.02,-566.66"/>
<polygon fill="black" stroke="black" points="242.52,-566.41 239.02,-556.41 235.52,-566.41 242.52,-566.41"/>
</g>
<!-- ua_prod_algebra_fst_prod_algebra&#45;&gt;ua_prod_algebra_hom_proj_prod_algebra -->
<g id="edge7" class="edge">
<title>ua_prod_algebra_fst_prod_algebra&#45;&gt;ua_prod_algebra_hom_proj_prod_algebra</title>
<path fill="none" stroke="black" d="M315.26,-601.87C383.66,-588.29 483.65,-568.45 552.92,-554.7"/>
<polygon fill="black" stroke="black" points="553.78,-558.1 562.9,-552.72 552.41,-551.23 553.78,-558.1"/>
</g>
<!-- ua_prod_algebra_bin_prod_algebras -->
<g id="node6" class="node">
<title>ua_prod_algebra_bin_prod_algebras</title>
<g id="a_node6"><a xlink:href="ua_prod_algebra.html#bin_prod_algebras" xlink:title="bin_prod_algebras">
<ellipse fill="#f070d1" stroke="black" cx="176.02" cy="-466" rx="95.58" ry="18"/>
<text text-anchor="middle" x="176.02" y="-462.3" font-family="Times,serif" font-size="14.00">bin_prod_algebras</text>
</a>
</g>
</g>
<!-- ua_prod_algebra_BinProdAlgebra&#45;&gt;ua_prod_algebra_bin_prod_algebras -->
<g id="edge8" class="edge">
<title>ua_prod_algebra_BinProdAlgebra&#45;&gt;ua_prod_algebra_bin_prod_algebras</title>
<path fill="none" stroke="black" d="M223.77,-520.05C216.03,-511.46 206.49,-500.86 197.98,-491.4"/>
<polygon fill="black" stroke="black" points="200.42,-488.88 191.13,-483.79 195.22,-493.56 200.42,-488.88"/>
</g>
<!-- ua_prod_algebra_ProdAlgebra -->
<g id="node18" class="node">
<title>ua_prod_algebra_ProdAlgebra</title>
<g id="a_node18"><a xlink:href="ua_prod_algebra.html#ProdAlgebra" xlink:title="ProdAlgebra">
<ellipse fill="#f070d1" stroke="black" cx="848.02" cy="-250" rx="68.79" ry="18"/>
<text text-anchor="middle" x="848.02" y="-246.3" font-family="Times,serif" font-size="14.00">ProdAlgebra</text>
</a>
</g>
</g>
<!-- ua_prod_algebra_BinProdAlgebra&#45;&gt;ua_prod_algebra_ProdAlgebra -->
<g id="edge9" class="edge">
<title>ua_prod_algebra_BinProdAlgebra&#45;&gt;ua_prod_algebra_ProdAlgebra</title>
<path fill="none" stroke="black" d="M254.86,-520.09C296.93,-476.33 416.84,-358.93 542.02,-304 615.37,-271.82 706.63,-259.14 770.32,-254.16"/>
<polygon fill="black" stroke="black" points="770.58,-257.65 780.29,-253.43 770.06,-250.67 770.58,-257.65"/>
</g>
<!-- ua_prod_algebra_trunc_bin_prod_algebras&#45;&gt;ua_prod_algebra_bin_prod_algebras -->
<g id="edge10" class="edge">
<title>ua_prod_algebra_trunc_bin_prod_algebras&#45;&gt;ua_prod_algebra_bin_prod_algebras</title>
<path fill="none" stroke="black" d="M121.66,-687.18C95.15,-679.48 69.4,-666.31 53.02,-644 12.69,-589.09 91.94,-522.75 141.08,-489.02"/>
<polygon fill="black" stroke="black" points="143.23,-491.79 149.57,-483.31 139.32,-485.99 143.23,-491.79"/>
</g>
<!-- ua_prod_algebra_hom_prod_algebra_mapin -->
<g id="node8" class="node">
<title>ua_prod_algebra_hom_prod_algebra_mapin</title>
<g id="a_node8"><a xlink:href="ua_prod_algebra.html#hom_prod_algebra_mapin" xlink:title="hom_prod_algebra_mapin">
<ellipse fill="#f070d1" stroke="black" cx="1458.02" cy="-618" rx="129.18" ry="18"/>
<text text-anchor="middle" x="1458.02" y="-614.3" font-family="Times,serif" font-size="14.00">hom_prod_algebra_mapin</text>
</a>
</g>
</g>
<!-- ua_prod_algebra_ump_prod_algebra&#45;&gt;ua_prod_algebra_hom_prod_algebra_mapin -->
<g id="edge11" class="edge">
<title>ua_prod_algebra_ump_prod_algebra&#45;&gt;ua_prod_algebra_hom_prod_algebra_mapin</title>
<path fill="none" stroke="black" d="M1161.18,-683.86C1221.85,-670.6 1315.73,-650.09 1381.63,-635.69"/>
<polygon fill="black" stroke="black" points="1382.52,-639.08 1391.54,-633.52 1381.03,-632.24 1382.52,-639.08"/>
</g>
<!-- ua_prod_algebra_hom_prod_algebra_mapout -->
<g id="node12" class="node">
<title>ua_prod_algebra_hom_prod_algebra_mapout</title>
<g id="a_node12"><a xlink:href="ua_prod_algebra.html#hom_prod_algebra_mapout" xlink:title="hom_prod_algebra_mapout">
<ellipse fill="#f070d1" stroke="black" cx="980.02" cy="-618" rx="135.68" ry="18"/>
<text text-anchor="middle" x="980.02" y="-614.3" font-family="Times,serif" font-size="14.00">hom_prod_algebra_mapout</text>
</a>
</g>
</g>
<!-- ua_prod_algebra_ump_prod_algebra&#45;&gt;ua_prod_algebra_hom_prod_algebra_mapout -->
<g id="edge12" class="edge">
<title>ua_prod_algebra_ump_prod_algebra&#45;&gt;ua_prod_algebra_hom_prod_algebra_mapout</title>
<path fill="none" stroke="black" d="M1075.36,-680.46C1057.67,-669.06 1033.96,-653.77 1014.61,-641.3"/>
<polygon fill="black" stroke="black" points="1016.36,-638.26 1006.06,-635.79 1012.57,-644.15 1016.36,-638.26"/>
</g>
<!-- ua_prod_algebra_trunc_prod_algebra -->
<g id="node17" class="node">
<title>ua_prod_algebra_trunc_prod_algebra</title>
<g id="a_node17"><a xlink:href="ua_prod_algebra.html#trunc_prod_algebra" xlink:title="trunc_prod_algebra">
<ellipse fill="#f070d1" stroke="black" cx="1030.02" cy="-322" rx="100.98" ry="18"/>
<text text-anchor="middle" x="1030.02" y="-318.3" font-family="Times,serif" font-size="14.00">trunc_prod_algebra</text>
</a>
</g>
</g>
<!-- ua_prod_algebra_ump_prod_algebra&#45;&gt;ua_prod_algebra_trunc_prod_algebra -->
<g id="edge13" class="edge">
<title>ua_prod_algebra_ump_prod_algebra&#45;&gt;ua_prod_algebra_trunc_prod_algebra</title>
<path fill="none" stroke="black" d="M1110.98,-679.98C1116.29,-669.89 1122.29,-656.64 1125.02,-644 1129.9,-621.41 1128.93,-614.78 1125.02,-592 1109.17,-499.48 1064.72,-396.52 1042.71,-349.28"/>
<polygon fill="black" stroke="black" points="1045.8,-347.63 1038.37,-340.07 1039.46,-350.61 1045.8,-347.63"/>
</g>
<!-- ua_prod_algebra_is_homomorphism_prod_algebra_mapin -->
<g id="node9" class="node">
<title>ua_prod_algebra_is_homomorphism_prod_algebra_mapin</title>
<g id="a_node9"><a xlink:href="ua_prod_algebra.html#is_homomorphism_prod_algebra_mapin" xlink:title="is_homomorphism_prod_algebra_mapin">
<ellipse fill="#f070d1" stroke="black" cx="1355.02" cy="-538" rx="193.87" ry="18"/>
<text text-anchor="middle" x="1355.02" y="-534.3" font-family="Times,serif" font-size="14.00">is_homomorphism_prod_algebra_mapin</text>
</a>
</g>
</g>
<!-- ua_prod_algebra_hom_prod_algebra_mapin&#45;&gt;ua_prod_algebra_is_homomorphism_prod_algebra_mapin -->
<g id="edge14" class="edge">
<title>ua_prod_algebra_hom_prod_algebra_mapin&#45;&gt;ua_prod_algebra_is_homomorphism_prod_algebra_mapin</title>
<path fill="none" stroke="black" d="M1435.67,-600.08C1420.96,-588.93 1401.52,-574.21 1385.41,-562.01"/>
<polygon fill="black" stroke="black" points="1387.41,-559.14 1377.33,-555.89 1383.19,-564.72 1387.41,-559.14"/>
</g>
<!-- ua_prod_algebra_oppreserving_prod_algebra_mapin -->
<g id="node10" class="node">
<title>ua_prod_algebra_oppreserving_prod_algebra_mapin</title>
<g id="a_node10"><a xlink:href="ua_prod_algebra.html#oppreserving_prod_algebra_mapin" xlink:title="oppreserving_prod_algebra_mapin">
<ellipse fill="#f070d1" stroke="black" cx="1338.02" cy="-466" rx="170.87" ry="18"/>
<text text-anchor="middle" x="1338.02" y="-462.3" font-family="Times,serif" font-size="14.00">oppreserving_prod_algebra_mapin</text>
</a>
</g>
</g>
<!-- ua_prod_algebra_is_homomorphism_prod_algebra_mapin&#45;&gt;ua_prod_algebra_oppreserving_prod_algebra_mapin -->
<g id="edge15" class="edge">
<title>ua_prod_algebra_is_homomorphism_prod_algebra_mapin&#45;&gt;ua_prod_algebra_oppreserving_prod_algebra_mapin</title>
<path fill="none" stroke="black" d="M1350.82,-519.7C1348.93,-511.9 1346.65,-502.51 1344.54,-493.83"/>
<polygon fill="black" stroke="black" points="1347.94,-493 1342.18,-484.1 1341.14,-494.65 1347.94,-493"/>
</g>
<!-- ua_prod_algebra_def_prod_algebra_mapin -->
<g id="node11" class="node">
<title>ua_prod_algebra_def_prod_algebra_mapin</title>
<g id="a_node11"><a xlink:href="ua_prod_algebra.html#def_prod_algebra_mapin" xlink:title="def_prod_algebra_mapin">
<ellipse fill="#f070d1" stroke="black" cx="1300.02" cy="-394" rx="124.28" ry="18"/>
<text text-anchor="middle" x="1300.02" y="-390.3" font-family="Times,serif" font-size="14.00">def_prod_algebra_mapin</text>
</a>
</g>
</g>
<!-- ua_prod_algebra_oppreserving_prod_algebra_mapin&#45;&gt;ua_prod_algebra_def_prod_algebra_mapin -->
<g id="edge16" class="edge">
<title>ua_prod_algebra_oppreserving_prod_algebra_mapin&#45;&gt;ua_prod_algebra_def_prod_algebra_mapin</title>
<path fill="none" stroke="black" d="M1328.63,-447.7C1324.26,-439.64 1318.97,-429.89 1314.13,-420.98"/>
<polygon fill="black" stroke="black" points="1317.15,-419.22 1309.31,-412.1 1311,-422.56 1317.15,-419.22"/>
</g>
<!-- ua_prod_algebra_def_prod_algebra_mapin&#45;&gt;ua_prod_algebra_ProdAlgebra -->
<g id="edge17" class="edge">
<title>ua_prod_algebra_def_prod_algebra_mapin&#45;&gt;ua_prod_algebra_ProdAlgebra</title>
<path fill="none" stroke="black" d="M1276.01,-376.31C1245.71,-356.07 1191.35,-322.36 1140.02,-304 1068.48,-278.4 982.47,-264.71 922.4,-257.7"/>
<polygon fill="black" stroke="black" points="922.57,-254.2 912.24,-256.55 921.78,-261.15 922.57,-254.2"/>
</g>
<!-- ua_prod_algebra_hom_prod_algebra_mapout&#45;&gt;ua_prod_algebra_hom_proj_prod_algebra -->
<g id="edge18" class="edge">
<title>ua_prod_algebra_hom_prod_algebra_mapout&#45;&gt;ua_prod_algebra_hom_proj_prod_algebra</title>
<path fill="none" stroke="black" d="M914.16,-602.24C854.71,-588.91 767.35,-569.33 705.63,-555.5"/>
<polygon fill="black" stroke="black" points="706.09,-552.01 695.56,-553.24 704.56,-558.84 706.09,-552.01"/>
</g>
<!-- ua_prod_algebra_is_homomorphism_proj_prod_algebra -->
<g id="node14" class="node">
<title>ua_prod_algebra_is_homomorphism_proj_prod_algebra</title>
<g id="a_node14"><a xlink:href="ua_prod_algebra.html#is_homomorphism_proj_prod_algebra" xlink:title="is_homomorphism_proj_prod_algebra">
<ellipse fill="#f070d1" stroke="black" cx="676.02" cy="-466" rx="183.07" ry="18"/>
<text text-anchor="middle" x="676.02" y="-462.3" font-family="Times,serif" font-size="14.00">is_homomorphism_proj_prod_algebra</text>
</a>
</g>
</g>
<!-- ua_prod_algebra_hom_proj_prod_algebra&#45;&gt;ua_prod_algebra_is_homomorphism_proj_prod_algebra -->
<g id="edge19" class="edge">
<title>ua_prod_algebra_hom_proj_prod_algebra&#45;&gt;ua_prod_algebra_is_homomorphism_proj_prod_algebra</title>
<path fill="none" stroke="black" d="M642.67,-520.05C647.79,-511.92 654.02,-502 659.72,-492.94"/>
<polygon fill="black" stroke="black" points="662.81,-494.6 665.16,-484.28 656.88,-490.88 662.81,-494.6"/>
</g>
<!-- ua_prod_algebra_oppreserving_proj_prod_algebra -->
<g id="node15" class="node">
<title>ua_prod_algebra_oppreserving_proj_prod_algebra</title>
<g id="a_node15"><a xlink:href="ua_prod_algebra.html#oppreserving_proj_prod_algebra" xlink:title="oppreserving_proj_prod_algebra">
<ellipse fill="#f070d1" stroke="black" cx="671.02" cy="-394" rx="160.57" ry="18"/>
<text text-anchor="middle" x="671.02" y="-390.3" font-family="Times,serif" font-size="14.00">oppreserving_proj_prod_algebra</text>
</a>
</g>
</g>
<!-- ua_prod_algebra_is_homomorphism_proj_prod_algebra&#45;&gt;ua_prod_algebra_oppreserving_proj_prod_algebra -->
<g id="edge20" class="edge">
<title>ua_prod_algebra_is_homomorphism_proj_prod_algebra&#45;&gt;ua_prod_algebra_oppreserving_proj_prod_algebra</title>
<path fill="none" stroke="black" d="M674.79,-447.7C674.24,-439.98 673.57,-430.71 672.96,-422.11"/>
<polygon fill="black" stroke="black" points="676.45,-421.83 672.24,-412.1 669.47,-422.33 676.45,-421.83"/>
</g>
<!-- ua_prod_algebra_def_proj_prod_algebra -->
<g id="node16" class="node">
<title>ua_prod_algebra_def_proj_prod_algebra</title>
<g id="a_node16"><a xlink:href="ua_prod_algebra.html#def_proj_prod_algebra" xlink:title="def_proj_prod_algebra">
<ellipse fill="#f070d1" stroke="black" cx="665.02" cy="-322" rx="113.98" ry="18"/>
<text text-anchor="middle" x="665.02" y="-318.3" font-family="Times,serif" font-size="14.00">def_proj_prod_algebra</text>
</a>
</g>
</g>
<!-- ua_prod_algebra_oppreserving_proj_prod_algebra&#45;&gt;ua_prod_algebra_def_proj_prod_algebra -->
<g id="edge21" class="edge">
<title>ua_prod_algebra_oppreserving_proj_prod_algebra&#45;&gt;ua_prod_algebra_def_proj_prod_algebra</title>
<path fill="none" stroke="black" d="M669.54,-375.7C668.88,-367.98 668.08,-358.71 667.35,-350.11"/>
<polygon fill="black" stroke="black" points="670.83,-349.77 666.49,-340.1 663.86,-350.37 670.83,-349.77"/>
</g>
<!-- ua_prod_algebra_def_proj_prod_algebra&#45;&gt;ua_prod_algebra_ProdAlgebra -->
<g id="edge22" class="edge">
<title>ua_prod_algebra_def_proj_prod_algebra&#45;&gt;ua_prod_algebra_ProdAlgebra</title>
<path fill="none" stroke="black" d="M706.55,-305.12C734.69,-294.35 771.92,-280.11 801.13,-268.94"/>
<polygon fill="black" stroke="black" points="802.61,-272.12 810.7,-265.28 800.11,-265.58 802.61,-272.12"/>
</g>
<!-- ua_prod_algebra_trunc_prod_algebra&#45;&gt;ua_prod_algebra_ProdAlgebra -->
<g id="edge23" class="edge">
<title>ua_prod_algebra_trunc_prod_algebra&#45;&gt;ua_prod_algebra_ProdAlgebra</title>
<path fill="none" stroke="black" d="M989.63,-305.46C961.59,-294.68 924.16,-280.28 894.82,-269"/>
<polygon fill="black" stroke="black" points="895.79,-265.62 885.2,-265.3 893.28,-272.16 895.79,-265.62"/>
</g>
<!-- ua_prod_algebra_ops_prod_algebra -->
<g id="node19" class="node">
<title>ua_prod_algebra_ops_prod_algebra</title>
<g id="a_node19"><a xlink:href="ua_prod_algebra.html#ops_prod_algebra" xlink:title="ops_prod_algebra">
<ellipse fill="#f070d1" stroke="black" cx="848.02" cy="-178" rx="92.08" ry="18"/>
<text text-anchor="middle" x="848.02" y="-174.3" font-family="Times,serif" font-size="14.00">ops_prod_algebra</text>
</a>
</g>
</g>
<!-- ua_prod_algebra_ProdAlgebra&#45;&gt;ua_prod_algebra_ops_prod_algebra -->
<g id="edge24" class="edge">
<title>ua_prod_algebra_ProdAlgebra&#45;&gt;ua_prod_algebra_ops_prod_algebra</title>
<path fill="none" stroke="black" d="M848.02,-231.7C848.02,-223.98 848.02,-214.71 848.02,-206.11"/>
<polygon fill="black" stroke="black" points="851.52,-206.1 848.02,-196.1 844.52,-206.1 851.52,-206.1"/>
</g>
<!-- ua_prod_algebra_op_prod_algebra -->
<g id="node20" class="node">
<title>ua_prod_algebra_op_prod_algebra</title>
<g id="a_node20"><a xlink:href="ua_prod_algebra.html#op_prod_algebra" xlink:title="op_prod_algebra">
<ellipse fill="#f070d1" stroke="black" cx="848.02" cy="-106" rx="87.18" ry="18"/>
<text text-anchor="middle" x="848.02" y="-102.3" font-family="Times,serif" font-size="14.00">op_prod_algebra</text>
</a>
</g>
</g>
<!-- ua_prod_algebra_ops_prod_algebra&#45;&gt;ua_prod_algebra_op_prod_algebra -->
<g id="edge25" class="edge">
<title>ua_prod_algebra_ops_prod_algebra&#45;&gt;ua_prod_algebra_op_prod_algebra</title>
<path fill="none" stroke="black" d="M848.02,-159.7C848.02,-151.98 848.02,-142.71 848.02,-134.11"/>
<polygon fill="black" stroke="black" points="851.52,-134.1 848.02,-124.1 844.52,-134.1 851.52,-134.1"/>
</g>
<!-- ua_prod_algebra_carriers_prod_algebra -->
<g id="node21" class="node">
<title>ua_prod_algebra_carriers_prod_algebra</title>
<g id="a_node21"><a xlink:href="ua_prod_algebra.html#carriers_prod_algebra" xlink:title="carriers_prod_algebra">
<ellipse fill="#f070d1" stroke="black" cx="848.02" cy="-34" rx="112.38" ry="18"/>
<text text-anchor="middle" x="848.02" y="-30.3" font-family="Times,serif" font-size="14.00">carriers_prod_algebra</text>
</a>
</g>
</g>
<!-- ua_prod_algebra_op_prod_algebra&#45;&gt;ua_prod_algebra_carriers_prod_algebra -->
<g id="edge26" class="edge">
<title>ua_prod_algebra_op_prod_algebra&#45;&gt;ua_prod_algebra_carriers_prod_algebra</title>
<path fill="none" stroke="black" d="M848.02,-87.7C848.02,-79.98 848.02,-70.71 848.02,-62.11"/>
<polygon fill="black" stroke="black" points="851.52,-62.1 848.02,-52.1 844.52,-62.1 851.52,-62.1"/>
</g>
</g>
</svg>
