<?xml version="1.0" encoding="UTF-8" standalone="no"?>
<!DOCTYPE svg PUBLIC "-//W3C//DTD SVG 1.1//EN"
 "http://www.w3.org/Graphics/SVG/1.1/DTD/svg11.dtd">
<!-- Generated by graphviz version 2.43.0 (0)
 -->
<!-- Title: HoTT_WildCat_Prod Pages: 1 -->
<svg width="2717pt" height="1363pt"
 viewBox="0.00 0.00 2717.00 1362.50" xmlns="http://www.w3.org/2000/svg" xmlns:xlink="http://www.w3.org/1999/xlink">
<g id="graph0" class="graph" transform="scale(1 1) rotate(0) translate(4 1358.5)">
<title>HoTT_WildCat_Prod</title>
<polygon fill="white" stroke="transparent" points="-4,4 -4,-1358.5 2713,-1358.5 2713,4 -4,4"/>
<g id="clust1" class="cluster">
<title>cluster_Prod</title>
<polygon fill="#ffffc3" stroke="black" points="8,-21.72 8,-1332.78 2701,-1332.78 2701,-21.72 8,-21.72"/>
<text text-anchor="middle" x="33" y="-1317.58" font-family="Times,serif" font-size="14.00">Prod</text>
</g>
<!-- Prod_fmap2_pair -->
<g id="node1" class="node">
<title>Prod_fmap2_pair</title>
<g id="a_node1"><a xlink:href="Prod.html#fmap2_pair" xlink:title="fmap2_pair">
<ellipse fill="#f070d1" stroke="black" cx="2416" cy="-938.72" rx="63.08" ry="18"/>
<ellipse fill="none" stroke="black" cx="2416" cy="-938.72" rx="67.09" ry="22"/>
<ellipse fill="none" stroke="black" cx="2416" cy="-938.72" rx="71.09" ry="26"/>
<text text-anchor="middle" x="2416" y="-935.02" font-family="Times,serif" font-size="14.00">fmap2_pair</text>
</a>
</g>
</g>
<!-- Prod_fmap_pair -->
<g id="node3" class="node">
<title>Prod_fmap_pair</title>
<g id="a_node3"><a xlink:href="Prod.html#fmap_pair" xlink:title="fmap_pair">
<ellipse fill="#f070d1" stroke="black" cx="2416" cy="-721.72" rx="57.39" ry="18"/>
<text text-anchor="middle" x="2416" y="-718.02" font-family="Times,serif" font-size="14.00">fmap_pair</text>
</a>
</g>
</g>
<!-- Prod_fmap2_pair&#45;&gt;Prod_fmap_pair -->
<g id="edge1" class="edge">
<title>Prod_fmap2_pair&#45;&gt;Prod_fmap_pair</title>
<path fill="none" stroke="black" d="M2416,-912.63C2416,-871.97 2416,-792.01 2416,-749.99"/>
<polygon fill="black" stroke="black" points="2419.5,-749.93 2416,-739.93 2412.5,-749.93 2419.5,-749.93"/>
</g>
<!-- Prod_is1cat_prod -->
<g id="node23" class="node">
<title>Prod_is1cat_prod</title>
<g id="a_node23"><a xlink:href="Prod.html#is1cat_prod" xlink:title="is1cat_prod">
<ellipse fill="#f070d1" stroke="black" cx="1550" cy="-721.72" rx="64.19" ry="18"/>
<text text-anchor="middle" x="1550" y="-718.02" font-family="Times,serif" font-size="14.00">is1cat_prod</text>
</a>
</g>
</g>
<!-- Prod_fmap2_pair&#45;&gt;Prod_is1cat_prod -->
<g id="edge2" class="edge">
<title>Prod_fmap2_pair&#45;&gt;Prod_is1cat_prod</title>
<path fill="none" stroke="black" d="M2364.08,-920.95C2354.76,-918.09 2345.12,-915.24 2336,-912.72 2066.33,-838.07 1740.14,-764.49 1608.89,-735.56"/>
<polygon fill="black" stroke="black" points="1609.56,-732.12 1599.04,-733.39 1608.05,-738.96 1609.56,-732.12"/>
</g>
<!-- Prod_fmap_pair_comp -->
<g id="node2" class="node">
<title>Prod_fmap_pair_comp</title>
<g id="a_node2"><a xlink:href="Prod.html#fmap_pair_comp" xlink:title="fmap_pair_comp">
<ellipse fill="#f070d1" stroke="black" cx="2599" cy="-938.72" rx="86.39" ry="18"/>
<ellipse fill="none" stroke="black" cx="2599" cy="-938.72" rx="90.39" ry="22"/>
<ellipse fill="none" stroke="black" cx="2599" cy="-938.72" rx="94.38" ry="26"/>
<text text-anchor="middle" x="2599" y="-935.02" font-family="Times,serif" font-size="14.00">fmap_pair_comp</text>
</a>
</g>
</g>
<!-- Prod_fmap_pair_comp&#45;&gt;Prod_fmap_pair -->
<g id="edge3" class="edge">
<title>Prod_fmap_pair_comp&#45;&gt;Prod_fmap_pair</title>
<path fill="none" stroke="black" d="M2578.01,-913.05C2542.71,-871.59 2471.91,-788.4 2436.77,-747.11"/>
<polygon fill="black" stroke="black" points="2439.38,-744.78 2430.23,-739.44 2434.05,-749.32 2439.38,-744.78"/>
</g>
<!-- Prod_fmap_pair_comp&#45;&gt;Prod_is1cat_prod -->
<g id="edge4" class="edge">
<title>Prod_fmap_pair_comp&#45;&gt;Prod_is1cat_prod</title>
<path fill="none" stroke="black" d="M2530.66,-920.72C2519.11,-917.97 2507.23,-915.2 2496,-912.72 2163.87,-839.08 1763.36,-762.71 1611.98,-734.28"/>
<polygon fill="black" stroke="black" points="1612.41,-730.8 1601.94,-732.39 1611.12,-737.68 1612.41,-730.8"/>
</g>
<!-- Prod_isgraph_prod -->
<g id="node27" class="node">
<title>Prod_isgraph_prod</title>
<g id="a_node27"><a xlink:href="Prod.html#isgraph_prod" xlink:title="isgraph_prod">
<ellipse fill="#f070d1" stroke="black" cx="1538" cy="-92.72" rx="71.49" ry="18"/>
<text text-anchor="middle" x="1538" y="-89.02" font-family="Times,serif" font-size="14.00">isgraph_prod</text>
</a>
</g>
</g>
<!-- Prod_fmap_pair&#45;&gt;Prod_isgraph_prod -->
<g id="edge5" class="edge">
<title>Prod_fmap_pair&#45;&gt;Prod_isgraph_prod</title>
<path fill="none" stroke="black" d="M2405.59,-703.9C2365.28,-640.1 2212.72,-410.24 2031,-283.72 1892.36,-187.18 1698.03,-131.21 1599.91,-107.4"/>
<polygon fill="black" stroke="black" points="1600.68,-103.98 1590.14,-105.06 1599.05,-110.79 1600.68,-103.98"/>
</g>
<!-- Prod_fmap11_uncurry -->
<g id="node4" class="node">
<title>Prod_fmap11_uncurry</title>
<g id="a_node4"><a xlink:href="Prod.html#fmap11_uncurry" xlink:title="fmap11_uncurry">
<ellipse fill="#f070d1" stroke="black" cx="1927" cy="-309.72" rx="87.18" ry="18"/>
<ellipse fill="none" stroke="black" cx="1927" cy="-309.72" rx="91.18" ry="22"/>
<ellipse fill="none" stroke="black" cx="1927" cy="-309.72" rx="95.18" ry="26"/>
<text text-anchor="middle" x="1927" y="-306.02" font-family="Times,serif" font-size="14.00">fmap11_uncurry</text>
</a>
</g>
</g>
<!-- Prod_fmap11_uncurry&#45;&gt;Prod_isgraph_prod -->
<g id="edge6" class="edge">
<title>Prod_fmap11_uncurry&#45;&gt;Prod_isgraph_prod</title>
<path fill="none" stroke="black" d="M1886.11,-286.11C1810.06,-244.08 1648.02,-154.52 1575.01,-114.17"/>
<polygon fill="black" stroke="black" points="1576.59,-111.05 1566.15,-109.27 1573.21,-117.17 1576.59,-111.05"/>
</g>
<!-- Prod_is1functor_prod_is1functor -->
<g id="node5" class="node">
<title>Prod_is1functor_prod_is1functor</title>
<g id="a_node5"><a xlink:href="Prod.html#is1functor_prod_is1functor" xlink:title="is1functor_prod_is1functor">
<ellipse fill="#f070d1" stroke="black" cx="2183" cy="-938.72" rx="135.69" ry="18"/>
<ellipse fill="none" stroke="black" cx="2183" cy="-938.72" rx="139.68" ry="22"/>
<ellipse fill="none" stroke="black" cx="2183" cy="-938.72" rx="143.68" ry="26"/>
<text text-anchor="middle" x="2183" y="-935.02" font-family="Times,serif" font-size="14.00">is1functor_prod_is1functor</text>
</a>
</g>
</g>
<!-- Prod_is0functor_prod_is0functor -->
<g id="node6" class="node">
<title>Prod_is0functor_prod_is0functor</title>
<g id="a_node6"><a xlink:href="Prod.html#is0functor_prod_is0functor" xlink:title="is0functor_prod_is0functor">
<ellipse fill="#f070d1" stroke="black" cx="2007" cy="-526.72" rx="135.68" ry="18"/>
<text text-anchor="middle" x="2007" y="-523.02" font-family="Times,serif" font-size="14.00">is0functor_prod_is0functor</text>
</a>
</g>
</g>
<!-- Prod_is1functor_prod_is1functor&#45;&gt;Prod_is0functor_prod_is0functor -->
<g id="edge7" class="edge">
<title>Prod_is1functor_prod_is1functor&#45;&gt;Prod_is0functor_prod_is0functor</title>
<path fill="none" stroke="black" d="M2172.26,-912.69C2141.03,-839.95 2050.51,-629.08 2018.44,-554.36"/>
<polygon fill="black" stroke="black" points="2021.47,-552.55 2014.31,-544.74 2015.04,-555.31 2021.47,-552.55"/>
</g>
<!-- Prod_is1functor_prod_is1functor&#45;&gt;Prod_is1cat_prod -->
<g id="edge8" class="edge">
<title>Prod_is1functor_prod_is1functor&#45;&gt;Prod_is1cat_prod</title>
<path fill="none" stroke="black" d="M2117.64,-915.52C1990.39,-872.3 1711.98,-777.73 1599.05,-739.38"/>
<polygon fill="black" stroke="black" points="1599.88,-735.96 1589.29,-736.06 1597.63,-742.59 1599.88,-735.96"/>
</g>
<!-- Prod_is0functor_prod_is0functor&#45;&gt;Prod_isgraph_prod -->
<g id="edge9" class="edge">
<title>Prod_is0functor_prod_is0functor&#45;&gt;Prod_isgraph_prod</title>
<path fill="none" stroke="black" d="M1986.85,-508.86C1950.49,-477.65 1873.02,-407.48 1823,-335.72 1808.34,-314.68 1814.4,-303.43 1798,-283.72 1733.98,-206.77 1632.34,-144.52 1577.01,-114.05"/>
<polygon fill="black" stroke="black" points="1578.67,-110.96 1568.22,-109.25 1575.33,-117.11 1578.67,-110.96"/>
</g>
<!-- Prod_is1functor_functor_uncurried10 -->
<g id="node7" class="node">
<title>Prod_is1functor_functor_uncurried10</title>
<g id="a_node7"><a xlink:href="Prod.html#is1functor_functor_uncurried10" xlink:title="is1functor_functor_uncurried10">
<ellipse fill="#f070d1" stroke="black" cx="1725" cy="-1177.72" rx="157.08" ry="18"/>
<ellipse fill="none" stroke="black" cx="1725" cy="-1177.72" rx="161.08" ry="22"/>
<ellipse fill="none" stroke="black" cx="1725" cy="-1177.72" rx="165.07" ry="26"/>
<text text-anchor="middle" x="1725" y="-1174.02" font-family="Times,serif" font-size="14.00">is1functor_functor_uncurried10</text>
</a>
</g>
</g>
<!-- Prod_is0functor_functor_uncurried10 -->
<g id="node8" class="node">
<title>Prod_is0functor_functor_uncurried10</title>
<g id="a_node8"><a xlink:href="Prod.html#is0functor_functor_uncurried10" xlink:title="is0functor_functor_uncurried10">
<ellipse fill="#f070d1" stroke="black" cx="1864" cy="-938.72" rx="157.07" ry="18"/>
<text text-anchor="middle" x="1864" y="-935.02" font-family="Times,serif" font-size="14.00">is0functor_functor_uncurried10</text>
</a>
</g>
</g>
<!-- Prod_is1functor_functor_uncurried10&#45;&gt;Prod_is0functor_functor_uncurried10 -->
<g id="edge10" class="edge">
<title>Prod_is1functor_functor_uncurried10&#45;&gt;Prod_is0functor_functor_uncurried10</title>
<path fill="none" stroke="black" d="M1739.61,-1151.8C1766.15,-1106.55 1822.01,-1011.3 1848.9,-965.45"/>
<polygon fill="black" stroke="black" points="1851.99,-967.11 1854.03,-956.71 1845.95,-963.57 1851.99,-967.11"/>
</g>
<!-- Prod_is1functor_prod_include10 -->
<g id="node13" class="node">
<title>Prod_is1functor_prod_include10</title>
<g id="a_node13"><a xlink:href="Prod.html#is1functor_prod_include10" xlink:title="is1functor_prod_include10">
<ellipse fill="#f070d1" stroke="black" cx="1555" cy="-938.72" rx="133.78" ry="18"/>
<text text-anchor="middle" x="1555" y="-935.02" font-family="Times,serif" font-size="14.00">is1functor_prod_include10</text>
</a>
</g>
</g>
<!-- Prod_is1functor_functor_uncurried10&#45;&gt;Prod_is1functor_prod_include10 -->
<g id="edge11" class="edge">
<title>Prod_is1functor_functor_uncurried10&#45;&gt;Prod_is1functor_prod_include10</title>
<path fill="none" stroke="black" d="M1707.13,-1151.8C1674.53,-1106.36 1605.78,-1010.51 1573.05,-964.88"/>
<polygon fill="black" stroke="black" points="1575.87,-962.8 1567.19,-956.71 1570.18,-966.88 1575.87,-962.8"/>
</g>
<!-- Prod_is0functor_prod_include10 -->
<g id="node14" class="node">
<title>Prod_is0functor_prod_include10</title>
<g id="a_node14"><a xlink:href="Prod.html#is0functor_prod_include10" xlink:title="is0functor_prod_include10">
<ellipse fill="#f070d1" stroke="black" cx="1793" cy="-721.72" rx="133.78" ry="18"/>
<text text-anchor="middle" x="1793" y="-718.02" font-family="Times,serif" font-size="14.00">is0functor_prod_include10</text>
</a>
</g>
</g>
<!-- Prod_is0functor_functor_uncurried10&#45;&gt;Prod_is0functor_prod_include10 -->
<g id="edge12" class="edge">
<title>Prod_is0functor_functor_uncurried10&#45;&gt;Prod_is0functor_prod_include10</title>
<path fill="none" stroke="black" d="M1858.31,-920.48C1845.95,-883.04 1816.56,-794.05 1801.79,-749.33"/>
<polygon fill="black" stroke="black" points="1805.08,-748.13 1798.62,-739.73 1798.43,-750.32 1805.08,-748.13"/>
</g>
<!-- Prod_is1functor_functor_uncurried01 -->
<g id="node9" class="node">
<title>Prod_is1functor_functor_uncurried01</title>
<g id="a_node9"><a xlink:href="Prod.html#is1functor_functor_uncurried01" xlink:title="is1functor_functor_uncurried01">
<ellipse fill="#f070d1" stroke="black" cx="605" cy="-1177.72" rx="157.08" ry="18"/>
<ellipse fill="none" stroke="black" cx="605" cy="-1177.72" rx="161.08" ry="22"/>
<ellipse fill="none" stroke="black" cx="605" cy="-1177.72" rx="165.07" ry="26"/>
<text text-anchor="middle" x="605" y="-1174.02" font-family="Times,serif" font-size="14.00">is1functor_functor_uncurried01</text>
</a>
</g>
</g>
<!-- Prod_is0functor_functor_uncurried01 -->
<g id="node10" class="node">
<title>Prod_is0functor_functor_uncurried01</title>
<g id="a_node10"><a xlink:href="Prod.html#is0functor_functor_uncurried01" xlink:title="is0functor_functor_uncurried01">
<ellipse fill="#f070d1" stroke="black" cx="451" cy="-938.72" rx="157.07" ry="18"/>
<text text-anchor="middle" x="451" y="-935.02" font-family="Times,serif" font-size="14.00">is0functor_functor_uncurried01</text>
</a>
</g>
</g>
<!-- Prod_is1functor_functor_uncurried01&#45;&gt;Prod_is0functor_functor_uncurried01 -->
<g id="edge13" class="edge">
<title>Prod_is1functor_functor_uncurried01&#45;&gt;Prod_is0functor_functor_uncurried01</title>
<path fill="none" stroke="black" d="M588.81,-1151.8C559.34,-1106.45 497.26,-1010.91 467.54,-965.17"/>
<polygon fill="black" stroke="black" points="470.43,-963.19 462.04,-956.71 464.56,-967.01 470.43,-963.19"/>
</g>
<!-- Prod_is1functor_prod_include01 -->
<g id="node11" class="node">
<title>Prod_is1functor_prod_include01</title>
<g id="a_node11"><a xlink:href="Prod.html#is1functor_prod_include01" xlink:title="is1functor_prod_include01">
<ellipse fill="#f070d1" stroke="black" cx="760" cy="-938.72" rx="133.78" ry="18"/>
<text text-anchor="middle" x="760" y="-935.02" font-family="Times,serif" font-size="14.00">is1functor_prod_include01</text>
</a>
</g>
</g>
<!-- Prod_is1functor_functor_uncurried01&#45;&gt;Prod_is1functor_prod_include01 -->
<g id="edge14" class="edge">
<title>Prod_is1functor_functor_uncurried01&#45;&gt;Prod_is1functor_prod_include01</title>
<path fill="none" stroke="black" d="M621.29,-1151.8C650.95,-1106.45 713.44,-1010.91 743.35,-965.17"/>
<polygon fill="black" stroke="black" points="746.34,-967 748.88,-956.71 740.48,-963.17 746.34,-967"/>
</g>
<!-- Prod_is0functor_prod_include01 -->
<g id="node12" class="node">
<title>Prod_is0functor_prod_include01</title>
<g id="a_node12"><a xlink:href="Prod.html#is0functor_prod_include01" xlink:title="is0functor_prod_include01">
<ellipse fill="#f070d1" stroke="black" cx="760" cy="-721.72" rx="133.78" ry="18"/>
<text text-anchor="middle" x="760" y="-718.02" font-family="Times,serif" font-size="14.00">is0functor_prod_include01</text>
</a>
</g>
</g>
<!-- Prod_is0functor_functor_uncurried01&#45;&gt;Prod_is0functor_prod_include01 -->
<g id="edge15" class="edge">
<title>Prod_is0functor_functor_uncurried01&#45;&gt;Prod_is0functor_prod_include01</title>
<path fill="none" stroke="black" d="M475.25,-920.84C530.41,-882.46 665.35,-788.57 727.58,-745.27"/>
<polygon fill="black" stroke="black" points="729.66,-748.09 735.87,-739.51 725.66,-742.35 729.66,-748.09"/>
</g>
<!-- Prod_is1functor_prod_include01&#45;&gt;Prod_is0functor_prod_include01 -->
<g id="edge16" class="edge">
<title>Prod_is1functor_prod_include01&#45;&gt;Prod_is0functor_prod_include01</title>
<path fill="none" stroke="black" d="M760,-920.48C760,-883.2 760,-794.8 760,-749.9"/>
<polygon fill="black" stroke="black" points="763.5,-749.73 760,-739.73 756.5,-749.73 763.5,-749.73"/>
</g>
<!-- Prod_is1functor_prod_include01&#45;&gt;Prod_is1cat_prod -->
<g id="edge17" class="edge">
<title>Prod_is1functor_prod_include01&#45;&gt;Prod_is1cat_prod</title>
<path fill="none" stroke="black" d="M816.5,-922.34C962.55,-882.59 1351.25,-776.81 1495.29,-737.6"/>
<polygon fill="black" stroke="black" points="1496.51,-740.9 1505.24,-734.9 1494.67,-734.15 1496.51,-740.9"/>
</g>
<!-- Prod_is0functor_prod_include01&#45;&gt;Prod_isgraph_prod -->
<g id="edge18" class="edge">
<title>Prod_is0functor_prod_include01&#45;&gt;Prod_isgraph_prod</title>
<path fill="none" stroke="black" d="M766.83,-703.36C793.14,-638.61 894.28,-408.46 1049,-283.72 1178.22,-179.53 1371.27,-127.39 1471.79,-106"/>
<polygon fill="black" stroke="black" points="1472.74,-109.38 1481.81,-103.9 1471.31,-102.52 1472.74,-109.38"/>
</g>
<!-- Prod_is1functor_prod_include10&#45;&gt;Prod_is0functor_prod_include10 -->
<g id="edge19" class="edge">
<title>Prod_is1functor_prod_include10&#45;&gt;Prod_is0functor_prod_include10</title>
<path fill="none" stroke="black" d="M1573.68,-920.84C1615.72,-882.87 1717.89,-790.56 1766.48,-746.67"/>
<polygon fill="black" stroke="black" points="1769.01,-749.11 1774.08,-739.81 1764.32,-743.91 1769.01,-749.11"/>
</g>
<!-- Prod_is1functor_prod_include10&#45;&gt;Prod_is1cat_prod -->
<g id="edge20" class="edge">
<title>Prod_is1functor_prod_include10&#45;&gt;Prod_is1cat_prod</title>
<path fill="none" stroke="black" d="M1554.6,-920.48C1553.73,-883.2 1551.68,-794.8 1550.63,-749.9"/>
<polygon fill="black" stroke="black" points="1554.13,-749.65 1550.4,-739.73 1547.13,-749.81 1554.13,-749.65"/>
</g>
<!-- Prod_is0functor_prod_include10&#45;&gt;Prod_isgraph_prod -->
<g id="edge21" class="edge">
<title>Prod_is0functor_prod_include10&#45;&gt;Prod_isgraph_prod</title>
<path fill="none" stroke="black" d="M1794.52,-703.62C1800.59,-632.32 1820.93,-358.93 1783,-283.72 1740.3,-199.03 1640.32,-140.92 1582.14,-112.91"/>
<polygon fill="black" stroke="black" points="1583.36,-109.62 1572.83,-108.51 1580.37,-115.95 1583.36,-109.62"/>
</g>
<!-- Prod_is1functor_equiv_prod_symm -->
<g id="node15" class="node">
<title>Prod_is1functor_equiv_prod_symm</title>
<g id="a_node15"><a xlink:href="Prod.html#is1functor_equiv_prod_symm" xlink:title="is1functor_equiv_prod_symm">
<ellipse fill="#f070d1" stroke="black" cx="1065" cy="-938.72" rx="145.67" ry="18"/>
<ellipse fill="none" stroke="black" cx="1065" cy="-938.72" rx="149.67" ry="22"/>
<ellipse fill="none" stroke="black" cx="1065" cy="-938.72" rx="153.67" ry="26"/>
<text text-anchor="middle" x="1065" y="-935.02" font-family="Times,serif" font-size="14.00">is1functor_equiv_prod_symm</text>
</a>
</g>
</g>
<!-- Prod_is0functor_equiv_prod_symm -->
<g id="node16" class="node">
<title>Prod_is0functor_equiv_prod_symm</title>
<g id="a_node16"><a xlink:href="Prod.html#is0functor_equiv_prod_symm" xlink:title="is0functor_equiv_prod_symm">
<ellipse fill="#f070d1" stroke="black" cx="1065" cy="-526.72" rx="145.67" ry="18"/>
<text text-anchor="middle" x="1065" y="-523.02" font-family="Times,serif" font-size="14.00">is0functor_equiv_prod_symm</text>
</a>
</g>
</g>
<!-- Prod_is1functor_equiv_prod_symm&#45;&gt;Prod_is0functor_equiv_prod_symm -->
<g id="edge22" class="edge">
<title>Prod_is1functor_equiv_prod_symm&#45;&gt;Prod_is0functor_equiv_prod_symm</title>
<path fill="none" stroke="black" d="M1065,-912.69C1065,-840.1 1065,-629.95 1065,-554.82"/>
<polygon fill="black" stroke="black" points="1068.5,-554.74 1065,-544.74 1061.5,-554.74 1068.5,-554.74"/>
</g>
<!-- Prod_is1functor_equiv_prod_symm&#45;&gt;Prod_is1cat_prod -->
<g id="edge23" class="edge">
<title>Prod_is1functor_equiv_prod_symm&#45;&gt;Prod_is1cat_prod</title>
<path fill="none" stroke="black" d="M1117.83,-914.3C1214.83,-871.3 1419.48,-780.57 1507.87,-741.39"/>
<polygon fill="black" stroke="black" points="1509.34,-744.57 1517.06,-737.32 1506.5,-738.17 1509.34,-744.57"/>
</g>
<!-- Prod_is0functor_equiv_prod_symm&#45;&gt;Prod_isgraph_prod -->
<g id="edge24" class="edge">
<title>Prod_is0functor_equiv_prod_symm&#45;&gt;Prod_isgraph_prod</title>
<path fill="none" stroke="black" d="M1059.98,-508.51C1048.65,-465.92 1025.76,-353.96 1075,-283.72 1164.01,-156.72 1353.98,-114.45 1460.85,-100.49"/>
<polygon fill="black" stroke="black" points="1461.44,-103.95 1470.93,-99.23 1460.57,-97 1461.44,-103.95"/>
</g>
<!-- Prod_is0functor_snd -->
<g id="node17" class="node">
<title>Prod_is0functor_snd</title>
<g id="a_node17"><a xlink:href="Prod.html#is0functor_snd" xlink:title="is0functor_snd">
<ellipse fill="#f070d1" stroke="black" cx="1355" cy="-309.72" rx="79.11" ry="18"/>
<ellipse fill="none" stroke="black" cx="1355" cy="-309.72" rx="83.1" ry="22"/>
<ellipse fill="none" stroke="black" cx="1355" cy="-309.72" rx="87.09" ry="26"/>
<text text-anchor="middle" x="1355" y="-306.02" font-family="Times,serif" font-size="14.00">is0functor_snd</text>
</a>
</g>
</g>
<!-- Prod_is0functor_snd&#45;&gt;Prod_isgraph_prod -->
<g id="edge25" class="edge">
<title>Prod_is0functor_snd&#45;&gt;Prod_isgraph_prod</title>
<path fill="none" stroke="black" d="M1375.99,-284.05C1411.29,-242.59 1482.09,-159.4 1517.23,-118.11"/>
<polygon fill="black" stroke="black" points="1519.95,-120.32 1523.77,-110.44 1514.62,-115.78 1519.95,-120.32"/>
</g>
<!-- Prod_is0functor_fst -->
<g id="node18" class="node">
<title>Prod_is0functor_fst</title>
<g id="a_node18"><a xlink:href="Prod.html#is0functor_fst" xlink:title="is0functor_fst">
<ellipse fill="#f070d1" stroke="black" cx="1167" cy="-309.72" rx="74.96" ry="18"/>
<ellipse fill="none" stroke="black" cx="1167" cy="-309.72" rx="78.98" ry="22"/>
<ellipse fill="none" stroke="black" cx="1167" cy="-309.72" rx="82.99" ry="26"/>
<text text-anchor="middle" x="1167" y="-306.02" font-family="Times,serif" font-size="14.00">is0functor_fst</text>
</a>
</g>
</g>
<!-- Prod_is0functor_fst&#45;&gt;Prod_isgraph_prod -->
<g id="edge26" class="edge">
<title>Prod_is0functor_fst&#45;&gt;Prod_isgraph_prod</title>
<path fill="none" stroke="black" d="M1205.31,-286.52C1277.24,-244.83 1431.6,-155.38 1501.85,-114.66"/>
<polygon fill="black" stroke="black" points="1503.89,-117.53 1510.79,-109.48 1500.38,-111.47 1503.89,-117.53"/>
</g>
<!-- Prod_is1functor_prod_functor -->
<g id="node19" class="node">
<title>Prod_is1functor_prod_functor</title>
<g id="a_node19"><a xlink:href="Prod.html#is1functor_prod_functor" xlink:title="is1functor_prod_functor">
<ellipse fill="#f070d1" stroke="black" cx="146" cy="-938.72" rx="122.37" ry="18"/>
<ellipse fill="none" stroke="black" cx="146" cy="-938.72" rx="126.37" ry="22"/>
<ellipse fill="none" stroke="black" cx="146" cy="-938.72" rx="130.38" ry="26"/>
<text text-anchor="middle" x="146" y="-935.02" font-family="Times,serif" font-size="14.00">is1functor_prod_functor</text>
</a>
</g>
</g>
<!-- Prod_is0functor_prod_functor -->
<g id="node20" class="node">
<title>Prod_is0functor_prod_functor</title>
<g id="a_node20"><a xlink:href="Prod.html#is0functor_prod_functor" xlink:title="is0functor_prod_functor">
<ellipse fill="#f070d1" stroke="black" cx="421" cy="-526.72" rx="122.38" ry="18"/>
<text text-anchor="middle" x="421" y="-523.02" font-family="Times,serif" font-size="14.00">is0functor_prod_functor</text>
</a>
</g>
</g>
<!-- Prod_is1functor_prod_functor&#45;&gt;Prod_is0functor_prod_functor -->
<g id="edge27" class="edge">
<title>Prod_is1functor_prod_functor&#45;&gt;Prod_is0functor_prod_functor</title>
<path fill="none" stroke="black" d="M162.79,-912.69C211.77,-839.66 354.17,-627.36 403.74,-553.45"/>
<polygon fill="black" stroke="black" points="406.91,-555 409.58,-544.74 401.1,-551.1 406.91,-555"/>
</g>
<!-- Prod_is1functor_prod_functor&#45;&gt;Prod_is1cat_prod -->
<g id="edge28" class="edge">
<title>Prod_is1functor_prod_functor&#45;&gt;Prod_is1cat_prod</title>
<path fill="none" stroke="black" d="M239.4,-920.54C254.63,-917.84 270.24,-915.15 285,-912.72 742.75,-837.19 1295.81,-758.4 1483.8,-731.97"/>
<polygon fill="black" stroke="black" points="1484.38,-735.42 1493.8,-730.57 1483.41,-728.49 1484.38,-735.42"/>
</g>
<!-- Prod_is0functor_prod_functor&#45;&gt;Prod_isgraph_prod -->
<g id="edge29" class="edge">
<title>Prod_is0functor_prod_functor&#45;&gt;Prod_isgraph_prod</title>
<path fill="none" stroke="black" d="M445.47,-509C509.24,-466.09 686.88,-350.71 849,-283.72 1069.58,-192.57 1347.64,-131.13 1472.3,-106.21"/>
<polygon fill="black" stroke="black" points="1473.31,-109.58 1482.44,-104.2 1471.95,-102.71 1473.31,-109.58"/>
</g>
<!-- Prod_isequivs_prod -->
<g id="node21" class="node">
<title>Prod_isequivs_prod</title>
<g id="a_node21"><a xlink:href="Prod.html#isequivs_prod" xlink:title="isequivs_prod">
<ellipse fill="#f070d1" stroke="black" cx="1320" cy="-1177.72" rx="74.96" ry="18"/>
<ellipse fill="none" stroke="black" cx="1320" cy="-1177.72" rx="78.98" ry="22"/>
<ellipse fill="none" stroke="black" cx="1320" cy="-1177.72" rx="82.99" ry="26"/>
<text text-anchor="middle" x="1320" y="-1174.02" font-family="Times,serif" font-size="14.00">isequivs_prod</text>
</a>
</g>
</g>
<!-- Prod_hasequivs_prod -->
<g id="node22" class="node">
<title>Prod_hasequivs_prod</title>
<g id="a_node22"><a xlink:href="Prod.html#hasequivs_prod" xlink:title="hasequivs_prod">
<ellipse fill="#f070d1" stroke="black" cx="1320" cy="-938.72" rx="83.39" ry="18"/>
<text text-anchor="middle" x="1320" y="-935.02" font-family="Times,serif" font-size="14.00">hasequivs_prod</text>
</a>
</g>
</g>
<!-- Prod_isequivs_prod&#45;&gt;Prod_hasequivs_prod -->
<g id="edge30" class="edge">
<title>Prod_isequivs_prod&#45;&gt;Prod_hasequivs_prod</title>
<path fill="none" stroke="black" d="M1320,-1151.35C1320,-1106.47 1320,-1013.43 1320,-967.12"/>
<polygon fill="black" stroke="black" points="1323.5,-966.94 1320,-956.94 1316.5,-966.94 1323.5,-966.94"/>
</g>
<!-- Prod_hasequivs_prod&#45;&gt;Prod_is1cat_prod -->
<g id="edge31" class="edge">
<title>Prod_hasequivs_prod&#45;&gt;Prod_is1cat_prod</title>
<path fill="none" stroke="black" d="M1338.05,-920.84C1378.79,-882.76 1477.99,-790.03 1524.78,-746.29"/>
<polygon fill="black" stroke="black" points="1527.44,-748.6 1532.35,-739.21 1522.66,-743.48 1527.44,-748.6"/>
</g>
<!-- Prod_is2graph_prod -->
<g id="node24" class="node">
<title>Prod_is2graph_prod</title>
<g id="a_node24"><a xlink:href="Prod.html#is2graph_prod" xlink:title="is2graph_prod">
<ellipse fill="#f070d1" stroke="black" cx="1538" cy="-309.72" rx="77.19" ry="18"/>
<text text-anchor="middle" x="1538" y="-306.02" font-family="Times,serif" font-size="14.00">is2graph_prod</text>
</a>
</g>
</g>
<!-- Prod_is1cat_prod&#45;&gt;Prod_is2graph_prod -->
<g id="edge32" class="edge">
<title>Prod_is1cat_prod&#45;&gt;Prod_is2graph_prod</title>
<path fill="none" stroke="black" d="M1549.5,-703.62C1547.64,-639.93 1541.08,-416.1 1538.8,-337.92"/>
<polygon fill="black" stroke="black" points="1542.29,-337.78 1538.5,-327.88 1535.3,-337.98 1542.29,-337.78"/>
</g>
<!-- Prod_is0gpd_prod -->
<g id="node25" class="node">
<title>Prod_is0gpd_prod</title>
<g id="a_node25"><a xlink:href="Prod.html#is0gpd_prod" xlink:title="is0gpd_prod">
<ellipse fill="#f070d1" stroke="black" cx="1665" cy="-526.72" rx="67.69" ry="18"/>
<text text-anchor="middle" x="1665" y="-523.02" font-family="Times,serif" font-size="14.00">is0gpd_prod</text>
</a>
</g>
</g>
<!-- Prod_is1cat_prod&#45;&gt;Prod_is0gpd_prod -->
<g id="edge33" class="edge">
<title>Prod_is1cat_prod&#45;&gt;Prod_is0gpd_prod</title>
<path fill="none" stroke="black" d="M1560,-703.93C1580.18,-670.06 1625.86,-593.4 1649.77,-553.28"/>
<polygon fill="black" stroke="black" points="1652.82,-554.99 1654.94,-544.6 1646.81,-551.4 1652.82,-554.99"/>
</g>
<!-- Prod_is2graph_prod&#45;&gt;Prod_isgraph_prod -->
<g id="edge34" class="edge">
<title>Prod_is2graph_prod&#45;&gt;Prod_isgraph_prod</title>
<path fill="none" stroke="black" d="M1538,-291.48C1538,-254.2 1538,-165.8 1538,-120.9"/>
<polygon fill="black" stroke="black" points="1541.5,-120.73 1538,-110.73 1534.5,-120.73 1541.5,-120.73"/>
</g>
<!-- Prod_is01cat_prod -->
<g id="node26" class="node">
<title>Prod_is01cat_prod</title>
<g id="a_node26"><a xlink:href="Prod.html#is01cat_prod" xlink:title="is01cat_prod">
<ellipse fill="#f070d1" stroke="black" cx="1704" cy="-309.72" rx="70.39" ry="18"/>
<text text-anchor="middle" x="1704" y="-306.02" font-family="Times,serif" font-size="14.00">is01cat_prod</text>
</a>
</g>
</g>
<!-- Prod_is0gpd_prod&#45;&gt;Prod_is01cat_prod -->
<g id="edge35" class="edge">
<title>Prod_is0gpd_prod&#45;&gt;Prod_is01cat_prod</title>
<path fill="none" stroke="black" d="M1668.13,-508.48C1674.9,-471.12 1690.99,-382.42 1699.12,-337.61"/>
<polygon fill="black" stroke="black" points="1702.57,-338.19 1700.91,-327.73 1695.68,-336.94 1702.57,-338.19"/>
</g>
<!-- Prod_is01cat_prod&#45;&gt;Prod_isgraph_prod -->
<g id="edge36" class="edge">
<title>Prod_is01cat_prod&#45;&gt;Prod_isgraph_prod</title>
<path fill="none" stroke="black" d="M1690.97,-291.84C1661.82,-254.09 1591.21,-162.63 1557.09,-118.44"/>
<polygon fill="black" stroke="black" points="1559.85,-116.28 1550.97,-110.51 1554.31,-120.56 1559.85,-116.28"/>
</g>
</g>
</svg>
