<?xml version="1.0" encoding="UTF-8" standalone="no"?>
<!DOCTYPE svg PUBLIC "-//W3C//DTD SVG 1.1//EN"
 "http://www.w3.org/Graphics/SVG/1.1/DTD/svg11.dtd">
<!-- Generated by graphviz version 2.43.0 (0)
 -->
<!-- Title: HoTT_Classes_theory_dec_fields Pages: 1 -->
<svg width="1214pt" height="611pt"
 viewBox="0.00 0.00 1214.00 611.00" xmlns="http://www.w3.org/2000/svg" xmlns:xlink="http://www.w3.org/1999/xlink">
<g id="graph0" class="graph" transform="scale(1 1) rotate(0) translate(4 607)">
<title>HoTT_Classes_theory_dec_fields</title>
<polygon fill="white" stroke="transparent" points="-4,4 -4,-607 1210,-607 1210,4 -4,4"/>
<g id="clust1" class="cluster">
<title>cluster_dec_fields</title>
<polygon fill="#ffffc3" stroke="black" points="8.17,-8 8.17,-595 1197.83,-595 1197.83,-8 8.17,-8"/>
<text text-anchor="middle" x="51.17" y="-579.8" font-family="Times,serif" font-size="14.00">dec_fields</text>
</g>
<!-- dec_fields_dec_recip_to_recip -->
<g id="node1" class="node">
<title>dec_fields_dec_recip_to_recip</title>
<g id="a_node1"><a xlink:href="dec_fields.html#dec_recip_to_recip" xlink:title="dec_recip_to_recip">
<ellipse fill="#f070d1" stroke="black" cx="510.01" cy="-290" rx="96.37" ry="18"/>
<ellipse fill="none" stroke="black" cx="510.01" cy="-290" rx="100.38" ry="22"/>
<ellipse fill="none" stroke="black" cx="510.01" cy="-290" rx="104.38" ry="26"/>
<text text-anchor="middle" x="510.01" y="-286.3" font-family="Times,serif" font-size="14.00">dec_recip_to_recip</text>
</a>
</g>
</g>
<!-- dec_fields_decfield_field -->
<g id="node5" class="node">
<title>dec_fields_decfield_field</title>
<g id="a_node5"><a xlink:href="dec_fields.html#decfield_field" xlink:title="decfield_field">
<ellipse fill="#f070d1" stroke="black" cx="539.01" cy="-202" rx="71.49" ry="18"/>
<text text-anchor="middle" x="539.01" y="-198.3" font-family="Times,serif" font-size="14.00">decfield_field</text>
</a>
</g>
</g>
<!-- dec_fields_dec_recip_to_recip&#45;&gt;dec_fields_decfield_field -->
<g id="edge1" class="edge">
<title>dec_fields_dec_recip_to_recip&#45;&gt;dec_fields_decfield_field</title>
<path fill="none" stroke="black" d="M518.55,-263.66C522.15,-253 526.33,-240.58 529.98,-229.77"/>
<polygon fill="black" stroke="black" points="533.39,-230.6 533.27,-220 526.76,-228.36 533.39,-230.6"/>
</g>
<!-- dec_fields_preserves_dec_recip -->
<g id="node2" class="node">
<title>dec_fields_preserves_dec_recip</title>
<g id="a_node2"><a xlink:href="dec_fields.html#preserves_dec_recip" xlink:title="preserves_dec_recip">
<ellipse fill="#f070d1" stroke="black" cx="780.01" cy="-202" rx="104.77" ry="18"/>
<ellipse fill="none" stroke="black" cx="780.01" cy="-202" rx="108.78" ry="22"/>
<ellipse fill="none" stroke="black" cx="780.01" cy="-202" rx="112.78" ry="26"/>
<text text-anchor="middle" x="780.01" y="-198.3" font-family="Times,serif" font-size="14.00">preserves_dec_recip</text>
</a>
</g>
</g>
<!-- dec_fields_dec_field_to_domain_inj -->
<g id="node3" class="node">
<title>dec_fields_dec_field_to_domain_inj</title>
<g id="a_node3"><a xlink:href="dec_fields.html#dec_field_to_domain_inj" xlink:title="dec_field_to_domain_inj">
<ellipse fill="#f070d1" stroke="black" cx="815.01" cy="-114" rx="119.68" ry="18"/>
<text text-anchor="middle" x="815.01" y="-110.3" font-family="Times,serif" font-size="14.00">dec_field_to_domain_inj</text>
</a>
</g>
</g>
<!-- dec_fields_preserves_dec_recip&#45;&gt;dec_fields_dec_field_to_domain_inj -->
<g id="edge2" class="edge">
<title>dec_fields_preserves_dec_recip&#45;&gt;dec_fields_dec_field_to_domain_inj</title>
<path fill="none" stroke="black" d="M790.32,-175.66C794.7,-164.89 799.82,-152.33 804.25,-141.44"/>
<polygon fill="black" stroke="black" points="807.56,-142.59 808.09,-132 801.08,-139.95 807.56,-142.59"/>
</g>
<!-- dec_fields_decfield_integral_domain -->
<g id="node20" class="node">
<title>dec_fields_decfield_integral_domain</title>
<g id="a_node20"><a xlink:href="dec_fields.html#decfield_integral_domain" xlink:title="decfield_integral_domain">
<ellipse fill="#f070d1" stroke="black" cx="145.01" cy="-114" rx="126.18" ry="18"/>
<text text-anchor="middle" x="145.01" y="-110.3" font-family="Times,serif" font-size="14.00">decfield_integral_domain</text>
</a>
</g>
</g>
<!-- dec_fields_preserves_dec_recip&#45;&gt;dec_fields_decfield_integral_domain -->
<g id="edge3" class="edge">
<title>dec_fields_preserves_dec_recip&#45;&gt;dec_fields_decfield_integral_domain</title>
<path fill="none" stroke="black" d="M689.85,-186.24C666.79,-182.67 642,-179.02 619.01,-176 470.98,-156.54 432.81,-161.14 285.01,-140 266.07,-137.29 245.76,-133.93 226.66,-130.56"/>
<polygon fill="black" stroke="black" points="227.25,-127.11 216.79,-128.81 226.02,-134.01 227.25,-127.11"/>
</g>
<!-- dec_fields_dec_recip_correct -->
<g id="node4" class="node">
<title>dec_fields_dec_recip_correct</title>
<g id="a_node4"><a xlink:href="dec_fields.html#dec_recip_correct" xlink:title="dec_recip_correct">
<ellipse fill="#f070d1" stroke="black" cx="736.01" cy="-290" rx="92.1" ry="18"/>
<ellipse fill="none" stroke="black" cx="736.01" cy="-290" rx="96.09" ry="22"/>
<ellipse fill="none" stroke="black" cx="736.01" cy="-290" rx="100.08" ry="26"/>
<text text-anchor="middle" x="736.01" y="-286.3" font-family="Times,serif" font-size="14.00">dec_recip_correct</text>
</a>
</g>
</g>
<!-- dec_fields_dec_recip_correct&#45;&gt;dec_fields_decfield_field -->
<g id="edge4" class="edge">
<title>dec_fields_dec_recip_correct&#45;&gt;dec_fields_decfield_field</title>
<path fill="none" stroke="black" d="M686.3,-267.3C654.41,-253.38 613.4,-235.48 582.76,-222.1"/>
<polygon fill="black" stroke="black" points="583.76,-218.72 573.19,-217.92 580.96,-225.13 583.76,-218.72"/>
</g>
<!-- dec_fields_recip_dec_field -->
<g id="node6" class="node">
<title>dec_fields_recip_dec_field</title>
<g id="a_node6"><a xlink:href="dec_fields.html#recip_dec_field" xlink:title="recip_dec_field">
<ellipse fill="#f070d1" stroke="black" cx="593.01" cy="-114" rx="79.09" ry="18"/>
<text text-anchor="middle" x="593.01" y="-110.3" font-family="Times,serif" font-size="14.00">recip_dec_field</text>
</a>
</g>
</g>
<!-- dec_fields_decfield_field&#45;&gt;dec_fields_recip_dec_field -->
<g id="edge5" class="edge">
<title>dec_fields_decfield_field&#45;&gt;dec_fields_recip_dec_field</title>
<path fill="none" stroke="black" d="M549.68,-184.01C557.44,-171.64 568.09,-154.68 576.89,-140.66"/>
<polygon fill="black" stroke="black" points="580.01,-142.29 582.36,-131.96 574.08,-138.56 580.01,-142.29"/>
</g>
<!-- dec_fields_decfield_field&#45;&gt;dec_fields_decfield_integral_domain -->
<g id="edge6" class="edge">
<title>dec_fields_decfield_field&#45;&gt;dec_fields_decfield_integral_domain</title>
<path fill="none" stroke="black" d="M486.69,-189.58C418.53,-174.7 298.9,-148.59 220.81,-131.55"/>
<polygon fill="black" stroke="black" points="221.54,-128.12 211.03,-129.41 220.05,-134.96 221.54,-128.12"/>
</g>
<!-- dec_fields_dec_recip_negate -->
<g id="node7" class="node">
<title>dec_fields_dec_recip_negate</title>
<g id="a_node7"><a xlink:href="dec_fields.html#dec_recip_negate" xlink:title="dec_recip_negate">
<ellipse fill="#f070d1" stroke="black" cx="393.01" cy="-114" rx="90.98" ry="18"/>
<ellipse fill="none" stroke="black" cx="393.01" cy="-114" rx="94.98" ry="22"/>
<ellipse fill="none" stroke="black" cx="393.01" cy="-114" rx="98.98" ry="26"/>
<text text-anchor="middle" x="393.01" y="-110.3" font-family="Times,serif" font-size="14.00">dec_recip_negate</text>
</a>
</g>
</g>
<!-- dec_fields_decfield_zero_product -->
<g id="node21" class="node">
<title>dec_fields_decfield_zero_product</title>
<g id="a_node21"><a xlink:href="dec_fields.html#decfield_zero_product" xlink:title="decfield_zero_product">
<ellipse fill="#f070d1" stroke="black" cx="727.01" cy="-34" rx="111.58" ry="18"/>
<text text-anchor="middle" x="727.01" y="-30.3" font-family="Times,serif" font-size="14.00">decfield_zero_product</text>
</a>
</g>
</g>
<!-- dec_fields_dec_recip_negate&#45;&gt;dec_fields_decfield_zero_product -->
<g id="edge7" class="edge">
<title>dec_fields_dec_recip_negate&#45;&gt;dec_fields_decfield_zero_product</title>
<path fill="none" stroke="black" d="M465.07,-96.17C521.69,-82.95 600.12,-64.63 656.38,-51.49"/>
<polygon fill="black" stroke="black" points="657.32,-54.87 666.26,-49.19 655.73,-48.05 657.32,-54.87"/>
</g>
<!-- dec_fields_dec_recip_swap_r -->
<g id="node8" class="node">
<title>dec_fields_dec_recip_swap_r</title>
<g id="a_node8"><a xlink:href="dec_fields.html#dec_recip_swap_r" xlink:title="dec_recip_swap_r">
<ellipse fill="#f070d1" stroke="black" cx="243.01" cy="-538" rx="91.77" ry="18"/>
<ellipse fill="none" stroke="black" cx="243.01" cy="-538" rx="95.78" ry="22"/>
<ellipse fill="none" stroke="black" cx="243.01" cy="-538" rx="99.78" ry="26"/>
<text text-anchor="middle" x="243.01" y="-534.3" font-family="Times,serif" font-size="14.00">dec_recip_swap_r</text>
</a>
</g>
</g>
<!-- dec_fields_dec_recip_involutive -->
<g id="node12" class="node">
<title>dec_fields_dec_recip_involutive</title>
<g id="a_node12"><a xlink:href="dec_fields.html#dec_recip_involutive" xlink:title="dec_recip_involutive">
<ellipse fill="#f070d1" stroke="black" cx="134.01" cy="-450" rx="104.78" ry="18"/>
<text text-anchor="middle" x="134.01" y="-446.3" font-family="Times,serif" font-size="14.00">dec_recip_involutive</text>
</a>
</g>
</g>
<!-- dec_fields_dec_recip_swap_r&#45;&gt;dec_fields_dec_recip_involutive -->
<g id="edge8" class="edge">
<title>dec_fields_dec_recip_swap_r&#45;&gt;dec_fields_dec_recip_involutive</title>
<path fill="none" stroke="black" d="M212.64,-513.04C197.23,-500.88 178.59,-486.18 163.33,-474.13"/>
<polygon fill="black" stroke="black" points="165.25,-471.2 155.24,-467.75 160.92,-476.69 165.25,-471.2"/>
</g>
<!-- dec_fields_dec_recip_distr -->
<g id="node18" class="node">
<title>dec_fields_dec_recip_distr</title>
<g id="a_node18"><a xlink:href="dec_fields.html#dec_recip_distr" xlink:title="dec_recip_distr">
<ellipse fill="#f070d1" stroke="black" cx="793.01" cy="-450" rx="81.49" ry="18"/>
<text text-anchor="middle" x="793.01" y="-446.3" font-family="Times,serif" font-size="14.00">dec_recip_distr</text>
</a>
</g>
</g>
<!-- dec_fields_dec_recip_swap_r&#45;&gt;dec_fields_dec_recip_distr -->
<g id="edge9" class="edge">
<title>dec_fields_dec_recip_swap_r&#45;&gt;dec_fields_dec_recip_distr</title>
<path fill="none" stroke="black" d="M335.5,-528.22C428.23,-518.58 574.82,-501.07 700.01,-476 711.92,-473.61 724.56,-470.57 736.56,-467.43"/>
<polygon fill="black" stroke="black" points="737.7,-470.75 746.45,-464.79 735.89,-463.99 737.7,-470.75"/>
</g>
<!-- dec_fields_dec_recip_swap_l -->
<g id="node9" class="node">
<title>dec_fields_dec_recip_swap_l</title>
<g id="a_node9"><a xlink:href="dec_fields.html#dec_recip_swap_l" xlink:title="dec_recip_swap_l">
<ellipse fill="#f070d1" stroke="black" cx="683.01" cy="-538" rx="90.2" ry="18"/>
<ellipse fill="none" stroke="black" cx="683.01" cy="-538" rx="94.19" ry="22"/>
<ellipse fill="none" stroke="black" cx="683.01" cy="-538" rx="98.18" ry="26"/>
<text text-anchor="middle" x="683.01" y="-534.3" font-family="Times,serif" font-size="14.00">dec_recip_swap_l</text>
</a>
</g>
</g>
<!-- dec_fields_dec_recip_swap_l&#45;&gt;dec_fields_dec_recip_involutive -->
<g id="edge10" class="edge">
<title>dec_fields_dec_recip_swap_l&#45;&gt;dec_fields_dec_recip_involutive</title>
<path fill="none" stroke="black" d="M595.03,-526.25C507.93,-515.2 370.9,-496.72 253.01,-476 237.57,-473.29 221.08,-470.04 205.44,-466.81"/>
<polygon fill="black" stroke="black" points="205.82,-463.31 195.31,-464.69 204.38,-470.16 205.82,-463.31"/>
</g>
<!-- dec_fields_dec_recip_swap_l&#45;&gt;dec_fields_dec_recip_distr -->
<g id="edge11" class="edge">
<title>dec_fields_dec_recip_swap_l&#45;&gt;dec_fields_dec_recip_distr</title>
<path fill="none" stroke="black" d="M713.65,-513.04C729.31,-500.8 748.27,-485.97 763.74,-473.88"/>
<polygon fill="black" stroke="black" points="766.2,-476.4 771.92,-467.48 761.89,-470.89 766.2,-476.4"/>
</g>
<!-- dec_fields_dec_quotients -->
<g id="node10" class="node">
<title>dec_fields_dec_quotients</title>
<g id="a_node10"><a xlink:href="dec_fields.html#dec_quotients" xlink:title="dec_quotients">
<ellipse fill="#f070d1" stroke="black" cx="1062.01" cy="-202" rx="75.3" ry="18"/>
<ellipse fill="none" stroke="black" cx="1062.01" cy="-202" rx="79.29" ry="22"/>
<ellipse fill="none" stroke="black" cx="1062.01" cy="-202" rx="83.29" ry="26"/>
<text text-anchor="middle" x="1062.01" y="-198.3" font-family="Times,serif" font-size="14.00">dec_quotients</text>
</a>
</g>
</g>
<!-- dec_fields_equal_dec_quotients -->
<g id="node11" class="node">
<title>dec_fields_equal_dec_quotients</title>
<g id="a_node11"><a xlink:href="dec_fields.html#equal_dec_quotients" xlink:title="equal_dec_quotients">
<ellipse fill="#f070d1" stroke="black" cx="1062.01" cy="-114" rx="104.78" ry="18"/>
<text text-anchor="middle" x="1062.01" y="-110.3" font-family="Times,serif" font-size="14.00">equal_dec_quotients</text>
</a>
</g>
</g>
<!-- dec_fields_dec_quotients&#45;&gt;dec_fields_equal_dec_quotients -->
<g id="edge12" class="edge">
<title>dec_fields_dec_quotients&#45;&gt;dec_fields_equal_dec_quotients</title>
<path fill="none" stroke="black" d="M1062.01,-175.66C1062.01,-165.11 1062.01,-152.84 1062.01,-142.1"/>
<polygon fill="black" stroke="black" points="1065.51,-142 1062.01,-132 1058.51,-142 1065.51,-142"/>
</g>
<!-- dec_fields_equal_dec_quotients&#45;&gt;dec_fields_decfield_zero_product -->
<g id="edge13" class="edge">
<title>dec_fields_equal_dec_quotients&#45;&gt;dec_fields_decfield_zero_product</title>
<path fill="none" stroke="black" d="M1002.5,-99.15C945.24,-85.81 858.63,-65.65 797.84,-51.49"/>
<polygon fill="black" stroke="black" points="798.47,-48.05 787.94,-49.19 796.88,-54.86 798.47,-48.05"/>
</g>
<!-- dec_fields_dec_recip_ne_0 -->
<g id="node15" class="node">
<title>dec_fields_dec_recip_ne_0</title>
<g id="a_node15"><a xlink:href="dec_fields.html#dec_recip_ne_0" xlink:title="dec_recip_ne_0">
<ellipse fill="#f070d1" stroke="black" cx="322.01" cy="-370" rx="80.69" ry="18"/>
<text text-anchor="middle" x="322.01" y="-366.3" font-family="Times,serif" font-size="14.00">dec_recip_ne_0</text>
</a>
</g>
</g>
<!-- dec_fields_dec_recip_involutive&#45;&gt;dec_fields_dec_recip_ne_0 -->
<g id="edge14" class="edge">
<title>dec_fields_dec_recip_involutive&#45;&gt;dec_fields_dec_recip_ne_0</title>
<path fill="none" stroke="black" d="M172.05,-433.22C202.1,-420.75 244.13,-403.31 276.06,-390.06"/>
<polygon fill="black" stroke="black" points="277.72,-393.16 285.62,-386.1 275.04,-386.7 277.72,-393.16"/>
</g>
<!-- dec_fields_dec_recip_inj -->
<g id="node13" class="node">
<title>dec_fields_dec_recip_inj</title>
<g id="a_node13"><a xlink:href="dec_fields.html#dec_recip_inj" xlink:title="dec_recip_inj">
<ellipse fill="#f070d1" stroke="black" cx="612.01" cy="-450" rx="70.7" ry="18"/>
<ellipse fill="none" stroke="black" cx="612.01" cy="-450" rx="74.7" ry="22"/>
<ellipse fill="none" stroke="black" cx="612.01" cy="-450" rx="78.69" ry="26"/>
<text text-anchor="middle" x="612.01" y="-446.3" font-family="Times,serif" font-size="14.00">dec_recip_inj</text>
</a>
</g>
</g>
<!-- dec_fields_dec_recip_inj&#45;&gt;dec_fields_dec_recip_ne_0 -->
<g id="edge15" class="edge">
<title>dec_fields_dec_recip_inj&#45;&gt;dec_fields_dec_recip_ne_0</title>
<path fill="none" stroke="black" d="M552.27,-432.93C502.22,-419.47 431.14,-400.35 381.23,-386.93"/>
<polygon fill="black" stroke="black" points="382.11,-383.54 371.54,-384.32 380.29,-390.3 382.11,-383.54"/>
</g>
<!-- dec_fields_equal_by_one_quotient -->
<g id="node14" class="node">
<title>dec_fields_equal_by_one_quotient</title>
<g id="a_node14"><a xlink:href="dec_fields.html#equal_by_one_quotient" xlink:title="equal_by_one_quotient">
<ellipse fill="#f070d1" stroke="black" cx="386.01" cy="-450" rx="116.19" ry="18"/>
<ellipse fill="none" stroke="black" cx="386.01" cy="-450" rx="120.18" ry="22"/>
<ellipse fill="none" stroke="black" cx="386.01" cy="-450" rx="124.18" ry="26"/>
<text text-anchor="middle" x="386.01" y="-446.3" font-family="Times,serif" font-size="14.00">equal_by_one_quotient</text>
</a>
</g>
</g>
<!-- dec_fields_equal_by_one_quotient&#45;&gt;dec_fields_dec_recip_ne_0 -->
<g id="edge16" class="edge">
<title>dec_fields_equal_by_one_quotient&#45;&gt;dec_fields_dec_recip_ne_0</title>
<path fill="none" stroke="black" d="M365.76,-424.32C358.35,-415.3 349.98,-405.09 342.55,-396.04"/>
<polygon fill="black" stroke="black" points="345.1,-393.63 336.05,-388.12 339.69,-398.07 345.1,-393.63"/>
</g>
<!-- dec_fields_dec_recip_ne_0_iff -->
<g id="node16" class="node">
<title>dec_fields_dec_recip_ne_0_iff</title>
<g id="a_node16"><a xlink:href="dec_fields.html#dec_recip_ne_0_iff" xlink:title="dec_recip_ne_0_iff">
<ellipse fill="#f070d1" stroke="black" cx="258.01" cy="-290" rx="94.48" ry="18"/>
<text text-anchor="middle" x="258.01" y="-286.3" font-family="Times,serif" font-size="14.00">dec_recip_ne_0_iff</text>
</a>
</g>
</g>
<!-- dec_fields_dec_recip_ne_0&#45;&gt;dec_fields_dec_recip_ne_0_iff -->
<g id="edge17" class="edge">
<title>dec_fields_dec_recip_ne_0&#45;&gt;dec_fields_dec_recip_ne_0_iff</title>
<path fill="none" stroke="black" d="M308.12,-352.08C299.4,-341.45 288,-327.55 278.28,-315.7"/>
<polygon fill="black" stroke="black" points="280.92,-313.4 271.87,-307.89 275.5,-317.84 280.92,-313.4"/>
</g>
<!-- dec_fields_dec_recip_zero -->
<g id="node17" class="node">
<title>dec_fields_dec_recip_zero</title>
<g id="a_node17"><a xlink:href="dec_fields.html#dec_recip_zero" xlink:title="dec_recip_zero">
<ellipse fill="#f070d1" stroke="black" cx="145.01" cy="-202" rx="79.09" ry="18"/>
<text text-anchor="middle" x="145.01" y="-198.3" font-family="Times,serif" font-size="14.00">dec_recip_zero</text>
</a>
</g>
</g>
<!-- dec_fields_dec_recip_ne_0_iff&#45;&gt;dec_fields_dec_recip_zero -->
<g id="edge18" class="edge">
<title>dec_fields_dec_recip_ne_0_iff&#45;&gt;dec_fields_dec_recip_zero</title>
<path fill="none" stroke="black" d="M236.22,-272.42C218.79,-259.15 194.16,-240.41 174.89,-225.74"/>
<polygon fill="black" stroke="black" points="176.8,-222.8 166.73,-219.53 172.57,-228.37 176.8,-222.8"/>
</g>
<!-- dec_fields_dec_recip_zero&#45;&gt;dec_fields_decfield_integral_domain -->
<g id="edge19" class="edge">
<title>dec_fields_dec_recip_zero&#45;&gt;dec_fields_decfield_integral_domain</title>
<path fill="none" stroke="black" d="M145.01,-183.6C145.01,-171.75 145.01,-155.82 145.01,-142.29"/>
<polygon fill="black" stroke="black" points="148.51,-142.08 145.01,-132.08 141.51,-142.08 148.51,-142.08"/>
</g>
<!-- dec_fields_dec_recip_distr&#45;&gt;dec_fields_decfield_zero_product -->
<g id="edge20" class="edge">
<title>dec_fields_dec_recip_distr&#45;&gt;dec_fields_decfield_zero_product</title>
<path fill="none" stroke="black" d="M853.58,-437.9C964.51,-415.82 1189.01,-362.34 1189.01,-291 1189.01,-291 1189.01,-291 1189.01,-201 1189.01,-150.45 1211.7,-123.8 1176.01,-88 1152.72,-64.64 966.47,-49.11 841.28,-41.2"/>
<polygon fill="black" stroke="black" points="841.45,-37.7 831.25,-40.57 841.01,-44.69 841.45,-37.7"/>
</g>
<!-- dec_fields_dec_recip_1 -->
<g id="node19" class="node">
<title>dec_fields_dec_recip_1</title>
<g id="a_node19"><a xlink:href="dec_fields.html#dec_recip_1" xlink:title="dec_recip_1">
<ellipse fill="#f070d1" stroke="black" cx="319.01" cy="-202" rx="64.99" ry="18"/>
<ellipse fill="none" stroke="black" cx="319.01" cy="-202" rx="68.99" ry="22"/>
<ellipse fill="none" stroke="black" cx="319.01" cy="-202" rx="72.99" ry="26"/>
<text text-anchor="middle" x="319.01" y="-198.3" font-family="Times,serif" font-size="14.00">dec_recip_1</text>
</a>
</g>
</g>
<!-- dec_fields_dec_recip_1&#45;&gt;dec_fields_decfield_integral_domain -->
<g id="edge21" class="edge">
<title>dec_fields_dec_recip_1&#45;&gt;dec_fields_decfield_integral_domain</title>
<path fill="none" stroke="black" d="M277.33,-180.4C250.17,-166.98 214.83,-149.51 187.51,-136.01"/>
<polygon fill="black" stroke="black" points="188.72,-132.7 178.2,-131.41 185.62,-138.98 188.72,-132.7"/>
</g>
<!-- dec_fields_decfield_integral_domain&#45;&gt;dec_fields_decfield_zero_product -->
<g id="edge22" class="edge">
<title>dec_fields_decfield_integral_domain&#45;&gt;dec_fields_decfield_zero_product</title>
<path fill="none" stroke="black" d="M217.54,-99.23C239.2,-95.34 263.03,-91.28 285.01,-88 401.3,-70.66 535.47,-55.21 625.2,-45.53"/>
<polygon fill="black" stroke="black" points="625.81,-48.99 635.38,-44.44 625.06,-42.03 625.81,-48.99"/>
</g>
</g>
</svg>
