<?xml version="1.0" encoding="UTF-8" standalone="no"?>
<!DOCTYPE svg PUBLIC "-//W3C//DTD SVG 1.1//EN"
 "http://www.w3.org/Graphics/SVG/1.1/DTD/svg11.dtd">
<!-- Generated by graphviz version 2.43.0 (0)
 -->
<!-- Title: HoTT_Spaces_Finite_Fin Pages: 1 -->
<svg width="3106pt" height="1557pt"
 viewBox="0.00 0.00 3106.00 1557.00" xmlns="http://www.w3.org/2000/svg" xmlns:xlink="http://www.w3.org/1999/xlink">
<g id="graph0" class="graph" transform="scale(1 1) rotate(0) translate(4 1553)">
<title>HoTT_Spaces_Finite_Fin</title>
<polygon fill="white" stroke="transparent" points="-4,4 -4,-1553 3102,-1553 3102,4 -4,4"/>
<g id="clust1" class="cluster">
<title>cluster_Fin</title>
<polygon fill="#ffffc3" stroke="black" points="8,-15.13 8,-1533.87 3090,-1533.87 3090,-15.13 8,-15.13"/>
<text text-anchor="middle" x="28" y="-1518.67" font-family="Times,serif" font-size="14.00">Fin</text>
</g>
<!-- Fin_sperners_lemma_1d -->
<g id="node1" class="node">
<title>Fin_sperners_lemma_1d</title>
<g id="a_node1"><a xlink:href="Fin.html#sperners_lemma_1d" xlink:title="sperners_lemma_1d">
<ellipse fill="#f070d1" stroke="black" cx="1949" cy="-382.13" rx="103.19" ry="18"/>
<ellipse fill="none" stroke="black" cx="1949" cy="-382.13" rx="107.19" ry="22"/>
<ellipse fill="none" stroke="black" cx="1949" cy="-382.13" rx="111.18" ry="26"/>
<text text-anchor="middle" x="1949" y="-378.43" font-family="Times,serif" font-size="14.00">sperners_lemma_1d</text>
</a>
</g>
</g>
<!-- Fin_fsucc -->
<g id="node34" class="node">
<title>Fin_fsucc</title>
<g id="a_node34"><a xlink:href="Fin.html#fsucc" xlink:title="fsucc">
<ellipse fill="#f070d1" stroke="black" cx="1686" cy="-215.13" rx="34.39" ry="18"/>
<text text-anchor="middle" x="1686" y="-211.43" font-family="Times,serif" font-size="14.00">fsucc</text>
</a>
</g>
</g>
<!-- Fin_sperners_lemma_1d&#45;&gt;Fin_fsucc -->
<g id="edge1" class="edge">
<title>Fin_sperners_lemma_1d&#45;&gt;Fin_fsucc</title>
<path fill="none" stroke="black" d="M1911.32,-357.49C1858.61,-324.42 1763.95,-265.03 1715.83,-234.85"/>
<polygon fill="black" stroke="black" points="1717.46,-231.74 1707.13,-229.39 1713.74,-237.67 1717.46,-231.74"/>
</g>
<!-- Fin_fin_incl -->
<g id="node35" class="node">
<title>Fin_fin_incl</title>
<g id="a_node35"><a xlink:href="Fin.html#fin_incl" xlink:title="fin_incl">
<ellipse fill="#f070d1" stroke="black" cx="1782" cy="-215.13" rx="43.59" ry="18"/>
<text text-anchor="middle" x="1782" y="-211.43" font-family="Times,serif" font-size="14.00">fin_incl</text>
</a>
</g>
</g>
<!-- Fin_sperners_lemma_1d&#45;&gt;Fin_fin_incl -->
<g id="edge2" class="edge">
<title>Fin_sperners_lemma_1d&#45;&gt;Fin_fin_incl</title>
<path fill="none" stroke="black" d="M1924,-356.43C1891.96,-324.77 1836.82,-270.29 1805.51,-239.36"/>
<polygon fill="black" stroke="black" points="1807.67,-236.57 1798.09,-232.03 1802.75,-241.55 1807.67,-236.57"/>
</g>
<!-- Fin_fin_last -->
<g id="node36" class="node">
<title>Fin_fin_last</title>
<g id="a_node36"><a xlink:href="Fin.html#fin_last" xlink:title="fin_last">
<ellipse fill="#f070d1" stroke="black" cx="1999" cy="-215.13" rx="44.39" ry="18"/>
<text text-anchor="middle" x="1999" y="-211.43" font-family="Times,serif" font-size="14.00">fin_last</text>
</a>
</g>
</g>
<!-- Fin_sperners_lemma_1d&#45;&gt;Fin_fin_last -->
<g id="edge3" class="edge">
<title>Fin_sperners_lemma_1d&#45;&gt;Fin_fin_last</title>
<path fill="none" stroke="black" d="M1956.59,-356.07C1965.82,-325.62 1981.33,-274.43 1990.82,-243.13"/>
<polygon fill="black" stroke="black" points="1994.24,-243.92 1993.79,-233.33 1987.54,-241.89 1994.24,-243.92"/>
</g>
<!-- Fin_fin_zero -->
<g id="node37" class="node">
<title>Fin_fin_zero</title>
<g id="a_node37"><a xlink:href="Fin.html#fin_zero" xlink:title="fin_zero">
<ellipse fill="#f070d1" stroke="black" cx="1890" cy="-215.13" rx="46.59" ry="18"/>
<text text-anchor="middle" x="1890" y="-211.43" font-family="Times,serif" font-size="14.00">fin_zero</text>
</a>
</g>
</g>
<!-- Fin_sperners_lemma_1d&#45;&gt;Fin_fin_zero -->
<g id="edge4" class="edge">
<title>Fin_sperners_lemma_1d&#45;&gt;Fin_fin_zero</title>
<path fill="none" stroke="black" d="M1940.04,-356.07C1929.15,-325.62 1910.85,-274.43 1899.65,-243.13"/>
<polygon fill="black" stroke="black" points="1902.81,-241.57 1896.15,-233.33 1896.22,-243.93 1902.81,-241.57"/>
</g>
<!-- Fin_fin_nat -->
<g id="node2" class="node">
<title>Fin_fin_nat</title>
<g id="a_node2"><a xlink:href="Fin.html#fin_nat" xlink:title="fin_nat">
<ellipse fill="#f070d1" stroke="black" cx="1761" cy="-548.13" rx="42.45" ry="18"/>
<ellipse fill="none" stroke="black" cx="1761" cy="-548.13" rx="46.47" ry="22"/>
<ellipse fill="none" stroke="black" cx="1761" cy="-548.13" rx="50.49" ry="26"/>
<text text-anchor="middle" x="1761" y="-544.43" font-family="Times,serif" font-size="14.00">fin_nat</text>
</a>
</g>
</g>
<!-- Fin_fsucc_mod -->
<g id="node3" class="node">
<title>Fin_fsucc_mod</title>
<g id="a_node3"><a xlink:href="Fin.html#fsucc_mod" xlink:title="fsucc_mod">
<ellipse fill="#f070d1" stroke="black" cx="1761" cy="-382.13" rx="59.29" ry="18"/>
<text text-anchor="middle" x="1761" y="-378.43" font-family="Times,serif" font-size="14.00">fsucc_mod</text>
</a>
</g>
</g>
<!-- Fin_fin_nat&#45;&gt;Fin_fsucc_mod -->
<g id="edge5" class="edge">
<title>Fin_fin_nat&#45;&gt;Fin_fsucc_mod</title>
<path fill="none" stroke="black" d="M1761,-521.87C1761,-491.64 1761,-441.26 1761,-410.24"/>
<polygon fill="black" stroke="black" points="1764.5,-410.15 1761,-400.15 1757.5,-410.15 1764.5,-410.15"/>
</g>
<!-- Fin_fsucc_mod&#45;&gt;Fin_fsucc -->
<g id="edge6" class="edge">
<title>Fin_fsucc_mod&#45;&gt;Fin_fsucc</title>
<path fill="none" stroke="black" d="M1753.26,-364.09C1740.11,-335.17 1713.34,-276.27 1697.83,-242.15"/>
<polygon fill="black" stroke="black" points="1700.91,-240.48 1693.59,-232.83 1694.54,-243.38 1700.91,-240.48"/>
</g>
<!-- Fin_fsucc_mod&#45;&gt;Fin_fin_zero -->
<g id="edge7" class="edge">
<title>Fin_fsucc_mod&#45;&gt;Fin_fin_zero</title>
<path fill="none" stroke="black" d="M1774.08,-364.4C1796.87,-335.25 1843.98,-275 1870.59,-240.96"/>
<polygon fill="black" stroke="black" points="1873.48,-242.94 1876.89,-232.9 1867.97,-238.63 1873.48,-242.94"/>
</g>
<!-- Fin_nat_fin_compl_compl -->
<g id="node4" class="node">
<title>Fin_nat_fin_compl_compl</title>
<g id="a_node4"><a xlink:href="Fin.html#nat_fin_compl_compl" xlink:title="nat_fin_compl_compl">
<ellipse fill="#f070d1" stroke="black" cx="2967" cy="-382.13" rx="106.67" ry="18"/>
<ellipse fill="none" stroke="black" cx="2967" cy="-382.13" rx="110.68" ry="22"/>
<ellipse fill="none" stroke="black" cx="2967" cy="-382.13" rx="114.68" ry="26"/>
<text text-anchor="middle" x="2967" y="-378.43" font-family="Times,serif" font-size="14.00">nat_fin_compl_compl</text>
</a>
</g>
</g>
<!-- Fin_nat_fin_compl -->
<g id="node5" class="node">
<title>Fin_nat_fin_compl</title>
<g id="a_node5"><a xlink:href="Fin.html#nat_fin_compl" xlink:title="nat_fin_compl">
<ellipse fill="#f070d1" stroke="black" cx="2935" cy="-215.13" rx="74.19" ry="18"/>
<text text-anchor="middle" x="2935" y="-211.43" font-family="Times,serif" font-size="14.00">nat_fin_compl</text>
</a>
</g>
</g>
<!-- Fin_nat_fin_compl_compl&#45;&gt;Fin_nat_fin_compl -->
<g id="edge8" class="edge">
<title>Fin_nat_fin_compl_compl&#45;&gt;Fin_nat_fin_compl</title>
<path fill="none" stroke="black" d="M2962.14,-356.07C2956.26,-325.75 2946.39,-274.87 2940.31,-243.54"/>
<polygon fill="black" stroke="black" points="2943.68,-242.48 2938.34,-233.33 2936.8,-243.81 2943.68,-242.48"/>
</g>
<!-- Fin_nat_fin -->
<g id="node7" class="node">
<title>Fin_nat_fin</title>
<g id="a_node7"><a xlink:href="Fin.html#nat_fin" xlink:title="nat_fin">
<ellipse fill="#f070d1" stroke="black" cx="2769" cy="-215.13" rx="42.49" ry="18"/>
<text text-anchor="middle" x="2769" y="-211.43" font-family="Times,serif" font-size="14.00">nat_fin</text>
</a>
</g>
</g>
<!-- Fin_nat_fin_compl_compl&#45;&gt;Fin_nat_fin -->
<g id="edge9" class="edge">
<title>Fin_nat_fin_compl_compl&#45;&gt;Fin_nat_fin</title>
<path fill="none" stroke="black" d="M2937.78,-356.78C2899.28,-324.7 2832.12,-268.73 2795.19,-237.96"/>
<polygon fill="black" stroke="black" points="2797.28,-235.14 2787.36,-231.43 2792.8,-240.52 2797.28,-235.14"/>
</g>
<!-- Fin_Fin -->
<g id="node43" class="node">
<title>Fin_Fin</title>
<g id="a_node43"><a xlink:href="Fin.html#Fin" xlink:title="Fin">
<ellipse fill="#f070d1" stroke="black" cx="1734" cy="-64.13" rx="27" ry="18"/>
<text text-anchor="middle" x="1734" y="-60.43" font-family="Times,serif" font-size="14.00">Fin</text>
</a>
</g>
</g>
<!-- Fin_nat_fin_compl&#45;&gt;Fin_Fin -->
<g id="edge10" class="edge">
<title>Fin_nat_fin_compl&#45;&gt;Fin_Fin</title>
<path fill="none" stroke="black" d="M2884.26,-201.95C2864.32,-197.47 2841.17,-192.63 2820,-189.13 2411.27,-121.54 1909.87,-79.05 1771.1,-68.01"/>
<polygon fill="black" stroke="black" points="1771.25,-64.51 1761.01,-67.21 1770.7,-71.49 1771.25,-64.51"/>
</g>
<!-- Fin_nat_fin_inl -->
<g id="node6" class="node">
<title>Fin_nat_fin_inl</title>
<g id="a_node6"><a xlink:href="Fin.html#nat_fin_inl" xlink:title="nat_fin_inl">
<ellipse fill="#f070d1" stroke="black" cx="2769" cy="-382.13" rx="57.71" ry="18"/>
<ellipse fill="none" stroke="black" cx="2769" cy="-382.13" rx="61.7" ry="22"/>
<ellipse fill="none" stroke="black" cx="2769" cy="-382.13" rx="65.69" ry="26"/>
<text text-anchor="middle" x="2769" y="-378.43" font-family="Times,serif" font-size="14.00">nat_fin_inl</text>
</a>
</g>
</g>
<!-- Fin_nat_fin_inl&#45;&gt;Fin_nat_fin -->
<g id="edge11" class="edge">
<title>Fin_nat_fin_inl&#45;&gt;Fin_nat_fin</title>
<path fill="none" stroke="black" d="M2769,-356.07C2769,-325.75 2769,-274.87 2769,-243.54"/>
<polygon fill="black" stroke="black" points="2772.5,-243.33 2769,-233.33 2765.5,-243.33 2772.5,-243.33"/>
</g>
<!-- Fin_nat_fin&#45;&gt;Fin_Fin -->
<g id="edge12" class="edge">
<title>Fin_nat_fin&#45;&gt;Fin_Fin</title>
<path fill="none" stroke="black" d="M2729.69,-208.47C2564.73,-184.72 1929.61,-93.29 1770.37,-70.37"/>
<polygon fill="black" stroke="black" points="1770.56,-66.86 1760.16,-68.9 1769.56,-73.79 1770.56,-66.86"/>
</g>
<!-- Fin_nat_eq_fin_equiv -->
<g id="node8" class="node">
<title>Fin_nat_eq_fin_equiv</title>
<g id="a_node8"><a xlink:href="Fin.html#nat_eq_fin_equiv" xlink:title="nat_eq_fin_equiv">
<ellipse fill="#f070d1" stroke="black" cx="357" cy="-1123.13" rx="87.18" ry="18"/>
<ellipse fill="none" stroke="black" cx="357" cy="-1123.13" rx="91.18" ry="22"/>
<ellipse fill="none" stroke="black" cx="357" cy="-1123.13" rx="95.18" ry="26"/>
<text text-anchor="middle" x="357" y="-1119.43" font-family="Times,serif" font-size="14.00">nat_eq_fin_equiv</text>
</a>
</g>
</g>
<!-- Fin_fin_equiv_inv -->
<g id="node14" class="node">
<title>Fin_fin_equiv_inv</title>
<g id="a_node14"><a xlink:href="Fin.html#fin_equiv_inv" xlink:title="fin_equiv_inv">
<ellipse fill="#f070d1" stroke="black" cx="308" cy="-972.13" rx="70.69" ry="18"/>
<text text-anchor="middle" x="308" y="-968.43" font-family="Times,serif" font-size="14.00">fin_equiv_inv</text>
</a>
</g>
</g>
<!-- Fin_nat_eq_fin_equiv&#45;&gt;Fin_fin_equiv_inv -->
<g id="edge13" class="edge">
<title>Fin_nat_eq_fin_equiv&#45;&gt;Fin_fin_equiv_inv</title>
<path fill="none" stroke="black" d="M348.8,-1097.19C339.96,-1070.3 325.93,-1027.66 316.85,-1000.03"/>
<polygon fill="black" stroke="black" points="320.08,-998.65 313.63,-990.24 313.43,-1000.84 320.08,-998.65"/>
</g>
<!-- Fin_equiv_fin_equiv -->
<g id="node9" class="node">
<title>Fin_equiv_fin_equiv</title>
<g id="a_node9"><a xlink:href="Fin.html#equiv_fin_equiv" xlink:title="equiv_fin_equiv">
<ellipse fill="#f070d1" stroke="black" cx="161" cy="-1426.13" rx="81.8" ry="18"/>
<ellipse fill="none" stroke="black" cx="161" cy="-1426.13" rx="85.79" ry="22"/>
<ellipse fill="none" stroke="black" cx="161" cy="-1426.13" rx="89.79" ry="26"/>
<text text-anchor="middle" x="161" y="-1422.43" font-family="Times,serif" font-size="14.00">equiv_fin_equiv</text>
</a>
</g>
</g>
<!-- Fin_isequiv_fin_equiv -->
<g id="node10" class="node">
<title>Fin_isequiv_fin_equiv</title>
<g id="a_node10"><a xlink:href="Fin.html#isequiv_fin_equiv" xlink:title="isequiv_fin_equiv">
<ellipse fill="#f070d1" stroke="black" cx="161" cy="-1275.13" rx="89.88" ry="18"/>
<text text-anchor="middle" x="161" y="-1271.43" font-family="Times,serif" font-size="14.00">isequiv_fin_equiv</text>
</a>
</g>
</g>
<!-- Fin_equiv_fin_equiv&#45;&gt;Fin_isequiv_fin_equiv -->
<g id="edge14" class="edge">
<title>Fin_equiv_fin_equiv&#45;&gt;Fin_isequiv_fin_equiv</title>
<path fill="none" stroke="black" d="M161,-1399.85C161,-1373.03 161,-1330.79 161,-1303.27"/>
<polygon fill="black" stroke="black" points="164.5,-1303.16 161,-1293.16 157.5,-1303.16 164.5,-1303.16"/>
</g>
<!-- Fin_fin_equiv_inj_snd -->
<g id="node11" class="node">
<title>Fin_fin_equiv_inj_snd</title>
<g id="a_node11"><a xlink:href="Fin.html#fin_equiv_inj_snd" xlink:title="fin_equiv_inj_snd">
<ellipse fill="#f070d1" stroke="black" cx="421" cy="-700.13" rx="89.08" ry="18"/>
<text text-anchor="middle" x="421" y="-696.43" font-family="Times,serif" font-size="14.00">fin_equiv_inj_snd</text>
</a>
</g>
</g>
<!-- Fin_isequiv_fin_equiv&#45;&gt;Fin_fin_equiv_inj_snd -->
<g id="edge15" class="edge">
<title>Fin_isequiv_fin_equiv&#45;&gt;Fin_fin_equiv_inj_snd</title>
<path fill="none" stroke="black" d="M237.83,-1265.75C309.19,-1253.44 411.63,-1223.19 461,-1149.13 551.37,-1013.58 467.87,-801.42 433.88,-727.55"/>
<polygon fill="black" stroke="black" points="437.03,-726.02 429.62,-718.45 430.7,-728.99 437.03,-726.02"/>
</g>
<!-- Fin_fin_equiv_inj_fst -->
<g id="node12" class="node">
<title>Fin_fin_equiv_inj_fst</title>
<g id="a_node12"><a xlink:href="Fin.html#fin_equiv_inj_fst" xlink:title="fin_equiv_inj_fst">
<ellipse fill="#f070d1" stroke="black" cx="101" cy="-700.13" rx="85.29" ry="18"/>
<text text-anchor="middle" x="101" y="-696.43" font-family="Times,serif" font-size="14.00">fin_equiv_inj_fst</text>
</a>
</g>
</g>
<!-- Fin_isequiv_fin_equiv&#45;&gt;Fin_fin_equiv_inj_fst -->
<g id="edge16" class="edge">
<title>Fin_isequiv_fin_equiv&#45;&gt;Fin_fin_equiv_inj_fst</title>
<path fill="none" stroke="black" d="M142.84,-1257.2C120.44,-1234.93 83.54,-1193.42 69,-1149.13 18.91,-996.57 70.11,-799.56 92.06,-728.33"/>
<polygon fill="black" stroke="black" points="95.53,-728.97 95.19,-718.38 88.85,-726.87 95.53,-728.97"/>
</g>
<!-- Fin_fin_equiv_issect -->
<g id="node13" class="node">
<title>Fin_fin_equiv_issect</title>
<g id="a_node13"><a xlink:href="Fin.html#fin_equiv_issect" xlink:title="fin_equiv_issect">
<ellipse fill="#f070d1" stroke="black" cx="161" cy="-1123.13" rx="83.39" ry="18"/>
<text text-anchor="middle" x="161" y="-1119.43" font-family="Times,serif" font-size="14.00">fin_equiv_issect</text>
</a>
</g>
</g>
<!-- Fin_isequiv_fin_equiv&#45;&gt;Fin_fin_equiv_issect -->
<g id="edge17" class="edge">
<title>Fin_isequiv_fin_equiv&#45;&gt;Fin_fin_equiv_issect</title>
<path fill="none" stroke="black" d="M161,-1256.92C161,-1231.04 161,-1181.86 161,-1151.16"/>
<polygon fill="black" stroke="black" points="164.5,-1151.14 161,-1141.14 157.5,-1151.14 164.5,-1151.14"/>
</g>
<!-- Fin_fin_equiv -->
<g id="node17" class="node">
<title>Fin_fin_equiv</title>
<g id="a_node17"><a xlink:href="Fin.html#fin_equiv" xlink:title="fin_equiv">
<ellipse fill="#f070d1" stroke="black" cx="68" cy="-548.13" rx="51.99" ry="18"/>
<text text-anchor="middle" x="68" y="-544.43" font-family="Times,serif" font-size="14.00">fin_equiv</text>
</a>
</g>
</g>
<!-- Fin_fin_equiv_inj_snd&#45;&gt;Fin_fin_equiv -->
<g id="edge18" class="edge">
<title>Fin_fin_equiv_inj_snd&#45;&gt;Fin_fin_equiv</title>
<path fill="none" stroke="black" d="M384.55,-683.64C318.27,-655.48 178.42,-596.05 108.95,-566.53"/>
<polygon fill="black" stroke="black" points="110.2,-563.26 99.63,-562.57 107.47,-569.7 110.2,-563.26"/>
</g>
<!-- Fin_fin_transpose_last_with_last -->
<g id="node22" class="node">
<title>Fin_fin_transpose_last_with_last</title>
<g id="a_node22"><a xlink:href="Fin.html#fin_transpose_last_with_last" xlink:title="fin_transpose_last_with_last">
<ellipse fill="#f070d1" stroke="black" cx="278" cy="-548.13" rx="140.28" ry="18"/>
<text text-anchor="middle" x="278" y="-544.43" font-family="Times,serif" font-size="14.00">fin_transpose_last_with_last</text>
</a>
</g>
</g>
<!-- Fin_fin_equiv_inj_snd&#45;&gt;Fin_fin_transpose_last_with_last -->
<g id="edge19" class="edge">
<title>Fin_fin_equiv_inj_snd&#45;&gt;Fin_fin_transpose_last_with_last</title>
<path fill="none" stroke="black" d="M404.87,-682.22C379.56,-655.66 330.37,-604.06 301.23,-573.5"/>
<polygon fill="black" stroke="black" points="303.72,-571.04 294.29,-566.21 298.65,-575.87 303.72,-571.04"/>
</g>
<!-- Fin_fin_equiv_inj_fst&#45;&gt;Fin_fin_equiv -->
<g id="edge20" class="edge">
<title>Fin_fin_equiv_inj_fst&#45;&gt;Fin_fin_equiv</title>
<path fill="none" stroke="black" d="M97.21,-681.92C91.52,-656.04 80.7,-606.86 73.95,-576.16"/>
<polygon fill="black" stroke="black" points="77.31,-575.15 71.74,-566.14 70.47,-576.66 77.31,-575.15"/>
</g>
<!-- Fin_fin_equiv_inj_fst&#45;&gt;Fin_fin_transpose_last_with_last -->
<g id="edge21" class="edge">
<title>Fin_fin_equiv_inj_fst&#45;&gt;Fin_fin_transpose_last_with_last</title>
<path fill="none" stroke="black" d="M120.62,-682.5C152.17,-655.77 214.27,-603.14 250.32,-572.59"/>
<polygon fill="black" stroke="black" points="252.66,-575.2 258.02,-566.06 248.13,-569.86 252.66,-575.2"/>
</g>
<!-- Fin_fin_equiv_issect&#45;&gt;Fin_fin_equiv_inv -->
<g id="edge22" class="edge">
<title>Fin_fin_equiv_issect&#45;&gt;Fin_fin_equiv_inv</title>
<path fill="none" stroke="black" d="M177.58,-1105.33C203.6,-1078.95 254.17,-1027.7 284.12,-997.34"/>
<polygon fill="black" stroke="black" points="286.73,-999.68 291.26,-990.1 281.74,-994.76 286.73,-999.68"/>
</g>
<!-- Fin_fin_equiv_hfiber -->
<g id="node15" class="node">
<title>Fin_fin_equiv_hfiber</title>
<g id="a_node15"><a xlink:href="Fin.html#fin_equiv_hfiber" xlink:title="fin_equiv_hfiber">
<ellipse fill="#f070d1" stroke="black" cx="308" cy="-836.13" rx="83.69" ry="18"/>
<text text-anchor="middle" x="308" y="-832.43" font-family="Times,serif" font-size="14.00">fin_equiv_hfiber</text>
</a>
</g>
</g>
<!-- Fin_fin_equiv_inv&#45;&gt;Fin_fin_equiv_hfiber -->
<g id="edge23" class="edge">
<title>Fin_fin_equiv_inv&#45;&gt;Fin_fin_equiv_hfiber</title>
<path fill="none" stroke="black" d="M308,-953.89C308,-931.27 308,-891.33 308,-864.55"/>
<polygon fill="black" stroke="black" points="311.5,-864.31 308,-854.31 304.5,-864.31 311.5,-864.31"/>
</g>
<!-- Fin_fin_equiv_ -->
<g id="node16" class="node">
<title>Fin_fin_equiv_</title>
<g id="a_node16"><a xlink:href="Fin.html#fin_equiv'" xlink:title="fin_equiv&#39;">
<ellipse fill="#f070d1" stroke="black" cx="259" cy="-700.13" rx="54.69" ry="18"/>
<text text-anchor="middle" x="259" y="-696.43" font-family="Times,serif" font-size="14.00">fin_equiv&#39;</text>
</a>
</g>
</g>
<!-- Fin_fin_equiv_hfiber&#45;&gt;Fin_fin_equiv_ -->
<g id="edge24" class="edge">
<title>Fin_fin_equiv_hfiber&#45;&gt;Fin_fin_equiv_</title>
<path fill="none" stroke="black" d="M301.79,-818.16C293.48,-795.43 278.64,-754.85 268.81,-727.96"/>
<polygon fill="black" stroke="black" points="272.03,-726.58 265.31,-718.39 265.46,-728.98 272.03,-726.58"/>
</g>
<!-- Fin_fin_transpose_last_with_invol -->
<g id="node18" class="node">
<title>Fin_fin_transpose_last_with_invol</title>
<g id="a_node18"><a xlink:href="Fin.html#fin_transpose_last_with_invol" xlink:title="fin_transpose_last_with_invol">
<ellipse fill="#f070d1" stroke="black" cx="804" cy="-700.13" rx="145.67" ry="18"/>
<text text-anchor="middle" x="804" y="-696.43" font-family="Times,serif" font-size="14.00">fin_transpose_last_with_invol</text>
</a>
</g>
</g>
<!-- Fin_fin_equiv_hfiber&#45;&gt;Fin_fin_transpose_last_with_invol -->
<g id="edge25" class="edge">
<title>Fin_fin_equiv_hfiber&#45;&gt;Fin_fin_transpose_last_with_invol</title>
<path fill="none" stroke="black" d="M358.29,-821.54C448.03,-797.3 635.77,-746.58 736.58,-719.34"/>
<polygon fill="black" stroke="black" points="737.61,-722.69 746.36,-716.7 735.79,-715.93 737.61,-722.69"/>
</g>
<!-- Fin_fin_equiv_&#45;&gt;Fin_fin_equiv -->
<g id="edge26" class="edge">
<title>Fin_fin_equiv_&#45;&gt;Fin_fin_equiv</title>
<path fill="none" stroke="black" d="M238.92,-683.36C204.82,-656.58 135.48,-602.13 96.41,-571.44"/>
<polygon fill="black" stroke="black" points="98.12,-568.34 88.1,-564.91 93.8,-573.84 98.12,-568.34"/>
</g>
<!-- Fin_fin_transpose_last_with -->
<g id="node23" class="node">
<title>Fin_fin_transpose_last_with</title>
<g id="a_node23"><a xlink:href="Fin.html#fin_transpose_last_with" xlink:title="fin_transpose_last_with">
<ellipse fill="#f070d1" stroke="black" cx="791" cy="-382.13" rx="118.88" ry="18"/>
<text text-anchor="middle" x="791" y="-378.43" font-family="Times,serif" font-size="14.00">fin_transpose_last_with</text>
</a>
</g>
</g>
<!-- Fin_fin_equiv&#45;&gt;Fin_fin_transpose_last_with -->
<g id="edge27" class="edge">
<title>Fin_fin_equiv&#45;&gt;Fin_fin_transpose_last_with</title>
<path fill="none" stroke="black" d="M98.32,-533.43C107.99,-529.41 118.82,-525.26 129,-522.13 184.46,-505.1 548.76,-431.54 712.05,-398.87"/>
<polygon fill="black" stroke="black" points="712.92,-402.26 722.04,-396.87 711.55,-395.4 712.92,-402.26"/>
</g>
<!-- Fin_fin_transpose_last_with_last_other -->
<g id="node19" class="node">
<title>Fin_fin_transpose_last_with_last_other</title>
<g id="a_node19"><a xlink:href="Fin.html#fin_transpose_last_with_last_other" xlink:title="fin_transpose_last_with_last_other">
<ellipse fill="#f070d1" stroke="black" cx="606" cy="-548.13" rx="169.77" ry="18"/>
<text text-anchor="middle" x="606" y="-544.43" font-family="Times,serif" font-size="14.00">fin_transpose_last_with_last_other</text>
</a>
</g>
</g>
<!-- Fin_fin_transpose_last_with_invol&#45;&gt;Fin_fin_transpose_last_with_last_other -->
<g id="edge28" class="edge">
<title>Fin_fin_transpose_last_with_invol&#45;&gt;Fin_fin_transpose_last_with_last_other</title>
<path fill="none" stroke="black" d="M781.67,-682.22C746.08,-655.25 676.4,-602.47 636.33,-572.11"/>
<polygon fill="black" stroke="black" points="638.33,-569.23 628.25,-565.98 634.1,-574.81 638.33,-569.23"/>
</g>
<!-- Fin_fin_transpose_last_with_rest -->
<g id="node20" class="node">
<title>Fin_fin_transpose_last_with_rest</title>
<g id="a_node20"><a xlink:href="Fin.html#fin_transpose_last_with_rest" xlink:title="fin_transpose_last_with_rest">
<ellipse fill="#f070d1" stroke="black" cx="935" cy="-548.13" rx="141.88" ry="18"/>
<text text-anchor="middle" x="935" y="-544.43" font-family="Times,serif" font-size="14.00">fin_transpose_last_with_rest</text>
</a>
</g>
</g>
<!-- Fin_fin_transpose_last_with_invol&#45;&gt;Fin_fin_transpose_last_with_rest -->
<g id="edge29" class="edge">
<title>Fin_fin_transpose_last_with_invol&#45;&gt;Fin_fin_transpose_last_with_rest</title>
<path fill="none" stroke="black" d="M818.77,-682.22C841.87,-655.77 886.65,-604.5 913.38,-573.89"/>
<polygon fill="black" stroke="black" points="916.14,-576.05 920.08,-566.21 910.87,-571.44 916.14,-576.05"/>
</g>
<!-- Fin_fin_transpose_last_with_with -->
<g id="node21" class="node">
<title>Fin_fin_transpose_last_with_with</title>
<g id="a_node21"><a xlink:href="Fin.html#fin_transpose_last_with_with" xlink:title="fin_transpose_last_with_with">
<ellipse fill="#f070d1" stroke="black" cx="1238" cy="-548.13" rx="143.77" ry="18"/>
<text text-anchor="middle" x="1238" y="-544.43" font-family="Times,serif" font-size="14.00">fin_transpose_last_with_with</text>
</a>
</g>
</g>
<!-- Fin_fin_transpose_last_with_invol&#45;&gt;Fin_fin_transpose_last_with_with -->
<g id="edge30" class="edge">
<title>Fin_fin_transpose_last_with_invol&#45;&gt;Fin_fin_transpose_last_with_with</title>
<path fill="none" stroke="black" d="M850.86,-682.94C931.27,-655.14 1095.21,-598.48 1181.69,-568.59"/>
<polygon fill="black" stroke="black" points="1183.03,-571.83 1191.34,-565.26 1180.74,-565.22 1183.03,-571.83"/>
</g>
<!-- Fin_fin_transpose_last_with_invol&#45;&gt;Fin_fin_transpose_last_with_last -->
<g id="edge31" class="edge">
<title>Fin_fin_transpose_last_with_invol&#45;&gt;Fin_fin_transpose_last_with_last</title>
<path fill="none" stroke="black" d="M748.7,-683.36C650.71,-655.42 447.09,-597.35 342.73,-567.59"/>
<polygon fill="black" stroke="black" points="343.53,-564.18 332.95,-564.8 341.61,-570.91 343.53,-564.18"/>
</g>
<!-- Fin_decidablepaths_fin -->
<g id="node40" class="node">
<title>Fin_decidablepaths_fin</title>
<g id="a_node40"><a xlink:href="Fin.html#decidablepaths_fin" xlink:title="decidablepaths_fin">
<ellipse fill="#f070d1" stroke="black" cx="1365" cy="-215.13" rx="96.68" ry="18"/>
<text text-anchor="middle" x="1365" y="-211.43" font-family="Times,serif" font-size="14.00">decidablepaths_fin</text>
</a>
</g>
</g>
<!-- Fin_fin_transpose_last_with_invol&#45;&gt;Fin_decidablepaths_fin -->
<g id="edge32" class="edge">
<title>Fin_fin_transpose_last_with_invol&#45;&gt;Fin_decidablepaths_fin</title>
<path fill="none" stroke="black" d="M927.87,-690.62C1082.56,-677.11 1333.88,-644.69 1391,-574.13 1459.12,-489.98 1280.2,-473.18 1249,-408.13 1218.39,-344.3 1289.74,-274.31 1333.69,-239.09"/>
<polygon fill="black" stroke="black" points="1336.1,-241.65 1341.81,-232.72 1331.78,-236.14 1336.1,-241.65"/>
</g>
<!-- Fin_fin_transpose_last_with_last_other&#45;&gt;Fin_fin_transpose_last_with -->
<g id="edge33" class="edge">
<title>Fin_fin_transpose_last_with_last_other&#45;&gt;Fin_fin_transpose_last_with</title>
<path fill="none" stroke="black" d="M625.1,-530.2C658.28,-500.78 726.64,-440.19 764.43,-406.69"/>
<polygon fill="black" stroke="black" points="766.84,-409.22 772,-399.97 762.2,-403.99 766.84,-409.22"/>
</g>
<!-- Fin_fin_transpose_last_with_rest&#45;&gt;Fin_fin_transpose_last_with -->
<g id="edge34" class="edge">
<title>Fin_fin_transpose_last_with_rest&#45;&gt;Fin_fin_transpose_last_with</title>
<path fill="none" stroke="black" d="M920.13,-530.2C894.59,-501.1 842.26,-441.51 812.66,-407.8"/>
<polygon fill="black" stroke="black" points="815.23,-405.42 806,-400.22 809.97,-410.04 815.23,-405.42"/>
</g>
<!-- Fin_fin_transpose_last_with_with&#45;&gt;Fin_fin_transpose_last_with -->
<g id="edge35" class="edge">
<title>Fin_fin_transpose_last_with_with&#45;&gt;Fin_fin_transpose_last_with</title>
<path fill="none" stroke="black" d="M1193.92,-530.96C1111.12,-500.58 932.71,-435.12 843.72,-402.47"/>
<polygon fill="black" stroke="black" points="844.69,-399.1 834.1,-398.94 842.28,-405.67 844.69,-399.1"/>
</g>
<!-- Fin_fin_transpose_last_with_last&#45;&gt;Fin_fin_transpose_last_with -->
<g id="edge36" class="edge">
<title>Fin_fin_transpose_last_with_last&#45;&gt;Fin_fin_transpose_last_with</title>
<path fill="none" stroke="black" d="M327.65,-531.26C422.93,-500.8 630.93,-434.3 732.64,-401.79"/>
<polygon fill="black" stroke="black" points="733.99,-405.03 742.44,-398.65 731.85,-398.36 733.99,-405.03"/>
</g>
<!-- Fin_fin_transpose_last_two -->
<g id="node27" class="node">
<title>Fin_fin_transpose_last_two</title>
<g id="a_node27"><a xlink:href="Fin.html#fin_transpose_last_two" xlink:title="fin_transpose_last_two">
<ellipse fill="#f070d1" stroke="black" cx="1104" cy="-215.13" rx="115.88" ry="18"/>
<text text-anchor="middle" x="1104" y="-211.43" font-family="Times,serif" font-size="14.00">fin_transpose_last_two</text>
</a>
</g>
</g>
<!-- Fin_fin_transpose_last_with&#45;&gt;Fin_fin_transpose_last_two -->
<g id="edge37" class="edge">
<title>Fin_fin_transpose_last_with&#45;&gt;Fin_fin_transpose_last_two</title>
<path fill="none" stroke="black" d="M822.16,-364.71C879.34,-334.56 1000.96,-270.45 1064.09,-237.17"/>
<polygon fill="black" stroke="black" points="1065.76,-240.25 1072.97,-232.49 1062.49,-234.06 1065.76,-240.25"/>
</g>
<!-- Fin_fin_transpose_last_two_rest -->
<g id="node24" class="node">
<title>Fin_fin_transpose_last_two_rest</title>
<g id="a_node24"><a xlink:href="Fin.html#fin_transpose_last_two_rest" xlink:title="fin_transpose_last_two_rest">
<ellipse fill="#f070d1" stroke="black" cx="1074" cy="-382.13" rx="138.38" ry="18"/>
<ellipse fill="none" stroke="black" cx="1074" cy="-382.13" rx="142.38" ry="22"/>
<ellipse fill="none" stroke="black" cx="1074" cy="-382.13" rx="146.38" ry="26"/>
<text text-anchor="middle" x="1074" y="-378.43" font-family="Times,serif" font-size="14.00">fin_transpose_last_two_rest</text>
</a>
</g>
</g>
<!-- Fin_fin_transpose_last_two_rest&#45;&gt;Fin_fin_transpose_last_two -->
<g id="edge38" class="edge">
<title>Fin_fin_transpose_last_two_rest&#45;&gt;Fin_fin_transpose_last_two</title>
<path fill="none" stroke="black" d="M1078.56,-356.07C1084.07,-325.75 1093.32,-274.87 1099.02,-243.54"/>
<polygon fill="black" stroke="black" points="1102.53,-243.8 1100.87,-233.33 1095.64,-242.54 1102.53,-243.8"/>
</g>
<!-- Fin_fin_transpose_last_two_nextlast -->
<g id="node25" class="node">
<title>Fin_fin_transpose_last_two_nextlast</title>
<g id="a_node25"><a xlink:href="Fin.html#fin_transpose_last_two_nextlast" xlink:title="fin_transpose_last_two_nextlast">
<ellipse fill="#f070d1" stroke="black" cx="489" cy="-382.13" rx="157.08" ry="18"/>
<ellipse fill="none" stroke="black" cx="489" cy="-382.13" rx="161.08" ry="22"/>
<ellipse fill="none" stroke="black" cx="489" cy="-382.13" rx="165.07" ry="26"/>
<text text-anchor="middle" x="489" y="-378.43" font-family="Times,serif" font-size="14.00">fin_transpose_last_two_nextlast</text>
</a>
</g>
</g>
<!-- Fin_fin_transpose_last_two_nextlast&#45;&gt;Fin_fin_transpose_last_two -->
<g id="edge39" class="edge">
<title>Fin_fin_transpose_last_two_nextlast&#45;&gt;Fin_fin_transpose_last_two</title>
<path fill="none" stroke="black" d="M570.03,-359.39C693.35,-326.3 925.72,-263.96 1038.83,-233.61"/>
<polygon fill="black" stroke="black" points="1039.99,-236.93 1048.74,-230.96 1038.18,-230.17 1039.99,-236.93"/>
</g>
<!-- Fin_fin_transpose_last_two_last -->
<g id="node26" class="node">
<title>Fin_fin_transpose_last_two_last</title>
<g id="a_node26"><a xlink:href="Fin.html#fin_transpose_last_two_last" xlink:title="fin_transpose_last_two_last">
<ellipse fill="#f070d1" stroke="black" cx="161" cy="-382.13" rx="137.27" ry="18"/>
<ellipse fill="none" stroke="black" cx="161" cy="-382.13" rx="141.27" ry="22"/>
<ellipse fill="none" stroke="black" cx="161" cy="-382.13" rx="145.28" ry="26"/>
<text text-anchor="middle" x="161" y="-378.43" font-family="Times,serif" font-size="14.00">fin_transpose_last_two_last</text>
</a>
</g>
</g>
<!-- Fin_fin_transpose_last_two_last&#45;&gt;Fin_fin_transpose_last_two -->
<g id="edge40" class="edge">
<title>Fin_fin_transpose_last_two_last&#45;&gt;Fin_fin_transpose_last_two</title>
<path fill="none" stroke="black" d="M266.08,-364.11C421.94,-338.64 723.48,-288.54 979,-241.13 994.68,-238.22 1011.43,-234.97 1027.41,-231.8"/>
<polygon fill="black" stroke="black" points="1028.13,-235.23 1037.25,-229.84 1026.76,-228.36 1028.13,-235.23"/>
</g>
<!-- Fin_fin_transpose_last_two&#45;&gt;Fin_Fin -->
<g id="edge41" class="edge">
<title>Fin_fin_transpose_last_two&#45;&gt;Fin_Fin</title>
<path fill="none" stroke="black" d="M1164.69,-199.78C1294.69,-169.03 1596.51,-97.65 1699.13,-73.38"/>
<polygon fill="black" stroke="black" points="1700.05,-76.76 1708.98,-71.05 1698.44,-69.94 1700.05,-76.76"/>
</g>
<!-- Fin_path_nat_fin_last -->
<g id="node28" class="node">
<title>Fin_path_nat_fin_last</title>
<g id="a_node28"><a xlink:href="Fin.html#path_nat_fin_last" xlink:title="path_nat_fin_last">
<ellipse fill="#f070d1" stroke="black" cx="2588" cy="-382.13" rx="89.08" ry="18"/>
<ellipse fill="none" stroke="black" cx="2588" cy="-382.13" rx="93.08" ry="22"/>
<ellipse fill="none" stroke="black" cx="2588" cy="-382.13" rx="97.08" ry="26"/>
<text text-anchor="middle" x="2588" y="-378.43" font-family="Times,serif" font-size="14.00">path_nat_fin_last</text>
</a>
</g>
</g>
<!-- Fin_path_nat_fin_last&#45;&gt;Fin_fin_last -->
<g id="edge42" class="edge">
<title>Fin_path_nat_fin_last&#45;&gt;Fin_fin_last</title>
<path fill="none" stroke="black" d="M2522.72,-362.84C2402.28,-329.1 2147.98,-257.87 2044.38,-228.84"/>
<polygon fill="black" stroke="black" points="2045.11,-225.41 2034.54,-226.09 2043.22,-232.15 2045.11,-225.41"/>
</g>
<!-- Fin_fin_to_nat -->
<g id="node42" class="node">
<title>Fin_fin_to_nat</title>
<g id="a_node42"><a xlink:href="Fin.html#fin_to_nat" xlink:title="fin_to_nat">
<ellipse fill="#f070d1" stroke="black" cx="2270" cy="-215.13" rx="55.79" ry="18"/>
<text text-anchor="middle" x="2270" y="-211.43" font-family="Times,serif" font-size="14.00">fin_to_nat</text>
</a>
</g>
</g>
<!-- Fin_path_nat_fin_last&#45;&gt;Fin_fin_to_nat -->
<g id="edge43" class="edge">
<title>Fin_path_nat_fin_last&#45;&gt;Fin_fin_to_nat</title>
<path fill="none" stroke="black" d="M2544.78,-358.71C2481.92,-326.09 2366.31,-266.1 2307.09,-235.38"/>
<polygon fill="black" stroke="black" points="2308.58,-232.2 2298.09,-230.7 2305.35,-238.42 2308.58,-232.2"/>
</g>
<!-- Fin_path_nat_fin_zero -->
<g id="node29" class="node">
<title>Fin_path_nat_fin_zero</title>
<g id="a_node29"><a xlink:href="Fin.html#path_nat_fin_zero" xlink:title="path_nat_fin_zero">
<ellipse fill="#f070d1" stroke="black" cx="2373" cy="-382.13" rx="91.77" ry="18"/>
<ellipse fill="none" stroke="black" cx="2373" cy="-382.13" rx="95.78" ry="22"/>
<ellipse fill="none" stroke="black" cx="2373" cy="-382.13" rx="99.78" ry="26"/>
<text text-anchor="middle" x="2373" y="-378.43" font-family="Times,serif" font-size="14.00">path_nat_fin_zero</text>
</a>
</g>
</g>
<!-- Fin_path_nat_fin_zero&#45;&gt;Fin_fin_zero -->
<g id="edge44" class="edge">
<title>Fin_path_nat_fin_zero&#45;&gt;Fin_fin_zero</title>
<path fill="none" stroke="black" d="M2308.62,-362.29C2224.39,-337.12 2072.64,-290.01 1946,-241.13 1940.07,-238.84 1933.86,-236.26 1927.82,-233.65"/>
<polygon fill="black" stroke="black" points="1929.1,-230.39 1918.54,-229.55 1926.27,-236.79 1929.1,-230.39"/>
</g>
<!-- Fin_path_nat_fin_zero&#45;&gt;Fin_fin_to_nat -->
<g id="edge45" class="edge">
<title>Fin_path_nat_fin_zero&#45;&gt;Fin_fin_to_nat</title>
<path fill="none" stroke="black" d="M2357.58,-356.43C2338.27,-325.5 2305.37,-272.79 2285.86,-241.53"/>
<polygon fill="black" stroke="black" points="2288.76,-239.58 2280.5,-232.95 2282.82,-243.28 2288.76,-239.58"/>
</g>
<!-- Fin_path_nat_fsucc -->
<g id="node30" class="node">
<title>Fin_path_nat_fsucc</title>
<g id="a_node30"><a xlink:href="Fin.html#path_nat_fsucc" xlink:title="path_nat_fsucc">
<ellipse fill="#f070d1" stroke="black" cx="1596" cy="-548.13" rx="79.11" ry="18"/>
<ellipse fill="none" stroke="black" cx="1596" cy="-548.13" rx="83.1" ry="22"/>
<ellipse fill="none" stroke="black" cx="1596" cy="-548.13" rx="87.09" ry="26"/>
<text text-anchor="middle" x="1596" y="-544.43" font-family="Times,serif" font-size="14.00">path_nat_fsucc</text>
</a>
</g>
</g>
<!-- Fin_path_nat_fin_incl -->
<g id="node31" class="node">
<title>Fin_path_nat_fin_incl</title>
<g id="a_node31"><a xlink:href="Fin.html#path_nat_fin_incl" xlink:title="path_nat_fin_incl">
<ellipse fill="#f070d1" stroke="black" cx="2167" cy="-382.13" rx="88.28" ry="18"/>
<text text-anchor="middle" x="2167" y="-378.43" font-family="Times,serif" font-size="14.00">path_nat_fin_incl</text>
</a>
</g>
</g>
<!-- Fin_path_nat_fsucc&#45;&gt;Fin_path_nat_fin_incl -->
<g id="edge46" class="edge">
<title>Fin_path_nat_fsucc&#45;&gt;Fin_path_nat_fin_incl</title>
<path fill="none" stroke="black" d="M1657.38,-529.5C1767.99,-497.73 1999.36,-431.28 2108.12,-400.04"/>
<polygon fill="black" stroke="black" points="2109.3,-403.35 2117.94,-397.22 2107.36,-396.62 2109.3,-403.35"/>
</g>
<!-- Fin_path_fin_fsucc_incl -->
<g id="node32" class="node">
<title>Fin_path_fin_fsucc_incl</title>
<g id="a_node32"><a xlink:href="Fin.html#path_fin_fsucc_incl" xlink:title="path_fin_fsucc_incl">
<ellipse fill="#f070d1" stroke="black" cx="1587" cy="-382.13" rx="96.68" ry="18"/>
<text text-anchor="middle" x="1587" y="-378.43" font-family="Times,serif" font-size="14.00">path_fin_fsucc_incl</text>
</a>
</g>
</g>
<!-- Fin_path_nat_fsucc&#45;&gt;Fin_path_fin_fsucc_incl -->
<g id="edge47" class="edge">
<title>Fin_path_nat_fsucc&#45;&gt;Fin_path_fin_fsucc_incl</title>
<path fill="none" stroke="black" d="M1594.61,-521.87C1592.96,-491.64 1590.19,-441.26 1588.49,-410.24"/>
<polygon fill="black" stroke="black" points="1591.98,-409.94 1587.93,-400.15 1584.99,-410.32 1591.98,-409.94"/>
</g>
<!-- Fin_path_nat_fin_incl&#45;&gt;Fin_fin_incl -->
<g id="edge48" class="edge">
<title>Fin_path_nat_fin_incl&#45;&gt;Fin_fin_incl</title>
<path fill="none" stroke="black" d="M2128.78,-365.79C2066.58,-340.66 1939.79,-288.76 1834,-241.13 1828.86,-238.82 1823.47,-236.31 1818.19,-233.81"/>
<polygon fill="black" stroke="black" points="1819.4,-230.52 1808.87,-229.36 1816.38,-236.83 1819.4,-230.52"/>
</g>
<!-- Fin_path_nat_fin_incl&#45;&gt;Fin_fin_to_nat -->
<g id="edge49" class="edge">
<title>Fin_path_nat_fin_incl&#45;&gt;Fin_fin_to_nat</title>
<path fill="none" stroke="black" d="M2177.63,-364.09C2195.77,-335.04 2232.77,-275.77 2254.03,-241.72"/>
<polygon fill="black" stroke="black" points="2257.25,-243.16 2259.58,-232.83 2251.31,-239.46 2257.25,-243.16"/>
</g>
<!-- Fin_path_fin_fsucc_incl&#45;&gt;Fin_fsucc -->
<g id="edge50" class="edge">
<title>Fin_path_fin_fsucc_incl&#45;&gt;Fin_fsucc</title>
<path fill="none" stroke="black" d="M1597.22,-364.09C1614.65,-335.04 1650.22,-275.77 1670.65,-241.72"/>
<polygon fill="black" stroke="black" points="1673.84,-243.2 1675.98,-232.83 1667.83,-239.6 1673.84,-243.2"/>
</g>
<!-- Fin_path_fin_fsucc_incl&#45;&gt;Fin_fin_incl -->
<g id="edge51" class="edge">
<title>Fin_path_fin_fsucc_incl&#45;&gt;Fin_fin_incl</title>
<path fill="none" stroke="black" d="M1606.77,-364.4C1642.12,-334.49 1716.13,-271.86 1755.71,-238.37"/>
<polygon fill="black" stroke="black" points="1758.24,-240.82 1763.61,-231.69 1753.71,-235.48 1758.24,-240.82"/>
</g>
<!-- Fin_isembedding_fsucc -->
<g id="node33" class="node">
<title>Fin_isembedding_fsucc</title>
<g id="a_node33"><a xlink:href="Fin.html#isembedding_fsucc" xlink:title="isembedding_fsucc">
<ellipse fill="#f070d1" stroke="black" cx="1365" cy="-382.13" rx="98.6" ry="18"/>
<ellipse fill="none" stroke="black" cx="1365" cy="-382.13" rx="102.59" ry="22"/>
<ellipse fill="none" stroke="black" cx="1365" cy="-382.13" rx="106.58" ry="26"/>
<text text-anchor="middle" x="1365" y="-378.43" font-family="Times,serif" font-size="14.00">isembedding_fsucc</text>
</a>
</g>
</g>
<!-- Fin_isembedding_fsucc&#45;&gt;Fin_fsucc -->
<g id="edge52" class="edge">
<title>Fin_isembedding_fsucc&#45;&gt;Fin_fsucc</title>
<path fill="none" stroke="black" d="M1409.3,-358.36C1474.63,-324.78 1595.32,-262.74 1653.27,-232.95"/>
<polygon fill="black" stroke="black" points="1655.05,-235.97 1662.35,-228.29 1651.85,-229.75 1655.05,-235.97"/>
</g>
<!-- Fin_isembedding_fsucc&#45;&gt;Fin_decidablepaths_fin -->
<g id="edge53" class="edge">
<title>Fin_isembedding_fsucc&#45;&gt;Fin_decidablepaths_fin</title>
<path fill="none" stroke="black" d="M1365,-356.07C1365,-325.75 1365,-274.87 1365,-243.54"/>
<polygon fill="black" stroke="black" points="1368.5,-243.33 1365,-233.33 1361.5,-243.33 1368.5,-243.33"/>
</g>
<!-- Fin_fsucc&#45;&gt;Fin_Fin -->
<g id="edge54" class="edge">
<title>Fin_fsucc&#45;&gt;Fin_Fin</title>
<path fill="none" stroke="black" d="M1691.41,-197.33C1699.7,-171.62 1715.59,-122.29 1725.44,-91.69"/>
<polygon fill="black" stroke="black" points="1728.8,-92.69 1728.53,-82.1 1722.14,-90.55 1728.8,-92.69"/>
</g>
<!-- Fin_fin_incl&#45;&gt;Fin_Fin -->
<g id="edge55" class="edge">
<title>Fin_fin_incl&#45;&gt;Fin_Fin</title>
<path fill="none" stroke="black" d="M1776.49,-197.04C1768.18,-171.22 1752.34,-122.05 1742.52,-91.58"/>
<polygon fill="black" stroke="black" points="1745.84,-90.47 1739.44,-82.02 1739.18,-92.62 1745.84,-90.47"/>
</g>
<!-- Fin_fin_last&#45;&gt;Fin_Fin -->
<g id="edge56" class="edge">
<title>Fin_fin_last&#45;&gt;Fin_Fin</title>
<path fill="none" stroke="black" d="M1974.07,-200.11C1924.72,-172.37 1814.86,-110.6 1762.64,-81.23"/>
<polygon fill="black" stroke="black" points="1764.31,-78.16 1753.88,-76.31 1760.88,-84.26 1764.31,-78.16"/>
</g>
<!-- Fin_fin_zero&#45;&gt;Fin_Fin -->
<g id="edge57" class="edge">
<title>Fin_fin_zero&#45;&gt;Fin_Fin</title>
<path fill="none" stroke="black" d="M1873.31,-198.19C1845.19,-171.33 1788.37,-117.06 1756.67,-86.79"/>
<polygon fill="black" stroke="black" points="1758.84,-84.01 1749.19,-79.64 1754,-89.08 1758.84,-84.01"/>
</g>
<!-- Fin_fin_empty -->
<g id="node38" class="node">
<title>Fin_fin_empty</title>
<g id="a_node38"><a xlink:href="Fin.html#fin_empty" xlink:title="fin_empty">
<ellipse fill="#f070d1" stroke="black" cx="906" cy="-215.13" rx="55.8" ry="18"/>
<ellipse fill="none" stroke="black" cx="906" cy="-215.13" rx="59.8" ry="22"/>
<ellipse fill="none" stroke="black" cx="906" cy="-215.13" rx="63.79" ry="26"/>
<text text-anchor="middle" x="906" y="-211.43" font-family="Times,serif" font-size="14.00">fin_empty</text>
</a>
</g>
</g>
<!-- Fin_fin_empty&#45;&gt;Fin_Fin -->
<g id="edge58" class="edge">
<title>Fin_fin_empty&#45;&gt;Fin_Fin</title>
<path fill="none" stroke="black" d="M951.99,-197.08C960.87,-194.16 970.17,-191.35 979,-189.13 1250.47,-120.86 1586.61,-80.96 1696.99,-68.99"/>
<polygon fill="black" stroke="black" points="1697.69,-72.43 1707.26,-67.88 1696.94,-65.47 1697.69,-72.43"/>
</g>
<!-- Fin_contr_fin1 -->
<g id="node39" class="node">
<title>Fin_contr_fin1</title>
<g id="a_node39"><a xlink:href="Fin.html#contr_fin1" xlink:title="contr_fin1">
<ellipse fill="#f070d1" stroke="black" cx="759" cy="-215.13" rx="57.37" ry="18"/>
<ellipse fill="none" stroke="black" cx="759" cy="-215.13" rx="61.38" ry="22"/>
<ellipse fill="none" stroke="black" cx="759" cy="-215.13" rx="65.39" ry="26"/>
<text text-anchor="middle" x="759" y="-211.43" font-family="Times,serif" font-size="14.00">contr_fin1</text>
</a>
</g>
</g>
<!-- Fin_contr_fin1&#45;&gt;Fin_Fin -->
<g id="edge59" class="edge">
<title>Fin_contr_fin1&#45;&gt;Fin_Fin</title>
<path fill="none" stroke="black" d="M805.59,-196.91C814.6,-194 824.02,-191.24 833,-189.13 1163.04,-111.41 1573.36,-76.83 1697.05,-67.7"/>
<polygon fill="black" stroke="black" points="1697.41,-71.18 1707.13,-66.96 1696.9,-64.2 1697.41,-71.18"/>
</g>
<!-- Fin_decidablepaths_fin&#45;&gt;Fin_Fin -->
<g id="edge60" class="edge">
<title>Fin_decidablepaths_fin&#45;&gt;Fin_Fin</title>
<path fill="none" stroke="black" d="M1403.45,-198.61C1476.64,-169.05 1634.71,-105.23 1702.3,-77.93"/>
<polygon fill="black" stroke="black" points="1703.63,-81.17 1711.59,-74.18 1701.01,-74.68 1703.63,-81.17"/>
</g>
<!-- Fin_decidable_fin -->
<g id="node41" class="node">
<title>Fin_decidable_fin</title>
<g id="a_node41"><a xlink:href="Fin.html#decidable_fin" xlink:title="decidable_fin">
<ellipse fill="#f070d1" stroke="black" cx="596" cy="-215.13" rx="71.49" ry="18"/>
<ellipse fill="none" stroke="black" cx="596" cy="-215.13" rx="75.49" ry="22"/>
<ellipse fill="none" stroke="black" cx="596" cy="-215.13" rx="79.49" ry="26"/>
<text text-anchor="middle" x="596" y="-211.43" font-family="Times,serif" font-size="14.00">decidable_fin</text>
</a>
</g>
</g>
<!-- Fin_decidable_fin&#45;&gt;Fin_Fin -->
<g id="edge61" class="edge">
<title>Fin_decidable_fin&#45;&gt;Fin_Fin</title>
<path fill="none" stroke="black" d="M652.65,-196.79C663.33,-193.93 674.45,-191.22 685,-189.13 1076.44,-111.51 1560.36,-76.25 1696.71,-67.42"/>
<polygon fill="black" stroke="black" points="1697.26,-70.9 1707.01,-66.76 1696.81,-63.91 1697.26,-70.9"/>
</g>
<!-- Fin_fin_to_nat&#45;&gt;Fin_Fin -->
<g id="edge62" class="edge">
<title>Fin_fin_to_nat&#45;&gt;Fin_Fin</title>
<path fill="none" stroke="black" d="M2228.83,-202.69C2126.64,-174.28 1862.82,-100.94 1768.31,-74.67"/>
<polygon fill="black" stroke="black" points="1768.99,-71.22 1758.42,-71.92 1767.11,-77.97 1768.99,-71.22"/>
</g>
</g>
</svg>
