<?xml version="1.0" encoding="UTF-8" standalone="no"?>
<!DOCTYPE svg PUBLIC "-//W3C//DTD SVG 1.1//EN"
 "http://www.w3.org/Graphics/SVG/1.1/DTD/svg11.dtd">
<!-- Generated by graphviz version 2.43.0 (0)
 -->
<!-- Title: HoTT_Pointed_pTrunc Pages: 1 -->
<svg width="1280pt" height="644pt"
 viewBox="0.00 0.00 1280.00 644.00" xmlns="http://www.w3.org/2000/svg" xmlns:xlink="http://www.w3.org/1999/xlink">
<g id="graph0" class="graph" transform="scale(1 1) rotate(0) translate(4 640)">
<title>HoTT_Pointed_pTrunc</title>
<polygon fill="white" stroke="transparent" points="-4,4 -4,-640 1276,-640 1276,4 -4,4"/>
<g id="clust1" class="cluster">
<title>cluster_pTrunc</title>
<polygon fill="#ffffc3" stroke="black" points="8,-11.49 8,-624.51 1264,-624.51 1264,-11.49 8,-11.49"/>
<text text-anchor="middle" x="41.5" y="-609.31" font-family="Times,serif" font-size="14.00">pTrunc</text>
</g>
<!-- pTrunc_is_minus_one_connected_pointed -->
<g id="node1" class="node">
<title>pTrunc_is_minus_one_connected_pointed</title>
<g id="a_node1"><a xlink:href="pTrunc.html#is_minus_one_connected_pointed" xlink:title="is_minus_one_connected_pointed">
<ellipse fill="#f070d1" stroke="black" cx="1085" cy="-542.49" rx="163.26" ry="18"/>
<ellipse fill="none" stroke="black" cx="1085" cy="-542.49" rx="167.27" ry="22"/>
<ellipse fill="none" stroke="black" cx="1085" cy="-542.49" rx="171.27" ry="26"/>
<text text-anchor="middle" x="1085" y="-538.79" font-family="Times,serif" font-size="14.00">is_minus_one_connected_pointed</text>
</a>
</g>
</g>
<!-- pTrunc_contr_pmap_isconnected_inO -->
<g id="node2" class="node">
<title>pTrunc_contr_pmap_isconnected_inO</title>
<g id="a_node2"><a xlink:href="pTrunc.html#contr_pmap_isconnected_inO" xlink:title="contr_pmap_isconnected_inO">
<ellipse fill="#f070d1" stroke="black" cx="742" cy="-542.49" rx="145.67" ry="18"/>
<ellipse fill="none" stroke="black" cx="742" cy="-542.49" rx="149.67" ry="22"/>
<ellipse fill="none" stroke="black" cx="742" cy="-542.49" rx="153.67" ry="26"/>
<text text-anchor="middle" x="742" y="-538.79" font-family="Times,serif" font-size="14.00">contr_pmap_isconnected_inO</text>
</a>
</g>
</g>
<!-- pTrunc_istrunc_pmap -->
<g id="node3" class="node">
<title>pTrunc_istrunc_pmap</title>
<g id="a_node3"><a xlink:href="pTrunc.html#istrunc_pmap" xlink:title="istrunc_pmap">
<ellipse fill="#f070d1" stroke="black" cx="489" cy="-542.49" rx="73.39" ry="18"/>
<ellipse fill="none" stroke="black" cx="489" cy="-542.49" rx="77.39" ry="22"/>
<ellipse fill="none" stroke="black" cx="489" cy="-542.49" rx="81.39" ry="26"/>
<text text-anchor="middle" x="489" y="-538.79" font-family="Times,serif" font-size="14.00">istrunc_pmap</text>
</a>
</g>
</g>
<!-- pTrunc_istrunc_pforall -->
<g id="node4" class="node">
<title>pTrunc_istrunc_pforall</title>
<g id="a_node4"><a xlink:href="pTrunc.html#istrunc_pforall" xlink:title="istrunc_pforall">
<ellipse fill="#f070d1" stroke="black" cx="867" cy="-416.49" rx="77.99" ry="18"/>
<text text-anchor="middle" x="867" y="-412.79" font-family="Times,serif" font-size="14.00">istrunc_pforall</text>
</a>
</g>
</g>
<!-- pTrunc_istrunc_pmap&#45;&gt;pTrunc_istrunc_pforall -->
<g id="edge1" class="edge">
<title>pTrunc_istrunc_pmap&#45;&gt;pTrunc_istrunc_pforall</title>
<path fill="none" stroke="black" d="M544.37,-523.32C616.93,-499.52 743.3,-458.06 814.44,-434.73"/>
<polygon fill="black" stroke="black" points="815.69,-438 824.1,-431.56 813.51,-431.35 815.69,-438"/>
</g>
<!-- pTrunc_pequiv_ptr_prod -->
<g id="node5" class="node">
<title>pTrunc_pequiv_ptr_prod</title>
<g id="a_node5"><a xlink:href="pTrunc.html#pequiv_ptr_prod" xlink:title="pequiv_ptr_prod">
<ellipse fill="#f070d1" stroke="black" cx="882" cy="-163.49" rx="86.39" ry="18"/>
<ellipse fill="none" stroke="black" cx="882" cy="-163.49" rx="90.39" ry="22"/>
<ellipse fill="none" stroke="black" cx="882" cy="-163.49" rx="94.38" ry="26"/>
<text text-anchor="middle" x="882" y="-159.79" font-family="Times,serif" font-size="14.00">pequiv_ptr_prod</text>
</a>
</g>
</g>
<!-- pTrunc_pTr -->
<g id="node24" class="node">
<title>pTrunc_pTr</title>
<g id="a_node24"><a xlink:href="pTrunc.html#pTr" xlink:title="pTr">
<ellipse fill="#f070d1" stroke="black" cx="553" cy="-48.49" rx="27" ry="18"/>
<text text-anchor="middle" x="553" y="-44.79" font-family="Times,serif" font-size="14.00">pTr</text>
</a>
</g>
</g>
<!-- pTrunc_pequiv_ptr_prod&#45;&gt;pTrunc_pTr -->
<g id="edge2" class="edge">
<title>pTrunc_pequiv_ptr_prod&#45;&gt;pTrunc_pTr</title>
<path fill="none" stroke="black" d="M824.69,-142.8C755.71,-119.11 642.19,-80.12 586.26,-60.91"/>
<polygon fill="black" stroke="black" points="587.11,-57.5 576.51,-57.56 584.83,-64.12 587.11,-57.5"/>
</g>
<!-- pTrunc_ptr_loops_commutes -->
<g id="node6" class="node">
<title>pTrunc_ptr_loops_commutes</title>
<g id="a_node6"><a xlink:href="pTrunc.html#ptr_loops_commutes" xlink:title="ptr_loops_commutes">
<ellipse fill="#f070d1" stroke="black" cx="733" cy="-290.49" rx="105.89" ry="18"/>
<ellipse fill="none" stroke="black" cx="733" cy="-290.49" rx="109.88" ry="22"/>
<ellipse fill="none" stroke="black" cx="733" cy="-290.49" rx="113.88" ry="26"/>
<text text-anchor="middle" x="733" y="-286.79" font-family="Times,serif" font-size="14.00">ptr_loops_commutes</text>
</a>
</g>
</g>
<!-- pTrunc_path_Tr_commutes -->
<g id="node7" class="node">
<title>pTrunc_path_Tr_commutes</title>
<g id="a_node7"><a xlink:href="pTrunc.html#path_Tr_commutes" xlink:title="path_Tr_commutes">
<ellipse fill="#f070d1" stroke="black" cx="671" cy="-163.49" rx="98.58" ry="18"/>
<text text-anchor="middle" x="671" y="-159.79" font-family="Times,serif" font-size="14.00">path_Tr_commutes</text>
</a>
</g>
</g>
<!-- pTrunc_ptr_loops_commutes&#45;&gt;pTrunc_path_Tr_commutes -->
<g id="edge3" class="edge">
<title>pTrunc_ptr_loops_commutes&#45;&gt;pTrunc_path_Tr_commutes</title>
<path fill="none" stroke="black" d="M720.6,-264.49C709.95,-243.02 694.65,-212.17 683.87,-190.43"/>
<polygon fill="black" stroke="black" points="686.98,-188.84 679.41,-181.43 680.71,-191.95 686.98,-188.84"/>
</g>
<!-- pTrunc_ptr_loops -->
<g id="node10" class="node">
<title>pTrunc_ptr_loops</title>
<g id="a_node10"><a xlink:href="pTrunc.html#ptr_loops" xlink:title="ptr_loops">
<ellipse fill="#f070d1" stroke="black" cx="1048" cy="-163.49" rx="53.89" ry="18"/>
<text text-anchor="middle" x="1048" y="-159.79" font-family="Times,serif" font-size="14.00">ptr_loops</text>
</a>
</g>
</g>
<!-- pTrunc_ptr_loops_commutes&#45;&gt;pTrunc_ptr_loops -->
<g id="edge4" class="edge">
<title>pTrunc_ptr_loops_commutes&#45;&gt;pTrunc_ptr_loops</title>
<path fill="none" stroke="black" d="M788.23,-267.57C850.11,-243.01 949.1,-203.73 1005.33,-181.42"/>
<polygon fill="black" stroke="black" points="1006.64,-184.66 1014.64,-177.72 1004.06,-178.16 1006.64,-184.66"/>
</g>
<!-- pTrunc_ptr -->
<g id="node23" class="node">
<title>pTrunc_ptr</title>
<g id="a_node23"><a xlink:href="pTrunc.html#ptr" xlink:title="ptr">
<ellipse fill="#f070d1" stroke="black" cx="315" cy="-163.49" rx="27" ry="18"/>
<text text-anchor="middle" x="315" y="-159.79" font-family="Times,serif" font-size="14.00">ptr</text>
</a>
</g>
</g>
<!-- pTrunc_ptr_loops_commutes&#45;&gt;pTrunc_ptr -->
<g id="edge5" class="edge">
<title>pTrunc_ptr_loops_commutes&#45;&gt;pTrunc_ptr</title>
<path fill="none" stroke="black" d="M652.65,-271.93C557.24,-250.49 404.32,-214.04 351,-189.49 347.37,-187.81 343.72,-185.78 340.2,-183.59"/>
<polygon fill="black" stroke="black" points="342.09,-180.65 331.83,-177.99 338.2,-186.47 342.09,-180.65"/>
</g>
<!-- pTrunc_ptr_loops_eq -->
<g id="node8" class="node">
<title>pTrunc_ptr_loops_eq</title>
<g id="a_node8"><a xlink:href="pTrunc.html#ptr_loops_eq" xlink:title="ptr_loops_eq">
<ellipse fill="#f070d1" stroke="black" cx="1171" cy="-290.49" rx="69.58" ry="18"/>
<ellipse fill="none" stroke="black" cx="1171" cy="-290.49" rx="73.59" ry="22"/>
<ellipse fill="none" stroke="black" cx="1171" cy="-290.49" rx="77.59" ry="26"/>
<text text-anchor="middle" x="1171" y="-286.79" font-family="Times,serif" font-size="14.00">ptr_loops_eq</text>
</a>
</g>
</g>
<!-- pTrunc_ptr_loops_eq&#45;&gt;pTrunc_ptr_loops -->
<g id="edge6" class="edge">
<title>pTrunc_ptr_loops_eq&#45;&gt;pTrunc_ptr_loops</title>
<path fill="none" stroke="black" d="M1147.58,-265.68C1125.75,-243.5 1093.38,-210.61 1071.53,-188.4"/>
<polygon fill="black" stroke="black" points="1073.78,-185.69 1064.27,-181.02 1068.79,-190.6 1073.78,-185.69"/>
</g>
<!-- pTrunc_ptr_iterated_loops -->
<g id="node9" class="node">
<title>pTrunc_ptr_iterated_loops</title>
<g id="a_node9"><a xlink:href="pTrunc.html#ptr_iterated_loops" xlink:title="ptr_iterated_loops">
<ellipse fill="#f070d1" stroke="black" cx="973" cy="-290.49" rx="94.79" ry="18"/>
<ellipse fill="none" stroke="black" cx="973" cy="-290.49" rx="98.79" ry="22"/>
<ellipse fill="none" stroke="black" cx="973" cy="-290.49" rx="102.78" ry="26"/>
<text text-anchor="middle" x="973" y="-286.79" font-family="Times,serif" font-size="14.00">ptr_iterated_loops</text>
</a>
</g>
</g>
<!-- pTrunc_ptr_iterated_loops&#45;&gt;pTrunc_ptr_loops -->
<g id="edge7" class="edge">
<title>pTrunc_ptr_iterated_loops&#45;&gt;pTrunc_ptr_loops</title>
<path fill="none" stroke="black" d="M988,-264.49C1000.94,-242.92 1019.56,-211.89 1032.61,-190.13"/>
<polygon fill="black" stroke="black" points="1035.69,-191.81 1037.83,-181.43 1029.69,-188.21 1035.69,-191.81"/>
</g>
<!-- pTrunc_ptr_loops&#45;&gt;pTrunc_pTr -->
<g id="edge8" class="edge">
<title>pTrunc_ptr_loops&#45;&gt;pTrunc_pTr</title>
<path fill="none" stroke="black" d="M1016.66,-148.78C1006.67,-144.76 995.49,-140.61 985,-137.49 841.32,-94.71 664.61,-65.87 589.53,-54.69"/>
<polygon fill="black" stroke="black" points="589.6,-51.16 579.2,-53.17 588.58,-58.09 589.6,-51.16"/>
</g>
<!-- pTrunc_pequiv_ptr_functor -->
<g id="node11" class="node">
<title>pTrunc_pequiv_ptr_functor</title>
<g id="a_node11"><a xlink:href="pTrunc.html#pequiv_ptr_functor" xlink:title="pequiv_ptr_functor">
<ellipse fill="#f070d1" stroke="black" cx="283" cy="-542.49" rx="98.6" ry="18"/>
<ellipse fill="none" stroke="black" cx="283" cy="-542.49" rx="102.59" ry="22"/>
<ellipse fill="none" stroke="black" cx="283" cy="-542.49" rx="106.58" ry="26"/>
<text text-anchor="middle" x="283" y="-538.79" font-family="Times,serif" font-size="14.00">pequiv_ptr_functor</text>
</a>
</g>
</g>
<!-- pTrunc_is1functor_ptr -->
<g id="node15" class="node">
<title>pTrunc_is1functor_ptr</title>
<g id="a_node15"><a xlink:href="pTrunc.html#is1functor_ptr" xlink:title="is1functor_ptr">
<ellipse fill="#f070d1" stroke="black" cx="694" cy="-416.49" rx="76.89" ry="18"/>
<text text-anchor="middle" x="694" y="-412.79" font-family="Times,serif" font-size="14.00">is1functor_ptr</text>
</a>
</g>
</g>
<!-- pTrunc_pequiv_ptr_functor&#45;&gt;pTrunc_is1functor_ptr -->
<g id="edge9" class="edge">
<title>pTrunc_pequiv_ptr_functor&#45;&gt;pTrunc_is1functor_ptr</title>
<path fill="none" stroke="black" d="M348.12,-521.84C428.49,-497.59 563.73,-456.79 639.08,-434.05"/>
<polygon fill="black" stroke="black" points="640.3,-437.34 648.86,-431.1 638.28,-430.64 640.3,-437.34"/>
</g>
<!-- pTrunc_ptr_functor_pconst -->
<g id="node12" class="node">
<title>pTrunc_ptr_functor_pconst</title>
<g id="a_node12"><a xlink:href="pTrunc.html#ptr_functor_pconst" xlink:title="ptr_functor_pconst">
<ellipse fill="#f070d1" stroke="black" cx="493" cy="-416.49" rx="98.27" ry="18"/>
<ellipse fill="none" stroke="black" cx="493" cy="-416.49" rx="102.28" ry="22"/>
<ellipse fill="none" stroke="black" cx="493" cy="-416.49" rx="106.28" ry="26"/>
<text text-anchor="middle" x="493" y="-412.79" font-family="Times,serif" font-size="14.00">ptr_functor_pconst</text>
</a>
</g>
</g>
<!-- pTrunc_is0functor_ptr -->
<g id="node16" class="node">
<title>pTrunc_is0functor_ptr</title>
<g id="a_node16"><a xlink:href="pTrunc.html#is0functor_ptr" xlink:title="is0functor_ptr">
<ellipse fill="#f070d1" stroke="black" cx="414" cy="-290.49" rx="76.89" ry="18"/>
<text text-anchor="middle" x="414" y="-286.79" font-family="Times,serif" font-size="14.00">is0functor_ptr</text>
</a>
</g>
</g>
<!-- pTrunc_ptr_functor_pconst&#45;&gt;pTrunc_is0functor_ptr -->
<g id="edge10" class="edge">
<title>pTrunc_ptr_functor_pconst&#45;&gt;pTrunc_is0functor_ptr</title>
<path fill="none" stroke="black" d="M477.2,-390.69C463.65,-369.42 444.19,-338.87 430.45,-317.3"/>
<polygon fill="black" stroke="black" points="433.27,-315.22 424.95,-308.67 427.37,-318.98 433.27,-315.22"/>
</g>
<!-- pTrunc_ptr_natural -->
<g id="node13" class="node">
<title>pTrunc_ptr_natural</title>
<g id="a_node13"><a xlink:href="pTrunc.html#ptr_natural" xlink:title="ptr_natural">
<ellipse fill="#f070d1" stroke="black" cx="87" cy="-542.49" rx="63.08" ry="18"/>
<ellipse fill="none" stroke="black" cx="87" cy="-542.49" rx="67.09" ry="22"/>
<ellipse fill="none" stroke="black" cx="87" cy="-542.49" rx="71.09" ry="26"/>
<text text-anchor="middle" x="87" y="-538.79" font-family="Times,serif" font-size="14.00">ptr_natural</text>
</a>
</g>
</g>
<!-- pTrunc_ptr_natural_path -->
<g id="node14" class="node">
<title>pTrunc_ptr_natural_path</title>
<g id="a_node14"><a xlink:href="pTrunc.html#ptr_natural_path" xlink:title="ptr_natural_path">
<ellipse fill="#f070d1" stroke="black" cx="280" cy="-416.49" rx="88.28" ry="18"/>
<text text-anchor="middle" x="280" y="-412.79" font-family="Times,serif" font-size="14.00">ptr_natural_path</text>
</a>
</g>
</g>
<!-- pTrunc_ptr_natural&#45;&gt;pTrunc_ptr_natural_path -->
<g id="edge11" class="edge">
<title>pTrunc_ptr_natural&#45;&gt;pTrunc_ptr_natural_path</title>
<path fill="none" stroke="black" d="M121.06,-519.6C156.28,-496.98 210.93,-461.86 246.09,-439.27"/>
<polygon fill="black" stroke="black" points="248.07,-442.16 254.59,-433.81 244.28,-436.27 248.07,-442.16"/>
</g>
<!-- pTrunc_ptr_natural_path&#45;&gt;pTrunc_is0functor_ptr -->
<g id="edge12" class="edge">
<title>pTrunc_ptr_natural_path&#45;&gt;pTrunc_is0functor_ptr</title>
<path fill="none" stroke="black" d="M298.07,-398.76C321.35,-377.22 361.95,-339.65 388.4,-315.18"/>
<polygon fill="black" stroke="black" points="390.82,-317.7 395.79,-308.34 386.07,-312.56 390.82,-317.7"/>
</g>
<!-- pTrunc_pTr_rec_beta_path -->
<g id="node20" class="node">
<title>pTrunc_pTr_rec_beta_path</title>
<g id="a_node20"><a xlink:href="pTrunc.html#pTr_rec_beta_path" xlink:title="pTr_rec_beta_path">
<ellipse fill="#f070d1" stroke="black" cx="223" cy="-290.49" rx="96.38" ry="18"/>
<text text-anchor="middle" x="223" y="-286.79" font-family="Times,serif" font-size="14.00">pTr_rec_beta_path</text>
</a>
</g>
</g>
<!-- pTrunc_ptr_natural_path&#45;&gt;pTrunc_pTr_rec_beta_path -->
<g id="edge13" class="edge">
<title>pTrunc_ptr_natural_path&#45;&gt;pTrunc_pTr_rec_beta_path</title>
<path fill="none" stroke="black" d="M272.19,-398.5C262.65,-377.75 246.4,-342.39 235.2,-318.04"/>
<polygon fill="black" stroke="black" points="238.25,-316.28 230.89,-308.66 231.89,-319.21 238.25,-316.28"/>
</g>
<!-- pTrunc_is1functor_ptr&#45;&gt;pTrunc_is0functor_ptr -->
<g id="edge14" class="edge">
<title>pTrunc_is1functor_ptr&#45;&gt;pTrunc_is0functor_ptr</title>
<path fill="none" stroke="black" d="M659.67,-400.28C608.73,-377.72 513.17,-335.4 457.43,-310.72"/>
<polygon fill="black" stroke="black" points="458.74,-307.47 448.18,-306.62 455.9,-313.87 458.74,-307.47"/>
</g>
<!-- pTrunc_pTr_ind -->
<g id="node18" class="node">
<title>pTrunc_pTr_ind</title>
<g id="a_node18"><a xlink:href="pTrunc.html#pTr_ind" xlink:title="pTr_ind">
<ellipse fill="#f070d1" stroke="black" cx="555" cy="-290.49" rx="46.29" ry="18"/>
<text text-anchor="middle" x="555" y="-286.79" font-family="Times,serif" font-size="14.00">pTr_ind</text>
</a>
</g>
</g>
<!-- pTrunc_is1functor_ptr&#45;&gt;pTrunc_pTr_ind -->
<g id="edge15" class="edge">
<title>pTrunc_is1functor_ptr&#45;&gt;pTrunc_pTr_ind</title>
<path fill="none" stroke="black" d="M675.25,-398.76C650.7,-376.86 607.58,-338.39 580.19,-313.96"/>
<polygon fill="black" stroke="black" points="582.37,-311.21 572.57,-307.16 577.71,-316.43 582.37,-311.21"/>
</g>
<!-- pTrunc_pTr_rec -->
<g id="node21" class="node">
<title>pTrunc_pTr_rec</title>
<g id="a_node21"><a xlink:href="pTrunc.html#pTr_rec" xlink:title="pTr_rec">
<ellipse fill="#f070d1" stroke="black" cx="224" cy="-163.49" rx="46.29" ry="18"/>
<text text-anchor="middle" x="224" y="-159.79" font-family="Times,serif" font-size="14.00">pTr_rec</text>
</a>
</g>
</g>
<!-- pTrunc_is0functor_ptr&#45;&gt;pTrunc_pTr_rec -->
<g id="edge16" class="edge">
<title>pTrunc_is0functor_ptr&#45;&gt;pTrunc_pTr_rec</title>
<path fill="none" stroke="black" d="M389.55,-273.4C355.22,-250.81 292.73,-209.7 255.12,-184.96"/>
<polygon fill="black" stroke="black" points="256.86,-181.91 246.58,-179.34 253.01,-187.76 256.86,-181.91"/>
</g>
<!-- pTrunc_is0functor_ptr&#45;&gt;pTrunc_ptr -->
<g id="edge17" class="edge">
<title>pTrunc_is0functor_ptr&#45;&gt;pTrunc_ptr</title>
<path fill="none" stroke="black" d="M400.65,-272.63C383.37,-250.81 353.17,-212.68 333.63,-188.01"/>
<polygon fill="black" stroke="black" points="336.16,-185.57 327.21,-179.9 330.67,-189.91 336.16,-185.57"/>
</g>
<!-- pTrunc_pequiv_ptr_rec -->
<g id="node17" class="node">
<title>pTrunc_pequiv_ptr_rec</title>
<g id="a_node17"><a xlink:href="pTrunc.html#pequiv_ptr_rec" xlink:title="pequiv_ptr_rec">
<ellipse fill="#f070d1" stroke="black" cx="447" cy="-163.49" rx="79.11" ry="18"/>
<ellipse fill="none" stroke="black" cx="447" cy="-163.49" rx="83.1" ry="22"/>
<ellipse fill="none" stroke="black" cx="447" cy="-163.49" rx="87.09" ry="26"/>
<text text-anchor="middle" x="447" y="-159.79" font-family="Times,serif" font-size="14.00">pequiv_ptr_rec</text>
</a>
</g>
</g>
<!-- pTrunc_pequiv_ptr_rec&#45;&gt;pTrunc_pTr -->
<g id="edge18" class="edge">
<title>pTrunc_pequiv_ptr_rec&#45;&gt;pTrunc_pTr</title>
<path fill="none" stroke="black" d="M469.74,-138.24C488.35,-118.41 514.43,-90.6 532.43,-71.42"/>
<polygon fill="black" stroke="black" points="535.07,-73.71 539.36,-64.02 529.97,-68.92 535.07,-73.71"/>
</g>
<!-- pTrunc_pTr_ind&#45;&gt;pTrunc_pTr -->
<g id="edge19" class="edge">
<title>pTrunc_pTr_ind&#45;&gt;pTrunc_pTr</title>
<path fill="none" stroke="black" d="M554.86,-272.23C554.51,-230.97 553.64,-126.39 553.23,-76.61"/>
<polygon fill="black" stroke="black" points="556.73,-76.56 553.14,-66.59 549.73,-76.62 556.73,-76.56"/>
</g>
<!-- pTrunc_pTr_rec_beta -->
<g id="node19" class="node">
<title>pTrunc_pTr_rec_beta</title>
<g id="a_node19"><a xlink:href="pTrunc.html#pTr_rec_beta" xlink:title="pTr_rec_beta">
<ellipse fill="#f070d1" stroke="black" cx="95" cy="-416.49" rx="70.7" ry="18"/>
<ellipse fill="none" stroke="black" cx="95" cy="-416.49" rx="74.7" ry="22"/>
<ellipse fill="none" stroke="black" cx="95" cy="-416.49" rx="78.69" ry="26"/>
<text text-anchor="middle" x="95" y="-412.79" font-family="Times,serif" font-size="14.00">pTr_rec_beta</text>
</a>
</g>
</g>
<!-- pTrunc_pTr_rec_beta&#45;&gt;pTrunc_pTr_rec_beta_path -->
<g id="edge20" class="edge">
<title>pTrunc_pTr_rec_beta&#45;&gt;pTrunc_pTr_rec_beta_path</title>
<path fill="none" stroke="black" d="M119.68,-391.58C142.26,-369.7 175.51,-337.49 198.15,-315.56"/>
<polygon fill="black" stroke="black" points="200.64,-318.02 205.39,-308.55 195.77,-312.99 200.64,-318.02"/>
</g>
<!-- pTrunc_pTr_rec_beta_path&#45;&gt;pTrunc_pTr_rec -->
<g id="edge21" class="edge">
<title>pTrunc_pTr_rec_beta_path&#45;&gt;pTrunc_pTr_rec</title>
<path fill="none" stroke="black" d="M223.14,-272.37C223.3,-251.63 223.58,-216.44 223.78,-191.91"/>
<polygon fill="black" stroke="black" points="227.28,-191.83 223.86,-181.8 220.28,-191.77 227.28,-191.83"/>
</g>
<!-- pTrunc_pTr_rec_beta_path&#45;&gt;pTrunc_ptr -->
<g id="edge22" class="edge">
<title>pTrunc_pTr_rec_beta_path&#45;&gt;pTrunc_ptr</title>
<path fill="none" stroke="black" d="M235.41,-272.63C251.47,-250.81 279.53,-212.68 297.68,-188.01"/>
<polygon fill="black" stroke="black" points="300.55,-190.03 303.65,-179.9 294.91,-185.88 300.55,-190.03"/>
</g>
<!-- pTrunc_pTr_rec&#45;&gt;pTrunc_pTr -->
<g id="edge23" class="edge">
<title>pTrunc_pTr_rec&#45;&gt;pTrunc_pTr</title>
<path fill="none" stroke="black" d="M252,-149C260.57,-145.08 270.1,-140.93 279,-137.49 363.76,-104.74 466.38,-74.1 518.71,-59.11"/>
<polygon fill="black" stroke="black" points="519.82,-62.43 528.48,-56.32 517.9,-55.7 519.82,-62.43"/>
</g>
<!-- pTrunc_pequiv_ptr -->
<g id="node22" class="node">
<title>pTrunc_pequiv_ptr</title>
<g id="a_node22"><a xlink:href="pTrunc.html#pequiv_ptr" xlink:title="pequiv_ptr">
<ellipse fill="#f070d1" stroke="black" cx="1188" cy="-163.49" rx="60.4" ry="18"/>
<ellipse fill="none" stroke="black" cx="1188" cy="-163.49" rx="64.39" ry="22"/>
<ellipse fill="none" stroke="black" cx="1188" cy="-163.49" rx="68.39" ry="26"/>
<text text-anchor="middle" x="1188" y="-159.79" font-family="Times,serif" font-size="14.00">pequiv_ptr</text>
</a>
</g>
</g>
<!-- pTrunc_pequiv_ptr&#45;&gt;pTrunc_pTr -->
<g id="edge24" class="edge">
<title>pTrunc_pequiv_ptr&#45;&gt;pTrunc_pTr</title>
<path fill="none" stroke="black" d="M1139.04,-145.31C1129.8,-142.44 1120.16,-139.68 1111,-137.49 917.17,-91.04 679.41,-62.88 589.64,-53.24"/>
<polygon fill="black" stroke="black" points="589.75,-49.73 579.44,-52.16 589.01,-56.69 589.75,-49.73"/>
</g>
<!-- pTrunc_ptr&#45;&gt;pTrunc_pTr -->
<g id="edge25" class="edge">
<title>pTrunc_ptr&#45;&gt;pTrunc_pTr</title>
<path fill="none" stroke="black" d="M332.13,-149.57C337.96,-145.45 344.62,-141.04 351,-137.49 408.4,-105.46 479.75,-76.78 520.47,-61.38"/>
<polygon fill="black" stroke="black" points="521.75,-64.64 529.89,-57.85 519.29,-58.08 521.75,-64.64"/>
</g>
</g>
</svg>
