<?xml version="1.0" encoding="UTF-8" standalone="no"?>
<!DOCTYPE svg PUBLIC "-//W3C//DTD SVG 1.1//EN"
 "http://www.w3.org/Graphics/SVG/1.1/DTD/svg11.dtd">
<!-- Generated by graphviz version 2.43.0 (0)
 -->
<!-- Title: HoTT_Homotopy_EMSpace Pages: 1 -->
<svg width="830pt" height="419pt"
 viewBox="0.00 0.00 830.00 419.00" xmlns="http://www.w3.org/2000/svg" xmlns:xlink="http://www.w3.org/1999/xlink">
<g id="graph0" class="graph" transform="scale(1 1) rotate(0) translate(4 415)">
<title>HoTT_Homotopy_EMSpace</title>
<polygon fill="white" stroke="transparent" points="-4,4 -4,-415 826,-415 826,4 -4,4"/>
<g id="clust1" class="cluster">
<title>cluster_EMSpace</title>
<polygon fill="#ffffc3" stroke="black" points="9.46,-8 9.46,-403 812.54,-403 812.54,-8 9.46,-8"/>
<text text-anchor="middle" x="51.46" y="-387.8" font-family="Times,serif" font-size="14.00">EMSpace</text>
</g>
<!-- EMSpace_iscohhspace_em -->
<g id="node1" class="node">
<title>EMSpace_iscohhspace_em</title>
<g id="a_node1"><a xlink:href="EMSpace.html#iscohhspace_em" xlink:title="iscohhspace_em">
<ellipse fill="#f070d1" stroke="black" cx="693.29" cy="-346" rx="85.27" ry="18"/>
<ellipse fill="none" stroke="black" cx="693.29" cy="-346" rx="89.28" ry="22"/>
<ellipse fill="none" stroke="black" cx="693.29" cy="-346" rx="93.29" ry="26"/>
<text text-anchor="middle" x="693.29" y="-342.3" font-family="Times,serif" font-size="14.00">iscohhspace_em</text>
</a>
</g>
</g>
<!-- EMSpace_pequiv_loops_em_em -->
<g id="node4" class="node">
<title>EMSpace_pequiv_loops_em_em</title>
<g id="a_node4"><a xlink:href="EMSpace.html#pequiv_loops_em_em" xlink:title="pequiv_loops_em_em">
<ellipse fill="#f070d1" stroke="black" cx="559.29" cy="-266" rx="107.78" ry="18"/>
<text text-anchor="middle" x="559.29" y="-262.3" font-family="Times,serif" font-size="14.00">pequiv_loops_em_em</text>
</a>
</g>
</g>
<!-- EMSpace_iscohhspace_em&#45;&gt;EMSpace_pequiv_loops_em_em -->
<g id="edge1" class="edge">
<title>EMSpace_iscohhspace_em&#45;&gt;EMSpace_pequiv_loops_em_em</title>
<path fill="none" stroke="black" d="M654.17,-322.23C636.02,-311.66 614.54,-299.16 596.61,-288.72"/>
<polygon fill="black" stroke="black" points="598,-285.48 587.6,-283.47 594.48,-291.53 598,-285.48"/>
</g>
<!-- EMSpace_equiv_g_pi_n_em -->
<g id="node2" class="node">
<title>EMSpace_equiv_g_pi_n_em</title>
<g id="a_node2"><a xlink:href="EMSpace.html#equiv_g_pi_n_em" xlink:title="equiv_g_pi_n_em">
<ellipse fill="#f070d1" stroke="black" cx="447.29" cy="-346" rx="88.29" ry="18"/>
<ellipse fill="none" stroke="black" cx="447.29" cy="-346" rx="92.29" ry="22"/>
<ellipse fill="none" stroke="black" cx="447.29" cy="-346" rx="96.28" ry="26"/>
<text text-anchor="middle" x="447.29" y="-342.3" font-family="Times,serif" font-size="14.00">equiv_g_pi_n_em</text>
</a>
</g>
</g>
<!-- EMSpace_equiv_g_pi_n_em&#45;&gt;EMSpace_pequiv_loops_em_em -->
<g id="edge2" class="edge">
<title>EMSpace_equiv_g_pi_n_em&#45;&gt;EMSpace_pequiv_loops_em_em</title>
<path fill="none" stroke="black" d="M480.9,-321.6C495.41,-311.49 512.33,-299.71 526.72,-289.68"/>
<polygon fill="black" stroke="black" points="529.11,-292.28 535.32,-283.7 525.11,-286.54 529.11,-292.28"/>
</g>
<!-- EMSpace_pequiv_loops_em_g -->
<g id="node3" class="node">
<title>EMSpace_pequiv_loops_em_g</title>
<g id="a_node3"><a xlink:href="EMSpace.html#pequiv_loops_em_g" xlink:title="pequiv_loops_em_g">
<ellipse fill="#f070d1" stroke="black" cx="184.29" cy="-346" rx="99.39" ry="18"/>
<ellipse fill="none" stroke="black" cx="184.29" cy="-346" rx="103.38" ry="22"/>
<ellipse fill="none" stroke="black" cx="184.29" cy="-346" rx="107.38" ry="26"/>
<text text-anchor="middle" x="184.29" y="-342.3" font-family="Times,serif" font-size="14.00">pequiv_loops_em_g</text>
</a>
</g>
</g>
<!-- EMSpace_pequiv_loops_em_g&#45;&gt;EMSpace_pequiv_loops_em_em -->
<g id="edge3" class="edge">
<title>EMSpace_pequiv_loops_em_g&#45;&gt;EMSpace_pequiv_loops_em_em</title>
<path fill="none" stroke="black" d="M263.82,-328.46C329.02,-314.9 420.65,-295.84 484.52,-282.55"/>
<polygon fill="black" stroke="black" points="485.45,-285.93 494.53,-280.47 484.03,-279.08 485.45,-285.93"/>
</g>
<!-- EMSpace_pequiv_ptr_loop_psusp_ -->
<g id="node5" class="node">
<title>EMSpace_pequiv_ptr_loop_psusp_</title>
<g id="a_node5"><a xlink:href="EMSpace.html#pequiv_ptr_loop_psusp'" xlink:title="pequiv_ptr_loop_psusp&#39;">
<ellipse fill="#f070d1" stroke="black" cx="404.29" cy="-186" rx="118.08" ry="18"/>
<text text-anchor="middle" x="404.29" y="-182.3" font-family="Times,serif" font-size="14.00">pequiv_ptr_loop_psusp&#39;</text>
</a>
</g>
</g>
<!-- EMSpace_pequiv_loops_em_em&#45;&gt;EMSpace_pequiv_ptr_loop_psusp_ -->
<g id="edge4" class="edge">
<title>EMSpace_pequiv_loops_em_em&#45;&gt;EMSpace_pequiv_ptr_loop_psusp_</title>
<path fill="none" stroke="black" d="M526.8,-248.65C503.24,-236.79 471.19,-220.66 445.78,-207.88"/>
<polygon fill="black" stroke="black" points="447.25,-204.7 436.74,-203.33 444.1,-210.95 447.25,-204.7"/>
</g>
<!-- EMSpace_is0connected_em -->
<g id="node6" class="node">
<title>EMSpace_is0connected_em</title>
<g id="a_node6"><a xlink:href="EMSpace.html#is0connected_em" xlink:title="is0connected_em">
<ellipse fill="#f070d1" stroke="black" cx="673.29" cy="-186" rx="90.18" ry="18"/>
<text text-anchor="middle" x="673.29" y="-182.3" font-family="Times,serif" font-size="14.00">is0connected_em</text>
</a>
</g>
</g>
<!-- EMSpace_pequiv_loops_em_em&#45;&gt;EMSpace_is0connected_em -->
<g id="edge5" class="edge">
<title>EMSpace_pequiv_loops_em_em&#45;&gt;EMSpace_is0connected_em</title>
<path fill="none" stroke="black" d="M583.75,-248.27C600.39,-236.88 622.6,-221.69 640.74,-209.28"/>
<polygon fill="black" stroke="black" points="642.99,-211.97 649.27,-203.44 639.04,-206.2 642.99,-211.97"/>
</g>
<!-- EMSpace_istrunc_em -->
<g id="node9" class="node">
<title>EMSpace_istrunc_em</title>
<g id="a_node9"><a xlink:href="EMSpace.html#istrunc_em" xlink:title="istrunc_em">
<ellipse fill="#f070d1" stroke="black" cx="729.29" cy="-106" rx="61.99" ry="18"/>
<text text-anchor="middle" x="729.29" y="-102.3" font-family="Times,serif" font-size="14.00">istrunc_em</text>
</a>
</g>
</g>
<!-- EMSpace_pequiv_loops_em_em&#45;&gt;EMSpace_istrunc_em -->
<g id="edge6" class="edge">
<title>EMSpace_pequiv_loops_em_em&#45;&gt;EMSpace_istrunc_em</title>
<path fill="none" stroke="black" d="M643.59,-254.71C695.91,-246.4 756.16,-232.64 772.29,-212 786.53,-193.79 780.02,-181.78 772.29,-160 768.51,-149.34 761.57,-139.25 754.35,-130.8"/>
<polygon fill="black" stroke="black" points="756.77,-128.26 747.44,-123.24 751.6,-132.98 756.77,-128.26"/>
</g>
<!-- EMSpace_isconnected_em -->
<g id="node8" class="node">
<title>EMSpace_isconnected_em</title>
<g id="a_node8"><a xlink:href="EMSpace.html#isconnected_em" xlink:title="isconnected_em">
<ellipse fill="#f070d1" stroke="black" cx="535.29" cy="-106" rx="84.49" ry="18"/>
<text text-anchor="middle" x="535.29" y="-102.3" font-family="Times,serif" font-size="14.00">isconnected_em</text>
</a>
</g>
</g>
<!-- EMSpace_is0connected_em&#45;&gt;EMSpace_isconnected_em -->
<g id="edge7" class="edge">
<title>EMSpace_is0connected_em&#45;&gt;EMSpace_isconnected_em</title>
<path fill="none" stroke="black" d="M644.7,-168.84C623.88,-157.07 595.49,-141.03 572.85,-128.23"/>
<polygon fill="black" stroke="black" points="574.28,-125.01 563.85,-123.14 570.83,-131.11 574.28,-125.01"/>
</g>
<!-- EMSpace_isconnected_em_ -->
<g id="node7" class="node">
<title>EMSpace_isconnected_em_</title>
<g id="a_node7"><a xlink:href="EMSpace.html#isconnected_em'" xlink:title="isconnected_em&#39;">
<ellipse fill="#f070d1" stroke="black" cx="131.29" cy="-186" rx="87.18" ry="18"/>
<ellipse fill="none" stroke="black" cx="131.29" cy="-186" rx="91.18" ry="22"/>
<ellipse fill="none" stroke="black" cx="131.29" cy="-186" rx="95.18" ry="26"/>
<text text-anchor="middle" x="131.29" y="-182.3" font-family="Times,serif" font-size="14.00">isconnected_em&#39;</text>
</a>
</g>
</g>
<!-- EMSpace_isconnected_em_&#45;&gt;EMSpace_isconnected_em -->
<g id="edge8" class="edge">
<title>EMSpace_isconnected_em_&#45;&gt;EMSpace_isconnected_em</title>
<path fill="none" stroke="black" d="M207.28,-170.33C281.29,-156.04 392.86,-134.5 464.9,-120.59"/>
<polygon fill="black" stroke="black" points="465.64,-124.01 474.79,-118.68 464.31,-117.14 465.64,-124.01"/>
</g>
<!-- EMSpace_EilenbergMacLane -->
<g id="node10" class="node">
<title>EMSpace_EilenbergMacLane</title>
<g id="a_node10"><a xlink:href="EMSpace.html#EilenbergMacLane" xlink:title="EilenbergMacLane">
<ellipse fill="#f070d1" stroke="black" cx="611.29" cy="-34" rx="98.28" ry="18"/>
<text text-anchor="middle" x="611.29" y="-30.3" font-family="Times,serif" font-size="14.00">EilenbergMacLane</text>
</a>
</g>
</g>
<!-- EMSpace_isconnected_em&#45;&gt;EMSpace_EilenbergMacLane -->
<g id="edge9" class="edge">
<title>EMSpace_isconnected_em&#45;&gt;EMSpace_EilenbergMacLane</title>
<path fill="none" stroke="black" d="M553.3,-88.41C562.98,-79.5 575.08,-68.36 585.72,-58.56"/>
<polygon fill="black" stroke="black" points="588.16,-61.06 593.15,-51.71 583.42,-55.91 588.16,-61.06"/>
</g>
<!-- EMSpace_istrunc_em&#45;&gt;EMSpace_EilenbergMacLane -->
<g id="edge10" class="edge">
<title>EMSpace_istrunc_em&#45;&gt;EMSpace_EilenbergMacLane</title>
<path fill="none" stroke="black" d="M703.4,-89.64C687.11,-79.97 665.84,-67.36 647.84,-56.68"/>
<polygon fill="black" stroke="black" points="649.16,-53.39 638.77,-51.3 645.59,-59.41 649.16,-53.39"/>
</g>
</g>
</svg>
