<?xml version="1.0" encoding="UTF-8" standalone="no"?>
<!DOCTYPE svg PUBLIC "-//W3C//DTD SVG 1.1//EN"
 "http://www.w3.org/Graphics/SVG/1.1/DTD/svg11.dtd">
<!-- Generated by graphviz version 2.43.0 (0)
 -->
<!-- Title: HoTT_Classes_theory_groups Pages: 1 -->
<svg width="2411pt" height="1210pt"
 viewBox="0.00 0.00 2411.00 1209.50" xmlns="http://www.w3.org/2000/svg" xmlns:xlink="http://www.w3.org/1999/xlink">
<g id="graph0" class="graph" transform="scale(1 1) rotate(0) translate(4 1205.5)">
<title>HoTT_Classes_theory_groups</title>
<polygon fill="white" stroke="transparent" points="-4,4 -4,-1205.5 2407,-1205.5 2407,4 -4,4"/>
<g id="clust1" class="cluster">
<title>cluster_groups</title>
<polygon fill="#ffffc3" stroke="black" points="8,-28.35 8,-1173.15 2395,-1173.15 2395,-28.35 8,-28.35"/>
<text text-anchor="middle" x="41" y="-1157.95" font-family="Times,serif" font-size="14.00">groups</text>
</g>
<!-- groups_invert_monoid_morphism -->
<g id="node1" class="node">
<title>groups_invert_monoid_morphism</title>
<g id="a_node1"><a xlink:href="groups.html#invert_monoid_morphism" xlink:title="invert_monoid_morphism">
<ellipse fill="#f070d1" stroke="black" cx="2251" cy="-971.35" rx="128.08" ry="18"/>
<ellipse fill="none" stroke="black" cx="2251" cy="-971.35" rx="132.08" ry="22"/>
<ellipse fill="none" stroke="black" cx="2251" cy="-971.35" rx="136.08" ry="26"/>
<text text-anchor="middle" x="2251" y="-967.65" font-family="Times,serif" font-size="14.00">invert_monoid_morphism</text>
</a>
</g>
</g>
<!-- groups_invert_sg_morphism -->
<g id="node2" class="node">
<title>groups_invert_sg_morphism</title>
<g id="a_node2"><a xlink:href="groups.html#invert_sg_morphism" xlink:title="invert_sg_morphism">
<ellipse fill="#f070d1" stroke="black" cx="2251" cy="-659.35" rx="104.78" ry="18"/>
<text text-anchor="middle" x="2251" y="-655.65" font-family="Times,serif" font-size="14.00">invert_sg_morphism</text>
</a>
</g>
</g>
<!-- groups_invert_monoid_morphism&#45;&gt;groups_invert_sg_morphism -->
<g id="edge1" class="edge">
<title>groups_invert_monoid_morphism&#45;&gt;groups_invert_sg_morphism</title>
<path fill="none" stroke="black" d="M2251,-945.25C2251,-887.85 2251,-747.4 2251,-687.81"/>
<polygon fill="black" stroke="black" points="2254.5,-687.66 2251,-677.66 2247.5,-687.66 2254.5,-687.66"/>
</g>
<!-- groups_compose_monoid_morphism -->
<g id="node3" class="node">
<title>groups_compose_monoid_morphism</title>
<g id="a_node3"><a xlink:href="groups.html#compose_monoid_morphism" xlink:title="compose_monoid_morphism">
<ellipse fill="#f070d1" stroke="black" cx="1948" cy="-971.35" rx="141.07" ry="18"/>
<ellipse fill="none" stroke="black" cx="1948" cy="-971.35" rx="145.07" ry="22"/>
<ellipse fill="none" stroke="black" cx="1948" cy="-971.35" rx="149.07" ry="26"/>
<text text-anchor="middle" x="1948" y="-967.65" font-family="Times,serif" font-size="14.00">compose_monoid_morphism</text>
</a>
</g>
</g>
<!-- groups_compose_sg_morphism -->
<g id="node4" class="node">
<title>groups_compose_sg_morphism</title>
<g id="a_node4"><a xlink:href="groups.html#compose_sg_morphism" xlink:title="compose_sg_morphism">
<ellipse fill="#f070d1" stroke="black" cx="1948" cy="-659.35" rx="117.78" ry="18"/>
<text text-anchor="middle" x="1948" y="-655.65" font-family="Times,serif" font-size="14.00">compose_sg_morphism</text>
</a>
</g>
</g>
<!-- groups_compose_monoid_morphism&#45;&gt;groups_compose_sg_morphism -->
<g id="edge2" class="edge">
<title>groups_compose_monoid_morphism&#45;&gt;groups_compose_sg_morphism</title>
<path fill="none" stroke="black" d="M1948,-945.25C1948,-887.85 1948,-747.4 1948,-687.81"/>
<polygon fill="black" stroke="black" points="1951.5,-687.66 1948,-677.66 1944.5,-687.66 1951.5,-687.66"/>
</g>
<!-- groups_id_monoid_morphism -->
<g id="node5" class="node">
<title>groups_id_monoid_morphism</title>
<g id="a_node5"><a xlink:href="groups.html#id_monoid_morphism" xlink:title="id_monoid_morphism">
<ellipse fill="#f070d1" stroke="black" cx="1664" cy="-971.35" rx="109.37" ry="18"/>
<ellipse fill="none" stroke="black" cx="1664" cy="-971.35" rx="113.37" ry="22"/>
<ellipse fill="none" stroke="black" cx="1664" cy="-971.35" rx="117.38" ry="26"/>
<text text-anchor="middle" x="1664" y="-967.65" font-family="Times,serif" font-size="14.00">id_monoid_morphism</text>
</a>
</g>
</g>
<!-- groups_id_sg_morphism -->
<g id="node6" class="node">
<title>groups_id_sg_morphism</title>
<g id="a_node6"><a xlink:href="groups.html#id_sg_morphism" xlink:title="id_sg_morphism">
<ellipse fill="#f070d1" stroke="black" cx="1435" cy="-971.35" rx="85.6" ry="18"/>
<ellipse fill="none" stroke="black" cx="1435" cy="-971.35" rx="89.59" ry="22"/>
<ellipse fill="none" stroke="black" cx="1435" cy="-971.35" rx="93.59" ry="26"/>
<text text-anchor="middle" x="1435" y="-967.65" font-family="Times,serif" font-size="14.00">id_sg_morphism</text>
</a>
</g>
</g>
<!-- groups_projected_ab_group -->
<g id="node7" class="node">
<title>groups_projected_ab_group</title>
<g id="a_node7"><a xlink:href="groups.html#projected_ab_group" xlink:title="projected_ab_group">
<ellipse fill="#f070d1" stroke="black" cx="1213" cy="-971.35" rx="102.08" ry="18"/>
<ellipse fill="none" stroke="black" cx="1213" cy="-971.35" rx="106.08" ry="22"/>
<ellipse fill="none" stroke="black" cx="1213" cy="-971.35" rx="110.08" ry="26"/>
<text text-anchor="middle" x="1213" y="-967.65" font-family="Times,serif" font-size="14.00">projected_ab_group</text>
</a>
</g>
</g>
<!-- groups_projected_group -->
<g id="node8" class="node">
<title>groups_projected_group</title>
<g id="a_node8"><a xlink:href="groups.html#projected_group" xlink:title="projected_group">
<ellipse fill="#f070d1" stroke="black" cx="1600" cy="-659.35" rx="86.38" ry="18"/>
<text text-anchor="middle" x="1600" y="-655.65" font-family="Times,serif" font-size="14.00">projected_group</text>
</a>
</g>
</g>
<!-- groups_projected_ab_group&#45;&gt;groups_projected_group -->
<g id="edge3" class="edge">
<title>groups_projected_ab_group&#45;&gt;groups_projected_group</title>
<path fill="none" stroke="black" d="M1243.05,-946.29C1315.57,-888.19 1499.51,-740.85 1570.98,-683.6"/>
<polygon fill="black" stroke="black" points="1573.5,-686.06 1579.12,-677.08 1569.13,-680.6 1573.5,-686.06"/>
</g>
<!-- groups_projected_comm -->
<g id="node12" class="node">
<title>groups_projected_comm</title>
<g id="a_node12"><a xlink:href="groups.html#projected_comm" xlink:title="projected_comm">
<ellipse fill="#f070d1" stroke="black" cx="1224" cy="-375.35" rx="87.18" ry="18"/>
<text text-anchor="middle" x="1224" y="-371.65" font-family="Times,serif" font-size="14.00">projected_comm</text>
</a>
</g>
</g>
<!-- groups_projected_ab_group&#45;&gt;groups_projected_comm -->
<g id="edge4" class="edge">
<title>groups_projected_ab_group&#45;&gt;groups_projected_comm</title>
<path fill="none" stroke="black" d="M1213.47,-945.21C1215.25,-848.9 1221.64,-503.88 1223.49,-403.77"/>
<polygon fill="black" stroke="black" points="1227,-403.63 1223.68,-393.57 1220,-403.5 1227,-403.63"/>
</g>
<!-- groups_projected_monoid -->
<g id="node10" class="node">
<title>groups_projected_monoid</title>
<g id="a_node10"><a xlink:href="groups.html#projected_monoid" xlink:title="projected_monoid">
<ellipse fill="#f070d1" stroke="black" cx="1422" cy="-375.35" rx="92.88" ry="18"/>
<text text-anchor="middle" x="1422" y="-371.65" font-family="Times,serif" font-size="14.00">projected_monoid</text>
</a>
</g>
</g>
<!-- groups_projected_group&#45;&gt;groups_projected_monoid -->
<g id="edge5" class="edge">
<title>groups_projected_group&#45;&gt;groups_projected_monoid</title>
<path fill="none" stroke="black" d="M1589.13,-641.14C1558.96,-593.34 1474.02,-458.77 1438.23,-402.06"/>
<polygon fill="black" stroke="black" points="1441.02,-399.93 1432.72,-393.34 1435.1,-403.67 1441.02,-399.93"/>
</g>
<!-- groups_projected_com_monoid -->
<g id="node9" class="node">
<title>groups_projected_com_monoid</title>
<g id="a_node9"><a xlink:href="groups.html#projected_com_monoid" xlink:title="projected_com_monoid">
<ellipse fill="#f070d1" stroke="black" cx="1371" cy="-659.35" rx="116.19" ry="18"/>
<ellipse fill="none" stroke="black" cx="1371" cy="-659.35" rx="120.18" ry="22"/>
<ellipse fill="none" stroke="black" cx="1371" cy="-659.35" rx="124.18" ry="26"/>
<text text-anchor="middle" x="1371" y="-655.65" font-family="Times,serif" font-size="14.00">projected_com_monoid</text>
</a>
</g>
</g>
<!-- groups_projected_com_monoid&#45;&gt;groups_projected_monoid -->
<g id="edge6" class="edge">
<title>groups_projected_com_monoid&#45;&gt;groups_projected_monoid</title>
<path fill="none" stroke="black" d="M1375.53,-633.33C1385.08,-580.5 1407.23,-458 1417.1,-403.43"/>
<polygon fill="black" stroke="black" points="1420.57,-403.92 1418.91,-393.46 1413.68,-402.68 1420.57,-403.92"/>
</g>
<!-- groups_projected_com_monoid&#45;&gt;groups_projected_comm -->
<g id="edge7" class="edge">
<title>groups_projected_com_monoid&#45;&gt;groups_projected_comm</title>
<path fill="none" stroke="black" d="M1357.95,-633.33C1330.25,-580.17 1265.76,-456.47 1237.58,-402.41"/>
<polygon fill="black" stroke="black" points="1240.64,-400.71 1232.92,-393.46 1234.44,-403.95 1240.64,-400.71"/>
</g>
<!-- groups_projected_sg -->
<g id="node13" class="node">
<title>groups_projected_sg</title>
<g id="a_node13"><a xlink:href="groups.html#projected_sg" xlink:title="projected_sg">
<ellipse fill="#f070d1" stroke="black" cx="1263" cy="-120.35" rx="69.59" ry="18"/>
<text text-anchor="middle" x="1263" y="-116.65" font-family="Times,serif" font-size="14.00">projected_sg</text>
</a>
</g>
</g>
<!-- groups_projected_monoid&#45;&gt;groups_projected_sg -->
<g id="edge8" class="edge">
<title>groups_projected_monoid&#45;&gt;groups_projected_sg</title>
<path fill="none" stroke="black" d="M1411.32,-357.36C1384,-313.88 1311.42,-198.4 1279.02,-146.84"/>
<polygon fill="black" stroke="black" points="1281.92,-144.88 1273.63,-138.27 1275.99,-148.6 1281.92,-144.88"/>
</g>
<!-- groups_projected_com_sg -->
<g id="node11" class="node">
<title>groups_projected_com_sg</title>
<g id="a_node11"><a xlink:href="groups.html#projected_com_sg" xlink:title="projected_com_sg">
<ellipse fill="#f070d1" stroke="black" cx="1108" cy="-659.35" rx="92.89" ry="18"/>
<ellipse fill="none" stroke="black" cx="1108" cy="-659.35" rx="96.89" ry="22"/>
<ellipse fill="none" stroke="black" cx="1108" cy="-659.35" rx="100.88" ry="26"/>
<text text-anchor="middle" x="1108" y="-655.65" font-family="Times,serif" font-size="14.00">projected_com_sg</text>
</a>
</g>
</g>
<!-- groups_projected_com_sg&#45;&gt;groups_projected_comm -->
<g id="edge9" class="edge">
<title>groups_projected_com_sg&#45;&gt;groups_projected_comm</title>
<path fill="none" stroke="black" d="M1118.29,-633.33C1140.11,-580.28 1190.83,-456.98 1213.14,-402.75"/>
<polygon fill="black" stroke="black" points="1216.4,-404.04 1216.96,-393.46 1209.92,-401.38 1216.4,-404.04"/>
</g>
<!-- groups_projected_com_sg&#45;&gt;groups_projected_sg -->
<g id="edge10" class="edge">
<title>groups_projected_com_sg&#45;&gt;groups_projected_sg</title>
<path fill="none" stroke="black" d="M1105.92,-633.1C1102.4,-580.5 1098.28,-455.88 1128,-357.35 1153.26,-273.61 1212.69,-187.44 1243.59,-146.24"/>
<polygon fill="black" stroke="black" points="1246.47,-148.23 1249.72,-138.15 1240.89,-144 1246.47,-148.23"/>
</g>
<!-- groups_preserves_negate -->
<g id="node14" class="node">
<title>groups_preserves_negate</title>
<g id="a_node14"><a xlink:href="groups.html#preserves_negate" xlink:title="preserves_negate">
<ellipse fill="#f070d1" stroke="black" cx="984" cy="-971.35" rx="92.89" ry="18"/>
<ellipse fill="none" stroke="black" cx="984" cy="-971.35" rx="96.89" ry="22"/>
<ellipse fill="none" stroke="black" cx="984" cy="-971.35" rx="100.88" ry="26"/>
<text text-anchor="middle" x="984" y="-967.65" font-family="Times,serif" font-size="14.00">preserves_negate</text>
</a>
</g>
</g>
<!-- groups_group_cancelL -->
<g id="node18" class="node">
<title>groups_group_cancelL</title>
<g id="a_node18"><a xlink:href="groups.html#group_cancelL" xlink:title="group_cancelL">
<ellipse fill="#f070d1" stroke="black" cx="912" cy="-659.35" rx="77.19" ry="18"/>
<text text-anchor="middle" x="912" y="-655.65" font-family="Times,serif" font-size="14.00">group_cancelL</text>
</a>
</g>
</g>
<!-- groups_preserves_negate&#45;&gt;groups_group_cancelL -->
<g id="edge11" class="edge">
<title>groups_preserves_negate&#45;&gt;groups_group_cancelL</title>
<path fill="none" stroke="black" d="M978.17,-945.25C964.81,-887.73 932.08,-746.82 918.29,-687.44"/>
<polygon fill="black" stroke="black" points="921.69,-686.61 916.02,-677.66 914.87,-688.19 921.69,-686.61"/>
</g>
<!-- groups_negate_sg_op_distr -->
<g id="node15" class="node">
<title>groups_negate_sg_op_distr</title>
<g id="a_node15"><a xlink:href="groups.html#negate_sg_op_distr" xlink:title="negate_sg_op_distr">
<ellipse fill="#f070d1" stroke="black" cx="758" cy="-971.35" rx="99.39" ry="18"/>
<ellipse fill="none" stroke="black" cx="758" cy="-971.35" rx="103.38" ry="22"/>
<ellipse fill="none" stroke="black" cx="758" cy="-971.35" rx="107.38" ry="26"/>
<text text-anchor="middle" x="758" y="-967.65" font-family="Times,serif" font-size="14.00">negate_sg_op_distr</text>
</a>
</g>
</g>
<!-- groups_negate_sg_op -->
<g id="node16" class="node">
<title>groups_negate_sg_op</title>
<g id="a_node16"><a xlink:href="groups.html#negate_sg_op" xlink:title="negate_sg_op">
<ellipse fill="#f070d1" stroke="black" cx="743" cy="-659.35" rx="73.39" ry="18"/>
<text text-anchor="middle" x="743" y="-655.65" font-family="Times,serif" font-size="14.00">negate_sg_op</text>
</a>
</g>
</g>
<!-- groups_negate_sg_op_distr&#45;&gt;groups_negate_sg_op -->
<g id="edge12" class="edge">
<title>groups_negate_sg_op_distr&#45;&gt;groups_negate_sg_op</title>
<path fill="none" stroke="black" d="M756.79,-945.25C754.01,-887.85 747.21,-747.4 744.33,-687.81"/>
<polygon fill="black" stroke="black" points="747.82,-687.48 743.84,-677.66 740.82,-687.82 747.82,-687.48"/>
</g>
<!-- groups_group_cancelR -->
<g id="node17" class="node">
<title>groups_group_cancelR</title>
<g id="a_node17"><a xlink:href="groups.html#group_cancelR" xlink:title="group_cancelR">
<ellipse fill="#f070d1" stroke="black" cx="546" cy="-971.35" rx="78.77" ry="18"/>
<ellipse fill="none" stroke="black" cx="546" cy="-971.35" rx="82.78" ry="22"/>
<ellipse fill="none" stroke="black" cx="546" cy="-971.35" rx="86.79" ry="26"/>
<text text-anchor="middle" x="546" y="-967.65" font-family="Times,serif" font-size="14.00">group_cancelR</text>
</a>
</g>
</g>
<!-- groups_negate_mon_unit -->
<g id="node19" class="node">
<title>groups_negate_mon_unit</title>
<g id="a_node19"><a xlink:href="groups.html#negate_mon_unit" xlink:title="negate_mon_unit">
<ellipse fill="#f070d1" stroke="black" cx="344" cy="-971.35" rx="89.87" ry="18"/>
<ellipse fill="none" stroke="black" cx="344" cy="-971.35" rx="93.88" ry="22"/>
<ellipse fill="none" stroke="black" cx="344" cy="-971.35" rx="97.88" ry="26"/>
<text text-anchor="middle" x="344" y="-967.65" font-family="Times,serif" font-size="14.00">negate_mon_unit</text>
</a>
</g>
</g>
<!-- groups_isinj_group_negate -->
<g id="node20" class="node">
<title>groups_isinj_group_negate</title>
<g id="a_node20"><a xlink:href="groups.html#isinj_group_negate" xlink:title="isinj_group_negate">
<ellipse fill="#f070d1" stroke="black" cx="122" cy="-971.35" rx="98.27" ry="18"/>
<ellipse fill="none" stroke="black" cx="122" cy="-971.35" rx="102.28" ry="22"/>
<ellipse fill="none" stroke="black" cx="122" cy="-971.35" rx="106.28" ry="26"/>
<text text-anchor="middle" x="122" y="-967.65" font-family="Times,serif" font-size="14.00">isinj_group_negate</text>
</a>
</g>
</g>
<!-- groups_negate_involutive -->
<g id="node21" class="node">
<title>groups_negate_involutive</title>
<g id="a_node21"><a xlink:href="groups.html#negate_involutive" xlink:title="negate_involutive">
<ellipse fill="#f070d1" stroke="black" cx="122" cy="-659.35" rx="92.88" ry="18"/>
<text text-anchor="middle" x="122" y="-655.65" font-family="Times,serif" font-size="14.00">negate_involutive</text>
</a>
</g>
</g>
<!-- groups_isinj_group_negate&#45;&gt;groups_negate_involutive -->
<g id="edge13" class="edge">
<title>groups_isinj_group_negate&#45;&gt;groups_negate_involutive</title>
<path fill="none" stroke="black" d="M122,-945.25C122,-887.85 122,-747.4 122,-687.81"/>
<polygon fill="black" stroke="black" points="125.5,-687.66 122,-677.66 118.5,-687.66 125.5,-687.66"/>
</g>
</g>
</svg>
