<?xml version="1.0" encoding="UTF-8" standalone="no"?>
<!DOCTYPE svg PUBLIC "-//W3C//DTD SVG 1.1//EN"
 "http://www.w3.org/Graphics/SVG/1.1/DTD/svg11.dtd">
<!-- Generated by graphviz version 2.43.0 (0)
 -->
<!-- Title: HoTT_Algebra_AbGroups_FreeAbelianGroup Pages: 1 -->
<svg width="1724pt" height="866pt"
 viewBox="0.00 0.00 1724.00 866.00" xmlns="http://www.w3.org/2000/svg" xmlns:xlink="http://www.w3.org/1999/xlink">
<g id="graph0" class="graph" transform="scale(1 1) rotate(0) translate(4 862)">
<title>HoTT_Algebra_AbGroups_FreeAbelianGroup</title>
<polygon fill="white" stroke="transparent" points="-4,4 -4,-862 1720,-862 1720,4 -4,4"/>
<g id="clust1" class="cluster">
<title>cluster_FreeAbelianGroup</title>
<polygon fill="#ffffc3" stroke="black" points="8,-20.25 8,-837.75 1708,-837.75 1708,-20.25 8,-20.25"/>
<text text-anchor="middle" x="81.5" y="-822.55" font-family="Times,serif" font-size="14.00">FreeAbelianGroup</text>
</g>
<!-- FreeAbelianGroup_is1functor_freeabgroup -->
<g id="node1" class="node">
<title>FreeAbelianGroup_is1functor_freeabgroup</title>
<g id="a_node1"><a xlink:href="FreeAbelianGroup.html#is1functor_freeabgroup" xlink:title="is1functor_freeabgroup">
<ellipse fill="#f070d1" stroke="black" cx="1572" cy="-693.25" rx="119.67" ry="18"/>
<ellipse fill="none" stroke="black" cx="1572" cy="-693.25" rx="123.68" ry="22"/>
<ellipse fill="none" stroke="black" cx="1572" cy="-693.25" rx="127.68" ry="26"/>
<text text-anchor="middle" x="1572" y="-689.55" font-family="Times,serif" font-size="14.00">is1functor_freeabgroup</text>
</a>
</g>
</g>
<!-- FreeAbelianGroup_is0functor_freeabgroup -->
<g id="node2" class="node">
<title>FreeAbelianGroup_is0functor_freeabgroup</title>
<g id="a_node2"><a xlink:href="FreeAbelianGroup.html#is0functor_freeabgroup" xlink:title="is0functor_freeabgroup">
<ellipse fill="#f070d1" stroke="black" cx="1572" cy="-471.25" rx="119.68" ry="18"/>
<text text-anchor="middle" x="1572" y="-467.55" font-family="Times,serif" font-size="14.00">is0functor_freeabgroup</text>
</a>
</g>
</g>
<!-- FreeAbelianGroup_is1functor_freeabgroup&#45;&gt;FreeAbelianGroup_is0functor_freeabgroup -->
<g id="edge1" class="edge">
<title>FreeAbelianGroup_is1functor_freeabgroup&#45;&gt;FreeAbelianGroup_is0functor_freeabgroup</title>
<path fill="none" stroke="black" d="M1572,-667.01C1572,-625.38 1572,-542.63 1572,-499.63"/>
<polygon fill="black" stroke="black" points="1575.5,-499.36 1572,-489.36 1568.5,-499.36 1575.5,-499.36"/>
</g>
<!-- FreeAbelianGroup_FreeAbGroup -->
<g id="node9" class="node">
<title>FreeAbelianGroup_FreeAbGroup</title>
<g id="a_node9"><a xlink:href="FreeAbelianGroup.html#FreeAbGroup" xlink:title="FreeAbGroup">
<ellipse fill="#f070d1" stroke="black" cx="1342" cy="-268.25" rx="73.39" ry="18"/>
<text text-anchor="middle" x="1342" y="-264.55" font-family="Times,serif" font-size="14.00">FreeAbGroup</text>
</a>
</g>
</g>
<!-- FreeAbelianGroup_is0functor_freeabgroup&#45;&gt;FreeAbelianGroup_FreeAbGroup -->
<g id="edge2" class="edge">
<title>FreeAbelianGroup_is0functor_freeabgroup&#45;&gt;FreeAbelianGroup_FreeAbGroup</title>
<path fill="none" stroke="black" d="M1552.79,-453.46C1511.76,-417.6 1415.51,-333.49 1368.62,-292.51"/>
<polygon fill="black" stroke="black" points="1370.83,-289.8 1361,-285.85 1366.22,-295.07 1370.83,-289.8"/>
</g>
<!-- FreeAbelianGroup_isfreeabgroup_freeabgroup -->
<g id="node3" class="node">
<title>FreeAbelianGroup_isfreeabgroup_freeabgroup</title>
<g id="a_node3"><a xlink:href="FreeAbelianGroup.html#isfreeabgroup_freeabgroup" xlink:title="isfreeabgroup_freeabgroup">
<ellipse fill="#f070d1" stroke="black" cx="669" cy="-693.25" rx="137.27" ry="18"/>
<ellipse fill="none" stroke="black" cx="669" cy="-693.25" rx="141.27" ry="22"/>
<ellipse fill="none" stroke="black" cx="669" cy="-693.25" rx="145.28" ry="26"/>
<text text-anchor="middle" x="669" y="-689.55" font-family="Times,serif" font-size="14.00">isfreeabgroup_freeabgroup</text>
</a>
</g>
</g>
<!-- FreeAbelianGroup_isfreeabgroupon_isabelianization_isfreegroup -->
<g id="node4" class="node">
<title>FreeAbelianGroup_isfreeabgroupon_isabelianization_isfreegroup</title>
<g id="a_node4"><a xlink:href="FreeAbelianGroup.html#isfreeabgroupon_isabelianization_isfreegroup" xlink:title="isfreeabgroupon_isabelianization_isfreegroup">
<ellipse fill="#f070d1" stroke="black" cx="564" cy="-471.25" rx="221.76" ry="18"/>
<text text-anchor="middle" x="564" y="-467.55" font-family="Times,serif" font-size="14.00">isfreeabgroupon_isabelianization_isfreegroup</text>
</a>
</g>
</g>
<!-- FreeAbelianGroup_isfreeabgroup_freeabgroup&#45;&gt;FreeAbelianGroup_isfreeabgroupon_isabelianization_isfreegroup -->
<g id="edge3" class="edge">
<title>FreeAbelianGroup_isfreeabgroup_freeabgroup&#45;&gt;FreeAbelianGroup_isfreeabgroupon_isabelianization_isfreegroup</title>
<path fill="none" stroke="black" d="M656.96,-667.01C636.92,-625.02 596.92,-541.23 576.55,-498.55"/>
<polygon fill="black" stroke="black" points="579.63,-496.88 572.17,-489.36 573.32,-499.89 579.63,-496.88"/>
</g>
<!-- FreeAbelianGroup_freeabgroup_in -->
<g id="node8" class="node">
<title>FreeAbelianGroup_freeabgroup_in</title>
<g id="a_node8"><a xlink:href="FreeAbelianGroup.html#freeabgroup_in" xlink:title="freeabgroup_in">
<ellipse fill="#f070d1" stroke="black" cx="1150" cy="-471.25" rx="81.49" ry="18"/>
<text text-anchor="middle" x="1150" y="-467.55" font-family="Times,serif" font-size="14.00">freeabgroup_in</text>
</a>
</g>
</g>
<!-- FreeAbelianGroup_isfreeabgroup_freeabgroup&#45;&gt;FreeAbelianGroup_freeabgroup_in -->
<g id="edge4" class="edge">
<title>FreeAbelianGroup_isfreeabgroup_freeabgroup&#45;&gt;FreeAbelianGroup_freeabgroup_in</title>
<path fill="none" stroke="black" d="M720.48,-668.7C815.88,-625.07 1018.49,-532.4 1107.06,-491.89"/>
<polygon fill="black" stroke="black" points="1108.63,-495.02 1116.27,-487.67 1105.72,-488.65 1108.63,-495.02"/>
</g>
<!-- FreeAbelianGroup_IsFreeAbGroup -->
<g id="node12" class="node">
<title>FreeAbelianGroup_IsFreeAbGroup</title>
<g id="a_node12"><a xlink:href="FreeAbelianGroup.html#IsFreeAbGroup" xlink:title="IsFreeAbGroup">
<ellipse fill="#f070d1" stroke="black" cx="243" cy="-471.25" rx="81.49" ry="18"/>
<text text-anchor="middle" x="243" y="-467.55" font-family="Times,serif" font-size="14.00">IsFreeAbGroup</text>
</a>
</g>
</g>
<!-- FreeAbelianGroup_isfreeabgroup_freeabgroup&#45;&gt;FreeAbelianGroup_IsFreeAbGroup -->
<g id="edge5" class="edge">
<title>FreeAbelianGroup_isfreeabgroup_freeabgroup&#45;&gt;FreeAbelianGroup_IsFreeAbGroup</title>
<path fill="none" stroke="black" d="M623.01,-668.49C538.97,-625.09 361.97,-533.69 282.77,-492.79"/>
<polygon fill="black" stroke="black" points="284.11,-489.54 273.61,-488.06 280.89,-495.76 284.11,-489.54"/>
</g>
<!-- FreeAbelianGroup_IsFreeAbGroupOn -->
<g id="node14" class="node">
<title>FreeAbelianGroup_IsFreeAbGroupOn</title>
<g id="a_node14"><a xlink:href="FreeAbelianGroup.html#IsFreeAbGroupOn" xlink:title="IsFreeAbGroupOn">
<ellipse fill="#f070d1" stroke="black" cx="564" cy="-268.25" rx="94.78" ry="18"/>
<text text-anchor="middle" x="564" y="-264.55" font-family="Times,serif" font-size="14.00">IsFreeAbGroupOn</text>
</a>
</g>
</g>
<!-- FreeAbelianGroup_isfreeabgroupon_isabelianization_isfreegroup&#45;&gt;FreeAbelianGroup_IsFreeAbGroupOn -->
<g id="edge6" class="edge">
<title>FreeAbelianGroup_isfreeabgroupon_isabelianization_isfreegroup&#45;&gt;FreeAbelianGroup_IsFreeAbGroupOn</title>
<path fill="none" stroke="black" d="M564,-453.11C564,-418.18 564,-338.49 564,-296.42"/>
<polygon fill="black" stroke="black" points="567.5,-296.34 564,-286.34 560.5,-296.34 567.5,-296.34"/>
</g>
<!-- FreeAbelianGroup_FreeAbGroup_ind_homotopy -->
<g id="node5" class="node">
<title>FreeAbelianGroup_FreeAbGroup_ind_homotopy</title>
<g id="a_node5"><a xlink:href="FreeAbelianGroup.html#FreeAbGroup_ind_homotopy" xlink:title="FreeAbGroup_ind_homotopy">
<ellipse fill="#f070d1" stroke="black" cx="982" cy="-693.25" rx="142.18" ry="18"/>
<ellipse fill="none" stroke="black" cx="982" cy="-693.25" rx="146.18" ry="22"/>
<ellipse fill="none" stroke="black" cx="982" cy="-693.25" rx="150.17" ry="26"/>
<text text-anchor="middle" x="982" y="-689.55" font-family="Times,serif" font-size="14.00">FreeAbGroup_ind_homotopy</text>
</a>
</g>
</g>
<!-- FreeAbelianGroup_FreeAbGroup_ind_homotopy&#45;&gt;FreeAbelianGroup_freeabgroup_in -->
<g id="edge7" class="edge">
<title>FreeAbelianGroup_FreeAbGroup_ind_homotopy&#45;&gt;FreeAbelianGroup_freeabgroup_in</title>
<path fill="none" stroke="black" d="M1000.95,-667.44C1033.22,-625.18 1098.5,-539.68 1130.89,-497.27"/>
<polygon fill="black" stroke="black" points="1133.81,-499.22 1137.09,-489.15 1128.24,-494.97 1133.81,-499.22"/>
</g>
<!-- FreeAbelianGroup_FreeAbGroup_rec_beta_in -->
<g id="node6" class="node">
<title>FreeAbelianGroup_FreeAbGroup_rec_beta_in</title>
<g id="a_node6"><a xlink:href="FreeAbelianGroup.html#FreeAbGroup_rec_beta_in" xlink:title="FreeAbGroup_rec_beta_in">
<ellipse fill="#f070d1" stroke="black" cx="1288" cy="-693.25" rx="129.98" ry="18"/>
<ellipse fill="none" stroke="black" cx="1288" cy="-693.25" rx="133.98" ry="22"/>
<ellipse fill="none" stroke="black" cx="1288" cy="-693.25" rx="137.98" ry="26"/>
<text text-anchor="middle" x="1288" y="-689.55" font-family="Times,serif" font-size="14.00">FreeAbGroup_rec_beta_in</text>
</a>
</g>
</g>
<!-- FreeAbelianGroup_FreeAbGroup_rec -->
<g id="node7" class="node">
<title>FreeAbelianGroup_FreeAbGroup_rec</title>
<g id="a_node7"><a xlink:href="FreeAbelianGroup.html#FreeAbGroup_rec" xlink:title="FreeAbGroup_rec">
<ellipse fill="#f070d1" stroke="black" cx="1342" cy="-471.25" rx="92.08" ry="18"/>
<text text-anchor="middle" x="1342" y="-467.55" font-family="Times,serif" font-size="14.00">FreeAbGroup_rec</text>
</a>
</g>
</g>
<!-- FreeAbelianGroup_FreeAbGroup_rec_beta_in&#45;&gt;FreeAbelianGroup_FreeAbGroup_rec -->
<g id="edge8" class="edge">
<title>FreeAbelianGroup_FreeAbGroup_rec_beta_in&#45;&gt;FreeAbelianGroup_FreeAbGroup_rec</title>
<path fill="none" stroke="black" d="M1294.19,-667.01C1304.46,-625.2 1324.9,-541.93 1335.41,-499.09"/>
<polygon fill="black" stroke="black" points="1338.82,-499.91 1337.8,-489.36 1332.02,-498.24 1338.82,-499.91"/>
</g>
<!-- FreeAbelianGroup_FreeAbGroup_rec_beta_in&#45;&gt;FreeAbelianGroup_freeabgroup_in -->
<g id="edge9" class="edge">
<title>FreeAbelianGroup_FreeAbGroup_rec_beta_in&#45;&gt;FreeAbelianGroup_freeabgroup_in</title>
<path fill="none" stroke="black" d="M1272.17,-667.01C1245.72,-624.85 1192.83,-540.52 1166.16,-498.01"/>
<polygon fill="black" stroke="black" points="1169.01,-495.97 1160.73,-489.36 1163.08,-499.69 1169.01,-495.97"/>
</g>
<!-- FreeAbelianGroup_FreeAbGroup_rec&#45;&gt;FreeAbelianGroup_FreeAbGroup -->
<g id="edge10" class="edge">
<title>FreeAbelianGroup_FreeAbGroup_rec&#45;&gt;FreeAbelianGroup_FreeAbGroup</title>
<path fill="none" stroke="black" d="M1342,-453.11C1342,-418.18 1342,-338.49 1342,-296.42"/>
<polygon fill="black" stroke="black" points="1345.5,-296.34 1342,-286.34 1338.5,-296.34 1345.5,-296.34"/>
</g>
<!-- FreeAbelianGroup_freeabgroup_in&#45;&gt;FreeAbelianGroup_FreeAbGroup -->
<g id="edge11" class="edge">
<title>FreeAbelianGroup_freeabgroup_in&#45;&gt;FreeAbelianGroup_FreeAbGroup</title>
<path fill="none" stroke="black" d="M1166.04,-453.46C1200.08,-417.82 1279.64,-334.53 1319.05,-293.28"/>
<polygon fill="black" stroke="black" points="1321.76,-295.5 1326.14,-285.85 1316.7,-290.66 1321.76,-295.5"/>
</g>
<!-- FreeAbelianGroup_isfreeabgroup_isfreeabgroupon -->
<g id="node10" class="node">
<title>FreeAbelianGroup_isfreeabgroup_isfreeabgroupon</title>
<g id="a_node10"><a xlink:href="FreeAbelianGroup.html#isfreeabgroup_isfreeabgroupon" xlink:title="isfreeabgroup_isfreeabgroupon">
<ellipse fill="#f070d1" stroke="black" cx="342" cy="-693.25" rx="155.97" ry="18"/>
<ellipse fill="none" stroke="black" cx="342" cy="-693.25" rx="159.97" ry="22"/>
<ellipse fill="none" stroke="black" cx="342" cy="-693.25" rx="163.97" ry="26"/>
<text text-anchor="middle" x="342" y="-689.55" font-family="Times,serif" font-size="14.00">isfreeabgroup_isfreeabgroupon</text>
</a>
</g>
</g>
<!-- FreeAbelianGroup_isfreeabgroup_isfreeabgroupon&#45;&gt;FreeAbelianGroup_IsFreeAbGroup -->
<g id="edge12" class="edge">
<title>FreeAbelianGroup_isfreeabgroup_isfreeabgroupon&#45;&gt;FreeAbelianGroup_IsFreeAbGroup</title>
<path fill="none" stroke="black" d="M330.64,-667.01C311.75,-625.02 274.04,-541.23 254.83,-498.55"/>
<polygon fill="black" stroke="black" points="258,-497.04 250.7,-489.36 251.61,-499.91 258,-497.04"/>
</g>
<!-- FreeAbelianGroup_isfreegroup -->
<g id="node11" class="node">
<title>FreeAbelianGroup_isfreegroup</title>
<g id="a_node11"><a xlink:href="FreeAbelianGroup.html#isfreegroup" xlink:title="isfreegroup">
<ellipse fill="#f070d1" stroke="black" cx="88" cy="-693.25" rx="64.21" ry="18"/>
<ellipse fill="none" stroke="black" cx="88" cy="-693.25" rx="68.2" ry="22"/>
<ellipse fill="none" stroke="black" cx="88" cy="-693.25" rx="72.19" ry="26"/>
<text text-anchor="middle" x="88" y="-689.55" font-family="Times,serif" font-size="14.00">isfreegroup</text>
</a>
</g>
</g>
<!-- FreeAbelianGroup_isfreegroup&#45;&gt;FreeAbelianGroup_IsFreeAbGroup -->
<g id="edge13" class="edge">
<title>FreeAbelianGroup_isfreegroup&#45;&gt;FreeAbelianGroup_IsFreeAbGroup</title>
<path fill="none" stroke="black" d="M105.18,-667.86C134.76,-625.88 195.03,-540.34 225.1,-497.65"/>
<polygon fill="black" stroke="black" points="228.14,-499.42 231.04,-489.23 222.42,-495.39 228.14,-499.42"/>
</g>
<!-- FreeAbelianGroup_IsFreeAbGroup&#45;&gt;FreeAbelianGroup_IsFreeAbGroupOn -->
<g id="edge14" class="edge">
<title>FreeAbelianGroup_IsFreeAbGroup&#45;&gt;FreeAbelianGroup_IsFreeAbGroupOn</title>
<path fill="none" stroke="black" d="M268.73,-454.14C325.99,-418.28 464.02,-331.85 529.03,-291.14"/>
<polygon fill="black" stroke="black" points="531.08,-293.99 537.7,-285.71 527.37,-288.06 531.08,-293.99"/>
</g>
<!-- FreeAbelianGroup_contr_isfreeabgroupon -->
<g id="node13" class="node">
<title>FreeAbelianGroup_contr_isfreeabgroupon</title>
<g id="a_node13"><a xlink:href="FreeAbelianGroup.html#contr_isfreeabgroupon" xlink:title="contr_isfreeabgroupon">
<ellipse fill="#f070d1" stroke="black" cx="927" cy="-471.25" rx="115.87" ry="18"/>
<ellipse fill="none" stroke="black" cx="927" cy="-471.25" rx="119.87" ry="22"/>
<ellipse fill="none" stroke="black" cx="927" cy="-471.25" rx="123.88" ry="26"/>
<text text-anchor="middle" x="927" y="-467.55" font-family="Times,serif" font-size="14.00">contr_isfreeabgroupon</text>
</a>
</g>
</g>
<!-- FreeAbelianGroup_contr_isfreeabgroupon&#45;&gt;FreeAbelianGroup_IsFreeAbGroupOn -->
<g id="edge15" class="edge">
<title>FreeAbelianGroup_contr_isfreeabgroupon&#45;&gt;FreeAbelianGroup_IsFreeAbGroupOn</title>
<path fill="none" stroke="black" d="M884.65,-446.8C813.41,-407.35 670.7,-328.33 602.29,-290.45"/>
<polygon fill="black" stroke="black" points="603.98,-287.39 593.54,-285.6 600.59,-293.51 603.98,-287.39"/>
</g>
<!-- FreeAbelianGroup_FactorsThroughFreeAbGroup -->
<g id="node15" class="node">
<title>FreeAbelianGroup_FactorsThroughFreeAbGroup</title>
<g id="a_node15"><a xlink:href="FreeAbelianGroup.html#FactorsThroughFreeAbGroup" xlink:title="FactorsThroughFreeAbGroup">
<ellipse fill="#f070d1" stroke="black" cx="564" cy="-86.25" rx="146.77" ry="18"/>
<text text-anchor="middle" x="564" y="-82.55" font-family="Times,serif" font-size="14.00">FactorsThroughFreeAbGroup</text>
</a>
</g>
</g>
<!-- FreeAbelianGroup_IsFreeAbGroupOn&#45;&gt;FreeAbelianGroup_FactorsThroughFreeAbGroup -->
<g id="edge16" class="edge">
<title>FreeAbelianGroup_IsFreeAbGroupOn&#45;&gt;FreeAbelianGroup_FactorsThroughFreeAbGroup</title>
<path fill="none" stroke="black" d="M564,-249.99C564,-218.67 564,-152.27 564,-114.68"/>
<polygon fill="black" stroke="black" points="567.5,-114.45 564,-104.45 560.5,-114.45 567.5,-114.45"/>
</g>
</g>
</svg>
