<?xml version="1.0" encoding="UTF-8" standalone="no"?>
<!DOCTYPE svg PUBLIC "-//W3C//DTD SVG 1.1//EN"
 "http://www.w3.org/Graphics/SVG/1.1/DTD/svg11.dtd">
<!-- Generated by graphviz version 2.43.0 (0)
 -->
<!-- Title: HoTT_Basics_Decidable Pages: 1 -->
<svg width="2772pt" height="1385pt"
 viewBox="0.00 0.00 2771.76 1385.00" xmlns="http://www.w3.org/2000/svg" xmlns:xlink="http://www.w3.org/1999/xlink">
<g id="graph0" class="graph" transform="scale(1 1) rotate(0) translate(4 1381)">
<title>HoTT_Basics_Decidable</title>
<polygon fill="white" stroke="transparent" points="-4,4 -4,-1381 2767.76,-1381 2767.76,4 -4,4"/>
<g id="clust1" class="cluster">
<title>cluster_Decidable</title>
<polygon fill="#ffffc3" stroke="black" points="8,-20.75 8,-1356.25 2746,-1356.25 2746,-20.75 8,-20.75"/>
<text text-anchor="middle" x="51.5" y="-1341.05" font-family="Times,serif" font-size="14.00">Decidable</text>
</g>
<!-- Decidable_iff_not_prod_ -->
<g id="node1" class="node">
<title>Decidable_iff_not_prod_</title>
<g id="a_node1"><a xlink:href="Decidable.html#iff_not_prod'" xlink:title="iff_not_prod&#39;">
<ellipse fill="#f070d1" stroke="black" cx="1587" cy="-751.75" rx="67.68" ry="18"/>
<ellipse fill="none" stroke="black" cx="1587" cy="-751.75" rx="71.68" ry="22"/>
<ellipse fill="none" stroke="black" cx="1587" cy="-751.75" rx="75.69" ry="26"/>
<text text-anchor="middle" x="1587" y="-748.05" font-family="Times,serif" font-size="14.00">iff_not_prod&#39;</text>
</a>
</g>
</g>
<!-- Decidable_not_prod_sum_not -->
<g id="node3" class="node">
<title>Decidable_not_prod_sum_not</title>
<g id="a_node3"><a xlink:href="Decidable.html#not_prod_sum_not" xlink:title="not_prod_sum_not">
<ellipse fill="#f070d1" stroke="black" cx="1213" cy="-523.75" rx="94.78" ry="18"/>
<text text-anchor="middle" x="1213" y="-520.05" font-family="Times,serif" font-size="14.00">not_prod_sum_not</text>
</a>
</g>
</g>
<!-- Decidable_iff_not_prod_&#45;&gt;Decidable_not_prod_sum_not -->
<g id="edge1" class="edge">
<title>Decidable_iff_not_prod_&#45;&gt;Decidable_not_prod_sum_not</title>
<path fill="none" stroke="black" d="M1550.8,-728.87C1479.25,-685.63 1320.48,-589.69 1249.05,-546.53"/>
<polygon fill="black" stroke="black" points="1250.75,-543.47 1240.38,-541.29 1247.13,-549.46 1250.75,-543.47"/>
</g>
<!-- Decidable_dec -->
<g id="node43" class="node">
<title>Decidable_dec</title>
<g id="a_node43"><a xlink:href="Decidable.html#dec" xlink:title="dec">
<ellipse fill="#f070d1" stroke="black" cx="1073" cy="-523.75" rx="27" ry="18"/>
<text text-anchor="middle" x="1073" y="-520.05" font-family="Times,serif" font-size="14.00">dec</text>
</a>
</g>
</g>
<!-- Decidable_iff_not_prod_&#45;&gt;Decidable_dec -->
<g id="edge2" class="edge">
<title>Decidable_iff_not_prod_&#45;&gt;Decidable_dec</title>
<path fill="none" stroke="black" d="M1534.78,-732.86C1445.08,-701.26 1257.13,-631.15 1109,-549.75 1105.5,-547.82 1101.92,-545.64 1098.44,-543.38"/>
<polygon fill="black" stroke="black" points="1100.35,-540.44 1090.11,-537.71 1096.41,-546.23 1100.35,-540.44"/>
</g>
<!-- Decidable_iff_not_prod -->
<g id="node2" class="node">
<title>Decidable_iff_not_prod</title>
<g id="a_node2"><a xlink:href="Decidable.html#iff_not_prod" xlink:title="iff_not_prod">
<ellipse fill="#f070d1" stroke="black" cx="1420" cy="-751.75" rx="65.77" ry="18"/>
<ellipse fill="none" stroke="black" cx="1420" cy="-751.75" rx="69.78" ry="22"/>
<ellipse fill="none" stroke="black" cx="1420" cy="-751.75" rx="73.79" ry="26"/>
<text text-anchor="middle" x="1420" y="-748.05" font-family="Times,serif" font-size="14.00">iff_not_prod</text>
</a>
</g>
</g>
<!-- Decidable_iff_not_prod&#45;&gt;Decidable_not_prod_sum_not -->
<g id="edge3" class="edge">
<title>Decidable_iff_not_prod&#45;&gt;Decidable_not_prod_sum_not</title>
<path fill="none" stroke="black" d="M1397.85,-726.56C1358.18,-683.25 1275.45,-592.92 1235.52,-549.33"/>
<polygon fill="black" stroke="black" points="1237.92,-546.77 1228.58,-541.76 1232.75,-551.49 1237.92,-546.77"/>
</g>
<!-- Decidable_iff_not_prod&#45;&gt;Decidable_dec -->
<g id="edge4" class="edge">
<title>Decidable_iff_not_prod&#45;&gt;Decidable_dec</title>
<path fill="none" stroke="black" d="M1385.24,-728.81C1327.5,-692.26 1208.34,-616.31 1109,-549.75 1105.84,-547.63 1102.55,-545.39 1099.29,-543.15"/>
<polygon fill="black" stroke="black" points="1101.08,-540.13 1090.86,-537.33 1097.1,-545.89 1101.08,-540.13"/>
</g>
<!-- Decidable_ishprop_decpaths -->
<g id="node4" class="node">
<title>Decidable_ishprop_decpaths</title>
<g id="a_node4"><a xlink:href="Decidable.html#ishprop_decpaths" xlink:title="ishprop_decpaths">
<ellipse fill="#f070d1" stroke="black" cx="1914" cy="-1208.75" rx="92.1" ry="18"/>
<ellipse fill="none" stroke="black" cx="1914" cy="-1208.75" rx="96.09" ry="22"/>
<ellipse fill="none" stroke="black" cx="1914" cy="-1208.75" rx="100.08" ry="26"/>
<text text-anchor="middle" x="1914" y="-1205.05" font-family="Times,serif" font-size="14.00">ishprop_decpaths</text>
</a>
</g>
</g>
<!-- Decidable_hset_pathcoll -->
<g id="node9" class="node">
<title>Decidable_hset_pathcoll</title>
<g id="a_node9"><a xlink:href="Decidable.html#hset_pathcoll" xlink:title="hset_pathcoll">
<ellipse fill="#f070d1" stroke="black" cx="2098" cy="-979.75" rx="72.29" ry="18"/>
<text text-anchor="middle" x="2098" y="-976.05" font-family="Times,serif" font-size="14.00">hset_pathcoll</text>
</a>
</g>
</g>
<!-- Decidable_ishprop_decpaths&#45;&gt;Decidable_hset_pathcoll -->
<g id="edge5" class="edge">
<title>Decidable_ishprop_decpaths&#45;&gt;Decidable_hset_pathcoll</title>
<path fill="none" stroke="black" d="M1934.04,-1183.02C1969.48,-1139.3 2042.79,-1048.86 2078.12,-1005.28"/>
<polygon fill="black" stroke="black" points="2080.88,-1007.43 2084.45,-997.46 2075.44,-1003.02 2080.88,-1007.43"/>
</g>
<!-- Decidable_pathcoll_decpaths -->
<g id="node10" class="node">
<title>Decidable_pathcoll_decpaths</title>
<g id="a_node10"><a xlink:href="Decidable.html#pathcoll_decpaths" xlink:title="pathcoll_decpaths">
<ellipse fill="#f070d1" stroke="black" cx="1894" cy="-979.75" rx="94.48" ry="18"/>
<text text-anchor="middle" x="1894" y="-976.05" font-family="Times,serif" font-size="14.00">pathcoll_decpaths</text>
</a>
</g>
</g>
<!-- Decidable_ishprop_decpaths&#45;&gt;Decidable_pathcoll_decpaths -->
<g id="edge6" class="edge">
<title>Decidable_ishprop_decpaths&#45;&gt;Decidable_pathcoll_decpaths</title>
<path fill="none" stroke="black" d="M1911.78,-1182.59C1908,-1139.61 1900.31,-1052.41 1896.4,-1008.03"/>
<polygon fill="black" stroke="black" points="1899.88,-1007.62 1895.52,-997.97 1892.91,-1008.24 1899.88,-1007.62"/>
</g>
<!-- Decidable_decidable_paths_refl -->
<g id="node5" class="node">
<title>Decidable_decidable_paths_refl</title>
<g id="a_node5"><a xlink:href="Decidable.html#decidable_paths_refl" xlink:title="decidable_paths_refl">
<ellipse fill="#f070d1" stroke="black" cx="1682" cy="-1208.75" rx="105.1" ry="18"/>
<ellipse fill="none" stroke="black" cx="1682" cy="-1208.75" rx="109.09" ry="22"/>
<ellipse fill="none" stroke="black" cx="1682" cy="-1208.75" rx="113.08" ry="26"/>
<text text-anchor="middle" x="1682" y="-1205.05" font-family="Times,serif" font-size="14.00">decidable_paths_refl</text>
</a>
</g>
</g>
<!-- Decidable_decidable_paths_refl&#45;&gt;Decidable_hset_pathcoll -->
<g id="edge7" class="edge">
<title>Decidable_decidable_paths_refl&#45;&gt;Decidable_hset_pathcoll</title>
<path fill="none" stroke="black" d="M1724.56,-1184.52C1806.05,-1140.05 1982.87,-1043.57 2060.35,-1001.29"/>
<polygon fill="black" stroke="black" points="2062.19,-1004.28 2069.29,-996.41 2058.83,-998.13 2062.19,-1004.28"/>
</g>
<!-- Decidable_decidable_paths_refl&#45;&gt;Decidable_pathcoll_decpaths -->
<g id="edge8" class="edge">
<title>Decidable_decidable_paths_refl&#45;&gt;Decidable_pathcoll_decpaths</title>
<path fill="none" stroke="black" d="M1705.09,-1183.02C1745.91,-1139.32 1830.32,-1048.93 1871.04,-1005.33"/>
<polygon fill="black" stroke="black" points="1873.85,-1007.45 1878.12,-997.75 1868.73,-1002.67 1873.85,-1007.45"/>
</g>
<!-- Decidable_decidable_true -->
<g id="node42" class="node">
<title>Decidable_decidable_true</title>
<g id="a_node42"><a xlink:href="Decidable.html#decidable_true" xlink:title="decidable_true">
<ellipse fill="#f070d1" stroke="black" cx="1682" cy="-979.75" rx="79.09" ry="18"/>
<text text-anchor="middle" x="1682" y="-976.05" font-family="Times,serif" font-size="14.00">decidable_true</text>
</a>
</g>
</g>
<!-- Decidable_decidable_paths_refl&#45;&gt;Decidable_decidable_true -->
<g id="edge9" class="edge">
<title>Decidable_decidable_paths_refl&#45;&gt;Decidable_decidable_true</title>
<path fill="none" stroke="black" d="M1682,-1182.59C1682,-1139.61 1682,-1052.41 1682,-1008.03"/>
<polygon fill="black" stroke="black" points="1685.5,-1007.97 1682,-997.97 1678.5,-1007.97 1685.5,-1007.97"/>
</g>
<!-- Decidable_hset_decpaths -->
<g id="node6" class="node">
<title>Decidable_hset_decpaths</title>
<g id="a_node6"><a xlink:href="Decidable.html#hset_decpaths" xlink:title="hset_decpaths">
<ellipse fill="#f070d1" stroke="black" cx="2118" cy="-1208.75" rx="77.2" ry="18"/>
<ellipse fill="none" stroke="black" cx="2118" cy="-1208.75" rx="81.19" ry="22"/>
<ellipse fill="none" stroke="black" cx="2118" cy="-1208.75" rx="85.19" ry="26"/>
<text text-anchor="middle" x="2118" y="-1205.05" font-family="Times,serif" font-size="14.00">hset_decpaths</text>
</a>
</g>
</g>
<!-- Decidable_hset_decpaths&#45;&gt;Decidable_hset_pathcoll -->
<g id="edge10" class="edge">
<title>Decidable_hset_decpaths&#45;&gt;Decidable_hset_pathcoll</title>
<path fill="none" stroke="black" d="M2115.78,-1182.59C2112,-1139.61 2104.31,-1052.41 2100.4,-1008.03"/>
<polygon fill="black" stroke="black" points="2103.88,-1007.62 2099.52,-997.97 2096.91,-1008.24 2103.88,-1007.62"/>
</g>
<!-- Decidable_hset_decpaths&#45;&gt;Decidable_pathcoll_decpaths -->
<g id="edge11" class="edge">
<title>Decidable_hset_decpaths&#45;&gt;Decidable_pathcoll_decpaths</title>
<path fill="none" stroke="black" d="M2094.03,-1183.45C2050.91,-1139.75 1960.76,-1048.4 1917.78,-1004.84"/>
<polygon fill="black" stroke="black" points="1920.08,-1002.2 1910.57,-997.54 1915.1,-1007.11 1920.08,-1002.2"/>
</g>
<!-- Decidable_pathcoll_hset -->
<g id="node7" class="node">
<title>Decidable_pathcoll_hset</title>
<g id="a_node7"><a xlink:href="Decidable.html#pathcoll_hset" xlink:title="pathcoll_hset">
<ellipse fill="#f070d1" stroke="black" cx="2159" cy="-751.75" rx="72.27" ry="18"/>
<ellipse fill="none" stroke="black" cx="2159" cy="-751.75" rx="76.28" ry="22"/>
<ellipse fill="none" stroke="black" cx="2159" cy="-751.75" rx="80.29" ry="26"/>
<text text-anchor="middle" x="2159" y="-748.05" font-family="Times,serif" font-size="14.00">pathcoll_hset</text>
</a>
</g>
</g>
<!-- Decidable_collapsible_hprop -->
<g id="node8" class="node">
<title>Decidable_collapsible_hprop</title>
<g id="a_node8"><a xlink:href="Decidable.html#collapsible_hprop" xlink:title="collapsible_hprop">
<ellipse fill="#f070d1" stroke="black" cx="1996" cy="-523.75" rx="91.78" ry="18"/>
<text text-anchor="middle" x="1996" y="-520.05" font-family="Times,serif" font-size="14.00">collapsible_hprop</text>
</a>
</g>
</g>
<!-- Decidable_pathcoll_hset&#45;&gt;Decidable_collapsible_hprop -->
<g id="edge12" class="edge">
<title>Decidable_pathcoll_hset&#45;&gt;Decidable_collapsible_hprop</title>
<path fill="none" stroke="black" d="M2141.25,-726.13C2110.06,-682.89 2045.77,-593.75 2014.24,-550.04"/>
<polygon fill="black" stroke="black" points="2016.9,-547.74 2008.21,-541.68 2011.22,-551.84 2016.9,-547.74"/>
</g>
<!-- Decidable_PathCollapsible -->
<g id="node13" class="node">
<title>Decidable_PathCollapsible</title>
<g id="a_node13"><a xlink:href="Decidable.html#PathCollapsible" xlink:title="PathCollapsible">
<ellipse fill="#f070d1" stroke="black" cx="1803" cy="-523.75" rx="83.39" ry="18"/>
<text text-anchor="middle" x="1803" y="-520.05" font-family="Times,serif" font-size="14.00">PathCollapsible</text>
</a>
</g>
</g>
<!-- Decidable_pathcoll_hset&#45;&gt;Decidable_PathCollapsible -->
<g id="edge13" class="edge">
<title>Decidable_pathcoll_hset&#45;&gt;Decidable_PathCollapsible</title>
<path fill="none" stroke="black" d="M2123.56,-728.25C2054.89,-684.65 1904.52,-589.19 1837,-546.33"/>
<polygon fill="black" stroke="black" points="1838.74,-543.29 1828.42,-540.89 1834.99,-549.2 1838.74,-543.29"/>
</g>
<!-- Decidable_Build_Collapsible -->
<g id="node20" class="node">
<title>Decidable_Build_Collapsible</title>
<g id="a_node20"><a xlink:href="Decidable.html#Build_Collapsible" xlink:title="Build_Collapsible">
<ellipse fill="#7faaff" stroke="black" cx="2275" cy="-295.75" rx="90.98" ry="18"/>
<text text-anchor="middle" x="2275" y="-292.05" font-family="Times,serif" font-size="14.00">Build_Collapsible</text>
</a>
</g>
</g>
<!-- Decidable_collapsible_hprop&#45;&gt;Decidable_Build_Collapsible -->
<g id="edge14" class="edge">
<title>Decidable_collapsible_hprop&#45;&gt;Decidable_Build_Collapsible</title>
<path fill="none" stroke="black" d="M2016.52,-506.13C2065.69,-466.29 2190.38,-365.29 2246.66,-319.7"/>
<polygon fill="black" stroke="black" points="2248.89,-322.4 2254.45,-313.39 2244.48,-316.96 2248.89,-322.4"/>
</g>
<!-- Decidable_Collapsible -->
<g id="node21" class="node">
<title>Decidable_Collapsible</title>
<g id="a_node21"><a xlink:href="Decidable.html#Collapsible" xlink:title="Collapsible">
<ellipse fill="#e2cdfa" stroke="black" cx="2104" cy="-295.75" rx="61.99" ry="18"/>
<text text-anchor="middle" x="2104" y="-292.05" font-family="Times,serif" font-size="14.00">Collapsible</text>
</a>
</g>
</g>
<!-- Decidable_collapsible_hprop&#45;&gt;Decidable_Collapsible -->
<g id="edge15" class="edge">
<title>Decidable_collapsible_hprop&#45;&gt;Decidable_Collapsible</title>
<path fill="none" stroke="black" d="M2004.12,-505.76C2022.85,-466.56 2069.19,-369.58 2091.55,-322.8"/>
<polygon fill="black" stroke="black" points="2094.78,-324.15 2095.94,-313.62 2088.47,-321.13 2094.78,-324.15"/>
</g>
<!-- Decidable_path_coll -->
<g id="node12" class="node">
<title>Decidable_path_coll</title>
<g id="a_node12"><a xlink:href="Decidable.html#path_coll" xlink:title="path_coll">
<ellipse fill="#f070d1" stroke="black" cx="2009" cy="-751.75" rx="51.99" ry="18"/>
<text text-anchor="middle" x="2009" y="-748.05" font-family="Times,serif" font-size="14.00">path_coll</text>
</a>
</g>
</g>
<!-- Decidable_hset_pathcoll&#45;&gt;Decidable_path_coll -->
<g id="edge16" class="edge">
<title>Decidable_hset_pathcoll&#45;&gt;Decidable_path_coll</title>
<path fill="none" stroke="black" d="M2091.31,-961.76C2075.91,-922.64 2037.84,-825.98 2019.38,-779.1"/>
<polygon fill="black" stroke="black" points="2022.57,-777.64 2015.65,-769.62 2016.05,-780.21 2022.57,-777.64"/>
</g>
<!-- Decidable_collapse -->
<g id="node15" class="node">
<title>Decidable_collapse</title>
<g id="a_node15"><a xlink:href="Decidable.html#collapse" xlink:title="collapse">
<ellipse fill="#f070d1" stroke="black" cx="2305" cy="-751.75" rx="48.19" ry="18"/>
<text text-anchor="middle" x="2305" y="-748.05" font-family="Times,serif" font-size="14.00">collapse</text>
</a>
</g>
</g>
<!-- Decidable_hset_pathcoll&#45;&gt;Decidable_collapse -->
<g id="edge17" class="edge">
<title>Decidable_hset_pathcoll&#45;&gt;Decidable_collapse</title>
<path fill="none" stroke="black" d="M2113.22,-962.13C2149.5,-922.52 2241.15,-822.46 2283.25,-776.5"/>
<polygon fill="black" stroke="black" points="2285.86,-778.82 2290.04,-769.08 2280.7,-774.09 2285.86,-778.82"/>
</g>
<!-- Decidable_wconst -->
<g id="node23" class="node">
<title>Decidable_wconst</title>
<g id="a_node23"><a xlink:href="Decidable.html#wconst" xlink:title="wconst">
<ellipse fill="#f070d1" stroke="black" cx="2694" cy="-295.75" rx="43.59" ry="18"/>
<text text-anchor="middle" x="2694" y="-292.05" font-family="Times,serif" font-size="14.00">wconst</text>
</a>
</g>
</g>
<!-- Decidable_hset_pathcoll&#45;&gt;Decidable_wconst -->
<g id="edge18" class="edge">
<title>Decidable_hset_pathcoll&#45;&gt;Decidable_wconst</title>
<path fill="none" stroke="black" d="M2154.9,-968.62C2293.59,-942.69 2642.72,-869.42 2711,-777.75 2816.08,-636.65 2736.82,-402.28 2705.36,-323.51"/>
<polygon fill="black" stroke="black" points="2708.44,-321.8 2701.43,-313.86 2701.96,-324.44 2708.44,-321.8"/>
</g>
<!-- Decidable_collapsible_decidable -->
<g id="node11" class="node">
<title>Decidable_collapsible_decidable</title>
<g id="a_node11"><a xlink:href="Decidable.html#collapsible_decidable" xlink:title="collapsible_decidable">
<ellipse fill="#f070d1" stroke="black" cx="1810" cy="-751.75" rx="108.58" ry="18"/>
<text text-anchor="middle" x="1810" y="-748.05" font-family="Times,serif" font-size="14.00">collapsible_decidable</text>
</a>
</g>
</g>
<!-- Decidable_pathcoll_decpaths&#45;&gt;Decidable_collapsible_decidable -->
<g id="edge19" class="edge">
<title>Decidable_pathcoll_decpaths&#45;&gt;Decidable_collapsible_decidable</title>
<path fill="none" stroke="black" d="M1887.69,-961.76C1873.18,-922.74 1837.4,-826.46 1819.92,-779.44"/>
<polygon fill="black" stroke="black" points="1823.15,-778.08 1816.39,-769.93 1816.59,-780.52 1823.15,-778.08"/>
</g>
<!-- Decidable_pathcoll_decpaths&#45;&gt;Decidable_PathCollapsible -->
<g id="edge20" class="edge">
<title>Decidable_pathcoll_decpaths&#45;&gt;Decidable_PathCollapsible</title>
<path fill="none" stroke="black" d="M1901.06,-961.52C1917.03,-920.12 1952.64,-812.04 1928,-725.75 1907.89,-655.33 1855.2,-585.54 1825.04,-549.64"/>
<polygon fill="black" stroke="black" points="1827.4,-547.01 1818.25,-541.67 1822.07,-551.55 1827.4,-547.01"/>
</g>
<!-- Decidable_dec_paths -->
<g id="node39" class="node">
<title>Decidable_dec_paths</title>
<g id="a_node39"><a xlink:href="Decidable.html#dec_paths" xlink:title="dec_paths">
<ellipse fill="#f070d1" stroke="black" cx="803" cy="-751.75" rx="57.39" ry="18"/>
<text text-anchor="middle" x="803" y="-748.05" font-family="Times,serif" font-size="14.00">dec_paths</text>
</a>
</g>
</g>
<!-- Decidable_pathcoll_decpaths&#45;&gt;Decidable_dec_paths -->
<g id="edge21" class="edge">
<title>Decidable_pathcoll_decpaths&#45;&gt;Decidable_dec_paths</title>
<path fill="none" stroke="black" d="M1831.89,-966.15C1812.11,-962.16 1790.14,-957.74 1770,-953.75 1369.79,-874.32 1261.4,-889.52 869,-777.75 861.38,-775.57 853.39,-772.9 845.72,-770.13"/>
<polygon fill="black" stroke="black" points="846.8,-766.79 836.21,-766.58 844.35,-773.35 846.8,-766.79"/>
</g>
<!-- Decidable_collapsible_decidable&#45;&gt;Decidable_Build_Collapsible -->
<g id="edge22" class="edge">
<title>Decidable_collapsible_decidable&#45;&gt;Decidable_Build_Collapsible</title>
<path fill="none" stroke="black" d="M1878.77,-737.76C2084.17,-698.66 2680.6,-582.72 2707,-549.75 2721.45,-531.71 2719.43,-517.23 2707,-497.75 2663.82,-430.03 2437.58,-349.39 2330.84,-314.4"/>
<polygon fill="black" stroke="black" points="2331.8,-311.03 2321.2,-311.26 2329.63,-317.68 2331.8,-311.03"/>
</g>
<!-- Decidable_collapsible_decidable&#45;&gt;Decidable_Collapsible -->
<g id="edge23" class="edge">
<title>Decidable_collapsible_decidable&#45;&gt;Decidable_Collapsible</title>
<path fill="none" stroke="black" d="M1760.97,-735.57C1656.37,-700.63 1427.13,-608.92 1507,-497.75 1628.93,-328.04 1901.43,-299.69 2031.81,-296.23"/>
<polygon fill="black" stroke="black" points="2032.16,-299.72 2042.08,-296 2032.01,-292.72 2032.16,-299.72"/>
</g>
<!-- Decidable_collapsible_decidable&#45;&gt;Decidable_dec -->
<g id="edge24" class="edge">
<title>Decidable_collapsible_decidable&#45;&gt;Decidable_dec</title>
<path fill="none" stroke="black" d="M1738.09,-738.22C1607.93,-713.81 1326.6,-653.02 1109,-549.75 1105.39,-548.03 1101.75,-545.97 1098.24,-543.78"/>
<polygon fill="black" stroke="black" points="1100.13,-540.83 1089.88,-538.17 1096.23,-546.64 1100.13,-540.83"/>
</g>
<!-- Decidable_path_coll&#45;&gt;Decidable_PathCollapsible -->
<g id="edge25" class="edge">
<title>Decidable_path_coll&#45;&gt;Decidable_PathCollapsible</title>
<path fill="none" stroke="black" d="M1993.85,-734.13C1957.93,-694.72 1867.43,-595.43 1825.26,-549.17"/>
<polygon fill="black" stroke="black" points="1827.77,-546.73 1818.45,-541.7 1822.6,-551.44 1827.77,-546.73"/>
</g>
<!-- Decidable_PathCollapsible&#45;&gt;Decidable_Collapsible -->
<g id="edge26" class="edge">
<title>Decidable_PathCollapsible&#45;&gt;Decidable_Collapsible</title>
<path fill="none" stroke="black" d="M1825.13,-506.13C1878.45,-466.1 2014.02,-364.3 2074.31,-319.04"/>
<polygon fill="black" stroke="black" points="2076.75,-321.58 2082.64,-312.78 2072.54,-315.99 2076.75,-321.58"/>
</g>
<!-- Decidable_wconst_collapse -->
<g id="node14" class="node">
<title>Decidable_wconst_collapse</title>
<g id="a_node14"><a xlink:href="Decidable.html#wconst_collapse" xlink:title="wconst_collapse">
<ellipse fill="#f070d1" stroke="black" cx="1609" cy="-523.75" rx="85.27" ry="18"/>
<ellipse fill="none" stroke="black" cx="1609" cy="-523.75" rx="89.28" ry="22"/>
<ellipse fill="none" stroke="black" cx="1609" cy="-523.75" rx="93.29" ry="26"/>
<text text-anchor="middle" x="1609" y="-520.05" font-family="Times,serif" font-size="14.00">wconst_collapse</text>
</a>
</g>
</g>
<!-- Decidable_wconst_collapse&#45;&gt;Decidable_Collapsible -->
<g id="edge27" class="edge">
<title>Decidable_wconst_collapse&#45;&gt;Decidable_Collapsible</title>
<path fill="none" stroke="black" d="M1656.01,-501.28C1752.63,-457.17 1972.04,-356.99 2063.15,-315.4"/>
<polygon fill="black" stroke="black" points="2064.69,-318.54 2072.33,-311.2 2061.78,-312.17 2064.69,-318.54"/>
</g>
<!-- Decidable_collapse&#45;&gt;Decidable_Collapsible -->
<g id="edge28" class="edge">
<title>Decidable_collapse&#45;&gt;Decidable_Collapsible</title>
<path fill="none" stroke="black" d="M2283,-735.64C2241.6,-705.76 2153.05,-634.62 2117,-549.75 2084.54,-473.32 2092.89,-372.02 2099.51,-324.1"/>
<polygon fill="black" stroke="black" points="2103.01,-324.31 2101,-313.91 2096.09,-323.29 2103.01,-324.31"/>
</g>
<!-- Decidable_Collapsible_sind -->
<g id="node16" class="node">
<title>Decidable_Collapsible_sind</title>
<g id="a_node16"><a xlink:href="Decidable.html#Collapsible_sind" xlink:title="Collapsible_sind">
<ellipse fill="#f070d1" stroke="black" cx="2220" cy="-523.75" rx="85.6" ry="18"/>
<ellipse fill="none" stroke="black" cx="2220" cy="-523.75" rx="89.59" ry="22"/>
<ellipse fill="none" stroke="black" cx="2220" cy="-523.75" rx="93.59" ry="26"/>
<text text-anchor="middle" x="2220" y="-520.05" font-family="Times,serif" font-size="14.00">Collapsible_sind</text>
</a>
</g>
</g>
<!-- Decidable_Collapsible_sind&#45;&gt;Decidable_Build_Collapsible -->
<g id="edge29" class="edge">
<title>Decidable_Collapsible_sind&#45;&gt;Decidable_Build_Collapsible</title>
<path fill="none" stroke="black" d="M2226.1,-497.7C2236.53,-454.82 2257.73,-367.73 2268.46,-323.63"/>
<polygon fill="black" stroke="black" points="2271.86,-324.44 2270.83,-313.89 2265.06,-322.78 2271.86,-324.44"/>
</g>
<!-- Decidable_Collapsible_sind&#45;&gt;Decidable_Collapsible -->
<g id="edge30" class="edge">
<title>Decidable_Collapsible_sind&#45;&gt;Decidable_Collapsible</title>
<path fill="none" stroke="black" d="M2207.14,-497.7C2184.99,-454.53 2139.83,-366.56 2117.34,-322.74"/>
<polygon fill="black" stroke="black" points="2120.33,-320.9 2112.65,-313.6 2114.1,-324.09 2120.33,-320.9"/>
</g>
<!-- Decidable_Collapsible_rec -->
<g id="node17" class="node">
<title>Decidable_Collapsible_rec</title>
<g id="a_node17"><a xlink:href="Decidable.html#Collapsible_rec" xlink:title="Collapsible_rec">
<ellipse fill="#f070d1" stroke="black" cx="2613" cy="-751.75" rx="81.46" ry="18"/>
<ellipse fill="none" stroke="black" cx="2613" cy="-751.75" rx="85.48" ry="22"/>
<ellipse fill="none" stroke="black" cx="2613" cy="-751.75" rx="89.49" ry="26"/>
<text text-anchor="middle" x="2613" y="-748.05" font-family="Times,serif" font-size="14.00">Collapsible_rec</text>
</a>
</g>
</g>
<!-- Decidable_Collapsible_rect -->
<g id="node19" class="node">
<title>Decidable_Collapsible_rect</title>
<g id="a_node19"><a xlink:href="Decidable.html#Collapsible_rect" xlink:title="Collapsible_rect">
<ellipse fill="#f070d1" stroke="black" cx="2613" cy="-523.75" rx="85.29" ry="18"/>
<text text-anchor="middle" x="2613" y="-520.05" font-family="Times,serif" font-size="14.00">Collapsible_rect</text>
</a>
</g>
</g>
<!-- Decidable_Collapsible_rec&#45;&gt;Decidable_Collapsible_rect -->
<g id="edge31" class="edge">
<title>Decidable_Collapsible_rec&#45;&gt;Decidable_Collapsible_rect</title>
<path fill="none" stroke="black" d="M2613,-725.7C2613,-682.91 2613,-596.09 2613,-551.91"/>
<polygon fill="black" stroke="black" points="2616.5,-551.89 2613,-541.89 2609.5,-551.89 2616.5,-551.89"/>
</g>
<!-- Decidable_Collapsible_ind -->
<g id="node18" class="node">
<title>Decidable_Collapsible_ind</title>
<g id="a_node18"><a xlink:href="Decidable.html#Collapsible_ind" xlink:title="Collapsible_ind">
<ellipse fill="#7fffd4" stroke="black" cx="2421" cy="-523.75" rx="81.46" ry="18"/>
<ellipse fill="none" stroke="black" cx="2421" cy="-523.75" rx="85.48" ry="22"/>
<ellipse fill="none" stroke="black" cx="2421" cy="-523.75" rx="89.49" ry="26"/>
<text text-anchor="middle" x="2421" y="-520.05" font-family="Times,serif" font-size="14.00">Collapsible_ind</text>
</a>
</g>
</g>
<!-- Decidable_Collapsible_ind&#45;&gt;Decidable_Build_Collapsible -->
<g id="edge32" class="edge">
<title>Decidable_Collapsible_ind&#45;&gt;Decidable_Build_Collapsible</title>
<path fill="none" stroke="black" d="M2405.1,-498.13C2377.22,-454.98 2319.82,-366.12 2291.51,-322.31"/>
<polygon fill="black" stroke="black" points="2294.3,-320.18 2285.94,-313.68 2288.42,-323.98 2294.3,-320.18"/>
</g>
<!-- Decidable_Collapsible_ind&#45;&gt;Decidable_Collapsible -->
<g id="edge33" class="edge">
<title>Decidable_Collapsible_ind&#45;&gt;Decidable_Collapsible</title>
<path fill="none" stroke="black" d="M2388.27,-499.41C2326.75,-455.55 2194.7,-361.41 2134.74,-318.66"/>
<polygon fill="black" stroke="black" points="2136.61,-315.69 2126.43,-312.74 2132.54,-321.39 2136.61,-315.69"/>
</g>
<!-- Decidable_Collapsible_rect&#45;&gt;Decidable_Build_Collapsible -->
<g id="edge34" class="edge">
<title>Decidable_Collapsible_rect&#45;&gt;Decidable_Build_Collapsible</title>
<path fill="none" stroke="black" d="M2588.69,-506.49C2529.15,-466.68 2375.96,-364.25 2308.14,-318.91"/>
<polygon fill="black" stroke="black" points="2309.8,-315.8 2299.54,-313.16 2305.91,-321.62 2309.8,-315.8"/>
</g>
<!-- Decidable_Collapsible_rect&#45;&gt;Decidable_Collapsible -->
<g id="edge35" class="edge">
<title>Decidable_Collapsible_rect&#45;&gt;Decidable_Collapsible</title>
<path fill="none" stroke="black" d="M2578.01,-507.21C2487.16,-466.87 2243.97,-358.89 2145.88,-315.34"/>
<polygon fill="black" stroke="black" points="2147.13,-312.07 2136.57,-311.21 2144.29,-318.46 2147.13,-312.07"/>
</g>
<!-- Decidable_WeaklyConstant -->
<g id="node24" class="node">
<title>Decidable_WeaklyConstant</title>
<g id="a_node24"><a xlink:href="Decidable.html#WeaklyConstant" xlink:title="WeaklyConstant">
<ellipse fill="#f070d1" stroke="black" cx="2391" cy="-87.75" rx="85.59" ry="18"/>
<text text-anchor="middle" x="2391" y="-84.05" font-family="Times,serif" font-size="14.00">WeaklyConstant</text>
</a>
</g>
</g>
<!-- Decidable_Build_Collapsible&#45;&gt;Decidable_WeaklyConstant -->
<g id="edge36" class="edge">
<title>Decidable_Build_Collapsible&#45;&gt;Decidable_WeaklyConstant</title>
<path fill="none" stroke="black" d="M2284.69,-277.54C2305.04,-241.4 2352.33,-157.42 2376.38,-114.71"/>
<polygon fill="black" stroke="black" points="2379.56,-116.19 2381.42,-105.76 2373.46,-112.76 2379.56,-116.19"/>
</g>
<!-- Decidable_Collapsible&#45;&gt;Decidable_WeaklyConstant -->
<g id="edge37" class="edge">
<title>Decidable_Collapsible&#45;&gt;Decidable_WeaklyConstant</title>
<path fill="none" stroke="black" d="M2126.04,-278.92C2176.61,-242.63 2301.07,-153.29 2359.61,-111.28"/>
<polygon fill="black" stroke="black" points="2362,-113.87 2368.09,-105.19 2357.92,-108.18 2362,-113.87"/>
</g>
<!-- Decidable_wconst_through_hprop -->
<g id="node22" class="node">
<title>Decidable_wconst_through_hprop</title>
<g id="a_node22"><a xlink:href="Decidable.html#wconst_through_hprop" xlink:title="wconst_through_hprop">
<ellipse fill="#f070d1" stroke="black" cx="2508" cy="-295.75" rx="116.19" ry="18"/>
<ellipse fill="none" stroke="black" cx="2508" cy="-295.75" rx="120.18" ry="22"/>
<ellipse fill="none" stroke="black" cx="2508" cy="-295.75" rx="124.18" ry="26"/>
<text text-anchor="middle" x="2508" y="-292.05" font-family="Times,serif" font-size="14.00">wconst_through_hprop</text>
</a>
</g>
</g>
<!-- Decidable_wconst_through_hprop&#45;&gt;Decidable_WeaklyConstant -->
<g id="edge38" class="edge">
<title>Decidable_wconst_through_hprop&#45;&gt;Decidable_WeaklyConstant</title>
<path fill="none" stroke="black" d="M2493.89,-269.9C2471.61,-230.67 2428.48,-154.74 2405.79,-114.78"/>
<polygon fill="black" stroke="black" points="2408.73,-112.87 2400.74,-105.9 2402.64,-116.33 2408.73,-112.87"/>
</g>
<!-- Decidable_wconst&#45;&gt;Decidable_WeaklyConstant -->
<g id="edge39" class="edge">
<title>Decidable_wconst&#45;&gt;Decidable_WeaklyConstant</title>
<path fill="none" stroke="black" d="M2672.21,-279.93C2619.7,-244.23 2485.93,-153.28 2423.72,-110.99"/>
<polygon fill="black" stroke="black" points="2425.32,-107.85 2415.08,-105.12 2421.39,-113.64 2425.32,-107.85"/>
</g>
<!-- Decidable_decidablepaths_equiv_ -->
<g id="node25" class="node">
<title>Decidable_decidablepaths_equiv_</title>
<g id="a_node25"><a xlink:href="Decidable.html#decidablepaths_equiv'" xlink:title="decidablepaths_equiv&#39;">
<ellipse fill="#f070d1" stroke="black" cx="633" cy="-979.75" rx="113.17" ry="18"/>
<ellipse fill="none" stroke="black" cx="633" cy="-979.75" rx="117.18" ry="22"/>
<ellipse fill="none" stroke="black" cx="633" cy="-979.75" rx="121.18" ry="26"/>
<text text-anchor="middle" x="633" y="-976.05" font-family="Times,serif" font-size="14.00">decidablepaths_equiv&#39;</text>
</a>
</g>
</g>
<!-- Decidable_decidablepaths_equiv -->
<g id="node26" class="node">
<title>Decidable_decidablepaths_equiv</title>
<g id="a_node26"><a xlink:href="Decidable.html#decidablepaths_equiv" xlink:title="decidablepaths_equiv">
<ellipse fill="#f070d1" stroke="black" cx="617" cy="-751.75" rx="110.48" ry="18"/>
<text text-anchor="middle" x="617" y="-748.05" font-family="Times,serif" font-size="14.00">decidablepaths_equiv</text>
</a>
</g>
</g>
<!-- Decidable_decidablepaths_equiv_&#45;&gt;Decidable_decidablepaths_equiv -->
<g id="edge40" class="edge">
<title>Decidable_decidablepaths_equiv_&#45;&gt;Decidable_decidablepaths_equiv</title>
<path fill="none" stroke="black" d="M631.23,-953.7C628.2,-910.91 622.05,-824.09 618.92,-779.91"/>
<polygon fill="black" stroke="black" points="622.41,-779.62 618.21,-769.89 615.43,-780.12 622.41,-779.62"/>
</g>
<!-- Decidable_DecidablePaths -->
<g id="node40" class="node">
<title>Decidable_DecidablePaths</title>
<g id="a_node40"><a xlink:href="Decidable.html#DecidablePaths" xlink:title="DecidablePaths">
<ellipse fill="#f070d1" stroke="black" cx="352" cy="-523.75" rx="82.59" ry="18"/>
<text text-anchor="middle" x="352" y="-520.05" font-family="Times,serif" font-size="14.00">DecidablePaths</text>
</a>
</g>
</g>
<!-- Decidable_decidablepaths_equiv&#45;&gt;Decidable_DecidablePaths -->
<g id="edge41" class="edge">
<title>Decidable_decidablepaths_equiv&#45;&gt;Decidable_DecidablePaths</title>
<path fill="none" stroke="black" d="M597.08,-733.76C550.14,-693.73 432.52,-593.42 379.13,-547.88"/>
<polygon fill="black" stroke="black" points="381.31,-545.14 371.43,-541.32 376.77,-550.47 381.31,-545.14"/>
</g>
<!-- Decidable_decidable_equiv -->
<g id="node27" class="node">
<title>Decidable_decidable_equiv</title>
<g id="a_node27"><a xlink:href="Decidable.html#decidable_equiv" xlink:title="decidable_equiv">
<ellipse fill="#f070d1" stroke="black" cx="401" cy="-979.75" rx="85.27" ry="18"/>
<ellipse fill="none" stroke="black" cx="401" cy="-979.75" rx="89.28" ry="22"/>
<ellipse fill="none" stroke="black" cx="401" cy="-979.75" rx="93.29" ry="26"/>
<text text-anchor="middle" x="401" y="-976.05" font-family="Times,serif" font-size="14.00">decidable_equiv</text>
</a>
</g>
</g>
<!-- Decidable_decidable_equiv_ -->
<g id="node28" class="node">
<title>Decidable_decidable_equiv_</title>
<g id="a_node28"><a xlink:href="Decidable.html#decidable_equiv'" xlink:title="decidable_equiv&#39;">
<ellipse fill="#f070d1" stroke="black" cx="401" cy="-751.75" rx="87.18" ry="18"/>
<text text-anchor="middle" x="401" y="-748.05" font-family="Times,serif" font-size="14.00">decidable_equiv&#39;</text>
</a>
</g>
</g>
<!-- Decidable_decidable_equiv&#45;&gt;Decidable_decidable_equiv_ -->
<g id="edge42" class="edge">
<title>Decidable_decidable_equiv&#45;&gt;Decidable_decidable_equiv_</title>
<path fill="none" stroke="black" d="M401,-953.7C401,-910.91 401,-824.09 401,-779.91"/>
<polygon fill="black" stroke="black" points="404.5,-779.89 401,-769.89 397.5,-779.89 404.5,-779.89"/>
</g>
<!-- Decidable_decidable_iff -->
<g id="node29" class="node">
<title>Decidable_decidable_iff</title>
<g id="a_node29"><a xlink:href="Decidable.html#decidable_iff" xlink:title="decidable_iff">
<ellipse fill="#f070d1" stroke="black" cx="183" cy="-523.75" rx="68.79" ry="18"/>
<text text-anchor="middle" x="183" y="-520.05" font-family="Times,serif" font-size="14.00">decidable_iff</text>
</a>
</g>
</g>
<!-- Decidable_decidable_equiv_&#45;&gt;Decidable_decidable_iff -->
<g id="edge43" class="edge">
<title>Decidable_decidable_equiv_&#45;&gt;Decidable_decidable_iff</title>
<path fill="none" stroke="black" d="M384.61,-733.76C346.24,-693.97 250.43,-594.65 206.13,-548.73"/>
<polygon fill="black" stroke="black" points="208.44,-546.08 198.98,-541.32 203.41,-550.94 208.44,-546.08"/>
</g>
<!-- Decidable_Decidable -->
<g id="node44" class="node">
<title>Decidable_Decidable</title>
<g id="a_node44"><a xlink:href="Decidable.html#Decidable" xlink:title="Decidable">
<ellipse fill="#f070d1" stroke="black" cx="837" cy="-295.75" rx="56.59" ry="18"/>
<text text-anchor="middle" x="837" y="-292.05" font-family="Times,serif" font-size="14.00">Decidable</text>
</a>
</g>
</g>
<!-- Decidable_decidable_iff&#45;&gt;Decidable_Decidable -->
<g id="edge44" class="edge">
<title>Decidable_decidable_iff&#45;&gt;Decidable_Decidable</title>
<path fill="none" stroke="black" d="M222.93,-508.95C337.68,-469.29 668.05,-355.13 790.56,-312.8"/>
<polygon fill="black" stroke="black" points="791.74,-316.09 800.04,-309.52 789.45,-309.47 791.74,-316.09"/>
</g>
<!-- Decidable_decidable_empty -->
<g id="node30" class="node">
<title>Decidable_decidable_empty</title>
<g id="a_node30"><a xlink:href="Decidable.html#decidable_empty" xlink:title="decidable_empty">
<ellipse fill="#f070d1" stroke="black" cx="735" cy="-523.75" rx="89.08" ry="18"/>
<ellipse fill="none" stroke="black" cx="735" cy="-523.75" rx="93.08" ry="22"/>
<ellipse fill="none" stroke="black" cx="735" cy="-523.75" rx="97.08" ry="26"/>
<text text-anchor="middle" x="735" y="-520.05" font-family="Times,serif" font-size="14.00">decidable_empty</text>
</a>
</g>
</g>
<!-- Decidable_decidable_empty&#45;&gt;Decidable_Decidable -->
<g id="edge45" class="edge">
<title>Decidable_decidable_empty&#45;&gt;Decidable_Decidable</title>
<path fill="none" stroke="black" d="M746.31,-497.7C765.79,-454.53 805.49,-366.56 825.27,-322.74"/>
<polygon fill="black" stroke="black" points="828.47,-324.15 829.39,-313.6 822.09,-321.27 828.47,-324.15"/>
</g>
<!-- Decidable_decidablepaths_hprop -->
<g id="node31" class="node">
<title>Decidable_decidablepaths_hprop</title>
<g id="a_node31"><a xlink:href="Decidable.html#decidablepaths_hprop" xlink:title="decidablepaths_hprop">
<ellipse fill="#f070d1" stroke="black" cx="1208" cy="-751.75" rx="112.38" ry="18"/>
<ellipse fill="none" stroke="black" cx="1208" cy="-751.75" rx="116.38" ry="22"/>
<ellipse fill="none" stroke="black" cx="1208" cy="-751.75" rx="120.38" ry="26"/>
<text text-anchor="middle" x="1208" y="-748.05" font-family="Times,serif" font-size="14.00">decidablepaths_hprop</text>
</a>
</g>
</g>
<!-- Decidable_decidable_contr -->
<g id="node32" class="node">
<title>Decidable_decidable_contr</title>
<g id="a_node32"><a xlink:href="Decidable.html#decidable_contr" xlink:title="decidable_contr">
<ellipse fill="#f070d1" stroke="black" cx="536" cy="-523.75" rx="83.69" ry="18"/>
<text text-anchor="middle" x="536" y="-520.05" font-family="Times,serif" font-size="14.00">decidable_contr</text>
</a>
</g>
</g>
<!-- Decidable_decidablepaths_hprop&#45;&gt;Decidable_decidable_contr -->
<g id="edge46" class="edge">
<title>Decidable_decidablepaths_hprop&#45;&gt;Decidable_decidable_contr</title>
<path fill="none" stroke="black" d="M1144.78,-729.48C1012.92,-685.14 710.7,-583.5 588.6,-542.44"/>
<polygon fill="black" stroke="black" points="589.68,-539.11 579.09,-539.24 587.45,-545.74 589.68,-539.11"/>
</g>
<!-- Decidable_decidablepaths_hprop&#45;&gt;Decidable_DecidablePaths -->
<g id="edge47" class="edge">
<title>Decidable_decidablepaths_hprop&#45;&gt;Decidable_DecidablePaths</title>
<path fill="none" stroke="black" d="M1133,-731.34C995.89,-695.79 695.63,-617.63 443,-549.75 432.58,-546.95 421.5,-543.93 410.79,-541"/>
<polygon fill="black" stroke="black" points="411.66,-537.61 401.09,-538.34 409.81,-544.36 411.66,-537.61"/>
</g>
<!-- Decidable_decidablepaths_hprop&#45;&gt;Decidable_dec -->
<g id="edge48" class="edge">
<title>Decidable_decidablepaths_hprop&#45;&gt;Decidable_dec</title>
<path fill="none" stroke="black" d="M1193.04,-725.7C1167.01,-682.12 1113.7,-592.87 1087.79,-549.5"/>
<polygon fill="black" stroke="black" points="1090.68,-547.52 1082.55,-540.73 1084.67,-551.11 1090.68,-547.52"/>
</g>
<!-- Decidable_decidable_contr&#45;&gt;Decidable_Decidable -->
<g id="edge49" class="edge">
<title>Decidable_decidable_contr&#45;&gt;Decidable_Decidable</title>
<path fill="none" stroke="black" d="M558.13,-506.13C611.58,-466 747.68,-363.81 807.75,-318.71"/>
<polygon fill="black" stroke="black" points="810.15,-321.28 816.04,-312.48 805.94,-315.69 810.15,-321.28"/>
</g>
<!-- Decidable_decide_rel -->
<g id="node33" class="node">
<title>Decidable_decide_rel</title>
<g id="a_node33"><a xlink:href="Decidable.html#decide_rel" xlink:title="decide_rel">
<ellipse fill="#f070d1" stroke="black" cx="1392" cy="-523.75" rx="57.71" ry="18"/>
<ellipse fill="none" stroke="black" cx="1392" cy="-523.75" rx="61.7" ry="22"/>
<ellipse fill="none" stroke="black" cx="1392" cy="-523.75" rx="65.69" ry="26"/>
<text text-anchor="middle" x="1392" y="-520.05" font-family="Times,serif" font-size="14.00">decide_rel</text>
</a>
</g>
</g>
<!-- Decidable_decide_rel&#45;&gt;Decidable_Decidable -->
<g id="edge50" class="edge">
<title>Decidable_decide_rel&#45;&gt;Decidable_Decidable</title>
<path fill="none" stroke="black" d="M1347.05,-504.44C1242.18,-461.74 982.45,-355.97 879.76,-314.16"/>
<polygon fill="black" stroke="black" points="880.91,-310.85 870.33,-310.32 878.27,-317.33 880.91,-310.85"/>
</g>
<!-- Decidable_iff_stable -->
<g id="node34" class="node">
<title>Decidable_iff_stable</title>
<g id="a_node34"><a xlink:href="Decidable.html#iff_stable" xlink:title="iff_stable">
<ellipse fill="#f070d1" stroke="black" cx="229" cy="-979.75" rx="52.77" ry="18"/>
<ellipse fill="none" stroke="black" cx="229" cy="-979.75" rx="56.78" ry="22"/>
<ellipse fill="none" stroke="black" cx="229" cy="-979.75" rx="60.79" ry="26"/>
<text text-anchor="middle" x="229" y="-976.05" font-family="Times,serif" font-size="14.00">iff_stable</text>
</a>
</g>
</g>
<!-- Decidable_stable -->
<g id="node37" class="node">
<title>Decidable_stable</title>
<g id="a_node37"><a xlink:href="Decidable.html#stable" xlink:title="stable">
<ellipse fill="#f070d1" stroke="black" cx="257" cy="-751.75" rx="38.99" ry="18"/>
<text text-anchor="middle" x="257" y="-748.05" font-family="Times,serif" font-size="14.00">stable</text>
</a>
</g>
</g>
<!-- Decidable_iff_stable&#45;&gt;Decidable_stable -->
<g id="edge51" class="edge">
<title>Decidable_iff_stable&#45;&gt;Decidable_stable</title>
<path fill="none" stroke="black" d="M232.1,-953.7C237.4,-910.91 248.16,-824.09 253.64,-779.91"/>
<polygon fill="black" stroke="black" points="257.12,-780.25 254.88,-769.89 250.17,-779.39 257.12,-780.25"/>
</g>
<!-- Decidable_stable_negation -->
<g id="node35" class="node">
<title>Decidable_stable_negation</title>
<g id="a_node35"><a xlink:href="Decidable.html#stable_negation" xlink:title="stable_negation">
<ellipse fill="#f070d1" stroke="black" cx="108" cy="-751.75" rx="83.7" ry="18"/>
<ellipse fill="none" stroke="black" cx="108" cy="-751.75" rx="87.69" ry="22"/>
<ellipse fill="none" stroke="black" cx="108" cy="-751.75" rx="91.69" ry="26"/>
<text text-anchor="middle" x="108" y="-748.05" font-family="Times,serif" font-size="14.00">stable_negation</text>
</a>
</g>
</g>
<!-- Decidable_Stable -->
<g id="node38" class="node">
<title>Decidable_Stable</title>
<g id="a_node38"><a xlink:href="Decidable.html#Stable" xlink:title="Stable">
<ellipse fill="#f070d1" stroke="black" cx="56" cy="-523.75" rx="40.09" ry="18"/>
<text text-anchor="middle" x="56" y="-520.05" font-family="Times,serif" font-size="14.00">Stable</text>
</a>
</g>
</g>
<!-- Decidable_stable_negation&#45;&gt;Decidable_Stable -->
<g id="edge52" class="edge">
<title>Decidable_stable_negation&#45;&gt;Decidable_Stable</title>
<path fill="none" stroke="black" d="M102.24,-725.7C92.39,-682.91 72.42,-596.09 62.25,-551.91"/>
<polygon fill="black" stroke="black" points="65.6,-550.85 59.95,-541.89 58.78,-552.42 65.6,-550.85"/>
</g>
<!-- Decidable_stable_decidable -->
<g id="node36" class="node">
<title>Decidable_stable_decidable</title>
<g id="a_node36"><a xlink:href="Decidable.html#stable_decidable" xlink:title="stable_decidable">
<ellipse fill="#f070d1" stroke="black" cx="974" cy="-751.75" rx="87.96" ry="18"/>
<ellipse fill="none" stroke="black" cx="974" cy="-751.75" rx="91.97" ry="22"/>
<ellipse fill="none" stroke="black" cx="974" cy="-751.75" rx="95.99" ry="26"/>
<text text-anchor="middle" x="974" y="-748.05" font-family="Times,serif" font-size="14.00">stable_decidable</text>
</a>
</g>
</g>
<!-- Decidable_stable_decidable&#45;&gt;Decidable_Stable -->
<g id="edge53" class="edge">
<title>Decidable_stable_decidable&#45;&gt;Decidable_Stable</title>
<path fill="none" stroke="black" d="M903.98,-734C892.3,-731.23 880.31,-728.4 869,-725.75 529.73,-646.28 432.43,-668.93 105,-549.75 99.73,-547.83 94.29,-545.47 89.05,-542.98"/>
<polygon fill="black" stroke="black" points="90.41,-539.75 79.9,-538.42 87.29,-546.01 90.41,-539.75"/>
</g>
<!-- Decidable_stable_decidable&#45;&gt;Decidable_dec -->
<g id="edge54" class="edge">
<title>Decidable_stable_decidable&#45;&gt;Decidable_dec</title>
<path fill="none" stroke="black" d="M984.97,-725.7C1003.89,-682.52 1042.45,-594.49 1061.63,-550.7"/>
<polygon fill="black" stroke="black" points="1064.94,-551.87 1065.74,-541.31 1058.53,-549.06 1064.94,-551.87"/>
</g>
<!-- Decidable_stable&#45;&gt;Decidable_Stable -->
<g id="edge55" class="edge">
<title>Decidable_stable&#45;&gt;Decidable_Stable</title>
<path fill="none" stroke="black" d="M242.87,-734.85C208.05,-695.71 118.02,-594.48 76.96,-548.31"/>
<polygon fill="black" stroke="black" points="79.38,-545.77 70.12,-540.62 74.15,-550.42 79.38,-545.77"/>
</g>
<!-- Decidable_dec_paths&#45;&gt;Decidable_DecidablePaths -->
<g id="edge56" class="edge">
<title>Decidable_dec_paths&#45;&gt;Decidable_DecidablePaths</title>
<path fill="none" stroke="black" d="M773.76,-736.09C695.61,-696.93 481.82,-589.8 392.28,-544.93"/>
<polygon fill="black" stroke="black" points="393.76,-541.76 383.26,-540.41 390.63,-548.02 393.76,-541.76"/>
</g>
<!-- Decidable_DecidablePaths&#45;&gt;Decidable_Decidable -->
<g id="edge57" class="edge">
<title>Decidable_DecidablePaths&#45;&gt;Decidable_Decidable</title>
<path fill="none" stroke="black" d="M385.34,-507.21C471.93,-466.86 703.72,-358.85 797.15,-315.32"/>
<polygon fill="black" stroke="black" points="798.69,-318.46 806.27,-311.06 795.73,-312.11 798.69,-318.46"/>
</g>
<!-- Decidable_decidable_false -->
<g id="node41" class="node">
<title>Decidable_decidable_false</title>
<g id="a_node41"><a xlink:href="Decidable.html#decidable_false" xlink:title="decidable_false">
<ellipse fill="#f070d1" stroke="black" cx="939" cy="-523.75" rx="81.46" ry="18"/>
<ellipse fill="none" stroke="black" cx="939" cy="-523.75" rx="85.48" ry="22"/>
<ellipse fill="none" stroke="black" cx="939" cy="-523.75" rx="89.49" ry="26"/>
<text text-anchor="middle" x="939" y="-520.05" font-family="Times,serif" font-size="14.00">decidable_false</text>
</a>
</g>
</g>
<!-- Decidable_decidable_false&#45;&gt;Decidable_Decidable -->
<g id="edge58" class="edge">
<title>Decidable_decidable_false&#45;&gt;Decidable_Decidable</title>
<path fill="none" stroke="black" d="M927.69,-497.7C908.21,-454.53 868.51,-366.56 848.73,-322.74"/>
<polygon fill="black" stroke="black" points="851.91,-321.27 844.61,-313.6 845.53,-324.15 851.91,-321.27"/>
</g>
<!-- Decidable_decidable_true&#45;&gt;Decidable_Decidable -->
<g id="edge59" class="edge">
<title>Decidable_decidable_true&#45;&gt;Decidable_Decidable</title>
<path fill="none" stroke="black" d="M1685.58,-961.47C1693.49,-919.02 1708.99,-807.2 1672,-725.75 1624.94,-622.12 1548.53,-644.84 1486,-549.75 1472.48,-529.19 1484.76,-514.78 1467,-497.75 1307.05,-344.29 1030.02,-307.98 903.49,-299.39"/>
<polygon fill="black" stroke="black" points="903.39,-295.88 893.18,-298.73 902.94,-302.87 903.39,-295.88"/>
</g>
<!-- Decidable_dec&#45;&gt;Decidable_Decidable -->
<g id="edge60" class="edge">
<title>Decidable_dec&#45;&gt;Decidable_Decidable</title>
<path fill="none" stroke="black" d="M1058.24,-508.61C1018.68,-470.73 909.99,-366.65 861.23,-319.95"/>
<polygon fill="black" stroke="black" points="863.58,-317.36 853.94,-312.97 858.74,-322.41 863.58,-317.36"/>
</g>
</g>
</svg>
