<?xml version="1.0" encoding="UTF-8" standalone="no"?>
<!DOCTYPE svg PUBLIC "-//W3C//DTD SVG 1.1//EN"
 "http://www.w3.org/Graphics/SVG/1.1/DTD/svg11.dtd">
<!-- Generated by graphviz version 2.43.0 (0)
 -->
<!-- Title: HoTT_Classes_orders_fields Pages: 1 -->
<svg width="583pt" height="295pt"
 viewBox="0.00 0.00 583.00 295.50" xmlns="http://www.w3.org/2000/svg" xmlns:xlink="http://www.w3.org/1999/xlink">
<g id="graph0" class="graph" transform="scale(1 1) rotate(0) translate(4 291.5)">
<title>HoTT_Classes_orders_fields</title>
<polygon fill="white" stroke="transparent" points="-4,4 -4,-291.5 579,-291.5 579,4 -4,4"/>
<g id="clust1" class="cluster">
<title>cluster_fields</title>
<polygon fill="#ffffc3" stroke="black" points="8,-9.16 8,-278.34 567,-278.34 567,-9.16 8,-9.16"/>
<text text-anchor="middle" x="35.5" y="-263.14" font-family="Times,serif" font-size="14.00">fields</text>
</g>
<!-- fields_field_split2 -->
<g id="node1" class="node">
<title>fields_field_split2</title>
<g id="a_node1"><a xlink:href="fields.html#field_split2" xlink:title="field_split2">
<ellipse fill="#f070d1" stroke="black" cx="489" cy="-213.16" rx="61.96" ry="18"/>
<ellipse fill="none" stroke="black" cx="489" cy="-213.16" rx="65.98" ry="22"/>
<ellipse fill="none" stroke="black" cx="489" cy="-213.16" rx="69.99" ry="26"/>
<text text-anchor="middle" x="489" y="-209.46" font-family="Times,serif" font-size="14.00">field_split2</text>
</a>
</g>
</g>
<!-- fields_flip_lt_recip_r -->
<g id="node2" class="node">
<title>fields_flip_lt_recip_r</title>
<g id="a_node2"><a xlink:href="fields.html#flip_lt_recip_r" xlink:title="flip_lt_recip_r">
<ellipse fill="#f070d1" stroke="black" cx="320" cy="-213.16" rx="73.39" ry="18"/>
<ellipse fill="none" stroke="black" cx="320" cy="-213.16" rx="77.39" ry="22"/>
<ellipse fill="none" stroke="black" cx="320" cy="-213.16" rx="81.39" ry="26"/>
<text text-anchor="middle" x="320" y="-209.46" font-family="Times,serif" font-size="14.00">flip_lt_recip_r</text>
</a>
</g>
</g>
<!-- fields_flip_lt_recip_l -->
<g id="node3" class="node">
<title>fields_flip_lt_recip_l</title>
<g id="a_node3"><a xlink:href="fields.html#flip_lt_recip_l" xlink:title="flip_lt_recip_l">
<ellipse fill="#f070d1" stroke="black" cx="320" cy="-121.16" rx="71.49" ry="18"/>
<text text-anchor="middle" x="320" y="-117.46" font-family="Times,serif" font-size="14.00">flip_lt_recip_l</text>
</a>
</g>
</g>
<!-- fields_flip_lt_recip_r&#45;&gt;fields_flip_lt_recip_l -->
<g id="edge1" class="edge">
<title>fields_flip_lt_recip_r&#45;&gt;fields_flip_lt_recip_l</title>
<path fill="none" stroke="black" d="M320,-187.09C320,-175.47 320,-161.61 320,-149.69"/>
<polygon fill="black" stroke="black" points="323.5,-149.41 320,-139.41 316.5,-149.41 323.5,-149.41"/>
</g>
<!-- fields_flip_lt_recip -->
<g id="node4" class="node">
<title>fields_flip_lt_recip</title>
<g id="a_node4"><a xlink:href="fields.html#flip_lt_recip" xlink:title="flip_lt_recip">
<ellipse fill="#f070d1" stroke="black" cx="218" cy="-39.16" rx="64.19" ry="18"/>
<text text-anchor="middle" x="218" y="-35.46" font-family="Times,serif" font-size="14.00">flip_lt_recip</text>
</a>
</g>
</g>
<!-- fields_flip_lt_recip_l&#45;&gt;fields_flip_lt_recip -->
<g id="edge2" class="edge">
<title>fields_flip_lt_recip_l&#45;&gt;fields_flip_lt_recip</title>
<path fill="none" stroke="black" d="M298.87,-103.59C283.86,-91.82 263.53,-75.87 247,-62.91"/>
<polygon fill="black" stroke="black" points="248.79,-59.86 238.76,-56.44 244.47,-65.37 248.79,-59.86"/>
</g>
<!-- fields_pos_recip_compat -->
<g id="node6" class="node">
<title>fields_pos_recip_compat</title>
<g id="a_node6"><a xlink:href="fields.html#pos_recip_compat" xlink:title="pos_recip_compat">
<ellipse fill="#f070d1" stroke="black" cx="393" cy="-39.16" rx="92.88" ry="18"/>
<text text-anchor="middle" x="393" y="-35.46" font-family="Times,serif" font-size="14.00">pos_recip_compat</text>
</a>
</g>
</g>
<!-- fields_flip_lt_recip_l&#45;&gt;fields_pos_recip_compat -->
<g id="edge3" class="edge">
<title>fields_flip_lt_recip_l&#45;&gt;fields_pos_recip_compat</title>
<path fill="none" stroke="black" d="M335.48,-103.2C345.74,-91.95 359.36,-77.03 370.77,-64.52"/>
<polygon fill="black" stroke="black" points="373.39,-66.85 377.54,-57.1 368.21,-62.13 373.39,-66.85"/>
</g>
<!-- fields_neg_recip_compat -->
<g id="node5" class="node">
<title>fields_neg_recip_compat</title>
<g id="a_node5"><a xlink:href="fields.html#neg_recip_compat" xlink:title="neg_recip_compat">
<ellipse fill="#f070d1" stroke="black" cx="118" cy="-213.16" rx="94.46" ry="18"/>
<ellipse fill="none" stroke="black" cx="118" cy="-213.16" rx="98.47" ry="22"/>
<ellipse fill="none" stroke="black" cx="118" cy="-213.16" rx="102.48" ry="26"/>
<text text-anchor="middle" x="118" y="-209.46" font-family="Times,serif" font-size="14.00">neg_recip_compat</text>
</a>
</g>
</g>
</g>
</svg>
