<?xml version="1.0" encoding="UTF-8" standalone="no"?>
<!DOCTYPE svg PUBLIC "-//W3C//DTD SVG 1.1//EN"
 "http://www.w3.org/Graphics/SVG/1.1/DTD/svg11.dtd">
<!-- Generated by graphviz version 2.43.0 (0)
 -->
<!-- Title: HoTT_Equiv_BiInv Pages: 1 -->
<svg width="3092pt" height="1550pt"
 viewBox="0.00 0.00 3092.00 1550.00" xmlns="http://www.w3.org/2000/svg" xmlns:xlink="http://www.w3.org/1999/xlink">
<g id="graph0" class="graph" transform="scale(1 1) rotate(0) translate(4 1546)">
<title>HoTT_Equiv_BiInv</title>
<polygon fill="white" stroke="transparent" points="-4,4 -4,-1546 3088,-1546 3088,4 -4,4"/>
<g id="clust1" class="cluster">
<title>cluster_BiInv</title>
<polygon fill="#ffffc3" stroke="black" points="8,-27.85 8,-1514.15 3076,-1514.15 3076,-27.85 8,-27.85"/>
<text text-anchor="middle" x="35" y="-1498.95" font-family="Times,serif" font-size="14.00">BiInv</text>
</g>
<!-- BiInv_biinv_compat_pes -->
<g id="node1" class="node">
<title>BiInv_biinv_compat_pes</title>
<g id="a_node1"><a xlink:href="BiInv.html#biinv_compat_pes" xlink:title="biinv_compat_pes">
<ellipse fill="#f070d1" stroke="black" cx="996" cy="-1315.85" rx="92.89" ry="18"/>
<ellipse fill="none" stroke="black" cx="996" cy="-1315.85" rx="96.89" ry="22"/>
<ellipse fill="none" stroke="black" cx="996" cy="-1315.85" rx="100.88" ry="26"/>
<text text-anchor="middle" x="996" y="-1312.15" font-family="Times,serif" font-size="14.00">biinv_compat_pes</text>
</a>
</g>
</g>
<!-- BiInv_biinv_compat_ps -->
<g id="node3" class="node">
<title>BiInv_biinv_compat_ps</title>
<g id="a_node3"><a xlink:href="BiInv.html#biinv_compat_ps" xlink:title="biinv_compat_ps">
<ellipse fill="#f070d1" stroke="black" cx="996" cy="-1009.85" rx="87.18" ry="18"/>
<text text-anchor="middle" x="996" y="-1006.15" font-family="Times,serif" font-size="14.00">biinv_compat_ps</text>
</a>
</g>
</g>
<!-- BiInv_biinv_compat_pes&#45;&gt;BiInv_biinv_compat_ps -->
<g id="edge1" class="edge">
<title>BiInv_biinv_compat_pes&#45;&gt;BiInv_biinv_compat_ps</title>
<path fill="none" stroke="black" d="M996,-1289.71C996,-1233.31 996,-1097.06 996,-1038.43"/>
<polygon fill="black" stroke="black" points="999.5,-1038.1 996,-1028.1 992.5,-1038.1 999.5,-1038.1"/>
</g>
<!-- BiInv_biinv_compat_pre -->
<g id="node2" class="node">
<title>BiInv_biinv_compat_pre</title>
<g id="a_node2"><a xlink:href="BiInv.html#biinv_compat_pre" xlink:title="biinv_compat_pre">
<ellipse fill="#f070d1" stroke="black" cx="1274" cy="-1315.85" rx="92.1" ry="18"/>
<ellipse fill="none" stroke="black" cx="1274" cy="-1315.85" rx="96.09" ry="22"/>
<ellipse fill="none" stroke="black" cx="1274" cy="-1315.85" rx="100.08" ry="26"/>
<text text-anchor="middle" x="1274" y="-1312.15" font-family="Times,serif" font-size="14.00">biinv_compat_pre</text>
</a>
</g>
</g>
<!-- BiInv_biinv_compat_pr -->
<g id="node4" class="node">
<title>BiInv_biinv_compat_pr</title>
<g id="a_node4"><a xlink:href="BiInv.html#biinv_compat_pr" xlink:title="biinv_compat_pr">
<ellipse fill="#f070d1" stroke="black" cx="1274" cy="-1009.85" rx="87.18" ry="18"/>
<text text-anchor="middle" x="1274" y="-1006.15" font-family="Times,serif" font-size="14.00">biinv_compat_pr</text>
</a>
</g>
</g>
<!-- BiInv_biinv_compat_pre&#45;&gt;BiInv_biinv_compat_pr -->
<g id="edge2" class="edge">
<title>BiInv_biinv_compat_pre&#45;&gt;BiInv_biinv_compat_pr</title>
<path fill="none" stroke="black" d="M1274,-1289.71C1274,-1233.31 1274,-1097.06 1274,-1038.43"/>
<polygon fill="black" stroke="black" points="1277.5,-1038.1 1274,-1028.1 1270.5,-1038.1 1277.5,-1038.1"/>
</g>
<!-- BiInv_helper_s -->
<g id="node5" class="node">
<title>BiInv_helper_s</title>
<g id="a_node5"><a xlink:href="BiInv.html#helper_s" xlink:title="helper_s">
<ellipse fill="#f070d1" stroke="black" cx="1047" cy="-702.85" rx="50.09" ry="18"/>
<text text-anchor="middle" x="1047" y="-699.15" font-family="Times,serif" font-size="14.00">helper_s</text>
</a>
</g>
</g>
<!-- BiInv_biinv_compat_ps&#45;&gt;BiInv_helper_s -->
<g id="edge3" class="edge">
<title>BiInv_biinv_compat_ps&#45;&gt;BiInv_helper_s</title>
<path fill="none" stroke="black" d="M998.89,-991.57C1007.36,-940.93 1032.17,-792.53 1042.46,-731.03"/>
<polygon fill="black" stroke="black" points="1045.95,-731.37 1044.14,-720.93 1039.04,-730.21 1045.95,-731.37"/>
</g>
<!-- BiInv_isequiv_isbiinv -->
<g id="node18" class="node">
<title>BiInv_isequiv_isbiinv</title>
<g id="a_node18"><a xlink:href="BiInv.html#isequiv_isbiinv" xlink:title="isequiv_isbiinv">
<ellipse fill="#f070d1" stroke="black" cx="907" cy="-396.85" rx="79.09" ry="18"/>
<text text-anchor="middle" x="907" y="-393.15" font-family="Times,serif" font-size="14.00">isequiv_isbiinv</text>
</a>
</g>
</g>
<!-- BiInv_biinv_compat_ps&#45;&gt;BiInv_isequiv_isbiinv -->
<g id="edge4" class="edge">
<title>BiInv_biinv_compat_ps&#45;&gt;BiInv_isequiv_isbiinv</title>
<path fill="none" stroke="black" d="M947.85,-994.69C813.27,-954.05 438.63,-833.25 371,-728.85 358.44,-709.45 359.01,-696.6 371,-676.85 426.64,-585.16 735.31,-461.96 857.34,-416.07"/>
<polygon fill="black" stroke="black" points="858.7,-419.3 866.84,-412.51 856.24,-412.74 858.7,-419.3"/>
</g>
<!-- BiInv_helper_r -->
<g id="node6" class="node">
<title>BiInv_helper_r</title>
<g id="a_node6"><a xlink:href="BiInv.html#helper_r" xlink:title="helper_r">
<ellipse fill="#f070d1" stroke="black" cx="1332" cy="-702.85" rx="49.29" ry="18"/>
<text text-anchor="middle" x="1332" y="-699.15" font-family="Times,serif" font-size="14.00">helper_r</text>
</a>
</g>
</g>
<!-- BiInv_biinv_compat_pr&#45;&gt;BiInv_helper_r -->
<g id="edge5" class="edge">
<title>BiInv_biinv_compat_pr&#45;&gt;BiInv_helper_r</title>
<path fill="none" stroke="black" d="M1277.28,-991.57C1286.91,-940.93 1315.14,-792.53 1326.83,-731.03"/>
<polygon fill="black" stroke="black" points="1330.32,-731.41 1328.75,-720.93 1323.44,-730.1 1330.32,-731.41"/>
</g>
<!-- BiInv_biinv_compat_pr&#45;&gt;BiInv_isequiv_isbiinv -->
<g id="edge6" class="edge">
<title>BiInv_biinv_compat_pr&#45;&gt;BiInv_isequiv_isbiinv</title>
<path fill="none" stroke="black" d="M1207.67,-998.18C1018.98,-966.33 486.3,-865.64 386,-728.85 372.33,-710.21 374.13,-696.67 386,-676.85 439.84,-586.95 739.44,-462.89 858.35,-416.41"/>
<polygon fill="black" stroke="black" points="859.89,-419.57 867.94,-412.68 857.35,-413.05 859.89,-419.57"/>
</g>
<!-- BiInv_BiInv -->
<g id="node31" class="node">
<title>BiInv_BiInv</title>
<g id="a_node31"><a xlink:href="BiInv.html#BiInv" xlink:title="BiInv">
<ellipse fill="#e2cdfa" stroke="black" cx="1461" cy="-396.85" rx="35.19" ry="18"/>
<text text-anchor="middle" x="1461" y="-393.15" font-family="Times,serif" font-size="14.00">BiInv</text>
</a>
</g>
</g>
<!-- BiInv_helper_s&#45;&gt;BiInv_BiInv -->
<g id="edge7" class="edge">
<title>BiInv_helper_s&#45;&gt;BiInv_BiInv</title>
<path fill="none" stroke="black" d="M1068.1,-686.35C1136.96,-635.79 1355.16,-475.57 1433.04,-418.38"/>
<polygon fill="black" stroke="black" points="1435.41,-420.98 1441.4,-412.24 1431.27,-415.34 1435.41,-420.98"/>
</g>
<!-- BiInv_helper_r&#45;&gt;BiInv_BiInv -->
<g id="edge8" class="edge">
<title>BiInv_helper_r&#45;&gt;BiInv_BiInv</title>
<path fill="none" stroke="black" d="M1339.31,-684.63C1360.86,-633.83 1424.31,-484.31 1450.01,-423.75"/>
<polygon fill="black" stroke="black" points="1453.25,-425.07 1453.93,-414.5 1446.81,-422.34 1453.25,-425.07"/>
</g>
<!-- BiInv_biinv_idmap -->
<g id="node7" class="node">
<title>BiInv_biinv_idmap</title>
<g id="a_node7"><a xlink:href="BiInv.html#biinv_idmap" xlink:title="biinv_idmap">
<ellipse fill="#f070d1" stroke="black" cx="1190" cy="-702.85" rx="66.89" ry="18"/>
<ellipse fill="none" stroke="black" cx="1190" cy="-702.85" rx="70.89" ry="22"/>
<ellipse fill="none" stroke="black" cx="1190" cy="-702.85" rx="74.89" ry="26"/>
<text text-anchor="middle" x="1190" y="-699.15" font-family="Times,serif" font-size="14.00">biinv_idmap</text>
</a>
</g>
</g>
<!-- BiInv_Build_BiInv -->
<g id="node30" class="node">
<title>BiInv_Build_BiInv</title>
<g id="a_node30"><a xlink:href="BiInv.html#Build_BiInv" xlink:title="Build_BiInv">
<ellipse fill="#7faaff" stroke="black" cx="1932" cy="-396.85" rx="63.89" ry="18"/>
<text text-anchor="middle" x="1932" y="-393.15" font-family="Times,serif" font-size="14.00">Build_BiInv</text>
</a>
</g>
</g>
<!-- BiInv_biinv_idmap&#45;&gt;BiInv_Build_BiInv -->
<g id="edge9" class="edge">
<title>BiInv_biinv_idmap&#45;&gt;BiInv_Build_BiInv</title>
<path fill="none" stroke="black" d="M1237.26,-682.48C1372.11,-627.24 1757.36,-469.4 1888.03,-415.86"/>
<polygon fill="black" stroke="black" points="1889.43,-419.07 1897.36,-412.04 1886.78,-412.59 1889.43,-419.07"/>
</g>
<!-- BiInv_biinv_idmap&#45;&gt;BiInv_BiInv -->
<g id="edge10" class="edge">
<title>BiInv_biinv_idmap&#45;&gt;BiInv_BiInv</title>
<path fill="none" stroke="black" d="M1211.49,-677.74C1262.44,-620.58 1390.04,-477.44 1440.25,-421.13"/>
<polygon fill="black" stroke="black" points="1443.03,-423.26 1447.07,-413.47 1437.81,-418.61 1443.03,-423.26"/>
</g>
<!-- BiInv_Build_IsBiInv -->
<g id="node40" class="node">
<title>BiInv_Build_IsBiInv</title>
<g id="a_node40"><a xlink:href="BiInv.html#Build_IsBiInv" xlink:title="Build_IsBiInv">
<ellipse fill="#7faaff" stroke="black" cx="527" cy="-118.85" rx="72.29" ry="18"/>
<text text-anchor="middle" x="527" y="-115.15" font-family="Times,serif" font-size="14.00">Build_IsBiInv</text>
</a>
</g>
</g>
<!-- BiInv_biinv_idmap&#45;&gt;BiInv_Build_IsBiInv -->
<g id="edge11" class="edge">
<title>BiInv_biinv_idmap&#45;&gt;BiInv_Build_IsBiInv</title>
<path fill="none" stroke="black" d="M1136.86,-684.49C980.22,-632.82 528.77,-480.04 490,-422.85 459.72,-378.18 501.04,-212.81 519.2,-147.06"/>
<polygon fill="black" stroke="black" points="522.67,-147.62 522,-137.04 515.93,-145.73 522.67,-147.62"/>
</g>
<!-- BiInv_equiv_biinv_equiv -->
<g id="node8" class="node">
<title>BiInv_equiv_biinv_equiv</title>
<g id="a_node8"><a xlink:href="BiInv.html#equiv_biinv_equiv" xlink:title="equiv_biinv_equiv">
<ellipse fill="#f070d1" stroke="black" cx="750" cy="-1315.85" rx="92.89" ry="18"/>
<ellipse fill="none" stroke="black" cx="750" cy="-1315.85" rx="96.89" ry="22"/>
<ellipse fill="none" stroke="black" cx="750" cy="-1315.85" rx="100.88" ry="26"/>
<text text-anchor="middle" x="750" y="-1312.15" font-family="Times,serif" font-size="14.00">equiv_biinv_equiv</text>
</a>
</g>
</g>
<!-- BiInv_equiv_isbiinv_isequiv -->
<g id="node11" class="node">
<title>BiInv_equiv_isbiinv_isequiv</title>
<g id="a_node11"><a xlink:href="BiInv.html#equiv_isbiinv_isequiv" xlink:title="equiv_isbiinv_isequiv">
<ellipse fill="#f070d1" stroke="black" cx="724" cy="-1009.85" rx="108.58" ry="18"/>
<text text-anchor="middle" x="724" y="-1006.15" font-family="Times,serif" font-size="14.00">equiv_isbiinv_isequiv</text>
</a>
</g>
</g>
<!-- BiInv_equiv_biinv_equiv&#45;&gt;BiInv_equiv_isbiinv_isequiv -->
<g id="edge12" class="edge">
<title>BiInv_equiv_biinv_equiv&#45;&gt;BiInv_equiv_isbiinv_isequiv</title>
<path fill="none" stroke="black" d="M747.85,-1289.71C743.03,-1233.31 731.37,-1097.06 726.36,-1038.43"/>
<polygon fill="black" stroke="black" points="729.82,-1037.77 725.48,-1028.1 722.84,-1038.36 729.82,-1037.77"/>
</g>
<!-- BiInv_issig_biinv -->
<g id="node19" class="node">
<title>BiInv_issig_biinv</title>
<g id="a_node19"><a xlink:href="BiInv.html#issig_biinv" xlink:title="issig_biinv">
<ellipse fill="#f070d1" stroke="black" cx="2220" cy="-702.85" rx="59.59" ry="18"/>
<text text-anchor="middle" x="2220" y="-699.15" font-family="Times,serif" font-size="14.00">issig_biinv</text>
</a>
</g>
</g>
<!-- BiInv_equiv_biinv_equiv&#45;&gt;BiInv_issig_biinv -->
<g id="edge13" class="edge">
<title>BiInv_equiv_biinv_equiv&#45;&gt;BiInv_issig_biinv</title>
<path fill="none" stroke="black" d="M827.66,-1299.24C1093.52,-1245.58 1953.47,-1070.13 2003,-1035.85 2117.77,-956.4 2186.84,-794.6 2210.63,-730.68"/>
<polygon fill="black" stroke="black" points="2214.04,-731.54 2214.18,-720.95 2207.46,-729.15 2214.04,-731.54"/>
</g>
<!-- BiInv_biinv_equiv -->
<g id="node9" class="node">
<title>BiInv_biinv_equiv</title>
<g id="a_node9"><a xlink:href="BiInv.html#biinv_equiv" xlink:title="biinv_equiv">
<ellipse fill="#f070d1" stroke="black" cx="1784" cy="-702.85" rx="63.87" ry="18"/>
<ellipse fill="none" stroke="black" cx="1784" cy="-702.85" rx="67.88" ry="22"/>
<ellipse fill="none" stroke="black" cx="1784" cy="-702.85" rx="71.89" ry="26"/>
<text text-anchor="middle" x="1784" y="-699.15" font-family="Times,serif" font-size="14.00">biinv_equiv</text>
</a>
</g>
</g>
<!-- BiInv_isbiinv_isequiv -->
<g id="node14" class="node">
<title>BiInv_isbiinv_isequiv</title>
<g id="a_node14"><a xlink:href="BiInv.html#isbiinv_isequiv" xlink:title="isbiinv_isequiv">
<ellipse fill="#f070d1" stroke="black" cx="1207" cy="-396.85" rx="79.09" ry="18"/>
<text text-anchor="middle" x="1207" y="-393.15" font-family="Times,serif" font-size="14.00">isbiinv_isequiv</text>
</a>
</g>
</g>
<!-- BiInv_biinv_equiv&#45;&gt;BiInv_isbiinv_isequiv -->
<g id="edge14" class="edge">
<title>BiInv_biinv_equiv&#45;&gt;BiInv_isbiinv_isequiv</title>
<path fill="none" stroke="black" d="M1744.34,-680.95C1638.56,-625.22 1350.64,-473.53 1245.82,-418.3"/>
<polygon fill="black" stroke="black" points="1247.32,-415.14 1236.84,-413.57 1244.06,-421.33 1247.32,-415.14"/>
</g>
<!-- BiInv_biinv_equiv&#45;&gt;BiInv_Build_BiInv -->
<g id="edge15" class="edge">
<title>BiInv_biinv_equiv&#45;&gt;BiInv_Build_BiInv</title>
<path fill="none" stroke="black" d="M1796.11,-676.97C1823.72,-620.27 1891.09,-481.88 1919.27,-423.99"/>
<polygon fill="black" stroke="black" points="1922.53,-425.3 1923.76,-414.78 1916.23,-422.24 1922.53,-425.3"/>
</g>
<!-- BiInv_biinv_equiv&#45;&gt;BiInv_BiInv -->
<g id="edge16" class="edge">
<title>BiInv_biinv_equiv&#45;&gt;BiInv_BiInv</title>
<path fill="none" stroke="black" d="M1758.92,-678.25C1698.21,-621.1 1543.96,-475.93 1484.69,-420.15"/>
<polygon fill="black" stroke="black" points="1486.98,-417.5 1477.3,-413.19 1482.19,-422.59 1486.98,-417.5"/>
</g>
<!-- BiInv_equiv_biinv -->
<g id="node10" class="node">
<title>BiInv_equiv_biinv</title>
<g id="a_node10"><a xlink:href="BiInv.html#equiv_biinv" xlink:title="equiv_biinv">
<ellipse fill="#f070d1" stroke="black" cx="907" cy="-702.85" rx="63.87" ry="18"/>
<ellipse fill="none" stroke="black" cx="907" cy="-702.85" rx="67.88" ry="22"/>
<ellipse fill="none" stroke="black" cx="907" cy="-702.85" rx="71.89" ry="26"/>
<text text-anchor="middle" x="907" y="-699.15" font-family="Times,serif" font-size="14.00">equiv_biinv</text>
</a>
</g>
</g>
<!-- BiInv_equiv_biinv&#45;&gt;BiInv_isequiv_isbiinv -->
<g id="edge17" class="edge">
<title>BiInv_equiv_biinv&#45;&gt;BiInv_isequiv_isbiinv</title>
<path fill="none" stroke="black" d="M907,-676.71C907,-620.31 907,-484.06 907,-425.43"/>
<polygon fill="black" stroke="black" points="910.5,-425.1 907,-415.1 903.5,-425.1 910.5,-425.1"/>
</g>
<!-- BiInv_equiv_biinv&#45;&gt;BiInv_BiInv -->
<g id="edge18" class="edge">
<title>BiInv_equiv_biinv&#45;&gt;BiInv_BiInv</title>
<path fill="none" stroke="black" d="M945.52,-680.71C1049.29,-623.77 1333.34,-467.9 1429.04,-415.38"/>
<polygon fill="black" stroke="black" points="1430.88,-418.37 1437.96,-410.49 1427.51,-412.23 1430.88,-418.37"/>
</g>
<!-- BiInv_ishprop_isbiinv -->
<g id="node12" class="node">
<title>BiInv_ishprop_isbiinv</title>
<g id="a_node12"><a xlink:href="BiInv.html#ishprop_isbiinv" xlink:title="ishprop_isbiinv">
<ellipse fill="#f070d1" stroke="black" cx="256" cy="-702.85" rx="81.49" ry="18"/>
<text text-anchor="middle" x="256" y="-699.15" font-family="Times,serif" font-size="14.00">ishprop_isbiinv</text>
</a>
</g>
</g>
<!-- BiInv_equiv_isbiinv_isequiv&#45;&gt;BiInv_ishprop_isbiinv -->
<g id="edge19" class="edge">
<title>BiInv_equiv_isbiinv_isequiv&#45;&gt;BiInv_ishprop_isbiinv</title>
<path fill="none" stroke="black" d="M698.51,-992.23C619.49,-940.73 378.64,-783.77 289.57,-725.73"/>
<polygon fill="black" stroke="black" points="291.24,-722.63 280.95,-720.11 287.41,-728.5 291.24,-722.63"/>
</g>
<!-- BiInv_iff_isbiinv_isequiv -->
<g id="node13" class="node">
<title>BiInv_iff_isbiinv_isequiv</title>
<g id="a_node13"><a xlink:href="BiInv.html#iff_isbiinv_isequiv" xlink:title="iff_isbiinv_isequiv">
<ellipse fill="#f070d1" stroke="black" cx="724" cy="-702.85" rx="92.88" ry="18"/>
<text text-anchor="middle" x="724" y="-699.15" font-family="Times,serif" font-size="14.00">iff_isbiinv_isequiv</text>
</a>
</g>
</g>
<!-- BiInv_equiv_isbiinv_isequiv&#45;&gt;BiInv_iff_isbiinv_isequiv -->
<g id="edge20" class="edge">
<title>BiInv_equiv_isbiinv_isequiv&#45;&gt;BiInv_iff_isbiinv_isequiv</title>
<path fill="none" stroke="black" d="M724,-991.57C724,-940.93 724,-792.53 724,-731.03"/>
<polygon fill="black" stroke="black" points="727.5,-730.93 724,-720.93 720.5,-730.93 727.5,-730.93"/>
</g>
<!-- BiInv_ishprop_isbiinv&#45;&gt;BiInv_isequiv_isbiinv -->
<g id="edge21" class="edge">
<title>BiInv_ishprop_isbiinv&#45;&gt;BiInv_isequiv_isbiinv</title>
<path fill="none" stroke="black" d="M289.18,-686.35C397.91,-635.58 743.43,-474.23 864.55,-417.67"/>
<polygon fill="black" stroke="black" points="866.31,-420.71 873.89,-413.31 863.35,-414.37 866.31,-420.71"/>
</g>
<!-- BiInv_prod_isbiinv -->
<g id="node20" class="node">
<title>BiInv_prod_isbiinv</title>
<g id="a_node20"><a xlink:href="BiInv.html#prod_isbiinv" xlink:title="prod_isbiinv">
<ellipse fill="#f070d1" stroke="black" cx="393" cy="-396.85" rx="67.69" ry="18"/>
<text text-anchor="middle" x="393" y="-393.15" font-family="Times,serif" font-size="14.00">prod_isbiinv</text>
</a>
</g>
</g>
<!-- BiInv_ishprop_isbiinv&#45;&gt;BiInv_prod_isbiinv -->
<g id="edge22" class="edge">
<title>BiInv_ishprop_isbiinv&#45;&gt;BiInv_prod_isbiinv</title>
<path fill="none" stroke="black" d="M263.76,-684.63C286.6,-633.95 353.72,-485.01 381.13,-424.18"/>
<polygon fill="black" stroke="black" points="384.41,-425.43 385.33,-414.87 378.03,-422.55 384.41,-425.43"/>
</g>
<!-- BiInv_iff_isbiinv_isequiv&#45;&gt;BiInv_isbiinv_isequiv -->
<g id="edge23" class="edge">
<title>BiInv_iff_isbiinv_isequiv&#45;&gt;BiInv_isbiinv_isequiv</title>
<path fill="none" stroke="black" d="M749.97,-685.5C831.32,-634.3 1081.25,-476.99 1172.88,-419.32"/>
<polygon fill="black" stroke="black" points="1174.89,-422.19 1181.49,-413.9 1171.16,-416.27 1174.89,-422.19"/>
</g>
<!-- BiInv_iff_isbiinv_isequiv&#45;&gt;BiInv_isequiv_isbiinv -->
<g id="edge24" class="edge">
<title>BiInv_iff_isbiinv_isequiv&#45;&gt;BiInv_isequiv_isbiinv</title>
<path fill="none" stroke="black" d="M734.36,-684.63C764.94,-633.84 854.9,-484.39 891.37,-423.81"/>
<polygon fill="black" stroke="black" points="894.59,-425.25 896.75,-414.87 888.59,-421.64 894.59,-425.25"/>
</g>
<!-- BiInv_isbiinv_isequiv&#45;&gt;BiInv_Build_IsBiInv -->
<g id="edge25" class="edge">
<title>BiInv_isbiinv_isequiv&#45;&gt;BiInv_Build_IsBiInv</title>
<path fill="none" stroke="black" d="M1169.96,-380.81C1054.21,-333.83 699.52,-189.87 572.69,-138.39"/>
<polygon fill="black" stroke="black" points="573.83,-135.08 563.25,-134.56 571.2,-141.56 573.83,-135.08"/>
</g>
<!-- BiInv_IsBiInv -->
<g id="node41" class="node">
<title>BiInv_IsBiInv</title>
<g id="a_node41"><a xlink:href="BiInv.html#IsBiInv" xlink:title="IsBiInv">
<ellipse fill="#e2cdfa" stroke="black" cx="1461" cy="-118.85" rx="43.59" ry="18"/>
<text text-anchor="middle" x="1461" y="-115.15" font-family="Times,serif" font-size="14.00">IsBiInv</text>
</a>
</g>
</g>
<!-- BiInv_isbiinv_isequiv&#45;&gt;BiInv_IsBiInv -->
<g id="edge26" class="edge">
<title>BiInv_isbiinv_isequiv&#45;&gt;BiInv_IsBiInv</title>
<path fill="none" stroke="black" d="M1222.51,-379C1265.93,-331.81 1388.85,-198.25 1439.14,-143.6"/>
<polygon fill="black" stroke="black" points="1441.82,-145.86 1446.02,-136.13 1436.67,-141.12 1441.82,-145.86"/>
</g>
<!-- BiInv_isequiv_isbiinv_sect -->
<g id="node15" class="node">
<title>BiInv_isequiv_isbiinv_sect</title>
<g id="a_node15"><a xlink:href="BiInv.html#isequiv_isbiinv_sect" xlink:title="isequiv_isbiinv_sect">
<ellipse fill="#f070d1" stroke="black" cx="2754" cy="-1009.85" rx="102.87" ry="18"/>
<ellipse fill="none" stroke="black" cx="2754" cy="-1009.85" rx="106.88" ry="22"/>
<ellipse fill="none" stroke="black" cx="2754" cy="-1009.85" rx="110.88" ry="26"/>
<text text-anchor="middle" x="2754" y="-1006.15" font-family="Times,serif" font-size="14.00">isequiv_isbiinv_sect</text>
</a>
</g>
</g>
<!-- BiInv_isequiv_isbiinv_ -->
<g id="node16" class="node">
<title>BiInv_isequiv_isbiinv_</title>
<g id="a_node16"><a xlink:href="BiInv.html#isequiv_isbiinv'" xlink:title="isequiv_isbiinv&#39;">
<ellipse fill="#f070d1" stroke="black" cx="2754" cy="-702.85" rx="81.49" ry="18"/>
<text text-anchor="middle" x="2754" y="-699.15" font-family="Times,serif" font-size="14.00">isequiv_isbiinv&#39;</text>
</a>
</g>
</g>
<!-- BiInv_isequiv_isbiinv_sect&#45;&gt;BiInv_isequiv_isbiinv_ -->
<g id="edge27" class="edge">
<title>BiInv_isequiv_isbiinv_sect&#45;&gt;BiInv_isequiv_isbiinv_</title>
<path fill="none" stroke="black" d="M2754,-983.63C2754,-927.05 2754,-790.34 2754,-731.52"/>
<polygon fill="black" stroke="black" points="2757.5,-731.16 2754,-721.16 2750.5,-731.16 2757.5,-731.16"/>
</g>
<!-- BiInv_sect_retr_homotopic_isbiinv -->
<g id="node23" class="node">
<title>BiInv_sect_retr_homotopic_isbiinv</title>
<g id="a_node23"><a xlink:href="BiInv.html#sect_retr_homotopic_isbiinv" xlink:title="sect_retr_homotopic_isbiinv">
<ellipse fill="#f070d1" stroke="black" cx="2640" cy="-396.85" rx="139.98" ry="18"/>
<text text-anchor="middle" x="2640" y="-393.15" font-family="Times,serif" font-size="14.00">sect_retr_homotopic_isbiinv</text>
</a>
</g>
</g>
<!-- BiInv_isequiv_isbiinv_&#45;&gt;BiInv_sect_retr_homotopic_isbiinv -->
<g id="edge28" class="edge">
<title>BiInv_isequiv_isbiinv_&#45;&gt;BiInv_sect_retr_homotopic_isbiinv</title>
<path fill="none" stroke="black" d="M2747.54,-684.63C2728.58,-634.05 2672.92,-485.62 2650.02,-424.56"/>
<polygon fill="black" stroke="black" points="2653.17,-423.01 2646.38,-414.87 2646.62,-425.47 2653.17,-423.01"/>
</g>
<!-- BiInv_eissect_biinv -->
<g id="node32" class="node">
<title>BiInv_eissect_biinv</title>
<g id="a_node32"><a xlink:href="BiInv.html#eissect_biinv" xlink:title="eissect_biinv">
<ellipse fill="#f070d1" stroke="black" cx="2868" cy="-396.85" rx="70.39" ry="18"/>
<text text-anchor="middle" x="2868" y="-393.15" font-family="Times,serif" font-size="14.00">eissect_biinv</text>
</a>
</g>
</g>
<!-- BiInv_isequiv_isbiinv_&#45;&gt;BiInv_eissect_biinv -->
<g id="edge29" class="edge">
<title>BiInv_isequiv_isbiinv_&#45;&gt;BiInv_eissect_biinv</title>
<path fill="none" stroke="black" d="M2760.46,-684.63C2779.42,-634.05 2835.08,-485.62 2857.98,-424.56"/>
<polygon fill="black" stroke="black" points="2861.38,-425.47 2861.62,-414.87 2854.83,-423.01 2861.38,-425.47"/>
</g>
<!-- BiInv_eisretr_biinv -->
<g id="node33" class="node">
<title>BiInv_eisretr_biinv</title>
<g id="a_node33"><a xlink:href="BiInv.html#eisretr_biinv" xlink:title="eisretr_biinv">
<ellipse fill="#f070d1" stroke="black" cx="2413" cy="-396.85" rx="69.59" ry="18"/>
<text text-anchor="middle" x="2413" y="-393.15" font-family="Times,serif" font-size="14.00">eisretr_biinv</text>
</a>
</g>
</g>
<!-- BiInv_isequiv_isbiinv_&#45;&gt;BiInv_eisretr_biinv -->
<g id="edge30" class="edge">
<title>BiInv_isequiv_isbiinv_&#45;&gt;BiInv_eisretr_biinv</title>
<path fill="none" stroke="black" d="M2735.18,-685.07C2677.89,-634 2505.5,-480.31 2439.29,-421.29"/>
<polygon fill="black" stroke="black" points="2441.55,-418.61 2431.76,-414.57 2436.9,-423.84 2441.55,-418.61"/>
</g>
<!-- BiInv_isequiv_isbiinv_retr -->
<g id="node17" class="node">
<title>BiInv_isequiv_isbiinv_retr</title>
<g id="a_node17"><a xlink:href="BiInv.html#isequiv_isbiinv_retr" xlink:title="isequiv_isbiinv_retr">
<ellipse fill="#f070d1" stroke="black" cx="504" cy="-702.85" rx="101.29" ry="18"/>
<ellipse fill="none" stroke="black" cx="504" cy="-702.85" rx="105.29" ry="22"/>
<ellipse fill="none" stroke="black" cx="504" cy="-702.85" rx="109.28" ry="26"/>
<text text-anchor="middle" x="504" y="-699.15" font-family="Times,serif" font-size="14.00">isequiv_isbiinv_retr</text>
</a>
</g>
</g>
<!-- BiInv_isequiv_isbiinv_retr&#45;&gt;BiInv_isequiv_isbiinv -->
<g id="edge31" class="edge">
<title>BiInv_isequiv_isbiinv_retr&#45;&gt;BiInv_isequiv_isbiinv</title>
<path fill="none" stroke="black" d="M535.96,-677.74C612.14,-620.27 803.58,-475.86 877.36,-420.2"/>
<polygon fill="black" stroke="black" points="879.48,-422.99 885.35,-414.17 875.26,-417.4 879.48,-422.99"/>
</g>
<!-- BiInv_isequiv_isbiinv&#45;&gt;BiInv_IsBiInv -->
<g id="edge32" class="edge">
<title>BiInv_isequiv_isbiinv&#45;&gt;BiInv_IsBiInv</title>
<path fill="none" stroke="black" d="M938.37,-380.22C1034.28,-332.44 1323.2,-188.5 1425.02,-137.77"/>
<polygon fill="black" stroke="black" points="1426.88,-140.75 1434.27,-133.16 1423.76,-134.49 1426.88,-140.75"/>
</g>
<!-- BiInv_issig_biinv&#45;&gt;BiInv_Build_BiInv -->
<g id="edge33" class="edge">
<title>BiInv_issig_biinv&#45;&gt;BiInv_Build_BiInv</title>
<path fill="none" stroke="black" d="M2204.11,-685.07C2155.92,-634.2 2011.31,-481.56 1954.89,-422.01"/>
<polygon fill="black" stroke="black" points="1957.26,-419.42 1947.85,-414.57 1952.18,-424.24 1957.26,-419.42"/>
</g>
<!-- BiInv_issig_biinv&#45;&gt;BiInv_BiInv -->
<g id="edge34" class="edge">
<title>BiInv_issig_biinv&#45;&gt;BiInv_BiInv</title>
<path fill="none" stroke="black" d="M2183.49,-688.4C2056.57,-641.53 1635.23,-484.85 1505,-422.85 1500.67,-420.78 1496.18,-418.46 1491.8,-416.09"/>
<polygon fill="black" stroke="black" points="1493.49,-413.02 1483.05,-411.2 1490.08,-419.13 1493.49,-413.02"/>
</g>
<!-- BiInv_prod_isbiinv&#45;&gt;BiInv_Build_IsBiInv -->
<g id="edge35" class="edge">
<title>BiInv_prod_isbiinv&#45;&gt;BiInv_Build_IsBiInv</title>
<path fill="none" stroke="black" d="M401.38,-378.58C424.14,-331.71 487.17,-201.87 514.31,-145.99"/>
<polygon fill="black" stroke="black" points="517.57,-147.28 518.79,-136.75 511.28,-144.22 517.57,-147.28"/>
</g>
<!-- BiInv_prod_isbiinv&#45;&gt;BiInv_IsBiInv -->
<g id="edge36" class="edge">
<title>BiInv_prod_isbiinv&#45;&gt;BiInv_IsBiInv</title>
<path fill="none" stroke="black" d="M439.92,-383.72C616.56,-338.07 1240.3,-176.88 1415.14,-131.7"/>
<polygon fill="black" stroke="black" points="1416.24,-135.03 1425.05,-129.14 1414.49,-128.25 1416.24,-135.03"/>
</g>
<!-- BiInv_sect_is_retr_isbiinv -->
<g id="node21" class="node">
<title>BiInv_sect_is_retr_isbiinv</title>
<g id="a_node21"><a xlink:href="BiInv.html#sect_is_retr_isbiinv" xlink:title="sect_is_retr_isbiinv">
<ellipse fill="#f070d1" stroke="black" cx="2961" cy="-702.85" rx="99.39" ry="18"/>
<ellipse fill="none" stroke="black" cx="2961" cy="-702.85" rx="103.38" ry="22"/>
<ellipse fill="none" stroke="black" cx="2961" cy="-702.85" rx="107.38" ry="26"/>
<text text-anchor="middle" x="2961" y="-699.15" font-family="Times,serif" font-size="14.00">sect_is_retr_isbiinv</text>
</a>
</g>
</g>
<!-- BiInv_sect_is_retr_isbiinv&#45;&gt;BiInv_sect_retr_homotopic_isbiinv -->
<g id="edge37" class="edge">
<title>BiInv_sect_is_retr_isbiinv&#45;&gt;BiInv_sect_retr_homotopic_isbiinv</title>
<path fill="none" stroke="black" d="M2935.27,-677.48C2875.05,-620.45 2725.47,-478.79 2665.48,-421.98"/>
<polygon fill="black" stroke="black" points="2667.63,-419.19 2657.96,-414.86 2662.81,-424.27 2667.63,-419.19"/>
</g>
<!-- BiInv_sect_is_retr_isbiinv&#45;&gt;BiInv_eissect_biinv -->
<g id="edge38" class="edge">
<title>BiInv_sect_is_retr_isbiinv&#45;&gt;BiInv_eissect_biinv</title>
<path fill="none" stroke="black" d="M2953.31,-676.71C2935.99,-620.08 2894.03,-482.92 2876.22,-424.7"/>
<polygon fill="black" stroke="black" points="2879.55,-423.64 2873.28,-415.1 2872.86,-425.69 2879.55,-423.64"/>
</g>
<!-- BiInv_retr_is_sect_isbiinv -->
<g id="node22" class="node">
<title>BiInv_retr_is_sect_isbiinv</title>
<g id="a_node22"><a xlink:href="BiInv.html#retr_is_sect_isbiinv" xlink:title="retr_is_sect_isbiinv">
<ellipse fill="#f070d1" stroke="black" cx="2547" cy="-702.85" rx="99.39" ry="18"/>
<ellipse fill="none" stroke="black" cx="2547" cy="-702.85" rx="103.38" ry="22"/>
<ellipse fill="none" stroke="black" cx="2547" cy="-702.85" rx="107.38" ry="26"/>
<text text-anchor="middle" x="2547" y="-699.15" font-family="Times,serif" font-size="14.00">retr_is_sect_isbiinv</text>
</a>
</g>
</g>
<!-- BiInv_retr_is_sect_isbiinv&#45;&gt;BiInv_sect_retr_homotopic_isbiinv -->
<g id="edge39" class="edge">
<title>BiInv_retr_is_sect_isbiinv&#45;&gt;BiInv_sect_retr_homotopic_isbiinv</title>
<path fill="none" stroke="black" d="M2554.69,-676.71C2572.01,-620.08 2613.97,-482.92 2631.78,-424.7"/>
<polygon fill="black" stroke="black" points="2635.14,-425.69 2634.72,-415.1 2628.45,-423.64 2635.14,-425.69"/>
</g>
<!-- BiInv_retr_is_sect_isbiinv&#45;&gt;BiInv_eisretr_biinv -->
<g id="edge40" class="edge">
<title>BiInv_retr_is_sect_isbiinv&#45;&gt;BiInv_eisretr_biinv</title>
<path fill="none" stroke="black" d="M2536.03,-676.97C2511.04,-620.27 2450.04,-481.88 2424.52,-423.99"/>
<polygon fill="black" stroke="black" points="2427.7,-422.52 2420.46,-414.78 2421.29,-425.34 2427.7,-422.52"/>
</g>
<!-- BiInv_sect_retr_homotopic_isbiinv&#45;&gt;BiInv_IsBiInv -->
<g id="edge41" class="edge">
<title>BiInv_sect_retr_homotopic_isbiinv&#45;&gt;BiInv_IsBiInv</title>
<path fill="none" stroke="black" d="M2575.77,-380.81C2364.14,-331.27 1691.73,-173.86 1507.86,-130.82"/>
<polygon fill="black" stroke="black" points="1508.5,-127.37 1497.96,-128.5 1506.9,-134.19 1508.5,-127.37"/>
</g>
<!-- BiInv_biinv_isbiinv -->
<g id="node24" class="node">
<title>BiInv_biinv_isbiinv</title>
<g id="a_node24"><a xlink:href="BiInv.html#biinv_isbiinv" xlink:title="biinv_isbiinv">
<ellipse fill="#f070d1" stroke="black" cx="1617" cy="-702.85" rx="68.8" ry="18"/>
<ellipse fill="none" stroke="black" cx="1617" cy="-702.85" rx="72.79" ry="22"/>
<ellipse fill="none" stroke="black" cx="1617" cy="-702.85" rx="76.79" ry="26"/>
<text text-anchor="middle" x="1617" y="-699.15" font-family="Times,serif" font-size="14.00">biinv_isbiinv</text>
</a>
</g>
</g>
<!-- BiInv_biinv_isbiinv&#45;&gt;BiInv_BiInv -->
<g id="edge42" class="edge">
<title>BiInv_biinv_isbiinv&#45;&gt;BiInv_BiInv</title>
<path fill="none" stroke="black" d="M1604.23,-676.97C1575.07,-620.13 1503.79,-481.23 1474.2,-423.58"/>
<polygon fill="black" stroke="black" points="1477.18,-421.72 1469.5,-414.42 1470.96,-424.92 1477.18,-421.72"/>
</g>
<!-- BiInv_biinv_fun -->
<g id="node25" class="node">
<title>BiInv_biinv_fun</title>
<g id="a_node25"><a xlink:href="BiInv.html#biinv_fun" xlink:title="biinv_fun">
<ellipse fill="#f070d1" stroke="black" cx="1461" cy="-702.85" rx="53.12" ry="18"/>
<ellipse fill="none" stroke="black" cx="1461" cy="-702.85" rx="57.1" ry="22"/>
<ellipse fill="none" stroke="black" cx="1461" cy="-702.85" rx="61.09" ry="26"/>
<text text-anchor="middle" x="1461" y="-699.15" font-family="Times,serif" font-size="14.00">biinv_fun</text>
</a>
</g>
</g>
<!-- BiInv_biinv_fun&#45;&gt;BiInv_BiInv -->
<g id="edge43" class="edge">
<title>BiInv_biinv_fun&#45;&gt;BiInv_BiInv</title>
<path fill="none" stroke="black" d="M1461,-676.71C1461,-620.31 1461,-484.06 1461,-425.43"/>
<polygon fill="black" stroke="black" points="1464.5,-425.1 1461,-415.1 1457.5,-425.1 1464.5,-425.1"/>
</g>
<!-- BiInv_BiInv_sind -->
<g id="node26" class="node">
<title>BiInv_BiInv_sind</title>
<g id="a_node26"><a xlink:href="BiInv.html#BiInv_sind" xlink:title="BiInv_sind">
<ellipse fill="#f070d1" stroke="black" cx="2075" cy="-702.85" rx="59.27" ry="18"/>
<ellipse fill="none" stroke="black" cx="2075" cy="-702.85" rx="63.28" ry="22"/>
<ellipse fill="none" stroke="black" cx="2075" cy="-702.85" rx="67.29" ry="26"/>
<text text-anchor="middle" x="2075" y="-699.15" font-family="Times,serif" font-size="14.00">BiInv_sind</text>
</a>
</g>
</g>
<!-- BiInv_BiInv_sind&#45;&gt;BiInv_Build_BiInv -->
<g id="edge44" class="edge">
<title>BiInv_BiInv_sind&#45;&gt;BiInv_Build_BiInv</title>
<path fill="none" stroke="black" d="M2063.42,-677.23C2036.83,-620.7 1971.61,-482.06 1944.32,-424.05"/>
<polygon fill="black" stroke="black" points="1947.41,-422.38 1939.98,-414.82 1941.07,-425.36 1947.41,-422.38"/>
</g>
<!-- BiInv_BiInv_sind&#45;&gt;BiInv_BiInv -->
<g id="edge45" class="edge">
<title>BiInv_BiInv_sind&#45;&gt;BiInv_BiInv</title>
<path fill="none" stroke="black" d="M2033.08,-682.41C1938.14,-638.16 1699.84,-525.76 1505,-422.85 1500.76,-420.61 1496.32,-418.18 1491.97,-415.76"/>
<polygon fill="black" stroke="black" points="1493.67,-412.7 1483.24,-410.83 1490.23,-418.79 1493.67,-412.7"/>
</g>
<!-- BiInv_BiInv_rec -->
<g id="node27" class="node">
<title>BiInv_BiInv_rec</title>
<g id="a_node27"><a xlink:href="BiInv.html#BiInv_rec" xlink:title="BiInv_rec">
<ellipse fill="#f070d1" stroke="black" cx="1932" cy="-1009.85" rx="53.9" ry="18"/>
<ellipse fill="none" stroke="black" cx="1932" cy="-1009.85" rx="57.89" ry="22"/>
<ellipse fill="none" stroke="black" cx="1932" cy="-1009.85" rx="61.89" ry="26"/>
<text text-anchor="middle" x="1932" y="-1006.15" font-family="Times,serif" font-size="14.00">BiInv_rec</text>
</a>
</g>
</g>
<!-- BiInv_BiInv_rect -->
<g id="node29" class="node">
<title>BiInv_BiInv_rect</title>
<g id="a_node29"><a xlink:href="BiInv.html#BiInv_rect" xlink:title="BiInv_rect">
<ellipse fill="#f070d1" stroke="black" cx="1932" cy="-702.85" rx="57.69" ry="18"/>
<text text-anchor="middle" x="1932" y="-699.15" font-family="Times,serif" font-size="14.00">BiInv_rect</text>
</a>
</g>
</g>
<!-- BiInv_BiInv_rec&#45;&gt;BiInv_BiInv_rect -->
<g id="edge46" class="edge">
<title>BiInv_BiInv_rec&#45;&gt;BiInv_BiInv_rect</title>
<path fill="none" stroke="black" d="M1932,-983.63C1932,-927.05 1932,-790.34 1932,-731.52"/>
<polygon fill="black" stroke="black" points="1935.5,-731.16 1932,-721.16 1928.5,-731.16 1935.5,-731.16"/>
</g>
<!-- BiInv_BiInv_ind -->
<g id="node28" class="node">
<title>BiInv_BiInv_ind</title>
<g id="a_node28"><a xlink:href="BiInv.html#BiInv_ind" xlink:title="BiInv_ind">
<ellipse fill="#7fffd4" stroke="black" cx="2360" cy="-702.85" rx="53.9" ry="18"/>
<ellipse fill="none" stroke="black" cx="2360" cy="-702.85" rx="57.89" ry="22"/>
<ellipse fill="none" stroke="black" cx="2360" cy="-702.85" rx="61.89" ry="26"/>
<text text-anchor="middle" x="2360" y="-699.15" font-family="Times,serif" font-size="14.00">BiInv_ind</text>
</a>
</g>
</g>
<!-- BiInv_BiInv_ind&#45;&gt;BiInv_Build_BiInv -->
<g id="edge47" class="edge">
<title>BiInv_BiInv_ind&#45;&gt;BiInv_Build_BiInv</title>
<path fill="none" stroke="black" d="M2329.22,-679.98C2250.41,-624.01 2042.02,-475.99 1962.99,-419.86"/>
<polygon fill="black" stroke="black" points="1964.62,-416.72 1954.44,-413.79 1960.57,-422.43 1964.62,-416.72"/>
</g>
<!-- BiInv_BiInv_ind&#45;&gt;BiInv_BiInv -->
<g id="edge48" class="edge">
<title>BiInv_BiInv_ind&#45;&gt;BiInv_BiInv</title>
<path fill="none" stroke="black" d="M2313.85,-685.41C2305.59,-682.52 2297.05,-679.57 2289,-676.85 1942.01,-559.57 1840.18,-570.53 1505,-422.85 1500.51,-420.87 1495.89,-418.57 1491.41,-416.17"/>
<polygon fill="black" stroke="black" points="1492.92,-413.01 1482.48,-411.21 1489.52,-419.13 1492.92,-413.01"/>
</g>
<!-- BiInv_BiInv_rect&#45;&gt;BiInv_Build_BiInv -->
<g id="edge49" class="edge">
<title>BiInv_BiInv_rect&#45;&gt;BiInv_Build_BiInv</title>
<path fill="none" stroke="black" d="M1932,-684.63C1932,-634.15 1932,-486.24 1932,-424.94"/>
<polygon fill="black" stroke="black" points="1935.5,-424.87 1932,-414.87 1928.5,-424.87 1935.5,-424.87"/>
</g>
<!-- BiInv_BiInv_rect&#45;&gt;BiInv_BiInv -->
<g id="edge50" class="edge">
<title>BiInv_BiInv_rect&#45;&gt;BiInv_BiInv</title>
<path fill="none" stroke="black" d="M1908,-686.35C1828.97,-635.34 1577.02,-472.73 1490.5,-416.89"/>
<polygon fill="black" stroke="black" points="1492.25,-413.85 1481.95,-411.37 1488.46,-419.74 1492.25,-413.85"/>
</g>
<!-- BiInv_Build_BiInv&#45;&gt;BiInv_IsBiInv -->
<g id="edge51" class="edge">
<title>BiInv_Build_BiInv&#45;&gt;BiInv_IsBiInv</title>
<path fill="none" stroke="black" d="M1905.67,-380.42C1825.21,-333.27 1582.71,-191.17 1493.98,-139.17"/>
<polygon fill="black" stroke="black" points="1495.55,-136.04 1485.15,-134 1492.01,-142.08 1495.55,-136.04"/>
</g>
<!-- BiInv_BiInv&#45;&gt;BiInv_IsBiInv -->
<g id="edge52" class="edge">
<title>BiInv_BiInv&#45;&gt;BiInv_IsBiInv</title>
<path fill="none" stroke="black" d="M1461,-378.58C1461,-332.11 1461,-204.09 1461,-147.44"/>
<polygon fill="black" stroke="black" points="1464.5,-147.1 1461,-137.11 1457.5,-147.11 1464.5,-147.1"/>
</g>
<!-- BiInv_eissect_biinv&#45;&gt;BiInv_IsBiInv -->
<g id="edge53" class="edge">
<title>BiInv_eissect_biinv&#45;&gt;BiInv_IsBiInv</title>
<path fill="none" stroke="black" d="M2827.67,-382.06C2815.35,-378.13 2801.69,-374.04 2789,-370.85 2296.8,-246.93 1688.21,-153.21 1511.36,-127.14"/>
<polygon fill="black" stroke="black" points="1511.71,-123.65 1501.31,-125.66 1510.69,-130.58 1511.71,-123.65"/>
</g>
<!-- BiInv_eisretr_biinv&#45;&gt;BiInv_IsBiInv -->
<g id="edge54" class="edge">
<title>BiInv_eisretr_biinv&#45;&gt;BiInv_IsBiInv</title>
<path fill="none" stroke="black" d="M2368.36,-382.9C2208.47,-336.55 1665.42,-179.11 1505.6,-132.78"/>
<polygon fill="black" stroke="black" points="1506.21,-129.31 1495.63,-129.89 1504.26,-136.03 1506.21,-129.31"/>
</g>
<!-- BiInv_retr_biinv -->
<g id="node34" class="node">
<title>BiInv_retr_biinv</title>
<g id="a_node34"><a xlink:href="BiInv.html#retr_biinv" xlink:title="retr_biinv">
<ellipse fill="#f070d1" stroke="black" cx="1726" cy="-396.85" rx="55.8" ry="18"/>
<ellipse fill="none" stroke="black" cx="1726" cy="-396.85" rx="59.8" ry="22"/>
<ellipse fill="none" stroke="black" cx="1726" cy="-396.85" rx="63.79" ry="26"/>
<text text-anchor="middle" x="1726" y="-393.15" font-family="Times,serif" font-size="14.00">retr_biinv</text>
</a>
</g>
</g>
<!-- BiInv_retr_biinv&#45;&gt;BiInv_IsBiInv -->
<g id="edge55" class="edge">
<title>BiInv_retr_biinv&#45;&gt;BiInv_IsBiInv</title>
<path fill="none" stroke="black" d="M1703.41,-372.31C1653.28,-320.11 1533.28,-195.13 1483.37,-143.15"/>
<polygon fill="black" stroke="black" points="1485.71,-140.53 1476.26,-135.74 1480.66,-145.37 1485.71,-140.53"/>
</g>
<!-- BiInv_sect_biinv -->
<g id="node35" class="node">
<title>BiInv_sect_biinv</title>
<g id="a_node35"><a xlink:href="BiInv.html#sect_biinv" xlink:title="sect_biinv">
<ellipse fill="#f070d1" stroke="black" cx="1579" cy="-396.85" rx="57.37" ry="18"/>
<ellipse fill="none" stroke="black" cx="1579" cy="-396.85" rx="61.38" ry="22"/>
<ellipse fill="none" stroke="black" cx="1579" cy="-396.85" rx="65.39" ry="26"/>
<text text-anchor="middle" x="1579" y="-393.15" font-family="Times,serif" font-size="14.00">sect_biinv</text>
</a>
</g>
</g>
<!-- BiInv_sect_biinv&#45;&gt;BiInv_IsBiInv -->
<g id="edge56" class="edge">
<title>BiInv_sect_biinv&#45;&gt;BiInv_IsBiInv</title>
<path fill="none" stroke="black" d="M1568.32,-370.87C1546.1,-318.88 1495.05,-199.49 1472.3,-146.28"/>
<polygon fill="black" stroke="black" points="1475.42,-144.67 1468.27,-136.85 1468.98,-147.42 1475.42,-144.67"/>
</g>
<!-- BiInv_IsBiInv_sind -->
<g id="node36" class="node">
<title>BiInv_IsBiInv_sind</title>
<g id="a_node36"><a xlink:href="BiInv.html#IsBiInv_sind" xlink:title="IsBiInv_sind">
<ellipse fill="#f070d1" stroke="black" cx="575" cy="-396.85" rx="67.68" ry="18"/>
<ellipse fill="none" stroke="black" cx="575" cy="-396.85" rx="71.68" ry="22"/>
<ellipse fill="none" stroke="black" cx="575" cy="-396.85" rx="75.69" ry="26"/>
<text text-anchor="middle" x="575" y="-393.15" font-family="Times,serif" font-size="14.00">IsBiInv_sind</text>
</a>
</g>
</g>
<!-- BiInv_IsBiInv_sind&#45;&gt;BiInv_Build_IsBiInv -->
<g id="edge57" class="edge">
<title>BiInv_IsBiInv_sind&#45;&gt;BiInv_Build_IsBiInv</title>
<path fill="none" stroke="black" d="M570.66,-370.87C561.65,-319.1 541.02,-200.48 531.71,-146.95"/>
<polygon fill="black" stroke="black" points="535.12,-146.1 529.96,-136.85 528.22,-147.3 535.12,-146.1"/>
</g>
<!-- BiInv_IsBiInv_sind&#45;&gt;BiInv_IsBiInv -->
<g id="edge58" class="edge">
<title>BiInv_IsBiInv_sind&#45;&gt;BiInv_IsBiInv</title>
<path fill="none" stroke="black" d="M629.75,-378.79C792.4,-328.12 1270.45,-179.2 1417.48,-133.4"/>
<polygon fill="black" stroke="black" points="1418.57,-136.73 1427.08,-130.41 1416.49,-130.05 1418.57,-136.73"/>
</g>
<!-- BiInv_IsBiInv_rec -->
<g id="node37" class="node">
<title>BiInv_IsBiInv_rec</title>
<g id="a_node37"><a xlink:href="BiInv.html#IsBiInv_rec" xlink:title="IsBiInv_rec">
<ellipse fill="#f070d1" stroke="black" cx="86" cy="-702.85" rx="62.3" ry="18"/>
<ellipse fill="none" stroke="black" cx="86" cy="-702.85" rx="66.3" ry="22"/>
<ellipse fill="none" stroke="black" cx="86" cy="-702.85" rx="70.29" ry="26"/>
<text text-anchor="middle" x="86" y="-699.15" font-family="Times,serif" font-size="14.00">IsBiInv_rec</text>
</a>
</g>
</g>
<!-- BiInv_IsBiInv_rect -->
<g id="node39" class="node">
<title>BiInv_IsBiInv_rect</title>
<g id="a_node39"><a xlink:href="BiInv.html#IsBiInv_rect" xlink:title="IsBiInv_rect">
<ellipse fill="#f070d1" stroke="black" cx="241" cy="-396.85" rx="66.09" ry="18"/>
<text text-anchor="middle" x="241" y="-393.15" font-family="Times,serif" font-size="14.00">IsBiInv_rect</text>
</a>
</g>
</g>
<!-- BiInv_IsBiInv_rec&#45;&gt;BiInv_IsBiInv_rect -->
<g id="edge59" class="edge">
<title>BiInv_IsBiInv_rec&#45;&gt;BiInv_IsBiInv_rect</title>
<path fill="none" stroke="black" d="M98.55,-677.23C127.37,-620.7 198.06,-482.06 227.64,-424.05"/>
<polygon fill="black" stroke="black" points="230.92,-425.32 232.35,-414.82 224.69,-422.14 230.92,-425.32"/>
</g>
<!-- BiInv_IsBiInv_ind -->
<g id="node38" class="node">
<title>BiInv_IsBiInv_ind</title>
<g id="a_node38"><a xlink:href="BiInv.html#IsBiInv_ind" xlink:title="IsBiInv_ind">
<ellipse fill="#7fffd4" stroke="black" cx="739" cy="-396.85" rx="62.3" ry="18"/>
<ellipse fill="none" stroke="black" cx="739" cy="-396.85" rx="66.3" ry="22"/>
<ellipse fill="none" stroke="black" cx="739" cy="-396.85" rx="70.29" ry="26"/>
<text text-anchor="middle" x="739" y="-393.15" font-family="Times,serif" font-size="14.00">IsBiInv_ind</text>
</a>
</g>
</g>
<!-- BiInv_IsBiInv_ind&#45;&gt;BiInv_Build_IsBiInv -->
<g id="edge60" class="edge">
<title>BiInv_IsBiInv_ind&#45;&gt;BiInv_Build_IsBiInv</title>
<path fill="none" stroke="black" d="M720.19,-371.35C680.06,-319.12 586.46,-197.25 546.09,-144.7"/>
<polygon fill="black" stroke="black" points="548.73,-142.39 539.86,-136.59 543.18,-146.65 548.73,-142.39"/>
</g>
<!-- BiInv_IsBiInv_ind&#45;&gt;BiInv_IsBiInv -->
<g id="edge61" class="edge">
<title>BiInv_IsBiInv_ind&#45;&gt;BiInv_IsBiInv</title>
<path fill="none" stroke="black" d="M786.65,-377.63C920.09,-326.62 1295.82,-182.99 1420.34,-135.39"/>
<polygon fill="black" stroke="black" points="1421.8,-138.58 1429.9,-131.74 1419.3,-132.04 1421.8,-138.58"/>
</g>
<!-- BiInv_IsBiInv_rect&#45;&gt;BiInv_Build_IsBiInv -->
<g id="edge62" class="edge">
<title>BiInv_IsBiInv_rect&#45;&gt;BiInv_Build_IsBiInv</title>
<path fill="none" stroke="black" d="M258.03,-379.41C306.5,-332.63 445.33,-198.66 502.23,-143.75"/>
<polygon fill="black" stroke="black" points="504.93,-146.01 509.69,-136.55 500.07,-140.97 504.93,-146.01"/>
</g>
<!-- BiInv_IsBiInv_rect&#45;&gt;BiInv_IsBiInv -->
<g id="edge63" class="edge">
<title>BiInv_IsBiInv_rect&#45;&gt;BiInv_IsBiInv</title>
<path fill="none" stroke="black" d="M279.69,-382.08C291.29,-378.19 304.09,-374.13 316,-370.85 735.24,-255.37 1252.35,-157.79 1411.85,-128.69"/>
<polygon fill="black" stroke="black" points="1412.62,-132.11 1421.84,-126.87 1411.37,-125.22 1412.62,-132.11"/>
</g>
</g>
</svg>
