<?xml version="1.0" encoding="UTF-8" standalone="no"?>
<!DOCTYPE svg PUBLIC "-//W3C//DTD SVG 1.1//EN"
 "http://www.w3.org/Graphics/SVG/1.1/DTD/svg11.dtd">
<!-- Generated by graphviz version 2.43.0 (0)
 -->
<!-- Title: HoTT_Pointed_pSect Pages: 1 -->
<svg width="696pt" height="352pt"
 viewBox="0.00 0.00 696.00 352.00" xmlns="http://www.w3.org/2000/svg" xmlns:xlink="http://www.w3.org/1999/xlink">
<g id="graph0" class="graph" transform="scale(1 1) rotate(0) translate(4 348)">
<title>HoTT_Pointed_pSect</title>
<polygon fill="white" stroke="transparent" points="-4,4 -4,-348 692,-348 692,4 -4,4"/>
<g id="clust1" class="cluster">
<title>cluster_pSect</title>
<polygon fill="#ffffc3" stroke="black" points="8,-15.37 8,-328.63 680,-328.63 680,-15.37 8,-15.37"/>
<text text-anchor="middle" x="36.5" y="-313.43" font-family="Times,serif" font-size="14.00">pSect</text>
</g>
<!-- pSect_equiv_psect_psnd -->
<g id="node1" class="node">
<title>pSect_equiv_psect_psnd</title>
<g id="a_node1"><a xlink:href="pSect.html#equiv_psect_psnd" xlink:title="equiv_psect_psnd">
<ellipse fill="#f070d1" stroke="black" cx="572" cy="-219.37" rx="92.1" ry="18"/>
<ellipse fill="none" stroke="black" cx="572" cy="-219.37" rx="96.09" ry="22"/>
<ellipse fill="none" stroke="black" cx="572" cy="-219.37" rx="100.08" ry="26"/>
<text text-anchor="middle" x="572" y="-215.67" font-family="Times,serif" font-size="14.00">equiv_psect_psnd</text>
</a>
</g>
</g>
<!-- pSect_pSect -->
<g id="node4" class="node">
<title>pSect_pSect</title>
<g id="a_node4"><a xlink:href="pSect.html#pSect" xlink:title="pSect">
<ellipse fill="#f070d1" stroke="black" cx="314" cy="-65.37" rx="37.09" ry="18"/>
<text text-anchor="middle" x="314" y="-61.67" font-family="Times,serif" font-size="14.00">pSect</text>
</a>
</g>
</g>
<!-- pSect_equiv_psect_psnd&#45;&gt;pSect_pSect -->
<g id="edge1" class="edge">
<title>pSect_equiv_psect_psnd&#45;&gt;pSect_pSect</title>
<path fill="none" stroke="black" d="M532.82,-195.29C481.54,-165.08 392.68,-112.73 345.52,-84.94"/>
<polygon fill="black" stroke="black" points="347.06,-81.79 336.66,-79.73 343.5,-87.82 347.06,-81.79"/>
</g>
<!-- pSect_equiv_pequiv_pslice_psect -->
<g id="node2" class="node">
<title>pSect_equiv_pequiv_pslice_psect</title>
<g id="a_node2"><a xlink:href="pSect.html#equiv_pequiv_pslice_psect" xlink:title="equiv_pequiv_pslice_psect">
<ellipse fill="#f070d1" stroke="black" cx="314" cy="-219.37" rx="131.88" ry="18"/>
<ellipse fill="none" stroke="black" cx="314" cy="-219.37" rx="135.88" ry="22"/>
<ellipse fill="none" stroke="black" cx="314" cy="-219.37" rx="139.88" ry="26"/>
<text text-anchor="middle" x="314" y="-215.67" font-family="Times,serif" font-size="14.00">equiv_pequiv_pslice_psect</text>
</a>
</g>
</g>
<!-- pSect_equiv_pequiv_pslice_psect&#45;&gt;pSect_pSect -->
<g id="edge2" class="edge">
<title>pSect_equiv_pequiv_pslice_psect&#45;&gt;pSect_pSect</title>
<path fill="none" stroke="black" d="M314,-193.27C314,-165.76 314,-121.77 314,-93.48"/>
<polygon fill="black" stroke="black" points="317.5,-93.48 314,-83.48 310.5,-93.48 317.5,-93.48"/>
</g>
<!-- pSect_issig_psect -->
<g id="node3" class="node">
<title>pSect_issig_psect</title>
<g id="a_node3"><a xlink:href="pSect.html#issig_psect" xlink:title="issig_psect">
<ellipse fill="#f070d1" stroke="black" cx="86" cy="-219.37" rx="61.96" ry="18"/>
<ellipse fill="none" stroke="black" cx="86" cy="-219.37" rx="65.98" ry="22"/>
<ellipse fill="none" stroke="black" cx="86" cy="-219.37" rx="69.99" ry="26"/>
<text text-anchor="middle" x="86" y="-215.67" font-family="Times,serif" font-size="14.00">issig_psect</text>
</a>
</g>
</g>
<!-- pSect_issig_psect&#45;&gt;pSect_pSect -->
<g id="edge3" class="edge">
<title>pSect_issig_psect&#45;&gt;pSect_pSect</title>
<path fill="none" stroke="black" d="M119.15,-196.27C163.66,-166.6 242.04,-114.35 284.56,-86"/>
<polygon fill="black" stroke="black" points="286.69,-88.79 293.07,-80.33 282.81,-82.96 286.69,-88.79"/>
</g>
</g>
</svg>
