<?xml version="1.0" encoding="UTF-8" standalone="no"?>
<!DOCTYPE svg PUBLIC "-//W3C//DTD SVG 1.1//EN"
 "http://www.w3.org/Graphics/SVG/1.1/DTD/svg11.dtd">
<!-- Generated by graphviz version 2.43.0 (0)
 -->
<!-- Title: HoTT_HIT_Interval Pages: 1 -->
<svg width="846pt" height="427pt"
 viewBox="0.00 0.00 846.00 427.00" xmlns="http://www.w3.org/2000/svg" xmlns:xlink="http://www.w3.org/1999/xlink">
<g id="graph0" class="graph" transform="scale(1 1) rotate(0) translate(4 423)">
<title>HoTT_HIT_Interval</title>
<polygon fill="white" stroke="transparent" points="-4,4 -4,-423 842,-423 842,4 -4,4"/>
<g id="clust1" class="cluster">
<title>cluster_Interval</title>
<polygon fill="#ffffc3" stroke="black" points="10.87,-8 10.87,-411 827.13,-411 827.13,-8 10.87,-8"/>
<text text-anchor="middle" x="47.37" y="-395.8" font-family="Times,serif" font-size="14.00">Interval</text>
</g>
<g id="clust2" class="cluster">
<title>cluster_Interval_Interval</title>
<polygon fill="#ffffa3" stroke="black" points="21.73,-16 21.73,-315 376.22,-315 376.22,-16 21.73,-16"/>
<text text-anchor="middle" x="58.23" y="-299.8" font-family="Times,serif" font-size="14.00">Interval</text>
</g>
<!-- Interval_Interval_interval_ind_beta_seg -->
<g id="node1" class="node">
<title>Interval_Interval_interval_ind_beta_seg</title>
<g id="a_node1"><a xlink:href="Interval.html#Interval.interval_ind_beta_seg" xlink:title="interval_ind_beta_seg">
<ellipse fill="#facdef" stroke="black" cx="212" cy="-266" rx="111.28" ry="18"/>
<text text-anchor="middle" x="212" y="-262.3" font-family="Times,serif" font-size="14.00">interval_ind_beta_seg</text>
</a>
</g>
</g>
<!-- Interval_Interval_interval_ind -->
<g id="node2" class="node">
<title>Interval_Interval_interval_ind</title>
<g id="a_node2"><a xlink:href="Interval.html#Interval.interval_ind" xlink:title="interval_ind">
<ellipse fill="#f070d1" stroke="black" cx="243" cy="-186" rx="65.79" ry="18"/>
<text text-anchor="middle" x="243" y="-182.3" font-family="Times,serif" font-size="14.00">interval_ind</text>
</a>
</g>
</g>
<!-- Interval_Interval_interval_ind_beta_seg&#45;&gt;Interval_Interval_interval_ind -->
<g id="edge1" class="edge">
<title>Interval_Interval_interval_ind_beta_seg&#45;&gt;Interval_Interval_interval_ind</title>
<path fill="none" stroke="black" d="M218.88,-247.69C222.88,-237.62 228,-224.73 232.5,-213.42"/>
<polygon fill="black" stroke="black" points="235.8,-214.58 236.24,-203.99 229.3,-211.99 235.8,-214.58"/>
</g>
<!-- Interval_Interval_seg -->
<g id="node3" class="node">
<title>Interval_Interval_seg</title>
<g id="a_node3"><a xlink:href="Interval.html#Interval.seg" xlink:title="seg">
<ellipse fill="#facdef" stroke="black" cx="192" cy="-114" rx="27" ry="18"/>
<text text-anchor="middle" x="192" y="-110.3" font-family="Times,serif" font-size="14.00">seg</text>
</a>
</g>
</g>
<!-- Interval_Interval_interval_ind&#45;&gt;Interval_Interval_seg -->
<g id="edge2" class="edge">
<title>Interval_Interval_interval_ind&#45;&gt;Interval_Interval_seg</title>
<path fill="none" stroke="black" d="M230.65,-168.05C224.33,-159.38 216.53,-148.67 209.59,-139.15"/>
<polygon fill="black" stroke="black" points="212.25,-136.85 203.53,-130.83 206.59,-140.97 212.25,-136.85"/>
</g>
<!-- Interval_Interval_one -->
<g id="node4" class="node">
<title>Interval_Interval_one</title>
<g id="a_node4"><a xlink:href="Interval.html#Interval.one" xlink:title="one">
<ellipse fill="#7faaff" stroke="black" cx="69" cy="-42" rx="27.1" ry="18"/>
<text text-anchor="middle" x="69" y="-38.3" font-family="Times,serif" font-size="14.00">one</text>
</a>
</g>
</g>
<!-- Interval_Interval_seg&#45;&gt;Interval_Interval_one -->
<g id="edge3" class="edge">
<title>Interval_Interval_seg&#45;&gt;Interval_Interval_one</title>
<path fill="none" stroke="black" d="M171.96,-101.6C151.86,-90.16 120.69,-72.42 97.91,-59.46"/>
<polygon fill="black" stroke="black" points="99.45,-56.3 89.02,-54.4 95.98,-62.39 99.45,-56.3"/>
</g>
<!-- Interval_Interval_zero -->
<g id="node5" class="node">
<title>Interval_Interval_zero</title>
<g id="a_node5"><a xlink:href="Interval.html#Interval.zero" xlink:title="zero">
<ellipse fill="#7faaff" stroke="black" cx="172" cy="-42" rx="30.59" ry="18"/>
<text text-anchor="middle" x="172" y="-38.3" font-family="Times,serif" font-size="14.00">zero</text>
</a>
</g>
</g>
<!-- Interval_Interval_seg&#45;&gt;Interval_Interval_zero -->
<g id="edge4" class="edge">
<title>Interval_Interval_seg&#45;&gt;Interval_Interval_zero</title>
<path fill="none" stroke="black" d="M187.16,-96.05C184.9,-88.14 182.15,-78.54 179.62,-69.69"/>
<polygon fill="black" stroke="black" points="182.91,-68.44 176.79,-59.79 176.18,-70.37 182.91,-68.44"/>
</g>
<!-- Interval_Interval_interval -->
<g id="node6" class="node">
<title>Interval_Interval_interval</title>
<g id="a_node6"><a xlink:href="Interval.html#Interval.interval" xlink:title="interval">
<ellipse fill="#e2cdfa" stroke="black" cx="302" cy="-42" rx="46.59" ry="18"/>
<text text-anchor="middle" x="302" y="-38.3" font-family="Times,serif" font-size="14.00">interval</text>
</a>
</g>
</g>
<!-- Interval_Interval_seg&#45;&gt;Interval_Interval_interval -->
<g id="edge5" class="edge">
<title>Interval_Interval_seg&#45;&gt;Interval_Interval_interval</title>
<path fill="none" stroke="black" d="M211.16,-100.81C227.42,-90.46 251.08,-75.4 270.18,-63.25"/>
<polygon fill="black" stroke="black" points="272.3,-66.04 278.86,-57.72 268.55,-60.14 272.3,-66.04"/>
</g>
<!-- Interval_contr_interval -->
<g id="node7" class="node">
<title>Interval_contr_interval</title>
<g id="a_node7"><a xlink:href="Interval.html#contr_interval" xlink:title="contr_interval">
<ellipse fill="#f070d1" stroke="black" cx="704" cy="-266" rx="75.3" ry="18"/>
<ellipse fill="none" stroke="black" cx="704" cy="-266" rx="79.29" ry="22"/>
<ellipse fill="none" stroke="black" cx="704" cy="-266" rx="83.29" ry="26"/>
<text text-anchor="middle" x="704" y="-262.3" font-family="Times,serif" font-size="14.00">contr_interval</text>
</a>
</g>
</g>
<!-- Interval_contr_interval&#45;&gt;Interval_Interval_interval_ind -->
<g id="edge6" class="edge">
<title>Interval_contr_interval&#45;&gt;Interval_Interval_interval_ind</title>
<path fill="none" stroke="black" d="M631.97,-252.81C542.9,-237.74 392.66,-212.32 307.31,-197.88"/>
<polygon fill="black" stroke="black" points="307.68,-194.39 297.23,-196.18 306.51,-201.3 307.68,-194.39"/>
</g>
<!-- Interval_interval_rec_beta_seg -->
<g id="node8" class="node">
<title>Interval_interval_rec_beta_seg</title>
<g id="a_node8"><a xlink:href="Interval.html#interval_rec_beta_seg" xlink:title="interval_rec_beta_seg">
<ellipse fill="#f070d1" stroke="black" cx="344" cy="-354" rx="111.27" ry="18"/>
<ellipse fill="none" stroke="black" cx="344" cy="-354" rx="115.28" ry="22"/>
<ellipse fill="none" stroke="black" cx="344" cy="-354" rx="119.28" ry="26"/>
<text text-anchor="middle" x="344" y="-350.3" font-family="Times,serif" font-size="14.00">interval_rec_beta_seg</text>
</a>
</g>
</g>
<!-- Interval_interval_rec_beta_seg&#45;&gt;Interval_Interval_interval_ind_beta_seg -->
<g id="edge7" class="edge">
<title>Interval_interval_rec_beta_seg&#45;&gt;Interval_Interval_interval_ind_beta_seg</title>
<path fill="none" stroke="black" d="M307.23,-329.04C288.13,-316.6 264.94,-301.49 246.23,-289.3"/>
<polygon fill="black" stroke="black" points="247.99,-286.28 237.7,-283.75 244.17,-292.14 247.99,-286.28"/>
</g>
<!-- Interval_interval_rec -->
<g id="node9" class="node">
<title>Interval_interval_rec</title>
<g id="a_node9"><a xlink:href="Interval.html#interval_rec" xlink:title="interval_rec">
<ellipse fill="#f070d1" stroke="black" cx="477" cy="-266" rx="65.79" ry="18"/>
<text text-anchor="middle" x="477" y="-262.3" font-family="Times,serif" font-size="14.00">interval_rec</text>
</a>
</g>
</g>
<!-- Interval_interval_rec_beta_seg&#45;&gt;Interval_interval_rec -->
<g id="edge8" class="edge">
<title>Interval_interval_rec_beta_seg&#45;&gt;Interval_interval_rec</title>
<path fill="none" stroke="black" d="M381.04,-329.04C400.69,-316.34 424.62,-300.87 443.67,-288.55"/>
<polygon fill="black" stroke="black" points="445.82,-291.32 452.32,-282.96 442.02,-285.45 445.82,-291.32"/>
</g>
<!-- Interval_interval_rec&#45;&gt;Interval_Interval_interval_ind -->
<g id="edge9" class="edge">
<title>Interval_interval_rec&#45;&gt;Interval_Interval_interval_ind</title>
<path fill="none" stroke="black" d="M437.04,-251.68C397.19,-238.4 335.9,-217.97 292.88,-203.63"/>
<polygon fill="black" stroke="black" points="293.78,-200.24 283.18,-200.4 291.56,-206.88 293.78,-200.24"/>
</g>
</g>
</svg>
