<?xml version="1.0" encoding="UTF-8" standalone="no"?>
<!DOCTYPE svg PUBLIC "-//W3C//DTD SVG 1.1//EN"
 "http://www.w3.org/Graphics/SVG/1.1/DTD/svg11.dtd">
<!-- Generated by graphviz version 2.43.0 (0)
 -->
<!-- Title: HoTT_Spectra_Spectrum Pages: 1 -->
<svg width="1192pt" height="589pt"
 viewBox="0.00 0.00 1191.96 589.50" xmlns="http://www.w3.org/2000/svg" xmlns:xlink="http://www.w3.org/1999/xlink">
<g id="graph0" class="graph" transform="scale(1 1) rotate(0) translate(4 585.5)">
<title>HoTT_Spectra_Spectrum</title>
<polygon fill="white" stroke="transparent" points="-4,4 -4,-585.5 1187.96,-585.5 1187.96,4 -4,4"/>
<g id="clust1" class="cluster">
<title>cluster_Spectrum</title>
<polygon fill="#ffffc3" stroke="black" points="28.96,-10.5 28.96,-571 1175.96,-571 1175.96,-10.5 28.96,-10.5"/>
<text text-anchor="middle" x="71.96" y="-555.8" font-family="Times,serif" font-size="14.00">Spectrum</text>
</g>
<!-- Spectrum_strunc -->
<g id="node1" class="node">
<title>Spectrum_strunc</title>
<g id="a_node1"><a xlink:href="Spectrum.html#strunc" xlink:title="strunc">
<ellipse fill="#f070d1" stroke="black" cx="155.96" cy="-496.5" rx="40.13" ry="18"/>
<ellipse fill="none" stroke="black" cx="155.96" cy="-496.5" rx="44.11" ry="22"/>
<ellipse fill="none" stroke="black" cx="155.96" cy="-496.5" rx="48.09" ry="26"/>
<text text-anchor="middle" x="155.96" y="-492.8" font-family="Times,serif" font-size="14.00">strunc</text>
</a>
</g>
</g>
<!-- Spectrum_Build_Spectrum -->
<g id="node8" class="node">
<title>Spectrum_Build_Spectrum</title>
<g id="a_node8"><a xlink:href="Spectrum.html#Build_Spectrum" xlink:title="Build_Spectrum">
<ellipse fill="#7faaff" stroke="black" cx="595.96" cy="-265.5" rx="85.29" ry="18"/>
<text text-anchor="middle" x="595.96" y="-261.8" font-family="Times,serif" font-size="14.00">Build_Spectrum</text>
</a>
</g>
</g>
<!-- Spectrum_strunc&#45;&gt;Spectrum_Build_Spectrum -->
<g id="edge1" class="edge">
<title>Spectrum_strunc&#45;&gt;Spectrum_Build_Spectrum</title>
<path fill="none" stroke="black" d="M164.4,-470.73C178.05,-430.82 203.68,-356.5 205.96,-354.5 307.09,-265.83 371.15,-322.8 501.96,-291.5 513.14,-288.83 525.02,-285.81 536.43,-282.82"/>
<polygon fill="black" stroke="black" points="537.54,-286.14 546.32,-280.2 535.75,-279.37 537.54,-286.14"/>
</g>
<!-- Spectrum_Spectrum -->
<g id="node9" class="node">
<title>Spectrum_Spectrum</title>
<g id="a_node9"><a xlink:href="Spectrum.html#Spectrum" xlink:title="Spectrum">
<ellipse fill="#e2cdfa" stroke="black" cx="860.96" cy="-265.5" rx="55.79" ry="18"/>
<text text-anchor="middle" x="860.96" y="-261.8" font-family="Times,serif" font-size="14.00">Spectrum</text>
</a>
</g>
</g>
<!-- Spectrum_strunc&#45;&gt;Spectrum_Spectrum -->
<g id="edge2" class="edge">
<title>Spectrum_strunc&#45;&gt;Spectrum_Spectrum</title>
<path fill="none" stroke="black" d="M203.71,-492.13C400.69,-478.11 1140.63,-424.35 1156.96,-406.5 1230.2,-326.46 1029.74,-287.95 922.95,-273.54"/>
<polygon fill="black" stroke="black" points="923.3,-270.05 912.93,-272.22 922.38,-276.99 923.3,-270.05"/>
</g>
<!-- Spectrum_equiv_glue -->
<g id="node10" class="node">
<title>Spectrum_equiv_glue</title>
<g id="a_node10"><a xlink:href="Spectrum.html#equiv_glue" xlink:title="equiv_glue">
<ellipse fill="#f070d1" stroke="black" cx="116.96" cy="-380.5" rx="60.39" ry="18"/>
<text text-anchor="middle" x="116.96" y="-376.8" font-family="Times,serif" font-size="14.00">equiv_glue</text>
</a>
</g>
</g>
<!-- Spectrum_strunc&#45;&gt;Spectrum_equiv_glue -->
<g id="edge3" class="edge">
<title>Spectrum_strunc&#45;&gt;Spectrum_equiv_glue</title>
<path fill="none" stroke="black" d="M147.5,-470.76C141.15,-452.22 132.49,-426.89 126.01,-407.95"/>
<polygon fill="black" stroke="black" points="129.3,-406.76 122.75,-398.44 122.68,-409.03 129.3,-406.76"/>
</g>
<!-- Spectrum_Build_Prespectrum -->
<g id="node19" class="node">
<title>Spectrum_Build_Prespectrum</title>
<g id="a_node19"><a xlink:href="Spectrum.html#Build_Prespectrum" xlink:title="Build_Prespectrum">
<ellipse fill="#7faaff" stroke="black" cx="268.96" cy="-44.5" rx="99.38" ry="18"/>
<text text-anchor="middle" x="268.96" y="-40.8" font-family="Times,serif" font-size="14.00">Build_Prespectrum</text>
</a>
</g>
</g>
<!-- Spectrum_strunc&#45;&gt;Spectrum_Build_Prespectrum -->
<g id="edge4" class="edge">
<title>Spectrum_strunc&#45;&gt;Spectrum_Build_Prespectrum</title>
<path fill="none" stroke="black" d="M121.66,-478.1C96.09,-463.02 63.09,-438.58 47.96,-406.5 -5.7,-292.74 -24.69,-226.18 47.96,-123.5 75.87,-84.05 125.46,-64.41 170.6,-54.7"/>
<polygon fill="black" stroke="black" points="171.35,-58.12 180.46,-52.72 169.97,-51.26 171.35,-58.12"/>
</g>
<!-- Spectrum_to_is_spectrum -->
<g id="node2" class="node">
<title>Spectrum_to_is_spectrum</title>
<g id="a_node2"><a xlink:href="Spectrum.html#to_is_spectrum" xlink:title="to_is_spectrum">
<ellipse fill="#f070d1" stroke="black" cx="1058.96" cy="-380.5" rx="80.68" ry="18"/>
<ellipse fill="none" stroke="black" cx="1058.96" cy="-380.5" rx="84.68" ry="22"/>
<ellipse fill="none" stroke="black" cx="1058.96" cy="-380.5" rx="88.69" ry="26"/>
<text text-anchor="middle" x="1058.96" y="-376.8" font-family="Times,serif" font-size="14.00">to_is_spectrum</text>
</a>
</g>
</g>
<!-- Spectrum_to_is_spectrum&#45;&gt;Spectrum_Spectrum -->
<g id="edge5" class="edge">
<title>Spectrum_to_is_spectrum&#45;&gt;Spectrum_Spectrum</title>
<path fill="none" stroke="black" d="M1019.37,-356.91C983.31,-336.33 930.58,-306.24 896.02,-286.51"/>
<polygon fill="black" stroke="black" points="897.64,-283.4 887.22,-281.49 894.17,-289.48 897.64,-283.4"/>
</g>
<!-- Spectrum_to_prespectrum -->
<g id="node3" class="node">
<title>Spectrum_to_prespectrum</title>
<g id="a_node3"><a xlink:href="Spectrum.html#to_prespectrum" xlink:title="to_prespectrum">
<ellipse fill="#f070d1" stroke="black" cx="860.96" cy="-380.5" rx="83.7" ry="18"/>
<ellipse fill="none" stroke="black" cx="860.96" cy="-380.5" rx="87.69" ry="22"/>
<ellipse fill="none" stroke="black" cx="860.96" cy="-380.5" rx="91.69" ry="26"/>
<text text-anchor="middle" x="860.96" y="-376.8" font-family="Times,serif" font-size="14.00">to_prespectrum</text>
</a>
</g>
</g>
<!-- Spectrum_to_prespectrum&#45;&gt;Spectrum_Spectrum -->
<g id="edge6" class="edge">
<title>Spectrum_to_prespectrum&#45;&gt;Spectrum_Spectrum</title>
<path fill="none" stroke="black" d="M860.96,-354.42C860.96,-336.49 860.96,-312.35 860.96,-293.91"/>
<polygon fill="black" stroke="black" points="864.46,-293.8 860.96,-283.8 857.46,-293.8 864.46,-293.8"/>
</g>
<!-- Spectrum_Spectrum_sind -->
<g id="node4" class="node">
<title>Spectrum_Spectrum_sind</title>
<g id="a_node4"><a xlink:href="Spectrum.html#Spectrum_sind" xlink:title="Spectrum_sind">
<ellipse fill="#f070d1" stroke="black" cx="486.96" cy="-380.5" rx="79.89" ry="18"/>
<ellipse fill="none" stroke="black" cx="486.96" cy="-380.5" rx="83.89" ry="22"/>
<ellipse fill="none" stroke="black" cx="486.96" cy="-380.5" rx="87.89" ry="26"/>
<text text-anchor="middle" x="486.96" y="-376.8" font-family="Times,serif" font-size="14.00">Spectrum_sind</text>
</a>
</g>
</g>
<!-- Spectrum_Spectrum_sind&#45;&gt;Spectrum_Build_Spectrum -->
<g id="edge7" class="edge">
<title>Spectrum_Spectrum_sind&#45;&gt;Spectrum_Build_Spectrum</title>
<path fill="none" stroke="black" d="M510.34,-355.26C528.7,-336.22 554.16,-309.84 572.53,-290.79"/>
<polygon fill="black" stroke="black" points="575.26,-293 579.69,-283.37 570.22,-288.14 575.26,-293"/>
</g>
<!-- Spectrum_Spectrum_sind&#45;&gt;Spectrum_Spectrum -->
<g id="edge8" class="edge">
<title>Spectrum_Spectrum_sind&#45;&gt;Spectrum_Spectrum</title>
<path fill="none" stroke="black" d="M547.05,-361.35C620.65,-339.11 743.93,-301.86 812.03,-281.28"/>
<polygon fill="black" stroke="black" points="813.11,-284.61 821.67,-278.37 811.08,-277.91 813.11,-284.61"/>
</g>
<!-- Spectrum_Spectrum_rec -->
<g id="node5" class="node">
<title>Spectrum_Spectrum_rec</title>
<g id="a_node5"><a xlink:href="Spectrum.html#Spectrum_rec" xlink:title="Spectrum_rec">
<ellipse fill="#f070d1" stroke="black" cx="671.96" cy="-496.5" rx="75.3" ry="18"/>
<ellipse fill="none" stroke="black" cx="671.96" cy="-496.5" rx="79.29" ry="22"/>
<ellipse fill="none" stroke="black" cx="671.96" cy="-496.5" rx="83.29" ry="26"/>
<text text-anchor="middle" x="671.96" y="-492.8" font-family="Times,serif" font-size="14.00">Spectrum_rec</text>
</a>
</g>
</g>
<!-- Spectrum_Spectrum_rect -->
<g id="node7" class="node">
<title>Spectrum_Spectrum_rect</title>
<g id="a_node7"><a xlink:href="Spectrum.html#Spectrum_rect" xlink:title="Spectrum_rect">
<ellipse fill="#f070d1" stroke="black" cx="671.96" cy="-380.5" rx="79.09" ry="18"/>
<text text-anchor="middle" x="671.96" y="-376.8" font-family="Times,serif" font-size="14.00">Spectrum_rect</text>
</a>
</g>
</g>
<!-- Spectrum_Spectrum_rec&#45;&gt;Spectrum_Spectrum_rect -->
<g id="edge9" class="edge">
<title>Spectrum_Spectrum_rec&#45;&gt;Spectrum_Spectrum_rect</title>
<path fill="none" stroke="black" d="M671.96,-470.48C671.96,-452.29 671.96,-427.68 671.96,-408.95"/>
<polygon fill="black" stroke="black" points="675.46,-408.69 671.96,-398.69 668.46,-408.69 675.46,-408.69"/>
</g>
<!-- Spectrum_Spectrum_ind -->
<g id="node6" class="node">
<title>Spectrum_Spectrum_ind</title>
<g id="a_node6"><a xlink:href="Spectrum.html#Spectrum_ind" xlink:title="Spectrum_ind">
<ellipse fill="#7fffd4" stroke="black" cx="297.96" cy="-380.5" rx="75.3" ry="18"/>
<ellipse fill="none" stroke="black" cx="297.96" cy="-380.5" rx="79.29" ry="22"/>
<ellipse fill="none" stroke="black" cx="297.96" cy="-380.5" rx="83.29" ry="26"/>
<text text-anchor="middle" x="297.96" y="-376.8" font-family="Times,serif" font-size="14.00">Spectrum_ind</text>
</a>
</g>
</g>
<!-- Spectrum_Spectrum_ind&#45;&gt;Spectrum_Build_Spectrum -->
<g id="edge10" class="edge">
<title>Spectrum_Spectrum_ind&#45;&gt;Spectrum_Build_Spectrum</title>
<path fill="none" stroke="black" d="M349.53,-359.95C405,-338.91 492.56,-305.71 547,-285.07"/>
<polygon fill="black" stroke="black" points="548.33,-288.31 556.44,-281.49 545.84,-281.76 548.33,-288.31"/>
</g>
<!-- Spectrum_Spectrum_ind&#45;&gt;Spectrum_Spectrum -->
<g id="edge11" class="edge">
<title>Spectrum_Spectrum_ind&#45;&gt;Spectrum_Spectrum</title>
<path fill="none" stroke="black" d="M358.16,-362.4C368.72,-359.61 379.63,-356.86 389.96,-354.5 537.14,-320.81 712.38,-290.66 801.91,-275.96"/>
<polygon fill="black" stroke="black" points="802.57,-279.4 811.87,-274.33 801.44,-272.49 802.57,-279.4"/>
</g>
<!-- Spectrum_Spectrum_rect&#45;&gt;Spectrum_Build_Spectrum -->
<g id="edge12" class="edge">
<title>Spectrum_Spectrum_rect&#45;&gt;Spectrum_Build_Spectrum</title>
<path fill="none" stroke="black" d="M660.42,-362.34C647.79,-343.56 627.42,-313.28 612.96,-291.79"/>
<polygon fill="black" stroke="black" points="615.85,-289.8 607.36,-283.45 610.04,-293.71 615.85,-289.8"/>
</g>
<!-- Spectrum_Spectrum_rect&#45;&gt;Spectrum_Spectrum -->
<g id="edge13" class="edge">
<title>Spectrum_Spectrum_rect&#45;&gt;Spectrum_Spectrum</title>
<path fill="none" stroke="black" d="M699.04,-363.31C732.72,-343.17 790.26,-308.77 826.9,-286.86"/>
<polygon fill="black" stroke="black" points="828.95,-289.71 835.74,-281.58 825.36,-283.71 828.95,-289.71"/>
</g>
<!-- Spectrum_IsSpectrum -->
<g id="node12" class="node">
<title>Spectrum_IsSpectrum</title>
<g id="a_node12"><a xlink:href="Spectrum.html#IsSpectrum" xlink:title="IsSpectrum">
<ellipse fill="#f070d1" stroke="black" cx="975.96" cy="-149.5" rx="64.19" ry="18"/>
<text text-anchor="middle" x="975.96" y="-145.8" font-family="Times,serif" font-size="14.00">IsSpectrum</text>
</a>
</g>
</g>
<!-- Spectrum_Build_Spectrum&#45;&gt;Spectrum_IsSpectrum -->
<g id="edge14" class="edge">
<title>Spectrum_Build_Spectrum&#45;&gt;Spectrum_IsSpectrum</title>
<path fill="none" stroke="black" d="M645.9,-250.82C706.83,-233.93 812.87,-203.97 902.96,-175.5 911.04,-172.95 919.58,-170.13 927.87,-167.34"/>
<polygon fill="black" stroke="black" points="929.09,-170.62 937.43,-164.08 926.83,-163.99 929.09,-170.62"/>
</g>
<!-- Spectrum_Spectrum&#45;&gt;Spectrum_IsSpectrum -->
<g id="edge15" class="edge">
<title>Spectrum_Spectrum&#45;&gt;Spectrum_IsSpectrum</title>
<path fill="none" stroke="black" d="M877.44,-248.17C896.96,-228.81 929.67,-196.39 952,-174.25"/>
<polygon fill="black" stroke="black" points="954.5,-176.7 959.14,-167.17 949.57,-171.73 954.5,-176.7"/>
</g>
<!-- Spectrum_is_equiv_glue -->
<g id="node11" class="node">
<title>Spectrum_is_equiv_glue</title>
<g id="a_node11"><a xlink:href="Spectrum.html#is_equiv_glue" xlink:title="is_equiv_glue">
<ellipse fill="#f070d1" stroke="black" cx="419.96" cy="-265.5" rx="72.59" ry="18"/>
<text text-anchor="middle" x="419.96" y="-261.8" font-family="Times,serif" font-size="14.00">is_equiv_glue</text>
</a>
</g>
</g>
<!-- Spectrum_equiv_glue&#45;&gt;Spectrum_is_equiv_glue -->
<g id="edge16" class="edge">
<title>Spectrum_equiv_glue&#45;&gt;Spectrum_is_equiv_glue</title>
<path fill="none" stroke="black" d="M153.21,-365.98C207.78,-345.63 311.11,-307.09 371.9,-284.42"/>
<polygon fill="black" stroke="black" points="373.14,-287.7 381.28,-280.93 370.69,-281.14 373.14,-287.7"/>
</g>
<!-- Spectrum_is_equiv_glue&#45;&gt;Spectrum_IsSpectrum -->
<g id="edge17" class="edge">
<title>Spectrum_is_equiv_glue&#45;&gt;Spectrum_IsSpectrum</title>
<path fill="none" stroke="black" d="M461.37,-250.66C474.28,-246.68 488.62,-242.58 501.96,-239.5 677.8,-198.87 727.83,-219.12 902.96,-175.5 911.65,-173.34 920.78,-170.6 929.52,-167.73"/>
<polygon fill="black" stroke="black" points="930.84,-170.98 939.19,-164.47 928.6,-164.35 930.84,-170.98"/>
</g>
<!-- Spectrum_Prespectrum -->
<g id="node20" class="node">
<title>Spectrum_Prespectrum</title>
<g id="a_node20"><a xlink:href="Spectrum.html#Prespectrum" xlink:title="Prespectrum">
<ellipse fill="#e2cdfa" stroke="black" cx="667.96" cy="-44.5" rx="70.69" ry="18"/>
<text text-anchor="middle" x="667.96" y="-40.8" font-family="Times,serif" font-size="14.00">Prespectrum</text>
</a>
</g>
</g>
<!-- Spectrum_IsSpectrum&#45;&gt;Spectrum_Prespectrum -->
<g id="edge18" class="edge">
<title>Spectrum_IsSpectrum&#45;&gt;Spectrum_Prespectrum</title>
<path fill="none" stroke="black" d="M936.96,-135.07C925.97,-131.31 914,-127.22 902.96,-123.5 839.83,-102.22 767.01,-78.12 719.37,-62.41"/>
<polygon fill="black" stroke="black" points="720.19,-59 709.6,-59.19 718,-65.64 720.19,-59"/>
</g>
<!-- Spectrum_glue -->
<g id="node13" class="node">
<title>Spectrum_glue</title>
<g id="a_node13"><a xlink:href="Spectrum.html#glue" xlink:title="glue">
<ellipse fill="#f070d1" stroke="black" cx="854.96" cy="-149.5" rx="30.58" ry="18"/>
<ellipse fill="none" stroke="black" cx="854.96" cy="-149.5" rx="34.59" ry="22"/>
<ellipse fill="none" stroke="black" cx="854.96" cy="-149.5" rx="38.59" ry="26"/>
<text text-anchor="middle" x="854.96" y="-145.8" font-family="Times,serif" font-size="14.00">glue</text>
</a>
</g>
</g>
<!-- Spectrum_glue&#45;&gt;Spectrum_Prespectrum -->
<g id="edge19" class="edge">
<title>Spectrum_glue&#45;&gt;Spectrum_Prespectrum</title>
<path fill="none" stroke="black" d="M825.74,-132.41C793.3,-114.54 740.86,-85.65 705.42,-66.14"/>
<polygon fill="black" stroke="black" points="706.81,-62.9 696.36,-61.14 703.43,-69.03 706.81,-62.9"/>
</g>
<!-- Spectrum_deloop -->
<g id="node14" class="node">
<title>Spectrum_deloop</title>
<g id="a_node14"><a xlink:href="Spectrum.html#deloop" xlink:title="deloop">
<ellipse fill="#f070d1" stroke="black" cx="748.96" cy="-149.5" rx="41.68" ry="18"/>
<ellipse fill="none" stroke="black" cx="748.96" cy="-149.5" rx="45.69" ry="22"/>
<ellipse fill="none" stroke="black" cx="748.96" cy="-149.5" rx="49.69" ry="26"/>
<text text-anchor="middle" x="748.96" y="-145.8" font-family="Times,serif" font-size="14.00">deloop</text>
</a>
</g>
</g>
<!-- Spectrum_deloop&#45;&gt;Spectrum_Prespectrum -->
<g id="edge20" class="edge">
<title>Spectrum_deloop&#45;&gt;Spectrum_Prespectrum</title>
<path fill="none" stroke="black" d="M730.58,-125.13C717.78,-108.85 700.73,-87.17 687.65,-70.54"/>
<polygon fill="black" stroke="black" points="690.15,-68.06 681.22,-62.36 684.65,-72.39 690.15,-68.06"/>
</g>
<!-- Spectrum_Prespectrum_sind -->
<g id="node15" class="node">
<title>Spectrum_Prespectrum_sind</title>
<g id="a_node15"><a xlink:href="Spectrum.html#Prespectrum_sind" xlink:title="Prespectrum_sind">
<ellipse fill="#f070d1" stroke="black" cx="159.96" cy="-149.5" rx="94.79" ry="18"/>
<ellipse fill="none" stroke="black" cx="159.96" cy="-149.5" rx="98.79" ry="22"/>
<ellipse fill="none" stroke="black" cx="159.96" cy="-149.5" rx="102.78" ry="26"/>
<text text-anchor="middle" x="159.96" y="-145.8" font-family="Times,serif" font-size="14.00">Prespectrum_sind</text>
</a>
</g>
</g>
<!-- Spectrum_Prespectrum_sind&#45;&gt;Spectrum_Build_Prespectrum -->
<g id="edge21" class="edge">
<title>Spectrum_Prespectrum_sind&#45;&gt;Spectrum_Build_Prespectrum</title>
<path fill="none" stroke="black" d="M185.79,-124.09C203.26,-107.58 226.22,-85.88 243.59,-69.47"/>
<polygon fill="black" stroke="black" points="246.28,-71.75 251.14,-62.34 241.47,-66.66 246.28,-71.75"/>
</g>
<!-- Spectrum_Prespectrum_sind&#45;&gt;Spectrum_Prespectrum -->
<g id="edge22" class="edge">
<title>Spectrum_Prespectrum_sind&#45;&gt;Spectrum_Prespectrum</title>
<path fill="none" stroke="black" d="M234.61,-131.56C247.07,-128.82 259.87,-126.04 271.96,-123.5 388.12,-99.1 523.94,-72.84 602.54,-57.86"/>
<polygon fill="black" stroke="black" points="603.61,-61.22 612.78,-55.92 602.3,-54.35 603.61,-61.22"/>
</g>
<!-- Spectrum_Prespectrum_rec -->
<g id="node16" class="node">
<title>Spectrum_Prespectrum_rec</title>
<g id="a_node16"><a xlink:href="Spectrum.html#Prespectrum_rec" xlink:title="Prespectrum_rec">
<ellipse fill="#f070d1" stroke="black" cx="231.96" cy="-265.5" rx="89.87" ry="18"/>
<ellipse fill="none" stroke="black" cx="231.96" cy="-265.5" rx="93.88" ry="22"/>
<ellipse fill="none" stroke="black" cx="231.96" cy="-265.5" rx="97.88" ry="26"/>
<text text-anchor="middle" x="231.96" y="-261.8" font-family="Times,serif" font-size="14.00">Prespectrum_rec</text>
</a>
</g>
</g>
<!-- Spectrum_Prespectrum_rect -->
<g id="node18" class="node">
<title>Spectrum_Prespectrum_rect</title>
<g id="a_node18"><a xlink:href="Spectrum.html#Prespectrum_rect" xlink:title="Prespectrum_rect">
<ellipse fill="#f070d1" stroke="black" cx="587.96" cy="-149.5" rx="93.68" ry="18"/>
<text text-anchor="middle" x="587.96" y="-145.8" font-family="Times,serif" font-size="14.00">Prespectrum_rect</text>
</a>
</g>
</g>
<!-- Spectrum_Prespectrum_rec&#45;&gt;Spectrum_Prespectrum_rect -->
<g id="edge23" class="edge">
<title>Spectrum_Prespectrum_rec&#45;&gt;Spectrum_Prespectrum_rect</title>
<path fill="none" stroke="black" d="M292.75,-245.03C359.9,-223.53 467.12,-189.2 532.19,-168.36"/>
<polygon fill="black" stroke="black" points="533.41,-171.64 541.86,-165.26 531.27,-164.98 533.41,-171.64"/>
</g>
<!-- Spectrum_Prespectrum_ind -->
<g id="node17" class="node">
<title>Spectrum_Prespectrum_ind</title>
<g id="a_node17"><a xlink:href="Spectrum.html#Prespectrum_ind" xlink:title="Prespectrum_ind">
<ellipse fill="#7fffd4" stroke="black" cx="378.96" cy="-149.5" rx="89.87" ry="18"/>
<ellipse fill="none" stroke="black" cx="378.96" cy="-149.5" rx="93.88" ry="22"/>
<ellipse fill="none" stroke="black" cx="378.96" cy="-149.5" rx="97.88" ry="26"/>
<text text-anchor="middle" x="378.96" y="-145.8" font-family="Times,serif" font-size="14.00">Prespectrum_ind</text>
</a>
</g>
</g>
<!-- Spectrum_Prespectrum_ind&#45;&gt;Spectrum_Build_Prespectrum -->
<g id="edge24" class="edge">
<title>Spectrum_Prespectrum_ind&#45;&gt;Spectrum_Build_Prespectrum</title>
<path fill="none" stroke="black" d="M353.17,-124.35C335.55,-107.85 312.29,-86.07 294.68,-69.59"/>
<polygon fill="black" stroke="black" points="296.72,-66.7 287.03,-62.42 291.94,-71.81 296.72,-66.7"/>
</g>
<!-- Spectrum_Prespectrum_ind&#45;&gt;Spectrum_Prespectrum -->
<g id="edge25" class="edge">
<title>Spectrum_Prespectrum_ind&#45;&gt;Spectrum_Prespectrum</title>
<path fill="none" stroke="black" d="M435.71,-128.27C489.14,-109.23 568.34,-81.01 619.05,-62.93"/>
<polygon fill="black" stroke="black" points="620.24,-66.22 628.49,-59.57 617.89,-59.63 620.24,-66.22"/>
</g>
<!-- Spectrum_Prespectrum_rect&#45;&gt;Spectrum_Build_Prespectrum -->
<g id="edge26" class="edge">
<title>Spectrum_Prespectrum_rect&#45;&gt;Spectrum_Build_Prespectrum</title>
<path fill="none" stroke="black" d="M542.25,-133.74C484.94,-115.24 386.71,-83.52 324.94,-63.58"/>
<polygon fill="black" stroke="black" points="325.95,-60.22 315.36,-60.48 323.8,-66.89 325.95,-60.22"/>
</g>
<!-- Spectrum_Prespectrum_rect&#45;&gt;Spectrum_Prespectrum -->
<g id="edge27" class="edge">
<title>Spectrum_Prespectrum_rect&#45;&gt;Spectrum_Prespectrum</title>
<path fill="none" stroke="black" d="M601.17,-131.49C614.08,-114.87 633.89,-89.37 648.58,-70.45"/>
<polygon fill="black" stroke="black" points="651.36,-72.58 654.73,-62.53 645.83,-68.29 651.36,-72.58"/>
</g>
</g>
</svg>
