<?xml version="1.0" encoding="UTF-8" standalone="no"?>
<!DOCTYPE svg PUBLIC "-//W3C//DTD SVG 1.1//EN"
 "http://www.w3.org/Graphics/SVG/1.1/DTD/svg11.dtd">
<!-- Generated by graphviz version 2.43.0 (0)
 -->
<!-- Title: HoTT_Algebra_AbGroups_Z Pages: 1 -->
<svg width="444pt" height="226pt"
 viewBox="0.00 0.00 444.00 226.00" xmlns="http://www.w3.org/2000/svg" xmlns:xlink="http://www.w3.org/1999/xlink">
<g id="graph0" class="graph" transform="scale(1 1) rotate(0) translate(4 222)">
<title>HoTT_Algebra_AbGroups_Z</title>
<polygon fill="white" stroke="transparent" points="-4,4 -4,-222 440,-222 440,4 -4,4"/>
<g id="clust1" class="cluster">
<title>cluster_Z</title>
<polygon fill="#ffffc3" stroke="black" points="8,-9.74 8,-208.26 428,-208.26 428,-9.74 8,-9.74"/>
<text text-anchor="middle" x="21" y="-193.06" font-family="Times,serif" font-size="14.00">Z</text>
</g>
<!-- Z_abgroup_Z_ab_mul -->
<g id="node1" class="node">
<title>Z_abgroup_Z_ab_mul</title>
<g id="a_node1"><a xlink:href="Z.html#abgroup_Z_ab_mul" xlink:title="abgroup_Z_ab_mul">
<ellipse fill="#f070d1" stroke="black" cx="315" cy="-138.74" rx="97.48" ry="18"/>
<ellipse fill="none" stroke="black" cx="315" cy="-138.74" rx="101.48" ry="22"/>
<ellipse fill="none" stroke="black" cx="315" cy="-138.74" rx="105.48" ry="26"/>
<text text-anchor="middle" x="315" y="-135.04" font-family="Times,serif" font-size="14.00">abgroup_Z_ab_mul</text>
</a>
</g>
</g>
<!-- Z_abgroup_Z -->
<g id="node3" class="node">
<title>Z_abgroup_Z</title>
<g id="a_node3"><a xlink:href="Z.html#abgroup_Z" xlink:title="abgroup_Z">
<ellipse fill="#f070d1" stroke="black" cx="209" cy="-41.74" rx="59.59" ry="18"/>
<text text-anchor="middle" x="209" y="-38.04" font-family="Times,serif" font-size="14.00">abgroup_Z</text>
</a>
</g>
</g>
<!-- Z_abgroup_Z_ab_mul&#45;&gt;Z_abgroup_Z -->
<g id="edge1" class="edge">
<title>Z_abgroup_Z_ab_mul&#45;&gt;Z_abgroup_Z</title>
<path fill="none" stroke="black" d="M287.98,-113.52C271.64,-98.88 250.92,-80.31 234.8,-65.87"/>
<polygon fill="black" stroke="black" points="237.08,-63.21 227.3,-59.14 232.41,-68.42 237.08,-63.21"/>
</g>
<!-- Z_grp_pow_homo -->
<g id="node2" class="node">
<title>Z_grp_pow_homo</title>
<g id="a_node2"><a xlink:href="Z.html#grp_pow_homo" xlink:title="grp_pow_homo">
<ellipse fill="#f070d1" stroke="black" cx="104" cy="-138.74" rx="79.89" ry="18"/>
<ellipse fill="none" stroke="black" cx="104" cy="-138.74" rx="83.89" ry="22"/>
<ellipse fill="none" stroke="black" cx="104" cy="-138.74" rx="87.89" ry="26"/>
<text text-anchor="middle" x="104" y="-135.04" font-family="Times,serif" font-size="14.00">grp_pow_homo</text>
</a>
</g>
</g>
<!-- Z_grp_pow_homo&#45;&gt;Z_abgroup_Z -->
<g id="edge2" class="edge">
<title>Z_grp_pow_homo&#45;&gt;Z_abgroup_Z</title>
<path fill="none" stroke="black" d="M130.5,-113.77C146.79,-99.03 167.54,-80.25 183.62,-65.7"/>
<polygon fill="black" stroke="black" points="186.03,-68.24 191.1,-58.94 181.34,-63.05 186.03,-68.24"/>
</g>
</g>
</svg>
