<?xml version="1.0" encoding="UTF-8" standalone="no"?>
<!DOCTYPE svg PUBLIC "-//W3C//DTD SVG 1.1//EN"
 "http://www.w3.org/Graphics/SVG/1.1/DTD/svg11.dtd">
<!-- Generated by graphviz version 2.43.0 (0)
 -->
<!-- Title: HoTT_Classes_interfaces_rationals Pages: 1 -->
<svg width="1407pt" height="708pt"
 viewBox="0.00 0.00 1407.00 707.50" xmlns="http://www.w3.org/2000/svg" xmlns:xlink="http://www.w3.org/1999/xlink">
<g id="graph0" class="graph" transform="scale(1 1) rotate(0) translate(4 703.5)">
<title>HoTT_Classes_interfaces_rationals</title>
<polygon fill="white" stroke="transparent" points="-4,4 -4,-703.5 1403,-703.5 1403,4 -4,4"/>
<g id="clust1" class="cluster">
<title>cluster_rationals</title>
<polygon fill="#ffffc3" stroke="black" points="8,-13.62 8,-685.88 1391,-685.88 1391,-13.62 8,-13.62"/>
<text text-anchor="middle" x="48" y="-670.68" font-family="Times,serif" font-size="14.00">rationals</text>
</g>
<!-- rationals_rationals_initial -->
<g id="node1" class="node">
<title>rationals_rationals_initial</title>
<g id="a_node1"><a xlink:href="rationals.html#rationals_initial" xlink:title="rationals_initial">
<ellipse fill="#f070d1" stroke="black" cx="1292" cy="-438.62" rx="83.37" ry="18"/>
<ellipse fill="none" stroke="black" cx="1292" cy="-438.62" rx="87.38" ry="22"/>
<ellipse fill="none" stroke="black" cx="1292" cy="-438.62" rx="91.39" ry="26"/>
<text text-anchor="middle" x="1292" y="-434.92" font-family="Times,serif" font-size="14.00">rationals_initial</text>
</a>
</g>
</g>
<!-- rationals_Rationals -->
<g id="node10" class="node">
<title>rationals_Rationals</title>
<g id="a_node10"><a xlink:href="rationals.html#Rationals" xlink:title="Rationals">
<ellipse fill="#e2cdfa" stroke="black" cx="549" cy="-302.62" rx="53.89" ry="18"/>
<text text-anchor="middle" x="549" y="-298.92" font-family="Times,serif" font-size="14.00">Rationals</text>
</a>
</g>
</g>
<!-- rationals_rationals_initial&#45;&gt;rationals_Rationals -->
<g id="edge1" class="edge">
<title>rationals_rationals_initial&#45;&gt;rationals_Rationals</title>
<path fill="none" stroke="black" d="M1226.15,-420.57C1214.48,-417.76 1202.41,-414.99 1191,-412.62 977.42,-368.12 721.03,-328.77 607.74,-312.09"/>
<polygon fill="black" stroke="black" points="607.96,-308.58 597.55,-310.6 606.94,-315.51 607.96,-308.58"/>
</g>
<!-- rationals_rationals_to_field_mor -->
<g id="node2" class="node">
<title>rationals_rationals_to_field_mor</title>
<g id="a_node2"><a xlink:href="rationals.html#rationals_to_field_mor" xlink:title="rationals_to_field_mor">
<ellipse fill="#f070d1" stroke="black" cx="1062" cy="-438.62" rx="112.38" ry="18"/>
<ellipse fill="none" stroke="black" cx="1062" cy="-438.62" rx="116.38" ry="22"/>
<ellipse fill="none" stroke="black" cx="1062" cy="-438.62" rx="120.38" ry="26"/>
<text text-anchor="middle" x="1062" y="-434.92" font-family="Times,serif" font-size="14.00">rationals_to_field_mor</text>
</a>
</g>
</g>
<!-- rationals_rationals_to_field_mor&#45;&gt;rationals_Rationals -->
<g id="edge2" class="edge">
<title>rationals_rationals_to_field_mor&#45;&gt;rationals_Rationals</title>
<path fill="none" stroke="black" d="M987.41,-418.13C881.61,-390.49 690.74,-340.64 599.81,-316.89"/>
<polygon fill="black" stroke="black" points="600.58,-313.47 590.02,-314.33 598.81,-320.24 600.58,-313.47"/>
</g>
<!-- rationals_rationals_order -->
<g id="node3" class="node">
<title>rationals_rationals_order</title>
<g id="a_node3"><a xlink:href="rationals.html#rationals_order" xlink:title="rationals_order">
<ellipse fill="#f070d1" stroke="black" cx="834" cy="-438.62" rx="81.46" ry="18"/>
<ellipse fill="none" stroke="black" cx="834" cy="-438.62" rx="85.48" ry="22"/>
<ellipse fill="none" stroke="black" cx="834" cy="-438.62" rx="89.49" ry="26"/>
<text text-anchor="middle" x="834" y="-434.92" font-family="Times,serif" font-size="14.00">rationals_order</text>
</a>
</g>
</g>
<!-- rationals_rationals_order&#45;&gt;rationals_Rationals -->
<g id="edge3" class="edge">
<title>rationals_rationals_order&#45;&gt;rationals_Rationals</title>
<path fill="none" stroke="black" d="M788.53,-416.23C733.19,-390.22 640.69,-346.73 588.31,-322.1"/>
<polygon fill="black" stroke="black" points="589.55,-318.81 579.01,-317.73 586.57,-325.15 589.55,-318.81"/>
</g>
<!-- rationals_rationals_field -->
<g id="node4" class="node">
<title>rationals_rationals_field</title>
<g id="a_node4"><a xlink:href="rationals.html#rationals_field" xlink:title="rationals_field">
<ellipse fill="#f070d1" stroke="black" cx="643" cy="-438.62" rx="76.08" ry="18"/>
<ellipse fill="none" stroke="black" cx="643" cy="-438.62" rx="80.08" ry="22"/>
<ellipse fill="none" stroke="black" cx="643" cy="-438.62" rx="84.09" ry="26"/>
<text text-anchor="middle" x="643" y="-434.92" font-family="Times,serif" font-size="14.00">rationals_field</text>
</a>
</g>
</g>
<!-- rationals_rationals_field&#45;&gt;rationals_Rationals -->
<g id="edge4" class="edge">
<title>rationals_rationals_field&#45;&gt;rationals_Rationals</title>
<path fill="none" stroke="black" d="M625.76,-413.04C608.95,-389.08 583.53,-352.83 566.6,-328.7"/>
<polygon fill="black" stroke="black" points="569.39,-326.59 560.78,-320.41 563.66,-330.61 569.39,-326.59"/>
</g>
<!-- rationals_Rationals_sind -->
<g id="node5" class="node">
<title>rationals_Rationals_sind</title>
<g id="a_node5"><a xlink:href="rationals.html#Rationals_sind" xlink:title="Rationals_sind">
<ellipse fill="#f070d1" stroke="black" cx="455" cy="-438.62" rx="77.99" ry="18"/>
<ellipse fill="none" stroke="black" cx="455" cy="-438.62" rx="81.99" ry="22"/>
<ellipse fill="none" stroke="black" cx="455" cy="-438.62" rx="85.99" ry="26"/>
<text text-anchor="middle" x="455" y="-434.92" font-family="Times,serif" font-size="14.00">Rationals_sind</text>
</a>
</g>
</g>
<!-- rationals_Build_Rationals -->
<g id="node9" class="node">
<title>rationals_Build_Rationals</title>
<g id="a_node9"><a xlink:href="rationals.html#Build_Rationals" xlink:title="Build_Rationals">
<ellipse fill="#7faaff" stroke="black" cx="334" cy="-302.62" rx="83.39" ry="18"/>
<text text-anchor="middle" x="334" y="-298.92" font-family="Times,serif" font-size="14.00">Build_Rationals</text>
</a>
</g>
</g>
<!-- rationals_Rationals_sind&#45;&gt;rationals_Build_Rationals -->
<g id="edge5" class="edge">
<title>rationals_Rationals_sind&#45;&gt;rationals_Build_Rationals</title>
<path fill="none" stroke="black" d="M433.09,-413.35C411.31,-389.23 378.07,-352.42 356.19,-328.19"/>
<polygon fill="black" stroke="black" points="358.54,-325.57 349.24,-320.49 353.34,-330.26 358.54,-325.57"/>
</g>
<!-- rationals_Rationals_sind&#45;&gt;rationals_Rationals -->
<g id="edge6" class="edge">
<title>rationals_Rationals_sind&#45;&gt;rationals_Rationals</title>
<path fill="none" stroke="black" d="M472.24,-413.04C489.05,-389.08 514.47,-352.83 531.4,-328.7"/>
<polygon fill="black" stroke="black" points="534.34,-330.61 537.22,-320.41 528.61,-326.59 534.34,-330.61"/>
</g>
<!-- rationals_Rationals_rec -->
<g id="node6" class="node">
<title>rationals_Rationals_rec</title>
<g id="a_node6"><a xlink:href="rationals.html#Rationals_rec" xlink:title="Rationals_rec">
<ellipse fill="#f070d1" stroke="black" cx="274" cy="-588.62" rx="73.39" ry="18"/>
<ellipse fill="none" stroke="black" cx="274" cy="-588.62" rx="77.39" ry="22"/>
<ellipse fill="none" stroke="black" cx="274" cy="-588.62" rx="81.39" ry="26"/>
<text text-anchor="middle" x="274" y="-584.92" font-family="Times,serif" font-size="14.00">Rationals_rec</text>
</a>
</g>
</g>
<!-- rationals_Rationals_rect -->
<g id="node8" class="node">
<title>rationals_Rationals_rect</title>
<g id="a_node8"><a xlink:href="rationals.html#Rationals_rect" xlink:title="Rationals_rect">
<ellipse fill="#f070d1" stroke="black" cx="274" cy="-438.62" rx="77.19" ry="18"/>
<text text-anchor="middle" x="274" y="-434.92" font-family="Times,serif" font-size="14.00">Rationals_rect</text>
</a>
</g>
</g>
<!-- rationals_Rationals_rec&#45;&gt;rationals_Rationals_rect -->
<g id="edge7" class="edge">
<title>rationals_Rationals_rec&#45;&gt;rationals_Rationals_rect</title>
<path fill="none" stroke="black" d="M274,-562.51C274,-536.01 274,-494.36 274,-467.02"/>
<polygon fill="black" stroke="black" points="277.5,-466.96 274,-456.96 270.5,-466.96 277.5,-466.96"/>
</g>
<!-- rationals_Rationals_ind -->
<g id="node7" class="node">
<title>rationals_Rationals_ind</title>
<g id="a_node7"><a xlink:href="rationals.html#Rationals_ind" xlink:title="Rationals_ind">
<ellipse fill="#7fffd4" stroke="black" cx="97" cy="-438.62" rx="73.39" ry="18"/>
<ellipse fill="none" stroke="black" cx="97" cy="-438.62" rx="77.39" ry="22"/>
<ellipse fill="none" stroke="black" cx="97" cy="-438.62" rx="81.39" ry="26"/>
<text text-anchor="middle" x="97" y="-434.92" font-family="Times,serif" font-size="14.00">Rationals_ind</text>
</a>
</g>
</g>
<!-- rationals_Rationals_ind&#45;&gt;rationals_Build_Rationals -->
<g id="edge8" class="edge">
<title>rationals_Rationals_ind&#45;&gt;rationals_Build_Rationals</title>
<path fill="none" stroke="black" d="M135.87,-415.64C180.37,-390.48 252.77,-349.54 296.63,-324.74"/>
<polygon fill="black" stroke="black" points="298.56,-327.68 305.54,-319.71 295.11,-321.58 298.56,-327.68"/>
</g>
<!-- rationals_Rationals_ind&#45;&gt;rationals_Rationals -->
<g id="edge9" class="edge">
<title>rationals_Rationals_ind&#45;&gt;rationals_Rationals</title>
<path fill="none" stroke="black" d="M155.17,-420.37C245.1,-393.71 416.25,-342.97 500.16,-318.1"/>
<polygon fill="black" stroke="black" points="501.35,-321.39 509.95,-315.19 499.36,-314.68 501.35,-321.39"/>
</g>
<!-- rationals_Rationals_rect&#45;&gt;rationals_Build_Rationals -->
<g id="edge10" class="edge">
<title>rationals_Rationals_rect&#45;&gt;rationals_Build_Rationals</title>
<path fill="none" stroke="black" d="M281.6,-420.64C291.82,-397.81 310.11,-356.98 322.15,-330.09"/>
<polygon fill="black" stroke="black" points="325.38,-331.43 326.27,-320.87 318.99,-328.57 325.38,-331.43"/>
</g>
<!-- rationals_Rationals_rect&#45;&gt;rationals_Rationals -->
<g id="edge11" class="edge">
<title>rationals_Rationals_rect&#45;&gt;rationals_Rationals</title>
<path fill="none" stroke="black" d="M305.81,-422.11C356.6,-397.37 455.83,-349.01 510.53,-322.36"/>
<polygon fill="black" stroke="black" points="512.1,-325.49 519.56,-317.96 509.03,-319.2 512.1,-325.49"/>
</g>
<!-- rationals_rationals_to_field -->
<g id="node11" class="node">
<title>rationals_rationals_to_field</title>
<g id="a_node11"><a xlink:href="rationals.html#rationals_to_field" xlink:title="rationals_to_field">
<ellipse fill="#f070d1" stroke="black" cx="424" cy="-180.62" rx="89.88" ry="18"/>
<text text-anchor="middle" x="424" y="-176.92" font-family="Times,serif" font-size="14.00">rationals_to_field</text>
</a>
</g>
</g>
<!-- rationals_Build_Rationals&#45;&gt;rationals_rationals_to_field -->
<g id="edge12" class="edge">
<title>rationals_Build_Rationals&#45;&gt;rationals_rationals_to_field</title>
<path fill="none" stroke="black" d="M346.7,-284.68C361.98,-264.31 387.75,-229.95 405.3,-206.55"/>
<polygon fill="black" stroke="black" points="408.16,-208.57 411.36,-198.47 402.56,-204.37 408.16,-208.57"/>
</g>
<!-- rationals_Rationals&#45;&gt;rationals_rationals_to_field -->
<g id="edge13" class="edge">
<title>rationals_Rationals&#45;&gt;rationals_rationals_to_field</title>
<path fill="none" stroke="black" d="M532.14,-285.43C510.64,-264.79 473.3,-228.94 448.62,-205.25"/>
<polygon fill="black" stroke="black" points="451.03,-202.71 441.39,-198.31 446.18,-207.76 451.03,-202.71"/>
</g>
<!-- rationals_RationalsToField -->
<g id="node12" class="node">
<title>rationals_RationalsToField</title>
<g id="a_node12"><a xlink:href="rationals.html#RationalsToField" xlink:title="RationalsToField">
<ellipse fill="#f070d1" stroke="black" cx="424" cy="-57.62" rx="88.28" ry="18"/>
<text text-anchor="middle" x="424" y="-53.92" font-family="Times,serif" font-size="14.00">RationalsToField</text>
</a>
</g>
</g>
<!-- rationals_rationals_to_field&#45;&gt;rationals_RationalsToField -->
<g id="edge14" class="edge">
<title>rationals_rationals_to_field&#45;&gt;rationals_RationalsToField</title>
<path fill="none" stroke="black" d="M424,-162.54C424,-142.65 424,-109.54 424,-86.04"/>
<polygon fill="black" stroke="black" points="427.5,-86 424,-76 420.5,-86 427.5,-86"/>
</g>
</g>
</svg>
