<?xml version="1.0" encoding="UTF-8" standalone="no"?>
<!DOCTYPE svg PUBLIC "-//W3C//DTD SVG 1.1//EN"
 "http://www.w3.org/Graphics/SVG/1.1/DTD/svg11.dtd">
<!-- Generated by graphviz version 2.43.0 (0)
 -->
<!-- Title: HoTT_Basics_Classes Pages: 1 -->
<svg width="702pt" height="355pt"
 viewBox="0.00 0.00 702.00 355.00" xmlns="http://www.w3.org/2000/svg" xmlns:xlink="http://www.w3.org/1999/xlink">
<g id="graph0" class="graph" transform="scale(1 1) rotate(0) translate(4 351)">
<title>HoTT_Basics_Classes</title>
<polygon fill="white" stroke="transparent" points="-4,4 -4,-351 698,-351 698,4 -4,4"/>
<g id="clust1" class="cluster">
<title>cluster_Classes</title>
<polygon fill="#ffffc3" stroke="black" points="8,-10.4 8,-336.6 686,-336.6 686,-10.4 8,-10.4"/>
<text text-anchor="middle" x="43.5" y="-321.4" font-family="Times,serif" font-size="14.00">Classes</text>
</g>
<!-- Classes_antisymmetry -->
<g id="node1" class="node">
<title>Classes_antisymmetry</title>
<g id="a_node1"><a xlink:href="Classes.html#antisymmetry" xlink:title="antisymmetry">
<ellipse fill="#f070d1" stroke="black" cx="595" cy="-262.4" rx="75.3" ry="18"/>
<ellipse fill="none" stroke="black" cx="595" cy="-262.4" rx="79.29" ry="22"/>
<ellipse fill="none" stroke="black" cx="595" cy="-262.4" rx="83.29" ry="26"/>
<text text-anchor="middle" x="595" y="-258.7" font-family="Times,serif" font-size="14.00">antisymmetry</text>
</a>
</g>
</g>
<!-- Classes_AntiSymmetric -->
<g id="node2" class="node">
<title>Classes_AntiSymmetric</title>
<g id="a_node2"><a xlink:href="Classes.html#AntiSymmetric" xlink:title="AntiSymmetric">
<ellipse fill="#f070d1" stroke="black" cx="595" cy="-148.4" rx="80.69" ry="18"/>
<text text-anchor="middle" x="595" y="-144.7" font-family="Times,serif" font-size="14.00">AntiSymmetric</text>
</a>
</g>
</g>
<!-- Classes_antisymmetry&#45;&gt;Classes_AntiSymmetric -->
<g id="edge1" class="edge">
<title>Classes_antisymmetry&#45;&gt;Classes_AntiSymmetric</title>
<path fill="none" stroke="black" d="M595,-236.26C595,-218.55 595,-194.86 595,-176.69"/>
<polygon fill="black" stroke="black" points="598.5,-176.45 595,-166.45 591.5,-176.45 598.5,-176.45"/>
</g>
<!-- Classes_isinj_cancelL -->
<g id="node3" class="node">
<title>Classes_isinj_cancelL</title>
<g id="a_node3"><a xlink:href="Classes.html#isinj_cancelL" xlink:title="isinj_cancelL">
<ellipse fill="#f070d1" stroke="black" cx="416" cy="-262.4" rx="69.58" ry="18"/>
<ellipse fill="none" stroke="black" cx="416" cy="-262.4" rx="73.59" ry="22"/>
<ellipse fill="none" stroke="black" cx="416" cy="-262.4" rx="77.59" ry="26"/>
<text text-anchor="middle" x="416" y="-258.7" font-family="Times,serif" font-size="14.00">isinj_cancelL</text>
</a>
</g>
</g>
<!-- Classes_injective -->
<g id="node7" class="node">
<title>Classes_injective</title>
<g id="a_node7"><a xlink:href="Classes.html#injective" xlink:title="injective">
<ellipse fill="#f070d1" stroke="black" cx="237" cy="-148.4" rx="50.09" ry="18"/>
<text text-anchor="middle" x="237" y="-144.7" font-family="Times,serif" font-size="14.00">injective</text>
</a>
</g>
</g>
<!-- Classes_isinj_cancelL&#45;&gt;Classes_injective -->
<g id="edge2" class="edge">
<title>Classes_isinj_cancelL&#45;&gt;Classes_injective</title>
<path fill="none" stroke="black" d="M380.21,-239C347.89,-218.78 300.75,-189.29 269.5,-169.73"/>
<polygon fill="black" stroke="black" points="271.07,-166.59 260.74,-164.25 267.36,-172.52 271.07,-166.59"/>
</g>
<!-- Classes_isinj_compose -->
<g id="node4" class="node">
<title>Classes_isinj_compose</title>
<g id="a_node4"><a xlink:href="Classes.html#isinj_compose" xlink:title="isinj_compose">
<ellipse fill="#f070d1" stroke="black" cx="237" cy="-262.4" rx="75.3" ry="18"/>
<ellipse fill="none" stroke="black" cx="237" cy="-262.4" rx="79.29" ry="22"/>
<ellipse fill="none" stroke="black" cx="237" cy="-262.4" rx="83.29" ry="26"/>
<text text-anchor="middle" x="237" y="-258.7" font-family="Times,serif" font-size="14.00">isinj_compose</text>
</a>
</g>
</g>
<!-- Classes_isinj_compose&#45;&gt;Classes_injective -->
<g id="edge3" class="edge">
<title>Classes_isinj_compose&#45;&gt;Classes_injective</title>
<path fill="none" stroke="black" d="M237,-236.26C237,-218.55 237,-194.86 237,-176.69"/>
<polygon fill="black" stroke="black" points="240.5,-176.45 237,-166.45 233.5,-176.45 240.5,-176.45"/>
</g>
<!-- Classes_isinj_idmap -->
<g id="node5" class="node">
<title>Classes_isinj_idmap</title>
<g id="a_node5"><a xlink:href="Classes.html#isinj_idmap" xlink:title="isinj_idmap">
<ellipse fill="#f070d1" stroke="black" cx="377" cy="-148.4" rx="63.87" ry="18"/>
<ellipse fill="none" stroke="black" cx="377" cy="-148.4" rx="67.88" ry="22"/>
<ellipse fill="none" stroke="black" cx="377" cy="-148.4" rx="71.89" ry="26"/>
<text text-anchor="middle" x="377" y="-144.7" font-family="Times,serif" font-size="14.00">isinj_idmap</text>
</a>
</g>
</g>
<!-- Classes_IsInjective -->
<g id="node8" class="node">
<title>Classes_IsInjective</title>
<g id="a_node8"><a xlink:href="Classes.html#IsInjective" xlink:title="IsInjective">
<ellipse fill="#f070d1" stroke="black" cx="307" cy="-44.4" rx="59.29" ry="18"/>
<text text-anchor="middle" x="307" y="-40.7" font-family="Times,serif" font-size="14.00">IsInjective</text>
</a>
</g>
</g>
<!-- Classes_isinj_idmap&#45;&gt;Classes_IsInjective -->
<g id="edge4" class="edge">
<title>Classes_isinj_idmap&#45;&gt;Classes_IsInjective</title>
<path fill="none" stroke="black" d="M360.23,-122.97C349.38,-107.15 335.28,-86.61 324.32,-70.64"/>
<polygon fill="black" stroke="black" points="327.14,-68.56 318.6,-62.29 321.37,-72.52 327.14,-68.56"/>
</g>
<!-- Classes_neq_isinj -->
<g id="node6" class="node">
<title>Classes_neq_isinj</title>
<g id="a_node6"><a xlink:href="Classes.html#neq_isinj" xlink:title="neq_isinj">
<ellipse fill="#f070d1" stroke="black" cx="76" cy="-262.4" rx="51.99" ry="18"/>
<ellipse fill="none" stroke="black" cx="76" cy="-262.4" rx="55.99" ry="22"/>
<ellipse fill="none" stroke="black" cx="76" cy="-262.4" rx="59.99" ry="26"/>
<text text-anchor="middle" x="76" y="-258.7" font-family="Times,serif" font-size="14.00">neq_isinj</text>
</a>
</g>
</g>
<!-- Classes_neq_isinj&#45;&gt;Classes_injective -->
<g id="edge5" class="edge">
<title>Classes_neq_isinj&#45;&gt;Classes_injective</title>
<path fill="none" stroke="black" d="M107.04,-239.8C135.69,-219.87 177.99,-190.44 206.48,-170.63"/>
<polygon fill="black" stroke="black" points="208.64,-173.39 214.85,-164.81 204.64,-167.65 208.64,-173.39"/>
</g>
<!-- Classes_injective&#45;&gt;Classes_IsInjective -->
<g id="edge6" class="edge">
<title>Classes_injective&#45;&gt;Classes_IsInjective</title>
<path fill="none" stroke="black" d="M248.56,-130.55C259.76,-114.24 276.88,-89.29 289.7,-70.61"/>
<polygon fill="black" stroke="black" points="292.65,-72.49 295.42,-62.27 286.88,-68.53 292.65,-72.49"/>
</g>
</g>
</svg>
