<?xml version="1.0" encoding="UTF-8" standalone="no"?>
<!DOCTYPE svg PUBLIC "-//W3C//DTD SVG 1.1//EN"
 "http://www.w3.org/Graphics/SVG/1.1/DTD/svg11.dtd">
<!-- Generated by graphviz version 2.43.0 (0)
 -->
<!-- Title: HoTT_Algebra_Rings_Z Pages: 1 -->
<svg width="654pt" height="331pt"
 viewBox="0.00 0.00 654.00 331.00" xmlns="http://www.w3.org/2000/svg" xmlns:xlink="http://www.w3.org/1999/xlink">
<g id="graph0" class="graph" transform="scale(1 1) rotate(0) translate(4 327)">
<title>HoTT_Algebra_Rings_Z</title>
<polygon fill="white" stroke="transparent" points="-4,4 -4,-327 650,-327 650,4 -4,4"/>
<g id="clust1" class="cluster">
<title>cluster_Z</title>
<polygon fill="#ffffc3" stroke="black" points="11.59,-8 11.59,-315 634.41,-315 634.41,-8 11.59,-8"/>
<text text-anchor="middle" x="24.59" y="-299.8" font-family="Times,serif" font-size="14.00">Z</text>
</g>
<!-- Z_isinitial_cring_Z -->
<g id="node1" class="node">
<title>Z_isinitial_cring_Z</title>
<g id="a_node1"><a xlink:href="Z.html#isinitial_cring_Z" xlink:title="isinitial_cring_Z">
<ellipse fill="#f070d1" stroke="black" cx="323.46" cy="-258" rx="84.49" ry="18"/>
<ellipse fill="none" stroke="black" cx="323.46" cy="-258" rx="88.49" ry="22"/>
<ellipse fill="none" stroke="black" cx="323.46" cy="-258" rx="92.49" ry="26"/>
<text text-anchor="middle" x="323.46" y="-254.3" font-family="Times,serif" font-size="14.00">isinitial_cring_Z</text>
</a>
</g>
</g>
<!-- Z_rng_homo_int -->
<g id="node2" class="node">
<title>Z_rng_homo_int</title>
<g id="a_node2"><a xlink:href="Z.html#rng_homo_int" xlink:title="rng_homo_int">
<ellipse fill="#f070d1" stroke="black" cx="323.46" cy="-178" rx="73.39" ry="18"/>
<text text-anchor="middle" x="323.46" y="-174.3" font-family="Times,serif" font-size="14.00">rng_homo_int</text>
</a>
</g>
</g>
<!-- Z_isinitial_cring_Z&#45;&gt;Z_rng_homo_int -->
<g id="edge1" class="edge">
<title>Z_isinitial_cring_Z&#45;&gt;Z_rng_homo_int</title>
<path fill="none" stroke="black" d="M323.46,-231.89C323.46,-223.84 323.46,-214.88 323.46,-206.66"/>
<polygon fill="black" stroke="black" points="326.96,-206.41 323.46,-196.41 319.96,-206.41 326.96,-206.41"/>
</g>
<!-- Z_issemigrouppreserving_mult_rng_int_mult -->
<g id="node3" class="node">
<title>Z_issemigrouppreserving_mult_rng_int_mult</title>
<g id="a_node3"><a xlink:href="Z.html#issemigrouppreserving_mult_rng_int_mult" xlink:title="issemigrouppreserving_mult_rng_int_mult">
<ellipse fill="#f070d1" stroke="black" cx="323.46" cy="-106" rx="207.16" ry="18"/>
<text text-anchor="middle" x="323.46" y="-102.3" font-family="Times,serif" font-size="14.00">issemigrouppreserving_mult_rng_int_mult</text>
</a>
</g>
</g>
<!-- Z_rng_homo_int&#45;&gt;Z_issemigrouppreserving_mult_rng_int_mult -->
<g id="edge2" class="edge">
<title>Z_rng_homo_int&#45;&gt;Z_issemigrouppreserving_mult_rng_int_mult</title>
<path fill="none" stroke="black" d="M323.46,-159.7C323.46,-151.98 323.46,-142.71 323.46,-134.11"/>
<polygon fill="black" stroke="black" points="326.96,-134.1 323.46,-124.1 319.96,-134.1 326.96,-134.1"/>
</g>
<!-- Z_rng_int_mult -->
<g id="node4" class="node">
<title>Z_rng_int_mult</title>
<g id="a_node4"><a xlink:href="Z.html#rng_int_mult" xlink:title="rng_int_mult">
<ellipse fill="#f070d1" stroke="black" cx="225.46" cy="-34" rx="69.59" ry="18"/>
<text text-anchor="middle" x="225.46" y="-30.3" font-family="Times,serif" font-size="14.00">rng_int_mult</text>
</a>
</g>
</g>
<!-- Z_issemigrouppreserving_mult_rng_int_mult&#45;&gt;Z_rng_int_mult -->
<g id="edge3" class="edge">
<title>Z_issemigrouppreserving_mult_rng_int_mult&#45;&gt;Z_rng_int_mult</title>
<path fill="none" stroke="black" d="M299.74,-88.05C286.7,-78.74 270.37,-67.07 256.34,-57.06"/>
<polygon fill="black" stroke="black" points="258.13,-54.03 247.96,-51.07 254.06,-59.73 258.13,-54.03"/>
</g>
<!-- Z_cring_Z -->
<g id="node5" class="node">
<title>Z_cring_Z</title>
<g id="a_node5"><a xlink:href="Z.html#cring_Z" xlink:title="cring_Z">
<ellipse fill="#f070d1" stroke="black" cx="418.46" cy="-34" rx="45.49" ry="18"/>
<text text-anchor="middle" x="418.46" y="-30.3" font-family="Times,serif" font-size="14.00">cring_Z</text>
</a>
</g>
</g>
<!-- Z_issemigrouppreserving_mult_rng_int_mult&#45;&gt;Z_cring_Z -->
<g id="edge4" class="edge">
<title>Z_issemigrouppreserving_mult_rng_int_mult&#45;&gt;Z_cring_Z</title>
<path fill="none" stroke="black" d="M346.46,-88.05C359.46,-78.47 375.85,-66.4 389.7,-56.2"/>
<polygon fill="black" stroke="black" points="391.97,-58.87 397.94,-50.12 387.81,-53.24 391.97,-58.87"/>
</g>
</g>
</svg>
