<?xml version="1.0" encoding="UTF-8" standalone="no"?>
<!DOCTYPE svg PUBLIC "-//W3C//DTD SVG 1.1//EN"
 "http://www.w3.org/Graphics/SVG/1.1/DTD/svg11.dtd">
<!-- Generated by graphviz version 2.43.0 (0)
 -->
<!-- Title: HoTT_Classes_implementations_ne_list Pages: 1 -->
<svg width="1616pt" height="812pt"
 viewBox="0.00 0.00 1616.00 812.00" xmlns="http://www.w3.org/2000/svg" xmlns:xlink="http://www.w3.org/1999/xlink">
<g id="graph0" class="graph" transform="scale(1 1) rotate(0) translate(4 808)">
<title>HoTT_Classes_implementations_ne_list</title>
<polygon fill="white" stroke="transparent" points="-4,4 -4,-808 1612,-808 1612,4 -4,4"/>
<g id="clust1" class="cluster">
<title>cluster_ne_list</title>
<polygon fill="#ffffc3" stroke="black" points="8,-16.32 8,-787.68 1600,-787.68 1600,-16.32 8,-16.32"/>
<text text-anchor="middle" x="39.5" y="-772.48" font-family="Times,serif" font-size="14.00">ne_list</text>
</g>
<g id="clust2" class="cluster">
<title>cluster_ne_list_ne_list</title>
<polygon fill="#ffffa3" stroke="black" points="16,-32.65 16,-724.42 1592,-724.42 1592,-32.65 16,-32.65"/>
<text text-anchor="middle" x="47.5" y="-709.22" font-family="Times,serif" font-size="14.00">ne_list</text>
</g>
<!-- ne_list_ne_list_zip -->
<g id="node1" class="node">
<title>ne_list_ne_list_zip</title>
<g id="a_node1"><a xlink:href="ne_list.html#ne_list.zip" xlink:title="zip">
<ellipse fill="#f070d1" stroke="black" cx="1549" cy="-428.32" rx="27" ry="18"/>
<ellipse fill="none" stroke="black" cx="1549" cy="-428.32" rx="31" ry="22"/>
<ellipse fill="none" stroke="black" cx="1549" cy="-428.32" rx="35" ry="26"/>
<text text-anchor="middle" x="1549" y="-424.62" font-family="Times,serif" font-size="14.00">zip</text>
</a>
</g>
</g>
<!-- ne_list_ne_list_head -->
<g id="node17" class="node">
<title>ne_list_ne_list_head</title>
<g id="a_node17"><a xlink:href="ne_list.html#ne_list.head" xlink:title="head">
<ellipse fill="#f070d1" stroke="black" cx="903" cy="-249.32" rx="33.29" ry="18"/>
<text text-anchor="middle" x="903" y="-245.62" font-family="Times,serif" font-size="14.00">head</text>
</a>
</g>
</g>
<!-- ne_list_ne_list_zip&#45;&gt;ne_list_ne_list_head -->
<g id="edge1" class="edge">
<title>ne_list_ne_list_zip&#45;&gt;ne_list_ne_list_head</title>
<path fill="none" stroke="black" d="M1514.85,-422.3C1421.04,-407.76 1152.63,-361.09 945,-275.32 940.53,-273.48 935.97,-271.21 931.58,-268.81"/>
<polygon fill="black" stroke="black" points="933.29,-265.76 922.89,-263.77 929.78,-271.82 933.29,-265.76"/>
</g>
<!-- ne_list_ne_list_cons -->
<g id="node25" class="node">
<title>ne_list_ne_list_cons</title>
<g id="a_node25"><a xlink:href="ne_list.html#ne_list.cons" xlink:title="cons">
<ellipse fill="#7faaff" stroke="black" cx="936" cy="-85.32" rx="31.7" ry="18"/>
<text text-anchor="middle" x="936" y="-81.62" font-family="Times,serif" font-size="14.00">cons</text>
</a>
</g>
</g>
<!-- ne_list_ne_list_zip&#45;&gt;ne_list_ne_list_cons -->
<g id="edge2" class="edge">
<title>ne_list_ne_list_zip&#45;&gt;ne_list_ne_list_cons</title>
<path fill="none" stroke="black" d="M1552.55,-402.2C1557.06,-359.47 1559.39,-272.51 1513,-223.32 1438.68,-144.53 1096.77,-102.71 977.33,-90.32"/>
<polygon fill="black" stroke="black" points="977.44,-86.81 967.13,-89.27 976.72,-93.77 977.44,-86.81"/>
</g>
<!-- ne_list_ne_list_one -->
<g id="node26" class="node">
<title>ne_list_ne_list_one</title>
<g id="a_node26"><a xlink:href="ne_list.html#ne_list.one" xlink:title="one">
<ellipse fill="#7faaff" stroke="black" cx="1246" cy="-85.32" rx="27.1" ry="18"/>
<text text-anchor="middle" x="1246" y="-81.62" font-family="Times,serif" font-size="14.00">one</text>
</a>
</g>
</g>
<!-- ne_list_ne_list_zip&#45;&gt;ne_list_ne_list_one -->
<g id="edge3" class="edge">
<title>ne_list_ne_list_zip&#45;&gt;ne_list_ne_list_one</title>
<path fill="none" stroke="black" d="M1560.12,-403.6C1577.35,-362.98 1604.89,-279.1 1568,-223.32 1503.3,-125.48 1353.01,-97.3 1283.06,-89.35"/>
<polygon fill="black" stroke="black" points="1283.26,-85.85 1272.94,-88.28 1282.52,-92.81 1283.26,-85.85"/>
</g>
<!-- ne_list_ne_list_inits -->
<g id="node2" class="node">
<title>ne_list_ne_list_inits</title>
<g id="a_node2"><a xlink:href="ne_list.html#ne_list.inits" xlink:title="inits">
<ellipse fill="#f070d1" stroke="black" cx="261" cy="-428.32" rx="31.36" ry="18"/>
<ellipse fill="none" stroke="black" cx="261" cy="-428.32" rx="35.38" ry="22"/>
<ellipse fill="none" stroke="black" cx="261" cy="-428.32" rx="39.4" ry="26"/>
<text text-anchor="middle" x="261" y="-424.62" font-family="Times,serif" font-size="14.00">inits</text>
</a>
</g>
</g>
<!-- ne_list_ne_list_map -->
<g id="node4" class="node">
<title>ne_list_ne_list_map</title>
<g id="a_node4"><a xlink:href="ne_list.html#ne_list.map" xlink:title="map">
<ellipse fill="#f070d1" stroke="black" cx="534" cy="-249.32" rx="30.59" ry="18"/>
<text text-anchor="middle" x="534" y="-245.62" font-family="Times,serif" font-size="14.00">map</text>
</a>
</g>
</g>
<!-- ne_list_ne_list_inits&#45;&gt;ne_list_ne_list_map -->
<g id="edge4" class="edge">
<title>ne_list_ne_list_inits&#45;&gt;ne_list_ne_list_map</title>
<path fill="none" stroke="black" d="M288.43,-409.54C340.45,-375.81 452.96,-302.87 505.67,-268.69"/>
<polygon fill="black" stroke="black" points="507.71,-271.54 514.2,-263.17 503.9,-265.67 507.71,-271.54"/>
</g>
<!-- ne_list_ne_list_list_map -->
<g id="node3" class="node">
<title>ne_list_ne_list_list_map</title>
<g id="a_node3"><a xlink:href="ne_list.html#ne_list.list_map" xlink:title="list_map">
<ellipse fill="#f070d1" stroke="black" cx="376" cy="-428.32" rx="50.08" ry="18"/>
<ellipse fill="none" stroke="black" cx="376" cy="-428.32" rx="54.09" ry="22"/>
<ellipse fill="none" stroke="black" cx="376" cy="-428.32" rx="58.09" ry="26"/>
<text text-anchor="middle" x="376" y="-424.62" font-family="Times,serif" font-size="14.00">list_map</text>
</a>
</g>
</g>
<!-- ne_list_ne_list_list_map&#45;&gt;ne_list_ne_list_map -->
<g id="edge5" class="edge">
<title>ne_list_ne_list_list_map&#45;&gt;ne_list_ne_list_map</title>
<path fill="none" stroke="black" d="M396.98,-403.82C427.44,-369.69 483.56,-306.83 513.66,-273.11"/>
<polygon fill="black" stroke="black" points="516.32,-275.38 520.37,-265.59 511.1,-270.72 516.32,-275.38"/>
</g>
<!-- ne_list_ne_list_to_list -->
<g id="node16" class="node">
<title>ne_list_ne_list_to_list</title>
<g id="a_node16"><a xlink:href="ne_list.html#ne_list.to_list" xlink:title="to_list">
<ellipse fill="#f070d1" stroke="black" cx="157" cy="-249.32" rx="38.99" ry="18"/>
<text text-anchor="middle" x="157" y="-245.62" font-family="Times,serif" font-size="14.00">to_list</text>
</a>
</g>
</g>
<!-- ne_list_ne_list_list_map&#45;&gt;ne_list_ne_list_to_list -->
<g id="edge6" class="edge">
<title>ne_list_ne_list_list_map&#45;&gt;ne_list_ne_list_to_list</title>
<path fill="none" stroke="black" d="M348.71,-405.27C306.35,-371.03 225.33,-305.55 183.48,-271.73"/>
<polygon fill="black" stroke="black" points="185.63,-268.97 175.66,-265.4 181.23,-274.41 185.63,-268.97"/>
</g>
<!-- ne_list_ne_list_ne_list_rect -->
<g id="node24" class="node">
<title>ne_list_ne_list_ne_list_rect</title>
<g id="a_node24"><a xlink:href="ne_list.html#ne_list.ne_list_rect" xlink:title="ne_list_rect">
<ellipse fill="#f070d1" stroke="black" cx="646" cy="-249.32" rx="63.89" ry="18"/>
<text text-anchor="middle" x="646" y="-245.62" font-family="Times,serif" font-size="14.00">ne_list_rect</text>
</a>
</g>
</g>
<!-- ne_list_ne_list_list_map&#45;&gt;ne_list_ne_list_ne_list_rect -->
<g id="edge7" class="edge">
<title>ne_list_ne_list_list_map&#45;&gt;ne_list_ne_list_ne_list_rect</title>
<path fill="none" stroke="black" d="M407.77,-406.5C459.42,-372.64 561.1,-305.98 613.33,-271.74"/>
<polygon fill="black" stroke="black" points="615.44,-274.55 621.88,-266.14 611.6,-268.69 615.44,-274.55"/>
</g>
<!-- ne_list_ne_list_map&#45;&gt;ne_list_ne_list_cons -->
<g id="edge8" class="edge">
<title>ne_list_ne_list_map&#45;&gt;ne_list_ne_list_cons</title>
<path fill="none" stroke="black" d="M552.97,-235.04C559.19,-230.99 566.24,-226.72 573,-223.32 687.22,-165.95 831.56,-118.36 898.61,-97.57"/>
<polygon fill="black" stroke="black" points="899.78,-100.87 908.31,-94.59 897.72,-94.18 899.78,-100.87"/>
</g>
<!-- ne_list_ne_list_map&#45;&gt;ne_list_ne_list_one -->
<g id="edge9" class="edge">
<title>ne_list_ne_list_map&#45;&gt;ne_list_ne_list_one</title>
<path fill="none" stroke="black" d="M552.28,-234.64C558.57,-230.47 565.85,-226.23 573,-223.32 803.46,-129.82 1105.16,-97.74 1209.01,-89.06"/>
<polygon fill="black" stroke="black" points="1209.32,-92.55 1219,-88.25 1208.75,-85.57 1209.32,-92.55"/>
</g>
<!-- ne_list_ne_list_ne_list -->
<g id="node27" class="node">
<title>ne_list_ne_list_ne_list</title>
<g id="a_node27"><a xlink:href="ne_list.html#ne_list.ne_list" xlink:title="ne_list">
<ellipse fill="#e2cdfa" stroke="black" cx="646" cy="-85.32" rx="40.89" ry="18"/>
<text text-anchor="middle" x="646" y="-81.62" font-family="Times,serif" font-size="14.00">ne_list</text>
</a>
</g>
</g>
<!-- ne_list_ne_list_map&#45;&gt;ne_list_ne_list_ne_list -->
<g id="edge10" class="edge">
<title>ne_list_ne_list_map&#45;&gt;ne_list_ne_list_ne_list</title>
<path fill="none" stroke="black" d="M544.94,-232.5C564.45,-204.29 605.36,-145.11 628.7,-111.35"/>
<polygon fill="black" stroke="black" points="631.7,-113.16 634.51,-102.94 625.95,-109.18 631.7,-113.16"/>
</g>
<!-- ne_list_ne_list_tails_are_shorter -->
<g id="node5" class="node">
<title>ne_list_ne_list_tails_are_shorter</title>
<g id="a_node5"><a xlink:href="ne_list.html#ne_list.tails_are_shorter" xlink:title="tails_are_shorter">
<ellipse fill="#f070d1" stroke="black" cx="720" cy="-608.32" rx="89.08" ry="18"/>
<ellipse fill="none" stroke="black" cx="720" cy="-608.32" rx="93.08" ry="22"/>
<ellipse fill="none" stroke="black" cx="720" cy="-608.32" rx="97.08" ry="26"/>
<text text-anchor="middle" x="720" y="-604.62" font-family="Times,serif" font-size="14.00">tails_are_shorter</text>
</a>
</g>
</g>
<!-- ne_list_ne_list_tails -->
<g id="node6" class="node">
<title>ne_list_ne_list_tails</title>
<g id="a_node6"><a xlink:href="ne_list.html#ne_list.tails" xlink:title="tails">
<ellipse fill="#f070d1" stroke="black" cx="1309" cy="-249.32" rx="30.59" ry="18"/>
<text text-anchor="middle" x="1309" y="-245.62" font-family="Times,serif" font-size="14.00">tails</text>
</a>
</g>
</g>
<!-- ne_list_ne_list_tails_are_shorter&#45;&gt;ne_list_ne_list_tails -->
<g id="edge11" class="edge">
<title>ne_list_ne_list_tails_are_shorter&#45;&gt;ne_list_ne_list_tails</title>
<path fill="none" stroke="black" d="M758.39,-584.37C848.04,-530.72 1078.04,-392.73 1269,-275.32 1272.61,-273.11 1276.4,-270.76 1280.14,-268.43"/>
<polygon fill="black" stroke="black" points="1282.05,-271.36 1288.69,-263.1 1278.35,-265.42 1282.05,-271.36"/>
</g>
<!-- ne_list_ne_list_tails_are_shorter&#45;&gt;ne_list_ne_list_to_list -->
<g id="edge12" class="edge">
<title>ne_list_ne_list_tails_are_shorter&#45;&gt;ne_list_ne_list_to_list</title>
<path fill="none" stroke="black" d="M641.17,-593.14C514.26,-568.78 272.82,-515.67 213,-454.32 200.5,-441.5 174.53,-329.78 162.88,-277.32"/>
<polygon fill="black" stroke="black" points="166.26,-276.38 160.69,-267.37 159.43,-277.89 166.26,-276.38"/>
</g>
<!-- ne_list_ne_list_ne_list_rec -->
<g id="node22" class="node">
<title>ne_list_ne_list_ne_list_rec</title>
<g id="a_node22"><a xlink:href="ne_list.html#ne_list.ne_list_rec" xlink:title="ne_list_rec">
<ellipse fill="#f070d1" stroke="black" cx="720" cy="-428.32" rx="59.59" ry="18"/>
<text text-anchor="middle" x="720" y="-424.62" font-family="Times,serif" font-size="14.00">ne_list_rec</text>
</a>
</g>
</g>
<!-- ne_list_ne_list_tails_are_shorter&#45;&gt;ne_list_ne_list_ne_list_rec -->
<g id="edge13" class="edge">
<title>ne_list_ne_list_tails_are_shorter&#45;&gt;ne_list_ne_list_ne_list_rec</title>
<path fill="none" stroke="black" d="M720,-582.2C720,-549.08 720,-491.02 720,-456.78"/>
<polygon fill="black" stroke="black" points="723.5,-456.56 720,-446.56 716.5,-456.56 723.5,-456.56"/>
</g>
<!-- ne_list_ne_list_tails&#45;&gt;ne_list_ne_list_cons -->
<g id="edge14" class="edge">
<title>ne_list_ne_list_tails&#45;&gt;ne_list_ne_list_cons</title>
<path fill="none" stroke="black" d="M1289.45,-235.19C1283.06,-231.15 1275.85,-226.84 1269,-223.32 1164.7,-169.76 1034.48,-121.14 972.31,-98.98"/>
<polygon fill="black" stroke="black" points="973.17,-95.57 962.58,-95.53 970.83,-102.17 973.17,-95.57"/>
</g>
<!-- ne_list_ne_list_tails&#45;&gt;ne_list_ne_list_one -->
<g id="edge15" class="edge">
<title>ne_list_ne_list_tails&#45;&gt;ne_list_ne_list_one</title>
<path fill="none" stroke="black" d="M1302.5,-231.6C1291.55,-203.47 1269.39,-146.46 1256.31,-112.83"/>
<polygon fill="black" stroke="black" points="1259.45,-111.25 1252.56,-103.2 1252.93,-113.79 1259.45,-111.25"/>
</g>
<!-- ne_list_ne_list_tails&#45;&gt;ne_list_ne_list_ne_list -->
<g id="edge16" class="edge">
<title>ne_list_ne_list_tails&#45;&gt;ne_list_ne_list_ne_list</title>
<path fill="none" stroke="black" d="M1290.19,-234.72C1283.72,-230.55 1276.28,-226.3 1269,-223.32 1065.63,-140.31 803.4,-103.69 695.61,-91.41"/>
<polygon fill="black" stroke="black" points="696,-87.93 685.67,-90.3 695.22,-94.89 696,-87.93"/>
</g>
<!-- ne_list_ne_list_tl_length -->
<g id="node7" class="node">
<title>ne_list_ne_list_tl_length</title>
<g id="a_node7"><a xlink:href="ne_list.html#ne_list.tl_length" xlink:title="tl_length">
<ellipse fill="#f070d1" stroke="black" cx="878" cy="-428.32" rx="51.99" ry="18"/>
<ellipse fill="none" stroke="black" cx="878" cy="-428.32" rx="55.99" ry="22"/>
<ellipse fill="none" stroke="black" cx="878" cy="-428.32" rx="59.99" ry="26"/>
<text text-anchor="middle" x="878" y="-424.62" font-family="Times,serif" font-size="14.00">tl_length</text>
</a>
</g>
</g>
<!-- ne_list_ne_list_tl_length&#45;&gt;ne_list_ne_list_to_list -->
<g id="edge17" class="edge">
<title>ne_list_ne_list_tl_length&#45;&gt;ne_list_ne_list_to_list</title>
<path fill="none" stroke="black" d="M829.18,-413.04C816.16,-409.39 802.08,-405.58 789,-402.32 531.25,-338.16 454.78,-365.7 205,-275.32 199.81,-273.45 194.47,-271.11 189.33,-268.63"/>
<polygon fill="black" stroke="black" points="190.86,-265.49 180.36,-264.08 187.69,-271.73 190.86,-265.49"/>
</g>
<!-- ne_list_ne_list_tl_length&#45;&gt;ne_list_ne_list_cons -->
<g id="edge18" class="edge">
<title>ne_list_ne_list_tl_length&#45;&gt;ne_list_ne_list_cons</title>
<path fill="none" stroke="black" d="M870.71,-402.39C860.49,-363.5 844.88,-286.33 861,-223.32 871.99,-180.37 899.54,-136.4 918.01,-110.23"/>
<polygon fill="black" stroke="black" points="920.88,-112.22 923.89,-102.06 915.2,-108.13 920.88,-112.22"/>
</g>
<!-- ne_list_ne_list_tl_length&#45;&gt;ne_list_ne_list_one -->
<g id="edge19" class="edge">
<title>ne_list_ne_list_tl_length&#45;&gt;ne_list_ne_list_one</title>
<path fill="none" stroke="black" d="M936.57,-422.34C1079.79,-408.83 1441.3,-366.21 1513,-275.32 1585.41,-183.54 1368.73,-117.16 1281.06,-94.68"/>
<polygon fill="black" stroke="black" points="1281.83,-91.26 1271.28,-92.21 1280.12,-98.05 1281.83,-91.26"/>
</g>
<!-- ne_list_ne_list_two_level_rect -->
<g id="node8" class="node">
<title>ne_list_ne_list_two_level_rect</title>
<g id="a_node8"><a xlink:href="ne_list.html#ne_list.two_level_rect" xlink:title="two_level_rect">
<ellipse fill="#f070d1" stroke="black" cx="557" cy="-428.32" rx="77.2" ry="18"/>
<ellipse fill="none" stroke="black" cx="557" cy="-428.32" rx="81.19" ry="22"/>
<ellipse fill="none" stroke="black" cx="557" cy="-428.32" rx="85.19" ry="26"/>
<text text-anchor="middle" x="557" y="-424.62" font-family="Times,serif" font-size="14.00">two_level_rect</text>
</a>
</g>
</g>
<!-- ne_list_ne_list_two_level_rect&#45;&gt;ne_list_ne_list_ne_list_rect -->
<g id="edge20" class="edge">
<title>ne_list_ne_list_two_level_rect&#45;&gt;ne_list_ne_list_ne_list_rect</title>
<path fill="none" stroke="black" d="M569.56,-402.34C586.31,-369.04 615.81,-310.37 632.85,-276.48"/>
<polygon fill="black" stroke="black" points="636.14,-277.72 637.51,-267.22 629.89,-274.58 636.14,-277.72"/>
</g>
<!-- ne_list_ne_list_front -->
<g id="node9" class="node">
<title>ne_list_ne_list_front</title>
<g id="a_node9"><a xlink:href="ne_list.html#ne_list.front" xlink:title="front">
<ellipse fill="#f070d1" stroke="black" cx="354" cy="-249.32" rx="33.63" ry="18"/>
<ellipse fill="none" stroke="black" cx="354" cy="-249.32" rx="37.61" ry="22"/>
<ellipse fill="none" stroke="black" cx="354" cy="-249.32" rx="41.59" ry="26"/>
<text text-anchor="middle" x="354" y="-245.62" font-family="Times,serif" font-size="14.00">front</text>
</a>
</g>
</g>
<!-- ne_list_ne_list_front&#45;&gt;ne_list_ne_list_ne_list -->
<g id="edge21" class="edge">
<title>ne_list_ne_list_front&#45;&gt;ne_list_ne_list_ne_list</title>
<path fill="none" stroke="black" d="M384.42,-231.45C439.49,-200.89 555.29,-136.65 612.52,-104.9"/>
<polygon fill="black" stroke="black" points="614.47,-107.82 621.52,-99.91 611.08,-101.7 614.47,-107.82"/>
</g>
<!-- ne_list_ne_list_take -->
<g id="node10" class="node">
<title>ne_list_ne_list_take</title>
<g id="a_node10"><a xlink:href="ne_list.html#ne_list.take" xlink:title="take">
<ellipse fill="#f070d1" stroke="black" cx="1329" cy="-428.32" rx="30.58" ry="18"/>
<ellipse fill="none" stroke="black" cx="1329" cy="-428.32" rx="34.59" ry="22"/>
<ellipse fill="none" stroke="black" cx="1329" cy="-428.32" rx="38.59" ry="26"/>
<text text-anchor="middle" x="1329" y="-424.62" font-family="Times,serif" font-size="14.00">take</text>
</a>
</g>
</g>
<!-- ne_list_ne_list_take&#45;&gt;ne_list_ne_list_head -->
<g id="edge22" class="edge">
<title>ne_list_ne_list_take&#45;&gt;ne_list_ne_list_head</title>
<path fill="none" stroke="black" d="M1294.83,-415.87C1226.79,-392.63 1070.15,-336.85 945,-275.32 940.86,-273.29 936.59,-270.99 932.42,-268.64"/>
<polygon fill="black" stroke="black" points="933.97,-265.49 923.57,-263.46 930.44,-271.53 933.97,-265.49"/>
</g>
<!-- ne_list_ne_list_take&#45;&gt;ne_list_ne_list_one -->
<g id="edge23" class="edge">
<title>ne_list_ne_list_take&#45;&gt;ne_list_ne_list_one</title>
<path fill="none" stroke="black" d="M1361.45,-414.13C1430.26,-384.15 1580.37,-306.99 1528,-223.32 1473.42,-136.14 1345.75,-103.02 1282.64,-91.65"/>
<polygon fill="black" stroke="black" points="1283.17,-88.19 1272.73,-89.95 1281.99,-95.09 1283.17,-88.19"/>
</g>
<!-- ne_list_ne_list_replicate_Sn -->
<g id="node11" class="node">
<title>ne_list_ne_list_replicate_Sn</title>
<g id="a_node11"><a xlink:href="ne_list.html#ne_list.replicate_Sn" xlink:title="replicate_Sn">
<ellipse fill="#f070d1" stroke="black" cx="1184" cy="-249.32" rx="68.46" ry="18"/>
<ellipse fill="none" stroke="black" cx="1184" cy="-249.32" rx="72.48" ry="22"/>
<ellipse fill="none" stroke="black" cx="1184" cy="-249.32" rx="76.49" ry="26"/>
<text text-anchor="middle" x="1184" y="-245.62" font-family="Times,serif" font-size="14.00">replicate_Sn</text>
</a>
</g>
</g>
<!-- ne_list_ne_list_replicate_Sn&#45;&gt;ne_list_ne_list_cons -->
<g id="edge24" class="edge">
<title>ne_list_ne_list_replicate_Sn&#45;&gt;ne_list_ne_list_cons</title>
<path fill="none" stroke="black" d="M1149.78,-225.97C1100.57,-193.83 1010.71,-135.13 964.75,-105.1"/>
<polygon fill="black" stroke="black" points="966.45,-102.04 956.17,-99.5 962.62,-107.9 966.45,-102.04"/>
</g>
<!-- ne_list_ne_list_replicate_Sn&#45;&gt;ne_list_ne_list_one -->
<g id="edge25" class="edge">
<title>ne_list_ne_list_replicate_Sn&#45;&gt;ne_list_ne_list_one</title>
<path fill="none" stroke="black" d="M1193.55,-223.37C1205.03,-193.39 1224.19,-143.31 1235.9,-112.71"/>
<polygon fill="black" stroke="black" points="1239.26,-113.72 1239.57,-103.13 1232.72,-111.22 1239.26,-113.72"/>
</g>
<!-- ne_list_ne_list_replicate_Sn&#45;&gt;ne_list_ne_list_ne_list -->
<g id="edge26" class="edge">
<title>ne_list_ne_list_replicate_Sn&#45;&gt;ne_list_ne_list_ne_list</title>
<path fill="none" stroke="black" d="M1128.2,-231.52C1020.2,-199 784.76,-128.11 688.4,-99.09"/>
<polygon fill="black" stroke="black" points="689.29,-95.71 678.71,-96.17 687.27,-102.41 689.29,-95.71"/>
</g>
<!-- ne_list_ne_list_last -->
<g id="node12" class="node">
<title>ne_list_ne_list_last</title>
<g id="a_node12"><a xlink:href="ne_list.html#ne_list.last" xlink:title="last">
<ellipse fill="#f070d1" stroke="black" cx="62" cy="-428.32" rx="27.91" ry="18"/>
<ellipse fill="none" stroke="black" cx="62" cy="-428.32" rx="31.9" ry="22"/>
<ellipse fill="none" stroke="black" cx="62" cy="-428.32" rx="35.9" ry="26"/>
<text text-anchor="middle" x="62" y="-424.62" font-family="Times,serif" font-size="14.00">last</text>
</a>
</g>
</g>
<!-- ne_list_ne_list_foldr1 -->
<g id="node18" class="node">
<title>ne_list_ne_list_foldr1</title>
<g id="a_node18"><a xlink:href="ne_list.html#ne_list.foldr1" xlink:title="foldr1">
<ellipse fill="#f070d1" stroke="black" cx="62" cy="-249.32" rx="38.19" ry="18"/>
<text text-anchor="middle" x="62" y="-245.62" font-family="Times,serif" font-size="14.00">foldr1</text>
</a>
</g>
</g>
<!-- ne_list_ne_list_last&#45;&gt;ne_list_ne_list_foldr1 -->
<g id="edge27" class="edge">
<title>ne_list_ne_list_last&#45;&gt;ne_list_ne_list_foldr1</title>
<path fill="none" stroke="black" d="M62,-401.97C62,-369.02 62,-311.7 62,-277.76"/>
<polygon fill="black" stroke="black" points="65.5,-277.63 62,-267.63 58.5,-277.63 65.5,-277.63"/>
</g>
<!-- ne_list_ne_list_decomp_eq -->
<g id="node13" class="node">
<title>ne_list_ne_list_decomp_eq</title>
<g id="a_node13"><a xlink:href="ne_list.html#ne_list.decomp_eq" xlink:title="decomp_eq">
<ellipse fill="#f070d1" stroke="black" cx="494" cy="-608.32" rx="62.3" ry="18"/>
<ellipse fill="none" stroke="black" cx="494" cy="-608.32" rx="66.3" ry="22"/>
<ellipse fill="none" stroke="black" cx="494" cy="-608.32" rx="70.29" ry="26"/>
<text text-anchor="middle" x="494" y="-604.62" font-family="Times,serif" font-size="14.00">decomp_eq</text>
</a>
</g>
</g>
<!-- ne_list_ne_list_tail -->
<g id="node14" class="node">
<title>ne_list_ne_list_tail</title>
<g id="a_node14"><a xlink:href="ne_list.html#ne_list.tail" xlink:title="tail">
<ellipse fill="#f070d1" stroke="black" cx="157" cy="-428.32" rx="27" ry="18"/>
<text text-anchor="middle" x="157" y="-424.62" font-family="Times,serif" font-size="14.00">tail</text>
</a>
</g>
</g>
<!-- ne_list_ne_list_decomp_eq&#45;&gt;ne_list_ne_list_tail -->
<g id="edge28" class="edge">
<title>ne_list_ne_list_decomp_eq&#45;&gt;ne_list_ne_list_tail</title>
<path fill="none" stroke="black" d="M452.82,-587.19C395.19,-558.75 287.5,-504.66 198,-454.32 193.69,-451.9 189.17,-449.25 184.77,-446.62"/>
<polygon fill="black" stroke="black" points="186.39,-443.51 176.02,-441.31 182.75,-449.49 186.39,-443.51"/>
</g>
<!-- ne_list_ne_list_from_list -->
<g id="node15" class="node">
<title>ne_list_ne_list_from_list</title>
<g id="a_node15"><a xlink:href="ne_list.html#ne_list.from_list" xlink:title="from_list">
<ellipse fill="#f070d1" stroke="black" cx="780" cy="-249.32" rx="51.99" ry="18"/>
<text text-anchor="middle" x="780" y="-245.62" font-family="Times,serif" font-size="14.00">from_list</text>
</a>
</g>
</g>
<!-- ne_list_ne_list_decomp_eq&#45;&gt;ne_list_ne_list_from_list -->
<g id="edge29" class="edge">
<title>ne_list_ne_list_decomp_eq&#45;&gt;ne_list_ne_list_from_list</title>
<path fill="none" stroke="black" d="M555.19,-595.27C625.68,-577.75 738.28,-537.77 789,-454.32 822.78,-398.75 803.52,-318.07 789.9,-276.8"/>
<polygon fill="black" stroke="black" points="793.16,-275.51 786.59,-267.2 786.54,-277.79 793.16,-275.51"/>
</g>
<!-- ne_list_ne_list_decomp_eq&#45;&gt;ne_list_ne_list_head -->
<g id="edge30" class="edge">
<title>ne_list_ne_list_decomp_eq&#45;&gt;ne_list_ne_list_head</title>
<path fill="none" stroke="black" d="M549.97,-592.34C665.81,-560.79 923.07,-487.66 947,-454.32 986.48,-399.32 944.88,-315.92 919.53,-274.89"/>
<polygon fill="black" stroke="black" points="922.42,-272.9 914.1,-266.33 916.51,-276.65 922.42,-272.9"/>
</g>
<!-- ne_list_ne_list_decomp_eq&#45;&gt;ne_list_ne_list_ne_list_rect -->
<g id="edge31" class="edge">
<title>ne_list_ne_list_decomp_eq&#45;&gt;ne_list_ne_list_ne_list_rect</title>
<path fill="none" stroke="black" d="M481.64,-582.68C463.5,-542.82 434.71,-462.61 463,-402.32 492.33,-339.85 561.35,-294.17 605.74,-269.98"/>
<polygon fill="black" stroke="black" points="607.64,-272.93 614.82,-265.14 604.35,-266.75 607.64,-272.93"/>
</g>
<!-- ne_list_ne_list_tail&#45;&gt;ne_list_ne_list_to_list -->
<g id="edge32" class="edge">
<title>ne_list_ne_list_tail&#45;&gt;ne_list_ne_list_to_list</title>
<path fill="none" stroke="black" d="M157,-410.03C157,-379.15 157,-314.33 157,-277.47"/>
<polygon fill="black" stroke="black" points="160.5,-277.43 157,-267.43 153.5,-277.43 160.5,-277.43"/>
</g>
<!-- ne_list_ne_list_from_list&#45;&gt;ne_list_ne_list_cons -->
<g id="edge33" class="edge">
<title>ne_list_ne_list_from_list&#45;&gt;ne_list_ne_list_cons</title>
<path fill="none" stroke="black" d="M795.82,-231.9C823.93,-202.71 882.62,-141.76 914.41,-108.74"/>
<polygon fill="black" stroke="black" points="917.1,-111 921.51,-101.37 912.05,-106.15 917.1,-111"/>
</g>
<!-- ne_list_ne_list_from_list&#45;&gt;ne_list_ne_list_one -->
<g id="edge34" class="edge">
<title>ne_list_ne_list_from_list&#45;&gt;ne_list_ne_list_one</title>
<path fill="none" stroke="black" d="M815.41,-236.02C902.76,-205.65 1127.62,-127.48 1212.71,-97.9"/>
<polygon fill="black" stroke="black" points="1214.08,-101.13 1222.37,-94.54 1211.78,-94.52 1214.08,-101.13"/>
</g>
<!-- ne_list_ne_list_from_list&#45;&gt;ne_list_ne_list_ne_list -->
<g id="edge35" class="edge">
<title>ne_list_ne_list_from_list&#45;&gt;ne_list_ne_list_ne_list</title>
<path fill="none" stroke="black" d="M766.41,-231.9C742.74,-203.28 693.81,-144.12 666.16,-110.7"/>
<polygon fill="black" stroke="black" points="668.69,-108.27 659.62,-102.79 663.3,-112.73 668.69,-108.27"/>
</g>
<!-- ne_list_ne_list_to_list&#45;&gt;ne_list_ne_list_ne_list -->
<g id="edge36" class="edge">
<title>ne_list_ne_list_to_list&#45;&gt;ne_list_ne_list_ne_list</title>
<path fill="none" stroke="black" d="M181.02,-234.74C188.56,-230.77 197.01,-226.62 205,-223.32 345.94,-165.28 520.76,-117.89 601.41,-97.34"/>
<polygon fill="black" stroke="black" points="602.4,-100.7 611.24,-94.85 600.68,-93.92 602.4,-100.7"/>
</g>
<!-- ne_list_ne_list_head&#45;&gt;ne_list_ne_list_ne_list -->
<g id="edge37" class="edge">
<title>ne_list_ne_list_head&#45;&gt;ne_list_ne_list_ne_list</title>
<path fill="none" stroke="black" d="M881.97,-235.07C836.75,-206.57 730.1,-139.34 677.06,-105.91"/>
<polygon fill="black" stroke="black" points="678.74,-102.83 668.42,-100.46 675.01,-108.75 678.74,-102.83"/>
</g>
<!-- ne_list_ne_list_foldr1&#45;&gt;ne_list_ne_list_ne_list -->
<g id="edge38" class="edge">
<title>ne_list_ne_list_foldr1&#45;&gt;ne_list_ne_list_ne_list</title>
<path fill="none" stroke="black" d="M84.91,-234.73C92.41,-230.66 100.9,-226.46 109,-223.32 283.88,-155.63 503.73,-111.6 598.72,-94.44"/>
<polygon fill="black" stroke="black" points="599.37,-97.88 608.59,-92.68 598.13,-90.99 599.37,-97.88"/>
</g>
<!-- ne_list_ne_list_foldr -->
<g id="node19" class="node">
<title>ne_list_ne_list_foldr</title>
<g id="a_node19"><a xlink:href="ne_list.html#ne_list.foldr" xlink:title="foldr">
<ellipse fill="#f070d1" stroke="black" cx="254" cy="-249.32" rx="32.49" ry="18"/>
<ellipse fill="none" stroke="black" cx="254" cy="-249.32" rx="36.49" ry="22"/>
<ellipse fill="none" stroke="black" cx="254" cy="-249.32" rx="40.49" ry="26"/>
<text text-anchor="middle" x="254" y="-245.62" font-family="Times,serif" font-size="14.00">foldr</text>
</a>
</g>
</g>
<!-- ne_list_ne_list_foldr&#45;&gt;ne_list_ne_list_ne_list -->
<g id="edge39" class="edge">
<title>ne_list_ne_list_foldr&#45;&gt;ne_list_ne_list_ne_list</title>
<path fill="none" stroke="black" d="M284.63,-232.15C290.67,-229.12 297,-226.05 303,-223.32 410.75,-174.44 541.38,-124.85 605.92,-100.97"/>
<polygon fill="black" stroke="black" points="607.15,-104.24 615.32,-97.5 604.73,-97.68 607.15,-104.24"/>
</g>
<!-- ne_list_ne_list_app -->
<g id="node20" class="node">
<title>ne_list_ne_list_app</title>
<g id="a_node20"><a xlink:href="ne_list.html#ne_list.app" xlink:title="app">
<ellipse fill="#f070d1" stroke="black" cx="450" cy="-249.32" rx="27.91" ry="18"/>
<ellipse fill="none" stroke="black" cx="450" cy="-249.32" rx="31.9" ry="22"/>
<ellipse fill="none" stroke="black" cx="450" cy="-249.32" rx="35.9" ry="26"/>
<text text-anchor="middle" x="450" y="-245.62" font-family="Times,serif" font-size="14.00">app</text>
</a>
</g>
</g>
<!-- ne_list_ne_list_app&#45;&gt;ne_list_ne_list_cons -->
<g id="edge40" class="edge">
<title>ne_list_ne_list_app&#45;&gt;ne_list_ne_list_cons</title>
<path fill="none" stroke="black" d="M476.99,-231.78C482.51,-228.75 488.36,-225.77 494,-223.32 637.76,-161.08 818.96,-114.17 897.15,-95.35"/>
<polygon fill="black" stroke="black" points="898.14,-98.72 907.05,-92.99 896.51,-91.91 898.14,-98.72"/>
</g>
<!-- ne_list_ne_list_app&#45;&gt;ne_list_ne_list_ne_list -->
<g id="edge41" class="edge">
<title>ne_list_ne_list_app&#45;&gt;ne_list_ne_list_ne_list</title>
<path fill="none" stroke="black" d="M473.25,-229.11C509.93,-198.79 580.98,-140.07 619.55,-108.19"/>
<polygon fill="black" stroke="black" points="622.23,-110.51 627.71,-101.44 617.77,-105.11 622.23,-110.51"/>
</g>
<!-- ne_list_ne_list_ne_list_sind -->
<g id="node21" class="node">
<title>ne_list_ne_list_ne_list_sind</title>
<g id="a_node21"><a xlink:href="ne_list.html#ne_list.ne_list_sind" xlink:title="ne_list_sind">
<ellipse fill="#f070d1" stroke="black" cx="1431" cy="-249.32" rx="64.99" ry="18"/>
<ellipse fill="none" stroke="black" cx="1431" cy="-249.32" rx="68.99" ry="22"/>
<ellipse fill="none" stroke="black" cx="1431" cy="-249.32" rx="72.99" ry="26"/>
<text text-anchor="middle" x="1431" y="-245.62" font-family="Times,serif" font-size="14.00">ne_list_sind</text>
</a>
</g>
</g>
<!-- ne_list_ne_list_ne_list_sind&#45;&gt;ne_list_ne_list_cons -->
<g id="edge42" class="edge">
<title>ne_list_ne_list_ne_list_sind&#45;&gt;ne_list_ne_list_cons</title>
<path fill="none" stroke="black" d="M1378.49,-231.14C1277.73,-198.16 1059.54,-126.76 972.72,-98.34"/>
<polygon fill="black" stroke="black" points="973.63,-94.96 963.04,-95.17 971.45,-101.61 973.63,-94.96"/>
</g>
<!-- ne_list_ne_list_ne_list_sind&#45;&gt;ne_list_ne_list_one -->
<g id="edge43" class="edge">
<title>ne_list_ne_list_ne_list_sind&#45;&gt;ne_list_ne_list_one</title>
<path fill="none" stroke="black" d="M1404.1,-224.77C1367.92,-193.08 1304.14,-137.24 1269.69,-107.07"/>
<polygon fill="black" stroke="black" points="1271.82,-104.29 1261.99,-100.33 1267.21,-109.55 1271.82,-104.29"/>
</g>
<!-- ne_list_ne_list_ne_list_sind&#45;&gt;ne_list_ne_list_ne_list -->
<g id="edge44" class="edge">
<title>ne_list_ne_list_ne_list_sind&#45;&gt;ne_list_ne_list_ne_list</title>
<path fill="none" stroke="black" d="M1377.85,-231.25C1368.29,-228.43 1358.39,-225.66 1349,-223.32 1105.34,-162.61 808.64,-112.43 694.2,-93.95"/>
<polygon fill="black" stroke="black" points="694.45,-90.44 684.02,-92.31 693.34,-97.36 694.45,-90.44"/>
</g>
<!-- ne_list_ne_list_ne_list_rec&#45;&gt;ne_list_ne_list_ne_list_rect -->
<g id="edge45" class="edge">
<title>ne_list_ne_list_ne_list_rec&#45;&gt;ne_list_ne_list_ne_list_rect</title>
<path fill="none" stroke="black" d="M712.9,-410.35C699.98,-379.43 672.5,-313.7 657.08,-276.83"/>
<polygon fill="black" stroke="black" points="660.16,-275.12 653.07,-267.24 653.7,-277.82 660.16,-275.12"/>
</g>
<!-- ne_list_ne_list_ne_list_ind -->
<g id="node23" class="node">
<title>ne_list_ne_list_ne_list_ind</title>
<g id="a_node23"><a xlink:href="ne_list.html#ne_list.ne_list_ind" xlink:title="ne_list_ind">
<ellipse fill="#7fffd4" stroke="black" cx="1022" cy="-249.32" rx="59.61" ry="18"/>
<ellipse fill="none" stroke="black" cx="1022" cy="-249.32" rx="63.6" ry="22"/>
<ellipse fill="none" stroke="black" cx="1022" cy="-249.32" rx="67.59" ry="26"/>
<text text-anchor="middle" x="1022" y="-245.62" font-family="Times,serif" font-size="14.00">ne_list_ind</text>
</a>
</g>
</g>
<!-- ne_list_ne_list_ne_list_ind&#45;&gt;ne_list_ne_list_cons -->
<g id="edge46" class="edge">
<title>ne_list_ne_list_ne_list_ind&#45;&gt;ne_list_ne_list_cons</title>
<path fill="none" stroke="black" d="M1008.94,-223.72C992.91,-193.53 965.87,-142.59 949.6,-111.94"/>
<polygon fill="black" stroke="black" points="952.5,-109.95 944.72,-102.76 946.32,-113.23 952.5,-109.95"/>
</g>
<!-- ne_list_ne_list_ne_list_ind&#45;&gt;ne_list_ne_list_one -->
<g id="edge47" class="edge">
<title>ne_list_ne_list_ne_list_ind&#45;&gt;ne_list_ne_list_one</title>
<path fill="none" stroke="black" d="M1053.15,-225.8C1097.59,-193.66 1178.4,-135.21 1219.89,-105.21"/>
<polygon fill="black" stroke="black" points="1222.07,-107.95 1228.12,-99.26 1217.96,-102.28 1222.07,-107.95"/>
</g>
<!-- ne_list_ne_list_ne_list_ind&#45;&gt;ne_list_ne_list_ne_list -->
<g id="edge48" class="edge">
<title>ne_list_ne_list_ne_list_ind&#45;&gt;ne_list_ne_list_ne_list</title>
<path fill="none" stroke="black" d="M978.13,-229.42C903.57,-197.3 753.41,-132.6 683.46,-102.46"/>
<polygon fill="black" stroke="black" points="684.7,-99.19 674.13,-98.45 681.93,-105.62 684.7,-99.19"/>
</g>
<!-- ne_list_ne_list_ne_list_rect&#45;&gt;ne_list_ne_list_cons -->
<g id="edge49" class="edge">
<title>ne_list_ne_list_ne_list_rect&#45;&gt;ne_list_ne_list_cons</title>
<path fill="none" stroke="black" d="M673.54,-232.94C727.79,-202.64 848.1,-135.43 905.01,-103.64"/>
<polygon fill="black" stroke="black" points="906.88,-106.6 913.91,-98.67 903.47,-100.49 906.88,-106.6"/>
</g>
<!-- ne_list_ne_list_ne_list_rect&#45;&gt;ne_list_ne_list_one -->
<g id="edge50" class="edge">
<title>ne_list_ne_list_ne_list_rect&#45;&gt;ne_list_ne_list_one</title>
<path fill="none" stroke="black" d="M683.71,-234.8C695,-230.92 707.45,-226.8 719,-223.32 902.37,-168.18 1125.48,-114.53 1210.66,-94.54"/>
<polygon fill="black" stroke="black" points="1211.64,-97.9 1220.58,-92.21 1210.05,-91.08 1211.64,-97.9"/>
</g>
<!-- ne_list_ne_list_ne_list_rect&#45;&gt;ne_list_ne_list_ne_list -->
<g id="edge51" class="edge">
<title>ne_list_ne_list_ne_list_rect&#45;&gt;ne_list_ne_list_ne_list</title>
<path fill="none" stroke="black" d="M646,-231.29C646,-203.29 646,-147.29 646,-113.68"/>
<polygon fill="black" stroke="black" points="649.5,-113.61 646,-103.61 642.5,-113.61 649.5,-113.61"/>
</g>
</g>
</svg>
