<?xml version="1.0" encoding="UTF-8" standalone="no"?>
<!DOCTYPE svg PUBLIC "-//W3C//DTD SVG 1.1//EN"
 "http://www.w3.org/Graphics/SVG/1.1/DTD/svg11.dtd">
<!-- Generated by graphviz version 2.43.0 (0)
 -->
<!-- Title: HoTT_Spaces_List_Core Pages: 1 -->
<svg width="2457pt" height="1233pt"
 viewBox="0.00 0.00 2457.00 1232.50" xmlns="http://www.w3.org/2000/svg" xmlns:xlink="http://www.w3.org/1999/xlink">
<g id="graph0" class="graph" transform="scale(1 1) rotate(0) translate(4 1228.5)">
<title>HoTT_Spaces_List_Core</title>
<polygon fill="white" stroke="transparent" points="-4,4 -4,-1228.5 2453,-1228.5 2453,4 -4,4"/>
<g id="clust1" class="cluster">
<title>cluster_Core</title>
<polygon fill="#ffffc3" stroke="black" points="8,-28.9 8,-1195.6 2441,-1195.6 2441,-28.9 8,-28.9"/>
<text text-anchor="middle" x="33" y="-1180.4" font-family="Times,serif" font-size="14.00">Core</text>
</g>
<!-- Core_list_exists -->
<g id="node1" class="node">
<title>Core_list_exists</title>
<g id="a_node1"><a xlink:href="Core.html#list_exists" xlink:title="list_exists">
<ellipse fill="#f070d1" stroke="black" cx="2368" cy="-411.9" rx="57.37" ry="18"/>
<ellipse fill="none" stroke="black" cx="2368" cy="-411.9" rx="61.38" ry="22"/>
<ellipse fill="none" stroke="black" cx="2368" cy="-411.9" rx="65.39" ry="26"/>
<text text-anchor="middle" x="2368" y="-408.2" font-family="Times,serif" font-size="14.00">list_exists</text>
</a>
</g>
</g>
<!-- Core_list -->
<g id="node25" class="node">
<title>Core_list</title>
<g id="a_node25"><a xlink:href="Core.html#list" xlink:title="list">
<ellipse fill="#e2cdfa" stroke="black" cx="1274" cy="-122.9" rx="27" ry="18"/>
<text text-anchor="middle" x="1274" y="-119.2" font-family="Times,serif" font-size="14.00">list</text>
</a>
</g>
</g>
<!-- Core_list_exists&#45;&gt;Core_list -->
<g id="edge1" class="edge">
<title>Core_list_exists&#45;&gt;Core_list</title>
<path fill="none" stroke="black" d="M2320,-394.1C2311.38,-391.25 2302.45,-388.41 2294,-385.9 1911.75,-272.4 1440.5,-162.13 1309.33,-131.96"/>
<polygon fill="black" stroke="black" points="1309.95,-128.52 1299.42,-129.69 1308.39,-135.34 1309.95,-128.52"/>
</g>
<!-- Core_for_all -->
<g id="node2" class="node">
<title>Core_for_all</title>
<g id="a_node2"><a xlink:href="Core.html#for_all" xlink:title="for_all">
<ellipse fill="#f070d1" stroke="black" cx="2237" cy="-411.9" rx="39.77" ry="18"/>
<ellipse fill="none" stroke="black" cx="2237" cy="-411.9" rx="43.78" ry="22"/>
<ellipse fill="none" stroke="black" cx="2237" cy="-411.9" rx="47.79" ry="26"/>
<text text-anchor="middle" x="2237" y="-408.2" font-family="Times,serif" font-size="14.00">for_all</text>
</a>
</g>
</g>
<!-- Core_for_all&#45;&gt;Core_list -->
<g id="edge2" class="edge">
<title>Core_for_all&#45;&gt;Core_list</title>
<path fill="none" stroke="black" d="M2201.76,-394.27C2194.94,-391.31 2187.8,-388.38 2181,-385.9 1848.57,-264.34 1431.56,-161.42 1309.23,-132.2"/>
<polygon fill="black" stroke="black" points="1309.84,-128.75 1299.3,-129.83 1308.21,-135.56 1309.84,-128.75"/>
</g>
<!-- Core_InList -->
<g id="node3" class="node">
<title>Core_InList</title>
<g id="a_node3"><a xlink:href="Core.html#InList" xlink:title="InList">
<ellipse fill="#f070d1" stroke="black" cx="2126" cy="-411.9" rx="37.86" ry="18"/>
<ellipse fill="none" stroke="black" cx="2126" cy="-411.9" rx="41.88" ry="22"/>
<ellipse fill="none" stroke="black" cx="2126" cy="-411.9" rx="45.89" ry="26"/>
<text text-anchor="middle" x="2126" y="-408.2" font-family="Times,serif" font-size="14.00">InList</text>
</a>
</g>
</g>
<!-- Core_InList&#45;&gt;Core_list -->
<g id="edge3" class="edge">
<title>Core_InList&#45;&gt;Core_list</title>
<path fill="none" stroke="black" d="M2091.63,-394.58C2084.85,-391.56 2077.74,-388.53 2071,-385.9 1780.87,-272.66 1419.38,-165.8 1308.14,-133.67"/>
<polygon fill="black" stroke="black" points="1309.05,-130.28 1298.47,-130.88 1307.11,-137.01 1309.05,-130.28"/>
</g>
<!-- Core_repeat -->
<g id="node4" class="node">
<title>Core_repeat</title>
<g id="a_node4"><a xlink:href="Core.html#repeat" xlink:title="repeat">
<ellipse fill="#f070d1" stroke="black" cx="85" cy="-411.9" rx="40.9" ry="18"/>
<ellipse fill="none" stroke="black" cx="85" cy="-411.9" rx="44.9" ry="22"/>
<ellipse fill="none" stroke="black" cx="85" cy="-411.9" rx="48.89" ry="26"/>
<text text-anchor="middle" x="85" y="-408.2" font-family="Times,serif" font-size="14.00">repeat</text>
</a>
</g>
</g>
<!-- Core_cons -->
<g id="node23" class="node">
<title>Core_cons</title>
<g id="a_node23"><a xlink:href="Core.html#cons" xlink:title="cons">
<ellipse fill="#7faaff" stroke="black" cx="602" cy="-122.9" rx="31.7" ry="18"/>
<text text-anchor="middle" x="602" y="-119.2" font-family="Times,serif" font-size="14.00">cons</text>
</a>
</g>
</g>
<!-- Core_repeat&#45;&gt;Core_cons -->
<g id="edge4" class="edge">
<title>Core_repeat&#45;&gt;Core_cons</title>
<path fill="none" stroke="black" d="M118.13,-392.51C212.19,-340.29 479.98,-191.63 571.16,-141.02"/>
<polygon fill="black" stroke="black" points="573.12,-143.93 580.16,-136.02 569.72,-137.81 573.12,-143.93"/>
</g>
<!-- Core_nil -->
<g id="node24" class="node">
<title>Core_nil</title>
<g id="a_node24"><a xlink:href="Core.html#nil" xlink:title="nil">
<ellipse fill="#7faaff" stroke="black" cx="462" cy="-122.9" rx="27" ry="18"/>
<text text-anchor="middle" x="462" y="-119.2" font-family="Times,serif" font-size="14.00">nil</text>
</a>
</g>
</g>
<!-- Core_repeat&#45;&gt;Core_nil -->
<g id="edge5" class="edge">
<title>Core_repeat&#45;&gt;Core_nil</title>
<path fill="none" stroke="black" d="M112.42,-390.03C182.78,-336.46 368.95,-194.74 436.8,-143.08"/>
<polygon fill="black" stroke="black" points="439,-145.8 444.84,-136.96 434.76,-140.23 439,-145.8"/>
</g>
<!-- Core_repeat&#45;&gt;Core_list -->
<g id="edge6" class="edge">
<title>Core_repeat&#45;&gt;Core_list</title>
<path fill="none" stroke="black" d="M121.12,-394.14C128.28,-391.16 135.81,-388.26 143,-385.9 564.27,-247.55 1096.73,-153.5 1238.18,-129.78"/>
<polygon fill="black" stroke="black" points="1238.76,-133.23 1248.05,-128.13 1237.61,-126.32 1238.76,-133.23"/>
</g>
<!-- Core_seq -->
<g id="node5" class="node">
<title>Core_seq</title>
<g id="a_node5"><a xlink:href="Core.html#seq" xlink:title="seq">
<ellipse fill="#f070d1" stroke="black" cx="762" cy="-989.9" rx="27" ry="18"/>
<ellipse fill="none" stroke="black" cx="762" cy="-989.9" rx="31" ry="22"/>
<ellipse fill="none" stroke="black" cx="762" cy="-989.9" rx="35" ry="26"/>
<text text-anchor="middle" x="762" y="-986.2" font-family="Times,serif" font-size="14.00">seq</text>
</a>
</g>
</g>
<!-- Core_seq_rev -->
<g id="node6" class="node">
<title>Core_seq_rev</title>
<g id="a_node6"><a xlink:href="Core.html#seq_rev" xlink:title="seq_rev">
<ellipse fill="#f070d1" stroke="black" cx="730" cy="-411.9" rx="46.29" ry="18"/>
<text text-anchor="middle" x="730" y="-408.2" font-family="Times,serif" font-size="14.00">seq_rev</text>
</a>
</g>
</g>
<!-- Core_seq&#45;&gt;Core_seq_rev -->
<g id="edge7" class="edge">
<title>Core_seq&#45;&gt;Core_seq_rev</title>
<path fill="none" stroke="black" d="M759.53,-963.61C754.95,-915.85 745.14,-809.05 740,-718.9 734.14,-616.13 731.42,-493.73 730.45,-440.22"/>
<polygon fill="black" stroke="black" points="733.95,-440.1 730.27,-430.16 726.95,-440.22 733.95,-440.1"/>
</g>
<!-- Core_reverse -->
<g id="node12" class="node">
<title>Core_reverse</title>
<g id="a_node12"><a xlink:href="Core.html#reverse" xlink:title="reverse">
<ellipse fill="#f070d1" stroke="black" cx="795" cy="-700.9" rx="46.29" ry="18"/>
<text text-anchor="middle" x="795" y="-697.2" font-family="Times,serif" font-size="14.00">reverse</text>
</a>
</g>
</g>
<!-- Core_seq&#45;&gt;Core_reverse -->
<g id="edge8" class="edge">
<title>Core_seq&#45;&gt;Core_reverse</title>
<path fill="none" stroke="black" d="M764.87,-963.93C771.03,-910.36 785.47,-784.75 791.86,-729.18"/>
<polygon fill="black" stroke="black" points="795.36,-729.37 793.03,-719.04 788.41,-728.57 795.36,-729.37"/>
</g>
<!-- Core_seq_rev&#45;&gt;Core_cons -->
<g id="edge9" class="edge">
<title>Core_seq_rev&#45;&gt;Core_cons</title>
<path fill="none" stroke="black" d="M722.38,-393.8C700.8,-345.43 639.24,-207.39 613.51,-149.71"/>
<polygon fill="black" stroke="black" points="616.69,-148.25 609.42,-140.54 610.3,-151.1 616.69,-148.25"/>
</g>
<!-- Core_seq_rev&#45;&gt;Core_nil -->
<g id="edge10" class="edge">
<title>Core_seq_rev&#45;&gt;Core_nil</title>
<path fill="none" stroke="black" d="M714.82,-394.64C669.44,-346.04 534.71,-201.77 482.76,-146.13"/>
<polygon fill="black" stroke="black" points="485.1,-143.5 475.71,-138.58 479.98,-148.28 485.1,-143.5"/>
</g>
<!-- Core_seq_rev&#45;&gt;Core_list -->
<g id="edge11" class="edge">
<title>Core_seq_rev&#45;&gt;Core_list</title>
<path fill="none" stroke="black" d="M756.24,-397.05C847.23,-349.05 1148.87,-189.91 1244.59,-139.42"/>
<polygon fill="black" stroke="black" points="1246.24,-142.5 1253.45,-134.74 1242.97,-136.31 1246.24,-142.5"/>
</g>
<!-- Core_remove_last -->
<g id="node7" class="node">
<title>Core_remove_last</title>
<g id="a_node7"><a xlink:href="Core.html#remove_last" xlink:title="remove_last">
<ellipse fill="#f070d1" stroke="black" cx="869" cy="-411.9" rx="66.89" ry="18"/>
<ellipse fill="none" stroke="black" cx="869" cy="-411.9" rx="70.89" ry="22"/>
<ellipse fill="none" stroke="black" cx="869" cy="-411.9" rx="74.89" ry="26"/>
<text text-anchor="middle" x="869" y="-408.2" font-family="Times,serif" font-size="14.00">remove_last</text>
</a>
</g>
</g>
<!-- Core_remove_last&#45;&gt;Core_cons -->
<g id="edge12" class="edge">
<title>Core_remove_last&#45;&gt;Core_cons</title>
<path fill="none" stroke="black" d="M846.69,-386.92C796.03,-332.46 672.83,-200.03 623.22,-146.71"/>
<polygon fill="black" stroke="black" points="625.55,-144.08 616.18,-139.14 620.43,-148.85 625.55,-144.08"/>
</g>
<!-- Core_remove_last&#45;&gt;Core_nil -->
<g id="edge13" class="edge">
<title>Core_remove_last&#45;&gt;Core_nil</title>
<path fill="none" stroke="black" d="M836.72,-388.14C758.65,-333.08 560.74,-193.53 488.73,-142.74"/>
<polygon fill="black" stroke="black" points="490.39,-139.63 480.2,-136.73 486.35,-145.35 490.39,-139.63"/>
</g>
<!-- Core_remove_last&#45;&gt;Core_list -->
<g id="edge14" class="edge">
<title>Core_remove_last&#45;&gt;Core_list</title>
<path fill="none" stroke="black" d="M901.12,-388.14C978.81,-333.08 1175.74,-193.53 1247.41,-142.74"/>
<polygon fill="black" stroke="black" points="1249.76,-145.37 1255.89,-136.73 1245.71,-139.65 1249.76,-145.37"/>
</g>
<!-- Core_nth -->
<g id="node8" class="node">
<title>Core_nth</title>
<g id="a_node8"><a xlink:href="Core.html#nth" xlink:title="nth">
<ellipse fill="#f070d1" stroke="black" cx="2027" cy="-411.9" rx="27" ry="18"/>
<ellipse fill="none" stroke="black" cx="2027" cy="-411.9" rx="31" ry="22"/>
<ellipse fill="none" stroke="black" cx="2027" cy="-411.9" rx="35" ry="26"/>
<text text-anchor="middle" x="2027" y="-408.2" font-family="Times,serif" font-size="14.00">nth</text>
</a>
</g>
</g>
<!-- Core_nth&#45;&gt;Core_list -->
<g id="edge15" class="edge">
<title>Core_nth&#45;&gt;Core_list</title>
<path fill="none" stroke="black" d="M2000.37,-394.85C1994.73,-391.71 1988.74,-388.56 1983,-385.9 1731.11,-268.74 1410.97,-166.18 1307.72,-134.19"/>
<polygon fill="black" stroke="black" points="1308.72,-130.84 1298.13,-131.23 1306.66,-137.53 1308.72,-130.84"/>
</g>
<!-- Core_last -->
<g id="node9" class="node">
<title>Core_last</title>
<g id="a_node9"><a xlink:href="Core.html#last" xlink:title="last">
<ellipse fill="#f070d1" stroke="black" cx="1938" cy="-411.9" rx="27.91" ry="18"/>
<ellipse fill="none" stroke="black" cx="1938" cy="-411.9" rx="31.9" ry="22"/>
<ellipse fill="none" stroke="black" cx="1938" cy="-411.9" rx="35.9" ry="26"/>
<text text-anchor="middle" x="1938" y="-408.2" font-family="Times,serif" font-size="14.00">last</text>
</a>
</g>
</g>
<!-- Core_last&#45;&gt;Core_list -->
<g id="edge16" class="edge">
<title>Core_last&#45;&gt;Core_list</title>
<path fill="none" stroke="black" d="M1910.16,-394.82C1904.54,-391.75 1898.62,-388.64 1893,-385.9 1673.4,-278.8 1398.96,-171.63 1306.27,-136.15"/>
<polygon fill="black" stroke="black" points="1307.46,-132.86 1296.87,-132.56 1304.97,-139.4 1307.46,-132.86"/>
</g>
<!-- Core_tail -->
<g id="node10" class="node">
<title>Core_tail</title>
<g id="a_node10"><a xlink:href="Core.html#tail" xlink:title="tail">
<ellipse fill="#f070d1" stroke="black" cx="997" cy="-411.9" rx="27" ry="18"/>
<ellipse fill="none" stroke="black" cx="997" cy="-411.9" rx="31" ry="22"/>
<ellipse fill="none" stroke="black" cx="997" cy="-411.9" rx="35" ry="26"/>
<text text-anchor="middle" x="997" y="-408.2" font-family="Times,serif" font-size="14.00">tail</text>
</a>
</g>
</g>
<!-- Core_tail&#45;&gt;Core_nil -->
<g id="edge17" class="edge">
<title>Core_tail&#45;&gt;Core_nil</title>
<path fill="none" stroke="black" d="M969.6,-395.18C964.12,-392.08 958.39,-388.86 953,-385.9 779.32,-290.24 568.56,-179.58 491.79,-139.44"/>
<polygon fill="black" stroke="black" points="493.17,-136.21 482.69,-134.68 489.93,-142.42 493.17,-136.21"/>
</g>
<!-- Core_tail&#45;&gt;Core_list -->
<g id="edge18" class="edge">
<title>Core_tail&#45;&gt;Core_list</title>
<path fill="none" stroke="black" d="M1016.92,-390.26C1067.53,-337.82 1200.69,-199.85 1252.73,-145.94"/>
<polygon fill="black" stroke="black" points="1255.37,-148.24 1259.8,-138.61 1250.34,-143.38 1255.37,-148.24"/>
</g>
<!-- Core_head -->
<g id="node11" class="node">
<title>Core_head</title>
<g id="a_node11"><a xlink:href="Core.html#head" xlink:title="head">
<ellipse fill="#f070d1" stroke="black" cx="1843" cy="-411.9" rx="33.27" ry="18"/>
<ellipse fill="none" stroke="black" cx="1843" cy="-411.9" rx="37.28" ry="22"/>
<ellipse fill="none" stroke="black" cx="1843" cy="-411.9" rx="41.29" ry="26"/>
<text text-anchor="middle" x="1843" y="-408.2" font-family="Times,serif" font-size="14.00">head</text>
</a>
</g>
</g>
<!-- Core_head&#45;&gt;Core_list -->
<g id="edge19" class="edge">
<title>Core_head&#45;&gt;Core_list</title>
<path fill="none" stroke="black" d="M1811.6,-395.06C1711.71,-344.68 1402.17,-188.54 1304.11,-139.09"/>
<polygon fill="black" stroke="black" points="1305.54,-135.89 1295.04,-134.51 1302.39,-142.14 1305.54,-135.89"/>
</g>
<!-- Core_reverse_acc -->
<g id="node13" class="node">
<title>Core_reverse_acc</title>
<g id="a_node13"><a xlink:href="Core.html#reverse_acc" xlink:title="reverse_acc">
<ellipse fill="#f070d1" stroke="black" cx="1206" cy="-411.9" rx="65.79" ry="18"/>
<text text-anchor="middle" x="1206" y="-408.2" font-family="Times,serif" font-size="14.00">reverse_acc</text>
</a>
</g>
</g>
<!-- Core_reverse&#45;&gt;Core_reverse_acc -->
<g id="edge20" class="edge">
<title>Core_reverse&#45;&gt;Core_reverse_acc</title>
<path fill="none" stroke="black" d="M816.52,-684.87C884.43,-637.45 1094.43,-490.8 1174.53,-434.87"/>
<polygon fill="black" stroke="black" points="1177,-437.42 1183.19,-428.82 1172.99,-431.68 1177,-437.42"/>
</g>
<!-- Core_reverse&#45;&gt;Core_nil -->
<g id="edge21" class="edge">
<title>Core_reverse&#45;&gt;Core_nil</title>
<path fill="none" stroke="black" d="M748.68,-700.87C610.51,-700.92 200.17,-679.94 27,-437.9 -90.7,-273.39 304.34,-162.02 426.89,-132.02"/>
<polygon fill="black" stroke="black" points="427.99,-135.36 436.89,-129.61 426.35,-128.55 427.99,-135.36"/>
</g>
<!-- Core_reverse_acc&#45;&gt;Core_cons -->
<g id="edge22" class="edge">
<title>Core_reverse_acc&#45;&gt;Core_cons</title>
<path fill="none" stroke="black" d="M1174.38,-395.87C1070.57,-346.55 740.86,-189.88 635.03,-139.59"/>
<polygon fill="black" stroke="black" points="636.33,-136.33 625.79,-135.2 633.32,-142.66 636.33,-136.33"/>
</g>
<!-- Core_reverse_acc&#45;&gt;Core_list -->
<g id="edge23" class="edge">
<title>Core_reverse_acc&#45;&gt;Core_list</title>
<path fill="none" stroke="black" d="M1210.05,-393.8C1221.44,-345.75 1253.8,-209.17 1267.62,-150.84"/>
<polygon fill="black" stroke="black" points="1271.07,-151.44 1269.97,-140.9 1264.26,-149.82 1271.07,-151.44"/>
</g>
<!-- Core_list_map2 -->
<g id="node14" class="node">
<title>Core_list_map2</title>
<g id="a_node14"><a xlink:href="Core.html#list_map2" xlink:title="list_map2">
<ellipse fill="#f070d1" stroke="black" cx="602" cy="-411.9" rx="55.8" ry="18"/>
<ellipse fill="none" stroke="black" cx="602" cy="-411.9" rx="59.8" ry="22"/>
<ellipse fill="none" stroke="black" cx="602" cy="-411.9" rx="63.79" ry="26"/>
<text text-anchor="middle" x="602" y="-408.2" font-family="Times,serif" font-size="14.00">list_map2</text>
</a>
</g>
</g>
<!-- Core_list_map2&#45;&gt;Core_cons -->
<g id="edge24" class="edge">
<title>Core_list_map2&#45;&gt;Core_cons</title>
<path fill="none" stroke="black" d="M602,-385.68C602,-331.95 602,-206.57 602,-151.12"/>
<polygon fill="black" stroke="black" points="605.5,-151 602,-141 598.5,-151 605.5,-151"/>
</g>
<!-- Core_list_map2&#45;&gt;Core_nil -->
<g id="edge25" class="edge">
<title>Core_list_map2&#45;&gt;Core_nil</title>
<path fill="none" stroke="black" d="M589.94,-386.18C563.6,-332.18 501.14,-204.14 474.45,-149.42"/>
<polygon fill="black" stroke="black" points="477.57,-147.84 470.04,-140.38 471.28,-150.91 477.57,-147.84"/>
</g>
<!-- Core_list_map2&#45;&gt;Core_list -->
<g id="edge26" class="edge">
<title>Core_list_map2&#45;&gt;Core_list</title>
<path fill="none" stroke="black" d="M645.06,-392.51C770.35,-339 1132.75,-184.22 1242.28,-137.44"/>
<polygon fill="black" stroke="black" points="1243.96,-140.53 1251.78,-133.39 1241.21,-134.09 1243.96,-140.53"/>
</g>
<!-- Core_list_map -->
<g id="node15" class="node">
<title>Core_list_map</title>
<g id="a_node15"><a xlink:href="Core.html#list_map" xlink:title="list_map">
<ellipse fill="#f070d1" stroke="black" cx="462" cy="-411.9" rx="50.08" ry="18"/>
<ellipse fill="none" stroke="black" cx="462" cy="-411.9" rx="54.09" ry="22"/>
<ellipse fill="none" stroke="black" cx="462" cy="-411.9" rx="58.09" ry="26"/>
<text text-anchor="middle" x="462" y="-408.2" font-family="Times,serif" font-size="14.00">list_map</text>
</a>
</g>
</g>
<!-- Core_list_map&#45;&gt;Core_cons -->
<g id="edge27" class="edge">
<title>Core_list_map&#45;&gt;Core_cons</title>
<path fill="none" stroke="black" d="M473.94,-386.43C500.2,-332.59 562.77,-204.31 589.52,-149.47"/>
<polygon fill="black" stroke="black" points="592.7,-150.94 593.94,-140.42 586.41,-147.87 592.7,-150.94"/>
</g>
<!-- Core_list_map&#45;&gt;Core_nil -->
<g id="edge28" class="edge">
<title>Core_list_map&#45;&gt;Core_nil</title>
<path fill="none" stroke="black" d="M462,-385.68C462,-331.95 462,-206.57 462,-151.12"/>
<polygon fill="black" stroke="black" points="465.5,-151 462,-141 458.5,-151 465.5,-151"/>
</g>
<!-- Core_list_map&#45;&gt;Core_list -->
<g id="edge29" class="edge">
<title>Core_list_map&#45;&gt;Core_list</title>
<path fill="none" stroke="black" d="M505.56,-394.5C513.36,-391.61 521.41,-388.65 529,-385.9 803.14,-286.56 1135.94,-171.46 1240.75,-135.34"/>
<polygon fill="black" stroke="black" points="1242.14,-138.56 1250.46,-131.99 1239.86,-131.94 1242.14,-138.56"/>
</g>
<!-- Core_fold_right -->
<g id="node16" class="node">
<title>Core_fold_right</title>
<g id="a_node16"><a xlink:href="Core.html#fold_right" xlink:title="fold_right">
<ellipse fill="#f070d1" stroke="black" cx="1720" cy="-411.9" rx="55.8" ry="18"/>
<ellipse fill="none" stroke="black" cx="1720" cy="-411.9" rx="59.8" ry="22"/>
<ellipse fill="none" stroke="black" cx="1720" cy="-411.9" rx="63.79" ry="26"/>
<text text-anchor="middle" x="1720" y="-408.2" font-family="Times,serif" font-size="14.00">fold_right</text>
</a>
</g>
</g>
<!-- Core_fold_right&#45;&gt;Core_list -->
<g id="edge30" class="edge">
<title>Core_fold_right&#45;&gt;Core_list</title>
<path fill="none" stroke="black" d="M1686.84,-389.56C1602.26,-335.13 1379.66,-191.89 1301.56,-141.63"/>
<polygon fill="black" stroke="black" points="1303.07,-138.44 1292.77,-135.98 1299.29,-144.33 1303.07,-138.44"/>
</g>
<!-- Core_fold_left -->
<g id="node17" class="node">
<title>Core_fold_left</title>
<g id="a_node17"><a xlink:href="Core.html#fold_left" xlink:title="fold_left">
<ellipse fill="#f070d1" stroke="black" cx="1582" cy="-411.9" rx="48.18" ry="18"/>
<ellipse fill="none" stroke="black" cx="1582" cy="-411.9" rx="52.18" ry="22"/>
<ellipse fill="none" stroke="black" cx="1582" cy="-411.9" rx="56.19" ry="26"/>
<text text-anchor="middle" x="1582" y="-408.2" font-family="Times,serif" font-size="14.00">fold_left</text>
</a>
</g>
</g>
<!-- Core_fold_left&#45;&gt;Core_list -->
<g id="edge31" class="edge">
<title>Core_fold_left&#45;&gt;Core_list</title>
<path fill="none" stroke="black" d="M1557.83,-388.38C1499.73,-334.23 1352.85,-197.37 1296.5,-144.86"/>
<polygon fill="black" stroke="black" points="1298.86,-142.28 1289.16,-138.03 1294.09,-147.4 1298.86,-142.28"/>
</g>
<!-- Core_app -->
<g id="node18" class="node">
<title>Core_app</title>
<g id="a_node18"><a xlink:href="Core.html#app" xlink:title="app">
<ellipse fill="#f070d1" stroke="black" cx="1086" cy="-411.9" rx="27.91" ry="18"/>
<ellipse fill="none" stroke="black" cx="1086" cy="-411.9" rx="31.9" ry="22"/>
<ellipse fill="none" stroke="black" cx="1086" cy="-411.9" rx="35.9" ry="26"/>
<text text-anchor="middle" x="1086" y="-408.2" font-family="Times,serif" font-size="14.00">app</text>
</a>
</g>
</g>
<!-- Core_app&#45;&gt;Core_cons -->
<g id="edge32" class="edge">
<title>Core_app&#45;&gt;Core_cons</title>
<path fill="none" stroke="black" d="M1058.59,-394.64C974.29,-344.65 719.25,-193.42 631.8,-141.57"/>
<polygon fill="black" stroke="black" points="633.55,-138.54 623.16,-136.45 629.98,-144.56 633.55,-138.54"/>
</g>
<!-- Core_app&#45;&gt;Core_list -->
<g id="edge33" class="edge">
<title>Core_app&#45;&gt;Core_list</title>
<path fill="none" stroke="black" d="M1101.07,-387.9C1135.99,-334.58 1222.21,-202.95 1258.02,-148.3"/>
<polygon fill="black" stroke="black" points="1261.15,-149.9 1263.7,-139.61 1255.3,-146.06 1261.15,-149.9"/>
</g>
<!-- Core_length -->
<g id="node19" class="node">
<title>Core_length</title>
<g id="a_node19"><a xlink:href="Core.html#length" xlink:title="length">
<ellipse fill="#f070d1" stroke="black" cx="1460" cy="-411.9" rx="40.13" ry="18"/>
<ellipse fill="none" stroke="black" cx="1460" cy="-411.9" rx="44.11" ry="22"/>
<ellipse fill="none" stroke="black" cx="1460" cy="-411.9" rx="48.09" ry="26"/>
<text text-anchor="middle" x="1460" y="-408.2" font-family="Times,serif" font-size="14.00">length</text>
</a>
</g>
</g>
<!-- Core_length&#45;&gt;Core_list -->
<g id="edge34" class="edge">
<title>Core_length&#45;&gt;Core_list</title>
<path fill="none" stroke="black" d="M1444.46,-386.92C1409.55,-333.05 1325.2,-202.89 1289.92,-148.47"/>
<polygon fill="black" stroke="black" points="1292.69,-146.3 1284.31,-139.81 1286.82,-150.11 1292.69,-146.3"/>
</g>
<!-- Core_list_rec -->
<g id="node20" class="node">
<title>Core_list_rec</title>
<g id="a_node20"><a xlink:href="Core.html#list_rec" xlink:title="list_rec">
<ellipse fill="#f070d1" stroke="black" cx="1342" cy="-411.9" rx="44.36" ry="18"/>
<ellipse fill="none" stroke="black" cx="1342" cy="-411.9" rx="48.38" ry="22"/>
<ellipse fill="none" stroke="black" cx="1342" cy="-411.9" rx="52.39" ry="26"/>
<text text-anchor="middle" x="1342" y="-408.2" font-family="Times,serif" font-size="14.00">list_rec</text>
</a>
</g>
</g>
<!-- Core_list_rec&#45;&gt;Core_list -->
<g id="edge35" class="edge">
<title>Core_list_rec&#45;&gt;Core_list</title>
<path fill="none" stroke="black" d="M1336.08,-385.93C1323.37,-332.25 1293.51,-206.23 1280.38,-150.83"/>
<polygon fill="black" stroke="black" points="1283.77,-149.96 1278.06,-141.04 1276.96,-151.57 1283.77,-149.96"/>
</g>
<!-- Core_list_ind -->
<g id="node21" class="node">
<title>Core_list_ind</title>
<g id="a_node21"><a xlink:href="Core.html#list_ind" xlink:title="list_ind">
<ellipse fill="#f070d1" stroke="black" cx="334" cy="-411.9" rx="44.36" ry="18"/>
<ellipse fill="none" stroke="black" cx="334" cy="-411.9" rx="48.38" ry="22"/>
<ellipse fill="none" stroke="black" cx="334" cy="-411.9" rx="52.39" ry="26"/>
<text text-anchor="middle" x="334" y="-408.2" font-family="Times,serif" font-size="14.00">list_ind</text>
</a>
</g>
</g>
<!-- Core_list_ind&#45;&gt;Core_cons -->
<g id="edge36" class="edge">
<title>Core_list_ind&#45;&gt;Core_cons</title>
<path fill="none" stroke="black" d="M355.48,-387.9C405.69,-334.12 530.29,-200.69 580.51,-146.91"/>
<polygon fill="black" stroke="black" points="583.37,-148.97 587.64,-139.28 578.25,-144.2 583.37,-148.97"/>
</g>
<!-- Core_list_ind&#45;&gt;Core_nil -->
<g id="edge37" class="edge">
<title>Core_list_ind&#45;&gt;Core_nil</title>
<path fill="none" stroke="black" d="M344.91,-386.43C368.87,-332.7 425.9,-204.84 450.44,-149.81"/>
<polygon fill="black" stroke="black" points="453.75,-150.98 454.63,-140.42 447.36,-148.13 453.75,-150.98"/>
</g>
<!-- Core_list_ind&#45;&gt;Core_list -->
<g id="edge38" class="edge">
<title>Core_list_ind&#45;&gt;Core_list</title>
<path fill="none" stroke="black" d="M372.83,-394.31C380.14,-391.38 387.77,-388.45 395,-385.9 718.59,-271.68 1120.25,-164.1 1239.25,-132.92"/>
<polygon fill="black" stroke="black" points="1240.45,-136.22 1249.24,-130.31 1238.68,-129.45 1240.45,-136.22"/>
</g>
<!-- Core_list_rect -->
<g id="node22" class="node">
<title>Core_list_rect</title>
<g id="a_node22"><a xlink:href="Core.html#list_rect" xlink:title="list_rect">
<ellipse fill="#f070d1" stroke="black" cx="208" cy="-411.9" rx="48.18" ry="18"/>
<ellipse fill="none" stroke="black" cx="208" cy="-411.9" rx="52.18" ry="22"/>
<ellipse fill="none" stroke="black" cx="208" cy="-411.9" rx="56.19" ry="26"/>
<text text-anchor="middle" x="208" y="-408.2" font-family="Times,serif" font-size="14.00">list_rect</text>
</a>
</g>
</g>
<!-- Core_list_rect&#45;&gt;Core_cons -->
<g id="edge39" class="edge">
<title>Core_list_rect&#45;&gt;Core_cons</title>
<path fill="none" stroke="black" d="M237.29,-389.56C311,-335.87 503.38,-195.73 574.79,-143.71"/>
<polygon fill="black" stroke="black" points="577.25,-146.25 583.28,-137.54 573.13,-140.59 577.25,-146.25"/>
</g>
<!-- Core_list_rect&#45;&gt;Core_nil -->
<g id="edge40" class="edge">
<title>Core_list_rect&#45;&gt;Core_nil</title>
<path fill="none" stroke="black" d="M228.79,-387.41C276.79,-333.16 394.88,-199.74 442.06,-146.43"/>
<polygon fill="black" stroke="black" points="444.74,-148.68 448.74,-138.88 439.49,-144.04 444.74,-148.68"/>
</g>
<!-- Core_list_rect&#45;&gt;Core_list -->
<g id="edge41" class="edge">
<title>Core_list_rect&#45;&gt;Core_list</title>
<path fill="none" stroke="black" d="M249.37,-394.2C257.16,-391.28 265.29,-388.38 273,-385.9 645.5,-265.92 1108.91,-160.41 1238.75,-131.62"/>
<polygon fill="black" stroke="black" points="1239.55,-135.03 1248.56,-129.46 1238.04,-128.2 1239.55,-135.03"/>
</g>
</g>
</svg>
