<?xml version="1.0" encoding="UTF-8" standalone="no"?>
<!DOCTYPE svg PUBLIC "-//W3C//DTD SVG 1.1//EN"
 "http://www.w3.org/Graphics/SVG/1.1/DTD/svg11.dtd">
<!-- Generated by graphviz version 2.43.0 (0)
 -->
<!-- Title: HoTT_Truncations_Connectedness Pages: 1 -->
<svg width="3066pt" height="1537pt"
 viewBox="0.00 0.00 3066.00 1537.00" xmlns="http://www.w3.org/2000/svg" xmlns:xlink="http://www.w3.org/1999/xlink">
<g id="graph0" class="graph" transform="scale(1 1) rotate(0) translate(4 1533)">
<title>HoTT_Truncations_Connectedness</title>
<polygon fill="white" stroke="transparent" points="-4,4 -4,-1533 3062,-1533 3062,4 -4,4"/>
<g id="clust1" class="cluster">
<title>cluster_Connectedness</title>
<polygon fill="#ffffc3" stroke="black" points="8,-27.61 8,-1501.39 3050,-1501.39 3050,-27.61 8,-27.61"/>
<text text-anchor="middle" x="70.5" y="-1486.19" font-family="Times,serif" font-size="14.00">Connectedness</text>
</g>
<!-- Connectedness_wedge_incl_elim_uncurried -->
<g id="node1" class="node">
<title>Connectedness_wedge_incl_elim_uncurried</title>
<g id="a_node1"><a xlink:href="Connectedness.html#wedge_incl_elim_uncurried" xlink:title="wedge_incl_elim_uncurried">
<ellipse fill="#f070d1" stroke="black" cx="2898" cy="-1000.61" rx="135.69" ry="18"/>
<ellipse fill="none" stroke="black" cx="2898" cy="-1000.61" rx="139.68" ry="22"/>
<ellipse fill="none" stroke="black" cx="2898" cy="-1000.61" rx="143.68" ry="26"/>
<text text-anchor="middle" x="2898" y="-996.91" font-family="Times,serif" font-size="14.00">wedge_incl_elim_uncurried</text>
</a>
</g>
</g>
<!-- Connectedness_wedge_incl_elim -->
<g id="node5" class="node">
<title>Connectedness_wedge_incl_elim</title>
<g id="a_node5"><a xlink:href="Connectedness.html#wedge_incl_elim" xlink:title="wedge_incl_elim">
<ellipse fill="#f070d1" stroke="black" cx="2639" cy="-697.61" rx="86.38" ry="18"/>
<text text-anchor="middle" x="2639" y="-693.91" font-family="Times,serif" font-size="14.00">wedge_incl_elim</text>
</a>
</g>
</g>
<!-- Connectedness_wedge_incl_elim_uncurried&#45;&gt;Connectedness_wedge_incl_elim -->
<g id="edge1" class="edge">
<title>Connectedness_wedge_incl_elim_uncurried&#45;&gt;Connectedness_wedge_incl_elim</title>
<path fill="none" stroke="black" d="M2876.58,-974.72C2827.84,-918.07 2709.06,-780.03 2660.36,-723.44"/>
<polygon fill="black" stroke="black" points="2662.88,-720.99 2653.7,-715.7 2657.57,-725.56 2662.88,-720.99"/>
</g>
<!-- Connectedness_wedge_incl_comp3 -->
<g id="node2" class="node">
<title>Connectedness_wedge_incl_comp3</title>
<g id="a_node2"><a xlink:href="Connectedness.html#wedge_incl_comp3" xlink:title="wedge_incl_comp3">
<ellipse fill="#f070d1" stroke="black" cx="2937" cy="-1304.61" rx="96.7" ry="18"/>
<ellipse fill="none" stroke="black" cx="2937" cy="-1304.61" rx="100.69" ry="22"/>
<ellipse fill="none" stroke="black" cx="2937" cy="-1304.61" rx="104.68" ry="26"/>
<text text-anchor="middle" x="2937" y="-1300.91" font-family="Times,serif" font-size="14.00">wedge_incl_comp3</text>
</a>
</g>
</g>
<!-- Connectedness_wedge_incl_comp2 -->
<g id="node3" class="node">
<title>Connectedness_wedge_incl_comp2</title>
<g id="a_node3"><a xlink:href="Connectedness.html#wedge_incl_comp2" xlink:title="wedge_incl_comp2">
<ellipse fill="#f070d1" stroke="black" cx="2427" cy="-1000.61" rx="96.68" ry="18"/>
<text text-anchor="middle" x="2427" y="-996.91" font-family="Times,serif" font-size="14.00">wedge_incl_comp2</text>
</a>
</g>
</g>
<!-- Connectedness_wedge_incl_comp3&#45;&gt;Connectedness_wedge_incl_comp2 -->
<g id="edge2" class="edge">
<title>Connectedness_wedge_incl_comp3&#45;&gt;Connectedness_wedge_incl_comp2</title>
<path fill="none" stroke="black" d="M2897.83,-1280.42C2801.89,-1223.61 2556.25,-1078.15 2463.34,-1023.13"/>
<polygon fill="black" stroke="black" points="2464.96,-1020.03 2454.58,-1017.94 2461.4,-1026.05 2464.96,-1020.03"/>
</g>
<!-- Connectedness_wedge_incl_comp1 -->
<g id="node4" class="node">
<title>Connectedness_wedge_incl_comp1</title>
<g id="a_node4"><a xlink:href="Connectedness.html#wedge_incl_comp1" xlink:title="wedge_incl_comp1">
<ellipse fill="#f070d1" stroke="black" cx="2639" cy="-1000.61" rx="96.68" ry="18"/>
<text text-anchor="middle" x="2639" y="-996.91" font-family="Times,serif" font-size="14.00">wedge_incl_comp1</text>
</a>
</g>
</g>
<!-- Connectedness_wedge_incl_comp3&#45;&gt;Connectedness_wedge_incl_comp1 -->
<g id="edge3" class="edge">
<title>Connectedness_wedge_incl_comp3&#45;&gt;Connectedness_wedge_incl_comp1</title>
<path fill="none" stroke="black" d="M2912.87,-1279.15C2856.89,-1222.42 2718.74,-1082.42 2662.94,-1025.88"/>
<polygon fill="black" stroke="black" points="2665.15,-1023.13 2655.64,-1018.47 2660.17,-1028.05 2665.15,-1023.13"/>
</g>
<!-- Connectedness_wedge_incl_comp2&#45;&gt;Connectedness_wedge_incl_elim -->
<g id="edge4" class="edge">
<title>Connectedness_wedge_incl_comp2&#45;&gt;Connectedness_wedge_incl_elim</title>
<path fill="none" stroke="black" d="M2439.01,-982.57C2474.5,-932.17 2579.07,-783.7 2621.16,-723.95"/>
<polygon fill="black" stroke="black" points="2624.23,-725.66 2627.13,-715.47 2618.51,-721.63 2624.23,-725.66"/>
</g>
<!-- Connectedness_wedge_incl_comp1&#45;&gt;Connectedness_wedge_incl_elim -->
<g id="edge5" class="edge">
<title>Connectedness_wedge_incl_comp1&#45;&gt;Connectedness_wedge_incl_elim</title>
<path fill="none" stroke="black" d="M2639,-982.57C2639,-932.71 2639,-786.82 2639,-725.86"/>
<polygon fill="black" stroke="black" points="2642.5,-725.84 2639,-715.84 2635.5,-725.84 2642.5,-725.84"/>
</g>
<!-- Connectedness_isconn_wedge_incl -->
<g id="node6" class="node">
<title>Connectedness_isconn_wedge_incl</title>
<g id="a_node6"><a xlink:href="Connectedness.html#isconn_wedge_incl" xlink:title="isconn_wedge_incl">
<ellipse fill="#f070d1" stroke="black" cx="2639" cy="-393.61" rx="96.38" ry="18"/>
<text text-anchor="middle" x="2639" y="-389.91" font-family="Times,serif" font-size="14.00">isconn_wedge_incl</text>
</a>
</g>
</g>
<!-- Connectedness_wedge_incl_elim&#45;&gt;Connectedness_isconn_wedge_incl -->
<g id="edge6" class="edge">
<title>Connectedness_wedge_incl_elim&#45;&gt;Connectedness_isconn_wedge_incl</title>
<path fill="none" stroke="black" d="M2639,-679.51C2639,-629.48 2639,-483.11 2639,-421.95"/>
<polygon fill="black" stroke="black" points="2642.5,-421.9 2639,-411.9 2635.5,-421.9 2642.5,-421.9"/>
</g>
<!-- Connectedness_conn_point_incl -->
<g id="node26" class="node">
<title>Connectedness_conn_point_incl</title>
<g id="a_node26"><a xlink:href="Connectedness.html#conn_point_incl" xlink:title="conn_point_incl">
<ellipse fill="#f070d1" stroke="black" cx="2763" cy="-117.61" rx="81.79" ry="18"/>
<text text-anchor="middle" x="2763" y="-113.91" font-family="Times,serif" font-size="14.00">conn_point_incl</text>
</a>
</g>
</g>
<!-- Connectedness_isconn_wedge_incl&#45;&gt;Connectedness_conn_point_incl -->
<g id="edge7" class="edge">
<title>Connectedness_isconn_wedge_incl&#45;&gt;Connectedness_conn_point_incl</title>
<path fill="none" stroke="black" d="M2646.76,-375.47C2667.76,-329.05 2725.87,-200.66 2751.08,-144.96"/>
<polygon fill="black" stroke="black" points="2754.31,-146.3 2755.25,-135.75 2747.93,-143.41 2754.31,-146.3"/>
</g>
<!-- Connectedness_istrunc_extension_along_conn -->
<g id="node32" class="node">
<title>Connectedness_istrunc_extension_along_conn</title>
<g id="a_node32"><a xlink:href="Connectedness.html#istrunc_extension_along_conn" xlink:title="istrunc_extension_along_conn">
<ellipse fill="#f070d1" stroke="black" cx="2514" cy="-117.61" rx="148.67" ry="18"/>
<text text-anchor="middle" x="2514" y="-113.91" font-family="Times,serif" font-size="14.00">istrunc_extension_along_conn</text>
</a>
</g>
</g>
<!-- Connectedness_isconn_wedge_incl&#45;&gt;Connectedness_istrunc_extension_along_conn -->
<g id="edge8" class="edge">
<title>Connectedness_isconn_wedge_incl&#45;&gt;Connectedness_istrunc_extension_along_conn</title>
<path fill="none" stroke="black" d="M2631.18,-375.47C2610,-329.05 2551.43,-200.66 2526.02,-144.96"/>
<polygon fill="black" stroke="black" points="2529.15,-143.39 2521.82,-135.75 2522.78,-146.3 2529.15,-143.39"/>
</g>
<!-- Connectedness_isconnected_trunc -->
<g id="node7" class="node">
<title>Connectedness_isconnected_trunc</title>
<g id="a_node7"><a xlink:href="Connectedness.html#isconnected_trunc" xlink:title="isconnected_trunc">
<ellipse fill="#f070d1" stroke="black" cx="2711" cy="-1304.61" rx="94.79" ry="18"/>
<ellipse fill="none" stroke="black" cx="2711" cy="-1304.61" rx="98.79" ry="22"/>
<ellipse fill="none" stroke="black" cx="2711" cy="-1304.61" rx="102.78" ry="26"/>
<text text-anchor="middle" x="2711" y="-1300.91" font-family="Times,serif" font-size="14.00">isconnected_trunc</text>
</a>
</g>
</g>
<!-- Connectedness_indecomposable_0connected -->
<g id="node8" class="node">
<title>Connectedness_indecomposable_0connected</title>
<g id="a_node8"><a xlink:href="Connectedness.html#indecomposable_0connected" xlink:title="indecomposable_0connected">
<ellipse fill="#f070d1" stroke="black" cx="1323" cy="-697.61" rx="142.98" ry="18"/>
<ellipse fill="none" stroke="black" cx="1323" cy="-697.61" rx="146.97" ry="22"/>
<ellipse fill="none" stroke="black" cx="1323" cy="-697.61" rx="150.97" ry="26"/>
<text text-anchor="middle" x="1323" y="-693.91" font-family="Times,serif" font-size="14.00">indecomposable_0connected</text>
</a>
</g>
</g>
<!-- Connectedness_merely_path_is0connected -->
<g id="node13" class="node">
<title>Connectedness_merely_path_is0connected</title>
<g id="a_node13"><a xlink:href="Connectedness.html#merely_path_is0connected" xlink:title="merely_path_is0connected">
<ellipse fill="#f070d1" stroke="black" cx="1304" cy="-393.61" rx="133.78" ry="18"/>
<text text-anchor="middle" x="1304" y="-389.91" font-family="Times,serif" font-size="14.00">merely_path_is0connected</text>
</a>
</g>
</g>
<!-- Connectedness_indecomposable_0connected&#45;&gt;Connectedness_merely_path_is0connected -->
<g id="edge9" class="edge">
<title>Connectedness_indecomposable_0connected&#45;&gt;Connectedness_merely_path_is0connected</title>
<path fill="none" stroke="black" d="M1321.41,-671.38C1317.88,-615.18 1309.38,-480.07 1305.72,-421.95"/>
<polygon fill="black" stroke="black" points="1309.2,-421.48 1305.08,-411.72 1302.21,-421.92 1309.2,-421.48"/>
</g>
<!-- Connectedness_isconnected_pred -->
<g id="node23" class="node">
<title>Connectedness_isconnected_pred</title>
<g id="a_node23"><a xlink:href="Connectedness.html#isconnected_pred" xlink:title="isconnected_pred">
<ellipse fill="#f070d1" stroke="black" cx="1041" cy="-393.61" rx="91.78" ry="18"/>
<text text-anchor="middle" x="1041" y="-389.91" font-family="Times,serif" font-size="14.00">isconnected_pred</text>
</a>
</g>
</g>
<!-- Connectedness_indecomposable_0connected&#45;&gt;Connectedness_isconnected_pred -->
<g id="edge10" class="edge">
<title>Connectedness_indecomposable_0connected&#45;&gt;Connectedness_isconnected_pred</title>
<path fill="none" stroke="black" d="M1299.92,-671.9C1246.78,-614.99 1116.29,-475.25 1063.61,-418.82"/>
<polygon fill="black" stroke="black" points="1066.09,-416.35 1056.71,-411.43 1060.97,-421.13 1066.09,-416.35"/>
</g>
<!-- Connectedness_equiv_component_image_unit -->
<g id="node9" class="node">
<title>Connectedness_equiv_component_image_unit</title>
<g id="a_node9"><a xlink:href="Connectedness.html#equiv_component_image_unit" xlink:title="equiv_component_image_unit">
<ellipse fill="#f070d1" stroke="black" cx="2435" cy="-1304.61" rx="147.57" ry="18"/>
<ellipse fill="none" stroke="black" cx="2435" cy="-1304.61" rx="151.57" ry="22"/>
<ellipse fill="none" stroke="black" cx="2435" cy="-1304.61" rx="155.57" ry="26"/>
<text text-anchor="middle" x="2435" y="-1300.91" font-family="Times,serif" font-size="14.00">equiv_component_image_unit</text>
</a>
</g>
</g>
<!-- Connectedness_merely_path_component -->
<g id="node10" class="node">
<title>Connectedness_merely_path_component</title>
<g id="a_node10"><a xlink:href="Connectedness.html#merely_path_component" xlink:title="merely_path_component">
<ellipse fill="#f070d1" stroke="black" cx="2129" cy="-1304.61" rx="124.27" ry="18"/>
<ellipse fill="none" stroke="black" cx="2129" cy="-1304.61" rx="128.27" ry="22"/>
<ellipse fill="none" stroke="black" cx="2129" cy="-1304.61" rx="132.28" ry="26"/>
<text text-anchor="middle" x="2129" y="-1300.91" font-family="Times,serif" font-size="14.00">merely_path_component</text>
</a>
</g>
</g>
<!-- Connectedness_is0connected_component -->
<g id="node11" class="node">
<title>Connectedness_is0connected_component</title>
<g id="a_node11"><a xlink:href="Connectedness.html#is0connected_component" xlink:title="is0connected_component">
<ellipse fill="#f070d1" stroke="black" cx="1843" cy="-1304.61" rx="127.28" ry="18"/>
<ellipse fill="none" stroke="black" cx="1843" cy="-1304.61" rx="131.28" ry="22"/>
<ellipse fill="none" stroke="black" cx="1843" cy="-1304.61" rx="135.28" ry="26"/>
<text text-anchor="middle" x="1843" y="-1300.91" font-family="Times,serif" font-size="14.00">is0connected_component</text>
</a>
</g>
</g>
<!-- Connectedness_is0connected_merely_allpath -->
<g id="node12" class="node">
<title>Connectedness_is0connected_merely_allpath</title>
<g id="a_node12"><a xlink:href="Connectedness.html#is0connected_merely_allpath" xlink:title="is0connected_merely_allpath">
<ellipse fill="#f070d1" stroke="black" cx="737" cy="-1304.61" rx="144.88" ry="18"/>
<ellipse fill="none" stroke="black" cx="737" cy="-1304.61" rx="148.88" ry="22"/>
<ellipse fill="none" stroke="black" cx="737" cy="-1304.61" rx="152.87" ry="26"/>
<text text-anchor="middle" x="737" y="-1300.91" font-family="Times,serif" font-size="14.00">is0connected_merely_allpath</text>
</a>
</g>
</g>
<!-- Connectedness_isconnected_isconnected_allpath -->
<g id="node29" class="node">
<title>Connectedness_isconnected_isconnected_allpath</title>
<g id="a_node29"><a xlink:href="Connectedness.html#isconnected_isconnected_allpath" xlink:title="isconnected_isconnected_allpath">
<ellipse fill="#f070d1" stroke="black" cx="345" cy="-1000.61" rx="161.67" ry="18"/>
<text text-anchor="middle" x="345" y="-996.91" font-family="Times,serif" font-size="14.00">isconnected_isconnected_allpath</text>
</a>
</g>
</g>
<!-- Connectedness_is0connected_merely_allpath&#45;&gt;Connectedness_isconnected_isconnected_allpath -->
<g id="edge11" class="edge">
<title>Connectedness_is0connected_merely_allpath&#45;&gt;Connectedness_isconnected_isconnected_allpath</title>
<path fill="none" stroke="black" d="M705.25,-1279.15C631.16,-1222.08 447.65,-1080.7 375.16,-1024.85"/>
<polygon fill="black" stroke="black" points="376.94,-1021.8 366.88,-1018.47 372.67,-1027.35 376.94,-1021.8"/>
</g>
<!-- Connectedness_isconnected_paths -->
<g id="node31" class="node">
<title>Connectedness_isconnected_paths</title>
<g id="a_node31"><a xlink:href="Connectedness.html#isconnected_paths" xlink:title="isconnected_paths">
<ellipse fill="#f070d1" stroke="black" cx="714" cy="-117.61" rx="96.38" ry="18"/>
<text text-anchor="middle" x="714" y="-113.91" font-family="Times,serif" font-size="14.00">isconnected_paths</text>
</a>
</g>
</g>
<!-- Connectedness_merely_path_is0connected&#45;&gt;Connectedness_isconnected_paths -->
<g id="edge12" class="edge">
<title>Connectedness_merely_path_is0connected&#45;&gt;Connectedness_isconnected_paths</title>
<path fill="none" stroke="black" d="M1268.42,-376.09C1165.78,-328.42 869.34,-190.75 757.45,-138.79"/>
<polygon fill="black" stroke="black" points="758.69,-135.51 748.14,-134.47 755.74,-141.85 758.69,-135.51"/>
</g>
<!-- Connectedness_isconnmap_minus_two -->
<g id="node14" class="node">
<title>Connectedness_isconnmap_minus_two</title>
<g id="a_node14"><a xlink:href="Connectedness.html#isconnmap_minus_two" xlink:title="isconnmap_minus_two">
<ellipse fill="#f070d1" stroke="black" cx="1567" cy="-1304.61" rx="114.29" ry="18"/>
<ellipse fill="none" stroke="black" cx="1567" cy="-1304.61" rx="118.28" ry="22"/>
<ellipse fill="none" stroke="black" cx="1567" cy="-1304.61" rx="122.28" ry="26"/>
<text text-anchor="middle" x="1567" y="-1300.91" font-family="Times,serif" font-size="14.00">isconnmap_minus_two</text>
</a>
</g>
</g>
<!-- Connectedness_isconnected_minus_two -->
<g id="node15" class="node">
<title>Connectedness_isconnected_minus_two</title>
<g id="a_node15"><a xlink:href="Connectedness.html#isconnected_minus_two" xlink:title="isconnected_minus_two">
<ellipse fill="#f070d1" stroke="black" cx="1567" cy="-1000.61" rx="120.48" ry="18"/>
<text text-anchor="middle" x="1567" y="-996.91" font-family="Times,serif" font-size="14.00">isconnected_minus_two</text>
</a>
</g>
</g>
<!-- Connectedness_isconnmap_minus_two&#45;&gt;Connectedness_isconnected_minus_two -->
<g id="edge13" class="edge">
<title>Connectedness_isconnmap_minus_two&#45;&gt;Connectedness_isconnected_minus_two</title>
<path fill="none" stroke="black" d="M1567,-1278.38C1567,-1222.18 1567,-1087.07 1567,-1028.95"/>
<polygon fill="black" stroke="black" points="1570.5,-1028.72 1567,-1018.72 1563.5,-1028.72 1570.5,-1028.72"/>
</g>
<!-- Connectedness_isconnmap_pred_add -->
<g id="node16" class="node">
<title>Connectedness_isconnmap_pred_add</title>
<g id="a_node16"><a xlink:href="Connectedness.html#isconnmap_pred_add" xlink:title="isconnmap_pred_add">
<ellipse fill="#f070d1" stroke="black" cx="1291" cy="-1000.61" rx="107.79" ry="18"/>
<ellipse fill="none" stroke="black" cx="1291" cy="-1000.61" rx="111.78" ry="22"/>
<ellipse fill="none" stroke="black" cx="1291" cy="-1000.61" rx="115.78" ry="26"/>
<text text-anchor="middle" x="1291" y="-996.91" font-family="Times,serif" font-size="14.00">isconnmap_pred_add</text>
</a>
</g>
</g>
<!-- Connectedness_isconnected_pred_add -->
<g id="node21" class="node">
<title>Connectedness_isconnected_pred_add</title>
<g id="a_node21"><a xlink:href="Connectedness.html#isconnected_pred_add" xlink:title="isconnected_pred_add">
<ellipse fill="#f070d1" stroke="black" cx="1041" cy="-697.61" rx="113.18" ry="18"/>
<text text-anchor="middle" x="1041" y="-693.91" font-family="Times,serif" font-size="14.00">isconnected_pred_add</text>
</a>
</g>
</g>
<!-- Connectedness_isconnmap_pred_add&#45;&gt;Connectedness_isconnected_pred_add -->
<g id="edge14" class="edge">
<title>Connectedness_isconnmap_pred_add&#45;&gt;Connectedness_isconnected_pred_add</title>
<path fill="none" stroke="black" d="M1270.54,-974.98C1223.64,-918.51 1108.77,-780.2 1061.66,-723.49"/>
<polygon fill="black" stroke="black" points="1064.3,-721.19 1055.22,-715.74 1058.92,-725.66 1064.3,-721.19"/>
</g>
<!-- Connectedness_isconnmap_pred_ -->
<g id="node17" class="node">
<title>Connectedness_isconnmap_pred_</title>
<g id="a_node17"><a xlink:href="Connectedness.html#isconnmap_pred'" xlink:title="isconnmap_pred&#39;">
<ellipse fill="#f070d1" stroke="black" cx="810" cy="-1000.61" rx="89.08" ry="18"/>
<ellipse fill="none" stroke="black" cx="810" cy="-1000.61" rx="93.08" ry="22"/>
<ellipse fill="none" stroke="black" cx="810" cy="-1000.61" rx="97.08" ry="26"/>
<text text-anchor="middle" x="810" y="-996.91" font-family="Times,serif" font-size="14.00">isconnmap_pred&#39;</text>
</a>
</g>
</g>
<!-- Connectedness_isconnected_pred_ -->
<g id="node22" class="node">
<title>Connectedness_isconnected_pred_</title>
<g id="a_node22"><a xlink:href="Connectedness.html#isconnected_pred'" xlink:title="isconnected_pred&#39;">
<ellipse fill="#f070d1" stroke="black" cx="816" cy="-697.61" rx="94.48" ry="18"/>
<text text-anchor="middle" x="816" y="-693.91" font-family="Times,serif" font-size="14.00">isconnected_pred&#39;</text>
</a>
</g>
</g>
<!-- Connectedness_isconnmap_pred_&#45;&gt;Connectedness_isconnected_pred_ -->
<g id="edge15" class="edge">
<title>Connectedness_isconnmap_pred_&#45;&gt;Connectedness_isconnected_pred_</title>
<path fill="none" stroke="black" d="M810.5,-974.47C811.62,-918.45 814.3,-783.79 815.46,-725.86"/>
<polygon fill="black" stroke="black" points="818.96,-725.73 815.66,-715.66 811.96,-725.59 818.96,-725.73"/>
</g>
<!-- Connectedness_is0connected_isconnected -->
<g id="node18" class="node">
<title>Connectedness_is0connected_isconnected</title>
<g id="a_node18"><a xlink:href="Connectedness.html#is0connected_isconnected" xlink:title="is0connected_isconnected">
<ellipse fill="#f070d1" stroke="black" cx="1287" cy="-1304.61" rx="131.09" ry="18"/>
<ellipse fill="none" stroke="black" cx="1287" cy="-1304.61" rx="135.08" ry="22"/>
<ellipse fill="none" stroke="black" cx="1287" cy="-1304.61" rx="139.08" ry="26"/>
<text text-anchor="middle" x="1287" y="-1300.91" font-family="Times,serif" font-size="14.00">is0connected_isconnected</text>
</a>
</g>
</g>
<!-- Connectedness_isconnected_pred_add_ -->
<g id="node20" class="node">
<title>Connectedness_isconnected_pred_add_</title>
<g id="a_node20"><a xlink:href="Connectedness.html#isconnected_pred_add'" xlink:title="isconnected_pred_add&#39;">
<ellipse fill="#f070d1" stroke="black" cx="1041" cy="-1000.61" rx="115.88" ry="18"/>
<text text-anchor="middle" x="1041" y="-996.91" font-family="Times,serif" font-size="14.00">isconnected_pred_add&#39;</text>
</a>
</g>
</g>
<!-- Connectedness_is0connected_isconnected&#45;&gt;Connectedness_isconnected_pred_add_ -->
<g id="edge16" class="edge">
<title>Connectedness_is0connected_isconnected&#45;&gt;Connectedness_isconnected_pred_add_</title>
<path fill="none" stroke="black" d="M1266.66,-1278.64C1220.36,-1221.8 1107.54,-1083.3 1061.29,-1026.52"/>
<polygon fill="black" stroke="black" points="1063.99,-1024.3 1054.96,-1018.75 1058.57,-1028.72 1063.99,-1024.3"/>
</g>
<!-- Connectedness_merely_isconnected -->
<g id="node19" class="node">
<title>Connectedness_merely_isconnected</title>
<g id="a_node19"><a xlink:href="Connectedness.html#merely_isconnected" xlink:title="merely_isconnected">
<ellipse fill="#f070d1" stroke="black" cx="1019" cy="-1304.61" rx="102.87" ry="18"/>
<ellipse fill="none" stroke="black" cx="1019" cy="-1304.61" rx="106.88" ry="22"/>
<ellipse fill="none" stroke="black" cx="1019" cy="-1304.61" rx="110.88" ry="26"/>
<text text-anchor="middle" x="1019" y="-1300.91" font-family="Times,serif" font-size="14.00">merely_isconnected</text>
</a>
</g>
</g>
<!-- Connectedness_merely_isconnected&#45;&gt;Connectedness_isconnected_pred_add_ -->
<g id="edge17" class="edge">
<title>Connectedness_merely_isconnected&#45;&gt;Connectedness_isconnected_pred_add_</title>
<path fill="none" stroke="black" d="M1020.84,-1278.38C1024.93,-1222.18 1034.77,-1087.07 1039.01,-1028.95"/>
<polygon fill="black" stroke="black" points="1042.52,-1028.94 1039.75,-1018.72 1035.54,-1028.43 1042.52,-1028.94"/>
</g>
<!-- Connectedness_isconnected_pred_add_&#45;&gt;Connectedness_isconnected_pred_add -->
<g id="edge18" class="edge">
<title>Connectedness_isconnected_pred_add_&#45;&gt;Connectedness_isconnected_pred_add</title>
<path fill="none" stroke="black" d="M1041,-982.57C1041,-932.71 1041,-786.82 1041,-725.86"/>
<polygon fill="black" stroke="black" points="1044.5,-725.84 1041,-715.84 1037.5,-725.84 1044.5,-725.84"/>
</g>
<!-- Connectedness_isconnected_pred_add&#45;&gt;Connectedness_isconnected_pred -->
<g id="edge19" class="edge">
<title>Connectedness_isconnected_pred_add&#45;&gt;Connectedness_isconnected_pred</title>
<path fill="none" stroke="black" d="M1041,-679.51C1041,-629.48 1041,-483.11 1041,-421.95"/>
<polygon fill="black" stroke="black" points="1044.5,-421.9 1041,-411.9 1037.5,-421.9 1044.5,-421.9"/>
</g>
<!-- Connectedness_isconnected_pred_&#45;&gt;Connectedness_isconnected_pred -->
<g id="edge20" class="edge">
<title>Connectedness_isconnected_pred_&#45;&gt;Connectedness_isconnected_pred</title>
<path fill="none" stroke="black" d="M828.74,-679.51C866.49,-628.85 977.85,-479.37 1022.34,-419.66"/>
<polygon fill="black" stroke="black" points="1025.23,-421.64 1028.4,-411.53 1019.62,-417.45 1025.23,-421.64"/>
</g>
<!-- Connectedness_conn_point_elim_comp -->
<g id="node24" class="node">
<title>Connectedness_conn_point_elim_comp</title>
<g id="a_node24"><a xlink:href="Connectedness.html#conn_point_elim_comp" xlink:title="conn_point_elim_comp">
<ellipse fill="#f070d1" stroke="black" cx="581" cy="-697.61" rx="114.29" ry="18"/>
<ellipse fill="none" stroke="black" cx="581" cy="-697.61" rx="118.28" ry="22"/>
<ellipse fill="none" stroke="black" cx="581" cy="-697.61" rx="122.28" ry="26"/>
<text text-anchor="middle" x="581" y="-693.91" font-family="Times,serif" font-size="14.00">conn_point_elim_comp</text>
</a>
</g>
</g>
<!-- Connectedness_conn_point_elim -->
<g id="node25" class="node">
<title>Connectedness_conn_point_elim</title>
<g id="a_node25"><a xlink:href="Connectedness.html#conn_point_elim" xlink:title="conn_point_elim">
<ellipse fill="#f070d1" stroke="black" cx="714" cy="-393.61" rx="85.29" ry="18"/>
<text text-anchor="middle" x="714" y="-389.91" font-family="Times,serif" font-size="14.00">conn_point_elim</text>
</a>
</g>
</g>
<!-- Connectedness_conn_point_elim_comp&#45;&gt;Connectedness_conn_point_elim -->
<g id="edge21" class="edge">
<title>Connectedness_conn_point_elim_comp&#45;&gt;Connectedness_conn_point_elim</title>
<path fill="none" stroke="black" d="M592,-671.64C616.82,-615.27 677.03,-478.56 702.41,-420.93"/>
<polygon fill="black" stroke="black" points="705.62,-422.32 706.45,-411.75 699.22,-419.5 705.62,-422.32"/>
</g>
<!-- Connectedness_conn_point_elim&#45;&gt;Connectedness_isconnected_paths -->
<g id="edge22" class="edge">
<title>Connectedness_conn_point_elim&#45;&gt;Connectedness_isconnected_paths</title>
<path fill="none" stroke="black" d="M714,-375.47C714,-329.34 714,-202.25 714,-146"/>
<polygon fill="black" stroke="black" points="717.5,-145.75 714,-135.75 710.5,-145.75 717.5,-145.75"/>
</g>
<!-- Connectedness_conn_pointed_type -->
<g id="node27" class="node">
<title>Connectedness_conn_pointed_type</title>
<g id="a_node27"><a xlink:href="Connectedness.html#conn_pointed_type" xlink:title="conn_pointed_type">
<ellipse fill="#f070d1" stroke="black" cx="461" cy="-1304.61" rx="96.7" ry="18"/>
<ellipse fill="none" stroke="black" cx="461" cy="-1304.61" rx="100.69" ry="22"/>
<ellipse fill="none" stroke="black" cx="461" cy="-1304.61" rx="104.68" ry="26"/>
<text text-anchor="middle" x="461" y="-1300.91" font-family="Times,serif" font-size="14.00">conn_pointed_type</text>
</a>
</g>
</g>
<!-- Connectedness_isconnmap_isconnmap_ap_surj -->
<g id="node28" class="node">
<title>Connectedness_isconnmap_isconnmap_ap_surj</title>
<g id="a_node28"><a xlink:href="Connectedness.html#isconnmap_isconnmap_ap_surj" xlink:title="isconnmap_isconnmap_ap_surj">
<ellipse fill="#f070d1" stroke="black" cx="177" cy="-1304.61" rx="152.96" ry="18"/>
<ellipse fill="none" stroke="black" cx="177" cy="-1304.61" rx="156.97" ry="22"/>
<ellipse fill="none" stroke="black" cx="177" cy="-1304.61" rx="160.97" ry="26"/>
<text text-anchor="middle" x="177" y="-1300.91" font-family="Times,serif" font-size="14.00">isconnmap_isconnmap_ap_surj</text>
</a>
</g>
</g>
<!-- Connectedness_isconnmap_isconnmap_ap_surj&#45;&gt;Connectedness_isconnected_isconnected_allpath -->
<g id="edge23" class="edge">
<title>Connectedness_isconnmap_isconnmap_ap_surj&#45;&gt;Connectedness_isconnected_isconnected_allpath</title>
<path fill="none" stroke="black" d="M190.89,-1278.64C222.32,-1222.15 298.61,-1085 330.56,-1027.58"/>
<polygon fill="black" stroke="black" points="333.66,-1029.19 335.46,-1018.75 327.54,-1025.79 333.66,-1029.19"/>
</g>
<!-- Connectedness_isconnmap_ap_isconnmap -->
<g id="node30" class="node">
<title>Connectedness_isconnmap_ap_isconnmap</title>
<g id="a_node30"><a xlink:href="Connectedness.html#isconnmap_ap_isconnmap" xlink:title="isconnmap_ap_isconnmap">
<ellipse fill="#f070d1" stroke="black" cx="473" cy="-393.61" rx="129.98" ry="18"/>
<ellipse fill="none" stroke="black" cx="473" cy="-393.61" rx="133.98" ry="22"/>
<ellipse fill="none" stroke="black" cx="473" cy="-393.61" rx="137.98" ry="26"/>
<text text-anchor="middle" x="473" y="-389.91" font-family="Times,serif" font-size="14.00">isconnmap_ap_isconnmap</text>
</a>
</g>
</g>
<!-- Connectedness_isconnmap_ap_isconnmap&#45;&gt;Connectedness_isconnected_paths -->
<g id="edge24" class="edge">
<title>Connectedness_isconnmap_ap_isconnmap&#45;&gt;Connectedness_isconnected_paths</title>
<path fill="none" stroke="black" d="M494.81,-367.81C540.68,-315.67 646.63,-195.21 692.35,-143.23"/>
<polygon fill="black" stroke="black" points="695.18,-145.31 699.15,-135.49 689.92,-140.69 695.18,-145.31"/>
</g>
</g>
</svg>
