<?xml version="1.0" encoding="UTF-8" standalone="no"?>
<!DOCTYPE svg PUBLIC "-//W3C//DTD SVG 1.1//EN"
 "http://www.w3.org/Graphics/SVG/1.1/DTD/svg11.dtd">
<!-- Generated by graphviz version 2.43.0 (0)
 -->
<!-- Title: HoTT_WildCat_ZeroGroupoid Pages: 1 -->
<svg width="1502pt" height="755pt"
 viewBox="0.00 0.00 1502.00 755.00" xmlns="http://www.w3.org/2000/svg" xmlns:xlink="http://www.w3.org/1999/xlink">
<g id="graph0" class="graph" transform="scale(1 1) rotate(0) translate(4 751)">
<title>HoTT_WildCat_ZeroGroupoid</title>
<polygon fill="white" stroke="transparent" points="-4,4 -4,-751 1498,-751 1498,4 -4,4"/>
<g id="clust1" class="cluster">
<title>cluster_ZeroGroupoid</title>
<polygon fill="#ffffc3" stroke="black" points="8.2,-8 8.2,-739 1485.8,-739 1485.8,-8 8.2,-8"/>
<text text-anchor="middle" x="66.2" y="-723.8" font-family="Times,serif" font-size="14.00">ZeroGroupoid</text>
</g>
<!-- ZeroGroupoid_cate_prod_0gpd -->
<g id="node1" class="node">
<title>ZeroGroupoid_cate_prod_0gpd</title>
<g id="a_node1"><a xlink:href="ZeroGroupoid.html#cate_prod_0gpd" xlink:title="cate_prod_0gpd">
<ellipse fill="#f070d1" stroke="black" cx="923.28" cy="-506" rx="83.7" ry="18"/>
<ellipse fill="none" stroke="black" cx="923.28" cy="-506" rx="87.69" ry="22"/>
<ellipse fill="none" stroke="black" cx="923.28" cy="-506" rx="91.69" ry="26"/>
<text text-anchor="middle" x="923.28" y="-502.3" font-family="Times,serif" font-size="14.00">cate_prod_0gpd</text>
</a>
</g>
</g>
<!-- ZeroGroupoid_equiv_prod_0gpd_corec -->
<g id="node2" class="node">
<title>ZeroGroupoid_equiv_prod_0gpd_corec</title>
<g id="a_node2"><a xlink:href="ZeroGroupoid.html#equiv_prod_0gpd_corec" xlink:title="equiv_prod_0gpd_corec">
<ellipse fill="#f070d1" stroke="black" cx="1099.28" cy="-354" rx="118.88" ry="18"/>
<text text-anchor="middle" x="1099.28" y="-350.3" font-family="Times,serif" font-size="14.00">equiv_prod_0gpd_corec</text>
</a>
</g>
</g>
<!-- ZeroGroupoid_cate_prod_0gpd&#45;&gt;ZeroGroupoid_equiv_prod_0gpd_corec -->
<g id="edge1" class="edge">
<title>ZeroGroupoid_cate_prod_0gpd&#45;&gt;ZeroGroupoid_equiv_prod_0gpd_corec</title>
<path fill="none" stroke="black" d="M951.55,-480.9C984.61,-452.73 1038.95,-406.42 1071.7,-378.5"/>
<polygon fill="black" stroke="black" points="1074.19,-380.98 1079.53,-371.83 1069.65,-375.65 1074.19,-380.98"/>
</g>
<!-- ZeroGroupoid_hasequivs_0gpd -->
<g id="node11" class="node">
<title>ZeroGroupoid_hasequivs_0gpd</title>
<g id="a_node11"><a xlink:href="ZeroGroupoid.html#hasequivs_0gpd" xlink:title="hasequivs_0gpd">
<ellipse fill="#f070d1" stroke="black" cx="1191.28" cy="-426" rx="85.29" ry="18"/>
<text text-anchor="middle" x="1191.28" y="-422.3" font-family="Times,serif" font-size="14.00">hasequivs_0gpd</text>
</a>
</g>
</g>
<!-- ZeroGroupoid_cate_prod_0gpd&#45;&gt;ZeroGroupoid_hasequivs_0gpd -->
<g id="edge2" class="edge">
<title>ZeroGroupoid_cate_prod_0gpd&#45;&gt;ZeroGroupoid_hasequivs_0gpd</title>
<path fill="none" stroke="black" d="M985.77,-486.81C1030.4,-473.82 1089.99,-456.48 1133.51,-443.81"/>
<polygon fill="black" stroke="black" points="1134.74,-447.1 1143.37,-440.94 1132.79,-440.38 1134.74,-447.1"/>
</g>
<!-- ZeroGroupoid_carrier -->
<g id="node20" class="node">
<title>ZeroGroupoid_carrier</title>
<g id="a_node20"><a xlink:href="ZeroGroupoid.html#carrier" xlink:title="carrier">
<ellipse fill="#f070d1" stroke="black" cx="939.28" cy="-426" rx="42.49" ry="18"/>
<text text-anchor="middle" x="939.28" y="-422.3" font-family="Times,serif" font-size="14.00">carrier</text>
</a>
</g>
</g>
<!-- ZeroGroupoid_cate_prod_0gpd&#45;&gt;ZeroGroupoid_carrier -->
<g id="edge3" class="edge">
<title>ZeroGroupoid_cate_prod_0gpd&#45;&gt;ZeroGroupoid_carrier</title>
<path fill="none" stroke="black" d="M928.43,-479.89C930.1,-471.75 931.96,-462.68 933.66,-454.38"/>
<polygon fill="black" stroke="black" points="937.12,-454.91 935.7,-444.41 930.27,-453.5 937.12,-454.91"/>
</g>
<!-- ZeroGroupoid_prod_0gpd_pr -->
<g id="node3" class="node">
<title>ZeroGroupoid_prod_0gpd_pr</title>
<g id="a_node3"><a xlink:href="ZeroGroupoid.html#prod_0gpd_pr" xlink:title="prod_0gpd_pr">
<ellipse fill="#f070d1" stroke="black" cx="1054.28" cy="-282" rx="74.99" ry="18"/>
<text text-anchor="middle" x="1054.28" y="-278.3" font-family="Times,serif" font-size="14.00">prod_0gpd_pr</text>
</a>
</g>
</g>
<!-- ZeroGroupoid_equiv_prod_0gpd_corec&#45;&gt;ZeroGroupoid_prod_0gpd_pr -->
<g id="edge4" class="edge">
<title>ZeroGroupoid_equiv_prod_0gpd_corec&#45;&gt;ZeroGroupoid_prod_0gpd_pr</title>
<path fill="none" stroke="black" d="M1088.38,-336.05C1083.15,-327.92 1076.77,-318 1070.95,-308.94"/>
<polygon fill="black" stroke="black" points="1073.73,-306.79 1065.38,-300.28 1067.84,-310.58 1073.73,-306.79"/>
</g>
<!-- ZeroGroupoid_is01cat_0gpd -->
<g id="node14" class="node">
<title>ZeroGroupoid_is01cat_0gpd</title>
<g id="a_node14"><a xlink:href="ZeroGroupoid.html#is01cat_0gpd" xlink:title="is01cat_0gpd">
<ellipse fill="#f070d1" stroke="black" cx="1223.28" cy="-282" rx="72.29" ry="18"/>
<text text-anchor="middle" x="1223.28" y="-278.3" font-family="Times,serif" font-size="14.00">is01cat_0gpd</text>
</a>
</g>
</g>
<!-- ZeroGroupoid_equiv_prod_0gpd_corec&#45;&gt;ZeroGroupoid_is01cat_0gpd -->
<g id="edge5" class="edge">
<title>ZeroGroupoid_equiv_prod_0gpd_corec&#45;&gt;ZeroGroupoid_is01cat_0gpd</title>
<path fill="none" stroke="black" d="M1128.66,-336.41C1146.02,-326.61 1168.14,-314.12 1186.63,-303.69"/>
<polygon fill="black" stroke="black" points="1188.39,-306.71 1195.38,-298.75 1184.95,-300.62 1188.39,-306.71"/>
</g>
<!-- ZeroGroupoid_prod_0gpd -->
<g id="node4" class="node">
<title>ZeroGroupoid_prod_0gpd</title>
<g id="a_node4"><a xlink:href="ZeroGroupoid.html#prod_0gpd" xlink:title="prod_0gpd">
<ellipse fill="#f070d1" stroke="black" cx="426.28" cy="-114" rx="59.59" ry="18"/>
<text text-anchor="middle" x="426.28" y="-110.3" font-family="Times,serif" font-size="14.00">prod_0gpd</text>
</a>
</g>
</g>
<!-- ZeroGroupoid_prod_0gpd_pr&#45;&gt;ZeroGroupoid_prod_0gpd -->
<g id="edge6" class="edge">
<title>ZeroGroupoid_prod_0gpd_pr&#45;&gt;ZeroGroupoid_prod_0gpd</title>
<path fill="none" stroke="black" d="M1001.47,-269.09C902.36,-246.41 681.98,-194.4 499.28,-140 490.69,-137.44 481.62,-134.52 472.89,-131.59"/>
<polygon fill="black" stroke="black" points="473.82,-128.21 463.23,-128.3 471.57,-134.84 473.82,-128.21"/>
</g>
<!-- ZeroGroupoid_isgraph_0gpd -->
<g id="node15" class="node">
<title>ZeroGroupoid_isgraph_0gpd</title>
<g id="a_node15"><a xlink:href="ZeroGroupoid.html#isgraph_0gpd" xlink:title="isgraph_0gpd">
<ellipse fill="#f070d1" stroke="black" cx="1309.28" cy="-202" rx="73.39" ry="18"/>
<text text-anchor="middle" x="1309.28" y="-198.3" font-family="Times,serif" font-size="14.00">isgraph_0gpd</text>
</a>
</g>
</g>
<!-- ZeroGroupoid_prod_0gpd_pr&#45;&gt;ZeroGroupoid_isgraph_0gpd -->
<g id="edge7" class="edge">
<title>ZeroGroupoid_prod_0gpd_pr&#45;&gt;ZeroGroupoid_isgraph_0gpd</title>
<path fill="none" stroke="black" d="M1098.69,-267.41C1142.39,-254.05 1209.14,-233.63 1255.74,-219.37"/>
<polygon fill="black" stroke="black" points="1256.83,-222.7 1265.37,-216.43 1254.78,-216.01 1256.83,-222.7"/>
</g>
<!-- ZeroGroupoid_Build_ZeroGpd -->
<g id="node25" class="node">
<title>ZeroGroupoid_Build_ZeroGpd</title>
<g id="a_node25"><a xlink:href="ZeroGroupoid.html#Build_ZeroGpd" xlink:title="Build_ZeroGpd">
<ellipse fill="#7faaff" stroke="black" cx="346.28" cy="-34" rx="79.89" ry="18"/>
<text text-anchor="middle" x="346.28" y="-30.3" font-family="Times,serif" font-size="14.00">Build_ZeroGpd</text>
</a>
</g>
</g>
<!-- ZeroGroupoid_prod_0gpd&#45;&gt;ZeroGroupoid_Build_ZeroGpd -->
<g id="edge8" class="edge">
<title>ZeroGroupoid_prod_0gpd&#45;&gt;ZeroGroupoid_Build_ZeroGpd</title>
<path fill="none" stroke="black" d="M409.31,-96.46C398.14,-85.57 383.34,-71.14 370.89,-59"/>
<polygon fill="black" stroke="black" points="373.1,-56.26 363.49,-51.79 368.21,-61.27 373.1,-56.26"/>
</g>
<!-- ZeroGroupoid_ZeroGpd -->
<g id="node26" class="node">
<title>ZeroGroupoid_ZeroGpd</title>
<g id="a_node26"><a xlink:href="ZeroGroupoid.html#ZeroGpd" xlink:title="ZeroGpd">
<ellipse fill="#e2cdfa" stroke="black" cx="787.28" cy="-34" rx="51.19" ry="18"/>
<text text-anchor="middle" x="787.28" y="-30.3" font-family="Times,serif" font-size="14.00">ZeroGpd</text>
</a>
</g>
</g>
<!-- ZeroGroupoid_prod_0gpd&#45;&gt;ZeroGroupoid_ZeroGpd -->
<g id="edge9" class="edge">
<title>ZeroGroupoid_prod_0gpd&#45;&gt;ZeroGroupoid_ZeroGpd</title>
<path fill="none" stroke="black" d="M462.34,-99.47C474.02,-95.41 487.09,-91.19 499.28,-88 578.38,-67.3 671.77,-51.69 730.27,-42.94"/>
<polygon fill="black" stroke="black" points="731.04,-46.37 740.42,-41.44 730.02,-39.44 731.04,-46.37"/>
</g>
<!-- ZeroGroupoid_isequiv_0gpd_issurjinj -->
<g id="node5" class="node">
<title>ZeroGroupoid_isequiv_0gpd_issurjinj</title>
<g id="a_node5"><a xlink:href="ZeroGroupoid.html#isequiv_0gpd_issurjinj" xlink:title="isequiv_0gpd_issurjinj">
<ellipse fill="#f070d1" stroke="black" cx="1160.28" cy="-506" rx="113.96" ry="18"/>
<ellipse fill="none" stroke="black" cx="1160.28" cy="-506" rx="117.97" ry="22"/>
<ellipse fill="none" stroke="black" cx="1160.28" cy="-506" rx="121.98" ry="26"/>
<text text-anchor="middle" x="1160.28" y="-502.3" font-family="Times,serif" font-size="14.00">isequiv_0gpd_issurjinj</text>
</a>
</g>
</g>
<!-- ZeroGroupoid_isequiv_0gpd_issurjinj&#45;&gt;ZeroGroupoid_hasequivs_0gpd -->
<g id="edge10" class="edge">
<title>ZeroGroupoid_isequiv_0gpd_issurjinj&#45;&gt;ZeroGroupoid_hasequivs_0gpd</title>
<path fill="none" stroke="black" d="M1170.26,-479.89C1173.56,-471.57 1177.26,-462.28 1180.61,-453.83"/>
<polygon fill="black" stroke="black" points="1183.92,-455 1184.36,-444.41 1177.41,-452.41 1183.92,-455"/>
</g>
<!-- ZeroGroupoid_issurjinj_equiv_0gpd -->
<g id="node6" class="node">
<title>ZeroGroupoid_issurjinj_equiv_0gpd</title>
<g id="a_node6"><a xlink:href="ZeroGroupoid.html#issurjinj_equiv_0gpd" xlink:title="issurjinj_equiv_0gpd">
<ellipse fill="#f070d1" stroke="black" cx="1360.28" cy="-682" rx="105.89" ry="18"/>
<ellipse fill="none" stroke="black" cx="1360.28" cy="-682" rx="109.88" ry="22"/>
<ellipse fill="none" stroke="black" cx="1360.28" cy="-682" rx="113.88" ry="26"/>
<text text-anchor="middle" x="1360.28" y="-678.3" font-family="Times,serif" font-size="14.00">issurjinj_equiv_0gpd</text>
</a>
</g>
</g>
<!-- ZeroGroupoid_isinj_equiv_0gpd -->
<g id="node9" class="node">
<title>ZeroGroupoid_isinj_equiv_0gpd</title>
<g id="a_node9"><a xlink:href="ZeroGroupoid.html#isinj_equiv_0gpd" xlink:title="isinj_equiv_0gpd">
<ellipse fill="#f070d1" stroke="black" cx="1387.28" cy="-594" rx="87.99" ry="18"/>
<text text-anchor="middle" x="1387.28" y="-590.3" font-family="Times,serif" font-size="14.00">isinj_equiv_0gpd</text>
</a>
</g>
</g>
<!-- ZeroGroupoid_issurjinj_equiv_0gpd&#45;&gt;ZeroGroupoid_isinj_equiv_0gpd -->
<g id="edge11" class="edge">
<title>ZeroGroupoid_issurjinj_equiv_0gpd&#45;&gt;ZeroGroupoid_isinj_equiv_0gpd</title>
<path fill="none" stroke="black" d="M1368.23,-655.66C1371.58,-645 1375.48,-632.58 1378.87,-621.77"/>
<polygon fill="black" stroke="black" points="1382.28,-622.59 1381.94,-612 1375.6,-620.5 1382.28,-622.59"/>
</g>
<!-- ZeroGroupoid_moveL_equiv_V_0gpd -->
<g id="node7" class="node">
<title>ZeroGroupoid_moveL_equiv_V_0gpd</title>
<g id="a_node7"><a xlink:href="ZeroGroupoid.html#moveL_equiv_V_0gpd" xlink:title="moveL_equiv_V_0gpd">
<ellipse fill="#f070d1" stroke="black" cx="1157.28" cy="-594" rx="109.69" ry="18"/>
<ellipse fill="none" stroke="black" cx="1157.28" cy="-594" rx="113.69" ry="22"/>
<ellipse fill="none" stroke="black" cx="1157.28" cy="-594" rx="117.68" ry="26"/>
<text text-anchor="middle" x="1157.28" y="-590.3" font-family="Times,serif" font-size="14.00">moveL_equiv_V_0gpd</text>
</a>
</g>
</g>
<!-- ZeroGroupoid_equiv_fun_0gpd -->
<g id="node10" class="node">
<title>ZeroGroupoid_equiv_fun_0gpd</title>
<g id="a_node10"><a xlink:href="ZeroGroupoid.html#equiv_fun_0gpd" xlink:title="equiv_fun_0gpd">
<ellipse fill="#f070d1" stroke="black" cx="1389.28" cy="-506" rx="83.39" ry="18"/>
<text text-anchor="middle" x="1389.28" y="-502.3" font-family="Times,serif" font-size="14.00">equiv_fun_0gpd</text>
</a>
</g>
</g>
<!-- ZeroGroupoid_moveL_equiv_V_0gpd&#45;&gt;ZeroGroupoid_equiv_fun_0gpd -->
<g id="edge12" class="edge">
<title>ZeroGroupoid_moveL_equiv_V_0gpd&#45;&gt;ZeroGroupoid_equiv_fun_0gpd</title>
<path fill="none" stroke="black" d="M1215.82,-571.3C1254.02,-557.14 1303.34,-538.86 1339.62,-525.41"/>
<polygon fill="black" stroke="black" points="1340.85,-528.68 1349.01,-521.92 1338.42,-522.12 1340.85,-528.68"/>
</g>
<!-- ZeroGroupoid_moveR_equiv_V_0gpd -->
<g id="node8" class="node">
<title>ZeroGroupoid_moveR_equiv_V_0gpd</title>
<g id="a_node8"><a xlink:href="ZeroGroupoid.html#moveR_equiv_V_0gpd" xlink:title="moveR_equiv_V_0gpd">
<ellipse fill="#f070d1" stroke="black" cx="897.28" cy="-594" rx="110.48" ry="18"/>
<ellipse fill="none" stroke="black" cx="897.28" cy="-594" rx="114.48" ry="22"/>
<ellipse fill="none" stroke="black" cx="897.28" cy="-594" rx="118.48" ry="26"/>
<text text-anchor="middle" x="897.28" y="-590.3" font-family="Times,serif" font-size="14.00">moveR_equiv_V_0gpd</text>
</a>
</g>
</g>
<!-- ZeroGroupoid_moveR_equiv_V_0gpd&#45;&gt;ZeroGroupoid_equiv_fun_0gpd -->
<g id="edge13" class="edge">
<title>ZeroGroupoid_moveR_equiv_V_0gpd&#45;&gt;ZeroGroupoid_equiv_fun_0gpd</title>
<path fill="none" stroke="black" d="M983.74,-576.12C999.21,-573.27 1015.2,-570.45 1030.28,-568 1145.85,-549.18 1176.36,-554.51 1291.28,-532 1304.11,-529.49 1317.78,-526.32 1330.71,-523.09"/>
<polygon fill="black" stroke="black" points="1331.59,-526.47 1340.42,-520.62 1329.87,-519.69 1331.59,-526.47"/>
</g>
<!-- ZeroGroupoid_isinj_equiv_0gpd&#45;&gt;ZeroGroupoid_equiv_fun_0gpd -->
<g id="edge14" class="edge">
<title>ZeroGroupoid_isinj_equiv_0gpd&#45;&gt;ZeroGroupoid_equiv_fun_0gpd</title>
<path fill="none" stroke="black" d="M1387.68,-575.6C1387.96,-563.75 1388.33,-547.82 1388.64,-534.29"/>
<polygon fill="black" stroke="black" points="1392.15,-534.16 1388.88,-524.08 1385.15,-534 1392.15,-534.16"/>
</g>
<!-- ZeroGroupoid_equiv_fun_0gpd&#45;&gt;ZeroGroupoid_hasequivs_0gpd -->
<g id="edge15" class="edge">
<title>ZeroGroupoid_equiv_fun_0gpd&#45;&gt;ZeroGroupoid_hasequivs_0gpd</title>
<path fill="none" stroke="black" d="M1351.1,-489.96C1319.15,-477.38 1273.41,-459.36 1239.04,-445.82"/>
<polygon fill="black" stroke="black" points="1240.26,-442.53 1229.67,-442.13 1237.69,-449.05 1240.26,-442.53"/>
</g>
<!-- ZeroGroupoid_is1cat_0gpd -->
<g id="node12" class="node">
<title>ZeroGroupoid_is1cat_0gpd</title>
<g id="a_node12"><a xlink:href="ZeroGroupoid.html#is1cat_0gpd" xlink:title="is1cat_0gpd">
<ellipse fill="#f070d1" stroke="black" cx="1307.28" cy="-354" rx="66.09" ry="18"/>
<text text-anchor="middle" x="1307.28" y="-350.3" font-family="Times,serif" font-size="14.00">is1cat_0gpd</text>
</a>
</g>
</g>
<!-- ZeroGroupoid_hasequivs_0gpd&#45;&gt;ZeroGroupoid_is1cat_0gpd -->
<g id="edge16" class="edge">
<title>ZeroGroupoid_hasequivs_0gpd&#45;&gt;ZeroGroupoid_is1cat_0gpd</title>
<path fill="none" stroke="black" d="M1218.18,-408.76C1234.37,-399 1255.14,-386.46 1272.56,-375.95"/>
<polygon fill="black" stroke="black" points="1274.56,-378.83 1281.32,-370.67 1270.95,-372.84 1274.56,-378.83"/>
</g>
<!-- ZeroGroupoid_is2graph_0gpd -->
<g id="node13" class="node">
<title>ZeroGroupoid_is2graph_0gpd</title>
<g id="a_node13"><a xlink:href="ZeroGroupoid.html#is2graph_0gpd" xlink:title="is2graph_0gpd">
<ellipse fill="#f070d1" stroke="black" cx="1396.28" cy="-282" rx="79.09" ry="18"/>
<text text-anchor="middle" x="1396.28" y="-278.3" font-family="Times,serif" font-size="14.00">is2graph_0gpd</text>
</a>
</g>
</g>
<!-- ZeroGroupoid_is1cat_0gpd&#45;&gt;ZeroGroupoid_is2graph_0gpd -->
<g id="edge17" class="edge">
<title>ZeroGroupoid_is1cat_0gpd&#45;&gt;ZeroGroupoid_is2graph_0gpd</title>
<path fill="none" stroke="black" d="M1327.92,-336.76C1339.63,-327.55 1354.47,-315.88 1367.33,-305.77"/>
<polygon fill="black" stroke="black" points="1369.74,-308.32 1375.44,-299.39 1365.41,-302.82 1369.74,-308.32"/>
</g>
<!-- ZeroGroupoid_is1cat_0gpd&#45;&gt;ZeroGroupoid_is01cat_0gpd -->
<g id="edge18" class="edge">
<title>ZeroGroupoid_is1cat_0gpd&#45;&gt;ZeroGroupoid_is01cat_0gpd</title>
<path fill="none" stroke="black" d="M1287.79,-336.76C1276.85,-327.64 1263,-316.1 1250.95,-306.06"/>
<polygon fill="black" stroke="black" points="1252.87,-303.1 1242.94,-299.39 1248.39,-308.48 1252.87,-303.1"/>
</g>
<!-- ZeroGroupoid_is2graph_0gpd&#45;&gt;ZeroGroupoid_isgraph_0gpd -->
<g id="edge19" class="edge">
<title>ZeroGroupoid_is2graph_0gpd&#45;&gt;ZeroGroupoid_isgraph_0gpd</title>
<path fill="none" stroke="black" d="M1377.83,-264.46C1365.48,-253.39 1349.06,-238.67 1335.38,-226.41"/>
<polygon fill="black" stroke="black" points="1337.48,-223.59 1327.7,-219.52 1332.81,-228.8 1337.48,-223.59"/>
</g>
<!-- ZeroGroupoid_is01cat_0gpd&#45;&gt;ZeroGroupoid_isgraph_0gpd -->
<g id="edge20" class="edge">
<title>ZeroGroupoid_is01cat_0gpd&#45;&gt;ZeroGroupoid_isgraph_0gpd</title>
<path fill="none" stroke="black" d="M1241.51,-264.46C1253.71,-253.39 1269.95,-238.67 1283.47,-226.41"/>
<polygon fill="black" stroke="black" points="1286.01,-228.83 1291.06,-219.52 1281.31,-223.64 1286.01,-228.83"/>
</g>
<!-- ZeroGroupoid_zerogpd_graph -->
<g id="node16" class="node">
<title>ZeroGroupoid_zerogpd_graph</title>
<g id="a_node16"><a xlink:href="ZeroGroupoid.html#zerogpd_graph" xlink:title="zerogpd_graph">
<ellipse fill="#f070d1" stroke="black" cx="1395.28" cy="-114" rx="79.89" ry="18"/>
<text text-anchor="middle" x="1395.28" y="-110.3" font-family="Times,serif" font-size="14.00">zerogpd_graph</text>
</a>
</g>
</g>
<!-- ZeroGroupoid_isgraph_0gpd&#45;&gt;ZeroGroupoid_zerogpd_graph -->
<g id="edge21" class="edge">
<title>ZeroGroupoid_isgraph_0gpd&#45;&gt;ZeroGroupoid_zerogpd_graph</title>
<path fill="none" stroke="black" d="M1325.86,-184.42C1338.74,-171.53 1356.79,-153.48 1371.26,-139.02"/>
<polygon fill="black" stroke="black" points="1373.86,-141.37 1378.45,-131.82 1368.91,-136.42 1373.86,-141.37"/>
</g>
<!-- ZeroGroupoid_zerogpd_graph&#45;&gt;ZeroGroupoid_ZeroGpd -->
<g id="edge22" class="edge">
<title>ZeroGroupoid_zerogpd_graph&#45;&gt;ZeroGroupoid_ZeroGpd</title>
<path fill="none" stroke="black" d="M1348.72,-99.36C1333.11,-95.19 1315.55,-90.94 1299.28,-88 1137.65,-58.76 944.18,-44.19 847.91,-38.29"/>
<polygon fill="black" stroke="black" points="847.97,-34.79 837.78,-37.68 847.55,-41.78 847.97,-34.79"/>
</g>
<!-- ZeroGroupoid_is0gpd_carrier -->
<g id="node17" class="node">
<title>ZeroGroupoid_is0gpd_carrier</title>
<g id="a_node17"><a xlink:href="ZeroGroupoid.html#is0gpd_carrier" xlink:title="is0gpd_carrier">
<ellipse fill="#f070d1" stroke="black" cx="1186.28" cy="-114" rx="77.99" ry="18"/>
<ellipse fill="none" stroke="black" cx="1186.28" cy="-114" rx="81.99" ry="22"/>
<ellipse fill="none" stroke="black" cx="1186.28" cy="-114" rx="85.99" ry="26"/>
<text text-anchor="middle" x="1186.28" y="-110.3" font-family="Times,serif" font-size="14.00">is0gpd_carrier</text>
</a>
</g>
</g>
<!-- ZeroGroupoid_is0gpd_carrier&#45;&gt;ZeroGroupoid_ZeroGpd -->
<g id="edge23" class="edge">
<title>ZeroGroupoid_is0gpd_carrier&#45;&gt;ZeroGroupoid_ZeroGpd</title>
<path fill="none" stroke="black" d="M1122.68,-96.4C1110.63,-93.45 1098.09,-90.52 1086.28,-88 1002.08,-70.04 903.63,-53.42 843.38,-43.75"/>
<polygon fill="black" stroke="black" points="843.74,-40.26 833.31,-42.14 842.64,-47.17 843.74,-40.26"/>
</g>
<!-- ZeroGroupoid_is01cat_carrier -->
<g id="node18" class="node">
<title>ZeroGroupoid_is01cat_carrier</title>
<g id="a_node18"><a xlink:href="ZeroGroupoid.html#is01cat_carrier" xlink:title="is01cat_carrier">
<ellipse fill="#f070d1" stroke="black" cx="988.28" cy="-114" rx="80.68" ry="18"/>
<ellipse fill="none" stroke="black" cx="988.28" cy="-114" rx="84.68" ry="22"/>
<ellipse fill="none" stroke="black" cx="988.28" cy="-114" rx="88.69" ry="26"/>
<text text-anchor="middle" x="988.28" y="-110.3" font-family="Times,serif" font-size="14.00">is01cat_carrier</text>
</a>
</g>
</g>
<!-- ZeroGroupoid_is01cat_carrier&#45;&gt;ZeroGroupoid_ZeroGpd -->
<g id="edge24" class="edge">
<title>ZeroGroupoid_is01cat_carrier&#45;&gt;ZeroGroupoid_ZeroGpd</title>
<path fill="none" stroke="black" d="M936.25,-92.81C903.29,-80.02 861.19,-63.68 830.16,-51.64"/>
<polygon fill="black" stroke="black" points="831.08,-48.25 820.5,-47.89 828.55,-54.77 831.08,-48.25"/>
</g>
<!-- ZeroGroupoid_isgraph_carrier -->
<g id="node19" class="node">
<title>ZeroGroupoid_isgraph_carrier</title>
<g id="a_node19"><a xlink:href="ZeroGroupoid.html#isgraph_carrier" xlink:title="isgraph_carrier">
<ellipse fill="#f070d1" stroke="black" cx="787.28" cy="-114" rx="81.8" ry="18"/>
<ellipse fill="none" stroke="black" cx="787.28" cy="-114" rx="85.79" ry="22"/>
<ellipse fill="none" stroke="black" cx="787.28" cy="-114" rx="89.79" ry="26"/>
<text text-anchor="middle" x="787.28" y="-110.3" font-family="Times,serif" font-size="14.00">isgraph_carrier</text>
</a>
</g>
</g>
<!-- ZeroGroupoid_isgraph_carrier&#45;&gt;ZeroGroupoid_ZeroGpd -->
<g id="edge25" class="edge">
<title>ZeroGroupoid_isgraph_carrier&#45;&gt;ZeroGroupoid_ZeroGpd</title>
<path fill="none" stroke="black" d="M787.28,-87.89C787.28,-79.84 787.28,-70.88 787.28,-62.66"/>
<polygon fill="black" stroke="black" points="790.78,-62.41 787.28,-52.41 783.78,-62.41 790.78,-62.41"/>
</g>
<!-- ZeroGroupoid_carrier&#45;&gt;ZeroGroupoid_ZeroGpd -->
<g id="edge26" class="edge">
<title>ZeroGroupoid_carrier&#45;&gt;ZeroGroupoid_ZeroGpd</title>
<path fill="none" stroke="black" d="M937.59,-407.74C935.43,-375.62 935.45,-306.12 970.28,-264 1071.47,-141.59 1387.42,-206.14 1281.28,-88 1252.82,-56.33 974.39,-41.98 848.51,-37.08"/>
<polygon fill="black" stroke="black" points="848.39,-33.57 838.27,-36.69 848.13,-40.57 848.39,-33.57"/>
</g>
<!-- ZeroGroupoid_ZeroGpd_sind -->
<g id="node21" class="node">
<title>ZeroGroupoid_ZeroGpd_sind</title>
<g id="a_node21"><a xlink:href="ZeroGroupoid.html#ZeroGpd_sind" xlink:title="ZeroGpd_sind">
<ellipse fill="#f070d1" stroke="black" cx="591.28" cy="-114" rx="75.3" ry="18"/>
<ellipse fill="none" stroke="black" cx="591.28" cy="-114" rx="79.29" ry="22"/>
<ellipse fill="none" stroke="black" cx="591.28" cy="-114" rx="83.29" ry="26"/>
<text text-anchor="middle" x="591.28" y="-110.3" font-family="Times,serif" font-size="14.00">ZeroGpd_sind</text>
</a>
</g>
</g>
<!-- ZeroGroupoid_ZeroGpd_sind&#45;&gt;ZeroGroupoid_Build_ZeroGpd -->
<g id="edge27" class="edge">
<title>ZeroGroupoid_ZeroGpd_sind&#45;&gt;ZeroGroupoid_Build_ZeroGpd</title>
<path fill="none" stroke="black" d="M534.45,-94.91C493.97,-82.02 439.9,-64.81 400.11,-52.14"/>
<polygon fill="black" stroke="black" points="401.16,-48.8 390.57,-49.1 399.04,-55.47 401.16,-48.8"/>
</g>
<!-- ZeroGroupoid_ZeroGpd_sind&#45;&gt;ZeroGroupoid_ZeroGpd -->
<g id="edge28" class="edge">
<title>ZeroGroupoid_ZeroGpd_sind&#45;&gt;ZeroGroupoid_ZeroGpd</title>
<path fill="none" stroke="black" d="M641.24,-93.12C673.38,-80.33 714.67,-63.9 745.14,-51.77"/>
<polygon fill="black" stroke="black" points="746.63,-54.94 754.63,-47.99 744.04,-48.44 746.63,-54.94"/>
</g>
<!-- ZeroGroupoid_ZeroGpd_rec -->
<g id="node22" class="node">
<title>ZeroGroupoid_ZeroGpd_rec</title>
<g id="a_node22"><a xlink:href="ZeroGroupoid.html#ZeroGpd_rec" xlink:title="ZeroGpd_rec">
<ellipse fill="#f070d1" stroke="black" cx="96.28" cy="-202" rx="70.37" ry="18"/>
<ellipse fill="none" stroke="black" cx="96.28" cy="-202" rx="74.38" ry="22"/>
<ellipse fill="none" stroke="black" cx="96.28" cy="-202" rx="78.39" ry="26"/>
<text text-anchor="middle" x="96.28" y="-198.3" font-family="Times,serif" font-size="14.00">ZeroGpd_rec</text>
</a>
</g>
</g>
<!-- ZeroGroupoid_ZeroGpd_rect -->
<g id="node24" class="node">
<title>ZeroGroupoid_ZeroGpd_rect</title>
<g id="a_node24"><a xlink:href="ZeroGroupoid.html#ZeroGpd_rect" xlink:title="ZeroGpd_rect">
<ellipse fill="#f070d1" stroke="black" cx="92.28" cy="-114" rx="74.19" ry="18"/>
<text text-anchor="middle" x="92.28" y="-110.3" font-family="Times,serif" font-size="14.00">ZeroGpd_rect</text>
</a>
</g>
</g>
<!-- ZeroGroupoid_ZeroGpd_rec&#45;&gt;ZeroGroupoid_ZeroGpd_rect -->
<g id="edge29" class="edge">
<title>ZeroGroupoid_ZeroGpd_rec&#45;&gt;ZeroGroupoid_ZeroGpd_rect</title>
<path fill="none" stroke="black" d="M95.1,-175.66C94.61,-165.11 94.04,-152.84 93.54,-142.1"/>
<polygon fill="black" stroke="black" points="97.03,-141.83 93.07,-132 90.04,-142.16 97.03,-141.83"/>
</g>
<!-- ZeroGroupoid_ZeroGpd_ind -->
<g id="node23" class="node">
<title>ZeroGroupoid_ZeroGpd_ind</title>
<g id="a_node23"><a xlink:href="ZeroGroupoid.html#ZeroGpd_ind" xlink:title="ZeroGpd_ind">
<ellipse fill="#7fffd4" stroke="black" cx="266.28" cy="-114" rx="70.37" ry="18"/>
<ellipse fill="none" stroke="black" cx="266.28" cy="-114" rx="74.38" ry="22"/>
<ellipse fill="none" stroke="black" cx="266.28" cy="-114" rx="78.39" ry="26"/>
<text text-anchor="middle" x="266.28" y="-110.3" font-family="Times,serif" font-size="14.00">ZeroGpd_ind</text>
</a>
</g>
</g>
<!-- ZeroGroupoid_ZeroGpd_ind&#45;&gt;ZeroGroupoid_Build_ZeroGpd -->
<g id="edge30" class="edge">
<title>ZeroGroupoid_ZeroGpd_ind&#45;&gt;ZeroGroupoid_Build_ZeroGpd</title>
<path fill="none" stroke="black" d="M290.71,-89.17C300.6,-79.53 311.99,-68.43 321.87,-58.79"/>
<polygon fill="black" stroke="black" points="324.37,-61.25 329.09,-51.76 319.48,-56.23 324.37,-61.25"/>
</g>
<!-- ZeroGroupoid_ZeroGpd_ind&#45;&gt;ZeroGroupoid_ZeroGpd -->
<g id="edge31" class="edge">
<title>ZeroGroupoid_ZeroGpd_ind&#45;&gt;ZeroGroupoid_ZeroGpd</title>
<path fill="none" stroke="black" d="M323.25,-95.98C334.46,-93.02 346.19,-90.19 357.28,-88 488.14,-62.1 644.06,-46.65 727.51,-39.6"/>
<polygon fill="black" stroke="black" points="727.9,-43.08 737.57,-38.76 727.31,-36.1 727.9,-43.08"/>
</g>
<!-- ZeroGroupoid_ZeroGpd_rect&#45;&gt;ZeroGroupoid_Build_ZeroGpd -->
<g id="edge32" class="edge">
<title>ZeroGroupoid_ZeroGpd_rect&#45;&gt;ZeroGroupoid_Build_ZeroGpd</title>
<path fill="none" stroke="black" d="M136.23,-99.5C179.18,-86.31 244.69,-66.19 291.12,-51.94"/>
<polygon fill="black" stroke="black" points="292.19,-55.27 300.72,-48.99 290.13,-48.58 292.19,-55.27"/>
</g>
<!-- ZeroGroupoid_ZeroGpd_rect&#45;&gt;ZeroGroupoid_ZeroGpd -->
<g id="edge33" class="edge">
<title>ZeroGroupoid_ZeroGpd_rect&#45;&gt;ZeroGroupoid_ZeroGpd</title>
<path fill="none" stroke="black" d="M134.37,-99.13C148.5,-94.95 164.44,-90.75 179.28,-88 376.83,-51.36 615.33,-39.92 725.71,-36.45"/>
<polygon fill="black" stroke="black" points="726.09,-39.94 735.98,-36.14 725.88,-32.94 726.09,-39.94"/>
</g>
</g>
</svg>
