<?xml version="1.0" encoding="UTF-8" standalone="no"?>
<!DOCTYPE svg PUBLIC "-//W3C//DTD SVG 1.1//EN"
 "http://www.w3.org/Graphics/SVG/1.1/DTD/svg11.dtd">
<!-- Generated by graphviz version 2.43.0 (0)
 -->
<!-- Title: HoTT_Classes_orders_rings Pages: 1 -->
<svg width="3836pt" height="1922pt"
 viewBox="0.00 0.00 3836.00 1922.00" xmlns="http://www.w3.org/2000/svg" xmlns:xlink="http://www.w3.org/1999/xlink">
<g id="graph0" class="graph" transform="scale(1 1) rotate(0) translate(4 1918)">
<title>HoTT_Classes_orders_rings</title>
<polygon fill="white" stroke="transparent" points="-4,4 -4,-1918 3832,-1918 3832,4 -4,4"/>
<g id="clust1" class="cluster">
<title>cluster_rings</title>
<polygon fill="#ffffc3" stroke="black" points="8,-43.13 8,-1870.87 3820,-1870.87 3820,-43.13 8,-43.13"/>
<text text-anchor="middle" x="34.5" y="-1855.67" font-family="Times,serif" font-size="14.00">rings</text>
</g>
<!-- rings_projected_full_pseudo_ring_order -->
<g id="node1" class="node">
<title>rings_projected_full_pseudo_ring_order</title>
<g id="a_node1"><a xlink:href="rings.html#projected_full_pseudo_ring_order" xlink:title="projected_full_pseudo_ring_order">
<ellipse fill="#f070d1" stroke="black" cx="2928" cy="-1563.13" rx="165.17" ry="18"/>
<ellipse fill="none" stroke="black" cx="2928" cy="-1563.13" rx="169.17" ry="22"/>
<ellipse fill="none" stroke="black" cx="2928" cy="-1563.13" rx="173.17" ry="26"/>
<text text-anchor="middle" x="2928" y="-1559.43" font-family="Times,serif" font-size="14.00">projected_full_pseudo_ring_order</text>
</a>
</g>
</g>
<!-- rings_projected_pseudo_ring_order -->
<g id="node2" class="node">
<title>rings_projected_pseudo_ring_order</title>
<g id="a_node2"><a xlink:href="rings.html#projected_pseudo_ring_order" xlink:title="projected_pseudo_ring_order">
<ellipse fill="#f070d1" stroke="black" cx="2928" cy="-1089.13" rx="145.67" ry="18"/>
<text text-anchor="middle" x="2928" y="-1085.43" font-family="Times,serif" font-size="14.00">projected_pseudo_ring_order</text>
</a>
</g>
</g>
<!-- rings_projected_full_pseudo_ring_order&#45;&gt;rings_projected_pseudo_ring_order -->
<g id="edge1" class="edge">
<title>rings_projected_full_pseudo_ring_order&#45;&gt;rings_projected_pseudo_ring_order</title>
<path fill="none" stroke="black" d="M2928,-1537.09C2928,-1456.02 2928,-1201.17 2928,-1117.24"/>
<polygon fill="black" stroke="black" points="2931.5,-1117.21 2928,-1107.21 2924.5,-1117.21 2931.5,-1117.21"/>
</g>
<!-- rings_projected_strict_ring_order -->
<g id="node3" class="node">
<title>rings_projected_strict_ring_order</title>
<g id="a_node3"><a xlink:href="rings.html#projected_strict_ring_order" xlink:title="projected_strict_ring_order">
<ellipse fill="#f070d1" stroke="black" cx="2972" cy="-615.13" rx="137.28" ry="18"/>
<text text-anchor="middle" x="2972" y="-611.43" font-family="Times,serif" font-size="14.00">projected_strict_ring_order</text>
</a>
</g>
</g>
<!-- rings_projected_pseudo_ring_order&#45;&gt;rings_projected_strict_ring_order -->
<g id="edge2" class="edge">
<title>rings_projected_pseudo_ring_order&#45;&gt;rings_projected_strict_ring_order</title>
<path fill="none" stroke="black" d="M2929.59,-1071.05C2936.18,-1000.37 2961.36,-730.32 2969.47,-643.32"/>
<polygon fill="black" stroke="black" points="2972.97,-643.47 2970.41,-633.19 2966,-642.82 2972.97,-643.47"/>
</g>
<!-- rings_from_pseudo_ring_order -->
<g id="node34" class="node">
<title>rings_from_pseudo_ring_order</title>
<g id="a_node34"><a xlink:href="rings.html#from_pseudo_ring_order" xlink:title="from_pseudo_ring_order">
<ellipse fill="#f070d1" stroke="black" cx="2303" cy="-615.13" rx="123.48" ry="18"/>
<text text-anchor="middle" x="2303" y="-611.43" font-family="Times,serif" font-size="14.00">from_pseudo_ring_order</text>
</a>
</g>
</g>
<!-- rings_projected_pseudo_ring_order&#45;&gt;rings_from_pseudo_ring_order -->
<g id="edge3" class="edge">
<title>rings_projected_pseudo_ring_order&#45;&gt;rings_from_pseudo_ring_order</title>
<path fill="none" stroke="black" d="M2905.76,-1071.33C2811.22,-999.94 2442.68,-721.62 2333.58,-639.23"/>
<polygon fill="black" stroke="black" points="2335.39,-636.21 2325.3,-632.98 2331.17,-641.8 2335.39,-636.21"/>
</g>
<!-- rings_from_strict_ring_order -->
<g id="node35" class="node">
<title>rings_from_strict_ring_order</title>
<g id="a_node35"><a xlink:href="rings.html#from_strict_ring_order" xlink:title="from_strict_ring_order">
<ellipse fill="#f070d1" stroke="black" cx="2972" cy="-183.13" rx="115.08" ry="18"/>
<text text-anchor="middle" x="2972" y="-179.43" font-family="Times,serif" font-size="14.00">from_strict_ring_order</text>
</a>
</g>
</g>
<!-- rings_projected_strict_ring_order&#45;&gt;rings_from_strict_ring_order -->
<g id="edge4" class="edge">
<title>rings_projected_strict_ring_order&#45;&gt;rings_from_strict_ring_order</title>
<path fill="none" stroke="black" d="M2972,-597.01C2972,-531.07 2972,-293.19 2972,-211.73"/>
<polygon fill="black" stroke="black" points="2975.5,-211.3 2972,-201.3 2968.5,-211.3 2975.5,-211.3"/>
</g>
<!-- rings_preserves_le_negate1 -->
<g id="node4" class="node">
<title>rings_preserves_le_negate1</title>
<g id="a_node4"><a xlink:href="rings.html#preserves_le_negate1" xlink:title="preserves_le_negate1">
<ellipse fill="#f070d1" stroke="black" cx="3501" cy="-1563.13" rx="111.27" ry="18"/>
<ellipse fill="none" stroke="black" cx="3501" cy="-1563.13" rx="115.28" ry="22"/>
<ellipse fill="none" stroke="black" cx="3501" cy="-1563.13" rx="119.28" ry="26"/>
<text text-anchor="middle" x="3501" y="-1559.43" font-family="Times,serif" font-size="14.00">preserves_le_negate1</text>
</a>
</g>
</g>
<!-- rings_preserves_ge_negate1 -->
<g id="node5" class="node">
<title>rings_preserves_ge_negate1</title>
<g id="a_node5"><a xlink:href="rings.html#preserves_ge_negate1" xlink:title="preserves_ge_negate1">
<ellipse fill="#f070d1" stroke="black" cx="3241" cy="-1563.13" rx="114.29" ry="18"/>
<ellipse fill="none" stroke="black" cx="3241" cy="-1563.13" rx="118.28" ry="22"/>
<ellipse fill="none" stroke="black" cx="3241" cy="-1563.13" rx="122.28" ry="26"/>
<text text-anchor="middle" x="3241" y="-1559.43" font-family="Times,serif" font-size="14.00">preserves_ge_negate1</text>
</a>
</g>
</g>
<!-- rings_reflecting_preserves_nonneg -->
<g id="node6" class="node">
<title>rings_reflecting_preserves_nonneg</title>
<g id="a_node6"><a xlink:href="rings.html#reflecting_preserves_nonneg" xlink:title="reflecting_preserves_nonneg">
<ellipse fill="#f070d1" stroke="black" cx="818" cy="-1563.13" rx="143.77" ry="18"/>
<ellipse fill="none" stroke="black" cx="818" cy="-1563.13" rx="147.77" ry="22"/>
<ellipse fill="none" stroke="black" cx="818" cy="-1563.13" rx="151.77" ry="26"/>
<text text-anchor="middle" x="818" y="-1559.43" font-family="Times,serif" font-size="14.00">reflecting_preserves_nonneg</text>
</a>
</g>
</g>
<!-- rings_flip_nonneg_minus -->
<g id="node27" class="node">
<title>rings_flip_nonneg_minus</title>
<g id="a_node27"><a xlink:href="rings.html#flip_nonneg_minus" xlink:title="flip_nonneg_minus">
<ellipse fill="#f070d1" stroke="black" cx="838" cy="-1089.13" rx="96.68" ry="18"/>
<text text-anchor="middle" x="838" y="-1085.43" font-family="Times,serif" font-size="14.00">flip_nonneg_minus</text>
</a>
</g>
</g>
<!-- rings_reflecting_preserves_nonneg&#45;&gt;rings_flip_nonneg_minus -->
<g id="edge5" class="edge">
<title>rings_reflecting_preserves_nonneg&#45;&gt;rings_flip_nonneg_minus</title>
<path fill="none" stroke="black" d="M819.06,-1537.09C822.5,-1456.02 833.3,-1201.17 836.85,-1117.24"/>
<polygon fill="black" stroke="black" points="840.35,-1117.35 837.28,-1107.21 833.36,-1117.05 840.35,-1117.35"/>
</g>
<!-- rings_projected_ring_order -->
<g id="node7" class="node">
<title>rings_projected_ring_order</title>
<g id="a_node7"><a xlink:href="rings.html#projected_ring_order" xlink:title="projected_ring_order">
<ellipse fill="#f070d1" stroke="black" cx="2621" cy="-1563.13" rx="107.79" ry="18"/>
<ellipse fill="none" stroke="black" cx="2621" cy="-1563.13" rx="111.78" ry="22"/>
<ellipse fill="none" stroke="black" cx="2621" cy="-1563.13" rx="115.78" ry="26"/>
<text text-anchor="middle" x="2621" y="-1559.43" font-family="Times,serif" font-size="14.00">projected_ring_order</text>
</a>
</g>
</g>
<!-- rings_negative_apart_zero -->
<g id="node8" class="node">
<title>rings_negative_apart_zero</title>
<g id="a_node8"><a xlink:href="rings.html#negative_apart_zero" xlink:title="negative_apart_zero">
<ellipse fill="#f070d1" stroke="black" cx="2374" cy="-1563.13" rx="104.77" ry="18"/>
<ellipse fill="none" stroke="black" cx="2374" cy="-1563.13" rx="108.78" ry="22"/>
<ellipse fill="none" stroke="black" cx="2374" cy="-1563.13" rx="112.78" ry="26"/>
<text text-anchor="middle" x="2374" y="-1559.43" font-family="Times,serif" font-size="14.00">negative_apart_zero</text>
</a>
</g>
</g>
<!-- rings_positive_apart_zero -->
<g id="node9" class="node">
<title>rings_positive_apart_zero</title>
<g id="a_node9"><a xlink:href="rings.html#positive_apart_zero" xlink:title="positive_apart_zero">
<ellipse fill="#f070d1" stroke="black" cx="2135" cy="-1563.13" rx="100.96" ry="18"/>
<ellipse fill="none" stroke="black" cx="2135" cy="-1563.13" rx="104.97" ry="22"/>
<ellipse fill="none" stroke="black" cx="2135" cy="-1563.13" rx="108.98" ry="26"/>
<text text-anchor="middle" x="2135" y="-1559.43" font-family="Times,serif" font-size="14.00">positive_apart_zero</text>
</a>
</g>
</g>
<!-- rings_between_pos -->
<g id="node10" class="node">
<title>rings_between_pos</title>
<g id="a_node10"><a xlink:href="rings.html#between_pos" xlink:title="between_pos">
<ellipse fill="#f070d1" stroke="black" cx="2099" cy="-1089.13" rx="70.7" ry="18"/>
<ellipse fill="none" stroke="black" cx="2099" cy="-1089.13" rx="74.7" ry="22"/>
<ellipse fill="none" stroke="black" cx="2099" cy="-1089.13" rx="78.69" ry="26"/>
<text text-anchor="middle" x="2099" y="-1085.43" font-family="Times,serif" font-size="14.00">between_pos</text>
</a>
</g>
</g>
<!-- rings_flip_pos_negate -->
<g id="node19" class="node">
<title>rings_flip_pos_negate</title>
<g id="a_node19"><a xlink:href="rings.html#flip_pos_negate" xlink:title="flip_pos_negate">
<ellipse fill="#f070d1" stroke="black" cx="1982" cy="-615.13" rx="81.79" ry="18"/>
<text text-anchor="middle" x="1982" y="-611.43" font-family="Times,serif" font-size="14.00">flip_pos_negate</text>
</a>
</g>
</g>
<!-- rings_between_pos&#45;&gt;rings_flip_pos_negate -->
<g id="edge6" class="edge">
<title>rings_between_pos&#45;&gt;rings_flip_pos_negate</title>
<path fill="none" stroke="black" d="M2092.79,-1063.09C2072.68,-981.94 2009.4,-726.65 1988.65,-642.98"/>
<polygon fill="black" stroke="black" points="1992.04,-642.08 1986.23,-633.21 1985.24,-643.76 1992.04,-642.08"/>
</g>
<!-- rings_pos_minus_lt_compat_l -->
<g id="node11" class="node">
<title>rings_pos_minus_lt_compat_l</title>
<g id="a_node11"><a xlink:href="rings.html#pos_minus_lt_compat_l" xlink:title="pos_minus_lt_compat_l">
<ellipse fill="#f070d1" stroke="black" cx="1884" cy="-1563.13" rx="116.19" ry="18"/>
<ellipse fill="none" stroke="black" cx="1884" cy="-1563.13" rx="120.18" ry="22"/>
<ellipse fill="none" stroke="black" cx="1884" cy="-1563.13" rx="124.18" ry="26"/>
<text text-anchor="middle" x="1884" y="-1559.43" font-family="Times,serif" font-size="14.00">pos_minus_lt_compat_l</text>
</a>
</g>
</g>
<!-- rings_pos_minus_lt_compat_r -->
<g id="node12" class="node">
<title>rings_pos_minus_lt_compat_r</title>
<g id="a_node12"><a xlink:href="rings.html#pos_minus_lt_compat_r" xlink:title="pos_minus_lt_compat_r">
<ellipse fill="#f070d1" stroke="black" cx="1884" cy="-1089.13" rx="118.08" ry="18"/>
<text text-anchor="middle" x="1884" y="-1085.43" font-family="Times,serif" font-size="14.00">pos_minus_lt_compat_r</text>
</a>
</g>
</g>
<!-- rings_pos_minus_lt_compat_l&#45;&gt;rings_pos_minus_lt_compat_r -->
<g id="edge7" class="edge">
<title>rings_pos_minus_lt_compat_l&#45;&gt;rings_pos_minus_lt_compat_r</title>
<path fill="none" stroke="black" d="M1884,-1537.09C1884,-1456.02 1884,-1201.17 1884,-1117.24"/>
<polygon fill="black" stroke="black" points="1887.5,-1117.21 1884,-1107.21 1880.5,-1117.21 1887.5,-1117.21"/>
</g>
<!-- rings_pos_minus_lt_compat_r&#45;&gt;rings_flip_pos_negate -->
<g id="edge8" class="edge">
<title>rings_pos_minus_lt_compat_r&#45;&gt;rings_flip_pos_negate</title>
<path fill="none" stroke="black" d="M1887.55,-1071.05C1902.24,-1000.29 1958.41,-729.77 1976.41,-643.05"/>
<polygon fill="black" stroke="black" points="1979.85,-643.69 1978.46,-633.19 1973,-642.27 1979.85,-643.69"/>
</g>
<!-- rings_pos_minus_compat -->
<g id="node13" class="node">
<title>rings_pos_minus_compat</title>
<g id="a_node13"><a xlink:href="rings.html#pos_minus_compat" xlink:title="pos_minus_compat">
<ellipse fill="#f070d1" stroke="black" cx="1636" cy="-1563.13" rx="98.27" ry="18"/>
<ellipse fill="none" stroke="black" cx="1636" cy="-1563.13" rx="102.28" ry="22"/>
<ellipse fill="none" stroke="black" cx="1636" cy="-1563.13" rx="106.28" ry="26"/>
<text text-anchor="middle" x="1636" y="-1559.43" font-family="Times,serif" font-size="14.00">pos_minus_compat</text>
</a>
</g>
</g>
<!-- rings_flip_neg_minus -->
<g id="node14" class="node">
<title>rings_flip_neg_minus</title>
<g id="a_node14"><a xlink:href="rings.html#flip_neg_minus" xlink:title="flip_neg_minus">
<ellipse fill="#f070d1" stroke="black" cx="3725" cy="-1563.13" rx="79.11" ry="18"/>
<ellipse fill="none" stroke="black" cx="3725" cy="-1563.13" rx="83.1" ry="22"/>
<ellipse fill="none" stroke="black" cx="3725" cy="-1563.13" rx="87.09" ry="26"/>
<text text-anchor="middle" x="3725" y="-1559.43" font-family="Times,serif" font-size="14.00">flip_neg_minus</text>
</a>
</g>
</g>
<!-- rings_flip_lt_minus_l -->
<g id="node16" class="node">
<title>rings_flip_lt_minus_l</title>
<g id="a_node16"><a xlink:href="rings.html#flip_lt_minus_l" xlink:title="flip_lt_minus_l">
<ellipse fill="#f070d1" stroke="black" cx="3544" cy="-1089.13" rx="76.89" ry="18"/>
<text text-anchor="middle" x="3544" y="-1085.43" font-family="Times,serif" font-size="14.00">flip_lt_minus_l</text>
</a>
</g>
</g>
<!-- rings_flip_neg_minus&#45;&gt;rings_flip_lt_minus_l -->
<g id="edge9" class="edge">
<title>rings_flip_neg_minus&#45;&gt;rings_flip_lt_minus_l</title>
<path fill="none" stroke="black" d="M3715.4,-1537.09C3684.25,-1455.86 3586.18,-1200.13 3554.2,-1116.72"/>
<polygon fill="black" stroke="black" points="3557.4,-1115.3 3550.55,-1107.21 3550.86,-1117.8 3557.4,-1115.3"/>
</g>
<!-- rings_flip_pos_minus -->
<g id="node15" class="node">
<title>rings_flip_pos_minus</title>
<g id="a_node15"><a xlink:href="rings.html#flip_pos_minus" xlink:title="flip_pos_minus">
<ellipse fill="#f070d1" stroke="black" cx="3725" cy="-1089.13" rx="78.77" ry="18"/>
<ellipse fill="none" stroke="black" cx="3725" cy="-1089.13" rx="82.78" ry="22"/>
<ellipse fill="none" stroke="black" cx="3725" cy="-1089.13" rx="86.79" ry="26"/>
<text text-anchor="middle" x="3725" y="-1085.43" font-family="Times,serif" font-size="14.00">flip_pos_minus</text>
</a>
</g>
</g>
<!-- rings_flip_lt_minus_r -->
<g id="node17" class="node">
<title>rings_flip_lt_minus_r</title>
<g id="a_node17"><a xlink:href="rings.html#flip_lt_minus_r" xlink:title="flip_lt_minus_r">
<ellipse fill="#f070d1" stroke="black" cx="3634" cy="-615.13" rx="77.99" ry="18"/>
<text text-anchor="middle" x="3634" y="-611.43" font-family="Times,serif" font-size="14.00">flip_lt_minus_r</text>
</a>
</g>
</g>
<!-- rings_flip_pos_minus&#45;&gt;rings_flip_lt_minus_r -->
<g id="edge10" class="edge">
<title>rings_flip_pos_minus&#45;&gt;rings_flip_lt_minus_r</title>
<path fill="none" stroke="black" d="M3720.17,-1063.09C3704.54,-982.02 3655.41,-727.17 3639.23,-643.24"/>
<polygon fill="black" stroke="black" points="3642.62,-642.37 3637.29,-633.21 3635.75,-643.69 3642.62,-642.37"/>
</g>
<!-- rings_flip_lt_minus_l&#45;&gt;rings_flip_lt_minus_r -->
<g id="edge11" class="edge">
<title>rings_flip_lt_minus_l&#45;&gt;rings_flip_lt_minus_r</title>
<path fill="none" stroke="black" d="M3547.26,-1071.05C3560.75,-1000.29 3612.33,-729.77 3628.87,-643.05"/>
<polygon fill="black" stroke="black" points="3632.31,-643.67 3630.75,-633.19 3625.44,-642.35 3632.31,-643.67"/>
</g>
<!-- rings_flip_neg_negate -->
<g id="node18" class="node">
<title>rings_flip_neg_negate</title>
<g id="a_node18"><a xlink:href="rings.html#flip_neg_negate" xlink:title="flip_neg_negate">
<ellipse fill="#f070d1" stroke="black" cx="1657" cy="-1089.13" rx="83.37" ry="18"/>
<ellipse fill="none" stroke="black" cx="1657" cy="-1089.13" rx="87.38" ry="22"/>
<ellipse fill="none" stroke="black" cx="1657" cy="-1089.13" rx="91.39" ry="26"/>
<text text-anchor="middle" x="1657" y="-1085.43" font-family="Times,serif" font-size="14.00">flip_neg_negate</text>
</a>
</g>
</g>
<!-- rings_flip_neg_negate&#45;&gt;rings_flip_pos_negate -->
<g id="edge12" class="edge">
<title>rings_flip_neg_negate&#45;&gt;rings_flip_pos_negate</title>
<path fill="none" stroke="black" d="M1674.02,-1063.42C1729.97,-982.16 1907.9,-723.75 1964.52,-641.52"/>
<polygon fill="black" stroke="black" points="1967.43,-643.47 1970.21,-633.25 1961.66,-639.5 1967.43,-643.47"/>
</g>
<!-- rings_flip_lt_negate -->
<g id="node22" class="node">
<title>rings_flip_lt_negate</title>
<g id="a_node22"><a xlink:href="rings.html#flip_lt_negate" xlink:title="flip_lt_negate">
<ellipse fill="#f070d1" stroke="black" cx="2534" cy="-183.13" rx="72.59" ry="18"/>
<text text-anchor="middle" x="2534" y="-179.43" font-family="Times,serif" font-size="14.00">flip_lt_negate</text>
</a>
</g>
</g>
<!-- rings_flip_pos_negate&#45;&gt;rings_flip_lt_negate -->
<g id="edge13" class="edge">
<title>rings_flip_pos_negate&#45;&gt;rings_flip_lt_negate</title>
<path fill="none" stroke="black" d="M2003.3,-597.54C2088.78,-530.95 2407.01,-283.05 2505.06,-206.68"/>
<polygon fill="black" stroke="black" points="2507.32,-209.35 2513.06,-200.45 2503.02,-203.83 2507.32,-209.35"/>
</g>
<!-- rings_flip_lt_negate_l -->
<g id="node20" class="node">
<title>rings_flip_lt_negate_l</title>
<g id="a_node20"><a xlink:href="rings.html#flip_lt_negate_l" xlink:title="flip_lt_negate_l">
<ellipse fill="#f070d1" stroke="black" cx="2729" cy="-615.13" rx="79.89" ry="18"/>
<ellipse fill="none" stroke="black" cx="2729" cy="-615.13" rx="83.89" ry="22"/>
<ellipse fill="none" stroke="black" cx="2729" cy="-615.13" rx="87.89" ry="26"/>
<text text-anchor="middle" x="2729" y="-611.43" font-family="Times,serif" font-size="14.00">flip_lt_negate_l</text>
</a>
</g>
</g>
<!-- rings_flip_lt_negate_l&#45;&gt;rings_flip_lt_negate -->
<g id="edge14" class="edge">
<title>rings_flip_lt_negate_l&#45;&gt;rings_flip_lt_negate</title>
<path fill="none" stroke="black" d="M2717.67,-589.16C2683.44,-513.68 2581.28,-288.39 2546.08,-210.76"/>
<polygon fill="black" stroke="black" points="2549.07,-208.89 2541.75,-201.23 2542.7,-211.78 2549.07,-208.89"/>
</g>
<!-- rings_flip_lt_negate_r -->
<g id="node21" class="node">
<title>rings_flip_lt_negate_r</title>
<g id="a_node21"><a xlink:href="rings.html#flip_lt_negate_r" xlink:title="flip_lt_negate_r">
<ellipse fill="#f070d1" stroke="black" cx="2534" cy="-615.13" rx="81.46" ry="18"/>
<ellipse fill="none" stroke="black" cx="2534" cy="-615.13" rx="85.48" ry="22"/>
<ellipse fill="none" stroke="black" cx="2534" cy="-615.13" rx="89.49" ry="26"/>
<text text-anchor="middle" x="2534" y="-611.43" font-family="Times,serif" font-size="14.00">flip_lt_negate_r</text>
</a>
</g>
</g>
<!-- rings_flip_lt_negate_r&#45;&gt;rings_flip_lt_negate -->
<g id="edge15" class="edge">
<title>rings_flip_lt_negate_r&#45;&gt;rings_flip_lt_negate</title>
<path fill="none" stroke="black" d="M2534,-588.84C2534,-513.34 2534,-290 2534,-211.66"/>
<polygon fill="black" stroke="black" points="2537.5,-211.19 2534,-201.19 2530.5,-211.19 2537.5,-211.19"/>
</g>
<!-- rings_between_nonneg -->
<g id="node23" class="node">
<title>rings_between_nonneg</title>
<g id="a_node23"><a xlink:href="rings.html#between_nonneg" xlink:title="between_nonneg">
<ellipse fill="#f070d1" stroke="black" cx="551" cy="-1563.13" rx="89.08" ry="18"/>
<ellipse fill="none" stroke="black" cx="551" cy="-1563.13" rx="93.08" ry="22"/>
<ellipse fill="none" stroke="black" cx="551" cy="-1563.13" rx="97.08" ry="26"/>
<text text-anchor="middle" x="551" y="-1559.43" font-family="Times,serif" font-size="14.00">between_nonneg</text>
</a>
</g>
</g>
<!-- rings_flip_nonneg_negate -->
<g id="node31" class="node">
<title>rings_flip_nonneg_negate</title>
<g id="a_node31"><a xlink:href="rings.html#flip_nonneg_negate" xlink:title="flip_nonneg_negate">
<ellipse fill="#f070d1" stroke="black" cx="440" cy="-1089.13" rx="100.18" ry="18"/>
<text text-anchor="middle" x="440" y="-1085.43" font-family="Times,serif" font-size="14.00">flip_nonneg_negate</text>
</a>
</g>
</g>
<!-- rings_between_nonneg&#45;&gt;rings_flip_nonneg_negate -->
<g id="edge16" class="edge">
<title>rings_between_nonneg&#45;&gt;rings_flip_nonneg_negate</title>
<path fill="none" stroke="black" d="M545.11,-1537.09C526.03,-1455.94 465.99,-1200.65 446.31,-1116.98"/>
<polygon fill="black" stroke="black" points="449.71,-1116.15 444.02,-1107.21 442.9,-1117.75 449.71,-1116.15"/>
</g>
<!-- rings_nonneg_minus_compat_back -->
<g id="node24" class="node">
<title>rings_nonneg_minus_compat_back</title>
<g id="a_node24"><a xlink:href="rings.html#nonneg_minus_compat_back" xlink:title="nonneg_minus_compat_back">
<ellipse fill="#f070d1" stroke="black" cx="1362" cy="-1563.13" rx="141.87" ry="18"/>
<ellipse fill="none" stroke="black" cx="1362" cy="-1563.13" rx="145.87" ry="22"/>
<ellipse fill="none" stroke="black" cx="1362" cy="-1563.13" rx="149.88" ry="26"/>
<text text-anchor="middle" x="1362" y="-1559.43" font-family="Times,serif" font-size="14.00">nonneg_minus_compat_back</text>
</a>
</g>
</g>
<!-- rings_nonneg_minus_compat -->
<g id="node25" class="node">
<title>rings_nonneg_minus_compat</title>
<g id="a_node25"><a xlink:href="rings.html#nonneg_minus_compat" xlink:title="nonneg_minus_compat">
<ellipse fill="#f070d1" stroke="black" cx="1362" cy="-1089.13" rx="116.18" ry="18"/>
<text text-anchor="middle" x="1362" y="-1085.43" font-family="Times,serif" font-size="14.00">nonneg_minus_compat</text>
</a>
</g>
</g>
<!-- rings_nonneg_minus_compat_back&#45;&gt;rings_nonneg_minus_compat -->
<g id="edge17" class="edge">
<title>rings_nonneg_minus_compat_back&#45;&gt;rings_nonneg_minus_compat</title>
<path fill="none" stroke="black" d="M1362,-1537.09C1362,-1456.02 1362,-1201.17 1362,-1117.24"/>
<polygon fill="black" stroke="black" points="1365.5,-1117.21 1362,-1107.21 1358.5,-1117.21 1365.5,-1117.21"/>
</g>
<!-- rings_flip_nonpos_minus -->
<g id="node26" class="node">
<title>rings_flip_nonpos_minus</title>
<g id="a_node26"><a xlink:href="rings.html#flip_nonpos_minus" xlink:title="flip_nonpos_minus">
<ellipse fill="#f070d1" stroke="black" cx="1091" cy="-1563.13" rx="95.58" ry="18"/>
<ellipse fill="none" stroke="black" cx="1091" cy="-1563.13" rx="99.58" ry="22"/>
<ellipse fill="none" stroke="black" cx="1091" cy="-1563.13" rx="103.58" ry="26"/>
<text text-anchor="middle" x="1091" y="-1559.43" font-family="Times,serif" font-size="14.00">flip_nonpos_minus</text>
</a>
</g>
</g>
<!-- rings_flip_le_minus_l -->
<g id="node28" class="node">
<title>rings_flip_le_minus_l</title>
<g id="a_node28"><a xlink:href="rings.html#flip_le_minus_l" xlink:title="flip_le_minus_l">
<ellipse fill="#f070d1" stroke="black" cx="1051" cy="-1089.13" rx="77.99" ry="18"/>
<text text-anchor="middle" x="1051" y="-1085.43" font-family="Times,serif" font-size="14.00">flip_le_minus_l</text>
</a>
</g>
</g>
<!-- rings_flip_nonpos_minus&#45;&gt;rings_flip_le_minus_l -->
<g id="edge18" class="edge">
<title>rings_flip_nonpos_minus&#45;&gt;rings_flip_le_minus_l</title>
<path fill="none" stroke="black" d="M1088.88,-1537.09C1082.01,-1456.02 1060.41,-1201.17 1053.3,-1117.24"/>
<polygon fill="black" stroke="black" points="1056.78,-1116.88 1052.45,-1107.21 1049.8,-1117.47 1056.78,-1116.88"/>
</g>
<!-- rings_flip_le_minus_r -->
<g id="node29" class="node">
<title>rings_flip_le_minus_r</title>
<g id="a_node29"><a xlink:href="rings.html#flip_le_minus_r" xlink:title="flip_le_minus_r">
<ellipse fill="#f070d1" stroke="black" cx="954" cy="-615.13" rx="79.09" ry="18"/>
<text text-anchor="middle" x="954" y="-611.43" font-family="Times,serif" font-size="14.00">flip_le_minus_r</text>
</a>
</g>
</g>
<!-- rings_flip_nonneg_minus&#45;&gt;rings_flip_le_minus_r -->
<g id="edge19" class="edge">
<title>rings_flip_nonneg_minus&#45;&gt;rings_flip_le_minus_r</title>
<path fill="none" stroke="black" d="M842.2,-1071.05C859.59,-1000.29 926.07,-729.77 947.38,-643.05"/>
<polygon fill="black" stroke="black" points="950.82,-643.73 949.81,-633.19 944.02,-642.06 950.82,-643.73"/>
</g>
<!-- rings_flip_le_minus_l&#45;&gt;rings_flip_le_minus_r -->
<g id="edge20" class="edge">
<title>rings_flip_le_minus_l&#45;&gt;rings_flip_le_minus_r</title>
<path fill="none" stroke="black" d="M1047.49,-1071.05C1032.95,-1000.29 977.35,-729.77 959.53,-643.05"/>
<polygon fill="black" stroke="black" points="962.95,-642.28 957.5,-633.19 956.09,-643.69 962.95,-642.28"/>
</g>
<!-- rings_flip_nonpos_negate -->
<g id="node30" class="node">
<title>rings_flip_nonpos_negate</title>
<g id="a_node30"><a xlink:href="rings.html#flip_nonpos_negate" xlink:title="flip_nonpos_negate">
<ellipse fill="#f070d1" stroke="black" cx="329" cy="-1563.13" rx="98.6" ry="18"/>
<ellipse fill="none" stroke="black" cx="329" cy="-1563.13" rx="102.59" ry="22"/>
<ellipse fill="none" stroke="black" cx="329" cy="-1563.13" rx="106.58" ry="26"/>
<text text-anchor="middle" x="329" y="-1559.43" font-family="Times,serif" font-size="14.00">flip_nonpos_negate</text>
</a>
</g>
</g>
<!-- rings_flip_nonpos_negate&#45;&gt;rings_flip_nonneg_negate -->
<g id="edge21" class="edge">
<title>rings_flip_nonpos_negate&#45;&gt;rings_flip_nonneg_negate</title>
<path fill="none" stroke="black" d="M334.89,-1537.09C353.97,-1455.94 414.01,-1200.65 433.69,-1116.98"/>
<polygon fill="black" stroke="black" points="437.1,-1117.75 435.98,-1107.21 430.29,-1116.15 437.1,-1117.75"/>
</g>
<!-- rings_flip_le_negate -->
<g id="node32" class="node">
<title>rings_flip_le_negate</title>
<g id="a_node32"><a xlink:href="rings.html#flip_le_negate" xlink:title="flip_le_negate">
<ellipse fill="#f070d1" stroke="black" cx="440" cy="-615.13" rx="74.19" ry="18"/>
<text text-anchor="middle" x="440" y="-611.43" font-family="Times,serif" font-size="14.00">flip_le_negate</text>
</a>
</g>
</g>
<!-- rings_flip_nonneg_negate&#45;&gt;rings_flip_le_negate -->
<g id="edge22" class="edge">
<title>rings_flip_nonneg_negate&#45;&gt;rings_flip_le_negate</title>
<path fill="none" stroke="black" d="M440,-1071.05C440,-1000.37 440,-730.32 440,-643.32"/>
<polygon fill="black" stroke="black" points="443.5,-643.19 440,-633.19 436.5,-643.19 443.5,-643.19"/>
</g>
<!-- rings_from_full_pseudo_ring_order -->
<g id="node33" class="node">
<title>rings_from_full_pseudo_ring_order</title>
<g id="a_node33"><a xlink:href="rings.html#from_full_pseudo_ring_order" xlink:title="from_full_pseudo_ring_order">
<ellipse fill="#f070d1" stroke="black" cx="2347" cy="-1089.13" rx="142.98" ry="18"/>
<ellipse fill="none" stroke="black" cx="2347" cy="-1089.13" rx="146.97" ry="22"/>
<ellipse fill="none" stroke="black" cx="2347" cy="-1089.13" rx="150.97" ry="26"/>
<text text-anchor="middle" x="2347" y="-1085.43" font-family="Times,serif" font-size="14.00">from_full_pseudo_ring_order</text>
</a>
</g>
</g>
<!-- rings_from_full_pseudo_ring_order&#45;&gt;rings_from_pseudo_ring_order -->
<g id="edge23" class="edge">
<title>rings_from_full_pseudo_ring_order&#45;&gt;rings_from_pseudo_ring_order</title>
<path fill="none" stroke="black" d="M2344.67,-1063.09C2337.11,-982.02 2313.35,-727.17 2305.53,-643.24"/>
<polygon fill="black" stroke="black" points="2309.01,-642.84 2304.59,-633.21 2302.04,-643.49 2309.01,-642.84"/>
</g>
<!-- rings_from_ring_order -->
<g id="node36" class="node">
<title>rings_from_ring_order</title>
<g id="a_node36"><a xlink:href="rings.html#from_ring_order" xlink:title="from_ring_order">
<ellipse fill="#f070d1" stroke="black" cx="110" cy="-1563.13" rx="85.6" ry="18"/>
<ellipse fill="none" stroke="black" cx="110" cy="-1563.13" rx="89.59" ry="22"/>
<ellipse fill="none" stroke="black" cx="110" cy="-1563.13" rx="93.59" ry="26"/>
<text text-anchor="middle" x="110" y="-1559.43" font-family="Times,serif" font-size="14.00">from_ring_order</text>
</a>
</g>
</g>
</g>
</svg>
