<?xml version="1.0" encoding="UTF-8" standalone="no"?>
<!DOCTYPE svg PUBLIC "-//W3C//DTD SVG 1.1//EN"
 "http://www.w3.org/Graphics/SVG/1.1/DTD/svg11.dtd">
<!-- Generated by graphviz version 2.43.0 (0)
 -->
<!-- Title: HoTT_Constant Pages: 1 -->
<svg width="1726pt" height="867pt"
 viewBox="0.00 0.00 1726.00 867.00" xmlns="http://www.w3.org/2000/svg" xmlns:xlink="http://www.w3.org/1999/xlink">
<g id="graph0" class="graph" transform="scale(1 1) rotate(0) translate(4 863)">
<title>HoTT_Constant</title>
<polygon fill="white" stroke="transparent" points="-4,4 -4,-863 1722,-863 1722,4 -4,4"/>
<g id="clust1" class="cluster">
<title>cluster_Constant</title>
<polygon fill="#ffffc3" stroke="black" points="8,-9.83 8,-849.17 1710,-849.17 1710,-9.83 8,-9.83"/>
<text text-anchor="middle" x="48.5" y="-833.97" font-family="Times,serif" font-size="14.00">Constant</text>
</g>
<!-- Constant_equiv_merely_rec_hset_if_domain -->
<g id="node1" class="node">
<title>Constant_equiv_merely_rec_hset_if_domain</title>
<g id="a_node1"><a xlink:href="Constant.html#equiv_merely_rec_hset_if_domain" xlink:title="equiv_merely_rec_hset_if_domain">
<ellipse fill="#f070d1" stroke="black" cx="1124" cy="-778.83" rx="165.17" ry="18"/>
<ellipse fill="none" stroke="black" cx="1124" cy="-778.83" rx="169.17" ry="22"/>
<ellipse fill="none" stroke="black" cx="1124" cy="-778.83" rx="173.17" ry="26"/>
<text text-anchor="middle" x="1124" y="-775.13" font-family="Times,serif" font-size="14.00">equiv_merely_rec_hset_if_domain</text>
</a>
</g>
</g>
<!-- Constant_merely_rec_hset_if_domain -->
<g id="node2" class="node">
<title>Constant_merely_rec_hset_if_domain</title>
<g id="a_node2"><a xlink:href="Constant.html#merely_rec_hset_if_domain" xlink:title="merely_rec_hset_if_domain">
<ellipse fill="#f070d1" stroke="black" cx="1121" cy="-680.83" rx="135.68" ry="18"/>
<text text-anchor="middle" x="1121" y="-677.13" font-family="Times,serif" font-size="14.00">merely_rec_hset_if_domain</text>
</a>
</g>
</g>
<!-- Constant_equiv_merely_rec_hset_if_domain&#45;&gt;Constant_merely_rec_hset_if_domain -->
<g id="edge1" class="edge">
<title>Constant_equiv_merely_rec_hset_if_domain&#45;&gt;Constant_merely_rec_hset_if_domain</title>
<path fill="none" stroke="black" d="M1123.21,-752.61C1122.8,-739.28 1122.28,-722.91 1121.86,-709.27"/>
<polygon fill="black" stroke="black" points="1125.35,-708.91 1121.54,-699.02 1118.35,-709.13 1125.35,-708.91"/>
</g>
<!-- Constant_cconst_wconst_hset_if_domain -->
<g id="node3" class="node">
<title>Constant_cconst_wconst_hset_if_domain</title>
<g id="a_node3"><a xlink:href="Constant.html#cconst_wconst_hset_if_domain" xlink:title="cconst_wconst_hset_if_domain">
<ellipse fill="#f070d1" stroke="black" cx="1116" cy="-591.83" rx="151.37" ry="18"/>
<text text-anchor="middle" x="1116" y="-588.13" font-family="Times,serif" font-size="14.00">cconst_wconst_hset_if_domain</text>
</a>
</g>
</g>
<!-- Constant_merely_rec_hset_if_domain&#45;&gt;Constant_cconst_wconst_hset_if_domain -->
<g id="edge2" class="edge">
<title>Constant_merely_rec_hset_if_domain&#45;&gt;Constant_cconst_wconst_hset_if_domain</title>
<path fill="none" stroke="black" d="M1120.01,-662.64C1119.31,-650.49 1118.36,-633.94 1117.56,-620.01"/>
<polygon fill="black" stroke="black" points="1121.05,-619.77 1116.99,-609.98 1114.07,-620.17 1121.05,-619.77"/>
</g>
<!-- Constant_cconst_wconst_hset_if_merely_domain -->
<g id="node7" class="node">
<title>Constant_cconst_wconst_hset_if_merely_domain</title>
<g id="a_node7"><a xlink:href="Constant.html#cconst_wconst_hset_if_merely_domain" xlink:title="cconst_wconst_hset_if_merely_domain">
<ellipse fill="#f070d1" stroke="black" cx="865" cy="-503.83" rx="187.67" ry="18"/>
<text text-anchor="middle" x="865" y="-500.13" font-family="Times,serif" font-size="14.00">cconst_wconst_hset_if_merely_domain</text>
</a>
</g>
</g>
<!-- Constant_cconst_wconst_hset_if_domain&#45;&gt;Constant_cconst_wconst_hset_if_merely_domain -->
<g id="edge3" class="edge">
<title>Constant_cconst_wconst_hset_if_domain&#45;&gt;Constant_cconst_wconst_hset_if_merely_domain</title>
<path fill="none" stroke="black" d="M1068.79,-574.66C1027.38,-560.47 967.03,-539.79 922.76,-524.62"/>
<polygon fill="black" stroke="black" points="923.88,-521.3 913.28,-521.37 921.61,-527.93 923.88,-521.3"/>
</g>
<!-- Constant_merely_rec_hset_beta -->
<g id="node4" class="node">
<title>Constant_merely_rec_hset_beta</title>
<g id="a_node4"><a xlink:href="Constant.html#merely_rec_hset_beta" xlink:title="merely_rec_hset_beta">
<ellipse fill="#f070d1" stroke="black" cx="814" cy="-778.83" rx="111.27" ry="18"/>
<ellipse fill="none" stroke="black" cx="814" cy="-778.83" rx="115.28" ry="22"/>
<ellipse fill="none" stroke="black" cx="814" cy="-778.83" rx="119.28" ry="26"/>
<text text-anchor="middle" x="814" y="-775.13" font-family="Times,serif" font-size="14.00">merely_rec_hset_beta</text>
</a>
</g>
</g>
<!-- Constant_merely_rec_hset -->
<g id="node5" class="node">
<title>Constant_merely_rec_hset</title>
<g id="a_node5"><a xlink:href="Constant.html#merely_rec_hset" xlink:title="merely_rec_hset">
<ellipse fill="#f070d1" stroke="black" cx="816" cy="-680.83" rx="86.38" ry="18"/>
<text text-anchor="middle" x="816" y="-677.13" font-family="Times,serif" font-size="14.00">merely_rec_hset</text>
</a>
</g>
</g>
<!-- Constant_merely_rec_hset_beta&#45;&gt;Constant_merely_rec_hset -->
<g id="edge4" class="edge">
<title>Constant_merely_rec_hset_beta&#45;&gt;Constant_merely_rec_hset</title>
<path fill="none" stroke="black" d="M814.53,-752.61C814.8,-739.28 815.14,-722.91 815.43,-709.27"/>
<polygon fill="black" stroke="black" points="818.93,-709.09 815.64,-699.02 811.93,-708.95 818.93,-709.09"/>
</g>
<!-- Constant_cconst_wconst_hset -->
<g id="node6" class="node">
<title>Constant_cconst_wconst_hset</title>
<g id="a_node6"><a xlink:href="Constant.html#cconst_wconst_hset" xlink:title="cconst_wconst_hset">
<ellipse fill="#f070d1" stroke="black" cx="835" cy="-591.83" rx="102.08" ry="18"/>
<text text-anchor="middle" x="835" y="-588.13" font-family="Times,serif" font-size="14.00">cconst_wconst_hset</text>
</a>
</g>
</g>
<!-- Constant_merely_rec_hset&#45;&gt;Constant_cconst_wconst_hset -->
<g id="edge5" class="edge">
<title>Constant_merely_rec_hset&#45;&gt;Constant_cconst_wconst_hset</title>
<path fill="none" stroke="black" d="M819.75,-662.64C822.41,-650.49 826.02,-633.94 829.06,-620.01"/>
<polygon fill="black" stroke="black" points="832.54,-620.5 831.25,-609.98 825.7,-619.01 832.54,-620.5"/>
</g>
<!-- Constant_cconst_wconst_hset&#45;&gt;Constant_cconst_wconst_hset_if_merely_domain -->
<g id="edge6" class="edge">
<title>Constant_cconst_wconst_hset&#45;&gt;Constant_cconst_wconst_hset_if_merely_domain</title>
<path fill="none" stroke="black" d="M840.93,-573.84C845.13,-561.79 850.86,-545.37 855.67,-531.57"/>
<polygon fill="black" stroke="black" points="858.99,-532.68 858.98,-522.08 852.38,-530.37 858.99,-532.68"/>
</g>
<!-- Constant_hprop_image_wconst_hset_if_merely_domain -->
<g id="node8" class="node">
<title>Constant_hprop_image_wconst_hset_if_merely_domain</title>
<g id="a_node8"><a xlink:href="Constant.html#hprop_image_wconst_hset_if_merely_domain" xlink:title="hprop_image_wconst_hset_if_merely_domain">
<ellipse fill="#f070d1" stroke="black" cx="1188" cy="-405.83" rx="217.96" ry="18"/>
<text text-anchor="middle" x="1188" y="-402.13" font-family="Times,serif" font-size="14.00">hprop_image_wconst_hset_if_merely_domain</text>
</a>
</g>
</g>
<!-- Constant_cconst_wconst_hset_if_merely_domain&#45;&gt;Constant_hprop_image_wconst_hset_if_merely_domain -->
<g id="edge7" class="edge">
<title>Constant_cconst_wconst_hset_if_merely_domain&#45;&gt;Constant_hprop_image_wconst_hset_if_merely_domain</title>
<path fill="none" stroke="black" d="M919.79,-486.55C975.97,-469.85 1063.33,-443.88 1122.97,-426.16"/>
<polygon fill="black" stroke="black" points="1124.08,-429.48 1132.67,-423.28 1122.09,-422.77 1124.08,-429.48"/>
</g>
<!-- Constant_cconst_factors_hprop -->
<g id="node11" class="node">
<title>Constant_cconst_factors_hprop</title>
<g id="a_node11"><a xlink:href="Constant.html#cconst_factors_hprop" xlink:title="cconst_factors_hprop">
<ellipse fill="#f070d1" stroke="black" cx="543" cy="-405.83" rx="108.58" ry="18"/>
<text text-anchor="middle" x="543" y="-402.13" font-family="Times,serif" font-size="14.00">cconst_factors_hprop</text>
</a>
</g>
</g>
<!-- Constant_cconst_wconst_hset_if_merely_domain&#45;&gt;Constant_cconst_factors_hprop -->
<g id="edge8" class="edge">
<title>Constant_cconst_wconst_hset_if_merely_domain&#45;&gt;Constant_cconst_factors_hprop</title>
<path fill="none" stroke="black" d="M810.38,-486.55C752.84,-469.39 662.5,-442.46 603.01,-424.72"/>
<polygon fill="black" stroke="black" points="603.96,-421.35 593.38,-421.85 601.96,-428.06 603.96,-421.35"/>
</g>
<!-- Constant_cconst_wconst_collapsible -->
<g id="node9" class="node">
<title>Constant_cconst_wconst_collapsible</title>
<g id="a_node9"><a xlink:href="Constant.html#cconst_wconst_collapsible" xlink:title="cconst_wconst_collapsible">
<ellipse fill="#f070d1" stroke="black" cx="1563" cy="-405.83" rx="131.09" ry="18"/>
<ellipse fill="none" stroke="black" cx="1563" cy="-405.83" rx="135.08" ry="22"/>
<ellipse fill="none" stroke="black" cx="1563" cy="-405.83" rx="139.08" ry="26"/>
<text text-anchor="middle" x="1563" y="-402.13" font-family="Times,serif" font-size="14.00">cconst_wconst_collapsible</text>
</a>
</g>
</g>
<!-- Constant_ConditionallyConstant -->
<g id="node14" class="node">
<title>Constant_ConditionallyConstant</title>
<g id="a_node14"><a xlink:href="Constant.html#ConditionallyConstant" xlink:title="ConditionallyConstant">
<ellipse fill="#f070d1" stroke="black" cx="543" cy="-306.83" rx="114.28" ry="18"/>
<text text-anchor="middle" x="543" y="-303.13" font-family="Times,serif" font-size="14.00">ConditionallyConstant</text>
</a>
</g>
</g>
<!-- Constant_cconst_wconst_collapsible&#45;&gt;Constant_ConditionallyConstant -->
<g id="edge9" class="edge">
<title>Constant_cconst_wconst_collapsible&#45;&gt;Constant_ConditionallyConstant</title>
<path fill="none" stroke="black" d="M1465.65,-387.18C1448.8,-384.47 1431.42,-381.89 1415,-379.83 1145.26,-345.97 826.49,-324.27 659.07,-314.27"/>
<polygon fill="black" stroke="black" points="659.2,-310.77 649.01,-313.67 658.78,-317.76 659.2,-310.77"/>
</g>
<!-- Constant_splitsupp_collapsible -->
<g id="node16" class="node">
<title>Constant_splitsupp_collapsible</title>
<g id="a_node16"><a xlink:href="Constant.html#splitsupp_collapsible" xlink:title="splitsupp_collapsible">
<ellipse fill="#f070d1" stroke="black" cx="1563" cy="-306.83" rx="107.48" ry="18"/>
<text text-anchor="middle" x="1563" y="-303.13" font-family="Times,serif" font-size="14.00">splitsupp_collapsible</text>
</a>
</g>
</g>
<!-- Constant_cconst_wconst_collapsible&#45;&gt;Constant_splitsupp_collapsible -->
<g id="edge10" class="edge">
<title>Constant_cconst_wconst_collapsible&#45;&gt;Constant_splitsupp_collapsible</title>
<path fill="none" stroke="black" d="M1563,-379.6C1563,-365.91 1563,-348.98 1563,-335"/>
<polygon fill="black" stroke="black" points="1566.5,-334.99 1563,-324.99 1559.5,-334.99 1566.5,-334.99"/>
</g>
<!-- Constant_cconst_factors_contr -->
<g id="node10" class="node">
<title>Constant_cconst_factors_contr</title>
<g id="a_node10"><a xlink:href="Constant.html#cconst_factors_contr" xlink:title="cconst_factors_contr">
<ellipse fill="#f070d1" stroke="black" cx="130" cy="-405.83" rx="105.89" ry="18"/>
<ellipse fill="none" stroke="black" cx="130" cy="-405.83" rx="109.88" ry="22"/>
<ellipse fill="none" stroke="black" cx="130" cy="-405.83" rx="113.88" ry="26"/>
<text text-anchor="middle" x="130" y="-402.13" font-family="Times,serif" font-size="14.00">cconst_factors_contr</text>
</a>
</g>
</g>
<!-- Constant_cconst_factors_contr&#45;&gt;Constant_ConditionallyConstant -->
<g id="edge11" class="edge">
<title>Constant_cconst_factors_contr&#45;&gt;Constant_ConditionallyConstant</title>
<path fill="none" stroke="black" d="M207.2,-386.7C283.23,-368.84 398.41,-341.79 472.17,-324.47"/>
<polygon fill="black" stroke="black" points="473.36,-327.78 482.29,-322.09 471.75,-320.97 473.36,-327.78"/>
</g>
<!-- Constant_cconst_factors_hprop&#45;&gt;Constant_ConditionallyConstant -->
<g id="edge12" class="edge">
<title>Constant_cconst_factors_hprop&#45;&gt;Constant_ConditionallyConstant</title>
<path fill="none" stroke="black" d="M543,-387.49C543,-373.01 543,-352.09 543,-335.33"/>
<polygon fill="black" stroke="black" points="546.5,-335.02 543,-325.02 539.5,-335.02 546.5,-335.02"/>
</g>
<!-- Constant_equiv_cconst_from_merely -->
<g id="node12" class="node">
<title>Constant_equiv_cconst_from_merely</title>
<g id="a_node12"><a xlink:href="Constant.html#equiv_cconst_from_merely" xlink:title="equiv_cconst_from_merely">
<ellipse fill="#f070d1" stroke="black" cx="811" cy="-405.83" rx="133.46" ry="18"/>
<ellipse fill="none" stroke="black" cx="811" cy="-405.83" rx="137.47" ry="22"/>
<ellipse fill="none" stroke="black" cx="811" cy="-405.83" rx="141.48" ry="26"/>
<text text-anchor="middle" x="811" y="-402.13" font-family="Times,serif" font-size="14.00">equiv_cconst_from_merely</text>
</a>
</g>
</g>
<!-- Constant_equiv_cconst_from_merely&#45;&gt;Constant_ConditionallyConstant -->
<g id="edge13" class="edge">
<title>Constant_equiv_cconst_from_merely&#45;&gt;Constant_ConditionallyConstant</title>
<path fill="none" stroke="black" d="M748.84,-382.33C702.55,-365.58 640.02,-342.95 596.07,-327.04"/>
<polygon fill="black" stroke="black" points="597.03,-323.66 586.43,-323.55 594.64,-330.25 597.03,-323.66"/>
</g>
<!-- Constant_cconst_const -->
<g id="node13" class="node">
<title>Constant_cconst_const</title>
<g id="a_node13"><a xlink:href="Constant.html#cconst_const" xlink:title="cconst_const">
<ellipse fill="#f070d1" stroke="black" cx="339" cy="-405.83" rx="69.58" ry="18"/>
<ellipse fill="none" stroke="black" cx="339" cy="-405.83" rx="73.59" ry="22"/>
<ellipse fill="none" stroke="black" cx="339" cy="-405.83" rx="77.59" ry="26"/>
<text text-anchor="middle" x="339" y="-402.13" font-family="Times,serif" font-size="14.00">cconst_const</text>
</a>
</g>
</g>
<!-- Constant_cconst_const&#45;&gt;Constant_ConditionallyConstant -->
<g id="edge14" class="edge">
<title>Constant_cconst_const&#45;&gt;Constant_ConditionallyConstant</title>
<path fill="none" stroke="black" d="M382.51,-384.14C416.95,-367.76 464.83,-345 499.32,-328.6"/>
<polygon fill="black" stroke="black" points="501.14,-331.61 508.67,-324.16 498.13,-325.29 501.14,-331.61"/>
</g>
<!-- Constant_collapsible_splitsupp -->
<g id="node15" class="node">
<title>Constant_collapsible_splitsupp</title>
<g id="a_node15"><a xlink:href="Constant.html#collapsible_splitsupp" xlink:title="collapsible_splitsupp">
<ellipse fill="#f070d1" stroke="black" cx="482" cy="-778.83" rx="107.46" ry="18"/>
<ellipse fill="none" stroke="black" cx="482" cy="-778.83" rx="111.47" ry="22"/>
<ellipse fill="none" stroke="black" cx="482" cy="-778.83" rx="115.48" ry="26"/>
<text text-anchor="middle" x="482" y="-775.13" font-family="Times,serif" font-size="14.00">collapsible_splitsupp</text>
</a>
</g>
</g>
<!-- Constant_equiv_fix_merely -->
<g id="node17" class="node">
<title>Constant_equiv_fix_merely</title>
<g id="a_node17"><a xlink:href="Constant.html#equiv_fix_merely" xlink:title="equiv_fix_merely">
<ellipse fill="#f070d1" stroke="black" cx="1563" cy="-218.83" rx="88.28" ry="18"/>
<text text-anchor="middle" x="1563" y="-215.13" font-family="Times,serif" font-size="14.00">equiv_fix_merely</text>
</a>
</g>
</g>
<!-- Constant_splitsupp_collapsible&#45;&gt;Constant_equiv_fix_merely -->
<g id="edge15" class="edge">
<title>Constant_splitsupp_collapsible&#45;&gt;Constant_equiv_fix_merely</title>
<path fill="none" stroke="black" d="M1563,-288.43C1563,-276.58 1563,-260.65 1563,-247.12"/>
<polygon fill="black" stroke="black" points="1566.5,-246.92 1563,-236.92 1559.5,-246.92 1566.5,-246.92"/>
</g>
<!-- Constant_ishprop_fix_wconst -->
<g id="node18" class="node">
<title>Constant_ishprop_fix_wconst</title>
<g id="a_node18"><a xlink:href="Constant.html#ishprop_fix_wconst" xlink:title="ishprop_fix_wconst">
<ellipse fill="#f070d1" stroke="black" cx="1563" cy="-129.83" rx="98.58" ry="18"/>
<text text-anchor="middle" x="1563" y="-126.13" font-family="Times,serif" font-size="14.00">ishprop_fix_wconst</text>
</a>
</g>
</g>
<!-- Constant_equiv_fix_merely&#45;&gt;Constant_ishprop_fix_wconst -->
<g id="edge16" class="edge">
<title>Constant_equiv_fix_merely&#45;&gt;Constant_ishprop_fix_wconst</title>
<path fill="none" stroke="black" d="M1563,-200.64C1563,-188.49 1563,-171.94 1563,-158.01"/>
<polygon fill="black" stroke="black" points="1566.5,-157.98 1563,-147.98 1559.5,-157.98 1566.5,-157.98"/>
</g>
<!-- Constant_FixedBy -->
<g id="node19" class="node">
<title>Constant_FixedBy</title>
<g id="a_node19"><a xlink:href="Constant.html#FixedBy" xlink:title="FixedBy">
<ellipse fill="#f070d1" stroke="black" cx="1563" cy="-41.83" rx="48.99" ry="18"/>
<text text-anchor="middle" x="1563" y="-38.13" font-family="Times,serif" font-size="14.00">FixedBy</text>
</a>
</g>
</g>
<!-- Constant_ishprop_fix_wconst&#45;&gt;Constant_FixedBy -->
<g id="edge17" class="edge">
<title>Constant_ishprop_fix_wconst&#45;&gt;Constant_FixedBy</title>
<path fill="none" stroke="black" d="M1563,-111.43C1563,-99.58 1563,-83.65 1563,-70.12"/>
<polygon fill="black" stroke="black" points="1566.5,-69.92 1563,-59.92 1559.5,-69.92 1566.5,-69.92"/>
</g>
</g>
</svg>
