<?xml version="1.0" encoding="UTF-8" standalone="no"?>
<!DOCTYPE svg PUBLIC "-//W3C//DTD SVG 1.1//EN"
 "http://www.w3.org/Graphics/SVG/1.1/DTD/svg11.dtd">
<!-- Generated by graphviz version 2.43.0 (0)
 -->
<!-- Title: HoTT_Modalities_Closed Pages: 1 -->
<svg width="654pt" height="331pt"
 viewBox="0.00 0.00 654.00 331.00" xmlns="http://www.w3.org/2000/svg" xmlns:xlink="http://www.w3.org/1999/xlink">
<g id="graph0" class="graph" transform="scale(1 1) rotate(0) translate(4 327)">
<title>HoTT_Modalities_Closed</title>
<polygon fill="white" stroke="transparent" points="-4,4 -4,-327 650,-327 650,4 -4,4"/>
<g id="clust1" class="cluster">
<title>cluster_Closed</title>
<polygon fill="#ffffc3" stroke="black" points="11.09,-8 11.09,-315 634.91,-315 634.91,-8 11.09,-8"/>
<text text-anchor="middle" x="43.59" y="-299.8" font-family="Times,serif" font-size="14.00">Closed</text>
</g>
<!-- Closed_Cl_ -->
<g id="node1" class="node">
<title>Closed_Cl_</title>
<g id="a_node1"><a xlink:href="Closed.html#Cl'" xlink:title="Cl&#39;">
<ellipse fill="#f070d1" stroke="black" cx="575.49" cy="-258" rx="27" ry="18"/>
<ellipse fill="none" stroke="black" cx="575.49" cy="-258" rx="31" ry="22"/>
<ellipse fill="none" stroke="black" cx="575.49" cy="-258" rx="35" ry="26"/>
<text text-anchor="middle" x="575.49" y="-254.3" font-family="Times,serif" font-size="14.00">Cl&#39;</text>
</a>
</g>
</g>
<!-- Closed_lex_closed -->
<g id="node2" class="node">
<title>Closed_lex_closed</title>
<g id="a_node2"><a xlink:href="Closed.html#lex_closed" xlink:title="lex_closed">
<ellipse fill="#f070d1" stroke="black" cx="410.49" cy="-258" rx="57.71" ry="18"/>
<ellipse fill="none" stroke="black" cx="410.49" cy="-258" rx="61.7" ry="22"/>
<ellipse fill="none" stroke="black" cx="410.49" cy="-258" rx="65.69" ry="26"/>
<text text-anchor="middle" x="410.49" y="-254.3" font-family="Times,serif" font-size="14.00">lex_closed</text>
</a>
</g>
</g>
<!-- Closed_topological_closed -->
<g id="node3" class="node">
<title>Closed_topological_closed</title>
<g id="a_node3"><a xlink:href="Closed.html#topological_closed" xlink:title="topological_closed">
<ellipse fill="#f070d1" stroke="black" cx="410.49" cy="-178" rx="94.78" ry="18"/>
<text text-anchor="middle" x="410.49" y="-174.3" font-family="Times,serif" font-size="14.00">topological_closed</text>
</a>
</g>
</g>
<!-- Closed_lex_closed&#45;&gt;Closed_topological_closed -->
<g id="edge1" class="edge">
<title>Closed_lex_closed&#45;&gt;Closed_topological_closed</title>
<path fill="none" stroke="black" d="M410.49,-231.89C410.49,-223.84 410.49,-214.88 410.49,-206.66"/>
<polygon fill="black" stroke="black" points="413.99,-206.41 410.49,-196.41 406.99,-206.41 413.99,-206.41"/>
</g>
<!-- Closed_accmodality_closed -->
<g id="node4" class="node">
<title>Closed_accmodality_closed</title>
<g id="a_node4"><a xlink:href="Closed.html#accmodality_closed" xlink:title="accmodality_closed">
<ellipse fill="#f070d1" stroke="black" cx="410.49" cy="-106" rx="100.18" ry="18"/>
<text text-anchor="middle" x="410.49" y="-102.3" font-family="Times,serif" font-size="14.00">accmodality_closed</text>
</a>
</g>
</g>
<!-- Closed_topological_closed&#45;&gt;Closed_accmodality_closed -->
<g id="edge2" class="edge">
<title>Closed_topological_closed&#45;&gt;Closed_accmodality_closed</title>
<path fill="none" stroke="black" d="M410.49,-159.7C410.49,-151.98 410.49,-142.71 410.49,-134.11"/>
<polygon fill="black" stroke="black" points="413.99,-134.1 410.49,-124.1 406.99,-134.1 413.99,-134.1"/>
</g>
<!-- Closed_Cl -->
<g id="node5" class="node">
<title>Closed_Cl</title>
<g id="a_node5"><a xlink:href="Closed.html#Cl" xlink:title="Cl">
<ellipse fill="#f070d1" stroke="black" cx="410.49" cy="-34" rx="27" ry="18"/>
<text text-anchor="middle" x="410.49" y="-30.3" font-family="Times,serif" font-size="14.00">Cl</text>
</a>
</g>
</g>
<!-- Closed_accmodality_closed&#45;&gt;Closed_Cl -->
<g id="edge3" class="edge">
<title>Closed_accmodality_closed&#45;&gt;Closed_Cl</title>
<path fill="none" stroke="black" d="M410.49,-87.7C410.49,-79.98 410.49,-70.71 410.49,-62.11"/>
<polygon fill="black" stroke="black" points="413.99,-62.1 410.49,-52.1 406.99,-62.1 413.99,-62.1"/>
</g>
<!-- Closed_equiv_inO_closed -->
<g id="node6" class="node">
<title>Closed_equiv_inO_closed</title>
<g id="a_node6"><a xlink:href="Closed.html#equiv_inO_closed" xlink:title="equiv_inO_closed">
<ellipse fill="#f070d1" stroke="black" cx="158.49" cy="-258" rx="90.2" ry="18"/>
<ellipse fill="none" stroke="black" cx="158.49" cy="-258" rx="94.19" ry="22"/>
<ellipse fill="none" stroke="black" cx="158.49" cy="-258" rx="98.18" ry="26"/>
<text text-anchor="middle" x="158.49" y="-254.3" font-family="Times,serif" font-size="14.00">equiv_inO_closed</text>
</a>
</g>
</g>
</g>
</svg>
