<?xml version="1.0" encoding="UTF-8" standalone="no"?>
<!DOCTYPE svg PUBLIC "-//W3C//DTD SVG 1.1//EN"
 "http://www.w3.org/Graphics/SVG/1.1/DTD/svg11.dtd">
<!-- Generated by graphviz version 2.43.0 (0)
 -->
<!-- Title: HoTT_Algebra_AbGroups_Abelianization Pages: 1 -->
<svg width="2334pt" height="1171pt"
 viewBox="0.00 0.00 2334.00 1171.00" xmlns="http://www.w3.org/2000/svg" xmlns:xlink="http://www.w3.org/1999/xlink">
<g id="graph0" class="graph" transform="scale(1 1) rotate(0) translate(4 1167)">
<title>HoTT_Algebra_AbGroups_Abelianization</title>
<polygon fill="white" stroke="transparent" points="-4,4 -4,-1167 2330,-1167 2330,4 -4,4"/>
<g id="clust1" class="cluster">
<title>cluster_Abelianization</title>
<polygon fill="#ffffc3" stroke="black" points="13.25,-8 13.25,-1155 2312.75,-1155 2312.75,-8 13.25,-8"/>
<text text-anchor="middle" x="72.25" y="-1139.8" font-family="Times,serif" font-size="14.00">Abelianization</text>
</g>
<!-- Abelianization_is1functor_abel -->
<g id="node1" class="node">
<title>Abelianization_is1functor_abel</title>
<g id="a_node1"><a xlink:href="Abelianization.html#is1functor_abel" xlink:title="is1functor_abel">
<ellipse fill="#f070d1" stroke="black" cx="1779.18" cy="-1098" rx="81.8" ry="18"/>
<ellipse fill="none" stroke="black" cx="1779.18" cy="-1098" rx="85.79" ry="22"/>
<ellipse fill="none" stroke="black" cx="1779.18" cy="-1098" rx="89.79" ry="26"/>
<text text-anchor="middle" x="1779.18" y="-1094.3" font-family="Times,serif" font-size="14.00">is1functor_abel</text>
</a>
</g>
</g>
<!-- Abelianization_is0functor_abel -->
<g id="node2" class="node">
<title>Abelianization_is0functor_abel</title>
<g id="a_node2"><a xlink:href="Abelianization.html#is0functor_abel" xlink:title="is0functor_abel">
<ellipse fill="#f070d1" stroke="black" cx="1779.18" cy="-1010" rx="81.79" ry="18"/>
<text text-anchor="middle" x="1779.18" y="-1006.3" font-family="Times,serif" font-size="14.00">is0functor_abel</text>
</a>
</g>
</g>
<!-- Abelianization_is1functor_abel&#45;&gt;Abelianization_is0functor_abel -->
<g id="edge1" class="edge">
<title>Abelianization_is1functor_abel&#45;&gt;Abelianization_is0functor_abel</title>
<path fill="none" stroke="black" d="M1779.18,-1071.66C1779.18,-1061.11 1779.18,-1048.84 1779.18,-1038.1"/>
<polygon fill="black" stroke="black" points="1782.68,-1038 1779.18,-1028 1775.68,-1038 1782.68,-1038"/>
</g>
<!-- Abelianization_grp_homo_abel_rec -->
<g id="node10" class="node">
<title>Abelianization_grp_homo_abel_rec</title>
<g id="a_node10"><a xlink:href="Abelianization.html#grp_homo_abel_rec" xlink:title="grp_homo_abel_rec">
<ellipse fill="#f070d1" stroke="black" cx="1837.18" cy="-930" rx="99.38" ry="18"/>
<text text-anchor="middle" x="1837.18" y="-926.3" font-family="Times,serif" font-size="14.00">grp_homo_abel_rec</text>
</a>
</g>
</g>
<!-- Abelianization_is0functor_abel&#45;&gt;Abelianization_grp_homo_abel_rec -->
<g id="edge2" class="edge">
<title>Abelianization_is0functor_abel&#45;&gt;Abelianization_grp_homo_abel_rec</title>
<path fill="none" stroke="black" d="M1791.77,-992.08C1799.6,-981.55 1809.81,-967.82 1818.56,-956.05"/>
<polygon fill="black" stroke="black" points="1821.46,-958 1824.62,-947.89 1815.85,-953.83 1821.46,-958"/>
</g>
<!-- Abelianization_abel_unit -->
<g id="node11" class="node">
<title>Abelianization_abel_unit</title>
<g id="a_node11"><a xlink:href="Abelianization.html#abel_unit" xlink:title="abel_unit">
<ellipse fill="#f070d1" stroke="black" cx="2120.18" cy="-930" rx="53.09" ry="18"/>
<text text-anchor="middle" x="2120.18" y="-926.3" font-family="Times,serif" font-size="14.00">abel_unit</text>
</a>
</g>
</g>
<!-- Abelianization_is0functor_abel&#45;&gt;Abelianization_abel_unit -->
<g id="edge3" class="edge">
<title>Abelianization_is0functor_abel&#45;&gt;Abelianization_abel_unit</title>
<path fill="none" stroke="black" d="M1833.97,-996.47C1898.31,-981.75 2004.26,-957.52 2067.62,-943.02"/>
<polygon fill="black" stroke="black" points="2068.44,-946.43 2077.41,-940.78 2066.88,-939.6 2068.44,-946.43"/>
</g>
<!-- Abelianization_isequiv_abgroup_abelianization -->
<g id="node3" class="node">
<title>Abelianization_isequiv_abgroup_abelianization</title>
<g id="a_node3"><a xlink:href="Abelianization.html#isequiv_abgroup_abelianization" xlink:title="isequiv_abgroup_abelianization">
<ellipse fill="#f070d1" stroke="black" cx="512.18" cy="-1098" rx="155.97" ry="18"/>
<ellipse fill="none" stroke="black" cx="512.18" cy="-1098" rx="159.97" ry="22"/>
<ellipse fill="none" stroke="black" cx="512.18" cy="-1098" rx="163.97" ry="26"/>
<text text-anchor="middle" x="512.18" y="-1094.3" font-family="Times,serif" font-size="14.00">isequiv_abgroup_abelianization</text>
</a>
</g>
</g>
<!-- Abelianization_isabelianization_identity -->
<g id="node4" class="node">
<title>Abelianization_isabelianization_identity</title>
<g id="a_node4"><a xlink:href="Abelianization.html#isabelianization_identity" xlink:title="isabelianization_identity">
<ellipse fill="#f070d1" stroke="black" cx="232.18" cy="-930" rx="124.28" ry="18"/>
<text text-anchor="middle" x="232.18" y="-926.3" font-family="Times,serif" font-size="14.00">isabelianization_identity</text>
</a>
</g>
</g>
<!-- Abelianization_isequiv_abgroup_abelianization&#45;&gt;Abelianization_isabelianization_identity -->
<g id="edge4" class="edge">
<title>Abelianization_isequiv_abgroup_abelianization&#45;&gt;Abelianization_isabelianization_identity</title>
<path fill="none" stroke="black" d="M361.03,-1087.78C284.93,-1079.65 203.86,-1064.42 180.18,-1036 165.39,-1018.24 171.44,-1005.39 180.18,-984 184.71,-972.92 192.79,-962.91 201.25,-954.65"/>
<polygon fill="black" stroke="black" points="203.67,-957.18 208.7,-947.86 198.96,-952.01 203.67,-957.18"/>
</g>
<!-- Abelianization_homotopic_isabelianization -->
<g id="node6" class="node">
<title>Abelianization_homotopic_isabelianization</title>
<g id="a_node6"><a xlink:href="Abelianization.html#homotopic_isabelianization" xlink:title="homotopic_isabelianization">
<ellipse fill="#f070d1" stroke="black" cx="971.18" cy="-1010" rx="135.68" ry="18"/>
<text text-anchor="middle" x="971.18" y="-1006.3" font-family="Times,serif" font-size="14.00">homotopic_isabelianization</text>
</a>
</g>
</g>
<!-- Abelianization_isequiv_abgroup_abelianization&#45;&gt;Abelianization_homotopic_isabelianization -->
<g id="edge5" class="edge">
<title>Abelianization_isequiv_abgroup_abelianization&#45;&gt;Abelianization_homotopic_isabelianization</title>
<path fill="none" stroke="black" d="M615.19,-1077.7C696.77,-1062.42 809.36,-1041.32 885.93,-1026.97"/>
<polygon fill="black" stroke="black" points="886.83,-1030.37 896.01,-1025.08 885.54,-1023.49 886.83,-1030.37"/>
</g>
<!-- Abelianization_IsAbelianization -->
<g id="node41" class="node">
<title>Abelianization_IsAbelianization</title>
<g id="a_node41"><a xlink:href="Abelianization.html#IsAbelianization" xlink:title="IsAbelianization">
<ellipse fill="#f070d1" stroke="black" cx="797.18" cy="-770" rx="85.29" ry="18"/>
<text text-anchor="middle" x="797.18" y="-766.3" font-family="Times,serif" font-size="14.00">IsAbelianization</text>
</a>
</g>
</g>
<!-- Abelianization_isabelianization_identity&#45;&gt;Abelianization_IsAbelianization -->
<g id="edge6" class="edge">
<title>Abelianization_isabelianization_identity&#45;&gt;Abelianization_IsAbelianization</title>
<path fill="none" stroke="black" d="M286.61,-913.78C393.09,-884 628.11,-818.28 738.16,-787.5"/>
<polygon fill="black" stroke="black" points="739.41,-790.79 748.1,-784.73 737.53,-784.05 739.41,-790.79"/>
</g>
<!-- Abelianization_issurj_isabelianization -->
<g id="node5" class="node">
<title>Abelianization_issurj_isabelianization</title>
<g id="a_node5"><a xlink:href="Abelianization.html#issurj_isabelianization" xlink:title="issurj_isabelianization">
<ellipse fill="#f070d1" stroke="black" cx="1227.18" cy="-1098" rx="113.96" ry="18"/>
<ellipse fill="none" stroke="black" cx="1227.18" cy="-1098" rx="117.97" ry="22"/>
<ellipse fill="none" stroke="black" cx="1227.18" cy="-1098" rx="121.98" ry="26"/>
<text text-anchor="middle" x="1227.18" y="-1094.3" font-family="Times,serif" font-size="14.00">issurj_isabelianization</text>
</a>
</g>
</g>
<!-- Abelianization_issurj_isabelianization&#45;&gt;Abelianization_homotopic_isabelianization -->
<g id="edge7" class="edge">
<title>Abelianization_issurj_isabelianization&#45;&gt;Abelianization_homotopic_isabelianization</title>
<path fill="none" stroke="black" d="M1163.9,-1075.74C1122.32,-1061.77 1068.37,-1043.65 1028.13,-1030.13"/>
<polygon fill="black" stroke="black" points="1029.07,-1026.75 1018.47,-1026.89 1026.84,-1033.39 1029.07,-1026.75"/>
</g>
<!-- Abelianization_isabelianization_abel -->
<g id="node8" class="node">
<title>Abelianization_isabelianization_abel</title>
<g id="a_node8"><a xlink:href="Abelianization.html#isabelianization_abel" xlink:title="isabelianization_abel">
<ellipse fill="#f070d1" stroke="black" cx="1436.18" cy="-1010" rx="107.48" ry="18"/>
<text text-anchor="middle" x="1436.18" y="-1006.3" font-family="Times,serif" font-size="14.00">isabelianization_abel</text>
</a>
</g>
</g>
<!-- Abelianization_issurj_isabelianization&#45;&gt;Abelianization_isabelianization_abel -->
<g id="edge8" class="edge">
<title>Abelianization_issurj_isabelianization&#45;&gt;Abelianization_isabelianization_abel</title>
<path fill="none" stroke="black" d="M1281.55,-1074.63C1314.54,-1061.05 1356.27,-1043.88 1388.07,-1030.8"/>
<polygon fill="black" stroke="black" points="1389.68,-1033.92 1397.59,-1026.88 1387.01,-1027.45 1389.68,-1033.92"/>
</g>
<!-- Abelianization_issurj_abel_in -->
<g id="node13" class="node">
<title>Abelianization_issurj_abel_in</title>
<g id="a_node13"><a xlink:href="Abelianization.html#issurj_abel_in" xlink:title="issurj_abel_in">
<ellipse fill="#f070d1" stroke="black" cx="653.18" cy="-482" rx="73.39" ry="18"/>
<text text-anchor="middle" x="653.18" y="-478.3" font-family="Times,serif" font-size="14.00">issurj_abel_in</text>
</a>
</g>
</g>
<!-- Abelianization_issurj_isabelianization&#45;&gt;Abelianization_issurj_abel_in -->
<g id="edge9" class="edge">
<title>Abelianization_issurj_isabelianization&#45;&gt;Abelianization_issurj_abel_in</title>
<path fill="none" stroke="black" d="M1240.73,-1071.99C1256.31,-1045.74 1284.42,-1005.38 1320.18,-984 1394.85,-939.37 1549.55,-984.96 1502.18,-912 1385.6,-732.45 1253.2,-812.66 1062.18,-716 920.17,-644.14 757.52,-546.77 687.83,-504.29"/>
<polygon fill="black" stroke="black" points="689.37,-501.13 679.01,-498.9 685.72,-507.1 689.37,-501.13"/>
</g>
<!-- Abelianization_groupiso_isabelianization -->
<g id="node7" class="node">
<title>Abelianization_groupiso_isabelianization</title>
<g id="a_node7"><a xlink:href="Abelianization.html#groupiso_isabelianization" xlink:title="groupiso_isabelianization">
<ellipse fill="#f070d1" stroke="black" cx="1365.18" cy="-930" rx="128.08" ry="18"/>
<text text-anchor="middle" x="1365.18" y="-926.3" font-family="Times,serif" font-size="14.00">groupiso_isabelianization</text>
</a>
</g>
</g>
<!-- Abelianization_homotopic_isabelianization&#45;&gt;Abelianization_groupiso_isabelianization -->
<g id="edge10" class="edge">
<title>Abelianization_homotopic_isabelianization&#45;&gt;Abelianization_groupiso_isabelianization</title>
<path fill="none" stroke="black" d="M1043.45,-994.69C1111.52,-981.22 1213.36,-961.06 1284.16,-947.04"/>
<polygon fill="black" stroke="black" points="1285.24,-950.39 1294.37,-945.02 1283.88,-943.53 1285.24,-950.39"/>
</g>
<!-- Abelianization_issurjinj_isabel -->
<g id="node40" class="node">
<title>Abelianization_issurjinj_isabel</title>
<g id="a_node40"><a xlink:href="Abelianization.html#issurjinj_isabel" xlink:title="issurjinj_isabel">
<ellipse fill="#f070d1" stroke="black" cx="797.18" cy="-850" rx="79.89" ry="18"/>
<text text-anchor="middle" x="797.18" y="-846.3" font-family="Times,serif" font-size="14.00">issurjinj_isabel</text>
</a>
</g>
</g>
<!-- Abelianization_groupiso_isabelianization&#45;&gt;Abelianization_issurjinj_isabel -->
<g id="edge11" class="edge">
<title>Abelianization_groupiso_isabelianization&#45;&gt;Abelianization_issurjinj_isabel</title>
<path fill="none" stroke="black" d="M1277.06,-916.9C1166.53,-901.72 978.85,-875.95 873.95,-861.54"/>
<polygon fill="black" stroke="black" points="874.13,-858.03 863.75,-860.14 873.18,-864.97 874.13,-858.03"/>
</g>
<!-- Abelianization_isabelianization_abel&#45;&gt;Abelianization_grp_homo_abel_rec -->
<g id="edge12" class="edge">
<title>Abelianization_isabelianization_abel&#45;&gt;Abelianization_grp_homo_abel_rec</title>
<path fill="none" stroke="black" d="M1503.3,-995.94C1574.74,-982.05 1687.54,-960.11 1761.94,-945.64"/>
<polygon fill="black" stroke="black" points="1763.03,-948.99 1772.18,-943.65 1761.69,-942.12 1763.03,-948.99"/>
</g>
<!-- Abelianization_isabelianization_abel&#45;&gt;Abelianization_abel_unit -->
<g id="edge13" class="edge">
<title>Abelianization_isabelianization_abel&#45;&gt;Abelianization_abel_unit</title>
<path fill="none" stroke="black" d="M1522.12,-999.2C1662.8,-983.16 1938.73,-951.69 2060.27,-937.83"/>
<polygon fill="black" stroke="black" points="2060.96,-941.28 2070.5,-936.67 2060.17,-934.32 2060.96,-941.28"/>
</g>
<!-- Abelianization_isabelianization_abel&#45;&gt;Abelianization_IsAbelianization -->
<g id="edge14" class="edge">
<title>Abelianization_isabelianization_abel&#45;&gt;Abelianization_IsAbelianization</title>
<path fill="none" stroke="black" d="M1461.43,-992.23C1488.25,-972.37 1524.01,-938.62 1502.18,-912 1425.71,-818.72 1062.86,-785.92 889.64,-775.45"/>
<polygon fill="black" stroke="black" points="889.71,-771.94 879.52,-774.85 889.3,-778.93 889.71,-771.94"/>
</g>
<!-- Abelianization_abel_ind_homotopy -->
<g id="node9" class="node">
<title>Abelianization_abel_ind_homotopy</title>
<g id="a_node9"><a xlink:href="Abelianization.html#abel_ind_homotopy" xlink:title="abel_ind_homotopy">
<ellipse fill="#f070d1" stroke="black" cx="2122.18" cy="-1010" rx="99.39" ry="18"/>
<ellipse fill="none" stroke="black" cx="2122.18" cy="-1010" rx="103.38" ry="22"/>
<ellipse fill="none" stroke="black" cx="2122.18" cy="-1010" rx="107.38" ry="26"/>
<text text-anchor="middle" x="2122.18" y="-1006.3" font-family="Times,serif" font-size="14.00">abel_ind_homotopy</text>
</a>
</g>
</g>
<!-- Abelianization_abel_ind_homotopy&#45;&gt;Abelianization_abel_unit -->
<g id="edge15" class="edge">
<title>Abelianization_abel_ind_homotopy&#45;&gt;Abelianization_abel_unit</title>
<path fill="none" stroke="black" d="M2121.54,-983.89C2121.33,-975.84 2121.1,-966.88 2120.89,-958.66"/>
<polygon fill="black" stroke="black" points="2124.39,-958.32 2120.63,-948.41 2117.39,-958.5 2124.39,-958.32"/>
</g>
<!-- Abelianization_abel -->
<g id="node12" class="node">
<title>Abelianization_abel</title>
<g id="a_node12"><a xlink:href="Abelianization.html#abel" xlink:title="abel">
<ellipse fill="#f070d1" stroke="black" cx="2038.18" cy="-850" rx="30.59" ry="18"/>
<text text-anchor="middle" x="2038.18" y="-846.3" font-family="Times,serif" font-size="14.00">abel</text>
</a>
</g>
</g>
<!-- Abelianization_grp_homo_abel_rec&#45;&gt;Abelianization_abel -->
<g id="edge16" class="edge">
<title>Abelianization_grp_homo_abel_rec&#45;&gt;Abelianization_abel</title>
<path fill="none" stroke="black" d="M1877.38,-913.4C1914.45,-899.02 1968.89,-877.89 2003.94,-864.29"/>
<polygon fill="black" stroke="black" points="2005.22,-867.54 2013.28,-860.66 2002.69,-861.02 2005.22,-867.54"/>
</g>
<!-- Abelianization_abel_unit&#45;&gt;Abelianization_abel -->
<g id="edge17" class="edge">
<title>Abelianization_abel_unit&#45;&gt;Abelianization_abel</title>
<path fill="none" stroke="black" d="M2103.19,-912.84C2091.04,-901.27 2074.53,-885.58 2061.2,-872.89"/>
<polygon fill="black" stroke="black" points="2063.42,-870.18 2053.77,-865.82 2058.6,-875.25 2063.42,-870.18"/>
</g>
<!-- Abelianization_issemigrouppreserving_abel_in -->
<g id="node14" class="node">
<title>Abelianization_issemigrouppreserving_abel_in</title>
<g id="a_node14"><a xlink:href="Abelianization.html#issemigrouppreserving_abel_in" xlink:title="issemigrouppreserving_abel_in">
<ellipse fill="#f070d1" stroke="black" cx="2043.18" cy="-770" rx="155.17" ry="18"/>
<text text-anchor="middle" x="2043.18" y="-766.3" font-family="Times,serif" font-size="14.00">issemigrouppreserving_abel_in</text>
</a>
</g>
</g>
<!-- Abelianization_abel_unit&#45;&gt;Abelianization_issemigrouppreserving_abel_in -->
<g id="edge18" class="edge">
<title>Abelianization_abel_unit&#45;&gt;Abelianization_issemigrouppreserving_abel_in</title>
<path fill="none" stroke="black" d="M2114.52,-911.8C2107.26,-890.6 2093.75,-853.75 2078.18,-824 2073.33,-814.72 2067.26,-805.03 2061.54,-796.51"/>
<polygon fill="black" stroke="black" points="2064.32,-794.38 2055.78,-788.12 2058.55,-798.34 2064.32,-794.38"/>
</g>
<!-- Abelianization_isgroup_abel -->
<g id="node16" class="node">
<title>Abelianization_isgroup_abel</title>
<g id="a_node16"><a xlink:href="Abelianization.html#isgroup_abel" xlink:title="isgroup_abel">
<ellipse fill="#f070d1" stroke="black" cx="1640.18" cy="-770" rx="69.59" ry="18"/>
<text text-anchor="middle" x="1640.18" y="-766.3" font-family="Times,serif" font-size="14.00">isgroup_abel</text>
</a>
</g>
</g>
<!-- Abelianization_abel&#45;&gt;Abelianization_isgroup_abel -->
<g id="edge19" class="edge">
<title>Abelianization_abel&#45;&gt;Abelianization_isgroup_abel</title>
<path fill="none" stroke="black" d="M2009.56,-843.39C1945.89,-830.91 1791.25,-800.61 1703.58,-783.42"/>
<polygon fill="black" stroke="black" points="1704.24,-779.99 1693.75,-781.5 1702.89,-786.86 1704.24,-779.99"/>
</g>
<!-- Abelianization_Abel_ind_hprop -->
<g id="node28" class="node">
<title>Abelianization_Abel_ind_hprop</title>
<g id="a_node28"><a xlink:href="Abelianization.html#Abel_ind_hprop" xlink:title="Abel_ind_hprop">
<ellipse fill="#f070d1" stroke="black" cx="972.18" cy="-402" rx="81.79" ry="18"/>
<text text-anchor="middle" x="972.18" y="-398.3" font-family="Times,serif" font-size="14.00">Abel_ind_hprop</text>
</a>
</g>
</g>
<!-- Abelianization_issurj_abel_in&#45;&gt;Abelianization_Abel_ind_hprop -->
<g id="edge20" class="edge">
<title>Abelianization_issurj_abel_in&#45;&gt;Abelianization_Abel_ind_hprop</title>
<path fill="none" stroke="black" d="M703.38,-468.73C759.22,-455.07 849.51,-432.99 909.84,-418.24"/>
<polygon fill="black" stroke="black" points="910.75,-421.63 919.63,-415.85 909.09,-414.83 910.75,-421.63"/>
</g>
<!-- Abelianization_abel_sgop -->
<g id="node27" class="node">
<title>Abelianization_abel_sgop</title>
<g id="a_node27"><a xlink:href="Abelianization.html#abel_sgop" xlink:title="abel_sgop">
<ellipse fill="#f070d1" stroke="black" cx="1721.18" cy="-482" rx="56.59" ry="18"/>
<text text-anchor="middle" x="1721.18" y="-478.3" font-family="Times,serif" font-size="14.00">abel_sgop</text>
</a>
</g>
</g>
<!-- Abelianization_issemigrouppreserving_abel_in&#45;&gt;Abelianization_abel_sgop -->
<g id="edge21" class="edge">
<title>Abelianization_issemigrouppreserving_abel_in&#45;&gt;Abelianization_abel_sgop</title>
<path fill="none" stroke="black" d="M2087.71,-752.58C2147.06,-727.76 2241.73,-676.23 2215.18,-608 2199.45,-567.54 2187.77,-555.89 2149.18,-536 2087.52,-504.21 1890.83,-490.67 1786.93,-485.62"/>
<polygon fill="black" stroke="black" points="1787.02,-482.12 1776.87,-485.14 1786.69,-489.11 1787.02,-482.12"/>
</g>
<!-- Abelianization_isabgroup_abel -->
<g id="node15" class="node">
<title>Abelianization_isabgroup_abel</title>
<g id="a_node15"><a xlink:href="Abelianization.html#isabgroup_abel" xlink:title="isabgroup_abel">
<ellipse fill="#f070d1" stroke="black" cx="1809.18" cy="-850" rx="81.46" ry="18"/>
<ellipse fill="none" stroke="black" cx="1809.18" cy="-850" rx="85.48" ry="22"/>
<ellipse fill="none" stroke="black" cx="1809.18" cy="-850" rx="89.49" ry="26"/>
<text text-anchor="middle" x="1809.18" y="-846.3" font-family="Times,serif" font-size="14.00">isabgroup_abel</text>
</a>
</g>
</g>
<!-- Abelianization_isabgroup_abel&#45;&gt;Abelianization_isgroup_abel -->
<g id="edge22" class="edge">
<title>Abelianization_isabgroup_abel&#45;&gt;Abelianization_isgroup_abel</title>
<path fill="none" stroke="black" d="M1763,-827.69C1737.61,-815.97 1706.37,-801.55 1681.74,-790.18"/>
<polygon fill="black" stroke="black" points="1683.2,-787 1672.66,-785.99 1680.27,-793.36 1683.2,-787"/>
</g>
<!-- Abelianization_abel_rightinverse -->
<g id="node17" class="node">
<title>Abelianization_abel_rightinverse</title>
<g id="a_node17"><a xlink:href="Abelianization.html#abel_rightinverse" xlink:title="abel_rightinverse">
<ellipse fill="#f070d1" stroke="black" cx="1476.18" cy="-698" rx="91.78" ry="18"/>
<text text-anchor="middle" x="1476.18" y="-694.3" font-family="Times,serif" font-size="14.00">abel_rightinverse</text>
</a>
</g>
</g>
<!-- Abelianization_isgroup_abel&#45;&gt;Abelianization_abel_rightinverse -->
<g id="edge23" class="edge">
<title>Abelianization_isgroup_abel&#45;&gt;Abelianization_abel_rightinverse</title>
<path fill="none" stroke="black" d="M1605.8,-754.33C1581.54,-743.97 1548.78,-729.98 1522.26,-718.66"/>
<polygon fill="black" stroke="black" points="1523.37,-715.33 1512.8,-714.63 1520.62,-721.77 1523.37,-715.33"/>
</g>
<!-- Abelianization_abel_leftinverse -->
<g id="node18" class="node">
<title>Abelianization_abel_leftinverse</title>
<g id="a_node18"><a xlink:href="Abelianization.html#abel_leftinverse" xlink:title="abel_leftinverse">
<ellipse fill="#f070d1" stroke="black" cx="1155.18" cy="-698" rx="84.49" ry="18"/>
<text text-anchor="middle" x="1155.18" y="-694.3" font-family="Times,serif" font-size="14.00">abel_leftinverse</text>
</a>
</g>
</g>
<!-- Abelianization_isgroup_abel&#45;&gt;Abelianization_abel_leftinverse -->
<g id="edge24" class="edge">
<title>Abelianization_isgroup_abel&#45;&gt;Abelianization_abel_leftinverse</title>
<path fill="none" stroke="black" d="M1580.71,-760.42C1493.25,-747.79 1329.85,-724.21 1232.97,-710.23"/>
<polygon fill="black" stroke="black" points="1233.34,-706.74 1222.94,-708.78 1232.34,-713.67 1233.34,-706.74"/>
</g>
<!-- Abelianization_ismonoid_abel -->
<g id="node21" class="node">
<title>Abelianization_ismonoid_abel</title>
<g id="a_node21"><a xlink:href="Abelianization.html#ismonoid_abel" xlink:title="ismonoid_abel">
<ellipse fill="#f070d1" stroke="black" cx="1787.18" cy="-698" rx="76.89" ry="18"/>
<text text-anchor="middle" x="1787.18" y="-694.3" font-family="Times,serif" font-size="14.00">ismonoid_abel</text>
</a>
</g>
</g>
<!-- Abelianization_isgroup_abel&#45;&gt;Abelianization_ismonoid_abel -->
<g id="edge25" class="edge">
<title>Abelianization_isgroup_abel&#45;&gt;Abelianization_ismonoid_abel</title>
<path fill="none" stroke="black" d="M1672.08,-753.81C1693.6,-743.56 1722.22,-729.93 1745.54,-718.83"/>
<polygon fill="black" stroke="black" points="1747.32,-721.86 1754.84,-714.4 1744.31,-715.54 1747.32,-721.86"/>
</g>
<!-- Abelianization_abel_negate -->
<g id="node19" class="node">
<title>Abelianization_abel_negate</title>
<g id="a_node19"><a xlink:href="Abelianization.html#abel_negate" xlink:title="abel_negate">
<ellipse fill="#f070d1" stroke="black" cx="1100.18" cy="-626" rx="66.09" ry="18"/>
<text text-anchor="middle" x="1100.18" y="-622.3" font-family="Times,serif" font-size="14.00">abel_negate</text>
</a>
</g>
</g>
<!-- Abelianization_abel_rightinverse&#45;&gt;Abelianization_abel_negate -->
<g id="edge26" class="edge">
<title>Abelianization_abel_rightinverse&#45;&gt;Abelianization_abel_negate</title>
<path fill="none" stroke="black" d="M1411.97,-685.05C1342.4,-672.09 1232.12,-651.56 1163.07,-638.71"/>
<polygon fill="black" stroke="black" points="1163.66,-635.26 1153.19,-636.87 1162.38,-642.14 1163.66,-635.26"/>
</g>
<!-- Abelianization_abel_mon_unit -->
<g id="node24" class="node">
<title>Abelianization_abel_mon_unit</title>
<g id="a_node24"><a xlink:href="Abelianization.html#abel_mon_unit" xlink:title="abel_mon_unit">
<ellipse fill="#f070d1" stroke="black" cx="1461.18" cy="-554" rx="77.19" ry="18"/>
<text text-anchor="middle" x="1461.18" y="-550.3" font-family="Times,serif" font-size="14.00">abel_mon_unit</text>
</a>
</g>
</g>
<!-- Abelianization_abel_rightinverse&#45;&gt;Abelianization_abel_mon_unit -->
<g id="edge27" class="edge">
<title>Abelianization_abel_rightinverse&#45;&gt;Abelianization_abel_mon_unit</title>
<path fill="none" stroke="black" d="M1415.75,-684.43C1393.78,-676.63 1371.18,-664.08 1358.18,-644 1349.49,-630.57 1349.85,-621.66 1358.18,-608 1368.17,-591.63 1385,-580.1 1402.2,-572.08"/>
<polygon fill="black" stroke="black" points="1403.95,-575.14 1411.75,-567.98 1401.18,-568.71 1403.95,-575.14"/>
</g>
<!-- Abelianization_abel_leftinverse&#45;&gt;Abelianization_abel_negate -->
<g id="edge28" class="edge">
<title>Abelianization_abel_leftinverse&#45;&gt;Abelianization_abel_negate</title>
<path fill="none" stroke="black" d="M1141.87,-680.05C1135.18,-671.54 1126.95,-661.07 1119.58,-651.68"/>
<polygon fill="black" stroke="black" points="1122.31,-649.49 1113.38,-643.79 1116.8,-653.81 1122.31,-649.49"/>
</g>
<!-- Abelianization_abel_leftinverse&#45;&gt;Abelianization_abel_mon_unit -->
<g id="edge29" class="edge">
<title>Abelianization_abel_leftinverse&#45;&gt;Abelianization_abel_mon_unit</title>
<path fill="none" stroke="black" d="M1188.81,-681.4C1244.81,-655.41 1357.09,-603.31 1418.56,-574.78"/>
<polygon fill="black" stroke="black" points="1420.37,-577.8 1427.97,-570.41 1417.43,-571.45 1420.37,-577.8"/>
</g>
<!-- Abelianization_abel_commutative -->
<g id="node20" class="node">
<title>Abelianization_abel_commutative</title>
<g id="a_node20"><a xlink:href="Abelianization.html#abel_commutative" xlink:title="abel_commutative">
<ellipse fill="#f070d1" stroke="black" cx="1146.18" cy="-554" rx="94.78" ry="18"/>
<text text-anchor="middle" x="1146.18" y="-550.3" font-family="Times,serif" font-size="14.00">abel_commutative</text>
</a>
</g>
</g>
<!-- Abelianization_abel_negate&#45;&gt;Abelianization_abel_commutative -->
<g id="edge30" class="edge">
<title>Abelianization_abel_negate&#45;&gt;Abelianization_abel_commutative</title>
<path fill="none" stroke="black" d="M1111.32,-608.05C1116.72,-599.84 1123.32,-589.79 1129.32,-580.66"/>
<polygon fill="black" stroke="black" points="1132.26,-582.55 1134.83,-572.28 1126.41,-578.71 1132.26,-582.55"/>
</g>
<!-- Abelianization_abel_commutative&#45;&gt;Abelianization_abel_sgop -->
<g id="edge31" class="edge">
<title>Abelianization_abel_commutative&#45;&gt;Abelianization_abel_sgop</title>
<path fill="none" stroke="black" d="M1223.73,-543.56C1338.99,-529.53 1553.22,-503.45 1658.91,-490.58"/>
<polygon fill="black" stroke="black" points="1659.6,-494.02 1669.1,-489.34 1658.75,-487.07 1659.6,-494.02"/>
</g>
<!-- Abelianization_abel_rightidentity -->
<g id="node22" class="node">
<title>Abelianization_abel_rightidentity</title>
<g id="a_node22"><a xlink:href="Abelianization.html#abel_rightidentity" xlink:title="abel_rightidentity">
<ellipse fill="#f070d1" stroke="black" cx="1461.18" cy="-626" rx="93.68" ry="18"/>
<text text-anchor="middle" x="1461.18" y="-622.3" font-family="Times,serif" font-size="14.00">abel_rightidentity</text>
</a>
</g>
</g>
<!-- Abelianization_ismonoid_abel&#45;&gt;Abelianization_abel_rightidentity -->
<g id="edge32" class="edge">
<title>Abelianization_ismonoid_abel&#45;&gt;Abelianization_abel_rightidentity</title>
<path fill="none" stroke="black" d="M1732.62,-685.28C1677.25,-673.39 1591.32,-654.94 1531.01,-641.99"/>
<polygon fill="black" stroke="black" points="1531.7,-638.56 1521.19,-639.88 1530.23,-645.41 1531.7,-638.56"/>
</g>
<!-- Abelianization_abel_leftidentity -->
<g id="node23" class="node">
<title>Abelianization_abel_leftidentity</title>
<g id="a_node23"><a xlink:href="Abelianization.html#abel_leftidentity" xlink:title="abel_leftidentity">
<ellipse fill="#f070d1" stroke="black" cx="1789.18" cy="-626" rx="86.38" ry="18"/>
<text text-anchor="middle" x="1789.18" y="-622.3" font-family="Times,serif" font-size="14.00">abel_leftidentity</text>
</a>
</g>
</g>
<!-- Abelianization_ismonoid_abel&#45;&gt;Abelianization_abel_leftidentity -->
<g id="edge33" class="edge">
<title>Abelianization_ismonoid_abel&#45;&gt;Abelianization_abel_leftidentity</title>
<path fill="none" stroke="black" d="M1787.68,-679.7C1787.9,-671.98 1788.16,-662.71 1788.41,-654.11"/>
<polygon fill="black" stroke="black" points="1791.91,-654.2 1788.7,-644.1 1784.91,-654 1791.91,-654.2"/>
</g>
<!-- Abelianization_abel_issemigroup -->
<g id="node25" class="node">
<title>Abelianization_abel_issemigroup</title>
<g id="a_node25"><a xlink:href="Abelianization.html#abel_issemigroup" xlink:title="abel_issemigroup">
<ellipse fill="#f070d1" stroke="black" cx="2114.18" cy="-626" rx="91.78" ry="18"/>
<text text-anchor="middle" x="2114.18" y="-622.3" font-family="Times,serif" font-size="14.00">abel_issemigroup</text>
</a>
</g>
</g>
<!-- Abelianization_ismonoid_abel&#45;&gt;Abelianization_abel_issemigroup -->
<g id="edge34" class="edge">
<title>Abelianization_ismonoid_abel&#45;&gt;Abelianization_abel_issemigroup</title>
<path fill="none" stroke="black" d="M1841.92,-685.28C1897.63,-673.36 1984.19,-654.83 2044.71,-641.87"/>
<polygon fill="black" stroke="black" points="2045.52,-645.28 2054.56,-639.76 2044.05,-638.43 2045.52,-645.28"/>
</g>
<!-- Abelianization_abel_rightidentity&#45;&gt;Abelianization_abel_mon_unit -->
<g id="edge35" class="edge">
<title>Abelianization_abel_rightidentity&#45;&gt;Abelianization_abel_mon_unit</title>
<path fill="none" stroke="black" d="M1461.18,-607.7C1461.18,-599.98 1461.18,-590.71 1461.18,-582.11"/>
<polygon fill="black" stroke="black" points="1464.68,-582.1 1461.18,-572.1 1457.68,-582.1 1464.68,-582.1"/>
</g>
<!-- Abelianization_abel_rightidentity&#45;&gt;Abelianization_abel_sgop -->
<g id="edge36" class="edge">
<title>Abelianization_abel_rightidentity&#45;&gt;Abelianization_abel_sgop</title>
<path fill="none" stroke="black" d="M1490.76,-608.85C1538.72,-582.65 1633.32,-530.99 1685.14,-502.68"/>
<polygon fill="black" stroke="black" points="1686.9,-505.71 1693.99,-497.85 1683.54,-499.57 1686.9,-505.71"/>
</g>
<!-- Abelianization_abel_leftidentity&#45;&gt;Abelianization_abel_mon_unit -->
<g id="edge37" class="edge">
<title>Abelianization_abel_leftidentity&#45;&gt;Abelianization_abel_mon_unit</title>
<path fill="none" stroke="black" d="M1730.92,-612.57C1673.49,-600.31 1585.91,-581.62 1526.24,-568.88"/>
<polygon fill="black" stroke="black" points="1526.68,-565.4 1516.17,-566.74 1525.22,-572.25 1526.68,-565.4"/>
</g>
<!-- Abelianization_abel_leftidentity&#45;&gt;Abelianization_abel_sgop -->
<g id="edge38" class="edge">
<title>Abelianization_abel_leftidentity&#45;&gt;Abelianization_abel_sgop</title>
<path fill="none" stroke="black" d="M1780.98,-607.87C1769.24,-583.35 1747.54,-538.03 1733.76,-509.26"/>
<polygon fill="black" stroke="black" points="1736.89,-507.7 1729.42,-500.19 1730.58,-510.72 1736.89,-507.7"/>
</g>
<!-- Abelianization_abel_in -->
<g id="node35" class="node">
<title>Abelianization_abel_in</title>
<g id="a_node35"><a xlink:href="Abelianization.html#abel_in" xlink:title="abel_in">
<ellipse fill="#f070d1" stroke="black" cx="1164.18" cy="-178" rx="43.59" ry="18"/>
<text text-anchor="middle" x="1164.18" y="-174.3" font-family="Times,serif" font-size="14.00">abel_in</text>
</a>
</g>
</g>
<!-- Abelianization_abel_mon_unit&#45;&gt;Abelianization_abel_in -->
<g id="edge39" class="edge">
<title>Abelianization_abel_mon_unit&#45;&gt;Abelianization_abel_in</title>
<path fill="none" stroke="black" d="M1394.67,-544.8C1227.9,-523.34 805.18,-463.02 805.18,-403 805.18,-403 805.18,-403 805.18,-321 805.18,-255.21 1016.27,-206.82 1114.72,-187.83"/>
<polygon fill="black" stroke="black" points="1115.57,-191.23 1124.74,-185.93 1114.26,-184.36 1115.57,-191.23"/>
</g>
<!-- Abelianization_abel_sgop_associative -->
<g id="node26" class="node">
<title>Abelianization_abel_sgop_associative</title>
<g id="a_node26"><a xlink:href="Abelianization.html#abel_sgop_associative" xlink:title="abel_sgop_associative">
<ellipse fill="#f070d1" stroke="black" cx="2028.18" cy="-554" rx="112.38" ry="18"/>
<text text-anchor="middle" x="2028.18" y="-550.3" font-family="Times,serif" font-size="14.00">abel_sgop_associative</text>
</a>
</g>
</g>
<!-- Abelianization_abel_issemigroup&#45;&gt;Abelianization_abel_sgop_associative -->
<g id="edge40" class="edge">
<title>Abelianization_abel_issemigroup&#45;&gt;Abelianization_abel_sgop_associative</title>
<path fill="none" stroke="black" d="M2093.8,-608.41C2082.75,-599.41 2068.9,-588.14 2056.78,-578.27"/>
<polygon fill="black" stroke="black" points="2058.68,-575.31 2048.72,-571.71 2054.26,-580.74 2058.68,-575.31"/>
</g>
<!-- Abelianization_abel_sgop_associative&#45;&gt;Abelianization_abel_sgop -->
<g id="edge41" class="edge">
<title>Abelianization_abel_sgop_associative&#45;&gt;Abelianization_abel_sgop</title>
<path fill="none" stroke="black" d="M1966.43,-538.92C1910.66,-526.2 1829.39,-507.67 1775.91,-495.48"/>
<polygon fill="black" stroke="black" points="1776.46,-492.01 1765.93,-493.2 1774.9,-498.84 1776.46,-492.01"/>
</g>
<!-- Abelianization_abel_sgop&#45;&gt;Abelianization_Abel_ind_hprop -->
<g id="edge42" class="edge">
<title>Abelianization_abel_sgop&#45;&gt;Abelianization_Abel_ind_hprop</title>
<path fill="none" stroke="black" d="M1667.15,-476.53C1567.31,-468.13 1347.2,-448.94 1162.18,-428 1125.02,-423.8 1083.87,-418.46 1049.38,-413.8"/>
<polygon fill="black" stroke="black" points="1049.76,-410.32 1039.38,-412.45 1048.82,-417.26 1049.76,-410.32"/>
</g>
<!-- Abelianization_Abel_rec -->
<g id="node29" class="node">
<title>Abelianization_Abel_rec</title>
<g id="a_node29"><a xlink:href="Abelianization.html#Abel_rec" xlink:title="Abel_rec">
<ellipse fill="#f070d1" stroke="black" cx="1221.18" cy="-402" rx="50.09" ry="18"/>
<text text-anchor="middle" x="1221.18" y="-398.3" font-family="Times,serif" font-size="14.00">Abel_rec</text>
</a>
</g>
</g>
<!-- Abelianization_abel_sgop&#45;&gt;Abelianization_Abel_rec -->
<g id="edge43" class="edge">
<title>Abelianization_abel_sgop&#45;&gt;Abelianization_Abel_rec</title>
<path fill="none" stroke="black" d="M1671.41,-473.24C1577.3,-458.55 1373.93,-426.83 1276.03,-411.56"/>
<polygon fill="black" stroke="black" points="1276.46,-408.08 1266.04,-410 1275.38,-415 1276.46,-408.08"/>
</g>
<!-- Abelianization_istrunc_abel -->
<g id="node33" class="node">
<title>Abelianization_istrunc_abel</title>
<g id="a_node33"><a xlink:href="Abelianization.html#istrunc_abel" xlink:title="istrunc_abel">
<ellipse fill="#f070d1" stroke="black" cx="1998.18" cy="-322" rx="67.69" ry="18"/>
<text text-anchor="middle" x="1998.18" y="-318.3" font-family="Times,serif" font-size="14.00">istrunc_abel</text>
</a>
</g>
</g>
<!-- Abelianization_abel_sgop&#45;&gt;Abelianization_istrunc_abel -->
<g id="edge44" class="edge">
<title>Abelianization_abel_sgop&#45;&gt;Abelianization_istrunc_abel</title>
<path fill="none" stroke="black" d="M1777.25,-478.86C1896.9,-473.73 2168.66,-458.77 2196.18,-428 2211.59,-410.78 2210.26,-394.33 2196.18,-376 2180.34,-355.36 2117.98,-341 2067.42,-332.49"/>
<polygon fill="black" stroke="black" points="2067.92,-329.02 2057.48,-330.86 2066.79,-335.93 2067.92,-329.02"/>
</g>
<!-- Abelianization_Abel_ind_hprop&#45;&gt;Abelianization_abel_in -->
<g id="edge45" class="edge">
<title>Abelianization_Abel_ind_hprop&#45;&gt;Abelianization_abel_in</title>
<path fill="none" stroke="black" d="M986.93,-383.95C1020.82,-344.76 1104.35,-248.18 1143.41,-203.02"/>
<polygon fill="black" stroke="black" points="1146.27,-205.06 1150.17,-195.2 1140.98,-200.48 1146.27,-205.06"/>
</g>
<!-- Abelianization_Abel_ind -->
<g id="node32" class="node">
<title>Abelianization_Abel_ind</title>
<g id="a_node32"><a xlink:href="Abelianization.html#Abel_ind" xlink:title="Abel_ind">
<ellipse fill="#f070d1" stroke="black" cx="1403.18" cy="-322" rx="50.09" ry="18"/>
<text text-anchor="middle" x="1403.18" y="-318.3" font-family="Times,serif" font-size="14.00">Abel_ind</text>
</a>
</g>
</g>
<!-- Abelianization_Abel_rec&#45;&gt;Abelianization_Abel_ind -->
<g id="edge46" class="edge">
<title>Abelianization_Abel_rec&#45;&gt;Abelianization_Abel_ind</title>
<path fill="none" stroke="black" d="M1252.06,-387.77C1282.52,-374.71 1329.25,-354.69 1362.68,-340.36"/>
<polygon fill="black" stroke="black" points="1364.35,-343.45 1372.16,-336.3 1361.59,-337.02 1364.35,-343.45"/>
</g>
<!-- Abelianization_Abel_ind_beta_abel_in_comm -->
<g id="node30" class="node">
<title>Abelianization_Abel_ind_beta_abel_in_comm</title>
<g id="a_node30"><a xlink:href="Abelianization.html#Abel_ind_beta_abel_in_comm" xlink:title="Abel_ind_beta_abel_in_comm">
<ellipse fill="#f070d1" stroke="black" cx="1585.18" cy="-402" rx="144.09" ry="18"/>
<ellipse fill="none" stroke="black" cx="1585.18" cy="-402" rx="148.08" ry="22"/>
<ellipse fill="none" stroke="black" cx="1585.18" cy="-402" rx="152.07" ry="26"/>
<text text-anchor="middle" x="1585.18" y="-398.3" font-family="Times,serif" font-size="14.00">Abel_ind_beta_abel_in_comm</text>
</a>
</g>
</g>
<!-- Abelianization_Abel_ind_beta_abel_in_comm&#45;&gt;Abelianization_Abel_ind -->
<g id="edge47" class="edge">
<title>Abelianization_Abel_ind_beta_abel_in_comm&#45;&gt;Abelianization_Abel_ind</title>
<path fill="none" stroke="black" d="M1530.58,-377.6C1502.63,-365.62 1469.2,-351.29 1443.6,-340.32"/>
<polygon fill="black" stroke="black" points="1444.77,-337.02 1434.2,-336.29 1442.01,-343.45 1444.77,-337.02"/>
</g>
<!-- Abelianization_Abel_ind_beta_abel_in -->
<g id="node31" class="node">
<title>Abelianization_Abel_ind_beta_abel_in</title>
<g id="a_node31"><a xlink:href="Abelianization.html#Abel_ind_beta_abel_in" xlink:title="Abel_ind_beta_abel_in">
<ellipse fill="#f070d1" stroke="black" cx="2067.18" cy="-402" rx="112.38" ry="18"/>
<ellipse fill="none" stroke="black" cx="2067.18" cy="-402" rx="116.38" ry="22"/>
<ellipse fill="none" stroke="black" cx="2067.18" cy="-402" rx="120.38" ry="26"/>
<text text-anchor="middle" x="2067.18" y="-398.3" font-family="Times,serif" font-size="14.00">Abel_ind_beta_abel_in</text>
</a>
</g>
</g>
<!-- Abelianization_Abel_ind_beta_abel_in&#45;&gt;Abelianization_Abel_ind -->
<g id="edge48" class="edge">
<title>Abelianization_Abel_ind_beta_abel_in&#45;&gt;Abelianization_Abel_ind</title>
<path fill="none" stroke="black" d="M1963.07,-388.77C1821.14,-372.1 1571.84,-342.81 1460.13,-329.69"/>
<polygon fill="black" stroke="black" points="1460.42,-326.2 1450.08,-328.51 1459.61,-333.15 1460.42,-326.2"/>
</g>
<!-- Abelianization_abel_in_comm -->
<g id="node34" class="node">
<title>Abelianization_abel_in_comm</title>
<g id="a_node34"><a xlink:href="Abelianization.html#abel_in_comm" xlink:title="abel_in_comm">
<ellipse fill="#f070d1" stroke="black" cx="1289.18" cy="-250" rx="75.29" ry="18"/>
<text text-anchor="middle" x="1289.18" y="-246.3" font-family="Times,serif" font-size="14.00">abel_in_comm</text>
</a>
</g>
</g>
<!-- Abelianization_Abel_ind&#45;&gt;Abelianization_abel_in_comm -->
<g id="edge49" class="edge">
<title>Abelianization_Abel_ind&#45;&gt;Abelianization_abel_in_comm</title>
<path fill="none" stroke="black" d="M1379.01,-306.15C1363.09,-296.38 1341.99,-283.43 1324.24,-272.53"/>
<polygon fill="black" stroke="black" points="1325.66,-269.29 1315.31,-267.04 1322,-275.26 1325.66,-269.29"/>
</g>
<!-- Abelianization_Abel -->
<g id="node36" class="node">
<title>Abelianization_Abel</title>
<g id="a_node36"><a xlink:href="Abelianization.html#Abel" xlink:title="Abel">
<ellipse fill="#f070d1" stroke="black" cx="1425.18" cy="-106" rx="31.4" ry="18"/>
<text text-anchor="middle" x="1425.18" y="-102.3" font-family="Times,serif" font-size="14.00">Abel</text>
</a>
</g>
</g>
<!-- Abelianization_istrunc_abel&#45;&gt;Abelianization_Abel -->
<g id="edge50" class="edge">
<title>Abelianization_istrunc_abel&#45;&gt;Abelianization_Abel</title>
<path fill="none" stroke="black" d="M1960.59,-306.96C1855.89,-267.86 1562.03,-158.11 1460.34,-120.13"/>
<polygon fill="black" stroke="black" points="1461.43,-116.8 1450.84,-116.58 1458.98,-123.36 1461.43,-116.8"/>
</g>
<!-- Abelianization_abel_in_comm&#45;&gt;Abelianization_abel_in -->
<g id="edge51" class="edge">
<title>Abelianization_abel_in_comm&#45;&gt;Abelianization_abel_in</title>
<path fill="none" stroke="black" d="M1261.13,-233.29C1242.49,-222.85 1217.9,-209.08 1198.15,-198.02"/>
<polygon fill="black" stroke="black" points="1199.61,-194.83 1189.18,-193 1196.19,-200.94 1199.61,-194.83"/>
</g>
<!-- Abelianization_abel_in&#45;&gt;Abelianization_Abel -->
<g id="edge52" class="edge">
<title>Abelianization_abel_in&#45;&gt;Abelianization_Abel</title>
<path fill="none" stroke="black" d="M1199.66,-167.49C1248.81,-154.3 1337.27,-130.58 1387.55,-117.09"/>
<polygon fill="black" stroke="black" points="1388.62,-120.43 1397.37,-114.46 1386.81,-113.67 1388.62,-120.43"/>
</g>
<!-- Abelianization_uncurry2 -->
<g id="node37" class="node">
<title>Abelianization_uncurry2</title>
<g id="a_node37"><a xlink:href="Abelianization.html#uncurry2" xlink:title="uncurry2">
<ellipse fill="#f070d1" stroke="black" cx="1425.18" cy="-34" rx="53.09" ry="18"/>
<text text-anchor="middle" x="1425.18" y="-30.3" font-family="Times,serif" font-size="14.00">uncurry2</text>
</a>
</g>
</g>
<!-- Abelianization_Abel&#45;&gt;Abelianization_uncurry2 -->
<g id="edge53" class="edge">
<title>Abelianization_Abel&#45;&gt;Abelianization_uncurry2</title>
<path fill="none" stroke="black" d="M1425.18,-87.7C1425.18,-79.98 1425.18,-70.71 1425.18,-62.11"/>
<polygon fill="black" stroke="black" points="1428.68,-62.1 1425.18,-52.1 1421.68,-62.1 1428.68,-62.1"/>
</g>
<!-- Abelianization_equiv_group_precomp_isabelianization -->
<g id="node38" class="node">
<title>Abelianization_equiv_group_precomp_isabelianization</title>
<g id="a_node38"><a xlink:href="Abelianization.html#equiv_group_precomp_isabelianization" xlink:title="equiv_group_precomp_isabelianization">
<ellipse fill="#f070d1" stroke="black" cx="387.18" cy="-1010" rx="189.58" ry="18"/>
<ellipse fill="none" stroke="black" cx="387.18" cy="-1010" rx="193.57" ry="22"/>
<ellipse fill="none" stroke="black" cx="387.18" cy="-1010" rx="197.57" ry="26"/>
<text text-anchor="middle" x="387.18" y="-1006.3" font-family="Times,serif" font-size="14.00">equiv_group_precomp_isabelianization</text>
</a>
</g>
</g>
<!-- Abelianization_isequiv_group_precomp_isabelianization -->
<g id="node39" class="node">
<title>Abelianization_isequiv_group_precomp_isabelianization</title>
<g id="a_node39"><a xlink:href="Abelianization.html#isequiv_group_precomp_isabelianization" xlink:title="isequiv_group_precomp_isabelianization">
<ellipse fill="#f070d1" stroke="black" cx="795.18" cy="-930" rx="197.66" ry="18"/>
<text text-anchor="middle" x="795.18" y="-926.3" font-family="Times,serif" font-size="14.00">isequiv_group_precomp_isabelianization</text>
</a>
</g>
</g>
<!-- Abelianization_equiv_group_precomp_isabelianization&#45;&gt;Abelianization_isequiv_group_precomp_isabelianization -->
<g id="edge54" class="edge">
<title>Abelianization_equiv_group_precomp_isabelianization&#45;&gt;Abelianization_isequiv_group_precomp_isabelianization</title>
<path fill="none" stroke="black" d="M495.72,-988.25C560.79,-975.81 642.6,-960.17 704.26,-948.38"/>
<polygon fill="black" stroke="black" points="705.2,-951.77 714.36,-946.45 703.88,-944.89 705.2,-951.77"/>
</g>
<!-- Abelianization_isequiv_group_precomp_isabelianization&#45;&gt;Abelianization_issurjinj_isabel -->
<g id="edge55" class="edge">
<title>Abelianization_isequiv_group_precomp_isabelianization&#45;&gt;Abelianization_issurjinj_isabel</title>
<path fill="none" stroke="black" d="M795.63,-911.69C795.88,-901.89 796.2,-889.42 796.48,-878.33"/>
<polygon fill="black" stroke="black" points="799.98,-878.35 796.74,-868.26 792.99,-878.17 799.98,-878.35"/>
</g>
<!-- Abelianization_issurjinj_isabel&#45;&gt;Abelianization_IsAbelianization -->
<g id="edge56" class="edge">
<title>Abelianization_issurjinj_isabel&#45;&gt;Abelianization_IsAbelianization</title>
<path fill="none" stroke="black" d="M797.18,-831.69C797.18,-821.89 797.18,-809.42 797.18,-798.33"/>
<polygon fill="black" stroke="black" points="800.68,-798.26 797.18,-788.26 793.68,-798.26 800.68,-798.26"/>
</g>
<!-- Abelianization_group_precomp -->
<g id="node42" class="node">
<title>Abelianization_group_precomp</title>
<g id="a_node42"><a xlink:href="Abelianization.html#group_precomp" xlink:title="group_precomp">
<ellipse fill="#f070d1" stroke="black" cx="797.18" cy="-698" rx="83.39" ry="18"/>
<text text-anchor="middle" x="797.18" y="-694.3" font-family="Times,serif" font-size="14.00">group_precomp</text>
</a>
</g>
</g>
<!-- Abelianization_IsAbelianization&#45;&gt;Abelianization_group_precomp -->
<g id="edge57" class="edge">
<title>Abelianization_IsAbelianization&#45;&gt;Abelianization_group_precomp</title>
<path fill="none" stroke="black" d="M797.18,-751.7C797.18,-743.98 797.18,-734.71 797.18,-726.11"/>
<polygon fill="black" stroke="black" points="800.68,-726.1 797.18,-716.1 793.68,-726.1 800.68,-726.1"/>
</g>
</g>
</svg>
