<?xml version="1.0" encoding="UTF-8" standalone="no"?>
<!DOCTYPE svg PUBLIC "-//W3C//DTD SVG 1.1//EN"
 "http://www.w3.org/Graphics/SVG/1.1/DTD/svg11.dtd">
<!-- Generated by graphviz version 2.43.0 (0)
 -->
<!-- Title: HoTT_Algebra_AbSES_PullbackFiberSequence Pages: 1 -->
<svg width="1552pt" height="780pt"
 viewBox="0.00 0.00 1552.00 780.00" xmlns="http://www.w3.org/2000/svg" xmlns:xlink="http://www.w3.org/1999/xlink">
<g id="graph0" class="graph" transform="scale(1 1) rotate(0) translate(4 776)">
<title>HoTT_Algebra_AbSES_PullbackFiberSequence</title>
<polygon fill="white" stroke="transparent" points="-4,4 -4,-776 1548,-776 1548,4 -4,4"/>
<g id="clust1" class="cluster">
<title>cluster_PullbackFiberSequence</title>
<polygon fill="#ffffc3" stroke="black" points="8,-9.04 8,-762.96 1536,-762.96 1536,-9.04 8,-9.04"/>
<text text-anchor="middle" x="100.5" y="-747.76" font-family="Times,serif" font-size="14.00">PullbackFiberSequence</text>
</g>
<!-- PullbackFiberSequence_isexact_abses_pullback -->
<g id="node1" class="node">
<title>PullbackFiberSequence_isexact_abses_pullback</title>
<g id="a_node1"><a xlink:href="PullbackFiberSequence.html#isexact_abses_pullback" xlink:title="isexact_abses_pullback">
<ellipse fill="#f070d1" stroke="black" cx="329" cy="-698.04" rx="117.77" ry="18"/>
<ellipse fill="none" stroke="black" cx="329" cy="-698.04" rx="121.77" ry="22"/>
<ellipse fill="none" stroke="black" cx="329" cy="-698.04" rx="125.78" ry="26"/>
<text text-anchor="middle" x="329" y="-694.34" font-family="Times,serif" font-size="14.00">isexact_abses_pullback</text>
</a>
</g>
</g>
<!-- PullbackFiberSequence_contr_hfiber_cxfib_ -->
<g id="node2" class="node">
<title>PullbackFiberSequence_contr_hfiber_cxfib_</title>
<g id="a_node2"><a xlink:href="PullbackFiberSequence.html#contr_hfiber_cxfib'" xlink:title="contr_hfiber_cxfib&#39;">
<ellipse fill="#f070d1" stroke="black" cx="437" cy="-608.04" rx="95.58" ry="18"/>
<text text-anchor="middle" x="437" y="-604.34" font-family="Times,serif" font-size="14.00">contr_hfiber_cxfib&#39;</text>
</a>
</g>
</g>
<!-- PullbackFiberSequence_isexact_abses_pullback&#45;&gt;PullbackFiberSequence_contr_hfiber_cxfib_ -->
<g id="edge1" class="edge">
<title>PullbackFiberSequence_isexact_abses_pullback&#45;&gt;PullbackFiberSequence_contr_hfiber_cxfib_</title>
<path fill="none" stroke="black" d="M358.8,-672.76C374.29,-660.14 393.12,-644.79 408.43,-632.32"/>
<polygon fill="black" stroke="black" points="410.98,-634.76 416.52,-625.73 406.56,-629.33 410.98,-634.76"/>
</g>
<!-- PullbackFiberSequence_equiv_hfiber_cxfib_ -->
<g id="node13" class="node">
<title>PullbackFiberSequence_equiv_hfiber_cxfib_</title>
<g id="a_node13"><a xlink:href="PullbackFiberSequence.html#equiv_hfiber_cxfib'" xlink:title="equiv_hfiber_cxfib&#39;">
<ellipse fill="#f070d1" stroke="black" cx="113" cy="-364.04" rx="96.68" ry="18"/>
<text text-anchor="middle" x="113" y="-360.34" font-family="Times,serif" font-size="14.00">equiv_hfiber_cxfib&#39;</text>
</a>
</g>
</g>
<!-- PullbackFiberSequence_isexact_abses_pullback&#45;&gt;PullbackFiberSequence_equiv_hfiber_cxfib_ -->
<g id="edge2" class="edge">
<title>PullbackFiberSequence_isexact_abses_pullback&#45;&gt;PullbackFiberSequence_equiv_hfiber_cxfib_</title>
<path fill="none" stroke="black" d="M312.76,-672.09C272.83,-610.71 170.16,-452.9 129.73,-390.75"/>
<polygon fill="black" stroke="black" points="132.61,-388.77 124.23,-382.3 126.74,-392.59 132.61,-388.77"/>
</g>
<!-- PullbackFiberSequence_hfiber_cxfib__induced_path_ -->
<g id="node3" class="node">
<title>PullbackFiberSequence_hfiber_cxfib__induced_path_</title>
<g id="a_node3"><a xlink:href="PullbackFiberSequence.html#hfiber_cxfib'_induced_path'" xlink:title="hfiber_cxfib&#39;_induced_path&#39;">
<ellipse fill="#f070d1" stroke="black" cx="728" cy="-527.04" rx="135.68" ry="18"/>
<text text-anchor="middle" x="728" y="-523.34" font-family="Times,serif" font-size="14.00">hfiber_cxfib&#39;_induced_path&#39;</text>
</a>
</g>
</g>
<!-- PullbackFiberSequence_contr_hfiber_cxfib_&#45;&gt;PullbackFiberSequence_hfiber_cxfib__induced_path_ -->
<g id="edge3" class="edge">
<title>PullbackFiberSequence_contr_hfiber_cxfib_&#45;&gt;PullbackFiberSequence_hfiber_cxfib__induced_path_</title>
<path fill="none" stroke="black" d="M489.02,-592.92C537.17,-579.85 609,-560.35 661.34,-546.14"/>
<polygon fill="black" stroke="black" points="662.47,-549.46 671.2,-543.46 660.64,-542.7 662.47,-549.46"/>
</g>
<!-- PullbackFiberSequence_equiv_path_hfiber_cxfib_ -->
<g id="node10" class="node">
<title>PullbackFiberSequence_equiv_path_hfiber_cxfib_</title>
<g id="a_node10"><a xlink:href="PullbackFiberSequence.html#equiv_path_hfiber_cxfib'" xlink:title="equiv_path_hfiber_cxfib&#39;">
<ellipse fill="#f070d1" stroke="black" cx="437" cy="-527.04" rx="122.38" ry="18"/>
<text text-anchor="middle" x="437" y="-523.34" font-family="Times,serif" font-size="14.00">equiv_path_hfiber_cxfib&#39;</text>
</a>
</g>
</g>
<!-- PullbackFiberSequence_contr_hfiber_cxfib_&#45;&gt;PullbackFiberSequence_equiv_path_hfiber_cxfib_ -->
<g id="edge4" class="edge">
<title>PullbackFiberSequence_contr_hfiber_cxfib_&#45;&gt;PullbackFiberSequence_equiv_path_hfiber_cxfib_</title>
<path fill="none" stroke="black" d="M437,-589.9C437,-579.76 437,-566.68 437,-555.16"/>
<polygon fill="black" stroke="black" points="440.5,-555.15 437,-545.15 433.5,-555.15 440.5,-555.15"/>
</g>
<!-- PullbackFiberSequence_hfiber_cxfib__induced_path_0 -->
<g id="node4" class="node">
<title>PullbackFiberSequence_hfiber_cxfib__induced_path_0</title>
<g id="a_node4"><a xlink:href="PullbackFiberSequence.html#hfiber_cxfib'_induced_path'0" xlink:title="hfiber_cxfib&#39;_induced_path&#39;0">
<ellipse fill="#f070d1" stroke="black" cx="1018" cy="-445.04" rx="141.88" ry="18"/>
<text text-anchor="middle" x="1018" y="-441.34" font-family="Times,serif" font-size="14.00">hfiber_cxfib&#39;_induced_path&#39;0</text>
</a>
</g>
</g>
<!-- PullbackFiberSequence_hfiber_cxfib__induced_path_&#45;&gt;PullbackFiberSequence_hfiber_cxfib__induced_path_0 -->
<g id="edge5" class="edge">
<title>PullbackFiberSequence_hfiber_cxfib__induced_path_&#45;&gt;PullbackFiberSequence_hfiber_cxfib__induced_path_0</title>
<path fill="none" stroke="black" d="M783.91,-510.62C831.75,-497.42 900.7,-478.4 951.39,-464.42"/>
<polygon fill="black" stroke="black" points="952.56,-467.73 961.27,-461.69 950.7,-460.98 952.56,-467.73"/>
</g>
<!-- PullbackFiberSequence_hfiber_cxfib__inhabited -->
<g id="node9" class="node">
<title>PullbackFiberSequence_hfiber_cxfib__inhabited</title>
<g id="a_node9"><a xlink:href="PullbackFiberSequence.html#hfiber_cxfib'_inhabited" xlink:title="hfiber_cxfib&#39;_inhabited">
<ellipse fill="#f070d1" stroke="black" cx="743" cy="-445.04" rx="115.08" ry="18"/>
<text text-anchor="middle" x="743" y="-441.34" font-family="Times,serif" font-size="14.00">hfiber_cxfib&#39;_inhabited</text>
</a>
</g>
</g>
<!-- PullbackFiberSequence_hfiber_cxfib__induced_path_&#45;&gt;PullbackFiberSequence_hfiber_cxfib__inhabited -->
<g id="edge6" class="edge">
<title>PullbackFiberSequence_hfiber_cxfib__induced_path_&#45;&gt;PullbackFiberSequence_hfiber_cxfib__inhabited</title>
<path fill="none" stroke="black" d="M731.25,-508.68C733.19,-498.34 735.7,-484.98 737.9,-473.26"/>
<polygon fill="black" stroke="black" points="741.4,-473.57 739.8,-463.09 734.52,-472.28 741.4,-473.57"/>
</g>
<!-- PullbackFiberSequence_path_hfiber_cxfib_ -->
<g id="node12" class="node">
<title>PullbackFiberSequence_path_hfiber_cxfib_</title>
<g id="a_node12"><a xlink:href="PullbackFiberSequence.html#path_hfiber_cxfib'" xlink:title="path_hfiber_cxfib&#39;">
<ellipse fill="#f070d1" stroke="black" cx="518" cy="-445.04" rx="92.08" ry="18"/>
<text text-anchor="middle" x="518" y="-441.34" font-family="Times,serif" font-size="14.00">path_hfiber_cxfib&#39;</text>
</a>
</g>
</g>
<!-- PullbackFiberSequence_hfiber_cxfib__induced_path_&#45;&gt;PullbackFiberSequence_path_hfiber_cxfib_ -->
<g id="edge7" class="edge">
<title>PullbackFiberSequence_hfiber_cxfib__induced_path_&#45;&gt;PullbackFiberSequence_path_hfiber_cxfib_</title>
<path fill="none" stroke="black" d="M685.5,-509.85C651.54,-496.92 603.87,-478.75 568.06,-465.11"/>
<polygon fill="black" stroke="black" points="568.89,-461.68 558.3,-461.39 566.39,-468.22 568.89,-461.68"/>
</g>
<!-- PullbackFiberSequence_induced_map_eq -->
<g id="node5" class="node">
<title>PullbackFiberSequence_induced_map_eq</title>
<g id="a_node5"><a xlink:href="PullbackFiberSequence.html#induced_map_eq" xlink:title="induced_map_eq">
<ellipse fill="#f070d1" stroke="black" cx="756" cy="-364.04" rx="87.18" ry="18"/>
<text text-anchor="middle" x="756" y="-360.34" font-family="Times,serif" font-size="14.00">induced_map_eq</text>
</a>
</g>
</g>
<!-- PullbackFiberSequence_hfiber_cxfib__induced_path_0&#45;&gt;PullbackFiberSequence_induced_map_eq -->
<g id="edge8" class="edge">
<title>PullbackFiberSequence_hfiber_cxfib__induced_path_0&#45;&gt;PullbackFiberSequence_induced_map_eq</title>
<path fill="none" stroke="black" d="M965.61,-428.25C921.37,-414.91 858.14,-395.84 812.72,-382.14"/>
<polygon fill="black" stroke="black" points="813.61,-378.76 803.02,-379.22 811.59,-385.46 813.61,-378.76"/>
</g>
<!-- PullbackFiberSequence_abses_pullback_trivial_preimage -->
<g id="node19" class="node">
<title>PullbackFiberSequence_abses_pullback_trivial_preimage</title>
<g id="a_node19"><a xlink:href="PullbackFiberSequence.html#abses_pullback_trivial_preimage" xlink:title="abses_pullback_trivial_preimage">
<ellipse fill="#f070d1" stroke="black" cx="1367" cy="-283.04" rx="161.37" ry="18"/>
<text text-anchor="middle" x="1367" y="-279.34" font-family="Times,serif" font-size="14.00">abses_pullback_trivial_preimage</text>
</a>
</g>
</g>
<!-- PullbackFiberSequence_hfiber_cxfib__induced_path_0&#45;&gt;PullbackFiberSequence_abses_pullback_trivial_preimage -->
<g id="edge9" class="edge">
<title>PullbackFiberSequence_hfiber_cxfib__induced_path_0&#45;&gt;PullbackFiberSequence_abses_pullback_trivial_preimage</title>
<path fill="none" stroke="black" d="M1130.98,-434.14C1181.03,-425.78 1238.88,-410.39 1285,-382.04 1314.07,-364.18 1337.81,-332.4 1352.13,-309.88"/>
<polygon fill="black" stroke="black" points="1355.24,-311.51 1357.5,-301.16 1349.28,-307.84 1355.24,-311.51"/>
</g>
<!-- PullbackFiberSequence_fmap_hfiber_abses_lemma -->
<g id="node6" class="node">
<title>PullbackFiberSequence_fmap_hfiber_abses_lemma</title>
<g id="a_node6"><a xlink:href="PullbackFiberSequence.html#fmap_hfiber_abses_lemma" xlink:title="fmap_hfiber_abses_lemma">
<ellipse fill="#f070d1" stroke="black" cx="400" cy="-283.04" rx="131.88" ry="18"/>
<text text-anchor="middle" x="400" y="-279.34" font-family="Times,serif" font-size="14.00">fmap_hfiber_abses_lemma</text>
</a>
</g>
</g>
<!-- PullbackFiberSequence_induced_map_eq&#45;&gt;PullbackFiberSequence_fmap_hfiber_abses_lemma -->
<g id="edge10" class="edge">
<title>PullbackFiberSequence_induced_map_eq&#45;&gt;PullbackFiberSequence_fmap_hfiber_abses_lemma</title>
<path fill="none" stroke="black" d="M698.8,-350.35C638.32,-336.93 542.62,-315.69 475.87,-300.88"/>
<polygon fill="black" stroke="black" points="476.35,-297.4 465.83,-298.65 474.83,-304.23 476.35,-297.4"/>
</g>
<!-- PullbackFiberSequence_abses_pullback_splits_induced_map_ -->
<g id="node7" class="node">
<title>PullbackFiberSequence_abses_pullback_splits_induced_map_</title>
<g id="a_node7"><a xlink:href="PullbackFiberSequence.html#abses_pullback_splits_induced_map'" xlink:title="abses_pullback_splits_induced_map&#39;">
<ellipse fill="#f070d1" stroke="black" cx="1010" cy="-283.04" rx="178.17" ry="18"/>
<text text-anchor="middle" x="1010" y="-279.34" font-family="Times,serif" font-size="14.00">abses_pullback_splits_induced_map&#39;</text>
</a>
</g>
</g>
<!-- PullbackFiberSequence_induced_map_eq&#45;&gt;PullbackFiberSequence_abses_pullback_splits_induced_map_ -->
<g id="edge11" class="edge">
<title>PullbackFiberSequence_induced_map_eq&#45;&gt;PullbackFiberSequence_abses_pullback_splits_induced_map_</title>
<path fill="none" stroke="black" d="M802,-348.74C842.89,-336.02 903,-317.32 948.1,-303.29"/>
<polygon fill="black" stroke="black" points="949.26,-306.6 957.77,-300.29 947.19,-299.91 949.26,-306.6"/>
</g>
<!-- PullbackFiberSequence_hfiber_cxfib__induced_map -->
<g id="node8" class="node">
<title>PullbackFiberSequence_hfiber_cxfib__induced_map</title>
<g id="a_node8"><a xlink:href="PullbackFiberSequence.html#hfiber_cxfib'_induced_map" xlink:title="hfiber_cxfib&#39;_induced_map">
<ellipse fill="#f070d1" stroke="black" cx="682" cy="-283.04" rx="131.88" ry="18"/>
<text text-anchor="middle" x="682" y="-279.34" font-family="Times,serif" font-size="14.00">hfiber_cxfib&#39;_induced_map</text>
</a>
</g>
</g>
<!-- PullbackFiberSequence_induced_map_eq&#45;&gt;PullbackFiberSequence_hfiber_cxfib__induced_map -->
<g id="edge12" class="edge">
<title>PullbackFiberSequence_induced_map_eq&#45;&gt;PullbackFiberSequence_hfiber_cxfib__induced_map</title>
<path fill="none" stroke="black" d="M740.31,-346.29C729.98,-335.26 716.29,-320.65 704.77,-308.35"/>
<polygon fill="black" stroke="black" points="707.32,-305.95 697.93,-301.04 702.21,-310.74 707.32,-305.95"/>
</g>
<!-- PullbackFiberSequence_hfiber_cxfib_ -->
<g id="node16" class="node">
<title>PullbackFiberSequence_hfiber_cxfib_</title>
<g id="a_node16"><a xlink:href="PullbackFiberSequence.html#hfiber_cxfib'" xlink:title="hfiber_cxfib&#39;">
<ellipse fill="#f070d1" stroke="black" cx="231" cy="-201.04" rx="66.89" ry="18"/>
<text text-anchor="middle" x="231" y="-197.34" font-family="Times,serif" font-size="14.00">hfiber_cxfib&#39;</text>
</a>
</g>
</g>
<!-- PullbackFiberSequence_hfiber_cxfib__induced_map&#45;&gt;PullbackFiberSequence_hfiber_cxfib_ -->
<g id="edge13" class="edge">
<title>PullbackFiberSequence_hfiber_cxfib__induced_map&#45;&gt;PullbackFiberSequence_hfiber_cxfib_</title>
<path fill="none" stroke="black" d="M604.98,-268.38C517.77,-252.91 377.2,-227.98 295.52,-213.49"/>
<polygon fill="black" stroke="black" points="295.83,-209.99 285.37,-211.69 294.6,-216.88 295.83,-209.99"/>
</g>
<!-- PullbackFiberSequence_hfiber_cxfib__inhabited&#45;&gt;PullbackFiberSequence_hfiber_cxfib_ -->
<g id="edge14" class="edge">
<title>PullbackFiberSequence_hfiber_cxfib__inhabited&#45;&gt;PullbackFiberSequence_hfiber_cxfib_</title>
<path fill="none" stroke="black" d="M720.21,-427.19C683.94,-400.51 615.86,-351.04 603,-346.04 459.27,-290.23 375.67,-401.86 259,-301.04 248.19,-291.7 239.96,-255.38 235.3,-229.44"/>
<polygon fill="black" stroke="black" points="238.72,-228.68 233.58,-219.41 231.82,-229.86 238.72,-228.68"/>
</g>
<!-- PullbackFiberSequence_abses_pullback_inclusion0_map_ -->
<g id="node18" class="node">
<title>PullbackFiberSequence_abses_pullback_inclusion0_map_</title>
<g id="a_node18"><a xlink:href="PullbackFiberSequence.html#abses_pullback_inclusion0_map'" xlink:title="abses_pullback_inclusion0_map&#39;">
<ellipse fill="#f070d1" stroke="black" cx="1117" cy="-364.04" rx="159.47" ry="18"/>
<text text-anchor="middle" x="1117" y="-360.34" font-family="Times,serif" font-size="14.00">abses_pullback_inclusion0_map&#39;</text>
</a>
</g>
</g>
<!-- PullbackFiberSequence_hfiber_cxfib__inhabited&#45;&gt;PullbackFiberSequence_abses_pullback_inclusion0_map_ -->
<g id="edge15" class="edge">
<title>PullbackFiberSequence_hfiber_cxfib__inhabited&#45;&gt;PullbackFiberSequence_abses_pullback_inclusion0_map_</title>
<path fill="none" stroke="black" d="M808.57,-430.19C871.77,-416.84 967.57,-396.61 1035.61,-382.23"/>
<polygon fill="black" stroke="black" points="1036.38,-385.65 1045.44,-380.16 1034.93,-378.8 1036.38,-385.65"/>
</g>
<!-- PullbackFiberSequence_transport_hfiber_abses_path_cxfib__l -->
<g id="node11" class="node">
<title>PullbackFiberSequence_transport_hfiber_abses_path_cxfib__l</title>
<g id="a_node11"><a xlink:href="PullbackFiberSequence.html#transport_hfiber_abses_path_cxfib'_l" xlink:title="transport_hfiber_abses_path_cxfib&#39;_l">
<ellipse fill="#f070d1" stroke="black" cx="407" cy="-364.04" rx="178.97" ry="18"/>
<text text-anchor="middle" x="407" y="-360.34" font-family="Times,serif" font-size="14.00">transport_hfiber_abses_path_cxfib&#39;_l</text>
</a>
</g>
</g>
<!-- PullbackFiberSequence_equiv_path_hfiber_cxfib_&#45;&gt;PullbackFiberSequence_transport_hfiber_abses_path_cxfib__l -->
<g id="edge16" class="edge">
<title>PullbackFiberSequence_equiv_path_hfiber_cxfib_&#45;&gt;PullbackFiberSequence_transport_hfiber_abses_path_cxfib__l</title>
<path fill="none" stroke="black" d="M430.51,-508.92C426.02,-496.39 420.29,-478.89 417,-463.04 412.11,-439.45 409.57,-412.14 408.28,-392.35"/>
<polygon fill="black" stroke="black" points="411.76,-391.98 407.68,-382.2 404.77,-392.39 411.76,-391.98"/>
</g>
<!-- PullbackFiberSequence_equiv_path_hfiber_cxfib_&#45;&gt;PullbackFiberSequence_path_hfiber_cxfib_ -->
<g id="edge17" class="edge">
<title>PullbackFiberSequence_equiv_path_hfiber_cxfib_&#45;&gt;PullbackFiberSequence_path_hfiber_cxfib_</title>
<path fill="none" stroke="black" d="M454.18,-509.08C465.67,-497.73 480.96,-482.63 493.69,-470.05"/>
<polygon fill="black" stroke="black" points="496.19,-472.5 500.85,-462.98 491.27,-467.52 496.19,-472.5"/>
</g>
<!-- PullbackFiberSequence_transport_hfiber_abses_path_cxfib__l&#45;&gt;PullbackFiberSequence_hfiber_cxfib_ -->
<g id="edge18" class="edge">
<title>PullbackFiberSequence_transport_hfiber_abses_path_cxfib__l&#45;&gt;PullbackFiberSequence_hfiber_cxfib_</title>
<path fill="none" stroke="black" d="M298.14,-349.59C269.43,-340.52 241.59,-325.58 224,-301.04 209.09,-280.25 213.83,-250.27 220.44,-228.76"/>
<polygon fill="black" stroke="black" points="223.77,-229.84 223.66,-219.25 217.14,-227.6 223.77,-229.84"/>
</g>
<!-- PullbackFiberSequence_path_hfiber_cxfib_&#45;&gt;PullbackFiberSequence_hfiber_cxfib_ -->
<g id="edge19" class="edge">
<title>PullbackFiberSequence_path_hfiber_cxfib_&#45;&gt;PullbackFiberSequence_hfiber_cxfib_</title>
<path fill="none" stroke="black" d="M546.19,-427.82C577.12,-408.01 619.37,-373.74 595,-346.04 491.1,-227.97 355.38,-412.08 244,-301.04 225.54,-282.64 224.28,-251.69 226.39,-229.29"/>
<polygon fill="black" stroke="black" points="229.9,-229.42 227.63,-219.07 222.95,-228.58 229.9,-229.42"/>
</g>
<!-- PullbackFiberSequence_eq_cxfib_cxfib_ -->
<g id="node14" class="node">
<title>PullbackFiberSequence_eq_cxfib_cxfib_</title>
<g id="a_node14"><a xlink:href="PullbackFiberSequence.html#eq_cxfib_cxfib'" xlink:title="eq_cxfib_cxfib&#39;">
<ellipse fill="#f070d1" stroke="black" cx="93" cy="-283.04" rx="77.19" ry="18"/>
<text text-anchor="middle" x="93" y="-279.34" font-family="Times,serif" font-size="14.00">eq_cxfib_cxfib&#39;</text>
</a>
</g>
</g>
<!-- PullbackFiberSequence_equiv_hfiber_cxfib_&#45;&gt;PullbackFiberSequence_eq_cxfib_cxfib_ -->
<g id="edge20" class="edge">
<title>PullbackFiberSequence_equiv_hfiber_cxfib_&#45;&gt;PullbackFiberSequence_eq_cxfib_cxfib_</title>
<path fill="none" stroke="black" d="M108.66,-345.9C106.09,-335.76 102.78,-322.68 99.87,-311.16"/>
<polygon fill="black" stroke="black" points="103.18,-309.99 97.33,-301.15 96.39,-311.7 103.18,-309.99"/>
</g>
<!-- PullbackFiberSequence_equiv_hfiber_cxfib_&#45;&gt;PullbackFiberSequence_hfiber_cxfib_ -->
<g id="edge21" class="edge">
<title>PullbackFiberSequence_equiv_hfiber_cxfib_&#45;&gt;PullbackFiberSequence_hfiber_cxfib_</title>
<path fill="none" stroke="black" d="M134.07,-346.42C147.98,-334.74 165.96,-318.19 179,-301.04 196.25,-278.36 210.81,-249.15 220.1,-228.35"/>
<polygon fill="black" stroke="black" points="223.31,-229.72 224.1,-219.16 216.9,-226.93 223.31,-229.72"/>
</g>
<!-- PullbackFiberSequence_pr2_cxfib_ -->
<g id="node15" class="node">
<title>PullbackFiberSequence_pr2_cxfib_</title>
<g id="a_node15"><a xlink:href="PullbackFiberSequence.html#pr2_cxfib'" xlink:title="pr2_cxfib&#39;">
<ellipse fill="#f070d1" stroke="black" cx="90" cy="-201.04" rx="55.79" ry="18"/>
<text text-anchor="middle" x="90" y="-197.34" font-family="Times,serif" font-size="14.00">pr2_cxfib&#39;</text>
</a>
</g>
</g>
<!-- PullbackFiberSequence_eq_cxfib_cxfib_&#45;&gt;PullbackFiberSequence_pr2_cxfib_ -->
<g id="edge22" class="edge">
<title>PullbackFiberSequence_eq_cxfib_cxfib_&#45;&gt;PullbackFiberSequence_pr2_cxfib_</title>
<path fill="none" stroke="black" d="M92.35,-264.68C91.96,-254.34 91.46,-240.98 91.02,-229.26"/>
<polygon fill="black" stroke="black" points="94.51,-228.95 90.64,-219.09 87.52,-229.22 94.51,-228.95"/>
</g>
<!-- PullbackFiberSequence_cxfib_ -->
<g id="node17" class="node">
<title>PullbackFiberSequence_cxfib_</title>
<g id="a_node17"><a xlink:href="PullbackFiberSequence.html#cxfib'" xlink:title="cxfib&#39;">
<ellipse fill="#f070d1" stroke="black" cx="160" cy="-120.04" rx="35.19" ry="18"/>
<text text-anchor="middle" x="160" y="-116.34" font-family="Times,serif" font-size="14.00">cxfib&#39;</text>
</a>
</g>
</g>
<!-- PullbackFiberSequence_pr2_cxfib_&#45;&gt;PullbackFiberSequence_cxfib_ -->
<g id="edge23" class="edge">
<title>PullbackFiberSequence_pr2_cxfib_&#45;&gt;PullbackFiberSequence_cxfib_</title>
<path fill="none" stroke="black" d="M104.85,-183.29C114.85,-171.99 128.2,-156.93 139.25,-144.46"/>
<polygon fill="black" stroke="black" points="142.12,-146.5 146.13,-136.7 136.88,-141.86 142.12,-146.5"/>
</g>
<!-- PullbackFiberSequence_hfiber_cxfib_&#45;&gt;PullbackFiberSequence_cxfib_ -->
<g id="edge24" class="edge">
<title>PullbackFiberSequence_hfiber_cxfib_&#45;&gt;PullbackFiberSequence_cxfib_</title>
<path fill="none" stroke="black" d="M215.94,-183.29C205.79,-171.99 192.26,-156.93 181.04,-144.46"/>
<polygon fill="black" stroke="black" points="183.36,-141.8 174.07,-136.7 178.15,-146.47 183.36,-141.8"/>
</g>
<!-- PullbackFiberSequence_abses_pullback_inclusion0_map_&#45;&gt;PullbackFiberSequence_abses_pullback_trivial_preimage -->
<g id="edge25" class="edge">
<title>PullbackFiberSequence_abses_pullback_inclusion0_map_&#45;&gt;PullbackFiberSequence_abses_pullback_trivial_preimage</title>
<path fill="none" stroke="black" d="M1167.89,-346.96C1207.89,-334.32 1263.74,-316.67 1306.11,-303.28"/>
<polygon fill="black" stroke="black" points="1307.27,-306.59 1315.75,-300.24 1305.16,-299.91 1307.27,-306.59"/>
</g>
<!-- PullbackFiberSequence_abses_pullback_inclusion_transpose_beta -->
<g id="node20" class="node">
<title>PullbackFiberSequence_abses_pullback_inclusion_transpose_beta</title>
<g id="a_node20"><a xlink:href="PullbackFiberSequence.html#abses_pullback_inclusion_transpose_beta" xlink:title="abses_pullback_inclusion_transpose_beta">
<ellipse fill="#f070d1" stroke="black" cx="843" cy="-120.04" rx="201.46" ry="18"/>
<text text-anchor="middle" x="843" y="-116.34" font-family="Times,serif" font-size="14.00">abses_pullback_inclusion_transpose_beta</text>
</a>
</g>
</g>
<!-- PullbackFiberSequence_abses_pullback_trivial_preimage&#45;&gt;PullbackFiberSequence_abses_pullback_inclusion_transpose_beta -->
<g id="edge26" class="edge">
<title>PullbackFiberSequence_abses_pullback_trivial_preimage&#45;&gt;PullbackFiberSequence_abses_pullback_inclusion_transpose_beta</title>
<path fill="none" stroke="black" d="M1276.17,-268.1C1215.77,-257.6 1135.14,-241.21 1066,-219.04 1000.58,-198.07 928.39,-164.26 884.37,-142.34"/>
<polygon fill="black" stroke="black" points="885.92,-139.2 875.41,-137.85 882.79,-145.46 885.92,-139.2"/>
</g>
<!-- PullbackFiberSequence_abses_pullback_inclusion_transpose_endpoint_ -->
<g id="node21" class="node">
<title>PullbackFiberSequence_abses_pullback_inclusion_transpose_endpoint_</title>
<g id="a_node21"><a xlink:href="PullbackFiberSequence.html#abses_pullback_inclusion_transpose_endpoint'" xlink:title="abses_pullback_inclusion_transpose_endpoint&#39;">
<ellipse fill="#f070d1" stroke="black" cx="1299" cy="-201.04" rx="224.46" ry="18"/>
<text text-anchor="middle" x="1299" y="-197.34" font-family="Times,serif" font-size="14.00">abses_pullback_inclusion_transpose_endpoint&#39;</text>
</a>
</g>
</g>
<!-- PullbackFiberSequence_abses_pullback_trivial_preimage&#45;&gt;PullbackFiberSequence_abses_pullback_inclusion_transpose_endpoint_ -->
<g id="edge27" class="edge">
<title>PullbackFiberSequence_abses_pullback_trivial_preimage&#45;&gt;PullbackFiberSequence_abses_pullback_inclusion_transpose_endpoint_</title>
<path fill="none" stroke="black" d="M1352.58,-265.08C1343.18,-254.01 1330.74,-239.39 1320.22,-227.01"/>
<polygon fill="black" stroke="black" points="1322.78,-224.61 1313.63,-219.26 1317.44,-229.15 1322.78,-224.61"/>
</g>
<!-- PullbackFiberSequence_abses_pullback_inclusion_transpose_map -->
<g id="node24" class="node">
<title>PullbackFiberSequence_abses_pullback_inclusion_transpose_map</title>
<g id="a_node24"><a xlink:href="PullbackFiberSequence.html#abses_pullback_inclusion_transpose_map" xlink:title="abses_pullback_inclusion_transpose_map">
<ellipse fill="#f070d1" stroke="black" cx="878" cy="-38.04" rx="200.66" ry="18"/>
<text text-anchor="middle" x="878" y="-34.34" font-family="Times,serif" font-size="14.00">abses_pullback_inclusion_transpose_map</text>
</a>
</g>
</g>
<!-- PullbackFiberSequence_abses_pullback_inclusion_transpose_beta&#45;&gt;PullbackFiberSequence_abses_pullback_inclusion_transpose_map -->
<g id="edge28" class="edge">
<title>PullbackFiberSequence_abses_pullback_inclusion_transpose_beta&#45;&gt;PullbackFiberSequence_abses_pullback_inclusion_transpose_map</title>
<path fill="none" stroke="black" d="M850.59,-101.68C855.21,-91.13 861.2,-77.44 866.4,-65.55"/>
<polygon fill="black" stroke="black" points="869.74,-66.66 870.54,-56.09 863.33,-63.85 869.74,-66.66"/>
</g>
<!-- PullbackFiberSequence_abses_pullback_inclusion_transpose_embedding -->
<g id="node22" class="node">
<title>PullbackFiberSequence_abses_pullback_inclusion_transpose_embedding</title>
<g id="a_node22"><a xlink:href="PullbackFiberSequence.html#abses_pullback_inclusion_transpose_embedding" xlink:title="abses_pullback_inclusion_transpose_embedding">
<ellipse fill="#f070d1" stroke="black" cx="1295" cy="-120.04" rx="232.86" ry="18"/>
<text text-anchor="middle" x="1295" y="-116.34" font-family="Times,serif" font-size="14.00">abses_pullback_inclusion_transpose_embedding</text>
</a>
</g>
</g>
<!-- PullbackFiberSequence_abses_pullback_inclusion_transpose_endpoint_&#45;&gt;PullbackFiberSequence_abses_pullback_inclusion_transpose_embedding -->
<g id="edge29" class="edge">
<title>PullbackFiberSequence_abses_pullback_inclusion_transpose_endpoint_&#45;&gt;PullbackFiberSequence_abses_pullback_inclusion_transpose_embedding</title>
<path fill="none" stroke="black" d="M1298.13,-182.9C1297.62,-172.76 1296.96,-159.68 1296.37,-148.16"/>
<polygon fill="black" stroke="black" points="1299.87,-147.96 1295.87,-138.15 1292.88,-148.32 1299.87,-147.96"/>
</g>
<!-- PullbackFiberSequence_abses_pullback_inclusion_lemma -->
<g id="node23" class="node">
<title>PullbackFiberSequence_abses_pullback_inclusion_lemma</title>
<g id="a_node23"><a xlink:href="PullbackFiberSequence.html#abses_pullback_inclusion_lemma" xlink:title="abses_pullback_inclusion_lemma">
<ellipse fill="#f070d1" stroke="black" cx="1295" cy="-38.04" rx="161.67" ry="18"/>
<text text-anchor="middle" x="1295" y="-34.34" font-family="Times,serif" font-size="14.00">abses_pullback_inclusion_lemma</text>
</a>
</g>
</g>
<!-- PullbackFiberSequence_abses_pullback_inclusion_transpose_embedding&#45;&gt;PullbackFiberSequence_abses_pullback_inclusion_lemma -->
<g id="edge30" class="edge">
<title>PullbackFiberSequence_abses_pullback_inclusion_transpose_embedding&#45;&gt;PullbackFiberSequence_abses_pullback_inclusion_lemma</title>
<path fill="none" stroke="black" d="M1295,-101.68C1295,-91.34 1295,-77.98 1295,-66.26"/>
<polygon fill="black" stroke="black" points="1298.5,-66.09 1295,-56.09 1291.5,-66.09 1298.5,-66.09"/>
</g>
<!-- PullbackFiberSequence_abses_pullback_inclusion_transpose_embedding&#45;&gt;PullbackFiberSequence_abses_pullback_inclusion_transpose_map -->
<g id="edge31" class="edge">
<title>PullbackFiberSequence_abses_pullback_inclusion_transpose_embedding&#45;&gt;PullbackFiberSequence_abses_pullback_inclusion_transpose_map</title>
<path fill="none" stroke="black" d="M1212.12,-103.14C1141.91,-89.67 1041.4,-70.39 968.98,-56.5"/>
<polygon fill="black" stroke="black" points="969.43,-53.02 958.95,-54.57 968.12,-59.89 969.43,-53.02"/>
</g>
</g>
</svg>
