<?xml version="1.0" encoding="UTF-8" standalone="no"?>
<!DOCTYPE svg PUBLIC "-//W3C//DTD SVG 1.1//EN"
 "http://www.w3.org/Graphics/SVG/1.1/DTD/svg11.dtd">
<!-- Generated by graphviz version 2.43.0 (0)
 -->
<!-- Title: HoTT_HFiber Pages: 1 -->
<svg width="4006pt" height="2007pt"
 viewBox="0.00 0.00 4006.00 2007.00" xmlns="http://www.w3.org/2000/svg" xmlns:xlink="http://www.w3.org/1999/xlink">
<g id="graph0" class="graph" transform="scale(1 1) rotate(0) translate(4 2003)">
<title>HoTT_HFiber</title>
<polygon fill="white" stroke="transparent" points="-4,4 -4,-2003 4002,-2003 4002,4 -4,4"/>
<g id="clust1" class="cluster">
<title>cluster_HFiber</title>
<polygon fill="#ffffc3" stroke="black" points="8,-31.05 8,-1967.95 3990,-1967.95 3990,-31.05 8,-31.05"/>
<text text-anchor="middle" x="41.5" y="-1952.75" font-family="Times,serif" font-size="14.00">HFiber</text>
</g>
<!-- HFiber_ap_isinj_embedding_beta -->
<g id="node1" class="node">
<title>HFiber_ap_isinj_embedding_beta</title>
<g id="a_node1"><a xlink:href="HFiber.html#ap_isinj_embedding_beta" xlink:title="ap_isinj_embedding_beta">
<ellipse fill="#f070d1" stroke="black" cx="3847" cy="-1747.05" rx="126.96" ry="18"/>
<ellipse fill="none" stroke="black" cx="3847" cy="-1747.05" rx="130.97" ry="22"/>
<ellipse fill="none" stroke="black" cx="3847" cy="-1747.05" rx="134.98" ry="26"/>
<text text-anchor="middle" x="3847" y="-1743.35" font-family="Times,serif" font-size="14.00">ap_isinj_embedding_beta</text>
</a>
</g>
</g>
<!-- HFiber_equiv_ap_isembedding -->
<g id="node5" class="node">
<title>HFiber_equiv_ap_isembedding</title>
<g id="a_node5"><a xlink:href="HFiber.html#equiv_ap_isembedding" xlink:title="equiv_ap_isembedding">
<ellipse fill="#f070d1" stroke="black" cx="3252" cy="-1405.05" rx="115.88" ry="18"/>
<text text-anchor="middle" x="3252" y="-1401.35" font-family="Times,serif" font-size="14.00">equiv_ap_isembedding</text>
</a>
</g>
</g>
<!-- HFiber_ap_isinj_embedding_beta&#45;&gt;HFiber_equiv_ap_isembedding -->
<g id="edge1" class="edge">
<title>HFiber_ap_isinj_embedding_beta&#45;&gt;HFiber_equiv_ap_isembedding</title>
<path fill="none" stroke="black" d="M3805.16,-1722.14C3694.51,-1658.92 3395.43,-1488.01 3289.67,-1427.58"/>
<polygon fill="black" stroke="black" points="3291.35,-1424.51 3280.93,-1422.58 3287.88,-1430.58 3291.35,-1424.51"/>
</g>
<!-- HFiber_isembedding_equiv_fun -->
<g id="node2" class="node">
<title>HFiber_isembedding_equiv_fun</title>
<g id="a_node2"><a xlink:href="HFiber.html#isembedding_equiv_fun" xlink:title="isembedding_equiv_fun">
<ellipse fill="#f070d1" stroke="black" cx="3854" cy="-1405.05" rx="119.67" ry="18"/>
<ellipse fill="none" stroke="black" cx="3854" cy="-1405.05" rx="123.68" ry="22"/>
<ellipse fill="none" stroke="black" cx="3854" cy="-1405.05" rx="127.68" ry="26"/>
<text text-anchor="middle" x="3854" y="-1401.35" font-family="Times,serif" font-size="14.00">isembedding_equiv_fun</text>
</a>
</g>
</g>
<!-- HFiber_isembedding_isequiv_ap -->
<g id="node4" class="node">
<title>HFiber_isembedding_isequiv_ap</title>
<g id="a_node4"><a xlink:href="HFiber.html#isembedding_isequiv_ap" xlink:title="isembedding_isequiv_ap">
<ellipse fill="#f070d1" stroke="black" cx="3811" cy="-1063.05" rx="123.48" ry="18"/>
<text text-anchor="middle" x="3811" y="-1059.35" font-family="Times,serif" font-size="14.00">isembedding_isequiv_ap</text>
</a>
</g>
</g>
<!-- HFiber_isembedding_equiv_fun&#45;&gt;HFiber_isembedding_isequiv_ap -->
<g id="edge2" class="edge">
<title>HFiber_isembedding_equiv_fun&#45;&gt;HFiber_isembedding_isequiv_ap</title>
<path fill="none" stroke="black" d="M3850.84,-1379.05C3842.99,-1317 3822.67,-1156.32 3814.49,-1091.63"/>
<polygon fill="black" stroke="black" points="3817.92,-1090.89 3813.19,-1081.41 3810.98,-1091.77 3817.92,-1090.89"/>
</g>
<!-- HFiber_equiv_isequiv_ap_isembedding -->
<g id="node3" class="node">
<title>HFiber_equiv_isequiv_ap_isembedding</title>
<g id="a_node3"><a xlink:href="HFiber.html#equiv_isequiv_ap_isembedding" xlink:title="equiv_isequiv_ap_isembedding">
<ellipse fill="#f070d1" stroke="black" cx="3547" cy="-1405.05" rx="153.28" ry="18"/>
<ellipse fill="none" stroke="black" cx="3547" cy="-1405.05" rx="157.28" ry="22"/>
<ellipse fill="none" stroke="black" cx="3547" cy="-1405.05" rx="161.27" ry="26"/>
<text text-anchor="middle" x="3547" y="-1401.35" font-family="Times,serif" font-size="14.00">equiv_isequiv_ap_isembedding</text>
</a>
</g>
</g>
<!-- HFiber_equiv_isequiv_ap_isembedding&#45;&gt;HFiber_isembedding_isequiv_ap -->
<g id="edge3" class="edge">
<title>HFiber_equiv_isequiv_ap_isembedding&#45;&gt;HFiber_isembedding_isequiv_ap</title>
<path fill="none" stroke="black" d="M3566.41,-1379.05C3615.2,-1316.22 3742.54,-1152.22 3791.46,-1089.22"/>
<polygon fill="black" stroke="black" points="3794.46,-1091.06 3797.83,-1081.02 3788.93,-1086.77 3794.46,-1091.06"/>
</g>
<!-- HFiber_isequiv_ap_isembedding -->
<g id="node6" class="node">
<title>HFiber_isequiv_ap_isembedding</title>
<g id="a_node6"><a xlink:href="HFiber.html#isequiv_ap_isembedding" xlink:title="isequiv_ap_isembedding">
<ellipse fill="#f070d1" stroke="black" cx="3295" cy="-1063.05" rx="123.48" ry="18"/>
<text text-anchor="middle" x="3295" y="-1059.35" font-family="Times,serif" font-size="14.00">isequiv_ap_isembedding</text>
</a>
</g>
</g>
<!-- HFiber_equiv_isequiv_ap_isembedding&#45;&gt;HFiber_isequiv_ap_isembedding -->
<g id="edge4" class="edge">
<title>HFiber_equiv_isequiv_ap_isembedding&#45;&gt;HFiber_isequiv_ap_isembedding</title>
<path fill="none" stroke="black" d="M3528.47,-1379.05C3481.9,-1316.22 3360.35,-1152.22 3313.65,-1089.22"/>
<polygon fill="black" stroke="black" points="3316.34,-1086.97 3307.57,-1081.02 3310.72,-1091.13 3316.34,-1086.97"/>
</g>
<!-- HFiber_istruncmap_from_ap -->
<g id="node8" class="node">
<title>HFiber_istruncmap_from_ap</title>
<g id="a_node8"><a xlink:href="HFiber.html#istruncmap_from_ap" xlink:title="istruncmap_from_ap">
<ellipse fill="#f070d1" stroke="black" cx="3654" cy="-722.05" rx="105.08" ry="18"/>
<text text-anchor="middle" x="3654" y="-718.35" font-family="Times,serif" font-size="14.00">istruncmap_from_ap</text>
</a>
</g>
</g>
<!-- HFiber_isembedding_isequiv_ap&#45;&gt;HFiber_istruncmap_from_ap -->
<g id="edge5" class="edge">
<title>HFiber_isembedding_isequiv_ap&#45;&gt;HFiber_istruncmap_from_ap</title>
<path fill="none" stroke="black" d="M3803,-1044.78C3777.38,-989.46 3697.26,-816.47 3666.34,-749.71"/>
<polygon fill="black" stroke="black" points="3669.36,-747.9 3661.99,-740.29 3663.01,-750.84 3669.36,-747.9"/>
</g>
<!-- HFiber_equiv_ap_isembedding&#45;&gt;HFiber_isequiv_ap_isembedding -->
<g id="edge6" class="edge">
<title>HFiber_equiv_ap_isembedding&#45;&gt;HFiber_isequiv_ap_isembedding</title>
<path fill="none" stroke="black" d="M3254.19,-1386.72C3261.18,-1331.48 3282.97,-1159.17 3291.51,-1091.62"/>
<polygon fill="black" stroke="black" points="3295.03,-1091.71 3292.81,-1081.35 3288.09,-1090.83 3295.03,-1091.71"/>
</g>
<!-- HFiber_istruncmap_ap -->
<g id="node9" class="node">
<title>HFiber_istruncmap_ap</title>
<g id="a_node9"><a xlink:href="HFiber.html#istruncmap_ap" xlink:title="istruncmap_ap">
<ellipse fill="#f070d1" stroke="black" cx="3451" cy="-722.05" rx="79.09" ry="18"/>
<text text-anchor="middle" x="3451" y="-718.35" font-family="Times,serif" font-size="14.00">istruncmap_ap</text>
</a>
</g>
</g>
<!-- HFiber_isequiv_ap_isembedding&#45;&gt;HFiber_istruncmap_ap -->
<g id="edge7" class="edge">
<title>HFiber_isequiv_ap_isembedding&#45;&gt;HFiber_istruncmap_ap</title>
<path fill="none" stroke="black" d="M3302.95,-1044.78C3328.4,-989.46 3408.01,-816.47 3438.73,-749.71"/>
<polygon fill="black" stroke="black" points="3442.06,-750.84 3443.07,-740.29 3435.71,-747.92 3442.06,-750.84"/>
</g>
<!-- HFiber_equiv_istruncmap_ap -->
<g id="node7" class="node">
<title>HFiber_equiv_istruncmap_ap</title>
<g id="a_node7"><a xlink:href="HFiber.html#equiv_istruncmap_ap" xlink:title="equiv_istruncmap_ap">
<ellipse fill="#f070d1" stroke="black" cx="3553" cy="-1063.05" rx="108.58" ry="18"/>
<ellipse fill="none" stroke="black" cx="3553" cy="-1063.05" rx="112.58" ry="22"/>
<ellipse fill="none" stroke="black" cx="3553" cy="-1063.05" rx="116.58" ry="26"/>
<text text-anchor="middle" x="3553" y="-1059.35" font-family="Times,serif" font-size="14.00">equiv_istruncmap_ap</text>
</a>
</g>
</g>
<!-- HFiber_equiv_istruncmap_ap&#45;&gt;HFiber_istruncmap_from_ap -->
<g id="edge8" class="edge">
<title>HFiber_equiv_istruncmap_ap&#45;&gt;HFiber_istruncmap_from_ap</title>
<path fill="none" stroke="black" d="M3560.51,-1036.85C3579.04,-974.64 3626.85,-814.19 3645.94,-750.09"/>
<polygon fill="black" stroke="black" points="3649.36,-750.9 3648.86,-740.32 3642.65,-748.9 3649.36,-750.9"/>
</g>
<!-- HFiber_equiv_istruncmap_ap&#45;&gt;HFiber_istruncmap_ap -->
<g id="edge9" class="edge">
<title>HFiber_equiv_istruncmap_ap&#45;&gt;HFiber_istruncmap_ap</title>
<path fill="none" stroke="black" d="M3545.42,-1036.85C3526.7,-974.64 3478.42,-814.19 3459.14,-750.09"/>
<polygon fill="black" stroke="black" points="3462.43,-748.88 3456.19,-740.32 3455.72,-750.9 3462.43,-748.88"/>
</g>
<!-- HFiber_hfiber_ap -->
<g id="node30" class="node">
<title>HFiber_hfiber_ap</title>
<g id="a_node30"><a xlink:href="HFiber.html#hfiber_ap" xlink:title="hfiber_ap">
<ellipse fill="#f070d1" stroke="black" cx="3459" cy="-411.05" rx="53.89" ry="18"/>
<text text-anchor="middle" x="3459" y="-407.35" font-family="Times,serif" font-size="14.00">hfiber_ap</text>
</a>
</g>
</g>
<!-- HFiber_istruncmap_from_ap&#45;&gt;HFiber_hfiber_ap -->
<g id="edge10" class="edge">
<title>HFiber_istruncmap_from_ap&#45;&gt;HFiber_hfiber_ap</title>
<path fill="none" stroke="black" d="M3643.24,-704C3610.81,-652.61 3513.9,-499.04 3475.21,-437.74"/>
<polygon fill="black" stroke="black" points="3478.03,-435.64 3469.73,-429.05 3472.11,-439.38 3478.03,-435.64"/>
</g>
<!-- HFiber_istruncmap_ap&#45;&gt;HFiber_hfiber_ap -->
<g id="edge11" class="edge">
<title>HFiber_istruncmap_ap&#45;&gt;HFiber_hfiber_ap</title>
<path fill="none" stroke="black" d="M3451.44,-704C3452.76,-653.03 3456.68,-501.56 3458.3,-439.27"/>
<polygon fill="black" stroke="black" points="3461.8,-439.14 3458.56,-429.05 3454.8,-438.96 3461.8,-439.14"/>
</g>
<!-- HFiber_istruncmap_const -->
<g id="node10" class="node">
<title>HFiber_istruncmap_const</title>
<g id="a_node10"><a xlink:href="HFiber.html#istruncmap_const" xlink:title="istruncmap_const">
<ellipse fill="#f070d1" stroke="black" cx="3593" cy="-1747.05" rx="92.89" ry="18"/>
<ellipse fill="none" stroke="black" cx="3593" cy="-1747.05" rx="96.89" ry="22"/>
<ellipse fill="none" stroke="black" cx="3593" cy="-1747.05" rx="100.88" ry="26"/>
<text text-anchor="middle" x="3593" y="-1743.35" font-family="Times,serif" font-size="14.00">istruncmap_const</text>
</a>
</g>
</g>
<!-- HFiber_hfiber_const -->
<g id="node11" class="node">
<title>HFiber_hfiber_const</title>
<g id="a_node11"><a xlink:href="HFiber.html#hfiber_const" xlink:title="hfiber_const">
<ellipse fill="#f070d1" stroke="black" cx="3398" cy="-1747.05" rx="67.68" ry="18"/>
<ellipse fill="none" stroke="black" cx="3398" cy="-1747.05" rx="71.68" ry="22"/>
<ellipse fill="none" stroke="black" cx="3398" cy="-1747.05" rx="75.69" ry="26"/>
<text text-anchor="middle" x="3398" y="-1743.35" font-family="Times,serif" font-size="14.00">hfiber_const</text>
</a>
</g>
</g>
<!-- HFiber_hfiber_functor_forall_id -->
<g id="node12" class="node">
<title>HFiber_hfiber_functor_forall_id</title>
<g id="a_node12"><a xlink:href="HFiber.html#hfiber_functor_forall_id" xlink:title="hfiber_functor_forall_id">
<ellipse fill="#f070d1" stroke="black" cx="3178" cy="-1747.05" rx="118.09" ry="18"/>
<ellipse fill="none" stroke="black" cx="3178" cy="-1747.05" rx="122.09" ry="22"/>
<ellipse fill="none" stroke="black" cx="3178" cy="-1747.05" rx="126.08" ry="26"/>
<text text-anchor="middle" x="3178" y="-1743.35" font-family="Times,serif" font-size="14.00">hfiber_functor_forall_id</text>
</a>
</g>
</g>
<!-- HFiber_istruncmap_compose -->
<g id="node13" class="node">
<title>HFiber_istruncmap_compose</title>
<g id="a_node13"><a xlink:href="HFiber.html#istruncmap_compose" xlink:title="istruncmap_compose">
<ellipse fill="#f070d1" stroke="black" cx="2917" cy="-1747.05" rx="108.58" ry="18"/>
<ellipse fill="none" stroke="black" cx="2917" cy="-1747.05" rx="112.58" ry="22"/>
<ellipse fill="none" stroke="black" cx="2917" cy="-1747.05" rx="116.58" ry="26"/>
<text text-anchor="middle" x="2917" y="-1743.35" font-family="Times,serif" font-size="14.00">istruncmap_compose</text>
</a>
</g>
</g>
<!-- HFiber_hfiber_compose -->
<g id="node14" class="node">
<title>HFiber_hfiber_compose</title>
<g id="a_node14"><a xlink:href="HFiber.html#hfiber_compose" xlink:title="hfiber_compose">
<ellipse fill="#f070d1" stroke="black" cx="2917" cy="-1405.05" rx="83.39" ry="18"/>
<text text-anchor="middle" x="2917" y="-1401.35" font-family="Times,serif" font-size="14.00">hfiber_compose</text>
</a>
</g>
</g>
<!-- HFiber_istruncmap_compose&#45;&gt;HFiber_hfiber_compose -->
<g id="edge12" class="edge">
<title>HFiber_istruncmap_compose&#45;&gt;HFiber_hfiber_compose</title>
<path fill="none" stroke="black" d="M2917,-1721.05C2917,-1659 2917,-1498.32 2917,-1433.63"/>
<polygon fill="black" stroke="black" points="2920.5,-1433.41 2917,-1423.41 2913.5,-1433.41 2920.5,-1433.41"/>
</g>
<!-- HFiber_hfiber_hfiber_compose_map -->
<g id="node15" class="node">
<title>HFiber_hfiber_hfiber_compose_map</title>
<g id="a_node15"><a xlink:href="HFiber.html#hfiber_hfiber_compose_map" xlink:title="hfiber_hfiber_compose_map">
<ellipse fill="#f070d1" stroke="black" cx="2635" cy="-1747.05" rx="139.17" ry="18"/>
<ellipse fill="none" stroke="black" cx="2635" cy="-1747.05" rx="143.17" ry="22"/>
<ellipse fill="none" stroke="black" cx="2635" cy="-1747.05" rx="147.18" ry="26"/>
<text text-anchor="middle" x="2635" y="-1743.35" font-family="Times,serif" font-size="14.00">hfiber_hfiber_compose_map</text>
</a>
</g>
</g>
<!-- HFiber_hfiber_compose_map -->
<g id="node16" class="node">
<title>HFiber_hfiber_compose_map</title>
<g id="a_node16"><a xlink:href="HFiber.html#hfiber_compose_map" xlink:title="hfiber_compose_map">
<ellipse fill="#f070d1" stroke="black" cx="2635" cy="-1405.05" rx="107.48" ry="18"/>
<text text-anchor="middle" x="2635" y="-1401.35" font-family="Times,serif" font-size="14.00">hfiber_compose_map</text>
</a>
</g>
</g>
<!-- HFiber_hfiber_hfiber_compose_map&#45;&gt;HFiber_hfiber_compose_map -->
<g id="edge13" class="edge">
<title>HFiber_hfiber_hfiber_compose_map&#45;&gt;HFiber_hfiber_compose_map</title>
<path fill="none" stroke="black" d="M2635,-1721.05C2635,-1659 2635,-1498.32 2635,-1433.63"/>
<polygon fill="black" stroke="black" points="2638.5,-1433.41 2635,-1423.41 2631.5,-1433.41 2638.5,-1433.41"/>
</g>
<!-- HFiber_hfiber_fibration -->
<g id="node17" class="node">
<title>HFiber_hfiber_fibration</title>
<g id="a_node17"><a xlink:href="HFiber.html#hfiber_fibration" xlink:title="hfiber_fibration">
<ellipse fill="#f070d1" stroke="black" cx="2380" cy="-1747.05" rx="81.8" ry="18"/>
<ellipse fill="none" stroke="black" cx="2380" cy="-1747.05" rx="85.79" ry="22"/>
<ellipse fill="none" stroke="black" cx="2380" cy="-1747.05" rx="89.79" ry="26"/>
<text text-anchor="middle" x="2380" y="-1743.35" font-family="Times,serif" font-size="14.00">hfiber_fibration</text>
</a>
</g>
</g>
<!-- HFiber_equiv_double_fibration_replacement -->
<g id="node18" class="node">
<title>HFiber_equiv_double_fibration_replacement</title>
<g id="a_node18"><a xlink:href="HFiber.html#equiv_double_fibration_replacement" xlink:title="equiv_double_fibration_replacement">
<ellipse fill="#f070d1" stroke="black" cx="2086" cy="-1747.05" rx="178.16" ry="18"/>
<ellipse fill="none" stroke="black" cx="2086" cy="-1747.05" rx="182.17" ry="22"/>
<ellipse fill="none" stroke="black" cx="2086" cy="-1747.05" rx="186.17" ry="26"/>
<text text-anchor="middle" x="2086" y="-1743.35" font-family="Times,serif" font-size="14.00">equiv_double_fibration_replacement</text>
</a>
</g>
</g>
<!-- HFiber_equiv_fibration_replacement -->
<g id="node19" class="node">
<title>HFiber_equiv_fibration_replacement</title>
<g id="a_node19"><a xlink:href="HFiber.html#equiv_fibration_replacement" xlink:title="equiv_fibration_replacement">
<ellipse fill="#f070d1" stroke="black" cx="1732" cy="-1747.05" rx="142.18" ry="18"/>
<ellipse fill="none" stroke="black" cx="1732" cy="-1747.05" rx="146.18" ry="22"/>
<ellipse fill="none" stroke="black" cx="1732" cy="-1747.05" rx="150.17" ry="26"/>
<text text-anchor="middle" x="1732" y="-1743.35" font-family="Times,serif" font-size="14.00">equiv_fibration_replacement</text>
</a>
</g>
</g>
<!-- HFiber_hfiber_functor_hfiber -->
<g id="node20" class="node">
<title>HFiber_hfiber_functor_hfiber</title>
<g id="a_node20"><a xlink:href="HFiber.html#hfiber_functor_hfiber" xlink:title="hfiber_functor_hfiber">
<ellipse fill="#f070d1" stroke="black" cx="1190" cy="-1747.05" rx="107.79" ry="18"/>
<ellipse fill="none" stroke="black" cx="1190" cy="-1747.05" rx="111.78" ry="22"/>
<ellipse fill="none" stroke="black" cx="1190" cy="-1747.05" rx="115.78" ry="26"/>
<text text-anchor="middle" x="1190" y="-1743.35" font-family="Times,serif" font-size="14.00">hfiber_functor_hfiber</text>
</a>
</g>
</g>
<!-- HFiber_hfiber_functor_hfiber_subproof -->
<g id="node21" class="node">
<title>HFiber_hfiber_functor_hfiber_subproof</title>
<g id="a_node21"><a xlink:href="HFiber.html#hfiber_functor_hfiber_subproof" xlink:title="hfiber_functor_hfiber_subproof">
<ellipse fill="#f070d1" stroke="black" cx="1171" cy="-1405.05" rx="153.27" ry="18"/>
<text text-anchor="middle" x="1171" y="-1401.35" font-family="Times,serif" font-size="14.00">hfiber_functor_hfiber_subproof</text>
</a>
</g>
</g>
<!-- HFiber_hfiber_functor_hfiber&#45;&gt;HFiber_hfiber_functor_hfiber_subproof -->
<g id="edge14" class="edge">
<title>HFiber_hfiber_functor_hfiber&#45;&gt;HFiber_hfiber_functor_hfiber_subproof</title>
<path fill="none" stroke="black" d="M1188.6,-1721.05C1185.14,-1659 1176.16,-1498.32 1172.54,-1433.63"/>
<polygon fill="black" stroke="black" points="1176.02,-1433.2 1171.97,-1423.41 1169.03,-1433.59 1176.02,-1433.2"/>
</g>
<!-- HFiber_functor_hfiber -->
<g id="node28" class="node">
<title>HFiber_functor_hfiber</title>
<g id="a_node28"><a xlink:href="HFiber.html#functor_hfiber" xlink:title="functor_hfiber">
<ellipse fill="#f070d1" stroke="black" cx="786" cy="-1405.05" rx="76.09" ry="18"/>
<text text-anchor="middle" x="786" y="-1401.35" font-family="Times,serif" font-size="14.00">functor_hfiber</text>
</a>
</g>
</g>
<!-- HFiber_hfiber_functor_hfiber&#45;&gt;HFiber_functor_hfiber -->
<g id="edge15" class="edge">
<title>HFiber_hfiber_functor_hfiber&#45;&gt;HFiber_functor_hfiber</title>
<path fill="none" stroke="black" d="M1160.95,-1721.6C1086.03,-1658.56 887.08,-1491.12 813.7,-1429.36"/>
<polygon fill="black" stroke="black" points="815.69,-1426.46 805.78,-1422.7 811.18,-1431.82 815.69,-1426.46"/>
</g>
<!-- HFiber_functor_hfiber_compose -->
<g id="node22" class="node">
<title>HFiber_functor_hfiber_compose</title>
<g id="a_node22"><a xlink:href="HFiber.html#functor_hfiber_compose" xlink:title="functor_hfiber_compose">
<ellipse fill="#f070d1" stroke="black" cx="927" cy="-1747.05" rx="120.79" ry="18"/>
<ellipse fill="none" stroke="black" cx="927" cy="-1747.05" rx="124.78" ry="22"/>
<ellipse fill="none" stroke="black" cx="927" cy="-1747.05" rx="128.78" ry="26"/>
<text text-anchor="middle" x="927" y="-1743.35" font-family="Times,serif" font-size="14.00">functor_hfiber_compose</text>
</a>
</g>
</g>
<!-- HFiber_functor_hfiber_compose&#45;&gt;HFiber_functor_hfiber -->
<g id="edge16" class="edge">
<title>HFiber_functor_hfiber_compose&#45;&gt;HFiber_functor_hfiber</title>
<path fill="none" stroke="black" d="M916.63,-1721.05C890.73,-1658.6 823.4,-1496.23 796.92,-1432.39"/>
<polygon fill="black" stroke="black" points="800.1,-1430.91 793.03,-1423.02 793.63,-1433.59 800.1,-1430.91"/>
</g>
<!-- HFiber_equiv_functor_hfiber2 -->
<g id="node23" class="node">
<title>HFiber_equiv_functor_hfiber2</title>
<g id="a_node23"><a xlink:href="HFiber.html#equiv_functor_hfiber2" xlink:title="equiv_functor_hfiber2">
<ellipse fill="#f070d1" stroke="black" cx="1444" cy="-1747.05" rx="111.59" ry="18"/>
<ellipse fill="none" stroke="black" cx="1444" cy="-1747.05" rx="115.59" ry="22"/>
<ellipse fill="none" stroke="black" cx="1444" cy="-1747.05" rx="119.58" ry="26"/>
<text text-anchor="middle" x="1444" y="-1743.35" font-family="Times,serif" font-size="14.00">equiv_functor_hfiber2</text>
</a>
</g>
</g>
<!-- HFiber_isequiv_functor_hfiber2 -->
<g id="node24" class="node">
<title>HFiber_isequiv_functor_hfiber2</title>
<g id="a_node24"><a xlink:href="HFiber.html#isequiv_functor_hfiber2" xlink:title="isequiv_functor_hfiber2">
<ellipse fill="#f070d1" stroke="black" cx="1462" cy="-1405.05" rx="119.68" ry="18"/>
<text text-anchor="middle" x="1462" y="-1401.35" font-family="Times,serif" font-size="14.00">isequiv_functor_hfiber2</text>
</a>
</g>
</g>
<!-- HFiber_equiv_functor_hfiber2&#45;&gt;HFiber_isequiv_functor_hfiber2 -->
<g id="edge17" class="edge">
<title>HFiber_equiv_functor_hfiber2&#45;&gt;HFiber_isequiv_functor_hfiber2</title>
<path fill="none" stroke="black" d="M1445.32,-1721.05C1448.61,-1659 1457.12,-1498.32 1460.54,-1433.63"/>
<polygon fill="black" stroke="black" points="1464.05,-1433.58 1461.08,-1423.41 1457.06,-1433.21 1464.05,-1433.58"/>
</g>
<!-- HFiber_functor_hfiber2 -->
<g id="node25" class="node">
<title>HFiber_functor_hfiber2</title>
<g id="a_node25"><a xlink:href="HFiber.html#functor_hfiber2" xlink:title="functor_hfiber2">
<ellipse fill="#f070d1" stroke="black" cx="1462" cy="-1063.05" rx="81.79" ry="18"/>
<text text-anchor="middle" x="1462" y="-1059.35" font-family="Times,serif" font-size="14.00">functor_hfiber2</text>
</a>
</g>
</g>
<!-- HFiber_isequiv_functor_hfiber2&#45;&gt;HFiber_functor_hfiber2 -->
<g id="edge18" class="edge">
<title>HFiber_isequiv_functor_hfiber2&#45;&gt;HFiber_functor_hfiber2</title>
<path fill="none" stroke="black" d="M1462,-1386.72C1462,-1331.48 1462,-1159.17 1462,-1091.62"/>
<polygon fill="black" stroke="black" points="1465.5,-1091.35 1462,-1081.35 1458.5,-1091.35 1465.5,-1091.35"/>
</g>
<!-- HFiber_equiv_functor_hfiber -->
<g id="node26" class="node">
<title>HFiber_equiv_functor_hfiber</title>
<g id="a_node26"><a xlink:href="HFiber.html#equiv_functor_hfiber" xlink:title="equiv_functor_hfiber">
<ellipse fill="#f070d1" stroke="black" cx="666" cy="-1747.05" rx="105.89" ry="18"/>
<ellipse fill="none" stroke="black" cx="666" cy="-1747.05" rx="109.88" ry="22"/>
<ellipse fill="none" stroke="black" cx="666" cy="-1747.05" rx="113.88" ry="26"/>
<text text-anchor="middle" x="666" y="-1743.35" font-family="Times,serif" font-size="14.00">equiv_functor_hfiber</text>
</a>
</g>
</g>
<!-- HFiber_equiv_functor_hfiber&#45;&gt;HFiber_functor_hfiber -->
<g id="edge19" class="edge">
<title>HFiber_equiv_functor_hfiber&#45;&gt;HFiber_functor_hfiber</title>
<path fill="none" stroke="black" d="M674.82,-1721.05C696.82,-1658.73 753.94,-1496.9 776.57,-1432.78"/>
<polygon fill="black" stroke="black" points="779.99,-1433.61 780.01,-1423.02 773.38,-1431.28 779.99,-1433.61"/>
</g>
<!-- HFiber_isequiv_functor_hfiber -->
<g id="node27" class="node">
<title>HFiber_isequiv_functor_hfiber</title>
<g id="a_node27"><a xlink:href="HFiber.html#isequiv_functor_hfiber" xlink:title="isequiv_functor_hfiber">
<ellipse fill="#f070d1" stroke="black" cx="412" cy="-1747.05" rx="113.96" ry="18"/>
<ellipse fill="none" stroke="black" cx="412" cy="-1747.05" rx="117.97" ry="22"/>
<ellipse fill="none" stroke="black" cx="412" cy="-1747.05" rx="121.98" ry="26"/>
<text text-anchor="middle" x="412" y="-1743.35" font-family="Times,serif" font-size="14.00">isequiv_functor_hfiber</text>
</a>
</g>
</g>
<!-- HFiber_isequiv_functor_hfiber&#45;&gt;HFiber_functor_hfiber -->
<g id="edge20" class="edge">
<title>HFiber_isequiv_functor_hfiber&#45;&gt;HFiber_functor_hfiber</title>
<path fill="none" stroke="black" d="M438.9,-1721.6C508.1,-1658.68 691.68,-1491.8 759.95,-1429.74"/>
<polygon fill="black" stroke="black" points="762.64,-1432.02 767.68,-1422.7 757.93,-1426.84 762.64,-1432.02"/>
</g>
<!-- HFiber_equiv_hfiber_homotopic -->
<g id="node29" class="node">
<title>HFiber_equiv_hfiber_homotopic</title>
<g id="a_node29"><a xlink:href="HFiber.html#equiv_hfiber_homotopic" xlink:title="equiv_hfiber_homotopic">
<ellipse fill="#f070d1" stroke="black" cx="144" cy="-1747.05" rx="120.46" ry="18"/>
<ellipse fill="none" stroke="black" cx="144" cy="-1747.05" rx="124.47" ry="22"/>
<ellipse fill="none" stroke="black" cx="144" cy="-1747.05" rx="128.48" ry="26"/>
<text text-anchor="middle" x="144" y="-1743.35" font-family="Times,serif" font-size="14.00">equiv_hfiber_homotopic</text>
</a>
</g>
</g>
<!-- HFiber_equiv_path_hfiber -->
<g id="node33" class="node">
<title>HFiber_equiv_path_hfiber</title>
<g id="a_node33"><a xlink:href="HFiber.html#equiv_path_hfiber" xlink:title="equiv_path_hfiber">
<ellipse fill="#f070d1" stroke="black" cx="3366" cy="-132.05" rx="92.88" ry="18"/>
<text text-anchor="middle" x="3366" y="-128.35" font-family="Times,serif" font-size="14.00">equiv_path_hfiber</text>
</a>
</g>
</g>
<!-- HFiber_hfiber_ap&#45;&gt;HFiber_equiv_path_hfiber -->
<g id="edge21" class="edge">
<title>HFiber_hfiber_ap&#45;&gt;HFiber_equiv_path_hfiber</title>
<path fill="none" stroke="black" d="M3453.32,-393.14C3437.69,-346.59 3393.94,-216.26 3374.96,-159.75"/>
<polygon fill="black" stroke="black" points="3378.22,-158.46 3371.72,-150.09 3371.59,-160.69 3378.22,-158.46"/>
</g>
<!-- HFiber_path_hfiber -->
<g id="node31" class="node">
<title>HFiber_path_hfiber</title>
<g id="a_node31"><a xlink:href="HFiber.html#path_hfiber" xlink:title="path_hfiber">
<ellipse fill="#f070d1" stroke="black" cx="3274" cy="-722.05" rx="63.87" ry="18"/>
<ellipse fill="none" stroke="black" cx="3274" cy="-722.05" rx="67.88" ry="22"/>
<ellipse fill="none" stroke="black" cx="3274" cy="-722.05" rx="71.89" ry="26"/>
<text text-anchor="middle" x="3274" y="-718.35" font-family="Times,serif" font-size="14.00">path_hfiber</text>
</a>
</g>
</g>
<!-- HFiber_path_hfiber_uncurried -->
<g id="node32" class="node">
<title>HFiber_path_hfiber_uncurried</title>
<g id="a_node32"><a xlink:href="HFiber.html#path_hfiber_uncurried" xlink:title="path_hfiber_uncurried">
<ellipse fill="#f070d1" stroke="black" cx="3274" cy="-411.05" rx="113.18" ry="18"/>
<text text-anchor="middle" x="3274" y="-407.35" font-family="Times,serif" font-size="14.00">path_hfiber_uncurried</text>
</a>
</g>
</g>
<!-- HFiber_path_hfiber&#45;&gt;HFiber_path_hfiber_uncurried -->
<g id="edge22" class="edge">
<title>HFiber_path_hfiber&#45;&gt;HFiber_path_hfiber_uncurried</title>
<path fill="none" stroke="black" d="M3274,-696.03C3274,-638.81 3274,-498.82 3274,-439.42"/>
<polygon fill="black" stroke="black" points="3277.5,-439.3 3274,-429.3 3270.5,-439.3 3277.5,-439.3"/>
</g>
<!-- HFiber_path_hfiber_uncurried&#45;&gt;HFiber_equiv_path_hfiber -->
<g id="edge23" class="edge">
<title>HFiber_path_hfiber_uncurried&#45;&gt;HFiber_equiv_path_hfiber</title>
<path fill="none" stroke="black" d="M3279.76,-392.72C3295.35,-345.78 3338.48,-215.92 3357.17,-159.64"/>
<polygon fill="black" stroke="black" points="3360.53,-160.61 3360.36,-150.02 3353.89,-158.41 3360.53,-160.61"/>
</g>
</g>
</svg>
