<?xml version="1.0" encoding="UTF-8" standalone="no"?>
<!DOCTYPE svg PUBLIC "-//W3C//DTD SVG 1.1//EN"
 "http://www.w3.org/Graphics/SVG/1.1/DTD/svg11.dtd">
<!-- Generated by graphviz version 2.43.0 (0)
 -->
<!-- Title: HoTT_Classes_orders_nat_int Pages: 1 -->
<svg width="1118pt" height="563pt"
 viewBox="0.00 0.00 1118.00 563.00" xmlns="http://www.w3.org/2000/svg" xmlns:xlink="http://www.w3.org/1999/xlink">
<g id="graph0" class="graph" transform="scale(1 1) rotate(0) translate(4 559)">
<title>HoTT_Classes_orders_nat_int</title>
<polygon fill="white" stroke="transparent" points="-4,4 -4,-559 1114,-559 1114,4 -4,4"/>
<g id="clust1" class="cluster">
<title>cluster_nat_int</title>
<polygon fill="#ffffc3" stroke="black" points="10.69,-8 10.69,-547 1099.31,-547 1099.31,-8 10.69,-8"/>
<text text-anchor="middle" x="43.69" y="-531.8" font-family="Times,serif" font-size="14.00">nat_int</text>
</g>
<!-- nat_int_nat_morphism_order_embedding -->
<g id="node1" class="node">
<title>nat_int_nat_morphism_order_embedding</title>
<g id="a_node1"><a xlink:href="nat_int.html#nat_morphism_order_embedding" xlink:title="nat_morphism_order_embedding">
<ellipse fill="#f070d1" stroke="black" cx="860.19" cy="-402" rx="163.26" ry="18"/>
<ellipse fill="none" stroke="black" cx="860.19" cy="-402" rx="167.27" ry="22"/>
<ellipse fill="none" stroke="black" cx="860.19" cy="-402" rx="171.27" ry="26"/>
<text text-anchor="middle" x="860.19" y="-398.3" font-family="Times,serif" font-size="14.00">nat_morphism_order_embedding</text>
</a>
</g>
</g>
<!-- nat_int_StrictlyOrderPreserving_instance_0 -->
<g id="node2" class="node">
<title>nat_int_StrictlyOrderPreserving_instance_0</title>
<g id="a_node2"><a xlink:href="nat_int.html#StrictlyOrderPreserving_instance_0" xlink:title="StrictlyOrderPreserving_instance_0">
<ellipse fill="#f070d1" stroke="black" cx="648.19" cy="-322" rx="176.57" ry="18"/>
<text text-anchor="middle" x="648.19" y="-318.3" font-family="Times,serif" font-size="14.00">StrictlyOrderPreserving_instance_0</text>
</a>
</g>
</g>
<!-- nat_int_nat_morphism_order_embedding&#45;&gt;nat_int_StrictlyOrderPreserving_instance_0 -->
<g id="edge1" class="edge">
<title>nat_int_nat_morphism_order_embedding&#45;&gt;nat_int_StrictlyOrderPreserving_instance_0</title>
<path fill="none" stroke="black" d="M797.15,-377.81C767,-366.71 731.26,-353.56 702.34,-342.93"/>
<polygon fill="black" stroke="black" points="703.41,-339.59 692.82,-339.42 701,-346.16 703.41,-339.59"/>
</g>
<!-- nat_int_OrderPreserving_instance_0 -->
<g id="node3" class="node">
<title>nat_int_OrderPreserving_instance_0</title>
<g id="a_node3"><a xlink:href="nat_int.html#OrderPreserving_instance_0" xlink:title="OrderPreserving_instance_0">
<ellipse fill="#f070d1" stroke="black" cx="899.19" cy="-250" rx="142.17" ry="18"/>
<text text-anchor="middle" x="899.19" y="-246.3" font-family="Times,serif" font-size="14.00">OrderPreserving_instance_0</text>
</a>
</g>
</g>
<!-- nat_int_nat_morphism_order_embedding&#45;&gt;nat_int_OrderPreserving_instance_0 -->
<g id="edge2" class="edge">
<title>nat_int_nat_morphism_order_embedding&#45;&gt;nat_int_OrderPreserving_instance_0</title>
<path fill="none" stroke="black" d="M866.72,-375.89C873.75,-348.83 884.92,-305.89 892.15,-278.08"/>
<polygon fill="black" stroke="black" points="895.58,-278.79 894.71,-268.23 888.8,-277.03 895.58,-278.79"/>
</g>
<!-- nat_int_nat_int_lt_plus -->
<g id="node9" class="node">
<title>nat_int_nat_int_lt_plus</title>
<g id="a_node9"><a xlink:href="nat_int.html#nat_int_lt_plus" xlink:title="nat_int_lt_plus">
<ellipse fill="#f070d1" stroke="black" cx="581.19" cy="-250" rx="77.99" ry="18"/>
<text text-anchor="middle" x="581.19" y="-246.3" font-family="Times,serif" font-size="14.00">nat_int_lt_plus</text>
</a>
</g>
</g>
<!-- nat_int_StrictlyOrderPreserving_instance_0&#45;&gt;nat_int_nat_int_lt_plus -->
<g id="edge3" class="edge">
<title>nat_int_StrictlyOrderPreserving_instance_0&#45;&gt;nat_int_nat_int_lt_plus</title>
<path fill="none" stroke="black" d="M631.97,-304.05C623.66,-295.37 613.39,-284.64 604.27,-275.11"/>
<polygon fill="black" stroke="black" points="606.7,-272.59 597.26,-267.79 601.64,-277.43 606.7,-272.59"/>
</g>
<!-- nat_int_nat_int_le_plus -->
<g id="node10" class="node">
<title>nat_int_nat_int_le_plus</title>
<g id="a_node10"><a xlink:href="nat_int.html#nat_int_le_plus" xlink:title="nat_int_le_plus">
<ellipse fill="#f070d1" stroke="black" cx="690.19" cy="-178" rx="79.09" ry="18"/>
<text text-anchor="middle" x="690.19" y="-174.3" font-family="Times,serif" font-size="14.00">nat_int_le_plus</text>
</a>
</g>
</g>
<!-- nat_int_OrderPreserving_instance_0&#45;&gt;nat_int_nat_int_le_plus -->
<g id="edge4" class="edge">
<title>nat_int_OrderPreserving_instance_0&#45;&gt;nat_int_nat_int_le_plus</title>
<path fill="none" stroke="black" d="M851.5,-233.03C818.93,-222.12 775.79,-207.67 742.32,-196.46"/>
<polygon fill="black" stroke="black" points="743.3,-193.1 732.7,-193.24 741.08,-199.73 743.3,-193.1"/>
</g>
<!-- nat_int_le_iff_lt_S -->
<g id="node4" class="node">
<title>nat_int_le_iff_lt_S</title>
<g id="a_node4"><a xlink:href="nat_int.html#le_iff_lt_S" xlink:title="le_iff_lt_S">
<ellipse fill="#f070d1" stroke="black" cx="503.19" cy="-490" rx="54.68" ry="18"/>
<ellipse fill="none" stroke="black" cx="503.19" cy="-490" rx="58.68" ry="22"/>
<ellipse fill="none" stroke="black" cx="503.19" cy="-490" rx="62.69" ry="26"/>
<text text-anchor="middle" x="503.19" y="-486.3" font-family="Times,serif" font-size="14.00">le_iff_lt_S</text>
</a>
</g>
</g>
<!-- nat_int_le_iff_lt_plus_1 -->
<g id="node5" class="node">
<title>nat_int_le_iff_lt_plus_1</title>
<g id="a_node5"><a xlink:href="nat_int.html#le_iff_lt_plus_1" xlink:title="le_iff_lt_plus_1">
<ellipse fill="#f070d1" stroke="black" cx="503.19" cy="-402" rx="77.99" ry="18"/>
<text text-anchor="middle" x="503.19" y="-398.3" font-family="Times,serif" font-size="14.00">le_iff_lt_plus_1</text>
</a>
</g>
</g>
<!-- nat_int_le_iff_lt_S&#45;&gt;nat_int_le_iff_lt_plus_1 -->
<g id="edge5" class="edge">
<title>nat_int_le_iff_lt_S&#45;&gt;nat_int_le_iff_lt_plus_1</title>
<path fill="none" stroke="black" d="M503.19,-463.66C503.19,-453.11 503.19,-440.84 503.19,-430.1"/>
<polygon fill="black" stroke="black" points="506.69,-430 503.19,-420 499.69,-430 506.69,-430"/>
</g>
<!-- nat_int_lt_iff_plus_1_le -->
<g id="node8" class="node">
<title>nat_int_lt_iff_plus_1_le</title>
<g id="a_node8"><a xlink:href="nat_int.html#lt_iff_plus_1_le" xlink:title="lt_iff_plus_1_le">
<ellipse fill="#f070d1" stroke="black" cx="283.19" cy="-322" rx="77.99" ry="18"/>
<text text-anchor="middle" x="283.19" y="-318.3" font-family="Times,serif" font-size="14.00">lt_iff_plus_1_le</text>
</a>
</g>
</g>
<!-- nat_int_le_iff_lt_plus_1&#45;&gt;nat_int_lt_iff_plus_1_le -->
<g id="edge6" class="edge">
<title>nat_int_le_iff_lt_plus_1&#45;&gt;nat_int_lt_iff_plus_1_le</title>
<path fill="none" stroke="black" d="M462.58,-386.6C426.18,-373.7 372.65,-354.72 333.54,-340.85"/>
<polygon fill="black" stroke="black" points="334.53,-337.49 323.93,-337.45 332.19,-344.09 334.53,-337.49"/>
</g>
<!-- nat_int_pos_ge_1 -->
<g id="node6" class="node">
<title>nat_int_pos_ge_1</title>
<g id="a_node6"><a xlink:href="nat_int.html#pos_ge_1" xlink:title="pos_ge_1">
<ellipse fill="#f070d1" stroke="black" cx="294.19" cy="-402" rx="52.77" ry="18"/>
<ellipse fill="none" stroke="black" cx="294.19" cy="-402" rx="56.78" ry="22"/>
<ellipse fill="none" stroke="black" cx="294.19" cy="-402" rx="60.79" ry="26"/>
<text text-anchor="middle" x="294.19" y="-398.3" font-family="Times,serif" font-size="14.00">pos_ge_1</text>
</a>
</g>
</g>
<!-- nat_int_pos_ge_1&#45;&gt;nat_int_lt_iff_plus_1_le -->
<g id="edge7" class="edge">
<title>nat_int_pos_ge_1&#45;&gt;nat_int_lt_iff_plus_1_le</title>
<path fill="none" stroke="black" d="M290.65,-375.89C289.5,-367.75 288.22,-358.68 287.05,-350.38"/>
<polygon fill="black" stroke="black" points="290.51,-349.82 285.64,-340.41 283.57,-350.8 290.51,-349.82"/>
</g>
<!-- nat_int_lt_iff_S_le -->
<g id="node7" class="node">
<title>nat_int_lt_iff_S_le</title>
<g id="a_node7"><a xlink:href="nat_int.html#lt_iff_S_le" xlink:title="lt_iff_S_le">
<ellipse fill="#f070d1" stroke="black" cx="105.19" cy="-402" rx="54.68" ry="18"/>
<ellipse fill="none" stroke="black" cx="105.19" cy="-402" rx="58.68" ry="22"/>
<ellipse fill="none" stroke="black" cx="105.19" cy="-402" rx="62.69" ry="26"/>
<text text-anchor="middle" x="105.19" y="-398.3" font-family="Times,serif" font-size="14.00">lt_iff_S_le</text>
</a>
</g>
</g>
<!-- nat_int_lt_iff_S_le&#45;&gt;nat_int_lt_iff_plus_1_le -->
<g id="edge8" class="edge">
<title>nat_int_lt_iff_S_le&#45;&gt;nat_int_lt_iff_plus_1_le</title>
<path fill="none" stroke="black" d="M147.37,-382.52C175.08,-370.37 211.25,-354.52 239.3,-342.23"/>
<polygon fill="black" stroke="black" points="240.72,-345.43 248.48,-338.21 237.91,-339.02 240.72,-345.43"/>
</g>
<!-- nat_int_lt_iff_plus_1_le&#45;&gt;nat_int_nat_int_lt_plus -->
<g id="edge9" class="edge">
<title>nat_int_lt_iff_plus_1_le&#45;&gt;nat_int_nat_int_lt_plus</title>
<path fill="none" stroke="black" d="M335.78,-308.65C386.9,-296.64 464.56,-278.4 518.78,-265.66"/>
<polygon fill="black" stroke="black" points="519.69,-269.04 528.62,-263.35 518.09,-262.23 519.69,-269.04"/>
</g>
<!-- nat_int_nat_int_lt_plus&#45;&gt;nat_int_nat_int_le_plus -->
<g id="edge10" class="edge">
<title>nat_int_nat_int_lt_plus&#45;&gt;nat_int_nat_int_le_plus</title>
<path fill="none" stroke="black" d="M606.19,-232.94C621.04,-223.4 640.07,-211.18 656.26,-200.79"/>
<polygon fill="black" stroke="black" points="658.4,-203.58 664.92,-195.23 654.61,-197.69 658.4,-203.58"/>
</g>
<!-- nat_int_nat_int_nonneg_decompose -->
<g id="node11" class="node">
<title>nat_int_nat_int_nonneg_decompose</title>
<g id="a_node11"><a xlink:href="nat_int.html#nat_int_nonneg_decompose" xlink:title="nat_int_nonneg_decompose">
<ellipse fill="#f070d1" stroke="black" cx="690.19" cy="-106" rx="137.58" ry="18"/>
<text text-anchor="middle" x="690.19" y="-102.3" font-family="Times,serif" font-size="14.00">nat_int_nonneg_decompose</text>
</a>
</g>
</g>
<!-- nat_int_nat_int_le_plus&#45;&gt;nat_int_nat_int_nonneg_decompose -->
<g id="edge11" class="edge">
<title>nat_int_nat_int_le_plus&#45;&gt;nat_int_nat_int_nonneg_decompose</title>
<path fill="none" stroke="black" d="M690.19,-159.7C690.19,-151.98 690.19,-142.71 690.19,-134.11"/>
<polygon fill="black" stroke="black" points="693.69,-134.1 690.19,-124.1 686.69,-134.1 693.69,-134.1"/>
</g>
<!-- nat_int_nat_int_to_semiring -->
<g id="node12" class="node">
<title>nat_int_nat_int_to_semiring</title>
<g id="a_node12"><a xlink:href="nat_int.html#nat_int_to_semiring" xlink:title="nat_int_to_semiring">
<ellipse fill="#f070d1" stroke="black" cx="541.19" cy="-34" rx="102.08" ry="18"/>
<text text-anchor="middle" x="541.19" y="-30.3" font-family="Times,serif" font-size="14.00">nat_int_to_semiring</text>
</a>
</g>
</g>
<!-- nat_int_nat_int_nonneg_decompose&#45;&gt;nat_int_nat_int_to_semiring -->
<g id="edge12" class="edge">
<title>nat_int_nat_int_nonneg_decompose&#45;&gt;nat_int_nat_int_to_semiring</title>
<path fill="none" stroke="black" d="M655.25,-88.59C634.18,-78.69 607.16,-65.99 584.7,-55.44"/>
<polygon fill="black" stroke="black" points="585.93,-52.15 575.39,-51.07 582.95,-58.49 585.93,-52.15"/>
</g>
<!-- nat_int_to_semiring_nonneg -->
<g id="node13" class="node">
<title>nat_int_to_semiring_nonneg</title>
<g id="a_node13"><a xlink:href="nat_int.html#to_semiring_nonneg" xlink:title="to_semiring_nonneg">
<ellipse fill="#f070d1" stroke="black" cx="840.19" cy="-34" rx="103.98" ry="18"/>
<text text-anchor="middle" x="840.19" y="-30.3" font-family="Times,serif" font-size="14.00">to_semiring_nonneg</text>
</a>
</g>
</g>
<!-- nat_int_nat_int_nonneg_decompose&#45;&gt;nat_int_to_semiring_nonneg -->
<g id="edge13" class="edge">
<title>nat_int_nat_int_nonneg_decompose&#45;&gt;nat_int_to_semiring_nonneg</title>
<path fill="none" stroke="black" d="M725.36,-88.59C746.67,-78.64 774.02,-65.88 796.68,-55.3"/>
<polygon fill="black" stroke="black" points="798.18,-58.47 805.76,-51.07 795.22,-52.12 798.18,-58.47"/>
</g>
</g>
</svg>
