<?xml version="1.0" encoding="UTF-8" standalone="no"?>
<!DOCTYPE svg PUBLIC "-//W3C//DTD SVG 1.1//EN"
 "http://www.w3.org/Graphics/SVG/1.1/DTD/svg11.dtd">
<!-- Generated by graphviz version 2.43.0 (0)
 -->
<!-- Title: HoTT_Diagrams_Cocone Pages: 1 -->
<svg width="2021pt" height="1014pt"
 viewBox="0.00 0.00 2021.00 1014.50" xmlns="http://www.w3.org/2000/svg" xmlns:xlink="http://www.w3.org/1999/xlink">
<g id="graph0" class="graph" transform="scale(1 1) rotate(0) translate(4 1010.5)">
<title>HoTT_Diagrams_Cocone</title>
<polygon fill="white" stroke="transparent" points="-4,4 -4,-1010.5 2017,-1010.5 2017,4 -4,4"/>
<g id="clust1" class="cluster">
<title>cluster_Cocone</title>
<polygon fill="#ffffc3" stroke="black" points="8,-15.63 8,-990.87 2005,-990.87 2005,-15.63 8,-15.63"/>
<text text-anchor="middle" x="42" y="-975.67" font-family="Times,serif" font-size="14.00">Cocone</text>
</g>
<!-- Cocone_cocone_postcompose_equiv_universality -->
<g id="node1" class="node">
<title>Cocone_cocone_postcompose_equiv_universality</title>
<g id="a_node1"><a xlink:href="Cocone.html#cocone_postcompose_equiv_universality" xlink:title="cocone_postcompose_equiv_universality">
<ellipse fill="#f070d1" stroke="black" cx="528" cy="-707.63" rx="196.07" ry="18"/>
<ellipse fill="none" stroke="black" cx="528" cy="-707.63" rx="200.07" ry="22"/>
<ellipse fill="none" stroke="black" cx="528" cy="-707.63" rx="204.07" ry="26"/>
<text text-anchor="middle" x="528" y="-703.93" font-family="Times,serif" font-size="14.00">cocone_postcompose_equiv_universality</text>
</a>
</g>
</g>
<!-- Cocone_cocone_postcompose_comp -->
<g id="node9" class="node">
<title>Cocone_cocone_postcompose_comp</title>
<g id="a_node9"><a xlink:href="Cocone.html#cocone_postcompose_comp" xlink:title="cocone_postcompose_comp">
<ellipse fill="#f070d1" stroke="black" cx="469" cy="-550.63" rx="136.48" ry="18"/>
<text text-anchor="middle" x="469" y="-546.93" font-family="Times,serif" font-size="14.00">cocone_postcompose_comp</text>
</a>
</g>
</g>
<!-- Cocone_cocone_postcompose_equiv_universality&#45;&gt;Cocone_cocone_postcompose_comp -->
<g id="edge1" class="edge">
<title>Cocone_cocone_postcompose_equiv_universality&#45;&gt;Cocone_cocone_postcompose_comp</title>
<path fill="none" stroke="black" d="M518.39,-681.39C507.58,-652.99 490.11,-607.09 479.1,-578.18"/>
<polygon fill="black" stroke="black" points="482.33,-576.82 475.5,-568.72 475.79,-579.31 482.33,-576.82"/>
</g>
<!-- Cocone_Build_UniversalCocone -->
<g id="node16" class="node">
<title>Cocone_Build_UniversalCocone</title>
<g id="a_node16"><a xlink:href="Cocone.html#Build_UniversalCocone" xlink:title="Build_UniversalCocone">
<ellipse fill="#7faaff" stroke="black" cx="742" cy="-550.63" rx="118.08" ry="18"/>
<text text-anchor="middle" x="742" y="-546.93" font-family="Times,serif" font-size="14.00">Build_UniversalCocone</text>
</a>
</g>
</g>
<!-- Cocone_cocone_postcompose_equiv_universality&#45;&gt;Cocone_Build_UniversalCocone -->
<g id="edge2" class="edge">
<title>Cocone_cocone_postcompose_equiv_universality&#45;&gt;Cocone_Build_UniversalCocone</title>
<path fill="none" stroke="black" d="M562.38,-681.73C603.24,-652.14 670.86,-603.16 710.44,-574.5"/>
<polygon fill="black" stroke="black" points="712.87,-577.06 718.91,-568.36 708.76,-571.39 712.87,-577.06"/>
</g>
<!-- Cocone_UniversalCocone -->
<g id="node17" class="node">
<title>Cocone_UniversalCocone</title>
<g id="a_node17"><a xlink:href="Cocone.html#UniversalCocone" xlink:title="UniversalCocone">
<ellipse fill="#e2cdfa" stroke="black" cx="967" cy="-550.63" rx="89.08" ry="18"/>
<text text-anchor="middle" x="967" y="-546.93" font-family="Times,serif" font-size="14.00">UniversalCocone</text>
</a>
</g>
</g>
<!-- Cocone_cocone_postcompose_equiv_universality&#45;&gt;Cocone_UniversalCocone -->
<g id="edge3" class="edge">
<title>Cocone_cocone_postcompose_equiv_universality&#45;&gt;Cocone_UniversalCocone</title>
<path fill="none" stroke="black" d="M595.15,-682.93C683.03,-651.9 835.18,-598.18 914.88,-570.04"/>
<polygon fill="black" stroke="black" points="916.44,-573.2 924.7,-566.57 914.11,-566.6 916.44,-573.2"/>
</g>
<!-- Cocone_cocone_precompose_equiv_universality -->
<g id="node2" class="node">
<title>Cocone_cocone_precompose_equiv_universality</title>
<g id="a_node2"><a xlink:href="Cocone.html#cocone_precompose_equiv_universality" xlink:title="cocone_precompose_equiv_universality">
<ellipse fill="#f070d1" stroke="black" cx="1619" cy="-879.63" rx="192.27" ry="18"/>
<ellipse fill="none" stroke="black" cx="1619" cy="-879.63" rx="196.27" ry="22"/>
<ellipse fill="none" stroke="black" cx="1619" cy="-879.63" rx="200.27" ry="26"/>
<text text-anchor="middle" x="1619" y="-875.93" font-family="Times,serif" font-size="14.00">cocone_precompose_equiv_universality</text>
</a>
</g>
</g>
<!-- Cocone_cocone_precompose_equiv -->
<g id="node4" class="node">
<title>Cocone_cocone_precompose_equiv</title>
<g id="a_node4"><a xlink:href="Cocone.html#cocone_precompose_equiv" xlink:title="cocone_precompose_equiv">
<ellipse fill="#f070d1" stroke="black" cx="1864" cy="-707.63" rx="132.68" ry="18"/>
<text text-anchor="middle" x="1864" y="-703.93" font-family="Times,serif" font-size="14.00">cocone_precompose_equiv</text>
</a>
</g>
</g>
<!-- Cocone_cocone_precompose_equiv_universality&#45;&gt;Cocone_cocone_precompose_equiv -->
<g id="edge4" class="edge">
<title>Cocone_cocone_precompose_equiv_universality&#45;&gt;Cocone_cocone_precompose_equiv</title>
<path fill="none" stroke="black" d="M1654.63,-853.92C1702.13,-820.95 1785.54,-763.08 1831.44,-731.23"/>
<polygon fill="black" stroke="black" points="1833.6,-733.99 1839.82,-725.41 1829.61,-728.23 1833.6,-733.99"/>
</g>
<!-- Cocone_cocone_precompose_postcompose -->
<g id="node5" class="node">
<title>Cocone_cocone_precompose_postcompose</title>
<g id="a_node5"><a xlink:href="Cocone.html#cocone_precompose_postcompose" xlink:title="cocone_precompose_postcompose">
<ellipse fill="#f070d1" stroke="black" cx="1242" cy="-550.63" rx="167.87" ry="18"/>
<text text-anchor="middle" x="1242" y="-546.93" font-family="Times,serif" font-size="14.00">cocone_precompose_postcompose</text>
</a>
</g>
</g>
<!-- Cocone_cocone_precompose_equiv_universality&#45;&gt;Cocone_cocone_precompose_postcompose -->
<g id="edge5" class="edge">
<title>Cocone_cocone_precompose_equiv_universality&#45;&gt;Cocone_cocone_precompose_postcompose</title>
<path fill="none" stroke="black" d="M1644.78,-853.57C1682.3,-814.04 1743.2,-736.09 1702,-681.63 1659.57,-625.55 1471.7,-586.75 1349.56,-566.93"/>
<polygon fill="black" stroke="black" points="1349.85,-563.43 1339.42,-565.3 1348.74,-570.34 1349.85,-563.43"/>
</g>
<!-- Cocone_cocone_precompose_equiv_universality&#45;&gt;Cocone_Build_UniversalCocone -->
<g id="edge6" class="edge">
<title>Cocone_cocone_precompose_equiv_universality&#45;&gt;Cocone_Build_UniversalCocone</title>
<path fill="none" stroke="black" d="M1426.29,-872.39C1201.49,-860.78 849.26,-827.68 761,-733.63 740.61,-711.91 739.9,-624.35 740.98,-579.06"/>
<polygon fill="black" stroke="black" points="744.48,-578.88 741.27,-568.78 737.49,-578.68 744.48,-578.88"/>
</g>
<!-- Cocone_cocone_precompose_equiv_universality&#45;&gt;Cocone_UniversalCocone -->
<g id="edge7" class="edge">
<title>Cocone_cocone_precompose_equiv_universality&#45;&gt;Cocone_UniversalCocone</title>
<path fill="none" stroke="black" d="M1603.1,-853.6C1585.43,-825.18 1556.66,-777.13 1536,-733.63 1525.37,-711.27 1534.65,-697.93 1516,-681.63 1480.14,-650.31 1181.99,-591.56 1040.71,-565.13"/>
<polygon fill="black" stroke="black" points="1041.29,-561.68 1030.82,-563.28 1040,-568.56 1041.29,-561.68"/>
</g>
<!-- Cocone_cocone_postcompose_equiv -->
<g id="node3" class="node">
<title>Cocone_cocone_postcompose_equiv</title>
<g id="a_node3"><a xlink:href="Cocone.html#cocone_postcompose_equiv" xlink:title="cocone_postcompose_equiv">
<ellipse fill="#f070d1" stroke="black" cx="161" cy="-707.63" rx="137.27" ry="18"/>
<ellipse fill="none" stroke="black" cx="161" cy="-707.63" rx="141.27" ry="22"/>
<ellipse fill="none" stroke="black" cx="161" cy="-707.63" rx="145.28" ry="26"/>
<text text-anchor="middle" x="161" y="-703.93" font-family="Times,serif" font-size="14.00">cocone_postcompose_equiv</text>
</a>
</g>
</g>
<!-- Cocone_cocone_postcompose_equiv&#45;&gt;Cocone_cocone_postcompose_comp -->
<g id="edge8" class="edge">
<title>Cocone_cocone_postcompose_equiv&#45;&gt;Cocone_cocone_postcompose_comp</title>
<path fill="none" stroke="black" d="M208.11,-682.93C267.82,-652.88 369.81,-601.55 426.98,-572.78"/>
<polygon fill="black" stroke="black" points="428.74,-575.82 436.09,-568.19 425.59,-569.56 428.74,-575.82"/>
</g>
<!-- Cocone_cocone_postcompose_identity -->
<g id="node10" class="node">
<title>Cocone_cocone_postcompose_identity</title>
<g id="a_node10"><a xlink:href="Cocone.html#cocone_postcompose_identity" xlink:title="cocone_postcompose_identity">
<ellipse fill="#f070d1" stroke="black" cx="167" cy="-550.63" rx="147.57" ry="18"/>
<text text-anchor="middle" x="167" y="-546.93" font-family="Times,serif" font-size="14.00">cocone_postcompose_identity</text>
</a>
</g>
</g>
<!-- Cocone_cocone_postcompose_equiv&#45;&gt;Cocone_cocone_postcompose_identity -->
<g id="edge9" class="edge">
<title>Cocone_cocone_postcompose_equiv&#45;&gt;Cocone_cocone_postcompose_identity</title>
<path fill="none" stroke="black" d="M161.98,-681.39C163.07,-653.24 164.82,-607.89 165.94,-578.94"/>
<polygon fill="black" stroke="black" points="169.45,-578.84 166.34,-568.72 162.45,-578.57 169.45,-578.84"/>
</g>
<!-- Cocone_cocone_precompose_comp -->
<g id="node6" class="node">
<title>Cocone_cocone_precompose_comp</title>
<g id="a_node6"><a xlink:href="Cocone.html#cocone_precompose_comp" xlink:title="cocone_precompose_comp">
<ellipse fill="#f070d1" stroke="black" cx="1865" cy="-550.63" rx="131.88" ry="18"/>
<text text-anchor="middle" x="1865" y="-546.93" font-family="Times,serif" font-size="14.00">cocone_precompose_comp</text>
</a>
</g>
</g>
<!-- Cocone_cocone_precompose_equiv&#45;&gt;Cocone_cocone_precompose_comp -->
<g id="edge10" class="edge">
<title>Cocone_cocone_precompose_equiv&#45;&gt;Cocone_cocone_precompose_comp</title>
<path fill="none" stroke="black" d="M1864.11,-689.46C1864.28,-662.8 1864.62,-611.24 1864.82,-579.3"/>
<polygon fill="black" stroke="black" points="1868.32,-578.91 1864.89,-568.89 1861.32,-578.87 1868.32,-578.91"/>
</g>
<!-- Cocone_cocone_precompose_identity -->
<g id="node7" class="node">
<title>Cocone_cocone_precompose_identity</title>
<g id="a_node7"><a xlink:href="Cocone.html#cocone_precompose_identity" xlink:title="cocone_precompose_identity">
<ellipse fill="#f070d1" stroke="black" cx="1571" cy="-550.63" rx="143.77" ry="18"/>
<text text-anchor="middle" x="1571" y="-546.93" font-family="Times,serif" font-size="14.00">cocone_precompose_identity</text>
</a>
</g>
</g>
<!-- Cocone_cocone_precompose_equiv&#45;&gt;Cocone_cocone_precompose_identity -->
<g id="edge11" class="edge">
<title>Cocone_cocone_precompose_equiv&#45;&gt;Cocone_cocone_precompose_identity</title>
<path fill="none" stroke="black" d="M1832.64,-690.05C1779.25,-661.8 1670.75,-604.4 1611.62,-573.12"/>
<polygon fill="black" stroke="black" points="1613.05,-569.92 1602.57,-568.34 1609.78,-576.11 1613.05,-569.92"/>
</g>
<!-- Cocone_cocone_precompose -->
<g id="node8" class="node">
<title>Cocone_cocone_precompose</title>
<g id="a_node8"><a xlink:href="Cocone.html#cocone_precompose" xlink:title="cocone_precompose">
<ellipse fill="#f070d1" stroke="black" cx="1604" cy="-394.63" rx="102.88" ry="18"/>
<text text-anchor="middle" x="1604" y="-390.93" font-family="Times,serif" font-size="14.00">cocone_precompose</text>
</a>
</g>
</g>
<!-- Cocone_cocone_precompose_postcompose&#45;&gt;Cocone_cocone_precompose -->
<g id="edge12" class="edge">
<title>Cocone_cocone_precompose_postcompose&#45;&gt;Cocone_cocone_precompose</title>
<path fill="none" stroke="black" d="M1281.08,-533.01C1348.27,-504.43 1485.37,-446.1 1557.41,-415.45"/>
<polygon fill="black" stroke="black" points="1558.88,-418.64 1566.71,-411.5 1556.14,-412.19 1558.88,-418.64"/>
</g>
<!-- Cocone_cocone_postcompose -->
<g id="node18" class="node">
<title>Cocone_cocone_postcompose</title>
<g id="a_node18"><a xlink:href="Cocone.html#cocone_postcompose" xlink:title="cocone_postcompose">
<ellipse fill="#f070d1" stroke="black" cx="742" cy="-394.63" rx="107.48" ry="18"/>
<text text-anchor="middle" x="742" y="-390.93" font-family="Times,serif" font-size="14.00">cocone_postcompose</text>
</a>
</g>
</g>
<!-- Cocone_cocone_precompose_postcompose&#45;&gt;Cocone_cocone_postcompose -->
<g id="edge13" class="edge">
<title>Cocone_cocone_precompose_postcompose&#45;&gt;Cocone_cocone_postcompose</title>
<path fill="none" stroke="black" d="M1189.44,-533.45C1095.38,-504.48 898.97,-443.98 800.67,-413.71"/>
<polygon fill="black" stroke="black" points="801.49,-410.3 790.9,-410.7 799.43,-416.99 801.49,-410.3"/>
</g>
<!-- Cocone_path_cocone -->
<g id="node19" class="node">
<title>Cocone_path_cocone</title>
<g id="a_node19"><a xlink:href="Cocone.html#path_cocone" xlink:title="path_cocone">
<ellipse fill="#f070d1" stroke="black" cx="968" cy="-394.63" rx="67.69" ry="18"/>
<text text-anchor="middle" x="968" y="-390.93" font-family="Times,serif" font-size="14.00">path_cocone</text>
</a>
</g>
</g>
<!-- Cocone_cocone_precompose_postcompose&#45;&gt;Cocone_path_cocone -->
<g id="edge14" class="edge">
<title>Cocone_cocone_precompose_postcompose&#45;&gt;Cocone_path_cocone</title>
<path fill="none" stroke="black" d="M1212.16,-532.86C1161.68,-504.49 1059.59,-447.11 1004.78,-416.31"/>
<polygon fill="black" stroke="black" points="1006.19,-413.08 995.76,-411.24 1002.76,-419.19 1006.19,-413.08"/>
</g>
<!-- Cocone_cocone_precompose_comp&#45;&gt;Cocone_cocone_precompose -->
<g id="edge15" class="edge">
<title>Cocone_cocone_precompose_comp&#45;&gt;Cocone_cocone_precompose</title>
<path fill="none" stroke="black" d="M1836.82,-533.01C1789.35,-505 1693.45,-448.42 1640.76,-417.32"/>
<polygon fill="black" stroke="black" points="1642.45,-414.26 1632.06,-412.19 1638.9,-420.29 1642.45,-414.26"/>
</g>
<!-- Cocone_cocone_precompose_comp&#45;&gt;Cocone_path_cocone -->
<g id="edge16" class="edge">
<title>Cocone_cocone_precompose_comp&#45;&gt;Cocone_path_cocone</title>
<path fill="none" stroke="black" d="M1777.1,-537.18C1631.02,-516.06 1329.28,-470.6 1076,-420.63 1059.66,-417.41 1042.03,-413.51 1025.84,-409.76"/>
<polygon fill="black" stroke="black" points="1026.51,-406.32 1015.97,-407.45 1024.91,-413.14 1026.51,-406.32"/>
</g>
<!-- Cocone_cocone_precompose_identity&#45;&gt;Cocone_cocone_precompose -->
<g id="edge17" class="edge">
<title>Cocone_cocone_precompose_identity&#45;&gt;Cocone_cocone_precompose</title>
<path fill="none" stroke="black" d="M1574.66,-532.57C1580.36,-505.97 1591.41,-454.41 1598.2,-422.71"/>
<polygon fill="black" stroke="black" points="1601.65,-423.29 1600.33,-412.78 1594.81,-421.83 1601.65,-423.29"/>
</g>
<!-- Cocone_cocone_precompose_identity&#45;&gt;Cocone_path_cocone -->
<g id="edge18" class="edge">
<title>Cocone_cocone_precompose_identity&#45;&gt;Cocone_path_cocone</title>
<path fill="none" stroke="black" d="M1510.7,-534.23C1394.02,-504.44 1138.82,-439.26 1024.89,-410.17"/>
<polygon fill="black" stroke="black" points="1025.53,-406.71 1014.97,-407.63 1023.8,-413.5 1025.53,-406.71"/>
</g>
<!-- Cocone_legs_comm -->
<g id="node22" class="node">
<title>Cocone_legs_comm</title>
<g id="a_node22"><a xlink:href="Cocone.html#legs_comm" xlink:title="legs_comm">
<ellipse fill="#f070d1" stroke="black" cx="1747" cy="-222.63" rx="61.99" ry="18"/>
<text text-anchor="middle" x="1747" y="-218.93" font-family="Times,serif" font-size="14.00">legs_comm</text>
</a>
</g>
</g>
<!-- Cocone_cocone_precompose&#45;&gt;Cocone_legs_comm -->
<g id="edge19" class="edge">
<title>Cocone_cocone_precompose&#45;&gt;Cocone_legs_comm</title>
<path fill="none" stroke="black" d="M1618.23,-376.71C1643.61,-346.55 1696.76,-283.36 1726.22,-248.34"/>
<polygon fill="black" stroke="black" points="1729.06,-250.39 1732.82,-240.49 1723.71,-245.89 1729.06,-250.39"/>
</g>
<!-- Cocone_legs -->
<g id="node23" class="node">
<title>Cocone_legs</title>
<g id="a_node23"><a xlink:href="Cocone.html#legs" xlink:title="legs">
<ellipse fill="#f070d1" stroke="black" cx="1637" cy="-222.63" rx="29.8" ry="18"/>
<text text-anchor="middle" x="1637" y="-218.93" font-family="Times,serif" font-size="14.00">legs</text>
</a>
</g>
</g>
<!-- Cocone_cocone_precompose&#45;&gt;Cocone_legs -->
<g id="edge20" class="edge">
<title>Cocone_cocone_precompose&#45;&gt;Cocone_legs</title>
<path fill="none" stroke="black" d="M1607.35,-376.4C1613.09,-346.79 1624.88,-286.07 1631.74,-250.75"/>
<polygon fill="black" stroke="black" points="1635.22,-251.15 1633.69,-240.66 1628.35,-249.81 1635.22,-251.15"/>
</g>
<!-- Cocone_Build_Cocone -->
<g id="node28" class="node">
<title>Cocone_Build_Cocone</title>
<g id="a_node28"><a xlink:href="Cocone.html#Build_Cocone" xlink:title="Build_Cocone">
<ellipse fill="#7faaff" stroke="black" cx="1000" cy="-66.63" rx="73.39" ry="18"/>
<text text-anchor="middle" x="1000" y="-62.93" font-family="Times,serif" font-size="14.00">Build_Cocone</text>
</a>
</g>
</g>
<!-- Cocone_cocone_precompose&#45;&gt;Cocone_Build_Cocone -->
<g id="edge21" class="edge">
<title>Cocone_cocone_precompose&#45;&gt;Cocone_Build_Cocone</title>
<path fill="none" stroke="black" d="M1508.75,-387.83C1338.33,-375.24 992.19,-338.94 919,-248.63 879.34,-199.69 937.76,-128.24 974.31,-91.46"/>
<polygon fill="black" stroke="black" points="977.06,-93.67 981.74,-84.16 972.15,-88.68 977.06,-93.67"/>
</g>
<!-- Cocone_cocone_postcompose_comp&#45;&gt;Cocone_cocone_postcompose -->
<g id="edge22" class="edge">
<title>Cocone_cocone_postcompose_comp&#45;&gt;Cocone_cocone_postcompose</title>
<path fill="none" stroke="black" d="M498.48,-533.01C548.24,-504.94 648.85,-448.18 703.89,-417.13"/>
<polygon fill="black" stroke="black" points="705.66,-420.15 712.65,-412.19 702.22,-414.06 705.66,-420.15"/>
</g>
<!-- Cocone_cocone_postcompose_comp&#45;&gt;Cocone_path_cocone -->
<g id="edge23" class="edge">
<title>Cocone_cocone_postcompose_comp&#45;&gt;Cocone_path_cocone</title>
<path fill="none" stroke="black" d="M520.06,-533.88C615.42,-504.45 819.62,-441.43 915.83,-411.74"/>
<polygon fill="black" stroke="black" points="917.1,-415.01 925.63,-408.71 915.04,-408.32 917.1,-415.01"/>
</g>
<!-- Cocone_cocone_postcompose_identity&#45;&gt;Cocone_cocone_postcompose -->
<g id="edge24" class="edge">
<title>Cocone_cocone_postcompose_identity&#45;&gt;Cocone_cocone_postcompose</title>
<path fill="none" stroke="black" d="M225.3,-534.02C333.52,-505.04 564.71,-443.12 677.47,-412.92"/>
<polygon fill="black" stroke="black" points="678.6,-416.24 687.35,-410.27 676.79,-409.48 678.6,-416.24"/>
</g>
<!-- Cocone_cocone_postcompose_identity&#45;&gt;Cocone_path_cocone -->
<g id="edge25" class="edge">
<title>Cocone_cocone_postcompose_identity&#45;&gt;Cocone_path_cocone</title>
<path fill="none" stroke="black" d="M248.05,-535.56C377.34,-512.87 638.11,-466.13 858,-420.63 874.6,-417.2 892.54,-413.23 909.03,-409.48"/>
<polygon fill="black" stroke="black" points="910.11,-412.82 919.08,-407.18 908.55,-406 910.11,-412.82"/>
</g>
<!-- Cocone_is_universal -->
<g id="node11" class="node">
<title>Cocone_is_universal</title>
<g id="a_node11"><a xlink:href="Cocone.html#is_universal" xlink:title="is_universal">
<ellipse fill="#f070d1" stroke="black" cx="1619" cy="-707.63" rx="65.77" ry="18"/>
<ellipse fill="none" stroke="black" cx="1619" cy="-707.63" rx="69.78" ry="22"/>
<ellipse fill="none" stroke="black" cx="1619" cy="-707.63" rx="73.79" ry="26"/>
<text text-anchor="middle" x="1619" y="-703.93" font-family="Times,serif" font-size="14.00">is_universal</text>
</a>
</g>
</g>
<!-- Cocone_is_universal&#45;&gt;Cocone_UniversalCocone -->
<g id="edge26" class="edge">
<title>Cocone_is_universal&#45;&gt;Cocone_UniversalCocone</title>
<path fill="none" stroke="black" d="M1563.25,-690.34C1552.57,-687.35 1541.46,-684.32 1531,-681.63 1353.52,-636 1142.69,-589.41 1036.09,-566.39"/>
<polygon fill="black" stroke="black" points="1036.62,-562.92 1026.1,-564.23 1035.14,-569.76 1036.62,-562.92"/>
</g>
<!-- Cocone_UniversalCocone_sind -->
<g id="node12" class="node">
<title>Cocone_UniversalCocone_sind</title>
<g id="a_node12"><a xlink:href="Cocone.html#UniversalCocone_sind" xlink:title="UniversalCocone_sind">
<ellipse fill="#f070d1" stroke="black" cx="1134" cy="-707.63" rx="113.17" ry="18"/>
<ellipse fill="none" stroke="black" cx="1134" cy="-707.63" rx="117.18" ry="22"/>
<ellipse fill="none" stroke="black" cx="1134" cy="-707.63" rx="121.18" ry="26"/>
<text text-anchor="middle" x="1134" y="-703.93" font-family="Times,serif" font-size="14.00">UniversalCocone_sind</text>
</a>
</g>
</g>
<!-- Cocone_UniversalCocone_sind&#45;&gt;Cocone_Build_UniversalCocone -->
<g id="edge27" class="edge">
<title>Cocone_UniversalCocone_sind&#45;&gt;Cocone_Build_UniversalCocone</title>
<path fill="none" stroke="black" d="M1077.84,-684.43C1001.25,-654.14 865.23,-600.36 792,-571.41"/>
<polygon fill="black" stroke="black" points="793.11,-568.08 782.53,-567.66 790.54,-574.59 793.11,-568.08"/>
</g>
<!-- Cocone_UniversalCocone_sind&#45;&gt;Cocone_UniversalCocone -->
<g id="edge28" class="edge">
<title>Cocone_UniversalCocone_sind&#45;&gt;Cocone_UniversalCocone</title>
<path fill="none" stroke="black" d="M1107.54,-682.07C1076,-652.8 1023.66,-604.22 992.53,-575.33"/>
<polygon fill="black" stroke="black" points="994.81,-572.67 985.1,-568.44 990.05,-577.81 994.81,-572.67"/>
</g>
<!-- Cocone_UniversalCocone_rec -->
<g id="node13" class="node">
<title>Cocone_UniversalCocone_rec</title>
<g id="a_node13"><a xlink:href="Cocone.html#UniversalCocone_rec" xlink:title="UniversalCocone_rec">
<ellipse fill="#f070d1" stroke="black" cx="882" cy="-879.63" rx="108.58" ry="18"/>
<ellipse fill="none" stroke="black" cx="882" cy="-879.63" rx="112.58" ry="22"/>
<ellipse fill="none" stroke="black" cx="882" cy="-879.63" rx="116.58" ry="26"/>
<text text-anchor="middle" x="882" y="-875.93" font-family="Times,serif" font-size="14.00">UniversalCocone_rec</text>
</a>
</g>
</g>
<!-- Cocone_UniversalCocone_rect -->
<g id="node15" class="node">
<title>Cocone_UniversalCocone_rect</title>
<g id="a_node15"><a xlink:href="Cocone.html#UniversalCocone_rect" xlink:title="UniversalCocone_rect">
<ellipse fill="#f070d1" stroke="black" cx="882" cy="-707.63" rx="112.38" ry="18"/>
<text text-anchor="middle" x="882" y="-703.93" font-family="Times,serif" font-size="14.00">UniversalCocone_rect</text>
</a>
</g>
</g>
<!-- Cocone_UniversalCocone_rec&#45;&gt;Cocone_UniversalCocone_rect -->
<g id="edge29" class="edge">
<title>Cocone_UniversalCocone_rec&#45;&gt;Cocone_UniversalCocone_rect</title>
<path fill="none" stroke="black" d="M882,-853.55C882,-822.18 882,-768.67 882,-736.19"/>
<polygon fill="black" stroke="black" points="885.5,-736.04 882,-726.04 878.5,-736.04 885.5,-736.04"/>
</g>
<!-- Cocone_UniversalCocone_ind -->
<g id="node14" class="node">
<title>Cocone_UniversalCocone_ind</title>
<g id="a_node14"><a xlink:href="Cocone.html#UniversalCocone_ind" xlink:title="UniversalCocone_ind">
<ellipse fill="#7fffd4" stroke="black" cx="1390" cy="-707.63" rx="108.58" ry="18"/>
<ellipse fill="none" stroke="black" cx="1390" cy="-707.63" rx="112.58" ry="22"/>
<ellipse fill="none" stroke="black" cx="1390" cy="-707.63" rx="116.58" ry="26"/>
<text text-anchor="middle" x="1390" y="-703.93" font-family="Times,serif" font-size="14.00">UniversalCocone_ind</text>
</a>
</g>
</g>
<!-- Cocone_UniversalCocone_ind&#45;&gt;Cocone_Build_UniversalCocone -->
<g id="edge30" class="edge">
<title>Cocone_UniversalCocone_ind&#45;&gt;Cocone_Build_UniversalCocone</title>
<path fill="none" stroke="black" d="M1312.48,-688.09C1185.54,-657.73 935.23,-597.85 812.8,-568.57"/>
<polygon fill="black" stroke="black" points="813.32,-565.1 802.78,-566.17 811.69,-571.9 813.32,-565.1"/>
</g>
<!-- Cocone_UniversalCocone_ind&#45;&gt;Cocone_UniversalCocone -->
<g id="edge31" class="edge">
<title>Cocone_UniversalCocone_ind&#45;&gt;Cocone_UniversalCocone</title>
<path fill="none" stroke="black" d="M1331.18,-685.08C1247.81,-654.53 1096.64,-599.14 1017.85,-570.27"/>
<polygon fill="black" stroke="black" points="1018.74,-566.87 1008.15,-566.71 1016.33,-573.44 1018.74,-566.87"/>
</g>
<!-- Cocone_UniversalCocone_rect&#45;&gt;Cocone_Build_UniversalCocone -->
<g id="edge32" class="edge">
<title>Cocone_UniversalCocone_rect&#45;&gt;Cocone_Build_UniversalCocone</title>
<path fill="none" stroke="black" d="M866.75,-689.75C841.92,-662.27 792.67,-607.73 764.04,-576.03"/>
<polygon fill="black" stroke="black" points="766.53,-573.57 757.23,-568.5 761.34,-578.26 766.53,-573.57"/>
</g>
<!-- Cocone_UniversalCocone_rect&#45;&gt;Cocone_UniversalCocone -->
<g id="edge33" class="edge">
<title>Cocone_UniversalCocone_rect&#45;&gt;Cocone_UniversalCocone</title>
<path fill="none" stroke="black" d="M891.42,-689.46C906.23,-662.45 935.05,-609.89 952.51,-578.05"/>
<polygon fill="black" stroke="black" points="955.8,-579.34 957.54,-568.89 949.66,-575.98 955.8,-579.34"/>
</g>
<!-- Cocone_Build_UniversalCocone&#45;&gt;Cocone_cocone_postcompose -->
<g id="edge34" class="edge">
<title>Cocone_Build_UniversalCocone&#45;&gt;Cocone_cocone_postcompose</title>
<path fill="none" stroke="black" d="M742,-532.57C742,-506.09 742,-454.86 742,-423.12"/>
<polygon fill="black" stroke="black" points="745.5,-422.78 742,-412.78 738.5,-422.78 745.5,-422.78"/>
</g>
<!-- Cocone_UniversalCocone&#45;&gt;Cocone_cocone_postcompose -->
<g id="edge35" class="edge">
<title>Cocone_UniversalCocone&#45;&gt;Cocone_cocone_postcompose</title>
<path fill="none" stroke="black" d="M942.92,-533.15C902.34,-505.38 820.31,-449.23 774.61,-417.95"/>
<polygon fill="black" stroke="black" points="776.47,-414.99 766.25,-412.23 772.52,-420.77 776.47,-414.99"/>
</g>
<!-- Cocone_cocone_postcompose&#45;&gt;Cocone_Build_Cocone -->
<g id="edge36" class="edge">
<title>Cocone_cocone_postcompose&#45;&gt;Cocone_Build_Cocone</title>
<path fill="none" stroke="black" d="M728.58,-376.6C701.9,-340.52 647.99,-254.91 687,-196.63 739.15,-118.74 847.82,-87.83 922.33,-75.6"/>
<polygon fill="black" stroke="black" points="923.27,-79 932.61,-73.99 922.19,-72.08 923.27,-79"/>
</g>
<!-- Cocone_Cocone -->
<g id="node29" class="node">
<title>Cocone_Cocone</title>
<g id="a_node29"><a xlink:href="Cocone.html#Cocone" xlink:title="Cocone">
<ellipse fill="#e2cdfa" stroke="black" cx="1405" cy="-66.63" rx="44.39" ry="18"/>
<text text-anchor="middle" x="1405" y="-62.93" font-family="Times,serif" font-size="14.00">Cocone</text>
</a>
</g>
</g>
<!-- Cocone_cocone_postcompose&#45;&gt;Cocone_Cocone -->
<g id="edge37" class="edge">
<title>Cocone_cocone_postcompose&#45;&gt;Cocone_Cocone</title>
<path fill="none" stroke="black" d="M814.78,-381.32C1017.66,-346.97 1574.9,-252.32 1578,-248.63 1631.35,-185.23 1509.33,-115.89 1443.52,-84.61"/>
<polygon fill="black" stroke="black" points="1444.79,-81.34 1434.25,-80.28 1441.83,-87.68 1444.79,-81.34"/>
</g>
<!-- Cocone_path_cocone_naive -->
<g id="node20" class="node">
<title>Cocone_path_cocone_naive</title>
<g id="a_node20"><a xlink:href="Cocone.html#path_cocone_naive" xlink:title="path_cocone_naive">
<ellipse fill="#f070d1" stroke="black" cx="793" cy="-222.63" rx="96.68" ry="18"/>
<text text-anchor="middle" x="793" y="-218.93" font-family="Times,serif" font-size="14.00">path_cocone_naive</text>
</a>
</g>
</g>
<!-- Cocone_path_cocone&#45;&gt;Cocone_path_cocone_naive -->
<g id="edge38" class="edge">
<title>Cocone_path_cocone&#45;&gt;Cocone_path_cocone_naive</title>
<path fill="none" stroke="black" d="M950.9,-377.03C919.75,-346.76 853.64,-282.54 817.63,-247.56"/>
<polygon fill="black" stroke="black" points="820.04,-245.02 810.43,-240.56 815.16,-250.04 820.04,-245.02"/>
</g>
<!-- Cocone_path_cocone_naive&#45;&gt;Cocone_Build_Cocone -->
<g id="edge39" class="edge">
<title>Cocone_path_cocone_naive&#45;&gt;Cocone_Build_Cocone</title>
<path fill="none" stroke="black" d="M815.55,-204.86C852.99,-177 928.03,-121.18 969.94,-90"/>
<polygon fill="black" stroke="black" points="972.17,-92.7 978.11,-83.92 967.99,-87.08 972.17,-92.7"/>
</g>
<!-- Cocone_path_cocone_naive&#45;&gt;Cocone_Cocone -->
<g id="edge40" class="edge">
<title>Cocone_path_cocone_naive&#45;&gt;Cocone_Cocone</title>
<path fill="none" stroke="black" d="M848.12,-207.76C967.36,-177.76 1247.44,-107.28 1358.48,-79.34"/>
<polygon fill="black" stroke="black" points="1359.53,-82.69 1368.37,-76.85 1357.82,-75.9 1359.53,-82.69"/>
</g>
<!-- Cocone_issig_Cocone -->
<g id="node21" class="node">
<title>Cocone_issig_Cocone</title>
<g id="a_node21"><a xlink:href="Cocone.html#issig_Cocone" xlink:title="issig_Cocone">
<ellipse fill="#f070d1" stroke="black" cx="1491" cy="-222.63" rx="70.37" ry="18"/>
<ellipse fill="none" stroke="black" cx="1491" cy="-222.63" rx="74.38" ry="22"/>
<ellipse fill="none" stroke="black" cx="1491" cy="-222.63" rx="78.39" ry="26"/>
<text text-anchor="middle" x="1491" y="-218.93" font-family="Times,serif" font-size="14.00">issig_Cocone</text>
</a>
</g>
</g>
<!-- Cocone_issig_Cocone&#45;&gt;Cocone_Build_Cocone -->
<g id="edge41" class="edge">
<title>Cocone_issig_Cocone&#45;&gt;Cocone_Build_Cocone</title>
<path fill="none" stroke="black" d="M1435.63,-204.27C1340.31,-174.37 1146.47,-113.58 1052.89,-84.23"/>
<polygon fill="black" stroke="black" points="1053.93,-80.88 1043.34,-81.23 1051.84,-87.56 1053.93,-80.88"/>
</g>
<!-- Cocone_issig_Cocone&#45;&gt;Cocone_Cocone -->
<g id="edge42" class="edge">
<title>Cocone_issig_Cocone&#45;&gt;Cocone_Cocone</title>
<path fill="none" stroke="black" d="M1477.18,-196.89C1461.31,-168.48 1435.4,-122.08 1419.33,-93.29"/>
<polygon fill="black" stroke="black" points="1422.21,-91.27 1414.28,-84.25 1416.1,-94.69 1422.21,-91.27"/>
</g>
<!-- Cocone_legs_comm&#45;&gt;Cocone_Cocone -->
<g id="edge43" class="edge">
<title>Cocone_legs_comm&#45;&gt;Cocone_Cocone</title>
<path fill="none" stroke="black" d="M1714.83,-207.15C1651.43,-178.6 1510.66,-115.21 1442.89,-84.7"/>
<polygon fill="black" stroke="black" points="1444,-81.36 1433.44,-80.44 1441.12,-87.74 1444,-81.36"/>
</g>
<!-- Cocone_legs&#45;&gt;Cocone_Cocone -->
<g id="edge44" class="edge">
<title>Cocone_legs&#45;&gt;Cocone_Cocone</title>
<path fill="none" stroke="black" d="M1617.62,-208.77C1577.33,-182.02 1484.25,-120.24 1435.7,-88.02"/>
<polygon fill="black" stroke="black" points="1437.45,-84.97 1427.18,-82.36 1433.58,-90.81 1437.45,-84.97"/>
</g>
<!-- Cocone_Cocone_sind -->
<g id="node24" class="node">
<title>Cocone_Cocone_sind</title>
<g id="a_node24"><a xlink:href="Cocone.html#Cocone_sind" xlink:title="Cocone_sind">
<ellipse fill="#f070d1" stroke="black" cx="1319" cy="-222.63" rx="68.46" ry="18"/>
<ellipse fill="none" stroke="black" cx="1319" cy="-222.63" rx="72.48" ry="22"/>
<ellipse fill="none" stroke="black" cx="1319" cy="-222.63" rx="76.49" ry="26"/>
<text text-anchor="middle" x="1319" y="-218.93" font-family="Times,serif" font-size="14.00">Cocone_sind</text>
</a>
</g>
</g>
<!-- Cocone_Cocone_sind&#45;&gt;Cocone_Build_Cocone -->
<g id="edge45" class="edge">
<title>Cocone_Cocone_sind&#45;&gt;Cocone_Build_Cocone</title>
<path fill="none" stroke="black" d="M1276.31,-201.03C1214.75,-171.31 1101.8,-116.78 1041.12,-87.49"/>
<polygon fill="black" stroke="black" points="1042.38,-84.21 1031.85,-83.01 1039.33,-90.51 1042.38,-84.21"/>
</g>
<!-- Cocone_Cocone_sind&#45;&gt;Cocone_Cocone -->
<g id="edge46" class="edge">
<title>Cocone_Cocone_sind&#45;&gt;Cocone_Cocone</title>
<path fill="none" stroke="black" d="M1332.82,-196.89C1348.69,-168.48 1374.6,-122.08 1390.67,-93.29"/>
<polygon fill="black" stroke="black" points="1393.9,-94.69 1395.72,-84.25 1387.79,-91.27 1393.9,-94.69"/>
</g>
<!-- Cocone_Cocone_rec -->
<g id="node25" class="node">
<title>Cocone_Cocone_rec</title>
<g id="a_node25"><a xlink:href="Cocone.html#Cocone_rec" xlink:title="Cocone_rec">
<ellipse fill="#f070d1" stroke="black" cx="1157" cy="-394.63" rx="63.87" ry="18"/>
<ellipse fill="none" stroke="black" cx="1157" cy="-394.63" rx="67.88" ry="22"/>
<ellipse fill="none" stroke="black" cx="1157" cy="-394.63" rx="71.89" ry="26"/>
<text text-anchor="middle" x="1157" y="-390.93" font-family="Times,serif" font-size="14.00">Cocone_rec</text>
</a>
</g>
</g>
<!-- Cocone_Cocone_rect -->
<g id="node27" class="node">
<title>Cocone_Cocone_rect</title>
<g id="a_node27"><a xlink:href="Cocone.html#Cocone_rect" xlink:title="Cocone_rect">
<ellipse fill="#f070d1" stroke="black" cx="1157" cy="-222.63" rx="67.69" ry="18"/>
<text text-anchor="middle" x="1157" y="-218.93" font-family="Times,serif" font-size="14.00">Cocone_rect</text>
</a>
</g>
</g>
<!-- Cocone_Cocone_rec&#45;&gt;Cocone_Cocone_rect -->
<g id="edge47" class="edge">
<title>Cocone_Cocone_rec&#45;&gt;Cocone_Cocone_rect</title>
<path fill="none" stroke="black" d="M1157,-368.55C1157,-337.18 1157,-283.67 1157,-251.19"/>
<polygon fill="black" stroke="black" points="1160.5,-251.04 1157,-241.04 1153.5,-251.04 1160.5,-251.04"/>
</g>
<!-- Cocone_Cocone_ind -->
<g id="node26" class="node">
<title>Cocone_Cocone_ind</title>
<g id="a_node26"><a xlink:href="Cocone.html#Cocone_ind" xlink:title="Cocone_ind">
<ellipse fill="#7fffd4" stroke="black" cx="1000" cy="-222.63" rx="63.87" ry="18"/>
<ellipse fill="none" stroke="black" cx="1000" cy="-222.63" rx="67.88" ry="22"/>
<ellipse fill="none" stroke="black" cx="1000" cy="-222.63" rx="71.89" ry="26"/>
<text text-anchor="middle" x="1000" y="-218.93" font-family="Times,serif" font-size="14.00">Cocone_ind</text>
</a>
</g>
</g>
<!-- Cocone_Cocone_ind&#45;&gt;Cocone_Build_Cocone -->
<g id="edge48" class="edge">
<title>Cocone_Cocone_ind&#45;&gt;Cocone_Build_Cocone</title>
<path fill="none" stroke="black" d="M1000,-196.55C1000,-168.74 1000,-124.01 1000,-95.23"/>
<polygon fill="black" stroke="black" points="1003.5,-95.05 1000,-85.05 996.5,-95.05 1003.5,-95.05"/>
</g>
<!-- Cocone_Cocone_ind&#45;&gt;Cocone_Cocone -->
<g id="edge49" class="edge">
<title>Cocone_Cocone_ind&#45;&gt;Cocone_Cocone</title>
<path fill="none" stroke="black" d="M1048.45,-203.21C1129.03,-172.57 1289.13,-111.69 1364.27,-83.12"/>
<polygon fill="black" stroke="black" points="1365.76,-86.3 1373.86,-79.47 1363.27,-79.76 1365.76,-86.3"/>
</g>
<!-- Cocone_Cocone_rect&#45;&gt;Cocone_Build_Cocone -->
<g id="edge50" class="edge">
<title>Cocone_Cocone_rect&#45;&gt;Cocone_Build_Cocone</title>
<path fill="none" stroke="black" d="M1140.2,-205.15C1112.37,-177.86 1056.59,-123.15 1024.41,-91.58"/>
<polygon fill="black" stroke="black" points="1026.75,-88.97 1017.16,-84.46 1021.84,-93.97 1026.75,-88.97"/>
</g>
<!-- Cocone_Cocone_rect&#45;&gt;Cocone_Cocone -->
<g id="edge51" class="edge">
<title>Cocone_Cocone_rect&#45;&gt;Cocone_Cocone</title>
<path fill="none" stroke="black" d="M1182.61,-205.73C1228.16,-177.45 1323.16,-118.46 1372.96,-87.53"/>
<polygon fill="black" stroke="black" points="1375.07,-90.34 1381.72,-82.09 1371.37,-84.4 1375.07,-90.34"/>
</g>
</g>
</svg>
