<?xml version="1.0" encoding="UTF-8" standalone="no"?>
<!DOCTYPE svg PUBLIC "-//W3C//DTD SVG 1.1//EN"
 "http://www.w3.org/Graphics/SVG/1.1/DTD/svg11.dtd">
<!-- Generated by graphviz version 2.43.0 (0)
 -->
<!-- Title: HoTT_Types_Prod Pages: 1 -->
<svg width="2846pt" height="1427pt"
 viewBox="0.00 0.00 2846.00 1427.00" xmlns="http://www.w3.org/2000/svg" xmlns:xlink="http://www.w3.org/1999/xlink">
<g id="graph0" class="graph" transform="scale(1 1) rotate(0) translate(4 1423)">
<title>HoTT_Types_Prod</title>
<polygon fill="white" stroke="transparent" points="-4,4 -4,-1423 2842,-1423 2842,4 -4,4"/>
<g id="clust1" class="cluster">
<title>cluster_Prod</title>
<polygon fill="#ffffc3" stroke="black" points="8,-18.83 8,-1400.17 2830,-1400.17 2830,-18.83 8,-18.83"/>
<text text-anchor="middle" x="33" y="-1384.97" font-family="Times,serif" font-size="14.00">Prod</text>
</g>
<!-- Prod_istruncmap_functor_prod -->
<g id="node1" class="node">
<title>Prod_istruncmap_functor_prod</title>
<g id="a_node1"><a xlink:href="Prod.html#istruncmap_functor_prod" xlink:title="istruncmap_functor_prod">
<ellipse fill="#f070d1" stroke="black" cx="2687" cy="-1265.83" rx="127.28" ry="18"/>
<ellipse fill="none" stroke="black" cx="2687" cy="-1265.83" rx="131.28" ry="22"/>
<ellipse fill="none" stroke="black" cx="2687" cy="-1265.83" rx="135.28" ry="26"/>
<text text-anchor="middle" x="2687" y="-1262.13" font-family="Times,serif" font-size="14.00">istruncmap_functor_prod</text>
</a>
</g>
</g>
<!-- Prod_hfiber_functor_prod -->
<g id="node2" class="node">
<title>Prod_hfiber_functor_prod</title>
<g id="a_node2"><a xlink:href="Prod.html#hfiber_functor_prod" xlink:title="hfiber_functor_prod">
<ellipse fill="#f070d1" stroke="black" cx="2518" cy="-437.83" rx="102.08" ry="18"/>
<text text-anchor="middle" x="2518" y="-434.13" font-family="Times,serif" font-size="14.00">hfiber_functor_prod</text>
</a>
</g>
</g>
<!-- Prod_istruncmap_functor_prod&#45;&gt;Prod_hfiber_functor_prod -->
<g id="edge1" class="edge">
<title>Prod_istruncmap_functor_prod&#45;&gt;Prod_hfiber_functor_prod</title>
<path fill="none" stroke="black" d="M2700.41,-1239.63C2721.34,-1197.26 2757.98,-1108.9 2744,-1032.83 2701.74,-802.89 2574.61,-546.66 2532.05,-465.18"/>
<polygon fill="black" stroke="black" points="2535.05,-463.35 2527.3,-456.12 2528.85,-466.6 2535.05,-463.35"/>
</g>
<!-- Prod_istrunc_prod -->
<g id="node6" class="node">
<title>Prod_istrunc_prod</title>
<g id="a_node6"><a xlink:href="Prod.html#istrunc_prod" xlink:title="istrunc_prod">
<ellipse fill="#f070d1" stroke="black" cx="1793" cy="-1058.83" rx="69.59" ry="18"/>
<text text-anchor="middle" x="1793" y="-1055.13" font-family="Times,serif" font-size="14.00">istrunc_prod</text>
</a>
</g>
</g>
<!-- Prod_istruncmap_functor_prod&#45;&gt;Prod_istrunc_prod -->
<g id="edge2" class="edge">
<title>Prod_istruncmap_functor_prod&#45;&gt;Prod_istrunc_prod</title>
<path fill="none" stroke="black" d="M2593,-1247.05C2440.45,-1217.54 2129.94,-1154.72 1871,-1084.83 1861.83,-1082.35 1852.13,-1079.46 1842.81,-1076.55"/>
<polygon fill="black" stroke="black" points="1843.86,-1073.21 1833.27,-1073.52 1841.74,-1079.88 1843.86,-1073.21"/>
</g>
<!-- Prod_functor_prod -->
<g id="node27" class="node">
<title>Prod_functor_prod</title>
<g id="a_node27"><a xlink:href="Prod.html#functor_prod" xlink:title="functor_prod">
<ellipse fill="#f070d1" stroke="black" cx="2518" cy="-249.83" rx="70.39" ry="18"/>
<text text-anchor="middle" x="2518" y="-246.13" font-family="Times,serif" font-size="14.00">functor_prod</text>
</a>
</g>
</g>
<!-- Prod_hfiber_functor_prod&#45;&gt;Prod_functor_prod -->
<g id="edge3" class="edge">
<title>Prod_hfiber_functor_prod&#45;&gt;Prod_functor_prod</title>
<path fill="none" stroke="black" d="M2518,-419.66C2518,-387.27 2518,-316.91 2518,-278.03"/>
<polygon fill="black" stroke="black" points="2521.5,-277.95 2518,-267.95 2514.5,-277.95 2521.5,-277.95"/>
</g>
<!-- Prod_path_prod -->
<g id="node44" class="node">
<title>Prod_path_prod</title>
<g id="a_node44"><a xlink:href="Prod.html#path_prod" xlink:title="path_prod">
<ellipse fill="#f070d1" stroke="black" cx="1738" cy="-249.83" rx="57.69" ry="18"/>
<text text-anchor="middle" x="1738" y="-246.13" font-family="Times,serif" font-size="14.00">path_prod</text>
</a>
</g>
</g>
<!-- Prod_hfiber_functor_prod&#45;&gt;Prod_path_prod -->
<g id="edge4" class="edge">
<title>Prod_hfiber_functor_prod&#45;&gt;Prod_path_prod</title>
<path fill="none" stroke="black" d="M2460.01,-423C2314.17,-388.22 1933.67,-297.49 1792.1,-263.73"/>
<polygon fill="black" stroke="black" points="1792.87,-260.31 1782.33,-261.4 1791.24,-267.12 1792.87,-260.31"/>
</g>
<!-- Prod_ap_uncurry -->
<g id="node3" class="node">
<title>Prod_ap_uncurry</title>
<g id="a_node3"><a xlink:href="Prod.html#ap_uncurry" xlink:title="ap_uncurry">
<ellipse fill="#f070d1" stroke="black" cx="1864" cy="-644.83" rx="63.08" ry="18"/>
<ellipse fill="none" stroke="black" cx="1864" cy="-644.83" rx="67.09" ry="22"/>
<ellipse fill="none" stroke="black" cx="1864" cy="-644.83" rx="71.09" ry="26"/>
<text text-anchor="middle" x="1864" y="-641.13" font-family="Times,serif" font-size="14.00">ap_uncurry</text>
</a>
</g>
</g>
<!-- Prod_path_prod_ -->
<g id="node43" class="node">
<title>Prod_path_prod_</title>
<g id="a_node43"><a xlink:href="Prod.html#path_prod'" xlink:title="path_prod&#39;">
<ellipse fill="#f070d1" stroke="black" cx="1738" cy="-437.83" rx="59.59" ry="18"/>
<text text-anchor="middle" x="1738" y="-434.13" font-family="Times,serif" font-size="14.00">path_prod&#39;</text>
</a>
</g>
</g>
<!-- Prod_ap_uncurry&#45;&gt;Prod_path_prod_ -->
<g id="edge5" class="edge">
<title>Prod_ap_uncurry&#45;&gt;Prod_path_prod_</title>
<path fill="none" stroke="black" d="M1848.8,-619.1C1824.69,-579.88 1777.93,-503.8 1753.59,-464.18"/>
<polygon fill="black" stroke="black" points="1756.54,-462.31 1748.33,-455.63 1750.58,-465.98 1756.54,-462.31"/>
</g>
<!-- Prod_decidable_prod -->
<g id="node4" class="node">
<title>Prod_decidable_prod</title>
<g id="a_node4"><a xlink:href="Prod.html#decidable_prod" xlink:title="decidable_prod">
<ellipse fill="#f070d1" stroke="black" cx="2444" cy="-1265.83" rx="81.46" ry="18"/>
<ellipse fill="none" stroke="black" cx="2444" cy="-1265.83" rx="85.48" ry="22"/>
<ellipse fill="none" stroke="black" cx="2444" cy="-1265.83" rx="89.49" ry="26"/>
<text text-anchor="middle" x="2444" y="-1262.13" font-family="Times,serif" font-size="14.00">decidable_prod</text>
</a>
</g>
</g>
<!-- Prod_contr_prod -->
<g id="node5" class="node">
<title>Prod_contr_prod</title>
<g id="a_node5"><a xlink:href="Prod.html#contr_prod" xlink:title="contr_prod">
<ellipse fill="#f070d1" stroke="black" cx="2052" cy="-1265.83" rx="61.18" ry="18"/>
<ellipse fill="none" stroke="black" cx="2052" cy="-1265.83" rx="65.18" ry="22"/>
<ellipse fill="none" stroke="black" cx="2052" cy="-1265.83" rx="69.19" ry="26"/>
<text text-anchor="middle" x="2052" y="-1262.13" font-family="Times,serif" font-size="14.00">contr_prod</text>
</a>
</g>
</g>
<!-- Prod_contr_prod&#45;&gt;Prod_istrunc_prod -->
<g id="edge6" class="edge">
<title>Prod_contr_prod&#45;&gt;Prod_istrunc_prod</title>
<path fill="none" stroke="black" d="M2023.29,-1242.1C1973.49,-1202.69 1871.64,-1122.07 1821.79,-1082.61"/>
<polygon fill="black" stroke="black" points="1823.69,-1079.65 1813.68,-1076.19 1819.34,-1085.14 1823.69,-1079.65"/>
</g>
<!-- Prod_equiv_path_prod -->
<g id="node32" class="node">
<title>Prod_equiv_path_prod</title>
<g id="a_node32"><a xlink:href="Prod.html#equiv_path_prod" xlink:title="equiv_path_prod">
<ellipse fill="#f070d1" stroke="black" cx="1629" cy="-851.83" rx="87.18" ry="18"/>
<text text-anchor="middle" x="1629" y="-848.13" font-family="Times,serif" font-size="14.00">equiv_path_prod</text>
</a>
</g>
</g>
<!-- Prod_istrunc_prod&#45;&gt;Prod_equiv_path_prod -->
<g id="edge7" class="edge">
<title>Prod_istrunc_prod&#45;&gt;Prod_equiv_path_prod</title>
<path fill="none" stroke="black" d="M1779.58,-1041.05C1750.75,-1005.01 1682.77,-920.04 1648.9,-877.71"/>
<polygon fill="black" stroke="black" points="1651.59,-875.46 1642.61,-869.83 1646.12,-879.83 1651.59,-875.46"/>
</g>
<!-- Prod_equiv_prod_coind -->
<g id="node7" class="node">
<title>Prod_equiv_prod_coind</title>
<g id="a_node7"><a xlink:href="Prod.html#equiv_prod_coind" xlink:title="equiv_prod_coind">
<ellipse fill="#f070d1" stroke="black" cx="2238" cy="-1265.83" rx="90.98" ry="18"/>
<ellipse fill="none" stroke="black" cx="2238" cy="-1265.83" rx="94.98" ry="22"/>
<ellipse fill="none" stroke="black" cx="2238" cy="-1265.83" rx="98.98" ry="26"/>
<text text-anchor="middle" x="2238" y="-1262.13" font-family="Times,serif" font-size="14.00">equiv_prod_coind</text>
</a>
</g>
</g>
<!-- Prod_isequiv_prod_coind -->
<g id="node8" class="node">
<title>Prod_isequiv_prod_coind</title>
<g id="a_node8"><a xlink:href="Prod.html#isequiv_prod_coind" xlink:title="isequiv_prod_coind">
<ellipse fill="#f070d1" stroke="black" cx="1979" cy="-1058.83" rx="98.58" ry="18"/>
<text text-anchor="middle" x="1979" y="-1055.13" font-family="Times,serif" font-size="14.00">isequiv_prod_coind</text>
</a>
</g>
</g>
<!-- Prod_equiv_prod_coind&#45;&gt;Prod_isequiv_prod_coind -->
<g id="edge8" class="edge">
<title>Prod_equiv_prod_coind&#45;&gt;Prod_isequiv_prod_coind</title>
<path fill="none" stroke="black" d="M2207.78,-1240.91C2157.58,-1201.17 2057.62,-1122.05 2008.14,-1082.89"/>
<polygon fill="black" stroke="black" points="2010.09,-1079.97 2000.08,-1076.51 2005.75,-1085.46 2010.09,-1079.97"/>
</g>
<!-- Prod_prod_coind_uncurried -->
<g id="node10" class="node">
<title>Prod_prod_coind_uncurried</title>
<g id="a_node10"><a xlink:href="Prod.html#prod_coind_uncurried" xlink:title="prod_coind_uncurried">
<ellipse fill="#f070d1" stroke="black" cx="2157" cy="-851.83" rx="111.28" ry="18"/>
<text text-anchor="middle" x="2157" y="-848.13" font-family="Times,serif" font-size="14.00">prod_coind_uncurried</text>
</a>
</g>
</g>
<!-- Prod_isequiv_prod_coind&#45;&gt;Prod_prod_coind_uncurried -->
<g id="edge9" class="edge">
<title>Prod_isequiv_prod_coind&#45;&gt;Prod_prod_coind_uncurried</title>
<path fill="none" stroke="black" d="M1993.87,-1040.7C2025.43,-1004.36 2099.19,-919.41 2135.72,-877.34"/>
<polygon fill="black" stroke="black" points="2138.38,-879.6 2142.3,-869.76 2133.1,-875.01 2138.38,-879.6"/>
</g>
<!-- Prod_prod_coind -->
<g id="node9" class="node">
<title>Prod_prod_coind</title>
<g id="a_node9"><a xlink:href="Prod.html#prod_coind" xlink:title="prod_coind">
<ellipse fill="#f070d1" stroke="black" cx="2166" cy="-1058.83" rx="61.96" ry="18"/>
<ellipse fill="none" stroke="black" cx="2166" cy="-1058.83" rx="65.98" ry="22"/>
<ellipse fill="none" stroke="black" cx="2166" cy="-1058.83" rx="69.99" ry="26"/>
<text text-anchor="middle" x="2166" y="-1055.13" font-family="Times,serif" font-size="14.00">prod_coind</text>
</a>
</g>
</g>
<!-- Prod_prod_coind&#45;&gt;Prod_prod_coind_uncurried -->
<g id="edge10" class="edge">
<title>Prod_prod_coind&#45;&gt;Prod_prod_coind_uncurried</title>
<path fill="none" stroke="black" d="M2164.9,-1032.69C2163.2,-994 2159.96,-920.17 2158.2,-880.19"/>
<polygon fill="black" stroke="black" points="2161.69,-879.93 2157.76,-870.09 2154.7,-880.24 2161.69,-879.93"/>
</g>
<!-- Prod_equiv_uncurry -->
<g id="node11" class="node">
<title>Prod_equiv_uncurry</title>
<g id="a_node11"><a xlink:href="Prod.html#equiv_uncurry" xlink:title="equiv_uncurry">
<ellipse fill="#f070d1" stroke="black" cx="1880" cy="-1265.83" rx="77.2" ry="18"/>
<ellipse fill="none" stroke="black" cx="1880" cy="-1265.83" rx="81.19" ry="22"/>
<ellipse fill="none" stroke="black" cx="1880" cy="-1265.83" rx="85.19" ry="26"/>
<text text-anchor="middle" x="1880" y="-1262.13" font-family="Times,serif" font-size="14.00">equiv_uncurry</text>
</a>
</g>
</g>
<!-- Prod_equiv_prod_ind -->
<g id="node12" class="node">
<title>Prod_equiv_prod_ind</title>
<g id="a_node12"><a xlink:href="Prod.html#equiv_prod_ind" xlink:title="equiv_prod_ind">
<ellipse fill="#f070d1" stroke="black" cx="1466" cy="-1058.83" rx="81.49" ry="18"/>
<text text-anchor="middle" x="1466" y="-1055.13" font-family="Times,serif" font-size="14.00">equiv_prod_ind</text>
</a>
</g>
</g>
<!-- Prod_equiv_uncurry&#45;&gt;Prod_equiv_prod_ind -->
<g id="edge11" class="edge">
<title>Prod_equiv_uncurry&#45;&gt;Prod_equiv_prod_ind</title>
<path fill="none" stroke="black" d="M1836.48,-1243.27C1755.98,-1203.42 1584.93,-1118.72 1506.65,-1079.95"/>
<polygon fill="black" stroke="black" points="1508.09,-1076.76 1497.57,-1075.46 1504.98,-1083.03 1508.09,-1076.76"/>
</g>
<!-- Prod_isequiv_prod_ind -->
<g id="node13" class="node">
<title>Prod_isequiv_prod_ind</title>
<g id="a_node13"><a xlink:href="Prod.html#isequiv_prod_ind" xlink:title="isequiv_prod_ind">
<ellipse fill="#f070d1" stroke="black" cx="1337" cy="-851.83" rx="89.08" ry="18"/>
<text text-anchor="middle" x="1337" y="-848.13" font-family="Times,serif" font-size="14.00">isequiv_prod_ind</text>
</a>
</g>
</g>
<!-- Prod_equiv_prod_ind&#45;&gt;Prod_isequiv_prod_ind -->
<g id="edge12" class="edge">
<title>Prod_equiv_prod_ind&#45;&gt;Prod_isequiv_prod_ind</title>
<path fill="none" stroke="black" d="M1455.22,-1040.7C1432.54,-1004.66 1379.79,-920.82 1353.09,-878.39"/>
<polygon fill="black" stroke="black" points="1355.94,-876.36 1347.66,-869.76 1350.02,-880.09 1355.94,-876.36"/>
</g>
<!-- Prod_prod_ind -->
<g id="node49" class="node">
<title>Prod_prod_ind</title>
<g id="a_node49"><a xlink:href="Prod.html#prod_ind" xlink:title="prod_ind">
<ellipse fill="#f070d1" stroke="black" cx="1298" cy="-644.83" rx="51.19" ry="18"/>
<text text-anchor="middle" x="1298" y="-641.13" font-family="Times,serif" font-size="14.00">prod_ind</text>
</a>
</g>
</g>
<!-- Prod_isequiv_prod_ind&#45;&gt;Prod_prod_ind -->
<g id="edge13" class="edge">
<title>Prod_isequiv_prod_ind&#45;&gt;Prod_prod_ind</title>
<path fill="none" stroke="black" d="M1333.74,-833.7C1326.97,-798.13 1311.35,-715.98 1303.18,-673.06"/>
<polygon fill="black" stroke="black" points="1306.58,-672.22 1301.28,-663.05 1299.71,-673.52 1306.58,-672.22"/>
</g>
<!-- Prod_prod_unit_l -->
<g id="node14" class="node">
<title>Prod_prod_unit_l</title>
<g id="a_node14"><a xlink:href="Prod.html#prod_unit_l" xlink:title="prod_unit_l">
<ellipse fill="#f070d1" stroke="black" cx="1706" cy="-1265.83" rx="62.3" ry="18"/>
<ellipse fill="none" stroke="black" cx="1706" cy="-1265.83" rx="66.3" ry="22"/>
<ellipse fill="none" stroke="black" cx="1706" cy="-1265.83" rx="70.29" ry="26"/>
<text text-anchor="middle" x="1706" y="-1262.13" font-family="Times,serif" font-size="14.00">prod_unit_l</text>
</a>
</g>
</g>
<!-- Prod_prod_unit_r -->
<g id="node15" class="node">
<title>Prod_prod_unit_r</title>
<g id="a_node15"><a xlink:href="Prod.html#prod_unit_r" xlink:title="prod_unit_r">
<ellipse fill="#f070d1" stroke="black" cx="1546" cy="-1265.83" rx="63.87" ry="18"/>
<ellipse fill="none" stroke="black" cx="1546" cy="-1265.83" rx="67.88" ry="22"/>
<ellipse fill="none" stroke="black" cx="1546" cy="-1265.83" rx="71.89" ry="26"/>
<text text-anchor="middle" x="1546" y="-1262.13" font-family="Times,serif" font-size="14.00">prod_unit_r</text>
</a>
</g>
</g>
<!-- Prod_prod_empty_l -->
<g id="node16" class="node">
<title>Prod_prod_empty_l</title>
<g id="a_node16"><a xlink:href="Prod.html#prod_empty_l" xlink:title="prod_empty_l">
<ellipse fill="#f070d1" stroke="black" cx="1375" cy="-1265.83" rx="73.39" ry="18"/>
<ellipse fill="none" stroke="black" cx="1375" cy="-1265.83" rx="77.39" ry="22"/>
<ellipse fill="none" stroke="black" cx="1375" cy="-1265.83" rx="81.39" ry="26"/>
<text text-anchor="middle" x="1375" y="-1262.13" font-family="Times,serif" font-size="14.00">prod_empty_l</text>
</a>
</g>
</g>
<!-- Prod_prod_empty_r -->
<g id="node17" class="node">
<title>Prod_prod_empty_r</title>
<g id="a_node17"><a xlink:href="Prod.html#prod_empty_r" xlink:title="prod_empty_r">
<ellipse fill="#f070d1" stroke="black" cx="1193" cy="-1265.83" rx="74.96" ry="18"/>
<ellipse fill="none" stroke="black" cx="1193" cy="-1265.83" rx="78.98" ry="22"/>
<ellipse fill="none" stroke="black" cx="1193" cy="-1265.83" rx="82.99" ry="26"/>
<text text-anchor="middle" x="1193" y="-1262.13" font-family="Times,serif" font-size="14.00">prod_empty_r</text>
</a>
</g>
</g>
<!-- Prod_equiv_prod_assoc -->
<g id="node18" class="node">
<title>Prod_equiv_prod_assoc</title>
<g id="a_node18"><a xlink:href="Prod.html#equiv_prod_assoc" xlink:title="equiv_prod_assoc">
<ellipse fill="#f070d1" stroke="black" cx="993" cy="-1265.83" rx="91.77" ry="18"/>
<ellipse fill="none" stroke="black" cx="993" cy="-1265.83" rx="95.78" ry="22"/>
<ellipse fill="none" stroke="black" cx="993" cy="-1265.83" rx="99.78" ry="26"/>
<text text-anchor="middle" x="993" y="-1262.13" font-family="Times,serif" font-size="14.00">equiv_prod_assoc</text>
</a>
</g>
</g>
<!-- Prod_equiv_prod_symm -->
<g id="node19" class="node">
<title>Prod_equiv_prod_symm</title>
<g id="a_node19"><a xlink:href="Prod.html#equiv_prod_symm" xlink:title="equiv_prod_symm">
<ellipse fill="#f070d1" stroke="black" cx="773" cy="-1265.83" rx="94.46" ry="18"/>
<ellipse fill="none" stroke="black" cx="773" cy="-1265.83" rx="98.47" ry="22"/>
<ellipse fill="none" stroke="black" cx="773" cy="-1265.83" rx="102.48" ry="26"/>
<text text-anchor="middle" x="773" y="-1262.13" font-family="Times,serif" font-size="14.00">equiv_prod_symm</text>
</a>
</g>
</g>
<!-- Prod_iff_functor_prod -->
<g id="node20" class="node">
<title>Prod_iff_functor_prod</title>
<g id="a_node20"><a xlink:href="Prod.html#iff_functor_prod" xlink:title="iff_functor_prod">
<ellipse fill="#f070d1" stroke="black" cx="2730" cy="-437.83" rx="83.7" ry="18"/>
<ellipse fill="none" stroke="black" cx="2730" cy="-437.83" rx="87.69" ry="22"/>
<ellipse fill="none" stroke="black" cx="2730" cy="-437.83" rx="91.69" ry="26"/>
<text text-anchor="middle" x="2730" y="-434.13" font-family="Times,serif" font-size="14.00">iff_functor_prod</text>
</a>
</g>
</g>
<!-- Prod_iff_functor_prod&#45;&gt;Prod_functor_prod -->
<g id="edge14" class="edge">
<title>Prod_iff_functor_prod&#45;&gt;Prod_functor_prod</title>
<path fill="none" stroke="black" d="M2702.72,-412.89C2661.73,-376.92 2584.75,-309.39 2544.32,-273.92"/>
<polygon fill="black" stroke="black" points="2546.57,-271.24 2536.75,-267.27 2541.96,-276.5 2546.57,-271.24"/>
</g>
<!-- Prod_equiv_functor_prod_r -->
<g id="node21" class="node">
<title>Prod_equiv_functor_prod_r</title>
<g id="a_node21"><a xlink:href="Prod.html#equiv_functor_prod_r" xlink:title="equiv_functor_prod_r">
<ellipse fill="#f070d1" stroke="black" cx="2370" cy="-1058.83" rx="108.58" ry="18"/>
<ellipse fill="none" stroke="black" cx="2370" cy="-1058.83" rx="112.58" ry="22"/>
<ellipse fill="none" stroke="black" cx="2370" cy="-1058.83" rx="116.58" ry="26"/>
<text text-anchor="middle" x="2370" y="-1055.13" font-family="Times,serif" font-size="14.00">equiv_functor_prod_r</text>
</a>
</g>
</g>
<!-- Prod_equiv_functor_prod_ -->
<g id="node23" class="node">
<title>Prod_equiv_functor_prod_</title>
<g id="a_node23"><a xlink:href="Prod.html#equiv_functor_prod'" xlink:title="equiv_functor_prod&#39;">
<ellipse fill="#f070d1" stroke="black" cx="2389" cy="-851.83" rx="102.88" ry="18"/>
<text text-anchor="middle" x="2389" y="-848.13" font-family="Times,serif" font-size="14.00">equiv_functor_prod&#39;</text>
</a>
</g>
</g>
<!-- Prod_equiv_functor_prod_r&#45;&gt;Prod_equiv_functor_prod_ -->
<g id="edge15" class="edge">
<title>Prod_equiv_functor_prod_r&#45;&gt;Prod_equiv_functor_prod_</title>
<path fill="none" stroke="black" d="M2372.33,-1032.69C2375.92,-994 2382.76,-920.17 2386.46,-880.19"/>
<polygon fill="black" stroke="black" points="2389.96,-880.37 2387.4,-870.09 2382.99,-879.73 2389.96,-880.37"/>
</g>
<!-- Prod_equiv_functor_prod_l -->
<g id="node22" class="node">
<title>Prod_equiv_functor_prod_l</title>
<g id="a_node22"><a xlink:href="Prod.html#equiv_functor_prod_l" xlink:title="equiv_functor_prod_l">
<ellipse fill="#f070d1" stroke="black" cx="2620" cy="-1058.83" rx="107.46" ry="18"/>
<ellipse fill="none" stroke="black" cx="2620" cy="-1058.83" rx="111.47" ry="22"/>
<ellipse fill="none" stroke="black" cx="2620" cy="-1058.83" rx="115.48" ry="26"/>
<text text-anchor="middle" x="2620" y="-1055.13" font-family="Times,serif" font-size="14.00">equiv_functor_prod_l</text>
</a>
</g>
</g>
<!-- Prod_equiv_functor_prod_l&#45;&gt;Prod_equiv_functor_prod_ -->
<g id="edge16" class="edge">
<title>Prod_equiv_functor_prod_l&#45;&gt;Prod_equiv_functor_prod_</title>
<path fill="none" stroke="black" d="M2592.59,-1033.5C2547.93,-993.87 2459.99,-915.82 2415.75,-876.57"/>
<polygon fill="black" stroke="black" points="2417.82,-873.72 2408.02,-869.7 2413.18,-878.96 2417.82,-873.72"/>
</g>
<!-- Prod_isequiv_functor_prod -->
<g id="node25" class="node">
<title>Prod_isequiv_functor_prod</title>
<g id="a_node25"><a xlink:href="Prod.html#isequiv_functor_prod" xlink:title="isequiv_functor_prod">
<ellipse fill="#f070d1" stroke="black" cx="2312" cy="-644.83" rx="107.78" ry="18"/>
<text text-anchor="middle" x="2312" y="-641.13" font-family="Times,serif" font-size="14.00">isequiv_functor_prod</text>
</a>
</g>
</g>
<!-- Prod_equiv_functor_prod_&#45;&gt;Prod_isequiv_functor_prod -->
<g id="edge17" class="edge">
<title>Prod_equiv_functor_prod_&#45;&gt;Prod_isequiv_functor_prod</title>
<path fill="none" stroke="black" d="M2382.57,-833.7C2369.15,-797.98 2338.09,-715.29 2322.03,-672.52"/>
<polygon fill="black" stroke="black" points="2325.26,-671.18 2318.47,-663.05 2318.71,-673.64 2325.26,-671.18"/>
</g>
<!-- Prod_equiv_functor_prod -->
<g id="node24" class="node">
<title>Prod_equiv_functor_prod</title>
<g id="a_node24"><a xlink:href="Prod.html#equiv_functor_prod" xlink:title="equiv_functor_prod">
<ellipse fill="#f070d1" stroke="black" cx="1920" cy="-851.83" rx="100.18" ry="18"/>
<ellipse fill="none" stroke="black" cx="1920" cy="-851.83" rx="104.18" ry="22"/>
<ellipse fill="none" stroke="black" cx="1920" cy="-851.83" rx="108.18" ry="26"/>
<text text-anchor="middle" x="1920" y="-848.13" font-family="Times,serif" font-size="14.00">equiv_functor_prod</text>
</a>
</g>
</g>
<!-- Prod_equiv_functor_prod&#45;&gt;Prod_isequiv_functor_prod -->
<g id="edge18" class="edge">
<title>Prod_equiv_functor_prod&#45;&gt;Prod_isequiv_functor_prod</title>
<path fill="none" stroke="black" d="M1963.83,-827.91C2040.46,-787.83 2197.7,-705.6 2271.75,-666.88"/>
<polygon fill="black" stroke="black" points="2273.54,-669.89 2280.78,-662.15 2270.3,-663.69 2273.54,-669.89"/>
</g>
<!-- Prod_ap_functor_prod -->
<g id="node26" class="node">
<title>Prod_ap_functor_prod</title>
<g id="a_node26"><a xlink:href="Prod.html#ap_functor_prod" xlink:title="ap_functor_prod">
<ellipse fill="#f070d1" stroke="black" cx="2312" cy="-437.83" rx="85.59" ry="18"/>
<text text-anchor="middle" x="2312" y="-434.13" font-family="Times,serif" font-size="14.00">ap_functor_prod</text>
</a>
</g>
</g>
<!-- Prod_isequiv_functor_prod&#45;&gt;Prod_ap_functor_prod -->
<g id="edge19" class="edge">
<title>Prod_isequiv_functor_prod&#45;&gt;Prod_ap_functor_prod</title>
<path fill="none" stroke="black" d="M2312,-626.7C2312,-591.13 2312,-508.98 2312,-466.06"/>
<polygon fill="black" stroke="black" points="2315.5,-466.05 2312,-456.05 2308.5,-466.05 2315.5,-466.05"/>
</g>
<!-- Prod_isequiv_functor_prod&#45;&gt;Prod_path_prod_ -->
<g id="edge20" class="edge">
<title>Prod_isequiv_functor_prod&#45;&gt;Prod_path_prod_</title>
<path fill="none" stroke="black" d="M2268.07,-628.25C2180.36,-597.15 1977.37,-525.05 1807,-463.83 1799.58,-461.16 1791.72,-458.32 1784.06,-455.55"/>
<polygon fill="black" stroke="black" points="1785.11,-452.21 1774.51,-452.1 1782.72,-458.79 1785.11,-452.21"/>
</g>
<!-- Prod_ap_functor_prod&#45;&gt;Prod_functor_prod -->
<g id="edge21" class="edge">
<title>Prod_ap_functor_prod&#45;&gt;Prod_functor_prod</title>
<path fill="none" stroke="black" d="M2330.64,-419.99C2367.58,-386.64 2450.12,-312.11 2492.23,-274.1"/>
<polygon fill="black" stroke="black" points="2494.76,-276.52 2499.84,-267.22 2490.07,-271.33 2494.76,-276.52"/>
</g>
<!-- Prod_ap_functor_prod&#45;&gt;Prod_path_prod -->
<g id="edge22" class="edge">
<title>Prod_ap_functor_prod&#45;&gt;Prod_path_prod</title>
<path fill="none" stroke="black" d="M2267.44,-422.39C2161.69,-388.12 1896.26,-302.11 1786.59,-266.57"/>
<polygon fill="black" stroke="black" points="1787.37,-263.15 1776.78,-263.39 1785.21,-269.8 1787.37,-263.15"/>
</g>
<!-- Prod_transport_prod -->
<g id="node28" class="node">
<title>Prod_transport_prod</title>
<g id="a_node28"><a xlink:href="Prod.html#transport_prod" xlink:title="transport_prod">
<ellipse fill="#f070d1" stroke="black" cx="564" cy="-1265.83" rx="80.68" ry="18"/>
<ellipse fill="none" stroke="black" cx="564" cy="-1265.83" rx="84.68" ry="22"/>
<ellipse fill="none" stroke="black" cx="564" cy="-1265.83" rx="88.69" ry="26"/>
<text text-anchor="middle" x="564" y="-1262.13" font-family="Times,serif" font-size="14.00">transport_prod</text>
</a>
</g>
</g>
<!-- Prod_path_prod_V -->
<g id="node29" class="node">
<title>Prod_path_prod_V</title>
<g id="a_node29"><a xlink:href="Prod.html#path_prod_V" xlink:title="path_prod_V">
<ellipse fill="#f070d1" stroke="black" cx="1216" cy="-437.83" rx="68.46" ry="18"/>
<ellipse fill="none" stroke="black" cx="1216" cy="-437.83" rx="72.48" ry="22"/>
<ellipse fill="none" stroke="black" cx="1216" cy="-437.83" rx="76.49" ry="26"/>
<text text-anchor="middle" x="1216" y="-434.13" font-family="Times,serif" font-size="14.00">path_prod_V</text>
</a>
</g>
</g>
<!-- Prod_path_prod_V&#45;&gt;Prod_path_prod -->
<g id="edge23" class="edge">
<title>Prod_path_prod_V&#45;&gt;Prod_path_prod</title>
<path fill="none" stroke="black" d="M1267.48,-418.48C1369.19,-382.24 1594.44,-301.98 1691.75,-267.31"/>
<polygon fill="black" stroke="black" points="1693.06,-270.55 1701.31,-263.9 1690.71,-263.96 1693.06,-270.55"/>
</g>
<!-- Prod_path_prod_pp_p -->
<g id="node30" class="node">
<title>Prod_path_prod_pp_p</title>
<g id="a_node30"><a xlink:href="Prod.html#path_prod_pp_p" xlink:title="path_prod_pp_p">
<ellipse fill="#f070d1" stroke="black" cx="842" cy="-644.83" rx="83.7" ry="18"/>
<ellipse fill="none" stroke="black" cx="842" cy="-644.83" rx="87.69" ry="22"/>
<ellipse fill="none" stroke="black" cx="842" cy="-644.83" rx="91.69" ry="26"/>
<text text-anchor="middle" x="842" y="-641.13" font-family="Times,serif" font-size="14.00">path_prod_pp_p</text>
</a>
</g>
</g>
<!-- Prod_path_prod_pp -->
<g id="node31" class="node">
<title>Prod_path_prod_pp</title>
<g id="a_node31"><a xlink:href="Prod.html#path_prod_pp" xlink:title="path_prod_pp">
<ellipse fill="#f070d1" stroke="black" cx="842" cy="-437.83" rx="73.39" ry="18"/>
<text text-anchor="middle" x="842" y="-434.13" font-family="Times,serif" font-size="14.00">path_prod_pp</text>
</a>
</g>
</g>
<!-- Prod_path_prod_pp_p&#45;&gt;Prod_path_prod_pp -->
<g id="edge24" class="edge">
<title>Prod_path_prod_pp_p&#45;&gt;Prod_path_prod_pp</title>
<path fill="none" stroke="black" d="M842,-618.69C842,-580 842,-506.17 842,-466.19"/>
<polygon fill="black" stroke="black" points="845.5,-466.09 842,-456.09 838.5,-466.09 845.5,-466.09"/>
</g>
<!-- Prod_path_prod_pp&#45;&gt;Prod_path_prod -->
<g id="edge25" class="edge">
<title>Prod_path_prod_pp&#45;&gt;Prod_path_prod</title>
<path fill="none" stroke="black" d="M884.86,-423.05C897.7,-419.16 911.86,-415.1 925,-411.83 1203.96,-342.37 1542.69,-283.26 1677.98,-260.66"/>
<polygon fill="black" stroke="black" points="1678.85,-264.06 1688.14,-258.96 1677.7,-257.15 1678.85,-264.06"/>
</g>
<!-- Prod_isequiv_path_prod -->
<g id="node33" class="node">
<title>Prod_isequiv_path_prod</title>
<g id="a_node33"><a xlink:href="Prod.html#isequiv_path_prod" xlink:title="isequiv_path_prod">
<ellipse fill="#f070d1" stroke="black" cx="1462" cy="-644.83" rx="94.78" ry="18"/>
<text text-anchor="middle" x="1462" y="-641.13" font-family="Times,serif" font-size="14.00">isequiv_path_prod</text>
</a>
</g>
</g>
<!-- Prod_equiv_path_prod&#45;&gt;Prod_isequiv_path_prod -->
<g id="edge26" class="edge">
<title>Prod_equiv_path_prod&#45;&gt;Prod_isequiv_path_prod</title>
<path fill="none" stroke="black" d="M1615.05,-833.7C1585.5,-797.43 1516.53,-712.76 1482.18,-670.6"/>
<polygon fill="black" stroke="black" points="1484.82,-668.3 1475.79,-662.76 1479.4,-672.72 1484.82,-668.3"/>
</g>
<!-- Prod_eta_path_prod -->
<g id="node38" class="node">
<title>Prod_eta_path_prod</title>
<g id="a_node38"><a xlink:href="Prod.html#eta_path_prod" xlink:title="eta_path_prod">
<ellipse fill="#f070d1" stroke="black" cx="1387" cy="-437.83" rx="76.89" ry="18"/>
<text text-anchor="middle" x="1387" y="-434.13" font-family="Times,serif" font-size="14.00">eta_path_prod</text>
</a>
</g>
</g>
<!-- Prod_isequiv_path_prod&#45;&gt;Prod_eta_path_prod -->
<g id="edge27" class="edge">
<title>Prod_isequiv_path_prod&#45;&gt;Prod_eta_path_prod</title>
<path fill="none" stroke="black" d="M1455.73,-626.7C1442.66,-590.98 1412.41,-508.29 1396.77,-465.52"/>
<polygon fill="black" stroke="black" points="1400.02,-464.24 1393.3,-456.05 1393.45,-466.64 1400.02,-464.24"/>
</g>
<!-- Prod_ap_snd_path_prod -->
<g id="node40" class="node">
<title>Prod_ap_snd_path_prod</title>
<g id="a_node40"><a xlink:href="Prod.html#ap_snd_path_prod" xlink:title="ap_snd_path_prod">
<ellipse fill="#f070d1" stroke="black" cx="1028" cy="-437.83" rx="94.48" ry="18"/>
<text text-anchor="middle" x="1028" y="-434.13" font-family="Times,serif" font-size="14.00">ap_snd_path_prod</text>
</a>
</g>
</g>
<!-- Prod_isequiv_path_prod&#45;&gt;Prod_ap_snd_path_prod -->
<g id="edge28" class="edge">
<title>Prod_isequiv_path_prod&#45;&gt;Prod_ap_snd_path_prod</title>
<path fill="none" stroke="black" d="M1428.31,-627.91C1350.27,-591.05 1157.24,-499.87 1070.92,-459.1"/>
<polygon fill="black" stroke="black" points="1072.21,-455.84 1061.67,-454.73 1069.22,-462.17 1072.21,-455.84"/>
</g>
<!-- Prod_ap_fst_path_prod -->
<g id="node42" class="node">
<title>Prod_ap_fst_path_prod</title>
<g id="a_node42"><a xlink:href="Prod.html#ap_fst_path_prod" xlink:title="ap_fst_path_prod">
<ellipse fill="#f070d1" stroke="black" cx="1571" cy="-437.83" rx="89.88" ry="18"/>
<text text-anchor="middle" x="1571" y="-434.13" font-family="Times,serif" font-size="14.00">ap_fst_path_prod</text>
</a>
</g>
</g>
<!-- Prod_isequiv_path_prod&#45;&gt;Prod_ap_fst_path_prod -->
<g id="edge29" class="edge">
<title>Prod_isequiv_path_prod&#45;&gt;Prod_ap_fst_path_prod</title>
<path fill="none" stroke="black" d="M1471.11,-626.7C1490.23,-590.74 1534.66,-507.17 1557.26,-464.66"/>
<polygon fill="black" stroke="black" points="1560.39,-466.23 1562,-455.76 1554.21,-462.94 1560.39,-466.23"/>
</g>
<!-- Prod_isequiv_path_prod&#45;&gt;Prod_path_prod_ -->
<g id="edge30" class="edge">
<title>Prod_isequiv_path_prod&#45;&gt;Prod_path_prod_</title>
<path fill="none" stroke="black" d="M1484.59,-627.05C1534.2,-590.2 1652.7,-502.18 1708.27,-460.9"/>
<polygon fill="black" stroke="black" points="1710.69,-463.47 1716.63,-454.7 1706.52,-457.85 1710.69,-463.47"/>
</g>
<!-- Prod_transport_path_prod_ -->
<g id="node34" class="node">
<title>Prod_transport_path_prod_</title>
<g id="a_node34"><a xlink:href="Prod.html#transport_path_prod'" xlink:title="transport_path_prod&#39;">
<ellipse fill="#f070d1" stroke="black" cx="2070" cy="-644.83" rx="108.58" ry="18"/>
<ellipse fill="none" stroke="black" cx="2070" cy="-644.83" rx="112.58" ry="22"/>
<ellipse fill="none" stroke="black" cx="2070" cy="-644.83" rx="116.58" ry="26"/>
<text text-anchor="middle" x="2070" y="-641.13" font-family="Times,serif" font-size="14.00">transport_path_prod&#39;</text>
</a>
</g>
</g>
<!-- Prod_transport_path_prod -->
<g id="node35" class="node">
<title>Prod_transport_path_prod</title>
<g id="a_node35"><a xlink:href="Prod.html#transport_path_prod" xlink:title="transport_path_prod">
<ellipse fill="#f070d1" stroke="black" cx="2102" cy="-437.83" rx="105.88" ry="18"/>
<text text-anchor="middle" x="2102" y="-434.13" font-family="Times,serif" font-size="14.00">transport_path_prod</text>
</a>
</g>
</g>
<!-- Prod_transport_path_prod_&#45;&gt;Prod_transport_path_prod -->
<g id="edge31" class="edge">
<title>Prod_transport_path_prod_&#45;&gt;Prod_transport_path_prod</title>
<path fill="none" stroke="black" d="M2073.92,-618.69C2079.96,-580 2091.49,-506.17 2097.73,-466.19"/>
<polygon fill="black" stroke="black" points="2101.22,-466.51 2099.3,-456.09 2094.3,-465.43 2101.22,-466.51"/>
</g>
<!-- Prod_transport_path_prod_&#45;&gt;Prod_path_prod_ -->
<g id="edge32" class="edge">
<title>Prod_transport_path_prod_&#45;&gt;Prod_path_prod_</title>
<path fill="none" stroke="black" d="M2031.59,-620.11C1966.03,-579.63 1833.6,-497.86 1771.53,-459.53"/>
<polygon fill="black" stroke="black" points="1773.25,-456.48 1762.9,-454.2 1769.57,-462.43 1773.25,-456.48"/>
</g>
<!-- Prod_transport_path_prod_uncurried -->
<g id="node36" class="node">
<title>Prod_transport_path_prod_uncurried</title>
<g id="a_node36"><a xlink:href="Prod.html#transport_path_prod_uncurried" xlink:title="transport_path_prod_uncurried">
<ellipse fill="#f070d1" stroke="black" cx="2036" cy="-249.83" rx="155.17" ry="18"/>
<text text-anchor="middle" x="2036" y="-246.13" font-family="Times,serif" font-size="14.00">transport_path_prod_uncurried</text>
</a>
</g>
</g>
<!-- Prod_transport_path_prod&#45;&gt;Prod_transport_path_prod_uncurried -->
<g id="edge33" class="edge">
<title>Prod_transport_path_prod&#45;&gt;Prod_transport_path_prod_uncurried</title>
<path fill="none" stroke="black" d="M2095.91,-419.66C2084.37,-387.13 2059.24,-316.31 2045.48,-277.53"/>
<polygon fill="black" stroke="black" points="2048.72,-276.2 2042.08,-267.95 2042.12,-278.54 2048.72,-276.2"/>
</g>
<!-- Prod_transport_path_prod&#45;&gt;Prod_path_prod -->
<g id="edge34" class="edge">
<title>Prod_transport_path_prod&#45;&gt;Prod_path_prod</title>
<path fill="none" stroke="black" d="M2070.33,-420.64C2003.46,-386.47 1848.07,-307.07 1775.99,-270.24"/>
<polygon fill="black" stroke="black" points="1777.29,-266.97 1766.8,-265.54 1774.11,-273.21 1777.29,-266.97"/>
</g>
<!-- Prod_path_prod_uncurried -->
<g id="node45" class="node">
<title>Prod_path_prod_uncurried</title>
<g id="a_node45"><a xlink:href="Prod.html#path_prod_uncurried" xlink:title="path_prod_uncurried">
<ellipse fill="#f070d1" stroke="black" cx="1887" cy="-79.83" rx="107.48" ry="18"/>
<text text-anchor="middle" x="1887" y="-76.13" font-family="Times,serif" font-size="14.00">path_prod_uncurried</text>
</a>
</g>
</g>
<!-- Prod_transport_path_prod_uncurried&#45;&gt;Prod_path_prod_uncurried -->
<g id="edge35" class="edge">
<title>Prod_transport_path_prod_uncurried&#45;&gt;Prod_path_prod_uncurried</title>
<path fill="none" stroke="black" d="M2020.89,-231.79C1994.45,-201.98 1939.7,-140.24 1909.03,-105.67"/>
<polygon fill="black" stroke="black" points="1911.4,-103.06 1902.15,-97.9 1906.16,-107.71 1911.4,-103.06"/>
</g>
<!-- Prod_ap_path_prod -->
<g id="node37" class="node">
<title>Prod_ap_path_prod</title>
<g id="a_node37"><a xlink:href="Prod.html#ap_path_prod" xlink:title="ap_path_prod">
<ellipse fill="#f070d1" stroke="black" cx="1897" cy="-437.83" rx="73.39" ry="18"/>
<ellipse fill="none" stroke="black" cx="1897" cy="-437.83" rx="77.39" ry="22"/>
<ellipse fill="none" stroke="black" cx="1897" cy="-437.83" rx="81.39" ry="26"/>
<text text-anchor="middle" x="1897" y="-434.13" font-family="Times,serif" font-size="14.00">ap_path_prod</text>
</a>
</g>
</g>
<!-- Prod_ap_path_prod&#45;&gt;Prod_path_prod -->
<g id="edge36" class="edge">
<title>Prod_ap_path_prod&#45;&gt;Prod_path_prod</title>
<path fill="none" stroke="black" d="M1876.21,-412.51C1845.82,-376.96 1789.56,-311.14 1759.03,-275.43"/>
<polygon fill="black" stroke="black" points="1761.37,-272.78 1752.21,-267.45 1756.05,-277.33 1761.37,-272.78"/>
</g>
<!-- Prod_eta_path_prod&#45;&gt;Prod_path_prod -->
<g id="edge37" class="edge">
<title>Prod_eta_path_prod&#45;&gt;Prod_path_prod</title>
<path fill="none" stroke="black" d="M1416.62,-421.13C1480.53,-387.27 1631.18,-307.43 1701.13,-270.36"/>
<polygon fill="black" stroke="black" points="1702.85,-273.41 1710.05,-265.64 1699.57,-267.23 1702.85,-273.41"/>
</g>
<!-- Prod_ap_snd_path_prod_ -->
<g id="node39" class="node">
<title>Prod_ap_snd_path_prod_</title>
<g id="a_node39"><a xlink:href="Prod.html#ap_snd_path_prod'" xlink:title="ap_snd_path_prod&#39;">
<ellipse fill="#f070d1" stroke="black" cx="1091" cy="-644.83" rx="96.7" ry="18"/>
<ellipse fill="none" stroke="black" cx="1091" cy="-644.83" rx="100.69" ry="22"/>
<ellipse fill="none" stroke="black" cx="1091" cy="-644.83" rx="104.68" ry="26"/>
<text text-anchor="middle" x="1091" y="-641.13" font-family="Times,serif" font-size="14.00">ap_snd_path_prod&#39;</text>
</a>
</g>
</g>
<!-- Prod_ap_snd_path_prod_&#45;&gt;Prod_ap_snd_path_prod -->
<g id="edge38" class="edge">
<title>Prod_ap_snd_path_prod_&#45;&gt;Prod_ap_snd_path_prod</title>
<path fill="none" stroke="black" d="M1083.27,-618.69C1071.33,-579.82 1048.48,-505.48 1036.24,-465.63"/>
<polygon fill="black" stroke="black" points="1039.51,-464.35 1033.22,-455.82 1032.81,-466.41 1039.51,-464.35"/>
</g>
<!-- Prod_ap_snd_path_prod_&#45;&gt;Prod_path_prod_ -->
<g id="edge39" class="edge">
<title>Prod_ap_snd_path_prod_&#45;&gt;Prod_path_prod_</title>
<path fill="none" stroke="black" d="M1156.91,-624.53C1264.73,-592.69 1485.32,-526.44 1670,-463.83 1677.37,-461.33 1685.15,-458.58 1692.71,-455.84"/>
<polygon fill="black" stroke="black" points="1693.93,-459.12 1702.12,-452.4 1691.53,-452.55 1693.93,-459.12"/>
</g>
<!-- Prod_ap_snd_path_prod&#45;&gt;Prod_path_prod -->
<g id="edge40" class="edge">
<title>Prod_ap_snd_path_prod&#45;&gt;Prod_path_prod</title>
<path fill="none" stroke="black" d="M1081.08,-422.92C1212.86,-388.4 1553.81,-299.08 1685.25,-264.64"/>
<polygon fill="black" stroke="black" points="1686.3,-267.99 1695.09,-262.07 1684.53,-261.22 1686.3,-267.99"/>
</g>
<!-- Prod_ap_fst_path_prod_ -->
<g id="node41" class="node">
<title>Prod_ap_fst_path_prod_</title>
<g id="a_node41"><a xlink:href="Prod.html#ap_fst_path_prod'" xlink:title="ap_fst_path_prod&#39;">
<ellipse fill="#f070d1" stroke="black" cx="1675" cy="-644.83" rx="92.1" ry="18"/>
<ellipse fill="none" stroke="black" cx="1675" cy="-644.83" rx="96.09" ry="22"/>
<ellipse fill="none" stroke="black" cx="1675" cy="-644.83" rx="100.08" ry="26"/>
<text text-anchor="middle" x="1675" y="-641.13" font-family="Times,serif" font-size="14.00">ap_fst_path_prod&#39;</text>
</a>
</g>
</g>
<!-- Prod_ap_fst_path_prod_&#45;&gt;Prod_ap_fst_path_prod -->
<g id="edge41" class="edge">
<title>Prod_ap_fst_path_prod_&#45;&gt;Prod_ap_fst_path_prod</title>
<path fill="none" stroke="black" d="M1662.25,-618.69C1642.45,-579.66 1604.49,-504.85 1584.34,-465.12"/>
<polygon fill="black" stroke="black" points="1587.27,-463.15 1579.62,-455.82 1581.02,-466.32 1587.27,-463.15"/>
</g>
<!-- Prod_ap_fst_path_prod_&#45;&gt;Prod_path_prod_ -->
<g id="edge42" class="edge">
<title>Prod_ap_fst_path_prod_&#45;&gt;Prod_path_prod_</title>
<path fill="none" stroke="black" d="M1682.73,-618.69C1694.67,-579.82 1717.52,-505.48 1729.76,-465.63"/>
<polygon fill="black" stroke="black" points="1733.19,-466.41 1732.78,-455.82 1726.49,-464.35 1733.19,-466.41"/>
</g>
<!-- Prod_ap_fst_path_prod&#45;&gt;Prod_path_prod -->
<g id="edge43" class="edge">
<title>Prod_ap_fst_path_prod&#45;&gt;Prod_path_prod</title>
<path fill="none" stroke="black" d="M1586.11,-419.99C1615.8,-386.93 1681.81,-313.41 1716.2,-275.1"/>
<polygon fill="black" stroke="black" points="1718.96,-277.27 1723.04,-267.49 1713.75,-272.59 1718.96,-277.27"/>
</g>
<!-- Prod_path_prod_&#45;&gt;Prod_path_prod -->
<g id="edge44" class="edge">
<title>Prod_path_prod_&#45;&gt;Prod_path_prod</title>
<path fill="none" stroke="black" d="M1738,-419.66C1738,-387.27 1738,-316.91 1738,-278.03"/>
<polygon fill="black" stroke="black" points="1741.5,-277.95 1738,-267.95 1734.5,-277.95 1741.5,-277.95"/>
</g>
<!-- Prod_path_prod&#45;&gt;Prod_path_prod_uncurried -->
<g id="edge45" class="edge">
<title>Prod_path_prod&#45;&gt;Prod_path_prod_uncurried</title>
<path fill="none" stroke="black" d="M1752.83,-232.1C1779.2,-202.37 1834.37,-140.17 1865.11,-105.51"/>
<polygon fill="black" stroke="black" points="1867.99,-107.53 1872.01,-97.73 1862.75,-102.89 1867.99,-107.53"/>
</g>
<!-- Prod_eta_prod -->
<g id="node46" class="node">
<title>Prod_eta_prod</title>
<g id="a_node46"><a xlink:href="Prod.html#eta_prod" xlink:title="eta_prod">
<ellipse fill="#f070d1" stroke="black" cx="398" cy="-1265.83" rx="51.21" ry="18"/>
<ellipse fill="none" stroke="black" cx="398" cy="-1265.83" rx="55.2" ry="22"/>
<ellipse fill="none" stroke="black" cx="398" cy="-1265.83" rx="59.19" ry="26"/>
<text text-anchor="middle" x="398" y="-1262.13" font-family="Times,serif" font-size="14.00">eta_prod</text>
</a>
</g>
</g>
<!-- Prod_pack_prod -->
<g id="node47" class="node">
<title>Prod_pack_prod</title>
<g id="a_node47"><a xlink:href="Prod.html#pack_prod" xlink:title="pack_prod">
<ellipse fill="#f070d1" stroke="black" cx="255" cy="-1265.83" rx="57.71" ry="18"/>
<ellipse fill="none" stroke="black" cx="255" cy="-1265.83" rx="61.7" ry="22"/>
<ellipse fill="none" stroke="black" cx="255" cy="-1265.83" rx="65.69" ry="26"/>
<text text-anchor="middle" x="255" y="-1262.13" font-family="Times,serif" font-size="14.00">pack_prod</text>
</a>
</g>
</g>
<!-- Prod_unpack_prod -->
<g id="node48" class="node">
<title>Prod_unpack_prod</title>
<g id="a_node48"><a xlink:href="Prod.html#unpack_prod" xlink:title="unpack_prod">
<ellipse fill="#f070d1" stroke="black" cx="94" cy="-1265.83" rx="69.58" ry="18"/>
<ellipse fill="none" stroke="black" cx="94" cy="-1265.83" rx="73.59" ry="22"/>
<ellipse fill="none" stroke="black" cx="94" cy="-1265.83" rx="77.59" ry="26"/>
<text text-anchor="middle" x="94" y="-1262.13" font-family="Times,serif" font-size="14.00">unpack_prod</text>
</a>
</g>
</g>
</g>
</svg>
