<?xml version="1.0" encoding="UTF-8" standalone="no"?>
<!DOCTYPE svg PUBLIC "-//W3C//DTD SVG 1.1//EN"
 "http://www.w3.org/Graphics/SVG/1.1/DTD/svg11.dtd">
<!-- Generated by graphviz version 2.43.0 (0)
 -->
<!-- Title: HoTT_Algebra_Universal_Algebra Pages: 1 -->
<svg width="1182pt" height="595pt"
 viewBox="0.00 0.00 1182.00 595.00" xmlns="http://www.w3.org/2000/svg" xmlns:xlink="http://www.w3.org/1999/xlink">
<g id="graph0" class="graph" transform="scale(1 1) rotate(0) translate(4 591)">
<title>HoTT_Algebra_Universal_Algebra</title>
<polygon fill="white" stroke="transparent" points="-4,4 -4,-591 1178,-591 1178,4 -4,4"/>
<g id="clust1" class="cluster">
<title>cluster_Algebra</title>
<polygon fill="#ffffc3" stroke="black" points="10.93,-8 10.93,-579 1163.07,-579 1163.07,-8 10.93,-8"/>
<text text-anchor="middle" x="46.93" y="-563.8" font-family="Times,serif" font-size="14.00">Algebra</text>
</g>
<!-- Algebra_path_path_algebra -->
<g id="node1" class="node">
<title>Algebra_path_path_algebra</title>
<g id="a_node1"><a xlink:href="Algebra.html#path_path_algebra" xlink:title="path_path_algebra">
<ellipse fill="#f070d1" stroke="black" cx="976.78" cy="-522" rx="96.7" ry="18"/>
<ellipse fill="none" stroke="black" cx="976.78" cy="-522" rx="100.69" ry="22"/>
<ellipse fill="none" stroke="black" cx="976.78" cy="-522" rx="104.68" ry="26"/>
<text text-anchor="middle" x="976.78" y="-518.3" font-family="Times,serif" font-size="14.00">path_path_algebra</text>
</a>
</g>
</g>
<!-- Algebra_path_path_algebra_issig -->
<g id="node2" class="node">
<title>Algebra_path_path_algebra_issig</title>
<g id="a_node2"><a xlink:href="Algebra.html#path_path_algebra_issig" xlink:title="path_path_algebra_issig">
<ellipse fill="#f070d1" stroke="black" cx="978.78" cy="-442" rx="122.38" ry="18"/>
<text text-anchor="middle" x="978.78" y="-438.3" font-family="Times,serif" font-size="14.00">path_path_algebra_issig</text>
</a>
</g>
</g>
<!-- Algebra_path_path_algebra&#45;&gt;Algebra_path_path_algebra_issig -->
<g id="edge1" class="edge">
<title>Algebra_path_path_algebra&#45;&gt;Algebra_path_path_algebra_issig</title>
<path fill="none" stroke="black" d="M977.42,-495.89C977.63,-487.84 977.86,-478.88 978.07,-470.66"/>
<polygon fill="black" stroke="black" points="981.57,-470.5 978.33,-460.41 974.57,-470.32 981.57,-470.5"/>
</g>
<!-- Algebra_carriers -->
<g id="node9" class="node">
<title>Algebra_carriers</title>
<g id="a_node9"><a xlink:href="Algebra.html#carriers" xlink:title="carriers">
<ellipse fill="#f070d1" stroke="black" cx="721.78" cy="-442" rx="47.39" ry="18"/>
<text text-anchor="middle" x="721.78" y="-438.3" font-family="Times,serif" font-size="14.00">carriers</text>
</a>
</g>
</g>
<!-- Algebra_path_path_algebra&#45;&gt;Algebra_carriers -->
<g id="edge2" class="edge">
<title>Algebra_path_path_algebra&#45;&gt;Algebra_carriers</title>
<path fill="none" stroke="black" d="M912.43,-501.32C867.18,-487.48 807.72,-469.29 767.32,-456.93"/>
<polygon fill="black" stroke="black" points="768.32,-453.58 757.74,-454 766.27,-460.27 768.32,-453.58"/>
</g>
<!-- Algebra_issig_algebra -->
<g id="node5" class="node">
<title>Algebra_issig_algebra</title>
<g id="a_node5"><a xlink:href="Algebra.html#issig_algebra" xlink:title="issig_algebra">
<ellipse fill="#f070d1" stroke="black" cx="978.78" cy="-362" rx="71.49" ry="18"/>
<text text-anchor="middle" x="978.78" y="-358.3" font-family="Times,serif" font-size="14.00">issig_algebra</text>
</a>
</g>
</g>
<!-- Algebra_path_path_algebra_issig&#45;&gt;Algebra_issig_algebra -->
<g id="edge3" class="edge">
<title>Algebra_path_path_algebra_issig&#45;&gt;Algebra_issig_algebra</title>
<path fill="none" stroke="black" d="M978.78,-423.69C978.78,-413.89 978.78,-401.42 978.78,-390.33"/>
<polygon fill="black" stroke="black" points="982.28,-390.26 978.78,-380.26 975.28,-390.26 982.28,-390.26"/>
</g>
<!-- Algebra_path_ap_carriers_path_algebra -->
<g id="node3" class="node">
<title>Algebra_path_ap_carriers_path_algebra</title>
<g id="a_node3"><a xlink:href="Algebra.html#path_ap_carriers_path_algebra" xlink:title="path_ap_carriers_path_algebra">
<ellipse fill="#f070d1" stroke="black" cx="587.78" cy="-522" rx="153.28" ry="18"/>
<ellipse fill="none" stroke="black" cx="587.78" cy="-522" rx="157.28" ry="22"/>
<ellipse fill="none" stroke="black" cx="587.78" cy="-522" rx="161.27" ry="26"/>
<text text-anchor="middle" x="587.78" y="-518.3" font-family="Times,serif" font-size="14.00">path_ap_carriers_path_algebra</text>
</a>
</g>
</g>
<!-- Algebra_path_algebra -->
<g id="node4" class="node">
<title>Algebra_path_algebra</title>
<g id="a_node4"><a xlink:href="Algebra.html#path_algebra" xlink:title="path_algebra">
<ellipse fill="#f070d1" stroke="black" cx="534.78" cy="-442" rx="71.49" ry="18"/>
<text text-anchor="middle" x="534.78" y="-438.3" font-family="Times,serif" font-size="14.00">path_algebra</text>
</a>
</g>
</g>
<!-- Algebra_path_ap_carriers_path_algebra&#45;&gt;Algebra_path_algebra -->
<g id="edge4" class="edge">
<title>Algebra_path_ap_carriers_path_algebra&#45;&gt;Algebra_path_algebra</title>
<path fill="none" stroke="black" d="M570.71,-495.89C564.72,-487.07 557.99,-477.17 551.99,-468.33"/>
<polygon fill="black" stroke="black" points="554.79,-466.24 546.28,-459.93 549,-470.17 554.79,-466.24"/>
</g>
<!-- Algebra_path_ap_carriers_path_algebra&#45;&gt;Algebra_carriers -->
<g id="edge5" class="edge">
<title>Algebra_path_ap_carriers_path_algebra&#45;&gt;Algebra_carriers</title>
<path fill="none" stroke="black" d="M629.44,-496.75C648.28,-485.78 670.26,-472.99 688.04,-462.63"/>
<polygon fill="black" stroke="black" points="690.04,-465.52 696.92,-457.47 686.52,-459.47 690.04,-465.52"/>
</g>
<!-- Algebra_path_algebra&#45;&gt;Algebra_issig_algebra -->
<g id="edge6" class="edge">
<title>Algebra_path_algebra&#45;&gt;Algebra_issig_algebra</title>
<path fill="none" stroke="black" d="M592.04,-431.22C653.54,-420.68 754.11,-403.36 840.78,-388 864.27,-383.84 890,-379.2 912.81,-375.06"/>
<polygon fill="black" stroke="black" points="913.51,-378.49 922.73,-373.25 912.26,-371.6 913.51,-378.49"/>
</g>
<!-- Algebra_SigAlgebra -->
<g id="node6" class="node">
<title>Algebra_SigAlgebra</title>
<g id="a_node6"><a xlink:href="Algebra.html#SigAlgebra" xlink:title="SigAlgebra">
<ellipse fill="#f070d1" stroke="black" cx="1067.78" cy="-282" rx="61.99" ry="18"/>
<text text-anchor="middle" x="1067.78" y="-278.3" font-family="Times,serif" font-size="14.00">SigAlgebra</text>
</a>
</g>
</g>
<!-- Algebra_issig_algebra&#45;&gt;Algebra_SigAlgebra -->
<g id="edge7" class="edge">
<title>Algebra_issig_algebra&#45;&gt;Algebra_SigAlgebra</title>
<path fill="none" stroke="black" d="M997.65,-344.46C1010.36,-333.32 1027.3,-318.47 1041.35,-306.16"/>
<polygon fill="black" stroke="black" points="1044.02,-308.47 1049.23,-299.25 1039.41,-303.21 1044.02,-308.47"/>
</g>
<!-- Algebra_Build_Algebra -->
<g id="node10" class="node">
<title>Algebra_Build_Algebra</title>
<g id="a_node10"><a xlink:href="Algebra.html#Build_Algebra" xlink:title="Build_Algebra">
<ellipse fill="#7faaff" stroke="black" cx="855.78" cy="-282" rx="75.29" ry="18"/>
<text text-anchor="middle" x="855.78" y="-278.3" font-family="Times,serif" font-size="14.00">Build_Algebra</text>
</a>
</g>
</g>
<!-- Algebra_issig_algebra&#45;&gt;Algebra_Build_Algebra -->
<g id="edge8" class="edge">
<title>Algebra_issig_algebra&#45;&gt;Algebra_Build_Algebra</title>
<path fill="none" stroke="black" d="M953.59,-345.03C935.22,-333.38 910.12,-317.46 889.95,-304.67"/>
<polygon fill="black" stroke="black" points="891.67,-301.62 881.35,-299.22 887.92,-307.53 891.67,-301.62"/>
</g>
<!-- Algebra_Algebra -->
<g id="node11" class="node">
<title>Algebra_Algebra</title>
<g id="a_node11"><a xlink:href="Algebra.html#Algebra" xlink:title="Algebra">
<ellipse fill="#e2cdfa" stroke="black" cx="663.78" cy="-282" rx="46.59" ry="18"/>
<text text-anchor="middle" x="663.78" y="-278.3" font-family="Times,serif" font-size="14.00">Algebra</text>
</a>
</g>
</g>
<!-- Algebra_issig_algebra&#45;&gt;Algebra_Algebra -->
<g id="edge9" class="edge">
<title>Algebra_issig_algebra&#45;&gt;Algebra_Algebra</title>
<path fill="none" stroke="black" d="M929.56,-348.81C870.18,-334.11 771.01,-309.55 712.06,-294.96"/>
<polygon fill="black" stroke="black" points="712.79,-291.53 702.24,-292.53 711.11,-298.33 712.79,-291.53"/>
</g>
<!-- Algebra_Operation -->
<g id="node12" class="node">
<title>Algebra_Operation</title>
<g id="a_node12"><a xlink:href="Algebra.html#Operation" xlink:title="Operation">
<ellipse fill="#f070d1" stroke="black" cx="1073.78" cy="-202" rx="57.39" ry="18"/>
<text text-anchor="middle" x="1073.78" y="-198.3" font-family="Times,serif" font-size="14.00">Operation</text>
</a>
</g>
</g>
<!-- Algebra_SigAlgebra&#45;&gt;Algebra_Operation -->
<g id="edge10" class="edge">
<title>Algebra_SigAlgebra&#45;&gt;Algebra_Operation</title>
<path fill="none" stroke="black" d="M1069.11,-263.69C1069.86,-253.89 1070.82,-241.42 1071.67,-230.33"/>
<polygon fill="black" stroke="black" points="1075.17,-230.5 1072.45,-220.26 1068.19,-229.96 1075.17,-230.5"/>
</g>
<!-- Algebra_hset_algebra -->
<g id="node7" class="node">
<title>Algebra_hset_algebra</title>
<g id="a_node7"><a xlink:href="Algebra.html#hset_algebra" xlink:title="hset_algebra">
<ellipse fill="#f070d1" stroke="black" cx="512.78" cy="-362" rx="70.37" ry="18"/>
<ellipse fill="none" stroke="black" cx="512.78" cy="-362" rx="74.38" ry="22"/>
<ellipse fill="none" stroke="black" cx="512.78" cy="-362" rx="78.39" ry="26"/>
<text text-anchor="middle" x="512.78" y="-358.3" font-family="Times,serif" font-size="14.00">hset_algebra</text>
</a>
</g>
</g>
<!-- Algebra_hset_algebra&#45;&gt;Algebra_Algebra -->
<g id="edge11" class="edge">
<title>Algebra_hset_algebra&#45;&gt;Algebra_Algebra</title>
<path fill="none" stroke="black" d="M554.04,-339.69C577.11,-327.77 605.6,-313.05 627.77,-301.6"/>
<polygon fill="black" stroke="black" points="629.57,-304.61 636.84,-296.91 626.35,-298.39 629.57,-304.61"/>
</g>
<!-- Algebra_operations -->
<g id="node8" class="node">
<title>Algebra_operations</title>
<g id="a_node8"><a xlink:href="Algebra.html#operations" xlink:title="operations">
<ellipse fill="#f070d1" stroke="black" cx="763.78" cy="-362" rx="59.61" ry="18"/>
<ellipse fill="none" stroke="black" cx="763.78" cy="-362" rx="63.6" ry="22"/>
<ellipse fill="none" stroke="black" cx="763.78" cy="-362" rx="67.59" ry="26"/>
<text text-anchor="middle" x="763.78" y="-358.3" font-family="Times,serif" font-size="14.00">operations</text>
</a>
</g>
</g>
<!-- Algebra_operations&#45;&gt;Algebra_Algebra -->
<g id="edge12" class="edge">
<title>Algebra_operations&#45;&gt;Algebra_Algebra</title>
<path fill="none" stroke="black" d="M734.85,-338.44C721.19,-327.78 704.96,-315.12 691.46,-304.59"/>
<polygon fill="black" stroke="black" points="693.49,-301.74 683.45,-298.35 689.18,-307.26 693.49,-301.74"/>
</g>
<!-- Algebra_carriers&#45;&gt;Algebra_Algebra -->
<g id="edge13" class="edge">
<title>Algebra_carriers&#45;&gt;Algebra_Algebra</title>
<path fill="none" stroke="black" d="M708.39,-424.25C701.02,-414.25 692.27,-401 686.78,-388 676.15,-362.85 670.16,-332.16 666.98,-310.47"/>
<polygon fill="black" stroke="black" points="670.41,-309.75 665.59,-300.32 663.47,-310.7 670.41,-309.75"/>
</g>
<!-- Algebra_Build_Algebra&#45;&gt;Algebra_Operation -->
<g id="edge14" class="edge">
<title>Algebra_Build_Algebra&#45;&gt;Algebra_Operation</title>
<path fill="none" stroke="black" d="M895.76,-266.69C933.04,-253.35 988.62,-233.47 1027.74,-219.47"/>
<polygon fill="black" stroke="black" points="1029.07,-222.71 1037.31,-216.05 1026.71,-216.12 1029.07,-222.71"/>
</g>
<!-- Algebra_Algebra&#45;&gt;Algebra_Operation -->
<g id="edge15" class="edge">
<title>Algebra_Algebra&#45;&gt;Algebra_Operation</title>
<path fill="none" stroke="black" d="M705.47,-273.66C761.69,-263.68 864.91,-245.13 952.78,-228 974.13,-223.84 997.55,-219.05 1018.05,-214.79"/>
<polygon fill="black" stroke="black" points="1018.78,-218.21 1027.86,-212.74 1017.35,-211.36 1018.78,-218.21"/>
</g>
<!-- Algebra_Signature -->
<g id="node19" class="node">
<title>Algebra_Signature</title>
<g id="a_node19"><a xlink:href="Algebra.html#Signature" xlink:title="Signature">
<ellipse fill="#e2cdfa" stroke="black" cx="907.78" cy="-114" rx="56.59" ry="18"/>
<text text-anchor="middle" x="907.78" y="-110.3" font-family="Times,serif" font-size="14.00">Signature</text>
</a>
</g>
</g>
<!-- Algebra_Operation&#45;&gt;Algebra_Signature -->
<g id="edge16" class="edge">
<title>Algebra_Operation&#45;&gt;Algebra_Signature</title>
<path fill="none" stroke="black" d="M1045.24,-186.22C1017.6,-171.9 975.54,-150.1 945.22,-134.4"/>
<polygon fill="black" stroke="black" points="946.71,-131.23 936.22,-129.73 943.49,-137.44 946.71,-131.23"/>
</g>
<!-- Algebra_hset_symbol -->
<g id="node13" class="node">
<title>Algebra_hset_symbol</title>
<g id="a_node13"><a xlink:href="Algebra.html#hset_symbol" xlink:title="hset_symbol">
<ellipse fill="#f070d1" stroke="black" cx="867.78" cy="-202" rx="68.46" ry="18"/>
<ellipse fill="none" stroke="black" cx="867.78" cy="-202" rx="72.48" ry="22"/>
<ellipse fill="none" stroke="black" cx="867.78" cy="-202" rx="76.49" ry="26"/>
<text text-anchor="middle" x="867.78" y="-198.3" font-family="Times,serif" font-size="14.00">hset_symbol</text>
</a>
</g>
</g>
<!-- Algebra_hset_symbol&#45;&gt;Algebra_Signature -->
<g id="edge17" class="edge">
<title>Algebra_hset_symbol&#45;&gt;Algebra_Signature</title>
<path fill="none" stroke="black" d="M879.34,-176.13C884.45,-165.15 890.45,-152.25 895.62,-141.14"/>
<polygon fill="black" stroke="black" points="898.86,-142.47 899.9,-131.92 892.51,-139.51 898.86,-142.47"/>
</g>
<!-- Algebra_hset_sort -->
<g id="node14" class="node">
<title>Algebra_hset_sort</title>
<g id="a_node14"><a xlink:href="Algebra.html#hset_sort" xlink:title="hset_sort">
<ellipse fill="#f070d1" stroke="black" cx="654.78" cy="-202" rx="53.9" ry="18"/>
<ellipse fill="none" stroke="black" cx="654.78" cy="-202" rx="57.89" ry="22"/>
<ellipse fill="none" stroke="black" cx="654.78" cy="-202" rx="61.89" ry="26"/>
<text text-anchor="middle" x="654.78" y="-198.3" font-family="Times,serif" font-size="14.00">hset_sort</text>
</a>
</g>
</g>
<!-- Algebra_hset_sort&#45;&gt;Algebra_Signature -->
<g id="edge18" class="edge">
<title>Algebra_hset_sort&#45;&gt;Algebra_Signature</title>
<path fill="none" stroke="black" d="M701.77,-185.03C747.17,-169.59 815.54,-146.35 860.9,-130.93"/>
<polygon fill="black" stroke="black" points="862.15,-134.2 870.49,-127.67 859.9,-127.58 862.15,-134.2"/>
</g>
<!-- Algebra_symbol_types -->
<g id="node15" class="node">
<title>Algebra_symbol_types</title>
<g id="a_node15"><a xlink:href="Algebra.html#symbol_types" xlink:title="symbol_types">
<ellipse fill="#f070d1" stroke="black" cx="434.78" cy="-202" rx="73.39" ry="18"/>
<ellipse fill="none" stroke="black" cx="434.78" cy="-202" rx="77.39" ry="22"/>
<ellipse fill="none" stroke="black" cx="434.78" cy="-202" rx="81.39" ry="26"/>
<text text-anchor="middle" x="434.78" y="-198.3" font-family="Times,serif" font-size="14.00">symbol_types</text>
</a>
</g>
</g>
<!-- Algebra_symbol_types&#45;&gt;Algebra_Signature -->
<g id="edge19" class="edge">
<title>Algebra_symbol_types&#45;&gt;Algebra_Signature</title>
<path fill="none" stroke="black" d="M505.21,-188.93C574.98,-176.88 684.84,-157.66 779.78,-140 803.23,-135.64 829.06,-130.63 851.34,-126.25"/>
<polygon fill="black" stroke="black" points="852.17,-129.65 861.3,-124.28 850.81,-122.78 852.17,-129.65"/>
</g>
<!-- Algebra_Symbol -->
<g id="node16" class="node">
<title>Algebra_Symbol</title>
<g id="a_node16"><a xlink:href="Algebra.html#Symbol" xlink:title="Symbol">
<ellipse fill="#f070d1" stroke="black" cx="225.78" cy="-202" rx="45.49" ry="18"/>
<ellipse fill="none" stroke="black" cx="225.78" cy="-202" rx="49.49" ry="22"/>
<ellipse fill="none" stroke="black" cx="225.78" cy="-202" rx="53.49" ry="26"/>
<text text-anchor="middle" x="225.78" y="-198.3" font-family="Times,serif" font-size="14.00">Symbol</text>
</a>
</g>
</g>
<!-- Algebra_Symbol&#45;&gt;Algebra_Signature -->
<g id="edge20" class="edge">
<title>Algebra_Symbol&#45;&gt;Algebra_Signature</title>
<path fill="none" stroke="black" d="M273.02,-189.66C294.76,-184.81 320.96,-179.47 344.78,-176 536.74,-148 587.62,-166.63 779.78,-140 803.89,-136.66 830.33,-131.71 852.89,-127.1"/>
<polygon fill="black" stroke="black" points="853.88,-130.47 862.96,-125.01 852.46,-123.62 853.88,-130.47"/>
</g>
<!-- Algebra_Sort -->
<g id="node17" class="node">
<title>Algebra_Sort</title>
<g id="a_node17"><a xlink:href="Algebra.html#Sort" xlink:title="Sort">
<ellipse fill="#f070d1" stroke="black" cx="74.78" cy="-202" rx="30.58" ry="18"/>
<ellipse fill="none" stroke="black" cx="74.78" cy="-202" rx="34.59" ry="22"/>
<ellipse fill="none" stroke="black" cx="74.78" cy="-202" rx="38.59" ry="26"/>
<text text-anchor="middle" x="74.78" y="-198.3" font-family="Times,serif" font-size="14.00">Sort</text>
</a>
</g>
</g>
<!-- Algebra_Sort&#45;&gt;Algebra_Signature -->
<g id="edge21" class="edge">
<title>Algebra_Sort&#45;&gt;Algebra_Signature</title>
<path fill="none" stroke="black" d="M109.04,-189.51C125.42,-184.5 145.41,-179.08 163.78,-176 434.25,-130.65 507.69,-174.36 779.78,-140 804.03,-136.94 830.59,-132.01 853.2,-127.34"/>
<polygon fill="black" stroke="black" points="854.22,-130.7 863.29,-125.22 852.78,-123.85 854.22,-130.7"/>
</g>
<!-- Algebra_Build_Signature -->
<g id="node18" class="node">
<title>Algebra_Build_Signature</title>
<g id="a_node18"><a xlink:href="Algebra.html#Build_Signature" xlink:title="Build_Signature">
<ellipse fill="#7faaff" stroke="black" cx="677.78" cy="-114" rx="85.27" ry="18"/>
<ellipse fill="none" stroke="black" cx="677.78" cy="-114" rx="89.28" ry="22"/>
<ellipse fill="none" stroke="black" cx="677.78" cy="-114" rx="93.29" ry="26"/>
<text text-anchor="middle" x="677.78" y="-110.3" font-family="Times,serif" font-size="14.00">Build_Signature</text>
</a>
</g>
</g>
<!-- Algebra_SymbolTypeOf -->
<g id="node24" class="node">
<title>Algebra_SymbolTypeOf</title>
<g id="a_node24"><a xlink:href="Algebra.html#SymbolTypeOf" xlink:title="SymbolTypeOf">
<ellipse fill="#e2cdfa" stroke="black" cx="446.78" cy="-34" rx="78.79" ry="18"/>
<text text-anchor="middle" x="446.78" y="-30.3" font-family="Times,serif" font-size="14.00">SymbolTypeOf</text>
</a>
</g>
</g>
<!-- Algebra_Build_Signature&#45;&gt;Algebra_SymbolTypeOf -->
<g id="edge22" class="edge">
<title>Algebra_Build_Signature&#45;&gt;Algebra_SymbolTypeOf</title>
<path fill="none" stroke="black" d="M620.08,-93.52C582.82,-80.94 534.76,-64.71 498.7,-52.53"/>
<polygon fill="black" stroke="black" points="499.46,-49.1 488.87,-49.21 497.22,-55.73 499.46,-49.1"/>
</g>
<!-- Algebra_Signature&#45;&gt;Algebra_SymbolTypeOf -->
<g id="edge23" class="edge">
<title>Algebra_Signature&#45;&gt;Algebra_SymbolTypeOf</title>
<path fill="none" stroke="black" d="M861.64,-103.58C837.32,-98.72 806.98,-92.82 779.78,-88 690.95,-72.26 588.41,-56.27 520.85,-46.03"/>
<polygon fill="black" stroke="black" points="521.14,-42.53 510.73,-44.5 520.09,-49.45 521.14,-42.53"/>
</g>
<!-- Algebra_sort_cod -->
<g id="node20" class="node">
<title>Algebra_sort_cod</title>
<g id="a_node20"><a xlink:href="Algebra.html#sort_cod" xlink:title="sort_cod">
<ellipse fill="#f070d1" stroke="black" cx="446.78" cy="-114" rx="50.08" ry="18"/>
<ellipse fill="none" stroke="black" cx="446.78" cy="-114" rx="54.09" ry="22"/>
<ellipse fill="none" stroke="black" cx="446.78" cy="-114" rx="58.09" ry="26"/>
<text text-anchor="middle" x="446.78" y="-110.3" font-family="Times,serif" font-size="14.00">sort_cod</text>
</a>
</g>
</g>
<!-- Algebra_sort_cod&#45;&gt;Algebra_SymbolTypeOf -->
<g id="edge24" class="edge">
<title>Algebra_sort_cod&#45;&gt;Algebra_SymbolTypeOf</title>
<path fill="none" stroke="black" d="M446.78,-87.89C446.78,-79.84 446.78,-70.88 446.78,-62.66"/>
<polygon fill="black" stroke="black" points="450.28,-62.41 446.78,-52.41 443.28,-62.41 450.28,-62.41"/>
</g>
<!-- Algebra_sorts_dom -->
<g id="node21" class="node">
<title>Algebra_sorts_dom</title>
<g id="a_node21"><a xlink:href="Algebra.html#sorts_dom" xlink:title="sorts_dom">
<ellipse fill="#f070d1" stroke="black" cx="251.78" cy="-114" rx="58.49" ry="18"/>
<ellipse fill="none" stroke="black" cx="251.78" cy="-114" rx="62.49" ry="22"/>
<ellipse fill="none" stroke="black" cx="251.78" cy="-114" rx="66.49" ry="26"/>
<text text-anchor="middle" x="251.78" y="-110.3" font-family="Times,serif" font-size="14.00">sorts_dom</text>
</a>
</g>
</g>
<!-- Algebra_sorts_dom&#45;&gt;Algebra_SymbolTypeOf -->
<g id="edge25" class="edge">
<title>Algebra_sorts_dom&#45;&gt;Algebra_SymbolTypeOf</title>
<path fill="none" stroke="black" d="M297,-94.91C327.9,-82.55 368.73,-66.22 399.96,-53.73"/>
<polygon fill="black" stroke="black" points="401.34,-56.95 409.32,-49.98 398.74,-50.45 401.34,-56.95"/>
</g>
<!-- Algebra_Arity -->
<g id="node22" class="node">
<title>Algebra_Arity</title>
<g id="a_node22"><a xlink:href="Algebra.html#Arity" xlink:title="Arity">
<ellipse fill="#f070d1" stroke="black" cx="78.78" cy="-114" rx="33.63" ry="18"/>
<ellipse fill="none" stroke="black" cx="78.78" cy="-114" rx="37.61" ry="22"/>
<ellipse fill="none" stroke="black" cx="78.78" cy="-114" rx="41.59" ry="26"/>
<text text-anchor="middle" x="78.78" y="-110.3" font-family="Times,serif" font-size="14.00">Arity</text>
</a>
</g>
</g>
<!-- Algebra_Arity&#45;&gt;Algebra_SymbolTypeOf -->
<g id="edge26" class="edge">
<title>Algebra_Arity&#45;&gt;Algebra_SymbolTypeOf</title>
<path fill="none" stroke="black" d="M116.82,-102.77C134.92,-98.03 156.91,-92.48 176.78,-88 244.55,-72.72 322.47,-57.69 377.13,-47.56"/>
<polygon fill="black" stroke="black" points="377.86,-50.99 387.05,-45.73 376.58,-44.1 377.86,-50.99"/>
</g>
<!-- Algebra_Build_SymbolTypeOf -->
<g id="node23" class="node">
<title>Algebra_Build_SymbolTypeOf</title>
<g id="a_node23"><a xlink:href="Algebra.html#Build_SymbolTypeOf" xlink:title="Build_SymbolTypeOf">
<ellipse fill="#7faaff" stroke="black" cx="180.78" cy="-522" rx="107.46" ry="18"/>
<ellipse fill="none" stroke="black" cx="180.78" cy="-522" rx="111.47" ry="22"/>
<ellipse fill="none" stroke="black" cx="180.78" cy="-522" rx="115.48" ry="26"/>
<text text-anchor="middle" x="180.78" y="-518.3" font-family="Times,serif" font-size="14.00">Build_SymbolTypeOf</text>
</a>
</g>
</g>
</g>
</svg>
