<?xml version="1.0" encoding="UTF-8" standalone="no"?>
<!DOCTYPE svg PUBLIC "-//W3C//DTD SVG 1.1//EN"
 "http://www.w3.org/Graphics/SVG/1.1/DTD/svg11.dtd">
<!-- Generated by graphviz version 2.43.0 (0)
 -->
<!-- Title: HoTT_Homotopy_InjectiveTypes_InjectiveSigma Pages: 1 -->
<svg width="1863pt" height="936pt"
 viewBox="0.00 0.00 1863.00 935.50" xmlns="http://www.w3.org/2000/svg" xmlns:xlink="http://www.w3.org/1999/xlink">
<g id="graph0" class="graph" transform="scale(1 1) rotate(0) translate(4 931.5)">
<title>HoTT_Homotopy_InjectiveTypes_InjectiveSigma</title>
<polygon fill="white" stroke="transparent" points="-4,4 -4,-931.5 1859,-931.5 1859,4 -4,4"/>
<g id="clust1" class="cluster">
<title>cluster_InjectiveSigma</title>
<polygon fill="#ffffc3" stroke="black" points="8,-14.87 8,-912.63 1847,-912.63 1847,-14.87 8,-14.87"/>
<text text-anchor="middle" x="69.5" y="-897.43" font-family="Times,serif" font-size="14.00">InjectiveSigma</text>
</g>
<!-- InjectiveSigma_alg_flab_reflective_subuniverse -->
<g id="node1" class="node">
<title>InjectiveSigma_alg_flab_reflective_subuniverse</title>
<g id="a_node1"><a xlink:href="InjectiveSigma.html#alg_flab_reflective_subuniverse" xlink:title="alg_flab_reflective_subuniverse">
<ellipse fill="#f070d1" stroke="black" cx="1062" cy="-806.87" rx="155.18" ry="18"/>
<ellipse fill="none" stroke="black" cx="1062" cy="-806.87" rx="159.18" ry="22"/>
<ellipse fill="none" stroke="black" cx="1062" cy="-806.87" rx="163.17" ry="26"/>
<text text-anchor="middle" x="1062" y="-803.17" font-family="Times,serif" font-size="14.00">alg_flab_reflective_subuniverse</text>
</a>
</g>
</g>
<!-- InjectiveSigma_alg_flab_subuniverse_forall -->
<g id="node3" class="node">
<title>InjectiveSigma_alg_flab_subuniverse_forall</title>
<g id="a_node3"><a xlink:href="InjectiveSigma.html#alg_flab_subuniverse_forall" xlink:title="alg_flab_subuniverse_forall">
<ellipse fill="#f070d1" stroke="black" cx="1062" cy="-642.87" rx="135.68" ry="18"/>
<text text-anchor="middle" x="1062" y="-639.17" font-family="Times,serif" font-size="14.00">alg_flab_subuniverse_forall</text>
</a>
</g>
</g>
<!-- InjectiveSigma_alg_flab_reflective_subuniverse&#45;&gt;InjectiveSigma_alg_flab_subuniverse_forall -->
<g id="edge1" class="edge">
<title>InjectiveSigma_alg_flab_reflective_subuniverse&#45;&gt;InjectiveSigma_alg_flab_subuniverse_forall</title>
<path fill="none" stroke="black" d="M1062,-780.56C1062,-750.92 1062,-701.99 1062,-671.42"/>
<polygon fill="black" stroke="black" points="1065.5,-671.05 1062,-661.05 1058.5,-671.05 1065.5,-671.05"/>
</g>
<!-- InjectiveSigma_alg_flab_subuniverse_sigma -->
<g id="node2" class="node">
<title>InjectiveSigma_alg_flab_subuniverse_sigma</title>
<g id="a_node2"><a xlink:href="InjectiveSigma.html#alg_flab_subuniverse_sigma" xlink:title="alg_flab_subuniverse_sigma">
<ellipse fill="#f070d1" stroke="black" cx="682" cy="-642.87" rx="139.96" ry="18"/>
<ellipse fill="none" stroke="black" cx="682" cy="-642.87" rx="143.97" ry="22"/>
<ellipse fill="none" stroke="black" cx="682" cy="-642.87" rx="147.98" ry="26"/>
<text text-anchor="middle" x="682" y="-639.17" font-family="Times,serif" font-size="14.00">alg_flab_subuniverse_sigma</text>
</a>
</g>
</g>
<!-- InjectiveSigma_alg_flab_sigma_sigma -->
<g id="node5" class="node">
<title>InjectiveSigma_alg_flab_sigma_sigma</title>
<g id="a_node5"><a xlink:href="InjectiveSigma.html#alg_flab_sigma_sigma" xlink:title="alg_flab_sigma_sigma">
<ellipse fill="#f070d1" stroke="black" cx="682" cy="-479.87" rx="110.48" ry="18"/>
<text text-anchor="middle" x="682" y="-476.17" font-family="Times,serif" font-size="14.00">alg_flab_sigma_sigma</text>
</a>
</g>
</g>
<!-- InjectiveSigma_alg_flab_subuniverse_sigma&#45;&gt;InjectiveSigma_alg_flab_sigma_sigma -->
<g id="edge2" class="edge">
<title>InjectiveSigma_alg_flab_subuniverse_sigma&#45;&gt;InjectiveSigma_alg_flab_sigma_sigma</title>
<path fill="none" stroke="black" d="M682,-616.71C682,-587.25 682,-538.63 682,-508.25"/>
<polygon fill="black" stroke="black" points="685.5,-507.95 682,-497.95 678.5,-507.95 685.5,-507.95"/>
</g>
<!-- InjectiveSigma_alg_flab_sigma_forall -->
<g id="node7" class="node">
<title>InjectiveSigma_alg_flab_sigma_forall</title>
<g id="a_node7"><a xlink:href="InjectiveSigma.html#alg_flab_sigma_forall" xlink:title="alg_flab_sigma_forall">
<ellipse fill="#f070d1" stroke="black" cx="1183" cy="-479.87" rx="107.48" ry="18"/>
<text text-anchor="middle" x="1183" y="-476.17" font-family="Times,serif" font-size="14.00">alg_flab_sigma_forall</text>
</a>
</g>
</g>
<!-- InjectiveSigma_alg_flab_subuniverse_forall&#45;&gt;InjectiveSigma_alg_flab_sigma_forall -->
<g id="edge3" class="edge">
<title>InjectiveSigma_alg_flab_subuniverse_forall&#45;&gt;InjectiveSigma_alg_flab_sigma_forall</title>
<path fill="none" stroke="black" d="M1074.72,-624.94C1096,-596.63 1138.92,-539.52 1163.86,-506.34"/>
<polygon fill="black" stroke="black" points="1166.88,-508.15 1170.09,-498.05 1161.28,-503.94 1166.88,-508.15"/>
</g>
<!-- InjectiveSigma_alg_flab_pType -->
<g id="node4" class="node">
<title>InjectiveSigma_alg_flab_pType</title>
<g id="a_node4"><a xlink:href="InjectiveSigma.html#alg_flab_pType" xlink:title="alg_flab_pType">
<ellipse fill="#f070d1" stroke="black" cx="1303" cy="-642.87" rx="79.11" ry="18"/>
<ellipse fill="none" stroke="black" cx="1303" cy="-642.87" rx="83.1" ry="22"/>
<ellipse fill="none" stroke="black" cx="1303" cy="-642.87" rx="87.09" ry="26"/>
<text text-anchor="middle" x="1303" y="-639.17" font-family="Times,serif" font-size="14.00">alg_flab_pType</text>
</a>
</g>
</g>
<!-- InjectiveSigma_alg_flab_pType&#45;&gt;InjectiveSigma_alg_flab_sigma_forall -->
<g id="edge4" class="edge">
<title>InjectiveSigma_alg_flab_pType&#45;&gt;InjectiveSigma_alg_flab_sigma_forall</title>
<path fill="none" stroke="black" d="M1284.77,-617.42C1262.46,-587.47 1224.83,-536.99 1202.11,-506.51"/>
<polygon fill="black" stroke="black" points="1204.63,-504.04 1195.85,-498.11 1199.02,-508.22 1204.63,-504.04"/>
</g>
<!-- InjectiveSigma_sigma_condition_sigma_condition_sigma -->
<g id="node6" class="node">
<title>InjectiveSigma_sigma_condition_sigma_condition_sigma</title>
<g id="a_node6"><a xlink:href="InjectiveSigma.html#sigma_condition_sigma_condition_sigma" xlink:title="sigma_condition_sigma_condition_sigma">
<ellipse fill="#f070d1" stroke="black" cx="605" cy="-330.87" rx="197.66" ry="18"/>
<text text-anchor="middle" x="605" y="-327.17" font-family="Times,serif" font-size="14.00">sigma_condition_sigma_condition_sigma</text>
</a>
</g>
</g>
<!-- InjectiveSigma_alg_flab_sigma_sigma&#45;&gt;InjectiveSigma_sigma_condition_sigma_condition_sigma -->
<g id="edge5" class="edge">
<title>InjectiveSigma_alg_flab_sigma_sigma&#45;&gt;InjectiveSigma_sigma_condition_sigma_condition_sigma</title>
<path fill="none" stroke="black" d="M673.02,-461.72C659.63,-436.16 634.34,-387.88 618.65,-357.94"/>
<polygon fill="black" stroke="black" points="621.67,-356.15 613.93,-348.91 615.47,-359.39 621.67,-356.15"/>
</g>
<!-- InjectiveSigma_alg_flab_sigma -->
<g id="node16" class="node">
<title>InjectiveSigma_alg_flab_sigma</title>
<g id="a_node16"><a xlink:href="InjectiveSigma.html#alg_flab_sigma" xlink:title="alg_flab_sigma">
<ellipse fill="#f070d1" stroke="black" cx="934" cy="-330.87" rx="78.79" ry="18"/>
<text text-anchor="middle" x="934" y="-327.17" font-family="Times,serif" font-size="14.00">alg_flab_sigma</text>
</a>
</g>
</g>
<!-- InjectiveSigma_alg_flab_sigma_sigma&#45;&gt;InjectiveSigma_alg_flab_sigma -->
<g id="edge6" class="edge">
<title>InjectiveSigma_alg_flab_sigma_sigma&#45;&gt;InjectiveSigma_alg_flab_sigma</title>
<path fill="none" stroke="black" d="M710.42,-462.29C756.44,-435.45 847.21,-382.5 897.79,-352.99"/>
<polygon fill="black" stroke="black" points="899.58,-356 906.45,-347.94 896.05,-349.95 899.58,-356"/>
</g>
<!-- InjectiveSigma_homotopic_alg_flab_map_alg_flab_map_sigma -->
<g id="node9" class="node">
<title>InjectiveSigma_homotopic_alg_flab_map_alg_flab_map_sigma</title>
<g id="a_node9"><a xlink:href="InjectiveSigma.html#homotopic_alg_flab_map_alg_flab_map_sigma" xlink:title="homotopic_alg_flab_map_alg_flab_map_sigma">
<ellipse fill="#f070d1" stroke="black" cx="570" cy="-196.87" rx="219.86" ry="18"/>
<text text-anchor="middle" x="570" y="-193.17" font-family="Times,serif" font-size="14.00">homotopic_alg_flab_map_alg_flab_map_sigma</text>
</a>
</g>
</g>
<!-- InjectiveSigma_sigma_condition_sigma_condition_sigma&#45;&gt;InjectiveSigma_homotopic_alg_flab_map_alg_flab_map_sigma -->
<g id="edge7" class="edge">
<title>InjectiveSigma_sigma_condition_sigma_condition_sigma&#45;&gt;InjectiveSigma_homotopic_alg_flab_map_alg_flab_map_sigma</title>
<path fill="none" stroke="black" d="M600.42,-312.61C594.5,-290.28 584.12,-251.12 577.15,-224.85"/>
<polygon fill="black" stroke="black" points="580.52,-223.9 574.58,-215.13 573.76,-225.69 580.52,-223.9"/>
</g>
<!-- InjectiveSigma_alg_flab_sigma_condition_sigma -->
<g id="node11" class="node">
<title>InjectiveSigma_alg_flab_sigma_condition_sigma</title>
<g id="a_node11"><a xlink:href="InjectiveSigma.html#alg_flab_sigma_condition_sigma" xlink:title="alg_flab_sigma_condition_sigma">
<ellipse fill="#f070d1" stroke="black" cx="174" cy="-196.87" rx="157.87" ry="18"/>
<text text-anchor="middle" x="174" y="-193.17" font-family="Times,serif" font-size="14.00">alg_flab_sigma_condition_sigma</text>
</a>
</g>
</g>
<!-- InjectiveSigma_sigma_condition_sigma_condition_sigma&#45;&gt;InjectiveSigma_alg_flab_sigma_condition_sigma -->
<g id="edge8" class="edge">
<title>InjectiveSigma_sigma_condition_sigma_condition_sigma&#45;&gt;InjectiveSigma_alg_flab_sigma_condition_sigma</title>
<path fill="none" stroke="black" d="M551.29,-313.42C471.19,-288.89 320.82,-242.84 236.11,-216.89"/>
<polygon fill="black" stroke="black" points="236.95,-213.49 226.37,-213.91 234.9,-220.18 236.95,-213.49"/>
</g>
<!-- InjectiveSigma_alg_flab_sigma_condition -->
<g id="node17" class="node">
<title>InjectiveSigma_alg_flab_sigma_condition</title>
<g id="a_node17"><a xlink:href="InjectiveSigma.html#alg_flab_sigma_condition" xlink:title="alg_flab_sigma_condition">
<ellipse fill="#f070d1" stroke="black" cx="934" cy="-196.87" rx="126.18" ry="18"/>
<text text-anchor="middle" x="934" y="-193.17" font-family="Times,serif" font-size="14.00">alg_flab_sigma_condition</text>
</a>
</g>
</g>
<!-- InjectiveSigma_sigma_condition_sigma_condition_sigma&#45;&gt;InjectiveSigma_alg_flab_sigma_condition -->
<g id="edge9" class="edge">
<title>InjectiveSigma_sigma_condition_sigma_condition_sigma&#45;&gt;InjectiveSigma_alg_flab_sigma_condition</title>
<path fill="none" stroke="black" d="M646.67,-313.15C707.19,-288.87 819.26,-243.91 884.1,-217.89"/>
<polygon fill="black" stroke="black" points="885.72,-221.01 893.7,-214.04 883.12,-214.51 885.72,-221.01"/>
</g>
<!-- InjectiveSigma_sigma_condition_sigma_condition_forall -->
<g id="node8" class="node">
<title>InjectiveSigma_sigma_condition_sigma_condition_forall</title>
<g id="a_node8"><a xlink:href="InjectiveSigma.html#sigma_condition_sigma_condition_forall" xlink:title="sigma_condition_sigma_condition_forall">
<ellipse fill="#f070d1" stroke="black" cx="1260" cy="-330.87" rx="194.17" ry="18"/>
<text text-anchor="middle" x="1260" y="-327.17" font-family="Times,serif" font-size="14.00">sigma_condition_sigma_condition_forall</text>
</a>
</g>
</g>
<!-- InjectiveSigma_alg_flab_sigma_forall&#45;&gt;InjectiveSigma_sigma_condition_sigma_condition_forall -->
<g id="edge10" class="edge">
<title>InjectiveSigma_alg_flab_sigma_forall&#45;&gt;InjectiveSigma_sigma_condition_sigma_condition_forall</title>
<path fill="none" stroke="black" d="M1191.98,-461.72C1205.37,-436.16 1230.66,-387.88 1246.35,-357.94"/>
<polygon fill="black" stroke="black" points="1249.53,-359.39 1251.07,-348.91 1243.33,-356.15 1249.53,-359.39"/>
</g>
<!-- InjectiveSigma_alg_flab_sigma_forall&#45;&gt;InjectiveSigma_alg_flab_sigma -->
<g id="edge11" class="edge">
<title>InjectiveSigma_alg_flab_sigma_forall&#45;&gt;InjectiveSigma_alg_flab_sigma</title>
<path fill="none" stroke="black" d="M1154.92,-462.29C1109.54,-435.5 1020.13,-382.71 970.08,-353.17"/>
<polygon fill="black" stroke="black" points="971.61,-350.01 961.22,-347.94 968.05,-356.04 971.61,-350.01"/>
</g>
<!-- InjectiveSigma_homotopic_alg_flab_map_alg_flab_map_forall -->
<g id="node10" class="node">
<title>InjectiveSigma_homotopic_alg_flab_map_alg_flab_map_forall</title>
<g id="a_node10"><a xlink:href="InjectiveSigma.html#homotopic_alg_flab_map_alg_flab_map_forall" xlink:title="homotopic_alg_flab_map_alg_flab_map_forall">
<ellipse fill="#f070d1" stroke="black" cx="1295" cy="-196.87" rx="216.36" ry="18"/>
<text text-anchor="middle" x="1295" y="-193.17" font-family="Times,serif" font-size="14.00">homotopic_alg_flab_map_alg_flab_map_forall</text>
</a>
</g>
</g>
<!-- InjectiveSigma_sigma_condition_sigma_condition_forall&#45;&gt;InjectiveSigma_homotopic_alg_flab_map_alg_flab_map_forall -->
<g id="edge12" class="edge">
<title>InjectiveSigma_sigma_condition_sigma_condition_forall&#45;&gt;InjectiveSigma_homotopic_alg_flab_map_alg_flab_map_forall</title>
<path fill="none" stroke="black" d="M1264.58,-312.61C1270.5,-290.28 1280.88,-251.12 1287.85,-224.85"/>
<polygon fill="black" stroke="black" points="1291.24,-225.69 1290.42,-215.13 1284.48,-223.9 1291.24,-225.69"/>
</g>
<!-- InjectiveSigma_alg_flab_sigma_condition_forall -->
<g id="node12" class="node">
<title>InjectiveSigma_alg_flab_sigma_condition_forall</title>
<g id="a_node12"><a xlink:href="InjectiveSigma.html#alg_flab_sigma_condition_forall" xlink:title="alg_flab_sigma_condition_forall">
<ellipse fill="#f070d1" stroke="black" cx="1684" cy="-196.87" rx="154.87" ry="18"/>
<text text-anchor="middle" x="1684" y="-193.17" font-family="Times,serif" font-size="14.00">alg_flab_sigma_condition_forall</text>
</a>
</g>
</g>
<!-- InjectiveSigma_sigma_condition_sigma_condition_forall&#45;&gt;InjectiveSigma_alg_flab_sigma_condition_forall -->
<g id="edge13" class="edge">
<title>InjectiveSigma_sigma_condition_sigma_condition_forall&#45;&gt;InjectiveSigma_alg_flab_sigma_condition_forall</title>
<path fill="none" stroke="black" d="M1312.84,-313.42C1391.64,-288.89 1539.56,-242.84 1622.9,-216.89"/>
<polygon fill="black" stroke="black" points="1623.98,-220.22 1632.48,-213.91 1621.9,-213.54 1623.98,-220.22"/>
</g>
<!-- InjectiveSigma_sigma_condition_sigma_condition_forall&#45;&gt;InjectiveSigma_alg_flab_sigma_condition -->
<g id="edge14" class="edge">
<title>InjectiveSigma_sigma_condition_sigma_condition_forall&#45;&gt;InjectiveSigma_alg_flab_sigma_condition</title>
<path fill="none" stroke="black" d="M1218.71,-313.15C1158.74,-288.87 1047.7,-243.91 983.45,-217.89"/>
<polygon fill="black" stroke="black" points="984.52,-214.55 973.93,-214.04 981.89,-221.04 984.52,-214.55"/>
</g>
<!-- InjectiveSigma_alg_flab_map_sigma -->
<g id="node13" class="node">
<title>InjectiveSigma_alg_flab_map_sigma</title>
<g id="a_node13"><a xlink:href="InjectiveSigma.html#alg_flab_map_sigma" xlink:title="alg_flab_map_sigma">
<ellipse fill="#f070d1" stroke="black" cx="372" cy="-62.87" rx="102.88" ry="18"/>
<text text-anchor="middle" x="372" y="-59.17" font-family="Times,serif" font-size="14.00">alg_flab_map_sigma</text>
</a>
</g>
</g>
<!-- InjectiveSigma_homotopic_alg_flab_map_alg_flab_map_sigma&#45;&gt;InjectiveSigma_alg_flab_map_sigma -->
<g id="edge15" class="edge">
<title>InjectiveSigma_homotopic_alg_flab_map_alg_flab_map_sigma&#45;&gt;InjectiveSigma_alg_flab_map_sigma</title>
<path fill="none" stroke="black" d="M544.52,-178.88C508.98,-155.19 444.48,-112.19 405.21,-86.01"/>
<polygon fill="black" stroke="black" points="407.02,-83.01 396.76,-80.38 403.14,-88.84 407.02,-83.01"/>
</g>
<!-- InjectiveSigma_alg_flab_map -->
<g id="node18" class="node">
<title>InjectiveSigma_alg_flab_map</title>
<g id="a_node18"><a xlink:href="InjectiveSigma.html#alg_flab_map" xlink:title="alg_flab_map">
<ellipse fill="#f070d1" stroke="black" cx="934" cy="-62.87" rx="70.69" ry="18"/>
<text text-anchor="middle" x="934" y="-59.17" font-family="Times,serif" font-size="14.00">alg_flab_map</text>
</a>
</g>
</g>
<!-- InjectiveSigma_homotopic_alg_flab_map_alg_flab_map_sigma&#45;&gt;InjectiveSigma_alg_flab_map -->
<g id="edge16" class="edge">
<title>InjectiveSigma_homotopic_alg_flab_map_alg_flab_map_sigma&#45;&gt;InjectiveSigma_alg_flab_map</title>
<path fill="none" stroke="black" d="M616.1,-179.15C685.26,-154.07 815.23,-106.94 885.67,-81.4"/>
<polygon fill="black" stroke="black" points="886.99,-84.64 895.2,-77.94 884.61,-78.06 886.99,-84.64"/>
</g>
<!-- InjectiveSigma_alg_flab_map_forall -->
<g id="node14" class="node">
<title>InjectiveSigma_alg_flab_map_forall</title>
<g id="a_node14"><a xlink:href="InjectiveSigma.html#alg_flab_map_forall" xlink:title="alg_flab_map_forall">
<ellipse fill="#f070d1" stroke="black" cx="1489" cy="-62.87" rx="99.38" ry="18"/>
<text text-anchor="middle" x="1489" y="-59.17" font-family="Times,serif" font-size="14.00">alg_flab_map_forall</text>
</a>
</g>
</g>
<!-- InjectiveSigma_homotopic_alg_flab_map_alg_flab_map_forall&#45;&gt;InjectiveSigma_alg_flab_map_forall -->
<g id="edge17" class="edge">
<title>InjectiveSigma_homotopic_alg_flab_map_alg_flab_map_forall&#45;&gt;InjectiveSigma_alg_flab_map_forall</title>
<path fill="none" stroke="black" d="M1319.96,-178.88C1354.79,-155.19 1417.98,-112.19 1456.46,-86.01"/>
<polygon fill="black" stroke="black" points="1458.44,-88.9 1464.74,-80.38 1454.5,-83.11 1458.44,-88.9"/>
</g>
<!-- InjectiveSigma_homotopic_alg_flab_map_alg_flab_map_forall&#45;&gt;InjectiveSigma_alg_flab_map -->
<g id="edge18" class="edge">
<title>InjectiveSigma_homotopic_alg_flab_map_alg_flab_map_forall&#45;&gt;InjectiveSigma_alg_flab_map</title>
<path fill="none" stroke="black" d="M1249.28,-179.15C1180.78,-154.11 1052.13,-107.06 982.21,-81.5"/>
<polygon fill="black" stroke="black" points="983.34,-78.18 972.75,-78.04 980.94,-84.76 983.34,-78.18"/>
</g>
<!-- InjectiveSigma_alg_flab_sigma_condition_sigma&#45;&gt;InjectiveSigma_alg_flab_map_sigma -->
<g id="edge19" class="edge">
<title>InjectiveSigma_alg_flab_sigma_condition_sigma&#45;&gt;InjectiveSigma_alg_flab_map_sigma</title>
<path fill="none" stroke="black" d="M199.48,-178.88C235.02,-155.19 299.52,-112.19 338.79,-86.01"/>
<polygon fill="black" stroke="black" points="340.86,-88.84 347.24,-80.38 336.98,-83.01 340.86,-88.84"/>
</g>
<!-- InjectiveSigma_alg_flab_sigma_condition_forall&#45;&gt;InjectiveSigma_alg_flab_map_forall -->
<g id="edge20" class="edge">
<title>InjectiveSigma_alg_flab_sigma_condition_forall&#45;&gt;InjectiveSigma_alg_flab_map_forall</title>
<path fill="none" stroke="black" d="M1658.91,-178.88C1623.91,-155.19 1560.38,-112.19 1521.71,-86.01"/>
<polygon fill="black" stroke="black" points="1523.63,-83.08 1513.38,-80.38 1519.7,-88.88 1523.63,-83.08"/>
</g>
<!-- InjectiveSigma_alg_inj_sigma -->
<g id="node15" class="node">
<title>InjectiveSigma_alg_inj_sigma</title>
<g id="a_node15"><a xlink:href="InjectiveSigma.html#alg_inj_sigma" xlink:title="alg_inj_sigma">
<ellipse fill="#f070d1" stroke="black" cx="934" cy="-479.87" rx="73.39" ry="18"/>
<ellipse fill="none" stroke="black" cx="934" cy="-479.87" rx="77.39" ry="22"/>
<ellipse fill="none" stroke="black" cx="934" cy="-479.87" rx="81.39" ry="26"/>
<text text-anchor="middle" x="934" y="-476.17" font-family="Times,serif" font-size="14.00">alg_inj_sigma</text>
</a>
</g>
</g>
<!-- InjectiveSigma_alg_inj_sigma&#45;&gt;InjectiveSigma_alg_flab_sigma -->
<g id="edge21" class="edge">
<title>InjectiveSigma_alg_inj_sigma&#45;&gt;InjectiveSigma_alg_flab_sigma</title>
<path fill="none" stroke="black" d="M934,-453.6C934,-427.34 934,-386.37 934,-359.32"/>
<polygon fill="black" stroke="black" points="937.5,-359.01 934,-349.01 930.5,-359.01 937.5,-359.01"/>
</g>
<!-- InjectiveSigma_alg_flab_sigma&#45;&gt;InjectiveSigma_alg_flab_sigma_condition -->
<g id="edge22" class="edge">
<title>InjectiveSigma_alg_flab_sigma&#45;&gt;InjectiveSigma_alg_flab_sigma_condition</title>
<path fill="none" stroke="black" d="M934,-312.61C934,-290.38 934,-251.47 934,-225.19"/>
<polygon fill="black" stroke="black" points="937.5,-225.13 934,-215.13 930.5,-225.13 937.5,-225.13"/>
</g>
<!-- InjectiveSigma_alg_flab_sigma_condition&#45;&gt;InjectiveSigma_alg_flab_map -->
<g id="edge23" class="edge">
<title>InjectiveSigma_alg_flab_sigma_condition&#45;&gt;InjectiveSigma_alg_flab_map</title>
<path fill="none" stroke="black" d="M934,-178.61C934,-156.38 934,-117.47 934,-91.19"/>
<polygon fill="black" stroke="black" points="937.5,-91.13 934,-81.13 930.5,-91.13 937.5,-91.13"/>
</g>
</g>
</svg>
