<?xml version="1.0" encoding="UTF-8" standalone="no"?>
<!DOCTYPE svg PUBLIC "-//W3C//DTD SVG 1.1//EN"
 "http://www.w3.org/Graphics/SVG/1.1/DTD/svg11.dtd">
<!-- Generated by graphviz version 2.43.0 (0)
 -->
<!-- Title: HoTT_WildCat_Induced Pages: 1 -->
<svg width="720pt" height="364pt"
 viewBox="0.00 0.00 720.00 364.00" xmlns="http://www.w3.org/2000/svg" xmlns:xlink="http://www.w3.org/1999/xlink">
<g id="graph0" class="graph" transform="scale(1 1) rotate(0) translate(4 360)">
<title>HoTT_WildCat_Induced</title>
<polygon fill="white" stroke="transparent" points="-4,4 -4,-360 716,-360 716,4 -4,4"/>
<g id="clust1" class="cluster">
<title>cluster_Induced</title>
<polygon fill="#ffffc3" stroke="black" points="8,-8.4 8,-347.6 704,-347.6 704,-8.4 8,-8.4"/>
<text text-anchor="middle" x="45" y="-332.4" font-family="Times,serif" font-size="14.00">Induced</text>
</g>
<!-- Induced_hasequivs_induced -->
<g id="node1" class="node">
<title>Induced_hasequivs_induced</title>
<g id="a_node1"><a xlink:href="Induced.html#hasequivs_induced" xlink:title="hasequivs_induced">
<ellipse fill="#f070d1" stroke="black" cx="358" cy="-287.4" rx="98.27" ry="18"/>
<ellipse fill="none" stroke="black" cx="358" cy="-287.4" rx="102.28" ry="22"/>
<ellipse fill="none" stroke="black" cx="358" cy="-287.4" rx="106.28" ry="26"/>
<text text-anchor="middle" x="358" y="-283.7" font-family="Times,serif" font-size="14.00">hasequivs_induced</text>
</a>
</g>
</g>
<!-- Induced_is1cat_induced -->
<g id="node4" class="node">
<title>Induced_is1cat_induced</title>
<g id="a_node4"><a xlink:href="Induced.html#is1cat_induced" xlink:title="is1cat_induced">
<ellipse fill="#f070d1" stroke="black" cx="359" cy="-195.4" rx="79.09" ry="18"/>
<text text-anchor="middle" x="359" y="-191.7" font-family="Times,serif" font-size="14.00">is1cat_induced</text>
</a>
</g>
</g>
<!-- Induced_hasequivs_induced&#45;&gt;Induced_is1cat_induced -->
<g id="edge1" class="edge">
<title>Induced_hasequivs_induced&#45;&gt;Induced_is1cat_induced</title>
<path fill="none" stroke="black" d="M358.28,-261.33C358.41,-249.7 358.56,-235.85 358.69,-223.93"/>
<polygon fill="black" stroke="black" points="362.2,-223.69 358.81,-213.65 355.2,-223.61 362.2,-223.69"/>
</g>
<!-- Induced_hasmorext_induced -->
<g id="node2" class="node">
<title>Induced_hasmorext_induced</title>
<g id="a_node2"><a xlink:href="Induced.html#hasmorext_induced" xlink:title="hasmorext_induced">
<ellipse fill="#f070d1" stroke="black" cx="125" cy="-287.4" rx="100.96" ry="18"/>
<ellipse fill="none" stroke="black" cx="125" cy="-287.4" rx="104.97" ry="22"/>
<ellipse fill="none" stroke="black" cx="125" cy="-287.4" rx="108.98" ry="26"/>
<text text-anchor="middle" x="125" y="-283.7" font-family="Times,serif" font-size="14.00">hasmorext_induced</text>
</a>
</g>
</g>
<!-- Induced_hasmorext_induced&#45;&gt;Induced_is1cat_induced -->
<g id="edge2" class="edge">
<title>Induced_hasmorext_induced&#45;&gt;Induced_is1cat_induced</title>
<path fill="none" stroke="black" d="M180.75,-264.96C220.34,-249.73 272.95,-229.5 310.74,-214.96"/>
<polygon fill="black" stroke="black" points="312.42,-218.07 320.49,-211.21 309.9,-211.53 312.42,-218.07"/>
</g>
<!-- Induced_is1functor_induced -->
<g id="node3" class="node">
<title>Induced_is1functor_induced</title>
<g id="a_node3"><a xlink:href="Induced.html#is1functor_induced" xlink:title="is1functor_induced">
<ellipse fill="#f070d1" stroke="black" cx="589" cy="-287.4" rx="98.6" ry="18"/>
<ellipse fill="none" stroke="black" cx="589" cy="-287.4" rx="102.59" ry="22"/>
<ellipse fill="none" stroke="black" cx="589" cy="-287.4" rx="106.58" ry="26"/>
<text text-anchor="middle" x="589" y="-283.7" font-family="Times,serif" font-size="14.00">is1functor_induced</text>
</a>
</g>
</g>
<!-- Induced_is1functor_induced&#45;&gt;Induced_is1cat_induced -->
<g id="edge3" class="edge">
<title>Induced_is1functor_induced&#45;&gt;Induced_is1cat_induced</title>
<path fill="none" stroke="black" d="M534.2,-264.96C495.41,-249.78 443.9,-229.62 406.79,-215.1"/>
<polygon fill="black" stroke="black" points="407.79,-211.73 397.2,-211.35 405.24,-218.25 407.79,-211.73"/>
</g>
<!-- Induced_is0functor_induced -->
<g id="node6" class="node">
<title>Induced_is0functor_induced</title>
<g id="a_node6"><a xlink:href="Induced.html#is0functor_induced" xlink:title="is0functor_induced">
<ellipse fill="#f070d1" stroke="black" cx="585" cy="-111.4" rx="98.58" ry="18"/>
<text text-anchor="middle" x="585" y="-107.7" font-family="Times,serif" font-size="14.00">is0functor_induced</text>
</a>
</g>
</g>
<!-- Induced_is1functor_induced&#45;&gt;Induced_is0functor_induced -->
<g id="edge4" class="edge">
<title>Induced_is1functor_induced&#45;&gt;Induced_is0functor_induced</title>
<path fill="none" stroke="black" d="M588.42,-261.1C587.68,-228.92 586.41,-173.54 585.64,-140.21"/>
<polygon fill="black" stroke="black" points="589.13,-139.73 585.4,-129.81 582.13,-139.89 589.13,-139.73"/>
</g>
<!-- Induced_is2graph_induced -->
<g id="node5" class="node">
<title>Induced_is2graph_induced</title>
<g id="a_node5"><a xlink:href="Induced.html#is2graph_induced" xlink:title="is2graph_induced">
<ellipse fill="#f070d1" stroke="black" cx="369" cy="-111.4" rx="92.88" ry="18"/>
<text text-anchor="middle" x="369" y="-107.7" font-family="Times,serif" font-size="14.00">is2graph_induced</text>
</a>
</g>
</g>
<!-- Induced_is1cat_induced&#45;&gt;Induced_is2graph_induced -->
<g id="edge5" class="edge">
<title>Induced_is1cat_induced&#45;&gt;Induced_is2graph_induced</title>
<path fill="none" stroke="black" d="M361.12,-177.01C362.44,-166.18 364.17,-152 365.67,-139.69"/>
<polygon fill="black" stroke="black" points="369.18,-139.84 366.92,-129.49 362.23,-138.99 369.18,-139.84"/>
</g>
<!-- Induced_is01cat_induced -->
<g id="node8" class="node">
<title>Induced_is01cat_induced</title>
<g id="a_node8"><a xlink:href="Induced.html#is01cat_induced" xlink:title="is01cat_induced">
<ellipse fill="#f070d1" stroke="black" cx="173" cy="-111.4" rx="85.29" ry="18"/>
<text text-anchor="middle" x="173" y="-107.7" font-family="Times,serif" font-size="14.00">is01cat_induced</text>
</a>
</g>
</g>
<!-- Induced_is1cat_induced&#45;&gt;Induced_is01cat_induced -->
<g id="edge6" class="edge">
<title>Induced_is1cat_induced&#45;&gt;Induced_is01cat_induced</title>
<path fill="none" stroke="black" d="M324.45,-179.17C294.24,-165.85 250.18,-146.42 217.36,-131.96"/>
<polygon fill="black" stroke="black" points="218.56,-128.66 208,-127.83 215.73,-135.07 218.56,-128.66"/>
</g>
<!-- Induced_isgraph_induced -->
<g id="node9" class="node">
<title>Induced_isgraph_induced</title>
<g id="a_node9"><a xlink:href="Induced.html#isgraph_induced" xlink:title="isgraph_induced">
<ellipse fill="#f070d1" stroke="black" cx="369" cy="-35.4" rx="87.18" ry="18"/>
<text text-anchor="middle" x="369" y="-31.7" font-family="Times,serif" font-size="14.00">isgraph_induced</text>
</a>
</g>
</g>
<!-- Induced_is2graph_induced&#45;&gt;Induced_isgraph_induced -->
<g id="edge7" class="edge">
<title>Induced_is2graph_induced&#45;&gt;Induced_isgraph_induced</title>
<path fill="none" stroke="black" d="M369,-93.24C369,-84.46 369,-73.56 369,-63.67"/>
<polygon fill="black" stroke="black" points="372.5,-63.47 369,-53.47 365.5,-63.47 372.5,-63.47"/>
</g>
<!-- Induced_is0functor_induced&#45;&gt;Induced_isgraph_induced -->
<g id="edge8" class="edge">
<title>Induced_is0functor_induced&#45;&gt;Induced_isgraph_induced</title>
<path fill="none" stroke="black" d="M540.77,-95.25C506.21,-83.41 458.08,-66.92 421.56,-54.41"/>
<polygon fill="black" stroke="black" points="422.66,-51.09 412.07,-51.16 420.39,-57.71 422.66,-51.09"/>
</g>
<!-- Induced_is0gpd_induced -->
<g id="node7" class="node">
<title>Induced_is0gpd_induced</title>
<g id="a_node7"><a xlink:href="Induced.html#is0gpd_induced" xlink:title="is0gpd_induced">
<ellipse fill="#f070d1" stroke="black" cx="171" cy="-195.4" rx="83.37" ry="18"/>
<ellipse fill="none" stroke="black" cx="171" cy="-195.4" rx="87.38" ry="22"/>
<ellipse fill="none" stroke="black" cx="171" cy="-195.4" rx="91.39" ry="26"/>
<text text-anchor="middle" x="171" y="-191.7" font-family="Times,serif" font-size="14.00">is0gpd_induced</text>
</a>
</g>
</g>
<!-- Induced_is0gpd_induced&#45;&gt;Induced_is01cat_induced -->
<g id="edge9" class="edge">
<title>Induced_is0gpd_induced&#45;&gt;Induced_is01cat_induced</title>
<path fill="none" stroke="black" d="M171.61,-169.35C171.84,-159.98 172.1,-149.28 172.33,-139.71"/>
<polygon fill="black" stroke="black" points="175.84,-139.6 172.58,-129.51 168.84,-139.42 175.84,-139.6"/>
</g>
<!-- Induced_is01cat_induced&#45;&gt;Induced_isgraph_induced -->
<g id="edge10" class="edge">
<title>Induced_is01cat_induced&#45;&gt;Induced_isgraph_induced</title>
<path fill="none" stroke="black" d="M212.66,-95.43C243.51,-83.78 286.48,-67.55 319.57,-55.06"/>
<polygon fill="black" stroke="black" points="320.94,-58.29 329.06,-51.48 318.47,-51.74 320.94,-58.29"/>
</g>
</g>
</svg>
