<?xml version="1.0" encoding="UTF-8" standalone="no"?>
<!DOCTYPE svg PUBLIC "-//W3C//DTD SVG 1.1//EN"
 "http://www.w3.org/Graphics/SVG/1.1/DTD/svg11.dtd">
<!-- Generated by graphviz version 2.43.0 (0)
 -->
<!-- Title: HoTT_Modalities_Notnot Pages: 1 -->
<svg width="366pt" height="187pt"
 viewBox="0.00 0.00 366.00 187.00" xmlns="http://www.w3.org/2000/svg" xmlns:xlink="http://www.w3.org/1999/xlink">
<g id="graph0" class="graph" transform="scale(1 1) rotate(0) translate(4 183)">
<title>HoTT_Modalities_Notnot</title>
<polygon fill="white" stroke="transparent" points="-4,4 -4,-183 362,-183 362,4 -4,4"/>
<g id="clust1" class="cluster">
<title>cluster_Notnot</title>
<polygon fill="#ffffc3" stroke="black" points="16.65,-8 16.65,-171 341.35,-171 341.35,-8 16.65,-8"/>
<text text-anchor="middle" x="49.65" y="-155.8" font-family="Times,serif" font-size="14.00">Notnot</text>
</g>
<!-- Notnot_inO_notnot -->
<g id="node1" class="node">
<title>Notnot_inO_notnot</title>
<g id="a_node1"><a xlink:href="Notnot.html#inO_notnot" xlink:title="inO_notnot">
<ellipse fill="#f070d1" stroke="black" cx="178.88" cy="-114" rx="61.96" ry="18"/>
<ellipse fill="none" stroke="black" cx="178.88" cy="-114" rx="65.98" ry="22"/>
<ellipse fill="none" stroke="black" cx="178.88" cy="-114" rx="69.99" ry="26"/>
<text text-anchor="middle" x="178.88" y="-110.3" font-family="Times,serif" font-size="14.00">inO_notnot</text>
</a>
</g>
</g>
<!-- Notnot_NotNot -->
<g id="node2" class="node">
<title>Notnot_NotNot</title>
<g id="a_node2"><a xlink:href="Notnot.html#NotNot" xlink:title="NotNot">
<ellipse fill="#f070d1" stroke="black" cx="178.88" cy="-34" rx="44.69" ry="18"/>
<text text-anchor="middle" x="178.88" y="-30.3" font-family="Times,serif" font-size="14.00">NotNot</text>
</a>
</g>
</g>
<!-- Notnot_inO_notnot&#45;&gt;Notnot_NotNot -->
<g id="edge1" class="edge">
<title>Notnot_inO_notnot&#45;&gt;Notnot_NotNot</title>
<path fill="none" stroke="black" d="M178.88,-87.89C178.88,-79.84 178.88,-70.88 178.88,-62.66"/>
<polygon fill="black" stroke="black" points="182.38,-62.41 178.88,-52.41 175.38,-62.41 182.38,-62.41"/>
</g>
</g>
</svg>
