<?xml version="1.0" encoding="UTF-8" standalone="no"?>
<!DOCTYPE svg PUBLIC "-//W3C//DTD SVG 1.1//EN"
 "http://www.w3.org/Graphics/SVG/1.1/DTD/svg11.dtd">
<!-- Generated by graphviz version 2.43.0 (0)
 -->
<!-- Title: HoTT_Universes_TruncType Pages: 1 -->
<svg width="1576pt" height="792pt"
 viewBox="0.00 0.00 1576.00 792.00" xmlns="http://www.w3.org/2000/svg" xmlns:xlink="http://www.w3.org/1999/xlink">
<g id="graph0" class="graph" transform="scale(1 1) rotate(0) translate(4 788)">
<title>HoTT_Universes_TruncType</title>
<polygon fill="white" stroke="transparent" points="-4,4 -4,-788 1572,-788 1572,4 -4,4"/>
<g id="clust1" class="cluster">
<title>cluster_TruncType</title>
<polygon fill="#ffffc3" stroke="black" points="8,-9.52 8,-774.48 1560,-774.48 1560,-9.52 8,-9.52"/>
<text text-anchor="middle" x="54" y="-759.28" font-family="Times,serif" font-size="14.00">TruncType</text>
</g>
<!-- TruncType_equiv_path_iff_hprop -->
<g id="node1" class="node">
<title>TruncType_equiv_path_iff_hprop</title>
<g id="a_node1"><a xlink:href="TruncType.html#equiv_path_iff_hprop" xlink:title="equiv_path_iff_hprop">
<ellipse fill="#f070d1" stroke="black" cx="1269" cy="-325.52" rx="106.67" ry="18"/>
<ellipse fill="none" stroke="black" cx="1269" cy="-325.52" rx="110.68" ry="22"/>
<ellipse fill="none" stroke="black" cx="1269" cy="-325.52" rx="114.68" ry="26"/>
<text text-anchor="middle" x="1269" y="-321.82" font-family="Times,serif" font-size="14.00">equiv_path_iff_hprop</text>
</a>
</g>
</g>
<!-- TruncType_equiv_path_iff_ishprop -->
<g id="node2" class="node">
<title>TruncType_equiv_path_iff_ishprop</title>
<g id="a_node2"><a xlink:href="TruncType.html#equiv_path_iff_ishprop" xlink:title="equiv_path_iff_ishprop">
<ellipse fill="#f070d1" stroke="black" cx="1298" cy="-230.52" rx="114.28" ry="18"/>
<text text-anchor="middle" x="1298" y="-226.82" font-family="Times,serif" font-size="14.00">equiv_path_iff_ishprop</text>
</a>
</g>
</g>
<!-- TruncType_equiv_path_iff_hprop&#45;&gt;TruncType_equiv_path_iff_ishprop -->
<g id="edge1" class="edge">
<title>TruncType_equiv_path_iff_hprop&#45;&gt;TruncType_equiv_path_iff_ishprop</title>
<path fill="none" stroke="black" d="M1276.92,-299.1C1280.87,-286.46 1285.63,-271.17 1289.64,-258.34"/>
<polygon fill="black" stroke="black" points="1293.02,-259.26 1292.65,-248.67 1286.33,-257.17 1293.02,-259.26"/>
</g>
<!-- TruncType_equiv_path_trunctype_ -->
<g id="node27" class="node">
<title>TruncType_equiv_path_trunctype_</title>
<g id="a_node27"><a xlink:href="TruncType.html#equiv_path_trunctype'" xlink:title="equiv_path_trunctype&#39;">
<ellipse fill="#f070d1" stroke="black" cx="894" cy="-230.52" rx="113.98" ry="18"/>
<text text-anchor="middle" x="894" y="-226.82" font-family="Times,serif" font-size="14.00">equiv_path_trunctype&#39;</text>
</a>
</g>
</g>
<!-- TruncType_equiv_path_iff_hprop&#45;&gt;TruncType_equiv_path_trunctype_ -->
<g id="edge2" class="edge">
<title>TruncType_equiv_path_iff_hprop&#45;&gt;TruncType_equiv_path_trunctype_</title>
<path fill="none" stroke="black" d="M1193.56,-305.81C1125.92,-289.03 1027.54,-264.64 962.21,-248.43"/>
<polygon fill="black" stroke="black" points="962.97,-245.02 952.42,-246.01 961.28,-251.81 962.97,-245.02"/>
</g>
<!-- TruncType_isequiv_path_iff_ishprop_uncurried -->
<g id="node6" class="node">
<title>TruncType_isequiv_path_iff_ishprop_uncurried</title>
<g id="a_node6"><a xlink:href="TruncType.html#isequiv_path_iff_ishprop_uncurried" xlink:title="isequiv_path_iff_ishprop_uncurried">
<ellipse fill="#f070d1" stroke="black" cx="1312" cy="-135.52" rx="172.47" ry="18"/>
<text text-anchor="middle" x="1312" y="-131.82" font-family="Times,serif" font-size="14.00">isequiv_path_iff_ishprop_uncurried</text>
</a>
</g>
</g>
<!-- TruncType_equiv_path_iff_ishprop&#45;&gt;TruncType_isequiv_path_iff_ishprop_uncurried -->
<g id="edge3" class="edge">
<title>TruncType_equiv_path_iff_ishprop&#45;&gt;TruncType_isequiv_path_iff_ishprop_uncurried</title>
<path fill="none" stroke="black" d="M1300.57,-212.46C1302.61,-198.91 1305.5,-179.7 1307.86,-163.99"/>
<polygon fill="black" stroke="black" points="1311.37,-164.19 1309.4,-153.78 1304.45,-163.15 1311.37,-164.19"/>
</g>
<!-- TruncType_path_iff_hprop -->
<g id="node3" class="node">
<title>TruncType_path_iff_hprop</title>
<g id="a_node3"><a xlink:href="TruncType.html#path_iff_hprop" xlink:title="path_iff_hprop">
<ellipse fill="#f070d1" stroke="black" cx="1190" cy="-706.52" rx="77.2" ry="18"/>
<ellipse fill="none" stroke="black" cx="1190" cy="-706.52" rx="81.19" ry="22"/>
<ellipse fill="none" stroke="black" cx="1190" cy="-706.52" rx="85.19" ry="26"/>
<text text-anchor="middle" x="1190" y="-702.82" font-family="Times,serif" font-size="14.00">path_iff_hprop</text>
</a>
</g>
</g>
<!-- TruncType_path_iff_hprop_uncurried -->
<g id="node7" class="node">
<title>TruncType_path_iff_hprop_uncurried</title>
<g id="a_node7"><a xlink:href="TruncType.html#path_iff_hprop_uncurried" xlink:title="path_iff_hprop_uncurried">
<ellipse fill="#f070d1" stroke="black" cx="1178" cy="-611.52" rx="126.98" ry="18"/>
<text text-anchor="middle" x="1178" y="-607.82" font-family="Times,serif" font-size="14.00">path_iff_hprop_uncurried</text>
</a>
</g>
</g>
<!-- TruncType_path_iff_hprop&#45;&gt;TruncType_path_iff_hprop_uncurried -->
<g id="edge4" class="edge">
<title>TruncType_path_iff_hprop&#45;&gt;TruncType_path_iff_hprop_uncurried</title>
<path fill="none" stroke="black" d="M1186.72,-680.1C1185.11,-667.58 1183.16,-652.48 1181.51,-639.72"/>
<polygon fill="black" stroke="black" points="1184.96,-639.14 1180.21,-629.67 1178.02,-640.04 1184.96,-639.14"/>
</g>
<!-- TruncType_path_iff_ishprop -->
<g id="node4" class="node">
<title>TruncType_path_iff_ishprop</title>
<g id="a_node4"><a xlink:href="TruncType.html#path_iff_ishprop" xlink:title="path_iff_ishprop">
<ellipse fill="#f070d1" stroke="black" cx="1029" cy="-135.52" rx="85.27" ry="18"/>
<ellipse fill="none" stroke="black" cx="1029" cy="-135.52" rx="89.28" ry="22"/>
<ellipse fill="none" stroke="black" cx="1029" cy="-135.52" rx="93.29" ry="26"/>
<text text-anchor="middle" x="1029" y="-131.82" font-family="Times,serif" font-size="14.00">path_iff_ishprop</text>
</a>
</g>
</g>
<!-- TruncType_path_iff_ishprop_uncurried -->
<g id="node8" class="node">
<title>TruncType_path_iff_ishprop_uncurried</title>
<g id="a_node8"><a xlink:href="TruncType.html#path_iff_ishprop_uncurried" xlink:title="path_iff_ishprop_uncurried">
<ellipse fill="#f070d1" stroke="black" cx="1170" cy="-40.52" rx="134.58" ry="18"/>
<text text-anchor="middle" x="1170" y="-36.82" font-family="Times,serif" font-size="14.00">path_iff_ishprop_uncurried</text>
</a>
</g>
</g>
<!-- TruncType_path_iff_ishprop&#45;&gt;TruncType_path_iff_ishprop_uncurried -->
<g id="edge5" class="edge">
<title>TruncType_path_iff_ishprop&#45;&gt;TruncType_path_iff_ishprop_uncurried</title>
<path fill="none" stroke="black" d="M1064.22,-111.29C1086.15,-96.82 1114.23,-78.3 1135.95,-63.98"/>
<polygon fill="black" stroke="black" points="1138.11,-66.75 1144.53,-58.32 1134.25,-60.9 1138.11,-66.75"/>
</g>
<!-- TruncType_isequiv_path_iff_hprop_uncurried -->
<g id="node5" class="node">
<title>TruncType_isequiv_path_iff_hprop_uncurried</title>
<g id="a_node5"><a xlink:href="TruncType.html#isequiv_path_iff_hprop_uncurried" xlink:title="isequiv_path_iff_hprop_uncurried">
<ellipse fill="#f070d1" stroke="black" cx="914" cy="-706.52" rx="164.37" ry="18"/>
<ellipse fill="none" stroke="black" cx="914" cy="-706.52" rx="168.37" ry="22"/>
<ellipse fill="none" stroke="black" cx="914" cy="-706.52" rx="172.37" ry="26"/>
<text text-anchor="middle" x="914" y="-702.82" font-family="Times,serif" font-size="14.00">isequiv_path_iff_hprop_uncurried</text>
</a>
</g>
</g>
<!-- TruncType_isequiv_path_iff_hprop_uncurried&#45;&gt;TruncType_path_iff_hprop_uncurried -->
<g id="edge6" class="edge">
<title>TruncType_isequiv_path_iff_hprop_uncurried&#45;&gt;TruncType_path_iff_hprop_uncurried</title>
<path fill="none" stroke="black" d="M979.6,-682.41C1023.94,-666.79 1081.8,-646.4 1123.59,-631.69"/>
<polygon fill="black" stroke="black" points="1124.78,-634.98 1133.04,-628.35 1122.45,-628.38 1124.78,-634.98"/>
</g>
<!-- TruncType_isequiv_path_trunctype -->
<g id="node23" class="node">
<title>TruncType_isequiv_path_trunctype</title>
<g id="a_node23"><a xlink:href="TruncType.html#isequiv_path_trunctype" xlink:title="isequiv_path_trunctype">
<ellipse fill="#f070d1" stroke="black" cx="914" cy="-611.52" rx="118.88" ry="18"/>
<text text-anchor="middle" x="914" y="-607.82" font-family="Times,serif" font-size="14.00">isequiv_path_trunctype</text>
</a>
</g>
</g>
<!-- TruncType_isequiv_path_iff_hprop_uncurried&#45;&gt;TruncType_isequiv_path_trunctype -->
<g id="edge7" class="edge">
<title>TruncType_isequiv_path_iff_hprop_uncurried&#45;&gt;TruncType_isequiv_path_trunctype</title>
<path fill="none" stroke="black" d="M914,-680.1C914,-667.58 914,-652.48 914,-639.72"/>
<polygon fill="black" stroke="black" points="917.5,-639.67 914,-629.67 910.5,-639.67 917.5,-639.67"/>
</g>
<!-- TruncType_isequiv_path_iff_ishprop_uncurried&#45;&gt;TruncType_path_iff_ishprop_uncurried -->
<g id="edge8" class="edge">
<title>TruncType_isequiv_path_iff_ishprop_uncurried&#45;&gt;TruncType_path_iff_ishprop_uncurried</title>
<path fill="none" stroke="black" d="M1286.28,-117.68C1263.26,-102.6 1229.34,-80.38 1204.07,-63.83"/>
<polygon fill="black" stroke="black" points="1205.81,-60.78 1195.52,-58.23 1201.97,-66.64 1205.81,-60.78"/>
</g>
<!-- TruncType_path_hprop -->
<g id="node17" class="node">
<title>TruncType_path_hprop</title>
<g id="a_node17"><a xlink:href="TruncType.html#path_hprop" xlink:title="path_hprop">
<ellipse fill="#f070d1" stroke="black" cx="1088" cy="-516.52" rx="63.89" ry="18"/>
<text text-anchor="middle" x="1088" y="-512.82" font-family="Times,serif" font-size="14.00">path_hprop</text>
</a>
</g>
</g>
<!-- TruncType_path_iff_hprop_uncurried&#45;&gt;TruncType_path_hprop -->
<g id="edge9" class="edge">
<title>TruncType_path_iff_hprop_uncurried&#45;&gt;TruncType_path_hprop</title>
<path fill="none" stroke="black" d="M1161.49,-593.46C1147.45,-578.95 1127.12,-557.94 1111.4,-541.7"/>
<polygon fill="black" stroke="black" points="1113.57,-538.91 1104.1,-534.15 1108.54,-543.77 1113.57,-538.91"/>
</g>
<!-- TruncType_trunc_path_IsHProp -->
<g id="node9" class="node">
<title>TruncType_trunc_path_IsHProp</title>
<g id="a_node9"><a xlink:href="TruncType.html#trunc_path_IsHProp" xlink:title="trunc_path_IsHProp">
<ellipse fill="#f070d1" stroke="black" cx="599" cy="-706.52" rx="103.19" ry="18"/>
<ellipse fill="none" stroke="black" cx="599" cy="-706.52" rx="107.19" ry="22"/>
<ellipse fill="none" stroke="black" cx="599" cy="-706.52" rx="111.18" ry="26"/>
<text text-anchor="middle" x="599" y="-702.82" font-family="Times,serif" font-size="14.00">trunc_path_IsHProp</text>
</a>
</g>
</g>
<!-- TruncType_is_true -->
<g id="node10" class="node">
<title>TruncType_is_true</title>
<g id="a_node10"><a xlink:href="TruncType.html#is_true" xlink:title="is_true">
<ellipse fill="#f070d1" stroke="black" cx="394" cy="-706.52" rx="42.45" ry="18"/>
<ellipse fill="none" stroke="black" cx="394" cy="-706.52" rx="46.47" ry="22"/>
<ellipse fill="none" stroke="black" cx="394" cy="-706.52" rx="50.49" ry="26"/>
<text text-anchor="middle" x="394" y="-702.82" font-family="Times,serif" font-size="14.00">is_true</text>
</a>
</g>
</g>
<!-- TruncType_False_hp -->
<g id="node12" class="node">
<title>TruncType_False_hp</title>
<g id="a_node12"><a xlink:href="TruncType.html#False_hp" xlink:title="False_hp">
<ellipse fill="#f070d1" stroke="black" cx="335" cy="-611.52" rx="51.19" ry="18"/>
<text text-anchor="middle" x="335" y="-607.82" font-family="Times,serif" font-size="14.00">False_hp</text>
</a>
</g>
</g>
<!-- TruncType_is_true&#45;&gt;TruncType_False_hp -->
<g id="edge10" class="edge">
<title>TruncType_is_true&#45;&gt;TruncType_False_hp</title>
<path fill="none" stroke="black" d="M378.81,-681.57C370.37,-668.27 359.88,-651.74 351.28,-638.18"/>
<polygon fill="black" stroke="black" points="353.99,-635.91 345.68,-629.35 348.08,-639.66 353.99,-635.91"/>
</g>
<!-- TruncType_Unit_hp -->
<g id="node13" class="node">
<title>TruncType_Unit_hp</title>
<g id="a_node13"><a xlink:href="TruncType.html#Unit_hp" xlink:title="Unit_hp">
<ellipse fill="#f070d1" stroke="black" cx="452" cy="-611.52" rx="47.39" ry="18"/>
<text text-anchor="middle" x="452" y="-607.82" font-family="Times,serif" font-size="14.00">Unit_hp</text>
</a>
</g>
</g>
<!-- TruncType_is_true&#45;&gt;TruncType_Unit_hp -->
<g id="edge11" class="edge">
<title>TruncType_is_true&#45;&gt;TruncType_Unit_hp</title>
<path fill="none" stroke="black" d="M408.94,-681.57C417.23,-668.27 427.54,-651.74 436,-638.18"/>
<polygon fill="black" stroke="black" points="439.18,-639.68 441.51,-629.35 433.24,-635.98 439.18,-639.68"/>
</g>
<!-- TruncType_Negation_hp -->
<g id="node11" class="node">
<title>TruncType_Negation_hp</title>
<g id="a_node11"><a xlink:href="TruncType.html#Negation_hp" xlink:title="Negation_hp">
<ellipse fill="#f070d1" stroke="black" cx="197" cy="-706.52" rx="69.58" ry="18"/>
<ellipse fill="none" stroke="black" cx="197" cy="-706.52" rx="73.59" ry="22"/>
<ellipse fill="none" stroke="black" cx="197" cy="-706.52" rx="77.59" ry="26"/>
<text text-anchor="middle" x="197" y="-702.82" font-family="Times,serif" font-size="14.00">Negation_hp</text>
</a>
</g>
</g>
<!-- TruncType_istrunc_sig_istrunc -->
<g id="node14" class="node">
<title>TruncType_istrunc_sig_istrunc</title>
<g id="a_node14"><a xlink:href="TruncType.html#istrunc_sig_istrunc" xlink:title="istrunc_sig_istrunc">
<ellipse fill="#f070d1" stroke="black" cx="1445" cy="-516.52" rx="98.6" ry="18"/>
<ellipse fill="none" stroke="black" cx="1445" cy="-516.52" rx="102.59" ry="22"/>
<ellipse fill="none" stroke="black" cx="1445" cy="-516.52" rx="106.58" ry="26"/>
<text text-anchor="middle" x="1445" y="-512.82" font-family="Times,serif" font-size="14.00">istrunc_sig_istrunc</text>
</a>
</g>
</g>
<!-- TruncType_istrunc_trunctype -->
<g id="node16" class="node">
<title>TruncType_istrunc_trunctype</title>
<g id="a_node16"><a xlink:href="TruncType.html#istrunc_trunctype" xlink:title="istrunc_trunctype">
<ellipse fill="#f070d1" stroke="black" cx="1245" cy="-421.52" rx="92.88" ry="18"/>
<text text-anchor="middle" x="1245" y="-417.82" font-family="Times,serif" font-size="14.00">istrunc_trunctype</text>
</a>
</g>
</g>
<!-- TruncType_istrunc_sig_istrunc&#45;&gt;TruncType_istrunc_trunctype -->
<g id="edge12" class="edge">
<title>TruncType_istrunc_sig_istrunc&#45;&gt;TruncType_istrunc_trunctype</title>
<path fill="none" stroke="black" d="M1397.1,-493.24C1363.96,-477.84 1320.25,-457.51 1288.19,-442.6"/>
<polygon fill="black" stroke="black" points="1289.6,-439.4 1279.06,-438.35 1286.65,-445.74 1289.6,-439.4"/>
</g>
<!-- TruncType_isset_HProp -->
<g id="node15" class="node">
<title>TruncType_isset_HProp</title>
<g id="a_node15"><a xlink:href="TruncType.html#isset_HProp" xlink:title="isset_HProp">
<ellipse fill="#f070d1" stroke="black" cx="1245" cy="-516.52" rx="66.89" ry="18"/>
<ellipse fill="none" stroke="black" cx="1245" cy="-516.52" rx="70.89" ry="22"/>
<ellipse fill="none" stroke="black" cx="1245" cy="-516.52" rx="74.89" ry="26"/>
<text text-anchor="middle" x="1245" y="-512.82" font-family="Times,serif" font-size="14.00">isset_HProp</text>
</a>
</g>
</g>
<!-- TruncType_isset_HProp&#45;&gt;TruncType_istrunc_trunctype -->
<g id="edge13" class="edge">
<title>TruncType_isset_HProp&#45;&gt;TruncType_istrunc_trunctype</title>
<path fill="none" stroke="black" d="M1245,-490.1C1245,-477.58 1245,-462.48 1245,-449.72"/>
<polygon fill="black" stroke="black" points="1248.5,-449.67 1245,-439.67 1241.5,-449.67 1248.5,-449.67"/>
</g>
<!-- TruncType_equiv_path_trunctype -->
<g id="node25" class="node">
<title>TruncType_equiv_path_trunctype</title>
<g id="a_node25"><a xlink:href="TruncType.html#equiv_path_trunctype" xlink:title="equiv_path_trunctype">
<ellipse fill="#f070d1" stroke="black" cx="909" cy="-325.52" rx="111.28" ry="18"/>
<text text-anchor="middle" x="909" y="-321.82" font-family="Times,serif" font-size="14.00">equiv_path_trunctype</text>
</a>
</g>
</g>
<!-- TruncType_istrunc_trunctype&#45;&gt;TruncType_equiv_path_trunctype -->
<g id="edge14" class="edge">
<title>TruncType_istrunc_trunctype&#45;&gt;TruncType_equiv_path_trunctype</title>
<path fill="none" stroke="black" d="M1194.33,-406.34C1134.91,-389.72 1036.35,-362.15 972.04,-344.15"/>
<polygon fill="black" stroke="black" points="972.6,-340.68 962.02,-341.35 970.71,-347.42 972.6,-340.68"/>
</g>
<!-- TruncType_path_trunctype -->
<g id="node24" class="node">
<title>TruncType_path_trunctype</title>
<g id="a_node24"><a xlink:href="TruncType.html#path_trunctype" xlink:title="path_trunctype">
<ellipse fill="#f070d1" stroke="black" cx="841" cy="-421.52" rx="81.49" ry="18"/>
<text text-anchor="middle" x="841" y="-417.82" font-family="Times,serif" font-size="14.00">path_trunctype</text>
</a>
</g>
</g>
<!-- TruncType_path_hprop&#45;&gt;TruncType_path_trunctype -->
<g id="edge15" class="edge">
<title>TruncType_path_hprop&#45;&gt;TruncType_path_trunctype</title>
<path fill="none" stroke="black" d="M1051.29,-501.69C1008.42,-485.55 937.33,-458.79 889.83,-440.9"/>
<polygon fill="black" stroke="black" points="890.96,-437.59 880.37,-437.34 888.49,-444.14 890.96,-437.59"/>
</g>
<!-- TruncType_path_hset -->
<g id="node18" class="node">
<title>TruncType_path_hset</title>
<g id="a_node18"><a xlink:href="TruncType.html#path_hset" xlink:title="path_hset">
<ellipse fill="#f070d1" stroke="black" cx="922" cy="-516.52" rx="55.8" ry="18"/>
<ellipse fill="none" stroke="black" cx="922" cy="-516.52" rx="59.8" ry="22"/>
<ellipse fill="none" stroke="black" cx="922" cy="-516.52" rx="63.79" ry="26"/>
<text text-anchor="middle" x="922" y="-512.82" font-family="Times,serif" font-size="14.00">path_hset</text>
</a>
</g>
</g>
<!-- TruncType_path_hset&#45;&gt;TruncType_path_trunctype -->
<g id="edge16" class="edge">
<title>TruncType_path_hset&#45;&gt;TruncType_path_trunctype</title>
<path fill="none" stroke="black" d="M901.14,-491.57C889.23,-477.89 874.33,-460.78 862.34,-447.01"/>
<polygon fill="black" stroke="black" points="864.86,-444.59 855.66,-439.35 859.59,-449.19 864.86,-444.59"/>
</g>
<!-- TruncType_ap_trunctype -->
<g id="node19" class="node">
<title>TruncType_ap_trunctype</title>
<g id="a_node19"><a xlink:href="TruncType.html#ap_trunctype" xlink:title="ap_trunctype">
<ellipse fill="#f070d1" stroke="black" cx="761" cy="-516.52" rx="71.49" ry="18"/>
<ellipse fill="none" stroke="black" cx="761" cy="-516.52" rx="75.49" ry="22"/>
<ellipse fill="none" stroke="black" cx="761" cy="-516.52" rx="79.49" ry="26"/>
<text text-anchor="middle" x="761" y="-512.82" font-family="Times,serif" font-size="14.00">ap_trunctype</text>
</a>
</g>
</g>
<!-- TruncType_ap_trunctype&#45;&gt;TruncType_path_trunctype -->
<g id="edge17" class="edge">
<title>TruncType_ap_trunctype&#45;&gt;TruncType_path_trunctype</title>
<path fill="none" stroke="black" d="M782.02,-491.08C793.71,-477.5 808.21,-460.64 819.91,-447.04"/>
<polygon fill="black" stroke="black" points="822.56,-449.32 826.43,-439.46 817.25,-444.76 822.56,-449.32"/>
</g>
<!-- TruncType_path_trunctype_pp -->
<g id="node20" class="node">
<title>TruncType_path_trunctype_pp</title>
<g id="a_node20"><a xlink:href="TruncType.html#path_trunctype_pp" xlink:title="path_trunctype_pp">
<ellipse fill="#f070d1" stroke="black" cx="558" cy="-516.52" rx="97.48" ry="18"/>
<ellipse fill="none" stroke="black" cx="558" cy="-516.52" rx="101.48" ry="22"/>
<ellipse fill="none" stroke="black" cx="558" cy="-516.52" rx="105.48" ry="26"/>
<text text-anchor="middle" x="558" y="-512.82" font-family="Times,serif" font-size="14.00">path_trunctype_pp</text>
</a>
</g>
</g>
<!-- TruncType_path_trunctype_pp&#45;&gt;TruncType_path_trunctype -->
<g id="edge18" class="edge">
<title>TruncType_path_trunctype_pp&#45;&gt;TruncType_path_trunctype</title>
<path fill="none" stroke="black" d="M619.41,-495.34C669.75,-478.79 740.25,-455.62 788.12,-439.9"/>
<polygon fill="black" stroke="black" points="789.27,-443.2 797.67,-436.76 787.08,-436.55 789.27,-443.2"/>
</g>
<!-- TruncType_path_trunctype_V -->
<g id="node21" class="node">
<title>TruncType_path_trunctype_V</title>
<g id="a_node21"><a xlink:href="TruncType.html#path_trunctype_V" xlink:title="path_trunctype_V">
<ellipse fill="#f070d1" stroke="black" cx="334" cy="-516.52" rx="92.1" ry="18"/>
<ellipse fill="none" stroke="black" cx="334" cy="-516.52" rx="96.09" ry="22"/>
<ellipse fill="none" stroke="black" cx="334" cy="-516.52" rx="100.08" ry="26"/>
<text text-anchor="middle" x="334" y="-512.82" font-family="Times,serif" font-size="14.00">path_trunctype_V</text>
</a>
</g>
</g>
<!-- TruncType_path_trunctype_V&#45;&gt;TruncType_path_trunctype -->
<g id="edge19" class="edge">
<title>TruncType_path_trunctype_V&#45;&gt;TruncType_path_trunctype</title>
<path fill="none" stroke="black" d="M406.36,-498.49C418.89,-495.71 431.8,-492.95 444,-490.52 555.97,-468.22 686.6,-446.71 766.54,-434.04"/>
<polygon fill="black" stroke="black" points="767.18,-437.49 776.51,-432.47 766.09,-430.57 767.18,-437.49"/>
</g>
<!-- TruncType_path_trunctype_1 -->
<g id="node22" class="node">
<title>TruncType_path_trunctype_1</title>
<g id="a_node22"><a xlink:href="TruncType.html#path_trunctype_1" xlink:title="path_trunctype_1">
<ellipse fill="#f070d1" stroke="black" cx="116" cy="-516.52" rx="91.77" ry="18"/>
<ellipse fill="none" stroke="black" cx="116" cy="-516.52" rx="95.78" ry="22"/>
<ellipse fill="none" stroke="black" cx="116" cy="-516.52" rx="99.78" ry="26"/>
<text text-anchor="middle" x="116" y="-512.82" font-family="Times,serif" font-size="14.00">path_trunctype_1</text>
</a>
</g>
</g>
<!-- TruncType_path_trunctype_1&#45;&gt;TruncType_path_trunctype -->
<g id="edge20" class="edge">
<title>TruncType_path_trunctype_1&#45;&gt;TruncType_path_trunctype</title>
<path fill="none" stroke="black" d="M186.42,-498.12C199.2,-495.31 212.46,-492.64 225,-490.52 412.86,-458.71 635.59,-438.37 755.04,-428.85"/>
<polygon fill="black" stroke="black" points="755.53,-432.32 765.22,-428.05 754.98,-425.35 755.53,-432.32"/>
</g>
<!-- TruncType_isequiv_path_trunctype&#45;&gt;TruncType_path_trunctype -->
<g id="edge21" class="edge">
<title>TruncType_isequiv_path_trunctype&#45;&gt;TruncType_path_trunctype</title>
<path fill="none" stroke="black" d="M944.57,-594.1C962.9,-582.4 984.6,-564.82 995,-542.52 1004.76,-521.57 1007.62,-509.88 995,-490.52 976.72,-462.46 943.94,-445.89 913.31,-436.15"/>
<polygon fill="black" stroke="black" points="914.05,-432.72 903.47,-433.23 912.05,-439.43 914.05,-432.72"/>
</g>
<!-- TruncType_path_trunctype&#45;&gt;TruncType_equiv_path_trunctype -->
<g id="edge22" class="edge">
<title>TruncType_path_trunctype&#45;&gt;TruncType_equiv_path_trunctype</title>
<path fill="none" stroke="black" d="M853.16,-403.71C863.63,-389.23 878.9,-368.12 890.83,-351.63"/>
<polygon fill="black" stroke="black" points="893.69,-353.65 896.72,-343.49 888.02,-349.55 893.69,-353.65"/>
</g>
<!-- TruncType_equiv_path_trunctype&#45;&gt;TruncType_equiv_path_trunctype_ -->
<g id="edge23" class="edge">
<title>TruncType_equiv_path_trunctype&#45;&gt;TruncType_equiv_path_trunctype_</title>
<path fill="none" stroke="black" d="M906.25,-307.46C904.06,-293.91 900.96,-274.7 898.43,-258.99"/>
<polygon fill="black" stroke="black" points="901.83,-258.1 896.78,-248.78 894.92,-259.21 901.83,-258.1"/>
</g>
<!-- TruncType_isequiv_ap_trunctype -->
<g id="node26" class="node">
<title>TruncType_isequiv_ap_trunctype</title>
<g id="a_node26"><a xlink:href="TruncType.html#isequiv_ap_trunctype" xlink:title="isequiv_ap_trunctype">
<ellipse fill="#f070d1" stroke="black" cx="663" cy="-325.52" rx="109.37" ry="18"/>
<ellipse fill="none" stroke="black" cx="663" cy="-325.52" rx="113.37" ry="22"/>
<ellipse fill="none" stroke="black" cx="663" cy="-325.52" rx="117.38" ry="26"/>
<text text-anchor="middle" x="663" y="-321.82" font-family="Times,serif" font-size="14.00">isequiv_ap_trunctype</text>
</a>
</g>
</g>
<!-- TruncType_isequiv_ap_trunctype&#45;&gt;TruncType_equiv_path_trunctype_ -->
<g id="edge24" class="edge">
<title>TruncType_isequiv_ap_trunctype&#45;&gt;TruncType_equiv_path_trunctype_</title>
<path fill="none" stroke="black" d="M717.74,-302.48C756.32,-286.95 807.54,-266.32 844.82,-251.32"/>
<polygon fill="black" stroke="black" points="846.49,-254.42 854.46,-247.43 843.88,-247.92 846.49,-254.42"/>
</g>
<!-- TruncType_issig_trunctype -->
<g id="node28" class="node">
<title>TruncType_issig_trunctype</title>
<g id="a_node28"><a xlink:href="TruncType.html#issig_trunctype" xlink:title="issig_trunctype">
<ellipse fill="#f070d1" stroke="black" cx="836" cy="-135.52" rx="81.79" ry="18"/>
<text text-anchor="middle" x="836" y="-131.82" font-family="Times,serif" font-size="14.00">issig_trunctype</text>
</a>
</g>
</g>
<!-- TruncType_equiv_path_trunctype_&#45;&gt;TruncType_issig_trunctype -->
<g id="edge25" class="edge">
<title>TruncType_equiv_path_trunctype_&#45;&gt;TruncType_issig_trunctype</title>
<path fill="none" stroke="black" d="M883.36,-212.46C874.61,-198.43 862.08,-178.33 852.1,-162.34"/>
<polygon fill="black" stroke="black" points="854.83,-160.1 846.57,-153.47 848.89,-163.8 854.83,-160.1"/>
</g>
</g>
</svg>
