<?xml version="1.0" encoding="UTF-8" standalone="no"?>
<!DOCTYPE svg PUBLIC "-//W3C//DTD SVG 1.1//EN"
 "http://www.w3.org/Graphics/SVG/1.1/DTD/svg11.dtd">
<!-- Generated by graphviz version 2.43.0 (0)
 -->
<!-- Title: HoTT_Modalities_Open Pages: 1 -->
<svg width="386pt" height="197pt"
 viewBox="0.00 0.00 386.00 197.00" xmlns="http://www.w3.org/2000/svg" xmlns:xlink="http://www.w3.org/1999/xlink">
<g id="graph0" class="graph" transform="scale(1 1) rotate(0) translate(4 193)">
<title>HoTT_Modalities_Open</title>
<polygon fill="white" stroke="transparent" points="-4,4 -4,-193 382,-193 382,4 -4,4"/>
<g id="clust1" class="cluster">
<title>cluster_Open</title>
<polygon fill="#ffffc3" stroke="black" points="8,-8.45 8,-180.55 370,-180.55 370,-8.45 8,-8.45"/>
<text text-anchor="middle" x="35" y="-165.35" font-family="Times,serif" font-size="14.00">Open</text>
</g>
<!-- Open_Op_ -->
<g id="node1" class="node">
<title>Open_Op_</title>
<g id="a_node1"><a xlink:href="Open.html#Op'" xlink:title="Op&#39;">
<ellipse fill="#f070d1" stroke="black" cx="327" cy="-120.45" rx="27" ry="18"/>
<ellipse fill="none" stroke="black" cx="327" cy="-120.45" rx="31" ry="22"/>
<ellipse fill="none" stroke="black" cx="327" cy="-120.45" rx="35" ry="26"/>
<text text-anchor="middle" x="327" y="-116.75" font-family="Times,serif" font-size="14.00">Op&#39;</text>
</a>
</g>
</g>
<!-- Open_acc_open -->
<g id="node2" class="node">
<title>Open_acc_open</title>
<g id="a_node2"><a xlink:href="Open.html#acc_open" xlink:title="acc_open">
<ellipse fill="#f070d1" stroke="black" cx="213" cy="-120.45" rx="52.77" ry="18"/>
<ellipse fill="none" stroke="black" cx="213" cy="-120.45" rx="56.78" ry="22"/>
<ellipse fill="none" stroke="black" cx="213" cy="-120.45" rx="60.79" ry="26"/>
<text text-anchor="middle" x="213" y="-116.75" font-family="Times,serif" font-size="14.00">acc_open</text>
</a>
</g>
</g>
<!-- Open_Op -->
<g id="node4" class="node">
<title>Open_Op</title>
<g id="a_node4"><a xlink:href="Open.html#Op" xlink:title="Op">
<ellipse fill="#f070d1" stroke="black" cx="144" cy="-35.45" rx="27" ry="18"/>
<text text-anchor="middle" x="144" y="-31.75" font-family="Times,serif" font-size="14.00">Op</text>
</a>
</g>
</g>
<!-- Open_acc_open&#45;&gt;Open_Op -->
<g id="edge1" class="edge">
<title>Open_acc_open&#45;&gt;Open_Op</title>
<path fill="none" stroke="black" d="M193.04,-95.44C183.56,-84.04 172.29,-70.48 162.94,-59.23"/>
<polygon fill="black" stroke="black" points="165.61,-56.97 156.53,-51.52 160.23,-61.45 165.61,-56.97"/>
</g>
<!-- Open_lex_open -->
<g id="node3" class="node">
<title>Open_lex_open</title>
<g id="a_node3"><a xlink:href="Open.html#lex_open" xlink:title="lex_open">
<ellipse fill="#f070d1" stroke="black" cx="75" cy="-120.45" rx="51.21" ry="18"/>
<ellipse fill="none" stroke="black" cx="75" cy="-120.45" rx="55.2" ry="22"/>
<ellipse fill="none" stroke="black" cx="75" cy="-120.45" rx="59.19" ry="26"/>
<text text-anchor="middle" x="75" y="-116.75" font-family="Times,serif" font-size="14.00">lex_open</text>
</a>
</g>
</g>
<!-- Open_lex_open&#45;&gt;Open_Op -->
<g id="edge2" class="edge">
<title>Open_lex_open&#45;&gt;Open_Op</title>
<path fill="none" stroke="black" d="M94.59,-95.88C104.08,-84.47 115.43,-70.81 124.86,-59.47"/>
<polygon fill="black" stroke="black" points="127.63,-61.61 131.33,-51.68 122.25,-57.13 127.63,-61.61"/>
</g>
</g>
</svg>
