<?xml version="1.0" encoding="UTF-8" standalone="no"?>
<!DOCTYPE svg PUBLIC "-//W3C//DTD SVG 1.1//EN"
 "http://www.w3.org/Graphics/SVG/1.1/DTD/svg11.dtd">
<!-- Generated by graphviz version 2.43.0 (0)
 -->
<!-- Title: HoTT_WildCat_Bifunctor Pages: 1 -->
<svg width="2997pt" height="1503pt"
 viewBox="0.00 0.00 2997.00 1502.50" xmlns="http://www.w3.org/2000/svg" xmlns:xlink="http://www.w3.org/1999/xlink">
<g id="graph0" class="graph" transform="scale(1 1) rotate(0) translate(4 1498.5)">
<title>HoTT_WildCat_Bifunctor</title>
<polygon fill="white" stroke="transparent" points="-4,4 -4,-1498.5 2993,-1498.5 2993,4 -4,4"/>
<g id="clust1" class="cluster">
<title>cluster_Bifunctor</title>
<polygon fill="#ffffc3" stroke="black" points="8,-33.68 8,-1460.82 2981,-1460.82 2981,-33.68 8,-33.68"/>
<text text-anchor="middle" x="49.5" y="-1445.62" font-family="Times,serif" font-size="14.00">Bifunctor</text>
</g>
<!-- Bifunctor_is1bifunctor_compose -->
<g id="node1" class="node">
<title>Bifunctor_is1bifunctor_compose</title>
<g id="a_node1"><a xlink:href="Bifunctor.html#is1bifunctor_compose" xlink:title="is1bifunctor_compose">
<ellipse fill="#f070d1" stroke="black" cx="904" cy="-850.68" rx="111.59" ry="18"/>
<ellipse fill="none" stroke="black" cx="904" cy="-850.68" rx="115.59" ry="22"/>
<ellipse fill="none" stroke="black" cx="904" cy="-850.68" rx="119.58" ry="26"/>
<text text-anchor="middle" x="904" y="-846.98" font-family="Times,serif" font-size="14.00">is1bifunctor_compose</text>
</a>
</g>
</g>
<!-- Bifunctor_is0bifunctor_compose -->
<g id="node2" class="node">
<title>Bifunctor_is0bifunctor_compose</title>
<g id="a_node2"><a xlink:href="Bifunctor.html#is0bifunctor_compose" xlink:title="is0bifunctor_compose">
<ellipse fill="#f070d1" stroke="black" cx="1127" cy="-479.68" rx="111.58" ry="18"/>
<text text-anchor="middle" x="1127" y="-475.98" font-family="Times,serif" font-size="14.00">is0bifunctor_compose</text>
</a>
</g>
</g>
<!-- Bifunctor_is1bifunctor_compose&#45;&gt;Bifunctor_is0bifunctor_compose -->
<g id="edge1" class="edge">
<title>Bifunctor_is1bifunctor_compose&#45;&gt;Bifunctor_is0bifunctor_compose</title>
<path fill="none" stroke="black" d="M919.15,-824.61C959.69,-757.52 1070.34,-574.43 1111.4,-506.5"/>
<polygon fill="black" stroke="black" points="1114.54,-508.07 1116.71,-497.7 1108.55,-504.45 1114.54,-508.07"/>
</g>
<!-- Bifunctor_Build_Is1Bifunctor -->
<g id="node23" class="node">
<title>Bifunctor_Build_Is1Bifunctor</title>
<g id="a_node23"><a xlink:href="Bifunctor.html#Build_Is1Bifunctor" xlink:title="Build_Is1Bifunctor">
<ellipse fill="#7faaff" stroke="black" cx="1354" cy="-479.68" rx="96.68" ry="18"/>
<text text-anchor="middle" x="1354" y="-475.98" font-family="Times,serif" font-size="14.00">Build_Is1Bifunctor</text>
</a>
</g>
</g>
<!-- Bifunctor_is1bifunctor_compose&#45;&gt;Bifunctor_Build_Is1Bifunctor -->
<g id="edge2" class="edge">
<title>Bifunctor_is1bifunctor_compose&#45;&gt;Bifunctor_Build_Is1Bifunctor</title>
<path fill="none" stroke="black" d="M933.53,-825.47C1015.57,-758.19 1245.53,-569.62 1325.87,-503.75"/>
<polygon fill="black" stroke="black" points="1328.09,-506.45 1333.61,-497.4 1323.65,-501.04 1328.09,-506.45"/>
</g>
<!-- Bifunctor_Is1Bifunctor -->
<g id="node24" class="node">
<title>Bifunctor_Is1Bifunctor</title>
<g id="a_node24"><a xlink:href="Bifunctor.html#Is1Bifunctor" xlink:title="Is1Bifunctor">
<ellipse fill="#e2cdfa" stroke="black" cx="1537" cy="-479.68" rx="68.49" ry="18"/>
<text text-anchor="middle" x="1537" y="-475.98" font-family="Times,serif" font-size="14.00">Is1Bifunctor</text>
</a>
</g>
</g>
<!-- Bifunctor_is1bifunctor_compose&#45;&gt;Bifunctor_Is1Bifunctor -->
<g id="edge3" class="edge">
<title>Bifunctor_is1bifunctor_compose&#45;&gt;Bifunctor_Is1Bifunctor</title>
<path fill="none" stroke="black" d="M944.56,-826.03C1060.54,-758.42 1392.26,-565.05 1501.58,-501.33"/>
<polygon fill="black" stroke="black" points="1503.39,-504.32 1510.26,-496.26 1499.86,-498.28 1503.39,-504.32"/>
</g>
<!-- Bifunctor_Build_Is0Bifunctor -->
<g id="node31" class="node">
<title>Bifunctor_Build_Is0Bifunctor</title>
<g id="a_node31"><a xlink:href="Bifunctor.html#Build_Is0Bifunctor" xlink:title="Build_Is0Bifunctor">
<ellipse fill="#7faaff" stroke="black" cx="689" cy="-142.68" rx="96.68" ry="18"/>
<text text-anchor="middle" x="689" y="-138.98" font-family="Times,serif" font-size="14.00">Build_Is0Bifunctor</text>
</a>
</g>
</g>
<!-- Bifunctor_is0bifunctor_compose&#45;&gt;Bifunctor_Build_Is0Bifunctor -->
<g id="edge4" class="edge">
<title>Bifunctor_is0bifunctor_compose&#45;&gt;Bifunctor_Build_Is0Bifunctor</title>
<path fill="none" stroke="black" d="M1104.98,-461.84C1032.53,-406.42 801.48,-229.71 718.79,-166.46"/>
<polygon fill="black" stroke="black" points="720.87,-163.65 710.8,-160.36 716.62,-169.21 720.87,-163.65"/>
</g>
<!-- Bifunctor_Is0Bifunctor -->
<g id="node32" class="node">
<title>Bifunctor_Is0Bifunctor</title>
<g id="a_node32"><a xlink:href="Bifunctor.html#Is0Bifunctor" xlink:title="Is0Bifunctor">
<ellipse fill="#e2cdfa" stroke="black" cx="1537" cy="-142.68" rx="68.49" ry="18"/>
<text text-anchor="middle" x="1537" y="-138.98" font-family="Times,serif" font-size="14.00">Is0Bifunctor</text>
</a>
</g>
</g>
<!-- Bifunctor_is0bifunctor_compose&#45;&gt;Bifunctor_Is0Bifunctor -->
<g id="edge5" class="edge">
<title>Bifunctor_is0bifunctor_compose&#45;&gt;Bifunctor_Is0Bifunctor</title>
<path fill="none" stroke="black" d="M1147.61,-461.84C1215.45,-406.41 1431.84,-229.6 1509.18,-166.41"/>
<polygon fill="black" stroke="black" points="1511.54,-169 1517.07,-159.96 1507.11,-163.58 1511.54,-169"/>
</g>
<!-- Bifunctor_is1functor_uncurry_bifunctor -->
<g id="node3" class="node">
<title>Bifunctor_is1functor_uncurry_bifunctor</title>
<g id="a_node3"><a xlink:href="Bifunctor.html#is1functor_uncurry_bifunctor" xlink:title="is1functor_uncurry_bifunctor">
<ellipse fill="#f070d1" stroke="black" cx="2774" cy="-1220.68" rx="145.67" ry="18"/>
<ellipse fill="none" stroke="black" cx="2774" cy="-1220.68" rx="149.67" ry="22"/>
<ellipse fill="none" stroke="black" cx="2774" cy="-1220.68" rx="153.67" ry="26"/>
<text text-anchor="middle" x="2774" y="-1216.98" font-family="Times,serif" font-size="14.00">is1functor_uncurry_bifunctor</text>
</a>
</g>
</g>
<!-- Bifunctor_is0functor_uncurry_bifunctor -->
<g id="node4" class="node">
<title>Bifunctor_is0functor_uncurry_bifunctor</title>
<g id="a_node4"><a xlink:href="Bifunctor.html#is0functor_uncurry_bifunctor" xlink:title="is0functor_uncurry_bifunctor">
<ellipse fill="#f070d1" stroke="black" cx="2827" cy="-850.68" rx="145.67" ry="18"/>
<text text-anchor="middle" x="2827" y="-846.98" font-family="Times,serif" font-size="14.00">is0functor_uncurry_bifunctor</text>
</a>
</g>
</g>
<!-- Bifunctor_is1functor_uncurry_bifunctor&#45;&gt;Bifunctor_is0functor_uncurry_bifunctor -->
<g id="edge6" class="edge">
<title>Bifunctor_is1functor_uncurry_bifunctor&#45;&gt;Bifunctor_is0functor_uncurry_bifunctor</title>
<path fill="none" stroke="black" d="M2777.6,-1194.67C2787.16,-1128.34 2813.09,-948.25 2823.04,-879.16"/>
<polygon fill="black" stroke="black" points="2826.53,-879.46 2824.5,-869.07 2819.61,-878.46 2826.53,-879.46"/>
</g>
<!-- Bifunctor_fmap22 -->
<g id="node7" class="node">
<title>Bifunctor_fmap22</title>
<g id="a_node7"><a xlink:href="Bifunctor.html#fmap22" xlink:title="fmap22">
<ellipse fill="#f070d1" stroke="black" cx="2617" cy="-850.68" rx="46.29" ry="18"/>
<text text-anchor="middle" x="2617" y="-846.98" font-family="Times,serif" font-size="14.00">fmap22</text>
</a>
</g>
</g>
<!-- Bifunctor_is1functor_uncurry_bifunctor&#45;&gt;Bifunctor_fmap22 -->
<g id="edge7" class="edge">
<title>Bifunctor_is1functor_uncurry_bifunctor&#45;&gt;Bifunctor_fmap22</title>
<path fill="none" stroke="black" d="M2763.33,-1194.67C2734.91,-1128.05 2657.53,-946.67 2628.34,-878.26"/>
<polygon fill="black" stroke="black" points="2631.39,-876.48 2624.24,-868.65 2624.95,-879.22 2631.39,-876.48"/>
</g>
<!-- Bifunctor_fmap11 -->
<g id="node9" class="node">
<title>Bifunctor_fmap11</title>
<g id="a_node9"><a xlink:href="Bifunctor.html#fmap11" xlink:title="fmap11">
<ellipse fill="#f070d1" stroke="black" cx="2229" cy="-479.68" rx="46.29" ry="18"/>
<text text-anchor="middle" x="2229" y="-475.98" font-family="Times,serif" font-size="14.00">fmap11</text>
</a>
</g>
</g>
<!-- Bifunctor_is0functor_uncurry_bifunctor&#45;&gt;Bifunctor_fmap11 -->
<g id="edge8" class="edge">
<title>Bifunctor_is0functor_uncurry_bifunctor&#45;&gt;Bifunctor_fmap11</title>
<path fill="none" stroke="black" d="M2799.75,-832.86C2701.73,-772.38 2367.27,-566 2261.41,-500.68"/>
<polygon fill="black" stroke="black" points="2263.09,-497.6 2252.75,-495.33 2259.42,-503.56 2263.09,-497.6"/>
</g>
<!-- Bifunctor_emap11 -->
<g id="node5" class="node">
<title>Bifunctor_emap11</title>
<g id="a_node5"><a xlink:href="Bifunctor.html#emap11" xlink:title="emap11">
<ellipse fill="#f070d1" stroke="black" cx="2502" cy="-1220.68" rx="48.18" ry="18"/>
<ellipse fill="none" stroke="black" cx="2502" cy="-1220.68" rx="52.18" ry="22"/>
<ellipse fill="none" stroke="black" cx="2502" cy="-1220.68" rx="56.19" ry="26"/>
<text text-anchor="middle" x="2502" y="-1216.98" font-family="Times,serif" font-size="14.00">emap11</text>
</a>
</g>
</g>
<!-- Bifunctor_iemap11 -->
<g id="node6" class="node">
<title>Bifunctor_iemap11</title>
<g id="a_node6"><a xlink:href="Bifunctor.html#iemap11" xlink:title="iemap11">
<ellipse fill="#f070d1" stroke="black" cx="2502" cy="-850.68" rx="50.89" ry="18"/>
<text text-anchor="middle" x="2502" y="-846.98" font-family="Times,serif" font-size="14.00">iemap11</text>
</a>
</g>
</g>
<!-- Bifunctor_emap11&#45;&gt;Bifunctor_iemap11 -->
<g id="edge9" class="edge">
<title>Bifunctor_emap11&#45;&gt;Bifunctor_iemap11</title>
<path fill="none" stroke="black" d="M2502,-1194.67C2502,-1128.34 2502,-948.25 2502,-879.16"/>
<polygon fill="black" stroke="black" points="2505.5,-879.07 2502,-869.07 2498.5,-879.07 2505.5,-879.07"/>
</g>
<!-- Bifunctor_iemap11&#45;&gt;Bifunctor_fmap11 -->
<g id="edge10" class="edge">
<title>Bifunctor_iemap11&#45;&gt;Bifunctor_fmap11</title>
<path fill="none" stroke="black" d="M2489.56,-832.86C2445.85,-773.78 2299.13,-575.47 2247.31,-505.43"/>
<polygon fill="black" stroke="black" points="2249.96,-503.13 2241.2,-497.17 2244.33,-507.29 2249.96,-503.13"/>
</g>
<!-- Bifunctor_iemap11&#45;&gt;Bifunctor_Is1Bifunctor -->
<g id="edge11" class="edge">
<title>Bifunctor_iemap11&#45;&gt;Bifunctor_Is1Bifunctor</title>
<path fill="none" stroke="black" d="M2470.63,-836.39C2461.43,-832.55 2451.33,-828.4 2442,-824.68 2115.98,-694.84 1719.81,-547.98 1584.75,-498.22"/>
<polygon fill="black" stroke="black" points="1585.69,-494.84 1575.1,-494.67 1583.28,-501.41 1585.69,-494.84"/>
</g>
<!-- Bifunctor_fmap22&#45;&gt;Bifunctor_fmap11 -->
<g id="edge12" class="edge">
<title>Bifunctor_fmap22&#45;&gt;Bifunctor_fmap11</title>
<path fill="none" stroke="black" d="M2600.33,-833.82C2538.89,-775.39 2324.97,-571.95 2252.91,-503.42"/>
<polygon fill="black" stroke="black" points="2255.27,-500.83 2245.61,-496.48 2250.44,-505.9 2255.27,-500.83"/>
</g>
<!-- Bifunctor_fmap22&#45;&gt;Bifunctor_Is1Bifunctor -->
<g id="edge13" class="edge">
<title>Bifunctor_fmap22&#45;&gt;Bifunctor_Is1Bifunctor</title>
<path fill="none" stroke="black" d="M2588.98,-836.27C2580.4,-832.35 2570.88,-828.18 2562,-824.68 2466.14,-786.92 1780.76,-560.9 1587.57,-497.31"/>
<polygon fill="black" stroke="black" points="1588.54,-493.95 1577.95,-494.14 1586.35,-500.59 1588.54,-493.95"/>
</g>
<!-- Bifunctor_fmap11_ -->
<g id="node8" class="node">
<title>Bifunctor_fmap11_</title>
<g id="a_node8"><a xlink:href="Bifunctor.html#fmap11'" xlink:title="fmap11&#39;">
<ellipse fill="#f070d1" stroke="black" cx="1931" cy="-479.68" rx="48.18" ry="18"/>
<ellipse fill="none" stroke="black" cx="1931" cy="-479.68" rx="52.18" ry="22"/>
<ellipse fill="none" stroke="black" cx="1931" cy="-479.68" rx="56.19" ry="26"/>
<text text-anchor="middle" x="1931" y="-475.98" font-family="Times,serif" font-size="14.00">fmap11&#39;</text>
</a>
</g>
</g>
<!-- Bifunctor_fmap11_&#45;&gt;Bifunctor_Is0Bifunctor -->
<g id="edge14" class="edge">
<title>Bifunctor_fmap11_&#45;&gt;Bifunctor_Is0Bifunctor</title>
<path fill="none" stroke="black" d="M1904.84,-456.44C1833.52,-395.79 1636.14,-227.98 1563.92,-166.57"/>
<polygon fill="black" stroke="black" points="1566.03,-163.77 1556.14,-159.96 1561.5,-169.1 1566.03,-163.77"/>
</g>
<!-- Bifunctor_fmap11&#45;&gt;Bifunctor_Is0Bifunctor -->
<g id="edge15" class="edge">
<title>Bifunctor_fmap11&#45;&gt;Bifunctor_Is0Bifunctor</title>
<path fill="none" stroke="black" d="M2201.02,-465.13C2093.09,-412.89 1703.65,-224.36 1577.06,-163.07"/>
<polygon fill="black" stroke="black" points="1578.58,-159.92 1568.06,-158.71 1575.53,-166.22 1578.58,-159.92"/>
</g>
<!-- Bifunctor_fmap01 -->
<g id="node10" class="node">
<title>Bifunctor_fmap01</title>
<g id="a_node10"><a xlink:href="Bifunctor.html#fmap01" xlink:title="fmap01">
<ellipse fill="#f070d1" stroke="black" cx="1803" cy="-479.68" rx="46.27" ry="18"/>
<ellipse fill="none" stroke="black" cx="1803" cy="-479.68" rx="50.28" ry="22"/>
<ellipse fill="none" stroke="black" cx="1803" cy="-479.68" rx="54.29" ry="26"/>
<text text-anchor="middle" x="1803" y="-475.98" font-family="Times,serif" font-size="14.00">fmap01</text>
</a>
</g>
</g>
<!-- Bifunctor_fmap01&#45;&gt;Bifunctor_Is0Bifunctor -->
<g id="edge16" class="edge">
<title>Bifunctor_fmap01&#45;&gt;Bifunctor_Is0Bifunctor</title>
<path fill="none" stroke="black" d="M1784.3,-455.12C1735.84,-394.1 1606.57,-231.3 1556.86,-168.69"/>
<polygon fill="black" stroke="black" points="1559.35,-166.2 1550.39,-160.54 1553.87,-170.55 1559.35,-166.2"/>
</g>
<!-- Bifunctor_fmap10 -->
<g id="node11" class="node">
<title>Bifunctor_fmap10</title>
<g id="a_node11"><a xlink:href="Bifunctor.html#fmap10" xlink:title="fmap10">
<ellipse fill="#f070d1" stroke="black" cx="1677" cy="-479.68" rx="46.27" ry="18"/>
<ellipse fill="none" stroke="black" cx="1677" cy="-479.68" rx="50.28" ry="22"/>
<ellipse fill="none" stroke="black" cx="1677" cy="-479.68" rx="54.29" ry="26"/>
<text text-anchor="middle" x="1677" y="-475.98" font-family="Times,serif" font-size="14.00">fmap10</text>
</a>
</g>
</g>
<!-- Bifunctor_fmap10&#45;&gt;Bifunctor_Is0Bifunctor -->
<g id="edge17" class="edge">
<title>Bifunctor_fmap10&#45;&gt;Bifunctor_Is0Bifunctor</title>
<path fill="none" stroke="black" d="M1666.71,-454.05C1641.05,-392.66 1574.44,-233.28 1548.03,-170.07"/>
<polygon fill="black" stroke="black" points="1551.23,-168.65 1544.15,-160.78 1544.77,-171.35 1551.23,-168.65"/>
</g>
<!-- Bifunctor_Build_Is1Bifunctor_ -->
<g id="node12" class="node">
<title>Bifunctor_Build_Is1Bifunctor_</title>
<g id="a_node12"><a xlink:href="Bifunctor.html#Build_Is1Bifunctor'" xlink:title="Build_Is1Bifunctor&#39;">
<ellipse fill="#f070d1" stroke="black" cx="612" cy="-1220.68" rx="99.39" ry="18"/>
<ellipse fill="none" stroke="black" cx="612" cy="-1220.68" rx="103.38" ry="22"/>
<ellipse fill="none" stroke="black" cx="612" cy="-1220.68" rx="107.38" ry="26"/>
<text text-anchor="middle" x="612" y="-1216.98" font-family="Times,serif" font-size="14.00">Build_Is1Bifunctor&#39;</text>
</a>
</g>
</g>
<!-- Bifunctor_is1bifunctor_functor_uncurried -->
<g id="node14" class="node">
<title>Bifunctor_is1bifunctor_functor_uncurried</title>
<g id="a_node14"><a xlink:href="Bifunctor.html#is1bifunctor_functor_uncurried" xlink:title="is1bifunctor_functor_uncurried">
<ellipse fill="#f070d1" stroke="black" cx="612" cy="-850.68" rx="154.87" ry="18"/>
<text text-anchor="middle" x="612" y="-846.98" font-family="Times,serif" font-size="14.00">is1bifunctor_functor_uncurried</text>
</a>
</g>
</g>
<!-- Bifunctor_Build_Is1Bifunctor_&#45;&gt;Bifunctor_is1bifunctor_functor_uncurried -->
<g id="edge18" class="edge">
<title>Bifunctor_Build_Is1Bifunctor_&#45;&gt;Bifunctor_is1bifunctor_functor_uncurried</title>
<path fill="none" stroke="black" d="M612,-1194.67C612,-1128.34 612,-948.25 612,-879.16"/>
<polygon fill="black" stroke="black" points="615.5,-879.07 612,-869.07 608.5,-879.07 615.5,-879.07"/>
</g>
<!-- Bifunctor_Build_Is0Bifunctor_ -->
<g id="node13" class="node">
<title>Bifunctor_Build_Is0Bifunctor_</title>
<g id="a_node13"><a xlink:href="Bifunctor.html#Build_Is0Bifunctor'" xlink:title="Build_Is0Bifunctor&#39;">
<ellipse fill="#f070d1" stroke="black" cx="332" cy="-850.68" rx="99.39" ry="18"/>
<ellipse fill="none" stroke="black" cx="332" cy="-850.68" rx="103.38" ry="22"/>
<ellipse fill="none" stroke="black" cx="332" cy="-850.68" rx="107.38" ry="26"/>
<text text-anchor="middle" x="332" y="-846.98" font-family="Times,serif" font-size="14.00">Build_Is0Bifunctor&#39;</text>
</a>
</g>
</g>
<!-- Bifunctor_is0bifunctor_functor_uncurried -->
<g id="node15" class="node">
<title>Bifunctor_is0bifunctor_functor_uncurried</title>
<g id="a_node15"><a xlink:href="Bifunctor.html#is0bifunctor_functor_uncurried" xlink:title="is0bifunctor_functor_uncurried">
<ellipse fill="#f070d1" stroke="black" cx="416" cy="-479.68" rx="154.87" ry="18"/>
<text text-anchor="middle" x="416" y="-475.98" font-family="Times,serif" font-size="14.00">is0bifunctor_functor_uncurried</text>
</a>
</g>
</g>
<!-- Bifunctor_Build_Is0Bifunctor_&#45;&gt;Bifunctor_is0bifunctor_functor_uncurried -->
<g id="edge19" class="edge">
<title>Bifunctor_Build_Is0Bifunctor_&#45;&gt;Bifunctor_is0bifunctor_functor_uncurried</title>
<path fill="none" stroke="black" d="M337.71,-824.61C352.88,-757.94 394.15,-576.67 409.84,-507.76"/>
<polygon fill="black" stroke="black" points="413.32,-508.23 412.13,-497.7 406.49,-506.67 413.32,-508.23"/>
</g>
<!-- Bifunctor_is1bifunctor_functor_uncurried&#45;&gt;Bifunctor_is0bifunctor_functor_uncurried -->
<g id="edge20" class="edge">
<title>Bifunctor_is1bifunctor_functor_uncurried&#45;&gt;Bifunctor_is0bifunctor_functor_uncurried</title>
<path fill="none" stroke="black" d="M602.81,-832.38C571.37,-773.18 467.95,-578.48 430.07,-507.16"/>
<polygon fill="black" stroke="black" points="432.95,-505.13 425.17,-497.94 426.77,-508.42 432.95,-505.13"/>
</g>
<!-- Bifunctor_is1bifunctor_functor_uncurried&#45;&gt;Bifunctor_Build_Is1Bifunctor -->
<g id="edge21" class="edge">
<title>Bifunctor_is1bifunctor_functor_uncurried&#45;&gt;Bifunctor_Build_Is1Bifunctor</title>
<path fill="none" stroke="black" d="M645.81,-832.86C767.08,-772.56 1179.99,-567.22 1312.62,-501.26"/>
<polygon fill="black" stroke="black" points="1314.28,-504.34 1321.68,-496.75 1311.17,-498.07 1314.28,-504.34"/>
</g>
<!-- Bifunctor_is1bifunctor_functor_uncurried&#45;&gt;Bifunctor_Is1Bifunctor -->
<g id="edge22" class="edge">
<title>Bifunctor_is1bifunctor_functor_uncurried&#45;&gt;Bifunctor_Is1Bifunctor</title>
<path fill="none" stroke="black" d="M653.24,-833.23C805.02,-772.68 1332.01,-562.45 1491.14,-498.97"/>
<polygon fill="black" stroke="black" points="1492.66,-502.14 1500.65,-495.18 1490.06,-495.63 1492.66,-502.14"/>
</g>
<!-- Bifunctor_is0bifunctor_functor_uncurried&#45;&gt;Bifunctor_Build_Is0Bifunctor -->
<g id="edge23" class="edge">
<title>Bifunctor_is0bifunctor_functor_uncurried&#45;&gt;Bifunctor_Build_Is0Bifunctor</title>
<path fill="none" stroke="black" d="M429.91,-461.61C474.73,-406.61 615.49,-233.88 668.52,-168.81"/>
<polygon fill="black" stroke="black" points="671.51,-170.68 675.11,-160.72 666.08,-166.26 671.51,-170.68"/>
</g>
<!-- Bifunctor_is0bifunctor_functor_uncurried&#45;&gt;Bifunctor_Is0Bifunctor -->
<g id="edge24" class="edge">
<title>Bifunctor_is0bifunctor_functor_uncurried&#45;&gt;Bifunctor_Is0Bifunctor</title>
<path fill="none" stroke="black" d="M469.31,-462.75C658.36,-406.25 1295.4,-215.88 1483.98,-159.52"/>
<polygon fill="black" stroke="black" points="1485.09,-162.85 1493.67,-156.63 1483.08,-156.14 1485.09,-162.85"/>
</g>
<!-- Bifunctor_bifunctor_isbifunctor -->
<g id="node16" class="node">
<title>Bifunctor_bifunctor_isbifunctor</title>
<g id="a_node16"><a xlink:href="Bifunctor.html#bifunctor_isbifunctor" xlink:title="bifunctor_isbifunctor">
<ellipse fill="#f070d1" stroke="black" cx="1784" cy="-850.68" rx="107.79" ry="18"/>
<ellipse fill="none" stroke="black" cx="1784" cy="-850.68" rx="111.78" ry="22"/>
<ellipse fill="none" stroke="black" cx="1784" cy="-850.68" rx="115.78" ry="26"/>
<text text-anchor="middle" x="1784" y="-846.98" font-family="Times,serif" font-size="14.00">bifunctor_isbifunctor</text>
</a>
</g>
</g>
<!-- Bifunctor_bifunctor_isbifunctor&#45;&gt;Bifunctor_Is1Bifunctor -->
<g id="edge25" class="edge">
<title>Bifunctor_bifunctor_isbifunctor&#45;&gt;Bifunctor_Is1Bifunctor</title>
<path fill="none" stroke="black" d="M1767.41,-824.89C1722.59,-757.93 1599.39,-573.88 1554.04,-506.14"/>
<polygon fill="black" stroke="black" points="1556.89,-504.1 1548.42,-497.74 1551.07,-507.99 1556.89,-504.1"/>
</g>
<!-- Bifunctor_bifunctor_is1functor10 -->
<g id="node17" class="node">
<title>Bifunctor_bifunctor_is1functor10</title>
<g id="a_node17"><a xlink:href="Bifunctor.html#bifunctor_is1functor10" xlink:title="bifunctor_is1functor10">
<ellipse fill="#f070d1" stroke="black" cx="2309" cy="-850.68" rx="116.19" ry="18"/>
<ellipse fill="none" stroke="black" cx="2309" cy="-850.68" rx="120.18" ry="22"/>
<ellipse fill="none" stroke="black" cx="2309" cy="-850.68" rx="124.18" ry="26"/>
<text text-anchor="middle" x="2309" y="-846.98" font-family="Times,serif" font-size="14.00">bifunctor_is1functor10</text>
</a>
</g>
</g>
<!-- Bifunctor_bifunctor_is1functor10&#45;&gt;Bifunctor_Is1Bifunctor -->
<g id="edge26" class="edge">
<title>Bifunctor_bifunctor_is1functor10&#45;&gt;Bifunctor_Is1Bifunctor</title>
<path fill="none" stroke="black" d="M2260.71,-826.6C2119.49,-759.1 1709.02,-562.9 1577.83,-500.19"/>
<polygon fill="black" stroke="black" points="1579.04,-496.9 1568.51,-495.74 1576.02,-503.21 1579.04,-496.9"/>
</g>
<!-- Bifunctor_bifunctor_is1functor01 -->
<g id="node18" class="node">
<title>Bifunctor_bifunctor_is1functor01</title>
<g id="a_node18"><a xlink:href="Bifunctor.html#bifunctor_is1functor01" xlink:title="bifunctor_is1functor01">
<ellipse fill="#f070d1" stroke="black" cx="2042" cy="-850.68" rx="116.19" ry="18"/>
<ellipse fill="none" stroke="black" cx="2042" cy="-850.68" rx="120.18" ry="22"/>
<ellipse fill="none" stroke="black" cx="2042" cy="-850.68" rx="124.18" ry="26"/>
<text text-anchor="middle" x="2042" y="-846.98" font-family="Times,serif" font-size="14.00">bifunctor_is1functor01</text>
</a>
</g>
</g>
<!-- Bifunctor_bifunctor_is1functor01&#45;&gt;Bifunctor_Is1Bifunctor -->
<g id="edge27" class="edge">
<title>Bifunctor_bifunctor_is1functor01&#45;&gt;Bifunctor_Is1Bifunctor</title>
<path fill="none" stroke="black" d="M2008.87,-825.47C1916.38,-757.89 1656.42,-567.93 1567.37,-502.87"/>
<polygon fill="black" stroke="black" points="1569.19,-499.87 1559.05,-496.79 1565.06,-505.52 1569.19,-499.87"/>
</g>
<!-- Bifunctor_Is1Bifunctor_sind -->
<g id="node19" class="node">
<title>Bifunctor_Is1Bifunctor_sind</title>
<g id="a_node19"><a xlink:href="Bifunctor.html#Is1Bifunctor_sind" xlink:title="Is1Bifunctor_sind">
<ellipse fill="#f070d1" stroke="black" cx="1550" cy="-850.68" rx="92.1" ry="18"/>
<ellipse fill="none" stroke="black" cx="1550" cy="-850.68" rx="96.09" ry="22"/>
<ellipse fill="none" stroke="black" cx="1550" cy="-850.68" rx="100.08" ry="26"/>
<text text-anchor="middle" x="1550" y="-846.98" font-family="Times,serif" font-size="14.00">Is1Bifunctor_sind</text>
</a>
</g>
</g>
<!-- Bifunctor_Is1Bifunctor_sind&#45;&gt;Bifunctor_Build_Is1Bifunctor -->
<g id="edge28" class="edge">
<title>Bifunctor_Is1Bifunctor_sind&#45;&gt;Bifunctor_Build_Is1Bifunctor</title>
<path fill="none" stroke="black" d="M1536.84,-824.89C1501.41,-758.21 1404.3,-575.38 1367.97,-506.97"/>
<polygon fill="black" stroke="black" points="1370.84,-504.93 1363.06,-497.74 1364.66,-508.21 1370.84,-504.93"/>
</g>
<!-- Bifunctor_Is1Bifunctor_sind&#45;&gt;Bifunctor_Is1Bifunctor -->
<g id="edge29" class="edge">
<title>Bifunctor_Is1Bifunctor_sind&#45;&gt;Bifunctor_Is1Bifunctor</title>
<path fill="none" stroke="black" d="M1549.12,-824.61C1546.77,-757.94 1540.38,-576.67 1537.95,-507.76"/>
<polygon fill="black" stroke="black" points="1541.45,-507.57 1537.6,-497.7 1534.45,-507.82 1541.45,-507.57"/>
</g>
<!-- Bifunctor_Is1Bifunctor_rec -->
<g id="node20" class="node">
<title>Bifunctor_Is1Bifunctor_rec</title>
<g id="a_node20"><a xlink:href="Bifunctor.html#Is1Bifunctor_rec" xlink:title="Is1Bifunctor_rec">
<ellipse fill="#f070d1" stroke="black" cx="1341" cy="-1220.68" rx="87.18" ry="18"/>
<ellipse fill="none" stroke="black" cx="1341" cy="-1220.68" rx="91.18" ry="22"/>
<ellipse fill="none" stroke="black" cx="1341" cy="-1220.68" rx="95.18" ry="26"/>
<text text-anchor="middle" x="1341" y="-1216.98" font-family="Times,serif" font-size="14.00">Is1Bifunctor_rec</text>
</a>
</g>
</g>
<!-- Bifunctor_Is1Bifunctor_rect -->
<g id="node22" class="node">
<title>Bifunctor_Is1Bifunctor_rect</title>
<g id="a_node22"><a xlink:href="Bifunctor.html#Is1Bifunctor_rect" xlink:title="Is1Bifunctor_rect">
<ellipse fill="#f070d1" stroke="black" cx="1341" cy="-850.68" rx="90.98" ry="18"/>
<text text-anchor="middle" x="1341" y="-846.98" font-family="Times,serif" font-size="14.00">Is1Bifunctor_rect</text>
</a>
</g>
</g>
<!-- Bifunctor_Is1Bifunctor_rec&#45;&gt;Bifunctor_Is1Bifunctor_rect -->
<g id="edge30" class="edge">
<title>Bifunctor_Is1Bifunctor_rec&#45;&gt;Bifunctor_Is1Bifunctor_rect</title>
<path fill="none" stroke="black" d="M1341,-1194.67C1341,-1128.34 1341,-948.25 1341,-879.16"/>
<polygon fill="black" stroke="black" points="1344.5,-879.07 1341,-869.07 1337.5,-879.07 1344.5,-879.07"/>
</g>
<!-- Bifunctor_Is1Bifunctor_ind -->
<g id="node21" class="node">
<title>Bifunctor_Is1Bifunctor_ind</title>
<g id="a_node21"><a xlink:href="Bifunctor.html#Is1Bifunctor_ind" xlink:title="Is1Bifunctor_ind">
<ellipse fill="#7fffd4" stroke="black" cx="1137" cy="-850.68" rx="87.18" ry="18"/>
<ellipse fill="none" stroke="black" cx="1137" cy="-850.68" rx="91.18" ry="22"/>
<ellipse fill="none" stroke="black" cx="1137" cy="-850.68" rx="95.18" ry="26"/>
<text text-anchor="middle" x="1137" y="-846.98" font-family="Times,serif" font-size="14.00">Is1Bifunctor_ind</text>
</a>
</g>
</g>
<!-- Bifunctor_Is1Bifunctor_ind&#45;&gt;Bifunctor_Build_Is1Bifunctor -->
<g id="edge31" class="edge">
<title>Bifunctor_Is1Bifunctor_ind&#45;&gt;Bifunctor_Build_Is1Bifunctor</title>
<path fill="none" stroke="black" d="M1151.57,-824.89C1190.87,-758.07 1298.75,-574.63 1338.78,-506.55"/>
<polygon fill="black" stroke="black" points="1341.92,-508.13 1343.97,-497.74 1335.88,-504.58 1341.92,-508.13"/>
</g>
<!-- Bifunctor_Is1Bifunctor_ind&#45;&gt;Bifunctor_Is1Bifunctor -->
<g id="edge32" class="edge">
<title>Bifunctor_Is1Bifunctor_ind&#45;&gt;Bifunctor_Is1Bifunctor</title>
<path fill="none" stroke="black" d="M1163.25,-825.47C1235.88,-758.46 1438.93,-571.14 1511.12,-504.55"/>
<polygon fill="black" stroke="black" points="1513.9,-506.76 1518.87,-497.4 1509.15,-501.61 1513.9,-506.76"/>
</g>
<!-- Bifunctor_Is1Bifunctor_rect&#45;&gt;Bifunctor_Build_Is1Bifunctor -->
<g id="edge33" class="edge">
<title>Bifunctor_Is1Bifunctor_rect&#45;&gt;Bifunctor_Build_Is1Bifunctor</title>
<path fill="none" stroke="black" d="M1341.61,-832.38C1343.69,-773.42 1350.5,-580.07 1353.04,-508.04"/>
<polygon fill="black" stroke="black" points="1356.54,-508.06 1353.39,-497.94 1349.54,-507.81 1356.54,-508.06"/>
</g>
<!-- Bifunctor_Is1Bifunctor_rect&#45;&gt;Bifunctor_Is1Bifunctor -->
<g id="edge34" class="edge">
<title>Bifunctor_Is1Bifunctor_rect&#45;&gt;Bifunctor_Is1Bifunctor</title>
<path fill="none" stroke="black" d="M1350.19,-832.38C1381.63,-773.18 1485.05,-578.48 1522.93,-507.16"/>
<polygon fill="black" stroke="black" points="1526.23,-508.42 1527.83,-497.94 1520.05,-505.13 1526.23,-508.42"/>
</g>
<!-- Bifunctor_Build_Is1Bifunctor&#45;&gt;Bifunctor_Is0Bifunctor -->
<g id="edge35" class="edge">
<title>Bifunctor_Build_Is1Bifunctor&#45;&gt;Bifunctor_Is0Bifunctor</title>
<path fill="none" stroke="black" d="M1363.33,-461.61C1393.25,-406.83 1486.96,-235.29 1522.83,-169.61"/>
<polygon fill="black" stroke="black" points="1525.97,-171.17 1527.69,-160.72 1519.83,-167.82 1525.97,-171.17"/>
</g>
<!-- Bifunctor_Is1Bifunctor&#45;&gt;Bifunctor_Is0Bifunctor -->
<g id="edge36" class="edge">
<title>Bifunctor_Is1Bifunctor&#45;&gt;Bifunctor_Is0Bifunctor</title>
<path fill="none" stroke="black" d="M1537,-461.61C1537,-407.17 1537,-237.39 1537,-170.84"/>
<polygon fill="black" stroke="black" points="1540.5,-170.72 1537,-160.72 1533.5,-170.72 1540.5,-170.72"/>
</g>
<!-- Bifunctor_bifunctor_is0functor10 -->
<g id="node25" class="node">
<title>Bifunctor_bifunctor_is0functor10</title>
<g id="a_node25"><a xlink:href="Bifunctor.html#bifunctor_is0functor10" xlink:title="bifunctor_is0functor10">
<ellipse fill="#f070d1" stroke="black" cx="2684" cy="-479.68" rx="116.19" ry="18"/>
<ellipse fill="none" stroke="black" cx="2684" cy="-479.68" rx="120.18" ry="22"/>
<ellipse fill="none" stroke="black" cx="2684" cy="-479.68" rx="124.18" ry="26"/>
<text text-anchor="middle" x="2684" y="-475.98" font-family="Times,serif" font-size="14.00">bifunctor_is0functor10</text>
</a>
</g>
</g>
<!-- Bifunctor_bifunctor_is0functor10&#45;&gt;Bifunctor_Is0Bifunctor -->
<g id="edge37" class="edge">
<title>Bifunctor_bifunctor_is0functor10&#45;&gt;Bifunctor_Is0Bifunctor</title>
<path fill="none" stroke="black" d="M2613.55,-458.1C2402.38,-396.43 1777.74,-213.99 1590.59,-159.33"/>
<polygon fill="black" stroke="black" points="1591.54,-155.96 1580.96,-156.52 1589.58,-162.68 1591.54,-155.96"/>
</g>
<!-- Bifunctor_bifunctor_is0functor01 -->
<g id="node26" class="node">
<title>Bifunctor_bifunctor_is0functor01</title>
<g id="a_node26"><a xlink:href="Bifunctor.html#bifunctor_is0functor01" xlink:title="bifunctor_is0functor01">
<ellipse fill="#f070d1" stroke="black" cx="2417" cy="-479.68" rx="116.19" ry="18"/>
<ellipse fill="none" stroke="black" cx="2417" cy="-479.68" rx="120.18" ry="22"/>
<ellipse fill="none" stroke="black" cx="2417" cy="-479.68" rx="124.18" ry="26"/>
<text text-anchor="middle" x="2417" y="-475.98" font-family="Times,serif" font-size="14.00">bifunctor_is0functor01</text>
</a>
</g>
</g>
<!-- Bifunctor_bifunctor_is0functor01&#45;&gt;Bifunctor_Is0Bifunctor -->
<g id="edge38" class="edge">
<title>Bifunctor_bifunctor_is0functor01&#45;&gt;Bifunctor_Is0Bifunctor</title>
<path fill="none" stroke="black" d="M2358.92,-456.57C2195.28,-394.27 1732.67,-218.17 1583.78,-161.49"/>
<polygon fill="black" stroke="black" points="1585.03,-158.22 1574.44,-157.93 1582.54,-164.76 1585.03,-158.22"/>
</g>
<!-- Bifunctor_Is0Bifunctor_sind -->
<g id="node27" class="node">
<title>Bifunctor_Is0Bifunctor_sind</title>
<g id="a_node27"><a xlink:href="Bifunctor.html#Is0Bifunctor_sind" xlink:title="Is0Bifunctor_sind">
<ellipse fill="#f070d1" stroke="black" cx="689" cy="-479.68" rx="92.1" ry="18"/>
<ellipse fill="none" stroke="black" cx="689" cy="-479.68" rx="96.09" ry="22"/>
<ellipse fill="none" stroke="black" cx="689" cy="-479.68" rx="100.08" ry="26"/>
<text text-anchor="middle" x="689" y="-475.98" font-family="Times,serif" font-size="14.00">Is0Bifunctor_sind</text>
</a>
</g>
</g>
<!-- Bifunctor_Is0Bifunctor_sind&#45;&gt;Bifunctor_Build_Is0Bifunctor -->
<g id="edge39" class="edge">
<title>Bifunctor_Is0Bifunctor_sind&#45;&gt;Bifunctor_Build_Is0Bifunctor</title>
<path fill="none" stroke="black" d="M689,-453.5C689,-391.93 689,-234.2 689,-170.73"/>
<polygon fill="black" stroke="black" points="692.5,-170.7 689,-160.7 685.5,-170.7 692.5,-170.7"/>
</g>
<!-- Bifunctor_Is0Bifunctor_sind&#45;&gt;Bifunctor_Is0Bifunctor -->
<g id="edge40" class="edge">
<title>Bifunctor_Is0Bifunctor_sind&#45;&gt;Bifunctor_Is0Bifunctor</title>
<path fill="none" stroke="black" d="M742.37,-457.6C897.4,-396.35 1345.93,-219.16 1491.09,-161.82"/>
<polygon fill="black" stroke="black" points="1492.59,-164.99 1500.6,-158.06 1490.02,-158.48 1492.59,-164.99"/>
</g>
<!-- Bifunctor_Is0Bifunctor_rec -->
<g id="node28" class="node">
<title>Bifunctor_Is0Bifunctor_rec</title>
<g id="a_node28"><a xlink:href="Bifunctor.html#Is0Bifunctor_rec" xlink:title="Is0Bifunctor_rec">
<ellipse fill="#f070d1" stroke="black" cx="111" cy="-850.68" rx="87.18" ry="18"/>
<ellipse fill="none" stroke="black" cx="111" cy="-850.68" rx="91.18" ry="22"/>
<ellipse fill="none" stroke="black" cx="111" cy="-850.68" rx="95.18" ry="26"/>
<text text-anchor="middle" x="111" y="-846.98" font-family="Times,serif" font-size="14.00">Is0Bifunctor_rec</text>
</a>
</g>
</g>
<!-- Bifunctor_Is0Bifunctor_rect -->
<g id="node30" class="node">
<title>Bifunctor_Is0Bifunctor_rect</title>
<g id="a_node30"><a xlink:href="Bifunctor.html#Is0Bifunctor_rect" xlink:title="Is0Bifunctor_rect">
<ellipse fill="#f070d1" stroke="black" cx="152" cy="-479.68" rx="90.98" ry="18"/>
<text text-anchor="middle" x="152" y="-475.98" font-family="Times,serif" font-size="14.00">Is0Bifunctor_rect</text>
</a>
</g>
</g>
<!-- Bifunctor_Is0Bifunctor_rec&#45;&gt;Bifunctor_Is0Bifunctor_rect -->
<g id="edge41" class="edge">
<title>Bifunctor_Is0Bifunctor_rec&#45;&gt;Bifunctor_Is0Bifunctor_rect</title>
<path fill="none" stroke="black" d="M113.79,-824.61C121.19,-757.94 141.33,-576.67 148.99,-507.76"/>
<polygon fill="black" stroke="black" points="152.48,-508.03 150.11,-497.7 145.53,-507.25 152.48,-508.03"/>
</g>
<!-- Bifunctor_Is0Bifunctor_ind -->
<g id="node29" class="node">
<title>Bifunctor_Is0Bifunctor_ind</title>
<g id="a_node29"><a xlink:href="Bifunctor.html#Is0Bifunctor_ind" xlink:title="Is0Bifunctor_ind">
<ellipse fill="#7fffd4" stroke="black" cx="902" cy="-479.68" rx="87.18" ry="18"/>
<ellipse fill="none" stroke="black" cx="902" cy="-479.68" rx="91.18" ry="22"/>
<ellipse fill="none" stroke="black" cx="902" cy="-479.68" rx="95.18" ry="26"/>
<text text-anchor="middle" x="902" y="-475.98" font-family="Times,serif" font-size="14.00">Is0Bifunctor_ind</text>
</a>
</g>
</g>
<!-- Bifunctor_Is0Bifunctor_ind&#45;&gt;Bifunctor_Build_Is0Bifunctor -->
<g id="edge42" class="edge">
<title>Bifunctor_Is0Bifunctor_ind&#45;&gt;Bifunctor_Build_Is0Bifunctor</title>
<path fill="none" stroke="black" d="M886.16,-453.77C846.83,-391.92 745.01,-231.78 705.25,-169.24"/>
<polygon fill="black" stroke="black" points="708.17,-167.3 699.85,-160.74 702.26,-171.06 708.17,-167.3"/>
</g>
<!-- Bifunctor_Is0Bifunctor_ind&#45;&gt;Bifunctor_Is0Bifunctor -->
<g id="edge43" class="edge">
<title>Bifunctor_Is0Bifunctor_ind&#45;&gt;Bifunctor_Is0Bifunctor</title>
<path fill="none" stroke="black" d="M944.65,-456.18C1061.9,-394.32 1387.76,-222.41 1499.12,-163.66"/>
<polygon fill="black" stroke="black" points="1500.79,-166.74 1508,-158.98 1497.52,-160.55 1500.79,-166.74"/>
</g>
<!-- Bifunctor_Is0Bifunctor_rect&#45;&gt;Bifunctor_Build_Is0Bifunctor -->
<g id="edge44" class="edge">
<title>Bifunctor_Is0Bifunctor_rect&#45;&gt;Bifunctor_Build_Is0Bifunctor</title>
<path fill="none" stroke="black" d="M178.26,-462.29C266.77,-407.08 554.16,-227.8 654.25,-165.36"/>
<polygon fill="black" stroke="black" points="656.15,-168.29 662.79,-160.03 652.45,-162.36 656.15,-168.29"/>
</g>
<!-- Bifunctor_Is0Bifunctor_rect&#45;&gt;Bifunctor_Is0Bifunctor -->
<g id="edge45" class="edge">
<title>Bifunctor_Is0Bifunctor_rect&#45;&gt;Bifunctor_Is0Bifunctor</title>
<path fill="none" stroke="black" d="M205.95,-465.1C220.86,-461.38 237.05,-457.35 252,-453.68 724.73,-337.57 1296.27,-201.04 1478.34,-157.65"/>
<polygon fill="black" stroke="black" points="1479.33,-161.01 1488.24,-155.29 1477.7,-154.2 1479.33,-161.01"/>
</g>
</g>
</svg>
