<?xml version="1.0" encoding="UTF-8" standalone="no"?>
<!DOCTYPE svg PUBLIC "-//W3C//DTD SVG 1.1//EN"
 "http://www.w3.org/Graphics/SVG/1.1/DTD/svg11.dtd">
<!-- Generated by graphviz version 2.43.0 (0)
 -->
<!-- Title: HoTT_Basics_Decidable Pages: 1 -->
<svg width="2568pt" height="1282pt"
 viewBox="0.00 0.00 2568.13 1281.50" xmlns="http://www.w3.org/2000/svg" xmlns:xlink="http://www.w3.org/1999/xlink">
<g id="graph0" class="graph" transform="scale(1 1) rotate(0) translate(4 1277.5)">
<title>HoTT_Basics_Decidable</title>
<polygon fill="white" stroke="transparent" points="-4,4 -4,-1277.5 2564.13,-1277.5 2564.13,4 -4,4"/>
<g id="clust1" class="cluster">
<title>cluster_Decidable</title>
<polygon fill="#ffffc3" stroke="black" points="8,-19.19 8,-1254.31 2539,-1254.31 2539,-19.19 8,-19.19"/>
<text text-anchor="middle" x="51.5" y="-1239.11" font-family="Times,serif" font-size="14.00">Decidable</text>
</g>
<!-- Decidable_ishprop_decpaths -->
<g id="node1" class="node">
<title>Decidable_ishprop_decpaths</title>
<g id="a_node1"><a xlink:href="Decidable.html#ishprop_decpaths" xlink:title="ishprop_decpaths">
<ellipse fill="#f070d1" stroke="black" cx="2345" cy="-1117.19" rx="92.1" ry="18"/>
<ellipse fill="none" stroke="black" cx="2345" cy="-1117.19" rx="96.09" ry="22"/>
<ellipse fill="none" stroke="black" cx="2345" cy="-1117.19" rx="100.08" ry="26"/>
<text text-anchor="middle" x="2345" y="-1113.49" font-family="Times,serif" font-size="14.00">ishprop_decpaths</text>
</a>
</g>
</g>
<!-- Decidable_hset_pathcoll -->
<g id="node6" class="node">
<title>Decidable_hset_pathcoll</title>
<g id="a_node6"><a xlink:href="Decidable.html#hset_pathcoll" xlink:title="hset_pathcoll">
<ellipse fill="#f070d1" stroke="black" cx="2345" cy="-906.19" rx="72.29" ry="18"/>
<text text-anchor="middle" x="2345" y="-902.49" font-family="Times,serif" font-size="14.00">hset_pathcoll</text>
</a>
</g>
</g>
<!-- Decidable_ishprop_decpaths&#45;&gt;Decidable_hset_pathcoll -->
<g id="edge1" class="edge">
<title>Decidable_ishprop_decpaths&#45;&gt;Decidable_hset_pathcoll</title>
<path fill="none" stroke="black" d="M2345,-1090.98C2345,-1051.41 2345,-975.05 2345,-934.33"/>
<polygon fill="black" stroke="black" points="2348.5,-934.31 2345,-924.31 2341.5,-934.31 2348.5,-934.31"/>
</g>
<!-- Decidable_pathcoll_decpaths -->
<g id="node7" class="node">
<title>Decidable_pathcoll_decpaths</title>
<g id="a_node7"><a xlink:href="Decidable.html#pathcoll_decpaths" xlink:title="pathcoll_decpaths">
<ellipse fill="#f070d1" stroke="black" cx="2033" cy="-906.19" rx="94.48" ry="18"/>
<text text-anchor="middle" x="2033" y="-902.49" font-family="Times,serif" font-size="14.00">pathcoll_decpaths</text>
</a>
</g>
</g>
<!-- Decidable_ishprop_decpaths&#45;&gt;Decidable_pathcoll_decpaths -->
<g id="edge2" class="edge">
<title>Decidable_ishprop_decpaths&#45;&gt;Decidable_pathcoll_decpaths</title>
<path fill="none" stroke="black" d="M2309.82,-1092.62C2249.18,-1052 2125.8,-969.35 2066.42,-929.57"/>
<polygon fill="black" stroke="black" points="2068.05,-926.45 2057.79,-923.79 2064.15,-932.27 2068.05,-926.45"/>
</g>
<!-- Decidable_decidable_paths_refl -->
<g id="node2" class="node">
<title>Decidable_decidable_paths_refl</title>
<g id="a_node2"><a xlink:href="Decidable.html#decidable_paths_refl" xlink:title="decidable_paths_refl">
<ellipse fill="#f070d1" stroke="black" cx="1924" cy="-1117.19" rx="105.1" ry="18"/>
<ellipse fill="none" stroke="black" cx="1924" cy="-1117.19" rx="109.09" ry="22"/>
<ellipse fill="none" stroke="black" cx="1924" cy="-1117.19" rx="113.08" ry="26"/>
<text text-anchor="middle" x="1924" y="-1113.49" font-family="Times,serif" font-size="14.00">decidable_paths_refl</text>
</a>
</g>
</g>
<!-- Decidable_decidable_paths_refl&#45;&gt;Decidable_hset_pathcoll -->
<g id="edge3" class="edge">
<title>Decidable_decidable_paths_refl&#45;&gt;Decidable_hset_pathcoll</title>
<path fill="none" stroke="black" d="M1970.26,-1093.22C2053.39,-1051.95 2226.66,-965.94 2305,-927.04"/>
<polygon fill="black" stroke="black" points="2306.67,-930.12 2314.08,-922.54 2303.56,-923.85 2306.67,-930.12"/>
</g>
<!-- Decidable_decidable_paths_refl&#45;&gt;Decidable_pathcoll_decpaths -->
<g id="edge4" class="edge">
<title>Decidable_decidable_paths_refl&#45;&gt;Decidable_pathcoll_decpaths</title>
<path fill="none" stroke="black" d="M1937.15,-1090.98C1957.96,-1051.07 1998.28,-973.75 2019.38,-933.3"/>
<polygon fill="black" stroke="black" points="2022.55,-934.8 2024.07,-924.31 2016.34,-931.56 2022.55,-934.8"/>
</g>
<!-- Decidable_decidable_true -->
<g id="node38" class="node">
<title>Decidable_decidable_true</title>
<g id="a_node38"><a xlink:href="Decidable.html#decidable_true" xlink:title="decidable_true">
<ellipse fill="#f070d1" stroke="black" cx="1620" cy="-906.19" rx="79.09" ry="18"/>
<text text-anchor="middle" x="1620" y="-902.49" font-family="Times,serif" font-size="14.00">decidable_true</text>
</a>
</g>
</g>
<!-- Decidable_decidable_paths_refl&#45;&gt;Decidable_decidable_true -->
<g id="edge5" class="edge">
<title>Decidable_decidable_paths_refl&#45;&gt;Decidable_decidable_true</title>
<path fill="none" stroke="black" d="M1889.42,-1092.41C1830.07,-1051.61 1709.63,-968.8 1652.05,-929.22"/>
<polygon fill="black" stroke="black" points="1653.92,-926.26 1643.7,-923.48 1649.96,-932.03 1653.92,-926.26"/>
</g>
<!-- Decidable_hset_decpaths -->
<g id="node3" class="node">
<title>Decidable_hset_decpaths</title>
<g id="a_node3"><a xlink:href="Decidable.html#hset_decpaths" xlink:title="hset_decpaths">
<ellipse fill="#f070d1" stroke="black" cx="2141" cy="-1117.19" rx="77.2" ry="18"/>
<ellipse fill="none" stroke="black" cx="2141" cy="-1117.19" rx="81.19" ry="22"/>
<ellipse fill="none" stroke="black" cx="2141" cy="-1117.19" rx="85.19" ry="26"/>
<text text-anchor="middle" x="2141" y="-1113.49" font-family="Times,serif" font-size="14.00">hset_decpaths</text>
</a>
</g>
</g>
<!-- Decidable_hset_decpaths&#45;&gt;Decidable_hset_pathcoll -->
<g id="edge6" class="edge">
<title>Decidable_hset_decpaths&#45;&gt;Decidable_hset_pathcoll</title>
<path fill="none" stroke="black" d="M2164.8,-1091.8C2204.12,-1051.52 2282.17,-971.56 2321.37,-931.39"/>
<polygon fill="black" stroke="black" points="2324.19,-933.52 2328.67,-923.92 2319.18,-928.63 2324.19,-933.52"/>
</g>
<!-- Decidable_hset_decpaths&#45;&gt;Decidable_pathcoll_decpaths -->
<g id="edge7" class="edge">
<title>Decidable_hset_decpaths&#45;&gt;Decidable_pathcoll_decpaths</title>
<path fill="none" stroke="black" d="M2128.19,-1091.39C2107.6,-1051.55 2067.35,-973.65 2046.39,-933.11"/>
<polygon fill="black" stroke="black" points="2049.45,-931.39 2041.75,-924.12 2043.23,-934.61 2049.45,-931.39"/>
</g>
<!-- Decidable_pathcoll_hset -->
<g id="node4" class="node">
<title>Decidable_pathcoll_hset</title>
<g id="a_node4"><a xlink:href="Decidable.html#pathcoll_hset" xlink:title="pathcoll_hset">
<ellipse fill="#f070d1" stroke="black" cx="2052" cy="-695.19" rx="72.27" ry="18"/>
<ellipse fill="none" stroke="black" cx="2052" cy="-695.19" rx="76.28" ry="22"/>
<ellipse fill="none" stroke="black" cx="2052" cy="-695.19" rx="80.29" ry="26"/>
<text text-anchor="middle" x="2052" y="-691.49" font-family="Times,serif" font-size="14.00">pathcoll_hset</text>
</a>
</g>
</g>
<!-- Decidable_collapsible_hprop -->
<g id="node5" class="node">
<title>Decidable_collapsible_hprop</title>
<g id="a_node5"><a xlink:href="Decidable.html#collapsible_hprop" xlink:title="collapsible_hprop">
<ellipse fill="#f070d1" stroke="black" cx="2011" cy="-484.19" rx="91.78" ry="18"/>
<text text-anchor="middle" x="2011" y="-480.49" font-family="Times,serif" font-size="14.00">collapsible_hprop</text>
</a>
</g>
</g>
<!-- Decidable_pathcoll_hset&#45;&gt;Decidable_collapsible_hprop -->
<g id="edge8" class="edge">
<title>Decidable_pathcoll_hset&#45;&gt;Decidable_collapsible_hprop</title>
<path fill="none" stroke="black" d="M2047.05,-668.98C2039.29,-629.41 2024.31,-553.05 2016.32,-512.33"/>
<polygon fill="black" stroke="black" points="2019.72,-511.45 2014.36,-502.31 2012.85,-512.8 2019.72,-511.45"/>
</g>
<!-- Decidable_PathCollapsible -->
<g id="node10" class="node">
<title>Decidable_PathCollapsible</title>
<g id="a_node10"><a xlink:href="Decidable.html#PathCollapsible" xlink:title="PathCollapsible">
<ellipse fill="#f070d1" stroke="black" cx="2408" cy="-484.19" rx="83.39" ry="18"/>
<text text-anchor="middle" x="2408" y="-480.49" font-family="Times,serif" font-size="14.00">PathCollapsible</text>
</a>
</g>
</g>
<!-- Decidable_pathcoll_hset&#45;&gt;Decidable_PathCollapsible -->
<g id="edge9" class="edge">
<title>Decidable_pathcoll_hset&#45;&gt;Decidable_PathCollapsible</title>
<path fill="none" stroke="black" d="M2089.76,-672.02C2158.78,-631.5 2304.4,-546.01 2372.05,-506.29"/>
<polygon fill="black" stroke="black" points="2373.82,-509.31 2380.68,-501.23 2370.28,-503.27 2373.82,-509.31"/>
</g>
<!-- Decidable_Build_Collapsible -->
<g id="node17" class="node">
<title>Decidable_Build_Collapsible</title>
<g id="a_node17"><a xlink:href="Decidable.html#Build_Collapsible" xlink:title="Build_Collapsible">
<ellipse fill="#7faaff" stroke="black" cx="1683" cy="-273.19" rx="90.98" ry="18"/>
<text text-anchor="middle" x="1683" y="-269.49" font-family="Times,serif" font-size="14.00">Build_Collapsible</text>
</a>
</g>
</g>
<!-- Decidable_collapsible_hprop&#45;&gt;Decidable_Build_Collapsible -->
<g id="edge10" class="edge">
<title>Decidable_collapsible_hprop&#45;&gt;Decidable_Build_Collapsible</title>
<path fill="none" stroke="black" d="M1985.26,-466.79C1926.7,-429.47 1783.47,-338.21 1717.41,-296.11"/>
<polygon fill="black" stroke="black" points="1718.93,-292.93 1708.62,-290.51 1715.17,-298.84 1718.93,-292.93"/>
</g>
<!-- Decidable_Collapsible -->
<g id="node18" class="node">
<title>Decidable_Collapsible</title>
<g id="a_node18"><a xlink:href="Decidable.html#Collapsible" xlink:title="Collapsible">
<ellipse fill="#e2cdfa" stroke="black" cx="1933" cy="-273.19" rx="61.99" ry="18"/>
<text text-anchor="middle" x="1933" y="-269.49" font-family="Times,serif" font-size="14.00">Collapsible</text>
</a>
</g>
</g>
<!-- Decidable_collapsible_hprop&#45;&gt;Decidable_Collapsible -->
<g id="edge11" class="edge">
<title>Decidable_collapsible_hprop&#45;&gt;Decidable_Collapsible</title>
<path fill="none" stroke="black" d="M2004.62,-466.08C1991.04,-429.71 1959.22,-344.45 1942.96,-300.87"/>
<polygon fill="black" stroke="black" points="1946.14,-299.38 1939.36,-291.23 1939.58,-301.83 1946.14,-299.38"/>
</g>
<!-- Decidable_path_coll -->
<g id="node9" class="node">
<title>Decidable_path_coll</title>
<g id="a_node9"><a xlink:href="Decidable.html#path_coll" xlink:title="path_coll">
<ellipse fill="#f070d1" stroke="black" cx="2345" cy="-695.19" rx="51.99" ry="18"/>
<text text-anchor="middle" x="2345" y="-691.49" font-family="Times,serif" font-size="14.00">path_coll</text>
</a>
</g>
</g>
<!-- Decidable_hset_pathcoll&#45;&gt;Decidable_path_coll -->
<g id="edge12" class="edge">
<title>Decidable_hset_pathcoll&#45;&gt;Decidable_path_coll</title>
<path fill="none" stroke="black" d="M2345,-888.08C2345,-851.86 2345,-767.17 2345,-723.42"/>
<polygon fill="black" stroke="black" points="2348.5,-723.23 2345,-713.23 2341.5,-723.23 2348.5,-723.23"/>
</g>
<!-- Decidable_collapse -->
<g id="node12" class="node">
<title>Decidable_collapse</title>
<g id="a_node12"><a xlink:href="Decidable.html#collapse" xlink:title="collapse">
<ellipse fill="#f070d1" stroke="black" cx="2463" cy="-695.19" rx="48.19" ry="18"/>
<text text-anchor="middle" x="2463" y="-691.49" font-family="Times,serif" font-size="14.00">collapse</text>
</a>
</g>
</g>
<!-- Decidable_hset_pathcoll&#45;&gt;Decidable_collapse -->
<g id="edge13" class="edge">
<title>Decidable_hset_pathcoll&#45;&gt;Decidable_collapse</title>
<path fill="none" stroke="black" d="M2354.66,-888.08C2375.37,-851.39 2424.18,-764.94 2448.58,-721.72"/>
<polygon fill="black" stroke="black" points="2451.67,-723.37 2453.54,-712.94 2445.58,-719.93 2451.67,-723.37"/>
</g>
<!-- Decidable_wconst -->
<g id="node20" class="node">
<title>Decidable_wconst</title>
<g id="a_node20"><a xlink:href="Decidable.html#wconst" xlink:title="wconst">
<ellipse fill="#f070d1" stroke="black" cx="2056" cy="-273.19" rx="43.59" ry="18"/>
<text text-anchor="middle" x="2056" y="-269.49" font-family="Times,serif" font-size="14.00">wconst</text>
</a>
</g>
</g>
<!-- Decidable_hset_pathcoll&#45;&gt;Decidable_wconst -->
<g id="edge14" class="edge">
<title>Decidable_hset_pathcoll&#45;&gt;Decidable_wconst</title>
<path fill="none" stroke="black" d="M2369.3,-889.2C2409.71,-860.97 2489.33,-797.94 2520,-721.19 2543.23,-663.06 2599.64,-580.05 2514,-458.19 2402.82,-299.97 2286.55,-375.81 2109,-299.19 2103.55,-296.84 2097.84,-294.26 2092.26,-291.68"/>
<polygon fill="black" stroke="black" points="2093.62,-288.45 2083.08,-287.38 2090.65,-294.79 2093.62,-288.45"/>
</g>
<!-- Decidable_collapsible_decidable -->
<g id="node8" class="node">
<title>Decidable_collapsible_decidable</title>
<g id="a_node8"><a xlink:href="Decidable.html#collapsible_decidable" xlink:title="collapsible_decidable">
<ellipse fill="#f070d1" stroke="black" cx="1557" cy="-695.19" rx="108.58" ry="18"/>
<text text-anchor="middle" x="1557" y="-691.49" font-family="Times,serif" font-size="14.00">collapsible_decidable</text>
</a>
</g>
</g>
<!-- Decidable_pathcoll_decpaths&#45;&gt;Decidable_collapsible_decidable -->
<g id="edge15" class="edge">
<title>Decidable_pathcoll_decpaths&#45;&gt;Decidable_collapsible_decidable</title>
<path fill="none" stroke="black" d="M1997.22,-889.48C1912.04,-852.08 1697.3,-757.79 1602.82,-716.3"/>
<polygon fill="black" stroke="black" points="1604.08,-713.04 1593.52,-712.22 1601.27,-719.45 1604.08,-713.04"/>
</g>
<!-- Decidable_pathcoll_decpaths&#45;&gt;Decidable_PathCollapsible -->
<g id="edge16" class="edge">
<title>Decidable_pathcoll_decpaths&#45;&gt;Decidable_PathCollapsible</title>
<path fill="none" stroke="black" d="M2048.16,-888.2C2106.6,-822.75 2317.33,-586.73 2386.12,-509.69"/>
<polygon fill="black" stroke="black" points="2389.01,-511.71 2393.06,-501.92 2383.79,-507.05 2389.01,-511.71"/>
</g>
<!-- Decidable_dec_paths -->
<g id="node35" class="node">
<title>Decidable_dec_paths</title>
<g id="a_node35"><a xlink:href="Decidable.html#dec_paths" xlink:title="dec_paths">
<ellipse fill="#f070d1" stroke="black" cx="1326" cy="-695.19" rx="57.39" ry="18"/>
<text text-anchor="middle" x="1326" y="-691.49" font-family="Times,serif" font-size="14.00">dec_paths</text>
</a>
</g>
</g>
<!-- Decidable_pathcoll_decpaths&#45;&gt;Decidable_dec_paths -->
<g id="edge17" class="edge">
<title>Decidable_pathcoll_decpaths&#45;&gt;Decidable_dec_paths</title>
<path fill="none" stroke="black" d="M1984.13,-890.74C1855.12,-852.6 1506.41,-749.52 1376.06,-710.99"/>
<polygon fill="black" stroke="black" points="1376.91,-707.59 1366.33,-708.11 1374.92,-714.3 1376.91,-707.59"/>
</g>
<!-- Decidable_collapsible_decidable&#45;&gt;Decidable_Build_Collapsible -->
<g id="edge18" class="edge">
<title>Decidable_collapsible_decidable&#45;&gt;Decidable_Build_Collapsible</title>
<path fill="none" stroke="black" d="M1512.89,-678.71C1423.85,-644.93 1236.3,-559.46 1300,-458.19 1366.34,-352.71 1511.89,-306.32 1603.23,-286.96"/>
<polygon fill="black" stroke="black" points="1604.18,-290.34 1613.26,-284.89 1602.76,-283.48 1604.18,-290.34"/>
</g>
<!-- Decidable_collapsible_decidable&#45;&gt;Decidable_Collapsible -->
<g id="edge19" class="edge">
<title>Decidable_collapsible_decidable&#45;&gt;Decidable_Collapsible</title>
<path fill="none" stroke="black" d="M1612.75,-679.65C1688.33,-656.89 1821.68,-605.26 1890,-510.19 1913.87,-476.97 1926.42,-355.81 1930.97,-301.2"/>
<polygon fill="black" stroke="black" points="1934.46,-301.46 1931.78,-291.21 1927.49,-300.9 1934.46,-301.46"/>
</g>
<!-- Decidable_dec -->
<g id="node39" class="node">
<title>Decidable_dec</title>
<g id="a_node39"><a xlink:href="Decidable.html#dec" xlink:title="dec">
<ellipse fill="#f070d1" stroke="black" cx="297" cy="-484.19" rx="27" ry="18"/>
<text text-anchor="middle" x="297" y="-480.49" font-family="Times,serif" font-size="14.00">dec</text>
</a>
</g>
</g>
<!-- Decidable_collapsible_decidable&#45;&gt;Decidable_dec -->
<g id="edge20" class="edge">
<title>Decidable_collapsible_decidable&#45;&gt;Decidable_dec</title>
<path fill="none" stroke="black" d="M1479.78,-682.46C1452.09,-678.27 1420.65,-673.51 1392,-669.19 921.38,-598.2 775.34,-685.84 333,-510.19 329.21,-508.68 325.43,-506.71 321.82,-504.54"/>
<polygon fill="black" stroke="black" points="323.56,-501.49 313.29,-498.86 319.67,-507.31 323.56,-501.49"/>
</g>
<!-- Decidable_path_coll&#45;&gt;Decidable_PathCollapsible -->
<g id="edge21" class="edge">
<title>Decidable_path_coll&#45;&gt;Decidable_PathCollapsible</title>
<path fill="none" stroke="black" d="M2350.16,-677.08C2361.12,-640.71 2386.82,-555.45 2399.96,-511.87"/>
<polygon fill="black" stroke="black" points="2403.33,-512.82 2402.86,-502.23 2396.62,-510.8 2403.33,-512.82"/>
</g>
<!-- Decidable_PathCollapsible&#45;&gt;Decidable_Collapsible -->
<g id="edge22" class="edge">
<title>Decidable_PathCollapsible&#45;&gt;Decidable_Collapsible</title>
<path fill="none" stroke="black" d="M2373.07,-467.82C2287.51,-430.17 2067.68,-333.44 1975.1,-292.71"/>
<polygon fill="black" stroke="black" points="1976.32,-289.42 1965.76,-288.6 1973.5,-295.83 1976.32,-289.42"/>
</g>
<!-- Decidable_wconst_collapse -->
<g id="node11" class="node">
<title>Decidable_wconst_collapse</title>
<g id="a_node11"><a xlink:href="Decidable.html#wconst_collapse" xlink:title="wconst_collapse">
<ellipse fill="#f070d1" stroke="black" cx="2214" cy="-484.19" rx="85.27" ry="18"/>
<ellipse fill="none" stroke="black" cx="2214" cy="-484.19" rx="89.28" ry="22"/>
<ellipse fill="none" stroke="black" cx="2214" cy="-484.19" rx="93.29" ry="26"/>
<text text-anchor="middle" x="2214" y="-480.49" font-family="Times,serif" font-size="14.00">wconst_collapse</text>
</a>
</g>
</g>
<!-- Decidable_wconst_collapse&#45;&gt;Decidable_Collapsible -->
<g id="edge23" class="edge">
<title>Decidable_wconst_collapse&#45;&gt;Decidable_Collapsible</title>
<path fill="none" stroke="black" d="M2182.31,-459.62C2127.54,-418.88 2015.93,-335.87 1962.63,-296.22"/>
<polygon fill="black" stroke="black" points="1964.7,-293.4 1954.59,-290.24 1960.52,-299.02 1964.7,-293.4"/>
</g>
<!-- Decidable_collapse&#45;&gt;Decidable_Collapsible -->
<g id="edge24" class="edge">
<title>Decidable_collapse&#45;&gt;Decidable_Collapsible</title>
<path fill="none" stroke="black" d="M2473.13,-677.39C2496.77,-635.81 2549.88,-526.52 2500,-458.19 2363.26,-270.87 2222.68,-373.53 2003,-299.19 1995.35,-296.6 1987.26,-293.78 1979.4,-291"/>
<polygon fill="black" stroke="black" points="1980.57,-287.7 1969.97,-287.65 1978.22,-294.3 1980.57,-287.7"/>
</g>
<!-- Decidable_Collapsible_sind -->
<g id="node13" class="node">
<title>Decidable_Collapsible_sind</title>
<g id="a_node13"><a xlink:href="Decidable.html#Collapsible_sind" xlink:title="Collapsible_sind">
<ellipse fill="#f070d1" stroke="black" cx="1403" cy="-484.19" rx="85.6" ry="18"/>
<ellipse fill="none" stroke="black" cx="1403" cy="-484.19" rx="89.59" ry="22"/>
<ellipse fill="none" stroke="black" cx="1403" cy="-484.19" rx="93.59" ry="26"/>
<text text-anchor="middle" x="1403" y="-480.49" font-family="Times,serif" font-size="14.00">Collapsible_sind</text>
</a>
</g>
</g>
<!-- Decidable_Collapsible_sind&#45;&gt;Decidable_Build_Collapsible -->
<g id="edge25" class="edge">
<title>Decidable_Collapsible_sind&#45;&gt;Decidable_Build_Collapsible</title>
<path fill="none" stroke="black" d="M1434.58,-459.62C1488.88,-419.08 1599.26,-336.69 1652.68,-296.82"/>
<polygon fill="black" stroke="black" points="1654.83,-299.58 1660.75,-290.79 1650.64,-293.97 1654.83,-299.58"/>
</g>
<!-- Decidable_Collapsible_sind&#45;&gt;Decidable_Collapsible -->
<g id="edge26" class="edge">
<title>Decidable_Collapsible_sind&#45;&gt;Decidable_Collapsible</title>
<path fill="none" stroke="black" d="M1455.27,-462.57C1559.29,-421.55 1790.6,-330.34 1888.19,-291.86"/>
<polygon fill="black" stroke="black" points="1889.74,-295.01 1897.76,-288.08 1887.17,-288.5 1889.74,-295.01"/>
</g>
<!-- Decidable_Collapsible_rec -->
<g id="node14" class="node">
<title>Decidable_Collapsible_rec</title>
<g id="a_node14"><a xlink:href="Decidable.html#Collapsible_rec" xlink:title="Collapsible_rec">
<ellipse fill="#f070d1" stroke="black" cx="1796" cy="-695.19" rx="81.46" ry="18"/>
<ellipse fill="none" stroke="black" cx="1796" cy="-695.19" rx="85.48" ry="22"/>
<ellipse fill="none" stroke="black" cx="1796" cy="-695.19" rx="89.49" ry="26"/>
<text text-anchor="middle" x="1796" y="-691.49" font-family="Times,serif" font-size="14.00">Collapsible_rec</text>
</a>
</g>
</g>
<!-- Decidable_Collapsible_rect -->
<g id="node16" class="node">
<title>Decidable_Collapsible_rect</title>
<g id="a_node16"><a xlink:href="Decidable.html#Collapsible_rect" xlink:title="Collapsible_rect">
<ellipse fill="#f070d1" stroke="black" cx="1796" cy="-484.19" rx="85.29" ry="18"/>
<text text-anchor="middle" x="1796" y="-480.49" font-family="Times,serif" font-size="14.00">Collapsible_rect</text>
</a>
</g>
</g>
<!-- Decidable_Collapsible_rec&#45;&gt;Decidable_Collapsible_rect -->
<g id="edge27" class="edge">
<title>Decidable_Collapsible_rec&#45;&gt;Decidable_Collapsible_rect</title>
<path fill="none" stroke="black" d="M1796,-668.98C1796,-629.41 1796,-553.05 1796,-512.33"/>
<polygon fill="black" stroke="black" points="1799.5,-512.31 1796,-502.31 1792.5,-512.31 1799.5,-512.31"/>
</g>
<!-- Decidable_Collapsible_ind -->
<g id="node15" class="node">
<title>Decidable_Collapsible_ind</title>
<g id="a_node15"><a xlink:href="Decidable.html#Collapsible_ind" xlink:title="Collapsible_ind">
<ellipse fill="#7fffd4" stroke="black" cx="1604" cy="-484.19" rx="81.46" ry="18"/>
<ellipse fill="none" stroke="black" cx="1604" cy="-484.19" rx="85.48" ry="22"/>
<ellipse fill="none" stroke="black" cx="1604" cy="-484.19" rx="89.49" ry="26"/>
<text text-anchor="middle" x="1604" y="-480.49" font-family="Times,serif" font-size="14.00">Collapsible_ind</text>
</a>
</g>
</g>
<!-- Decidable_Collapsible_ind&#45;&gt;Decidable_Build_Collapsible -->
<g id="edge28" class="edge">
<title>Decidable_Collapsible_ind&#45;&gt;Decidable_Build_Collapsible</title>
<path fill="none" stroke="black" d="M1613.53,-457.98C1628.55,-418.24 1657.59,-341.4 1672.94,-300.81"/>
<polygon fill="black" stroke="black" points="1676.26,-301.91 1676.53,-291.31 1669.72,-299.43 1676.26,-301.91"/>
</g>
<!-- Decidable_Collapsible_ind&#45;&gt;Decidable_Collapsible -->
<g id="edge29" class="edge">
<title>Decidable_Collapsible_ind&#45;&gt;Decidable_Collapsible</title>
<path fill="none" stroke="black" d="M1640.15,-460.22C1704.43,-419.39 1837.66,-334.75 1899.78,-295.29"/>
<polygon fill="black" stroke="black" points="1901.84,-298.13 1908.41,-289.81 1898.09,-292.22 1901.84,-298.13"/>
</g>
<!-- Decidable_Collapsible_rect&#45;&gt;Decidable_Build_Collapsible -->
<g id="edge30" class="edge">
<title>Decidable_Collapsible_rect&#45;&gt;Decidable_Build_Collapsible</title>
<path fill="none" stroke="black" d="M1786.75,-466.08C1766.96,-429.48 1720.41,-343.37 1696.98,-300.04"/>
<polygon fill="black" stroke="black" points="1700.05,-298.36 1692.22,-291.23 1693.89,-301.69 1700.05,-298.36"/>
</g>
<!-- Decidable_Collapsible_rect&#45;&gt;Decidable_Collapsible -->
<g id="edge31" class="edge">
<title>Decidable_Collapsible_rect&#45;&gt;Decidable_Collapsible</title>
<path fill="none" stroke="black" d="M1807.21,-466.08C1831.31,-429.31 1888.17,-342.58 1916.44,-299.45"/>
<polygon fill="black" stroke="black" points="1919.46,-301.22 1922.02,-290.94 1913.61,-297.39 1919.46,-301.22"/>
</g>
<!-- Decidable_WeaklyConstant -->
<g id="node21" class="node">
<title>Decidable_WeaklyConstant</title>
<g id="a_node21"><a xlink:href="Decidable.html#WeaklyConstant" xlink:title="WeaklyConstant">
<ellipse fill="#f070d1" stroke="black" cx="1994" cy="-81.19" rx="85.59" ry="18"/>
<text text-anchor="middle" x="1994" y="-77.49" font-family="Times,serif" font-size="14.00">WeaklyConstant</text>
</a>
</g>
</g>
<!-- Decidable_Build_Collapsible&#45;&gt;Decidable_WeaklyConstant -->
<g id="edge32" class="edge">
<title>Decidable_Build_Collapsible&#45;&gt;Decidable_WeaklyConstant</title>
<path fill="none" stroke="black" d="M1709.78,-255.82C1765.82,-221.59 1895.41,-142.42 1958.38,-103.95"/>
<polygon fill="black" stroke="black" points="1960.46,-106.78 1967.17,-98.58 1956.81,-100.8 1960.46,-106.78"/>
</g>
<!-- Decidable_Collapsible&#45;&gt;Decidable_WeaklyConstant -->
<g id="edge33" class="edge">
<title>Decidable_Collapsible&#45;&gt;Decidable_WeaklyConstant</title>
<path fill="none" stroke="black" d="M1938.52,-254.99C1949.18,-221.78 1972.67,-148.62 1985.4,-108.98"/>
<polygon fill="black" stroke="black" points="1988.81,-109.8 1988.54,-99.21 1982.15,-107.66 1988.81,-109.8"/>
</g>
<!-- Decidable_wconst_through_hprop -->
<g id="node19" class="node">
<title>Decidable_wconst_through_hprop</title>
<g id="a_node19"><a xlink:href="Decidable.html#wconst_through_hprop" xlink:title="wconst_through_hprop">
<ellipse fill="#f070d1" stroke="black" cx="2242" cy="-273.19" rx="116.19" ry="18"/>
<ellipse fill="none" stroke="black" cx="2242" cy="-273.19" rx="120.18" ry="22"/>
<ellipse fill="none" stroke="black" cx="2242" cy="-273.19" rx="124.18" ry="26"/>
<text text-anchor="middle" x="2242" y="-269.49" font-family="Times,serif" font-size="14.00">wconst_through_hprop</text>
</a>
</g>
</g>
<!-- Decidable_wconst_through_hprop&#45;&gt;Decidable_WeaklyConstant -->
<g id="edge34" class="edge">
<title>Decidable_wconst_through_hprop&#45;&gt;Decidable_WeaklyConstant</title>
<path fill="none" stroke="black" d="M2210.34,-247.93C2162.05,-210.93 2070.66,-140.92 2023.62,-104.88"/>
<polygon fill="black" stroke="black" points="2025.71,-102.07 2015.65,-98.77 2021.46,-107.63 2025.71,-102.07"/>
</g>
<!-- Decidable_wconst&#45;&gt;Decidable_WeaklyConstant -->
<g id="edge35" class="edge">
<title>Decidable_wconst&#45;&gt;Decidable_WeaklyConstant</title>
<path fill="none" stroke="black" d="M2050.5,-255.33C2039.7,-222.24 2015.67,-148.59 2002.7,-108.84"/>
<polygon fill="black" stroke="black" points="2006.01,-107.7 1999.58,-99.28 1999.35,-109.88 2006.01,-107.7"/>
</g>
<!-- Decidable_decidablepaths_equiv_ -->
<g id="node22" class="node">
<title>Decidable_decidablepaths_equiv_</title>
<g id="a_node22"><a xlink:href="Decidable.html#decidablepaths_equiv'" xlink:title="decidablepaths_equiv&#39;">
<ellipse fill="#f070d1" stroke="black" cx="1097" cy="-906.19" rx="113.17" ry="18"/>
<ellipse fill="none" stroke="black" cx="1097" cy="-906.19" rx="117.18" ry="22"/>
<ellipse fill="none" stroke="black" cx="1097" cy="-906.19" rx="121.18" ry="26"/>
<text text-anchor="middle" x="1097" y="-902.49" font-family="Times,serif" font-size="14.00">decidablepaths_equiv&#39;</text>
</a>
</g>
</g>
<!-- Decidable_decidablepaths_equiv -->
<g id="node23" class="node">
<title>Decidable_decidablepaths_equiv</title>
<g id="a_node23"><a xlink:href="Decidable.html#decidablepaths_equiv" xlink:title="decidablepaths_equiv">
<ellipse fill="#f070d1" stroke="black" cx="1097" cy="-695.19" rx="110.48" ry="18"/>
<text text-anchor="middle" x="1097" y="-691.49" font-family="Times,serif" font-size="14.00">decidablepaths_equiv</text>
</a>
</g>
</g>
<!-- Decidable_decidablepaths_equiv_&#45;&gt;Decidable_decidablepaths_equiv -->
<g id="edge36" class="edge">
<title>Decidable_decidablepaths_equiv_&#45;&gt;Decidable_decidablepaths_equiv</title>
<path fill="none" stroke="black" d="M1097,-879.98C1097,-840.41 1097,-764.05 1097,-723.33"/>
<polygon fill="black" stroke="black" points="1100.5,-723.31 1097,-713.31 1093.5,-723.31 1100.5,-723.31"/>
</g>
<!-- Decidable_DecidablePaths -->
<g id="node36" class="node">
<title>Decidable_DecidablePaths</title>
<g id="a_node36"><a xlink:href="Decidable.html#DecidablePaths" xlink:title="DecidablePaths">
<ellipse fill="#f070d1" stroke="black" cx="822" cy="-484.19" rx="82.59" ry="18"/>
<text text-anchor="middle" x="822" y="-480.49" font-family="Times,serif" font-size="14.00">DecidablePaths</text>
</a>
</g>
</g>
<!-- Decidable_decidablepaths_equiv&#45;&gt;Decidable_DecidablePaths -->
<g id="edge37" class="edge">
<title>Decidable_decidablepaths_equiv&#45;&gt;Decidable_DecidablePaths</title>
<path fill="none" stroke="black" d="M1074.96,-677.44C1025.86,-640.12 907.45,-550.13 851.82,-507.85"/>
<polygon fill="black" stroke="black" points="853.84,-504.99 843.76,-501.73 849.61,-510.56 853.84,-504.99"/>
</g>
<!-- Decidable_decidable_equiv_ -->
<g id="node24" class="node">
<title>Decidable_decidable_equiv_</title>
<g id="a_node24"><a xlink:href="Decidable.html#decidable_equiv'" xlink:title="decidable_equiv&#39;">
<ellipse fill="#f070d1" stroke="black" cx="415" cy="-906.19" rx="87.18" ry="18"/>
<ellipse fill="none" stroke="black" cx="415" cy="-906.19" rx="91.18" ry="22"/>
<ellipse fill="none" stroke="black" cx="415" cy="-906.19" rx="95.18" ry="26"/>
<text text-anchor="middle" x="415" y="-902.49" font-family="Times,serif" font-size="14.00">decidable_equiv&#39;</text>
</a>
</g>
</g>
<!-- Decidable_decidable_equiv -->
<g id="node25" class="node">
<title>Decidable_decidable_equiv</title>
<g id="a_node25"><a xlink:href="Decidable.html#decidable_equiv" xlink:title="decidable_equiv">
<ellipse fill="#f070d1" stroke="black" cx="415" cy="-695.19" rx="85.29" ry="18"/>
<text text-anchor="middle" x="415" y="-691.49" font-family="Times,serif" font-size="14.00">decidable_equiv</text>
</a>
</g>
</g>
<!-- Decidable_decidable_equiv_&#45;&gt;Decidable_decidable_equiv -->
<g id="edge38" class="edge">
<title>Decidable_decidable_equiv_&#45;&gt;Decidable_decidable_equiv</title>
<path fill="none" stroke="black" d="M415,-879.98C415,-840.41 415,-764.05 415,-723.33"/>
<polygon fill="black" stroke="black" points="418.5,-723.31 415,-713.31 411.5,-723.31 418.5,-723.31"/>
</g>
<!-- Decidable_decidable_iff -->
<g id="node26" class="node">
<title>Decidable_decidable_iff</title>
<g id="a_node26"><a xlink:href="Decidable.html#decidable_iff" xlink:title="decidable_iff">
<ellipse fill="#f070d1" stroke="black" cx="183" cy="-484.19" rx="68.79" ry="18"/>
<text text-anchor="middle" x="183" y="-480.49" font-family="Times,serif" font-size="14.00">decidable_iff</text>
</a>
</g>
</g>
<!-- Decidable_decidable_equiv&#45;&gt;Decidable_decidable_iff -->
<g id="edge39" class="edge">
<title>Decidable_decidable_equiv&#45;&gt;Decidable_decidable_iff</title>
<path fill="none" stroke="black" d="M396.41,-677.44C355.24,-640.35 256.31,-551.23 209.03,-508.63"/>
<polygon fill="black" stroke="black" points="211.13,-505.82 201.36,-501.73 206.45,-511.02 211.13,-505.82"/>
</g>
<!-- Decidable_Decidable -->
<g id="node40" class="node">
<title>Decidable_Decidable</title>
<g id="a_node40"><a xlink:href="Decidable.html#Decidable" xlink:title="Decidable">
<ellipse fill="#f070d1" stroke="black" cx="730" cy="-273.19" rx="56.59" ry="18"/>
<text text-anchor="middle" x="730" y="-269.49" font-family="Times,serif" font-size="14.00">Decidable</text>
</a>
</g>
</g>
<!-- Decidable_decidable_iff&#45;&gt;Decidable_Decidable -->
<g id="edge40" class="edge">
<title>Decidable_decidable_iff&#45;&gt;Decidable_Decidable</title>
<path fill="none" stroke="black" d="M220.17,-468.99C317.75,-431.7 580.95,-331.13 685.91,-291.03"/>
<polygon fill="black" stroke="black" points="687.18,-294.29 695.27,-287.46 684.68,-287.76 687.18,-294.29"/>
</g>
<!-- Decidable_decidable_empty -->
<g id="node27" class="node">
<title>Decidable_decidable_empty</title>
<g id="a_node27"><a xlink:href="Decidable.html#decidable_empty" xlink:title="decidable_empty">
<ellipse fill="#f070d1" stroke="black" cx="439" cy="-484.19" rx="89.08" ry="18"/>
<ellipse fill="none" stroke="black" cx="439" cy="-484.19" rx="93.08" ry="22"/>
<ellipse fill="none" stroke="black" cx="439" cy="-484.19" rx="97.08" ry="26"/>
<text text-anchor="middle" x="439" y="-480.49" font-family="Times,serif" font-size="14.00">decidable_empty</text>
</a>
</g>
</g>
<!-- Decidable_decidable_empty&#45;&gt;Decidable_Decidable -->
<g id="edge41" class="edge">
<title>Decidable_decidable_empty&#45;&gt;Decidable_Decidable</title>
<path fill="none" stroke="black" d="M471.82,-459.62C528.68,-418.78 644.69,-335.45 699.73,-295.93"/>
<polygon fill="black" stroke="black" points="701.94,-298.65 708.02,-289.97 697.86,-292.96 701.94,-298.65"/>
</g>
<!-- Decidable_decidablepaths_hprop -->
<g id="node28" class="node">
<title>Decidable_decidablepaths_hprop</title>
<g id="a_node28"><a xlink:href="Decidable.html#decidablepaths_hprop" xlink:title="decidablepaths_hprop">
<ellipse fill="#f070d1" stroke="black" cx="848" cy="-695.19" rx="112.38" ry="18"/>
<ellipse fill="none" stroke="black" cx="848" cy="-695.19" rx="116.38" ry="22"/>
<ellipse fill="none" stroke="black" cx="848" cy="-695.19" rx="120.38" ry="26"/>
<text text-anchor="middle" x="848" y="-691.49" font-family="Times,serif" font-size="14.00">decidablepaths_hprop</text>
</a>
</g>
</g>
<!-- Decidable_decidable_contr -->
<g id="node29" class="node">
<title>Decidable_decidable_contr</title>
<g id="a_node29"><a xlink:href="Decidable.html#decidable_contr" xlink:title="decidable_contr">
<ellipse fill="#f070d1" stroke="black" cx="638" cy="-484.19" rx="83.69" ry="18"/>
<text text-anchor="middle" x="638" y="-480.49" font-family="Times,serif" font-size="14.00">decidable_contr</text>
</a>
</g>
</g>
<!-- Decidable_decidablepaths_hprop&#45;&gt;Decidable_decidable_contr -->
<g id="edge42" class="edge">
<title>Decidable_decidablepaths_hprop&#45;&gt;Decidable_decidable_contr</title>
<path fill="none" stroke="black" d="M823.09,-669.39C782.45,-628.94 702.4,-549.28 662.21,-509.28"/>
<polygon fill="black" stroke="black" points="664.29,-506.41 654.73,-501.84 659.35,-511.37 664.29,-506.41"/>
</g>
<!-- Decidable_decidablepaths_hprop&#45;&gt;Decidable_DecidablePaths -->
<g id="edge43" class="edge">
<title>Decidable_decidablepaths_hprop&#45;&gt;Decidable_DecidablePaths</title>
<path fill="none" stroke="black" d="M844.86,-668.98C839.94,-629.41 830.44,-553.05 825.38,-512.33"/>
<polygon fill="black" stroke="black" points="828.84,-511.81 824.13,-502.31 821.89,-512.67 828.84,-511.81"/>
</g>
<!-- Decidable_decidablepaths_hprop&#45;&gt;Decidable_dec -->
<g id="edge44" class="edge">
<title>Decidable_decidablepaths_hprop&#45;&gt;Decidable_dec</title>
<path fill="none" stroke="black" d="M774.27,-674.52C671.96,-645.75 482.65,-587.16 333,-510.19 329.45,-508.36 325.84,-506.23 322.34,-504"/>
<polygon fill="black" stroke="black" points="324.24,-501.06 314,-498.36 320.32,-506.86 324.24,-501.06"/>
</g>
<!-- Decidable_decidable_contr&#45;&gt;Decidable_Decidable -->
<g id="edge45" class="edge">
<title>Decidable_decidable_contr&#45;&gt;Decidable_Decidable</title>
<path fill="none" stroke="black" d="M645.53,-466.08C661.57,-429.63 699.23,-344.09 718.38,-300.59"/>
<polygon fill="black" stroke="black" points="721.67,-301.8 722.5,-291.23 715.26,-298.98 721.67,-301.8"/>
</g>
<!-- Decidable_decide_rel -->
<g id="node30" class="node">
<title>Decidable_decide_rel</title>
<g id="a_node30"><a xlink:href="Decidable.html#decide_rel" xlink:title="decide_rel">
<ellipse fill="#f070d1" stroke="black" cx="1205" cy="-484.19" rx="57.71" ry="18"/>
<ellipse fill="none" stroke="black" cx="1205" cy="-484.19" rx="61.7" ry="22"/>
<ellipse fill="none" stroke="black" cx="1205" cy="-484.19" rx="65.69" ry="26"/>
<text text-anchor="middle" x="1205" y="-480.49" font-family="Times,serif" font-size="14.00">decide_rel</text>
</a>
</g>
</g>
<!-- Decidable_decide_rel&#45;&gt;Decidable_Decidable -->
<g id="edge46" class="edge">
<title>Decidable_decide_rel&#45;&gt;Decidable_Decidable</title>
<path fill="none" stroke="black" d="M1162.01,-464.27C1071.12,-424.28 860.49,-331.6 771.2,-292.31"/>
<polygon fill="black" stroke="black" points="772.49,-289.06 761.93,-288.24 769.68,-295.47 772.49,-289.06"/>
</g>
<!-- Decidable_stable_negation -->
<g id="node31" class="node">
<title>Decidable_stable_negation</title>
<g id="a_node31"><a xlink:href="Decidable.html#stable_negation" xlink:title="stable_negation">
<ellipse fill="#f070d1" stroke="black" cx="108" cy="-695.19" rx="83.7" ry="18"/>
<ellipse fill="none" stroke="black" cx="108" cy="-695.19" rx="87.69" ry="22"/>
<ellipse fill="none" stroke="black" cx="108" cy="-695.19" rx="91.69" ry="26"/>
<text text-anchor="middle" x="108" y="-691.49" font-family="Times,serif" font-size="14.00">stable_negation</text>
</a>
</g>
</g>
<!-- Decidable_Stable -->
<g id="node34" class="node">
<title>Decidable_Stable</title>
<g id="a_node34"><a xlink:href="Decidable.html#Stable" xlink:title="Stable">
<ellipse fill="#f070d1" stroke="black" cx="56" cy="-484.19" rx="40.09" ry="18"/>
<text text-anchor="middle" x="56" y="-480.49" font-family="Times,serif" font-size="14.00">Stable</text>
</a>
</g>
</g>
<!-- Decidable_stable_negation&#45;&gt;Decidable_Stable -->
<g id="edge47" class="edge">
<title>Decidable_stable_negation&#45;&gt;Decidable_Stable</title>
<path fill="none" stroke="black" d="M101.73,-668.98C91.86,-629.33 72.8,-552.73 62.69,-512.07"/>
<polygon fill="black" stroke="black" points="66.07,-511.17 60.26,-502.31 59.28,-512.86 66.07,-511.17"/>
</g>
<!-- Decidable_stable_decidable -->
<g id="node32" class="node">
<title>Decidable_stable_decidable</title>
<g id="a_node32"><a xlink:href="Decidable.html#stable_decidable" xlink:title="stable_decidable">
<ellipse fill="#f070d1" stroke="black" cx="614" cy="-695.19" rx="87.96" ry="18"/>
<ellipse fill="none" stroke="black" cx="614" cy="-695.19" rx="91.97" ry="22"/>
<ellipse fill="none" stroke="black" cx="614" cy="-695.19" rx="95.99" ry="26"/>
<text text-anchor="middle" x="614" y="-691.49" font-family="Times,serif" font-size="14.00">stable_decidable</text>
</a>
</g>
</g>
<!-- Decidable_stable_decidable&#45;&gt;Decidable_Stable -->
<g id="edge48" class="edge">
<title>Decidable_stable_decidable&#45;&gt;Decidable_Stable</title>
<path fill="none" stroke="black" d="M553.11,-674.91C456.64,-643.77 263.4,-578.9 105,-510.19 99.96,-508 94.72,-505.54 89.61,-503.03"/>
<polygon fill="black" stroke="black" points="91.15,-499.88 80.64,-498.52 88,-506.14 91.15,-499.88"/>
</g>
<!-- Decidable_stable_decidable&#45;&gt;Decidable_dec -->
<g id="edge49" class="edge">
<title>Decidable_stable_decidable&#45;&gt;Decidable_dec</title>
<path fill="none" stroke="black" d="M577.86,-670.97C524.17,-636.37 420.26,-569.04 333,-510.19 329.85,-508.06 326.56,-505.81 323.3,-503.57"/>
<polygon fill="black" stroke="black" points="325.09,-500.56 314.88,-497.75 321.11,-506.31 325.09,-500.56"/>
</g>
<!-- Decidable_stable -->
<g id="node33" class="node">
<title>Decidable_stable</title>
<g id="a_node33"><a xlink:href="Decidable.html#stable" xlink:title="stable">
<ellipse fill="#f070d1" stroke="black" cx="265" cy="-695.19" rx="38.99" ry="18"/>
<ellipse fill="none" stroke="black" cx="265" cy="-695.19" rx="42.99" ry="22"/>
<ellipse fill="none" stroke="black" cx="265" cy="-695.19" rx="46.99" ry="26"/>
<text text-anchor="middle" x="265" y="-691.49" font-family="Times,serif" font-size="14.00">stable</text>
</a>
</g>
</g>
<!-- Decidable_stable&#45;&gt;Decidable_Stable -->
<g id="edge50" class="edge">
<title>Decidable_stable&#45;&gt;Decidable_Stable</title>
<path fill="none" stroke="black" d="M242.63,-671.82C202.75,-631.94 119.74,-548.93 79.24,-508.43"/>
<polygon fill="black" stroke="black" points="81.28,-505.51 71.73,-500.92 76.33,-510.46 81.28,-505.51"/>
</g>
<!-- Decidable_dec_paths&#45;&gt;Decidable_DecidablePaths -->
<g id="edge51" class="edge">
<title>Decidable_dec_paths&#45;&gt;Decidable_DecidablePaths</title>
<path fill="none" stroke="black" d="M1292.93,-680.47C1205.52,-644.23 968.21,-545.82 867.83,-504.19"/>
<polygon fill="black" stroke="black" points="869.13,-500.94 858.55,-500.34 866.45,-507.41 869.13,-500.94"/>
</g>
<!-- Decidable_DecidablePaths&#45;&gt;Decidable_Decidable -->
<g id="edge52" class="edge">
<title>Decidable_DecidablePaths&#45;&gt;Decidable_Decidable</title>
<path fill="none" stroke="black" d="M814.47,-466.08C798.43,-429.63 760.77,-344.09 741.62,-300.59"/>
<polygon fill="black" stroke="black" points="744.74,-298.98 737.5,-291.23 738.33,-301.8 744.74,-298.98"/>
</g>
<!-- Decidable_decidable_false -->
<g id="node37" class="node">
<title>Decidable_decidable_false</title>
<g id="a_node37"><a xlink:href="Decidable.html#decidable_false" xlink:title="decidable_false">
<ellipse fill="#f070d1" stroke="black" cx="1012" cy="-484.19" rx="81.46" ry="18"/>
<ellipse fill="none" stroke="black" cx="1012" cy="-484.19" rx="85.48" ry="22"/>
<ellipse fill="none" stroke="black" cx="1012" cy="-484.19" rx="89.49" ry="26"/>
<text text-anchor="middle" x="1012" y="-480.49" font-family="Times,serif" font-size="14.00">decidable_false</text>
</a>
</g>
</g>
<!-- Decidable_decidable_false&#45;&gt;Decidable_Decidable -->
<g id="edge53" class="edge">
<title>Decidable_decidable_false&#45;&gt;Decidable_Decidable</title>
<path fill="none" stroke="black" d="M980.47,-459.82C925.49,-419.07 812.85,-335.59 759.4,-295.98"/>
<polygon fill="black" stroke="black" points="761.47,-293.15 751.35,-290.01 757.3,-298.77 761.47,-293.15"/>
</g>
<!-- Decidable_decidable_true&#45;&gt;Decidable_Decidable -->
<g id="edge54" class="edge">
<title>Decidable_decidable_true&#45;&gt;Decidable_Decidable</title>
<path fill="none" stroke="black" d="M1575.19,-891.2C1502.1,-866.6 1355.79,-809.63 1260,-721.19 1219.54,-683.83 1154.43,-559.54 1130,-510.19 1119.01,-488 1126.76,-476.41 1110,-458.19 1019.84,-360.14 866.19,-308.57 784.63,-286.9"/>
<polygon fill="black" stroke="black" points="785.13,-283.42 774.57,-284.29 783.37,-290.19 785.13,-283.42"/>
</g>
<!-- Decidable_dec&#45;&gt;Decidable_Decidable -->
<g id="edge55" class="edge">
<title>Decidable_dec&#45;&gt;Decidable_Decidable</title>
<path fill="none" stroke="black" d="M314.55,-470.1C320.29,-466.06 326.79,-461.74 333,-458.19 456.47,-387.41 611.83,-321.69 686.29,-291.52"/>
<polygon fill="black" stroke="black" points="687.86,-294.66 695.82,-287.68 685.24,-288.17 687.86,-294.66"/>
</g>
</g>
</svg>
