<?xml version="1.0" encoding="UTF-8" standalone="no"?>
<!DOCTYPE svg PUBLIC "-//W3C//DTD SVG 1.1//EN"
 "http://www.w3.org/Graphics/SVG/1.1/DTD/svg11.dtd">
<!-- Generated by graphviz version 2.43.0 (0)
 -->
<!-- Title: HoTT_Classes_isomorphisms_rings Pages: 1 -->
<svg width="1072pt" height="540pt"
 viewBox="0.00 0.00 1072.00 540.00" xmlns="http://www.w3.org/2000/svg" xmlns:xlink="http://www.w3.org/1999/xlink">
<g id="graph0" class="graph" transform="scale(1 1) rotate(0) translate(4 536)">
<title>HoTT_Classes_isomorphisms_rings</title>
<polygon fill="white" stroke="transparent" points="-4,4 -4,-536 1068,-536 1068,4 -4,4"/>
<g id="clust1" class="cluster">
<title>cluster_rings</title>
<polygon fill="#ffffc3" stroke="black" points="8,-9.46 8,-522.54 1056,-522.54 1056,-9.46 8,-9.46"/>
<text text-anchor="middle" x="34.5" y="-507.34" font-family="Times,serif" font-size="14.00">rings</text>
</g>
<g id="clust2" class="cluster">
<title>cluster_rings_Rings</title>
<polygon fill="#ffffa3" stroke="black" points="520,-18.92 520,-485.89 1048,-485.89 1048,-18.92 520,-18.92"/>
<text text-anchor="middle" x="548.5" y="-470.69" font-family="Times,serif" font-size="14.00">Rings</text>
</g>
<g id="clust3" class="cluster">
<title>cluster_rings_SemiRings</title>
<polygon fill="#ffffa3" stroke="black" points="16,-18.92 16,-485.89 512,-485.89 512,-18.92 16,-18.92"/>
<text text-anchor="middle" x="62.5" y="-470.69" font-family="Times,serif" font-size="14.00">SemiRings</text>
</g>
<!-- rings_SemiRings_iso_leibnitz -->
<g id="node1" class="node">
<title>rings_SemiRings_iso_leibnitz</title>
<g id="a_node1"><a xlink:href="rings.html#SemiRings.iso_leibnitz" xlink:title="iso_leibnitz">
<ellipse fill="#f070d1" stroke="black" cx="282" cy="-418.46" rx="63.08" ry="18"/>
<ellipse fill="none" stroke="black" cx="282" cy="-418.46" rx="67.09" ry="22"/>
<ellipse fill="none" stroke="black" cx="282" cy="-418.46" rx="71.09" ry="26"/>
<text text-anchor="middle" x="282" y="-414.76" font-family="Times,serif" font-size="14.00">iso_leibnitz</text>
</a>
</g>
</g>
<!-- rings_SemiRings_iso_same_semirings -->
<g id="node2" class="node">
<title>rings_SemiRings_iso_same_semirings</title>
<g id="a_node2"><a xlink:href="rings.html#SemiRings.iso_same_semirings" xlink:title="iso_same_semirings">
<ellipse fill="#f070d1" stroke="black" cx="282" cy="-323.46" rx="102.88" ry="18"/>
<text text-anchor="middle" x="282" y="-319.76" font-family="Times,serif" font-size="14.00">iso_same_semirings</text>
</a>
</g>
</g>
<!-- rings_SemiRings_iso_leibnitz&#45;&gt;rings_SemiRings_iso_same_semirings -->
<g id="edge1" class="edge">
<title>rings_SemiRings_iso_leibnitz&#45;&gt;rings_SemiRings_iso_same_semirings</title>
<path fill="none" stroke="black" d="M282,-392.05C282,-379.52 282,-364.42 282,-351.66"/>
<polygon fill="black" stroke="black" points="285.5,-351.61 282,-341.61 278.5,-351.61 285.5,-351.61"/>
</g>
<!-- rings_SemiRings_SR_one -->
<g id="node3" class="node">
<title>rings_SemiRings_SR_one</title>
<g id="a_node3"><a xlink:href="rings.html#SemiRings.SR_one" xlink:title="SR_one">
<ellipse fill="#f070d1" stroke="black" cx="113" cy="-238.46" rx="44.69" ry="18"/>
<text text-anchor="middle" x="113" y="-234.76" font-family="Times,serif" font-size="14.00">SR_one</text>
</a>
</g>
</g>
<!-- rings_SemiRings_iso_same_semirings&#45;&gt;rings_SemiRings_SR_one -->
<g id="edge2" class="edge">
<title>rings_SemiRings_iso_same_semirings&#45;&gt;rings_SemiRings_SR_one</title>
<path fill="none" stroke="black" d="M249.01,-306.26C220.41,-292.21 179.07,-271.91 149.49,-257.38"/>
<polygon fill="black" stroke="black" points="150.84,-254.14 140.32,-252.88 147.76,-260.43 150.84,-254.14"/>
</g>
<!-- rings_SemiRings_SR_zero -->
<g id="node4" class="node">
<title>rings_SemiRings_SR_zero</title>
<g id="a_node4"><a xlink:href="rings.html#SemiRings.SR_zero" xlink:title="SR_zero">
<ellipse fill="#f070d1" stroke="black" cx="224" cy="-238.46" rx="48.19" ry="18"/>
<text text-anchor="middle" x="224" y="-234.76" font-family="Times,serif" font-size="14.00">SR_zero</text>
</a>
</g>
</g>
<!-- rings_SemiRings_iso_same_semirings&#45;&gt;rings_SemiRings_SR_zero -->
<g id="edge3" class="edge">
<title>rings_SemiRings_iso_same_semirings&#45;&gt;rings_SemiRings_SR_zero</title>
<path fill="none" stroke="black" d="M269.98,-305.26C261.71,-293.42 250.59,-277.5 241.35,-264.29"/>
<polygon fill="black" stroke="black" points="244.2,-262.26 235.61,-256.07 238.47,-266.27 244.2,-262.26"/>
</g>
<!-- rings_SemiRings_SR_mult -->
<g id="node5" class="node">
<title>rings_SemiRings_SR_mult</title>
<g id="a_node5"><a xlink:href="rings.html#SemiRings.SR_mult" xlink:title="SR_mult">
<ellipse fill="#f070d1" stroke="black" cx="340" cy="-238.46" rx="50.09" ry="18"/>
<text text-anchor="middle" x="340" y="-234.76" font-family="Times,serif" font-size="14.00">SR_mult</text>
</a>
</g>
</g>
<!-- rings_SemiRings_iso_same_semirings&#45;&gt;rings_SemiRings_SR_mult -->
<g id="edge4" class="edge">
<title>rings_SemiRings_iso_same_semirings&#45;&gt;rings_SemiRings_SR_mult</title>
<path fill="none" stroke="black" d="M294.02,-305.26C302.29,-293.42 313.41,-277.5 322.65,-264.29"/>
<polygon fill="black" stroke="black" points="325.53,-266.27 328.39,-256.07 319.8,-262.26 325.53,-266.27"/>
</g>
<!-- rings_SemiRings_SR_plus -->
<g id="node6" class="node">
<title>rings_SemiRings_SR_plus</title>
<g id="a_node6"><a xlink:href="rings.html#SemiRings.SR_plus" xlink:title="SR_plus">
<ellipse fill="#f070d1" stroke="black" cx="456" cy="-238.46" rx="48.19" ry="18"/>
<text text-anchor="middle" x="456" y="-234.76" font-family="Times,serif" font-size="14.00">SR_plus</text>
</a>
</g>
</g>
<!-- rings_SemiRings_iso_same_semirings&#45;&gt;rings_SemiRings_SR_plus -->
<g id="edge5" class="edge">
<title>rings_SemiRings_iso_same_semirings&#45;&gt;rings_SemiRings_SR_plus</title>
<path fill="none" stroke="black" d="M315.96,-306.26C345.45,-292.19 388.08,-271.85 418.55,-257.32"/>
<polygon fill="black" stroke="black" points="420.07,-260.47 427.59,-253.01 417.06,-254.16 420.07,-260.47"/>
</g>
<!-- rings_SemiRings_SR_carrier -->
<g id="node7" class="node">
<title>rings_SemiRings_SR_carrier</title>
<g id="a_node7"><a xlink:href="rings.html#SemiRings.SR_carrier" xlink:title="SR_carrier">
<ellipse fill="#f070d1" stroke="black" cx="444" cy="-144.46" rx="59.59" ry="18"/>
<text text-anchor="middle" x="444" y="-140.76" font-family="Times,serif" font-size="14.00">SR_carrier</text>
</a>
</g>
</g>
<!-- rings_SemiRings_SR_one&#45;&gt;rings_SemiRings_SR_carrier -->
<g id="edge6" class="edge">
<title>rings_SemiRings_SR_one&#45;&gt;rings_SemiRings_SR_carrier</title>
<path fill="none" stroke="black" d="M146.6,-226.49C153.33,-224.4 160.37,-222.3 167,-220.46 258.62,-195.06 283.94,-197.81 375,-170.46 382.89,-168.09 391.21,-165.32 399.22,-162.5"/>
<polygon fill="black" stroke="black" points="400.56,-165.74 408.8,-159.07 398.2,-159.15 400.56,-165.74"/>
</g>
<!-- rings_SemiRings_SR_zero&#45;&gt;rings_SemiRings_SR_carrier -->
<g id="edge7" class="edge">
<title>rings_SemiRings_SR_zero&#45;&gt;rings_SemiRings_SR_carrier</title>
<path fill="none" stroke="black" d="M255.05,-224.47C293.26,-208.49 358.34,-181.28 401.25,-163.34"/>
<polygon fill="black" stroke="black" points="402.71,-166.52 410.58,-159.43 400.01,-160.06 402.71,-166.52"/>
</g>
<!-- rings_SemiRings_SR_mult&#45;&gt;rings_SemiRings_SR_carrier -->
<g id="edge8" class="edge">
<title>rings_SemiRings_SR_mult&#45;&gt;rings_SemiRings_SR_carrier</title>
<path fill="none" stroke="black" d="M358.12,-221.43C374.72,-206.75 399.48,-184.84 418.15,-168.32"/>
<polygon fill="black" stroke="black" points="420.57,-170.86 425.74,-161.61 415.93,-165.61 420.57,-170.86"/>
</g>
<!-- rings_SemiRings_SR_plus&#45;&gt;rings_SemiRings_SR_carrier -->
<g id="edge9" class="edge">
<title>rings_SemiRings_SR_plus&#45;&gt;rings_SemiRings_SR_carrier</title>
<path fill="none" stroke="black" d="M453.74,-220.15C452,-206.79 449.55,-188.04 447.55,-172.68"/>
<polygon fill="black" stroke="black" points="451.01,-172.15 446.25,-162.68 444.07,-173.05 451.01,-172.15"/>
</g>
<!-- rings_SemiRings_Operations -->
<g id="node10" class="node">
<title>rings_SemiRings_Operations</title>
<g id="a_node10"><a xlink:href="rings.html#SemiRings.Operations" xlink:title="Operations">
<ellipse fill="#f070d1" stroke="black" cx="272" cy="-49.46" rx="61.99" ry="18"/>
<text text-anchor="middle" x="272" y="-45.76" font-family="Times,serif" font-size="14.00">Operations</text>
</a>
</g>
</g>
<!-- rings_SemiRings_SR_carrier&#45;&gt;rings_SemiRings_Operations -->
<g id="edge10" class="edge">
<title>rings_SemiRings_SR_carrier&#45;&gt;rings_SemiRings_Operations</title>
<path fill="none" stroke="black" d="M415.98,-128.31C386.87,-112.57 341.17,-87.86 309.08,-70.51"/>
<polygon fill="black" stroke="black" points="310.47,-67.28 300.01,-65.6 307.14,-73.44 310.47,-67.28"/>
</g>
<!-- rings_SemiRings_BuildOperations -->
<g id="node8" class="node">
<title>rings_SemiRings_BuildOperations</title>
<g id="a_node8"><a xlink:href="rings.html#SemiRings.BuildOperations" xlink:title="BuildOperations">
<ellipse fill="#f070d1" stroke="black" cx="272" cy="-144.46" rx="86.39" ry="18"/>
<ellipse fill="none" stroke="black" cx="272" cy="-144.46" rx="90.39" ry="22"/>
<ellipse fill="none" stroke="black" cx="272" cy="-144.46" rx="94.38" ry="26"/>
<text text-anchor="middle" x="272" y="-140.76" font-family="Times,serif" font-size="14.00">BuildOperations</text>
</a>
</g>
</g>
<!-- rings_SemiRings_BuildOperations&#45;&gt;rings_SemiRings_Operations -->
<g id="edge11" class="edge">
<title>rings_SemiRings_BuildOperations&#45;&gt;rings_SemiRings_Operations</title>
<path fill="none" stroke="black" d="M272,-118.05C272,-105.52 272,-90.42 272,-77.66"/>
<polygon fill="black" stroke="black" points="275.5,-77.61 272,-67.61 268.5,-77.61 275.5,-77.61"/>
</g>
<!-- rings_SemiRings_operations -->
<g id="node9" class="node">
<title>rings_SemiRings_operations</title>
<g id="a_node9"><a xlink:href="rings.html#SemiRings.operations" xlink:title="operations">
<ellipse fill="#f070d1" stroke="black" cx="92" cy="-144.46" rx="59.61" ry="18"/>
<ellipse fill="none" stroke="black" cx="92" cy="-144.46" rx="63.6" ry="22"/>
<ellipse fill="none" stroke="black" cx="92" cy="-144.46" rx="67.59" ry="26"/>
<text text-anchor="middle" x="92" y="-140.76" font-family="Times,serif" font-size="14.00">operations</text>
</a>
</g>
</g>
<!-- rings_SemiRings_operations&#45;&gt;rings_SemiRings_Operations -->
<g id="edge12" class="edge">
<title>rings_SemiRings_operations&#45;&gt;rings_SemiRings_Operations</title>
<path fill="none" stroke="black" d="M131.5,-123.05C161.98,-107.3 203.89,-85.65 233.99,-70.1"/>
<polygon fill="black" stroke="black" points="235.65,-73.18 242.92,-65.48 232.43,-66.96 235.65,-73.18"/>
</g>
<!-- rings_Rings_iso_leibnitz -->
<g id="node11" class="node">
<title>rings_Rings_iso_leibnitz</title>
<g id="a_node11"><a xlink:href="rings.html#Rings.iso_leibnitz" xlink:title="iso_leibnitz">
<ellipse fill="#f070d1" stroke="black" cx="791" cy="-418.46" rx="63.08" ry="18"/>
<ellipse fill="none" stroke="black" cx="791" cy="-418.46" rx="67.09" ry="22"/>
<ellipse fill="none" stroke="black" cx="791" cy="-418.46" rx="71.09" ry="26"/>
<text text-anchor="middle" x="791" y="-414.76" font-family="Times,serif" font-size="14.00">iso_leibnitz</text>
</a>
</g>
</g>
<!-- rings_Rings_iso_same_rings -->
<g id="node12" class="node">
<title>rings_Rings_iso_same_rings</title>
<g id="a_node12"><a xlink:href="rings.html#Rings.iso_same_rings" xlink:title="iso_same_rings">
<ellipse fill="#f070d1" stroke="black" cx="791" cy="-323.46" rx="81.49" ry="18"/>
<text text-anchor="middle" x="791" y="-319.76" font-family="Times,serif" font-size="14.00">iso_same_rings</text>
</a>
</g>
</g>
<!-- rings_Rings_iso_leibnitz&#45;&gt;rings_Rings_iso_same_rings -->
<g id="edge13" class="edge">
<title>rings_Rings_iso_leibnitz&#45;&gt;rings_Rings_iso_same_rings</title>
<path fill="none" stroke="black" d="M791,-392.05C791,-379.52 791,-364.42 791,-351.66"/>
<polygon fill="black" stroke="black" points="794.5,-351.61 791,-341.61 787.5,-351.61 794.5,-351.61"/>
</g>
<!-- rings_Rings_R_negate -->
<g id="node13" class="node">
<title>rings_Rings_R_negate</title>
<g id="a_node13"><a xlink:href="rings.html#Rings.R_negate" xlink:title="R_negate">
<ellipse fill="#f070d1" stroke="black" cx="582" cy="-238.46" rx="53.89" ry="18"/>
<text text-anchor="middle" x="582" y="-234.76" font-family="Times,serif" font-size="14.00">R_negate</text>
</a>
</g>
</g>
<!-- rings_Rings_iso_same_rings&#45;&gt;rings_Rings_R_negate -->
<g id="edge14" class="edge">
<title>rings_Rings_iso_same_rings&#45;&gt;rings_Rings_R_negate</title>
<path fill="none" stroke="black" d="M753.15,-307.43C717.09,-293.1 662.84,-271.56 625.12,-256.58"/>
<polygon fill="black" stroke="black" points="626.01,-253.17 615.43,-252.73 623.43,-259.68 626.01,-253.17"/>
</g>
<!-- rings_Rings_R_one -->
<g id="node14" class="node">
<title>rings_Rings_R_one</title>
<g id="a_node14"><a xlink:href="rings.html#Rings.R_one" xlink:title="R_one">
<ellipse fill="#f070d1" stroke="black" cx="692" cy="-238.46" rx="38.19" ry="18"/>
<text text-anchor="middle" x="692" y="-234.76" font-family="Times,serif" font-size="14.00">R_one</text>
</a>
</g>
</g>
<!-- rings_Rings_iso_same_rings&#45;&gt;rings_Rings_R_one -->
<g id="edge15" class="edge">
<title>rings_Rings_iso_same_rings&#45;&gt;rings_Rings_R_one</title>
<path fill="none" stroke="black" d="M770.97,-305.66C755.62,-292.8 734.34,-274.96 717.74,-261.03"/>
<polygon fill="black" stroke="black" points="719.92,-258.3 710.01,-254.55 715.42,-263.66 719.92,-258.3"/>
</g>
<!-- rings_Rings_R_zero -->
<g id="node15" class="node">
<title>rings_Rings_R_zero</title>
<g id="a_node15"><a xlink:href="rings.html#Rings.R_zero" xlink:title="R_zero">
<ellipse fill="#f070d1" stroke="black" cx="791" cy="-238.46" rx="42.49" ry="18"/>
<text text-anchor="middle" x="791" y="-234.76" font-family="Times,serif" font-size="14.00">R_zero</text>
</a>
</g>
</g>
<!-- rings_Rings_iso_same_rings&#45;&gt;rings_Rings_R_zero -->
<g id="edge16" class="edge">
<title>rings_Rings_iso_same_rings&#45;&gt;rings_Rings_R_zero</title>
<path fill="none" stroke="black" d="M791,-305.26C791,-294.13 791,-279.4 791,-266.7"/>
<polygon fill="black" stroke="black" points="794.5,-266.63 791,-256.63 787.5,-266.63 794.5,-266.63"/>
</g>
<!-- rings_Rings_R_mult -->
<g id="node16" class="node">
<title>rings_Rings_R_mult</title>
<g id="a_node16"><a xlink:href="rings.html#Rings.R_mult" xlink:title="R_mult">
<ellipse fill="#f070d1" stroke="black" cx="895" cy="-238.46" rx="43.59" ry="18"/>
<text text-anchor="middle" x="895" y="-234.76" font-family="Times,serif" font-size="14.00">R_mult</text>
</a>
</g>
</g>
<!-- rings_Rings_iso_same_rings&#45;&gt;rings_Rings_R_mult -->
<g id="edge17" class="edge">
<title>rings_Rings_iso_same_rings&#45;&gt;rings_Rings_R_mult</title>
<path fill="none" stroke="black" d="M812.05,-305.66C828.06,-292.88 850.24,-275.18 867.63,-261.3"/>
<polygon fill="black" stroke="black" points="870.11,-263.8 875.74,-254.83 865.74,-258.33 870.11,-263.8"/>
</g>
<!-- rings_Rings_R_plus -->
<g id="node17" class="node">
<title>rings_Rings_R_plus</title>
<g id="a_node17"><a xlink:href="rings.html#Rings.R_plus" xlink:title="R_plus">
<ellipse fill="#f070d1" stroke="black" cx="998" cy="-238.46" rx="41.69" ry="18"/>
<text text-anchor="middle" x="998" y="-234.76" font-family="Times,serif" font-size="14.00">R_plus</text>
</a>
</g>
</g>
<!-- rings_Rings_iso_same_rings&#45;&gt;rings_Rings_R_plus -->
<g id="edge18" class="edge">
<title>rings_Rings_iso_same_rings&#45;&gt;rings_Rings_R_plus</title>
<path fill="none" stroke="black" d="M828.49,-307.43C865.38,-292.63 921.49,-270.13 958.93,-255.12"/>
<polygon fill="black" stroke="black" points="960.51,-258.26 968.49,-251.29 957.91,-251.76 960.51,-258.26"/>
</g>
<!-- rings_Rings_R_carrier -->
<g id="node18" class="node">
<title>rings_Rings_R_carrier</title>
<g id="a_node18"><a xlink:href="rings.html#Rings.R_carrier" xlink:title="R_carrier">
<ellipse fill="#f070d1" stroke="black" cx="942" cy="-144.46" rx="53.89" ry="18"/>
<text text-anchor="middle" x="942" y="-140.76" font-family="Times,serif" font-size="14.00">R_carrier</text>
</a>
</g>
</g>
<!-- rings_Rings_R_negate&#45;&gt;rings_Rings_R_carrier -->
<g id="edge19" class="edge">
<title>rings_Rings_R_negate&#45;&gt;rings_Rings_R_carrier</title>
<path fill="none" stroke="black" d="M621.91,-226.35C629.56,-224.31 637.51,-222.27 645,-220.46 748.37,-195.48 777.22,-201.29 879,-170.46 886.12,-168.3 893.57,-165.68 900.75,-162.96"/>
<polygon fill="black" stroke="black" points="902.28,-166.13 910.32,-159.23 899.73,-159.61 902.28,-166.13"/>
</g>
<!-- rings_Rings_R_one&#45;&gt;rings_Rings_R_carrier -->
<g id="edge20" class="edge">
<title>rings_Rings_R_one&#45;&gt;rings_Rings_R_carrier</title>
<path fill="none" stroke="black" d="M721.74,-226.94C766.61,-211.05 849.48,-181.6 879,-170.46 885.58,-167.97 892.53,-165.29 899.31,-162.62"/>
<polygon fill="black" stroke="black" points="901.04,-165.7 909.06,-158.77 898.47,-159.19 901.04,-165.7"/>
</g>
<!-- rings_Rings_R_zero&#45;&gt;rings_Rings_R_carrier -->
<g id="edge21" class="edge">
<title>rings_Rings_R_zero&#45;&gt;rings_Rings_R_carrier</title>
<path fill="none" stroke="black" d="M814.26,-223.28C839.42,-207.96 879.75,-183.38 908.36,-165.95"/>
<polygon fill="black" stroke="black" points="910.48,-168.76 917.2,-160.57 906.84,-162.78 910.48,-168.76"/>
</g>
<!-- rings_Rings_R_mult&#45;&gt;rings_Rings_R_carrier -->
<g id="edge22" class="edge">
<title>rings_Rings_R_mult&#45;&gt;rings_Rings_R_carrier</title>
<path fill="none" stroke="black" d="M903.62,-220.58C910.6,-206.92 920.55,-187.44 928.57,-171.74"/>
<polygon fill="black" stroke="black" points="931.84,-173.03 933.27,-162.54 925.61,-169.85 931.84,-173.03"/>
</g>
<!-- rings_Rings_R_plus&#45;&gt;rings_Rings_R_carrier -->
<g id="edge23" class="edge">
<title>rings_Rings_R_plus&#45;&gt;rings_Rings_R_carrier</title>
<path fill="none" stroke="black" d="M987.73,-220.58C979.28,-206.71 967.18,-186.82 957.55,-171"/>
<polygon fill="black" stroke="black" points="960.4,-168.95 952.21,-162.23 954.42,-172.59 960.4,-168.95"/>
</g>
<!-- rings_Rings_Operations -->
<g id="node21" class="node">
<title>rings_Rings_Operations</title>
<g id="a_node21"><a xlink:href="rings.html#Rings.Operations" xlink:title="Operations">
<ellipse fill="#f070d1" stroke="black" cx="776" cy="-49.46" rx="61.99" ry="18"/>
<text text-anchor="middle" x="776" y="-45.76" font-family="Times,serif" font-size="14.00">Operations</text>
</a>
</g>
</g>
<!-- rings_Rings_R_carrier&#45;&gt;rings_Rings_Operations -->
<g id="edge24" class="edge">
<title>rings_Rings_R_carrier&#45;&gt;rings_Rings_Operations</title>
<path fill="none" stroke="black" d="M915.7,-128.72C887.74,-113.06 843.34,-88.19 812.12,-70.69"/>
<polygon fill="black" stroke="black" points="813.72,-67.58 803.28,-65.74 810.3,-73.68 813.72,-67.58"/>
</g>
<!-- rings_Rings_BuildOperations -->
<g id="node19" class="node">
<title>rings_Rings_BuildOperations</title>
<g id="a_node19"><a xlink:href="rings.html#Rings.BuildOperations" xlink:title="BuildOperations">
<ellipse fill="#f070d1" stroke="black" cx="776" cy="-144.46" rx="86.39" ry="18"/>
<ellipse fill="none" stroke="black" cx="776" cy="-144.46" rx="90.39" ry="22"/>
<ellipse fill="none" stroke="black" cx="776" cy="-144.46" rx="94.38" ry="26"/>
<text text-anchor="middle" x="776" y="-140.76" font-family="Times,serif" font-size="14.00">BuildOperations</text>
</a>
</g>
</g>
<!-- rings_Rings_BuildOperations&#45;&gt;rings_Rings_Operations -->
<g id="edge25" class="edge">
<title>rings_Rings_BuildOperations&#45;&gt;rings_Rings_Operations</title>
<path fill="none" stroke="black" d="M776,-118.05C776,-105.52 776,-90.42 776,-77.66"/>
<polygon fill="black" stroke="black" points="779.5,-77.61 776,-67.61 772.5,-77.61 779.5,-77.61"/>
</g>
<!-- rings_Rings_operations -->
<g id="node20" class="node">
<title>rings_Rings_operations</title>
<g id="a_node20"><a xlink:href="rings.html#Rings.operations" xlink:title="operations">
<ellipse fill="#f070d1" stroke="black" cx="596" cy="-144.46" rx="59.61" ry="18"/>
<ellipse fill="none" stroke="black" cx="596" cy="-144.46" rx="63.6" ry="22"/>
<ellipse fill="none" stroke="black" cx="596" cy="-144.46" rx="67.59" ry="26"/>
<text text-anchor="middle" x="596" y="-140.76" font-family="Times,serif" font-size="14.00">operations</text>
</a>
</g>
</g>
<!-- rings_Rings_operations&#45;&gt;rings_Rings_Operations -->
<g id="edge26" class="edge">
<title>rings_Rings_operations&#45;&gt;rings_Rings_Operations</title>
<path fill="none" stroke="black" d="M635.5,-123.05C665.98,-107.3 707.89,-85.65 737.99,-70.1"/>
<polygon fill="black" stroke="black" points="739.65,-73.18 746.92,-65.48 736.43,-66.96 739.65,-73.18"/>
</g>
</g>
</svg>
