<?xml version="1.0" encoding="UTF-8" standalone="no"?>
<!DOCTYPE svg PUBLIC "-//W3C//DTD SVG 1.1//EN"
 "http://www.w3.org/Graphics/SVG/1.1/DTD/svg11.dtd">
<!-- Generated by graphviz version 2.43.0 (0)
 -->
<!-- Title: HoTT_Universes_HSet Pages: 1 -->
<svg width="1883pt" height="946pt"
 viewBox="0.00 0.00 1883.00 945.50" xmlns="http://www.w3.org/2000/svg" xmlns:xlink="http://www.w3.org/1999/xlink">
<g id="graph0" class="graph" transform="scale(1 1) rotate(0) translate(4 941.5)">
<title>HoTT_Universes_HSet</title>
<polygon fill="white" stroke="transparent" points="-4,4 -4,-941.5 1879,-941.5 1879,4 -4,4"/>
<g id="clust1" class="cluster">
<title>cluster_HSet</title>
<polygon fill="#ffffc3" stroke="black" points="8,-23.22 8,-914.28 1867,-914.28 1867,-23.22 8,-23.22"/>
<text text-anchor="middle" x="34.5" y="-899.08" font-family="Times,serif" font-size="14.00">HSet</text>
</g>
<!-- HSet_cancelL_isembedding -->
<g id="node1" class="node">
<title>HSet_cancelL_isembedding</title>
<g id="a_node1"><a xlink:href="HSet.html#cancelL_isembedding" xlink:title="cancelL_isembedding">
<ellipse fill="#f070d1" stroke="black" cx="1206" cy="-749.22" rx="109.69" ry="18"/>
<ellipse fill="none" stroke="black" cx="1206" cy="-749.22" rx="113.69" ry="22"/>
<ellipse fill="none" stroke="black" cx="1206" cy="-749.22" rx="117.68" ry="26"/>
<text text-anchor="middle" x="1206" y="-745.52" font-family="Times,serif" font-size="14.00">cancelL_isembedding</text>
</a>
</g>
</g>
<!-- HSet_isembedding_isinj_hset -->
<g id="node5" class="node">
<title>HSet_isembedding_isinj_hset</title>
<g id="a_node5"><a xlink:href="HSet.html#isembedding_isinj_hset" xlink:title="isembedding_isinj_hset">
<ellipse fill="#f070d1" stroke="black" cx="1206" cy="-516.22" rx="118.08" ry="18"/>
<text text-anchor="middle" x="1206" y="-512.52" font-family="Times,serif" font-size="14.00">isembedding_isinj_hset</text>
</a>
</g>
</g>
<!-- HSet_cancelL_isembedding&#45;&gt;HSet_isembedding_isinj_hset -->
<g id="edge1" class="edge">
<title>HSet_cancelL_isembedding&#45;&gt;HSet_isembedding_isinj_hset</title>
<path fill="none" stroke="black" d="M1206,-723.06C1206,-679.31 1206,-589.58 1206,-544.43"/>
<polygon fill="black" stroke="black" points="1209.5,-544.23 1206,-534.23 1202.5,-544.23 1209.5,-544.23"/>
</g>
<!-- HSet_isinj_embedding -->
<g id="node8" class="node">
<title>HSet_isinj_embedding</title>
<g id="a_node8"><a xlink:href="HSet.html#isinj_embedding" xlink:title="isinj_embedding">
<ellipse fill="#f070d1" stroke="black" cx="882" cy="-516.22" rx="86.38" ry="18"/>
<text text-anchor="middle" x="882" y="-512.52" font-family="Times,serif" font-size="14.00">isinj_embedding</text>
</a>
</g>
</g>
<!-- HSet_cancelL_isembedding&#45;&gt;HSet_isinj_embedding -->
<g id="edge2" class="edge">
<title>HSet_cancelL_isembedding&#45;&gt;HSet_isinj_embedding</title>
<path fill="none" stroke="black" d="M1172.24,-724.15C1109.37,-679.33 975.16,-583.64 913.8,-539.89"/>
<polygon fill="black" stroke="black" points="915.46,-536.78 905.29,-533.83 911.4,-542.48 915.46,-536.78"/>
</g>
<!-- HSet_ismono_isequiv -->
<g id="node2" class="node">
<title>HSet_ismono_isequiv</title>
<g id="a_node2"><a xlink:href="HSet.html#ismono_isequiv" xlink:title="ismono_isequiv">
<ellipse fill="#f070d1" stroke="black" cx="1600" cy="-749.22" rx="81.46" ry="18"/>
<ellipse fill="none" stroke="black" cx="1600" cy="-749.22" rx="85.48" ry="22"/>
<ellipse fill="none" stroke="black" cx="1600" cy="-749.22" rx="89.49" ry="26"/>
<text text-anchor="middle" x="1600" y="-745.52" font-family="Times,serif" font-size="14.00">ismono_isequiv</text>
</a>
</g>
</g>
<!-- HSet_ismono -->
<g id="node9" class="node">
<title>HSet_ismono</title>
<g id="a_node9"><a xlink:href="HSet.html#ismono" xlink:title="ismono">
<ellipse fill="#f070d1" stroke="black" cx="1600" cy="-516.22" rx="44.39" ry="18"/>
<text text-anchor="middle" x="1600" y="-512.52" font-family="Times,serif" font-size="14.00">ismono</text>
</a>
</g>
</g>
<!-- HSet_ismono_isequiv&#45;&gt;HSet_ismono -->
<g id="edge3" class="edge">
<title>HSet_ismono_isequiv&#45;&gt;HSet_ismono</title>
<path fill="none" stroke="black" d="M1600,-723.06C1600,-679.31 1600,-589.58 1600,-544.43"/>
<polygon fill="black" stroke="black" points="1603.5,-544.23 1600,-534.23 1596.5,-544.23 1603.5,-544.23"/>
</g>
<!-- HSet_isinj_ismono -->
<g id="node3" class="node">
<title>HSet_isinj_ismono</title>
<g id="a_node3"><a xlink:href="HSet.html#isinj_ismono" xlink:title="isinj_ismono">
<ellipse fill="#f070d1" stroke="black" cx="1417" cy="-749.22" rx="67.68" ry="18"/>
<ellipse fill="none" stroke="black" cx="1417" cy="-749.22" rx="71.68" ry="22"/>
<ellipse fill="none" stroke="black" cx="1417" cy="-749.22" rx="75.69" ry="26"/>
<text text-anchor="middle" x="1417" y="-745.52" font-family="Times,serif" font-size="14.00">isinj_ismono</text>
</a>
</g>
</g>
<!-- HSet_isinj_ismono&#45;&gt;HSet_ismono -->
<g id="edge4" class="edge">
<title>HSet_isinj_ismono&#45;&gt;HSet_ismono</title>
<path fill="none" stroke="black" d="M1436.24,-723.94C1471.41,-679.54 1545.7,-585.76 1580.83,-541.42"/>
<polygon fill="black" stroke="black" points="1583.64,-543.5 1587.11,-533.49 1578.16,-539.16 1583.64,-543.5"/>
</g>
<!-- HSet_ismono_isinj -->
<g id="node4" class="node">
<title>HSet_ismono_isinj</title>
<g id="a_node4"><a xlink:href="HSet.html#ismono_isinj" xlink:title="ismono_isinj">
<ellipse fill="#f070d1" stroke="black" cx="1783" cy="-749.22" rx="67.68" ry="18"/>
<ellipse fill="none" stroke="black" cx="1783" cy="-749.22" rx="71.68" ry="22"/>
<ellipse fill="none" stroke="black" cx="1783" cy="-749.22" rx="75.69" ry="26"/>
<text text-anchor="middle" x="1783" y="-745.52" font-family="Times,serif" font-size="14.00">ismono_isinj</text>
</a>
</g>
</g>
<!-- HSet_ismono_isinj&#45;&gt;HSet_ismono -->
<g id="edge5" class="edge">
<title>HSet_ismono_isinj&#45;&gt;HSet_ismono</title>
<path fill="none" stroke="black" d="M1763.76,-723.94C1728.59,-679.54 1654.3,-585.76 1619.17,-541.42"/>
<polygon fill="black" stroke="black" points="1621.84,-539.16 1612.89,-533.49 1616.36,-543.5 1621.84,-539.16"/>
</g>
<!-- HSet_isinj_section -->
<g id="node6" class="node">
<title>HSet_isinj_section</title>
<g id="a_node6"><a xlink:href="HSet.html#isinj_section" xlink:title="isinj_section">
<ellipse fill="#f070d1" stroke="black" cx="995" cy="-749.22" rx="67.68" ry="18"/>
<ellipse fill="none" stroke="black" cx="995" cy="-749.22" rx="71.68" ry="22"/>
<ellipse fill="none" stroke="black" cx="995" cy="-749.22" rx="75.69" ry="26"/>
<text text-anchor="middle" x="995" y="-745.52" font-family="Times,serif" font-size="14.00">isinj_section</text>
</a>
</g>
</g>
<!-- HSet_isinj_embedding_beta -->
<g id="node7" class="node">
<title>HSet_isinj_embedding_beta</title>
<g id="a_node7"><a xlink:href="HSet.html#isinj_embedding_beta" xlink:title="isinj_embedding_beta">
<ellipse fill="#f070d1" stroke="black" cx="782" cy="-749.22" rx="111.27" ry="18"/>
<ellipse fill="none" stroke="black" cx="782" cy="-749.22" rx="115.28" ry="22"/>
<ellipse fill="none" stroke="black" cx="782" cy="-749.22" rx="119.28" ry="26"/>
<text text-anchor="middle" x="782" y="-745.52" font-family="Times,serif" font-size="14.00">isinj_embedding_beta</text>
</a>
</g>
</g>
<!-- HSet_isinj_embedding_beta&#45;&gt;HSet_isinj_embedding -->
<g id="edge6" class="edge">
<title>HSet_isinj_embedding_beta&#45;&gt;HSet_isinj_embedding</title>
<path fill="none" stroke="black" d="M792.89,-723.06C811.95,-679.03 851.17,-588.44 870.59,-543.58"/>
<polygon fill="black" stroke="black" points="873.88,-544.79 874.64,-534.23 867.45,-542.01 873.88,-544.79"/>
</g>
<!-- HSet_isequiv_hrel_subpaths -->
<g id="node10" class="node">
<title>HSet_isequiv_hrel_subpaths</title>
<g id="a_node10"><a xlink:href="HSet.html#isequiv_hrel_subpaths" xlink:title="isequiv_hrel_subpaths">
<ellipse fill="#f070d1" stroke="black" cx="523" cy="-749.22" rx="113.96" ry="18"/>
<ellipse fill="none" stroke="black" cx="523" cy="-749.22" rx="117.97" ry="22"/>
<ellipse fill="none" stroke="black" cx="523" cy="-749.22" rx="121.98" ry="26"/>
<text text-anchor="middle" x="523" y="-745.52" font-family="Times,serif" font-size="14.00">isequiv_hrel_subpaths</text>
</a>
</g>
</g>
<!-- HSet_ishset_hrel_subpaths -->
<g id="node11" class="node">
<title>HSet_ishset_hrel_subpaths</title>
<g id="a_node11"><a xlink:href="HSet.html#ishset_hrel_subpaths" xlink:title="ishset_hrel_subpaths">
<ellipse fill="#f070d1" stroke="black" cx="523" cy="-516.22" rx="108.58" ry="18"/>
<text text-anchor="middle" x="523" y="-512.52" font-family="Times,serif" font-size="14.00">ishset_hrel_subpaths</text>
</a>
</g>
</g>
<!-- HSet_isequiv_hrel_subpaths&#45;&gt;HSet_ishset_hrel_subpaths -->
<g id="edge7" class="edge">
<title>HSet_isequiv_hrel_subpaths&#45;&gt;HSet_ishset_hrel_subpaths</title>
<path fill="none" stroke="black" d="M523,-723.06C523,-679.31 523,-589.58 523,-544.43"/>
<polygon fill="black" stroke="black" points="526.5,-544.23 523,-534.23 519.5,-544.23 526.5,-544.23"/>
</g>
<!-- HSet_hset_axiomK -->
<g id="node16" class="node">
<title>HSet_hset_axiomK</title>
<g id="a_node16"><a xlink:href="HSet.html#hset_axiomK" xlink:title="hset_axiomK">
<ellipse fill="#f070d1" stroke="black" cx="296" cy="-307.22" rx="69.59" ry="18"/>
<text text-anchor="middle" x="296" y="-303.52" font-family="Times,serif" font-size="14.00">hset_axiomK</text>
</a>
</g>
</g>
<!-- HSet_ishset_hrel_subpaths&#45;&gt;HSet_hset_axiomK -->
<g id="edge8" class="edge">
<title>HSet_ishset_hrel_subpaths&#45;&gt;HSet_hset_axiomK</title>
<path fill="none" stroke="black" d="M504.42,-498.28C463.98,-461.4 367.91,-373.79 321.7,-331.65"/>
<polygon fill="black" stroke="black" points="323.95,-328.97 314.2,-324.82 319.23,-334.14 323.95,-328.97"/>
</g>
<!-- HSet_axiomK_idpath -->
<g id="node12" class="node">
<title>HSet_axiomK_idpath</title>
<g id="a_node12"><a xlink:href="HSet.html#axiomK_idpath" xlink:title="axiomK_idpath">
<ellipse fill="#f070d1" stroke="black" cx="103" cy="-749.22" rx="79.11" ry="18"/>
<ellipse fill="none" stroke="black" cx="103" cy="-749.22" rx="83.1" ry="22"/>
<ellipse fill="none" stroke="black" cx="103" cy="-749.22" rx="87.09" ry="26"/>
<text text-anchor="middle" x="103" y="-745.52" font-family="Times,serif" font-size="14.00">axiomK_idpath</text>
</a>
</g>
</g>
<!-- HSet_hset_path2 -->
<g id="node13" class="node">
<title>HSet_hset_path2</title>
<g id="a_node13"><a xlink:href="HSet.html#hset_path2" xlink:title="hset_path2">
<ellipse fill="#f070d1" stroke="black" cx="97" cy="-516.22" rx="61.99" ry="18"/>
<text text-anchor="middle" x="97" y="-512.52" font-family="Times,serif" font-size="14.00">hset_path2</text>
</a>
</g>
</g>
<!-- HSet_axiomK_idpath&#45;&gt;HSet_hset_path2 -->
<g id="edge9" class="edge">
<title>HSet_axiomK_idpath&#45;&gt;HSet_hset_path2</title>
<path fill="none" stroke="black" d="M102.35,-723.06C101.21,-679.31 98.88,-589.58 97.71,-544.43"/>
<polygon fill="black" stroke="black" points="101.2,-544.13 97.44,-534.23 94.2,-544.31 101.2,-544.13"/>
</g>
<!-- HSet_axiomK_idpath&#45;&gt;HSet_hset_axiomK -->
<g id="edge10" class="edge">
<title>HSet_axiomK_idpath&#45;&gt;HSet_hset_axiomK</title>
<path fill="none" stroke="black" d="M109.82,-723.14C122.62,-677.42 152.21,-577.88 188,-498.22 215.48,-437.06 256.48,-369.81 279.24,-334.01"/>
<polygon fill="black" stroke="black" points="282.44,-335.5 284.89,-325.19 276.55,-331.73 282.44,-335.5"/>
</g>
<!-- HSet_axiomK_hset -->
<g id="node17" class="node">
<title>HSet_axiomK_hset</title>
<g id="a_node17"><a xlink:href="HSet.html#axiomK_hset" xlink:title="axiomK_hset">
<ellipse fill="#f070d1" stroke="black" cx="139" cy="-307.22" rx="69.59" ry="18"/>
<text text-anchor="middle" x="139" y="-303.52" font-family="Times,serif" font-size="14.00">axiomK_hset</text>
</a>
</g>
</g>
<!-- HSet_hset_path2&#45;&gt;HSet_axiomK_hset -->
<g id="edge11" class="edge">
<title>HSet_hset_path2&#45;&gt;HSet_axiomK_hset</title>
<path fill="none" stroke="black" d="M100.51,-497.93C107.83,-461.84 124.78,-378.29 133.54,-335.12"/>
<polygon fill="black" stroke="black" points="136.97,-335.81 135.53,-325.32 130.11,-334.42 136.97,-335.81"/>
</g>
<!-- HSet_axiomK_isprop -->
<g id="node14" class="node">
<title>HSet_axiomK_isprop</title>
<g id="a_node14"><a xlink:href="HSet.html#axiomK_isprop" xlink:title="axiomK_isprop">
<ellipse fill="#f070d1" stroke="black" cx="296" cy="-749.22" rx="79.11" ry="18"/>
<ellipse fill="none" stroke="black" cx="296" cy="-749.22" rx="83.1" ry="22"/>
<ellipse fill="none" stroke="black" cx="296" cy="-749.22" rx="87.09" ry="26"/>
<text text-anchor="middle" x="296" y="-745.52" font-family="Times,serif" font-size="14.00">axiomK_isprop</text>
</a>
</g>
</g>
<!-- HSet_equiv_hset_axiomK -->
<g id="node15" class="node">
<title>HSet_equiv_hset_axiomK</title>
<g id="a_node15"><a xlink:href="HSet.html#equiv_hset_axiomK" xlink:title="equiv_hset_axiomK">
<ellipse fill="#f070d1" stroke="black" cx="296" cy="-516.22" rx="99.38" ry="18"/>
<text text-anchor="middle" x="296" y="-512.52" font-family="Times,serif" font-size="14.00">equiv_hset_axiomK</text>
</a>
</g>
</g>
<!-- HSet_axiomK_isprop&#45;&gt;HSet_equiv_hset_axiomK -->
<g id="edge12" class="edge">
<title>HSet_axiomK_isprop&#45;&gt;HSet_equiv_hset_axiomK</title>
<path fill="none" stroke="black" d="M296,-723.06C296,-679.31 296,-589.58 296,-544.43"/>
<polygon fill="black" stroke="black" points="299.5,-544.23 296,-534.23 292.5,-544.23 299.5,-544.23"/>
</g>
<!-- HSet_equiv_hset_axiomK&#45;&gt;HSet_hset_axiomK -->
<g id="edge13" class="edge">
<title>HSet_equiv_hset_axiomK&#45;&gt;HSet_hset_axiomK</title>
<path fill="none" stroke="black" d="M296,-497.93C296,-461.92 296,-378.65 296,-335.4"/>
<polygon fill="black" stroke="black" points="299.5,-335.32 296,-325.32 292.5,-335.32 299.5,-335.32"/>
</g>
<!-- HSet_equiv_hset_axiomK&#45;&gt;HSet_axiomK_hset -->
<g id="edge14" class="edge">
<title>HSet_equiv_hset_axiomK&#45;&gt;HSet_axiomK_hset</title>
<path fill="none" stroke="black" d="M283.15,-498.28C255.54,-461.88 190.43,-376.03 158.02,-333.29"/>
<polygon fill="black" stroke="black" points="160.64,-330.96 151.81,-325.1 155.06,-335.19 160.64,-330.96"/>
</g>
<!-- HSet_axiomK -->
<g id="node18" class="node">
<title>HSet_axiomK</title>
<g id="a_node18"><a xlink:href="HSet.html#axiomK" xlink:title="axiomK">
<ellipse fill="#f070d1" stroke="black" cx="217" cy="-98.22" rx="45.49" ry="18"/>
<text text-anchor="middle" x="217" y="-94.52" font-family="Times,serif" font-size="14.00">axiomK</text>
</a>
</g>
</g>
<!-- HSet_hset_axiomK&#45;&gt;HSet_axiomK -->
<g id="edge15" class="edge">
<title>HSet_hset_axiomK&#45;&gt;HSet_axiomK</title>
<path fill="none" stroke="black" d="M289.54,-289.28C275.79,-253.26 243.56,-168.81 227.08,-125.64"/>
<polygon fill="black" stroke="black" points="230.28,-124.2 223.44,-116.1 223.74,-126.69 230.28,-124.2"/>
</g>
<!-- HSet_axiomK_hset&#45;&gt;HSet_axiomK -->
<g id="edge16" class="edge">
<title>HSet_axiomK_hset&#45;&gt;HSet_axiomK</title>
<path fill="none" stroke="black" d="M145.38,-289.28C158.96,-253.26 190.78,-168.81 207.04,-125.64"/>
<polygon fill="black" stroke="black" points="210.39,-126.7 210.64,-116.1 203.84,-124.23 210.39,-126.7"/>
</g>
</g>
</svg>
