<?xml version="1.0" encoding="UTF-8" standalone="no"?>
<!DOCTYPE svg PUBLIC "-//W3C//DTD SVG 1.1//EN"
 "http://www.w3.org/Graphics/SVG/1.1/DTD/svg11.dtd">
<!-- Generated by graphviz version 2.43.0 (0)
 -->
<!-- Title: HoTT_Pointed_pSusp Pages: 1 -->
<svg width="1470pt" height="739pt"
 viewBox="0.00 0.00 1470.00 739.00" xmlns="http://www.w3.org/2000/svg" xmlns:xlink="http://www.w3.org/1999/xlink">
<g id="graph0" class="graph" transform="scale(1 1) rotate(0) translate(4 735)">
<title>HoTT_Pointed_pSusp</title>
<polygon fill="white" stroke="transparent" points="-4,4 -4,-735 1466,-735 1466,4 -4,4"/>
<g id="clust1" class="cluster">
<title>cluster_pSusp</title>
<polygon fill="#ffffc3" stroke="black" points="8,-9.91 8,-721.09 1454,-721.09 1454,-9.91 8,-9.91"/>
<text text-anchor="middle" x="38.5" y="-705.89" font-family="Times,serif" font-size="14.00">pSusp</text>
</g>
<g id="clust2" class="cluster">
<title>cluster_pSusp_Book_Loop_Susp_Adjunction</title>
<polygon fill="#ffffa3" stroke="black" points="916,-188.33 916,-301.07 1134,-301.07 1134,-188.33 916,-188.33"/>
<text text-anchor="middle" x="1025" y="-285.87" font-family="Times,serif" font-size="14.00">Book_Loop_Susp_Adjunction</text>
</g>
<!-- pSusp_Book_Loop_Susp_Adjunction_loop_susp_adjoint -->
<g id="node1" class="node">
<title>pSusp_Book_Loop_Susp_Adjunction_loop_susp_adjoint</title>
<g id="a_node1"><a xlink:href="pSusp.html#Book_Loop_Susp_Adjunction.loop_susp_adjoint" xlink:title="loop_susp_adjoint">
<ellipse fill="#f070d1" stroke="black" cx="1025" cy="-230.91" rx="92.89" ry="18"/>
<ellipse fill="none" stroke="black" cx="1025" cy="-230.91" rx="96.89" ry="22"/>
<ellipse fill="none" stroke="black" cx="1025" cy="-230.91" rx="100.88" ry="26"/>
<text text-anchor="middle" x="1025" y="-227.21" font-family="Times,serif" font-size="14.00">loop_susp_adjoint</text>
</a>
</g>
</g>
<!-- pSusp_psusp -->
<g id="node17" class="node">
<title>pSusp_psusp</title>
<g id="a_node17"><a xlink:href="pSusp.html#psusp" xlink:title="psusp">
<ellipse fill="#f070d1" stroke="black" cx="734" cy="-130.91" rx="38.19" ry="18"/>
<text text-anchor="middle" x="734" y="-127.21" font-family="Times,serif" font-size="14.00">psusp</text>
</a>
</g>
</g>
<!-- pSusp_Book_Loop_Susp_Adjunction_loop_susp_adjoint&#45;&gt;pSusp_psusp -->
<g id="edge1" class="edge">
<title>pSusp_Book_Loop_Susp_Adjunction_loop_susp_adjoint&#45;&gt;pSusp_psusp</title>
<path fill="none" stroke="black" d="M965.41,-209.84C908.32,-190.62 823.73,-162.13 774.2,-145.45"/>
<polygon fill="black" stroke="black" points="775.08,-142.05 764.48,-142.18 772.84,-148.69 775.08,-142.05"/>
</g>
<!-- pSusp_natequiv_loop_susp_adjoint_r -->
<g id="node2" class="node">
<title>pSusp_natequiv_loop_susp_adjoint_r</title>
<g id="a_node2"><a xlink:href="pSusp.html#natequiv_loop_susp_adjoint_r" xlink:title="natequiv_loop_susp_adjoint_r">
<ellipse fill="#f070d1" stroke="black" cx="888" cy="-650.91" rx="146.46" ry="18"/>
<ellipse fill="none" stroke="black" cx="888" cy="-650.91" rx="150.47" ry="22"/>
<ellipse fill="none" stroke="black" cx="888" cy="-650.91" rx="154.47" ry="26"/>
<text text-anchor="middle" x="888" y="-647.21" font-family="Times,serif" font-size="14.00">natequiv_loop_susp_adjoint_r</text>
</a>
</g>
</g>
<!-- pSusp_is1natural_loop_susp_adjoint_r -->
<g id="node3" class="node">
<title>pSusp_is1natural_loop_susp_adjoint_r</title>
<g id="a_node3"><a xlink:href="pSusp.html#is1natural_loop_susp_adjoint_r" xlink:title="is1natural_loop_susp_adjoint_r">
<ellipse fill="#f070d1" stroke="black" cx="888" cy="-541.91" rx="153.27" ry="18"/>
<text text-anchor="middle" x="888" y="-538.21" font-family="Times,serif" font-size="14.00">is1natural_loop_susp_adjoint_r</text>
</a>
</g>
</g>
<!-- pSusp_natequiv_loop_susp_adjoint_r&#45;&gt;pSusp_is1natural_loop_susp_adjoint_r -->
<g id="edge2" class="edge">
<title>pSusp_natequiv_loop_susp_adjoint_r&#45;&gt;pSusp_is1natural_loop_susp_adjoint_r</title>
<path fill="none" stroke="black" d="M888,-624.83C888,-608.51 888,-587.23 888,-570.44"/>
<polygon fill="black" stroke="black" points="891.5,-570.16 888,-560.16 884.5,-570.16 891.5,-570.16"/>
</g>
<!-- pSusp_loop_susp_adjoint -->
<g id="node6" class="node">
<title>pSusp_loop_susp_adjoint</title>
<g id="a_node6"><a xlink:href="pSusp.html#loop_susp_adjoint" xlink:title="loop_susp_adjoint">
<ellipse fill="#f070d1" stroke="black" cx="589" cy="-431.91" rx="92.88" ry="18"/>
<text text-anchor="middle" x="589" y="-428.21" font-family="Times,serif" font-size="14.00">loop_susp_adjoint</text>
</a>
</g>
</g>
<!-- pSusp_is1natural_loop_susp_adjoint_r&#45;&gt;pSusp_loop_susp_adjoint -->
<g id="edge3" class="edge">
<title>pSusp_is1natural_loop_susp_adjoint_r&#45;&gt;pSusp_loop_susp_adjoint</title>
<path fill="none" stroke="black" d="M842.91,-524.63C788.63,-505.02 697.66,-472.16 640.61,-451.55"/>
<polygon fill="black" stroke="black" points="641.66,-448.21 631.07,-448.11 639.28,-454.8 641.66,-448.21"/>
</g>
<!-- pSusp_loop_susp_adjoint_nat_l -->
<g id="node4" class="node">
<title>pSusp_loop_susp_adjoint_nat_l</title>
<g id="a_node4"><a xlink:href="pSusp.html#loop_susp_adjoint_nat_l" xlink:title="loop_susp_adjoint_nat_l">
<ellipse fill="#f070d1" stroke="black" cx="589" cy="-541.91" rx="119.67" ry="18"/>
<ellipse fill="none" stroke="black" cx="589" cy="-541.91" rx="123.68" ry="22"/>
<ellipse fill="none" stroke="black" cx="589" cy="-541.91" rx="127.68" ry="26"/>
<text text-anchor="middle" x="589" y="-538.21" font-family="Times,serif" font-size="14.00">loop_susp_adjoint_nat_l</text>
</a>
</g>
</g>
<!-- pSusp_loop_susp_adjoint_nat_l&#45;&gt;pSusp_loop_susp_adjoint -->
<g id="edge4" class="edge">
<title>pSusp_loop_susp_adjoint_nat_l&#45;&gt;pSusp_loop_susp_adjoint</title>
<path fill="none" stroke="black" d="M589,-515.86C589,-499.3 589,-477.58 589,-460.52"/>
<polygon fill="black" stroke="black" points="592.5,-460.08 589,-450.08 585.5,-460.08 592.5,-460.08"/>
</g>
<!-- pSusp_loop_susp_adjoint_nat_r -->
<g id="node5" class="node">
<title>pSusp_loop_susp_adjoint_nat_r</title>
<g id="a_node5"><a xlink:href="pSusp.html#loop_susp_adjoint_nat_r" xlink:title="loop_susp_adjoint_nat_r">
<ellipse fill="#f070d1" stroke="black" cx="315" cy="-541.91" rx="120.79" ry="18"/>
<ellipse fill="none" stroke="black" cx="315" cy="-541.91" rx="124.78" ry="22"/>
<ellipse fill="none" stroke="black" cx="315" cy="-541.91" rx="128.78" ry="26"/>
<text text-anchor="middle" x="315" y="-538.21" font-family="Times,serif" font-size="14.00">loop_susp_adjoint_nat_r</text>
</a>
</g>
</g>
<!-- pSusp_loop_susp_adjoint_nat_r&#45;&gt;pSusp_loop_susp_adjoint -->
<g id="edge5" class="edge">
<title>pSusp_loop_susp_adjoint_nat_r&#45;&gt;pSusp_loop_susp_adjoint</title>
<path fill="none" stroke="black" d="M371.77,-518.53C421.63,-498.88 493.38,-470.6 540.58,-452"/>
<polygon fill="black" stroke="black" points="541.95,-455.22 549.97,-448.3 539.38,-448.71 541.95,-455.22"/>
</g>
<!-- pSusp_loop_susp_triangle2 -->
<g id="node7" class="node">
<title>pSusp_loop_susp_triangle2</title>
<g id="a_node7"><a xlink:href="pSusp.html#loop_susp_triangle2" xlink:title="loop_susp_triangle2">
<ellipse fill="#f070d1" stroke="black" cx="589" cy="-332.91" rx="102.88" ry="18"/>
<text text-anchor="middle" x="589" y="-329.21" font-family="Times,serif" font-size="14.00">loop_susp_triangle2</text>
</a>
</g>
</g>
<!-- pSusp_loop_susp_adjoint&#45;&gt;pSusp_loop_susp_triangle2 -->
<g id="edge6" class="edge">
<title>pSusp_loop_susp_adjoint&#45;&gt;pSusp_loop_susp_triangle2</title>
<path fill="none" stroke="black" d="M589,-413.57C589,-399.09 589,-378.17 589,-361.41"/>
<polygon fill="black" stroke="black" points="592.5,-361.1 589,-351.1 585.5,-361.1 592.5,-361.1"/>
</g>
<!-- pSusp_loop_susp_triangle1 -->
<g id="node8" class="node">
<title>pSusp_loop_susp_triangle1</title>
<g id="a_node8"><a xlink:href="pSusp.html#loop_susp_triangle1" xlink:title="loop_susp_triangle1">
<ellipse fill="#f070d1" stroke="black" cx="1065" cy="-332.91" rx="102.88" ry="18"/>
<text text-anchor="middle" x="1065" y="-329.21" font-family="Times,serif" font-size="14.00">loop_susp_triangle1</text>
</a>
</g>
</g>
<!-- pSusp_loop_susp_adjoint&#45;&gt;pSusp_loop_susp_triangle1 -->
<g id="edge7" class="edge">
<title>pSusp_loop_susp_adjoint&#45;&gt;pSusp_loop_susp_triangle1</title>
<path fill="none" stroke="black" d="M650.74,-418.33C737.99,-400.55 897.15,-368.12 990.74,-349.04"/>
<polygon fill="black" stroke="black" points="991.61,-352.44 1000.71,-347.01 990.21,-345.58 991.61,-352.44"/>
</g>
<!-- pSusp_loop_susp_counit_natural -->
<g id="node9" class="node">
<title>pSusp_loop_susp_counit_natural</title>
<g id="a_node9"><a xlink:href="pSusp.html#loop_susp_counit_natural" xlink:title="loop_susp_counit_natural">
<ellipse fill="#f070d1" stroke="black" cx="341" cy="-332.91" rx="127.28" ry="18"/>
<text text-anchor="middle" x="341" y="-329.21" font-family="Times,serif" font-size="14.00">loop_susp_counit_natural</text>
</a>
</g>
</g>
<!-- pSusp_loop_susp_adjoint&#45;&gt;pSusp_loop_susp_counit_natural -->
<g id="edge8" class="edge">
<title>pSusp_loop_susp_adjoint&#45;&gt;pSusp_loop_susp_counit_natural</title>
<path fill="none" stroke="black" d="M549.7,-415.54C506.9,-398.8 438.3,-371.97 391.52,-353.67"/>
<polygon fill="black" stroke="black" points="392.77,-350.4 382.18,-350.02 390.22,-356.92 392.77,-350.4"/>
</g>
<!-- pSusp_loop_susp_unit_natural -->
<g id="node11" class="node">
<title>pSusp_loop_susp_unit_natural</title>
<g id="a_node11"><a xlink:href="pSusp.html#loop_susp_unit_natural" xlink:title="loop_susp_unit_natural">
<ellipse fill="#f070d1" stroke="black" cx="827" cy="-332.91" rx="116.98" ry="18"/>
<text text-anchor="middle" x="827" y="-329.21" font-family="Times,serif" font-size="14.00">loop_susp_unit_natural</text>
</a>
</g>
</g>
<!-- pSusp_loop_susp_adjoint&#45;&gt;pSusp_loop_susp_unit_natural -->
<g id="edge9" class="edge">
<title>pSusp_loop_susp_adjoint&#45;&gt;pSusp_loop_susp_unit_natural</title>
<path fill="none" stroke="black" d="M626.97,-415.43C667.93,-398.74 733.28,-372.11 778.07,-353.86"/>
<polygon fill="black" stroke="black" points="779.64,-357 787.58,-349.98 776.99,-350.51 779.64,-357"/>
</g>
<!-- pSusp_is1functor_psusp -->
<g id="node15" class="node">
<title>pSusp_is1functor_psusp</title>
<g id="a_node15"><a xlink:href="pSusp.html#is1functor_psusp" xlink:title="is1functor_psusp">
<ellipse fill="#f070d1" stroke="black" cx="106" cy="-332.91" rx="89.88" ry="18"/>
<text text-anchor="middle" x="106" y="-329.21" font-family="Times,serif" font-size="14.00">is1functor_psusp</text>
</a>
</g>
</g>
<!-- pSusp_loop_susp_adjoint&#45;&gt;pSusp_is1functor_psusp -->
<g id="edge10" class="edge">
<title>pSusp_loop_susp_adjoint&#45;&gt;pSusp_is1functor_psusp</title>
<path fill="none" stroke="black" d="M526.84,-418.43C437.12,-400.41 271.72,-367.19 177.2,-348.21"/>
<polygon fill="black" stroke="black" points="177.65,-344.73 167.16,-346.19 176.27,-351.59 177.65,-344.73"/>
</g>
<!-- pSusp_loop_susp_counit -->
<g id="node10" class="node">
<title>pSusp_loop_susp_counit</title>
<g id="a_node10"><a xlink:href="pSusp.html#loop_susp_counit" xlink:title="loop_susp_counit">
<ellipse fill="#f070d1" stroke="black" cx="641" cy="-230.91" rx="89.08" ry="18"/>
<text text-anchor="middle" x="641" y="-227.21" font-family="Times,serif" font-size="14.00">loop_susp_counit</text>
</a>
</g>
</g>
<!-- pSusp_loop_susp_triangle2&#45;&gt;pSusp_loop_susp_counit -->
<g id="edge11" class="edge">
<title>pSusp_loop_susp_triangle2&#45;&gt;pSusp_loop_susp_counit</title>
<path fill="none" stroke="black" d="M597.82,-314.95C605.89,-299.43 617.95,-276.24 627.28,-258.3"/>
<polygon fill="black" stroke="black" points="630.63,-259.45 632.14,-248.96 624.42,-256.22 630.63,-259.45"/>
</g>
<!-- pSusp_loop_susp_unit -->
<g id="node14" class="node">
<title>pSusp_loop_susp_unit</title>
<g id="a_node14"><a xlink:href="pSusp.html#loop_susp_unit" xlink:title="loop_susp_unit">
<ellipse fill="#f070d1" stroke="black" cx="827" cy="-230.91" rx="79.09" ry="18"/>
<text text-anchor="middle" x="827" y="-227.21" font-family="Times,serif" font-size="14.00">loop_susp_unit</text>
</a>
</g>
</g>
<!-- pSusp_loop_susp_triangle2&#45;&gt;pSusp_loop_susp_unit -->
<g id="edge12" class="edge">
<title>pSusp_loop_susp_triangle2&#45;&gt;pSusp_loop_susp_unit</title>
<path fill="none" stroke="black" d="M649.52,-318.31C677.42,-311 710.58,-300.81 739,-287.91 759.17,-278.76 780.16,-265.56 796.58,-254.28"/>
<polygon fill="black" stroke="black" points="799.02,-256.85 805.2,-248.25 795,-251.11 799.02,-256.85"/>
</g>
<!-- pSusp_is0functor_psusp -->
<g id="node16" class="node">
<title>pSusp_is0functor_psusp</title>
<g id="a_node16"><a xlink:href="pSusp.html#is0functor_psusp" xlink:title="is0functor_psusp">
<ellipse fill="#f070d1" stroke="black" cx="444" cy="-230.91" rx="89.88" ry="18"/>
<text text-anchor="middle" x="444" y="-227.21" font-family="Times,serif" font-size="14.00">is0functor_psusp</text>
</a>
</g>
</g>
<!-- pSusp_loop_susp_triangle2&#45;&gt;pSusp_is0functor_psusp -->
<g id="edge13" class="edge">
<title>pSusp_loop_susp_triangle2&#45;&gt;pSusp_is0functor_psusp</title>
<path fill="none" stroke="black" d="M565.06,-315.4C540.81,-298.68 503.17,-272.72 476.29,-254.18"/>
<polygon fill="black" stroke="black" points="478.2,-251.25 467.98,-248.45 474.22,-257.01 478.2,-251.25"/>
</g>
<!-- pSusp_loop_susp_triangle1&#45;&gt;pSusp_loop_susp_counit -->
<g id="edge14" class="edge">
<title>pSusp_loop_susp_triangle1&#45;&gt;pSusp_loop_susp_counit</title>
<path fill="none" stroke="black" d="M990.94,-320.4C978.29,-318.51 965.27,-316.62 953,-314.91 858.05,-301.72 829.93,-318.28 739,-287.91 715.36,-280.02 691.02,-266.14 672.51,-254.18"/>
<polygon fill="black" stroke="black" points="674.19,-251.1 663.92,-248.5 670.33,-256.94 674.19,-251.1"/>
</g>
<!-- pSusp_loop_susp_triangle1&#45;&gt;pSusp_loop_susp_unit -->
<g id="edge15" class="edge">
<title>pSusp_loop_susp_triangle1&#45;&gt;pSusp_loop_susp_unit</title>
<path fill="none" stroke="black" d="M1002.79,-318.57C974.39,-311.34 940.75,-301.14 912,-287.91 892.36,-278.87 872.08,-265.68 856.25,-254.38"/>
<polygon fill="black" stroke="black" points="858.1,-251.39 847.95,-248.32 853.97,-257.04 858.1,-251.39"/>
</g>
<!-- pSusp_loop_susp_counit_natural&#45;&gt;pSusp_loop_susp_counit -->
<g id="edge16" class="edge">
<title>pSusp_loop_susp_counit_natural&#45;&gt;pSusp_loop_susp_counit</title>
<path fill="none" stroke="black" d="M425.71,-319.4C462.51,-312.46 505.64,-302.26 543,-287.91 565.95,-279.09 589.95,-265.47 608.45,-253.86"/>
<polygon fill="black" stroke="black" points="610.52,-256.7 617.06,-248.36 606.75,-250.8 610.52,-256.7"/>
</g>
<!-- pSusp_loop_susp_counit_natural&#45;&gt;pSusp_is0functor_psusp -->
<g id="edge17" class="edge">
<title>pSusp_loop_susp_counit_natural&#45;&gt;pSusp_is0functor_psusp</title>
<path fill="none" stroke="black" d="M358.47,-314.95C375.15,-298.76 400.43,-274.21 419.19,-256"/>
<polygon fill="black" stroke="black" points="422.05,-258.1 426.79,-248.62 417.17,-253.08 422.05,-258.1"/>
</g>
<!-- pSusp_loop_susp_counit&#45;&gt;pSusp_psusp -->
<g id="edge18" class="edge">
<title>pSusp_loop_susp_counit&#45;&gt;pSusp_psusp</title>
<path fill="none" stroke="black" d="M657.2,-212.84C672.27,-196.96 694.87,-173.15 711.65,-155.46"/>
<polygon fill="black" stroke="black" points="714.56,-157.48 718.91,-147.81 709.49,-152.66 714.56,-157.48"/>
</g>
<!-- pSusp_loop_susp_unit_natural&#45;&gt;pSusp_loop_susp_unit -->
<g id="edge19" class="edge">
<title>pSusp_loop_susp_unit_natural&#45;&gt;pSusp_loop_susp_unit</title>
<path fill="none" stroke="black" d="M827,-314.49C827,-299.29 827,-276.98 827,-259.38"/>
<polygon fill="black" stroke="black" points="830.5,-259.13 827,-249.13 823.5,-259.13 830.5,-259.13"/>
</g>
<!-- pSusp_loop_susp_unit_natural&#45;&gt;pSusp_is0functor_psusp -->
<g id="edge20" class="edge">
<title>pSusp_loop_susp_unit_natural&#45;&gt;pSusp_is0functor_psusp</title>
<path fill="none" stroke="black" d="M742.56,-320.4C665.76,-309.67 561.65,-294.39 543,-287.91 519.33,-279.69 494.8,-265.86 476.08,-254"/>
<polygon fill="black" stroke="black" points="477.94,-251.04 467.65,-248.54 474.14,-256.92 477.94,-251.04"/>
</g>
<!-- pSusp_pequiv_ptr_loop_psusp -->
<g id="node12" class="node">
<title>pSusp_pequiv_ptr_loop_psusp</title>
<g id="a_node12"><a xlink:href="pSusp.html#pequiv_ptr_loop_psusp" xlink:title="pequiv_ptr_loop_psusp">
<ellipse fill="#f070d1" stroke="black" cx="1316" cy="-431.91" rx="116.19" ry="18"/>
<ellipse fill="none" stroke="black" cx="1316" cy="-431.91" rx="120.18" ry="22"/>
<ellipse fill="none" stroke="black" cx="1316" cy="-431.91" rx="124.18" ry="26"/>
<text text-anchor="middle" x="1316" y="-428.21" font-family="Times,serif" font-size="14.00">pequiv_ptr_loop_psusp</text>
</a>
</g>
</g>
<!-- pSusp_conn_map_loop_susp_unit -->
<g id="node13" class="node">
<title>pSusp_conn_map_loop_susp_unit</title>
<g id="a_node13"><a xlink:href="pSusp.html#conn_map_loop_susp_unit" xlink:title="conn_map_loop_susp_unit">
<ellipse fill="#f070d1" stroke="black" cx="1316" cy="-332.91" rx="129.98" ry="18"/>
<text text-anchor="middle" x="1316" y="-329.21" font-family="Times,serif" font-size="14.00">conn_map_loop_susp_unit</text>
</a>
</g>
</g>
<!-- pSusp_pequiv_ptr_loop_psusp&#45;&gt;pSusp_conn_map_loop_susp_unit -->
<g id="edge21" class="edge">
<title>pSusp_pequiv_ptr_loop_psusp&#45;&gt;pSusp_conn_map_loop_susp_unit</title>
<path fill="none" stroke="black" d="M1316,-405.68C1316,-391.99 1316,-375.06 1316,-361.09"/>
<polygon fill="black" stroke="black" points="1319.5,-361.07 1316,-351.07 1312.5,-361.07 1319.5,-361.07"/>
</g>
<!-- pSusp_conn_map_loop_susp_unit&#45;&gt;pSusp_loop_susp_unit -->
<g id="edge22" class="edge">
<title>pSusp_conn_map_loop_susp_unit&#45;&gt;pSusp_loop_susp_unit</title>
<path fill="none" stroke="black" d="M1222.94,-320.27C1207.6,-318.42 1191.86,-316.58 1177,-314.91 1059.35,-301.73 1023.53,-327.62 912,-287.91 891.07,-280.46 870.2,-266.82 854.37,-254.87"/>
<polygon fill="black" stroke="black" points="856.17,-251.84 846.13,-248.45 851.87,-257.36 856.17,-251.84"/>
</g>
<!-- pSusp_loop_susp_unit&#45;&gt;pSusp_psusp -->
<g id="edge23" class="edge">
<title>pSusp_loop_susp_unit&#45;&gt;pSusp_psusp</title>
<path fill="none" stroke="black" d="M810.8,-212.84C795.73,-196.96 773.13,-173.15 756.35,-155.46"/>
<polygon fill="black" stroke="black" points="758.51,-152.66 749.09,-147.81 753.44,-157.48 758.51,-152.66"/>
</g>
<!-- pSusp_is1functor_psusp&#45;&gt;pSusp_is0functor_psusp -->
<g id="edge24" class="edge">
<title>pSusp_is1functor_psusp&#45;&gt;pSusp_is0functor_psusp</title>
<path fill="none" stroke="black" d="M154.07,-317.69C215.18,-299.61 320.59,-268.43 386.07,-249.05"/>
<polygon fill="black" stroke="black" points="387.23,-252.36 395.82,-246.17 385.24,-245.65 387.23,-252.36"/>
</g>
<!-- pSusp_is0functor_psusp&#45;&gt;pSusp_psusp -->
<g id="edge25" class="edge">
<title>pSusp_is0functor_psusp&#45;&gt;pSusp_psusp</title>
<path fill="none" stroke="black" d="M487.73,-215.13C543.74,-196.21 640.01,-163.67 694.11,-145.39"/>
<polygon fill="black" stroke="black" points="695.34,-148.67 703.7,-142.15 693.1,-142.04 695.34,-148.67"/>
</g>
<!-- pSusp_ispointed_susp -->
<g id="node20" class="node">
<title>pSusp_ispointed_susp</title>
<g id="a_node20"><a xlink:href="pSusp.html#ispointed_susp" xlink:title="ispointed_susp">
<ellipse fill="#f070d1" stroke="black" cx="734" cy="-41.91" rx="79.09" ry="18"/>
<text text-anchor="middle" x="734" y="-38.21" font-family="Times,serif" font-size="14.00">ispointed_susp</text>
</a>
</g>
</g>
<!-- pSusp_psusp&#45;&gt;pSusp_ispointed_susp -->
<g id="edge26" class="edge">
<title>pSusp_psusp&#45;&gt;pSusp_ispointed_susp</title>
<path fill="none" stroke="black" d="M734,-112.72C734,-100.57 734,-84.03 734,-70.09"/>
<polygon fill="black" stroke="black" points="737.5,-70.06 734,-60.06 730.5,-70.06 737.5,-70.06"/>
</g>
<!-- pSusp_ispointed_path_susp_ -->
<g id="node18" class="node">
<title>pSusp_ispointed_path_susp_</title>
<g id="a_node18"><a xlink:href="pSusp.html#ispointed_path_susp'" xlink:title="ispointed_path_susp&#39;">
<ellipse fill="#f070d1" stroke="black" cx="545" cy="-650.91" rx="107.46" ry="18"/>
<ellipse fill="none" stroke="black" cx="545" cy="-650.91" rx="111.47" ry="22"/>
<ellipse fill="none" stroke="black" cx="545" cy="-650.91" rx="115.48" ry="26"/>
<text text-anchor="middle" x="545" y="-647.21" font-family="Times,serif" font-size="14.00">ispointed_path_susp&#39;</text>
</a>
</g>
</g>
<!-- pSusp_ispointed_path_susp -->
<g id="node19" class="node">
<title>pSusp_ispointed_path_susp</title>
<g id="a_node19"><a xlink:href="pSusp.html#ispointed_path_susp" xlink:title="ispointed_path_susp">
<ellipse fill="#f070d1" stroke="black" cx="186" cy="-650.91" rx="104.77" ry="18"/>
<ellipse fill="none" stroke="black" cx="186" cy="-650.91" rx="108.78" ry="22"/>
<ellipse fill="none" stroke="black" cx="186" cy="-650.91" rx="112.78" ry="26"/>
<text text-anchor="middle" x="186" y="-647.21" font-family="Times,serif" font-size="14.00">ispointed_path_susp</text>
</a>
</g>
</g>
</g>
</svg>
