<?xml version="1.0" encoding="UTF-8" standalone="no"?>
<!DOCTYPE svg PUBLIC "-//W3C//DTD SVG 1.1//EN"
 "http://www.w3.org/Graphics/SVG/1.1/DTD/svg11.dtd">
<!-- Generated by graphviz version 2.43.0 (0)
 -->
<!-- Title: HoTT_Algebra_AbGroups_Coequalizer Pages: 1 -->
<svg width="974pt" height="491pt"
 viewBox="0.00 0.00 974.00 491.00" xmlns="http://www.w3.org/2000/svg" xmlns:xlink="http://www.w3.org/1999/xlink">
<g id="graph0" class="graph" transform="scale(1 1) rotate(0) translate(4 487)">
<title>HoTT_Algebra_AbGroups_Coequalizer</title>
<polygon fill="white" stroke="transparent" points="-4,4 -4,-487 970,-487 970,4 -4,4"/>
<g id="clust1" class="cluster">
<title>cluster_Coequalizer</title>
<polygon fill="#ffffc3" stroke="black" points="10.88,-8 10.88,-475 955.12,-475 955.12,-8 10.88,-8"/>
<text text-anchor="middle" x="61.38" y="-459.8" font-family="Times,serif" font-size="14.00">Coequalizer</text>
</g>
<!-- Coequalizer_grp_iso_ab_coeq -->
<g id="node1" class="node">
<title>Coequalizer_grp_iso_ab_coeq</title>
<g id="a_node1"><a xlink:href="Coequalizer.html#grp_iso_ab_coeq" xlink:title="grp_iso_ab_coeq">
<ellipse fill="#f070d1" stroke="black" cx="429.58" cy="-418" rx="85.6" ry="18"/>
<ellipse fill="none" stroke="black" cx="429.58" cy="-418" rx="89.59" ry="22"/>
<ellipse fill="none" stroke="black" cx="429.58" cy="-418" rx="93.59" ry="26"/>
<text text-anchor="middle" x="429.58" y="-414.3" font-family="Times,serif" font-size="14.00">grp_iso_ab_coeq</text>
</a>
</g>
</g>
<!-- Coequalizer_functor_ab_coeq_id -->
<g id="node2" class="node">
<title>Coequalizer_functor_ab_coeq_id</title>
<g id="a_node2"><a xlink:href="Coequalizer.html#functor_ab_coeq_id" xlink:title="functor_ab_coeq_id">
<ellipse fill="#f070d1" stroke="black" cx="429.58" cy="-338" rx="98.58" ry="18"/>
<text text-anchor="middle" x="429.58" y="-334.3" font-family="Times,serif" font-size="14.00">functor_ab_coeq_id</text>
</a>
</g>
</g>
<!-- Coequalizer_grp_iso_ab_coeq&#45;&gt;Coequalizer_functor_ab_coeq_id -->
<g id="edge1" class="edge">
<title>Coequalizer_grp_iso_ab_coeq&#45;&gt;Coequalizer_functor_ab_coeq_id</title>
<path fill="none" stroke="black" d="M429.58,-391.89C429.58,-383.84 429.58,-374.88 429.58,-366.66"/>
<polygon fill="black" stroke="black" points="433.08,-366.41 429.58,-356.41 426.08,-366.41 433.08,-366.41"/>
</g>
<!-- Coequalizer_functor_ab_coeq_compose -->
<g id="node3" class="node">
<title>Coequalizer_functor_ab_coeq_compose</title>
<g id="a_node3"><a xlink:href="Coequalizer.html#functor_ab_coeq_compose" xlink:title="functor_ab_coeq_compose">
<ellipse fill="#f070d1" stroke="black" cx="765.58" cy="-338" rx="130.78" ry="18"/>
<text text-anchor="middle" x="765.58" y="-334.3" font-family="Times,serif" font-size="14.00">functor_ab_coeq_compose</text>
</a>
</g>
</g>
<!-- Coequalizer_grp_iso_ab_coeq&#45;&gt;Coequalizer_functor_ab_coeq_compose -->
<g id="edge2" class="edge">
<title>Coequalizer_grp_iso_ab_coeq&#45;&gt;Coequalizer_functor_ab_coeq_compose</title>
<path fill="none" stroke="black" d="M500.02,-400.65C556.29,-387.58 634.92,-369.33 692,-356.08"/>
<polygon fill="black" stroke="black" points="693.1,-359.42 702.04,-353.75 691.51,-352.6 693.1,-359.42"/>
</g>
<!-- Coequalizer_functor2_ab_coeq -->
<g id="node4" class="node">
<title>Coequalizer_functor2_ab_coeq</title>
<g id="a_node4"><a xlink:href="Coequalizer.html#functor2_ab_coeq" xlink:title="functor2_ab_coeq">
<ellipse fill="#f070d1" stroke="black" cx="146.58" cy="-338" rx="91.78" ry="18"/>
<text text-anchor="middle" x="146.58" y="-334.3" font-family="Times,serif" font-size="14.00">functor2_ab_coeq</text>
</a>
</g>
</g>
<!-- Coequalizer_grp_iso_ab_coeq&#45;&gt;Coequalizer_functor2_ab_coeq -->
<g id="edge3" class="edge">
<title>Coequalizer_grp_iso_ab_coeq&#45;&gt;Coequalizer_functor2_ab_coeq</title>
<path fill="none" stroke="black" d="M364.65,-399.11C317.37,-386.07 253.77,-368.54 207.46,-355.78"/>
<polygon fill="black" stroke="black" points="208.12,-352.33 197.55,-353.05 206.26,-359.08 208.12,-352.33"/>
</g>
<!-- Coequalizer_functor_ab_coeq -->
<g id="node5" class="node">
<title>Coequalizer_functor_ab_coeq</title>
<g id="a_node5"><a xlink:href="Coequalizer.html#functor_ab_coeq" xlink:title="functor_ab_coeq">
<ellipse fill="#f070d1" stroke="black" cx="429.58" cy="-266" rx="85.59" ry="18"/>
<text text-anchor="middle" x="429.58" y="-262.3" font-family="Times,serif" font-size="14.00">functor_ab_coeq</text>
</a>
</g>
</g>
<!-- Coequalizer_functor_ab_coeq_id&#45;&gt;Coequalizer_functor_ab_coeq -->
<g id="edge4" class="edge">
<title>Coequalizer_functor_ab_coeq_id&#45;&gt;Coequalizer_functor_ab_coeq</title>
<path fill="none" stroke="black" d="M429.58,-319.7C429.58,-311.98 429.58,-302.71 429.58,-294.11"/>
<polygon fill="black" stroke="black" points="433.08,-294.1 429.58,-284.1 426.08,-294.1 433.08,-294.1"/>
</g>
<!-- Coequalizer_ab_coeq_ind_homotopy -->
<g id="node6" class="node">
<title>Coequalizer_ab_coeq_ind_homotopy</title>
<g id="a_node6"><a xlink:href="Coequalizer.html#ab_coeq_ind_homotopy" xlink:title="ab_coeq_ind_homotopy">
<ellipse fill="#f070d1" stroke="black" cx="733.58" cy="-266" rx="116.98" ry="18"/>
<text text-anchor="middle" x="733.58" y="-262.3" font-family="Times,serif" font-size="14.00">ab_coeq_ind_homotopy</text>
</a>
</g>
</g>
<!-- Coequalizer_functor_ab_coeq_id&#45;&gt;Coequalizer_ab_coeq_ind_homotopy -->
<g id="edge5" class="edge">
<title>Coequalizer_functor_ab_coeq_id&#45;&gt;Coequalizer_ab_coeq_ind_homotopy</title>
<path fill="none" stroke="black" d="M488.19,-323.5C537.63,-312.12 608.59,-295.78 661.49,-283.6"/>
<polygon fill="black" stroke="black" points="662.53,-286.95 671.49,-281.3 660.96,-280.13 662.53,-286.95"/>
</g>
<!-- Coequalizer_functor_ab_coeq_compose&#45;&gt;Coequalizer_functor_ab_coeq -->
<g id="edge6" class="edge">
<title>Coequalizer_functor_ab_coeq_compose&#45;&gt;Coequalizer_functor_ab_coeq</title>
<path fill="none" stroke="black" d="M696.77,-322.67C638.7,-310.57 555.98,-293.33 498.01,-281.26"/>
<polygon fill="black" stroke="black" points="498.71,-277.83 488.2,-279.21 497.28,-284.68 498.71,-277.83"/>
</g>
<!-- Coequalizer_functor_ab_coeq_compose&#45;&gt;Coequalizer_ab_coeq_ind_homotopy -->
<g id="edge7" class="edge">
<title>Coequalizer_functor_ab_coeq_compose&#45;&gt;Coequalizer_ab_coeq_ind_homotopy</title>
<path fill="none" stroke="black" d="M757.67,-319.7C754.03,-311.73 749.63,-302.1 745.59,-293.26"/>
<polygon fill="black" stroke="black" points="748.74,-291.74 741.4,-284.1 742.37,-294.65 748.74,-291.74"/>
</g>
<!-- Coequalizer_functor2_ab_coeq&#45;&gt;Coequalizer_functor_ab_coeq -->
<g id="edge8" class="edge">
<title>Coequalizer_functor2_ab_coeq&#45;&gt;Coequalizer_functor_ab_coeq</title>
<path fill="none" stroke="black" d="M201.15,-323.5C248.33,-311.83 316.57,-294.95 366.17,-282.68"/>
<polygon fill="black" stroke="black" points="367.28,-286.02 376.14,-280.22 365.59,-279.22 367.28,-286.02"/>
</g>
<!-- Coequalizer_functor2_ab_coeq&#45;&gt;Coequalizer_ab_coeq_ind_homotopy -->
<g id="edge9" class="edge">
<title>Coequalizer_functor2_ab_coeq&#45;&gt;Coequalizer_ab_coeq_ind_homotopy</title>
<path fill="none" stroke="black" d="M222.72,-327.92C327.92,-315.38 517.87,-292.72 634.16,-278.86"/>
<polygon fill="black" stroke="black" points="634.62,-282.33 644.13,-277.67 633.79,-275.38 634.62,-282.33"/>
</g>
<!-- Coequalizer_ab_coeq_rec -->
<g id="node9" class="node">
<title>Coequalizer_ab_coeq_rec</title>
<g id="a_node9"><a xlink:href="Coequalizer.html#ab_coeq_rec" xlink:title="ab_coeq_rec">
<ellipse fill="#f070d1" stroke="black" cx="202.58" cy="-106" rx="66.89" ry="18"/>
<text text-anchor="middle" x="202.58" y="-102.3" font-family="Times,serif" font-size="14.00">ab_coeq_rec</text>
</a>
</g>
</g>
<!-- Coequalizer_functor_ab_coeq&#45;&gt;Coequalizer_ab_coeq_rec -->
<g id="edge10" class="edge">
<title>Coequalizer_functor_ab_coeq&#45;&gt;Coequalizer_ab_coeq_rec</title>
<path fill="none" stroke="black" d="M344.05,-264.29C251.88,-261.5 113.89,-250.75 80.58,-212 65.51,-194.47 67.91,-179.33 80.58,-160 93.71,-139.98 116.21,-127.49 138.34,-119.7"/>
<polygon fill="black" stroke="black" points="139.67,-122.95 148.11,-116.55 137.51,-116.29 139.67,-122.95"/>
</g>
<!-- Coequalizer_ab_coeq_glue -->
<g id="node10" class="node">
<title>Coequalizer_ab_coeq_glue</title>
<g id="a_node10"><a xlink:href="Coequalizer.html#ab_coeq_glue" xlink:title="ab_coeq_glue">
<ellipse fill="#f070d1" stroke="black" cx="478.58" cy="-186" rx="72.29" ry="18"/>
<text text-anchor="middle" x="478.58" y="-182.3" font-family="Times,serif" font-size="14.00">ab_coeq_glue</text>
</a>
</g>
</g>
<!-- Coequalizer_functor_ab_coeq&#45;&gt;Coequalizer_ab_coeq_glue -->
<g id="edge11" class="edge">
<title>Coequalizer_functor_ab_coeq&#45;&gt;Coequalizer_ab_coeq_glue</title>
<path fill="none" stroke="black" d="M440.21,-248.08C446.76,-237.65 455.28,-224.09 462.63,-212.39"/>
<polygon fill="black" stroke="black" points="465.61,-214.22 467.97,-203.89 459.69,-210.5 465.61,-214.22"/>
</g>
<!-- Coequalizer_ab_coeq_ind_hprop -->
<g id="node7" class="node">
<title>Coequalizer_ab_coeq_ind_hprop</title>
<g id="a_node7"><a xlink:href="Coequalizer.html#ab_coeq_ind_hprop" xlink:title="ab_coeq_ind_hprop">
<ellipse fill="#f070d1" stroke="black" cx="735.58" cy="-186" rx="98.58" ry="18"/>
<text text-anchor="middle" x="735.58" y="-182.3" font-family="Times,serif" font-size="14.00">ab_coeq_ind_hprop</text>
</a>
</g>
</g>
<!-- Coequalizer_ab_coeq_ind_homotopy&#45;&gt;Coequalizer_ab_coeq_ind_hprop -->
<g id="edge12" class="edge">
<title>Coequalizer_ab_coeq_ind_homotopy&#45;&gt;Coequalizer_ab_coeq_ind_hprop</title>
<path fill="none" stroke="black" d="M734.02,-247.69C734.28,-237.89 734.6,-225.42 734.88,-214.33"/>
<polygon fill="black" stroke="black" points="738.38,-214.35 735.14,-204.26 731.38,-214.17 738.38,-214.35"/>
</g>
<!-- Coequalizer_ab_coeq_in -->
<g id="node11" class="node">
<title>Coequalizer_ab_coeq_in</title>
<g id="a_node11"><a xlink:href="Coequalizer.html#ab_coeq_in" xlink:title="ab_coeq_in">
<ellipse fill="#f070d1" stroke="black" cx="439.58" cy="-106" rx="61.19" ry="18"/>
<text text-anchor="middle" x="439.58" y="-102.3" font-family="Times,serif" font-size="14.00">ab_coeq_in</text>
</a>
</g>
</g>
<!-- Coequalizer_ab_coeq_ind_hprop&#45;&gt;Coequalizer_ab_coeq_in -->
<g id="edge13" class="edge">
<title>Coequalizer_ab_coeq_ind_hprop&#45;&gt;Coequalizer_ab_coeq_in</title>
<path fill="none" stroke="black" d="M681.98,-170.87C628.61,-156.81 547.13,-135.34 493.61,-121.24"/>
<polygon fill="black" stroke="black" points="494.19,-117.77 483.62,-118.61 492.4,-124.54 494.19,-117.77"/>
</g>
<!-- Coequalizer_ab_coeq_rec_beta_in -->
<g id="node8" class="node">
<title>Coequalizer_ab_coeq_rec_beta_in</title>
<g id="a_node8"><a xlink:href="Coequalizer.html#ab_coeq_rec_beta_in" xlink:title="ab_coeq_rec_beta_in">
<ellipse fill="#f070d1" stroke="black" cx="202.58" cy="-186" rx="104.77" ry="18"/>
<ellipse fill="none" stroke="black" cx="202.58" cy="-186" rx="108.78" ry="22"/>
<ellipse fill="none" stroke="black" cx="202.58" cy="-186" rx="112.78" ry="26"/>
<text text-anchor="middle" x="202.58" y="-182.3" font-family="Times,serif" font-size="14.00">ab_coeq_rec_beta_in</text>
</a>
</g>
</g>
<!-- Coequalizer_ab_coeq_rec_beta_in&#45;&gt;Coequalizer_ab_coeq_rec -->
<g id="edge14" class="edge">
<title>Coequalizer_ab_coeq_rec_beta_in&#45;&gt;Coequalizer_ab_coeq_rec</title>
<path fill="none" stroke="black" d="M202.58,-159.89C202.58,-151.84 202.58,-142.88 202.58,-134.66"/>
<polygon fill="black" stroke="black" points="206.08,-134.41 202.58,-124.41 199.08,-134.41 206.08,-134.41"/>
</g>
<!-- Coequalizer_ab_coeq_rec_beta_in&#45;&gt;Coequalizer_ab_coeq_in -->
<g id="edge15" class="edge">
<title>Coequalizer_ab_coeq_rec_beta_in&#45;&gt;Coequalizer_ab_coeq_in</title>
<path fill="none" stroke="black" d="M265.47,-164.3C304.58,-151.43 354.14,-135.12 390.37,-123.19"/>
<polygon fill="black" stroke="black" points="391.82,-126.4 400.22,-119.95 389.63,-119.76 391.82,-126.4"/>
</g>
<!-- Coequalizer_ab_coeq -->
<g id="node12" class="node">
<title>Coequalizer_ab_coeq</title>
<g id="a_node12"><a xlink:href="Coequalizer.html#ab_coeq" xlink:title="ab_coeq">
<ellipse fill="#f070d1" stroke="black" cx="321.58" cy="-34" rx="48.19" ry="18"/>
<text text-anchor="middle" x="321.58" y="-30.3" font-family="Times,serif" font-size="14.00">ab_coeq</text>
</a>
</g>
</g>
<!-- Coequalizer_ab_coeq_rec&#45;&gt;Coequalizer_ab_coeq -->
<g id="edge16" class="edge">
<title>Coequalizer_ab_coeq_rec&#45;&gt;Coequalizer_ab_coeq</title>
<path fill="none" stroke="black" d="M229.29,-89.29C246.6,-79.11 269.3,-65.75 287.86,-54.84"/>
<polygon fill="black" stroke="black" points="289.75,-57.79 296.59,-49.7 286.2,-51.75 289.75,-57.79"/>
</g>
<!-- Coequalizer_ab_coeq_glue&#45;&gt;Coequalizer_ab_coeq_in -->
<g id="edge17" class="edge">
<title>Coequalizer_ab_coeq_glue&#45;&gt;Coequalizer_ab_coeq_in</title>
<path fill="none" stroke="black" d="M470.12,-168.08C465.01,-157.85 458.39,-144.62 452.62,-133.08"/>
<polygon fill="black" stroke="black" points="455.63,-131.27 448.03,-123.89 449.37,-134.4 455.63,-131.27"/>
</g>
<!-- Coequalizer_ab_coeq_in&#45;&gt;Coequalizer_ab_coeq -->
<g id="edge18" class="edge">
<title>Coequalizer_ab_coeq_in&#45;&gt;Coequalizer_ab_coeq</title>
<path fill="none" stroke="black" d="M413.68,-89.64C396.43,-79.4 373.58,-65.85 354.96,-54.8"/>
<polygon fill="black" stroke="black" points="356.59,-51.7 346.2,-49.61 353.02,-57.72 356.59,-51.7"/>
</g>
</g>
</svg>
