<?xml version="1.0" encoding="UTF-8" standalone="no"?>
<!DOCTYPE svg PUBLIC "-//W3C//DTD SVG 1.1//EN"
 "http://www.w3.org/Graphics/SVG/1.1/DTD/svg11.dtd">
<!-- Generated by graphviz version 2.43.0 (0)
 -->
<!-- Title: HoTT_Truncations_Connectedness Pages: 1 -->
<svg width="2725pt" height="1366pt"
 viewBox="0.00 0.00 2725.00 1366.50" xmlns="http://www.w3.org/2000/svg" xmlns:xlink="http://www.w3.org/1999/xlink">
<g id="graph0" class="graph" transform="scale(1 1) rotate(0) translate(4 1362.5)">
<title>HoTT_Truncations_Connectedness</title>
<polygon fill="white" stroke="transparent" points="-4,4 -4,-1362.5 2721,-1362.5 2721,4 -4,4"/>
<g id="clust1" class="cluster">
<title>cluster_Connectedness</title>
<polygon fill="#ffffc3" stroke="black" points="8,-24.53 8,-1333.97 2709,-1333.97 2709,-24.53 8,-24.53"/>
<text text-anchor="middle" x="70.5" y="-1318.77" font-family="Times,serif" font-size="14.00">Connectedness</text>
</g>
<!-- Connectedness_wedge_incl_elim_uncurried -->
<g id="node1" class="node">
<title>Connectedness_wedge_incl_elim_uncurried</title>
<g id="a_node1"><a xlink:href="Connectedness.html#wedge_incl_elim_uncurried" xlink:title="wedge_incl_elim_uncurried">
<ellipse fill="#f070d1" stroke="black" cx="2557" cy="-889.53" rx="135.69" ry="18"/>
<ellipse fill="none" stroke="black" cx="2557" cy="-889.53" rx="139.68" ry="22"/>
<ellipse fill="none" stroke="black" cx="2557" cy="-889.53" rx="143.68" ry="26"/>
<text text-anchor="middle" x="2557" y="-885.83" font-family="Times,serif" font-size="14.00">wedge_incl_elim_uncurried</text>
</a>
</g>
</g>
<!-- Connectedness_wedge_incl_elim -->
<g id="node5" class="node">
<title>Connectedness_wedge_incl_elim</title>
<g id="a_node5"><a xlink:href="Connectedness.html#wedge_incl_elim" xlink:title="wedge_incl_elim">
<ellipse fill="#f070d1" stroke="black" cx="2298" cy="-619.53" rx="86.38" ry="18"/>
<text text-anchor="middle" x="2298" y="-615.83" font-family="Times,serif" font-size="14.00">wedge_incl_elim</text>
</a>
</g>
</g>
<!-- Connectedness_wedge_incl_elim_uncurried&#45;&gt;Connectedness_wedge_incl_elim -->
<g id="edge1" class="edge">
<title>Connectedness_wedge_incl_elim_uncurried&#45;&gt;Connectedness_wedge_incl_elim</title>
<path fill="none" stroke="black" d="M2533.1,-863.8C2483.55,-812.53 2370.17,-695.21 2321.21,-644.55"/>
<polygon fill="black" stroke="black" points="2323.67,-642.06 2314.2,-637.3 2318.63,-646.92 2323.67,-642.06"/>
</g>
<!-- Connectedness_wedge_incl_comp3 -->
<g id="node2" class="node">
<title>Connectedness_wedge_incl_comp3</title>
<g id="a_node2"><a xlink:href="Connectedness.html#wedge_incl_comp3" xlink:title="wedge_incl_comp3">
<ellipse fill="#f070d1" stroke="black" cx="2596" cy="-1159.53" rx="96.7" ry="18"/>
<ellipse fill="none" stroke="black" cx="2596" cy="-1159.53" rx="100.69" ry="22"/>
<ellipse fill="none" stroke="black" cx="2596" cy="-1159.53" rx="104.68" ry="26"/>
<text text-anchor="middle" x="2596" y="-1155.83" font-family="Times,serif" font-size="14.00">wedge_incl_comp3</text>
</a>
</g>
</g>
<!-- Connectedness_wedge_incl_comp2 -->
<g id="node3" class="node">
<title>Connectedness_wedge_incl_comp2</title>
<g id="a_node3"><a xlink:href="Connectedness.html#wedge_incl_comp2" xlink:title="wedge_incl_comp2">
<ellipse fill="#f070d1" stroke="black" cx="2298" cy="-889.53" rx="96.68" ry="18"/>
<text text-anchor="middle" x="2298" y="-885.83" font-family="Times,serif" font-size="14.00">wedge_incl_comp2</text>
</a>
</g>
</g>
<!-- Connectedness_wedge_incl_comp3&#45;&gt;Connectedness_wedge_incl_comp2 -->
<g id="edge2" class="edge">
<title>Connectedness_wedge_incl_comp3&#45;&gt;Connectedness_wedge_incl_comp2</title>
<path fill="none" stroke="black" d="M2569.03,-1134.28C2512.22,-1083.19 2380.86,-965.05 2324.48,-914.35"/>
<polygon fill="black" stroke="black" points="2326.5,-911.46 2316.73,-907.37 2321.82,-916.66 2326.5,-911.46"/>
</g>
<!-- Connectedness_wedge_incl_comp1 -->
<g id="node4" class="node">
<title>Connectedness_wedge_incl_comp1</title>
<g id="a_node4"><a xlink:href="Connectedness.html#wedge_incl_comp1" xlink:title="wedge_incl_comp1">
<ellipse fill="#f070d1" stroke="black" cx="2086" cy="-889.53" rx="96.68" ry="18"/>
<text text-anchor="middle" x="2086" y="-885.83" font-family="Times,serif" font-size="14.00">wedge_incl_comp1</text>
</a>
</g>
</g>
<!-- Connectedness_wedge_incl_comp3&#45;&gt;Connectedness_wedge_incl_comp1 -->
<g id="edge3" class="edge">
<title>Connectedness_wedge_incl_comp3&#45;&gt;Connectedness_wedge_incl_comp1</title>
<path fill="none" stroke="black" d="M2552.52,-1135.68C2454.96,-1084.42 2219.82,-960.86 2125.82,-911.46"/>
<polygon fill="black" stroke="black" points="2127.39,-908.33 2116.91,-906.77 2124.13,-914.52 2127.39,-908.33"/>
</g>
<!-- Connectedness_wedge_incl_comp2&#45;&gt;Connectedness_wedge_incl_elim -->
<g id="edge4" class="edge">
<title>Connectedness_wedge_incl_comp2&#45;&gt;Connectedness_wedge_incl_elim</title>
<path fill="none" stroke="black" d="M2298,-871.36C2298,-825.98 2298,-702.59 2298,-647.6"/>
<polygon fill="black" stroke="black" points="2301.5,-647.56 2298,-637.56 2294.5,-647.56 2301.5,-647.56"/>
</g>
<!-- Connectedness_wedge_incl_comp1&#45;&gt;Connectedness_wedge_incl_elim -->
<g id="edge5" class="edge">
<title>Connectedness_wedge_incl_comp1&#45;&gt;Connectedness_wedge_incl_elim</title>
<path fill="none" stroke="black" d="M2099.58,-871.36C2135.93,-825.41 2235.54,-699.49 2278.19,-645.57"/>
<polygon fill="black" stroke="black" points="2281.07,-647.58 2284.53,-637.56 2275.58,-643.23 2281.07,-647.58"/>
</g>
<!-- Connectedness_isconn_wedge_incl -->
<g id="node6" class="node">
<title>Connectedness_isconn_wedge_incl</title>
<g id="a_node6"><a xlink:href="Connectedness.html#isconn_wedge_incl" xlink:title="isconn_wedge_incl">
<ellipse fill="#f070d1" stroke="black" cx="2298" cy="-349.53" rx="96.38" ry="18"/>
<text text-anchor="middle" x="2298" y="-345.83" font-family="Times,serif" font-size="14.00">isconn_wedge_incl</text>
</a>
</g>
</g>
<!-- Connectedness_wedge_incl_elim&#45;&gt;Connectedness_isconn_wedge_incl -->
<g id="edge6" class="edge">
<title>Connectedness_wedge_incl_elim&#45;&gt;Connectedness_isconn_wedge_incl</title>
<path fill="none" stroke="black" d="M2298,-601.36C2298,-555.98 2298,-432.59 2298,-377.6"/>
<polygon fill="black" stroke="black" points="2301.5,-377.56 2298,-367.56 2294.5,-377.56 2301.5,-377.56"/>
</g>
<!-- Connectedness_conn_point_incl -->
<g id="node25" class="node">
<title>Connectedness_conn_point_incl</title>
<g id="a_node25"><a xlink:href="Connectedness.html#conn_point_incl" xlink:title="conn_point_incl">
<ellipse fill="#f070d1" stroke="black" cx="2422" cy="-104.53" rx="81.79" ry="18"/>
<text text-anchor="middle" x="2422" y="-100.83" font-family="Times,serif" font-size="14.00">conn_point_incl</text>
</a>
</g>
</g>
<!-- Connectedness_isconn_wedge_incl&#45;&gt;Connectedness_conn_point_incl -->
<g id="edge7" class="edge">
<title>Connectedness_isconn_wedge_incl&#45;&gt;Connectedness_conn_point_incl</title>
<path fill="none" stroke="black" d="M2306.72,-331.45C2328.06,-289.62 2383.05,-181.86 2408.59,-131.81"/>
<polygon fill="black" stroke="black" points="2411.86,-133.1 2413.29,-122.6 2405.63,-129.92 2411.86,-133.1"/>
</g>
<!-- Connectedness_istrunc_extension_along_conn -->
<g id="node28" class="node">
<title>Connectedness_istrunc_extension_along_conn</title>
<g id="a_node28"><a xlink:href="Connectedness.html#istrunc_extension_along_conn" xlink:title="istrunc_extension_along_conn">
<ellipse fill="#f070d1" stroke="black" cx="2173" cy="-104.53" rx="148.67" ry="18"/>
<text text-anchor="middle" x="2173" y="-100.83" font-family="Times,serif" font-size="14.00">istrunc_extension_along_conn</text>
</a>
</g>
</g>
<!-- Connectedness_isconn_wedge_incl&#45;&gt;Connectedness_istrunc_extension_along_conn -->
<g id="edge8" class="edge">
<title>Connectedness_isconn_wedge_incl&#45;&gt;Connectedness_istrunc_extension_along_conn</title>
<path fill="none" stroke="black" d="M2289.21,-331.45C2267.69,-289.62 2212.26,-181.86 2186.51,-131.81"/>
<polygon fill="black" stroke="black" points="2189.47,-129.89 2181.78,-122.6 2183.24,-133.09 2189.47,-129.89"/>
</g>
<!-- Connectedness_isconnected_trunc -->
<g id="node7" class="node">
<title>Connectedness_isconnected_trunc</title>
<g id="a_node7"><a xlink:href="Connectedness.html#isconnected_trunc" xlink:title="isconnected_trunc">
<ellipse fill="#f070d1" stroke="black" cx="2370" cy="-1159.53" rx="94.79" ry="18"/>
<ellipse fill="none" stroke="black" cx="2370" cy="-1159.53" rx="98.79" ry="22"/>
<ellipse fill="none" stroke="black" cx="2370" cy="-1159.53" rx="102.78" ry="26"/>
<text text-anchor="middle" x="2370" y="-1155.83" font-family="Times,serif" font-size="14.00">isconnected_trunc</text>
</a>
</g>
</g>
<!-- Connectedness_indecomposable_0connected -->
<g id="node8" class="node">
<title>Connectedness_indecomposable_0connected</title>
<g id="a_node8"><a xlink:href="Connectedness.html#indecomposable_0connected" xlink:title="indecomposable_0connected">
<ellipse fill="#f070d1" stroke="black" cx="1096" cy="-619.53" rx="142.98" ry="18"/>
<ellipse fill="none" stroke="black" cx="1096" cy="-619.53" rx="146.97" ry="22"/>
<ellipse fill="none" stroke="black" cx="1096" cy="-619.53" rx="150.97" ry="26"/>
<text text-anchor="middle" x="1096" y="-615.83" font-family="Times,serif" font-size="14.00">indecomposable_0connected</text>
</a>
</g>
</g>
<!-- Connectedness_merely_path_is0connected -->
<g id="node13" class="node">
<title>Connectedness_merely_path_is0connected</title>
<g id="a_node13"><a xlink:href="Connectedness.html#merely_path_is0connected" xlink:title="merely_path_is0connected">
<ellipse fill="#f070d1" stroke="black" cx="1087" cy="-349.53" rx="133.78" ry="18"/>
<text text-anchor="middle" x="1087" y="-345.83" font-family="Times,serif" font-size="14.00">merely_path_is0connected</text>
</a>
</g>
</g>
<!-- Connectedness_indecomposable_0connected&#45;&gt;Connectedness_merely_path_is0connected -->
<g id="edge9" class="edge">
<title>Connectedness_indecomposable_0connected&#45;&gt;Connectedness_merely_path_is0connected</title>
<path fill="none" stroke="black" d="M1095.15,-593.32C1093.46,-542.84 1089.66,-429.73 1087.91,-377.69"/>
<polygon fill="black" stroke="black" points="1091.41,-377.43 1087.57,-367.55 1084.41,-377.66 1091.41,-377.43"/>
</g>
<!-- Connectedness_isconnected_pred -->
<g id="node23" class="node">
<title>Connectedness_isconnected_pred</title>
<g id="a_node23"><a xlink:href="Connectedness.html#isconnected_pred" xlink:title="isconnected_pred">
<ellipse fill="#f070d1" stroke="black" cx="838" cy="-349.53" rx="91.78" ry="18"/>
<text text-anchor="middle" x="838" y="-345.83" font-family="Times,serif" font-size="14.00">isconnected_pred</text>
</a>
</g>
</g>
<!-- Connectedness_indecomposable_0connected&#45;&gt;Connectedness_isconnected_pred -->
<g id="edge10" class="edge">
<title>Connectedness_indecomposable_0connected&#45;&gt;Connectedness_isconnected_pred</title>
<path fill="none" stroke="black" d="M1072.19,-593.8C1022.83,-542.53 909.89,-425.21 861.12,-374.55"/>
<polygon fill="black" stroke="black" points="863.6,-372.07 854.14,-367.3 858.55,-376.93 863.6,-372.07"/>
</g>
<!-- Connectedness_equiv_component_image_unit -->
<g id="node9" class="node">
<title>Connectedness_equiv_component_image_unit</title>
<g id="a_node9"><a xlink:href="Connectedness.html#equiv_component_image_unit" xlink:title="equiv_component_image_unit">
<ellipse fill="#f070d1" stroke="black" cx="2094" cy="-1159.53" rx="147.57" ry="18"/>
<ellipse fill="none" stroke="black" cx="2094" cy="-1159.53" rx="151.57" ry="22"/>
<ellipse fill="none" stroke="black" cx="2094" cy="-1159.53" rx="155.57" ry="26"/>
<text text-anchor="middle" x="2094" y="-1155.83" font-family="Times,serif" font-size="14.00">equiv_component_image_unit</text>
</a>
</g>
</g>
<!-- Connectedness_merely_path_component -->
<g id="node10" class="node">
<title>Connectedness_merely_path_component</title>
<g id="a_node10"><a xlink:href="Connectedness.html#merely_path_component" xlink:title="merely_path_component">
<ellipse fill="#f070d1" stroke="black" cx="1788" cy="-1159.53" rx="124.27" ry="18"/>
<ellipse fill="none" stroke="black" cx="1788" cy="-1159.53" rx="128.27" ry="22"/>
<ellipse fill="none" stroke="black" cx="1788" cy="-1159.53" rx="132.28" ry="26"/>
<text text-anchor="middle" x="1788" y="-1155.83" font-family="Times,serif" font-size="14.00">merely_path_component</text>
</a>
</g>
</g>
<!-- Connectedness_is0connected_component -->
<g id="node11" class="node">
<title>Connectedness_is0connected_component</title>
<g id="a_node11"><a xlink:href="Connectedness.html#is0connected_component" xlink:title="is0connected_component">
<ellipse fill="#f070d1" stroke="black" cx="1502" cy="-1159.53" rx="127.28" ry="18"/>
<ellipse fill="none" stroke="black" cx="1502" cy="-1159.53" rx="131.28" ry="22"/>
<ellipse fill="none" stroke="black" cx="1502" cy="-1159.53" rx="135.28" ry="26"/>
<text text-anchor="middle" x="1502" y="-1155.83" font-family="Times,serif" font-size="14.00">is0connected_component</text>
</a>
</g>
</g>
<!-- Connectedness_is0connected_merely_allpath -->
<g id="node12" class="node">
<title>Connectedness_is0connected_merely_allpath</title>
<g id="a_node12"><a xlink:href="Connectedness.html#is0connected_merely_allpath" xlink:title="is0connected_merely_allpath">
<ellipse fill="#f070d1" stroke="black" cx="1196" cy="-1159.53" rx="144.88" ry="18"/>
<ellipse fill="none" stroke="black" cx="1196" cy="-1159.53" rx="148.88" ry="22"/>
<ellipse fill="none" stroke="black" cx="1196" cy="-1159.53" rx="152.87" ry="26"/>
<text text-anchor="middle" x="1196" y="-1155.83" font-family="Times,serif" font-size="14.00">is0connected_merely_allpath</text>
</a>
</g>
</g>
<!-- Connectedness_isconnected_paths -->
<g id="node27" class="node">
<title>Connectedness_isconnected_paths</title>
<g id="a_node27"><a xlink:href="Connectedness.html#isconnected_paths" xlink:title="isconnected_paths">
<ellipse fill="#f070d1" stroke="black" cx="861" cy="-104.53" rx="96.38" ry="18"/>
<text text-anchor="middle" x="861" y="-100.83" font-family="Times,serif" font-size="14.00">isconnected_paths</text>
</a>
</g>
</g>
<!-- Connectedness_merely_path_is0connected&#45;&gt;Connectedness_isconnected_paths -->
<g id="edge11" class="edge">
<title>Connectedness_merely_path_is0connected&#45;&gt;Connectedness_isconnected_paths</title>
<path fill="none" stroke="black" d="M1071.11,-331.45C1031.72,-289.09 929.47,-179.15 883.71,-129.96"/>
<polygon fill="black" stroke="black" points="886.25,-127.54 876.87,-122.6 881.12,-132.31 886.25,-127.54"/>
</g>
<!-- Connectedness_isconnmap_minus_two -->
<g id="node14" class="node">
<title>Connectedness_isconnmap_minus_two</title>
<g id="a_node14"><a xlink:href="Connectedness.html#isconnmap_minus_two" xlink:title="isconnmap_minus_two">
<ellipse fill="#f070d1" stroke="black" cx="903" cy="-1159.53" rx="114.29" ry="18"/>
<ellipse fill="none" stroke="black" cx="903" cy="-1159.53" rx="118.28" ry="22"/>
<ellipse fill="none" stroke="black" cx="903" cy="-1159.53" rx="122.28" ry="26"/>
<text text-anchor="middle" x="903" y="-1155.83" font-family="Times,serif" font-size="14.00">isconnmap_minus_two</text>
</a>
</g>
</g>
<!-- Connectedness_isconnected_minus_two -->
<g id="node15" class="node">
<title>Connectedness_isconnected_minus_two</title>
<g id="a_node15"><a xlink:href="Connectedness.html#isconnected_minus_two" xlink:title="isconnected_minus_two">
<ellipse fill="#f070d1" stroke="black" cx="1071" cy="-889.53" rx="120.48" ry="18"/>
<text text-anchor="middle" x="1071" y="-885.83" font-family="Times,serif" font-size="14.00">isconnected_minus_two</text>
</a>
</g>
</g>
<!-- Connectedness_isconnmap_minus_two&#45;&gt;Connectedness_isconnected_minus_two -->
<g id="edge12" class="edge">
<title>Connectedness_isconnmap_minus_two&#45;&gt;Connectedness_isconnected_minus_two</title>
<path fill="none" stroke="black" d="M918.81,-1133.32C950.78,-1082.31 1022.84,-967.36 1054.99,-916.07"/>
<polygon fill="black" stroke="black" points="1057.99,-917.88 1060.33,-907.55 1052.06,-914.16 1057.99,-917.88"/>
</g>
<!-- Connectedness_isconnmap_pred_add -->
<g id="node16" class="node">
<title>Connectedness_isconnmap_pred_add</title>
<g id="a_node16"><a xlink:href="Connectedness.html#isconnmap_pred_add" xlink:title="isconnmap_pred_add">
<ellipse fill="#f070d1" stroke="black" cx="605" cy="-889.53" rx="107.79" ry="18"/>
<ellipse fill="none" stroke="black" cx="605" cy="-889.53" rx="111.78" ry="22"/>
<ellipse fill="none" stroke="black" cx="605" cy="-889.53" rx="115.78" ry="26"/>
<text text-anchor="middle" x="605" y="-885.83" font-family="Times,serif" font-size="14.00">isconnmap_pred_add</text>
</a>
</g>
</g>
<!-- Connectedness_isconnected_pred_add -->
<g id="node21" class="node">
<title>Connectedness_isconnected_pred_add</title>
<g id="a_node21"><a xlink:href="Connectedness.html#isconnected_pred_add" xlink:title="isconnected_pred_add">
<ellipse fill="#f070d1" stroke="black" cx="605" cy="-619.53" rx="113.18" ry="18"/>
<text text-anchor="middle" x="605" y="-615.83" font-family="Times,serif" font-size="14.00">isconnected_pred_add</text>
</a>
</g>
</g>
<!-- Connectedness_isconnmap_pred_add&#45;&gt;Connectedness_isconnected_pred_add -->
<g id="edge13" class="edge">
<title>Connectedness_isconnmap_pred_add&#45;&gt;Connectedness_isconnected_pred_add</title>
<path fill="none" stroke="black" d="M605,-863.32C605,-812.84 605,-699.73 605,-647.69"/>
<polygon fill="black" stroke="black" points="608.5,-647.55 605,-637.55 601.5,-647.55 608.5,-647.55"/>
</g>
<!-- Connectedness_isconnmap_pred_ -->
<g id="node17" class="node">
<title>Connectedness_isconnmap_pred_</title>
<g id="a_node17"><a xlink:href="Connectedness.html#isconnmap_pred'" xlink:title="isconnmap_pred&#39;">
<ellipse fill="#f070d1" stroke="black" cx="836" cy="-889.53" rx="89.08" ry="18"/>
<ellipse fill="none" stroke="black" cx="836" cy="-889.53" rx="93.08" ry="22"/>
<ellipse fill="none" stroke="black" cx="836" cy="-889.53" rx="97.08" ry="26"/>
<text text-anchor="middle" x="836" y="-885.83" font-family="Times,serif" font-size="14.00">isconnmap_pred&#39;</text>
</a>
</g>
</g>
<!-- Connectedness_isconnected_pred_ -->
<g id="node22" class="node">
<title>Connectedness_isconnected_pred_</title>
<g id="a_node22"><a xlink:href="Connectedness.html#isconnected_pred'" xlink:title="isconnected_pred&#39;">
<ellipse fill="#f070d1" stroke="black" cx="833" cy="-619.53" rx="94.48" ry="18"/>
<text text-anchor="middle" x="833" y="-615.83" font-family="Times,serif" font-size="14.00">isconnected_pred&#39;</text>
</a>
</g>
</g>
<!-- Connectedness_isconnmap_pred_&#45;&gt;Connectedness_isconnected_pred_ -->
<g id="edge14" class="edge">
<title>Connectedness_isconnmap_pred_&#45;&gt;Connectedness_isconnected_pred_</title>
<path fill="none" stroke="black" d="M835.72,-863.32C835.15,-812.84 833.89,-699.73 833.3,-647.69"/>
<polygon fill="black" stroke="black" points="836.8,-647.51 833.19,-637.55 829.8,-647.59 836.8,-647.51"/>
</g>
<!-- Connectedness_is0connected_isconnected -->
<g id="node18" class="node">
<title>Connectedness_is0connected_isconnected</title>
<g id="a_node18"><a xlink:href="Connectedness.html#is0connected_isconnected" xlink:title="is0connected_isconnected">
<ellipse fill="#f070d1" stroke="black" cx="623" cy="-1159.53" rx="131.09" ry="18"/>
<ellipse fill="none" stroke="black" cx="623" cy="-1159.53" rx="135.08" ry="22"/>
<ellipse fill="none" stroke="black" cx="623" cy="-1159.53" rx="139.08" ry="26"/>
<text text-anchor="middle" x="623" y="-1155.83" font-family="Times,serif" font-size="14.00">is0connected_isconnected</text>
</a>
</g>
</g>
<!-- Connectedness_isconnected_pred_add_ -->
<g id="node20" class="node">
<title>Connectedness_isconnected_pred_add_</title>
<g id="a_node20"><a xlink:href="Connectedness.html#isconnected_pred_add'" xlink:title="isconnected_pred_add&#39;">
<ellipse fill="#f070d1" stroke="black" cx="355" cy="-889.53" rx="115.88" ry="18"/>
<text text-anchor="middle" x="355" y="-885.83" font-family="Times,serif" font-size="14.00">isconnected_pred_add&#39;</text>
</a>
</g>
</g>
<!-- Connectedness_is0connected_isconnected&#45;&gt;Connectedness_isconnected_pred_add_ -->
<g id="edge15" class="edge">
<title>Connectedness_is0connected_isconnected&#45;&gt;Connectedness_isconnected_pred_add_</title>
<path fill="none" stroke="black" d="M598.27,-1133.8C547.12,-1082.65 430.24,-965.77 379.39,-914.92"/>
<polygon fill="black" stroke="black" points="381.64,-912.22 372.1,-907.63 376.69,-917.17 381.64,-912.22"/>
</g>
<!-- Connectedness_merely_isconnected -->
<g id="node19" class="node">
<title>Connectedness_merely_isconnected</title>
<g id="a_node19"><a xlink:href="Connectedness.html#merely_isconnected" xlink:title="merely_isconnected">
<ellipse fill="#f070d1" stroke="black" cx="355" cy="-1159.53" rx="102.87" ry="18"/>
<ellipse fill="none" stroke="black" cx="355" cy="-1159.53" rx="106.88" ry="22"/>
<ellipse fill="none" stroke="black" cx="355" cy="-1159.53" rx="110.88" ry="26"/>
<text text-anchor="middle" x="355" y="-1155.83" font-family="Times,serif" font-size="14.00">merely_isconnected</text>
</a>
</g>
</g>
<!-- Connectedness_merely_isconnected&#45;&gt;Connectedness_isconnected_pred_add_ -->
<g id="edge16" class="edge">
<title>Connectedness_merely_isconnected&#45;&gt;Connectedness_isconnected_pred_add_</title>
<path fill="none" stroke="black" d="M355,-1133.32C355,-1082.84 355,-969.73 355,-917.69"/>
<polygon fill="black" stroke="black" points="358.5,-917.55 355,-907.55 351.5,-917.55 358.5,-917.55"/>
</g>
<!-- Connectedness_isconnected_pred_add_&#45;&gt;Connectedness_isconnected_pred_add -->
<g id="edge17" class="edge">
<title>Connectedness_isconnected_pred_add_&#45;&gt;Connectedness_isconnected_pred_add</title>
<path fill="none" stroke="black" d="M371.02,-871.36C414.06,-825.22 532.31,-698.46 582.26,-644.91"/>
<polygon fill="black" stroke="black" points="584.85,-647.26 589.11,-637.56 579.73,-642.49 584.85,-647.26"/>
</g>
<!-- Connectedness_isconnected_pred_add&#45;&gt;Connectedness_isconnected_pred -->
<g id="edge18" class="edge">
<title>Connectedness_isconnected_pred_add&#45;&gt;Connectedness_isconnected_pred</title>
<path fill="none" stroke="black" d="M619.93,-601.36C659.96,-555.32 769.8,-428.98 816.52,-375.24"/>
<polygon fill="black" stroke="black" points="819.27,-377.41 823.19,-367.56 813.99,-372.81 819.27,-377.41"/>
</g>
<!-- Connectedness_isconnected_pred_&#45;&gt;Connectedness_isconnected_pred -->
<g id="edge19" class="edge">
<title>Connectedness_isconnected_pred_&#45;&gt;Connectedness_isconnected_pred</title>
<path fill="none" stroke="black" d="M833.32,-601.36C834.17,-555.98 836.47,-432.59 837.49,-377.6"/>
<polygon fill="black" stroke="black" points="841,-377.63 837.68,-367.56 834,-377.49 841,-377.63"/>
</g>
<!-- Connectedness_conn_point_elim -->
<g id="node24" class="node">
<title>Connectedness_conn_point_elim</title>
<g id="a_node24"><a xlink:href="Connectedness.html#conn_point_elim" xlink:title="conn_point_elim">
<ellipse fill="#f070d1" stroke="black" cx="635" cy="-349.53" rx="85.27" ry="18"/>
<ellipse fill="none" stroke="black" cx="635" cy="-349.53" rx="89.28" ry="22"/>
<ellipse fill="none" stroke="black" cx="635" cy="-349.53" rx="93.29" ry="26"/>
<text text-anchor="middle" x="635" y="-345.83" font-family="Times,serif" font-size="14.00">conn_point_elim</text>
</a>
</g>
</g>
<!-- Connectedness_conn_point_elim&#45;&gt;Connectedness_isconnected_paths -->
<g id="edge20" class="edge">
<title>Connectedness_conn_point_elim&#45;&gt;Connectedness_isconnected_paths</title>
<path fill="none" stroke="black" d="M657.91,-323.9C701.3,-277.24 794.97,-176.53 838.24,-130.01"/>
<polygon fill="black" stroke="black" points="840.98,-132.2 845.22,-122.5 835.85,-127.44 840.98,-132.2"/>
</g>
<!-- Connectedness_conn_pointed_type -->
<g id="node26" class="node">
<title>Connectedness_conn_pointed_type</title>
<g id="a_node26"><a xlink:href="Connectedness.html#conn_pointed_type" xlink:title="conn_pointed_type">
<ellipse fill="#f070d1" stroke="black" cx="121" cy="-1159.53" rx="96.7" ry="18"/>
<ellipse fill="none" stroke="black" cx="121" cy="-1159.53" rx="100.69" ry="22"/>
<ellipse fill="none" stroke="black" cx="121" cy="-1159.53" rx="104.68" ry="26"/>
<text text-anchor="middle" x="121" y="-1155.83" font-family="Times,serif" font-size="14.00">conn_pointed_type</text>
</a>
</g>
</g>
</g>
</svg>
