<?xml version="1.0" encoding="UTF-8" standalone="no"?>
<!DOCTYPE svg PUBLIC "-//W3C//DTD SVG 1.1//EN"
 "http://www.w3.org/Graphics/SVG/1.1/DTD/svg11.dtd">
<!-- Generated by graphviz version 2.43.0 (0)
 -->
<!-- Title: HoTT_WildCat_EpiStable Pages: 1 -->
<svg width="3282pt" height="1645pt"
 viewBox="0.00 0.00 3282.00 1645.00" xmlns="http://www.w3.org/2000/svg" xmlns:xlink="http://www.w3.org/1999/xlink">
<g id="graph0" class="graph" transform="scale(1 1) rotate(0) translate(4 1641)">
<title>HoTT_WildCat_EpiStable</title>
<polygon fill="white" stroke="transparent" points="-4,4 -4,-1641 3278,-1641 3278,4 -4,4"/>
<g id="clust1" class="cluster">
<title>cluster_EpiStable</title>
<polygon fill="#ffffc3" stroke="black" points="8,-29.56 8,-1607.44 3266,-1607.44 3266,-29.56 8,-29.56"/>
<text text-anchor="middle" x="51" y="-1592.24" font-family="Times,serif" font-size="14.00">EpiStable</text>
</g>
<!-- EpiStable_epic_cancel_monic -->
<g id="node1" class="node">
<title>EpiStable_epic_cancel_monic</title>
<g id="a_node1"><a xlink:href="EpiStable.html#epic_cancel_monic" xlink:title="epic_cancel_monic">
<ellipse fill="#f070d1" stroke="black" cx="2654" cy="-1071.56" rx="95.58" ry="18"/>
<ellipse fill="none" stroke="black" cx="2654" cy="-1071.56" rx="99.58" ry="22"/>
<ellipse fill="none" stroke="black" cx="2654" cy="-1071.56" rx="103.58" ry="26"/>
<text text-anchor="middle" x="2654" y="-1067.86" font-family="Times,serif" font-size="14.00">epic_cancel_monic</text>
</a>
</g>
</g>
<!-- EpiStable_lift_helper -->
<g id="node25" class="node">
<title>EpiStable_lift_helper</title>
<g id="a_node25"><a xlink:href="EpiStable.html#lift_helper" xlink:title="lift_helper">
<ellipse fill="#f070d1" stroke="black" cx="2176" cy="-746.56" rx="57.69" ry="18"/>
<text text-anchor="middle" x="2176" y="-742.86" font-family="Times,serif" font-size="14.00">lift_helper</text>
</a>
</g>
</g>
<!-- EpiStable_epic_cancel_monic&#45;&gt;EpiStable_lift_helper -->
<g id="edge1" class="edge">
<title>EpiStable_epic_cancel_monic&#45;&gt;EpiStable_lift_helper</title>
<path fill="none" stroke="black" d="M2618.85,-1046.81C2529.21,-986.24 2293.11,-826.7 2207.54,-768.88"/>
<polygon fill="black" stroke="black" points="2209.28,-765.83 2199.04,-763.13 2205.36,-771.63 2209.28,-765.83"/>
</g>
<!-- EpiStable_elt_lift_epic -->
<g id="node27" class="node">
<title>EpiStable_elt_lift_epic</title>
<g id="a_node27"><a xlink:href="EpiStable.html#elt_lift_epic" xlink:title="elt_lift_epic">
<ellipse fill="#f070d1" stroke="black" cx="2316" cy="-746.56" rx="63.89" ry="18"/>
<text text-anchor="middle" x="2316" y="-742.86" font-family="Times,serif" font-size="14.00">elt_lift_epic</text>
</a>
</g>
</g>
<!-- EpiStable_epic_cancel_monic&#45;&gt;EpiStable_elt_lift_epic -->
<g id="edge2" class="edge">
<title>EpiStable_epic_cancel_monic&#45;&gt;EpiStable_elt_lift_epic</title>
<path fill="none" stroke="black" d="M2628.6,-1046.28C2565.58,-986.07 2402.71,-830.42 2340.58,-771.05"/>
<polygon fill="black" stroke="black" points="2342.82,-768.35 2333.18,-763.97 2337.99,-773.41 2342.82,-768.35"/>
</g>
<!-- EpiStable_epic_elt_lift -->
<g id="node29" class="node">
<title>EpiStable_epic_elt_lift</title>
<g id="a_node29"><a xlink:href="EpiStable.html#epic_elt_lift" xlink:title="epic_elt_lift">
<ellipse fill="#f070d1" stroke="black" cx="2036" cy="-746.56" rx="63.89" ry="18"/>
<text text-anchor="middle" x="2036" y="-742.86" font-family="Times,serif" font-size="14.00">epic_elt_lift</text>
</a>
</g>
</g>
<!-- EpiStable_epic_cancel_monic&#45;&gt;EpiStable_epic_elt_lift -->
<g id="edge3" class="edge">
<title>EpiStable_epic_cancel_monic&#45;&gt;EpiStable_epic_elt_lift</title>
<path fill="none" stroke="black" d="M2610.54,-1047.85C2495.21,-987.57 2182.81,-824.29 2073.99,-767.42"/>
<polygon fill="black" stroke="black" points="2075.49,-764.25 2065,-762.72 2072.25,-770.46 2075.49,-764.25"/>
</g>
<!-- EpiStable_monic_cancel_epic -->
<g id="node2" class="node">
<title>EpiStable_monic_cancel_epic</title>
<g id="a_node2"><a xlink:href="EpiStable.html#monic_cancel_epic" xlink:title="monic_cancel_epic">
<ellipse fill="#f070d1" stroke="black" cx="2879" cy="-1071.56" rx="95.58" ry="18"/>
<ellipse fill="none" stroke="black" cx="2879" cy="-1071.56" rx="99.58" ry="22"/>
<ellipse fill="none" stroke="black" cx="2879" cy="-1071.56" rx="103.58" ry="26"/>
<text text-anchor="middle" x="2879" y="-1067.86" font-family="Times,serif" font-size="14.00">monic_cancel_epic</text>
</a>
</g>
</g>
<!-- EpiStable_monic_via_elt -->
<g id="node26" class="node">
<title>EpiStable_monic_via_elt</title>
<g id="a_node26"><a xlink:href="EpiStable.html#monic_via_elt" xlink:title="monic_via_elt">
<ellipse fill="#f070d1" stroke="black" cx="2675" cy="-746.56" rx="73.39" ry="18"/>
<text text-anchor="middle" x="2675" y="-742.86" font-family="Times,serif" font-size="14.00">monic_via_elt</text>
</a>
</g>
</g>
<!-- EpiStable_monic_cancel_epic&#45;&gt;EpiStable_monic_via_elt -->
<g id="edge4" class="edge">
<title>EpiStable_monic_cancel_epic&#45;&gt;EpiStable_monic_via_elt</title>
<path fill="none" stroke="black" d="M2863.33,-1045.75C2825.53,-985.9 2729.6,-834.02 2691.23,-773.26"/>
<polygon fill="black" stroke="black" points="2694.09,-771.23 2685.79,-764.65 2688.17,-774.97 2694.09,-771.23"/>
</g>
<!-- EpiStable_monic_cancel_epic&#45;&gt;EpiStable_elt_lift_epic -->
<g id="edge5" class="edge">
<title>EpiStable_monic_cancel_epic&#45;&gt;EpiStable_elt_lift_epic</title>
<path fill="none" stroke="black" d="M2838.51,-1047.33C2733.13,-986.88 2451.61,-825.37 2351.75,-768.07"/>
<polygon fill="black" stroke="black" points="2353.35,-764.96 2342.94,-763.02 2349.87,-771.03 2353.35,-764.96"/>
</g>
<!-- EpiStable_monic_isabexact_nil_morphism -->
<g id="node3" class="node">
<title>EpiStable_monic_isabexact_nil_morphism</title>
<g id="a_node3"><a xlink:href="EpiStable.html#monic_isabexact_nil_morphism" xlink:title="monic_isabexact_nil_morphism">
<ellipse fill="#f070d1" stroke="black" cx="2370" cy="-1071.56" rx="154.07" ry="18"/>
<ellipse fill="none" stroke="black" cx="2370" cy="-1071.56" rx="158.07" ry="22"/>
<ellipse fill="none" stroke="black" cx="2370" cy="-1071.56" rx="162.07" ry="26"/>
<text text-anchor="middle" x="2370" y="-1067.86" font-family="Times,serif" font-size="14.00">monic_isabexact_nil_morphism</text>
</a>
</g>
</g>
<!-- EpiStable_CatIsAbExact -->
<g id="node16" class="node">
<title>EpiStable_CatIsAbExact</title>
<g id="a_node16"><a xlink:href="EpiStable.html#CatIsAbExact" xlink:title="CatIsAbExact">
<ellipse fill="#e2cdfa" stroke="black" cx="1868" cy="-746.56" rx="73.39" ry="18"/>
<text text-anchor="middle" x="1868" y="-742.86" font-family="Times,serif" font-size="14.00">CatIsAbExact</text>
</a>
</g>
</g>
<!-- EpiStable_monic_isabexact_nil_morphism&#45;&gt;EpiStable_CatIsAbExact -->
<g id="edge6" class="edge">
<title>EpiStable_monic_isabexact_nil_morphism&#45;&gt;EpiStable_CatIsAbExact</title>
<path fill="none" stroke="black" d="M2331.86,-1046.02C2236.86,-984.9 1990.92,-826.65 1901.3,-768.99"/>
<polygon fill="black" stroke="black" points="1903.18,-766.04 1892.88,-763.57 1899.39,-771.92 1903.18,-766.04"/>
</g>
<!-- EpiStable_monic_isabexact_nil_morphism&#45;&gt;EpiStable_monic_via_elt -->
<g id="edge7" class="edge">
<title>EpiStable_monic_isabexact_nil_morphism&#45;&gt;EpiStable_monic_via_elt</title>
<path fill="none" stroke="black" d="M2393.43,-1045.75C2450.43,-985.39 2595.81,-831.42 2652.18,-771.73"/>
<polygon fill="black" stroke="black" points="2654.9,-773.95 2659.22,-764.27 2649.81,-769.14 2654.9,-773.95"/>
</g>
<!-- EpiStable_isabexact_nil_morphism_monic -->
<g id="node4" class="node">
<title>EpiStable_isabexact_nil_morphism_monic</title>
<g id="a_node4"><a xlink:href="EpiStable.html#isabexact_nil_morphism_monic" xlink:title="isabexact_nil_morphism_monic">
<ellipse fill="#f070d1" stroke="black" cx="404" cy="-1071.56" rx="154.07" ry="18"/>
<ellipse fill="none" stroke="black" cx="404" cy="-1071.56" rx="158.07" ry="22"/>
<ellipse fill="none" stroke="black" cx="404" cy="-1071.56" rx="162.07" ry="26"/>
<text text-anchor="middle" x="404" y="-1067.86" font-family="Times,serif" font-size="14.00">isabexact_nil_morphism_monic</text>
</a>
</g>
</g>
<!-- EpiStable_ismonic_ -->
<g id="node6" class="node">
<title>EpiStable_ismonic_</title>
<g id="a_node6"><a xlink:href="EpiStable.html#ismonic'" xlink:title="ismonic&#39;">
<ellipse fill="#f070d1" stroke="black" cx="1505" cy="-746.56" rx="48.99" ry="18"/>
<text text-anchor="middle" x="1505" y="-742.86" font-family="Times,serif" font-size="14.00">ismonic&#39;</text>
</a>
</g>
</g>
<!-- EpiStable_isabexact_nil_morphism_monic&#45;&gt;EpiStable_ismonic_ -->
<g id="edge8" class="edge">
<title>EpiStable_isabexact_nil_morphism_monic&#45;&gt;EpiStable_ismonic_</title>
<path fill="none" stroke="black" d="M491.39,-1049.65C672.1,-1005.51 1099.12,-896.65 1447,-772.56 1453.38,-770.28 1460.07,-767.65 1466.53,-764.96"/>
<polygon fill="black" stroke="black" points="1467.96,-768.16 1475.79,-761.02 1465.21,-761.72 1467.96,-768.16"/>
</g>
<!-- EpiStable_Build_CatIsAbExact -->
<g id="node15" class="node">
<title>EpiStable_Build_CatIsAbExact</title>
<g id="a_node15"><a xlink:href="EpiStable.html#Build_CatIsAbExact" xlink:title="Build_CatIsAbExact">
<ellipse fill="#7faaff" stroke="black" cx="1674" cy="-746.56" rx="102.88" ry="18"/>
<text text-anchor="middle" x="1674" y="-742.86" font-family="Times,serif" font-size="14.00">Build_CatIsAbExact</text>
</a>
</g>
</g>
<!-- EpiStable_isabexact_nil_morphism_monic&#45;&gt;EpiStable_Build_CatIsAbExact -->
<g id="edge9" class="edge">
<title>EpiStable_isabexact_nil_morphism_monic&#45;&gt;EpiStable_Build_CatIsAbExact</title>
<path fill="none" stroke="black" d="M487.82,-1049.24C724.72,-988.99 1395.77,-818.32 1608.47,-764.23"/>
<polygon fill="black" stroke="black" points="1609.42,-767.6 1618.25,-761.74 1607.7,-760.81 1609.42,-767.6"/>
</g>
<!-- EpiStable_isabexact_nil_morphism_monic&#45;&gt;EpiStable_CatIsAbExact -->
<g id="edge10" class="edge">
<title>EpiStable_isabexact_nil_morphism_monic&#45;&gt;EpiStable_CatIsAbExact</title>
<path fill="none" stroke="black" d="M506.98,-1051.41C737.51,-1007.88 1312.07,-895.68 1786,-772.56 1795.62,-770.06 1805.79,-767.17 1815.58,-764.25"/>
<polygon fill="black" stroke="black" points="1816.65,-767.59 1825.21,-761.35 1814.62,-760.89 1816.65,-767.59"/>
</g>
<!-- EpiStable_monic_via_elt_isemb_ab -->
<g id="node5" class="node">
<title>EpiStable_monic_via_elt_isemb_ab</title>
<g id="a_node5"><a xlink:href="EpiStable.html#monic_via_elt_isemb_ab" xlink:title="monic_via_elt_isemb_ab">
<ellipse fill="#f070d1" stroke="black" cx="3129" cy="-1071.56" rx="120.79" ry="18"/>
<ellipse fill="none" stroke="black" cx="3129" cy="-1071.56" rx="124.78" ry="22"/>
<ellipse fill="none" stroke="black" cx="3129" cy="-1071.56" rx="128.78" ry="26"/>
<text text-anchor="middle" x="3129" y="-1067.86" font-family="Times,serif" font-size="14.00">monic_via_elt_isemb_ab</text>
</a>
</g>
</g>
<!-- EpiStable_IsAbEpiStable -->
<g id="node24" class="node">
<title>EpiStable_IsAbEpiStable</title>
<g id="a_node24"><a xlink:href="EpiStable.html#IsAbEpiStable" xlink:title="IsAbEpiStable">
<ellipse fill="#e2cdfa" stroke="black" cx="1016" cy="-421.56" rx="76.89" ry="18"/>
<text text-anchor="middle" x="1016" y="-417.86" font-family="Times,serif" font-size="14.00">IsAbEpiStable</text>
</a>
</g>
</g>
<!-- EpiStable_monic_via_elt_isemb_ab&#45;&gt;EpiStable_IsAbEpiStable -->
<g id="edge11" class="edge">
<title>EpiStable_monic_via_elt_isemb_ab&#45;&gt;EpiStable_IsAbEpiStable</title>
<path fill="none" stroke="black" d="M3111.06,-1045.47C3062.53,-979.68 2921.14,-801.73 2757,-720.56 2088.74,-390.13 1829,-612.57 1102,-447.56 1091.44,-445.16 1080.25,-442.22 1069.57,-439.2"/>
<polygon fill="black" stroke="black" points="1070.51,-435.83 1059.93,-436.43 1068.57,-442.56 1070.51,-435.83"/>
</g>
<!-- EpiStable_monic_via_elt_isemb_ab&#45;&gt;EpiStable_monic_via_elt -->
<g id="edge12" class="edge">
<title>EpiStable_monic_via_elt_isemb_ab&#45;&gt;EpiStable_monic_via_elt</title>
<path fill="none" stroke="black" d="M3094.88,-1046.28C3009.62,-985.63 2788.27,-828.15 2706.21,-769.77"/>
<polygon fill="black" stroke="black" points="2707.99,-766.74 2697.81,-763.79 2703.93,-772.44 2707.99,-766.74"/>
</g>
<!-- EpiStable_ismonic_&#45;&gt;EpiStable_IsAbEpiStable -->
<g id="edge13" class="edge">
<title>EpiStable_ismonic_&#45;&gt;EpiStable_IsAbEpiStable</title>
<path fill="none" stroke="black" d="M1482.07,-730.42C1403.05,-678.22 1141.82,-505.67 1049.05,-444.39"/>
<polygon fill="black" stroke="black" points="1050.88,-441.41 1040.61,-438.81 1047.02,-447.25 1050.88,-441.41"/>
</g>
<!-- EpiStable_elt -->
<g id="node31" class="node">
<title>EpiStable_elt</title>
<g id="a_node31"><a xlink:href="EpiStable.html#elt" xlink:title="elt">
<ellipse fill="#f070d1" stroke="black" cx="2036" cy="-125.56" rx="27" ry="18"/>
<text text-anchor="middle" x="2036" y="-121.86" font-family="Times,serif" font-size="14.00">elt</text>
</a>
</g>
</g>
<!-- EpiStable_ismonic_&#45;&gt;EpiStable_elt -->
<g id="edge14" class="edge">
<title>EpiStable_ismonic_&#45;&gt;EpiStable_elt</title>
<path fill="none" stroke="black" d="M1519.2,-729.01C1592.92,-643.08 1931.73,-248.11 2016.65,-149.11"/>
<polygon fill="black" stroke="black" points="2019.35,-151.35 2023.2,-141.48 2014.04,-146.79 2019.35,-151.35"/>
</g>
<!-- EpiStable_isabexact_nil_morphism_epic -->
<g id="node7" class="node">
<title>EpiStable_isabexact_nil_morphism_epic</title>
<g id="a_node7"><a xlink:href="EpiStable.html#isabexact_nil_morphism_epic" xlink:title="isabexact_nil_morphism_epic">
<ellipse fill="#f070d1" stroke="black" cx="1711" cy="-1071.56" rx="145.67" ry="18"/>
<ellipse fill="none" stroke="black" cx="1711" cy="-1071.56" rx="149.67" ry="22"/>
<ellipse fill="none" stroke="black" cx="1711" cy="-1071.56" rx="153.67" ry="26"/>
<text text-anchor="middle" x="1711" y="-1067.86" font-family="Times,serif" font-size="14.00">isabexact_nil_morphism_epic</text>
</a>
</g>
</g>
<!-- EpiStable_isabexact_nil_morphism_epic&#45;&gt;EpiStable_Build_CatIsAbExact -->
<g id="edge15" class="edge">
<title>EpiStable_isabexact_nil_morphism_epic&#45;&gt;EpiStable_Build_CatIsAbExact</title>
<path fill="none" stroke="black" d="M1708.13,-1045.49C1701.3,-985.92 1684.17,-836.32 1677.11,-774.72"/>
<polygon fill="black" stroke="black" points="1680.57,-774.15 1675.95,-764.61 1673.61,-774.94 1680.57,-774.15"/>
</g>
<!-- EpiStable_isabexact_nil_morphism_epic&#45;&gt;EpiStable_CatIsAbExact -->
<g id="edge16" class="edge">
<title>EpiStable_isabexact_nil_morphism_epic&#45;&gt;EpiStable_CatIsAbExact</title>
<path fill="none" stroke="black" d="M1723.19,-1045.49C1752.26,-985.67 1825.46,-835.08 1855.17,-773.96"/>
<polygon fill="black" stroke="black" points="1858.49,-775.13 1859.71,-764.61 1852.19,-772.07 1858.49,-775.13"/>
</g>
<!-- EpiStable_isabexact_nil_morphism_epic&#45;&gt;EpiStable_elt_lift_epic -->
<g id="edge17" class="edge">
<title>EpiStable_isabexact_nil_morphism_epic&#45;&gt;EpiStable_elt_lift_epic</title>
<path fill="none" stroke="black" d="M1755.98,-1046.55C1870.68,-985.31 2172.51,-824.17 2278.53,-767.57"/>
<polygon fill="black" stroke="black" points="2280.41,-770.53 2287.58,-762.73 2277.12,-764.35 2280.41,-770.53"/>
</g>
<!-- EpiStable_epic_isabexact_nil_morphism -->
<g id="node8" class="node">
<title>EpiStable_epic_isabexact_nil_morphism</title>
<g id="a_node8"><a xlink:href="EpiStable.html#epic_isabexact_nil_morphism" xlink:title="epic_isabexact_nil_morphism">
<ellipse fill="#f070d1" stroke="black" cx="2036" cy="-1071.56" rx="145.67" ry="18"/>
<ellipse fill="none" stroke="black" cx="2036" cy="-1071.56" rx="149.67" ry="22"/>
<ellipse fill="none" stroke="black" cx="2036" cy="-1071.56" rx="153.67" ry="26"/>
<text text-anchor="middle" x="2036" y="-1067.86" font-family="Times,serif" font-size="14.00">epic_isabexact_nil_morphism</text>
</a>
</g>
</g>
<!-- EpiStable_epic_isabexact_nil_morphism&#45;&gt;EpiStable_CatIsAbExact -->
<g id="edge18" class="edge">
<title>EpiStable_epic_isabexact_nil_morphism&#45;&gt;EpiStable_CatIsAbExact</title>
<path fill="none" stroke="black" d="M2022.96,-1045.49C1991.78,-985.55 1913.2,-834.46 1881.53,-773.58"/>
<polygon fill="black" stroke="black" points="1884.59,-771.87 1876.87,-764.61 1878.38,-775.1 1884.59,-771.87"/>
</g>
<!-- EpiStable_epic_isabexact_nil_morphism&#45;&gt;EpiStable_epic_elt_lift -->
<g id="edge19" class="edge">
<title>EpiStable_epic_isabexact_nil_morphism&#45;&gt;EpiStable_epic_elt_lift</title>
<path fill="none" stroke="black" d="M2036,-1045.49C2036,-985.92 2036,-836.32 2036,-774.72"/>
<polygon fill="black" stroke="black" points="2039.5,-774.61 2036,-764.61 2032.5,-774.61 2039.5,-774.61"/>
</g>
<!-- EpiStable_isabexact -->
<g id="node9" class="node">
<title>EpiStable_isabexact</title>
<g id="a_node9"><a xlink:href="EpiStable.html#isabexact" xlink:title="isabexact">
<ellipse fill="#f070d1" stroke="black" cx="1477" cy="-1071.56" rx="54.68" ry="18"/>
<ellipse fill="none" stroke="black" cx="1477" cy="-1071.56" rx="58.68" ry="22"/>
<ellipse fill="none" stroke="black" cx="1477" cy="-1071.56" rx="62.69" ry="26"/>
<text text-anchor="middle" x="1477" y="-1067.86" font-family="Times,serif" font-size="14.00">isabexact</text>
</a>
</g>
</g>
<!-- EpiStable_isabexact&#45;&gt;EpiStable_CatIsAbExact -->
<g id="edge20" class="edge">
<title>EpiStable_isabexact&#45;&gt;EpiStable_CatIsAbExact</title>
<path fill="none" stroke="black" d="M1504.18,-1048.11C1575.56,-989.15 1767.74,-830.38 1840.01,-770.68"/>
<polygon fill="black" stroke="black" points="1842.34,-773.3 1847.82,-764.23 1837.88,-767.9 1842.34,-773.3"/>
</g>
<!-- EpiStable_isabcomplex -->
<g id="node10" class="node">
<title>EpiStable_isabcomplex</title>
<g id="a_node10"><a xlink:href="EpiStable.html#isabcomplex" xlink:title="isabcomplex">
<ellipse fill="#f070d1" stroke="black" cx="1320" cy="-1071.56" rx="68.46" ry="18"/>
<ellipse fill="none" stroke="black" cx="1320" cy="-1071.56" rx="72.48" ry="22"/>
<ellipse fill="none" stroke="black" cx="1320" cy="-1071.56" rx="76.49" ry="26"/>
<text text-anchor="middle" x="1320" y="-1067.86" font-family="Times,serif" font-size="14.00">isabcomplex</text>
</a>
</g>
</g>
<!-- EpiStable_isabcomplex&#45;&gt;EpiStable_CatIsAbExact -->
<g id="edge21" class="edge">
<title>EpiStable_isabcomplex&#45;&gt;EpiStable_CatIsAbExact</title>
<path fill="none" stroke="black" d="M1357.24,-1048.61C1457.8,-989.34 1733.94,-826.58 1832.48,-768.5"/>
<polygon fill="black" stroke="black" points="1834.34,-771.46 1841.18,-763.37 1830.79,-765.43 1834.34,-771.46"/>
</g>
<!-- EpiStable_CatIsAbExact_sind -->
<g id="node11" class="node">
<title>EpiStable_CatIsAbExact_sind</title>
<g id="a_node11"><a xlink:href="EpiStable.html#CatIsAbExact_sind" xlink:title="CatIsAbExact_sind">
<ellipse fill="#f070d1" stroke="black" cx="909" cy="-1071.56" rx="97.48" ry="18"/>
<ellipse fill="none" stroke="black" cx="909" cy="-1071.56" rx="101.48" ry="22"/>
<ellipse fill="none" stroke="black" cx="909" cy="-1071.56" rx="105.48" ry="26"/>
<text text-anchor="middle" x="909" y="-1067.86" font-family="Times,serif" font-size="14.00">CatIsAbExact_sind</text>
</a>
</g>
</g>
<!-- EpiStable_CatIsAbExact_sind&#45;&gt;EpiStable_Build_CatIsAbExact -->
<g id="edge22" class="edge">
<title>EpiStable_CatIsAbExact_sind&#45;&gt;EpiStable_Build_CatIsAbExact</title>
<path fill="none" stroke="black" d="M960.68,-1048.74C1101.79,-989.16 1492.11,-824.36 1627.23,-767.31"/>
<polygon fill="black" stroke="black" points="1628.66,-770.5 1636.52,-763.39 1625.94,-764.05 1628.66,-770.5"/>
</g>
<!-- EpiStable_CatIsAbExact_sind&#45;&gt;EpiStable_CatIsAbExact -->
<g id="edge23" class="edge">
<title>EpiStable_CatIsAbExact_sind&#45;&gt;EpiStable_CatIsAbExact</title>
<path fill="none" stroke="black" d="M969.35,-1050.23C1144.93,-991.1 1653.37,-819.85 1816.78,-764.81"/>
<polygon fill="black" stroke="black" points="1818.22,-768.02 1826.58,-761.51 1815.99,-761.39 1818.22,-768.02"/>
</g>
<!-- EpiStable_CatIsAbExact_rec -->
<g id="node12" class="node">
<title>EpiStable_CatIsAbExact_rec</title>
<g id="a_node12"><a xlink:href="EpiStable.html#CatIsAbExact_rec" xlink:title="CatIsAbExact_rec">
<ellipse fill="#f070d1" stroke="black" cx="1129" cy="-1396.56" rx="92.89" ry="18"/>
<ellipse fill="none" stroke="black" cx="1129" cy="-1396.56" rx="96.89" ry="22"/>
<ellipse fill="none" stroke="black" cx="1129" cy="-1396.56" rx="100.88" ry="26"/>
<text text-anchor="middle" x="1129" y="-1392.86" font-family="Times,serif" font-size="14.00">CatIsAbExact_rec</text>
</a>
</g>
</g>
<!-- EpiStable_CatIsAbExact_rect -->
<g id="node14" class="node">
<title>EpiStable_CatIsAbExact_rect</title>
<g id="a_node14"><a xlink:href="EpiStable.html#CatIsAbExact_rect" xlink:title="CatIsAbExact_rect">
<ellipse fill="#f070d1" stroke="black" cx="1129" cy="-1071.56" rx="96.68" ry="18"/>
<text text-anchor="middle" x="1129" y="-1067.86" font-family="Times,serif" font-size="14.00">CatIsAbExact_rect</text>
</a>
</g>
</g>
<!-- EpiStable_CatIsAbExact_rec&#45;&gt;EpiStable_CatIsAbExact_rect -->
<g id="edge24" class="edge">
<title>EpiStable_CatIsAbExact_rec&#45;&gt;EpiStable_CatIsAbExact_rect</title>
<path fill="none" stroke="black" d="M1129,-1370.49C1129,-1310.92 1129,-1161.32 1129,-1099.72"/>
<polygon fill="black" stroke="black" points="1132.5,-1099.61 1129,-1089.61 1125.5,-1099.61 1132.5,-1099.61"/>
</g>
<!-- EpiStable_CatIsAbExact_ind -->
<g id="node13" class="node">
<title>EpiStable_CatIsAbExact_ind</title>
<g id="a_node13"><a xlink:href="EpiStable.html#CatIsAbExact_ind" xlink:title="CatIsAbExact_ind">
<ellipse fill="#7fffd4" stroke="black" cx="685" cy="-1071.56" rx="92.89" ry="18"/>
<ellipse fill="none" stroke="black" cx="685" cy="-1071.56" rx="96.89" ry="22"/>
<ellipse fill="none" stroke="black" cx="685" cy="-1071.56" rx="100.88" ry="26"/>
<text text-anchor="middle" x="685" y="-1067.86" font-family="Times,serif" font-size="14.00">CatIsAbExact_ind</text>
</a>
</g>
</g>
<!-- EpiStable_CatIsAbExact_ind&#45;&gt;EpiStable_Build_CatIsAbExact -->
<g id="edge25" class="edge">
<title>EpiStable_CatIsAbExact_ind&#45;&gt;EpiStable_Build_CatIsAbExact</title>
<path fill="none" stroke="black" d="M745.75,-1050.72C924.36,-992.39 1446.04,-822.01 1618.17,-765.79"/>
<polygon fill="black" stroke="black" points="1619.38,-769.08 1627.8,-762.65 1617.21,-762.43 1619.38,-769.08"/>
</g>
<!-- EpiStable_CatIsAbExact_ind&#45;&gt;EpiStable_CatIsAbExact -->
<g id="edge26" class="edge">
<title>EpiStable_CatIsAbExact_ind&#45;&gt;EpiStable_CatIsAbExact</title>
<path fill="none" stroke="black" d="M754.45,-1052.58C928.56,-1007.32 1397.54,-884.32 1786,-772.56 1795.24,-769.91 1805.03,-767 1814.51,-764.14"/>
<polygon fill="black" stroke="black" points="1815.69,-767.44 1824.24,-761.18 1813.66,-760.74 1815.69,-767.44"/>
</g>
<!-- EpiStable_CatIsAbExact_rect&#45;&gt;EpiStable_Build_CatIsAbExact -->
<g id="edge27" class="edge">
<title>EpiStable_CatIsAbExact_rect&#45;&gt;EpiStable_Build_CatIsAbExact</title>
<path fill="none" stroke="black" d="M1156.78,-1054.1C1247.53,-1000.32 1535.32,-829.75 1637.54,-769.17"/>
<polygon fill="black" stroke="black" points="1639.46,-772.1 1646.28,-763.99 1635.89,-766.08 1639.46,-772.1"/>
</g>
<!-- EpiStable_CatIsAbExact_rect&#45;&gt;EpiStable_CatIsAbExact -->
<g id="edge28" class="edge">
<title>EpiStable_CatIsAbExact_rect&#45;&gt;EpiStable_CatIsAbExact</title>
<path fill="none" stroke="black" d="M1165.14,-1054.76C1288.12,-1001.01 1690.11,-825.31 1824.1,-766.75"/>
<polygon fill="black" stroke="black" points="1825.88,-769.79 1833.64,-762.58 1823.08,-763.38 1825.88,-769.79"/>
</g>
<!-- EpiStable_Build_CatIsAbExact&#45;&gt;EpiStable_IsAbEpiStable -->
<g id="edge29" class="edge">
<title>EpiStable_Build_CatIsAbExact&#45;&gt;EpiStable_IsAbEpiStable</title>
<path fill="none" stroke="black" d="M1640.92,-729.32C1530.92,-675.33 1177.61,-501.89 1056.89,-442.63"/>
<polygon fill="black" stroke="black" points="1058.12,-439.34 1047.6,-438.07 1055.03,-445.62 1058.12,-439.34"/>
</g>
<!-- EpiStable_Lift -->
<g id="node30" class="node">
<title>EpiStable_Lift</title>
<g id="a_node30"><a xlink:href="EpiStable.html#Lift" xlink:title="Lift">
<ellipse fill="#f070d1" stroke="black" cx="2036" cy="-421.56" rx="27" ry="18"/>
<text text-anchor="middle" x="2036" y="-417.86" font-family="Times,serif" font-size="14.00">Lift</text>
</a>
</g>
</g>
<!-- EpiStable_Build_CatIsAbExact&#45;&gt;EpiStable_Lift -->
<g id="edge30" class="edge">
<title>EpiStable_Build_CatIsAbExact&#45;&gt;EpiStable_Lift</title>
<path fill="none" stroke="black" d="M1692.95,-728.65C1754.18,-674.02 1946.57,-502.36 2013.09,-443"/>
<polygon fill="black" stroke="black" points="2015.44,-445.6 2020.57,-436.33 2010.77,-440.38 2015.44,-445.6"/>
</g>
<!-- EpiStable_CatIsAbExact&#45;&gt;EpiStable_IsAbEpiStable -->
<g id="edge31" class="edge">
<title>EpiStable_CatIsAbExact&#45;&gt;EpiStable_IsAbEpiStable</title>
<path fill="none" stroke="black" d="M1829.74,-731.06C1691.43,-678.62 1217.58,-498.98 1064.27,-440.86"/>
<polygon fill="black" stroke="black" points="1065.24,-437.48 1054.64,-437.21 1062.75,-444.03 1065.24,-437.48"/>
</g>
<!-- EpiStable_CatIsAbExact&#45;&gt;EpiStable_Lift -->
<g id="edge32" class="edge">
<title>EpiStable_CatIsAbExact&#45;&gt;EpiStable_Lift</title>
<path fill="none" stroke="black" d="M1876.8,-728.65C1904.47,-675.44 1989.9,-511.2 2022.85,-447.85"/>
<polygon fill="black" stroke="black" points="2025.98,-449.41 2027.49,-438.92 2019.77,-446.18 2025.98,-449.41"/>
</g>
<!-- EpiStable_isabenriched_abepistable -->
<g id="node17" class="node">
<title>EpiStable_isabenriched_abepistable</title>
<g id="a_node17"><a xlink:href="EpiStable.html#isabenriched_abepistable" xlink:title="isabenriched_abepistable">
<ellipse fill="#f070d1" stroke="black" cx="1030" cy="-746.56" rx="128.08" ry="18"/>
<ellipse fill="none" stroke="black" cx="1030" cy="-746.56" rx="132.08" ry="22"/>
<ellipse fill="none" stroke="black" cx="1030" cy="-746.56" rx="136.08" ry="26"/>
<text text-anchor="middle" x="1030" y="-742.86" font-family="Times,serif" font-size="14.00">isabenriched_abepistable</text>
</a>
</g>
</g>
<!-- EpiStable_isabenriched_abepistable&#45;&gt;EpiStable_IsAbEpiStable -->
<g id="edge33" class="edge">
<title>EpiStable_isabenriched_abepistable&#45;&gt;EpiStable_IsAbEpiStable</title>
<path fill="none" stroke="black" d="M1028.91,-720.49C1026.33,-660.92 1019.85,-511.32 1017.18,-449.72"/>
<polygon fill="black" stroke="black" points="1020.67,-449.45 1016.74,-439.61 1013.68,-449.75 1020.67,-449.45"/>
</g>
<!-- EpiStable_isepistable_abepistable -->
<g id="node18" class="node">
<title>EpiStable_isepistable_abepistable</title>
<g id="a_node18"><a xlink:href="EpiStable.html#isepistable_abepistable" xlink:title="isepistable_abepistable">
<ellipse fill="#f070d1" stroke="black" cx="1311" cy="-746.56" rx="118.88" ry="18"/>
<ellipse fill="none" stroke="black" cx="1311" cy="-746.56" rx="122.88" ry="22"/>
<ellipse fill="none" stroke="black" cx="1311" cy="-746.56" rx="126.88" ry="26"/>
<text text-anchor="middle" x="1311" y="-742.86" font-family="Times,serif" font-size="14.00">isepistable_abepistable</text>
</a>
</g>
</g>
<!-- EpiStable_isepistable_abepistable&#45;&gt;EpiStable_IsAbEpiStable -->
<g id="edge34" class="edge">
<title>EpiStable_isepistable_abepistable&#45;&gt;EpiStable_IsAbEpiStable</title>
<path fill="none" stroke="black" d="M1288.34,-720.75C1233.21,-660.39 1092.59,-506.42 1038.07,-446.73"/>
<polygon fill="black" stroke="black" points="1040.59,-444.3 1031.26,-439.27 1035.42,-449.02 1040.59,-444.3"/>
</g>
<!-- EpiStable_IsAbEpiStable_sind -->
<g id="node19" class="node">
<title>EpiStable_IsAbEpiStable_sind</title>
<g id="a_node19"><a xlink:href="EpiStable.html#IsAbEpiStable_sind" xlink:title="IsAbEpiStable_sind">
<ellipse fill="#f070d1" stroke="black" cx="542" cy="-746.56" rx="100.96" ry="18"/>
<ellipse fill="none" stroke="black" cx="542" cy="-746.56" rx="104.97" ry="22"/>
<ellipse fill="none" stroke="black" cx="542" cy="-746.56" rx="108.98" ry="26"/>
<text text-anchor="middle" x="542" y="-742.86" font-family="Times,serif" font-size="14.00">IsAbEpiStable_sind</text>
</a>
</g>
</g>
<!-- EpiStable_Build_IsAbEpiStable -->
<g id="node23" class="node">
<title>EpiStable_Build_IsAbEpiStable</title>
<g id="a_node23"><a xlink:href="EpiStable.html#Build_IsAbEpiStable" xlink:title="Build_IsAbEpiStable">
<ellipse fill="#7faaff" stroke="black" cx="787" cy="-421.56" rx="105.08" ry="18"/>
<text text-anchor="middle" x="787" y="-417.86" font-family="Times,serif" font-size="14.00">Build_IsAbEpiStable</text>
</a>
</g>
</g>
<!-- EpiStable_IsAbEpiStable_sind&#45;&gt;EpiStable_Build_IsAbEpiStable -->
<g id="edge35" class="edge">
<title>EpiStable_IsAbEpiStable_sind&#45;&gt;EpiStable_Build_IsAbEpiStable</title>
<path fill="none" stroke="black" d="M560.82,-720.75C606.31,-660.77 721.9,-508.39 767.79,-447.89"/>
<polygon fill="black" stroke="black" points="770.78,-449.73 774.04,-439.65 765.21,-445.5 770.78,-449.73"/>
</g>
<!-- EpiStable_IsAbEpiStable_sind&#45;&gt;EpiStable_IsAbEpiStable -->
<g id="edge36" class="edge">
<title>EpiStable_IsAbEpiStable_sind&#45;&gt;EpiStable_IsAbEpiStable</title>
<path fill="none" stroke="black" d="M576.85,-721.81C665.42,-661.46 898.17,-502.86 983.79,-444.51"/>
<polygon fill="black" stroke="black" points="985.79,-447.39 992.08,-438.86 981.84,-441.6 985.79,-447.39"/>
</g>
<!-- EpiStable_IsAbEpiStable_rec -->
<g id="node20" class="node">
<title>EpiStable_IsAbEpiStable_rec</title>
<g id="a_node20"><a xlink:href="EpiStable.html#IsAbEpiStable_rec" xlink:title="IsAbEpiStable_rec">
<ellipse fill="#f070d1" stroke="black" cx="120" cy="-1071.56" rx="95.58" ry="18"/>
<ellipse fill="none" stroke="black" cx="120" cy="-1071.56" rx="99.58" ry="22"/>
<ellipse fill="none" stroke="black" cx="120" cy="-1071.56" rx="103.58" ry="26"/>
<text text-anchor="middle" x="120" y="-1067.86" font-family="Times,serif" font-size="14.00">IsAbEpiStable_rec</text>
</a>
</g>
</g>
<!-- EpiStable_IsAbEpiStable_rect -->
<g id="node22" class="node">
<title>EpiStable_IsAbEpiStable_rect</title>
<g id="a_node22"><a xlink:href="EpiStable.html#IsAbEpiStable_rect" xlink:title="IsAbEpiStable_rect">
<ellipse fill="#f070d1" stroke="black" cx="316" cy="-746.56" rx="99.38" ry="18"/>
<text text-anchor="middle" x="316" y="-742.86" font-family="Times,serif" font-size="14.00">IsAbEpiStable_rect</text>
</a>
</g>
</g>
<!-- EpiStable_IsAbEpiStable_rec&#45;&gt;EpiStable_IsAbEpiStable_rect -->
<g id="edge37" class="edge">
<title>EpiStable_IsAbEpiStable_rec&#45;&gt;EpiStable_IsAbEpiStable_rect</title>
<path fill="none" stroke="black" d="M135.05,-1045.75C171.38,-985.9 263.54,-834.02 300.41,-773.26"/>
<polygon fill="black" stroke="black" points="303.44,-775.01 305.63,-764.65 297.45,-771.38 303.44,-775.01"/>
</g>
<!-- EpiStable_IsAbEpiStable_ind -->
<g id="node21" class="node">
<title>EpiStable_IsAbEpiStable_ind</title>
<g id="a_node21"><a xlink:href="EpiStable.html#IsAbEpiStable_ind" xlink:title="IsAbEpiStable_ind">
<ellipse fill="#7fffd4" stroke="black" cx="772" cy="-746.56" rx="95.58" ry="18"/>
<ellipse fill="none" stroke="black" cx="772" cy="-746.56" rx="99.58" ry="22"/>
<ellipse fill="none" stroke="black" cx="772" cy="-746.56" rx="103.58" ry="26"/>
<text text-anchor="middle" x="772" y="-742.86" font-family="Times,serif" font-size="14.00">IsAbEpiStable_ind</text>
</a>
</g>
</g>
<!-- EpiStable_IsAbEpiStable_ind&#45;&gt;EpiStable_Build_IsAbEpiStable -->
<g id="edge38" class="edge">
<title>EpiStable_IsAbEpiStable_ind&#45;&gt;EpiStable_Build_IsAbEpiStable</title>
<path fill="none" stroke="black" d="M773.16,-720.49C775.93,-660.92 782.88,-511.32 785.74,-449.72"/>
<polygon fill="black" stroke="black" points="789.24,-449.76 786.21,-439.61 782.25,-449.44 789.24,-449.76"/>
</g>
<!-- EpiStable_IsAbEpiStable_ind&#45;&gt;EpiStable_IsAbEpiStable -->
<g id="edge39" class="edge">
<title>EpiStable_IsAbEpiStable_ind&#45;&gt;EpiStable_IsAbEpiStable</title>
<path fill="none" stroke="black" d="M790.74,-720.75C836.05,-660.77 951.16,-508.39 996.87,-447.89"/>
<polygon fill="black" stroke="black" points="999.86,-449.74 1003.09,-439.65 994.27,-445.52 999.86,-449.74"/>
</g>
<!-- EpiStable_IsAbEpiStable_rect&#45;&gt;EpiStable_Build_IsAbEpiStable -->
<g id="edge40" class="edge">
<title>EpiStable_IsAbEpiStable_rect&#45;&gt;EpiStable_Build_IsAbEpiStable</title>
<path fill="none" stroke="black" d="M340.33,-728.88C418.81,-675.06 665.33,-506 754.45,-444.89"/>
<polygon fill="black" stroke="black" points="756.55,-447.69 762.81,-439.15 752.59,-441.92 756.55,-447.69"/>
</g>
<!-- EpiStable_IsAbEpiStable_rect&#45;&gt;EpiStable_IsAbEpiStable -->
<g id="edge41" class="edge">
<title>EpiStable_IsAbEpiStable_rect&#45;&gt;EpiStable_IsAbEpiStable</title>
<path fill="none" stroke="black" d="M350.71,-729.54C467.52,-675.65 846.1,-500.96 973.63,-442.11"/>
<polygon fill="black" stroke="black" points="975.11,-445.29 982.72,-437.92 972.17,-438.93 975.11,-445.29"/>
</g>
<!-- EpiStable_IsEpiStable -->
<g id="node39" class="node">
<title>EpiStable_IsEpiStable</title>
<g id="a_node39"><a xlink:href="EpiStable.html#IsEpiStable" xlink:title="IsEpiStable">
<ellipse fill="#e2cdfa" stroke="black" cx="901" cy="-125.56" rx="64.19" ry="18"/>
<text text-anchor="middle" x="901" y="-121.86" font-family="Times,serif" font-size="14.00">IsEpiStable</text>
</a>
</g>
</g>
<!-- EpiStable_Build_IsAbEpiStable&#45;&gt;EpiStable_IsEpiStable -->
<g id="edge42" class="edge">
<title>EpiStable_Build_IsAbEpiStable&#45;&gt;EpiStable_IsEpiStable</title>
<path fill="none" stroke="black" d="M793.62,-403.48C812.67,-354.36 867.7,-212.44 890.7,-153.12"/>
<polygon fill="black" stroke="black" points="894.01,-154.28 894.36,-143.69 887.48,-151.74 894.01,-154.28"/>
</g>
<!-- EpiStable_IsAbEpiStable&#45;&gt;EpiStable_IsEpiStable -->
<g id="edge43" class="edge">
<title>EpiStable_IsAbEpiStable&#45;&gt;EpiStable_IsEpiStable</title>
<path fill="none" stroke="black" d="M1009.32,-403.48C990.11,-354.36 934.59,-212.44 911.39,-153.12"/>
<polygon fill="black" stroke="black" points="914.6,-151.72 907.7,-143.69 908.08,-154.27 914.6,-151.72"/>
</g>
<!-- EpiStable_lift_helper&#45;&gt;EpiStable_Lift -->
<g id="edge44" class="edge">
<title>EpiStable_lift_helper&#45;&gt;EpiStable_Lift</title>
<path fill="none" stroke="black" d="M2168.67,-728.65C2145.71,-675.67 2075.04,-512.64 2047.32,-448.69"/>
<polygon fill="black" stroke="black" points="2050.45,-447.09 2043.26,-439.31 2044.02,-449.87 2050.45,-447.09"/>
</g>
<!-- EpiStable_monic_via_elt&#45;&gt;EpiStable_elt -->
<g id="edge45" class="edge">
<title>EpiStable_monic_via_elt&#45;&gt;EpiStable_elt</title>
<path fill="none" stroke="black" d="M2658.94,-728.91C2609.89,-678.19 2457.46,-521.36 2327,-395.56 2229.18,-301.24 2109.09,-192.35 2059.32,-147.5"/>
<polygon fill="black" stroke="black" points="2061.45,-144.71 2051.67,-140.62 2056.76,-149.92 2061.45,-144.71"/>
</g>
<!-- EpiStable_cat_pb_pr2_epi -->
<g id="node28" class="node">
<title>EpiStable_cat_pb_pr2_epi</title>
<g id="a_node28"><a xlink:href="EpiStable.html#cat_pb_pr2_epi" xlink:title="cat_pb_pr2_epi">
<ellipse fill="#f070d1" stroke="black" cx="2238" cy="-421.56" rx="79.89" ry="18"/>
<text text-anchor="middle" x="2238" y="-417.86" font-family="Times,serif" font-size="14.00">cat_pb_pr2_epi</text>
</a>
</g>
</g>
<!-- EpiStable_elt_lift_epic&#45;&gt;EpiStable_cat_pb_pr2_epi -->
<g id="edge46" class="edge">
<title>EpiStable_elt_lift_epic&#45;&gt;EpiStable_cat_pb_pr2_epi</title>
<path fill="none" stroke="black" d="M2311.81,-728.2C2298.95,-674.95 2260.01,-513.69 2244.49,-449.42"/>
<polygon fill="black" stroke="black" points="2247.87,-448.52 2242.12,-439.62 2241.06,-450.16 2247.87,-448.52"/>
</g>
<!-- EpiStable_elt_lift_epic&#45;&gt;EpiStable_Lift -->
<g id="edge47" class="edge">
<title>EpiStable_elt_lift_epic&#45;&gt;EpiStable_Lift</title>
<path fill="none" stroke="black" d="M2301.34,-728.65C2254.5,-674.61 2108.4,-506.09 2055.43,-444.98"/>
<polygon fill="black" stroke="black" points="2058.07,-442.68 2048.88,-437.42 2052.78,-447.27 2058.07,-442.68"/>
</g>
<!-- EpiStable_cat_pb_pr2_epi&#45;&gt;EpiStable_IsEpiStable -->
<g id="edge48" class="edge">
<title>EpiStable_cat_pb_pr2_epi&#45;&gt;EpiStable_IsEpiStable</title>
<path fill="none" stroke="black" d="M2182.67,-408.4C1966.7,-360.9 1181.37,-188.21 959.65,-139.46"/>
<polygon fill="black" stroke="black" points="960.35,-136.03 949.83,-137.3 958.85,-142.87 960.35,-136.03"/>
</g>
<!-- EpiStable_epic_elt_lift&#45;&gt;EpiStable_Lift -->
<g id="edge49" class="edge">
<title>EpiStable_epic_elt_lift&#45;&gt;EpiStable_Lift</title>
<path fill="none" stroke="black" d="M2036,-728.2C2036,-675.06 2036,-514.35 2036,-449.82"/>
<polygon fill="black" stroke="black" points="2039.5,-449.62 2036,-439.62 2032.5,-449.62 2039.5,-449.62"/>
</g>
<!-- EpiStable_Lift&#45;&gt;EpiStable_elt -->
<g id="edge50" class="edge">
<title>EpiStable_Lift&#45;&gt;EpiStable_elt</title>
<path fill="none" stroke="black" d="M2036,-403.48C2036,-354.57 2036,-213.61 2036,-153.86"/>
<polygon fill="black" stroke="black" points="2039.5,-153.69 2036,-143.69 2032.5,-153.69 2039.5,-153.69"/>
</g>
<!-- EpiStable_stable_epic -->
<g id="node32" class="node">
<title>EpiStable_stable_epic</title>
<g id="a_node32"><a xlink:href="EpiStable.html#stable_epic" xlink:title="stable_epic">
<ellipse fill="#f070d1" stroke="black" cx="1357" cy="-421.56" rx="62.3" ry="18"/>
<ellipse fill="none" stroke="black" cx="1357" cy="-421.56" rx="66.3" ry="22"/>
<ellipse fill="none" stroke="black" cx="1357" cy="-421.56" rx="70.29" ry="26"/>
<text text-anchor="middle" x="1357" y="-417.86" font-family="Times,serif" font-size="14.00">stable_epic</text>
</a>
</g>
</g>
<!-- EpiStable_stable_epic&#45;&gt;EpiStable_IsEpiStable -->
<g id="edge51" class="edge">
<title>EpiStable_stable_epic&#45;&gt;EpiStable_IsEpiStable</title>
<path fill="none" stroke="black" d="M1323.1,-398.7C1238.36,-344.07 1018.13,-202.08 934.17,-147.95"/>
<polygon fill="black" stroke="black" points="935.85,-144.87 925.55,-142.39 932.06,-150.75 935.85,-144.87"/>
</g>
<!-- EpiStable_haspullbacks -->
<g id="node33" class="node">
<title>EpiStable_haspullbacks</title>
<g id="a_node33"><a xlink:href="EpiStable.html#haspullbacks" xlink:title="haspullbacks">
<ellipse fill="#f070d1" stroke="black" cx="1190" cy="-421.56" rx="70.7" ry="18"/>
<ellipse fill="none" stroke="black" cx="1190" cy="-421.56" rx="74.7" ry="22"/>
<ellipse fill="none" stroke="black" cx="1190" cy="-421.56" rx="78.69" ry="26"/>
<text text-anchor="middle" x="1190" y="-417.86" font-family="Times,serif" font-size="14.00">haspullbacks</text>
</a>
</g>
</g>
<!-- EpiStable_haspullbacks&#45;&gt;EpiStable_IsEpiStable -->
<g id="edge52" class="edge">
<title>EpiStable_haspullbacks&#45;&gt;EpiStable_IsEpiStable</title>
<path fill="none" stroke="black" d="M1166.35,-396.5C1112.02,-341.23 978.79,-205.7 924.55,-150.52"/>
<polygon fill="black" stroke="black" points="926.95,-147.97 917.44,-143.29 921.96,-152.87 926.95,-147.97"/>
</g>
<!-- EpiStable_IsEpiStable_sind -->
<g id="node34" class="node">
<title>EpiStable_IsEpiStable_sind</title>
<g id="a_node34"><a xlink:href="EpiStable.html#IsEpiStable_sind" xlink:title="IsEpiStable_sind">
<ellipse fill="#f070d1" stroke="black" cx="175" cy="-421.56" rx="88.29" ry="18"/>
<ellipse fill="none" stroke="black" cx="175" cy="-421.56" rx="92.29" ry="22"/>
<ellipse fill="none" stroke="black" cx="175" cy="-421.56" rx="96.28" ry="26"/>
<text text-anchor="middle" x="175" y="-417.86" font-family="Times,serif" font-size="14.00">IsEpiStable_sind</text>
</a>
</g>
</g>
<!-- EpiStable_Build_IsEpiStable -->
<g id="node38" class="node">
<title>EpiStable_Build_IsEpiStable</title>
<g id="a_node38"><a xlink:href="EpiStable.html#Build_IsEpiStable" xlink:title="Build_IsEpiStable">
<ellipse fill="#7faaff" stroke="black" cx="381" cy="-125.56" rx="92.88" ry="18"/>
<text text-anchor="middle" x="381" y="-121.86" font-family="Times,serif" font-size="14.00">Build_IsEpiStable</text>
</a>
</g>
</g>
<!-- EpiStable_IsEpiStable_sind&#45;&gt;EpiStable_Build_IsEpiStable -->
<g id="edge53" class="edge">
<title>EpiStable_IsEpiStable_sind&#45;&gt;EpiStable_Build_IsEpiStable</title>
<path fill="none" stroke="black" d="M192.39,-395.75C231.15,-340.43 324.31,-207.48 363.33,-151.78"/>
<polygon fill="black" stroke="black" points="366.24,-153.72 369.11,-143.53 360.51,-149.71 366.24,-153.72"/>
</g>
<!-- EpiStable_IsEpiStable_sind&#45;&gt;EpiStable_IsEpiStable -->
<g id="edge54" class="edge">
<title>EpiStable_IsEpiStable_sind&#45;&gt;EpiStable_IsEpiStable</title>
<path fill="none" stroke="black" d="M226.92,-399.54C363.09,-344.39 728.75,-196.32 856.34,-144.65"/>
<polygon fill="black" stroke="black" points="857.86,-147.81 865.82,-140.81 855.24,-141.32 857.86,-147.81"/>
</g>
<!-- EpiStable_IsEpiStable_rec -->
<g id="node35" class="node">
<title>EpiStable_IsEpiStable_rec</title>
<g id="a_node35"><a xlink:href="EpiStable.html#IsEpiStable_rec" xlink:title="IsEpiStable_rec">
<ellipse fill="#f070d1" stroke="black" cx="107" cy="-746.56" rx="83.37" ry="18"/>
<ellipse fill="none" stroke="black" cx="107" cy="-746.56" rx="87.38" ry="22"/>
<ellipse fill="none" stroke="black" cx="107" cy="-746.56" rx="91.39" ry="26"/>
<text text-anchor="middle" x="107" y="-742.86" font-family="Times,serif" font-size="14.00">IsEpiStable_rec</text>
</a>
</g>
</g>
<!-- EpiStable_IsEpiStable_rect -->
<g id="node37" class="node">
<title>EpiStable_IsEpiStable_rect</title>
<g id="a_node37"><a xlink:href="EpiStable.html#IsEpiStable_rect" xlink:title="IsEpiStable_rect">
<ellipse fill="#f070d1" stroke="black" cx="577" cy="-421.56" rx="87.18" ry="18"/>
<text text-anchor="middle" x="577" y="-417.86" font-family="Times,serif" font-size="14.00">IsEpiStable_rect</text>
</a>
</g>
</g>
<!-- EpiStable_IsEpiStable_rec&#45;&gt;EpiStable_IsEpiStable_rect -->
<g id="edge55" class="edge">
<title>EpiStable_IsEpiStable_rec&#45;&gt;EpiStable_IsEpiStable_rect</title>
<path fill="none" stroke="black" d="M140.8,-722.33C228,-662.41 459.66,-503.2 544.92,-444.61"/>
<polygon fill="black" stroke="black" points="546.92,-447.48 553.18,-438.93 542.95,-441.71 546.92,-447.48"/>
</g>
<!-- EpiStable_IsEpiStable_ind -->
<g id="node36" class="node">
<title>EpiStable_IsEpiStable_ind</title>
<g id="a_node36"><a xlink:href="EpiStable.html#IsEpiStable_ind" xlink:title="IsEpiStable_ind">
<ellipse fill="#7fffd4" stroke="black" cx="381" cy="-421.56" rx="83.37" ry="18"/>
<ellipse fill="none" stroke="black" cx="381" cy="-421.56" rx="87.38" ry="22"/>
<ellipse fill="none" stroke="black" cx="381" cy="-421.56" rx="91.39" ry="26"/>
<text text-anchor="middle" x="381" y="-417.86" font-family="Times,serif" font-size="14.00">IsEpiStable_ind</text>
</a>
</g>
</g>
<!-- EpiStable_IsEpiStable_ind&#45;&gt;EpiStable_Build_IsEpiStable -->
<g id="edge56" class="edge">
<title>EpiStable_IsEpiStable_ind&#45;&gt;EpiStable_Build_IsEpiStable</title>
<path fill="none" stroke="black" d="M381,-395.5C381,-340.7 381,-210.64 381,-153.87"/>
<polygon fill="black" stroke="black" points="384.5,-153.84 381,-143.84 377.5,-153.84 384.5,-153.84"/>
</g>
<!-- EpiStable_IsEpiStable_ind&#45;&gt;EpiStable_IsEpiStable -->
<g id="edge57" class="edge">
<title>EpiStable_IsEpiStable_ind&#45;&gt;EpiStable_IsEpiStable</title>
<path fill="none" stroke="black" d="M420.94,-397.98C519.1,-342.48 770.99,-200.07 864.95,-146.95"/>
<polygon fill="black" stroke="black" points="866.81,-149.91 873.8,-141.94 863.37,-143.82 866.81,-149.91"/>
</g>
<!-- EpiStable_IsEpiStable_rect&#45;&gt;EpiStable_Build_IsEpiStable -->
<g id="edge58" class="edge">
<title>EpiStable_IsEpiStable_rect&#45;&gt;EpiStable_Build_IsEpiStable</title>
<path fill="none" stroke="black" d="M565.62,-403.48C532.67,-354.06 437.08,-210.68 397.98,-152.03"/>
<polygon fill="black" stroke="black" points="400.88,-150.07 392.42,-143.69 395.05,-153.95 400.88,-150.07"/>
</g>
<!-- EpiStable_IsEpiStable_rect&#45;&gt;EpiStable_IsEpiStable -->
<g id="edge59" class="edge">
<title>EpiStable_IsEpiStable_rect&#45;&gt;EpiStable_IsEpiStable</title>
<path fill="none" stroke="black" d="M595.35,-403.91C650.04,-354.29 812.05,-207.28 875.3,-149.89"/>
<polygon fill="black" stroke="black" points="877.8,-152.34 882.85,-143.03 873.1,-147.16 877.8,-152.34"/>
</g>
</g>
</svg>
