<?xml version="1.0" encoding="UTF-8" standalone="no"?>
<!DOCTYPE svg PUBLIC "-//W3C//DTD SVG 1.1//EN"
 "http://www.w3.org/Graphics/SVG/1.1/DTD/svg11.dtd">
<!-- Generated by graphviz version 2.43.0 (0)
 -->
<!-- Title: HoTT_Truncations_Core Pages: 1 -->
<svg width="2951pt" height="1475pt"
 viewBox="0.00 0.00 2951.31 1474.50" xmlns="http://www.w3.org/2000/svg" xmlns:xlink="http://www.w3.org/1999/xlink">
<g id="graph0" class="graph" transform="scale(1 1) rotate(0) translate(4 1470.5)">
<title>HoTT_Truncations_Core</title>
<polygon fill="white" stroke="transparent" points="-4,4 -4,-1470.5 2947.31,-1470.5 2947.31,4 -4,4"/>
<g id="clust1" class="cluster">
<title>cluster_Core</title>
<polygon fill="#ffffc3" stroke="black" points="18.31,-17.1 18.31,-1449.4 2935.31,-1449.4 2935.31,-17.1 18.31,-17.1"/>
<text text-anchor="middle" x="43.31" y="-1434.2" font-family="Times,serif" font-size="14.00">Core</text>
</g>
<g id="clust2" class="cluster">
<title>cluster_Core_Trunc</title>
<polygon fill="#ffffa3" stroke="black" points="1895.31,-34.2 1895.31,-348.45 2235.31,-348.45 2235.31,-34.2 1895.31,-34.2"/>
<text text-anchor="middle" x="1924.31" y="-333.25" font-family="Times,serif" font-size="14.00">Trunc</text>
</g>
<!-- Core_Trunc_Trunc_ind -->
<g id="node1" class="node">
<title>Core_Trunc_Trunc_ind</title>
<g id="a_node1"><a xlink:href="Core.html#Trunc.Trunc_ind" xlink:title="Trunc_ind">
<ellipse fill="#f070d1" stroke="black" cx="1960.31" cy="-244.1" rx="56.59" ry="18"/>
<text text-anchor="middle" x="1960.31" y="-240.4" font-family="Times,serif" font-size="14.00">Trunc_ind</text>
</a>
</g>
</g>
<!-- Core_Trunc_tr -->
<g id="node3" class="node">
<title>Core_Trunc_tr</title>
<g id="a_node3"><a xlink:href="Core.html#Trunc.tr" xlink:title="tr">
<ellipse fill="#7faaff" stroke="black" cx="1960.31" cy="-90.1" rx="27" ry="18"/>
<text text-anchor="middle" x="1960.31" y="-86.4" font-family="Times,serif" font-size="14.00">tr</text>
</a>
</g>
</g>
<!-- Core_Trunc_Trunc_ind&#45;&gt;Core_Trunc_tr -->
<g id="edge1" class="edge">
<title>Core_Trunc_Trunc_ind&#45;&gt;Core_Trunc_tr</title>
<path fill="none" stroke="black" d="M1960.31,-225.96C1960.31,-199.85 1960.31,-149.85 1960.31,-118.61"/>
<polygon fill="black" stroke="black" points="1963.81,-118.41 1960.31,-108.41 1956.81,-118.41 1963.81,-118.41"/>
</g>
<!-- Core_Trunc_Trunc -->
<g id="node4" class="node">
<title>Core_Trunc_Trunc</title>
<g id="a_node4"><a xlink:href="Core.html#Trunc.Trunc" xlink:title="Trunc">
<ellipse fill="#e2cdfa" stroke="black" cx="2087.31" cy="-90.1" rx="37.89" ry="18"/>
<text text-anchor="middle" x="2087.31" y="-86.4" font-family="Times,serif" font-size="14.00">Trunc</text>
</a>
</g>
</g>
<!-- Core_Trunc_Trunc_ind&#45;&gt;Core_Trunc_Trunc -->
<g id="edge2" class="edge">
<title>Core_Trunc_Trunc_ind&#45;&gt;Core_Trunc_Trunc</title>
<path fill="none" stroke="black" d="M1974.15,-226.55C1996.69,-199.56 2041.44,-146.01 2067.4,-114.94"/>
<polygon fill="black" stroke="black" points="2070.15,-117.1 2073.88,-107.18 2064.78,-112.61 2070.15,-117.1"/>
</g>
<!-- Core_Trunc_istrunc_truncation -->
<g id="node2" class="node">
<title>Core_Trunc_istrunc_truncation</title>
<g id="a_node2"><a xlink:href="Core.html#Trunc.istrunc_truncation" xlink:title="istrunc_truncation">
<ellipse fill="#facdef" stroke="black" cx="2131.31" cy="-244.1" rx="96.38" ry="18"/>
<text text-anchor="middle" x="2131.31" y="-240.4" font-family="Times,serif" font-size="14.00">istrunc_truncation</text>
</a>
</g>
</g>
<!-- Core_Trunc_istrunc_truncation&#45;&gt;Core_Trunc_Trunc -->
<g id="edge3" class="edge">
<title>Core_Trunc_istrunc_truncation&#45;&gt;Core_Trunc_Trunc</title>
<path fill="none" stroke="black" d="M2126.35,-225.96C2118.76,-199.73 2104.19,-149.41 2095.16,-118.2"/>
<polygon fill="black" stroke="black" points="2098.47,-117.05 2092.32,-108.41 2091.74,-118.99 2098.47,-117.05"/>
</g>
<!-- Core_Trunc_swap -->
<g id="node5" class="node">
<title>Core_Trunc_swap</title>
<g id="a_node5"><a xlink:href="Core.html#Trunc_swap" xlink:title="Trunc_swap">
<ellipse fill="#f070d1" stroke="black" cx="1508.31" cy="-1327.1" rx="65.77" ry="18"/>
<ellipse fill="none" stroke="black" cx="1508.31" cy="-1327.1" rx="69.78" ry="22"/>
<ellipse fill="none" stroke="black" cx="1508.31" cy="-1327.1" rx="73.79" ry="26"/>
<text text-anchor="middle" x="1508.31" y="-1323.4" font-family="Times,serif" font-size="14.00">Trunc_swap</text>
</a>
</g>
</g>
<!-- Core_Trunc_min -->
<g id="node6" class="node">
<title>Core_Trunc_min</title>
<g id="a_node6"><a xlink:href="Core.html#Trunc_min" xlink:title="Trunc_min">
<ellipse fill="#f070d1" stroke="black" cx="1508.31" cy="-1139.1" rx="59.59" ry="18"/>
<text text-anchor="middle" x="1508.31" y="-1135.4" font-family="Times,serif" font-size="14.00">Trunc_min</text>
</a>
</g>
</g>
<!-- Core_Trunc_swap&#45;&gt;Core_Trunc_min -->
<g id="edge4" class="edge">
<title>Core_Trunc_swap&#45;&gt;Core_Trunc_min</title>
<path fill="none" stroke="black" d="M1508.31,-1301.02C1508.31,-1266.24 1508.31,-1203.6 1508.31,-1167.59"/>
<polygon fill="black" stroke="black" points="1511.81,-1167.33 1508.31,-1157.33 1504.81,-1167.33 1511.81,-1167.33"/>
</g>
<!-- Core_O_leq_Tr_leq -->
<g id="node7" class="node">
<title>Core_O_leq_Tr_leq</title>
<g id="a_node7"><a xlink:href="Core.html#O_leq_Tr_leq" xlink:title="O_leq_Tr_leq">
<ellipse fill="#f070d1" stroke="black" cx="2207.31" cy="-951.1" rx="69.59" ry="18"/>
<text text-anchor="middle" x="2207.31" y="-947.4" font-family="Times,serif" font-size="14.00">O_leq_Tr_leq</text>
</a>
</g>
</g>
<!-- Core_Trunc_min&#45;&gt;Core_O_leq_Tr_leq -->
<g id="edge5" class="edge">
<title>Core_Trunc_min&#45;&gt;Core_O_leq_Tr_leq</title>
<path fill="none" stroke="black" d="M1551.51,-1126.61C1672.6,-1094.39 2015.3,-1003.2 2150.99,-967.09"/>
<polygon fill="black" stroke="black" points="2152.01,-970.44 2160.78,-964.48 2150.21,-963.67 2152.01,-970.44"/>
</g>
<!-- Core_Trunc_functor -->
<g id="node33" class="node">
<title>Core_Trunc_functor</title>
<g id="a_node33"><a xlink:href="Core.html#Trunc_functor" xlink:title="Trunc_functor">
<ellipse fill="#f070d1" stroke="black" cx="655.31" cy="-951.1" rx="75.29" ry="18"/>
<text text-anchor="middle" x="655.31" y="-947.4" font-family="Times,serif" font-size="14.00">Trunc_functor</text>
</a>
</g>
</g>
<!-- Core_Trunc_min&#45;&gt;Core_Trunc_functor -->
<g id="edge6" class="edge">
<title>Core_Trunc_min&#45;&gt;Core_Trunc_functor</title>
<path fill="none" stroke="black" d="M1473.53,-1124.39C1462.68,-1120.41 1450.59,-1116.29 1439.31,-1113.1 1303.09,-1074.66 887.14,-995.43 722.97,-964.69"/>
<polygon fill="black" stroke="black" points="723.47,-961.22 713,-962.82 722.18,-968.1 723.47,-961.22"/>
</g>
<!-- Core_equiv_tr -->
<g id="node35" class="node">
<title>Core_equiv_tr</title>
<g id="a_node35"><a xlink:href="Core.html#equiv_tr" xlink:title="equiv_tr">
<ellipse fill="#f070d1" stroke="black" cx="1209.31" cy="-951.1" rx="48.99" ry="18"/>
<text text-anchor="middle" x="1209.31" y="-947.4" font-family="Times,serif" font-size="14.00">equiv_tr</text>
</a>
</g>
</g>
<!-- Core_Trunc_min&#45;&gt;Core_equiv_tr -->
<g id="edge7" class="edge">
<title>Core_Trunc_min&#45;&gt;Core_equiv_tr</title>
<path fill="none" stroke="black" d="M1483.33,-1122.56C1429.4,-1089.01 1302.07,-1009.8 1241.89,-972.37"/>
<polygon fill="black" stroke="black" points="1243.52,-969.26 1233.18,-966.95 1239.82,-975.2 1243.52,-969.26"/>
</g>
<!-- Core_Tr -->
<g id="node38" class="node">
<title>Core_Tr</title>
<g id="a_node38"><a xlink:href="Core.html#Tr" xlink:title="Tr">
<ellipse fill="#f070d1" stroke="black" cx="1677.31" cy="-404.1" rx="27" ry="18"/>
<text text-anchor="middle" x="1677.31" y="-400.4" font-family="Times,serif" font-size="14.00">Tr</text>
</a>
</g>
</g>
<!-- Core_O_leq_Tr_leq&#45;&gt;Core_Tr -->
<g id="edge8" class="edge">
<title>Core_O_leq_Tr_leq&#45;&gt;Core_Tr</title>
<path fill="none" stroke="black" d="M2239.31,-935.08C2366.68,-874.36 2826.71,-645.68 2742.31,-549.1 2672.87,-469.64 1894.37,-418.16 1714.32,-407.27"/>
<polygon fill="black" stroke="black" points="1714.48,-403.77 1704.28,-406.66 1714.06,-410.76 1714.48,-403.77"/>
</g>
<!-- Core_isembedding_precompose_surjection_hset -->
<g id="node8" class="node">
<title>Core_isembedding_precompose_surjection_hset</title>
<g id="a_node8"><a xlink:href="Core.html#isembedding_precompose_surjection_hset" xlink:title="isembedding_precompose_surjection_hset">
<ellipse fill="#f070d1" stroke="black" cx="2208.31" cy="-763.1" rx="206.06" ry="18"/>
<ellipse fill="none" stroke="black" cx="2208.31" cy="-763.1" rx="210.06" ry="22"/>
<ellipse fill="none" stroke="black" cx="2208.31" cy="-763.1" rx="214.06" ry="26"/>
<text text-anchor="middle" x="2208.31" y="-759.4" font-family="Times,serif" font-size="14.00">isembedding_precompose_surjection_hset</text>
</a>
</g>
</g>
<!-- Core_inO_tr_istrunc -->
<g id="node24" class="node">
<title>Core_inO_tr_istrunc</title>
<g id="a_node24"><a xlink:href="Core.html#inO_tr_istrunc" xlink:title="inO_tr_istrunc">
<ellipse fill="#f070d1" stroke="black" cx="1882.31" cy="-575.1" rx="76.89" ry="18"/>
<text text-anchor="middle" x="1882.31" y="-571.4" font-family="Times,serif" font-size="14.00">inO_tr_istrunc</text>
</a>
</g>
</g>
<!-- Core_isembedding_precompose_surjection_hset&#45;&gt;Core_inO_tr_istrunc -->
<g id="edge9" class="edge">
<title>Core_isembedding_precompose_surjection_hset&#45;&gt;Core_inO_tr_istrunc</title>
<path fill="none" stroke="black" d="M2165.36,-737.59C2100.73,-700.72 1979.59,-631.61 1918.91,-596.99"/>
<polygon fill="black" stroke="black" points="1920.48,-593.85 1910.06,-591.94 1917.01,-599.93 1920.48,-593.85"/>
</g>
<!-- Core_isequiv_surj_emb -->
<g id="node9" class="node">
<title>Core_isequiv_surj_emb</title>
<g id="a_node9"><a xlink:href="Core.html#isequiv_surj_emb" xlink:title="isequiv_surj_emb">
<ellipse fill="#f070d1" stroke="black" cx="2634.31" cy="-575.1" rx="90.98" ry="18"/>
<ellipse fill="none" stroke="black" cx="2634.31" cy="-575.1" rx="94.98" ry="22"/>
<ellipse fill="none" stroke="black" cx="2634.31" cy="-575.1" rx="98.98" ry="26"/>
<text text-anchor="middle" x="2634.31" y="-571.4" font-family="Times,serif" font-size="14.00">isequiv_surj_emb</text>
</a>
</g>
</g>
<!-- Core_isequiv_surj_emb&#45;&gt;Core_Tr -->
<g id="edge10" class="edge">
<title>Core_isequiv_surj_emb&#45;&gt;Core_Tr</title>
<path fill="none" stroke="black" d="M2562.99,-556.96C2550.78,-554.21 2538.2,-551.48 2526.31,-549.1 2212.91,-486.31 1830.83,-427.96 1713.37,-410.43"/>
<polygon fill="black" stroke="black" points="1713.88,-406.97 1703.47,-408.96 1712.85,-413.89 1713.88,-406.97"/>
</g>
<!-- Core_issurj_retr -->
<g id="node10" class="node">
<title>Core_issurj_retr</title>
<g id="a_node10"><a xlink:href="Core.html#issurj_retr" xlink:title="issurj_retr">
<ellipse fill="#f070d1" stroke="black" cx="2450.31" cy="-575.1" rx="59.27" ry="18"/>
<ellipse fill="none" stroke="black" cx="2450.31" cy="-575.1" rx="63.28" ry="22"/>
<ellipse fill="none" stroke="black" cx="2450.31" cy="-575.1" rx="67.29" ry="26"/>
<text text-anchor="middle" x="2450.31" y="-571.4" font-family="Times,serif" font-size="14.00">issurj_retr</text>
</a>
</g>
</g>
<!-- Core_issurj_retr&#45;&gt;Core_Tr -->
<g id="edge11" class="edge">
<title>Core_issurj_retr&#45;&gt;Core_Tr</title>
<path fill="none" stroke="black" d="M2401.5,-557.14C2392.51,-554.27 2383.17,-551.47 2374.31,-549.1 2124.14,-482.34 1816.51,-428.39 1713.11,-411.01"/>
<polygon fill="black" stroke="black" points="1713.63,-407.55 1703.19,-409.35 1712.48,-414.45 1713.63,-407.55"/>
</g>
<!-- Core_cancelR_issurjection -->
<g id="node11" class="node">
<title>Core_cancelR_issurjection</title>
<g id="a_node11"><a xlink:href="Core.html#cancelR_issurjection" xlink:title="cancelR_issurjection">
<ellipse fill="#f070d1" stroke="black" cx="797.31" cy="-1139.1" rx="105.1" ry="18"/>
<ellipse fill="none" stroke="black" cx="797.31" cy="-1139.1" rx="109.09" ry="22"/>
<ellipse fill="none" stroke="black" cx="797.31" cy="-1139.1" rx="113.08" ry="26"/>
<text text-anchor="middle" x="797.31" y="-1135.4" font-family="Times,serif" font-size="14.00">cancelR_issurjection</text>
</a>
</g>
</g>
<!-- Core_cancelR_issurjection&#45;&gt;Core_Trunc_functor -->
<g id="edge12" class="edge">
<title>Core_cancelR_issurjection&#45;&gt;Core_Trunc_functor</title>
<path fill="none" stroke="black" d="M778.46,-1113.4C751.29,-1077.81 701.41,-1012.49 674.22,-976.87"/>
<polygon fill="black" stroke="black" points="676.99,-974.73 668.14,-968.9 671.42,-978.97 676.99,-974.73"/>
</g>
<!-- Core_equiv_merely_issurjection -->
<g id="node12" class="node">
<title>Core_equiv_merely_issurjection</title>
<g id="a_node12"><a xlink:href="Core.html#equiv_merely_issurjection" xlink:title="equiv_merely_issurjection">
<ellipse fill="#f070d1" stroke="black" cx="1435.31" cy="-951.1" rx="131.09" ry="18"/>
<ellipse fill="none" stroke="black" cx="1435.31" cy="-951.1" rx="135.08" ry="22"/>
<ellipse fill="none" stroke="black" cx="1435.31" cy="-951.1" rx="139.08" ry="26"/>
<text text-anchor="middle" x="1435.31" y="-947.4" font-family="Times,serif" font-size="14.00">equiv_merely_issurjection</text>
</a>
</g>
</g>
<!-- Core_iff_merely_issurjection -->
<g id="node13" class="node">
<title>Core_iff_merely_issurjection</title>
<g id="a_node13"><a xlink:href="Core.html#iff_merely_issurjection" xlink:title="iff_merely_issurjection">
<ellipse fill="#f070d1" stroke="black" cx="1435.31" cy="-763.1" rx="115.08" ry="18"/>
<text text-anchor="middle" x="1435.31" y="-759.4" font-family="Times,serif" font-size="14.00">iff_merely_issurjection</text>
</a>
</g>
</g>
<!-- Core_equiv_merely_issurjection&#45;&gt;Core_iff_merely_issurjection -->
<g id="edge13" class="edge">
<title>Core_equiv_merely_issurjection&#45;&gt;Core_iff_merely_issurjection</title>
<path fill="none" stroke="black" d="M1435.31,-925.02C1435.31,-890.24 1435.31,-827.6 1435.31,-791.59"/>
<polygon fill="black" stroke="black" points="1438.81,-791.33 1435.31,-781.33 1431.81,-791.33 1438.81,-791.33"/>
</g>
<!-- Core_merely -->
<g id="node20" class="node">
<title>Core_merely</title>
<g id="a_node20"><a xlink:href="Core.html#merely" xlink:title="merely">
<ellipse fill="#f070d1" stroke="black" cx="1620.31" cy="-575.1" rx="42.79" ry="18"/>
<text text-anchor="middle" x="1620.31" y="-571.4" font-family="Times,serif" font-size="14.00">merely</text>
</a>
</g>
</g>
<!-- Core_iff_merely_issurjection&#45;&gt;Core_merely -->
<g id="edge14" class="edge">
<title>Core_iff_merely_issurjection&#45;&gt;Core_merely</title>
<path fill="none" stroke="black" d="M1452.06,-745.27C1485.19,-711.96 1559.17,-637.57 1597.03,-599.51"/>
<polygon fill="black" stroke="black" points="1599.96,-601.53 1604.53,-591.97 1595,-596.59 1599.96,-601.53"/>
</g>
<!-- Core_BuildIsSurjection -->
<g id="node14" class="node">
<title>Core_BuildIsSurjection</title>
<g id="a_node14"><a xlink:href="Core.html#BuildIsSurjection" xlink:title="BuildIsSurjection">
<ellipse fill="#f070d1" stroke="black" cx="1203.31" cy="-763.1" rx="90.98" ry="18"/>
<ellipse fill="none" stroke="black" cx="1203.31" cy="-763.1" rx="94.98" ry="22"/>
<ellipse fill="none" stroke="black" cx="1203.31" cy="-763.1" rx="98.98" ry="26"/>
<text text-anchor="middle" x="1203.31" y="-759.4" font-family="Times,serif" font-size="14.00">BuildIsSurjection</text>
</a>
</g>
</g>
<!-- Core_BuildIsSurjection&#45;&gt;Core_merely -->
<g id="edge15" class="edge">
<title>Core_BuildIsSurjection&#45;&gt;Core_merely</title>
<path fill="none" stroke="black" d="M1253.43,-740.61C1323.99,-710.22 1456.5,-652.62 1568.31,-601.1 1573.43,-598.74 1578.81,-596.22 1584.09,-593.7"/>
<polygon fill="black" stroke="black" points="1585.89,-596.72 1593.4,-589.25 1582.87,-590.41 1585.89,-596.72"/>
</g>
<!-- Core_merely_inhabited_iff_inhabited_stable -->
<g id="node15" class="node">
<title>Core_merely_inhabited_iff_inhabited_stable</title>
<g id="a_node15"><a xlink:href="Core.html#merely_inhabited_iff_inhabited_stable" xlink:title="merely_inhabited_iff_inhabited_stable">
<ellipse fill="#f070d1" stroke="black" cx="2171.31" cy="-575.1" rx="185.77" ry="18"/>
<ellipse fill="none" stroke="black" cx="2171.31" cy="-575.1" rx="189.77" ry="22"/>
<ellipse fill="none" stroke="black" cx="2171.31" cy="-575.1" rx="193.77" ry="26"/>
<text text-anchor="middle" x="2171.31" y="-571.4" font-family="Times,serif" font-size="14.00">merely_inhabited_iff_inhabited_stable</text>
</a>
</g>
</g>
<!-- Core_merely_inhabited_iff_inhabited_stable&#45;&gt;Core_Tr -->
<g id="edge16" class="edge">
<title>Core_merely_inhabited_iff_inhabited_stable&#45;&gt;Core_Tr</title>
<path fill="none" stroke="black" d="M2102.88,-550.69C1995.17,-513.84 1790.14,-443.7 1710.29,-416.38"/>
<polygon fill="black" stroke="black" points="1711.35,-413.05 1700.75,-413.12 1709.08,-419.67 1711.35,-413.05"/>
</g>
<!-- Core_contr_inhab_prop -->
<g id="node16" class="node">
<title>Core_contr_inhab_prop</title>
<g id="a_node16"><a xlink:href="Core.html#contr_inhab_prop" xlink:title="contr_inhab_prop">
<ellipse fill="#f070d1" stroke="black" cx="1877.31" cy="-763.1" rx="90.98" ry="18"/>
<ellipse fill="none" stroke="black" cx="1877.31" cy="-763.1" rx="94.98" ry="22"/>
<ellipse fill="none" stroke="black" cx="1877.31" cy="-763.1" rx="98.98" ry="26"/>
<text text-anchor="middle" x="1877.31" y="-759.4" font-family="Times,serif" font-size="14.00">contr_inhab_prop</text>
</a>
</g>
</g>
<!-- Core_contr_inhab_prop&#45;&gt;Core_merely -->
<g id="edge17" class="edge">
<title>Core_contr_inhab_prop&#45;&gt;Core_merely</title>
<path fill="none" stroke="black" d="M1844.76,-738.55C1794.18,-701.93 1697.5,-631.97 1649.23,-597.03"/>
<polygon fill="black" stroke="black" points="1651.23,-594.16 1641.08,-591.13 1647.13,-599.83 1651.23,-594.16"/>
</g>
<!-- Core_contr_inhab_prop&#45;&gt;Core_inO_tr_istrunc -->
<g id="edge18" class="edge">
<title>Core_contr_inhab_prop&#45;&gt;Core_inO_tr_istrunc</title>
<path fill="none" stroke="black" d="M1877.99,-737.02C1878.92,-702.24 1880.61,-639.6 1881.57,-603.59"/>
<polygon fill="black" stroke="black" points="1885.08,-603.42 1881.85,-593.33 1878.08,-603.23 1885.08,-603.42"/>
</g>
<!-- Core_himage -->
<g id="node17" class="node">
<title>Core_himage</title>
<g id="a_node17"><a xlink:href="Core.html#himage" xlink:title="himage">
<ellipse fill="#f070d1" stroke="black" cx="1734.31" cy="-575.1" rx="44.72" ry="18"/>
<ellipse fill="none" stroke="black" cx="1734.31" cy="-575.1" rx="48.7" ry="22"/>
<ellipse fill="none" stroke="black" cx="1734.31" cy="-575.1" rx="52.69" ry="26"/>
<text text-anchor="middle" x="1734.31" y="-571.4" font-family="Times,serif" font-size="14.00">himage</text>
</a>
</g>
</g>
<!-- Core_himage&#45;&gt;Core_Tr -->
<g id="edge19" class="edge">
<title>Core_himage&#45;&gt;Core_Tr</title>
<path fill="none" stroke="black" d="M1725.9,-549.17C1715.28,-517.68 1697.09,-463.75 1686.24,-431.57"/>
<polygon fill="black" stroke="black" points="1689.5,-430.29 1682.99,-421.93 1682.87,-432.53 1689.5,-430.29"/>
</g>
<!-- Core_hor -->
<g id="node18" class="node">
<title>Core_hor</title>
<g id="a_node18"><a xlink:href="Core.html#hor" xlink:title="hor">
<ellipse fill="#f070d1" stroke="black" cx="1725.31" cy="-763.1" rx="27" ry="18"/>
<ellipse fill="none" stroke="black" cx="1725.31" cy="-763.1" rx="31" ry="22"/>
<ellipse fill="none" stroke="black" cx="1725.31" cy="-763.1" rx="35" ry="26"/>
<text text-anchor="middle" x="1725.31" y="-759.4" font-family="Times,serif" font-size="14.00">hor</text>
</a>
</g>
</g>
<!-- Core_hor&#45;&gt;Core_merely -->
<g id="edge20" class="edge">
<title>Core_hor&#45;&gt;Core_merely</title>
<path fill="none" stroke="black" d="M1712.23,-738.92C1692.49,-703.97 1655.26,-638.01 1634.76,-601.69"/>
<polygon fill="black" stroke="black" points="1637.65,-599.69 1629.69,-592.7 1631.55,-603.13 1637.65,-599.69"/>
</g>
<!-- Core_hexists -->
<g id="node19" class="node">
<title>Core_hexists</title>
<g id="a_node19"><a xlink:href="Core.html#hexists" xlink:title="hexists">
<ellipse fill="#f070d1" stroke="black" cx="1620.31" cy="-763.1" rx="44.36" ry="18"/>
<ellipse fill="none" stroke="black" cx="1620.31" cy="-763.1" rx="48.38" ry="22"/>
<ellipse fill="none" stroke="black" cx="1620.31" cy="-763.1" rx="52.39" ry="26"/>
<text text-anchor="middle" x="1620.31" y="-759.4" font-family="Times,serif" font-size="14.00">hexists</text>
</a>
</g>
</g>
<!-- Core_hexists&#45;&gt;Core_merely -->
<g id="edge21" class="edge">
<title>Core_hexists&#45;&gt;Core_merely</title>
<path fill="none" stroke="black" d="M1620.31,-737.02C1620.31,-702.24 1620.31,-639.6 1620.31,-603.59"/>
<polygon fill="black" stroke="black" points="1623.81,-603.33 1620.31,-593.33 1616.81,-603.33 1623.81,-603.33"/>
</g>
<!-- Core_merely&#45;&gt;Core_Tr -->
<g id="edge22" class="edge">
<title>Core_merely&#45;&gt;Core_Tr</title>
<path fill="none" stroke="black" d="M1626.09,-556.97C1636.09,-527.33 1656.66,-466.33 1668.47,-431.33"/>
<polygon fill="black" stroke="black" points="1671.81,-432.38 1671.69,-421.78 1665.17,-430.14 1671.81,-432.38"/>
</g>
<!-- Core_istruncmap_mapinO_tr -->
<g id="node21" class="node">
<title>Core_istruncmap_mapinO_tr</title>
<g id="a_node21"><a xlink:href="Core.html#istruncmap_mapinO_tr" xlink:title="istruncmap_mapinO_tr">
<ellipse fill="#f070d1" stroke="black" cx="1435.31" cy="-575.1" rx="116.19" ry="18"/>
<ellipse fill="none" stroke="black" cx="1435.31" cy="-575.1" rx="120.18" ry="22"/>
<ellipse fill="none" stroke="black" cx="1435.31" cy="-575.1" rx="124.18" ry="26"/>
<text text-anchor="middle" x="1435.31" y="-571.4" font-family="Times,serif" font-size="14.00">istruncmap_mapinO_tr</text>
</a>
</g>
</g>
<!-- Core_istruncmap_mapinO_tr&#45;&gt;Core_Tr -->
<g id="edge23" class="edge">
<title>Core_istruncmap_mapinO_tr&#45;&gt;Core_Tr</title>
<path fill="none" stroke="black" d="M1469.73,-550.07C1518.56,-515.97 1606.9,-454.27 1650.91,-423.54"/>
<polygon fill="black" stroke="black" points="1653.16,-426.24 1659.35,-417.64 1649.15,-420.5 1653.16,-426.24"/>
</g>
<!-- Core_mapinO_tr_istruncmap -->
<g id="node22" class="node">
<title>Core_mapinO_tr_istruncmap</title>
<g id="a_node22"><a xlink:href="Core.html#mapinO_tr_istruncmap" xlink:title="mapinO_tr_istruncmap">
<ellipse fill="#f070d1" stroke="black" cx="1168.31" cy="-575.1" rx="116.19" ry="18"/>
<ellipse fill="none" stroke="black" cx="1168.31" cy="-575.1" rx="120.18" ry="22"/>
<ellipse fill="none" stroke="black" cx="1168.31" cy="-575.1" rx="124.18" ry="26"/>
<text text-anchor="middle" x="1168.31" y="-571.4" font-family="Times,serif" font-size="14.00">mapinO_tr_istruncmap</text>
</a>
</g>
</g>
<!-- Core_mapinO_tr_istruncmap&#45;&gt;Core_Tr -->
<g id="edge24" class="edge">
<title>Core_mapinO_tr_istruncmap&#45;&gt;Core_Tr</title>
<path fill="none" stroke="black" d="M1232.52,-552.78C1341.81,-516.5 1560.27,-443.96 1643.79,-416.23"/>
<polygon fill="black" stroke="black" points="1645.13,-419.48 1653.52,-413 1642.92,-412.83 1645.13,-419.48"/>
</g>
<!-- Core_istrunc_inO_tr -->
<g id="node23" class="node">
<title>Core_istrunc_inO_tr</title>
<g id="a_node23"><a xlink:href="Core.html#istrunc_inO_tr" xlink:title="istrunc_inO_tr">
<ellipse fill="#f070d1" stroke="black" cx="941.31" cy="-575.1" rx="76.87" ry="18"/>
<ellipse fill="none" stroke="black" cx="941.31" cy="-575.1" rx="80.88" ry="22"/>
<ellipse fill="none" stroke="black" cx="941.31" cy="-575.1" rx="84.89" ry="26"/>
<text text-anchor="middle" x="941.31" y="-571.4" font-family="Times,serif" font-size="14.00">istrunc_inO_tr</text>
</a>
</g>
</g>
<!-- Core_istrunc_inO_tr&#45;&gt;Core_Tr -->
<g id="edge25" class="edge">
<title>Core_istrunc_inO_tr&#45;&gt;Core_Tr</title>
<path fill="none" stroke="black" d="M1003.16,-557.28C1013.87,-554.48 1024.9,-551.65 1035.31,-549.1 1265.73,-492.64 1544.82,-433.02 1641.96,-412.52"/>
<polygon fill="black" stroke="black" points="1642.78,-415.93 1651.84,-410.44 1641.34,-409.08 1642.78,-415.93"/>
</g>
<!-- Core_inO_tr_istrunc&#45;&gt;Core_Tr -->
<g id="edge26" class="edge">
<title>Core_inO_tr_istrunc&#45;&gt;Core_Tr</title>
<path fill="none" stroke="black" d="M1862.28,-557.59C1824.39,-526.35 1742.36,-458.73 1701.48,-425.03"/>
<polygon fill="black" stroke="black" points="1703.59,-422.23 1693.65,-418.57 1699.14,-427.63 1703.59,-422.23"/>
</g>
<!-- Core_is1functor_Tr -->
<g id="node25" class="node">
<title>Core_is1functor_Tr</title>
<g id="a_node25"><a xlink:href="Core.html#is1functor_Tr" xlink:title="is1functor_Tr">
<ellipse fill="#f070d1" stroke="black" cx="382.31" cy="-1327.1" rx="72.61" ry="18"/>
<ellipse fill="none" stroke="black" cx="382.31" cy="-1327.1" rx="76.6" ry="22"/>
<ellipse fill="none" stroke="black" cx="382.31" cy="-1327.1" rx="80.59" ry="26"/>
<text text-anchor="middle" x="382.31" y="-1323.4" font-family="Times,serif" font-size="14.00">is1functor_Tr</text>
</a>
</g>
</g>
<!-- Core_Trunc_functor_idmap -->
<g id="node28" class="node">
<title>Core_Trunc_functor_idmap</title>
<g id="a_node28"><a xlink:href="Core.html#Trunc_functor_idmap" xlink:title="Trunc_functor_idmap">
<ellipse fill="#f070d1" stroke="black" cx="135.31" cy="-1139.1" rx="108.58" ry="18"/>
<text text-anchor="middle" x="135.31" y="-1135.4" font-family="Times,serif" font-size="14.00">Trunc_functor_idmap</text>
</a>
</g>
</g>
<!-- Core_is1functor_Tr&#45;&gt;Core_Trunc_functor_idmap -->
<g id="edge27" class="edge">
<title>Core_is1functor_Tr&#45;&gt;Core_Trunc_functor_idmap</title>
<path fill="none" stroke="black" d="M351.53,-1302.92C303.95,-1267.09 213.11,-1198.68 165.74,-1163.02"/>
<polygon fill="black" stroke="black" points="167.79,-1160.18 157.7,-1156.96 163.58,-1165.77 167.79,-1160.18"/>
</g>
<!-- Core_Trunc_functor_compose -->
<g id="node29" class="node">
<title>Core_Trunc_functor_compose</title>
<g id="a_node29"><a xlink:href="Core.html#Trunc_functor_compose" xlink:title="Trunc_functor_compose">
<ellipse fill="#f070d1" stroke="black" cx="382.31" cy="-1139.1" rx="120.48" ry="18"/>
<text text-anchor="middle" x="382.31" y="-1135.4" font-family="Times,serif" font-size="14.00">Trunc_functor_compose</text>
</a>
</g>
</g>
<!-- Core_is1functor_Tr&#45;&gt;Core_Trunc_functor_compose -->
<g id="edge28" class="edge">
<title>Core_is1functor_Tr&#45;&gt;Core_Trunc_functor_compose</title>
<path fill="none" stroke="black" d="M382.31,-1301.02C382.31,-1266.24 382.31,-1203.6 382.31,-1167.59"/>
<polygon fill="black" stroke="black" points="385.81,-1167.33 382.31,-1157.33 378.81,-1167.33 385.81,-1167.33"/>
</g>
<!-- Core_is0functor_Tr -->
<g id="node32" class="node">
<title>Core_is0functor_Tr</title>
<g id="a_node32"><a xlink:href="Core.html#is0functor_Tr" xlink:title="is0functor_Tr">
<ellipse fill="#f070d1" stroke="black" cx="593.31" cy="-1139.1" rx="72.59" ry="18"/>
<text text-anchor="middle" x="593.31" y="-1135.4" font-family="Times,serif" font-size="14.00">is0functor_Tr</text>
</a>
</g>
</g>
<!-- Core_is1functor_Tr&#45;&gt;Core_is0functor_Tr -->
<g id="edge29" class="edge">
<title>Core_is1functor_Tr&#45;&gt;Core_is0functor_Tr</title>
<path fill="none" stroke="black" d="M409.04,-1302.55C449.68,-1266.71 526.58,-1198.92 566.99,-1163.3"/>
<polygon fill="black" stroke="black" points="569.38,-1165.87 574.57,-1156.63 564.75,-1160.61 569.38,-1165.87"/>
</g>
<!-- Core_equiv_Trunc_prod_cmp -->
<g id="node26" class="node">
<title>Core_equiv_Trunc_prod_cmp</title>
<g id="a_node26"><a xlink:href="Core.html#equiv_Trunc_prod_cmp" xlink:title="equiv_Trunc_prod_cmp">
<ellipse fill="#f070d1" stroke="black" cx="713.31" cy="-575.1" rx="116.98" ry="18"/>
<ellipse fill="none" stroke="black" cx="713.31" cy="-575.1" rx="120.98" ry="22"/>
<ellipse fill="none" stroke="black" cx="713.31" cy="-575.1" rx="124.98" ry="26"/>
<text text-anchor="middle" x="713.31" y="-571.4" font-family="Times,serif" font-size="14.00">equiv_Trunc_prod_cmp</text>
</a>
</g>
</g>
<!-- Core_equiv_Trunc_prod_cmp&#45;&gt;Core_Tr -->
<g id="edge30" class="edge">
<title>Core_equiv_Trunc_prod_cmp&#45;&gt;Core_Tr</title>
<path fill="none" stroke="black" d="M803.74,-557.07C818.31,-554.37 833.22,-551.64 847.31,-549.1 1154.39,-493.82 1526.08,-430.67 1641.43,-411.16"/>
<polygon fill="black" stroke="black" points="1642.2,-414.58 1651.47,-409.46 1641.03,-407.68 1642.2,-414.58"/>
</g>
<!-- Core_isequiv_Trunc_functor -->
<g id="node27" class="node">
<title>Core_isequiv_Trunc_functor</title>
<g id="a_node27"><a xlink:href="Core.html#isequiv_Trunc_functor" xlink:title="isequiv_Trunc_functor">
<ellipse fill="#f070d1" stroke="black" cx="1309.31" cy="-1139.1" rx="113.17" ry="18"/>
<ellipse fill="none" stroke="black" cx="1309.31" cy="-1139.1" rx="117.18" ry="22"/>
<ellipse fill="none" stroke="black" cx="1309.31" cy="-1139.1" rx="121.18" ry="26"/>
<text text-anchor="middle" x="1309.31" y="-1135.4" font-family="Times,serif" font-size="14.00">isequiv_Trunc_functor</text>
</a>
</g>
</g>
<!-- Core_isequiv_Trunc_functor&#45;&gt;Core_Trunc_functor -->
<g id="edge31" class="edge">
<title>Core_isequiv_Trunc_functor&#45;&gt;Core_Trunc_functor</title>
<path fill="none" stroke="black" d="M1238.39,-1117.93C1107.48,-1080.7 830.43,-1001.91 711.49,-968.08"/>
<polygon fill="black" stroke="black" points="712.42,-964.7 701.84,-965.33 710.5,-971.44 712.42,-964.7"/>
</g>
<!-- Core_Trunc_functor_idmap&#45;&gt;Core_Trunc_functor -->
<g id="edge32" class="edge">
<title>Core_Trunc_functor_idmap&#45;&gt;Core_Trunc_functor</title>
<path fill="none" stroke="black" d="M178.75,-1122.56C274.66,-1088.26 504.02,-1006.22 605.53,-969.91"/>
<polygon fill="black" stroke="black" points="607,-973.1 615.23,-966.44 604.64,-966.51 607,-973.1"/>
</g>
<!-- Core_Trunc_functor_compose&#45;&gt;Core_Trunc_functor -->
<g id="edge33" class="edge">
<title>Core_Trunc_functor_compose&#45;&gt;Core_Trunc_functor</title>
<path fill="none" stroke="black" d="M407.02,-1121.27C456.61,-1087.48 568.2,-1011.45 623.3,-973.92"/>
<polygon fill="black" stroke="black" points="625.34,-976.76 631.64,-968.23 621.4,-970.97 625.34,-976.76"/>
</g>
<!-- Core_Trunc_functor_equiv -->
<g id="node30" class="node">
<title>Core_Trunc_functor_equiv</title>
<g id="a_node30"><a xlink:href="Core.html#Trunc_functor_equiv" xlink:title="Trunc_functor_equiv">
<ellipse fill="#f070d1" stroke="black" cx="457.31" cy="-575.1" rx="105.1" ry="18"/>
<ellipse fill="none" stroke="black" cx="457.31" cy="-575.1" rx="109.09" ry="22"/>
<ellipse fill="none" stroke="black" cx="457.31" cy="-575.1" rx="113.08" ry="26"/>
<text text-anchor="middle" x="457.31" y="-571.4" font-family="Times,serif" font-size="14.00">Trunc_functor_equiv</text>
</a>
</g>
</g>
<!-- Core_Trunc_functor_equiv&#45;&gt;Core_Tr -->
<g id="edge34" class="edge">
<title>Core_Trunc_functor_equiv&#45;&gt;Core_Tr</title>
<path fill="none" stroke="black" d="M537.88,-556.74C551.67,-554.02 565.88,-551.36 579.31,-549.1 994.17,-479.48 1501.96,-423.68 1640.78,-408.93"/>
<polygon fill="black" stroke="black" points="1641.29,-412.4 1650.87,-407.86 1640.55,-405.43 1641.29,-412.4"/>
</g>
<!-- Core_Trunc_functor_isequiv -->
<g id="node31" class="node">
<title>Core_Trunc_functor_isequiv</title>
<g id="a_node31"><a xlink:href="Core.html#Trunc_functor_isequiv" xlink:title="Trunc_functor_isequiv">
<ellipse fill="#f070d1" stroke="black" cx="1049.31" cy="-1139.1" rx="113.17" ry="18"/>
<ellipse fill="none" stroke="black" cx="1049.31" cy="-1139.1" rx="117.18" ry="22"/>
<ellipse fill="none" stroke="black" cx="1049.31" cy="-1139.1" rx="121.18" ry="26"/>
<text text-anchor="middle" x="1049.31" y="-1135.4" font-family="Times,serif" font-size="14.00">Trunc_functor_isequiv</text>
</a>
</g>
</g>
<!-- Core_Trunc_functor_isequiv&#45;&gt;Core_Trunc_functor -->
<g id="edge35" class="edge">
<title>Core_Trunc_functor_isequiv&#45;&gt;Core_Trunc_functor</title>
<path fill="none" stroke="black" d="M1000.61,-1115.11C922.58,-1078.27 770.88,-1006.66 697.32,-971.93"/>
<polygon fill="black" stroke="black" points="698.44,-968.59 687.9,-967.49 695.45,-974.92 698.44,-968.59"/>
</g>
<!-- Core_is0functor_Tr&#45;&gt;Core_Trunc_functor -->
<g id="edge36" class="edge">
<title>Core_is0functor_Tr&#45;&gt;Core_Trunc_functor</title>
<path fill="none" stroke="black" d="M599.03,-1120.94C609.88,-1088.41 633.48,-1017.59 646.41,-978.8"/>
<polygon fill="black" stroke="black" points="649.76,-979.82 649.6,-969.23 643.12,-977.61 649.76,-979.82"/>
</g>
<!-- Core_Trunc_functor&#45;&gt;Core_Tr -->
<g id="edge37" class="edge">
<title>Core_Trunc_functor&#45;&gt;Core_Tr</title>
<path fill="none" stroke="black" d="M600.78,-938.64C418.3,-898.07 -149.19,-752.7 37.31,-549.1 149.38,-426.77 1407.19,-407.89 1640.27,-405.43"/>
<polygon fill="black" stroke="black" points="1640.32,-408.93 1650.29,-405.33 1640.25,-401.93 1640.32,-408.93"/>
</g>
<!-- Core_untrunc_istrunc -->
<g id="node34" class="node">
<title>Core_untrunc_istrunc</title>
<g id="a_node34"><a xlink:href="Core.html#untrunc_istrunc" xlink:title="untrunc_istrunc">
<ellipse fill="#f070d1" stroke="black" cx="904.31" cy="-951.1" rx="84.49" ry="18"/>
<ellipse fill="none" stroke="black" cx="904.31" cy="-951.1" rx="88.49" ry="22"/>
<ellipse fill="none" stroke="black" cx="904.31" cy="-951.1" rx="92.49" ry="26"/>
<text text-anchor="middle" x="904.31" y="-947.4" font-family="Times,serif" font-size="14.00">untrunc_istrunc</text>
</a>
</g>
</g>
<!-- Core_isequiv_tr -->
<g id="node36" class="node">
<title>Core_isequiv_tr</title>
<g id="a_node36"><a xlink:href="Core.html#isequiv_tr" xlink:title="isequiv_tr">
<ellipse fill="#f070d1" stroke="black" cx="904.31" cy="-763.1" rx="56.59" ry="18"/>
<text text-anchor="middle" x="904.31" y="-759.4" font-family="Times,serif" font-size="14.00">isequiv_tr</text>
</a>
</g>
</g>
<!-- Core_untrunc_istrunc&#45;&gt;Core_isequiv_tr -->
<g id="edge38" class="edge">
<title>Core_untrunc_istrunc&#45;&gt;Core_isequiv_tr</title>
<path fill="none" stroke="black" d="M904.31,-925.02C904.31,-890.24 904.31,-827.6 904.31,-791.59"/>
<polygon fill="black" stroke="black" points="907.81,-791.33 904.31,-781.33 900.81,-791.33 907.81,-791.33"/>
</g>
<!-- Core_equiv_tr&#45;&gt;Core_isequiv_tr -->
<g id="edge39" class="edge">
<title>Core_equiv_tr&#45;&gt;Core_isequiv_tr</title>
<path fill="none" stroke="black" d="M1185.12,-935.35C1131.01,-902.35 1000.04,-822.48 937.99,-784.64"/>
<polygon fill="black" stroke="black" points="939.71,-781.59 929.35,-779.37 936.07,-787.57 939.71,-781.59"/>
</g>
<!-- Core_trunc_iff_isequiv_truncation -->
<g id="node37" class="node">
<title>Core_trunc_iff_isequiv_truncation</title>
<g id="a_node37"><a xlink:href="Core.html#trunc_iff_isequiv_truncation" xlink:title="trunc_iff_isequiv_truncation">
<ellipse fill="#f070d1" stroke="black" cx="186.31" cy="-575.1" rx="139.98" ry="18"/>
<text text-anchor="middle" x="186.31" y="-571.4" font-family="Times,serif" font-size="14.00">trunc_iff_isequiv_truncation</text>
</a>
</g>
</g>
<!-- Core_isequiv_tr&#45;&gt;Core_trunc_iff_isequiv_truncation -->
<g id="edge40" class="edge">
<title>Core_isequiv_tr&#45;&gt;Core_trunc_iff_isequiv_truncation</title>
<path fill="none" stroke="black" d="M861.81,-751.09C742.25,-720.12 402.16,-632.02 255.27,-593.97"/>
<polygon fill="black" stroke="black" points="256.02,-590.54 245.46,-591.42 254.26,-597.32 256.02,-590.54"/>
</g>
<!-- Core_trunc_iff_isequiv_truncation&#45;&gt;Core_Tr -->
<g id="edge41" class="edge">
<title>Core_trunc_iff_isequiv_truncation&#45;&gt;Core_Tr</title>
<path fill="none" stroke="black" d="M264.28,-560.12C287.13,-556.27 312.19,-552.28 335.31,-549.1 851.57,-478.16 1483.62,-421.8 1640.69,-408.23"/>
<polygon fill="black" stroke="black" points="1641.09,-411.71 1650.75,-407.36 1640.49,-404.73 1641.09,-411.71"/>
</g>
<!-- Core_Tr&#45;&gt;Core_Trunc_Trunc_ind -->
<g id="edge42" class="edge">
<title>Core_Tr&#45;&gt;Core_Trunc_Trunc_ind</title>
<path fill="none" stroke="black" d="M1697.67,-391.74C1745.28,-365.15 1864.45,-298.62 1924.51,-265.09"/>
<polygon fill="black" stroke="black" points="1926.25,-268.13 1933.28,-260.2 1922.84,-262.01 1926.25,-268.13"/>
</g>
<!-- Core_Tr&#45;&gt;Core_Trunc_istrunc_truncation -->
<g id="edge43" class="edge">
<title>Core_Tr&#45;&gt;Core_Trunc_istrunc_truncation</title>
<path fill="none" stroke="black" d="M1702.21,-396.4C1759.95,-380.6 1907.13,-338.93 2026.31,-293.1 2047.7,-284.88 2070.92,-274.43 2090.07,-265.38"/>
<polygon fill="black" stroke="black" points="2091.6,-268.53 2099.12,-261.07 2088.59,-262.21 2091.6,-268.53"/>
</g>
<!-- Core_Trunc_rec_tr -->
<g id="node39" class="node">
<title>Core_Trunc_rec_tr</title>
<g id="a_node39"><a xlink:href="Core.html#Trunc_rec_tr" xlink:title="Trunc_rec_tr">
<ellipse fill="#f070d1" stroke="black" cx="2849.31" cy="-575.1" rx="69.58" ry="18"/>
<ellipse fill="none" stroke="black" cx="2849.31" cy="-575.1" rx="73.59" ry="22"/>
<ellipse fill="none" stroke="black" cx="2849.31" cy="-575.1" rx="77.59" ry="26"/>
<text text-anchor="middle" x="2849.31" y="-571.4" font-family="Times,serif" font-size="14.00">Trunc_rec_tr</text>
</a>
</g>
</g>
<!-- Core_Trunc_rec_tr&#45;&gt;Core_Trunc_istrunc_truncation -->
<g id="edge44" class="edge">
<title>Core_Trunc_rec_tr&#45;&gt;Core_Trunc_istrunc_truncation</title>
<path fill="none" stroke="black" d="M2804.94,-553.77C2676.08,-494.73 2302.93,-323.74 2174.98,-265.11"/>
<polygon fill="black" stroke="black" points="2176.39,-261.91 2165.84,-260.92 2173.47,-268.27 2176.39,-261.91"/>
</g>
<!-- Core_Trunc_rec -->
<g id="node40" class="node">
<title>Core_Trunc_rec</title>
<g id="a_node40"><a xlink:href="Core.html#Trunc_rec" xlink:title="Trunc_rec">
<ellipse fill="#f070d1" stroke="black" cx="2291.31" cy="-404.1" rx="56.59" ry="18"/>
<text text-anchor="middle" x="2291.31" y="-400.4" font-family="Times,serif" font-size="14.00">Trunc_rec</text>
</a>
</g>
</g>
<!-- Core_Trunc_rec_tr&#45;&gt;Core_Trunc_rec -->
<g id="edge45" class="edge">
<title>Core_Trunc_rec_tr&#45;&gt;Core_Trunc_rec</title>
<path fill="none" stroke="black" d="M2793.25,-557.12C2683.89,-524 2443.72,-451.26 2340.29,-419.93"/>
<polygon fill="black" stroke="black" points="2341.3,-416.58 2330.71,-417.04 2339.27,-423.28 2341.3,-416.58"/>
</g>
<!-- Core_Trunc_rec&#45;&gt;Core_Trunc_Trunc_ind -->
<g id="edge46" class="edge">
<title>Core_Trunc_rec&#45;&gt;Core_Trunc_Trunc_ind</title>
<path fill="none" stroke="black" d="M2253.6,-390.62C2201.01,-372.51 2103.43,-336.35 2026.31,-293.1 2012.99,-285.63 1999.18,-275.94 1987.66,-267.22"/>
<polygon fill="black" stroke="black" points="1989.77,-264.43 1979.71,-261.09 1985.49,-269.97 1989.77,-264.43"/>
</g>
</g>
</svg>
