<?xml version="1.0" encoding="UTF-8" standalone="no"?>
<!DOCTYPE svg PUBLIC "-//W3C//DTD SVG 1.1//EN"
 "http://www.w3.org/Graphics/SVG/1.1/DTD/svg11.dtd">
<!-- Generated by graphviz version 2.43.0 (0)
 -->
<!-- Title: HoTT_Basics_Tactics Pages: 1 -->
<svg width="976pt" height="492pt"
 viewBox="0.00 0.00 976.00 492.00" xmlns="http://www.w3.org/2000/svg" xmlns:xlink="http://www.w3.org/1999/xlink">
<g id="graph0" class="graph" transform="scale(1 1) rotate(0) translate(4 488)">
<title>HoTT_Basics_Tactics</title>
<polygon fill="white" stroke="transparent" points="-4,4 -4,-488 972,-488 972,4 -4,4"/>
<g id="clust1" class="cluster">
<title>cluster_Tactics</title>
<polygon fill="#ffffc3" stroke="black" points="8,-14.5 8,-469.5 960,-469.5 960,-14.5 8,-14.5"/>
<text text-anchor="middle" x="41" y="-454.3" font-family="Times,serif" font-size="14.00">Tactics</text>
</g>
<!-- Tactics_issig_isequiv -->
<g id="node1" class="node">
<title>Tactics_issig_isequiv</title>
<g id="a_node1"><a xlink:href="Tactics.html#issig_isequiv" xlink:title="issig_isequiv">
<ellipse fill="#f070d1" stroke="black" cx="846" cy="-366.5" rx="69.58" ry="18"/>
<ellipse fill="none" stroke="black" cx="846" cy="-366.5" rx="73.59" ry="22"/>
<ellipse fill="none" stroke="black" cx="846" cy="-366.5" rx="77.59" ry="26"/>
<text text-anchor="middle" x="846" y="-362.8" font-family="Times,serif" font-size="14.00">issig_isequiv</text>
</a>
</g>
</g>
<!-- Tactics_issig_equiv -->
<g id="node2" class="node">
<title>Tactics_issig_equiv</title>
<g id="a_node2"><a xlink:href="Tactics.html#issig_equiv" xlink:title="issig_equiv">
<ellipse fill="#f070d1" stroke="black" cx="654" cy="-366.5" rx="61.96" ry="18"/>
<ellipse fill="none" stroke="black" cx="654" cy="-366.5" rx="65.98" ry="22"/>
<ellipse fill="none" stroke="black" cx="654" cy="-366.5" rx="69.99" ry="26"/>
<text text-anchor="middle" x="654" y="-362.8" font-family="Times,serif" font-size="14.00">issig_equiv</text>
</a>
</g>
</g>
<!-- Tactics_is_global_axiom_funext -->
<g id="node3" class="node">
<title>Tactics_is_global_axiom_funext</title>
<g id="a_node3"><a xlink:href="Tactics.html#is_global_axiom_funext" xlink:title="is_global_axiom_funext">
<ellipse fill="#f070d1" stroke="black" cx="826" cy="-206.5" rx="117.77" ry="18"/>
<ellipse fill="none" stroke="black" cx="826" cy="-206.5" rx="121.77" ry="22"/>
<ellipse fill="none" stroke="black" cx="826" cy="-206.5" rx="125.78" ry="26"/>
<text text-anchor="middle" x="826" y="-202.8" font-family="Times,serif" font-size="14.00">is_global_axiom_funext</text>
</a>
</g>
</g>
<!-- Tactics_Build_IsGlobalAxiom -->
<g id="node8" class="node">
<title>Tactics_Build_IsGlobalAxiom</title>
<g id="a_node8"><a xlink:href="Tactics.html#Build_IsGlobalAxiom" xlink:title="Build_IsGlobalAxiom">
<ellipse fill="#7faaff" stroke="black" cx="351" cy="-61.5" rx="106.68" ry="18"/>
<text text-anchor="middle" x="351" y="-57.8" font-family="Times,serif" font-size="14.00">Build_IsGlobalAxiom</text>
</a>
</g>
</g>
<!-- Tactics_is_global_axiom_funext&#45;&gt;Tactics_Build_IsGlobalAxiom -->
<g id="edge1" class="edge">
<title>Tactics_is_global_axiom_funext&#45;&gt;Tactics_Build_IsGlobalAxiom</title>
<path fill="none" stroke="black" d="M756.93,-184.71C663.56,-156.6 498.62,-106.94 410.47,-80.41"/>
<polygon fill="black" stroke="black" points="411.47,-77.05 400.89,-77.52 409.46,-83.76 411.47,-77.05"/>
</g>
<!-- Tactics_IsGlobalAxiom -->
<g id="node9" class="node">
<title>Tactics_IsGlobalAxiom</title>
<g id="a_node9"><a xlink:href="Tactics.html#IsGlobalAxiom" xlink:title="IsGlobalAxiom">
<ellipse fill="#e2cdfa" stroke="black" cx="566" cy="-61.5" rx="77.19" ry="18"/>
<text text-anchor="middle" x="566" y="-57.8" font-family="Times,serif" font-size="14.00">IsGlobalAxiom</text>
</a>
</g>
</g>
<!-- Tactics_is_global_axiom_funext&#45;&gt;Tactics_IsGlobalAxiom -->
<g id="edge2" class="edge">
<title>Tactics_is_global_axiom_funext&#45;&gt;Tactics_IsGlobalAxiom</title>
<path fill="none" stroke="black" d="M783.07,-181.89C733.07,-154.39 651.27,-109.4 603.65,-83.21"/>
<polygon fill="black" stroke="black" points="605.33,-80.14 594.88,-78.39 601.96,-86.27 605.33,-80.14"/>
</g>
<!-- Tactics_IsGlobalAxiom_sind -->
<g id="node4" class="node">
<title>Tactics_IsGlobalAxiom_sind</title>
<g id="a_node4"><a xlink:href="Tactics.html#IsGlobalAxiom_sind" xlink:title="IsGlobalAxiom_sind">
<ellipse fill="#f070d1" stroke="black" cx="573" cy="-206.5" rx="101.29" ry="18"/>
<ellipse fill="none" stroke="black" cx="573" cy="-206.5" rx="105.29" ry="22"/>
<ellipse fill="none" stroke="black" cx="573" cy="-206.5" rx="109.28" ry="26"/>
<text text-anchor="middle" x="573" y="-202.8" font-family="Times,serif" font-size="14.00">IsGlobalAxiom_sind</text>
</a>
</g>
</g>
<!-- Tactics_IsGlobalAxiom_sind&#45;&gt;Tactics_Build_IsGlobalAxiom -->
<g id="edge3" class="edge">
<title>Tactics_IsGlobalAxiom_sind&#45;&gt;Tactics_Build_IsGlobalAxiom</title>
<path fill="none" stroke="black" d="M536.34,-181.89C494.35,-154.84 426.08,-110.87 385.17,-84.51"/>
<polygon fill="black" stroke="black" points="386.92,-81.48 376.62,-79.01 383.13,-87.36 386.92,-81.48"/>
</g>
<!-- Tactics_IsGlobalAxiom_sind&#45;&gt;Tactics_IsGlobalAxiom -->
<g id="edge4" class="edge">
<title>Tactics_IsGlobalAxiom_sind&#45;&gt;Tactics_IsGlobalAxiom</title>
<path fill="none" stroke="black" d="M571.76,-180.27C570.53,-155.01 568.63,-116.25 567.35,-90.17"/>
<polygon fill="black" stroke="black" points="570.83,-89.66 566.85,-79.84 563.84,-90 570.83,-89.66"/>
</g>
<!-- Tactics_IsGlobalAxiom_rec -->
<g id="node5" class="node">
<title>Tactics_IsGlobalAxiom_rec</title>
<g id="a_node5"><a xlink:href="Tactics.html#IsGlobalAxiom_rec" xlink:title="IsGlobalAxiom_rec">
<ellipse fill="#f070d1" stroke="black" cx="406" cy="-366.5" rx="96.7" ry="18"/>
<ellipse fill="none" stroke="black" cx="406" cy="-366.5" rx="100.69" ry="22"/>
<ellipse fill="none" stroke="black" cx="406" cy="-366.5" rx="104.68" ry="26"/>
<text text-anchor="middle" x="406" y="-362.8" font-family="Times,serif" font-size="14.00">IsGlobalAxiom_rec</text>
</a>
</g>
</g>
<!-- Tactics_IsGlobalAxiom_rect -->
<g id="node7" class="node">
<title>Tactics_IsGlobalAxiom_rect</title>
<g id="a_node7"><a xlink:href="Tactics.html#IsGlobalAxiom_rect" xlink:title="IsGlobalAxiom_rect">
<ellipse fill="#f070d1" stroke="black" cx="345" cy="-206.5" rx="100.98" ry="18"/>
<text text-anchor="middle" x="345" y="-202.8" font-family="Times,serif" font-size="14.00">IsGlobalAxiom_rect</text>
</a>
</g>
</g>
<!-- Tactics_IsGlobalAxiom_rec&#45;&gt;Tactics_IsGlobalAxiom_rect -->
<g id="edge5" class="edge">
<title>Tactics_IsGlobalAxiom_rec&#45;&gt;Tactics_IsGlobalAxiom_rect</title>
<path fill="none" stroke="black" d="M396.33,-340.47C385.16,-311.51 366.82,-264.03 355.36,-234.33"/>
<polygon fill="black" stroke="black" points="358.48,-232.7 351.61,-224.63 351.95,-235.22 358.48,-232.7"/>
</g>
<!-- Tactics_IsGlobalAxiom_ind -->
<g id="node6" class="node">
<title>Tactics_IsGlobalAxiom_ind</title>
<g id="a_node6"><a xlink:href="Tactics.html#IsGlobalAxiom_ind" xlink:title="IsGlobalAxiom_ind">
<ellipse fill="#7fffd4" stroke="black" cx="121" cy="-206.5" rx="96.7" ry="18"/>
<ellipse fill="none" stroke="black" cx="121" cy="-206.5" rx="100.69" ry="22"/>
<ellipse fill="none" stroke="black" cx="121" cy="-206.5" rx="104.68" ry="26"/>
<text text-anchor="middle" x="121" y="-202.8" font-family="Times,serif" font-size="14.00">IsGlobalAxiom_ind</text>
</a>
</g>
</g>
<!-- Tactics_IsGlobalAxiom_ind&#45;&gt;Tactics_Build_IsGlobalAxiom -->
<g id="edge6" class="edge">
<title>Tactics_IsGlobalAxiom_ind&#45;&gt;Tactics_Build_IsGlobalAxiom</title>
<path fill="none" stroke="black" d="M158.47,-182.21C201.96,-155.17 273.15,-110.9 315.7,-84.45"/>
<polygon fill="black" stroke="black" points="317.68,-87.34 324.33,-79.09 313.99,-81.39 317.68,-87.34"/>
</g>
<!-- Tactics_IsGlobalAxiom_ind&#45;&gt;Tactics_IsGlobalAxiom -->
<g id="edge7" class="edge">
<title>Tactics_IsGlobalAxiom_ind&#45;&gt;Tactics_IsGlobalAxiom</title>
<path fill="none" stroke="black" d="M183.34,-185.47C271.26,-157.21 430.16,-106.15 512.81,-79.59"/>
<polygon fill="black" stroke="black" points="514.05,-82.87 522.5,-76.48 511.91,-76.21 514.05,-82.87"/>
</g>
<!-- Tactics_IsGlobalAxiom_rect&#45;&gt;Tactics_Build_IsGlobalAxiom -->
<g id="edge8" class="edge">
<title>Tactics_IsGlobalAxiom_rect&#45;&gt;Tactics_Build_IsGlobalAxiom</title>
<path fill="none" stroke="black" d="M345.72,-188.25C346.75,-163.88 348.62,-119.11 349.84,-90.09"/>
<polygon fill="black" stroke="black" points="353.35,-89.95 350.27,-79.81 346.36,-89.66 353.35,-89.95"/>
</g>
<!-- Tactics_IsGlobalAxiom_rect&#45;&gt;Tactics_IsGlobalAxiom -->
<g id="edge9" class="edge">
<title>Tactics_IsGlobalAxiom_rect&#45;&gt;Tactics_IsGlobalAxiom</title>
<path fill="none" stroke="black" d="M370.78,-188.82C410.92,-162.85 488.32,-112.76 532.65,-84.08"/>
<polygon fill="black" stroke="black" points="534.56,-87.01 541.06,-78.64 530.76,-81.13 534.56,-87.01"/>
</g>
<!-- Tactics_obligation -->
<g id="node10" class="node">
<title>Tactics_obligation</title>
<g id="a_node10"><a xlink:href="Tactics.html#obligation" xlink:title="obligation">
<ellipse fill="#f070d1" stroke="black" cx="218" cy="-366.5" rx="57.37" ry="18"/>
<ellipse fill="none" stroke="black" cx="218" cy="-366.5" rx="61.38" ry="22"/>
<ellipse fill="none" stroke="black" cx="218" cy="-366.5" rx="65.39" ry="26"/>
<text text-anchor="middle" x="218" y="-362.8" font-family="Times,serif" font-size="14.00">obligation</text>
</a>
</g>
</g>
<!-- Tactics_fix_proto -->
<g id="node11" class="node">
<title>Tactics_fix_proto</title>
<g id="a_node11"><a xlink:href="Tactics.html#fix_proto" xlink:title="fix_proto">
<ellipse fill="#f070d1" stroke="black" cx="75" cy="-366.5" rx="51.21" ry="18"/>
<ellipse fill="none" stroke="black" cx="75" cy="-366.5" rx="55.2" ry="22"/>
<ellipse fill="none" stroke="black" cx="75" cy="-366.5" rx="59.19" ry="26"/>
<text text-anchor="middle" x="75" y="-362.8" font-family="Times,serif" font-size="14.00">fix_proto</text>
</a>
</g>
</g>
</g>
</svg>
