<?xml version="1.0" encoding="UTF-8" standalone="no"?>
<!DOCTYPE svg PUBLIC "-//W3C//DTD SVG 1.1//EN"
 "http://www.w3.org/Graphics/SVG/1.1/DTD/svg11.dtd">
<!-- Generated by graphviz version 2.43.0 (0)
 -->
<!-- Title: HoTT_Types_Empty Pages: 1 -->
<svg width="854pt" height="431pt"
 viewBox="0.00 0.00 854.00 431.00" xmlns="http://www.w3.org/2000/svg" xmlns:xlink="http://www.w3.org/1999/xlink">
<g id="graph0" class="graph" transform="scale(1 1) rotate(0) translate(4 427)">
<title>HoTT_Types_Empty</title>
<polygon fill="white" stroke="transparent" points="-4,4 -4,-427 850,-427 850,4 -4,4"/>
<g id="clust1" class="cluster">
<title>cluster_Empty</title>
<polygon fill="#ffffc3" stroke="black" points="8,-13.48 8,-409.52 838,-409.52 838,-13.48 8,-13.48"/>
<text text-anchor="middle" x="40" y="-394.32" font-family="Times,serif" font-size="14.00">Empty</text>
</g>
<!-- Empty_equiv_to_empty -->
<g id="node1" class="node">
<title>Empty_equiv_to_empty</title>
<g id="a_node1"><a xlink:href="Empty.html#equiv_to_empty" xlink:title="equiv_to_empty">
<ellipse fill="#f070d1" stroke="black" cx="739" cy="-313.48" rx="83.37" ry="18"/>
<ellipse fill="none" stroke="black" cx="739" cy="-313.48" rx="87.38" ry="22"/>
<ellipse fill="none" stroke="black" cx="739" cy="-313.48" rx="91.39" ry="26"/>
<text text-anchor="middle" x="739" y="-309.78" font-family="Times,serif" font-size="14.00">equiv_to_empty</text>
</a>
</g>
</g>
<!-- Empty_isequiv_all_to_empty -->
<g id="node2" class="node">
<title>Empty_isequiv_all_to_empty</title>
<g id="a_node2"><a xlink:href="Empty.html#isequiv_all_to_empty" xlink:title="isequiv_all_to_empty">
<ellipse fill="#f070d1" stroke="black" cx="682" cy="-178.48" rx="106.68" ry="18"/>
<text text-anchor="middle" x="682" y="-174.78" font-family="Times,serif" font-size="14.00">isequiv_all_to_empty</text>
</a>
</g>
</g>
<!-- Empty_equiv_to_empty&#45;&gt;Empty_isequiv_all_to_empty -->
<g id="edge1" class="edge">
<title>Empty_equiv_to_empty&#45;&gt;Empty_isequiv_all_to_empty</title>
<path fill="none" stroke="black" d="M728.28,-287.47C718.35,-264.29 703.62,-229.92 693.46,-206.21"/>
<polygon fill="black" stroke="black" points="696.56,-204.58 689.41,-196.77 690.13,-207.34 696.56,-204.58"/>
</g>
<!-- Empty_Empty_rec -->
<g id="node6" class="node">
<title>Empty_Empty_rec</title>
<g id="a_node6"><a xlink:href="Empty.html#Empty_rec" xlink:title="Empty_rec">
<ellipse fill="#f070d1" stroke="black" cx="531" cy="-57.48" rx="60.39" ry="18"/>
<text text-anchor="middle" x="531" y="-53.78" font-family="Times,serif" font-size="14.00">Empty_rec</text>
</a>
</g>
</g>
<!-- Empty_isequiv_all_to_empty&#45;&gt;Empty_Empty_rec -->
<g id="edge2" class="edge">
<title>Empty_isequiv_all_to_empty&#45;&gt;Empty_Empty_rec</title>
<path fill="none" stroke="black" d="M660.69,-160.68C634.23,-139.84 589.02,-104.21 559.58,-81"/>
<polygon fill="black" stroke="black" points="561.74,-78.25 551.72,-74.81 557.41,-83.75 561.74,-78.25"/>
</g>
<!-- Empty_istrunc_Empty -->
<g id="node3" class="node">
<title>Empty_istrunc_Empty</title>
<g id="a_node3"><a xlink:href="Empty.html#istrunc_Empty" xlink:title="istrunc_Empty">
<ellipse fill="#f070d1" stroke="black" cx="543" cy="-313.48" rx="78.77" ry="18"/>
<ellipse fill="none" stroke="black" cx="543" cy="-313.48" rx="82.78" ry="22"/>
<ellipse fill="none" stroke="black" cx="543" cy="-313.48" rx="86.79" ry="26"/>
<text text-anchor="middle" x="543" y="-309.78" font-family="Times,serif" font-size="14.00">istrunc_Empty</text>
</a>
</g>
</g>
<!-- Empty_equiv_empty_rec -->
<g id="node4" class="node">
<title>Empty_equiv_empty_rec</title>
<g id="a_node4"><a xlink:href="Empty.html#equiv_empty_rec" xlink:title="equiv_empty_rec">
<ellipse fill="#f070d1" stroke="black" cx="341" cy="-313.48" rx="89.08" ry="18"/>
<ellipse fill="none" stroke="black" cx="341" cy="-313.48" rx="93.08" ry="22"/>
<ellipse fill="none" stroke="black" cx="341" cy="-313.48" rx="97.08" ry="26"/>
<text text-anchor="middle" x="341" y="-309.78" font-family="Times,serif" font-size="14.00">equiv_empty_rec</text>
</a>
</g>
</g>
<!-- Empty_isequiv_empty_rec -->
<g id="node5" class="node">
<title>Empty_isequiv_empty_rec</title>
<g id="a_node5"><a xlink:href="Empty.html#isequiv_empty_rec" xlink:title="isequiv_empty_rec">
<ellipse fill="#f070d1" stroke="black" cx="381" cy="-178.48" rx="96.68" ry="18"/>
<text text-anchor="middle" x="381" y="-174.78" font-family="Times,serif" font-size="14.00">isequiv_empty_rec</text>
</a>
</g>
</g>
<!-- Empty_equiv_empty_rec&#45;&gt;Empty_isequiv_empty_rec -->
<g id="edge3" class="edge">
<title>Empty_equiv_empty_rec&#45;&gt;Empty_isequiv_empty_rec</title>
<path fill="none" stroke="black" d="M348.52,-287.47C355.46,-264.39 365.74,-230.23 372.87,-206.53"/>
<polygon fill="black" stroke="black" points="376.27,-207.35 375.8,-196.77 369.57,-205.34 376.27,-207.35"/>
</g>
<!-- Empty_isequiv_empty_rec&#45;&gt;Empty_Empty_rec -->
<g id="edge4" class="edge">
<title>Empty_isequiv_empty_rec&#45;&gt;Empty_Empty_rec</title>
<path fill="none" stroke="black" d="M402.17,-160.68C428.34,-139.93 472.98,-104.51 502.24,-81.3"/>
<polygon fill="black" stroke="black" points="504.76,-83.77 510.42,-74.81 500.41,-78.29 504.76,-83.77"/>
</g>
<!-- Empty_contr_from_Empty -->
<g id="node7" class="node">
<title>Empty_contr_from_Empty</title>
<g id="a_node7"><a xlink:href="Empty.html#contr_from_Empty" xlink:title="contr_from_Empty">
<ellipse fill="#f070d1" stroke="black" cx="121" cy="-313.48" rx="96.7" ry="18"/>
<ellipse fill="none" stroke="black" cx="121" cy="-313.48" rx="100.69" ry="22"/>
<ellipse fill="none" stroke="black" cx="121" cy="-313.48" rx="104.68" ry="26"/>
<text text-anchor="middle" x="121" y="-309.78" font-family="Times,serif" font-size="14.00">contr_from_Empty</text>
</a>
</g>
</g>
</g>
</svg>
