<?xml version="1.0" encoding="UTF-8" standalone="no"?>
<!DOCTYPE svg PUBLIC "-//W3C//DTD SVG 1.1//EN"
 "http://www.w3.org/Graphics/SVG/1.1/DTD/svg11.dtd">
<!-- Generated by graphviz version 2.43.0 (0)
 -->
<!-- Title: HoTT_Tactics Pages: 1 -->
<svg width="1738pt" height="873pt"
 viewBox="0.00 0.00 1738.00 873.00" xmlns="http://www.w3.org/2000/svg" xmlns:xlink="http://www.w3.org/1999/xlink">
<g id="graph0" class="graph" transform="scale(1 1) rotate(0) translate(4 869)">
<title>HoTT_Tactics</title>
<polygon fill="white" stroke="transparent" points="-4,4 -4,-869 1734,-869 1734,4 -4,4"/>
<g id="clust1" class="cluster">
<title>cluster_EvalIn</title>
<polygon fill="#ffffc3" stroke="black" points="1233,-25.92 1233,-839.08 1722,-839.08 1722,-25.92 1233,-25.92"/>
<text text-anchor="middle" x="1264" y="-823.88" font-family="Times,serif" font-size="14.00">EvalIn</text>
</g>
<g id="clust2" class="cluster">
<title>cluster_Tactics</title>
<polygon fill="#ffffc3" stroke="black" points="8,-25.92 8,-839.08 1225,-839.08 1225,-25.92 8,-25.92"/>
<text text-anchor="middle" x="41" y="-823.88" font-family="Times,serif" font-size="14.00">Tactics</text>
</g>
<!-- Tactics_internal_paths_rew_r_to_transport -->
<g id="node1" class="node">
<title>Tactics_internal_paths_rew_r_to_transport</title>
<g id="a_node1"><a xlink:href="Tactics.html#internal_paths_rew_r_to_transport" xlink:title="internal_paths_rew_r_to_transport">
<ellipse fill="#f070d1" stroke="black" cx="1039" cy="-654.92" rx="170.08" ry="18"/>
<ellipse fill="none" stroke="black" cx="1039" cy="-654.92" rx="174.07" ry="22"/>
<ellipse fill="none" stroke="black" cx="1039" cy="-654.92" rx="178.07" ry="26"/>
<text text-anchor="middle" x="1039" y="-651.22" font-family="Times,serif" font-size="14.00">internal_paths_rew_r_to_transport</text>
</a>
</g>
</g>
<!-- Tactics_match_eta2 -->
<g id="node2" class="node">
<title>Tactics_match_eta2</title>
<g id="a_node2"><a xlink:href="Tactics.html#match_eta2" xlink:title="match_eta2">
<ellipse fill="#f070d1" stroke="black" cx="770" cy="-654.92" rx="64.21" ry="18"/>
<ellipse fill="none" stroke="black" cx="770" cy="-654.92" rx="68.2" ry="22"/>
<ellipse fill="none" stroke="black" cx="770" cy="-654.92" rx="72.19" ry="26"/>
<text text-anchor="middle" x="770" y="-651.22" font-family="Times,serif" font-size="14.00">match_eta2</text>
</a>
</g>
</g>
<!-- Tactics_match_eta1 -->
<g id="node3" class="node">
<title>Tactics_match_eta1</title>
<g id="a_node3"><a xlink:href="Tactics.html#match_eta1" xlink:title="match_eta1">
<ellipse fill="#f070d1" stroke="black" cx="770" cy="-368.92" rx="64.19" ry="18"/>
<text text-anchor="middle" x="770" y="-365.22" font-family="Times,serif" font-size="14.00">match_eta1</text>
</a>
</g>
</g>
<!-- Tactics_match_eta2&#45;&gt;Tactics_match_eta1 -->
<g id="edge1" class="edge">
<title>Tactics_match_eta2&#45;&gt;Tactics_match_eta1</title>
<path fill="none" stroke="black" d="M770,-628.71C770,-575.52 770,-452.15 770,-397.19"/>
<polygon fill="black" stroke="black" points="773.5,-397.15 770,-387.15 766.5,-397.15 773.5,-397.15"/>
</g>
<!-- Tactics_match_eta -->
<g id="node4" class="node">
<title>Tactics_match_eta</title>
<g id="a_node4"><a xlink:href="Tactics.html#match_eta" xlink:title="match_eta">
<ellipse fill="#f070d1" stroke="black" cx="770" cy="-109.92" rx="58.49" ry="18"/>
<text text-anchor="middle" x="770" y="-106.22" font-family="Times,serif" font-size="14.00">match_eta</text>
</a>
</g>
</g>
<!-- Tactics_match_eta1&#45;&gt;Tactics_match_eta -->
<g id="edge2" class="edge">
<title>Tactics_match_eta1&#45;&gt;Tactics_match_eta</title>
<path fill="none" stroke="black" d="M770,-350.66C770,-306.86 770,-191.12 770,-138.12"/>
<polygon fill="black" stroke="black" points="773.5,-138.1 770,-128.1 766.5,-138.1 773.5,-138.1"/>
</g>
<!-- Tactics_path_forall_2_beta -->
<g id="node5" class="node">
<title>Tactics_path_forall_2_beta</title>
<g id="a_node5"><a xlink:href="Tactics.html#path_forall_2_beta" xlink:title="path_forall_2_beta">
<ellipse fill="#f070d1" stroke="black" cx="576" cy="-654.92" rx="95.58" ry="18"/>
<ellipse fill="none" stroke="black" cx="576" cy="-654.92" rx="99.58" ry="22"/>
<ellipse fill="none" stroke="black" cx="576" cy="-654.92" rx="103.58" ry="26"/>
<text text-anchor="middle" x="576" y="-651.22" font-family="Times,serif" font-size="14.00">path_forall_2_beta</text>
</a>
</g>
</g>
<!-- Tactics_path_forall_recr_beta -->
<g id="node7" class="node">
<title>Tactics_path_forall_recr_beta</title>
<g id="a_node7"><a xlink:href="Tactics.html#path_forall_recr_beta" xlink:title="path_forall_recr_beta">
<ellipse fill="#f070d1" stroke="black" cx="462" cy="-368.92" rx="108.58" ry="18"/>
<text text-anchor="middle" x="462" y="-365.22" font-family="Times,serif" font-size="14.00">path_forall_recr_beta</text>
</a>
</g>
</g>
<!-- Tactics_path_forall_2_beta&#45;&gt;Tactics_path_forall_recr_beta -->
<g id="edge3" class="edge">
<title>Tactics_path_forall_2_beta&#45;&gt;Tactics_path_forall_recr_beta</title>
<path fill="none" stroke="black" d="M565.88,-628.71C544.44,-575.29 494.59,-451.12 472.67,-396.5"/>
<polygon fill="black" stroke="black" points="475.89,-395.12 468.92,-387.15 469.39,-397.73 475.89,-395.12"/>
</g>
<!-- Tactics_path_forall_2_beta_ -->
<g id="node6" class="node">
<title>Tactics_path_forall_2_beta_</title>
<g id="a_node6"><a xlink:href="Tactics.html#path_forall_2_beta'" xlink:title="path_forall_2_beta&#39;">
<ellipse fill="#f070d1" stroke="black" cx="348" cy="-654.92" rx="98.27" ry="18"/>
<ellipse fill="none" stroke="black" cx="348" cy="-654.92" rx="102.28" ry="22"/>
<ellipse fill="none" stroke="black" cx="348" cy="-654.92" rx="106.28" ry="26"/>
<text text-anchor="middle" x="348" y="-651.22" font-family="Times,serif" font-size="14.00">path_forall_2_beta&#39;</text>
</a>
</g>
</g>
<!-- Tactics_path_forall_2_beta_&#45;&gt;Tactics_path_forall_recr_beta -->
<g id="edge4" class="edge">
<title>Tactics_path_forall_2_beta_&#45;&gt;Tactics_path_forall_recr_beta</title>
<path fill="none" stroke="black" d="M358.12,-628.71C379.56,-575.29 429.41,-451.12 451.33,-396.5"/>
<polygon fill="black" stroke="black" points="454.61,-397.73 455.08,-387.15 448.11,-395.12 454.61,-397.73"/>
</g>
<!-- Tactics_path_forall_recr_beta_ -->
<g id="node8" class="node">
<title>Tactics_path_forall_recr_beta_</title>
<g id="a_node8"><a xlink:href="Tactics.html#path_forall_recr_beta'" xlink:title="path_forall_recr_beta&#39;">
<ellipse fill="#f070d1" stroke="black" cx="462" cy="-109.92" rx="111.28" ry="18"/>
<text text-anchor="middle" x="462" y="-106.22" font-family="Times,serif" font-size="14.00">path_forall_recr_beta&#39;</text>
</a>
</g>
</g>
<!-- Tactics_path_forall_recr_beta&#45;&gt;Tactics_path_forall_recr_beta_ -->
<g id="edge5" class="edge">
<title>Tactics_path_forall_recr_beta&#45;&gt;Tactics_path_forall_recr_beta_</title>
<path fill="none" stroke="black" d="M462,-350.66C462,-306.86 462,-191.12 462,-138.12"/>
<polygon fill="black" stroke="black" points="465.5,-138.1 462,-128.1 458.5,-138.1 465.5,-138.1"/>
</g>
<!-- Tactics_path_forall_1_beta -->
<g id="node9" class="node">
<title>Tactics_path_forall_1_beta</title>
<g id="a_node9"><a xlink:href="Tactics.html#path_forall_1_beta" xlink:title="path_forall_1_beta">
<ellipse fill="#f070d1" stroke="black" cx="120" cy="-654.92" rx="95.58" ry="18"/>
<ellipse fill="none" stroke="black" cx="120" cy="-654.92" rx="99.58" ry="22"/>
<ellipse fill="none" stroke="black" cx="120" cy="-654.92" rx="103.58" ry="26"/>
<text text-anchor="middle" x="120" y="-651.22" font-family="Times,serif" font-size="14.00">path_forall_1_beta</text>
</a>
</g>
</g>
<!-- EvalIn_dummy_sind -->
<g id="node10" class="node">
<title>EvalIn_dummy_sind</title>
<g id="a_node10"><a xlink:href="EvalIn.html#dummy_sind" xlink:title="dummy_sind">
<ellipse fill="#f070d1" stroke="black" cx="1636" cy="-368.92" rx="69.58" ry="18"/>
<ellipse fill="none" stroke="black" cx="1636" cy="-368.92" rx="73.59" ry="22"/>
<ellipse fill="none" stroke="black" cx="1636" cy="-368.92" rx="77.59" ry="26"/>
<text text-anchor="middle" x="1636" y="-365.22" font-family="Times,serif" font-size="14.00">dummy_sind</text>
</a>
</g>
</g>
<!-- EvalIn_adummy -->
<g id="node14" class="node">
<title>EvalIn_adummy</title>
<g id="a_node14"><a xlink:href="EvalIn.html#adummy" xlink:title="adummy">
<ellipse fill="#7faaff" stroke="black" cx="1415" cy="-109.92" rx="50.89" ry="18"/>
<text text-anchor="middle" x="1415" y="-106.22" font-family="Times,serif" font-size="14.00">adummy</text>
</a>
</g>
</g>
<!-- EvalIn_dummy_sind&#45;&gt;EvalIn_adummy -->
<g id="edge6" class="edge">
<title>EvalIn_dummy_sind&#45;&gt;EvalIn_adummy</title>
<path fill="none" stroke="black" d="M1615.21,-343.74C1573.06,-294.72 1477.96,-184.13 1435.8,-135.1"/>
<polygon fill="black" stroke="black" points="1438.21,-132.54 1429.03,-127.24 1432.9,-137.1 1438.21,-132.54"/>
</g>
<!-- EvalIn_dummy -->
<g id="node15" class="node">
<title>EvalIn_dummy</title>
<g id="a_node15"><a xlink:href="EvalIn.html#dummy" xlink:title="dummy">
<ellipse fill="#e2cdfa" stroke="black" cx="1529" cy="-109.92" rx="45.49" ry="18"/>
<text text-anchor="middle" x="1529" y="-106.22" font-family="Times,serif" font-size="14.00">dummy</text>
</a>
</g>
</g>
<!-- EvalIn_dummy_sind&#45;&gt;EvalIn_dummy -->
<g id="edge7" class="edge">
<title>EvalIn_dummy_sind&#45;&gt;EvalIn_dummy</title>
<path fill="none" stroke="black" d="M1625.55,-342.81C1605.23,-294.01 1560.59,-186.8 1539.91,-137.13"/>
<polygon fill="black" stroke="black" points="1543.07,-135.61 1536,-127.72 1536.61,-138.3 1543.07,-135.61"/>
</g>
<!-- EvalIn_dummy_rec -->
<g id="node11" class="node">
<title>EvalIn_dummy_rec</title>
<g id="a_node11"><a xlink:href="EvalIn.html#dummy_rec" xlink:title="dummy_rec">
<ellipse fill="#f070d1" stroke="black" cx="1472" cy="-654.92" rx="64.21" ry="18"/>
<ellipse fill="none" stroke="black" cx="1472" cy="-654.92" rx="68.2" ry="22"/>
<ellipse fill="none" stroke="black" cx="1472" cy="-654.92" rx="72.19" ry="26"/>
<text text-anchor="middle" x="1472" y="-651.22" font-family="Times,serif" font-size="14.00">dummy_rec</text>
</a>
</g>
</g>
<!-- EvalIn_dummy_rect -->
<g id="node13" class="node">
<title>EvalIn_dummy_rect</title>
<g id="a_node13"><a xlink:href="EvalIn.html#dummy_rect" xlink:title="dummy_rect">
<ellipse fill="#f070d1" stroke="black" cx="1472" cy="-368.92" rx="68.49" ry="18"/>
<text text-anchor="middle" x="1472" y="-365.22" font-family="Times,serif" font-size="14.00">dummy_rect</text>
</a>
</g>
</g>
<!-- EvalIn_dummy_rec&#45;&gt;EvalIn_dummy_rect -->
<g id="edge8" class="edge">
<title>EvalIn_dummy_rec&#45;&gt;EvalIn_dummy_rect</title>
<path fill="none" stroke="black" d="M1472,-628.71C1472,-575.52 1472,-452.15 1472,-397.19"/>
<polygon fill="black" stroke="black" points="1475.5,-397.15 1472,-387.15 1468.5,-397.15 1475.5,-397.15"/>
</g>
<!-- EvalIn_dummy_ind -->
<g id="node12" class="node">
<title>EvalIn_dummy_ind</title>
<g id="a_node12"><a xlink:href="EvalIn.html#dummy_ind" xlink:title="dummy_ind">
<ellipse fill="#7fffd4" stroke="black" cx="1313" cy="-368.92" rx="64.21" ry="18"/>
<ellipse fill="none" stroke="black" cx="1313" cy="-368.92" rx="68.2" ry="22"/>
<ellipse fill="none" stroke="black" cx="1313" cy="-368.92" rx="72.19" ry="26"/>
<text text-anchor="middle" x="1313" y="-365.22" font-family="Times,serif" font-size="14.00">dummy_ind</text>
</a>
</g>
</g>
<!-- EvalIn_dummy_ind&#45;&gt;EvalIn_adummy -->
<g id="edge9" class="edge">
<title>EvalIn_dummy_ind&#45;&gt;EvalIn_adummy</title>
<path fill="none" stroke="black" d="M1322.97,-342.81C1342.29,-294.12 1384.68,-187.32 1404.45,-137.49"/>
<polygon fill="black" stroke="black" points="1407.77,-138.63 1408.2,-128.04 1401.26,-136.05 1407.77,-138.63"/>
</g>
<!-- EvalIn_dummy_ind&#45;&gt;EvalIn_dummy -->
<g id="edge10" class="edge">
<title>EvalIn_dummy_ind&#45;&gt;EvalIn_dummy</title>
<path fill="none" stroke="black" d="M1333.32,-343.74C1374.52,-294.72 1467.47,-184.13 1508.67,-135.1"/>
<polygon fill="black" stroke="black" points="1511.53,-137.14 1515.28,-127.24 1506.17,-132.64 1511.53,-137.14"/>
</g>
<!-- EvalIn_dummy_rect&#45;&gt;EvalIn_adummy -->
<g id="edge11" class="edge">
<title>EvalIn_dummy_rect&#45;&gt;EvalIn_adummy</title>
<path fill="none" stroke="black" d="M1468.17,-350.66C1458.46,-306.86 1432.79,-191.12 1421.03,-138.12"/>
<polygon fill="black" stroke="black" points="1424.39,-137.11 1418.81,-128.1 1417.56,-138.62 1424.39,-137.11"/>
</g>
<!-- EvalIn_dummy_rect&#45;&gt;EvalIn_dummy -->
<g id="edge12" class="edge">
<title>EvalIn_dummy_rect&#45;&gt;EvalIn_dummy</title>
<path fill="none" stroke="black" d="M1475.83,-350.66C1485.54,-306.86 1511.21,-191.12 1522.97,-138.12"/>
<polygon fill="black" stroke="black" points="1526.44,-138.62 1525.19,-128.1 1519.61,-137.11 1526.44,-138.62"/>
</g>
</g>
</svg>
