<?xml version="1.0" encoding="UTF-8" standalone="no"?>
<!DOCTYPE svg PUBLIC "-//W3C//DTD SVG 1.1//EN"
 "http://www.w3.org/Graphics/SVG/1.1/DTD/svg11.dtd">
<!-- Generated by graphviz version 2.43.0 (0)
 -->
<!-- Title: HoTT_Classes_interfaces_naturals Pages: 1 -->
<svg width="1602pt" height="805pt"
 viewBox="0.00 0.00 1602.00 805.00" xmlns="http://www.w3.org/2000/svg" xmlns:xlink="http://www.w3.org/1999/xlink">
<g id="graph0" class="graph" transform="scale(1 1) rotate(0) translate(4 801)">
<title>HoTT_Classes_interfaces_naturals</title>
<polygon fill="white" stroke="transparent" points="-4,4 -4,-801 1598,-801 1598,4 -4,4"/>
<g id="clust1" class="cluster">
<title>cluster_naturals</title>
<polygon fill="#ffffc3" stroke="black" points="8,-15.51 8,-781.49 1586,-781.49 1586,-15.51 8,-15.51"/>
<text text-anchor="middle" x="46" y="-766.29" font-family="Times,serif" font-size="14.00">naturals</text>
</g>
<!-- naturals_nat_distance -->
<g id="node1" class="node">
<title>naturals_nat_distance</title>
<g id="a_node1"><a xlink:href="naturals.html#nat_distance" xlink:title="nat_distance">
<ellipse fill="#f070d1" stroke="black" cx="1491" cy="-670.51" rx="69.58" ry="18"/>
<ellipse fill="none" stroke="black" cx="1491" cy="-670.51" rx="73.59" ry="22"/>
<ellipse fill="none" stroke="black" cx="1491" cy="-670.51" rx="77.59" ry="26"/>
<text text-anchor="middle" x="1491" y="-666.81" font-family="Times,serif" font-size="14.00">nat_distance</text>
</a>
</g>
</g>
<!-- naturals_nat_distance_sig -->
<g id="node2" class="node">
<title>naturals_nat_distance_sig</title>
<g id="a_node2"><a xlink:href="naturals.html#nat_distance_sig" xlink:title="nat_distance_sig">
<ellipse fill="#f070d1" stroke="black" cx="1491" cy="-500.51" rx="87.18" ry="18"/>
<text text-anchor="middle" x="1491" y="-496.81" font-family="Times,serif" font-size="14.00">nat_distance_sig</text>
</a>
</g>
</g>
<!-- naturals_nat_distance&#45;&gt;naturals_nat_distance_sig -->
<g id="edge1" class="edge">
<title>naturals_nat_distance&#45;&gt;naturals_nat_distance_sig</title>
<path fill="none" stroke="black" d="M1491,-644.36C1491,-613.41 1491,-561.04 1491,-529.04"/>
<polygon fill="black" stroke="black" points="1494.5,-528.64 1491,-518.64 1487.5,-528.64 1494.5,-528.64"/>
</g>
<!-- naturals_NatDistance -->
<g id="node3" class="node">
<title>naturals_NatDistance</title>
<g id="a_node3"><a xlink:href="naturals.html#NatDistance" xlink:title="NatDistance">
<ellipse fill="#f070d1" stroke="black" cx="1491" cy="-345.51" rx="68.49" ry="18"/>
<text text-anchor="middle" x="1491" y="-341.81" font-family="Times,serif" font-size="14.00">NatDistance</text>
</a>
</g>
</g>
<!-- naturals_nat_distance_sig&#45;&gt;naturals_NatDistance -->
<g id="edge2" class="edge">
<title>naturals_nat_distance_sig&#45;&gt;naturals_NatDistance</title>
<path fill="none" stroke="black" d="M1491,-482.26C1491,-455.97 1491,-405.64 1491,-374.2"/>
<polygon fill="black" stroke="black" points="1494.5,-373.94 1491,-363.94 1487.5,-373.94 1494.5,-373.94"/>
</g>
<!-- naturals_naturals_initial -->
<g id="node4" class="node">
<title>naturals_naturals_initial</title>
<g id="a_node4"><a xlink:href="naturals.html#naturals_initial" xlink:title="naturals_initial">
<ellipse fill="#f070d1" stroke="black" cx="926" cy="-500.51" rx="80.68" ry="18"/>
<ellipse fill="none" stroke="black" cx="926" cy="-500.51" rx="84.68" ry="22"/>
<ellipse fill="none" stroke="black" cx="926" cy="-500.51" rx="88.69" ry="26"/>
<text text-anchor="middle" x="926" y="-496.81" font-family="Times,serif" font-size="14.00">naturals_initial</text>
</a>
</g>
</g>
<!-- naturals_Naturals -->
<g id="node13" class="node">
<title>naturals_Naturals</title>
<g id="a_node13"><a xlink:href="naturals.html#Naturals" xlink:title="Naturals">
<ellipse fill="#e2cdfa" stroke="black" cx="564" cy="-345.51" rx="51.19" ry="18"/>
<text text-anchor="middle" x="564" y="-341.81" font-family="Times,serif" font-size="14.00">Naturals</text>
</a>
</g>
</g>
<!-- naturals_naturals_initial&#45;&gt;naturals_Naturals -->
<g id="edge3" class="edge">
<title>naturals_naturals_initial&#45;&gt;naturals_Naturals</title>
<path fill="none" stroke="black" d="M876.8,-478.72C804.76,-448.27 671.87,-392.1 604.88,-363.79"/>
<polygon fill="black" stroke="black" points="606.06,-360.49 595.49,-359.82 603.34,-366.94 606.06,-360.49"/>
</g>
<!-- naturals_naturals_to_semiring_mor -->
<g id="node5" class="node">
<title>naturals_naturals_to_semiring_mor</title>
<g id="a_node5"><a xlink:href="naturals.html#naturals_to_semiring_mor" xlink:title="naturals_to_semiring_mor">
<ellipse fill="#f070d1" stroke="black" cx="680" cy="-500.51" rx="131.09" ry="18"/>
<ellipse fill="none" stroke="black" cx="680" cy="-500.51" rx="135.08" ry="22"/>
<ellipse fill="none" stroke="black" cx="680" cy="-500.51" rx="139.08" ry="26"/>
<text text-anchor="middle" x="680" y="-496.81" font-family="Times,serif" font-size="14.00">naturals_to_semiring_mor</text>
</a>
</g>
</g>
<!-- naturals_naturals_to_semiring_mor&#45;&gt;naturals_Naturals -->
<g id="edge4" class="edge">
<title>naturals_naturals_to_semiring_mor&#45;&gt;naturals_Naturals</title>
<path fill="none" stroke="black" d="M661.1,-474.59C639.58,-446.2 604.6,-400.06 583.02,-371.6"/>
<polygon fill="black" stroke="black" points="585.61,-369.23 576.78,-363.37 580.04,-373.46 585.61,-369.23"/>
</g>
<!-- naturals_naturals_order -->
<g id="node6" class="node">
<title>naturals_naturals_order</title>
<g id="a_node6"><a xlink:href="naturals.html#naturals_order" xlink:title="naturals_order">
<ellipse fill="#f070d1" stroke="black" cx="1299" cy="-500.51" rx="79.11" ry="18"/>
<ellipse fill="none" stroke="black" cx="1299" cy="-500.51" rx="83.1" ry="22"/>
<ellipse fill="none" stroke="black" cx="1299" cy="-500.51" rx="87.09" ry="26"/>
<text text-anchor="middle" x="1299" y="-496.81" font-family="Times,serif" font-size="14.00">naturals_order</text>
</a>
</g>
</g>
<!-- naturals_naturals_order&#45;&gt;naturals_Naturals -->
<g id="edge5" class="edge">
<title>naturals_naturals_order&#45;&gt;naturals_Naturals</title>
<path fill="none" stroke="black" d="M1235.87,-482.53C1224.93,-479.74 1213.66,-476.97 1203,-474.51 987.82,-424.99 729.36,-376.58 618.66,-356.37"/>
<polygon fill="black" stroke="black" points="619.2,-352.91 608.73,-354.56 617.94,-359.8 619.2,-352.91"/>
</g>
<!-- naturals_naturals_ring -->
<g id="node7" class="node">
<title>naturals_naturals_ring</title>
<g id="a_node7"><a xlink:href="naturals.html#naturals_ring" xlink:title="naturals_ring">
<ellipse fill="#f070d1" stroke="black" cx="1113" cy="-500.51" rx="72.61" ry="18"/>
<ellipse fill="none" stroke="black" cx="1113" cy="-500.51" rx="76.6" ry="22"/>
<ellipse fill="none" stroke="black" cx="1113" cy="-500.51" rx="80.59" ry="26"/>
<text text-anchor="middle" x="1113" y="-496.81" font-family="Times,serif" font-size="14.00">naturals_ring</text>
</a>
</g>
</g>
<!-- naturals_naturals_ring&#45;&gt;naturals_Naturals -->
<g id="edge6" class="edge">
<title>naturals_naturals_ring&#45;&gt;naturals_Naturals</title>
<path fill="none" stroke="black" d="M1053.64,-482.82C1043.74,-480.04 1033.58,-477.19 1024,-474.51 874.21,-432.64 696.9,-383.39 612.86,-360.07"/>
<polygon fill="black" stroke="black" points="613.66,-356.66 603.08,-357.35 611.78,-363.4 613.66,-356.66"/>
</g>
<!-- naturals_Naturals_sind -->
<g id="node8" class="node">
<title>naturals_Naturals_sind</title>
<g id="a_node8"><a xlink:href="naturals.html#Naturals_sind" xlink:title="Naturals_sind">
<ellipse fill="#f070d1" stroke="black" cx="99" cy="-500.51" rx="75.3" ry="18"/>
<ellipse fill="none" stroke="black" cx="99" cy="-500.51" rx="79.29" ry="22"/>
<ellipse fill="none" stroke="black" cx="99" cy="-500.51" rx="83.29" ry="26"/>
<text text-anchor="middle" x="99" y="-496.81" font-family="Times,serif" font-size="14.00">Naturals_sind</text>
</a>
</g>
</g>
<!-- naturals_Build_Naturals -->
<g id="node12" class="node">
<title>naturals_Build_Naturals</title>
<g id="a_node12"><a xlink:href="naturals.html#Build_Naturals" xlink:title="Build_Naturals">
<ellipse fill="#7faaff" stroke="black" cx="347" cy="-345.51" rx="79.89" ry="18"/>
<text text-anchor="middle" x="347" y="-341.81" font-family="Times,serif" font-size="14.00">Build_Naturals</text>
</a>
</g>
</g>
<!-- naturals_Naturals_sind&#45;&gt;naturals_Build_Naturals -->
<g id="edge7" class="edge">
<title>naturals_Naturals_sind&#45;&gt;naturals_Build_Naturals</title>
<path fill="none" stroke="black" d="M135.33,-477.1C182.85,-447.78 265.55,-396.76 312.27,-367.94"/>
<polygon fill="black" stroke="black" points="314.16,-370.88 320.84,-362.65 310.49,-364.93 314.16,-370.88"/>
</g>
<!-- naturals_Naturals_sind&#45;&gt;naturals_Naturals -->
<g id="edge8" class="edge">
<title>naturals_Naturals_sind&#45;&gt;naturals_Naturals</title>
<path fill="none" stroke="black" d="M155.09,-481.06C248.03,-450.48 432.21,-389.88 518.01,-361.64"/>
<polygon fill="black" stroke="black" points="519.33,-364.9 527.73,-358.45 517.14,-358.25 519.33,-364.9"/>
</g>
<!-- naturals_Naturals_rec -->
<g id="node9" class="node">
<title>naturals_Naturals_rec</title>
<g id="a_node9"><a xlink:href="naturals.html#Naturals_rec" xlink:title="Naturals_rec">
<ellipse fill="#f070d1" stroke="black" cx="449" cy="-670.51" rx="70.37" ry="18"/>
<ellipse fill="none" stroke="black" cx="449" cy="-670.51" rx="74.38" ry="22"/>
<ellipse fill="none" stroke="black" cx="449" cy="-670.51" rx="78.39" ry="26"/>
<text text-anchor="middle" x="449" y="-666.81" font-family="Times,serif" font-size="14.00">Naturals_rec</text>
</a>
</g>
</g>
<!-- naturals_Naturals_rect -->
<g id="node11" class="node">
<title>naturals_Naturals_rect</title>
<g id="a_node11"><a xlink:href="naturals.html#Naturals_rect" xlink:title="Naturals_rect">
<ellipse fill="#f070d1" stroke="black" cx="449" cy="-500.51" rx="74.19" ry="18"/>
<text text-anchor="middle" x="449" y="-496.81" font-family="Times,serif" font-size="14.00">Naturals_rect</text>
</a>
</g>
</g>
<!-- naturals_Naturals_rec&#45;&gt;naturals_Naturals_rect -->
<g id="edge9" class="edge">
<title>naturals_Naturals_rec&#45;&gt;naturals_Naturals_rect</title>
<path fill="none" stroke="black" d="M449,-644.36C449,-613.41 449,-561.04 449,-529.04"/>
<polygon fill="black" stroke="black" points="452.5,-528.64 449,-518.64 445.5,-528.64 452.5,-528.64"/>
</g>
<!-- naturals_Naturals_ind -->
<g id="node10" class="node">
<title>naturals_Naturals_ind</title>
<g id="a_node10"><a xlink:href="naturals.html#Naturals_ind" xlink:title="Naturals_ind">
<ellipse fill="#7fffd4" stroke="black" cx="279" cy="-500.51" rx="70.37" ry="18"/>
<ellipse fill="none" stroke="black" cx="279" cy="-500.51" rx="74.38" ry="22"/>
<ellipse fill="none" stroke="black" cx="279" cy="-500.51" rx="78.39" ry="26"/>
<text text-anchor="middle" x="279" y="-496.81" font-family="Times,serif" font-size="14.00">Naturals_ind</text>
</a>
</g>
</g>
<!-- naturals_Naturals_ind&#45;&gt;naturals_Build_Naturals -->
<g id="edge10" class="edge">
<title>naturals_Naturals_ind&#45;&gt;naturals_Build_Naturals</title>
<path fill="none" stroke="black" d="M290.08,-474.59C302.47,-446.72 322.45,-401.74 335.15,-373.18"/>
<polygon fill="black" stroke="black" points="338.45,-374.37 339.31,-363.81 332.05,-371.53 338.45,-374.37"/>
</g>
<!-- naturals_Naturals_ind&#45;&gt;naturals_Naturals -->
<g id="edge11" class="edge">
<title>naturals_Naturals_ind&#45;&gt;naturals_Naturals</title>
<path fill="none" stroke="black" d="M318.93,-478.08C374.57,-448.21 474.59,-394.51 528.03,-365.82"/>
<polygon fill="black" stroke="black" points="529.98,-368.75 537.13,-360.94 526.67,-362.58 529.98,-368.75"/>
</g>
<!-- naturals_Naturals_rect&#45;&gt;naturals_Build_Naturals -->
<g id="edge12" class="edge">
<title>naturals_Naturals_rect&#45;&gt;naturals_Build_Naturals</title>
<path fill="none" stroke="black" d="M437.69,-482.56C419.85,-455.79 385.04,-403.57 364.12,-372.19"/>
<polygon fill="black" stroke="black" points="366.82,-369.93 358.36,-363.55 360.99,-373.81 366.82,-369.93"/>
</g>
<!-- naturals_Naturals_rect&#45;&gt;naturals_Naturals -->
<g id="edge13" class="edge">
<title>naturals_Naturals_rect&#45;&gt;naturals_Naturals</title>
<path fill="none" stroke="black" d="M461.75,-482.56C482.06,-455.53 521.87,-402.56 545.38,-371.29"/>
<polygon fill="black" stroke="black" points="548.34,-373.18 551.55,-363.08 542.74,-368.97 548.34,-373.18"/>
</g>
<!-- naturals_naturals_to_semiring -->
<g id="node14" class="node">
<title>naturals_naturals_to_semiring</title>
<g id="a_node14"><a xlink:href="naturals.html#naturals_to_semiring" xlink:title="naturals_to_semiring">
<ellipse fill="#f070d1" stroke="black" cx="432" cy="-205.51" rx="108.58" ry="18"/>
<text text-anchor="middle" x="432" y="-201.81" font-family="Times,serif" font-size="14.00">naturals_to_semiring</text>
</a>
</g>
</g>
<!-- naturals_Build_Naturals&#45;&gt;naturals_naturals_to_semiring -->
<g id="edge14" class="edge">
<title>naturals_Build_Naturals&#45;&gt;naturals_naturals_to_semiring</title>
<path fill="none" stroke="black" d="M357.42,-327.59C372.08,-303.8 398.91,-260.24 416.07,-232.37"/>
<polygon fill="black" stroke="black" points="419.23,-233.92 421.49,-223.57 413.27,-230.25 419.23,-233.92"/>
</g>
<!-- naturals_Naturals&#45;&gt;naturals_naturals_to_semiring -->
<g id="edge15" class="edge">
<title>naturals_Naturals&#45;&gt;naturals_naturals_to_semiring</title>
<path fill="none" stroke="black" d="M548.34,-328.14C525.37,-304.13 482.36,-259.17 455.57,-231.15"/>
<polygon fill="black" stroke="black" points="457.91,-228.54 448.47,-223.73 452.85,-233.38 457.91,-228.54"/>
</g>
<!-- naturals_NaturalsToSemiRing -->
<g id="node15" class="node">
<title>naturals_NaturalsToSemiRing</title>
<g id="a_node15"><a xlink:href="naturals.html#NaturalsToSemiRing" xlink:title="NaturalsToSemiRing">
<ellipse fill="#f070d1" stroke="black" cx="432" cy="-65.51" rx="106.68" ry="18"/>
<text text-anchor="middle" x="432" y="-61.81" font-family="Times,serif" font-size="14.00">NaturalsToSemiRing</text>
</a>
</g>
</g>
<!-- naturals_naturals_to_semiring&#45;&gt;naturals_NaturalsToSemiRing -->
<g id="edge16" class="edge">
<title>naturals_naturals_to_semiring&#45;&gt;naturals_NaturalsToSemiRing</title>
<path fill="none" stroke="black" d="M432,-187.31C432,-163.97 432,-121.98 432,-94.17"/>
<polygon fill="black" stroke="black" points="435.5,-93.93 432,-83.93 428.5,-93.93 435.5,-93.93"/>
</g>
</g>
</svg>
