<?xml version="1.0" encoding="UTF-8" standalone="no"?>
<!DOCTYPE svg PUBLIC "-//W3C//DTD SVG 1.1//EN"
 "http://www.w3.org/Graphics/SVG/1.1/DTD/svg11.dtd">
<!-- Generated by graphviz version 2.43.0 (0)
 -->
<!-- Title: HoTT_Spaces_Nat_Factorial Pages: 1 -->
<svg width="1438pt" height="723pt"
 viewBox="0.00 0.00 1438.00 723.00" xmlns="http://www.w3.org/2000/svg" xmlns:xlink="http://www.w3.org/1999/xlink">
<g id="graph0" class="graph" transform="scale(1 1) rotate(0) translate(4 719)">
<title>HoTT_Spaces_Nat_Factorial</title>
<polygon fill="white" stroke="transparent" points="-4,4 -4,-719 1434,-719 1434,4 -4,4"/>
<g id="clust1" class="cluster">
<title>cluster_Factorial</title>
<polygon fill="#ffffc3" stroke="black" points="8,-16.87 8,-698.13 1422,-698.13 1422,-16.87 8,-16.87"/>
<text text-anchor="middle" x="48" y="-682.93" font-family="Times,serif" font-size="14.00">Factorial</text>
</g>
<!-- Factorial_nat_divides_factorial_mul_factorial_add_ -->
<g id="node1" class="node">
<title>Factorial_nat_divides_factorial_mul_factorial_add_</title>
<g id="a_node1"><a xlink:href="Factorial.html#nat_divides_factorial_mul_factorial_add'" xlink:title="nat_divides_factorial_mul_factorial_add&#39;">
<ellipse fill="#f070d1" stroke="black" cx="1211" cy="-577.87" rx="194.97" ry="18"/>
<ellipse fill="none" stroke="black" cx="1211" cy="-577.87" rx="198.97" ry="22"/>
<ellipse fill="none" stroke="black" cx="1211" cy="-577.87" rx="202.97" ry="26"/>
<text text-anchor="middle" x="1211" y="-574.17" font-family="Times,serif" font-size="14.00">nat_divides_factorial_mul_factorial_add&#39;</text>
</a>
</g>
</g>
<!-- Factorial_nat_divides_factorial_mul_factorial_add -->
<g id="node2" class="node">
<title>Factorial_nat_divides_factorial_mul_factorial_add</title>
<g id="a_node2"><a xlink:href="Factorial.html#nat_divides_factorial_mul_factorial_add" xlink:title="nat_divides_factorial_mul_factorial_add">
<ellipse fill="#f070d1" stroke="black" cx="1216" cy="-408.87" rx="192.27" ry="18"/>
<text text-anchor="middle" x="1216" y="-405.17" font-family="Times,serif" font-size="14.00">nat_divides_factorial_mul_factorial_add</text>
</a>
</g>
</g>
<!-- Factorial_nat_divides_factorial_mul_factorial_add_&#45;&gt;Factorial_nat_divides_factorial_mul_factorial_add -->
<g id="edge1" class="edge">
<title>Factorial_nat_divides_factorial_mul_factorial_add_&#45;&gt;Factorial_nat_divides_factorial_mul_factorial_add</title>
<path fill="none" stroke="black" d="M1211.75,-551.87C1212.67,-521.1 1214.23,-469.04 1215.18,-437.23"/>
<polygon fill="black" stroke="black" points="1218.69,-436.99 1215.49,-426.89 1211.69,-436.78 1218.69,-436.99"/>
</g>
<!-- Factorial_nat_factorial_succ -->
<g id="node9" class="node">
<title>Factorial_nat_factorial_succ</title>
<g id="a_node9"><a xlink:href="Factorial.html#nat_factorial_succ" xlink:title="nat_factorial_succ">
<ellipse fill="#f070d1" stroke="black" cx="1320" cy="-240.87" rx="93.68" ry="18"/>
<text text-anchor="middle" x="1320" y="-237.17" font-family="Times,serif" font-size="14.00">nat_factorial_succ</text>
</a>
</g>
</g>
<!-- Factorial_nat_divides_factorial_mul_factorial_add&#45;&gt;Factorial_nat_factorial_succ -->
<g id="edge2" class="edge">
<title>Factorial_nat_divides_factorial_mul_factorial_add&#45;&gt;Factorial_nat_factorial_succ</title>
<path fill="none" stroke="black" d="M1226.74,-390.73C1245.03,-361.53 1282.34,-301.98 1303.81,-267.71"/>
<polygon fill="black" stroke="black" points="1306.82,-269.5 1309.16,-259.17 1300.89,-265.78 1306.82,-269.5"/>
</g>
<!-- Factorial_nat_divides_factorial_lt -->
<g id="node3" class="node">
<title>Factorial_nat_divides_factorial_lt</title>
<g id="a_node3"><a xlink:href="Factorial.html#nat_divides_factorial_lt" xlink:title="nat_divides_factorial_lt">
<ellipse fill="#f070d1" stroke="black" cx="1083" cy="-240.87" rx="117.77" ry="18"/>
<ellipse fill="none" stroke="black" cx="1083" cy="-240.87" rx="121.77" ry="22"/>
<ellipse fill="none" stroke="black" cx="1083" cy="-240.87" rx="125.78" ry="26"/>
<text text-anchor="middle" x="1083" y="-237.17" font-family="Times,serif" font-size="14.00">nat_divides_factorial_lt</text>
</a>
</g>
</g>
<!-- Factorial_factorial -->
<g id="node11" class="node">
<title>Factorial_factorial</title>
<g id="a_node11"><a xlink:href="Factorial.html#factorial" xlink:title="factorial">
<ellipse fill="#f070d1" stroke="black" cx="669" cy="-71.87" rx="49.29" ry="18"/>
<text text-anchor="middle" x="669" y="-68.17" font-family="Times,serif" font-size="14.00">factorial</text>
</a>
</g>
</g>
<!-- Factorial_nat_divides_factorial_lt&#45;&gt;Factorial_factorial -->
<g id="edge3" class="edge">
<title>Factorial_nat_divides_factorial_lt&#45;&gt;Factorial_factorial</title>
<path fill="none" stroke="black" d="M1027.6,-217.52C943.46,-183.59 785.36,-119.81 710.42,-89.58"/>
<polygon fill="black" stroke="black" points="711.43,-86.21 700.84,-85.72 708.81,-92.71 711.43,-86.21"/>
</g>
<!-- Factorial_nat_divides_factorial_factor -->
<g id="node4" class="node">
<title>Factorial_nat_divides_factorial_factor</title>
<g id="a_node4"><a xlink:href="Factorial.html#nat_divides_factorial_factor" xlink:title="nat_divides_factorial_factor">
<ellipse fill="#f070d1" stroke="black" cx="794" cy="-240.87" rx="137.59" ry="18"/>
<ellipse fill="none" stroke="black" cx="794" cy="-240.87" rx="141.58" ry="22"/>
<ellipse fill="none" stroke="black" cx="794" cy="-240.87" rx="145.58" ry="26"/>
<text text-anchor="middle" x="794" y="-237.17" font-family="Times,serif" font-size="14.00">nat_divides_factorial_factor</text>
</a>
</g>
</g>
<!-- Factorial_nat_divides_factorial_factor&#45;&gt;Factorial_factorial -->
<g id="edge4" class="edge">
<title>Factorial_nat_divides_factorial_factor&#45;&gt;Factorial_factorial</title>
<path fill="none" stroke="black" d="M775.29,-214.87C751.63,-183.27 711.15,-129.19 687.57,-97.68"/>
<polygon fill="black" stroke="black" points="690.18,-95.34 681.39,-89.43 684.58,-99.53 690.18,-95.34"/>
</g>
<!-- Factorial_nat_factorial_strictly_monotone -->
<g id="node5" class="node">
<title>Factorial_nat_factorial_strictly_monotone</title>
<g id="a_node5"><a xlink:href="Factorial.html#nat_factorial_strictly_monotone" xlink:title="nat_factorial_strictly_monotone">
<ellipse fill="#f070d1" stroke="black" cx="545" cy="-577.87" rx="156.77" ry="18"/>
<ellipse fill="none" stroke="black" cx="545" cy="-577.87" rx="160.77" ry="22"/>
<ellipse fill="none" stroke="black" cx="545" cy="-577.87" rx="164.77" ry="26"/>
<text text-anchor="middle" x="545" y="-574.17" font-family="Times,serif" font-size="14.00">nat_factorial_strictly_monotone</text>
</a>
</g>
</g>
<!-- Factorial_nat_factorial_strictly_monotone_succ -->
<g id="node6" class="node">
<title>Factorial_nat_factorial_strictly_monotone_succ</title>
<g id="a_node6"><a xlink:href="Factorial.html#nat_factorial_strictly_monotone_succ" xlink:title="nat_factorial_strictly_monotone_succ">
<ellipse fill="#f070d1" stroke="black" cx="545" cy="-408.87" rx="181.17" ry="18"/>
<text text-anchor="middle" x="545" y="-405.17" font-family="Times,serif" font-size="14.00">nat_factorial_strictly_monotone_succ</text>
</a>
</g>
</g>
<!-- Factorial_nat_factorial_strictly_monotone&#45;&gt;Factorial_nat_factorial_strictly_monotone_succ -->
<g id="edge5" class="edge">
<title>Factorial_nat_factorial_strictly_monotone&#45;&gt;Factorial_nat_factorial_strictly_monotone_succ</title>
<path fill="none" stroke="black" d="M545,-551.87C545,-521.1 545,-469.04 545,-437.23"/>
<polygon fill="black" stroke="black" points="548.5,-436.89 545,-426.89 541.5,-436.89 548.5,-436.89"/>
</g>
<!-- Factorial_lt_zero_factorial -->
<g id="node7" class="node">
<title>Factorial_lt_zero_factorial</title>
<g id="a_node7"><a xlink:href="Factorial.html#lt_zero_factorial" xlink:title="lt_zero_factorial">
<ellipse fill="#f070d1" stroke="black" cx="545" cy="-240.87" rx="85.29" ry="18"/>
<text text-anchor="middle" x="545" y="-237.17" font-family="Times,serif" font-size="14.00">lt_zero_factorial</text>
</a>
</g>
</g>
<!-- Factorial_nat_factorial_strictly_monotone_succ&#45;&gt;Factorial_lt_zero_factorial -->
<g id="edge6" class="edge">
<title>Factorial_nat_factorial_strictly_monotone_succ&#45;&gt;Factorial_lt_zero_factorial</title>
<path fill="none" stroke="black" d="M545,-390.73C545,-362.03 545,-304 545,-269.48"/>
<polygon fill="black" stroke="black" points="548.5,-269.17 545,-259.17 541.5,-269.17 548.5,-269.17"/>
</g>
<!-- Factorial_lt_zero_factorial&#45;&gt;Factorial_factorial -->
<g id="edge7" class="edge">
<title>Factorial_lt_zero_factorial&#45;&gt;Factorial_factorial</title>
<path fill="none" stroke="black" d="M557.57,-222.94C579.6,-193.28 625.23,-131.82 650.74,-97.47"/>
<polygon fill="black" stroke="black" points="653.61,-99.47 656.76,-89.35 647.99,-95.3 653.61,-99.47"/>
</g>
<!-- Factorial_nat_factorial_pred -->
<g id="node8" class="node">
<title>Factorial_nat_factorial_pred</title>
<g id="a_node8"><a xlink:href="Factorial.html#nat_factorial_pred" xlink:title="nat_factorial_pred">
<ellipse fill="#f070d1" stroke="black" cx="339" cy="-240.87" rx="94.79" ry="18"/>
<ellipse fill="none" stroke="black" cx="339" cy="-240.87" rx="98.79" ry="22"/>
<ellipse fill="none" stroke="black" cx="339" cy="-240.87" rx="102.78" ry="26"/>
<text text-anchor="middle" x="339" y="-237.17" font-family="Times,serif" font-size="14.00">nat_factorial_pred</text>
</a>
</g>
</g>
<!-- Factorial_nat_factorial_pred&#45;&gt;Factorial_factorial -->
<g id="edge8" class="edge">
<title>Factorial_nat_factorial_pred&#45;&gt;Factorial_factorial</title>
<path fill="none" stroke="black" d="M383.51,-217.35C449.13,-184.14 570.69,-122.63 631.83,-91.68"/>
<polygon fill="black" stroke="black" points="633.76,-94.63 641.11,-86.99 630.6,-88.38 633.76,-94.63"/>
</g>
<!-- Factorial_nat_factorial_succ&#45;&gt;Factorial_factorial -->
<g id="edge9" class="edge">
<title>Factorial_nat_factorial_succ&#45;&gt;Factorial_factorial</title>
<path fill="none" stroke="black" d="M1266.17,-226.06C1142.15,-194.25 837.77,-116.17 718.28,-85.52"/>
<polygon fill="black" stroke="black" points="718.87,-82.05 708.32,-82.96 717.13,-88.83 718.87,-82.05"/>
</g>
<!-- Factorial_nat_factorial_zero -->
<g id="node10" class="node">
<title>Factorial_nat_factorial_zero</title>
<g id="a_node10"><a xlink:href="Factorial.html#nat_factorial_zero" xlink:title="nat_factorial_zero">
<ellipse fill="#f070d1" stroke="black" cx="117" cy="-240.87" rx="92.89" ry="18"/>
<ellipse fill="none" stroke="black" cx="117" cy="-240.87" rx="96.89" ry="22"/>
<ellipse fill="none" stroke="black" cx="117" cy="-240.87" rx="100.88" ry="26"/>
<text text-anchor="middle" x="117" y="-237.17" font-family="Times,serif" font-size="14.00">nat_factorial_zero</text>
</a>
</g>
</g>
<!-- Factorial_nat_factorial_zero&#45;&gt;Factorial_factorial -->
<g id="edge10" class="edge">
<title>Factorial_nat_factorial_zero&#45;&gt;Factorial_factorial</title>
<path fill="none" stroke="black" d="M180.59,-220.63C292.83,-186.68 523.52,-116.89 622.36,-86.98"/>
<polygon fill="black" stroke="black" points="623.51,-90.29 632.07,-84.05 621.49,-83.59 623.51,-90.29"/>
</g>
</g>
</svg>
