<?xml version="1.0" encoding="UTF-8" standalone="no"?>
<!DOCTYPE svg PUBLIC "-//W3C//DTD SVG 1.1//EN"
 "http://www.w3.org/Graphics/SVG/1.1/DTD/svg11.dtd">
<!-- Generated by graphviz version 2.43.0 (0)
 -->
<!-- Title: HoTT_Basics_Decidable Pages: 1 -->
<svg width="2840pt" height="1424pt"
 viewBox="0.00 0.00 2840.00 1424.00" xmlns="http://www.w3.org/2000/svg" xmlns:xlink="http://www.w3.org/1999/xlink">
<g id="graph0" class="graph" transform="scale(1 1) rotate(0) translate(4 1420)">
<title>HoTT_Basics_Decidable</title>
<polygon fill="white" stroke="transparent" points="-4,4 -4,-1420 2836,-1420 2836,4 -4,4"/>
<g id="clust1" class="cluster">
<title>cluster_Decidable</title>
<polygon fill="#ffffc3" stroke="black" points="8,-22 8,-1394 2824,-1394 2824,-22 8,-22"/>
<text text-anchor="middle" x="51.5" y="-1378.8" font-family="Times,serif" font-size="14.00">Decidable</text>
</g>
<!-- Decidable_ishprop_decpaths -->
<g id="node1" class="node">
<title>Decidable_ishprop_decpaths</title>
<g id="a_node1"><a xlink:href="Decidable.html#ishprop_decpaths" xlink:title="ishprop_decpaths">
<ellipse fill="#f070d1" stroke="black" cx="2488" cy="-1237" rx="92.1" ry="18"/>
<ellipse fill="none" stroke="black" cx="2488" cy="-1237" rx="96.09" ry="22"/>
<ellipse fill="none" stroke="black" cx="2488" cy="-1237" rx="100.08" ry="26"/>
<text text-anchor="middle" x="2488" y="-1233.3" font-family="Times,serif" font-size="14.00">ishprop_decpaths</text>
</a>
</g>
</g>
<!-- Decidable_hset_pathcoll -->
<g id="node5" class="node">
<title>Decidable_hset_pathcoll</title>
<g id="a_node5"><a xlink:href="Decidable.html#hset_pathcoll" xlink:title="hset_pathcoll">
<ellipse fill="#f070d1" stroke="black" cx="2544" cy="-1017" rx="72.29" ry="18"/>
<text text-anchor="middle" x="2544" y="-1013.3" font-family="Times,serif" font-size="14.00">hset_pathcoll</text>
</a>
</g>
</g>
<!-- Decidable_ishprop_decpaths&#45;&gt;Decidable_hset_pathcoll -->
<g id="edge1" class="edge">
<title>Decidable_ishprop_decpaths&#45;&gt;Decidable_hset_pathcoll</title>
<path fill="none" stroke="black" d="M2494.42,-1210.99C2505.02,-1169.75 2526.07,-1087.8 2537.02,-1045.18"/>
<polygon fill="black" stroke="black" points="2540.47,-1045.8 2539.57,-1035.24 2533.69,-1044.05 2540.47,-1045.8"/>
</g>
<!-- Decidable_pathcoll_decpaths -->
<g id="node6" class="node">
<title>Decidable_pathcoll_decpaths</title>
<g id="a_node6"><a xlink:href="Decidable.html#pathcoll_decpaths" xlink:title="pathcoll_decpaths">
<ellipse fill="#f070d1" stroke="black" cx="1851" cy="-797" rx="94.48" ry="18"/>
<text text-anchor="middle" x="1851" y="-793.3" font-family="Times,serif" font-size="14.00">pathcoll_decpaths</text>
</a>
</g>
</g>
<!-- Decidable_ishprop_decpaths&#45;&gt;Decidable_pathcoll_decpaths -->
<g id="edge2" class="edge">
<title>Decidable_ishprop_decpaths&#45;&gt;Decidable_pathcoll_decpaths</title>
<path fill="none" stroke="black" d="M2453.75,-1212.45C2342.42,-1135.89 1991.66,-894.71 1883.25,-820.17"/>
<polygon fill="black" stroke="black" points="1885.21,-817.27 1874.98,-814.49 1881.24,-823.04 1885.21,-817.27"/>
</g>
<!-- Decidable_hset_decpaths -->
<g id="node2" class="node">
<title>Decidable_hset_decpaths</title>
<g id="a_node2"><a xlink:href="Decidable.html#hset_decpaths" xlink:title="hset_decpaths">
<ellipse fill="#f070d1" stroke="black" cx="2228" cy="-1237" rx="77.2" ry="18"/>
<ellipse fill="none" stroke="black" cx="2228" cy="-1237" rx="81.19" ry="22"/>
<ellipse fill="none" stroke="black" cx="2228" cy="-1237" rx="85.19" ry="26"/>
<text text-anchor="middle" x="2228" y="-1233.3" font-family="Times,serif" font-size="14.00">hset_decpaths</text>
</a>
</g>
</g>
<!-- Decidable_hset_decpaths&#45;&gt;Decidable_hset_pathcoll -->
<g id="edge3" class="edge">
<title>Decidable_hset_decpaths&#45;&gt;Decidable_hset_pathcoll</title>
<path fill="none" stroke="black" d="M2261.52,-1212.87C2322.83,-1170.57 2452.26,-1081.28 2512.24,-1039.9"/>
<polygon fill="black" stroke="black" points="2514.33,-1042.72 2520.57,-1034.16 2510.35,-1036.95 2514.33,-1042.72"/>
</g>
<!-- Decidable_hset_decpaths&#45;&gt;Decidable_pathcoll_decpaths -->
<g id="edge4" class="edge">
<title>Decidable_hset_decpaths&#45;&gt;Decidable_pathcoll_decpaths</title>
<path fill="none" stroke="black" d="M2206.92,-1211.51C2140.94,-1134.85 1938.81,-900.02 1872.4,-822.85"/>
<polygon fill="black" stroke="black" points="1874.87,-820.36 1865.69,-815.06 1869.56,-824.93 1874.87,-820.36"/>
</g>
<!-- Decidable_pathcoll_hset -->
<g id="node3" class="node">
<title>Decidable_pathcoll_hset</title>
<g id="a_node3"><a xlink:href="Decidable.html#pathcoll_hset" xlink:title="pathcoll_hset">
<ellipse fill="#f070d1" stroke="black" cx="2345" cy="-797" rx="72.27" ry="18"/>
<ellipse fill="none" stroke="black" cx="2345" cy="-797" rx="76.28" ry="22"/>
<ellipse fill="none" stroke="black" cx="2345" cy="-797" rx="80.29" ry="26"/>
<text text-anchor="middle" x="2345" y="-793.3" font-family="Times,serif" font-size="14.00">pathcoll_hset</text>
</a>
</g>
</g>
<!-- Decidable_collapsible_hprop -->
<g id="node4" class="node">
<title>Decidable_collapsible_hprop</title>
<g id="a_node4"><a xlink:href="Decidable.html#collapsible_hprop" xlink:title="collapsible_hprop">
<ellipse fill="#f070d1" stroke="black" cx="2296" cy="-555" rx="91.78" ry="18"/>
<text text-anchor="middle" x="2296" y="-551.3" font-family="Times,serif" font-size="14.00">collapsible_hprop</text>
</a>
</g>
</g>
<!-- Decidable_pathcoll_hset&#45;&gt;Decidable_collapsible_hprop -->
<g id="edge5" class="edge">
<title>Decidable_pathcoll_hset&#45;&gt;Decidable_collapsible_hprop</title>
<path fill="none" stroke="black" d="M2339.85,-770.77C2330.57,-725.32 2311.13,-630.1 2301.56,-583.23"/>
<polygon fill="black" stroke="black" points="2304.94,-582.31 2299.51,-573.21 2298.09,-583.71 2304.94,-582.31"/>
</g>
<!-- Decidable_PathCollapsible -->
<g id="node9" class="node">
<title>Decidable_PathCollapsible</title>
<g id="a_node9"><a xlink:href="Decidable.html#PathCollapsible" xlink:title="PathCollapsible">
<ellipse fill="#f070d1" stroke="black" cx="2693" cy="-555" rx="83.39" ry="18"/>
<text text-anchor="middle" x="2693" y="-551.3" font-family="Times,serif" font-size="14.00">PathCollapsible</text>
</a>
</g>
</g>
<!-- Decidable_pathcoll_hset&#45;&gt;Decidable_PathCollapsible -->
<g id="edge6" class="edge">
<title>Decidable_pathcoll_hset&#45;&gt;Decidable_PathCollapsible</title>
<path fill="none" stroke="black" d="M2378.05,-773.2C2444.79,-727.18 2594.87,-623.67 2660.85,-578.17"/>
<polygon fill="black" stroke="black" points="2662.96,-580.96 2669.21,-572.4 2658.99,-575.2 2662.96,-580.96"/>
</g>
<!-- Decidable_Build_Collapsible -->
<g id="node16" class="node">
<title>Decidable_Build_Collapsible</title>
<g id="a_node16"><a xlink:href="Decidable.html#Build_Collapsible" xlink:title="Build_Collapsible">
<ellipse fill="#7faaff" stroke="black" cx="2007" cy="-313" rx="90.98" ry="18"/>
<text text-anchor="middle" x="2007" y="-309.3" font-family="Times,serif" font-size="14.00">Build_Collapsible</text>
</a>
</g>
</g>
<!-- Decidable_collapsible_hprop&#45;&gt;Decidable_Build_Collapsible -->
<g id="edge7" class="edge">
<title>Decidable_collapsible_hprop&#45;&gt;Decidable_Build_Collapsible</title>
<path fill="none" stroke="black" d="M2275.68,-537.12C2225.1,-495.12 2093.48,-385.81 2035.33,-337.52"/>
<polygon fill="black" stroke="black" points="2037.23,-334.55 2027.3,-330.85 2032.76,-339.94 2037.23,-334.55"/>
</g>
<!-- Decidable_Collapsible -->
<g id="node17" class="node">
<title>Decidable_Collapsible</title>
<g id="a_node17"><a xlink:href="Decidable.html#Collapsible" xlink:title="Collapsible">
<ellipse fill="#e2cdfa" stroke="black" cx="2178" cy="-313" rx="61.99" ry="18"/>
<text text-anchor="middle" x="2178" y="-309.3" font-family="Times,serif" font-size="14.00">Collapsible</text>
</a>
</g>
</g>
<!-- Decidable_collapsible_hprop&#45;&gt;Decidable_Collapsible -->
<g id="edge8" class="edge">
<title>Decidable_collapsible_hprop&#45;&gt;Decidable_Collapsible</title>
<path fill="none" stroke="black" d="M2287.51,-536.74C2267.1,-495.22 2215.16,-389.58 2190.88,-340.19"/>
<polygon fill="black" stroke="black" points="2193.96,-338.53 2186.41,-331.1 2187.68,-341.62 2193.96,-338.53"/>
</g>
<!-- Decidable_path_coll -->
<g id="node8" class="node">
<title>Decidable_path_coll</title>
<g id="a_node8"><a xlink:href="Decidable.html#path_coll" xlink:title="path_coll">
<ellipse fill="#f070d1" stroke="black" cx="2544" cy="-797" rx="51.99" ry="18"/>
<text text-anchor="middle" x="2544" y="-793.3" font-family="Times,serif" font-size="14.00">path_coll</text>
</a>
</g>
</g>
<!-- Decidable_hset_pathcoll&#45;&gt;Decidable_path_coll -->
<g id="edge9" class="edge">
<title>Decidable_hset_pathcoll&#45;&gt;Decidable_path_coll</title>
<path fill="none" stroke="black" d="M2544,-998.89C2544,-961.16 2544,-870.56 2544,-825.05"/>
<polygon fill="black" stroke="black" points="2547.5,-825.02 2544,-815.02 2540.5,-825.02 2547.5,-825.02"/>
</g>
<!-- Decidable_collapse -->
<g id="node11" class="node">
<title>Decidable_collapse</title>
<g id="a_node11"><a xlink:href="Decidable.html#collapse" xlink:title="collapse">
<ellipse fill="#f070d1" stroke="black" cx="2662" cy="-797" rx="48.19" ry="18"/>
<text text-anchor="middle" x="2662" y="-793.3" font-family="Times,serif" font-size="14.00">collapse</text>
</a>
</g>
</g>
<!-- Decidable_hset_pathcoll&#45;&gt;Decidable_collapse -->
<g id="edge10" class="edge">
<title>Decidable_hset_pathcoll&#45;&gt;Decidable_collapse</title>
<path fill="none" stroke="black" d="M2553.26,-998.89C2573.9,-960.75 2623.8,-868.58 2648.16,-823.57"/>
<polygon fill="black" stroke="black" points="2651.26,-825.18 2652.95,-814.72 2645.11,-821.85 2651.26,-825.18"/>
</g>
<!-- Decidable_wconst -->
<g id="node19" class="node">
<title>Decidable_wconst</title>
<g id="a_node19"><a xlink:href="Decidable.html#wconst" xlink:title="wconst">
<ellipse fill="#f070d1" stroke="black" cx="2772" cy="-797" rx="43.59" ry="18"/>
<text text-anchor="middle" x="2772" y="-793.3" font-family="Times,serif" font-size="14.00">wconst</text>
</a>
</g>
</g>
<!-- Decidable_hset_pathcoll&#45;&gt;Decidable_wconst -->
<g id="edge11" class="edge">
<title>Decidable_hset_pathcoll&#45;&gt;Decidable_wconst</title>
<path fill="none" stroke="black" d="M2561.51,-999.25C2601.93,-960.61 2701.77,-865.14 2747.91,-821.03"/>
<polygon fill="black" stroke="black" points="2750.55,-823.35 2755.36,-813.91 2745.71,-818.29 2750.55,-823.35"/>
</g>
<!-- Decidable_collapsible_decidable -->
<g id="node7" class="node">
<title>Decidable_collapsible_decidable</title>
<g id="a_node7"><a xlink:href="Decidable.html#collapsible_decidable" xlink:title="collapsible_decidable">
<ellipse fill="#f070d1" stroke="black" cx="1488" cy="-555" rx="108.58" ry="18"/>
<text text-anchor="middle" x="1488" y="-551.3" font-family="Times,serif" font-size="14.00">collapsible_decidable</text>
</a>
</g>
</g>
<!-- Decidable_pathcoll_decpaths&#45;&gt;Decidable_collapsible_decidable -->
<g id="edge12" class="edge">
<title>Decidable_pathcoll_decpaths&#45;&gt;Decidable_collapsible_decidable</title>
<path fill="none" stroke="black" d="M1826.05,-779.5C1762.46,-737.45 1594.22,-626.22 1521.87,-578.39"/>
<polygon fill="black" stroke="black" points="1523.4,-575.2 1513.13,-572.61 1519.54,-581.04 1523.4,-575.2"/>
</g>
<!-- Decidable_pathcoll_decpaths&#45;&gt;Decidable_PathCollapsible -->
<g id="edge13" class="edge">
<title>Decidable_pathcoll_decpaths&#45;&gt;Decidable_PathCollapsible</title>
<path fill="none" stroke="black" d="M1901.15,-781.7C2048.3,-739.76 2478.35,-617.18 2635.03,-572.52"/>
<polygon fill="black" stroke="black" points="2636.3,-575.8 2644.95,-569.69 2634.38,-569.07 2636.3,-575.8"/>
</g>
<!-- Decidable_dec_paths -->
<g id="node33" class="node">
<title>Decidable_dec_paths</title>
<g id="a_node33"><a xlink:href="Decidable.html#dec_paths" xlink:title="dec_paths">
<ellipse fill="#f070d1" stroke="black" cx="1304" cy="-555" rx="57.39" ry="18"/>
<text text-anchor="middle" x="1304" y="-551.3" font-family="Times,serif" font-size="14.00">dec_paths</text>
</a>
</g>
</g>
<!-- Decidable_pathcoll_decpaths&#45;&gt;Decidable_dec_paths -->
<g id="edge14" class="edge">
<title>Decidable_pathcoll_decpaths&#45;&gt;Decidable_dec_paths</title>
<path fill="none" stroke="black" d="M1815.11,-780.25C1717.61,-737.47 1448.28,-619.3 1345.02,-574"/>
<polygon fill="black" stroke="black" points="1346.41,-570.78 1335.85,-569.97 1343.6,-577.19 1346.41,-570.78"/>
</g>
<!-- Decidable_collapsible_decidable&#45;&gt;Decidable_Build_Collapsible -->
<g id="edge15" class="edge">
<title>Decidable_collapsible_decidable&#45;&gt;Decidable_Build_Collapsible</title>
<path fill="none" stroke="black" d="M1522.86,-537.88C1614.67,-495.42 1862.99,-380.59 1963.7,-334.02"/>
<polygon fill="black" stroke="black" points="1965.36,-337.11 1972.97,-329.73 1962.42,-330.75 1965.36,-337.11"/>
</g>
<!-- Decidable_collapsible_decidable&#45;&gt;Decidable_Collapsible -->
<g id="edge16" class="edge">
<title>Decidable_collapsible_decidable&#45;&gt;Decidable_Collapsible</title>
<path fill="none" stroke="black" d="M1532.69,-538.55C1634.59,-503.3 1891.96,-414.2 2107,-339 2114.63,-336.33 2122.72,-333.49 2130.6,-330.72"/>
<polygon fill="black" stroke="black" points="2131.79,-334.01 2140.06,-327.39 2129.46,-327.41 2131.79,-334.01"/>
</g>
<!-- Decidable_dec -->
<g id="node35" class="node">
<title>Decidable_dec</title>
<g id="a_node35"><a xlink:href="Decidable.html#dec" xlink:title="dec">
<ellipse fill="#f070d1" stroke="black" cx="712" cy="-313" rx="27" ry="18"/>
<text text-anchor="middle" x="712" y="-309.3" font-family="Times,serif" font-size="14.00">dec</text>
</a>
</g>
</g>
<!-- Decidable_collapsible_decidable&#45;&gt;Decidable_dec -->
<g id="edge17" class="edge">
<title>Decidable_collapsible_decidable&#45;&gt;Decidable_dec</title>
<path fill="none" stroke="black" d="M1429.96,-539.73C1278.2,-502 872.76,-398.48 748,-339 744.39,-337.28 740.75,-335.21 737.24,-333.01"/>
<polygon fill="black" stroke="black" points="739.14,-330.07 728.88,-327.4 735.23,-335.88 739.14,-330.07"/>
</g>
<!-- Decidable_path_coll&#45;&gt;Decidable_PathCollapsible -->
<g id="edge18" class="edge">
<title>Decidable_path_coll&#45;&gt;Decidable_PathCollapsible</title>
<path fill="none" stroke="black" d="M2554.48,-779.12C2580.18,-737.72 2646.48,-630.94 2677.08,-581.64"/>
<polygon fill="black" stroke="black" points="2680.23,-583.2 2682.53,-572.85 2674.29,-579.5 2680.23,-583.2"/>
</g>
<!-- Decidable_PathCollapsible&#45;&gt;Decidable_Collapsible -->
<g id="edge19" class="edge">
<title>Decidable_PathCollapsible&#45;&gt;Decidable_Collapsible</title>
<path fill="none" stroke="black" d="M2659.61,-538.43C2568.79,-496.11 2317.54,-379.02 2218.7,-332.96"/>
<polygon fill="black" stroke="black" points="2219.88,-329.65 2209.34,-328.6 2216.93,-336 2219.88,-329.65"/>
</g>
<!-- Decidable_wconst_collapse -->
<g id="node10" class="node">
<title>Decidable_wconst_collapse</title>
<g id="a_node10"><a xlink:href="Decidable.html#wconst_collapse" xlink:title="wconst_collapse">
<ellipse fill="#f070d1" stroke="black" cx="2499" cy="-555" rx="85.27" ry="18"/>
<ellipse fill="none" stroke="black" cx="2499" cy="-555" rx="89.28" ry="22"/>
<ellipse fill="none" stroke="black" cx="2499" cy="-555" rx="93.29" ry="26"/>
<text text-anchor="middle" x="2499" y="-551.3" font-family="Times,serif" font-size="14.00">wconst_collapse</text>
</a>
</g>
</g>
<!-- Decidable_wconst_collapse&#45;&gt;Decidable_Collapsible -->
<g id="edge20" class="edge">
<title>Decidable_wconst_collapse&#45;&gt;Decidable_Collapsible</title>
<path fill="none" stroke="black" d="M2467.34,-530.33C2405.23,-483.89 2268.19,-381.43 2207.7,-336.2"/>
<polygon fill="black" stroke="black" points="2209.45,-333.14 2199.34,-329.95 2205.26,-338.75 2209.45,-333.14"/>
</g>
<!-- Decidable_collapse&#45;&gt;Decidable_Collapsible -->
<g id="edge21" class="edge">
<title>Decidable_collapse&#45;&gt;Decidable_Collapsible</title>
<path fill="none" stroke="black" d="M2680.15,-780.19C2727.35,-737.18 2846.12,-615.48 2785,-529 2661.12,-353.7 2381.63,-320.41 2249.62,-314.72"/>
<polygon fill="black" stroke="black" points="2249.74,-311.22 2239.61,-314.33 2249.46,-318.22 2249.74,-311.22"/>
</g>
<!-- Decidable_Collapsible_sind -->
<g id="node12" class="node">
<title>Decidable_Collapsible_sind</title>
<g id="a_node12"><a xlink:href="Decidable.html#Collapsible_sind" xlink:title="Collapsible_sind">
<ellipse fill="#f070d1" stroke="black" cx="2093" cy="-555" rx="85.6" ry="18"/>
<ellipse fill="none" stroke="black" cx="2093" cy="-555" rx="89.59" ry="22"/>
<ellipse fill="none" stroke="black" cx="2093" cy="-555" rx="93.59" ry="26"/>
<text text-anchor="middle" x="2093" y="-551.3" font-family="Times,serif" font-size="14.00">Collapsible_sind</text>
</a>
</g>
</g>
<!-- Decidable_Collapsible_sind&#45;&gt;Decidable_Build_Collapsible -->
<g id="edge22" class="edge">
<title>Decidable_Collapsible_sind&#45;&gt;Decidable_Build_Collapsible</title>
<path fill="none" stroke="black" d="M2083.96,-528.77C2067.61,-483.13 2033.27,-387.3 2016.55,-340.64"/>
<polygon fill="black" stroke="black" points="2019.84,-339.44 2013.17,-331.21 2013.25,-341.8 2019.84,-339.44"/>
</g>
<!-- Decidable_Collapsible_sind&#45;&gt;Decidable_Collapsible -->
<g id="edge23" class="edge">
<title>Decidable_Collapsible_sind&#45;&gt;Decidable_Collapsible</title>
<path fill="none" stroke="black" d="M2101.94,-528.77C2118.1,-483.13 2152.04,-387.3 2168.56,-340.64"/>
<polygon fill="black" stroke="black" points="2171.86,-341.8 2171.9,-331.21 2165.27,-339.47 2171.86,-341.8"/>
</g>
<!-- Decidable_Collapsible_rec -->
<g id="node13" class="node">
<title>Decidable_Collapsible_rec</title>
<g id="a_node13"><a xlink:href="Decidable.html#Collapsible_rec" xlink:title="Collapsible_rec">
<ellipse fill="#f070d1" stroke="black" cx="2052" cy="-797" rx="81.46" ry="18"/>
<ellipse fill="none" stroke="black" cx="2052" cy="-797" rx="85.48" ry="22"/>
<ellipse fill="none" stroke="black" cx="2052" cy="-797" rx="89.49" ry="26"/>
<text text-anchor="middle" x="2052" y="-793.3" font-family="Times,serif" font-size="14.00">Collapsible_rec</text>
</a>
</g>
</g>
<!-- Decidable_Collapsible_rect -->
<g id="node15" class="node">
<title>Decidable_Collapsible_rect</title>
<g id="a_node15"><a xlink:href="Decidable.html#Collapsible_rect" xlink:title="Collapsible_rect">
<ellipse fill="#f070d1" stroke="black" cx="1896" cy="-555" rx="85.29" ry="18"/>
<text text-anchor="middle" x="1896" y="-551.3" font-family="Times,serif" font-size="14.00">Collapsible_rect</text>
</a>
</g>
</g>
<!-- Decidable_Collapsible_rec&#45;&gt;Decidable_Collapsible_rect -->
<g id="edge24" class="edge">
<title>Decidable_Collapsible_rec&#45;&gt;Decidable_Collapsible_rect</title>
<path fill="none" stroke="black" d="M2035.89,-771.22C2006.12,-725.41 1942.75,-627.93 1912.61,-581.54"/>
<polygon fill="black" stroke="black" points="1915.42,-579.46 1907.04,-572.98 1909.55,-583.27 1915.42,-579.46"/>
</g>
<!-- Decidable_Collapsible_ind -->
<g id="node14" class="node">
<title>Decidable_Collapsible_ind</title>
<g id="a_node14"><a xlink:href="Decidable.html#Collapsible_ind" xlink:title="Collapsible_ind">
<ellipse fill="#7fffd4" stroke="black" cx="1704" cy="-555" rx="81.46" ry="18"/>
<ellipse fill="none" stroke="black" cx="1704" cy="-555" rx="85.48" ry="22"/>
<ellipse fill="none" stroke="black" cx="1704" cy="-555" rx="89.49" ry="26"/>
<text text-anchor="middle" x="1704" y="-551.3" font-family="Times,serif" font-size="14.00">Collapsible_ind</text>
</a>
</g>
</g>
<!-- Decidable_Collapsible_ind&#45;&gt;Decidable_Build_Collapsible -->
<g id="edge25" class="edge">
<title>Decidable_Collapsible_ind&#45;&gt;Decidable_Build_Collapsible</title>
<path fill="none" stroke="black" d="M1733.88,-530.33C1792.23,-484.11 1920.61,-382.42 1978.13,-336.86"/>
<polygon fill="black" stroke="black" points="1980.42,-339.51 1986.09,-330.56 1976.08,-334.03 1980.42,-339.51"/>
</g>
<!-- Decidable_Collapsible_ind&#45;&gt;Decidable_Collapsible -->
<g id="edge26" class="edge">
<title>Decidable_Collapsible_ind&#45;&gt;Decidable_Collapsible</title>
<path fill="none" stroke="black" d="M1747.32,-532.06C1839.16,-485.56 2052.15,-377.72 2139.53,-333.47"/>
<polygon fill="black" stroke="black" points="2141.23,-336.54 2148.57,-328.9 2138.07,-330.29 2141.23,-336.54"/>
</g>
<!-- Decidable_Collapsible_rect&#45;&gt;Decidable_Build_Collapsible -->
<g id="edge27" class="edge">
<title>Decidable_Collapsible_rect&#45;&gt;Decidable_Build_Collapsible</title>
<path fill="none" stroke="black" d="M1903.98,-536.74C1923.18,-495.22 1972.04,-389.58 1994.88,-340.19"/>
<polygon fill="black" stroke="black" points="1998.07,-341.65 1999.09,-331.1 1991.71,-338.71 1998.07,-341.65"/>
</g>
<!-- Decidable_Collapsible_rect&#45;&gt;Decidable_Collapsible -->
<g id="edge28" class="edge">
<title>Decidable_Collapsible_rect&#45;&gt;Decidable_Collapsible</title>
<path fill="none" stroke="black" d="M1915.83,-537.12C1965.42,-494.92 2094.86,-384.75 2151.18,-336.82"/>
<polygon fill="black" stroke="black" points="2153.59,-339.37 2158.94,-330.22 2149.05,-334.03 2153.59,-339.37"/>
</g>
<!-- Decidable_WeaklyConstant -->
<g id="node20" class="node">
<title>Decidable_WeaklyConstant</title>
<g id="a_node20"><a xlink:href="Decidable.html#WeaklyConstant" xlink:title="WeaklyConstant">
<ellipse fill="#f070d1" stroke="black" cx="2092" cy="-93" rx="85.59" ry="18"/>
<text text-anchor="middle" x="2092" y="-89.3" font-family="Times,serif" font-size="14.00">WeaklyConstant</text>
</a>
</g>
</g>
<!-- Decidable_Build_Collapsible&#45;&gt;Decidable_WeaklyConstant -->
<g id="edge29" class="edge">
<title>Decidable_Build_Collapsible&#45;&gt;Decidable_WeaklyConstant</title>
<path fill="none" stroke="black" d="M2013.67,-294.89C2028.44,-257 2064,-165.8 2081.68,-120.48"/>
<polygon fill="black" stroke="black" points="2084.99,-121.61 2085.36,-111.02 2078.47,-119.07 2084.99,-121.61"/>
</g>
<!-- Decidable_Collapsible&#45;&gt;Decidable_WeaklyConstant -->
<g id="edge30" class="edge">
<title>Decidable_Collapsible&#45;&gt;Decidable_WeaklyConstant</title>
<path fill="none" stroke="black" d="M2171.25,-294.89C2156.31,-257 2120.32,-165.8 2102.45,-120.48"/>
<polygon fill="black" stroke="black" points="2105.64,-119.04 2098.72,-111.02 2099.13,-121.61 2105.64,-119.04"/>
</g>
<!-- Decidable_wconst_through_hprop -->
<g id="node18" class="node">
<title>Decidable_wconst_through_hprop</title>
<g id="a_node18"><a xlink:href="Decidable.html#wconst_through_hprop" xlink:title="wconst_through_hprop">
<ellipse fill="#f070d1" stroke="black" cx="1774" cy="-313" rx="116.19" ry="18"/>
<ellipse fill="none" stroke="black" cx="1774" cy="-313" rx="120.18" ry="22"/>
<ellipse fill="none" stroke="black" cx="1774" cy="-313" rx="124.18" ry="26"/>
<text text-anchor="middle" x="1774" y="-309.3" font-family="Times,serif" font-size="14.00">wconst_through_hprop</text>
</a>
</g>
</g>
<!-- Decidable_wconst_through_hprop&#45;&gt;Decidable_WeaklyConstant -->
<g id="edge31" class="edge">
<title>Decidable_wconst_through_hprop&#45;&gt;Decidable_WeaklyConstant</title>
<path fill="none" stroke="black" d="M1808.94,-288.04C1870.91,-245.56 1999.21,-157.6 2059.44,-116.32"/>
<polygon fill="black" stroke="black" points="2061.55,-119.12 2067.82,-110.57 2057.59,-113.34 2061.55,-119.12"/>
</g>
<!-- Decidable_wconst&#45;&gt;Decidable_WeaklyConstant -->
<g id="edge32" class="edge">
<title>Decidable_wconst&#45;&gt;Decidable_WeaklyConstant</title>
<path fill="none" stroke="black" d="M2779.94,-779.01C2799.44,-734.61 2844.78,-612.76 2798,-529 2656.31,-275.26 2299.1,-151.21 2154.36,-110.09"/>
<polygon fill="black" stroke="black" points="2155.3,-106.72 2144.72,-107.38 2153.4,-113.46 2155.3,-106.72"/>
</g>
<!-- Decidable_decidablepaths_equiv_ -->
<g id="node21" class="node">
<title>Decidable_decidablepaths_equiv_</title>
<g id="a_node21"><a xlink:href="Decidable.html#decidablepaths_equiv'" xlink:title="decidablepaths_equiv&#39;">
<ellipse fill="#f070d1" stroke="black" cx="1118" cy="-797" rx="113.17" ry="18"/>
<ellipse fill="none" stroke="black" cx="1118" cy="-797" rx="117.18" ry="22"/>
<ellipse fill="none" stroke="black" cx="1118" cy="-797" rx="121.18" ry="26"/>
<text text-anchor="middle" x="1118" y="-793.3" font-family="Times,serif" font-size="14.00">decidablepaths_equiv&#39;</text>
</a>
</g>
</g>
<!-- Decidable_decidablepaths_equiv -->
<g id="node22" class="node">
<title>Decidable_decidablepaths_equiv</title>
<g id="a_node22"><a xlink:href="Decidable.html#decidablepaths_equiv" xlink:title="decidablepaths_equiv">
<ellipse fill="#f070d1" stroke="black" cx="1118" cy="-555" rx="110.48" ry="18"/>
<text text-anchor="middle" x="1118" y="-551.3" font-family="Times,serif" font-size="14.00">decidablepaths_equiv</text>
</a>
</g>
</g>
<!-- Decidable_decidablepaths_equiv_&#45;&gt;Decidable_decidablepaths_equiv -->
<g id="edge33" class="edge">
<title>Decidable_decidablepaths_equiv_&#45;&gt;Decidable_decidablepaths_equiv</title>
<path fill="none" stroke="black" d="M1118,-770.77C1118,-725.32 1118,-630.1 1118,-583.23"/>
<polygon fill="black" stroke="black" points="1121.5,-583.21 1118,-573.21 1114.5,-583.21 1121.5,-583.21"/>
</g>
<!-- Decidable_DecidablePaths -->
<g id="node34" class="node">
<title>Decidable_DecidablePaths</title>
<g id="a_node34"><a xlink:href="Decidable.html#DecidablePaths" xlink:title="DecidablePaths">
<ellipse fill="#f070d1" stroke="black" cx="1240" cy="-313" rx="82.59" ry="18"/>
<text text-anchor="middle" x="1240" y="-309.3" font-family="Times,serif" font-size="14.00">DecidablePaths</text>
</a>
</g>
</g>
<!-- Decidable_decidablepaths_equiv&#45;&gt;Decidable_DecidablePaths -->
<g id="edge34" class="edge">
<title>Decidable_decidablepaths_equiv&#45;&gt;Decidable_DecidablePaths</title>
<path fill="none" stroke="black" d="M1126.77,-536.74C1147.88,-495.22 1201.58,-389.58 1226.68,-340.19"/>
<polygon fill="black" stroke="black" points="1229.89,-341.6 1231.31,-331.1 1223.65,-338.43 1229.89,-341.6"/>
</g>
<!-- Decidable_decidable_equiv_ -->
<g id="node23" class="node">
<title>Decidable_decidable_equiv_</title>
<g id="a_node23"><a xlink:href="Decidable.html#decidable_equiv'" xlink:title="decidable_equiv&#39;">
<ellipse fill="#f070d1" stroke="black" cx="894" cy="-555" rx="87.18" ry="18"/>
<ellipse fill="none" stroke="black" cx="894" cy="-555" rx="91.18" ry="22"/>
<ellipse fill="none" stroke="black" cx="894" cy="-555" rx="95.18" ry="26"/>
<text text-anchor="middle" x="894" y="-551.3" font-family="Times,serif" font-size="14.00">decidable_equiv&#39;</text>
</a>
</g>
</g>
<!-- Decidable_decidable_equiv -->
<g id="node24" class="node">
<title>Decidable_decidable_equiv</title>
<g id="a_node24"><a xlink:href="Decidable.html#decidable_equiv" xlink:title="decidable_equiv">
<ellipse fill="#f070d1" stroke="black" cx="842" cy="-313" rx="85.29" ry="18"/>
<text text-anchor="middle" x="842" y="-309.3" font-family="Times,serif" font-size="14.00">decidable_equiv</text>
</a>
</g>
</g>
<!-- Decidable_decidable_equiv_&#45;&gt;Decidable_decidable_equiv -->
<g id="edge35" class="edge">
<title>Decidable_decidable_equiv_&#45;&gt;Decidable_decidable_equiv</title>
<path fill="none" stroke="black" d="M888.53,-528.77C878.69,-483.32 858.06,-388.1 847.9,-341.23"/>
<polygon fill="black" stroke="black" points="851.27,-340.24 845.73,-331.21 844.43,-341.72 851.27,-340.24"/>
</g>
<!-- Decidable_Decidable -->
<g id="node36" class="node">
<title>Decidable_Decidable</title>
<g id="a_node36"><a xlink:href="Decidable.html#Decidable" xlink:title="Decidable">
<ellipse fill="#f070d1" stroke="black" cx="777" cy="-93" rx="56.59" ry="18"/>
<text text-anchor="middle" x="777" y="-89.3" font-family="Times,serif" font-size="14.00">Decidable</text>
</a>
</g>
</g>
<!-- Decidable_decidable_equiv&#45;&gt;Decidable_Decidable -->
<g id="edge36" class="edge">
<title>Decidable_decidable_equiv&#45;&gt;Decidable_Decidable</title>
<path fill="none" stroke="black" d="M836.9,-294.89C825.63,-257.08 798.52,-166.18 784.98,-120.76"/>
<polygon fill="black" stroke="black" points="788.29,-119.61 782.08,-111.02 781.58,-121.61 788.29,-119.61"/>
</g>
<!-- Decidable_decidable_empty -->
<g id="node25" class="node">
<title>Decidable_decidable_empty</title>
<g id="a_node25"><a xlink:href="Decidable.html#decidable_empty" xlink:title="decidable_empty">
<ellipse fill="#f070d1" stroke="black" cx="1042" cy="-313" rx="89.08" ry="18"/>
<ellipse fill="none" stroke="black" cx="1042" cy="-313" rx="93.08" ry="22"/>
<ellipse fill="none" stroke="black" cx="1042" cy="-313" rx="97.08" ry="26"/>
<text text-anchor="middle" x="1042" y="-309.3" font-family="Times,serif" font-size="14.00">decidable_empty</text>
</a>
</g>
</g>
<!-- Decidable_decidable_empty&#45;&gt;Decidable_Decidable -->
<g id="edge37" class="edge">
<title>Decidable_decidable_empty&#45;&gt;Decidable_Decidable</title>
<path fill="none" stroke="black" d="M1012.88,-288.04C961.3,-245.61 854.58,-157.82 804.32,-116.47"/>
<polygon fill="black" stroke="black" points="806.41,-113.66 796.47,-110.01 801.96,-119.07 806.41,-113.66"/>
</g>
<!-- Decidable_decidablepaths_hprop -->
<g id="node26" class="node">
<title>Decidable_decidablepaths_hprop</title>
<g id="a_node26"><a xlink:href="Decidable.html#decidablepaths_hprop" xlink:title="decidablepaths_hprop">
<ellipse fill="#f070d1" stroke="black" cx="660" cy="-555" rx="112.38" ry="18"/>
<ellipse fill="none" stroke="black" cx="660" cy="-555" rx="116.38" ry="22"/>
<ellipse fill="none" stroke="black" cx="660" cy="-555" rx="120.38" ry="26"/>
<text text-anchor="middle" x="660" y="-551.3" font-family="Times,serif" font-size="14.00">decidablepaths_hprop</text>
</a>
</g>
</g>
<!-- Decidable_decidable_contr -->
<g id="node27" class="node">
<title>Decidable_decidable_contr</title>
<g id="a_node27"><a xlink:href="Decidable.html#decidable_contr" xlink:title="decidable_contr">
<ellipse fill="#f070d1" stroke="black" cx="433" cy="-313" rx="83.69" ry="18"/>
<text text-anchor="middle" x="433" y="-309.3" font-family="Times,serif" font-size="14.00">decidable_contr</text>
</a>
</g>
</g>
<!-- Decidable_decidablepaths_hprop&#45;&gt;Decidable_decidable_contr -->
<g id="edge38" class="edge">
<title>Decidable_decidablepaths_hprop&#45;&gt;Decidable_decidable_contr</title>
<path fill="none" stroke="black" d="M636.56,-529.22C592.87,-483.02 499.49,-384.3 456.08,-338.4"/>
<polygon fill="black" stroke="black" points="458.48,-335.84 449.06,-330.98 453.39,-340.65 458.48,-335.84"/>
</g>
<!-- Decidable_decidablepaths_hprop&#45;&gt;Decidable_DecidablePaths -->
<g id="edge39" class="edge">
<title>Decidable_decidablepaths_hprop&#45;&gt;Decidable_DecidablePaths</title>
<path fill="none" stroke="black" d="M714.04,-531.63C827.22,-484.8 1087.42,-377.13 1193.6,-333.2"/>
<polygon fill="black" stroke="black" points="1195.18,-336.33 1203.09,-329.27 1192.51,-329.86 1195.18,-336.33"/>
</g>
<!-- Decidable_decidablepaths_hprop&#45;&gt;Decidable_dec -->
<g id="edge40" class="edge">
<title>Decidable_decidablepaths_hprop&#45;&gt;Decidable_dec</title>
<path fill="none" stroke="black" d="M665.47,-528.77C675.34,-483.21 696.05,-387.63 706.17,-340.89"/>
<polygon fill="black" stroke="black" points="709.64,-341.42 708.34,-330.9 702.8,-339.93 709.64,-341.42"/>
</g>
<!-- Decidable_decidable_contr&#45;&gt;Decidable_Decidable -->
<g id="edge41" class="edge">
<title>Decidable_decidable_contr&#45;&gt;Decidable_Decidable</title>
<path fill="none" stroke="black" d="M458.57,-295.79C519.97,-256.88 675.65,-158.22 743.99,-114.92"/>
<polygon fill="black" stroke="black" points="746.07,-117.74 752.65,-109.43 742.33,-111.83 746.07,-117.74"/>
</g>
<!-- Decidable_decide_rel -->
<g id="node28" class="node">
<title>Decidable_decide_rel</title>
<g id="a_node28"><a xlink:href="Decidable.html#decide_rel" xlink:title="decide_rel">
<ellipse fill="#f070d1" stroke="black" cx="601" cy="-313" rx="57.71" ry="18"/>
<ellipse fill="none" stroke="black" cx="601" cy="-313" rx="61.7" ry="22"/>
<ellipse fill="none" stroke="black" cx="601" cy="-313" rx="65.69" ry="26"/>
<text text-anchor="middle" x="601" y="-309.3" font-family="Times,serif" font-size="14.00">decide_rel</text>
</a>
</g>
</g>
<!-- Decidable_decide_rel&#45;&gt;Decidable_Decidable -->
<g id="edge42" class="edge">
<title>Decidable_decide_rel&#45;&gt;Decidable_Decidable</title>
<path fill="none" stroke="black" d="M620.51,-287.83C654.32,-245.95 723.44,-160.33 757.35,-118.33"/>
<polygon fill="black" stroke="black" points="760.09,-120.52 763.65,-110.54 754.64,-116.12 760.09,-120.52"/>
</g>
<!-- Decidable_stable_negation -->
<g id="node29" class="node">
<title>Decidable_stable_negation</title>
<g id="a_node29"><a xlink:href="Decidable.html#stable_negation" xlink:title="stable_negation">
<ellipse fill="#f070d1" stroke="black" cx="220" cy="-555" rx="83.7" ry="18"/>
<ellipse fill="none" stroke="black" cx="220" cy="-555" rx="87.69" ry="22"/>
<ellipse fill="none" stroke="black" cx="220" cy="-555" rx="91.69" ry="26"/>
<text text-anchor="middle" x="220" y="-551.3" font-family="Times,serif" font-size="14.00">stable_negation</text>
</a>
</g>
</g>
<!-- Decidable_Stable -->
<g id="node32" class="node">
<title>Decidable_Stable</title>
<g id="a_node32"><a xlink:href="Decidable.html#Stable" xlink:title="Stable">
<ellipse fill="#f070d1" stroke="black" cx="220" cy="-313" rx="40.09" ry="18"/>
<text text-anchor="middle" x="220" y="-309.3" font-family="Times,serif" font-size="14.00">Stable</text>
</a>
</g>
</g>
<!-- Decidable_stable_negation&#45;&gt;Decidable_Stable -->
<g id="edge43" class="edge">
<title>Decidable_stable_negation&#45;&gt;Decidable_Stable</title>
<path fill="none" stroke="black" d="M220,-528.77C220,-483.32 220,-388.1 220,-341.23"/>
<polygon fill="black" stroke="black" points="223.5,-341.21 220,-331.21 216.5,-341.21 223.5,-341.21"/>
</g>
<!-- Decidable_stable_decidable -->
<g id="node30" class="node">
<title>Decidable_stable_decidable</title>
<g id="a_node30"><a xlink:href="Decidable.html#stable_decidable" xlink:title="stable_decidable">
<ellipse fill="#f070d1" stroke="black" cx="426" cy="-555" rx="87.96" ry="18"/>
<ellipse fill="none" stroke="black" cx="426" cy="-555" rx="91.97" ry="22"/>
<ellipse fill="none" stroke="black" cx="426" cy="-555" rx="95.99" ry="26"/>
<text text-anchor="middle" x="426" y="-551.3" font-family="Times,serif" font-size="14.00">stable_decidable</text>
</a>
</g>
</g>
<!-- Decidable_stable_decidable&#45;&gt;Decidable_Stable -->
<g id="edge44" class="edge">
<title>Decidable_stable_decidable&#45;&gt;Decidable_Stable</title>
<path fill="none" stroke="black" d="M404.73,-529.22C364.87,-482.78 279.45,-383.25 240.32,-337.67"/>
<polygon fill="black" stroke="black" points="242.97,-335.38 233.8,-330.07 237.65,-339.94 242.97,-335.38"/>
</g>
<!-- Decidable_stable_decidable&#45;&gt;Decidable_dec -->
<g id="edge45" class="edge">
<title>Decidable_stable_decidable&#45;&gt;Decidable_dec</title>
<path fill="none" stroke="black" d="M454.47,-530.11C510.8,-482.84 635.55,-378.15 688.01,-334.13"/>
<polygon fill="black" stroke="black" points="690.38,-336.71 695.79,-327.6 685.88,-331.35 690.38,-336.71"/>
</g>
<!-- Decidable_stable -->
<g id="node31" class="node">
<title>Decidable_stable</title>
<g id="a_node31"><a xlink:href="Decidable.html#stable" xlink:title="stable">
<ellipse fill="#f070d1" stroke="black" cx="63" cy="-555" rx="38.99" ry="18"/>
<ellipse fill="none" stroke="black" cx="63" cy="-555" rx="42.99" ry="22"/>
<ellipse fill="none" stroke="black" cx="63" cy="-555" rx="46.99" ry="26"/>
<text text-anchor="middle" x="63" y="-551.3" font-family="Times,serif" font-size="14.00">stable</text>
</a>
</g>
</g>
<!-- Decidable_stable&#45;&gt;Decidable_Stable -->
<g id="edge46" class="edge">
<title>Decidable_stable&#45;&gt;Decidable_Stable</title>
<path fill="none" stroke="black" d="M78.63,-530.11C108.44,-484.53 173.17,-385.59 203.58,-339.09"/>
<polygon fill="black" stroke="black" points="206.64,-340.81 209.19,-330.52 200.79,-336.97 206.64,-340.81"/>
</g>
<!-- Decidable_dec_paths&#45;&gt;Decidable_DecidablePaths -->
<g id="edge47" class="edge">
<title>Decidable_dec_paths&#45;&gt;Decidable_DecidablePaths</title>
<path fill="none" stroke="black" d="M1299.4,-536.74C1288.37,-495.39 1260.39,-390.46 1247.15,-340.81"/>
<polygon fill="black" stroke="black" points="1250.52,-339.86 1244.56,-331.1 1243.76,-341.66 1250.52,-339.86"/>
</g>
<!-- Decidable_DecidablePaths&#45;&gt;Decidable_Decidable -->
<g id="edge48" class="edge">
<title>Decidable_DecidablePaths&#45;&gt;Decidable_Decidable</title>
<path fill="none" stroke="black" d="M1206.7,-296.32C1123.38,-257.09 906.14,-154.8 816.53,-112.61"/>
<polygon fill="black" stroke="black" points="817.8,-109.34 807.26,-108.24 814.82,-115.67 817.8,-109.34"/>
</g>
<!-- Decidable_dec&#45;&gt;Decidable_Decidable -->
<g id="edge49" class="edge">
<title>Decidable_dec&#45;&gt;Decidable_Decidable</title>
<path fill="none" stroke="black" d="M716.99,-295.25C728.19,-257.7 755.39,-166.48 768.99,-120.88"/>
<polygon fill="black" stroke="black" points="772.4,-121.68 771.9,-111.1 765.69,-119.68 772.4,-121.68"/>
</g>
</g>
</svg>
