<?xml version="1.0" encoding="UTF-8" standalone="no"?>
<!DOCTYPE svg PUBLIC "-//W3C//DTD SVG 1.1//EN"
 "http://www.w3.org/Graphics/SVG/1.1/DTD/svg11.dtd">
<!-- Generated by graphviz version 2.43.0 (0)
 -->
<!-- Title: HoTT_Homotopy_EvaluationFibration Pages: 1 -->
<svg width="366pt" height="187pt"
 viewBox="0.00 0.00 366.00 187.00" xmlns="http://www.w3.org/2000/svg" xmlns:xlink="http://www.w3.org/1999/xlink">
<g id="graph0" class="graph" transform="scale(1 1) rotate(0) translate(4 183)">
<title>HoTT_Homotopy_EvaluationFibration</title>
<polygon fill="white" stroke="transparent" points="-4,4 -4,-183 362,-183 362,4 -4,4"/>
<g id="clust1" class="cluster">
<title>cluster_EvaluationFibration</title>
<polygon fill="#ffffc3" stroke="black" points="9.88,-8 9.88,-171 348.12,-171 348.12,-8 9.88,-8"/>
<text text-anchor="middle" x="89.38" y="-155.8" font-family="Times,serif" font-size="14.00">EvaluationFibration</text>
</g>
<!-- EvaluationFibration_ev1 -->
<g id="node1" class="node">
<title>EvaluationFibration_ev1</title>
<g id="a_node1"><a xlink:href="EvaluationFibration.html#ev1" xlink:title="ev1">
<ellipse fill="#f070d1" stroke="black" cx="294.72" cy="-114" rx="27.14" ry="18"/>
<ellipse fill="none" stroke="black" cx="294.72" cy="-114" rx="31.12" ry="22"/>
<ellipse fill="none" stroke="black" cx="294.72" cy="-114" rx="35.1" ry="26"/>
<text text-anchor="middle" x="294.72" y="-110.3" font-family="Times,serif" font-size="14.00">ev1</text>
</a>
</g>
</g>
<!-- EvaluationFibration_pevfib -->
<g id="node2" class="node">
<title>EvaluationFibration_pevfib</title>
<g id="a_node2"><a xlink:href="EvaluationFibration.html#pevfib" xlink:title="pevfib">
<ellipse fill="#f070d1" stroke="black" cx="289.72" cy="-34" rx="38.99" ry="18"/>
<text text-anchor="middle" x="289.72" y="-30.3" font-family="Times,serif" font-size="14.00">pevfib</text>
</a>
</g>
</g>
<!-- EvaluationFibration_ev1&#45;&gt;EvaluationFibration_pevfib -->
<g id="edge1" class="edge">
<title>EvaluationFibration_ev1&#45;&gt;EvaluationFibration_pevfib</title>
<path fill="none" stroke="black" d="M293.11,-87.89C292.6,-79.84 292.02,-70.88 291.5,-62.66"/>
<polygon fill="black" stroke="black" points="294.97,-62.17 290.84,-52.41 287.99,-62.61 294.97,-62.17"/>
</g>
<!-- EvaluationFibration_evfib -->
<g id="node3" class="node">
<title>EvaluationFibration_evfib</title>
<g id="a_node3"><a xlink:href="EvaluationFibration.html#evfib" xlink:title="evfib">
<ellipse fill="#f070d1" stroke="black" cx="178.72" cy="-114" rx="33.27" ry="18"/>
<ellipse fill="none" stroke="black" cx="178.72" cy="-114" rx="37.28" ry="22"/>
<ellipse fill="none" stroke="black" cx="178.72" cy="-114" rx="41.29" ry="26"/>
<text text-anchor="middle" x="178.72" y="-110.3" font-family="Times,serif" font-size="14.00">evfib</text>
</a>
</g>
</g>
<!-- EvaluationFibration_ev -->
<g id="node4" class="node">
<title>EvaluationFibration_ev</title>
<g id="a_node4"><a xlink:href="EvaluationFibration.html#ev" xlink:title="ev">
<ellipse fill="#f070d1" stroke="black" cx="62.72" cy="-114" rx="27" ry="18"/>
<ellipse fill="none" stroke="black" cx="62.72" cy="-114" rx="31" ry="22"/>
<ellipse fill="none" stroke="black" cx="62.72" cy="-114" rx="35" ry="26"/>
<text text-anchor="middle" x="62.72" y="-110.3" font-family="Times,serif" font-size="14.00">ev</text>
</a>
</g>
</g>
<!-- EvaluationFibration_selfmaps -->
<g id="node5" class="node">
<title>EvaluationFibration_selfmaps</title>
<g id="a_node5"><a xlink:href="EvaluationFibration.html#selfmaps" xlink:title="selfmaps">
<ellipse fill="#f070d1" stroke="black" cx="83.72" cy="-34" rx="51.99" ry="18"/>
<text text-anchor="middle" x="83.72" y="-30.3" font-family="Times,serif" font-size="14.00">selfmaps</text>
</a>
</g>
</g>
<!-- EvaluationFibration_ev&#45;&gt;EvaluationFibration_selfmaps -->
<g id="edge2" class="edge">
<title>EvaluationFibration_ev&#45;&gt;EvaluationFibration_selfmaps</title>
<path fill="none" stroke="black" d="M69.37,-88.32C71.62,-79.94 74.15,-70.54 76.46,-62"/>
<polygon fill="black" stroke="black" points="79.9,-62.68 79.12,-52.12 73.14,-60.86 79.9,-62.68"/>
</g>
</g>
</svg>
