<?xml version="1.0" encoding="UTF-8" standalone="no"?>
<!DOCTYPE svg PUBLIC "-//W3C//DTD SVG 1.1//EN"
 "http://www.w3.org/Graphics/SVG/1.1/DTD/svg11.dtd">
<!-- Generated by graphviz version 2.43.0 (0)
 -->
<!-- Title: HoTT_Spaces_List_Paths Pages: 1 -->
<svg width="798pt" height="403pt"
 viewBox="0.00 0.00 798.00 403.00" xmlns="http://www.w3.org/2000/svg" xmlns:xlink="http://www.w3.org/1999/xlink">
<g id="graph0" class="graph" transform="scale(1 1) rotate(0) translate(4 399)">
<title>HoTT_Spaces_List_Paths</title>
<polygon fill="white" stroke="transparent" points="-4,4 -4,-399 794,-399 794,4 -4,4"/>
<g id="clust1" class="cluster">
<title>cluster_Paths</title>
<polygon fill="#ffffc3" stroke="black" points="14.08,-8 14.08,-387 775.92,-387 775.92,-8 14.08,-8"/>
<text text-anchor="middle" x="42.08" y="-371.8" font-family="Times,serif" font-size="14.00">Paths</text>
</g>
<!-- Paths_equiv_path_list -->
<g id="node1" class="node">
<title>Paths_equiv_path_list</title>
<g id="a_node1"><a xlink:href="Paths.html#equiv_path_list" xlink:title="equiv_path_list">
<ellipse fill="#f070d1" stroke="black" cx="568.55" cy="-330" rx="80.68" ry="18"/>
<ellipse fill="none" stroke="black" cx="568.55" cy="-330" rx="84.68" ry="22"/>
<ellipse fill="none" stroke="black" cx="568.55" cy="-330" rx="88.69" ry="26"/>
<text text-anchor="middle" x="568.55" y="-326.3" font-family="Times,serif" font-size="14.00">equiv_path_list</text>
</a>
</g>
</g>
<!-- Paths_encode_decode -->
<g id="node2" class="node">
<title>Paths_encode_decode</title>
<g id="a_node2"><a xlink:href="Paths.html#encode_decode" xlink:title="encode_decode">
<ellipse fill="#f070d1" stroke="black" cx="619.55" cy="-250" rx="80.69" ry="18"/>
<text text-anchor="middle" x="619.55" y="-246.3" font-family="Times,serif" font-size="14.00">encode_decode</text>
</a>
</g>
</g>
<!-- Paths_equiv_path_list&#45;&gt;Paths_encode_decode -->
<g id="edge1" class="edge">
<title>Paths_equiv_path_list&#45;&gt;Paths_encode_decode</title>
<path fill="none" stroke="black" d="M584.69,-304.32C590.47,-295.48 596.99,-285.51 602.82,-276.59"/>
<polygon fill="black" stroke="black" points="605.82,-278.4 608.36,-268.12 599.96,-274.57 605.82,-278.4"/>
</g>
<!-- Paths_decode_encode -->
<g id="node5" class="node">
<title>Paths_decode_encode</title>
<g id="a_node5"><a xlink:href="Paths.html#decode_encode" xlink:title="decode_encode">
<ellipse fill="#f070d1" stroke="black" cx="304.55" cy="-250" rx="80.69" ry="18"/>
<text text-anchor="middle" x="304.55" y="-246.3" font-family="Times,serif" font-size="14.00">decode_encode</text>
</a>
</g>
</g>
<!-- Paths_equiv_path_list&#45;&gt;Paths_decode_encode -->
<g id="edge2" class="edge">
<title>Paths_equiv_path_list&#45;&gt;Paths_decode_encode</title>
<path fill="none" stroke="black" d="M507.66,-311.01C463.44,-297.94 404.05,-280.4 360.92,-267.65"/>
<polygon fill="black" stroke="black" points="361.73,-264.24 351.15,-264.77 359.75,-270.96 361.73,-264.24"/>
</g>
<!-- Paths_decode -->
<g id="node7" class="node">
<title>Paths_decode</title>
<g id="a_node7"><a xlink:href="Paths.html#decode" xlink:title="decode">
<ellipse fill="#f070d1" stroke="black" cx="680.55" cy="-106" rx="43.59" ry="18"/>
<text text-anchor="middle" x="680.55" y="-102.3" font-family="Times,serif" font-size="14.00">decode</text>
</a>
</g>
</g>
<!-- Paths_encode_decode&#45;&gt;Paths_decode -->
<g id="edge3" class="edge">
<title>Paths_encode_decode&#45;&gt;Paths_decode</title>
<path fill="none" stroke="black" d="M658.76,-234.17C675.4,-225.69 693.11,-213.24 702.55,-196 713.37,-176.27 705.53,-151.19 696.34,-132.69"/>
<polygon fill="black" stroke="black" points="699.32,-130.83 691.51,-123.67 693.15,-134.14 699.32,-130.83"/>
</g>
<!-- Paths_encode -->
<g id="node8" class="node">
<title>Paths_encode</title>
<g id="a_node8"><a xlink:href="Paths.html#encode" xlink:title="encode">
<ellipse fill="#f070d1" stroke="black" cx="649.55" cy="-178" rx="43.59" ry="18"/>
<text text-anchor="middle" x="649.55" y="-174.3" font-family="Times,serif" font-size="14.00">encode</text>
</a>
</g>
</g>
<!-- Paths_encode_decode&#45;&gt;Paths_encode -->
<g id="edge4" class="edge">
<title>Paths_encode_decode&#45;&gt;Paths_encode</title>
<path fill="none" stroke="black" d="M626.82,-232.05C630.28,-223.97 634.5,-214.12 638.36,-205.11"/>
<polygon fill="black" stroke="black" points="641.64,-206.36 642.36,-195.79 635.2,-203.6 641.64,-206.36"/>
</g>
<!-- Paths_istrunc_list -->
<g id="node3" class="node">
<title>Paths_istrunc_list</title>
<g id="a_node3"><a xlink:href="Paths.html#istrunc_list" xlink:title="istrunc_list">
<ellipse fill="#f070d1" stroke="black" cx="221.55" cy="-330" rx="62.3" ry="18"/>
<ellipse fill="none" stroke="black" cx="221.55" cy="-330" rx="66.3" ry="22"/>
<ellipse fill="none" stroke="black" cx="221.55" cy="-330" rx="70.29" ry="26"/>
<text text-anchor="middle" x="221.55" y="-326.3" font-family="Times,serif" font-size="14.00">istrunc_list</text>
</a>
</g>
</g>
<!-- Paths_istrunc_listeq -->
<g id="node4" class="node">
<title>Paths_istrunc_listeq</title>
<g id="a_node4"><a xlink:href="Paths.html#istrunc_listeq" xlink:title="istrunc_listeq">
<ellipse fill="#f070d1" stroke="black" cx="156.55" cy="-178" rx="73.39" ry="18"/>
<text text-anchor="middle" x="156.55" y="-174.3" font-family="Times,serif" font-size="14.00">istrunc_listeq</text>
</a>
</g>
</g>
<!-- Paths_istrunc_list&#45;&gt;Paths_istrunc_listeq -->
<g id="edge5" class="edge">
<title>Paths_istrunc_list&#45;&gt;Paths_istrunc_listeq</title>
<path fill="none" stroke="black" d="M210.82,-304.23C199.07,-277.11 180.28,-233.76 168.19,-205.84"/>
<polygon fill="black" stroke="black" points="171.24,-204.1 164.06,-196.31 164.82,-206.88 171.24,-204.1"/>
</g>
<!-- Paths_istrunc_list&#45;&gt;Paths_decode_encode -->
<g id="edge6" class="edge">
<title>Paths_istrunc_list&#45;&gt;Paths_decode_encode</title>
<path fill="none" stroke="black" d="M246.46,-305.6C256.81,-295.87 268.81,-284.6 279.2,-274.82"/>
<polygon fill="black" stroke="black" points="281.9,-277.1 286.79,-267.7 277.1,-271.99 281.9,-277.1"/>
</g>
<!-- Paths_ListEq -->
<g id="node10" class="node">
<title>Paths_ListEq</title>
<g id="a_node10"><a xlink:href="Paths.html#ListEq" xlink:title="ListEq">
<ellipse fill="#f070d1" stroke="black" cx="429.55" cy="-34" rx="40.89" ry="18"/>
<text text-anchor="middle" x="429.55" y="-30.3" font-family="Times,serif" font-size="14.00">ListEq</text>
</a>
</g>
</g>
<!-- Paths_istrunc_listeq&#45;&gt;Paths_ListEq -->
<g id="edge7" class="edge">
<title>Paths_istrunc_listeq&#45;&gt;Paths_ListEq</title>
<path fill="none" stroke="black" d="M186.29,-161.53C237.13,-135.09 340.52,-81.31 394.68,-53.14"/>
<polygon fill="black" stroke="black" points="396.62,-56.07 403.88,-48.35 393.39,-49.86 396.62,-56.07"/>
</g>
<!-- Paths_decode_refl -->
<g id="node6" class="node">
<title>Paths_decode_refl</title>
<g id="a_node6"><a xlink:href="Paths.html#decode_refl" xlink:title="decode_refl">
<ellipse fill="#f070d1" stroke="black" cx="429.55" cy="-178" rx="63.89" ry="18"/>
<text text-anchor="middle" x="429.55" y="-174.3" font-family="Times,serif" font-size="14.00">decode_refl</text>
</a>
</g>
</g>
<!-- Paths_decode_encode&#45;&gt;Paths_decode_refl -->
<g id="edge8" class="edge">
<title>Paths_decode_encode&#45;&gt;Paths_decode_refl</title>
<path fill="none" stroke="black" d="M332.92,-233.12C350.83,-223.09 374.13,-210.04 393.37,-199.27"/>
<polygon fill="black" stroke="black" points="395.15,-202.28 402.16,-194.34 391.73,-196.17 395.15,-202.28"/>
</g>
<!-- Paths_decode_encode&#45;&gt;Paths_encode -->
<g id="edge9" class="edge">
<title>Paths_decode_encode&#45;&gt;Paths_encode</title>
<path fill="none" stroke="black" d="M362.3,-237.28C429.35,-223.68 538.73,-201.49 601.4,-188.77"/>
<polygon fill="black" stroke="black" points="602.31,-192.16 611.41,-186.74 600.92,-185.3 602.31,-192.16"/>
</g>
<!-- Paths_decode_refl&#45;&gt;Paths_decode -->
<g id="edge10" class="edge">
<title>Paths_decode_refl&#45;&gt;Paths_decode</title>
<path fill="none" stroke="black" d="M473.28,-164.81C518.81,-152.11 589.79,-132.31 635.73,-119.5"/>
<polygon fill="black" stroke="black" points="636.73,-122.86 645.42,-116.8 634.85,-116.11 636.73,-122.86"/>
</g>
<!-- Paths_reflexive_listeq -->
<g id="node9" class="node">
<title>Paths_reflexive_listeq</title>
<g id="a_node9"><a xlink:href="Paths.html#reflexive_listeq" xlink:title="reflexive_listeq">
<ellipse fill="#f070d1" stroke="black" cx="429.55" cy="-106" rx="81.49" ry="18"/>
<text text-anchor="middle" x="429.55" y="-102.3" font-family="Times,serif" font-size="14.00">reflexive_listeq</text>
</a>
</g>
</g>
<!-- Paths_decode_refl&#45;&gt;Paths_reflexive_listeq -->
<g id="edge11" class="edge">
<title>Paths_decode_refl&#45;&gt;Paths_reflexive_listeq</title>
<path fill="none" stroke="black" d="M429.55,-159.7C429.55,-151.98 429.55,-142.71 429.55,-134.11"/>
<polygon fill="black" stroke="black" points="433.05,-134.1 429.55,-124.1 426.05,-134.1 433.05,-134.1"/>
</g>
<!-- Paths_decode&#45;&gt;Paths_ListEq -->
<g id="edge12" class="edge">
<title>Paths_decode&#45;&gt;Paths_ListEq</title>
<path fill="none" stroke="black" d="M645.39,-95.19C600.2,-82.59 521.77,-60.72 472.93,-47.1"/>
<polygon fill="black" stroke="black" points="473.85,-43.72 463.28,-44.41 471.97,-50.46 473.85,-43.72"/>
</g>
<!-- Paths_encode&#45;&gt;Paths_reflexive_listeq -->
<g id="edge13" class="edge">
<title>Paths_encode&#45;&gt;Paths_reflexive_listeq</title>
<path fill="none" stroke="black" d="M616.14,-166.37C580.98,-155.18 525.08,-137.39 483.62,-124.2"/>
<polygon fill="black" stroke="black" points="484.54,-120.82 473.95,-121.13 482.42,-127.49 484.54,-120.82"/>
</g>
<!-- Paths_reflexive_listeq&#45;&gt;Paths_ListEq -->
<g id="edge14" class="edge">
<title>Paths_reflexive_listeq&#45;&gt;Paths_ListEq</title>
<path fill="none" stroke="black" d="M429.55,-87.7C429.55,-79.98 429.55,-70.71 429.55,-62.11"/>
<polygon fill="black" stroke="black" points="433.05,-62.1 429.55,-52.1 426.05,-62.1 433.05,-62.1"/>
</g>
</g>
</svg>
