<?xml version="1.0" encoding="UTF-8" standalone="no"?>
<!DOCTYPE svg PUBLIC "-//W3C//DTD SVG 1.1//EN"
 "http://www.w3.org/Graphics/SVG/1.1/DTD/svg11.dtd">
<!-- Generated by graphviz version 2.43.0 (0)
 -->
<!-- Title: HoTT_Truncations_Constant Pages: 1 -->
<svg width="1726pt" height="867pt"
 viewBox="0.00 0.00 1726.00 867.00" xmlns="http://www.w3.org/2000/svg" xmlns:xlink="http://www.w3.org/1999/xlink">
<g id="graph0" class="graph" transform="scale(1 1) rotate(0) translate(4 863)">
<title>HoTT_Truncations_Constant</title>
<polygon fill="white" stroke="transparent" points="-4,4 -4,-863 1722,-863 1722,4 -4,4"/>
<g id="clust1" class="cluster">
<title>cluster_Constant</title>
<polygon fill="#ffffc3" stroke="black" points="8,-8 8,-851 1710,-851 1710,-8 8,-8"/>
<text text-anchor="middle" x="48.5" y="-835.8" font-family="Times,serif" font-size="14.00">Constant</text>
</g>
<!-- Constant_surjective_factor_factors -->
<g id="node1" class="node">
<title>Constant_surjective_factor_factors</title>
<g id="a_node1"><a xlink:href="Constant.html#surjective_factor_factors" xlink:title="surjective_factor_factors">
<ellipse fill="#f070d1" stroke="black" cx="805" cy="-794" rx="124.59" ry="18"/>
<ellipse fill="none" stroke="black" cx="805" cy="-794" rx="128.58" ry="22"/>
<ellipse fill="none" stroke="black" cx="805" cy="-794" rx="132.58" ry="26"/>
<text text-anchor="middle" x="805" y="-790.3" font-family="Times,serif" font-size="14.00">surjective_factor_factors</text>
</a>
</g>
</g>
<!-- Constant_surjective_factor -->
<g id="node2" class="node">
<title>Constant_surjective_factor</title>
<g id="a_node2"><a xlink:href="Constant.html#surjective_factor" xlink:title="surjective_factor">
<ellipse fill="#f070d1" stroke="black" cx="805" cy="-714" rx="88.28" ry="18"/>
<text text-anchor="middle" x="805" y="-710.3" font-family="Times,serif" font-size="14.00">surjective_factor</text>
</a>
</g>
</g>
<!-- Constant_surjective_factor_factors&#45;&gt;Constant_surjective_factor -->
<g id="edge1" class="edge">
<title>Constant_surjective_factor_factors&#45;&gt;Constant_surjective_factor</title>
<path fill="none" stroke="black" d="M805,-767.89C805,-759.84 805,-750.88 805,-742.66"/>
<polygon fill="black" stroke="black" points="808.5,-742.41 805,-732.41 801.5,-742.41 808.5,-742.41"/>
</g>
<!-- Constant_surjective_factor_aux -->
<g id="node3" class="node">
<title>Constant_surjective_factor_aux</title>
<g id="a_node3"><a xlink:href="Constant.html#surjective_factor_aux" xlink:title="surjective_factor_aux">
<ellipse fill="#f070d1" stroke="black" cx="805" cy="-634" rx="109.38" ry="18"/>
<text text-anchor="middle" x="805" y="-630.3" font-family="Times,serif" font-size="14.00">surjective_factor_aux</text>
</a>
</g>
</g>
<!-- Constant_surjective_factor&#45;&gt;Constant_surjective_factor_aux -->
<g id="edge2" class="edge">
<title>Constant_surjective_factor&#45;&gt;Constant_surjective_factor_aux</title>
<path fill="none" stroke="black" d="M805,-695.69C805,-685.89 805,-673.42 805,-662.33"/>
<polygon fill="black" stroke="black" points="808.5,-662.26 805,-652.26 801.5,-662.26 808.5,-662.26"/>
</g>
<!-- Constant_merely_rec_hset -->
<g id="node8" class="node">
<title>Constant_merely_rec_hset</title>
<g id="a_node8"><a xlink:href="Constant.html#merely_rec_hset" xlink:title="merely_rec_hset">
<ellipse fill="#f070d1" stroke="black" cx="1051" cy="-554" rx="86.38" ry="18"/>
<text text-anchor="middle" x="1051" y="-550.3" font-family="Times,serif" font-size="14.00">merely_rec_hset</text>
</a>
</g>
</g>
<!-- Constant_surjective_factor_aux&#45;&gt;Constant_merely_rec_hset -->
<g id="edge3" class="edge">
<title>Constant_surjective_factor_aux&#45;&gt;Constant_merely_rec_hset</title>
<path fill="none" stroke="black" d="M853.02,-617.78C894.01,-604.78 952.97,-586.08 995.88,-572.48"/>
<polygon fill="black" stroke="black" points="997.12,-575.75 1005.6,-569.4 995.01,-569.08 997.12,-575.75"/>
</g>
<!-- Constant_equiv_merely_rec_hset_if_domain -->
<g id="node4" class="node">
<title>Constant_equiv_merely_rec_hset_if_domain</title>
<g id="a_node4"><a xlink:href="Constant.html#equiv_merely_rec_hset_if_domain" xlink:title="equiv_merely_rec_hset_if_domain">
<ellipse fill="#f070d1" stroke="black" cx="1361" cy="-634" rx="165.17" ry="18"/>
<ellipse fill="none" stroke="black" cx="1361" cy="-634" rx="169.17" ry="22"/>
<ellipse fill="none" stroke="black" cx="1361" cy="-634" rx="173.17" ry="26"/>
<text text-anchor="middle" x="1361" y="-630.3" font-family="Times,serif" font-size="14.00">equiv_merely_rec_hset_if_domain</text>
</a>
</g>
</g>
<!-- Constant_merely_rec_hset_if_domain -->
<g id="node5" class="node">
<title>Constant_merely_rec_hset_if_domain</title>
<g id="a_node5"><a xlink:href="Constant.html#merely_rec_hset_if_domain" xlink:title="merely_rec_hset_if_domain">
<ellipse fill="#f070d1" stroke="black" cx="1356" cy="-554" rx="135.68" ry="18"/>
<text text-anchor="middle" x="1356" y="-550.3" font-family="Times,serif" font-size="14.00">merely_rec_hset_if_domain</text>
</a>
</g>
</g>
<!-- Constant_equiv_merely_rec_hset_if_domain&#45;&gt;Constant_merely_rec_hset_if_domain -->
<g id="edge4" class="edge">
<title>Constant_equiv_merely_rec_hset_if_domain&#45;&gt;Constant_merely_rec_hset_if_domain</title>
<path fill="none" stroke="black" d="M1359.39,-607.89C1358.87,-599.84 1358.3,-590.88 1357.77,-582.66"/>
<polygon fill="black" stroke="black" points="1361.25,-582.17 1357.12,-572.41 1354.26,-582.61 1361.25,-582.17"/>
</g>
<!-- Constant_cconst_wconst_hset_if_domain -->
<g id="node6" class="node">
<title>Constant_cconst_wconst_hset_if_domain</title>
<g id="a_node6"><a xlink:href="Constant.html#cconst_wconst_hset_if_domain" xlink:title="cconst_wconst_hset_if_domain">
<ellipse fill="#f070d1" stroke="black" cx="1351" cy="-482" rx="151.37" ry="18"/>
<text text-anchor="middle" x="1351" y="-478.3" font-family="Times,serif" font-size="14.00">cconst_wconst_hset_if_domain</text>
</a>
</g>
</g>
<!-- Constant_merely_rec_hset_if_domain&#45;&gt;Constant_cconst_wconst_hset_if_domain -->
<g id="edge5" class="edge">
<title>Constant_merely_rec_hset_if_domain&#45;&gt;Constant_cconst_wconst_hset_if_domain</title>
<path fill="none" stroke="black" d="M1354.76,-535.7C1354.21,-527.98 1353.55,-518.71 1352.94,-510.11"/>
<polygon fill="black" stroke="black" points="1356.43,-509.83 1352.22,-500.1 1349.44,-510.33 1356.43,-509.83"/>
</g>
<!-- Constant_cconst_wconst_hset_if_merely_domain -->
<g id="node10" class="node">
<title>Constant_cconst_wconst_hset_if_merely_domain</title>
<g id="a_node10"><a xlink:href="Constant.html#cconst_wconst_hset_if_merely_domain" xlink:title="cconst_wconst_hset_if_merely_domain">
<ellipse fill="#f070d1" stroke="black" cx="1129" cy="-410" rx="187.67" ry="18"/>
<text text-anchor="middle" x="1129" y="-406.3" font-family="Times,serif" font-size="14.00">cconst_wconst_hset_if_merely_domain</text>
</a>
</g>
</g>
<!-- Constant_cconst_wconst_hset_if_domain&#45;&gt;Constant_cconst_wconst_hset_if_merely_domain -->
<g id="edge6" class="edge">
<title>Constant_cconst_wconst_hset_if_domain&#45;&gt;Constant_cconst_wconst_hset_if_merely_domain</title>
<path fill="none" stroke="black" d="M1300.35,-465.03C1267.85,-454.78 1225.44,-441.41 1190.94,-430.53"/>
<polygon fill="black" stroke="black" points="1191.57,-427.06 1180.98,-427.39 1189.46,-433.73 1191.57,-427.06"/>
</g>
<!-- Constant_merely_rec_hset_beta -->
<g id="node7" class="node">
<title>Constant_merely_rec_hset_beta</title>
<g id="a_node7"><a xlink:href="Constant.html#merely_rec_hset_beta" xlink:title="merely_rec_hset_beta">
<ellipse fill="#f070d1" stroke="black" cx="1051" cy="-634" rx="111.27" ry="18"/>
<ellipse fill="none" stroke="black" cx="1051" cy="-634" rx="115.28" ry="22"/>
<ellipse fill="none" stroke="black" cx="1051" cy="-634" rx="119.28" ry="26"/>
<text text-anchor="middle" x="1051" y="-630.3" font-family="Times,serif" font-size="14.00">merely_rec_hset_beta</text>
</a>
</g>
</g>
<!-- Constant_merely_rec_hset_beta&#45;&gt;Constant_merely_rec_hset -->
<g id="edge7" class="edge">
<title>Constant_merely_rec_hset_beta&#45;&gt;Constant_merely_rec_hset</title>
<path fill="none" stroke="black" d="M1051,-607.89C1051,-599.84 1051,-590.88 1051,-582.66"/>
<polygon fill="black" stroke="black" points="1054.5,-582.41 1051,-572.41 1047.5,-582.41 1054.5,-582.41"/>
</g>
<!-- Constant_cconst_wconst_hset -->
<g id="node9" class="node">
<title>Constant_cconst_wconst_hset</title>
<g id="a_node9"><a xlink:href="Constant.html#cconst_wconst_hset" xlink:title="cconst_wconst_hset">
<ellipse fill="#f070d1" stroke="black" cx="1070" cy="-482" rx="102.08" ry="18"/>
<text text-anchor="middle" x="1070" y="-478.3" font-family="Times,serif" font-size="14.00">cconst_wconst_hset</text>
</a>
</g>
</g>
<!-- Constant_merely_rec_hset&#45;&gt;Constant_cconst_wconst_hset -->
<g id="edge8" class="edge">
<title>Constant_merely_rec_hset&#45;&gt;Constant_cconst_wconst_hset</title>
<path fill="none" stroke="black" d="M1055.7,-535.7C1057.81,-527.9 1060.36,-518.51 1062.72,-509.83"/>
<polygon fill="black" stroke="black" points="1066.12,-510.67 1065.36,-500.1 1059.36,-508.84 1066.12,-510.67"/>
</g>
<!-- Constant_cconst_wconst_hset&#45;&gt;Constant_cconst_wconst_hset_if_merely_domain -->
<g id="edge9" class="edge">
<title>Constant_cconst_wconst_hset&#45;&gt;Constant_cconst_wconst_hset_if_merely_domain</title>
<path fill="none" stroke="black" d="M1084.28,-464.05C1091.35,-455.67 1100.03,-445.38 1107.85,-436.1"/>
<polygon fill="black" stroke="black" points="1110.67,-438.18 1114.44,-428.28 1105.32,-433.67 1110.67,-438.18"/>
</g>
<!-- Constant_hprop_image_wconst_hset_if_merely_domain -->
<g id="node11" class="node">
<title>Constant_hprop_image_wconst_hset_if_merely_domain</title>
<g id="a_node11"><a xlink:href="Constant.html#hprop_image_wconst_hset_if_merely_domain" xlink:title="hprop_image_wconst_hset_if_merely_domain">
<ellipse fill="#f070d1" stroke="black" cx="1188" cy="-330" rx="217.96" ry="18"/>
<text text-anchor="middle" x="1188" y="-326.3" font-family="Times,serif" font-size="14.00">hprop_image_wconst_hset_if_merely_domain</text>
</a>
</g>
</g>
<!-- Constant_cconst_wconst_hset_if_merely_domain&#45;&gt;Constant_hprop_image_wconst_hset_if_merely_domain -->
<g id="edge10" class="edge">
<title>Constant_cconst_wconst_hset_if_merely_domain&#45;&gt;Constant_hprop_image_wconst_hset_if_merely_domain</title>
<path fill="none" stroke="black" d="M1142.09,-391.69C1150.02,-381.22 1160.25,-367.68 1169.05,-356.05"/>
<polygon fill="black" stroke="black" points="1171.9,-358.08 1175.15,-347.99 1166.32,-353.86 1171.9,-358.08"/>
</g>
<!-- Constant_cconst_factors_hprop -->
<g id="node14" class="node">
<title>Constant_cconst_factors_hprop</title>
<g id="a_node14"><a xlink:href="Constant.html#cconst_factors_hprop" xlink:title="cconst_factors_hprop">
<ellipse fill="#f070d1" stroke="black" cx="543" cy="-330" rx="108.58" ry="18"/>
<text text-anchor="middle" x="543" y="-326.3" font-family="Times,serif" font-size="14.00">cconst_factors_hprop</text>
</a>
</g>
</g>
<!-- Constant_cconst_wconst_hset_if_merely_domain&#45;&gt;Constant_cconst_factors_hprop -->
<g id="edge11" class="edge">
<title>Constant_cconst_wconst_hset_if_merely_domain&#45;&gt;Constant_cconst_factors_hprop</title>
<path fill="none" stroke="black" d="M995.39,-397.31C901.53,-388.26 773.19,-374.19 661,-356 645.57,-353.5 629.1,-350.33 613.52,-347.1"/>
<polygon fill="black" stroke="black" points="613.93,-343.61 603.43,-344.97 612.49,-350.45 613.93,-343.61"/>
</g>
<!-- Constant_cconst_wconst_collapsible -->
<g id="node12" class="node">
<title>Constant_cconst_wconst_collapsible</title>
<g id="a_node12"><a xlink:href="Constant.html#cconst_wconst_collapsible" xlink:title="cconst_wconst_collapsible">
<ellipse fill="#f070d1" stroke="black" cx="1563" cy="-330" rx="131.09" ry="18"/>
<ellipse fill="none" stroke="black" cx="1563" cy="-330" rx="135.08" ry="22"/>
<ellipse fill="none" stroke="black" cx="1563" cy="-330" rx="139.08" ry="26"/>
<text text-anchor="middle" x="1563" y="-326.3" font-family="Times,serif" font-size="14.00">cconst_wconst_collapsible</text>
</a>
</g>
</g>
<!-- Constant_ConditionallyConstant -->
<g id="node17" class="node">
<title>Constant_ConditionallyConstant</title>
<g id="a_node17"><a xlink:href="Constant.html#ConditionallyConstant" xlink:title="ConditionallyConstant">
<ellipse fill="#f070d1" stroke="black" cx="543" cy="-250" rx="114.28" ry="18"/>
<text text-anchor="middle" x="543" y="-246.3" font-family="Times,serif" font-size="14.00">ConditionallyConstant</text>
</a>
</g>
</g>
<!-- Constant_cconst_wconst_collapsible&#45;&gt;Constant_ConditionallyConstant -->
<g id="edge12" class="edge">
<title>Constant_cconst_wconst_collapsible&#45;&gt;Constant_ConditionallyConstant</title>
<path fill="none" stroke="black" d="M1466.48,-311.17C1449.38,-308.45 1431.7,-305.91 1415,-304 1148.46,-273.48 833.94,-259.83 665,-254.31"/>
<polygon fill="black" stroke="black" points="664.94,-250.81 654.83,-253.98 664.71,-257.8 664.94,-250.81"/>
</g>
<!-- Constant_splitsupp_collapsible -->
<g id="node19" class="node">
<title>Constant_splitsupp_collapsible</title>
<g id="a_node19"><a xlink:href="Constant.html#splitsupp_collapsible" xlink:title="splitsupp_collapsible">
<ellipse fill="#f070d1" stroke="black" cx="1563" cy="-250" rx="107.48" ry="18"/>
<text text-anchor="middle" x="1563" y="-246.3" font-family="Times,serif" font-size="14.00">splitsupp_collapsible</text>
</a>
</g>
</g>
<!-- Constant_cconst_wconst_collapsible&#45;&gt;Constant_splitsupp_collapsible -->
<g id="edge13" class="edge">
<title>Constant_cconst_wconst_collapsible&#45;&gt;Constant_splitsupp_collapsible</title>
<path fill="none" stroke="black" d="M1563,-303.89C1563,-295.84 1563,-286.88 1563,-278.66"/>
<polygon fill="black" stroke="black" points="1566.5,-278.41 1563,-268.41 1559.5,-278.41 1566.5,-278.41"/>
</g>
<!-- Constant_cconst_factors_contr -->
<g id="node13" class="node">
<title>Constant_cconst_factors_contr</title>
<g id="a_node13"><a xlink:href="Constant.html#cconst_factors_contr" xlink:title="cconst_factors_contr">
<ellipse fill="#f070d1" stroke="black" cx="130" cy="-330" rx="105.89" ry="18"/>
<ellipse fill="none" stroke="black" cx="130" cy="-330" rx="109.88" ry="22"/>
<ellipse fill="none" stroke="black" cx="130" cy="-330" rx="113.88" ry="26"/>
<text text-anchor="middle" x="130" y="-326.3" font-family="Times,serif" font-size="14.00">cconst_factors_contr</text>
</a>
</g>
</g>
<!-- Constant_cconst_factors_contr&#45;&gt;Constant_ConditionallyConstant -->
<g id="edge14" class="edge">
<title>Constant_cconst_factors_contr&#45;&gt;Constant_ConditionallyConstant</title>
<path fill="none" stroke="black" d="M211.98,-311.94C225.35,-309.24 239.05,-306.51 252,-304 321.94,-290.47 401.53,-276.04 459.78,-265.66"/>
<polygon fill="black" stroke="black" points="460.43,-269.1 469.67,-263.9 459.21,-262.2 460.43,-269.1"/>
</g>
<!-- Constant_cconst_factors_hprop&#45;&gt;Constant_ConditionallyConstant -->
<g id="edge15" class="edge">
<title>Constant_cconst_factors_hprop&#45;&gt;Constant_ConditionallyConstant</title>
<path fill="none" stroke="black" d="M543,-311.69C543,-301.89 543,-289.42 543,-278.33"/>
<polygon fill="black" stroke="black" points="546.5,-278.26 543,-268.26 539.5,-278.26 546.5,-278.26"/>
</g>
<!-- Constant_equiv_cconst_from_merely -->
<g id="node15" class="node">
<title>Constant_equiv_cconst_from_merely</title>
<g id="a_node15"><a xlink:href="Constant.html#equiv_cconst_from_merely" xlink:title="equiv_cconst_from_merely">
<ellipse fill="#f070d1" stroke="black" cx="811" cy="-330" rx="133.46" ry="18"/>
<ellipse fill="none" stroke="black" cx="811" cy="-330" rx="137.47" ry="22"/>
<ellipse fill="none" stroke="black" cx="811" cy="-330" rx="141.48" ry="26"/>
<text text-anchor="middle" x="811" y="-326.3" font-family="Times,serif" font-size="14.00">equiv_cconst_from_merely</text>
</a>
</g>
</g>
<!-- Constant_equiv_cconst_from_merely&#45;&gt;Constant_ConditionallyConstant -->
<g id="edge16" class="edge">
<title>Constant_equiv_cconst_from_merely&#45;&gt;Constant_ConditionallyConstant</title>
<path fill="none" stroke="black" d="M737.77,-307.69C696.05,-295.54 644.36,-280.5 604.72,-268.96"/>
<polygon fill="black" stroke="black" points="605.49,-265.54 594.91,-266.11 603.53,-272.26 605.49,-265.54"/>
</g>
<!-- Constant_cconst_const -->
<g id="node16" class="node">
<title>Constant_cconst_const</title>
<g id="a_node16"><a xlink:href="Constant.html#cconst_const" xlink:title="cconst_const">
<ellipse fill="#f070d1" stroke="black" cx="339" cy="-330" rx="69.58" ry="18"/>
<ellipse fill="none" stroke="black" cx="339" cy="-330" rx="73.59" ry="22"/>
<ellipse fill="none" stroke="black" cx="339" cy="-330" rx="77.59" ry="26"/>
<text text-anchor="middle" x="339" y="-326.3" font-family="Times,serif" font-size="14.00">cconst_const</text>
</a>
</g>
</g>
<!-- Constant_cconst_const&#45;&gt;Constant_ConditionallyConstant -->
<g id="edge17" class="edge">
<title>Constant_cconst_const&#45;&gt;Constant_ConditionallyConstant</title>
<path fill="none" stroke="black" d="M388.64,-310.02C419.96,-298.04 460.31,-282.62 491.9,-270.54"/>
<polygon fill="black" stroke="black" points="493.31,-273.75 501.4,-266.9 490.81,-267.21 493.31,-273.75"/>
</g>
<!-- Constant_collapsible_splitsupp -->
<g id="node18" class="node">
<title>Constant_collapsible_splitsupp</title>
<g id="a_node18"><a xlink:href="Constant.html#collapsible_splitsupp" xlink:title="collapsible_splitsupp">
<ellipse fill="#f070d1" stroke="black" cx="403" cy="-794" rx="107.46" ry="18"/>
<ellipse fill="none" stroke="black" cx="403" cy="-794" rx="111.47" ry="22"/>
<ellipse fill="none" stroke="black" cx="403" cy="-794" rx="115.48" ry="26"/>
<text text-anchor="middle" x="403" y="-790.3" font-family="Times,serif" font-size="14.00">collapsible_splitsupp</text>
</a>
</g>
</g>
<!-- Constant_equiv_fix_merely -->
<g id="node20" class="node">
<title>Constant_equiv_fix_merely</title>
<g id="a_node20"><a xlink:href="Constant.html#equiv_fix_merely" xlink:title="equiv_fix_merely">
<ellipse fill="#f070d1" stroke="black" cx="1563" cy="-178" rx="88.28" ry="18"/>
<text text-anchor="middle" x="1563" y="-174.3" font-family="Times,serif" font-size="14.00">equiv_fix_merely</text>
</a>
</g>
</g>
<!-- Constant_splitsupp_collapsible&#45;&gt;Constant_equiv_fix_merely -->
<g id="edge18" class="edge">
<title>Constant_splitsupp_collapsible&#45;&gt;Constant_equiv_fix_merely</title>
<path fill="none" stroke="black" d="M1563,-231.7C1563,-223.98 1563,-214.71 1563,-206.11"/>
<polygon fill="black" stroke="black" points="1566.5,-206.1 1563,-196.1 1559.5,-206.1 1566.5,-206.1"/>
</g>
<!-- Constant_ishprop_fix_wconst -->
<g id="node21" class="node">
<title>Constant_ishprop_fix_wconst</title>
<g id="a_node21"><a xlink:href="Constant.html#ishprop_fix_wconst" xlink:title="ishprop_fix_wconst">
<ellipse fill="#f070d1" stroke="black" cx="1563" cy="-106" rx="98.58" ry="18"/>
<text text-anchor="middle" x="1563" y="-102.3" font-family="Times,serif" font-size="14.00">ishprop_fix_wconst</text>
</a>
</g>
</g>
<!-- Constant_equiv_fix_merely&#45;&gt;Constant_ishprop_fix_wconst -->
<g id="edge19" class="edge">
<title>Constant_equiv_fix_merely&#45;&gt;Constant_ishprop_fix_wconst</title>
<path fill="none" stroke="black" d="M1563,-159.7C1563,-151.98 1563,-142.71 1563,-134.11"/>
<polygon fill="black" stroke="black" points="1566.5,-134.1 1563,-124.1 1559.5,-134.1 1566.5,-134.1"/>
</g>
<!-- Constant_FixedBy -->
<g id="node22" class="node">
<title>Constant_FixedBy</title>
<g id="a_node22"><a xlink:href="Constant.html#FixedBy" xlink:title="FixedBy">
<ellipse fill="#f070d1" stroke="black" cx="1563" cy="-34" rx="48.99" ry="18"/>
<text text-anchor="middle" x="1563" y="-30.3" font-family="Times,serif" font-size="14.00">FixedBy</text>
</a>
</g>
</g>
<!-- Constant_ishprop_fix_wconst&#45;&gt;Constant_FixedBy -->
<g id="edge20" class="edge">
<title>Constant_ishprop_fix_wconst&#45;&gt;Constant_FixedBy</title>
<path fill="none" stroke="black" d="M1563,-87.7C1563,-79.98 1563,-70.71 1563,-62.11"/>
<polygon fill="black" stroke="black" points="1566.5,-62.1 1563,-52.1 1559.5,-62.1 1566.5,-62.1"/>
</g>
</g>
</svg>
