<?xml version="1.0" encoding="UTF-8" standalone="no"?>
<!DOCTYPE svg PUBLIC "-//W3C//DTD SVG 1.1//EN"
 "http://www.w3.org/Graphics/SVG/1.1/DTD/svg11.dtd">
<!-- Generated by graphviz version 2.43.0 (0)
 -->
<!-- Title: HoTT_Algebra_AbGroups_AbPullback Pages: 1 -->
<svg width="798pt" height="403pt"
 viewBox="0.00 0.00 798.00 403.00" xmlns="http://www.w3.org/2000/svg" xmlns:xlink="http://www.w3.org/1999/xlink">
<g id="graph0" class="graph" transform="scale(1 1) rotate(0) translate(4 399)">
<title>HoTT_Algebra_AbGroups_AbPullback</title>
<polygon fill="white" stroke="transparent" points="-4,4 -4,-399 794,-399 794,4 -4,4"/>
<g id="clust1" class="cluster">
<title>cluster_AbPullback</title>
<polygon fill="#ffffc3" stroke="black" points="21.64,-8 21.64,-387 768.36,-387 768.36,-8 21.64,-8"/>
<text text-anchor="middle" x="69.64" y="-371.8" font-family="Times,serif" font-size="14.00">AbPullback</text>
</g>
<!-- AbPullback_isabepistable_abgroup -->
<g id="node1" class="node">
<title>AbPullback_isabepistable_abgroup</title>
<g id="a_node1"><a xlink:href="AbPullback.html#isabepistable_abgroup" xlink:title="isabepistable_abgroup">
<ellipse fill="#f070d1" stroke="black" cx="394.95" cy="-330" rx="115.08" ry="18"/>
<ellipse fill="none" stroke="black" cx="394.95" cy="-330" rx="119.08" ry="22"/>
<ellipse fill="none" stroke="black" cx="394.95" cy="-330" rx="123.08" ry="26"/>
<text text-anchor="middle" x="394.95" y="-326.3" font-family="Times,serif" font-size="14.00">isabepistable_abgroup</text>
</a>
</g>
</g>
<!-- AbPullback_isepistable_abgroup -->
<g id="node2" class="node">
<title>AbPullback_isepistable_abgroup</title>
<g id="a_node2"><a xlink:href="AbPullback.html#isepistable_abgroup" xlink:title="isepistable_abgroup">
<ellipse fill="#f070d1" stroke="black" cx="394.95" cy="-250" rx="103.98" ry="18"/>
<text text-anchor="middle" x="394.95" y="-246.3" font-family="Times,serif" font-size="14.00">isepistable_abgroup</text>
</a>
</g>
</g>
<!-- AbPullback_isabepistable_abgroup&#45;&gt;AbPullback_isepistable_abgroup -->
<g id="edge1" class="edge">
<title>AbPullback_isabepistable_abgroup&#45;&gt;AbPullback_isepistable_abgroup</title>
<path fill="none" stroke="black" d="M394.95,-303.89C394.95,-295.84 394.95,-286.88 394.95,-278.66"/>
<polygon fill="black" stroke="black" points="398.45,-278.41 394.95,-268.41 391.45,-278.41 398.45,-278.41"/>
</g>
<!-- AbPullback_haspullbacks_abgroup -->
<g id="node3" class="node">
<title>AbPullback_haspullbacks_abgroup</title>
<g id="a_node3"><a xlink:href="AbPullback.html#haspullbacks_abgroup" xlink:title="haspullbacks_abgroup">
<ellipse fill="#f070d1" stroke="black" cx="394.95" cy="-178" rx="113.98" ry="18"/>
<text text-anchor="middle" x="394.95" y="-174.3" font-family="Times,serif" font-size="14.00">haspullbacks_abgroup</text>
</a>
</g>
</g>
<!-- AbPullback_isepistable_abgroup&#45;&gt;AbPullback_haspullbacks_abgroup -->
<g id="edge2" class="edge">
<title>AbPullback_isepistable_abgroup&#45;&gt;AbPullback_haspullbacks_abgroup</title>
<path fill="none" stroke="black" d="M394.95,-231.7C394.95,-223.98 394.95,-214.71 394.95,-206.11"/>
<polygon fill="black" stroke="black" points="398.45,-206.1 394.95,-196.1 391.45,-206.1 398.45,-206.1"/>
</g>
<!-- AbPullback_ab_pullback -->
<g id="node4" class="node">
<title>AbPullback_ab_pullback</title>
<g id="a_node4"><a xlink:href="AbPullback.html#ab_pullback" xlink:title="ab_pullback">
<ellipse fill="#f070d1" stroke="black" cx="394.95" cy="-106" rx="65.79" ry="18"/>
<text text-anchor="middle" x="394.95" y="-102.3" font-family="Times,serif" font-size="14.00">ab_pullback</text>
</a>
</g>
</g>
<!-- AbPullback_haspullbacks_abgroup&#45;&gt;AbPullback_ab_pullback -->
<g id="edge3" class="edge">
<title>AbPullback_haspullbacks_abgroup&#45;&gt;AbPullback_ab_pullback</title>
<path fill="none" stroke="black" d="M394.95,-159.7C394.95,-151.98 394.95,-142.71 394.95,-134.11"/>
<polygon fill="black" stroke="black" points="398.45,-134.1 394.95,-124.1 391.45,-134.1 398.45,-134.1"/>
</g>
<!-- AbPullback_ab_pullback_commutative -->
<g id="node5" class="node">
<title>AbPullback_ab_pullback_commutative</title>
<g id="a_node5"><a xlink:href="AbPullback.html#ab_pullback_commutative" xlink:title="ab_pullback_commutative">
<ellipse fill="#f070d1" stroke="black" cx="394.95" cy="-34" rx="129.98" ry="18"/>
<text text-anchor="middle" x="394.95" y="-30.3" font-family="Times,serif" font-size="14.00">ab_pullback_commutative</text>
</a>
</g>
</g>
<!-- AbPullback_ab_pullback&#45;&gt;AbPullback_ab_pullback_commutative -->
<g id="edge4" class="edge">
<title>AbPullback_ab_pullback&#45;&gt;AbPullback_ab_pullback_commutative</title>
<path fill="none" stroke="black" d="M394.95,-87.7C394.95,-79.98 394.95,-70.71 394.95,-62.11"/>
<polygon fill="black" stroke="black" points="398.45,-62.1 394.95,-52.1 391.45,-62.1 398.45,-62.1"/>
</g>
</g>
</svg>
