<?xml version="1.0" encoding="UTF-8" standalone="no"?>
<!DOCTYPE svg PUBLIC "-//W3C//DTD SVG 1.1//EN"
 "http://www.w3.org/Graphics/SVG/1.1/DTD/svg11.dtd">
<!-- Generated by graphviz version 2.43.0 (0)
 -->
<!-- Title: HoTT_Modalities_Identity Pages: 1 -->
<svg width="366pt" height="187pt"
 viewBox="0.00 0.00 366.00 187.00" xmlns="http://www.w3.org/2000/svg" xmlns:xlink="http://www.w3.org/1999/xlink">
<g id="graph0" class="graph" transform="scale(1 1) rotate(0) translate(4 183)">
<title>HoTT_Modalities_Identity</title>
<polygon fill="white" stroke="transparent" points="-4,4 -4,-183 362,-183 362,4 -4,4"/>
<g id="clust1" class="cluster">
<title>cluster_Identity</title>
<polygon fill="#ffffc3" stroke="black" points="11.46,-8 11.46,-171 346.54,-171 346.54,-8 11.46,-8"/>
<text text-anchor="middle" x="47.96" y="-155.8" font-family="Times,serif" font-size="14.00">Identity</text>
</g>
<!-- Identity_accmodality_purely -->
<g id="node1" class="node">
<title>Identity_accmodality_purely</title>
<g id="a_node1"><a xlink:href="Identity.html#accmodality_purely" xlink:title="accmodality_purely">
<ellipse fill="#f070d1" stroke="black" cx="178.76" cy="-114" rx="100.96" ry="18"/>
<ellipse fill="none" stroke="black" cx="178.76" cy="-114" rx="104.97" ry="22"/>
<ellipse fill="none" stroke="black" cx="178.76" cy="-114" rx="108.98" ry="26"/>
<text text-anchor="middle" x="178.76" y="-110.3" font-family="Times,serif" font-size="14.00">accmodality_purely</text>
</a>
</g>
</g>
<!-- Identity_purely -->
<g id="node2" class="node">
<title>Identity_purely</title>
<g id="a_node2"><a xlink:href="Identity.html#purely" xlink:title="purely">
<ellipse fill="#f070d1" stroke="black" cx="178.76" cy="-34" rx="40.09" ry="18"/>
<text text-anchor="middle" x="178.76" y="-30.3" font-family="Times,serif" font-size="14.00">purely</text>
</a>
</g>
</g>
<!-- Identity_accmodality_purely&#45;&gt;Identity_purely -->
<g id="edge1" class="edge">
<title>Identity_accmodality_purely&#45;&gt;Identity_purely</title>
<path fill="none" stroke="black" d="M178.76,-87.89C178.76,-79.84 178.76,-70.88 178.76,-62.66"/>
<polygon fill="black" stroke="black" points="182.26,-62.41 178.76,-52.41 175.26,-62.41 182.26,-62.41"/>
</g>
</g>
</svg>
