<?xml version="1.0" encoding="UTF-8" standalone="no"?>
<!DOCTYPE svg PUBLIC "-//W3C//DTD SVG 1.1//EN"
 "http://www.w3.org/Graphics/SVG/1.1/DTD/svg11.dtd">
<!-- Generated by graphviz version 2.43.0 (0)
 -->
<!-- Title: HoTT_Classes_theory_lattices Pages: 1 -->
<svg width="3920pt" height="1964pt"
 viewBox="0.00 0.00 3920.00 1964.00" xmlns="http://www.w3.org/2000/svg" xmlns:xlink="http://www.w3.org/1999/xlink">
<g id="graph0" class="graph" transform="scale(1 1) rotate(0) translate(4 1960)">
<title>HoTT_Classes_theory_lattices</title>
<polygon fill="white" stroke="transparent" points="-4,4 -4,-1960 3916,-1960 3916,4 -4,4"/>
<g id="clust1" class="cluster">
<title>cluster_lattices</title>
<polygon fill="#ffffc3" stroke="black" points="8,-46.16 8,-1909.84 3904,-1909.84 3904,-46.16 8,-46.16"/>
<text text-anchor="middle" x="42.5" y="-1894.64" font-family="Times,serif" font-size="14.00">lattices</text>
</g>
<!-- lattices_invert_lattice_morphism -->
<g id="node1" class="node">
<title>lattices_invert_lattice_morphism</title>
<g id="a_node1"><a xlink:href="lattices.html#invert_lattice_morphism" xlink:title="invert_lattice_morphism">
<ellipse fill="#f070d1" stroke="black" cx="3765" cy="-1581.16" rx="123.48" ry="18"/>
<ellipse fill="none" stroke="black" cx="3765" cy="-1581.16" rx="127.48" ry="22"/>
<ellipse fill="none" stroke="black" cx="3765" cy="-1581.16" rx="131.48" ry="26"/>
<text text-anchor="middle" x="3765" y="-1577.46" font-family="Times,serif" font-size="14.00">invert_lattice_morphism</text>
</a>
</g>
</g>
<!-- lattices_invert_meet_sl_morphism -->
<g id="node3" class="node">
<title>lattices_invert_meet_sl_morphism</title>
<g id="a_node3"><a xlink:href="lattices.html#invert_meet_sl_morphism" xlink:title="invert_meet_sl_morphism">
<ellipse fill="#f070d1" stroke="black" cx="3498" cy="-1073.16" rx="129.98" ry="18"/>
<text text-anchor="middle" x="3498" y="-1069.46" font-family="Times,serif" font-size="14.00">invert_meet_sl_morphism</text>
</a>
</g>
</g>
<!-- lattices_invert_lattice_morphism&#45;&gt;lattices_invert_meet_sl_morphism -->
<g id="edge1" class="edge">
<title>lattices_invert_lattice_morphism&#45;&gt;lattices_invert_meet_sl_morphism</title>
<path fill="none" stroke="black" d="M3751.76,-1555.07C3706.42,-1469.15 3557.69,-1187.29 3511.69,-1100.1"/>
<polygon fill="black" stroke="black" points="3514.72,-1098.34 3506.96,-1091.13 3508.53,-1101.61 3514.72,-1098.34"/>
</g>
<!-- lattices_invert_join_sl_morphism -->
<g id="node4" class="node">
<title>lattices_invert_join_sl_morphism</title>
<g id="a_node4"><a xlink:href="lattices.html#invert_join_sl_morphism" xlink:title="invert_join_sl_morphism">
<ellipse fill="#f070d1" stroke="black" cx="3769" cy="-1073.16" rx="123.48" ry="18"/>
<text text-anchor="middle" x="3769" y="-1069.46" font-family="Times,serif" font-size="14.00">invert_join_sl_morphism</text>
</a>
</g>
</g>
<!-- lattices_invert_lattice_morphism&#45;&gt;lattices_invert_join_sl_morphism -->
<g id="edge2" class="edge">
<title>lattices_invert_lattice_morphism&#45;&gt;lattices_invert_join_sl_morphism</title>
<path fill="none" stroke="black" d="M3765.2,-1555.07C3765.87,-1469.59 3768.08,-1190.2 3768.78,-1101.47"/>
<polygon fill="black" stroke="black" points="3772.28,-1101.41 3768.86,-1091.39 3765.28,-1101.36 3772.28,-1101.41"/>
</g>
<!-- lattices_invert_bounded_join_sl_morphism -->
<g id="node2" class="node">
<title>lattices_invert_bounded_join_sl_morphism</title>
<g id="a_node2"><a xlink:href="lattices.html#invert_bounded_join_sl_morphism" xlink:title="invert_bounded_join_sl_morphism">
<ellipse fill="#f070d1" stroke="black" cx="3440" cy="-1581.16" rx="167.86" ry="18"/>
<ellipse fill="none" stroke="black" cx="3440" cy="-1581.16" rx="171.87" ry="22"/>
<ellipse fill="none" stroke="black" cx="3440" cy="-1581.16" rx="175.87" ry="26"/>
<text text-anchor="middle" x="3440" y="-1577.46" font-family="Times,serif" font-size="14.00">invert_bounded_join_sl_morphism</text>
</a>
</g>
</g>
<!-- lattices_compose_lattice_morphism -->
<g id="node5" class="node">
<title>lattices_compose_lattice_morphism</title>
<g id="a_node5"><a xlink:href="lattices.html#compose_lattice_morphism" xlink:title="compose_lattice_morphism">
<ellipse fill="#f070d1" stroke="black" cx="3102" cy="-1581.16" rx="135.69" ry="18"/>
<ellipse fill="none" stroke="black" cx="3102" cy="-1581.16" rx="139.68" ry="22"/>
<ellipse fill="none" stroke="black" cx="3102" cy="-1581.16" rx="143.68" ry="26"/>
<text text-anchor="middle" x="3102" y="-1577.46" font-family="Times,serif" font-size="14.00">compose_lattice_morphism</text>
</a>
</g>
</g>
<!-- lattices_compose_meet_sl_morphism -->
<g id="node7" class="node">
<title>lattices_compose_meet_sl_morphism</title>
<g id="a_node7"><a xlink:href="lattices.html#compose_meet_sl_morphism" xlink:title="compose_meet_sl_morphism">
<ellipse fill="#f070d1" stroke="black" cx="2862" cy="-1073.16" rx="142.17" ry="18"/>
<text text-anchor="middle" x="2862" y="-1069.46" font-family="Times,serif" font-size="14.00">compose_meet_sl_morphism</text>
</a>
</g>
</g>
<!-- lattices_compose_lattice_morphism&#45;&gt;lattices_compose_meet_sl_morphism -->
<g id="edge3" class="edge">
<title>lattices_compose_lattice_morphism&#45;&gt;lattices_compose_meet_sl_morphism</title>
<path fill="none" stroke="black" d="M3090.1,-1555.07C3049.39,-1469.24 2915.93,-1187.86 2874.43,-1100.36"/>
<polygon fill="black" stroke="black" points="2877.5,-1098.67 2870.05,-1091.13 2871.17,-1101.67 2877.5,-1098.67"/>
</g>
<!-- lattices_compose_join_sl_morphism -->
<g id="node8" class="node">
<title>lattices_compose_join_sl_morphism</title>
<g id="a_node8"><a xlink:href="lattices.html#compose_join_sl_morphism" xlink:title="compose_join_sl_morphism">
<ellipse fill="#f070d1" stroke="black" cx="3158" cy="-1073.16" rx="135.68" ry="18"/>
<text text-anchor="middle" x="3158" y="-1069.46" font-family="Times,serif" font-size="14.00">compose_join_sl_morphism</text>
</a>
</g>
</g>
<!-- lattices_compose_lattice_morphism&#45;&gt;lattices_compose_join_sl_morphism -->
<g id="edge4" class="edge">
<title>lattices_compose_lattice_morphism&#45;&gt;lattices_compose_join_sl_morphism</title>
<path fill="none" stroke="black" d="M3104.78,-1555.07C3114.24,-1469.59 3145.16,-1190.2 3154.98,-1101.47"/>
<polygon fill="black" stroke="black" points="3158.47,-1101.71 3156.09,-1091.39 3151.51,-1100.94 3158.47,-1101.71"/>
</g>
<!-- lattices_compose_bounded_join_sl_morphism -->
<g id="node6" class="node">
<title>lattices_compose_bounded_join_sl_morphism</title>
<g id="a_node6"><a xlink:href="lattices.html#compose_bounded_join_sl_morphism" xlink:title="compose_bounded_join_sl_morphism">
<ellipse fill="#f070d1" stroke="black" cx="2751" cy="-1581.16" rx="180.86" ry="18"/>
<ellipse fill="none" stroke="black" cx="2751" cy="-1581.16" rx="184.86" ry="22"/>
<ellipse fill="none" stroke="black" cx="2751" cy="-1581.16" rx="188.87" ry="26"/>
<text text-anchor="middle" x="2751" y="-1577.46" font-family="Times,serif" font-size="14.00">compose_bounded_join_sl_morphism</text>
</a>
</g>
</g>
<!-- lattices_id_lattice_morphism -->
<g id="node9" class="node">
<title>lattices_id_lattice_morphism</title>
<g id="a_node9"><a xlink:href="lattices.html#id_lattice_morphism" xlink:title="id_lattice_morphism">
<ellipse fill="#f070d1" stroke="black" cx="2432" cy="-1581.16" rx="104.77" ry="18"/>
<ellipse fill="none" stroke="black" cx="2432" cy="-1581.16" rx="108.78" ry="22"/>
<ellipse fill="none" stroke="black" cx="2432" cy="-1581.16" rx="112.78" ry="26"/>
<text text-anchor="middle" x="2432" y="-1577.46" font-family="Times,serif" font-size="14.00">id_lattice_morphism</text>
</a>
</g>
</g>
<!-- lattices_id_meet_sl_morphism -->
<g id="node11" class="node">
<title>lattices_id_meet_sl_morphism</title>
<g id="a_node11"><a xlink:href="lattices.html#id_meet_sl_morphism" xlink:title="id_meet_sl_morphism">
<ellipse fill="#f070d1" stroke="black" cx="2281" cy="-1073.16" rx="110.48" ry="18"/>
<text text-anchor="middle" x="2281" y="-1069.46" font-family="Times,serif" font-size="14.00">id_meet_sl_morphism</text>
</a>
</g>
</g>
<!-- lattices_id_lattice_morphism&#45;&gt;lattices_id_meet_sl_morphism -->
<g id="edge5" class="edge">
<title>lattices_id_lattice_morphism&#45;&gt;lattices_id_meet_sl_morphism</title>
<path fill="none" stroke="black" d="M2424.51,-1555.07C2398.98,-1469.51 2315.46,-1189.63 2289.07,-1101.19"/>
<polygon fill="black" stroke="black" points="2292.35,-1099.97 2286.14,-1091.39 2285.65,-1101.97 2292.35,-1099.97"/>
</g>
<!-- lattices_id_join_sl_morphism -->
<g id="node12" class="node">
<title>lattices_id_join_sl_morphism</title>
<g id="a_node12"><a xlink:href="lattices.html#id_join_sl_morphism" xlink:title="id_join_sl_morphism">
<ellipse fill="#f070d1" stroke="black" cx="2514" cy="-1073.16" rx="104.78" ry="18"/>
<text text-anchor="middle" x="2514" y="-1069.46" font-family="Times,serif" font-size="14.00">id_join_sl_morphism</text>
</a>
</g>
</g>
<!-- lattices_id_lattice_morphism&#45;&gt;lattices_id_join_sl_morphism -->
<g id="edge6" class="edge">
<title>lattices_id_lattice_morphism&#45;&gt;lattices_id_join_sl_morphism</title>
<path fill="none" stroke="black" d="M2436.07,-1555.07C2449.92,-1469.59 2495.2,-1190.2 2509.57,-1101.47"/>
<polygon fill="black" stroke="black" points="2513.06,-1101.82 2511.21,-1091.39 2506.15,-1100.7 2513.06,-1101.82"/>
</g>
<!-- lattices_id_bounded_join_sl_morphism -->
<g id="node10" class="node">
<title>lattices_id_bounded_join_sl_morphism</title>
<g id="a_node10"><a xlink:href="lattices.html#id_bounded_join_sl_morphism" xlink:title="id_bounded_join_sl_morphism">
<ellipse fill="#f070d1" stroke="black" cx="2145" cy="-1581.16" rx="148.68" ry="18"/>
<ellipse fill="none" stroke="black" cx="2145" cy="-1581.16" rx="152.68" ry="22"/>
<ellipse fill="none" stroke="black" cx="2145" cy="-1581.16" rx="156.67" ry="26"/>
<text text-anchor="middle" x="2145" y="-1577.46" font-family="Times,serif" font-size="14.00">id_bounded_join_sl_morphism</text>
</a>
</g>
</g>
<!-- lattices_projected_bounded_sl -->
<g id="node13" class="node">
<title>lattices_projected_bounded_sl</title>
<g id="a_node13"><a xlink:href="lattices.html#projected_bounded_sl" xlink:title="projected_bounded_sl">
<ellipse fill="#f070d1" stroke="black" cx="717" cy="-1073.16" rx="111.27" ry="18"/>
<ellipse fill="none" stroke="black" cx="717" cy="-1073.16" rx="115.28" ry="22"/>
<ellipse fill="none" stroke="black" cx="717" cy="-1073.16" rx="119.28" ry="26"/>
<text text-anchor="middle" x="717" y="-1069.46" font-family="Times,serif" font-size="14.00">projected_bounded_sl</text>
</a>
</g>
</g>
<!-- lattices_bounded_sl_is_sl -->
<g id="node33" class="node">
<title>lattices_bounded_sl_is_sl</title>
<g id="a_node33"><a xlink:href="lattices.html#bounded_sl_is_sl" xlink:title="bounded_sl_is_sl">
<ellipse fill="#f070d1" stroke="black" cx="450" cy="-611.16" rx="87.18" ry="18"/>
<text text-anchor="middle" x="450" y="-607.46" font-family="Times,serif" font-size="14.00">bounded_sl_is_sl</text>
</a>
</g>
</g>
<!-- lattices_projected_bounded_sl&#45;&gt;lattices_bounded_sl_is_sl -->
<g id="edge7" class="edge">
<title>lattices_projected_bounded_sl&#45;&gt;lattices_bounded_sl_is_sl</title>
<path fill="none" stroke="black" d="M702.46,-1047.1C656.13,-967.29 512.32,-719.53 465.15,-638.26"/>
<polygon fill="black" stroke="black" points="467.94,-636.09 459.89,-629.2 461.89,-639.61 467.94,-636.09"/>
</g>
<!-- lattices_projected_sl -->
<g id="node14" class="node">
<title>lattices_projected_sl</title>
<g id="a_node14"><a xlink:href="lattices.html#projected_sl" xlink:title="projected_sl">
<ellipse fill="#f070d1" stroke="black" cx="1895" cy="-1581.16" rx="66.89" ry="18"/>
<ellipse fill="none" stroke="black" cx="1895" cy="-1581.16" rx="70.89" ry="22"/>
<ellipse fill="none" stroke="black" cx="1895" cy="-1581.16" rx="74.89" ry="26"/>
<text text-anchor="middle" x="1895" y="-1577.46" font-family="Times,serif" font-size="14.00">projected_sl</text>
</a>
</g>
</g>
<!-- lattices_meet_bottom_r -->
<g id="node15" class="node">
<title>lattices_meet_bottom_r</title>
<g id="a_node15"><a xlink:href="lattices.html#meet_bottom_r" xlink:title="meet_bottom_r">
<ellipse fill="#f070d1" stroke="black" cx="1713" cy="-1581.16" rx="80.68" ry="18"/>
<ellipse fill="none" stroke="black" cx="1713" cy="-1581.16" rx="84.68" ry="22"/>
<ellipse fill="none" stroke="black" cx="1713" cy="-1581.16" rx="88.69" ry="26"/>
<text text-anchor="middle" x="1713" y="-1577.46" font-family="Times,serif" font-size="14.00">meet_bottom_r</text>
</a>
</g>
</g>
<!-- lattices_meet_bottom_l -->
<g id="node16" class="node">
<title>lattices_meet_bottom_l</title>
<g id="a_node16"><a xlink:href="lattices.html#meet_bottom_l" xlink:title="meet_bottom_l">
<ellipse fill="#f070d1" stroke="black" cx="1814" cy="-1073.16" rx="79.09" ry="18"/>
<text text-anchor="middle" x="1814" y="-1069.46" font-family="Times,serif" font-size="14.00">meet_bottom_l</text>
</a>
</g>
</g>
<!-- lattices_meet_bottom_r&#45;&gt;lattices_meet_bottom_l -->
<g id="edge8" class="edge">
<title>lattices_meet_bottom_r&#45;&gt;lattices_meet_bottom_l</title>
<path fill="none" stroke="black" d="M1718.01,-1555.07C1735.09,-1469.51 1790.95,-1189.63 1808.6,-1101.19"/>
<polygon fill="black" stroke="black" points="1812.04,-1101.88 1810.56,-1091.39 1805.17,-1100.51 1812.04,-1101.88"/>
</g>
<!-- lattices_join_bottom_l -->
<g id="node25" class="node">
<title>lattices_join_bottom_l</title>
<g id="a_node25"><a xlink:href="lattices.html#join_bottom_l" xlink:title="join_bottom_l">
<ellipse fill="#f070d1" stroke="black" cx="1825" cy="-611.16" rx="72.59" ry="18"/>
<text text-anchor="middle" x="1825" y="-607.46" font-family="Times,serif" font-size="14.00">join_bottom_l</text>
</a>
</g>
</g>
<!-- lattices_meet_bottom_l&#45;&gt;lattices_join_bottom_l -->
<g id="edge9" class="edge">
<title>lattices_meet_bottom_l&#45;&gt;lattices_join_bottom_l</title>
<path fill="none" stroke="black" d="M1814.41,-1054.97C1816.07,-985.43 1822.31,-724.7 1824.35,-639.37"/>
<polygon fill="black" stroke="black" points="1827.85,-639.28 1824.59,-629.19 1820.85,-639.11 1827.85,-639.28"/>
</g>
<!-- lattices_distribute_alt -->
<g id="node17" class="node">
<title>lattices_distribute_alt</title>
<g id="a_node17"><a xlink:href="lattices.html#distribute_alt" xlink:title="distribute_alt">
<ellipse fill="#f070d1" stroke="black" cx="1609" cy="-1073.16" rx="73.39" ry="18"/>
<ellipse fill="none" stroke="black" cx="1609" cy="-1073.16" rx="77.39" ry="22"/>
<ellipse fill="none" stroke="black" cx="1609" cy="-1073.16" rx="81.39" ry="26"/>
<text text-anchor="middle" x="1609" y="-1069.46" font-family="Times,serif" font-size="14.00">distribute_alt</text>
</a>
</g>
</g>
<!-- lattices_join_meet_distr_r -->
<g id="node20" class="node">
<title>lattices_join_meet_distr_r</title>
<g id="a_node20"><a xlink:href="lattices.html#join_meet_distr_r" xlink:title="join_meet_distr_r">
<ellipse fill="#f070d1" stroke="black" cx="1405" cy="-611.16" rx="90.98" ry="18"/>
<text text-anchor="middle" x="1405" y="-607.46" font-family="Times,serif" font-size="14.00">join_meet_distr_r</text>
</a>
</g>
</g>
<!-- lattices_distribute_alt&#45;&gt;lattices_join_meet_distr_r -->
<g id="edge10" class="edge">
<title>lattices_distribute_alt&#45;&gt;lattices_join_meet_distr_r</title>
<path fill="none" stroke="black" d="M1597.89,-1047.1C1562.53,-967.37 1452.84,-720.03 1416.69,-638.51"/>
<polygon fill="black" stroke="black" points="1419.81,-636.93 1412.56,-629.2 1413.41,-639.76 1419.81,-636.93"/>
</g>
<!-- lattices_join_meet_absorption -->
<g id="node22" class="node">
<title>lattices_join_meet_absorption</title>
<g id="a_node22"><a xlink:href="lattices.html#join_meet_absorption" xlink:title="join_meet_absorption">
<ellipse fill="#f070d1" stroke="black" cx="1624" cy="-611.16" rx="109.68" ry="18"/>
<text text-anchor="middle" x="1624" y="-607.46" font-family="Times,serif" font-size="14.00">join_meet_absorption</text>
</a>
</g>
</g>
<!-- lattices_distribute_alt&#45;&gt;lattices_join_meet_absorption -->
<g id="edge11" class="edge">
<title>lattices_distribute_alt&#45;&gt;lattices_join_meet_absorption</title>
<path fill="none" stroke="black" d="M1609.82,-1047.1C1612.41,-967.61 1620.43,-721.54 1623.12,-639.26"/>
<polygon fill="black" stroke="black" points="1626.62,-639.31 1623.44,-629.2 1619.62,-639.08 1626.62,-639.31"/>
</g>
<!-- lattices_meet_join_distr_r -->
<g id="node18" class="node">
<title>lattices_meet_join_distr_r</title>
<g id="a_node18"><a xlink:href="lattices.html#meet_join_distr_r" xlink:title="meet_join_distr_r">
<ellipse fill="#f070d1" stroke="black" cx="1507" cy="-1581.16" rx="90.98" ry="18"/>
<ellipse fill="none" stroke="black" cx="1507" cy="-1581.16" rx="94.98" ry="22"/>
<ellipse fill="none" stroke="black" cx="1507" cy="-1581.16" rx="98.98" ry="26"/>
<text text-anchor="middle" x="1507" y="-1577.46" font-family="Times,serif" font-size="14.00">meet_join_distr_r</text>
</a>
</g>
</g>
<!-- lattices_meet_join_distr_l -->
<g id="node19" class="node">
<title>lattices_meet_join_distr_l</title>
<g id="a_node19"><a xlink:href="lattices.html#meet_join_distr_l" xlink:title="meet_join_distr_l">
<ellipse fill="#f070d1" stroke="black" cx="1405" cy="-1073.16" rx="89.08" ry="18"/>
<text text-anchor="middle" x="1405" y="-1069.46" font-family="Times,serif" font-size="14.00">meet_join_distr_l</text>
</a>
</g>
</g>
<!-- lattices_meet_join_distr_r&#45;&gt;lattices_meet_join_distr_l -->
<g id="edge12" class="edge">
<title>lattices_meet_join_distr_r&#45;&gt;lattices_meet_join_distr_l</title>
<path fill="none" stroke="black" d="M1501.94,-1555.07C1484.69,-1469.51 1428.28,-1189.63 1410.45,-1101.19"/>
<polygon fill="black" stroke="black" points="1413.88,-1100.5 1408.47,-1091.39 1407.02,-1101.88 1413.88,-1100.5"/>
</g>
<!-- lattices_meet_join_distr_l&#45;&gt;lattices_join_meet_distr_r -->
<g id="edge13" class="edge">
<title>lattices_meet_join_distr_l&#45;&gt;lattices_join_meet_distr_r</title>
<path fill="none" stroke="black" d="M1405,-1054.97C1405,-985.43 1405,-724.7 1405,-639.37"/>
<polygon fill="black" stroke="black" points="1408.5,-639.19 1405,-629.19 1401.5,-639.19 1408.5,-639.19"/>
</g>
<!-- lattices_meet_join_absorption -->
<g id="node23" class="node">
<title>lattices_meet_join_absorption</title>
<g id="a_node23"><a xlink:href="lattices.html#meet_join_absorption" xlink:title="meet_join_absorption">
<ellipse fill="#f070d1" stroke="black" cx="1186" cy="-611.16" rx="109.68" ry="18"/>
<text text-anchor="middle" x="1186" y="-607.46" font-family="Times,serif" font-size="14.00">meet_join_absorption</text>
</a>
</g>
</g>
<!-- lattices_meet_join_distr_l&#45;&gt;lattices_meet_join_absorption -->
<g id="edge14" class="edge">
<title>lattices_meet_join_distr_l&#45;&gt;lattices_meet_join_absorption</title>
<path fill="none" stroke="black" d="M1396.81,-1054.97C1363.58,-985.15 1238.56,-722.57 1198.46,-638.34"/>
<polygon fill="black" stroke="black" points="1201.57,-636.72 1194.11,-629.19 1195.25,-639.73 1201.57,-636.72"/>
</g>
<!-- lattices_join_meet_distr_l -->
<g id="node21" class="node">
<title>lattices_join_meet_distr_l</title>
<g id="a_node21"><a xlink:href="lattices.html#join_meet_distr_l" xlink:title="join_meet_distr_l">
<ellipse fill="#f070d1" stroke="black" cx="1405" cy="-196.16" rx="89.08" ry="18"/>
<text text-anchor="middle" x="1405" y="-192.46" font-family="Times,serif" font-size="14.00">join_meet_distr_l</text>
</a>
</g>
</g>
<!-- lattices_join_meet_distr_r&#45;&gt;lattices_join_meet_distr_l -->
<g id="edge15" class="edge">
<title>lattices_join_meet_distr_r&#45;&gt;lattices_join_meet_distr_l</title>
<path fill="none" stroke="black" d="M1405,-592.94C1405,-528.78 1405,-303.32 1405,-224.56"/>
<polygon fill="black" stroke="black" points="1408.5,-224.45 1405,-214.45 1401.5,-224.45 1408.5,-224.45"/>
</g>
<!-- lattices_join_bottom_r -->
<g id="node24" class="node">
<title>lattices_join_bottom_r</title>
<g id="a_node24"><a xlink:href="lattices.html#join_bottom_r" xlink:title="join_bottom_r">
<ellipse fill="#f070d1" stroke="black" cx="1308" cy="-1581.16" rx="74.18" ry="18"/>
<ellipse fill="none" stroke="black" cx="1308" cy="-1581.16" rx="78.18" ry="22"/>
<ellipse fill="none" stroke="black" cx="1308" cy="-1581.16" rx="82.19" ry="26"/>
<text text-anchor="middle" x="1308" y="-1577.46" font-family="Times,serif" font-size="14.00">join_bottom_r</text>
</a>
</g>
</g>
<!-- lattices_preserves_meet -->
<g id="node26" class="node">
<title>lattices_preserves_meet</title>
<g id="a_node26"><a xlink:href="lattices.html#preserves_meet" xlink:title="preserves_meet">
<ellipse fill="#f070d1" stroke="black" cx="1115" cy="-1581.16" rx="84.49" ry="18"/>
<ellipse fill="none" stroke="black" cx="1115" cy="-1581.16" rx="88.49" ry="22"/>
<ellipse fill="none" stroke="black" cx="1115" cy="-1581.16" rx="92.49" ry="26"/>
<text text-anchor="middle" x="1115" y="-1577.46" font-family="Times,serif" font-size="14.00">preserves_meet</text>
</a>
</g>
</g>
<!-- lattices_preserves_bottom -->
<g id="node27" class="node">
<title>lattices_preserves_bottom</title>
<g id="a_node27"><a xlink:href="lattices.html#preserves_bottom" xlink:title="preserves_bottom">
<ellipse fill="#f070d1" stroke="black" cx="902" cy="-1581.16" rx="94.46" ry="18"/>
<ellipse fill="none" stroke="black" cx="902" cy="-1581.16" rx="98.47" ry="22"/>
<ellipse fill="none" stroke="black" cx="902" cy="-1581.16" rx="102.48" ry="26"/>
<text text-anchor="middle" x="902" y="-1577.46" font-family="Times,serif" font-size="14.00">preserves_bottom</text>
</a>
</g>
</g>
<!-- lattices_preserves_join -->
<g id="node28" class="node">
<title>lattices_preserves_join</title>
<g id="a_node28"><a xlink:href="lattices.html#preserves_join" xlink:title="preserves_join">
<ellipse fill="#f070d1" stroke="black" cx="696" cy="-1581.16" rx="77.99" ry="18"/>
<ellipse fill="none" stroke="black" cx="696" cy="-1581.16" rx="81.99" ry="22"/>
<ellipse fill="none" stroke="black" cx="696" cy="-1581.16" rx="85.99" ry="26"/>
<text text-anchor="middle" x="696" y="-1577.46" font-family="Times,serif" font-size="14.00">preserves_join</text>
</a>
</g>
</g>
<!-- lattices_bounded_sl_mor_is_sl_mor -->
<g id="node29" class="node">
<title>lattices_bounded_sl_mor_is_sl_mor</title>
<g id="a_node29"><a xlink:href="lattices.html#bounded_sl_mor_is_sl_mor" xlink:title="bounded_sl_mor_is_sl_mor">
<ellipse fill="#f070d1" stroke="black" cx="451" cy="-1581.16" rx="133.46" ry="18"/>
<ellipse fill="none" stroke="black" cx="451" cy="-1581.16" rx="137.47" ry="22"/>
<ellipse fill="none" stroke="black" cx="451" cy="-1581.16" rx="141.48" ry="26"/>
<text text-anchor="middle" x="451" y="-1577.46" font-family="Times,serif" font-size="14.00">bounded_sl_mor_is_sl_mor</text>
</a>
</g>
</g>
<!-- lattices_bounded_lattice_is_lattice -->
<g id="node30" class="node">
<title>lattices_bounded_lattice_is_lattice</title>
<g id="a_node30"><a xlink:href="lattices.html#bounded_lattice_is_lattice" xlink:title="bounded_lattice_is_lattice">
<ellipse fill="#f070d1" stroke="black" cx="154" cy="-1581.16" rx="129.98" ry="18"/>
<ellipse fill="none" stroke="black" cx="154" cy="-1581.16" rx="133.98" ry="22"/>
<ellipse fill="none" stroke="black" cx="154" cy="-1581.16" rx="137.98" ry="26"/>
<text text-anchor="middle" x="154" y="-1577.46" font-family="Times,serif" font-size="14.00">bounded_lattice_is_lattice</text>
</a>
</g>
</g>
<!-- lattices_bounded_meet_sl_is_meet_sl -->
<g id="node31" class="node">
<title>lattices_bounded_meet_sl_is_meet_sl</title>
<g id="a_node31"><a xlink:href="lattices.html#bounded_meet_sl_is_meet_sl" xlink:title="bounded_meet_sl_is_meet_sl">
<ellipse fill="#f070d1" stroke="black" cx="159" cy="-1073.16" rx="142.97" ry="18"/>
<text text-anchor="middle" x="159" y="-1069.46" font-family="Times,serif" font-size="14.00">bounded_meet_sl_is_meet_sl</text>
</a>
</g>
</g>
<!-- lattices_bounded_lattice_is_lattice&#45;&gt;lattices_bounded_meet_sl_is_meet_sl -->
<g id="edge16" class="edge">
<title>lattices_bounded_lattice_is_lattice&#45;&gt;lattices_bounded_meet_sl_is_meet_sl</title>
<path fill="none" stroke="black" d="M154.25,-1555.07C155.09,-1469.59 157.85,-1190.2 158.73,-1101.47"/>
<polygon fill="black" stroke="black" points="162.23,-1101.42 158.83,-1091.39 155.23,-1101.35 162.23,-1101.42"/>
</g>
<!-- lattices_bounded_join_sl_is_join_sl -->
<g id="node32" class="node">
<title>lattices_bounded_join_sl_is_join_sl</title>
<g id="a_node32"><a xlink:href="lattices.html#bounded_join_sl_is_join_sl" xlink:title="bounded_join_sl_is_join_sl">
<ellipse fill="#f070d1" stroke="black" cx="450" cy="-1073.16" rx="129.98" ry="18"/>
<text text-anchor="middle" x="450" y="-1069.46" font-family="Times,serif" font-size="14.00">bounded_join_sl_is_join_sl</text>
</a>
</g>
</g>
<!-- lattices_bounded_lattice_is_lattice&#45;&gt;lattices_bounded_join_sl_is_join_sl -->
<g id="edge17" class="edge">
<title>lattices_bounded_lattice_is_lattice&#45;&gt;lattices_bounded_join_sl_is_join_sl</title>
<path fill="none" stroke="black" d="M168.68,-1555.07C218.99,-1469.06 384.16,-1186.72 434.98,-1099.83"/>
<polygon fill="black" stroke="black" points="438.04,-1101.53 440.07,-1091.13 432,-1098 438.04,-1101.53"/>
</g>
<!-- lattices_bounded_meet_sl_is_meet_sl&#45;&gt;lattices_bounded_sl_is_sl -->
<g id="edge18" class="edge">
<title>lattices_bounded_meet_sl_is_meet_sl&#45;&gt;lattices_bounded_sl_is_sl</title>
<path fill="none" stroke="black" d="M169.88,-1054.97C214.13,-985.01 380.83,-721.5 433.76,-637.83"/>
<polygon fill="black" stroke="black" points="436.84,-639.52 439.22,-629.19 430.92,-635.77 436.84,-639.52"/>
</g>
<!-- lattices_bounded_join_sl_is_join_sl&#45;&gt;lattices_bounded_sl_is_sl -->
<g id="edge19" class="edge">
<title>lattices_bounded_join_sl_is_join_sl&#45;&gt;lattices_bounded_sl_is_sl</title>
<path fill="none" stroke="black" d="M450,-1054.97C450,-985.43 450,-724.7 450,-639.37"/>
<polygon fill="black" stroke="black" points="453.5,-639.19 450,-629.19 446.5,-639.19 453.5,-639.19"/>
</g>
</g>
</svg>
