<?xml version="1.0" encoding="UTF-8" standalone="no"?>
<!DOCTYPE svg PUBLIC "-//W3C//DTD SVG 1.1//EN"
 "http://www.w3.org/Graphics/SVG/1.1/DTD/svg11.dtd">
<!-- Generated by graphviz version 2.43.0 (0)
 -->
<!-- Title: HoTT_Projective Pages: 1 -->
<svg width="1285pt" height="647pt"
 viewBox="0.00 0.00 1285.00 646.50" xmlns="http://www.w3.org/2000/svg" xmlns:xlink="http://www.w3.org/1999/xlink">
<g id="graph0" class="graph" transform="scale(1 1) rotate(0) translate(4 642.5)">
<title>HoTT_Projective</title>
<polygon fill="white" stroke="transparent" points="-4,4 -4,-642.5 1281,-642.5 1281,4 -4,4"/>
<g id="clust1" class="cluster">
<title>cluster_Projective</title>
<polygon fill="#ffffc3" stroke="black" points="8,-8.95 8,-629.55 1269,-629.55 1269,-8.95 8,-8.95"/>
<text text-anchor="middle" x="52.5" y="-614.35" font-family="Times,serif" font-size="14.00">Projective</text>
</g>
<!-- Projective_equiv_isprojective_ishset_AC -->
<g id="node1" class="node">
<title>Projective_equiv_isprojective_ishset_AC</title>
<g id="a_node1"><a xlink:href="Projective.html#equiv_isprojective_ishset_AC" xlink:title="equiv_isprojective_ishset_AC">
<ellipse fill="#f070d1" stroke="black" cx="714" cy="-565.95" rx="144.09" ry="18"/>
<ellipse fill="none" stroke="black" cx="714" cy="-565.95" rx="148.08" ry="22"/>
<ellipse fill="none" stroke="black" cx="714" cy="-565.95" rx="152.07" ry="26"/>
<text text-anchor="middle" x="714" y="-562.25" font-family="Times,serif" font-size="14.00">equiv_isprojective_ishset_AC</text>
</a>
</g>
</g>
<!-- Projective_projective_cover_AC -->
<g id="node2" class="node">
<title>Projective_projective_cover_AC</title>
<g id="a_node2"><a xlink:href="Projective.html#projective_cover_AC" xlink:title="projective_cover_AC">
<ellipse fill="#f070d1" stroke="black" cx="714" cy="-475.95" rx="104.78" ry="18"/>
<text text-anchor="middle" x="714" y="-472.25" font-family="Times,serif" font-size="14.00">projective_cover_AC</text>
</a>
</g>
</g>
<!-- Projective_equiv_isprojective_ishset_AC&#45;&gt;Projective_projective_cover_AC -->
<g id="edge1" class="edge">
<title>Projective_equiv_isprojective_ishset_AC&#45;&gt;Projective_projective_cover_AC</title>
<path fill="none" stroke="black" d="M714,-539.49C714,-528.41 714,-515.42 714,-504.15"/>
<polygon fill="black" stroke="black" points="717.5,-503.99 714,-493.99 710.5,-503.99 717.5,-503.99"/>
</g>
<!-- Projective_equiv_isoprojective_hasochoice -->
<g id="node4" class="node">
<title>Projective_equiv_isoprojective_hasochoice</title>
<g id="a_node4"><a xlink:href="Projective.html#equiv_isoprojective_hasochoice" xlink:title="equiv_isoprojective_hasochoice">
<ellipse fill="#f070d1" stroke="black" cx="714" cy="-395.95" rx="155.17" ry="18"/>
<text text-anchor="middle" x="714" y="-392.25" font-family="Times,serif" font-size="14.00">equiv_isoprojective_hasochoice</text>
</a>
</g>
</g>
<!-- Projective_projective_cover_AC&#45;&gt;Projective_equiv_isoprojective_hasochoice -->
<g id="edge2" class="edge">
<title>Projective_projective_cover_AC&#45;&gt;Projective_equiv_isoprojective_hasochoice</title>
<path fill="none" stroke="black" d="M714,-457.63C714,-447.84 714,-435.37 714,-424.28"/>
<polygon fill="black" stroke="black" points="717.5,-424.21 714,-414.21 710.5,-424.21 717.5,-424.21"/>
</g>
<!-- Projective_isprojective_unit -->
<g id="node3" class="node">
<title>Projective_isprojective_unit</title>
<g id="a_node3"><a xlink:href="Projective.html#isprojective_unit" xlink:title="isprojective_unit">
<ellipse fill="#f070d1" stroke="black" cx="1152" cy="-305.95" rx="87.96" ry="18"/>
<ellipse fill="none" stroke="black" cx="1152" cy="-305.95" rx="91.97" ry="22"/>
<ellipse fill="none" stroke="black" cx="1152" cy="-305.95" rx="95.99" ry="26"/>
<text text-anchor="middle" x="1152" y="-302.25" font-family="Times,serif" font-size="14.00">isprojective_unit</text>
</a>
</g>
</g>
<!-- Projective_isoprojective_ochoice -->
<g id="node7" class="node">
<title>Projective_isoprojective_ochoice</title>
<g id="a_node7"><a xlink:href="Projective.html#isoprojective_ochoice" xlink:title="isoprojective_ochoice">
<ellipse fill="#f070d1" stroke="black" cx="1152" cy="-207.95" rx="109.38" ry="18"/>
<text text-anchor="middle" x="1152" y="-204.25" font-family="Times,serif" font-size="14.00">isoprojective_ochoice</text>
</a>
</g>
</g>
<!-- Projective_isprojective_unit&#45;&gt;Projective_isoprojective_ochoice -->
<g id="edge3" class="edge">
<title>Projective_isprojective_unit&#45;&gt;Projective_isoprojective_ochoice</title>
<path fill="none" stroke="black" d="M1152,-279.72C1152,-266.4 1152,-250.02 1152,-236.38"/>
<polygon fill="black" stroke="black" points="1155.5,-236.14 1152,-226.14 1148.5,-236.14 1155.5,-236.14"/>
</g>
<!-- Projective_iff_isoprojective_hasochoice -->
<g id="node5" class="node">
<title>Projective_iff_isoprojective_hasochoice</title>
<g id="a_node5"><a xlink:href="Projective.html#iff_isoprojective_hasochoice" xlink:title="iff_isoprojective_hasochoice">
<ellipse fill="#f070d1" stroke="black" cx="714" cy="-305.95" rx="139.18" ry="18"/>
<text text-anchor="middle" x="714" y="-302.25" font-family="Times,serif" font-size="14.00">iff_isoprojective_hasochoice</text>
</a>
</g>
</g>
<!-- Projective_equiv_isoprojective_hasochoice&#45;&gt;Projective_iff_isoprojective_hasochoice -->
<g id="edge4" class="edge">
<title>Projective_equiv_isoprojective_hasochoice&#45;&gt;Projective_iff_isoprojective_hasochoice</title>
<path fill="none" stroke="black" d="M714,-377.56C714,-365.19 714,-348.31 714,-334.17"/>
<polygon fill="black" stroke="black" points="717.5,-334 714,-324 710.5,-334 717.5,-334"/>
</g>
<!-- Projective_hasochoice_oprojective -->
<g id="node6" class="node">
<title>Projective_hasochoice_oprojective</title>
<g id="a_node6"><a xlink:href="Projective.html#hasochoice_oprojective" xlink:title="hasochoice_oprojective">
<ellipse fill="#f070d1" stroke="black" cx="529" cy="-207.95" rx="117.78" ry="18"/>
<text text-anchor="middle" x="529" y="-204.25" font-family="Times,serif" font-size="14.00">hasochoice_oprojective</text>
</a>
</g>
</g>
<!-- Projective_iff_isoprojective_hasochoice&#45;&gt;Projective_hasochoice_oprojective -->
<g id="edge5" class="edge">
<title>Projective_iff_isoprojective_hasochoice&#45;&gt;Projective_hasochoice_oprojective</title>
<path fill="none" stroke="black" d="M681.78,-288.22C650.64,-272.07 603.38,-247.54 569.67,-230.05"/>
<polygon fill="black" stroke="black" points="571.03,-226.82 560.55,-225.32 567.81,-233.03 571.03,-226.82"/>
</g>
<!-- Projective_iff_isoprojective_hasochoice&#45;&gt;Projective_isoprojective_ochoice -->
<g id="edge6" class="edge">
<title>Projective_iff_isoprojective_hasochoice&#45;&gt;Projective_isoprojective_ochoice</title>
<path fill="none" stroke="black" d="M781.48,-290.16C862.07,-272.49 996.36,-243.06 1079.22,-224.9"/>
<polygon fill="black" stroke="black" points="1080.05,-228.3 1089.07,-222.74 1078.55,-221.46 1080.05,-228.3"/>
</g>
<!-- Projective_HasOChoice -->
<g id="node10" class="node">
<title>Projective_HasOChoice</title>
<g id="a_node10"><a xlink:href="Projective.html#HasOChoice" xlink:title="HasOChoice">
<ellipse fill="#f070d1" stroke="black" cx="850" cy="-118.95" rx="67.69" ry="18"/>
<text text-anchor="middle" x="850" y="-115.25" font-family="Times,serif" font-size="14.00">HasOChoice</text>
</a>
</g>
</g>
<!-- Projective_hasochoice_oprojective&#45;&gt;Projective_HasOChoice -->
<g id="edge7" class="edge">
<title>Projective_hasochoice_oprojective&#45;&gt;Projective_HasOChoice</title>
<path fill="none" stroke="black" d="M584.18,-191.99C642.98,-176.05 735.55,-150.97 794.48,-134.99"/>
<polygon fill="black" stroke="black" points="795.62,-138.31 804.35,-132.32 793.79,-131.56 795.62,-138.31"/>
</g>
<!-- Projective_iff_isoprojective_surjections_split -->
<g id="node12" class="node">
<title>Projective_iff_isoprojective_surjections_split</title>
<g id="a_node12"><a xlink:href="Projective.html#iff_isoprojective_surjections_split" xlink:title="iff_isoprojective_surjections_split">
<ellipse fill="#f070d1" stroke="black" cx="529" cy="-118.95" rx="164.37" ry="18"/>
<text text-anchor="middle" x="529" y="-115.25" font-family="Times,serif" font-size="14.00">iff_isoprojective_surjections_split</text>
</a>
</g>
</g>
<!-- Projective_hasochoice_oprojective&#45;&gt;Projective_iff_isoprojective_surjections_split -->
<g id="edge8" class="edge">
<title>Projective_hasochoice_oprojective&#45;&gt;Projective_iff_isoprojective_surjections_split</title>
<path fill="none" stroke="black" d="M529,-189.76C529,-177.6 529,-161.06 529,-147.13"/>
<polygon fill="black" stroke="black" points="532.5,-147.1 529,-137.1 525.5,-147.1 532.5,-147.1"/>
</g>
<!-- Projective_isoprojective_ochoice&#45;&gt;Projective_HasOChoice -->
<g id="edge9" class="edge">
<title>Projective_isoprojective_ochoice&#45;&gt;Projective_HasOChoice</title>
<path fill="none" stroke="black" d="M1100.08,-191.99C1045.36,-176.22 959.54,-151.5 904.03,-135.51"/>
<polygon fill="black" stroke="black" points="904.95,-132.13 894.37,-132.73 903.01,-138.86 904.95,-132.13"/>
</g>
<!-- Projective_IsOProjective -->
<g id="node13" class="node">
<title>Projective_IsOProjective</title>
<g id="a_node13"><a xlink:href="Projective.html#IsOProjective" xlink:title="IsOProjective">
<ellipse fill="#f070d1" stroke="black" cx="769" cy="-37.95" rx="73.39" ry="18"/>
<text text-anchor="middle" x="769" y="-34.25" font-family="Times,serif" font-size="14.00">IsOProjective</text>
</a>
</g>
</g>
<!-- Projective_isoprojective_ochoice&#45;&gt;Projective_IsOProjective -->
<g id="edge10" class="edge">
<title>Projective_isoprojective_ochoice&#45;&gt;Projective_IsOProjective</title>
<path fill="none" stroke="black" d="M1119.15,-190.63C1075.6,-169.19 996.19,-130.78 927,-100.95 890.46,-85.19 848.51,-68.81 817.02,-56.84"/>
<polygon fill="black" stroke="black" points="818.19,-53.54 807.6,-53.27 815.72,-60.09 818.19,-53.54"/>
</g>
<!-- Projective_hasochoice_sigma -->
<g id="node8" class="node">
<title>Projective_hasochoice_sigma</title>
<g id="a_node8"><a xlink:href="Projective.html#hasochoice_sigma" xlink:title="hasochoice_sigma">
<ellipse fill="#f070d1" stroke="black" cx="923" cy="-207.95" rx="93.68" ry="18"/>
<ellipse fill="none" stroke="black" cx="923" cy="-207.95" rx="97.68" ry="22"/>
<ellipse fill="none" stroke="black" cx="923" cy="-207.95" rx="101.68" ry="26"/>
<text text-anchor="middle" x="923" y="-204.25" font-family="Times,serif" font-size="14.00">hasochoice_sigma</text>
</a>
</g>
</g>
<!-- Projective_hasochoice_sigma&#45;&gt;Projective_HasOChoice -->
<g id="edge11" class="edge">
<title>Projective_hasochoice_sigma&#45;&gt;Projective_HasOChoice</title>
<path fill="none" stroke="black" d="M902.28,-182.25C892.34,-170.41 880.48,-156.27 870.57,-144.46"/>
<polygon fill="black" stroke="black" points="873.18,-142.12 864.07,-136.71 867.81,-146.62 873.18,-142.12"/>
</g>
<!-- Projective_hasochoice -->
<g id="node9" class="node">
<title>Projective_hasochoice</title>
<g id="a_node9"><a xlink:href="Projective.html#hasochoice" xlink:title="hasochoice">
<ellipse fill="#f070d1" stroke="black" cx="734" cy="-207.95" rx="61.96" ry="18"/>
<ellipse fill="none" stroke="black" cx="734" cy="-207.95" rx="65.98" ry="22"/>
<ellipse fill="none" stroke="black" cx="734" cy="-207.95" rx="69.99" ry="26"/>
<text text-anchor="middle" x="734" y="-204.25" font-family="Times,serif" font-size="14.00">hasochoice</text>
</a>
</g>
</g>
<!-- Projective_hasochoice&#45;&gt;Projective_HasOChoice -->
<g id="edge12" class="edge">
<title>Projective_hasochoice&#45;&gt;Projective_HasOChoice</title>
<path fill="none" stroke="black" d="M764.17,-184.31C781.48,-171.33 803.12,-155.11 820.34,-142.19"/>
<polygon fill="black" stroke="black" points="822.5,-144.95 828.4,-136.15 818.3,-139.35 822.5,-144.95"/>
</g>
<!-- Projective_equiv_isoprojective_surjections_split -->
<g id="node11" class="node">
<title>Projective_equiv_isoprojective_surjections_split</title>
<g id="a_node11"><a xlink:href="Projective.html#equiv_isoprojective_surjections_split" xlink:title="equiv_isoprojective_surjections_split">
<ellipse fill="#f070d1" stroke="black" cx="205" cy="-207.95" rx="180.86" ry="18"/>
<ellipse fill="none" stroke="black" cx="205" cy="-207.95" rx="184.86" ry="22"/>
<ellipse fill="none" stroke="black" cx="205" cy="-207.95" rx="188.87" ry="26"/>
<text text-anchor="middle" x="205" y="-204.25" font-family="Times,serif" font-size="14.00">equiv_isoprojective_surjections_split</text>
</a>
</g>
</g>
<!-- Projective_equiv_isoprojective_surjections_split&#45;&gt;Projective_iff_isoprojective_surjections_split -->
<g id="edge13" class="edge">
<title>Projective_equiv_isoprojective_surjections_split&#45;&gt;Projective_iff_isoprojective_surjections_split</title>
<path fill="none" stroke="black" d="M288.44,-184.54C341.79,-170.22 410.13,-151.86 460.33,-138.38"/>
<polygon fill="black" stroke="black" points="461.37,-141.73 470.12,-135.76 459.56,-134.97 461.37,-141.73"/>
</g>
<!-- Projective_iff_isoprojective_surjections_split&#45;&gt;Projective_IsOProjective -->
<g id="edge14" class="edge">
<title>Projective_iff_isoprojective_surjections_split&#45;&gt;Projective_IsOProjective</title>
<path fill="none" stroke="black" d="M578.15,-101.77C618.65,-88.44 675.92,-69.58 717.15,-56.01"/>
<polygon fill="black" stroke="black" points="718.33,-59.31 726.74,-52.86 716.14,-52.66 718.33,-59.31"/>
</g>
</g>
</svg>
