<?xml version="1.0" encoding="UTF-8" standalone="no"?>
<!DOCTYPE svg PUBLIC "-//W3C//DTD SVG 1.1//EN"
 "http://www.w3.org/Graphics/SVG/1.1/DTD/svg11.dtd">
<!-- Generated by graphviz version 2.43.0 (0)
 -->
<!-- Title: HoTT_Limits_Pullback Pages: 1 -->
<svg width="2554pt" height="1281pt"
 viewBox="0.00 0.00 2554.00 1281.00" xmlns="http://www.w3.org/2000/svg" xmlns:xlink="http://www.w3.org/1999/xlink">
<g id="graph0" class="graph" transform="scale(1 1) rotate(0) translate(4 1277)">
<title>HoTT_Limits_Pullback</title>
<polygon fill="white" stroke="transparent" points="-4,4 -4,-1277 2550,-1277 2550,4 -4,4"/>
<g id="clust1" class="cluster">
<title>cluster_Pullback</title>
<polygon fill="#ffffc3" stroke="black" points="8,-22.99 8,-1250.01 2538,-1250.01 2538,-22.99 8,-22.99"/>
<text text-anchor="middle" x="46.5" y="-1234.81" font-family="Times,serif" font-size="14.00">Pullback</text>
</g>
<!-- Pullback_ispullback_pasting_outer -->
<g id="node1" class="node">
<title>Pullback_ispullback_pasting_outer</title>
<g id="a_node1"><a xlink:href="Pullback.html#ispullback_pasting_outer" xlink:title="ispullback_pasting_outer">
<ellipse fill="#f070d1" stroke="black" cx="1853" cy="-1085.99" rx="126.17" ry="18"/>
<ellipse fill="none" stroke="black" cx="1853" cy="-1085.99" rx="130.18" ry="22"/>
<ellipse fill="none" stroke="black" cx="1853" cy="-1085.99" rx="134.18" ry="26"/>
<text text-anchor="middle" x="1853" y="-1082.29" font-family="Times,serif" font-size="14.00">ispullback_pasting_outer</text>
</a>
</g>
</g>
<!-- Pullback_isequiv_functor_hfiber_ispullback -->
<g id="node18" class="node">
<title>Pullback_isequiv_functor_hfiber_ispullback</title>
<g id="a_node18"><a xlink:href="Pullback.html#isequiv_functor_hfiber_ispullback" xlink:title="isequiv_functor_hfiber_ispullback">
<ellipse fill="#f070d1" stroke="black" cx="1367" cy="-832.99" rx="165.17" ry="18"/>
<text text-anchor="middle" x="1367" y="-829.29" font-family="Times,serif" font-size="14.00">isequiv_functor_hfiber_ispullback</text>
</a>
</g>
</g>
<!-- Pullback_ispullback_pasting_outer&#45;&gt;Pullback_isequiv_functor_hfiber_ispullback -->
<g id="edge1" class="edge">
<title>Pullback_ispullback_pasting_outer&#45;&gt;Pullback_isequiv_functor_hfiber_ispullback</title>
<path fill="none" stroke="black" d="M1807.28,-1061.38C1713.14,-1012.76 1498.92,-902.12 1408.5,-855.42"/>
<polygon fill="black" stroke="black" points="1409.87,-852.19 1399.38,-850.71 1406.66,-858.41 1409.87,-852.19"/>
</g>
<!-- Pullback_ispullback_isequiv_functor_hfiber -->
<g id="node19" class="node">
<title>Pullback_ispullback_isequiv_functor_hfiber</title>
<g id="a_node19"><a xlink:href="Pullback.html#ispullback_isequiv_functor_hfiber" xlink:title="ispullback_isequiv_functor_hfiber">
<ellipse fill="#f070d1" stroke="black" cx="1923" cy="-832.99" rx="165.17" ry="18"/>
<text text-anchor="middle" x="1923" y="-829.29" font-family="Times,serif" font-size="14.00">ispullback_isequiv_functor_hfiber</text>
</a>
</g>
</g>
<!-- Pullback_ispullback_pasting_outer&#45;&gt;Pullback_ispullback_isequiv_functor_hfiber -->
<g id="edge2" class="edge">
<title>Pullback_ispullback_pasting_outer&#45;&gt;Pullback_ispullback_isequiv_functor_hfiber</title>
<path fill="none" stroke="black" d="M1859.97,-1060C1873.18,-1012.64 1901.76,-910.15 1915.42,-861.15"/>
<polygon fill="black" stroke="black" points="1918.86,-861.84 1918.18,-851.27 1912.12,-859.96 1918.86,-861.84"/>
</g>
<!-- Pullback_ispullback_pasting_left -->
<g id="node2" class="node">
<title>Pullback_ispullback_pasting_left</title>
<g id="a_node2"><a xlink:href="Pullback.html#ispullback_pasting_left" xlink:title="ispullback_pasting_left">
<ellipse fill="#f070d1" stroke="black" cx="1437" cy="-1085.99" rx="116.19" ry="18"/>
<ellipse fill="none" stroke="black" cx="1437" cy="-1085.99" rx="120.18" ry="22"/>
<ellipse fill="none" stroke="black" cx="1437" cy="-1085.99" rx="124.18" ry="26"/>
<text text-anchor="middle" x="1437" y="-1082.29" font-family="Times,serif" font-size="14.00">ispullback_pasting_left</text>
</a>
</g>
</g>
<!-- Pullback_ispullback_pasting_left&#45;&gt;Pullback_isequiv_functor_hfiber_ispullback -->
<g id="edge3" class="edge">
<title>Pullback_ispullback_pasting_left&#45;&gt;Pullback_isequiv_functor_hfiber_ispullback</title>
<path fill="none" stroke="black" d="M1430.03,-1060C1416.82,-1012.64 1388.24,-910.15 1374.58,-861.15"/>
<polygon fill="black" stroke="black" points="1377.88,-859.96 1371.82,-851.27 1371.14,-861.84 1377.88,-859.96"/>
</g>
<!-- Pullback_ispullback_pasting_left&#45;&gt;Pullback_ispullback_isequiv_functor_hfiber -->
<g id="edge4" class="edge">
<title>Pullback_ispullback_pasting_left&#45;&gt;Pullback_ispullback_isequiv_functor_hfiber</title>
<path fill="none" stroke="black" d="M1482.29,-1061.6C1576.17,-1013.11 1790.79,-902.27 1881.41,-855.47"/>
<polygon fill="black" stroke="black" points="1883.27,-858.45 1890.55,-850.75 1880.06,-852.23 1883.27,-858.45"/>
</g>
<!-- Pullback_pullback3x3 -->
<g id="node3" class="node">
<title>Pullback_pullback3x3</title>
<g id="a_node3"><a xlink:href="Pullback.html#pullback3x3" xlink:title="pullback3x3">
<ellipse fill="#f070d1" stroke="black" cx="867" cy="-579.99" rx="66.89" ry="18"/>
<ellipse fill="none" stroke="black" cx="867" cy="-579.99" rx="70.89" ry="22"/>
<ellipse fill="none" stroke="black" cx="867" cy="-579.99" rx="74.89" ry="26"/>
<text text-anchor="middle" x="867" y="-576.29" font-family="Times,serif" font-size="14.00">pullback3x3</text>
</a>
</g>
</g>
<!-- Pullback_equiv_path_pullback -->
<g id="node7" class="node">
<title>Pullback_equiv_path_pullback</title>
<g id="a_node7"><a xlink:href="Pullback.html#equiv_path_pullback" xlink:title="equiv_path_pullback">
<ellipse fill="#f070d1" stroke="black" cx="472" cy="-327.99" rx="104.78" ry="18"/>
<text text-anchor="middle" x="472" y="-324.29" font-family="Times,serif" font-size="14.00">equiv_path_pullback</text>
</a>
</g>
</g>
<!-- Pullback_pullback3x3&#45;&gt;Pullback_equiv_path_pullback -->
<g id="edge5" class="edge">
<title>Pullback_pullback3x3&#45;&gt;Pullback_equiv_path_pullback</title>
<path fill="none" stroke="black" d="M831.95,-556.8C756.92,-509.32 581.56,-398.33 506.78,-351"/>
<polygon fill="black" stroke="black" points="508.49,-347.94 498.17,-345.55 504.75,-353.86 508.49,-347.94"/>
</g>
<!-- Pullback_functor_pullback -->
<g id="node12" class="node">
<title>Pullback_functor_pullback</title>
<g id="a_node12"><a xlink:href="Pullback.html#functor_pullback" xlink:title="functor_pullback">
<ellipse fill="#f070d1" stroke="black" cx="682" cy="-327.99" rx="87.99" ry="18"/>
<text text-anchor="middle" x="682" y="-324.29" font-family="Times,serif" font-size="14.00">functor_pullback</text>
</a>
</g>
</g>
<!-- Pullback_pullback3x3&#45;&gt;Pullback_functor_pullback -->
<g id="edge6" class="edge">
<title>Pullback_pullback3x3&#45;&gt;Pullback_functor_pullback</title>
<path fill="none" stroke="black" d="M848.92,-554.56C813.75,-507.02 736.41,-402.51 700.72,-354.29"/>
<polygon fill="black" stroke="black" points="703.32,-351.92 694.56,-345.96 697.7,-356.08 703.32,-351.92"/>
</g>
<!-- Pullback_equiv_path_pullback_rec_hset -->
<g id="node4" class="node">
<title>Pullback_equiv_path_pullback_rec_hset</title>
<g id="a_node4"><a xlink:href="Pullback.html#equiv_path_pullback_rec_hset" xlink:title="equiv_path_pullback_rec_hset">
<ellipse fill="#f070d1" stroke="black" cx="257" cy="-832.99" rx="148.36" ry="18"/>
<ellipse fill="none" stroke="black" cx="257" cy="-832.99" rx="152.37" ry="22"/>
<ellipse fill="none" stroke="black" cx="257" cy="-832.99" rx="156.37" ry="26"/>
<text text-anchor="middle" x="257" y="-829.29" font-family="Times,serif" font-size="14.00">equiv_path_pullback_rec_hset</text>
</a>
</g>
</g>
<!-- Pullback_equiv_path_pullback_hset -->
<g id="node5" class="node">
<title>Pullback_equiv_path_pullback_hset</title>
<g id="a_node5"><a xlink:href="Pullback.html#equiv_path_pullback_hset" xlink:title="equiv_path_pullback_hset">
<ellipse fill="#f070d1" stroke="black" cx="645" cy="-579.99" rx="129.18" ry="18"/>
<text text-anchor="middle" x="645" y="-576.29" font-family="Times,serif" font-size="14.00">equiv_path_pullback_hset</text>
</a>
</g>
</g>
<!-- Pullback_equiv_path_pullback_rec_hset&#45;&gt;Pullback_equiv_path_pullback_hset -->
<g id="edge7" class="edge">
<title>Pullback_equiv_path_pullback_rec_hset&#45;&gt;Pullback_equiv_path_pullback_hset</title>
<path fill="none" stroke="black" d="M294.56,-807.69C369.7,-759.08 537.56,-650.5 610.29,-603.44"/>
<polygon fill="black" stroke="black" points="612.59,-606.12 619.08,-597.75 608.79,-600.25 612.59,-606.12"/>
</g>
<!-- Pullback_pullback_pr2 -->
<g id="node32" class="node">
<title>Pullback_pullback_pr2</title>
<g id="a_node32"><a xlink:href="Pullback.html#pullback_pr2" xlink:title="pullback_pr2">
<ellipse fill="#f070d1" stroke="black" cx="121" cy="-327.99" rx="70.39" ry="18"/>
<text text-anchor="middle" x="121" y="-324.29" font-family="Times,serif" font-size="14.00">pullback_pr2</text>
</a>
</g>
</g>
<!-- Pullback_equiv_path_pullback_rec_hset&#45;&gt;Pullback_pullback_pr2 -->
<g id="edge8" class="edge">
<title>Pullback_equiv_path_pullback_rec_hset&#45;&gt;Pullback_pullback_pr2</title>
<path fill="none" stroke="black" d="M217.15,-807.73C162.22,-771.66 65.64,-698.14 27,-605.99 -11.07,-515.2 62.42,-403.07 100.34,-353.98"/>
<polygon fill="black" stroke="black" points="103.32,-355.86 106.76,-345.84 97.82,-351.53 103.32,-355.86"/>
</g>
<!-- Pullback_pullback_pr1 -->
<g id="node33" class="node">
<title>Pullback_pullback_pr1</title>
<g id="a_node33"><a xlink:href="Pullback.html#pullback_pr1" xlink:title="pullback_pr1">
<ellipse fill="#f070d1" stroke="black" cx="279" cy="-327.99" rx="70.39" ry="18"/>
<text text-anchor="middle" x="279" y="-324.29" font-family="Times,serif" font-size="14.00">pullback_pr1</text>
</a>
</g>
</g>
<!-- Pullback_equiv_path_pullback_rec_hset&#45;&gt;Pullback_pullback_pr1 -->
<g id="edge9" class="edge">
<title>Pullback_equiv_path_pullback_rec_hset&#45;&gt;Pullback_pullback_pr1</title>
<path fill="none" stroke="black" d="M257.76,-806.68C259.27,-757.83 262.84,-647.11 267,-553.99 270.19,-482.63 274.93,-398.59 277.39,-356.27"/>
<polygon fill="black" stroke="black" points="280.89,-356.39 277.98,-346.2 273.9,-355.98 280.89,-356.39"/>
</g>
<!-- Pullback_equiv_path_pullback_hset&#45;&gt;Pullback_equiv_path_pullback -->
<g id="edge10" class="edge">
<title>Pullback_equiv_path_pullback_hset&#45;&gt;Pullback_equiv_path_pullback</title>
<path fill="none" stroke="black" d="M633.11,-561.81C603.22,-518.62 524.85,-405.35 489.61,-354.43"/>
<polygon fill="black" stroke="black" points="492.31,-352.19 483.75,-345.96 486.56,-356.18 492.31,-352.19"/>
</g>
<!-- Pullback_pullback_homotopic -->
<g id="node6" class="node">
<title>Pullback_pullback_homotopic</title>
<g id="a_node6"><a xlink:href="Pullback.html#pullback_homotopic" xlink:title="pullback_homotopic">
<ellipse fill="#f070d1" stroke="black" cx="387" cy="-579.99" rx="102.87" ry="18"/>
<ellipse fill="none" stroke="black" cx="387" cy="-579.99" rx="106.88" ry="22"/>
<ellipse fill="none" stroke="black" cx="387" cy="-579.99" rx="110.88" ry="26"/>
<text text-anchor="middle" x="387" y="-576.29" font-family="Times,serif" font-size="14.00">pullback_homotopic</text>
</a>
</g>
</g>
<!-- Pullback_pullback_homotopic&#45;&gt;Pullback_equiv_path_pullback -->
<g id="edge11" class="edge">
<title>Pullback_pullback_homotopic&#45;&gt;Pullback_equiv_path_pullback</title>
<path fill="none" stroke="black" d="M395.62,-553.64C411.77,-506.13 446.46,-404.09 462.95,-355.62"/>
<polygon fill="black" stroke="black" points="466.27,-356.72 466.17,-346.12 459.64,-354.47 466.27,-356.72"/>
</g>
<!-- Pullback_pullback_homotopic&#45;&gt;Pullback_pullback_pr2 -->
<g id="edge12" class="edge">
<title>Pullback_pullback_homotopic&#45;&gt;Pullback_pullback_pr2</title>
<path fill="none" stroke="black" d="M361.01,-554.56C309.89,-506.51 196.83,-400.26 146.28,-352.75"/>
<polygon fill="black" stroke="black" points="148.41,-349.95 138.73,-345.65 143.62,-355.05 148.41,-349.95"/>
</g>
<!-- Pullback_pullback_homotopic&#45;&gt;Pullback_pullback_pr1 -->
<g id="edge13" class="edge">
<title>Pullback_pullback_homotopic&#45;&gt;Pullback_pullback_pr1</title>
<path fill="none" stroke="black" d="M376.25,-554.1C355.78,-506.73 311.4,-403.99 290.42,-355.43"/>
<polygon fill="black" stroke="black" points="293.62,-354 286.44,-346.2 287.19,-356.77 293.62,-354"/>
</g>
<!-- Pullback_Pullback -->
<g id="node34" class="node">
<title>Pullback_Pullback</title>
<g id="a_node34"><a xlink:href="Pullback.html#Pullback" xlink:title="Pullback">
<ellipse fill="#f070d1" stroke="black" cx="1517" cy="-97.99" rx="50.09" ry="18"/>
<text text-anchor="middle" x="1517" y="-94.29" font-family="Times,serif" font-size="14.00">Pullback</text>
</a>
</g>
</g>
<!-- Pullback_equiv_path_pullback&#45;&gt;Pullback_Pullback -->
<g id="edge14" class="edge">
<title>Pullback_equiv_path_pullback&#45;&gt;Pullback_Pullback</title>
<path fill="none" stroke="black" d="M533.28,-313.39C550.04,-309.68 568.22,-305.67 585,-301.99 920.32,-228.38 1323.75,-140.86 1465.08,-110.24"/>
<polygon fill="black" stroke="black" points="1466.16,-113.58 1475.19,-108.04 1464.67,-106.74 1466.16,-113.58"/>
</g>
<!-- Pullback_equiv_sigma_pullback -->
<g id="node8" class="node">
<title>Pullback_equiv_sigma_pullback</title>
<g id="a_node8"><a xlink:href="Pullback.html#equiv_sigma_pullback" xlink:title="equiv_sigma_pullback">
<ellipse fill="#f070d1" stroke="black" cx="1448" cy="-327.99" rx="111.59" ry="18"/>
<ellipse fill="none" stroke="black" cx="1448" cy="-327.99" rx="115.59" ry="22"/>
<ellipse fill="none" stroke="black" cx="1448" cy="-327.99" rx="119.58" ry="26"/>
<text text-anchor="middle" x="1448" y="-324.29" font-family="Times,serif" font-size="14.00">equiv_sigma_pullback</text>
</a>
</g>
</g>
<!-- Pullback_equiv_sigma_pullback&#45;&gt;Pullback_Pullback -->
<g id="edge15" class="edge">
<title>Pullback_equiv_sigma_pullback&#45;&gt;Pullback_Pullback</title>
<path fill="none" stroke="black" d="M1455.65,-301.72C1468.77,-258.35 1495.46,-170.16 1508.89,-125.78"/>
<polygon fill="black" stroke="black" points="1512.31,-126.58 1511.85,-115.99 1505.61,-124.55 1512.31,-126.58"/>
</g>
<!-- Pullback_equiv_pullback -->
<g id="node9" class="node">
<title>Pullback_equiv_pullback</title>
<g id="a_node9"><a xlink:href="Pullback.html#equiv_pullback" xlink:title="equiv_pullback">
<ellipse fill="#f070d1" stroke="black" cx="875" cy="-327.99" rx="79.11" ry="18"/>
<ellipse fill="none" stroke="black" cx="875" cy="-327.99" rx="83.1" ry="22"/>
<ellipse fill="none" stroke="black" cx="875" cy="-327.99" rx="87.09" ry="26"/>
<text text-anchor="middle" x="875" y="-324.29" font-family="Times,serif" font-size="14.00">equiv_pullback</text>
</a>
</g>
</g>
<!-- Pullback_equiv_pullback&#45;&gt;Pullback_Pullback -->
<g id="edge16" class="edge">
<title>Pullback_equiv_pullback&#45;&gt;Pullback_Pullback</title>
<path fill="none" stroke="black" d="M929.46,-307.65C1054.34,-263.3 1359.34,-154.98 1473.19,-114.55"/>
<polygon fill="black" stroke="black" points="1474.39,-117.83 1482.65,-111.19 1472.05,-111.24 1474.39,-117.83"/>
</g>
<!-- Pullback_hfiber_functor_pullback -->
<g id="node10" class="node">
<title>Pullback_hfiber_functor_pullback</title>
<g id="a_node10"><a xlink:href="Pullback.html#hfiber_functor_pullback" xlink:title="hfiber_functor_pullback">
<ellipse fill="#f070d1" stroke="black" cx="1088" cy="-579.99" rx="119.67" ry="18"/>
<ellipse fill="none" stroke="black" cx="1088" cy="-579.99" rx="123.68" ry="22"/>
<ellipse fill="none" stroke="black" cx="1088" cy="-579.99" rx="127.68" ry="26"/>
<text text-anchor="middle" x="1088" y="-576.29" font-family="Times,serif" font-size="14.00">hfiber_functor_pullback</text>
</a>
</g>
</g>
<!-- Pullback_hfiber_functor_pullback_subproof -->
<g id="node11" class="node">
<title>Pullback_hfiber_functor_pullback_subproof</title>
<g id="a_node11"><a xlink:href="Pullback.html#hfiber_functor_pullback_subproof" xlink:title="hfiber_functor_pullback_subproof">
<ellipse fill="#f070d1" stroke="black" cx="1145" cy="-327.99" rx="165.17" ry="18"/>
<text text-anchor="middle" x="1145" y="-324.29" font-family="Times,serif" font-size="14.00">hfiber_functor_pullback_subproof</text>
</a>
</g>
</g>
<!-- Pullback_hfiber_functor_pullback&#45;&gt;Pullback_hfiber_functor_pullback_subproof -->
<g id="edge17" class="edge">
<title>Pullback_hfiber_functor_pullback&#45;&gt;Pullback_hfiber_functor_pullback_subproof</title>
<path fill="none" stroke="black" d="M1093.78,-553.64C1104.59,-506.23 1127.78,-404.52 1138.86,-355.92"/>
<polygon fill="black" stroke="black" points="1142.28,-356.65 1141.09,-346.12 1135.46,-355.1 1142.28,-356.65"/>
</g>
<!-- Pullback_hfiber_functor_pullback&#45;&gt;Pullback_functor_pullback -->
<g id="edge18" class="edge">
<title>Pullback_hfiber_functor_pullback&#45;&gt;Pullback_functor_pullback</title>
<path fill="none" stroke="black" d="M1049.07,-555.02C970.21,-506.46 792.67,-397.14 717.11,-350.61"/>
<polygon fill="black" stroke="black" points="718.77,-347.52 708.42,-345.26 715.1,-353.48 718.77,-347.52"/>
</g>
<!-- Pullback_functor_pullback&#45;&gt;Pullback_Pullback -->
<g id="edge19" class="edge">
<title>Pullback_functor_pullback&#45;&gt;Pullback_Pullback</title>
<path fill="none" stroke="black" d="M732.35,-313.24C881.77,-272.44 1321.36,-152.41 1468.43,-112.25"/>
<polygon fill="black" stroke="black" points="1469.38,-115.62 1478.1,-109.61 1467.53,-108.87 1469.38,-115.62"/>
</g>
<!-- Pullback_hfiber_pullback_along_pointed -->
<g id="node13" class="node">
<title>Pullback_hfiber_pullback_along_pointed</title>
<g id="a_node13"><a xlink:href="Pullback.html#hfiber_pullback_along_pointed" xlink:title="hfiber_pullback_along_pointed">
<ellipse fill="#f070d1" stroke="black" cx="2265" cy="-832.99" rx="150.58" ry="18"/>
<ellipse fill="none" stroke="black" cx="2265" cy="-832.99" rx="154.58" ry="22"/>
<ellipse fill="none" stroke="black" cx="2265" cy="-832.99" rx="158.57" ry="26"/>
<text text-anchor="middle" x="2265" y="-829.29" font-family="Times,serif" font-size="14.00">hfiber_pullback_along_pointed</text>
</a>
</g>
</g>
<!-- Pullback_hfiber_pullback_along_ -->
<g id="node14" class="node">
<title>Pullback_hfiber_pullback_along_</title>
<g id="a_node14"><a xlink:href="Pullback.html#hfiber_pullback_along'" xlink:title="hfiber_pullback_along&#39;">
<ellipse fill="#f070d1" stroke="black" cx="2160" cy="-579.99" rx="113.98" ry="18"/>
<text text-anchor="middle" x="2160" y="-576.29" font-family="Times,serif" font-size="14.00">hfiber_pullback_along&#39;</text>
</a>
</g>
</g>
<!-- Pullback_hfiber_pullback_along_pointed&#45;&gt;Pullback_hfiber_pullback_along_ -->
<g id="edge20" class="edge">
<title>Pullback_hfiber_pullback_along_pointed&#45;&gt;Pullback_hfiber_pullback_along_</title>
<path fill="none" stroke="black" d="M2254.55,-807C2234.6,-759.33 2191.29,-655.79 2170.96,-607.18"/>
<polygon fill="black" stroke="black" points="2174.19,-605.83 2167.1,-597.95 2167.73,-608.53 2174.19,-605.83"/>
</g>
<!-- Pullback_pullback_along_ -->
<g id="node15" class="node">
<title>Pullback_pullback_along_</title>
<g id="a_node15"><a xlink:href="Pullback.html#pullback_along'" xlink:title="pullback_along&#39;">
<ellipse fill="#f070d1" stroke="black" cx="1982" cy="-327.99" rx="81.79" ry="18"/>
<text text-anchor="middle" x="1982" y="-324.29" font-family="Times,serif" font-size="14.00">pullback_along&#39;</text>
</a>
</g>
</g>
<!-- Pullback_hfiber_pullback_along_&#45;&gt;Pullback_pullback_along_ -->
<g id="edge21" class="edge">
<title>Pullback_hfiber_pullback_along_&#45;&gt;Pullback_pullback_along_</title>
<path fill="none" stroke="black" d="M2147.77,-561.81C2116.95,-518.53 2036.04,-404.89 1999.89,-354.12"/>
<polygon fill="black" stroke="black" points="2002.74,-352.08 1994.08,-345.96 1997.03,-356.14 2002.74,-352.08"/>
</g>
<!-- Pullback_pullback_along_&#45;&gt;Pullback_Pullback -->
<g id="edge22" class="edge">
<title>Pullback_pullback_along_&#45;&gt;Pullback_Pullback</title>
<path fill="none" stroke="black" d="M1950.04,-311.32C1866.79,-270.5 1643.56,-161.04 1554.47,-117.36"/>
<polygon fill="black" stroke="black" points="1555.8,-114.12 1545.28,-112.86 1552.72,-120.4 1555.8,-114.12"/>
</g>
<!-- Pullback_hfiber_pullback_along -->
<g id="node16" class="node">
<title>Pullback_hfiber_pullback_along</title>
<g id="a_node16"><a xlink:href="Pullback.html#hfiber_pullback_along" xlink:title="hfiber_pullback_along">
<ellipse fill="#f070d1" stroke="black" cx="2411" cy="-579.99" rx="111.27" ry="18"/>
<ellipse fill="none" stroke="black" cx="2411" cy="-579.99" rx="115.28" ry="22"/>
<ellipse fill="none" stroke="black" cx="2411" cy="-579.99" rx="119.28" ry="26"/>
<text text-anchor="middle" x="2411" y="-576.29" font-family="Times,serif" font-size="14.00">hfiber_pullback_along</text>
</a>
</g>
</g>
<!-- Pullback_pullback_along -->
<g id="node17" class="node">
<title>Pullback_pullback_along</title>
<g id="a_node17"><a xlink:href="Pullback.html#pullback_along" xlink:title="pullback_along">
<ellipse fill="#f070d1" stroke="black" cx="2161" cy="-327.99" rx="79.09" ry="18"/>
<text text-anchor="middle" x="2161" y="-324.29" font-family="Times,serif" font-size="14.00">pullback_along</text>
</a>
</g>
</g>
<!-- Pullback_hfiber_pullback_along&#45;&gt;Pullback_pullback_along -->
<g id="edge23" class="edge">
<title>Pullback_hfiber_pullback_along&#45;&gt;Pullback_pullback_along</title>
<path fill="none" stroke="black" d="M2386.12,-554.1C2337.93,-505.92 2232.48,-400.46 2185,-352.99"/>
<polygon fill="black" stroke="black" points="2187.44,-350.48 2177.9,-345.89 2182.49,-355.43 2187.44,-350.48"/>
</g>
<!-- Pullback_pullback_along&#45;&gt;Pullback_Pullback -->
<g id="edge24" class="edge">
<title>Pullback_pullback_along&#45;&gt;Pullback_Pullback</title>
<path fill="none" stroke="black" d="M2119.74,-312.38C2004.44,-271.56 1679.59,-156.55 1561.02,-114.57"/>
<polygon fill="black" stroke="black" points="1562.11,-111.25 1551.52,-111.21 1559.78,-117.85 1562.11,-111.25"/>
</g>
<!-- Pullback_IsPullback -->
<g id="node25" class="node">
<title>Pullback_IsPullback</title>
<g id="a_node25"><a xlink:href="Pullback.html#IsPullback" xlink:title="IsPullback">
<ellipse fill="#f070d1" stroke="black" cx="1533" cy="-579.99" rx="58.49" ry="18"/>
<text text-anchor="middle" x="1533" y="-576.29" font-family="Times,serif" font-size="14.00">IsPullback</text>
</a>
</g>
</g>
<!-- Pullback_isequiv_functor_hfiber_ispullback&#45;&gt;Pullback_IsPullback -->
<g id="edge25" class="edge">
<title>Pullback_isequiv_functor_hfiber_ispullback&#45;&gt;Pullback_IsPullback</title>
<path fill="none" stroke="black" d="M1378.41,-814.74C1407.16,-771.27 1482.66,-657.11 1516.35,-606.16"/>
<polygon fill="black" stroke="black" points="1519.35,-607.97 1521.95,-597.7 1513.51,-604.11 1519.35,-607.97"/>
</g>
<!-- Pullback_hfiber_pullback_corec -->
<g id="node20" class="node">
<title>Pullback_hfiber_pullback_corec</title>
<g id="a_node20"><a xlink:href="Pullback.html#hfiber_pullback_corec" xlink:title="hfiber_pullback_corec">
<ellipse fill="#f070d1" stroke="black" cx="1720" cy="-579.99" rx="110.48" ry="18"/>
<text text-anchor="middle" x="1720" y="-576.29" font-family="Times,serif" font-size="14.00">hfiber_pullback_corec</text>
</a>
</g>
</g>
<!-- Pullback_ispullback_isequiv_functor_hfiber&#45;&gt;Pullback_hfiber_pullback_corec -->
<g id="edge26" class="edge">
<title>Pullback_ispullback_isequiv_functor_hfiber&#45;&gt;Pullback_hfiber_pullback_corec</title>
<path fill="none" stroke="black" d="M1909.05,-814.74C1873.83,-771.2 1781.25,-656.72 1740.15,-605.9"/>
<polygon fill="black" stroke="black" points="1742.79,-603.6 1733.78,-598.03 1737.35,-608.01 1742.79,-603.6"/>
</g>
<!-- Pullback_ispullback_isequiv_functor_hfiber&#45;&gt;Pullback_IsPullback -->
<g id="edge27" class="edge">
<title>Pullback_ispullback_isequiv_functor_hfiber&#45;&gt;Pullback_IsPullback</title>
<path fill="none" stroke="black" d="M1896.81,-815.13C1827.88,-770.77 1641.56,-650.86 1565.75,-602.07"/>
<polygon fill="black" stroke="black" points="1567.37,-598.95 1557.07,-596.48 1563.58,-604.83 1567.37,-598.95"/>
</g>
<!-- Pullback_pullback_corec -->
<g id="node30" class="node">
<title>Pullback_pullback_corec</title>
<g id="a_node30"><a xlink:href="Pullback.html#pullback_corec" xlink:title="pullback_corec">
<ellipse fill="#f070d1" stroke="black" cx="1685" cy="-327.99" rx="79.09" ry="18"/>
<text text-anchor="middle" x="1685" y="-324.29" font-family="Times,serif" font-size="14.00">pullback_corec</text>
</a>
</g>
</g>
<!-- Pullback_hfiber_pullback_corec&#45;&gt;Pullback_pullback_corec -->
<g id="edge28" class="edge">
<title>Pullback_hfiber_pullback_corec&#45;&gt;Pullback_pullback_corec</title>
<path fill="none" stroke="black" d="M1717.59,-561.81C1711.62,-519.17 1696.09,-408.23 1688.84,-356.41"/>
<polygon fill="black" stroke="black" points="1692.28,-355.71 1687.42,-346.29 1685.34,-356.68 1692.28,-355.71"/>
</g>
<!-- Pullback_equiv_sigprod_pullback -->
<g id="node21" class="node">
<title>Pullback_equiv_sigprod_pullback</title>
<g id="a_node21"><a xlink:href="Pullback.html#equiv_sigprod_pullback" xlink:title="equiv_sigprod_pullback">
<ellipse fill="#f070d1" stroke="black" cx="1087" cy="-1085.99" rx="118.88" ry="18"/>
<ellipse fill="none" stroke="black" cx="1087" cy="-1085.99" rx="122.88" ry="22"/>
<ellipse fill="none" stroke="black" cx="1087" cy="-1085.99" rx="126.88" ry="26"/>
<text text-anchor="middle" x="1087" y="-1082.29" font-family="Times,serif" font-size="14.00">equiv_sigprod_pullback</text>
</a>
</g>
</g>
<!-- Pullback_ispullback_sigprod -->
<g id="node22" class="node">
<title>Pullback_ispullback_sigprod</title>
<g id="a_node22"><a xlink:href="Pullback.html#ispullback_sigprod" xlink:title="ispullback_sigprod">
<ellipse fill="#f070d1" stroke="black" cx="1087" cy="-832.99" rx="96.68" ry="18"/>
<text text-anchor="middle" x="1087" y="-829.29" font-family="Times,serif" font-size="14.00">ispullback_sigprod</text>
</a>
</g>
</g>
<!-- Pullback_equiv_sigprod_pullback&#45;&gt;Pullback_ispullback_sigprod -->
<g id="edge29" class="edge">
<title>Pullback_equiv_sigprod_pullback&#45;&gt;Pullback_ispullback_sigprod</title>
<path fill="none" stroke="black" d="M1087,-1059.54C1087,-1012.03 1087,-910.25 1087,-861.34"/>
<polygon fill="black" stroke="black" points="1090.5,-861.19 1087,-851.19 1083.5,-861.19 1090.5,-861.19"/>
</g>
<!-- Pullback_ispullback_sigprod&#45;&gt;Pullback_IsPullback -->
<g id="edge30" class="edge">
<title>Pullback_ispullback_sigprod&#45;&gt;Pullback_IsPullback</title>
<path fill="none" stroke="black" d="M1115.92,-815.71C1194.42,-771.53 1411.36,-649.45 1497.28,-601.09"/>
<polygon fill="black" stroke="black" points="1499.14,-604.06 1506.14,-596.11 1495.71,-597.96 1499.14,-604.06"/>
</g>
<!-- Pullback_ispullback_symm -->
<g id="node23" class="node">
<title>Pullback_ispullback_symm</title>
<g id="a_node23"><a xlink:href="Pullback.html#ispullback_symm" xlink:title="ispullback_symm">
<ellipse fill="#f070d1" stroke="black" cx="874" cy="-832.99" rx="89.87" ry="18"/>
<ellipse fill="none" stroke="black" cx="874" cy="-832.99" rx="93.88" ry="22"/>
<ellipse fill="none" stroke="black" cx="874" cy="-832.99" rx="97.88" ry="26"/>
<text text-anchor="middle" x="874" y="-829.29" font-family="Times,serif" font-size="14.00">ispullback_symm</text>
</a>
</g>
</g>
<!-- Pullback_ispullback_symm&#45;&gt;Pullback_IsPullback -->
<g id="edge31" class="edge">
<title>Pullback_ispullback_symm&#45;&gt;Pullback_IsPullback</title>
<path fill="none" stroke="black" d="M928.21,-811.34C1055.33,-762.92 1370.74,-642.79 1488.08,-598.1"/>
<polygon fill="black" stroke="black" points="1489.4,-601.34 1497.5,-594.51 1486.91,-594.8 1489.4,-601.34"/>
</g>
<!-- Pullback_equiv_pullback_symm -->
<g id="node27" class="node">
<title>Pullback_equiv_pullback_symm</title>
<g id="a_node27"><a xlink:href="Pullback.html#equiv_pullback_symm" xlink:title="equiv_pullback_symm">
<ellipse fill="#f070d1" stroke="black" cx="1345" cy="-579.99" rx="111.58" ry="18"/>
<text text-anchor="middle" x="1345" y="-576.29" font-family="Times,serif" font-size="14.00">equiv_pullback_symm</text>
</a>
</g>
</g>
<!-- Pullback_ispullback_symm&#45;&gt;Pullback_equiv_pullback_symm -->
<g id="edge32" class="edge">
<title>Pullback_ispullback_symm&#45;&gt;Pullback_equiv_pullback_symm</title>
<path fill="none" stroke="black" d="M916.21,-809.49C1006.5,-761.38 1217.28,-649.05 1305.29,-602.15"/>
<polygon fill="black" stroke="black" points="1306.98,-605.22 1314.16,-597.42 1303.69,-599.04 1306.98,-605.22"/>
</g>
<!-- Pullback_equiv_ispullback -->
<g id="node24" class="node">
<title>Pullback_equiv_ispullback</title>
<g id="a_node24"><a xlink:href="Pullback.html#equiv_ispullback" xlink:title="equiv_ispullback">
<ellipse fill="#f070d1" stroke="black" cx="1645" cy="-832.99" rx="87.18" ry="18"/>
<ellipse fill="none" stroke="black" cx="1645" cy="-832.99" rx="91.18" ry="22"/>
<ellipse fill="none" stroke="black" cx="1645" cy="-832.99" rx="95.18" ry="26"/>
<text text-anchor="middle" x="1645" y="-829.29" font-family="Times,serif" font-size="14.00">equiv_ispullback</text>
</a>
</g>
</g>
<!-- Pullback_equiv_ispullback&#45;&gt;Pullback_IsPullback -->
<g id="edge33" class="edge">
<title>Pullback_equiv_ispullback&#45;&gt;Pullback_IsPullback</title>
<path fill="none" stroke="black" d="M1633.85,-807C1612.58,-759.33 1566.38,-655.79 1544.69,-607.18"/>
<polygon fill="black" stroke="black" points="1547.84,-605.66 1540.57,-597.95 1541.45,-608.51 1547.84,-605.66"/>
</g>
<!-- Pullback_IsPullback&#45;&gt;Pullback_pullback_corec -->
<g id="edge34" class="edge">
<title>Pullback_IsPullback&#45;&gt;Pullback_pullback_corec</title>
<path fill="none" stroke="black" d="M1543.21,-562.2C1569.21,-519.43 1638.09,-406.14 1669.27,-354.86"/>
<polygon fill="black" stroke="black" points="1672.43,-356.4 1674.64,-346.04 1666.45,-352.76 1672.43,-356.4"/>
</g>
<!-- Pullback_equiv_pullback_unit_prod -->
<g id="node26" class="node">
<title>Pullback_equiv_pullback_unit_prod</title>
<g id="a_node26"><a xlink:href="Pullback.html#equiv_pullback_unit_prod" xlink:title="equiv_pullback_unit_prod">
<ellipse fill="#f070d1" stroke="black" cx="2394" cy="-327.99" rx="128.08" ry="18"/>
<ellipse fill="none" stroke="black" cx="2394" cy="-327.99" rx="132.08" ry="22"/>
<ellipse fill="none" stroke="black" cx="2394" cy="-327.99" rx="136.08" ry="26"/>
<text text-anchor="middle" x="2394" y="-324.29" font-family="Times,serif" font-size="14.00">equiv_pullback_unit_prod</text>
</a>
</g>
</g>
<!-- Pullback_equiv_pullback_unit_prod&#45;&gt;Pullback_Pullback -->
<g id="edge35" class="edge">
<title>Pullback_equiv_pullback_unit_prod&#45;&gt;Pullback_Pullback</title>
<path fill="none" stroke="black" d="M2315.79,-306.66C2138.88,-260.66 1712.1,-149.71 1566.58,-111.88"/>
<polygon fill="black" stroke="black" points="1567.15,-108.41 1556.59,-109.28 1565.39,-115.19 1567.15,-108.41"/>
</g>
<!-- Pullback_equiv_pullback_symm&#45;&gt;Pullback_Pullback -->
<g id="edge36" class="edge">
<title>Pullback_equiv_pullback_symm&#45;&gt;Pullback_Pullback</title>
<path fill="none" stroke="black" d="M1373.38,-562.43C1425.51,-530.16 1535.01,-453.2 1577,-353.99 1610.9,-273.89 1560.66,-171.15 1533.08,-124.3"/>
<polygon fill="black" stroke="black" points="1536.06,-122.46 1527.9,-115.7 1530.06,-126.07 1536.06,-122.46"/>
</g>
<!-- Pullback_hfiber_diagonal -->
<g id="node28" class="node">
<title>Pullback_hfiber_diagonal</title>
<g id="a_node28"><a xlink:href="Pullback.html#hfiber_diagonal" xlink:title="hfiber_diagonal">
<ellipse fill="#f070d1" stroke="black" cx="1938" cy="-579.99" rx="81.8" ry="18"/>
<ellipse fill="none" stroke="black" cx="1938" cy="-579.99" rx="85.79" ry="22"/>
<ellipse fill="none" stroke="black" cx="1938" cy="-579.99" rx="89.79" ry="26"/>
<text text-anchor="middle" x="1938" y="-576.29" font-family="Times,serif" font-size="14.00">hfiber_diagonal</text>
</a>
</g>
</g>
<!-- Pullback_diagonal -->
<g id="node29" class="node">
<title>Pullback_diagonal</title>
<g id="a_node29"><a xlink:href="Pullback.html#diagonal" xlink:title="diagonal">
<ellipse fill="#f070d1" stroke="black" cx="1832" cy="-327.99" rx="50.09" ry="18"/>
<text text-anchor="middle" x="1832" y="-324.29" font-family="Times,serif" font-size="14.00">diagonal</text>
</a>
</g>
</g>
<!-- Pullback_hfiber_diagonal&#45;&gt;Pullback_diagonal -->
<g id="edge37" class="edge">
<title>Pullback_hfiber_diagonal&#45;&gt;Pullback_diagonal</title>
<path fill="none" stroke="black" d="M1927.45,-554.1C1907.36,-506.71 1863.77,-403.92 1843.19,-355.38"/>
<polygon fill="black" stroke="black" points="1846.29,-353.73 1839.16,-345.89 1839.85,-356.46 1846.29,-353.73"/>
</g>
<!-- Pullback_diagonal&#45;&gt;Pullback_Pullback -->
<g id="edge38" class="edge">
<title>Pullback_diagonal&#45;&gt;Pullback_Pullback</title>
<path fill="none" stroke="black" d="M1810.84,-311.67C1756.17,-272.1 1610.05,-166.34 1546.83,-120.58"/>
<polygon fill="black" stroke="black" points="1548.63,-117.56 1538.48,-114.54 1544.53,-123.23 1548.63,-117.56"/>
</g>
<!-- Pullback_pullback_corec&#45;&gt;Pullback_Pullback -->
<g id="edge39" class="edge">
<title>Pullback_pullback_corec&#45;&gt;Pullback_Pullback</title>
<path fill="none" stroke="black" d="M1672.37,-309.85C1642.92,-269.88 1569.57,-170.34 1535.25,-123.76"/>
<polygon fill="black" stroke="black" points="1538.07,-121.68 1529.32,-115.7 1532.43,-125.83 1538.07,-121.68"/>
</g>
<!-- Pullback_pullback_commsq -->
<g id="node31" class="node">
<title>Pullback_pullback_commsq</title>
<g id="a_node31"><a xlink:href="Pullback.html#pullback_commsq" xlink:title="pullback_commsq">
<ellipse fill="#f070d1" stroke="black" cx="137" cy="-579.99" rx="92.89" ry="18"/>
<ellipse fill="none" stroke="black" cx="137" cy="-579.99" rx="96.89" ry="22"/>
<ellipse fill="none" stroke="black" cx="137" cy="-579.99" rx="100.88" ry="26"/>
<text text-anchor="middle" x="137" y="-576.29" font-family="Times,serif" font-size="14.00">pullback_commsq</text>
</a>
</g>
</g>
<!-- Pullback_pullback_commsq&#45;&gt;Pullback_pullback_pr2 -->
<g id="edge40" class="edge">
<title>Pullback_pullback_commsq&#45;&gt;Pullback_pullback_pr2</title>
<path fill="none" stroke="black" d="M135.38,-553.64C132.35,-506.32 125.86,-404.95 122.74,-356.23"/>
<polygon fill="black" stroke="black" points="126.23,-355.88 122.1,-346.12 119.24,-356.33 126.23,-355.88"/>
</g>
<!-- Pullback_pullback_commsq&#45;&gt;Pullback_pullback_pr1 -->
<g id="edge41" class="edge">
<title>Pullback_pullback_commsq&#45;&gt;Pullback_pullback_pr1</title>
<path fill="none" stroke="black" d="M151.13,-554.1C178.16,-506.52 236.93,-403.06 264.35,-354.78"/>
<polygon fill="black" stroke="black" points="267.51,-356.31 269.4,-345.89 261.42,-352.85 267.51,-356.31"/>
</g>
<!-- Pullback_pullback_pr2&#45;&gt;Pullback_Pullback -->
<g id="edge42" class="edge">
<title>Pullback_pullback_pr2&#45;&gt;Pullback_Pullback</title>
<path fill="none" stroke="black" d="M160.86,-313.06C173.29,-309.08 187.11,-305 200,-301.99 680.32,-189.67 1274.14,-123.63 1459.19,-104.69"/>
<polygon fill="black" stroke="black" points="1459.65,-108.16 1469.25,-103.67 1458.95,-101.2 1459.65,-108.16"/>
</g>
<!-- Pullback_pullback_pr1&#45;&gt;Pullback_Pullback -->
<g id="edge43" class="edge">
<title>Pullback_pullback_pr1&#45;&gt;Pullback_Pullback</title>
<path fill="none" stroke="black" d="M319.3,-313.1C331.63,-309.16 345.28,-305.1 358,-301.99 776.35,-199.64 1291.74,-128.18 1460.57,-106.16"/>
<polygon fill="black" stroke="black" points="1461.25,-109.6 1470.72,-104.84 1460.35,-102.66 1461.25,-109.6"/>
</g>
</g>
</svg>
