<?xml version="1.0" encoding="UTF-8" standalone="no"?>
<!DOCTYPE svg PUBLIC "-//W3C//DTD SVG 1.1//EN"
 "http://www.w3.org/Graphics/SVG/1.1/DTD/svg11.dtd">
<!-- Generated by graphviz version 2.43.0 (0)
 -->
<!-- Title: HoTT_Basics_Logic Pages: 1 -->
<svg width="877pt" height="443pt"
 viewBox="0.00 0.00 877.00 442.50" xmlns="http://www.w3.org/2000/svg" xmlns:xlink="http://www.w3.org/1999/xlink">
<g id="graph0" class="graph" transform="scale(1 1) rotate(0) translate(4 438.5)">
<title>HoTT_Basics_Logic</title>
<polygon fill="white" stroke="transparent" points="-4,4 -4,-438.5 873,-438.5 873,4 -4,4"/>
<g id="clust1" class="cluster">
<title>cluster_Basics</title>
<polygon fill="#ffffc3" stroke="black" points="8,-11.36 8,-423.14 861,-423.14 861,-11.36 8,-11.36"/>
<text text-anchor="middle" x="39" y="-407.94" font-family="Times,serif" font-size="14.00">Basics</text>
</g>
<g id="clust2" class="cluster">
<title>cluster_Basics_Logic</title>
<polygon fill="#ffffa3" stroke="black" points="16,-22.72 16,-379.12 853,-379.12 853,-22.72 16,-22.72"/>
<text text-anchor="middle" x="43.5" y="-363.92" font-family="Times,serif" font-size="14.00">Logic</text>
</g>
<!-- Basics_Logic_False_sind -->
<g id="node1" class="node">
<title>Basics_Logic_False_sind</title>
<g id="a_node1"><a xlink:href="Basics.html#Logic.False_sind" xlink:title="False_sind">
<ellipse fill="#f070d1" stroke="black" cx="778" cy="-173.36" rx="59.27" ry="18"/>
<ellipse fill="none" stroke="black" cx="778" cy="-173.36" rx="63.28" ry="22"/>
<ellipse fill="none" stroke="black" cx="778" cy="-173.36" rx="67.29" ry="26"/>
<text text-anchor="middle" x="778" y="-169.66" font-family="Times,serif" font-size="14.00">False_sind</text>
</a>
</g>
</g>
<!-- Basics_Logic_False -->
<g id="node5" class="node">
<title>Basics_Logic_False</title>
<g id="a_node5"><a xlink:href="Basics.html#Logic.False" xlink:title="False">
<ellipse fill="#e2cdfa" stroke="black" cx="635" cy="-59.36" rx="35.19" ry="18"/>
<text text-anchor="middle" x="635" y="-55.66" font-family="Times,serif" font-size="14.00">False</text>
</a>
</g>
</g>
<!-- Basics_Logic_False_sind&#45;&gt;Basics_Logic_False -->
<g id="edge1" class="edge">
<title>Basics_Logic_False_sind&#45;&gt;Basics_Logic_False</title>
<path fill="none" stroke="black" d="M749.06,-149.69C723.4,-129.59 686.23,-100.49 661.38,-81.02"/>
<polygon fill="black" stroke="black" points="663.48,-78.22 653.45,-74.81 659.17,-83.73 663.48,-78.22"/>
</g>
<!-- Basics_Logic_False_rec -->
<g id="node2" class="node">
<title>Basics_Logic_False_rec</title>
<g id="a_node2"><a xlink:href="Basics.html#Logic.False_rec" xlink:title="False_rec">
<ellipse fill="#f070d1" stroke="black" cx="635" cy="-298.36" rx="53.9" ry="18"/>
<ellipse fill="none" stroke="black" cx="635" cy="-298.36" rx="57.89" ry="22"/>
<ellipse fill="none" stroke="black" cx="635" cy="-298.36" rx="61.89" ry="26"/>
<text text-anchor="middle" x="635" y="-294.66" font-family="Times,serif" font-size="14.00">False_rec</text>
</a>
</g>
</g>
<!-- Basics_Logic_False_rect -->
<g id="node4" class="node">
<title>Basics_Logic_False_rect</title>
<g id="a_node4"><a xlink:href="Basics.html#Logic.False_rect" xlink:title="False_rect">
<ellipse fill="#f070d1" stroke="black" cx="635" cy="-173.36" rx="57.69" ry="18"/>
<text text-anchor="middle" x="635" y="-169.66" font-family="Times,serif" font-size="14.00">False_rect</text>
</a>
</g>
</g>
<!-- Basics_Logic_False_rec&#45;&gt;Basics_Logic_False_rect -->
<g id="edge2" class="edge">
<title>Basics_Logic_False_rec&#45;&gt;Basics_Logic_False_rect</title>
<path fill="none" stroke="black" d="M635,-272.17C635,-251.7 635,-222.87 635,-201.82"/>
<polygon fill="black" stroke="black" points="638.5,-201.6 635,-191.6 631.5,-201.6 638.5,-201.6"/>
</g>
<!-- Basics_Logic_False_ind -->
<g id="node3" class="node">
<title>Basics_Logic_False_ind</title>
<g id="a_node3"><a xlink:href="Basics.html#Logic.False_ind" xlink:title="False_ind">
<ellipse fill="#7fffd4" stroke="black" cx="497" cy="-173.36" rx="53.9" ry="18"/>
<ellipse fill="none" stroke="black" cx="497" cy="-173.36" rx="57.89" ry="22"/>
<ellipse fill="none" stroke="black" cx="497" cy="-173.36" rx="61.89" ry="26"/>
<text text-anchor="middle" x="497" y="-169.66" font-family="Times,serif" font-size="14.00">False_ind</text>
</a>
</g>
</g>
<!-- Basics_Logic_False_ind&#45;&gt;Basics_Logic_False -->
<g id="edge3" class="edge">
<title>Basics_Logic_False_ind&#45;&gt;Basics_Logic_False</title>
<path fill="none" stroke="black" d="M524.59,-149.96C549.22,-129.98 585.01,-100.93 609.11,-81.37"/>
<polygon fill="black" stroke="black" points="611.54,-83.9 617.1,-74.88 607.13,-78.47 611.54,-83.9"/>
</g>
<!-- Basics_Logic_False_rect&#45;&gt;Basics_Logic_False -->
<g id="edge4" class="edge">
<title>Basics_Logic_False_rect&#45;&gt;Basics_Logic_False</title>
<path fill="none" stroke="black" d="M635,-155.35C635,-137.42 635,-108.91 635,-87.8"/>
<polygon fill="black" stroke="black" points="638.5,-87.53 635,-77.53 631.5,-87.53 638.5,-87.53"/>
</g>
<!-- Basics_Logic_True_sind -->
<g id="node6" class="node">
<title>Basics_Logic_True_sind</title>
<g id="a_node6"><a xlink:href="Basics.html#Logic.True_sind" xlink:title="True_sind">
<ellipse fill="#f070d1" stroke="black" cx="88" cy="-173.36" rx="55.8" ry="18"/>
<ellipse fill="none" stroke="black" cx="88" cy="-173.36" rx="59.8" ry="22"/>
<ellipse fill="none" stroke="black" cx="88" cy="-173.36" rx="63.79" ry="26"/>
<text text-anchor="middle" x="88" y="-169.66" font-family="Times,serif" font-size="14.00">True_sind</text>
</a>
</g>
</g>
<!-- Basics_Logic_I -->
<g id="node10" class="node">
<title>Basics_Logic_I</title>
<g id="a_node10"><a xlink:href="Basics.html#Logic.I" xlink:title="I">
<ellipse fill="#7faaff" stroke="black" cx="190" cy="-59.36" rx="27" ry="18"/>
<text text-anchor="middle" x="190" y="-55.66" font-family="Times,serif" font-size="14.00">I</text>
</a>
</g>
</g>
<!-- Basics_Logic_True_sind&#45;&gt;Basics_Logic_I -->
<g id="edge5" class="edge">
<title>Basics_Logic_True_sind&#45;&gt;Basics_Logic_I</title>
<path fill="none" stroke="black" d="M109.63,-148.61C127.34,-129.17 152.2,-101.86 169.57,-82.79"/>
<polygon fill="black" stroke="black" points="172.37,-84.92 176.51,-75.17 167.19,-80.2 172.37,-84.92"/>
</g>
<!-- Basics_Logic_True -->
<g id="node11" class="node">
<title>Basics_Logic_True</title>
<g id="a_node11"><a xlink:href="Basics.html#Logic.True" xlink:title="True">
<ellipse fill="#e2cdfa" stroke="black" cx="267" cy="-59.36" rx="32.49" ry="18"/>
<text text-anchor="middle" x="267" y="-55.66" font-family="Times,serif" font-size="14.00">True</text>
</a>
</g>
</g>
<!-- Basics_Logic_True_sind&#45;&gt;Basics_Logic_True -->
<g id="edge6" class="edge">
<title>Basics_Logic_True_sind&#45;&gt;Basics_Logic_True</title>
<path fill="none" stroke="black" d="M122.09,-151.03C155.42,-130.18 205.65,-98.75 237.36,-78.9"/>
<polygon fill="black" stroke="black" points="239.56,-81.66 246.18,-73.39 235.84,-75.73 239.56,-81.66"/>
</g>
<!-- Basics_Logic_True_rec -->
<g id="node7" class="node">
<title>Basics_Logic_True_rec</title>
<g id="a_node7"><a xlink:href="Basics.html#Logic.True_rec" xlink:title="True_rec">
<ellipse fill="#f070d1" stroke="black" cx="362" cy="-298.36" rx="51.21" ry="18"/>
<ellipse fill="none" stroke="black" cx="362" cy="-298.36" rx="55.2" ry="22"/>
<ellipse fill="none" stroke="black" cx="362" cy="-298.36" rx="59.19" ry="26"/>
<text text-anchor="middle" x="362" y="-294.66" font-family="Times,serif" font-size="14.00">True_rec</text>
</a>
</g>
</g>
<!-- Basics_Logic_True_rect -->
<g id="node9" class="node">
<title>Basics_Logic_True_rect</title>
<g id="a_node9"><a xlink:href="Basics.html#Logic.True_rect" xlink:title="True_rect">
<ellipse fill="#f070d1" stroke="black" cx="362" cy="-173.36" rx="55.49" ry="18"/>
<text text-anchor="middle" x="362" y="-169.66" font-family="Times,serif" font-size="14.00">True_rect</text>
</a>
</g>
</g>
<!-- Basics_Logic_True_rec&#45;&gt;Basics_Logic_True_rect -->
<g id="edge7" class="edge">
<title>Basics_Logic_True_rec&#45;&gt;Basics_Logic_True_rect</title>
<path fill="none" stroke="black" d="M362,-272.17C362,-251.7 362,-222.87 362,-201.82"/>
<polygon fill="black" stroke="black" points="365.5,-201.6 362,-191.6 358.5,-201.6 365.5,-201.6"/>
</g>
<!-- Basics_Logic_True_ind -->
<g id="node8" class="node">
<title>Basics_Logic_True_ind</title>
<g id="a_node8"><a xlink:href="Basics.html#Logic.True_ind" xlink:title="True_ind">
<ellipse fill="#7fffd4" stroke="black" cx="229" cy="-173.36" rx="51.21" ry="18"/>
<ellipse fill="none" stroke="black" cx="229" cy="-173.36" rx="55.2" ry="22"/>
<ellipse fill="none" stroke="black" cx="229" cy="-173.36" rx="59.19" ry="26"/>
<text text-anchor="middle" x="229" y="-169.66" font-family="Times,serif" font-size="14.00">True_ind</text>
</a>
</g>
</g>
<!-- Basics_Logic_True_ind&#45;&gt;Basics_Logic_I -->
<g id="edge8" class="edge">
<title>Basics_Logic_True_ind&#45;&gt;Basics_Logic_I</title>
<path fill="none" stroke="black" d="M220.34,-147.5C214.06,-129.45 205.57,-105.07 199.17,-86.68"/>
<polygon fill="black" stroke="black" points="202.45,-85.46 195.85,-77.16 195.84,-87.76 202.45,-85.46"/>
</g>
<!-- Basics_Logic_True_ind&#45;&gt;Basics_Logic_True -->
<g id="edge9" class="edge">
<title>Basics_Logic_True_ind&#45;&gt;Basics_Logic_True</title>
<path fill="none" stroke="black" d="M237.43,-147.5C243.56,-129.45 251.83,-105.07 258.07,-86.68"/>
<polygon fill="black" stroke="black" points="261.4,-87.76 261.3,-77.16 254.77,-85.51 261.4,-87.76"/>
</g>
<!-- Basics_Logic_True_rect&#45;&gt;Basics_Logic_I -->
<g id="edge10" class="edge">
<title>Basics_Logic_True_rect&#45;&gt;Basics_Logic_I</title>
<path fill="none" stroke="black" d="M338.44,-157.02C306.77,-136.4 250.59,-99.81 217.17,-78.05"/>
<polygon fill="black" stroke="black" points="219.08,-75.12 208.79,-72.59 215.26,-80.98 219.08,-75.12"/>
</g>
<!-- Basics_Logic_True_rect&#45;&gt;Basics_Logic_True -->
<g id="edge11" class="edge">
<title>Basics_Logic_True_rect&#45;&gt;Basics_Logic_True</title>
<path fill="none" stroke="black" d="M347.98,-155.83C331.78,-136.73 305.01,-105.17 286.71,-83.6"/>
<polygon fill="black" stroke="black" points="289.29,-81.23 280.16,-75.87 283.96,-85.76 289.29,-81.23"/>
</g>
</g>
</svg>
