<?xml version="1.0" encoding="UTF-8" standalone="no"?>
<!DOCTYPE svg PUBLIC "-//W3C//DTD SVG 1.1//EN"
 "http://www.w3.org/Graphics/SVG/1.1/DTD/svg11.dtd">
<!-- Generated by graphviz version 2.43.0 (0)
 -->
<!-- Title: HoTT_Classes_categories_ua_category Pages: 1 -->
<svg width="942pt" height="475pt"
 viewBox="0.00 0.00 942.00 475.00" xmlns="http://www.w3.org/2000/svg" xmlns:xlink="http://www.w3.org/1999/xlink">
<g id="graph0" class="graph" transform="scale(1 1) rotate(0) translate(4 471)">
<title>HoTT_Classes_categories_ua_category</title>
<polygon fill="white" stroke="transparent" points="-4,4 -4,-471 938,-471 938,4 -4,4"/>
<g id="clust1" class="cluster">
<title>cluster_ua_category</title>
<polygon fill="#ffffc3" stroke="black" points="20.03,-8 20.03,-459 913.97,-459 913.97,-8 20.03,-8"/>
<text text-anchor="middle" x="71.53" y="-443.8" font-family="Times,serif" font-size="14.00">ua_category</text>
</g>
<!-- ua_category_category_algebra -->
<g id="node1" class="node">
<title>ua_category_category_algebra</title>
<g id="a_node1"><a xlink:href="ua_category.html#category_algebra" xlink:title="category_algebra">
<ellipse fill="#f070d1" stroke="black" cx="465.46" cy="-402" rx="90.98" ry="18"/>
<ellipse fill="none" stroke="black" cx="465.46" cy="-402" rx="94.98" ry="22"/>
<ellipse fill="none" stroke="black" cx="465.46" cy="-402" rx="98.98" ry="26"/>
<text text-anchor="middle" x="465.46" y="-398.3" font-family="Times,serif" font-size="14.00">category_algebra</text>
</a>
</g>
</g>
<!-- ua_category_iscategory_algebra -->
<g id="node2" class="node">
<title>ua_category_iscategory_algebra</title>
<g id="a_node2"><a xlink:href="ua_category.html#iscategory_algebra" xlink:title="iscategory_algebra">
<ellipse fill="#f070d1" stroke="black" cx="465.46" cy="-322" rx="98.58" ry="18"/>
<text text-anchor="middle" x="465.46" y="-318.3" font-family="Times,serif" font-size="14.00">iscategory_algebra</text>
</a>
</g>
</g>
<!-- ua_category_category_algebra&#45;&gt;ua_category_iscategory_algebra -->
<g id="edge1" class="edge">
<title>ua_category_category_algebra&#45;&gt;ua_category_iscategory_algebra</title>
<path fill="none" stroke="black" d="M465.46,-375.89C465.46,-367.84 465.46,-358.88 465.46,-350.66"/>
<polygon fill="black" stroke="black" points="468.96,-350.41 465.46,-340.41 461.96,-350.41 468.96,-350.41"/>
</g>
<!-- ua_category_path_idtoiso_isomorphic_id -->
<g id="node3" class="node">
<title>ua_category_path_idtoiso_isomorphic_id</title>
<g id="a_node3"><a xlink:href="ua_category.html#path_idtoiso_isomorphic_id" xlink:title="path_idtoiso_isomorphic_id">
<ellipse fill="#f070d1" stroke="black" cx="465.46" cy="-250" rx="135.68" ry="18"/>
<text text-anchor="middle" x="465.46" y="-246.3" font-family="Times,serif" font-size="14.00">path_idtoiso_isomorphic_id</text>
</a>
</g>
</g>
<!-- ua_category_iscategory_algebra&#45;&gt;ua_category_path_idtoiso_isomorphic_id -->
<g id="edge2" class="edge">
<title>ua_category_iscategory_algebra&#45;&gt;ua_category_path_idtoiso_isomorphic_id</title>
<path fill="none" stroke="black" d="M465.46,-303.7C465.46,-295.98 465.46,-286.71 465.46,-278.11"/>
<polygon fill="black" stroke="black" points="468.96,-278.1 465.46,-268.1 461.96,-278.1 468.96,-278.1"/>
</g>
<!-- ua_category_isequiv_catiso_to_uaiso -->
<g id="node4" class="node">
<title>ua_category_isequiv_catiso_to_uaiso</title>
<g id="a_node4"><a xlink:href="ua_category.html#isequiv_catiso_to_uaiso" xlink:title="isequiv_catiso_to_uaiso">
<ellipse fill="#f070d1" stroke="black" cx="465.46" cy="-178" rx="118.08" ry="18"/>
<text text-anchor="middle" x="465.46" y="-174.3" font-family="Times,serif" font-size="14.00">isequiv_catiso_to_uaiso</text>
</a>
</g>
</g>
<!-- ua_category_path_idtoiso_isomorphic_id&#45;&gt;ua_category_isequiv_catiso_to_uaiso -->
<g id="edge3" class="edge">
<title>ua_category_path_idtoiso_isomorphic_id&#45;&gt;ua_category_isequiv_catiso_to_uaiso</title>
<path fill="none" stroke="black" d="M465.46,-231.7C465.46,-223.98 465.46,-214.71 465.46,-206.11"/>
<polygon fill="black" stroke="black" points="468.96,-206.1 465.46,-196.1 461.96,-206.1 468.96,-206.1"/>
</g>
<!-- ua_category_uaiso_to_catiso -->
<g id="node5" class="node">
<title>ua_category_uaiso_to_catiso</title>
<g id="a_node5"><a xlink:href="ua_category.html#uaiso_to_catiso" xlink:title="uaiso_to_catiso">
<ellipse fill="#f070d1" stroke="black" cx="242.46" cy="-106" rx="80.69" ry="18"/>
<text text-anchor="middle" x="242.46" y="-102.3" font-family="Times,serif" font-size="14.00">uaiso_to_catiso</text>
</a>
</g>
</g>
<!-- ua_category_isequiv_catiso_to_uaiso&#45;&gt;ua_category_uaiso_to_catiso -->
<g id="edge4" class="edge">
<title>ua_category_isequiv_catiso_to_uaiso&#45;&gt;ua_category_uaiso_to_catiso</title>
<path fill="none" stroke="black" d="M416.24,-161.55C381.07,-150.51 333.72,-135.65 297.33,-124.23"/>
<polygon fill="black" stroke="black" points="297.97,-120.76 287.38,-121.1 295.87,-127.43 297.97,-120.76"/>
</g>
<!-- ua_category_catiso_to_uaiso -->
<g id="node6" class="node">
<title>ua_category_catiso_to_uaiso</title>
<g id="a_node6"><a xlink:href="ua_category.html#catiso_to_uaiso" xlink:title="catiso_to_uaiso">
<ellipse fill="#f070d1" stroke="black" cx="691.46" cy="-106" rx="80.69" ry="18"/>
<text text-anchor="middle" x="691.46" y="-102.3" font-family="Times,serif" font-size="14.00">catiso_to_uaiso</text>
</a>
</g>
</g>
<!-- ua_category_isequiv_catiso_to_uaiso&#45;&gt;ua_category_catiso_to_uaiso -->
<g id="edge5" class="edge">
<title>ua_category_isequiv_catiso_to_uaiso&#45;&gt;ua_category_catiso_to_uaiso</title>
<path fill="none" stroke="black" d="M515.06,-161.64C550.96,-150.52 599.48,-135.49 636.55,-124.01"/>
<polygon fill="black" stroke="black" points="637.68,-127.32 646.2,-121.02 635.61,-120.63 637.68,-127.32"/>
</g>
<!-- ua_category_precategory_algebra -->
<g id="node7" class="node">
<title>ua_category_precategory_algebra</title>
<g id="a_node7"><a xlink:href="ua_category.html#precategory_algebra" xlink:title="precategory_algebra">
<ellipse fill="#f070d1" stroke="black" cx="465.46" cy="-34" rx="106.68" ry="18"/>
<text text-anchor="middle" x="465.46" y="-30.3" font-family="Times,serif" font-size="14.00">precategory_algebra</text>
</a>
</g>
</g>
<!-- ua_category_uaiso_to_catiso&#45;&gt;ua_category_precategory_algebra -->
<g id="edge6" class="edge">
<title>ua_category_uaiso_to_catiso&#45;&gt;ua_category_precategory_algebra</title>
<path fill="none" stroke="black" d="M287.05,-91C321.59,-80.16 369.71,-65.05 407.28,-53.26"/>
<polygon fill="black" stroke="black" points="408.59,-56.52 417.08,-50.19 406.49,-49.84 408.59,-56.52"/>
</g>
<!-- ua_category_catiso_to_uaiso&#45;&gt;ua_category_precategory_algebra -->
<g id="edge7" class="edge">
<title>ua_category_catiso_to_uaiso&#45;&gt;ua_category_precategory_algebra</title>
<path fill="none" stroke="black" d="M646.27,-91C611.15,-80.13 562.16,-64.95 524.04,-53.14"/>
<polygon fill="black" stroke="black" points="524.68,-49.68 514.09,-50.06 522.61,-56.37 524.68,-49.68"/>
</g>
</g>
</svg>
