<?xml version="1.0" encoding="UTF-8" standalone="no"?>
<!DOCTYPE svg PUBLIC "-//W3C//DTD SVG 1.1//EN"
 "http://www.w3.org/Graphics/SVG/1.1/DTD/svg11.dtd">
<!-- Generated by graphviz version 2.43.0 (0)
 -->
<!-- Title: HoTT_Spaces_Int_Equiv Pages: 1 -->
<svg width="510pt" height="259pt"
 viewBox="0.00 0.00 510.00 259.00" xmlns="http://www.w3.org/2000/svg" xmlns:xlink="http://www.w3.org/1999/xlink">
<g id="graph0" class="graph" transform="scale(1 1) rotate(0) translate(4 255)">
<title>HoTT_Spaces_Int_Equiv</title>
<polygon fill="white" stroke="transparent" points="-4,4 -4,-255 506,-255 506,4 -4,4"/>
<g id="clust1" class="cluster">
<title>cluster_Equiv</title>
<polygon fill="#ffffc3" stroke="black" points="10.17,-8 10.17,-243 491.83,-243 491.83,-8 10.17,-8"/>
<text text-anchor="middle" x="39.17" y="-227.8" font-family="Times,serif" font-size="14.00">Equiv</text>
</g>
<!-- Equiv_iter_int_pred_r -->
<g id="node1" class="node">
<title>Equiv_iter_int_pred_r</title>
<g id="a_node1"><a xlink:href="Equiv.html#iter_int_pred_r" xlink:title="iter_int_pred_r">
<ellipse fill="#f070d1" stroke="black" cx="370.92" cy="-186" rx="79.11" ry="18"/>
<ellipse fill="none" stroke="black" cx="370.92" cy="-186" rx="83.1" ry="22"/>
<ellipse fill="none" stroke="black" cx="370.92" cy="-186" rx="87.09" ry="26"/>
<text text-anchor="middle" x="370.92" y="-182.3" font-family="Times,serif" font-size="14.00">iter_int_pred_r</text>
</a>
</g>
</g>
<!-- Equiv_int_iter_succ_r -->
<g id="node3" class="node">
<title>Equiv_int_iter_succ_r</title>
<g id="a_node3"><a xlink:href="Equiv.html#int_iter_succ_r" xlink:title="int_iter_succ_r">
<ellipse fill="#f070d1" stroke="black" cx="364.92" cy="-106" rx="77.99" ry="18"/>
<text text-anchor="middle" x="364.92" y="-102.3" font-family="Times,serif" font-size="14.00">int_iter_succ_r</text>
</a>
</g>
</g>
<!-- Equiv_iter_int_pred_r&#45;&gt;Equiv_int_iter_succ_r -->
<g id="edge1" class="edge">
<title>Equiv_iter_int_pred_r&#45;&gt;Equiv_int_iter_succ_r</title>
<path fill="none" stroke="black" d="M368.99,-159.89C368.37,-151.84 367.68,-142.88 367.05,-134.66"/>
<polygon fill="black" stroke="black" points="370.52,-134.11 366.26,-124.41 363.54,-134.65 370.52,-134.11"/>
</g>
<!-- Equiv_iter_int_pred_l -->
<g id="node2" class="node">
<title>Equiv_iter_int_pred_l</title>
<g id="a_node2"><a xlink:href="Equiv.html#iter_int_pred_l" xlink:title="iter_int_pred_l">
<ellipse fill="#f070d1" stroke="black" cx="127.92" cy="-186" rx="77.2" ry="18"/>
<ellipse fill="none" stroke="black" cx="127.92" cy="-186" rx="81.19" ry="22"/>
<ellipse fill="none" stroke="black" cx="127.92" cy="-186" rx="85.19" ry="26"/>
<text text-anchor="middle" x="127.92" y="-182.3" font-family="Times,serif" font-size="14.00">iter_int_pred_l</text>
</a>
</g>
</g>
<!-- Equiv_int_iter_succ_l -->
<g id="node4" class="node">
<title>Equiv_int_iter_succ_l</title>
<g id="a_node4"><a xlink:href="Equiv.html#int_iter_succ_l" xlink:title="int_iter_succ_l">
<ellipse fill="#f070d1" stroke="black" cx="133.92" cy="-106" rx="76.89" ry="18"/>
<text text-anchor="middle" x="133.92" y="-102.3" font-family="Times,serif" font-size="14.00">int_iter_succ_l</text>
</a>
</g>
</g>
<!-- Equiv_iter_int_pred_l&#45;&gt;Equiv_int_iter_succ_l -->
<g id="edge2" class="edge">
<title>Equiv_iter_int_pred_l&#45;&gt;Equiv_int_iter_succ_l</title>
<path fill="none" stroke="black" d="M129.85,-159.89C130.47,-151.84 131.16,-142.88 131.79,-134.66"/>
<polygon fill="black" stroke="black" points="135.3,-134.65 132.58,-124.41 128.33,-134.11 135.3,-134.65"/>
</g>
<!-- Equiv_int_iter -->
<g id="node5" class="node">
<title>Equiv_int_iter</title>
<g id="a_node5"><a xlink:href="Equiv.html#int_iter" xlink:title="int_iter">
<ellipse fill="#f070d1" stroke="black" cx="248.92" cy="-34" rx="44.39" ry="18"/>
<text text-anchor="middle" x="248.92" y="-30.3" font-family="Times,serif" font-size="14.00">int_iter</text>
</a>
</g>
</g>
<!-- Equiv_int_iter_succ_r&#45;&gt;Equiv_int_iter -->
<g id="edge3" class="edge">
<title>Equiv_int_iter_succ_r&#45;&gt;Equiv_int_iter</title>
<path fill="none" stroke="black" d="M338.31,-88.94C321.45,-78.77 299.52,-65.54 281.61,-54.73"/>
<polygon fill="black" stroke="black" points="283.02,-51.49 272.65,-49.32 279.41,-57.48 283.02,-51.49"/>
</g>
<!-- Equiv_int_iter_succ_l&#45;&gt;Equiv_int_iter -->
<g id="edge4" class="edge">
<title>Equiv_int_iter_succ_l&#45;&gt;Equiv_int_iter</title>
<path fill="none" stroke="black" d="M160.3,-88.94C177.02,-78.77 198.75,-65.54 216.52,-54.73"/>
<polygon fill="black" stroke="black" points="218.67,-57.51 225.39,-49.32 215.03,-51.53 218.67,-57.51"/>
</g>
</g>
</svg>
