<?xml version="1.0" encoding="UTF-8" standalone="no"?>
<!DOCTYPE svg PUBLIC "-//W3C//DTD SVG 1.1//EN"
 "http://www.w3.org/Graphics/SVG/1.1/DTD/svg11.dtd">
<!-- Generated by graphviz version 2.43.0 (0)
 -->
<!-- Title: HoTT_Metatheory_TruncImpliesFunext Pages: 1 -->
<svg width="823pt" height="416pt"
 viewBox="0.00 0.00 823.00 415.50" xmlns="http://www.w3.org/2000/svg" xmlns:xlink="http://www.w3.org/1999/xlink">
<g id="graph0" class="graph" transform="scale(1 1) rotate(0) translate(4 411.5)">
<title>HoTT_Metatheory_TruncImpliesFunext</title>
<polygon fill="white" stroke="transparent" points="-4,4 -4,-411.5 819,-411.5 819,4 -4,4"/>
<g id="clust1" class="cluster">
<title>cluster_TruncImpliesFunext</title>
<polygon fill="#ffffc3" stroke="black" points="8,-12.99 8,-394.51 807,-394.51 807,-12.99 8,-12.99"/>
<text text-anchor="middle" x="88.5" y="-379.31" font-family="Times,serif" font-size="14.00">TruncImpliesFunext</text>
</g>
<!-- TruncImpliesFunext_funext_type_from_finterval -->
<g id="node1" class="node">
<title>TruncImpliesFunext_funext_type_from_finterval</title>
<g id="a_node1"><a xlink:href="TruncImpliesFunext.html#funext_type_from_finterval" xlink:title="funext_type_from_finterval">
<ellipse fill="#f070d1" stroke="black" cx="656" cy="-301.99" rx="135.37" ry="18"/>
<ellipse fill="none" stroke="black" cx="656" cy="-301.99" rx="139.37" ry="22"/>
<ellipse fill="none" stroke="black" cx="656" cy="-301.99" rx="143.38" ry="26"/>
<text text-anchor="middle" x="656" y="-298.29" font-family="Times,serif" font-size="14.00">funext_type_from_finterval</text>
</a>
</g>
</g>
<!-- TruncImpliesFunext_fseg -->
<g id="node2" class="node">
<title>TruncImpliesFunext_fseg</title>
<g id="a_node2"><a xlink:href="TruncImpliesFunext.html#fseg" xlink:title="fseg">
<ellipse fill="#f070d1" stroke="black" cx="656" cy="-171.99" rx="30.59" ry="18"/>
<text text-anchor="middle" x="656" y="-168.29" font-family="Times,serif" font-size="14.00">fseg</text>
</a>
</g>
</g>
<!-- TruncImpliesFunext_funext_type_from_finterval&#45;&gt;TruncImpliesFunext_fseg -->
<g id="edge1" class="edge">
<title>TruncImpliesFunext_funext_type_from_finterval&#45;&gt;TruncImpliesFunext_fseg</title>
<path fill="none" stroke="black" d="M656,-275.7C656,-253.91 656,-222.53 656,-200.2"/>
<polygon fill="black" stroke="black" points="659.5,-200.05 656,-190.05 652.5,-200.05 659.5,-200.05"/>
</g>
<!-- TruncImpliesFunext_finterval_rec -->
<g id="node4" class="node">
<title>TruncImpliesFunext_finterval_rec</title>
<g id="a_node4"><a xlink:href="TruncImpliesFunext.html#finterval_rec" xlink:title="finterval_rec">
<ellipse fill="#f070d1" stroke="black" cx="539" cy="-171.99" rx="68.79" ry="18"/>
<text text-anchor="middle" x="539" y="-168.29" font-family="Times,serif" font-size="14.00">finterval_rec</text>
</a>
</g>
</g>
<!-- TruncImpliesFunext_funext_type_from_finterval&#45;&gt;TruncImpliesFunext_finterval_rec -->
<g id="edge2" class="edge">
<title>TruncImpliesFunext_funext_type_from_finterval&#45;&gt;TruncImpliesFunext_finterval_rec</title>
<path fill="none" stroke="black" d="M633.44,-276.31C612.65,-253.56 581.97,-220 561.27,-197.36"/>
<polygon fill="black" stroke="black" points="563.73,-194.86 554.4,-189.84 558.56,-199.58 563.73,-194.86"/>
</g>
<!-- TruncImpliesFunext_finterval -->
<g id="node5" class="node">
<title>TruncImpliesFunext_finterval</title>
<g id="a_node5"><a xlink:href="TruncImpliesFunext.html#finterval" xlink:title="finterval">
<ellipse fill="#f070d1" stroke="black" cx="597" cy="-54.99" rx="50.09" ry="18"/>
<text text-anchor="middle" x="597" y="-51.29" font-family="Times,serif" font-size="14.00">finterval</text>
</a>
</g>
</g>
<!-- TruncImpliesFunext_fseg&#45;&gt;TruncImpliesFunext_finterval -->
<g id="edge3" class="edge">
<title>TruncImpliesFunext_fseg&#45;&gt;TruncImpliesFunext_finterval</title>
<path fill="none" stroke="black" d="M647.55,-154.51C637.79,-135.49 621.62,-103.98 610.2,-81.72"/>
<polygon fill="black" stroke="black" points="613.31,-80.11 605.63,-72.81 607.08,-83.3 613.31,-80.11"/>
</g>
<!-- TruncImpliesFunext_finterval_rec_beta -->
<g id="node3" class="node">
<title>TruncImpliesFunext_finterval_rec_beta</title>
<g id="a_node3"><a xlink:href="TruncImpliesFunext.html#finterval_rec_beta" xlink:title="finterval_rec_beta">
<ellipse fill="#f070d1" stroke="black" cx="393" cy="-301.99" rx="93.68" ry="18"/>
<ellipse fill="none" stroke="black" cx="393" cy="-301.99" rx="97.68" ry="22"/>
<ellipse fill="none" stroke="black" cx="393" cy="-301.99" rx="101.68" ry="26"/>
<text text-anchor="middle" x="393" y="-298.29" font-family="Times,serif" font-size="14.00">finterval_rec_beta</text>
</a>
</g>
</g>
<!-- TruncImpliesFunext_finterval_rec_beta&#45;&gt;TruncImpliesFunext_finterval_rec -->
<g id="edge4" class="edge">
<title>TruncImpliesFunext_finterval_rec_beta&#45;&gt;TruncImpliesFunext_finterval_rec</title>
<path fill="none" stroke="black" d="M420.46,-276.91C446.81,-253.81 486.34,-219.15 512.4,-196.31"/>
<polygon fill="black" stroke="black" points="514.81,-198.85 520.03,-189.62 510.2,-193.58 514.81,-198.85"/>
</g>
<!-- TruncImpliesFunext_finterval_rec&#45;&gt;TruncImpliesFunext_finterval -->
<g id="edge5" class="edge">
<title>TruncImpliesFunext_finterval_rec&#45;&gt;TruncImpliesFunext_finterval</title>
<path fill="none" stroke="black" d="M547.56,-154.02C557.11,-135.08 572.68,-104.2 583.8,-82.16"/>
<polygon fill="black" stroke="black" points="587.03,-83.53 588.41,-73.03 580.78,-80.38 587.03,-83.53"/>
</g>
<!-- TruncImpliesFunext_funext_type_from_trunc -->
<g id="node6" class="node">
<title>TruncImpliesFunext_funext_type_from_trunc</title>
<g id="a_node6"><a xlink:href="TruncImpliesFunext.html#funext_type_from_trunc" xlink:title="funext_type_from_trunc">
<ellipse fill="#f070d1" stroke="black" cx="145" cy="-301.99" rx="120.79" ry="18"/>
<ellipse fill="none" stroke="black" cx="145" cy="-301.99" rx="124.78" ry="22"/>
<ellipse fill="none" stroke="black" cx="145" cy="-301.99" rx="128.78" ry="26"/>
<text text-anchor="middle" x="145" y="-298.29" font-family="Times,serif" font-size="14.00">funext_type_from_trunc</text>
</a>
</g>
</g>
<!-- TruncImpliesFunext_seg -->
<g id="node7" class="node">
<title>TruncImpliesFunext_seg</title>
<g id="a_node7"><a xlink:href="TruncImpliesFunext.html#seg" xlink:title="seg">
<ellipse fill="#f070d1" stroke="black" cx="94" cy="-171.99" rx="27" ry="18"/>
<text text-anchor="middle" x="94" y="-168.29" font-family="Times,serif" font-size="14.00">seg</text>
</a>
</g>
</g>
<!-- TruncImpliesFunext_funext_type_from_trunc&#45;&gt;TruncImpliesFunext_seg -->
<g id="edge6" class="edge">
<title>TruncImpliesFunext_funext_type_from_trunc&#45;&gt;TruncImpliesFunext_seg</title>
<path fill="none" stroke="black" d="M135.05,-276C126.25,-253.92 113.46,-221.82 104.5,-199.34"/>
<polygon fill="black" stroke="black" points="107.63,-197.75 100.68,-189.75 101.13,-200.34 107.63,-197.75"/>
</g>
<!-- TruncImpliesFunext_interval_rec -->
<g id="node8" class="node">
<title>TruncImpliesFunext_interval_rec</title>
<g id="a_node8"><a xlink:href="TruncImpliesFunext.html#interval_rec" xlink:title="interval_rec">
<ellipse fill="#f070d1" stroke="black" cx="205" cy="-171.99" rx="65.79" ry="18"/>
<text text-anchor="middle" x="205" y="-168.29" font-family="Times,serif" font-size="14.00">interval_rec</text>
</a>
</g>
</g>
<!-- TruncImpliesFunext_funext_type_from_trunc&#45;&gt;TruncImpliesFunext_interval_rec -->
<g id="edge7" class="edge">
<title>TruncImpliesFunext_funext_type_from_trunc&#45;&gt;TruncImpliesFunext_interval_rec</title>
<path fill="none" stroke="black" d="M156.71,-276C167.05,-253.95 182.07,-221.9 192.61,-199.42"/>
<polygon fill="black" stroke="black" points="195.89,-200.67 196.96,-190.13 189.55,-197.7 195.89,-200.67"/>
</g>
<!-- TruncImpliesFunext_interval -->
<g id="node9" class="node">
<title>TruncImpliesFunext_interval</title>
<g id="a_node9"><a xlink:href="TruncImpliesFunext.html#interval" xlink:title="interval">
<ellipse fill="#f070d1" stroke="black" cx="150" cy="-54.99" rx="46.59" ry="18"/>
<text text-anchor="middle" x="150" y="-51.29" font-family="Times,serif" font-size="14.00">interval</text>
</a>
</g>
</g>
<!-- TruncImpliesFunext_seg&#45;&gt;TruncImpliesFunext_interval -->
<g id="edge8" class="edge">
<title>TruncImpliesFunext_seg&#45;&gt;TruncImpliesFunext_interval</title>
<path fill="none" stroke="black" d="M102.02,-154.51C111.24,-135.58 126.5,-104.26 137.33,-82.02"/>
<polygon fill="black" stroke="black" points="140.58,-83.33 141.81,-72.81 134.28,-80.27 140.58,-83.33"/>
</g>
<!-- TruncImpliesFunext_interval_rec&#45;&gt;TruncImpliesFunext_interval -->
<g id="edge9" class="edge">
<title>TruncImpliesFunext_interval_rec&#45;&gt;TruncImpliesFunext_interval</title>
<path fill="none" stroke="black" d="M196.88,-154.02C187.83,-135.08 173.06,-104.2 162.52,-82.16"/>
<polygon fill="black" stroke="black" points="165.62,-80.54 158.15,-73.03 159.31,-83.56 165.62,-80.54"/>
</g>
</g>
</svg>
