<?xml version="1.0" encoding="UTF-8" standalone="no"?>
<!DOCTYPE svg PUBLIC "-//W3C//DTD SVG 1.1//EN"
 "http://www.w3.org/Graphics/SVG/1.1/DTD/svg11.dtd">
<!-- Generated by graphviz version 2.43.0 (0)
 -->
<!-- Title: HoTT_Diagrams_ParallelPair Pages: 1 -->
<svg width="510pt" height="259pt"
 viewBox="0.00 0.00 510.00 259.00" xmlns="http://www.w3.org/2000/svg" xmlns:xlink="http://www.w3.org/1999/xlink">
<g id="graph0" class="graph" transform="scale(1 1) rotate(0) translate(4 255)">
<title>HoTT_Diagrams_ParallelPair</title>
<polygon fill="white" stroke="transparent" points="-4,4 -4,-255 506,-255 506,4 -4,4"/>
<g id="clust1" class="cluster">
<title>cluster_ParallelPair</title>
<polygon fill="#ffffc3" stroke="black" points="12.71,-8 12.71,-243 489.29,-243 489.29,-8 12.71,-8"/>
<text text-anchor="middle" x="62.21" y="-227.8" font-family="Times,serif" font-size="14.00">ParallelPair</text>
</g>
<!-- ParallelPair_Build_parallel_pair_cocone -->
<g id="node1" class="node">
<title>ParallelPair_Build_parallel_pair_cocone</title>
<g id="a_node1"><a xlink:href="ParallelPair.html#Build_parallel_pair_cocone" xlink:title="Build_parallel_pair_cocone">
<ellipse fill="#f070d1" stroke="black" cx="251.44" cy="-186" rx="133.78" ry="18"/>
<ellipse fill="none" stroke="black" cx="251.44" cy="-186" rx="137.78" ry="22"/>
<ellipse fill="none" stroke="black" cx="251.44" cy="-186" rx="141.78" ry="26"/>
<text text-anchor="middle" x="251.44" y="-182.3" font-family="Times,serif" font-size="14.00">Build_parallel_pair_cocone</text>
</a>
</g>
</g>
<!-- ParallelPair_parallel_pair -->
<g id="node2" class="node">
<title>ParallelPair_parallel_pair</title>
<g id="a_node2"><a xlink:href="ParallelPair.html#parallel_pair" xlink:title="parallel_pair">
<ellipse fill="#f070d1" stroke="black" cx="251.44" cy="-106" rx="68.79" ry="18"/>
<text text-anchor="middle" x="251.44" y="-102.3" font-family="Times,serif" font-size="14.00">parallel_pair</text>
</a>
</g>
</g>
<!-- ParallelPair_Build_parallel_pair_cocone&#45;&gt;ParallelPair_parallel_pair -->
<g id="edge1" class="edge">
<title>ParallelPair_Build_parallel_pair_cocone&#45;&gt;ParallelPair_parallel_pair</title>
<path fill="none" stroke="black" d="M251.44,-159.89C251.44,-151.84 251.44,-142.88 251.44,-134.66"/>
<polygon fill="black" stroke="black" points="254.94,-134.41 251.44,-124.41 247.94,-134.41 254.94,-134.41"/>
</g>
<!-- ParallelPair_parallel_pair_graph -->
<g id="node3" class="node">
<title>ParallelPair_parallel_pair_graph</title>
<g id="a_node3"><a xlink:href="ParallelPair.html#parallel_pair_graph" xlink:title="parallel_pair_graph">
<ellipse fill="#f070d1" stroke="black" cx="251.44" cy="-34" rx="100.98" ry="18"/>
<text text-anchor="middle" x="251.44" y="-30.3" font-family="Times,serif" font-size="14.00">parallel_pair_graph</text>
</a>
</g>
</g>
<!-- ParallelPair_parallel_pair&#45;&gt;ParallelPair_parallel_pair_graph -->
<g id="edge2" class="edge">
<title>ParallelPair_parallel_pair&#45;&gt;ParallelPair_parallel_pair_graph</title>
<path fill="none" stroke="black" d="M251.44,-87.7C251.44,-79.98 251.44,-70.71 251.44,-62.11"/>
<polygon fill="black" stroke="black" points="254.94,-62.1 251.44,-52.1 247.94,-62.1 254.94,-62.1"/>
</g>
</g>
</svg>
