<?xml version="1.0" encoding="UTF-8" standalone="no"?>
<!DOCTYPE svg PUBLIC "-//W3C//DTD SVG 1.1//EN"
 "http://www.w3.org/Graphics/SVG/1.1/DTD/svg11.dtd">
<!-- Generated by graphviz version 2.43.0 (0)
 -->
<!-- Title: HoTT_PropResizing_PropResizing Pages: 1 -->
<svg width="686pt" height="347pt"
 viewBox="0.00 0.00 686.00 347.00" xmlns="http://www.w3.org/2000/svg" xmlns:xlink="http://www.w3.org/1999/xlink">
<g id="graph0" class="graph" transform="scale(1 1) rotate(0) translate(4 343)">
<title>HoTT_PropResizing_PropResizing</title>
<polygon fill="white" stroke="transparent" points="-4,4 -4,-343 682,-343 682,4 -4,4"/>
<g id="clust1" class="cluster">
<title>cluster_PropResizing</title>
<polygon fill="#ffffc3" stroke="black" points="10.89,-8 10.89,-331 667.11,-331 667.11,-8 10.89,-8"/>
<text text-anchor="middle" x="66.39" y="-315.8" font-family="Times,serif" font-size="14.00">PropResizing</text>
</g>
<!-- PropResizing_ishprop_resize_hprop -->
<g id="node1" class="node">
<title>PropResizing_ishprop_resize_hprop</title>
<g id="a_node1"><a xlink:href="PropResizing.html#ishprop_resize_hprop" xlink:title="ishprop_resize_hprop">
<ellipse fill="#f070d1" stroke="black" cx="495.57" cy="-274" rx="109.69" ry="18"/>
<ellipse fill="none" stroke="black" cx="495.57" cy="-274" rx="113.69" ry="22"/>
<ellipse fill="none" stroke="black" cx="495.57" cy="-274" rx="117.68" ry="26"/>
<text text-anchor="middle" x="495.57" y="-270.3" font-family="Times,serif" font-size="14.00">ishprop_resize_hprop</text>
</a>
</g>
</g>
<!-- PropResizing_equiv_resize_hprop -->
<g id="node2" class="node">
<title>PropResizing_equiv_resize_hprop</title>
<g id="a_node2"><a xlink:href="PropResizing.html#equiv_resize_hprop" xlink:title="equiv_resize_hprop">
<ellipse fill="#facdef" stroke="black" cx="507.57" cy="-194" rx="100.18" ry="18"/>
<text text-anchor="middle" x="507.57" y="-190.3" font-family="Times,serif" font-size="14.00">equiv_resize_hprop</text>
</a>
</g>
</g>
<!-- PropResizing_ishprop_resize_hprop&#45;&gt;PropResizing_equiv_resize_hprop -->
<g id="edge1" class="edge">
<title>PropResizing_ishprop_resize_hprop&#45;&gt;PropResizing_equiv_resize_hprop</title>
<path fill="none" stroke="black" d="M499.43,-247.89C500.68,-239.75 502.08,-230.68 503.35,-222.38"/>
<polygon fill="black" stroke="black" points="506.83,-222.83 504.89,-212.41 499.91,-221.76 506.83,-222.83"/>
</g>
<!-- PropResizing_resize_hprop -->
<g id="node3" class="node">
<title>PropResizing_resize_hprop</title>
<g id="a_node3"><a xlink:href="PropResizing.html#resize_hprop" xlink:title="resize_hprop">
<ellipse fill="#facdef" stroke="black" cx="560.57" cy="-114" rx="70.39" ry="18"/>
<text text-anchor="middle" x="560.57" y="-110.3" font-family="Times,serif" font-size="14.00">resize_hprop</text>
</a>
</g>
</g>
<!-- PropResizing_equiv_resize_hprop&#45;&gt;PropResizing_resize_hprop -->
<g id="edge2" class="edge">
<title>PropResizing_equiv_resize_hprop&#45;&gt;PropResizing_resize_hprop</title>
<path fill="none" stroke="black" d="M519.07,-176.08C526.15,-165.65 535.37,-152.09 543.31,-140.39"/>
<polygon fill="black" stroke="black" points="546.36,-142.13 549.09,-131.89 540.57,-138.2 546.36,-142.13"/>
</g>
<!-- PropResizing_PropResizing -->
<g id="node5" class="node">
<title>PropResizing_PropResizing</title>
<g id="a_node5"><a xlink:href="PropResizing.html#PropResizing" xlink:title="PropResizing">
<ellipse fill="#facdef" stroke="black" cx="394.57" cy="-34" rx="72.29" ry="18"/>
<text text-anchor="middle" x="394.57" y="-30.3" font-family="Times,serif" font-size="14.00">PropResizing</text>
</a>
</g>
</g>
<!-- PropResizing_resize_hprop&#45;&gt;PropResizing_PropResizing -->
<g id="edge3" class="edge">
<title>PropResizing_resize_hprop&#45;&gt;PropResizing_PropResizing</title>
<path fill="none" stroke="black" d="M528.56,-97.96C502.24,-85.59 464.74,-67.97 436.1,-54.52"/>
<polygon fill="black" stroke="black" points="437.3,-51.21 426.76,-50.13 434.32,-57.55 437.3,-51.21"/>
</g>
<!-- PropResizing_is_global_axiom_propresizing -->
<g id="node4" class="node">
<title>PropResizing_is_global_axiom_propresizing</title>
<g id="a_node4"><a xlink:href="PropResizing.html#is_global_axiom_propresizing" xlink:title="is_global_axiom_propresizing">
<ellipse fill="#f070d1" stroke="black" cx="231.57" cy="-114" rx="146.46" ry="18"/>
<ellipse fill="none" stroke="black" cx="231.57" cy="-114" rx="150.47" ry="22"/>
<ellipse fill="none" stroke="black" cx="231.57" cy="-114" rx="154.47" ry="26"/>
<text text-anchor="middle" x="231.57" y="-110.3" font-family="Times,serif" font-size="14.00">is_global_axiom_propresizing</text>
</a>
</g>
</g>
<!-- PropResizing_is_global_axiom_propresizing&#45;&gt;PropResizing_PropResizing -->
<g id="edge4" class="edge">
<title>PropResizing_is_global_axiom_propresizing&#45;&gt;PropResizing_PropResizing</title>
<path fill="none" stroke="black" d="M281.36,-89.17C304.46,-78.12 331.59,-65.14 353.5,-54.65"/>
<polygon fill="black" stroke="black" points="355.03,-57.8 362.54,-50.33 352.01,-51.49 355.03,-57.8"/>
</g>
</g>
</svg>
