<?xml version="1.0" encoding="UTF-8" standalone="no"?>
<!DOCTYPE svg PUBLIC "-//W3C//DTD SVG 1.1//EN"
 "http://www.w3.org/Graphics/SVG/1.1/DTD/svg11.dtd">
<!-- Generated by graphviz version 2.43.0 (0)
 -->
<!-- Title: HoTT_Pointed_pTrunc Pages: 1 -->
<svg width="1280pt" height="644pt"
 viewBox="0.00 0.00 1280.00 644.00" xmlns="http://www.w3.org/2000/svg" xmlns:xlink="http://www.w3.org/1999/xlink">
<g id="graph0" class="graph" transform="scale(1 1) rotate(0) translate(4 640)">
<title>HoTT_Pointed_pTrunc</title>
<polygon fill="white" stroke="transparent" points="-4,4 -4,-640 1276,-640 1276,4 -4,4"/>
<g id="clust1" class="cluster">
<title>cluster_pTrunc</title>
<polygon fill="#ffffc3" stroke="black" points="8,-11.49 8,-624.51 1264,-624.51 1264,-11.49 8,-11.49"/>
<text text-anchor="middle" x="41.5" y="-609.31" font-family="Times,serif" font-size="14.00">pTrunc</text>
</g>
<!-- pTrunc_is_minus_one_connected_pointed -->
<g id="node1" class="node">
<title>pTrunc_is_minus_one_connected_pointed</title>
<g id="a_node1"><a xlink:href="pTrunc.html#is_minus_one_connected_pointed" xlink:title="is_minus_one_connected_pointed">
<ellipse fill="#f070d1" stroke="black" cx="1085" cy="-542.49" rx="163.26" ry="18"/>
<ellipse fill="none" stroke="black" cx="1085" cy="-542.49" rx="167.27" ry="22"/>
<ellipse fill="none" stroke="black" cx="1085" cy="-542.49" rx="171.27" ry="26"/>
<text text-anchor="middle" x="1085" y="-538.79" font-family="Times,serif" font-size="14.00">is_minus_one_connected_pointed</text>
</a>
</g>
</g>
<!-- pTrunc_contr_pmap_isconnected_inO -->
<g id="node2" class="node">
<title>pTrunc_contr_pmap_isconnected_inO</title>
<g id="a_node2"><a xlink:href="pTrunc.html#contr_pmap_isconnected_inO" xlink:title="contr_pmap_isconnected_inO">
<ellipse fill="#f070d1" stroke="black" cx="742" cy="-542.49" rx="145.67" ry="18"/>
<ellipse fill="none" stroke="black" cx="742" cy="-542.49" rx="149.67" ry="22"/>
<ellipse fill="none" stroke="black" cx="742" cy="-542.49" rx="153.67" ry="26"/>
<text text-anchor="middle" x="742" y="-538.79" font-family="Times,serif" font-size="14.00">contr_pmap_isconnected_inO</text>
</a>
</g>
</g>
<!-- pTrunc_istrunc_pmap -->
<g id="node3" class="node">
<title>pTrunc_istrunc_pmap</title>
<g id="a_node3"><a xlink:href="pTrunc.html#istrunc_pmap" xlink:title="istrunc_pmap">
<ellipse fill="#f070d1" stroke="black" cx="489" cy="-542.49" rx="73.39" ry="18"/>
<ellipse fill="none" stroke="black" cx="489" cy="-542.49" rx="77.39" ry="22"/>
<ellipse fill="none" stroke="black" cx="489" cy="-542.49" rx="81.39" ry="26"/>
<text text-anchor="middle" x="489" y="-538.79" font-family="Times,serif" font-size="14.00">istrunc_pmap</text>
</a>
</g>
</g>
<!-- pTrunc_istrunc_pforall -->
<g id="node4" class="node">
<title>pTrunc_istrunc_pforall</title>
<g id="a_node4"><a xlink:href="pTrunc.html#istrunc_pforall" xlink:title="istrunc_pforall">
<ellipse fill="#f070d1" stroke="black" cx="867" cy="-416.49" rx="77.99" ry="18"/>
<text text-anchor="middle" x="867" y="-412.79" font-family="Times,serif" font-size="14.00">istrunc_pforall</text>
</a>
</g>
</g>
<!-- pTrunc_istrunc_pmap&#45;&gt;pTrunc_istrunc_pforall -->
<g id="edge1" class="edge">
<title>pTrunc_istrunc_pmap&#45;&gt;pTrunc_istrunc_pforall</title>
<path fill="none" stroke="black" d="M544.37,-523.32C616.93,-499.52 743.3,-458.06 814.44,-434.73"/>
<polygon fill="black" stroke="black" points="815.69,-438 824.1,-431.56 813.51,-431.35 815.69,-438"/>
</g>
<!-- pTrunc_ptr_loops_commutes -->
<g id="node5" class="node">
<title>pTrunc_ptr_loops_commutes</title>
<g id="a_node5"><a xlink:href="pTrunc.html#ptr_loops_commutes" xlink:title="ptr_loops_commutes">
<ellipse fill="#f070d1" stroke="black" cx="745" cy="-290.49" rx="105.89" ry="18"/>
<ellipse fill="none" stroke="black" cx="745" cy="-290.49" rx="109.88" ry="22"/>
<ellipse fill="none" stroke="black" cx="745" cy="-290.49" rx="113.88" ry="26"/>
<text text-anchor="middle" x="745" y="-286.79" font-family="Times,serif" font-size="14.00">ptr_loops_commutes</text>
</a>
</g>
</g>
<!-- pTrunc_path_Tr_commutes -->
<g id="node6" class="node">
<title>pTrunc_path_Tr_commutes</title>
<g id="a_node6"><a xlink:href="pTrunc.html#path_Tr_commutes" xlink:title="path_Tr_commutes">
<ellipse fill="#f070d1" stroke="black" cx="715" cy="-163.49" rx="98.58" ry="18"/>
<text text-anchor="middle" x="715" y="-159.79" font-family="Times,serif" font-size="14.00">path_Tr_commutes</text>
</a>
</g>
</g>
<!-- pTrunc_ptr_loops_commutes&#45;&gt;pTrunc_path_Tr_commutes -->
<g id="edge2" class="edge">
<title>pTrunc_ptr_loops_commutes&#45;&gt;pTrunc_path_Tr_commutes</title>
<path fill="none" stroke="black" d="M739,-264.49C733.95,-243.43 726.73,-213.35 721.53,-191.69"/>
<polygon fill="black" stroke="black" points="724.89,-190.71 719.16,-181.8 718.09,-192.35 724.89,-190.71"/>
</g>
<!-- pTrunc_ptr_loops -->
<g id="node9" class="node">
<title>pTrunc_ptr_loops</title>
<g id="a_node9"><a xlink:href="pTrunc.html#ptr_loops" xlink:title="ptr_loops">
<ellipse fill="#f070d1" stroke="black" cx="1040" cy="-163.49" rx="53.89" ry="18"/>
<text text-anchor="middle" x="1040" y="-159.79" font-family="Times,serif" font-size="14.00">ptr_loops</text>
</a>
</g>
</g>
<!-- pTrunc_ptr_loops_commutes&#45;&gt;pTrunc_ptr_loops -->
<g id="edge3" class="edge">
<title>pTrunc_ptr_loops_commutes&#45;&gt;pTrunc_ptr_loops</title>
<path fill="none" stroke="black" d="M797.4,-267.28C854.92,-242.91 946.06,-204.29 998.73,-181.97"/>
<polygon fill="black" stroke="black" points="1000.25,-185.13 1008.1,-178 997.52,-178.68 1000.25,-185.13"/>
</g>
<!-- pTrunc_ptr -->
<g id="node22" class="node">
<title>pTrunc_ptr</title>
<g id="a_node22"><a xlink:href="pTrunc.html#ptr" xlink:title="ptr">
<ellipse fill="#f070d1" stroke="black" cx="359" cy="-163.49" rx="27" ry="18"/>
<text text-anchor="middle" x="359" y="-159.79" font-family="Times,serif" font-size="14.00">ptr</text>
</a>
</g>
</g>
<!-- pTrunc_ptr_loops_commutes&#45;&gt;pTrunc_ptr -->
<g id="edge4" class="edge">
<title>pTrunc_ptr_loops_commutes&#45;&gt;pTrunc_ptr</title>
<path fill="none" stroke="black" d="M669.48,-271C581.95,-249.04 443.54,-212.49 395,-189.49 391.39,-187.77 387.75,-185.71 384.24,-183.52"/>
<polygon fill="black" stroke="black" points="386.13,-180.57 375.87,-177.91 382.23,-186.39 386.13,-180.57"/>
</g>
<!-- pTrunc_ptr_loops_eq -->
<g id="node7" class="node">
<title>pTrunc_ptr_loops_eq</title>
<g id="a_node7"><a xlink:href="pTrunc.html#ptr_loops_eq" xlink:title="ptr_loops_eq">
<ellipse fill="#f070d1" stroke="black" cx="1178" cy="-290.49" rx="69.58" ry="18"/>
<ellipse fill="none" stroke="black" cx="1178" cy="-290.49" rx="73.59" ry="22"/>
<ellipse fill="none" stroke="black" cx="1178" cy="-290.49" rx="77.59" ry="26"/>
<text text-anchor="middle" x="1178" y="-286.79" font-family="Times,serif" font-size="14.00">ptr_loops_eq</text>
</a>
</g>
</g>
<!-- pTrunc_ptr_loops_eq&#45;&gt;pTrunc_ptr_loops -->
<g id="edge5" class="edge">
<title>pTrunc_ptr_loops_eq&#45;&gt;pTrunc_ptr_loops</title>
<path fill="none" stroke="black" d="M1152.04,-265.97C1127.24,-243.51 1090.09,-209.86 1065.46,-187.55"/>
<polygon fill="black" stroke="black" points="1067.7,-184.85 1057.93,-180.73 1063,-190.04 1067.7,-184.85"/>
</g>
<!-- pTrunc_ptr_iterated_loops -->
<g id="node8" class="node">
<title>pTrunc_ptr_iterated_loops</title>
<g id="a_node8"><a xlink:href="pTrunc.html#ptr_iterated_loops" xlink:title="ptr_iterated_loops">
<ellipse fill="#f070d1" stroke="black" cx="980" cy="-290.49" rx="94.79" ry="18"/>
<ellipse fill="none" stroke="black" cx="980" cy="-290.49" rx="98.79" ry="22"/>
<ellipse fill="none" stroke="black" cx="980" cy="-290.49" rx="102.78" ry="26"/>
<text text-anchor="middle" x="980" y="-286.79" font-family="Times,serif" font-size="14.00">ptr_iterated_loops</text>
</a>
</g>
</g>
<!-- pTrunc_ptr_iterated_loops&#45;&gt;pTrunc_ptr_loops -->
<g id="edge6" class="edge">
<title>pTrunc_ptr_iterated_loops&#45;&gt;pTrunc_ptr_loops</title>
<path fill="none" stroke="black" d="M992,-264.49C1002.26,-243.11 1016.98,-212.45 1027.41,-190.72"/>
<polygon fill="black" stroke="black" points="1030.69,-191.96 1031.87,-181.43 1024.38,-188.93 1030.69,-191.96"/>
</g>
<!-- pTrunc_pTr -->
<g id="node23" class="node">
<title>pTrunc_pTr</title>
<g id="a_node23"><a xlink:href="pTrunc.html#pTr" xlink:title="pTr">
<ellipse fill="#f070d1" stroke="black" cx="544" cy="-48.49" rx="27" ry="18"/>
<text text-anchor="middle" x="544" y="-44.79" font-family="Times,serif" font-size="14.00">pTr</text>
</a>
</g>
</g>
<!-- pTrunc_ptr_loops&#45;&gt;pTrunc_pTr -->
<g id="edge7" class="edge">
<title>pTrunc_ptr_loops&#45;&gt;pTrunc_pTr</title>
<path fill="none" stroke="black" d="M1008.66,-148.78C998.67,-144.76 987.49,-140.61 977,-137.49 832.99,-94.65 655.87,-65.85 580.61,-54.68"/>
<polygon fill="black" stroke="black" points="580.66,-51.15 570.26,-53.16 579.65,-58.08 580.66,-51.15"/>
</g>
<!-- pTrunc_pequiv_ptr_functor -->
<g id="node10" class="node">
<title>pTrunc_pequiv_ptr_functor</title>
<g id="a_node10"><a xlink:href="pTrunc.html#pequiv_ptr_functor" xlink:title="pequiv_ptr_functor">
<ellipse fill="#f070d1" stroke="black" cx="283" cy="-542.49" rx="98.6" ry="18"/>
<ellipse fill="none" stroke="black" cx="283" cy="-542.49" rx="102.59" ry="22"/>
<ellipse fill="none" stroke="black" cx="283" cy="-542.49" rx="106.58" ry="26"/>
<text text-anchor="middle" x="283" y="-538.79" font-family="Times,serif" font-size="14.00">pequiv_ptr_functor</text>
</a>
</g>
</g>
<!-- pTrunc_is1functor_ptr -->
<g id="node14" class="node">
<title>pTrunc_is1functor_ptr</title>
<g id="a_node14"><a xlink:href="pTrunc.html#is1functor_ptr" xlink:title="is1functor_ptr">
<ellipse fill="#f070d1" stroke="black" cx="694" cy="-416.49" rx="76.89" ry="18"/>
<text text-anchor="middle" x="694" y="-412.79" font-family="Times,serif" font-size="14.00">is1functor_ptr</text>
</a>
</g>
</g>
<!-- pTrunc_pequiv_ptr_functor&#45;&gt;pTrunc_is1functor_ptr -->
<g id="edge8" class="edge">
<title>pTrunc_pequiv_ptr_functor&#45;&gt;pTrunc_is1functor_ptr</title>
<path fill="none" stroke="black" d="M348.12,-521.84C428.49,-497.59 563.73,-456.79 639.08,-434.05"/>
<polygon fill="black" stroke="black" points="640.3,-437.34 648.86,-431.1 638.28,-430.64 640.3,-437.34"/>
</g>
<!-- pTrunc_ptr_functor_pconst -->
<g id="node11" class="node">
<title>pTrunc_ptr_functor_pconst</title>
<g id="a_node11"><a xlink:href="pTrunc.html#ptr_functor_pconst" xlink:title="ptr_functor_pconst">
<ellipse fill="#f070d1" stroke="black" cx="493" cy="-416.49" rx="98.27" ry="18"/>
<ellipse fill="none" stroke="black" cx="493" cy="-416.49" rx="102.28" ry="22"/>
<ellipse fill="none" stroke="black" cx="493" cy="-416.49" rx="106.28" ry="26"/>
<text text-anchor="middle" x="493" y="-412.79" font-family="Times,serif" font-size="14.00">ptr_functor_pconst</text>
</a>
</g>
</g>
<!-- pTrunc_is0functor_ptr -->
<g id="node15" class="node">
<title>pTrunc_is0functor_ptr</title>
<g id="a_node15"><a xlink:href="pTrunc.html#is0functor_ptr" xlink:title="is0functor_ptr">
<ellipse fill="#f070d1" stroke="black" cx="426" cy="-290.49" rx="76.89" ry="18"/>
<text text-anchor="middle" x="426" y="-286.79" font-family="Times,serif" font-size="14.00">is0functor_ptr</text>
</a>
</g>
</g>
<!-- pTrunc_ptr_functor_pconst&#45;&gt;pTrunc_is0functor_ptr -->
<g id="edge9" class="edge">
<title>pTrunc_ptr_functor_pconst&#45;&gt;pTrunc_is0functor_ptr</title>
<path fill="none" stroke="black" d="M479.6,-390.69C468.16,-369.51 451.75,-339.14 440.11,-317.59"/>
<polygon fill="black" stroke="black" points="443.12,-315.8 435.28,-308.67 436.96,-319.13 443.12,-315.8"/>
</g>
<!-- pTrunc_ptr_natural -->
<g id="node12" class="node">
<title>pTrunc_ptr_natural</title>
<g id="a_node12"><a xlink:href="pTrunc.html#ptr_natural" xlink:title="ptr_natural">
<ellipse fill="#f070d1" stroke="black" cx="87" cy="-542.49" rx="63.08" ry="18"/>
<ellipse fill="none" stroke="black" cx="87" cy="-542.49" rx="67.09" ry="22"/>
<ellipse fill="none" stroke="black" cx="87" cy="-542.49" rx="71.09" ry="26"/>
<text text-anchor="middle" x="87" y="-538.79" font-family="Times,serif" font-size="14.00">ptr_natural</text>
</a>
</g>
</g>
<!-- pTrunc_ptr_natural_path -->
<g id="node13" class="node">
<title>pTrunc_ptr_natural_path</title>
<g id="a_node13"><a xlink:href="pTrunc.html#ptr_natural_path" xlink:title="ptr_natural_path">
<ellipse fill="#f070d1" stroke="black" cx="280" cy="-416.49" rx="88.28" ry="18"/>
<text text-anchor="middle" x="280" y="-412.79" font-family="Times,serif" font-size="14.00">ptr_natural_path</text>
</a>
</g>
</g>
<!-- pTrunc_ptr_natural&#45;&gt;pTrunc_ptr_natural_path -->
<g id="edge10" class="edge">
<title>pTrunc_ptr_natural&#45;&gt;pTrunc_ptr_natural_path</title>
<path fill="none" stroke="black" d="M121.06,-519.6C156.28,-496.98 210.93,-461.86 246.09,-439.27"/>
<polygon fill="black" stroke="black" points="248.07,-442.16 254.59,-433.81 244.28,-436.27 248.07,-442.16"/>
</g>
<!-- pTrunc_ptr_natural_path&#45;&gt;pTrunc_is0functor_ptr -->
<g id="edge11" class="edge">
<title>pTrunc_ptr_natural_path&#45;&gt;pTrunc_is0functor_ptr</title>
<path fill="none" stroke="black" d="M299.69,-398.76C325.3,-377.01 370.17,-338.91 398.96,-314.45"/>
<polygon fill="black" stroke="black" points="401.27,-317.08 406.62,-307.94 396.73,-311.75 401.27,-317.08"/>
</g>
<!-- pTrunc_pTr_rec_beta_path -->
<g id="node19" class="node">
<title>pTrunc_pTr_rec_beta_path</title>
<g id="a_node19"><a xlink:href="pTrunc.html#pTr_rec_beta_path" xlink:title="pTr_rec_beta_path">
<ellipse fill="#f070d1" stroke="black" cx="235" cy="-290.49" rx="96.38" ry="18"/>
<text text-anchor="middle" x="235" y="-286.79" font-family="Times,serif" font-size="14.00">pTr_rec_beta_path</text>
</a>
</g>
</g>
<!-- pTrunc_ptr_natural_path&#45;&gt;pTrunc_pTr_rec_beta_path -->
<g id="edge12" class="edge">
<title>pTrunc_ptr_natural_path&#45;&gt;pTrunc_pTr_rec_beta_path</title>
<path fill="none" stroke="black" d="M273.84,-398.5C266.34,-377.84 253.59,-342.71 244.75,-318.36"/>
<polygon fill="black" stroke="black" points="247.93,-316.87 241.23,-308.66 241.35,-319.25 247.93,-316.87"/>
</g>
<!-- pTrunc_is1functor_ptr&#45;&gt;pTrunc_is0functor_ptr -->
<g id="edge13" class="edge">
<title>pTrunc_is1functor_ptr&#45;&gt;pTrunc_is0functor_ptr</title>
<path fill="none" stroke="black" d="M660.87,-400.16C612.25,-377.66 521.58,-335.71 468.24,-311.03"/>
<polygon fill="black" stroke="black" points="469.6,-307.8 459.06,-306.78 466.66,-314.16 469.6,-307.8"/>
</g>
<!-- pTrunc_pTr_ind -->
<g id="node17" class="node">
<title>pTrunc_pTr_ind</title>
<g id="a_node17"><a xlink:href="pTrunc.html#pTr_ind" xlink:title="pTr_ind">
<ellipse fill="#f070d1" stroke="black" cx="567" cy="-290.49" rx="46.29" ry="18"/>
<text text-anchor="middle" x="567" y="-286.79" font-family="Times,serif" font-size="14.00">pTr_ind</text>
</a>
</g>
</g>
<!-- pTrunc_is1functor_ptr&#45;&gt;pTrunc_pTr_ind -->
<g id="edge14" class="edge">
<title>pTrunc_is1functor_ptr&#45;&gt;pTrunc_pTr_ind</title>
<path fill="none" stroke="black" d="M676.87,-398.76C654.66,-377.07 615.8,-339.14 590.75,-314.68"/>
<polygon fill="black" stroke="black" points="593.05,-312.03 583.45,-307.55 588.16,-317.04 593.05,-312.03"/>
</g>
<!-- pTrunc_pTr_rec -->
<g id="node20" class="node">
<title>pTrunc_pTr_rec</title>
<g id="a_node20"><a xlink:href="pTrunc.html#pTr_rec" xlink:title="pTr_rec">
<ellipse fill="#f070d1" stroke="black" cx="268" cy="-163.49" rx="46.29" ry="18"/>
<text text-anchor="middle" x="268" y="-159.79" font-family="Times,serif" font-size="14.00">pTr_rec</text>
</a>
</g>
</g>
<!-- pTrunc_is0functor_ptr&#45;&gt;pTrunc_pTr_rec -->
<g id="edge15" class="edge">
<title>pTrunc_is0functor_ptr&#45;&gt;pTrunc_pTr_rec</title>
<path fill="none" stroke="black" d="M405.34,-273.14C377.24,-250.91 326.88,-211.07 295.57,-186.3"/>
<polygon fill="black" stroke="black" points="297.68,-183.5 287.67,-180.04 293.34,-188.99 297.68,-183.5"/>
</g>
<!-- pTrunc_is0functor_ptr&#45;&gt;pTrunc_ptr -->
<g id="edge16" class="edge">
<title>pTrunc_is0functor_ptr&#45;&gt;pTrunc_ptr</title>
<path fill="none" stroke="black" d="M416.82,-272.37C405.37,-251 385.69,-214.28 372.51,-189.69"/>
<polygon fill="black" stroke="black" points="375.45,-187.77 367.64,-180.61 369.28,-191.07 375.45,-187.77"/>
</g>
<!-- pTrunc_pequiv_ptr_rec -->
<g id="node16" class="node">
<title>pTrunc_pequiv_ptr_rec</title>
<g id="a_node16"><a xlink:href="pTrunc.html#pequiv_ptr_rec" xlink:title="pequiv_ptr_rec">
<ellipse fill="#f070d1" stroke="black" cx="491" cy="-163.49" rx="79.11" ry="18"/>
<ellipse fill="none" stroke="black" cx="491" cy="-163.49" rx="83.1" ry="22"/>
<ellipse fill="none" stroke="black" cx="491" cy="-163.49" rx="87.09" ry="26"/>
<text text-anchor="middle" x="491" y="-159.79" font-family="Times,serif" font-size="14.00">pequiv_ptr_rec</text>
</a>
</g>
</g>
<!-- pTrunc_pequiv_ptr_rec&#45;&gt;pTrunc_pTr -->
<g id="edge17" class="edge">
<title>pTrunc_pequiv_ptr_rec&#45;&gt;pTrunc_pTr</title>
<path fill="none" stroke="black" d="M502.63,-137.69C511.35,-119.1 523.24,-93.74 532.04,-74.98"/>
<polygon fill="black" stroke="black" points="535.25,-76.39 536.33,-65.85 528.91,-73.42 535.25,-76.39"/>
</g>
<!-- pTrunc_pTr_ind&#45;&gt;pTrunc_pTr -->
<g id="edge18" class="edge">
<title>pTrunc_pTr_ind&#45;&gt;pTrunc_pTr</title>
<path fill="none" stroke="black" d="M573.17,-272.43C582.54,-244.1 598.15,-185.72 587,-137.49 581.73,-114.7 569.71,-91 559.72,-73.94"/>
<polygon fill="black" stroke="black" points="562.6,-71.94 554.43,-65.2 556.61,-75.56 562.6,-71.94"/>
</g>
<!-- pTrunc_pTr_rec_beta -->
<g id="node18" class="node">
<title>pTrunc_pTr_rec_beta</title>
<g id="a_node18"><a xlink:href="pTrunc.html#pTr_rec_beta" xlink:title="pTr_rec_beta">
<ellipse fill="#f070d1" stroke="black" cx="95" cy="-416.49" rx="70.7" ry="18"/>
<ellipse fill="none" stroke="black" cx="95" cy="-416.49" rx="74.7" ry="22"/>
<ellipse fill="none" stroke="black" cx="95" cy="-416.49" rx="78.69" ry="26"/>
<text text-anchor="middle" x="95" y="-412.79" font-family="Times,serif" font-size="14.00">pTr_rec_beta</text>
</a>
</g>
</g>
<!-- pTrunc_pTr_rec_beta&#45;&gt;pTrunc_pTr_rec_beta_path -->
<g id="edge19" class="edge">
<title>pTrunc_pTr_rec_beta&#45;&gt;pTrunc_pTr_rec_beta_path</title>
<path fill="none" stroke="black" d="M121.66,-391.87C146.58,-369.8 183.56,-337.05 208.44,-315.01"/>
<polygon fill="black" stroke="black" points="210.9,-317.51 216.06,-308.26 206.26,-312.27 210.9,-317.51"/>
</g>
<!-- pTrunc_pTr_rec_beta_path&#45;&gt;pTrunc_pTr_rec -->
<g id="edge20" class="edge">
<title>pTrunc_pTr_rec_beta_path&#45;&gt;pTrunc_pTr_rec</title>
<path fill="none" stroke="black" d="M239.52,-272.37C245.02,-251.54 254.37,-216.12 260.85,-191.58"/>
<polygon fill="black" stroke="black" points="264.26,-192.36 263.43,-181.8 257.49,-190.57 264.26,-192.36"/>
</g>
<!-- pTrunc_pTr_rec_beta_path&#45;&gt;pTrunc_ptr -->
<g id="edge21" class="edge">
<title>pTrunc_pTr_rec_beta_path&#45;&gt;pTrunc_ptr</title>
<path fill="none" stroke="black" d="M251.72,-272.63C273.89,-250.28 313.03,-210.82 337.41,-186.25"/>
<polygon fill="black" stroke="black" points="339.91,-188.7 344.47,-179.14 334.94,-183.77 339.91,-188.7"/>
</g>
<!-- pTrunc_pTr_rec&#45;&gt;pTrunc_pTr -->
<g id="edge22" class="edge">
<title>pTrunc_pTr_rec&#45;&gt;pTrunc_pTr</title>
<path fill="none" stroke="black" d="M296.43,-149.25C304.94,-145.37 314.32,-141.19 323,-137.49 389.44,-109.18 468.24,-78.48 511.5,-61.87"/>
<polygon fill="black" stroke="black" points="512.86,-65.1 520.95,-58.25 510.36,-58.56 512.86,-65.1"/>
</g>
<!-- pTrunc_pequiv_ptr -->
<g id="node21" class="node">
<title>pTrunc_pequiv_ptr</title>
<g id="a_node21"><a xlink:href="pTrunc.html#pequiv_ptr" xlink:title="pequiv_ptr">
<ellipse fill="#f070d1" stroke="black" cx="900" cy="-163.49" rx="60.4" ry="18"/>
<ellipse fill="none" stroke="black" cx="900" cy="-163.49" rx="64.39" ry="22"/>
<ellipse fill="none" stroke="black" cx="900" cy="-163.49" rx="68.39" ry="26"/>
<text text-anchor="middle" x="900" y="-159.79" font-family="Times,serif" font-size="14.00">pequiv_ptr</text>
</a>
</g>
</g>
<!-- pTrunc_pequiv_ptr&#45;&gt;pTrunc_pTr -->
<g id="edge23" class="edge">
<title>pTrunc_pequiv_ptr&#45;&gt;pTrunc_pTr</title>
<path fill="none" stroke="black" d="M849.07,-145.88C840.38,-143.07 831.43,-140.18 823,-137.49 734.57,-109.18 630.16,-76.43 577.69,-60.01"/>
<polygon fill="black" stroke="black" points="578.5,-56.6 567.91,-56.95 576.41,-63.28 578.5,-56.6"/>
</g>
<!-- pTrunc_ptr&#45;&gt;pTrunc_pTr -->
<g id="edge24" class="edge">
<title>pTrunc_ptr&#45;&gt;pTrunc_pTr</title>
<path fill="none" stroke="black" d="M376.77,-149.76C382.53,-145.74 388.98,-141.35 395,-137.49 436.02,-111.18 484.89,-82.87 515.18,-65.67"/>
<polygon fill="black" stroke="black" points="516.98,-68.67 523.96,-60.7 513.53,-62.58 516.98,-68.67"/>
</g>
</g>
</svg>
