<?xml version="1.0" encoding="UTF-8" standalone="no"?>
<!DOCTYPE svg PUBLIC "-//W3C//DTD SVG 1.1//EN"
 "http://www.w3.org/Graphics/SVG/1.1/DTD/svg11.dtd">
<!-- Generated by graphviz version 2.43.0 (0)
 -->
<!-- Title: HoTT_Algebra_AbGroups_AbHom Pages: 1 -->
<svg width="974pt" height="491pt"
 viewBox="0.00 0.00 974.00 491.00" xmlns="http://www.w3.org/2000/svg" xmlns:xlink="http://www.w3.org/1999/xlink">
<g id="graph0" class="graph" transform="scale(1 1) rotate(0) translate(4 487)">
<title>HoTT_Algebra_AbGroups_AbHom</title>
<polygon fill="white" stroke="transparent" points="-4,4 -4,-487 970,-487 970,4 -4,4"/>
<g id="clust1" class="cluster">
<title>cluster_AbHom</title>
<polygon fill="#ffffc3" stroke="black" points="10.72,-8 10.72,-475 955.28,-475 955.28,-8 10.72,-8"/>
<text text-anchor="middle" x="45.22" y="-459.8" font-family="Times,serif" font-size="14.00">AbHom</text>
</g>
<!-- AbHom_isembedding_precompose_surjection_ab -->
<g id="node1" class="node">
<title>AbHom_isembedding_precompose_surjection_ab</title>
<g id="a_node1"><a xlink:href="AbHom.html#isembedding_precompose_surjection_ab" xlink:title="isembedding_precompose_surjection_ab">
<ellipse fill="#f070d1" stroke="black" cx="670.17" cy="-418" rx="196.87" ry="18"/>
<ellipse fill="none" stroke="black" cx="670.17" cy="-418" rx="200.87" ry="22"/>
<ellipse fill="none" stroke="black" cx="670.17" cy="-418" rx="204.87" ry="26"/>
<text text-anchor="middle" x="670.17" y="-414.3" font-family="Times,serif" font-size="14.00">isembedding_precompose_surjection_ab</text>
</a>
</g>
</g>
<!-- AbHom_is0bifunctor_ab_hom -->
<g id="node4" class="node">
<title>AbHom_is0bifunctor_ab_hom</title>
<g id="a_node4"><a xlink:href="AbHom.html#is0bifunctor_ab_hom" xlink:title="is0bifunctor_ab_hom">
<ellipse fill="#f070d1" stroke="black" cx="801.17" cy="-338" rx="106.68" ry="18"/>
<text text-anchor="middle" x="801.17" y="-334.3" font-family="Times,serif" font-size="14.00">is0bifunctor_ab_hom</text>
</a>
</g>
</g>
<!-- AbHom_isembedding_precompose_surjection_ab&#45;&gt;AbHom_is0bifunctor_ab_hom -->
<g id="edge1" class="edge">
<title>AbHom_isembedding_precompose_surjection_ab&#45;&gt;AbHom_is0bifunctor_ab_hom</title>
<path fill="none" stroke="black" d="M711.62,-392.32C728.7,-382.15 748.31,-370.48 764.82,-360.65"/>
<polygon fill="black" stroke="black" points="766.83,-363.52 773.63,-355.4 763.25,-357.51 766.83,-363.52"/>
</g>
<!-- AbHom_abenriched_abgroup -->
<g id="node2" class="node">
<title>AbHom_abenriched_abgroup</title>
<g id="a_node2"><a xlink:href="AbHom.html#abenriched_abgroup" xlink:title="abenriched_abgroup">
<ellipse fill="#f070d1" stroke="black" cx="680.17" cy="-114" rx="105.1" ry="18"/>
<ellipse fill="none" stroke="black" cx="680.17" cy="-114" rx="109.09" ry="22"/>
<ellipse fill="none" stroke="black" cx="680.17" cy="-114" rx="113.08" ry="26"/>
<text text-anchor="middle" x="680.17" y="-110.3" font-family="Times,serif" font-size="14.00">abenriched_abgroup</text>
</a>
</g>
</g>
<!-- AbHom_inverse_hom -->
<g id="node11" class="node">
<title>AbHom_inverse_hom</title>
<g id="a_node11"><a xlink:href="AbHom.html#inverse_hom" xlink:title="inverse_hom">
<ellipse fill="#f070d1" stroke="black" cx="461.17" cy="-34" rx="69.59" ry="18"/>
<text text-anchor="middle" x="461.17" y="-30.3" font-family="Times,serif" font-size="14.00">inverse_hom</text>
</a>
</g>
</g>
<!-- AbHom_abenriched_abgroup&#45;&gt;AbHom_inverse_hom -->
<g id="edge2" class="edge">
<title>AbHom_abenriched_abgroup&#45;&gt;AbHom_inverse_hom</title>
<path fill="none" stroke="black" d="M620.62,-91.79C585.96,-79.44 542.79,-64.07 510.12,-52.43"/>
<polygon fill="black" stroke="black" points="510.93,-49.01 500.34,-48.95 508.58,-55.6 510.93,-49.01"/>
</g>
<!-- AbHom_sgop_hom -->
<g id="node12" class="node">
<title>AbHom_sgop_hom</title>
<g id="a_node12"><a xlink:href="AbHom.html#sgop_hom" xlink:title="sgop_hom">
<ellipse fill="#f070d1" stroke="black" cx="667.17" cy="-34" rx="57.39" ry="18"/>
<text text-anchor="middle" x="667.17" y="-30.3" font-family="Times,serif" font-size="14.00">sgop_hom</text>
</a>
</g>
</g>
<!-- AbHom_abenriched_abgroup&#45;&gt;AbHom_sgop_hom -->
<g id="edge3" class="edge">
<title>AbHom_abenriched_abgroup&#45;&gt;AbHom_sgop_hom</title>
<path fill="none" stroke="black" d="M675.99,-87.89C674.63,-79.75 673.12,-70.68 671.74,-62.38"/>
<polygon fill="black" stroke="black" points="675.17,-61.7 670.08,-52.41 668.27,-62.85 675.17,-61.7"/>
</g>
<!-- AbHom_is1bifunctor_ab_hom -->
<g id="node3" class="node">
<title>AbHom_is1bifunctor_ab_hom</title>
<g id="a_node3"><a xlink:href="AbHom.html#is1bifunctor_ab_hom" xlink:title="is1bifunctor_ab_hom">
<ellipse fill="#f070d1" stroke="black" cx="217.17" cy="-418" rx="106.67" ry="18"/>
<ellipse fill="none" stroke="black" cx="217.17" cy="-418" rx="110.68" ry="22"/>
<ellipse fill="none" stroke="black" cx="217.17" cy="-418" rx="114.68" ry="26"/>
<text text-anchor="middle" x="217.17" y="-414.3" font-family="Times,serif" font-size="14.00">is1bifunctor_ab_hom</text>
</a>
</g>
</g>
<!-- AbHom_is1bifunctor_ab_hom&#45;&gt;AbHom_is0bifunctor_ab_hom -->
<g id="edge4" class="edge">
<title>AbHom_is1bifunctor_ab_hom&#45;&gt;AbHom_is0bifunctor_ab_hom</title>
<path fill="none" stroke="black" d="M314.27,-404.03C424.4,-389.32 602.6,-365.52 710.15,-351.16"/>
<polygon fill="black" stroke="black" points="710.88,-354.59 720.33,-349.8 709.96,-347.65 710.88,-354.59"/>
</g>
<!-- AbHom_is1functor_ab_hom10 -->
<g id="node5" class="node">
<title>AbHom_is1functor_ab_hom10</title>
<g id="a_node5"><a xlink:href="AbHom.html#is1functor_ab_hom10" xlink:title="is1functor_ab_hom10">
<ellipse fill="#f070d1" stroke="black" cx="169.17" cy="-338" rx="109.68" ry="18"/>
<text text-anchor="middle" x="169.17" y="-334.3" font-family="Times,serif" font-size="14.00">is1functor_ab_hom10</text>
</a>
</g>
</g>
<!-- AbHom_is1bifunctor_ab_hom&#45;&gt;AbHom_is1functor_ab_hom10 -->
<g id="edge5" class="edge">
<title>AbHom_is1bifunctor_ab_hom&#45;&gt;AbHom_is1functor_ab_hom10</title>
<path fill="none" stroke="black" d="M201.72,-391.89C196.35,-383.16 190.33,-373.37 184.93,-364.61"/>
<polygon fill="black" stroke="black" points="187.82,-362.61 179.59,-355.93 181.85,-366.28 187.82,-362.61"/>
</g>
<!-- AbHom_is1functor_ab_hom01 -->
<g id="node6" class="node">
<title>AbHom_is1functor_ab_hom01</title>
<g id="a_node6"><a xlink:href="AbHom.html#is1functor_ab_hom01" xlink:title="is1functor_ab_hom01">
<ellipse fill="#f070d1" stroke="black" cx="488.17" cy="-338" rx="109.68" ry="18"/>
<text text-anchor="middle" x="488.17" y="-334.3" font-family="Times,serif" font-size="14.00">is1functor_ab_hom01</text>
</a>
</g>
</g>
<!-- AbHom_is1bifunctor_ab_hom&#45;&gt;AbHom_is1functor_ab_hom01 -->
<g id="edge6" class="edge">
<title>AbHom_is1bifunctor_ab_hom&#45;&gt;AbHom_is1functor_ab_hom01</title>
<path fill="none" stroke="black" d="M286.26,-397.12C329.52,-384.66 384.79,-368.76 426.56,-356.73"/>
<polygon fill="black" stroke="black" points="427.69,-360.05 436.33,-353.92 425.75,-353.32 427.69,-360.05"/>
</g>
<!-- AbHom_is0functor_ab_hom10 -->
<g id="node7" class="node">
<title>AbHom_is0functor_ab_hom10</title>
<g id="a_node7"><a xlink:href="AbHom.html#is0functor_ab_hom10" xlink:title="is0functor_ab_hom10">
<ellipse fill="#f070d1" stroke="black" cx="323.17" cy="-266" rx="109.68" ry="18"/>
<text text-anchor="middle" x="323.17" y="-262.3" font-family="Times,serif" font-size="14.00">is0functor_ab_hom10</text>
</a>
</g>
</g>
<!-- AbHom_is0bifunctor_ab_hom&#45;&gt;AbHom_is0functor_ab_hom10 -->
<g id="edge7" class="edge">
<title>AbHom_is0bifunctor_ab_hom&#45;&gt;AbHom_is0functor_ab_hom10</title>
<path fill="none" stroke="black" d="M723.58,-325.64C638.42,-313.17 501.95,-293.18 412.43,-280.07"/>
<polygon fill="black" stroke="black" points="412.69,-276.57 402.29,-278.59 411.68,-283.5 412.69,-276.57"/>
</g>
<!-- AbHom_is0functor_ab_hom01 -->
<g id="node8" class="node">
<title>AbHom_is0functor_ab_hom01</title>
<g id="a_node8"><a xlink:href="AbHom.html#is0functor_ab_hom01" xlink:title="is0functor_ab_hom01">
<ellipse fill="#f070d1" stroke="black" cx="642.17" cy="-266" rx="109.68" ry="18"/>
<text text-anchor="middle" x="642.17" y="-262.3" font-family="Times,serif" font-size="14.00">is0functor_ab_hom01</text>
</a>
</g>
</g>
<!-- AbHom_is0bifunctor_ab_hom&#45;&gt;AbHom_is0functor_ab_hom01 -->
<g id="edge8" class="edge">
<title>AbHom_is0bifunctor_ab_hom&#45;&gt;AbHom_is0functor_ab_hom01</title>
<path fill="none" stroke="black" d="M764.7,-320.94C741.95,-310.93 712.49,-297.95 688.15,-287.24"/>
<polygon fill="black" stroke="black" points="689.32,-283.93 678.76,-283.11 686.5,-290.34 689.32,-283.93"/>
</g>
<!-- AbHom_is1functor_ab_hom10&#45;&gt;AbHom_is0functor_ab_hom10 -->
<g id="edge9" class="edge">
<title>AbHom_is1functor_ab_hom10&#45;&gt;AbHom_is0functor_ab_hom10</title>
<path fill="none" stroke="black" d="M204.51,-320.94C226.44,-310.97 254.82,-298.07 278.33,-287.38"/>
<polygon fill="black" stroke="black" points="280.09,-290.43 287.74,-283.11 277.19,-284.06 280.09,-290.43"/>
</g>
<!-- AbHom_is1functor_ab_hom01&#45;&gt;AbHom_is0functor_ab_hom01 -->
<g id="edge10" class="edge">
<title>AbHom_is1functor_ab_hom01&#45;&gt;AbHom_is0functor_ab_hom01</title>
<path fill="none" stroke="black" d="M523.51,-320.94C545.44,-310.97 573.82,-298.07 597.33,-287.38"/>
<polygon fill="black" stroke="black" points="599.09,-290.43 606.74,-283.11 596.19,-284.06 599.09,-290.43"/>
</g>
<!-- AbHom_ab_hom -->
<g id="node9" class="node">
<title>AbHom_ab_hom</title>
<g id="a_node9"><a xlink:href="AbHom.html#ab_hom" xlink:title="ab_hom">
<ellipse fill="#f070d1" stroke="black" cx="435.17" cy="-194" rx="46.29" ry="18"/>
<text text-anchor="middle" x="435.17" y="-190.3" font-family="Times,serif" font-size="14.00">ab_hom</text>
</a>
</g>
</g>
<!-- AbHom_is0functor_ab_hom10&#45;&gt;AbHom_ab_hom -->
<g id="edge11" class="edge">
<title>AbHom_is0functor_ab_hom10&#45;&gt;AbHom_ab_hom</title>
<path fill="none" stroke="black" d="M349.72,-248.41C365.8,-238.36 386.42,-225.47 403.37,-214.88"/>
<polygon fill="black" stroke="black" points="405.24,-217.84 411.86,-209.57 401.53,-211.9 405.24,-217.84"/>
</g>
<!-- AbHom_is0functor_ab_hom01&#45;&gt;AbHom_ab_hom -->
<g id="edge12" class="edge">
<title>AbHom_is0functor_ab_hom01&#45;&gt;AbHom_ab_hom</title>
<path fill="none" stroke="black" d="M596.49,-249.55C561.38,-237.68 513.2,-221.39 478.65,-209.7"/>
<polygon fill="black" stroke="black" points="479.44,-206.28 468.85,-206.39 477.2,-212.91 479.44,-206.28"/>
</g>
<!-- AbHom_grp_hom -->
<g id="node10" class="node">
<title>AbHom_grp_hom</title>
<g id="a_node10"><a xlink:href="AbHom.html#grp_hom" xlink:title="grp_hom">
<ellipse fill="#f070d1" stroke="black" cx="435.17" cy="-114" rx="51.19" ry="18"/>
<text text-anchor="middle" x="435.17" y="-110.3" font-family="Times,serif" font-size="14.00">grp_hom</text>
</a>
</g>
</g>
<!-- AbHom_ab_hom&#45;&gt;AbHom_grp_hom -->
<g id="edge13" class="edge">
<title>AbHom_ab_hom&#45;&gt;AbHom_grp_hom</title>
<path fill="none" stroke="black" d="M435.17,-175.69C435.17,-165.89 435.17,-153.42 435.17,-142.33"/>
<polygon fill="black" stroke="black" points="438.67,-142.26 435.17,-132.26 431.67,-142.26 438.67,-142.26"/>
</g>
<!-- AbHom_grp_hom&#45;&gt;AbHom_inverse_hom -->
<g id="edge14" class="edge">
<title>AbHom_grp_hom&#45;&gt;AbHom_inverse_hom</title>
<path fill="none" stroke="black" d="M440.82,-96.08C444.17,-86.03 448.49,-73.06 452.29,-61.66"/>
<polygon fill="black" stroke="black" points="455.61,-62.75 455.45,-52.16 448.97,-60.54 455.61,-62.75"/>
</g>
<!-- AbHom_grp_hom&#45;&gt;AbHom_sgop_hom -->
<g id="edge15" class="edge">
<title>AbHom_grp_hom&#45;&gt;AbHom_sgop_hom</title>
<path fill="none" stroke="black" d="M470.92,-100.98C510.86,-87.56 575.7,-65.76 619.83,-50.92"/>
<polygon fill="black" stroke="black" points="621.1,-54.18 629.47,-47.68 618.87,-47.55 621.1,-54.18"/>
</g>
</g>
</svg>
