<?xml version="1.0" encoding="UTF-8" standalone="no"?>
<!DOCTYPE svg PUBLIC "-//W3C//DTD SVG 1.1//EN"
 "http://www.w3.org/Graphics/SVG/1.1/DTD/svg11.dtd">
<!-- Generated by graphviz version 2.43.0 (0)
 -->
<!-- Title: HoTT_Types_Equiv Pages: 1 -->
<svg width="1435pt" height="722pt"
 viewBox="0.00 0.00 1435.00 721.50" xmlns="http://www.w3.org/2000/svg" xmlns:xlink="http://www.w3.org/1999/xlink">
<g id="graph0" class="graph" transform="scale(1 1) rotate(0) translate(4 717.5)">
<title>HoTT_Types_Equiv</title>
<polygon fill="white" stroke="transparent" points="-4,4 -4,-717.5 1431,-717.5 1431,4 -4,4"/>
<g id="clust1" class="cluster">
<title>cluster_Equiv</title>
<polygon fill="#ffffc3" stroke="black" points="8,-9.22 8,-704.28 1419,-704.28 1419,-9.22 8,-9.22"/>
<text text-anchor="middle" x="37" y="-689.08" font-family="Times,serif" font-size="14.00">Equiv</text>
</g>
<!-- Equiv_transport_equiv__ -->
<g id="node1" class="node">
<title>Equiv_transport_equiv__</title>
<g id="a_node1"><a xlink:href="Equiv.html#transport_equiv''" xlink:title="transport_equiv&#39;&#39;">
<ellipse fill="#f070d1" stroke="black" cx="113" cy="-537.22" rx="89.08" ry="18"/>
<ellipse fill="none" stroke="black" cx="113" cy="-537.22" rx="93.08" ry="22"/>
<ellipse fill="none" stroke="black" cx="113" cy="-537.22" rx="97.08" ry="26"/>
<text text-anchor="middle" x="113" y="-533.52" font-family="Times,serif" font-size="14.00">transport_equiv&#39;&#39;</text>
</a>
</g>
</g>
<!-- Equiv_path_equiv -->
<g id="node16" class="node">
<title>Equiv_path_equiv</title>
<g id="a_node16"><a xlink:href="Equiv.html#path_equiv" xlink:title="path_equiv">
<ellipse fill="#f070d1" stroke="black" cx="689" cy="-435.22" rx="61.99" ry="18"/>
<text text-anchor="middle" x="689" y="-431.52" font-family="Times,serif" font-size="14.00">path_equiv</text>
</a>
</g>
</g>
<!-- Equiv_transport_equiv__&#45;&gt;Equiv_path_equiv -->
<g id="edge1" class="edge">
<title>Equiv_transport_equiv__&#45;&gt;Equiv_path_equiv</title>
<path fill="none" stroke="black" d="M181.77,-518.87C194.12,-516.08 206.9,-513.4 219,-511.22 394.89,-479.55 444.05,-502.25 618,-461.22 626.69,-459.17 635.79,-456.44 644.47,-453.53"/>
<polygon fill="black" stroke="black" points="645.76,-456.79 654.05,-450.2 643.46,-450.18 645.76,-456.79"/>
</g>
<!-- Equiv_transport_equiv_ -->
<g id="node2" class="node">
<title>Equiv_transport_equiv_</title>
<g id="a_node2"><a xlink:href="Equiv.html#transport_equiv'" xlink:title="transport_equiv&#39;">
<ellipse fill="#f070d1" stroke="black" cx="1316" cy="-638.22" rx="87.18" ry="18"/>
<ellipse fill="none" stroke="black" cx="1316" cy="-638.22" rx="91.18" ry="22"/>
<ellipse fill="none" stroke="black" cx="1316" cy="-638.22" rx="95.18" ry="26"/>
<text text-anchor="middle" x="1316" y="-634.52" font-family="Times,serif" font-size="14.00">transport_equiv&#39;</text>
</a>
</g>
</g>
<!-- Equiv_transport_equiv -->
<g id="node3" class="node">
<title>Equiv_transport_equiv</title>
<g id="a_node3"><a xlink:href="Equiv.html#transport_equiv" xlink:title="transport_equiv">
<ellipse fill="#f070d1" stroke="black" cx="1110" cy="-638.22" rx="84.49" ry="18"/>
<ellipse fill="none" stroke="black" cx="1110" cy="-638.22" rx="88.49" ry="22"/>
<ellipse fill="none" stroke="black" cx="1110" cy="-638.22" rx="92.49" ry="26"/>
<text text-anchor="middle" x="1110" y="-634.52" font-family="Times,serif" font-size="14.00">transport_equiv</text>
</a>
</g>
</g>
<!-- Equiv_equiv_total_iff_equiv_fiberwise -->
<g id="node4" class="node">
<title>Equiv_equiv_total_iff_equiv_fiberwise</title>
<g id="a_node4"><a xlink:href="Equiv.html#equiv_total_iff_equiv_fiberwise" xlink:title="equiv_total_iff_equiv_fiberwise">
<ellipse fill="#f070d1" stroke="black" cx="272" cy="-233.22" rx="152.17" ry="18"/>
<ellipse fill="none" stroke="black" cx="272" cy="-233.22" rx="156.17" ry="22"/>
<ellipse fill="none" stroke="black" cx="272" cy="-233.22" rx="160.17" ry="26"/>
<text text-anchor="middle" x="272" y="-229.52" font-family="Times,serif" font-size="14.00">equiv_total_iff_equiv_fiberwise</text>
</a>
</g>
</g>
<!-- Equiv_isequiv_from_functor_sigma -->
<g id="node5" class="node">
<title>Equiv_isequiv_from_functor_sigma</title>
<g id="a_node5"><a xlink:href="Equiv.html#isequiv_from_functor_sigma" xlink:title="isequiv_from_functor_sigma">
<ellipse fill="#f070d1" stroke="black" cx="252" cy="-131.22" rx="140.28" ry="18"/>
<text text-anchor="middle" x="252" y="-127.52" font-family="Times,serif" font-size="14.00">isequiv_from_functor_sigma</text>
</a>
</g>
</g>
<!-- Equiv_equiv_total_iff_equiv_fiberwise&#45;&gt;Equiv_isequiv_from_functor_sigma -->
<g id="edge2" class="edge">
<title>Equiv_equiv_total_iff_equiv_fiberwise&#45;&gt;Equiv_isequiv_from_functor_sigma</title>
<path fill="none" stroke="black" d="M266.95,-206.99C264.05,-192.46 260.4,-174.2 257.43,-159.37"/>
<polygon fill="black" stroke="black" points="260.8,-158.39 255.41,-149.27 253.94,-159.76 260.8,-158.39"/>
</g>
<!-- Equiv_isequiv_contr_map -->
<g id="node23" class="node">
<title>Equiv_isequiv_contr_map</title>
<g id="a_node23"><a xlink:href="Equiv.html#isequiv_contr_map" xlink:title="isequiv_contr_map">
<ellipse fill="#f070d1" stroke="black" cx="252" cy="-39.22" rx="96.68" ry="18"/>
<text text-anchor="middle" x="252" y="-35.52" font-family="Times,serif" font-size="14.00">isequiv_contr_map</text>
</a>
</g>
</g>
<!-- Equiv_isequiv_from_functor_sigma&#45;&gt;Equiv_isequiv_contr_map -->
<g id="edge3" class="edge">
<title>Equiv_isequiv_from_functor_sigma&#45;&gt;Equiv_isequiv_contr_map</title>
<path fill="none" stroke="black" d="M252,-112.87C252,-100.04 252,-82.33 252,-67.6"/>
<polygon fill="black" stroke="black" points="255.5,-67.52 252,-57.52 248.5,-67.52 255.5,-67.52"/>
</g>
<!-- Equiv_contr_map_isequiv -->
<g id="node24" class="node">
<title>Equiv_contr_map_isequiv</title>
<g id="a_node24"><a xlink:href="Equiv.html#contr_map_isequiv" xlink:title="contr_map_isequiv">
<ellipse fill="#f070d1" stroke="black" cx="659" cy="-39.22" rx="96.68" ry="18"/>
<text text-anchor="middle" x="659" y="-35.52" font-family="Times,serif" font-size="14.00">contr_map_isequiv</text>
</a>
</g>
</g>
<!-- Equiv_isequiv_from_functor_sigma&#45;&gt;Equiv_contr_map_isequiv -->
<g id="edge4" class="edge">
<title>Equiv_isequiv_from_functor_sigma&#45;&gt;Equiv_contr_map_isequiv</title>
<path fill="none" stroke="black" d="M319.21,-115.36C393.86,-98.85 513.81,-72.33 589.41,-55.61"/>
<polygon fill="black" stroke="black" points="590.31,-59 599.32,-53.42 588.8,-52.16 590.31,-59"/>
</g>
<!-- Equiv_equiv_equiv_inverse -->
<g id="node6" class="node">
<title>Equiv_equiv_equiv_inverse</title>
<g id="a_node6"><a xlink:href="Equiv.html#equiv_equiv_inverse" xlink:title="equiv_equiv_inverse">
<ellipse fill="#f070d1" stroke="black" cx="645" cy="-638.22" rx="104.77" ry="18"/>
<ellipse fill="none" stroke="black" cx="645" cy="-638.22" rx="108.78" ry="22"/>
<ellipse fill="none" stroke="black" cx="645" cy="-638.22" rx="112.78" ry="26"/>
<text text-anchor="middle" x="645" y="-634.52" font-family="Times,serif" font-size="14.00">equiv_equiv_inverse</text>
</a>
</g>
</g>
<!-- Equiv_isequiv_equiv_inverse -->
<g id="node7" class="node">
<title>Equiv_isequiv_equiv_inverse</title>
<g id="a_node7"><a xlink:href="Equiv.html#isequiv_equiv_inverse" xlink:title="isequiv_equiv_inverse">
<ellipse fill="#f070d1" stroke="black" cx="1057" cy="-537.22" rx="112.38" ry="18"/>
<text text-anchor="middle" x="1057" y="-533.52" font-family="Times,serif" font-size="14.00">isequiv_equiv_inverse</text>
</a>
</g>
</g>
<!-- Equiv_equiv_equiv_inverse&#45;&gt;Equiv_isequiv_equiv_inverse -->
<g id="edge5" class="edge">
<title>Equiv_equiv_equiv_inverse&#45;&gt;Equiv_isequiv_equiv_inverse</title>
<path fill="none" stroke="black" d="M721.05,-618.95C797.22,-600.65 913.45,-572.72 987.29,-554.97"/>
<polygon fill="black" stroke="black" points="988.52,-558.28 997.42,-552.54 986.88,-551.47 988.52,-558.28"/>
</g>
<!-- Equiv_isequiv_equiv_inverse&#45;&gt;Equiv_path_equiv -->
<g id="edge6" class="edge">
<title>Equiv_isequiv_equiv_inverse&#45;&gt;Equiv_path_equiv</title>
<path fill="none" stroke="black" d="M994.02,-522.23C933.37,-508.32 839.27,-485.6 759,-461.22 751.1,-458.82 742.78,-456.06 734.73,-453.27"/>
<polygon fill="black" stroke="black" points="735.7,-449.9 725.11,-449.87 733.37,-456.5 735.7,-449.9"/>
</g>
<!-- Equiv_equiv_functor_equiv -->
<g id="node8" class="node">
<title>Equiv_equiv_functor_equiv</title>
<g id="a_node8"><a xlink:href="Equiv.html#equiv_functor_equiv" xlink:title="equiv_functor_equiv">
<ellipse fill="#f070d1" stroke="black" cx="888" cy="-638.22" rx="103.98" ry="18"/>
<ellipse fill="none" stroke="black" cx="888" cy="-638.22" rx="107.98" ry="22"/>
<ellipse fill="none" stroke="black" cx="888" cy="-638.22" rx="111.98" ry="26"/>
<text text-anchor="middle" x="888" y="-634.52" font-family="Times,serif" font-size="14.00">equiv_functor_equiv</text>
</a>
</g>
</g>
<!-- Equiv_isequiv_functor_equiv -->
<g id="node9" class="node">
<title>Equiv_isequiv_functor_equiv</title>
<g id="a_node9"><a xlink:href="Equiv.html#isequiv_functor_equiv" xlink:title="isequiv_functor_equiv">
<ellipse fill="#f070d1" stroke="black" cx="1299" cy="-537.22" rx="111.58" ry="18"/>
<text text-anchor="middle" x="1299" y="-533.52" font-family="Times,serif" font-size="14.00">isequiv_functor_equiv</text>
</a>
</g>
</g>
<!-- Equiv_equiv_functor_equiv&#45;&gt;Equiv_isequiv_functor_equiv -->
<g id="edge7" class="edge">
<title>Equiv_equiv_functor_equiv&#45;&gt;Equiv_isequiv_functor_equiv</title>
<path fill="none" stroke="black" d="M963.86,-618.95C1039.85,-600.65 1155.8,-572.72 1229.46,-554.97"/>
<polygon fill="black" stroke="black" points="1230.66,-558.28 1239.57,-552.54 1229.03,-551.48 1230.66,-558.28"/>
</g>
<!-- Equiv_functor_equiv -->
<g id="node10" class="node">
<title>Equiv_functor_equiv</title>
<g id="a_node10"><a xlink:href="Equiv.html#functor_equiv" xlink:title="functor_equiv">
<ellipse fill="#f070d1" stroke="black" cx="1299" cy="-435.22" rx="74.19" ry="18"/>
<text text-anchor="middle" x="1299" y="-431.52" font-family="Times,serif" font-size="14.00">functor_equiv</text>
</a>
</g>
</g>
<!-- Equiv_isequiv_functor_equiv&#45;&gt;Equiv_functor_equiv -->
<g id="edge8" class="edge">
<title>Equiv_isequiv_functor_equiv&#45;&gt;Equiv_functor_equiv</title>
<path fill="none" stroke="black" d="M1299,-518.8C1299,-503.6 1299,-481.29 1299,-463.69"/>
<polygon fill="black" stroke="black" points="1302.5,-463.44 1299,-453.44 1295.5,-463.44 1302.5,-463.44"/>
</g>
<!-- Equiv_isequiv_functor_equiv&#45;&gt;Equiv_path_equiv -->
<g id="edge9" class="edge">
<title>Equiv_isequiv_functor_equiv&#45;&gt;Equiv_path_equiv</title>
<path fill="none" stroke="black" d="M1236.39,-522.23C1217.67,-518.33 1197.06,-514.32 1178,-511.22 992.89,-481.11 941.57,-504.14 759,-461.22 750.42,-459.2 741.44,-456.48 732.87,-453.58"/>
<polygon fill="black" stroke="black" points="734.03,-450.27 723.43,-450.25 731.7,-456.88 734.03,-450.27"/>
</g>
<!-- Equiv_contr_aut_hprop -->
<g id="node11" class="node">
<title>Equiv_contr_aut_hprop</title>
<g id="a_node11"><a xlink:href="Equiv.html#contr_aut_hprop" xlink:title="contr_aut_hprop">
<ellipse fill="#f070d1" stroke="black" cx="601" cy="-537.22" rx="86.39" ry="18"/>
<ellipse fill="none" stroke="black" cx="601" cy="-537.22" rx="90.39" ry="22"/>
<ellipse fill="none" stroke="black" cx="601" cy="-537.22" rx="94.38" ry="26"/>
<text text-anchor="middle" x="601" y="-533.52" font-family="Times,serif" font-size="14.00">contr_aut_hprop</text>
</a>
</g>
</g>
<!-- Equiv_contr_aut_hprop&#45;&gt;Equiv_path_equiv -->
<g id="edge10" class="edge">
<title>Equiv_contr_aut_hprop&#45;&gt;Equiv_path_equiv</title>
<path fill="none" stroke="black" d="M622.53,-511.76C636.22,-496.2 653.88,-476.13 667.56,-460.59"/>
<polygon fill="black" stroke="black" points="670.32,-462.74 674.3,-452.92 665.07,-458.12 670.32,-462.74"/>
</g>
<!-- Equiv_contr_equiv_contr_contr -->
<g id="node12" class="node">
<title>Equiv_contr_equiv_contr_contr</title>
<g id="a_node12"><a xlink:href="Equiv.html#contr_equiv_contr_contr" xlink:title="contr_equiv_contr_contr">
<ellipse fill="#f070d1" stroke="black" cx="358" cy="-537.22" rx="122.37" ry="18"/>
<ellipse fill="none" stroke="black" cx="358" cy="-537.22" rx="126.37" ry="22"/>
<ellipse fill="none" stroke="black" cx="358" cy="-537.22" rx="130.38" ry="26"/>
<text text-anchor="middle" x="358" y="-533.52" font-family="Times,serif" font-size="14.00">contr_equiv_contr_contr</text>
</a>
</g>
</g>
<!-- Equiv_contr_equiv_contr_contr&#45;&gt;Equiv_path_equiv -->
<g id="edge11" class="edge">
<title>Equiv_contr_equiv_contr_contr&#45;&gt;Equiv_path_equiv</title>
<path fill="none" stroke="black" d="M432.87,-515.86C485.01,-501.38 556.03,-481.05 618,-461.22 625.88,-458.7 634.2,-455.9 642.26,-453.11"/>
<polygon fill="black" stroke="black" points="643.63,-456.34 651.92,-449.73 641.32,-449.73 643.63,-456.34"/>
</g>
<!-- Equiv_istrunc_equiv -->
<g id="node13" class="node">
<title>Equiv_istrunc_equiv</title>
<g id="a_node13"><a xlink:href="Equiv.html#istrunc_equiv" xlink:title="istrunc_equiv">
<ellipse fill="#f070d1" stroke="black" cx="528" cy="-435.22" rx="73.39" ry="18"/>
<ellipse fill="none" stroke="black" cx="528" cy="-435.22" rx="77.39" ry="22"/>
<ellipse fill="none" stroke="black" cx="528" cy="-435.22" rx="81.39" ry="26"/>
<text text-anchor="middle" x="528" y="-431.52" font-family="Times,serif" font-size="14.00">istrunc_equiv</text>
</a>
</g>
</g>
<!-- Equiv_equiv_path_equiv -->
<g id="node17" class="node">
<title>Equiv_equiv_path_equiv</title>
<g id="a_node17"><a xlink:href="Equiv.html#equiv_path_equiv" xlink:title="equiv_path_equiv">
<ellipse fill="#f070d1" stroke="black" cx="689" cy="-334.22" rx="90.98" ry="18"/>
<text text-anchor="middle" x="689" y="-330.52" font-family="Times,serif" font-size="14.00">equiv_path_equiv</text>
</a>
</g>
</g>
<!-- Equiv_istrunc_equiv&#45;&gt;Equiv_equiv_path_equiv -->
<g id="edge12" class="edge">
<title>Equiv_istrunc_equiv&#45;&gt;Equiv_equiv_path_equiv</title>
<path fill="none" stroke="black" d="M564.53,-411.76C591.21,-395.36 627.17,-373.24 653.58,-357"/>
<polygon fill="black" stroke="black" points="655.46,-359.96 662.14,-351.74 651.79,-353.99 655.46,-359.96"/>
</g>
<!-- Equiv_isequiv_ap_equiv_fun -->
<g id="node14" class="node">
<title>Equiv_isequiv_ap_equiv_fun</title>
<g id="a_node14"><a xlink:href="Equiv.html#isequiv_ap_equiv_fun" xlink:title="isequiv_ap_equiv_fun">
<ellipse fill="#f070d1" stroke="black" cx="885" cy="-435.22" rx="108.58" ry="18"/>
<ellipse fill="none" stroke="black" cx="885" cy="-435.22" rx="112.58" ry="22"/>
<ellipse fill="none" stroke="black" cx="885" cy="-435.22" rx="116.58" ry="26"/>
<text text-anchor="middle" x="885" y="-431.52" font-family="Times,serif" font-size="14.00">isequiv_ap_equiv_fun</text>
</a>
</g>
</g>
<!-- Equiv_isequiv_ap_equiv_fun&#45;&gt;Equiv_equiv_path_equiv -->
<g id="edge13" class="edge">
<title>Equiv_isequiv_ap_equiv_fun&#45;&gt;Equiv_equiv_path_equiv</title>
<path fill="none" stroke="black" d="M839.54,-411.26C806.3,-394.47 761.6,-371.89 729.56,-355.71"/>
<polygon fill="black" stroke="black" points="730.97,-352.5 720.46,-351.11 727.81,-358.75 730.97,-352.5"/>
</g>
<!-- Equiv_isequiv_path_equiv -->
<g id="node15" class="node">
<title>Equiv_isequiv_path_equiv</title>
<g id="a_node15"><a xlink:href="Equiv.html#isequiv_path_equiv" xlink:title="isequiv_path_equiv">
<ellipse fill="#f070d1" stroke="black" cx="820" cy="-537.22" rx="98.6" ry="18"/>
<ellipse fill="none" stroke="black" cx="820" cy="-537.22" rx="102.59" ry="22"/>
<ellipse fill="none" stroke="black" cx="820" cy="-537.22" rx="106.58" ry="26"/>
<text text-anchor="middle" x="820" y="-533.52" font-family="Times,serif" font-size="14.00">isequiv_path_equiv</text>
</a>
</g>
</g>
<!-- Equiv_isequiv_path_equiv&#45;&gt;Equiv_path_equiv -->
<g id="edge14" class="edge">
<title>Equiv_isequiv_path_equiv&#45;&gt;Equiv_path_equiv</title>
<path fill="none" stroke="black" d="M788.62,-512.27C767.2,-495.92 739.02,-474.41 718.1,-458.44"/>
<polygon fill="black" stroke="black" points="719.98,-455.47 709.91,-452.18 715.73,-461.03 719.98,-455.47"/>
</g>
<!-- Equiv_path_equiv&#45;&gt;Equiv_equiv_path_equiv -->
<g id="edge15" class="edge">
<title>Equiv_path_equiv&#45;&gt;Equiv_equiv_path_equiv</title>
<path fill="none" stroke="black" d="M689,-416.98C689,-401.93 689,-379.84 689,-362.41"/>
<polygon fill="black" stroke="black" points="692.5,-362.27 689,-352.27 685.5,-362.27 692.5,-362.27"/>
</g>
<!-- Equiv_hprop_isequiv -->
<g id="node19" class="node">
<title>Equiv_hprop_isequiv</title>
<g id="a_node19"><a xlink:href="Equiv.html#hprop_isequiv" xlink:title="hprop_isequiv">
<ellipse fill="#f070d1" stroke="black" cx="689" cy="-233.22" rx="75.29" ry="18"/>
<text text-anchor="middle" x="689" y="-229.52" font-family="Times,serif" font-size="14.00">hprop_isequiv</text>
</a>
</g>
</g>
<!-- Equiv_equiv_path_equiv&#45;&gt;Equiv_hprop_isequiv -->
<g id="edge16" class="edge">
<title>Equiv_equiv_path_equiv&#45;&gt;Equiv_hprop_isequiv</title>
<path fill="none" stroke="black" d="M689,-315.98C689,-300.93 689,-278.84 689,-261.41"/>
<polygon fill="black" stroke="black" points="692.5,-261.27 689,-251.27 685.5,-261.27 692.5,-261.27"/>
</g>
<!-- Equiv_equiv_contr_map_isequiv -->
<g id="node18" class="node">
<title>Equiv_equiv_contr_map_isequiv</title>
<g id="a_node18"><a xlink:href="Equiv.html#equiv_contr_map_isequiv" xlink:title="equiv_contr_map_isequiv">
<ellipse fill="#f070d1" stroke="black" cx="342" cy="-334.22" rx="126.96" ry="18"/>
<ellipse fill="none" stroke="black" cx="342" cy="-334.22" rx="130.97" ry="22"/>
<ellipse fill="none" stroke="black" cx="342" cy="-334.22" rx="134.98" ry="26"/>
<text text-anchor="middle" x="342" y="-330.52" font-family="Times,serif" font-size="14.00">equiv_contr_map_isequiv</text>
</a>
</g>
</g>
<!-- Equiv_equiv_contr_map_isequiv&#45;&gt;Equiv_hprop_isequiv -->
<g id="edge17" class="edge">
<title>Equiv_equiv_contr_map_isequiv&#45;&gt;Equiv_hprop_isequiv</title>
<path fill="none" stroke="black" d="M415.17,-312.35C480.01,-293.85 573.35,-267.22 632.58,-250.32"/>
<polygon fill="black" stroke="black" points="633.84,-253.6 642.5,-247.49 631.92,-246.87 633.84,-253.6"/>
</g>
<!-- Equiv_equiv_contr_map_isequiv&#45;&gt;Equiv_isequiv_contr_map -->
<g id="edge18" class="edge">
<title>Equiv_equiv_contr_map_isequiv&#45;&gt;Equiv_isequiv_contr_map</title>
<path fill="none" stroke="black" d="M246.85,-315.71C188.11,-302.75 120.69,-283.21 103,-259.22 62.39,-204.13 65.51,-162.48 103,-105.22 119.32,-80.3 147.51,-64.88 175.01,-55.36"/>
<polygon fill="black" stroke="black" points="176.25,-58.64 184.69,-52.23 174.1,-51.98 176.25,-58.64"/>
</g>
<!-- Equiv_contr_sect_equiv -->
<g id="node21" class="node">
<title>Equiv_contr_sect_equiv</title>
<g id="a_node21"><a xlink:href="Equiv.html#contr_sect_equiv" xlink:title="contr_sect_equiv">
<ellipse fill="#f070d1" stroke="black" cx="778" cy="-131.22" rx="88.28" ry="18"/>
<text text-anchor="middle" x="778" y="-127.52" font-family="Times,serif" font-size="14.00">contr_sect_equiv</text>
</a>
</g>
</g>
<!-- Equiv_hprop_isequiv&#45;&gt;Equiv_contr_sect_equiv -->
<g id="edge19" class="edge">
<title>Equiv_hprop_isequiv&#45;&gt;Equiv_contr_sect_equiv</title>
<path fill="none" stroke="black" d="M704.1,-215.26C718.29,-199.31 739.7,-175.25 755.83,-157.13"/>
<polygon fill="black" stroke="black" points="758.79,-159.07 762.83,-149.27 753.57,-154.41 758.79,-159.07"/>
</g>
<!-- Equiv_contr_retr_equiv -->
<g id="node20" class="node">
<title>Equiv_contr_retr_equiv</title>
<g id="a_node20"><a xlink:href="Equiv.html#contr_retr_equiv" xlink:title="contr_retr_equiv">
<ellipse fill="#f070d1" stroke="black" cx="979" cy="-131.22" rx="87.18" ry="18"/>
<ellipse fill="none" stroke="black" cx="979" cy="-131.22" rx="91.18" ry="22"/>
<ellipse fill="none" stroke="black" cx="979" cy="-131.22" rx="95.18" ry="26"/>
<text text-anchor="middle" x="979" y="-127.52" font-family="Times,serif" font-size="14.00">contr_retr_equiv</text>
</a>
</g>
</g>
<!-- Equiv_contr_retr_equiv&#45;&gt;Equiv_contr_map_isequiv -->
<g id="edge20" class="edge">
<title>Equiv_contr_retr_equiv&#45;&gt;Equiv_contr_map_isequiv</title>
<path fill="none" stroke="black" d="M914.24,-112.01C857.39,-96.02 775.31,-72.93 719.7,-57.29"/>
<polygon fill="black" stroke="black" points="720.56,-53.9 709.98,-54.56 718.66,-60.64 720.56,-53.9"/>
</g>
<!-- Equiv_contr_sect_equiv&#45;&gt;Equiv_contr_map_isequiv -->
<g id="edge21" class="edge">
<title>Equiv_contr_sect_equiv&#45;&gt;Equiv_contr_map_isequiv</title>
<path fill="none" stroke="black" d="M756.17,-113.71C737.42,-99.53 710.18,-78.93 689.32,-63.15"/>
<polygon fill="black" stroke="black" points="691.18,-60.17 681.09,-56.93 686.96,-65.75 691.18,-60.17"/>
</g>
<!-- Equiv_isequiv_inhab_codomain -->
<g id="node22" class="node">
<title>Equiv_isequiv_inhab_codomain</title>
<g id="a_node22"><a xlink:href="Equiv.html#isequiv_inhab_codomain" xlink:title="isequiv_inhab_codomain">
<ellipse fill="#f070d1" stroke="black" cx="541" cy="-131.22" rx="122.69" ry="18"/>
<ellipse fill="none" stroke="black" cx="541" cy="-131.22" rx="126.68" ry="22"/>
<ellipse fill="none" stroke="black" cx="541" cy="-131.22" rx="130.68" ry="26"/>
<text text-anchor="middle" x="541" y="-127.52" font-family="Times,serif" font-size="14.00">isequiv_inhab_codomain</text>
</a>
</g>
</g>
<!-- Equiv_isequiv_inhab_codomain&#45;&gt;Equiv_isequiv_contr_map -->
<g id="edge22" class="edge">
<title>Equiv_isequiv_inhab_codomain&#45;&gt;Equiv_isequiv_contr_map</title>
<path fill="none" stroke="black" d="M472.88,-109.01C423.02,-93.48 356.15,-72.65 309.09,-58"/>
<polygon fill="black" stroke="black" points="309.95,-54.6 299.36,-54.97 307.87,-61.28 309.95,-54.6"/>
</g>
<!-- Equiv_isequiv_inhab_codomain&#45;&gt;Equiv_contr_map_isequiv -->
<g id="edge23" class="edge">
<title>Equiv_isequiv_inhab_codomain&#45;&gt;Equiv_contr_map_isequiv</title>
<path fill="none" stroke="black" d="M572.93,-105.87C590.41,-92.53 611.94,-76.12 629.09,-63.03"/>
<polygon fill="black" stroke="black" points="631.29,-65.76 637.12,-56.91 627.05,-60.19 631.29,-65.76"/>
</g>
</g>
</svg>
