<?xml version="1.0" encoding="UTF-8" standalone="no"?>
<!DOCTYPE svg PUBLIC "-//W3C//DTD SVG 1.1//EN"
 "http://www.w3.org/Graphics/SVG/1.1/DTD/svg11.dtd">
<!-- Generated by graphviz version 2.43.0 (0)
 -->
<!-- Title: HoTT_HIT_epi Pages: 1 -->
<svg width="824pt" height="416pt"
 viewBox="0.00 0.00 824.00 416.00" xmlns="http://www.w3.org/2000/svg" xmlns:xlink="http://www.w3.org/1999/xlink">
<g id="graph0" class="graph" transform="scale(1 1) rotate(0) translate(4 412)">
<title>HoTT_HIT_epi</title>
<polygon fill="white" stroke="transparent" points="-4,4 -4,-412 820,-412 820,4 -4,4"/>
<g id="clust1" class="cluster">
<title>cluster_epi</title>
<polygon fill="#ffffc3" stroke="black" points="8,-9.19 8,-398.81 808,-398.81 808,-9.19 8,-9.19"/>
<text text-anchor="middle" x="27" y="-383.61" font-family="Times,serif" font-size="14.00">epi</text>
</g>
<!-- epi_isepi_isequiv -->
<g id="node1" class="node">
<title>epi_isepi_isequiv</title>
<g id="a_node1"><a xlink:href="epi.html#isepi_isequiv" xlink:title="isepi_isequiv">
<ellipse fill="#f070d1" stroke="black" cx="502" cy="-131.19" rx="70.37" ry="18"/>
<ellipse fill="none" stroke="black" cx="502" cy="-131.19" rx="74.38" ry="22"/>
<ellipse fill="none" stroke="black" cx="502" cy="-131.19" rx="78.39" ry="26"/>
<text text-anchor="middle" x="502" y="-127.49" font-family="Times,serif" font-size="14.00">isepi_isequiv</text>
</a>
</g>
</g>
<!-- epi_isepi -->
<g id="node12" class="node">
<title>epi_isepi</title>
<g id="a_node12"><a xlink:href="epi.html#isepi" xlink:title="isepi">
<ellipse fill="#f070d1" stroke="black" cx="422" cy="-39.19" rx="32.49" ry="18"/>
<text text-anchor="middle" x="422" y="-35.49" font-family="Times,serif" font-size="14.00">isepi</text>
</a>
</g>
</g>
<!-- epi_isepi_isequiv&#45;&gt;epi_isepi -->
<g id="edge1" class="edge">
<title>epi_isepi_isequiv&#45;&gt;epi_isepi</title>
<path fill="none" stroke="black" d="M480.56,-106.08C468.76,-92.8 454.18,-76.4 442.52,-63.28"/>
<polygon fill="black" stroke="black" points="444.95,-60.75 435.69,-55.6 439.72,-65.4 444.95,-60.75"/>
</g>
<!-- epi_isepi_issurj -->
<g id="node2" class="node">
<title>epi_isepi_issurj</title>
<g id="a_node2"><a xlink:href="epi.html#isepi_issurj" xlink:title="isepi_issurj">
<ellipse fill="#f070d1" stroke="black" cx="635" cy="-333.19" rx="63.08" ry="18"/>
<ellipse fill="none" stroke="black" cx="635" cy="-333.19" rx="67.09" ry="22"/>
<ellipse fill="none" stroke="black" cx="635" cy="-333.19" rx="71.09" ry="26"/>
<text text-anchor="middle" x="635" y="-329.49" font-family="Times,serif" font-size="14.00">isepi_issurj</text>
</a>
</g>
</g>
<!-- epi_fam -->
<g id="node3" class="node">
<title>epi_fam</title>
<g id="a_node3"><a xlink:href="epi.html#fam" xlink:title="fam">
<ellipse fill="#f070d1" stroke="black" cx="771" cy="-232.19" rx="28.7" ry="18"/>
<text text-anchor="middle" x="771" y="-228.49" font-family="Times,serif" font-size="14.00">fam</text>
</a>
</g>
</g>
<!-- epi_isepi_issurj&#45;&gt;epi_fam -->
<g id="edge2" class="edge">
<title>epi_isepi_issurj&#45;&gt;epi_fam</title>
<path fill="none" stroke="black" d="M665.86,-309.73C689.63,-292.43 722.12,-268.77 744.67,-252.36"/>
<polygon fill="black" stroke="black" points="746.76,-255.17 752.79,-246.45 742.64,-249.51 746.76,-255.17"/>
</g>
<!-- epi_epif -->
<g id="node4" class="node">
<title>epi_epif</title>
<g id="a_node4"><a xlink:href="epi.html#epif" xlink:title="epif">
<ellipse fill="#f070d1" stroke="black" cx="499" cy="-232.19" rx="28.7" ry="18"/>
<text text-anchor="middle" x="499" y="-228.49" font-family="Times,serif" font-size="14.00">epif</text>
</a>
</g>
</g>
<!-- epi_isepi_issurj&#45;&gt;epi_epif -->
<g id="edge3" class="edge">
<title>epi_isepi_issurj&#45;&gt;epi_epif</title>
<path fill="none" stroke="black" d="M604.14,-309.73C580.37,-292.43 547.88,-268.77 525.33,-252.36"/>
<polygon fill="black" stroke="black" points="527.36,-249.51 517.21,-246.45 523.24,-255.17 527.36,-249.51"/>
</g>
<!-- epi_isepi__contr_cone -->
<g id="node7" class="node">
<title>epi_isepi__contr_cone</title>
<g id="a_node7"><a xlink:href="epi.html#isepi'_contr_cone" xlink:title="isepi&#39;_contr_cone">
<ellipse fill="#f070d1" stroke="black" cx="635" cy="-232.19" rx="89.88" ry="18"/>
<text text-anchor="middle" x="635" y="-228.49" font-family="Times,serif" font-size="14.00">isepi&#39;_contr_cone</text>
</a>
</g>
</g>
<!-- epi_isepi_issurj&#45;&gt;epi_isepi__contr_cone -->
<g id="edge4" class="edge">
<title>epi_isepi_issurj&#45;&gt;epi_isepi__contr_cone</title>
<path fill="none" stroke="black" d="M635,-306.96C635,-292.8 635,-275.14 635,-260.64"/>
<polygon fill="black" stroke="black" points="638.5,-260.29 635,-250.29 631.5,-260.29 638.5,-260.29"/>
</g>
<!-- epi_equiv_isepi_isepi_ -->
<g id="node9" class="node">
<title>epi_equiv_isepi_isepi_</title>
<g id="a_node9"><a xlink:href="epi.html#equiv_isepi_isepi'" xlink:title="equiv_isepi_isepi&#39;">
<ellipse fill="#f070d1" stroke="black" cx="689" cy="-131.19" rx="90.98" ry="18"/>
<text text-anchor="middle" x="689" y="-127.49" font-family="Times,serif" font-size="14.00">equiv_isepi_isepi&#39;</text>
</a>
</g>
</g>
<!-- epi_epif&#45;&gt;epi_equiv_isepi_isepi_ -->
<g id="edge5" class="edge">
<title>epi_epif&#45;&gt;epi_equiv_isepi_isepi_</title>
<path fill="none" stroke="black" d="M517.11,-218.2C523.02,-214.17 529.68,-209.83 536,-206.19 571.22,-185.92 612.84,-166.03 643.77,-151.99"/>
<polygon fill="black" stroke="black" points="645.33,-155.13 653.01,-147.83 642.45,-148.75 645.33,-155.13"/>
</g>
<!-- epi_issurj_isepi_funext -->
<g id="node5" class="node">
<title>epi_issurj_isepi_funext</title>
<g id="a_node5"><a xlink:href="epi.html#issurj_isepi_funext" xlink:title="issurj_isepi_funext">
<ellipse fill="#f070d1" stroke="black" cx="241" cy="-232.19" rx="96.7" ry="18"/>
<ellipse fill="none" stroke="black" cx="241" cy="-232.19" rx="100.69" ry="22"/>
<ellipse fill="none" stroke="black" cx="241" cy="-232.19" rx="104.68" ry="26"/>
<text text-anchor="middle" x="241" y="-228.49" font-family="Times,serif" font-size="14.00">issurj_isepi_funext</text>
</a>
</g>
</g>
<!-- epi_issurj_isepi -->
<g id="node6" class="node">
<title>epi_issurj_isepi</title>
<g id="a_node6"><a xlink:href="epi.html#issurj_isepi" xlink:title="issurj_isepi">
<ellipse fill="#f070d1" stroke="black" cx="343" cy="-131.19" rx="63.09" ry="18"/>
<text text-anchor="middle" x="343" y="-127.49" font-family="Times,serif" font-size="14.00">issurj_isepi</text>
</a>
</g>
</g>
<!-- epi_issurj_isepi_funext&#45;&gt;epi_issurj_isepi -->
<g id="edge6" class="edge">
<title>epi_issurj_isepi_funext&#45;&gt;epi_issurj_isepi</title>
<path fill="none" stroke="black" d="M266.21,-206.72C282.23,-191.17 302.86,-171.15 318.7,-155.78"/>
<polygon fill="black" stroke="black" points="321.31,-158.12 326.05,-148.64 316.44,-153.1 321.31,-158.12"/>
</g>
<!-- epi_equiv_isepi_isepi_funext -->
<g id="node8" class="node">
<title>epi_equiv_isepi_isepi_funext</title>
<g id="a_node8"><a xlink:href="epi.html#equiv_isepi_isepi_funext" xlink:title="equiv_isepi_isepi_funext">
<ellipse fill="#f070d1" stroke="black" cx="139" cy="-131.19" rx="122.68" ry="18"/>
<text text-anchor="middle" x="139" y="-127.49" font-family="Times,serif" font-size="14.00">equiv_isepi_isepi_funext</text>
</a>
</g>
</g>
<!-- epi_issurj_isepi_funext&#45;&gt;epi_equiv_isepi_isepi_funext -->
<g id="edge7" class="edge">
<title>epi_issurj_isepi_funext&#45;&gt;epi_equiv_isepi_isepi_funext</title>
<path fill="none" stroke="black" d="M215.79,-206.72C199.97,-191.37 179.66,-171.66 163.9,-156.36"/>
<polygon fill="black" stroke="black" points="166.18,-153.7 156.57,-149.25 161.31,-158.72 166.18,-153.7"/>
</g>
<!-- epi_issurj_isepi&#45;&gt;epi_isepi -->
<g id="edge8" class="edge">
<title>epi_issurj_isepi&#45;&gt;epi_isepi</title>
<path fill="none" stroke="black" d="M357.86,-113.27C370.19,-99.22 387.86,-79.09 401.53,-63.52"/>
<polygon fill="black" stroke="black" points="404.3,-65.67 408.26,-55.84 399.04,-61.05 404.3,-65.67"/>
</g>
<!-- epi_isepi_ -->
<g id="node10" class="node">
<title>epi_isepi_</title>
<g id="a_node10"><a xlink:href="epi.html#isepi'" xlink:title="isepi&#39;">
<ellipse fill="#f070d1" stroke="black" cx="727" cy="-39.19" rx="35.19" ry="18"/>
<text text-anchor="middle" x="727" y="-35.49" font-family="Times,serif" font-size="14.00">isepi&#39;</text>
</a>
</g>
</g>
<!-- epi_isepi__contr_cone&#45;&gt;epi_isepi_ -->
<g id="edge9" class="edge">
<title>epi_isepi__contr_cone&#45;&gt;epi_isepi_</title>
<path fill="none" stroke="black" d="M695.28,-218.78C729.08,-208.41 768.47,-189.84 789,-157.19 801.3,-137.63 797.59,-126.65 789,-105.19 781.99,-87.69 767.77,-72.22 754.72,-60.77"/>
<polygon fill="black" stroke="black" points="756.74,-57.9 746.82,-54.18 752.25,-63.27 756.74,-57.9"/>
</g>
<!-- epi_isepi_funext -->
<g id="node11" class="node">
<title>epi_isepi_funext</title>
<g id="a_node11"><a xlink:href="epi.html#isepi_funext" xlink:title="isepi_funext">
<ellipse fill="#f070d1" stroke="black" cx="139" cy="-39.19" rx="66.89" ry="18"/>
<text text-anchor="middle" x="139" y="-35.49" font-family="Times,serif" font-size="14.00">isepi_funext</text>
</a>
</g>
</g>
<!-- epi_equiv_isepi_isepi_funext&#45;&gt;epi_isepi_funext -->
<g id="edge10" class="edge">
<title>epi_equiv_isepi_isepi_funext&#45;&gt;epi_isepi_funext</title>
<path fill="none" stroke="black" d="M139,-112.84C139,-100.02 139,-82.3 139,-67.58"/>
<polygon fill="black" stroke="black" points="142.5,-67.49 139,-57.49 135.5,-67.49 142.5,-67.49"/>
</g>
<!-- epi_equiv_isepi_isepi_funext&#45;&gt;epi_isepi -->
<g id="edge11" class="edge">
<title>epi_equiv_isepi_isepi_funext&#45;&gt;epi_isepi</title>
<path fill="none" stroke="black" d="M187.97,-114.62C244.03,-96.79 334.6,-67.99 385.06,-51.94"/>
<polygon fill="black" stroke="black" points="386.12,-55.28 394.59,-48.91 384,-48.61 386.12,-55.28"/>
</g>
<!-- epi_equiv_isepi_isepi_&#45;&gt;epi_isepi_ -->
<g id="edge12" class="edge">
<title>epi_equiv_isepi_isepi_&#45;&gt;epi_isepi_</title>
<path fill="none" stroke="black" d="M696.33,-112.84C701.92,-99.6 709.71,-81.15 716.04,-66.15"/>
<polygon fill="black" stroke="black" points="719.29,-67.46 719.95,-56.89 712.84,-64.74 719.29,-67.46"/>
</g>
<!-- epi_equiv_isepi_isepi_&#45;&gt;epi_isepi -->
<g id="edge13" class="edge">
<title>epi_equiv_isepi_isepi_&#45;&gt;epi_isepi</title>
<path fill="none" stroke="black" d="M644.91,-115.33C592.81,-97.77 507.08,-68.87 458.52,-52.51"/>
<polygon fill="black" stroke="black" points="459.63,-49.19 449.04,-49.31 457.4,-55.82 459.63,-49.19"/>
</g>
</g>
</svg>
