<?xml version="1.0" encoding="UTF-8" standalone="no"?>
<!DOCTYPE svg PUBLIC "-//W3C//DTD SVG 1.1//EN"
 "http://www.w3.org/Graphics/SVG/1.1/DTD/svg11.dtd">
<!-- Generated by graphviz version 2.43.0 (0)
 -->
<!-- Title: HoTT_Modalities_Localization Pages: 1 -->
<svg width="1556pt" height="782pt"
 viewBox="0.00 0.00 1556.00 782.00" xmlns="http://www.w3.org/2000/svg" xmlns:xlink="http://www.w3.org/1999/xlink">
<g id="graph0" class="graph" transform="scale(1 1) rotate(0) translate(4 778)">
<title>HoTT_Modalities_Localization</title>
<polygon fill="white" stroke="transparent" points="-4,4 -4,-778 1552,-778 1552,4 -4,4"/>
<g id="clust1" class="cluster">
<title>cluster_Localization</title>
<polygon fill="#ffffc3" stroke="black" points="8.13,-8 8.13,-766 1539.87,-766 1539.87,-8 8.13,-8"/>
<text text-anchor="middle" x="59.13" y="-750.8" font-family="Times,serif" font-size="14.00">Localization</text>
</g>
<g id="clust2" class="cluster">
<title>cluster_Localization_LocalizationHIT</title>
<polygon fill="#ffffa3" stroke="black" points="1164.05,-16 1164.05,-339 1531.75,-339 1531.75,-16 1164.05,-16"/>
<text text-anchor="middle" x="1228.05" y="-323.8" font-family="Times,serif" font-size="14.00">LocalizationHIT</text>
</g>
<!-- Localization_LocalizationHIT_Localize_ind_islocal_localize_beta -->
<g id="node1" class="node">
<title>Localization_LocalizationHIT_Localize_ind_islocal_localize_beta</title>
<g id="a_node1"><a xlink:href="Localization.html#LocalizationHIT.Localize_ind_islocal_localize_beta" xlink:title="Localize_ind_islocal_localize_beta">
<ellipse fill="#facdef" stroke="black" cx="1347.78" cy="-282" rx="165.17" ry="18"/>
<ellipse fill="none" stroke="black" cx="1347.78" cy="-282" rx="169.17" ry="22"/>
<ellipse fill="none" stroke="black" cx="1347.78" cy="-282" rx="173.17" ry="26"/>
<text text-anchor="middle" x="1347.78" y="-278.3" font-family="Times,serif" font-size="14.00">Localize_ind_islocal_localize_beta</text>
</a>
</g>
</g>
<!-- Localization_LocalizationHIT_Localize_ind -->
<g id="node2" class="node">
<title>Localization_LocalizationHIT_Localize_ind</title>
<g id="a_node2"><a xlink:href="Localization.html#LocalizationHIT.Localize_ind" xlink:title="Localize_ind">
<ellipse fill="#f070d1" stroke="black" cx="1252.78" cy="-194" rx="67.69" ry="18"/>
<text text-anchor="middle" x="1252.78" y="-190.3" font-family="Times,serif" font-size="14.00">Localize_ind</text>
</a>
</g>
</g>
<!-- Localization_LocalizationHIT_Localize_ind_islocal_localize_beta&#45;&gt;Localization_LocalizationHIT_Localize_ind -->
<g id="edge1" class="edge">
<title>Localization_LocalizationHIT_Localize_ind_islocal_localize_beta&#45;&gt;Localization_LocalizationHIT_Localize_ind</title>
<path fill="none" stroke="black" d="M1320.3,-256.13C1307.14,-244.21 1291.47,-230.03 1278.54,-218.32"/>
<polygon fill="black" stroke="black" points="1280.65,-215.51 1270.89,-211.4 1275.96,-220.7 1280.65,-215.51"/>
</g>
<!-- Localization_apD_extendable_eq -->
<g id="node27" class="node">
<title>Localization_apD_extendable_eq</title>
<g id="a_node27"><a xlink:href="Localization.html#apD_extendable_eq" xlink:title="apD_extendable_eq">
<ellipse fill="#f070d1" stroke="black" cx="1053.78" cy="-194" rx="100.98" ry="18"/>
<text text-anchor="middle" x="1053.78" y="-190.3" font-family="Times,serif" font-size="14.00">apD_extendable_eq</text>
</a>
</g>
</g>
<!-- Localization_LocalizationHIT_Localize_ind_islocal_localize_beta&#45;&gt;Localization_apD_extendable_eq -->
<g id="edge2" class="edge">
<title>Localization_LocalizationHIT_Localize_ind_islocal_localize_beta&#45;&gt;Localization_apD_extendable_eq</title>
<path fill="none" stroke="black" d="M1271.3,-258.63C1222.16,-244.26 1159.25,-225.85 1113.73,-212.54"/>
<polygon fill="black" stroke="black" points="1114.59,-209.14 1104.01,-209.69 1112.62,-215.86 1114.59,-209.14"/>
</g>
<!-- Localization_LocalizationHIT_islocal_localize -->
<g id="node3" class="node">
<title>Localization_LocalizationHIT_islocal_localize</title>
<g id="a_node3"><a xlink:href="Localization.html#LocalizationHIT.islocal_localize" xlink:title="islocal_localize">
<ellipse fill="#facdef" stroke="black" cx="1252.78" cy="-114" rx="79.09" ry="18"/>
<text text-anchor="middle" x="1252.78" y="-110.3" font-family="Times,serif" font-size="14.00">islocal_localize</text>
</a>
</g>
</g>
<!-- Localization_LocalizationHIT_Localize_ind&#45;&gt;Localization_LocalizationHIT_islocal_localize -->
<g id="edge3" class="edge">
<title>Localization_LocalizationHIT_Localize_ind&#45;&gt;Localization_LocalizationHIT_islocal_localize</title>
<path fill="none" stroke="black" d="M1252.78,-175.69C1252.78,-165.89 1252.78,-153.42 1252.78,-142.33"/>
<polygon fill="black" stroke="black" points="1256.28,-142.26 1252.78,-132.26 1249.28,-142.26 1256.28,-142.26"/>
</g>
<!-- Localization_LocalizationHIT_loc -->
<g id="node4" class="node">
<title>Localization_LocalizationHIT_loc</title>
<g id="a_node4"><a xlink:href="Localization.html#LocalizationHIT.loc" xlink:title="loc">
<ellipse fill="#7faaff" stroke="black" cx="1378.78" cy="-114" rx="27" ry="18"/>
<text text-anchor="middle" x="1378.78" y="-110.3" font-family="Times,serif" font-size="14.00">loc</text>
</a>
</g>
</g>
<!-- Localization_LocalizationHIT_Localize_ind&#45;&gt;Localization_LocalizationHIT_loc -->
<g id="edge4" class="edge">
<title>Localization_LocalizationHIT_Localize_ind&#45;&gt;Localization_LocalizationHIT_loc</title>
<path fill="none" stroke="black" d="M1278.28,-177.22C1299.29,-164.21 1329.06,-145.78 1350.74,-132.35"/>
<polygon fill="black" stroke="black" points="1352.83,-135.18 1359.49,-126.94 1349.15,-129.23 1352.83,-135.18"/>
</g>
<!-- Localization_ooExtendableAlong_Over -->
<g id="node26" class="node">
<title>Localization_ooExtendableAlong_Over</title>
<g id="a_node26"><a xlink:href="Localization.html#ooExtendableAlong_Over" xlink:title="ooExtendableAlong_Over">
<ellipse fill="#f070d1" stroke="black" cx="782.78" cy="-114" rx="127.28" ry="18"/>
<text text-anchor="middle" x="782.78" y="-110.3" font-family="Times,serif" font-size="14.00">ooExtendableAlong_Over</text>
</a>
</g>
</g>
<!-- Localization_LocalizationHIT_Localize_ind&#45;&gt;Localization_ooExtendableAlong_Over -->
<g id="edge5" class="edge">
<title>Localization_LocalizationHIT_Localize_ind&#45;&gt;Localization_ooExtendableAlong_Over</title>
<path fill="none" stroke="black" d="M1216.2,-178.7C1204.98,-174.75 1192.49,-170.78 1180.78,-168 1088.1,-145.98 980.96,-132.36 901.2,-124.46"/>
<polygon fill="black" stroke="black" points="901.41,-120.96 891.12,-123.47 900.73,-127.93 901.41,-120.96"/>
</g>
<!-- Localization_LocalizationHIT_Localize -->
<g id="node5" class="node">
<title>Localization_LocalizationHIT_Localize</title>
<g id="a_node5"><a xlink:href="Localization.html#LocalizationHIT.Localize" xlink:title="Localize">
<ellipse fill="#e2cdfa" stroke="black" cx="1252.78" cy="-42" rx="48.19" ry="18"/>
<text text-anchor="middle" x="1252.78" y="-38.3" font-family="Times,serif" font-size="14.00">Localize</text>
</a>
</g>
</g>
<!-- Localization_LocalizationHIT_islocal_localize&#45;&gt;Localization_LocalizationHIT_Localize -->
<g id="edge6" class="edge">
<title>Localization_LocalizationHIT_islocal_localize&#45;&gt;Localization_LocalizationHIT_Localize</title>
<path fill="none" stroke="black" d="M1252.78,-95.7C1252.78,-87.98 1252.78,-78.71 1252.78,-70.11"/>
<polygon fill="black" stroke="black" points="1256.28,-70.1 1252.78,-60.1 1249.28,-70.1 1256.28,-70.1"/>
</g>
<!-- Localization_O_inverts_O_leq_ -->
<g id="node6" class="node">
<title>Localization_O_inverts_O_leq_</title>
<g id="a_node6"><a xlink:href="Localization.html#O_inverts_O_leq'" xlink:title="O_inverts_O_leq&#39;">
<ellipse fill="#f070d1" stroke="black" cx="1119.78" cy="-621" rx="87.96" ry="18"/>
<ellipse fill="none" stroke="black" cx="1119.78" cy="-621" rx="91.97" ry="22"/>
<ellipse fill="none" stroke="black" cx="1119.78" cy="-621" rx="95.99" ry="26"/>
<text text-anchor="middle" x="1119.78" y="-617.3" font-family="Times,serif" font-size="14.00">O_inverts_O_leq&#39;</text>
</a>
</g>
</g>
<!-- Localization_O_leq_lift_accrsu -->
<g id="node9" class="node">
<title>Localization_O_leq_lift_accrsu</title>
<g id="a_node9"><a xlink:href="Localization.html#O_leq_lift_accrsu" xlink:title="O_leq_lift_accrsu">
<ellipse fill="#f070d1" stroke="black" cx="860.78" cy="-533" rx="89.08" ry="18"/>
<text text-anchor="middle" x="860.78" y="-529.3" font-family="Times,serif" font-size="14.00">O_leq_lift_accrsu</text>
</a>
</g>
</g>
<!-- Localization_O_inverts_O_leq_&#45;&gt;Localization_O_leq_lift_accrsu -->
<g id="edge7" class="edge">
<title>Localization_O_inverts_O_leq_&#45;&gt;Localization_O_leq_lift_accrsu</title>
<path fill="none" stroke="black" d="M1060.68,-600.38C1016.78,-585.8 957.35,-566.07 914.73,-551.91"/>
<polygon fill="black" stroke="black" points="915.68,-548.54 905.09,-548.71 913.48,-555.19 915.68,-548.54"/>
</g>
<!-- Localization_O_eq_lift_accrsu -->
<g id="node10" class="node">
<title>Localization_O_eq_lift_accrsu</title>
<g id="a_node10"><a xlink:href="Localization.html#O_eq_lift_accrsu" xlink:title="O_eq_lift_accrsu">
<ellipse fill="#f070d1" stroke="black" cx="1056.78" cy="-533" rx="85.59" ry="18"/>
<text text-anchor="middle" x="1056.78" y="-529.3" font-family="Times,serif" font-size="14.00">O_eq_lift_accrsu</text>
</a>
</g>
</g>
<!-- Localization_O_inverts_O_leq_&#45;&gt;Localization_O_eq_lift_accrsu -->
<g id="edge8" class="edge">
<title>Localization_O_inverts_O_leq_&#45;&gt;Localization_O_eq_lift_accrsu</title>
<path fill="none" stroke="black" d="M1101.56,-595.13C1093.28,-583.82 1083.49,-570.47 1075.19,-559.13"/>
<polygon fill="black" stroke="black" points="1077.91,-556.92 1069.18,-550.92 1072.26,-561.06 1077.91,-556.92"/>
</g>
<!-- Localization_islocal_loc -->
<g id="node19" class="node">
<title>Localization_islocal_loc</title>
<g id="a_node19"><a xlink:href="Localization.html#islocal_loc" xlink:title="islocal_loc">
<ellipse fill="#f070d1" stroke="black" cx="1220.78" cy="-533" rx="57.69" ry="18"/>
<text text-anchor="middle" x="1220.78" y="-529.3" font-family="Times,serif" font-size="14.00">islocal_loc</text>
</a>
</g>
</g>
<!-- Localization_O_inverts_O_leq_&#45;&gt;Localization_islocal_loc -->
<g id="edge9" class="edge">
<title>Localization_O_inverts_O_leq_&#45;&gt;Localization_islocal_loc</title>
<path fill="none" stroke="black" d="M1147.91,-596.04C1162.26,-583.83 1179.62,-569.05 1193.8,-556.97"/>
<polygon fill="black" stroke="black" points="1196.39,-559.37 1201.73,-550.22 1191.85,-554.04 1196.39,-559.37"/>
</g>
<!-- Localization_conn_map_O_leq_ -->
<g id="node7" class="node">
<title>Localization_conn_map_O_leq_</title>
<g id="a_node7"><a xlink:href="Localization.html#conn_map_O_leq'" xlink:title="conn_map_O_leq&#39;">
<ellipse fill="#f070d1" stroke="black" cx="902.78" cy="-709" rx="89.87" ry="18"/>
<ellipse fill="none" stroke="black" cx="902.78" cy="-709" rx="93.88" ry="22"/>
<ellipse fill="none" stroke="black" cx="902.78" cy="-709" rx="97.88" ry="26"/>
<text text-anchor="middle" x="902.78" y="-705.3" font-family="Times,serif" font-size="14.00">conn_map_O_leq&#39;</text>
</a>
</g>
</g>
<!-- Localization_isconnected_O_leq_ -->
<g id="node8" class="node">
<title>Localization_isconnected_O_leq_</title>
<g id="a_node8"><a xlink:href="Localization.html#isconnected_O_leq'" xlink:title="isconnected_O_leq&#39;">
<ellipse fill="#f070d1" stroke="black" cx="902.78" cy="-621" rx="98.58" ry="18"/>
<text text-anchor="middle" x="902.78" y="-617.3" font-family="Times,serif" font-size="14.00">isconnected_O_leq&#39;</text>
</a>
</g>
</g>
<!-- Localization_conn_map_O_leq_&#45;&gt;Localization_isconnected_O_leq_ -->
<g id="edge10" class="edge">
<title>Localization_conn_map_O_leq_&#45;&gt;Localization_isconnected_O_leq_</title>
<path fill="none" stroke="black" d="M902.78,-682.66C902.78,-672.11 902.78,-659.84 902.78,-649.1"/>
<polygon fill="black" stroke="black" points="906.28,-649 902.78,-639 899.28,-649 906.28,-649"/>
</g>
<!-- Localization_isconnected_O_leq_&#45;&gt;Localization_O_leq_lift_accrsu -->
<g id="edge11" class="edge">
<title>Localization_isconnected_O_leq_&#45;&gt;Localization_O_leq_lift_accrsu</title>
<path fill="none" stroke="black" d="M894.48,-603.01C888.5,-590.76 880.31,-574 873.51,-560.06"/>
<polygon fill="black" stroke="black" points="876.59,-558.41 869.06,-550.96 870.3,-561.48 876.59,-558.41"/>
</g>
<!-- Localization_isconnected_O_leq_&#45;&gt;Localization_O_eq_lift_accrsu -->
<g id="edge12" class="edge">
<title>Localization_isconnected_O_leq_&#45;&gt;Localization_O_eq_lift_accrsu</title>
<path fill="none" stroke="black" d="M932.11,-603.62C956.88,-589.79 992.52,-569.89 1019.35,-554.9"/>
<polygon fill="black" stroke="black" points="1021.06,-557.96 1028.08,-550.03 1017.64,-551.85 1021.06,-557.96"/>
</g>
<!-- Localization_lift_accrsu -->
<g id="node11" class="node">
<title>Localization_lift_accrsu</title>
<g id="a_node11"><a xlink:href="Localization.html#lift_accrsu" xlink:title="lift_accrsu">
<ellipse fill="#f070d1" stroke="black" cx="861.78" cy="-445" rx="58.49" ry="18"/>
<text text-anchor="middle" x="861.78" y="-441.3" font-family="Times,serif" font-size="14.00">lift_accrsu</text>
</a>
</g>
</g>
<!-- Localization_O_leq_lift_accrsu&#45;&gt;Localization_lift_accrsu -->
<g id="edge13" class="edge">
<title>Localization_O_leq_lift_accrsu&#45;&gt;Localization_lift_accrsu</title>
<path fill="none" stroke="black" d="M860.98,-514.6C861.12,-502.75 861.3,-486.82 861.46,-473.29"/>
<polygon fill="black" stroke="black" points="864.96,-473.12 861.58,-463.08 857.96,-473.04 864.96,-473.12"/>
</g>
<!-- Localization_O_eq_lift_accrsu&#45;&gt;Localization_lift_accrsu -->
<g id="edge14" class="edge">
<title>Localization_O_eq_lift_accrsu&#45;&gt;Localization_lift_accrsu</title>
<path fill="none" stroke="black" d="M1021.47,-516.43C988.26,-501.78 938.54,-479.85 903.41,-464.36"/>
<polygon fill="black" stroke="black" points="904.48,-461.01 893.92,-460.17 901.66,-467.41 904.48,-461.01"/>
</g>
<!-- Localization_Loc -->
<g id="node21" class="node">
<title>Localization_Loc</title>
<g id="a_node21"><a xlink:href="Localization.html#Loc" xlink:title="Loc">
<ellipse fill="#f070d1" stroke="black" cx="715.78" cy="-365" rx="27" ry="18"/>
<text text-anchor="middle" x="715.78" y="-361.3" font-family="Times,serif" font-size="14.00">Loc</text>
</a>
</g>
</g>
<!-- Localization_lift_accrsu&#45;&gt;Localization_Loc -->
<g id="edge15" class="edge">
<title>Localization_lift_accrsu&#45;&gt;Localization_Loc</title>
<path fill="none" stroke="black" d="M833.97,-429.15C808.63,-415.6 771.29,-395.66 745.39,-381.82"/>
<polygon fill="black" stroke="black" points="746.88,-378.65 736.41,-377.02 743.58,-384.82 746.88,-378.65"/>
</g>
<!-- Localization_accrsu_loc -->
<g id="node12" class="node">
<title>Localization_accrsu_loc</title>
<g id="a_node12"><a xlink:href="Localization.html#accrsu_loc" xlink:title="accrsu_loc">
<ellipse fill="#f070d1" stroke="black" cx="715.78" cy="-445" rx="58.49" ry="18"/>
<ellipse fill="none" stroke="black" cx="715.78" cy="-445" rx="62.49" ry="22"/>
<ellipse fill="none" stroke="black" cx="715.78" cy="-445" rx="66.49" ry="26"/>
<text text-anchor="middle" x="715.78" y="-441.3" font-family="Times,serif" font-size="14.00">accrsu_loc</text>
</a>
</g>
</g>
<!-- Localization_accrsu_loc&#45;&gt;Localization_Loc -->
<g id="edge16" class="edge">
<title>Localization_accrsu_loc&#45;&gt;Localization_Loc</title>
<path fill="none" stroke="black" d="M715.78,-418.89C715.78,-410.84 715.78,-401.88 715.78,-393.66"/>
<polygon fill="black" stroke="black" points="719.28,-393.41 715.78,-383.41 712.28,-393.41 719.28,-393.41"/>
</g>
<!-- Localization_local_indpaths_beta -->
<g id="node13" class="node">
<title>Localization_local_indpaths_beta</title>
<g id="a_node13"><a xlink:href="Localization.html#local_indpaths_beta" xlink:title="local_indpaths_beta">
<ellipse fill="#f070d1" stroke="black" cx="672.78" cy="-621" rx="102.08" ry="18"/>
<ellipse fill="none" stroke="black" cx="672.78" cy="-621" rx="106.08" ry="22"/>
<ellipse fill="none" stroke="black" cx="672.78" cy="-621" rx="110.08" ry="26"/>
<text text-anchor="middle" x="672.78" y="-617.3" font-family="Times,serif" font-size="14.00">local_indpaths_beta</text>
</a>
</g>
</g>
<!-- Localization_local_indpaths -->
<g id="node14" class="node">
<title>Localization_local_indpaths</title>
<g id="a_node14"><a xlink:href="Localization.html#local_indpaths" xlink:title="local_indpaths">
<ellipse fill="#f070d1" stroke="black" cx="672.78" cy="-533" rx="77.19" ry="18"/>
<text text-anchor="middle" x="672.78" y="-529.3" font-family="Times,serif" font-size="14.00">local_indpaths</text>
</a>
</g>
</g>
<!-- Localization_local_indpaths_beta&#45;&gt;Localization_local_indpaths -->
<g id="edge17" class="edge">
<title>Localization_local_indpaths_beta&#45;&gt;Localization_local_indpaths</title>
<path fill="none" stroke="black" d="M672.78,-594.66C672.78,-584.11 672.78,-571.84 672.78,-561.1"/>
<polygon fill="black" stroke="black" points="676.28,-561 672.78,-551 669.28,-561 676.28,-561"/>
</g>
<!-- Localization_ooextendable_islocal -->
<g id="node20" class="node">
<title>Localization_ooextendable_islocal</title>
<g id="a_node20"><a xlink:href="Localization.html#ooextendable_islocal" xlink:title="ooextendable_islocal">
<ellipse fill="#f070d1" stroke="black" cx="521.78" cy="-445" rx="106.68" ry="18"/>
<text text-anchor="middle" x="521.78" y="-441.3" font-family="Times,serif" font-size="14.00">ooextendable_islocal</text>
</a>
</g>
</g>
<!-- Localization_local_indpaths&#45;&gt;Localization_ooextendable_islocal -->
<g id="edge18" class="edge">
<title>Localization_local_indpaths&#45;&gt;Localization_ooextendable_islocal</title>
<path fill="none" stroke="black" d="M644.73,-516.03C620.78,-502.38 586.1,-482.63 559.68,-467.58"/>
<polygon fill="black" stroke="black" points="561.13,-464.38 550.71,-462.47 557.66,-470.46 561.13,-464.38"/>
</g>
<!-- Localization_local_rec_beta -->
<g id="node15" class="node">
<title>Localization_local_rec_beta</title>
<g id="a_node15"><a xlink:href="Localization.html#local_rec_beta" xlink:title="local_rec_beta">
<ellipse fill="#f070d1" stroke="black" cx="456.78" cy="-621" rx="76.08" ry="18"/>
<ellipse fill="none" stroke="black" cx="456.78" cy="-621" rx="80.08" ry="22"/>
<ellipse fill="none" stroke="black" cx="456.78" cy="-621" rx="84.09" ry="26"/>
<text text-anchor="middle" x="456.78" y="-617.3" font-family="Times,serif" font-size="14.00">local_rec_beta</text>
</a>
</g>
</g>
<!-- Localization_local_rec -->
<g id="node16" class="node">
<title>Localization_local_rec</title>
<g id="a_node16"><a xlink:href="Localization.html#local_rec" xlink:title="local_rec">
<ellipse fill="#f070d1" stroke="black" cx="522.78" cy="-533" rx="51.19" ry="18"/>
<text text-anchor="middle" x="522.78" y="-529.3" font-family="Times,serif" font-size="14.00">local_rec</text>
</a>
</g>
</g>
<!-- Localization_local_rec_beta&#45;&gt;Localization_local_rec -->
<g id="edge19" class="edge">
<title>Localization_local_rec_beta&#45;&gt;Localization_local_rec</title>
<path fill="none" stroke="black" d="M475.52,-595.59C484.41,-584 495.01,-570.18 503.92,-558.57"/>
<polygon fill="black" stroke="black" points="506.75,-560.64 510.06,-550.57 501.2,-556.37 506.75,-560.64"/>
</g>
<!-- Localization_local_rec&#45;&gt;Localization_ooextendable_islocal -->
<g id="edge20" class="edge">
<title>Localization_local_rec&#45;&gt;Localization_ooextendable_islocal</title>
<path fill="none" stroke="black" d="M522.58,-514.6C522.44,-502.75 522.25,-486.82 522.1,-473.29"/>
<polygon fill="black" stroke="black" points="525.59,-473.04 521.98,-463.08 518.59,-473.12 525.59,-473.04"/>
</g>
<!-- Localization_Localize_rec -->
<g id="node17" class="node">
<title>Localization_Localize_rec</title>
<g id="a_node17"><a xlink:href="Localization.html#Localize_rec" xlink:title="Localize_rec">
<ellipse fill="#f070d1" stroke="black" cx="375.78" cy="-533" rx="67.68" ry="18"/>
<ellipse fill="none" stroke="black" cx="375.78" cy="-533" rx="71.68" ry="22"/>
<ellipse fill="none" stroke="black" cx="375.78" cy="-533" rx="75.69" ry="26"/>
<text text-anchor="middle" x="375.78" y="-529.3" font-family="Times,serif" font-size="14.00">Localize_rec</text>
</a>
</g>
</g>
<!-- Localization_Localize_rec&#45;&gt;Localization_ooextendable_islocal -->
<g id="edge21" class="edge">
<title>Localization_Localize_rec&#45;&gt;Localization_ooextendable_islocal</title>
<path fill="none" stroke="black" d="M413,-510.08C435.13,-497.04 463.08,-480.58 485.11,-467.6"/>
<polygon fill="black" stroke="black" points="487.01,-470.54 493.85,-462.45 483.46,-464.51 487.01,-470.54"/>
</g>
<!-- Localization_isequiv_precomp_islocal -->
<g id="node18" class="node">
<title>Localization_isequiv_precomp_islocal</title>
<g id="a_node18"><a xlink:href="Localization.html#isequiv_precomp_islocal" xlink:title="isequiv_precomp_islocal">
<ellipse fill="#f070d1" stroke="black" cx="148.78" cy="-533" rx="122.37" ry="18"/>
<ellipse fill="none" stroke="black" cx="148.78" cy="-533" rx="126.37" ry="22"/>
<ellipse fill="none" stroke="black" cx="148.78" cy="-533" rx="130.38" ry="26"/>
<text text-anchor="middle" x="148.78" y="-529.3" font-family="Times,serif" font-size="14.00">isequiv_precomp_islocal</text>
</a>
</g>
</g>
<!-- Localization_isequiv_precomp_islocal&#45;&gt;Localization_ooextendable_islocal -->
<g id="edge22" class="edge">
<title>Localization_isequiv_precomp_islocal&#45;&gt;Localization_ooextendable_islocal</title>
<path fill="none" stroke="black" d="M231.56,-512.91C297.67,-497.67 389.27,-476.55 451.77,-462.14"/>
<polygon fill="black" stroke="black" points="452.59,-465.55 461.54,-459.89 451.01,-458.72 452.59,-465.55"/>
</g>
<!-- Localization_islocal_loc&#45;&gt;Localization_Loc -->
<g id="edge23" class="edge">
<title>Localization_islocal_loc&#45;&gt;Localization_Loc</title>
<path fill="none" stroke="black" d="M1188.41,-517.93C1135.04,-495.09 1024.91,-449.43 928.78,-419 867.19,-399.51 793.77,-382.59 751.19,-373.38"/>
<polygon fill="black" stroke="black" points="751.82,-369.94 741.31,-371.27 750.36,-376.78 751.82,-369.94"/>
</g>
<!-- Localization_ooextendable_islocal&#45;&gt;Localization_Loc -->
<g id="edge24" class="edge">
<title>Localization_ooextendable_islocal&#45;&gt;Localization_Loc</title>
<path fill="none" stroke="black" d="M561.04,-428.22C597.21,-413.67 650.24,-392.35 683.87,-378.83"/>
<polygon fill="black" stroke="black" points="685.26,-382.04 693.23,-375.07 682.65,-375.55 685.26,-382.04"/>
</g>
<!-- Localization_ext_localize_ind -->
<g id="node22" class="node">
<title>Localization_ext_localize_ind</title>
<g id="a_node22"><a xlink:href="Localization.html#ext_localize_ind" xlink:title="ext_localize_ind">
<ellipse fill="#f070d1" stroke="black" cx="844.78" cy="-282" rx="83.39" ry="18"/>
<text text-anchor="middle" x="844.78" y="-278.3" font-family="Times,serif" font-size="14.00">ext_localize_ind</text>
</a>
</g>
</g>
<!-- Localization_Loc&#45;&gt;Localization_ext_localize_ind -->
<g id="edge25" class="edge">
<title>Localization_Loc&#45;&gt;Localization_ext_localize_ind</title>
<path fill="none" stroke="black" d="M734.81,-352.05C754.66,-339.58 786.2,-319.78 810.42,-304.57"/>
<polygon fill="black" stroke="black" points="812.37,-307.48 818.98,-299.2 808.65,-301.55 812.37,-307.48"/>
</g>
<!-- Localization_islocal_equiv_islocal -->
<g id="node23" class="node">
<title>Localization_islocal_equiv_islocal</title>
<g id="a_node23"><a xlink:href="Localization.html#islocal_equiv_islocal" xlink:title="islocal_equiv_islocal">
<ellipse fill="#f070d1" stroke="black" cx="361.78" cy="-282" rx="103.18" ry="18"/>
<text text-anchor="middle" x="361.78" y="-278.3" font-family="Times,serif" font-size="14.00">islocal_equiv_islocal</text>
</a>
</g>
</g>
<!-- Localization_Loc&#45;&gt;Localization_islocal_equiv_islocal -->
<g id="edge26" class="edge">
<title>Localization_Loc&#45;&gt;Localization_islocal_equiv_islocal</title>
<path fill="none" stroke="black" d="M688.8,-364.16C644.07,-363.76 552.11,-360.15 477.78,-339 449.61,-330.99 419.91,-316.52 397.61,-304.29"/>
<polygon fill="black" stroke="black" points="399.27,-301.21 388.84,-299.39 395.86,-307.33 399.27,-301.21"/>
</g>
<!-- Localization_ooextendable_over_const -->
<g id="node25" class="node">
<title>Localization_ooextendable_over_const</title>
<g id="a_node25"><a xlink:href="Localization.html#ooextendable_over_const" xlink:title="ooextendable_over_const">
<ellipse fill="#f070d1" stroke="black" cx="613.78" cy="-282" rx="126.98" ry="18"/>
<text text-anchor="middle" x="613.78" y="-278.3" font-family="Times,serif" font-size="14.00">ooextendable_over_const</text>
</a>
</g>
</g>
<!-- Localization_Loc&#45;&gt;Localization_ooextendable_over_const -->
<g id="edge27" class="edge">
<title>Localization_Loc&#45;&gt;Localization_ooextendable_over_const</title>
<path fill="none" stroke="black" d="M698.94,-350.62C683.73,-338.54 661.01,-320.51 642.87,-306.1"/>
<polygon fill="black" stroke="black" points="644.9,-303.25 634.89,-299.77 640.55,-308.73 644.9,-303.25"/>
</g>
<!-- Localization_ext_localize_ind&#45;&gt;Localization_LocalizationHIT_Localize_ind -->
<g id="edge28" class="edge">
<title>Localization_ext_localize_ind&#45;&gt;Localization_LocalizationHIT_Localize_ind</title>
<path fill="none" stroke="black" d="M913.35,-271.73C981.74,-261.74 1089.46,-243.99 1180.78,-220 1189.06,-217.83 1197.75,-215.15 1206.12,-212.37"/>
<polygon fill="black" stroke="black" points="1207.42,-215.63 1215.75,-209.09 1205.15,-209.01 1207.42,-215.63"/>
</g>
<!-- Localization_ooextendable_over_homotopy -->
<g id="node24" class="node">
<title>Localization_ooextendable_over_homotopy</title>
<g id="a_node24"><a xlink:href="Localization.html#ooextendable_over_homotopy" xlink:title="ooextendable_over_homotopy">
<ellipse fill="#f070d1" stroke="black" cx="782.78" cy="-194" rx="147.57" ry="18"/>
<text text-anchor="middle" x="782.78" y="-190.3" font-family="Times,serif" font-size="14.00">ooextendable_over_homotopy</text>
</a>
</g>
</g>
<!-- Localization_ext_localize_ind&#45;&gt;Localization_ooextendable_over_homotopy -->
<g id="edge29" class="edge">
<title>Localization_ext_localize_ind&#45;&gt;Localization_ooextendable_over_homotopy</title>
<path fill="none" stroke="black" d="M832.53,-264.01C823.53,-251.52 811.15,-234.35 800.99,-220.26"/>
<polygon fill="black" stroke="black" points="803.69,-218.02 795,-211.96 798.01,-222.11 803.69,-218.02"/>
</g>
<!-- Localization_ooextendable_over_homotopy&#45;&gt;Localization_ooExtendableAlong_Over -->
<g id="edge30" class="edge">
<title>Localization_ooextendable_over_homotopy&#45;&gt;Localization_ooExtendableAlong_Over</title>
<path fill="none" stroke="black" d="M782.78,-175.69C782.78,-165.89 782.78,-153.42 782.78,-142.33"/>
<polygon fill="black" stroke="black" points="786.28,-142.26 782.78,-132.26 779.28,-142.26 786.28,-142.26"/>
</g>
<!-- Localization_extendable_over_postcompose_ -->
<g id="node30" class="node">
<title>Localization_extendable_over_postcompose_</title>
<g id="a_node30"><a xlink:href="Localization.html#extendable_over_postcompose'" xlink:title="extendable_over_postcompose&#39;">
<ellipse fill="#f070d1" stroke="black" cx="455.78" cy="-114" rx="154.07" ry="18"/>
<text text-anchor="middle" x="455.78" y="-110.3" font-family="Times,serif" font-size="14.00">extendable_over_postcompose&#39;</text>
</a>
</g>
</g>
<!-- Localization_ooextendable_over_homotopy&#45;&gt;Localization_extendable_over_postcompose_ -->
<g id="edge31" class="edge">
<title>Localization_ooextendable_over_homotopy&#45;&gt;Localization_extendable_over_postcompose_</title>
<path fill="none" stroke="black" d="M718.57,-177.68C664.52,-164.79 587.19,-146.35 530.4,-132.8"/>
<polygon fill="black" stroke="black" points="530.94,-129.33 520.41,-130.42 529.32,-136.14 530.94,-129.33"/>
</g>
<!-- Localization_ooextendable_over_const&#45;&gt;Localization_ooExtendableAlong_Over -->
<g id="edge32" class="edge">
<title>Localization_ooextendable_over_const&#45;&gt;Localization_ooExtendableAlong_Over</title>
<path fill="none" stroke="black" d="M610.39,-263.96C606.63,-239.82 603.7,-195.56 625.78,-168 640.27,-149.91 661.2,-137.96 683.07,-130.07"/>
<polygon fill="black" stroke="black" points="684.44,-133.3 692.82,-126.83 682.23,-126.66 684.44,-133.3"/>
</g>
<!-- Localization_extendable_over_const -->
<g id="node28" class="node">
<title>Localization_extendable_over_const</title>
<g id="a_node28"><a xlink:href="Localization.html#extendable_over_const" xlink:title="extendable_over_const">
<ellipse fill="#f070d1" stroke="black" cx="133.78" cy="-194" rx="116.18" ry="18"/>
<text text-anchor="middle" x="133.78" y="-190.3" font-family="Times,serif" font-size="14.00">extendable_over_const</text>
</a>
</g>
</g>
<!-- Localization_ooextendable_over_const&#45;&gt;Localization_extendable_over_const -->
<g id="edge33" class="edge">
<title>Localization_ooextendable_over_const&#45;&gt;Localization_extendable_over_const</title>
<path fill="none" stroke="black" d="M538.59,-267.49C517.62,-263.74 494.82,-259.69 473.78,-256 380.94,-239.72 357.52,-236.84 264.78,-220 248.02,-216.96 230.08,-213.6 213.01,-210.36"/>
<polygon fill="black" stroke="black" points="213.56,-206.9 203.08,-208.47 212.25,-213.78 213.56,-206.9"/>
</g>
<!-- Localization_ExtendableAlong_Over -->
<g id="node31" class="node">
<title>Localization_ExtendableAlong_Over</title>
<g id="a_node31"><a xlink:href="Localization.html#ExtendableAlong_Over" xlink:title="ExtendableAlong_Over">
<ellipse fill="#f070d1" stroke="black" cx="782.78" cy="-42" rx="116.18" ry="18"/>
<text text-anchor="middle" x="782.78" y="-38.3" font-family="Times,serif" font-size="14.00">ExtendableAlong_Over</text>
</a>
</g>
</g>
<!-- Localization_ooExtendableAlong_Over&#45;&gt;Localization_ExtendableAlong_Over -->
<g id="edge34" class="edge">
<title>Localization_ooExtendableAlong_Over&#45;&gt;Localization_ExtendableAlong_Over</title>
<path fill="none" stroke="black" d="M782.78,-95.7C782.78,-87.98 782.78,-78.71 782.78,-70.11"/>
<polygon fill="black" stroke="black" points="786.28,-70.1 782.78,-60.1 779.28,-70.1 786.28,-70.1"/>
</g>
<!-- Localization_apD_extendable_eq&#45;&gt;Localization_ExtendableAlong_Over -->
<g id="edge35" class="edge">
<title>Localization_apD_extendable_eq&#45;&gt;Localization_ExtendableAlong_Over</title>
<path fill="none" stroke="black" d="M1033.8,-176.17C1008.35,-155.33 962.41,-119.68 918.78,-96 894.1,-82.61 865.31,-70.88 840.59,-61.88"/>
<polygon fill="black" stroke="black" points="841.58,-58.52 830.98,-58.45 839.22,-65.11 841.58,-58.52"/>
</g>
<!-- Localization_extendable_over_const&#45;&gt;Localization_extendable_over_postcompose_ -->
<g id="edge36" class="edge">
<title>Localization_extendable_over_const&#45;&gt;Localization_extendable_over_postcompose_</title>
<path fill="none" stroke="black" d="M193.59,-178.51C246.86,-165.61 325,-146.68 382.11,-132.85"/>
<polygon fill="black" stroke="black" points="383.26,-136.17 392.16,-130.41 381.61,-129.36 383.26,-136.17"/>
</g>
<!-- Localization_extendable_over_postcompose -->
<g id="node29" class="node">
<title>Localization_extendable_over_postcompose</title>
<g id="a_node29"><a xlink:href="Localization.html#extendable_over_postcompose" xlink:title="extendable_over_postcompose">
<ellipse fill="#f070d1" stroke="black" cx="432.78" cy="-194" rx="151.38" ry="18"/>
<ellipse fill="none" stroke="black" cx="432.78" cy="-194" rx="155.37" ry="22"/>
<ellipse fill="none" stroke="black" cx="432.78" cy="-194" rx="159.37" ry="26"/>
<text text-anchor="middle" x="432.78" y="-190.3" font-family="Times,serif" font-size="14.00">extendable_over_postcompose</text>
</a>
</g>
</g>
<!-- Localization_extendable_over_postcompose&#45;&gt;Localization_extendable_over_postcompose_ -->
<g id="edge37" class="edge">
<title>Localization_extendable_over_postcompose&#45;&gt;Localization_extendable_over_postcompose_</title>
<path fill="none" stroke="black" d="M440.18,-167.89C442.61,-159.66 445.32,-150.48 447.79,-142.1"/>
<polygon fill="black" stroke="black" points="451.17,-142.99 450.65,-132.41 444.46,-141.01 451.17,-142.99"/>
</g>
<!-- Localization_extendable_over_postcompose_&#45;&gt;Localization_ExtendableAlong_Over -->
<g id="edge38" class="edge">
<title>Localization_extendable_over_postcompose_&#45;&gt;Localization_ExtendableAlong_Over</title>
<path fill="none" stroke="black" d="M526.33,-97.9C579.8,-86.45 653.12,-70.76 707.68,-59.08"/>
<polygon fill="black" stroke="black" points="708.59,-62.46 717.63,-56.95 707.12,-55.62 708.59,-62.46"/>
</g>
</g>
</svg>
