<?xml version="1.0" encoding="UTF-8" standalone="no"?>
<!DOCTYPE svg PUBLIC "-//W3C//DTD SVG 1.1//EN"
 "http://www.w3.org/Graphics/SVG/1.1/DTD/svg11.dtd">
<!-- Generated by graphviz version 2.43.0 (0)
 -->
<!-- Title: HoTT_Algebra_Groups_Commutator Pages: 1 -->
<svg width="2981pt" height="1495pt"
 viewBox="0.00 0.00 2981.00 1494.50" xmlns="http://www.w3.org/2000/svg" xmlns:xlink="http://www.w3.org/1999/xlink">
<g id="graph0" class="graph" transform="scale(1 1) rotate(0) translate(4 1490.5)">
<title>HoTT_Algebra_Groups_Commutator</title>
<polygon fill="white" stroke="transparent" points="-4,4 -4,-1490.5 2977,-1490.5 2977,4 -4,4"/>
<g id="clust1" class="cluster">
<title>cluster_Commutator</title>
<polygon fill="#ffffc3" stroke="black" points="8,-15.92 8,-1470.58 2965,-1470.58 2965,-15.92 8,-15.92"/>
<text text-anchor="middle" x="61.5" y="-1455.38" font-family="Times,serif" font-size="14.00">Commutator</text>
</g>
<!-- Commutator_three_trivial_commutators -->
<g id="node1" class="node">
<title>Commutator_three_trivial_commutators</title>
<g id="a_node1"><a xlink:href="Commutator.html#three_trivial_commutators" xlink:title="three_trivial_commutators">
<ellipse fill="#f070d1" stroke="black" cx="2285" cy="-1181.92" rx="133.78" ry="18"/>
<ellipse fill="none" stroke="black" cx="2285" cy="-1181.92" rx="137.78" ry="22"/>
<ellipse fill="none" stroke="black" cx="2285" cy="-1181.92" rx="141.78" ry="26"/>
<text text-anchor="middle" x="2285" y="-1178.22" font-family="Times,serif" font-size="14.00">three_trivial_commutators</text>
</a>
</g>
</g>
<!-- Commutator_three_subgroups_lemma -->
<g id="node2" class="node">
<title>Commutator_three_subgroups_lemma</title>
<g id="a_node2"><a xlink:href="Commutator.html#three_subgroups_lemma" xlink:title="three_subgroups_lemma">
<ellipse fill="#f070d1" stroke="black" cx="2285" cy="-1022.92" rx="124.28" ry="18"/>
<text text-anchor="middle" x="2285" y="-1019.22" font-family="Times,serif" font-size="14.00">three_subgroups_lemma</text>
</a>
</g>
</g>
<!-- Commutator_three_trivial_commutators&#45;&gt;Commutator_three_subgroups_lemma -->
<g id="edge1" class="edge">
<title>Commutator_three_trivial_commutators&#45;&gt;Commutator_three_subgroups_lemma</title>
<path fill="none" stroke="black" d="M2285,-1155.69C2285,-1127.13 2285,-1080.75 2285,-1051.32"/>
<polygon fill="black" stroke="black" points="2288.5,-1051.3 2285,-1041.3 2281.5,-1051.3 2288.5,-1051.3"/>
</g>
<!-- Commutator_subgroup_commutator_2_rec -->
<g id="node11" class="node">
<title>Commutator_subgroup_commutator_2_rec</title>
<g id="a_node11"><a xlink:href="Commutator.html#subgroup_commutator_2_rec" xlink:title="subgroup_commutator_2_rec">
<ellipse fill="#f070d1" stroke="black" cx="2085" cy="-863.92" rx="144.87" ry="18"/>
<text text-anchor="middle" x="2085" y="-860.22" font-family="Times,serif" font-size="14.00">subgroup_commutator_2_rec</text>
</a>
</g>
</g>
<!-- Commutator_three_subgroups_lemma&#45;&gt;Commutator_subgroup_commutator_2_rec -->
<g id="edge2" class="edge">
<title>Commutator_three_subgroups_lemma&#45;&gt;Commutator_subgroup_commutator_2_rec</title>
<path fill="none" stroke="black" d="M2263.6,-1005.12C2227.68,-976.92 2155.21,-920.04 2114.49,-888.07"/>
<polygon fill="black" stroke="black" points="2116.58,-885.26 2106.55,-881.84 2112.26,-890.77 2116.58,-885.26"/>
</g>
<!-- Commutator_grp_hall_witt_ -->
<g id="node16" class="node">
<title>Commutator_grp_hall_witt_</title>
<g id="a_node16"><a xlink:href="Commutator.html#grp_hall_witt'" xlink:title="grp_hall_witt&#39;">
<ellipse fill="#f070d1" stroke="black" cx="2673" cy="-401.92" rx="73.39" ry="18"/>
<text text-anchor="middle" x="2673" y="-398.22" font-family="Times,serif" font-size="14.00">grp_hall_witt&#39;</text>
</a>
</g>
</g>
<!-- Commutator_three_subgroups_lemma&#45;&gt;Commutator_grp_hall_witt_ -->
<g id="edge3" class="edge">
<title>Commutator_three_subgroups_lemma&#45;&gt;Commutator_grp_hall_witt_</title>
<path fill="none" stroke="black" d="M2295.78,-1004.72C2349.96,-918.29 2592.4,-531.51 2657.09,-428.3"/>
<polygon fill="black" stroke="black" points="2660.11,-430.08 2662.45,-419.75 2654.18,-426.36 2660.11,-430.08"/>
</g>
<!-- Commutator_isabelianization_derived_quotient -->
<g id="node3" class="node">
<title>Commutator_isabelianization_derived_quotient</title>
<g id="a_node3"><a xlink:href="Commutator.html#isabelianization_derived_quotient" xlink:title="isabelianization_derived_quotient">
<ellipse fill="#f070d1" stroke="black" cx="1521" cy="-1356.92" rx="166.28" ry="18"/>
<ellipse fill="none" stroke="black" cx="1521" cy="-1356.92" rx="170.27" ry="22"/>
<ellipse fill="none" stroke="black" cx="1521" cy="-1356.92" rx="174.27" ry="26"/>
<text text-anchor="middle" x="1521" y="-1353.22" font-family="Times,serif" font-size="14.00">isabelianization_derived_quotient</text>
</a>
</g>
</g>
<!-- Commutator_abgroup_derived_quotient_rec -->
<g id="node4" class="node">
<title>Commutator_abgroup_derived_quotient_rec</title>
<g id="a_node4"><a xlink:href="Commutator.html#abgroup_derived_quotient_rec" xlink:title="abgroup_derived_quotient_rec">
<ellipse fill="#f070d1" stroke="black" cx="1521" cy="-1181.92" rx="151.37" ry="18"/>
<text text-anchor="middle" x="1521" y="-1178.22" font-family="Times,serif" font-size="14.00">abgroup_derived_quotient_rec</text>
</a>
</g>
</g>
<!-- Commutator_isabelianization_derived_quotient&#45;&gt;Commutator_abgroup_derived_quotient_rec -->
<g id="edge4" class="edge">
<title>Commutator_isabelianization_derived_quotient&#45;&gt;Commutator_abgroup_derived_quotient_rec</title>
<path fill="none" stroke="black" d="M1521,-1330.76C1521,-1298.77 1521,-1243.71 1521,-1210.57"/>
<polygon fill="black" stroke="black" points="1524.5,-1210.23 1521,-1200.23 1517.5,-1210.23 1524.5,-1210.23"/>
</g>
<!-- Commutator_abgroup_derived_quotient -->
<g id="node5" class="node">
<title>Commutator_abgroup_derived_quotient</title>
<g id="a_node5"><a xlink:href="Commutator.html#abgroup_derived_quotient" xlink:title="abgroup_derived_quotient">
<ellipse fill="#f070d1" stroke="black" cx="1715" cy="-1022.92" rx="131.88" ry="18"/>
<text text-anchor="middle" x="1715" y="-1019.22" font-family="Times,serif" font-size="14.00">abgroup_derived_quotient</text>
</a>
</g>
</g>
<!-- Commutator_abgroup_derived_quotient_rec&#45;&gt;Commutator_abgroup_derived_quotient -->
<g id="edge5" class="edge">
<title>Commutator_abgroup_derived_quotient_rec&#45;&gt;Commutator_abgroup_derived_quotient</title>
<path fill="none" stroke="black" d="M1542.13,-1163.82C1577.06,-1135.55 1646.89,-1079.04 1686.27,-1047.17"/>
<polygon fill="black" stroke="black" points="1688.62,-1049.77 1694.19,-1040.76 1684.21,-1044.33 1688.62,-1049.77"/>
</g>
<!-- Commutator_subgroup_commutator_rec -->
<g id="node12" class="node">
<title>Commutator_subgroup_commutator_rec</title>
<g id="a_node12"><a xlink:href="Commutator.html#subgroup_commutator_rec" xlink:title="subgroup_commutator_rec">
<ellipse fill="#f070d1" stroke="black" cx="1495" cy="-704.92" rx="134.58" ry="18"/>
<text text-anchor="middle" x="1495" y="-701.22" font-family="Times,serif" font-size="14.00">subgroup_commutator_rec</text>
</a>
</g>
</g>
<!-- Commutator_abgroup_derived_quotient_rec&#45;&gt;Commutator_subgroup_commutator_rec -->
<g id="edge6" class="edge">
<title>Commutator_abgroup_derived_quotient_rec&#45;&gt;Commutator_subgroup_commutator_rec</title>
<path fill="none" stroke="black" d="M1521.05,-1163.76C1521.09,-1113.56 1520.36,-962.67 1511,-837.92 1508.27,-801.5 1502.8,-759.68 1499.02,-733.05"/>
<polygon fill="black" stroke="black" points="1502.46,-732.36 1497.57,-722.96 1495.53,-733.35 1502.46,-732.36"/>
</g>
<!-- Commutator_ab_commutator -->
<g id="node29" class="node">
<title>Commutator_ab_commutator</title>
<g id="a_node29"><a xlink:href="Commutator.html#ab_commutator" xlink:title="ab_commutator">
<ellipse fill="#f070d1" stroke="black" cx="1125" cy="-704.92" rx="83.39" ry="18"/>
<text text-anchor="middle" x="1125" y="-701.22" font-family="Times,serif" font-size="14.00">ab_commutator</text>
</a>
</g>
</g>
<!-- Commutator_abgroup_derived_quotient_rec&#45;&gt;Commutator_ab_commutator -->
<g id="edge7" class="edge">
<title>Commutator_abgroup_derived_quotient_rec&#45;&gt;Commutator_ab_commutator</title>
<path fill="none" stroke="black" d="M1480.39,-1164.52C1398,-1128.79 1212.45,-1035.28 1135,-889.92 1108.3,-839.81 1113.82,-770.74 1119.71,-733.09"/>
<polygon fill="black" stroke="black" points="1123.22,-733.35 1121.44,-722.9 1116.31,-732.18 1123.22,-733.35"/>
</g>
<!-- Commutator_commutative_grp_derived_quotient -->
<g id="node6" class="node">
<title>Commutator_commutative_grp_derived_quotient</title>
<g id="a_node6"><a xlink:href="Commutator.html#commutative_grp_derived_quotient" xlink:title="commutative_grp_derived_quotient">
<ellipse fill="#f070d1" stroke="black" cx="1736" cy="-863.92" rx="174.67" ry="18"/>
<text text-anchor="middle" x="1736" y="-860.22" font-family="Times,serif" font-size="14.00">commutative_grp_derived_quotient</text>
</a>
</g>
</g>
<!-- Commutator_abgroup_derived_quotient&#45;&gt;Commutator_commutative_grp_derived_quotient -->
<g id="edge8" class="edge">
<title>Commutator_abgroup_derived_quotient&#45;&gt;Commutator_commutative_grp_derived_quotient</title>
<path fill="none" stroke="black" d="M1717.29,-1004.82C1720.92,-977.69 1728.03,-924.53 1732.36,-892.13"/>
<polygon fill="black" stroke="black" points="1735.86,-892.37 1733.72,-882 1728.92,-891.45 1735.86,-892.37"/>
</g>
<!-- Commutator_grp_derived_quotient -->
<g id="node7" class="node">
<title>Commutator_grp_derived_quotient</title>
<g id="a_node7"><a xlink:href="Commutator.html#grp_derived_quotient" xlink:title="grp_derived_quotient">
<ellipse fill="#f070d1" stroke="black" cx="1757" cy="-704.92" rx="109.68" ry="18"/>
<text text-anchor="middle" x="1757" y="-701.22" font-family="Times,serif" font-size="14.00">grp_derived_quotient</text>
</a>
</g>
</g>
<!-- Commutator_commutative_grp_derived_quotient&#45;&gt;Commutator_grp_derived_quotient -->
<g id="edge9" class="edge">
<title>Commutator_commutative_grp_derived_quotient&#45;&gt;Commutator_grp_derived_quotient</title>
<path fill="none" stroke="black" d="M1738.29,-845.82C1741.92,-818.69 1749.03,-765.53 1753.36,-733.13"/>
<polygon fill="black" stroke="black" points="1756.86,-733.37 1754.72,-723 1749.92,-732.45 1756.86,-733.37"/>
</g>
<!-- Commutator_normalsubgroup_derived -->
<g id="node8" class="node">
<title>Commutator_normalsubgroup_derived</title>
<g id="a_node8"><a xlink:href="Commutator.html#normalsubgroup_derived" xlink:title="normalsubgroup_derived">
<ellipse fill="#f070d1" stroke="black" cx="1752" cy="-560.92" rx="126.98" ry="18"/>
<text text-anchor="middle" x="1752" y="-557.22" font-family="Times,serif" font-size="14.00">normalsubgroup_derived</text>
</a>
</g>
</g>
<!-- Commutator_grp_derived_quotient&#45;&gt;Commutator_normalsubgroup_derived -->
<g id="edge10" class="edge">
<title>Commutator_grp_derived_quotient&#45;&gt;Commutator_normalsubgroup_derived</title>
<path fill="none" stroke="black" d="M1756.4,-686.79C1755.54,-662.59 1753.98,-618.13 1752.96,-589.31"/>
<polygon fill="black" stroke="black" points="1756.46,-588.98 1752.61,-579.11 1749.46,-589.23 1756.46,-588.98"/>
</g>
<!-- Commutator_isnormal_subgroup_derived -->
<g id="node9" class="node">
<title>Commutator_isnormal_subgroup_derived</title>
<g id="a_node9"><a xlink:href="Commutator.html#isnormal_subgroup_derived" xlink:title="isnormal_subgroup_derived">
<ellipse fill="#f070d1" stroke="black" cx="1727" cy="-401.92" rx="139.18" ry="18"/>
<text text-anchor="middle" x="1727" y="-398.22" font-family="Times,serif" font-size="14.00">isnormal_subgroup_derived</text>
</a>
</g>
</g>
<!-- Commutator_normalsubgroup_derived&#45;&gt;Commutator_isnormal_subgroup_derived -->
<g id="edge11" class="edge">
<title>Commutator_normalsubgroup_derived&#45;&gt;Commutator_isnormal_subgroup_derived</title>
<path fill="none" stroke="black" d="M1749.28,-542.82C1744.96,-515.69 1736.49,-462.53 1731.33,-430.13"/>
<polygon fill="black" stroke="black" points="1734.75,-429.32 1729.72,-420 1727.84,-430.43 1734.75,-429.32"/>
</g>
<!-- Commutator_subgroup_commutator -->
<g id="node13" class="node">
<title>Commutator_subgroup_commutator</title>
<g id="a_node13"><a xlink:href="Commutator.html#subgroup_commutator" xlink:title="subgroup_commutator">
<ellipse fill="#f070d1" stroke="black" cx="2074" cy="-226.92" rx="115.88" ry="18"/>
<text text-anchor="middle" x="2074" y="-223.22" font-family="Times,serif" font-size="14.00">subgroup_commutator</text>
</a>
</g>
</g>
<!-- Commutator_isnormal_subgroup_derived&#45;&gt;Commutator_subgroup_commutator -->
<g id="edge12" class="edge">
<title>Commutator_isnormal_subgroup_derived&#45;&gt;Commutator_subgroup_commutator</title>
<path fill="none" stroke="black" d="M1760.27,-384.33C1823.91,-352.6 1962.73,-283.4 2032.38,-248.67"/>
<polygon fill="black" stroke="black" points="2033.95,-251.8 2041.34,-244.2 2030.82,-245.53 2033.95,-251.8"/>
</g>
<!-- Commutator_grp_homo_commutator -->
<g id="node26" class="node">
<title>Commutator_grp_homo_commutator</title>
<g id="a_node26"><a xlink:href="Commutator.html#grp_homo_commutator" xlink:title="grp_homo_commutator">
<ellipse fill="#f070d1" stroke="black" cx="2386" cy="-226.92" rx="117.78" ry="18"/>
<text text-anchor="middle" x="2386" y="-223.22" font-family="Times,serif" font-size="14.00">grp_homo_commutator</text>
</a>
</g>
</g>
<!-- Commutator_isnormal_subgroup_derived&#45;&gt;Commutator_grp_homo_commutator -->
<g id="edge13" class="edge">
<title>Commutator_isnormal_subgroup_derived&#45;&gt;Commutator_grp_homo_commutator</title>
<path fill="none" stroke="black" d="M1785.48,-385.57C1907.98,-353.41 2190.81,-279.16 2319.77,-245.31"/>
<polygon fill="black" stroke="black" points="2320.74,-248.67 2329.52,-242.75 2318.96,-241.9 2320.74,-248.67"/>
</g>
<!-- Commutator_istrivial_commutator_subgroup_ab -->
<g id="node10" class="node">
<title>Commutator_istrivial_commutator_subgroup_ab</title>
<g id="a_node10"><a xlink:href="Commutator.html#istrivial_commutator_subgroup_ab" xlink:title="istrivial_commutator_subgroup_ab">
<ellipse fill="#f070d1" stroke="black" cx="1323" cy="-863.92" rx="170.87" ry="18"/>
<ellipse fill="none" stroke="black" cx="1323" cy="-863.92" rx="174.87" ry="22"/>
<ellipse fill="none" stroke="black" cx="1323" cy="-863.92" rx="178.87" ry="26"/>
<text text-anchor="middle" x="1323" y="-860.22" font-family="Times,serif" font-size="14.00">istrivial_commutator_subgroup_ab</text>
</a>
</g>
</g>
<!-- Commutator_istrivial_commutator_subgroup_ab&#45;&gt;Commutator_subgroup_commutator_rec -->
<g id="edge14" class="edge">
<title>Commutator_istrivial_commutator_subgroup_ab&#45;&gt;Commutator_subgroup_commutator_rec</title>
<path fill="none" stroke="black" d="M1350.25,-838.04C1382.74,-808.39 1436.64,-759.19 1468.7,-729.92"/>
<polygon fill="black" stroke="black" points="1471.33,-732.27 1476.36,-722.94 1466.61,-727.1 1471.33,-732.27"/>
</g>
<!-- Commutator_istrivial_commutator_subgroup_ab&#45;&gt;Commutator_ab_commutator -->
<g id="edge15" class="edge">
<title>Commutator_istrivial_commutator_subgroup_ab&#45;&gt;Commutator_ab_commutator</title>
<path fill="none" stroke="black" d="M1291.63,-838.04C1253.71,-807.98 1190.45,-757.81 1153.75,-728.72"/>
<polygon fill="black" stroke="black" points="1155.91,-725.96 1145.9,-722.49 1151.56,-731.45 1155.91,-725.96"/>
</g>
<!-- Commutator_subgroup_commutator_2_rec&#45;&gt;Commutator_subgroup_commutator_rec -->
<g id="edge16" class="edge">
<title>Commutator_subgroup_commutator_2_rec&#45;&gt;Commutator_subgroup_commutator_rec</title>
<path fill="none" stroke="black" d="M2026.54,-847.36C1916.51,-818.09 1679.25,-754.95 1562.57,-723.9"/>
<polygon fill="black" stroke="black" points="1563.25,-720.46 1552.69,-721.27 1561.45,-727.22 1563.25,-720.46"/>
</g>
<!-- Commutator_subgroup_precomp_commutator -->
<g id="node14" class="node">
<title>Commutator_subgroup_precomp_commutator</title>
<g id="a_node14"><a xlink:href="Commutator.html#subgroup_precomp_commutator" xlink:title="subgroup_precomp_commutator">
<ellipse fill="#f070d1" stroke="black" cx="2085" cy="-704.92" rx="160.57" ry="18"/>
<text text-anchor="middle" x="2085" y="-701.22" font-family="Times,serif" font-size="14.00">subgroup_precomp_commutator</text>
</a>
</g>
</g>
<!-- Commutator_subgroup_commutator_2_rec&#45;&gt;Commutator_subgroup_precomp_commutator -->
<g id="edge17" class="edge">
<title>Commutator_subgroup_commutator_2_rec&#45;&gt;Commutator_subgroup_precomp_commutator</title>
<path fill="none" stroke="black" d="M2085,-845.82C2085,-818.69 2085,-765.53 2085,-733.13"/>
<polygon fill="black" stroke="black" points="2088.5,-733 2085,-723 2081.5,-733 2088.5,-733"/>
</g>
<!-- Commutator_subgroup_commutator_rec&#45;&gt;Commutator_subgroup_commutator -->
<g id="edge18" class="edge">
<title>Commutator_subgroup_commutator_rec&#45;&gt;Commutator_subgroup_commutator</title>
<path fill="none" stroke="black" d="M1493.97,-686.91C1491.7,-633.31 1492.25,-466.2 1579,-375.92 1608.98,-344.72 1875.03,-276.46 2004.21,-244.74"/>
<polygon fill="black" stroke="black" points="2005.14,-248.12 2014.02,-242.34 2003.48,-241.32 2005.14,-248.12"/>
</g>
<!-- Commutator_grp_commutator -->
<g id="node34" class="node">
<title>Commutator_grp_commutator</title>
<g id="a_node34"><a xlink:href="Commutator.html#grp_commutator" xlink:title="grp_commutator">
<ellipse fill="#f070d1" stroke="black" cx="1934" cy="-67.92" rx="87.99" ry="18"/>
<text text-anchor="middle" x="1934" y="-64.22" font-family="Times,serif" font-size="14.00">grp_commutator</text>
</a>
</g>
</g>
<!-- Commutator_subgroup_commutator&#45;&gt;Commutator_grp_commutator -->
<g id="edge19" class="edge">
<title>Commutator_subgroup_commutator&#45;&gt;Commutator_grp_commutator</title>
<path fill="none" stroke="black" d="M2058.75,-208.82C2033.92,-180.98 1984.67,-125.74 1956.04,-93.63"/>
<polygon fill="black" stroke="black" points="1958.5,-91.13 1949.23,-86 1953.27,-95.79 1958.5,-91.13"/>
</g>
<!-- Commutator_issubgroup_precomp_commutator -->
<g id="node15" class="node">
<title>Commutator_issubgroup_precomp_commutator</title>
<g id="a_node15"><a xlink:href="Commutator.html#issubgroup_precomp_commutator" xlink:title="issubgroup_precomp_commutator">
<ellipse fill="#f070d1" stroke="black" cx="2085" cy="-560.92" rx="168.17" ry="18"/>
<text text-anchor="middle" x="2085" y="-557.22" font-family="Times,serif" font-size="14.00">issubgroup_precomp_commutator</text>
</a>
</g>
</g>
<!-- Commutator_subgroup_precomp_commutator&#45;&gt;Commutator_issubgroup_precomp_commutator -->
<g id="edge20" class="edge">
<title>Commutator_subgroup_precomp_commutator&#45;&gt;Commutator_issubgroup_precomp_commutator</title>
<path fill="none" stroke="black" d="M2085,-686.79C2085,-662.59 2085,-618.13 2085,-589.31"/>
<polygon fill="black" stroke="black" points="2088.5,-589.11 2085,-579.11 2081.5,-589.11 2088.5,-589.11"/>
</g>
<!-- Commutator_grp_commutator_inv_l -->
<g id="node21" class="node">
<title>Commutator_grp_commutator_inv_l</title>
<g id="a_node21"><a xlink:href="Commutator.html#grp_commutator_inv_l" xlink:title="grp_commutator_inv_l">
<ellipse fill="#f070d1" stroke="black" cx="2229" cy="-401.92" rx="113.98" ry="18"/>
<text text-anchor="middle" x="2229" y="-398.22" font-family="Times,serif" font-size="14.00">grp_commutator_inv_l</text>
</a>
</g>
</g>
<!-- Commutator_issubgroup_precomp_commutator&#45;&gt;Commutator_grp_commutator_inv_l -->
<g id="edge21" class="edge">
<title>Commutator_issubgroup_precomp_commutator&#45;&gt;Commutator_grp_commutator_inv_l</title>
<path fill="none" stroke="black" d="M2100.68,-542.82C2126.22,-514.98 2176.88,-459.74 2206.33,-427.63"/>
<polygon fill="black" stroke="black" points="2209.15,-429.73 2213.33,-420 2204,-425 2209.15,-429.73"/>
</g>
<!-- Commutator_grp_commutator_op_l -->
<g id="node25" class="node">
<title>Commutator_grp_commutator_op_l</title>
<g id="a_node25"><a xlink:href="Commutator.html#grp_commutator_op_l" xlink:title="grp_commutator_op_l">
<ellipse fill="#f070d1" stroke="black" cx="2471" cy="-401.92" rx="110.48" ry="18"/>
<text text-anchor="middle" x="2471" y="-398.22" font-family="Times,serif" font-size="14.00">grp_commutator_op_l</text>
</a>
</g>
</g>
<!-- Commutator_issubgroup_precomp_commutator&#45;&gt;Commutator_grp_commutator_op_l -->
<g id="edge22" class="edge">
<title>Commutator_issubgroup_precomp_commutator&#45;&gt;Commutator_grp_commutator_op_l</title>
<path fill="none" stroke="black" d="M2125.58,-543.41C2197.14,-514.31 2345.44,-453.99 2422.36,-422.7"/>
<polygon fill="black" stroke="black" points="2423.88,-425.86 2431.83,-418.85 2421.25,-419.38 2423.88,-425.86"/>
</g>
<!-- Commutator_grp_commutator_inv -->
<g id="node27" class="node">
<title>Commutator_grp_commutator_inv</title>
<g id="a_node27"><a xlink:href="Commutator.html#grp_commutator_inv" xlink:title="grp_commutator_inv">
<ellipse fill="#f070d1" stroke="black" cx="1991" cy="-401.92" rx="106.68" ry="18"/>
<text text-anchor="middle" x="1991" y="-398.22" font-family="Times,serif" font-size="14.00">grp_commutator_inv</text>
</a>
</g>
</g>
<!-- Commutator_issubgroup_precomp_commutator&#45;&gt;Commutator_grp_commutator_inv -->
<g id="edge23" class="edge">
<title>Commutator_issubgroup_precomp_commutator&#45;&gt;Commutator_grp_commutator_inv</title>
<path fill="none" stroke="black" d="M2074.76,-542.82C2058.3,-515.33 2025.86,-461.14 2006.54,-428.87"/>
<polygon fill="black" stroke="black" points="2009.37,-426.78 2001.23,-420 2003.36,-430.38 2009.37,-426.78"/>
</g>
<!-- Commutator_grp_commutator_unit_l -->
<g id="node31" class="node">
<title>Commutator_grp_commutator_unit_l</title>
<g id="a_node31"><a xlink:href="Commutator.html#grp_commutator_unit_l" xlink:title="grp_commutator_unit_l">
<ellipse fill="#f070d1" stroke="black" cx="434" cy="-401.92" rx="118.08" ry="18"/>
<text text-anchor="middle" x="434" y="-398.22" font-family="Times,serif" font-size="14.00">grp_commutator_unit_l</text>
</a>
</g>
</g>
<!-- Commutator_issubgroup_precomp_commutator&#45;&gt;Commutator_grp_commutator_unit_l -->
<g id="edge24" class="edge">
<title>Commutator_issubgroup_precomp_commutator&#45;&gt;Commutator_grp_commutator_unit_l</title>
<path fill="none" stroke="black" d="M1958.75,-549.01C1594.17,-517.49 565.33,-428.53 561,-427.92 543.98,-425.51 525.79,-422.32 508.66,-419.01"/>
<polygon fill="black" stroke="black" points="509.19,-415.55 498.71,-417.06 507.84,-422.42 509.19,-415.55"/>
</g>
<!-- Commutator_grp_hall_witt -->
<g id="node17" class="node">
<title>Commutator_grp_hall_witt</title>
<g id="a_node17"><a xlink:href="Commutator.html#grp_hall_witt" xlink:title="grp_hall_witt">
<ellipse fill="#f070d1" stroke="black" cx="2593" cy="-226.92" rx="71.49" ry="18"/>
<text text-anchor="middle" x="2593" y="-223.22" font-family="Times,serif" font-size="14.00">grp_hall_witt</text>
</a>
</g>
</g>
<!-- Commutator_grp_hall_witt_&#45;&gt;Commutator_grp_hall_witt -->
<g id="edge25" class="edge">
<title>Commutator_grp_hall_witt_&#45;&gt;Commutator_grp_hall_witt</title>
<path fill="none" stroke="black" d="M2665.18,-384.02C2651.2,-353.79 2621.83,-290.26 2605.18,-254.26"/>
<polygon fill="black" stroke="black" points="2608.22,-252.5 2600.85,-244.89 2601.87,-255.44 2608.22,-252.5"/>
</g>
<!-- Commutator_grp_conj_commutator_inv_l -->
<g id="node19" class="node">
<title>Commutator_grp_conj_commutator_inv_l</title>
<g id="a_node19"><a xlink:href="Commutator.html#grp_conj_commutator_inv_l" xlink:title="grp_conj_commutator_inv_l">
<ellipse fill="#f070d1" stroke="black" cx="2820" cy="-226.92" rx="137.28" ry="18"/>
<text text-anchor="middle" x="2820" y="-223.22" font-family="Times,serif" font-size="14.00">grp_conj_commutator_inv_l</text>
</a>
</g>
</g>
<!-- Commutator_grp_hall_witt_&#45;&gt;Commutator_grp_conj_commutator_inv_l -->
<g id="edge26" class="edge">
<title>Commutator_grp_hall_witt_&#45;&gt;Commutator_grp_conj_commutator_inv_l</title>
<path fill="none" stroke="black" d="M2687.36,-384.02C2713.38,-353.4 2768.42,-288.62 2798.78,-252.89"/>
<polygon fill="black" stroke="black" points="2801.77,-254.78 2805.58,-244.89 2796.44,-250.25 2801.77,-254.78"/>
</g>
<!-- Commutator_grp_hall_witt_&#45;&gt;Commutator_grp_homo_commutator -->
<g id="edge27" class="edge">
<title>Commutator_grp_hall_witt_&#45;&gt;Commutator_grp_homo_commutator</title>
<path fill="none" stroke="black" d="M2646.51,-384.95C2594.91,-353.85 2480.82,-285.07 2422.25,-249.77"/>
<polygon fill="black" stroke="black" points="2424.05,-246.77 2413.68,-244.61 2420.44,-252.77 2424.05,-246.77"/>
</g>
<!-- Commutator_grp_hall_witt&#45;&gt;Commutator_grp_commutator -->
<g id="edge28" class="edge">
<title>Commutator_grp_hall_witt&#45;&gt;Commutator_grp_commutator</title>
<path fill="none" stroke="black" d="M2551.25,-212.19C2538.98,-208.34 2525.5,-204.29 2513,-200.92 2331.05,-151.83 2113.73,-105.54 2004.33,-83.09"/>
<polygon fill="black" stroke="black" points="2004.9,-79.63 1994.4,-81.05 2003.49,-86.49 2004.9,-79.63"/>
</g>
<!-- Commutator_grp_conj_commutator_inv_r -->
<g id="node18" class="node">
<title>Commutator_grp_conj_commutator_inv_r</title>
<g id="a_node18"><a xlink:href="Commutator.html#grp_conj_commutator_inv_r" xlink:title="grp_conj_commutator_inv_r">
<ellipse fill="#f070d1" stroke="black" cx="1794" cy="-226.92" rx="138.38" ry="18"/>
<ellipse fill="none" stroke="black" cx="1794" cy="-226.92" rx="142.38" ry="22"/>
<ellipse fill="none" stroke="black" cx="1794" cy="-226.92" rx="146.38" ry="26"/>
<text text-anchor="middle" x="1794" y="-223.22" font-family="Times,serif" font-size="14.00">grp_conj_commutator_inv_r</text>
</a>
</g>
</g>
<!-- Commutator_grp_conj_commutator_inv_r&#45;&gt;Commutator_grp_commutator -->
<g id="edge29" class="edge">
<title>Commutator_grp_conj_commutator_inv_r&#45;&gt;Commutator_grp_commutator</title>
<path fill="none" stroke="black" d="M1816.18,-201.04C1842.4,-171.64 1885.76,-123.02 1911.93,-93.67"/>
<polygon fill="black" stroke="black" points="1914.78,-95.73 1918.82,-85.94 1909.56,-91.07 1914.78,-95.73"/>
</g>
<!-- Commutator_grp_conj_commutator_inv_l&#45;&gt;Commutator_grp_commutator -->
<g id="edge30" class="edge">
<title>Commutator_grp_conj_commutator_inv_l&#45;&gt;Commutator_grp_commutator</title>
<path fill="none" stroke="black" d="M2741.76,-212.06C2572.45,-182.05 2174.01,-111.45 2008.31,-82.09"/>
<polygon fill="black" stroke="black" points="2008.67,-78.6 1998.21,-80.3 2007.45,-85.49 2008.67,-78.6"/>
</g>
<!-- Commutator_grp_commutator_inv_r -->
<g id="node20" class="node">
<title>Commutator_grp_commutator_inv_r</title>
<g id="a_node20"><a xlink:href="Commutator.html#grp_commutator_inv_r" xlink:title="grp_commutator_inv_r">
<ellipse fill="#f070d1" stroke="black" cx="1507" cy="-226.92" rx="115.08" ry="18"/>
<ellipse fill="none" stroke="black" cx="1507" cy="-226.92" rx="119.08" ry="22"/>
<ellipse fill="none" stroke="black" cx="1507" cy="-226.92" rx="123.08" ry="26"/>
<text text-anchor="middle" x="1507" y="-223.22" font-family="Times,serif" font-size="14.00">grp_commutator_inv_r</text>
</a>
</g>
</g>
<!-- Commutator_grp_commutator_inv_r&#45;&gt;Commutator_grp_commutator -->
<g id="edge31" class="edge">
<title>Commutator_grp_commutator_inv_r&#45;&gt;Commutator_grp_commutator</title>
<path fill="none" stroke="black" d="M1566.37,-204.09C1650.76,-173.06 1803.93,-116.74 1883.29,-87.56"/>
<polygon fill="black" stroke="black" points="1884.88,-90.71 1893.06,-83.97 1882.46,-84.14 1884.88,-90.71"/>
</g>
<!-- Commutator_grp_commutator_inv_l&#45;&gt;Commutator_grp_commutator -->
<g id="edge32" class="edge">
<title>Commutator_grp_commutator_inv_l&#45;&gt;Commutator_grp_commutator</title>
<path fill="none" stroke="black" d="M2232.44,-383.77C2238.89,-346.64 2248.76,-257.64 2209,-200.92 2161.96,-133.83 2071.33,-99.62 2006.98,-83.05"/>
<polygon fill="black" stroke="black" points="2007.44,-79.56 1996.89,-80.54 2005.75,-86.35 2007.44,-79.56"/>
</g>
<!-- Commutator_grp_op_r_commutator -->
<g id="node22" class="node">
<title>Commutator_grp_op_r_commutator</title>
<g id="a_node22"><a xlink:href="Commutator.html#grp_op_r_commutator" xlink:title="grp_op_r_commutator">
<ellipse fill="#f070d1" stroke="black" cx="1246" cy="-226.92" rx="112.38" ry="18"/>
<ellipse fill="none" stroke="black" cx="1246" cy="-226.92" rx="116.38" ry="22"/>
<ellipse fill="none" stroke="black" cx="1246" cy="-226.92" rx="120.38" ry="26"/>
<text text-anchor="middle" x="1246" y="-223.22" font-family="Times,serif" font-size="14.00">grp_op_r_commutator</text>
</a>
</g>
</g>
<!-- Commutator_grp_op_r_commutator&#45;&gt;Commutator_grp_commutator -->
<g id="edge33" class="edge">
<title>Commutator_grp_op_r_commutator&#45;&gt;Commutator_grp_commutator</title>
<path fill="none" stroke="black" d="M1326.61,-207.53C1463.94,-176.19 1740.7,-113.03 1867.64,-84.06"/>
<polygon fill="black" stroke="black" points="1868.65,-87.42 1877.62,-81.79 1867.09,-80.6 1868.65,-87.42"/>
</g>
<!-- Commutator_grp_op_l_commutator -->
<g id="node23" class="node">
<title>Commutator_grp_op_l_commutator</title>
<g id="a_node23"><a xlink:href="Commutator.html#grp_op_l_commutator" xlink:title="grp_op_l_commutator">
<ellipse fill="#f070d1" stroke="black" cx="989" cy="-226.92" rx="110.48" ry="18"/>
<ellipse fill="none" stroke="black" cx="989" cy="-226.92" rx="114.48" ry="22"/>
<ellipse fill="none" stroke="black" cx="989" cy="-226.92" rx="118.48" ry="26"/>
<text text-anchor="middle" x="989" y="-223.22" font-family="Times,serif" font-size="14.00">grp_op_l_commutator</text>
</a>
</g>
</g>
<!-- Commutator_grp_op_l_commutator&#45;&gt;Commutator_grp_commutator -->
<g id="edge34" class="edge">
<title>Commutator_grp_op_l_commutator&#45;&gt;Commutator_grp_commutator</title>
<path fill="none" stroke="black" d="M1074.3,-208.86C1088.55,-206.12 1103.18,-203.39 1117,-200.92 1387.39,-152.68 1709.53,-102.88 1855.36,-80.75"/>
<polygon fill="black" stroke="black" points="1856.19,-84.16 1865.55,-79.21 1855.14,-77.24 1856.19,-84.16"/>
</g>
<!-- Commutator_grp_commutator_op_r -->
<g id="node24" class="node">
<title>Commutator_grp_commutator_op_r</title>
<g id="a_node24"><a xlink:href="Commutator.html#grp_commutator_op_r" xlink:title="grp_commutator_op_r">
<ellipse fill="#f070d1" stroke="black" cx="732" cy="-226.92" rx="112.38" ry="18"/>
<ellipse fill="none" stroke="black" cx="732" cy="-226.92" rx="116.38" ry="22"/>
<ellipse fill="none" stroke="black" cx="732" cy="-226.92" rx="120.38" ry="26"/>
<text text-anchor="middle" x="732" y="-223.22" font-family="Times,serif" font-size="14.00">grp_commutator_op_r</text>
</a>
</g>
</g>
<!-- Commutator_grp_commutator_op_r&#45;&gt;Commutator_grp_commutator -->
<g id="edge35" class="edge">
<title>Commutator_grp_commutator_op_r&#45;&gt;Commutator_grp_commutator</title>
<path fill="none" stroke="black" d="M817.87,-208.56C832.56,-205.83 847.7,-203.17 862,-200.92 1226.5,-143.5 1664.04,-96.36 1846.96,-77.62"/>
<polygon fill="black" stroke="black" points="1847.47,-81.09 1857.06,-76.59 1846.75,-74.13 1847.47,-81.09"/>
</g>
<!-- Commutator_grp_commutator_op_l&#45;&gt;Commutator_grp_commutator -->
<g id="edge36" class="edge">
<title>Commutator_grp_commutator_op_l&#45;&gt;Commutator_grp_commutator</title>
<path fill="none" stroke="black" d="M2440.65,-384.56C2396.99,-360.02 2315.49,-310.38 2259,-252.92 2239.47,-233.05 2245.26,-218.93 2224,-200.92 2155.49,-142.89 2057.27,-105.38 1994.56,-85.7"/>
<polygon fill="black" stroke="black" points="1995.4,-82.29 1984.81,-82.69 1993.33,-88.98 1995.4,-82.29"/>
</g>
<!-- Commutator_grp_homo_commutator&#45;&gt;Commutator_grp_commutator -->
<g id="edge37" class="edge">
<title>Commutator_grp_homo_commutator&#45;&gt;Commutator_grp_commutator</title>
<path fill="none" stroke="black" d="M2340.59,-210.15C2256.22,-180.84 2075.76,-118.16 1986.38,-87.11"/>
<polygon fill="black" stroke="black" points="1987.32,-83.74 1976.73,-83.76 1985.02,-90.35 1987.32,-83.74"/>
</g>
<!-- Commutator_grp_commutator_inv&#45;&gt;Commutator_grp_commutator -->
<g id="edge38" class="edge">
<title>Commutator_grp_commutator_inv&#45;&gt;Commutator_grp_commutator</title>
<path fill="none" stroke="black" d="M2032.41,-385.24C2106.57,-354.68 2249.76,-282.91 2199,-200.92 2157.33,-133.61 2069.89,-99.52 2006.83,-83.03"/>
<polygon fill="black" stroke="black" points="2007.48,-79.59 1996.93,-80.53 2005.77,-86.37 2007.48,-79.59"/>
</g>
<!-- Commutator_grp_commutator_swap_op -->
<g id="node28" class="node">
<title>Commutator_grp_commutator_swap_op</title>
<g id="a_node28"><a xlink:href="Commutator.html#grp_commutator_swap_op" xlink:title="grp_commutator_swap_op">
<ellipse fill="#f070d1" stroke="black" cx="454" cy="-226.92" rx="131.88" ry="18"/>
<ellipse fill="none" stroke="black" cx="454" cy="-226.92" rx="135.88" ry="22"/>
<ellipse fill="none" stroke="black" cx="454" cy="-226.92" rx="139.88" ry="26"/>
<text text-anchor="middle" x="454" y="-223.22" font-family="Times,serif" font-size="14.00">grp_commutator_swap_op</text>
</a>
</g>
</g>
<!-- Commutator_grp_commutator_swap_op&#45;&gt;Commutator_grp_commutator -->
<g id="edge39" class="edge">
<title>Commutator_grp_commutator_swap_op&#45;&gt;Commutator_grp_commutator</title>
<path fill="none" stroke="black" d="M552.44,-208.44C569.28,-205.73 586.62,-203.1 603,-200.92 1067.77,-138.95 1627.41,-92.62 1843.12,-75.81"/>
<polygon fill="black" stroke="black" points="1843.44,-79.29 1853.13,-75.03 1842.89,-72.31 1843.44,-79.29"/>
</g>
<!-- Commutator_grp_commutator_commutes -->
<g id="node33" class="node">
<title>Commutator_grp_commutator_commutes</title>
<g id="a_node33"><a xlink:href="Commutator.html#grp_commutator_commutes" xlink:title="grp_commutator_commutes">
<ellipse fill="#f070d1" stroke="black" cx="156" cy="-226.92" rx="139.98" ry="18"/>
<text text-anchor="middle" x="156" y="-223.22" font-family="Times,serif" font-size="14.00">grp_commutator_commutes</text>
</a>
</g>
</g>
<!-- Commutator_ab_commutator&#45;&gt;Commutator_grp_commutator_commutes -->
<g id="edge40" class="edge">
<title>Commutator_ab_commutator&#45;&gt;Commutator_grp_commutator_commutes</title>
<path fill="none" stroke="black" d="M1046.2,-699.05C885.88,-685.02 519.01,-631.26 307,-427.92 289.13,-410.78 299.86,-397.08 287,-375.92 257.4,-327.19 211.04,-279.37 182.14,-251.81"/>
<polygon fill="black" stroke="black" points="184.52,-249.23 174.84,-244.92 179.71,-254.33 184.52,-249.23"/>
</g>
<!-- Commutator_grp_commutator_unit_r -->
<g id="node30" class="node">
<title>Commutator_grp_commutator_unit_r</title>
<g id="a_node30"><a xlink:href="Commutator.html#grp_commutator_unit_r" xlink:title="grp_commutator_unit_r">
<ellipse fill="#f070d1" stroke="black" cx="150" cy="-401.92" rx="119.67" ry="18"/>
<ellipse fill="none" stroke="black" cx="150" cy="-401.92" rx="123.68" ry="22"/>
<ellipse fill="none" stroke="black" cx="150" cy="-401.92" rx="127.68" ry="26"/>
<text text-anchor="middle" x="150" y="-398.22" font-family="Times,serif" font-size="14.00">grp_commutator_unit_r</text>
</a>
</g>
</g>
<!-- Commutator_grp_commutator_unit_r&#45;&gt;Commutator_grp_commutator_commutes -->
<g id="edge41" class="edge">
<title>Commutator_grp_commutator_unit_r&#45;&gt;Commutator_grp_commutator_commutes</title>
<path fill="none" stroke="black" d="M150.87,-375.76C151.98,-343.77 153.89,-288.71 155.04,-255.57"/>
<polygon fill="black" stroke="black" points="158.55,-255.35 155.4,-245.23 151.55,-255.1 158.55,-255.35"/>
</g>
<!-- Commutator_grp_commutator_unit_l&#45;&gt;Commutator_grp_commutator_commutes -->
<g id="edge42" class="edge">
<title>Commutator_grp_commutator_unit_l&#45;&gt;Commutator_grp_commutator_commutes</title>
<path fill="none" stroke="black" d="M407.34,-384.33C357.03,-353.02 248.08,-285.22 191.58,-250.06"/>
<polygon fill="black" stroke="black" points="193.32,-247.02 182.98,-244.71 189.62,-252.97 193.32,-247.02"/>
</g>
<!-- Commutator_grp_commutator_cancel -->
<g id="node32" class="node">
<title>Commutator_grp_commutator_cancel</title>
<g id="a_node32"><a xlink:href="Commutator.html#grp_commutator_cancel" xlink:title="grp_commutator_cancel">
<ellipse fill="#f070d1" stroke="black" cx="700" cy="-401.92" rx="121.58" ry="18"/>
<ellipse fill="none" stroke="black" cx="700" cy="-401.92" rx="125.58" ry="22"/>
<ellipse fill="none" stroke="black" cx="700" cy="-401.92" rx="129.58" ry="26"/>
<text text-anchor="middle" x="700" y="-398.22" font-family="Times,serif" font-size="14.00">grp_commutator_cancel</text>
</a>
</g>
</g>
<!-- Commutator_grp_commutator_cancel&#45;&gt;Commutator_grp_commutator_commutes -->
<g id="edge43" class="edge">
<title>Commutator_grp_commutator_cancel&#45;&gt;Commutator_grp_commutator_commutes</title>
<path fill="none" stroke="black" d="M633.02,-379.62C525.86,-345.54 317.57,-279.3 215.41,-246.81"/>
<polygon fill="black" stroke="black" points="216.45,-243.47 205.86,-243.78 214.33,-250.14 216.45,-243.47"/>
</g>
<!-- Commutator_grp_commutator_commutes&#45;&gt;Commutator_grp_commutator -->
<g id="edge44" class="edge">
<title>Commutator_grp_commutator_commutes&#45;&gt;Commutator_grp_commutator</title>
<path fill="none" stroke="black" d="M232.38,-211.82C255.64,-207.87 281.31,-203.86 305,-200.92 886.14,-128.75 1589.04,-87.15 1839.65,-73.74"/>
<polygon fill="black" stroke="black" points="1840.01,-77.23 1849.81,-73.2 1839.64,-70.24 1840.01,-77.23"/>
</g>
</g>
</svg>
