<?xml version="1.0" encoding="UTF-8" standalone="no"?>
<!DOCTYPE svg PUBLIC "-//W3C//DTD SVG 1.1//EN"
 "http://www.w3.org/Graphics/SVG/1.1/DTD/svg11.dtd">
<!-- Generated by graphviz version 2.43.0 (0)
 -->
<!-- Title: HoTT_Algebra_Universal_TermAlgebra Pages: 1 -->
<svg width="2236pt" height="1122pt"
 viewBox="0.00 0.00 2236.00 1122.00" xmlns="http://www.w3.org/2000/svg" xmlns:xlink="http://www.w3.org/1999/xlink">
<g id="graph0" class="graph" transform="scale(1 1) rotate(0) translate(4 1118)">
<title>HoTT_Algebra_Universal_TermAlgebra</title>
<polygon fill="white" stroke="transparent" points="-4,4 -4,-1118 2232,-1118 2232,4 -4,4"/>
<g id="clust1" class="cluster">
<title>cluster_TermAlgebra</title>
<polygon fill="#ffffc3" stroke="black" points="8,-8.75 8,-1105.25 2220,-1105.25 2220,-8.75 8,-8.75"/>
<text text-anchor="middle" x="62.5" y="-1090.05" font-family="Times,serif" font-size="14.00">TermAlgebra</text>
</g>
<!-- TermAlgebra_ump_term_algebra -->
<g id="node1" class="node">
<title>TermAlgebra_ump_term_algebra</title>
<g id="a_node1"><a xlink:href="TermAlgebra.html#ump_term_algebra" xlink:title="ump_term_algebra">
<ellipse fill="#f070d1" stroke="black" cx="1242" cy="-1042.75" rx="97.48" ry="18"/>
<ellipse fill="none" stroke="black" cx="1242" cy="-1042.75" rx="101.48" ry="22"/>
<ellipse fill="none" stroke="black" cx="1242" cy="-1042.75" rx="105.48" ry="26"/>
<text text-anchor="middle" x="1242" y="-1039.05" font-family="Times,serif" font-size="14.00">ump_term_algebra</text>
</a>
</g>
</g>
<!-- TermAlgebra_isequiv_precomp_var_term_algebra -->
<g id="node2" class="node">
<title>TermAlgebra_isequiv_precomp_var_term_algebra</title>
<g id="a_node2"><a xlink:href="TermAlgebra.html#isequiv_precomp_var_term_algebra" xlink:title="isequiv_precomp_var_term_algebra">
<ellipse fill="#f070d1" stroke="black" cx="1242" cy="-955.75" rx="174.67" ry="18"/>
<text text-anchor="middle" x="1242" y="-952.05" font-family="Times,serif" font-size="14.00">isequiv_precomp_var_term_algebra</text>
</a>
</g>
</g>
<!-- TermAlgebra_ump_term_algebra&#45;&gt;TermAlgebra_isequiv_precomp_var_term_algebra -->
<g id="edge1" class="edge">
<title>TermAlgebra_ump_term_algebra&#45;&gt;TermAlgebra_isequiv_precomp_var_term_algebra</title>
<path fill="none" stroke="black" d="M1242,-1016.7C1242,-1006.45 1242,-994.56 1242,-984.09"/>
<polygon fill="black" stroke="black" points="1245.5,-983.81 1242,-973.81 1238.5,-983.81 1245.5,-983.81"/>
</g>
<!-- TermAlgebra_path_hom_term_algebra_to_precomp_var_term_algebra -->
<g id="node3" class="node">
<title>TermAlgebra_path_hom_term_algebra_to_precomp_var_term_algebra</title>
<g id="a_node3"><a xlink:href="TermAlgebra.html#path_hom_term_algebra_to_precomp_var_term_algebra" xlink:title="path_hom_term_algebra_to_precomp_var_term_algebra">
<ellipse fill="#f070d1" stroke="black" cx="967" cy="-876.75" rx="266.45" ry="18"/>
<text text-anchor="middle" x="967" y="-873.05" font-family="Times,serif" font-size="14.00">path_hom_term_algebra_to_precomp_var_term_algebra</text>
</a>
</g>
</g>
<!-- TermAlgebra_isequiv_precomp_var_term_algebra&#45;&gt;TermAlgebra_path_hom_term_algebra_to_precomp_var_term_algebra -->
<g id="edge2" class="edge">
<title>TermAlgebra_isequiv_precomp_var_term_algebra&#45;&gt;TermAlgebra_path_hom_term_algebra_to_precomp_var_term_algebra</title>
<path fill="none" stroke="black" d="M1184.69,-938.7C1141.42,-926.58 1081.88,-909.91 1036.01,-897.07"/>
<polygon fill="black" stroke="black" points="1036.71,-893.63 1026.14,-894.3 1034.82,-900.37 1036.71,-893.63"/>
</g>
<!-- TermAlgebra_path_precomp_var_term_algebra_to_hom_term_algebra -->
<g id="node4" class="node">
<title>TermAlgebra_path_precomp_var_term_algebra_to_hom_term_algebra</title>
<g id="a_node4"><a xlink:href="TermAlgebra.html#path_precomp_var_term_algebra_to_hom_term_algebra" xlink:title="path_precomp_var_term_algebra_to_hom_term_algebra">
<ellipse fill="#f070d1" stroke="black" cx="1518" cy="-876.75" rx="266.45" ry="18"/>
<text text-anchor="middle" x="1518" y="-873.05" font-family="Times,serif" font-size="14.00">path_precomp_var_term_algebra_to_hom_term_algebra</text>
</a>
</g>
</g>
<!-- TermAlgebra_isequiv_precomp_var_term_algebra&#45;&gt;TermAlgebra_path_precomp_var_term_algebra_to_hom_term_algebra -->
<g id="edge3" class="edge">
<title>TermAlgebra_isequiv_precomp_var_term_algebra&#45;&gt;TermAlgebra_path_precomp_var_term_algebra_to_hom_term_algebra</title>
<path fill="none" stroke="black" d="M1299.52,-938.7C1342.94,-926.58 1402.7,-909.91 1448.74,-897.07"/>
<polygon fill="black" stroke="black" points="1449.95,-900.36 1458.65,-894.3 1448.07,-893.62 1449.95,-900.36"/>
</g>
<!-- TermAlgebra_precomp_var_term_algebra -->
<g id="node5" class="node">
<title>TermAlgebra_precomp_var_term_algebra</title>
<g id="a_node5"><a xlink:href="TermAlgebra.html#precomp_var_term_algebra" xlink:title="precomp_var_term_algebra">
<ellipse fill="#f070d1" stroke="black" cx="967" cy="-797.75" rx="137.28" ry="18"/>
<text text-anchor="middle" x="967" y="-794.05" font-family="Times,serif" font-size="14.00">precomp_var_term_algebra</text>
</a>
</g>
</g>
<!-- TermAlgebra_path_hom_term_algebra_to_precomp_var_term_algebra&#45;&gt;TermAlgebra_precomp_var_term_algebra -->
<g id="edge4" class="edge">
<title>TermAlgebra_path_hom_term_algebra_to_precomp_var_term_algebra&#45;&gt;TermAlgebra_precomp_var_term_algebra</title>
<path fill="none" stroke="black" d="M967,-858.66C967,-849.09 967,-836.93 967,-826.07"/>
<polygon fill="black" stroke="black" points="970.5,-825.79 967,-815.79 963.5,-825.79 970.5,-825.79"/>
</g>
<!-- TermAlgebra_hom_term_algebra -->
<g id="node6" class="node">
<title>TermAlgebra_hom_term_algebra</title>
<g id="a_node6"><a xlink:href="TermAlgebra.html#hom_term_algebra" xlink:title="hom_term_algebra">
<ellipse fill="#f070d1" stroke="black" cx="1518" cy="-797.75" rx="96.68" ry="18"/>
<text text-anchor="middle" x="1518" y="-794.05" font-family="Times,serif" font-size="14.00">hom_term_algebra</text>
</a>
</g>
</g>
<!-- TermAlgebra_path_hom_term_algebra_to_precomp_var_term_algebra&#45;&gt;TermAlgebra_hom_term_algebra -->
<g id="edge5" class="edge">
<title>TermAlgebra_path_hom_term_algebra_to_precomp_var_term_algebra&#45;&gt;TermAlgebra_hom_term_algebra</title>
<path fill="none" stroke="black" d="M1077.18,-860.35C1181.98,-845.7 1337.42,-823.98 1432.98,-810.63"/>
<polygon fill="black" stroke="black" points="1433.47,-814.09 1442.89,-809.24 1432.5,-807.16 1433.47,-814.09"/>
</g>
<!-- TermAlgebra_path_precomp_var_term_algebra_to_hom_term_algebra&#45;&gt;TermAlgebra_precomp_var_term_algebra -->
<g id="edge6" class="edge">
<title>TermAlgebra_path_precomp_var_term_algebra_to_hom_term_algebra&#45;&gt;TermAlgebra_precomp_var_term_algebra</title>
<path fill="none" stroke="black" d="M1407.82,-860.35C1308.48,-846.47 1163.64,-826.23 1067.43,-812.78"/>
<polygon fill="black" stroke="black" points="1067.79,-809.3 1057.4,-811.38 1066.82,-816.23 1067.79,-809.3"/>
</g>
<!-- TermAlgebra_path_precomp_var_term_algebra_to_hom_term_algebra&#45;&gt;TermAlgebra_hom_term_algebra -->
<g id="edge7" class="edge">
<title>TermAlgebra_path_precomp_var_term_algebra_to_hom_term_algebra&#45;&gt;TermAlgebra_hom_term_algebra</title>
<path fill="none" stroke="black" d="M1518,-858.66C1518,-849.09 1518,-836.93 1518,-826.07"/>
<polygon fill="black" stroke="black" points="1521.5,-825.79 1518,-815.79 1514.5,-825.79 1521.5,-825.79"/>
</g>
<!-- TermAlgebra_TermAlgebra -->
<g id="node12" class="node">
<title>TermAlgebra_TermAlgebra</title>
<g id="a_node12"><a xlink:href="TermAlgebra.html#TermAlgebra" xlink:title="TermAlgebra">
<ellipse fill="#f070d1" stroke="black" cx="927" cy="-614.75" rx="70.69" ry="18"/>
<text text-anchor="middle" x="927" y="-611.05" font-family="Times,serif" font-size="14.00">TermAlgebra</text>
</a>
</g>
</g>
<!-- TermAlgebra_precomp_var_term_algebra&#45;&gt;TermAlgebra_TermAlgebra -->
<g id="edge8" class="edge">
<title>TermAlgebra_precomp_var_term_algebra&#45;&gt;TermAlgebra_TermAlgebra</title>
<path fill="none" stroke="black" d="M956.22,-779.61C949.47,-767.98 941.27,-752 937,-736.75 928.24,-705.45 926.4,-667.96 926.33,-643.09"/>
<polygon fill="black" stroke="black" points="929.83,-642.96 926.39,-632.94 922.83,-642.92 929.83,-642.96"/>
</g>
<!-- TermAlgebra_is_homomorphism_map_term_algebra -->
<g id="node7" class="node">
<title>TermAlgebra_is_homomorphism_map_term_algebra</title>
<g id="a_node7"><a xlink:href="TermAlgebra.html#is_homomorphism_map_term_algebra" xlink:title="is_homomorphism_map_term_algebra">
<ellipse fill="#f070d1" stroke="black" cx="1558" cy="-710.75" rx="185.77" ry="18"/>
<text text-anchor="middle" x="1558" y="-707.05" font-family="Times,serif" font-size="14.00">is_homomorphism_map_term_algebra</text>
</a>
</g>
</g>
<!-- TermAlgebra_hom_term_algebra&#45;&gt;TermAlgebra_is_homomorphism_map_term_algebra -->
<g id="edge9" class="edge">
<title>TermAlgebra_hom_term_algebra&#45;&gt;TermAlgebra_is_homomorphism_map_term_algebra</title>
<path fill="none" stroke="black" d="M1526.09,-779.54C1531.68,-767.68 1539.21,-751.67 1545.55,-738.19"/>
<polygon fill="black" stroke="black" points="1548.83,-739.46 1549.92,-728.92 1542.49,-736.48 1548.83,-739.46"/>
</g>
<!-- TermAlgebra_map_term_algebra -->
<g id="node8" class="node">
<title>TermAlgebra_map_term_algebra</title>
<g id="a_node8"><a xlink:href="TermAlgebra.html#map_term_algebra" xlink:title="map_term_algebra">
<ellipse fill="#f070d1" stroke="black" cx="2089" cy="-614.75" rx="96.68" ry="18"/>
<text text-anchor="middle" x="2089" y="-611.05" font-family="Times,serif" font-size="14.00">map_term_algebra</text>
</a>
</g>
</g>
<!-- TermAlgebra_is_homomorphism_map_term_algebra&#45;&gt;TermAlgebra_map_term_algebra -->
<g id="edge10" class="edge">
<title>TermAlgebra_is_homomorphism_map_term_algebra&#45;&gt;TermAlgebra_map_term_algebra</title>
<path fill="none" stroke="black" d="M1653.66,-695.26C1738.13,-682.14 1864.53,-661.71 1974,-640.75 1989.06,-637.86 2005.18,-634.52 2020.43,-631.24"/>
<polygon fill="black" stroke="black" points="2021.29,-634.63 2030.32,-629.09 2019.8,-627.79 2021.29,-634.63"/>
</g>
<!-- TermAlgebra_is_homomorphism_map_term_algebra&#45;&gt;TermAlgebra_TermAlgebra -->
<g id="edge11" class="edge">
<title>TermAlgebra_is_homomorphism_map_term_algebra&#45;&gt;TermAlgebra_TermAlgebra</title>
<path fill="none" stroke="black" d="M1451.24,-695.97C1422.59,-692.3 1391.62,-688.35 1363,-684.75 1204.82,-664.83 1162.83,-674.44 1007,-640.75 997.08,-638.6 986.63,-635.77 976.67,-632.78"/>
<polygon fill="black" stroke="black" points="977.5,-629.38 966.91,-629.77 975.43,-636.06 977.5,-629.38"/>
</g>
<!-- TermAlgebra_CarriersTermAlgebra_rec -->
<g id="node33" class="node">
<title>TermAlgebra_CarriersTermAlgebra_rec</title>
<g id="a_node33"><a xlink:href="TermAlgebra.html#CarriersTermAlgebra_rec" xlink:title="CarriersTermAlgebra_rec">
<ellipse fill="#f070d1" stroke="black" cx="1833" cy="-194.75" rx="128.08" ry="18"/>
<text text-anchor="middle" x="1833" y="-191.05" font-family="Times,serif" font-size="14.00">CarriersTermAlgebra_rec</text>
</a>
</g>
</g>
<!-- TermAlgebra_map_term_algebra&#45;&gt;TermAlgebra_CarriersTermAlgebra_rec -->
<g id="edge12" class="edge">
<title>TermAlgebra_map_term_algebra&#45;&gt;TermAlgebra_CarriersTermAlgebra_rec</title>
<path fill="none" stroke="black" d="M2110.25,-597.18C2145.2,-567.89 2211,-503.26 2211,-431.75 2211,-431.75 2211,-431.75 2211,-350.75 2211,-287.06 2024.99,-236.45 1913.94,-211.91"/>
<polygon fill="black" stroke="black" points="1914.62,-208.48 1904.1,-209.76 1913.12,-215.31 1914.62,-208.48"/>
</g>
<!-- TermAlgebra_is_congruence_extend_rel_term_algebra -->
<g id="node9" class="node">
<title>TermAlgebra_is_congruence_extend_rel_term_algebra</title>
<g id="a_node9"><a xlink:href="TermAlgebra.html#is_congruence_extend_rel_term_algebra" xlink:title="is_congruence_extend_rel_term_algebra">
<ellipse fill="#f070d1" stroke="black" cx="1150" cy="-710.75" rx="196.07" ry="18"/>
<ellipse fill="none" stroke="black" cx="1150" cy="-710.75" rx="200.07" ry="22"/>
<ellipse fill="none" stroke="black" cx="1150" cy="-710.75" rx="204.07" ry="26"/>
<text text-anchor="middle" x="1150" y="-707.05" font-family="Times,serif" font-size="14.00">is_congruence_extend_rel_term_algebra</text>
</a>
</g>
</g>
<!-- TermAlgebra_is_congruence_extend_rel_term_algebra&#45;&gt;TermAlgebra_TermAlgebra -->
<g id="edge13" class="edge">
<title>TermAlgebra_is_congruence_extend_rel_term_algebra&#45;&gt;TermAlgebra_TermAlgebra</title>
<path fill="none" stroke="black" d="M1092.86,-685.66C1055.12,-669.75 1006.36,-649.2 971.5,-634.5"/>
<polygon fill="black" stroke="black" points="972.63,-631.18 962.06,-630.52 969.91,-637.63 972.63,-631.18"/>
</g>
<!-- TermAlgebra_equivrel_extend_rel_term_algebra -->
<g id="node24" class="node">
<title>TermAlgebra_equivrel_extend_rel_term_algebra</title>
<g id="a_node24"><a xlink:href="TermAlgebra.html#equivrel_extend_rel_term_algebra" xlink:title="equivrel_extend_rel_term_algebra">
<ellipse fill="#f070d1" stroke="black" cx="2024" cy="-430.75" rx="168.17" ry="18"/>
<text text-anchor="middle" x="2024" y="-427.05" font-family="Times,serif" font-size="14.00">equivrel_extend_rel_term_algebra</text>
</a>
</g>
</g>
<!-- TermAlgebra_is_congruence_extend_rel_term_algebra&#45;&gt;TermAlgebra_equivrel_extend_rel_term_algebra -->
<g id="edge14" class="edge">
<title>TermAlgebra_is_congruence_extend_rel_term_algebra&#45;&gt;TermAlgebra_equivrel_extend_rel_term_algebra</title>
<path fill="none" stroke="black" d="M1292.84,-692.14C1316.27,-689.49 1340.3,-686.92 1363,-684.75 1428.44,-678.47 1901.02,-680.99 1953,-640.75 1967.84,-629.25 2001.56,-512.92 2016.56,-458.96"/>
<polygon fill="black" stroke="black" points="2020.01,-459.62 2019.3,-449.05 2013.26,-457.76 2020.01,-459.62"/>
</g>
<!-- TermAlgebra_isinj_ops_term_algebra -->
<g id="node10" class="node">
<title>TermAlgebra_isinj_ops_term_algebra</title>
<g id="a_node10"><a xlink:href="TermAlgebra.html#isinj_ops_term_algebra" xlink:title="isinj_ops_term_algebra">
<ellipse fill="#f070d1" stroke="black" cx="1141" cy="-614.75" rx="116.98" ry="18"/>
<ellipse fill="none" stroke="black" cx="1141" cy="-614.75" rx="120.98" ry="22"/>
<ellipse fill="none" stroke="black" cx="1141" cy="-614.75" rx="124.98" ry="26"/>
<text text-anchor="middle" x="1141" y="-611.05" font-family="Times,serif" font-size="14.00">isinj_ops_term_algebra</text>
</a>
</g>
</g>
<!-- TermAlgebra_path_extend_path_term_algebra -->
<g id="node15" class="node">
<title>TermAlgebra_path_extend_path_term_algebra</title>
<g id="a_node15"><a xlink:href="TermAlgebra.html#path_extend_path_term_algebra" xlink:title="path_extend_path_term_algebra">
<ellipse fill="#f070d1" stroke="black" cx="175" cy="-430.75" rx="159.47" ry="18"/>
<text text-anchor="middle" x="175" y="-427.05" font-family="Times,serif" font-size="14.00">path_extend_path_term_algebra</text>
</a>
</g>
</g>
<!-- TermAlgebra_isinj_ops_term_algebra&#45;&gt;TermAlgebra_path_extend_path_term_algebra -->
<g id="edge15" class="edge">
<title>TermAlgebra_isinj_ops_term_algebra&#45;&gt;TermAlgebra_path_extend_path_term_algebra</title>
<path fill="none" stroke="black" d="M1050.56,-596.71C865.53,-561.85 445.84,-482.77 262.95,-448.32"/>
<polygon fill="black" stroke="black" points="263.57,-444.87 253.1,-446.46 262.28,-451.75 263.57,-444.87"/>
</g>
<!-- TermAlgebra_reflexive_extend_path_term_algebra_path -->
<g id="node21" class="node">
<title>TermAlgebra_reflexive_extend_path_term_algebra_path</title>
<g id="a_node21"><a xlink:href="TermAlgebra.html#reflexive_extend_path_term_algebra_path" xlink:title="reflexive_extend_path_term_algebra_path">
<ellipse fill="#f070d1" stroke="black" cx="1672" cy="-517.75" rx="204.16" ry="18"/>
<text text-anchor="middle" x="1672" y="-514.05" font-family="Times,serif" font-size="14.00">reflexive_extend_path_term_algebra_path</text>
</a>
</g>
</g>
<!-- TermAlgebra_isinj_ops_term_algebra&#45;&gt;TermAlgebra_reflexive_extend_path_term_algebra_path -->
<g id="edge16" class="edge">
<title>TermAlgebra_isinj_ops_term_algebra&#45;&gt;TermAlgebra_reflexive_extend_path_term_algebra_path</title>
<path fill="none" stroke="black" d="M1231.44,-596.75C1246,-594.05 1260.91,-591.3 1275,-588.75 1376.86,-570.26 1493.56,-549.77 1573.94,-535.76"/>
<polygon fill="black" stroke="black" points="1574.8,-539.16 1584.05,-534 1573.59,-532.26 1574.8,-539.16"/>
</g>
<!-- TermAlgebra_isinj_var_term_algebra -->
<g id="node11" class="node">
<title>TermAlgebra_isinj_var_term_algebra</title>
<g id="a_node11"><a xlink:href="TermAlgebra.html#isinj_var_term_algebra" xlink:title="isinj_var_term_algebra">
<ellipse fill="#f070d1" stroke="black" cx="1820" cy="-614.75" rx="116.19" ry="18"/>
<ellipse fill="none" stroke="black" cx="1820" cy="-614.75" rx="120.18" ry="22"/>
<ellipse fill="none" stroke="black" cx="1820" cy="-614.75" rx="124.18" ry="26"/>
<text text-anchor="middle" x="1820" y="-611.05" font-family="Times,serif" font-size="14.00">isinj_var_term_algebra</text>
</a>
</g>
</g>
<!-- TermAlgebra_isinj_var_term_algebra&#45;&gt;TermAlgebra_reflexive_extend_path_term_algebra_path -->
<g id="edge17" class="edge">
<title>TermAlgebra_isinj_var_term_algebra&#45;&gt;TermAlgebra_reflexive_extend_path_term_algebra_path</title>
<path fill="none" stroke="black" d="M1782.65,-589.77C1759.52,-574.92 1729.99,-555.97 1707.26,-541.38"/>
<polygon fill="black" stroke="black" points="1708.9,-538.28 1698.6,-535.82 1705.12,-544.17 1708.9,-538.28"/>
</g>
<!-- TermAlgebra_hset_carriers_term_algebra -->
<g id="node14" class="node">
<title>TermAlgebra_hset_carriers_term_algebra</title>
<g id="a_node14"><a xlink:href="TermAlgebra.html#hset_carriers_term_algebra" xlink:title="hset_carriers_term_algebra">
<ellipse fill="#f070d1" stroke="black" cx="924" cy="-517.75" rx="137.58" ry="18"/>
<text text-anchor="middle" x="924" y="-514.05" font-family="Times,serif" font-size="14.00">hset_carriers_term_algebra</text>
</a>
</g>
</g>
<!-- TermAlgebra_TermAlgebra&#45;&gt;TermAlgebra_hset_carriers_term_algebra -->
<g id="edge18" class="edge">
<title>TermAlgebra_TermAlgebra&#45;&gt;TermAlgebra_hset_carriers_term_algebra</title>
<path fill="none" stroke="black" d="M926.45,-596.32C926.01,-582.39 925.39,-562.61 924.88,-546.5"/>
<polygon fill="black" stroke="black" points="928.36,-545.94 924.55,-536.06 921.36,-546.17 928.36,-545.94"/>
</g>
<!-- TermAlgebra_equiv_path_extend_path_term_algebra -->
<g id="node13" class="node">
<title>TermAlgebra_equiv_path_extend_path_term_algebra</title>
<g id="a_node13"><a xlink:href="TermAlgebra.html#equiv_path_extend_path_term_algebra" xlink:title="equiv_path_extend_path_term_algebra">
<ellipse fill="#f070d1" stroke="black" cx="1481" cy="-614.75" rx="189.26" ry="18"/>
<ellipse fill="none" stroke="black" cx="1481" cy="-614.75" rx="193.26" ry="22"/>
<ellipse fill="none" stroke="black" cx="1481" cy="-614.75" rx="197.27" ry="26"/>
<text text-anchor="middle" x="1481" y="-611.05" font-family="Times,serif" font-size="14.00">equiv_path_extend_path_term_algebra</text>
</a>
</g>
</g>
<!-- TermAlgebra_equiv_path_extend_path_term_algebra&#45;&gt;TermAlgebra_hset_carriers_term_algebra -->
<g id="edge19" class="edge">
<title>TermAlgebra_equiv_path_extend_path_term_algebra&#45;&gt;TermAlgebra_hset_carriers_term_algebra</title>
<path fill="none" stroke="black" d="M1363.9,-593.77C1259.57,-575.98 1109.12,-550.32 1013.98,-534.09"/>
<polygon fill="black" stroke="black" points="1014.54,-530.64 1004.1,-532.41 1013.37,-537.54 1014.54,-530.64"/>
</g>
<!-- TermAlgebra_equiv_path_extend_path_term_algebra&#45;&gt;TermAlgebra_reflexive_extend_path_term_algebra_path -->
<g id="edge20" class="edge">
<title>TermAlgebra_equiv_path_extend_path_term_algebra&#45;&gt;TermAlgebra_reflexive_extend_path_term_algebra_path</title>
<path fill="none" stroke="black" d="M1529.69,-589.53C1560.31,-574.3 1599.45,-554.83 1628.94,-540.16"/>
<polygon fill="black" stroke="black" points="1630.75,-543.17 1638.15,-535.58 1627.63,-536.9 1630.75,-543.17"/>
</g>
<!-- TermAlgebra_hset_carriers_term_algebra&#45;&gt;TermAlgebra_path_extend_path_term_algebra -->
<g id="edge21" class="edge">
<title>TermAlgebra_hset_carriers_term_algebra&#45;&gt;TermAlgebra_path_extend_path_term_algebra</title>
<path fill="none" stroke="black" d="M823.76,-505.37C686.35,-489.78 439.87,-461.8 293.49,-445.19"/>
<polygon fill="black" stroke="black" points="293.46,-441.67 283.13,-444.02 292.67,-448.62 293.46,-441.67"/>
</g>
<!-- TermAlgebra_hprop_extend_path_term_algebra -->
<g id="node17" class="node">
<title>TermAlgebra_hprop_extend_path_term_algebra</title>
<g id="a_node17"><a xlink:href="TermAlgebra.html#hprop_extend_path_term_algebra" xlink:title="hprop_extend_path_term_algebra">
<ellipse fill="#f070d1" stroke="black" cx="518" cy="-430.75" rx="165.97" ry="18"/>
<text text-anchor="middle" x="518" y="-427.05" font-family="Times,serif" font-size="14.00">hprop_extend_path_term_algebra</text>
</a>
</g>
</g>
<!-- TermAlgebra_hset_carriers_term_algebra&#45;&gt;TermAlgebra_hprop_extend_path_term_algebra -->
<g id="edge22" class="edge">
<title>TermAlgebra_hset_carriers_term_algebra&#45;&gt;TermAlgebra_hprop_extend_path_term_algebra</title>
<path fill="none" stroke="black" d="M854.21,-502.13C783.8,-487.39 675.11,-464.64 600.48,-449.01"/>
<polygon fill="black" stroke="black" points="601.15,-445.58 590.64,-446.95 599.71,-452.43 601.15,-445.58"/>
</g>
<!-- TermAlgebra_reflexive_extend_path_term_algebra -->
<g id="node22" class="node">
<title>TermAlgebra_reflexive_extend_path_term_algebra</title>
<g id="a_node22"><a xlink:href="TermAlgebra.html#reflexive_extend_path_term_algebra" xlink:title="reflexive_extend_path_term_algebra">
<ellipse fill="#f070d1" stroke="black" cx="1659" cy="-430.75" rx="178.97" ry="18"/>
<text text-anchor="middle" x="1659" y="-427.05" font-family="Times,serif" font-size="14.00">reflexive_extend_path_term_algebra</text>
</a>
</g>
</g>
<!-- TermAlgebra_hset_carriers_term_algebra&#45;&gt;TermAlgebra_reflexive_extend_path_term_algebra -->
<g id="edge23" class="edge">
<title>TermAlgebra_hset_carriers_term_algebra&#45;&gt;TermAlgebra_reflexive_extend_path_term_algebra</title>
<path fill="none" stroke="black" d="M1000.53,-502.74C1023.17,-498.86 1048.04,-494.87 1071,-491.75 1155.34,-480.28 1377.29,-458.48 1523.09,-444.55"/>
<polygon fill="black" stroke="black" points="1523.83,-448 1533.45,-443.56 1523.16,-441.03 1523.83,-448"/>
</g>
<!-- TermAlgebra_dependent_path_extend_path_term_algebra -->
<g id="node16" class="node">
<title>TermAlgebra_dependent_path_extend_path_term_algebra</title>
<g id="a_node16"><a xlink:href="TermAlgebra.html#dependent_path_extend_path_term_algebra" xlink:title="dependent_path_extend_path_term_algebra">
<ellipse fill="#f070d1" stroke="black" cx="288" cy="-273.75" rx="213.36" ry="18"/>
<text text-anchor="middle" x="288" y="-270.05" font-family="Times,serif" font-size="14.00">dependent_path_extend_path_term_algebra</text>
</a>
</g>
</g>
<!-- TermAlgebra_path_extend_path_term_algebra&#45;&gt;TermAlgebra_dependent_path_extend_path_term_algebra -->
<g id="edge24" class="edge">
<title>TermAlgebra_path_extend_path_term_algebra&#45;&gt;TermAlgebra_dependent_path_extend_path_term_algebra</title>
<path fill="none" stroke="black" d="M187.52,-412.57C207.38,-385.33 246.19,-332.09 269.34,-300.35"/>
<polygon fill="black" stroke="black" points="272.36,-302.15 275.42,-292 266.7,-298.02 272.36,-302.15"/>
</g>
<!-- TermAlgebra_ExtendPathTermAlgebra -->
<g id="node23" class="node">
<title>TermAlgebra_ExtendPathTermAlgebra</title>
<g id="a_node23"><a xlink:href="TermAlgebra.html#ExtendPathTermAlgebra" xlink:title="ExtendPathTermAlgebra">
<ellipse fill="#f070d1" stroke="black" cx="875" cy="-351.75" rx="124.58" ry="18"/>
<text text-anchor="middle" x="875" y="-348.05" font-family="Times,serif" font-size="14.00">ExtendPathTermAlgebra</text>
</a>
</g>
</g>
<!-- TermAlgebra_path_extend_path_term_algebra&#45;&gt;TermAlgebra_ExtendPathTermAlgebra -->
<g id="edge25" class="edge">
<title>TermAlgebra_path_extend_path_term_algebra&#45;&gt;TermAlgebra_ExtendPathTermAlgebra</title>
<path fill="none" stroke="black" d="M284.76,-417.67C417.23,-403.1 638.43,-378.77 769.13,-364.39"/>
<polygon fill="black" stroke="black" points="769.6,-367.86 779.16,-363.29 768.83,-360.9 769.6,-367.86"/>
</g>
<!-- TermAlgebra_ExtendDRelTermAlgebra -->
<g id="node32" class="node">
<title>TermAlgebra_ExtendDRelTermAlgebra</title>
<g id="a_node32"><a xlink:href="TermAlgebra.html#ExtendDRelTermAlgebra" xlink:title="ExtendDRelTermAlgebra">
<ellipse fill="#f070d1" stroke="black" cx="988" cy="-194.75" rx="126.18" ry="18"/>
<text text-anchor="middle" x="988" y="-191.05" font-family="Times,serif" font-size="14.00">ExtendDRelTermAlgebra</text>
</a>
</g>
</g>
<!-- TermAlgebra_dependent_path_extend_path_term_algebra&#45;&gt;TermAlgebra_ExtendDRelTermAlgebra -->
<g id="edge26" class="edge">
<title>TermAlgebra_dependent_path_extend_path_term_algebra&#45;&gt;TermAlgebra_ExtendDRelTermAlgebra</title>
<path fill="none" stroke="black" d="M412.34,-259.07C545.74,-244.39 755.39,-221.33 881.48,-207.46"/>
<polygon fill="black" stroke="black" points="881.98,-210.93 891.54,-206.36 881.21,-203.97 881.98,-210.93"/>
</g>
<!-- TermAlgebra_CarriersTermAlgebra_rect -->
<g id="node34" class="node">
<title>TermAlgebra_CarriersTermAlgebra_rect</title>
<g id="a_node34"><a xlink:href="TermAlgebra.html#CarriersTermAlgebra_rect" xlink:title="CarriersTermAlgebra_rect">
<ellipse fill="#f070d1" stroke="black" cx="1304" cy="-194.75" rx="131.88" ry="18"/>
<text text-anchor="middle" x="1304" y="-191.05" font-family="Times,serif" font-size="14.00">CarriersTermAlgebra_rect</text>
</a>
</g>
</g>
<!-- TermAlgebra_dependent_path_extend_path_term_algebra&#45;&gt;TermAlgebra_CarriersTermAlgebra_rect -->
<g id="edge27" class="edge">
<title>TermAlgebra_dependent_path_extend_path_term_algebra&#45;&gt;TermAlgebra_CarriersTermAlgebra_rect</title>
<path fill="none" stroke="black" d="M439.35,-261.03C463,-259.23 487.16,-257.42 510,-255.75 782.38,-235.76 850.8,-235.07 1123,-212.75 1144.69,-210.97 1167.82,-208.91 1190.05,-206.86"/>
<polygon fill="black" stroke="black" points="1190.55,-210.33 1200.19,-205.92 1189.91,-203.36 1190.55,-210.33"/>
</g>
<!-- TermAlgebra_hprop_extend_path_term_algebra&#45;&gt;TermAlgebra_ExtendPathTermAlgebra -->
<g id="edge28" class="edge">
<title>TermAlgebra_hprop_extend_path_term_algebra&#45;&gt;TermAlgebra_ExtendPathTermAlgebra</title>
<path fill="none" stroke="black" d="M588.96,-414.44C649.54,-401.37 736.46,-382.63 798.57,-369.23"/>
<polygon fill="black" stroke="black" points="799.66,-372.58 808.7,-367.05 798.18,-365.73 799.66,-372.58"/>
</g>
<!-- TermAlgebra_hprop_extend_drel_term_algebra -->
<g id="node30" class="node">
<title>TermAlgebra_hprop_extend_drel_term_algebra</title>
<g id="a_node30"><a xlink:href="TermAlgebra.html#hprop_extend_drel_term_algebra" xlink:title="hprop_extend_drel_term_algebra">
<ellipse fill="#f070d1" stroke="black" cx="682" cy="-273.75" rx="163.27" ry="18"/>
<text text-anchor="middle" x="682" y="-270.05" font-family="Times,serif" font-size="14.00">hprop_extend_drel_term_algebra</text>
</a>
</g>
</g>
<!-- TermAlgebra_hprop_extend_path_term_algebra&#45;&gt;TermAlgebra_hprop_extend_drel_term_algebra -->
<g id="edge29" class="edge">
<title>TermAlgebra_hprop_extend_path_term_algebra&#45;&gt;TermAlgebra_hprop_extend_drel_term_algebra</title>
<path fill="none" stroke="black" d="M536.18,-412.57C565.36,-384.98 622.77,-330.72 656.19,-299.14"/>
<polygon fill="black" stroke="black" points="658.88,-301.42 663.74,-292 654.07,-296.33 658.88,-301.42"/>
</g>
<!-- TermAlgebra_equivrel_extend_path_term_algebra -->
<g id="node18" class="node">
<title>TermAlgebra_equivrel_extend_path_term_algebra</title>
<g id="a_node18"><a xlink:href="TermAlgebra.html#equivrel_extend_path_term_algebra" xlink:title="equivrel_extend_path_term_algebra">
<ellipse fill="#f070d1" stroke="black" cx="1265" cy="-517.75" rx="176.58" ry="18"/>
<ellipse fill="none" stroke="black" cx="1265" cy="-517.75" rx="180.57" ry="22"/>
<ellipse fill="none" stroke="black" cx="1265" cy="-517.75" rx="184.57" ry="26"/>
<text text-anchor="middle" x="1265" y="-514.05" font-family="Times,serif" font-size="14.00">equivrel_extend_path_term_algebra</text>
</a>
</g>
</g>
<!-- TermAlgebra_transitive_extend_path_term_algebra -->
<g id="node19" class="node">
<title>TermAlgebra_transitive_extend_path_term_algebra</title>
<g id="a_node19"><a xlink:href="TermAlgebra.html#transitive_extend_path_term_algebra" xlink:title="transitive_extend_path_term_algebra">
<ellipse fill="#f070d1" stroke="black" cx="1279" cy="-430.75" rx="183.07" ry="18"/>
<text text-anchor="middle" x="1279" y="-427.05" font-family="Times,serif" font-size="14.00">transitive_extend_path_term_algebra</text>
</a>
</g>
</g>
<!-- TermAlgebra_equivrel_extend_path_term_algebra&#45;&gt;TermAlgebra_transitive_extend_path_term_algebra -->
<g id="edge30" class="edge">
<title>TermAlgebra_equivrel_extend_path_term_algebra&#45;&gt;TermAlgebra_transitive_extend_path_term_algebra</title>
<path fill="none" stroke="black" d="M1269.12,-491.7C1270.83,-481.35 1272.81,-469.31 1274.55,-458.76"/>
<polygon fill="black" stroke="black" points="1278.02,-459.25 1276.19,-448.81 1271.11,-458.11 1278.02,-459.25"/>
</g>
<!-- TermAlgebra_symmetric_extend_path_term_algebra -->
<g id="node20" class="node">
<title>TermAlgebra_symmetric_extend_path_term_algebra</title>
<g id="a_node20"><a xlink:href="TermAlgebra.html#symmetric_extend_path_term_algebra" xlink:title="symmetric_extend_path_term_algebra">
<ellipse fill="#f070d1" stroke="black" cx="890" cy="-430.75" rx="187.67" ry="18"/>
<text text-anchor="middle" x="890" y="-427.05" font-family="Times,serif" font-size="14.00">symmetric_extend_path_term_algebra</text>
</a>
</g>
</g>
<!-- TermAlgebra_equivrel_extend_path_term_algebra&#45;&gt;TermAlgebra_symmetric_extend_path_term_algebra -->
<g id="edge31" class="edge">
<title>TermAlgebra_equivrel_extend_path_term_algebra&#45;&gt;TermAlgebra_symmetric_extend_path_term_algebra</title>
<path fill="none" stroke="black" d="M1170.37,-495.3C1108.33,-481.23 1028.13,-463.06 969.41,-449.75"/>
<polygon fill="black" stroke="black" points="969.97,-446.28 959.44,-447.49 968.42,-453.11 969.97,-446.28"/>
</g>
<!-- TermAlgebra_equivrel_extend_path_term_algebra&#45;&gt;TermAlgebra_reflexive_extend_path_term_algebra -->
<g id="edge32" class="edge">
<title>TermAlgebra_equivrel_extend_path_term_algebra&#45;&gt;TermAlgebra_reflexive_extend_path_term_algebra</title>
<path fill="none" stroke="black" d="M1362.9,-495.63C1428.88,-481.39 1514.92,-462.83 1577.23,-449.39"/>
<polygon fill="black" stroke="black" points="1577.99,-452.8 1587.02,-447.27 1576.51,-445.96 1577.99,-452.8"/>
</g>
<!-- TermAlgebra_transitive_extend_path_term_algebra&#45;&gt;TermAlgebra_ExtendPathTermAlgebra -->
<g id="edge33" class="edge">
<title>TermAlgebra_transitive_extend_path_term_algebra&#45;&gt;TermAlgebra_ExtendPathTermAlgebra</title>
<path fill="none" stroke="black" d="M1199.18,-414.53C1129.26,-401.21 1028.07,-381.92 957.39,-368.45"/>
<polygon fill="black" stroke="black" points="957.67,-364.94 947.19,-366.51 956.36,-371.82 957.67,-364.94"/>
</g>
<!-- TermAlgebra_transitive_extend_rel_term_algebra -->
<g id="node25" class="node">
<title>TermAlgebra_transitive_extend_rel_term_algebra</title>
<g id="a_node25"><a xlink:href="TermAlgebra.html#transitive_extend_rel_term_algebra" xlink:title="transitive_extend_rel_term_algebra">
<ellipse fill="#f070d1" stroke="black" cx="1569" cy="-351.75" rx="174.67" ry="18"/>
<text text-anchor="middle" x="1569" y="-348.05" font-family="Times,serif" font-size="14.00">transitive_extend_rel_term_algebra</text>
</a>
</g>
</g>
<!-- TermAlgebra_transitive_extend_path_term_algebra&#45;&gt;TermAlgebra_transitive_extend_rel_term_algebra -->
<g id="edge34" class="edge">
<title>TermAlgebra_transitive_extend_path_term_algebra&#45;&gt;TermAlgebra_transitive_extend_rel_term_algebra</title>
<path fill="none" stroke="black" d="M1339.44,-413.7C1385.87,-401.37 1450.09,-384.32 1498.8,-371.38"/>
<polygon fill="black" stroke="black" points="1499.87,-374.72 1508.64,-368.77 1498.07,-367.96 1499.87,-374.72"/>
</g>
<!-- TermAlgebra_symmetric_extend_path_term_algebra&#45;&gt;TermAlgebra_ExtendPathTermAlgebra -->
<g id="edge35" class="edge">
<title>TermAlgebra_symmetric_extend_path_term_algebra&#45;&gt;TermAlgebra_ExtendPathTermAlgebra</title>
<path fill="none" stroke="black" d="M886.67,-412.66C884.79,-402.99 882.39,-390.68 880.26,-379.73"/>
<polygon fill="black" stroke="black" points="883.67,-378.93 878.32,-369.79 876.8,-380.27 883.67,-378.93"/>
</g>
<!-- TermAlgebra_symmetric_extend_rel_term_algebra -->
<g id="node27" class="node">
<title>TermAlgebra_symmetric_extend_rel_term_algebra</title>
<g id="a_node27"><a xlink:href="TermAlgebra.html#symmetric_extend_rel_term_algebra" xlink:title="symmetric_extend_rel_term_algebra">
<ellipse fill="#f070d1" stroke="black" cx="1197" cy="-351.75" rx="179.27" ry="18"/>
<text text-anchor="middle" x="1197" y="-348.05" font-family="Times,serif" font-size="14.00">symmetric_extend_rel_term_algebra</text>
</a>
</g>
</g>
<!-- TermAlgebra_symmetric_extend_path_term_algebra&#45;&gt;TermAlgebra_symmetric_extend_rel_term_algebra -->
<g id="edge36" class="edge">
<title>TermAlgebra_symmetric_extend_path_term_algebra&#45;&gt;TermAlgebra_symmetric_extend_rel_term_algebra</title>
<path fill="none" stroke="black" d="M953.61,-413.79C1003.19,-401.36 1072.09,-384.07 1123.93,-371.07"/>
<polygon fill="black" stroke="black" points="1124.89,-374.44 1133.73,-368.61 1123.18,-367.65 1124.89,-374.44"/>
</g>
<!-- TermAlgebra_reflexive_extend_path_term_algebra_path&#45;&gt;TermAlgebra_reflexive_extend_path_term_algebra -->
<g id="edge37" class="edge">
<title>TermAlgebra_reflexive_extend_path_term_algebra_path&#45;&gt;TermAlgebra_reflexive_extend_path_term_algebra</title>
<path fill="none" stroke="black" d="M1669.37,-499.54C1667.59,-487.91 1665.2,-472.29 1663.17,-458.98"/>
<polygon fill="black" stroke="black" points="1666.6,-458.28 1661.63,-448.92 1659.68,-459.34 1666.6,-458.28"/>
</g>
<!-- TermAlgebra_reflexive_extend_path_term_algebra&#45;&gt;TermAlgebra_ExtendPathTermAlgebra -->
<g id="edge38" class="edge">
<title>TermAlgebra_reflexive_extend_path_term_algebra&#45;&gt;TermAlgebra_ExtendPathTermAlgebra</title>
<path fill="none" stroke="black" d="M1530.91,-418.16C1356.28,-402.33 1059.34,-375.26 1009,-369.75 997.53,-368.49 985.51,-367.09 973.59,-365.64"/>
<polygon fill="black" stroke="black" points="973.96,-362.16 963.61,-364.42 973.11,-369.11 973.96,-362.16"/>
</g>
<!-- TermAlgebra_reflexive_extend_rel_term_algebra -->
<g id="node29" class="node">
<title>TermAlgebra_reflexive_extend_rel_term_algebra</title>
<g id="a_node29"><a xlink:href="TermAlgebra.html#reflexive_extend_rel_term_algebra" xlink:title="reflexive_extend_rel_term_algebra">
<ellipse fill="#f070d1" stroke="black" cx="1932" cy="-351.75" rx="170.07" ry="18"/>
<text text-anchor="middle" x="1932" y="-348.05" font-family="Times,serif" font-size="14.00">reflexive_extend_rel_term_algebra</text>
</a>
</g>
</g>
<!-- TermAlgebra_reflexive_extend_path_term_algebra&#45;&gt;TermAlgebra_reflexive_extend_rel_term_algebra -->
<g id="edge39" class="edge">
<title>TermAlgebra_reflexive_extend_path_term_algebra&#45;&gt;TermAlgebra_reflexive_extend_rel_term_algebra</title>
<path fill="none" stroke="black" d="M1716.23,-413.6C1759.78,-401.32 1819.81,-384.39 1865.5,-371.5"/>
<polygon fill="black" stroke="black" points="1866.64,-374.82 1875.31,-368.73 1864.74,-368.08 1866.64,-374.82"/>
</g>
<!-- TermAlgebra_ExtendRelTermAlgebra -->
<g id="node31" class="node">
<title>TermAlgebra_ExtendRelTermAlgebra</title>
<g id="a_node31"><a xlink:href="TermAlgebra.html#ExtendRelTermAlgebra" xlink:title="ExtendRelTermAlgebra">
<ellipse fill="#f070d1" stroke="black" cx="982" cy="-273.75" rx="118.88" ry="18"/>
<text text-anchor="middle" x="982" y="-270.05" font-family="Times,serif" font-size="14.00">ExtendRelTermAlgebra</text>
</a>
</g>
</g>
<!-- TermAlgebra_ExtendPathTermAlgebra&#45;&gt;TermAlgebra_ExtendRelTermAlgebra -->
<g id="edge40" class="edge">
<title>TermAlgebra_ExtendPathTermAlgebra&#45;&gt;TermAlgebra_ExtendRelTermAlgebra</title>
<path fill="none" stroke="black" d="M898.48,-334.07C913.57,-323.35 933.37,-309.29 949.9,-297.55"/>
<polygon fill="black" stroke="black" points="952.08,-300.29 958.2,-291.65 948.02,-294.59 952.08,-300.29"/>
</g>
<!-- TermAlgebra_equivrel_extend_rel_term_algebra&#45;&gt;TermAlgebra_transitive_extend_rel_term_algebra -->
<g id="edge41" class="edge">
<title>TermAlgebra_equivrel_extend_rel_term_algebra&#45;&gt;TermAlgebra_transitive_extend_rel_term_algebra</title>
<path fill="none" stroke="black" d="M1938.15,-415.22C1860.6,-402.09 1746.58,-382.8 1665.82,-369.13"/>
<polygon fill="black" stroke="black" points="1666.09,-365.63 1655.64,-367.41 1664.92,-372.53 1666.09,-365.63"/>
</g>
<!-- TermAlgebra_equivrel_extend_rel_term_algebra&#45;&gt;TermAlgebra_symmetric_extend_rel_term_algebra -->
<g id="edge42" class="edge">
<title>TermAlgebra_equivrel_extend_rel_term_algebra&#45;&gt;TermAlgebra_symmetric_extend_rel_term_algebra</title>
<path fill="none" stroke="black" d="M1903.56,-418.12C1884.64,-416.31 1865.29,-414.47 1847,-412.75 1670.37,-396.11 1466.7,-377.38 1335.11,-365.34"/>
<polygon fill="black" stroke="black" points="1335.25,-361.84 1324.97,-364.42 1334.61,-368.81 1335.25,-361.84"/>
</g>
<!-- TermAlgebra_equivrel_extend_rel_term_algebra&#45;&gt;TermAlgebra_reflexive_extend_rel_term_algebra -->
<g id="edge43" class="edge">
<title>TermAlgebra_equivrel_extend_rel_term_algebra&#45;&gt;TermAlgebra_reflexive_extend_rel_term_algebra</title>
<path fill="none" stroke="black" d="M2003.58,-412.66C1990.84,-401.99 1974.25,-388.11 1960.25,-376.39"/>
<polygon fill="black" stroke="black" points="1962.28,-373.52 1952.36,-369.79 1957.78,-378.89 1962.28,-373.52"/>
</g>
<!-- TermAlgebra_transitive_extend_drel_term_algebra -->
<g id="node26" class="node">
<title>TermAlgebra_transitive_extend_drel_term_algebra</title>
<g id="a_node26"><a xlink:href="TermAlgebra.html#transitive_extend_drel_term_algebra" xlink:title="transitive_extend_drel_term_algebra">
<ellipse fill="#f070d1" stroke="black" cx="1688" cy="-273.75" rx="180.87" ry="18"/>
<text text-anchor="middle" x="1688" y="-270.05" font-family="Times,serif" font-size="14.00">transitive_extend_drel_term_algebra</text>
</a>
</g>
</g>
<!-- TermAlgebra_transitive_extend_rel_term_algebra&#45;&gt;TermAlgebra_transitive_extend_drel_term_algebra -->
<g id="edge44" class="edge">
<title>TermAlgebra_transitive_extend_rel_term_algebra&#45;&gt;TermAlgebra_transitive_extend_drel_term_algebra</title>
<path fill="none" stroke="black" d="M1595.41,-333.88C1612.43,-323.01 1634.76,-308.75 1653.22,-296.96"/>
<polygon fill="black" stroke="black" points="1655.12,-299.9 1661.66,-291.57 1651.35,-294 1655.12,-299.9"/>
</g>
<!-- TermAlgebra_transitive_extend_rel_term_algebra&#45;&gt;TermAlgebra_ExtendRelTermAlgebra -->
<g id="edge45" class="edge">
<title>TermAlgebra_transitive_extend_rel_term_algebra&#45;&gt;TermAlgebra_ExtendRelTermAlgebra</title>
<path fill="none" stroke="black" d="M1463.7,-337.34C1370.66,-325.46 1231.29,-307.6 1110,-291.75 1099.72,-290.4 1088.99,-288.99 1078.29,-287.58"/>
<polygon fill="black" stroke="black" points="1078.43,-284.07 1068.06,-286.23 1077.51,-291.01 1078.43,-284.07"/>
</g>
<!-- TermAlgebra_transitive_extend_drel_term_algebra&#45;&gt;TermAlgebra_ExtendDRelTermAlgebra -->
<g id="edge46" class="edge">
<title>TermAlgebra_transitive_extend_drel_term_algebra&#45;&gt;TermAlgebra_ExtendDRelTermAlgebra</title>
<path fill="none" stroke="black" d="M1571.62,-259.94C1438.86,-245.34 1223.56,-221.66 1094.89,-207.5"/>
<polygon fill="black" stroke="black" points="1094.95,-203.99 1084.63,-206.37 1094.18,-210.95 1094.95,-203.99"/>
</g>
<!-- TermAlgebra_transitive_extend_drel_term_algebra&#45;&gt;TermAlgebra_CarriersTermAlgebra_rect -->
<g id="edge47" class="edge">
<title>TermAlgebra_transitive_extend_drel_term_algebra&#45;&gt;TermAlgebra_CarriersTermAlgebra_rect</title>
<path fill="none" stroke="black" d="M1611.21,-257.35C1545.64,-244.2 1451.6,-225.34 1384.88,-211.96"/>
<polygon fill="black" stroke="black" points="1385.32,-208.48 1374.82,-209.95 1383.94,-215.35 1385.32,-208.48"/>
</g>
<!-- TermAlgebra_symmetric_extend_drel_term_algebra -->
<g id="node28" class="node">
<title>TermAlgebra_symmetric_extend_drel_term_algebra</title>
<g id="a_node28"><a xlink:href="TermAlgebra.html#symmetric_extend_drel_term_algebra" xlink:title="symmetric_extend_drel_term_algebra">
<ellipse fill="#f070d1" stroke="black" cx="1304" cy="-273.75" rx="185.47" ry="18"/>
<text text-anchor="middle" x="1304" y="-270.05" font-family="Times,serif" font-size="14.00">symmetric_extend_drel_term_algebra</text>
</a>
</g>
</g>
<!-- TermAlgebra_symmetric_extend_rel_term_algebra&#45;&gt;TermAlgebra_symmetric_extend_drel_term_algebra -->
<g id="edge48" class="edge">
<title>TermAlgebra_symmetric_extend_rel_term_algebra&#45;&gt;TermAlgebra_symmetric_extend_drel_term_algebra</title>
<path fill="none" stroke="black" d="M1220.75,-333.88C1235.74,-323.23 1255.31,-309.33 1271.71,-297.68"/>
<polygon fill="black" stroke="black" points="1273.82,-300.47 1279.95,-291.83 1269.77,-294.77 1273.82,-300.47"/>
</g>
<!-- TermAlgebra_symmetric_extend_rel_term_algebra&#45;&gt;TermAlgebra_ExtendRelTermAlgebra -->
<g id="edge49" class="edge">
<title>TermAlgebra_symmetric_extend_rel_term_algebra&#45;&gt;TermAlgebra_ExtendRelTermAlgebra</title>
<path fill="none" stroke="black" d="M1150.61,-334.35C1116.99,-322.46 1071.42,-306.35 1036.13,-293.88"/>
<polygon fill="black" stroke="black" points="1037.06,-290.5 1026.47,-290.46 1034.73,-297.1 1037.06,-290.5"/>
</g>
<!-- TermAlgebra_symmetric_extend_drel_term_algebra&#45;&gt;TermAlgebra_ExtendDRelTermAlgebra -->
<g id="edge50" class="edge">
<title>TermAlgebra_symmetric_extend_drel_term_algebra&#45;&gt;TermAlgebra_ExtendDRelTermAlgebra</title>
<path fill="none" stroke="black" d="M1238.91,-256.88C1186.35,-244.08 1112.52,-226.09 1058.56,-212.94"/>
<polygon fill="black" stroke="black" points="1059.27,-209.51 1048.72,-210.54 1057.61,-216.31 1059.27,-209.51"/>
</g>
<!-- TermAlgebra_symmetric_extend_drel_term_algebra&#45;&gt;TermAlgebra_CarriersTermAlgebra_rect -->
<g id="edge51" class="edge">
<title>TermAlgebra_symmetric_extend_drel_term_algebra&#45;&gt;TermAlgebra_CarriersTermAlgebra_rect</title>
<path fill="none" stroke="black" d="M1304,-255.66C1304,-246.09 1304,-233.93 1304,-223.07"/>
<polygon fill="black" stroke="black" points="1307.5,-222.79 1304,-212.79 1300.5,-222.79 1307.5,-222.79"/>
</g>
<!-- TermAlgebra_reflexive_extend_rel_term_algebra&#45;&gt;TermAlgebra_ExtendRelTermAlgebra -->
<g id="edge52" class="edge">
<title>TermAlgebra_reflexive_extend_rel_term_algebra&#45;&gt;TermAlgebra_ExtendRelTermAlgebra</title>
<path fill="none" stroke="black" d="M1812.17,-338.87C1792.41,-337.06 1772.14,-335.28 1753,-333.75 1467.53,-310.87 1394.99,-319.95 1110,-291.75 1098.78,-290.64 1087.04,-289.31 1075.4,-287.89"/>
<polygon fill="black" stroke="black" points="1075.58,-284.38 1065.22,-286.62 1074.71,-291.33 1075.58,-284.38"/>
</g>
<!-- TermAlgebra_reflexive_extend_rel_term_algebra&#45;&gt;TermAlgebra_CarriersTermAlgebra_rect -->
<g id="edge53" class="edge">
<title>TermAlgebra_reflexive_extend_rel_term_algebra&#45;&gt;TermAlgebra_CarriersTermAlgebra_rect</title>
<path fill="none" stroke="black" d="M1927.55,-333.69C1920.82,-311.64 1905.79,-273.91 1878,-255.75 1841.69,-232.01 1591.78,-212.92 1433.91,-203.07"/>
<polygon fill="black" stroke="black" points="1433.85,-199.55 1423.65,-202.43 1433.41,-206.54 1433.85,-199.55"/>
</g>
<!-- TermAlgebra_hprop_extend_drel_term_algebra&#45;&gt;TermAlgebra_ExtendDRelTermAlgebra -->
<g id="edge54" class="edge">
<title>TermAlgebra_hprop_extend_drel_term_algebra&#45;&gt;TermAlgebra_ExtendDRelTermAlgebra</title>
<path fill="none" stroke="black" d="M744.29,-257.07C794.94,-244.33 866.34,-226.36 918.76,-213.17"/>
<polygon fill="black" stroke="black" points="919.81,-216.51 928.65,-210.68 918.1,-209.73 919.81,-216.51"/>
</g>
<!-- TermAlgebra_hprop_extend_drel_term_algebra&#45;&gt;TermAlgebra_CarriersTermAlgebra_rect -->
<g id="edge55" class="edge">
<title>TermAlgebra_hprop_extend_drel_term_algebra&#45;&gt;TermAlgebra_CarriersTermAlgebra_rect</title>
<path fill="none" stroke="black" d="M786.11,-259.86C900.92,-245.64 1084.58,-222.91 1199.53,-208.68"/>
<polygon fill="black" stroke="black" points="1200.25,-212.12 1209.75,-207.41 1199.39,-205.17 1200.25,-212.12"/>
</g>
<!-- TermAlgebra_ExtendRelTermAlgebra&#45;&gt;TermAlgebra_ExtendDRelTermAlgebra -->
<g id="edge56" class="edge">
<title>TermAlgebra_ExtendRelTermAlgebra&#45;&gt;TermAlgebra_ExtendDRelTermAlgebra</title>
<path fill="none" stroke="black" d="M983.33,-255.66C984.08,-246.09 985.02,-233.93 985.87,-223.07"/>
<polygon fill="black" stroke="black" points="989.38,-223.03 986.67,-212.79 982.41,-222.48 989.38,-223.03"/>
</g>
<!-- TermAlgebra_CarriersTermAlgebra -->
<g id="node38" class="node">
<title>TermAlgebra_CarriersTermAlgebra</title>
<g id="a_node38"><a xlink:href="TermAlgebra.html#CarriersTermAlgebra" xlink:title="CarriersTermAlgebra">
<ellipse fill="#e2cdfa" stroke="black" cx="1008" cy="-36.75" rx="109.38" ry="18"/>
<text text-anchor="middle" x="1008" y="-33.05" font-family="Times,serif" font-size="14.00">CarriersTermAlgebra</text>
</a>
</g>
</g>
<!-- TermAlgebra_ExtendDRelTermAlgebra&#45;&gt;TermAlgebra_CarriersTermAlgebra -->
<g id="edge57" class="edge">
<title>TermAlgebra_ExtendDRelTermAlgebra&#45;&gt;TermAlgebra_CarriersTermAlgebra</title>
<path fill="none" stroke="black" d="M990.22,-176.46C993.67,-149.51 1000.37,-97.29 1004.48,-65.17"/>
<polygon fill="black" stroke="black" points="1007.97,-65.48 1005.77,-55.11 1001.03,-64.59 1007.97,-65.48"/>
</g>
<!-- TermAlgebra_CarriersTermAlgebra_ind -->
<g id="node35" class="node">
<title>TermAlgebra_CarriersTermAlgebra_ind</title>
<g id="a_node35"><a xlink:href="TermAlgebra.html#CarriersTermAlgebra_ind" xlink:title="CarriersTermAlgebra_ind">
<ellipse fill="#f070d1" stroke="black" cx="1304" cy="-115.75" rx="128.08" ry="18"/>
<text text-anchor="middle" x="1304" y="-112.05" font-family="Times,serif" font-size="14.00">CarriersTermAlgebra_ind</text>
</a>
</g>
</g>
<!-- TermAlgebra_CarriersTermAlgebra_rec&#45;&gt;TermAlgebra_CarriersTermAlgebra_ind -->
<g id="edge58" class="edge">
<title>TermAlgebra_CarriersTermAlgebra_rec&#45;&gt;TermAlgebra_CarriersTermAlgebra_ind</title>
<path fill="none" stroke="black" d="M1747.42,-181.29C1652.15,-167.42 1498.57,-145.07 1399.47,-130.64"/>
<polygon fill="black" stroke="black" points="1399.86,-127.16 1389.46,-129.18 1398.85,-134.09 1399.86,-127.16"/>
</g>
<!-- TermAlgebra_CarriersTermAlgebra_rect&#45;&gt;TermAlgebra_CarriersTermAlgebra_ind -->
<g id="edge59" class="edge">
<title>TermAlgebra_CarriersTermAlgebra_rect&#45;&gt;TermAlgebra_CarriersTermAlgebra_ind</title>
<path fill="none" stroke="black" d="M1304,-176.66C1304,-167.09 1304,-154.93 1304,-144.07"/>
<polygon fill="black" stroke="black" points="1307.5,-143.79 1304,-133.79 1300.5,-143.79 1307.5,-143.79"/>
</g>
<!-- TermAlgebra_ops_term_algebra -->
<g id="node36" class="node">
<title>TermAlgebra_ops_term_algebra</title>
<g id="a_node36"><a xlink:href="TermAlgebra.html#ops_term_algebra" xlink:title="ops_term_algebra">
<ellipse fill="#7faaff" stroke="black" cx="1279" cy="-36.75" rx="92.88" ry="18"/>
<text text-anchor="middle" x="1279" y="-33.05" font-family="Times,serif" font-size="14.00">ops_term_algebra</text>
</a>
</g>
</g>
<!-- TermAlgebra_CarriersTermAlgebra_ind&#45;&gt;TermAlgebra_ops_term_algebra -->
<g id="edge60" class="edge">
<title>TermAlgebra_CarriersTermAlgebra_ind&#45;&gt;TermAlgebra_ops_term_algebra</title>
<path fill="none" stroke="black" d="M1298.45,-97.66C1295.28,-87.89 1291.23,-75.42 1287.65,-64.39"/>
<polygon fill="black" stroke="black" points="1290.95,-63.22 1284.53,-54.79 1284.29,-65.38 1290.95,-63.22"/>
</g>
<!-- TermAlgebra_var_term_algebra -->
<g id="node37" class="node">
<title>TermAlgebra_var_term_algebra</title>
<g id="a_node37"><a xlink:href="TermAlgebra.html#var_term_algebra" xlink:title="var_term_algebra">
<ellipse fill="#7faaff" stroke="black" cx="1482" cy="-36.75" rx="92.08" ry="18"/>
<text text-anchor="middle" x="1482" y="-33.05" font-family="Times,serif" font-size="14.00">var_term_algebra</text>
</a>
</g>
</g>
<!-- TermAlgebra_CarriersTermAlgebra_ind&#45;&gt;TermAlgebra_var_term_algebra -->
<g id="edge61" class="edge">
<title>TermAlgebra_CarriersTermAlgebra_ind&#45;&gt;TermAlgebra_var_term_algebra</title>
<path fill="none" stroke="black" d="M1341.75,-98.42C1369.47,-86.43 1407.25,-70.08 1436.61,-57.38"/>
<polygon fill="black" stroke="black" points="1438.04,-60.58 1445.82,-53.39 1435.26,-54.15 1438.04,-60.58"/>
</g>
<!-- TermAlgebra_CarriersTermAlgebra_ind&#45;&gt;TermAlgebra_CarriersTermAlgebra -->
<g id="edge62" class="edge">
<title>TermAlgebra_CarriersTermAlgebra_ind&#45;&gt;TermAlgebra_CarriersTermAlgebra</title>
<path fill="none" stroke="black" d="M1245.87,-99.62C1196.37,-86.75 1125.26,-68.25 1073.7,-54.84"/>
<polygon fill="black" stroke="black" points="1074.55,-51.44 1063.99,-52.31 1072.78,-58.21 1074.55,-51.44"/>
</g>
</g>
</svg>
