<?xml version="1.0" encoding="UTF-8" standalone="no"?>
<!DOCTYPE svg PUBLIC "-//W3C//DTD SVG 1.1//EN"
 "http://www.w3.org/Graphics/SVG/1.1/DTD/svg11.dtd">
<!-- Generated by graphviz version 2.43.0 (0)
 -->
<!-- Title: HoTT_HSet Pages: 1 -->
<svg width="1998pt" height="1003pt"
 viewBox="0.00 0.00 1998.00 1003.00" xmlns="http://www.w3.org/2000/svg" xmlns:xlink="http://www.w3.org/1999/xlink">
<g id="graph0" class="graph" transform="scale(1 1) rotate(0) translate(4 999)">
<title>HoTT_HSet</title>
<polygon fill="white" stroke="transparent" points="-4,4 -4,-999 1994,-999 1994,4 -4,4"/>
<g id="clust1" class="cluster">
<title>cluster_HSet</title>
<polygon fill="#ffffc3" stroke="black" points="8,-23.48 8,-971.52 1982,-971.52 1982,-23.48 8,-23.48"/>
<text text-anchor="middle" x="34.5" y="-956.32" font-family="Times,serif" font-size="14.00">HSet</text>
</g>
<!-- HSet_cancelL_isembedding -->
<g id="node1" class="node">
<title>HSet_cancelL_isembedding</title>
<g id="a_node1"><a xlink:href="HSet.html#cancelL_isembedding" xlink:title="cancelL_isembedding">
<ellipse fill="#f070d1" stroke="black" cx="1114" cy="-804.48" rx="109.69" ry="18"/>
<ellipse fill="none" stroke="black" cx="1114" cy="-804.48" rx="113.69" ry="22"/>
<ellipse fill="none" stroke="black" cx="1114" cy="-804.48" rx="117.68" ry="26"/>
<text text-anchor="middle" x="1114" y="-800.78" font-family="Times,serif" font-size="14.00">cancelL_isembedding</text>
</a>
</g>
</g>
<!-- HSet_cancelL_isinjective -->
<g id="node2" class="node">
<title>HSet_cancelL_isinjective</title>
<g id="a_node2"><a xlink:href="HSet.html#cancelL_isinjective" xlink:title="cancelL_isinjective">
<ellipse fill="#f070d1" stroke="black" cx="727" cy="-545.48" rx="97.48" ry="18"/>
<text text-anchor="middle" x="727" y="-541.78" font-family="Times,serif" font-size="14.00">cancelL_isinjective</text>
</a>
</g>
</g>
<!-- HSet_cancelL_isembedding&#45;&gt;HSet_cancelL_isinjective -->
<g id="edge1" class="edge">
<title>HSet_cancelL_isembedding&#45;&gt;HSet_cancelL_isinjective</title>
<path fill="none" stroke="black" d="M1077.94,-779.53C1003.44,-730.06 833.46,-617.18 760.88,-568.98"/>
<polygon fill="black" stroke="black" points="762.38,-565.77 752.11,-563.16 758.51,-571.6 762.38,-565.77"/>
</g>
<!-- HSet_isembedding_isinj_hset -->
<g id="node6" class="node">
<title>HSet_isembedding_isinj_hset</title>
<g id="a_node6"><a xlink:href="HSet.html#isembedding_isinj_hset" xlink:title="isembedding_isinj_hset">
<ellipse fill="#f070d1" stroke="black" cx="1130" cy="-545.48" rx="118.08" ry="18"/>
<text text-anchor="middle" x="1130" y="-541.78" font-family="Times,serif" font-size="14.00">isembedding_isinj_hset</text>
</a>
</g>
</g>
<!-- HSet_cancelL_isembedding&#45;&gt;HSet_isembedding_isinj_hset -->
<g id="edge2" class="edge">
<title>HSet_cancelL_isembedding&#45;&gt;HSet_isembedding_isinj_hset</title>
<path fill="none" stroke="black" d="M1115.56,-778.37C1118.58,-729.89 1125.19,-623.77 1128.31,-573.68"/>
<polygon fill="black" stroke="black" points="1131.81,-573.81 1128.93,-563.61 1124.82,-573.37 1131.81,-573.81"/>
</g>
<!-- HSet_isinj_embedding -->
<g id="node9" class="node">
<title>HSet_isinj_embedding</title>
<g id="a_node9"><a xlink:href="HSet.html#isinj_embedding" xlink:title="isinj_embedding">
<ellipse fill="#f070d1" stroke="black" cx="1353" cy="-545.48" rx="86.38" ry="18"/>
<text text-anchor="middle" x="1353" y="-541.78" font-family="Times,serif" font-size="14.00">isinj_embedding</text>
</a>
</g>
</g>
<!-- HSet_cancelL_isembedding&#45;&gt;HSet_isinj_embedding -->
<g id="edge3" class="edge">
<title>HSet_cancelL_isembedding&#45;&gt;HSet_isinj_embedding</title>
<path fill="none" stroke="black" d="M1136.92,-778.84C1182.62,-729.69 1284.64,-619.99 1330.23,-570.97"/>
<polygon fill="black" stroke="black" points="1333.05,-573.07 1337.3,-563.36 1327.93,-568.3 1333.05,-573.07"/>
</g>
<!-- HSet_isinj -->
<g id="node10" class="node">
<title>HSet_isinj</title>
<g id="a_node10"><a xlink:href="HSet.html#isinj" xlink:title="isinj">
<ellipse fill="#f070d1" stroke="black" cx="1241" cy="-311.48" rx="30.59" ry="18"/>
<text text-anchor="middle" x="1241" y="-307.78" font-family="Times,serif" font-size="14.00">isinj</text>
</a>
</g>
</g>
<!-- HSet_cancelL_isinjective&#45;&gt;HSet_isinj -->
<g id="edge4" class="edge">
<title>HSet_cancelL_isinjective&#45;&gt;HSet_isinj</title>
<path fill="none" stroke="black" d="M762.33,-528.53C857.09,-485.77 1115.91,-368.94 1207.96,-327.39"/>
<polygon fill="black" stroke="black" points="1209.67,-330.46 1217.34,-323.16 1206.79,-324.08 1209.67,-330.46"/>
</g>
<!-- HSet_ismono_isequiv -->
<g id="node3" class="node">
<title>HSet_ismono_isequiv</title>
<g id="a_node3"><a xlink:href="HSet.html#ismono_isequiv" xlink:title="ismono_isequiv">
<ellipse fill="#f070d1" stroke="black" cx="1885" cy="-545.48" rx="81.46" ry="18"/>
<ellipse fill="none" stroke="black" cx="1885" cy="-545.48" rx="85.48" ry="22"/>
<ellipse fill="none" stroke="black" cx="1885" cy="-545.48" rx="89.49" ry="26"/>
<text text-anchor="middle" x="1885" y="-541.78" font-family="Times,serif" font-size="14.00">ismono_isequiv</text>
</a>
</g>
</g>
<!-- HSet_ismono -->
<g id="node11" class="node">
<title>HSet_ismono</title>
<g id="a_node11"><a xlink:href="HSet.html#ismono" xlink:title="ismono">
<ellipse fill="#f070d1" stroke="black" cx="1702" cy="-311.48" rx="44.39" ry="18"/>
<text text-anchor="middle" x="1702" y="-307.78" font-family="Times,serif" font-size="14.00">ismono</text>
</a>
</g>
</g>
<!-- HSet_ismono_isequiv&#45;&gt;HSet_ismono -->
<g id="edge5" class="edge">
<title>HSet_ismono_isequiv&#45;&gt;HSet_ismono</title>
<path fill="none" stroke="black" d="M1865.76,-520.09C1830.59,-475.5 1756.3,-381.32 1721.17,-336.79"/>
<polygon fill="black" stroke="black" points="1723.83,-334.51 1714.89,-328.82 1718.34,-338.84 1723.83,-334.51"/>
</g>
<!-- HSet_isinj_ismono -->
<g id="node4" class="node">
<title>HSet_isinj_ismono</title>
<g id="a_node4"><a xlink:href="HSet.html#isinj_ismono" xlink:title="isinj_ismono">
<ellipse fill="#f070d1" stroke="black" cx="1702" cy="-545.48" rx="67.68" ry="18"/>
<ellipse fill="none" stroke="black" cx="1702" cy="-545.48" rx="71.68" ry="22"/>
<ellipse fill="none" stroke="black" cx="1702" cy="-545.48" rx="75.69" ry="26"/>
<text text-anchor="middle" x="1702" y="-541.78" font-family="Times,serif" font-size="14.00">isinj_ismono</text>
</a>
</g>
</g>
<!-- HSet_isinj_ismono&#45;&gt;HSet_isinj -->
<g id="edge6" class="edge">
<title>HSet_isinj_ismono&#45;&gt;HSet_isinj</title>
<path fill="none" stroke="black" d="M1660.68,-523.69C1569.79,-477.95 1354.12,-369.41 1272.78,-328.47"/>
<polygon fill="black" stroke="black" points="1274.05,-325.2 1263.54,-323.83 1270.9,-331.45 1274.05,-325.2"/>
</g>
<!-- HSet_isinj_ismono&#45;&gt;HSet_ismono -->
<g id="edge7" class="edge">
<title>HSet_isinj_ismono&#45;&gt;HSet_ismono</title>
<path fill="none" stroke="black" d="M1702,-519.21C1702,-475.27 1702,-385.15 1702,-339.81"/>
<polygon fill="black" stroke="black" points="1705.5,-339.56 1702,-329.56 1698.5,-339.56 1705.5,-339.56"/>
</g>
<!-- HSet_ismono_isinj -->
<g id="node5" class="node">
<title>HSet_ismono_isinj</title>
<g id="a_node5"><a xlink:href="HSet.html#ismono_isinj" xlink:title="ismono_isinj">
<ellipse fill="#f070d1" stroke="black" cx="1533" cy="-545.48" rx="67.68" ry="18"/>
<ellipse fill="none" stroke="black" cx="1533" cy="-545.48" rx="71.68" ry="22"/>
<ellipse fill="none" stroke="black" cx="1533" cy="-545.48" rx="75.69" ry="26"/>
<text text-anchor="middle" x="1533" y="-541.78" font-family="Times,serif" font-size="14.00">ismono_isinj</text>
</a>
</g>
</g>
<!-- HSet_ismono_isinj&#45;&gt;HSet_isinj -->
<g id="edge8" class="edge">
<title>HSet_ismono_isinj&#45;&gt;HSet_isinj</title>
<path fill="none" stroke="black" d="M1503.93,-521.39C1446.84,-476.02 1320.87,-375.94 1266.65,-332.86"/>
<polygon fill="black" stroke="black" points="1268.59,-329.93 1258.58,-326.45 1264.24,-335.41 1268.59,-329.93"/>
</g>
<!-- HSet_ismono_isinj&#45;&gt;HSet_ismono -->
<g id="edge9" class="edge">
<title>HSet_ismono_isinj&#45;&gt;HSet_ismono</title>
<path fill="none" stroke="black" d="M1550.77,-520.09C1583.18,-475.59 1651.57,-381.71 1684.09,-337.07"/>
<polygon fill="black" stroke="black" points="1687.04,-338.97 1690.1,-328.82 1681.38,-334.85 1687.04,-338.97"/>
</g>
<!-- HSet_isembedding_isinj_hset&#45;&gt;HSet_isinj -->
<g id="edge10" class="edge">
<title>HSet_isembedding_isinj_hset&#45;&gt;HSet_isinj</title>
<path fill="none" stroke="black" d="M1138.16,-527.42C1157.46,-487.09 1205.98,-385.67 1228.79,-337.99"/>
<polygon fill="black" stroke="black" points="1231.97,-339.47 1233.12,-328.94 1225.65,-336.45 1231.97,-339.47"/>
</g>
<!-- HSet_isinj_section -->
<g id="node7" class="node">
<title>HSet_isinj_section</title>
<g id="a_node7"><a xlink:href="HSet.html#isinj_section" xlink:title="isinj_section">
<ellipse fill="#f070d1" stroke="black" cx="918" cy="-545.48" rx="67.68" ry="18"/>
<ellipse fill="none" stroke="black" cx="918" cy="-545.48" rx="71.68" ry="22"/>
<ellipse fill="none" stroke="black" cx="918" cy="-545.48" rx="75.69" ry="26"/>
<text text-anchor="middle" x="918" y="-541.78" font-family="Times,serif" font-size="14.00">isinj_section</text>
</a>
</g>
</g>
<!-- HSet_isinj_section&#45;&gt;HSet_isinj -->
<g id="edge11" class="edge">
<title>HSet_isinj_section&#45;&gt;HSet_isinj</title>
<path fill="none" stroke="black" d="M949.56,-521.81C1012.95,-476.28 1154.76,-374.42 1214.09,-331.81"/>
<polygon fill="black" stroke="black" points="1216.15,-334.64 1222.23,-325.96 1212.07,-328.95 1216.15,-334.64"/>
</g>
<!-- HSet_isinj_embedding_beta -->
<g id="node8" class="node">
<title>HSet_isinj_embedding_beta</title>
<g id="a_node8"><a xlink:href="HSet.html#isinj_embedding_beta" xlink:title="isinj_embedding_beta">
<ellipse fill="#f070d1" stroke="black" cx="1369" cy="-804.48" rx="111.27" ry="18"/>
<ellipse fill="none" stroke="black" cx="1369" cy="-804.48" rx="115.28" ry="22"/>
<ellipse fill="none" stroke="black" cx="1369" cy="-804.48" rx="119.28" ry="26"/>
<text text-anchor="middle" x="1369" y="-800.78" font-family="Times,serif" font-size="14.00">isinj_embedding_beta</text>
</a>
</g>
</g>
<!-- HSet_isinj_embedding_beta&#45;&gt;HSet_isinj_embedding -->
<g id="edge12" class="edge">
<title>HSet_isinj_embedding_beta&#45;&gt;HSet_isinj_embedding</title>
<path fill="none" stroke="black" d="M1367.44,-778.37C1364.42,-729.89 1357.81,-623.77 1354.69,-573.68"/>
<polygon fill="black" stroke="black" points="1358.18,-573.37 1354.07,-563.61 1351.19,-573.81 1358.18,-573.37"/>
</g>
<!-- HSet_isinj_embedding&#45;&gt;HSet_isinj -->
<g id="edge13" class="edge">
<title>HSet_isinj_embedding&#45;&gt;HSet_isinj</title>
<path fill="none" stroke="black" d="M1344.76,-527.42C1325.29,-487.09 1276.33,-385.67 1253.32,-337.99"/>
<polygon fill="black" stroke="black" points="1256.45,-336.43 1248.95,-328.94 1250.14,-339.47 1256.45,-336.43"/>
</g>
<!-- HSet_isequiv_hrel_subpaths -->
<g id="node12" class="node">
<title>HSet_isequiv_hrel_subpaths</title>
<g id="a_node12"><a xlink:href="HSet.html#isequiv_hrel_subpaths" xlink:title="isequiv_hrel_subpaths">
<ellipse fill="#f070d1" stroke="black" cx="523" cy="-804.48" rx="113.96" ry="18"/>
<ellipse fill="none" stroke="black" cx="523" cy="-804.48" rx="117.97" ry="22"/>
<ellipse fill="none" stroke="black" cx="523" cy="-804.48" rx="121.98" ry="26"/>
<text text-anchor="middle" x="523" y="-800.78" font-family="Times,serif" font-size="14.00">isequiv_hrel_subpaths</text>
</a>
</g>
</g>
<!-- HSet_ishset_hrel_subpaths -->
<g id="node13" class="node">
<title>HSet_ishset_hrel_subpaths</title>
<g id="a_node13"><a xlink:href="HSet.html#ishset_hrel_subpaths" xlink:title="ishset_hrel_subpaths">
<ellipse fill="#f070d1" stroke="black" cx="503" cy="-545.48" rx="108.58" ry="18"/>
<text text-anchor="middle" x="503" y="-541.78" font-family="Times,serif" font-size="14.00">ishset_hrel_subpaths</text>
</a>
</g>
</g>
<!-- HSet_isequiv_hrel_subpaths&#45;&gt;HSet_ishset_hrel_subpaths -->
<g id="edge14" class="edge">
<title>HSet_isequiv_hrel_subpaths&#45;&gt;HSet_ishset_hrel_subpaths</title>
<path fill="none" stroke="black" d="M521.05,-778.37C517.27,-729.89 509.01,-623.77 505.12,-573.68"/>
<polygon fill="black" stroke="black" points="508.6,-573.31 504.33,-563.61 501.62,-573.85 508.6,-573.31"/>
</g>
<!-- HSet_hset_axiomK -->
<g id="node18" class="node">
<title>HSet_hset_axiomK</title>
<g id="a_node18"><a xlink:href="HSet.html#hset_axiomK" xlink:title="hset_axiomK">
<ellipse fill="#f070d1" stroke="black" cx="277" cy="-311.48" rx="69.59" ry="18"/>
<text text-anchor="middle" x="277" y="-307.78" font-family="Times,serif" font-size="14.00">hset_axiomK</text>
</a>
</g>
</g>
<!-- HSet_ishset_hrel_subpaths&#45;&gt;HSet_hset_axiomK -->
<g id="edge15" class="edge">
<title>HSet_ishset_hrel_subpaths&#45;&gt;HSet_hset_axiomK</title>
<path fill="none" stroke="black" d="M486.38,-527.42C446.69,-486.68 346.3,-383.62 300.47,-336.57"/>
<polygon fill="black" stroke="black" points="302.82,-333.97 293.34,-329.25 297.81,-338.86 302.82,-333.97"/>
</g>
<!-- HSet_axiomK_idpath -->
<g id="node14" class="node">
<title>HSet_axiomK_idpath</title>
<g id="a_node14"><a xlink:href="HSet.html#axiomK_idpath" xlink:title="axiomK_idpath">
<ellipse fill="#f070d1" stroke="black" cx="103" cy="-804.48" rx="79.11" ry="18"/>
<ellipse fill="none" stroke="black" cx="103" cy="-804.48" rx="83.1" ry="22"/>
<ellipse fill="none" stroke="black" cx="103" cy="-804.48" rx="87.09" ry="26"/>
<text text-anchor="middle" x="103" y="-800.78" font-family="Times,serif" font-size="14.00">axiomK_idpath</text>
</a>
</g>
</g>
<!-- HSet_hset_path2 -->
<g id="node15" class="node">
<title>HSet_hset_path2</title>
<g id="a_node15"><a xlink:href="HSet.html#hset_path2" xlink:title="hset_path2">
<ellipse fill="#f070d1" stroke="black" cx="78" cy="-545.48" rx="61.99" ry="18"/>
<text text-anchor="middle" x="78" y="-541.78" font-family="Times,serif" font-size="14.00">hset_path2</text>
</a>
</g>
</g>
<!-- HSet_axiomK_idpath&#45;&gt;HSet_hset_path2 -->
<g id="edge16" class="edge">
<title>HSet_axiomK_idpath&#45;&gt;HSet_hset_path2</title>
<path fill="none" stroke="black" d="M100.56,-778.37C95.84,-729.89 85.52,-623.77 80.65,-573.68"/>
<polygon fill="black" stroke="black" points="84.12,-573.22 79.67,-563.61 77.15,-573.9 84.12,-573.22"/>
</g>
<!-- HSet_axiomK_idpath&#45;&gt;HSet_hset_axiomK -->
<g id="edge17" class="edge">
<title>HSet_axiomK_idpath&#45;&gt;HSet_hset_axiomK</title>
<path fill="none" stroke="black" d="M106.68,-778.17C114.48,-727.78 134.81,-611.81 169,-519.48 194.3,-451.15 237.32,-376.71 260.7,-338.44"/>
<polygon fill="black" stroke="black" points="263.94,-339.86 266.2,-329.51 257.98,-336.19 263.94,-339.86"/>
</g>
<!-- HSet_axiomK_hset -->
<g id="node19" class="node">
<title>HSet_axiomK_hset</title>
<g id="a_node19"><a xlink:href="HSet.html#axiomK_hset" xlink:title="axiomK_hset">
<ellipse fill="#f070d1" stroke="black" cx="120" cy="-311.48" rx="69.59" ry="18"/>
<text text-anchor="middle" x="120" y="-307.78" font-family="Times,serif" font-size="14.00">axiomK_hset</text>
</a>
</g>
</g>
<!-- HSet_hset_path2&#45;&gt;HSet_axiomK_hset -->
<g id="edge18" class="edge">
<title>HSet_hset_path2&#45;&gt;HSet_axiomK_hset</title>
<path fill="none" stroke="black" d="M81.09,-527.42C88.31,-487.53 106.35,-387.91 115.09,-339.6"/>
<polygon fill="black" stroke="black" points="118.57,-340.03 116.91,-329.57 111.68,-338.78 118.57,-340.03"/>
</g>
<!-- HSet_axiomK_isprop -->
<g id="node16" class="node">
<title>HSet_axiomK_isprop</title>
<g id="a_node16"><a xlink:href="HSet.html#axiomK_isprop" xlink:title="axiomK_isprop">
<ellipse fill="#f070d1" stroke="black" cx="296" cy="-804.48" rx="79.11" ry="18"/>
<ellipse fill="none" stroke="black" cx="296" cy="-804.48" rx="83.1" ry="22"/>
<ellipse fill="none" stroke="black" cx="296" cy="-804.48" rx="87.09" ry="26"/>
<text text-anchor="middle" x="296" y="-800.78" font-family="Times,serif" font-size="14.00">axiomK_isprop</text>
</a>
</g>
</g>
<!-- HSet_equiv_hset_axiomK -->
<g id="node17" class="node">
<title>HSet_equiv_hset_axiomK</title>
<g id="a_node17"><a xlink:href="HSet.html#equiv_hset_axiomK" xlink:title="equiv_hset_axiomK">
<ellipse fill="#f070d1" stroke="black" cx="277" cy="-545.48" rx="99.38" ry="18"/>
<text text-anchor="middle" x="277" y="-541.78" font-family="Times,serif" font-size="14.00">equiv_hset_axiomK</text>
</a>
</g>
</g>
<!-- HSet_axiomK_isprop&#45;&gt;HSet_equiv_hset_axiomK -->
<g id="edge19" class="edge">
<title>HSet_axiomK_isprop&#45;&gt;HSet_equiv_hset_axiomK</title>
<path fill="none" stroke="black" d="M294.14,-778.37C290.56,-729.89 282.71,-623.77 279.01,-573.68"/>
<polygon fill="black" stroke="black" points="282.49,-573.32 278.27,-563.61 275.51,-573.84 282.49,-573.32"/>
</g>
<!-- HSet_equiv_hset_axiomK&#45;&gt;HSet_hset_axiomK -->
<g id="edge20" class="edge">
<title>HSet_equiv_hset_axiomK&#45;&gt;HSet_hset_axiomK</title>
<path fill="none" stroke="black" d="M277,-527.42C277,-487.53 277,-387.91 277,-339.6"/>
<polygon fill="black" stroke="black" points="280.5,-339.57 277,-329.57 273.5,-339.57 280.5,-339.57"/>
</g>
<!-- HSet_equiv_hset_axiomK&#45;&gt;HSet_axiomK_hset -->
<g id="edge21" class="edge">
<title>HSet_equiv_hset_axiomK&#45;&gt;HSet_axiomK_hset</title>
<path fill="none" stroke="black" d="M265.46,-527.42C238.11,-487.02 169.29,-385.31 137.1,-337.74"/>
<polygon fill="black" stroke="black" points="139.85,-335.57 131.35,-329.25 134.06,-339.5 139.85,-335.57"/>
</g>
<!-- HSet_axiomK -->
<g id="node20" class="node">
<title>HSet_axiomK</title>
<g id="a_node20"><a xlink:href="HSet.html#axiomK" xlink:title="axiomK">
<ellipse fill="#f070d1" stroke="black" cx="198" cy="-99.48" rx="45.49" ry="18"/>
<text text-anchor="middle" x="198" y="-95.78" font-family="Times,serif" font-size="14.00">axiomK</text>
</a>
</g>
</g>
<!-- HSet_hset_axiomK&#45;&gt;HSet_axiomK -->
<g id="edge22" class="edge">
<title>HSet_hset_axiomK&#45;&gt;HSet_axiomK</title>
<path fill="none" stroke="black" d="M270.54,-293.3C256.72,-256.58 224.26,-170.29 207.86,-126.69"/>
<polygon fill="black" stroke="black" points="211.13,-125.44 204.33,-117.32 204.58,-127.91 211.13,-125.44"/>
</g>
<!-- HSet_axiomK_hset&#45;&gt;HSet_axiomK -->
<g id="edge23" class="edge">
<title>HSet_axiomK_hset&#45;&gt;HSet_axiomK</title>
<path fill="none" stroke="black" d="M126.38,-293.3C139.99,-256.66 171.93,-170.66 188.16,-126.96"/>
<polygon fill="black" stroke="black" points="191.55,-127.91 191.75,-117.32 184.98,-125.47 191.55,-127.91"/>
</g>
</g>
</svg>
