<?xml version="1.0" encoding="UTF-8" standalone="no"?>
<!DOCTYPE svg PUBLIC "-//W3C//DTD SVG 1.1//EN"
 "http://www.w3.org/Graphics/SVG/1.1/DTD/svg11.dtd">
<!-- Generated by graphviz version 2.43.0 (0)
 -->
<!-- Title: HoTT_Classes_tactics_ring_tac Pages: 1 -->
<svg width="1411pt" height="709pt"
 viewBox="0.00 0.00 1411.00 709.50" xmlns="http://www.w3.org/2000/svg" xmlns:xlink="http://www.w3.org/1999/xlink">
<g id="graph0" class="graph" transform="scale(1 1) rotate(0) translate(4 705.5)">
<title>HoTT_Classes_tactics_ring_tac</title>
<polygon fill="white" stroke="transparent" points="-4,4 -4,-705.5 1407,-705.5 1407,4 -4,4"/>
<g id="clust1" class="cluster">
<title>cluster_ring_tac</title>
<polygon fill="#ffffc3" stroke="black" points="8,-31.35 8,-670.15 1395,-670.15 1395,-31.35 8,-31.35"/>
<text text-anchor="middle" x="45" y="-654.95" font-family="Times,serif" font-size="14.00">ring_tac</text>
</g>
<!-- ring_tac_ring_mor_almostring_mor -->
<g id="node1" class="node">
<title>ring_tac_ring_mor_almostring_mor</title>
<g id="a_node1"><a xlink:href="ring_tac.html#ring_mor_almostring_mor" xlink:title="ring_mor_almostring_mor">
<ellipse fill="#f070d1" stroke="black" cx="1249" cy="-446.35" rx="129.98" ry="18"/>
<ellipse fill="none" stroke="black" cx="1249" cy="-446.35" rx="133.98" ry="22"/>
<ellipse fill="none" stroke="black" cx="1249" cy="-446.35" rx="137.98" ry="26"/>
<text text-anchor="middle" x="1249" y="-442.65" font-family="Times,serif" font-size="14.00">ring_mor_almostring_mor</text>
</a>
</g>
</g>
<!-- ring_tac_negate_almostneg -->
<g id="node5" class="node">
<title>ring_tac_negate_almostneg</title>
<g id="a_node5"><a xlink:href="ring_tac.html#negate_almostneg" xlink:title="negate_almostneg">
<ellipse fill="#f070d1" stroke="black" cx="1125" cy="-133.35" rx="94.78" ry="18"/>
<text text-anchor="middle" x="1125" y="-129.65" font-family="Times,serif" font-size="14.00">negate_almostneg</text>
</a>
</g>
</g>
<!-- ring_tac_ring_mor_almostring_mor&#45;&gt;ring_tac_negate_almostneg -->
<g id="edge1" class="edge">
<title>ring_tac_ring_mor_almostring_mor&#45;&gt;ring_tac_negate_almostneg</title>
<path fill="none" stroke="black" d="M1238.96,-420.16C1215.85,-362.2 1159.08,-219.84 1135.52,-160.73"/>
<polygon fill="black" stroke="black" points="1138.73,-159.34 1131.78,-151.35 1132.23,-161.93 1138.73,-159.34"/>
</g>
<!-- ring_tac_sr_mor_almostring_mor -->
<g id="node2" class="node">
<title>ring_tac_sr_mor_almostring_mor</title>
<g id="a_node2"><a xlink:href="ring_tac.html#sr_mor_almostring_mor" xlink:title="sr_mor_almostring_mor">
<ellipse fill="#f070d1" stroke="black" cx="762" cy="-446.35" rx="120.46" ry="18"/>
<ellipse fill="none" stroke="black" cx="762" cy="-446.35" rx="124.47" ry="22"/>
<ellipse fill="none" stroke="black" cx="762" cy="-446.35" rx="128.48" ry="26"/>
<text text-anchor="middle" x="762" y="-442.65" font-family="Times,serif" font-size="14.00">sr_mor_almostring_mor</text>
</a>
</g>
</g>
<!-- ring_tac_default_almostneg -->
<g id="node6" class="node">
<title>ring_tac_default_almostneg</title>
<g id="a_node6"><a xlink:href="ring_tac.html#default_almostneg" xlink:title="default_almostneg">
<ellipse fill="#f070d1" stroke="black" cx="636" cy="-133.35" rx="96.38" ry="18"/>
<text text-anchor="middle" x="636" y="-129.65" font-family="Times,serif" font-size="14.00">default_almostneg</text>
</a>
</g>
</g>
<!-- ring_tac_sr_mor_almostring_mor&#45;&gt;ring_tac_default_almostneg -->
<g id="edge2" class="edge">
<title>ring_tac_sr_mor_almostring_mor&#45;&gt;ring_tac_default_almostneg</title>
<path fill="none" stroke="black" d="M751.9,-420.43C728.5,-362.65 670.71,-220.02 646.71,-160.79"/>
<polygon fill="black" stroke="black" points="649.9,-159.34 642.9,-151.38 643.41,-161.97 649.9,-159.34"/>
</g>
<!-- ring_tac_ring_almostring -->
<g id="node3" class="node">
<title>ring_tac_ring_almostring</title>
<g id="a_node3"><a xlink:href="ring_tac.html#ring_almostring" xlink:title="ring_almostring">
<ellipse fill="#f070d1" stroke="black" cx="1001" cy="-446.35" rx="84.49" ry="18"/>
<ellipse fill="none" stroke="black" cx="1001" cy="-446.35" rx="88.49" ry="22"/>
<ellipse fill="none" stroke="black" cx="1001" cy="-446.35" rx="92.49" ry="26"/>
<text text-anchor="middle" x="1001" y="-442.65" font-family="Times,serif" font-size="14.00">ring_almostring</text>
</a>
</g>
</g>
<!-- ring_tac_ring_almostring&#45;&gt;ring_tac_negate_almostneg -->
<g id="edge3" class="edge">
<title>ring_tac_ring_almostring&#45;&gt;ring_tac_negate_almostneg</title>
<path fill="none" stroke="black" d="M1010.94,-420.43C1033.97,-362.65 1090.84,-220.02 1114.46,-160.79"/>
<polygon fill="black" stroke="black" points="1117.76,-161.97 1118.21,-151.38 1111.25,-159.38 1117.76,-161.97"/>
</g>
<!-- ring_tac_semiring_almostring -->
<g id="node4" class="node">
<title>ring_tac_semiring_almostring</title>
<g id="a_node4"><a xlink:href="ring_tac.html#semiring_almostring" xlink:title="semiring_almostring">
<ellipse fill="#f070d1" stroke="black" cx="501" cy="-446.35" rx="106.67" ry="18"/>
<ellipse fill="none" stroke="black" cx="501" cy="-446.35" rx="110.68" ry="22"/>
<ellipse fill="none" stroke="black" cx="501" cy="-446.35" rx="114.68" ry="26"/>
<text text-anchor="middle" x="501" y="-442.65" font-family="Times,serif" font-size="14.00">semiring_almostring</text>
</a>
</g>
</g>
<!-- ring_tac_semiring_almostring&#45;&gt;ring_tac_default_almostneg -->
<g id="edge4" class="edge">
<title>ring_tac_semiring_almostring&#45;&gt;ring_tac_default_almostneg</title>
<path fill="none" stroke="black" d="M511.82,-420.43C536.9,-362.65 598.81,-220.02 624.52,-160.79"/>
<polygon fill="black" stroke="black" points="627.84,-161.95 628.61,-151.38 621.41,-159.16 627.84,-161.95"/>
</g>
<!-- ring_tac_prove_prequoted -->
<g id="node7" class="node">
<title>ring_tac_prove_prequoted</title>
<g id="a_node7"><a xlink:href="ring_tac.html#prove_prequoted" xlink:title="prove_prequoted">
<ellipse fill="#f070d1" stroke="black" cx="271" cy="-446.35" rx="89.08" ry="18"/>
<ellipse fill="none" stroke="black" cx="271" cy="-446.35" rx="93.08" ry="22"/>
<ellipse fill="none" stroke="black" cx="271" cy="-446.35" rx="97.08" ry="26"/>
<text text-anchor="middle" x="271" y="-442.65" font-family="Times,serif" font-size="14.00">prove_prequoted</text>
</a>
</g>
</g>
<!-- ring_tac_normalize_prequoted -->
<g id="node8" class="node">
<title>ring_tac_normalize_prequoted</title>
<g id="a_node8"><a xlink:href="ring_tac.html#normalize_prequoted" xlink:title="normalize_prequoted">
<ellipse fill="#f070d1" stroke="black" cx="287" cy="-133.35" rx="108.58" ry="18"/>
<text text-anchor="middle" x="287" y="-129.65" font-family="Times,serif" font-size="14.00">normalize_prequoted</text>
</a>
</g>
</g>
<!-- ring_tac_prove_prequoted&#45;&gt;ring_tac_normalize_prequoted -->
<g id="edge5" class="edge">
<title>ring_tac_prove_prequoted&#45;&gt;ring_tac_normalize_prequoted</title>
<path fill="none" stroke="black" d="M272.3,-420.16C275.26,-362.58 282.51,-221.68 285.58,-161.89"/>
<polygon fill="black" stroke="black" points="289.09,-161.88 286.11,-151.71 282.1,-161.52 289.09,-161.88"/>
</g>
<!-- ring_tac_by_quoting -->
<g id="node9" class="node">
<title>ring_tac_by_quoting</title>
<g id="a_node9"><a xlink:href="ring_tac.html#by_quoting" xlink:title="by_quoting">
<ellipse fill="#f070d1" stroke="black" cx="86" cy="-446.35" rx="61.96" ry="18"/>
<ellipse fill="none" stroke="black" cx="86" cy="-446.35" rx="65.98" ry="22"/>
<ellipse fill="none" stroke="black" cx="86" cy="-446.35" rx="69.99" ry="26"/>
<text text-anchor="middle" x="86" y="-442.65" font-family="Times,serif" font-size="14.00">by_quoting</text>
</a>
</g>
</g>
<!-- ring_tac_normalize_eq -->
<g id="node10" class="node">
<title>ring_tac_normalize_eq</title>
<g id="a_node10"><a xlink:href="ring_tac.html#normalize_eq" xlink:title="normalize_eq">
<ellipse fill="#f070d1" stroke="black" cx="88" cy="-133.35" rx="72.29" ry="18"/>
<text text-anchor="middle" x="88" y="-129.65" font-family="Times,serif" font-size="14.00">normalize_eq</text>
</a>
</g>
</g>
<!-- ring_tac_by_quoting&#45;&gt;ring_tac_normalize_eq -->
<g id="edge6" class="edge">
<title>ring_tac_by_quoting&#45;&gt;ring_tac_normalize_eq</title>
<path fill="none" stroke="black" d="M86.16,-420.16C86.53,-362.58 87.44,-221.68 87.82,-161.89"/>
<polygon fill="black" stroke="black" points="91.32,-161.74 87.89,-151.71 84.32,-161.69 91.32,-161.74"/>
</g>
</g>
</svg>
