<?xml version="1.0" encoding="UTF-8" standalone="no"?>
<!DOCTYPE svg PUBLIC "-//W3C//DTD SVG 1.1//EN"
 "http://www.w3.org/Graphics/SVG/1.1/DTD/svg11.dtd">
<!-- Generated by graphviz version 2.43.0 (0)
 -->
<!-- Title: HoTT_Metatheory_PropTrunc Pages: 1 -->
<svg width="686pt" height="347pt"
 viewBox="0.00 0.00 686.00 347.00" xmlns="http://www.w3.org/2000/svg" xmlns:xlink="http://www.w3.org/1999/xlink">
<g id="graph0" class="graph" transform="scale(1 1) rotate(0) translate(4 343)">
<title>HoTT_Metatheory_PropTrunc</title>
<polygon fill="white" stroke="transparent" points="-4,4 -4,-343 682,-343 682,4 -4,4"/>
<g id="clust1" class="cluster">
<title>cluster_PropTrunc</title>
<polygon fill="#ffffc3" stroke="black" points="15.07,-8 15.07,-331 662.93,-331 662.93,-8 15.07,-8"/>
<text text-anchor="middle" x="61.07" y="-315.8" font-family="Times,serif" font-size="14.00">PropTrunc</text>
</g>
<!-- PropTrunc_ishprop_proptrunc -->
<g id="node1" class="node">
<title>PropTrunc_ishprop_proptrunc</title>
<g id="a_node1"><a xlink:href="PropTrunc.html#ishprop_proptrunc" xlink:title="ishprop_proptrunc">
<ellipse fill="#f070d1" stroke="black" cx="443" cy="-274" rx="96.7" ry="18"/>
<ellipse fill="none" stroke="black" cx="443" cy="-274" rx="100.69" ry="22"/>
<ellipse fill="none" stroke="black" cx="443" cy="-274" rx="104.68" ry="26"/>
<text text-anchor="middle" x="443" y="-270.3" font-family="Times,serif" font-size="14.00">ishprop_proptrunc</text>
</a>
</g>
</g>
<!-- PropTrunc_equiv_PropTrunc_rec -->
<g id="node2" class="node">
<title>PropTrunc_equiv_PropTrunc_rec</title>
<g id="a_node2"><a xlink:href="PropTrunc.html#equiv_PropTrunc_rec" xlink:title="equiv_PropTrunc_rec">
<ellipse fill="#f070d1" stroke="black" cx="443" cy="-186" rx="108.58" ry="18"/>
<text text-anchor="middle" x="443" y="-182.3" font-family="Times,serif" font-size="14.00">equiv_PropTrunc_rec</text>
</a>
</g>
</g>
<!-- PropTrunc_ishprop_proptrunc&#45;&gt;PropTrunc_equiv_PropTrunc_rec -->
<g id="edge1" class="edge">
<title>PropTrunc_ishprop_proptrunc&#45;&gt;PropTrunc_equiv_PropTrunc_rec</title>
<path fill="none" stroke="black" d="M443,-247.66C443,-237.11 443,-224.84 443,-214.1"/>
<polygon fill="black" stroke="black" points="446.5,-214 443,-204 439.5,-214 446.5,-214"/>
</g>
<!-- PropTrunc_PropTrunc -->
<g id="node4" class="node">
<title>PropTrunc_PropTrunc</title>
<g id="a_node4"><a xlink:href="PropTrunc.html#PropTrunc" xlink:title="PropTrunc">
<ellipse fill="#f070d1" stroke="black" cx="292" cy="-106" rx="59.59" ry="18"/>
<text text-anchor="middle" x="292" y="-102.3" font-family="Times,serif" font-size="14.00">PropTrunc</text>
</a>
</g>
</g>
<!-- PropTrunc_equiv_PropTrunc_rec&#45;&gt;PropTrunc_PropTrunc -->
<g id="edge2" class="edge">
<title>PropTrunc_equiv_PropTrunc_rec&#45;&gt;PropTrunc_PropTrunc</title>
<path fill="none" stroke="black" d="M411.35,-168.65C387.55,-156.35 354.85,-139.47 329.7,-126.47"/>
<polygon fill="black" stroke="black" points="331.29,-123.36 320.8,-121.88 328.08,-129.58 331.29,-123.36"/>
</g>
<!-- PropTrunc_ptr_in -->
<g id="node3" class="node">
<title>PropTrunc_ptr_in</title>
<g id="a_node3"><a xlink:href="PropTrunc.html#ptr_in" xlink:title="ptr_in">
<ellipse fill="#f070d1" stroke="black" cx="117" cy="-186" rx="38.22" ry="18"/>
<ellipse fill="none" stroke="black" cx="117" cy="-186" rx="42.21" ry="22"/>
<ellipse fill="none" stroke="black" cx="117" cy="-186" rx="46.19" ry="26"/>
<text text-anchor="middle" x="117" y="-182.3" font-family="Times,serif" font-size="14.00">ptr_in</text>
</a>
</g>
</g>
<!-- PropTrunc_ptr_in&#45;&gt;PropTrunc_PropTrunc -->
<g id="edge3" class="edge">
<title>PropTrunc_ptr_in&#45;&gt;PropTrunc_PropTrunc</title>
<path fill="none" stroke="black" d="M152.41,-169.22C180.8,-156.56 220.69,-138.78 250.56,-125.47"/>
<polygon fill="black" stroke="black" points="252.17,-128.58 259.88,-121.32 249.32,-122.19 252.17,-128.58"/>
</g>
<!-- PropTrunc_Join_seq -->
<g id="node5" class="node">
<title>PropTrunc_Join_seq</title>
<g id="a_node5"><a xlink:href="PropTrunc.html#Join_seq" xlink:title="Join_seq">
<ellipse fill="#f070d1" stroke="black" cx="292" cy="-34" rx="48.99" ry="18"/>
<text text-anchor="middle" x="292" y="-30.3" font-family="Times,serif" font-size="14.00">Join_seq</text>
</a>
</g>
</g>
<!-- PropTrunc_PropTrunc&#45;&gt;PropTrunc_Join_seq -->
<g id="edge4" class="edge">
<title>PropTrunc_PropTrunc&#45;&gt;PropTrunc_Join_seq</title>
<path fill="none" stroke="black" d="M292,-87.7C292,-79.98 292,-70.71 292,-62.11"/>
<polygon fill="black" stroke="black" points="295.5,-62.1 292,-52.1 288.5,-62.1 295.5,-62.1"/>
</g>
</g>
</svg>
