<?xml version="1.0" encoding="UTF-8" standalone="no"?>
<!DOCTYPE svg PUBLIC "-//W3C//DTD SVG 1.1//EN"
 "http://www.w3.org/Graphics/SVG/1.1/DTD/svg11.dtd">
<!-- Generated by graphviz version 2.43.0 (0)
 -->
<!-- Title: HoTT_Types_Forall Pages: 1 -->
<svg width="2098pt" height="1053pt"
 viewBox="0.00 0.00 2098.00 1053.00" xmlns="http://www.w3.org/2000/svg" xmlns:xlink="http://www.w3.org/1999/xlink">
<g id="graph0" class="graph" transform="scale(1 1) rotate(0) translate(4 1049)">
<title>HoTT_Types_Forall</title>
<polygon fill="white" stroke="transparent" points="-4,4 -4,-1049 2094,-1049 2094,4 -4,4"/>
<g id="clust1" class="cluster">
<title>cluster_Forall</title>
<polygon fill="#ffffc3" stroke="black" points="8,-10.96 8,-1034.04 2082,-1034.04 2082,-10.96 8,-10.96"/>
<text text-anchor="middle" x="37" y="-1018.84" font-family="Times,serif" font-size="14.00">Forall</text>
</g>
<!-- Forall_equiv_flip -->
<g id="node1" class="node">
<title>Forall_equiv_flip</title>
<g id="a_node1"><a xlink:href="Forall.html#equiv_flip" xlink:title="equiv_flip">
<ellipse fill="#f070d1" stroke="black" cx="2011" cy="-955.96" rx="55.46" ry="18"/>
<ellipse fill="none" stroke="black" cx="2011" cy="-955.96" rx="59.48" ry="22"/>
<ellipse fill="none" stroke="black" cx="2011" cy="-955.96" rx="63.49" ry="26"/>
<text text-anchor="middle" x="2011" y="-952.26" font-family="Times,serif" font-size="14.00">equiv_flip</text>
</a>
</g>
</g>
<!-- Forall_isequiv_flip -->
<g id="node2" class="node">
<title>Forall_isequiv_flip</title>
<g id="a_node2"><a xlink:href="Forall.html#isequiv_flip" xlink:title="isequiv_flip">
<ellipse fill="#f070d1" stroke="black" cx="2011" cy="-834.96" rx="63.09" ry="18"/>
<text text-anchor="middle" x="2011" y="-831.26" font-family="Times,serif" font-size="14.00">isequiv_flip</text>
</a>
</g>
</g>
<!-- Forall_equiv_flip&#45;&gt;Forall_isequiv_flip -->
<g id="edge1" class="edge">
<title>Forall_equiv_flip&#45;&gt;Forall_isequiv_flip</title>
<path fill="none" stroke="black" d="M2011,-929.72C2011,-910.17 2011,-883.14 2011,-863.12"/>
<polygon fill="black" stroke="black" points="2014.5,-863.09 2011,-853.09 2007.5,-863.09 2014.5,-863.09"/>
</g>
<!-- Forall_flip -->
<g id="node3" class="node">
<title>Forall_flip</title>
<g id="a_node3"><a xlink:href="Forall.html#flip" xlink:title="flip">
<ellipse fill="#f070d1" stroke="black" cx="2011" cy="-714.96" rx="27" ry="18"/>
<text text-anchor="middle" x="2011" y="-711.26" font-family="Times,serif" font-size="14.00">flip</text>
</a>
</g>
</g>
<!-- Forall_isequiv_flip&#45;&gt;Forall_flip -->
<g id="edge2" class="edge">
<title>Forall_isequiv_flip&#45;&gt;Forall_flip</title>
<path fill="none" stroke="black" d="M2011,-816.8C2011,-797.49 2011,-765.85 2011,-743.16"/>
<polygon fill="black" stroke="black" points="2014.5,-743.14 2011,-733.14 2007.5,-743.14 2014.5,-743.14"/>
</g>
<!-- Forall_equiv_contr_forall -->
<g id="node4" class="node">
<title>Forall_equiv_contr_forall</title>
<g id="a_node4"><a xlink:href="Forall.html#equiv_contr_forall" xlink:title="equiv_contr_forall">
<ellipse fill="#f070d1" stroke="black" cx="1828" cy="-955.96" rx="93.68" ry="18"/>
<ellipse fill="none" stroke="black" cx="1828" cy="-955.96" rx="97.68" ry="22"/>
<ellipse fill="none" stroke="black" cx="1828" cy="-955.96" rx="101.68" ry="26"/>
<text text-anchor="middle" x="1828" y="-952.26" font-family="Times,serif" font-size="14.00">equiv_contr_forall</text>
</a>
</g>
</g>
<!-- Forall_isequiv_path_forall11 -->
<g id="node5" class="node">
<title>Forall_isequiv_path_forall11</title>
<g id="a_node5"><a xlink:href="Forall.html#isequiv_path_forall11" xlink:title="isequiv_path_forall11">
<ellipse fill="#f070d1" stroke="black" cx="1591" cy="-955.96" rx="109.69" ry="18"/>
<ellipse fill="none" stroke="black" cx="1591" cy="-955.96" rx="113.69" ry="22"/>
<ellipse fill="none" stroke="black" cx="1591" cy="-955.96" rx="117.68" ry="26"/>
<text text-anchor="middle" x="1591" y="-952.26" font-family="Times,serif" font-size="14.00">isequiv_path_forall11</text>
</a>
</g>
</g>
<!-- Forall_path_forall11 -->
<g id="node6" class="node">
<title>Forall_path_forall11</title>
<g id="a_node6"><a xlink:href="Forall.html#path_forall11" xlink:title="path_forall11">
<ellipse fill="#f070d1" stroke="black" cx="1165" cy="-834.96" rx="72.29" ry="18"/>
<text text-anchor="middle" x="1165" y="-831.26" font-family="Times,serif" font-size="14.00">path_forall11</text>
</a>
</g>
</g>
<!-- Forall_isequiv_path_forall11&#45;&gt;Forall_path_forall11 -->
<g id="edge3" class="edge">
<title>Forall_isequiv_path_forall11&#45;&gt;Forall_path_forall11</title>
<path fill="none" stroke="black" d="M1517.11,-935.59C1447.11,-917.06 1339.15,-888.01 1246,-860.96 1236.77,-858.28 1226.98,-855.34 1217.51,-852.44"/>
<polygon fill="black" stroke="black" points="1218.38,-849.05 1207.8,-849.46 1216.33,-855.74 1218.38,-849.05"/>
</g>
<!-- Forall_equiv_path_forall11 -->
<g id="node7" class="node">
<title>Forall_equiv_path_forall11</title>
<g id="a_node7"><a xlink:href="Forall.html#equiv_path_forall11" xlink:title="equiv_path_forall11">
<ellipse fill="#f070d1" stroke="black" cx="746" cy="-714.96" rx="102.08" ry="18"/>
<text text-anchor="middle" x="746" y="-711.26" font-family="Times,serif" font-size="14.00">equiv_path_forall11</text>
</a>
</g>
</g>
<!-- Forall_path_forall11&#45;&gt;Forall_equiv_path_forall11 -->
<g id="edge4" class="edge">
<title>Forall_path_forall11&#45;&gt;Forall_equiv_path_forall11</title>
<path fill="none" stroke="black" d="M1121.78,-820.35C1109.58,-816.58 1096.29,-812.54 1084,-808.96 988.78,-781.17 877.8,-751.07 809.73,-732.86"/>
<polygon fill="black" stroke="black" points="810.57,-729.46 800,-730.26 808.76,-736.23 810.57,-729.46"/>
</g>
<!-- Forall_equiv_functor_forall_id -->
<g id="node12" class="node">
<title>Forall_equiv_functor_forall_id</title>
<g id="a_node12"><a xlink:href="Forall.html#equiv_functor_forall_id" xlink:title="equiv_functor_forall_id">
<ellipse fill="#f070d1" stroke="black" cx="761" cy="-604.96" rx="116.18" ry="18"/>
<text text-anchor="middle" x="761" y="-601.26" font-family="Times,serif" font-size="14.00">equiv_functor_forall_id</text>
</a>
</g>
</g>
<!-- Forall_equiv_path_forall11&#45;&gt;Forall_equiv_functor_forall_id -->
<g id="edge5" class="edge">
<title>Forall_equiv_path_forall11&#45;&gt;Forall_equiv_functor_forall_id</title>
<path fill="none" stroke="black" d="M748.41,-696.6C750.78,-679.52 754.44,-653.17 757.21,-633.28"/>
<polygon fill="black" stroke="black" points="760.69,-633.65 758.6,-623.27 753.75,-632.69 760.69,-633.65"/>
</g>
<!-- Forall_equiv_path_forall -->
<g id="node36" class="node">
<title>Forall_equiv_path_forall</title>
<g id="a_node36"><a xlink:href="Forall.html#equiv_path_forall" xlink:title="equiv_path_forall">
<ellipse fill="#f070d1" stroke="black" cx="459" cy="-604.96" rx="90.18" ry="18"/>
<text text-anchor="middle" x="459" y="-601.26" font-family="Times,serif" font-size="14.00">equiv_path_forall</text>
</a>
</g>
</g>
<!-- Forall_equiv_path_forall11&#45;&gt;Forall_equiv_path_forall -->
<g id="edge6" class="edge">
<title>Forall_equiv_path_forall11&#45;&gt;Forall_equiv_path_forall</title>
<path fill="none" stroke="black" d="M704.57,-698.37C652.88,-678.92 564.55,-645.67 509.1,-624.81"/>
<polygon fill="black" stroke="black" points="510.08,-621.44 499.49,-621.19 507.61,-627.99 510.08,-621.44"/>
</g>
<!-- Forall_iff_functor_forall -->
<g id="node8" class="node">
<title>Forall_iff_functor_forall</title>
<g id="a_node8"><a xlink:href="Forall.html#iff_functor_forall" xlink:title="iff_functor_forall">
<ellipse fill="#f070d1" stroke="black" cx="1560" cy="-276.96" rx="87.18" ry="18"/>
<ellipse fill="none" stroke="black" cx="1560" cy="-276.96" rx="91.18" ry="22"/>
<ellipse fill="none" stroke="black" cx="1560" cy="-276.96" rx="95.18" ry="26"/>
<text text-anchor="middle" x="1560" y="-273.26" font-family="Times,serif" font-size="14.00">iff_functor_forall</text>
</a>
</g>
</g>
<!-- Forall_functor_forall -->
<g id="node25" class="node">
<title>Forall_functor_forall</title>
<g id="a_node25"><a xlink:href="Forall.html#functor_forall" xlink:title="functor_forall">
<ellipse fill="#f070d1" stroke="black" cx="1355" cy="-155.96" rx="73.39" ry="18"/>
<text text-anchor="middle" x="1355" y="-152.26" font-family="Times,serif" font-size="14.00">functor_forall</text>
</a>
</g>
</g>
<!-- Forall_iff_functor_forall&#45;&gt;Forall_functor_forall -->
<g id="edge7" class="edge">
<title>Forall_iff_functor_forall&#45;&gt;Forall_functor_forall</title>
<path fill="none" stroke="black" d="M1520.47,-253.01C1483.04,-231.28 1427.31,-198.93 1391.06,-177.89"/>
<polygon fill="black" stroke="black" points="1392.69,-174.79 1382.29,-172.8 1389.18,-180.84 1392.69,-174.79"/>
</g>
<!-- Forall_equiv_functor_forall_covariant_compose -->
<g id="node9" class="node">
<title>Forall_equiv_functor_forall_covariant_compose</title>
<g id="a_node9"><a xlink:href="Forall.html#equiv_functor_forall_covariant_compose" xlink:title="equiv_functor_forall_covariant_compose">
<ellipse fill="#f070d1" stroke="black" cx="1459" cy="-834.96" rx="195.76" ry="18"/>
<ellipse fill="none" stroke="black" cx="1459" cy="-834.96" rx="199.76" ry="22"/>
<ellipse fill="none" stroke="black" cx="1459" cy="-834.96" rx="203.77" ry="26"/>
<text text-anchor="middle" x="1459" y="-831.26" font-family="Times,serif" font-size="14.00">equiv_functor_forall_covariant_compose</text>
</a>
</g>
</g>
<!-- Forall_equiv_functor_forall_covariant -->
<g id="node10" class="node">
<title>Forall_equiv_functor_forall_covariant</title>
<g id="a_node10"><a xlink:href="Forall.html#equiv_functor_forall_covariant" xlink:title="equiv_functor_forall_covariant">
<ellipse fill="#f070d1" stroke="black" cx="1017" cy="-714.96" rx="150.57" ry="18"/>
<text text-anchor="middle" x="1017" y="-711.26" font-family="Times,serif" font-size="14.00">equiv_functor_forall_covariant</text>
</a>
</g>
</g>
<!-- Forall_equiv_functor_forall_covariant_compose&#45;&gt;Forall_equiv_functor_forall_covariant -->
<g id="edge8" class="edge">
<title>Forall_equiv_functor_forall_covariant_compose&#45;&gt;Forall_equiv_functor_forall_covariant</title>
<path fill="none" stroke="black" d="M1374.04,-811.28C1289.99,-788.84 1162.98,-754.93 1085.27,-734.18"/>
<polygon fill="black" stroke="black" points="1086.15,-730.79 1075.58,-731.6 1084.34,-737.56 1086.15,-730.79"/>
</g>
<!-- Forall_functor_forall_compose -->
<g id="node23" class="node">
<title>Forall_functor_forall_compose</title>
<g id="a_node23"><a xlink:href="Forall.html#functor_forall_compose" xlink:title="functor_forall_compose">
<ellipse fill="#f070d1" stroke="black" cx="1450" cy="-385.96" rx="118.08" ry="18"/>
<text text-anchor="middle" x="1450" y="-382.26" font-family="Times,serif" font-size="14.00">functor_forall_compose</text>
</a>
</g>
</g>
<!-- Forall_equiv_functor_forall_covariant_compose&#45;&gt;Forall_functor_forall_compose -->
<g id="edge9" class="edge">
<title>Forall_equiv_functor_forall_covariant_compose&#45;&gt;Forall_functor_forall_compose</title>
<path fill="none" stroke="black" d="M1458.49,-808.64C1456.92,-730.85 1452.19,-495.68 1450.56,-414.71"/>
<polygon fill="black" stroke="black" points="1454.05,-414.26 1450.35,-404.34 1447.05,-414.4 1454.05,-414.26"/>
</g>
<!-- Forall_equiv_functor_forall_ -->
<g id="node13" class="node">
<title>Forall_equiv_functor_forall_</title>
<g id="a_node13"><a xlink:href="Forall.html#equiv_functor_forall'" xlink:title="equiv_functor_forall&#39;">
<ellipse fill="#f070d1" stroke="black" cx="1017" cy="-604.96" rx="105.08" ry="18"/>
<text text-anchor="middle" x="1017" y="-601.26" font-family="Times,serif" font-size="14.00">equiv_functor_forall&#39;</text>
</a>
</g>
</g>
<!-- Forall_equiv_functor_forall_covariant&#45;&gt;Forall_equiv_functor_forall_ -->
<g id="edge10" class="edge">
<title>Forall_equiv_functor_forall_covariant&#45;&gt;Forall_equiv_functor_forall_</title>
<path fill="none" stroke="black" d="M1017,-696.6C1017,-679.52 1017,-653.17 1017,-633.28"/>
<polygon fill="black" stroke="black" points="1020.5,-633.27 1017,-623.27 1013.5,-633.27 1020.5,-633.27"/>
</g>
<!-- Forall_equiv_functor_forall_pb -->
<g id="node11" class="node">
<title>Forall_equiv_functor_forall_pb</title>
<g id="a_node11"><a xlink:href="Forall.html#equiv_functor_forall_pb" xlink:title="equiv_functor_forall_pb">
<ellipse fill="#f070d1" stroke="black" cx="1313" cy="-714.96" rx="118.88" ry="18"/>
<ellipse fill="none" stroke="black" cx="1313" cy="-714.96" rx="122.88" ry="22"/>
<ellipse fill="none" stroke="black" cx="1313" cy="-714.96" rx="126.88" ry="26"/>
<text text-anchor="middle" x="1313" y="-711.26" font-family="Times,serif" font-size="14.00">equiv_functor_forall_pb</text>
</a>
</g>
</g>
<!-- Forall_equiv_functor_forall_pb&#45;&gt;Forall_equiv_functor_forall_ -->
<g id="edge11" class="edge">
<title>Forall_equiv_functor_forall_pb&#45;&gt;Forall_equiv_functor_forall_</title>
<path fill="none" stroke="black" d="M1252.74,-691.97C1198.75,-672.27 1120.38,-643.67 1069.05,-624.95"/>
<polygon fill="black" stroke="black" points="1070.07,-621.6 1059.48,-621.46 1067.68,-628.17 1070.07,-621.6"/>
</g>
<!-- Forall_equiv_functor_forall -->
<g id="node14" class="node">
<title>Forall_equiv_functor_forall</title>
<g id="a_node14"><a xlink:href="Forall.html#equiv_functor_forall" xlink:title="equiv_functor_forall">
<ellipse fill="#f070d1" stroke="black" cx="973" cy="-495.96" rx="102.88" ry="18"/>
<text text-anchor="middle" x="973" y="-492.26" font-family="Times,serif" font-size="14.00">equiv_functor_forall</text>
</a>
</g>
</g>
<!-- Forall_equiv_functor_forall_id&#45;&gt;Forall_equiv_functor_forall -->
<g id="edge12" class="edge">
<title>Forall_equiv_functor_forall_id&#45;&gt;Forall_equiv_functor_forall</title>
<path fill="none" stroke="black" d="M793.66,-587.47C830.84,-568.71 891.62,-538.03 931.96,-517.67"/>
<polygon fill="black" stroke="black" points="933.65,-520.74 941,-513.11 930.49,-514.49 933.65,-520.74"/>
</g>
<!-- Forall_equiv_functor_forall_&#45;&gt;Forall_equiv_functor_forall -->
<g id="edge13" class="edge">
<title>Forall_equiv_functor_forall_&#45;&gt;Forall_equiv_functor_forall</title>
<path fill="none" stroke="black" d="M1009.93,-586.77C1002.91,-569.68 992.04,-543.25 983.91,-523.48"/>
<polygon fill="black" stroke="black" points="987.09,-522.02 980.05,-514.11 980.62,-524.69 987.09,-522.02"/>
</g>
<!-- Forall_isequiv_functor_forall -->
<g id="node15" class="node">
<title>Forall_isequiv_functor_forall</title>
<g id="a_node15"><a xlink:href="Forall.html#isequiv_functor_forall" xlink:title="isequiv_functor_forall">
<ellipse fill="#f070d1" stroke="black" cx="973" cy="-385.96" rx="110.48" ry="18"/>
<text text-anchor="middle" x="973" y="-382.26" font-family="Times,serif" font-size="14.00">isequiv_functor_forall</text>
</a>
</g>
</g>
<!-- Forall_equiv_functor_forall&#45;&gt;Forall_isequiv_functor_forall -->
<g id="edge14" class="edge">
<title>Forall_equiv_functor_forall&#45;&gt;Forall_isequiv_functor_forall</title>
<path fill="none" stroke="black" d="M973,-477.6C973,-460.52 973,-434.17 973,-414.28"/>
<polygon fill="black" stroke="black" points="976.5,-414.27 973,-404.27 969.5,-414.27 976.5,-414.27"/>
</g>
<!-- Forall_isequiv_functor_forall_subproof0 -->
<g id="node16" class="node">
<title>Forall_isequiv_functor_forall_subproof0</title>
<g id="a_node16"><a xlink:href="Forall.html#isequiv_functor_forall_subproof0" xlink:title="isequiv_functor_forall_subproof0">
<ellipse fill="#f070d1" stroke="black" cx="1265" cy="-276.96" rx="161.67" ry="18"/>
<text text-anchor="middle" x="1265" y="-273.26" font-family="Times,serif" font-size="14.00">isequiv_functor_forall_subproof0</text>
</a>
</g>
</g>
<!-- Forall_isequiv_functor_forall&#45;&gt;Forall_isequiv_functor_forall_subproof0 -->
<g id="edge15" class="edge">
<title>Forall_isequiv_functor_forall&#45;&gt;Forall_isequiv_functor_forall_subproof0</title>
<path fill="none" stroke="black" d="M1015.77,-369.28C1067.43,-350.35 1154.4,-318.48 1210.74,-297.84"/>
<polygon fill="black" stroke="black" points="1212.01,-301.1 1220.19,-294.38 1209.6,-294.53 1212.01,-301.1"/>
</g>
<!-- Forall_isequiv_functor_forall_subproof -->
<g id="node17" class="node">
<title>Forall_isequiv_functor_forall_subproof</title>
<g id="a_node17"><a xlink:href="Forall.html#isequiv_functor_forall_subproof" xlink:title="isequiv_functor_forall_subproof">
<ellipse fill="#f070d1" stroke="black" cx="929" cy="-276.96" rx="155.97" ry="18"/>
<text text-anchor="middle" x="929" y="-273.26" font-family="Times,serif" font-size="14.00">isequiv_functor_forall_subproof</text>
</a>
</g>
</g>
<!-- Forall_isequiv_functor_forall&#45;&gt;Forall_isequiv_functor_forall_subproof -->
<g id="edge16" class="edge">
<title>Forall_isequiv_functor_forall&#45;&gt;Forall_isequiv_functor_forall_subproof</title>
<path fill="none" stroke="black" d="M965.93,-367.77C958.91,-350.68 948.04,-324.25 939.91,-304.48"/>
<polygon fill="black" stroke="black" points="943.09,-303.02 936.05,-295.11 936.62,-305.69 943.09,-303.02"/>
</g>
<!-- Forall_isequiv_functor_forall_subproof0&#45;&gt;Forall_functor_forall -->
<g id="edge17" class="edge">
<title>Forall_isequiv_functor_forall_subproof0&#45;&gt;Forall_functor_forall</title>
<path fill="none" stroke="black" d="M1277.89,-258.91C1293.13,-238.76 1318.62,-205.06 1336.09,-181.96"/>
<polygon fill="black" stroke="black" points="1338.89,-184.06 1342.13,-173.97 1333.31,-179.84 1338.89,-184.06"/>
</g>
<!-- Forall_isequiv_functor_forall_subproof&#45;&gt;Forall_functor_forall -->
<g id="edge18" class="edge">
<title>Forall_isequiv_functor_forall_subproof&#45;&gt;Forall_functor_forall</title>
<path fill="none" stroke="black" d="M985.57,-260.15C1067.07,-237.39 1216.67,-195.6 1298.26,-172.81"/>
<polygon fill="black" stroke="black" points="1299.66,-176.05 1308.35,-169.99 1297.78,-169.31 1299.66,-176.05"/>
</g>
<!-- Forall_functor_forall_equiv_pb_beta -->
<g id="node18" class="node">
<title>Forall_functor_forall_equiv_pb_beta</title>
<g id="a_node18"><a xlink:href="Forall.html#functor_forall_equiv_pb_beta" xlink:title="functor_forall_equiv_pb_beta">
<ellipse fill="#f070d1" stroke="black" cx="688" cy="-495.96" rx="143.77" ry="18"/>
<ellipse fill="none" stroke="black" cx="688" cy="-495.96" rx="147.77" ry="22"/>
<ellipse fill="none" stroke="black" cx="688" cy="-495.96" rx="151.77" ry="26"/>
<text text-anchor="middle" x="688" y="-492.26" font-family="Times,serif" font-size="14.00">functor_forall_equiv_pb_beta</text>
</a>
</g>
</g>
<!-- Forall_functor_forall_equiv_pb -->
<g id="node19" class="node">
<title>Forall_functor_forall_equiv_pb</title>
<g id="a_node19"><a xlink:href="Forall.html#functor_forall_equiv_pb" xlink:title="functor_forall_equiv_pb">
<ellipse fill="#f070d1" stroke="black" cx="676" cy="-385.96" rx="118.88" ry="18"/>
<text text-anchor="middle" x="676" y="-382.26" font-family="Times,serif" font-size="14.00">functor_forall_equiv_pb</text>
</a>
</g>
</g>
<!-- Forall_functor_forall_equiv_pb_beta&#45;&gt;Forall_functor_forall_equiv_pb -->
<g id="edge19" class="edge">
<title>Forall_functor_forall_equiv_pb_beta&#45;&gt;Forall_functor_forall_equiv_pb</title>
<path fill="none" stroke="black" d="M685.22,-469.91C683.36,-453.19 680.92,-431.21 679.01,-414.08"/>
<polygon fill="black" stroke="black" points="682.49,-413.68 677.91,-404.13 675.53,-414.45 682.49,-413.68"/>
</g>
<!-- Forall_functor_forall_equiv -->
<g id="node20" class="node">
<title>Forall_functor_forall_equiv</title>
<g id="a_node20"><a xlink:href="Forall.html#functor_forall_equiv" xlink:title="functor_forall_equiv">
<ellipse fill="#f070d1" stroke="black" cx="652" cy="-276.96" rx="102.88" ry="18"/>
<text text-anchor="middle" x="652" y="-273.26" font-family="Times,serif" font-size="14.00">functor_forall_equiv</text>
</a>
</g>
</g>
<!-- Forall_functor_forall_equiv_pb&#45;&gt;Forall_functor_forall_equiv -->
<g id="edge20" class="edge">
<title>Forall_functor_forall_equiv_pb&#45;&gt;Forall_functor_forall_equiv</title>
<path fill="none" stroke="black" d="M672.14,-367.77C668.35,-350.84 662.49,-324.73 658.07,-305.02"/>
<polygon fill="black" stroke="black" points="661.45,-304.1 655.85,-295.11 654.62,-305.63 661.45,-304.1"/>
</g>
<!-- Forall_functor_forall_equiv&#45;&gt;Forall_functor_forall -->
<g id="edge21" class="edge">
<title>Forall_functor_forall_equiv&#45;&gt;Forall_functor_forall</title>
<path fill="none" stroke="black" d="M710.57,-262.17C727.74,-258.32 746.58,-254.28 764,-250.96 950.05,-215.43 1170.83,-182.83 1282.53,-167.01"/>
<polygon fill="black" stroke="black" points="1283.25,-170.44 1292.67,-165.58 1282.27,-163.51 1283.25,-170.44"/>
</g>
<!-- Forall_functor_forall_pb -->
<g id="node21" class="node">
<title>Forall_functor_forall_pb</title>
<g id="a_node21"><a xlink:href="Forall.html#functor_forall_pb" xlink:title="functor_forall_pb">
<ellipse fill="#f070d1" stroke="black" cx="1977" cy="-276.96" rx="89.08" ry="18"/>
<ellipse fill="none" stroke="black" cx="1977" cy="-276.96" rx="93.08" ry="22"/>
<ellipse fill="none" stroke="black" cx="1977" cy="-276.96" rx="97.08" ry="26"/>
<text text-anchor="middle" x="1977" y="-273.26" font-family="Times,serif" font-size="14.00">functor_forall_pb</text>
</a>
</g>
</g>
<!-- Forall_functor_forall_pb&#45;&gt;Forall_functor_forall -->
<g id="edge22" class="edge">
<title>Forall_functor_forall_pb&#45;&gt;Forall_functor_forall</title>
<path fill="none" stroke="black" d="M1906.98,-258.91C1895,-256.14 1882.66,-253.39 1871,-250.96 1711.58,-217.66 1523.05,-185 1423.9,-168.35"/>
<polygon fill="black" stroke="black" points="1424.45,-164.89 1414,-166.69 1423.29,-171.8 1424.45,-164.89"/>
</g>
<!-- Forall_functor_forall_id -->
<g id="node22" class="node">
<title>Forall_functor_forall_id</title>
<g id="a_node22"><a xlink:href="Forall.html#functor_forall_id" xlink:title="functor_forall_id">
<ellipse fill="#f070d1" stroke="black" cx="1768" cy="-276.96" rx="86.39" ry="18"/>
<ellipse fill="none" stroke="black" cx="1768" cy="-276.96" rx="90.39" ry="22"/>
<ellipse fill="none" stroke="black" cx="1768" cy="-276.96" rx="94.38" ry="26"/>
<text text-anchor="middle" x="1768" y="-273.26" font-family="Times,serif" font-size="14.00">functor_forall_id</text>
</a>
</g>
</g>
<!-- Forall_functor_forall_id&#45;&gt;Forall_functor_forall -->
<g id="edge23" class="edge">
<title>Forall_functor_forall_id&#45;&gt;Forall_functor_forall</title>
<path fill="none" stroke="black" d="M1704.37,-257.62C1624.04,-234.48 1487.11,-195.02 1410.71,-173.01"/>
<polygon fill="black" stroke="black" points="1411.37,-169.56 1400.8,-170.15 1409.44,-176.28 1411.37,-169.56"/>
</g>
<!-- Forall_functor_forall_compose&#45;&gt;Forall_functor_forall -->
<g id="edge24" class="edge">
<title>Forall_functor_forall_compose&#45;&gt;Forall_functor_forall</title>
<path fill="none" stroke="black" d="M1451.4,-367.64C1452.83,-341.28 1452.88,-290.04 1436,-250.96 1424.04,-223.27 1400.94,-197.75 1382.46,-180.31"/>
<polygon fill="black" stroke="black" points="1384.6,-177.53 1374.86,-173.35 1379.87,-182.69 1384.6,-177.53"/>
</g>
<!-- Forall_ap_functor_forall -->
<g id="node24" class="node">
<title>Forall_ap_functor_forall</title>
<g id="a_node24"><a xlink:href="Forall.html#ap_functor_forall" xlink:title="ap_functor_forall">
<ellipse fill="#f070d1" stroke="black" cx="434" cy="-276.96" rx="89.08" ry="18"/>
<ellipse fill="none" stroke="black" cx="434" cy="-276.96" rx="93.08" ry="22"/>
<ellipse fill="none" stroke="black" cx="434" cy="-276.96" rx="97.08" ry="26"/>
<text text-anchor="middle" x="434" y="-273.26" font-family="Times,serif" font-size="14.00">ap_functor_forall</text>
</a>
</g>
</g>
<!-- Forall_ap_functor_forall&#45;&gt;Forall_functor_forall -->
<g id="edge25" class="edge">
<title>Forall_ap_functor_forall&#45;&gt;Forall_functor_forall</title>
<path fill="none" stroke="black" d="M502.75,-258.51C515.1,-255.73 527.89,-253.08 540,-250.96 807.86,-204.09 1129.48,-174.85 1275.69,-163.01"/>
<polygon fill="black" stroke="black" points="1276.23,-166.47 1285.92,-162.18 1275.67,-159.5 1276.23,-166.47"/>
</g>
<!-- Forall_path_forall_1 -->
<g id="node39" class="node">
<title>Forall_path_forall_1</title>
<g id="a_node39"><a xlink:href="Forall.html#path_forall_1" xlink:title="path_forall_1">
<ellipse fill="#f070d1" stroke="black" cx="338" cy="-155.96" rx="70.69" ry="18"/>
<text text-anchor="middle" x="338" y="-152.26" font-family="Times,serif" font-size="14.00">path_forall_1</text>
</a>
</g>
</g>
<!-- Forall_ap_functor_forall&#45;&gt;Forall_path_forall_1 -->
<g id="edge26" class="edge">
<title>Forall_ap_functor_forall&#45;&gt;Forall_path_forall_1</title>
<path fill="none" stroke="black" d="M414.11,-251.3C397.7,-230.96 374.52,-202.22 358.06,-181.82"/>
<polygon fill="black" stroke="black" points="360.68,-179.49 351.67,-173.91 355.23,-183.89 360.68,-179.49"/>
</g>
<!-- Forall_dpath_forall_constant -->
<g id="node26" class="node">
<title>Forall_dpath_forall_constant</title>
<g id="a_node26"><a xlink:href="Forall.html#dpath_forall_constant" xlink:title="dpath_forall_constant">
<ellipse fill="#f070d1" stroke="black" cx="264" cy="-714.96" rx="110.48" ry="18"/>
<ellipse fill="none" stroke="black" cx="264" cy="-714.96" rx="114.48" ry="22"/>
<ellipse fill="none" stroke="black" cx="264" cy="-714.96" rx="118.48" ry="26"/>
<text text-anchor="middle" x="264" y="-711.26" font-family="Times,serif" font-size="14.00">dpath_forall_constant</text>
</a>
</g>
</g>
<!-- Forall_dpath_forall_constant&#45;&gt;Forall_equiv_path_forall -->
<g id="edge27" class="edge">
<title>Forall_dpath_forall_constant&#45;&gt;Forall_equiv_path_forall</title>
<path fill="none" stroke="black" d="M306.31,-690.52C340.41,-671.64 387.93,-645.32 420.86,-627.08"/>
<polygon fill="black" stroke="black" points="422.69,-630.07 429.74,-622.16 419.3,-623.95 422.69,-630.07"/>
</g>
<!-- Forall_dpath_forall -->
<g id="node27" class="node">
<title>Forall_dpath_forall</title>
<g id="a_node27"><a xlink:href="Forall.html#dpath_forall" xlink:title="dpath_forall">
<ellipse fill="#f070d1" stroke="black" cx="475" cy="-714.96" rx="66.11" ry="18"/>
<ellipse fill="none" stroke="black" cx="475" cy="-714.96" rx="70.1" ry="22"/>
<ellipse fill="none" stroke="black" cx="475" cy="-714.96" rx="74.09" ry="26"/>
<text text-anchor="middle" x="475" y="-711.26" font-family="Times,serif" font-size="14.00">dpath_forall</text>
</a>
</g>
</g>
<!-- Forall_dpath_forall&#45;&gt;Forall_equiv_path_forall -->
<g id="edge28" class="edge">
<title>Forall_dpath_forall&#45;&gt;Forall_equiv_path_forall</title>
<path fill="none" stroke="black" d="M471.29,-688.91C468.81,-672.19 465.56,-650.21 463.02,-633.08"/>
<polygon fill="black" stroke="black" points="466.47,-632.51 461.54,-623.13 459.55,-633.53 466.47,-632.51"/>
</g>
<!-- Forall_ap_lambdaD -->
<g id="node28" class="node">
<title>Forall_ap_lambdaD</title>
<g id="a_node28"><a xlink:href="Forall.html#ap_lambdaD" xlink:title="ap_lambdaD">
<ellipse fill="#f070d1" stroke="black" cx="243" cy="-276.96" rx="67.68" ry="18"/>
<ellipse fill="none" stroke="black" cx="243" cy="-276.96" rx="71.68" ry="22"/>
<ellipse fill="none" stroke="black" cx="243" cy="-276.96" rx="75.69" ry="26"/>
<text text-anchor="middle" x="243" y="-273.26" font-family="Times,serif" font-size="14.00">ap_lambdaD</text>
</a>
</g>
</g>
<!-- Forall_ap_lambdaD&#45;&gt;Forall_path_forall_1 -->
<g id="edge29" class="edge">
<title>Forall_ap_lambdaD&#45;&gt;Forall_path_forall_1</title>
<path fill="none" stroke="black" d="M262.45,-251.59C278.68,-231.27 301.7,-202.43 318.05,-181.94"/>
<polygon fill="black" stroke="black" points="320.9,-183.99 324.4,-173.99 315.43,-179.62 320.9,-183.99"/>
</g>
<!-- Forall_ap_apply_lD2 -->
<g id="node29" class="node">
<title>Forall_ap_apply_lD2</title>
<g id="a_node29"><a xlink:href="Forall.html#ap_apply_lD2" xlink:title="ap_apply_lD2">
<ellipse fill="#f070d1" stroke="black" cx="1375" cy="-955.96" rx="72.27" ry="18"/>
<ellipse fill="none" stroke="black" cx="1375" cy="-955.96" rx="76.28" ry="22"/>
<ellipse fill="none" stroke="black" cx="1375" cy="-955.96" rx="80.29" ry="26"/>
<text text-anchor="middle" x="1375" y="-952.26" font-family="Times,serif" font-size="14.00">ap_apply_lD2</text>
</a>
</g>
</g>
<!-- Forall_ap_apply_lD -->
<g id="node30" class="node">
<title>Forall_ap_apply_lD</title>
<g id="a_node30"><a xlink:href="Forall.html#ap_apply_lD" xlink:title="ap_apply_lD">
<ellipse fill="#f070d1" stroke="black" cx="1203" cy="-955.96" rx="66.11" ry="18"/>
<ellipse fill="none" stroke="black" cx="1203" cy="-955.96" rx="70.1" ry="22"/>
<ellipse fill="none" stroke="black" cx="1203" cy="-955.96" rx="74.09" ry="26"/>
<text text-anchor="middle" x="1203" y="-952.26" font-family="Times,serif" font-size="14.00">ap_apply_lD</text>
</a>
</g>
</g>
<!-- Forall_apD_transport_forall_constant -->
<g id="node31" class="node">
<title>Forall_apD_transport_forall_constant</title>
<g id="a_node31"><a xlink:href="Forall.html#apD_transport_forall_constant" xlink:title="apD_transport_forall_constant">
<ellipse fill="#f070d1" stroke="black" cx="952" cy="-955.96" rx="150.58" ry="18"/>
<ellipse fill="none" stroke="black" cx="952" cy="-955.96" rx="154.58" ry="22"/>
<ellipse fill="none" stroke="black" cx="952" cy="-955.96" rx="158.57" ry="26"/>
<text text-anchor="middle" x="952" y="-952.26" font-family="Times,serif" font-size="14.00">apD_transport_forall_constant</text>
</a>
</g>
</g>
<!-- Forall_transport_forall_constant -->
<g id="node32" class="node">
<title>Forall_transport_forall_constant</title>
<g id="a_node32"><a xlink:href="Forall.html#transport_forall_constant" xlink:title="transport_forall_constant">
<ellipse fill="#f070d1" stroke="black" cx="947" cy="-834.96" rx="128.08" ry="18"/>
<text text-anchor="middle" x="947" y="-831.26" font-family="Times,serif" font-size="14.00">transport_forall_constant</text>
</a>
</g>
</g>
<!-- Forall_apD_transport_forall_constant&#45;&gt;Forall_transport_forall_constant -->
<g id="edge30" class="edge">
<title>Forall_apD_transport_forall_constant&#45;&gt;Forall_transport_forall_constant</title>
<path fill="none" stroke="black" d="M950.94,-929.72C950.12,-910.17 948.98,-883.14 948.14,-863.12"/>
<polygon fill="black" stroke="black" points="951.64,-862.94 947.72,-853.09 944.64,-863.23 951.64,-862.94"/>
</g>
<!-- Forall_transport_forall -->
<g id="node33" class="node">
<title>Forall_transport_forall</title>
<g id="a_node33"><a xlink:href="Forall.html#transport_forall" xlink:title="transport_forall">
<ellipse fill="#f070d1" stroke="black" cx="684" cy="-955.96" rx="83.37" ry="18"/>
<ellipse fill="none" stroke="black" cx="684" cy="-955.96" rx="87.38" ry="22"/>
<ellipse fill="none" stroke="black" cx="684" cy="-955.96" rx="91.39" ry="26"/>
<text text-anchor="middle" x="684" y="-952.26" font-family="Times,serif" font-size="14.00">transport_forall</text>
</a>
</g>
</g>
<!-- Forall_path_forall_V -->
<g id="node34" class="node">
<title>Forall_path_forall_V</title>
<g id="a_node34"><a xlink:href="Forall.html#path_forall_V" xlink:title="path_forall_V">
<ellipse fill="#f070d1" stroke="black" cx="495" cy="-955.96" rx="71.49" ry="18"/>
<ellipse fill="none" stroke="black" cx="495" cy="-955.96" rx="75.49" ry="22"/>
<ellipse fill="none" stroke="black" cx="495" cy="-955.96" rx="79.49" ry="26"/>
<text text-anchor="middle" x="495" y="-952.26" font-family="Times,serif" font-size="14.00">path_forall_V</text>
</a>
</g>
</g>
<!-- Forall_path_forall_pp -->
<g id="node35" class="node">
<title>Forall_path_forall_pp</title>
<g id="a_node35"><a xlink:href="Forall.html#path_forall_pp" xlink:title="path_forall_pp">
<ellipse fill="#f070d1" stroke="black" cx="512" cy="-155.96" rx="76.87" ry="18"/>
<ellipse fill="none" stroke="black" cx="512" cy="-155.96" rx="80.88" ry="22"/>
<ellipse fill="none" stroke="black" cx="512" cy="-155.96" rx="84.89" ry="26"/>
<text text-anchor="middle" x="512" y="-152.26" font-family="Times,serif" font-size="14.00">path_forall_pp</text>
</a>
</g>
</g>
<!-- Forall_eta_path_forall -->
<g id="node40" class="node">
<title>Forall_eta_path_forall</title>
<g id="a_node40"><a xlink:href="Forall.html#eta_path_forall" xlink:title="eta_path_forall">
<ellipse fill="#f070d1" stroke="black" cx="425" cy="-46.96" rx="79.09" ry="18"/>
<text text-anchor="middle" x="425" y="-43.26" font-family="Times,serif" font-size="14.00">eta_path_forall</text>
</a>
</g>
</g>
<!-- Forall_path_forall_pp&#45;&gt;Forall_eta_path_forall -->
<g id="edge31" class="edge">
<title>Forall_path_forall_pp&#45;&gt;Forall_eta_path_forall</title>
<path fill="none" stroke="black" d="M492.04,-130.41C477.99,-113.12 459.24,-90.07 445.14,-72.73"/>
<polygon fill="black" stroke="black" points="447.66,-70.28 438.64,-64.73 442.23,-74.7 447.66,-70.28"/>
</g>
<!-- Forall_isequiv_path_forall -->
<g id="node37" class="node">
<title>Forall_isequiv_path_forall</title>
<g id="a_node37"><a xlink:href="Forall.html#isequiv_path_forall" xlink:title="isequiv_path_forall">
<ellipse fill="#f070d1" stroke="black" cx="420" cy="-495.96" rx="98.28" ry="18"/>
<text text-anchor="middle" x="420" y="-492.26" font-family="Times,serif" font-size="14.00">isequiv_path_forall</text>
</a>
</g>
</g>
<!-- Forall_equiv_path_forall&#45;&gt;Forall_isequiv_path_forall -->
<g id="edge32" class="edge">
<title>Forall_equiv_path_forall&#45;&gt;Forall_isequiv_path_forall</title>
<path fill="none" stroke="black" d="M452.73,-586.77C446.54,-569.76 436.96,-543.49 429.77,-523.75"/>
<polygon fill="black" stroke="black" points="432.96,-522.3 426.25,-514.11 426.39,-524.7 432.96,-522.3"/>
</g>
<!-- Forall_equiv_apD10 -->
<g id="node38" class="node">
<title>Forall_equiv_apD10</title>
<g id="a_node38"><a xlink:href="Forall.html#equiv_apD10" xlink:title="equiv_apD10">
<ellipse fill="#f070d1" stroke="black" cx="319" cy="-955.96" rx="70.7" ry="18"/>
<ellipse fill="none" stroke="black" cx="319" cy="-955.96" rx="74.7" ry="22"/>
<ellipse fill="none" stroke="black" cx="319" cy="-955.96" rx="78.69" ry="26"/>
<text text-anchor="middle" x="319" y="-952.26" font-family="Times,serif" font-size="14.00">equiv_apD10</text>
</a>
</g>
</g>
<!-- Forall_path_forall_1&#45;&gt;Forall_eta_path_forall -->
<g id="edge33" class="edge">
<title>Forall_path_forall_1&#45;&gt;Forall_eta_path_forall</title>
<path fill="none" stroke="black" d="M351.59,-138.24C365.87,-120.67 388.49,-92.86 404.85,-72.74"/>
<polygon fill="black" stroke="black" points="407.62,-74.88 411.21,-64.91 402.19,-70.46 407.62,-74.88"/>
</g>
<!-- Forall_apD10_path_forall -->
<g id="node41" class="node">
<title>Forall_apD10_path_forall</title>
<g id="a_node41"><a xlink:href="Forall.html#apD10_path_forall" xlink:title="apD10_path_forall">
<ellipse fill="#f070d1" stroke="black" cx="119" cy="-955.96" rx="94.79" ry="18"/>
<ellipse fill="none" stroke="black" cx="119" cy="-955.96" rx="98.79" ry="22"/>
<ellipse fill="none" stroke="black" cx="119" cy="-955.96" rx="102.78" ry="26"/>
<text text-anchor="middle" x="119" y="-952.26" font-family="Times,serif" font-size="14.00">apD10_path_forall</text>
</a>
</g>
</g>
</g>
</svg>
