<?xml version="1.0" encoding="UTF-8" standalone="no"?>
<!DOCTYPE svg PUBLIC "-//W3C//DTD SVG 1.1//EN"
 "http://www.w3.org/Graphics/SVG/1.1/DTD/svg11.dtd">
<!-- Generated by graphviz version 2.43.0 (0)
 -->
<!-- Title: HoTT_Sets_Powers Pages: 1 -->
<svg width="830pt" height="419pt"
 viewBox="0.00 0.00 830.00 419.00" xmlns="http://www.w3.org/2000/svg" xmlns:xlink="http://www.w3.org/1999/xlink">
<g id="graph0" class="graph" transform="scale(1 1) rotate(0) translate(4 415)">
<title>HoTT_Sets_Powers</title>
<polygon fill="white" stroke="transparent" points="-4,4 -4,-415 826,-415 826,4 -4,4"/>
<g id="clust1" class="cluster">
<title>cluster_Powers</title>
<polygon fill="#ffffc3" stroke="black" points="9.71,-8 9.71,-403 812.29,-403 812.29,-8 9.71,-8"/>
<text text-anchor="middle" x="43.71" y="-387.8" font-family="Times,serif" font-size="14.00">Powers</text>
</g>
<!-- Powers_infinite_power_iterated -->
<g id="node1" class="node">
<title>Powers_infinite_power_iterated</title>
<g id="a_node1"><a xlink:href="Powers.html#infinite_power_iterated" xlink:title="infinite_power_iterated">
<ellipse fill="#f070d1" stroke="black" cx="416.2" cy="-346" rx="118.09" ry="18"/>
<ellipse fill="none" stroke="black" cx="416.2" cy="-346" rx="122.09" ry="22"/>
<ellipse fill="none" stroke="black" cx="416.2" cy="-346" rx="126.08" ry="26"/>
<text text-anchor="middle" x="416.2" y="-342.3" font-family="Times,serif" font-size="14.00">infinite_power_iterated</text>
</a>
</g>
</g>
<!-- Powers_infinite_inject -->
<g id="node2" class="node">
<title>Powers_infinite_inject</title>
<g id="a_node2"><a xlink:href="Powers.html#infinite_inject" xlink:title="infinite_inject">
<ellipse fill="#f070d1" stroke="black" cx="284.2" cy="-266" rx="73.39" ry="18"/>
<text text-anchor="middle" x="284.2" y="-262.3" font-family="Times,serif" font-size="14.00">infinite_inject</text>
</a>
</g>
</g>
<!-- Powers_infinite_power_iterated&#45;&gt;Powers_infinite_inject -->
<g id="edge1" class="edge">
<title>Powers_infinite_power_iterated&#45;&gt;Powers_infinite_inject</title>
<path fill="none" stroke="black" d="M375.88,-321.17C357.93,-310.57 336.98,-298.19 319.64,-287.94"/>
<polygon fill="black" stroke="black" points="321.33,-284.87 310.94,-282.8 317.77,-290.9 321.33,-284.87"/>
</g>
<!-- Powers_Injection_power_iterated -->
<g id="node3" class="node">
<title>Powers_Injection_power_iterated</title>
<g id="a_node3"><a xlink:href="Powers.html#Injection_power_iterated" xlink:title="Injection_power_iterated">
<ellipse fill="#f070d1" stroke="black" cx="549.2" cy="-266" rx="126.18" ry="18"/>
<text text-anchor="middle" x="549.2" y="-262.3" font-family="Times,serif" font-size="14.00">Injection_power_iterated</text>
</a>
</g>
</g>
<!-- Powers_infinite_power_iterated&#45;&gt;Powers_Injection_power_iterated -->
<g id="edge2" class="edge">
<title>Powers_infinite_power_iterated&#45;&gt;Powers_Injection_power_iterated</title>
<path fill="none" stroke="black" d="M456.83,-321.17C474.39,-310.87 494.81,-298.9 511.97,-288.83"/>
<polygon fill="black" stroke="black" points="513.77,-291.84 520.62,-283.76 510.23,-285.8 513.77,-291.84"/>
</g>
<!-- Powers_hset_power_iterated -->
<g id="node4" class="node">
<title>Powers_hset_power_iterated</title>
<g id="a_node4"><a xlink:href="Powers.html#hset_power_iterated" xlink:title="hset_power_iterated">
<ellipse fill="#f070d1" stroke="black" cx="448.2" cy="-186" rx="105.08" ry="18"/>
<text text-anchor="middle" x="448.2" y="-182.3" font-family="Times,serif" font-size="14.00">hset_power_iterated</text>
</a>
</g>
</g>
<!-- Powers_Injection_power_iterated&#45;&gt;Powers_hset_power_iterated -->
<g id="edge3" class="edge">
<title>Powers_Injection_power_iterated&#45;&gt;Powers_hset_power_iterated</title>
<path fill="none" stroke="black" d="M527.28,-248.08C512.76,-236.86 493.53,-222.01 477.67,-209.76"/>
<polygon fill="black" stroke="black" points="479.78,-206.97 469.73,-203.62 475.5,-212.51 479.78,-206.97"/>
</g>
<!-- Powers_Injection_power -->
<g id="node8" class="node">
<title>Powers_Injection_power</title>
<g id="a_node8"><a xlink:href="Powers.html#Injection_power" xlink:title="Injection_power">
<ellipse fill="#f070d1" stroke="black" cx="700.2" cy="-186" rx="84.49" ry="18"/>
<text text-anchor="middle" x="700.2" y="-182.3" font-family="Times,serif" font-size="14.00">Injection_power</text>
</a>
</g>
</g>
<!-- Powers_Injection_power_iterated&#45;&gt;Powers_Injection_power -->
<g id="edge4" class="edge">
<title>Powers_Injection_power_iterated&#45;&gt;Powers_Injection_power</title>
<path fill="none" stroke="black" d="M581.22,-248.46C604.33,-236.52 635.68,-220.33 660.39,-207.56"/>
<polygon fill="black" stroke="black" points="662.23,-210.55 669.51,-202.85 659.02,-204.33 662.23,-210.55"/>
</g>
<!-- Powers_hset_power -->
<g id="node5" class="node">
<title>Powers_hset_power</title>
<g id="a_node5"><a xlink:href="Powers.html#hset_power" xlink:title="hset_power">
<ellipse fill="#f070d1" stroke="black" cx="448.2" cy="-106" rx="63.89" ry="18"/>
<text text-anchor="middle" x="448.2" y="-102.3" font-family="Times,serif" font-size="14.00">hset_power</text>
</a>
</g>
</g>
<!-- Powers_hset_power_iterated&#45;&gt;Powers_hset_power -->
<g id="edge5" class="edge">
<title>Powers_hset_power_iterated&#45;&gt;Powers_hset_power</title>
<path fill="none" stroke="black" d="M448.2,-167.69C448.2,-157.89 448.2,-145.42 448.2,-134.33"/>
<polygon fill="black" stroke="black" points="451.7,-134.26 448.2,-124.26 444.7,-134.26 451.7,-134.26"/>
</g>
<!-- Powers_power_iterated -->
<g id="node7" class="node">
<title>Powers_power_iterated</title>
<g id="a_node7"><a xlink:href="Powers.html#power_iterated" xlink:title="power_iterated">
<ellipse fill="#f070d1" stroke="black" cx="204.2" cy="-106" rx="81.49" ry="18"/>
<text text-anchor="middle" x="204.2" y="-102.3" font-family="Times,serif" font-size="14.00">power_iterated</text>
</a>
</g>
</g>
<!-- Powers_hset_power_iterated&#45;&gt;Powers_power_iterated -->
<g id="edge6" class="edge">
<title>Powers_hset_power_iterated&#45;&gt;Powers_power_iterated</title>
<path fill="none" stroke="black" d="M400.86,-169.87C359.98,-156.8 300.91,-137.92 258.2,-124.26"/>
<polygon fill="black" stroke="black" points="259.12,-120.88 248.53,-121.17 256.99,-127.55 259.12,-120.88"/>
</g>
<!-- Powers_power_iterated_shift -->
<g id="node6" class="node">
<title>Powers_power_iterated_shift</title>
<g id="a_node6"><a xlink:href="Powers.html#power_iterated_shift" xlink:title="power_iterated_shift">
<ellipse fill="#f070d1" stroke="black" cx="159.2" cy="-186" rx="106.67" ry="18"/>
<ellipse fill="none" stroke="black" cx="159.2" cy="-186" rx="110.68" ry="22"/>
<ellipse fill="none" stroke="black" cx="159.2" cy="-186" rx="114.68" ry="26"/>
<text text-anchor="middle" x="159.2" y="-182.3" font-family="Times,serif" font-size="14.00">power_iterated_shift</text>
</a>
</g>
</g>
<!-- Powers_power_iterated_shift&#45;&gt;Powers_power_iterated -->
<g id="edge7" class="edge">
<title>Powers_power_iterated_shift&#45;&gt;Powers_power_iterated</title>
<path fill="none" stroke="black" d="M173.69,-159.89C178.72,-151.16 184.37,-141.37 189.43,-132.61"/>
<polygon fill="black" stroke="black" points="192.47,-134.34 194.43,-123.93 186.4,-130.84 192.47,-134.34"/>
</g>
<!-- Powers_power_type -->
<g id="node9" class="node">
<title>Powers_power_type</title>
<g id="a_node9"><a xlink:href="Powers.html#power_type" xlink:title="power_type">
<ellipse fill="#f070d1" stroke="black" cx="204.2" cy="-34" rx="64.19" ry="18"/>
<text text-anchor="middle" x="204.2" y="-30.3" font-family="Times,serif" font-size="14.00">power_type</text>
</a>
</g>
</g>
<!-- Powers_power_iterated&#45;&gt;Powers_power_type -->
<g id="edge8" class="edge">
<title>Powers_power_iterated&#45;&gt;Powers_power_type</title>
<path fill="none" stroke="black" d="M204.2,-87.7C204.2,-79.98 204.2,-70.71 204.2,-62.11"/>
<polygon fill="black" stroke="black" points="207.7,-62.1 204.2,-52.1 200.7,-62.1 207.7,-62.1"/>
</g>
</g>
</svg>
