<?xml version="1.0" encoding="UTF-8" standalone="no"?>
<!DOCTYPE svg PUBLIC "-//W3C//DTD SVG 1.1//EN"
 "http://www.w3.org/Graphics/SVG/1.1/DTD/svg11.dtd">
<!-- Generated by graphviz version 2.43.0 (0)
 -->
<!-- Title: HoTT_Spaces_Finite_FinNat Pages: 1 -->
<svg width="2772pt" height="1390pt"
 viewBox="0.00 0.00 2772.00 1390.00" xmlns="http://www.w3.org/2000/svg" xmlns:xlink="http://www.w3.org/1999/xlink">
<g id="graph0" class="graph" transform="scale(1 1) rotate(0) translate(4 1386)">
<title>HoTT_Spaces_Finite_FinNat</title>
<polygon fill="white" stroke="transparent" points="-4,4 -4,-1386 2768,-1386 2768,4 -4,4"/>
<g id="clust1" class="cluster">
<title>cluster_FinNat</title>
<polygon fill="#ffffc3" stroke="black" points="8,-22.16 8,-1359.84 2756,-1359.84 2756,-22.16 8,-22.16"/>
<text text-anchor="middle" x="41" y="-1344.64" font-family="Times,serif" font-size="14.00">FinNat</text>
</g>
<!-- FinNat_equiv_fin_finnat -->
<g id="node1" class="node">
<title>FinNat_equiv_fin_finnat</title>
<g id="a_node1"><a xlink:href="FinNat.html#equiv_fin_finnat" xlink:title="equiv_fin_finnat">
<ellipse fill="#f070d1" stroke="black" cx="1053" cy="-1202.16" rx="83.37" ry="18"/>
<ellipse fill="none" stroke="black" cx="1053" cy="-1202.16" rx="87.38" ry="22"/>
<ellipse fill="none" stroke="black" cx="1053" cy="-1202.16" rx="91.39" ry="26"/>
<text text-anchor="middle" x="1053" y="-1198.46" font-family="Times,serif" font-size="14.00">equiv_fin_finnat</text>
</a>
</g>
</g>
<!-- FinNat_path_fin_to_finnat_to_fin -->
<g id="node2" class="node">
<title>FinNat_path_fin_to_finnat_to_fin</title>
<g id="a_node2"><a xlink:href="FinNat.html#path_fin_to_finnat_to_fin" xlink:title="path_fin_to_finnat_to_fin">
<ellipse fill="#f070d1" stroke="black" cx="1202" cy="-958.16" rx="122.38" ry="18"/>
<text text-anchor="middle" x="1202" y="-954.46" font-family="Times,serif" font-size="14.00">path_fin_to_finnat_to_fin</text>
</a>
</g>
</g>
<!-- FinNat_equiv_fin_finnat&#45;&gt;FinNat_path_fin_to_finnat_to_fin -->
<g id="edge1" class="edge">
<title>FinNat_equiv_fin_finnat&#45;&gt;FinNat_path_fin_to_finnat_to_fin</title>
<path fill="none" stroke="black" d="M1068.38,-1176.17C1096.82,-1129.98 1157.34,-1031.68 1186.14,-984.92"/>
<polygon fill="black" stroke="black" points="1189.19,-986.63 1191.46,-976.28 1183.23,-982.96 1189.19,-986.63"/>
</g>
<!-- FinNat_path_finnat_to_fin_to_finnat -->
<g id="node3" class="node">
<title>FinNat_path_finnat_to_fin_to_finnat</title>
<g id="a_node3"><a xlink:href="FinNat.html#path_finnat_to_fin_to_finnat" xlink:title="path_finnat_to_fin_to_finnat">
<ellipse fill="#f070d1" stroke="black" cx="784" cy="-737.16" rx="137.58" ry="18"/>
<text text-anchor="middle" x="784" y="-733.46" font-family="Times,serif" font-size="14.00">path_finnat_to_fin_to_finnat</text>
</a>
</g>
</g>
<!-- FinNat_equiv_fin_finnat&#45;&gt;FinNat_path_finnat_to_fin_to_finnat -->
<g id="edge2" class="edge">
<title>FinNat_equiv_fin_finnat&#45;&gt;FinNat_path_finnat_to_fin_to_finnat</title>
<path fill="none" stroke="black" d="M1038.54,-1176.26C992.08,-1096.3 846.92,-846.45 799.3,-764.49"/>
<polygon fill="black" stroke="black" points="802.04,-762.24 793.99,-755.35 795.99,-765.75 802.04,-762.24"/>
</g>
<!-- FinNat_path_finnat_to_fin_last -->
<g id="node4" class="node">
<title>FinNat_path_finnat_to_fin_last</title>
<g id="a_node4"><a xlink:href="FinNat.html#path_finnat_to_fin_last" xlink:title="path_finnat_to_fin_last">
<ellipse fill="#f070d1" stroke="black" cx="894" cy="-515.16" rx="114.28" ry="18"/>
<text text-anchor="middle" x="894" y="-511.46" font-family="Times,serif" font-size="14.00">path_finnat_to_fin_last</text>
</a>
</g>
</g>
<!-- FinNat_path_fin_to_finnat_to_fin&#45;&gt;FinNat_path_finnat_to_fin_last -->
<g id="edge3" class="edge">
<title>FinNat_path_fin_to_finnat_to_fin&#45;&gt;FinNat_path_finnat_to_fin_last</title>
<path fill="none" stroke="black" d="M1190.11,-940.14C1142.96,-872.62 968.84,-623.32 912.05,-541.99"/>
<polygon fill="black" stroke="black" points="914.61,-539.56 906.02,-533.36 908.87,-543.56 914.61,-539.56"/>
</g>
<!-- FinNat_path_finnat_to_fin_incl -->
<g id="node5" class="node">
<title>FinNat_path_finnat_to_fin_incl</title>
<g id="a_node5"><a xlink:href="FinNat.html#path_finnat_to_fin_incl" xlink:title="path_finnat_to_fin_incl">
<ellipse fill="#f070d1" stroke="black" cx="1357" cy="-737.16" rx="113.98" ry="18"/>
<text text-anchor="middle" x="1357" y="-733.46" font-family="Times,serif" font-size="14.00">path_finnat_to_fin_incl</text>
</a>
</g>
</g>
<!-- FinNat_path_fin_to_finnat_to_fin&#45;&gt;FinNat_path_finnat_to_fin_incl -->
<g id="edge4" class="edge">
<title>FinNat_path_fin_to_finnat_to_fin&#45;&gt;FinNat_path_finnat_to_fin_incl</title>
<path fill="none" stroke="black" d="M1214.16,-939.97C1241.33,-901.59 1307.04,-808.74 1338.98,-763.62"/>
<polygon fill="black" stroke="black" points="1341.97,-765.45 1344.89,-755.26 1336.26,-761.4 1341.97,-765.45"/>
</g>
<!-- FinNat_fin_to_finnat -->
<g id="node13" class="node">
<title>FinNat_fin_to_finnat</title>
<g id="a_node13"><a xlink:href="FinNat.html#fin_to_finnat" xlink:title="fin_to_finnat">
<ellipse fill="#f070d1" stroke="black" cx="1952" cy="-293.16" rx="67.69" ry="18"/>
<text text-anchor="middle" x="1952" y="-289.46" font-family="Times,serif" font-size="14.00">fin_to_finnat</text>
</a>
</g>
</g>
<!-- FinNat_path_fin_to_finnat_to_fin&#45;&gt;FinNat_fin_to_finnat -->
<g id="edge5" class="edge">
<title>FinNat_path_fin_to_finnat_to_fin&#45;&gt;FinNat_fin_to_finnat</title>
<path fill="none" stroke="black" d="M1312.18,-950.27C1530.11,-930.02 2013.06,-850.64 2221,-541.16 2290.31,-438 2095.77,-348 2000.8,-311.49"/>
<polygon fill="black" stroke="black" points="2001.97,-308.19 1991.38,-307.92 1999.49,-314.74 2001.97,-308.19"/>
</g>
<!-- FinNat_path_fin_to_finnat_fin_zero -->
<g id="node10" class="node">
<title>FinNat_path_fin_to_finnat_fin_zero</title>
<g id="a_node10"><a xlink:href="FinNat.html#path_fin_to_finnat_fin_zero" xlink:title="path_fin_to_finnat_fin_zero">
<ellipse fill="#f070d1" stroke="black" cx="609" cy="-515.16" rx="133.48" ry="18"/>
<text text-anchor="middle" x="609" y="-511.46" font-family="Times,serif" font-size="14.00">path_fin_to_finnat_fin_zero</text>
</a>
</g>
</g>
<!-- FinNat_path_finnat_to_fin_to_finnat&#45;&gt;FinNat_path_fin_to_finnat_fin_zero -->
<g id="edge6" class="edge">
<title>FinNat_path_finnat_to_fin_to_finnat&#45;&gt;FinNat_path_fin_to_finnat_fin_zero</title>
<path fill="none" stroke="black" d="M770.27,-718.89C739.47,-680.18 664.78,-586.29 628.9,-541.17"/>
<polygon fill="black" stroke="black" points="631.63,-538.99 622.67,-533.34 626.15,-543.34 631.63,-538.99"/>
</g>
<!-- FinNat_path_fin_to_finnat_fsucc -->
<g id="node11" class="node">
<title>FinNat_path_fin_to_finnat_fsucc</title>
<g id="a_node11"><a xlink:href="FinNat.html#path_fin_to_finnat_fsucc" xlink:title="path_fin_to_finnat_fsucc">
<ellipse fill="#f070d1" stroke="black" cx="2091" cy="-515.16" rx="120.78" ry="18"/>
<text text-anchor="middle" x="2091" y="-511.46" font-family="Times,serif" font-size="14.00">path_fin_to_finnat_fsucc</text>
</a>
</g>
</g>
<!-- FinNat_path_finnat_to_fin_to_finnat&#45;&gt;FinNat_path_fin_to_finnat_fsucc -->
<g id="edge7" class="edge">
<title>FinNat_path_finnat_to_fin_to_finnat&#45;&gt;FinNat_path_fin_to_finnat_fsucc</title>
<path fill="none" stroke="black" d="M868.7,-722.89C1062.38,-692.39 1552.46,-614.27 1961,-541.16 1977.21,-538.26 1994.52,-535.02 2011.06,-531.87"/>
<polygon fill="black" stroke="black" points="2012.07,-535.24 2021.23,-529.92 2010.75,-528.36 2012.07,-535.24"/>
</g>
<!-- FinNat_finnat_to_fin -->
<g id="node12" class="node">
<title>FinNat_finnat_to_fin</title>
<g id="a_node12"><a xlink:href="FinNat.html#finnat_to_fin" xlink:title="finnat_to_fin">
<ellipse fill="#f070d1" stroke="black" cx="894" cy="-293.16" rx="67.69" ry="18"/>
<text text-anchor="middle" x="894" y="-289.46" font-family="Times,serif" font-size="14.00">finnat_to_fin</text>
</a>
</g>
</g>
<!-- FinNat_path_finnat_to_fin_to_finnat&#45;&gt;FinNat_finnat_to_fin -->
<g id="edge8" class="edge">
<title>FinNat_path_finnat_to_fin_to_finnat&#45;&gt;FinNat_finnat_to_fin</title>
<path fill="none" stroke="black" d="M779.29,-718.95C768.93,-678.1 746.91,-572.49 771,-489.16 790.76,-420.81 842.38,-353.36 872.09,-318.52"/>
<polygon fill="black" stroke="black" points="874.88,-320.63 878.78,-310.78 869.59,-316.05 874.88,-320.63"/>
</g>
<!-- FinNat_path_finnat_to_fin_last&#45;&gt;FinNat_finnat_to_fin -->
<g id="edge9" class="edge">
<title>FinNat_path_finnat_to_fin_last&#45;&gt;FinNat_finnat_to_fin</title>
<path fill="none" stroke="black" d="M894,-496.89C894,-458.82 894,-367.39 894,-321.46"/>
<polygon fill="black" stroke="black" points="897.5,-321.34 894,-311.34 890.5,-321.34 897.5,-321.34"/>
</g>
<!-- FinNat_last_finnat -->
<g id="node21" class="node">
<title>FinNat_last_finnat</title>
<g id="a_node21"><a xlink:href="FinNat.html#last_finnat" xlink:title="last_finnat">
<ellipse fill="#f070d1" stroke="black" cx="1386" cy="-293.16" rx="59.29" ry="18"/>
<text text-anchor="middle" x="1386" y="-289.46" font-family="Times,serif" font-size="14.00">last_finnat</text>
</a>
</g>
</g>
<!-- FinNat_path_finnat_to_fin_last&#45;&gt;FinNat_last_finnat -->
<g id="edge10" class="edge">
<title>FinNat_path_finnat_to_fin_last&#45;&gt;FinNat_last_finnat</title>
<path fill="none" stroke="black" d="M930.18,-497.98C1019.54,-458.02 1250.28,-354.84 1344.75,-312.6"/>
<polygon fill="black" stroke="black" points="1346.29,-315.75 1353.99,-308.47 1343.43,-309.36 1346.29,-315.75"/>
</g>
<!-- FinNat_path_finnat_to_fin_succ -->
<g id="node7" class="node">
<title>FinNat_path_finnat_to_fin_succ</title>
<g id="a_node7"><a xlink:href="FinNat.html#path_finnat_to_fin_succ" xlink:title="path_finnat_to_fin_succ">
<ellipse fill="#f070d1" stroke="black" cx="1144" cy="-515.16" rx="117.78" ry="18"/>
<text text-anchor="middle" x="1144" y="-511.46" font-family="Times,serif" font-size="14.00">path_finnat_to_fin_succ</text>
</a>
</g>
</g>
<!-- FinNat_path_finnat_to_fin_incl&#45;&gt;FinNat_path_finnat_to_fin_succ -->
<g id="edge11" class="edge">
<title>FinNat_path_finnat_to_fin_incl&#45;&gt;FinNat_path_finnat_to_fin_succ</title>
<path fill="none" stroke="black" d="M1340.64,-719.26C1303.16,-680.55 1210.97,-585.33 1167.46,-540.39"/>
<polygon fill="black" stroke="black" points="1169.89,-537.86 1160.42,-533.11 1164.86,-542.73 1169.89,-537.86"/>
</g>
<!-- FinNat_incl_finnat -->
<g id="node19" class="node">
<title>FinNat_incl_finnat</title>
<g id="a_node19"><a xlink:href="FinNat.html#incl_finnat" xlink:title="incl_finnat">
<ellipse fill="#f070d1" stroke="black" cx="2512" cy="-293.16" rx="58.49" ry="18"/>
<text text-anchor="middle" x="2512" y="-289.46" font-family="Times,serif" font-size="14.00">incl_finnat</text>
</a>
</g>
</g>
<!-- FinNat_path_finnat_to_fin_incl&#45;&gt;FinNat_incl_finnat -->
<g id="edge12" class="edge">
<title>FinNat_path_finnat_to_fin_incl&#45;&gt;FinNat_incl_finnat</title>
<path fill="none" stroke="black" d="M1459.45,-729.32C1764.85,-707.92 2653.05,-637.8 2737,-541.16 2812.45,-454.29 2635.9,-353.75 2552.56,-312.87"/>
<polygon fill="black" stroke="black" points="2553.89,-309.63 2543.36,-308.42 2550.84,-315.93 2553.89,-309.63"/>
</g>
<!-- FinNat_path_succ_finnat -->
<g id="node22" class="node">
<title>FinNat_path_succ_finnat</title>
<g id="a_node22"><a xlink:href="FinNat.html#path_succ_finnat" xlink:title="path_succ_finnat">
<ellipse fill="#f070d1" stroke="black" cx="1570" cy="-515.16" rx="87.99" ry="18"/>
<text text-anchor="middle" x="1570" y="-511.46" font-family="Times,serif" font-size="14.00">path_succ_finnat</text>
</a>
</g>
</g>
<!-- FinNat_path_finnat_to_fin_incl&#45;&gt;FinNat_path_succ_finnat -->
<g id="edge13" class="edge">
<title>FinNat_path_finnat_to_fin_incl&#45;&gt;FinNat_path_succ_finnat</title>
<path fill="none" stroke="black" d="M1373.36,-719.26C1410.84,-680.55 1503.03,-585.33 1546.54,-540.39"/>
<polygon fill="black" stroke="black" points="1549.14,-542.73 1553.58,-533.11 1544.11,-537.86 1549.14,-542.73"/>
</g>
<!-- FinNat_path_finnat_to_fin_zero -->
<g id="node6" class="node">
<title>FinNat_path_finnat_to_fin_zero</title>
<g id="a_node6"><a xlink:href="FinNat.html#path_finnat_to_fin_zero" xlink:title="path_finnat_to_fin_zero">
<ellipse fill="#f070d1" stroke="black" cx="333" cy="-515.16" rx="116.98" ry="18"/>
<ellipse fill="none" stroke="black" cx="333" cy="-515.16" rx="120.98" ry="22"/>
<ellipse fill="none" stroke="black" cx="333" cy="-515.16" rx="124.98" ry="26"/>
<text text-anchor="middle" x="333" y="-511.46" font-family="Times,serif" font-size="14.00">path_finnat_to_fin_zero</text>
</a>
</g>
</g>
<!-- FinNat_path_finnat_to_fin_zero&#45;&gt;FinNat_finnat_to_fin -->
<g id="edge14" class="edge">
<title>FinNat_path_finnat_to_fin_zero&#45;&gt;FinNat_finnat_to_fin</title>
<path fill="none" stroke="black" d="M389.62,-491.95C500.93,-448.3 746.27,-352.09 848.2,-312.12"/>
<polygon fill="black" stroke="black" points="849.58,-315.34 857.61,-308.43 847.02,-308.82 849.58,-315.34"/>
</g>
<!-- FinNat_zero_finnat -->
<g id="node25" class="node">
<title>FinNat_zero_finnat</title>
<g id="a_node25"><a xlink:href="FinNat.html#zero_finnat" xlink:title="zero_finnat">
<ellipse fill="#f070d1" stroke="black" cx="471" cy="-293.16" rx="61.99" ry="18"/>
<text text-anchor="middle" x="471" y="-289.46" font-family="Times,serif" font-size="14.00">zero_finnat</text>
</a>
</g>
</g>
<!-- FinNat_path_finnat_to_fin_zero&#45;&gt;FinNat_zero_finnat -->
<g id="edge15" class="edge">
<title>FinNat_path_finnat_to_fin_zero&#45;&gt;FinNat_zero_finnat</title>
<path fill="none" stroke="black" d="M348.56,-489.35C374.96,-447.26 428.25,-362.31 454.97,-319.72"/>
<polygon fill="black" stroke="black" points="458.05,-321.39 460.4,-311.06 452.12,-317.67 458.05,-321.39"/>
</g>
<!-- FinNat_path_finnat_to_fin_succ&#45;&gt;FinNat_finnat_to_fin -->
<g id="edge16" class="edge">
<title>FinNat_path_finnat_to_fin_succ&#45;&gt;FinNat_finnat_to_fin</title>
<path fill="none" stroke="black" d="M1124.8,-497.26C1080.41,-458.2 970.64,-361.6 920.16,-317.18"/>
<polygon fill="black" stroke="black" points="922.4,-314.49 912.59,-310.51 917.78,-319.75 922.4,-314.49"/>
</g>
<!-- FinNat_succ_finnat -->
<g id="node23" class="node">
<title>FinNat_succ_finnat</title>
<g id="a_node23"><a xlink:href="FinNat.html#succ_finnat" xlink:title="succ_finnat">
<ellipse fill="#f070d1" stroke="black" cx="1541" cy="-293.16" rx="62.29" ry="18"/>
<text text-anchor="middle" x="1541" y="-289.46" font-family="Times,serif" font-size="14.00">succ_finnat</text>
</a>
</g>
</g>
<!-- FinNat_path_finnat_to_fin_succ&#45;&gt;FinNat_succ_finnat -->
<g id="edge17" class="edge">
<title>FinNat_path_finnat_to_fin_succ&#45;&gt;FinNat_succ_finnat</title>
<path fill="none" stroke="black" d="M1173.84,-497.62C1245.4,-457.96 1426.63,-357.54 1504.51,-314.38"/>
<polygon fill="black" stroke="black" points="1506.43,-317.32 1513.48,-309.41 1503.04,-311.19 1506.43,-317.32"/>
</g>
<!-- FinNat_path_fin_to_finnat_fin_last -->
<g id="node8" class="node">
<title>FinNat_path_fin_to_finnat_fin_last</title>
<g id="a_node8"><a xlink:href="FinNat.html#path_fin_to_finnat_fin_last" xlink:title="path_fin_to_finnat_fin_last">
<ellipse fill="#f070d1" stroke="black" cx="1814" cy="-515.16" rx="129.98" ry="18"/>
<ellipse fill="none" stroke="black" cx="1814" cy="-515.16" rx="133.98" ry="22"/>
<ellipse fill="none" stroke="black" cx="1814" cy="-515.16" rx="137.98" ry="26"/>
<text text-anchor="middle" x="1814" y="-511.46" font-family="Times,serif" font-size="14.00">path_fin_to_finnat_fin_last</text>
</a>
</g>
</g>
<!-- FinNat_path_fin_to_finnat_fin_last&#45;&gt;FinNat_fin_to_finnat -->
<g id="edge18" class="edge">
<title>FinNat_path_fin_to_finnat_fin_last&#45;&gt;FinNat_fin_to_finnat</title>
<path fill="none" stroke="black" d="M1829.83,-488.92C1856.35,-446.65 1909.44,-362.01 1936.04,-319.6"/>
<polygon fill="black" stroke="black" points="1939.1,-321.31 1941.45,-310.98 1933.17,-317.59 1939.1,-321.31"/>
</g>
<!-- FinNat_path_fin_to_finnat_fin_last&#45;&gt;FinNat_last_finnat -->
<g id="edge19" class="edge">
<title>FinNat_path_fin_to_finnat_fin_last&#45;&gt;FinNat_last_finnat</title>
<path fill="none" stroke="black" d="M1768.2,-490.61C1683.23,-446.94 1502.72,-354.15 1424.02,-313.7"/>
<polygon fill="black" stroke="black" points="1425.43,-310.49 1414.94,-309.03 1422.23,-316.71 1425.43,-310.49"/>
</g>
<!-- FinNat_path_fin_to_finnat_fin_incl -->
<g id="node9" class="node">
<title>FinNat_path_fin_to_finnat_fin_incl</title>
<g id="a_node9"><a xlink:href="FinNat.html#path_fin_to_finnat_fin_incl" xlink:title="path_fin_to_finnat_fin_incl">
<ellipse fill="#f070d1" stroke="black" cx="2388" cy="-515.16" rx="129.98" ry="18"/>
<ellipse fill="none" stroke="black" cx="2388" cy="-515.16" rx="133.98" ry="22"/>
<ellipse fill="none" stroke="black" cx="2388" cy="-515.16" rx="137.98" ry="26"/>
<text text-anchor="middle" x="2388" y="-511.46" font-family="Times,serif" font-size="14.00">path_fin_to_finnat_fin_incl</text>
</a>
</g>
</g>
<!-- FinNat_path_fin_to_finnat_fin_incl&#45;&gt;FinNat_fin_to_finnat -->
<g id="edge20" class="edge">
<title>FinNat_path_fin_to_finnat_fin_incl&#45;&gt;FinNat_fin_to_finnat</title>
<path fill="none" stroke="black" d="M2341.34,-490.61C2255,-447.05 2071.8,-354.6 1991.31,-313.99"/>
<polygon fill="black" stroke="black" points="1992.53,-310.69 1982.02,-309.3 1989.37,-316.93 1992.53,-310.69"/>
</g>
<!-- FinNat_path_fin_to_finnat_fin_incl&#45;&gt;FinNat_incl_finnat -->
<g id="edge21" class="edge">
<title>FinNat_path_fin_to_finnat_fin_incl&#45;&gt;FinNat_incl_finnat</title>
<path fill="none" stroke="black" d="M2402.22,-488.92C2426,-446.74 2473.56,-362.36 2497.51,-319.87"/>
<polygon fill="black" stroke="black" points="2500.66,-321.41 2502.52,-310.98 2494.56,-317.97 2500.66,-321.41"/>
</g>
<!-- FinNat_path_fin_to_finnat_fin_zero&#45;&gt;FinNat_fin_to_finnat -->
<g id="edge22" class="edge">
<title>FinNat_path_fin_to_finnat_fin_zero&#45;&gt;FinNat_fin_to_finnat</title>
<path fill="none" stroke="black" d="M690.24,-500.85C935.13,-460.73 1663.02,-341.5 1886.2,-304.94"/>
<polygon fill="black" stroke="black" points="1886.83,-308.38 1896.13,-303.31 1885.7,-301.47 1886.83,-308.38"/>
</g>
<!-- FinNat_path_fin_to_finnat_fin_zero&#45;&gt;FinNat_zero_finnat -->
<g id="edge23" class="edge">
<title>FinNat_path_fin_to_finnat_fin_zero&#45;&gt;FinNat_zero_finnat</title>
<path fill="none" stroke="black" d="M598.17,-496.89C573.98,-458.32 515.43,-364.99 487.01,-319.68"/>
<polygon fill="black" stroke="black" points="489.87,-317.65 481.59,-311.04 483.94,-321.37 489.87,-317.65"/>
</g>
<!-- FinNat_path_fin_to_finnat_fsucc&#45;&gt;FinNat_fin_to_finnat -->
<g id="edge24" class="edge">
<title>FinNat_path_fin_to_finnat_fsucc&#45;&gt;FinNat_fin_to_finnat</title>
<path fill="none" stroke="black" d="M2080.09,-496.89C2055.72,-458.32 1996.76,-364.99 1968.13,-319.68"/>
<polygon fill="black" stroke="black" points="1970.97,-317.62 1962.67,-311.04 1965.05,-321.36 1970.97,-317.62"/>
</g>
<!-- FinNat_path_fin_to_finnat_fsucc&#45;&gt;FinNat_succ_finnat -->
<g id="edge25" class="edge">
<title>FinNat_path_fin_to_finnat_fsucc&#45;&gt;FinNat_succ_finnat</title>
<path fill="none" stroke="black" d="M2051,-498.16C1950.92,-458.13 1690.23,-353.85 1585.5,-311.96"/>
<polygon fill="black" stroke="black" points="1586.75,-308.68 1576.16,-308.22 1584.15,-315.18 1586.75,-308.68"/>
</g>
<!-- FinNat_FinNat -->
<g id="node26" class="node">
<title>FinNat_FinNat</title>
<g id="a_node26"><a xlink:href="FinNat.html#FinNat" xlink:title="FinNat">
<ellipse fill="#f070d1" stroke="black" cx="1470" cy="-94.16" rx="42.79" ry="18"/>
<text text-anchor="middle" x="1470" y="-90.46" font-family="Times,serif" font-size="14.00">FinNat</text>
</a>
</g>
</g>
<!-- FinNat_finnat_to_fin&#45;&gt;FinNat_FinNat -->
<g id="edge26" class="edge">
<title>FinNat_finnat_to_fin&#45;&gt;FinNat_FinNat</title>
<path fill="none" stroke="black" d="M934.05,-278.46C1039.07,-242.54 1321.66,-145.89 1428.41,-109.38"/>
<polygon fill="black" stroke="black" points="1429.55,-112.69 1437.88,-106.14 1427.29,-106.07 1429.55,-112.69"/>
</g>
<!-- FinNat_is_bounded_fin_to_nat -->
<g id="node14" class="node">
<title>FinNat_is_bounded_fin_to_nat</title>
<g id="a_node14"><a xlink:href="FinNat.html#is_bounded_fin_to_nat" xlink:title="is_bounded_fin_to_nat">
<ellipse fill="#f070d1" stroke="black" cx="1952" cy="-94.16" rx="112.38" ry="18"/>
<text text-anchor="middle" x="1952" y="-90.46" font-family="Times,serif" font-size="14.00">is_bounded_fin_to_nat</text>
</a>
</g>
</g>
<!-- FinNat_fin_to_finnat&#45;&gt;FinNat_is_bounded_fin_to_nat -->
<g id="edge27" class="edge">
<title>FinNat_fin_to_finnat&#45;&gt;FinNat_is_bounded_fin_to_nat</title>
<path fill="none" stroke="black" d="M1952,-275.02C1952,-240.82 1952,-163.84 1952,-122.55"/>
<polygon fill="black" stroke="black" points="1955.5,-122.39 1952,-112.39 1948.5,-122.39 1955.5,-122.39"/>
</g>
<!-- FinNat_fin_to_finnat&#45;&gt;FinNat_FinNat -->
<g id="edge28" class="edge">
<title>FinNat_fin_to_finnat&#45;&gt;FinNat_FinNat</title>
<path fill="none" stroke="black" d="M1916.56,-277.67C1828.56,-241.71 1600.62,-148.54 1508.99,-111.09"/>
<polygon fill="black" stroke="black" points="1510.11,-107.77 1499.53,-107.23 1507.46,-114.25 1510.11,-107.77"/>
</g>
<!-- FinNat_compute_finnat_ind_succ -->
<g id="node15" class="node">
<title>FinNat_compute_finnat_ind_succ</title>
<g id="a_node15"><a xlink:href="FinNat.html#compute_finnat_ind_succ" xlink:title="compute_finnat_ind_succ">
<ellipse fill="#f070d1" stroke="black" cx="666" cy="-958.16" rx="126.17" ry="18"/>
<ellipse fill="none" stroke="black" cx="666" cy="-958.16" rx="130.18" ry="22"/>
<ellipse fill="none" stroke="black" cx="666" cy="-958.16" rx="134.18" ry="26"/>
<text text-anchor="middle" x="666" y="-954.46" font-family="Times,serif" font-size="14.00">compute_finnat_ind_succ</text>
</a>
</g>
</g>
<!-- FinNat_finnat_ind -->
<g id="node17" class="node">
<title>FinNat_finnat_ind</title>
<g id="a_node17"><a xlink:href="FinNat.html#finnat_ind" xlink:title="finnat_ind">
<ellipse fill="#f070d1" stroke="black" cx="476" cy="-737.16" rx="56.59" ry="18"/>
<text text-anchor="middle" x="476" y="-733.46" font-family="Times,serif" font-size="14.00">finnat_ind</text>
</a>
</g>
</g>
<!-- FinNat_compute_finnat_ind_succ&#45;&gt;FinNat_finnat_ind -->
<g id="edge29" class="edge">
<title>FinNat_compute_finnat_ind_succ&#45;&gt;FinNat_finnat_ind</title>
<path fill="none" stroke="black" d="M644.57,-932.46C607.91,-890.2 533.56,-804.5 497.11,-762.49"/>
<polygon fill="black" stroke="black" points="499.55,-759.96 490.35,-754.7 494.26,-764.54 499.55,-759.96"/>
</g>
<!-- FinNat_compute_finnat_ind_zero -->
<g id="node16" class="node">
<title>FinNat_compute_finnat_ind_zero</title>
<g id="a_node16"><a xlink:href="FinNat.html#compute_finnat_ind_zero" xlink:title="compute_finnat_ind_zero">
<ellipse fill="#f070d1" stroke="black" cx="380" cy="-958.16" rx="125.38" ry="18"/>
<ellipse fill="none" stroke="black" cx="380" cy="-958.16" rx="129.38" ry="22"/>
<ellipse fill="none" stroke="black" cx="380" cy="-958.16" rx="133.38" ry="26"/>
<text text-anchor="middle" x="380" y="-954.46" font-family="Times,serif" font-size="14.00">compute_finnat_ind_zero</text>
</a>
</g>
</g>
<!-- FinNat_compute_finnat_ind_zero&#45;&gt;FinNat_finnat_ind -->
<g id="edge30" class="edge">
<title>FinNat_compute_finnat_ind_zero&#45;&gt;FinNat_finnat_ind</title>
<path fill="none" stroke="black" d="M391.01,-932.03C409.3,-890.32 445.75,-807.17 464.41,-764.6"/>
<polygon fill="black" stroke="black" points="467.72,-765.75 468.53,-755.19 461.31,-762.94 467.72,-765.75"/>
</g>
<!-- FinNat_finnat_ind&#45;&gt;FinNat_path_succ_finnat -->
<g id="edge31" class="edge">
<title>FinNat_finnat_ind&#45;&gt;FinNat_path_succ_finnat</title>
<path fill="none" stroke="black" d="M524.46,-727.73C669.15,-702.33 1110.48,-623.25 1473,-541.16 1484.73,-538.5 1497.2,-535.46 1509.15,-532.43"/>
<polygon fill="black" stroke="black" points="1510.22,-535.76 1519.04,-529.89 1508.49,-528.98 1510.22,-535.76"/>
</g>
<!-- FinNat_path_zero_finnat -->
<g id="node24" class="node">
<title>FinNat_path_zero_finnat</title>
<g id="a_node24"><a xlink:href="FinNat.html#path_zero_finnat" xlink:title="path_zero_finnat">
<ellipse fill="#f070d1" stroke="black" cx="103" cy="-515.16" rx="87.18" ry="18"/>
<text text-anchor="middle" x="103" y="-511.46" font-family="Times,serif" font-size="14.00">path_zero_finnat</text>
</a>
</g>
</g>
<!-- FinNat_finnat_ind&#45;&gt;FinNat_path_zero_finnat -->
<g id="edge32" class="edge">
<title>FinNat_finnat_ind&#45;&gt;FinNat_path_zero_finnat</title>
<path fill="none" stroke="black" d="M450.36,-721.03C385.36,-682.69 213.95,-581.6 138.97,-537.37"/>
<polygon fill="black" stroke="black" points="140.71,-534.34 130.32,-532.27 137.16,-540.37 140.71,-534.34"/>
</g>
<!-- FinNat_path_incl_finnat -->
<g id="node18" class="node">
<title>FinNat_path_incl_finnat</title>
<g id="a_node18"><a xlink:href="FinNat.html#path_incl_finnat" xlink:title="path_incl_finnat">
<ellipse fill="#f070d1" stroke="black" cx="2636" cy="-515.16" rx="83.7" ry="18"/>
<ellipse fill="none" stroke="black" cx="2636" cy="-515.16" rx="87.69" ry="22"/>
<ellipse fill="none" stroke="black" cx="2636" cy="-515.16" rx="91.69" ry="26"/>
<text text-anchor="middle" x="2636" y="-511.46" font-family="Times,serif" font-size="14.00">path_incl_finnat</text>
</a>
</g>
</g>
<!-- FinNat_path_incl_finnat&#45;&gt;FinNat_incl_finnat -->
<g id="edge33" class="edge">
<title>FinNat_path_incl_finnat&#45;&gt;FinNat_incl_finnat</title>
<path fill="none" stroke="black" d="M2622.02,-489.35C2598.35,-447.35 2550.61,-362.66 2526.56,-319.98"/>
<polygon fill="black" stroke="black" points="2529.49,-318.05 2521.53,-311.06 2523.39,-321.49 2529.49,-318.05"/>
</g>
<!-- FinNat_incl_finnat&#45;&gt;FinNat_FinNat -->
<g id="edge34" class="edge">
<title>FinNat_incl_finnat&#45;&gt;FinNat_FinNat</title>
<path fill="none" stroke="black" d="M2463.49,-282.98C2288.69,-249.94 1692.28,-137.18 1518.12,-104.25"/>
<polygon fill="black" stroke="black" points="1518.69,-100.8 1508.22,-102.38 1517.39,-107.68 1518.69,-100.8"/>
</g>
<!-- FinNat_path_last_finnat -->
<g id="node20" class="node">
<title>FinNat_path_last_finnat</title>
<g id="a_node20"><a xlink:href="FinNat.html#path_last_finnat" xlink:title="path_last_finnat">
<ellipse fill="#f070d1" stroke="black" cx="1372" cy="-515.16" rx="84.49" ry="18"/>
<ellipse fill="none" stroke="black" cx="1372" cy="-515.16" rx="88.49" ry="22"/>
<ellipse fill="none" stroke="black" cx="1372" cy="-515.16" rx="92.49" ry="26"/>
<text text-anchor="middle" x="1372" y="-511.46" font-family="Times,serif" font-size="14.00">path_last_finnat</text>
</a>
</g>
</g>
<!-- FinNat_path_last_finnat&#45;&gt;FinNat_last_finnat -->
<g id="edge35" class="edge">
<title>FinNat_path_last_finnat&#45;&gt;FinNat_last_finnat</title>
<path fill="none" stroke="black" d="M1373.61,-488.92C1376.26,-447.2 1381.54,-364.19 1384.27,-321.27"/>
<polygon fill="black" stroke="black" points="1387.77,-321.47 1384.91,-311.27 1380.78,-321.03 1387.77,-321.47"/>
</g>
<!-- FinNat_last_finnat&#45;&gt;FinNat_FinNat -->
<g id="edge36" class="edge">
<title>FinNat_last_finnat&#45;&gt;FinNat_FinNat</title>
<path fill="none" stroke="black" d="M1393.31,-275.02C1408.02,-240.51 1441.3,-162.47 1458.79,-121.46"/>
<polygon fill="black" stroke="black" points="1462.07,-122.69 1462.77,-112.11 1455.63,-119.94 1462.07,-122.69"/>
</g>
<!-- FinNat_path_succ_finnat&#45;&gt;FinNat_succ_finnat -->
<g id="edge37" class="edge">
<title>FinNat_path_succ_finnat&#45;&gt;FinNat_succ_finnat</title>
<path fill="none" stroke="black" d="M1567.72,-496.89C1562.71,-458.82 1550.65,-367.39 1544.6,-321.46"/>
<polygon fill="black" stroke="black" points="1548.04,-320.8 1543.27,-311.34 1541.1,-321.71 1548.04,-320.8"/>
</g>
<!-- FinNat_succ_finnat&#45;&gt;FinNat_FinNat -->
<g id="edge38" class="edge">
<title>FinNat_succ_finnat&#45;&gt;FinNat_FinNat</title>
<path fill="none" stroke="black" d="M1534.82,-275.02C1522.41,-240.59 1494.38,-162.8 1479.57,-121.72"/>
<polygon fill="black" stroke="black" points="1482.8,-120.34 1476.11,-112.11 1476.21,-122.71 1482.8,-120.34"/>
</g>
<!-- FinNat_path_zero_finnat&#45;&gt;FinNat_zero_finnat -->
<g id="edge39" class="edge">
<title>FinNat_path_zero_finnat&#45;&gt;FinNat_zero_finnat</title>
<path fill="none" stroke="black" d="M130.06,-497.98C195.64,-458.77 363.03,-358.7 436.05,-315.05"/>
<polygon fill="black" stroke="black" points="438.1,-317.9 444.89,-309.77 434.51,-311.89 438.1,-317.9"/>
</g>
<!-- FinNat_zero_finnat&#45;&gt;FinNat_FinNat -->
<g id="edge40" class="edge">
<title>FinNat_zero_finnat&#45;&gt;FinNat_FinNat</title>
<path fill="none" stroke="black" d="M520.54,-282.39C691.18,-248.74 1253.32,-137.89 1421.84,-104.65"/>
<polygon fill="black" stroke="black" points="1422.76,-108.04 1431.9,-102.67 1421.41,-101.17 1422.76,-108.04"/>
</g>
</g>
</svg>
