<?xml version="1.0" encoding="UTF-8" standalone="no"?>
<!DOCTYPE svg PUBLIC "-//W3C//DTD SVG 1.1//EN"
 "http://www.w3.org/Graphics/SVG/1.1/DTD/svg11.dtd">
<!-- Generated by graphviz version 2.43.0 (0)
 -->
<!-- Title: HoTT_Algebra_AbGroups_Biproduct Pages: 1 -->
<svg width="4153pt" height="2081pt"
 viewBox="0.00 0.00 4153.00 2080.50" xmlns="http://www.w3.org/2000/svg" xmlns:xlink="http://www.w3.org/1999/xlink">
<g id="graph0" class="graph" transform="scale(1 1) rotate(0) translate(4 2076.5)">
<title>HoTT_Algebra_AbGroups_Biproduct</title>
<polygon fill="white" stroke="transparent" points="-4,4 -4,-2076.5 4149,-2076.5 4149,4 -4,4"/>
<g id="clust1" class="cluster">
<title>cluster_Biproduct</title>
<polygon fill="#ffffc3" stroke="black" points="8,-40.34 8,-2032.16 4137,-2032.16 4137,-40.34 8,-40.34"/>
<text text-anchor="middle" x="51.5" y="-2016.96" font-family="Times,serif" font-size="14.00">Biproduct</text>
</g>
<!-- Biproduct_ab_cotriagonal_twist -->
<g id="node1" class="node">
<title>Biproduct_ab_cotriagonal_twist</title>
<g id="a_node1"><a xlink:href="Biproduct.html#ab_cotriagonal_twist" xlink:title="ab_cotriagonal_twist">
<ellipse fill="#f070d1" stroke="black" cx="3285" cy="-1744.34" rx="106.67" ry="18"/>
<ellipse fill="none" stroke="black" cx="3285" cy="-1744.34" rx="110.68" ry="22"/>
<ellipse fill="none" stroke="black" cx="3285" cy="-1744.34" rx="114.68" ry="26"/>
<text text-anchor="middle" x="3285" y="-1740.64" font-family="Times,serif" font-size="14.00">ab_cotriagonal_twist</text>
</a>
</g>
</g>
<!-- Biproduct_ab_cotriagonal -->
<g id="node3" class="node">
<title>Biproduct_ab_cotriagonal</title>
<g id="a_node3"><a xlink:href="Biproduct.html#ab_cotriagonal" xlink:title="ab_cotriagonal">
<ellipse fill="#f070d1" stroke="black" cx="951" cy="-1301.34" rx="78.79" ry="18"/>
<text text-anchor="middle" x="951" y="-1297.64" font-family="Times,serif" font-size="14.00">ab_cotriagonal</text>
</a>
</g>
</g>
<!-- Biproduct_ab_cotriagonal_twist&#45;&gt;Biproduct_ab_cotriagonal -->
<g id="edge1" class="edge">
<title>Biproduct_ab_cotriagonal_twist&#45;&gt;Biproduct_ab_cotriagonal</title>
<path fill="none" stroke="black" d="M3191.55,-1729.25C2882.58,-1681.98 1866.51,-1521.07 1039,-1327.34 1028.34,-1324.85 1017.05,-1321.88 1006.23,-1318.88"/>
<polygon fill="black" stroke="black" points="1007.04,-1315.48 996.46,-1316.13 1005.14,-1322.21 1007.04,-1315.48"/>
</g>
<!-- Biproduct_ab_biprod_twist -->
<g id="node5" class="node">
<title>Biproduct_ab_biprod_twist</title>
<g id="a_node5"><a xlink:href="Biproduct.html#ab_biprod_twist" xlink:title="ab_biprod_twist">
<ellipse fill="#f070d1" stroke="black" cx="4045" cy="-1301.34" rx="84.49" ry="18"/>
<text text-anchor="middle" x="4045" y="-1297.64" font-family="Times,serif" font-size="14.00">ab_biprod_twist</text>
</a>
</g>
</g>
<!-- Biproduct_ab_cotriagonal_twist&#45;&gt;Biproduct_ab_biprod_twist -->
<g id="edge2" class="edge">
<title>Biproduct_ab_cotriagonal_twist&#45;&gt;Biproduct_ab_biprod_twist</title>
<path fill="none" stroke="black" d="M3325.32,-1719.94C3458.1,-1642.9 3880.41,-1397.85 4008.09,-1323.76"/>
<polygon fill="black" stroke="black" points="4010.22,-1326.57 4017.11,-1318.52 4006.7,-1320.52 4010.22,-1326.57"/>
</g>
<!-- Biproduct_ab_triagonal_twist -->
<g id="node2" class="node">
<title>Biproduct_ab_triagonal_twist</title>
<g id="a_node2"><a xlink:href="Biproduct.html#ab_triagonal_twist" xlink:title="ab_triagonal_twist">
<ellipse fill="#f070d1" stroke="black" cx="3691" cy="-1744.34" rx="96.37" ry="18"/>
<ellipse fill="none" stroke="black" cx="3691" cy="-1744.34" rx="100.38" ry="22"/>
<ellipse fill="none" stroke="black" cx="3691" cy="-1744.34" rx="104.38" ry="26"/>
<text text-anchor="middle" x="3691" y="-1740.64" font-family="Times,serif" font-size="14.00">ab_triagonal_twist</text>
</a>
</g>
</g>
<!-- Biproduct_ab_triagonal -->
<g id="node4" class="node">
<title>Biproduct_ab_triagonal</title>
<g id="a_node4"><a xlink:href="Biproduct.html#ab_triagonal" xlink:title="ab_triagonal">
<ellipse fill="#f070d1" stroke="black" cx="3358" cy="-1301.34" rx="68.49" ry="18"/>
<text text-anchor="middle" x="3358" y="-1297.64" font-family="Times,serif" font-size="14.00">ab_triagonal</text>
</a>
</g>
</g>
<!-- Biproduct_ab_triagonal_twist&#45;&gt;Biproduct_ab_triagonal -->
<g id="edge3" class="edge">
<title>Biproduct_ab_triagonal_twist&#45;&gt;Biproduct_ab_triagonal</title>
<path fill="none" stroke="black" d="M3672.38,-1718.69C3614.09,-1641.49 3435.48,-1404.95 3376.86,-1327.31"/>
<polygon fill="black" stroke="black" points="3379.45,-1324.94 3370.63,-1319.06 3373.86,-1329.15 3379.45,-1324.94"/>
</g>
<!-- Biproduct_ab_triagonal_twist&#45;&gt;Biproduct_ab_biprod_twist -->
<g id="edge4" class="edge">
<title>Biproduct_ab_triagonal_twist&#45;&gt;Biproduct_ab_biprod_twist</title>
<path fill="none" stroke="black" d="M3710.79,-1718.69C3772.75,-1641.5 3962.54,-1405.06 4024.91,-1327.37"/>
<polygon fill="black" stroke="black" points="4027.68,-1329.51 4031.21,-1319.52 4022.22,-1325.13 4027.68,-1329.51"/>
</g>
<!-- Biproduct_ab_codiagonal -->
<g id="node14" class="node">
<title>Biproduct_ab_codiagonal</title>
<g id="a_node14"><a xlink:href="Biproduct.html#ab_codiagonal" xlink:title="ab_codiagonal">
<ellipse fill="#f070d1" stroke="black" cx="1492" cy="-897.34" rx="76.09" ry="18"/>
<text text-anchor="middle" x="1492" y="-893.64" font-family="Times,serif" font-size="14.00">ab_codiagonal</text>
</a>
</g>
</g>
<!-- Biproduct_ab_cotriagonal&#45;&gt;Biproduct_ab_codiagonal -->
<g id="edge5" class="edge">
<title>Biproduct_ab_cotriagonal&#45;&gt;Biproduct_ab_codiagonal</title>
<path fill="none" stroke="black" d="M973.22,-1283.83C1058.33,-1220.59 1363.78,-993.62 1461.62,-920.92"/>
<polygon fill="black" stroke="black" points="1463.96,-923.54 1469.9,-914.76 1459.78,-917.92 1463.96,-923.54"/>
</g>
<!-- Biproduct_functor_ab_biprod -->
<g id="node23" class="node">
<title>Biproduct_functor_ab_biprod</title>
<g id="a_node23"><a xlink:href="Biproduct.html#functor_ab_biprod" xlink:title="functor_ab_biprod">
<ellipse fill="#f070d1" stroke="black" cx="2240" cy="-897.34" rx="94.78" ry="18"/>
<text text-anchor="middle" x="2240" y="-893.64" font-family="Times,serif" font-size="14.00">functor_ab_biprod</text>
</a>
</g>
</g>
<!-- Biproduct_ab_cotriagonal&#45;&gt;Biproduct_functor_ab_biprod -->
<g id="edge6" class="edge">
<title>Biproduct_ab_cotriagonal&#45;&gt;Biproduct_functor_ab_biprod</title>
<path fill="none" stroke="black" d="M995.74,-1286.39C1190.73,-1225.58 1966.1,-983.76 2183.23,-916.05"/>
<polygon fill="black" stroke="black" points="2184.33,-919.37 2192.84,-913.05 2182.25,-912.69 2184.33,-919.37"/>
</g>
<!-- Biproduct_ab_diagonal -->
<g id="node12" class="node">
<title>Biproduct_ab_diagonal</title>
<g id="a_node12"><a xlink:href="Biproduct.html#ab_diagonal" xlink:title="ab_diagonal">
<ellipse fill="#f070d1" stroke="black" cx="3248" cy="-897.34" rx="65.79" ry="18"/>
<text text-anchor="middle" x="3248" y="-893.64" font-family="Times,serif" font-size="14.00">ab_diagonal</text>
</a>
</g>
</g>
<!-- Biproduct_ab_triagonal&#45;&gt;Biproduct_ab_diagonal -->
<g id="edge7" class="edge">
<title>Biproduct_ab_triagonal&#45;&gt;Biproduct_ab_diagonal</title>
<path fill="none" stroke="black" d="M3353.34,-1283.32C3336.2,-1220.67 3276.49,-1002.46 3255.43,-925.48"/>
<polygon fill="black" stroke="black" points="3258.73,-924.31 3252.72,-915.59 3251.98,-926.16 3258.73,-924.31"/>
</g>
<!-- Biproduct_ab_triagonal&#45;&gt;Biproduct_functor_ab_biprod -->
<g id="edge8" class="edge">
<title>Biproduct_ab_triagonal&#45;&gt;Biproduct_functor_ab_biprod</title>
<path fill="none" stroke="black" d="M3319.19,-1286.39C3150.79,-1225.83 2483.24,-985.8 2291.65,-916.91"/>
<polygon fill="black" stroke="black" points="2292.69,-913.57 2282.1,-913.48 2290.32,-920.15 2292.69,-913.57"/>
</g>
<!-- Biproduct_ab_biprod -->
<g id="node38" class="node">
<title>Biproduct_ab_biprod</title>
<g id="a_node38"><a xlink:href="Biproduct.html#ab_biprod" xlink:title="ab_biprod">
<ellipse fill="#f070d1" stroke="black" cx="2240" cy="-171.34" rx="56.59" ry="18"/>
<text text-anchor="middle" x="2240" y="-167.64" font-family="Times,serif" font-size="14.00">ab_biprod</text>
</a>
</g>
</g>
<!-- Biproduct_ab_biprod_twist&#45;&gt;Biproduct_ab_biprod -->
<g id="edge9" class="edge">
<title>Biproduct_ab_biprod_twist&#45;&gt;Biproduct_ab_biprod</title>
<path fill="none" stroke="black" d="M4026.41,-1283.41C3960.53,-1223.86 3730.86,-1020.02 3521,-879.34 3055.48,-567.27 2440.88,-267.97 2279.94,-191.23"/>
<polygon fill="black" stroke="black" points="2280.97,-187.84 2270.44,-186.7 2277.96,-194.16 2280.97,-187.84"/>
</g>
<!-- Biproduct_ab_commute_id_codiagonal -->
<g id="node6" class="node">
<title>Biproduct_ab_commute_id_codiagonal</title>
<g id="a_node6"><a xlink:href="Biproduct.html#ab_commute_id_codiagonal" xlink:title="ab_commute_id_codiagonal">
<ellipse fill="#f070d1" stroke="black" cx="1455" cy="-1301.34" rx="136.48" ry="18"/>
<ellipse fill="none" stroke="black" cx="1455" cy="-1301.34" rx="140.48" ry="22"/>
<ellipse fill="none" stroke="black" cx="1455" cy="-1301.34" rx="144.48" ry="26"/>
<text text-anchor="middle" x="1455" y="-1297.64" font-family="Times,serif" font-size="14.00">ab_commute_id_codiagonal</text>
</a>
</g>
</g>
<!-- Biproduct_ab_biprod_assoc -->
<g id="node8" class="node">
<title>Biproduct_ab_biprod_assoc</title>
<g id="a_node8"><a xlink:href="Biproduct.html#ab_biprod_assoc" xlink:title="ab_biprod_assoc">
<ellipse fill="#f070d1" stroke="black" cx="2526" cy="-897.34" rx="86.38" ry="18"/>
<text text-anchor="middle" x="2526" y="-893.64" font-family="Times,serif" font-size="14.00">ab_biprod_assoc</text>
</a>
</g>
</g>
<!-- Biproduct_ab_commute_id_codiagonal&#45;&gt;Biproduct_ab_biprod_assoc -->
<g id="edge10" class="edge">
<title>Biproduct_ab_commute_id_codiagonal&#45;&gt;Biproduct_ab_biprod_assoc</title>
<path fill="none" stroke="black" d="M1515.65,-1277.58C1707.83,-1205.44 2300.91,-982.83 2476.52,-916.91"/>
<polygon fill="black" stroke="black" points="2477.9,-920.14 2486.03,-913.34 2475.44,-913.58 2477.9,-920.14"/>
</g>
<!-- Biproduct_ab_commute_id_codiagonal&#45;&gt;Biproduct_ab_codiagonal -->
<g id="edge11" class="edge">
<title>Biproduct_ab_commute_id_codiagonal&#45;&gt;Biproduct_ab_codiagonal</title>
<path fill="none" stroke="black" d="M1457.31,-1275.19C1463.89,-1203.75 1482.65,-999.93 1489.48,-925.76"/>
<polygon fill="black" stroke="black" points="1493,-925.67 1490.43,-915.4 1486.03,-925.03 1493,-925.67"/>
</g>
<!-- Biproduct_ab_commute_id_codiagonal&#45;&gt;Biproduct_functor_ab_biprod -->
<g id="edge12" class="edge">
<title>Biproduct_ab_commute_id_codiagonal&#45;&gt;Biproduct_functor_ab_biprod</title>
<path fill="none" stroke="black" d="M1501.17,-1276.69C1642.23,-1204.46 2065.98,-987.46 2199.35,-919.16"/>
<polygon fill="black" stroke="black" points="2201.14,-922.18 2208.44,-914.5 2197.95,-915.94 2201.14,-922.18"/>
</g>
<!-- Biproduct_ab_commute_id_diagonal -->
<g id="node7" class="node">
<title>Biproduct_ab_commute_id_diagonal</title>
<g id="a_node7"><a xlink:href="Biproduct.html#ab_commute_id_diagonal" xlink:title="ab_commute_id_diagonal">
<ellipse fill="#f070d1" stroke="black" cx="3138" cy="-1301.34" rx="126.17" ry="18"/>
<ellipse fill="none" stroke="black" cx="3138" cy="-1301.34" rx="130.18" ry="22"/>
<ellipse fill="none" stroke="black" cx="3138" cy="-1301.34" rx="134.18" ry="26"/>
<text text-anchor="middle" x="3138" y="-1297.64" font-family="Times,serif" font-size="14.00">ab_commute_id_diagonal</text>
</a>
</g>
</g>
<!-- Biproduct_ab_commute_id_diagonal&#45;&gt;Biproduct_ab_biprod_assoc -->
<g id="edge13" class="edge">
<title>Biproduct_ab_commute_id_diagonal&#45;&gt;Biproduct_ab_biprod_assoc</title>
<path fill="none" stroke="black" d="M3101.09,-1276.1C2990.86,-1203.69 2665.12,-989.72 2559.48,-920.34"/>
<polygon fill="black" stroke="black" points="2561.1,-917.21 2550.82,-914.64 2557.26,-923.06 2561.1,-917.21"/>
</g>
<!-- Biproduct_ab_commute_id_diagonal&#45;&gt;Biproduct_ab_diagonal -->
<g id="edge14" class="edge">
<title>Biproduct_ab_commute_id_diagonal&#45;&gt;Biproduct_ab_diagonal</title>
<path fill="none" stroke="black" d="M3144.88,-1275.19C3164.47,-1203.6 3220.43,-999.09 3240.62,-925.3"/>
<polygon fill="black" stroke="black" points="3244.07,-925.96 3243.33,-915.4 3237.32,-924.12 3244.07,-925.96"/>
</g>
<!-- Biproduct_ab_commute_id_diagonal&#45;&gt;Biproduct_functor_ab_biprod -->
<g id="edge15" class="edge">
<title>Biproduct_ab_commute_id_diagonal&#45;&gt;Biproduct_functor_ab_biprod</title>
<path fill="none" stroke="black" d="M3086.49,-1277.28C2925.85,-1205.37 2435.74,-985.97 2284.76,-918.38"/>
<polygon fill="black" stroke="black" points="2285.87,-915.04 2275.31,-914.15 2283.01,-921.43 2285.87,-915.04"/>
</g>
<!-- Biproduct_ab_biprod_assoc&#45;&gt;Biproduct_ab_biprod -->
<g id="edge16" class="edge">
<title>Biproduct_ab_biprod_assoc&#45;&gt;Biproduct_ab_biprod</title>
<path fill="none" stroke="black" d="M2529.27,-879.34C2539.05,-824.57 2564.48,-648.64 2516,-516.34 2463.67,-373.52 2326.35,-245.21 2267.46,-194.89"/>
<polygon fill="black" stroke="black" points="2269.59,-192.1 2259.69,-188.31 2265.07,-197.45 2269.59,-192.1"/>
</g>
<!-- Biproduct_ab_diagonal_swap -->
<g id="node9" class="node">
<title>Biproduct_ab_diagonal_swap</title>
<g id="a_node9"><a xlink:href="Biproduct.html#ab_diagonal_swap" xlink:title="ab_diagonal_swap">
<ellipse fill="#f070d1" stroke="black" cx="3840" cy="-1301.34" rx="94.46" ry="18"/>
<ellipse fill="none" stroke="black" cx="3840" cy="-1301.34" rx="98.47" ry="22"/>
<ellipse fill="none" stroke="black" cx="3840" cy="-1301.34" rx="102.48" ry="26"/>
<text text-anchor="middle" x="3840" y="-1297.64" font-family="Times,serif" font-size="14.00">ab_diagonal_swap</text>
</a>
</g>
</g>
<!-- Biproduct_ab_diagonal_swap&#45;&gt;Biproduct_ab_diagonal -->
<g id="edge17" class="edge">
<title>Biproduct_ab_diagonal_swap&#45;&gt;Biproduct_ab_diagonal</title>
<path fill="none" stroke="black" d="M3805.18,-1276.69C3699.21,-1204.74 3381.7,-989.13 3279.83,-919.96"/>
<polygon fill="black" stroke="black" points="3281.73,-917.01 3271.49,-914.29 3277.79,-922.8 3281.73,-917.01"/>
</g>
<!-- Biproduct_direct_sum_swap -->
<g id="node15" class="node">
<title>Biproduct_direct_sum_swap</title>
<g id="a_node15"><a xlink:href="Biproduct.html#direct_sum_swap" xlink:title="direct_sum_swap">
<ellipse fill="#f070d1" stroke="black" cx="3422" cy="-897.34" rx="90.18" ry="18"/>
<text text-anchor="middle" x="3422" y="-893.64" font-family="Times,serif" font-size="14.00">direct_sum_swap</text>
</a>
</g>
</g>
<!-- Biproduct_ab_diagonal_swap&#45;&gt;Biproduct_direct_sum_swap -->
<g id="edge18" class="edge">
<title>Biproduct_ab_diagonal_swap&#45;&gt;Biproduct_direct_sum_swap</title>
<path fill="none" stroke="black" d="M3814.79,-1276.1C3740.2,-1204.36 3521.14,-993.69 3446.92,-922.31"/>
<polygon fill="black" stroke="black" points="3449.03,-919.48 3439.4,-915.07 3444.18,-924.53 3449.03,-919.48"/>
</g>
<!-- Biproduct_ab_codiagonal_swap -->
<g id="node10" class="node">
<title>Biproduct_ab_codiagonal_swap</title>
<g id="a_node10"><a xlink:href="Biproduct.html#ab_codiagonal_swap" xlink:title="ab_codiagonal_swap">
<ellipse fill="#f070d1" stroke="black" cx="1982" cy="-1301.34" rx="104.77" ry="18"/>
<ellipse fill="none" stroke="black" cx="1982" cy="-1301.34" rx="108.78" ry="22"/>
<ellipse fill="none" stroke="black" cx="1982" cy="-1301.34" rx="112.78" ry="26"/>
<text text-anchor="middle" x="1982" y="-1297.64" font-family="Times,serif" font-size="14.00">ab_codiagonal_swap</text>
</a>
</g>
</g>
<!-- Biproduct_ab_codiagonal_swap&#45;&gt;Biproduct_ab_codiagonal -->
<g id="edge19" class="edge">
<title>Biproduct_ab_codiagonal_swap&#45;&gt;Biproduct_ab_codiagonal</title>
<path fill="none" stroke="black" d="M1952.45,-1276.1C1864.56,-1203.99 1605.55,-991.5 1519.87,-921.21"/>
<polygon fill="black" stroke="black" points="1522.08,-918.49 1512.13,-914.86 1517.64,-923.91 1522.08,-918.49"/>
</g>
<!-- Biproduct_ab_codiagonal_swap&#45;&gt;Biproduct_direct_sum_swap -->
<g id="edge20" class="edge">
<title>Biproduct_ab_codiagonal_swap&#45;&gt;Biproduct_direct_sum_swap</title>
<path fill="none" stroke="black" d="M2051.94,-1280.82C2299.33,-1211.75 3130.51,-979.71 3361.82,-915.14"/>
<polygon fill="black" stroke="black" points="3363.04,-918.43 3371.73,-912.37 3361.16,-911.69 3363.04,-918.43"/>
</g>
<!-- Biproduct_ab_biprod_corec_diagonal -->
<g id="node11" class="node">
<title>Biproduct_ab_biprod_corec_diagonal</title>
<g id="a_node11"><a xlink:href="Biproduct.html#ab_biprod_corec_diagonal" xlink:title="ab_biprod_corec_diagonal">
<ellipse fill="#f070d1" stroke="black" cx="3582" cy="-1301.34" rx="129.98" ry="18"/>
<ellipse fill="none" stroke="black" cx="3582" cy="-1301.34" rx="133.98" ry="22"/>
<ellipse fill="none" stroke="black" cx="3582" cy="-1301.34" rx="137.98" ry="26"/>
<text text-anchor="middle" x="3582" y="-1297.64" font-family="Times,serif" font-size="14.00">ab_biprod_corec_diagonal</text>
</a>
</g>
</g>
<!-- Biproduct_ab_biprod_corec_diagonal&#45;&gt;Biproduct_ab_diagonal -->
<g id="edge21" class="edge">
<title>Biproduct_ab_biprod_corec_diagonal&#45;&gt;Biproduct_ab_diagonal</title>
<path fill="none" stroke="black" d="M3561.36,-1275.5C3501.5,-1203.45 3328.3,-994.98 3268.55,-923.07"/>
<polygon fill="black" stroke="black" points="3270.92,-920.46 3261.84,-915 3265.54,-924.93 3270.92,-920.46"/>
</g>
<!-- Biproduct_ab_biprod_corec_diagonal&#45;&gt;Biproduct_functor_ab_biprod -->
<g id="edge22" class="edge">
<title>Biproduct_ab_biprod_corec_diagonal&#45;&gt;Biproduct_functor_ab_biprod</title>
<path fill="none" stroke="black" d="M3510.8,-1279.01C3273.84,-1208.03 2514.69,-980.62 2298.16,-915.76"/>
<polygon fill="black" stroke="black" points="2299.15,-912.4 2288.56,-912.89 2297.14,-919.11 2299.15,-912.4"/>
</g>
<!-- Biproduct_ab_biprod_corec -->
<g id="node24" class="node">
<title>Biproduct_ab_biprod_corec</title>
<g id="a_node24"><a xlink:href="Biproduct.html#ab_biprod_corec" xlink:title="ab_biprod_corec">
<ellipse fill="#f070d1" stroke="black" cx="2421" cy="-534.34" rx="85.59" ry="18"/>
<text text-anchor="middle" x="2421" y="-530.64" font-family="Times,serif" font-size="14.00">ab_biprod_corec</text>
</a>
</g>
</g>
<!-- Biproduct_ab_diagonal&#45;&gt;Biproduct_ab_biprod_corec -->
<g id="edge23" class="edge">
<title>Biproduct_ab_diagonal&#45;&gt;Biproduct_ab_biprod_corec</title>
<path fill="none" stroke="black" d="M3214.56,-881.74C3084.75,-825.08 2614.16,-619.66 2465.99,-554.98"/>
<polygon fill="black" stroke="black" points="2467.27,-551.72 2456.71,-550.93 2464.47,-558.13 2467.27,-551.72"/>
</g>
<!-- Biproduct_ab_codiagonal_natural -->
<g id="node13" class="node">
<title>Biproduct_ab_codiagonal_natural</title>
<g id="a_node13"><a xlink:href="Biproduct.html#ab_codiagonal_natural" xlink:title="ab_codiagonal_natural">
<ellipse fill="#f070d1" stroke="black" cx="1170" cy="-1301.34" rx="114.29" ry="18"/>
<ellipse fill="none" stroke="black" cx="1170" cy="-1301.34" rx="118.28" ry="22"/>
<ellipse fill="none" stroke="black" cx="1170" cy="-1301.34" rx="122.28" ry="26"/>
<text text-anchor="middle" x="1170" y="-1297.64" font-family="Times,serif" font-size="14.00">ab_codiagonal_natural</text>
</a>
</g>
</g>
<!-- Biproduct_ab_codiagonal_natural&#45;&gt;Biproduct_ab_codiagonal -->
<g id="edge24" class="edge">
<title>Biproduct_ab_codiagonal_natural&#45;&gt;Biproduct_ab_codiagonal</title>
<path fill="none" stroke="black" d="M1189.9,-1275.5C1247.48,-1203.61 1413.83,-995.94 1471.79,-923.57"/>
<polygon fill="black" stroke="black" points="1474.79,-925.43 1478.31,-915.43 1469.33,-921.05 1474.79,-925.43"/>
</g>
<!-- Biproduct_ab_codiagonal_natural&#45;&gt;Biproduct_functor_ab_biprod -->
<g id="edge25" class="edge">
<title>Biproduct_ab_codiagonal_natural&#45;&gt;Biproduct_functor_ab_biprod</title>
<path fill="none" stroke="black" d="M1228.29,-1278.44C1417.47,-1207.37 2012.34,-983.87 2189.64,-917.26"/>
<polygon fill="black" stroke="black" points="2191.12,-920.44 2199.25,-913.65 2188.66,-913.89 2191.12,-920.44"/>
</g>
<!-- Biproduct_ab_biprod_rec -->
<g id="node30" class="node">
<title>Biproduct_ab_biprod_rec</title>
<g id="a_node30"><a xlink:href="Biproduct.html#ab_biprod_rec" xlink:title="ab_biprod_rec">
<ellipse fill="#f070d1" stroke="black" cx="1142" cy="-534.34" rx="75.29" ry="18"/>
<text text-anchor="middle" x="1142" y="-530.64" font-family="Times,serif" font-size="14.00">ab_biprod_rec</text>
</a>
</g>
</g>
<!-- Biproduct_ab_codiagonal&#45;&gt;Biproduct_ab_biprod_rec -->
<g id="edge26" class="edge">
<title>Biproduct_ab_codiagonal&#45;&gt;Biproduct_ab_biprod_rec</title>
<path fill="none" stroke="black" d="M1475.59,-879.41C1418.98,-821.03 1231.74,-627.9 1165.48,-559.56"/>
<polygon fill="black" stroke="black" points="1167.85,-556.97 1158.38,-552.23 1162.82,-561.85 1167.85,-556.97"/>
</g>
<!-- Biproduct_direct_sum_swap&#45;&gt;Biproduct_ab_biprod -->
<g id="edge27" class="edge">
<title>Biproduct_direct_sum_swap&#45;&gt;Biproduct_ab_biprod</title>
<path fill="none" stroke="black" d="M3395.37,-880.03C3239.58,-784.61 2447.04,-299.16 2273.58,-192.91"/>
<polygon fill="black" stroke="black" points="2275.22,-189.81 2264.87,-187.57 2271.57,-195.78 2275.22,-189.81"/>
</g>
<!-- Biproduct_functor_ab_biprod_surjection -->
<g id="node16" class="node">
<title>Biproduct_functor_ab_biprod_surjection</title>
<g id="a_node16"><a xlink:href="Biproduct.html#functor_ab_biprod_surjection" xlink:title="functor_ab_biprod_surjection">
<ellipse fill="#f070d1" stroke="black" cx="440" cy="-1301.34" rx="145.67" ry="18"/>
<ellipse fill="none" stroke="black" cx="440" cy="-1301.34" rx="149.67" ry="22"/>
<ellipse fill="none" stroke="black" cx="440" cy="-1301.34" rx="153.67" ry="26"/>
<text text-anchor="middle" x="440" y="-1297.64" font-family="Times,serif" font-size="14.00">functor_ab_biprod_surjection</text>
</a>
</g>
</g>
<!-- Biproduct_functor_ab_biprod_surjection&#45;&gt;Biproduct_functor_ab_biprod -->
<g id="edge28" class="edge">
<title>Biproduct_functor_ab_biprod_surjection&#45;&gt;Biproduct_functor_ab_biprod</title>
<path fill="none" stroke="black" d="M530.19,-1280.2C845.11,-1209.87 1891.83,-976.1 2171.05,-913.74"/>
<polygon fill="black" stroke="black" points="2172.05,-917.1 2181.04,-911.51 2170.52,-910.27 2172.05,-917.1"/>
</g>
<!-- Biproduct_ab_biprod_inr -->
<g id="node36" class="node">
<title>Biproduct_ab_biprod_inr</title>
<g id="a_node36"><a xlink:href="Biproduct.html#ab_biprod_inr" xlink:title="ab_biprod_inr">
<ellipse fill="#f070d1" stroke="black" cx="627" cy="-534.34" rx="74.19" ry="18"/>
<text text-anchor="middle" x="627" y="-530.64" font-family="Times,serif" font-size="14.00">ab_biprod_inr</text>
</a>
</g>
</g>
<!-- Biproduct_functor_ab_biprod_surjection&#45;&gt;Biproduct_ab_biprod_inr -->
<g id="edge29" class="edge">
<title>Biproduct_functor_ab_biprod_surjection&#45;&gt;Biproduct_ab_biprod_inr</title>
<path fill="none" stroke="black" d="M433.98,-1275.07C419.27,-1208.74 385.47,-1024.72 425,-879.34 460.96,-747.07 562.05,-613.72 606.07,-560.01"/>
<polygon fill="black" stroke="black" points="608.95,-562.02 612.63,-552.08 603.56,-557.56 608.95,-562.02"/>
</g>
<!-- Biproduct_ab_biprod_inl -->
<g id="node37" class="node">
<title>Biproduct_ab_biprod_inl</title>
<g id="a_node37"><a xlink:href="Biproduct.html#ab_biprod_inl" xlink:title="ab_biprod_inl">
<ellipse fill="#f070d1" stroke="black" cx="462" cy="-534.34" rx="72.59" ry="18"/>
<text text-anchor="middle" x="462" y="-530.64" font-family="Times,serif" font-size="14.00">ab_biprod_inl</text>
</a>
</g>
</g>
<!-- Biproduct_functor_ab_biprod_surjection&#45;&gt;Biproduct_ab_biprod_inl -->
<g id="edge30" class="edge">
<title>Biproduct_functor_ab_biprod_surjection&#45;&gt;Biproduct_ab_biprod_inl</title>
<path fill="none" stroke="black" d="M435.64,-1275.19C424.88,-1209.87 398.71,-1029.5 410,-879.34 418.93,-760.51 444.98,-620.53 456.46,-562.57"/>
<polygon fill="black" stroke="black" points="459.96,-562.91 458.49,-552.42 453.1,-561.54 459.96,-562.91"/>
</g>
<!-- Biproduct_functor_ab_biprod_embedding -->
<g id="node17" class="node">
<title>Biproduct_functor_ab_biprod_embedding</title>
<g id="a_node17"><a xlink:href="Biproduct.html#functor_ab_biprod_embedding" xlink:title="functor_ab_biprod_embedding">
<ellipse fill="#f070d1" stroke="black" cx="2827" cy="-1301.34" rx="150.58" ry="18"/>
<ellipse fill="none" stroke="black" cx="2827" cy="-1301.34" rx="154.58" ry="22"/>
<ellipse fill="none" stroke="black" cx="2827" cy="-1301.34" rx="158.57" ry="26"/>
<text text-anchor="middle" x="2827" y="-1297.64" font-family="Times,serif" font-size="14.00">functor_ab_biprod_embedding</text>
</a>
</g>
</g>
<!-- Biproduct_functor_ab_biprod_embedding&#45;&gt;Biproduct_functor_ab_biprod -->
<g id="edge31" class="edge">
<title>Biproduct_functor_ab_biprod_embedding&#45;&gt;Biproduct_functor_ab_biprod</title>
<path fill="none" stroke="black" d="M2791.16,-1275.8C2685.1,-1203.17 2373.86,-990.02 2272.39,-920.52"/>
<polygon fill="black" stroke="black" points="2274.29,-917.58 2264.07,-914.82 2270.34,-923.36 2274.29,-917.58"/>
</g>
<!-- Biproduct_equiv_functor_ab_biprod -->
<g id="node18" class="node">
<title>Biproduct_equiv_functor_ab_biprod</title>
<g id="a_node18"><a xlink:href="Biproduct.html#equiv_functor_ab_biprod" xlink:title="equiv_functor_ab_biprod">
<ellipse fill="#f070d1" stroke="black" cx="2518" cy="-1744.34" rx="124.27" ry="18"/>
<ellipse fill="none" stroke="black" cx="2518" cy="-1744.34" rx="128.27" ry="22"/>
<ellipse fill="none" stroke="black" cx="2518" cy="-1744.34" rx="132.28" ry="26"/>
<text text-anchor="middle" x="2518" y="-1740.64" font-family="Times,serif" font-size="14.00">equiv_functor_ab_biprod</text>
</a>
</g>
</g>
<!-- Biproduct_isequiv_functor_ab_biprod -->
<g id="node19" class="node">
<title>Biproduct_isequiv_functor_ab_biprod</title>
<g id="a_node19"><a xlink:href="Biproduct.html#isequiv_functor_ab_biprod" xlink:title="isequiv_functor_ab_biprod">
<ellipse fill="#f070d1" stroke="black" cx="2518" cy="-1301.34" rx="131.88" ry="18"/>
<text text-anchor="middle" x="2518" y="-1297.64" font-family="Times,serif" font-size="14.00">isequiv_functor_ab_biprod</text>
</a>
</g>
</g>
<!-- Biproduct_equiv_functor_ab_biprod&#45;&gt;Biproduct_isequiv_functor_ab_biprod -->
<g id="edge32" class="edge">
<title>Biproduct_equiv_functor_ab_biprod&#45;&gt;Biproduct_isequiv_functor_ab_biprod</title>
<path fill="none" stroke="black" d="M2518,-1718.05C2518,-1640.96 2518,-1409.38 2518,-1329.66"/>
<polygon fill="black" stroke="black" points="2521.5,-1329.45 2518,-1319.45 2514.5,-1329.45 2521.5,-1329.45"/>
</g>
<!-- Biproduct_isequiv_functor_ab_biprod&#45;&gt;Biproduct_functor_ab_biprod -->
<g id="edge33" class="edge">
<title>Biproduct_isequiv_functor_ab_biprod&#45;&gt;Biproduct_functor_ab_biprod</title>
<path fill="none" stroke="black" d="M2506.23,-1283.32C2462.64,-1220.28 2310.15,-999.77 2257.8,-924.08"/>
<polygon fill="black" stroke="black" points="2260.49,-921.82 2251.93,-915.59 2254.74,-925.8 2260.49,-921.82"/>
</g>
<!-- Biproduct_is1bifunctor_ab_biprod -->
<g id="node20" class="node">
<title>Biproduct_is1bifunctor_ab_biprod</title>
<g id="a_node20"><a xlink:href="Biproduct.html#is1bifunctor_ab_biprod" xlink:title="is1bifunctor_ab_biprod">
<ellipse fill="#f070d1" stroke="black" cx="1734" cy="-1744.34" rx="116.98" ry="18"/>
<ellipse fill="none" stroke="black" cx="1734" cy="-1744.34" rx="120.98" ry="22"/>
<ellipse fill="none" stroke="black" cx="1734" cy="-1744.34" rx="124.98" ry="26"/>
<text text-anchor="middle" x="1734" y="-1740.64" font-family="Times,serif" font-size="14.00">is1bifunctor_ab_biprod</text>
</a>
</g>
</g>
<!-- Biproduct_is0bifunctor_ab_biprod -->
<g id="node21" class="node">
<title>Biproduct_is0bifunctor_ab_biprod</title>
<g id="a_node21"><a xlink:href="Biproduct.html#is0bifunctor_ab_biprod" xlink:title="is0bifunctor_ab_biprod">
<ellipse fill="#f070d1" stroke="black" cx="1734" cy="-1301.34" rx="116.98" ry="18"/>
<text text-anchor="middle" x="1734" y="-1297.64" font-family="Times,serif" font-size="14.00">is0bifunctor_ab_biprod</text>
</a>
</g>
</g>
<!-- Biproduct_is1bifunctor_ab_biprod&#45;&gt;Biproduct_is0bifunctor_ab_biprod -->
<g id="edge34" class="edge">
<title>Biproduct_is1bifunctor_ab_biprod&#45;&gt;Biproduct_is0bifunctor_ab_biprod</title>
<path fill="none" stroke="black" d="M1734,-1718.05C1734,-1640.96 1734,-1409.38 1734,-1329.66"/>
<polygon fill="black" stroke="black" points="1737.5,-1329.45 1734,-1319.45 1730.5,-1329.45 1737.5,-1329.45"/>
</g>
<!-- Biproduct_is0bifunctor_ab_biprod&#45;&gt;Biproduct_functor_ab_biprod -->
<g id="edge35" class="edge">
<title>Biproduct_is0bifunctor_ab_biprod&#45;&gt;Biproduct_functor_ab_biprod</title>
<path fill="none" stroke="black" d="M1755.1,-1283.58C1834.99,-1220.1 2119.1,-994.39 2211.05,-921.34"/>
<polygon fill="black" stroke="black" points="2213.44,-923.91 2219.09,-914.95 2209.09,-918.43 2213.44,-923.91"/>
</g>
<!-- Biproduct_ab_biprod_functor_beta -->
<g id="node22" class="node">
<title>Biproduct_ab_biprod_functor_beta</title>
<g id="a_node22"><a xlink:href="Biproduct.html#ab_biprod_functor_beta" xlink:title="ab_biprod_functor_beta">
<ellipse fill="#f070d1" stroke="black" cx="2240" cy="-1301.34" rx="119.67" ry="18"/>
<ellipse fill="none" stroke="black" cx="2240" cy="-1301.34" rx="123.68" ry="22"/>
<ellipse fill="none" stroke="black" cx="2240" cy="-1301.34" rx="127.68" ry="26"/>
<text text-anchor="middle" x="2240" y="-1297.64" font-family="Times,serif" font-size="14.00">ab_biprod_functor_beta</text>
</a>
</g>
</g>
<!-- Biproduct_ab_biprod_functor_beta&#45;&gt;Biproduct_functor_ab_biprod -->
<g id="edge36" class="edge">
<title>Biproduct_ab_biprod_functor_beta&#45;&gt;Biproduct_functor_ab_biprod</title>
<path fill="none" stroke="black" d="M2240,-1275.19C2240,-1203.75 2240,-999.93 2240,-925.76"/>
<polygon fill="black" stroke="black" points="2243.5,-925.4 2240,-915.4 2236.5,-925.4 2243.5,-925.4"/>
</g>
<!-- Biproduct_functor_ab_biprod&#45;&gt;Biproduct_ab_biprod_corec -->
<g id="edge37" class="edge">
<title>Biproduct_functor_ab_biprod&#45;&gt;Biproduct_ab_biprod_corec</title>
<path fill="none" stroke="black" d="M2248.73,-878.93C2278,-820.55 2372.79,-631.5 2407.82,-561.62"/>
<polygon fill="black" stroke="black" points="2411,-563.09 2412.36,-552.58 2404.75,-559.95 2411,-563.09"/>
</g>
<!-- Biproduct_ab_biprod_pr2 -->
<g id="node34" class="node">
<title>Biproduct_ab_biprod_pr2</title>
<g id="a_node34"><a xlink:href="Biproduct.html#ab_biprod_pr2" xlink:title="ab_biprod_pr2">
<ellipse fill="#f070d1" stroke="black" cx="2067" cy="-534.34" rx="77.19" ry="18"/>
<text text-anchor="middle" x="2067" y="-530.64" font-family="Times,serif" font-size="14.00">ab_biprod_pr2</text>
</a>
</g>
</g>
<!-- Biproduct_functor_ab_biprod&#45;&gt;Biproduct_ab_biprod_pr2 -->
<g id="edge38" class="edge">
<title>Biproduct_functor_ab_biprod&#45;&gt;Biproduct_ab_biprod_pr2</title>
<path fill="none" stroke="black" d="M2231.66,-878.93C2203.68,-820.55 2113.08,-631.5 2079.59,-561.62"/>
<polygon fill="black" stroke="black" points="2082.74,-560.08 2075.26,-552.58 2076.43,-563.11 2082.74,-560.08"/>
</g>
<!-- Biproduct_ab_biprod_pr1 -->
<g id="node35" class="node">
<title>Biproduct_ab_biprod_pr1</title>
<g id="a_node35"><a xlink:href="Biproduct.html#ab_biprod_pr1" xlink:title="ab_biprod_pr1">
<ellipse fill="#f070d1" stroke="black" cx="2240" cy="-534.34" rx="77.19" ry="18"/>
<text text-anchor="middle" x="2240" y="-530.64" font-family="Times,serif" font-size="14.00">ab_biprod_pr1</text>
</a>
</g>
</g>
<!-- Biproduct_functor_ab_biprod&#45;&gt;Biproduct_ab_biprod_pr1 -->
<g id="edge39" class="edge">
<title>Biproduct_functor_ab_biprod&#45;&gt;Biproduct_ab_biprod_pr1</title>
<path fill="none" stroke="black" d="M2240,-878.93C2240,-820.91 2240,-633.82 2240,-562.92"/>
<polygon fill="black" stroke="black" points="2243.5,-562.58 2240,-552.58 2236.5,-562.58 2243.5,-562.58"/>
</g>
<!-- Biproduct_ab_biprod_corec&#45;&gt;Biproduct_ab_biprod -->
<g id="edge40" class="edge">
<title>Biproduct_ab_biprod_corec&#45;&gt;Biproduct_ab_biprod</title>
<path fill="none" stroke="black" d="M2412.51,-516.41C2383.48,-458.5 2287.97,-268.02 2252.99,-198.25"/>
<polygon fill="black" stroke="black" points="2256.08,-196.6 2248.47,-189.23 2249.82,-199.74 2256.08,-196.6"/>
</g>
<!-- Biproduct_isequiv_ab_biprod_rec -->
<g id="node25" class="node">
<title>Biproduct_isequiv_ab_biprod_rec</title>
<g id="a_node25"><a xlink:href="Biproduct.html#isequiv_ab_biprod_rec" xlink:title="isequiv_ab_biprod_rec">
<ellipse fill="#f070d1" stroke="black" cx="733" cy="-1301.34" rx="113.17" ry="18"/>
<ellipse fill="none" stroke="black" cx="733" cy="-1301.34" rx="117.18" ry="22"/>
<ellipse fill="none" stroke="black" cx="733" cy="-1301.34" rx="121.18" ry="26"/>
<text text-anchor="middle" x="733" y="-1297.64" font-family="Times,serif" font-size="14.00">isequiv_ab_biprod_rec</text>
</a>
</g>
</g>
<!-- Biproduct_ab_biprod_rec_beta_inr -->
<g id="node26" class="node">
<title>Biproduct_ab_biprod_rec_beta_inr</title>
<g id="a_node26"><a xlink:href="Biproduct.html#ab_biprod_rec_beta_inr" xlink:title="ab_biprod_rec_beta_inr">
<ellipse fill="#f070d1" stroke="black" cx="1011" cy="-897.34" rx="118.08" ry="18"/>
<text text-anchor="middle" x="1011" y="-893.64" font-family="Times,serif" font-size="14.00">ab_biprod_rec_beta_inr</text>
</a>
</g>
</g>
<!-- Biproduct_isequiv_ab_biprod_rec&#45;&gt;Biproduct_ab_biprod_rec_beta_inr -->
<g id="edge41" class="edge">
<title>Biproduct_isequiv_ab_biprod_rec&#45;&gt;Biproduct_ab_biprod_rec_beta_inr</title>
<path fill="none" stroke="black" d="M750.18,-1275.5C799.79,-1203.76 942.93,-996.78 993.25,-924.01"/>
<polygon fill="black" stroke="black" points="996.37,-925.65 999.18,-915.43 990.61,-921.67 996.37,-925.65"/>
</g>
<!-- Biproduct_ab_biprod_rec_beta_inl -->
<g id="node27" class="node">
<title>Biproduct_ab_biprod_rec_beta_inl</title>
<g id="a_node27"><a xlink:href="Biproduct.html#ab_biprod_rec_beta_inl" xlink:title="ab_biprod_rec_beta_inl">
<ellipse fill="#f070d1" stroke="black" cx="758" cy="-897.34" rx="116.18" ry="18"/>
<text text-anchor="middle" x="758" y="-893.64" font-family="Times,serif" font-size="14.00">ab_biprod_rec_beta_inl</text>
</a>
</g>
</g>
<!-- Biproduct_isequiv_ab_biprod_rec&#45;&gt;Biproduct_ab_biprod_rec_beta_inl -->
<g id="edge42" class="edge">
<title>Biproduct_isequiv_ab_biprod_rec&#45;&gt;Biproduct_ab_biprod_rec_beta_inl</title>
<path fill="none" stroke="black" d="M734.56,-1275.19C739.01,-1203.75 751.68,-999.93 756.29,-925.76"/>
<polygon fill="black" stroke="black" points="759.81,-925.59 756.94,-915.4 752.83,-925.16 759.81,-925.59"/>
</g>
<!-- Biproduct_ab_biprod_rec_eta -->
<g id="node28" class="node">
<title>Biproduct_ab_biprod_rec_eta</title>
<g id="a_node28"><a xlink:href="Biproduct.html#ab_biprod_rec_eta" xlink:title="ab_biprod_rec_eta">
<ellipse fill="#f070d1" stroke="black" cx="529" cy="-897.34" rx="94.78" ry="18"/>
<text text-anchor="middle" x="529" y="-893.64" font-family="Times,serif" font-size="14.00">ab_biprod_rec_eta</text>
</a>
</g>
</g>
<!-- Biproduct_isequiv_ab_biprod_rec&#45;&gt;Biproduct_ab_biprod_rec_eta -->
<g id="edge43" class="edge">
<title>Biproduct_isequiv_ab_biprod_rec&#45;&gt;Biproduct_ab_biprod_rec_eta</title>
<path fill="none" stroke="black" d="M720.24,-1275.19C683.76,-1203.31 579.28,-997.41 542.22,-924.4"/>
<polygon fill="black" stroke="black" points="545.3,-922.73 537.65,-915.4 539.06,-925.9 545.3,-922.73"/>
</g>
<!-- Biproduct_ab_biprod_rec_uncurried -->
<g id="node29" class="node">
<title>Biproduct_ab_biprod_rec_uncurried</title>
<g id="a_node29"><a xlink:href="Biproduct.html#ab_biprod_rec_uncurried" xlink:title="ab_biprod_rec_uncurried">
<ellipse fill="#f070d1" stroke="black" cx="1273" cy="-897.34" rx="125.38" ry="18"/>
<text text-anchor="middle" x="1273" y="-893.64" font-family="Times,serif" font-size="14.00">ab_biprod_rec_uncurried</text>
</a>
</g>
</g>
<!-- Biproduct_isequiv_ab_biprod_rec&#45;&gt;Biproduct_ab_biprod_rec_uncurried -->
<g id="edge44" class="edge">
<title>Biproduct_isequiv_ab_biprod_rec&#45;&gt;Biproduct_ab_biprod_rec_uncurried</title>
<path fill="none" stroke="black" d="M765.56,-1276.1C862.41,-1204 1147.79,-991.55 1242.25,-921.24"/>
<polygon fill="black" stroke="black" points="1244.59,-923.85 1250.52,-915.07 1240.41,-918.24 1244.59,-923.85"/>
</g>
<!-- Biproduct_ab_biprod_rec_beta_inr&#45;&gt;Biproduct_ab_biprod_rec -->
<g id="edge45" class="edge">
<title>Biproduct_ab_biprod_rec_beta_inr&#45;&gt;Biproduct_ab_biprod_rec</title>
<path fill="none" stroke="black" d="M1017.32,-878.93C1038.46,-820.67 1106.82,-632.27 1132.31,-562.05"/>
<polygon fill="black" stroke="black" points="1135.62,-563.17 1135.74,-552.58 1129.04,-560.78 1135.62,-563.17"/>
</g>
<!-- Biproduct_ab_biprod_rec_beta_inr&#45;&gt;Biproduct_ab_biprod_inr -->
<g id="edge46" class="edge">
<title>Biproduct_ab_biprod_rec_beta_inr&#45;&gt;Biproduct_ab_biprod_inr</title>
<path fill="none" stroke="black" d="M992.99,-879.41C930.76,-820.91 724.62,-627.11 652.32,-559.15"/>
<polygon fill="black" stroke="black" points="654.65,-556.53 644.97,-552.23 649.86,-561.63 654.65,-556.53"/>
</g>
<!-- Biproduct_ab_biprod_rec_beta_inl&#45;&gt;Biproduct_ab_biprod_rec -->
<g id="edge47" class="edge">
<title>Biproduct_ab_biprod_rec_beta_inl&#45;&gt;Biproduct_ab_biprod_rec</title>
<path fill="none" stroke="black" d="M776.01,-879.41C838.24,-820.91 1044.38,-627.11 1116.68,-559.15"/>
<polygon fill="black" stroke="black" points="1119.14,-561.63 1124.03,-552.23 1114.35,-556.53 1119.14,-561.63"/>
</g>
<!-- Biproduct_ab_biprod_rec_beta_inl&#45;&gt;Biproduct_ab_biprod_inl -->
<g id="edge48" class="edge">
<title>Biproduct_ab_biprod_rec_beta_inl&#45;&gt;Biproduct_ab_biprod_inl</title>
<path fill="none" stroke="black" d="M744.12,-879.41C696.34,-821.14 538.53,-628.68 482.2,-559.98"/>
<polygon fill="black" stroke="black" points="484.9,-557.75 475.85,-552.23 479.48,-562.18 484.9,-557.75"/>
</g>
<!-- Biproduct_ab_biprod_rec_eta&#45;&gt;Biproduct_ab_biprod_rec -->
<g id="edge49" class="edge">
<title>Biproduct_ab_biprod_rec_eta&#45;&gt;Biproduct_ab_biprod_rec</title>
<path fill="none" stroke="black" d="M556.93,-879.89C656.6,-821.2 994.74,-622.06 1106.11,-556.48"/>
<polygon fill="black" stroke="black" points="1108.11,-559.36 1114.95,-551.27 1104.56,-553.33 1108.11,-559.36"/>
</g>
<!-- Biproduct_ab_biprod_rec_eta&#45;&gt;Biproduct_ab_biprod_inr -->
<g id="edge50" class="edge">
<title>Biproduct_ab_biprod_rec_eta&#45;&gt;Biproduct_ab_biprod_inr</title>
<path fill="none" stroke="black" d="M533.73,-878.93C549.51,-820.79 600.48,-633.05 619.63,-562.48"/>
<polygon fill="black" stroke="black" points="623.08,-563.15 622.32,-552.58 616.32,-561.31 623.08,-563.15"/>
</g>
<!-- Biproduct_ab_biprod_rec_eta&#45;&gt;Biproduct_ab_biprod_inl -->
<g id="edge51" class="edge">
<title>Biproduct_ab_biprod_rec_eta&#45;&gt;Biproduct_ab_biprod_inl</title>
<path fill="none" stroke="black" d="M525.77,-878.93C514.98,-820.79 480.13,-633.05 467.04,-562.48"/>
<polygon fill="black" stroke="black" points="470.47,-561.77 465.2,-552.58 463.58,-563.05 470.47,-561.77"/>
</g>
<!-- Biproduct_ab_biprod_rec_uncurried&#45;&gt;Biproduct_ab_biprod_rec -->
<g id="edge52" class="edge">
<title>Biproduct_ab_biprod_rec_uncurried&#45;&gt;Biproduct_ab_biprod_rec</title>
<path fill="none" stroke="black" d="M1266.68,-878.93C1245.54,-820.67 1177.18,-632.27 1151.69,-562.05"/>
<polygon fill="black" stroke="black" points="1154.96,-560.78 1148.26,-552.58 1148.38,-563.17 1154.96,-560.78"/>
</g>
<!-- Biproduct_ab_biprod_rec&#45;&gt;Biproduct_ab_biprod -->
<g id="edge53" class="edge">
<title>Biproduct_ab_biprod_rec&#45;&gt;Biproduct_ab_biprod</title>
<path fill="none" stroke="black" d="M1184.37,-519.41C1357.45,-462.5 2010.28,-247.87 2192.5,-187.96"/>
<polygon fill="black" stroke="black" points="2193.67,-191.26 2202.08,-184.81 2191.49,-184.61 2193.67,-191.26"/>
</g>
<!-- Biproduct_equiv_ab_biprod_ind_homotopy -->
<g id="node31" class="node">
<title>Biproduct_equiv_ab_biprod_ind_homotopy</title>
<g id="a_node31"><a xlink:href="Biproduct.html#equiv_ab_biprod_ind_homotopy" xlink:title="equiv_ab_biprod_ind_homotopy">
<ellipse fill="#f070d1" stroke="black" cx="179" cy="-1744.34" rx="155.18" ry="18"/>
<ellipse fill="none" stroke="black" cx="179" cy="-1744.34" rx="159.18" ry="22"/>
<ellipse fill="none" stroke="black" cx="179" cy="-1744.34" rx="163.17" ry="26"/>
<text text-anchor="middle" x="179" y="-1740.64" font-family="Times,serif" font-size="14.00">equiv_ab_biprod_ind_homotopy</text>
</a>
</g>
</g>
<!-- Biproduct_ab_biprod_ind_homotopy -->
<g id="node32" class="node">
<title>Biproduct_ab_biprod_ind_homotopy</title>
<g id="a_node32"><a xlink:href="Biproduct.html#ab_biprod_ind_homotopy" xlink:title="ab_biprod_ind_homotopy">
<ellipse fill="#f070d1" stroke="black" cx="142" cy="-1301.34" rx="126.18" ry="18"/>
<text text-anchor="middle" x="142" y="-1297.64" font-family="Times,serif" font-size="14.00">ab_biprod_ind_homotopy</text>
</a>
</g>
</g>
<!-- Biproduct_equiv_ab_biprod_ind_homotopy&#45;&gt;Biproduct_ab_biprod_ind_homotopy -->
<g id="edge54" class="edge">
<title>Biproduct_equiv_ab_biprod_ind_homotopy&#45;&gt;Biproduct_ab_biprod_ind_homotopy</title>
<path fill="none" stroke="black" d="M176.88,-1718.05C170.41,-1640.96 150.98,-1409.38 144.29,-1329.66"/>
<polygon fill="black" stroke="black" points="147.76,-1329.12 143.44,-1319.45 140.78,-1329.71 147.76,-1329.12"/>
</g>
<!-- Biproduct_ab_biprod_ind -->
<g id="node33" class="node">
<title>Biproduct_ab_biprod_ind</title>
<g id="a_node33"><a xlink:href="Biproduct.html#ab_biprod_ind" xlink:title="ab_biprod_ind">
<ellipse fill="#f070d1" stroke="black" cx="301" cy="-897.34" rx="75.29" ry="18"/>
<text text-anchor="middle" x="301" y="-893.64" font-family="Times,serif" font-size="14.00">ab_biprod_ind</text>
</a>
</g>
</g>
<!-- Biproduct_ab_biprod_ind_homotopy&#45;&gt;Biproduct_ab_biprod_ind -->
<g id="edge55" class="edge">
<title>Biproduct_ab_biprod_ind_homotopy&#45;&gt;Biproduct_ab_biprod_ind</title>
<path fill="none" stroke="black" d="M148.73,-1283.32C173.56,-1220.54 260.17,-1001.56 290.45,-925.01"/>
<polygon fill="black" stroke="black" points="293.76,-926.17 294.18,-915.59 287.25,-923.6 293.76,-926.17"/>
</g>
<!-- Biproduct_ab_biprod_ind&#45;&gt;Biproduct_ab_biprod_inr -->
<g id="edge56" class="edge">
<title>Biproduct_ab_biprod_ind&#45;&gt;Biproduct_ab_biprod_inr</title>
<path fill="none" stroke="black" d="M316.29,-879.41C368.91,-821.14 542.71,-628.68 604.75,-559.98"/>
<polygon fill="black" stroke="black" points="607.64,-562 611.75,-552.23 602.45,-557.31 607.64,-562"/>
</g>
<!-- Biproduct_ab_biprod_ind&#45;&gt;Biproduct_ab_biprod_inl -->
<g id="edge57" class="edge">
<title>Biproduct_ab_biprod_ind&#45;&gt;Biproduct_ab_biprod_inl</title>
<path fill="none" stroke="black" d="M308.55,-879.41C334.27,-821.75 418.59,-632.67 450.04,-562.16"/>
<polygon fill="black" stroke="black" points="453.4,-563.21 454.28,-552.65 447.01,-560.36 453.4,-563.21"/>
</g>
<!-- Biproduct_ab_biprod_pr2&#45;&gt;Biproduct_ab_biprod -->
<g id="edge58" class="edge">
<title>Biproduct_ab_biprod_pr2&#45;&gt;Biproduct_ab_biprod</title>
<path fill="none" stroke="black" d="M2075.11,-516.41C2102.81,-458.62 2193.77,-268.8 2227.38,-198.68"/>
<polygon fill="black" stroke="black" points="2230.74,-199.76 2231.91,-189.23 2224.43,-196.74 2230.74,-199.76"/>
</g>
<!-- Biproduct_ab_biprod_pr1&#45;&gt;Biproduct_ab_biprod -->
<g id="edge59" class="edge">
<title>Biproduct_ab_biprod_pr1&#45;&gt;Biproduct_ab_biprod</title>
<path fill="none" stroke="black" d="M2240,-515.93C2240,-457.91 2240,-270.82 2240,-199.92"/>
<polygon fill="black" stroke="black" points="2243.5,-199.58 2240,-189.58 2236.5,-199.58 2243.5,-199.58"/>
</g>
<!-- Biproduct_ab_biprod_inr&#45;&gt;Biproduct_ab_biprod -->
<g id="edge60" class="edge">
<title>Biproduct_ab_biprod_inr&#45;&gt;Biproduct_ab_biprod</title>
<path fill="none" stroke="black" d="M679.75,-521.53C923.28,-467.03 1937.53,-240.03 2185.25,-184.59"/>
<polygon fill="black" stroke="black" points="2186.11,-187.99 2195.1,-182.39 2184.58,-181.16 2186.11,-187.99"/>
</g>
<!-- Biproduct_ab_biprod_inl&#45;&gt;Biproduct_ab_biprod -->
<g id="edge61" class="edge">
<title>Biproduct_ab_biprod_inl&#45;&gt;Biproduct_ab_biprod</title>
<path fill="none" stroke="black" d="M515.81,-522.15C525.2,-520.21 534.88,-518.21 544,-516.34 1187.58,-384.36 1969.13,-226.86 2183.38,-183.73"/>
<polygon fill="black" stroke="black" points="2184.33,-187.11 2193.45,-181.71 2182.95,-180.25 2184.33,-187.11"/>
</g>
</g>
</svg>
