<?xml version="1.0" encoding="UTF-8" standalone="no"?>
<!DOCTYPE svg PUBLIC "-//W3C//DTD SVG 1.1//EN"
 "http://www.w3.org/Graphics/SVG/1.1/DTD/svg11.dtd">
<!-- Generated by graphviz version 2.43.0 (0)
 -->
<!-- Title: HoTT_WildCat_Graph Pages: 1 -->
<svg width="1093pt" height="551pt"
 viewBox="0.00 0.00 1093.00 550.50" xmlns="http://www.w3.org/2000/svg" xmlns:xlink="http://www.w3.org/1999/xlink">
<g id="graph0" class="graph" transform="scale(1 1) rotate(0) translate(4 546.5)">
<title>HoTT_WildCat_Graph</title>
<polygon fill="white" stroke="transparent" points="-4,4 -4,-546.5 1089,-546.5 1089,4 -4,4"/>
<g id="clust1" class="cluster">
<title>cluster_Graph</title>
<polygon fill="#ffffc3" stroke="black" points="8,-16.25 8,-526.25 1077,-526.25 1077,-16.25 8,-16.25"/>
<text text-anchor="middle" x="38.5" y="-511.05" font-family="Times,serif" font-size="14.00">Graph</text>
</g>
<!-- Graph_is01cat_graph -->
<g id="node1" class="node">
<title>Graph_is01cat_graph</title>
<g id="a_node1"><a xlink:href="Graph.html#is01cat_graph" xlink:title="is01cat_graph">
<ellipse fill="#f070d1" stroke="black" cx="985" cy="-410.25" rx="76.08" ry="18"/>
<ellipse fill="none" stroke="black" cx="985" cy="-410.25" rx="80.08" ry="22"/>
<ellipse fill="none" stroke="black" cx="985" cy="-410.25" rx="84.09" ry="26"/>
<text text-anchor="middle" x="985" y="-406.55" font-family="Times,serif" font-size="14.00">is01cat_graph</text>
</a>
</g>
</g>
<!-- Graph_isgraph_graph -->
<g id="node3" class="node">
<title>Graph_isgraph_graph</title>
<g id="a_node3"><a xlink:href="Graph.html#isgraph_graph" xlink:title="isgraph_graph">
<ellipse fill="#f070d1" stroke="black" cx="992" cy="-231.25" rx="77.19" ry="18"/>
<text text-anchor="middle" x="992" y="-227.55" font-family="Times,serif" font-size="14.00">isgraph_graph</text>
</a>
</g>
</g>
<!-- Graph_is01cat_graph&#45;&gt;Graph_isgraph_graph -->
<g id="edge1" class="edge">
<title>Graph_is01cat_graph&#45;&gt;Graph_isgraph_graph</title>
<path fill="none" stroke="black" d="M986,-383.89C987.31,-350.95 989.57,-293.63 990.91,-259.69"/>
<polygon fill="black" stroke="black" points="994.42,-259.69 991.32,-249.56 987.42,-259.41 994.42,-259.69"/>
</g>
<!-- Graph_is2graph_graph -->
<g id="node2" class="node">
<title>Graph_is2graph_graph</title>
<g id="a_node2"><a xlink:href="Graph.html#is2graph_graph" xlink:title="is2graph_graph">
<ellipse fill="#f070d1" stroke="black" cx="792" cy="-410.25" rx="83.37" ry="18"/>
<ellipse fill="none" stroke="black" cx="792" cy="-410.25" rx="87.38" ry="22"/>
<ellipse fill="none" stroke="black" cx="792" cy="-410.25" rx="91.39" ry="26"/>
<text text-anchor="middle" x="792" y="-406.55" font-family="Times,serif" font-size="14.00">is2graph_graph</text>
</a>
</g>
</g>
<!-- Graph_is2graph_graph&#45;&gt;Graph_isgraph_graph -->
<g id="edge2" class="edge">
<title>Graph_is2graph_graph&#45;&gt;Graph_isgraph_graph</title>
<path fill="none" stroke="black" d="M818.97,-385.38C857.4,-351.38 927.45,-289.38 965.57,-255.64"/>
<polygon fill="black" stroke="black" points="968.03,-258.14 973.2,-248.89 963.39,-252.9 968.03,-258.14"/>
</g>
<!-- Graph_Graph -->
<g id="node11" class="node">
<title>Graph_Graph</title>
<g id="a_node11"><a xlink:href="Graph.html#Graph" xlink:title="Graph">
<ellipse fill="#e2cdfa" stroke="black" cx="472" cy="-69.25" rx="39.79" ry="18"/>
<text text-anchor="middle" x="472" y="-65.55" font-family="Times,serif" font-size="14.00">Graph</text>
</a>
</g>
</g>
<!-- Graph_isgraph_graph&#45;&gt;Graph_Graph -->
<g id="edge3" class="edge">
<title>Graph_isgraph_graph&#45;&gt;Graph_Graph</title>
<path fill="none" stroke="black" d="M947.22,-216.47C847.88,-185.91 610.26,-112.8 513.78,-83.11"/>
<polygon fill="black" stroke="black" points="514.67,-79.72 504.08,-80.13 512.61,-86.41 514.67,-79.72"/>
</g>
<!-- Graph_isgraph_graph_carrier -->
<g id="node4" class="node">
<title>Graph_isgraph_graph_carrier</title>
<g id="a_node4"><a xlink:href="Graph.html#isgraph_graph_carrier" xlink:title="isgraph_graph_carrier">
<ellipse fill="#f070d1" stroke="black" cx="775" cy="-231.25" rx="113.96" ry="18"/>
<ellipse fill="none" stroke="black" cx="775" cy="-231.25" rx="117.97" ry="22"/>
<ellipse fill="none" stroke="black" cx="775" cy="-231.25" rx="121.98" ry="26"/>
<text text-anchor="middle" x="775" y="-227.55" font-family="Times,serif" font-size="14.00">isgraph_graph_carrier</text>
</a>
</g>
</g>
<!-- Graph_isgraph_graph_carrier&#45;&gt;Graph_Graph -->
<g id="edge4" class="edge">
<title>Graph_isgraph_graph_carrier&#45;&gt;Graph_Graph</title>
<path fill="none" stroke="black" d="M730.94,-206.99C669.96,-174.79 561.15,-117.33 506.02,-88.22"/>
<polygon fill="black" stroke="black" points="507.49,-85.03 497.01,-83.46 504.22,-91.22 507.49,-85.03"/>
</g>
<!-- Graph_graph_carrier -->
<g id="node5" class="node">
<title>Graph_graph_carrier</title>
<g id="a_node5"><a xlink:href="Graph.html#graph_carrier" xlink:title="graph_carrier">
<ellipse fill="#f070d1" stroke="black" cx="553" cy="-231.25" rx="74.18" ry="18"/>
<ellipse fill="none" stroke="black" cx="553" cy="-231.25" rx="78.18" ry="22"/>
<ellipse fill="none" stroke="black" cx="553" cy="-231.25" rx="82.19" ry="26"/>
<text text-anchor="middle" x="553" y="-227.55" font-family="Times,serif" font-size="14.00">graph_carrier</text>
</a>
</g>
</g>
<!-- Graph_graph_carrier&#45;&gt;Graph_Graph -->
<g id="edge5" class="edge">
<title>Graph_graph_carrier&#45;&gt;Graph_Graph</title>
<path fill="none" stroke="black" d="M540.34,-205.25C525.33,-175.59 500.41,-126.38 485.17,-96.28"/>
<polygon fill="black" stroke="black" points="488.23,-94.57 480.59,-87.23 481.99,-97.73 488.23,-94.57"/>
</g>
<!-- Graph_Graph_sind -->
<g id="node6" class="node">
<title>Graph_Graph_sind</title>
<g id="a_node6"><a xlink:href="Graph.html#Graph_sind" xlink:title="Graph_sind">
<ellipse fill="#f070d1" stroke="black" cx="88" cy="-231.25" rx="63.87" ry="18"/>
<ellipse fill="none" stroke="black" cx="88" cy="-231.25" rx="67.88" ry="22"/>
<ellipse fill="none" stroke="black" cx="88" cy="-231.25" rx="71.89" ry="26"/>
<text text-anchor="middle" x="88" y="-227.55" font-family="Times,serif" font-size="14.00">Graph_sind</text>
</a>
</g>
</g>
<!-- Graph_Build_Graph -->
<g id="node10" class="node">
<title>Graph_Build_Graph</title>
<g id="a_node10"><a xlink:href="Graph.html#Build_Graph" xlink:title="Build_Graph">
<ellipse fill="#7faaff" stroke="black" cx="244" cy="-69.25" rx="68.49" ry="18"/>
<text text-anchor="middle" x="244" y="-65.55" font-family="Times,serif" font-size="14.00">Build_Graph</text>
</a>
</g>
</g>
<!-- Graph_Graph_sind&#45;&gt;Graph_Build_Graph -->
<g id="edge6" class="edge">
<title>Graph_Graph_sind&#45;&gt;Graph_Build_Graph</title>
<path fill="none" stroke="black" d="M111.35,-206.3C140.82,-176.08 191.18,-124.43 220.65,-94.21"/>
<polygon fill="black" stroke="black" points="223.18,-96.62 227.66,-87.01 218.17,-91.73 223.18,-96.62"/>
</g>
<!-- Graph_Graph_sind&#45;&gt;Graph_Graph -->
<g id="edge7" class="edge">
<title>Graph_Graph_sind&#45;&gt;Graph_Graph</title>
<path fill="none" stroke="black" d="M133.94,-211.11C210.56,-179.19 363.03,-115.66 434.01,-86.08"/>
<polygon fill="black" stroke="black" points="435.58,-89.22 443.47,-82.14 432.89,-82.76 435.58,-89.22"/>
</g>
<!-- Graph_Graph_rec -->
<g id="node7" class="node">
<title>Graph_Graph_rec</title>
<g id="a_node7"><a xlink:href="Graph.html#Graph_rec" xlink:title="Graph_rec">
<ellipse fill="#f070d1" stroke="black" cx="391" cy="-410.25" rx="58.49" ry="18"/>
<ellipse fill="none" stroke="black" cx="391" cy="-410.25" rx="62.49" ry="22"/>
<ellipse fill="none" stroke="black" cx="391" cy="-410.25" rx="66.49" ry="26"/>
<text text-anchor="middle" x="391" y="-406.55" font-family="Times,serif" font-size="14.00">Graph_rec</text>
</a>
</g>
</g>
<!-- Graph_Graph_rect -->
<g id="node9" class="node">
<title>Graph_Graph_rect</title>
<g id="a_node9"><a xlink:href="Graph.html#Graph_rect" xlink:title="Graph_rect">
<ellipse fill="#f070d1" stroke="black" cx="391" cy="-231.25" rx="62.29" ry="18"/>
<text text-anchor="middle" x="391" y="-227.55" font-family="Times,serif" font-size="14.00">Graph_rect</text>
</a>
</g>
</g>
<!-- Graph_Graph_rec&#45;&gt;Graph_Graph_rect -->
<g id="edge8" class="edge">
<title>Graph_Graph_rec&#45;&gt;Graph_Graph_rect</title>
<path fill="none" stroke="black" d="M391,-383.89C391,-350.95 391,-293.63 391,-259.69"/>
<polygon fill="black" stroke="black" points="394.5,-259.56 391,-249.56 387.5,-259.56 394.5,-259.56"/>
</g>
<!-- Graph_Graph_ind -->
<g id="node8" class="node">
<title>Graph_Graph_ind</title>
<g id="a_node8"><a xlink:href="Graph.html#Graph_ind" xlink:title="Graph_ind">
<ellipse fill="#7fffd4" stroke="black" cx="244" cy="-231.25" rx="58.49" ry="18"/>
<ellipse fill="none" stroke="black" cx="244" cy="-231.25" rx="62.49" ry="22"/>
<ellipse fill="none" stroke="black" cx="244" cy="-231.25" rx="66.49" ry="26"/>
<text text-anchor="middle" x="244" y="-227.55" font-family="Times,serif" font-size="14.00">Graph_ind</text>
</a>
</g>
</g>
<!-- Graph_Graph_ind&#45;&gt;Graph_Build_Graph -->
<g id="edge9" class="edge">
<title>Graph_Graph_ind&#45;&gt;Graph_Build_Graph</title>
<path fill="none" stroke="black" d="M244,-205.25C244,-176.14 244,-128.17 244,-97.95"/>
<polygon fill="black" stroke="black" points="247.5,-97.68 244,-87.68 240.5,-97.68 247.5,-97.68"/>
</g>
<!-- Graph_Graph_ind&#45;&gt;Graph_Graph -->
<g id="edge10" class="edge">
<title>Graph_Graph_ind&#45;&gt;Graph_Graph</title>
<path fill="none" stroke="black" d="M275.7,-208.01C320.12,-176.84 400.22,-120.63 443.08,-90.55"/>
<polygon fill="black" stroke="black" points="445.21,-93.33 451.39,-84.72 441.19,-87.6 445.21,-93.33"/>
</g>
<!-- Graph_Graph_rect&#45;&gt;Graph_Build_Graph -->
<g id="edge11" class="edge">
<title>Graph_Graph_rect&#45;&gt;Graph_Build_Graph</title>
<path fill="none" stroke="black" d="M375.82,-213.73C349.74,-185.35 296.33,-127.21 266.11,-94.32"/>
<polygon fill="black" stroke="black" points="268.66,-91.92 259.32,-86.92 263.5,-96.66 268.66,-91.92"/>
</g>
<!-- Graph_Graph_rect&#45;&gt;Graph_Graph -->
<g id="edge12" class="edge">
<title>Graph_Graph_rect&#45;&gt;Graph_Graph</title>
<path fill="none" stroke="black" d="M399.67,-213.13C413.86,-185.1 442.13,-129.26 458.82,-96.3"/>
<polygon fill="black" stroke="black" points="462,-97.76 463.39,-87.25 455.75,-94.6 462,-97.76"/>
</g>
</g>
</svg>
