<?xml version="1.0" encoding="UTF-8" standalone="no"?>
<!DOCTYPE svg PUBLIC "-//W3C//DTD SVG 1.1//EN"
 "http://www.w3.org/Graphics/SVG/1.1/DTD/svg11.dtd">
<!-- Generated by graphviz version 2.43.0 (0)
 -->
<!-- Title: HoTT_HIT_epi Pages: 1 -->
<svg width="1001pt" height="504pt"
 viewBox="0.00 0.00 1001.00 504.50" xmlns="http://www.w3.org/2000/svg" xmlns:xlink="http://www.w3.org/1999/xlink">
<g id="graph0" class="graph" transform="scale(1 1) rotate(0) translate(4 500.5)">
<title>HoTT_HIT_epi</title>
<polygon fill="white" stroke="transparent" points="-4,4 -4,-500.5 997,-500.5 997,4 -4,4"/>
<g id="clust1" class="cluster">
<title>cluster_epi</title>
<polygon fill="#ffffc3" stroke="black" points="8,-11.19 8,-485.31 985,-485.31 985,-11.19 8,-11.19"/>
<text text-anchor="middle" x="27" y="-470.11" font-family="Times,serif" font-size="14.00">epi</text>
</g>
<!-- epi_isepi_isequiv -->
<g id="node1" class="node">
<title>epi_isepi_isequiv</title>
<g id="a_node1"><a xlink:href="epi.html#isepi_isequiv" xlink:title="isepi_isequiv">
<ellipse fill="#f070d1" stroke="black" cx="94" cy="-159.19" rx="70.37" ry="18"/>
<ellipse fill="none" stroke="black" cx="94" cy="-159.19" rx="74.38" ry="22"/>
<ellipse fill="none" stroke="black" cx="94" cy="-159.19" rx="78.39" ry="26"/>
<text text-anchor="middle" x="94" y="-155.49" font-family="Times,serif" font-size="14.00">isepi_isequiv</text>
</a>
</g>
</g>
<!-- epi_isepi -->
<g id="node12" class="node">
<title>epi_isepi</title>
<g id="a_node12"><a xlink:href="epi.html#isepi" xlink:title="isepi">
<ellipse fill="#f070d1" stroke="black" cx="458" cy="-47.19" rx="32.49" ry="18"/>
<text text-anchor="middle" x="458" y="-43.49" font-family="Times,serif" font-size="14.00">isepi</text>
</a>
</g>
</g>
<!-- epi_isepi_isequiv&#45;&gt;epi_isepi -->
<g id="edge1" class="edge">
<title>epi_isepi_isequiv&#45;&gt;epi_isepi</title>
<path fill="none" stroke="black" d="M150.48,-141.12C225.54,-118.44 356.14,-78.97 420.27,-59.59"/>
<polygon fill="black" stroke="black" points="421.41,-62.9 429.97,-56.66 419.39,-56.2 421.41,-62.9"/>
</g>
<!-- epi_isepi_funext_issurj -->
<g id="node2" class="node">
<title>epi_isepi_funext_issurj</title>
<g id="a_node2"><a xlink:href="epi.html#isepi_funext_issurj" xlink:title="isepi_funext_issurj">
<ellipse fill="#f070d1" stroke="black" cx="616" cy="-405.19" rx="96.7" ry="18"/>
<ellipse fill="none" stroke="black" cx="616" cy="-405.19" rx="100.69" ry="22"/>
<ellipse fill="none" stroke="black" cx="616" cy="-405.19" rx="104.68" ry="26"/>
<text text-anchor="middle" x="616" y="-401.49" font-family="Times,serif" font-size="14.00">isepi_funext_issurj</text>
</a>
</g>
</g>
<!-- epi_isepi_issurj -->
<g id="node3" class="node">
<title>epi_isepi_issurj</title>
<g id="a_node3"><a xlink:href="epi.html#isepi_issurj" xlink:title="isepi_issurj">
<ellipse fill="#f070d1" stroke="black" cx="729" cy="-282.19" rx="63.09" ry="18"/>
<text text-anchor="middle" x="729" y="-278.49" font-family="Times,serif" font-size="14.00">isepi_issurj</text>
</a>
</g>
</g>
<!-- epi_isepi_funext_issurj&#45;&gt;epi_isepi_issurj -->
<g id="edge2" class="edge">
<title>epi_isepi_funext_issurj&#45;&gt;epi_isepi_issurj</title>
<path fill="none" stroke="black" d="M638.87,-379.7C658.54,-358.64 686.76,-328.42 706.37,-307.43"/>
<polygon fill="black" stroke="black" points="709.15,-309.57 713.42,-299.87 704.04,-304.79 709.15,-309.57"/>
</g>
<!-- epi_equiv_isepi_isepi_funext -->
<g id="node8" class="node">
<title>epi_equiv_isepi_isepi_funext</title>
<g id="a_node8"><a xlink:href="epi.html#equiv_isepi_isepi_funext" xlink:title="equiv_isepi_isepi_funext">
<ellipse fill="#f070d1" stroke="black" cx="503" cy="-282.19" rx="122.68" ry="18"/>
<text text-anchor="middle" x="503" y="-278.49" font-family="Times,serif" font-size="14.00">equiv_isepi_isepi_funext</text>
</a>
</g>
</g>
<!-- epi_isepi_funext_issurj&#45;&gt;epi_equiv_isepi_isepi_funext -->
<g id="edge3" class="edge">
<title>epi_isepi_funext_issurj&#45;&gt;epi_equiv_isepi_isepi_funext</title>
<path fill="none" stroke="black" d="M593.13,-379.7C573.58,-358.76 545.57,-328.77 525.98,-307.79"/>
<polygon fill="black" stroke="black" points="528.3,-305.15 518.92,-300.23 523.18,-309.93 528.3,-305.15"/>
</g>
<!-- epi_fam -->
<g id="node4" class="node">
<title>epi_fam</title>
<g id="a_node4"><a xlink:href="epi.html#fam" xlink:title="fam">
<ellipse fill="#f070d1" stroke="black" cx="751" cy="-159.19" rx="28.7" ry="18"/>
<text text-anchor="middle" x="751" y="-155.49" font-family="Times,serif" font-size="14.00">fam</text>
</a>
</g>
</g>
<!-- epi_isepi_issurj&#45;&gt;epi_fam -->
<g id="edge4" class="edge">
<title>epi_isepi_issurj&#45;&gt;epi_fam</title>
<path fill="none" stroke="black" d="M732.11,-264.11C735.74,-244.11 741.81,-210.73 746.09,-187.21"/>
<polygon fill="black" stroke="black" points="749.57,-187.65 747.91,-177.18 742.68,-186.39 749.57,-187.65"/>
</g>
<!-- epi_isepi__contr_cone -->
<g id="node7" class="node">
<title>epi_isepi__contr_cone</title>
<g id="a_node7"><a xlink:href="epi.html#isepi'_contr_cone" xlink:title="isepi&#39;_contr_cone">
<ellipse fill="#f070d1" stroke="black" cx="887" cy="-159.19" rx="89.88" ry="18"/>
<text text-anchor="middle" x="887" y="-155.49" font-family="Times,serif" font-size="14.00">isepi&#39;_contr_cone</text>
</a>
</g>
</g>
<!-- epi_isepi_issurj&#45;&gt;epi_isepi__contr_cone -->
<g id="edge5" class="edge">
<title>epi_isepi_issurj&#45;&gt;epi_isepi__contr_cone</title>
<path fill="none" stroke="black" d="M749.98,-265.12C777.57,-243.99 826.19,-206.76 857.48,-182.8"/>
<polygon fill="black" stroke="black" points="859.61,-185.57 865.43,-176.71 855.36,-180.01 859.61,-185.57"/>
</g>
<!-- epi_equiv_isepi_isepi_ -->
<g id="node9" class="node">
<title>epi_equiv_isepi_isepi_</title>
<g id="a_node9"><a xlink:href="epi.html#equiv_isepi_isepi'" xlink:title="equiv_isepi_isepi&#39;">
<ellipse fill="#f070d1" stroke="black" cx="613" cy="-159.19" rx="90.98" ry="18"/>
<text text-anchor="middle" x="613" y="-155.49" font-family="Times,serif" font-size="14.00">equiv_isepi_isepi&#39;</text>
</a>
</g>
</g>
<!-- epi_isepi_issurj&#45;&gt;epi_equiv_isepi_isepi_ -->
<g id="edge6" class="edge">
<title>epi_isepi_issurj&#45;&gt;epi_equiv_isepi_isepi_</title>
<path fill="none" stroke="black" d="M712.87,-264.36C692.99,-243.62 659.04,-208.21 636.32,-184.51"/>
<polygon fill="black" stroke="black" points="638.81,-182.06 629.37,-177.26 633.76,-186.9 638.81,-182.06"/>
</g>
<!-- epi_issurj_isepi_funext -->
<g id="node5" class="node">
<title>epi_issurj_isepi_funext</title>
<g id="a_node5"><a xlink:href="epi.html#issurj_isepi_funext" xlink:title="issurj_isepi_funext">
<ellipse fill="#f070d1" stroke="black" cx="257" cy="-282.19" rx="96.7" ry="18"/>
<ellipse fill="none" stroke="black" cx="257" cy="-282.19" rx="100.69" ry="22"/>
<ellipse fill="none" stroke="black" cx="257" cy="-282.19" rx="104.68" ry="26"/>
<text text-anchor="middle" x="257" y="-278.49" font-family="Times,serif" font-size="14.00">issurj_isepi_funext</text>
</a>
</g>
</g>
<!-- epi_isepi_funext -->
<g id="node11" class="node">
<title>epi_isepi_funext</title>
<g id="a_node11"><a xlink:href="epi.html#isepi_funext" xlink:title="isepi_funext">
<ellipse fill="#f070d1" stroke="black" cx="257" cy="-159.19" rx="66.89" ry="18"/>
<text text-anchor="middle" x="257" y="-155.49" font-family="Times,serif" font-size="14.00">isepi_funext</text>
</a>
</g>
</g>
<!-- epi_issurj_isepi_funext&#45;&gt;epi_isepi_funext -->
<g id="edge7" class="edge">
<title>epi_issurj_isepi_funext&#45;&gt;epi_isepi_funext</title>
<path fill="none" stroke="black" d="M257,-256.12C257,-236.08 257,-208.02 257,-187.43"/>
<polygon fill="black" stroke="black" points="260.5,-187.42 257,-177.42 253.5,-187.42 260.5,-187.42"/>
</g>
<!-- epi_issurj_isepi -->
<g id="node6" class="node">
<title>epi_issurj_isepi</title>
<g id="a_node6"><a xlink:href="epi.html#issurj_isepi" xlink:title="issurj_isepi">
<ellipse fill="#f070d1" stroke="black" cx="413" cy="-159.19" rx="63.08" ry="18"/>
<ellipse fill="none" stroke="black" cx="413" cy="-159.19" rx="67.09" ry="22"/>
<ellipse fill="none" stroke="black" cx="413" cy="-159.19" rx="71.09" ry="26"/>
<text text-anchor="middle" x="413" y="-155.49" font-family="Times,serif" font-size="14.00">issurj_isepi</text>
</a>
</g>
</g>
<!-- epi_issurj_isepi&#45;&gt;epi_isepi -->
<g id="edge8" class="edge">
<title>epi_issurj_isepi&#45;&gt;epi_isepi</title>
<path fill="none" stroke="black" d="M423.21,-133.23C430.43,-115.58 440.09,-91.98 447.39,-74.11"/>
<polygon fill="black" stroke="black" points="450.63,-75.44 451.18,-64.86 444.16,-72.79 450.63,-75.44"/>
</g>
<!-- epi_isepi_ -->
<g id="node10" class="node">
<title>epi_isepi_</title>
<g id="a_node10"><a xlink:href="epi.html#isepi'" xlink:title="isepi&#39;">
<ellipse fill="#f070d1" stroke="black" cx="750" cy="-47.19" rx="35.19" ry="18"/>
<text text-anchor="middle" x="750" y="-43.49" font-family="Times,serif" font-size="14.00">isepi&#39;</text>
</a>
</g>
</g>
<!-- epi_isepi__contr_cone&#45;&gt;epi_isepi_ -->
<g id="edge9" class="edge">
<title>epi_isepi__contr_cone&#45;&gt;epi_isepi_</title>
<path fill="none" stroke="black" d="M866.19,-141.48C842.15,-122.18 802.54,-90.37 776.36,-69.35"/>
<polygon fill="black" stroke="black" points="778.35,-66.47 768.37,-62.93 773.97,-71.92 778.35,-66.47"/>
</g>
<!-- epi_equiv_isepi_isepi_funext&#45;&gt;epi_isepi_funext -->
<g id="edge10" class="edge">
<title>epi_equiv_isepi_isepi_funext&#45;&gt;epi_isepi_funext</title>
<path fill="none" stroke="black" d="M469.57,-264.74C424.61,-242.63 344.8,-203.38 296.8,-179.77"/>
<polygon fill="black" stroke="black" points="298.17,-176.54 287.65,-175.26 295.08,-182.82 298.17,-176.54"/>
</g>
<!-- epi_equiv_isepi_isepi_funext&#45;&gt;epi_isepi -->
<g id="edge11" class="edge">
<title>epi_equiv_isepi_isepi_funext&#45;&gt;epi_isepi</title>
<path fill="none" stroke="black" d="M503.62,-264.06C504.22,-236.22 503.82,-179.59 493,-133.19 488.15,-112.4 478.82,-90.13 471.01,-73.61"/>
<polygon fill="black" stroke="black" points="474.15,-72.06 466.63,-64.59 467.85,-75.12 474.15,-72.06"/>
</g>
<!-- epi_equiv_isepi_isepi_&#45;&gt;epi_isepi_ -->
<g id="edge12" class="edge">
<title>epi_equiv_isepi_isepi_&#45;&gt;epi_isepi_</title>
<path fill="none" stroke="black" d="M633.81,-141.48C657.85,-122.18 697.46,-90.37 723.64,-69.35"/>
<polygon fill="black" stroke="black" points="726.03,-71.92 731.63,-62.93 721.65,-66.47 726.03,-71.92"/>
</g>
<!-- epi_equiv_isepi_isepi_&#45;&gt;epi_isepi -->
<g id="edge13" class="edge">
<title>epi_equiv_isepi_isepi_&#45;&gt;epi_isepi</title>
<path fill="none" stroke="black" d="M589.79,-141.72C561.97,-121.97 515.38,-88.91 485.7,-67.84"/>
<polygon fill="black" stroke="black" points="487.62,-64.92 477.44,-61.98 483.57,-70.62 487.62,-64.92"/>
</g>
</g>
</svg>
