<?xml version="1.0" encoding="UTF-8" standalone="no"?>
<!DOCTYPE svg PUBLIC "-//W3C//DTD SVG 1.1//EN"
 "http://www.w3.org/Graphics/SVG/1.1/DTD/svg11.dtd">
<!-- Generated by graphviz version 2.43.0 (0)
 -->
<!-- Title: HoTT_Homotopy_HSpaceS1 Pages: 1 -->
<svg width="1118pt" height="563pt"
 viewBox="0.00 0.00 1118.00 563.00" xmlns="http://www.w3.org/2000/svg" xmlns:xlink="http://www.w3.org/1999/xlink">
<g id="graph0" class="graph" transform="scale(1 1) rotate(0) translate(4 559)">
<title>HoTT_Homotopy_HSpaceS1</title>
<polygon fill="white" stroke="transparent" points="-4,4 -4,-559 1114,-559 1114,4 -4,4"/>
<g id="clust1" class="cluster">
<title>cluster_HSpaceS1</title>
<polygon fill="#ffffc3" stroke="black" points="13.72,-8 13.72,-547 1096.28,-547 1096.28,-8 13.72,-8"/>
<text text-anchor="middle" x="58.72" y="-531.8" font-family="Times,serif" font-size="14.00">HSpaceS1</text>
</g>
<!-- HSpaceS1_commutative_sgop_s1 -->
<g id="node1" class="node">
<title>HSpaceS1_commutative_sgop_s1</title>
<g id="a_node1"><a xlink:href="HSpaceS1.html#commutative_sgop_s1" xlink:title="commutative_sgop_s1">
<ellipse fill="#f070d1" stroke="black" cx="876.4" cy="-330" rx="112.38" ry="18"/>
<ellipse fill="none" stroke="black" cx="876.4" cy="-330" rx="116.38" ry="22"/>
<ellipse fill="none" stroke="black" cx="876.4" cy="-330" rx="120.38" ry="26"/>
<text text-anchor="middle" x="876.4" y="-326.3" font-family="Times,serif" font-size="14.00">commutative_sgop_s1</text>
</a>
</g>
</g>
<!-- HSpaceS1_rightidentity_s1 -->
<g id="node6" class="node">
<title>HSpaceS1_rightidentity_s1</title>
<g id="a_node6"><a xlink:href="HSpaceS1.html#rightidentity_s1" xlink:title="rightidentity_s1">
<ellipse fill="#f070d1" stroke="black" cx="468.4" cy="-250" rx="85.29" ry="18"/>
<text text-anchor="middle" x="468.4" y="-246.3" font-family="Times,serif" font-size="14.00">rightidentity_s1</text>
</a>
</g>
</g>
<!-- HSpaceS1_commutative_sgop_s1&#45;&gt;HSpaceS1_rightidentity_s1 -->
<g id="edge1" class="edge">
<title>HSpaceS1_commutative_sgop_s1&#45;&gt;HSpaceS1_rightidentity_s1</title>
<path fill="none" stroke="black" d="M788.38,-312.17C713.8,-297.91 608.26,-277.74 539.1,-264.51"/>
<polygon fill="black" stroke="black" points="539.64,-261.06 529.16,-262.62 538.33,-267.93 539.64,-261.06"/>
</g>
<!-- HSpaceS1_associative_sgop_s1 -->
<g id="node2" class="node">
<title>HSpaceS1_associative_sgop_s1</title>
<g id="a_node2"><a xlink:href="HSpaceS1.html#associative_sgop_s1" xlink:title="associative_sgop_s1">
<ellipse fill="#f070d1" stroke="black" cx="447.4" cy="-330" rx="103.19" ry="18"/>
<ellipse fill="none" stroke="black" cx="447.4" cy="-330" rx="107.19" ry="22"/>
<ellipse fill="none" stroke="black" cx="447.4" cy="-330" rx="111.18" ry="26"/>
<text text-anchor="middle" x="447.4" y="-326.3" font-family="Times,serif" font-size="14.00">associative_sgop_s1</text>
</a>
</g>
</g>
<!-- HSpaceS1_associative_sgop_s1&#45;&gt;HSpaceS1_rightidentity_s1 -->
<g id="edge2" class="edge">
<title>HSpaceS1_associative_sgop_s1&#45;&gt;HSpaceS1_rightidentity_s1</title>
<path fill="none" stroke="black" d="M454.17,-303.89C456.38,-295.66 458.85,-286.48 461.11,-278.1"/>
<polygon fill="black" stroke="black" points="464.5,-278.98 463.72,-268.41 457.74,-277.16 464.5,-278.98"/>
</g>
<!-- HSpaceS1_iscohhspace_s1 -->
<g id="node3" class="node">
<title>HSpaceS1_iscohhspace_s1</title>
<g id="a_node3"><a xlink:href="HSpaceS1.html#iscohhspace_s1" xlink:title="iscohhspace_s1">
<ellipse fill="#f070d1" stroke="black" cx="181.4" cy="-490" rx="81.8" ry="18"/>
<ellipse fill="none" stroke="black" cx="181.4" cy="-490" rx="85.79" ry="22"/>
<ellipse fill="none" stroke="black" cx="181.4" cy="-490" rx="89.79" ry="26"/>
<text text-anchor="middle" x="181.4" y="-486.3" font-family="Times,serif" font-size="14.00">iscohhspace_s1</text>
</a>
</g>
</g>
<!-- HSpaceS1_iscoherent_s1 -->
<g id="node4" class="node">
<title>HSpaceS1_iscoherent_s1</title>
<g id="a_node4"><a xlink:href="HSpaceS1.html#iscoherent_s1" xlink:title="iscoherent_s1">
<ellipse fill="#f070d1" stroke="black" cx="168.4" cy="-410" rx="74.99" ry="18"/>
<text text-anchor="middle" x="168.4" y="-406.3" font-family="Times,serif" font-size="14.00">iscoherent_s1</text>
</a>
</g>
</g>
<!-- HSpaceS1_iscohhspace_s1&#45;&gt;HSpaceS1_iscoherent_s1 -->
<g id="edge3" class="edge">
<title>HSpaceS1_iscohhspace_s1&#45;&gt;HSpaceS1_iscoherent_s1</title>
<path fill="none" stroke="black" d="M177.22,-463.89C175.86,-455.75 174.35,-446.68 172.97,-438.38"/>
<polygon fill="black" stroke="black" points="176.4,-437.7 171.31,-428.41 169.5,-438.85 176.4,-437.7"/>
</g>
<!-- HSpaceS1_hspace_s1 -->
<g id="node5" class="node">
<title>HSpaceS1_hspace_s1</title>
<g id="a_node5"><a xlink:href="HSpaceS1.html#hspace_s1" xlink:title="hspace_s1">
<ellipse fill="#f070d1" stroke="black" cx="127.4" cy="-330" rx="57.69" ry="18"/>
<text text-anchor="middle" x="127.4" y="-326.3" font-family="Times,serif" font-size="14.00">hspace_s1</text>
</a>
</g>
</g>
<!-- HSpaceS1_iscoherent_s1&#45;&gt;HSpaceS1_hspace_s1 -->
<g id="edge4" class="edge">
<title>HSpaceS1_iscoherent_s1&#45;&gt;HSpaceS1_hspace_s1</title>
<path fill="none" stroke="black" d="M159.51,-392.08C154.14,-381.85 147.18,-368.62 141.11,-357.08"/>
<polygon fill="black" stroke="black" points="144.03,-355.11 136.28,-347.89 137.84,-358.37 144.03,-355.11"/>
</g>
<!-- HSpaceS1_hspace_s1&#45;&gt;HSpaceS1_rightidentity_s1 -->
<g id="edge5" class="edge">
<title>HSpaceS1_hspace_s1&#45;&gt;HSpaceS1_rightidentity_s1</title>
<path fill="none" stroke="black" d="M172.69,-318.64C231.62,-305.16 335.04,-281.51 402.63,-266.05"/>
<polygon fill="black" stroke="black" points="403.77,-269.37 412.74,-263.73 402.21,-262.55 403.77,-269.37"/>
</g>
<!-- HSpaceS1_leftidentity_s1 -->
<g id="node7" class="node">
<title>HSpaceS1_leftidentity_s1</title>
<g id="a_node7"><a xlink:href="HSpaceS1.html#leftidentity_s1" xlink:title="leftidentity_s1">
<ellipse fill="#f070d1" stroke="black" cx="159.4" cy="-250" rx="77.19" ry="18"/>
<text text-anchor="middle" x="159.4" y="-246.3" font-family="Times,serif" font-size="14.00">leftidentity_s1</text>
</a>
</g>
</g>
<!-- HSpaceS1_hspace_s1&#45;&gt;HSpaceS1_leftidentity_s1 -->
<g id="edge6" class="edge">
<title>HSpaceS1_hspace_s1&#45;&gt;HSpaceS1_leftidentity_s1</title>
<path fill="none" stroke="black" d="M134.35,-312.08C138.47,-302.03 143.79,-289.06 148.47,-277.66"/>
<polygon fill="black" stroke="black" points="151.81,-278.74 152.36,-268.16 145.33,-276.08 151.81,-278.74"/>
</g>
<!-- HSpaceS1_sgop_s1 -->
<g id="node8" class="node">
<title>HSpaceS1_sgop_s1</title>
<g id="a_node8"><a xlink:href="HSpaceS1.html#sgop_s1" xlink:title="sgop_s1">
<ellipse fill="#f070d1" stroke="black" cx="178.4" cy="-178" rx="48.19" ry="18"/>
<text text-anchor="middle" x="178.4" y="-174.3" font-family="Times,serif" font-size="14.00">sgop_s1</text>
</a>
</g>
</g>
<!-- HSpaceS1_rightidentity_s1&#45;&gt;HSpaceS1_sgop_s1 -->
<g id="edge7" class="edge">
<title>HSpaceS1_rightidentity_s1&#45;&gt;HSpaceS1_sgop_s1</title>
<path fill="none" stroke="black" d="M414.54,-236C360.94,-223.06 279.42,-203.38 227.54,-190.86"/>
<polygon fill="black" stroke="black" points="228.12,-187.4 217.58,-188.46 226.48,-194.21 228.12,-187.4"/>
</g>
<!-- HSpaceS1_Sph1_rec_beta_loop -->
<g id="node10" class="node">
<title>HSpaceS1_Sph1_rec_beta_loop</title>
<g id="a_node10"><a xlink:href="HSpaceS1.html#Sph1_rec_beta_loop" xlink:title="Sph1_rec_beta_loop">
<ellipse fill="#f070d1" stroke="black" cx="468.4" cy="-178" rx="102.88" ry="18"/>
<text text-anchor="middle" x="468.4" y="-174.3" font-family="Times,serif" font-size="14.00">Sph1_rec_beta_loop</text>
</a>
</g>
</g>
<!-- HSpaceS1_rightidentity_s1&#45;&gt;HSpaceS1_Sph1_rec_beta_loop -->
<g id="edge8" class="edge">
<title>HSpaceS1_rightidentity_s1&#45;&gt;HSpaceS1_Sph1_rec_beta_loop</title>
<path fill="none" stroke="black" d="M468.4,-231.7C468.4,-223.98 468.4,-214.71 468.4,-206.11"/>
<polygon fill="black" stroke="black" points="471.91,-206.1 468.4,-196.1 464.91,-206.1 471.91,-206.1"/>
</g>
<!-- HSpaceS1_leftidentity_s1&#45;&gt;HSpaceS1_sgop_s1 -->
<g id="edge9" class="edge">
<title>HSpaceS1_leftidentity_s1&#45;&gt;HSpaceS1_sgop_s1</title>
<path fill="none" stroke="black" d="M164.1,-231.7C166.22,-223.9 168.77,-214.51 171.12,-205.83"/>
<polygon fill="black" stroke="black" points="174.52,-206.67 173.76,-196.1 167.76,-204.84 174.52,-206.67"/>
</g>
<!-- HSpaceS1_s1_turn -->
<g id="node9" class="node">
<title>HSpaceS1_s1_turn</title>
<g id="a_node9"><a xlink:href="HSpaceS1.html#s1_turn" xlink:title="s1_turn">
<ellipse fill="#f070d1" stroke="black" cx="178.4" cy="-106" rx="46.29" ry="18"/>
<text text-anchor="middle" x="178.4" y="-102.3" font-family="Times,serif" font-size="14.00">s1_turn</text>
</a>
</g>
</g>
<!-- HSpaceS1_sgop_s1&#45;&gt;HSpaceS1_s1_turn -->
<g id="edge10" class="edge">
<title>HSpaceS1_sgop_s1&#45;&gt;HSpaceS1_s1_turn</title>
<path fill="none" stroke="black" d="M178.4,-159.7C178.4,-151.98 178.4,-142.71 178.4,-134.11"/>
<polygon fill="black" stroke="black" points="181.91,-134.1 178.4,-124.1 174.91,-134.1 181.91,-134.1"/>
</g>
<!-- HSpaceS1_Sph1_rec -->
<g id="node11" class="node">
<title>HSpaceS1_Sph1_rec</title>
<g id="a_node11"><a xlink:href="HSpaceS1.html#Sph1_rec" xlink:title="Sph1_rec">
<ellipse fill="#f070d1" stroke="black" cx="423.4" cy="-106" rx="53.89" ry="18"/>
<text text-anchor="middle" x="423.4" y="-102.3" font-family="Times,serif" font-size="14.00">Sph1_rec</text>
</a>
</g>
</g>
<!-- HSpaceS1_sgop_s1&#45;&gt;HSpaceS1_Sph1_rec -->
<g id="edge11" class="edge">
<title>HSpaceS1_sgop_s1&#45;&gt;HSpaceS1_Sph1_rec</title>
<path fill="none" stroke="black" d="M215.35,-166.44C257.66,-154.36 327.16,-134.5 374.07,-121.1"/>
<polygon fill="black" stroke="black" points="375.06,-124.45 383.72,-118.34 373.14,-117.72 375.06,-124.45"/>
</g>
<!-- HSpaceS1_Sph1_ind -->
<g id="node12" class="node">
<title>HSpaceS1_Sph1_ind</title>
<g id="a_node12"><a xlink:href="HSpaceS1.html#Sph1_ind" xlink:title="Sph1_ind">
<ellipse fill="#f070d1" stroke="black" cx="178.4" cy="-34" rx="53.89" ry="18"/>
<text text-anchor="middle" x="178.4" y="-30.3" font-family="Times,serif" font-size="14.00">Sph1_ind</text>
</a>
</g>
</g>
<!-- HSpaceS1_s1_turn&#45;&gt;HSpaceS1_Sph1_ind -->
<g id="edge12" class="edge">
<title>HSpaceS1_s1_turn&#45;&gt;HSpaceS1_Sph1_ind</title>
<path fill="none" stroke="black" d="M178.4,-87.7C178.4,-79.98 178.4,-70.71 178.4,-62.11"/>
<polygon fill="black" stroke="black" points="181.91,-62.1 178.4,-52.1 174.91,-62.1 181.91,-62.1"/>
</g>
<!-- HSpaceS1_Sph1_rec_beta_loop&#45;&gt;HSpaceS1_Sph1_rec -->
<g id="edge13" class="edge">
<title>HSpaceS1_Sph1_rec_beta_loop&#45;&gt;HSpaceS1_Sph1_rec</title>
<path fill="none" stroke="black" d="M457.51,-160.05C452.15,-151.71 445.58,-141.49 439.64,-132.25"/>
<polygon fill="black" stroke="black" points="442.55,-130.31 434.2,-123.79 436.66,-134.09 442.55,-130.31"/>
</g>
</g>
</svg>
