<?xml version="1.0" encoding="UTF-8" standalone="no"?>
<!DOCTYPE svg PUBLIC "-//W3C//DTD SVG 1.1//EN"
 "http://www.w3.org/Graphics/SVG/1.1/DTD/svg11.dtd">
<!-- Generated by graphviz version 2.43.0 (0)
 -->
<!-- Title: HoTT_Colimits_CoeqUnivProp Pages: 1 -->
<svg width="942pt" height="475pt"
 viewBox="0.00 0.00 942.00 475.00" xmlns="http://www.w3.org/2000/svg" xmlns:xlink="http://www.w3.org/1999/xlink">
<g id="graph0" class="graph" transform="scale(1 1) rotate(0) translate(4 471)">
<title>HoTT_Colimits_CoeqUnivProp</title>
<polygon fill="white" stroke="transparent" points="-4,4 -4,-471 938,-471 938,4 -4,4"/>
<g id="clust1" class="cluster">
<title>cluster_CoeqUnivProp</title>
<polygon fill="#ffffc3" stroke="black" points="13.81,-8 13.81,-459 920.19,-459 920.19,-8 13.81,-8"/>
<text text-anchor="middle" x="73.81" y="-443.8" font-family="Times,serif" font-size="14.00">CoeqUnivProp</text>
</g>
<!-- CoeqUnivProp_equiv_0gpd_Coeq_ind -->
<g id="node1" class="node">
<title>CoeqUnivProp_equiv_0gpd_Coeq_ind</title>
<g id="a_node1"><a xlink:href="CoeqUnivProp.html#equiv_0gpd_Coeq_ind" xlink:title="equiv_0gpd_Coeq_ind">
<ellipse fill="#f070d1" stroke="black" cx="412.71" cy="-402" rx="110.48" ry="18"/>
<ellipse fill="none" stroke="black" cx="412.71" cy="-402" rx="114.48" ry="22"/>
<ellipse fill="none" stroke="black" cx="412.71" cy="-402" rx="118.48" ry="26"/>
<text text-anchor="middle" x="412.71" y="-398.3" font-family="Times,serif" font-size="14.00">equiv_0gpd_Coeq_ind</text>
</a>
</g>
</g>
<!-- CoeqUnivProp_issurjinj_Coeq_ind_inv -->
<g id="node2" class="node">
<title>CoeqUnivProp_issurjinj_Coeq_ind_inv</title>
<g id="a_node2"><a xlink:href="CoeqUnivProp.html#issurjinj_Coeq_ind_inv" xlink:title="issurjinj_Coeq_ind_inv">
<ellipse fill="#f070d1" stroke="black" cx="412.71" cy="-322" rx="113.98" ry="18"/>
<text text-anchor="middle" x="412.71" y="-318.3" font-family="Times,serif" font-size="14.00">issurjinj_Coeq_ind_inv</text>
</a>
</g>
</g>
<!-- CoeqUnivProp_equiv_0gpd_Coeq_ind&#45;&gt;CoeqUnivProp_issurjinj_Coeq_ind_inv -->
<g id="edge1" class="edge">
<title>CoeqUnivProp_equiv_0gpd_Coeq_ind&#45;&gt;CoeqUnivProp_issurjinj_Coeq_ind_inv</title>
<path fill="none" stroke="black" d="M412.71,-375.89C412.71,-367.84 412.71,-358.88 412.71,-350.66"/>
<polygon fill="black" stroke="black" points="416.21,-350.41 412.71,-340.41 409.21,-350.41 416.21,-350.41"/>
</g>
<!-- CoeqUnivProp_is0functor_Coeq_ind_inv -->
<g id="node3" class="node">
<title>CoeqUnivProp_is0functor_Coeq_ind_inv</title>
<g id="a_node3"><a xlink:href="CoeqUnivProp.html#is0functor_Coeq_ind_inv" xlink:title="is0functor_Coeq_ind_inv">
<ellipse fill="#f070d1" stroke="black" cx="239.71" cy="-178" rx="123.48" ry="18"/>
<text text-anchor="middle" x="239.71" y="-174.3" font-family="Times,serif" font-size="14.00">is0functor_Coeq_ind_inv</text>
</a>
</g>
</g>
<!-- CoeqUnivProp_issurjinj_Coeq_ind_inv&#45;&gt;CoeqUnivProp_is0functor_Coeq_ind_inv -->
<g id="edge2" class="edge">
<title>CoeqUnivProp_issurjinj_Coeq_ind_inv&#45;&gt;CoeqUnivProp_is0functor_Coeq_ind_inv</title>
<path fill="none" stroke="black" d="M392.19,-304.15C361.36,-278.85 303.02,-230.96 268.12,-202.32"/>
<polygon fill="black" stroke="black" points="270.16,-199.46 260.21,-195.82 265.72,-204.87 270.16,-199.46"/>
</g>
<!-- CoeqUnivProp_isd0gpd_Coeq_ind_data -->
<g id="node5" class="node">
<title>CoeqUnivProp_isd0gpd_Coeq_ind_data</title>
<g id="a_node5"><a xlink:href="CoeqUnivProp.html#isd0gpd_Coeq_ind_data" xlink:title="isd0gpd_Coeq_ind_data">
<ellipse fill="#f070d1" stroke="black" cx="640.71" cy="-250" rx="119.68" ry="18"/>
<text text-anchor="middle" x="640.71" y="-246.3" font-family="Times,serif" font-size="14.00">isd0gpd_Coeq_ind_data</text>
</a>
</g>
</g>
<!-- CoeqUnivProp_issurjinj_Coeq_ind_inv&#45;&gt;CoeqUnivProp_isd0gpd_Coeq_ind_data -->
<g id="edge3" class="edge">
<title>CoeqUnivProp_issurjinj_Coeq_ind_inv&#45;&gt;CoeqUnivProp_isd0gpd_Coeq_ind_data</title>
<path fill="none" stroke="black" d="M462.46,-305.72C497.34,-295.02 544.14,-280.65 581.03,-269.32"/>
<polygon fill="black" stroke="black" points="582.14,-272.64 590.67,-266.36 580.08,-265.95 582.14,-272.64"/>
</g>
<!-- CoeqUnivProp_Coeq_ind_inv -->
<g id="node4" class="node">
<title>CoeqUnivProp_Coeq_ind_inv</title>
<g id="a_node4"><a xlink:href="CoeqUnivProp.html#Coeq_ind_inv" xlink:title="Coeq_ind_inv">
<ellipse fill="#f070d1" stroke="black" cx="239.71" cy="-106" rx="71.49" ry="18"/>
<text text-anchor="middle" x="239.71" y="-102.3" font-family="Times,serif" font-size="14.00">Coeq_ind_inv</text>
</a>
</g>
</g>
<!-- CoeqUnivProp_is0functor_Coeq_ind_inv&#45;&gt;CoeqUnivProp_Coeq_ind_inv -->
<g id="edge4" class="edge">
<title>CoeqUnivProp_is0functor_Coeq_ind_inv&#45;&gt;CoeqUnivProp_Coeq_ind_inv</title>
<path fill="none" stroke="black" d="M239.71,-159.7C239.71,-151.98 239.71,-142.71 239.71,-134.11"/>
<polygon fill="black" stroke="black" points="243.21,-134.1 239.71,-124.1 236.21,-134.1 243.21,-134.1"/>
</g>
<!-- CoeqUnivProp_isdgraph_Coeq_ind_data -->
<g id="node7" class="node">
<title>CoeqUnivProp_isdgraph_Coeq_ind_data</title>
<g id="a_node7"><a xlink:href="CoeqUnivProp.html#isdgraph_Coeq_ind_data" xlink:title="isdgraph_Coeq_ind_data">
<ellipse fill="#f070d1" stroke="black" cx="607.71" cy="-106" rx="123.48" ry="18"/>
<text text-anchor="middle" x="607.71" y="-102.3" font-family="Times,serif" font-size="14.00">isdgraph_Coeq_ind_data</text>
</a>
</g>
</g>
<!-- CoeqUnivProp_is0functor_Coeq_ind_inv&#45;&gt;CoeqUnivProp_isdgraph_Coeq_ind_data -->
<g id="edge5" class="edge">
<title>CoeqUnivProp_is0functor_Coeq_ind_inv&#45;&gt;CoeqUnivProp_isdgraph_Coeq_ind_data</title>
<path fill="none" stroke="black" d="M311.54,-163.34C372.99,-151.65 461.43,-134.82 525.66,-122.61"/>
<polygon fill="black" stroke="black" points="526.58,-126 535.75,-120.69 525.27,-119.12 526.58,-126"/>
</g>
<!-- CoeqUnivProp_Coeq_ind_data -->
<g id="node8" class="node">
<title>CoeqUnivProp_Coeq_ind_data</title>
<g id="a_node8"><a xlink:href="CoeqUnivProp.html#Coeq_ind_data" xlink:title="Coeq_ind_data">
<ellipse fill="#f070d1" stroke="black" cx="422.71" cy="-34" rx="77.99" ry="18"/>
<text text-anchor="middle" x="422.71" y="-30.3" font-family="Times,serif" font-size="14.00">Coeq_ind_data</text>
</a>
</g>
</g>
<!-- CoeqUnivProp_Coeq_ind_inv&#45;&gt;CoeqUnivProp_Coeq_ind_data -->
<g id="edge6" class="edge">
<title>CoeqUnivProp_Coeq_ind_inv&#45;&gt;CoeqUnivProp_Coeq_ind_data</title>
<path fill="none" stroke="black" d="M277.18,-90.67C305.4,-79.87 344.29,-65 374.76,-53.34"/>
<polygon fill="black" stroke="black" points="376.25,-56.52 384.34,-49.68 373.75,-49.98 376.25,-56.52"/>
</g>
<!-- CoeqUnivProp_isd01cat_Coeq_ind_data -->
<g id="node6" class="node">
<title>CoeqUnivProp_isd01cat_Coeq_ind_data</title>
<g id="a_node6"><a xlink:href="CoeqUnivProp.html#isd01cat_Coeq_ind_data" xlink:title="isd01cat_Coeq_ind_data">
<ellipse fill="#f070d1" stroke="black" cx="695.71" cy="-178" rx="122.38" ry="18"/>
<text text-anchor="middle" x="695.71" y="-174.3" font-family="Times,serif" font-size="14.00">isd01cat_Coeq_ind_data</text>
</a>
</g>
</g>
<!-- CoeqUnivProp_isd0gpd_Coeq_ind_data&#45;&gt;CoeqUnivProp_isd01cat_Coeq_ind_data -->
<g id="edge7" class="edge">
<title>CoeqUnivProp_isd0gpd_Coeq_ind_data&#45;&gt;CoeqUnivProp_isd01cat_Coeq_ind_data</title>
<path fill="none" stroke="black" d="M654.02,-232.05C660.55,-223.75 668.54,-213.58 675.77,-204.38"/>
<polygon fill="black" stroke="black" points="678.71,-206.3 682.14,-196.28 673.21,-201.98 678.71,-206.3"/>
</g>
<!-- CoeqUnivProp_isd01cat_Coeq_ind_data&#45;&gt;CoeqUnivProp_isdgraph_Coeq_ind_data -->
<g id="edge8" class="edge">
<title>CoeqUnivProp_isd01cat_Coeq_ind_data&#45;&gt;CoeqUnivProp_isdgraph_Coeq_ind_data</title>
<path fill="none" stroke="black" d="M674.41,-160.05C663.17,-151.11 649.2,-140.01 636.96,-130.27"/>
<polygon fill="black" stroke="black" points="638.82,-127.28 628.82,-123.79 634.46,-132.75 638.82,-127.28"/>
</g>
<!-- CoeqUnivProp_isdgraph_Coeq_ind_data&#45;&gt;CoeqUnivProp_Coeq_ind_data -->
<g id="edge9" class="edge">
<title>CoeqUnivProp_isdgraph_Coeq_ind_data&#45;&gt;CoeqUnivProp_Coeq_ind_data</title>
<path fill="none" stroke="black" d="M565.27,-88.94C537.19,-78.32 500.3,-64.36 471.08,-53.3"/>
<polygon fill="black" stroke="black" points="472.08,-49.94 461.49,-49.67 469.6,-56.49 472.08,-49.94"/>
</g>
</g>
</svg>
