<?xml version="1.0" encoding="UTF-8" standalone="no"?>
<!DOCTYPE svg PUBLIC "-//W3C//DTD SVG 1.1//EN"
 "http://www.w3.org/Graphics/SVG/1.1/DTD/svg11.dtd">
<!-- Generated by graphviz version 2.43.0 (0)
 -->
<!-- Title: HoTT_Diagrams_Diagram Pages: 1 -->
<svg width="2863pt" height="1436pt"
 viewBox="0.00 0.00 2863.00 1435.50" xmlns="http://www.w3.org/2000/svg" xmlns:xlink="http://www.w3.org/1999/xlink">
<g id="graph0" class="graph" transform="scale(1 1) rotate(0) translate(4 1431.5)">
<title>HoTT_Diagrams_Diagram</title>
<polygon fill="white" stroke="transparent" points="-4,4 -4,-1431.5 2859,-1431.5 2859,4 -4,4"/>
<g id="clust1" class="cluster">
<title>cluster_Diagram</title>
<polygon fill="#ffffc3" stroke="black" points="8,-25.78 8,-1401.72 2847,-1401.72 2847,-25.78 8,-25.78"/>
<text text-anchor="middle" x="47" y="-1386.52" font-family="Times,serif" font-size="14.00">Diagram</text>
</g>
<!-- Diagram_transitive_diagram_equiv -->
<g id="node1" class="node">
<title>Diagram_transitive_diagram_equiv</title>
<g id="a_node1"><a xlink:href="Diagram.html#transitive_diagram_equiv" xlink:title="transitive_diagram_equiv">
<ellipse fill="#f070d1" stroke="black" cx="1236" cy="-934.78" rx="128.08" ry="18"/>
<ellipse fill="none" stroke="black" cx="1236" cy="-934.78" rx="132.08" ry="22"/>
<ellipse fill="none" stroke="black" cx="1236" cy="-934.78" rx="136.08" ry="26"/>
<text text-anchor="middle" x="1236" y="-931.08" font-family="Times,serif" font-size="14.00">transitive_diagram_equiv</text>
</a>
</g>
</g>
<!-- Diagram_Build_diagram_equiv -->
<g id="node13" class="node">
<title>Diagram_Build_diagram_equiv</title>
<g id="a_node13"><a xlink:href="Diagram.html#Build_diagram_equiv" xlink:title="Build_diagram_equiv">
<ellipse fill="#7faaff" stroke="black" cx="2451" cy="-650.78" rx="107.78" ry="18"/>
<text text-anchor="middle" x="2451" y="-647.08" font-family="Times,serif" font-size="14.00">Build_diagram_equiv</text>
</a>
</g>
</g>
<!-- Diagram_transitive_diagram_equiv&#45;&gt;Diagram_Build_diagram_equiv -->
<g id="edge1" class="edge">
<title>Diagram_transitive_diagram_equiv&#45;&gt;Diagram_Build_diagram_equiv</title>
<path fill="none" stroke="black" d="M1319.99,-914.28C1547.11,-861.57 2170.45,-716.89 2380.69,-668.1"/>
<polygon fill="black" stroke="black" points="2381.74,-671.45 2390.69,-665.78 2380.15,-664.63 2381.74,-671.45"/>
</g>
<!-- Diagram_diagram_equiv -->
<g id="node14" class="node">
<title>Diagram_diagram_equiv</title>
<g id="a_node14"><a xlink:href="Diagram.html#diagram_equiv" xlink:title="diagram_equiv">
<ellipse fill="#e2cdfa" stroke="black" cx="2199" cy="-650.78" rx="79.09" ry="18"/>
<text text-anchor="middle" x="2199" y="-647.08" font-family="Times,serif" font-size="14.00">diagram_equiv</text>
</a>
</g>
</g>
<!-- Diagram_transitive_diagram_equiv&#45;&gt;Diagram_diagram_equiv -->
<g id="edge2" class="edge">
<title>Diagram_transitive_diagram_equiv&#45;&gt;Diagram_diagram_equiv</title>
<path fill="none" stroke="black" d="M1307.99,-912.7C1492.01,-858.81 1976.75,-716.86 2142.49,-668.33"/>
<polygon fill="black" stroke="black" points="2143.86,-671.57 2152.48,-665.4 2141.9,-664.85 2143.86,-671.57"/>
</g>
<!-- Diagram_diagram_comp -->
<g id="node15" class="node">
<title>Diagram_diagram_comp</title>
<g id="a_node15"><a xlink:href="Diagram.html#diagram_comp" xlink:title="diagram_comp">
<ellipse fill="#f070d1" stroke="black" cx="718" cy="-650.78" rx="78.79" ry="18"/>
<text text-anchor="middle" x="718" y="-647.08" font-family="Times,serif" font-size="14.00">diagram_comp</text>
</a>
</g>
</g>
<!-- Diagram_transitive_diagram_equiv&#45;&gt;Diagram_diagram_comp -->
<g id="edge3" class="edge">
<title>Diagram_transitive_diagram_equiv&#45;&gt;Diagram_diagram_comp</title>
<path fill="none" stroke="black" d="M1192.28,-909.98C1092.55,-855.68 849.63,-723.44 755.83,-672.37"/>
<polygon fill="black" stroke="black" points="757.42,-669.25 746.96,-667.55 754.07,-675.4 757.42,-669.25"/>
</g>
<!-- Diagram_DiagramMap_obj -->
<g id="node21" class="node">
<title>Diagram_DiagramMap_obj</title>
<g id="a_node21"><a xlink:href="Diagram.html#DiagramMap_obj" xlink:title="DiagramMap_obj">
<ellipse fill="#f070d1" stroke="black" cx="2012" cy="-650.78" rx="89.88" ry="18"/>
<text text-anchor="middle" x="2012" y="-647.08" font-family="Times,serif" font-size="14.00">DiagramMap_obj</text>
</a>
</g>
</g>
<!-- Diagram_transitive_diagram_equiv&#45;&gt;Diagram_DiagramMap_obj -->
<g id="edge4" class="edge">
<title>Diagram_transitive_diagram_equiv&#45;&gt;Diagram_DiagramMap_obj</title>
<path fill="none" stroke="black" d="M1297.22,-911.53C1445.93,-857.49 1824.05,-720.08 1961.27,-670.21"/>
<polygon fill="black" stroke="black" points="1962.52,-673.48 1970.73,-666.78 1960.13,-666.9 1962.52,-673.48"/>
</g>
<!-- Diagram_symmetric_diagram_equiv -->
<g id="node2" class="node">
<title>Diagram_symmetric_diagram_equiv</title>
<g id="a_node2"><a xlink:href="Diagram.html#symmetric_diagram_equiv" xlink:title="symmetric_diagram_equiv">
<ellipse fill="#f070d1" stroke="black" cx="1696" cy="-1217.78" rx="132.67" ry="18"/>
<ellipse fill="none" stroke="black" cx="1696" cy="-1217.78" rx="136.67" ry="22"/>
<ellipse fill="none" stroke="black" cx="1696" cy="-1217.78" rx="140.68" ry="26"/>
<text text-anchor="middle" x="1696" y="-1214.08" font-family="Times,serif" font-size="14.00">symmetric_diagram_equiv</text>
</a>
</g>
</g>
<!-- Diagram_diagram_equiv_inv -->
<g id="node6" class="node">
<title>Diagram_diagram_equiv_inv</title>
<g id="a_node6"><a xlink:href="Diagram.html#diagram_equiv_inv" xlink:title="diagram_equiv_inv">
<ellipse fill="#f070d1" stroke="black" cx="559" cy="-934.78" rx="97.48" ry="18"/>
<text text-anchor="middle" x="559" y="-931.08" font-family="Times,serif" font-size="14.00">diagram_equiv_inv</text>
</a>
</g>
</g>
<!-- Diagram_symmetric_diagram_equiv&#45;&gt;Diagram_diagram_equiv_inv -->
<g id="edge5" class="edge">
<title>Diagram_symmetric_diagram_equiv&#45;&gt;Diagram_diagram_equiv_inv</title>
<path fill="none" stroke="black" d="M1614.23,-1196.57C1399.15,-1143.41 820.72,-1000.46 624.87,-952.06"/>
<polygon fill="black" stroke="black" points="625.55,-948.62 615.01,-949.62 623.87,-955.42 625.55,-948.62"/>
</g>
<!-- Diagram_symmetric_diagram_equiv&#45;&gt;Diagram_Build_diagram_equiv -->
<g id="edge6" class="edge">
<title>Diagram_symmetric_diagram_equiv&#45;&gt;Diagram_Build_diagram_equiv</title>
<path fill="none" stroke="black" d="M1824.51,-1207.19C2093.05,-1184.22 2699.11,-1115.97 2823,-960.78 2928.29,-828.89 2638.87,-713.61 2509.69,-670.17"/>
<polygon fill="black" stroke="black" points="2510.52,-666.76 2499.93,-666.92 2508.31,-673.4 2510.52,-666.76"/>
</g>
<!-- Diagram_reflexive_diagram_equiv -->
<g id="node3" class="node">
<title>Diagram_reflexive_diagram_equiv</title>
<g id="a_node3"><a xlink:href="Diagram.html#reflexive_diagram_equiv" xlink:title="reflexive_diagram_equiv">
<ellipse fill="#f070d1" stroke="black" cx="1956" cy="-934.78" rx="123.48" ry="18"/>
<ellipse fill="none" stroke="black" cx="1956" cy="-934.78" rx="127.48" ry="22"/>
<ellipse fill="none" stroke="black" cx="1956" cy="-934.78" rx="131.48" ry="26"/>
<text text-anchor="middle" x="1956" y="-931.08" font-family="Times,serif" font-size="14.00">reflexive_diagram_equiv</text>
</a>
</g>
</g>
<!-- Diagram_reflexive_diagram_equiv&#45;&gt;Diagram_Build_diagram_equiv -->
<g id="edge7" class="edge">
<title>Diagram_reflexive_diagram_equiv&#45;&gt;Diagram_Build_diagram_equiv</title>
<path fill="none" stroke="black" d="M1997.78,-909.98C2092.53,-856 2322.56,-724.95 2413.29,-673.26"/>
<polygon fill="black" stroke="black" points="2415.18,-676.21 2422.14,-668.22 2411.72,-670.13 2415.18,-676.21"/>
</g>
<!-- Diagram_reflexive_diagram_equiv&#45;&gt;Diagram_diagram_equiv -->
<g id="edge8" class="edge">
<title>Diagram_reflexive_diagram_equiv&#45;&gt;Diagram_diagram_equiv</title>
<path fill="none" stroke="black" d="M1977.56,-908.75C2023.86,-855.03 2132.25,-729.24 2178.02,-676.13"/>
<polygon fill="black" stroke="black" points="2180.68,-678.4 2184.55,-668.54 2175.37,-673.83 2180.68,-678.4"/>
</g>
<!-- Diagram_diagram_idmap -->
<g id="node16" class="node">
<title>Diagram_diagram_idmap</title>
<g id="a_node16"><a xlink:href="Diagram.html#diagram_idmap" xlink:title="diagram_idmap">
<ellipse fill="#f070d1" stroke="black" cx="1822" cy="-650.78" rx="82.59" ry="18"/>
<text text-anchor="middle" x="1822" y="-647.08" font-family="Times,serif" font-size="14.00">diagram_idmap</text>
</a>
</g>
</g>
<!-- Diagram_reflexive_diagram_equiv&#45;&gt;Diagram_diagram_idmap -->
<g id="edge9" class="edge">
<title>Diagram_reflexive_diagram_equiv&#45;&gt;Diagram_diagram_idmap</title>
<path fill="none" stroke="black" d="M1944.11,-908.75C1918.9,-855.71 1860.31,-732.41 1834.54,-678.18"/>
<polygon fill="black" stroke="black" points="1837.58,-676.42 1830.13,-668.89 1831.26,-679.42 1837.58,-676.42"/>
</g>
<!-- Diagram_diagram_inv_is_retraction -->
<g id="node4" class="node">
<title>Diagram_diagram_inv_is_retraction</title>
<g id="a_node4"><a xlink:href="Diagram.html#diagram_inv_is_retraction" xlink:title="diagram_inv_is_retraction">
<ellipse fill="#f070d1" stroke="black" cx="476" cy="-1217.78" rx="130.77" ry="18"/>
<ellipse fill="none" stroke="black" cx="476" cy="-1217.78" rx="134.77" ry="22"/>
<ellipse fill="none" stroke="black" cx="476" cy="-1217.78" rx="138.78" ry="26"/>
<text text-anchor="middle" x="476" y="-1214.08" font-family="Times,serif" font-size="14.00">diagram_inv_is_retraction</text>
</a>
</g>
</g>
<!-- Diagram_diagram_inv_is_retraction&#45;&gt;Diagram_diagram_equiv_inv -->
<g id="edge10" class="edge">
<title>Diagram_diagram_inv_is_retraction&#45;&gt;Diagram_diagram_equiv_inv</title>
<path fill="none" stroke="black" d="M483.51,-1191.35C499.14,-1138.42 535.05,-1016.87 551.05,-962.69"/>
<polygon fill="black" stroke="black" points="554.41,-963.67 553.89,-953.09 547.7,-961.69 554.41,-963.67"/>
</g>
<!-- Diagram_diagram_inv_is_retraction&#45;&gt;Diagram_Build_diagram_equiv -->
<g id="edge11" class="edge">
<title>Diagram_diagram_inv_is_retraction&#45;&gt;Diagram_Build_diagram_equiv</title>
<path fill="none" stroke="black" d="M574.34,-1199.35C590.57,-1196.68 607.24,-1194.05 623,-1191.78 1053.36,-1129.64 2277.26,-1285.88 2566,-960.78 2605.12,-916.74 2507,-743.78 2467.03,-677.67"/>
<polygon fill="black" stroke="black" points="2469.99,-675.79 2461.8,-669.07 2464.01,-679.43 2469.99,-675.79"/>
</g>
<!-- Diagram_diagram_inv_is_retraction&#45;&gt;Diagram_diagram_comp -->
<g id="edge12" class="edge">
<title>Diagram_diagram_inv_is_retraction&#45;&gt;Diagram_diagram_comp</title>
<path fill="none" stroke="black" d="M432.84,-1192.99C347.96,-1142.99 173.24,-1022.25 241,-908.78 330.56,-758.8 541.19,-691.17 650.11,-665.34"/>
<polygon fill="black" stroke="black" points="651.06,-668.72 660.01,-663.05 649.47,-661.9 651.06,-668.72"/>
</g>
<!-- Diagram_diagram_inv_is_retraction&#45;&gt;Diagram_diagram_idmap -->
<g id="edge13" class="edge">
<title>Diagram_diagram_inv_is_retraction&#45;&gt;Diagram_diagram_idmap</title>
<path fill="none" stroke="black" d="M574.55,-1199.43C702.84,-1171.67 925.43,-1105 1051,-960.78 1066.79,-942.64 1049.39,-926.18 1066,-908.78 1116.38,-855.99 1595.3,-716.18 1763.75,-668.21"/>
<polygon fill="black" stroke="black" points="1764.78,-671.55 1773.44,-665.45 1762.87,-664.82 1764.78,-671.55"/>
</g>
<!-- Diagram_path_DiagramMap -->
<g id="node17" class="node">
<title>Diagram_path_DiagramMap</title>
<g id="a_node17"><a xlink:href="Diagram.html#path_DiagramMap" xlink:title="path_DiagramMap">
<ellipse fill="#f070d1" stroke="black" cx="347" cy="-934.78" rx="96.68" ry="18"/>
<text text-anchor="middle" x="347" y="-931.08" font-family="Times,serif" font-size="14.00">path_DiagramMap</text>
</a>
</g>
</g>
<!-- Diagram_diagram_inv_is_retraction&#45;&gt;Diagram_path_DiagramMap -->
<g id="edge14" class="edge">
<title>Diagram_diagram_inv_is_retraction&#45;&gt;Diagram_path_DiagramMap</title>
<path fill="none" stroke="black" d="M464.55,-1191.84C440.29,-1138.99 383.88,-1016.12 359.08,-962.08"/>
<polygon fill="black" stroke="black" points="362.18,-960.45 354.83,-952.83 355.82,-963.37 362.18,-960.45"/>
</g>
<!-- Diagram_diagram_inv_is_section -->
<g id="node5" class="node">
<title>Diagram_diagram_inv_is_section</title>
<g id="a_node5"><a xlink:href="Diagram.html#diagram_inv_is_section" xlink:title="diagram_inv_is_section">
<ellipse fill="#f070d1" stroke="black" cx="758" cy="-1217.78" rx="117.77" ry="18"/>
<ellipse fill="none" stroke="black" cx="758" cy="-1217.78" rx="121.77" ry="22"/>
<ellipse fill="none" stroke="black" cx="758" cy="-1217.78" rx="125.78" ry="26"/>
<text text-anchor="middle" x="758" y="-1214.08" font-family="Times,serif" font-size="14.00">diagram_inv_is_section</text>
</a>
</g>
</g>
<!-- Diagram_diagram_inv_is_section&#45;&gt;Diagram_diagram_equiv_inv -->
<g id="edge15" class="edge">
<title>Diagram_diagram_inv_is_section&#45;&gt;Diagram_diagram_equiv_inv</title>
<path fill="none" stroke="black" d="M740.34,-1191.84C702.68,-1138.66 614.81,-1014.59 576.92,-961.08"/>
<polygon fill="black" stroke="black" points="579.71,-958.96 571.07,-952.83 574,-963.01 579.71,-958.96"/>
</g>
<!-- Diagram_diagram_inv_is_section&#45;&gt;Diagram_Build_diagram_equiv -->
<g id="edge16" class="edge">
<title>Diagram_diagram_inv_is_section&#45;&gt;Diagram_Build_diagram_equiv</title>
<path fill="none" stroke="black" d="M879.08,-1210.83C1299.78,-1188.92 2679.41,-1106.43 2808,-960.78 2823.3,-943.45 2818.54,-929.35 2808,-908.78 2743.61,-783.08 2585.96,-704.88 2503.38,-671.14"/>
<polygon fill="black" stroke="black" points="2504.52,-667.83 2493.94,-667.34 2501.91,-674.32 2504.52,-667.83"/>
</g>
<!-- Diagram_diagram_inv_is_section&#45;&gt;Diagram_diagram_comp -->
<g id="edge17" class="edge">
<title>Diagram_diagram_inv_is_section&#45;&gt;Diagram_diagram_comp</title>
<path fill="none" stroke="black" d="M748.37,-1191.85C731.48,-1146.64 697.16,-1047.74 685,-960.78 670.47,-856.84 697.08,-732.44 710.69,-678.69"/>
<polygon fill="black" stroke="black" points="714.11,-679.47 713.23,-668.91 707.33,-677.71 714.11,-679.47"/>
</g>
<!-- Diagram_diagram_inv_is_section&#45;&gt;Diagram_diagram_idmap -->
<g id="edge18" class="edge">
<title>Diagram_diagram_inv_is_section&#45;&gt;Diagram_diagram_idmap</title>
<path fill="none" stroke="black" d="M796.39,-1192.86C859.55,-1151.91 986.32,-1062.87 1066,-960.78 1081.78,-940.56 1071.9,-925.89 1091,-908.78 1143.76,-861.53 1604.39,-718.1 1766.14,-668.71"/>
<polygon fill="black" stroke="black" points="1767.36,-672 1775.9,-665.73 1765.31,-665.3 1767.36,-672"/>
</g>
<!-- Diagram_diagram_inv_is_section&#45;&gt;Diagram_path_DiagramMap -->
<g id="edge19" class="edge">
<title>Diagram_diagram_inv_is_section&#45;&gt;Diagram_path_DiagramMap</title>
<path fill="none" stroke="black" d="M722.6,-1192.58C644.02,-1138.85 455.94,-1010.26 379.82,-958.21"/>
<polygon fill="black" stroke="black" points="381.33,-955.01 371.1,-952.26 377.38,-960.79 381.33,-955.01"/>
</g>
<!-- Diagram_diagram_equiv_inv&#45;&gt;Diagram_diagram_equiv -->
<g id="edge20" class="edge">
<title>Diagram_diagram_equiv_inv&#45;&gt;Diagram_diagram_equiv</title>
<path fill="none" stroke="black" d="M621.73,-920.89C641.9,-916.86 664.37,-912.5 685,-908.78 1316.9,-794.72 1484.23,-816.3 2111,-676.78 2121.8,-674.37 2133.24,-671.43 2144.17,-668.41"/>
<polygon fill="black" stroke="black" points="2145.36,-671.71 2154.04,-665.63 2143.46,-664.97 2145.36,-671.71"/>
</g>
<!-- Diagram_DiagramMap_comm -->
<g id="node20" class="node">
<title>Diagram_DiagramMap_comm</title>
<g id="a_node20"><a xlink:href="Diagram.html#DiagramMap_comm" xlink:title="DiagramMap_comm">
<ellipse fill="#f070d1" stroke="black" cx="1357" cy="-650.78" rx="103.18" ry="18"/>
<text text-anchor="middle" x="1357" y="-647.08" font-family="Times,serif" font-size="14.00">DiagramMap_comm</text>
</a>
</g>
</g>
<!-- Diagram_diagram_equiv_inv&#45;&gt;Diagram_DiagramMap_comm -->
<g id="edge21" class="edge">
<title>Diagram_diagram_equiv_inv&#45;&gt;Diagram_DiagramMap_comm</title>
<path fill="none" stroke="black" d="M602.19,-918.52C737.79,-870.6 1154.88,-723.2 1303.62,-670.64"/>
<polygon fill="black" stroke="black" points="1305.18,-673.8 1313.44,-667.17 1302.85,-667.2 1305.18,-673.8"/>
</g>
<!-- Diagram_Build_DiagramMap -->
<g id="node26" class="node">
<title>Diagram_Build_DiagramMap</title>
<g id="a_node26"><a xlink:href="Diagram.html#Build_DiagramMap" xlink:title="Build_DiagramMap">
<ellipse fill="#7faaff" stroke="black" cx="1024" cy="-367.78" rx="100.18" ry="18"/>
<text text-anchor="middle" x="1024" y="-364.08" font-family="Times,serif" font-size="14.00">Build_DiagramMap</text>
</a>
</g>
</g>
<!-- Diagram_diagram_equiv_inv&#45;&gt;Diagram_Build_DiagramMap -->
<g id="edge22" class="edge">
<title>Diagram_diagram_equiv_inv&#45;&gt;Diagram_Build_DiagramMap</title>
<path fill="none" stroke="black" d="M561.22,-916.67C568.93,-859.12 596.01,-673.38 630,-624.78 716.98,-500.38 885.68,-421.57 971.35,-387.8"/>
<polygon fill="black" stroke="black" points="972.82,-390.98 980.87,-384.1 970.28,-384.46 972.82,-390.98"/>
</g>
<!-- Diagram_arr -->
<g id="node30" class="node">
<title>Diagram_arr</title>
<g id="a_node30"><a xlink:href="Diagram.html#arr" xlink:title="arr">
<ellipse fill="#f070d1" stroke="black" cx="879" cy="-367.78" rx="27" ry="18"/>
<text text-anchor="middle" x="879" y="-364.08" font-family="Times,serif" font-size="14.00">arr</text>
</a>
</g>
</g>
<!-- Diagram_diagram_equiv_inv&#45;&gt;Diagram_arr -->
<g id="edge23" class="edge">
<title>Diagram_diagram_equiv_inv&#45;&gt;Diagram_arr</title>
<path fill="none" stroke="black" d="M536.2,-917.11C475.06,-870.36 316.56,-734.21 384,-624.78 503.81,-430.35 646.72,-510.53 843,-393.78 846.27,-391.84 849.63,-389.7 852.92,-387.52"/>
<polygon fill="black" stroke="black" points="855.09,-390.28 861.38,-381.75 851.15,-384.49 855.09,-390.28"/>
</g>
<!-- Diagram_diag_equiv_isequiv -->
<g id="node7" class="node">
<title>Diagram_diag_equiv_isequiv</title>
<g id="a_node7"><a xlink:href="Diagram.html#diag_equiv_isequiv" xlink:title="diag_equiv_isequiv">
<ellipse fill="#f070d1" stroke="black" cx="1496" cy="-934.78" rx="98.27" ry="18"/>
<ellipse fill="none" stroke="black" cx="1496" cy="-934.78" rx="102.28" ry="22"/>
<ellipse fill="none" stroke="black" cx="1496" cy="-934.78" rx="106.28" ry="26"/>
<text text-anchor="middle" x="1496" y="-931.08" font-family="Times,serif" font-size="14.00">diag_equiv_isequiv</text>
</a>
</g>
</g>
<!-- Diagram_diag_equiv_isequiv&#45;&gt;Diagram_diagram_equiv -->
<g id="edge24" class="edge">
<title>Diagram_diag_equiv_isequiv&#45;&gt;Diagram_diagram_equiv</title>
<path fill="none" stroke="black" d="M1549.71,-912.24C1682.97,-858.78 2027.06,-720.75 2152.43,-670.46"/>
<polygon fill="black" stroke="black" points="2153.79,-673.68 2161.77,-666.71 2151.19,-667.19 2153.79,-673.68"/>
</g>
<!-- Diagram_diag_equiv_map -->
<g id="node8" class="node">
<title>Diagram_diag_equiv_map</title>
<g id="a_node8"><a xlink:href="Diagram.html#diag_equiv_map" xlink:title="diag_equiv_map">
<ellipse fill="#f070d1" stroke="black" cx="1713" cy="-934.78" rx="85.27" ry="18"/>
<ellipse fill="none" stroke="black" cx="1713" cy="-934.78" rx="89.28" ry="22"/>
<ellipse fill="none" stroke="black" cx="1713" cy="-934.78" rx="93.29" ry="26"/>
<text text-anchor="middle" x="1713" y="-931.08" font-family="Times,serif" font-size="14.00">diag_equiv_map</text>
</a>
</g>
</g>
<!-- Diagram_diag_equiv_map&#45;&gt;Diagram_diagram_equiv -->
<g id="edge25" class="edge">
<title>Diagram_diag_equiv_map&#45;&gt;Diagram_diagram_equiv</title>
<path fill="none" stroke="black" d="M1752.36,-910.94C1844.66,-857.38 2073.97,-724.33 2162.92,-672.71"/>
<polygon fill="black" stroke="black" points="2164.69,-675.74 2171.58,-667.69 2161.17,-669.68 2164.69,-675.74"/>
</g>
<!-- Diagram_diagram_equiv_sind -->
<g id="node9" class="node">
<title>Diagram_diagram_equiv_sind</title>
<g id="a_node9"><a xlink:href="Diagram.html#diagram_equiv_sind" xlink:title="diagram_equiv_sind">
<ellipse fill="#f070d1" stroke="black" cx="2216" cy="-934.78" rx="102.87" ry="18"/>
<ellipse fill="none" stroke="black" cx="2216" cy="-934.78" rx="106.88" ry="22"/>
<ellipse fill="none" stroke="black" cx="2216" cy="-934.78" rx="110.88" ry="26"/>
<text text-anchor="middle" x="2216" y="-931.08" font-family="Times,serif" font-size="14.00">diagram_equiv_sind</text>
</a>
</g>
</g>
<!-- Diagram_diagram_equiv_sind&#45;&gt;Diagram_Build_diagram_equiv -->
<g id="edge26" class="edge">
<title>Diagram_diagram_equiv_sind&#45;&gt;Diagram_Build_diagram_equiv</title>
<path fill="none" stroke="black" d="M2236.85,-908.75C2281.42,-855.27 2385.52,-730.36 2430.12,-676.84"/>
<polygon fill="black" stroke="black" points="2433.03,-678.81 2436.74,-668.89 2427.65,-674.33 2433.03,-678.81"/>
</g>
<!-- Diagram_diagram_equiv_sind&#45;&gt;Diagram_diagram_equiv -->
<g id="edge27" class="edge">
<title>Diagram_diagram_equiv_sind&#45;&gt;Diagram_diagram_equiv</title>
<path fill="none" stroke="black" d="M2214.49,-908.75C2211.31,-856.04 2203.95,-733.94 2200.65,-679.2"/>
<polygon fill="black" stroke="black" points="2204.13,-678.66 2200.03,-668.89 2197.14,-679.08 2204.13,-678.66"/>
</g>
<!-- Diagram_diagram_equiv_rec -->
<g id="node10" class="node">
<title>Diagram_diagram_equiv_rec</title>
<g id="a_node10"><a xlink:href="Diagram.html#diagram_equiv_rec" xlink:title="diagram_equiv_rec">
<ellipse fill="#f070d1" stroke="black" cx="2697" cy="-1217.78" rx="98.27" ry="18"/>
<ellipse fill="none" stroke="black" cx="2697" cy="-1217.78" rx="102.28" ry="22"/>
<ellipse fill="none" stroke="black" cx="2697" cy="-1217.78" rx="106.28" ry="26"/>
<text text-anchor="middle" x="2697" y="-1214.08" font-family="Times,serif" font-size="14.00">diagram_equiv_rec</text>
</a>
</g>
</g>
<!-- Diagram_diagram_equiv_rect -->
<g id="node12" class="node">
<title>Diagram_diagram_equiv_rect</title>
<g id="a_node12"><a xlink:href="Diagram.html#diagram_equiv_rect" xlink:title="diagram_equiv_rect">
<ellipse fill="#f070d1" stroke="black" cx="2697" cy="-934.78" rx="102.08" ry="18"/>
<text text-anchor="middle" x="2697" y="-931.08" font-family="Times,serif" font-size="14.00">diagram_equiv_rect</text>
</a>
</g>
</g>
<!-- Diagram_diagram_equiv_rec&#45;&gt;Diagram_diagram_equiv_rect -->
<g id="edge28" class="edge">
<title>Diagram_diagram_equiv_rec&#45;&gt;Diagram_diagram_equiv_rect</title>
<path fill="none" stroke="black" d="M2697,-1191.35C2697,-1138.64 2697,-1017.88 2697,-963.37"/>
<polygon fill="black" stroke="black" points="2700.5,-963.09 2697,-953.09 2693.5,-963.09 2700.5,-963.09"/>
</g>
<!-- Diagram_diagram_equiv_ind -->
<g id="node11" class="node">
<title>Diagram_diagram_equiv_ind</title>
<g id="a_node11"><a xlink:href="Diagram.html#diagram_equiv_ind" xlink:title="diagram_equiv_ind">
<ellipse fill="#7fffd4" stroke="black" cx="2451" cy="-934.78" rx="98.27" ry="18"/>
<ellipse fill="none" stroke="black" cx="2451" cy="-934.78" rx="102.28" ry="22"/>
<ellipse fill="none" stroke="black" cx="2451" cy="-934.78" rx="106.28" ry="26"/>
<text text-anchor="middle" x="2451" y="-931.08" font-family="Times,serif" font-size="14.00">diagram_equiv_ind</text>
</a>
</g>
</g>
<!-- Diagram_diagram_equiv_ind&#45;&gt;Diagram_Build_diagram_equiv -->
<g id="edge29" class="edge">
<title>Diagram_diagram_equiv_ind&#45;&gt;Diagram_Build_diagram_equiv</title>
<path fill="none" stroke="black" d="M2451,-908.75C2451,-856.04 2451,-733.94 2451,-679.2"/>
<polygon fill="black" stroke="black" points="2454.5,-678.89 2451,-668.89 2447.5,-678.89 2454.5,-678.89"/>
</g>
<!-- Diagram_diagram_equiv_ind&#45;&gt;Diagram_diagram_equiv -->
<g id="edge30" class="edge">
<title>Diagram_diagram_equiv_ind&#45;&gt;Diagram_diagram_equiv</title>
<path fill="none" stroke="black" d="M2429.08,-909.25C2381.35,-855.84 2268.52,-729.58 2220.86,-676.24"/>
<polygon fill="black" stroke="black" points="2223.32,-673.74 2214.05,-668.62 2218.1,-678.41 2223.32,-673.74"/>
</g>
<!-- Diagram_diagram_equiv_rect&#45;&gt;Diagram_Build_diagram_equiv -->
<g id="edge31" class="edge">
<title>Diagram_diagram_equiv_rect&#45;&gt;Diagram_Build_diagram_equiv</title>
<path fill="none" stroke="black" d="M2681.98,-916.56C2640.02,-868.46 2521.44,-732.53 2472.52,-676.44"/>
<polygon fill="black" stroke="black" points="2475.03,-674 2465.82,-668.77 2469.76,-678.61 2475.03,-674"/>
</g>
<!-- Diagram_diagram_equiv_rect&#45;&gt;Diagram_diagram_equiv -->
<g id="edge32" class="edge">
<title>Diagram_diagram_equiv_rect&#45;&gt;Diagram_diagram_equiv</title>
<path fill="none" stroke="black" d="M2668.07,-917.4C2582.59,-868.99 2331.19,-726.63 2236.05,-672.76"/>
<polygon fill="black" stroke="black" points="2237.5,-669.56 2227.08,-667.68 2234.06,-675.65 2237.5,-669.56"/>
</g>
<!-- Diagram_DiagramMap -->
<g id="node27" class="node">
<title>Diagram_DiagramMap</title>
<g id="a_node27"><a xlink:href="Diagram.html#DiagramMap" xlink:title="DiagramMap">
<ellipse fill="#e2cdfa" stroke="black" cx="1357" cy="-367.78" rx="71.49" ry="18"/>
<text text-anchor="middle" x="1357" y="-364.08" font-family="Times,serif" font-size="14.00">DiagramMap</text>
</a>
</g>
</g>
<!-- Diagram_Build_diagram_equiv&#45;&gt;Diagram_DiagramMap -->
<g id="edge33" class="edge">
<title>Diagram_Build_diagram_equiv&#45;&gt;Diagram_DiagramMap</title>
<path fill="none" stroke="black" d="M2394.87,-635.36C2207.58,-587.26 1605.31,-432.56 1415.12,-383.71"/>
<polygon fill="black" stroke="black" points="1415.87,-380.29 1405.31,-381.19 1414.13,-387.07 1415.87,-380.29"/>
</g>
<!-- Diagram_diagram_equiv&#45;&gt;Diagram_DiagramMap -->
<g id="edge34" class="edge">
<title>Diagram_diagram_equiv&#45;&gt;Diagram_DiagramMap</title>
<path fill="none" stroke="black" d="M2156.38,-635.55C2014.9,-588.34 1561.15,-436.91 1408.02,-385.81"/>
<polygon fill="black" stroke="black" points="1408.97,-382.43 1398.38,-382.59 1406.75,-389.07 1408.97,-382.43"/>
</g>
<!-- Diagram_diagram_comp&#45;&gt;Diagram_Build_DiagramMap -->
<g id="edge35" class="edge">
<title>Diagram_diagram_comp&#45;&gt;Diagram_Build_DiagramMap</title>
<path fill="none" stroke="black" d="M736.23,-633.04C788.19,-585.32 937.23,-448.46 997.87,-392.78"/>
<polygon fill="black" stroke="black" points="1000.49,-395.12 1005.48,-385.78 995.75,-389.97 1000.49,-395.12"/>
</g>
<!-- Diagram_diagram_comp&#45;&gt;Diagram_DiagramMap -->
<g id="edge36" class="edge">
<title>Diagram_diagram_comp&#45;&gt;Diagram_DiagramMap</title>
<path fill="none" stroke="black" d="M752.81,-634.47C861.46,-586.69 1194.21,-440.36 1313.71,-387.82"/>
<polygon fill="black" stroke="black" points="1315.19,-390.99 1322.94,-383.76 1312.37,-384.58 1315.19,-390.99"/>
</g>
<!-- Diagram_diagram_idmap&#45;&gt;Diagram_Build_DiagramMap -->
<g id="edge37" class="edge">
<title>Diagram_diagram_idmap&#45;&gt;Diagram_Build_DiagramMap</title>
<path fill="none" stroke="black" d="M1780.5,-635.16C1646.65,-588.03 1226.4,-440.05 1077.2,-387.51"/>
<polygon fill="black" stroke="black" points="1077.94,-384.06 1067.35,-384.04 1075.62,-390.67 1077.94,-384.06"/>
</g>
<!-- Diagram_diagram_idmap&#45;&gt;Diagram_DiagramMap -->
<g id="edge38" class="edge">
<title>Diagram_diagram_idmap&#45;&gt;Diagram_DiagramMap</title>
<path fill="none" stroke="black" d="M1795.33,-633.66C1715.94,-585.69 1481.16,-443.81 1391.94,-389.89"/>
<polygon fill="black" stroke="black" points="1393.64,-386.83 1383.27,-384.66 1390.02,-392.82 1393.64,-386.83"/>
</g>
<!-- Diagram_DiagramMap_homotopy -->
<g id="node19" class="node">
<title>Diagram_DiagramMap_homotopy</title>
<g id="a_node19"><a xlink:href="Diagram.html#DiagramMap_homotopy" xlink:title="DiagramMap_homotopy">
<ellipse fill="#f070d1" stroke="black" cx="1600" cy="-650.78" rx="121.58" ry="18"/>
<text text-anchor="middle" x="1600" y="-647.08" font-family="Times,serif" font-size="14.00">DiagramMap_homotopy</text>
</a>
</g>
</g>
<!-- Diagram_path_DiagramMap&#45;&gt;Diagram_DiagramMap_homotopy -->
<g id="edge39" class="edge">
<title>Diagram_path_DiagramMap&#45;&gt;Diagram_DiagramMap_homotopy</title>
<path fill="none" stroke="black" d="M404.19,-920.17C419.99,-916.44 437.15,-912.42 453,-908.78 857.24,-815.82 1342.64,-708.46 1525.49,-668.17"/>
<polygon fill="black" stroke="black" points="1526.26,-671.59 1535.27,-666.02 1524.75,-664.75 1526.26,-671.59"/>
</g>
<!-- Diagram_path_DiagramMap&#45;&gt;Diagram_Build_DiagramMap -->
<g id="edge40" class="edge">
<title>Diagram_path_DiagramMap&#45;&gt;Diagram_Build_DiagramMap</title>
<path fill="none" stroke="black" d="M368.27,-917.21C415.18,-879.57 528.29,-782.6 590,-676.78 602.18,-655.89 591.18,-643.88 606,-624.78 703.27,-499.42 880.59,-420.87 969.75,-387.44"/>
<polygon fill="black" stroke="black" points="970.98,-390.72 979.14,-383.96 968.55,-384.15 970.98,-390.72"/>
</g>
<!-- Diagram_reflexive_DiagramMap_homotopy -->
<g id="node18" class="node">
<title>Diagram_reflexive_DiagramMap_homotopy</title>
<g id="a_node18"><a xlink:href="Diagram.html#reflexive_DiagramMap_homotopy" xlink:title="reflexive_DiagramMap_homotopy">
<ellipse fill="#f070d1" stroke="black" cx="868" cy="-934.78" rx="165.96" ry="18"/>
<ellipse fill="none" stroke="black" cx="868" cy="-934.78" rx="169.97" ry="22"/>
<ellipse fill="none" stroke="black" cx="868" cy="-934.78" rx="173.97" ry="26"/>
<text text-anchor="middle" x="868" y="-931.08" font-family="Times,serif" font-size="14.00">reflexive_DiagramMap_homotopy</text>
</a>
</g>
</g>
<!-- Diagram_reflexive_DiagramMap_homotopy&#45;&gt;Diagram_DiagramMap_homotopy -->
<g id="edge41" class="edge">
<title>Diagram_reflexive_DiagramMap_homotopy&#45;&gt;Diagram_DiagramMap_homotopy</title>
<path fill="none" stroke="black" d="M928.84,-910.34C1070.08,-855.93 1418.13,-721.84 1549.08,-671.4"/>
<polygon fill="black" stroke="black" points="1550.42,-674.63 1558.5,-667.77 1547.91,-668.1 1550.42,-674.63"/>
</g>
<!-- Diagram_DiagramMap_homotopy&#45;&gt;Diagram_DiagramMap -->
<g id="edge42" class="edge">
<title>Diagram_DiagramMap_homotopy&#45;&gt;Diagram_DiagramMap</title>
<path fill="none" stroke="black" d="M1585.17,-632.62C1543.72,-584.7 1426.58,-449.24 1378.25,-393.36"/>
<polygon fill="black" stroke="black" points="1380.83,-390.98 1371.64,-385.71 1375.53,-395.56 1380.83,-390.98"/>
</g>
<!-- Diagram_DiagramMap_comm&#45;&gt;Diagram_DiagramMap -->
<g id="edge43" class="edge">
<title>Diagram_DiagramMap_comm&#45;&gt;Diagram_DiagramMap</title>
<path fill="none" stroke="black" d="M1357,-632.62C1357,-585.5 1357,-453.74 1357,-396.22"/>
<polygon fill="black" stroke="black" points="1360.5,-396.07 1357,-386.07 1353.5,-396.07 1360.5,-396.07"/>
</g>
<!-- Diagram_DiagramMap_obj&#45;&gt;Diagram_DiagramMap -->
<g id="edge44" class="edge">
<title>Diagram_DiagramMap_obj&#45;&gt;Diagram_DiagramMap</title>
<path fill="none" stroke="black" d="M1975.85,-634.27C1863.83,-586.21 1522.72,-439.87 1400.86,-387.59"/>
<polygon fill="black" stroke="black" points="1402.02,-384.28 1391.45,-383.56 1399.26,-390.72 1402.02,-384.28"/>
</g>
<!-- Diagram_DiagramMap_sind -->
<g id="node22" class="node">
<title>Diagram_DiagramMap_sind</title>
<g id="a_node22"><a xlink:href="Diagram.html#DiagramMap_sind" xlink:title="DiagramMap_sind">
<ellipse fill="#f070d1" stroke="black" cx="918" cy="-650.78" rx="94.79" ry="18"/>
<ellipse fill="none" stroke="black" cx="918" cy="-650.78" rx="98.79" ry="22"/>
<ellipse fill="none" stroke="black" cx="918" cy="-650.78" rx="102.78" ry="26"/>
<text text-anchor="middle" x="918" y="-647.08" font-family="Times,serif" font-size="14.00">DiagramMap_sind</text>
</a>
</g>
</g>
<!-- Diagram_DiagramMap_sind&#45;&gt;Diagram_Build_DiagramMap -->
<g id="edge45" class="edge">
<title>Diagram_DiagramMap_sind&#45;&gt;Diagram_Build_DiagramMap</title>
<path fill="none" stroke="black" d="M927.41,-624.84C947.3,-572.1 993.5,-449.63 1013.95,-395.42"/>
<polygon fill="black" stroke="black" points="1017.31,-396.42 1017.57,-385.83 1010.77,-393.95 1017.31,-396.42"/>
</g>
<!-- Diagram_DiagramMap_sind&#45;&gt;Diagram_DiagramMap -->
<g id="edge46" class="edge">
<title>Diagram_DiagramMap_sind&#45;&gt;Diagram_DiagramMap</title>
<path fill="none" stroke="black" d="M954.67,-626.3C1038.41,-572.71 1242.64,-441.98 1323.37,-390.31"/>
<polygon fill="black" stroke="black" points="1325.6,-393.03 1332.14,-384.69 1321.83,-387.14 1325.6,-393.03"/>
</g>
<!-- Diagram_DiagramMap_rec -->
<g id="node23" class="node">
<title>Diagram_DiagramMap_rec</title>
<g id="a_node23"><a xlink:href="Diagram.html#DiagramMap_rec" xlink:title="DiagramMap_rec">
<ellipse fill="#f070d1" stroke="black" cx="114" cy="-934.78" rx="90.2" ry="18"/>
<ellipse fill="none" stroke="black" cx="114" cy="-934.78" rx="94.19" ry="22"/>
<ellipse fill="none" stroke="black" cx="114" cy="-934.78" rx="98.18" ry="26"/>
<text text-anchor="middle" x="114" y="-931.08" font-family="Times,serif" font-size="14.00">DiagramMap_rec</text>
</a>
</g>
</g>
<!-- Diagram_DiagramMap_rect -->
<g id="node25" class="node">
<title>Diagram_DiagramMap_rect</title>
<g id="a_node25"><a xlink:href="Diagram.html#DiagramMap_rect" xlink:title="DiagramMap_rect">
<ellipse fill="#f070d1" stroke="black" cx="487" cy="-650.78" rx="94.48" ry="18"/>
<text text-anchor="middle" x="487" y="-647.08" font-family="Times,serif" font-size="14.00">DiagramMap_rect</text>
</a>
</g>
</g>
<!-- Diagram_DiagramMap_rec&#45;&gt;Diagram_DiagramMap_rect -->
<g id="edge47" class="edge">
<title>Diagram_DiagramMap_rec&#45;&gt;Diagram_DiagramMap_rect</title>
<path fill="none" stroke="black" d="M145.48,-909.98C216.22,-856.5 387.01,-727.37 456.66,-674.72"/>
<polygon fill="black" stroke="black" points="459.16,-677.21 465.03,-668.39 454.94,-671.63 459.16,-677.21"/>
</g>
<!-- Diagram_DiagramMap_ind -->
<g id="node24" class="node">
<title>Diagram_DiagramMap_ind</title>
<g id="a_node24"><a xlink:href="Diagram.html#DiagramMap_ind" xlink:title="DiagramMap_ind">
<ellipse fill="#7fffd4" stroke="black" cx="1137" cy="-650.78" rx="90.2" ry="18"/>
<ellipse fill="none" stroke="black" cx="1137" cy="-650.78" rx="94.19" ry="22"/>
<ellipse fill="none" stroke="black" cx="1137" cy="-650.78" rx="98.18" ry="26"/>
<text text-anchor="middle" x="1137" y="-647.08" font-family="Times,serif" font-size="14.00">DiagramMap_ind</text>
</a>
</g>
</g>
<!-- Diagram_DiagramMap_ind&#45;&gt;Diagram_Build_DiagramMap -->
<g id="edge48" class="edge">
<title>Diagram_DiagramMap_ind&#45;&gt;Diagram_Build_DiagramMap</title>
<path fill="none" stroke="black" d="M1126.97,-624.84C1105.76,-572.1 1056.51,-449.63 1034.71,-395.42"/>
<polygon fill="black" stroke="black" points="1037.83,-393.8 1030.85,-385.83 1031.34,-396.41 1037.83,-393.8"/>
</g>
<!-- Diagram_DiagramMap_ind&#45;&gt;Diagram_DiagramMap -->
<g id="edge49" class="edge">
<title>Diagram_DiagramMap_ind&#45;&gt;Diagram_DiagramMap</title>
<path fill="none" stroke="black" d="M1156.52,-624.84C1198.35,-571.42 1296.17,-446.48 1337.75,-393.37"/>
<polygon fill="black" stroke="black" points="1340.51,-395.52 1343.92,-385.48 1335,-391.2 1340.51,-395.52"/>
</g>
<!-- Diagram_DiagramMap_rect&#45;&gt;Diagram_Build_DiagramMap -->
<g id="edge50" class="edge">
<title>Diagram_DiagramMap_rect&#45;&gt;Diagram_Build_DiagramMap</title>
<path fill="none" stroke="black" d="M517.8,-633.66C609.54,-585.66 880.98,-443.62 983.86,-389.78"/>
<polygon fill="black" stroke="black" points="985.75,-392.74 992.99,-385.01 982.51,-386.54 985.75,-392.74"/>
</g>
<!-- Diagram_DiagramMap_rect&#45;&gt;Diagram_DiagramMap -->
<g id="edge51" class="edge">
<title>Diagram_DiagramMap_rect&#45;&gt;Diagram_DiagramMap</title>
<path fill="none" stroke="black" d="M532.85,-634.97C681.26,-587.04 1147.92,-436.31 1304.89,-385.61"/>
<polygon fill="black" stroke="black" points="1306.34,-388.82 1314.78,-382.42 1304.19,-382.16 1306.34,-388.82"/>
</g>
<!-- Diagram_Diagram -->
<g id="node37" class="node">
<title>Diagram_Diagram</title>
<g id="a_node37"><a xlink:href="Diagram.html#Diagram" xlink:title="Diagram">
<ellipse fill="#e2cdfa" stroke="black" cx="720" cy="-109.78" rx="50.89" ry="18"/>
<text text-anchor="middle" x="720" y="-106.08" font-family="Times,serif" font-size="14.00">Diagram</text>
</a>
</g>
</g>
<!-- Diagram_Build_DiagramMap&#45;&gt;Diagram_Diagram -->
<g id="edge52" class="edge">
<title>Diagram_Build_DiagramMap&#45;&gt;Diagram_Diagram</title>
<path fill="none" stroke="black" d="M1004.05,-349.98C951.07,-305.36 806.75,-183.83 746.74,-133.29"/>
<polygon fill="black" stroke="black" points="748.75,-130.41 738.84,-126.65 744.24,-135.77 748.75,-130.41"/>
</g>
<!-- Diagram_DiagramMap&#45;&gt;Diagram_Diagram -->
<g id="edge53" class="edge">
<title>Diagram_DiagramMap&#45;&gt;Diagram_Diagram</title>
<path fill="none" stroke="black" d="M1320.46,-352.1C1209.77,-307.61 878.52,-174.48 761.5,-127.46"/>
<polygon fill="black" stroke="black" points="762.73,-124.18 752.15,-123.7 760.12,-130.68 762.73,-124.18"/>
</g>
<!-- Diagram_path_diagram -->
<g id="node28" class="node">
<title>Diagram_path_diagram</title>
<g id="a_node28"><a xlink:href="Diagram.html#path_diagram" xlink:title="path_diagram">
<ellipse fill="#f070d1" stroke="black" cx="272" cy="-650.78" rx="74.96" ry="18"/>
<ellipse fill="none" stroke="black" cx="272" cy="-650.78" rx="78.98" ry="22"/>
<ellipse fill="none" stroke="black" cx="272" cy="-650.78" rx="82.99" ry="26"/>
<text text-anchor="middle" x="272" y="-647.08" font-family="Times,serif" font-size="14.00">path_diagram</text>
</a>
</g>
</g>
<!-- Diagram_path_diagram_naive -->
<g id="node29" class="node">
<title>Diagram_path_diagram_naive</title>
<g id="a_node29"><a xlink:href="Diagram.html#path_diagram_naive" xlink:title="path_diagram_naive">
<ellipse fill="#f070d1" stroke="black" cx="642" cy="-367.78" rx="103.98" ry="18"/>
<text text-anchor="middle" x="642" y="-364.08" font-family="Times,serif" font-size="14.00">path_diagram_naive</text>
</a>
</g>
</g>
<!-- Diagram_path_diagram&#45;&gt;Diagram_path_diagram_naive -->
<g id="edge54" class="edge">
<title>Diagram_path_diagram&#45;&gt;Diagram_path_diagram_naive</title>
<path fill="none" stroke="black" d="M302.59,-626.54C372.33,-573.58 542.39,-444.43 611.77,-391.74"/>
<polygon fill="black" stroke="black" points="614.26,-394.24 620.11,-385.41 610.03,-388.67 614.26,-394.24"/>
</g>
<!-- Diagram_path_diagram&#45;&gt;Diagram_arr -->
<g id="edge55" class="edge">
<title>Diagram_path_diagram&#45;&gt;Diagram_arr</title>
<path fill="none" stroke="black" d="M323.57,-630.4C425.6,-591.25 659.26,-497.58 843,-393.78 846.31,-391.91 849.7,-389.82 853.01,-387.66"/>
<polygon fill="black" stroke="black" points="855.17,-390.43 861.48,-381.92 851.24,-384.63 855.17,-390.43"/>
</g>
<!-- Diagram_Build_Diagram -->
<g id="node36" class="node">
<title>Diagram_Build_Diagram</title>
<g id="a_node36"><a xlink:href="Diagram.html#Build_Diagram" xlink:title="Build_Diagram">
<ellipse fill="#7faaff" stroke="black" cx="350" cy="-109.78" rx="79.09" ry="18"/>
<text text-anchor="middle" x="350" y="-106.08" font-family="Times,serif" font-size="14.00">Build_Diagram</text>
</a>
</g>
</g>
<!-- Diagram_path_diagram_naive&#45;&gt;Diagram_Build_Diagram -->
<g id="edge56" class="edge">
<title>Diagram_path_diagram_naive&#45;&gt;Diagram_Build_Diagram</title>
<path fill="none" stroke="black" d="M622.84,-349.98C572.19,-305.57 434.64,-184.99 376.51,-134.02"/>
<polygon fill="black" stroke="black" points="378.68,-131.27 368.85,-127.3 374.06,-136.53 378.68,-131.27"/>
</g>
<!-- Diagram_path_diagram_naive&#45;&gt;Diagram_Diagram -->
<g id="edge57" class="edge">
<title>Diagram_path_diagram_naive&#45;&gt;Diagram_Diagram</title>
<path fill="none" stroke="black" d="M647.24,-349.58C660.56,-305.86 695.8,-190.19 711.84,-137.55"/>
<polygon fill="black" stroke="black" points="715.22,-138.48 714.78,-127.9 708.52,-136.44 715.22,-138.48"/>
</g>
<!-- Diagram_arr&#45;&gt;Diagram_Diagram -->
<g id="edge58" class="edge">
<title>Diagram_arr&#45;&gt;Diagram_Diagram</title>
<path fill="none" stroke="black" d="M869.05,-350.76C842.25,-307.6 768.32,-188.58 735.75,-136.14"/>
<polygon fill="black" stroke="black" points="738.6,-134.1 730.35,-127.45 732.66,-137.79 738.6,-134.1"/>
</g>
<!-- Diagram_obj -->
<g id="node31" class="node">
<title>Diagram_obj</title>
<g id="a_node31"><a xlink:href="Diagram.html#obj" xlink:title="obj">
<ellipse fill="#f070d1" stroke="black" cx="799" cy="-367.78" rx="27" ry="18"/>
<ellipse fill="none" stroke="black" cx="799" cy="-367.78" rx="31" ry="22"/>
<ellipse fill="none" stroke="black" cx="799" cy="-367.78" rx="35" ry="26"/>
<text text-anchor="middle" x="799" y="-364.08" font-family="Times,serif" font-size="14.00">obj</text>
</a>
</g>
</g>
<!-- Diagram_obj&#45;&gt;Diagram_Diagram -->
<g id="edge59" class="edge">
<title>Diagram_obj&#45;&gt;Diagram_Diagram</title>
<path fill="none" stroke="black" d="M791.43,-342.23C776.57,-294.1 743.72,-187.66 728.3,-137.68"/>
<polygon fill="black" stroke="black" points="731.58,-136.44 725.29,-127.92 724.89,-138.5 731.58,-136.44"/>
</g>
<!-- Diagram_Diagram_sind -->
<g id="node32" class="node">
<title>Diagram_Diagram_sind</title>
<g id="a_node32"><a xlink:href="Diagram.html#Diagram_sind" xlink:title="Diagram_sind">
<ellipse fill="#f070d1" stroke="black" cx="437" cy="-367.78" rx="74.96" ry="18"/>
<ellipse fill="none" stroke="black" cx="437" cy="-367.78" rx="78.98" ry="22"/>
<ellipse fill="none" stroke="black" cx="437" cy="-367.78" rx="82.99" ry="26"/>
<text text-anchor="middle" x="437" y="-364.08" font-family="Times,serif" font-size="14.00">Diagram_sind</text>
</a>
</g>
</g>
<!-- Diagram_Diagram_sind&#45;&gt;Diagram_Build_Diagram -->
<g id="edge60" class="edge">
<title>Diagram_Diagram_sind&#45;&gt;Diagram_Build_Diagram</title>
<path fill="none" stroke="black" d="M428.5,-341.77C412.05,-293.37 376.01,-187.33 359.1,-137.56"/>
<polygon fill="black" stroke="black" points="362.33,-136.18 355.8,-127.84 355.7,-138.43 362.33,-136.18"/>
</g>
<!-- Diagram_Diagram_sind&#45;&gt;Diagram_Diagram -->
<g id="edge61" class="edge">
<title>Diagram_Diagram_sind&#45;&gt;Diagram_Diagram</title>
<path fill="none" stroke="black" d="M463.37,-342.92C517.66,-293.81 641.31,-181.96 694.69,-133.67"/>
<polygon fill="black" stroke="black" points="697.27,-136.06 702.34,-126.76 692.57,-130.87 697.27,-136.06"/>
</g>
<!-- Diagram_Diagram_rec -->
<g id="node33" class="node">
<title>Diagram_Diagram_rec</title>
<g id="a_node33"><a xlink:href="Diagram.html#Diagram_rec" xlink:title="Diagram_rec">
<ellipse fill="#f070d1" stroke="black" cx="94" cy="-650.78" rx="69.58" ry="18"/>
<ellipse fill="none" stroke="black" cx="94" cy="-650.78" rx="73.59" ry="22"/>
<ellipse fill="none" stroke="black" cx="94" cy="-650.78" rx="77.59" ry="26"/>
<text text-anchor="middle" x="94" y="-647.08" font-family="Times,serif" font-size="14.00">Diagram_rec</text>
</a>
</g>
</g>
<!-- Diagram_Diagram_rect -->
<g id="node35" class="node">
<title>Diagram_Diagram_rect</title>
<g id="a_node35"><a xlink:href="Diagram.html#Diagram_rect" xlink:title="Diagram_rect">
<ellipse fill="#f070d1" stroke="black" cx="263" cy="-367.78" rx="73.39" ry="18"/>
<text text-anchor="middle" x="263" y="-364.08" font-family="Times,serif" font-size="14.00">Diagram_rect</text>
</a>
</g>
</g>
<!-- Diagram_Diagram_rec&#45;&gt;Diagram_Diagram_rect -->
<g id="edge62" class="edge">
<title>Diagram_Diagram_rec&#45;&gt;Diagram_Diagram_rect</title>
<path fill="none" stroke="black" d="M109,-624.84C140.92,-571.77 215.29,-448.1 247.58,-394.41"/>
<polygon fill="black" stroke="black" points="250.59,-396.2 252.75,-385.83 244.59,-392.59 250.59,-396.2"/>
</g>
<!-- Diagram_Diagram_ind -->
<g id="node34" class="node">
<title>Diagram_Diagram_ind</title>
<g id="a_node34"><a xlink:href="Diagram.html#Diagram_ind" xlink:title="Diagram_ind">
<ellipse fill="#7fffd4" stroke="black" cx="94" cy="-367.78" rx="69.58" ry="18"/>
<ellipse fill="none" stroke="black" cx="94" cy="-367.78" rx="73.59" ry="22"/>
<ellipse fill="none" stroke="black" cx="94" cy="-367.78" rx="77.59" ry="26"/>
<text text-anchor="middle" x="94" y="-364.08" font-family="Times,serif" font-size="14.00">Diagram_ind</text>
</a>
</g>
</g>
<!-- Diagram_Diagram_ind&#45;&gt;Diagram_Build_Diagram -->
<g id="edge63" class="edge">
<title>Diagram_Diagram_ind&#45;&gt;Diagram_Build_Diagram</title>
<path fill="none" stroke="black" d="M118.08,-342.69C166.88,-293.9 276.92,-183.86 325.8,-134.97"/>
<polygon fill="black" stroke="black" points="328.51,-137.22 333.11,-127.67 323.56,-132.27 328.51,-137.22"/>
</g>
<!-- Diagram_Diagram_ind&#45;&gt;Diagram_Diagram -->
<g id="edge64" class="edge">
<title>Diagram_Diagram_ind&#45;&gt;Diagram_Diagram</title>
<path fill="none" stroke="black" d="M141.82,-347.22C260.43,-298.72 566.58,-173.52 678.36,-127.81"/>
<polygon fill="black" stroke="black" points="680.01,-130.92 687.94,-123.89 677.36,-124.44 680.01,-130.92"/>
</g>
<!-- Diagram_Diagram_rect&#45;&gt;Diagram_Build_Diagram -->
<g id="edge65" class="edge">
<title>Diagram_Diagram_rect&#45;&gt;Diagram_Build_Diagram</title>
<path fill="none" stroke="black" d="M268.84,-349.58C283.7,-305.86 323.01,-190.19 340.9,-137.55"/>
<polygon fill="black" stroke="black" points="344.28,-138.49 344.18,-127.9 337.65,-136.24 344.28,-138.49"/>
</g>
<!-- Diagram_Diagram_rect&#45;&gt;Diagram_Diagram -->
<g id="edge66" class="edge">
<title>Diagram_Diagram_rect&#45;&gt;Diagram_Diagram</title>
<path fill="none" stroke="black" d="M291.24,-350.96C371.03,-306.26 597.96,-179.14 685.22,-130.26"/>
<polygon fill="black" stroke="black" points="686.94,-133.31 693.95,-125.37 683.52,-127.2 686.94,-133.31"/>
</g>
</g>
</svg>
