<?xml version="1.0" encoding="UTF-8" standalone="no"?>
<!DOCTYPE svg PUBLIC "-//W3C//DTD SVG 1.1//EN"
 "http://www.w3.org/Graphics/SVG/1.1/DTD/svg11.dtd">
<!-- Generated by graphviz version 2.43.0 (0)
 -->
<!-- Title: HoTT_Cubical_DPath Pages: 1 -->
<svg width="4253pt" height="2131pt"
 viewBox="0.00 0.00 4253.00 2130.50" xmlns="http://www.w3.org/2000/svg" xmlns:xlink="http://www.w3.org/1999/xlink">
<g id="graph0" class="graph" transform="scale(1 1) rotate(0) translate(4 2126.5)">
<title>HoTT_Cubical_DPath</title>
<polygon fill="white" stroke="transparent" points="-4,4 -4,-2126.5 4249,-2126.5 4249,4 -4,4"/>
<g id="clust1" class="cluster">
<title>cluster_DPath</title>
<polygon fill="#ffffc3" stroke="black" points="8,-47.83 8,-2074.67 4237,-2074.67 4237,-47.83 8,-47.83"/>
<text text-anchor="middle" x="38" y="-2059.47" font-family="Times,serif" font-size="14.00">DPath</text>
</g>
<!-- DPath_equiv_dp_sigma -->
<g id="node1" class="node">
<title>DPath_equiv_dp_sigma</title>
<g id="a_node1"><a xlink:href="DPath.html#equiv_dp_sigma" xlink:title="equiv_dp_sigma">
<ellipse fill="#f070d1" stroke="black" cx="3883" cy="-1207.83" rx="84.49" ry="18"/>
<ellipse fill="none" stroke="black" cx="3883" cy="-1207.83" rx="88.49" ry="22"/>
<ellipse fill="none" stroke="black" cx="3883" cy="-1207.83" rx="92.49" ry="26"/>
<text text-anchor="middle" x="3883" y="-1204.13" font-family="Times,serif" font-size="14.00">equiv_dp_sigma</text>
</a>
</g>
</g>
<!-- DPath_equiv_path_sigma_dp -->
<g id="node6" class="node">
<title>DPath_equiv_path_sigma_dp</title>
<g id="a_node6"><a xlink:href="DPath.html#equiv_path_sigma_dp" xlink:title="equiv_path_sigma_dp">
<ellipse fill="#f070d1" stroke="black" cx="3644" cy="-681.83" rx="109.68" ry="18"/>
<text text-anchor="middle" x="3644" y="-678.13" font-family="Times,serif" font-size="14.00">equiv_path_sigma_dp</text>
</a>
</g>
</g>
<!-- DPath_equiv_dp_sigma&#45;&gt;DPath_equiv_path_sigma_dp -->
<g id="edge1" class="edge">
<title>DPath_equiv_dp_sigma&#45;&gt;DPath_equiv_path_sigma_dp</title>
<path fill="none" stroke="black" d="M3871.63,-1181.91C3831.58,-1094.08 3697.17,-799.41 3656.05,-709.26"/>
<polygon fill="black" stroke="black" points="3659.17,-707.65 3651.83,-700 3652.8,-710.56 3659.17,-707.65"/>
</g>
<!-- DPath_equiv_dp_forall_domain -->
<g id="node2" class="node">
<title>DPath_equiv_dp_forall_domain</title>
<g id="a_node2"><a xlink:href="DPath.html#equiv_dp_forall_domain" xlink:title="equiv_dp_forall_domain">
<ellipse fill="#f070d1" stroke="black" cx="4101" cy="-681.83" rx="119.67" ry="18"/>
<ellipse fill="none" stroke="black" cx="4101" cy="-681.83" rx="123.68" ry="22"/>
<ellipse fill="none" stroke="black" cx="4101" cy="-681.83" rx="127.68" ry="26"/>
<text text-anchor="middle" x="4101" y="-678.13" font-family="Times,serif" font-size="14.00">equiv_dp_forall_domain</text>
</a>
</g>
</g>
<!-- DPath_DPath -->
<g id="node41" class="node">
<title>DPath_DPath</title>
<g id="a_node41"><a xlink:href="DPath.html#DPath" xlink:title="DPath">
<ellipse fill="#f070d1" stroke="black" cx="1730" cy="-202.83" rx="38.99" ry="18"/>
<text text-anchor="middle" x="1730" y="-199.13" font-family="Times,serif" font-size="14.00">DPath</text>
</a>
</g>
</g>
<!-- DPath_equiv_dp_forall_domain&#45;&gt;DPath_DPath -->
<g id="edge2" class="edge">
<title>DPath_equiv_dp_forall_domain&#45;&gt;DPath_DPath</title>
<path fill="none" stroke="black" d="M4012.38,-663C3621.87,-584.44 2061.32,-270.49 1775.19,-212.92"/>
<polygon fill="black" stroke="black" points="1775.66,-209.45 1765.17,-210.91 1774.28,-216.31 1775.66,-209.45"/>
</g>
<!-- DPath_equiv_dp_arrow -->
<g id="node3" class="node">
<title>DPath_equiv_dp_arrow</title>
<g id="a_node3"><a xlink:href="DPath.html#equiv_dp_arrow" xlink:title="equiv_dp_arrow">
<ellipse fill="#f070d1" stroke="black" cx="3864" cy="-681.83" rx="83.7" ry="18"/>
<ellipse fill="none" stroke="black" cx="3864" cy="-681.83" rx="87.69" ry="22"/>
<ellipse fill="none" stroke="black" cx="3864" cy="-681.83" rx="91.69" ry="26"/>
<text text-anchor="middle" x="3864" y="-678.13" font-family="Times,serif" font-size="14.00">equiv_dp_arrow</text>
</a>
</g>
</g>
<!-- DPath_equiv_dp_arrow&#45;&gt;DPath_DPath -->
<g id="edge3" class="edge">
<title>DPath_equiv_dp_arrow&#45;&gt;DPath_DPath</title>
<path fill="none" stroke="black" d="M3796.96,-664C3785.64,-661.22 3773.99,-658.41 3763,-655.83 2967.77,-469.04 1992.77,-259.91 1774.66,-213.35"/>
<polygon fill="black" stroke="black" points="1775.06,-209.85 1764.55,-211.19 1773.6,-216.7 1775.06,-209.85"/>
</g>
<!-- DPath_equiv_dp_forall -->
<g id="node4" class="node">
<title>DPath_equiv_dp_forall</title>
<g id="a_node4"><a xlink:href="DPath.html#equiv_dp_forall" xlink:title="equiv_dp_forall">
<ellipse fill="#f070d1" stroke="black" cx="2019" cy="-1207.83" rx="81.46" ry="18"/>
<ellipse fill="none" stroke="black" cx="2019" cy="-1207.83" rx="85.48" ry="22"/>
<ellipse fill="none" stroke="black" cx="2019" cy="-1207.83" rx="89.49" ry="26"/>
<text text-anchor="middle" x="2019" y="-1204.13" font-family="Times,serif" font-size="14.00">equiv_dp_forall</text>
</a>
</g>
</g>
<!-- DPath_equiv_dp_forall&#45;&gt;DPath_equiv_path_sigma_dp -->
<g id="edge4" class="edge">
<title>DPath_equiv_dp_forall&#45;&gt;DPath_equiv_path_sigma_dp</title>
<path fill="none" stroke="black" d="M2077.31,-1188.03C2330.87,-1106.27 3335.96,-782.16 3586.97,-701.22"/>
<polygon fill="black" stroke="black" points="3588.18,-704.51 3596.62,-698.11 3586.03,-697.85 3588.18,-704.51"/>
</g>
<!-- DPath_dp_id -->
<g id="node38" class="node">
<title>DPath_dp_id</title>
<g id="a_node38"><a xlink:href="DPath.html#dp_id" xlink:title="dp_id">
<ellipse fill="#f070d1" stroke="black" cx="1012" cy="-681.83" rx="36" ry="18"/>
<text text-anchor="middle" x="1012" y="-678.13" font-family="Times,serif" font-size="14.00">dp_id</text>
</a>
</g>
</g>
<!-- DPath_equiv_dp_forall&#45;&gt;DPath_dp_id -->
<g id="edge5" class="edge">
<title>DPath_equiv_dp_forall&#45;&gt;DPath_dp_id</title>
<path fill="none" stroke="black" d="M1975.62,-1184.89C1839.55,-1115.94 1409.24,-896.98 1057,-707.83 1052.9,-705.63 1048.61,-703.29 1044.38,-700.96"/>
<polygon fill="black" stroke="black" points="1045.73,-697.71 1035.29,-695.93 1042.34,-703.84 1045.73,-697.71"/>
</g>
<!-- DPath_ap_pr1_path_sigma_dp -->
<g id="node5" class="node">
<title>DPath_ap_pr1_path_sigma_dp</title>
<g id="a_node5"><a xlink:href="DPath.html#ap_pr1_path_sigma_dp" xlink:title="ap_pr1_path_sigma_dp">
<ellipse fill="#f070d1" stroke="black" cx="3648" cy="-1207.83" rx="116.19" ry="18"/>
<ellipse fill="none" stroke="black" cx="3648" cy="-1207.83" rx="120.18" ry="22"/>
<ellipse fill="none" stroke="black" cx="3648" cy="-1207.83" rx="124.18" ry="26"/>
<text text-anchor="middle" x="3648" y="-1204.13" font-family="Times,serif" font-size="14.00">ap_pr1_path_sigma_dp</text>
</a>
</g>
</g>
<!-- DPath_ap_pr1_path_sigma_dp&#45;&gt;DPath_equiv_path_sigma_dp -->
<g id="edge6" class="edge">
<title>DPath_ap_pr1_path_sigma_dp&#45;&gt;DPath_equiv_path_sigma_dp</title>
<path fill="none" stroke="black" d="M3647.81,-1181.56C3647.14,-1093.55 3644.9,-800.95 3644.21,-710.03"/>
<polygon fill="black" stroke="black" points="3647.71,-709.94 3644.13,-699.97 3640.71,-709.99 3647.71,-709.94"/>
</g>
<!-- DPath_equiv_path_sigma_dp&#45;&gt;DPath_DPath -->
<g id="edge7" class="edge">
<title>DPath_equiv_path_sigma_dp&#45;&gt;DPath_DPath</title>
<path fill="none" stroke="black" d="M3586.46,-666.49C3299.28,-594.92 2024.96,-277.34 1773.27,-214.61"/>
<polygon fill="black" stroke="black" points="1773.94,-211.18 1763.39,-212.15 1772.25,-217.97 1773.94,-211.18"/>
</g>
<!-- DPath_dp_apD_compose -->
<g id="node7" class="node">
<title>DPath_dp_apD_compose</title>
<g id="a_node7"><a xlink:href="DPath.html#dp_apD_compose" xlink:title="dp_apD_compose">
<ellipse fill="#f070d1" stroke="black" cx="3309" cy="-1733.83" rx="90.2" ry="18"/>
<ellipse fill="none" stroke="black" cx="3309" cy="-1733.83" rx="94.19" ry="22"/>
<ellipse fill="none" stroke="black" cx="3309" cy="-1733.83" rx="98.18" ry="26"/>
<text text-anchor="middle" x="3309" y="-1730.13" font-family="Times,serif" font-size="14.00">dp_apD_compose</text>
</a>
</g>
</g>
<!-- DPath_dp_apD_compose_ -->
<g id="node8" class="node">
<title>DPath_dp_apD_compose_</title>
<g id="a_node8"><a xlink:href="DPath.html#dp_apD_compose'" xlink:title="dp_apD_compose&#39;">
<ellipse fill="#f070d1" stroke="black" cx="3413" cy="-1207.83" rx="92.88" ry="18"/>
<text text-anchor="middle" x="3413" y="-1204.13" font-family="Times,serif" font-size="14.00">dp_apD_compose&#39;</text>
</a>
</g>
</g>
<!-- DPath_dp_apD_compose&#45;&gt;DPath_dp_apD_compose_ -->
<g id="edge8" class="edge">
<title>DPath_dp_apD_compose&#45;&gt;DPath_dp_apD_compose_</title>
<path fill="none" stroke="black" d="M3314.02,-1707.56C3331.48,-1619.55 3389.56,-1326.95 3407.6,-1236.03"/>
<polygon fill="black" stroke="black" points="3411.09,-1236.46 3409.6,-1225.97 3404.22,-1235.09 3411.09,-1236.46"/>
</g>
<!-- DPath_equiv_dp_compose -->
<g id="node9" class="node">
<title>DPath_equiv_dp_compose</title>
<g id="a_node9"><a xlink:href="DPath.html#equiv_dp_compose" xlink:title="equiv_dp_compose">
<ellipse fill="#f070d1" stroke="black" cx="3205" cy="-1207.83" rx="96.68" ry="18"/>
<text text-anchor="middle" x="3205" y="-1204.13" font-family="Times,serif" font-size="14.00">equiv_dp_compose</text>
</a>
</g>
</g>
<!-- DPath_dp_apD_compose&#45;&gt;DPath_equiv_dp_compose -->
<g id="edge9" class="edge">
<title>DPath_dp_apD_compose&#45;&gt;DPath_equiv_dp_compose</title>
<path fill="none" stroke="black" d="M3303.98,-1707.56C3286.52,-1619.55 3228.44,-1326.95 3210.4,-1236.03"/>
<polygon fill="black" stroke="black" points="3213.78,-1235.09 3208.4,-1225.97 3206.91,-1236.46 3213.78,-1235.09"/>
</g>
<!-- DPath_equiv_dp_compose_ -->
<g id="node10" class="node">
<title>DPath_equiv_dp_compose_</title>
<g id="a_node10"><a xlink:href="DPath.html#equiv_dp_compose'" xlink:title="equiv_dp_compose&#39;">
<ellipse fill="#f070d1" stroke="black" cx="3417" cy="-681.83" rx="99.38" ry="18"/>
<text text-anchor="middle" x="3417" y="-678.13" font-family="Times,serif" font-size="14.00">equiv_dp_compose&#39;</text>
</a>
</g>
</g>
<!-- DPath_dp_apD_compose_&#45;&gt;DPath_equiv_dp_compose_ -->
<g id="edge10" class="edge">
<title>DPath_dp_apD_compose_&#45;&gt;DPath_equiv_dp_compose_</title>
<path fill="none" stroke="black" d="M3413.13,-1189.69C3413.71,-1113.35 3416.08,-803.81 3416.79,-709.94"/>
<polygon fill="black" stroke="black" points="3420.29,-709.86 3416.87,-699.84 3413.29,-709.81 3420.29,-709.86"/>
</g>
<!-- DPath_equiv_dp_compose&#45;&gt;DPath_equiv_dp_compose_ -->
<g id="edge11" class="edge">
<title>DPath_equiv_dp_compose&#45;&gt;DPath_equiv_dp_compose_</title>
<path fill="none" stroke="black" d="M3211.93,-1189.69C3242.89,-1113.19 3368.56,-802.55 3406.26,-709.37"/>
<polygon fill="black" stroke="black" points="3409.61,-710.42 3410.12,-699.84 3403.12,-707.79 3409.61,-710.42"/>
</g>
<!-- DPath_equiv_dp_compose_&#45;&gt;DPath_DPath -->
<g id="edge12" class="edge">
<title>DPath_equiv_dp_compose_&#45;&gt;DPath_DPath</title>
<path fill="none" stroke="black" d="M3365.59,-666.29C3112.58,-594.76 2002.55,-280.9 1772.02,-215.71"/>
<polygon fill="black" stroke="black" points="1772.9,-212.32 1762.33,-212.97 1771,-219.06 1772.9,-212.32"/>
</g>
<!-- DPath_equiv_dp_paths_FlFr_D -->
<g id="node11" class="node">
<title>DPath_equiv_dp_paths_FlFr_D</title>
<g id="a_node11"><a xlink:href="DPath.html#equiv_dp_paths_FlFr_D" xlink:title="equiv_dp_paths_FlFr_D">
<ellipse fill="#f070d1" stroke="black" cx="3173" cy="-681.83" rx="118.09" ry="18"/>
<ellipse fill="none" stroke="black" cx="3173" cy="-681.83" rx="122.09" ry="22"/>
<ellipse fill="none" stroke="black" cx="3173" cy="-681.83" rx="126.08" ry="26"/>
<text text-anchor="middle" x="3173" y="-678.13" font-family="Times,serif" font-size="14.00">equiv_dp_paths_FlFr_D</text>
</a>
</g>
</g>
<!-- DPath_equiv_dp_paths_FlFr_D&#45;&gt;DPath_DPath -->
<g id="edge13" class="edge">
<title>DPath_equiv_dp_paths_FlFr_D&#45;&gt;DPath_DPath</title>
<path fill="none" stroke="black" d="M3108.19,-659.41C2859.58,-577.23 1970.72,-283.4 1770.33,-217.16"/>
<polygon fill="black" stroke="black" points="1771.37,-213.82 1760.77,-214 1769.17,-220.47 1771.37,-213.82"/>
</g>
<!-- DPath_equiv_dp_paths_lFFr -->
<g id="node12" class="node">
<title>DPath_equiv_dp_paths_lFFr</title>
<g id="a_node12"><a xlink:href="DPath.html#equiv_dp_paths_lFFr" xlink:title="equiv_dp_paths_lFFr">
<ellipse fill="#f070d1" stroke="black" cx="2914" cy="-681.83" rx="106.67" ry="18"/>
<ellipse fill="none" stroke="black" cx="2914" cy="-681.83" rx="110.68" ry="22"/>
<ellipse fill="none" stroke="black" cx="2914" cy="-681.83" rx="114.68" ry="26"/>
<text text-anchor="middle" x="2914" y="-678.13" font-family="Times,serif" font-size="14.00">equiv_dp_paths_lFFr</text>
</a>
</g>
</g>
<!-- DPath_equiv_dp_paths_lFFr&#45;&gt;DPath_DPath -->
<g id="edge14" class="edge">
<title>DPath_equiv_dp_paths_lFFr&#45;&gt;DPath_DPath</title>
<path fill="none" stroke="black" d="M2859.66,-658.94C2655.98,-576.88 1940.67,-288.7 1767.81,-219.06"/>
<polygon fill="black" stroke="black" points="1768.95,-215.75 1758.37,-215.26 1766.33,-222.24 1768.95,-215.75"/>
</g>
<!-- DPath_equiv_dp_paths_FlFr -->
<g id="node13" class="node">
<title>DPath_equiv_dp_paths_FlFr</title>
<g id="a_node13"><a xlink:href="DPath.html#equiv_dp_paths_FlFr" xlink:title="equiv_dp_paths_FlFr">
<ellipse fill="#f070d1" stroke="black" cx="2667" cy="-681.83" rx="106.67" ry="18"/>
<ellipse fill="none" stroke="black" cx="2667" cy="-681.83" rx="110.68" ry="22"/>
<ellipse fill="none" stroke="black" cx="2667" cy="-681.83" rx="114.68" ry="26"/>
<text text-anchor="middle" x="2667" y="-678.13" font-family="Times,serif" font-size="14.00">equiv_dp_paths_FlFr</text>
</a>
</g>
</g>
<!-- DPath_equiv_dp_paths_FlFr&#45;&gt;DPath_DPath -->
<g id="edge15" class="edge">
<title>DPath_equiv_dp_paths_FlFr&#45;&gt;DPath_DPath</title>
<path fill="none" stroke="black" d="M2621.81,-657.82C2459.57,-575.23 1908.53,-294.72 1764.62,-221.45"/>
<polygon fill="black" stroke="black" points="1765.85,-218.15 1755.35,-216.74 1762.67,-224.39 1765.85,-218.15"/>
</g>
<!-- DPath_equiv_dp_paths_FFlr -->
<g id="node14" class="node">
<title>DPath_equiv_dp_paths_FFlr</title>
<g id="a_node14"><a xlink:href="DPath.html#equiv_dp_paths_FFlr" xlink:title="equiv_dp_paths_FFlr">
<ellipse fill="#f070d1" stroke="black" cx="2420" cy="-681.83" rx="106.67" ry="18"/>
<ellipse fill="none" stroke="black" cx="2420" cy="-681.83" rx="110.68" ry="22"/>
<ellipse fill="none" stroke="black" cx="2420" cy="-681.83" rx="114.68" ry="26"/>
<text text-anchor="middle" x="2420" y="-678.13" font-family="Times,serif" font-size="14.00">equiv_dp_paths_FFlr</text>
</a>
</g>
</g>
<!-- DPath_equiv_dp_paths_FFlr&#45;&gt;DPath_DPath -->
<g id="edge16" class="edge">
<title>DPath_equiv_dp_paths_FFlr&#45;&gt;DPath_DPath</title>
<path fill="none" stroke="black" d="M2385.31,-656.85C2265.44,-573.98 1870.02,-300.62 1759.14,-223.97"/>
<polygon fill="black" stroke="black" points="1760.98,-220.99 1750.76,-218.19 1757,-226.75 1760.98,-220.99"/>
</g>
<!-- DPath_equiv_dp_paths_Fr -->
<g id="node15" class="node">
<title>DPath_equiv_dp_paths_Fr</title>
<g id="a_node15"><a xlink:href="DPath.html#equiv_dp_paths_Fr" xlink:title="equiv_dp_paths_Fr">
<ellipse fill="#f070d1" stroke="black" cx="2182" cy="-681.83" rx="97.48" ry="18"/>
<ellipse fill="none" stroke="black" cx="2182" cy="-681.83" rx="101.48" ry="22"/>
<ellipse fill="none" stroke="black" cx="2182" cy="-681.83" rx="105.48" ry="26"/>
<text text-anchor="middle" x="2182" y="-678.13" font-family="Times,serif" font-size="14.00">equiv_dp_paths_Fr</text>
</a>
</g>
</g>
<!-- DPath_equiv_dp_paths_Fr&#45;&gt;DPath_DPath -->
<g id="edge17" class="edge">
<title>DPath_equiv_dp_paths_Fr&#45;&gt;DPath_DPath</title>
<path fill="none" stroke="black" d="M2158.65,-656.19C2080.53,-573.75 1828.9,-308.2 1752.32,-227.39"/>
<polygon fill="black" stroke="black" points="1754.48,-224.58 1745.06,-219.73 1749.4,-229.39 1754.48,-224.58"/>
</g>
<!-- DPath_equiv_dp_paths_Fl -->
<g id="node16" class="node">
<title>DPath_equiv_dp_paths_Fl</title>
<g id="a_node16"><a xlink:href="DPath.html#equiv_dp_paths_Fl" xlink:title="equiv_dp_paths_Fl">
<ellipse fill="#f070d1" stroke="black" cx="1954" cy="-681.83" rx="96.37" ry="18"/>
<ellipse fill="none" stroke="black" cx="1954" cy="-681.83" rx="100.38" ry="22"/>
<ellipse fill="none" stroke="black" cx="1954" cy="-681.83" rx="104.38" ry="26"/>
<text text-anchor="middle" x="1954" y="-678.13" font-family="Times,serif" font-size="14.00">equiv_dp_paths_Fl</text>
</a>
</g>
</g>
<!-- DPath_equiv_dp_paths_Fl&#45;&gt;DPath_DPath -->
<g id="edge18" class="edge">
<title>DPath_equiv_dp_paths_Fl&#45;&gt;DPath_DPath</title>
<path fill="none" stroke="black" d="M1942.27,-655.86C1903.78,-573.89 1781.52,-313.53 1742.26,-229.94"/>
<polygon fill="black" stroke="black" points="1745.31,-228.21 1737.9,-220.64 1738.98,-231.18 1745.31,-228.21"/>
</g>
<!-- DPath_equiv_dp_paths_lr -->
<g id="node17" class="node">
<title>DPath_equiv_dp_paths_lr</title>
<g id="a_node17"><a xlink:href="DPath.html#equiv_dp_paths_lr" xlink:title="equiv_dp_paths_lr">
<ellipse fill="#f070d1" stroke="black" cx="1730" cy="-681.83" rx="94.46" ry="18"/>
<ellipse fill="none" stroke="black" cx="1730" cy="-681.83" rx="98.47" ry="22"/>
<ellipse fill="none" stroke="black" cx="1730" cy="-681.83" rx="102.48" ry="26"/>
<text text-anchor="middle" x="1730" y="-678.13" font-family="Times,serif" font-size="14.00">equiv_dp_paths_lr</text>
</a>
</g>
</g>
<!-- DPath_equiv_dp_paths_lr&#45;&gt;DPath_DPath -->
<g id="edge19" class="edge">
<title>DPath_equiv_dp_paths_lr&#45;&gt;DPath_DPath</title>
<path fill="none" stroke="black" d="M1730,-655.52C1730,-573.6 1730,-316.04 1730,-231.22"/>
<polygon fill="black" stroke="black" points="1733.5,-231.09 1730,-221.09 1726.5,-231.09 1733.5,-231.09"/>
</g>
<!-- DPath_equiv_dp_paths_r -->
<g id="node18" class="node">
<title>DPath_equiv_dp_paths_r</title>
<g id="a_node18"><a xlink:href="DPath.html#equiv_dp_paths_r" xlink:title="equiv_dp_paths_r">
<ellipse fill="#f070d1" stroke="black" cx="1511" cy="-681.83" rx="90.98" ry="18"/>
<ellipse fill="none" stroke="black" cx="1511" cy="-681.83" rx="94.98" ry="22"/>
<ellipse fill="none" stroke="black" cx="1511" cy="-681.83" rx="98.98" ry="26"/>
<text text-anchor="middle" x="1511" y="-678.13" font-family="Times,serif" font-size="14.00">equiv_dp_paths_r</text>
</a>
</g>
</g>
<!-- DPath_equiv_dp_paths_r&#45;&gt;DPath_DPath -->
<g id="edge20" class="edge">
<title>DPath_equiv_dp_paths_r&#45;&gt;DPath_DPath</title>
<path fill="none" stroke="black" d="M1522.47,-655.86C1560.1,-573.89 1679.63,-313.53 1718.01,-229.94"/>
<polygon fill="black" stroke="black" points="1721.29,-231.19 1722.28,-220.64 1714.93,-228.27 1721.29,-231.19"/>
</g>
<!-- DPath_equiv_dp_paths_l -->
<g id="node19" class="node">
<title>DPath_equiv_dp_paths_l</title>
<g id="a_node19"><a xlink:href="DPath.html#equiv_dp_paths_l" xlink:title="equiv_dp_paths_l">
<ellipse fill="#f070d1" stroke="black" cx="1296" cy="-681.83" rx="89.87" ry="18"/>
<ellipse fill="none" stroke="black" cx="1296" cy="-681.83" rx="93.88" ry="22"/>
<ellipse fill="none" stroke="black" cx="1296" cy="-681.83" rx="97.88" ry="26"/>
<text text-anchor="middle" x="1296" y="-678.13" font-family="Times,serif" font-size="14.00">equiv_dp_paths_l</text>
</a>
</g>
</g>
<!-- DPath_equiv_dp_paths_l&#45;&gt;DPath_DPath -->
<g id="edge21" class="edge">
<title>DPath_equiv_dp_paths_l&#45;&gt;DPath_DPath</title>
<path fill="none" stroke="black" d="M1318.42,-656.19C1393.43,-573.75 1635.04,-308.2 1708.57,-227.39"/>
<polygon fill="black" stroke="black" points="1711.39,-229.48 1715.54,-219.73 1706.22,-224.77 1711.39,-229.48"/>
</g>
<!-- DPath_dp_concat_p_pp -->
<g id="node20" class="node">
<title>DPath_dp_concat_p_pp</title>
<g id="a_node20"><a xlink:href="DPath.html#dp_concat_p_pp" xlink:title="dp_concat_p_pp">
<ellipse fill="#f070d1" stroke="black" cx="1621" cy="-1207.83" rx="83.37" ry="18"/>
<ellipse fill="none" stroke="black" cx="1621" cy="-1207.83" rx="87.38" ry="22"/>
<ellipse fill="none" stroke="black" cx="1621" cy="-1207.83" rx="91.39" ry="26"/>
<text text-anchor="middle" x="1621" y="-1204.13" font-family="Times,serif" font-size="14.00">dp_concat_p_pp</text>
</a>
</g>
</g>
<!-- DPath_dp_concat -->
<g id="node33" class="node">
<title>DPath_dp_concat</title>
<g id="a_node33"><a xlink:href="DPath.html#dp_concat" xlink:title="dp_concat">
<ellipse fill="#f070d1" stroke="black" cx="1123" cy="-681.83" rx="57.39" ry="18"/>
<text text-anchor="middle" x="1123" y="-678.13" font-family="Times,serif" font-size="14.00">dp_concat</text>
</a>
</g>
</g>
<!-- DPath_dp_concat_p_pp&#45;&gt;DPath_dp_concat -->
<g id="edge22" class="edge">
<title>DPath_dp_concat_p_pp&#45;&gt;DPath_dp_concat</title>
<path fill="none" stroke="black" d="M1597.98,-1182.61C1514.51,-1094.78 1228.35,-793.68 1145.59,-706.6"/>
<polygon fill="black" stroke="black" points="1148.09,-704.15 1138.66,-699.31 1143.01,-708.97 1148.09,-704.15"/>
</g>
<!-- DPath_dp_concat_pp_p -->
<g id="node21" class="node">
<title>DPath_dp_concat_pp_p</title>
<g id="a_node21"><a xlink:href="DPath.html#dp_concat_pp_p" xlink:title="dp_concat_pp_p">
<ellipse fill="#f070d1" stroke="black" cx="1821" cy="-1207.83" rx="83.37" ry="18"/>
<ellipse fill="none" stroke="black" cx="1821" cy="-1207.83" rx="87.38" ry="22"/>
<ellipse fill="none" stroke="black" cx="1821" cy="-1207.83" rx="91.39" ry="26"/>
<text text-anchor="middle" x="1821" y="-1204.13" font-family="Times,serif" font-size="14.00">dp_concat_pp_p</text>
</a>
</g>
</g>
<!-- DPath_dp_concat_pp_p&#45;&gt;DPath_dp_concat -->
<g id="edge23" class="edge">
<title>DPath_dp_concat_pp_p&#45;&gt;DPath_dp_concat</title>
<path fill="none" stroke="black" d="M1789.65,-1183.3C1673.05,-1095.76 1265.32,-789.67 1152.26,-704.8"/>
<polygon fill="black" stroke="black" points="1154.14,-701.83 1144.04,-698.63 1149.93,-707.43 1154.14,-701.83"/>
</g>
<!-- DPath_dp_concat_pV -->
<g id="node22" class="node">
<title>DPath_dp_concat_pV</title>
<g id="a_node22"><a xlink:href="DPath.html#dp_concat_pV" xlink:title="dp_concat_pV">
<ellipse fill="#f070d1" stroke="black" cx="919" cy="-1207.83" rx="73.39" ry="18"/>
<ellipse fill="none" stroke="black" cx="919" cy="-1207.83" rx="77.39" ry="22"/>
<ellipse fill="none" stroke="black" cx="919" cy="-1207.83" rx="81.39" ry="26"/>
<text text-anchor="middle" x="919" y="-1204.13" font-family="Times,serif" font-size="14.00">dp_concat_pV</text>
</a>
</g>
</g>
<!-- DPath_dp_inverse -->
<g id="node30" class="node">
<title>DPath_dp_inverse</title>
<g id="a_node30"><a xlink:href="DPath.html#dp_inverse" xlink:title="dp_inverse">
<ellipse fill="#f070d1" stroke="black" cx="569" cy="-681.83" rx="61.19" ry="18"/>
<text text-anchor="middle" x="569" y="-678.13" font-family="Times,serif" font-size="14.00">dp_inverse</text>
</a>
</g>
</g>
<!-- DPath_dp_concat_pV&#45;&gt;DPath_dp_inverse -->
<g id="edge24" class="edge">
<title>DPath_dp_concat_pV&#45;&gt;DPath_dp_inverse</title>
<path fill="none" stroke="black" d="M902.59,-1182.26C843.99,-1094.52 645.39,-797.19 585.94,-708.2"/>
<polygon fill="black" stroke="black" points="588.79,-706.16 580.32,-699.78 582.97,-710.04 588.79,-706.16"/>
</g>
<!-- DPath_dp_concat_pV&#45;&gt;DPath_dp_concat -->
<g id="edge25" class="edge">
<title>DPath_dp_concat_pV&#45;&gt;DPath_dp_concat</title>
<path fill="none" stroke="black" d="M928.7,-1181.91C962.9,-1094.07 1077.64,-799.35 1112.72,-709.23"/>
<polygon fill="black" stroke="black" points="1116.05,-710.34 1116.41,-699.75 1109.52,-707.8 1116.05,-710.34"/>
</g>
<!-- DPath_dp_concat_pV&#45;&gt;DPath_dp_id -->
<g id="edge26" class="edge">
<title>DPath_dp_concat_pV&#45;&gt;DPath_dp_id</title>
<path fill="none" stroke="black" d="M923.49,-1181.56C939.11,-1093.55 991.04,-800.95 1007.17,-710.03"/>
<polygon fill="black" stroke="black" points="1010.66,-710.43 1008.96,-699.97 1003.76,-709.2 1010.66,-710.43"/>
</g>
<!-- DPath_dp_concat_Vp -->
<g id="node23" class="node">
<title>DPath_dp_concat_Vp</title>
<g id="a_node23"><a xlink:href="DPath.html#dp_concat_Vp" xlink:title="dp_concat_Vp">
<ellipse fill="#f070d1" stroke="black" cx="738" cy="-1207.83" rx="73.39" ry="18"/>
<ellipse fill="none" stroke="black" cx="738" cy="-1207.83" rx="77.39" ry="22"/>
<ellipse fill="none" stroke="black" cx="738" cy="-1207.83" rx="81.39" ry="26"/>
<text text-anchor="middle" x="738" y="-1204.13" font-family="Times,serif" font-size="14.00">dp_concat_Vp</text>
</a>
</g>
</g>
<!-- DPath_dp_concat_Vp&#45;&gt;DPath_dp_inverse -->
<g id="edge27" class="edge">
<title>DPath_dp_concat_Vp&#45;&gt;DPath_dp_inverse</title>
<path fill="none" stroke="black" d="M729.96,-1181.91C701.67,-1094.17 606.79,-800 577.61,-709.53"/>
<polygon fill="black" stroke="black" points="580.94,-708.45 574.54,-700 574.28,-710.6 580.94,-708.45"/>
</g>
<!-- DPath_dp_concat_Vp&#45;&gt;DPath_dp_concat -->
<g id="edge28" class="edge">
<title>DPath_dp_concat_Vp&#45;&gt;DPath_dp_concat</title>
<path fill="none" stroke="black" d="M756.05,-1182.26C820.65,-1094.34 1039.91,-795.93 1104.78,-707.63"/>
<polygon fill="black" stroke="black" points="1107.63,-709.66 1110.73,-699.53 1101.99,-705.51 1107.63,-709.66"/>
</g>
<!-- DPath_dp_concat_Vp&#45;&gt;DPath_dp_id -->
<g id="edge29" class="edge">
<title>DPath_dp_concat_Vp&#45;&gt;DPath_dp_id</title>
<path fill="none" stroke="black" d="M751.03,-1181.91C797.1,-1093.8 952.04,-797.49 998.64,-708.39"/>
<polygon fill="black" stroke="black" points="1001.76,-709.98 1003.29,-699.49 995.55,-706.73 1001.76,-709.98"/>
</g>
<!-- DPath_dp_concat_1p -->
<g id="node24" class="node">
<title>DPath_dp_concat_1p</title>
<g id="a_node24"><a xlink:href="DPath.html#dp_concat_1p" xlink:title="dp_concat_1p">
<ellipse fill="#f070d1" stroke="black" cx="1430" cy="-1207.83" rx="73.39" ry="18"/>
<ellipse fill="none" stroke="black" cx="1430" cy="-1207.83" rx="77.39" ry="22"/>
<ellipse fill="none" stroke="black" cx="1430" cy="-1207.83" rx="81.39" ry="26"/>
<text text-anchor="middle" x="1430" y="-1204.13" font-family="Times,serif" font-size="14.00">dp_concat_1p</text>
</a>
</g>
</g>
<!-- DPath_dp_concat_1p&#45;&gt;DPath_dp_concat -->
<g id="edge30" class="edge">
<title>DPath_dp_concat_1p&#45;&gt;DPath_dp_concat</title>
<path fill="none" stroke="black" d="M1415.4,-1181.91C1363.78,-1093.81 1190.21,-797.55 1137.99,-708.41"/>
<polygon fill="black" stroke="black" points="1140.99,-706.61 1132.91,-699.75 1134.95,-710.15 1140.99,-706.61"/>
</g>
<!-- DPath_dp_concat_1p&#45;&gt;DPath_dp_id -->
<g id="edge31" class="edge">
<title>DPath_dp_concat_1p&#45;&gt;DPath_dp_id</title>
<path fill="none" stroke="black" d="M1410.4,-1182.26C1340.11,-1094.14 1101.16,-794.6 1031.32,-707.05"/>
<polygon fill="black" stroke="black" points="1033.89,-704.66 1024.92,-699.02 1028.42,-709.02 1033.89,-704.66"/>
</g>
<!-- DPath_dp_concat_p1 -->
<g id="node25" class="node">
<title>DPath_dp_concat_p1</title>
<g id="a_node25"><a xlink:href="DPath.html#dp_concat_p1" xlink:title="dp_concat_p1">
<ellipse fill="#f070d1" stroke="black" cx="1249" cy="-1207.83" rx="73.39" ry="18"/>
<ellipse fill="none" stroke="black" cx="1249" cy="-1207.83" rx="77.39" ry="22"/>
<ellipse fill="none" stroke="black" cx="1249" cy="-1207.83" rx="81.39" ry="26"/>
<text text-anchor="middle" x="1249" y="-1204.13" font-family="Times,serif" font-size="14.00">dp_concat_p1</text>
</a>
</g>
</g>
<!-- DPath_dp_concat_p1&#45;&gt;DPath_dp_concat -->
<g id="edge32" class="edge">
<title>DPath_dp_concat_p1&#45;&gt;DPath_dp_concat</title>
<path fill="none" stroke="black" d="M1242.92,-1181.56C1221.74,-1093.46 1151.26,-800.35 1129.47,-709.75"/>
<polygon fill="black" stroke="black" points="1132.86,-708.87 1127.12,-699.97 1126.06,-710.51 1132.86,-708.87"/>
</g>
<!-- DPath_dp_concat_p1&#45;&gt;DPath_dp_id -->
<g id="edge33" class="edge">
<title>DPath_dp_concat_p1&#45;&gt;DPath_dp_id</title>
<path fill="none" stroke="black" d="M1237.73,-1181.91C1197.92,-1093.89 1064.13,-798.09 1023.68,-708.66"/>
<polygon fill="black" stroke="black" points="1026.85,-707.16 1019.54,-699.49 1020.47,-710.05 1026.85,-707.16"/>
</g>
<!-- DPath_dp_const_V -->
<g id="node26" class="node">
<title>DPath_dp_const_V</title>
<g id="a_node26"><a xlink:href="DPath.html#dp_const_V" xlink:title="dp_const_V">
<ellipse fill="#f070d1" stroke="black" cx="254" cy="-1207.83" rx="62.3" ry="18"/>
<ellipse fill="none" stroke="black" cx="254" cy="-1207.83" rx="66.3" ry="22"/>
<ellipse fill="none" stroke="black" cx="254" cy="-1207.83" rx="70.29" ry="26"/>
<text text-anchor="middle" x="254" y="-1204.13" font-family="Times,serif" font-size="14.00">dp_const_V</text>
</a>
</g>
</g>
<!-- DPath_dp_const_V&#45;&gt;DPath_dp_inverse -->
<g id="edge34" class="edge">
<title>DPath_dp_const_V&#45;&gt;DPath_dp_inverse</title>
<path fill="none" stroke="black" d="M268.77,-1182.26C321.46,-1094.61 499.89,-797.79 553.59,-708.47"/>
<polygon fill="black" stroke="black" points="556.66,-710.16 558.81,-699.78 550.66,-706.55 556.66,-710.16"/>
</g>
<!-- DPath_equiv_dp_const -->
<g id="node36" class="node">
<title>DPath_equiv_dp_const</title>
<g id="a_node36"><a xlink:href="DPath.html#equiv_dp_const" xlink:title="equiv_dp_const">
<ellipse fill="#f070d1" stroke="black" cx="409" cy="-681.83" rx="81.49" ry="18"/>
<text text-anchor="middle" x="409" y="-678.13" font-family="Times,serif" font-size="14.00">equiv_dp_const</text>
</a>
</g>
</g>
<!-- DPath_dp_const_V&#45;&gt;DPath_equiv_dp_const -->
<g id="edge35" class="edge">
<title>DPath_dp_const_V&#45;&gt;DPath_equiv_dp_const</title>
<path fill="none" stroke="black" d="M261.37,-1181.91C287.3,-1094.26 374.16,-800.6 401.02,-709.81"/>
<polygon fill="black" stroke="black" points="404.44,-710.59 403.92,-700 397.73,-708.6 404.44,-710.59"/>
</g>
<!-- DPath_dp_const_pp -->
<g id="node27" class="node">
<title>DPath_dp_const_pp</title>
<g id="a_node27"><a xlink:href="DPath.html#dp_const_pp" xlink:title="dp_const_pp">
<ellipse fill="#f070d1" stroke="black" cx="418" cy="-1207.83" rx="67.68" ry="18"/>
<ellipse fill="none" stroke="black" cx="418" cy="-1207.83" rx="71.68" ry="22"/>
<ellipse fill="none" stroke="black" cx="418" cy="-1207.83" rx="75.69" ry="26"/>
<text text-anchor="middle" x="418" y="-1204.13" font-family="Times,serif" font-size="14.00">dp_const_pp</text>
</a>
</g>
</g>
<!-- DPath_dp_const_pp&#45;&gt;DPath_dp_concat -->
<g id="edge36" class="edge">
<title>DPath_dp_const_pp&#45;&gt;DPath_dp_concat</title>
<path fill="none" stroke="black" d="M448.75,-1183.98C565.24,-1097.4 978.65,-790.12 1093.32,-704.89"/>
<polygon fill="black" stroke="black" points="1095.72,-707.47 1101.66,-698.69 1091.54,-701.85 1095.72,-707.47"/>
</g>
<!-- DPath_dp_const_pp&#45;&gt;DPath_equiv_dp_const -->
<g id="edge37" class="edge">
<title>DPath_dp_const_pp&#45;&gt;DPath_equiv_dp_const</title>
<path fill="none" stroke="black" d="M417.57,-1181.56C416.05,-1093.55 411.03,-800.95 409.47,-710.03"/>
<polygon fill="black" stroke="black" points="412.97,-709.91 409.29,-699.97 405.97,-710.03 412.97,-709.91"/>
</g>
<!-- DPath_dp_apD_V -->
<g id="node28" class="node">
<title>DPath_dp_apD_V</title>
<g id="a_node28"><a xlink:href="DPath.html#dp_apD_V" xlink:title="dp_apD_V">
<ellipse fill="#f070d1" stroke="black" cx="575" cy="-1207.83" rx="55.8" ry="18"/>
<ellipse fill="none" stroke="black" cx="575" cy="-1207.83" rx="59.8" ry="22"/>
<ellipse fill="none" stroke="black" cx="575" cy="-1207.83" rx="63.79" ry="26"/>
<text text-anchor="middle" x="575" y="-1204.13" font-family="Times,serif" font-size="14.00">dp_apD_V</text>
</a>
</g>
</g>
<!-- DPath_dp_apD_V&#45;&gt;DPath_dp_inverse -->
<g id="edge38" class="edge">
<title>DPath_dp_apD_V&#45;&gt;DPath_dp_inverse</title>
<path fill="none" stroke="black" d="M574.71,-1181.56C573.7,-1093.55 570.35,-800.95 569.31,-710.03"/>
<polygon fill="black" stroke="black" points="572.81,-709.93 569.2,-699.97 565.81,-710.01 572.81,-709.93"/>
</g>
<!-- DPath_dp_apD_pp -->
<g id="node29" class="node">
<title>DPath_dp_apD_pp</title>
<g id="a_node29"><a xlink:href="DPath.html#dp_apD_pp" xlink:title="dp_apD_pp">
<ellipse fill="#f070d1" stroke="black" cx="2196" cy="-1207.83" rx="61.96" ry="18"/>
<ellipse fill="none" stroke="black" cx="2196" cy="-1207.83" rx="65.98" ry="22"/>
<ellipse fill="none" stroke="black" cx="2196" cy="-1207.83" rx="69.99" ry="26"/>
<text text-anchor="middle" x="2196" y="-1204.13" font-family="Times,serif" font-size="14.00">dp_apD_pp</text>
</a>
</g>
</g>
<!-- DPath_dp_apD_pp&#45;&gt;DPath_dp_concat -->
<g id="edge39" class="edge">
<title>DPath_dp_apD_pp&#45;&gt;DPath_dp_concat</title>
<path fill="none" stroke="black" d="M2154.92,-1186.77C1984,-1103.3 1330.29,-784.06 1162.46,-702.1"/>
<polygon fill="black" stroke="black" points="1163.54,-698.73 1153.02,-697.49 1160.47,-705.02 1163.54,-698.73"/>
</g>
<!-- DPath_dp_inverse&#45;&gt;DPath_DPath -->
<g id="edge40" class="edge">
<title>DPath_dp_inverse&#45;&gt;DPath_DPath</title>
<path fill="none" stroke="black" d="M603.12,-666.81C771.85,-597.49 1516.02,-291.74 1692.41,-219.27"/>
<polygon fill="black" stroke="black" points="1693.88,-222.45 1701.8,-215.42 1691.22,-215.98 1693.88,-222.45"/>
</g>
<!-- DPath_dp_concat_l -->
<g id="node31" class="node">
<title>DPath_dp_concat_l</title>
<g id="a_node31"><a xlink:href="DPath.html#dp_concat_l" xlink:title="dp_concat_l">
<ellipse fill="#f070d1" stroke="black" cx="886" cy="-681.83" rx="64.21" ry="18"/>
<ellipse fill="none" stroke="black" cx="886" cy="-681.83" rx="68.2" ry="22"/>
<ellipse fill="none" stroke="black" cx="886" cy="-681.83" rx="72.19" ry="26"/>
<text text-anchor="middle" x="886" y="-678.13" font-family="Times,serif" font-size="14.00">dp_concat_l</text>
</a>
</g>
</g>
<!-- DPath_dp_concat_l&#45;&gt;DPath_DPath -->
<g id="edge41" class="edge">
<title>DPath_dp_concat_l&#45;&gt;DPath_DPath</title>
<path fill="none" stroke="black" d="M923.63,-659.56C1065.14,-579.59 1564.11,-297.59 1697.18,-222.38"/>
<polygon fill="black" stroke="black" points="1699.13,-225.3 1706.12,-217.33 1695.69,-219.2 1699.13,-225.3"/>
</g>
<!-- DPath_dp_concat_r -->
<g id="node32" class="node">
<title>DPath_dp_concat_r</title>
<g id="a_node32"><a xlink:href="DPath.html#dp_concat_r" xlink:title="dp_concat_r">
<ellipse fill="#f070d1" stroke="black" cx="722" cy="-681.83" rx="65.77" ry="18"/>
<ellipse fill="none" stroke="black" cx="722" cy="-681.83" rx="69.78" ry="22"/>
<ellipse fill="none" stroke="black" cx="722" cy="-681.83" rx="73.79" ry="26"/>
<text text-anchor="middle" x="722" y="-678.13" font-family="Times,serif" font-size="14.00">dp_concat_r</text>
</a>
</g>
</g>
<!-- DPath_dp_concat_r&#45;&gt;DPath_DPath -->
<g id="edge42" class="edge">
<title>DPath_dp_concat_r&#45;&gt;DPath_DPath</title>
<path fill="none" stroke="black" d="M764.67,-660.64C931.85,-581.52 1540.69,-293.42 1694.51,-220.63"/>
<polygon fill="black" stroke="black" points="1696.02,-223.78 1703.56,-216.34 1693.03,-217.45 1696.02,-223.78"/>
</g>
<!-- DPath_dp_concat&#45;&gt;DPath_DPath -->
<g id="edge43" class="edge">
<title>DPath_dp_concat&#45;&gt;DPath_DPath</title>
<path fill="none" stroke="black" d="M1143.2,-664.96C1233.43,-594.05 1599.79,-306.15 1702.89,-225.14"/>
<polygon fill="black" stroke="black" points="1705.25,-227.73 1710.95,-218.8 1700.92,-222.23 1705.25,-227.73"/>
</g>
<!-- DPath_dp_apD_const_ -->
<g id="node34" class="node">
<title>DPath_dp_apD_const_</title>
<g id="a_node34"><a xlink:href="DPath.html#dp_apD_const'" xlink:title="dp_apD_const&#39;">
<ellipse fill="#f070d1" stroke="black" cx="101" cy="-1733.83" rx="77.2" ry="18"/>
<ellipse fill="none" stroke="black" cx="101" cy="-1733.83" rx="81.19" ry="22"/>
<ellipse fill="none" stroke="black" cx="101" cy="-1733.83" rx="85.19" ry="26"/>
<text text-anchor="middle" x="101" y="-1730.13" font-family="Times,serif" font-size="14.00">dp_apD_const&#39;</text>
</a>
</g>
</g>
<!-- DPath_dp_apD_const -->
<g id="node35" class="node">
<title>DPath_dp_apD_const</title>
<g id="a_node35"><a xlink:href="DPath.html#dp_apD_const" xlink:title="dp_apD_const">
<ellipse fill="#f070d1" stroke="black" cx="91" cy="-1207.83" rx="74.99" ry="18"/>
<text text-anchor="middle" x="91" y="-1204.13" font-family="Times,serif" font-size="14.00">dp_apD_const</text>
</a>
</g>
</g>
<!-- DPath_dp_apD_const_&#45;&gt;DPath_dp_apD_const -->
<g id="edge44" class="edge">
<title>DPath_dp_apD_const_&#45;&gt;DPath_dp_apD_const</title>
<path fill="none" stroke="black" d="M100.52,-1707.56C98.84,-1619.55 93.25,-1326.95 91.52,-1236.03"/>
<polygon fill="black" stroke="black" points="95.02,-1235.9 91.33,-1225.97 88.02,-1236.03 95.02,-1235.9"/>
</g>
<!-- DPath_dp_apD_const&#45;&gt;DPath_equiv_dp_const -->
<g id="edge45" class="edge">
<title>DPath_dp_apD_const&#45;&gt;DPath_equiv_dp_const</title>
<path fill="none" stroke="black" d="M101.22,-1189.99C147.47,-1113.78 337.35,-800.9 393.37,-708.58"/>
<polygon fill="black" stroke="black" points="396.46,-710.24 398.66,-699.87 390.48,-706.61 396.46,-710.24"/>
</g>
<!-- DPath_equiv_dp_const&#45;&gt;DPath_DPath -->
<g id="edge46" class="edge">
<title>DPath_equiv_dp_const&#45;&gt;DPath_DPath</title>
<path fill="none" stroke="black" d="M449.62,-666.16C646.14,-595.2 1496.75,-288.05 1690.58,-218.06"/>
<polygon fill="black" stroke="black" points="1691.87,-221.32 1700.09,-214.63 1689.5,-214.73 1691.87,-221.32"/>
</g>
<!-- DPath_DPath_ind -->
<g id="node37" class="node">
<title>DPath_DPath_ind</title>
<g id="a_node37"><a xlink:href="DPath.html#DPath_ind" xlink:title="DPath_ind">
<ellipse fill="#f070d1" stroke="black" cx="1084" cy="-1207.83" rx="57.71" ry="18"/>
<ellipse fill="none" stroke="black" cx="1084" cy="-1207.83" rx="61.7" ry="22"/>
<ellipse fill="none" stroke="black" cx="1084" cy="-1207.83" rx="65.69" ry="26"/>
<text text-anchor="middle" x="1084" y="-1204.13" font-family="Times,serif" font-size="14.00">DPath_ind</text>
</a>
</g>
</g>
<!-- DPath_DPath_ind&#45;&gt;DPath_dp_id -->
<g id="edge47" class="edge">
<title>DPath_DPath_ind&#45;&gt;DPath_dp_id</title>
<path fill="none" stroke="black" d="M1080.53,-1181.56C1068.43,-1093.55 1028.23,-800.95 1015.74,-710.03"/>
<polygon fill="black" stroke="black" points="1019.18,-709.4 1014.35,-699.97 1012.25,-710.35 1019.18,-709.4"/>
</g>
<!-- DPath_dp_id&#45;&gt;DPath_DPath -->
<g id="edge48" class="edge">
<title>DPath_dp_id&#45;&gt;DPath_DPath</title>
<path fill="none" stroke="black" d="M1032.71,-667.07C1134.33,-599.56 1580.04,-303.46 1700.11,-223.69"/>
<polygon fill="black" stroke="black" points="1702.11,-226.56 1708.51,-218.11 1698.24,-220.73 1702.11,-226.56"/>
</g>
<!-- DPath_dp_ishprop -->
<g id="node39" class="node">
<title>DPath_dp_ishprop</title>
<g id="a_node39"><a xlink:href="DPath.html#dp_ishprop" xlink:title="dp_ishprop">
<ellipse fill="#f070d1" stroke="black" cx="240" cy="-681.83" rx="61.96" ry="18"/>
<ellipse fill="none" stroke="black" cx="240" cy="-681.83" rx="65.98" ry="22"/>
<ellipse fill="none" stroke="black" cx="240" cy="-681.83" rx="69.99" ry="26"/>
<text text-anchor="middle" x="240" y="-678.13" font-family="Times,serif" font-size="14.00">dp_ishprop</text>
</a>
</g>
</g>
<!-- DPath_dp_ishprop&#45;&gt;DPath_DPath -->
<g id="edge49" class="edge">
<title>DPath_dp_ishprop&#45;&gt;DPath_DPath</title>
<path fill="none" stroke="black" d="M291.72,-664.27C525.34,-589.48 1479.8,-283.93 1689.24,-216.88"/>
<polygon fill="black" stroke="black" points="1690.47,-220.16 1698.93,-213.78 1688.34,-213.49 1690.47,-220.16"/>
</g>
<!-- DPath_istrunc_dp -->
<g id="node40" class="node">
<title>DPath_istrunc_dp</title>
<g id="a_node40"><a xlink:href="DPath.html#istrunc_dp" xlink:title="istrunc_dp">
<ellipse fill="#f070d1" stroke="black" cx="84" cy="-681.83" rx="59.61" ry="18"/>
<ellipse fill="none" stroke="black" cx="84" cy="-681.83" rx="63.6" ry="22"/>
<ellipse fill="none" stroke="black" cx="84" cy="-681.83" rx="67.59" ry="26"/>
<text text-anchor="middle" x="84" y="-678.13" font-family="Times,serif" font-size="14.00">istrunc_dp</text>
</a>
</g>
</g>
<!-- DPath_istrunc_dp&#45;&gt;DPath_DPath -->
<g id="edge50" class="edge">
<title>DPath_istrunc_dp&#45;&gt;DPath_DPath</title>
<path fill="none" stroke="black" d="M134.45,-664.18C143.29,-661.34 152.4,-658.47 161,-655.83 764.19,-471.08 1504.35,-265.97 1687.52,-215.51"/>
<polygon fill="black" stroke="black" points="1688.59,-218.84 1697.3,-212.81 1686.73,-212.09 1688.59,-218.84"/>
</g>
</g>
</svg>
