<?xml version="1.0" encoding="UTF-8" standalone="no"?>
<!DOCTYPE svg PUBLIC "-//W3C//DTD SVG 1.1//EN"
 "http://www.w3.org/Graphics/SVG/1.1/DTD/svg11.dtd">
<!-- Generated by graphviz version 2.43.0 (0)
 -->
<!-- Title: HoTT_Algebra_Rings_Z Pages: 1 -->
<svg width="1086pt" height="547pt"
 viewBox="0.00 0.00 1086.00 547.00" xmlns="http://www.w3.org/2000/svg" xmlns:xlink="http://www.w3.org/1999/xlink">
<g id="graph0" class="graph" transform="scale(1 1) rotate(0) translate(4 543)">
<title>HoTT_Algebra_Rings_Z</title>
<polygon fill="white" stroke="transparent" points="-4,4 -4,-543 1082,-543 1082,4 -4,4"/>
<g id="clust1" class="cluster">
<title>cluster_Z</title>
<polygon fill="#ffffc3" stroke="black" points="11.61,-8 11.61,-531 1066.39,-531 1066.39,-8 11.61,-8"/>
<text text-anchor="middle" x="24.61" y="-515.8" font-family="Times,serif" font-size="14.00">Z</text>
</g>
<!-- Z_isinitial_cring_Z -->
<g id="node1" class="node">
<title>Z_isinitial_cring_Z</title>
<g id="a_node1"><a xlink:href="Z.html#isinitial_cring_Z" xlink:title="isinitial_cring_Z">
<ellipse fill="#f070d1" stroke="black" cx="921.68" cy="-474" rx="84.49" ry="18"/>
<ellipse fill="none" stroke="black" cx="921.68" cy="-474" rx="88.49" ry="22"/>
<ellipse fill="none" stroke="black" cx="921.68" cy="-474" rx="92.49" ry="26"/>
<text text-anchor="middle" x="921.68" y="-470.3" font-family="Times,serif" font-size="14.00">isinitial_cring_Z</text>
</a>
</g>
</g>
<!-- Z_rng_homo_int -->
<g id="node2" class="node">
<title>Z_rng_homo_int</title>
<g id="a_node2"><a xlink:href="Z.html#rng_homo_int" xlink:title="rng_homo_int">
<ellipse fill="#f070d1" stroke="black" cx="796.68" cy="-394" rx="73.39" ry="18"/>
<text text-anchor="middle" x="796.68" y="-390.3" font-family="Times,serif" font-size="14.00">rng_homo_int</text>
</a>
</g>
</g>
<!-- Z_isinitial_cring_Z&#45;&gt;Z_rng_homo_int -->
<g id="edge1" class="edge">
<title>Z_isinitial_cring_Z&#45;&gt;Z_rng_homo_int</title>
<path fill="none" stroke="black" d="M884.85,-450.02C867.84,-439.4 847.75,-426.87 831.05,-416.45"/>
<polygon fill="black" stroke="black" points="832.5,-413.23 822.16,-410.9 828.79,-419.17 832.5,-413.23"/>
</g>
<!-- Z_issemigrouppreserving_cring_catamorphism_fun_mult -->
<g id="node3" class="node">
<title>Z_issemigrouppreserving_cring_catamorphism_fun_mult</title>
<g id="a_node3"><a xlink:href="Z.html#issemigrouppreserving_cring_catamorphism_fun_mult" xlink:title="issemigrouppreserving_cring_catamorphism_fun_mult">
<ellipse fill="#f070d1" stroke="black" cx="673.68" cy="-322" rx="262.65" ry="18"/>
<text text-anchor="middle" x="673.68" y="-318.3" font-family="Times,serif" font-size="14.00">issemigrouppreserving_cring_catamorphism_fun_mult</text>
</a>
</g>
</g>
<!-- Z_rng_homo_int&#45;&gt;Z_issemigrouppreserving_cring_catamorphism_fun_mult -->
<g id="edge2" class="edge">
<title>Z_rng_homo_int&#45;&gt;Z_issemigrouppreserving_cring_catamorphism_fun_mult</title>
<path fill="none" stroke="black" d="M769.07,-377.29C752.4,-367.8 730.88,-355.55 712.51,-345.1"/>
<polygon fill="black" stroke="black" points="714.19,-342.03 703.77,-340.13 710.73,-348.12 714.19,-342.03"/>
</g>
<!-- Z_cring_catamorphism_fun_pos_mult -->
<g id="node4" class="node">
<title>Z_cring_catamorphism_fun_pos_mult</title>
<g id="a_node4"><a xlink:href="Z.html#cring_catamorphism_fun_pos_mult" xlink:title="cring_catamorphism_fun_pos_mult">
<ellipse fill="#f070d1" stroke="black" cx="291.68" cy="-250" rx="170.87" ry="18"/>
<text text-anchor="middle" x="291.68" y="-246.3" font-family="Times,serif" font-size="14.00">cring_catamorphism_fun_pos_mult</text>
</a>
</g>
</g>
<!-- Z_issemigrouppreserving_cring_catamorphism_fun_mult&#45;&gt;Z_cring_catamorphism_fun_pos_mult -->
<g id="edge3" class="edge">
<title>Z_issemigrouppreserving_cring_catamorphism_fun_mult&#45;&gt;Z_cring_catamorphism_fun_pos_mult</title>
<path fill="none" stroke="black" d="M586.04,-304.94C525.22,-293.79 444.38,-278.98 382.81,-267.7"/>
<polygon fill="black" stroke="black" points="383.18,-264.21 372.71,-265.85 381.92,-271.09 383.18,-264.21"/>
</g>
<!-- Z_cring_catamorphism_fun_negate -->
<g id="node5" class="node">
<title>Z_cring_catamorphism_fun_negate</title>
<g id="a_node5"><a xlink:href="Z.html#cring_catamorphism_fun_negate" xlink:title="cring_catamorphism_fun_negate">
<ellipse fill="#f070d1" stroke="black" cx="799.68" cy="-250" rx="161.37" ry="18"/>
<text text-anchor="middle" x="799.68" y="-246.3" font-family="Times,serif" font-size="14.00">cring_catamorphism_fun_negate</text>
</a>
</g>
</g>
<!-- Z_issemigrouppreserving_cring_catamorphism_fun_mult&#45;&gt;Z_cring_catamorphism_fun_negate -->
<g id="edge4" class="edge">
<title>Z_issemigrouppreserving_cring_catamorphism_fun_mult&#45;&gt;Z_cring_catamorphism_fun_negate</title>
<path fill="none" stroke="black" d="M704.18,-304.05C721.05,-294.68 742.2,-282.93 760.3,-272.87"/>
<polygon fill="black" stroke="black" points="762.41,-275.71 769.46,-267.79 759.02,-269.59 762.41,-275.71"/>
</g>
<!-- Z_issemigrouppreserving_cring_catamorphism_fun_plus -->
<g id="node6" class="node">
<title>Z_issemigrouppreserving_cring_catamorphism_fun_plus</title>
<g id="a_node6"><a xlink:href="Z.html#issemigrouppreserving_cring_catamorphism_fun_plus" xlink:title="issemigrouppreserving_cring_catamorphism_fun_plus">
<ellipse fill="#f070d1" stroke="black" cx="538.68" cy="-178" rx="260.75" ry="18"/>
<text text-anchor="middle" x="538.68" y="-174.3" font-family="Times,serif" font-size="14.00">issemigrouppreserving_cring_catamorphism_fun_plus</text>
</a>
</g>
</g>
<!-- Z_cring_catamorphism_fun_pos_mult&#45;&gt;Z_issemigrouppreserving_cring_catamorphism_fun_plus -->
<g id="edge5" class="edge">
<title>Z_cring_catamorphism_fun_pos_mult&#45;&gt;Z_issemigrouppreserving_cring_catamorphism_fun_plus</title>
<path fill="none" stroke="black" d="M348.34,-232.94C384.56,-222.68 431.75,-209.3 470.08,-198.44"/>
<polygon fill="black" stroke="black" points="471.46,-201.69 480.13,-195.59 469.55,-194.95 471.46,-201.69"/>
</g>
<!-- Z_cring_catamorphism_fun_negate&#45;&gt;Z_issemigrouppreserving_cring_catamorphism_fun_plus -->
<g id="edge6" class="edge">
<title>Z_cring_catamorphism_fun_negate&#45;&gt;Z_issemigrouppreserving_cring_catamorphism_fun_plus</title>
<path fill="none" stroke="black" d="M740.78,-233.2C702.08,-222.83 651.22,-209.18 610.21,-198.18"/>
<polygon fill="black" stroke="black" points="611.11,-194.8 600.54,-195.59 609.29,-201.56 611.11,-194.8"/>
</g>
<!-- Z_cring_catamorphism_fun -->
<g id="node9" class="node">
<title>Z_cring_catamorphism_fun</title>
<g id="a_node9"><a xlink:href="Z.html#cring_catamorphism_fun" xlink:title="cring_catamorphism_fun">
<ellipse fill="#f070d1" stroke="black" cx="538.68" cy="-106" rx="124.58" ry="18"/>
<text text-anchor="middle" x="538.68" y="-102.3" font-family="Times,serif" font-size="14.00">cring_catamorphism_fun</text>
</a>
</g>
</g>
<!-- Z_issemigrouppreserving_cring_catamorphism_fun_plus&#45;&gt;Z_cring_catamorphism_fun -->
<g id="edge7" class="edge">
<title>Z_issemigrouppreserving_cring_catamorphism_fun_plus&#45;&gt;Z_cring_catamorphism_fun</title>
<path fill="none" stroke="black" d="M538.68,-159.7C538.68,-151.98 538.68,-142.71 538.68,-134.11"/>
<polygon fill="black" stroke="black" points="542.18,-134.1 538.68,-124.1 535.18,-134.1 542.18,-134.1"/>
</g>
<!-- Z_isequiv_group_right_op -->
<g id="node7" class="node">
<title>Z_isequiv_group_right_op</title>
<g id="a_node7"><a xlink:href="Z.html#isequiv_group_right_op" xlink:title="isequiv_group_right_op">
<ellipse fill="#f070d1" stroke="black" cx="577.68" cy="-474" rx="118.09" ry="18"/>
<ellipse fill="none" stroke="black" cx="577.68" cy="-474" rx="122.09" ry="22"/>
<ellipse fill="none" stroke="black" cx="577.68" cy="-474" rx="126.08" ry="26"/>
<text text-anchor="middle" x="577.68" y="-470.3" font-family="Times,serif" font-size="14.00">isequiv_group_right_op</text>
</a>
</g>
</g>
<!-- Z_isequiv_group_left_op -->
<g id="node8" class="node">
<title>Z_isequiv_group_left_op</title>
<g id="a_node8"><a xlink:href="Z.html#isequiv_group_left_op" xlink:title="isequiv_group_left_op">
<ellipse fill="#f070d1" stroke="black" cx="195.68" cy="-474" rx="111.27" ry="18"/>
<ellipse fill="none" stroke="black" cx="195.68" cy="-474" rx="115.28" ry="22"/>
<ellipse fill="none" stroke="black" cx="195.68" cy="-474" rx="119.28" ry="26"/>
<text text-anchor="middle" x="195.68" y="-470.3" font-family="Times,serif" font-size="14.00">isequiv_group_left_op</text>
</a>
</g>
</g>
<!-- Z_cring_Z -->
<g id="node10" class="node">
<title>Z_cring_Z</title>
<g id="a_node10"><a xlink:href="Z.html#cring_Z" xlink:title="cring_Z">
<ellipse fill="#f070d1" stroke="black" cx="538.68" cy="-34" rx="45.49" ry="18"/>
<text text-anchor="middle" x="538.68" y="-30.3" font-family="Times,serif" font-size="14.00">cring_Z</text>
</a>
</g>
</g>
<!-- Z_cring_catamorphism_fun&#45;&gt;Z_cring_Z -->
<g id="edge8" class="edge">
<title>Z_cring_catamorphism_fun&#45;&gt;Z_cring_Z</title>
<path fill="none" stroke="black" d="M538.68,-87.7C538.68,-79.98 538.68,-70.71 538.68,-62.11"/>
<polygon fill="black" stroke="black" points="542.18,-62.1 538.68,-52.1 535.18,-62.1 542.18,-62.1"/>
</g>
</g>
</svg>
