<?xml version="1.0" encoding="UTF-8" standalone="no"?>
<!DOCTYPE svg PUBLIC "-//W3C//DTD SVG 1.1//EN"
 "http://www.w3.org/Graphics/SVG/1.1/DTD/svg11.dtd">
<!-- Generated by graphviz version 2.43.0 (0)
 -->
<!-- Title: HoTT_Truncations_SeparatedTrunc Pages: 1 -->
<svg width="654pt" height="331pt"
 viewBox="0.00 0.00 654.00 331.00" xmlns="http://www.w3.org/2000/svg" xmlns:xlink="http://www.w3.org/1999/xlink">
<g id="graph0" class="graph" transform="scale(1 1) rotate(0) translate(4 327)">
<title>HoTT_Truncations_SeparatedTrunc</title>
<polygon fill="white" stroke="transparent" points="-4,4 -4,-327 650,-327 650,4 -4,4"/>
<g id="clust1" class="cluster">
<title>cluster_SeparatedTrunc</title>
<polygon fill="#ffffc3" stroke="black" points="15.85,-8 15.85,-315 630.15,-315 630.15,-8 15.85,-8"/>
<text text-anchor="middle" x="81.35" y="-299.8" font-family="Times,serif" font-size="14.00">SeparatedTrunc</text>
</g>
<!-- SeparatedTrunc_equiv_path_Tr -->
<g id="node1" class="node">
<title>SeparatedTrunc_equiv_path_Tr</title>
<g id="a_node1"><a xlink:href="SeparatedTrunc.html#equiv_path_Tr" xlink:title="equiv_path_Tr">
<ellipse fill="#f070d1" stroke="black" cx="447.84" cy="-258" rx="76.08" ry="18"/>
<ellipse fill="none" stroke="black" cx="447.84" cy="-258" rx="80.08" ry="22"/>
<ellipse fill="none" stroke="black" cx="447.84" cy="-258" rx="84.09" ry="26"/>
<text text-anchor="middle" x="447.84" y="-254.3" font-family="Times,serif" font-size="14.00">equiv_path_Tr</text>
</a>
</g>
</g>
<!-- SeparatedTrunc_O_lex_leq_Tr -->
<g id="node3" class="node">
<title>SeparatedTrunc_O_lex_leq_Tr</title>
<g id="a_node3"><a xlink:href="SeparatedTrunc.html#O_lex_leq_Tr" xlink:title="O_lex_leq_Tr">
<ellipse fill="#f070d1" stroke="black" cx="445.84" cy="-178" rx="69.59" ry="18"/>
<text text-anchor="middle" x="445.84" y="-174.3" font-family="Times,serif" font-size="14.00">O_lex_leq_Tr</text>
</a>
</g>
</g>
<!-- SeparatedTrunc_equiv_path_Tr&#45;&gt;SeparatedTrunc_O_lex_leq_Tr -->
<g id="edge1" class="edge">
<title>SeparatedTrunc_equiv_path_Tr&#45;&gt;SeparatedTrunc_O_lex_leq_Tr</title>
<path fill="none" stroke="black" d="M447.2,-231.89C446.99,-223.84 446.76,-214.88 446.55,-206.66"/>
<polygon fill="black" stroke="black" points="450.04,-206.32 446.29,-196.41 443.04,-206.5 450.04,-206.32"/>
</g>
<!-- SeparatedTrunc_O_eq_Tr -->
<g id="node6" class="node">
<title>SeparatedTrunc_O_eq_Tr</title>
<g id="a_node6"><a xlink:href="SeparatedTrunc.html#O_eq_Tr" xlink:title="O_eq_Tr">
<ellipse fill="#f070d1" stroke="black" cx="156.84" cy="-178" rx="48.19" ry="18"/>
<text text-anchor="middle" x="156.84" y="-174.3" font-family="Times,serif" font-size="14.00">O_eq_Tr</text>
</a>
</g>
</g>
<!-- SeparatedTrunc_equiv_path_Tr&#45;&gt;SeparatedTrunc_O_eq_Tr -->
<g id="edge2" class="edge">
<title>SeparatedTrunc_equiv_path_Tr&#45;&gt;SeparatedTrunc_O_eq_Tr</title>
<path fill="none" stroke="black" d="M385.77,-240.36C331.58,-225.84 254.08,-205.06 204.61,-191.8"/>
<polygon fill="black" stroke="black" points="205.36,-188.38 194.8,-189.17 203.55,-195.14 205.36,-188.38"/>
</g>
<!-- SeparatedTrunc_path_Tr -->
<g id="node2" class="node">
<title>SeparatedTrunc_path_Tr</title>
<g id="a_node2"><a xlink:href="SeparatedTrunc.html#path_Tr" xlink:title="path_Tr">
<ellipse fill="#f070d1" stroke="black" cx="138.84" cy="-258" rx="46.27" ry="18"/>
<ellipse fill="none" stroke="black" cx="138.84" cy="-258" rx="50.28" ry="22"/>
<ellipse fill="none" stroke="black" cx="138.84" cy="-258" rx="54.29" ry="26"/>
<text text-anchor="middle" x="138.84" y="-254.3" font-family="Times,serif" font-size="14.00">path_Tr</text>
</a>
</g>
</g>
<!-- SeparatedTrunc_path_Tr&#45;&gt;SeparatedTrunc_O_eq_Tr -->
<g id="edge3" class="edge">
<title>SeparatedTrunc_path_Tr&#45;&gt;SeparatedTrunc_O_eq_Tr</title>
<path fill="none" stroke="black" d="M144.63,-231.89C146.51,-223.75 148.61,-214.68 150.52,-206.38"/>
<polygon fill="black" stroke="black" points="153.98,-206.94 152.82,-196.41 147.16,-205.37 153.98,-206.94"/>
</g>
<!-- SeparatedTrunc_O_strong_leq_Tr -->
<g id="node4" class="node">
<title>SeparatedTrunc_O_strong_leq_Tr</title>
<g id="a_node4"><a xlink:href="SeparatedTrunc.html#O_strong_leq_Tr" xlink:title="O_strong_leq_Tr">
<ellipse fill="#f070d1" stroke="black" cx="443.84" cy="-106" rx="85.59" ry="18"/>
<text text-anchor="middle" x="443.84" y="-102.3" font-family="Times,serif" font-size="14.00">O_strong_leq_Tr</text>
</a>
</g>
</g>
<!-- SeparatedTrunc_O_lex_leq_Tr&#45;&gt;SeparatedTrunc_O_strong_leq_Tr -->
<g id="edge4" class="edge">
<title>SeparatedTrunc_O_lex_leq_Tr&#45;&gt;SeparatedTrunc_O_strong_leq_Tr</title>
<path fill="none" stroke="black" d="M445.35,-159.7C445.13,-151.98 444.86,-142.71 444.62,-134.11"/>
<polygon fill="black" stroke="black" points="448.11,-134 444.33,-124.1 441.12,-134.2 448.11,-134"/>
</g>
<!-- SeparatedTrunc_O_leq_Tr -->
<g id="node5" class="node">
<title>SeparatedTrunc_O_leq_Tr</title>
<g id="a_node5"><a xlink:href="SeparatedTrunc.html#O_leq_Tr" xlink:title="O_leq_Tr">
<ellipse fill="#f070d1" stroke="black" cx="443.84" cy="-34" rx="51.19" ry="18"/>
<text text-anchor="middle" x="443.84" y="-30.3" font-family="Times,serif" font-size="14.00">O_leq_Tr</text>
</a>
</g>
</g>
<!-- SeparatedTrunc_O_strong_leq_Tr&#45;&gt;SeparatedTrunc_O_leq_Tr -->
<g id="edge5" class="edge">
<title>SeparatedTrunc_O_strong_leq_Tr&#45;&gt;SeparatedTrunc_O_leq_Tr</title>
<path fill="none" stroke="black" d="M443.84,-87.7C443.84,-79.98 443.84,-70.71 443.84,-62.11"/>
<polygon fill="black" stroke="black" points="447.34,-62.1 443.84,-52.1 440.34,-62.1 447.34,-62.1"/>
</g>
</g>
</svg>
