<?xml version="1.0" encoding="UTF-8" standalone="no"?>
<!DOCTYPE svg PUBLIC "-//W3C//DTD SVG 1.1//EN"
 "http://www.w3.org/Graphics/SVG/1.1/DTD/svg11.dtd">
<!-- Generated by graphviz version 2.43.0 (0)
 -->
<!-- Title: HoTT_Homotopy_Wedge Pages: 1 -->
<svg width="2808pt" height="1407pt"
 viewBox="0.00 0.00 2807.57 1407.00" xmlns="http://www.w3.org/2000/svg" xmlns:xlink="http://www.w3.org/1999/xlink">
<g id="graph0" class="graph" transform="scale(1 1) rotate(0) translate(4 1403)">
<title>HoTT_Homotopy_Wedge</title>
<polygon fill="white" stroke="transparent" points="-4,4 -4,-1403 2803.57,-1403 2803.57,4 -4,4"/>
<g id="clust1" class="cluster">
<title>cluster_Wedge</title>
<polygon fill="#ffffc3" stroke="black" points="9.57,-16.98 9.57,-1382.02 2791.57,-1382.02 2791.57,-16.98 9.57,-16.98"/>
<text text-anchor="middle" x="42.07" y="-1366.82" font-family="Times,serif" font-size="14.00">Wedge</text>
</g>
<!-- Wedge_isconnected_wedge -->
<g id="node1" class="node">
<title>Wedge_isconnected_wedge</title>
<g id="a_node1"><a xlink:href="Wedge.html#isconnected_wedge" xlink:title="isconnected_wedge">
<ellipse fill="#f070d1" stroke="black" cx="803.57" cy="-700.98" rx="100.96" ry="18"/>
<ellipse fill="none" stroke="black" cx="803.57" cy="-700.98" rx="104.97" ry="22"/>
<ellipse fill="none" stroke="black" cx="803.57" cy="-700.98" rx="108.98" ry="26"/>
<text text-anchor="middle" x="803.57" y="-697.28" font-family="Times,serif" font-size="14.00">isconnected_wedge</text>
</a>
</g>
</g>
<!-- Wedge_wedge_ind -->
<g id="node24" class="node">
<title>Wedge_wedge_ind</title>
<g id="a_node24"><a xlink:href="Wedge.html#wedge_ind" xlink:title="wedge_ind">
<ellipse fill="#f070d1" stroke="black" cx="1018.57" cy="-530.98" rx="59.59" ry="18"/>
<text text-anchor="middle" x="1018.57" y="-527.28" font-family="Times,serif" font-size="14.00">wedge_ind</text>
</a>
</g>
</g>
<!-- Wedge_isconnected_wedge&#45;&gt;Wedge_wedge_ind -->
<g id="edge1" class="edge">
<title>Wedge_isconnected_wedge&#45;&gt;Wedge_wedge_ind</title>
<path fill="none" stroke="black" d="M834.38,-675.91C876,-643.39 949.64,-585.84 990.06,-554.27"/>
<polygon fill="black" stroke="black" points="992.43,-556.85 998.15,-547.94 988.12,-551.34 992.43,-556.85"/>
</g>
<!-- Wedge_conn_map_wedge_incl -->
<g id="node2" class="node">
<title>Wedge_conn_map_wedge_incl</title>
<g id="a_node2"><a xlink:href="Wedge.html#conn_map_wedge_incl" xlink:title="conn_map_wedge_incl">
<ellipse fill="#f070d1" stroke="black" cx="1588.57" cy="-1260.98" rx="112.38" ry="18"/>
<ellipse fill="none" stroke="black" cx="1588.57" cy="-1260.98" rx="116.38" ry="22"/>
<ellipse fill="none" stroke="black" cx="1588.57" cy="-1260.98" rx="120.38" ry="26"/>
<text text-anchor="middle" x="1588.57" y="-1257.28" font-family="Times,serif" font-size="14.00">conn_map_wedge_incl</text>
</a>
</g>
</g>
<!-- Wedge_extension_wedge_incl -->
<g id="node3" class="node">
<title>Wedge_extension_wedge_incl</title>
<g id="a_node3"><a xlink:href="Wedge.html#extension_wedge_incl" xlink:title="extension_wedge_incl">
<ellipse fill="#f070d1" stroke="black" cx="1588.57" cy="-1073.98" rx="111.28" ry="18"/>
<text text-anchor="middle" x="1588.57" y="-1070.28" font-family="Times,serif" font-size="14.00">extension_wedge_incl</text>
</a>
</g>
</g>
<!-- Wedge_conn_map_wedge_incl&#45;&gt;Wedge_extension_wedge_incl -->
<g id="edge2" class="edge">
<title>Wedge_conn_map_wedge_incl&#45;&gt;Wedge_extension_wedge_incl</title>
<path fill="none" stroke="black" d="M1588.57,-1234.65C1588.57,-1199.94 1588.57,-1137.86 1588.57,-1102.2"/>
<polygon fill="black" stroke="black" points="1592.07,-1102.04 1588.57,-1092.04 1585.07,-1102.04 1592.07,-1102.04"/>
</g>
<!-- Wedge_extension_wedge_incl&#45;&gt;Wedge_wedge_ind -->
<g id="edge3" class="edge">
<title>Wedge_extension_wedge_incl&#45;&gt;Wedge_wedge_ind</title>
<path fill="none" stroke="black" d="M1554.43,-1056.79C1469.79,-1014.88 1248.98,-894.3 1135.57,-726.98 1121.68,-706.49 1127.04,-696.93 1115.57,-674.98 1092.65,-631.13 1059,-584.43 1037.96,-556.75"/>
<polygon fill="black" stroke="black" points="1040.73,-554.6 1031.86,-548.79 1035.17,-558.86 1040.73,-554.6"/>
</g>
<!-- Wedge_wedge_incl_beta_wglue -->
<g id="node25" class="node">
<title>Wedge_wedge_incl_beta_wglue</title>
<g id="a_node25"><a xlink:href="Wedge.html#wedge_incl_beta_wglue" xlink:title="wedge_incl_beta_wglue">
<ellipse fill="#f070d1" stroke="black" cx="2050.57" cy="-886.98" rx="118.88" ry="18"/>
<text text-anchor="middle" x="2050.57" y="-883.28" font-family="Times,serif" font-size="14.00">wedge_incl_beta_wglue</text>
</a>
</g>
</g>
<!-- Wedge_extension_wedge_incl&#45;&gt;Wedge_wedge_incl_beta_wglue -->
<g id="edge4" class="edge">
<title>Wedge_extension_wedge_incl&#45;&gt;Wedge_wedge_incl_beta_wglue</title>
<path fill="none" stroke="black" d="M1628.36,-1057.05C1712.71,-1023.28 1909.27,-944.57 2001.34,-907.7"/>
<polygon fill="black" stroke="black" points="2002.73,-910.91 2010.72,-903.94 2000.13,-904.41 2002.73,-910.91"/>
</g>
<!-- Wedge_wedge_pr2_psusp_pinch -->
<g id="node4" class="node">
<title>Wedge_wedge_pr2_psusp_pinch</title>
<g id="a_node4"><a xlink:href="Wedge.html#wedge_pr2_psusp_pinch" xlink:title="wedge_pr2_psusp_pinch">
<ellipse fill="#f070d1" stroke="black" cx="1476.57" cy="-886.98" rx="122.69" ry="18"/>
<ellipse fill="none" stroke="black" cx="1476.57" cy="-886.98" rx="126.68" ry="22"/>
<ellipse fill="none" stroke="black" cx="1476.57" cy="-886.98" rx="130.68" ry="26"/>
<text text-anchor="middle" x="1476.57" y="-883.28" font-family="Times,serif" font-size="14.00">wedge_pr2_psusp_pinch</text>
</a>
</g>
</g>
<!-- Wedge_psusp_pinch_beta_merid -->
<g id="node6" class="node">
<title>Wedge_psusp_pinch_beta_merid</title>
<g id="a_node6"><a xlink:href="Wedge.html#psusp_pinch_beta_merid" xlink:title="psusp_pinch_beta_merid">
<ellipse fill="#f070d1" stroke="black" cx="1476.57" cy="-700.98" rx="124.28" ry="18"/>
<text text-anchor="middle" x="1476.57" y="-697.28" font-family="Times,serif" font-size="14.00">psusp_pinch_beta_merid</text>
</a>
</g>
</g>
<!-- Wedge_wedge_pr2_psusp_pinch&#45;&gt;Wedge_psusp_pinch_beta_merid -->
<g id="edge5" class="edge">
<title>Wedge_wedge_pr2_psusp_pinch&#45;&gt;Wedge_psusp_pinch_beta_merid</title>
<path fill="none" stroke="black" d="M1476.57,-860.78C1476.57,-826.35 1476.57,-764.84 1476.57,-729.33"/>
<polygon fill="black" stroke="black" points="1480.07,-729.2 1476.57,-719.2 1473.07,-729.2 1480.07,-729.2"/>
</g>
<!-- Wedge_wedge_pr2 -->
<g id="node27" class="node">
<title>Wedge_wedge_pr2</title>
<g id="a_node27"><a xlink:href="Wedge.html#wedge_pr2" xlink:title="wedge_pr2">
<ellipse fill="#f070d1" stroke="black" cx="1721.57" cy="-530.98" rx="61.99" ry="18"/>
<text text-anchor="middle" x="1721.57" y="-527.28" font-family="Times,serif" font-size="14.00">wedge_pr2</text>
</a>
</g>
</g>
<!-- Wedge_wedge_pr2_psusp_pinch&#45;&gt;Wedge_wedge_pr2 -->
<g id="edge6" class="edge">
<title>Wedge_wedge_pr2_psusp_pinch&#45;&gt;Wedge_wedge_pr2</title>
<path fill="none" stroke="black" d="M1441.48,-861.83C1388.26,-822.17 1297.92,-741.07 1343.57,-674.98 1412.89,-574.65 1562.31,-544.64 1651.13,-535.71"/>
<polygon fill="black" stroke="black" points="1651.49,-539.19 1661.12,-534.77 1650.83,-532.23 1651.49,-539.19"/>
</g>
<!-- Wedge_wedge_rec_beta_wglue -->
<g id="node31" class="node">
<title>Wedge_wedge_rec_beta_wglue</title>
<g id="a_node31"><a xlink:href="Wedge.html#wedge_rec_beta_wglue" xlink:title="wedge_rec_beta_wglue">
<ellipse fill="#f070d1" stroke="black" cx="2281.57" cy="-530.98" rx="116.98" ry="18"/>
<text text-anchor="middle" x="2281.57" y="-527.28" font-family="Times,serif" font-size="14.00">wedge_rec_beta_wglue</text>
</a>
</g>
</g>
<!-- Wedge_wedge_pr2_psusp_pinch&#45;&gt;Wedge_wedge_rec_beta_wglue -->
<g id="edge7" class="edge">
<title>Wedge_wedge_pr2_psusp_pinch&#45;&gt;Wedge_wedge_rec_beta_wglue</title>
<path fill="none" stroke="black" d="M1574.49,-869.73C1798.92,-832.25 2332.19,-741.84 2344.57,-726.98 2366.36,-700.84 2320.4,-604.86 2295.78,-558.03"/>
<polygon fill="black" stroke="black" points="2298.81,-556.28 2291.02,-549.09 2292.63,-559.56 2298.81,-556.28"/>
</g>
<!-- Wedge_wedge_pr1_psusp_pinch -->
<g id="node5" class="node">
<title>Wedge_wedge_pr1_psusp_pinch</title>
<g id="a_node5"><a xlink:href="Wedge.html#wedge_pr1_psusp_pinch" xlink:title="wedge_pr1_psusp_pinch">
<ellipse fill="#f070d1" stroke="black" cx="1782.57" cy="-886.98" rx="122.69" ry="18"/>
<ellipse fill="none" stroke="black" cx="1782.57" cy="-886.98" rx="126.68" ry="22"/>
<ellipse fill="none" stroke="black" cx="1782.57" cy="-886.98" rx="130.68" ry="26"/>
<text text-anchor="middle" x="1782.57" y="-883.28" font-family="Times,serif" font-size="14.00">wedge_pr1_psusp_pinch</text>
</a>
</g>
</g>
<!-- Wedge_wedge_pr1_psusp_pinch&#45;&gt;Wedge_psusp_pinch_beta_merid -->
<g id="edge8" class="edge">
<title>Wedge_wedge_pr1_psusp_pinch&#45;&gt;Wedge_psusp_pinch_beta_merid</title>
<path fill="none" stroke="black" d="M1742.88,-862.12C1683.17,-826.21 1571.08,-758.81 1513.21,-724.01"/>
<polygon fill="black" stroke="black" points="1514.78,-720.87 1504.41,-718.72 1511.17,-726.87 1514.78,-720.87"/>
</g>
<!-- Wedge_wedge_pr1 -->
<g id="node28" class="node">
<title>Wedge_wedge_pr1</title>
<g id="a_node28"><a xlink:href="Wedge.html#wedge_pr1" xlink:title="wedge_pr1">
<ellipse fill="#f070d1" stroke="black" cx="1862.57" cy="-530.98" rx="61.99" ry="18"/>
<text text-anchor="middle" x="1862.57" y="-527.28" font-family="Times,serif" font-size="14.00">wedge_pr1</text>
</a>
</g>
</g>
<!-- Wedge_wedge_pr1_psusp_pinch&#45;&gt;Wedge_wedge_pr1 -->
<g id="edge9" class="edge">
<title>Wedge_wedge_pr1_psusp_pinch&#45;&gt;Wedge_wedge_pr1</title>
<path fill="none" stroke="black" d="M1785.59,-860.75C1790.62,-820.93 1801.73,-741.25 1817.57,-674.98 1827.44,-633.73 1842.98,-587.04 1852.97,-558.56"/>
<polygon fill="black" stroke="black" points="1856.34,-559.53 1856.38,-548.94 1849.75,-557.19 1856.34,-559.53"/>
</g>
<!-- Wedge_wedge_pr1_psusp_pinch&#45;&gt;Wedge_wedge_rec_beta_wglue -->
<g id="edge10" class="edge">
<title>Wedge_wedge_pr1_psusp_pinch&#45;&gt;Wedge_wedge_rec_beta_wglue</title>
<path fill="none" stroke="black" d="M1870.98,-867.75C2025.12,-835.08 2329.61,-766.32 2359.57,-726.98 2400.31,-673.5 2341.9,-595.9 2306.04,-556.67"/>
<polygon fill="black" stroke="black" points="2308.16,-553.81 2298.77,-548.9 2303.04,-558.6 2308.16,-553.81"/>
</g>
<!-- Wedge_psusp_pinch -->
<g id="node7" class="node">
<title>Wedge_psusp_pinch</title>
<g id="a_node7"><a xlink:href="Wedge.html#psusp_pinch" xlink:title="psusp_pinch">
<ellipse fill="#f070d1" stroke="black" cx="1476.57" cy="-530.98" rx="67.69" ry="18"/>
<text text-anchor="middle" x="1476.57" y="-527.28" font-family="Times,serif" font-size="14.00">psusp_pinch</text>
</a>
</g>
</g>
<!-- Wedge_psusp_pinch_beta_merid&#45;&gt;Wedge_psusp_pinch -->
<g id="edge11" class="edge">
<title>Wedge_psusp_pinch_beta_merid&#45;&gt;Wedge_psusp_pinch</title>
<path fill="none" stroke="black" d="M1476.57,-682.95C1476.57,-653.89 1476.57,-594.51 1476.57,-559.5"/>
<polygon fill="black" stroke="black" points="1480.07,-559.06 1476.57,-549.06 1473.07,-559.06 1480.07,-559.06"/>
</g>
<!-- Wedge_wedge_inr -->
<g id="node34" class="node">
<title>Wedge_wedge_inr</title>
<g id="a_node34"><a xlink:href="Wedge.html#wedge_inr" xlink:title="wedge_inr">
<ellipse fill="#f070d1" stroke="black" cx="2055.57" cy="-377.98" rx="58.49" ry="18"/>
<text text-anchor="middle" x="2055.57" y="-374.28" font-family="Times,serif" font-size="14.00">wedge_inr</text>
</a>
</g>
</g>
<!-- Wedge_psusp_pinch&#45;&gt;Wedge_wedge_inr -->
<g id="edge12" class="edge">
<title>Wedge_psusp_pinch&#45;&gt;Wedge_wedge_inr</title>
<path fill="none" stroke="black" d="M1522.98,-517.88C1629.39,-490.13 1890.43,-422.05 2002.76,-392.76"/>
<polygon fill="black" stroke="black" points="2003.73,-396.12 2012.52,-390.21 2001.96,-389.35 2003.73,-396.12"/>
</g>
<!-- Wedge_wedge_inl -->
<g id="node35" class="node">
<title>Wedge_wedge_inl</title>
<g id="a_node35"><a xlink:href="Wedge.html#wedge_inl" xlink:title="wedge_inl">
<ellipse fill="#f070d1" stroke="black" cx="1393.57" cy="-377.98" rx="57.39" ry="18"/>
<text text-anchor="middle" x="1393.57" y="-374.28" font-family="Times,serif" font-size="14.00">wedge_inl</text>
</a>
</g>
</g>
<!-- Wedge_psusp_pinch&#45;&gt;Wedge_wedge_inl -->
<g id="edge13" class="edge">
<title>Wedge_psusp_pinch&#45;&gt;Wedge_wedge_inl</title>
<path fill="none" stroke="black" d="M1467.21,-512.96C1452.77,-486.67 1424.93,-436.03 1407.93,-405.1"/>
<polygon fill="black" stroke="black" points="1410.91,-403.26 1403.03,-396.18 1404.78,-406.63 1410.91,-403.26"/>
</g>
<!-- Wedge_fwedge_incl -->
<g id="node8" class="node">
<title>Wedge_fwedge_incl</title>
<g id="a_node8"><a xlink:href="Wedge.html#fwedge_incl" xlink:title="fwedge_incl">
<ellipse fill="#f070d1" stroke="black" cx="2502.57" cy="-1260.98" rx="65.77" ry="18"/>
<ellipse fill="none" stroke="black" cx="2502.57" cy="-1260.98" rx="69.78" ry="22"/>
<ellipse fill="none" stroke="black" cx="2502.57" cy="-1260.98" rx="73.79" ry="26"/>
<text text-anchor="middle" x="2502.57" y="-1257.28" font-family="Times,serif" font-size="14.00">fwedge_incl</text>
</a>
</g>
</g>
<!-- Wedge_hasallcoproducts_ptype -->
<g id="node9" class="node">
<title>Wedge_hasallcoproducts_ptype</title>
<g id="a_node9"><a xlink:href="Wedge.html#hasallcoproducts_ptype" xlink:title="hasallcoproducts_ptype">
<ellipse fill="#f070d1" stroke="black" cx="2502.57" cy="-1073.98" rx="120.48" ry="18"/>
<text text-anchor="middle" x="2502.57" y="-1070.28" font-family="Times,serif" font-size="14.00">hasallcoproducts_ptype</text>
</a>
</g>
</g>
<!-- Wedge_fwedge_incl&#45;&gt;Wedge_hasallcoproducts_ptype -->
<g id="edge14" class="edge">
<title>Wedge_fwedge_incl&#45;&gt;Wedge_hasallcoproducts_ptype</title>
<path fill="none" stroke="black" d="M2502.57,-1234.65C2502.57,-1199.94 2502.57,-1137.86 2502.57,-1102.2"/>
<polygon fill="black" stroke="black" points="2506.07,-1102.04 2502.57,-1092.04 2499.07,-1102.04 2506.07,-1102.04"/>
</g>
<!-- Wedge_fwedge_rec -->
<g id="node10" class="node">
<title>Wedge_fwedge_rec</title>
<g id="a_node10"><a xlink:href="Wedge.html#fwedge_rec" xlink:title="fwedge_rec">
<ellipse fill="#f070d1" stroke="black" cx="2432.57" cy="-886.98" rx="63.89" ry="18"/>
<text text-anchor="middle" x="2432.57" y="-883.28" font-family="Times,serif" font-size="14.00">fwedge_rec</text>
</a>
</g>
</g>
<!-- Wedge_hasallcoproducts_ptype&#45;&gt;Wedge_fwedge_rec -->
<g id="edge15" class="edge">
<title>Wedge_hasallcoproducts_ptype&#45;&gt;Wedge_fwedge_rec</title>
<path fill="none" stroke="black" d="M2496.11,-1055.91C2483.87,-1023.56 2457.22,-953.12 2442.62,-914.54"/>
<polygon fill="black" stroke="black" points="2445.83,-913.13 2439.02,-905.01 2439.28,-915.61 2445.83,-913.13"/>
</g>
<!-- Wedge_fwedge_in_ -->
<g id="node12" class="node">
<title>Wedge_fwedge_in_</title>
<g id="a_node12"><a xlink:href="Wedge.html#fwedge_in'" xlink:title="fwedge_in&#39;">
<ellipse fill="#f070d1" stroke="black" cx="2573.57" cy="-886.98" rx="59.59" ry="18"/>
<text text-anchor="middle" x="2573.57" y="-883.28" font-family="Times,serif" font-size="14.00">fwedge_in&#39;</text>
</a>
</g>
</g>
<!-- Wedge_hasallcoproducts_ptype&#45;&gt;Wedge_fwedge_in_ -->
<g id="edge16" class="edge">
<title>Wedge_hasallcoproducts_ptype&#45;&gt;Wedge_fwedge_in_</title>
<path fill="none" stroke="black" d="M2509.13,-1055.91C2521.54,-1023.56 2548.58,-953.12 2563.38,-914.54"/>
<polygon fill="black" stroke="black" points="2566.72,-915.6 2567.04,-905.01 2560.19,-913.1 2566.72,-915.6"/>
</g>
<!-- Wedge_FamilyWedge -->
<g id="node13" class="node">
<title>Wedge_FamilyWedge</title>
<g id="a_node13"><a xlink:href="Wedge.html#FamilyWedge" xlink:title="FamilyWedge">
<ellipse fill="#f070d1" stroke="black" cx="2710.57" cy="-700.98" rx="73.39" ry="18"/>
<text text-anchor="middle" x="2710.57" y="-697.28" font-family="Times,serif" font-size="14.00">FamilyWedge</text>
</a>
</g>
</g>
<!-- Wedge_fwedge_rec&#45;&gt;Wedge_FamilyWedge -->
<g id="edge17" class="edge">
<title>Wedge_fwedge_rec&#45;&gt;Wedge_FamilyWedge</title>
<path fill="none" stroke="black" d="M2456.76,-869.98C2506.66,-836.94 2621.11,-761.2 2677.68,-723.75"/>
<polygon fill="black" stroke="black" points="2679.84,-726.52 2686.25,-718.08 2675.98,-720.68 2679.84,-726.52"/>
</g>
<!-- Wedge_fwedge_in -->
<g id="node11" class="node">
<title>Wedge_fwedge_in</title>
<g id="a_node11"><a xlink:href="Wedge.html#fwedge_in" xlink:title="fwedge_in">
<ellipse fill="#f070d1" stroke="black" cx="2717.57" cy="-886.98" rx="57.71" ry="18"/>
<ellipse fill="none" stroke="black" cx="2717.57" cy="-886.98" rx="61.7" ry="22"/>
<ellipse fill="none" stroke="black" cx="2717.57" cy="-886.98" rx="65.69" ry="26"/>
<text text-anchor="middle" x="2717.57" y="-883.28" font-family="Times,serif" font-size="14.00">fwedge_in</text>
</a>
</g>
</g>
<!-- Wedge_fwedge_in&#45;&gt;Wedge_FamilyWedge -->
<g id="edge18" class="edge">
<title>Wedge_fwedge_in&#45;&gt;Wedge_FamilyWedge</title>
<path fill="none" stroke="black" d="M2716.62,-860.78C2715.31,-826.35 2712.97,-764.84 2711.61,-729.33"/>
<polygon fill="black" stroke="black" points="2715.11,-729.06 2711.23,-719.2 2708.11,-729.33 2715.11,-729.06"/>
</g>
<!-- Wedge_fwedge_in_&#45;&gt;Wedge_FamilyWedge -->
<g id="edge19" class="edge">
<title>Wedge_fwedge_in_&#45;&gt;Wedge_FamilyWedge</title>
<path fill="none" stroke="black" d="M2585.97,-869.33C2610.16,-836.84 2663.75,-764.87 2692.12,-726.76"/>
<polygon fill="black" stroke="black" points="2694.94,-728.84 2698.1,-718.73 2689.32,-724.66 2694.94,-728.84"/>
</g>
<!-- Wedge_wedge_pr2_inr -->
<g id="node14" class="node">
<title>Wedge_wedge_pr2_inr</title>
<g id="a_node14"><a xlink:href="Wedge.html#wedge_pr2_inr" xlink:title="wedge_pr2_inr">
<ellipse fill="#f070d1" stroke="black" cx="2055.57" cy="-700.98" rx="79.11" ry="18"/>
<ellipse fill="none" stroke="black" cx="2055.57" cy="-700.98" rx="83.1" ry="22"/>
<ellipse fill="none" stroke="black" cx="2055.57" cy="-700.98" rx="87.09" ry="26"/>
<text text-anchor="middle" x="2055.57" y="-697.28" font-family="Times,serif" font-size="14.00">wedge_pr2_inr</text>
</a>
</g>
</g>
<!-- Wedge_wedge_pr2_inr&#45;&gt;Wedge_wedge_pr2 -->
<g id="edge20" class="edge">
<title>Wedge_wedge_pr2_inr&#45;&gt;Wedge_wedge_pr2</title>
<path fill="none" stroke="black" d="M2012.25,-678.19C1946.61,-645.17 1822.96,-582.98 1760.21,-551.42"/>
<polygon fill="black" stroke="black" points="1761.55,-548.17 1751.04,-546.8 1758.4,-554.43 1761.55,-548.17"/>
</g>
<!-- Wedge_wedge_pr2_inr&#45;&gt;Wedge_wedge_rec_beta_wglue -->
<g id="edge21" class="edge">
<title>Wedge_wedge_pr2_inr&#45;&gt;Wedge_wedge_rec_beta_wglue</title>
<path fill="none" stroke="black" d="M2087,-676.62C2130.32,-644.42 2207.89,-586.75 2250.85,-554.83"/>
<polygon fill="black" stroke="black" points="2253.02,-557.57 2258.95,-548.8 2248.84,-551.95 2253.02,-557.57"/>
</g>
<!-- Wedge_wedge_pr2_inr&#45;&gt;Wedge_wedge_inr -->
<g id="edge22" class="edge">
<title>Wedge_wedge_pr2_inr&#45;&gt;Wedge_wedge_inr</title>
<path fill="none" stroke="black" d="M2055.57,-674.79C2055.57,-615.54 2055.57,-467.7 2055.57,-406.34"/>
<polygon fill="black" stroke="black" points="2059.07,-406.26 2055.57,-396.26 2052.07,-406.26 2059.07,-406.26"/>
</g>
<!-- Wedge_wedge_pr2_inl -->
<g id="node15" class="node">
<title>Wedge_wedge_pr2_inl</title>
<g id="a_node15"><a xlink:href="Wedge.html#wedge_pr2_inl" xlink:title="wedge_pr2_inl">
<ellipse fill="#f070d1" stroke="black" cx="1229.57" cy="-700.98" rx="77.2" ry="18"/>
<ellipse fill="none" stroke="black" cx="1229.57" cy="-700.98" rx="81.19" ry="22"/>
<ellipse fill="none" stroke="black" cx="1229.57" cy="-700.98" rx="85.19" ry="26"/>
<text text-anchor="middle" x="1229.57" y="-697.28" font-family="Times,serif" font-size="14.00">wedge_pr2_inl</text>
</a>
</g>
</g>
<!-- Wedge_wedge_pr2_inl&#45;&gt;Wedge_wedge_pr2 -->
<g id="edge23" class="edge">
<title>Wedge_wedge_pr2_inl&#45;&gt;Wedge_wedge_pr2</title>
<path fill="none" stroke="black" d="M1285.06,-681.04C1382.29,-647.84 1581.84,-579.7 1673.54,-548.38"/>
<polygon fill="black" stroke="black" points="1674.8,-551.65 1683.13,-545.11 1672.53,-545.03 1674.8,-551.65"/>
</g>
<!-- Wedge_wedge_pr2_inl&#45;&gt;Wedge_wedge_inl -->
<g id="edge24" class="edge">
<title>Wedge_wedge_pr2_inl&#45;&gt;Wedge_wedge_inl</title>
<path fill="none" stroke="black" d="M1242.31,-675.06C1272.74,-615.5 1349.45,-465.34 1380.36,-404.84"/>
<polygon fill="black" stroke="black" points="1383.48,-406.42 1384.92,-395.93 1377.25,-403.24 1383.48,-406.42"/>
</g>
<!-- Wedge_wedge_pr1_inr -->
<g id="node16" class="node">
<title>Wedge_wedge_pr1_inr</title>
<g id="a_node16"><a xlink:href="Wedge.html#wedge_pr1_inr" xlink:title="wedge_pr1_inr">
<ellipse fill="#f070d1" stroke="black" cx="2248.57" cy="-700.98" rx="79.11" ry="18"/>
<ellipse fill="none" stroke="black" cx="2248.57" cy="-700.98" rx="83.1" ry="22"/>
<ellipse fill="none" stroke="black" cx="2248.57" cy="-700.98" rx="87.09" ry="26"/>
<text text-anchor="middle" x="2248.57" y="-697.28" font-family="Times,serif" font-size="14.00">wedge_pr1_inr</text>
</a>
</g>
</g>
<!-- Wedge_wedge_pr1_inr&#45;&gt;Wedge_wedge_pr1 -->
<g id="edge25" class="edge">
<title>Wedge_wedge_pr1_inr&#45;&gt;Wedge_wedge_pr1</title>
<path fill="none" stroke="black" d="M2200.47,-679.05C2124.26,-645.88 1977.03,-581.8 1904.73,-550.33"/>
<polygon fill="black" stroke="black" points="1906.02,-547.08 1895.46,-546.29 1903.23,-553.49 1906.02,-547.08"/>
</g>
<!-- Wedge_wedge_pr1_inr&#45;&gt;Wedge_wedge_rec_beta_wglue -->
<g id="edge26" class="edge">
<title>Wedge_wedge_pr1_inr&#45;&gt;Wedge_wedge_rec_beta_wglue</title>
<path fill="none" stroke="black" d="M2253.51,-674.83C2259.62,-643.75 2269.97,-591.05 2276.25,-559.09"/>
<polygon fill="black" stroke="black" points="2279.72,-559.59 2278.21,-549.11 2272.85,-558.24 2279.72,-559.59"/>
</g>
<!-- Wedge_wedge_pr1_inr&#45;&gt;Wedge_wedge_inr -->
<g id="edge27" class="edge">
<title>Wedge_wedge_pr1_inr&#45;&gt;Wedge_wedge_inr</title>
<path fill="none" stroke="black" d="M2233.11,-675.23C2214.53,-645.39 2182.49,-593.69 2155.57,-548.98 2124.9,-498.03 2089.82,-437.97 2070.43,-404.61"/>
<polygon fill="black" stroke="black" points="2073.44,-402.83 2065.4,-395.94 2067.39,-406.35 2073.44,-402.83"/>
</g>
<!-- Wedge_wedge_pr1_inl -->
<g id="node17" class="node">
<title>Wedge_wedge_pr1_inl</title>
<g id="a_node17"><a xlink:href="Wedge.html#wedge_pr1_inl" xlink:title="wedge_pr1_inl">
<ellipse fill="#f070d1" stroke="black" cx="1703.57" cy="-700.98" rx="77.2" ry="18"/>
<ellipse fill="none" stroke="black" cx="1703.57" cy="-700.98" rx="81.19" ry="22"/>
<ellipse fill="none" stroke="black" cx="1703.57" cy="-700.98" rx="85.19" ry="26"/>
<text text-anchor="middle" x="1703.57" y="-697.28" font-family="Times,serif" font-size="14.00">wedge_pr1_inl</text>
</a>
</g>
</g>
<!-- Wedge_wedge_pr1_inl&#45;&gt;Wedge_wedge_pr1 -->
<g id="edge28" class="edge">
<title>Wedge_wedge_pr1_inl&#45;&gt;Wedge_wedge_pr1</title>
<path fill="none" stroke="black" d="M1726.35,-675.91C1756.59,-643.96 1809.68,-587.87 1839.88,-555.97"/>
<polygon fill="black" stroke="black" points="1842.7,-558.07 1847.03,-548.4 1837.62,-553.26 1842.7,-558.07"/>
</g>
<!-- Wedge_wedge_pr1_inl&#45;&gt;Wedge_wedge_inl -->
<g id="edge29" class="edge">
<title>Wedge_wedge_pr1_inl&#45;&gt;Wedge_wedge_inl</title>
<path fill="none" stroke="black" d="M1686.28,-675.4C1659.73,-638.4 1606.42,-566.96 1553.57,-512.98 1511.57,-470.09 1456.91,-426.58 1423.58,-401.23"/>
<polygon fill="black" stroke="black" points="1425.26,-398.12 1415.18,-394.88 1421.04,-403.7 1425.26,-398.12"/>
</g>
<!-- Wedge_hasbinarycoproducts -->
<g id="node18" class="node">
<title>Wedge_hasbinarycoproducts</title>
<g id="a_node18"><a xlink:href="Wedge.html#hasbinarycoproducts" xlink:title="hasbinarycoproducts">
<ellipse fill="#f070d1" stroke="black" cx="324.57" cy="-1073.98" rx="107.79" ry="18"/>
<ellipse fill="none" stroke="black" cx="324.57" cy="-1073.98" rx="111.78" ry="22"/>
<ellipse fill="none" stroke="black" cx="324.57" cy="-1073.98" rx="115.78" ry="26"/>
<text text-anchor="middle" x="324.57" y="-1070.28" font-family="Times,serif" font-size="14.00">hasbinarycoproducts</text>
</a>
</g>
</g>
<!-- Wedge_wedge_up -->
<g id="node19" class="node">
<title>Wedge_wedge_up</title>
<g id="a_node19"><a xlink:href="Wedge.html#wedge_up" xlink:title="wedge_up">
<ellipse fill="#f070d1" stroke="black" cx="324.57" cy="-886.98" rx="57.39" ry="18"/>
<text text-anchor="middle" x="324.57" y="-883.28" font-family="Times,serif" font-size="14.00">wedge_up</text>
</a>
</g>
</g>
<!-- Wedge_hasbinarycoproducts&#45;&gt;Wedge_wedge_up -->
<g id="edge30" class="edge">
<title>Wedge_hasbinarycoproducts&#45;&gt;Wedge_wedge_up</title>
<path fill="none" stroke="black" d="M324.57,-1047.65C324.57,-1012.94 324.57,-950.86 324.57,-915.2"/>
<polygon fill="black" stroke="black" points="328.07,-915.04 324.57,-905.04 321.07,-915.04 328.07,-915.04"/>
</g>
<!-- Wedge_wedge_rec_beta_inr -->
<g id="node29" class="node">
<title>Wedge_wedge_rec_beta_inr</title>
<g id="a_node29"><a xlink:href="Wedge.html#wedge_rec_beta_inr" xlink:title="wedge_rec_beta_inr">
<ellipse fill="#f070d1" stroke="black" cx="2516.57" cy="-700.98" rx="102.88" ry="18"/>
<text text-anchor="middle" x="2516.57" y="-697.28" font-family="Times,serif" font-size="14.00">wedge_rec_beta_inr</text>
</a>
</g>
</g>
<!-- Wedge_hasbinarycoproducts&#45;&gt;Wedge_wedge_rec_beta_inr -->
<g id="edge31" class="edge">
<title>Wedge_hasbinarycoproducts&#45;&gt;Wedge_wedge_rec_beta_inr</title>
<path fill="none" stroke="black" d="M439.39,-1070.09C791.7,-1060.11 1853.15,-1021.58 2178.57,-912.98 2306.21,-870.39 2435.02,-770.71 2489.54,-725.28"/>
<polygon fill="black" stroke="black" points="2491.93,-727.84 2497.33,-718.73 2487.43,-722.48 2491.93,-727.84"/>
</g>
<!-- Wedge_wedge_rec_beta_inl -->
<g id="node30" class="node">
<title>Wedge_wedge_rec_beta_inl</title>
<g id="a_node30"><a xlink:href="Wedge.html#wedge_rec_beta_inl" xlink:title="wedge_rec_beta_inl">
<ellipse fill="#f070d1" stroke="black" cx="839.57" cy="-530.98" rx="100.98" ry="18"/>
<text text-anchor="middle" x="839.57" y="-527.28" font-family="Times,serif" font-size="14.00">wedge_rec_beta_inl</text>
</a>
</g>
</g>
<!-- Wedge_hasbinarycoproducts&#45;&gt;Wedge_wedge_rec_beta_inl -->
<g id="edge32" class="edge">
<title>Wedge_hasbinarycoproducts&#45;&gt;Wedge_wedge_rec_beta_inl</title>
<path fill="none" stroke="black" d="M283.22,-1049.6C177.61,-987.05 -85.87,-811.37 28.57,-674.98 116.87,-569.76 529.56,-541.93 729.89,-534.59"/>
<polygon fill="black" stroke="black" points="730.28,-538.08 740.15,-534.23 730.03,-531.09 730.28,-538.08"/>
</g>
<!-- Wedge_wedge_ind_FlFr -->
<g id="node22" class="node">
<title>Wedge_wedge_ind_FlFr</title>
<g id="a_node22"><a xlink:href="Wedge.html#wedge_ind_FlFr" xlink:title="wedge_ind_FlFr">
<ellipse fill="#f070d1" stroke="black" cx="324.57" cy="-700.98" rx="84.49" ry="18"/>
<text text-anchor="middle" x="324.57" y="-697.28" font-family="Times,serif" font-size="14.00">wedge_ind_FlFr</text>
</a>
</g>
</g>
<!-- Wedge_wedge_up&#45;&gt;Wedge_wedge_ind_FlFr -->
<g id="edge33" class="edge">
<title>Wedge_wedge_up&#45;&gt;Wedge_wedge_ind_FlFr</title>
<path fill="none" stroke="black" d="M324.57,-868.67C324.57,-836.67 324.57,-768.03 324.57,-729.56"/>
<polygon fill="black" stroke="black" points="328.07,-729.11 324.57,-719.11 321.07,-729.11 328.07,-729.11"/>
</g>
<!-- Wedge_wedge_ind_FFlr -->
<g id="node20" class="node">
<title>Wedge_wedge_ind_FFlr</title>
<g id="a_node20"><a xlink:href="Wedge.html#wedge_ind_FFlr" xlink:title="wedge_ind_FFlr">
<ellipse fill="#f070d1" stroke="black" cx="129.57" cy="-700.98" rx="84.49" ry="18"/>
<ellipse fill="none" stroke="black" cx="129.57" cy="-700.98" rx="88.49" ry="22"/>
<ellipse fill="none" stroke="black" cx="129.57" cy="-700.98" rx="92.49" ry="26"/>
<text text-anchor="middle" x="129.57" y="-697.28" font-family="Times,serif" font-size="14.00">wedge_ind_FFlr</text>
</a>
</g>
</g>
<!-- Wedge_wedge_ind_FFlr&#45;&gt;Wedge_wedge_ind -->
<g id="edge34" class="edge">
<title>Wedge_wedge_ind_FFlr&#45;&gt;Wedge_wedge_ind</title>
<path fill="none" stroke="black" d="M196.37,-682.94C208.07,-680.14 220.15,-677.38 231.57,-674.98 548.64,-608.38 632.55,-615.77 949.57,-548.98 954.5,-547.94 959.61,-546.81 964.73,-545.62"/>
<polygon fill="black" stroke="black" points="965.58,-549.02 974.5,-543.31 963.97,-542.21 965.58,-549.02"/>
</g>
<!-- Wedge_wedge_ind_FFl -->
<g id="node21" class="node">
<title>Wedge_wedge_ind_FFl</title>
<g id="a_node21"><a xlink:href="Wedge.html#wedge_ind_FFl" xlink:title="wedge_ind_FFl">
<ellipse fill="#f070d1" stroke="black" cx="1018.57" cy="-700.98" rx="79.89" ry="18"/>
<ellipse fill="none" stroke="black" cx="1018.57" cy="-700.98" rx="83.89" ry="22"/>
<ellipse fill="none" stroke="black" cx="1018.57" cy="-700.98" rx="87.89" ry="26"/>
<text text-anchor="middle" x="1018.57" y="-697.28" font-family="Times,serif" font-size="14.00">wedge_ind_FFl</text>
</a>
</g>
</g>
<!-- Wedge_wedge_ind_FFl&#45;&gt;Wedge_wedge_ind -->
<g id="edge35" class="edge">
<title>Wedge_wedge_ind_FFl&#45;&gt;Wedge_wedge_ind</title>
<path fill="none" stroke="black" d="M1018.57,-674.83C1018.57,-643.88 1018.57,-591.51 1018.57,-559.51"/>
<polygon fill="black" stroke="black" points="1022.07,-559.11 1018.57,-549.11 1015.07,-559.11 1022.07,-559.11"/>
</g>
<!-- Wedge_wedge_ind_FlFr&#45;&gt;Wedge_wedge_ind -->
<g id="edge36" class="edge">
<title>Wedge_wedge_ind_FlFr&#45;&gt;Wedge_wedge_ind</title>
<path fill="none" stroke="black" d="M374.21,-686.34C388.21,-682.58 403.47,-678.55 417.57,-674.98 653.15,-615.44 713.38,-606.05 949.57,-548.98 954.27,-547.85 959.15,-546.66 964.04,-545.47"/>
<polygon fill="black" stroke="black" points="965.17,-548.79 974.05,-543.02 963.5,-542 965.17,-548.79"/>
</g>
<!-- Wedge_wedge_ind_beta_wglue -->
<g id="node23" class="node">
<title>Wedge_wedge_ind_beta_wglue</title>
<g id="a_node23"><a xlink:href="Wedge.html#wedge_ind_beta_wglue" xlink:title="wedge_ind_beta_wglue">
<ellipse fill="#f070d1" stroke="black" cx="551.57" cy="-700.98" rx="116.98" ry="18"/>
<ellipse fill="none" stroke="black" cx="551.57" cy="-700.98" rx="120.98" ry="22"/>
<ellipse fill="none" stroke="black" cx="551.57" cy="-700.98" rx="124.98" ry="26"/>
<text text-anchor="middle" x="551.57" y="-697.28" font-family="Times,serif" font-size="14.00">wedge_ind_beta_wglue</text>
</a>
</g>
</g>
<!-- Wedge_wedge_ind_beta_wglue&#45;&gt;Wedge_wedge_ind -->
<g id="edge37" class="edge">
<title>Wedge_wedge_ind_beta_wglue&#45;&gt;Wedge_wedge_ind</title>
<path fill="none" stroke="black" d="M612.15,-678.19C706.63,-644.2 887.05,-579.3 972.07,-548.71"/>
<polygon fill="black" stroke="black" points="973.48,-551.92 981.71,-545.25 971.11,-545.34 973.48,-551.92"/>
</g>
<!-- Wedge_wedge_ind&#45;&gt;Wedge_wedge_inr -->
<g id="edge38" class="edge">
<title>Wedge_wedge_ind&#45;&gt;Wedge_wedge_inr</title>
<path fill="none" stroke="black" d="M1071.07,-522.34C1245.72,-496.91 1806.76,-415.21 1994.05,-387.94"/>
<polygon fill="black" stroke="black" points="1994.61,-391.4 2004,-386.49 1993.6,-384.47 1994.61,-391.4"/>
</g>
<!-- Wedge_wedge_ind&#45;&gt;Wedge_wedge_inl -->
<g id="edge39" class="edge">
<title>Wedge_wedge_ind&#45;&gt;Wedge_wedge_inl</title>
<path fill="none" stroke="black" d="M1052.85,-516.18C1121.28,-488.63 1274.75,-426.83 1350.12,-396.48"/>
<polygon fill="black" stroke="black" points="1351.82,-399.57 1359.79,-392.59 1349.2,-393.08 1351.82,-399.57"/>
</g>
<!-- Wedge_wedge_incl -->
<g id="node26" class="node">
<title>Wedge_wedge_incl</title>
<g id="a_node26"><a xlink:href="Wedge.html#wedge_incl" xlink:title="wedge_incl">
<ellipse fill="#f070d1" stroke="black" cx="1888.57" cy="-700.98" rx="61.99" ry="18"/>
<text text-anchor="middle" x="1888.57" y="-697.28" font-family="Times,serif" font-size="14.00">wedge_incl</text>
</a>
</g>
</g>
<!-- Wedge_wedge_incl_beta_wglue&#45;&gt;Wedge_wedge_incl -->
<g id="edge40" class="edge">
<title>Wedge_wedge_incl_beta_wglue&#45;&gt;Wedge_wedge_incl</title>
<path fill="none" stroke="black" d="M2035.62,-869C2006.74,-836.19 1943.18,-764 1909.88,-726.18"/>
<polygon fill="black" stroke="black" points="1912.49,-723.85 1903.25,-718.66 1907.23,-728.48 1912.49,-723.85"/>
</g>
<!-- Wedge_wedge_incl_beta_wglue&#45;&gt;Wedge_wedge_rec_beta_wglue -->
<g id="edge41" class="edge">
<title>Wedge_wedge_incl_beta_wglue&#45;&gt;Wedge_wedge_rec_beta_wglue</title>
<path fill="none" stroke="black" d="M2126.8,-873.12C2205.54,-855.33 2324.45,-814.85 2379.57,-726.98 2416.65,-667.88 2349.69,-592.92 2309.17,-555.49"/>
<polygon fill="black" stroke="black" points="2311.47,-552.84 2301.7,-548.73 2306.77,-558.03 2311.47,-552.84"/>
</g>
<!-- Wedge_wedge_incl&#45;&gt;Wedge_wedge_pr2 -->
<g id="edge42" class="edge">
<title>Wedge_wedge_incl&#45;&gt;Wedge_wedge_pr2</title>
<path fill="none" stroke="black" d="M1872.26,-683.57C1842.65,-653.79 1779.97,-590.73 1745.51,-556.06"/>
<polygon fill="black" stroke="black" points="1747.74,-553.34 1738.2,-548.71 1742.77,-558.27 1747.74,-553.34"/>
</g>
<!-- Wedge_wedge_incl&#45;&gt;Wedge_wedge_pr1 -->
<g id="edge43" class="edge">
<title>Wedge_wedge_incl&#45;&gt;Wedge_wedge_pr1</title>
<path fill="none" stroke="black" d="M1885.94,-682.95C1881.42,-653.77 1872.17,-593.99 1866.76,-559.05"/>
<polygon fill="black" stroke="black" points="1870.21,-558.41 1865.22,-549.06 1863.29,-559.48 1870.21,-558.41"/>
</g>
<!-- Wedge_wedge_rec -->
<g id="node32" class="node">
<title>Wedge_wedge_rec</title>
<g id="a_node32"><a xlink:href="Wedge.html#wedge_rec" xlink:title="wedge_rec">
<ellipse fill="#f070d1" stroke="black" cx="1792.57" cy="-377.98" rx="59.59" ry="18"/>
<text text-anchor="middle" x="1792.57" y="-374.28" font-family="Times,serif" font-size="14.00">wedge_rec</text>
</a>
</g>
</g>
<!-- Wedge_wedge_pr2&#45;&gt;Wedge_wedge_rec -->
<g id="edge44" class="edge">
<title>Wedge_wedge_pr2&#45;&gt;Wedge_wedge_rec</title>
<path fill="none" stroke="black" d="M1729.58,-512.96C1741.88,-486.79 1765.54,-436.47 1780.11,-405.5"/>
<polygon fill="black" stroke="black" points="1783.4,-406.72 1784.49,-396.18 1777.06,-403.74 1783.4,-406.72"/>
</g>
<!-- Wedge_wedge_pr1&#45;&gt;Wedge_wedge_rec -->
<g id="edge45" class="edge">
<title>Wedge_wedge_pr1&#45;&gt;Wedge_wedge_rec</title>
<path fill="none" stroke="black" d="M1854.68,-512.96C1842.55,-486.79 1819.22,-436.47 1804.87,-405.5"/>
<polygon fill="black" stroke="black" points="1807.93,-403.78 1800.55,-396.18 1801.58,-406.73 1807.93,-403.78"/>
</g>
<!-- Wedge_wedge_rec_beta_inr&#45;&gt;Wedge_wedge_rec_beta_wglue -->
<g id="edge46" class="edge">
<title>Wedge_wedge_rec_beta_inr&#45;&gt;Wedge_wedge_rec_beta_wglue</title>
<path fill="none" stroke="black" d="M2493.18,-683.26C2450.69,-652.88 2360.81,-588.63 2313.01,-554.45"/>
<polygon fill="black" stroke="black" points="2315.04,-551.61 2304.87,-548.64 2310.97,-557.3 2315.04,-551.61"/>
</g>
<!-- Wedge_wedge_rec_beta_inr&#45;&gt;Wedge_wedge_inr -->
<g id="edge47" class="edge">
<title>Wedge_wedge_rec_beta_inr&#45;&gt;Wedge_wedge_inr</title>
<path fill="none" stroke="black" d="M2511.06,-682.95C2498.49,-646.65 2464.32,-561.11 2407.57,-512.98 2321.55,-440.02 2191.63,-404.55 2116.03,-389.16"/>
<polygon fill="black" stroke="black" points="2116.67,-385.72 2106.18,-387.21 2115.31,-392.59 2116.67,-385.72"/>
</g>
<!-- Wedge_wedge_rec_beta_inl&#45;&gt;Wedge_wedge_rec -->
<g id="edge48" class="edge">
<title>Wedge_wedge_rec_beta_inl&#45;&gt;Wedge_wedge_rec</title>
<path fill="none" stroke="black" d="M912.38,-518.45C1093.6,-489.73 1562.43,-415.45 1731.03,-388.73"/>
<polygon fill="black" stroke="black" points="1731.66,-392.18 1740.99,-387.16 1730.56,-385.27 1731.66,-392.18"/>
</g>
<!-- Wedge_wedge_rec_beta_inl&#45;&gt;Wedge_wedge_inl -->
<g id="edge49" class="edge">
<title>Wedge_wedge_rec_beta_inl&#45;&gt;Wedge_wedge_inl</title>
<path fill="none" stroke="black" d="M892.69,-515.5C999.08,-486.51 1237.07,-421.64 1342.09,-393.02"/>
<polygon fill="black" stroke="black" points="1343.1,-396.37 1351.83,-390.36 1341.26,-389.61 1343.1,-396.37"/>
</g>
<!-- Wedge_wedge_rec_beta_wglue&#45;&gt;Wedge_wedge_rec -->
<g id="edge50" class="edge">
<title>Wedge_wedge_rec_beta_wglue&#45;&gt;Wedge_wedge_rec</title>
<path fill="none" stroke="black" d="M2231.99,-514.67C2138.4,-485.77 1936.68,-423.48 1842.68,-394.46"/>
<polygon fill="black" stroke="black" points="1843.43,-391.03 1832.85,-391.42 1841.37,-397.71 1843.43,-391.03"/>
</g>
<!-- Wedge_wglue -->
<g id="node36" class="node">
<title>Wedge_wglue</title>
<g id="a_node36"><a xlink:href="Wedge.html#wglue" xlink:title="wglue">
<ellipse fill="#f070d1" stroke="black" cx="2055.57" cy="-224.98" rx="38.19" ry="18"/>
<text text-anchor="middle" x="2055.57" y="-221.28" font-family="Times,serif" font-size="14.00">wglue</text>
</a>
</g>
</g>
<!-- Wedge_wedge_rec_beta_wglue&#45;&gt;Wedge_wglue -->
<g id="edge51" class="edge">
<title>Wedge_wedge_rec_beta_wglue&#45;&gt;Wedge_wglue</title>
<path fill="none" stroke="black" d="M2268.78,-512.77C2230.68,-461.53 2117.95,-309.88 2073.69,-250.36"/>
<polygon fill="black" stroke="black" points="2076.45,-248.2 2067.68,-242.27 2070.84,-252.38 2076.45,-248.2"/>
</g>
<!-- Wedge_wedge_rec_ -->
<g id="node33" class="node">
<title>Wedge_wedge_rec_</title>
<g id="a_node33"><a xlink:href="Wedge.html#wedge_rec'" xlink:title="wedge_rec&#39;">
<ellipse fill="#f070d1" stroke="black" cx="1792.57" cy="-224.98" rx="62.29" ry="18"/>
<text text-anchor="middle" x="1792.57" y="-221.28" font-family="Times,serif" font-size="14.00">wedge_rec&#39;</text>
</a>
</g>
</g>
<!-- Wedge_wedge_rec&#45;&gt;Wedge_wedge_rec_ -->
<g id="edge52" class="edge">
<title>Wedge_wedge_rec&#45;&gt;Wedge_wedge_rec_</title>
<path fill="none" stroke="black" d="M1792.57,-359.96C1792.57,-334.01 1792.57,-284.34 1792.57,-253.31"/>
<polygon fill="black" stroke="black" points="1796.07,-253.18 1792.57,-243.18 1789.07,-253.18 1796.07,-253.18"/>
</g>
<!-- Wedge_Wedge -->
<g id="node37" class="node">
<title>Wedge_Wedge</title>
<g id="a_node37"><a xlink:href="Wedge.html#Wedge" xlink:title="Wedge">
<ellipse fill="#f070d1" stroke="black" cx="1792.57" cy="-71.98" rx="42.49" ry="18"/>
<text text-anchor="middle" x="1792.57" y="-68.28" font-family="Times,serif" font-size="14.00">Wedge</text>
</a>
</g>
</g>
<!-- Wedge_wedge_rec_&#45;&gt;Wedge_Wedge -->
<g id="edge53" class="edge">
<title>Wedge_wedge_rec_&#45;&gt;Wedge_Wedge</title>
<path fill="none" stroke="black" d="M1792.57,-206.96C1792.57,-181.01 1792.57,-131.34 1792.57,-100.31"/>
<polygon fill="black" stroke="black" points="1796.07,-100.18 1792.57,-90.18 1789.07,-100.18 1796.07,-100.18"/>
</g>
<!-- Wedge_wedge_inr&#45;&gt;Wedge_wglue -->
<g id="edge54" class="edge">
<title>Wedge_wedge_inr&#45;&gt;Wedge_wglue</title>
<path fill="none" stroke="black" d="M2055.57,-359.96C2055.57,-334.01 2055.57,-284.34 2055.57,-253.31"/>
<polygon fill="black" stroke="black" points="2059.07,-253.18 2055.57,-243.18 2052.07,-253.18 2059.07,-253.18"/>
</g>
<!-- Wedge_wedge_inl&#45;&gt;Wedge_Wedge -->
<g id="edge55" class="edge">
<title>Wedge_wedge_inl&#45;&gt;Wedge_Wedge</title>
<path fill="none" stroke="black" d="M1414.46,-361.07C1481.16,-310.25 1689.06,-151.85 1764.7,-94.22"/>
<polygon fill="black" stroke="black" points="1767.01,-96.86 1772.84,-88.02 1762.76,-91.3 1767.01,-96.86"/>
</g>
<!-- Wedge_wglue&#45;&gt;Wedge_Wedge -->
<g id="edge56" class="edge">
<title>Wedge_wglue&#45;&gt;Wedge_Wedge</title>
<path fill="none" stroke="black" d="M2032.23,-210.58C1985.29,-183.63 1879.35,-122.81 1825.43,-91.85"/>
<polygon fill="black" stroke="black" points="1827.03,-88.73 1816.62,-86.79 1823.55,-94.8 1827.03,-88.73"/>
</g>
</g>
</svg>
