<?xml version="1.0" encoding="UTF-8" standalone="no"?>
<!DOCTYPE svg PUBLIC "-//W3C//DTD SVG 1.1//EN"
 "http://www.w3.org/Graphics/SVG/1.1/DTD/svg11.dtd">
<!-- Generated by graphviz version 2.43.0 (0)
 -->
<!-- Title: HoTT_Modalities_Accessible Pages: 1 -->
<svg width="2771pt" height="1390pt"
 viewBox="0.00 0.00 2771.00 1389.50" xmlns="http://www.w3.org/2000/svg" xmlns:xlink="http://www.w3.org/1999/xlink">
<g id="graph0" class="graph" transform="scale(1 1) rotate(0) translate(4 1385.5)">
<title>HoTT_Modalities_Accessible</title>
<polygon fill="white" stroke="transparent" points="-4,4 -4,-1385.5 2767,-1385.5 2767,4 -4,4"/>
<g id="clust1" class="cluster">
<title>cluster_Accessible</title>
<polygon fill="#ffffc3" stroke="black" points="8,-20.81 8,-1360.69 2755,-1360.69 2755,-20.81 8,-20.81"/>
<text text-anchor="middle" x="53.5" y="-1345.49" font-family="Times,serif" font-size="14.00">Accessible</text>
</g>
<g id="clust2" class="cluster">
<title>cluster_Accessible_IsLocal_Internal</title>
<polygon fill="#ffffa3" stroke="black" points="749,-228.95 749,-424.08 880,-424.08 880,-228.95 749,-228.95"/>
<text text-anchor="middle" x="814.5" y="-408.88" font-family="Times,serif" font-size="14.00">IsLocal_Internal</text>
</g>
<g id="clust3" class="cluster">
<title>cluster_Accessible_IsNull_Internal</title>
<polygon fill="#ffffa3" stroke="black" points="1157,-457.9 1157,-653.03 1280,-653.03 1280,-457.9 1157,-457.9"/>
<text text-anchor="middle" x="1218.5" y="-637.83" font-family="Times,serif" font-size="14.00">IsNull_Internal</text>
</g>
<!-- Accessible_IsNull_Internal_IsNull -->
<g id="node1" class="node">
<title>Accessible_IsNull_Internal_IsNull</title>
<g id="a_node1"><a xlink:href="Accessible.html#IsNull_Internal.IsNull" xlink:title="IsNull">
<ellipse fill="#f070d1" stroke="black" cx="1218" cy="-525.81" rx="38.19" ry="18"/>
<text text-anchor="middle" x="1218" y="-522.11" font-family="Times,serif" font-size="14.00">IsNull</text>
</a>
</g>
</g>
<!-- Accessible_IsLocal_Internal_IsLocal -->
<g id="node2" class="node">
<title>Accessible_IsLocal_Internal_IsLocal</title>
<g id="a_node2"><a xlink:href="Accessible.html#IsLocal_Internal.IsLocal" xlink:title="IsLocal">
<ellipse fill="#f070d1" stroke="black" cx="815" cy="-296.81" rx="43.59" ry="18"/>
<text text-anchor="middle" x="815" y="-293.11" font-family="Times,serif" font-size="14.00">IsLocal</text>
</a>
</g>
</g>
<!-- Accessible_IsNull_Internal_IsNull&#45;&gt;Accessible_IsLocal_Internal_IsLocal -->
<g id="edge1" class="edge">
<title>Accessible_IsNull_Internal_IsNull&#45;&gt;Accessible_IsLocal_Internal_IsLocal</title>
<path fill="none" stroke="black" d="M1195.52,-510.99C1189.26,-507.26 1182.41,-503.29 1176,-499.81 1039.73,-425.88 989.06,-436.06 863,-345.81 853.32,-338.88 843.8,-329.94 835.82,-321.66"/>
<polygon fill="black" stroke="black" points="838.35,-319.24 828.97,-314.32 833.23,-324.02 838.35,-319.24"/>
</g>
<!-- Accessible_null_to_local_generators -->
<g id="node18" class="node">
<title>Accessible_null_to_local_generators</title>
<g id="a_node18"><a xlink:href="Accessible.html#null_to_local_generators" xlink:title="null_to_local_generators">
<ellipse fill="#f070d1" stroke="black" cx="1353" cy="-296.81" rx="122.68" ry="18"/>
<text text-anchor="middle" x="1353" y="-293.11" font-family="Times,serif" font-size="14.00">null_to_local_generators</text>
</a>
</g>
</g>
<!-- Accessible_IsNull_Internal_IsNull&#45;&gt;Accessible_null_to_local_generators -->
<g id="edge2" class="edge">
<title>Accessible_IsNull_Internal_IsNull&#45;&gt;Accessible_null_to_local_generators</title>
<path fill="none" stroke="black" d="M1227.93,-508.12C1251.28,-468.86 1309.8,-370.45 1337.72,-323.51"/>
<polygon fill="black" stroke="black" points="1340.77,-325.22 1342.88,-314.84 1334.76,-321.64 1340.77,-325.22"/>
</g>
<!-- Accessible_LocalGenerators -->
<g id="node45" class="node">
<title>Accessible_LocalGenerators</title>
<g id="a_node45"><a xlink:href="Accessible.html#LocalGenerators" xlink:title="LocalGenerators">
<ellipse fill="#e2cdfa" stroke="black" cx="964" cy="-88.81" rx="87.18" ry="18"/>
<text text-anchor="middle" x="964" y="-85.11" font-family="Times,serif" font-size="14.00">LocalGenerators</text>
</a>
</g>
</g>
<!-- Accessible_IsLocal_Internal_IsLocal&#45;&gt;Accessible_LocalGenerators -->
<g id="edge3" class="edge">
<title>Accessible_IsLocal_Internal_IsLocal&#45;&gt;Accessible_LocalGenerators</title>
<path fill="none" stroke="black" d="M826.94,-279.3C852.98,-243.31 914.99,-157.57 945.88,-114.87"/>
<polygon fill="black" stroke="black" points="948.77,-116.84 951.79,-106.69 943.1,-112.74 948.77,-116.84"/>
</g>
<!-- Accessible_acc_modality_rsu -->
<g id="node3" class="node">
<title>Accessible_acc_modality_rsu</title>
<g id="a_node3"><a xlink:href="Accessible.html#acc_modality_rsu" xlink:title="acc_modality_rsu">
<ellipse fill="#f070d1" stroke="black" cx="1978" cy="-983.81" rx="90.2" ry="18"/>
<ellipse fill="none" stroke="black" cx="1978" cy="-983.81" rx="94.19" ry="22"/>
<ellipse fill="none" stroke="black" cx="1978" cy="-983.81" rx="98.18" ry="26"/>
<text text-anchor="middle" x="1978" y="-980.11" font-family="Times,serif" font-size="14.00">acc_modality_rsu</text>
</a>
</g>
</g>
<!-- Accessible_Build_IsAccModality -->
<g id="node14" class="node">
<title>Accessible_Build_IsAccModality</title>
<g id="a_node14"><a xlink:href="Accessible.html#Build_IsAccModality" xlink:title="Build_IsAccModality">
<ellipse fill="#7faaff" stroke="black" cx="1318" cy="-754.81" rx="104.78" ry="18"/>
<text text-anchor="middle" x="1318" y="-751.11" font-family="Times,serif" font-size="14.00">Build_IsAccModality</text>
</a>
</g>
</g>
<!-- Accessible_acc_modality_rsu&#45;&gt;Accessible_Build_IsAccModality -->
<g id="edge4" class="edge">
<title>Accessible_acc_modality_rsu&#45;&gt;Accessible_Build_IsAccModality</title>
<path fill="none" stroke="black" d="M1919.72,-962.77C1793.2,-919.25 1494.92,-816.66 1372.2,-774.45"/>
<polygon fill="black" stroke="black" points="1373.21,-771.1 1362.62,-771.16 1370.94,-777.72 1373.21,-771.1"/>
</g>
<!-- Accessible_IsAccModality -->
<g id="node15" class="node">
<title>Accessible_IsAccModality</title>
<g id="a_node15"><a xlink:href="Accessible.html#IsAccModality" xlink:title="IsAccModality">
<ellipse fill="#e2cdfa" stroke="black" cx="1119" cy="-754.81" rx="76.09" ry="18"/>
<text text-anchor="middle" x="1119" y="-751.11" font-family="Times,serif" font-size="14.00">IsAccModality</text>
</a>
</g>
</g>
<!-- Accessible_acc_modality_rsu&#45;&gt;Accessible_IsAccModality -->
<g id="edge5" class="edge">
<title>Accessible_acc_modality_rsu&#45;&gt;Accessible_IsAccModality</title>
<path fill="none" stroke="black" d="M1908.43,-965.42C1772.64,-931.3 1462.94,-852.66 1204,-780.81 1194.33,-778.13 1184.07,-775.19 1174.14,-772.3"/>
<polygon fill="black" stroke="black" points="1174.94,-768.89 1164.36,-769.44 1172.98,-775.61 1174.94,-768.89"/>
</g>
<!-- Accessible_ooextendable_isnull_fibers -->
<g id="node16" class="node">
<title>Accessible_ooextendable_isnull_fibers</title>
<g id="a_node16"><a xlink:href="Accessible.html#ooextendable_isnull_fibers" xlink:title="ooextendable_isnull_fibers">
<ellipse fill="#f070d1" stroke="black" cx="1813" cy="-754.81" rx="133.48" ry="18"/>
<text text-anchor="middle" x="1813" y="-751.11" font-family="Times,serif" font-size="14.00">ooextendable_isnull_fibers</text>
</a>
</g>
</g>
<!-- Accessible_acc_modality_rsu&#45;&gt;Accessible_ooextendable_isnull_fibers -->
<g id="edge6" class="edge">
<title>Accessible_acc_modality_rsu&#45;&gt;Accessible_ooextendable_isnull_fibers</title>
<path fill="none" stroke="black" d="M1960.03,-958.09C1928.39,-914.57 1863.1,-824.75 1831.26,-780.94"/>
<polygon fill="black" stroke="black" points="1834.07,-778.85 1825.36,-772.82 1828.41,-782.97 1834.07,-778.85"/>
</g>
<!-- Accessible_Build_NullGenerators -->
<g id="node25" class="node">
<title>Accessible_Build_NullGenerators</title>
<g id="a_node25"><a xlink:href="Accessible.html#Build_NullGenerators" xlink:title="Build_NullGenerators">
<ellipse fill="#7faaff" stroke="black" cx="1905" cy="-88.81" rx="111.28" ry="18"/>
<text text-anchor="middle" x="1905" y="-85.11" font-family="Times,serif" font-size="14.00">Build_NullGenerators</text>
</a>
</g>
</g>
<!-- Accessible_acc_modality_rsu&#45;&gt;Accessible_Build_NullGenerators -->
<g id="edge7" class="edge">
<title>Accessible_acc_modality_rsu&#45;&gt;Accessible_Build_NullGenerators</title>
<path fill="none" stroke="black" d="M1976.83,-957.64C1972.3,-864.08 1955.08,-539.68 1932,-499.81 1873.12,-398.08 1770.71,-450.36 1717,-345.81 1668.4,-251.23 1799.7,-153.88 1867.44,-111.6"/>
<polygon fill="black" stroke="black" points="1869.47,-114.46 1876.16,-106.24 1865.81,-108.5 1869.47,-114.46"/>
</g>
<!-- Accessible_O_inverts_generators -->
<g id="node27" class="node">
<title>Accessible_O_inverts_generators</title>
<g id="a_node27"><a xlink:href="Accessible.html#O_inverts_generators" xlink:title="O_inverts_generators">
<ellipse fill="#f070d1" stroke="black" cx="1551" cy="-754.81" rx="110.48" ry="18"/>
<text text-anchor="middle" x="1551" y="-751.11" font-family="Times,serif" font-size="14.00">O_inverts_generators</text>
</a>
</g>
</g>
<!-- Accessible_acc_modality_rsu&#45;&gt;Accessible_O_inverts_generators -->
<g id="edge8" class="edge">
<title>Accessible_acc_modality_rsu&#45;&gt;Accessible_O_inverts_generators</title>
<path fill="none" stroke="black" d="M1935.5,-960.22C1852.73,-916.22 1671,-819.61 1590.6,-776.87"/>
<polygon fill="black" stroke="black" points="1592.24,-773.78 1581.77,-772.17 1588.96,-779.96 1592.24,-773.78"/>
</g>
<!-- Accessible_acc_rsu_modality -->
<g id="node4" class="node">
<title>Accessible_acc_rsu_modality</title>
<g id="a_node4"><a xlink:href="Accessible.html#acc_rsu_modality" xlink:title="acc_rsu_modality">
<ellipse fill="#f070d1" stroke="black" cx="299" cy="-983.81" rx="90.2" ry="18"/>
<ellipse fill="none" stroke="black" cx="299" cy="-983.81" rx="94.19" ry="22"/>
<ellipse fill="none" stroke="black" cx="299" cy="-983.81" rx="98.18" ry="26"/>
<text text-anchor="middle" x="299" y="-980.11" font-family="Times,serif" font-size="14.00">acc_rsu_modality</text>
</a>
</g>
</g>
<!-- Accessible_acc_rsu_modality&#45;&gt;Accessible_IsAccModality -->
<g id="edge9" class="edge">
<title>Accessible_acc_rsu_modality&#45;&gt;Accessible_IsAccModality</title>
<path fill="none" stroke="black" d="M366.25,-964.76C495.71,-929.92 788.5,-850.65 1034,-780.81 1043.65,-778.07 1053.91,-775.1 1063.83,-772.2"/>
<polygon fill="black" stroke="black" points="1065,-775.5 1073.61,-769.33 1063.03,-768.78 1065,-775.5"/>
</g>
<!-- Accessible_Build_IsAccRSU -->
<g id="node34" class="node">
<title>Accessible_Build_IsAccRSU</title>
<g id="a_node34"><a xlink:href="Accessible.html#Build_IsAccRSU" xlink:title="Build_IsAccRSU">
<ellipse fill="#7faaff" stroke="black" cx="507" cy="-525.81" rx="85.29" ry="18"/>
<text text-anchor="middle" x="507" y="-522.11" font-family="Times,serif" font-size="14.00">Build_IsAccRSU</text>
</a>
</g>
</g>
<!-- Accessible_acc_rsu_modality&#45;&gt;Accessible_Build_IsAccRSU -->
<g id="edge10" class="edge">
<title>Accessible_acc_rsu_modality&#45;&gt;Accessible_Build_IsAccRSU</title>
<path fill="none" stroke="black" d="M295.86,-957.71C291.07,-910.57 285.77,-806.57 320,-728.81 354.46,-650.53 432.13,-582.98 475.75,-549.41"/>
<polygon fill="black" stroke="black" points="477.89,-552.19 483.74,-543.35 473.66,-546.61 477.89,-552.19"/>
</g>
<!-- Accessible_IsAccRSU -->
<g id="node35" class="node">
<title>Accessible_IsAccRSU</title>
<g id="a_node35"><a xlink:href="Accessible.html#IsAccRSU" xlink:title="IsAccRSU">
<ellipse fill="#e2cdfa" stroke="black" cx="798" cy="-525.81" rx="55.79" ry="18"/>
<text text-anchor="middle" x="798" y="-522.11" font-family="Times,serif" font-size="14.00">IsAccRSU</text>
</a>
</g>
</g>
<!-- Accessible_acc_rsu_modality&#45;&gt;Accessible_IsAccRSU -->
<g id="edge11" class="edge">
<title>Accessible_acc_rsu_modality&#45;&gt;Accessible_IsAccRSU</title>
<path fill="none" stroke="black" d="M364.98,-964.52C510.58,-923.51 849,-824.41 880,-780.81 932.06,-707.6 858.25,-599.61 819.35,-551.5"/>
<polygon fill="black" stroke="black" points="821.82,-549 812.76,-543.51 816.42,-553.45 821.82,-549"/>
</g>
<!-- Accessible_inO_hprop_inhab_gen -->
<g id="node5" class="node">
<title>Accessible_inO_hprop_inhab_gen</title>
<g id="a_node5"><a xlink:href="Accessible.html#inO_hprop_inhab_gen" xlink:title="inO_hprop_inhab_gen">
<ellipse fill="#f070d1" stroke="black" cx="515" cy="-1212.81" rx="110.48" ry="18"/>
<ellipse fill="none" stroke="black" cx="515" cy="-1212.81" rx="114.48" ry="22"/>
<ellipse fill="none" stroke="black" cx="515" cy="-1212.81" rx="118.48" ry="26"/>
<text text-anchor="middle" x="515" y="-1209.11" font-family="Times,serif" font-size="14.00">inO_hprop_inhab_gen</text>
</a>
</g>
</g>
<!-- Accessible_inO_const_fromgen -->
<g id="node6" class="node">
<title>Accessible_inO_const_fromgen</title>
<g id="a_node6"><a xlink:href="Accessible.html#inO_const_fromgen" xlink:title="inO_const_fromgen">
<ellipse fill="#f070d1" stroke="black" cx="515" cy="-983.81" rx="99.38" ry="18"/>
<text text-anchor="middle" x="515" y="-980.11" font-family="Times,serif" font-size="14.00">inO_const_fromgen</text>
</a>
</g>
</g>
<!-- Accessible_inO_hprop_inhab_gen&#45;&gt;Accessible_inO_const_fromgen -->
<g id="edge12" class="edge">
<title>Accessible_inO_hprop_inhab_gen&#45;&gt;Accessible_inO_const_fromgen</title>
<path fill="none" stroke="black" d="M515,-1186.65C515,-1143.68 515,-1056.48 515,-1012.09"/>
<polygon fill="black" stroke="black" points="518.5,-1012.04 515,-1002.04 511.5,-1012.04 518.5,-1012.04"/>
</g>
<!-- Accessible_inO_const_fromgen&#45;&gt;Accessible_IsAccModality -->
<g id="edge13" class="edge">
<title>Accessible_inO_const_fromgen&#45;&gt;Accessible_IsAccModality</title>
<path fill="none" stroke="black" d="M556.04,-967.39C663.88,-926.86 954.9,-817.49 1070.6,-774"/>
<polygon fill="black" stroke="black" points="1072.13,-777.17 1080.26,-770.37 1069.67,-770.61 1072.13,-777.17"/>
</g>
<!-- Accessible_isconnected_acc_ngen -->
<g id="node7" class="node">
<title>Accessible_isconnected_acc_ngen</title>
<g id="a_node7"><a xlink:href="Accessible.html#isconnected_acc_ngen" xlink:title="isconnected_acc_ngen">
<ellipse fill="#f070d1" stroke="black" cx="1068" cy="-983.81" rx="112.38" ry="18"/>
<ellipse fill="none" stroke="black" cx="1068" cy="-983.81" rx="116.38" ry="22"/>
<ellipse fill="none" stroke="black" cx="1068" cy="-983.81" rx="120.38" ry="26"/>
<text text-anchor="middle" x="1068" y="-980.11" font-family="Times,serif" font-size="14.00">isconnected_acc_ngen</text>
</a>
</g>
</g>
<!-- Accessible_isconnected_acc_ngen&#45;&gt;Accessible_IsAccModality -->
<g id="edge14" class="edge">
<title>Accessible_isconnected_acc_ngen&#45;&gt;Accessible_IsAccModality</title>
<path fill="none" stroke="black" d="M1073.65,-957.65C1083.33,-914.59 1102.98,-827.11 1112.93,-782.81"/>
<polygon fill="black" stroke="black" points="1116.35,-783.56 1115.13,-773.04 1109.52,-782.03 1116.35,-783.56"/>
</g>
<!-- Accessible_inO_iff_isnull -->
<g id="node8" class="node">
<title>Accessible_inO_iff_isnull</title>
<g id="a_node8"><a xlink:href="Accessible.html#inO_iff_isnull" xlink:title="inO_iff_isnull">
<ellipse fill="#f070d1" stroke="black" cx="851" cy="-983.81" rx="70.37" ry="18"/>
<ellipse fill="none" stroke="black" cx="851" cy="-983.81" rx="74.38" ry="22"/>
<ellipse fill="none" stroke="black" cx="851" cy="-983.81" rx="78.39" ry="26"/>
<text text-anchor="middle" x="851" y="-980.11" font-family="Times,serif" font-size="14.00">inO_iff_isnull</text>
</a>
</g>
</g>
<!-- Accessible_inO_iff_isnull&#45;&gt;Accessible_IsAccModality -->
<g id="edge15" class="edge">
<title>Accessible_inO_iff_isnull&#45;&gt;Accessible_IsAccModality</title>
<path fill="none" stroke="black" d="M878.67,-959.38C930.21,-915.72 1040.32,-822.45 1091.63,-778.99"/>
<polygon fill="black" stroke="black" points="1093.98,-781.6 1099.34,-772.46 1089.45,-776.25 1093.98,-781.6"/>
</g>
<!-- Accessible_acc_ngen -->
<g id="node9" class="node">
<title>Accessible_acc_ngen</title>
<g id="a_node9"><a xlink:href="Accessible.html#acc_ngen" xlink:title="acc_ngen">
<ellipse fill="#f070d1" stroke="black" cx="694" cy="-983.81" rx="53.12" ry="18"/>
<ellipse fill="none" stroke="black" cx="694" cy="-983.81" rx="57.1" ry="22"/>
<ellipse fill="none" stroke="black" cx="694" cy="-983.81" rx="61.09" ry="26"/>
<text text-anchor="middle" x="694" y="-980.11" font-family="Times,serif" font-size="14.00">acc_ngen</text>
</a>
</g>
</g>
<!-- Accessible_acc_ngen&#45;&gt;Accessible_IsAccModality -->
<g id="edge16" class="edge">
<title>Accessible_acc_ngen&#45;&gt;Accessible_IsAccModality</title>
<path fill="none" stroke="black" d="M730.97,-963.07C810.99,-920.33 999.55,-819.61 1080.73,-776.26"/>
<polygon fill="black" stroke="black" points="1082.45,-779.3 1089.62,-771.5 1079.15,-773.13 1082.45,-779.3"/>
</g>
<!-- Accessible_IsAccModality_sind -->
<g id="node10" class="node">
<title>Accessible_IsAccModality_sind</title>
<g id="a_node10"><a xlink:href="Accessible.html#IsAccModality_sind" xlink:title="IsAccModality_sind">
<ellipse fill="#f070d1" stroke="black" cx="1754" cy="-983.81" rx="100.18" ry="18"/>
<ellipse fill="none" stroke="black" cx="1754" cy="-983.81" rx="104.18" ry="22"/>
<ellipse fill="none" stroke="black" cx="1754" cy="-983.81" rx="108.18" ry="26"/>
<text text-anchor="middle" x="1754" y="-980.11" font-family="Times,serif" font-size="14.00">IsAccModality_sind</text>
</a>
</g>
</g>
<!-- Accessible_IsAccModality_sind&#45;&gt;Accessible_Build_IsAccModality -->
<g id="edge17" class="edge">
<title>Accessible_IsAccModality_sind&#45;&gt;Accessible_Build_IsAccModality</title>
<path fill="none" stroke="black" d="M1710.2,-960.01C1625.47,-915.89 1440.26,-819.47 1358.35,-776.82"/>
<polygon fill="black" stroke="black" points="1359.83,-773.65 1349.35,-772.13 1356.6,-779.86 1359.83,-773.65"/>
</g>
<!-- Accessible_IsAccModality_sind&#45;&gt;Accessible_IsAccModality -->
<g id="edge18" class="edge">
<title>Accessible_IsAccModality_sind&#45;&gt;Accessible_IsAccModality</title>
<path fill="none" stroke="black" d="M1695.4,-961.86C1571.44,-917.55 1284.57,-815 1168.79,-773.61"/>
<polygon fill="black" stroke="black" points="1169.71,-770.22 1159.11,-770.15 1167.35,-776.82 1169.71,-770.22"/>
</g>
<!-- Accessible_IsAccModality_rec -->
<g id="node11" class="node">
<title>Accessible_IsAccModality_rec</title>
<g id="a_node11"><a xlink:href="Accessible.html#IsAccModality_rec" xlink:title="IsAccModality_rec">
<ellipse fill="#f070d1" stroke="black" cx="1529" cy="-1212.81" rx="94.79" ry="18"/>
<ellipse fill="none" stroke="black" cx="1529" cy="-1212.81" rx="98.79" ry="22"/>
<ellipse fill="none" stroke="black" cx="1529" cy="-1212.81" rx="102.78" ry="26"/>
<text text-anchor="middle" x="1529" y="-1209.11" font-family="Times,serif" font-size="14.00">IsAccModality_rec</text>
</a>
</g>
</g>
<!-- Accessible_IsAccModality_rect -->
<g id="node13" class="node">
<title>Accessible_IsAccModality_rect</title>
<g id="a_node13"><a xlink:href="Accessible.html#IsAccModality_rect" xlink:title="IsAccModality_rect">
<ellipse fill="#f070d1" stroke="black" cx="1529" cy="-983.81" rx="98.58" ry="18"/>
<text text-anchor="middle" x="1529" y="-980.11" font-family="Times,serif" font-size="14.00">IsAccModality_rect</text>
</a>
</g>
</g>
<!-- Accessible_IsAccModality_rec&#45;&gt;Accessible_IsAccModality_rect -->
<g id="edge19" class="edge">
<title>Accessible_IsAccModality_rec&#45;&gt;Accessible_IsAccModality_rect</title>
<path fill="none" stroke="black" d="M1529,-1186.65C1529,-1143.68 1529,-1056.48 1529,-1012.09"/>
<polygon fill="black" stroke="black" points="1532.5,-1012.04 1529,-1002.04 1525.5,-1012.04 1532.5,-1012.04"/>
</g>
<!-- Accessible_IsAccModality_ind -->
<g id="node12" class="node">
<title>Accessible_IsAccModality_ind</title>
<g id="a_node12"><a xlink:href="Accessible.html#IsAccModality_ind" xlink:title="IsAccModality_ind">
<ellipse fill="#7fffd4" stroke="black" cx="1309" cy="-983.81" rx="94.79" ry="18"/>
<ellipse fill="none" stroke="black" cx="1309" cy="-983.81" rx="98.79" ry="22"/>
<ellipse fill="none" stroke="black" cx="1309" cy="-983.81" rx="102.78" ry="26"/>
<text text-anchor="middle" x="1309" y="-980.11" font-family="Times,serif" font-size="14.00">IsAccModality_ind</text>
</a>
</g>
</g>
<!-- Accessible_IsAccModality_ind&#45;&gt;Accessible_Build_IsAccModality -->
<g id="edge20" class="edge">
<title>Accessible_IsAccModality_ind&#45;&gt;Accessible_Build_IsAccModality</title>
<path fill="none" stroke="black" d="M1310,-957.65C1311.7,-914.68 1315.16,-827.48 1316.92,-783.09"/>
<polygon fill="black" stroke="black" points="1320.42,-783.17 1317.32,-773.04 1313.42,-782.89 1320.42,-783.17"/>
</g>
<!-- Accessible_IsAccModality_ind&#45;&gt;Accessible_IsAccModality -->
<g id="edge21" class="edge">
<title>Accessible_IsAccModality_ind&#45;&gt;Accessible_IsAccModality</title>
<path fill="none" stroke="black" d="M1288.3,-958.09C1251.71,-914.37 1176.01,-823.92 1139.53,-780.34"/>
<polygon fill="black" stroke="black" points="1142.09,-777.95 1132.99,-772.53 1136.72,-782.44 1142.09,-777.95"/>
</g>
<!-- Accessible_IsAccModality_rect&#45;&gt;Accessible_Build_IsAccModality -->
<g id="edge22" class="edge">
<title>Accessible_IsAccModality_rect&#45;&gt;Accessible_Build_IsAccModality</title>
<path fill="none" stroke="black" d="M1513.14,-965.75C1476.09,-925.89 1383.72,-826.51 1340.7,-780.24"/>
<polygon fill="black" stroke="black" points="1343.13,-777.71 1333.76,-772.76 1338,-782.47 1343.13,-777.71"/>
</g>
<!-- Accessible_IsAccModality_rect&#45;&gt;Accessible_IsAccModality -->
<g id="edge23" class="edge">
<title>Accessible_IsAccModality_rect&#45;&gt;Accessible_IsAccModality</title>
<path fill="none" stroke="black" d="M1499.51,-966.49C1426.41,-926.01 1236.89,-821.09 1156.23,-776.43"/>
<polygon fill="black" stroke="black" points="1157.84,-773.32 1147.4,-771.54 1154.45,-779.44 1157.84,-773.32"/>
</g>
<!-- Accessible_Build_IsAccModality&#45;&gt;Accessible_IsNull_Internal_IsNull -->
<g id="edge24" class="edge">
<title>Accessible_Build_IsAccModality&#45;&gt;Accessible_IsNull_Internal_IsNull</title>
<path fill="none" stroke="black" d="M1310.48,-736.75C1293.14,-697.38 1250.23,-599.97 1229.53,-552.99"/>
<polygon fill="black" stroke="black" points="1232.7,-551.5 1225.47,-543.76 1226.3,-554.33 1232.7,-551.5"/>
</g>
<!-- Accessible_IsAccModality&#45;&gt;Accessible_IsNull_Internal_IsNull -->
<g id="edge25" class="edge">
<title>Accessible_IsAccModality&#45;&gt;Accessible_IsNull_Internal_IsNull</title>
<path fill="none" stroke="black" d="M1126.44,-736.75C1143.61,-697.38 1186.1,-599.97 1206.59,-552.99"/>
<polygon fill="black" stroke="black" points="1209.82,-554.33 1210.61,-543.76 1203.4,-551.53 1209.82,-554.33"/>
</g>
<!-- Accessible_extendable_isnull_fibers -->
<g id="node17" class="node">
<title>Accessible_extendable_isnull_fibers</title>
<g id="a_node17"><a xlink:href="Accessible.html#extendable_isnull_fibers" xlink:title="extendable_isnull_fibers">
<ellipse fill="#f070d1" stroke="black" cx="1801" cy="-525.81" rx="122.38" ry="18"/>
<text text-anchor="middle" x="1801" y="-522.11" font-family="Times,serif" font-size="14.00">extendable_isnull_fibers</text>
</a>
</g>
</g>
<!-- Accessible_ooextendable_isnull_fibers&#45;&gt;Accessible_extendable_isnull_fibers -->
<g id="edge26" class="edge">
<title>Accessible_ooextendable_isnull_fibers&#45;&gt;Accessible_extendable_isnull_fibers</title>
<path fill="none" stroke="black" d="M1812.1,-736.75C1810.03,-697.72 1804.96,-601.66 1802.45,-554.22"/>
<polygon fill="black" stroke="black" points="1805.94,-553.87 1801.91,-544.07 1798.95,-554.24 1805.94,-553.87"/>
</g>
<!-- Accessible_NullGenerators -->
<g id="node26" class="node">
<title>Accessible_NullGenerators</title>
<g id="a_node26"><a xlink:href="Accessible.html#NullGenerators" xlink:title="NullGenerators">
<ellipse fill="#e2cdfa" stroke="black" cx="2187" cy="-88.81" rx="82.59" ry="18"/>
<text text-anchor="middle" x="2187" y="-85.11" font-family="Times,serif" font-size="14.00">NullGenerators</text>
</a>
</g>
</g>
<!-- Accessible_null_to_local_generators&#45;&gt;Accessible_NullGenerators -->
<g id="edge27" class="edge">
<title>Accessible_null_to_local_generators&#45;&gt;Accessible_NullGenerators</title>
<path fill="none" stroke="black" d="M1412.98,-281C1565.93,-243.22 1969.37,-143.57 2124.76,-105.19"/>
<polygon fill="black" stroke="black" points="2125.76,-108.55 2134.63,-102.75 2124.08,-101.75 2125.76,-108.55"/>
</g>
<!-- Accessible_Build_LocalGenerators -->
<g id="node44" class="node">
<title>Accessible_Build_LocalGenerators</title>
<g id="a_node44"><a xlink:href="Accessible.html#Build_LocalGenerators" xlink:title="Build_LocalGenerators">
<ellipse fill="#7faaff" stroke="black" cx="498" cy="-88.81" rx="116.18" ry="18"/>
<text text-anchor="middle" x="498" y="-85.11" font-family="Times,serif" font-size="14.00">Build_LocalGenerators</text>
</a>
</g>
</g>
<!-- Accessible_null_to_local_generators&#45;&gt;Accessible_Build_LocalGenerators -->
<g id="edge28" class="edge">
<title>Accessible_null_to_local_generators&#45;&gt;Accessible_Build_LocalGenerators</title>
<path fill="none" stroke="black" d="M1292.2,-281.16C1137.86,-243.98 731.63,-146.1 567.89,-106.65"/>
<polygon fill="black" stroke="black" points="568.47,-103.19 557.92,-104.25 566.83,-110 568.47,-103.19"/>
</g>
<!-- Accessible_null_to_local_generators&#45;&gt;Accessible_LocalGenerators -->
<g id="edge29" class="edge">
<title>Accessible_null_to_local_generators&#45;&gt;Accessible_LocalGenerators</title>
<path fill="none" stroke="black" d="M1321.82,-279.3C1251.49,-242.06 1080.58,-151.55 1003.21,-110.58"/>
<polygon fill="black" stroke="black" points="1004.72,-107.42 994.25,-105.83 1001.45,-113.61 1004.72,-107.42"/>
</g>
<!-- Accessible_ngen_type -->
<g id="node19" class="node">
<title>Accessible_ngen_type</title>
<g id="a_node19"><a xlink:href="Accessible.html#ngen_type" xlink:title="ngen_type">
<ellipse fill="#f070d1" stroke="black" cx="2505" cy="-296.81" rx="58.49" ry="18"/>
<ellipse fill="none" stroke="black" cx="2505" cy="-296.81" rx="62.49" ry="22"/>
<ellipse fill="none" stroke="black" cx="2505" cy="-296.81" rx="66.49" ry="26"/>
<text text-anchor="middle" x="2505" y="-293.11" font-family="Times,serif" font-size="14.00">ngen_type</text>
</a>
</g>
</g>
<!-- Accessible_ngen_type&#45;&gt;Accessible_NullGenerators -->
<g id="edge30" class="edge">
<title>Accessible_ngen_type&#45;&gt;Accessible_NullGenerators</title>
<path fill="none" stroke="black" d="M2471.57,-274.16C2410.62,-234.68 2282.09,-151.41 2220.84,-111.74"/>
<polygon fill="black" stroke="black" points="2222.61,-108.71 2212.31,-106.21 2218.8,-114.58 2222.61,-108.71"/>
</g>
<!-- Accessible_ngen_indices -->
<g id="node20" class="node">
<title>Accessible_ngen_indices</title>
<g id="a_node20"><a xlink:href="Accessible.html#ngen_indices" xlink:title="ngen_indices">
<ellipse fill="#f070d1" stroke="black" cx="2668" cy="-296.81" rx="70.7" ry="18"/>
<ellipse fill="none" stroke="black" cx="2668" cy="-296.81" rx="74.7" ry="22"/>
<ellipse fill="none" stroke="black" cx="2668" cy="-296.81" rx="78.69" ry="26"/>
<text text-anchor="middle" x="2668" y="-293.11" font-family="Times,serif" font-size="14.00">ngen_indices</text>
</a>
</g>
</g>
<!-- Accessible_ngen_indices&#45;&gt;Accessible_NullGenerators -->
<g id="edge31" class="edge">
<title>Accessible_ngen_indices&#45;&gt;Accessible_NullGenerators</title>
<path fill="none" stroke="black" d="M2621,-275.69C2528.31,-235.99 2323.03,-148.07 2231.99,-109.08"/>
<polygon fill="black" stroke="black" points="2233.33,-105.85 2222.76,-105.13 2230.58,-112.28 2233.33,-105.85"/>
</g>
<!-- Accessible_NullGenerators_sind -->
<g id="node21" class="node">
<title>Accessible_NullGenerators_sind</title>
<g id="a_node21"><a xlink:href="Accessible.html#NullGenerators_sind" xlink:title="NullGenerators_sind">
<ellipse fill="#f070d1" stroke="black" cx="2306" cy="-296.81" rx="106.67" ry="18"/>
<ellipse fill="none" stroke="black" cx="2306" cy="-296.81" rx="110.68" ry="22"/>
<ellipse fill="none" stroke="black" cx="2306" cy="-296.81" rx="114.68" ry="26"/>
<text text-anchor="middle" x="2306" y="-293.11" font-family="Times,serif" font-size="14.00">NullGenerators_sind</text>
</a>
</g>
</g>
<!-- Accessible_NullGenerators_sind&#45;&gt;Accessible_Build_NullGenerators -->
<g id="edge32" class="edge">
<title>Accessible_NullGenerators_sind&#45;&gt;Accessible_Build_NullGenerators</title>
<path fill="none" stroke="black" d="M2261.17,-272.78C2182.67,-232.46 2021.52,-149.67 1945.89,-110.82"/>
<polygon fill="black" stroke="black" points="1947.17,-107.54 1936.67,-106.08 1943.97,-113.77 1947.17,-107.54"/>
</g>
<!-- Accessible_NullGenerators_sind&#45;&gt;Accessible_NullGenerators -->
<g id="edge33" class="edge">
<title>Accessible_NullGenerators_sind&#45;&gt;Accessible_NullGenerators</title>
<path fill="none" stroke="black" d="M2291.65,-270.97C2268.93,-231.63 2224.9,-155.42 2201.87,-115.55"/>
<polygon fill="black" stroke="black" points="2204.78,-113.6 2196.75,-106.7 2198.72,-117.11 2204.78,-113.6"/>
</g>
<!-- Accessible_NullGenerators_rec -->
<g id="node22" class="node">
<title>Accessible_NullGenerators_rec</title>
<g id="a_node22"><a xlink:href="Accessible.html#NullGenerators_rec" xlink:title="NullGenerators_rec">
<ellipse fill="#f070d1" stroke="black" cx="2070" cy="-525.81" rx="101.29" ry="18"/>
<ellipse fill="none" stroke="black" cx="2070" cy="-525.81" rx="105.29" ry="22"/>
<ellipse fill="none" stroke="black" cx="2070" cy="-525.81" rx="109.28" ry="26"/>
<text text-anchor="middle" x="2070" y="-522.11" font-family="Times,serif" font-size="14.00">NullGenerators_rec</text>
</a>
</g>
</g>
<!-- Accessible_NullGenerators_rect -->
<g id="node24" class="node">
<title>Accessible_NullGenerators_rect</title>
<g id="a_node24"><a xlink:href="Accessible.html#NullGenerators_rect" xlink:title="NullGenerators_rect">
<ellipse fill="#f070d1" stroke="black" cx="2068" cy="-296.81" rx="105.08" ry="18"/>
<text text-anchor="middle" x="2068" y="-293.11" font-family="Times,serif" font-size="14.00">NullGenerators_rect</text>
</a>
</g>
</g>
<!-- Accessible_NullGenerators_rec&#45;&gt;Accessible_NullGenerators_rect -->
<g id="edge34" class="edge">
<title>Accessible_NullGenerators_rec&#45;&gt;Accessible_NullGenerators_rect</title>
<path fill="none" stroke="black" d="M2069.78,-499.65C2069.4,-456.68 2068.63,-369.48 2068.24,-325.09"/>
<polygon fill="black" stroke="black" points="2071.74,-325.01 2068.15,-315.04 2064.74,-325.07 2071.74,-325.01"/>
</g>
<!-- Accessible_NullGenerators_ind -->
<g id="node23" class="node">
<title>Accessible_NullGenerators_ind</title>
<g id="a_node23"><a xlink:href="Accessible.html#NullGenerators_ind" xlink:title="NullGenerators_ind">
<ellipse fill="#7fffd4" stroke="black" cx="1835" cy="-296.81" rx="101.29" ry="18"/>
<ellipse fill="none" stroke="black" cx="1835" cy="-296.81" rx="105.29" ry="22"/>
<ellipse fill="none" stroke="black" cx="1835" cy="-296.81" rx="109.28" ry="26"/>
<text text-anchor="middle" x="1835" y="-293.11" font-family="Times,serif" font-size="14.00">NullGenerators_ind</text>
</a>
</g>
</g>
<!-- Accessible_NullGenerators_ind&#45;&gt;Accessible_Build_NullGenerators -->
<g id="edge35" class="edge">
<title>Accessible_NullGenerators_ind&#45;&gt;Accessible_Build_NullGenerators</title>
<path fill="none" stroke="black" d="M1843.58,-270.55C1856.88,-231.42 1882.35,-156.47 1895.93,-116.49"/>
<polygon fill="black" stroke="black" points="1899.29,-117.48 1899.2,-106.89 1892.67,-115.23 1899.29,-117.48"/>
</g>
<!-- Accessible_NullGenerators_ind&#45;&gt;Accessible_NullGenerators -->
<g id="edge36" class="edge">
<title>Accessible_NullGenerators_ind&#45;&gt;Accessible_NullGenerators</title>
<path fill="none" stroke="black" d="M1874.69,-272.58C1943.56,-232.28 2084.14,-150.01 2150.62,-111.1"/>
<polygon fill="black" stroke="black" points="2152.63,-113.98 2159.49,-105.91 2149.1,-107.94 2152.63,-113.98"/>
</g>
<!-- Accessible_NullGenerators_rect&#45;&gt;Accessible_Build_NullGenerators -->
<g id="edge37" class="edge">
<title>Accessible_NullGenerators_rect&#45;&gt;Accessible_Build_NullGenerators</title>
<path fill="none" stroke="black" d="M2054.66,-278.96C2026.01,-242.74 1958.45,-157.36 1924.78,-114.81"/>
<polygon fill="black" stroke="black" points="1927.47,-112.57 1918.52,-106.9 1921.98,-116.92 1927.47,-112.57"/>
</g>
<!-- Accessible_NullGenerators_rect&#45;&gt;Accessible_NullGenerators -->
<g id="edge38" class="edge">
<title>Accessible_NullGenerators_rect&#45;&gt;Accessible_NullGenerators</title>
<path fill="none" stroke="black" d="M2077.94,-278.6C2098.86,-242.39 2147.53,-158.14 2172.16,-115.51"/>
<polygon fill="black" stroke="black" points="2175.2,-117.24 2177.17,-106.83 2169.14,-113.74 2175.2,-117.24"/>
</g>
<!-- Accessible_O_inverts_generators&#45;&gt;Accessible_IsAccRSU -->
<g id="edge39" class="edge">
<title>Accessible_O_inverts_generators&#45;&gt;Accessible_IsAccRSU</title>
<path fill="none" stroke="black" d="M1501.01,-738.74C1364.02,-697.45 983.73,-582.81 847.42,-541.71"/>
<polygon fill="black" stroke="black" points="848.24,-538.3 837.65,-538.77 846.21,-545 848.24,-538.3"/>
</g>
<!-- Accessible_lgenerator -->
<g id="node36" class="node">
<title>Accessible_lgenerator</title>
<g id="a_node36"><a xlink:href="Accessible.html#lgenerator" xlink:title="lgenerator">
<ellipse fill="#f070d1" stroke="black" cx="1580" cy="-525.81" rx="59.59" ry="18"/>
<text text-anchor="middle" x="1580" y="-522.11" font-family="Times,serif" font-size="14.00">lgenerator</text>
</a>
</g>
</g>
<!-- Accessible_O_inverts_generators&#45;&gt;Accessible_lgenerator -->
<g id="edge40" class="edge">
<title>Accessible_O_inverts_generators&#45;&gt;Accessible_lgenerator</title>
<path fill="none" stroke="black" d="M1553.18,-736.75C1558.17,-697.72 1570.44,-601.66 1576.5,-554.22"/>
<polygon fill="black" stroke="black" points="1580,-554.44 1577.79,-544.07 1573.06,-553.55 1580,-554.44"/>
</g>
<!-- Accessible_inO_iff_islocal -->
<g id="node28" class="node">
<title>Accessible_inO_iff_islocal</title>
<g id="a_node28"><a xlink:href="Accessible.html#inO_iff_islocal" xlink:title="inO_iff_islocal">
<ellipse fill="#f070d1" stroke="black" cx="789" cy="-754.81" rx="74.18" ry="18"/>
<ellipse fill="none" stroke="black" cx="789" cy="-754.81" rx="78.18" ry="22"/>
<ellipse fill="none" stroke="black" cx="789" cy="-754.81" rx="82.19" ry="26"/>
<text text-anchor="middle" x="789" y="-751.11" font-family="Times,serif" font-size="14.00">inO_iff_islocal</text>
</a>
</g>
</g>
<!-- Accessible_inO_iff_islocal&#45;&gt;Accessible_IsAccRSU -->
<g id="edge41" class="edge">
<title>Accessible_inO_iff_islocal&#45;&gt;Accessible_IsAccRSU</title>
<path fill="none" stroke="black" d="M790,-728.65C791.7,-685.68 795.16,-598.48 796.92,-554.09"/>
<polygon fill="black" stroke="black" points="800.42,-554.17 797.32,-544.04 793.42,-553.89 800.42,-554.17"/>
</g>
<!-- Accessible_acc_lgen -->
<g id="node29" class="node">
<title>Accessible_acc_lgen</title>
<g id="a_node29"><a xlink:href="Accessible.html#acc_lgen" xlink:title="acc_lgen">
<ellipse fill="#f070d1" stroke="black" cx="967" cy="-754.81" rx="50.08" ry="18"/>
<ellipse fill="none" stroke="black" cx="967" cy="-754.81" rx="54.09" ry="22"/>
<ellipse fill="none" stroke="black" cx="967" cy="-754.81" rx="58.09" ry="26"/>
<text text-anchor="middle" x="967" y="-751.11" font-family="Times,serif" font-size="14.00">acc_lgen</text>
</a>
</g>
</g>
<!-- Accessible_acc_lgen&#45;&gt;Accessible_IsAccRSU -->
<g id="edge42" class="edge">
<title>Accessible_acc_lgen&#45;&gt;Accessible_IsAccRSU</title>
<path fill="none" stroke="black" d="M949.23,-729.95C916.98,-686.62 849.1,-595.45 816.39,-551.52"/>
<polygon fill="black" stroke="black" points="819.12,-549.32 810.34,-543.39 813.5,-553.5 819.12,-549.32"/>
</g>
<!-- Accessible_IsAccRSU_sind -->
<g id="node30" class="node">
<title>Accessible_IsAccRSU_sind</title>
<g id="a_node30"><a xlink:href="Accessible.html#IsAccRSU_sind" xlink:title="IsAccRSU_sind">
<ellipse fill="#f070d1" stroke="black" cx="601" cy="-754.81" rx="79.89" ry="18"/>
<ellipse fill="none" stroke="black" cx="601" cy="-754.81" rx="83.89" ry="22"/>
<ellipse fill="none" stroke="black" cx="601" cy="-754.81" rx="87.89" ry="26"/>
<text text-anchor="middle" x="601" y="-751.11" font-family="Times,serif" font-size="14.00">IsAccRSU_sind</text>
</a>
</g>
</g>
<!-- Accessible_IsAccRSU_sind&#45;&gt;Accessible_Build_IsAccRSU -->
<g id="edge43" class="edge">
<title>Accessible_IsAccRSU_sind&#45;&gt;Accessible_Build_IsAccRSU</title>
<path fill="none" stroke="black" d="M590.58,-728.65C572.71,-685.5 536.37,-597.74 518.06,-553.53"/>
<polygon fill="black" stroke="black" points="521.19,-551.94 514.13,-544.04 514.72,-554.62 521.19,-551.94"/>
</g>
<!-- Accessible_IsAccRSU_sind&#45;&gt;Accessible_IsAccRSU -->
<g id="edge44" class="edge">
<title>Accessible_IsAccRSU_sind&#45;&gt;Accessible_IsAccRSU</title>
<path fill="none" stroke="black" d="M622.08,-729.52C659.94,-685.9 739.02,-594.77 776.9,-551.13"/>
<polygon fill="black" stroke="black" points="779.77,-553.16 783.68,-543.31 774.49,-548.57 779.77,-553.16"/>
</g>
<!-- Accessible_IsAccRSU_rec -->
<g id="node31" class="node">
<title>Accessible_IsAccRSU_rec</title>
<g id="a_node31"><a xlink:href="Accessible.html#IsAccRSU_rec" xlink:title="IsAccRSU_rec">
<ellipse fill="#f070d1" stroke="black" cx="99" cy="-983.81" rx="75.3" ry="18"/>
<ellipse fill="none" stroke="black" cx="99" cy="-983.81" rx="79.29" ry="22"/>
<ellipse fill="none" stroke="black" cx="99" cy="-983.81" rx="83.29" ry="26"/>
<text text-anchor="middle" x="99" y="-980.11" font-family="Times,serif" font-size="14.00">IsAccRSU_rec</text>
</a>
</g>
</g>
<!-- Accessible_IsAccRSU_rect -->
<g id="node33" class="node">
<title>Accessible_IsAccRSU_rect</title>
<g id="a_node33"><a xlink:href="Accessible.html#IsAccRSU_rect" xlink:title="IsAccRSU_rect">
<ellipse fill="#f070d1" stroke="black" cx="212" cy="-754.81" rx="79.09" ry="18"/>
<text text-anchor="middle" x="212" y="-751.11" font-family="Times,serif" font-size="14.00">IsAccRSU_rect</text>
</a>
</g>
</g>
<!-- Accessible_IsAccRSU_rec&#45;&gt;Accessible_IsAccRSU_rect -->
<g id="edge45" class="edge">
<title>Accessible_IsAccRSU_rec&#45;&gt;Accessible_IsAccRSU_rect</title>
<path fill="none" stroke="black" d="M111.31,-958.09C132.79,-914.93 176.94,-826.24 198.94,-782.05"/>
<polygon fill="black" stroke="black" points="202.21,-783.33 203.53,-772.82 195.94,-780.21 202.21,-783.33"/>
</g>
<!-- Accessible_IsAccRSU_ind -->
<g id="node32" class="node">
<title>Accessible_IsAccRSU_ind</title>
<g id="a_node32"><a xlink:href="Accessible.html#IsAccRSU_ind" xlink:title="IsAccRSU_ind">
<ellipse fill="#7fffd4" stroke="black" cx="412" cy="-754.81" rx="75.3" ry="18"/>
<ellipse fill="none" stroke="black" cx="412" cy="-754.81" rx="79.29" ry="22"/>
<ellipse fill="none" stroke="black" cx="412" cy="-754.81" rx="83.29" ry="26"/>
<text text-anchor="middle" x="412" y="-751.11" font-family="Times,serif" font-size="14.00">IsAccRSU_ind</text>
</a>
</g>
</g>
<!-- Accessible_IsAccRSU_ind&#45;&gt;Accessible_Build_IsAccRSU -->
<g id="edge46" class="edge">
<title>Accessible_IsAccRSU_ind&#45;&gt;Accessible_Build_IsAccRSU</title>
<path fill="none" stroke="black" d="M422.53,-728.65C440.59,-685.5 477.32,-597.74 495.82,-553.53"/>
<polygon fill="black" stroke="black" points="499.16,-554.61 499.79,-544.04 492.7,-551.91 499.16,-554.61"/>
</g>
<!-- Accessible_IsAccRSU_ind&#45;&gt;Accessible_IsAccRSU -->
<g id="edge47" class="edge">
<title>Accessible_IsAccRSU_ind&#45;&gt;Accessible_IsAccRSU</title>
<path fill="none" stroke="black" d="M450.07,-731.43C525.22,-687.23 691.57,-589.4 763.62,-547.03"/>
<polygon fill="black" stroke="black" points="765.49,-549.99 772.33,-541.91 761.94,-543.96 765.49,-549.99"/>
</g>
<!-- Accessible_IsAccRSU_rect&#45;&gt;Accessible_Build_IsAccRSU -->
<g id="edge48" class="edge">
<title>Accessible_IsAccRSU_rect&#45;&gt;Accessible_Build_IsAccRSU</title>
<path fill="none" stroke="black" d="M233.69,-737.12C285.69,-697.11 417.53,-595.66 477.04,-549.87"/>
<polygon fill="black" stroke="black" points="479.49,-552.4 485.28,-543.53 475.22,-546.85 479.49,-552.4"/>
</g>
<!-- Accessible_IsAccRSU_rect&#45;&gt;Accessible_IsAccRSU -->
<g id="edge49" class="edge">
<title>Accessible_IsAccRSU_rect&#45;&gt;Accessible_IsAccRSU</title>
<path fill="none" stroke="black" d="M250.45,-738.92C354.88,-698.47 643.33,-586.73 753.99,-543.86"/>
<polygon fill="black" stroke="black" points="755.46,-547.05 763.52,-540.17 752.93,-540.52 755.46,-547.05"/>
</g>
<!-- Accessible_Build_IsAccRSU&#45;&gt;Accessible_IsLocal_Internal_IsLocal -->
<g id="edge50" class="edge">
<title>Accessible_Build_IsAccRSU&#45;&gt;Accessible_IsLocal_Internal_IsLocal</title>
<path fill="none" stroke="black" d="M533.98,-508.54C582.52,-478.76 686.97,-412.43 767,-345.81 775.83,-338.46 784.9,-329.75 792.74,-321.78"/>
<polygon fill="black" stroke="black" points="795.69,-323.75 800.12,-314.13 790.66,-318.89 795.69,-323.75"/>
</g>
<!-- Accessible_IsAccRSU&#45;&gt;Accessible_IsLocal_Internal_IsLocal -->
<g id="edge51" class="edge">
<title>Accessible_IsAccRSU&#45;&gt;Accessible_IsLocal_Internal_IsLocal</title>
<path fill="none" stroke="black" d="M799.28,-507.75C802.2,-468.72 809.39,-372.66 812.95,-325.22"/>
<polygon fill="black" stroke="black" points="816.45,-325.31 813.71,-315.07 809.47,-324.78 816.45,-325.31"/>
</g>
<!-- Accessible_lgenerator&#45;&gt;Accessible_LocalGenerators -->
<g id="edge52" class="edge">
<title>Accessible_lgenerator&#45;&gt;Accessible_LocalGenerators</title>
<path fill="none" stroke="black" d="M1596.49,-508.31C1637.51,-465.27 1736.7,-347.57 1677,-270.81 1600.17,-172.04 1223.14,-118.42 1050.55,-98.71"/>
<polygon fill="black" stroke="black" points="1050.82,-95.22 1040.49,-97.57 1050.03,-102.17 1050.82,-95.22"/>
</g>
<!-- Accessible_lgen_codomain -->
<g id="node37" class="node">
<title>Accessible_lgen_codomain</title>
<g id="a_node37"><a xlink:href="Accessible.html#lgen_codomain" xlink:title="lgen_codomain">
<ellipse fill="#f070d1" stroke="black" cx="1581" cy="-296.81" rx="79.11" ry="18"/>
<ellipse fill="none" stroke="black" cx="1581" cy="-296.81" rx="83.1" ry="22"/>
<ellipse fill="none" stroke="black" cx="1581" cy="-296.81" rx="87.09" ry="26"/>
<text text-anchor="middle" x="1581" y="-293.11" font-family="Times,serif" font-size="14.00">lgen_codomain</text>
</a>
</g>
</g>
<!-- Accessible_lgen_codomain&#45;&gt;Accessible_LocalGenerators -->
<g id="edge53" class="edge">
<title>Accessible_lgen_codomain&#45;&gt;Accessible_LocalGenerators</title>
<path fill="none" stroke="black" d="M1524.34,-276.89C1405.8,-237.32 1133.08,-146.26 1017.42,-107.65"/>
<polygon fill="black" stroke="black" points="1018.31,-104.25 1007.71,-104.41 1016.09,-110.89 1018.31,-104.25"/>
</g>
<!-- Accessible_lgen_domain -->
<g id="node38" class="node">
<title>Accessible_lgen_domain</title>
<g id="a_node38"><a xlink:href="Accessible.html#lgen_domain" xlink:title="lgen_domain">
<ellipse fill="#f070d1" stroke="black" cx="1135" cy="-296.81" rx="69.58" ry="18"/>
<ellipse fill="none" stroke="black" cx="1135" cy="-296.81" rx="73.59" ry="22"/>
<ellipse fill="none" stroke="black" cx="1135" cy="-296.81" rx="77.59" ry="26"/>
<text text-anchor="middle" x="1135" y="-293.11" font-family="Times,serif" font-size="14.00">lgen_domain</text>
</a>
</g>
</g>
<!-- Accessible_lgen_domain&#45;&gt;Accessible_LocalGenerators -->
<g id="edge54" class="edge">
<title>Accessible_lgen_domain&#45;&gt;Accessible_LocalGenerators</title>
<path fill="none" stroke="black" d="M1114.71,-271.37C1081.92,-231.87 1017.63,-154.42 984.62,-114.66"/>
<polygon fill="black" stroke="black" points="987.16,-112.23 978.08,-106.77 981.77,-116.7 987.16,-112.23"/>
</g>
<!-- Accessible_lgen_indices -->
<g id="node39" class="node">
<title>Accessible_lgen_indices</title>
<g id="a_node39"><a xlink:href="Accessible.html#lgen_indices" xlink:title="lgen_indices">
<ellipse fill="#f070d1" stroke="black" cx="964" cy="-296.81" rx="67.68" ry="18"/>
<ellipse fill="none" stroke="black" cx="964" cy="-296.81" rx="71.68" ry="22"/>
<ellipse fill="none" stroke="black" cx="964" cy="-296.81" rx="75.69" ry="26"/>
<text text-anchor="middle" x="964" y="-293.11" font-family="Times,serif" font-size="14.00">lgen_indices</text>
</a>
</g>
</g>
<!-- Accessible_lgen_indices&#45;&gt;Accessible_LocalGenerators -->
<g id="edge55" class="edge">
<title>Accessible_lgen_indices&#45;&gt;Accessible_LocalGenerators</title>
<path fill="none" stroke="black" d="M964,-270.55C964,-231.58 964,-157.11 964,-117"/>
<polygon fill="black" stroke="black" points="967.5,-116.89 964,-106.89 960.5,-116.89 967.5,-116.89"/>
</g>
<!-- Accessible_LocalGenerators_sind -->
<g id="node40" class="node">
<title>Accessible_LocalGenerators_sind</title>
<g id="a_node40"><a xlink:href="Accessible.html#LocalGenerators_sind" xlink:title="LocalGenerators_sind">
<ellipse fill="#f070d1" stroke="black" cx="622" cy="-296.81" rx="111.27" ry="18"/>
<ellipse fill="none" stroke="black" cx="622" cy="-296.81" rx="115.28" ry="22"/>
<ellipse fill="none" stroke="black" cx="622" cy="-296.81" rx="119.28" ry="26"/>
<text text-anchor="middle" x="622" y="-293.11" font-family="Times,serif" font-size="14.00">LocalGenerators_sind</text>
</a>
</g>
</g>
<!-- Accessible_LocalGenerators_sind&#45;&gt;Accessible_Build_LocalGenerators -->
<g id="edge56" class="edge">
<title>Accessible_LocalGenerators_sind&#45;&gt;Accessible_Build_LocalGenerators</title>
<path fill="none" stroke="black" d="M607.04,-270.97C583.38,-231.65 537.53,-155.49 513.52,-115.6"/>
<polygon fill="black" stroke="black" points="516.48,-113.73 508.33,-106.97 510.49,-117.34 516.48,-113.73"/>
</g>
<!-- Accessible_LocalGenerators_sind&#45;&gt;Accessible_LocalGenerators -->
<g id="edge57" class="edge">
<title>Accessible_LocalGenerators_sind&#45;&gt;Accessible_LocalGenerators</title>
<path fill="none" stroke="black" d="M661.23,-272.18C728.26,-231.81 863.83,-150.15 928.33,-111.3"/>
<polygon fill="black" stroke="black" points="930.19,-114.26 936.95,-106.11 926.58,-108.27 930.19,-114.26"/>
</g>
<!-- Accessible_LocalGenerators_rec -->
<g id="node41" class="node">
<title>Accessible_LocalGenerators_rec</title>
<g id="a_node41"><a xlink:href="Accessible.html#LocalGenerators_rec" xlink:title="LocalGenerators_rec">
<ellipse fill="#f070d1" stroke="black" cx="289" cy="-525.81" rx="106.67" ry="18"/>
<ellipse fill="none" stroke="black" cx="289" cy="-525.81" rx="110.68" ry="22"/>
<ellipse fill="none" stroke="black" cx="289" cy="-525.81" rx="114.68" ry="26"/>
<text text-anchor="middle" x="289" y="-522.11" font-family="Times,serif" font-size="14.00">LocalGenerators_rec</text>
</a>
</g>
</g>
<!-- Accessible_LocalGenerators_rect -->
<g id="node43" class="node">
<title>Accessible_LocalGenerators_rect</title>
<g id="a_node43"><a xlink:href="Accessible.html#LocalGenerators_rect" xlink:title="LocalGenerators_rect">
<ellipse fill="#f070d1" stroke="black" cx="374" cy="-296.81" rx="110.48" ry="18"/>
<text text-anchor="middle" x="374" y="-293.11" font-family="Times,serif" font-size="14.00">LocalGenerators_rect</text>
</a>
</g>
</g>
<!-- Accessible_LocalGenerators_rec&#45;&gt;Accessible_LocalGenerators_rect -->
<g id="edge58" class="edge">
<title>Accessible_LocalGenerators_rec&#45;&gt;Accessible_LocalGenerators_rect</title>
<path fill="none" stroke="black" d="M298.42,-499.65C314.58,-456.5 347.44,-368.74 363.99,-324.53"/>
<polygon fill="black" stroke="black" points="367.32,-325.63 367.55,-315.04 360.77,-323.17 367.32,-325.63"/>
</g>
<!-- Accessible_LocalGenerators_ind -->
<g id="node42" class="node">
<title>Accessible_LocalGenerators_ind</title>
<g id="a_node42"><a xlink:href="Accessible.html#LocalGenerators_ind" xlink:title="LocalGenerators_ind">
<ellipse fill="#7fffd4" stroke="black" cx="131" cy="-296.81" rx="106.67" ry="18"/>
<ellipse fill="none" stroke="black" cx="131" cy="-296.81" rx="110.68" ry="22"/>
<ellipse fill="none" stroke="black" cx="131" cy="-296.81" rx="114.68" ry="26"/>
<text text-anchor="middle" x="131" y="-293.11" font-family="Times,serif" font-size="14.00">LocalGenerators_ind</text>
</a>
</g>
</g>
<!-- Accessible_LocalGenerators_ind&#45;&gt;Accessible_Build_LocalGenerators -->
<g id="edge59" class="edge">
<title>Accessible_LocalGenerators_ind&#45;&gt;Accessible_Build_LocalGenerators</title>
<path fill="none" stroke="black" d="M172.74,-272.38C244.48,-232.12 390.13,-150.36 459.54,-111.4"/>
<polygon fill="black" stroke="black" points="461.41,-114.37 468.42,-106.42 457.98,-108.26 461.41,-114.37"/>
</g>
<!-- Accessible_LocalGenerators_ind&#45;&gt;Accessible_LocalGenerators -->
<g id="edge60" class="edge">
<title>Accessible_LocalGenerators_ind&#45;&gt;Accessible_LocalGenerators</title>
<path fill="none" stroke="black" d="M206.39,-277.17C368.76,-237.01 749.04,-142.97 900.3,-105.57"/>
<polygon fill="black" stroke="black" points="901.5,-108.88 910.36,-103.08 899.81,-102.08 901.5,-108.88"/>
</g>
<!-- Accessible_LocalGenerators_rect&#45;&gt;Accessible_Build_LocalGenerators -->
<g id="edge61" class="edge">
<title>Accessible_LocalGenerators_rect&#45;&gt;Accessible_Build_LocalGenerators</title>
<path fill="none" stroke="black" d="M384.36,-278.6C406.16,-242.39 456.87,-158.14 482.53,-115.51"/>
<polygon fill="black" stroke="black" points="485.6,-117.2 487.76,-106.83 479.6,-113.59 485.6,-117.2"/>
</g>
<!-- Accessible_LocalGenerators_rect&#45;&gt;Accessible_LocalGenerators -->
<g id="edge62" class="edge">
<title>Accessible_LocalGenerators_rect&#45;&gt;Accessible_LocalGenerators</title>
<path fill="none" stroke="black" d="M418.83,-280.16C526.22,-242.66 797.77,-147.85 912.05,-107.95"/>
<polygon fill="black" stroke="black" points="913.34,-111.21 921.63,-104.61 911.03,-104.6 913.34,-111.21"/>
</g>
</g>
</svg>
