<?xml version="1.0" encoding="UTF-8" standalone="no"?>
<!DOCTYPE svg PUBLIC "-//W3C//DTD SVG 1.1//EN"
 "http://www.w3.org/Graphics/SVG/1.1/DTD/svg11.dtd">
<!-- Generated by graphviz version 2.43.0 (0)
 -->
<!-- Title: HoTT_Limits_Limit Pages: 1 -->
<svg width="1864pt" height="936pt"
 viewBox="0.00 0.00 1864.00 936.00" xmlns="http://www.w3.org/2000/svg" xmlns:xlink="http://www.w3.org/1999/xlink">
<g id="graph0" class="graph" transform="scale(1 1) rotate(0) translate(4 932)">
<title>HoTT_Limits_Limit</title>
<polygon fill="white" stroke="transparent" points="-4,4 -4,-932 1860,-932 1860,4 -4,4"/>
<g id="clust1" class="cluster">
<title>cluster_Limit</title>
<polygon fill="#ffffc3" stroke="black" points="8,-8.89 8,-919.11 1848,-919.11 1848,-8.89 8,-8.89"/>
<text text-anchor="middle" x="35" y="-903.91" font-family="Times,serif" font-size="14.00">Limit</text>
</g>
<!-- Limit_limit_adjoint -->
<g id="node1" class="node">
<title>Limit_limit_adjoint</title>
<g id="a_node1"><a xlink:href="Limit.html#limit_adjoint" xlink:title="limit_adjoint">
<ellipse fill="#f070d1" stroke="black" cx="1403" cy="-224.89" rx="68.8" ry="18"/>
<ellipse fill="none" stroke="black" cx="1403" cy="-224.89" rx="72.79" ry="22"/>
<ellipse fill="none" stroke="black" cx="1403" cy="-224.89" rx="76.79" ry="26"/>
<text text-anchor="middle" x="1403" y="-221.19" font-family="Times,serif" font-size="14.00">limit_adjoint</text>
</a>
</g>
</g>
<!-- Limit_limp -->
<g id="node14" class="node">
<title>Limit_limp</title>
<g id="a_node14"><a xlink:href="Limit.html#limp" xlink:title="limp">
<ellipse fill="#f070d1" stroke="black" cx="1556" cy="-126.89" rx="31.4" ry="18"/>
<text text-anchor="middle" x="1556" y="-123.19" font-family="Times,serif" font-size="14.00">limp</text>
</a>
</g>
</g>
<!-- Limit_limit_adjoint&#45;&gt;Limit_limp -->
<g id="edge1" class="edge">
<title>Limit_limit_adjoint&#45;&gt;Limit_limp</title>
<path fill="none" stroke="black" d="M1438.49,-201.63C1465.37,-184.75 1501.86,-161.86 1527.01,-146.08"/>
<polygon fill="black" stroke="black" points="1529.11,-148.89 1535.72,-140.61 1525.39,-142.96 1529.11,-148.89"/>
</g>
<!-- Limit_lim -->
<g id="node15" class="node">
<title>Limit_lim</title>
<g id="a_node15"><a xlink:href="Limit.html#lim" xlink:title="lim">
<ellipse fill="#f070d1" stroke="black" cx="1480" cy="-126.89" rx="27" ry="18"/>
<text text-anchor="middle" x="1480" y="-123.19" font-family="Times,serif" font-size="14.00">lim</text>
</a>
</g>
</g>
<!-- Limit_limit_adjoint&#45;&gt;Limit_lim -->
<g id="edge2" class="edge">
<title>Limit_limit_adjoint&#45;&gt;Limit_lim</title>
<path fill="none" stroke="black" d="M1422.43,-199.67C1434.35,-184.81 1449.53,-165.88 1461.31,-151.2"/>
<polygon fill="black" stroke="black" points="1464.27,-153.09 1467.8,-143.1 1458.81,-148.71 1464.27,-153.09"/>
</g>
<!-- Limit_Build_Limit -->
<g id="node20" class="node">
<title>Limit_Build_Limit</title>
<g id="a_node20"><a xlink:href="Limit.html#Build_Limit" xlink:title="Build_Limit">
<ellipse fill="#7faaff" stroke="black" cx="1083" cy="-37.89" rx="63.89" ry="18"/>
<text text-anchor="middle" x="1083" y="-34.19" font-family="Times,serif" font-size="14.00">Build_Limit</text>
</a>
</g>
</g>
<!-- Limit_limit_adjoint&#45;&gt;Limit_Build_Limit -->
<g id="edge3" class="edge">
<title>Limit_limit_adjoint&#45;&gt;Limit_Build_Limit</title>
<path fill="none" stroke="black" d="M1330.99,-215.67C1224.65,-202.79 1035.98,-176.87 1016,-152.89 1001.21,-135.14 1006.74,-122.07 1016,-100.89 1023.04,-84.78 1036.57,-70.98 1049.64,-60.53"/>
<polygon fill="black" stroke="black" points="1051.79,-63.28 1057.65,-54.45 1047.56,-57.7 1051.79,-63.28"/>
</g>
<!-- Limit_limit_unicity -->
<g id="node2" class="node">
<title>Limit_limit_unicity</title>
<g id="a_node2"><a xlink:href="Limit.html#limit_unicity" xlink:title="limit_unicity">
<ellipse fill="#f070d1" stroke="black" cx="1617" cy="-855.89" rx="68.46" ry="18"/>
<ellipse fill="none" stroke="black" cx="1617" cy="-855.89" rx="72.48" ry="22"/>
<ellipse fill="none" stroke="black" cx="1617" cy="-855.89" rx="76.49" ry="26"/>
<text text-anchor="middle" x="1617" y="-852.19" font-family="Times,serif" font-size="14.00">limit_unicity</text>
</a>
</g>
</g>
<!-- Limit_equiv_functor_limit -->
<g id="node3" class="node">
<title>Limit_equiv_functor_limit</title>
<g id="a_node3"><a xlink:href="Limit.html#equiv_functor_limit" xlink:title="equiv_functor_limit">
<ellipse fill="#f070d1" stroke="black" cx="1617" cy="-766.89" rx="100.18" ry="18"/>
<text text-anchor="middle" x="1617" y="-763.19" font-family="Times,serif" font-size="14.00">equiv_functor_limit</text>
</a>
</g>
</g>
<!-- Limit_limit_unicity&#45;&gt;Limit_equiv_functor_limit -->
<g id="edge4" class="edge">
<title>Limit_limit_unicity&#45;&gt;Limit_equiv_functor_limit</title>
<path fill="none" stroke="black" d="M1617,-829.73C1617,-818.85 1617,-806.1 1617,-795.01"/>
<polygon fill="black" stroke="black" points="1620.5,-795.01 1617,-785.01 1613.5,-795.01 1620.5,-795.01"/>
</g>
<!-- Limit_isequiv_functor_limit -->
<g id="node4" class="node">
<title>Limit_isequiv_functor_limit</title>
<g id="a_node4"><a xlink:href="Limit.html#isequiv_functor_limit" xlink:title="isequiv_functor_limit">
<ellipse fill="#f070d1" stroke="black" cx="1617" cy="-686.89" rx="107.78" ry="18"/>
<text text-anchor="middle" x="1617" y="-683.19" font-family="Times,serif" font-size="14.00">isequiv_functor_limit</text>
</a>
</g>
</g>
<!-- Limit_equiv_functor_limit&#45;&gt;Limit_isequiv_functor_limit -->
<g id="edge5" class="edge">
<title>Limit_equiv_functor_limit&#45;&gt;Limit_isequiv_functor_limit</title>
<path fill="none" stroke="black" d="M1617,-748.58C1617,-738.78 1617,-726.31 1617,-715.23"/>
<polygon fill="black" stroke="black" points="1620.5,-715.15 1617,-705.15 1613.5,-715.15 1620.5,-715.15"/>
</g>
<!-- Limit_functor_limit_eisretr -->
<g id="node5" class="node">
<title>Limit_functor_limit_eisretr</title>
<g id="a_node5"><a xlink:href="Limit.html#functor_limit_eisretr" xlink:title="functor_limit_eisretr">
<ellipse fill="#f070d1" stroke="black" cx="1734" cy="-597.89" rx="105.88" ry="18"/>
<text text-anchor="middle" x="1734" y="-594.19" font-family="Times,serif" font-size="14.00">functor_limit_eisretr</text>
</a>
</g>
</g>
<!-- Limit_isequiv_functor_limit&#45;&gt;Limit_functor_limit_eisretr -->
<g id="edge6" class="edge">
<title>Limit_isequiv_functor_limit&#45;&gt;Limit_functor_limit_eisretr</title>
<path fill="none" stroke="black" d="M1639.56,-669.12C1657.69,-655.64 1683.33,-636.57 1703.33,-621.7"/>
<polygon fill="black" stroke="black" points="1705.57,-624.39 1711.51,-615.61 1701.4,-618.77 1705.57,-624.39"/>
</g>
<!-- Limit_functor_limit_eissect -->
<g id="node6" class="node">
<title>Limit_functor_limit_eissect</title>
<g id="a_node6"><a xlink:href="Limit.html#functor_limit_eissect" xlink:title="functor_limit_eissect">
<ellipse fill="#f070d1" stroke="black" cx="1503" cy="-597.89" rx="106.68" ry="18"/>
<text text-anchor="middle" x="1503" y="-594.19" font-family="Times,serif" font-size="14.00">functor_limit_eissect</text>
</a>
</g>
</g>
<!-- Limit_isequiv_functor_limit&#45;&gt;Limit_functor_limit_eissect -->
<g id="edge7" class="edge">
<title>Limit_isequiv_functor_limit&#45;&gt;Limit_functor_limit_eissect</title>
<path fill="none" stroke="black" d="M1595.02,-669.12C1577.36,-655.64 1552.37,-636.57 1532.89,-621.7"/>
<polygon fill="black" stroke="black" points="1534.99,-618.9 1524.91,-615.61 1530.74,-624.46 1534.99,-618.9"/>
</g>
<!-- Limit_functor_limit -->
<g id="node8" class="node">
<title>Limit_functor_limit</title>
<g id="a_node8"><a xlink:href="Limit.html#functor_limit" xlink:title="functor_limit">
<ellipse fill="#f070d1" stroke="black" cx="1616" cy="-499.89" rx="70.39" ry="18"/>
<text text-anchor="middle" x="1616" y="-496.19" font-family="Times,serif" font-size="14.00">functor_limit</text>
</a>
</g>
</g>
<!-- Limit_functor_limit_eisretr&#45;&gt;Limit_functor_limit -->
<g id="edge8" class="edge">
<title>Limit_functor_limit_eisretr&#45;&gt;Limit_functor_limit</title>
<path fill="none" stroke="black" d="M1713.45,-580.17C1694.24,-564.54 1665.41,-541.09 1644.09,-523.74"/>
<polygon fill="black" stroke="black" points="1646.28,-521.02 1636.32,-517.42 1641.87,-526.45 1646.28,-521.02"/>
</g>
<!-- Limit_functor_limit_eissect&#45;&gt;Limit_functor_limit -->
<g id="edge9" class="edge">
<title>Limit_functor_limit_eissect&#45;&gt;Limit_functor_limit</title>
<path fill="none" stroke="black" d="M1522.68,-580.17C1540.99,-564.61 1568.44,-541.3 1588.83,-523.97"/>
<polygon fill="black" stroke="black" points="1591.19,-526.56 1596.54,-517.42 1586.66,-521.23 1591.19,-526.56"/>
</g>
<!-- Limit_functor_limit_commute -->
<g id="node7" class="node">
<title>Limit_functor_limit_commute</title>
<g id="a_node7"><a xlink:href="Limit.html#functor_limit_commute" xlink:title="functor_limit_commute">
<ellipse fill="#f070d1" stroke="black" cx="1253" cy="-597.89" rx="117.77" ry="18"/>
<ellipse fill="none" stroke="black" cx="1253" cy="-597.89" rx="121.77" ry="22"/>
<ellipse fill="none" stroke="black" cx="1253" cy="-597.89" rx="125.78" ry="26"/>
<text text-anchor="middle" x="1253" y="-594.19" font-family="Times,serif" font-size="14.00">functor_limit_commute</text>
</a>
</g>
</g>
<!-- Limit_functor_limit_commute&#45;&gt;Limit_functor_limit -->
<g id="edge10" class="edge">
<title>Limit_functor_limit_commute&#45;&gt;Limit_functor_limit</title>
<path fill="none" stroke="black" d="M1328.21,-577C1396.87,-558.84 1496.85,-532.4 1559.07,-515.95"/>
<polygon fill="black" stroke="black" points="1560.33,-519.23 1569.1,-513.29 1558.54,-512.47 1560.33,-519.23"/>
</g>
<!-- Limit_cone_precompose_inv -->
<g id="node22" class="node">
<title>Limit_cone_precompose_inv</title>
<g id="a_node22"><a xlink:href="Limit.html#cone_precompose_inv" xlink:title="cone_precompose_inv">
<ellipse fill="#f070d1" stroke="black" cx="1729" cy="-401.89" rx="111.28" ry="18"/>
<text text-anchor="middle" x="1729" y="-398.19" font-family="Times,serif" font-size="14.00">cone_precompose_inv</text>
</a>
</g>
</g>
<!-- Limit_functor_limit&#45;&gt;Limit_cone_precompose_inv -->
<g id="edge11" class="edge">
<title>Limit_functor_limit&#45;&gt;Limit_cone_precompose_inv</title>
<path fill="none" stroke="black" d="M1635.43,-482.39C1653.59,-466.96 1680.9,-443.76 1701.33,-426.4"/>
<polygon fill="black" stroke="black" points="1703.71,-428.97 1709.07,-419.82 1699.18,-423.63 1703.71,-428.97"/>
</g>
<!-- Limit_islimit_postcompose_equiv -->
<g id="node9" class="node">
<title>Limit_islimit_postcompose_equiv</title>
<g id="a_node9"><a xlink:href="Limit.html#islimit_postcompose_equiv" xlink:title="islimit_postcompose_equiv">
<ellipse fill="#f070d1" stroke="black" cx="453" cy="-401.89" rx="134.57" ry="18"/>
<ellipse fill="none" stroke="black" cx="453" cy="-401.89" rx="138.58" ry="22"/>
<ellipse fill="none" stroke="black" cx="453" cy="-401.89" rx="142.58" ry="26"/>
<text text-anchor="middle" x="453" y="-398.19" font-family="Times,serif" font-size="14.00">islimit_postcompose_equiv</text>
</a>
</g>
</g>
<!-- Limit_Build_IsLimit -->
<g id="node29" class="node">
<title>Limit_Build_IsLimit</title>
<g id="a_node29"><a xlink:href="Limit.html#Build_IsLimit" xlink:title="Build_IsLimit">
<ellipse fill="#7faaff" stroke="black" cx="761" cy="-313.89" rx="72.29" ry="18"/>
<text text-anchor="middle" x="761" y="-310.19" font-family="Times,serif" font-size="14.00">Build_IsLimit</text>
</a>
</g>
</g>
<!-- Limit_islimit_postcompose_equiv&#45;&gt;Limit_Build_IsLimit -->
<g id="edge12" class="edge">
<title>Limit_islimit_postcompose_equiv&#45;&gt;Limit_Build_IsLimit</title>
<path fill="none" stroke="black" d="M528.74,-379.74C583.23,-364.53 655.52,-344.34 704.89,-330.56"/>
<polygon fill="black" stroke="black" points="706.07,-333.86 714.76,-327.8 704.18,-327.12 706.07,-333.86"/>
</g>
<!-- Limit_IsLimit -->
<g id="node30" class="node">
<title>Limit_IsLimit</title>
<g id="a_node30"><a xlink:href="Limit.html#IsLimit" xlink:title="IsLimit">
<ellipse fill="#e2cdfa" stroke="black" cx="999" cy="-313.89" rx="43.59" ry="18"/>
<text text-anchor="middle" x="999" y="-310.19" font-family="Times,serif" font-size="14.00">IsLimit</text>
</a>
</g>
</g>
<!-- Limit_islimit_postcompose_equiv&#45;&gt;Limit_IsLimit -->
<g id="edge13" class="edge">
<title>Limit_islimit_postcompose_equiv&#45;&gt;Limit_IsLimit</title>
<path fill="none" stroke="black" d="M556,-383.82C572.39,-381.14 589.15,-378.42 605,-375.89 728.38,-356.19 873.66,-333.95 948.61,-322.54"/>
<polygon fill="black" stroke="black" points="949.35,-325.97 958.71,-321 948.3,-319.04 949.35,-325.97"/>
</g>
<!-- Limit_islimit_precompose_equiv -->
<g id="node10" class="node">
<title>Limit_islimit_precompose_equiv</title>
<g id="a_node10"><a xlink:href="Limit.html#islimit_precompose_equiv" xlink:title="islimit_precompose_equiv">
<ellipse fill="#f070d1" stroke="black" cx="154" cy="-401.89" rx="129.98" ry="18"/>
<ellipse fill="none" stroke="black" cx="154" cy="-401.89" rx="133.98" ry="22"/>
<ellipse fill="none" stroke="black" cx="154" cy="-401.89" rx="137.98" ry="26"/>
<text text-anchor="middle" x="154" y="-398.19" font-family="Times,serif" font-size="14.00">islimit_precompose_equiv</text>
</a>
</g>
</g>
<!-- Limit_islimit_precompose_equiv&#45;&gt;Limit_Build_IsLimit -->
<g id="edge14" class="edge">
<title>Limit_islimit_precompose_equiv&#45;&gt;Limit_Build_IsLimit</title>
<path fill="none" stroke="black" d="M252.36,-383.65C268.6,-380.95 285.26,-378.27 301,-375.89 437.14,-355.3 596.53,-335.01 687.45,-323.8"/>
<polygon fill="black" stroke="black" points="688.15,-327.24 697.65,-322.55 687.3,-320.29 688.15,-327.24"/>
</g>
<!-- Limit_islimit_precompose_equiv&#45;&gt;Limit_IsLimit -->
<g id="edge15" class="edge">
<title>Limit_islimit_precompose_equiv&#45;&gt;Limit_IsLimit</title>
<path fill="none" stroke="black" d="M250.69,-383.21C267.43,-380.51 284.69,-377.94 301,-375.89 540.36,-345.86 601.84,-354.66 842,-331.89 877.31,-328.54 917.03,-324.24 947.68,-320.8"/>
<polygon fill="black" stroke="black" points="948.17,-324.27 957.71,-319.67 947.38,-317.31 948.17,-324.27"/>
</g>
<!-- Limit_islimit_limit -->
<g id="node11" class="node">
<title>Limit_islimit_limit</title>
<g id="a_node11"><a xlink:href="Limit.html#islimit_limit" xlink:title="islimit_limit">
<ellipse fill="#f070d1" stroke="black" cx="1331" cy="-401.89" rx="65.77" ry="18"/>
<ellipse fill="none" stroke="black" cx="1331" cy="-401.89" rx="69.78" ry="22"/>
<ellipse fill="none" stroke="black" cx="1331" cy="-401.89" rx="73.79" ry="26"/>
<text text-anchor="middle" x="1331" y="-398.19" font-family="Times,serif" font-size="14.00">islimit_limit</text>
</a>
</g>
</g>
<!-- Limit_unicone_limit -->
<g id="node12" class="node">
<title>Limit_unicone_limit</title>
<g id="a_node12"><a xlink:href="Limit.html#unicone_limit" xlink:title="unicone_limit">
<ellipse fill="#f070d1" stroke="black" cx="1331" cy="-313.89" rx="72.59" ry="18"/>
<text text-anchor="middle" x="1331" y="-310.19" font-family="Times,serif" font-size="14.00">unicone_limit</text>
</a>
</g>
</g>
<!-- Limit_islimit_limit&#45;&gt;Limit_unicone_limit -->
<g id="edge16" class="edge">
<title>Limit_islimit_limit&#45;&gt;Limit_unicone_limit</title>
<path fill="none" stroke="black" d="M1331,-375.55C1331,-365 1331,-352.73 1331,-341.99"/>
<polygon fill="black" stroke="black" points="1334.5,-341.89 1331,-331.89 1327.5,-341.89 1334.5,-341.89"/>
</g>
<!-- Limit_islimit_limit&#45;&gt;Limit_Build_IsLimit -->
<g id="edge17" class="edge">
<title>Limit_islimit_limit&#45;&gt;Limit_Build_IsLimit</title>
<path fill="none" stroke="black" d="M1278.42,-383.41C1268.71,-380.59 1258.61,-377.94 1249,-375.89 1172.1,-359.49 953.23,-335.11 836.5,-322.73"/>
<polygon fill="black" stroke="black" points="836.53,-319.21 826.21,-321.64 835.79,-326.17 836.53,-319.21"/>
</g>
<!-- Limit_islimit_limit&#45;&gt;Limit_IsLimit -->
<g id="edge18" class="edge">
<title>Limit_islimit_limit&#45;&gt;Limit_IsLimit</title>
<path fill="none" stroke="black" d="M1277.31,-384.05C1267.9,-381.23 1258.19,-378.41 1249,-375.89 1178.86,-356.66 1096.84,-337.22 1046.4,-325.61"/>
<polygon fill="black" stroke="black" points="1046.97,-322.15 1036.44,-323.33 1045.41,-328.98 1046.97,-322.15"/>
</g>
<!-- Limit_cone_limit -->
<g id="node13" class="node">
<title>Limit_cone_limit</title>
<g id="a_node13"><a xlink:href="Limit.html#cone_limit" xlink:title="cone_limit">
<ellipse fill="#f070d1" stroke="black" cx="1556" cy="-224.89" rx="57.69" ry="18"/>
<text text-anchor="middle" x="1556" y="-221.19" font-family="Times,serif" font-size="14.00">cone_limit</text>
</a>
</g>
</g>
<!-- Limit_unicone_limit&#45;&gt;Limit_cone_limit -->
<g id="edge19" class="edge">
<title>Limit_unicone_limit&#45;&gt;Limit_cone_limit</title>
<path fill="none" stroke="black" d="M1368.41,-298.43C1407.82,-283.19 1469.87,-259.19 1511.71,-243.02"/>
<polygon fill="black" stroke="black" points="1513.03,-246.26 1521.1,-239.39 1510.51,-239.73 1513.03,-246.26"/>
</g>
<!-- Limit_unicone_limit&#45;&gt;Limit_Build_Limit -->
<g id="edge20" class="edge">
<title>Limit_unicone_limit&#45;&gt;Limit_Build_Limit</title>
<path fill="none" stroke="black" d="M1261.07,-308.82C1177.48,-302.39 1044.73,-286.71 1012,-250.89 966.93,-201.56 972.41,-160.8 1002,-100.89 1010.73,-83.21 1027.2,-69.17 1043.02,-58.96"/>
<polygon fill="black" stroke="black" points="1044.96,-61.88 1051.68,-53.69 1041.32,-55.9 1044.96,-61.88"/>
</g>
<!-- Limit_cone_limit&#45;&gt;Limit_limp -->
<g id="edge21" class="edge">
<title>Limit_cone_limit&#45;&gt;Limit_limp</title>
<path fill="none" stroke="black" d="M1556,-206.73C1556,-192.39 1556,-171.7 1556,-155.11"/>
<polygon fill="black" stroke="black" points="1559.5,-154.91 1556,-144.91 1552.5,-154.91 1559.5,-154.91"/>
</g>
<!-- Limit_Limit -->
<g id="node21" class="node">
<title>Limit_Limit</title>
<g id="a_node21"><a xlink:href="Limit.html#Limit" xlink:title="Limit">
<ellipse fill="#e2cdfa" stroke="black" cx="1368" cy="-37.89" rx="35.19" ry="18"/>
<text text-anchor="middle" x="1368" y="-34.19" font-family="Times,serif" font-size="14.00">Limit</text>
</a>
</g>
</g>
<!-- Limit_limp&#45;&gt;Limit_Limit -->
<g id="edge22" class="edge">
<title>Limit_limp&#45;&gt;Limit_Limit</title>
<path fill="none" stroke="black" d="M1536.43,-112.78C1530.05,-108.74 1522.84,-104.43 1516,-100.89 1479.39,-81.94 1435.65,-64.18 1405.26,-52.57"/>
<polygon fill="black" stroke="black" points="1406.48,-49.29 1395.88,-49.02 1404,-55.83 1406.48,-49.29"/>
</g>
<!-- Limit_lim&#45;&gt;Limit_Limit -->
<g id="edge23" class="edge">
<title>Limit_lim&#45;&gt;Limit_Limit</title>
<path fill="none" stroke="black" d="M1462.99,-112.68C1444.84,-98.58 1415.84,-76.05 1394.65,-59.59"/>
<polygon fill="black" stroke="black" points="1396.71,-56.76 1386.67,-53.39 1392.42,-62.29 1396.71,-56.76"/>
</g>
<!-- Limit_Limit_sind -->
<g id="node16" class="node">
<title>Limit_Limit_sind</title>
<g id="a_node16"><a xlink:href="Limit.html#Limit_sind" xlink:title="Limit_sind">
<ellipse fill="#f070d1" stroke="black" cx="1368" cy="-126.89" rx="59.27" ry="18"/>
<ellipse fill="none" stroke="black" cx="1368" cy="-126.89" rx="63.28" ry="22"/>
<ellipse fill="none" stroke="black" cx="1368" cy="-126.89" rx="67.29" ry="26"/>
<text text-anchor="middle" x="1368" y="-123.19" font-family="Times,serif" font-size="14.00">Limit_sind</text>
</a>
</g>
</g>
<!-- Limit_Limit_sind&#45;&gt;Limit_Build_Limit -->
<g id="edge24" class="edge">
<title>Limit_Limit_sind&#45;&gt;Limit_Build_Limit</title>
<path fill="none" stroke="black" d="M1318.19,-109.27C1309.48,-106.43 1300.48,-103.54 1292,-100.89 1239,-84.32 1178.09,-66.37 1135.75,-54.07"/>
<polygon fill="black" stroke="black" points="1136.52,-50.65 1125.94,-51.23 1134.57,-57.38 1136.52,-50.65"/>
</g>
<!-- Limit_Limit_sind&#45;&gt;Limit_Limit -->
<g id="edge25" class="edge">
<title>Limit_Limit_sind&#45;&gt;Limit_Limit</title>
<path fill="none" stroke="black" d="M1368,-100.73C1368,-89.85 1368,-77.1 1368,-66.01"/>
<polygon fill="black" stroke="black" points="1371.5,-66.01 1368,-56.01 1364.5,-66.01 1371.5,-66.01"/>
</g>
<!-- Limit_Limit_rec -->
<g id="node17" class="node">
<title>Limit_Limit_rec</title>
<g id="a_node17"><a xlink:href="Limit.html#Limit_rec" xlink:title="Limit_rec">
<ellipse fill="#f070d1" stroke="black" cx="1083" cy="-224.89" rx="53.9" ry="18"/>
<ellipse fill="none" stroke="black" cx="1083" cy="-224.89" rx="57.89" ry="22"/>
<ellipse fill="none" stroke="black" cx="1083" cy="-224.89" rx="61.89" ry="26"/>
<text text-anchor="middle" x="1083" y="-221.19" font-family="Times,serif" font-size="14.00">Limit_rec</text>
</a>
</g>
</g>
<!-- Limit_Limit_rect -->
<g id="node19" class="node">
<title>Limit_Limit_rect</title>
<g id="a_node19"><a xlink:href="Limit.html#Limit_rect" xlink:title="Limit_rect">
<ellipse fill="#f070d1" stroke="black" cx="1083" cy="-126.89" rx="57.69" ry="18"/>
<text text-anchor="middle" x="1083" y="-123.19" font-family="Times,serif" font-size="14.00">Limit_rect</text>
</a>
</g>
</g>
<!-- Limit_Limit_rec&#45;&gt;Limit_Limit_rect -->
<g id="edge26" class="edge">
<title>Limit_Limit_rec&#45;&gt;Limit_Limit_rect</title>
<path fill="none" stroke="black" d="M1083,-198.67C1083,-185.34 1083,-168.97 1083,-155.33"/>
<polygon fill="black" stroke="black" points="1086.5,-155.08 1083,-145.08 1079.5,-155.08 1086.5,-155.08"/>
</g>
<!-- Limit_Limit_ind -->
<g id="node18" class="node">
<title>Limit_Limit_ind</title>
<g id="a_node18"><a xlink:href="Limit.html#Limit_ind" xlink:title="Limit_ind">
<ellipse fill="#7fffd4" stroke="black" cx="1221" cy="-126.89" rx="53.9" ry="18"/>
<ellipse fill="none" stroke="black" cx="1221" cy="-126.89" rx="57.89" ry="22"/>
<ellipse fill="none" stroke="black" cx="1221" cy="-126.89" rx="61.89" ry="26"/>
<text text-anchor="middle" x="1221" y="-123.19" font-family="Times,serif" font-size="14.00">Limit_ind</text>
</a>
</g>
</g>
<!-- Limit_Limit_ind&#45;&gt;Limit_Build_Limit -->
<g id="edge27" class="edge">
<title>Limit_Limit_ind&#45;&gt;Limit_Build_Limit</title>
<path fill="none" stroke="black" d="M1187.59,-104.83C1166,-91.22 1138,-73.57 1116.41,-59.95"/>
<polygon fill="black" stroke="black" points="1118.21,-56.95 1107.88,-54.58 1114.47,-62.87 1118.21,-56.95"/>
</g>
<!-- Limit_Limit_ind&#45;&gt;Limit_Limit -->
<g id="edge28" class="edge">
<title>Limit_Limit_ind&#45;&gt;Limit_Limit</title>
<path fill="none" stroke="black" d="M1255.84,-105.27C1280.53,-90.66 1313.36,-71.23 1337.12,-57.17"/>
<polygon fill="black" stroke="black" points="1338.92,-60.17 1345.74,-52.06 1335.36,-54.14 1338.92,-60.17"/>
</g>
<!-- Limit_Limit_rect&#45;&gt;Limit_Build_Limit -->
<g id="edge29" class="edge">
<title>Limit_Limit_rect&#45;&gt;Limit_Build_Limit</title>
<path fill="none" stroke="black" d="M1083,-108.7C1083,-96.55 1083,-80 1083,-66.07"/>
<polygon fill="black" stroke="black" points="1086.5,-66.04 1083,-56.04 1079.5,-66.04 1086.5,-66.04"/>
</g>
<!-- Limit_Limit_rect&#45;&gt;Limit_Limit -->
<g id="edge30" class="edge">
<title>Limit_Limit_rect&#45;&gt;Limit_Limit</title>
<path fill="none" stroke="black" d="M1117.59,-112.38C1127.95,-108.5 1139.38,-104.38 1150,-100.89 1211.39,-80.74 1283.72,-60.93 1327.7,-49.32"/>
<polygon fill="black" stroke="black" points="1328.66,-52.68 1337.44,-46.76 1326.88,-45.91 1328.66,-52.68"/>
</g>
<!-- Limit_cone_precompose_inv&#45;&gt;Limit_IsLimit -->
<g id="edge31" class="edge">
<title>Limit_cone_precompose_inv&#45;&gt;Limit_IsLimit</title>
<path fill="none" stroke="black" d="M1667.87,-386.85C1649.06,-382.89 1628.25,-378.85 1609,-375.89 1404.12,-344.4 1157.91,-325.52 1051.84,-318.29"/>
<polygon fill="black" stroke="black" points="1051.93,-314.78 1041.72,-317.6 1051.46,-321.77 1051.93,-314.78"/>
</g>
<!-- Limit_islimit_unicone -->
<g id="node23" class="node">
<title>Limit_islimit_unicone</title>
<g id="a_node23"><a xlink:href="Limit.html#islimit_unicone" xlink:title="islimit_unicone">
<ellipse fill="#f070d1" stroke="black" cx="1511" cy="-401.89" rx="80.68" ry="18"/>
<ellipse fill="none" stroke="black" cx="1511" cy="-401.89" rx="84.68" ry="22"/>
<ellipse fill="none" stroke="black" cx="1511" cy="-401.89" rx="88.69" ry="26"/>
<text text-anchor="middle" x="1511" y="-398.19" font-family="Times,serif" font-size="14.00">islimit_unicone</text>
</a>
</g>
</g>
<!-- Limit_islimit_unicone&#45;&gt;Limit_IsLimit -->
<g id="edge32" class="edge">
<title>Limit_islimit_unicone&#45;&gt;Limit_IsLimit</title>
<path fill="none" stroke="black" d="M1447.83,-383.58C1436.61,-380.8 1425,-378.11 1414,-375.89 1284.2,-349.7 1129.42,-329.94 1050.63,-320.69"/>
<polygon fill="black" stroke="black" points="1050.82,-317.19 1040.48,-319.51 1050.01,-324.14 1050.82,-317.19"/>
</g>
<!-- Limit_islimit_cone -->
<g id="node24" class="node">
<title>Limit_islimit_cone</title>
<g id="a_node24"><a xlink:href="Limit.html#islimit_cone" xlink:title="islimit_cone">
<ellipse fill="#f070d1" stroke="black" cx="1166" cy="-401.89" rx="65.77" ry="18"/>
<ellipse fill="none" stroke="black" cx="1166" cy="-401.89" rx="69.78" ry="22"/>
<ellipse fill="none" stroke="black" cx="1166" cy="-401.89" rx="73.79" ry="26"/>
<text text-anchor="middle" x="1166" y="-398.19" font-family="Times,serif" font-size="14.00">islimit_cone</text>
</a>
</g>
</g>
<!-- Limit_islimit_cone&#45;&gt;Limit_IsLimit -->
<g id="edge33" class="edge">
<title>Limit_islimit_cone&#45;&gt;Limit_IsLimit</title>
<path fill="none" stroke="black" d="M1125.57,-380.07C1097.68,-365.71 1060.96,-346.8 1034.26,-333.05"/>
<polygon fill="black" stroke="black" points="1035.76,-329.88 1025.26,-328.42 1032.55,-336.11 1035.76,-329.88"/>
</g>
<!-- Limit_IsLimit_sind -->
<g id="node25" class="node">
<title>Limit_IsLimit_sind</title>
<g id="a_node25"><a xlink:href="Limit.html#IsLimit_sind" xlink:title="IsLimit_sind">
<ellipse fill="#f070d1" stroke="black" cx="999" cy="-401.89" rx="67.68" ry="18"/>
<ellipse fill="none" stroke="black" cx="999" cy="-401.89" rx="71.68" ry="22"/>
<ellipse fill="none" stroke="black" cx="999" cy="-401.89" rx="75.69" ry="26"/>
<text text-anchor="middle" x="999" y="-398.19" font-family="Times,serif" font-size="14.00">IsLimit_sind</text>
</a>
</g>
</g>
<!-- Limit_IsLimit_sind&#45;&gt;Limit_Build_IsLimit -->
<g id="edge34" class="edge">
<title>Limit_IsLimit_sind&#45;&gt;Limit_Build_IsLimit</title>
<path fill="none" stroke="black" d="M948.23,-382.55C907.37,-367.78 850.3,-347.16 809.93,-332.57"/>
<polygon fill="black" stroke="black" points="810.9,-329.2 800.3,-329.09 808.52,-335.78 810.9,-329.2"/>
</g>
<!-- Limit_IsLimit_sind&#45;&gt;Limit_IsLimit -->
<g id="edge35" class="edge">
<title>Limit_IsLimit_sind&#45;&gt;Limit_IsLimit</title>
<path fill="none" stroke="black" d="M999,-375.55C999,-365 999,-352.73 999,-341.99"/>
<polygon fill="black" stroke="black" points="1002.5,-341.89 999,-331.89 995.5,-341.89 1002.5,-341.89"/>
</g>
<!-- Limit_IsLimit_rec -->
<g id="node26" class="node">
<title>Limit_IsLimit_rec</title>
<g id="a_node26"><a xlink:href="Limit.html#IsLimit_rec" xlink:title="IsLimit_rec">
<ellipse fill="#f070d1" stroke="black" cx="839" cy="-499.89" rx="62.3" ry="18"/>
<ellipse fill="none" stroke="black" cx="839" cy="-499.89" rx="66.3" ry="22"/>
<ellipse fill="none" stroke="black" cx="839" cy="-499.89" rx="70.29" ry="26"/>
<text text-anchor="middle" x="839" y="-496.19" font-family="Times,serif" font-size="14.00">IsLimit_rec</text>
</a>
</g>
</g>
<!-- Limit_IsLimit_rect -->
<g id="node28" class="node">
<title>Limit_IsLimit_rect</title>
<g id="a_node28"><a xlink:href="Limit.html#IsLimit_rect" xlink:title="IsLimit_rect">
<ellipse fill="#f070d1" stroke="black" cx="839" cy="-401.89" rx="66.09" ry="18"/>
<text text-anchor="middle" x="839" y="-398.19" font-family="Times,serif" font-size="14.00">IsLimit_rect</text>
</a>
</g>
</g>
<!-- Limit_IsLimit_rec&#45;&gt;Limit_IsLimit_rect -->
<g id="edge36" class="edge">
<title>Limit_IsLimit_rec&#45;&gt;Limit_IsLimit_rect</title>
<path fill="none" stroke="black" d="M839,-473.67C839,-460.34 839,-443.97 839,-430.33"/>
<polygon fill="black" stroke="black" points="842.5,-430.08 839,-420.08 835.5,-430.08 842.5,-430.08"/>
</g>
<!-- Limit_IsLimit_ind -->
<g id="node27" class="node">
<title>Limit_IsLimit_ind</title>
<g id="a_node27"><a xlink:href="Limit.html#IsLimit_ind" xlink:title="IsLimit_ind">
<ellipse fill="#7fffd4" stroke="black" cx="684" cy="-401.89" rx="62.3" ry="18"/>
<ellipse fill="none" stroke="black" cx="684" cy="-401.89" rx="66.3" ry="22"/>
<ellipse fill="none" stroke="black" cx="684" cy="-401.89" rx="70.29" ry="26"/>
<text text-anchor="middle" x="684" y="-398.19" font-family="Times,serif" font-size="14.00">IsLimit_ind</text>
</a>
</g>
</g>
<!-- Limit_IsLimit_ind&#45;&gt;Limit_Build_IsLimit -->
<g id="edge37" class="edge">
<title>Limit_IsLimit_ind&#45;&gt;Limit_Build_IsLimit</title>
<path fill="none" stroke="black" d="M705.45,-376.94C715.93,-365.22 728.53,-351.15 739.08,-339.37"/>
<polygon fill="black" stroke="black" points="741.94,-341.42 746,-331.64 736.73,-336.76 741.94,-341.42"/>
</g>
<!-- Limit_IsLimit_ind&#45;&gt;Limit_IsLimit -->
<g id="edge38" class="edge">
<title>Limit_IsLimit_ind&#45;&gt;Limit_IsLimit</title>
<path fill="none" stroke="black" d="M735.96,-384.25C745.27,-381.38 754.91,-378.49 764,-375.89 828.94,-357.33 904.66,-338.1 952.22,-326.32"/>
<polygon fill="black" stroke="black" points="953.35,-329.64 962.21,-323.85 951.67,-322.85 953.35,-329.64"/>
</g>
<!-- Limit_IsLimit_rect&#45;&gt;Limit_Build_IsLimit -->
<g id="edge39" class="edge">
<title>Limit_IsLimit_rect&#45;&gt;Limit_Build_IsLimit</title>
<path fill="none" stroke="black" d="M823.96,-384.31C812.38,-371.54 796.2,-353.7 783.14,-339.31"/>
<polygon fill="black" stroke="black" points="785.57,-336.77 776.26,-331.72 780.38,-341.47 785.57,-336.77"/>
</g>
<!-- Limit_IsLimit_rect&#45;&gt;Limit_IsLimit -->
<g id="edge40" class="edge">
<title>Limit_IsLimit_rect&#45;&gt;Limit_IsLimit</title>
<path fill="none" stroke="black" d="M867.6,-385.52C894.78,-370.91 935.66,-348.93 964.6,-333.38"/>
<polygon fill="black" stroke="black" points="966.39,-336.39 973.54,-328.57 963.08,-330.23 966.39,-336.39"/>
</g>
</g>
</svg>
