<?xml version="1.0" encoding="UTF-8" standalone="no"?>
<!DOCTYPE svg PUBLIC "-//W3C//DTD SVG 1.1//EN"
 "http://www.w3.org/Graphics/SVG/1.1/DTD/svg11.dtd">
<!-- Generated by graphviz version 2.43.0 (0)
 -->
<!-- Title: HoTT_Universes_BAut Pages: 1 -->
<svg width="1476pt" height="742pt"
 viewBox="0.00 0.00 1476.00 742.00" xmlns="http://www.w3.org/2000/svg" xmlns:xlink="http://www.w3.org/1999/xlink">
<g id="graph0" class="graph" transform="scale(1 1) rotate(0) translate(4 738)">
<title>HoTT_Universes_BAut</title>
<polygon fill="white" stroke="transparent" points="-4,4 -4,-738 1472,-738 1472,4 -4,4"/>
<g id="clust1" class="cluster">
<title>cluster_BAut</title>
<polygon fill="#ffffc3" stroke="black" points="8,-11.77 8,-722.23 1460,-722.23 1460,-11.77 8,-11.77"/>
<text text-anchor="middle" x="34" y="-707.03" font-family="Times,serif" font-size="14.00">BAut</text>
</g>
<!-- BAut_equiv_pmap_pbaut_pfibration_connected -->
<g id="node1" class="node">
<title>BAut_equiv_pmap_pbaut_pfibration_connected</title>
<g id="a_node1"><a xlink:href="BAut.html#equiv_pmap_pbaut_pfibration_connected" xlink:title="equiv_pmap_pbaut_pfibration_connected">
<ellipse fill="#f070d1" stroke="black" cx="1245" cy="-638.77" rx="198.77" ry="18"/>
<ellipse fill="none" stroke="black" cx="1245" cy="-638.77" rx="202.77" ry="22"/>
<ellipse fill="none" stroke="black" cx="1245" cy="-638.77" rx="206.76" ry="26"/>
<text text-anchor="middle" x="1245" y="-635.07" font-family="Times,serif" font-size="14.00">equiv_pmap_pbaut_pfibration_connected</text>
</a>
</g>
</g>
<!-- BAut_equiv_pmap_pbaut_type_p -->
<g id="node2" class="node">
<title>BAut_equiv_pmap_pbaut_type_p</title>
<g id="a_node2"><a xlink:href="BAut.html#equiv_pmap_pbaut_type_p" xlink:title="equiv_pmap_pbaut_type_p">
<ellipse fill="#f070d1" stroke="black" cx="1276" cy="-508.77" rx="132.68" ry="18"/>
<text text-anchor="middle" x="1276" y="-505.07" font-family="Times,serif" font-size="14.00">equiv_pmap_pbaut_type_p</text>
</a>
</g>
</g>
<!-- BAut_equiv_pmap_pbaut_pfibration_connected&#45;&gt;BAut_equiv_pmap_pbaut_type_p -->
<g id="edge1" class="edge">
<title>BAut_equiv_pmap_pbaut_pfibration_connected&#45;&gt;BAut_equiv_pmap_pbaut_type_p</title>
<path fill="none" stroke="black" d="M1251.12,-612.48C1256.43,-590.59 1264.07,-559.03 1269.48,-536.68"/>
<polygon fill="black" stroke="black" points="1272.92,-537.37 1271.87,-526.83 1266.11,-535.72 1272.92,-537.37"/>
</g>
<!-- BAut_pequiv_pbaut_typeOp -->
<g id="node4" class="node">
<title>BAut_pequiv_pbaut_typeOp</title>
<g id="a_node4"><a xlink:href="BAut.html#pequiv_pbaut_typeOp" xlink:title="pequiv_pbaut_typeOp">
<ellipse fill="#f070d1" stroke="black" cx="1047" cy="-379.77" rx="111.28" ry="18"/>
<text text-anchor="middle" x="1047" y="-376.07" font-family="Times,serif" font-size="14.00">pequiv_pbaut_typeOp</text>
</a>
</g>
</g>
<!-- BAut_equiv_pmap_pbaut_type_p&#45;&gt;BAut_pequiv_pbaut_typeOp -->
<g id="edge2" class="edge">
<title>BAut_equiv_pmap_pbaut_type_p&#45;&gt;BAut_pequiv_pbaut_typeOp</title>
<path fill="none" stroke="black" d="M1246.06,-491.16C1204.89,-468.33 1130.76,-427.22 1085.5,-402.12"/>
<polygon fill="black" stroke="black" points="1087.02,-398.96 1076.58,-397.17 1083.63,-405.08 1087.02,-398.96"/>
</g>
<!-- BAut_equiv_pmap_pbaut_pfibration -->
<g id="node3" class="node">
<title>BAut_equiv_pmap_pbaut_pfibration</title>
<g id="a_node3"><a xlink:href="BAut.html#equiv_pmap_pbaut_pfibration" xlink:title="equiv_pmap_pbaut_pfibration">
<ellipse fill="#f070d1" stroke="black" cx="970" cy="-508.77" rx="147.57" ry="18"/>
<ellipse fill="none" stroke="black" cx="970" cy="-508.77" rx="151.57" ry="22"/>
<ellipse fill="none" stroke="black" cx="970" cy="-508.77" rx="155.57" ry="26"/>
<text text-anchor="middle" x="970" y="-505.07" font-family="Times,serif" font-size="14.00">equiv_pmap_pbaut_pfibration</text>
</a>
</g>
</g>
<!-- BAut_equiv_pmap_pbaut_pfibration&#45;&gt;BAut_pequiv_pbaut_typeOp -->
<g id="edge3" class="edge">
<title>BAut_equiv_pmap_pbaut_pfibration&#45;&gt;BAut_pequiv_pbaut_typeOp</title>
<path fill="none" stroke="black" d="M985.21,-482.68C998.62,-460.57 1018.06,-428.5 1031.54,-406.27"/>
<polygon fill="black" stroke="black" points="1034.55,-408.06 1036.74,-397.69 1028.56,-404.43 1034.55,-408.06"/>
</g>
<!-- BAut_equiv_baut_typeO -->
<g id="node6" class="node">
<title>BAut_equiv_baut_typeO</title>
<g id="a_node6"><a xlink:href="BAut.html#equiv_baut_typeO" xlink:title="equiv_baut_typeO">
<ellipse fill="#f070d1" stroke="black" cx="1358" cy="-261.77" rx="93.68" ry="18"/>
<text text-anchor="middle" x="1358" y="-258.07" font-family="Times,serif" font-size="14.00">equiv_baut_typeO</text>
</a>
</g>
</g>
<!-- BAut_pequiv_pbaut_typeOp&#45;&gt;BAut_equiv_baut_typeO -->
<g id="edge4" class="edge">
<title>BAut_pequiv_pbaut_typeOp&#45;&gt;BAut_equiv_baut_typeO</title>
<path fill="none" stroke="black" d="M1089.27,-363C1146.02,-341.83 1246.72,-304.27 1307.43,-281.63"/>
<polygon fill="black" stroke="black" points="1308.67,-284.9 1316.82,-278.13 1306.22,-278.34 1308.67,-284.9"/>
</g>
<!-- BAut_pBAut -->
<g id="node22" class="node">
<title>BAut_pBAut</title>
<g id="a_node22"><a xlink:href="BAut.html#pBAut" xlink:title="pBAut">
<ellipse fill="#f070d1" stroke="black" cx="1207" cy="-261.77" rx="39.79" ry="18"/>
<text text-anchor="middle" x="1207" y="-258.07" font-family="Times,serif" font-size="14.00">pBAut</text>
</a>
</g>
</g>
<!-- BAut_pequiv_pbaut_typeOp&#45;&gt;BAut_pBAut -->
<g id="edge5" class="edge">
<title>BAut_pequiv_pbaut_typeOp&#45;&gt;BAut_pBAut</title>
<path fill="none" stroke="black" d="M1069.92,-362.15C1098.52,-341.42 1147.4,-305.97 1178.41,-283.49"/>
<polygon fill="black" stroke="black" points="1180.61,-286.22 1186.65,-277.52 1176.5,-280.56 1180.61,-286.22"/>
</g>
<!-- BAut_equiv_map_baut_fibration -->
<g id="node5" class="node">
<title>BAut_equiv_map_baut_fibration</title>
<g id="a_node5"><a xlink:href="BAut.html#equiv_map_baut_fibration" xlink:title="equiv_map_baut_fibration">
<ellipse fill="#f070d1" stroke="black" cx="1314" cy="-379.77" rx="129.98" ry="18"/>
<ellipse fill="none" stroke="black" cx="1314" cy="-379.77" rx="133.98" ry="22"/>
<ellipse fill="none" stroke="black" cx="1314" cy="-379.77" rx="137.98" ry="26"/>
<text text-anchor="middle" x="1314" y="-376.07" font-family="Times,serif" font-size="14.00">equiv_map_baut_fibration</text>
</a>
</g>
</g>
<!-- BAut_equiv_map_baut_fibration&#45;&gt;BAut_equiv_baut_typeO -->
<g id="edge6" class="edge">
<title>BAut_equiv_map_baut_fibration&#45;&gt;BAut_equiv_baut_typeO</title>
<path fill="none" stroke="black" d="M1323.55,-353.6C1330.74,-334.65 1340.57,-308.72 1347.89,-289.42"/>
<polygon fill="black" stroke="black" points="1351.19,-290.59 1351.46,-280 1344.64,-288.11 1351.19,-290.59"/>
</g>
<!-- BAut_subuniverse_merely_equiv -->
<g id="node7" class="node">
<title>BAut_subuniverse_merely_equiv</title>
<g id="a_node7"><a xlink:href="BAut.html#subuniverse_merely_equiv" xlink:title="subuniverse_merely_equiv">
<ellipse fill="#f070d1" stroke="black" cx="1205" cy="-155.77" rx="133.78" ry="18"/>
<text text-anchor="middle" x="1205" y="-152.07" font-family="Times,serif" font-size="14.00">subuniverse_merely_equiv</text>
</a>
</g>
</g>
<!-- BAut_equiv_baut_typeO&#45;&gt;BAut_subuniverse_merely_equiv -->
<g id="edge7" class="edge">
<title>BAut_equiv_baut_typeO&#45;&gt;BAut_subuniverse_merely_equiv</title>
<path fill="none" stroke="black" d="M1333.76,-244.29C1307.95,-226.74 1266.93,-198.87 1238.15,-179.3"/>
<polygon fill="black" stroke="black" points="1239.87,-176.24 1229.64,-173.51 1235.94,-182.03 1239.87,-176.24"/>
</g>
<!-- BAut_BAut -->
<g id="node25" class="node">
<title>BAut_BAut</title>
<g id="a_node25"><a xlink:href="BAut.html#BAut" xlink:title="BAut">
<ellipse fill="#f070d1" stroke="black" cx="587" cy="-49.77" rx="33.6" ry="18"/>
<text text-anchor="middle" x="587" y="-46.07" font-family="Times,serif" font-size="14.00">BAut</text>
</a>
</g>
</g>
<!-- BAut_equiv_baut_typeO&#45;&gt;BAut_BAut -->
<g id="edge8" class="edge">
<title>BAut_equiv_baut_typeO&#45;&gt;BAut_BAut</title>
<path fill="none" stroke="black" d="M1362.58,-243.77C1368.59,-217.24 1375.42,-166.09 1348,-137.77 1297.77,-85.87 784.7,-59.4 630.56,-52.58"/>
<polygon fill="black" stroke="black" points="630.66,-49.08 620.51,-52.14 630.35,-56.07 630.66,-49.08"/>
</g>
<!-- BAut_id_center2_baut -->
<g id="node8" class="node">
<title>BAut_id_center2_baut</title>
<g id="a_node8"><a xlink:href="BAut.html#id_center2_baut" xlink:title="id_center2_baut">
<ellipse fill="#f070d1" stroke="black" cx="703" cy="-508.77" rx="85.27" ry="18"/>
<ellipse fill="none" stroke="black" cx="703" cy="-508.77" rx="89.28" ry="22"/>
<ellipse fill="none" stroke="black" cx="703" cy="-508.77" rx="93.29" ry="26"/>
<text text-anchor="middle" x="703" y="-505.07" font-family="Times,serif" font-size="14.00">id_center2_baut</text>
</a>
</g>
</g>
<!-- BAut_center2_baut -->
<g id="node9" class="node">
<title>BAut_center2_baut</title>
<g id="a_node9"><a xlink:href="BAut.html#center2_baut" xlink:title="center2_baut">
<ellipse fill="#f070d1" stroke="black" cx="780" cy="-379.77" rx="71.49" ry="18"/>
<text text-anchor="middle" x="780" y="-376.07" font-family="Times,serif" font-size="14.00">center2_baut</text>
</a>
</g>
</g>
<!-- BAut_id_center2_baut&#45;&gt;BAut_center2_baut -->
<g id="edge9" class="edge">
<title>BAut_id_center2_baut&#45;&gt;BAut_center2_baut</title>
<path fill="none" stroke="black" d="M718.03,-482.98C731.42,-460.9 750.92,-428.72 764.46,-406.39"/>
<polygon fill="black" stroke="black" points="767.49,-408.14 769.69,-397.78 761.51,-404.51 767.49,-408.14"/>
</g>
<!-- BAut_trunc_baut -->
<g id="node18" class="node">
<title>BAut_trunc_baut</title>
<g id="a_node18"><a xlink:href="BAut.html#trunc_baut" xlink:title="trunc_baut">
<ellipse fill="#f070d1" stroke="black" cx="629" cy="-379.77" rx="61.19" ry="18"/>
<text text-anchor="middle" x="629" y="-376.07" font-family="Times,serif" font-size="14.00">trunc_baut</text>
</a>
</g>
</g>
<!-- BAut_id_center2_baut&#45;&gt;BAut_trunc_baut -->
<g id="edge10" class="edge">
<title>BAut_id_center2_baut&#45;&gt;BAut_trunc_baut</title>
<path fill="none" stroke="black" d="M688.56,-482.98C675.75,-461 657.11,-429.01 644.11,-406.69"/>
<polygon fill="black" stroke="black" points="646.97,-404.66 638.91,-397.78 640.92,-408.18 646.97,-404.66"/>
</g>
<!-- BAut_center2_baut_subproof0 -->
<g id="node10" class="node">
<title>BAut_center2_baut_subproof0</title>
<g id="a_node10"><a xlink:href="BAut.html#center2_baut_subproof0" xlink:title="center2_baut_subproof0">
<ellipse fill="#f070d1" stroke="black" cx="1027" cy="-261.77" rx="122.68" ry="18"/>
<text text-anchor="middle" x="1027" y="-258.07" font-family="Times,serif" font-size="14.00">center2_baut_subproof0</text>
</a>
</g>
</g>
<!-- BAut_center2_baut&#45;&gt;BAut_center2_baut_subproof0 -->
<g id="edge11" class="edge">
<title>BAut_center2_baut&#45;&gt;BAut_center2_baut_subproof0</title>
<path fill="none" stroke="black" d="M812.29,-363.6C856.03,-343.06 934.24,-306.33 983.22,-283.33"/>
<polygon fill="black" stroke="black" points="984.75,-286.48 992.31,-279.06 981.77,-280.14 984.75,-286.48"/>
</g>
<!-- BAut_center2_baut_subproof -->
<g id="node11" class="node">
<title>BAut_center2_baut_subproof</title>
<g id="a_node11"><a xlink:href="BAut.html#center2_baut_subproof" xlink:title="center2_baut_subproof">
<ellipse fill="#f070d1" stroke="black" cx="769" cy="-261.77" rx="116.98" ry="18"/>
<text text-anchor="middle" x="769" y="-258.07" font-family="Times,serif" font-size="14.00">center2_baut_subproof</text>
</a>
</g>
</g>
<!-- BAut_center2_baut&#45;&gt;BAut_center2_baut_subproof -->
<g id="edge12" class="edge">
<title>BAut_center2_baut&#45;&gt;BAut_center2_baut_subproof</title>
<path fill="none" stroke="black" d="M778.38,-361.65C776.59,-342.8 773.69,-312.24 771.59,-290.07"/>
<polygon fill="black" stroke="black" points="775.06,-289.58 770.63,-279.95 768.09,-290.24 775.06,-289.58"/>
</g>
<!-- BAut_baut_ind_hset -->
<g id="node14" class="node">
<title>BAut_baut_ind_hset</title>
<g id="a_node14"><a xlink:href="BAut.html#baut_ind_hset" xlink:title="baut_ind_hset">
<ellipse fill="#f070d1" stroke="black" cx="374" cy="-261.77" rx="75.29" ry="18"/>
<text text-anchor="middle" x="374" y="-258.07" font-family="Times,serif" font-size="14.00">baut_ind_hset</text>
</a>
</g>
</g>
<!-- BAut_center2_baut&#45;&gt;BAut_baut_ind_hset -->
<g id="edge13" class="edge">
<title>BAut_center2_baut&#45;&gt;BAut_baut_ind_hset</title>
<path fill="none" stroke="black" d="M737.19,-365.32C724.88,-361.52 711.42,-357.42 699,-353.77 605.57,-326.27 496.45,-296.12 431.41,-278.35"/>
<polygon fill="black" stroke="black" points="432.32,-274.97 421.75,-275.71 430.47,-281.72 432.32,-274.97"/>
</g>
<!-- BAut_trunc_el_baut -->
<g id="node17" class="node">
<title>BAut_trunc_el_baut</title>
<g id="a_node17"><a xlink:href="BAut.html#trunc_el_baut" xlink:title="trunc_el_baut">
<ellipse fill="#f070d1" stroke="black" cx="541" cy="-261.77" rx="73.39" ry="18"/>
<text text-anchor="middle" x="541" y="-258.07" font-family="Times,serif" font-size="14.00">trunc_el_baut</text>
</a>
</g>
</g>
<!-- BAut_center2_baut&#45;&gt;BAut_trunc_el_baut -->
<g id="edge14" class="edge">
<title>BAut_center2_baut&#45;&gt;BAut_trunc_el_baut</title>
<path fill="none" stroke="black" d="M748.26,-363.36C705.29,-342.51 628.57,-305.27 581.49,-282.42"/>
<polygon fill="black" stroke="black" points="583.01,-279.27 572.49,-278.05 579.96,-285.57 583.01,-279.27"/>
</g>
<!-- BAut_id_center_baut -->
<g id="node12" class="node">
<title>BAut_id_center_baut</title>
<g id="a_node12"><a xlink:href="BAut.html#id_center_baut" xlink:title="id_center_baut">
<ellipse fill="#f070d1" stroke="black" cx="505" cy="-508.77" rx="79.11" ry="18"/>
<ellipse fill="none" stroke="black" cx="505" cy="-508.77" rx="83.1" ry="22"/>
<ellipse fill="none" stroke="black" cx="505" cy="-508.77" rx="87.09" ry="26"/>
<text text-anchor="middle" x="505" y="-505.07" font-family="Times,serif" font-size="14.00">id_center_baut</text>
</a>
</g>
</g>
<!-- BAut_center_baut -->
<g id="node13" class="node">
<title>BAut_center_baut</title>
<g id="a_node13"><a xlink:href="BAut.html#center_baut" xlink:title="center_baut">
<ellipse fill="#f070d1" stroke="black" cx="484" cy="-379.77" rx="65.79" ry="18"/>
<text text-anchor="middle" x="484" y="-376.07" font-family="Times,serif" font-size="14.00">center_baut</text>
</a>
</g>
</g>
<!-- BAut_id_center_baut&#45;&gt;BAut_center_baut -->
<g id="edge15" class="edge">
<title>BAut_id_center_baut&#45;&gt;BAut_center_baut</title>
<path fill="none" stroke="black" d="M500.85,-482.68C497.3,-461.18 492.19,-430.28 488.53,-408.15"/>
<polygon fill="black" stroke="black" points="491.95,-407.37 486.86,-398.07 485.04,-408.51 491.95,-407.37"/>
</g>
<!-- BAut_id_center_baut&#45;&gt;BAut_trunc_baut -->
<g id="edge16" class="edge">
<title>BAut_id_center_baut&#45;&gt;BAut_trunc_baut</title>
<path fill="none" stroke="black" d="M528.62,-483.58C550.84,-460.82 583.91,-426.95 605.94,-404.38"/>
<polygon fill="black" stroke="black" points="608.48,-406.79 612.96,-397.19 603.47,-401.9 608.48,-406.79"/>
</g>
<!-- BAut_center_baut&#45;&gt;BAut_baut_ind_hset -->
<g id="edge17" class="edge">
<title>BAut_center_baut&#45;&gt;BAut_baut_ind_hset</title>
<path fill="none" stroke="black" d="M468.24,-362.15C449.64,-342.53 418.55,-309.75 397.2,-287.23"/>
<polygon fill="black" stroke="black" points="399.51,-284.58 390.09,-279.73 394.43,-289.4 399.51,-284.58"/>
</g>
<!-- BAut_center_baut&#45;&gt;BAut_trunc_el_baut -->
<g id="edge18" class="edge">
<title>BAut_center_baut&#45;&gt;BAut_trunc_el_baut</title>
<path fill="none" stroke="black" d="M492.41,-361.65C501.8,-342.55 517.1,-311.4 528.03,-289.17"/>
<polygon fill="black" stroke="black" points="531.29,-290.47 532.55,-279.95 525,-287.39 531.29,-290.47"/>
</g>
<!-- BAut_ispointed_baut -->
<g id="node23" class="node">
<title>BAut_ispointed_baut</title>
<g id="a_node23"><a xlink:href="BAut.html#ispointed_baut" xlink:title="ispointed_baut">
<ellipse fill="#f070d1" stroke="black" cx="587" cy="-155.77" rx="79.09" ry="18"/>
<text text-anchor="middle" x="587" y="-152.07" font-family="Times,serif" font-size="14.00">ispointed_baut</text>
</a>
</g>
</g>
<!-- BAut_baut_ind_hset&#45;&gt;BAut_ispointed_baut -->
<g id="edge19" class="edge">
<title>BAut_baut_ind_hset&#45;&gt;BAut_ispointed_baut</title>
<path fill="none" stroke="black" d="M405.89,-245.2C443.25,-226.96 505.23,-196.69 546.1,-176.74"/>
<polygon fill="black" stroke="black" points="547.79,-179.81 555.24,-172.27 544.72,-173.52 547.79,-179.81"/>
</g>
<!-- BAut_BAut_pr1 -->
<g id="node24" class="node">
<title>BAut_BAut_pr1</title>
<g id="a_node24"><a xlink:href="BAut.html#BAut_pr1" xlink:title="BAut_pr1">
<ellipse fill="#f070d1" stroke="black" cx="374" cy="-155.77" rx="53.89" ry="18"/>
<text text-anchor="middle" x="374" y="-152.07" font-family="Times,serif" font-size="14.00">BAut_pr1</text>
</a>
</g>
</g>
<!-- BAut_baut_ind_hset&#45;&gt;BAut_BAut_pr1 -->
<g id="edge20" class="edge">
<title>BAut_baut_ind_hset&#45;&gt;BAut_BAut_pr1</title>
<path fill="none" stroke="black" d="M374,-243.59C374,-227.41 374,-202.9 374,-184.04"/>
<polygon fill="black" stroke="black" points="377.5,-183.97 374,-173.97 370.5,-183.97 377.5,-183.97"/>
</g>
<!-- BAut_ap_baut_prod_r -->
<g id="node15" class="node">
<title>BAut_ap_baut_prod_r</title>
<g id="a_node15"><a xlink:href="BAut.html#ap_baut_prod_r" xlink:title="ap_baut_prod_r">
<ellipse fill="#f070d1" stroke="black" cx="106" cy="-379.77" rx="81.8" ry="18"/>
<ellipse fill="none" stroke="black" cx="106" cy="-379.77" rx="85.79" ry="22"/>
<ellipse fill="none" stroke="black" cx="106" cy="-379.77" rx="89.79" ry="26"/>
<text text-anchor="middle" x="106" y="-376.07" font-family="Times,serif" font-size="14.00">ap_baut_prod_r</text>
</a>
</g>
</g>
<!-- BAut_baut_prod_r -->
<g id="node16" class="node">
<title>BAut_baut_prod_r</title>
<g id="a_node16"><a xlink:href="BAut.html#baut_prod_r" xlink:title="baut_prod_r">
<ellipse fill="#f070d1" stroke="black" cx="82" cy="-261.77" rx="66.09" ry="18"/>
<text text-anchor="middle" x="82" y="-258.07" font-family="Times,serif" font-size="14.00">baut_prod_r</text>
</a>
</g>
</g>
<!-- BAut_ap_baut_prod_r&#45;&gt;BAut_baut_prod_r -->
<g id="edge21" class="edge">
<title>BAut_ap_baut_prod_r&#45;&gt;BAut_baut_prod_r</title>
<path fill="none" stroke="black" d="M100.79,-353.6C96.91,-334.82 91.61,-309.19 87.62,-289.95"/>
<polygon fill="black" stroke="black" points="91.02,-289.08 85.57,-280 84.16,-290.5 91.02,-289.08"/>
</g>
<!-- BAut_path_baut -->
<g id="node21" class="node">
<title>BAut_path_baut</title>
<g id="a_node21"><a xlink:href="BAut.html#path_baut" xlink:title="path_baut">
<ellipse fill="#f070d1" stroke="black" cx="223" cy="-261.77" rx="57.39" ry="18"/>
<text text-anchor="middle" x="223" y="-258.07" font-family="Times,serif" font-size="14.00">path_baut</text>
</a>
</g>
</g>
<!-- BAut_ap_baut_prod_r&#45;&gt;BAut_path_baut -->
<g id="edge22" class="edge">
<title>BAut_ap_baut_prod_r&#45;&gt;BAut_path_baut</title>
<path fill="none" stroke="black" d="M130.53,-354.45C150.73,-334.42 179.2,-306.19 199.2,-286.36"/>
<polygon fill="black" stroke="black" points="201.78,-288.73 206.42,-279.21 196.85,-283.76 201.78,-288.73"/>
</g>
<!-- BAut_baut_prod_r&#45;&gt;BAut_BAut_pr1 -->
<g id="edge23" class="edge">
<title>BAut_baut_prod_r&#45;&gt;BAut_BAut_pr1</title>
<path fill="none" stroke="black" d="M120.47,-247.06C174.2,-227.93 271.52,-193.27 328.69,-172.91"/>
<polygon fill="black" stroke="black" points="329.95,-176.17 338.19,-169.52 327.6,-169.58 329.95,-176.17"/>
</g>
<!-- BAut_trunc_el_baut&#45;&gt;BAut_ispointed_baut -->
<g id="edge24" class="edge">
<title>BAut_trunc_el_baut&#45;&gt;BAut_ispointed_baut</title>
<path fill="none" stroke="black" d="M548.6,-243.59C555.85,-227.18 566.9,-202.21 575.28,-183.25"/>
<polygon fill="black" stroke="black" points="578.55,-184.53 579.39,-173.97 572.15,-181.7 578.55,-184.53"/>
</g>
<!-- BAut_trunc_el_baut&#45;&gt;BAut_BAut_pr1 -->
<g id="edge25" class="edge">
<title>BAut_trunc_el_baut&#45;&gt;BAut_BAut_pr1</title>
<path fill="none" stroke="black" d="M515.27,-244.75C486.17,-226.62 438.7,-197.06 406.92,-177.27"/>
<polygon fill="black" stroke="black" points="408.74,-174.28 398.4,-171.96 405.04,-180.22 408.74,-174.28"/>
</g>
<!-- BAut_trunc_baut&#45;&gt;BAut_path_baut -->
<g id="edge26" class="edge">
<title>BAut_trunc_baut&#45;&gt;BAut_path_baut</title>
<path fill="none" stroke="black" d="M592.85,-365.25C582.02,-361.36 570.08,-357.24 559,-353.77 506.05,-337.17 356.16,-297.56 275.66,-276.49"/>
<polygon fill="black" stroke="black" points="276.28,-273.03 265.72,-273.89 274.51,-279.81 276.28,-273.03"/>
</g>
<!-- BAut_trunc_baut&#45;&gt;BAut_ispointed_baut -->
<g id="edge27" class="edge">
<title>BAut_trunc_baut&#45;&gt;BAut_ispointed_baut</title>
<path fill="none" stroke="black" d="M630.13,-361.47C631.39,-335.54 632.2,-285.22 623,-243.77 618.29,-222.56 608.77,-199.92 600.7,-183.05"/>
<polygon fill="black" stroke="black" points="603.72,-181.27 596.16,-173.85 597.44,-184.36 603.72,-181.27"/>
</g>
<!-- BAut_transport_path_baut -->
<g id="node19" class="node">
<title>BAut_transport_path_baut</title>
<g id="a_node19"><a xlink:href="BAut.html#transport_path_baut" xlink:title="transport_path_baut">
<ellipse fill="#f070d1" stroke="black" cx="286" cy="-508.77" rx="105.1" ry="18"/>
<ellipse fill="none" stroke="black" cx="286" cy="-508.77" rx="109.09" ry="22"/>
<ellipse fill="none" stroke="black" cx="286" cy="-508.77" rx="113.08" ry="26"/>
<text text-anchor="middle" x="286" y="-505.07" font-family="Times,serif" font-size="14.00">transport_path_baut</text>
</a>
</g>
</g>
<!-- BAut_ap_pr1_path_baut -->
<g id="node20" class="node">
<title>BAut_ap_pr1_path_baut</title>
<g id="a_node20"><a xlink:href="BAut.html#ap_pr1_path_baut" xlink:title="ap_pr1_path_baut">
<ellipse fill="#f070d1" stroke="black" cx="307" cy="-379.77" rx="92.88" ry="18"/>
<text text-anchor="middle" x="307" y="-376.07" font-family="Times,serif" font-size="14.00">ap_pr1_path_baut</text>
</a>
</g>
</g>
<!-- BAut_transport_path_baut&#45;&gt;BAut_ap_pr1_path_baut -->
<g id="edge28" class="edge">
<title>BAut_transport_path_baut&#45;&gt;BAut_ap_pr1_path_baut</title>
<path fill="none" stroke="black" d="M290.15,-482.68C293.7,-461.18 298.81,-430.28 302.47,-408.15"/>
<polygon fill="black" stroke="black" points="305.96,-408.51 304.14,-398.07 299.05,-407.37 305.96,-408.51"/>
</g>
<!-- BAut_ap_pr1_path_baut&#45;&gt;BAut_path_baut -->
<g id="edge29" class="edge">
<title>BAut_ap_pr1_path_baut&#45;&gt;BAut_path_baut</title>
<path fill="none" stroke="black" d="M294.61,-361.65C280.5,-342.18 257.34,-310.2 241.2,-287.89"/>
<polygon fill="black" stroke="black" points="243.87,-285.62 235.17,-279.58 238.2,-289.73 243.87,-285.62"/>
</g>
<!-- BAut_path_baut&#45;&gt;BAut_BAut_pr1 -->
<g id="edge30" class="edge">
<title>BAut_path_baut&#45;&gt;BAut_BAut_pr1</title>
<path fill="none" stroke="black" d="M245.61,-245.2C271.4,-227.43 313.76,-198.26 342.72,-178.31"/>
<polygon fill="black" stroke="black" points="344.99,-181 351.24,-172.44 341.02,-175.23 344.99,-181"/>
</g>
<!-- BAut_pBAut&#45;&gt;BAut_ispointed_baut -->
<g id="edge31" class="edge">
<title>BAut_pBAut&#45;&gt;BAut_ispointed_baut</title>
<path fill="none" stroke="black" d="M1177.82,-249.44C1171.67,-247.34 1165.17,-245.32 1159,-243.77 987.51,-200.77 781.45,-175.77 669.42,-164.35"/>
<polygon fill="black" stroke="black" points="669.5,-160.84 659.2,-163.32 668.8,-167.8 669.5,-160.84"/>
</g>
<!-- BAut_ispointed_baut&#45;&gt;BAut_BAut -->
<g id="edge32" class="edge">
<title>BAut_ispointed_baut&#45;&gt;BAut_BAut</title>
<path fill="none" stroke="black" d="M587,-137.59C587,-121.41 587,-96.9 587,-78.04"/>
<polygon fill="black" stroke="black" points="590.5,-77.97 587,-67.97 583.5,-77.97 590.5,-77.97"/>
</g>
<!-- BAut_BAut_pr1&#45;&gt;BAut_BAut -->
<g id="edge33" class="edge">
<title>BAut_BAut_pr1&#45;&gt;BAut_BAut</title>
<path fill="none" stroke="black" d="M403.17,-140.52C442.49,-121.33 512.33,-87.23 553.67,-67.04"/>
<polygon fill="black" stroke="black" points="555.34,-70.12 562.79,-62.59 552.27,-63.83 555.34,-70.12"/>
</g>
</g>
</svg>
