<?xml version="1.0" encoding="UTF-8" standalone="no"?>
<!DOCTYPE svg PUBLIC "-//W3C//DTD SVG 1.1//EN"
 "http://www.w3.org/Graphics/SVG/1.1/DTD/svg11.dtd">
<!-- Generated by graphviz version 2.43.0 (0)
 -->
<!-- Title: HoTT_Colimits_Colimit_Pushout Pages: 1 -->
<svg width="1118pt" height="563pt"
 viewBox="0.00 0.00 1118.00 563.00" xmlns="http://www.w3.org/2000/svg" xmlns:xlink="http://www.w3.org/1999/xlink">
<g id="graph0" class="graph" transform="scale(1 1) rotate(0) translate(4 559)">
<title>HoTT_Colimits_Colimit_Pushout</title>
<polygon fill="white" stroke="transparent" points="-4,4 -4,-559 1114,-559 1114,4 -4,4"/>
<g id="clust1" class="cluster">
<title>cluster_Colimit_Pushout</title>
<polygon fill="#ffffc3" stroke="black" points="13.39,-8 13.39,-547 1096.61,-547 1096.61,-8 13.39,-8"/>
<text text-anchor="middle" x="80.39" y="-531.8" font-family="Times,serif" font-size="14.00">Colimit_Pushout</text>
</g>
<!-- Colimit_Pushout_Pushout_rec_PO_rec -->
<g id="node1" class="node">
<title>Colimit_Pushout_Pushout_rec_PO_rec</title>
<g id="a_node1"><a xlink:href="Colimit_Pushout.html#Pushout_rec_PO_rec" xlink:title="Pushout_rec_PO_rec">
<ellipse fill="#f070d1" stroke="black" cx="567.78" cy="-402" rx="104.77" ry="18"/>
<ellipse fill="none" stroke="black" cx="567.78" cy="-402" rx="108.78" ry="22"/>
<ellipse fill="none" stroke="black" cx="567.78" cy="-402" rx="112.78" ry="26"/>
<text text-anchor="middle" x="567.78" y="-398.3" font-family="Times,serif" font-size="14.00">Pushout_rec_PO_rec</text>
</a>
</g>
</g>
<!-- Colimit_Pushout_equiv_pushout_PO_beta_pglue -->
<g id="node2" class="node">
<title>Colimit_Pushout_equiv_pushout_PO_beta_pglue</title>
<g id="a_node2"><a xlink:href="Colimit_Pushout.html#equiv_pushout_PO_beta_pglue" xlink:title="equiv_pushout_PO_beta_pglue">
<ellipse fill="#f070d1" stroke="black" cx="517.78" cy="-322" rx="151.37" ry="18"/>
<text text-anchor="middle" x="517.78" y="-318.3" font-family="Times,serif" font-size="14.00">equiv_pushout_PO_beta_pglue</text>
</a>
</g>
</g>
<!-- Colimit_Pushout_Pushout_rec_PO_rec&#45;&gt;Colimit_Pushout_equiv_pushout_PO_beta_pglue -->
<g id="edge1" class="edge">
<title>Colimit_Pushout_Pushout_rec_PO_rec&#45;&gt;Colimit_Pushout_equiv_pushout_PO_beta_pglue</title>
<path fill="none" stroke="black" d="M551.68,-375.89C546.17,-367.3 540,-357.67 534.45,-349.01"/>
<polygon fill="black" stroke="black" points="537.28,-346.94 528.94,-340.41 531.39,-350.72 537.28,-346.94"/>
</g>
<!-- Colimit_Pushout_PO_rec_beta_pp -->
<g id="node6" class="node">
<title>Colimit_Pushout_PO_rec_beta_pp</title>
<g id="a_node6"><a xlink:href="Colimit_Pushout.html#PO_rec_beta_pp" xlink:title="PO_rec_beta_pp">
<ellipse fill="#f070d1" stroke="black" cx="942.78" cy="-322" rx="84.49" ry="18"/>
<text text-anchor="middle" x="942.78" y="-318.3" font-family="Times,serif" font-size="14.00">PO_rec_beta_pp</text>
</a>
</g>
</g>
<!-- Colimit_Pushout_Pushout_rec_PO_rec&#45;&gt;Colimit_Pushout_PO_rec_beta_pp -->
<g id="edge2" class="edge">
<title>Colimit_Pushout_Pushout_rec_PO_rec&#45;&gt;Colimit_Pushout_PO_rec_beta_pp</title>
<path fill="none" stroke="black" d="M649.61,-383.98C717.01,-369.96 811.47,-350.31 874.77,-337.15"/>
<polygon fill="black" stroke="black" points="875.58,-340.55 884.65,-335.09 874.15,-333.7 875.58,-340.55"/>
</g>
<!-- Colimit_Pushout_equiv_pushout_PO -->
<g id="node3" class="node">
<title>Colimit_Pushout_equiv_pushout_PO</title>
<g id="a_node3"><a xlink:href="Colimit_Pushout.html#equiv_pushout_PO" xlink:title="equiv_pushout_PO">
<ellipse fill="#f070d1" stroke="black" cx="597.78" cy="-250" rx="96.38" ry="18"/>
<text text-anchor="middle" x="597.78" y="-246.3" font-family="Times,serif" font-size="14.00">equiv_pushout_PO</text>
</a>
</g>
</g>
<!-- Colimit_Pushout_equiv_pushout_PO_beta_pglue&#45;&gt;Colimit_Pushout_equiv_pushout_PO -->
<g id="edge3" class="edge">
<title>Colimit_Pushout_equiv_pushout_PO_beta_pglue&#45;&gt;Colimit_Pushout_equiv_pushout_PO</title>
<path fill="none" stroke="black" d="M537.14,-304.05C547.27,-295.2 559.81,-284.22 570.86,-274.55"/>
<polygon fill="black" stroke="black" points="573.37,-277.01 578.59,-267.79 568.76,-271.74 573.37,-277.01"/>
</g>
<!-- Colimit_Pushout_popp -->
<g id="node12" class="node">
<title>Colimit_Pushout_popp</title>
<g id="a_node12"><a xlink:href="Colimit_Pushout.html#popp" xlink:title="popp">
<ellipse fill="#f070d1" stroke="black" cx="349.78" cy="-250" rx="33.6" ry="18"/>
<text text-anchor="middle" x="349.78" y="-246.3" font-family="Times,serif" font-size="14.00">popp</text>
</a>
</g>
</g>
<!-- Colimit_Pushout_equiv_pushout_PO_beta_pglue&#45;&gt;Colimit_Pushout_popp -->
<g id="edge4" class="edge">
<title>Colimit_Pushout_equiv_pushout_PO_beta_pglue&#45;&gt;Colimit_Pushout_popp</title>
<path fill="none" stroke="black" d="M478.39,-304.59C450.14,-292.82 412.42,-277.1 385.14,-265.73"/>
<polygon fill="black" stroke="black" points="386.17,-262.37 375.6,-261.76 383.48,-268.83 386.17,-262.37"/>
</g>
<!-- Colimit_Pushout_is_PO_pushout -->
<g id="node4" class="node">
<title>Colimit_Pushout_is_PO_pushout</title>
<g id="a_node4"><a xlink:href="Colimit_Pushout.html#is_PO_pushout" xlink:title="is_PO_pushout">
<ellipse fill="#f070d1" stroke="black" cx="831.78" cy="-178" rx="78.79" ry="18"/>
<text text-anchor="middle" x="831.78" y="-174.3" font-family="Times,serif" font-size="14.00">is_PO_pushout</text>
</a>
</g>
</g>
<!-- Colimit_Pushout_equiv_pushout_PO&#45;&gt;Colimit_Pushout_is_PO_pushout -->
<g id="edge5" class="edge">
<title>Colimit_Pushout_equiv_pushout_PO&#45;&gt;Colimit_Pushout_is_PO_pushout</title>
<path fill="none" stroke="black" d="M646.55,-234.41C684.33,-223.11 736.71,-207.44 776.13,-195.65"/>
<polygon fill="black" stroke="black" points="777.28,-198.96 785.86,-192.74 775.27,-192.25 777.28,-198.96"/>
</g>
<!-- Colimit_Pushout_PO -->
<g id="node15" class="node">
<title>Colimit_Pushout_PO</title>
<g id="a_node15"><a xlink:href="Colimit_Pushout.html#PO" xlink:title="PO">
<ellipse fill="#f070d1" stroke="black" cx="349.78" cy="-106" rx="27" ry="18"/>
<text text-anchor="middle" x="349.78" y="-102.3" font-family="Times,serif" font-size="14.00">PO</text>
</a>
</g>
</g>
<!-- Colimit_Pushout_equiv_pushout_PO&#45;&gt;Colimit_Pushout_PO -->
<g id="edge6" class="edge">
<title>Colimit_Pushout_equiv_pushout_PO&#45;&gt;Colimit_Pushout_PO</title>
<path fill="none" stroke="black" d="M569.33,-232.71C521.74,-205.46 426.5,-150.93 378.64,-123.52"/>
<polygon fill="black" stroke="black" points="380.14,-120.35 369.72,-118.42 376.66,-126.43 380.14,-120.35"/>
</g>
<!-- Colimit_Pushout_is_PO -->
<g id="node16" class="node">
<title>Colimit_Pushout_is_PO</title>
<g id="a_node16"><a xlink:href="Colimit_Pushout.html#is_PO" xlink:title="is_PO">
<ellipse fill="#f070d1" stroke="black" cx="994.78" cy="-106" rx="36.29" ry="18"/>
<text text-anchor="middle" x="994.78" y="-102.3" font-family="Times,serif" font-size="14.00">is_PO</text>
</a>
</g>
</g>
<!-- Colimit_Pushout_is_PO_pushout&#45;&gt;Colimit_Pushout_is_PO -->
<g id="edge7" class="edge">
<title>Colimit_Pushout_is_PO_pushout&#45;&gt;Colimit_Pushout_is_PO</title>
<path fill="none" stroke="black" d="M867.15,-161.81C894.37,-150.12 931.83,-134.03 959.12,-122.31"/>
<polygon fill="black" stroke="black" points="960.51,-125.53 968.32,-118.36 957.75,-119.09 960.51,-125.53"/>
</g>
<!-- Colimit_Pushout_popp_ -->
<g id="node17" class="node">
<title>Colimit_Pushout_popp_</title>
<g id="a_node17"><a xlink:href="Colimit_Pushout.html#popp'" xlink:title="popp&#39;">
<ellipse fill="#f070d1" stroke="black" cx="841.78" cy="-106" rx="36.29" ry="18"/>
<text text-anchor="middle" x="841.78" y="-102.3" font-family="Times,serif" font-size="14.00">popp&#39;</text>
</a>
</g>
</g>
<!-- Colimit_Pushout_is_PO_pushout&#45;&gt;Colimit_Pushout_popp_ -->
<g id="edge8" class="edge">
<title>Colimit_Pushout_is_PO_pushout&#45;&gt;Colimit_Pushout_popp_</title>
<path fill="none" stroke="black" d="M834.25,-159.7C835.35,-151.98 836.68,-142.71 837.91,-134.11"/>
<polygon fill="black" stroke="black" points="841.39,-134.5 839.33,-124.1 834.46,-133.51 841.39,-134.5"/>
</g>
<!-- Colimit_Pushout_Build_span_cocone -->
<g id="node20" class="node">
<title>Colimit_Pushout_Build_span_cocone</title>
<g id="a_node20"><a xlink:href="Colimit_Pushout.html#Build_span_cocone" xlink:title="Build_span_cocone">
<ellipse fill="#f070d1" stroke="black" cx="587.78" cy="-106" rx="97.48" ry="18"/>
<text text-anchor="middle" x="587.78" y="-102.3" font-family="Times,serif" font-size="14.00">Build_span_cocone</text>
</a>
</g>
</g>
<!-- Colimit_Pushout_is_PO_pushout&#45;&gt;Colimit_Pushout_Build_span_cocone -->
<g id="edge9" class="edge">
<title>Colimit_Pushout_is_PO_pushout&#45;&gt;Colimit_Pushout_Build_span_cocone</title>
<path fill="none" stroke="black" d="M784.73,-163.5C745.89,-152.36 690.49,-136.47 648.33,-124.37"/>
<polygon fill="black" stroke="black" points="649.04,-120.93 638.46,-121.54 647.11,-127.66 649.04,-120.93"/>
</g>
<!-- Colimit_Pushout_PO_of_equiv -->
<g id="node5" class="node">
<title>Colimit_Pushout_PO_of_equiv</title>
<g id="a_node5"><a xlink:href="Colimit_Pushout.html#PO_of_equiv" xlink:title="PO_of_equiv">
<ellipse fill="#f070d1" stroke="black" cx="666.78" cy="-490" rx="67.68" ry="18"/>
<ellipse fill="none" stroke="black" cx="666.78" cy="-490" rx="71.68" ry="22"/>
<ellipse fill="none" stroke="black" cx="666.78" cy="-490" rx="75.69" ry="26"/>
<text text-anchor="middle" x="666.78" y="-486.3" font-family="Times,serif" font-size="14.00">PO_of_equiv</text>
</a>
</g>
</g>
<!-- Colimit_Pushout_PO_of_equiv&#45;&gt;Colimit_Pushout_PO_rec_beta_pp -->
<g id="edge10" class="edge">
<title>Colimit_Pushout_PO_of_equiv&#45;&gt;Colimit_Pushout_PO_rec_beta_pp</title>
<path fill="none" stroke="black" d="M703.14,-467.13C756.28,-435.17 854.52,-376.08 907.21,-344.39"/>
<polygon fill="black" stroke="black" points="909.11,-347.33 915.87,-339.18 905.5,-341.34 909.11,-347.33"/>
</g>
<!-- Colimit_Pushout_PO_ind -->
<g id="node9" class="node">
<title>Colimit_Pushout_PO_ind</title>
<g id="a_node9"><a xlink:href="Colimit_Pushout.html#PO_ind" xlink:title="PO_ind">
<ellipse fill="#f070d1" stroke="black" cx="254.78" cy="-402" rx="43.59" ry="18"/>
<text text-anchor="middle" x="254.78" y="-398.3" font-family="Times,serif" font-size="14.00">PO_ind</text>
</a>
</g>
</g>
<!-- Colimit_Pushout_PO_of_equiv&#45;&gt;Colimit_Pushout_PO_ind -->
<g id="edge11" class="edge">
<title>Colimit_Pushout_PO_of_equiv&#45;&gt;Colimit_Pushout_PO_ind</title>
<path fill="none" stroke="black" d="M603.31,-475.75C520.42,-458.45 377.13,-428.54 302.73,-413.01"/>
<polygon fill="black" stroke="black" points="303.21,-409.53 292.71,-410.92 301.78,-416.39 303.21,-409.53"/>
</g>
<!-- Colimit_Pushout_PO_rec -->
<g id="node7" class="node">
<title>Colimit_Pushout_PO_rec</title>
<g id="a_node7"><a xlink:href="Colimit_Pushout.html#PO_rec" xlink:title="PO_rec">
<ellipse fill="#f070d1" stroke="black" cx="587.78" cy="-178" rx="43.59" ry="18"/>
<text text-anchor="middle" x="587.78" y="-174.3" font-family="Times,serif" font-size="14.00">PO_rec</text>
</a>
</g>
</g>
<!-- Colimit_Pushout_PO_rec_beta_pp&#45;&gt;Colimit_Pushout_PO_rec -->
<g id="edge12" class="edge">
<title>Colimit_Pushout_PO_rec_beta_pp&#45;&gt;Colimit_Pushout_PO_rec</title>
<path fill="none" stroke="black" d="M904.79,-305.8C837.28,-278.8 697.03,-222.7 627.97,-195.08"/>
<polygon fill="black" stroke="black" points="628.9,-191.68 618.31,-191.21 626.3,-198.18 628.9,-191.68"/>
</g>
<!-- Colimit_Pushout_PO_rec_beta_pp&#45;&gt;Colimit_Pushout_popp -->
<g id="edge13" class="edge">
<title>Colimit_Pushout_PO_rec_beta_pp&#45;&gt;Colimit_Pushout_popp</title>
<path fill="none" stroke="black" d="M870.68,-312.53C781.81,-302.09 626.17,-283.78 492.78,-268 459.06,-264.01 420.87,-259.47 392.44,-256.08"/>
<polygon fill="black" stroke="black" points="392.78,-252.6 382.43,-254.89 391.95,-259.55 392.78,-252.6"/>
</g>
<!-- Colimit_Pushout_PO_rec&#45;&gt;Colimit_Pushout_PO -->
<g id="edge14" class="edge">
<title>Colimit_Pushout_PO_rec&#45;&gt;Colimit_Pushout_PO</title>
<path fill="none" stroke="black" d="M553.43,-166.9C508.07,-153.56 428.69,-130.21 383.6,-116.95"/>
<polygon fill="black" stroke="black" points="384.57,-113.58 373.99,-114.12 382.59,-120.3 384.57,-113.58"/>
</g>
<!-- Colimit_Pushout_PO_rec&#45;&gt;Colimit_Pushout_Build_span_cocone -->
<g id="edge15" class="edge">
<title>Colimit_Pushout_PO_rec&#45;&gt;Colimit_Pushout_Build_span_cocone</title>
<path fill="none" stroke="black" d="M587.78,-159.7C587.78,-151.98 587.78,-142.71 587.78,-134.11"/>
<polygon fill="black" stroke="black" points="591.28,-134.1 587.78,-124.1 584.28,-134.1 591.28,-134.1"/>
</g>
<!-- Colimit_Pushout_PO_ind_beta_pp -->
<g id="node8" class="node">
<title>Colimit_Pushout_PO_ind_beta_pp</title>
<g id="a_node8"><a xlink:href="Colimit_Pushout.html#PO_ind_beta_pp" xlink:title="PO_ind_beta_pp">
<ellipse fill="#f070d1" stroke="black" cx="254.78" cy="-490" rx="84.49" ry="18"/>
<ellipse fill="none" stroke="black" cx="254.78" cy="-490" rx="88.49" ry="22"/>
<ellipse fill="none" stroke="black" cx="254.78" cy="-490" rx="92.49" ry="26"/>
<text text-anchor="middle" x="254.78" y="-486.3" font-family="Times,serif" font-size="14.00">PO_ind_beta_pp</text>
</a>
</g>
</g>
<!-- Colimit_Pushout_PO_ind_beta_pp&#45;&gt;Colimit_Pushout_PO_ind -->
<g id="edge16" class="edge">
<title>Colimit_Pushout_PO_ind_beta_pp&#45;&gt;Colimit_Pushout_PO_ind</title>
<path fill="none" stroke="black" d="M254.78,-463.66C254.78,-453.11 254.78,-440.84 254.78,-430.1"/>
<polygon fill="black" stroke="black" points="258.28,-430 254.78,-420 251.28,-430 258.28,-430"/>
</g>
<!-- Colimit_Pushout_PO_ind_arr -->
<g id="node10" class="node">
<title>Colimit_Pushout_PO_ind_arr</title>
<g id="a_node10"><a xlink:href="Colimit_Pushout.html#PO_ind_arr" xlink:title="PO_ind_arr">
<ellipse fill="#f070d1" stroke="black" cx="130.78" cy="-322" rx="61.99" ry="18"/>
<text text-anchor="middle" x="130.78" y="-318.3" font-family="Times,serif" font-size="14.00">PO_ind_arr</text>
</a>
</g>
</g>
<!-- Colimit_Pushout_PO_ind&#45;&gt;Colimit_Pushout_PO_ind_arr -->
<g id="edge17" class="edge">
<title>Colimit_Pushout_PO_ind&#45;&gt;Colimit_Pushout_PO_ind_arr</title>
<path fill="none" stroke="black" d="M231.75,-386.51C212.79,-374.59 185.65,-357.52 164.28,-344.08"/>
<polygon fill="black" stroke="black" points="166.15,-341.11 155.82,-338.75 162.42,-347.04 166.15,-341.11"/>
</g>
<!-- Colimit_Pushout_PO_ind_obj -->
<g id="node11" class="node">
<title>Colimit_Pushout_PO_ind_obj</title>
<g id="a_node11"><a xlink:href="Colimit_Pushout.html#PO_ind_obj" xlink:title="PO_ind_obj">
<ellipse fill="#f070d1" stroke="black" cx="158.78" cy="-250" rx="61.99" ry="18"/>
<text text-anchor="middle" x="158.78" y="-246.3" font-family="Times,serif" font-size="14.00">PO_ind_obj</text>
</a>
</g>
</g>
<!-- Colimit_Pushout_PO_ind_arr&#45;&gt;Colimit_Pushout_PO_ind_obj -->
<g id="edge18" class="edge">
<title>Colimit_Pushout_PO_ind_arr&#45;&gt;Colimit_Pushout_PO_ind_obj</title>
<path fill="none" stroke="black" d="M137.56,-304.05C140.71,-296.18 144.53,-286.62 148.06,-277.79"/>
<polygon fill="black" stroke="black" points="151.4,-278.86 151.87,-268.28 144.9,-276.26 151.4,-278.86"/>
</g>
<!-- Colimit_Pushout_PO_ind_arr&#45;&gt;Colimit_Pushout_popp -->
<g id="edge19" class="edge">
<title>Colimit_Pushout_PO_ind_arr&#45;&gt;Colimit_Pushout_popp</title>
<path fill="none" stroke="black" d="M170.69,-308.24C210.87,-295.4 272.39,-275.74 311.84,-263.13"/>
<polygon fill="black" stroke="black" points="313.16,-266.38 321.62,-260 311.03,-259.71 313.16,-266.38"/>
</g>
<!-- Colimit_Pushout_por -->
<g id="node13" class="node">
<title>Colimit_Pushout_por</title>
<g id="a_node13"><a xlink:href="Colimit_Pushout.html#por" xlink:title="por">
<ellipse fill="#f070d1" stroke="black" cx="229.78" cy="-178" rx="27" ry="18"/>
<text text-anchor="middle" x="229.78" y="-174.3" font-family="Times,serif" font-size="14.00">por</text>
</a>
</g>
</g>
<!-- Colimit_Pushout_PO_ind_obj&#45;&gt;Colimit_Pushout_por -->
<g id="edge20" class="edge">
<title>Colimit_Pushout_PO_ind_obj&#45;&gt;Colimit_Pushout_por</title>
<path fill="none" stroke="black" d="M175.6,-232.41C185.24,-222.91 197.44,-210.88 207.82,-200.65"/>
<polygon fill="black" stroke="black" points="210.34,-203.08 215,-193.57 205.42,-198.1 210.34,-203.08"/>
</g>
<!-- Colimit_Pushout_pol -->
<g id="node14" class="node">
<title>Colimit_Pushout_pol</title>
<g id="a_node14"><a xlink:href="Colimit_Pushout.html#pol" xlink:title="pol">
<ellipse fill="#f070d1" stroke="black" cx="349.78" cy="-178" rx="27" ry="18"/>
<text text-anchor="middle" x="349.78" y="-174.3" font-family="Times,serif" font-size="14.00">pol</text>
</a>
</g>
</g>
<!-- Colimit_Pushout_PO_ind_obj&#45;&gt;Colimit_Pushout_pol -->
<g id="edge21" class="edge">
<title>Colimit_Pushout_PO_ind_obj&#45;&gt;Colimit_Pushout_pol</title>
<path fill="none" stroke="black" d="M195.61,-235.5C230.83,-222.59 283.44,-203.31 317.18,-190.95"/>
<polygon fill="black" stroke="black" points="318.4,-194.23 326.58,-187.5 315.99,-187.66 318.4,-194.23"/>
</g>
<!-- Colimit_Pushout_popp&#45;&gt;Colimit_Pushout_por -->
<g id="edge22" class="edge">
<title>Colimit_Pushout_popp&#45;&gt;Colimit_Pushout_por</title>
<path fill="none" stroke="black" d="M327.77,-236.16C308.32,-224.81 279.82,-208.19 258.56,-195.79"/>
<polygon fill="black" stroke="black" points="260.06,-192.61 249.66,-190.6 256.53,-198.66 260.06,-192.61"/>
</g>
<!-- Colimit_Pushout_popp&#45;&gt;Colimit_Pushout_pol -->
<g id="edge23" class="edge">
<title>Colimit_Pushout_popp&#45;&gt;Colimit_Pushout_pol</title>
<path fill="none" stroke="black" d="M349.78,-231.7C349.78,-223.98 349.78,-214.71 349.78,-206.11"/>
<polygon fill="black" stroke="black" points="353.28,-206.1 349.78,-196.1 346.28,-206.1 353.28,-206.1"/>
</g>
<!-- Colimit_Pushout_por&#45;&gt;Colimit_Pushout_PO -->
<g id="edge24" class="edge">
<title>Colimit_Pushout_por&#45;&gt;Colimit_Pushout_PO</title>
<path fill="none" stroke="black" d="M249.59,-165.44C269.05,-154.09 298.94,-136.66 321.01,-123.78"/>
<polygon fill="black" stroke="black" points="323.06,-126.64 329.93,-118.58 319.53,-120.59 323.06,-126.64"/>
</g>
<!-- Colimit_Pushout_pol&#45;&gt;Colimit_Pushout_PO -->
<g id="edge25" class="edge">
<title>Colimit_Pushout_pol&#45;&gt;Colimit_Pushout_PO</title>
<path fill="none" stroke="black" d="M349.78,-159.7C349.78,-151.98 349.78,-142.71 349.78,-134.11"/>
<polygon fill="black" stroke="black" points="353.28,-134.1 349.78,-124.1 346.28,-134.1 353.28,-134.1"/>
</g>
<!-- Colimit_Pushout_por_ -->
<g id="node18" class="node">
<title>Colimit_Pushout_por_</title>
<g id="a_node18"><a xlink:href="Colimit_Pushout.html#por'" xlink:title="por&#39;">
<ellipse fill="#f070d1" stroke="black" cx="779.78" cy="-34" rx="28.7" ry="18"/>
<text text-anchor="middle" x="779.78" y="-30.3" font-family="Times,serif" font-size="14.00">por&#39;</text>
</a>
</g>
</g>
<!-- Colimit_Pushout_popp_&#45;&gt;Colimit_Pushout_por_ -->
<g id="edge26" class="edge">
<title>Colimit_Pushout_popp_&#45;&gt;Colimit_Pushout_por_</title>
<path fill="none" stroke="black" d="M827.71,-89.12C819.59,-79.95 809.24,-68.26 800.23,-58.09"/>
<polygon fill="black" stroke="black" points="802.62,-55.51 793.37,-50.34 797.38,-60.15 802.62,-55.51"/>
</g>
<!-- Colimit_Pushout_pol_ -->
<g id="node19" class="node">
<title>Colimit_Pushout_pol_</title>
<g id="a_node19"><a xlink:href="Colimit_Pushout.html#pol'" xlink:title="pol&#39;">
<ellipse fill="#f070d1" stroke="black" cx="903.78" cy="-34" rx="27.1" ry="18"/>
<text text-anchor="middle" x="903.78" y="-30.3" font-family="Times,serif" font-size="14.00">pol&#39;</text>
</a>
</g>
</g>
<!-- Colimit_Pushout_popp_&#45;&gt;Colimit_Pushout_pol_ -->
<g id="edge27" class="edge">
<title>Colimit_Pushout_popp_&#45;&gt;Colimit_Pushout_pol_</title>
<path fill="none" stroke="black" d="M855.85,-89.12C864.16,-79.73 874.82,-67.7 883.97,-57.36"/>
<polygon fill="black" stroke="black" points="886.6,-59.67 890.61,-49.86 881.36,-55.03 886.6,-59.67"/>
</g>
</g>
</svg>
