<?xml version="1.0" encoding="UTF-8" standalone="no"?>
<!DOCTYPE svg PUBLIC "-//W3C//DTD SVG 1.1//EN"
 "http://www.w3.org/Graphics/SVG/1.1/DTD/svg11.dtd">
<!-- Generated by graphviz version 2.43.0 (0)
 -->
<!-- Title: HoTT_WildCat_Square Pages: 1 -->
<svg width="3719pt" height="1864pt"
 viewBox="0.00 0.00 3719.00 1863.50" xmlns="http://www.w3.org/2000/svg" xmlns:xlink="http://www.w3.org/1999/xlink">
<g id="graph0" class="graph" transform="scale(1 1) rotate(0) translate(4 1859.5)">
<title>HoTT_WildCat_Square</title>
<polygon fill="white" stroke="transparent" points="-4,4 -4,-1859.5 3715,-1859.5 3715,4 -4,4"/>
<g id="clust1" class="cluster">
<title>cluster_Square</title>
<polygon fill="#ffffc3" stroke="black" points="8,-55.6 8,-1799.9 3703,-1799.9 3703,-55.6 8,-55.6"/>
<text text-anchor="middle" x="42" y="-1784.7" font-family="Times,serif" font-size="14.00">Square</text>
</g>
<!-- Square_fmap_square -->
<g id="node1" class="node">
<title>Square_fmap_square</title>
<g id="a_node1"><a xlink:href="Square.html#fmap_square" xlink:title="fmap_square">
<ellipse fill="#f070d1" stroke="black" cx="3617" cy="-792.6" rx="70.37" ry="18"/>
<ellipse fill="none" stroke="black" cx="3617" cy="-792.6" rx="74.38" ry="22"/>
<ellipse fill="none" stroke="black" cx="3617" cy="-792.6" rx="78.39" ry="26"/>
<text text-anchor="middle" x="3617" y="-788.9" font-family="Times,serif" font-size="14.00">fmap_square</text>
</a>
</g>
</g>
<!-- Square_Square -->
<g id="node27" class="node">
<title>Square_Square</title>
<g id="a_node27"><a xlink:href="Square.html#Square" xlink:title="Square">
<ellipse fill="#f070d1" stroke="black" cx="1702" cy="-236.6" rx="44.39" ry="18"/>
<text text-anchor="middle" x="1702" y="-232.9" font-family="Times,serif" font-size="14.00">Square</text>
</a>
</g>
</g>
<!-- Square_fmap_square&#45;&gt;Square_Square -->
<g id="edge1" class="edge">
<title>Square_fmap_square&#45;&gt;Square_Square</title>
<path fill="none" stroke="black" d="M3559.43,-774.94C3272.57,-691.95 2001.31,-324.18 1746.54,-250.48"/>
<polygon fill="black" stroke="black" points="1747.46,-247.1 1736.88,-247.69 1745.51,-253.83 1747.46,-247.1"/>
</g>
<!-- Square_move_top_right -->
<g id="node2" class="node">
<title>Square_move_top_right</title>
<g id="a_node2"><a xlink:href="Square.html#move_top_right" xlink:title="move_top_right">
<ellipse fill="#f070d1" stroke="black" cx="3430" cy="-792.6" rx="82.58" ry="18"/>
<ellipse fill="none" stroke="black" cx="3430" cy="-792.6" rx="86.58" ry="22"/>
<ellipse fill="none" stroke="black" cx="3430" cy="-792.6" rx="90.59" ry="26"/>
<text text-anchor="middle" x="3430" y="-788.9" font-family="Times,serif" font-size="14.00">move_top_right</text>
</a>
</g>
</g>
<!-- Square_move_top_right&#45;&gt;Square_Square -->
<g id="edge2" class="edge">
<title>Square_move_top_right&#45;&gt;Square_Square</title>
<path fill="none" stroke="black" d="M3371.02,-772.69C3100.3,-685.89 1979.93,-326.7 1745.24,-251.46"/>
<polygon fill="black" stroke="black" points="1746.27,-248.11 1735.68,-248.39 1744.13,-254.78 1746.27,-248.11"/>
</g>
<!-- Square_move_right_top -->
<g id="node3" class="node">
<title>Square_move_right_top</title>
<g id="a_node3"><a xlink:href="Square.html#move_right_top" xlink:title="move_right_top">
<ellipse fill="#f070d1" stroke="black" cx="3231" cy="-792.6" rx="82.58" ry="18"/>
<ellipse fill="none" stroke="black" cx="3231" cy="-792.6" rx="86.58" ry="22"/>
<ellipse fill="none" stroke="black" cx="3231" cy="-792.6" rx="90.59" ry="26"/>
<text text-anchor="middle" x="3231" y="-788.9" font-family="Times,serif" font-size="14.00">move_right_top</text>
</a>
</g>
</g>
<!-- Square_move_right_top&#45;&gt;Square_Square -->
<g id="edge3" class="edge">
<title>Square_move_right_top&#45;&gt;Square_Square</title>
<path fill="none" stroke="black" d="M3176.13,-771.72C2933.29,-683.73 1957.77,-330.27 1743.68,-252.7"/>
<polygon fill="black" stroke="black" points="1744.66,-249.33 1734.06,-249.21 1742.27,-255.91 1744.66,-249.33"/>
</g>
<!-- Square_move_left_bottom -->
<g id="node4" class="node">
<title>Square_move_left_bottom</title>
<g id="a_node4"><a xlink:href="Square.html#move_left_bottom" xlink:title="move_left_bottom">
<ellipse fill="#f070d1" stroke="black" cx="3022" cy="-792.6" rx="92.89" ry="18"/>
<ellipse fill="none" stroke="black" cx="3022" cy="-792.6" rx="96.89" ry="22"/>
<ellipse fill="none" stroke="black" cx="3022" cy="-792.6" rx="100.88" ry="26"/>
<text text-anchor="middle" x="3022" y="-788.9" font-family="Times,serif" font-size="14.00">move_left_bottom</text>
</a>
</g>
</g>
<!-- Square_move_left_bottom&#45;&gt;Square_Square -->
<g id="edge4" class="edge">
<title>Square_move_left_bottom&#45;&gt;Square_Square</title>
<path fill="none" stroke="black" d="M2970.66,-770.05C2755.67,-679.82 1930.17,-333.36 1740.85,-253.9"/>
<polygon fill="black" stroke="black" points="1742.13,-250.64 1731.56,-250 1739.42,-257.1 1742.13,-250.64"/>
</g>
<!-- Square_move_bottom_left -->
<g id="node5" class="node">
<title>Square_move_bottom_left</title>
<g id="a_node5"><a xlink:href="Square.html#move_bottom_left" xlink:title="move_bottom_left">
<ellipse fill="#f070d1" stroke="black" cx="2802" cy="-792.6" rx="92.89" ry="18"/>
<ellipse fill="none" stroke="black" cx="2802" cy="-792.6" rx="96.89" ry="22"/>
<ellipse fill="none" stroke="black" cx="2802" cy="-792.6" rx="100.88" ry="26"/>
<text text-anchor="middle" x="2802" y="-788.9" font-family="Times,serif" font-size="14.00">move_bottom_left</text>
</a>
</g>
</g>
<!-- Square_move_bottom_left&#45;&gt;Square_Square -->
<g id="edge5" class="edge">
<title>Square_move_bottom_left&#45;&gt;Square_Square</title>
<path fill="none" stroke="black" d="M2757.52,-769.19C2577.02,-678.29 1901.2,-337.92 1737.75,-255.6"/>
<polygon fill="black" stroke="black" points="1739.11,-252.37 1728.6,-250.99 1735.96,-258.62 1739.11,-252.37"/>
</g>
<!-- Square_whiskerRT -->
<g id="node6" class="node">
<title>Square_whiskerRT</title>
<g id="a_node6"><a xlink:href="Square.html#whiskerRT" xlink:title="whiskerRT">
<ellipse fill="#f070d1" stroke="black" cx="2615" cy="-792.6" rx="59.61" ry="18"/>
<ellipse fill="none" stroke="black" cx="2615" cy="-792.6" rx="63.6" ry="22"/>
<ellipse fill="none" stroke="black" cx="2615" cy="-792.6" rx="67.59" ry="26"/>
<text text-anchor="middle" x="2615" y="-788.9" font-family="Times,serif" font-size="14.00">whiskerRT</text>
</a>
</g>
</g>
<!-- Square_whiskerRT&#45;&gt;Square_Square -->
<g id="edge6" class="edge">
<title>Square_whiskerRT&#45;&gt;Square_Square</title>
<path fill="none" stroke="black" d="M2579.77,-770.22C2433.54,-681.49 1875.52,-342.89 1734.52,-257.33"/>
<polygon fill="black" stroke="black" points="1736.21,-254.26 1725.84,-252.06 1732.58,-260.24 1736.21,-254.26"/>
</g>
<!-- Square_whiskerTR -->
<g id="node7" class="node">
<title>Square_whiskerTR</title>
<g id="a_node7"><a xlink:href="Square.html#whiskerTR" xlink:title="whiskerTR">
<ellipse fill="#f070d1" stroke="black" cx="2461" cy="-792.6" rx="59.61" ry="18"/>
<ellipse fill="none" stroke="black" cx="2461" cy="-792.6" rx="63.6" ry="22"/>
<ellipse fill="none" stroke="black" cx="2461" cy="-792.6" rx="67.59" ry="26"/>
<text text-anchor="middle" x="2461" y="-788.9" font-family="Times,serif" font-size="14.00">whiskerTR</text>
</a>
</g>
</g>
<!-- Square_whiskerTR&#45;&gt;Square_Square -->
<g id="edge7" class="edge">
<title>Square_whiskerTR&#45;&gt;Square_Square</title>
<path fill="none" stroke="black" d="M2430.31,-769.19C2307.33,-679.43 1851.13,-346.45 1731.09,-258.83"/>
<polygon fill="black" stroke="black" points="1732.87,-255.79 1722.72,-252.72 1728.74,-261.45 1732.87,-255.79"/>
</g>
<!-- Square_whiskerLB -->
<g id="node8" class="node">
<title>Square_whiskerLB</title>
<g id="a_node8"><a xlink:href="Square.html#whiskerLB" xlink:title="whiskerLB">
<ellipse fill="#f070d1" stroke="black" cx="2307" cy="-792.6" rx="59.61" ry="18"/>
<ellipse fill="none" stroke="black" cx="2307" cy="-792.6" rx="63.6" ry="22"/>
<ellipse fill="none" stroke="black" cx="2307" cy="-792.6" rx="67.59" ry="26"/>
<text text-anchor="middle" x="2307" y="-788.9" font-family="Times,serif" font-size="14.00">whiskerLB</text>
</a>
</g>
</g>
<!-- Square_whiskerLB&#45;&gt;Square_Square -->
<g id="edge8" class="edge">
<title>Square_whiskerLB&#45;&gt;Square_Square</title>
<path fill="none" stroke="black" d="M2281.39,-768.14C2182.29,-677.4 1824.67,-349.92 1726.87,-260.37"/>
<polygon fill="black" stroke="black" points="1728.99,-257.56 1719.25,-253.39 1724.26,-262.73 1728.99,-257.56"/>
</g>
<!-- Square_whiskerBL -->
<g id="node9" class="node">
<title>Square_whiskerBL</title>
<g id="a_node9"><a xlink:href="Square.html#whiskerBL" xlink:title="whiskerBL">
<ellipse fill="#f070d1" stroke="black" cx="2153" cy="-792.6" rx="59.61" ry="18"/>
<ellipse fill="none" stroke="black" cx="2153" cy="-792.6" rx="63.6" ry="22"/>
<ellipse fill="none" stroke="black" cx="2153" cy="-792.6" rx="67.59" ry="26"/>
<text text-anchor="middle" x="2153" y="-788.9" font-family="Times,serif" font-size="14.00">whiskerBL</text>
</a>
</g>
</g>
<!-- Square_whiskerBL&#45;&gt;Square_Square -->
<g id="edge9" class="edge">
<title>Square_whiskerBL&#45;&gt;Square_Square</title>
<path fill="none" stroke="black" d="M2133.33,-767.43C2059.02,-676.15 1795.83,-352.85 1721.61,-261.69"/>
<polygon fill="black" stroke="black" points="1724.25,-259.39 1715.22,-253.84 1718.82,-263.81 1724.25,-259.39"/>
</g>
<!-- Square_whiskerBR -->
<g id="node10" class="node">
<title>Square_whiskerBR</title>
<g id="a_node10"><a xlink:href="Square.html#whiskerBR" xlink:title="whiskerBR">
<ellipse fill="#f070d1" stroke="black" cx="1998" cy="-792.6" rx="61.18" ry="18"/>
<ellipse fill="none" stroke="black" cx="1998" cy="-792.6" rx="65.18" ry="22"/>
<ellipse fill="none" stroke="black" cx="1998" cy="-792.6" rx="69.19" ry="26"/>
<text text-anchor="middle" x="1998" y="-788.9" font-family="Times,serif" font-size="14.00">whiskerBR</text>
</a>
</g>
</g>
<!-- Square_whiskerBR&#45;&gt;Square_Square -->
<g id="edge10" class="edge">
<title>Square_whiskerBR&#45;&gt;Square_Square</title>
<path fill="none" stroke="black" d="M1984.71,-766.72C1935.71,-675 1765.46,-356.37 1715.74,-263.31"/>
<polygon fill="black" stroke="black" points="1718.72,-261.46 1710.92,-254.29 1712.55,-264.76 1718.72,-261.46"/>
</g>
<!-- Square_whiskerTL -->
<g id="node11" class="node">
<title>Square_whiskerTL</title>
<g id="a_node11"><a xlink:href="Square.html#whiskerTL" xlink:title="whiskerTL">
<ellipse fill="#f070d1" stroke="black" cx="1844" cy="-792.6" rx="59.27" ry="18"/>
<ellipse fill="none" stroke="black" cx="1844" cy="-792.6" rx="63.28" ry="22"/>
<ellipse fill="none" stroke="black" cx="1844" cy="-792.6" rx="67.29" ry="26"/>
<text text-anchor="middle" x="1844" y="-788.9" font-family="Times,serif" font-size="14.00">whiskerTL</text>
</a>
</g>
</g>
<!-- Square_whiskerTL&#45;&gt;Square_Square -->
<g id="edge11" class="edge">
<title>Square_whiskerTL&#45;&gt;Square_Square</title>
<path fill="none" stroke="black" d="M1837.53,-766.35C1813.99,-674.53 1733.06,-358.76 1708.87,-264.42"/>
<polygon fill="black" stroke="black" points="1712.21,-263.34 1706.34,-254.52 1705.43,-265.08 1712.21,-263.34"/>
</g>
<!-- Square_vinverse -->
<g id="node12" class="node">
<title>Square_vinverse</title>
<g id="a_node12"><a xlink:href="Square.html#vinverse" xlink:title="vinverse">
<ellipse fill="#f070d1" stroke="black" cx="1639" cy="-1403.6" rx="50.08" ry="18"/>
<ellipse fill="none" stroke="black" cx="1639" cy="-1403.6" rx="54.09" ry="22"/>
<ellipse fill="none" stroke="black" cx="1639" cy="-1403.6" rx="58.09" ry="26"/>
<text text-anchor="middle" x="1639" y="-1399.9" font-family="Times,serif" font-size="14.00">vinverse</text>
</a>
</g>
</g>
<!-- Square_hinverse -->
<g id="node17" class="node">
<title>Square_hinverse</title>
<g id="a_node17"><a xlink:href="Square.html#hinverse" xlink:title="hinverse">
<ellipse fill="#f070d1" stroke="black" cx="1577" cy="-792.6" rx="50.89" ry="18"/>
<text text-anchor="middle" x="1577" y="-788.9" font-family="Times,serif" font-size="14.00">hinverse</text>
</a>
</g>
</g>
<!-- Square_vinverse&#45;&gt;Square_hinverse -->
<g id="edge12" class="edge">
<title>Square_vinverse&#45;&gt;Square_hinverse</title>
<path fill="none" stroke="black" d="M1636.45,-1377.59C1626.48,-1279.65 1590.13,-922.59 1579.77,-820.83"/>
<polygon fill="black" stroke="black" points="1583.24,-820.34 1578.75,-810.75 1576.28,-821.05 1583.24,-820.34"/>
</g>
<!-- Square_transpose -->
<g id="node20" class="node">
<title>Square_transpose</title>
<g id="a_node20"><a xlink:href="Square.html#transpose" xlink:title="transpose">
<ellipse fill="#f070d1" stroke="black" cx="1702" cy="-792.6" rx="56.59" ry="18"/>
<text text-anchor="middle" x="1702" y="-788.9" font-family="Times,serif" font-size="14.00">transpose</text>
</a>
</g>
</g>
<!-- Square_vinverse&#45;&gt;Square_transpose -->
<g id="edge13" class="edge">
<title>Square_vinverse&#45;&gt;Square_transpose</title>
<path fill="none" stroke="black" d="M1641.59,-1377.59C1651.72,-1279.65 1688.66,-922.59 1699.18,-820.83"/>
<polygon fill="black" stroke="black" points="1702.68,-821.06 1700.23,-810.75 1695.71,-820.34 1702.68,-821.06"/>
</g>
<!-- Square_vconcatR -->
<g id="node13" class="node">
<title>Square_vconcatR</title>
<g id="a_node13"><a xlink:href="Square.html#vconcatR" xlink:title="vconcatR">
<ellipse fill="#f070d1" stroke="black" cx="1447" cy="-792.6" rx="53.12" ry="18"/>
<ellipse fill="none" stroke="black" cx="1447" cy="-792.6" rx="57.1" ry="22"/>
<ellipse fill="none" stroke="black" cx="1447" cy="-792.6" rx="61.09" ry="26"/>
<text text-anchor="middle" x="1447" y="-788.9" font-family="Times,serif" font-size="14.00">vconcatR</text>
</a>
</g>
</g>
<!-- Square_vconcatR&#45;&gt;Square_Square -->
<g id="edge14" class="edge">
<title>Square_vconcatR&#45;&gt;Square_Square</title>
<path fill="none" stroke="black" d="M1458.45,-766.72C1500.58,-675.2 1646.71,-357.72 1689.89,-263.9"/>
<polygon fill="black" stroke="black" points="1693.19,-265.11 1694.19,-254.56 1686.83,-262.18 1693.19,-265.11"/>
</g>
<!-- Square_vconcatL -->
<g id="node14" class="node">
<title>Square_vconcatL</title>
<g id="a_node14"><a xlink:href="Square.html#vconcatL" xlink:title="vconcatL">
<ellipse fill="#f070d1" stroke="black" cx="1308" cy="-792.6" rx="51.99" ry="18"/>
<ellipse fill="none" stroke="black" cx="1308" cy="-792.6" rx="55.99" ry="22"/>
<ellipse fill="none" stroke="black" cx="1308" cy="-792.6" rx="59.99" ry="26"/>
<text text-anchor="middle" x="1308" y="-788.9" font-family="Times,serif" font-size="14.00">vconcatL</text>
</a>
</g>
</g>
<!-- Square_vconcatL&#45;&gt;Square_Square -->
<g id="edge15" class="edge">
<title>Square_vconcatL&#45;&gt;Square_Square</title>
<path fill="none" stroke="black" d="M1325.18,-767.43C1389.97,-676.34 1619.06,-354.21 1684.45,-262.27"/>
<polygon fill="black" stroke="black" points="1687.32,-264.28 1690.26,-254.1 1681.61,-260.22 1687.32,-264.28"/>
</g>
<!-- Square_hconcatR -->
<g id="node15" class="node">
<title>Square_hconcatR</title>
<g id="a_node15"><a xlink:href="Square.html#hconcatR" xlink:title="hconcatR">
<ellipse fill="#f070d1" stroke="black" cx="1168" cy="-792.6" rx="53.9" ry="18"/>
<ellipse fill="none" stroke="black" cx="1168" cy="-792.6" rx="57.89" ry="22"/>
<ellipse fill="none" stroke="black" cx="1168" cy="-792.6" rx="61.89" ry="26"/>
<text text-anchor="middle" x="1168" y="-788.9" font-family="Times,serif" font-size="14.00">hconcatR</text>
</a>
</g>
</g>
<!-- Square_hconcatR&#45;&gt;Square_Square -->
<g id="edge16" class="edge">
<title>Square_hconcatR&#45;&gt;Square_Square</title>
<path fill="none" stroke="black" d="M1190.6,-768.14C1277.89,-677.59 1592.4,-351.3 1679.5,-260.94"/>
<polygon fill="black" stroke="black" points="1682.11,-263.28 1686.53,-253.65 1677.07,-258.42 1682.11,-263.28"/>
</g>
<!-- Square_hconcatL -->
<g id="node16" class="node">
<title>Square_hconcatL</title>
<g id="a_node16"><a xlink:href="Square.html#hconcatL" xlink:title="hconcatL">
<ellipse fill="#f070d1" stroke="black" cx="1027" cy="-792.6" rx="52.77" ry="18"/>
<ellipse fill="none" stroke="black" cx="1027" cy="-792.6" rx="56.78" ry="22"/>
<ellipse fill="none" stroke="black" cx="1027" cy="-792.6" rx="60.79" ry="26"/>
<text text-anchor="middle" x="1027" y="-788.9" font-family="Times,serif" font-size="14.00">hconcatL</text>
</a>
</g>
</g>
<!-- Square_hconcatL&#45;&gt;Square_Square -->
<g id="edge17" class="edge">
<title>Square_hconcatL&#45;&gt;Square_Square</title>
<path fill="none" stroke="black" d="M1054.3,-769.19C1163.43,-679.62 1567.67,-347.84 1675.45,-259.39"/>
<polygon fill="black" stroke="black" points="1677.75,-262.03 1683.26,-252.98 1673.31,-256.62 1677.75,-262.03"/>
</g>
<!-- Square_hinverse&#45;&gt;Square_Square -->
<g id="edge18" class="edge">
<title>Square_hinverse&#45;&gt;Square_Square</title>
<path fill="none" stroke="black" d="M1580.88,-774.41C1598.83,-694.84 1673.93,-362 1695.92,-264.53"/>
<polygon fill="black" stroke="black" points="1699.38,-265.11 1698.17,-254.58 1692.55,-263.57 1699.38,-265.11"/>
</g>
<!-- Square_vconcat -->
<g id="node18" class="node">
<title>Square_vconcat</title>
<g id="a_node18"><a xlink:href="Square.html#vconcat" xlink:title="vconcat">
<ellipse fill="#f070d1" stroke="black" cx="894" cy="-792.6" rx="46.27" ry="18"/>
<ellipse fill="none" stroke="black" cx="894" cy="-792.6" rx="50.28" ry="22"/>
<ellipse fill="none" stroke="black" cx="894" cy="-792.6" rx="54.29" ry="26"/>
<text text-anchor="middle" x="894" y="-788.9" font-family="Times,serif" font-size="14.00">vconcat</text>
</a>
</g>
</g>
<!-- Square_vconcat&#45;&gt;Square_Square -->
<g id="edge19" class="edge">
<title>Square_vconcat&#45;&gt;Square_Square</title>
<path fill="none" stroke="black" d="M924.2,-770.89C1051.64,-683.51 1544.73,-345.43 1671.93,-258.21"/>
<polygon fill="black" stroke="black" points="1674.17,-260.92 1680.44,-252.38 1670.22,-255.14 1674.17,-260.92"/>
</g>
<!-- Square_hconcat -->
<g id="node19" class="node">
<title>Square_hconcat</title>
<g id="a_node19"><a xlink:href="Square.html#hconcat" xlink:title="hconcat">
<ellipse fill="#f070d1" stroke="black" cx="767" cy="-792.6" rx="46.62" ry="18"/>
<ellipse fill="none" stroke="black" cx="767" cy="-792.6" rx="50.61" ry="22"/>
<ellipse fill="none" stroke="black" cx="767" cy="-792.6" rx="54.59" ry="26"/>
<text text-anchor="middle" x="767" y="-788.9" font-family="Times,serif" font-size="14.00">hconcat</text>
</a>
</g>
</g>
<!-- Square_hconcat&#45;&gt;Square_Square -->
<g id="edge20" class="edge">
<title>Square_hconcat&#45;&gt;Square_Square</title>
<path fill="none" stroke="black" d="M800.28,-771.88C945.59,-685.78 1523.71,-343.24 1668.82,-257.25"/>
<polygon fill="black" stroke="black" points="1670.93,-260.08 1677.75,-251.97 1667.36,-254.05 1670.93,-260.08"/>
</g>
<!-- Square_transpose&#45;&gt;Square_Square -->
<g id="edge21" class="edge">
<title>Square_transpose&#45;&gt;Square_Square</title>
<path fill="none" stroke="black" d="M1702,-774.41C1702,-695.01 1702,-363.41 1702,-265.15"/>
<polygon fill="black" stroke="black" points="1705.5,-264.86 1702,-254.86 1698.5,-264.86 1705.5,-264.86"/>
</g>
<!-- Square_vrefl -->
<g id="node21" class="node">
<title>Square_vrefl</title>
<g id="a_node21"><a xlink:href="Square.html#vrefl" xlink:title="vrefl">
<ellipse fill="#f070d1" stroke="black" cx="625" cy="-1403.6" rx="31.73" ry="18"/>
<ellipse fill="none" stroke="black" cx="625" cy="-1403.6" rx="35.71" ry="22"/>
<ellipse fill="none" stroke="black" cx="625" cy="-1403.6" rx="39.69" ry="26"/>
<text text-anchor="middle" x="625" y="-1399.9" font-family="Times,serif" font-size="14.00">vrefl</text>
</a>
</g>
</g>
<!-- Square_vdeg_square -->
<g id="node23" class="node">
<title>Square_vdeg_square</title>
<g id="a_node23"><a xlink:href="Square.html#vdeg_square" xlink:title="vdeg_square">
<ellipse fill="#f070d1" stroke="black" cx="625" cy="-792.6" rx="69.59" ry="18"/>
<text text-anchor="middle" x="625" y="-788.9" font-family="Times,serif" font-size="14.00">vdeg_square</text>
</a>
</g>
</g>
<!-- Square_vrefl&#45;&gt;Square_vdeg_square -->
<g id="edge22" class="edge">
<title>Square_vrefl&#45;&gt;Square_vdeg_square</title>
<path fill="none" stroke="black" d="M625,-1377.59C625,-1279.65 625,-922.59 625,-820.83"/>
<polygon fill="black" stroke="black" points="628.5,-820.75 625,-810.75 621.5,-820.75 628.5,-820.75"/>
</g>
<!-- Square_hrefl -->
<g id="node22" class="node">
<title>Square_hrefl</title>
<g id="a_node22"><a xlink:href="Square.html#hrefl" xlink:title="hrefl">
<ellipse fill="#f070d1" stroke="black" cx="468" cy="-1403.6" rx="32.49" ry="18"/>
<ellipse fill="none" stroke="black" cx="468" cy="-1403.6" rx="36.49" ry="22"/>
<ellipse fill="none" stroke="black" cx="468" cy="-1403.6" rx="40.49" ry="26"/>
<text text-anchor="middle" x="468" y="-1399.9" font-family="Times,serif" font-size="14.00">hrefl</text>
</a>
</g>
</g>
<!-- Square_hdeg_square -->
<g id="node24" class="node">
<title>Square_hdeg_square</title>
<g id="a_node24"><a xlink:href="Square.html#hdeg_square" xlink:title="hdeg_square">
<ellipse fill="#f070d1" stroke="black" cx="468" cy="-792.6" rx="69.59" ry="18"/>
<text text-anchor="middle" x="468" y="-788.9" font-family="Times,serif" font-size="14.00">hdeg_square</text>
</a>
</g>
</g>
<!-- Square_hrefl&#45;&gt;Square_hdeg_square -->
<g id="edge23" class="edge">
<title>Square_hrefl&#45;&gt;Square_hdeg_square</title>
<path fill="none" stroke="black" d="M468,-1377.59C468,-1279.65 468,-922.59 468,-820.83"/>
<polygon fill="black" stroke="black" points="471.5,-820.75 468,-810.75 464.5,-820.75 471.5,-820.75"/>
</g>
<!-- Square_vdeg_square&#45;&gt;Square_Square -->
<g id="edge24" class="edge">
<title>Square_vdeg_square&#45;&gt;Square_Square</title>
<path fill="none" stroke="black" d="M654.93,-776.2C807.82,-697.55 1500.9,-341.04 1666.42,-255.9"/>
<polygon fill="black" stroke="black" points="1668.38,-258.82 1675.68,-251.14 1665.18,-252.6 1668.38,-258.82"/>
</g>
<!-- Square_hdeg_square&#45;&gt;Square_Square -->
<g id="edge25" class="edge">
<title>Square_hdeg_square&#45;&gt;Square_Square</title>
<path fill="none" stroke="black" d="M501.33,-776.63C675.4,-698.48 1479.28,-337.58 1664.06,-254.63"/>
<polygon fill="black" stroke="black" points="1665.69,-257.73 1673.38,-250.45 1662.82,-251.35 1665.69,-257.73"/>
</g>
<!-- Square_gpdhom_square -->
<g id="node25" class="node">
<title>Square_gpdhom_square</title>
<g id="a_node25"><a xlink:href="Square.html#gpdhom_square" xlink:title="gpdhom_square">
<ellipse fill="#f070d1" stroke="black" cx="288" cy="-792.6" rx="84.49" ry="18"/>
<ellipse fill="none" stroke="black" cx="288" cy="-792.6" rx="88.49" ry="22"/>
<ellipse fill="none" stroke="black" cx="288" cy="-792.6" rx="92.49" ry="26"/>
<text text-anchor="middle" x="288" y="-788.9" font-family="Times,serif" font-size="14.00">gpdhom_square</text>
</a>
</g>
</g>
<!-- Square_gpdhom_square&#45;&gt;Square_Square -->
<g id="edge26" class="edge">
<title>Square_gpdhom_square&#45;&gt;Square_Square</title>
<path fill="none" stroke="black" d="M340.43,-771.06C567.14,-682.23 1460.79,-332.1 1661.74,-253.37"/>
<polygon fill="black" stroke="black" points="1663.28,-256.52 1671.31,-249.62 1660.73,-250.01 1663.28,-256.52"/>
</g>
<!-- Square_Build_Square -->
<g id="node26" class="node">
<title>Square_Build_Square</title>
<g id="a_node26"><a xlink:href="Square.html#Build_Square" xlink:title="Build_Square">
<ellipse fill="#f070d1" stroke="black" cx="97" cy="-792.6" rx="72.61" ry="18"/>
<ellipse fill="none" stroke="black" cx="97" cy="-792.6" rx="76.6" ry="22"/>
<ellipse fill="none" stroke="black" cx="97" cy="-792.6" rx="80.59" ry="26"/>
<text text-anchor="middle" x="97" y="-788.9" font-family="Times,serif" font-size="14.00">Build_Square</text>
</a>
</g>
</g>
<!-- Square_Build_Square&#45;&gt;Square_Square -->
<g id="edge27" class="edge">
<title>Square_Build_Square&#45;&gt;Square_Square</title>
<path fill="none" stroke="black" d="M150.86,-773C399.86,-687.06 1436.76,-329.15 1659.67,-252.21"/>
<polygon fill="black" stroke="black" points="1661.06,-255.43 1669.37,-248.86 1658.77,-248.81 1661.06,-255.43"/>
</g>
</g>
</svg>
