<?xml version="1.0" encoding="UTF-8" standalone="no"?>
<!DOCTYPE svg PUBLIC "-//W3C//DTD SVG 1.1//EN"
 "http://www.w3.org/Graphics/SVG/1.1/DTD/svg11.dtd">
<!-- Generated by graphviz version 2.43.0 (0)
 -->
<!-- Title: HoTT_Homotopy_Wedge Pages: 1 -->
<svg width="1802pt" height="905pt"
 viewBox="0.00 0.00 1802.00 905.00" xmlns="http://www.w3.org/2000/svg" xmlns:xlink="http://www.w3.org/1999/xlink">
<g id="graph0" class="graph" transform="scale(1 1) rotate(0) translate(4 901)">
<title>HoTT_Homotopy_Wedge</title>
<polygon fill="white" stroke="transparent" points="-4,4 -4,-901 1798,-901 1798,4 -4,4"/>
<g id="clust1" class="cluster">
<title>cluster_Wedge</title>
<polygon fill="#ffffc3" stroke="black" points="8,-14.38 8,-882.62 1786,-882.62 1786,-14.38 8,-14.38"/>
<text text-anchor="middle" x="40.5" y="-867.42" font-family="Times,serif" font-size="14.00">Wedge</text>
</g>
<!-- Wedge_wedge_pr2_psusp_pinch -->
<g id="node1" class="node">
<title>Wedge_wedge_pr2_psusp_pinch</title>
<g id="a_node1"><a xlink:href="Wedge.html#wedge_pr2_psusp_pinch" xlink:title="wedge_pr2_psusp_pinch">
<ellipse fill="#f070d1" stroke="black" cx="1139" cy="-622.38" rx="122.69" ry="18"/>
<ellipse fill="none" stroke="black" cx="1139" cy="-622.38" rx="126.68" ry="22"/>
<ellipse fill="none" stroke="black" cx="1139" cy="-622.38" rx="130.68" ry="26"/>
<text text-anchor="middle" x="1139" y="-618.68" font-family="Times,serif" font-size="14.00">wedge_pr2_psusp_pinch</text>
</a>
</g>
</g>
<!-- Wedge_psusp_pinch_beta_merid -->
<g id="node3" class="node">
<title>Wedge_psusp_pinch_beta_merid</title>
<g id="a_node3"><a xlink:href="Wedge.html#psusp_pinch_beta_merid" xlink:title="psusp_pinch_beta_merid">
<ellipse fill="#f070d1" stroke="black" cx="907" cy="-463.38" rx="124.28" ry="18"/>
<text text-anchor="middle" x="907" y="-459.68" font-family="Times,serif" font-size="14.00">psusp_pinch_beta_merid</text>
</a>
</g>
</g>
<!-- Wedge_wedge_pr2_psusp_pinch&#45;&gt;Wedge_psusp_pinch_beta_merid -->
<g id="edge1" class="edge">
<title>Wedge_wedge_pr2_psusp_pinch&#45;&gt;Wedge_psusp_pinch_beta_merid</title>
<path fill="none" stroke="black" d="M1103.26,-597.19C1058.79,-567.1 983.44,-516.11 940.19,-486.84"/>
<polygon fill="black" stroke="black" points="941.97,-483.82 931.73,-481.11 938.05,-489.62 941.97,-483.82"/>
</g>
<!-- Wedge_wedge_pr2 -->
<g id="node17" class="node">
<title>Wedge_wedge_pr2</title>
<g id="a_node17"><a xlink:href="Wedge.html#wedge_pr2" xlink:title="wedge_pr2">
<ellipse fill="#f070d1" stroke="black" cx="703" cy="-463.38" rx="61.99" ry="18"/>
<text text-anchor="middle" x="703" y="-459.68" font-family="Times,serif" font-size="14.00">wedge_pr2</text>
</a>
</g>
</g>
<!-- Wedge_wedge_pr2_psusp_pinch&#45;&gt;Wedge_wedge_pr2 -->
<g id="edge2" class="edge">
<title>Wedge_wedge_pr2_psusp_pinch&#45;&gt;Wedge_wedge_pr2</title>
<path fill="none" stroke="black" d="M1077.92,-599.39C989.93,-567.7 829.38,-509.89 750.01,-481.31"/>
<polygon fill="black" stroke="black" points="750.87,-477.9 740.28,-477.8 748.5,-484.49 750.87,-477.9"/>
</g>
<!-- Wedge_wedge_rec_beta_wglue -->
<g id="node19" class="node">
<title>Wedge_wedge_rec_beta_wglue</title>
<g id="a_node19"><a xlink:href="Wedge.html#wedge_rec_beta_wglue" xlink:title="wedge_rec_beta_wglue">
<ellipse fill="#f070d1" stroke="black" cx="1166" cy="-463.38" rx="116.98" ry="18"/>
<text text-anchor="middle" x="1166" y="-459.68" font-family="Times,serif" font-size="14.00">wedge_rec_beta_wglue</text>
</a>
</g>
</g>
<!-- Wedge_wedge_pr2_psusp_pinch&#45;&gt;Wedge_wedge_rec_beta_wglue -->
<g id="edge3" class="edge">
<title>Wedge_wedge_pr2_psusp_pinch&#45;&gt;Wedge_wedge_rec_beta_wglue</title>
<path fill="none" stroke="black" d="M1143.34,-596.16C1148.25,-567.59 1156.23,-521.21 1161.29,-491.78"/>
<polygon fill="black" stroke="black" points="1164.76,-492.21 1163.01,-481.77 1157.87,-491.03 1164.76,-492.21"/>
</g>
<!-- Wedge_wedge_pr1_psusp_pinch -->
<g id="node2" class="node">
<title>Wedge_wedge_pr1_psusp_pinch</title>
<g id="a_node2"><a xlink:href="Wedge.html#wedge_pr1_psusp_pinch" xlink:title="wedge_pr1_psusp_pinch">
<ellipse fill="#f070d1" stroke="black" cx="859" cy="-622.38" rx="122.69" ry="18"/>
<ellipse fill="none" stroke="black" cx="859" cy="-622.38" rx="126.68" ry="22"/>
<ellipse fill="none" stroke="black" cx="859" cy="-622.38" rx="130.68" ry="26"/>
<text text-anchor="middle" x="859" y="-618.68" font-family="Times,serif" font-size="14.00">wedge_pr1_psusp_pinch</text>
</a>
</g>
</g>
<!-- Wedge_wedge_pr1_psusp_pinch&#45;&gt;Wedge_psusp_pinch_beta_merid -->
<g id="edge4" class="edge">
<title>Wedge_wedge_pr1_psusp_pinch&#45;&gt;Wedge_psusp_pinch_beta_merid</title>
<path fill="none" stroke="black" d="M866.71,-596.16C875.48,-567.47 889.75,-520.8 898.74,-491.39"/>
<polygon fill="black" stroke="black" points="902.11,-492.35 901.68,-481.77 895.41,-490.31 902.11,-492.35"/>
</g>
<!-- Wedge_wedge_pr1 -->
<g id="node18" class="node">
<title>Wedge_wedge_pr1</title>
<g id="a_node18"><a xlink:href="Wedge.html#wedge_pr1" xlink:title="wedge_pr1">
<ellipse fill="#f070d1" stroke="black" cx="562" cy="-463.38" rx="61.99" ry="18"/>
<text text-anchor="middle" x="562" y="-459.68" font-family="Times,serif" font-size="14.00">wedge_pr1</text>
</a>
</g>
</g>
<!-- Wedge_wedge_pr1_psusp_pinch&#45;&gt;Wedge_wedge_pr1 -->
<g id="edge5" class="edge">
<title>Wedge_wedge_pr1_psusp_pinch&#45;&gt;Wedge_wedge_pr1</title>
<path fill="none" stroke="black" d="M814.54,-597.88C756.1,-566.99 654.47,-513.26 599.65,-484.28"/>
<polygon fill="black" stroke="black" points="601.1,-481.09 590.62,-479.51 597.82,-487.28 601.1,-481.09"/>
</g>
<!-- Wedge_wedge_pr1_psusp_pinch&#45;&gt;Wedge_wedge_rec_beta_wglue -->
<g id="edge6" class="edge">
<title>Wedge_wedge_pr1_psusp_pinch&#45;&gt;Wedge_wedge_rec_beta_wglue</title>
<path fill="none" stroke="black" d="M904.96,-597.88C964.54,-567.41 1067.55,-514.73 1124.73,-485.48"/>
<polygon fill="black" stroke="black" points="1126.53,-488.5 1133.84,-480.83 1123.35,-482.26 1126.53,-488.5"/>
</g>
<!-- Wedge_psusp_pinch -->
<g id="node4" class="node">
<title>Wedge_psusp_pinch</title>
<g id="a_node4"><a xlink:href="Wedge.html#psusp_pinch" xlink:title="psusp_pinch">
<ellipse fill="#f070d1" stroke="black" cx="752" cy="-320.38" rx="67.69" ry="18"/>
<text text-anchor="middle" x="752" y="-316.68" font-family="Times,serif" font-size="14.00">psusp_pinch</text>
</a>
</g>
</g>
<!-- Wedge_psusp_pinch_beta_merid&#45;&gt;Wedge_psusp_pinch -->
<g id="edge7" class="edge">
<title>Wedge_psusp_pinch_beta_merid&#45;&gt;Wedge_psusp_pinch</title>
<path fill="none" stroke="black" d="M888.3,-445.37C860.69,-420.25 808.92,-373.16 777.74,-344.79"/>
<polygon fill="black" stroke="black" points="780.03,-342.15 770.28,-338.01 775.32,-347.33 780.03,-342.15"/>
</g>
<!-- Wedge_wglue -->
<g id="node22" class="node">
<title>Wedge_wglue</title>
<g id="a_node22"><a xlink:href="Wedge.html#wglue" xlink:title="wglue">
<ellipse fill="#f070d1" stroke="black" cx="752" cy="-190.38" rx="38.19" ry="18"/>
<text text-anchor="middle" x="752" y="-186.68" font-family="Times,serif" font-size="14.00">wglue</text>
</a>
</g>
</g>
<!-- Wedge_psusp_pinch&#45;&gt;Wedge_wglue -->
<g id="edge8" class="edge">
<title>Wedge_psusp_pinch&#45;&gt;Wedge_wglue</title>
<path fill="none" stroke="black" d="M752,-302.12C752,-280.74 752,-244.07 752,-218.82"/>
<polygon fill="black" stroke="black" points="755.5,-218.78 752,-208.78 748.5,-218.78 755.5,-218.78"/>
</g>
<!-- Wedge_wedge_inr -->
<g id="node23" class="node">
<title>Wedge_wedge_inr</title>
<g id="a_node23"><a xlink:href="Wedge.html#wedge_inr" xlink:title="wedge_inr">
<ellipse fill="#f070d1" stroke="black" cx="481" cy="-190.38" rx="58.49" ry="18"/>
<text text-anchor="middle" x="481" y="-186.68" font-family="Times,serif" font-size="14.00">wedge_inr</text>
</a>
</g>
</g>
<!-- Wedge_psusp_pinch&#45;&gt;Wedge_wedge_inr -->
<g id="edge9" class="edge">
<title>Wedge_psusp_pinch&#45;&gt;Wedge_wedge_inr</title>
<path fill="none" stroke="black" d="M720.38,-304.45C670.86,-281.06 575.06,-235.81 520.88,-210.22"/>
<polygon fill="black" stroke="black" points="522.12,-206.93 511.58,-205.83 519.13,-213.26 522.12,-206.93"/>
</g>
<!-- Wedge_wedge_inl -->
<g id="node24" class="node">
<title>Wedge_wedge_inl</title>
<g id="a_node24"><a xlink:href="Wedge.html#wedge_inl" xlink:title="wedge_inl">
<ellipse fill="#f070d1" stroke="black" cx="346" cy="-190.38" rx="57.39" ry="18"/>
<text text-anchor="middle" x="346" y="-186.68" font-family="Times,serif" font-size="14.00">wedge_inl</text>
</a>
</g>
</g>
<!-- Wedge_psusp_pinch&#45;&gt;Wedge_wedge_inl -->
<g id="edge10" class="edge">
<title>Wedge_psusp_pinch&#45;&gt;Wedge_wedge_inl</title>
<path fill="none" stroke="black" d="M710.08,-306.16C634.4,-282.31 475.37,-232.17 394.88,-206.79"/>
<polygon fill="black" stroke="black" points="395.59,-203.35 385,-203.68 393.48,-210.02 395.59,-203.35"/>
</g>
<!-- Wedge_fwedge_incl -->
<g id="node5" class="node">
<title>Wedge_fwedge_incl</title>
<g id="a_node5"><a xlink:href="Wedge.html#fwedge_incl" xlink:title="fwedge_incl">
<ellipse fill="#f070d1" stroke="black" cx="1704" cy="-780.38" rx="65.77" ry="18"/>
<ellipse fill="none" stroke="black" cx="1704" cy="-780.38" rx="69.78" ry="22"/>
<ellipse fill="none" stroke="black" cx="1704" cy="-780.38" rx="73.79" ry="26"/>
<text text-anchor="middle" x="1704" y="-776.68" font-family="Times,serif" font-size="14.00">fwedge_incl</text>
</a>
</g>
</g>
<!-- Wedge_fwedge_rec -->
<g id="node6" class="node">
<title>Wedge_fwedge_rec</title>
<g id="a_node6"><a xlink:href="Wedge.html#fwedge_rec" xlink:title="fwedge_rec">
<ellipse fill="#f070d1" stroke="black" cx="1714" cy="-622.38" rx="63.89" ry="18"/>
<text text-anchor="middle" x="1714" y="-618.68" font-family="Times,serif" font-size="14.00">fwedge_rec</text>
</a>
</g>
</g>
<!-- Wedge_fwedge_incl&#45;&gt;Wedge_fwedge_rec -->
<g id="edge11" class="edge">
<title>Wedge_fwedge_incl&#45;&gt;Wedge_fwedge_rec</title>
<path fill="none" stroke="black" d="M1705.61,-754.32C1707.42,-726.06 1710.35,-680.25 1712.23,-650.99"/>
<polygon fill="black" stroke="black" points="1715.75,-650.86 1712.89,-640.66 1708.76,-650.41 1715.75,-650.86"/>
</g>
<!-- Wedge_FamilyWedge -->
<g id="node8" class="node">
<title>Wedge_FamilyWedge</title>
<g id="a_node8"><a xlink:href="Wedge.html#FamilyWedge" xlink:title="FamilyWedge">
<ellipse fill="#f070d1" stroke="black" cx="1635" cy="-463.38" rx="73.39" ry="18"/>
<text text-anchor="middle" x="1635" y="-459.68" font-family="Times,serif" font-size="14.00">FamilyWedge</text>
</a>
</g>
</g>
<!-- Wedge_fwedge_rec&#45;&gt;Wedge_FamilyWedge -->
<g id="edge12" class="edge">
<title>Wedge_fwedge_rec&#45;&gt;Wedge_FamilyWedge</title>
<path fill="none" stroke="black" d="M1705.4,-604.28C1691.62,-576.91 1664.53,-523.07 1648.27,-490.75"/>
<polygon fill="black" stroke="black" points="1651.22,-488.82 1643.59,-481.46 1644.96,-491.97 1651.22,-488.82"/>
</g>
<!-- Wedge_fwedge_in -->
<g id="node7" class="node">
<title>Wedge_fwedge_in</title>
<g id="a_node7"><a xlink:href="Wedge.html#fwedge_in" xlink:title="fwedge_in">
<ellipse fill="#f070d1" stroke="black" cx="1566" cy="-622.38" rx="57.71" ry="18"/>
<ellipse fill="none" stroke="black" cx="1566" cy="-622.38" rx="61.7" ry="22"/>
<ellipse fill="none" stroke="black" cx="1566" cy="-622.38" rx="65.69" ry="26"/>
<text text-anchor="middle" x="1566" y="-618.68" font-family="Times,serif" font-size="14.00">fwedge_in</text>
</a>
</g>
</g>
<!-- Wedge_fwedge_in&#45;&gt;Wedge_FamilyWedge -->
<g id="edge13" class="edge">
<title>Wedge_fwedge_in&#45;&gt;Wedge_FamilyWedge</title>
<path fill="none" stroke="black" d="M1576.93,-596.5C1589.63,-567.61 1610.5,-520.14 1623.45,-490.66"/>
<polygon fill="black" stroke="black" points="1626.7,-491.96 1627.52,-481.4 1620.29,-489.15 1626.7,-491.96"/>
</g>
<!-- Wedge_wedge_pr2_inr -->
<g id="node9" class="node">
<title>Wedge_wedge_pr2_inr</title>
<g id="a_node9"><a xlink:href="Wedge.html#wedge_pr2_inr" xlink:title="wedge_pr2_inr">
<ellipse fill="#f070d1" stroke="black" cx="1375" cy="-622.38" rx="79.11" ry="18"/>
<ellipse fill="none" stroke="black" cx="1375" cy="-622.38" rx="83.1" ry="22"/>
<ellipse fill="none" stroke="black" cx="1375" cy="-622.38" rx="87.09" ry="26"/>
<text text-anchor="middle" x="1375" y="-618.68" font-family="Times,serif" font-size="14.00">wedge_pr2_inr</text>
</a>
</g>
</g>
<!-- Wedge_wedge_pr2_inr&#45;&gt;Wedge_wedge_pr2 -->
<g id="edge14" class="edge">
<title>Wedge_wedge_pr2_inr&#45;&gt;Wedge_wedge_pr2</title>
<path fill="none" stroke="black" d="M1311.59,-604.43C1300.74,-601.65 1289.56,-598.87 1279,-596.38 1055.71,-543.68 994.89,-551.39 774,-489.38 765.77,-487.07 757.11,-484.31 748.78,-481.48"/>
<polygon fill="black" stroke="black" points="749.79,-478.12 739.19,-478.14 747.49,-484.73 749.79,-478.12"/>
</g>
<!-- Wedge_wedge_pr2_inr&#45;&gt;Wedge_wedge_rec_beta_wglue -->
<g id="edge15" class="edge">
<title>Wedge_wedge_pr2_inr&#45;&gt;Wedge_wedge_rec_beta_wglue</title>
<path fill="none" stroke="black" d="M1343.71,-597.88C1304.12,-568.13 1236.34,-517.22 1196.92,-487.61"/>
<polygon fill="black" stroke="black" points="1198.59,-484.48 1188.49,-481.27 1194.38,-490.08 1198.59,-484.48"/>
</g>
<!-- Wedge_wedge_pr2_inr&#45;&gt;Wedge_wedge_inr -->
<g id="edge16" class="edge">
<title>Wedge_wedge_pr2_inr&#45;&gt;Wedge_wedge_inr</title>
<path fill="none" stroke="black" d="M1370.56,-596.32C1362.25,-556.79 1340.58,-480.05 1292,-437.38 1232.86,-385.43 705.94,-248.45 534.58,-204.89"/>
<polygon fill="black" stroke="black" points="535.32,-201.46 524.77,-202.39 533.6,-208.25 535.32,-201.46"/>
</g>
<!-- Wedge_wedge_pr2_inl -->
<g id="node10" class="node">
<title>Wedge_wedge_pr2_inl</title>
<g id="a_node10"><a xlink:href="Wedge.html#wedge_pr2_inl" xlink:title="wedge_pr2_inl">
<ellipse fill="#f070d1" stroke="black" cx="290" cy="-622.38" rx="77.2" ry="18"/>
<ellipse fill="none" stroke="black" cx="290" cy="-622.38" rx="81.19" ry="22"/>
<ellipse fill="none" stroke="black" cx="290" cy="-622.38" rx="85.19" ry="26"/>
<text text-anchor="middle" x="290" y="-618.68" font-family="Times,serif" font-size="14.00">wedge_pr2_inl</text>
</a>
</g>
</g>
<!-- Wedge_wedge_pr2_inl&#45;&gt;Wedge_wedge_pr2 -->
<g id="edge17" class="edge">
<title>Wedge_wedge_pr2_inl&#45;&gt;Wedge_wedge_pr2</title>
<path fill="none" stroke="black" d="M341.89,-601.66C423.43,-570.66 580.25,-511.04 657.59,-481.64"/>
<polygon fill="black" stroke="black" points="658.96,-484.87 667.06,-478.04 656.47,-478.32 658.96,-484.87"/>
</g>
<!-- Wedge_wedge_pr2_inl&#45;&gt;Wedge_wedge_inl -->
<g id="edge18" class="edge">
<title>Wedge_wedge_pr2_inl&#45;&gt;Wedge_wedge_inl</title>
<path fill="none" stroke="black" d="M272.33,-596.57C255.35,-571.08 230.87,-529.56 221,-489.38 215.49,-466.94 216.27,-460 221,-437.38 239.3,-349.82 297.4,-259.12 327.51,-216.44"/>
<polygon fill="black" stroke="black" points="330.52,-218.25 333.49,-208.08 324.82,-214.18 330.52,-218.25"/>
</g>
<!-- Wedge_wedge_pr1_inr -->
<g id="node11" class="node">
<title>Wedge_wedge_pr1_inr</title>
<g id="a_node11"><a xlink:href="Wedge.html#wedge_pr1_inr" xlink:title="wedge_pr1_inr">
<ellipse fill="#f070d1" stroke="black" cx="481" cy="-622.38" rx="79.11" ry="18"/>
<ellipse fill="none" stroke="black" cx="481" cy="-622.38" rx="83.1" ry="22"/>
<ellipse fill="none" stroke="black" cx="481" cy="-622.38" rx="87.09" ry="26"/>
<text text-anchor="middle" x="481" y="-618.68" font-family="Times,serif" font-size="14.00">wedge_pr1_inr</text>
</a>
</g>
</g>
<!-- Wedge_wedge_pr1_inr&#45;&gt;Wedge_wedge_pr1 -->
<g id="edge19" class="edge">
<title>Wedge_wedge_pr1_inr&#45;&gt;Wedge_wedge_pr1</title>
<path fill="none" stroke="black" d="M493.83,-596.5C508.74,-567.61 533.23,-520.14 548.44,-490.66"/>
<polygon fill="black" stroke="black" points="551.75,-491.89 553.22,-481.4 545.52,-488.68 551.75,-491.89"/>
</g>
<!-- Wedge_wedge_pr1_inr&#45;&gt;Wedge_wedge_rec_beta_wglue -->
<g id="edge20" class="edge">
<title>Wedge_wedge_pr1_inr&#45;&gt;Wedge_wedge_rec_beta_wglue</title>
<path fill="none" stroke="black" d="M544.7,-604.47C555.46,-601.7 566.54,-598.91 577,-596.38 760.89,-551.85 978.37,-504.47 1090.59,-480.41"/>
<polygon fill="black" stroke="black" points="1091.42,-483.82 1100.46,-478.3 1089.95,-476.97 1091.42,-483.82"/>
</g>
<!-- Wedge_wedge_pr1_inr&#45;&gt;Wedge_wedge_inr -->
<g id="edge21" class="edge">
<title>Wedge_wedge_pr1_inr&#45;&gt;Wedge_wedge_inr</title>
<path fill="none" stroke="black" d="M481,-596.09C481,-520.59 481,-297.25 481,-218.91"/>
<polygon fill="black" stroke="black" points="484.5,-218.44 481,-208.44 477.5,-218.44 484.5,-218.44"/>
</g>
<!-- Wedge_wedge_pr1_inl -->
<g id="node12" class="node">
<title>Wedge_wedge_pr1_inl</title>
<g id="a_node12"><a xlink:href="Wedge.html#wedge_pr1_inl" xlink:title="wedge_pr1_inl">
<ellipse fill="#f070d1" stroke="black" cx="101" cy="-622.38" rx="77.2" ry="18"/>
<ellipse fill="none" stroke="black" cx="101" cy="-622.38" rx="81.19" ry="22"/>
<ellipse fill="none" stroke="black" cx="101" cy="-622.38" rx="85.19" ry="26"/>
<text text-anchor="middle" x="101" y="-618.68" font-family="Times,serif" font-size="14.00">wedge_pr1_inl</text>
</a>
</g>
</g>
<!-- Wedge_wedge_pr1_inl&#45;&gt;Wedge_wedge_pr1 -->
<g id="edge22" class="edge">
<title>Wedge_wedge_pr1_inl&#45;&gt;Wedge_wedge_pr1</title>
<path fill="none" stroke="black" d="M156.61,-602.44C247.81,-571.38 427.61,-510.15 513.76,-480.81"/>
<polygon fill="black" stroke="black" points="514.96,-484.1 523.3,-477.56 512.7,-477.47 514.96,-484.1"/>
</g>
<!-- Wedge_wedge_pr1_inl&#45;&gt;Wedge_wedge_inl -->
<g id="edge23" class="edge">
<title>Wedge_wedge_pr1_inl&#45;&gt;Wedge_wedge_inl</title>
<path fill="none" stroke="black" d="M110.3,-596.22C131.35,-540.78 185.96,-404.88 252,-302.38 272.83,-270.05 302.14,-236.9 322.48,-215.35"/>
<polygon fill="black" stroke="black" points="325.16,-217.61 329.53,-207.96 320.09,-212.78 325.16,-217.61"/>
</g>
<!-- Wedge_hasbinarycoproducts -->
<g id="node13" class="node">
<title>Wedge_hasbinarycoproducts</title>
<g id="a_node13"><a xlink:href="Wedge.html#hasbinarycoproducts" xlink:title="hasbinarycoproducts">
<ellipse fill="#f070d1" stroke="black" cx="346" cy="-463.38" rx="107.79" ry="18"/>
<ellipse fill="none" stroke="black" cx="346" cy="-463.38" rx="111.78" ry="22"/>
<ellipse fill="none" stroke="black" cx="346" cy="-463.38" rx="115.78" ry="26"/>
<text text-anchor="middle" x="346" y="-459.68" font-family="Times,serif" font-size="14.00">hasbinarycoproducts</text>
</a>
</g>
</g>
<!-- Wedge_wedge_up -->
<g id="node14" class="node">
<title>Wedge_wedge_up</title>
<g id="a_node14"><a xlink:href="Wedge.html#wedge_up" xlink:title="wedge_up">
<ellipse fill="#f070d1" stroke="black" cx="346" cy="-320.38" rx="57.39" ry="18"/>
<text text-anchor="middle" x="346" y="-316.68" font-family="Times,serif" font-size="14.00">wedge_up</text>
</a>
</g>
</g>
<!-- Wedge_hasbinarycoproducts&#45;&gt;Wedge_wedge_up -->
<g id="edge24" class="edge">
<title>Wedge_hasbinarycoproducts&#45;&gt;Wedge_wedge_up</title>
<path fill="none" stroke="black" d="M346,-437.17C346,-412.22 346,-374.14 346,-348.53"/>
<polygon fill="black" stroke="black" points="349.5,-348.4 346,-338.4 342.5,-348.4 349.5,-348.4"/>
</g>
<!-- Wedge_wedge_rec -->
<g id="node20" class="node">
<title>Wedge_wedge_rec</title>
<g id="a_node20"><a xlink:href="Wedge.html#wedge_rec" xlink:title="wedge_rec">
<ellipse fill="#f070d1" stroke="black" cx="607" cy="-320.38" rx="59.59" ry="18"/>
<text text-anchor="middle" x="607" y="-316.68" font-family="Times,serif" font-size="14.00">wedge_rec</text>
</a>
</g>
</g>
<!-- Wedge_hasbinarycoproducts&#45;&gt;Wedge_wedge_rec -->
<g id="edge25" class="edge">
<title>Wedge_hasbinarycoproducts&#45;&gt;Wedge_wedge_rec</title>
<path fill="none" stroke="black" d="M389.1,-439.1C439.59,-411.82 522.4,-367.09 570.07,-341.33"/>
<polygon fill="black" stroke="black" points="571.98,-344.28 579.11,-336.45 568.65,-338.12 571.98,-344.28"/>
</g>
<!-- Wedge_wedge_up&#45;&gt;Wedge_wedge_inr -->
<g id="edge26" class="edge">
<title>Wedge_wedge_up&#45;&gt;Wedge_wedge_inr</title>
<path fill="none" stroke="black" d="M363.1,-303.17C386.6,-280.88 429.05,-240.63 456.09,-215"/>
<polygon fill="black" stroke="black" points="458.77,-217.29 463.61,-207.86 453.95,-212.21 458.77,-217.29"/>
</g>
<!-- Wedge_wedge_up&#45;&gt;Wedge_wedge_inl -->
<g id="edge27" class="edge">
<title>Wedge_wedge_up&#45;&gt;Wedge_wedge_inl</title>
<path fill="none" stroke="black" d="M346,-302.12C346,-280.74 346,-244.07 346,-218.82"/>
<polygon fill="black" stroke="black" points="349.5,-218.78 346,-208.78 342.5,-218.78 349.5,-218.78"/>
</g>
<!-- Wedge_wedge_incl_beta_wglue -->
<g id="node15" class="node">
<title>Wedge_wedge_incl_beta_wglue</title>
<g id="a_node15"><a xlink:href="Wedge.html#wedge_incl_beta_wglue" xlink:title="wedge_incl_beta_wglue">
<ellipse fill="#f070d1" stroke="black" cx="1064" cy="-780.38" rx="118.88" ry="18"/>
<ellipse fill="none" stroke="black" cx="1064" cy="-780.38" rx="122.88" ry="22"/>
<ellipse fill="none" stroke="black" cx="1064" cy="-780.38" rx="126.88" ry="26"/>
<text text-anchor="middle" x="1064" y="-776.68" font-family="Times,serif" font-size="14.00">wedge_incl_beta_wglue</text>
</a>
</g>
</g>
<!-- Wedge_wedge_incl -->
<g id="node16" class="node">
<title>Wedge_wedge_incl</title>
<g id="a_node16"><a xlink:href="Wedge.html#wedge_incl" xlink:title="wedge_incl">
<ellipse fill="#f070d1" stroke="black" cx="648" cy="-622.38" rx="61.99" ry="18"/>
<text text-anchor="middle" x="648" y="-618.68" font-family="Times,serif" font-size="14.00">wedge_incl</text>
</a>
</g>
</g>
<!-- Wedge_wedge_incl_beta_wglue&#45;&gt;Wedge_wedge_incl -->
<g id="edge28" class="edge">
<title>Wedge_wedge_incl_beta_wglue&#45;&gt;Wedge_wedge_incl</title>
<path fill="none" stroke="black" d="M1004.84,-757.2C921.11,-725.8 769.83,-669.07 693.97,-640.62"/>
<polygon fill="black" stroke="black" points="694.82,-637.2 684.22,-636.97 692.36,-643.75 694.82,-637.2"/>
</g>
<!-- Wedge_wedge_incl_beta_wglue&#45;&gt;Wedge_wedge_rec_beta_wglue -->
<g id="edge29" class="edge">
<title>Wedge_wedge_incl_beta_wglue&#45;&gt;Wedge_wedge_rec_beta_wglue</title>
<path fill="none" stroke="black" d="M1156.93,-762.51C1265.08,-740.77 1433.68,-699.6 1471,-648.38 1536.49,-558.51 1359.48,-504.1 1248.34,-479.69"/>
<polygon fill="black" stroke="black" points="1248.98,-476.24 1238.47,-477.56 1247.51,-483.09 1248.98,-476.24"/>
</g>
<!-- Wedge_wedge_incl&#45;&gt;Wedge_wedge_pr2 -->
<g id="edge30" class="edge">
<title>Wedge_wedge_incl&#45;&gt;Wedge_wedge_pr2</title>
<path fill="none" stroke="black" d="M653.99,-604.28C663.54,-577.03 682.28,-523.53 693.62,-491.17"/>
<polygon fill="black" stroke="black" points="697.01,-492.06 697.02,-481.46 690.41,-489.74 697.01,-492.06"/>
</g>
<!-- Wedge_wedge_incl&#45;&gt;Wedge_wedge_pr1 -->
<g id="edge31" class="edge">
<title>Wedge_wedge_incl&#45;&gt;Wedge_wedge_pr1</title>
<path fill="none" stroke="black" d="M638.8,-604.58C623.81,-577.22 594.03,-522.85 576.28,-490.44"/>
<polygon fill="black" stroke="black" points="579.27,-488.63 571.4,-481.54 573.13,-491.99 579.27,-488.63"/>
</g>
<!-- Wedge_wedge_pr2&#45;&gt;Wedge_wedge_rec -->
<g id="edge32" class="edge">
<title>Wedge_wedge_pr2&#45;&gt;Wedge_wedge_rec</title>
<path fill="none" stroke="black" d="M691.61,-445.65C674.87,-421.06 643.49,-374.97 624.01,-346.36"/>
<polygon fill="black" stroke="black" points="626.9,-344.38 618.37,-338.09 621.11,-348.32 626.9,-344.38"/>
</g>
<!-- Wedge_wedge_pr1&#45;&gt;Wedge_wedge_rec -->
<g id="edge33" class="edge">
<title>Wedge_wedge_pr1&#45;&gt;Wedge_wedge_rec</title>
<path fill="none" stroke="black" d="M567.43,-445.37C575.13,-421.24 589.31,-376.81 598.44,-348.2"/>
<polygon fill="black" stroke="black" points="601.85,-349.04 601.55,-338.45 595.18,-346.91 601.85,-349.04"/>
</g>
<!-- Wedge_wedge_rec_beta_wglue&#45;&gt;Wedge_wedge_rec -->
<g id="edge34" class="edge">
<title>Wedge_wedge_rec_beta_wglue&#45;&gt;Wedge_wedge_rec</title>
<path fill="none" stroke="black" d="M1107.76,-447.69C998.99,-420.26 766.49,-361.61 661.02,-335.01"/>
<polygon fill="black" stroke="black" points="661.77,-331.59 651.22,-332.53 660.06,-338.37 661.77,-331.59"/>
</g>
<!-- Wedge_wedge_rec_beta_wglue&#45;&gt;Wedge_wglue -->
<g id="edge35" class="edge">
<title>Wedge_wedge_rec_beta_wglue&#45;&gt;Wedge_wglue</title>
<path fill="none" stroke="black" d="M1140.41,-445.63C1067.59,-397.96 859.45,-261.72 781.74,-210.85"/>
<polygon fill="black" stroke="black" points="783.63,-207.9 773.35,-205.36 779.8,-213.76 783.63,-207.9"/>
</g>
<!-- Wedge_wedge_rec_ -->
<g id="node21" class="node">
<title>Wedge_wedge_rec_</title>
<g id="a_node21"><a xlink:href="Wedge.html#wedge_rec'" xlink:title="wedge_rec&#39;">
<ellipse fill="#f070d1" stroke="black" cx="620" cy="-190.38" rx="62.29" ry="18"/>
<text text-anchor="middle" x="620" y="-186.68" font-family="Times,serif" font-size="14.00">wedge_rec&#39;</text>
</a>
</g>
</g>
<!-- Wedge_wedge_rec&#45;&gt;Wedge_wedge_rec_ -->
<g id="edge36" class="edge">
<title>Wedge_wedge_rec&#45;&gt;Wedge_wedge_rec_</title>
<path fill="none" stroke="black" d="M608.73,-302.38C610.9,-280.96 614.67,-243.88 617.24,-218.52"/>
<polygon fill="black" stroke="black" points="620.74,-218.75 618.27,-208.45 613.77,-218.04 620.74,-218.75"/>
</g>
<!-- Wedge_Wedge -->
<g id="node25" class="node">
<title>Wedge_Wedge</title>
<g id="a_node25"><a xlink:href="Wedge.html#Wedge" xlink:title="Wedge">
<ellipse fill="#f070d1" stroke="black" cx="550" cy="-61.38" rx="42.49" ry="18"/>
<text text-anchor="middle" x="550" y="-57.68" font-family="Times,serif" font-size="14.00">Wedge</text>
</a>
</g>
</g>
<!-- Wedge_wedge_rec_&#45;&gt;Wedge_Wedge -->
<g id="edge37" class="edge">
<title>Wedge_wedge_rec_&#45;&gt;Wedge_Wedge</title>
<path fill="none" stroke="black" d="M610.7,-172.52C598.83,-150.98 578.17,-113.48 564.29,-88.3"/>
<polygon fill="black" stroke="black" points="567.23,-86.38 559.33,-79.32 561.1,-89.76 567.23,-86.38"/>
</g>
<!-- Wedge_wglue&#45;&gt;Wedge_Wedge -->
<g id="edge38" class="edge">
<title>Wedge_wglue&#45;&gt;Wedge_Wedge</title>
<path fill="none" stroke="black" d="M730,-175.55C694.08,-152.97 622.74,-108.11 581.47,-82.17"/>
<polygon fill="black" stroke="black" points="583.23,-79.14 572.9,-76.78 579.51,-85.07 583.23,-79.14"/>
</g>
<!-- Wedge_wedge_inr&#45;&gt;Wedge_Wedge -->
<g id="edge39" class="edge">
<title>Wedge_wedge_inr&#45;&gt;Wedge_Wedge</title>
<path fill="none" stroke="black" d="M490.16,-172.52C501.86,-150.98 522.23,-113.48 535.92,-88.3"/>
<polygon fill="black" stroke="black" points="539.1,-89.77 540.8,-79.32 532.95,-86.43 539.1,-89.77"/>
</g>
<!-- Wedge_wedge_inl&#45;&gt;Wedge_Wedge -->
<g id="edge40" class="edge">
<title>Wedge_wedge_inl&#45;&gt;Wedge_Wedge</title>
<path fill="none" stroke="black" d="M370.61,-174.06C407.65,-151 477.73,-107.37 518.47,-82.01"/>
<polygon fill="black" stroke="black" points="520.55,-84.84 527.19,-76.58 516.85,-78.9 520.55,-84.84"/>
</g>
</g>
</svg>
