<?xml version="1.0" encoding="UTF-8" standalone="no"?>
<!DOCTYPE svg PUBLIC "-//W3C//DTD SVG 1.1//EN"
 "http://www.w3.org/Graphics/SVG/1.1/DTD/svg11.dtd">
<!-- Generated by graphviz version 2.43.0 (0)
 -->
<!-- Title: HoTT_Classes_theory_naturals Pages: 1 -->
<svg width="1599pt" height="804pt"
 viewBox="0.00 0.00 1599.00 803.50" xmlns="http://www.w3.org/2000/svg" xmlns:xlink="http://www.w3.org/1999/xlink">
<g id="graph0" class="graph" transform="scale(1 1) rotate(0) translate(4 799.5)">
<title>HoTT_Classes_theory_naturals</title>
<polygon fill="white" stroke="transparent" points="-4,4 -4,-799.5 1595,-799.5 1595,4 -4,4"/>
<g id="clust1" class="cluster">
<title>cluster_naturals</title>
<polygon fill="#ffffc3" stroke="black" points="8,-9.43 8,-786.07 1583,-786.07 1583,-9.43 8,-9.43"/>
<text text-anchor="middle" x="46" y="-770.87" font-family="Times,serif" font-size="14.00">naturals</text>
</g>
<!-- naturals_negate_to_ring -->
<g id="node1" class="node">
<title>naturals_negate_to_ring</title>
<g id="a_node1"><a xlink:href="naturals.html#negate_to_ring" xlink:title="negate_to_ring">
<ellipse fill="#f070d1" stroke="black" cx="1483" cy="-718.43" rx="79.11" ry="18"/>
<ellipse fill="none" stroke="black" cx="1483" cy="-718.43" rx="83.1" ry="22"/>
<ellipse fill="none" stroke="black" cx="1483" cy="-718.43" rx="87.09" ry="26"/>
<text text-anchor="middle" x="1483" y="-714.73" font-family="Times,serif" font-size="14.00">negate_to_ring</text>
</a>
</g>
</g>
<!-- naturals_to_ring_zero_sum -->
<g id="node2" class="node">
<title>naturals_to_ring_zero_sum</title>
<g id="a_node2"><a xlink:href="naturals.html#to_ring_zero_sum" xlink:title="to_ring_zero_sum">
<ellipse fill="#f070d1" stroke="black" cx="1483" cy="-615.43" rx="91.78" ry="18"/>
<text text-anchor="middle" x="1483" y="-611.73" font-family="Times,serif" font-size="14.00">to_ring_zero_sum</text>
</a>
</g>
</g>
<!-- naturals_negate_to_ring&#45;&gt;naturals_to_ring_zero_sum -->
<g id="edge1" class="edge">
<title>naturals_negate_to_ring&#45;&gt;naturals_to_ring_zero_sum</title>
<path fill="none" stroke="black" d="M1483,-692.2C1483,-677.44 1483,-658.79 1483,-643.69"/>
<polygon fill="black" stroke="black" points="1486.5,-643.43 1483,-633.43 1479.5,-643.43 1486.5,-643.43"/>
</g>
<!-- naturals_zero_sum -->
<g id="node7" class="node">
<title>naturals_zero_sum</title>
<g id="a_node7"><a xlink:href="naturals.html#zero_sum" xlink:title="zero_sum">
<ellipse fill="#f070d1" stroke="black" cx="1488" cy="-511.43" rx="54.69" ry="18"/>
<text text-anchor="middle" x="1488" y="-507.73" font-family="Times,serif" font-size="14.00">zero_sum</text>
</a>
</g>
</g>
<!-- naturals_to_ring_zero_sum&#45;&gt;naturals_zero_sum -->
<g id="edge2" class="edge">
<title>naturals_to_ring_zero_sum&#45;&gt;naturals_zero_sum</title>
<path fill="none" stroke="black" d="M1483.85,-597.13C1484.62,-581.35 1485.78,-557.79 1486.67,-539.52"/>
<polygon fill="black" stroke="black" points="1490.17,-539.63 1487.16,-529.48 1483.18,-539.29 1490.17,-539.63"/>
</g>
<!-- naturals_slow_naturals_dec -->
<g id="node3" class="node">
<title>naturals_slow_naturals_dec</title>
<g id="a_node3"><a xlink:href="naturals.html#slow_naturals_dec" xlink:title="slow_naturals_dec">
<ellipse fill="#f070d1" stroke="black" cx="1075" cy="-407.43" rx="94.79" ry="18"/>
<ellipse fill="none" stroke="black" cx="1075" cy="-407.43" rx="98.79" ry="22"/>
<ellipse fill="none" stroke="black" cx="1075" cy="-407.43" rx="102.78" ry="26"/>
<text text-anchor="middle" x="1075" y="-403.73" font-family="Times,serif" font-size="14.00">slow_naturals_dec</text>
</a>
</g>
</g>
<!-- naturals_nat_to_nat_equiv -->
<g id="node18" class="node">
<title>naturals_nat_to_nat_equiv</title>
<g id="a_node18"><a xlink:href="naturals.html#nat_to_nat_equiv" xlink:title="nat_to_nat_equiv">
<ellipse fill="#f070d1" stroke="black" cx="876" cy="-313.43" rx="89.08" ry="18"/>
<text text-anchor="middle" x="876" y="-309.73" font-family="Times,serif" font-size="14.00">nat_to_nat_equiv</text>
</a>
</g>
</g>
<!-- naturals_slow_naturals_dec&#45;&gt;naturals_nat_to_nat_equiv -->
<g id="edge3" class="edge">
<title>naturals_slow_naturals_dec&#45;&gt;naturals_nat_to_nat_equiv</title>
<path fill="none" stroke="black" d="M1027.08,-384.27C994.35,-369.14 951.34,-349.26 919.58,-334.57"/>
<polygon fill="black" stroke="black" points="920.65,-331.22 910.11,-330.2 917.71,-337.57 920.65,-331.22"/>
</g>
<!-- naturals_nat_1_plus_ne_0 -->
<g id="node4" class="node">
<title>naturals_nat_1_plus_ne_0</title>
<g id="a_node4"><a xlink:href="naturals.html#nat_1_plus_ne_0" xlink:title="nat_1_plus_ne_0">
<ellipse fill="#f070d1" stroke="black" cx="1280" cy="-615.43" rx="85.6" ry="18"/>
<ellipse fill="none" stroke="black" cx="1280" cy="-615.43" rx="89.59" ry="22"/>
<ellipse fill="none" stroke="black" cx="1280" cy="-615.43" rx="93.59" ry="26"/>
<text text-anchor="middle" x="1280" y="-611.73" font-family="Times,serif" font-size="14.00">nat_1_plus_ne_0</text>
</a>
</g>
</g>
<!-- naturals_nat_1_plus_ne_0&#45;&gt;naturals_zero_sum -->
<g id="edge4" class="edge">
<title>naturals_nat_1_plus_ne_0&#45;&gt;naturals_zero_sum</title>
<path fill="none" stroke="black" d="M1324.62,-592.55C1361.88,-574.28 1414.42,-548.51 1449.77,-531.17"/>
<polygon fill="black" stroke="black" points="1451.38,-534.29 1458.81,-526.74 1448.3,-528 1451.38,-534.29"/>
</g>
<!-- naturals_nat_nontrivial -->
<g id="node9" class="node">
<title>naturals_nat_nontrivial</title>
<g id="a_node9"><a xlink:href="naturals.html#nat_nontrivial" xlink:title="nat_nontrivial">
<ellipse fill="#f070d1" stroke="black" cx="924" cy="-511.43" rx="75.29" ry="18"/>
<text text-anchor="middle" x="924" y="-507.73" font-family="Times,serif" font-size="14.00">nat_nontrivial</text>
</a>
</g>
</g>
<!-- naturals_nat_1_plus_ne_0&#45;&gt;naturals_nat_nontrivial -->
<g id="edge5" class="edge">
<title>naturals_nat_1_plus_ne_0&#45;&gt;naturals_nat_nontrivial</title>
<path fill="none" stroke="black" d="M1215.89,-596.39C1160.95,-580.89 1079.71,-557.87 1009,-537.43 999.36,-534.64 989.11,-531.65 979.19,-528.74"/>
<polygon fill="black" stroke="black" points="979.99,-525.33 969.41,-525.87 978.02,-532.05 979.99,-525.33"/>
</g>
<!-- naturals_ZeroProduct_instance_0 -->
<g id="node5" class="node">
<title>naturals_ZeroProduct_instance_0</title>
<g id="a_node5"><a xlink:href="naturals.html#ZeroProduct_instance_0" xlink:title="ZeroProduct_instance_0">
<ellipse fill="#f070d1" stroke="black" cx="1285" cy="-511.43" rx="122.37" ry="18"/>
<ellipse fill="none" stroke="black" cx="1285" cy="-511.43" rx="126.37" ry="22"/>
<ellipse fill="none" stroke="black" cx="1285" cy="-511.43" rx="130.38" ry="26"/>
<text text-anchor="middle" x="1285" y="-507.73" font-family="Times,serif" font-size="14.00">ZeroProduct_instance_0</text>
</a>
</g>
</g>
<!-- naturals_from_nat_stmt -->
<g id="node17" class="node">
<title>naturals_from_nat_stmt</title>
<g id="a_node17"><a xlink:href="naturals.html#from_nat_stmt" xlink:title="from_nat_stmt">
<ellipse fill="#f070d1" stroke="black" cx="876" cy="-407.43" rx="77.99" ry="18"/>
<text text-anchor="middle" x="876" y="-403.73" font-family="Times,serif" font-size="14.00">from_nat_stmt</text>
</a>
</g>
</g>
<!-- naturals_ZeroProduct_instance_0&#45;&gt;naturals_from_nat_stmt -->
<g id="edge6" class="edge">
<title>naturals_ZeroProduct_instance_0&#45;&gt;naturals_from_nat_stmt</title>
<path fill="none" stroke="black" d="M1201.01,-491.44C1135.88,-476.45 1043.46,-454.6 963,-433.43 952.86,-430.76 942.11,-427.79 931.74,-424.85"/>
<polygon fill="black" stroke="black" points="932.52,-421.43 921.95,-422.05 930.6,-428.16 932.52,-421.43"/>
</g>
<!-- naturals_one_sum -->
<g id="node6" class="node">
<title>naturals_one_sum</title>
<g id="a_node6"><a xlink:href="naturals.html#one_sum" xlink:title="one_sum">
<ellipse fill="#f070d1" stroke="black" cx="1077" cy="-511.43" rx="51.21" ry="18"/>
<ellipse fill="none" stroke="black" cx="1077" cy="-511.43" rx="55.2" ry="22"/>
<ellipse fill="none" stroke="black" cx="1077" cy="-511.43" rx="59.19" ry="26"/>
<text text-anchor="middle" x="1077" y="-507.73" font-family="Times,serif" font-size="14.00">one_sum</text>
</a>
</g>
</g>
<!-- naturals_one_sum&#45;&gt;naturals_from_nat_stmt -->
<g id="edge7" class="edge">
<title>naturals_one_sum&#45;&gt;naturals_from_nat_stmt</title>
<path fill="none" stroke="black" d="M1039.19,-491.24C1004.01,-473.39 951.77,-446.88 915.92,-428.69"/>
<polygon fill="black" stroke="black" points="917.23,-425.43 906.73,-424.02 914.06,-431.67 917.23,-425.43"/>
</g>
<!-- naturals_zero_sum&#45;&gt;naturals_from_nat_stmt -->
<g id="edge8" class="edge">
<title>naturals_zero_sum&#45;&gt;naturals_from_nat_stmt</title>
<path fill="none" stroke="black" d="M1456.95,-496.43C1446.65,-492.29 1435,-488.15 1424,-485.43 1223.84,-435.94 1165.24,-473.6 963,-433.43 952.02,-431.25 940.42,-428.35 929.4,-425.29"/>
<polygon fill="black" stroke="black" points="930.04,-421.84 919.46,-422.46 928.12,-428.57 930.04,-421.84"/>
</g>
<!-- naturals_nat_nontrivial_apart -->
<g id="node8" class="node">
<title>naturals_nat_nontrivial_apart</title>
<g id="a_node8"><a xlink:href="naturals.html#nat_nontrivial_apart" xlink:title="nat_nontrivial_apart">
<ellipse fill="#f070d1" stroke="black" cx="1056" cy="-615.43" rx="104.77" ry="18"/>
<ellipse fill="none" stroke="black" cx="1056" cy="-615.43" rx="108.78" ry="22"/>
<ellipse fill="none" stroke="black" cx="1056" cy="-615.43" rx="112.78" ry="26"/>
<text text-anchor="middle" x="1056" y="-611.73" font-family="Times,serif" font-size="14.00">nat_nontrivial_apart</text>
</a>
</g>
</g>
<!-- naturals_nat_nontrivial_apart&#45;&gt;naturals_nat_nontrivial -->
<g id="edge9" class="edge">
<title>naturals_nat_nontrivial_apart&#45;&gt;naturals_nat_nontrivial</title>
<path fill="none" stroke="black" d="M1024.72,-590.26C1003.05,-573.51 974.39,-551.37 953.19,-534.98"/>
<polygon fill="black" stroke="black" points="955.23,-532.13 945.17,-528.79 950.95,-537.67 955.23,-532.13"/>
</g>
<!-- naturals_nat_nontrivial&#45;&gt;naturals_from_nat_stmt -->
<g id="edge10" class="edge">
<title>naturals_nat_nontrivial&#45;&gt;naturals_from_nat_stmt</title>
<path fill="none" stroke="black" d="M915.86,-493.13C908.33,-477.13 897.04,-453.13 888.39,-434.76"/>
<polygon fill="black" stroke="black" points="891.45,-433.03 884.02,-425.48 885.11,-436.01 891.45,-433.03"/>
</g>
<!-- naturals_RightCancellation_instance_1 -->
<g id="node10" class="node">
<title>naturals_RightCancellation_instance_1</title>
<g id="a_node10"><a xlink:href="naturals.html#RightCancellation_instance_1" xlink:title="RightCancellation_instance_1">
<ellipse fill="#f070d1" stroke="black" cx="770" cy="-615.43" rx="147.57" ry="18"/>
<ellipse fill="none" stroke="black" cx="770" cy="-615.43" rx="151.57" ry="22"/>
<ellipse fill="none" stroke="black" cx="770" cy="-615.43" rx="155.57" ry="26"/>
<text text-anchor="middle" x="770" y="-611.73" font-family="Times,serif" font-size="14.00">RightCancellation_instance_1</text>
</a>
</g>
</g>
<!-- naturals_LeftCancellation_instance_0 -->
<g id="node11" class="node">
<title>naturals_LeftCancellation_instance_0</title>
<g id="a_node11"><a xlink:href="naturals.html#LeftCancellation_instance_0" xlink:title="LeftCancellation_instance_0">
<ellipse fill="#f070d1" stroke="black" cx="690" cy="-511.43" rx="140.28" ry="18"/>
<text text-anchor="middle" x="690" y="-507.73" font-family="Times,serif" font-size="14.00">LeftCancellation_instance_0</text>
</a>
</g>
</g>
<!-- naturals_RightCancellation_instance_1&#45;&gt;naturals_LeftCancellation_instance_0 -->
<g id="edge11" class="edge">
<title>naturals_RightCancellation_instance_1&#45;&gt;naturals_LeftCancellation_instance_0</title>
<path fill="none" stroke="black" d="M750.43,-589.48C738.1,-573.75 722.22,-553.51 709.84,-537.72"/>
<polygon fill="black" stroke="black" points="712.29,-535.17 703.36,-529.46 706.78,-539.49 712.29,-535.17"/>
</g>
<!-- naturals_LeftCancellation_instance_0&#45;&gt;naturals_from_nat_stmt -->
<g id="edge12" class="edge">
<title>naturals_LeftCancellation_instance_0&#45;&gt;naturals_from_nat_stmt</title>
<path fill="none" stroke="black" d="M720.3,-493.81C752.52,-476.14 803.54,-448.16 838.33,-429.09"/>
<polygon fill="black" stroke="black" points="840.16,-432.07 847.24,-424.2 836.79,-425.94 840.16,-432.07"/>
</g>
<!-- naturals_RightCancellation_instance_0 -->
<g id="node12" class="node">
<title>naturals_RightCancellation_instance_0</title>
<g id="a_node12"><a xlink:href="naturals.html#RightCancellation_instance_0" xlink:title="RightCancellation_instance_0">
<ellipse fill="#f070d1" stroke="black" cx="441" cy="-615.43" rx="147.57" ry="18"/>
<ellipse fill="none" stroke="black" cx="441" cy="-615.43" rx="151.57" ry="22"/>
<ellipse fill="none" stroke="black" cx="441" cy="-615.43" rx="155.57" ry="26"/>
<text text-anchor="middle" x="441" y="-611.73" font-family="Times,serif" font-size="14.00">RightCancellation_instance_0</text>
</a>
</g>
</g>
<!-- naturals_nat_plus_cancel_l -->
<g id="node13" class="node">
<title>naturals_nat_plus_cancel_l</title>
<g id="a_node13"><a xlink:href="naturals.html#nat_plus_cancel_l" xlink:title="nat_plus_cancel_l">
<ellipse fill="#f070d1" stroke="black" cx="441" cy="-511.43" rx="90.98" ry="18"/>
<text text-anchor="middle" x="441" y="-507.73" font-family="Times,serif" font-size="14.00">nat_plus_cancel_l</text>
</a>
</g>
</g>
<!-- naturals_RightCancellation_instance_0&#45;&gt;naturals_nat_plus_cancel_l -->
<g id="edge13" class="edge">
<title>naturals_RightCancellation_instance_0&#45;&gt;naturals_nat_plus_cancel_l</title>
<path fill="none" stroke="black" d="M441,-589.21C441,-574.31 441,-555.41 441,-540.1"/>
<polygon fill="black" stroke="black" points="444.5,-539.69 441,-529.69 437.5,-539.69 444.5,-539.69"/>
</g>
<!-- naturals_nat_plus_cancel_l&#45;&gt;naturals_from_nat_stmt -->
<g id="edge14" class="edge">
<title>naturals_nat_plus_cancel_l&#45;&gt;naturals_from_nat_stmt</title>
<path fill="none" stroke="black" d="M494.1,-496.75C509.23,-492.96 525.74,-488.93 541,-485.43 650.76,-460.21 679.7,-460.55 789,-433.43 799.29,-430.88 810.19,-427.93 820.68,-424.98"/>
<polygon fill="black" stroke="black" points="821.91,-428.27 830.56,-422.16 819.99,-421.54 821.91,-428.27"/>
</g>
<!-- naturals_Biinduction_instance_0 -->
<g id="node14" class="node">
<title>naturals_Biinduction_instance_0</title>
<g id="a_node14"><a xlink:href="naturals.html#Biinduction_instance_0" xlink:title="Biinduction_instance_0">
<ellipse fill="#f070d1" stroke="black" cx="142" cy="-615.43" rx="117.77" ry="18"/>
<ellipse fill="none" stroke="black" cx="142" cy="-615.43" rx="121.77" ry="22"/>
<ellipse fill="none" stroke="black" cx="142" cy="-615.43" rx="125.78" ry="26"/>
<text text-anchor="middle" x="142" y="-611.73" font-family="Times,serif" font-size="14.00">Biinduction_instance_0</text>
</a>
</g>
</g>
<!-- naturals_induction -->
<g id="node16" class="node">
<title>naturals_induction</title>
<g id="a_node16"><a xlink:href="naturals.html#induction" xlink:title="induction">
<ellipse fill="#f070d1" stroke="black" cx="278" cy="-511.43" rx="53.89" ry="18"/>
<text text-anchor="middle" x="278" y="-507.73" font-family="Times,serif" font-size="14.00">induction</text>
</a>
</g>
</g>
<!-- naturals_Biinduction_instance_0&#45;&gt;naturals_induction -->
<g id="edge15" class="edge">
<title>naturals_Biinduction_instance_0&#45;&gt;naturals_induction</title>
<path fill="none" stroke="black" d="M174.23,-590.26C196.84,-573.3 226.82,-550.82 248.74,-534.38"/>
<polygon fill="black" stroke="black" points="251.1,-536.98 257,-528.18 246.9,-531.38 251.1,-536.98"/>
</g>
<!-- naturals_case -->
<g id="node15" class="node">
<title>naturals_case</title>
<g id="a_node15"><a xlink:href="naturals.html#case" xlink:title="case">
<ellipse fill="#f070d1" stroke="black" cx="167" cy="-511.43" rx="31.36" ry="18"/>
<ellipse fill="none" stroke="black" cx="167" cy="-511.43" rx="35.38" ry="22"/>
<ellipse fill="none" stroke="black" cx="167" cy="-511.43" rx="39.4" ry="26"/>
<text text-anchor="middle" x="167" y="-507.73" font-family="Times,serif" font-size="14.00">case</text>
</a>
</g>
</g>
<!-- naturals_case&#45;&gt;naturals_from_nat_stmt -->
<g id="edge16" class="edge">
<title>naturals_case&#45;&gt;naturals_from_nat_stmt</title>
<path fill="none" stroke="black" d="M195.43,-493.33C201.69,-490.22 208.42,-487.36 215,-485.43 460.8,-413.34 537.22,-480.57 789,-433.43 800.23,-431.33 812.1,-428.4 823.34,-425.29"/>
<polygon fill="black" stroke="black" points="824.37,-428.64 833.02,-422.53 822.44,-421.91 824.37,-428.64"/>
</g>
<!-- naturals_induction&#45;&gt;naturals_from_nat_stmt -->
<g id="edge17" class="edge">
<title>naturals_induction&#45;&gt;naturals_from_nat_stmt</title>
<path fill="none" stroke="black" d="M308.55,-496.44C318.69,-492.3 330.16,-488.16 341,-485.43 535.38,-436.49 592.46,-472.8 789,-433.43 799.97,-431.23 811.57,-428.32 822.6,-425.27"/>
<polygon fill="black" stroke="black" points="823.87,-428.54 832.53,-422.44 821.96,-421.81 823.87,-428.54"/>
</g>
<!-- naturals_from_nat_stmt&#45;&gt;naturals_nat_to_nat_equiv -->
<g id="edge18" class="edge">
<title>naturals_from_nat_stmt&#45;&gt;naturals_nat_to_nat_equiv</title>
<path fill="none" stroke="black" d="M876,-389.12C876,-375.89 876,-357.38 876,-342.09"/>
<polygon fill="black" stroke="black" points="879.5,-341.66 876,-331.66 872.5,-341.66 879.5,-341.66"/>
</g>
<!-- naturals_to_semiring_involutive -->
<g id="node28" class="node">
<title>naturals_to_semiring_involutive</title>
<g id="a_node28"><a xlink:href="naturals.html#to_semiring_involutive" xlink:title="to_semiring_involutive">
<ellipse fill="#f070d1" stroke="black" cx="864" cy="-219.43" rx="115.88" ry="18"/>
<text text-anchor="middle" x="864" y="-215.73" font-family="Times,serif" font-size="14.00">to_semiring_involutive</text>
</a>
</g>
</g>
<!-- naturals_nat_to_nat_equiv&#45;&gt;naturals_to_semiring_involutive -->
<g id="edge19" class="edge">
<title>naturals_nat_to_nat_equiv&#45;&gt;naturals_to_semiring_involutive</title>
<path fill="none" stroke="black" d="M873.74,-295.12C872,-281.76 869.55,-263.02 867.55,-247.65"/>
<polygon fill="black" stroke="black" points="871.01,-247.12 866.25,-237.66 864.07,-248.02 871.01,-247.12"/>
</g>
<!-- naturals_retract_is_nat -->
<g id="node19" class="node">
<title>naturals_retract_is_nat</title>
<g id="a_node19"><a xlink:href="naturals.html#retract_is_nat" xlink:title="retract_is_nat">
<ellipse fill="#f070d1" stroke="black" cx="1080" cy="-219.43" rx="74.96" ry="18"/>
<ellipse fill="none" stroke="black" cx="1080" cy="-219.43" rx="78.98" ry="22"/>
<ellipse fill="none" stroke="black" cx="1080" cy="-219.43" rx="82.99" ry="26"/>
<text text-anchor="middle" x="1080" y="-215.73" font-family="Times,serif" font-size="14.00">retract_is_nat</text>
</a>
</g>
</g>
<!-- naturals_same_morphism -->
<g id="node20" class="node">
<title>naturals_same_morphism</title>
<g id="a_node20"><a xlink:href="naturals.html#same_morphism" xlink:title="same_morphism">
<ellipse fill="#f070d1" stroke="black" cx="1080" cy="-124.43" rx="86.38" ry="18"/>
<text text-anchor="middle" x="1080" y="-120.73" font-family="Times,serif" font-size="14.00">same_morphism</text>
</a>
</g>
</g>
<!-- naturals_retract_is_nat&#45;&gt;naturals_same_morphism -->
<g id="edge20" class="edge">
<title>naturals_retract_is_nat&#45;&gt;naturals_same_morphism</title>
<path fill="none" stroke="black" d="M1080,-193.02C1080,-180.49 1080,-165.39 1080,-152.63"/>
<polygon fill="black" stroke="black" points="1083.5,-152.58 1080,-142.58 1076.5,-152.58 1083.5,-152.58"/>
</g>
<!-- naturals_retract_is_nat_to_sr -->
<g id="node22" class="node">
<title>naturals_retract_is_nat_to_sr</title>
<g id="a_node22"><a xlink:href="naturals.html#retract_is_nat_to_sr" xlink:title="retract_is_nat_to_sr">
<ellipse fill="#f070d1" stroke="black" cx="874" cy="-124.43" rx="102.08" ry="18"/>
<text text-anchor="middle" x="874" y="-120.73" font-family="Times,serif" font-size="14.00">retract_is_nat_to_sr</text>
</a>
</g>
</g>
<!-- naturals_retract_is_nat&#45;&gt;naturals_retract_is_nat_to_sr -->
<g id="edge21" class="edge">
<title>naturals_retract_is_nat&#45;&gt;naturals_retract_is_nat_to_sr</title>
<path fill="none" stroke="black" d="M1034.03,-197.67C999.56,-182.11 952.65,-160.93 918.53,-145.53"/>
<polygon fill="black" stroke="black" points="919.83,-142.28 909.27,-141.35 916.95,-148.66 919.83,-142.28"/>
</g>
<!-- naturals_to_semiring_unique -->
<g id="node30" class="node">
<title>naturals_to_semiring_unique</title>
<g id="a_node30"><a xlink:href="naturals.html#to_semiring_unique" xlink:title="to_semiring_unique">
<ellipse fill="#f070d1" stroke="black" cx="857" cy="-40.43" rx="101.28" ry="18"/>
<text text-anchor="middle" x="857" y="-36.73" font-family="Times,serif" font-size="14.00">to_semiring_unique</text>
</a>
</g>
</g>
<!-- naturals_same_morphism&#45;&gt;naturals_to_semiring_unique -->
<g id="edge22" class="edge">
<title>naturals_same_morphism&#45;&gt;naturals_to_semiring_unique</title>
<path fill="none" stroke="black" d="M1039.36,-108.48C1002.57,-94.96 948.2,-74.96 908.41,-60.33"/>
<polygon fill="black" stroke="black" points="909.47,-56.99 898.88,-56.83 907.05,-63.56 909.47,-56.99"/>
</g>
<!-- naturals_IsSemiRingPreserving_instance_0 -->
<g id="node21" class="node">
<title>naturals_IsSemiRingPreserving_instance_0</title>
<g id="a_node21"><a xlink:href="naturals.html#IsSemiRingPreserving_instance_0" xlink:title="IsSemiRingPreserving_instance_0">
<ellipse fill="#f070d1" stroke="black" cx="697" cy="-718.43" rx="168.18" ry="18"/>
<ellipse fill="none" stroke="black" cx="697" cy="-718.43" rx="172.17" ry="22"/>
<ellipse fill="none" stroke="black" cx="697" cy="-718.43" rx="176.17" ry="26"/>
<text text-anchor="middle" x="697" y="-714.73" font-family="Times,serif" font-size="14.00">IsSemiRingPreserving_instance_0</text>
</a>
</g>
</g>
<!-- naturals_naturals_to_naturals_injective -->
<g id="node23" class="node">
<title>naturals_naturals_to_naturals_injective</title>
<g id="a_node23"><a xlink:href="naturals.html#naturals_to_naturals_injective" xlink:title="naturals_to_naturals_injective">
<ellipse fill="#f070d1" stroke="black" cx="623" cy="-407.43" rx="149.47" ry="18"/>
<ellipse fill="none" stroke="black" cx="623" cy="-407.43" rx="153.47" ry="22"/>
<ellipse fill="none" stroke="black" cx="623" cy="-407.43" rx="157.47" ry="26"/>
<text text-anchor="middle" x="623" y="-403.73" font-family="Times,serif" font-size="14.00">naturals_to_naturals_injective</text>
</a>
</g>
</g>
<!-- naturals_to_semiring_injective -->
<g id="node24" class="node">
<title>naturals_to_semiring_injective</title>
<g id="a_node24"><a xlink:href="naturals.html#to_semiring_injective" xlink:title="to_semiring_injective">
<ellipse fill="#f070d1" stroke="black" cx="629" cy="-313.43" rx="109.38" ry="18"/>
<text text-anchor="middle" x="629" y="-309.73" font-family="Times,serif" font-size="14.00">to_semiring_injective</text>
</a>
</g>
</g>
<!-- naturals_naturals_to_naturals_injective&#45;&gt;naturals_to_semiring_injective -->
<g id="edge23" class="edge">
<title>naturals_naturals_to_naturals_injective&#45;&gt;naturals_to_semiring_injective</title>
<path fill="none" stroke="black" d="M624.64,-381.29C625.43,-369.11 626.39,-354.45 627.2,-341.97"/>
<polygon fill="black" stroke="black" points="630.72,-341.89 627.87,-331.68 623.73,-341.43 630.72,-341.89"/>
</g>
<!-- naturals_to_semiring_twice -->
<g id="node26" class="node">
<title>naturals_to_semiring_twice</title>
<g id="a_node26"><a xlink:href="naturals.html#to_semiring_twice" xlink:title="to_semiring_twice">
<ellipse fill="#f070d1" stroke="black" cx="635" cy="-219.43" rx="94.78" ry="18"/>
<text text-anchor="middle" x="635" y="-215.73" font-family="Times,serif" font-size="14.00">to_semiring_twice</text>
</a>
</g>
</g>
<!-- naturals_to_semiring_injective&#45;&gt;naturals_to_semiring_twice -->
<g id="edge24" class="edge">
<title>naturals_to_semiring_injective&#45;&gt;naturals_to_semiring_twice</title>
<path fill="none" stroke="black" d="M630.13,-295.12C631,-281.76 632.22,-263.02 633.22,-247.65"/>
<polygon fill="black" stroke="black" points="636.72,-247.86 633.88,-237.66 629.73,-247.41 636.72,-247.86"/>
</g>
<!-- naturals_to_semiring_self -->
<g id="node25" class="node">
<title>naturals_to_semiring_self</title>
<g id="a_node25"><a xlink:href="naturals.html#to_semiring_self" xlink:title="to_semiring_self">
<ellipse fill="#f070d1" stroke="black" cx="428" cy="-219.43" rx="86.39" ry="18"/>
<ellipse fill="none" stroke="black" cx="428" cy="-219.43" rx="90.39" ry="22"/>
<ellipse fill="none" stroke="black" cx="428" cy="-219.43" rx="94.38" ry="26"/>
<text text-anchor="middle" x="428" y="-215.73" font-family="Times,serif" font-size="14.00">to_semiring_self</text>
</a>
</g>
</g>
<!-- naturals_to_semiring_unique_alt -->
<g id="node29" class="node">
<title>naturals_to_semiring_unique_alt</title>
<g id="a_node29"><a xlink:href="naturals.html#to_semiring_unique_alt" xlink:title="to_semiring_unique_alt">
<ellipse fill="#f070d1" stroke="black" cx="635" cy="-124.43" rx="118.08" ry="18"/>
<text text-anchor="middle" x="635" y="-120.73" font-family="Times,serif" font-size="14.00">to_semiring_unique_alt</text>
</a>
</g>
</g>
<!-- naturals_to_semiring_self&#45;&gt;naturals_to_semiring_unique_alt -->
<g id="edge25" class="edge">
<title>naturals_to_semiring_self&#45;&gt;naturals_to_semiring_unique_alt</title>
<path fill="none" stroke="black" d="M475.75,-196.98C510.02,-181.58 555.91,-160.96 589.63,-145.81"/>
<polygon fill="black" stroke="black" points="591.11,-148.99 598.79,-141.7 588.24,-142.6 591.11,-148.99"/>
</g>
<!-- naturals_to_semiring_twice&#45;&gt;naturals_to_semiring_unique_alt -->
<g id="edge26" class="edge">
<title>naturals_to_semiring_twice&#45;&gt;naturals_to_semiring_unique_alt</title>
<path fill="none" stroke="black" d="M635,-201.37C635,-187.82 635,-168.61 635,-152.9"/>
<polygon fill="black" stroke="black" points="638.5,-152.69 635,-142.69 631.5,-152.69 638.5,-152.69"/>
</g>
<!-- naturals_morphisms_involutive -->
<g id="node27" class="node">
<title>naturals_morphisms_involutive</title>
<g id="a_node27"><a xlink:href="naturals.html#morphisms_involutive" xlink:title="morphisms_involutive">
<ellipse fill="#f070d1" stroke="black" cx="195" cy="-219.43" rx="112.38" ry="18"/>
<ellipse fill="none" stroke="black" cx="195" cy="-219.43" rx="116.38" ry="22"/>
<ellipse fill="none" stroke="black" cx="195" cy="-219.43" rx="120.38" ry="26"/>
<text text-anchor="middle" x="195" y="-215.73" font-family="Times,serif" font-size="14.00">morphisms_involutive</text>
</a>
</g>
</g>
<!-- naturals_morphisms_involutive&#45;&gt;naturals_to_semiring_unique_alt -->
<g id="edge27" class="edge">
<title>naturals_morphisms_involutive&#45;&gt;naturals_to_semiring_unique_alt</title>
<path fill="none" stroke="black" d="M278.8,-200.72C359.45,-183.67 480.37,-158.11 558.49,-141.6"/>
<polygon fill="black" stroke="black" points="559.68,-144.92 568.74,-139.43 558.24,-138.08 559.68,-144.92"/>
</g>
<!-- naturals_to_semiring_involutive&#45;&gt;naturals_to_semiring_unique_alt -->
<g id="edge28" class="edge">
<title>naturals_to_semiring_involutive&#45;&gt;naturals_to_semiring_unique_alt</title>
<path fill="none" stroke="black" d="M824.63,-202.44C785.72,-186.64 726.08,-162.42 684.09,-145.36"/>
<polygon fill="black" stroke="black" points="685.2,-142.04 674.62,-141.52 682.57,-148.52 685.2,-142.04"/>
</g>
<!-- naturals_to_semiring_unique_alt&#45;&gt;naturals_to_semiring_unique -->
<g id="edge29" class="edge">
<title>naturals_to_semiring_unique_alt&#45;&gt;naturals_to_semiring_unique</title>
<path fill="none" stroke="black" d="M677.8,-107.62C714.28,-94.15 766.79,-74.75 805.54,-60.44"/>
<polygon fill="black" stroke="black" points="806.91,-63.66 815.08,-56.91 804.49,-57.09 806.91,-63.66"/>
</g>
</g>
</svg>
