<?xml version="1.0" encoding="UTF-8" standalone="no"?>
<!DOCTYPE svg PUBLIC "-//W3C//DTD SVG 1.1//EN"
 "http://www.w3.org/Graphics/SVG/1.1/DTD/svg11.dtd">
<!-- Generated by graphviz version 2.43.0 (0)
 -->
<!-- Title: HoTT_Algebra_AbGroups_Biproduct Pages: 1 -->
<svg width="3649pt" height="1828pt"
 viewBox="0.00 0.00 3649.00 1828.50" xmlns="http://www.w3.org/2000/svg" xmlns:xlink="http://www.w3.org/1999/xlink">
<g id="graph0" class="graph" transform="scale(1 1) rotate(0) translate(4 1824.5)">
<title>HoTT_Algebra_AbGroups_Biproduct</title>
<polygon fill="white" stroke="transparent" points="-4,4 -4,-1824.5 3645,-1824.5 3645,4 -4,4"/>
<g id="clust1" class="cluster">
<title>cluster_Biproduct</title>
<polygon fill="#ffffc3" stroke="black" points="8,-34.11 8,-1786.39 3633,-1786.39 3633,-34.11 8,-34.11"/>
<text text-anchor="middle" x="51.5" y="-1771.19" font-family="Times,serif" font-size="14.00">Biproduct</text>
</g>
<!-- Biproduct_ab_cotriagonal_twist -->
<g id="node1" class="node">
<title>Biproduct_ab_cotriagonal_twist</title>
<g id="a_node1"><a xlink:href="Biproduct.html#ab_cotriagonal_twist" xlink:title="ab_cotriagonal_twist">
<ellipse fill="#f070d1" stroke="black" cx="1524" cy="-1543.11" rx="106.67" ry="18"/>
<ellipse fill="none" stroke="black" cx="1524" cy="-1543.11" rx="110.68" ry="22"/>
<ellipse fill="none" stroke="black" cx="1524" cy="-1543.11" rx="114.68" ry="26"/>
<text text-anchor="middle" x="1524" y="-1539.41" font-family="Times,serif" font-size="14.00">ab_cotriagonal_twist</text>
</a>
</g>
</g>
<!-- Biproduct_ab_cotriagonal -->
<g id="node3" class="node">
<title>Biproduct_ab_cotriagonal</title>
<g id="a_node3"><a xlink:href="Biproduct.html#ab_cotriagonal" xlink:title="ab_cotriagonal">
<ellipse fill="#f070d1" stroke="black" cx="963" cy="-1168.11" rx="78.79" ry="18"/>
<text text-anchor="middle" x="963" y="-1164.41" font-family="Times,serif" font-size="14.00">ab_cotriagonal</text>
</a>
</g>
</g>
<!-- Biproduct_ab_cotriagonal_twist&#45;&gt;Biproduct_ab_cotriagonal -->
<g id="edge1" class="edge">
<title>Biproduct_ab_cotriagonal_twist&#45;&gt;Biproduct_ab_cotriagonal</title>
<path fill="none" stroke="black" d="M1488.05,-1518.21C1385.7,-1450.16 1093.8,-1256.07 995.65,-1190.82"/>
<polygon fill="black" stroke="black" points="997.57,-1187.89 987.3,-1185.27 993.69,-1193.72 997.57,-1187.89"/>
</g>
<!-- Biproduct_ab_biprod_twist -->
<g id="node5" class="node">
<title>Biproduct_ab_biprod_twist</title>
<g id="a_node5"><a xlink:href="Biproduct.html#ab_biprod_twist" xlink:title="ab_biprod_twist">
<ellipse fill="#f070d1" stroke="black" cx="3541" cy="-1168.11" rx="84.49" ry="18"/>
<text text-anchor="middle" x="3541" y="-1164.41" font-family="Times,serif" font-size="14.00">ab_biprod_twist</text>
</a>
</g>
</g>
<!-- Biproduct_ab_cotriagonal_twist&#45;&gt;Biproduct_ab_biprod_twist -->
<g id="edge2" class="edge">
<title>Biproduct_ab_cotriagonal_twist&#45;&gt;Biproduct_ab_biprod_twist</title>
<path fill="none" stroke="black" d="M1617.59,-1527.93C1897.02,-1484.99 2749.13,-1349.79 3447,-1194.11 3458.59,-1191.52 3470.9,-1188.47 3482.67,-1185.41"/>
<polygon fill="black" stroke="black" points="3483.62,-1188.77 3492.4,-1182.84 3481.83,-1182.01 3483.62,-1188.77"/>
</g>
<!-- Biproduct_ab_triagonal_twist -->
<g id="node2" class="node">
<title>Biproduct_ab_triagonal_twist</title>
<g id="a_node2"><a xlink:href="Biproduct.html#ab_triagonal_twist" xlink:title="ab_triagonal_twist">
<ellipse fill="#f070d1" stroke="black" cx="3187" cy="-1543.11" rx="96.37" ry="18"/>
<ellipse fill="none" stroke="black" cx="3187" cy="-1543.11" rx="100.38" ry="22"/>
<ellipse fill="none" stroke="black" cx="3187" cy="-1543.11" rx="104.38" ry="26"/>
<text text-anchor="middle" x="3187" y="-1539.41" font-family="Times,serif" font-size="14.00">ab_triagonal_twist</text>
</a>
</g>
</g>
<!-- Biproduct_ab_triagonal -->
<g id="node4" class="node">
<title>Biproduct_ab_triagonal</title>
<g id="a_node4"><a xlink:href="Biproduct.html#ab_triagonal" xlink:title="ab_triagonal">
<ellipse fill="#f070d1" stroke="black" cx="2854" cy="-1168.11" rx="68.49" ry="18"/>
<text text-anchor="middle" x="2854" y="-1164.41" font-family="Times,serif" font-size="14.00">ab_triagonal</text>
</a>
</g>
</g>
<!-- Biproduct_ab_triagonal_twist&#45;&gt;Biproduct_ab_triagonal -->
<g id="edge3" class="edge">
<title>Biproduct_ab_triagonal_twist&#45;&gt;Biproduct_ab_triagonal</title>
<path fill="none" stroke="black" d="M3165.15,-1517.63C3104.81,-1450.04 2936.33,-1261.32 2875.91,-1193.65"/>
<polygon fill="black" stroke="black" points="2878.36,-1191.14 2869.09,-1186.01 2873.14,-1195.8 2878.36,-1191.14"/>
</g>
<!-- Biproduct_ab_triagonal_twist&#45;&gt;Biproduct_ab_biprod_twist -->
<g id="edge4" class="edge">
<title>Biproduct_ab_triagonal_twist&#45;&gt;Biproduct_ab_biprod_twist</title>
<path fill="none" stroke="black" d="M3210.23,-1517.63C3274.38,-1450.04 3453.48,-1261.32 3517.71,-1193.65"/>
<polygon fill="black" stroke="black" points="3520.61,-1195.67 3524.96,-1186.01 3515.53,-1190.86 3520.61,-1195.67"/>
</g>
<!-- Biproduct_ab_codiagonal -->
<g id="node14" class="node">
<title>Biproduct_ab_codiagonal</title>
<g id="a_node14"><a xlink:href="Biproduct.html#ab_codiagonal" xlink:title="ab_codiagonal">
<ellipse fill="#f070d1" stroke="black" cx="1129" cy="-793.11" rx="76.09" ry="18"/>
<text text-anchor="middle" x="1129" y="-789.41" font-family="Times,serif" font-size="14.00">ab_codiagonal</text>
</a>
</g>
</g>
<!-- Biproduct_ab_cotriagonal&#45;&gt;Biproduct_ab_codiagonal -->
<g id="edge5" class="edge">
<title>Biproduct_ab_cotriagonal&#45;&gt;Biproduct_ab_codiagonal</title>
<path fill="none" stroke="black" d="M970.56,-1150.11C996.98,-1090.76 1085.23,-892.47 1117.26,-820.49"/>
<polygon fill="black" stroke="black" points="1120.52,-821.76 1121.39,-811.2 1114.13,-818.92 1120.52,-821.76"/>
</g>
<!-- Biproduct_functor_ab_biprod -->
<g id="node23" class="node">
<title>Biproduct_functor_ab_biprod</title>
<g id="a_node23"><a xlink:href="Biproduct.html#functor_ab_biprod" xlink:title="functor_ab_biprod">
<ellipse fill="#f070d1" stroke="black" cx="1743" cy="-793.11" rx="94.78" ry="18"/>
<text text-anchor="middle" x="1743" y="-789.41" font-family="Times,serif" font-size="14.00">functor_ab_biprod</text>
</a>
</g>
</g>
<!-- Biproduct_ab_cotriagonal&#45;&gt;Biproduct_functor_ab_biprod -->
<g id="edge6" class="edge">
<title>Biproduct_ab_cotriagonal&#45;&gt;Biproduct_functor_ab_biprod</title>
<path fill="none" stroke="black" d="M995.52,-1151.56C1119.25,-1092.39 1560.69,-881.29 1700.33,-814.51"/>
<polygon fill="black" stroke="black" points="1701.96,-817.62 1709.47,-810.14 1698.94,-811.3 1701.96,-817.62"/>
</g>
<!-- Biproduct_ab_diagonal -->
<g id="node12" class="node">
<title>Biproduct_ab_diagonal</title>
<g id="a_node12"><a xlink:href="Biproduct.html#ab_diagonal" xlink:title="ab_diagonal">
<ellipse fill="#f070d1" stroke="black" cx="2854" cy="-793.11" rx="65.79" ry="18"/>
<text text-anchor="middle" x="2854" y="-789.41" font-family="Times,serif" font-size="14.00">ab_diagonal</text>
</a>
</g>
</g>
<!-- Biproduct_ab_triagonal&#45;&gt;Biproduct_ab_diagonal -->
<g id="edge7" class="edge">
<title>Biproduct_ab_triagonal&#45;&gt;Biproduct_ab_diagonal</title>
<path fill="none" stroke="black" d="M2854,-1149.62C2854,-1089.89 2854,-893.68 2854,-821.27"/>
<polygon fill="black" stroke="black" points="2857.5,-821.13 2854,-811.13 2850.5,-821.13 2857.5,-821.13"/>
</g>
<!-- Biproduct_ab_triagonal&#45;&gt;Biproduct_functor_ab_biprod -->
<g id="edge8" class="edge">
<title>Biproduct_ab_triagonal&#45;&gt;Biproduct_functor_ab_biprod</title>
<path fill="none" stroke="black" d="M2813.47,-1153.5C2643.83,-1096.55 1990.63,-877.25 1797.24,-812.32"/>
<polygon fill="black" stroke="black" points="1798.17,-808.94 1787.58,-809.07 1795.94,-815.57 1798.17,-808.94"/>
</g>
<!-- Biproduct_ab_biprod -->
<g id="node37" class="node">
<title>Biproduct_ab_biprod</title>
<g id="a_node37"><a xlink:href="Biproduct.html#ab_biprod" xlink:title="ab_biprod">
<ellipse fill="#f070d1" stroke="black" cx="1683" cy="-145.11" rx="56.59" ry="18"/>
<text text-anchor="middle" x="1683" y="-141.41" font-family="Times,serif" font-size="14.00">ab_biprod</text>
</a>
</g>
</g>
<!-- Biproduct_ab_biprod_twist&#45;&gt;Biproduct_ab_biprod -->
<g id="edge9" class="edge">
<title>Biproduct_ab_biprod_twist&#45;&gt;Biproduct_ab_biprod</title>
<path fill="none" stroke="black" d="M3517.99,-1150.66C3438.39,-1094.05 3166.57,-903.33 2929,-767.11 2468.96,-503.32 1882.24,-235.54 1723.9,-164.38"/>
<polygon fill="black" stroke="black" points="1725.08,-161.07 1714.52,-160.17 1722.21,-167.46 1725.08,-161.07"/>
</g>
<!-- Biproduct_ab_commute_id_codiagonal -->
<g id="node6" class="node">
<title>Biproduct_ab_commute_id_codiagonal</title>
<g id="a_node6"><a xlink:href="Biproduct.html#ab_commute_id_codiagonal" xlink:title="ab_commute_id_codiagonal">
<ellipse fill="#f070d1" stroke="black" cx="1782" cy="-1168.11" rx="136.48" ry="18"/>
<ellipse fill="none" stroke="black" cx="1782" cy="-1168.11" rx="140.48" ry="22"/>
<ellipse fill="none" stroke="black" cx="1782" cy="-1168.11" rx="144.48" ry="26"/>
<text text-anchor="middle" x="1782" y="-1164.41" font-family="Times,serif" font-size="14.00">ab_commute_id_codiagonal</text>
</a>
</g>
</g>
<!-- Biproduct_ab_biprod_assoc -->
<g id="node8" class="node">
<title>Biproduct_ab_biprod_assoc</title>
<g id="a_node8"><a xlink:href="Biproduct.html#ab_biprod_assoc" xlink:title="ab_biprod_assoc">
<ellipse fill="#f070d1" stroke="black" cx="2326" cy="-793.11" rx="86.38" ry="18"/>
<text text-anchor="middle" x="2326" y="-789.41" font-family="Times,serif" font-size="14.00">ab_biprod_assoc</text>
</a>
</g>
</g>
<!-- Biproduct_ab_commute_id_codiagonal&#45;&gt;Biproduct_ab_biprod_assoc -->
<g id="edge10" class="edge">
<title>Biproduct_ab_commute_id_codiagonal&#45;&gt;Biproduct_ab_biprod_assoc</title>
<path fill="none" stroke="black" d="M1817.69,-1142.63C1917.4,-1074.27 2197.85,-881.98 2293.53,-816.37"/>
<polygon fill="black" stroke="black" points="2295.68,-819.14 2301.95,-810.6 2291.72,-813.37 2295.68,-819.14"/>
</g>
<!-- Biproduct_ab_commute_id_codiagonal&#45;&gt;Biproduct_ab_codiagonal -->
<g id="edge11" class="edge">
<title>Biproduct_ab_commute_id_codiagonal&#45;&gt;Biproduct_ab_codiagonal</title>
<path fill="none" stroke="black" d="M1740.16,-1143.21C1620.65,-1074.94 1279.1,-879.84 1165.93,-815.2"/>
<polygon fill="black" stroke="black" points="1167.35,-811.98 1156.93,-810.06 1163.88,-818.06 1167.35,-811.98"/>
</g>
<!-- Biproduct_ab_commute_id_codiagonal&#45;&gt;Biproduct_functor_ab_biprod -->
<g id="edge12" class="edge">
<title>Biproduct_ab_commute_id_codiagonal&#45;&gt;Biproduct_functor_ab_biprod</title>
<path fill="none" stroke="black" d="M1779.38,-1142.05C1772.36,-1074.92 1753.17,-891.35 1745.87,-821.54"/>
<polygon fill="black" stroke="black" points="1749.32,-820.93 1744.8,-811.35 1742.36,-821.66 1749.32,-820.93"/>
</g>
<!-- Biproduct_ab_commute_id_diagonal -->
<g id="node7" class="node">
<title>Biproduct_ab_commute_id_diagonal</title>
<g id="a_node7"><a xlink:href="Biproduct.html#ab_commute_id_diagonal" xlink:title="ab_commute_id_diagonal">
<ellipse fill="#f070d1" stroke="black" cx="2634" cy="-1168.11" rx="126.17" ry="18"/>
<ellipse fill="none" stroke="black" cx="2634" cy="-1168.11" rx="130.18" ry="22"/>
<ellipse fill="none" stroke="black" cx="2634" cy="-1168.11" rx="134.18" ry="26"/>
<text text-anchor="middle" x="2634" y="-1164.41" font-family="Times,serif" font-size="14.00">ab_commute_id_diagonal</text>
</a>
</g>
</g>
<!-- Biproduct_ab_commute_id_diagonal&#45;&gt;Biproduct_ab_biprod_assoc -->
<g id="edge13" class="edge">
<title>Biproduct_ab_commute_id_diagonal&#45;&gt;Biproduct_ab_biprod_assoc</title>
<path fill="none" stroke="black" d="M2613.55,-1142.35C2557.63,-1074.63 2402.62,-886.89 2346.56,-819.01"/>
<polygon fill="black" stroke="black" points="2348.99,-816.46 2339.93,-810.97 2343.6,-820.91 2348.99,-816.46"/>
</g>
<!-- Biproduct_ab_commute_id_diagonal&#45;&gt;Biproduct_ab_diagonal -->
<g id="edge14" class="edge">
<title>Biproduct_ab_commute_id_diagonal&#45;&gt;Biproduct_ab_diagonal</title>
<path fill="none" stroke="black" d="M2648.78,-1142.05C2688.71,-1074.35 2798.49,-888.22 2838.85,-819.79"/>
<polygon fill="black" stroke="black" points="2842.01,-821.33 2844.07,-810.94 2835.98,-817.77 2842.01,-821.33"/>
</g>
<!-- Biproduct_ab_commute_id_diagonal&#45;&gt;Biproduct_functor_ab_biprod -->
<g id="edge15" class="edge">
<title>Biproduct_ab_commute_id_diagonal&#45;&gt;Biproduct_functor_ab_biprod</title>
<path fill="none" stroke="black" d="M2579.61,-1144.34C2417.86,-1076.62 1941.71,-877.29 1790,-813.78"/>
<polygon fill="black" stroke="black" points="1791.06,-810.43 1780.48,-809.8 1788.36,-816.89 1791.06,-810.43"/>
</g>
<!-- Biproduct_ab_biprod_assoc&#45;&gt;Biproduct_ab_biprod -->
<g id="edge16" class="edge">
<title>Biproduct_ab_biprod_assoc&#45;&gt;Biproduct_ab_biprod</title>
<path fill="none" stroke="black" d="M2322.04,-774.78C2308.61,-719.22 2260.1,-542.87 2163,-434.11 2036.1,-291.97 1822.03,-198.62 1728.75,-162.7"/>
<polygon fill="black" stroke="black" points="1729.9,-159.4 1719.31,-159.11 1727.41,-165.94 1729.9,-159.4"/>
</g>
<!-- Biproduct_ab_diagonal_swap -->
<g id="node9" class="node">
<title>Biproduct_ab_diagonal_swap</title>
<g id="a_node9"><a xlink:href="Biproduct.html#ab_diagonal_swap" xlink:title="ab_diagonal_swap">
<ellipse fill="#f070d1" stroke="black" cx="3336" cy="-1168.11" rx="94.46" ry="18"/>
<ellipse fill="none" stroke="black" cx="3336" cy="-1168.11" rx="98.47" ry="22"/>
<ellipse fill="none" stroke="black" cx="3336" cy="-1168.11" rx="102.48" ry="26"/>
<text text-anchor="middle" x="3336" y="-1164.41" font-family="Times,serif" font-size="14.00">ab_diagonal_swap</text>
</a>
</g>
</g>
<!-- Biproduct_ab_diagonal_swap&#45;&gt;Biproduct_ab_diagonal -->
<g id="edge17" class="edge">
<title>Biproduct_ab_diagonal_swap&#45;&gt;Biproduct_ab_diagonal</title>
<path fill="none" stroke="black" d="M3305.12,-1143.21C3217.44,-1075.36 2967.89,-882.24 2882.82,-816.41"/>
<polygon fill="black" stroke="black" points="2884.93,-813.62 2874.88,-810.27 2880.65,-819.15 2884.93,-813.62"/>
</g>
<!-- Biproduct_direct_sum_swap -->
<g id="node15" class="node">
<title>Biproduct_direct_sum_swap</title>
<g id="a_node15"><a xlink:href="Biproduct.html#direct_sum_swap" xlink:title="direct_sum_swap">
<ellipse fill="#f070d1" stroke="black" cx="1946" cy="-793.11" rx="90.18" ry="18"/>
<text text-anchor="middle" x="1946" y="-789.41" font-family="Times,serif" font-size="14.00">direct_sum_swap</text>
</a>
</g>
</g>
<!-- Biproduct_ab_diagonal_swap&#45;&gt;Biproduct_direct_sum_swap -->
<g id="edge18" class="edge">
<title>Biproduct_ab_diagonal_swap&#45;&gt;Biproduct_direct_sum_swap</title>
<path fill="none" stroke="black" d="M3267.54,-1148.74C3028.75,-1084.66 2234.84,-871.62 2007.39,-810.58"/>
<polygon fill="black" stroke="black" points="2008.19,-807.17 1997.62,-807.96 2006.37,-813.93 2008.19,-807.17"/>
</g>
<!-- Biproduct_ab_codiagonal_swap -->
<g id="node10" class="node">
<title>Biproduct_ab_codiagonal_swap</title>
<g id="a_node10"><a xlink:href="Biproduct.html#ab_codiagonal_swap" xlink:title="ab_codiagonal_swap">
<ellipse fill="#f070d1" stroke="black" cx="1507" cy="-1168.11" rx="104.77" ry="18"/>
<ellipse fill="none" stroke="black" cx="1507" cy="-1168.11" rx="108.78" ry="22"/>
<ellipse fill="none" stroke="black" cx="1507" cy="-1168.11" rx="112.78" ry="26"/>
<text text-anchor="middle" x="1507" y="-1164.41" font-family="Times,serif" font-size="14.00">ab_codiagonal_swap</text>
</a>
</g>
</g>
<!-- Biproduct_ab_codiagonal_swap&#45;&gt;Biproduct_ab_codiagonal -->
<g id="edge19" class="edge">
<title>Biproduct_ab_codiagonal_swap&#45;&gt;Biproduct_ab_codiagonal</title>
<path fill="none" stroke="black" d="M1482.2,-1142.63C1413.56,-1074.9 1221.67,-885.55 1153.45,-818.24"/>
<polygon fill="black" stroke="black" points="1155.71,-815.54 1146.13,-811.01 1150.79,-820.53 1155.71,-815.54"/>
</g>
<!-- Biproduct_ab_codiagonal_swap&#45;&gt;Biproduct_direct_sum_swap -->
<g id="edge20" class="edge">
<title>Biproduct_ab_codiagonal_swap&#45;&gt;Biproduct_direct_sum_swap</title>
<path fill="none" stroke="black" d="M1535.47,-1142.92C1615.03,-1075.32 1839.05,-884.98 1918.02,-817.88"/>
<polygon fill="black" stroke="black" points="1920.71,-820.19 1926.06,-811.05 1916.17,-814.86 1920.71,-820.19"/>
</g>
<!-- Biproduct_ab_biprod_corec_diagonal -->
<g id="node11" class="node">
<title>Biproduct_ab_biprod_corec_diagonal</title>
<g id="a_node11"><a xlink:href="Biproduct.html#ab_biprod_corec_diagonal" xlink:title="ab_biprod_corec_diagonal">
<ellipse fill="#f070d1" stroke="black" cx="3078" cy="-1168.11" rx="129.98" ry="18"/>
<ellipse fill="none" stroke="black" cx="3078" cy="-1168.11" rx="133.98" ry="22"/>
<ellipse fill="none" stroke="black" cx="3078" cy="-1168.11" rx="137.98" ry="26"/>
<text text-anchor="middle" x="3078" y="-1164.41" font-family="Times,serif" font-size="14.00">ab_biprod_corec_diagonal</text>
</a>
</g>
</g>
<!-- Biproduct_ab_biprod_corec_diagonal&#45;&gt;Biproduct_ab_diagonal -->
<g id="edge21" class="edge">
<title>Biproduct_ab_biprod_corec_diagonal&#45;&gt;Biproduct_ab_diagonal</title>
<path fill="none" stroke="black" d="M3062.95,-1142.05C3022.3,-1074.35 2910.52,-888.22 2869.42,-819.79"/>
<polygon fill="black" stroke="black" points="2872.26,-817.71 2864.11,-810.94 2866.25,-821.31 2872.26,-817.71"/>
</g>
<!-- Biproduct_ab_biprod_corec_diagonal&#45;&gt;Biproduct_functor_ab_biprod -->
<g id="edge22" class="edge">
<title>Biproduct_ab_biprod_corec_diagonal&#45;&gt;Biproduct_functor_ab_biprod</title>
<path fill="none" stroke="black" d="M3002.88,-1146.12C2763.45,-1079.22 2021.23,-871.85 1803.58,-811.03"/>
<polygon fill="black" stroke="black" points="1804.49,-807.65 1793.92,-808.33 1802.6,-814.4 1804.49,-807.65"/>
</g>
<!-- Biproduct_ab_biprod_corec -->
<g id="node25" class="node">
<title>Biproduct_ab_biprod_corec</title>
<g id="a_node25"><a xlink:href="Biproduct.html#ab_biprod_corec" xlink:title="ab_biprod_corec">
<ellipse fill="#f070d1" stroke="black" cx="2068" cy="-452.11" rx="85.59" ry="18"/>
<text text-anchor="middle" x="2068" y="-448.41" font-family="Times,serif" font-size="14.00">ab_biprod_corec</text>
</a>
</g>
</g>
<!-- Biproduct_ab_diagonal&#45;&gt;Biproduct_ab_biprod_corec -->
<g id="edge23" class="edge">
<title>Biproduct_ab_diagonal&#45;&gt;Biproduct_ab_biprod_corec</title>
<path fill="none" stroke="black" d="M2820.23,-777.54C2694.85,-723.47 2256,-534.19 2113.24,-472.62"/>
<polygon fill="black" stroke="black" points="2114.45,-469.33 2103.88,-468.58 2111.68,-475.76 2114.45,-469.33"/>
</g>
<!-- Biproduct_ab_codiagonal_natural -->
<g id="node13" class="node">
<title>Biproduct_ab_codiagonal_natural</title>
<g id="a_node13"><a xlink:href="Biproduct.html#ab_codiagonal_natural" xlink:title="ab_codiagonal_natural">
<ellipse fill="#f070d1" stroke="black" cx="744" cy="-1168.11" rx="114.29" ry="18"/>
<ellipse fill="none" stroke="black" cx="744" cy="-1168.11" rx="118.28" ry="22"/>
<ellipse fill="none" stroke="black" cx="744" cy="-1168.11" rx="122.28" ry="26"/>
<text text-anchor="middle" x="744" y="-1164.41" font-family="Times,serif" font-size="14.00">ab_codiagonal_natural</text>
</a>
</g>
</g>
<!-- Biproduct_ab_codiagonal_natural&#45;&gt;Biproduct_ab_codiagonal -->
<g id="edge24" class="edge">
<title>Biproduct_ab_codiagonal_natural&#45;&gt;Biproduct_ab_codiagonal</title>
<path fill="none" stroke="black" d="M769.26,-1142.63C839.17,-1074.9 1034.61,-885.55 1104.09,-818.24"/>
<polygon fill="black" stroke="black" points="1106.81,-820.48 1111.55,-811.01 1101.93,-815.46 1106.81,-820.48"/>
</g>
<!-- Biproduct_ab_codiagonal_natural&#45;&gt;Biproduct_functor_ab_biprod -->
<g id="edge25" class="edge">
<title>Biproduct_ab_codiagonal_natural&#45;&gt;Biproduct_functor_ab_biprod</title>
<path fill="none" stroke="black" d="M802.76,-1145.17C982.68,-1077.99 1524.01,-875.87 1692.43,-812.99"/>
<polygon fill="black" stroke="black" points="1693.9,-816.18 1702.04,-809.4 1691.45,-809.62 1693.9,-816.18"/>
</g>
<!-- Biproduct_ab_biprod_rec -->
<g id="node32" class="node">
<title>Biproduct_ab_biprod_rec</title>
<g id="a_node32"><a xlink:href="Biproduct.html#ab_biprod_rec" xlink:title="ab_biprod_rec">
<ellipse fill="#f070d1" stroke="black" cx="695" cy="-452.11" rx="75.29" ry="18"/>
<text text-anchor="middle" x="695" y="-448.41" font-family="Times,serif" font-size="14.00">ab_biprod_rec</text>
</a>
</g>
</g>
<!-- Biproduct_ab_codiagonal&#45;&gt;Biproduct_ab_biprod_rec -->
<g id="edge26" class="edge">
<title>Biproduct_ab_codiagonal&#45;&gt;Biproduct_ab_biprod_rec</title>
<path fill="none" stroke="black" d="M1108.07,-775.76C1037.25,-720.44 806.48,-540.18 724.35,-476.03"/>
<polygon fill="black" stroke="black" points="726.01,-472.89 715.98,-469.49 721.7,-478.41 726.01,-472.89"/>
</g>
<!-- Biproduct_direct_sum_swap&#45;&gt;Biproduct_ab_biprod -->
<g id="edge27" class="edge">
<title>Biproduct_direct_sum_swap&#45;&gt;Biproduct_ab_biprod</title>
<path fill="none" stroke="black" d="M1943.5,-774.76C1935.5,-721.98 1907.98,-559.29 1856,-434.11 1812.83,-330.15 1736.43,-219.26 1701.44,-170.97"/>
<polygon fill="black" stroke="black" points="1704.12,-168.71 1695.4,-162.7 1698.47,-172.84 1704.12,-168.71"/>
</g>
<!-- Biproduct_equiv_path_biprod_corec -->
<g id="node16" class="node">
<title>Biproduct_equiv_path_biprod_corec</title>
<g id="a_node16"><a xlink:href="Biproduct.html#equiv_path_biprod_corec" xlink:title="equiv_path_biprod_corec">
<ellipse fill="#f070d1" stroke="black" cx="1356" cy="-793.11" rx="125.38" ry="18"/>
<ellipse fill="none" stroke="black" cx="1356" cy="-793.11" rx="129.38" ry="22"/>
<ellipse fill="none" stroke="black" cx="1356" cy="-793.11" rx="133.38" ry="26"/>
<text text-anchor="middle" x="1356" y="-789.41" font-family="Times,serif" font-size="14.00">equiv_path_biprod_corec</text>
</a>
</g>
</g>
<!-- Biproduct_ab_biprod_decompose -->
<g id="node17" class="node">
<title>Biproduct_ab_biprod_decompose</title>
<g id="a_node17"><a xlink:href="Biproduct.html#ab_biprod_decompose" xlink:title="ab_biprod_decompose">
<ellipse fill="#f070d1" stroke="black" cx="1367" cy="-452.11" rx="112.38" ry="18"/>
<text text-anchor="middle" x="1367" y="-448.41" font-family="Times,serif" font-size="14.00">ab_biprod_decompose</text>
</a>
</g>
</g>
<!-- Biproduct_equiv_path_biprod_corec&#45;&gt;Biproduct_ab_biprod_decompose -->
<g id="edge28" class="edge">
<title>Biproduct_equiv_path_biprod_corec&#45;&gt;Biproduct_ab_biprod_decompose</title>
<path fill="none" stroke="black" d="M1356.82,-766.9C1358.83,-704.82 1364.02,-544.91 1366.11,-480.55"/>
<polygon fill="black" stroke="black" points="1369.61,-480.48 1366.44,-470.37 1362.62,-480.25 1369.61,-480.48"/>
</g>
<!-- Biproduct_ab_biprod_inr -->
<g id="node35" class="node">
<title>Biproduct_ab_biprod_inr</title>
<g id="a_node35"><a xlink:href="Biproduct.html#ab_biprod_inr" xlink:title="ab_biprod_inr">
<ellipse fill="#f070d1" stroke="black" cx="1117" cy="-452.11" rx="74.19" ry="18"/>
<text text-anchor="middle" x="1117" y="-448.41" font-family="Times,serif" font-size="14.00">ab_biprod_inr</text>
</a>
</g>
</g>
<!-- Biproduct_equiv_path_biprod_corec&#45;&gt;Biproduct_ab_biprod_inr -->
<g id="edge29" class="edge">
<title>Biproduct_equiv_path_biprod_corec&#45;&gt;Biproduct_ab_biprod_inr</title>
<path fill="none" stroke="black" d="M1338.43,-767.18C1294.26,-704.53 1178.98,-541.02 1134.69,-478.2"/>
<polygon fill="black" stroke="black" points="1137.55,-476.18 1128.92,-470.02 1131.83,-480.21 1137.55,-476.18"/>
</g>
<!-- Biproduct_ab_biprod_inl -->
<g id="node36" class="node">
<title>Biproduct_ab_biprod_inl</title>
<g id="a_node36"><a xlink:href="Biproduct.html#ab_biprod_inl" xlink:title="ab_biprod_inl">
<ellipse fill="#f070d1" stroke="black" cx="952" cy="-452.11" rx="72.59" ry="18"/>
<text text-anchor="middle" x="952" y="-448.41" font-family="Times,serif" font-size="14.00">ab_biprod_inl</text>
</a>
</g>
</g>
<!-- Biproduct_equiv_path_biprod_corec&#45;&gt;Biproduct_ab_biprod_inl -->
<g id="edge30" class="edge">
<title>Biproduct_equiv_path_biprod_corec&#45;&gt;Biproduct_ab_biprod_inl</title>
<path fill="none" stroke="black" d="M1326.95,-767.73C1252.03,-704.87 1053.08,-537.93 979.7,-476.35"/>
<polygon fill="black" stroke="black" points="981.7,-473.46 971.78,-469.71 977.2,-478.82 981.7,-473.46"/>
</g>
<!-- Biproduct_ab_biprod_decompose&#45;&gt;Biproduct_ab_biprod -->
<g id="edge31" class="edge">
<title>Biproduct_ab_biprod_decompose&#45;&gt;Biproduct_ab_biprod</title>
<path fill="none" stroke="black" d="M1384.44,-434.28C1437.55,-383.02 1597.37,-228.75 1658.69,-169.57"/>
<polygon fill="black" stroke="black" points="1661.24,-171.98 1666,-162.52 1656.37,-166.94 1661.24,-171.98"/>
</g>
<!-- Biproduct_functor_ab_biprod_surjection -->
<g id="node18" class="node">
<title>Biproduct_functor_ab_biprod_surjection</title>
<g id="a_node18"><a xlink:href="Biproduct.html#functor_ab_biprod_surjection" xlink:title="functor_ab_biprod_surjection">
<ellipse fill="#f070d1" stroke="black" cx="450" cy="-1168.11" rx="145.67" ry="18"/>
<ellipse fill="none" stroke="black" cx="450" cy="-1168.11" rx="149.67" ry="22"/>
<ellipse fill="none" stroke="black" cx="450" cy="-1168.11" rx="153.67" ry="26"/>
<text text-anchor="middle" x="450" y="-1164.41" font-family="Times,serif" font-size="14.00">functor_ab_biprod_surjection</text>
</a>
</g>
</g>
<!-- Biproduct_functor_ab_biprod_surjection&#45;&gt;Biproduct_functor_ab_biprod -->
<g id="edge32" class="edge">
<title>Biproduct_functor_ab_biprod_surjection&#45;&gt;Biproduct_functor_ab_biprod</title>
<path fill="none" stroke="black" d="M525.58,-1145.3C760.07,-1077.66 1472.11,-872.25 1683.33,-811.32"/>
<polygon fill="black" stroke="black" points="1684.36,-814.67 1693,-808.53 1682.42,-807.94 1684.36,-814.67"/>
</g>
<!-- Biproduct_functor_ab_biprod_surjection&#45;&gt;Biproduct_ab_biprod_inr -->
<g id="edge33" class="edge">
<title>Biproduct_functor_ab_biprod_surjection&#45;&gt;Biproduct_ab_biprod_inr</title>
<path fill="none" stroke="black" d="M517.37,-1144.65C636.78,-1101.32 885.33,-994.66 1017,-819.11 1058.25,-764.11 1098.71,-555.47 1112.25,-480.31"/>
<polygon fill="black" stroke="black" points="1115.74,-480.68 1114.05,-470.22 1108.85,-479.45 1115.74,-480.68"/>
</g>
<!-- Biproduct_functor_ab_biprod_surjection&#45;&gt;Biproduct_ab_biprod_inl -->
<g id="edge34" class="edge">
<title>Biproduct_functor_ab_biprod_surjection&#45;&gt;Biproduct_ab_biprod_inl</title>
<path fill="none" stroke="black" d="M526.4,-1145.49C652.67,-1105.13 901.18,-1005.12 1004,-819.11 1066.92,-705.28 997.63,-542.3 966.03,-479.33"/>
<polygon fill="black" stroke="black" points="968.98,-477.41 961.3,-470.1 962.75,-480.6 968.98,-477.41"/>
</g>
<!-- Biproduct_functor_ab_biprod_embedding -->
<g id="node19" class="node">
<title>Biproduct_functor_ab_biprod_embedding</title>
<g id="a_node19"><a xlink:href="Biproduct.html#functor_ab_biprod_embedding" xlink:title="functor_ab_biprod_embedding">
<ellipse fill="#f070d1" stroke="black" cx="1218" cy="-1168.11" rx="150.58" ry="18"/>
<ellipse fill="none" stroke="black" cx="1218" cy="-1168.11" rx="154.58" ry="22"/>
<ellipse fill="none" stroke="black" cx="1218" cy="-1168.11" rx="158.57" ry="26"/>
<text text-anchor="middle" x="1218" y="-1164.41" font-family="Times,serif" font-size="14.00">functor_ab_biprod_embedding</text>
</a>
</g>
</g>
<!-- Biproduct_functor_ab_biprod_embedding&#45;&gt;Biproduct_functor_ab_biprod -->
<g id="edge35" class="edge">
<title>Biproduct_functor_ab_biprod_embedding&#45;&gt;Biproduct_functor_ab_biprod</title>
<path fill="none" stroke="black" d="M1252.45,-1142.63C1348.58,-1074.33 1618.78,-882.36 1711.39,-816.57"/>
<polygon fill="black" stroke="black" points="1713.66,-819.25 1719.79,-810.6 1709.61,-813.54 1713.66,-819.25"/>
</g>
<!-- Biproduct_equiv_functor_ab_biprod -->
<g id="node20" class="node">
<title>Biproduct_equiv_functor_ab_biprod</title>
<g id="a_node20"><a xlink:href="Biproduct.html#equiv_functor_ab_biprod" xlink:title="equiv_functor_ab_biprod">
<ellipse fill="#f070d1" stroke="black" cx="2350" cy="-1543.11" rx="124.27" ry="18"/>
<ellipse fill="none" stroke="black" cx="2350" cy="-1543.11" rx="128.27" ry="22"/>
<ellipse fill="none" stroke="black" cx="2350" cy="-1543.11" rx="132.28" ry="26"/>
<text text-anchor="middle" x="2350" y="-1539.41" font-family="Times,serif" font-size="14.00">equiv_functor_ab_biprod</text>
</a>
</g>
</g>
<!-- Biproduct_isequiv_functor_ab_biprod -->
<g id="node21" class="node">
<title>Biproduct_isequiv_functor_ab_biprod</title>
<g id="a_node21"><a xlink:href="Biproduct.html#isequiv_functor_ab_biprod" xlink:title="isequiv_functor_ab_biprod">
<ellipse fill="#f070d1" stroke="black" cx="2350" cy="-1168.11" rx="131.88" ry="18"/>
<text text-anchor="middle" x="2350" y="-1164.41" font-family="Times,serif" font-size="14.00">isequiv_functor_ab_biprod</text>
</a>
</g>
</g>
<!-- Biproduct_equiv_functor_ab_biprod&#45;&gt;Biproduct_isequiv_functor_ab_biprod -->
<g id="edge36" class="edge">
<title>Biproduct_equiv_functor_ab_biprod&#45;&gt;Biproduct_isequiv_functor_ab_biprod</title>
<path fill="none" stroke="black" d="M2350,-1517.05C2350,-1449.92 2350,-1266.35 2350,-1196.54"/>
<polygon fill="black" stroke="black" points="2353.5,-1196.35 2350,-1186.35 2346.5,-1196.35 2353.5,-1196.35"/>
</g>
<!-- Biproduct_isequiv_functor_ab_biprod&#45;&gt;Biproduct_functor_ab_biprod -->
<g id="edge37" class="edge">
<title>Biproduct_isequiv_functor_ab_biprod&#45;&gt;Biproduct_functor_ab_biprod</title>
<path fill="none" stroke="black" d="M2322.74,-1150.36C2224.57,-1090.03 1889.12,-883.9 1778.62,-815.99"/>
<polygon fill="black" stroke="black" points="1780.19,-812.86 1769.84,-810.6 1776.53,-818.82 1780.19,-812.86"/>
</g>
<!-- Biproduct_ab_biprod_functor_beta -->
<g id="node22" class="node">
<title>Biproduct_ab_biprod_functor_beta</title>
<g id="a_node22"><a xlink:href="Biproduct.html#ab_biprod_functor_beta" xlink:title="ab_biprod_functor_beta">
<ellipse fill="#f070d1" stroke="black" cx="2072" cy="-1168.11" rx="119.67" ry="18"/>
<ellipse fill="none" stroke="black" cx="2072" cy="-1168.11" rx="123.68" ry="22"/>
<ellipse fill="none" stroke="black" cx="2072" cy="-1168.11" rx="127.68" ry="26"/>
<text text-anchor="middle" x="2072" y="-1164.41" font-family="Times,serif" font-size="14.00">ab_biprod_functor_beta</text>
</a>
</g>
</g>
<!-- Biproduct_ab_biprod_functor_beta&#45;&gt;Biproduct_functor_ab_biprod -->
<g id="edge38" class="edge">
<title>Biproduct_ab_biprod_functor_beta&#45;&gt;Biproduct_functor_ab_biprod</title>
<path fill="none" stroke="black" d="M2050.16,-1142.35C1990.31,-1074.49 1824.16,-886.13 1764.6,-818.6"/>
<polygon fill="black" stroke="black" points="1767.12,-816.16 1757.88,-810.97 1761.87,-820.79 1767.12,-816.16"/>
</g>
<!-- Biproduct_functor_ab_biprod&#45;&gt;Biproduct_ab_biprod_corec -->
<g id="edge39" class="edge">
<title>Biproduct_functor_ab_biprod&#45;&gt;Biproduct_ab_biprod_corec</title>
<path fill="none" stroke="black" d="M1759.12,-775.3C1812.29,-719.84 1982.29,-542.51 2044.72,-477.39"/>
<polygon fill="black" stroke="black" points="2047.39,-479.66 2051.79,-470.02 2042.34,-474.82 2047.39,-479.66"/>
</g>
<!-- Biproduct_ab_biprod_pr2 -->
<g id="node33" class="node">
<title>Biproduct_ab_biprod_pr2</title>
<g id="a_node33"><a xlink:href="Biproduct.html#ab_biprod_pr2" xlink:title="ab_biprod_pr2">
<ellipse fill="#f070d1" stroke="black" cx="1597" cy="-452.11" rx="77.19" ry="18"/>
<text text-anchor="middle" x="1597" y="-448.41" font-family="Times,serif" font-size="14.00">ab_biprod_pr2</text>
</a>
</g>
</g>
<!-- Biproduct_functor_ab_biprod&#45;&gt;Biproduct_ab_biprod_pr2 -->
<g id="edge40" class="edge">
<title>Biproduct_functor_ab_biprod&#45;&gt;Biproduct_ab_biprod_pr2</title>
<path fill="none" stroke="black" d="M1735.56,-774.83C1711.74,-719.52 1637.23,-546.52 1608.48,-479.76"/>
<polygon fill="black" stroke="black" points="1611.6,-478.15 1604.43,-470.35 1605.17,-480.92 1611.6,-478.15"/>
</g>
<!-- Biproduct_ab_biprod_pr1 -->
<g id="node34" class="node">
<title>Biproduct_ab_biprod_pr1</title>
<g id="a_node34"><a xlink:href="Biproduct.html#ab_biprod_pr1" xlink:title="ab_biprod_pr1">
<ellipse fill="#f070d1" stroke="black" cx="1770" cy="-452.11" rx="77.19" ry="18"/>
<text text-anchor="middle" x="1770" y="-448.41" font-family="Times,serif" font-size="14.00">ab_biprod_pr1</text>
</a>
</g>
</g>
<!-- Biproduct_functor_ab_biprod&#45;&gt;Biproduct_ab_biprod_pr1 -->
<g id="edge41" class="edge">
<title>Biproduct_functor_ab_biprod&#45;&gt;Biproduct_ab_biprod_pr1</title>
<path fill="none" stroke="black" d="M1744.38,-774.83C1748.76,-719.74 1762.45,-547.94 1767.81,-480.59"/>
<polygon fill="black" stroke="black" points="1771.32,-480.6 1768.63,-470.35 1764.34,-480.04 1771.32,-480.6"/>
</g>
<!-- Biproduct_ab_corec_beta -->
<g id="node24" class="node">
<title>Biproduct_ab_corec_beta</title>
<g id="a_node24"><a xlink:href="Biproduct.html#ab_corec_beta" xlink:title="ab_corec_beta">
<ellipse fill="#f070d1" stroke="black" cx="2138" cy="-793.11" rx="76.08" ry="18"/>
<ellipse fill="none" stroke="black" cx="2138" cy="-793.11" rx="80.08" ry="22"/>
<ellipse fill="none" stroke="black" cx="2138" cy="-793.11" rx="84.09" ry="26"/>
<text text-anchor="middle" x="2138" y="-789.41" font-family="Times,serif" font-size="14.00">ab_corec_beta</text>
</a>
</g>
</g>
<!-- Biproduct_ab_corec_beta&#45;&gt;Biproduct_ab_biprod_corec -->
<g id="edge42" class="edge">
<title>Biproduct_ab_corec_beta&#45;&gt;Biproduct_ab_biprod_corec</title>
<path fill="none" stroke="black" d="M2132.8,-766.9C2119.98,-704.82 2086.96,-544.91 2073.67,-480.55"/>
<polygon fill="black" stroke="black" points="2077.01,-479.46 2071.56,-470.37 2070.16,-480.87 2077.01,-479.46"/>
</g>
<!-- Biproduct_ab_biprod_corec&#45;&gt;Biproduct_ab_biprod -->
<g id="edge43" class="edge">
<title>Biproduct_ab_biprod_corec&#45;&gt;Biproduct_ab_biprod</title>
<path fill="none" stroke="black" d="M2047.03,-434.49C1982.21,-383.14 1785.03,-226.93 1711.26,-168.49"/>
<polygon fill="black" stroke="black" points="1713.3,-165.65 1703.29,-162.18 1708.96,-171.14 1713.3,-165.65"/>
</g>
<!-- Biproduct_isequiv_ab_biprod_rec -->
<g id="node26" class="node">
<title>Biproduct_isequiv_ab_biprod_rec</title>
<g id="a_node26"><a xlink:href="Biproduct.html#isequiv_ab_biprod_rec" xlink:title="isequiv_ab_biprod_rec">
<ellipse fill="#f070d1" stroke="black" cx="147" cy="-1543.11" rx="113.17" ry="18"/>
<ellipse fill="none" stroke="black" cx="147" cy="-1543.11" rx="117.18" ry="22"/>
<ellipse fill="none" stroke="black" cx="147" cy="-1543.11" rx="121.18" ry="26"/>
<text text-anchor="middle" x="147" y="-1539.41" font-family="Times,serif" font-size="14.00">isequiv_ab_biprod_rec</text>
</a>
</g>
</g>
<!-- Biproduct_ab_biprod_rec_inr_beta -->
<g id="node27" class="node">
<title>Biproduct_ab_biprod_rec_inr_beta</title>
<g id="a_node27"><a xlink:href="Biproduct.html#ab_biprod_rec_inr_beta" xlink:title="ab_biprod_rec_inr_beta">
<ellipse fill="#f070d1" stroke="black" cx="877" cy="-793.11" rx="118.08" ry="18"/>
<text text-anchor="middle" x="877" y="-789.41" font-family="Times,serif" font-size="14.00">ab_biprod_rec_inr_beta</text>
</a>
</g>
</g>
<!-- Biproduct_isequiv_ab_biprod_rec&#45;&gt;Biproduct_ab_biprod_rec_inr_beta -->
<g id="edge44" class="edge">
<title>Biproduct_isequiv_ab_biprod_rec&#45;&gt;Biproduct_ab_biprod_rec_inr_beta</title>
<path fill="none" stroke="black" d="M155.52,-1517.03C184.92,-1430.57 280.68,-1149.8 287,-1142.11 434.69,-962.17 701.48,-853.94 818.88,-812.96"/>
<polygon fill="black" stroke="black" points="820.11,-816.24 828.42,-809.67 817.82,-809.62 820.11,-816.24"/>
</g>
<!-- Biproduct_ab_biprod_rec_inl_beta -->
<g id="node28" class="node">
<title>Biproduct_ab_biprod_rec_inl_beta</title>
<g id="a_node28"><a xlink:href="Biproduct.html#ab_biprod_rec_inl_beta" xlink:title="ab_biprod_rec_inl_beta">
<ellipse fill="#f070d1" stroke="black" cx="401" cy="-793.11" rx="116.18" ry="18"/>
<text text-anchor="middle" x="401" y="-789.41" font-family="Times,serif" font-size="14.00">ab_biprod_rec_inl_beta</text>
</a>
</g>
</g>
<!-- Biproduct_isequiv_ab_biprod_rec&#45;&gt;Biproduct_ab_biprod_rec_inl_beta -->
<g id="edge45" class="edge">
<title>Biproduct_isequiv_ab_biprod_rec&#45;&gt;Biproduct_ab_biprod_rec_inl_beta</title>
<path fill="none" stroke="black" d="M129.92,-1516.92C88.52,-1452.53 -9.73,-1277.44 47,-1142.11 112.64,-985.54 286.87,-863.87 363.71,-816.1"/>
<polygon fill="black" stroke="black" points="365.9,-818.86 372.58,-810.64 362.23,-812.9 365.9,-818.86"/>
</g>
<!-- Biproduct_ab_biprod_rec_beta -->
<g id="node29" class="node">
<title>Biproduct_ab_biprod_rec_beta</title>
<g id="a_node29"><a xlink:href="Biproduct.html#ab_biprod_rec_beta" xlink:title="ab_biprod_rec_beta">
<ellipse fill="#f070d1" stroke="black" cx="157" cy="-1168.11" rx="100.98" ry="18"/>
<text text-anchor="middle" x="157" y="-1164.41" font-family="Times,serif" font-size="14.00">ab_biprod_rec_beta</text>
</a>
</g>
</g>
<!-- Biproduct_isequiv_ab_biprod_rec&#45;&gt;Biproduct_ab_biprod_rec_beta -->
<g id="edge46" class="edge">
<title>Biproduct_isequiv_ab_biprod_rec&#45;&gt;Biproduct_ab_biprod_rec_beta</title>
<path fill="none" stroke="black" d="M147.67,-1517.05C149.47,-1449.92 154.39,-1266.35 156.26,-1196.54"/>
<polygon fill="black" stroke="black" points="159.77,-1196.44 156.54,-1186.35 152.77,-1196.25 159.77,-1196.44"/>
</g>
<!-- Biproduct_ab_biprod_rec_uncurried -->
<g id="node31" class="node">
<title>Biproduct_ab_biprod_rec_uncurried</title>
<g id="a_node31"><a xlink:href="Biproduct.html#ab_biprod_rec_uncurried" xlink:title="ab_biprod_rec_uncurried">
<ellipse fill="#f070d1" stroke="black" cx="141" cy="-793.11" rx="125.38" ry="18"/>
<text text-anchor="middle" x="141" y="-789.41" font-family="Times,serif" font-size="14.00">ab_biprod_rec_uncurried</text>
</a>
</g>
</g>
<!-- Biproduct_isequiv_ab_biprod_rec&#45;&gt;Biproduct_ab_biprod_rec_uncurried -->
<g id="edge47" class="edge">
<title>Biproduct_isequiv_ab_biprod_rec&#45;&gt;Biproduct_ab_biprod_rec_uncurried</title>
<path fill="none" stroke="black" d="M135.62,-1517.05C110.74,-1460.77 52.17,-1319.44 32,-1194.11 8.83,-1050.14 90.6,-883.52 125.73,-820.27"/>
<polygon fill="black" stroke="black" points="128.88,-821.79 130.75,-811.36 122.79,-818.35 128.88,-821.79"/>
</g>
<!-- Biproduct_ab_biprod_rec_inr_beta&#45;&gt;Biproduct_ab_biprod_rec -->
<g id="edge48" class="edge">
<title>Biproduct_ab_biprod_rec_inr_beta&#45;&gt;Biproduct_ab_biprod_rec</title>
<path fill="none" stroke="black" d="M867.72,-774.83C837.97,-719.4 744.77,-545.81 709.09,-479.35"/>
<polygon fill="black" stroke="black" points="712.07,-477.51 704.26,-470.35 705.9,-480.82 712.07,-477.51"/>
</g>
<!-- Biproduct_ab_biprod_rec_inr_beta&#45;&gt;Biproduct_ab_biprod_inr -->
<g id="edge49" class="edge">
<title>Biproduct_ab_biprod_rec_inr_beta&#45;&gt;Biproduct_ab_biprod_inr</title>
<path fill="none" stroke="black" d="M889.23,-774.83C928.64,-719.16 1052.45,-544.29 1099.03,-478.49"/>
<polygon fill="black" stroke="black" points="1102.16,-480.13 1105.08,-469.95 1096.44,-476.09 1102.16,-480.13"/>
</g>
<!-- Biproduct_ab_biprod_rec_inl_beta&#45;&gt;Biproduct_ab_biprod_rec -->
<g id="edge50" class="edge">
<title>Biproduct_ab_biprod_rec_inl_beta&#45;&gt;Biproduct_ab_biprod_rec</title>
<path fill="none" stroke="black" d="M415.98,-774.83C464.46,-718.93 617.16,-542.86 673.69,-477.68"/>
<polygon fill="black" stroke="black" points="676.49,-479.8 680.4,-469.95 671.2,-475.21 676.49,-479.8"/>
</g>
<!-- Biproduct_ab_biprod_rec_inl_beta&#45;&gt;Biproduct_ab_biprod_inl -->
<g id="edge51" class="edge">
<title>Biproduct_ab_biprod_rec_inl_beta&#45;&gt;Biproduct_ab_biprod_inl</title>
<path fill="none" stroke="black" d="M427.95,-775.53C519.08,-719.46 815.69,-536.97 917.4,-474.39"/>
<polygon fill="black" stroke="black" points="919.38,-477.28 926.07,-469.06 915.72,-471.32 919.38,-477.28"/>
</g>
<!-- Biproduct_ab_biprod_rec_beta_ -->
<g id="node30" class="node">
<title>Biproduct_ab_biprod_rec_beta_</title>
<g id="a_node30"><a xlink:href="Biproduct.html#ab_biprod_rec_beta'" xlink:title="ab_biprod_rec_beta&#39;">
<ellipse fill="#f070d1" stroke="black" cx="638" cy="-793.11" rx="102.88" ry="18"/>
<text text-anchor="middle" x="638" y="-789.41" font-family="Times,serif" font-size="14.00">ab_biprod_rec_beta&#39;</text>
</a>
</g>
</g>
<!-- Biproduct_ab_biprod_rec_beta&#45;&gt;Biproduct_ab_biprod_rec_beta_ -->
<g id="edge52" class="edge">
<title>Biproduct_ab_biprod_rec_beta&#45;&gt;Biproduct_ab_biprod_rec_beta_</title>
<path fill="none" stroke="black" d="M178.6,-1150.36C255.99,-1090.34 519.48,-886.02 608.41,-817.05"/>
<polygon fill="black" stroke="black" points="610.7,-819.71 616.46,-810.81 606.41,-814.18 610.7,-819.71"/>
</g>
<!-- Biproduct_ab_biprod_rec_beta_&#45;&gt;Biproduct_ab_biprod_rec -->
<g id="edge53" class="edge">
<title>Biproduct_ab_biprod_rec_beta_&#45;&gt;Biproduct_ab_biprod_rec</title>
<path fill="none" stroke="black" d="M640.91,-774.83C650.17,-719.74 679.05,-547.94 690.38,-480.59"/>
<polygon fill="black" stroke="black" points="693.89,-480.79 692.1,-470.35 686.99,-479.63 693.89,-480.79"/>
</g>
<!-- Biproduct_ab_biprod_rec_beta_&#45;&gt;Biproduct_ab_biprod_inr -->
<g id="edge54" class="edge">
<title>Biproduct_ab_biprod_rec_beta_&#45;&gt;Biproduct_ab_biprod_inr</title>
<path fill="none" stroke="black" d="M661.43,-775.53C740.32,-719.69 996.36,-538.49 1085.81,-475.18"/>
<polygon fill="black" stroke="black" points="1088.04,-477.89 1094.18,-469.26 1083.99,-472.18 1088.04,-477.89"/>
</g>
<!-- Biproduct_ab_biprod_rec_beta_&#45;&gt;Biproduct_ab_biprod_inl -->
<g id="edge55" class="edge">
<title>Biproduct_ab_biprod_rec_beta_&#45;&gt;Biproduct_ab_biprod_inl</title>
<path fill="none" stroke="black" d="M653.57,-775.3C704.94,-719.84 869.19,-542.51 929.51,-477.39"/>
<polygon fill="black" stroke="black" points="932.11,-479.74 936.33,-470.02 926.97,-474.98 932.11,-479.74"/>
</g>
<!-- Biproduct_ab_biprod_rec_uncurried&#45;&gt;Biproduct_ab_biprod_rec -->
<g id="edge56" class="edge">
<title>Biproduct_ab_biprod_rec_uncurried&#45;&gt;Biproduct_ab_biprod_rec</title>
<path fill="none" stroke="black" d="M168.1,-775.53C259.72,-719.46 557.95,-536.97 660.21,-474.39"/>
<polygon fill="black" stroke="black" points="662.22,-477.27 668.93,-469.06 658.57,-471.3 662.22,-477.27"/>
</g>
<!-- Biproduct_ab_biprod_rec&#45;&gt;Biproduct_ab_biprod -->
<g id="edge57" class="edge">
<title>Biproduct_ab_biprod_rec&#45;&gt;Biproduct_ab_biprod</title>
<path fill="none" stroke="black" d="M739.37,-437.41C902,-387.21 1464.76,-213.48 1634.29,-161.14"/>
<polygon fill="black" stroke="black" points="1635.43,-164.46 1643.95,-158.16 1633.36,-157.77 1635.43,-164.46"/>
</g>
<!-- Biproduct_ab_biprod_pr2&#45;&gt;Biproduct_ab_biprod -->
<g id="edge58" class="edge">
<title>Biproduct_ab_biprod_pr2&#45;&gt;Biproduct_ab_biprod</title>
<path fill="none" stroke="black" d="M1601.87,-433.84C1616.18,-383.09 1658.17,-234.17 1675.44,-172.91"/>
<polygon fill="black" stroke="black" points="1678.84,-173.76 1678.18,-163.19 1672.1,-171.87 1678.84,-173.76"/>
</g>
<!-- Biproduct_ab_biprod_pr1&#45;&gt;Biproduct_ab_biprod -->
<g id="edge59" class="edge">
<title>Biproduct_ab_biprod_pr1&#45;&gt;Biproduct_ab_biprod</title>
<path fill="none" stroke="black" d="M1765.07,-433.84C1750.6,-383.09 1708.12,-234.17 1690.64,-172.91"/>
<polygon fill="black" stroke="black" points="1693.98,-171.85 1687.87,-163.19 1687.25,-173.77 1693.98,-171.85"/>
</g>
<!-- Biproduct_ab_biprod_inr&#45;&gt;Biproduct_ab_biprod -->
<g id="edge60" class="edge">
<title>Biproduct_ab_biprod_inr&#45;&gt;Biproduct_ab_biprod</title>
<path fill="none" stroke="black" d="M1146.24,-435.35C1241.38,-384.08 1542.05,-222.06 1646.68,-165.68"/>
<polygon fill="black" stroke="black" points="1648.46,-168.69 1655.61,-160.87 1645.14,-162.53 1648.46,-168.69"/>
</g>
<!-- Biproduct_ab_biprod_inl&#45;&gt;Biproduct_ab_biprod -->
<g id="edge61" class="edge">
<title>Biproduct_ab_biprod_inl&#45;&gt;Biproduct_ab_biprod</title>
<path fill="none" stroke="black" d="M987.75,-436.19C1109.68,-385.32 1508.87,-218.76 1640.48,-163.85"/>
<polygon fill="black" stroke="black" points="1641.97,-167.02 1649.85,-159.94 1639.28,-160.56 1641.97,-167.02"/>
</g>
</g>
</svg>
