<?xml version="1.0" encoding="UTF-8" standalone="no"?>
<!DOCTYPE svg PUBLIC "-//W3C//DTD SVG 1.1//EN"
 "http://www.w3.org/Graphics/SVG/1.1/DTD/svg11.dtd">
<!-- Generated by graphviz version 2.43.0 (0)
 -->
<!-- Title: HoTT_Homotopy_EMSpace Pages: 1 -->
<svg width="1470pt" height="739pt"
 viewBox="0.00 0.00 1470.00 739.00" xmlns="http://www.w3.org/2000/svg" xmlns:xlink="http://www.w3.org/1999/xlink">
<g id="graph0" class="graph" transform="scale(1 1) rotate(0) translate(4 735)">
<title>HoTT_Homotopy_EMSpace</title>
<polygon fill="white" stroke="transparent" points="-4,4 -4,-735 1466,-735 1466,4 -4,4"/>
<g id="clust1" class="cluster">
<title>cluster_EMSpace</title>
<polygon fill="#ffffc3" stroke="black" points="8.41,-8 8.41,-723 1453.59,-723 1453.59,-8 8.41,-8"/>
<text text-anchor="middle" x="50.41" y="-707.8" font-family="Times,serif" font-size="14.00">EMSpace</text>
</g>
<!-- EMSpace_equiv_deloop_em_pmap_unfold -->
<g id="node1" class="node">
<title>EMSpace_equiv_deloop_em_pmap_unfold</title>
<g id="a_node1"><a xlink:href="EMSpace.html#equiv_deloop_em_pmap_unfold" xlink:title="equiv_deloop_em_pmap_unfold">
<ellipse fill="#f070d1" stroke="black" cx="1100.66" cy="-506" rx="153.28" ry="18"/>
<ellipse fill="none" stroke="black" cx="1100.66" cy="-506" rx="157.28" ry="22"/>
<ellipse fill="none" stroke="black" cx="1100.66" cy="-506" rx="161.27" ry="26"/>
<text text-anchor="middle" x="1100.66" y="-502.3" font-family="Times,serif" font-size="14.00">equiv_deloop_em_pmap_unfold</text>
</a>
</g>
</g>
<!-- EMSpace_equiv_deloop_em_pmap -->
<g id="node2" class="node">
<title>EMSpace_equiv_deloop_em_pmap</title>
<g id="a_node2"><a xlink:href="EMSpace.html#equiv_deloop_em_pmap" xlink:title="equiv_deloop_em_pmap">
<ellipse fill="#f070d1" stroke="black" cx="1100.66" cy="-426" rx="120.48" ry="18"/>
<text text-anchor="middle" x="1100.66" y="-422.3" font-family="Times,serif" font-size="14.00">equiv_deloop_em_pmap</text>
</a>
</g>
</g>
<!-- EMSpace_equiv_deloop_em_pmap_unfold&#45;&gt;EMSpace_equiv_deloop_em_pmap -->
<g id="edge1" class="edge">
<title>EMSpace_equiv_deloop_em_pmap_unfold&#45;&gt;EMSpace_equiv_deloop_em_pmap</title>
<path fill="none" stroke="black" d="M1100.66,-479.89C1100.66,-471.84 1100.66,-462.88 1100.66,-454.66"/>
<polygon fill="black" stroke="black" points="1104.16,-454.41 1100.66,-444.41 1097.16,-454.41 1104.16,-454.41"/>
</g>
<!-- EMSpace_tau_ptr_psusp_em -->
<g id="node3" class="node">
<title>EMSpace_tau_ptr_psusp_em</title>
<g id="a_node3"><a xlink:href="EMSpace.html#tau_ptr_psusp_em" xlink:title="tau_ptr_psusp_em">
<ellipse fill="#f070d1" stroke="black" cx="1345.66" cy="-426" rx="94.78" ry="18"/>
<text text-anchor="middle" x="1345.66" y="-422.3" font-family="Times,serif" font-size="14.00">tau_ptr_psusp_em</text>
</a>
</g>
</g>
<!-- EMSpace_equiv_deloop_em_pmap_unfold&#45;&gt;EMSpace_tau_ptr_psusp_em -->
<g id="edge2" class="edge">
<title>EMSpace_equiv_deloop_em_pmap_unfold&#45;&gt;EMSpace_tau_ptr_psusp_em</title>
<path fill="none" stroke="black" d="M1171.19,-482.54C1208.79,-470.57 1254.41,-456.05 1289.57,-444.86"/>
<polygon fill="black" stroke="black" points="1290.73,-448.16 1299.2,-441.79 1288.6,-441.49 1290.73,-448.16"/>
</g>
<!-- EMSpace_loops_em_em_ptr_unit -->
<g id="node19" class="node">
<title>EMSpace_loops_em_em_ptr_unit</title>
<g id="a_node19"><a xlink:href="EMSpace.html#loops_em_em_ptr_unit" xlink:title="loops_em_em_ptr_unit">
<ellipse fill="#f070d1" stroke="black" cx="850.66" cy="-346" rx="113.98" ry="18"/>
<text text-anchor="middle" x="850.66" y="-342.3" font-family="Times,serif" font-size="14.00">loops_em_em_ptr_unit</text>
</a>
</g>
</g>
<!-- EMSpace_equiv_deloop_em_pmap_unfold&#45;&gt;EMSpace_loops_em_em_ptr_unit -->
<g id="edge3" class="edge">
<title>EMSpace_equiv_deloop_em_pmap_unfold&#45;&gt;EMSpace_loops_em_em_ptr_unit</title>
<path fill="none" stroke="black" d="M1039.96,-481.88C1017.47,-471.91 992.41,-459.06 971.66,-444 953.85,-431.07 954.31,-422.39 937.66,-408 921.52,-394.06 902.22,-380.27 885.9,-369.34"/>
<polygon fill="black" stroke="black" points="887.45,-366.17 877.18,-363.58 883.6,-372.01 887.45,-366.17"/>
</g>
<!-- EMSpace_pequiv_ptr_psusp_em -->
<g id="node4" class="node">
<title>EMSpace_pequiv_ptr_psusp_em</title>
<g id="a_node4"><a xlink:href="EMSpace.html#pequiv_ptr_psusp_em" xlink:title="pequiv_ptr_psusp_em">
<ellipse fill="#f070d1" stroke="black" cx="1329.66" cy="-346" rx="110.48" ry="18"/>
<text text-anchor="middle" x="1329.66" y="-342.3" font-family="Times,serif" font-size="14.00">pequiv_ptr_psusp_em</text>
</a>
</g>
</g>
<!-- EMSpace_equiv_deloop_em_pmap&#45;&gt;EMSpace_pequiv_ptr_psusp_em -->
<g id="edge4" class="edge">
<title>EMSpace_equiv_deloop_em_pmap&#45;&gt;EMSpace_pequiv_ptr_psusp_em</title>
<path fill="none" stroke="black" d="M1146.72,-409.31C1183.57,-396.76 1235.34,-379.12 1274.41,-365.82"/>
<polygon fill="black" stroke="black" points="1275.72,-369.07 1284.05,-362.53 1273.46,-362.44 1275.72,-369.07"/>
</g>
<!-- EMSpace_pequiv_loops_em_em -->
<g id="node26" class="node">
<title>EMSpace_pequiv_loops_em_em</title>
<g id="a_node26"><a xlink:href="EMSpace.html#pequiv_loops_em_em" xlink:title="pequiv_loops_em_em">
<ellipse fill="#f070d1" stroke="black" cx="695.66" cy="-266" rx="107.78" ry="18"/>
<text text-anchor="middle" x="695.66" y="-262.3" font-family="Times,serif" font-size="14.00">pequiv_loops_em_em</text>
</a>
</g>
</g>
<!-- EMSpace_equiv_deloop_em_pmap&#45;&gt;EMSpace_pequiv_loops_em_em -->
<g id="edge5" class="edge">
<title>EMSpace_equiv_deloop_em_pmap&#45;&gt;EMSpace_pequiv_loops_em_em</title>
<path fill="none" stroke="black" d="M1139.2,-408.71C1154.36,-400.16 1170.15,-388.06 1178.66,-372 1189.47,-351.58 1194.08,-337.21 1178.66,-320 1166.2,-306.11 940.21,-286.1 801.82,-275.07"/>
<polygon fill="black" stroke="black" points="801.85,-271.56 791.6,-274.25 801.29,-278.53 801.85,-271.56"/>
</g>
<!-- EMSpace_tau_ptr_psusp_em&#45;&gt;EMSpace_pequiv_ptr_psusp_em -->
<g id="edge6" class="edge">
<title>EMSpace_tau_ptr_psusp_em&#45;&gt;EMSpace_pequiv_ptr_psusp_em</title>
<path fill="none" stroke="black" d="M1342.11,-407.69C1340.08,-397.83 1337.5,-385.25 1335.22,-374.1"/>
<polygon fill="black" stroke="black" points="1338.58,-373.09 1333.14,-363.99 1331.72,-374.49 1338.58,-373.09"/>
</g>
<!-- EMSpace_pequiv_ptr_ptr_psusp_em -->
<g id="node5" class="node">
<title>EMSpace_pequiv_ptr_ptr_psusp_em</title>
<g id="a_node5"><a xlink:href="EMSpace.html#pequiv_ptr_ptr_psusp_em" xlink:title="pequiv_ptr_ptr_psusp_em">
<ellipse fill="#f070d1" stroke="black" cx="1126.66" cy="-106" rx="129.18" ry="18"/>
<text text-anchor="middle" x="1126.66" y="-102.3" font-family="Times,serif" font-size="14.00">pequiv_ptr_ptr_psusp_em</text>
</a>
</g>
</g>
<!-- EMSpace_pequiv_ptr_psusp_em&#45;&gt;EMSpace_pequiv_ptr_ptr_psusp_em -->
<g id="edge7" class="edge">
<title>EMSpace_pequiv_ptr_psusp_em&#45;&gt;EMSpace_pequiv_ptr_ptr_psusp_em</title>
<path fill="none" stroke="black" d="M1315.06,-327.88C1279.65,-286.37 1189.09,-180.2 1147.78,-131.76"/>
<polygon fill="black" stroke="black" points="1150.28,-129.3 1141.12,-123.96 1144.95,-133.84 1150.28,-129.3"/>
</g>
<!-- EMSpace_istrunc_ptr_psusp_em -->
<g id="node6" class="node">
<title>EMSpace_istrunc_ptr_psusp_em</title>
<g id="a_node6"><a xlink:href="EMSpace.html#istrunc_ptr_psusp_em" xlink:title="istrunc_ptr_psusp_em">
<ellipse fill="#f070d1" stroke="black" cx="1085.66" cy="-266" rx="112.38" ry="18"/>
<text text-anchor="middle" x="1085.66" y="-262.3" font-family="Times,serif" font-size="14.00">istrunc_ptr_psusp_em</text>
</a>
</g>
</g>
<!-- EMSpace_pequiv_ptr_psusp_em&#45;&gt;EMSpace_istrunc_ptr_psusp_em -->
<g id="edge8" class="edge">
<title>EMSpace_pequiv_ptr_psusp_em&#45;&gt;EMSpace_istrunc_ptr_psusp_em</title>
<path fill="none" stroke="black" d="M1281.74,-329.68C1242.08,-317.01 1185.62,-298.95 1143.46,-285.48"/>
<polygon fill="black" stroke="black" points="1144.47,-282.13 1133.88,-282.42 1142.34,-288.79 1144.47,-282.13"/>
</g>
<!-- EMSpace_EilenbergMacLane -->
<g id="node32" class="node">
<title>EMSpace_EilenbergMacLane</title>
<g id="a_node32"><a xlink:href="EMSpace.html#EilenbergMacLane" xlink:title="EilenbergMacLane">
<ellipse fill="#f070d1" stroke="black" cx="603.66" cy="-34" rx="98.28" ry="18"/>
<text text-anchor="middle" x="603.66" y="-30.3" font-family="Times,serif" font-size="14.00">EilenbergMacLane</text>
</a>
</g>
</g>
<!-- EMSpace_pequiv_ptr_ptr_psusp_em&#45;&gt;EMSpace_EilenbergMacLane -->
<g id="edge9" class="edge">
<title>EMSpace_pequiv_ptr_ptr_psusp_em&#45;&gt;EMSpace_EilenbergMacLane</title>
<path fill="none" stroke="black" d="M1037.05,-93.01C940.06,-80.03 786.45,-59.47 690.55,-46.63"/>
<polygon fill="black" stroke="black" points="690.96,-43.15 680.59,-45.3 690.03,-50.09 690.96,-43.15"/>
</g>
<!-- EMSpace_contr_pi_psusp_em -->
<g id="node7" class="node">
<title>EMSpace_contr_pi_psusp_em</title>
<g id="a_node7"><a xlink:href="EMSpace.html#contr_pi_psusp_em" xlink:title="contr_pi_psusp_em">
<ellipse fill="#f070d1" stroke="black" cx="899.66" cy="-186" rx="98.58" ry="18"/>
<text text-anchor="middle" x="899.66" y="-182.3" font-family="Times,serif" font-size="14.00">contr_pi_psusp_em</text>
</a>
</g>
</g>
<!-- EMSpace_istrunc_ptr_psusp_em&#45;&gt;EMSpace_contr_pi_psusp_em -->
<g id="edge10" class="edge">
<title>EMSpace_istrunc_ptr_psusp_em&#45;&gt;EMSpace_contr_pi_psusp_em</title>
<path fill="none" stroke="black" d="M1047.57,-249.03C1018.29,-236.75 977.69,-219.72 946.44,-206.62"/>
<polygon fill="black" stroke="black" points="947.63,-203.32 937.06,-202.68 944.93,-209.78 947.63,-203.32"/>
</g>
<!-- EMSpace_isconnected_em -->
<g id="node30" class="node">
<title>EMSpace_isconnected_em</title>
<g id="a_node30"><a xlink:href="EMSpace.html#isconnected_em" xlink:title="isconnected_em">
<ellipse fill="#f070d1" stroke="black" cx="603.66" cy="-106" rx="84.49" ry="18"/>
<text text-anchor="middle" x="603.66" y="-102.3" font-family="Times,serif" font-size="14.00">isconnected_em</text>
</a>
</g>
</g>
<!-- EMSpace_contr_pi_psusp_em&#45;&gt;EMSpace_isconnected_em -->
<g id="edge11" class="edge">
<title>EMSpace_contr_pi_psusp_em&#45;&gt;EMSpace_isconnected_em</title>
<path fill="none" stroke="black" d="M846.05,-170.87C794.92,-157.4 718,-137.13 664.57,-123.05"/>
<polygon fill="black" stroke="black" points="665.44,-119.66 654.88,-120.5 663.66,-126.43 665.44,-119.66"/>
</g>
<!-- EMSpace_istrunc_em -->
<g id="node31" class="node">
<title>EMSpace_istrunc_em</title>
<g id="a_node31"><a xlink:href="EMSpace.html#istrunc_em" xlink:title="istrunc_em">
<ellipse fill="#f070d1" stroke="black" cx="775.66" cy="-106" rx="61.99" ry="18"/>
<text text-anchor="middle" x="775.66" y="-102.3" font-family="Times,serif" font-size="14.00">istrunc_em</text>
</a>
</g>
</g>
<!-- EMSpace_contr_pi_psusp_em&#45;&gt;EMSpace_istrunc_em -->
<g id="edge12" class="edge">
<title>EMSpace_contr_pi_psusp_em&#45;&gt;EMSpace_istrunc_em</title>
<path fill="none" stroke="black" d="M873.36,-168.46C854.66,-156.69 829.38,-140.79 809.22,-128.11"/>
<polygon fill="black" stroke="black" points="810.98,-125.08 800.65,-122.72 807.25,-131.01 810.98,-125.08"/>
</g>
<!-- EMSpace_path_pmap_pi_connected -->
<g id="node8" class="node">
<title>EMSpace_path_pmap_pi_connected</title>
<g id="a_node8"><a xlink:href="EMSpace.html#path_pmap_pi_connected" xlink:title="path_pmap_pi_connected">
<ellipse fill="#f070d1" stroke="black" cx="499.66" cy="-666" rx="126.96" ry="18"/>
<ellipse fill="none" stroke="black" cx="499.66" cy="-666" rx="130.97" ry="22"/>
<ellipse fill="none" stroke="black" cx="499.66" cy="-666" rx="134.98" ry="26"/>
<text text-anchor="middle" x="499.66" y="-662.3" font-family="Times,serif" font-size="14.00">path_pmap_pi_connected</text>
</a>
</g>
</g>
<!-- EMSpace_pequiv_em_connected_truncated -->
<g id="node9" class="node">
<title>EMSpace_pequiv_em_connected_truncated</title>
<g id="a_node9"><a xlink:href="EMSpace.html#pequiv_em_connected_truncated" xlink:title="pequiv_em_connected_truncated">
<ellipse fill="#f070d1" stroke="black" cx="316.66" cy="-586" rx="161.67" ry="18"/>
<text text-anchor="middle" x="316.66" y="-582.3" font-family="Times,serif" font-size="14.00">pequiv_em_connected_truncated</text>
</a>
</g>
</g>
<!-- EMSpace_path_pmap_pi_connected&#45;&gt;EMSpace_pequiv_em_connected_truncated -->
<g id="edge13" class="edge">
<title>EMSpace_path_pmap_pi_connected&#45;&gt;EMSpace_pequiv_em_connected_truncated</title>
<path fill="none" stroke="black" d="M445.74,-642.02C420.03,-631.06 389.53,-618.06 364.63,-607.45"/>
<polygon fill="black" stroke="black" points="365.96,-604.21 355.39,-603.51 363.22,-610.65 365.96,-604.21"/>
</g>
<!-- EMSpace_path_em_pmap_pi -->
<g id="node10" class="node">
<title>EMSpace_path_em_pmap_pi</title>
<g id="a_node10"><a xlink:href="EMSpace.html#path_em_pmap_pi" xlink:title="path_em_pmap_pi">
<ellipse fill="#f070d1" stroke="black" cx="643.66" cy="-586" rx="93.68" ry="18"/>
<text text-anchor="middle" x="643.66" y="-582.3" font-family="Times,serif" font-size="14.00">path_em_pmap_pi</text>
</a>
</g>
</g>
<!-- EMSpace_path_pmap_pi_connected&#45;&gt;EMSpace_path_em_pmap_pi -->
<g id="edge14" class="edge">
<title>EMSpace_path_pmap_pi_connected&#45;&gt;EMSpace_path_em_pmap_pi</title>
<path fill="none" stroke="black" d="M543.25,-641.39C562.89,-630.75 585.88,-618.3 604.9,-607.99"/>
<polygon fill="black" stroke="black" points="606.76,-610.97 613.89,-603.12 603.43,-604.81 606.76,-610.97"/>
</g>
<!-- EMSpace_is1functor_em -->
<g id="node20" class="node">
<title>EMSpace_is1functor_em</title>
<g id="a_node20"><a xlink:href="EMSpace.html#is1functor_em" xlink:title="is1functor_em">
<ellipse fill="#f070d1" stroke="black" cx="118.66" cy="-426" rx="76.89" ry="18"/>
<text text-anchor="middle" x="118.66" y="-422.3" font-family="Times,serif" font-size="14.00">is1functor_em</text>
</a>
</g>
</g>
<!-- EMSpace_pequiv_em_connected_truncated&#45;&gt;EMSpace_is1functor_em -->
<g id="edge15" class="edge">
<title>EMSpace_pequiv_em_connected_truncated&#45;&gt;EMSpace_is1functor_em</title>
<path fill="none" stroke="black" d="M309.08,-567.73C297.2,-541.29 274.05,-492.53 259.66,-480 238.5,-461.57 210.31,-449.28 184.7,-441.22"/>
<polygon fill="black" stroke="black" points="185.61,-437.84 175.03,-438.33 183.61,-444.55 185.61,-437.84"/>
</g>
<!-- EMSpace_equiv_em_fmap -->
<g id="node11" class="node">
<title>EMSpace_equiv_em_fmap</title>
<g id="a_node11"><a xlink:href="EMSpace.html#equiv_em_fmap" xlink:title="equiv_em_fmap">
<ellipse fill="#f070d1" stroke="black" cx="643.66" cy="-506" rx="82.59" ry="18"/>
<text text-anchor="middle" x="643.66" y="-502.3" font-family="Times,serif" font-size="14.00">equiv_em_fmap</text>
</a>
</g>
</g>
<!-- EMSpace_path_em_pmap_pi&#45;&gt;EMSpace_equiv_em_fmap -->
<g id="edge16" class="edge">
<title>EMSpace_path_em_pmap_pi&#45;&gt;EMSpace_equiv_em_fmap</title>
<path fill="none" stroke="black" d="M643.66,-567.69C643.66,-557.89 643.66,-545.42 643.66,-534.33"/>
<polygon fill="black" stroke="black" points="647.16,-534.26 643.66,-524.26 640.16,-534.26 647.16,-534.26"/>
</g>
<!-- EMSpace_pi_em_fmap -->
<g id="node16" class="node">
<title>EMSpace_pi_em_fmap</title>
<g id="a_node16"><a xlink:href="EMSpace.html#pi_em_fmap" xlink:title="pi_em_fmap">
<ellipse fill="#f070d1" stroke="black" cx="817.66" cy="-506" rx="65.79" ry="18"/>
<text text-anchor="middle" x="817.66" y="-502.3" font-family="Times,serif" font-size="14.00">pi_em_fmap</text>
</a>
</g>
</g>
<!-- EMSpace_path_em_pmap_pi&#45;&gt;EMSpace_pi_em_fmap -->
<g id="edge17" class="edge">
<title>EMSpace_path_em_pmap_pi&#45;&gt;EMSpace_pi_em_fmap</title>
<path fill="none" stroke="black" d="M678.87,-569.22C706.82,-556.68 746,-539.12 775.6,-525.85"/>
<polygon fill="black" stroke="black" points="777.16,-528.99 784.85,-521.71 774.29,-522.6 777.16,-528.99"/>
</g>
<!-- EMSpace_isequiv_em_fmap -->
<g id="node12" class="node">
<title>EMSpace_isequiv_em_fmap</title>
<g id="a_node12"><a xlink:href="EMSpace.html#isequiv_em_fmap" xlink:title="isequiv_em_fmap">
<ellipse fill="#f070d1" stroke="black" cx="583.66" cy="-426" rx="90.18" ry="18"/>
<text text-anchor="middle" x="583.66" y="-422.3" font-family="Times,serif" font-size="14.00">isequiv_em_fmap</text>
</a>
</g>
</g>
<!-- EMSpace_equiv_em_fmap&#45;&gt;EMSpace_isequiv_em_fmap -->
<g id="edge18" class="edge">
<title>EMSpace_equiv_em_fmap&#45;&gt;EMSpace_isequiv_em_fmap</title>
<path fill="none" stroke="black" d="M630.64,-488.08C622.54,-477.55 611.98,-463.82 602.92,-452.05"/>
<polygon fill="black" stroke="black" points="605.52,-449.68 596.65,-443.89 599.97,-453.95 605.52,-449.68"/>
</g>
<!-- EMSpace_isequiv_em_fmap&#45;&gt;EMSpace_loops_em_em_ptr_unit -->
<g id="edge19" class="edge">
<title>EMSpace_isequiv_em_fmap&#45;&gt;EMSpace_loops_em_em_ptr_unit</title>
<path fill="none" stroke="black" d="M632.32,-410.78C676.41,-397.9 741.59,-378.86 789.25,-364.94"/>
<polygon fill="black" stroke="black" points="790.53,-368.21 799.14,-362.05 788.56,-361.49 790.53,-368.21"/>
</g>
<!-- EMSpace_is0functor_em -->
<g id="node21" class="node">
<title>EMSpace_is0functor_em</title>
<g id="a_node21"><a xlink:href="EMSpace.html#is0functor_em" xlink:title="is0functor_em">
<ellipse fill="#f070d1" stroke="black" cx="171.66" cy="-346" rx="76.89" ry="18"/>
<text text-anchor="middle" x="171.66" y="-342.3" font-family="Times,serif" font-size="14.00">is0functor_em</text>
</a>
</g>
</g>
<!-- EMSpace_isequiv_em_fmap&#45;&gt;EMSpace_is0functor_em -->
<g id="edge20" class="edge">
<title>EMSpace_isequiv_em_fmap&#45;&gt;EMSpace_is0functor_em</title>
<path fill="none" stroke="black" d="M514.9,-414.2C436.61,-401.77 313.62,-381.82 267.66,-372 255.16,-369.33 241.85,-366.11 229.24,-362.88"/>
<polygon fill="black" stroke="black" points="229.87,-359.43 219.31,-360.3 228.11,-366.2 229.87,-359.43"/>
</g>
<!-- EMSpace_isconnmap_em_fmap -->
<g id="node13" class="node">
<title>EMSpace_isconnmap_em_fmap</title>
<g id="a_node13"><a xlink:href="EMSpace.html#isconnmap_em_fmap" xlink:title="isconnmap_em_fmap">
<ellipse fill="#f070d1" stroke="black" cx="417.66" cy="-506" rx="106.67" ry="18"/>
<ellipse fill="none" stroke="black" cx="417.66" cy="-506" rx="110.68" ry="22"/>
<ellipse fill="none" stroke="black" cx="417.66" cy="-506" rx="114.68" ry="26"/>
<text text-anchor="middle" x="417.66" y="-502.3" font-family="Times,serif" font-size="14.00">isconnmap_em_fmap</text>
</a>
</g>
</g>
<!-- EMSpace_em_fmap_loops_natural -->
<g id="node18" class="node">
<title>EMSpace_em_fmap_loops_natural</title>
<g id="a_node18"><a xlink:href="EMSpace.html#em_fmap_loops_natural" xlink:title="em_fmap_loops_natural">
<ellipse fill="#f070d1" stroke="black" cx="343.66" cy="-426" rx="119.68" ry="18"/>
<text text-anchor="middle" x="343.66" y="-422.3" font-family="Times,serif" font-size="14.00">em_fmap_loops_natural</text>
</a>
</g>
</g>
<!-- EMSpace_isconnmap_em_fmap&#45;&gt;EMSpace_em_fmap_loops_natural -->
<g id="edge21" class="edge">
<title>EMSpace_isconnmap_em_fmap&#45;&gt;EMSpace_em_fmap_loops_natural</title>
<path fill="none" stroke="black" d="M394.24,-480.32C385.51,-471.11 375.6,-460.67 366.89,-451.49"/>
<polygon fill="black" stroke="black" points="369.32,-448.96 359.9,-444.12 364.24,-453.78 369.32,-448.96"/>
</g>
<!-- EMSpace_ispointedfunctor_em -->
<g id="node14" class="node">
<title>EMSpace_ispointedfunctor_em</title>
<g id="a_node14"><a xlink:href="EMSpace.html#ispointedfunctor_em" xlink:title="ispointedfunctor_em">
<ellipse fill="#f070d1" stroke="black" cx="136.66" cy="-506" rx="105.89" ry="18"/>
<ellipse fill="none" stroke="black" cx="136.66" cy="-506" rx="109.88" ry="22"/>
<ellipse fill="none" stroke="black" cx="136.66" cy="-506" rx="113.88" ry="26"/>
<text text-anchor="middle" x="136.66" y="-502.3" font-family="Times,serif" font-size="14.00">ispointedfunctor_em</text>
</a>
</g>
</g>
<!-- EMSpace_contr_em_contr -->
<g id="node15" class="node">
<title>EMSpace_contr_em_contr</title>
<g id="a_node15"><a xlink:href="EMSpace.html#contr_em_contr" xlink:title="contr_em_contr">
<ellipse fill="#f070d1" stroke="black" cx="137.66" cy="-106" rx="82.59" ry="18"/>
<text text-anchor="middle" x="137.66" y="-102.3" font-family="Times,serif" font-size="14.00">contr_em_contr</text>
</a>
</g>
</g>
<!-- EMSpace_ispointedfunctor_em&#45;&gt;EMSpace_contr_em_contr -->
<g id="edge22" class="edge">
<title>EMSpace_ispointedfunctor_em&#45;&gt;EMSpace_contr_em_contr</title>
<path fill="none" stroke="black" d="M79.89,-483.36C62.13,-473.88 44.19,-460.97 32.66,-444 8.14,-407.92 17.66,-390.62 17.66,-347 17.66,-347 17.66,-347 17.66,-265 17.66,-217.79 6.02,-198.27 33.66,-160 45.02,-144.27 62.43,-132.89 79.78,-124.81"/>
<polygon fill="black" stroke="black" points="81.59,-127.84 89.37,-120.65 78.81,-121.41 81.59,-127.84"/>
</g>
<!-- EMSpace_ispointedfunctor_em&#45;&gt;EMSpace_is1functor_em -->
<g id="edge23" class="edge">
<title>EMSpace_ispointedfunctor_em&#45;&gt;EMSpace_is1functor_em</title>
<path fill="none" stroke="black" d="M130.86,-479.89C128.98,-471.75 126.89,-462.68 124.97,-454.38"/>
<polygon fill="black" stroke="black" points="128.33,-453.37 122.67,-444.41 121.51,-454.94 128.33,-453.37"/>
</g>
<!-- EMSpace_contr_em_contr&#45;&gt;EMSpace_EilenbergMacLane -->
<g id="edge24" class="edge">
<title>EMSpace_contr_em_contr&#45;&gt;EMSpace_EilenbergMacLane</title>
<path fill="none" stroke="black" d="M203.43,-95.12C286.5,-82.64 429.49,-61.16 520.18,-47.54"/>
<polygon fill="black" stroke="black" points="520.78,-50.99 530.15,-46.04 519.74,-44.07 520.78,-50.99"/>
</g>
<!-- EMSpace_equiv_g_pi_n_em_succ -->
<g id="node17" class="node">
<title>EMSpace_equiv_g_pi_n_em_succ</title>
<g id="a_node17"><a xlink:href="EMSpace.html#equiv_g_pi_n_em_succ" xlink:title="equiv_g_pi_n_em_succ">
<ellipse fill="#f070d1" stroke="black" cx="815.66" cy="-426" rx="113.18" ry="18"/>
<text text-anchor="middle" x="815.66" y="-422.3" font-family="Times,serif" font-size="14.00">equiv_g_pi_n_em_succ</text>
</a>
</g>
</g>
<!-- EMSpace_pi_em_fmap&#45;&gt;EMSpace_equiv_g_pi_n_em_succ -->
<g id="edge25" class="edge">
<title>EMSpace_pi_em_fmap&#45;&gt;EMSpace_equiv_g_pi_n_em_succ</title>
<path fill="none" stroke="black" d="M817.21,-487.69C816.96,-477.89 816.64,-465.42 816.36,-454.33"/>
<polygon fill="black" stroke="black" points="819.85,-454.17 816.1,-444.26 812.86,-454.35 819.85,-454.17"/>
</g>
<!-- EMSpace_pi_em_fmap&#45;&gt;EMSpace_em_fmap_loops_natural -->
<g id="edge26" class="edge">
<title>EMSpace_pi_em_fmap&#45;&gt;EMSpace_em_fmap_loops_natural</title>
<path fill="none" stroke="black" d="M777.96,-491.48C764.64,-487.33 749.61,-483.05 735.66,-480 707.59,-473.87 548.7,-453.1 442.02,-439.46"/>
<polygon fill="black" stroke="black" points="442.23,-435.96 431.87,-438.16 441.34,-442.9 442.23,-435.96"/>
</g>
<!-- EMSpace_equiv_g_pi_n_em -->
<g id="node24" class="node">
<title>EMSpace_equiv_g_pi_n_em</title>
<g id="a_node24"><a xlink:href="EMSpace.html#equiv_g_pi_n_em" xlink:title="equiv_g_pi_n_em">
<ellipse fill="#f070d1" stroke="black" cx="1081.66" cy="-346" rx="88.28" ry="18"/>
<text text-anchor="middle" x="1081.66" y="-342.3" font-family="Times,serif" font-size="14.00">equiv_g_pi_n_em</text>
</a>
</g>
</g>
<!-- EMSpace_equiv_g_pi_n_em_succ&#45;&gt;EMSpace_equiv_g_pi_n_em -->
<g id="edge27" class="edge">
<title>EMSpace_equiv_g_pi_n_em_succ&#45;&gt;EMSpace_equiv_g_pi_n_em</title>
<path fill="none" stroke="black" d="M867.26,-409.87C912.11,-396.72 977.04,-377.68 1023.67,-364"/>
<polygon fill="black" stroke="black" points="1024.72,-367.34 1033.33,-361.17 1022.75,-360.63 1024.72,-367.34"/>
</g>
<!-- EMSpace_em_fmap_loops_natural&#45;&gt;EMSpace_loops_em_em_ptr_unit -->
<g id="edge28" class="edge">
<title>EMSpace_em_fmap_loops_natural&#45;&gt;EMSpace_loops_em_em_ptr_unit</title>
<path fill="none" stroke="black" d="M431,-413.6C506.49,-403.5 618.45,-387.92 715.66,-372 733.82,-369.03 753.3,-365.57 771.66,-362.2"/>
<polygon fill="black" stroke="black" points="772.53,-365.6 781.73,-360.34 771.26,-358.71 772.53,-365.6"/>
</g>
<!-- EMSpace_em_fmap_loops_natural&#45;&gt;EMSpace_is0functor_em -->
<g id="edge29" class="edge">
<title>EMSpace_em_fmap_loops_natural&#45;&gt;EMSpace_is0functor_em</title>
<path fill="none" stroke="black" d="M307.6,-408.65C280.52,-396.37 243.32,-379.5 214.69,-366.51"/>
<polygon fill="black" stroke="black" points="215.88,-363.21 205.33,-362.27 212.99,-369.59 215.88,-363.21"/>
</g>
<!-- EMSpace_loops_em_em_ptr_unit&#45;&gt;EMSpace_pequiv_loops_em_em -->
<g id="edge30" class="edge">
<title>EMSpace_loops_em_em_ptr_unit&#45;&gt;EMSpace_pequiv_loops_em_em</title>
<path fill="none" stroke="black" d="M818.16,-328.65C794.52,-316.75 762.33,-300.55 736.88,-287.75"/>
<polygon fill="black" stroke="black" points="738.35,-284.56 727.84,-283.2 735.2,-290.82 738.35,-284.56"/>
</g>
<!-- EMSpace_is1functor_em&#45;&gt;EMSpace_is0functor_em -->
<g id="edge31" class="edge">
<title>EMSpace_is1functor_em&#45;&gt;EMSpace_is0functor_em</title>
<path fill="none" stroke="black" d="M130.16,-408.08C137.24,-397.65 146.46,-384.09 154.4,-372.39"/>
<polygon fill="black" stroke="black" points="157.45,-374.13 160.18,-363.89 151.66,-370.2 157.45,-374.13"/>
</g>
<!-- EMSpace_is1functor_em&#45;&gt;EMSpace_istrunc_em -->
<g id="edge32" class="edge">
<title>EMSpace_is1functor_em&#45;&gt;EMSpace_istrunc_em</title>
<path fill="none" stroke="black" d="M104.67,-408.04C97.46,-398.18 89.41,-385.13 85.66,-372 79.3,-349.78 74.98,-340.5 85.66,-320 124.62,-245.22 176.17,-265.13 241.66,-212 267.53,-191.01 265.34,-173.83 295.66,-160 377.05,-122.86 608.2,-137.44 696.66,-124 703.99,-122.89 711.66,-121.51 719.21,-120.02"/>
<polygon fill="black" stroke="black" points="719.94,-123.45 729.04,-118.02 718.55,-116.59 719.94,-123.45"/>
</g>
<!-- EMSpace_K_ -->
<g id="node22" class="node">
<title>EMSpace_K_</title>
<g id="a_node22"><a xlink:href="EMSpace.html#K'" xlink:title="K&#39;">
<ellipse fill="#f070d1" stroke="black" cx="224.66" cy="-266" rx="27" ry="18"/>
<text text-anchor="middle" x="224.66" y="-262.3" font-family="Times,serif" font-size="14.00">K&#39;</text>
</a>
</g>
</g>
<!-- EMSpace_is0functor_em&#45;&gt;EMSpace_K_ -->
<g id="edge33" class="edge">
<title>EMSpace_is0functor_em&#45;&gt;EMSpace_K_</title>
<path fill="none" stroke="black" d="M183.16,-328.08C190.56,-317.19 200.28,-302.88 208.46,-290.84"/>
<polygon fill="black" stroke="black" points="211.35,-292.8 214.08,-282.57 205.56,-288.87 211.35,-292.8"/>
</g>
<!-- EMSpace_K_&#45;&gt;EMSpace_EilenbergMacLane -->
<g id="edge34" class="edge">
<title>EMSpace_K_&#45;&gt;EMSpace_EilenbergMacLane</title>
<path fill="none" stroke="black" d="M231.94,-248.56C242.78,-225.79 265.22,-184.66 295.66,-160 366.24,-102.82 466.48,-68.69 533.22,-50.89"/>
<polygon fill="black" stroke="black" points="534.43,-54.19 543.22,-48.28 532.66,-47.42 534.43,-54.19"/>
</g>
<!-- EMSpace_iscohhspace_em -->
<g id="node23" class="node">
<title>EMSpace_iscohhspace_em</title>
<g id="a_node23"><a xlink:href="EMSpace.html#iscohhspace_em" xlink:title="iscohhspace_em">
<ellipse fill="#f070d1" stroke="black" cx="613.66" cy="-346" rx="85.27" ry="18"/>
<ellipse fill="none" stroke="black" cx="613.66" cy="-346" rx="89.28" ry="22"/>
<ellipse fill="none" stroke="black" cx="613.66" cy="-346" rx="93.29" ry="26"/>
<text text-anchor="middle" x="613.66" y="-342.3" font-family="Times,serif" font-size="14.00">iscohhspace_em</text>
</a>
</g>
</g>
<!-- EMSpace_iscohhspace_em&#45;&gt;EMSpace_pequiv_loops_em_em -->
<g id="edge35" class="edge">
<title>EMSpace_iscohhspace_em&#45;&gt;EMSpace_pequiv_loops_em_em</title>
<path fill="none" stroke="black" d="M639.15,-320.75C649.19,-311.2 660.69,-300.26 670.68,-290.76"/>
<polygon fill="black" stroke="black" points="673.14,-293.25 677.97,-283.82 668.32,-288.18 673.14,-293.25"/>
</g>
<!-- EMSpace_equiv_g_pi_n_em&#45;&gt;EMSpace_pequiv_loops_em_em -->
<g id="edge36" class="edge">
<title>EMSpace_equiv_g_pi_n_em&#45;&gt;EMSpace_pequiv_loops_em_em</title>
<path fill="none" stroke="black" d="M1026.81,-331.87C1009.8,-327.91 990.98,-323.66 973.66,-320 907.35,-306.01 831.8,-291.71 776.22,-281.5"/>
<polygon fill="black" stroke="black" points="776.54,-278 766.07,-279.64 775.28,-284.88 776.54,-278"/>
</g>
<!-- EMSpace_pequiv_loops_em_g -->
<g id="node25" class="node">
<title>EMSpace_pequiv_loops_em_g</title>
<g id="a_node25"><a xlink:href="EMSpace.html#pequiv_loops_em_g" xlink:title="pequiv_loops_em_g">
<ellipse fill="#f070d1" stroke="black" cx="383.66" cy="-346" rx="99.39" ry="18"/>
<ellipse fill="none" stroke="black" cx="383.66" cy="-346" rx="103.38" ry="22"/>
<ellipse fill="none" stroke="black" cx="383.66" cy="-346" rx="107.38" ry="26"/>
<text text-anchor="middle" x="383.66" y="-342.3" font-family="Times,serif" font-size="14.00">pequiv_loops_em_g</text>
</a>
</g>
</g>
<!-- EMSpace_pequiv_loops_em_g&#45;&gt;EMSpace_pequiv_loops_em_em -->
<g id="edge37" class="edge">
<title>EMSpace_pequiv_loops_em_g&#45;&gt;EMSpace_pequiv_loops_em_em</title>
<path fill="none" stroke="black" d="M456.41,-326.81C508.41,-313.81 577.85,-296.45 628.52,-283.78"/>
<polygon fill="black" stroke="black" points="629.54,-287.14 638.39,-281.32 627.84,-280.35 629.54,-287.14"/>
</g>
<!-- EMSpace_pequiv_ptr_loop_psusp_ -->
<g id="node27" class="node">
<title>EMSpace_pequiv_ptr_loop_psusp_</title>
<g id="a_node27"><a xlink:href="EMSpace.html#pequiv_ptr_loop_psusp'" xlink:title="pequiv_ptr_loop_psusp&#39;">
<ellipse fill="#f070d1" stroke="black" cx="422.66" cy="-186" rx="118.08" ry="18"/>
<text text-anchor="middle" x="422.66" y="-182.3" font-family="Times,serif" font-size="14.00">pequiv_ptr_loop_psusp&#39;</text>
</a>
</g>
</g>
<!-- EMSpace_pequiv_loops_em_em&#45;&gt;EMSpace_pequiv_ptr_loop_psusp_ -->
<g id="edge38" class="edge">
<title>EMSpace_pequiv_loops_em_em&#45;&gt;EMSpace_pequiv_ptr_loop_psusp_</title>
<path fill="none" stroke="black" d="M643.66,-250.15C598.65,-237.28 533.43,-218.65 485.5,-204.96"/>
<polygon fill="black" stroke="black" points="486.43,-201.58 475.85,-202.2 484.51,-208.31 486.43,-201.58"/>
</g>
<!-- EMSpace_is0connected_em -->
<g id="node28" class="node">
<title>EMSpace_is0connected_em</title>
<g id="a_node28"><a xlink:href="EMSpace.html#is0connected_em" xlink:title="is0connected_em">
<ellipse fill="#f070d1" stroke="black" cx="660.66" cy="-186" rx="90.18" ry="18"/>
<text text-anchor="middle" x="660.66" y="-182.3" font-family="Times,serif" font-size="14.00">is0connected_em</text>
</a>
</g>
</g>
<!-- EMSpace_pequiv_loops_em_em&#45;&gt;EMSpace_is0connected_em -->
<g id="edge39" class="edge">
<title>EMSpace_pequiv_loops_em_em&#45;&gt;EMSpace_is0connected_em</title>
<path fill="none" stroke="black" d="M687.89,-247.69C683.37,-237.62 677.59,-224.73 672.51,-213.42"/>
<polygon fill="black" stroke="black" points="675.57,-211.68 668.28,-203.99 669.18,-214.55 675.57,-211.68"/>
</g>
<!-- EMSpace_pequiv_loops_em_em&#45;&gt;EMSpace_istrunc_em -->
<g id="edge40" class="edge">
<title>EMSpace_pequiv_loops_em_em&#45;&gt;EMSpace_istrunc_em</title>
<path fill="none" stroke="black" d="M723.76,-248.55C736.77,-239.44 751.2,-226.94 759.66,-212 773.16,-188.14 776.38,-156.58 776.7,-134.31"/>
<polygon fill="black" stroke="black" points="780.2,-134.19 776.66,-124.2 773.2,-134.22 780.2,-134.19"/>
</g>
<!-- EMSpace_is0connected_em&#45;&gt;EMSpace_isconnected_em -->
<g id="edge41" class="edge">
<title>EMSpace_is0connected_em&#45;&gt;EMSpace_isconnected_em</title>
<path fill="none" stroke="black" d="M648.29,-168.08C640.59,-157.55 630.56,-143.82 621.96,-132.05"/>
<polygon fill="black" stroke="black" points="624.73,-129.9 616,-123.89 619.07,-134.03 624.73,-129.9"/>
</g>
<!-- EMSpace_isconnected_em_ -->
<g id="node29" class="node">
<title>EMSpace_isconnected_em_</title>
<g id="a_node29"><a xlink:href="EMSpace.html#isconnected_em'" xlink:title="isconnected_em&#39;">
<ellipse fill="#f070d1" stroke="black" cx="137.66" cy="-186" rx="87.18" ry="18"/>
<ellipse fill="none" stroke="black" cx="137.66" cy="-186" rx="91.18" ry="22"/>
<ellipse fill="none" stroke="black" cx="137.66" cy="-186" rx="95.18" ry="26"/>
<text text-anchor="middle" x="137.66" y="-182.3" font-family="Times,serif" font-size="14.00">isconnected_em&#39;</text>
</a>
</g>
</g>
<!-- EMSpace_isconnected_em_&#45;&gt;EMSpace_isconnected_em -->
<g id="edge42" class="edge">
<title>EMSpace_isconnected_em_&#45;&gt;EMSpace_isconnected_em</title>
<path fill="none" stroke="black" d="M208.98,-168.75C223.4,-165.67 238.49,-162.61 252.66,-160 345.23,-142.97 452.29,-127.39 523.59,-117.6"/>
<polygon fill="black" stroke="black" points="524.41,-121.02 533.84,-116.2 523.46,-114.08 524.41,-121.02"/>
</g>
<!-- EMSpace_isconnected_em&#45;&gt;EMSpace_EilenbergMacLane -->
<g id="edge43" class="edge">
<title>EMSpace_isconnected_em&#45;&gt;EMSpace_EilenbergMacLane</title>
<path fill="none" stroke="black" d="M603.66,-87.7C603.66,-79.98 603.66,-70.71 603.66,-62.11"/>
<polygon fill="black" stroke="black" points="607.16,-62.1 603.66,-52.1 600.16,-62.1 607.16,-62.1"/>
</g>
<!-- EMSpace_istrunc_em&#45;&gt;EMSpace_EilenbergMacLane -->
<g id="edge44" class="edge">
<title>EMSpace_istrunc_em&#45;&gt;EMSpace_EilenbergMacLane</title>
<path fill="none" stroke="black" d="M741.26,-91C715.54,-80.54 680.05,-66.09 651.56,-54.49"/>
<polygon fill="black" stroke="black" points="652.77,-51.21 642.19,-50.68 650.13,-57.69 652.77,-51.21"/>
</g>
</g>
</svg>
