<?xml version="1.0" encoding="UTF-8" standalone="no"?>
<!DOCTYPE svg PUBLIC "-//W3C//DTD SVG 1.1//EN"
 "http://www.w3.org/Graphics/SVG/1.1/DTD/svg11.dtd">
<!-- Generated by graphviz version 2.43.0 (0)
 -->
<!-- Title: HoTT_Algebra_Rings_Vector Pages: 1 -->
<svg width="3099pt" height="1544pt"
 viewBox="0.00 0.00 3098.99 1543.50" xmlns="http://www.w3.org/2000/svg" xmlns:xlink="http://www.w3.org/1999/xlink">
<g id="graph0" class="graph" transform="scale(1 1) rotate(0) translate(4 1539.5)">
<title>HoTT_Algebra_Rings_Vector</title>
<polygon fill="white" stroke="transparent" points="-4,4 -4,-1539.5 3094.99,-1539.5 3094.99,4 -4,4"/>
<g id="clust1" class="cluster">
<title>cluster_Vector</title>
<polygon fill="#ffffc3" stroke="black" points="8,-22.13 8,-1513.37 3063,-1513.37 3063,-22.13 8,-22.13"/>
<text text-anchor="middle" x="39" y="-1498.17" font-family="Times,serif" font-size="14.00">Vector</text>
</g>
<!-- Vector_isleftmodule_isleftmodule_vector -->
<g id="node1" class="node">
<title>Vector_isleftmodule_isleftmodule_vector</title>
<g id="a_node1"><a xlink:href="Vector.html#isleftmodule_isleftmodule_vector" xlink:title="isleftmodule_isleftmodule_vector">
<ellipse fill="#f070d1" stroke="black" cx="824" cy="-1356.13" rx="163.58" ry="18"/>
<ellipse fill="none" stroke="black" cx="824" cy="-1356.13" rx="167.58" ry="22"/>
<ellipse fill="none" stroke="black" cx="824" cy="-1356.13" rx="171.57" ry="26"/>
<text text-anchor="middle" x="824" y="-1352.43" font-family="Times,serif" font-size="14.00">isleftmodule_isleftmodule_vector</text>
</a>
</g>
</g>
<!-- Vector_left_identity_vector_lact -->
<g id="node2" class="node">
<title>Vector_left_identity_vector_lact</title>
<g id="a_node2"><a xlink:href="Vector.html#left_identity_vector_lact" xlink:title="left_identity_vector_lact">
<ellipse fill="#f070d1" stroke="black" cx="498" cy="-935.13" rx="122.38" ry="18"/>
<text text-anchor="middle" x="498" y="-931.43" font-family="Times,serif" font-size="14.00">left_identity_vector_lact</text>
</a>
</g>
</g>
<!-- Vector_isleftmodule_isleftmodule_vector&#45;&gt;Vector_left_identity_vector_lact -->
<g id="edge1" class="edge">
<title>Vector_isleftmodule_isleftmodule_vector&#45;&gt;Vector_left_identity_vector_lact</title>
<path fill="none" stroke="black" d="M804.58,-1330.18C746.64,-1255.71 575.4,-1035.61 517.43,-961.11"/>
<polygon fill="black" stroke="black" points="520.15,-958.91 511.25,-953.16 514.63,-963.21 520.15,-958.91"/>
</g>
<!-- Vector_heteroassociative_vector_lact_plus -->
<g id="node3" class="node">
<title>Vector_heteroassociative_vector_lact_plus</title>
<g id="a_node3"><a xlink:href="Vector.html#heteroassociative_vector_lact_plus" xlink:title="heteroassociative_vector_lact_plus">
<ellipse fill="#f070d1" stroke="black" cx="187" cy="-935.13" rx="170.87" ry="18"/>
<text text-anchor="middle" x="187" y="-931.43" font-family="Times,serif" font-size="14.00">heteroassociative_vector_lact_plus</text>
</a>
</g>
</g>
<!-- Vector_isleftmodule_isleftmodule_vector&#45;&gt;Vector_heteroassociative_vector_lact_plus -->
<g id="edge2" class="edge">
<title>Vector_isleftmodule_isleftmodule_vector&#45;&gt;Vector_heteroassociative_vector_lact_plus</title>
<path fill="none" stroke="black" d="M786.53,-1330.49C672.41,-1255.42 330.27,-1030.37 220.97,-958.48"/>
<polygon fill="black" stroke="black" points="222.89,-955.55 212.61,-952.98 219.04,-961.4 222.89,-955.55"/>
</g>
<!-- Vector_right_heterodistribute_vector_lact_plus -->
<g id="node4" class="node">
<title>Vector_right_heterodistribute_vector_lact_plus</title>
<g id="a_node4"><a xlink:href="Vector.html#right_heterodistribute_vector_lact_plus" xlink:title="right_heterodistribute_vector_lact_plus">
<ellipse fill="#f070d1" stroke="black" cx="1221" cy="-935.13" rx="193.07" ry="18"/>
<text text-anchor="middle" x="1221" y="-931.43" font-family="Times,serif" font-size="14.00">right_heterodistribute_vector_lact_plus</text>
</a>
</g>
</g>
<!-- Vector_isleftmodule_isleftmodule_vector&#45;&gt;Vector_right_heterodistribute_vector_lact_plus -->
<g id="edge3" class="edge">
<title>Vector_isleftmodule_isleftmodule_vector&#45;&gt;Vector_right_heterodistribute_vector_lact_plus</title>
<path fill="none" stroke="black" d="M847.65,-1330.18C918.35,-1255.55 1127.59,-1034.72 1197.76,-960.66"/>
<polygon fill="black" stroke="black" points="1200.53,-962.83 1204.86,-953.16 1195.45,-958.02 1200.53,-962.83"/>
</g>
<!-- Vector_left_heterodistribute_vector_lact_plus -->
<g id="node5" class="node">
<title>Vector_left_heterodistribute_vector_lact_plus</title>
<g id="a_node5"><a xlink:href="Vector.html#left_heterodistribute_vector_lact_plus" xlink:title="left_heterodistribute_vector_lact_plus">
<ellipse fill="#f070d1" stroke="black" cx="824" cy="-935.13" rx="185.77" ry="18"/>
<text text-anchor="middle" x="824" y="-931.43" font-family="Times,serif" font-size="14.00">left_heterodistribute_vector_lact_plus</text>
</a>
</g>
</g>
<!-- Vector_isleftmodule_isleftmodule_vector&#45;&gt;Vector_left_heterodistribute_vector_lact_plus -->
<g id="edge4" class="edge">
<title>Vector_isleftmodule_isleftmodule_vector&#45;&gt;Vector_left_heterodistribute_vector_lact_plus</title>
<path fill="none" stroke="black" d="M824,-1329.87C824,-1256 824,-1040.83 824,-963.89"/>
<polygon fill="black" stroke="black" points="827.5,-963.57 824,-953.57 820.5,-963.57 827.5,-963.57"/>
</g>
<!-- Vector_abgroup_vector -->
<g id="node7" class="node">
<title>Vector_abgroup_vector</title>
<g id="a_node7"><a xlink:href="Vector.html#abgroup_vector" xlink:title="abgroup_vector">
<ellipse fill="#f070d1" stroke="black" cx="2226" cy="-1134.13" rx="83.39" ry="18"/>
<text text-anchor="middle" x="2226" y="-1130.43" font-family="Times,serif" font-size="14.00">abgroup_vector</text>
</a>
</g>
</g>
<!-- Vector_isleftmodule_isleftmodule_vector&#45;&gt;Vector_abgroup_vector -->
<g id="edge5" class="edge">
<title>Vector_isleftmodule_isleftmodule_vector&#45;&gt;Vector_abgroup_vector</title>
<path fill="none" stroke="black" d="M939.92,-1336.94C1218.54,-1293.22 1919.79,-1183.18 2150.86,-1146.92"/>
<polygon fill="black" stroke="black" points="2151.51,-1150.36 2160.85,-1145.36 2150.43,-1143.45 2151.51,-1150.36"/>
</g>
<!-- Vector_vector_lact -->
<g id="node6" class="node">
<title>Vector_vector_lact</title>
<g id="a_node6"><a xlink:href="Vector.html#vector_lact" xlink:title="vector_lact">
<ellipse fill="#f070d1" stroke="black" cx="824" cy="-736.13" rx="61.99" ry="18"/>
<text text-anchor="middle" x="824" y="-732.43" font-family="Times,serif" font-size="14.00">vector_lact</text>
</a>
</g>
</g>
<!-- Vector_left_identity_vector_lact&#45;&gt;Vector_vector_lact -->
<g id="edge6" class="edge">
<title>Vector_left_identity_vector_lact&#45;&gt;Vector_vector_lact</title>
<path fill="none" stroke="black" d="M525.51,-917.51C584.89,-881.63 724.91,-797.01 789.84,-757.78"/>
<polygon fill="black" stroke="black" points="791.74,-760.72 798.49,-752.55 788.12,-754.73 791.74,-760.72"/>
</g>
<!-- Vector_path_vector -->
<g id="node20" class="node">
<title>Vector_path_vector</title>
<g id="a_node20"><a xlink:href="Vector.html#path_vector" xlink:title="path_vector">
<ellipse fill="#f070d1" stroke="black" cx="1670" cy="-736.13" rx="65.79" ry="18"/>
<text text-anchor="middle" x="1670" y="-732.43" font-family="Times,serif" font-size="14.00">path_vector</text>
</a>
</g>
</g>
<!-- Vector_left_identity_vector_lact&#45;&gt;Vector_path_vector -->
<g id="edge7" class="edge">
<title>Vector_left_identity_vector_lact&#45;&gt;Vector_path_vector</title>
<path fill="none" stroke="black" d="M575.35,-921.13C792.52,-884.63 1405.02,-781.67 1605.56,-747.97"/>
<polygon fill="black" stroke="black" points="1606.36,-751.38 1615.64,-746.27 1605.2,-744.48 1606.36,-751.38"/>
</g>
<!-- Vector_entry_Build_Vector -->
<g id="node22" class="node">
<title>Vector_entry_Build_Vector</title>
<g id="a_node22"><a xlink:href="Vector.html#entry_Build_Vector" xlink:title="entry_Build_Vector">
<ellipse fill="#f070d1" stroke="black" cx="1852" cy="-736.13" rx="98.58" ry="18"/>
<text text-anchor="middle" x="1852" y="-732.43" font-family="Times,serif" font-size="14.00">entry_Build_Vector</text>
</a>
</g>
</g>
<!-- Vector_left_identity_vector_lact&#45;&gt;Vector_entry_Build_Vector -->
<g id="edge8" class="edge">
<title>Vector_left_identity_vector_lact&#45;&gt;Vector_entry_Build_Vector</title>
<path fill="none" stroke="black" d="M583.48,-922.22C785.59,-893.96 1308.68,-820.28 1745,-754.13 1753.29,-752.88 1761.93,-751.54 1770.56,-750.2"/>
<polygon fill="black" stroke="black" points="1771.32,-753.62 1780.65,-748.61 1770.23,-746.7 1771.32,-753.62"/>
</g>
<!-- Vector_heteroassociative_vector_lact_plus&#45;&gt;Vector_vector_lact -->
<g id="edge9" class="edge">
<title>Vector_heteroassociative_vector_lact_plus&#45;&gt;Vector_vector_lact</title>
<path fill="none" stroke="black" d="M239.4,-917.93C359.82,-880.69 655.02,-789.39 773.54,-752.74"/>
<polygon fill="black" stroke="black" points="774.59,-756.08 783.11,-749.78 772.52,-749.39 774.59,-756.08"/>
</g>
<!-- Vector_heteroassociative_vector_lact_plus&#45;&gt;Vector_path_vector -->
<g id="edge10" class="edge">
<title>Vector_heteroassociative_vector_lact_plus&#45;&gt;Vector_path_vector</title>
<path fill="none" stroke="black" d="M288.64,-920.63C571.93,-883 1365.1,-777.64 1602.21,-746.14"/>
<polygon fill="black" stroke="black" points="1602.97,-749.57 1612.42,-744.78 1602.04,-742.63 1602.97,-749.57"/>
</g>
<!-- Vector_heteroassociative_vector_lact_plus&#45;&gt;Vector_entry_Build_Vector -->
<g id="edge11" class="edge">
<title>Vector_heteroassociative_vector_lact_plus&#45;&gt;Vector_entry_Build_Vector</title>
<path fill="none" stroke="black" d="M305.96,-922.13C566.93,-895.43 1209.19,-827.62 1745,-754.13 1753.6,-752.95 1762.57,-751.65 1771.51,-750.3"/>
<polygon fill="black" stroke="black" points="1772.2,-753.73 1781.56,-748.76 1771.14,-746.81 1772.2,-753.73"/>
</g>
<!-- Vector_right_heterodistribute_vector_lact_plus&#45;&gt;Vector_vector_lact -->
<g id="edge12" class="edge">
<title>Vector_right_heterodistribute_vector_lact_plus&#45;&gt;Vector_vector_lact</title>
<path fill="none" stroke="black" d="M1187.15,-917.34C1113.82,-880.95 940.62,-795 862.92,-756.44"/>
<polygon fill="black" stroke="black" points="864.44,-753.29 853.93,-751.98 861.33,-759.56 864.44,-753.29"/>
</g>
<!-- Vector_vector_plus -->
<g id="node16" class="node">
<title>Vector_vector_plus</title>
<g id="a_node16"><a xlink:href="Vector.html#vector_plus" xlink:title="vector_plus">
<ellipse fill="#f070d1" stroke="black" cx="2032" cy="-736.13" rx="63.89" ry="18"/>
<text text-anchor="middle" x="2032" y="-732.43" font-family="Times,serif" font-size="14.00">vector_plus</text>
</a>
</g>
</g>
<!-- Vector_right_heterodistribute_vector_lact_plus&#45;&gt;Vector_vector_plus -->
<g id="edge13" class="edge">
<title>Vector_right_heterodistribute_vector_lact_plus&#45;&gt;Vector_vector_plus</title>
<path fill="none" stroke="black" d="M1286.68,-918.18C1441.9,-880.47 1829.27,-786.38 1975.19,-750.93"/>
<polygon fill="black" stroke="black" points="1976.38,-754.25 1985.27,-748.48 1974.73,-747.44 1976.38,-754.25"/>
</g>
<!-- Vector_right_heterodistribute_vector_lact_plus&#45;&gt;Vector_path_vector -->
<g id="edge14" class="edge">
<title>Vector_right_heterodistribute_vector_lact_plus&#45;&gt;Vector_path_vector</title>
<path fill="none" stroke="black" d="M1259.28,-917.34C1342.68,-880.75 1540.27,-794.05 1627.43,-755.81"/>
<polygon fill="black" stroke="black" points="1629,-758.94 1636.76,-751.72 1626.19,-752.53 1629,-758.94"/>
</g>
<!-- Vector_right_heterodistribute_vector_lact_plus&#45;&gt;Vector_entry_Build_Vector -->
<g id="edge15" class="edge">
<title>Vector_right_heterodistribute_vector_lact_plus&#45;&gt;Vector_entry_Build_Vector</title>
<path fill="none" stroke="black" d="M1273.44,-917.76C1390.66,-881.16 1673.11,-792.98 1794.73,-755.01"/>
<polygon fill="black" stroke="black" points="1796.09,-758.25 1804.6,-751.93 1794.01,-751.57 1796.09,-758.25"/>
</g>
<!-- Vector_left_heterodistribute_vector_lact_plus&#45;&gt;Vector_vector_lact -->
<g id="edge16" class="edge">
<title>Vector_left_heterodistribute_vector_lact_plus&#45;&gt;Vector_vector_lact</title>
<path fill="none" stroke="black" d="M824,-917C824,-882.79 824,-805.82 824,-764.53"/>
<polygon fill="black" stroke="black" points="827.5,-764.37 824,-754.37 820.5,-764.37 827.5,-764.37"/>
</g>
<!-- Vector_left_heterodistribute_vector_lact_plus&#45;&gt;Vector_vector_plus -->
<g id="edge17" class="edge">
<title>Vector_left_heterodistribute_vector_lact_plus&#45;&gt;Vector_vector_plus</title>
<path fill="none" stroke="black" d="M928.61,-920.22C1129.4,-892.94 1582.37,-828.52 1960,-754.13 1965.07,-753.13 1970.32,-752.03 1975.58,-750.88"/>
<polygon fill="black" stroke="black" points="1976.64,-754.23 1985.63,-748.62 1975.11,-747.4 1976.64,-754.23"/>
</g>
<!-- Vector_left_heterodistribute_vector_lact_plus&#45;&gt;Vector_path_vector -->
<g id="edge18" class="edge">
<title>Vector_left_heterodistribute_vector_lact_plus&#45;&gt;Vector_path_vector</title>
<path fill="none" stroke="black" d="M891.8,-918.35C1053.55,-880.68 1459.83,-786.07 1611.6,-750.73"/>
<polygon fill="black" stroke="black" points="1612.71,-754.07 1621.65,-748.39 1611.12,-747.25 1612.71,-754.07"/>
</g>
<!-- Vector_left_heterodistribute_vector_lact_plus&#45;&gt;Vector_entry_Build_Vector -->
<g id="edge19" class="edge">
<title>Vector_left_heterodistribute_vector_lact_plus&#45;&gt;Vector_entry_Build_Vector</title>
<path fill="none" stroke="black" d="M903.81,-918.84C1097.07,-881.8 1588.11,-787.7 1776.67,-751.57"/>
<polygon fill="black" stroke="black" points="1777.34,-755.01 1786.5,-749.69 1776.02,-748.13 1777.34,-755.01"/>
</g>
<!-- Vector_vector_map -->
<g id="node18" class="node">
<title>Vector_vector_map</title>
<g id="a_node18"><a xlink:href="Vector.html#vector_map" xlink:title="vector_map">
<ellipse fill="#f070d1" stroke="black" cx="2139" cy="-514.13" rx="64.19" ry="18"/>
<text text-anchor="middle" x="2139" y="-510.43" font-family="Times,serif" font-size="14.00">vector_map</text>
</a>
</g>
</g>
<!-- Vector_vector_lact&#45;&gt;Vector_vector_map -->
<g id="edge20" class="edge">
<title>Vector_vector_lact&#45;&gt;Vector_vector_map</title>
<path fill="none" stroke="black" d="M881.59,-729.61C1059.58,-711.77 1615.98,-650.41 2065,-540.13 2073.99,-537.92 2083.46,-535.11 2092.5,-532.18"/>
<polygon fill="black" stroke="black" points="2093.72,-535.46 2102.1,-528.97 2091.5,-528.82 2093.72,-535.46"/>
</g>
<!-- Vector_right_inverse_vector_plus -->
<g id="node8" class="node">
<title>Vector_right_inverse_vector_plus</title>
<g id="a_node8"><a xlink:href="Vector.html#right_inverse_vector_plus" xlink:title="right_inverse_vector_plus">
<ellipse fill="#f070d1" stroke="black" cx="2905" cy="-935.13" rx="129.98" ry="18"/>
<text text-anchor="middle" x="2905" y="-931.43" font-family="Times,serif" font-size="14.00">right_inverse_vector_plus</text>
</a>
</g>
</g>
<!-- Vector_abgroup_vector&#45;&gt;Vector_right_inverse_vector_plus -->
<g id="edge21" class="edge">
<title>Vector_abgroup_vector&#45;&gt;Vector_right_inverse_vector_plus</title>
<path fill="none" stroke="black" d="M2273.75,-1119.28C2393.61,-1084.51 2707.21,-993.52 2841.97,-954.42"/>
<polygon fill="black" stroke="black" points="2843.12,-957.73 2851.74,-951.58 2841.17,-951.01 2843.12,-957.73"/>
</g>
<!-- Vector_left_inverse_vector_plus -->
<g id="node9" class="node">
<title>Vector_left_inverse_vector_plus</title>
<g id="a_node9"><a xlink:href="Vector.html#left_inverse_vector_plus" xlink:title="left_inverse_vector_plus">
<ellipse fill="#f070d1" stroke="black" cx="2635" cy="-935.13" rx="122.38" ry="18"/>
<text text-anchor="middle" x="2635" y="-931.43" font-family="Times,serif" font-size="14.00">left_inverse_vector_plus</text>
</a>
</g>
</g>
<!-- Vector_abgroup_vector&#45;&gt;Vector_left_inverse_vector_plus -->
<g id="edge22" class="edge">
<title>Vector_abgroup_vector&#45;&gt;Vector_left_inverse_vector_plus</title>
<path fill="none" stroke="black" d="M2258.44,-1117.51C2331.66,-1082.24 2509.8,-996.44 2592.06,-956.82"/>
<polygon fill="black" stroke="black" points="2593.64,-959.94 2601.13,-952.45 2590.6,-953.63 2593.64,-959.94"/>
</g>
<!-- Vector_right_identity_vector_plus -->
<g id="node10" class="node">
<title>Vector_right_identity_vector_plus</title>
<g id="a_node10"><a xlink:href="Vector.html#right_identity_vector_plus" xlink:title="right_identity_vector_plus">
<ellipse fill="#f070d1" stroke="black" cx="2363" cy="-935.13" rx="131.88" ry="18"/>
<text text-anchor="middle" x="2363" y="-931.43" font-family="Times,serif" font-size="14.00">right_identity_vector_plus</text>
</a>
</g>
</g>
<!-- Vector_abgroup_vector&#45;&gt;Vector_right_identity_vector_plus -->
<g id="edge23" class="edge">
<title>Vector_abgroup_vector&#45;&gt;Vector_right_identity_vector_plus</title>
<path fill="none" stroke="black" d="M2237.92,-1116C2262.12,-1081.2 2317.11,-1002.12 2345.43,-961.4"/>
<polygon fill="black" stroke="black" points="2348.37,-963.3 2351.21,-953.09 2342.62,-959.3 2348.37,-963.3"/>
</g>
<!-- Vector_left_identity_vector_plus -->
<g id="node11" class="node">
<title>Vector_left_identity_vector_plus</title>
<g id="a_node11"><a xlink:href="Vector.html#left_identity_vector_plus" xlink:title="left_identity_vector_plus">
<ellipse fill="#f070d1" stroke="black" cx="2089" cy="-935.13" rx="124.28" ry="18"/>
<text text-anchor="middle" x="2089" y="-931.43" font-family="Times,serif" font-size="14.00">left_identity_vector_plus</text>
</a>
</g>
</g>
<!-- Vector_abgroup_vector&#45;&gt;Vector_left_identity_vector_plus -->
<g id="edge24" class="edge">
<title>Vector_abgroup_vector&#45;&gt;Vector_left_identity_vector_plus</title>
<path fill="none" stroke="black" d="M2214.08,-1116C2189.88,-1081.2 2134.89,-1002.12 2106.57,-961.4"/>
<polygon fill="black" stroke="black" points="2109.38,-959.3 2100.79,-953.09 2103.63,-963.3 2109.38,-959.3"/>
</g>
<!-- Vector_commutative_vector_plus -->
<g id="node12" class="node">
<title>Vector_commutative_vector_plus</title>
<g id="a_node12"><a xlink:href="Vector.html#commutative_vector_plus" xlink:title="commutative_vector_plus">
<ellipse fill="#f070d1" stroke="black" cx="1561" cy="-935.13" rx="128.88" ry="18"/>
<text text-anchor="middle" x="1561" y="-931.43" font-family="Times,serif" font-size="14.00">commutative_vector_plus</text>
</a>
</g>
</g>
<!-- Vector_abgroup_vector&#45;&gt;Vector_commutative_vector_plus -->
<g id="edge25" class="edge">
<title>Vector_abgroup_vector&#45;&gt;Vector_commutative_vector_plus</title>
<path fill="none" stroke="black" d="M2178.97,-1119.2C2061.63,-1084.44 1755.88,-993.86 1623.55,-954.66"/>
<polygon fill="black" stroke="black" points="1624.15,-951.19 1613.57,-951.71 1622.16,-957.9 1624.15,-951.19"/>
</g>
<!-- Vector_associative_vector_plus -->
<g id="node13" class="node">
<title>Vector_associative_vector_plus</title>
<g id="a_node13"><a xlink:href="Vector.html#associative_vector_plus" xlink:title="associative_vector_plus">
<ellipse fill="#f070d1" stroke="black" cx="1827" cy="-935.13" rx="119.68" ry="18"/>
<text text-anchor="middle" x="1827" y="-931.43" font-family="Times,serif" font-size="14.00">associative_vector_plus</text>
</a>
</g>
</g>
<!-- Vector_abgroup_vector&#45;&gt;Vector_associative_vector_plus -->
<g id="edge26" class="edge">
<title>Vector_abgroup_vector&#45;&gt;Vector_associative_vector_plus</title>
<path fill="none" stroke="black" d="M2194.02,-1117.35C2122.59,-1082.07 1950.02,-996.87 1869.59,-957.16"/>
<polygon fill="black" stroke="black" points="1870.77,-953.84 1860.25,-952.55 1867.67,-960.12 1870.77,-953.84"/>
</g>
<!-- Vector_istrunc_vector -->
<g id="node21" class="node">
<title>Vector_istrunc_vector</title>
<g id="a_node21"><a xlink:href="Vector.html#istrunc_vector" xlink:title="istrunc_vector">
<ellipse fill="#f070d1" stroke="black" cx="2717" cy="-293.13" rx="77.19" ry="18"/>
<text text-anchor="middle" x="2717" y="-289.43" font-family="Times,serif" font-size="14.00">istrunc_vector</text>
</a>
</g>
</g>
<!-- Vector_abgroup_vector&#45;&gt;Vector_istrunc_vector -->
<g id="edge27" class="edge">
<title>Vector_abgroup_vector&#45;&gt;Vector_istrunc_vector</title>
<path fill="none" stroke="black" d="M2304.43,-1128C2490.79,-1114 2951.47,-1068.24 3044,-953.13 3219.67,-734.6 2853.58,-406.26 2745.71,-317.14"/>
<polygon fill="black" stroke="black" points="2747.77,-314.3 2737.82,-310.67 2743.34,-319.72 2747.77,-314.3"/>
</g>
<!-- Vector_vector_neg -->
<g id="node14" class="node">
<title>Vector_vector_neg</title>
<g id="a_node14"><a xlink:href="Vector.html#vector_neg" xlink:title="vector_neg">
<ellipse fill="#f070d1" stroke="black" cx="2635" cy="-736.13" rx="61.99" ry="18"/>
<text text-anchor="middle" x="2635" y="-732.43" font-family="Times,serif" font-size="14.00">vector_neg</text>
</a>
</g>
</g>
<!-- Vector_right_inverse_vector_plus&#45;&gt;Vector_vector_neg -->
<g id="edge28" class="edge">
<title>Vector_right_inverse_vector_plus&#45;&gt;Vector_vector_neg</title>
<path fill="none" stroke="black" d="M2881.98,-917.34C2833.2,-881.74 2719.44,-798.74 2665.03,-759.04"/>
<polygon fill="black" stroke="black" points="2666.97,-756.13 2656.83,-753.06 2662.84,-761.78 2666.97,-756.13"/>
</g>
<!-- Vector_vector_zero -->
<g id="node15" class="node">
<title>Vector_vector_zero</title>
<g id="a_node15"><a xlink:href="Vector.html#vector_zero" xlink:title="vector_zero">
<ellipse fill="#f070d1" stroke="black" cx="2363" cy="-736.13" rx="64.19" ry="18"/>
<text text-anchor="middle" x="2363" y="-732.43" font-family="Times,serif" font-size="14.00">vector_zero</text>
</a>
</g>
</g>
<!-- Vector_right_inverse_vector_plus&#45;&gt;Vector_vector_zero -->
<g id="edge29" class="edge">
<title>Vector_right_inverse_vector_plus&#45;&gt;Vector_vector_zero</title>
<path fill="none" stroke="black" d="M2861.1,-918.18C2760.52,-881.62 2514.06,-792.04 2410.29,-754.32"/>
<polygon fill="black" stroke="black" points="2411.29,-750.96 2400.7,-750.84 2408.9,-757.54 2411.29,-750.96"/>
</g>
<!-- Vector_right_inverse_vector_plus&#45;&gt;Vector_vector_plus -->
<g id="edge30" class="edge">
<title>Vector_right_inverse_vector_plus&#45;&gt;Vector_vector_plus</title>
<path fill="none" stroke="black" d="M2840.1,-919.49C2675.96,-882.45 2246.27,-785.48 2089.94,-750.21"/>
<polygon fill="black" stroke="black" points="2090.57,-746.76 2080.04,-747.97 2089.02,-753.59 2090.57,-746.76"/>
</g>
<!-- Vector_right_inverse_vector_plus&#45;&gt;Vector_path_vector -->
<g id="edge31" class="edge">
<title>Vector_right_inverse_vector_plus&#45;&gt;Vector_path_vector</title>
<path fill="none" stroke="black" d="M2813.92,-922.29C2617.63,-896.25 2140.36,-830.28 1744,-754.13 1738.66,-753.11 1733.12,-751.97 1727.58,-750.79"/>
<polygon fill="black" stroke="black" points="1728.18,-747.33 1717.66,-748.61 1726.68,-754.17 1728.18,-747.33"/>
</g>
<!-- Vector_right_inverse_vector_plus&#45;&gt;Vector_entry_Build_Vector -->
<g id="edge32" class="edge">
<title>Vector_right_inverse_vector_plus&#45;&gt;Vector_entry_Build_Vector</title>
<path fill="none" stroke="black" d="M2830.96,-920.28C2638.39,-884.25 2123.35,-787.9 1928.3,-751.41"/>
<polygon fill="black" stroke="black" points="1928.89,-747.96 1918.42,-749.56 1927.6,-754.84 1928.89,-747.96"/>
</g>
<!-- Vector_left_inverse_vector_plus&#45;&gt;Vector_vector_neg -->
<g id="edge33" class="edge">
<title>Vector_left_inverse_vector_plus&#45;&gt;Vector_vector_neg</title>
<path fill="none" stroke="black" d="M2635,-917C2635,-882.79 2635,-805.82 2635,-764.53"/>
<polygon fill="black" stroke="black" points="2638.5,-764.37 2635,-754.37 2631.5,-764.37 2638.5,-764.37"/>
</g>
<!-- Vector_left_inverse_vector_plus&#45;&gt;Vector_vector_zero -->
<g id="edge34" class="edge">
<title>Vector_left_inverse_vector_plus&#45;&gt;Vector_vector_zero</title>
<path fill="none" stroke="black" d="M2611.81,-917.34C2562.66,-881.74 2448.07,-798.74 2393.25,-759.04"/>
<polygon fill="black" stroke="black" points="2395.14,-756.09 2384.99,-753.06 2391.03,-761.76 2395.14,-756.09"/>
</g>
<!-- Vector_left_inverse_vector_plus&#45;&gt;Vector_vector_plus -->
<g id="edge35" class="edge">
<title>Vector_left_inverse_vector_plus&#45;&gt;Vector_vector_plus</title>
<path fill="none" stroke="black" d="M2587.18,-918.51C2474.99,-881.86 2195.76,-790.63 2081.71,-753.37"/>
<polygon fill="black" stroke="black" points="2082.76,-750.04 2072.17,-750.26 2080.59,-756.69 2082.76,-750.04"/>
</g>
<!-- Vector_left_inverse_vector_plus&#45;&gt;Vector_path_vector -->
<g id="edge36" class="edge">
<title>Vector_left_inverse_vector_plus&#45;&gt;Vector_path_vector</title>
<path fill="none" stroke="black" d="M2563.84,-920.42C2412.63,-891.14 2048.28,-819.81 1744,-754.13 1738.77,-753 1733.33,-751.8 1727.89,-750.59"/>
<polygon fill="black" stroke="black" points="1728.65,-747.17 1718.12,-748.38 1727.11,-754 1728.65,-747.17"/>
</g>
<!-- Vector_left_inverse_vector_plus&#45;&gt;Vector_entry_Build_Vector -->
<g id="edge37" class="edge">
<title>Vector_left_inverse_vector_plus&#45;&gt;Vector_entry_Build_Vector</title>
<path fill="none" stroke="black" d="M2576.15,-919.33C2432.91,-883.29 2066.94,-791.21 1917.28,-753.56"/>
<polygon fill="black" stroke="black" points="1917.86,-750.1 1907.31,-751.05 1916.16,-756.88 1917.86,-750.1"/>
</g>
<!-- Vector_right_identity_vector_plus&#45;&gt;Vector_vector_zero -->
<g id="edge38" class="edge">
<title>Vector_right_identity_vector_plus&#45;&gt;Vector_vector_zero</title>
<path fill="none" stroke="black" d="M2363,-917C2363,-882.79 2363,-805.82 2363,-764.53"/>
<polygon fill="black" stroke="black" points="2366.5,-764.37 2363,-754.37 2359.5,-764.37 2366.5,-764.37"/>
</g>
<!-- Vector_right_identity_vector_plus&#45;&gt;Vector_vector_plus -->
<g id="edge39" class="edge">
<title>Vector_right_identity_vector_plus&#45;&gt;Vector_vector_plus</title>
<path fill="none" stroke="black" d="M2335.06,-917.51C2274.93,-881.71 2133.31,-797.43 2067.17,-758.07"/>
<polygon fill="black" stroke="black" points="2068.74,-754.93 2058.36,-752.82 2065.16,-760.94 2068.74,-754.93"/>
</g>
<!-- Vector_right_identity_vector_plus&#45;&gt;Vector_path_vector -->
<g id="edge40" class="edge">
<title>Vector_right_identity_vector_plus&#45;&gt;Vector_path_vector</title>
<path fill="none" stroke="black" d="M2308.62,-918.68C2178.94,-881.81 1852.76,-789.09 1723.73,-752.41"/>
<polygon fill="black" stroke="black" points="1724.63,-749.03 1714.06,-749.66 1722.72,-755.76 1724.63,-749.03"/>
</g>
<!-- Vector_right_identity_vector_plus&#45;&gt;Vector_entry_Build_Vector -->
<g id="edge41" class="edge">
<title>Vector_right_identity_vector_plus&#45;&gt;Vector_entry_Build_Vector</title>
<path fill="none" stroke="black" d="M2321.18,-918.01C2227.76,-881.99 2002.42,-795.12 1901.88,-756.36"/>
<polygon fill="black" stroke="black" points="1902.85,-752.99 1892.26,-752.65 1900.33,-759.52 1902.85,-752.99"/>
</g>
<!-- Vector_left_identity_vector_plus&#45;&gt;Vector_vector_zero -->
<g id="edge42" class="edge">
<title>Vector_left_identity_vector_plus&#45;&gt;Vector_vector_zero</title>
<path fill="none" stroke="black" d="M2112.36,-917.34C2161.87,-881.74 2277.31,-798.74 2332.52,-759.04"/>
<polygon fill="black" stroke="black" points="2334.77,-761.74 2340.85,-753.06 2330.69,-756.06 2334.77,-761.74"/>
</g>
<!-- Vector_left_identity_vector_plus&#45;&gt;Vector_vector_plus -->
<g id="edge43" class="edge">
<title>Vector_left_identity_vector_plus&#45;&gt;Vector_vector_plus</title>
<path fill="none" stroke="black" d="M2084.04,-917C2074.1,-882.64 2051.67,-805.1 2039.76,-763.96"/>
<polygon fill="black" stroke="black" points="2043.05,-762.72 2036.91,-754.09 2036.32,-764.67 2043.05,-762.72"/>
</g>
<!-- Vector_left_identity_vector_plus&#45;&gt;Vector_path_vector -->
<g id="edge44" class="edge">
<title>Vector_left_identity_vector_plus&#45;&gt;Vector_path_vector</title>
<path fill="none" stroke="black" d="M2054.35,-917.84C1977.58,-881.75 1793.42,-795.16 1711.04,-756.43"/>
<polygon fill="black" stroke="black" points="1712.05,-753.04 1701.51,-751.95 1709.07,-759.37 1712.05,-753.04"/>
</g>
<!-- Vector_left_identity_vector_plus&#45;&gt;Vector_entry_Build_Vector -->
<g id="edge45" class="edge">
<title>Vector_left_identity_vector_plus&#45;&gt;Vector_entry_Build_Vector</title>
<path fill="none" stroke="black" d="M2068.79,-917.34C2026.47,-882.15 1928.42,-800.65 1880.03,-760.44"/>
<polygon fill="black" stroke="black" points="1882.08,-757.59 1872.16,-753.89 1877.61,-762.97 1882.08,-757.59"/>
</g>
<!-- Vector_commutative_vector_plus&#45;&gt;Vector_vector_plus -->
<g id="edge46" class="edge">
<title>Vector_commutative_vector_plus&#45;&gt;Vector_vector_plus</title>
<path fill="none" stroke="black" d="M1599.94,-917.84C1687.03,-881.42 1897,-793.6 1988.34,-755.4"/>
<polygon fill="black" stroke="black" points="1989.96,-758.51 1997.84,-751.42 1987.26,-752.05 1989.96,-758.51"/>
</g>
<!-- Vector_commutative_vector_plus&#45;&gt;Vector_path_vector -->
<g id="edge47" class="edge">
<title>Vector_commutative_vector_plus&#45;&gt;Vector_path_vector</title>
<path fill="none" stroke="black" d="M1570.48,-917C1589.66,-882.34 1633.12,-803.78 1655.73,-762.92"/>
<polygon fill="black" stroke="black" points="1658.84,-764.54 1660.62,-754.09 1652.71,-761.15 1658.84,-764.54"/>
</g>
<!-- Vector_commutative_vector_plus&#45;&gt;Vector_entry_Build_Vector -->
<g id="edge48" class="edge">
<title>Vector_commutative_vector_plus&#45;&gt;Vector_entry_Build_Vector</title>
<path fill="none" stroke="black" d="M1585.81,-917.34C1638.23,-881.85 1760.28,-799.23 1819.12,-759.39"/>
<polygon fill="black" stroke="black" points="1821.34,-762.11 1827.66,-753.61 1817.42,-756.32 1821.34,-762.11"/>
</g>
<!-- Vector_associative_vector_plus&#45;&gt;Vector_vector_plus -->
<g id="edge49" class="edge">
<title>Vector_associative_vector_plus&#45;&gt;Vector_vector_plus</title>
<path fill="none" stroke="black" d="M1844.83,-917C1881.61,-881.66 1965.9,-800.65 2007.65,-760.53"/>
<polygon fill="black" stroke="black" points="2010.15,-762.99 2014.93,-753.54 2005.3,-757.94 2010.15,-762.99"/>
</g>
<!-- Vector_associative_vector_plus&#45;&gt;Vector_path_vector -->
<g id="edge50" class="edge">
<title>Vector_associative_vector_plus&#45;&gt;Vector_path_vector</title>
<path fill="none" stroke="black" d="M1813.34,-917C1785.48,-882.04 1722.01,-802.39 1689.69,-761.84"/>
<polygon fill="black" stroke="black" points="1692.26,-759.45 1683.29,-753.81 1686.79,-763.81 1692.26,-759.45"/>
</g>
<!-- Vector_associative_vector_plus&#45;&gt;Vector_entry_Build_Vector -->
<g id="edge51" class="edge">
<title>Vector_associative_vector_plus&#45;&gt;Vector_entry_Build_Vector</title>
<path fill="none" stroke="black" d="M1829.17,-917C1833.52,-882.79 1843.28,-805.82 1848.52,-764.53"/>
<polygon fill="black" stroke="black" points="1852.03,-764.73 1849.81,-754.37 1845.08,-763.85 1852.03,-764.73"/>
</g>
<!-- Vector_vector_neg&#45;&gt;Vector_vector_map -->
<g id="edge52" class="edge">
<title>Vector_vector_neg&#45;&gt;Vector_vector_map</title>
<path fill="none" stroke="black" d="M2602.46,-720.7C2515.58,-682.17 2278.25,-576.9 2181.21,-533.85"/>
<polygon fill="black" stroke="black" points="2182.55,-530.62 2171.99,-529.77 2179.71,-537.02 2182.55,-530.62"/>
</g>
<!-- Vector_Build_Vector -->
<g id="node24" class="node">
<title>Vector_Build_Vector</title>
<g id="a_node24"><a xlink:href="Vector.html#Build_Vector" xlink:title="Build_Vector">
<ellipse fill="#f070d1" stroke="black" cx="2180" cy="-293.13" rx="69.59" ry="18"/>
<text text-anchor="middle" x="2180" y="-289.43" font-family="Times,serif" font-size="14.00">Build_Vector</text>
</a>
</g>
</g>
<!-- Vector_vector_zero&#45;&gt;Vector_Build_Vector -->
<g id="edge53" class="edge">
<title>Vector_vector_zero&#45;&gt;Vector_Build_Vector</title>
<path fill="none" stroke="black" d="M2355.94,-718.12C2328,-650.8 2225.1,-402.81 2191.03,-320.72"/>
<polygon fill="black" stroke="black" points="2194.2,-319.23 2187.14,-311.34 2187.74,-321.92 2194.2,-319.23"/>
</g>
<!-- Vector_vector_map2 -->
<g id="node17" class="node">
<title>Vector_vector_map2</title>
<g id="a_node17"><a xlink:href="Vector.html#vector_map2" xlink:title="vector_map2">
<ellipse fill="#f070d1" stroke="black" cx="1986" cy="-514.13" rx="70.39" ry="18"/>
<text text-anchor="middle" x="1986" y="-510.43" font-family="Times,serif" font-size="14.00">vector_map2</text>
</a>
</g>
</g>
<!-- Vector_vector_plus&#45;&gt;Vector_vector_map2 -->
<g id="edge54" class="edge">
<title>Vector_vector_plus&#45;&gt;Vector_vector_map2</title>
<path fill="none" stroke="black" d="M2028.39,-717.87C2020.41,-679.72 2001.23,-587.98 1991.65,-542.14"/>
<polygon fill="black" stroke="black" points="1995.07,-541.39 1989.59,-532.32 1988.21,-542.82 1995.07,-541.39"/>
</g>
<!-- Vector_entry -->
<g id="node23" class="node">
<title>Vector_entry</title>
<g id="a_node23"><a xlink:href="Vector.html#entry" xlink:title="entry">
<ellipse fill="#f070d1" stroke="black" cx="1942" cy="-293.13" rx="36" ry="18"/>
<text text-anchor="middle" x="1942" y="-289.43" font-family="Times,serif" font-size="14.00">entry</text>
</a>
</g>
</g>
<!-- Vector_vector_map2&#45;&gt;Vector_entry -->
<g id="edge55" class="edge">
<title>Vector_vector_map2&#45;&gt;Vector_entry</title>
<path fill="none" stroke="black" d="M1982.55,-495.95C1974.93,-458.05 1956.65,-367.03 1947.46,-321.31"/>
<polygon fill="black" stroke="black" points="1950.84,-320.35 1945.44,-311.24 1943.97,-321.73 1950.84,-320.35"/>
</g>
<!-- Vector_vector_map2&#45;&gt;Vector_Build_Vector -->
<g id="edge56" class="edge">
<title>Vector_vector_map2&#45;&gt;Vector_Build_Vector</title>
<path fill="none" stroke="black" d="M2000.9,-496.31C2034.97,-457.86 2118.66,-363.38 2158.39,-318.53"/>
<polygon fill="black" stroke="black" points="2161.04,-320.82 2165.05,-311.01 2155.8,-316.18 2161.04,-320.82"/>
</g>
<!-- Vector_vector_map&#45;&gt;Vector_entry -->
<g id="edge57" class="edge">
<title>Vector_vector_map&#45;&gt;Vector_entry</title>
<path fill="none" stroke="black" d="M2123.87,-496.31C2089.01,-457.56 2002.97,-361.92 1963.02,-317.5"/>
<polygon fill="black" stroke="black" points="1965.41,-314.92 1956.12,-309.83 1960.2,-319.6 1965.41,-314.92"/>
</g>
<!-- Vector_vector_map&#45;&gt;Vector_Build_Vector -->
<g id="edge58" class="edge">
<title>Vector_vector_map&#45;&gt;Vector_Build_Vector</title>
<path fill="none" stroke="black" d="M2142.22,-495.95C2149.31,-458.05 2166.35,-367.03 2174.91,-321.31"/>
<polygon fill="black" stroke="black" points="2178.4,-321.71 2176.8,-311.24 2171.52,-320.42 2178.4,-321.71"/>
</g>
<!-- Vector_path_entry_vector -->
<g id="node19" class="node">
<title>Vector_path_entry_vector</title>
<g id="a_node19"><a xlink:href="Vector.html#path_entry_vector" xlink:title="path_entry_vector">
<ellipse fill="#f070d1" stroke="black" cx="1755" cy="-514.13" rx="94.79" ry="18"/>
<ellipse fill="none" stroke="black" cx="1755" cy="-514.13" rx="98.79" ry="22"/>
<ellipse fill="none" stroke="black" cx="1755" cy="-514.13" rx="102.78" ry="26"/>
<text text-anchor="middle" x="1755" y="-510.43" font-family="Times,serif" font-size="14.00">path_entry_vector</text>
</a>
</g>
</g>
<!-- Vector_path_entry_vector&#45;&gt;Vector_entry -->
<g id="edge59" class="edge">
<title>Vector_path_entry_vector&#45;&gt;Vector_entry</title>
<path fill="none" stroke="black" d="M1776.09,-488.44C1812.44,-445.86 1886.44,-359.2 1922.02,-317.54"/>
<polygon fill="black" stroke="black" points="1924.77,-319.71 1928.6,-309.83 1919.44,-315.16 1924.77,-319.71"/>
</g>
<!-- Vector_path_vector&#45;&gt;Vector_entry -->
<g id="edge60" class="edge">
<title>Vector_path_vector&#45;&gt;Vector_entry</title>
<path fill="none" stroke="black" d="M1692.46,-719.02C1733.21,-688.64 1819.49,-618.82 1867,-540.13 1889.77,-502.43 1921.98,-376.74 1935.57,-321.07"/>
<polygon fill="black" stroke="black" points="1939,-321.76 1937.95,-311.22 1932.2,-320.11 1939,-321.76"/>
</g>
<!-- Vector_Vector -->
<g id="node25" class="node">
<title>Vector_Vector</title>
<g id="a_node25"><a xlink:href="Vector.html#Vector" xlink:title="Vector">
<ellipse fill="#f070d1" stroke="black" cx="2180" cy="-94.13" rx="40.09" ry="18"/>
<text text-anchor="middle" x="2180" y="-90.43" font-family="Times,serif" font-size="14.00">Vector</text>
</a>
</g>
</g>
<!-- Vector_istrunc_vector&#45;&gt;Vector_Vector -->
<g id="edge61" class="edge">
<title>Vector_istrunc_vector&#45;&gt;Vector_Vector</title>
<path fill="none" stroke="black" d="M2677.51,-277.65C2578.24,-241.23 2319.1,-146.16 2219.65,-109.68"/>
<polygon fill="black" stroke="black" points="2220.85,-106.39 2210.26,-106.23 2218.44,-112.96 2220.85,-106.39"/>
</g>
<!-- Vector_entry_Build_Vector&#45;&gt;Vector_entry -->
<g id="edge62" class="edge">
<title>Vector_entry_Build_Vector&#45;&gt;Vector_entry</title>
<path fill="none" stroke="black" d="M1855.47,-718.12C1869.18,-650.94 1919.62,-403.82 1936.47,-321.22"/>
<polygon fill="black" stroke="black" points="1939.92,-321.84 1938.49,-311.34 1933.06,-320.44 1939.92,-321.84"/>
</g>
<!-- Vector_entry_Build_Vector&#45;&gt;Vector_Build_Vector -->
<g id="edge63" class="edge">
<title>Vector_entry_Build_Vector&#45;&gt;Vector_Build_Vector</title>
<path fill="none" stroke="black" d="M1914.22,-722.04C1998.92,-700.5 2147.35,-648.68 2212,-540.13 2253.97,-469.66 2215.78,-367.89 2193.47,-320.4"/>
<polygon fill="black" stroke="black" points="2196.49,-318.6 2188.99,-311.12 2190.19,-321.64 2196.49,-318.6"/>
</g>
<!-- Vector_entry&#45;&gt;Vector_Vector -->
<g id="edge64" class="edge">
<title>Vector_entry&#45;&gt;Vector_Vector</title>
<path fill="none" stroke="black" d="M1959.89,-277.33C2001.48,-242.9 2104.86,-157.33 2153.67,-116.92"/>
<polygon fill="black" stroke="black" points="2156.1,-119.46 2161.58,-110.38 2151.64,-114.06 2156.1,-119.46"/>
</g>
<!-- Vector_Build_Vector&#45;&gt;Vector_Vector -->
<g id="edge65" class="edge">
<title>Vector_Build_Vector&#45;&gt;Vector_Vector</title>
<path fill="none" stroke="black" d="M2180,-275C2180,-240.79 2180,-163.82 2180,-122.53"/>
<polygon fill="black" stroke="black" points="2183.5,-122.37 2180,-112.37 2176.5,-122.37 2183.5,-122.37"/>
</g>
</g>
</svg>
