<?xml version="1.0" encoding="UTF-8" standalone="no"?>
<!DOCTYPE svg PUBLIC "-//W3C//DTD SVG 1.1//EN"
 "http://www.w3.org/Graphics/SVG/1.1/DTD/svg11.dtd">
<!-- Generated by graphviz version 2.43.0 (0)
 -->
<!-- Title: HoTT_WildCat_UnitCat Pages: 1 -->
<svg width="654pt" height="331pt"
 viewBox="0.00 0.00 654.00 331.00" xmlns="http://www.w3.org/2000/svg" xmlns:xlink="http://www.w3.org/1999/xlink">
<g id="graph0" class="graph" transform="scale(1 1) rotate(0) translate(4 327)">
<title>HoTT_WildCat_UnitCat</title>
<polygon fill="white" stroke="transparent" points="-4,4 -4,-327 650,-327 650,4 -4,4"/>
<g id="clust1" class="cluster">
<title>cluster_UnitCat</title>
<polygon fill="#ffffc3" stroke="black" points="15.43,-8 15.43,-315 630.57,-315 630.57,-8 15.43,-8"/>
<text text-anchor="middle" x="51.93" y="-299.8" font-family="Times,serif" font-size="14.00">UnitCat</text>
</g>
<!-- UnitCat_is1cat_unit -->
<g id="node1" class="node">
<title>UnitCat_is1cat_unit</title>
<g id="a_node1"><a xlink:href="UnitCat.html#is1cat_unit" xlink:title="is1cat_unit">
<ellipse fill="#f070d1" stroke="black" cx="292.91" cy="-258" rx="61.96" ry="18"/>
<ellipse fill="none" stroke="black" cx="292.91" cy="-258" rx="65.98" ry="22"/>
<ellipse fill="none" stroke="black" cx="292.91" cy="-258" rx="69.99" ry="26"/>
<text text-anchor="middle" x="292.91" y="-254.3" font-family="Times,serif" font-size="14.00">is1cat_unit</text>
</a>
</g>
</g>
<!-- UnitCat_is2graph_unit -->
<g id="node2" class="node">
<title>UnitCat_is2graph_unit</title>
<g id="a_node2"><a xlink:href="UnitCat.html#is2graph_unit" xlink:title="is2graph_unit">
<ellipse fill="#f070d1" stroke="black" cx="175.91" cy="-106" rx="74.99" ry="18"/>
<text text-anchor="middle" x="175.91" y="-102.3" font-family="Times,serif" font-size="14.00">is2graph_unit</text>
</a>
</g>
</g>
<!-- UnitCat_is1cat_unit&#45;&gt;UnitCat_is2graph_unit -->
<g id="edge1" class="edge">
<title>UnitCat_is1cat_unit&#45;&gt;UnitCat_is2graph_unit</title>
<path fill="none" stroke="black" d="M274.11,-232.9C252.57,-205.28 217.43,-160.23 195.54,-132.17"/>
<polygon fill="black" stroke="black" points="198.11,-129.78 189.2,-124.04 192.59,-134.08 198.11,-129.78"/>
</g>
<!-- UnitCat_is0gpd_unit -->
<g id="node3" class="node">
<title>UnitCat_is0gpd_unit</title>
<g id="a_node3"><a xlink:href="UnitCat.html#is0gpd_unit" xlink:title="is0gpd_unit">
<ellipse fill="#f070d1" stroke="black" cx="446.91" cy="-178" rx="64.99" ry="18"/>
<text text-anchor="middle" x="446.91" y="-174.3" font-family="Times,serif" font-size="14.00">is0gpd_unit</text>
</a>
</g>
</g>
<!-- UnitCat_is1cat_unit&#45;&gt;UnitCat_is0gpd_unit -->
<g id="edge2" class="edge">
<title>UnitCat_is1cat_unit&#45;&gt;UnitCat_is0gpd_unit</title>
<path fill="none" stroke="black" d="M332.97,-236.71C356,-225.05 384.8,-210.46 407.69,-198.86"/>
<polygon fill="black" stroke="black" points="409.44,-201.9 416.78,-194.26 406.28,-195.66 409.44,-201.9"/>
</g>
<!-- UnitCat_isgraph_unit -->
<g id="node5" class="node">
<title>UnitCat_isgraph_unit</title>
<g id="a_node5"><a xlink:href="UnitCat.html#isgraph_unit" xlink:title="isgraph_unit">
<ellipse fill="#f070d1" stroke="black" cx="327.91" cy="-34" rx="68.79" ry="18"/>
<text text-anchor="middle" x="327.91" y="-30.3" font-family="Times,serif" font-size="14.00">isgraph_unit</text>
</a>
</g>
</g>
<!-- UnitCat_is2graph_unit&#45;&gt;UnitCat_isgraph_unit -->
<g id="edge3" class="edge">
<title>UnitCat_is2graph_unit&#45;&gt;UnitCat_isgraph_unit</title>
<path fill="none" stroke="black" d="M208.89,-89.81C231.55,-79.37 261.82,-65.43 286.17,-54.22"/>
<polygon fill="black" stroke="black" points="287.9,-57.28 295.52,-49.92 284.97,-50.92 287.9,-57.28"/>
</g>
<!-- UnitCat_is01cat_unit -->
<g id="node4" class="node">
<title>UnitCat_is01cat_unit</title>
<g id="a_node4"><a xlink:href="UnitCat.html#is01cat_unit" xlink:title="is01cat_unit">
<ellipse fill="#f070d1" stroke="black" cx="483.91" cy="-106" rx="67.69" ry="18"/>
<text text-anchor="middle" x="483.91" y="-102.3" font-family="Times,serif" font-size="14.00">is01cat_unit</text>
</a>
</g>
</g>
<!-- UnitCat_is0gpd_unit&#45;&gt;UnitCat_is01cat_unit -->
<g id="edge4" class="edge">
<title>UnitCat_is0gpd_unit&#45;&gt;UnitCat_is01cat_unit</title>
<path fill="none" stroke="black" d="M455.87,-160.05C460.12,-152.01 465.3,-142.2 470.05,-133.23"/>
<polygon fill="black" stroke="black" points="473.2,-134.75 474.78,-124.28 467.01,-131.48 473.2,-134.75"/>
</g>
<!-- UnitCat_is01cat_unit&#45;&gt;UnitCat_isgraph_unit -->
<g id="edge5" class="edge">
<title>UnitCat_is01cat_unit&#45;&gt;UnitCat_isgraph_unit</title>
<path fill="none" stroke="black" d="M450.83,-90.15C427.35,-79.62 395.64,-65.39 370.31,-54.03"/>
<polygon fill="black" stroke="black" points="371.5,-50.72 360.95,-49.82 368.64,-57.11 371.5,-50.72"/>
</g>
</g>
</svg>
