<?xml version="1.0" encoding="UTF-8" standalone="no"?>
<!DOCTYPE svg PUBLIC "-//W3C//DTD SVG 1.1//EN"
 "http://www.w3.org/Graphics/SVG/1.1/DTD/svg11.dtd">
<!-- Generated by graphviz version 2.43.0 (0)
 -->
<!-- Title: HoTT_Algebra_Categorical_MonoidObject Pages: 1 -->
<svg width="3415pt" height="1710pt"
 viewBox="0.00 0.00 3414.78 1709.50" xmlns="http://www.w3.org/2000/svg" xmlns:xlink="http://www.w3.org/1999/xlink">
<g id="graph0" class="graph" transform="scale(1 1) rotate(0) translate(4 1705.5)">
<title>HoTT_Algebra_Categorical_MonoidObject</title>
<polygon fill="white" stroke="transparent" points="-4,4 -4,-1705.5 3410.78,-1705.5 3410.78,4 -4,4"/>
<g id="clust1" class="cluster">
<title>cluster_MonoidObject</title>
<polygon fill="#ffffc3" stroke="black" points="8,-21.99 8,-1679.51 3395,-1679.51 3395,-21.99 8,-21.99"/>
<text text-anchor="middle" x="66" y="-1664.31" font-family="Times,serif" font-size="14.00">MonoidObject</text>
</g>
<!-- MonoidObject_iscommutativemonoid_hom -->
<g id="node1" class="node">
<title>MonoidObject_iscommutativemonoid_hom</title>
<g id="a_node1"><a xlink:href="MonoidObject.html#iscommutativemonoid_hom" xlink:title="iscommutativemonoid_hom">
<ellipse fill="#f070d1" stroke="black" cx="984" cy="-1280.99" rx="137.59" ry="18"/>
<ellipse fill="none" stroke="black" cx="984" cy="-1280.99" rx="141.58" ry="22"/>
<ellipse fill="none" stroke="black" cx="984" cy="-1280.99" rx="145.58" ry="26"/>
<text text-anchor="middle" x="984" y="-1277.29" font-family="Times,serif" font-size="14.00">iscommutativemonoid_hom</text>
</a>
</g>
</g>
<!-- MonoidObject_commutative_hom -->
<g id="node2" class="node">
<title>MonoidObject_commutative_hom</title>
<g id="a_node2"><a xlink:href="MonoidObject.html#commutative_hom" xlink:title="commutative_hom">
<ellipse fill="#f070d1" stroke="black" cx="1243" cy="-554.99" rx="95.58" ry="18"/>
<text text-anchor="middle" x="1243" y="-551.29" font-family="Times,serif" font-size="14.00">commutative_hom</text>
</a>
</g>
</g>
<!-- MonoidObject_iscommutativemonoid_hom&#45;&gt;MonoidObject_commutative_hom -->
<g id="edge1" class="edge">
<title>MonoidObject_iscommutativemonoid_hom&#45;&gt;MonoidObject_commutative_hom</title>
<path fill="none" stroke="black" d="M993.07,-1254.65C1032.92,-1143.25 1192.37,-697.52 1233.36,-582.95"/>
<polygon fill="black" stroke="black" points="1236.77,-583.8 1236.84,-573.21 1230.18,-581.44 1236.77,-583.8"/>
</g>
<!-- MonoidObject_ismonoid_hom -->
<g id="node3" class="node">
<title>MonoidObject_ismonoid_hom</title>
<g id="a_node3"><a xlink:href="MonoidObject.html#ismonoid_hom" xlink:title="ismonoid_hom">
<ellipse fill="#f070d1" stroke="black" cx="929" cy="-1038.99" rx="77.19" ry="18"/>
<text text-anchor="middle" x="929" y="-1035.29" font-family="Times,serif" font-size="14.00">ismonoid_hom</text>
</a>
</g>
</g>
<!-- MonoidObject_iscommutativemonoid_hom&#45;&gt;MonoidObject_ismonoid_hom -->
<g id="edge2" class="edge">
<title>MonoidObject_iscommutativemonoid_hom&#45;&gt;MonoidObject_ismonoid_hom</title>
<path fill="none" stroke="black" d="M978.22,-1254.76C967.8,-1209.32 945.98,-1114.09 935.24,-1067.23"/>
<polygon fill="black" stroke="black" points="938.59,-1066.17 932.94,-1057.2 931.77,-1067.73 938.59,-1066.17"/>
</g>
<!-- MonoidObject_sgop_hom -->
<g id="node9" class="node">
<title>MonoidObject_sgop_hom</title>
<g id="a_node9"><a xlink:href="MonoidObject.html#sgop_hom" xlink:title="sgop_hom">
<ellipse fill="#f070d1" stroke="black" cx="1354" cy="-312.99" rx="57.39" ry="18"/>
<text text-anchor="middle" x="1354" y="-309.29" font-family="Times,serif" font-size="14.00">sgop_hom</text>
</a>
</g>
</g>
<!-- MonoidObject_commutative_hom&#45;&gt;MonoidObject_sgop_hom -->
<g id="edge3" class="edge">
<title>MonoidObject_commutative_hom&#45;&gt;MonoidObject_sgop_hom</title>
<path fill="none" stroke="black" d="M1250.98,-536.73C1270.18,-495.22 1319.04,-389.57 1341.88,-340.19"/>
<polygon fill="black" stroke="black" points="1345.07,-341.64 1346.09,-331.09 1338.71,-338.7 1345.07,-341.64"/>
</g>
<!-- MonoidObject_IsCommutativeMonoidObject -->
<g id="node32" class="node">
<title>MonoidObject_IsCommutativeMonoidObject</title>
<g id="a_node32"><a xlink:href="MonoidObject.html#IsCommutativeMonoidObject" xlink:title="IsCommutativeMonoidObject">
<ellipse fill="#e2cdfa" stroke="black" cx="1964" cy="-312.99" rx="146.47" ry="18"/>
<text text-anchor="middle" x="1964" y="-309.29" font-family="Times,serif" font-size="14.00">IsCommutativeMonoidObject</text>
</a>
</g>
</g>
<!-- MonoidObject_commutative_hom&#45;&gt;MonoidObject_IsCommutativeMonoidObject -->
<g id="edge4" class="edge">
<title>MonoidObject_commutative_hom&#45;&gt;MonoidObject_IsCommutativeMonoidObject</title>
<path fill="none" stroke="black" d="M1287.83,-539.07C1412.96,-497.41 1766.01,-379.9 1905.88,-333.34"/>
<polygon fill="black" stroke="black" points="1907.19,-336.59 1915.58,-330.11 1904.98,-329.95 1907.19,-336.59"/>
</g>
<!-- MonoidObject_issemigroup_hom -->
<g id="node4" class="node">
<title>MonoidObject_issemigroup_hom</title>
<g id="a_node4"><a xlink:href="MonoidObject.html#issemigroup_hom" xlink:title="issemigroup_hom">
<ellipse fill="#f070d1" stroke="black" cx="1006" cy="-796.99" rx="92.08" ry="18"/>
<text text-anchor="middle" x="1006" y="-793.29" font-family="Times,serif" font-size="14.00">issemigroup_hom</text>
</a>
</g>
</g>
<!-- MonoidObject_ismonoid_hom&#45;&gt;MonoidObject_issemigroup_hom -->
<g id="edge5" class="edge">
<title>MonoidObject_ismonoid_hom&#45;&gt;MonoidObject_issemigroup_hom</title>
<path fill="none" stroke="black" d="M934.54,-1020.73C947.8,-979.39 981.47,-874.45 997.4,-824.81"/>
<polygon fill="black" stroke="black" points="1000.79,-825.69 1000.51,-815.09 994.12,-823.55 1000.79,-825.69"/>
</g>
<!-- MonoidObject_rightidentity_hom -->
<g id="node5" class="node">
<title>MonoidObject_rightidentity_hom</title>
<g id="a_node5"><a xlink:href="MonoidObject.html#rightidentity_hom" xlink:title="rightidentity_hom">
<ellipse fill="#f070d1" stroke="black" cx="652" cy="-554.99" rx="94.48" ry="18"/>
<text text-anchor="middle" x="652" y="-551.29" font-family="Times,serif" font-size="14.00">rightidentity_hom</text>
</a>
</g>
</g>
<!-- MonoidObject_ismonoid_hom&#45;&gt;MonoidObject_rightidentity_hom -->
<g id="edge6" class="edge">
<title>MonoidObject_ismonoid_hom&#45;&gt;MonoidObject_rightidentity_hom</title>
<path fill="none" stroke="black" d="M919.3,-1021.12C878.01,-949.26 716.61,-668.42 666.76,-581.67"/>
<polygon fill="black" stroke="black" points="669.78,-579.9 661.76,-572.98 663.71,-583.39 669.78,-579.9"/>
</g>
<!-- MonoidObject_leftidentity_hom -->
<g id="node6" class="node">
<title>MonoidObject_leftidentity_hom</title>
<g id="a_node6"><a xlink:href="MonoidObject.html#leftidentity_hom" xlink:title="leftidentity_hom">
<ellipse fill="#f070d1" stroke="black" cx="851" cy="-554.99" rx="87.18" ry="18"/>
<text text-anchor="middle" x="851" y="-551.29" font-family="Times,serif" font-size="14.00">leftidentity_hom</text>
</a>
</g>
</g>
<!-- MonoidObject_ismonoid_hom&#45;&gt;MonoidObject_leftidentity_hom -->
<g id="edge7" class="edge">
<title>MonoidObject_ismonoid_hom&#45;&gt;MonoidObject_leftidentity_hom</title>
<path fill="none" stroke="black" d="M926.22,-1020.84C914.59,-948.96 869.72,-671.65 855.41,-583.24"/>
<polygon fill="black" stroke="black" points="858.84,-582.5 853.78,-573.19 851.93,-583.62 858.84,-582.5"/>
</g>
<!-- MonoidObject_associative_hom -->
<g id="node7" class="node">
<title>MonoidObject_associative_hom</title>
<g id="a_node7"><a xlink:href="MonoidObject.html#associative_hom" xlink:title="associative_hom">
<ellipse fill="#f070d1" stroke="black" cx="1043" cy="-554.99" rx="86.38" ry="18"/>
<text text-anchor="middle" x="1043" y="-551.29" font-family="Times,serif" font-size="14.00">associative_hom</text>
</a>
</g>
</g>
<!-- MonoidObject_issemigroup_hom&#45;&gt;MonoidObject_associative_hom -->
<g id="edge8" class="edge">
<title>MonoidObject_issemigroup_hom&#45;&gt;MonoidObject_associative_hom</title>
<path fill="none" stroke="black" d="M1008.66,-778.73C1015.02,-737.48 1031.14,-632.89 1038.82,-583.12"/>
<polygon fill="black" stroke="black" points="1042.3,-583.51 1040.36,-573.09 1035.38,-582.44 1042.3,-583.51"/>
</g>
<!-- MonoidObject_monunit_hom -->
<g id="node8" class="node">
<title>MonoidObject_monunit_hom</title>
<g id="a_node8"><a xlink:href="MonoidObject.html#monunit_hom" xlink:title="monunit_hom">
<ellipse fill="#f070d1" stroke="black" cx="851" cy="-312.99" rx="73.39" ry="18"/>
<text text-anchor="middle" x="851" y="-309.29" font-family="Times,serif" font-size="14.00">monunit_hom</text>
</a>
</g>
</g>
<!-- MonoidObject_rightidentity_hom&#45;&gt;MonoidObject_monunit_hom -->
<g id="edge9" class="edge">
<title>MonoidObject_rightidentity_hom&#45;&gt;MonoidObject_monunit_hom</title>
<path fill="none" stroke="black" d="M665.99,-537.11C700.53,-495.46 789.97,-387.59 830.5,-338.71"/>
<polygon fill="black" stroke="black" points="833.33,-340.78 837.02,-330.85 827.94,-336.31 833.33,-340.78"/>
</g>
<!-- MonoidObject_rightidentity_hom&#45;&gt;MonoidObject_sgop_hom -->
<g id="edge10" class="edge">
<title>MonoidObject_rightidentity_hom&#45;&gt;MonoidObject_sgop_hom</title>
<path fill="none" stroke="black" d="M697.59,-539.09C802.15,-504.79 1067.14,-417.21 1287,-338.99 1294.24,-336.42 1301.89,-333.62 1309.34,-330.87"/>
<polygon fill="black" stroke="black" points="1310.8,-334.06 1318.95,-327.3 1308.36,-327.5 1310.8,-334.06"/>
</g>
<!-- MonoidObject_leftidentity_hom&#45;&gt;MonoidObject_monunit_hom -->
<g id="edge11" class="edge">
<title>MonoidObject_leftidentity_hom&#45;&gt;MonoidObject_monunit_hom</title>
<path fill="none" stroke="black" d="M851,-536.73C851,-495.48 851,-390.89 851,-341.12"/>
<polygon fill="black" stroke="black" points="854.5,-341.09 851,-331.09 847.5,-341.09 854.5,-341.09"/>
</g>
<!-- MonoidObject_leftidentity_hom&#45;&gt;MonoidObject_sgop_hom -->
<g id="edge12" class="edge">
<title>MonoidObject_leftidentity_hom&#45;&gt;MonoidObject_sgop_hom</title>
<path fill="none" stroke="black" d="M884,-538.24C973.16,-495.7 1218.58,-378.6 1314.68,-332.75"/>
<polygon fill="black" stroke="black" points="1316.26,-335.88 1323.77,-328.41 1313.24,-329.56 1316.26,-335.88"/>
</g>
<!-- MonoidObject_associative_hom&#45;&gt;MonoidObject_sgop_hom -->
<g id="edge13" class="edge">
<title>MonoidObject_associative_hom&#45;&gt;MonoidObject_sgop_hom</title>
<path fill="none" stroke="black" d="M1064.38,-537.49C1118.9,-495.42 1263.21,-384.05 1325.12,-336.28"/>
<polygon fill="black" stroke="black" points="1327.51,-338.85 1333.29,-329.97 1323.24,-333.31 1327.51,-338.85"/>
</g>
<!-- MonoidObject_IsMonoidObject -->
<g id="node43" class="node">
<title>MonoidObject_IsMonoidObject</title>
<g id="a_node43"><a xlink:href="MonoidObject.html#IsMonoidObject" xlink:title="IsMonoidObject">
<ellipse fill="#e2cdfa" stroke="black" cx="1354" cy="-92.99" rx="83.69" ry="18"/>
<text text-anchor="middle" x="1354" y="-89.29" font-family="Times,serif" font-size="14.00">IsMonoidObject</text>
</a>
</g>
</g>
<!-- MonoidObject_monunit_hom&#45;&gt;MonoidObject_IsMonoidObject -->
<g id="edge14" class="edge">
<title>MonoidObject_monunit_hom&#45;&gt;MonoidObject_IsMonoidObject</title>
<path fill="none" stroke="black" d="M885.57,-297.01C974.29,-258.56 1209.96,-156.42 1309.08,-113.46"/>
<polygon fill="black" stroke="black" points="1310.73,-116.56 1318.51,-109.37 1307.95,-110.14 1310.73,-116.56"/>
</g>
<!-- MonoidObject_sgop_hom&#45;&gt;MonoidObject_IsMonoidObject -->
<g id="edge15" class="edge">
<title>MonoidObject_sgop_hom&#45;&gt;MonoidObject_IsMonoidObject</title>
<path fill="none" stroke="black" d="M1354,-294.88C1354,-257.16 1354,-166.56 1354,-121.04"/>
<polygon fill="black" stroke="black" points="1357.5,-121.02 1354,-111.02 1350.5,-121.02 1357.5,-121.02"/>
</g>
<!-- MonoidObject_cmo_coco_op -->
<g id="node10" class="node">
<title>MonoidObject_cmo_coco_op</title>
<g id="a_node10"><a xlink:href="MonoidObject.html#cmo_coco_op" xlink:title="cmo_coco_op">
<ellipse fill="#f070d1" stroke="black" cx="1750" cy="-1522.99" rx="70.37" ry="18"/>
<ellipse fill="none" stroke="black" cx="1750" cy="-1522.99" rx="74.38" ry="22"/>
<ellipse fill="none" stroke="black" cx="1750" cy="-1522.99" rx="78.39" ry="26"/>
<text text-anchor="middle" x="1750" y="-1519.29" font-family="Times,serif" font-size="14.00">cmo_coco_op</text>
</a>
</g>
</g>
<!-- MonoidObject_mo_co_op -->
<g id="node11" class="node">
<title>MonoidObject_mo_co_op</title>
<g id="a_node11"><a xlink:href="MonoidObject.html#mo_co_op" xlink:title="mo_co_op">
<ellipse fill="#f070d1" stroke="black" cx="1488" cy="-1280.99" rx="55.49" ry="18"/>
<text text-anchor="middle" x="1488" y="-1277.29" font-family="Times,serif" font-size="14.00">mo_co_op</text>
</a>
</g>
</g>
<!-- MonoidObject_cmo_coco_op&#45;&gt;MonoidObject_mo_co_op -->
<g id="edge16" class="edge">
<title>MonoidObject_cmo_coco_op&#45;&gt;MonoidObject_mo_co_op</title>
<path fill="none" stroke="black" d="M1723.92,-1498.1C1673.42,-1451.85 1562.91,-1350.61 1513.15,-1305.03"/>
<polygon fill="black" stroke="black" points="1515.45,-1302.39 1505.71,-1298.21 1510.72,-1307.55 1515.45,-1302.39"/>
</g>
<!-- MonoidObject_cco_cocomm -->
<g id="node12" class="node">
<title>MonoidObject_cco_cocomm</title>
<g id="a_node12"><a xlink:href="MonoidObject.html#cco_cocomm" xlink:title="cco_cocomm">
<ellipse fill="#f070d1" stroke="black" cx="1750" cy="-1280.99" rx="68.49" ry="18"/>
<text text-anchor="middle" x="1750" y="-1277.29" font-family="Times,serif" font-size="14.00">cco_cocomm</text>
</a>
</g>
</g>
<!-- MonoidObject_cmo_coco_op&#45;&gt;MonoidObject_cco_cocomm -->
<g id="edge17" class="edge">
<title>MonoidObject_cmo_coco_op&#45;&gt;MonoidObject_cco_cocomm</title>
<path fill="none" stroke="black" d="M1750,-1496.76C1750,-1451.32 1750,-1356.09 1750,-1309.23"/>
<polygon fill="black" stroke="black" points="1753.5,-1309.2 1750,-1299.2 1746.5,-1309.2 1753.5,-1309.2"/>
</g>
<!-- MonoidObject_Build_IsCommutativeMonoidObject -->
<g id="node31" class="node">
<title>MonoidObject_Build_IsCommutativeMonoidObject</title>
<g id="a_node31"><a xlink:href="MonoidObject.html#Build_IsCommutativeMonoidObject" xlink:title="Build_IsCommutativeMonoidObject">
<ellipse fill="#7faaff" stroke="black" cx="2440" cy="-312.99" rx="174.67" ry="18"/>
<text text-anchor="middle" x="2440" y="-309.29" font-family="Times,serif" font-size="14.00">Build_IsCommutativeMonoidObject</text>
</a>
</g>
</g>
<!-- MonoidObject_cmo_coco_op&#45;&gt;MonoidObject_Build_IsCommutativeMonoidObject -->
<g id="edge18" class="edge">
<title>MonoidObject_cmo_coco_op&#45;&gt;MonoidObject_Build_IsCommutativeMonoidObject</title>
<path fill="none" stroke="black" d="M1825.9,-1516.38C2148.07,-1490.51 3386,-1369.68 3386,-1039.99 3386,-1039.99 3386,-1039.99 3386,-795.99 3386,-676.99 3443.45,-619.33 3366,-528.99 3311.75,-465.72 2766.59,-368.44 2538.99,-330.21"/>
<polygon fill="black" stroke="black" points="2539.5,-326.74 2529.06,-328.54 2538.34,-333.65 2539.5,-326.74"/>
</g>
<!-- MonoidObject_co_right_counit -->
<g id="node17" class="node">
<title>MonoidObject_co_right_counit</title>
<g id="a_node17"><a xlink:href="MonoidObject.html#co_right_counit" xlink:title="co_right_counit">
<ellipse fill="#f070d1" stroke="black" cx="1315" cy="-1038.99" rx="81.49" ry="18"/>
<text text-anchor="middle" x="1315" y="-1035.29" font-family="Times,serif" font-size="14.00">co_right_counit</text>
</a>
</g>
</g>
<!-- MonoidObject_mo_co_op&#45;&gt;MonoidObject_co_right_counit -->
<g id="edge19" class="edge">
<title>MonoidObject_mo_co_op&#45;&gt;MonoidObject_co_right_counit</title>
<path fill="none" stroke="black" d="M1475.83,-1263.11C1445.87,-1221.54 1368.38,-1114.04 1333.04,-1065.02"/>
<polygon fill="black" stroke="black" points="1335.84,-1062.91 1327.15,-1056.85 1330.16,-1067.01 1335.84,-1062.91"/>
</g>
<!-- MonoidObject_co_left_counit -->
<g id="node18" class="node">
<title>MonoidObject_co_left_counit</title>
<g id="a_node18"><a xlink:href="MonoidObject.html#co_left_counit" xlink:title="co_left_counit">
<ellipse fill="#f070d1" stroke="black" cx="1488" cy="-1038.99" rx="74.19" ry="18"/>
<text text-anchor="middle" x="1488" y="-1035.29" font-family="Times,serif" font-size="14.00">co_left_counit</text>
</a>
</g>
</g>
<!-- MonoidObject_mo_co_op&#45;&gt;MonoidObject_co_left_counit -->
<g id="edge20" class="edge">
<title>MonoidObject_mo_co_op&#45;&gt;MonoidObject_co_left_counit</title>
<path fill="none" stroke="black" d="M1488,-1262.73C1488,-1221.48 1488,-1116.89 1488,-1067.12"/>
<polygon fill="black" stroke="black" points="1491.5,-1067.09 1488,-1057.09 1484.5,-1067.09 1491.5,-1067.09"/>
</g>
<!-- MonoidObject_co_coassoc -->
<g id="node19" class="node">
<title>MonoidObject_co_coassoc</title>
<g id="a_node19"><a xlink:href="MonoidObject.html#co_coassoc" xlink:title="co_coassoc">
<ellipse fill="#f070d1" stroke="black" cx="1641" cy="-1038.99" rx="61.19" ry="18"/>
<text text-anchor="middle" x="1641" y="-1035.29" font-family="Times,serif" font-size="14.00">co_coassoc</text>
</a>
</g>
</g>
<!-- MonoidObject_mo_co_op&#45;&gt;MonoidObject_co_coassoc -->
<g id="edge21" class="edge">
<title>MonoidObject_mo_co_op&#45;&gt;MonoidObject_co_coassoc</title>
<path fill="none" stroke="black" d="M1498.76,-1263.11C1525.2,-1221.63 1593.51,-1114.49 1624.85,-1065.32"/>
<polygon fill="black" stroke="black" points="1627.83,-1067.16 1630.25,-1056.85 1621.93,-1063.4 1627.83,-1067.16"/>
</g>
<!-- MonoidObject_Build_IsMonoidObject -->
<g id="node42" class="node">
<title>MonoidObject_Build_IsMonoidObject</title>
<g id="a_node42"><a xlink:href="MonoidObject.html#Build_IsMonoidObject" xlink:title="Build_IsMonoidObject">
<ellipse fill="#7faaff" stroke="black" cx="164" cy="-92.99" rx="112.38" ry="18"/>
<text text-anchor="middle" x="164" y="-89.29" font-family="Times,serif" font-size="14.00">Build_IsMonoidObject</text>
</a>
</g>
</g>
<!-- MonoidObject_mo_co_op&#45;&gt;MonoidObject_Build_IsMonoidObject -->
<g id="edge22" class="edge">
<title>MonoidObject_mo_co_op&#45;&gt;MonoidObject_Build_IsMonoidObject</title>
<path fill="none" stroke="black" d="M1436.08,-1274.63C1174.88,-1246.24 17,-1103.18 17,-797.99 17,-797.99 17,-797.99 17,-553.99 17,-434.88 1.57,-399.73 40,-286.99 62.72,-220.33 113.21,-153.68 142.27,-118.83"/>
<polygon fill="black" stroke="black" points="145.04,-120.97 148.82,-111.07 139.7,-116.45 145.04,-120.97"/>
</g>
<!-- MonoidObject_co_cco -->
<g id="node13" class="node">
<title>MonoidObject_co_cco</title>
<g id="a_node13"><a xlink:href="MonoidObject.html#co_cco" xlink:title="co_cco">
<ellipse fill="#f070d1" stroke="black" cx="1780" cy="-1038.99" rx="40.09" ry="18"/>
<text text-anchor="middle" x="1780" y="-1035.29" font-family="Times,serif" font-size="14.00">co_cco</text>
</a>
</g>
</g>
<!-- MonoidObject_cco_cocomm&#45;&gt;MonoidObject_co_cco -->
<g id="edge23" class="edge">
<title>MonoidObject_cco_cocomm&#45;&gt;MonoidObject_co_cco</title>
<path fill="none" stroke="black" d="M1752.16,-1262.73C1757.31,-1221.48 1770.39,-1116.89 1776.61,-1067.12"/>
<polygon fill="black" stroke="black" points="1780.09,-1067.45 1777.86,-1057.09 1773.15,-1066.58 1780.09,-1067.45"/>
</g>
<!-- MonoidObject_co_comult -->
<g id="node21" class="node">
<title>MonoidObject_co_comult</title>
<g id="a_node21"><a xlink:href="MonoidObject.html#co_comult" xlink:title="co_comult">
<ellipse fill="#f070d1" stroke="black" cx="1534" cy="-796.99" rx="57.39" ry="18"/>
<text text-anchor="middle" x="1534" y="-793.29" font-family="Times,serif" font-size="14.00">co_comult</text>
</a>
</g>
</g>
<!-- MonoidObject_cco_cocomm&#45;&gt;MonoidObject_co_comult -->
<g id="edge24" class="edge">
<title>MonoidObject_cco_cocomm&#45;&gt;MonoidObject_co_comult</title>
<path fill="none" stroke="black" d="M1750.6,-1262.88C1751.5,-1219.19 1749.89,-1100.8 1711,-1012.99 1675.21,-932.17 1600.27,-857.14 1560.35,-820.84"/>
<polygon fill="black" stroke="black" points="1562.64,-818.19 1552.86,-814.11 1557.96,-823.4 1562.64,-818.19"/>
</g>
<!-- MonoidObject_iscommuatativemonoid_cocomutativemonoid_op -->
<g id="node15" class="node">
<title>MonoidObject_iscommuatativemonoid_cocomutativemonoid_op</title>
<g id="a_node15"><a xlink:href="MonoidObject.html#iscommuatativemonoid_cocomutativemonoid_op" xlink:title="iscommuatativemonoid_cocomutativemonoid_op">
<ellipse fill="#f070d1" stroke="black" cx="1864" cy="-796.99" rx="234.76" ry="18"/>
<text text-anchor="middle" x="1864" y="-793.29" font-family="Times,serif" font-size="14.00">iscommuatativemonoid_cocomutativemonoid_op</text>
</a>
</g>
</g>
<!-- MonoidObject_co_cco&#45;&gt;MonoidObject_iscommuatativemonoid_cocomutativemonoid_op -->
<g id="edge25" class="edge">
<title>MonoidObject_co_cco&#45;&gt;MonoidObject_iscommuatativemonoid_cocomutativemonoid_op</title>
<path fill="none" stroke="black" d="M1785.91,-1021.11C1800.3,-979.99 1837.28,-874.33 1854.68,-824.61"/>
<polygon fill="black" stroke="black" points="1857.99,-825.76 1857.99,-815.17 1851.38,-823.45 1857.99,-825.76"/>
</g>
<!-- MonoidObject_IsComonoidObject -->
<g id="node24" class="node">
<title>MonoidObject_IsComonoidObject</title>
<g id="a_node24"><a xlink:href="MonoidObject.html#IsComonoidObject" xlink:title="IsComonoidObject">
<ellipse fill="#f070d1" stroke="black" cx="1525" cy="-312.99" rx="95.58" ry="18"/>
<text text-anchor="middle" x="1525" y="-309.29" font-family="Times,serif" font-size="14.00">IsComonoidObject</text>
</a>
</g>
</g>
<!-- MonoidObject_co_cco&#45;&gt;MonoidObject_IsComonoidObject -->
<g id="edge26" class="edge">
<title>MonoidObject_co_cco&#45;&gt;MonoidObject_IsComonoidObject</title>
<path fill="none" stroke="black" d="M1763.22,-1022.45C1728.99,-989.53 1651.68,-908.75 1620,-822.99 1574.62,-700.14 1626.25,-657.3 1600,-528.99 1585.65,-458.83 1554.05,-380.31 1536.81,-340.39"/>
<polygon fill="black" stroke="black" points="1539.96,-338.86 1532.75,-331.1 1533.54,-341.67 1539.96,-338.86"/>
</g>
<!-- MonoidObject_Build_IsCocommutativeComonoidObject -->
<g id="node14" class="node">
<title>MonoidObject_Build_IsCocommutativeComonoidObject</title>
<g id="a_node14"><a xlink:href="MonoidObject.html#Build_IsCocommutativeComonoidObject" xlink:title="Build_IsCocommutativeComonoidObject">
<ellipse fill="#f070d1" stroke="black" cx="2118" cy="-1038.99" rx="196.87" ry="18"/>
<ellipse fill="none" stroke="black" cx="2118" cy="-1038.99" rx="200.87" ry="22"/>
<ellipse fill="none" stroke="black" cx="2118" cy="-1038.99" rx="204.87" ry="26"/>
<text text-anchor="middle" x="2118" y="-1035.29" font-family="Times,serif" font-size="14.00">Build_IsCocommutativeComonoidObject</text>
</a>
</g>
</g>
<!-- MonoidObject_IsCocommutativeComonoidObject -->
<g id="node16" class="node">
<title>MonoidObject_IsCocommutativeComonoidObject</title>
<g id="a_node16"><a xlink:href="MonoidObject.html#IsCocommutativeComonoidObject" xlink:title="IsCocommutativeComonoidObject">
<ellipse fill="#f070d1" stroke="black" cx="2085" cy="-554.99" rx="168.17" ry="18"/>
<text text-anchor="middle" x="2085" y="-551.29" font-family="Times,serif" font-size="14.00">IsCocommutativeComonoidObject</text>
</a>
</g>
</g>
<!-- MonoidObject_Build_IsCocommutativeComonoidObject&#45;&gt;MonoidObject_IsCocommutativeComonoidObject -->
<g id="edge27" class="edge">
<title>MonoidObject_Build_IsCocommutativeComonoidObject&#45;&gt;MonoidObject_IsCocommutativeComonoidObject</title>
<path fill="none" stroke="black" d="M2117.64,-1012.93C2116.83,-965.59 2114.41,-859.82 2108,-770.99 2103.12,-703.28 2093.66,-623.94 2088.52,-583.2"/>
<polygon fill="black" stroke="black" points="2091.99,-582.71 2087.25,-573.23 2085.04,-583.59 2091.99,-582.71"/>
</g>
<!-- MonoidObject_Build_IsCocommutativeComonoidObject&#45;&gt;MonoidObject_co_comult -->
<g id="edge28" class="edge">
<title>MonoidObject_Build_IsCocommutativeComonoidObject&#45;&gt;MonoidObject_co_comult</title>
<path fill="none" stroke="black" d="M2059.6,-1013.99C1942.2,-965.74 1680.04,-858.01 1576.88,-815.61"/>
<polygon fill="black" stroke="black" points="1577.98,-812.28 1567.4,-811.72 1575.32,-818.76 1577.98,-812.28"/>
</g>
<!-- MonoidObject_Build_IsCocommutativeComonoidObject&#45;&gt;MonoidObject_Build_IsCommutativeMonoidObject -->
<g id="edge29" class="edge">
<title>MonoidObject_Build_IsCocommutativeComonoidObject&#45;&gt;MonoidObject_Build_IsCommutativeMonoidObject</title>
<path fill="none" stroke="black" d="M2313.17,-1030.93C2597.86,-1008.86 3118.84,-921.34 3356,-580.99 3369.21,-562.03 3370.35,-547.1 3356,-528.99 3304.83,-464.42 2765.4,-368.09 2539.08,-330.16"/>
<polygon fill="black" stroke="black" points="2539.63,-326.71 2529.19,-328.51 2538.48,-333.61 2539.63,-326.71"/>
</g>
<!-- MonoidObject_iscommuatativemonoid_cocomutativemonoid_op&#45;&gt;MonoidObject_IsCocommutativeComonoidObject -->
<g id="edge30" class="edge">
<title>MonoidObject_iscommuatativemonoid_cocomutativemonoid_op&#45;&gt;MonoidObject_IsCocommutativeComonoidObject</title>
<path fill="none" stroke="black" d="M1879.89,-778.73C1918.52,-736.78 2017.43,-629.37 2062.28,-580.66"/>
<polygon fill="black" stroke="black" points="2065.05,-582.82 2069.25,-573.09 2059.9,-578.08 2065.05,-582.82"/>
</g>
<!-- MonoidObject_IsCocommutativeComonoidObject&#45;&gt;MonoidObject_IsCommutativeMonoidObject -->
<g id="edge31" class="edge">
<title>MonoidObject_IsCocommutativeComonoidObject&#45;&gt;MonoidObject_IsCommutativeMonoidObject</title>
<path fill="none" stroke="black" d="M2076.3,-536.73C2055.37,-495.22 2002.11,-389.57 1977.21,-340.19"/>
<polygon fill="black" stroke="black" points="1980.25,-338.45 1972.62,-331.09 1974,-341.6 1980.25,-338.45"/>
</g>
<!-- MonoidObject_co_counit -->
<g id="node20" class="node">
<title>MonoidObject_co_counit</title>
<g id="a_node20"><a xlink:href="MonoidObject.html#co_counit" xlink:title="co_counit">
<ellipse fill="#f070d1" stroke="black" cx="1405" cy="-796.99" rx="53.89" ry="18"/>
<text text-anchor="middle" x="1405" y="-793.29" font-family="Times,serif" font-size="14.00">co_counit</text>
</a>
</g>
</g>
<!-- MonoidObject_co_right_counit&#45;&gt;MonoidObject_co_counit -->
<g id="edge32" class="edge">
<title>MonoidObject_co_right_counit&#45;&gt;MonoidObject_co_counit</title>
<path fill="none" stroke="black" d="M1321.47,-1020.73C1337.01,-979.3 1376.49,-874.01 1395.06,-824.5"/>
<polygon fill="black" stroke="black" points="1398.35,-825.69 1398.59,-815.09 1391.8,-823.23 1398.35,-825.69"/>
</g>
<!-- MonoidObject_co_right_counit&#45;&gt;MonoidObject_co_comult -->
<g id="edge33" class="edge">
<title>MonoidObject_co_right_counit&#45;&gt;MonoidObject_co_comult</title>
<path fill="none" stroke="black" d="M1330.4,-1021.11C1368.58,-979.27 1467.72,-870.62 1512.04,-822.06"/>
<polygon fill="black" stroke="black" points="1514.75,-824.28 1518.91,-814.53 1509.58,-819.56 1514.75,-824.28"/>
</g>
<!-- MonoidObject_co_left_counit&#45;&gt;MonoidObject_co_counit -->
<g id="edge34" class="edge">
<title>MonoidObject_co_left_counit&#45;&gt;MonoidObject_co_counit</title>
<path fill="none" stroke="black" d="M1482.03,-1020.73C1467.73,-979.39 1431.44,-874.45 1414.27,-824.81"/>
<polygon fill="black" stroke="black" points="1417.49,-823.4 1410.92,-815.09 1410.88,-825.69 1417.49,-823.4"/>
</g>
<!-- MonoidObject_co_left_counit&#45;&gt;MonoidObject_co_comult -->
<g id="edge35" class="edge">
<title>MonoidObject_co_left_counit&#45;&gt;MonoidObject_co_comult</title>
<path fill="none" stroke="black" d="M1491.31,-1020.73C1499.22,-979.48 1519.26,-874.89 1528.8,-825.12"/>
<polygon fill="black" stroke="black" points="1532.28,-825.57 1530.72,-815.09 1525.4,-824.26 1532.28,-825.57"/>
</g>
<!-- MonoidObject_co_coassoc&#45;&gt;MonoidObject_co_comult -->
<g id="edge36" class="edge">
<title>MonoidObject_co_coassoc&#45;&gt;MonoidObject_co_comult</title>
<path fill="none" stroke="black" d="M1633.48,-1021.11C1615.1,-979.89 1567.81,-873.82 1545.71,-824.25"/>
<polygon fill="black" stroke="black" points="1548.78,-822.56 1541.52,-814.85 1542.39,-825.41 1548.78,-822.56"/>
</g>
<!-- MonoidObject_ismonoid_comonoid_op -->
<g id="node23" class="node">
<title>MonoidObject_ismonoid_comonoid_op</title>
<g id="a_node23"><a xlink:href="MonoidObject.html#ismonoid_comonoid_op" xlink:title="ismonoid_comonoid_op">
<ellipse fill="#f070d1" stroke="black" cx="1474" cy="-554.99" rx="116.98" ry="18"/>
<text text-anchor="middle" x="1474" y="-551.29" font-family="Times,serif" font-size="14.00">ismonoid_comonoid_op</text>
</a>
</g>
</g>
<!-- MonoidObject_co_counit&#45;&gt;MonoidObject_ismonoid_comonoid_op -->
<g id="edge37" class="edge">
<title>MonoidObject_co_counit&#45;&gt;MonoidObject_ismonoid_comonoid_op</title>
<path fill="none" stroke="black" d="M1409.96,-778.73C1421.85,-737.39 1452.02,-632.45 1466.29,-582.81"/>
<polygon fill="black" stroke="black" points="1469.68,-583.67 1469.08,-573.09 1462.96,-581.74 1469.68,-583.67"/>
</g>
<!-- MonoidObject_co_comult&#45;&gt;MonoidObject_ismonoid_comonoid_op -->
<g id="edge38" class="edge">
<title>MonoidObject_co_comult&#45;&gt;MonoidObject_ismonoid_comonoid_op</title>
<path fill="none" stroke="black" d="M1529.68,-778.73C1519.35,-737.39 1493.12,-632.45 1480.7,-582.81"/>
<polygon fill="black" stroke="black" points="1484.1,-581.95 1478.28,-573.09 1477.31,-583.64 1484.1,-581.95"/>
</g>
<!-- MonoidObject_Build_IsComonoidObject -->
<g id="node22" class="node">
<title>MonoidObject_Build_IsComonoidObject</title>
<g id="a_node22"><a xlink:href="MonoidObject.html#Build_IsComonoidObject" xlink:title="Build_IsComonoidObject">
<ellipse fill="#f070d1" stroke="black" cx="168" cy="-554.99" rx="124.27" ry="18"/>
<ellipse fill="none" stroke="black" cx="168" cy="-554.99" rx="128.27" ry="22"/>
<ellipse fill="none" stroke="black" cx="168" cy="-554.99" rx="132.28" ry="26"/>
<text text-anchor="middle" x="168" y="-551.29" font-family="Times,serif" font-size="14.00">Build_IsComonoidObject</text>
</a>
</g>
</g>
<!-- MonoidObject_Build_IsComonoidObject&#45;&gt;MonoidObject_IsComonoidObject -->
<g id="edge39" class="edge">
<title>MonoidObject_Build_IsComonoidObject&#45;&gt;MonoidObject_IsComonoidObject</title>
<path fill="none" stroke="black" d="M263.55,-536.97C278.75,-534.28 294.3,-531.55 309,-528.99 802.52,-443.04 929.2,-439.28 1420,-338.99 1433.02,-336.33 1446.89,-333.22 1460.13,-330.13"/>
<polygon fill="black" stroke="black" points="1461.18,-333.47 1470.11,-327.76 1459.57,-326.66 1461.18,-333.47"/>
</g>
<!-- MonoidObject_Build_IsComonoidObject&#45;&gt;MonoidObject_Build_IsMonoidObject -->
<g id="edge40" class="edge">
<title>MonoidObject_Build_IsComonoidObject&#45;&gt;MonoidObject_Build_IsMonoidObject</title>
<path fill="none" stroke="black" d="M148.39,-529.04C119.69,-490.76 67.54,-414.08 48,-338.99 25.69,-253.24 98.94,-161.1 139.26,-118.35"/>
<polygon fill="black" stroke="black" points="141.96,-120.59 146.37,-110.96 136.92,-115.74 141.96,-120.59"/>
</g>
<!-- MonoidObject_ismonoid_comonoid_op&#45;&gt;MonoidObject_IsComonoidObject -->
<g id="edge41" class="edge">
<title>MonoidObject_ismonoid_comonoid_op&#45;&gt;MonoidObject_IsComonoidObject</title>
<path fill="none" stroke="black" d="M1477.67,-536.73C1486.43,-495.48 1508.66,-390.89 1519.24,-341.12"/>
<polygon fill="black" stroke="black" points="1522.71,-341.6 1521.37,-331.09 1515.86,-340.15 1522.71,-341.6"/>
</g>
<!-- MonoidObject_IsComonoidObject&#45;&gt;MonoidObject_IsMonoidObject -->
<g id="edge42" class="edge">
<title>MonoidObject_IsComonoidObject&#45;&gt;MonoidObject_IsMonoidObject</title>
<path fill="none" stroke="black" d="M1511.58,-294.88C1481.55,-256.6 1408.81,-163.87 1373.66,-119.06"/>
<polygon fill="black" stroke="black" points="1376.28,-116.72 1367.36,-111.02 1370.77,-121.05 1376.28,-116.72"/>
</g>
<!-- MonoidObject_cmo_comm -->
<g id="node25" class="node">
<title>MonoidObject_cmo_comm</title>
<g id="a_node25"><a xlink:href="MonoidObject.html#cmo_comm" xlink:title="cmo_comm">
<ellipse fill="#f070d1" stroke="black" cx="1699" cy="-554.99" rx="61.96" ry="18"/>
<ellipse fill="none" stroke="black" cx="1699" cy="-554.99" rx="65.98" ry="22"/>
<ellipse fill="none" stroke="black" cx="1699" cy="-554.99" rx="69.99" ry="26"/>
<text text-anchor="middle" x="1699" y="-551.29" font-family="Times,serif" font-size="14.00">cmo_comm</text>
</a>
</g>
</g>
<!-- MonoidObject_cmo_comm&#45;&gt;MonoidObject_IsCommutativeMonoidObject -->
<g id="edge43" class="edge">
<title>MonoidObject_cmo_comm&#45;&gt;MonoidObject_IsCommutativeMonoidObject</title>
<path fill="none" stroke="black" d="M1724.89,-530.54C1775.45,-484.75 1886.82,-383.89 1937.7,-337.81"/>
<polygon fill="black" stroke="black" points="1940.27,-340.21 1945.33,-330.9 1935.57,-335.02 1940.27,-340.21"/>
</g>
<!-- MonoidObject_cmo_mo -->
<g id="node26" class="node">
<title>MonoidObject_cmo_mo</title>
<g id="a_node26"><a xlink:href="MonoidObject.html#cmo_mo" xlink:title="cmo_mo">
<ellipse fill="#f070d1" stroke="black" cx="1843" cy="-554.99" rx="48.18" ry="18"/>
<ellipse fill="none" stroke="black" cx="1843" cy="-554.99" rx="52.18" ry="22"/>
<ellipse fill="none" stroke="black" cx="1843" cy="-554.99" rx="56.19" ry="26"/>
<text text-anchor="middle" x="1843" y="-551.29" font-family="Times,serif" font-size="14.00">cmo_mo</text>
</a>
</g>
</g>
<!-- MonoidObject_cmo_mo&#45;&gt;MonoidObject_IsCommutativeMonoidObject -->
<g id="edge44" class="edge">
<title>MonoidObject_cmo_mo&#45;&gt;MonoidObject_IsCommutativeMonoidObject</title>
<path fill="none" stroke="black" d="M1855.49,-529.21C1878.49,-483.59 1927.33,-386.73 1950.83,-340.12"/>
<polygon fill="black" stroke="black" points="1954.06,-341.48 1955.44,-330.97 1947.81,-338.33 1954.06,-341.48"/>
</g>
<!-- MonoidObject_IsCommutativeMonoidObject_sind -->
<g id="node27" class="node">
<title>MonoidObject_IsCommutativeMonoidObject_sind</title>
<g id="a_node27"><a xlink:href="MonoidObject.html#IsCommutativeMonoidObject_sind" xlink:title="IsCommutativeMonoidObject_sind">
<ellipse fill="#f070d1" stroke="black" cx="2805" cy="-554.99" rx="170.08" ry="18"/>
<ellipse fill="none" stroke="black" cx="2805" cy="-554.99" rx="174.07" ry="22"/>
<ellipse fill="none" stroke="black" cx="2805" cy="-554.99" rx="178.07" ry="26"/>
<text text-anchor="middle" x="2805" y="-551.29" font-family="Times,serif" font-size="14.00">IsCommutativeMonoidObject_sind</text>
</a>
</g>
</g>
<!-- MonoidObject_IsCommutativeMonoidObject_sind&#45;&gt;MonoidObject_Build_IsCommutativeMonoidObject -->
<g id="edge45" class="edge">
<title>MonoidObject_IsCommutativeMonoidObject_sind&#45;&gt;MonoidObject_Build_IsCommutativeMonoidObject</title>
<path fill="none" stroke="black" d="M2767.65,-529.43C2696.71,-482.79 2543.41,-381.98 2474.63,-336.76"/>
<polygon fill="black" stroke="black" points="2476.17,-333.58 2465.89,-331.01 2472.32,-339.43 2476.17,-333.58"/>
</g>
<!-- MonoidObject_IsCommutativeMonoidObject_sind&#45;&gt;MonoidObject_IsCommutativeMonoidObject -->
<g id="edge46" class="edge">
<title>MonoidObject_IsCommutativeMonoidObject_sind&#45;&gt;MonoidObject_IsCommutativeMonoidObject</title>
<path fill="none" stroke="black" d="M2726.64,-531.63C2561.65,-484.54 2181.15,-375.96 2028.8,-332.48"/>
<polygon fill="black" stroke="black" points="2029.67,-329.09 2019.1,-329.71 2027.75,-335.82 2029.67,-329.09"/>
</g>
<!-- MonoidObject_IsCommutativeMonoidObject_rec -->
<g id="node28" class="node">
<title>MonoidObject_IsCommutativeMonoidObject_rec</title>
<g id="a_node28"><a xlink:href="MonoidObject.html#IsCommutativeMonoidObject_rec" xlink:title="IsCommutativeMonoidObject_rec">
<ellipse fill="#f070d1" stroke="black" cx="2440" cy="-796.99" rx="165.17" ry="18"/>
<ellipse fill="none" stroke="black" cx="2440" cy="-796.99" rx="169.17" ry="22"/>
<ellipse fill="none" stroke="black" cx="2440" cy="-796.99" rx="173.17" ry="26"/>
<text text-anchor="middle" x="2440" y="-793.29" font-family="Times,serif" font-size="14.00">IsCommutativeMonoidObject_rec</text>
</a>
</g>
</g>
<!-- MonoidObject_IsCommutativeMonoidObject_rect -->
<g id="node30" class="node">
<title>MonoidObject_IsCommutativeMonoidObject_rect</title>
<g id="a_node30"><a xlink:href="MonoidObject.html#IsCommutativeMonoidObject_rect" xlink:title="IsCommutativeMonoidObject_rect">
<ellipse fill="#f070d1" stroke="black" cx="2440" cy="-554.99" rx="168.97" ry="18"/>
<text text-anchor="middle" x="2440" y="-551.29" font-family="Times,serif" font-size="14.00">IsCommutativeMonoidObject_rect</text>
</a>
</g>
</g>
<!-- MonoidObject_IsCommutativeMonoidObject_rec&#45;&gt;MonoidObject_IsCommutativeMonoidObject_rect -->
<g id="edge47" class="edge">
<title>MonoidObject_IsCommutativeMonoidObject_rec&#45;&gt;MonoidObject_IsCommutativeMonoidObject_rect</title>
<path fill="none" stroke="black" d="M2440,-770.76C2440,-725.32 2440,-630.09 2440,-583.23"/>
<polygon fill="black" stroke="black" points="2443.5,-583.2 2440,-573.2 2436.5,-583.2 2443.5,-583.2"/>
</g>
<!-- MonoidObject_IsCommutativeMonoidObject_ind -->
<g id="node29" class="node">
<title>MonoidObject_IsCommutativeMonoidObject_ind</title>
<g id="a_node29"><a xlink:href="MonoidObject.html#IsCommutativeMonoidObject_ind" xlink:title="IsCommutativeMonoidObject_ind">
<ellipse fill="#7fffd4" stroke="black" cx="3174" cy="-554.99" rx="165.17" ry="18"/>
<ellipse fill="none" stroke="black" cx="3174" cy="-554.99" rx="169.17" ry="22"/>
<ellipse fill="none" stroke="black" cx="3174" cy="-554.99" rx="173.17" ry="26"/>
<text text-anchor="middle" x="3174" y="-551.29" font-family="Times,serif" font-size="14.00">IsCommutativeMonoidObject_ind</text>
</a>
</g>
</g>
<!-- MonoidObject_IsCommutativeMonoidObject_ind&#45;&gt;MonoidObject_Build_IsCommutativeMonoidObject -->
<g id="edge48" class="edge">
<title>MonoidObject_IsCommutativeMonoidObject_ind&#45;&gt;MonoidObject_Build_IsCommutativeMonoidObject</title>
<path fill="none" stroke="black" d="M3103.95,-531.09C2960.27,-484.11 2634.43,-377.56 2499.86,-333.56"/>
<polygon fill="black" stroke="black" points="2500.72,-330.16 2490.12,-330.38 2498.54,-336.81 2500.72,-330.16"/>
</g>
<!-- MonoidObject_IsCommutativeMonoidObject_ind&#45;&gt;MonoidObject_IsCommutativeMonoidObject -->
<g id="edge49" class="edge">
<title>MonoidObject_IsCommutativeMonoidObject_ind&#45;&gt;MonoidObject_IsCommutativeMonoidObject</title>
<path fill="none" stroke="black" d="M3072.66,-533.89C2838.49,-487.44 2263.4,-373.38 2047.62,-330.58"/>
<polygon fill="black" stroke="black" points="2048.1,-327.1 2037.61,-328.59 2046.74,-333.97 2048.1,-327.1"/>
</g>
<!-- MonoidObject_IsCommutativeMonoidObject_rect&#45;&gt;MonoidObject_Build_IsCommutativeMonoidObject -->
<g id="edge50" class="edge">
<title>MonoidObject_IsCommutativeMonoidObject_rect&#45;&gt;MonoidObject_Build_IsCommutativeMonoidObject</title>
<path fill="none" stroke="black" d="M2440,-536.73C2440,-495.48 2440,-390.89 2440,-341.12"/>
<polygon fill="black" stroke="black" points="2443.5,-341.09 2440,-331.09 2436.5,-341.09 2443.5,-341.09"/>
</g>
<!-- MonoidObject_IsCommutativeMonoidObject_rect&#45;&gt;MonoidObject_IsCommutativeMonoidObject -->
<g id="edge51" class="edge">
<title>MonoidObject_IsCommutativeMonoidObject_rect&#45;&gt;MonoidObject_IsCommutativeMonoidObject</title>
<path fill="none" stroke="black" d="M2406.91,-537.3C2322.52,-494.76 2099.4,-382.26 2006.02,-335.18"/>
<polygon fill="black" stroke="black" points="2007.38,-331.94 1996.87,-330.57 2004.23,-338.19 2007.38,-331.94"/>
</g>
<!-- MonoidObject_Build_IsCommutativeMonoidObject&#45;&gt;MonoidObject_IsMonoidObject -->
<g id="edge52" class="edge">
<title>MonoidObject_Build_IsCommutativeMonoidObject&#45;&gt;MonoidObject_IsMonoidObject</title>
<path fill="none" stroke="black" d="M2364.07,-296.75C2162.62,-256.31 1616.82,-146.75 1423.24,-107.89"/>
<polygon fill="black" stroke="black" points="1423.68,-104.41 1413.19,-105.87 1422.31,-111.27 1423.68,-104.41"/>
</g>
<!-- MonoidObject_IsCommutativeMonoidObject&#45;&gt;MonoidObject_IsMonoidObject -->
<g id="edge53" class="edge">
<title>MonoidObject_IsCommutativeMonoidObject&#45;&gt;MonoidObject_IsMonoidObject</title>
<path fill="none" stroke="black" d="M1918.65,-295.78C1807.33,-256 1521.21,-153.75 1404.6,-112.07"/>
<polygon fill="black" stroke="black" points="1405.77,-108.78 1395.18,-108.71 1403.42,-115.37 1405.77,-108.78"/>
</g>
<!-- MonoidObject_mo_right_unit -->
<g id="node33" class="node">
<title>MonoidObject_mo_right_unit</title>
<g id="a_node33"><a xlink:href="MonoidObject.html#mo_right_unit" xlink:title="mo_right_unit">
<ellipse fill="#f070d1" stroke="black" cx="1195" cy="-312.99" rx="75.3" ry="18"/>
<ellipse fill="none" stroke="black" cx="1195" cy="-312.99" rx="79.29" ry="22"/>
<ellipse fill="none" stroke="black" cx="1195" cy="-312.99" rx="83.29" ry="26"/>
<text text-anchor="middle" x="1195" y="-309.29" font-family="Times,serif" font-size="14.00">mo_right_unit</text>
</a>
</g>
</g>
<!-- MonoidObject_mo_right_unit&#45;&gt;MonoidObject_IsMonoidObject -->
<g id="edge54" class="edge">
<title>MonoidObject_mo_right_unit&#45;&gt;MonoidObject_IsMonoidObject</title>
<path fill="none" stroke="black" d="M1212.93,-287.41C1243.34,-245.72 1304.7,-161.59 1335.49,-119.37"/>
<polygon fill="black" stroke="black" points="1338.51,-121.17 1341.58,-111.02 1332.86,-117.04 1338.51,-121.17"/>
</g>
<!-- MonoidObject_mo_left_unit -->
<g id="node34" class="node">
<title>MonoidObject_mo_left_unit</title>
<g id="a_node34"><a xlink:href="MonoidObject.html#mo_left_unit" xlink:title="mo_left_unit">
<ellipse fill="#f070d1" stroke="black" cx="1018" cy="-312.99" rx="67.68" ry="18"/>
<ellipse fill="none" stroke="black" cx="1018" cy="-312.99" rx="71.68" ry="22"/>
<ellipse fill="none" stroke="black" cx="1018" cy="-312.99" rx="75.69" ry="26"/>
<text text-anchor="middle" x="1018" y="-309.29" font-family="Times,serif" font-size="14.00">mo_left_unit</text>
</a>
</g>
</g>
<!-- MonoidObject_mo_left_unit&#45;&gt;MonoidObject_IsMonoidObject -->
<g id="edge55" class="edge">
<title>MonoidObject_mo_left_unit&#45;&gt;MonoidObject_IsMonoidObject</title>
<path fill="none" stroke="black" d="M1052.38,-289.68C1117.07,-247.71 1256.17,-157.46 1320.32,-115.84"/>
<polygon fill="black" stroke="black" points="1322.38,-118.68 1328.86,-110.3 1318.57,-112.81 1322.38,-118.68"/>
</g>
<!-- MonoidObject_mo_assoc -->
<g id="node35" class="node">
<title>MonoidObject_mo_assoc</title>
<g id="a_node35"><a xlink:href="MonoidObject.html#mo_assoc" xlink:title="mo_assoc">
<ellipse fill="#f070d1" stroke="black" cx="2962" cy="-312.99" rx="54.68" ry="18"/>
<ellipse fill="none" stroke="black" cx="2962" cy="-312.99" rx="58.68" ry="22"/>
<ellipse fill="none" stroke="black" cx="2962" cy="-312.99" rx="62.69" ry="26"/>
<text text-anchor="middle" x="2962" y="-309.29" font-family="Times,serif" font-size="14.00">mo_assoc</text>
</a>
</g>
</g>
<!-- MonoidObject_mo_assoc&#45;&gt;MonoidObject_IsMonoidObject -->
<g id="edge56" class="edge">
<title>MonoidObject_mo_assoc&#45;&gt;MonoidObject_IsMonoidObject</title>
<path fill="none" stroke="black" d="M2917.1,-294.79C2908.22,-291.84 2898.89,-289.07 2890,-286.99 2350.45,-160.89 1683.75,-112.72 1444.62,-98.75"/>
<polygon fill="black" stroke="black" points="1444.77,-95.25 1434.59,-98.17 1444.37,-102.24 1444.77,-95.25"/>
</g>
<!-- MonoidObject_mo_unit -->
<g id="node36" class="node">
<title>MonoidObject_mo_unit</title>
<g id="a_node36"><a xlink:href="MonoidObject.html#mo_unit" xlink:title="mo_unit">
<ellipse fill="#f070d1" stroke="black" cx="2825" cy="-312.99" rx="48.18" ry="18"/>
<ellipse fill="none" stroke="black" cx="2825" cy="-312.99" rx="52.18" ry="22"/>
<ellipse fill="none" stroke="black" cx="2825" cy="-312.99" rx="56.19" ry="26"/>
<text text-anchor="middle" x="2825" y="-309.29" font-family="Times,serif" font-size="14.00">mo_unit</text>
</a>
</g>
</g>
<!-- MonoidObject_mo_unit&#45;&gt;MonoidObject_IsMonoidObject -->
<g id="edge57" class="edge">
<title>MonoidObject_mo_unit&#45;&gt;MonoidObject_IsMonoidObject</title>
<path fill="none" stroke="black" d="M2784.55,-294.79C2776.53,-291.84 2768.08,-289.07 2760,-286.99 2273.25,-161.77 1669.48,-113.57 1444.25,-99.15"/>
<polygon fill="black" stroke="black" points="1444.33,-95.64 1434.13,-98.51 1443.89,-102.63 1444.33,-95.64"/>
</g>
<!-- MonoidObject_mo_mult -->
<g id="node37" class="node">
<title>MonoidObject_mo_mult</title>
<g id="a_node37"><a xlink:href="MonoidObject.html#mo_mult" xlink:title="mo_mult">
<ellipse fill="#f070d1" stroke="black" cx="2692" cy="-312.99" rx="50.86" ry="18"/>
<ellipse fill="none" stroke="black" cx="2692" cy="-312.99" rx="54.88" ry="22"/>
<ellipse fill="none" stroke="black" cx="2692" cy="-312.99" rx="58.89" ry="26"/>
<text text-anchor="middle" x="2692" y="-309.29" font-family="Times,serif" font-size="14.00">mo_mult</text>
</a>
</g>
</g>
<!-- MonoidObject_mo_mult&#45;&gt;MonoidObject_IsMonoidObject -->
<g id="edge58" class="edge">
<title>MonoidObject_mo_mult&#45;&gt;MonoidObject_IsMonoidObject</title>
<path fill="none" stroke="black" d="M2649.61,-294.92C2641.22,-291.96 2632.41,-289.15 2624,-286.99 2187.49,-174.81 1648.73,-119.47 1441.17,-101.14"/>
<polygon fill="black" stroke="black" points="1441.21,-97.63 1430.94,-100.24 1440.6,-104.6 1441.21,-97.63"/>
</g>
<!-- MonoidObject_IsMonoidObject_sind -->
<g id="node38" class="node">
<title>MonoidObject_IsMonoidObject_sind</title>
<g id="a_node38"><a xlink:href="MonoidObject.html#IsMonoidObject_sind" xlink:title="IsMonoidObject_sind">
<ellipse fill="#f070d1" stroke="black" cx="644" cy="-312.99" rx="107.79" ry="18"/>
<ellipse fill="none" stroke="black" cx="644" cy="-312.99" rx="111.78" ry="22"/>
<ellipse fill="none" stroke="black" cx="644" cy="-312.99" rx="115.78" ry="26"/>
<text text-anchor="middle" x="644" y="-309.29" font-family="Times,serif" font-size="14.00">IsMonoidObject_sind</text>
</a>
</g>
</g>
<!-- MonoidObject_IsMonoidObject_sind&#45;&gt;MonoidObject_Build_IsMonoidObject -->
<g id="edge59" class="edge">
<title>MonoidObject_IsMonoidObject_sind&#45;&gt;MonoidObject_Build_IsMonoidObject</title>
<path fill="none" stroke="black" d="M594.44,-289.48C500.63,-246.88 298.48,-155.07 208.62,-114.26"/>
<polygon fill="black" stroke="black" points="210.07,-111.07 199.52,-110.12 207.17,-117.44 210.07,-111.07"/>
</g>
<!-- MonoidObject_IsMonoidObject_sind&#45;&gt;MonoidObject_IsMonoidObject -->
<g id="edge60" class="edge">
<title>MonoidObject_IsMonoidObject_sind&#45;&gt;MonoidObject_IsMonoidObject</title>
<path fill="none" stroke="black" d="M710.48,-291.58C849.57,-248.87 1169.09,-150.77 1298.28,-111.1"/>
<polygon fill="black" stroke="black" points="1299.45,-114.4 1307.98,-108.12 1297.4,-107.71 1299.45,-114.4"/>
</g>
<!-- MonoidObject_IsMonoidObject_rec -->
<g id="node39" class="node">
<title>MonoidObject_IsMonoidObject_rec</title>
<g id="a_node39"><a xlink:href="MonoidObject.html#IsMonoidObject_rec" xlink:title="IsMonoidObject_rec">
<ellipse fill="#f070d1" stroke="black" cx="429" cy="-554.99" rx="102.87" ry="18"/>
<ellipse fill="none" stroke="black" cx="429" cy="-554.99" rx="106.88" ry="22"/>
<ellipse fill="none" stroke="black" cx="429" cy="-554.99" rx="110.88" ry="26"/>
<text text-anchor="middle" x="429" y="-551.29" font-family="Times,serif" font-size="14.00">IsMonoidObject_rec</text>
</a>
</g>
</g>
<!-- MonoidObject_IsMonoidObject_rect -->
<g id="node41" class="node">
<title>MonoidObject_IsMonoidObject_rect</title>
<g id="a_node41"><a xlink:href="MonoidObject.html#IsMonoidObject_rect" xlink:title="IsMonoidObject_rect">
<ellipse fill="#f070d1" stroke="black" cx="164" cy="-312.99" rx="106.68" ry="18"/>
<text text-anchor="middle" x="164" y="-309.29" font-family="Times,serif" font-size="14.00">IsMonoidObject_rect</text>
</a>
</g>
</g>
<!-- MonoidObject_IsMonoidObject_rec&#45;&gt;MonoidObject_IsMonoidObject_rect -->
<g id="edge61" class="edge">
<title>MonoidObject_IsMonoidObject_rec&#45;&gt;MonoidObject_IsMonoidObject_rect</title>
<path fill="none" stroke="black" d="M402.13,-529.66C351.05,-483.39 240.52,-383.29 190.06,-337.6"/>
<polygon fill="black" stroke="black" points="192.26,-334.86 182.5,-330.75 187.56,-340.05 192.26,-334.86"/>
</g>
<!-- MonoidObject_IsMonoidObject_ind -->
<g id="node40" class="node">
<title>MonoidObject_IsMonoidObject_ind</title>
<g id="a_node40"><a xlink:href="MonoidObject.html#IsMonoidObject_ind" xlink:title="IsMonoidObject_ind">
<ellipse fill="#7fffd4" stroke="black" cx="399" cy="-312.99" rx="102.87" ry="18"/>
<ellipse fill="none" stroke="black" cx="399" cy="-312.99" rx="106.88" ry="22"/>
<ellipse fill="none" stroke="black" cx="399" cy="-312.99" rx="110.88" ry="26"/>
<text text-anchor="middle" x="399" y="-309.29" font-family="Times,serif" font-size="14.00">IsMonoidObject_ind</text>
</a>
</g>
</g>
<!-- MonoidObject_IsMonoidObject_ind&#45;&gt;MonoidObject_Build_IsMonoidObject -->
<g id="edge62" class="edge">
<title>MonoidObject_IsMonoidObject_ind&#45;&gt;MonoidObject_Build_IsMonoidObject</title>
<path fill="none" stroke="black" d="M372.5,-287.41C327.09,-245.28 234.96,-159.82 189.94,-118.06"/>
<polygon fill="black" stroke="black" points="192.07,-115.26 182.36,-111.02 187.31,-120.39 192.07,-115.26"/>
</g>
<!-- MonoidObject_IsMonoidObject_ind&#45;&gt;MonoidObject_IsMonoidObject -->
<g id="edge63" class="edge">
<title>MonoidObject_IsMonoidObject_ind&#45;&gt;MonoidObject_IsMonoidObject</title>
<path fill="none" stroke="black" d="M476.34,-294.34C659.74,-252.47 1118.38,-147.78 1288.85,-108.86"/>
<polygon fill="black" stroke="black" points="1289.72,-112.25 1298.69,-106.62 1288.16,-105.43 1289.72,-112.25"/>
</g>
<!-- MonoidObject_IsMonoidObject_rect&#45;&gt;MonoidObject_Build_IsMonoidObject -->
<g id="edge64" class="edge">
<title>MonoidObject_IsMonoidObject_rect&#45;&gt;MonoidObject_Build_IsMonoidObject</title>
<path fill="none" stroke="black" d="M164,-294.88C164,-257.16 164,-166.56 164,-121.04"/>
<polygon fill="black" stroke="black" points="167.5,-121.02 164,-111.02 160.5,-121.02 167.5,-121.02"/>
</g>
<!-- MonoidObject_IsMonoidObject_rect&#45;&gt;MonoidObject_IsMonoidObject -->
<g id="edge65" class="edge">
<title>MonoidObject_IsMonoidObject_rect&#45;&gt;MonoidObject_IsMonoidObject</title>
<path fill="none" stroke="black" d="M225.39,-298.21C242.7,-294.44 261.56,-290.45 279,-286.99 653.97,-212.6 1105.06,-135.68 1279.82,-106.35"/>
<polygon fill="black" stroke="black" points="1280.65,-109.76 1289.93,-104.65 1279.49,-102.86 1280.65,-109.76"/>
</g>
</g>
</svg>
