<?xml version="1.0" encoding="UTF-8" standalone="no"?>
<!DOCTYPE svg PUBLIC "-//W3C//DTD SVG 1.1//EN"
 "http://www.w3.org/Graphics/SVG/1.1/DTD/svg11.dtd">
<!-- Generated by graphviz version 2.43.0 (0)
 -->
<!-- Title: HoTT_Types_Arrow Pages: 1 -->
<svg width="4129pt" height="2069pt"
 viewBox="0.00 0.00 4129.00 2068.50" xmlns="http://www.w3.org/2000/svg" xmlns:xlink="http://www.w3.org/1999/xlink">
<g id="graph0" class="graph" transform="scale(1 1) rotate(0) translate(4 2064.5)">
<title>HoTT_Types_Arrow</title>
<polygon fill="white" stroke="transparent" points="-4,4 -4,-2064.5 4125,-2064.5 4125,4 -4,4"/>
<g id="clust1" class="cluster">
<title>cluster_Arrow</title>
<polygon fill="#ffffc3" stroke="black" points="8,-46.43 8,-2014.07 4113,-2014.07 4113,-46.43 8,-46.43"/>
<text text-anchor="middle" x="38" y="-1998.87" font-family="Times,serif" font-size="14.00">Arrow</text>
</g>
<!-- Arrow_decidable_arrow -->
<g id="node1" class="node">
<title>Arrow_decidable_arrow</title>
<g id="a_node1"><a xlink:href="Arrow.html#decidable_arrow" xlink:title="decidable_arrow">
<ellipse fill="#f070d1" stroke="black" cx="4010" cy="-1683.43" rx="87.18" ry="18"/>
<ellipse fill="none" stroke="black" cx="4010" cy="-1683.43" rx="91.18" ry="22"/>
<ellipse fill="none" stroke="black" cx="4010" cy="-1683.43" rx="95.18" ry="26"/>
<text text-anchor="middle" x="4010" y="-1679.73" font-family="Times,serif" font-size="14.00">decidable_arrow</text>
</a>
</g>
</g>
<!-- Arrow_equiv_functor_arrow_ -->
<g id="node2" class="node">
<title>Arrow_equiv_functor_arrow_</title>
<g id="a_node2"><a xlink:href="Arrow.html#equiv_functor_arrow'" xlink:title="equiv_functor_arrow&#39;">
<ellipse fill="#f070d1" stroke="black" cx="3780" cy="-1683.43" rx="108.58" ry="18"/>
<ellipse fill="none" stroke="black" cx="3780" cy="-1683.43" rx="112.58" ry="22"/>
<ellipse fill="none" stroke="black" cx="3780" cy="-1683.43" rx="116.58" ry="26"/>
<text text-anchor="middle" x="3780" y="-1679.73" font-family="Times,serif" font-size="14.00">equiv_functor_arrow&#39;</text>
</a>
</g>
</g>
<!-- Arrow_equiv_functor_arrow -->
<g id="node3" class="node">
<title>Arrow_equiv_functor_arrow</title>
<g id="a_node3"><a xlink:href="Arrow.html#equiv_functor_arrow" xlink:title="equiv_functor_arrow">
<ellipse fill="#f070d1" stroke="black" cx="3532" cy="-1683.43" rx="105.89" ry="18"/>
<ellipse fill="none" stroke="black" cx="3532" cy="-1683.43" rx="109.88" ry="22"/>
<ellipse fill="none" stroke="black" cx="3532" cy="-1683.43" rx="113.88" ry="26"/>
<text text-anchor="middle" x="3532" y="-1679.73" font-family="Times,serif" font-size="14.00">equiv_functor_arrow</text>
</a>
</g>
</g>
<!-- Arrow_isequiv_functor_arrow -->
<g id="node4" class="node">
<title>Arrow_isequiv_functor_arrow</title>
<g id="a_node4"><a xlink:href="Arrow.html#isequiv_functor_arrow" xlink:title="isequiv_functor_arrow">
<ellipse fill="#f070d1" stroke="black" cx="3338" cy="-661.43" rx="113.96" ry="18"/>
<ellipse fill="none" stroke="black" cx="3338" cy="-661.43" rx="117.97" ry="22"/>
<ellipse fill="none" stroke="black" cx="3338" cy="-661.43" rx="121.98" ry="26"/>
<text text-anchor="middle" x="3338" y="-657.73" font-family="Times,serif" font-size="14.00">isequiv_functor_arrow</text>
</a>
</g>
</g>
<!-- Arrow_functor_arrow -->
<g id="node11" class="node">
<title>Arrow_functor_arrow</title>
<g id="a_node11"><a xlink:href="Arrow.html#functor_arrow" xlink:title="functor_arrow">
<ellipse fill="#f070d1" stroke="black" cx="3338" cy="-197.43" rx="76.09" ry="18"/>
<text text-anchor="middle" x="3338" y="-193.73" font-family="Times,serif" font-size="14.00">functor_arrow</text>
</a>
</g>
</g>
<!-- Arrow_isequiv_functor_arrow&#45;&gt;Arrow_functor_arrow -->
<g id="edge1" class="edge">
<title>Arrow_isequiv_functor_arrow&#45;&gt;Arrow_functor_arrow</title>
<path fill="none" stroke="black" d="M3338,-635.27C3338,-555.43 3338,-308.29 3338,-225.66"/>
<polygon fill="black" stroke="black" points="3341.5,-225.55 3338,-215.55 3334.5,-225.55 3341.5,-225.55"/>
</g>
<!-- Arrow_equiv_arrow_from_contr -->
<g id="node5" class="node">
<title>Arrow_equiv_arrow_from_contr</title>
<g id="a_node5"><a xlink:href="Arrow.html#equiv_arrow_from_contr" xlink:title="equiv_arrow_from_contr">
<ellipse fill="#f070d1" stroke="black" cx="3269" cy="-1683.43" rx="122.69" ry="18"/>
<ellipse fill="none" stroke="black" cx="3269" cy="-1683.43" rx="126.68" ry="22"/>
<ellipse fill="none" stroke="black" cx="3269" cy="-1683.43" rx="130.68" ry="26"/>
<text text-anchor="middle" x="3269" y="-1679.73" font-family="Times,serif" font-size="14.00">equiv_arrow_from_contr</text>
</a>
</g>
</g>
<!-- Arrow_istrunc_arrow -->
<g id="node6" class="node">
<title>Arrow_istrunc_arrow</title>
<g id="a_node6"><a xlink:href="Arrow.html#istrunc_arrow" xlink:title="istrunc_arrow">
<ellipse fill="#f070d1" stroke="black" cx="3037" cy="-1683.43" rx="75.3" ry="18"/>
<ellipse fill="none" stroke="black" cx="3037" cy="-1683.43" rx="79.29" ry="22"/>
<ellipse fill="none" stroke="black" cx="3037" cy="-1683.43" rx="83.29" ry="26"/>
<text text-anchor="middle" x="3037" y="-1679.73" font-family="Times,serif" font-size="14.00">istrunc_arrow</text>
</a>
</g>
</g>
<!-- Arrow_contr_arrow -->
<g id="node7" class="node">
<title>Arrow_contr_arrow</title>
<g id="a_node7"><a xlink:href="Arrow.html#contr_arrow" xlink:title="contr_arrow">
<ellipse fill="#f070d1" stroke="black" cx="2861" cy="-1683.43" rx="66.89" ry="18"/>
<ellipse fill="none" stroke="black" cx="2861" cy="-1683.43" rx="70.89" ry="22"/>
<ellipse fill="none" stroke="black" cx="2861" cy="-1683.43" rx="74.89" ry="26"/>
<text text-anchor="middle" x="2861" y="-1679.73" font-family="Times,serif" font-size="14.00">contr_arrow</text>
</a>
</g>
</g>
<!-- Arrow_ap_functor_arrow -->
<g id="node8" class="node">
<title>Arrow_ap_functor_arrow</title>
<g id="a_node8"><a xlink:href="Arrow.html#ap_functor_arrow" xlink:title="ap_functor_arrow">
<ellipse fill="#f070d1" stroke="black" cx="3099" cy="-661.43" rx="91.77" ry="18"/>
<ellipse fill="none" stroke="black" cx="3099" cy="-661.43" rx="95.78" ry="22"/>
<ellipse fill="none" stroke="black" cx="3099" cy="-661.43" rx="99.78" ry="26"/>
<text text-anchor="middle" x="3099" y="-657.73" font-family="Times,serif" font-size="14.00">ap_functor_arrow</text>
</a>
</g>
</g>
<!-- Arrow_ap_functor_arrow&#45;&gt;Arrow_functor_arrow -->
<g id="edge2" class="edge">
<title>Arrow_ap_functor_arrow&#45;&gt;Arrow_functor_arrow</title>
<path fill="none" stroke="black" d="M3111.85,-635.59C3153.12,-555.81 3282.1,-306.49 3324.41,-224.71"/>
<polygon fill="black" stroke="black" points="3327.64,-226.08 3329.13,-215.59 3321.42,-222.86 3327.64,-226.08"/>
</g>
<!-- Arrow_path_arrow -->
<g id="node38" class="node">
<title>Arrow_path_arrow</title>
<g id="a_node38"><a xlink:href="Arrow.html#path_arrow" xlink:title="path_arrow">
<ellipse fill="#f070d1" stroke="black" cx="2410" cy="-197.43" rx="63.89" ry="18"/>
<text text-anchor="middle" x="2410" y="-193.73" font-family="Times,serif" font-size="14.00">path_arrow</text>
</a>
</g>
</g>
<!-- Arrow_ap_functor_arrow&#45;&gt;Arrow_path_arrow -->
<g id="edge3" class="edge">
<title>Arrow_ap_functor_arrow&#45;&gt;Arrow_path_arrow</title>
<path fill="none" stroke="black" d="M3063.89,-636.89C2944.68,-556.96 2556.59,-296.73 2442.08,-219.95"/>
<polygon fill="black" stroke="black" points="2443.95,-216.99 2433.7,-214.32 2440.05,-222.8 2443.95,-216.99"/>
</g>
<!-- Arrow_iff_not -->
<g id="node9" class="node">
<title>Arrow_iff_not</title>
<g id="a_node9"><a xlink:href="Arrow.html#iff_not" xlink:title="iff_not">
<ellipse fill="#f070d1" stroke="black" cx="3575" cy="-1172.43" rx="39.77" ry="18"/>
<ellipse fill="none" stroke="black" cx="3575" cy="-1172.43" rx="43.78" ry="22"/>
<ellipse fill="none" stroke="black" cx="3575" cy="-1172.43" rx="47.79" ry="26"/>
<text text-anchor="middle" x="3575" y="-1168.73" font-family="Times,serif" font-size="14.00">iff_not</text>
</a>
</g>
</g>
<!-- Arrow_not_contrapositive -->
<g id="node10" class="node">
<title>Arrow_not_contrapositive</title>
<g id="a_node10"><a xlink:href="Arrow.html#not_contrapositive" xlink:title="not_contrapositive">
<ellipse fill="#f070d1" stroke="black" cx="3575" cy="-661.43" rx="96.68" ry="18"/>
<text text-anchor="middle" x="3575" y="-657.73" font-family="Times,serif" font-size="14.00">not_contrapositive</text>
</a>
</g>
</g>
<!-- Arrow_iff_not&#45;&gt;Arrow_not_contrapositive -->
<g id="edge4" class="edge">
<title>Arrow_iff_not&#45;&gt;Arrow_not_contrapositive</title>
<path fill="none" stroke="black" d="M3575,-1146.19C3575,-1060.12 3575,-778.53 3575,-689.6"/>
<polygon fill="black" stroke="black" points="3578.5,-689.51 3575,-679.51 3571.5,-689.51 3578.5,-689.51"/>
</g>
<!-- Arrow_not_contrapositive&#45;&gt;Arrow_functor_arrow -->
<g id="edge5" class="edge">
<title>Arrow_not_contrapositive&#45;&gt;Arrow_functor_arrow</title>
<path fill="none" stroke="black" d="M3566.28,-643.44C3530.5,-573.69 3394.72,-309.01 3351.38,-224.52"/>
<polygon fill="black" stroke="black" points="3354.47,-222.88 3346.8,-215.58 3348.25,-226.07 3354.47,-222.88"/>
</g>
<!-- Arrow_ap_postcompose -->
<g id="node12" class="node">
<title>Arrow_ap_postcompose</title>
<g id="a_node12"><a xlink:href="Arrow.html#ap_postcompose" xlink:title="ap_postcompose">
<ellipse fill="#f070d1" stroke="black" cx="1646" cy="-661.43" rx="87.18" ry="18"/>
<ellipse fill="none" stroke="black" cx="1646" cy="-661.43" rx="91.18" ry="22"/>
<ellipse fill="none" stroke="black" cx="1646" cy="-661.43" rx="95.18" ry="26"/>
<text text-anchor="middle" x="1646" y="-657.73" font-family="Times,serif" font-size="14.00">ap_postcompose</text>
</a>
</g>
</g>
<!-- Arrow_ap_postcompose&#45;&gt;Arrow_path_arrow -->
<g id="edge6" class="edge">
<title>Arrow_ap_postcompose&#45;&gt;Arrow_path_arrow</title>
<path fill="none" stroke="black" d="M1683.89,-637.52C1815.19,-558.12 2249.58,-295.44 2375.51,-219.29"/>
<polygon fill="black" stroke="black" points="2377.62,-222.1 2384.37,-213.93 2374,-216.11 2377.62,-222.1"/>
</g>
<!-- Arrow_ap_precompose -->
<g id="node13" class="node">
<title>Arrow_ap_precompose</title>
<g id="a_node13"><a xlink:href="Arrow.html#ap_precompose" xlink:title="ap_precompose">
<ellipse fill="#f070d1" stroke="black" cx="2891" cy="-661.43" rx="82.58" ry="18"/>
<ellipse fill="none" stroke="black" cx="2891" cy="-661.43" rx="86.58" ry="22"/>
<ellipse fill="none" stroke="black" cx="2891" cy="-661.43" rx="90.59" ry="26"/>
<text text-anchor="middle" x="2891" y="-657.73" font-family="Times,serif" font-size="14.00">ap_precompose</text>
</a>
</g>
</g>
<!-- Arrow_ap_precompose&#45;&gt;Arrow_path_arrow -->
<g id="edge7" class="edge">
<title>Arrow_ap_precompose&#45;&gt;Arrow_path_arrow</title>
<path fill="none" stroke="black" d="M2865.82,-636.25C2782.67,-556.39 2517.53,-301.72 2434.86,-222.31"/>
<polygon fill="black" stroke="black" points="2437.08,-219.59 2427.44,-215.19 2432.23,-224.64 2437.08,-219.59"/>
</g>
<!-- Arrow_ap_lambda -->
<g id="node14" class="node">
<title>Arrow_ap_lambda</title>
<g id="a_node14"><a xlink:href="Arrow.html#ap_lambda" xlink:title="ap_lambda">
<ellipse fill="#f070d1" stroke="black" cx="2700" cy="-1683.43" rx="60.4" ry="18"/>
<ellipse fill="none" stroke="black" cx="2700" cy="-1683.43" rx="64.39" ry="22"/>
<ellipse fill="none" stroke="black" cx="2700" cy="-1683.43" rx="68.39" ry="26"/>
<text text-anchor="middle" x="2700" y="-1679.73" font-family="Times,serif" font-size="14.00">ap_lambda</text>
</a>
</g>
</g>
<!-- Arrow_path_arrow_1 -->
<g id="node33" class="node">
<title>Arrow_path_arrow_1</title>
<g id="a_node33"><a xlink:href="Arrow.html#path_arrow_1" xlink:title="path_arrow_1">
<ellipse fill="#f070d1" stroke="black" cx="2700" cy="-1172.43" rx="73.39" ry="18"/>
<text text-anchor="middle" x="2700" y="-1168.73" font-family="Times,serif" font-size="14.00">path_arrow_1</text>
</a>
</g>
</g>
<!-- Arrow_ap_lambda&#45;&gt;Arrow_path_arrow_1 -->
<g id="edge8" class="edge">
<title>Arrow_ap_lambda&#45;&gt;Arrow_path_arrow_1</title>
<path fill="none" stroke="black" d="M2700,-1657.19C2700,-1571.12 2700,-1289.53 2700,-1200.6"/>
<polygon fill="black" stroke="black" points="2703.5,-1200.51 2700,-1190.51 2696.5,-1200.51 2703.5,-1200.51"/>
</g>
<!-- Arrow_ap_apply_FlFr -->
<g id="node15" class="node">
<title>Arrow_ap_apply_FlFr</title>
<g id="a_node15"><a xlink:href="Arrow.html#ap_apply_FlFr" xlink:title="ap_apply_FlFr">
<ellipse fill="#f070d1" stroke="black" cx="2530" cy="-1683.43" rx="76.08" ry="18"/>
<ellipse fill="none" stroke="black" cx="2530" cy="-1683.43" rx="80.08" ry="22"/>
<ellipse fill="none" stroke="black" cx="2530" cy="-1683.43" rx="84.09" ry="26"/>
<text text-anchor="middle" x="2530" y="-1679.73" font-family="Times,serif" font-size="14.00">ap_apply_FlFr</text>
</a>
</g>
</g>
<!-- Arrow_ap_apply_Fr -->
<g id="node16" class="node">
<title>Arrow_ap_apply_Fr</title>
<g id="a_node16"><a xlink:href="Arrow.html#ap_apply_Fr" xlink:title="ap_apply_Fr">
<ellipse fill="#f070d1" stroke="black" cx="2353" cy="-1683.43" rx="66.89" ry="18"/>
<ellipse fill="none" stroke="black" cx="2353" cy="-1683.43" rx="70.89" ry="22"/>
<ellipse fill="none" stroke="black" cx="2353" cy="-1683.43" rx="74.89" ry="26"/>
<text text-anchor="middle" x="2353" y="-1679.73" font-family="Times,serif" font-size="14.00">ap_apply_Fr</text>
</a>
</g>
</g>
<!-- Arrow_ap_apply_Fl -->
<g id="node17" class="node">
<title>Arrow_ap_apply_Fl</title>
<g id="a_node17"><a xlink:href="Arrow.html#ap_apply_Fl" xlink:title="ap_apply_Fl">
<ellipse fill="#f070d1" stroke="black" cx="2186" cy="-1683.43" rx="65.77" ry="18"/>
<ellipse fill="none" stroke="black" cx="2186" cy="-1683.43" rx="69.78" ry="22"/>
<ellipse fill="none" stroke="black" cx="2186" cy="-1683.43" rx="73.79" ry="26"/>
<text text-anchor="middle" x="2186" y="-1679.73" font-family="Times,serif" font-size="14.00">ap_apply_Fl</text>
</a>
</g>
</g>
<!-- Arrow_ap_apply_l -->
<g id="node18" class="node">
<title>Arrow_ap_apply_l</title>
<g id="a_node18"><a xlink:href="Arrow.html#ap_apply_l" xlink:title="ap_apply_l">
<ellipse fill="#f070d1" stroke="black" cx="2027" cy="-1683.43" rx="59.27" ry="18"/>
<ellipse fill="none" stroke="black" cx="2027" cy="-1683.43" rx="63.28" ry="22"/>
<ellipse fill="none" stroke="black" cx="2027" cy="-1683.43" rx="67.29" ry="26"/>
<text text-anchor="middle" x="2027" y="-1679.73" font-family="Times,serif" font-size="14.00">ap_apply_l</text>
</a>
</g>
</g>
<!-- Arrow_ap10_dpath_arrow -->
<g id="node19" class="node">
<title>Arrow_ap10_dpath_arrow</title>
<g id="a_node19"><a xlink:href="Arrow.html#ap10_dpath_arrow" xlink:title="ap10_dpath_arrow">
<ellipse fill="#f070d1" stroke="black" cx="1144" cy="-1172.43" rx="96.7" ry="18"/>
<ellipse fill="none" stroke="black" cx="1144" cy="-1172.43" rx="100.69" ry="22"/>
<ellipse fill="none" stroke="black" cx="1144" cy="-1172.43" rx="104.68" ry="26"/>
<text text-anchor="middle" x="1144" y="-1168.73" font-family="Times,serif" font-size="14.00">ap10_dpath_arrow</text>
</a>
</g>
</g>
<!-- Arrow_dpath_arrow -->
<g id="node20" class="node">
<title>Arrow_dpath_arrow</title>
<g id="a_node20"><a xlink:href="Arrow.html#dpath_arrow" xlink:title="dpath_arrow">
<ellipse fill="#f070d1" stroke="black" cx="1057" cy="-661.43" rx="69.59" ry="18"/>
<text text-anchor="middle" x="1057" y="-657.73" font-family="Times,serif" font-size="14.00">dpath_arrow</text>
</a>
</g>
</g>
<!-- Arrow_ap10_dpath_arrow&#45;&gt;Arrow_dpath_arrow -->
<g id="edge9" class="edge">
<title>Arrow_ap10_dpath_arrow&#45;&gt;Arrow_dpath_arrow</title>
<path fill="none" stroke="black" d="M1139.69,-1146.19C1124.97,-1060.12 1076.84,-778.53 1061.64,-689.6"/>
<polygon fill="black" stroke="black" points="1065.05,-688.78 1059.92,-679.51 1058.15,-689.96 1065.05,-688.78"/>
</g>
<!-- Arrow_transport_arrow -->
<g id="node26" class="node">
<title>Arrow_transport_arrow</title>
<g id="a_node26"><a xlink:href="Arrow.html#transport_arrow" xlink:title="transport_arrow">
<ellipse fill="#f070d1" stroke="black" cx="1231" cy="-661.43" rx="86.38" ry="18"/>
<text text-anchor="middle" x="1231" y="-657.73" font-family="Times,serif" font-size="14.00">transport_arrow</text>
</a>
</g>
</g>
<!-- Arrow_ap10_dpath_arrow&#45;&gt;Arrow_transport_arrow -->
<g id="edge10" class="edge">
<title>Arrow_ap10_dpath_arrow&#45;&gt;Arrow_transport_arrow</title>
<path fill="none" stroke="black" d="M1148.31,-1146.19C1163.03,-1060.12 1211.16,-778.53 1226.36,-689.6"/>
<polygon fill="black" stroke="black" points="1229.85,-689.96 1228.08,-679.51 1222.95,-688.78 1229.85,-689.96"/>
</g>
<!-- Arrow_equiv_path_arrow -->
<g id="node30" class="node">
<title>Arrow_equiv_path_arrow</title>
<g id="a_node30"><a xlink:href="Arrow.html#equiv_path_arrow" xlink:title="equiv_path_arrow">
<ellipse fill="#f070d1" stroke="black" cx="1246" cy="-197.43" rx="92.88" ry="18"/>
<text text-anchor="middle" x="1246" y="-193.73" font-family="Times,serif" font-size="14.00">equiv_path_arrow</text>
</a>
</g>
</g>
<!-- Arrow_dpath_arrow&#45;&gt;Arrow_equiv_path_arrow -->
<g id="edge11" class="edge">
<title>Arrow_dpath_arrow&#45;&gt;Arrow_equiv_path_arrow</title>
<path fill="none" stroke="black" d="M1063.95,-643.44C1092.43,-573.83 1200.32,-310.08 1235.12,-225.04"/>
<polygon fill="black" stroke="black" points="1238.44,-226.16 1238.99,-215.58 1231.96,-223.51 1238.44,-226.16"/>
</g>
<!-- Arrow_ap_transport_arrow_toconst -->
<g id="node21" class="node">
<title>Arrow_ap_transport_arrow_toconst</title>
<g id="a_node21"><a xlink:href="Arrow.html#ap_transport_arrow_toconst" xlink:title="ap_transport_arrow_toconst">
<ellipse fill="#f070d1" stroke="black" cx="1793" cy="-1683.43" rx="140.28" ry="18"/>
<ellipse fill="none" stroke="black" cx="1793" cy="-1683.43" rx="144.28" ry="22"/>
<ellipse fill="none" stroke="black" cx="1793" cy="-1683.43" rx="148.28" ry="26"/>
<text text-anchor="middle" x="1793" y="-1679.73" font-family="Times,serif" font-size="14.00">ap_transport_arrow_toconst</text>
</a>
</g>
</g>
<!-- Arrow_transport_arrow_toconst -->
<g id="node24" class="node">
<title>Arrow_transport_arrow_toconst</title>
<g id="a_node24"><a xlink:href="Arrow.html#transport_arrow_toconst" xlink:title="transport_arrow_toconst">
<ellipse fill="#f070d1" stroke="black" cx="1793" cy="-1172.43" rx="124.58" ry="18"/>
<text text-anchor="middle" x="1793" y="-1168.73" font-family="Times,serif" font-size="14.00">transport_arrow_toconst</text>
</a>
</g>
</g>
<!-- Arrow_ap_transport_arrow_toconst&#45;&gt;Arrow_transport_arrow_toconst -->
<g id="edge12" class="edge">
<title>Arrow_ap_transport_arrow_toconst&#45;&gt;Arrow_transport_arrow_toconst</title>
<path fill="none" stroke="black" d="M1793,-1657.19C1793,-1571.12 1793,-1289.53 1793,-1200.6"/>
<polygon fill="black" stroke="black" points="1796.5,-1200.51 1793,-1190.51 1789.5,-1200.51 1796.5,-1200.51"/>
</g>
<!-- Arrow_transport_arrow_fromconst -->
<g id="node22" class="node">
<title>Arrow_transport_arrow_fromconst</title>
<g id="a_node22"><a xlink:href="Arrow.html#transport_arrow_fromconst" xlink:title="transport_arrow_fromconst">
<ellipse fill="#f070d1" stroke="black" cx="1481" cy="-1683.43" rx="137.59" ry="18"/>
<ellipse fill="none" stroke="black" cx="1481" cy="-1683.43" rx="141.58" ry="22"/>
<ellipse fill="none" stroke="black" cx="1481" cy="-1683.43" rx="145.58" ry="26"/>
<text text-anchor="middle" x="1481" y="-1679.73" font-family="Times,serif" font-size="14.00">transport_arrow_fromconst</text>
</a>
</g>
</g>
<!-- Arrow_transport_arrow_toconst_ -->
<g id="node23" class="node">
<title>Arrow_transport_arrow_toconst_</title>
<g id="a_node23"><a xlink:href="Arrow.html#transport_arrow_toconst'" xlink:title="transport_arrow_toconst&#39;">
<ellipse fill="#f070d1" stroke="black" cx="1182" cy="-1683.43" rx="127.28" ry="18"/>
<ellipse fill="none" stroke="black" cx="1182" cy="-1683.43" rx="131.28" ry="22"/>
<ellipse fill="none" stroke="black" cx="1182" cy="-1683.43" rx="135.28" ry="26"/>
<text text-anchor="middle" x="1182" y="-1679.73" font-family="Times,serif" font-size="14.00">transport_arrow_toconst&#39;</text>
</a>
</g>
</g>
<!-- Arrow_transport_arrow_ -->
<g id="node25" class="node">
<title>Arrow_transport_arrow_</title>
<g id="a_node25"><a xlink:href="Arrow.html#transport_arrow'" xlink:title="transport_arrow&#39;">
<ellipse fill="#f070d1" stroke="black" cx="932" cy="-1683.43" rx="89.08" ry="18"/>
<ellipse fill="none" stroke="black" cx="932" cy="-1683.43" rx="93.08" ry="22"/>
<ellipse fill="none" stroke="black" cx="932" cy="-1683.43" rx="97.08" ry="26"/>
<text text-anchor="middle" x="932" y="-1679.73" font-family="Times,serif" font-size="14.00">transport_arrow&#39;</text>
</a>
</g>
</g>
<!-- Arrow_path_arrow_pp -->
<g id="node27" class="node">
<title>Arrow_path_arrow_pp</title>
<g id="a_node27"><a xlink:href="Arrow.html#path_arrow_pp" xlink:title="path_arrow_pp">
<ellipse fill="#f070d1" stroke="black" cx="2512" cy="-661.43" rx="79.11" ry="18"/>
<ellipse fill="none" stroke="black" cx="2512" cy="-661.43" rx="83.1" ry="22"/>
<ellipse fill="none" stroke="black" cx="2512" cy="-661.43" rx="87.09" ry="26"/>
<text text-anchor="middle" x="2512" y="-657.73" font-family="Times,serif" font-size="14.00">path_arrow_pp</text>
</a>
</g>
</g>
<!-- Arrow_path_arrow_pp&#45;&gt;Arrow_path_arrow -->
<g id="edge13" class="edge">
<title>Arrow_path_arrow_pp&#45;&gt;Arrow_path_arrow</title>
<path fill="none" stroke="black" d="M2506.44,-635.27C2488.8,-555.35 2434.14,-307.78 2415.95,-225.4"/>
<polygon fill="black" stroke="black" points="2419.35,-224.56 2413.78,-215.55 2412.52,-226.07 2419.35,-224.56"/>
</g>
<!-- Arrow_ap100_path_arrow2 -->
<g id="node28" class="node">
<title>Arrow_ap100_path_arrow2</title>
<g id="a_node28"><a xlink:href="Arrow.html#ap100_path_arrow2" xlink:title="ap100_path_arrow2">
<ellipse fill="#f070d1" stroke="black" cx="2177" cy="-1172.43" rx="102.87" ry="18"/>
<ellipse fill="none" stroke="black" cx="2177" cy="-1172.43" rx="106.88" ry="22"/>
<ellipse fill="none" stroke="black" cx="2177" cy="-1172.43" rx="110.88" ry="26"/>
<text text-anchor="middle" x="2177" y="-1168.73" font-family="Times,serif" font-size="14.00">ap100_path_arrow2</text>
</a>
</g>
</g>
<!-- Arrow_equiv_path_arrow2 -->
<g id="node29" class="node">
<title>Arrow_equiv_path_arrow2</title>
<g id="a_node29"><a xlink:href="Arrow.html#equiv_path_arrow2" xlink:title="equiv_path_arrow2">
<ellipse fill="#f070d1" stroke="black" cx="1434" cy="-661.43" rx="98.58" ry="18"/>
<text text-anchor="middle" x="1434" y="-657.73" font-family="Times,serif" font-size="14.00">equiv_path_arrow2</text>
</a>
</g>
</g>
<!-- Arrow_ap100_path_arrow2&#45;&gt;Arrow_equiv_path_arrow2 -->
<g id="edge14" class="edge">
<title>Arrow_ap100_path_arrow2&#45;&gt;Arrow_equiv_path_arrow2</title>
<path fill="none" stroke="black" d="M2142.16,-1147.57C2016.63,-1061.57 1588.47,-768.25 1466.6,-684.77"/>
<polygon fill="black" stroke="black" points="1468.27,-681.67 1458.04,-678.9 1464.31,-687.44 1468.27,-681.67"/>
</g>
<!-- Arrow_apD10_path_arrow -->
<g id="node36" class="node">
<title>Arrow_apD10_path_arrow</title>
<g id="a_node36"><a xlink:href="Arrow.html#apD10_path_arrow" xlink:title="apD10_path_arrow">
<ellipse fill="#f070d1" stroke="black" cx="2309" cy="-661.43" rx="98.28" ry="18"/>
<text text-anchor="middle" x="2309" y="-657.73" font-family="Times,serif" font-size="14.00">apD10_path_arrow</text>
</a>
</g>
</g>
<!-- Arrow_ap100_path_arrow2&#45;&gt;Arrow_apD10_path_arrow -->
<g id="edge15" class="edge">
<title>Arrow_ap100_path_arrow2&#45;&gt;Arrow_apD10_path_arrow</title>
<path fill="none" stroke="black" d="M2183.55,-1146.19C2205.89,-1060.03 2279.04,-777.96 2302.02,-689.33"/>
<polygon fill="black" stroke="black" points="2305.45,-690.07 2304.57,-679.51 2298.67,-688.31 2305.45,-690.07"/>
</g>
<!-- Arrow_equiv_path_arrow2&#45;&gt;Arrow_equiv_path_arrow -->
<g id="edge16" class="edge">
<title>Arrow_equiv_path_arrow2&#45;&gt;Arrow_equiv_path_arrow</title>
<path fill="none" stroke="black" d="M1427.09,-643.44C1398.76,-573.83 1291.43,-310.08 1256.83,-225.04"/>
<polygon fill="black" stroke="black" points="1259.99,-223.52 1252.98,-215.58 1253.5,-226.16 1259.99,-223.52"/>
</g>
<!-- Arrow_isequiv_path_arrow -->
<g id="node31" class="node">
<title>Arrow_isequiv_path_arrow</title>
<g id="a_node31"><a xlink:href="Arrow.html#isequiv_path_arrow" xlink:title="isequiv_path_arrow">
<ellipse fill="#f070d1" stroke="black" cx="2084" cy="-661.43" rx="100.96" ry="18"/>
<ellipse fill="none" stroke="black" cx="2084" cy="-661.43" rx="104.97" ry="22"/>
<ellipse fill="none" stroke="black" cx="2084" cy="-661.43" rx="108.98" ry="26"/>
<text text-anchor="middle" x="2084" y="-657.73" font-family="Times,serif" font-size="14.00">isequiv_path_arrow</text>
</a>
</g>
</g>
<!-- Arrow_isequiv_path_arrow&#45;&gt;Arrow_path_arrow -->
<g id="edge17" class="edge">
<title>Arrow_isequiv_path_arrow&#45;&gt;Arrow_path_arrow</title>
<path fill="none" stroke="black" d="M2101.53,-635.59C2157.94,-555.65 2334.47,-305.48 2391.81,-224.21"/>
<polygon fill="black" stroke="black" points="2394.99,-225.78 2397.89,-215.59 2389.27,-221.74 2394.99,-225.78"/>
</g>
<!-- Arrow_equiv_ap10 -->
<g id="node32" class="node">
<title>Arrow_equiv_ap10</title>
<g id="a_node32"><a xlink:href="Arrow.html#equiv_ap10" xlink:title="equiv_ap10">
<ellipse fill="#f070d1" stroke="black" cx="745" cy="-1683.43" rx="63.87" ry="18"/>
<ellipse fill="none" stroke="black" cx="745" cy="-1683.43" rx="67.88" ry="22"/>
<ellipse fill="none" stroke="black" cx="745" cy="-1683.43" rx="71.89" ry="26"/>
<text text-anchor="middle" x="745" y="-1679.73" font-family="Times,serif" font-size="14.00">equiv_ap10</text>
</a>
</g>
</g>
<!-- Arrow_eta_path_arrow -->
<g id="node34" class="node">
<title>Arrow_eta_path_arrow</title>
<g id="a_node34"><a xlink:href="Arrow.html#eta_path_arrow" xlink:title="eta_path_arrow">
<ellipse fill="#f070d1" stroke="black" cx="2700" cy="-661.43" rx="82.59" ry="18"/>
<text text-anchor="middle" x="2700" y="-657.73" font-family="Times,serif" font-size="14.00">eta_path_arrow</text>
</a>
</g>
</g>
<!-- Arrow_path_arrow_1&#45;&gt;Arrow_eta_path_arrow -->
<g id="edge18" class="edge">
<title>Arrow_path_arrow_1&#45;&gt;Arrow_eta_path_arrow</title>
<path fill="none" stroke="black" d="M2700,-1154.21C2700,-1079.36 2700,-782.07 2700,-689.86"/>
<polygon fill="black" stroke="black" points="2703.5,-689.66 2700,-679.66 2696.5,-689.66 2703.5,-689.66"/>
</g>
<!-- Arrow_eta_path_arrow&#45;&gt;Arrow_path_arrow -->
<g id="edge19" class="edge">
<title>Arrow_eta_path_arrow&#45;&gt;Arrow_path_arrow</title>
<path fill="none" stroke="black" d="M2689.33,-643.44C2645.5,-573.62 2479.07,-308.47 2426.22,-224.27"/>
<polygon fill="black" stroke="black" points="2429.04,-222.19 2420.76,-215.58 2423.11,-225.91 2429.04,-222.19"/>
</g>
<!-- Arrow_ap10_path_forall -->
<g id="node35" class="node">
<title>Arrow_ap10_path_forall</title>
<g id="a_node35"><a xlink:href="Arrow.html#ap10_path_forall" xlink:title="ap10_path_forall">
<ellipse fill="#f070d1" stroke="black" cx="560" cy="-1683.43" rx="87.96" ry="18"/>
<ellipse fill="none" stroke="black" cx="560" cy="-1683.43" rx="91.97" ry="22"/>
<ellipse fill="none" stroke="black" cx="560" cy="-1683.43" rx="95.99" ry="26"/>
<text text-anchor="middle" x="560" y="-1679.73" font-family="Times,serif" font-size="14.00">ap10_path_forall</text>
</a>
</g>
</g>
<!-- Arrow_apD10_path_arrow&#45;&gt;Arrow_path_arrow -->
<g id="edge20" class="edge">
<title>Arrow_apD10_path_arrow&#45;&gt;Arrow_path_arrow</title>
<path fill="none" stroke="black" d="M2312.71,-643.44C2327.9,-573.97 2385.36,-311.16 2404.07,-225.56"/>
<polygon fill="black" stroke="black" points="2407.54,-226.1 2406.25,-215.58 2400.7,-224.6 2407.54,-226.1"/>
</g>
<!-- Arrow_ap10_path_arrow -->
<g id="node37" class="node">
<title>Arrow_ap10_path_arrow</title>
<g id="a_node37"><a xlink:href="Arrow.html#ap10_path_arrow" xlink:title="ap10_path_arrow">
<ellipse fill="#f070d1" stroke="black" cx="1858" cy="-661.43" rx="90.98" ry="18"/>
<ellipse fill="none" stroke="black" cx="1858" cy="-661.43" rx="94.98" ry="22"/>
<ellipse fill="none" stroke="black" cx="1858" cy="-661.43" rx="98.98" ry="26"/>
<text text-anchor="middle" x="1858" y="-657.73" font-family="Times,serif" font-size="14.00">ap10_path_arrow</text>
</a>
</g>
</g>
<!-- Arrow_ap10_path_arrow&#45;&gt;Arrow_path_arrow -->
<g id="edge21" class="edge">
<title>Arrow_ap10_path_arrow&#45;&gt;Arrow_path_arrow</title>
<path fill="none" stroke="black" d="M1886.9,-636.25C1982.72,-556.05 2289.2,-299.54 2382.67,-221.31"/>
<polygon fill="black" stroke="black" points="2385.12,-223.82 2390.54,-214.72 2380.63,-218.45 2385.12,-223.82"/>
</g>
<!-- Arrow_IsTransitive_arrow -->
<g id="node39" class="node">
<title>Arrow_IsTransitive_arrow</title>
<g id="a_node39"><a xlink:href="Arrow.html#IsTransitive_arrow" xlink:title="IsTransitive_arrow">
<ellipse fill="#f070d1" stroke="black" cx="121" cy="-1683.43" rx="97.48" ry="18"/>
<ellipse fill="none" stroke="black" cx="121" cy="-1683.43" rx="101.48" ry="22"/>
<ellipse fill="none" stroke="black" cx="121" cy="-1683.43" rx="105.48" ry="26"/>
<text text-anchor="middle" x="121" y="-1679.73" font-family="Times,serif" font-size="14.00">IsTransitive_arrow</text>
</a>
</g>
</g>
<!-- Arrow_arrow -->
<g id="node41" class="node">
<title>Arrow_arrow</title>
<g id="a_node41"><a xlink:href="Arrow.html#arrow" xlink:title="arrow">
<ellipse fill="#f070d1" stroke="black" cx="233" cy="-1172.43" rx="38.19" ry="18"/>
<text text-anchor="middle" x="233" y="-1168.73" font-family="Times,serif" font-size="14.00">arrow</text>
</a>
</g>
</g>
<!-- Arrow_IsTransitive_arrow&#45;&gt;Arrow_arrow -->
<g id="edge22" class="edge">
<title>Arrow_IsTransitive_arrow&#45;&gt;Arrow_arrow</title>
<path fill="none" stroke="black" d="M126.55,-1657.19C145.51,-1571.03 207.58,-1288.96 227.08,-1200.33"/>
<polygon fill="black" stroke="black" points="230.51,-1201.03 229.24,-1190.51 223.68,-1199.52 230.51,-1201.03"/>
</g>
<!-- Arrow_IsReflexive_arrow -->
<g id="node40" class="node">
<title>Arrow_IsReflexive_arrow</title>
<g id="a_node40"><a xlink:href="Arrow.html#IsReflexive_arrow" xlink:title="IsReflexive_arrow">
<ellipse fill="#f070d1" stroke="black" cx="345" cy="-1683.43" rx="92.89" ry="18"/>
<ellipse fill="none" stroke="black" cx="345" cy="-1683.43" rx="96.89" ry="22"/>
<ellipse fill="none" stroke="black" cx="345" cy="-1683.43" rx="100.88" ry="26"/>
<text text-anchor="middle" x="345" y="-1679.73" font-family="Times,serif" font-size="14.00">IsReflexive_arrow</text>
</a>
</g>
</g>
<!-- Arrow_IsReflexive_arrow&#45;&gt;Arrow_arrow -->
<g id="edge23" class="edge">
<title>Arrow_IsReflexive_arrow&#45;&gt;Arrow_arrow</title>
<path fill="none" stroke="black" d="M339.45,-1657.19C320.49,-1571.03 258.42,-1288.96 238.92,-1200.33"/>
<polygon fill="black" stroke="black" points="242.32,-1199.52 236.76,-1190.51 235.49,-1201.03 242.32,-1199.52"/>
</g>
</g>
</svg>
