<?xml version="1.0" encoding="UTF-8" standalone="no"?>
<!DOCTYPE svg PUBLIC "-//W3C//DTD SVG 1.1//EN"
 "http://www.w3.org/Graphics/SVG/1.1/DTD/svg11.dtd">
<!-- Generated by graphviz version 2.43.0 (0)
 -->
<!-- Title: HoTT_Algebra_AbSES_BaerSum Pages: 1 -->
<svg width="1961pt" height="985pt"
 viewBox="0.00 0.00 1961.00 984.50" xmlns="http://www.w3.org/2000/svg" xmlns:xlink="http://www.w3.org/1999/xlink">
<g id="graph0" class="graph" transform="scale(1 1) rotate(0) translate(4 980.5)">
<title>HoTT_Algebra_AbSES_BaerSum</title>
<polygon fill="white" stroke="transparent" points="-4,4 -4,-980.5 1957,-980.5 1957,4 -4,4"/>
<g id="clust1" class="cluster">
<title>cluster_BaerSum</title>
<polygon fill="#ffffc3" stroke="black" points="8,-12.15 8,-964.35 1945,-964.35 1945,-12.15 8,-12.15"/>
<text text-anchor="middle" x="49.5" y="-949.15" font-family="Times,serif" font-size="14.00">BaerSum</text>
</g>
<!-- BaerSum_baer_sum_pullback -->
<g id="node1" class="node">
<title>BaerSum_baer_sum_pullback</title>
<g id="a_node1"><a xlink:href="BaerSum.html#baer_sum_pullback" xlink:title="baer_sum_pullback">
<ellipse fill="#f070d1" stroke="black" cx="1090" cy="-392.15" rx="98.6" ry="18"/>
<ellipse fill="none" stroke="black" cx="1090" cy="-392.15" rx="102.59" ry="22"/>
<ellipse fill="none" stroke="black" cx="1090" cy="-392.15" rx="106.58" ry="26"/>
<text text-anchor="middle" x="1090" y="-388.45" font-family="Times,serif" font-size="14.00">baer_sum_pullback</text>
</a>
</g>
</g>
<!-- BaerSum_abses_pushout_pullback_reorder -->
<g id="node21" class="node">
<title>BaerSum_abses_pushout_pullback_reorder</title>
<g id="a_node21"><a xlink:href="BaerSum.html#abses_pushout_pullback_reorder" xlink:title="abses_pushout_pullback_reorder">
<ellipse fill="#f070d1" stroke="black" cx="1096" cy="-270.15" rx="161.67" ry="18"/>
<text text-anchor="middle" x="1096" y="-266.45" font-family="Times,serif" font-size="14.00">abses_pushout_pullback_reorder</text>
</a>
</g>
</g>
<!-- BaerSum_baer_sum_pullback&#45;&gt;BaerSum_abses_pushout_pullback_reorder -->
<g id="edge1" class="edge">
<title>BaerSum_baer_sum_pullback&#45;&gt;BaerSum_abses_pushout_pullback_reorder</title>
<path fill="none" stroke="black" d="M1091.26,-365.99C1092.25,-346.19 1093.63,-318.63 1094.64,-298.32"/>
<polygon fill="black" stroke="black" points="1098.15,-298.32 1095.15,-288.16 1091.15,-297.97 1098.15,-298.32"/>
</g>
<!-- BaerSum_abses_baer_sum -->
<g id="node25" class="node">
<title>BaerSum_abses_baer_sum</title>
<g id="a_node25"><a xlink:href="BaerSum.html#abses_baer_sum" xlink:title="abses_baer_sum">
<ellipse fill="#f070d1" stroke="black" cx="748" cy="-270.15" rx="86.38" ry="18"/>
<text text-anchor="middle" x="748" y="-266.45" font-family="Times,serif" font-size="14.00">abses_baer_sum</text>
</a>
</g>
</g>
<!-- BaerSum_baer_sum_pullback&#45;&gt;BaerSum_abses_baer_sum -->
<g id="edge2" class="edge">
<title>BaerSum_baer_sum_pullback&#45;&gt;BaerSum_abses_baer_sum</title>
<path fill="none" stroke="black" d="M1030.82,-370.38C965.58,-347.49 861.67,-311.03 799.62,-289.26"/>
<polygon fill="black" stroke="black" points="800.63,-285.91 790.03,-285.9 798.31,-292.51 800.63,-285.91"/>
</g>
<!-- BaerSum_baer_sum_pushout -->
<g id="node2" class="node">
<title>BaerSum_baer_sum_pushout</title>
<g id="a_node2"><a xlink:href="BaerSum.html#baer_sum_pushout" xlink:title="baer_sum_pushout">
<ellipse fill="#f070d1" stroke="black" cx="860" cy="-392.15" rx="97.48" ry="18"/>
<ellipse fill="none" stroke="black" cx="860" cy="-392.15" rx="101.48" ry="22"/>
<ellipse fill="none" stroke="black" cx="860" cy="-392.15" rx="105.48" ry="26"/>
<text text-anchor="middle" x="860" y="-388.45" font-family="Times,serif" font-size="14.00">baer_sum_pushout</text>
</a>
</g>
</g>
<!-- BaerSum_baer_sum_pushout&#45;&gt;BaerSum_abses_pushout_pullback_reorder -->
<g id="edge3" class="edge">
<title>BaerSum_baer_sum_pushout&#45;&gt;BaerSum_abses_pushout_pullback_reorder</title>
<path fill="none" stroke="black" d="M904.67,-368.44C947.65,-346.58 1012.15,-313.79 1054.16,-292.42"/>
<polygon fill="black" stroke="black" points="1055.96,-295.44 1063.28,-287.78 1052.78,-289.2 1055.96,-295.44"/>
</g>
<!-- BaerSum_baer_sum_pushout&#45;&gt;BaerSum_abses_baer_sum -->
<g id="edge4" class="edge">
<title>BaerSum_baer_sum_pushout&#45;&gt;BaerSum_abses_baer_sum</title>
<path fill="none" stroke="black" d="M837.06,-366.58C817.66,-345.78 789.99,-316.14 770.66,-295.43"/>
<polygon fill="black" stroke="black" points="773.08,-292.89 763.7,-287.97 767.96,-297.67 773.08,-292.89"/>
</g>
<!-- BaerSum_is1bifunctor_abses -->
<g id="node3" class="node">
<title>BaerSum_is1bifunctor_abses</title>
<g id="a_node3"><a xlink:href="BaerSum.html#is1bifunctor_abses" xlink:title="is1bifunctor_abses">
<ellipse fill="#f070d1" stroke="black" cx="215" cy="-878.15" rx="97.48" ry="18"/>
<ellipse fill="none" stroke="black" cx="215" cy="-878.15" rx="101.48" ry="22"/>
<ellipse fill="none" stroke="black" cx="215" cy="-878.15" rx="105.48" ry="26"/>
<text text-anchor="middle" x="215" y="-874.45" font-family="Times,serif" font-size="14.00">is1bifunctor_abses</text>
</a>
</g>
</g>
<!-- BaerSum_is0bifunctor_abses -->
<g id="node4" class="node">
<title>BaerSum_is0bifunctor_abses</title>
<g id="a_node4"><a xlink:href="BaerSum.html#is0bifunctor_abses" xlink:title="is0bifunctor_abses">
<ellipse fill="#f070d1" stroke="black" cx="163" cy="-756.15" rx="97.48" ry="18"/>
<text text-anchor="middle" x="163" y="-752.45" font-family="Times,serif" font-size="14.00">is0bifunctor_abses</text>
</a>
</g>
</g>
<!-- BaerSum_is1bifunctor_abses&#45;&gt;BaerSum_is0bifunctor_abses -->
<g id="edge5" class="edge">
<title>BaerSum_is1bifunctor_abses&#45;&gt;BaerSum_is0bifunctor_abses</title>
<path fill="none" stroke="black" d="M204.23,-852.29C195.53,-832.23 183.34,-804.08 174.46,-783.61"/>
<polygon fill="black" stroke="black" points="177.59,-782.03 170.41,-774.24 171.17,-784.81 177.59,-782.03"/>
</g>
<!-- BaerSum_ishspace_abses -->
<g id="node5" class="node">
<title>BaerSum_ishspace_abses</title>
<g id="a_node5"><a xlink:href="BaerSum.html#ishspace_abses" xlink:title="ishspace_abses">
<ellipse fill="#f070d1" stroke="black" cx="360" cy="-756.15" rx="81.49" ry="18"/>
<text text-anchor="middle" x="360" y="-752.45" font-family="Times,serif" font-size="14.00">ishspace_abses</text>
</a>
</g>
</g>
<!-- BaerSum_is1bifunctor_abses&#45;&gt;BaerSum_ishspace_abses -->
<g id="edge6" class="edge">
<title>BaerSum_is1bifunctor_abses&#45;&gt;BaerSum_ishspace_abses</title>
<path fill="none" stroke="black" d="M244.34,-852.87C270.03,-831.61 307.08,-800.94 332.28,-780.09"/>
<polygon fill="black" stroke="black" points="334.54,-782.77 340.01,-773.69 330.07,-777.37 334.54,-782.77"/>
</g>
<!-- BaerSum_baer_sum_unit_l -->
<g id="node14" class="node">
<title>BaerSum_baer_sum_unit_l</title>
<g id="a_node14"><a xlink:href="BaerSum.html#baer_sum_unit_l" xlink:title="baer_sum_unit_l">
<ellipse fill="#f070d1" stroke="black" cx="360" cy="-635.15" rx="85.59" ry="18"/>
<text text-anchor="middle" x="360" y="-631.45" font-family="Times,serif" font-size="14.00">baer_sum_unit_l</text>
</a>
</g>
</g>
<!-- BaerSum_ishspace_abses&#45;&gt;BaerSum_baer_sum_unit_l -->
<g id="edge7" class="edge">
<title>BaerSum_ishspace_abses&#45;&gt;BaerSum_baer_sum_unit_l</title>
<path fill="none" stroke="black" d="M360,-738.1C360,-718.57 360,-686.31 360,-663.31"/>
<polygon fill="black" stroke="black" points="363.5,-663.17 360,-653.17 356.5,-663.17 363.5,-663.17"/>
</g>
<!-- BaerSum_baer_sum_associative -->
<g id="node6" class="node">
<title>BaerSum_baer_sum_associative</title>
<g id="a_node6"><a xlink:href="BaerSum.html#baer_sum_associative" xlink:title="baer_sum_associative">
<ellipse fill="#f070d1" stroke="black" cx="1093" cy="-635.15" rx="111.27" ry="18"/>
<ellipse fill="none" stroke="black" cx="1093" cy="-635.15" rx="115.28" ry="22"/>
<ellipse fill="none" stroke="black" cx="1093" cy="-635.15" rx="119.28" ry="26"/>
<text text-anchor="middle" x="1093" y="-631.45" font-family="Times,serif" font-size="14.00">baer_sum_associative</text>
</a>
</g>
</g>
<!-- BaerSum_baer_sum_twist -->
<g id="node7" class="node">
<title>BaerSum_baer_sum_twist</title>
<g id="a_node7"><a xlink:href="BaerSum.html#baer_sum_twist" xlink:title="baer_sum_twist">
<ellipse fill="#f070d1" stroke="black" cx="1340" cy="-513.15" rx="83.39" ry="18"/>
<text text-anchor="middle" x="1340" y="-509.45" font-family="Times,serif" font-size="14.00">baer_sum_twist</text>
</a>
</g>
</g>
<!-- BaerSum_baer_sum_associative&#45;&gt;BaerSum_baer_sum_twist -->
<g id="edge8" class="edge">
<title>BaerSum_baer_sum_associative&#45;&gt;BaerSum_baer_sum_twist</title>
<path fill="none" stroke="black" d="M1140.33,-611.15C1186.14,-588.9 1254.88,-555.5 1298.58,-534.27"/>
<polygon fill="black" stroke="black" points="1300.31,-537.32 1307.77,-529.81 1297.25,-531.03 1300.31,-537.32"/>
</g>
<!-- BaerSum_baer_sum_commutative -->
<g id="node16" class="node">
<title>BaerSum_baer_sum_commutative</title>
<g id="a_node16"><a xlink:href="BaerSum.html#baer_sum_commutative" xlink:title="baer_sum_commutative">
<ellipse fill="#f070d1" stroke="black" cx="612" cy="-513.15" rx="120.48" ry="18"/>
<text text-anchor="middle" x="612" y="-509.45" font-family="Times,serif" font-size="14.00">baer_sum_commutative</text>
</a>
</g>
</g>
<!-- BaerSum_baer_sum_associative&#45;&gt;BaerSum_baer_sum_commutative -->
<g id="edge9" class="edge">
<title>BaerSum_baer_sum_associative&#45;&gt;BaerSum_baer_sum_commutative</title>
<path fill="none" stroke="black" d="M1016.78,-615.13C924.36,-592.08 769.91,-553.55 680.91,-531.34"/>
<polygon fill="black" stroke="black" points="681.73,-527.94 671.18,-528.91 680.03,-534.73 681.73,-527.94"/>
</g>
<!-- BaerSum_twist_trinary_baer_sum -->
<g id="node8" class="node">
<title>BaerSum_twist_trinary_baer_sum</title>
<g id="a_node8"><a xlink:href="BaerSum.html#twist_trinary_baer_sum" xlink:title="twist_trinary_baer_sum">
<ellipse fill="#f070d1" stroke="black" cx="1583" cy="-392.15" rx="120.48" ry="18"/>
<text text-anchor="middle" x="1583" y="-388.45" font-family="Times,serif" font-size="14.00">twist_trinary_baer_sum</text>
</a>
</g>
</g>
<!-- BaerSum_baer_sum_twist&#45;&gt;BaerSum_twist_trinary_baer_sum -->
<g id="edge10" class="edge">
<title>BaerSum_baer_sum_twist&#45;&gt;BaerSum_twist_trinary_baer_sum</title>
<path fill="none" stroke="black" d="M1372.02,-496.47C1415.15,-475.35 1492.05,-437.69 1540.13,-414.14"/>
<polygon fill="black" stroke="black" points="1541.91,-417.17 1549.35,-409.63 1538.83,-410.88 1541.91,-417.17"/>
</g>
<!-- BaerSum_baer_sum_is_trinary -->
<g id="node9" class="node">
<title>BaerSum_baer_sum_is_trinary</title>
<g id="a_node9"><a xlink:href="BaerSum.html#baer_sum_is_trinary" xlink:title="baer_sum_is_trinary">
<ellipse fill="#f070d1" stroke="black" cx="1340" cy="-392.15" rx="104.78" ry="18"/>
<text text-anchor="middle" x="1340" y="-388.45" font-family="Times,serif" font-size="14.00">baer_sum_is_trinary</text>
</a>
</g>
</g>
<!-- BaerSum_baer_sum_twist&#45;&gt;BaerSum_baer_sum_is_trinary -->
<g id="edge11" class="edge">
<title>BaerSum_baer_sum_twist&#45;&gt;BaerSum_baer_sum_is_trinary</title>
<path fill="none" stroke="black" d="M1340,-495.1C1340,-475.57 1340,-443.31 1340,-420.31"/>
<polygon fill="black" stroke="black" points="1343.5,-420.17 1340,-410.17 1336.5,-420.17 1343.5,-420.17"/>
</g>
<!-- BaerSum_abses_trinary_baer_sum -->
<g id="node10" class="node">
<title>BaerSum_abses_trinary_baer_sum</title>
<g id="a_node10"><a xlink:href="BaerSum.html#abses_trinary_baer_sum" xlink:title="abses_trinary_baer_sum">
<ellipse fill="#f070d1" stroke="black" cx="1405" cy="-270.15" rx="122.68" ry="18"/>
<text text-anchor="middle" x="1405" y="-266.45" font-family="Times,serif" font-size="14.00">abses_trinary_baer_sum</text>
</a>
</g>
</g>
<!-- BaerSum_twist_trinary_baer_sum&#45;&gt;BaerSum_abses_trinary_baer_sum -->
<g id="edge12" class="edge">
<title>BaerSum_twist_trinary_baer_sum&#45;&gt;BaerSum_abses_trinary_baer_sum</title>
<path fill="none" stroke="black" d="M1558.25,-374.46C1526.99,-353.39 1473.08,-317.04 1438.25,-293.56"/>
<polygon fill="black" stroke="black" points="1440.07,-290.57 1429.83,-287.89 1436.16,-296.38 1440.07,-290.57"/>
</g>
<!-- BaerSum_twist_trinary_baer_sum&#45;&gt;BaerSum_abses_pushout_pullback_reorder -->
<g id="edge13" class="edge">
<title>BaerSum_twist_trinary_baer_sum&#45;&gt;BaerSum_abses_pushout_pullback_reorder</title>
<path fill="none" stroke="black" d="M1523.28,-376.43C1433.99,-354.43 1265.87,-313.01 1169.27,-289.2"/>
<polygon fill="black" stroke="black" points="1169.84,-285.74 1159.29,-286.74 1168.16,-292.54 1169.84,-285.74"/>
</g>
<!-- BaerSum_abses_pushout_is_pullback -->
<g id="node23" class="node">
<title>BaerSum_abses_pushout_is_pullback</title>
<g id="a_node23"><a xlink:href="BaerSum.html#abses_pushout_is_pullback" xlink:title="abses_pushout_is_pullback">
<ellipse fill="#f070d1" stroke="black" cx="567" cy="-161.15" rx="134.58" ry="18"/>
<text text-anchor="middle" x="567" y="-157.45" font-family="Times,serif" font-size="14.00">abses_pushout_is_pullback</text>
</a>
</g>
</g>
<!-- BaerSum_twist_trinary_baer_sum&#45;&gt;BaerSum_abses_pushout_is_pullback -->
<g id="edge14" class="edge">
<title>BaerSum_twist_trinary_baer_sum&#45;&gt;BaerSum_abses_pushout_is_pullback</title>
<path fill="none" stroke="black" d="M1582.92,-373.71C1581.75,-343.57 1574.6,-282.05 1537,-252.15 1520.59,-239.1 947.3,-192.24 689.92,-171.8"/>
<polygon fill="black" stroke="black" points="690.02,-168.3 679.78,-171 689.47,-175.28 690.02,-168.3"/>
</g>
<!-- BaerSum_baer_sum_is_trinary&#45;&gt;BaerSum_abses_trinary_baer_sum -->
<g id="edge15" class="edge">
<title>BaerSum_baer_sum_is_trinary&#45;&gt;BaerSum_abses_trinary_baer_sum</title>
<path fill="none" stroke="black" d="M1349.18,-374.21C1360,-354.22 1378.13,-320.76 1390.78,-297.41"/>
<polygon fill="black" stroke="black" points="1393.98,-298.85 1395.66,-288.39 1387.82,-295.52 1393.98,-298.85"/>
</g>
<!-- BaerSum_baer_sum_is_trinary&#45;&gt;BaerSum_abses_pushout_pullback_reorder -->
<g id="edge16" class="edge">
<title>BaerSum_baer_sum_is_trinary&#45;&gt;BaerSum_abses_pushout_pullback_reorder</title>
<path fill="none" stroke="black" d="M1307.09,-374.97C1263.68,-353.61 1187.17,-315.99 1139.16,-292.37"/>
<polygon fill="black" stroke="black" points="1140.47,-289.12 1129.95,-287.85 1137.38,-295.4 1140.47,-289.12"/>
</g>
<!-- BaerSum_baer_sum_is_trinary&#45;&gt;BaerSum_abses_baer_sum -->
<g id="edge17" class="edge">
<title>BaerSum_baer_sum_is_trinary&#45;&gt;BaerSum_abses_baer_sum</title>
<path fill="none" stroke="black" d="M1274.95,-377.96C1162.7,-355.21 933.57,-308.76 817.98,-285.34"/>
<polygon fill="black" stroke="black" points="818.33,-281.83 807.84,-283.28 816.94,-288.7 818.33,-281.83"/>
</g>
<!-- BaerSum_baer_sum_distributive_pushouts -->
<g id="node11" class="node">
<title>BaerSum_baer_sum_distributive_pushouts</title>
<g id="a_node11"><a xlink:href="BaerSum.html#baer_sum_distributive_pushouts" xlink:title="baer_sum_distributive_pushouts">
<ellipse fill="#f070d1" stroke="black" cx="567" cy="-392.15" rx="161.36" ry="18"/>
<ellipse fill="none" stroke="black" cx="567" cy="-392.15" rx="165.37" ry="22"/>
<ellipse fill="none" stroke="black" cx="567" cy="-392.15" rx="169.37" ry="26"/>
<text text-anchor="middle" x="567" y="-388.45" font-family="Times,serif" font-size="14.00">baer_sum_distributive_pushouts</text>
</a>
</g>
</g>
<!-- BaerSum_baer_sum_distributive_pushouts&#45;&gt;BaerSum_abses_pushout_pullback_reorder -->
<g id="edge18" class="edge">
<title>BaerSum_baer_sum_distributive_pushouts&#45;&gt;BaerSum_abses_pushout_pullback_reorder</title>
<path fill="none" stroke="black" d="M659.14,-370.25C760.78,-347.19 922.56,-310.49 1018.11,-288.82"/>
<polygon fill="black" stroke="black" points="1019.02,-292.2 1028,-286.57 1017.47,-285.37 1019.02,-292.2"/>
</g>
<!-- BaerSum_baer_sum_distributive_pushouts&#45;&gt;BaerSum_abses_pushout_is_pullback -->
<g id="edge19" class="edge">
<title>BaerSum_baer_sum_distributive_pushouts&#45;&gt;BaerSum_abses_pushout_is_pullback</title>
<path fill="none" stroke="black" d="M567,-365.77C567,-322.3 567,-234.01 567,-189.34"/>
<polygon fill="black" stroke="black" points="570.5,-189.23 567,-179.23 563.5,-189.23 570.5,-189.23"/>
</g>
<!-- BaerSum_baer_sum_distributive_pushouts&#45;&gt;BaerSum_abses_baer_sum -->
<g id="edge20" class="edge">
<title>BaerSum_baer_sum_distributive_pushouts&#45;&gt;BaerSum_abses_baer_sum</title>
<path fill="none" stroke="black" d="M604.06,-366.58C636.68,-344.95 683.72,-313.76 715.05,-293"/>
<polygon fill="black" stroke="black" points="717.04,-295.88 723.44,-287.43 713.17,-290.04 717.04,-295.88"/>
</g>
<!-- BaerSum_baer_sum_inverse_r -->
<g id="node12" class="node">
<title>BaerSum_baer_sum_inverse_r</title>
<g id="a_node12"><a xlink:href="BaerSum.html#baer_sum_inverse_r" xlink:title="baer_sum_inverse_r">
<ellipse fill="#f070d1" stroke="black" cx="599" cy="-635.15" rx="102.87" ry="18"/>
<ellipse fill="none" stroke="black" cx="599" cy="-635.15" rx="106.88" ry="22"/>
<ellipse fill="none" stroke="black" cx="599" cy="-635.15" rx="110.88" ry="26"/>
<text text-anchor="middle" x="599" y="-631.45" font-family="Times,serif" font-size="14.00">baer_sum_inverse_r</text>
</a>
</g>
</g>
<!-- BaerSum_baer_sum_inverse_l -->
<g id="node13" class="node">
<title>BaerSum_baer_sum_inverse_l</title>
<g id="a_node13"><a xlink:href="BaerSum.html#baer_sum_inverse_l" xlink:title="baer_sum_inverse_l">
<ellipse fill="#f070d1" stroke="black" cx="372" cy="-513.15" rx="101.28" ry="18"/>
<text text-anchor="middle" x="372" y="-509.45" font-family="Times,serif" font-size="14.00">baer_sum_inverse_l</text>
</a>
</g>
</g>
<!-- BaerSum_baer_sum_inverse_r&#45;&gt;BaerSum_baer_sum_inverse_l -->
<g id="edge21" class="edge">
<title>BaerSum_baer_sum_inverse_r&#45;&gt;BaerSum_baer_sum_inverse_l</title>
<path fill="none" stroke="black" d="M555.5,-611.15C513.94,-589.18 451.83,-556.35 411.61,-535.09"/>
<polygon fill="black" stroke="black" points="413.11,-531.92 402.63,-530.34 409.84,-538.11 413.11,-531.92"/>
</g>
<!-- BaerSum_baer_sum_inverse_r&#45;&gt;BaerSum_baer_sum_commutative -->
<g id="edge22" class="edge">
<title>BaerSum_baer_sum_inverse_r&#45;&gt;BaerSum_baer_sum_commutative</title>
<path fill="none" stroke="black" d="M601.73,-608.99C603.87,-589.19 606.86,-561.63 609.06,-541.32"/>
<polygon fill="black" stroke="black" points="612.56,-541.48 610.16,-531.16 605.6,-540.72 612.56,-541.48"/>
</g>
<!-- BaerSum_baer_sum_distributive_pullbacks -->
<g id="node17" class="node">
<title>BaerSum_baer_sum_distributive_pullbacks</title>
<g id="a_node17"><a xlink:href="BaerSum.html#baer_sum_distributive_pullbacks" xlink:title="baer_sum_distributive_pullbacks">
<ellipse fill="#f070d1" stroke="black" cx="178" cy="-392.15" rx="162.47" ry="18"/>
<text text-anchor="middle" x="178" y="-388.45" font-family="Times,serif" font-size="14.00">baer_sum_distributive_pullbacks</text>
</a>
</g>
</g>
<!-- BaerSum_baer_sum_inverse_l&#45;&gt;BaerSum_baer_sum_distributive_pullbacks -->
<g id="edge23" class="edge">
<title>BaerSum_baer_sum_inverse_l&#45;&gt;BaerSum_baer_sum_distributive_pullbacks</title>
<path fill="none" stroke="black" d="M345.03,-495.6C310.9,-474.67 252.03,-438.56 214.07,-415.28"/>
<polygon fill="black" stroke="black" points="215.73,-412.18 205.37,-409.94 212.07,-418.15 215.73,-412.18"/>
</g>
<!-- BaerSum_baer_sum_unit_r -->
<g id="node15" class="node">
<title>BaerSum_baer_sum_unit_r</title>
<g id="a_node15"><a xlink:href="BaerSum.html#baer_sum_unit_r" xlink:title="baer_sum_unit_r">
<ellipse fill="#f070d1" stroke="black" cx="166" cy="-513.15" rx="87.18" ry="18"/>
<text text-anchor="middle" x="166" y="-509.45" font-family="Times,serif" font-size="14.00">baer_sum_unit_r</text>
</a>
</g>
</g>
<!-- BaerSum_baer_sum_unit_l&#45;&gt;BaerSum_baer_sum_unit_r -->
<g id="edge24" class="edge">
<title>BaerSum_baer_sum_unit_l&#45;&gt;BaerSum_baer_sum_unit_r</title>
<path fill="none" stroke="black" d="M333.84,-617.97C299.56,-596.76 239.33,-559.51 201.11,-535.87"/>
<polygon fill="black" stroke="black" points="202.71,-532.74 192.37,-530.46 199.03,-538.7 202.71,-532.74"/>
</g>
<!-- BaerSum_baer_sum_unit_l&#45;&gt;BaerSum_baer_sum_commutative -->
<g id="edge25" class="edge">
<title>BaerSum_baer_sum_unit_l&#45;&gt;BaerSum_baer_sum_commutative</title>
<path fill="none" stroke="black" d="M392.94,-618.46C437.94,-597.03 518.71,-558.57 568.59,-534.82"/>
<polygon fill="black" stroke="black" points="570.31,-537.88 577.84,-530.42 567.3,-531.56 570.31,-537.88"/>
</g>
<!-- BaerSum_baer_sum_unit_r&#45;&gt;BaerSum_baer_sum_distributive_pullbacks -->
<g id="edge26" class="edge">
<title>BaerSum_baer_sum_unit_r&#45;&gt;BaerSum_baer_sum_distributive_pullbacks</title>
<path fill="none" stroke="black" d="M167.72,-495.1C169.69,-475.57 172.94,-443.31 175.26,-420.31"/>
<polygon fill="black" stroke="black" points="178.76,-420.47 176.28,-410.17 171.8,-419.77 178.76,-420.47"/>
</g>
<!-- BaerSum_baer_sum_commutative&#45;&gt;BaerSum_abses_pushout_pullback_reorder -->
<g id="edge27" class="edge">
<title>BaerSum_baer_sum_commutative&#45;&gt;BaerSum_abses_pushout_pullback_reorder</title>
<path fill="none" stroke="black" d="M731.29,-510.84C886.84,-506.32 1146.2,-488.16 1206,-418.15 1242.1,-375.89 1177.98,-323 1133.43,-293.56"/>
<polygon fill="black" stroke="black" points="1135.11,-290.48 1124.81,-288 1131.31,-296.36 1135.11,-290.48"/>
</g>
<!-- BaerSum_baer_sum_commutative&#45;&gt;BaerSum_abses_pushout_is_pullback -->
<g id="edge28" class="edge">
<title>BaerSum_baer_sum_commutative&#45;&gt;BaerSum_abses_pushout_is_pullback</title>
<path fill="none" stroke="black" d="M520.52,-501.39C467.93,-489.99 405.95,-466.51 373,-418.15 312.03,-328.65 455.19,-227.62 527.88,-184.06"/>
<polygon fill="black" stroke="black" points="529.96,-186.89 536.79,-178.79 526.4,-180.86 529.96,-186.89"/>
</g>
<!-- BaerSum_baer_sum_commutative&#45;&gt;BaerSum_abses_baer_sum -->
<g id="edge29" class="edge">
<title>BaerSum_baer_sum_commutative&#45;&gt;BaerSum_abses_baer_sum</title>
<path fill="none" stroke="black" d="M548.17,-497.83C465.84,-476.38 338.83,-431.33 389,-366.15 422.47,-322.67 570.16,-295.01 665.37,-281.35"/>
<polygon fill="black" stroke="black" points="665.86,-284.82 675.28,-279.96 664.89,-277.89 665.86,-284.82"/>
</g>
<!-- BaerSum_abses_reorder_pullback_pushout -->
<g id="node18" class="node">
<title>BaerSum_abses_reorder_pullback_pushout</title>
<g id="a_node18"><a xlink:href="BaerSum.html#abses_reorder_pullback_pushout" xlink:title="abses_reorder_pullback_pushout">
<ellipse fill="#f070d1" stroke="black" cx="178" cy="-270.15" rx="161.67" ry="18"/>
<text text-anchor="middle" x="178" y="-266.45" font-family="Times,serif" font-size="14.00">abses_reorder_pullback_pushout</text>
</a>
</g>
</g>
<!-- BaerSum_baer_sum_distributive_pullbacks&#45;&gt;BaerSum_abses_reorder_pullback_pushout -->
<g id="edge30" class="edge">
<title>BaerSum_baer_sum_distributive_pullbacks&#45;&gt;BaerSum_abses_reorder_pullback_pushout</title>
<path fill="none" stroke="black" d="M178,-373.96C178,-354.26 178,-321.73 178,-298.54"/>
<polygon fill="black" stroke="black" points="181.5,-298.31 178,-288.31 174.5,-298.31 181.5,-298.31"/>
</g>
<!-- BaerSum_baer_sum_distributive_pullbacks&#45;&gt;BaerSum_abses_baer_sum -->
<g id="edge31" class="edge">
<title>BaerSum_baer_sum_distributive_pullbacks&#45;&gt;BaerSum_abses_baer_sum</title>
<path fill="none" stroke="black" d="M250.19,-375.95C360.87,-352.65 571.04,-308.4 679.47,-285.58"/>
<polygon fill="black" stroke="black" points="680.26,-288.99 689.33,-283.5 678.82,-282.14 680.26,-288.99"/>
</g>
<!-- BaerSum_abses_reorder_pullback_pushout&#45;&gt;BaerSum_abses_pushout_is_pullback -->
<g id="edge32" class="edge">
<title>BaerSum_abses_reorder_pullback_pushout&#45;&gt;BaerSum_abses_pushout_is_pullback</title>
<path fill="none" stroke="black" d="M235.82,-253.25C306.81,-233.72 426.93,-200.68 501.34,-180.21"/>
<polygon fill="black" stroke="black" points="502.36,-183.56 511.08,-177.53 500.51,-176.81 502.36,-183.56"/>
</g>
<!-- BaerSum_is1bifunctor_abses_ -->
<g id="node19" class="node">
<title>BaerSum_is1bifunctor_abses_</title>
<g id="a_node19"><a xlink:href="BaerSum.html#is1bifunctor_abses'" xlink:title="is1bifunctor_abses&#39;">
<ellipse fill="#f070d1" stroke="black" cx="1829" cy="-392.15" rx="100.18" ry="18"/>
<ellipse fill="none" stroke="black" cx="1829" cy="-392.15" rx="104.18" ry="22"/>
<ellipse fill="none" stroke="black" cx="1829" cy="-392.15" rx="108.18" ry="26"/>
<text text-anchor="middle" x="1829" y="-388.45" font-family="Times,serif" font-size="14.00">is1bifunctor_abses&#39;</text>
</a>
</g>
</g>
<!-- BaerSum_is0bifunctor_abses_ -->
<g id="node20" class="node">
<title>BaerSum_is0bifunctor_abses_</title>
<g id="a_node20"><a xlink:href="BaerSum.html#is0bifunctor_abses'" xlink:title="is0bifunctor_abses&#39;">
<ellipse fill="#f070d1" stroke="black" cx="1829" cy="-270.15" rx="100.18" ry="18"/>
<text text-anchor="middle" x="1829" y="-266.45" font-family="Times,serif" font-size="14.00">is0bifunctor_abses&#39;</text>
</a>
</g>
</g>
<!-- BaerSum_is1bifunctor_abses_&#45;&gt;BaerSum_is0bifunctor_abses_ -->
<g id="edge33" class="edge">
<title>BaerSum_is1bifunctor_abses_&#45;&gt;BaerSum_is0bifunctor_abses_</title>
<path fill="none" stroke="black" d="M1829,-365.99C1829,-346.19 1829,-318.63 1829,-298.32"/>
<polygon fill="black" stroke="black" points="1832.5,-298.16 1829,-288.16 1825.5,-298.16 1832.5,-298.16"/>
</g>
<!-- BaerSum_is1bifunctor_abses_&#45;&gt;BaerSum_abses_pushout_pullback_reorder -->
<g id="edge34" class="edge">
<title>BaerSum_is1bifunctor_abses_&#45;&gt;BaerSum_abses_pushout_pullback_reorder</title>
<path fill="none" stroke="black" d="M1751.4,-373.91C1738.28,-371.19 1724.77,-368.5 1712,-366.15 1534.86,-333.59 1327.66,-303.21 1204.37,-285.94"/>
<polygon fill="black" stroke="black" points="1204.57,-282.43 1194.18,-284.51 1203.6,-289.37 1204.57,-282.43"/>
</g>
<!-- BaerSum_abses_pushout_pullback_reorder_ -->
<g id="node22" class="node">
<title>BaerSum_abses_pushout_pullback_reorder_</title>
<g id="a_node22"><a xlink:href="BaerSum.html#abses_pushout_pullback_reorder'" xlink:title="abses_pushout_pullback_reorder&#39;">
<ellipse fill="#f070d1" stroke="black" cx="987" cy="-161.15" rx="164.37" ry="18"/>
<text text-anchor="middle" x="987" y="-157.45" font-family="Times,serif" font-size="14.00">abses_pushout_pullback_reorder&#39;</text>
</a>
</g>
</g>
<!-- BaerSum_abses_pushout_pullback_reorder&#45;&gt;BaerSum_abses_pushout_pullback_reorder_ -->
<g id="edge35" class="edge">
<title>BaerSum_abses_pushout_pullback_reorder&#45;&gt;BaerSum_abses_pushout_pullback_reorder_</title>
<path fill="none" stroke="black" d="M1078.49,-251.96C1060.45,-234.25 1032.18,-206.5 1011.84,-186.53"/>
<polygon fill="black" stroke="black" points="1014.06,-183.81 1004.47,-179.3 1009.15,-188.8 1014.06,-183.81"/>
</g>
<!-- BaerSum_abses_pushout_is_pullback_ -->
<g id="node24" class="node">
<title>BaerSum_abses_pushout_is_pullback_</title>
<g id="a_node24"><a xlink:href="BaerSum.html#abses_pushout_is_pullback'" xlink:title="abses_pushout_is_pullback&#39;">
<ellipse fill="#f070d1" stroke="black" cx="725" cy="-51.15" rx="137.28" ry="18"/>
<text text-anchor="middle" x="725" y="-47.45" font-family="Times,serif" font-size="14.00">abses_pushout_is_pullback&#39;</text>
</a>
</g>
</g>
<!-- BaerSum_abses_pushout_pullback_reorder_&#45;&gt;BaerSum_abses_pushout_is_pullback_ -->
<g id="edge36" class="edge">
<title>BaerSum_abses_pushout_pullback_reorder_&#45;&gt;BaerSum_abses_pushout_is_pullback_</title>
<path fill="none" stroke="black" d="M946.92,-143.63C900.46,-124.48 823.89,-92.91 773.95,-72.33"/>
<polygon fill="black" stroke="black" points="775.22,-69.07 764.64,-68.49 772.56,-75.54 775.22,-69.07"/>
</g>
<!-- BaerSum_abses_pushout_is_pullback&#45;&gt;BaerSum_abses_pushout_is_pullback_ -->
<g id="edge37" class="edge">
<title>BaerSum_abses_pushout_is_pullback&#45;&gt;BaerSum_abses_pushout_is_pullback_</title>
<path fill="none" stroke="black" d="M591.69,-143.27C618.7,-124.81 662.14,-95.11 692.05,-74.67"/>
<polygon fill="black" stroke="black" points="694.21,-77.44 700.49,-68.91 690.26,-71.66 694.21,-77.44"/>
</g>
</g>
</svg>
