<?xml version="1.0" encoding="UTF-8" standalone="no"?>
<!DOCTYPE svg PUBLIC "-//W3C//DTD SVG 1.1//EN"
 "http://www.w3.org/Graphics/SVG/1.1/DTD/svg11.dtd">
<!-- Generated by graphviz version 2.43.0 (0)
 -->
<!-- Title: HoTT_Colimits_Coeq Pages: 1 -->
<svg width="2318pt" height="1163pt"
 viewBox="0.00 0.00 2318.00 1163.00" xmlns="http://www.w3.org/2000/svg" xmlns:xlink="http://www.w3.org/1999/xlink">
<g id="graph0" class="graph" transform="scale(1 1) rotate(0) translate(4 1159)">
<title>HoTT_Colimits_Coeq</title>
<polygon fill="white" stroke="transparent" points="-4,4 -4,-1159 2314,-1159 2314,4 -4,4"/>
<g id="clust1" class="cluster">
<title>cluster_Coeq</title>
<polygon fill="#ffffc3" stroke="black" points="8,-11.51 8,-1143.49 2302,-1143.49 2302,-11.51 8,-11.51"/>
<text text-anchor="middle" x="34.5" y="-1128.29" font-family="Times,serif" font-size="14.00">Coeq</text>
</g>
<!-- Coeq_equiv_coeq_flatten -->
<g id="node1" class="node">
<title>Coeq_equiv_coeq_flatten</title>
<g id="a_node1"><a xlink:href="Coeq.html#equiv_coeq_flatten" xlink:title="equiv_coeq_flatten">
<ellipse fill="#f070d1" stroke="black" cx="1612" cy="-474.51" rx="96.7" ry="18"/>
<ellipse fill="none" stroke="black" cx="1612" cy="-474.51" rx="100.69" ry="22"/>
<ellipse fill="none" stroke="black" cx="1612" cy="-474.51" rx="104.68" ry="26"/>
<text text-anchor="middle" x="1612" y="-470.81" font-family="Times,serif" font-size="14.00">equiv_coeq_flatten</text>
</a>
</g>
</g>
<!-- Coeq_e_ -->
<g id="node2" class="node">
<title>Coeq_e_</title>
<g id="a_node2"><a xlink:href="Coeq.html#e'" xlink:title="e&#39;">
<ellipse fill="#f070d1" stroke="black" cx="1630" cy="-359.51" rx="27" ry="18"/>
<text text-anchor="middle" x="1630" y="-355.81" font-family="Times,serif" font-size="14.00">e&#39;</text>
</a>
</g>
</g>
<!-- Coeq_equiv_coeq_flatten&#45;&gt;Coeq_e_ -->
<g id="edge1" class="edge">
<title>Coeq_equiv_coeq_flatten&#45;&gt;Coeq_e_</title>
<path fill="none" stroke="black" d="M1615.99,-448.43C1618.87,-430.38 1622.74,-406.07 1625.69,-387.58"/>
<polygon fill="black" stroke="black" points="1629.18,-387.89 1627.3,-377.46 1622.27,-386.79 1629.18,-387.89"/>
</g>
<!-- Coeq_coeq_flatten_fam -->
<g id="node4" class="node">
<title>Coeq_coeq_flatten_fam</title>
<g id="a_node4"><a xlink:href="Coeq.html#coeq_flatten_fam" xlink:title="coeq_flatten_fam">
<ellipse fill="#f070d1" stroke="black" cx="1496" cy="-359.51" rx="89.08" ry="18"/>
<text text-anchor="middle" x="1496" y="-355.81" font-family="Times,serif" font-size="14.00">coeq_flatten_fam</text>
</a>
</g>
</g>
<!-- Coeq_equiv_coeq_flatten&#45;&gt;Coeq_coeq_flatten_fam -->
<g id="edge2" class="edge">
<title>Coeq_equiv_coeq_flatten&#45;&gt;Coeq_coeq_flatten_fam</title>
<path fill="none" stroke="black" d="M1586.83,-448.99C1567.18,-429.85 1540.04,-403.41 1520.55,-384.42"/>
<polygon fill="black" stroke="black" points="1522.84,-381.76 1513.23,-377.29 1517.95,-386.78 1522.84,-381.76"/>
</g>
<!-- Coeq_Coeq_rec_beta_cglue -->
<g id="node29" class="node">
<title>Coeq_Coeq_rec_beta_cglue</title>
<g id="a_node29"><a xlink:href="Coeq.html#Coeq_rec_beta_cglue" xlink:title="Coeq_rec_beta_cglue">
<ellipse fill="#f070d1" stroke="black" cx="1124" cy="-359.51" rx="107.48" ry="18"/>
<text text-anchor="middle" x="1124" y="-355.81" font-family="Times,serif" font-size="14.00">Coeq_rec_beta_cglue</text>
</a>
</g>
</g>
<!-- Coeq_equiv_coeq_flatten&#45;&gt;Coeq_Coeq_rec_beta_cglue -->
<g id="edge3" class="edge">
<title>Coeq_equiv_coeq_flatten&#45;&gt;Coeq_Coeq_rec_beta_cglue</title>
<path fill="none" stroke="black" d="M1537.35,-456.22C1444.06,-434.62 1285.6,-397.93 1194.36,-376.8"/>
<polygon fill="black" stroke="black" points="1194.92,-373.34 1184.39,-374.49 1193.34,-380.16 1194.92,-373.34"/>
</g>
<!-- Coeq_Coeq_ind -->
<g id="node32" class="node">
<title>Coeq_Coeq_ind</title>
<g id="a_node32"><a xlink:href="Coeq.html#Coeq_ind" xlink:title="Coeq_ind">
<ellipse fill="#f070d1" stroke="black" cx="690" cy="-359.51" rx="53.09" ry="18"/>
<text text-anchor="middle" x="690" y="-355.81" font-family="Times,serif" font-size="14.00">Coeq_ind</text>
</a>
</g>
</g>
<!-- Coeq_equiv_coeq_flatten&#45;&gt;Coeq_Coeq_ind -->
<g id="edge4" class="edge">
<title>Coeq_equiv_coeq_flatten&#45;&gt;Coeq_Coeq_ind</title>
<path fill="none" stroke="black" d="M1538.03,-456.04C1524.75,-453.26 1511,-450.61 1498,-448.51 1201.53,-400.49 1124.35,-411.91 826,-377.51 800.66,-374.59 772.7,-371.13 748.75,-368.1"/>
<polygon fill="black" stroke="black" points="749.12,-364.62 738.76,-366.83 748.24,-371.56 749.12,-364.62"/>
</g>
<!-- Coeq_R -->
<g id="node3" class="node">
<title>Coeq_R</title>
<g id="a_node3"><a xlink:href="Coeq.html#R" xlink:title="R">
<ellipse fill="#f070d1" stroke="black" cx="1630" cy="-256.51" rx="27" ry="18"/>
<text text-anchor="middle" x="1630" y="-252.81" font-family="Times,serif" font-size="14.00">R</text>
</a>
</g>
</g>
<!-- Coeq_e_&#45;&gt;Coeq_R -->
<g id="edge5" class="edge">
<title>Coeq_e_&#45;&gt;Coeq_R</title>
<path fill="none" stroke="black" d="M1630,-341.37C1630,-325.92 1630,-302.92 1630,-284.92"/>
<polygon fill="black" stroke="black" points="1633.5,-284.72 1630,-274.72 1626.5,-284.72 1633.5,-284.72"/>
</g>
<!-- Coeq_Coeq_rec -->
<g id="node30" class="node">
<title>Coeq_Coeq_rec</title>
<g id="a_node30"><a xlink:href="Coeq.html#Coeq_rec" xlink:title="Coeq_rec">
<ellipse fill="#f070d1" stroke="black" cx="1124" cy="-256.51" rx="53.09" ry="18"/>
<text text-anchor="middle" x="1124" y="-252.81" font-family="Times,serif" font-size="14.00">Coeq_rec</text>
</a>
</g>
</g>
<!-- Coeq_coeq_flatten_fam&#45;&gt;Coeq_Coeq_rec -->
<g id="edge6" class="edge">
<title>Coeq_coeq_flatten_fam&#45;&gt;Coeq_Coeq_rec</title>
<path fill="none" stroke="black" d="M1445.05,-344.68C1373.74,-325.31 1244.97,-290.35 1174.11,-271.11"/>
<polygon fill="black" stroke="black" points="1174.65,-267.63 1164.09,-268.39 1172.82,-274.39 1174.65,-267.63"/>
</g>
<!-- Coeq_Coeq_sym -->
<g id="node5" class="node">
<title>Coeq_Coeq_sym</title>
<g id="a_node5"><a xlink:href="Coeq.html#Coeq_sym" xlink:title="Coeq_sym">
<ellipse fill="#f070d1" stroke="black" cx="473" cy="-727.51" rx="57.71" ry="18"/>
<ellipse fill="none" stroke="black" cx="473" cy="-727.51" rx="61.7" ry="22"/>
<ellipse fill="none" stroke="black" cx="473" cy="-727.51" rx="65.69" ry="26"/>
<text text-anchor="middle" x="473" y="-723.81" font-family="Times,serif" font-size="14.00">Coeq_sym</text>
</a>
</g>
</g>
<!-- Coeq_sect_Coeq_sym_map -->
<g id="node6" class="node">
<title>Coeq_sect_Coeq_sym_map</title>
<g id="a_node6"><a xlink:href="Coeq.html#sect_Coeq_sym_map" xlink:title="sect_Coeq_sym_map">
<ellipse fill="#f070d1" stroke="black" cx="473" cy="-601.51" rx="105.08" ry="18"/>
<text text-anchor="middle" x="473" y="-597.81" font-family="Times,serif" font-size="14.00">sect_Coeq_sym_map</text>
</a>
</g>
</g>
<!-- Coeq_Coeq_sym&#45;&gt;Coeq_sect_Coeq_sym_map -->
<g id="edge7" class="edge">
<title>Coeq_Coeq_sym&#45;&gt;Coeq_sect_Coeq_sym_map</title>
<path fill="none" stroke="black" d="M473,-701.41C473,-680.59 473,-651.03 473,-629.65"/>
<polygon fill="black" stroke="black" points="476.5,-629.6 473,-619.6 469.5,-629.6 476.5,-629.6"/>
</g>
<!-- Coeq_sect_Coeq_sym_map_subproof -->
<g id="node7" class="node">
<title>Coeq_sect_Coeq_sym_map_subproof</title>
<g id="a_node7"><a xlink:href="Coeq.html#sect_Coeq_sym_map_subproof" xlink:title="sect_Coeq_sym_map_subproof">
<ellipse fill="#f070d1" stroke="black" cx="936" cy="-474.51" rx="150.57" ry="18"/>
<text text-anchor="middle" x="936" y="-470.81" font-family="Times,serif" font-size="14.00">sect_Coeq_sym_map_subproof</text>
</a>
</g>
</g>
<!-- Coeq_sect_Coeq_sym_map&#45;&gt;Coeq_sect_Coeq_sym_map_subproof -->
<g id="edge8" class="edge">
<title>Coeq_sect_Coeq_sym_map&#45;&gt;Coeq_sect_Coeq_sym_map_subproof</title>
<path fill="none" stroke="black" d="M527.02,-585.92C611.72,-563.06 775.63,-518.8 868.15,-493.82"/>
<polygon fill="black" stroke="black" points="869.23,-497.16 877.98,-491.17 867.41,-490.4 869.23,-497.16"/>
</g>
<!-- Coeq_sect_Coeq_sym_map&#45;&gt;Coeq_Coeq_ind -->
<g id="edge9" class="edge">
<title>Coeq_sect_Coeq_sym_map&#45;&gt;Coeq_Coeq_ind</title>
<path fill="none" stroke="black" d="M476.43,-583.33C483.75,-548.13 501.62,-469.37 519,-448.51 550.2,-411.07 601.41,-387.71 639.67,-374.56"/>
<polygon fill="black" stroke="black" points="641.2,-377.74 649.59,-371.27 639,-371.09 641.2,-377.74"/>
</g>
<!-- Coeq_Coeq_sym_map -->
<g id="node8" class="node">
<title>Coeq_Coeq_sym_map</title>
<g id="a_node8"><a xlink:href="Coeq.html#Coeq_sym_map" xlink:title="Coeq_sym_map">
<ellipse fill="#f070d1" stroke="black" cx="917" cy="-359.51" rx="81.79" ry="18"/>
<text text-anchor="middle" x="917" y="-355.81" font-family="Times,serif" font-size="14.00">Coeq_sym_map</text>
</a>
</g>
</g>
<!-- Coeq_sect_Coeq_sym_map_subproof&#45;&gt;Coeq_Coeq_sym_map -->
<g id="edge10" class="edge">
<title>Coeq_sect_Coeq_sym_map_subproof&#45;&gt;Coeq_Coeq_sym_map</title>
<path fill="none" stroke="black" d="M933.11,-456.34C930.06,-438.18 925.19,-409.23 921.61,-387.9"/>
<polygon fill="black" stroke="black" points="925.02,-387.11 919.91,-377.83 918.12,-388.27 925.02,-387.11"/>
</g>
<!-- Coeq_sect_Coeq_sym_map_subproof&#45;&gt;Coeq_Coeq_rec_beta_cglue -->
<g id="edge11" class="edge">
<title>Coeq_sect_Coeq_sym_map_subproof&#45;&gt;Coeq_Coeq_rec_beta_cglue</title>
<path fill="none" stroke="black" d="M964.15,-456.59C997.1,-436.78 1051.76,-403.93 1087.83,-382.24"/>
<polygon fill="black" stroke="black" points="1089.81,-385.14 1096.58,-376.99 1086.21,-379.14 1089.81,-385.14"/>
</g>
<!-- Coeq_Coeq_sym_map&#45;&gt;Coeq_Coeq_rec -->
<g id="edge12" class="edge">
<title>Coeq_Coeq_sym_map&#45;&gt;Coeq_Coeq_rec</title>
<path fill="none" stroke="black" d="M949.34,-342.73C986.29,-324.7 1046.69,-295.23 1085.89,-276.1"/>
<polygon fill="black" stroke="black" points="1087.44,-279.24 1094.89,-271.71 1084.37,-272.95 1087.44,-279.24"/>
</g>
<!-- Coeq_cglue -->
<g id="node33" class="node">
<title>Coeq_cglue</title>
<g id="a_node33"><a xlink:href="Coeq.html#cglue" xlink:title="cglue">
<ellipse fill="#f070d1" stroke="black" cx="936" cy="-256.51" rx="36" ry="18"/>
<text text-anchor="middle" x="936" y="-252.81" font-family="Times,serif" font-size="14.00">cglue</text>
</a>
</g>
</g>
<!-- Coeq_Coeq_sym_map&#45;&gt;Coeq_cglue -->
<g id="edge13" class="edge">
<title>Coeq_Coeq_sym_map&#45;&gt;Coeq_cglue</title>
<path fill="none" stroke="black" d="M920.22,-341.37C923.14,-325.85 927.5,-302.71 930.89,-284.66"/>
<polygon fill="black" stroke="black" points="934.35,-285.2 932.76,-274.72 927.47,-283.9 934.35,-285.2"/>
</g>
<!-- Coeq_Coeq_ind2 -->
<g id="node9" class="node">
<title>Coeq_Coeq_ind2</title>
<g id="a_node9"><a xlink:href="Coeq.html#Coeq_ind2" xlink:title="Coeq_ind2">
<ellipse fill="#f070d1" stroke="black" cx="83" cy="-601.51" rx="59.27" ry="18"/>
<ellipse fill="none" stroke="black" cx="83" cy="-601.51" rx="63.28" ry="22"/>
<ellipse fill="none" stroke="black" cx="83" cy="-601.51" rx="67.29" ry="26"/>
<text text-anchor="middle" x="83" y="-597.81" font-family="Times,serif" font-size="14.00">Coeq_ind2</text>
</a>
</g>
</g>
<!-- Coeq_Coeq_ind_beta_cglue -->
<g id="node31" class="node">
<title>Coeq_Coeq_ind_beta_cglue</title>
<g id="a_node31"><a xlink:href="Coeq.html#Coeq_ind_beta_cglue" xlink:title="Coeq_ind_beta_cglue">
<ellipse fill="#f070d1" stroke="black" cx="150" cy="-474.51" rx="107.48" ry="18"/>
<text text-anchor="middle" x="150" y="-470.81" font-family="Times,serif" font-size="14.00">Coeq_ind_beta_cglue</text>
</a>
</g>
</g>
<!-- Coeq_Coeq_ind2&#45;&gt;Coeq_Coeq_ind_beta_cglue -->
<g id="edge14" class="edge">
<title>Coeq_Coeq_ind2&#45;&gt;Coeq_Coeq_ind_beta_cglue</title>
<path fill="none" stroke="black" d="M96.24,-575.81C107.73,-554.37 124.32,-523.41 136.03,-501.57"/>
<polygon fill="black" stroke="black" points="139.23,-503.01 140.87,-492.54 133.06,-499.7 139.23,-503.01"/>
</g>
<!-- Coeq_Coeq_rec2_beta_cgluer -->
<g id="node10" class="node">
<title>Coeq_Coeq_rec2_beta_cgluer</title>
<g id="a_node10"><a xlink:href="Coeq.html#Coeq_rec2_beta_cgluer" xlink:title="Coeq_rec2_beta_cgluer">
<ellipse fill="#f070d1" stroke="black" cx="1933" cy="-601.51" rx="117.77" ry="18"/>
<ellipse fill="none" stroke="black" cx="1933" cy="-601.51" rx="121.77" ry="22"/>
<ellipse fill="none" stroke="black" cx="1933" cy="-601.51" rx="125.78" ry="26"/>
<text text-anchor="middle" x="1933" y="-597.81" font-family="Times,serif" font-size="14.00">Coeq_rec2_beta_cgluer</text>
</a>
</g>
</g>
<!-- Coeq_Coeq_rec2 -->
<g id="node13" class="node">
<title>Coeq_Coeq_rec2</title>
<g id="a_node13"><a xlink:href="Coeq.html#Coeq_rec2" xlink:title="Coeq_rec2">
<ellipse fill="#f070d1" stroke="black" cx="1430" cy="-474.51" rx="59.29" ry="18"/>
<text text-anchor="middle" x="1430" y="-470.81" font-family="Times,serif" font-size="14.00">Coeq_rec2</text>
</a>
</g>
</g>
<!-- Coeq_Coeq_rec2_beta_cgluer&#45;&gt;Coeq_Coeq_rec2 -->
<g id="edge15" class="edge">
<title>Coeq_Coeq_rec2_beta_cgluer&#45;&gt;Coeq_Coeq_rec2</title>
<path fill="none" stroke="black" d="M1843,-583.28C1754.42,-565.52 1615.72,-535.53 1498,-500.51 1490.2,-498.19 1482,-495.44 1474.1,-492.64"/>
<polygon fill="black" stroke="black" points="1475.25,-489.33 1464.66,-489.21 1472.86,-495.91 1475.25,-489.33"/>
</g>
<!-- Coeq_Coeq_rec2_beta_cgluel -->
<g id="node11" class="node">
<title>Coeq_Coeq_rec2_beta_cgluel</title>
<g id="a_node11"><a xlink:href="Coeq.html#Coeq_rec2_beta_cgluel" xlink:title="Coeq_rec2_beta_cgluel">
<ellipse fill="#f070d1" stroke="black" cx="1665" cy="-601.51" rx="116.19" ry="18"/>
<ellipse fill="none" stroke="black" cx="1665" cy="-601.51" rx="120.18" ry="22"/>
<ellipse fill="none" stroke="black" cx="1665" cy="-601.51" rx="124.18" ry="26"/>
<text text-anchor="middle" x="1665" y="-597.81" font-family="Times,serif" font-size="14.00">Coeq_rec2_beta_cgluel</text>
</a>
</g>
</g>
<!-- Coeq_Coeq_rec2_beta_cgluel&#45;&gt;Coeq_Coeq_rec2 -->
<g id="edge16" class="edge">
<title>Coeq_Coeq_rec2_beta_cgluel&#45;&gt;Coeq_Coeq_rec2</title>
<path fill="none" stroke="black" d="M1621.07,-577.14C1576.74,-553.56 1509.01,-517.53 1467.23,-495.31"/>
<polygon fill="black" stroke="black" points="1468.69,-492.12 1458.21,-490.51 1465.4,-498.3 1468.69,-492.12"/>
</g>
<!-- Coeq_Coeq_rec2_beta -->
<g id="node12" class="node">
<title>Coeq_Coeq_rec2_beta</title>
<g id="a_node12"><a xlink:href="Coeq.html#Coeq_rec2_beta" xlink:title="Coeq_rec2_beta">
<ellipse fill="#f070d1" stroke="black" cx="1431" cy="-601.51" rx="83.7" ry="18"/>
<ellipse fill="none" stroke="black" cx="1431" cy="-601.51" rx="87.69" ry="22"/>
<ellipse fill="none" stroke="black" cx="1431" cy="-601.51" rx="91.69" ry="26"/>
<text text-anchor="middle" x="1431" y="-597.81" font-family="Times,serif" font-size="14.00">Coeq_rec2_beta</text>
</a>
</g>
</g>
<!-- Coeq_Coeq_rec2_beta&#45;&gt;Coeq_Coeq_rec2 -->
<g id="edge17" class="edge">
<title>Coeq_Coeq_rec2_beta&#45;&gt;Coeq_Coeq_rec2</title>
<path fill="none" stroke="black" d="M1430.8,-575.21C1430.63,-554.22 1430.39,-524.42 1430.22,-502.87"/>
<polygon fill="black" stroke="black" points="1433.72,-502.71 1430.14,-492.74 1426.72,-502.77 1433.72,-502.71"/>
</g>
<!-- Coeq_Coeq_rec2&#45;&gt;Coeq_Coeq_rec_beta_cglue -->
<g id="edge18" class="edge">
<title>Coeq_Coeq_rec2&#45;&gt;Coeq_Coeq_rec_beta_cglue</title>
<path fill="none" stroke="black" d="M1394,-460.21C1340.01,-440.28 1237.82,-402.54 1175.81,-379.64"/>
<polygon fill="black" stroke="black" points="1176.82,-376.28 1166.22,-376.1 1174.39,-382.85 1176.82,-376.28"/>
</g>
<!-- Coeq_Coeq_rec2&#45;&gt;Coeq_Coeq_ind -->
<g id="edge19" class="edge">
<title>Coeq_Coeq_rec2&#45;&gt;Coeq_Coeq_ind</title>
<path fill="none" stroke="black" d="M1396.56,-459.54C1385.7,-455.45 1373.48,-451.33 1362,-448.51 1332.3,-441.2 907.5,-387.71 749.03,-367.88"/>
<polygon fill="black" stroke="black" points="749.34,-364.39 738.99,-366.62 748.47,-371.33 749.34,-364.39"/>
</g>
<!-- Coeq_equiv_functor_coeq_ -->
<g id="node14" class="node">
<title>Coeq_equiv_functor_coeq_</title>
<g id="a_node14"><a xlink:href="Coeq.html#equiv_functor_coeq'" xlink:title="equiv_functor_coeq&#39;">
<ellipse fill="#f070d1" stroke="black" cx="1706" cy="-1061.51" rx="102.87" ry="18"/>
<ellipse fill="none" stroke="black" cx="1706" cy="-1061.51" rx="106.88" ry="22"/>
<ellipse fill="none" stroke="black" cx="1706" cy="-1061.51" rx="110.88" ry="26"/>
<text text-anchor="middle" x="1706" y="-1057.81" font-family="Times,serif" font-size="14.00">equiv_functor_coeq&#39;</text>
</a>
</g>
</g>
<!-- Coeq_equiv_functor_coeq -->
<g id="node15" class="node">
<title>Coeq_equiv_functor_coeq</title>
<g id="a_node15"><a xlink:href="Coeq.html#equiv_functor_coeq" xlink:title="equiv_functor_coeq">
<ellipse fill="#f070d1" stroke="black" cx="1706" cy="-946.51" rx="100.18" ry="18"/>
<text text-anchor="middle" x="1706" y="-942.81" font-family="Times,serif" font-size="14.00">equiv_functor_coeq</text>
</a>
</g>
</g>
<!-- Coeq_equiv_functor_coeq_&#45;&gt;Coeq_equiv_functor_coeq -->
<g id="edge20" class="edge">
<title>Coeq_equiv_functor_coeq_&#45;&gt;Coeq_equiv_functor_coeq</title>
<path fill="none" stroke="black" d="M1706,-1035.43C1706,-1017.49 1706,-993.36 1706,-974.92"/>
<polygon fill="black" stroke="black" points="1709.5,-974.8 1706,-964.8 1702.5,-974.8 1709.5,-974.8"/>
</g>
<!-- Coeq_isequiv_functor_coeq -->
<g id="node16" class="node">
<title>Coeq_isequiv_functor_coeq</title>
<g id="a_node16"><a xlink:href="Coeq.html#isequiv_functor_coeq" xlink:title="isequiv_functor_coeq">
<ellipse fill="#f070d1" stroke="black" cx="1706" cy="-842.51" rx="107.78" ry="18"/>
<text text-anchor="middle" x="1706" y="-838.81" font-family="Times,serif" font-size="14.00">isequiv_functor_coeq</text>
</a>
</g>
</g>
<!-- Coeq_equiv_functor_coeq&#45;&gt;Coeq_isequiv_functor_coeq -->
<g id="edge21" class="edge">
<title>Coeq_equiv_functor_coeq&#45;&gt;Coeq_isequiv_functor_coeq</title>
<path fill="none" stroke="black" d="M1706,-928.2C1706,-912.43 1706,-888.87 1706,-870.6"/>
<polygon fill="black" stroke="black" points="1709.5,-870.55 1706,-860.55 1702.5,-870.55 1709.5,-870.55"/>
</g>
<!-- Coeq_functor_coeq_eisretr -->
<g id="node17" class="node">
<title>Coeq_functor_coeq_eisretr</title>
<g id="a_node17"><a xlink:href="Coeq.html#functor_coeq_eisretr" xlink:title="functor_coeq_eisretr">
<ellipse fill="#f070d1" stroke="black" cx="1591" cy="-727.51" rx="105.88" ry="18"/>
<text text-anchor="middle" x="1591" y="-723.81" font-family="Times,serif" font-size="14.00">functor_coeq_eisretr</text>
</a>
</g>
</g>
<!-- Coeq_isequiv_functor_coeq&#45;&gt;Coeq_functor_coeq_eisretr -->
<g id="edge22" class="edge">
<title>Coeq_isequiv_functor_coeq&#45;&gt;Coeq_functor_coeq_eisretr</title>
<path fill="none" stroke="black" d="M1688.53,-824.34C1669.09,-805.24 1637.51,-774.21 1615.57,-752.65"/>
<polygon fill="black" stroke="black" points="1617.84,-749.97 1608.25,-745.46 1612.93,-754.97 1617.84,-749.97"/>
</g>
<!-- Coeq_functor_coeq_eissect -->
<g id="node18" class="node">
<title>Coeq_functor_coeq_eissect</title>
<g id="a_node18"><a xlink:href="Coeq.html#functor_coeq_eissect" xlink:title="functor_coeq_eissect">
<ellipse fill="#f070d1" stroke="black" cx="1822" cy="-727.51" rx="106.68" ry="18"/>
<text text-anchor="middle" x="1822" y="-723.81" font-family="Times,serif" font-size="14.00">functor_coeq_eissect</text>
</a>
</g>
</g>
<!-- Coeq_isequiv_functor_coeq&#45;&gt;Coeq_functor_coeq_eissect -->
<g id="edge23" class="edge">
<title>Coeq_isequiv_functor_coeq&#45;&gt;Coeq_functor_coeq_eissect</title>
<path fill="none" stroke="black" d="M1723.37,-824.59C1742.93,-805.53 1774.88,-774.41 1797.1,-752.76"/>
<polygon fill="black" stroke="black" points="1799.79,-755.02 1804.51,-745.54 1794.91,-750.01 1799.79,-755.02"/>
</g>
<!-- Coeq_functor_coeq_inverse -->
<g id="node19" class="node">
<title>Coeq_functor_coeq_inverse</title>
<g id="a_node19"><a xlink:href="Coeq.html#functor_coeq_inverse" xlink:title="functor_coeq_inverse">
<ellipse fill="#f070d1" stroke="black" cx="2185" cy="-601.51" rx="108.58" ry="18"/>
<text text-anchor="middle" x="2185" y="-597.81" font-family="Times,serif" font-size="14.00">functor_coeq_inverse</text>
</a>
</g>
</g>
<!-- Coeq_functor_coeq_eisretr&#45;&gt;Coeq_functor_coeq_inverse -->
<g id="edge24" class="edge">
<title>Coeq_functor_coeq_eisretr&#45;&gt;Coeq_functor_coeq_inverse</title>
<path fill="none" stroke="black" d="M1653.04,-712.87C1670.19,-709.14 1688.81,-705.13 1706,-701.51 1866.68,-667.62 1907.26,-661.11 2068,-627.51 2082.12,-624.55 2097.2,-621.36 2111.67,-618.28"/>
<polygon fill="black" stroke="black" points="2112.52,-621.68 2121.57,-616.17 2111.06,-614.83 2112.52,-621.68"/>
</g>
<!-- Coeq_functor_coeq_sect -->
<g id="node20" class="node">
<title>Coeq_functor_coeq_sect</title>
<g id="a_node20"><a xlink:href="Coeq.html#functor_coeq_sect" xlink:title="functor_coeq_sect">
<ellipse fill="#f070d1" stroke="black" cx="1228" cy="-601.51" rx="93.68" ry="18"/>
<text text-anchor="middle" x="1228" y="-597.81" font-family="Times,serif" font-size="14.00">functor_coeq_sect</text>
</a>
</g>
</g>
<!-- Coeq_functor_coeq_eisretr&#45;&gt;Coeq_functor_coeq_sect -->
<g id="edge25" class="edge">
<title>Coeq_functor_coeq_eisretr&#45;&gt;Coeq_functor_coeq_sect</title>
<path fill="none" stroke="black" d="M1546.12,-711.18C1479.18,-688.31 1353.39,-645.34 1281.67,-620.84"/>
<polygon fill="black" stroke="black" points="1282.52,-617.43 1271.92,-617.51 1280.25,-624.06 1282.52,-617.43"/>
</g>
<!-- Coeq_functor_coeq_eissect&#45;&gt;Coeq_functor_coeq_inverse -->
<g id="edge26" class="edge">
<title>Coeq_functor_coeq_eissect&#45;&gt;Coeq_functor_coeq_inverse</title>
<path fill="none" stroke="black" d="M1866.88,-711.18C1933.45,-688.43 2058.25,-645.8 2130.16,-621.24"/>
<polygon fill="black" stroke="black" points="2131.61,-624.44 2139.94,-617.9 2129.35,-617.82 2131.61,-624.44"/>
</g>
<!-- Coeq_functor_coeq_eissect&#45;&gt;Coeq_functor_coeq_sect -->
<g id="edge27" class="edge">
<title>Coeq_functor_coeq_eissect&#45;&gt;Coeq_functor_coeq_sect</title>
<path fill="none" stroke="black" d="M1759.74,-712.87C1742.36,-709.13 1723.45,-705.1 1706,-701.51 1539.19,-667.12 1496.31,-664.23 1330,-627.51 1317.71,-624.79 1304.63,-621.72 1292.08,-618.69"/>
<polygon fill="black" stroke="black" points="1292.69,-615.24 1282.15,-616.27 1291.04,-622.04 1292.69,-615.24"/>
</g>
<!-- Coeq_functor_coeq -->
<g id="node24" class="node">
<title>Coeq_functor_coeq</title>
<g id="a_node24"><a xlink:href="Coeq.html#functor_coeq" xlink:title="functor_coeq">
<ellipse fill="#f070d1" stroke="black" cx="1319" cy="-359.51" rx="70.39" ry="18"/>
<text text-anchor="middle" x="1319" y="-355.81" font-family="Times,serif" font-size="14.00">functor_coeq</text>
</a>
</g>
</g>
<!-- Coeq_functor_coeq_inverse&#45;&gt;Coeq_functor_coeq -->
<g id="edge28" class="edge">
<title>Coeq_functor_coeq_inverse&#45;&gt;Coeq_functor_coeq</title>
<path fill="none" stroke="black" d="M2142.75,-584.83C2062.4,-555.39 1881.69,-490.99 1726,-448.51 1721.81,-447.36 1493.92,-398.21 1381.03,-373.87"/>
<polygon fill="black" stroke="black" points="1381.64,-370.43 1371.13,-371.74 1380.17,-377.27 1381.64,-370.43"/>
</g>
<!-- Coeq_functor_coeq_beta_cglue -->
<g id="node23" class="node">
<title>Coeq_functor_coeq_beta_cglue</title>
<g id="a_node23"><a xlink:href="Coeq.html#functor_coeq_beta_cglue" xlink:title="functor_coeq_beta_cglue">
<ellipse fill="#f070d1" stroke="black" cx="1229" cy="-474.51" rx="124.28" ry="18"/>
<text text-anchor="middle" x="1229" y="-470.81" font-family="Times,serif" font-size="14.00">functor_coeq_beta_cglue</text>
</a>
</g>
</g>
<!-- Coeq_functor_coeq_sect&#45;&gt;Coeq_functor_coeq_beta_cglue -->
<g id="edge29" class="edge">
<title>Coeq_functor_coeq_sect&#45;&gt;Coeq_functor_coeq_beta_cglue</title>
<path fill="none" stroke="black" d="M1228.14,-583.39C1228.3,-562.65 1228.58,-527.46 1228.78,-502.93"/>
<polygon fill="black" stroke="black" points="1232.28,-502.85 1228.86,-492.82 1225.28,-502.79 1232.28,-502.85"/>
</g>
<!-- Coeq_functor_coeq_sect&#45;&gt;Coeq_Coeq_ind -->
<g id="edge30" class="edge">
<title>Coeq_functor_coeq_sect&#45;&gt;Coeq_Coeq_ind</title>
<path fill="none" stroke="black" d="M1173.01,-586.87C1157.5,-583.11 1140.61,-579.08 1125,-575.51 970.34,-540.13 899.06,-600.64 776,-500.51 756.4,-484.56 765.53,-470.45 753,-448.51 740.23,-426.14 723.06,-402.49 709.88,-385.35"/>
<polygon fill="black" stroke="black" points="712.3,-382.75 703.39,-377.02 706.77,-387.06 712.3,-382.75"/>
</g>
<!-- Coeq_functor_coeq_homotopy -->
<g id="node21" class="node">
<title>Coeq_functor_coeq_homotopy</title>
<g id="a_node21"><a xlink:href="Coeq.html#functor_coeq_homotopy" xlink:title="functor_coeq_homotopy">
<ellipse fill="#f070d1" stroke="black" cx="988" cy="-601.51" rx="120.46" ry="18"/>
<ellipse fill="none" stroke="black" cx="988" cy="-601.51" rx="124.47" ry="22"/>
<ellipse fill="none" stroke="black" cx="988" cy="-601.51" rx="128.48" ry="26"/>
<text text-anchor="middle" x="988" y="-597.81" font-family="Times,serif" font-size="14.00">functor_coeq_homotopy</text>
</a>
</g>
</g>
<!-- Coeq_functor_coeq_homotopy&#45;&gt;Coeq_functor_coeq_beta_cglue -->
<g id="edge31" class="edge">
<title>Coeq_functor_coeq_homotopy&#45;&gt;Coeq_functor_coeq_beta_cglue</title>
<path fill="none" stroke="black" d="M1033.05,-577.14C1077.6,-554.03 1145.17,-518.99 1188.19,-496.67"/>
<polygon fill="black" stroke="black" points="1189.98,-499.69 1197.24,-491.98 1186.75,-493.48 1189.98,-499.69"/>
</g>
<!-- Coeq_functor_coeq_homotopy&#45;&gt;Coeq_Coeq_ind -->
<g id="edge32" class="edge">
<title>Coeq_functor_coeq_homotopy&#45;&gt;Coeq_Coeq_ind</title>
<path fill="none" stroke="black" d="M909.39,-580.93C861.6,-565.67 802.09,-540.25 761,-500.51 742.57,-482.68 747.5,-471.43 736,-448.51 725.44,-427.44 713.04,-403.79 703.78,-386.31"/>
<polygon fill="black" stroke="black" points="706.77,-384.48 698.99,-377.29 700.59,-387.76 706.77,-384.48"/>
</g>
<!-- Coeq_functor_coeq_compose -->
<g id="node22" class="node">
<title>Coeq_functor_coeq_compose</title>
<g id="a_node22"><a xlink:href="Coeq.html#functor_coeq_compose" xlink:title="functor_coeq_compose">
<ellipse fill="#f070d1" stroke="black" cx="719" cy="-601.51" rx="115.08" ry="18"/>
<ellipse fill="none" stroke="black" cx="719" cy="-601.51" rx="119.08" ry="22"/>
<ellipse fill="none" stroke="black" cx="719" cy="-601.51" rx="123.08" ry="26"/>
<text text-anchor="middle" x="719" y="-597.81" font-family="Times,serif" font-size="14.00">functor_coeq_compose</text>
</a>
</g>
</g>
<!-- Coeq_functor_coeq_compose&#45;&gt;Coeq_functor_coeq_beta_cglue -->
<g id="edge33" class="edge">
<title>Coeq_functor_coeq_compose&#45;&gt;Coeq_functor_coeq_beta_cglue</title>
<path fill="none" stroke="black" d="M797.01,-581.39C895.65,-557.21 1064,-515.95 1158.79,-492.72"/>
<polygon fill="black" stroke="black" points="1159.69,-496.1 1168.57,-490.32 1158.02,-489.3 1159.69,-496.1"/>
</g>
<!-- Coeq_functor_coeq_compose&#45;&gt;Coeq_Coeq_ind -->
<g id="edge34" class="edge">
<title>Coeq_functor_coeq_compose&#45;&gt;Coeq_Coeq_ind</title>
<path fill="none" stroke="black" d="M643.67,-580.82C602.97,-565.93 556.22,-540.93 532,-500.51 520.12,-480.68 520.29,-468.43 532,-448.51 554.85,-409.62 601.82,-386.66 638.63,-374.01"/>
<polygon fill="black" stroke="black" points="639.82,-377.3 648.23,-370.86 637.64,-370.65 639.82,-377.3"/>
</g>
<!-- Coeq_functor_coeq_beta_cglue&#45;&gt;Coeq_functor_coeq -->
<g id="edge35" class="edge">
<title>Coeq_functor_coeq_beta_cglue&#45;&gt;Coeq_functor_coeq</title>
<path fill="none" stroke="black" d="M1242.67,-456.34C1257.69,-437.49 1281.96,-407.02 1299.09,-385.51"/>
<polygon fill="black" stroke="black" points="1302,-387.46 1305.5,-377.46 1296.53,-383.1 1302,-387.46"/>
</g>
<!-- Coeq_functor_coeq_beta_cglue&#45;&gt;Coeq_Coeq_rec_beta_cglue -->
<g id="edge36" class="edge">
<title>Coeq_functor_coeq_beta_cglue&#45;&gt;Coeq_Coeq_rec_beta_cglue</title>
<path fill="none" stroke="black" d="M1213.05,-456.34C1195.37,-437.32 1166.72,-406.48 1146.7,-384.94"/>
<polygon fill="black" stroke="black" points="1149.12,-382.4 1139.75,-377.46 1144,-387.17 1149.12,-382.4"/>
</g>
<!-- Coeq_functor_coeq&#45;&gt;Coeq_Coeq_rec -->
<g id="edge37" class="edge">
<title>Coeq_functor_coeq&#45;&gt;Coeq_Coeq_rec</title>
<path fill="none" stroke="black" d="M1289.38,-343.17C1255.01,-325.36 1198.28,-295.98 1161.02,-276.68"/>
<polygon fill="black" stroke="black" points="1162.48,-273.5 1151.99,-272.01 1159.26,-279.71 1162.48,-273.5"/>
</g>
<!-- Coeq_functor_coeq&#45;&gt;Coeq_cglue -->
<g id="edge38" class="edge">
<title>Coeq_functor_coeq&#45;&gt;Coeq_cglue</title>
<path fill="none" stroke="black" d="M1272.04,-346.12C1196.36,-326.17 1048.68,-287.22 976.99,-268.32"/>
<polygon fill="black" stroke="black" points="977.55,-264.84 966.99,-265.68 975.76,-271.61 977.55,-264.84"/>
</g>
<!-- Coeq_equiv_Coeq_rec -->
<g id="node25" class="node">
<title>Coeq_equiv_Coeq_rec</title>
<g id="a_node25"><a xlink:href="Coeq.html#equiv_Coeq_rec" xlink:title="equiv_Coeq_rec">
<ellipse fill="#f070d1" stroke="black" cx="259" cy="-601.51" rx="83.37" ry="18"/>
<ellipse fill="none" stroke="black" cx="259" cy="-601.51" rx="87.38" ry="22"/>
<ellipse fill="none" stroke="black" cx="259" cy="-601.51" rx="91.39" ry="26"/>
<text text-anchor="middle" x="259" y="-597.81" font-family="Times,serif" font-size="14.00">equiv_Coeq_rec</text>
</a>
</g>
</g>
<!-- Coeq_isequiv_Coeq_rec -->
<g id="node26" class="node">
<title>Coeq_isequiv_Coeq_rec</title>
<g id="a_node26"><a xlink:href="Coeq.html#isequiv_Coeq_rec" xlink:title="isequiv_Coeq_rec">
<ellipse fill="#f070d1" stroke="black" cx="392" cy="-474.51" rx="90.98" ry="18"/>
<text text-anchor="middle" x="392" y="-470.81" font-family="Times,serif" font-size="14.00">isequiv_Coeq_rec</text>
</a>
</g>
</g>
<!-- Coeq_equiv_Coeq_rec&#45;&gt;Coeq_isequiv_Coeq_rec -->
<g id="edge39" class="edge">
<title>Coeq_equiv_Coeq_rec&#45;&gt;Coeq_isequiv_Coeq_rec</title>
<path fill="none" stroke="black" d="M284.64,-576.41C308.24,-554.22 343.05,-521.51 366.58,-499.39"/>
<polygon fill="black" stroke="black" points="369.21,-501.73 374.1,-492.33 364.41,-496.63 369.21,-501.73"/>
</g>
<!-- Coeq_Coeq_unrec -->
<g id="node27" class="node">
<title>Coeq_Coeq_unrec</title>
<g id="a_node27"><a xlink:href="Coeq.html#Coeq_unrec" xlink:title="Coeq_unrec">
<ellipse fill="#f070d1" stroke="black" cx="445" cy="-359.51" rx="64.99" ry="18"/>
<text text-anchor="middle" x="445" y="-355.81" font-family="Times,serif" font-size="14.00">Coeq_unrec</text>
</a>
</g>
</g>
<!-- Coeq_isequiv_Coeq_rec&#45;&gt;Coeq_Coeq_unrec -->
<g id="edge40" class="edge">
<title>Coeq_isequiv_Coeq_rec&#45;&gt;Coeq_Coeq_unrec</title>
<path fill="none" stroke="black" d="M400.05,-456.34C408.74,-437.82 422.68,-408.09 432.74,-386.66"/>
<polygon fill="black" stroke="black" points="435.97,-388 437.05,-377.46 429.63,-385.03 435.97,-388"/>
</g>
<!-- Coeq_isequiv_Coeq_rec&#45;&gt;Coeq_Coeq_rec_beta_cglue -->
<g id="edge41" class="edge">
<title>Coeq_isequiv_Coeq_rec&#45;&gt;Coeq_Coeq_rec_beta_cglue</title>
<path fill="none" stroke="black" d="M456.05,-461.66C479.87,-457.37 507.15,-452.57 532,-448.51 580.71,-440.54 883.24,-395.92 1035.98,-373.45"/>
<polygon fill="black" stroke="black" points="1036.88,-376.85 1046.26,-371.93 1035.86,-369.93 1036.88,-376.85"/>
</g>
<!-- Coeq_isequiv_Coeq_rec&#45;&gt;Coeq_Coeq_ind -->
<g id="edge42" class="edge">
<title>Coeq_isequiv_Coeq_rec&#45;&gt;Coeq_Coeq_ind</title>
<path fill="none" stroke="black" d="M432.19,-458.27C488.06,-437.08 588.8,-398.88 646.42,-377.03"/>
<polygon fill="black" stroke="black" points="647.86,-380.23 655.97,-373.41 645.38,-373.68 647.86,-380.23"/>
</g>
<!-- Coeq_Coeq_unrec&#45;&gt;Coeq_cglue -->
<g id="edge43" class="edge">
<title>Coeq_Coeq_unrec&#45;&gt;Coeq_cglue</title>
<path fill="none" stroke="black" d="M495.7,-348.08C592.78,-328.11 803.3,-284.8 893.54,-266.24"/>
<polygon fill="black" stroke="black" points="894.33,-269.65 903.42,-264.21 892.92,-262.8 894.33,-269.65"/>
</g>
<!-- Coeq_Coeq_ind_hprop -->
<g id="node28" class="node">
<title>Coeq_Coeq_ind_hprop</title>
<g id="a_node28"><a xlink:href="Coeq.html#Coeq_ind_hprop" xlink:title="Coeq_ind_hprop">
<ellipse fill="#f070d1" stroke="black" cx="634" cy="-474.51" rx="85.27" ry="18"/>
<ellipse fill="none" stroke="black" cx="634" cy="-474.51" rx="89.28" ry="22"/>
<ellipse fill="none" stroke="black" cx="634" cy="-474.51" rx="93.29" ry="26"/>
<text text-anchor="middle" x="634" y="-470.81" font-family="Times,serif" font-size="14.00">Coeq_ind_hprop</text>
</a>
</g>
</g>
<!-- Coeq_Coeq_ind_hprop&#45;&gt;Coeq_Coeq_ind -->
<g id="edge44" class="edge">
<title>Coeq_Coeq_ind_hprop&#45;&gt;Coeq_Coeq_ind</title>
<path fill="none" stroke="black" d="M646.29,-448.71C655.39,-430.34 667.77,-405.36 677.03,-386.68"/>
<polygon fill="black" stroke="black" points="680.25,-388.06 681.55,-377.55 673.98,-384.95 680.25,-388.06"/>
</g>
<!-- Coeq_Coeq_rec_beta_cglue&#45;&gt;Coeq_Coeq_rec -->
<g id="edge45" class="edge">
<title>Coeq_Coeq_rec_beta_cglue&#45;&gt;Coeq_Coeq_rec</title>
<path fill="none" stroke="black" d="M1124,-341.37C1124,-325.92 1124,-302.92 1124,-284.92"/>
<polygon fill="black" stroke="black" points="1127.5,-284.72 1124,-274.72 1120.5,-284.72 1127.5,-284.72"/>
</g>
<!-- Coeq_Coeq_rec_beta_cglue&#45;&gt;Coeq_cglue -->
<g id="edge46" class="edge">
<title>Coeq_Coeq_rec_beta_cglue&#45;&gt;Coeq_cglue</title>
<path fill="none" stroke="black" d="M1093.38,-342.05C1058.99,-323.58 1003.43,-293.73 968.35,-274.89"/>
<polygon fill="black" stroke="black" points="969.94,-271.77 959.47,-270.12 966.62,-277.93 969.94,-271.77"/>
</g>
<!-- Coeq_Coeq -->
<g id="node35" class="node">
<title>Coeq_Coeq</title>
<g id="a_node35"><a xlink:href="Coeq.html#Coeq" xlink:title="Coeq">
<ellipse fill="#f070d1" stroke="black" cx="1000" cy="-48.51" rx="34.39" ry="18"/>
<text text-anchor="middle" x="1000" y="-44.81" font-family="Times,serif" font-size="14.00">Coeq</text>
</a>
</g>
</g>
<!-- Coeq_Coeq_rec&#45;&gt;Coeq_Coeq -->
<g id="edge47" class="edge">
<title>Coeq_Coeq_rec&#45;&gt;Coeq_Coeq</title>
<path fill="none" stroke="black" d="M1113.85,-238.65C1092.08,-202.48 1040.79,-117.28 1015.15,-74.68"/>
<polygon fill="black" stroke="black" points="1018.1,-72.78 1009.94,-66.02 1012.1,-76.39 1018.1,-72.78"/>
</g>
<!-- Coeq_Coeq_ind_beta_cglue&#45;&gt;Coeq_Coeq_ind -->
<g id="edge48" class="edge">
<title>Coeq_Coeq_ind_beta_cglue&#45;&gt;Coeq_Coeq_ind</title>
<path fill="none" stroke="black" d="M214.33,-460.04C321.81,-437.55 535.93,-392.75 636.05,-371.8"/>
<polygon fill="black" stroke="black" points="636.88,-375.2 645.95,-369.72 635.45,-368.35 636.88,-375.2"/>
</g>
<!-- Coeq_Coeq_ind&#45;&gt;Coeq_cglue -->
<g id="edge49" class="edge">
<title>Coeq_Coeq_ind&#45;&gt;Coeq_cglue</title>
<path fill="none" stroke="black" d="M722.41,-345.2C768.31,-326.36 851.96,-292.01 899.82,-272.36"/>
<polygon fill="black" stroke="black" points="901.26,-275.55 909.18,-268.52 898.6,-269.08 901.26,-275.55"/>
</g>
<!-- Coeq_coeq -->
<g id="node34" class="node">
<title>Coeq_coeq</title>
<g id="a_node34"><a xlink:href="Coeq.html#coeq" xlink:title="coeq">
<ellipse fill="#f070d1" stroke="black" cx="975" cy="-152.51" rx="32.49" ry="18"/>
<text text-anchor="middle" x="975" y="-148.81" font-family="Times,serif" font-size="14.00">coeq</text>
</a>
</g>
</g>
<!-- Coeq_cglue&#45;&gt;Coeq_coeq -->
<g id="edge50" class="edge">
<title>Coeq_cglue&#45;&gt;Coeq_coeq</title>
<path fill="none" stroke="black" d="M942.44,-238.66C948.57,-222.64 957.87,-198.3 964.97,-179.74"/>
<polygon fill="black" stroke="black" points="968.25,-180.97 968.55,-170.38 961.71,-178.47 968.25,-180.97"/>
</g>
<!-- Coeq_coeq&#45;&gt;Coeq_Coeq -->
<g id="edge51" class="edge">
<title>Coeq_coeq&#45;&gt;Coeq_Coeq</title>
<path fill="none" stroke="black" d="M979.24,-134.2C983.13,-118.36 988.94,-94.65 993.42,-76.35"/>
<polygon fill="black" stroke="black" points="996.84,-77.1 995.82,-66.55 990.04,-75.43 996.84,-77.1"/>
</g>
</g>
</svg>
