<?xml version="1.0" encoding="UTF-8" standalone="no"?>
<!DOCTYPE svg PUBLIC "-//W3C//DTD SVG 1.1//EN"
 "http://www.w3.org/Graphics/SVG/1.1/DTD/svg11.dtd">
<!-- Generated by graphviz version 2.43.0 (0)
 -->
<!-- Title: HoTT_WildCat_EpiStable Pages: 1 -->
<svg width="2703pt" height="1355pt"
 viewBox="0.00 0.00 2703.00 1355.50" xmlns="http://www.w3.org/2000/svg" xmlns:xlink="http://www.w3.org/1999/xlink">
<g id="graph0" class="graph" transform="scale(1 1) rotate(0) translate(4 1351.5)">
<title>HoTT_WildCat_EpiStable</title>
<polygon fill="white" stroke="transparent" points="-4,4 -4,-1351.5 2699,-1351.5 2699,4 -4,4"/>
<g id="clust1" class="cluster">
<title>cluster_EpiStable</title>
<polygon fill="#ffffc3" stroke="black" points="8,-24.33 8,-1323.17 2687,-1323.17 2687,-24.33 8,-24.33"/>
<text text-anchor="middle" x="51" y="-1307.97" font-family="Times,serif" font-size="14.00">EpiStable</text>
</g>
<!-- EpiStable_monic_isabexact_nil_morphism -->
<g id="node1" class="node">
<title>EpiStable_monic_isabexact_nil_morphism</title>
<g id="a_node1"><a xlink:href="EpiStable.html#monic_isabexact_nil_morphism" xlink:title="monic_isabexact_nil_morphism">
<ellipse fill="#f070d1" stroke="black" cx="2191" cy="-882.33" rx="154.07" ry="18"/>
<ellipse fill="none" stroke="black" cx="2191" cy="-882.33" rx="158.07" ry="22"/>
<ellipse fill="none" stroke="black" cx="2191" cy="-882.33" rx="162.07" ry="26"/>
<text text-anchor="middle" x="2191" y="-878.63" font-family="Times,serif" font-size="14.00">monic_isabexact_nil_morphism</text>
</a>
</g>
</g>
<!-- EpiStable_CatIsAbExact -->
<g id="node14" class="node">
<title>EpiStable_CatIsAbExact</title>
<g id="a_node14"><a xlink:href="EpiStable.html#CatIsAbExact" xlink:title="CatIsAbExact">
<ellipse fill="#e2cdfa" stroke="black" cx="2144" cy="-614.33" rx="73.39" ry="18"/>
<text text-anchor="middle" x="2144" y="-610.63" font-family="Times,serif" font-size="14.00">CatIsAbExact</text>
</a>
</g>
</g>
<!-- EpiStable_monic_isabexact_nil_morphism&#45;&gt;EpiStable_CatIsAbExact -->
<g id="edge1" class="edge">
<title>EpiStable_monic_isabexact_nil_morphism&#45;&gt;EpiStable_CatIsAbExact</title>
<path fill="none" stroke="black" d="M2186.58,-856.31C2177.75,-806.32 2157.98,-694.48 2148.83,-642.66"/>
<polygon fill="black" stroke="black" points="2152.23,-641.79 2147.04,-632.55 2145.34,-643.01 2152.23,-641.79"/>
</g>
<!-- EpiStable_monic_via_elt -->
<g id="node24" class="node">
<title>EpiStable_monic_via_elt</title>
<g id="a_node24"><a xlink:href="EpiStable.html#monic_via_elt" xlink:title="monic_via_elt">
<ellipse fill="#f070d1" stroke="black" cx="1994" cy="-346.33" rx="73.39" ry="18"/>
<text text-anchor="middle" x="1994" y="-342.63" font-family="Times,serif" font-size="14.00">monic_via_elt</text>
</a>
</g>
</g>
<!-- EpiStable_monic_isabexact_nil_morphism&#45;&gt;EpiStable_monic_via_elt -->
<g id="edge2" class="edge">
<title>EpiStable_monic_isabexact_nil_morphism&#45;&gt;EpiStable_monic_via_elt</title>
<path fill="none" stroke="black" d="M2226.48,-856.77C2293.7,-807.06 2428.06,-690.56 2372,-588.33 2302.91,-462.34 2136.85,-392.72 2049.64,-363.7"/>
<polygon fill="black" stroke="black" points="2050.51,-360.31 2039.92,-360.53 2048.34,-366.96 2050.51,-360.31"/>
</g>
<!-- EpiStable_isabexact_nil_morphism_monic -->
<g id="node2" class="node">
<title>EpiStable_isabexact_nil_morphism_monic</title>
<g id="a_node2"><a xlink:href="EpiStable.html#isabexact_nil_morphism_monic" xlink:title="isabexact_nil_morphism_monic">
<ellipse fill="#f070d1" stroke="black" cx="549" cy="-882.33" rx="154.07" ry="18"/>
<ellipse fill="none" stroke="black" cx="549" cy="-882.33" rx="158.07" ry="22"/>
<ellipse fill="none" stroke="black" cx="549" cy="-882.33" rx="162.07" ry="26"/>
<text text-anchor="middle" x="549" y="-878.63" font-family="Times,serif" font-size="14.00">isabexact_nil_morphism_monic</text>
</a>
</g>
</g>
<!-- EpiStable_ismonic_ -->
<g id="node4" class="node">
<title>EpiStable_ismonic_</title>
<g id="a_node4"><a xlink:href="EpiStable.html#ismonic'" xlink:title="ismonic&#39;">
<ellipse fill="#f070d1" stroke="black" cx="1504" cy="-614.33" rx="48.99" ry="18"/>
<text text-anchor="middle" x="1504" y="-610.63" font-family="Times,serif" font-size="14.00">ismonic&#39;</text>
</a>
</g>
</g>
<!-- EpiStable_isabexact_nil_morphism_monic&#45;&gt;EpiStable_ismonic_ -->
<g id="edge3" class="edge">
<title>EpiStable_isabexact_nil_morphism_monic&#45;&gt;EpiStable_ismonic_</title>
<path fill="none" stroke="black" d="M642.01,-861.02C806.41,-824.1 1158.15,-740.45 1446,-640.33 1452.4,-638.11 1459.09,-635.5 1465.56,-632.82"/>
<polygon fill="black" stroke="black" points="1466.98,-636.02 1474.82,-628.89 1464.25,-629.58 1466.98,-636.02"/>
</g>
<!-- EpiStable_Build_CatIsAbExact -->
<g id="node13" class="node">
<title>EpiStable_Build_CatIsAbExact</title>
<g id="a_node13"><a xlink:href="EpiStable.html#Build_CatIsAbExact" xlink:title="Build_CatIsAbExact">
<ellipse fill="#7faaff" stroke="black" cx="1950" cy="-614.33" rx="102.88" ry="18"/>
<text text-anchor="middle" x="1950" y="-610.63" font-family="Times,serif" font-size="14.00">Build_CatIsAbExact</text>
</a>
</g>
</g>
<!-- EpiStable_isabexact_nil_morphism_monic&#45;&gt;EpiStable_Build_CatIsAbExact -->
<g id="edge4" class="edge">
<title>EpiStable_isabexact_nil_morphism_monic&#45;&gt;EpiStable_Build_CatIsAbExact</title>
<path fill="none" stroke="black" d="M655.77,-862.67C876.84,-823.73 1400.6,-730.01 1838,-640.33 1851.74,-637.52 1866.4,-634.36 1880.42,-631.26"/>
<polygon fill="black" stroke="black" points="1881.5,-634.6 1890.5,-629.02 1879.98,-627.77 1881.5,-634.6"/>
</g>
<!-- EpiStable_isabexact_nil_morphism_monic&#45;&gt;EpiStable_CatIsAbExact -->
<g id="edge5" class="edge">
<title>EpiStable_isabexact_nil_morphism_monic&#45;&gt;EpiStable_CatIsAbExact</title>
<path fill="none" stroke="black" d="M663.94,-863.96C993.32,-814.05 1925.82,-671.78 2062,-640.33 2071.9,-638.05 2082.35,-635.2 2092.35,-632.26"/>
<polygon fill="black" stroke="black" points="2093.6,-635.54 2102.16,-629.31 2091.58,-628.84 2093.6,-635.54"/>
</g>
<!-- EpiStable_monic_via_elt_isemb_ab -->
<g id="node3" class="node">
<title>EpiStable_monic_via_elt_isemb_ab</title>
<g id="a_node3"><a xlink:href="EpiStable.html#monic_via_elt_isemb_ab" xlink:title="monic_via_elt_isemb_ab">
<ellipse fill="#f070d1" stroke="black" cx="1700" cy="-614.33" rx="120.79" ry="18"/>
<ellipse fill="none" stroke="black" cx="1700" cy="-614.33" rx="124.78" ry="22"/>
<ellipse fill="none" stroke="black" cx="1700" cy="-614.33" rx="128.78" ry="26"/>
<text text-anchor="middle" x="1700" y="-610.63" font-family="Times,serif" font-size="14.00">monic_via_elt_isemb_ab</text>
</a>
</g>
</g>
<!-- EpiStable_IsAbEpiStable -->
<g id="node22" class="node">
<title>EpiStable_IsAbEpiStable</title>
<g id="a_node22"><a xlink:href="EpiStable.html#IsAbEpiStable" xlink:title="IsAbEpiStable">
<ellipse fill="#e2cdfa" stroke="black" cx="1083" cy="-346.33" rx="76.89" ry="18"/>
<text text-anchor="middle" x="1083" y="-342.63" font-family="Times,serif" font-size="14.00">IsAbEpiStable</text>
</a>
</g>
</g>
<!-- EpiStable_monic_via_elt_isemb_ab&#45;&gt;EpiStable_IsAbEpiStable -->
<g id="edge6" class="edge">
<title>EpiStable_monic_via_elt_isemb_ab&#45;&gt;EpiStable_IsAbEpiStable</title>
<path fill="none" stroke="black" d="M1647.13,-590.54C1527.59,-539.01 1238.32,-414.3 1127.35,-366.46"/>
<polygon fill="black" stroke="black" points="1128.68,-363.22 1118.11,-362.47 1125.91,-369.65 1128.68,-363.22"/>
</g>
<!-- EpiStable_monic_via_elt_isemb_ab&#45;&gt;EpiStable_monic_via_elt -->
<g id="edge7" class="edge">
<title>EpiStable_monic_via_elt_isemb_ab&#45;&gt;EpiStable_monic_via_elt</title>
<path fill="none" stroke="black" d="M1727.13,-588.79C1783.5,-537.79 1912.61,-420.98 1967.99,-370.87"/>
<polygon fill="black" stroke="black" points="1970.54,-373.28 1975.61,-363.97 1965.85,-368.09 1970.54,-373.28"/>
</g>
<!-- EpiStable_ismonic_&#45;&gt;EpiStable_IsAbEpiStable -->
<g id="edge8" class="edge">
<title>EpiStable_ismonic_&#45;&gt;EpiStable_IsAbEpiStable</title>
<path fill="none" stroke="black" d="M1480.46,-598.46C1409.87,-553.86 1199.73,-421.09 1117.01,-368.82"/>
<polygon fill="black" stroke="black" points="1118.81,-365.82 1108.48,-363.43 1115.07,-371.74 1118.81,-365.82"/>
</g>
<!-- EpiStable_elt -->
<g id="node29" class="node">
<title>EpiStable_elt</title>
<g id="a_node29"><a xlink:href="EpiStable.html#elt" xlink:title="elt">
<ellipse fill="#f070d1" stroke="black" cx="1994" cy="-103.33" rx="27" ry="18"/>
<text text-anchor="middle" x="1994" y="-99.63" font-family="Times,serif" font-size="14.00">elt</text>
</a>
</g>
</g>
<!-- EpiStable_ismonic_&#45;&gt;EpiStable_elt -->
<g id="edge9" class="edge">
<title>EpiStable_ismonic_&#45;&gt;EpiStable_elt</title>
<path fill="none" stroke="black" d="M1510.39,-596.39C1529.07,-548.51 1587.61,-409.9 1671,-320.33 1760.67,-224.02 1901.22,-149.08 1963.05,-118.85"/>
<polygon fill="black" stroke="black" points="1964.8,-121.89 1972.28,-114.39 1961.75,-115.59 1964.8,-121.89"/>
</g>
<!-- EpiStable_isabexact_nil_morphism_epic -->
<g id="node5" class="node">
<title>EpiStable_isabexact_nil_morphism_epic</title>
<g id="a_node5"><a xlink:href="EpiStable.html#isabexact_nil_morphism_epic" xlink:title="isabexact_nil_morphism_epic">
<ellipse fill="#f070d1" stroke="black" cx="1714" cy="-882.33" rx="145.67" ry="18"/>
<ellipse fill="none" stroke="black" cx="1714" cy="-882.33" rx="149.67" ry="22"/>
<ellipse fill="none" stroke="black" cx="1714" cy="-882.33" rx="153.67" ry="26"/>
<text text-anchor="middle" x="1714" y="-878.63" font-family="Times,serif" font-size="14.00">isabexact_nil_morphism_epic</text>
</a>
</g>
</g>
<!-- EpiStable_isabexact_nil_morphism_epic&#45;&gt;EpiStable_Build_CatIsAbExact -->
<g id="edge10" class="edge">
<title>EpiStable_isabexact_nil_morphism_epic&#45;&gt;EpiStable_Build_CatIsAbExact</title>
<path fill="none" stroke="black" d="M1736.2,-856.31C1781.4,-805.36 1883.61,-690.16 1928.34,-639.74"/>
<polygon fill="black" stroke="black" points="1931,-642.03 1935.01,-632.23 1925.76,-637.38 1931,-642.03"/>
</g>
<!-- EpiStable_isabexact_nil_morphism_epic&#45;&gt;EpiStable_CatIsAbExact -->
<g id="edge11" class="edge">
<title>EpiStable_isabexact_nil_morphism_epic&#45;&gt;EpiStable_CatIsAbExact</title>
<path fill="none" stroke="black" d="M1753.3,-857.02C1836.75,-805.4 2030.44,-685.58 2109.48,-636.69"/>
<polygon fill="black" stroke="black" points="2111.43,-639.6 2118.09,-631.36 2107.75,-633.65 2111.43,-639.6"/>
</g>
<!-- EpiStable_elt_lift_epic -->
<g id="node25" class="node">
<title>EpiStable_elt_lift_epic</title>
<g id="a_node25"><a xlink:href="EpiStable.html#elt_lift_epic" xlink:title="elt_lift_epic">
<ellipse fill="#f070d1" stroke="black" cx="2299" cy="-614.33" rx="63.89" ry="18"/>
<text text-anchor="middle" x="2299" y="-610.63" font-family="Times,serif" font-size="14.00">elt_lift_epic</text>
</a>
</g>
</g>
<!-- EpiStable_isabexact_nil_morphism_epic&#45;&gt;EpiStable_elt_lift_epic -->
<g id="edge12" class="edge">
<title>EpiStable_isabexact_nil_morphism_epic&#45;&gt;EpiStable_elt_lift_epic</title>
<path fill="none" stroke="black" d="M1765.66,-857.85C1880.19,-805.77 2153.54,-681.48 2257.71,-634.11"/>
<polygon fill="black" stroke="black" points="2259.31,-637.23 2266.96,-629.9 2256.41,-630.85 2259.31,-637.23"/>
</g>
<!-- EpiStable_epic_isabexact_nil_morphism -->
<g id="node6" class="node">
<title>EpiStable_epic_isabexact_nil_morphism</title>
<g id="a_node6"><a xlink:href="EpiStable.html#epic_isabexact_nil_morphism" xlink:title="epic_isabexact_nil_morphism">
<ellipse fill="#f070d1" stroke="black" cx="2525" cy="-882.33" rx="145.67" ry="18"/>
<ellipse fill="none" stroke="black" cx="2525" cy="-882.33" rx="149.67" ry="22"/>
<ellipse fill="none" stroke="black" cx="2525" cy="-882.33" rx="153.67" ry="26"/>
<text text-anchor="middle" x="2525" y="-878.63" font-family="Times,serif" font-size="14.00">epic_isabexact_nil_morphism</text>
</a>
</g>
</g>
<!-- EpiStable_epic_isabexact_nil_morphism&#45;&gt;EpiStable_CatIsAbExact -->
<g id="edge13" class="edge">
<title>EpiStable_epic_isabexact_nil_morphism&#45;&gt;EpiStable_CatIsAbExact</title>
<path fill="none" stroke="black" d="M2489.84,-856.79C2416.17,-805.35 2246.61,-686.97 2175.88,-637.59"/>
<polygon fill="black" stroke="black" points="2177.57,-634.5 2167.37,-631.65 2173.56,-640.24 2177.57,-634.5"/>
</g>
<!-- EpiStable_epic_elt_lift -->
<g id="node27" class="node">
<title>EpiStable_epic_elt_lift</title>
<g id="a_node27"><a xlink:href="EpiStable.html#epic_elt_lift" xlink:title="epic_elt_lift">
<ellipse fill="#f070d1" stroke="black" cx="2615" cy="-614.33" rx="63.89" ry="18"/>
<text text-anchor="middle" x="2615" y="-610.63" font-family="Times,serif" font-size="14.00">epic_elt_lift</text>
</a>
</g>
</g>
<!-- EpiStable_epic_isabexact_nil_morphism&#45;&gt;EpiStable_epic_elt_lift -->
<g id="edge14" class="edge">
<title>EpiStable_epic_isabexact_nil_morphism&#45;&gt;EpiStable_epic_elt_lift</title>
<path fill="none" stroke="black" d="M2533.47,-856.31C2550.42,-806.22 2588.38,-694.01 2605.86,-642.33"/>
<polygon fill="black" stroke="black" points="2609.28,-643.15 2609.17,-632.55 2602.65,-640.91 2609.28,-643.15"/>
</g>
<!-- EpiStable_isabexact -->
<g id="node7" class="node">
<title>EpiStable_isabexact</title>
<g id="a_node7"><a xlink:href="EpiStable.html#isabexact" xlink:title="isabexact">
<ellipse fill="#f070d1" stroke="black" cx="1948" cy="-882.33" rx="54.68" ry="18"/>
<ellipse fill="none" stroke="black" cx="1948" cy="-882.33" rx="58.68" ry="22"/>
<ellipse fill="none" stroke="black" cx="1948" cy="-882.33" rx="62.69" ry="26"/>
<text text-anchor="middle" x="1948" y="-878.63" font-family="Times,serif" font-size="14.00">isabexact</text>
</a>
</g>
</g>
<!-- EpiStable_isabexact&#45;&gt;EpiStable_CatIsAbExact -->
<g id="edge15" class="edge">
<title>EpiStable_isabexact&#45;&gt;EpiStable_CatIsAbExact</title>
<path fill="none" stroke="black" d="M1965.74,-857.26C2002.71,-807.09 2087.68,-691.77 2125.39,-640.59"/>
<polygon fill="black" stroke="black" points="2128.33,-642.51 2131.44,-632.38 2122.69,-638.35 2128.33,-642.51"/>
</g>
<!-- EpiStable_isabcomplex -->
<g id="node8" class="node">
<title>EpiStable_isabcomplex</title>
<g id="a_node8"><a xlink:href="EpiStable.html#isabcomplex" xlink:title="isabcomplex">
<ellipse fill="#f070d1" stroke="black" cx="1466" cy="-882.33" rx="68.46" ry="18"/>
<ellipse fill="none" stroke="black" cx="1466" cy="-882.33" rx="72.48" ry="22"/>
<ellipse fill="none" stroke="black" cx="1466" cy="-882.33" rx="76.49" ry="26"/>
<text text-anchor="middle" x="1466" y="-878.63" font-family="Times,serif" font-size="14.00">isabcomplex</text>
</a>
</g>
</g>
<!-- EpiStable_isabcomplex&#45;&gt;EpiStable_CatIsAbExact -->
<g id="edge16" class="edge">
<title>EpiStable_isabcomplex&#45;&gt;EpiStable_CatIsAbExact</title>
<path fill="none" stroke="black" d="M1514.76,-862.2C1640.4,-812.91 1973.96,-682.05 2097.3,-633.66"/>
<polygon fill="black" stroke="black" points="2098.82,-636.82 2106.85,-629.91 2096.26,-630.3 2098.82,-636.82"/>
</g>
<!-- EpiStable_CatIsAbExact_sind -->
<g id="node9" class="node">
<title>EpiStable_CatIsAbExact_sind</title>
<g id="a_node9"><a xlink:href="EpiStable.html#CatIsAbExact_sind" xlink:title="CatIsAbExact_sind">
<ellipse fill="#f070d1" stroke="black" cx="1266" cy="-882.33" rx="97.48" ry="18"/>
<ellipse fill="none" stroke="black" cx="1266" cy="-882.33" rx="101.48" ry="22"/>
<ellipse fill="none" stroke="black" cx="1266" cy="-882.33" rx="105.48" ry="26"/>
<text text-anchor="middle" x="1266" y="-878.63" font-family="Times,serif" font-size="14.00">CatIsAbExact_sind</text>
</a>
</g>
</g>
<!-- EpiStable_CatIsAbExact_sind&#45;&gt;EpiStable_Build_CatIsAbExact -->
<g id="edge17" class="edge">
<title>EpiStable_CatIsAbExact_sind&#45;&gt;EpiStable_Build_CatIsAbExact</title>
<path fill="none" stroke="black" d="M1320.82,-860.02C1450.74,-809.49 1775.79,-683.08 1900.35,-634.64"/>
<polygon fill="black" stroke="black" points="1901.62,-637.9 1909.67,-631.02 1899.08,-631.38 1901.62,-637.9"/>
</g>
<!-- EpiStable_CatIsAbExact_sind&#45;&gt;EpiStable_CatIsAbExact -->
<g id="edge18" class="edge">
<title>EpiStable_CatIsAbExact_sind&#45;&gt;EpiStable_CatIsAbExact</title>
<path fill="none" stroke="black" d="M1330.76,-861.77C1466.41,-820.79 1790.35,-722.87 2062,-640.33 2071.09,-637.57 2080.74,-634.63 2090.12,-631.78"/>
<polygon fill="black" stroke="black" points="2091.2,-635.11 2099.75,-628.84 2089.16,-628.41 2091.2,-635.11"/>
</g>
<!-- EpiStable_CatIsAbExact_rec -->
<g id="node10" class="node">
<title>EpiStable_CatIsAbExact_rec</title>
<g id="a_node10"><a xlink:href="EpiStable.html#CatIsAbExact_rec" xlink:title="CatIsAbExact_rec">
<ellipse fill="#f070d1" stroke="black" cx="1046" cy="-1149.33" rx="92.89" ry="18"/>
<ellipse fill="none" stroke="black" cx="1046" cy="-1149.33" rx="96.89" ry="22"/>
<ellipse fill="none" stroke="black" cx="1046" cy="-1149.33" rx="100.88" ry="26"/>
<text text-anchor="middle" x="1046" y="-1145.63" font-family="Times,serif" font-size="14.00">CatIsAbExact_rec</text>
</a>
</g>
</g>
<!-- EpiStable_CatIsAbExact_rect -->
<g id="node12" class="node">
<title>EpiStable_CatIsAbExact_rect</title>
<g id="a_node12"><a xlink:href="EpiStable.html#CatIsAbExact_rect" xlink:title="CatIsAbExact_rect">
<ellipse fill="#f070d1" stroke="black" cx="1046" cy="-882.33" rx="96.68" ry="18"/>
<text text-anchor="middle" x="1046" y="-878.63" font-family="Times,serif" font-size="14.00">CatIsAbExact_rect</text>
</a>
</g>
</g>
<!-- EpiStable_CatIsAbExact_rec&#45;&gt;EpiStable_CatIsAbExact_rect -->
<g id="edge19" class="edge">
<title>EpiStable_CatIsAbExact_rec&#45;&gt;EpiStable_CatIsAbExact_rect</title>
<path fill="none" stroke="black" d="M1046,-1122.92C1046,-1072.85 1046,-961.84 1046,-910.43"/>
<polygon fill="black" stroke="black" points="1049.5,-910.41 1046,-900.41 1042.5,-910.41 1049.5,-910.41"/>
</g>
<!-- EpiStable_CatIsAbExact_ind -->
<g id="node11" class="node">
<title>EpiStable_CatIsAbExact_ind</title>
<g id="a_node11"><a xlink:href="EpiStable.html#CatIsAbExact_ind" xlink:title="CatIsAbExact_ind">
<ellipse fill="#7fffd4" stroke="black" cx="830" cy="-882.33" rx="92.89" ry="18"/>
<ellipse fill="none" stroke="black" cx="830" cy="-882.33" rx="96.89" ry="22"/>
<ellipse fill="none" stroke="black" cx="830" cy="-882.33" rx="100.88" ry="26"/>
<text text-anchor="middle" x="830" y="-878.63" font-family="Times,serif" font-size="14.00">CatIsAbExact_ind</text>
</a>
</g>
</g>
<!-- EpiStable_CatIsAbExact_ind&#45;&gt;EpiStable_Build_CatIsAbExact -->
<g id="edge20" class="edge">
<title>EpiStable_CatIsAbExact_ind&#45;&gt;EpiStable_Build_CatIsAbExact</title>
<path fill="none" stroke="black" d="M902.62,-864.09C1106.66,-815.63 1683.13,-678.72 1881.75,-631.54"/>
<polygon fill="black" stroke="black" points="1882.84,-634.88 1891.76,-629.17 1881.22,-628.07 1882.84,-634.88"/>
</g>
<!-- EpiStable_CatIsAbExact_ind&#45;&gt;EpiStable_CatIsAbExact -->
<g id="edge21" class="edge">
<title>EpiStable_CatIsAbExact_ind&#45;&gt;EpiStable_CatIsAbExact</title>
<path fill="none" stroke="black" d="M903.3,-864.32C915.54,-861.58 928.12,-858.83 940,-856.33 1437,-752.05 1569.1,-762.55 2062,-640.33 2071.75,-637.92 2082.06,-635.04 2091.96,-632.1"/>
<polygon fill="black" stroke="black" points="2093.12,-635.41 2101.68,-629.17 2091.09,-628.71 2093.12,-635.41"/>
</g>
<!-- EpiStable_CatIsAbExact_rect&#45;&gt;EpiStable_Build_CatIsAbExact -->
<g id="edge22" class="edge">
<title>EpiStable_CatIsAbExact_rect&#45;&gt;EpiStable_Build_CatIsAbExact</title>
<path fill="none" stroke="black" d="M1095.57,-866.75C1250.09,-821.28 1722.68,-682.22 1890.28,-632.91"/>
<polygon fill="black" stroke="black" points="1891.33,-636.25 1899.93,-630.07 1889.35,-629.53 1891.33,-636.25"/>
</g>
<!-- EpiStable_CatIsAbExact_rect&#45;&gt;EpiStable_CatIsAbExact -->
<g id="edge23" class="edge">
<title>EpiStable_CatIsAbExact_rect&#45;&gt;EpiStable_CatIsAbExact</title>
<path fill="none" stroke="black" d="M1103.48,-867.75C1314.85,-817.8 2038.1,-646.8 2062,-640.33 2071.38,-637.79 2081.32,-634.92 2090.91,-632.05"/>
<polygon fill="black" stroke="black" points="2092.18,-635.33 2100.74,-629.08 2090.16,-628.62 2092.18,-635.33"/>
</g>
<!-- EpiStable_Build_CatIsAbExact&#45;&gt;EpiStable_IsAbEpiStable -->
<g id="edge24" class="edge">
<title>EpiStable_Build_CatIsAbExact&#45;&gt;EpiStable_IsAbEpiStable</title>
<path fill="none" stroke="black" d="M1901.53,-598.46C1751.57,-552.45 1295.78,-412.62 1137.69,-364.11"/>
<polygon fill="black" stroke="black" points="1138.31,-360.64 1127.72,-361.05 1136.25,-367.33 1138.31,-360.64"/>
</g>
<!-- EpiStable_Lift -->
<g id="node28" class="node">
<title>EpiStable_Lift</title>
<g id="a_node28"><a xlink:href="EpiStable.html#Lift" xlink:title="Lift">
<ellipse fill="#f070d1" stroke="black" cx="2221" cy="-346.33" rx="27" ry="18"/>
<text text-anchor="middle" x="2221" y="-342.63" font-family="Times,serif" font-size="14.00">Lift</text>
</a>
</g>
</g>
<!-- EpiStable_Build_CatIsAbExact&#45;&gt;EpiStable_Lift -->
<g id="edge25" class="edge">
<title>EpiStable_Build_CatIsAbExact&#45;&gt;EpiStable_Lift</title>
<path fill="none" stroke="black" d="M1967.36,-596.29C2014.81,-549.72 2146.59,-420.37 2199.04,-368.88"/>
<polygon fill="black" stroke="black" points="2201.79,-371.09 2206.47,-361.59 2196.89,-366.1 2201.79,-371.09"/>
</g>
<!-- EpiStable_CatIsAbExact&#45;&gt;EpiStable_IsAbEpiStable -->
<g id="edge26" class="edge">
<title>EpiStable_CatIsAbExact&#45;&gt;EpiStable_IsAbEpiStable</title>
<path fill="none" stroke="black" d="M2100.73,-599.62C2088.27,-595.82 2074.63,-591.78 2062,-588.33 1668.09,-480.75 1563.6,-477.35 1169,-372.33 1158.98,-369.67 1148.34,-366.69 1138.09,-363.75"/>
<polygon fill="black" stroke="black" points="1139,-360.37 1128.42,-360.96 1137.05,-367.1 1139,-360.37"/>
</g>
<!-- EpiStable_CatIsAbExact&#45;&gt;EpiStable_Lift -->
<g id="edge27" class="edge">
<title>EpiStable_CatIsAbExact&#45;&gt;EpiStable_Lift</title>
<path fill="none" stroke="black" d="M2148.93,-596.29C2162,-551.15 2197.57,-428.27 2213.32,-373.86"/>
<polygon fill="black" stroke="black" points="2216.69,-374.82 2216.11,-364.24 2209.96,-372.87 2216.69,-374.82"/>
</g>
<!-- EpiStable_isabenriched_abepistable -->
<g id="node15" class="node">
<title>EpiStable_isabenriched_abepistable</title>
<g id="a_node15"><a xlink:href="EpiStable.html#isabenriched_abepistable" xlink:title="isabenriched_abepistable">
<ellipse fill="#f070d1" stroke="black" cx="1029" cy="-614.33" rx="128.08" ry="18"/>
<ellipse fill="none" stroke="black" cx="1029" cy="-614.33" rx="132.08" ry="22"/>
<ellipse fill="none" stroke="black" cx="1029" cy="-614.33" rx="136.08" ry="26"/>
<text text-anchor="middle" x="1029" y="-610.63" font-family="Times,serif" font-size="14.00">isabenriched_abepistable</text>
</a>
</g>
</g>
<!-- EpiStable_isabenriched_abepistable&#45;&gt;EpiStable_IsAbEpiStable -->
<g id="edge28" class="edge">
<title>EpiStable_isabenriched_abepistable&#45;&gt;EpiStable_IsAbEpiStable</title>
<path fill="none" stroke="black" d="M1034.08,-588.31C1044.23,-538.32 1066.93,-426.48 1077.45,-374.66"/>
<polygon fill="black" stroke="black" points="1080.94,-375.05 1079.5,-364.55 1074.08,-373.66 1080.94,-375.05"/>
</g>
<!-- EpiStable_isepistable_abepistable -->
<g id="node16" class="node">
<title>EpiStable_isepistable_abepistable</title>
<g id="a_node16"><a xlink:href="EpiStable.html#isepistable_abepistable" xlink:title="isepistable_abepistable">
<ellipse fill="#f070d1" stroke="black" cx="1310" cy="-614.33" rx="118.88" ry="18"/>
<ellipse fill="none" stroke="black" cx="1310" cy="-614.33" rx="122.88" ry="22"/>
<ellipse fill="none" stroke="black" cx="1310" cy="-614.33" rx="126.88" ry="26"/>
<text text-anchor="middle" x="1310" y="-610.63" font-family="Times,serif" font-size="14.00">isepistable_abepistable</text>
</a>
</g>
</g>
<!-- EpiStable_isepistable_abepistable&#45;&gt;EpiStable_IsAbEpiStable -->
<g id="edge29" class="edge">
<title>EpiStable_isepistable_abepistable&#45;&gt;EpiStable_IsAbEpiStable</title>
<path fill="none" stroke="black" d="M1288.64,-588.31C1245.26,-537.47 1147.26,-422.64 1104.1,-372.05"/>
<polygon fill="black" stroke="black" points="1106.57,-369.56 1097.41,-364.23 1101.24,-374.1 1106.57,-369.56"/>
</g>
<!-- EpiStable_IsAbEpiStable_sind -->
<g id="node17" class="node">
<title>EpiStable_IsAbEpiStable_sind</title>
<g id="a_node17"><a xlink:href="EpiStable.html#IsAbEpiStable_sind" xlink:title="IsAbEpiStable_sind">
<ellipse fill="#f070d1" stroke="black" cx="325" cy="-614.33" rx="100.96" ry="18"/>
<ellipse fill="none" stroke="black" cx="325" cy="-614.33" rx="104.97" ry="22"/>
<ellipse fill="none" stroke="black" cx="325" cy="-614.33" rx="108.98" ry="26"/>
<text text-anchor="middle" x="325" y="-610.63" font-family="Times,serif" font-size="14.00">IsAbEpiStable_sind</text>
</a>
</g>
</g>
<!-- EpiStable_Build_IsAbEpiStable -->
<g id="node21" class="node">
<title>EpiStable_Build_IsAbEpiStable</title>
<g id="a_node21"><a xlink:href="EpiStable.html#Build_IsAbEpiStable" xlink:title="Build_IsAbEpiStable">
<ellipse fill="#7faaff" stroke="black" cx="883" cy="-346.33" rx="105.08" ry="18"/>
<text text-anchor="middle" x="883" y="-342.63" font-family="Times,serif" font-size="14.00">Build_IsAbEpiStable</text>
</a>
</g>
</g>
<!-- EpiStable_IsAbEpiStable_sind&#45;&gt;EpiStable_Build_IsAbEpiStable -->
<g id="edge30" class="edge">
<title>EpiStable_IsAbEpiStable_sind&#45;&gt;EpiStable_Build_IsAbEpiStable</title>
<path fill="none" stroke="black" d="M372.09,-590.88C478.72,-540.05 737.31,-416.79 839.96,-367.85"/>
<polygon fill="black" stroke="black" points="841.59,-370.95 849.11,-363.49 838.58,-364.63 841.59,-370.95"/>
</g>
<!-- EpiStable_IsAbEpiStable_sind&#45;&gt;EpiStable_IsAbEpiStable -->
<g id="edge31" class="edge">
<title>EpiStable_IsAbEpiStable_sind&#45;&gt;EpiStable_IsAbEpiStable</title>
<path fill="none" stroke="black" d="M384.48,-592.46C529.19,-541.68 897.61,-412.39 1032.51,-365.05"/>
<polygon fill="black" stroke="black" points="1033.92,-368.27 1042.2,-361.65 1031.6,-361.66 1033.92,-368.27"/>
</g>
<!-- EpiStable_IsAbEpiStable_rec -->
<g id="node18" class="node">
<title>EpiStable_IsAbEpiStable_rec</title>
<g id="a_node18"><a xlink:href="EpiStable.html#IsAbEpiStable_rec" xlink:title="IsAbEpiStable_rec">
<ellipse fill="#f070d1" stroke="black" cx="265" cy="-882.33" rx="95.58" ry="18"/>
<ellipse fill="none" stroke="black" cx="265" cy="-882.33" rx="99.58" ry="22"/>
<ellipse fill="none" stroke="black" cx="265" cy="-882.33" rx="103.58" ry="26"/>
<text text-anchor="middle" x="265" y="-878.63" font-family="Times,serif" font-size="14.00">IsAbEpiStable_rec</text>
</a>
</g>
</g>
<!-- EpiStable_IsAbEpiStable_rect -->
<g id="node20" class="node">
<title>EpiStable_IsAbEpiStable_rect</title>
<g id="a_node20"><a xlink:href="EpiStable.html#IsAbEpiStable_rect" xlink:title="IsAbEpiStable_rect">
<ellipse fill="#f070d1" stroke="black" cx="776" cy="-614.33" rx="99.38" ry="18"/>
<text text-anchor="middle" x="776" y="-610.63" font-family="Times,serif" font-size="14.00">IsAbEpiStable_rect</text>
</a>
</g>
</g>
<!-- EpiStable_IsAbEpiStable_rec&#45;&gt;EpiStable_IsAbEpiStable_rect -->
<g id="edge32" class="edge">
<title>EpiStable_IsAbEpiStable_rec&#45;&gt;EpiStable_IsAbEpiStable_rect</title>
<path fill="none" stroke="black" d="M308.57,-858.66C406.32,-807.77 641.91,-685.13 736.1,-636.1"/>
<polygon fill="black" stroke="black" points="737.78,-639.18 745.03,-631.45 734.55,-632.97 737.78,-639.18"/>
</g>
<!-- EpiStable_IsAbEpiStable_ind -->
<g id="node19" class="node">
<title>EpiStable_IsAbEpiStable_ind</title>
<g id="a_node19"><a xlink:href="EpiStable.html#IsAbEpiStable_ind" xlink:title="IsAbEpiStable_ind">
<ellipse fill="#7fffd4" stroke="black" cx="555" cy="-614.33" rx="95.58" ry="18"/>
<ellipse fill="none" stroke="black" cx="555" cy="-614.33" rx="99.58" ry="22"/>
<ellipse fill="none" stroke="black" cx="555" cy="-614.33" rx="103.58" ry="26"/>
<text text-anchor="middle" x="555" y="-610.63" font-family="Times,serif" font-size="14.00">IsAbEpiStable_ind</text>
</a>
</g>
</g>
<!-- EpiStable_IsAbEpiStable_ind&#45;&gt;EpiStable_Build_IsAbEpiStable -->
<g id="edge33" class="edge">
<title>EpiStable_IsAbEpiStable_ind&#45;&gt;EpiStable_Build_IsAbEpiStable</title>
<path fill="none" stroke="black" d="M584.69,-589.26C647.47,-538.34 792.99,-420.33 854.61,-370.36"/>
<polygon fill="black" stroke="black" points="856.83,-373.07 862.39,-364.05 852.42,-367.63 856.83,-373.07"/>
</g>
<!-- EpiStable_IsAbEpiStable_ind&#45;&gt;EpiStable_IsAbEpiStable -->
<g id="edge34" class="edge">
<title>EpiStable_IsAbEpiStable_ind&#45;&gt;EpiStable_IsAbEpiStable</title>
<path fill="none" stroke="black" d="M600.02,-590.66C701.38,-539.59 946.2,-416.25 1042.82,-367.58"/>
<polygon fill="black" stroke="black" points="1044.61,-370.59 1051.97,-362.97 1041.46,-364.34 1044.61,-370.59"/>
</g>
<!-- EpiStable_IsAbEpiStable_rect&#45;&gt;EpiStable_Build_IsAbEpiStable -->
<g id="edge35" class="edge">
<title>EpiStable_IsAbEpiStable_rect&#45;&gt;EpiStable_Build_IsAbEpiStable</title>
<path fill="none" stroke="black" d="M782.86,-596.29C801.01,-551.17 850.41,-428.35 872.31,-373.91"/>
<polygon fill="black" stroke="black" points="875.58,-375.16 876.06,-364.58 869.08,-372.55 875.58,-375.16"/>
</g>
<!-- EpiStable_IsAbEpiStable_rect&#45;&gt;EpiStable_IsAbEpiStable -->
<g id="edge36" class="edge">
<title>EpiStable_IsAbEpiStable_rect&#45;&gt;EpiStable_IsAbEpiStable</title>
<path fill="none" stroke="black" d="M795.67,-596.29C848.87,-550.2 995.63,-423.04 1056.26,-370.51"/>
<polygon fill="black" stroke="black" points="1058.62,-373.09 1063.89,-363.9 1054.04,-367.8 1058.62,-373.09"/>
</g>
<!-- EpiStable_IsEpiStable -->
<g id="node37" class="node">
<title>EpiStable_IsEpiStable</title>
<g id="a_node37"><a xlink:href="EpiStable.html#IsEpiStable" xlink:title="IsEpiStable">
<ellipse fill="#e2cdfa" stroke="black" cx="786" cy="-103.33" rx="64.19" ry="18"/>
<text text-anchor="middle" x="786" y="-99.63" font-family="Times,serif" font-size="14.00">IsEpiStable</text>
</a>
</g>
</g>
<!-- EpiStable_Build_IsAbEpiStable&#45;&gt;EpiStable_IsEpiStable -->
<g id="edge37" class="edge">
<title>EpiStable_Build_IsAbEpiStable&#45;&gt;EpiStable_IsEpiStable</title>
<path fill="none" stroke="black" d="M876.02,-328C859.28,-286.4 816.73,-180.67 796.71,-130.95"/>
<polygon fill="black" stroke="black" points="799.89,-129.48 792.91,-121.51 793.4,-132.09 799.89,-129.48"/>
</g>
<!-- EpiStable_IsAbEpiStable&#45;&gt;EpiStable_IsEpiStable -->
<g id="edge38" class="edge">
<title>EpiStable_IsAbEpiStable&#45;&gt;EpiStable_IsEpiStable</title>
<path fill="none" stroke="black" d="M1062.59,-328.77C1010.64,-286.62 873.37,-175.23 814.01,-127.06"/>
<polygon fill="black" stroke="black" points="816.13,-124.28 806.16,-120.7 811.72,-129.72 816.13,-124.28"/>
</g>
<!-- EpiStable_lift_helper -->
<g id="node23" class="node">
<title>EpiStable_lift_helper</title>
<g id="a_node23"><a xlink:href="EpiStable.html#lift_helper" xlink:title="lift_helper">
<ellipse fill="#f070d1" stroke="black" cx="2467" cy="-614.33" rx="57.71" ry="18"/>
<ellipse fill="none" stroke="black" cx="2467" cy="-614.33" rx="61.7" ry="22"/>
<ellipse fill="none" stroke="black" cx="2467" cy="-614.33" rx="65.69" ry="26"/>
<text text-anchor="middle" x="2467" y="-610.63" font-family="Times,serif" font-size="14.00">lift_helper</text>
</a>
</g>
</g>
<!-- EpiStable_lift_helper&#45;&gt;EpiStable_Lift -->
<g id="edge39" class="edge">
<title>EpiStable_lift_helper&#45;&gt;EpiStable_Lift</title>
<path fill="none" stroke="black" d="M2445.17,-589.73C2398.07,-538.8 2287.45,-419.19 2241.54,-369.54"/>
<polygon fill="black" stroke="black" points="2244.1,-367.16 2234.74,-362.2 2238.96,-371.91 2244.1,-367.16"/>
</g>
<!-- EpiStable_monic_via_elt&#45;&gt;EpiStable_elt -->
<g id="edge40" class="edge">
<title>EpiStable_monic_via_elt&#45;&gt;EpiStable_elt</title>
<path fill="none" stroke="black" d="M1994,-328C1994,-286.58 1994,-181.56 1994,-131.58"/>
<polygon fill="black" stroke="black" points="1997.5,-131.51 1994,-121.51 1990.5,-131.51 1997.5,-131.51"/>
</g>
<!-- EpiStable_cat_pb_pr2_epi -->
<g id="node26" class="node">
<title>EpiStable_cat_pb_pr2_epi</title>
<g id="a_node26"><a xlink:href="EpiStable.html#cat_pb_pr2_epi" xlink:title="cat_pb_pr2_epi">
<ellipse fill="#f070d1" stroke="black" cx="1760" cy="-346.33" rx="79.89" ry="18"/>
<text text-anchor="middle" x="1760" y="-342.63" font-family="Times,serif" font-size="14.00">cat_pb_pr2_epi</text>
</a>
</g>
</g>
<!-- EpiStable_elt_lift_epic&#45;&gt;EpiStable_cat_pb_pr2_epi -->
<g id="edge41" class="edge">
<title>EpiStable_elt_lift_epic&#45;&gt;EpiStable_cat_pb_pr2_epi</title>
<path fill="none" stroke="black" d="M2268.87,-598.46C2177.71,-553.48 1904.79,-418.79 1800.83,-367.48"/>
<polygon fill="black" stroke="black" points="1802.12,-364.22 1791.6,-362.93 1799.02,-370.49 1802.12,-364.22"/>
</g>
<!-- EpiStable_elt_lift_epic&#45;&gt;EpiStable_Lift -->
<g id="edge42" class="edge">
<title>EpiStable_elt_lift_epic&#45;&gt;EpiStable_Lift</title>
<path fill="none" stroke="black" d="M2294,-596.29C2280.77,-551.15 2244.73,-428.27 2228.78,-373.86"/>
<polygon fill="black" stroke="black" points="2232.13,-372.85 2225.96,-364.24 2225.41,-374.82 2232.13,-372.85"/>
</g>
<!-- EpiStable_cat_pb_pr2_epi&#45;&gt;EpiStable_IsEpiStable -->
<g id="edge43" class="edge">
<title>EpiStable_cat_pb_pr2_epi&#45;&gt;EpiStable_IsEpiStable</title>
<path fill="none" stroke="black" d="M1708.32,-332.55C1541.18,-291.19 1016.01,-161.25 842.36,-118.28"/>
<polygon fill="black" stroke="black" points="843.2,-114.88 832.65,-115.88 841.52,-121.68 843.2,-114.88"/>
</g>
<!-- EpiStable_epic_elt_lift&#45;&gt;EpiStable_Lift -->
<g id="edge44" class="edge">
<title>EpiStable_epic_elt_lift&#45;&gt;EpiStable_Lift</title>
<path fill="none" stroke="black" d="M2591.53,-597.49C2522.74,-551.05 2321.82,-415.4 2248.33,-365.78"/>
<polygon fill="black" stroke="black" points="2249.87,-362.6 2239.62,-359.9 2245.95,-368.4 2249.87,-362.6"/>
</g>
<!-- EpiStable_Lift&#45;&gt;EpiStable_elt -->
<g id="edge45" class="edge">
<title>EpiStable_Lift&#45;&gt;EpiStable_elt</title>
<path fill="none" stroke="black" d="M2207.14,-330.62C2168.66,-289.77 2060.34,-174.77 2014.69,-126.31"/>
<polygon fill="black" stroke="black" points="2017.08,-123.73 2007.68,-118.85 2011.99,-128.53 2017.08,-123.73"/>
</g>
<!-- EpiStable_stable_epic -->
<g id="node30" class="node">
<title>EpiStable_stable_epic</title>
<g id="a_node30"><a xlink:href="EpiStable.html#stable_epic" xlink:title="stable_epic">
<ellipse fill="#f070d1" stroke="black" cx="689" cy="-346.33" rx="62.3" ry="18"/>
<ellipse fill="none" stroke="black" cx="689" cy="-346.33" rx="66.3" ry="22"/>
<ellipse fill="none" stroke="black" cx="689" cy="-346.33" rx="70.29" ry="26"/>
<text text-anchor="middle" x="689" y="-342.63" font-family="Times,serif" font-size="14.00">stable_epic</text>
</a>
</g>
</g>
<!-- EpiStable_stable_epic&#45;&gt;EpiStable_IsEpiStable -->
<g id="edge46" class="edge">
<title>EpiStable_stable_epic&#45;&gt;EpiStable_IsEpiStable</title>
<path fill="none" stroke="black" d="M699.02,-320.45C717.41,-274.74 756.44,-177.78 775.32,-130.87"/>
<polygon fill="black" stroke="black" points="778.65,-131.97 779.14,-121.39 772.15,-129.36 778.65,-131.97"/>
</g>
<!-- EpiStable_haspullbacks -->
<g id="node31" class="node">
<title>EpiStable_haspullbacks</title>
<g id="a_node31"><a xlink:href="EpiStable.html#haspullbacks" xlink:title="haspullbacks">
<ellipse fill="#f070d1" stroke="black" cx="1257" cy="-346.33" rx="70.7" ry="18"/>
<ellipse fill="none" stroke="black" cx="1257" cy="-346.33" rx="74.7" ry="22"/>
<ellipse fill="none" stroke="black" cx="1257" cy="-346.33" rx="78.69" ry="26"/>
<text text-anchor="middle" x="1257" y="-342.63" font-family="Times,serif" font-size="14.00">haspullbacks</text>
</a>
</g>
</g>
<!-- EpiStable_haspullbacks&#45;&gt;EpiStable_IsEpiStable -->
<g id="edge47" class="edge">
<title>EpiStable_haspullbacks&#45;&gt;EpiStable_IsEpiStable</title>
<path fill="none" stroke="black" d="M1215.61,-324.16C1125.41,-278 912.15,-168.88 824.57,-124.07"/>
<polygon fill="black" stroke="black" points="826,-120.87 815.51,-119.43 822.81,-127.1 826,-120.87"/>
</g>
<!-- EpiStable_IsEpiStable_sind -->
<g id="node32" class="node">
<title>EpiStable_IsEpiStable_sind</title>
<g id="a_node32"><a xlink:href="EpiStable.html#IsEpiStable_sind" xlink:title="IsEpiStable_sind">
<ellipse fill="#f070d1" stroke="black" cx="112" cy="-346.33" rx="88.29" ry="18"/>
<ellipse fill="none" stroke="black" cx="112" cy="-346.33" rx="92.29" ry="22"/>
<ellipse fill="none" stroke="black" cx="112" cy="-346.33" rx="96.28" ry="26"/>
<text text-anchor="middle" x="112" y="-342.63" font-family="Times,serif" font-size="14.00">IsEpiStable_sind</text>
</a>
</g>
</g>
<!-- EpiStable_Build_IsEpiStable -->
<g id="node36" class="node">
<title>EpiStable_Build_IsEpiStable</title>
<g id="a_node36"><a xlink:href="EpiStable.html#Build_IsEpiStable" xlink:title="Build_IsEpiStable">
<ellipse fill="#7faaff" stroke="black" cx="318" cy="-103.33" rx="92.88" ry="18"/>
<text text-anchor="middle" x="318" y="-99.63" font-family="Times,serif" font-size="14.00">Build_IsEpiStable</text>
</a>
</g>
</g>
<!-- EpiStable_IsEpiStable_sind&#45;&gt;EpiStable_Build_IsEpiStable -->
<g id="edge48" class="edge">
<title>EpiStable_IsEpiStable_sind&#45;&gt;EpiStable_Build_IsEpiStable</title>
<path fill="none" stroke="black" d="M132.89,-320.9C172.35,-274.73 257.46,-175.16 297.01,-128.89"/>
<polygon fill="black" stroke="black" points="299.78,-131.03 303.62,-121.16 294.46,-126.49 299.78,-131.03"/>
</g>
<!-- EpiStable_IsEpiStable_sind&#45;&gt;EpiStable_IsEpiStable -->
<g id="edge49" class="edge">
<title>EpiStable_IsEpiStable_sind&#45;&gt;EpiStable_IsEpiStable</title>
<path fill="none" stroke="black" d="M168.31,-325.2C298.17,-278.77 616.8,-164.83 738.08,-121.47"/>
<polygon fill="black" stroke="black" points="739.59,-124.65 747.83,-117.98 737.23,-118.05 739.59,-124.65"/>
</g>
<!-- EpiStable_IsEpiStable_rec -->
<g id="node33" class="node">
<title>EpiStable_IsEpiStable_rec</title>
<g id="a_node33"><a xlink:href="EpiStable.html#IsEpiStable_rec" xlink:title="IsEpiStable_rec">
<ellipse fill="#f070d1" stroke="black" cx="107" cy="-614.33" rx="83.37" ry="18"/>
<ellipse fill="none" stroke="black" cx="107" cy="-614.33" rx="87.38" ry="22"/>
<ellipse fill="none" stroke="black" cx="107" cy="-614.33" rx="91.39" ry="26"/>
<text text-anchor="middle" x="107" y="-610.63" font-family="Times,serif" font-size="14.00">IsEpiStable_rec</text>
</a>
</g>
</g>
<!-- EpiStable_IsEpiStable_rect -->
<g id="node35" class="node">
<title>EpiStable_IsEpiStable_rect</title>
<g id="a_node35"><a xlink:href="EpiStable.html#IsEpiStable_rect" xlink:title="IsEpiStable_rect">
<ellipse fill="#f070d1" stroke="black" cx="514" cy="-346.33" rx="87.18" ry="18"/>
<text text-anchor="middle" x="514" y="-342.63" font-family="Times,serif" font-size="14.00">IsEpiStable_rect</text>
</a>
</g>
</g>
<!-- EpiStable_IsEpiStable_rec&#45;&gt;EpiStable_IsEpiStable_rect -->
<g id="edge50" class="edge">
<title>EpiStable_IsEpiStable_rec&#45;&gt;EpiStable_IsEpiStable_rect</title>
<path fill="none" stroke="black" d="M142.41,-590.19C220,-539.48 404.15,-419.13 480.22,-369.41"/>
<polygon fill="black" stroke="black" points="482.49,-372.11 488.95,-363.71 478.66,-366.25 482.49,-372.11"/>
</g>
<!-- EpiStable_IsEpiStable_ind -->
<g id="node34" class="node">
<title>EpiStable_IsEpiStable_ind</title>
<g id="a_node34"><a xlink:href="EpiStable.html#IsEpiStable_ind" xlink:title="IsEpiStable_ind">
<ellipse fill="#7fffd4" stroke="black" cx="318" cy="-346.33" rx="83.37" ry="18"/>
<ellipse fill="none" stroke="black" cx="318" cy="-346.33" rx="87.38" ry="22"/>
<ellipse fill="none" stroke="black" cx="318" cy="-346.33" rx="91.39" ry="26"/>
<text text-anchor="middle" x="318" y="-342.63" font-family="Times,serif" font-size="14.00">IsEpiStable_ind</text>
</a>
</g>
</g>
<!-- EpiStable_IsEpiStable_ind&#45;&gt;EpiStable_Build_IsEpiStable -->
<g id="edge51" class="edge">
<title>EpiStable_IsEpiStable_ind&#45;&gt;EpiStable_Build_IsEpiStable</title>
<path fill="none" stroke="black" d="M318,-320C318,-274.37 318,-178.75 318,-131.69"/>
<polygon fill="black" stroke="black" points="321.5,-131.62 318,-121.62 314.5,-131.62 321.5,-131.62"/>
</g>
<!-- EpiStable_IsEpiStable_ind&#45;&gt;EpiStable_IsEpiStable -->
<g id="edge52" class="edge">
<title>EpiStable_IsEpiStable_ind&#45;&gt;EpiStable_IsEpiStable</title>
<path fill="none" stroke="black" d="M360.77,-323.31C451.34,-276.67 661.24,-168.58 747.71,-124.05"/>
<polygon fill="black" stroke="black" points="749.37,-127.13 756.66,-119.44 746.17,-120.91 749.37,-127.13"/>
</g>
<!-- EpiStable_IsEpiStable_rect&#45;&gt;EpiStable_Build_IsEpiStable -->
<g id="edge53" class="edge">
<title>EpiStable_IsEpiStable_rect&#45;&gt;EpiStable_Build_IsEpiStable</title>
<path fill="none" stroke="black" d="M500.22,-328.39C466.2,-286.56 378.11,-178.25 338.19,-129.16"/>
<polygon fill="black" stroke="black" points="340.79,-126.81 331.77,-121.26 335.36,-131.23 340.79,-126.81"/>
</g>
<!-- EpiStable_IsEpiStable_rect&#45;&gt;EpiStable_IsEpiStable -->
<g id="edge54" class="edge">
<title>EpiStable_IsEpiStable_rect&#45;&gt;EpiStable_IsEpiStable</title>
<path fill="none" stroke="black" d="M533.13,-328.39C580.96,-286.01 705.81,-175.39 760.13,-127.26"/>
<polygon fill="black" stroke="black" points="762.45,-129.88 767.61,-120.62 757.81,-124.64 762.45,-129.88"/>
</g>
</g>
</svg>
