<?xml version="1.0" encoding="UTF-8" standalone="no"?>
<!DOCTYPE svg PUBLIC "-//W3C//DTD SVG 1.1//EN"
 "http://www.w3.org/Graphics/SVG/1.1/DTD/svg11.dtd">
<!-- Generated by graphviz version 2.43.0 (0)
 -->
<!-- Title: HoTT_Algebra_AbSES_DirectSum Pages: 1 -->
<svg width="1253pt" height="631pt"
 viewBox="0.00 0.00 1253.00 630.50" xmlns="http://www.w3.org/2000/svg" xmlns:xlink="http://www.w3.org/1999/xlink">
<g id="graph0" class="graph" transform="scale(1 1) rotate(0) translate(4 626.5)">
<title>HoTT_Algebra_AbSES_DirectSum</title>
<polygon fill="white" stroke="transparent" points="-4,4 -4,-626.5 1249,-626.5 1249,4 -4,4"/>
<g id="clust1" class="cluster">
<title>cluster_DirectSum</title>
<polygon fill="#ffffc3" stroke="black" points="8,-19.84 8,-602.66 1237,-602.66 1237,-19.84 8,-19.84"/>
<text text-anchor="middle" x="54.5" y="-587.46" font-family="Times,serif" font-size="14.00">DirectSum</text>
</g>
<!-- DirectSum_abses_twist_directsum -->
<g id="node1" class="node">
<title>DirectSum_abses_twist_directsum</title>
<g id="a_node1"><a xlink:href="DirectSum.html#abses_twist_directsum" xlink:title="abses_twist_directsum">
<ellipse fill="#f070d1" stroke="black" cx="1105" cy="-460.84" rx="116.19" ry="18"/>
<ellipse fill="none" stroke="black" cx="1105" cy="-460.84" rx="120.18" ry="22"/>
<ellipse fill="none" stroke="black" cx="1105" cy="-460.84" rx="124.18" ry="26"/>
<text text-anchor="middle" x="1105" y="-457.14" font-family="Times,serif" font-size="14.00">abses_twist_directsum</text>
</a>
</g>
</g>
<!-- DirectSum_abses_direct_sum -->
<g id="node6" class="node">
<title>DirectSum_abses_direct_sum</title>
<g id="a_node6"><a xlink:href="DirectSum.html#abses_direct_sum" xlink:title="abses_direct_sum">
<ellipse fill="#f070d1" stroke="black" cx="597" cy="-262.84" rx="92.88" ry="18"/>
<text text-anchor="middle" x="597" y="-259.14" font-family="Times,serif" font-size="14.00">abses_direct_sum</text>
</a>
</g>
</g>
<!-- DirectSum_abses_twist_directsum&#45;&gt;DirectSum_abses_direct_sum -->
<g id="edge1" class="edge">
<title>DirectSum_abses_twist_directsum&#45;&gt;DirectSum_abses_direct_sum</title>
<path fill="none" stroke="black" d="M1047.71,-437.74C947.22,-398.96 740.86,-319.35 646.3,-282.86"/>
<polygon fill="black" stroke="black" points="647.28,-279.49 636.69,-279.16 644.76,-286.02 647.28,-279.49"/>
</g>
<!-- DirectSum_abses_swap_morphism -->
<g id="node2" class="node">
<title>DirectSum_abses_swap_morphism</title>
<g id="a_node2"><a xlink:href="DirectSum.html#abses_swap_morphism" xlink:title="abses_swap_morphism">
<ellipse fill="#f070d1" stroke="black" cx="838" cy="-460.84" rx="116.19" ry="18"/>
<ellipse fill="none" stroke="black" cx="838" cy="-460.84" rx="120.18" ry="22"/>
<ellipse fill="none" stroke="black" cx="838" cy="-460.84" rx="124.18" ry="26"/>
<text text-anchor="middle" x="838" y="-457.14" font-family="Times,serif" font-size="14.00">abses_swap_morphism</text>
</a>
</g>
</g>
<!-- DirectSum_abses_swap_morphism&#45;&gt;DirectSum_abses_direct_sum -->
<g id="edge2" class="edge">
<title>DirectSum_abses_swap_morphism&#45;&gt;DirectSum_abses_direct_sum</title>
<path fill="none" stroke="black" d="M807.96,-435.41C761.16,-397.35 671.45,-324.39 625.57,-287.07"/>
<polygon fill="black" stroke="black" points="627.5,-284.13 617.53,-280.54 623.08,-289.56 627.5,-284.13"/>
</g>
<!-- DirectSum_abses_codiagonal -->
<g id="node3" class="node">
<title>DirectSum_abses_codiagonal</title>
<g id="a_node3"><a xlink:href="DirectSum.html#abses_codiagonal" xlink:title="abses_codiagonal">
<ellipse fill="#f070d1" stroke="black" cx="597" cy="-460.84" rx="90.98" ry="18"/>
<ellipse fill="none" stroke="black" cx="597" cy="-460.84" rx="94.98" ry="22"/>
<ellipse fill="none" stroke="black" cx="597" cy="-460.84" rx="98.98" ry="26"/>
<text text-anchor="middle" x="597" y="-457.14" font-family="Times,serif" font-size="14.00">abses_codiagonal</text>
</a>
</g>
</g>
<!-- DirectSum_abses_codiagonal&#45;&gt;DirectSum_abses_direct_sum -->
<g id="edge3" class="edge">
<title>DirectSum_abses_codiagonal&#45;&gt;DirectSum_abses_direct_sum</title>
<path fill="none" stroke="black" d="M597,-434.62C597,-397.73 597,-329.33 597,-291.24"/>
<polygon fill="black" stroke="black" points="600.5,-290.91 597,-280.91 593.5,-290.91 600.5,-290.91"/>
</g>
<!-- DirectSum_abses_diagonal -->
<g id="node4" class="node">
<title>DirectSum_abses_diagonal</title>
<g id="a_node4"><a xlink:href="DirectSum.html#abses_diagonal" xlink:title="abses_diagonal">
<ellipse fill="#f070d1" stroke="black" cx="391" cy="-460.84" rx="81.46" ry="18"/>
<ellipse fill="none" stroke="black" cx="391" cy="-460.84" rx="85.48" ry="22"/>
<ellipse fill="none" stroke="black" cx="391" cy="-460.84" rx="89.49" ry="26"/>
<text text-anchor="middle" x="391" y="-457.14" font-family="Times,serif" font-size="14.00">abses_diagonal</text>
</a>
</g>
</g>
<!-- DirectSum_abses_diagonal&#45;&gt;DirectSum_abses_direct_sum -->
<g id="edge4" class="edge">
<title>DirectSum_abses_diagonal&#45;&gt;DirectSum_abses_direct_sum</title>
<path fill="none" stroke="black" d="M416.26,-435.81C455.94,-398.05 532.44,-325.27 571.98,-287.65"/>
<polygon fill="black" stroke="black" points="574.54,-290.04 579.37,-280.62 569.71,-284.97 574.54,-290.04"/>
</g>
<!-- DirectSum_functor_abses_directsum -->
<g id="node5" class="node">
<title>DirectSum_functor_abses_directsum</title>
<g id="a_node5"><a xlink:href="DirectSum.html#functor_abses_directsum" xlink:title="functor_abses_directsum">
<ellipse fill="#f070d1" stroke="black" cx="150" cy="-460.84" rx="126.17" ry="18"/>
<ellipse fill="none" stroke="black" cx="150" cy="-460.84" rx="130.18" ry="22"/>
<ellipse fill="none" stroke="black" cx="150" cy="-460.84" rx="134.18" ry="26"/>
<text text-anchor="middle" x="150" y="-457.14" font-family="Times,serif" font-size="14.00">functor_abses_directsum</text>
</a>
</g>
</g>
<!-- DirectSum_functor_abses_directsum&#45;&gt;DirectSum_abses_direct_sum -->
<g id="edge5" class="edge">
<title>DirectSum_functor_abses_directsum&#45;&gt;DirectSum_abses_direct_sum</title>
<path fill="none" stroke="black" d="M202.59,-436.78C291.26,-397.9 468.94,-319.99 552.12,-283.52"/>
<polygon fill="black" stroke="black" points="553.55,-286.71 561.3,-279.49 550.74,-280.3 553.55,-286.71"/>
</g>
<!-- DirectSum_ab_biprod_exact -->
<g id="node7" class="node">
<title>DirectSum_ab_biprod_exact</title>
<g id="a_node7"><a xlink:href="DirectSum.html#ab_biprod_exact" xlink:title="ab_biprod_exact">
<ellipse fill="#f070d1" stroke="black" cx="597" cy="-83.84" rx="85.59" ry="18"/>
<text text-anchor="middle" x="597" y="-80.14" font-family="Times,serif" font-size="14.00">ab_biprod_exact</text>
</a>
</g>
</g>
<!-- DirectSum_abses_direct_sum&#45;&gt;DirectSum_ab_biprod_exact -->
<g id="edge6" class="edge">
<title>DirectSum_abses_direct_sum&#45;&gt;DirectSum_ab_biprod_exact</title>
<path fill="none" stroke="black" d="M597,-244.55C597,-213.67 597,-148.84 597,-111.98"/>
<polygon fill="black" stroke="black" points="600.5,-111.94 597,-101.94 593.5,-111.94 600.5,-111.94"/>
</g>
</g>
</svg>
