<?xml version="1.0" encoding="UTF-8" standalone="no"?>
<!DOCTYPE svg PUBLIC "-//W3C//DTD SVG 1.1//EN"
 "http://www.w3.org/Graphics/SVG/1.1/DTD/svg11.dtd">
<!-- Generated by graphviz version 2.43.0 (0)
 -->
<!-- Title: HoTT_WildCat_ZeroGroupoid Pages: 1 -->
<svg width="1732pt" height="870pt"
 viewBox="0.00 0.00 1732.00 870.00" xmlns="http://www.w3.org/2000/svg" xmlns:xlink="http://www.w3.org/1999/xlink">
<g id="graph0" class="graph" transform="scale(1 1) rotate(0) translate(4 866)">
<title>HoTT_WildCat_ZeroGroupoid</title>
<polygon fill="white" stroke="transparent" points="-4,4 -4,-866 1728,-866 1728,4 -4,4"/>
<g id="clust1" class="cluster">
<title>cluster_ZeroGroupoid</title>
<polygon fill="#ffffc3" stroke="black" points="8,-9.04 8,-852.96 1716,-852.96 1716,-9.04 8,-9.04"/>
<text text-anchor="middle" x="66" y="-837.76" font-family="Times,serif" font-size="14.00">ZeroGroupoid</text>
</g>
<!-- ZeroGroupoid_cate_prod_0gpd -->
<g id="node1" class="node">
<title>ZeroGroupoid_cate_prod_0gpd</title>
<g id="a_node1"><a xlink:href="ZeroGroupoid.html#cate_prod_0gpd" xlink:title="cate_prod_0gpd">
<ellipse fill="#f070d1" stroke="black" cx="1419" cy="-590.04" rx="83.7" ry="18"/>
<ellipse fill="none" stroke="black" cx="1419" cy="-590.04" rx="87.69" ry="22"/>
<ellipse fill="none" stroke="black" cx="1419" cy="-590.04" rx="91.69" ry="26"/>
<text text-anchor="middle" x="1419" y="-586.34" font-family="Times,serif" font-size="14.00">cate_prod_0gpd</text>
</a>
</g>
</g>
<!-- ZeroGroupoid_equiv_prod_0gpd_corec -->
<g id="node2" class="node">
<title>ZeroGroupoid_equiv_prod_0gpd_corec</title>
<g id="a_node2"><a xlink:href="ZeroGroupoid.html#equiv_prod_0gpd_corec" xlink:title="equiv_prod_0gpd_corec">
<ellipse fill="#f070d1" stroke="black" cx="995" cy="-418.04" rx="118.88" ry="18"/>
<text text-anchor="middle" x="995" y="-414.34" font-family="Times,serif" font-size="14.00">equiv_prod_0gpd_corec</text>
</a>
</g>
</g>
<!-- ZeroGroupoid_cate_prod_0gpd&#45;&gt;ZeroGroupoid_equiv_prod_0gpd_corec -->
<g id="edge1" class="edge">
<title>ZeroGroupoid_cate_prod_0gpd&#45;&gt;ZeroGroupoid_equiv_prod_0gpd_corec</title>
<path fill="none" stroke="black" d="M1395.96,-564.45C1371.19,-539.55 1329.47,-501.82 1286,-481.04 1250.78,-464.2 1155.72,-445.63 1083.75,-433.25"/>
<polygon fill="black" stroke="black" points="1084.2,-429.77 1073.75,-431.54 1083.02,-436.67 1084.2,-429.77"/>
</g>
<!-- ZeroGroupoid_hasequivs_0gpd -->
<g id="node11" class="node">
<title>ZeroGroupoid_hasequivs_0gpd</title>
<g id="a_node11"><a xlink:href="ZeroGroupoid.html#hasequivs_0gpd" xlink:title="hasequivs_0gpd">
<ellipse fill="#f070d1" stroke="black" cx="1192" cy="-499.04" rx="85.29" ry="18"/>
<text text-anchor="middle" x="1192" y="-495.34" font-family="Times,serif" font-size="14.00">hasequivs_0gpd</text>
</a>
</g>
</g>
<!-- ZeroGroupoid_cate_prod_0gpd&#45;&gt;ZeroGroupoid_hasequivs_0gpd -->
<g id="edge2" class="edge">
<title>ZeroGroupoid_cate_prod_0gpd&#45;&gt;ZeroGroupoid_hasequivs_0gpd</title>
<path fill="none" stroke="black" d="M1366.92,-568.62C1328.83,-553.69 1277.53,-533.57 1240.35,-518.99"/>
<polygon fill="black" stroke="black" points="1241.32,-515.62 1230.74,-515.23 1238.77,-522.13 1241.32,-515.62"/>
</g>
<!-- ZeroGroupoid_is0functor_fun_0gpd -->
<g id="node16" class="node">
<title>ZeroGroupoid_is0functor_fun_0gpd</title>
<g id="a_node16"><a xlink:href="ZeroGroupoid.html#is0functor_fun_0gpd" xlink:title="is0functor_fun_0gpd">
<ellipse fill="#f070d1" stroke="black" cx="1388" cy="-418.04" rx="105.08" ry="18"/>
<text text-anchor="middle" x="1388" y="-414.34" font-family="Times,serif" font-size="14.00">is0functor_fun_0gpd</text>
</a>
</g>
</g>
<!-- ZeroGroupoid_cate_prod_0gpd&#45;&gt;ZeroGroupoid_is0functor_fun_0gpd -->
<g id="edge3" class="edge">
<title>ZeroGroupoid_cate_prod_0gpd&#45;&gt;ZeroGroupoid_is0functor_fun_0gpd</title>
<path fill="none" stroke="black" d="M1414.43,-563.95C1408.71,-532.59 1398.95,-479.07 1393.02,-446.59"/>
<polygon fill="black" stroke="black" points="1396.41,-445.66 1391.17,-436.45 1389.53,-446.91 1396.41,-445.66"/>
</g>
<!-- ZeroGroupoid_carrier -->
<g id="node27" class="node">
<title>ZeroGroupoid_carrier</title>
<g id="a_node27"><a xlink:href="ZeroGroupoid.html#carrier" xlink:title="carrier">
<ellipse fill="#f070d1" stroke="black" cx="1490" cy="-499.04" rx="42.49" ry="18"/>
<text text-anchor="middle" x="1490" y="-495.34" font-family="Times,serif" font-size="14.00">carrier</text>
</a>
</g>
</g>
<!-- ZeroGroupoid_cate_prod_0gpd&#45;&gt;ZeroGroupoid_carrier -->
<g id="edge4" class="edge">
<title>ZeroGroupoid_cate_prod_0gpd&#45;&gt;ZeroGroupoid_carrier</title>
<path fill="none" stroke="black" d="M1438.78,-564.25C1448.71,-551.79 1460.71,-536.76 1470.59,-524.37"/>
<polygon fill="black" stroke="black" points="1473.54,-526.28 1477.04,-516.28 1468.07,-521.91 1473.54,-526.28"/>
</g>
<!-- ZeroGroupoid_prod_0gpd_pr -->
<g id="node3" class="node">
<title>ZeroGroupoid_prod_0gpd_pr</title>
<g id="a_node3"><a xlink:href="ZeroGroupoid.html#prod_0gpd_pr" xlink:title="prod_0gpd_pr">
<ellipse fill="#f070d1" stroke="black" cx="420" cy="-328.04" rx="74.99" ry="18"/>
<text text-anchor="middle" x="420" y="-324.34" font-family="Times,serif" font-size="14.00">prod_0gpd_pr</text>
</a>
</g>
</g>
<!-- ZeroGroupoid_equiv_prod_0gpd_corec&#45;&gt;ZeroGroupoid_prod_0gpd_pr -->
<g id="edge5" class="edge">
<title>ZeroGroupoid_equiv_prod_0gpd_corec&#45;&gt;ZeroGroupoid_prod_0gpd_pr</title>
<path fill="none" stroke="black" d="M892.4,-408.88C792.3,-399.75 636.07,-382.4 503,-354.04 492.74,-351.85 481.91,-349 471.58,-346.01"/>
<polygon fill="black" stroke="black" points="472.46,-342.62 461.87,-343.12 470.46,-349.33 472.46,-342.62"/>
</g>
<!-- ZeroGroupoid_is01cat_0gpd -->
<g id="node14" class="node">
<title>ZeroGroupoid_is01cat_0gpd</title>
<g id="a_node14"><a xlink:href="ZeroGroupoid.html#is01cat_0gpd" xlink:title="is01cat_0gpd">
<ellipse fill="#f070d1" stroke="black" cx="1198" cy="-328.04" rx="72.29" ry="18"/>
<text text-anchor="middle" x="1198" y="-324.34" font-family="Times,serif" font-size="14.00">is01cat_0gpd</text>
</a>
</g>
</g>
<!-- ZeroGroupoid_equiv_prod_0gpd_corec&#45;&gt;ZeroGroupoid_is01cat_0gpd -->
<g id="edge6" class="edge">
<title>ZeroGroupoid_equiv_prod_0gpd_corec&#45;&gt;ZeroGroupoid_is01cat_0gpd</title>
<path fill="none" stroke="black" d="M1032.23,-400.9C1066.7,-385.96 1117.95,-363.74 1154.33,-347.97"/>
<polygon fill="black" stroke="black" points="1155.92,-351.09 1163.71,-343.9 1153.14,-344.67 1155.92,-351.09"/>
</g>
<!-- ZeroGroupoid_prod_0gpd -->
<g id="node4" class="node">
<title>ZeroGroupoid_prod_0gpd</title>
<g id="a_node4"><a xlink:href="ZeroGroupoid.html#prod_0gpd" xlink:title="prod_0gpd">
<ellipse fill="#f070d1" stroke="black" cx="242" cy="-129.04" rx="59.59" ry="18"/>
<text text-anchor="middle" x="242" y="-125.34" font-family="Times,serif" font-size="14.00">prod_0gpd</text>
</a>
</g>
</g>
<!-- ZeroGroupoid_prod_0gpd_pr&#45;&gt;ZeroGroupoid_prod_0gpd -->
<g id="edge7" class="edge">
<title>ZeroGroupoid_prod_0gpd_pr&#45;&gt;ZeroGroupoid_prod_0gpd</title>
<path fill="none" stroke="black" d="M404.82,-310.24C373.22,-275.26 300.24,-194.5 263.69,-154.04"/>
<polygon fill="black" stroke="black" points="266.19,-151.59 256.89,-146.51 260.99,-156.28 266.19,-151.59"/>
</g>
<!-- ZeroGroupoid_isgraph_0gpd -->
<g id="node15" class="node">
<title>ZeroGroupoid_isgraph_0gpd</title>
<g id="a_node15"><a xlink:href="ZeroGroupoid.html#isgraph_0gpd" xlink:title="isgraph_0gpd">
<ellipse fill="#f070d1" stroke="black" cx="1400" cy="-228.04" rx="73.39" ry="18"/>
<text text-anchor="middle" x="1400" y="-224.34" font-family="Times,serif" font-size="14.00">isgraph_0gpd</text>
</a>
</g>
</g>
<!-- ZeroGroupoid_prod_0gpd_pr&#45;&gt;ZeroGroupoid_isgraph_0gpd -->
<g id="edge8" class="edge">
<title>ZeroGroupoid_prod_0gpd_pr&#45;&gt;ZeroGroupoid_isgraph_0gpd</title>
<path fill="none" stroke="black" d="M460.49,-312.78C473.86,-308.62 488.92,-304.54 503,-302.04 860.26,-238.61 960.84,-318.06 1318,-254.04 1328.55,-252.15 1339.65,-249.34 1350.15,-246.29"/>
<polygon fill="black" stroke="black" points="1351.45,-249.55 1360.01,-243.3 1349.42,-242.85 1351.45,-249.55"/>
</g>
<!-- ZeroGroupoid_Build_Morphism_0Gpd -->
<g id="node22" class="node">
<title>ZeroGroupoid_Build_Morphism_0Gpd</title>
<g id="a_node22"><a xlink:href="ZeroGroupoid.html#Build_Morphism_0Gpd" xlink:title="Build_Morphism_0Gpd">
<ellipse fill="#7faaff" stroke="black" cx="796" cy="-129.04" rx="116.18" ry="18"/>
<text text-anchor="middle" x="796" y="-125.34" font-family="Times,serif" font-size="14.00">Build_Morphism_0Gpd</text>
</a>
</g>
</g>
<!-- ZeroGroupoid_prod_0gpd_pr&#45;&gt;ZeroGroupoid_Build_Morphism_0Gpd -->
<g id="edge9" class="edge">
<title>ZeroGroupoid_prod_0gpd_pr&#45;&gt;ZeroGroupoid_Build_Morphism_0Gpd</title>
<path fill="none" stroke="black" d="M415.6,-310.03C409.83,-283.42 403.33,-231.93 430,-202.04 502.37,-120.94 563.36,-176.06 670,-155.04 685.35,-152.01 701.74,-148.77 717.46,-145.65"/>
<polygon fill="black" stroke="black" points="718.54,-149.01 727.67,-143.63 717.18,-142.14 718.54,-149.01"/>
</g>
<!-- ZeroGroupoid_Build_ZeroGpd -->
<g id="node32" class="node">
<title>ZeroGroupoid_Build_ZeroGpd</title>
<g id="a_node32"><a xlink:href="ZeroGroupoid.html#Build_ZeroGpd" xlink:title="Build_ZeroGpd">
<ellipse fill="#7faaff" stroke="black" cx="320" cy="-38.04" rx="79.89" ry="18"/>
<text text-anchor="middle" x="320" y="-34.34" font-family="Times,serif" font-size="14.00">Build_ZeroGpd</text>
</a>
</g>
</g>
<!-- ZeroGroupoid_prod_0gpd&#45;&gt;ZeroGroupoid_Build_ZeroGpd -->
<g id="edge10" class="edge">
<title>ZeroGroupoid_prod_0gpd&#45;&gt;ZeroGroupoid_Build_ZeroGpd</title>
<path fill="none" stroke="black" d="M256.67,-111.3C268.47,-97.83 285.22,-78.72 298.53,-63.54"/>
<polygon fill="black" stroke="black" points="301.17,-65.83 305.13,-56.01 295.91,-61.22 301.17,-65.83"/>
</g>
<!-- ZeroGroupoid_ZeroGpd -->
<g id="node33" class="node">
<title>ZeroGroupoid_ZeroGpd</title>
<g id="a_node33"><a xlink:href="ZeroGroupoid.html#ZeroGpd" xlink:title="ZeroGpd">
<ellipse fill="#e2cdfa" stroke="black" cx="907" cy="-38.04" rx="51.19" ry="18"/>
<text text-anchor="middle" x="907" y="-34.34" font-family="Times,serif" font-size="14.00">ZeroGpd</text>
</a>
</g>
</g>
<!-- ZeroGroupoid_prod_0gpd&#45;&gt;ZeroGroupoid_ZeroGpd -->
<g id="edge11" class="edge">
<title>ZeroGroupoid_prod_0gpd&#45;&gt;ZeroGroupoid_ZeroGpd</title>
<path fill="none" stroke="black" d="M275.55,-114.05C286.66,-109.91 299.21,-105.77 311,-103.04 503.02,-58.63 737.13,-44.9 845.95,-40.76"/>
<polygon fill="black" stroke="black" points="846.22,-44.25 856.08,-40.39 845.96,-37.26 846.22,-44.25"/>
</g>
<!-- ZeroGroupoid_isequiv_0gpd_issurjinj -->
<g id="node5" class="node">
<title>ZeroGroupoid_isequiv_0gpd_issurjinj</title>
<g id="a_node5"><a xlink:href="ZeroGroupoid.html#isequiv_0gpd_issurjinj" xlink:title="isequiv_0gpd_issurjinj">
<ellipse fill="#f070d1" stroke="black" cx="1187" cy="-590.04" rx="113.96" ry="18"/>
<ellipse fill="none" stroke="black" cx="1187" cy="-590.04" rx="117.97" ry="22"/>
<ellipse fill="none" stroke="black" cx="1187" cy="-590.04" rx="121.98" ry="26"/>
<text text-anchor="middle" x="1187" y="-586.34" font-family="Times,serif" font-size="14.00">isequiv_0gpd_issurjinj</text>
</a>
</g>
</g>
<!-- ZeroGroupoid_isequiv_0gpd_issurjinj&#45;&gt;ZeroGroupoid_hasequivs_0gpd -->
<g id="edge12" class="edge">
<title>ZeroGroupoid_isequiv_0gpd_issurjinj&#45;&gt;ZeroGroupoid_hasequivs_0gpd</title>
<path fill="none" stroke="black" d="M1188.42,-563.77C1189.06,-552.36 1189.82,-538.86 1190.47,-527.23"/>
<polygon fill="black" stroke="black" points="1193.97,-527.37 1191.04,-517.19 1186.98,-526.98 1193.97,-527.37"/>
</g>
<!-- ZeroGroupoid_issurjinj_equiv_0gpd -->
<g id="node6" class="node">
<title>ZeroGroupoid_issurjinj_equiv_0gpd</title>
<g id="a_node6"><a xlink:href="ZeroGroupoid.html#issurjinj_equiv_0gpd" xlink:title="issurjinj_equiv_0gpd">
<ellipse fill="#f070d1" stroke="black" cx="1188" cy="-789.04" rx="105.89" ry="18"/>
<ellipse fill="none" stroke="black" cx="1188" cy="-789.04" rx="109.88" ry="22"/>
<ellipse fill="none" stroke="black" cx="1188" cy="-789.04" rx="113.88" ry="26"/>
<text text-anchor="middle" x="1188" y="-785.34" font-family="Times,serif" font-size="14.00">issurjinj_equiv_0gpd</text>
</a>
</g>
</g>
<!-- ZeroGroupoid_isinj_equiv_0gpd -->
<g id="node9" class="node">
<title>ZeroGroupoid_isinj_equiv_0gpd</title>
<g id="a_node9"><a xlink:href="ZeroGroupoid.html#isinj_equiv_0gpd" xlink:title="isinj_equiv_0gpd">
<ellipse fill="#f070d1" stroke="black" cx="1188" cy="-689.04" rx="87.99" ry="18"/>
<text text-anchor="middle" x="1188" y="-685.34" font-family="Times,serif" font-size="14.00">isinj_equiv_0gpd</text>
</a>
</g>
</g>
<!-- ZeroGroupoid_issurjinj_equiv_0gpd&#45;&gt;ZeroGroupoid_isinj_equiv_0gpd -->
<g id="edge13" class="edge">
<title>ZeroGroupoid_issurjinj_equiv_0gpd&#45;&gt;ZeroGroupoid_isinj_equiv_0gpd</title>
<path fill="none" stroke="black" d="M1188,-762.8C1188,-748.88 1188,-731.59 1188,-717.35"/>
<polygon fill="black" stroke="black" points="1191.5,-717.17 1188,-707.17 1184.5,-717.17 1191.5,-717.17"/>
</g>
<!-- ZeroGroupoid_moveL_equiv_V_0gpd -->
<g id="node7" class="node">
<title>ZeroGroupoid_moveL_equiv_V_0gpd</title>
<g id="a_node7"><a xlink:href="ZeroGroupoid.html#moveL_equiv_V_0gpd" xlink:title="moveL_equiv_V_0gpd">
<ellipse fill="#f070d1" stroke="black" cx="964" cy="-689.04" rx="109.69" ry="18"/>
<ellipse fill="none" stroke="black" cx="964" cy="-689.04" rx="113.69" ry="22"/>
<ellipse fill="none" stroke="black" cx="964" cy="-689.04" rx="117.68" ry="26"/>
<text text-anchor="middle" x="964" y="-685.34" font-family="Times,serif" font-size="14.00">moveL_equiv_V_0gpd</text>
</a>
</g>
</g>
<!-- ZeroGroupoid_equiv_fun_0gpd -->
<g id="node10" class="node">
<title>ZeroGroupoid_equiv_fun_0gpd</title>
<g id="a_node10"><a xlink:href="ZeroGroupoid.html#equiv_fun_0gpd" xlink:title="equiv_fun_0gpd">
<ellipse fill="#f070d1" stroke="black" cx="964" cy="-590.04" rx="83.39" ry="18"/>
<text text-anchor="middle" x="964" y="-586.34" font-family="Times,serif" font-size="14.00">equiv_fun_0gpd</text>
</a>
</g>
</g>
<!-- ZeroGroupoid_moveL_equiv_V_0gpd&#45;&gt;ZeroGroupoid_equiv_fun_0gpd -->
<g id="edge14" class="edge">
<title>ZeroGroupoid_moveL_equiv_V_0gpd&#45;&gt;ZeroGroupoid_equiv_fun_0gpd</title>
<path fill="none" stroke="black" d="M964,-662.81C964,-649.12 964,-632.19 964,-618.21"/>
<polygon fill="black" stroke="black" points="967.5,-618.2 964,-608.2 960.5,-618.2 967.5,-618.2"/>
</g>
<!-- ZeroGroupoid_moveR_equiv_V_0gpd -->
<g id="node8" class="node">
<title>ZeroGroupoid_moveR_equiv_V_0gpd</title>
<g id="a_node8"><a xlink:href="ZeroGroupoid.html#moveR_equiv_V_0gpd" xlink:title="moveR_equiv_V_0gpd">
<ellipse fill="#f070d1" stroke="black" cx="710" cy="-689.04" rx="110.48" ry="18"/>
<ellipse fill="none" stroke="black" cx="710" cy="-689.04" rx="114.48" ry="22"/>
<ellipse fill="none" stroke="black" cx="710" cy="-689.04" rx="118.48" ry="26"/>
<text text-anchor="middle" x="710" y="-685.34" font-family="Times,serif" font-size="14.00">moveR_equiv_V_0gpd</text>
</a>
</g>
</g>
<!-- ZeroGroupoid_moveR_equiv_V_0gpd&#45;&gt;ZeroGroupoid_equiv_fun_0gpd -->
<g id="edge15" class="edge">
<title>ZeroGroupoid_moveR_equiv_V_0gpd&#45;&gt;ZeroGroupoid_equiv_fun_0gpd</title>
<path fill="none" stroke="black" d="M767.32,-666.15C811.84,-649.15 872.92,-625.82 915.14,-609.7"/>
<polygon fill="black" stroke="black" points="916.55,-612.9 924.65,-606.07 914.06,-606.36 916.55,-612.9"/>
</g>
<!-- ZeroGroupoid_isinj_equiv_0gpd&#45;&gt;ZeroGroupoid_equiv_fun_0gpd -->
<g id="edge16" class="edge">
<title>ZeroGroupoid_isinj_equiv_0gpd&#45;&gt;ZeroGroupoid_equiv_fun_0gpd</title>
<path fill="none" stroke="black" d="M1152.01,-672.45C1113.03,-655.57 1050.8,-628.63 1008.72,-610.4"/>
<polygon fill="black" stroke="black" points="1010.1,-607.19 999.53,-606.42 1007.32,-613.61 1010.1,-607.19"/>
</g>
<!-- ZeroGroupoid_equiv_fun_0gpd&#45;&gt;ZeroGroupoid_hasequivs_0gpd -->
<g id="edge17" class="edge">
<title>ZeroGroupoid_equiv_fun_0gpd&#45;&gt;ZeroGroupoid_hasequivs_0gpd</title>
<path fill="none" stroke="black" d="M1002.42,-574.04C1041.39,-558.83 1101.81,-535.24 1143.93,-518.8"/>
<polygon fill="black" stroke="black" points="1145.38,-521.99 1153.42,-515.1 1142.84,-515.47 1145.38,-521.99"/>
</g>
<!-- ZeroGroupoid_is1cat_0gpd -->
<g id="node12" class="node">
<title>ZeroGroupoid_is1cat_0gpd</title>
<g id="a_node12"><a xlink:href="ZeroGroupoid.html#is1cat_0gpd" xlink:title="is1cat_0gpd">
<ellipse fill="#f070d1" stroke="black" cx="1198" cy="-418.04" rx="66.09" ry="18"/>
<text text-anchor="middle" x="1198" y="-414.34" font-family="Times,serif" font-size="14.00">is1cat_0gpd</text>
</a>
</g>
</g>
<!-- ZeroGroupoid_hasequivs_0gpd&#45;&gt;ZeroGroupoid_is1cat_0gpd -->
<g id="edge18" class="edge">
<title>ZeroGroupoid_hasequivs_0gpd&#45;&gt;ZeroGroupoid_is1cat_0gpd</title>
<path fill="none" stroke="black" d="M1193.3,-480.9C1194.07,-470.75 1195.07,-457.67 1195.94,-446.15"/>
<polygon fill="black" stroke="black" points="1199.43,-446.38 1196.7,-436.15 1192.45,-445.85 1199.43,-446.38"/>
</g>
<!-- ZeroGroupoid_is2graph_0gpd -->
<g id="node13" class="node">
<title>ZeroGroupoid_is2graph_0gpd</title>
<g id="a_node13"><a xlink:href="ZeroGroupoid.html#is2graph_0gpd" xlink:title="is2graph_0gpd">
<ellipse fill="#f070d1" stroke="black" cx="1381" cy="-328.04" rx="79.09" ry="18"/>
<text text-anchor="middle" x="1381" y="-324.34" font-family="Times,serif" font-size="14.00">is2graph_0gpd</text>
</a>
</g>
</g>
<!-- ZeroGroupoid_is1cat_0gpd&#45;&gt;ZeroGroupoid_is2graph_0gpd -->
<g id="edge19" class="edge">
<title>ZeroGroupoid_is1cat_0gpd&#45;&gt;ZeroGroupoid_is2graph_0gpd</title>
<path fill="none" stroke="black" d="M1229.04,-402.11C1259.43,-387.5 1305.92,-365.14 1339.47,-349.01"/>
<polygon fill="black" stroke="black" points="1341.07,-352.12 1348.57,-344.63 1338.04,-345.81 1341.07,-352.12"/>
</g>
<!-- ZeroGroupoid_is1cat_0gpd&#45;&gt;ZeroGroupoid_is01cat_0gpd -->
<g id="edge20" class="edge">
<title>ZeroGroupoid_is1cat_0gpd&#45;&gt;ZeroGroupoid_is01cat_0gpd</title>
<path fill="none" stroke="black" d="M1198,-399.65C1198,-387.28 1198,-370.41 1198,-356.26"/>
<polygon fill="black" stroke="black" points="1201.5,-356.09 1198,-346.09 1194.5,-356.09 1201.5,-356.09"/>
</g>
<!-- ZeroGroupoid_is2graph_0gpd&#45;&gt;ZeroGroupoid_isgraph_0gpd -->
<g id="edge21" class="edge">
<title>ZeroGroupoid_is2graph_0gpd&#45;&gt;ZeroGroupoid_isgraph_0gpd</title>
<path fill="none" stroke="black" d="M1384.31,-309.97C1387.18,-295.16 1391.39,-273.47 1394.72,-256.27"/>
<polygon fill="black" stroke="black" points="1398.2,-256.72 1396.66,-246.24 1391.33,-255.39 1398.2,-256.72"/>
</g>
<!-- ZeroGroupoid_is01cat_0gpd&#45;&gt;ZeroGroupoid_isgraph_0gpd -->
<g id="edge22" class="edge">
<title>ZeroGroupoid_is01cat_0gpd&#45;&gt;ZeroGroupoid_isgraph_0gpd</title>
<path fill="none" stroke="black" d="M1229.56,-311.73C1264.44,-294.8 1320.74,-267.49 1359.01,-248.92"/>
<polygon fill="black" stroke="black" points="1360.86,-251.92 1368.33,-244.4 1357.8,-245.62 1360.86,-251.92"/>
</g>
<!-- ZeroGroupoid_fun_0gpd -->
<g id="node17" class="node">
<title>ZeroGroupoid_fun_0gpd</title>
<g id="a_node17"><a xlink:href="ZeroGroupoid.html#fun_0gpd" xlink:title="fun_0gpd">
<ellipse fill="#f070d1" stroke="black" cx="1255" cy="-228.04" rx="53.89" ry="18"/>
<text text-anchor="middle" x="1255" y="-224.34" font-family="Times,serif" font-size="14.00">fun_0gpd</text>
</a>
</g>
</g>
<!-- ZeroGroupoid_is01cat_0gpd&#45;&gt;ZeroGroupoid_fun_0gpd -->
<g id="edge23" class="edge">
<title>ZeroGroupoid_is01cat_0gpd&#45;&gt;ZeroGroupoid_fun_0gpd</title>
<path fill="none" stroke="black" d="M1207.93,-309.97C1216.76,-294.79 1229.79,-272.38 1239.91,-254.98"/>
<polygon fill="black" stroke="black" points="1243.18,-256.32 1245.19,-245.91 1237.13,-252.8 1243.18,-256.32"/>
</g>
<!-- ZeroGroupoid_is01cat_0gpd&#45;&gt;ZeroGroupoid_Build_Morphism_0Gpd -->
<g id="edge24" class="edge">
<title>ZeroGroupoid_is01cat_0gpd&#45;&gt;ZeroGroupoid_Build_Morphism_0Gpd</title>
<path fill="none" stroke="black" d="M1125.64,-327.79C998.64,-327.39 743.77,-318.36 688,-254.04 672.86,-236.58 677.09,-222.41 688,-202.04 700.28,-179.09 723.46,-162.19 745.21,-150.56"/>
<polygon fill="black" stroke="black" points="747.08,-153.54 754.41,-145.89 743.91,-147.3 747.08,-153.54"/>
</g>
<!-- ZeroGroupoid_Morphism_0Gpd -->
<g id="node23" class="node">
<title>ZeroGroupoid_Morphism_0Gpd</title>
<g id="a_node23"><a xlink:href="ZeroGroupoid.html#Morphism_0Gpd" xlink:title="Morphism_0Gpd">
<ellipse fill="#e2cdfa" stroke="black" cx="1403" cy="-129.04" rx="87.18" ry="18"/>
<text text-anchor="middle" x="1403" y="-125.34" font-family="Times,serif" font-size="14.00">Morphism_0Gpd</text>
</a>
</g>
</g>
<!-- ZeroGroupoid_isgraph_0gpd&#45;&gt;ZeroGroupoid_Morphism_0Gpd -->
<g id="edge25" class="edge">
<title>ZeroGroupoid_isgraph_0gpd&#45;&gt;ZeroGroupoid_Morphism_0Gpd</title>
<path fill="none" stroke="black" d="M1400.54,-209.7C1400.98,-195.21 1401.63,-174.3 1402.15,-157.54"/>
<polygon fill="black" stroke="black" points="1405.66,-157.33 1402.47,-147.23 1398.66,-157.12 1405.66,-157.33"/>
</g>
<!-- ZeroGroupoid_is0functor_fun_0gpd&#45;&gt;ZeroGroupoid_Morphism_0Gpd -->
<g id="edge26" class="edge">
<title>ZeroGroupoid_is0functor_fun_0gpd&#45;&gt;ZeroGroupoid_Morphism_0Gpd</title>
<path fill="none" stroke="black" d="M1419.6,-400.64C1437.11,-389.83 1457.59,-373.99 1469,-354.04 1491.25,-315.13 1479.11,-298.76 1482,-254.04 1483.49,-230.98 1491.34,-223.18 1482,-202.04 1473.06,-181.8 1455.32,-164.8 1438.9,-152.4"/>
<polygon fill="black" stroke="black" points="1440.66,-149.35 1430.5,-146.35 1436.57,-155.03 1440.66,-149.35"/>
</g>
<!-- ZeroGroupoid_fun_0gpd&#45;&gt;ZeroGroupoid_Morphism_0Gpd -->
<g id="edge27" class="edge">
<title>ZeroGroupoid_fun_0gpd&#45;&gt;ZeroGroupoid_Morphism_0Gpd</title>
<path fill="none" stroke="black" d="M1278.45,-211.67C1303.02,-195.57 1341.82,-170.14 1369.58,-151.94"/>
<polygon fill="black" stroke="black" points="1371.73,-154.72 1378.18,-146.31 1367.89,-148.86 1371.73,-154.72"/>
</g>
<!-- ZeroGroupoid_Morphism_0Gpd_sind -->
<g id="node18" class="node">
<title>ZeroGroupoid_Morphism_0Gpd_sind</title>
<g id="a_node18"><a xlink:href="ZeroGroupoid.html#Morphism_0Gpd_sind" xlink:title="Morphism_0Gpd_sind">
<ellipse fill="#f070d1" stroke="black" cx="816" cy="-228.04" rx="111.27" ry="18"/>
<ellipse fill="none" stroke="black" cx="816" cy="-228.04" rx="115.28" ry="22"/>
<ellipse fill="none" stroke="black" cx="816" cy="-228.04" rx="119.28" ry="26"/>
<text text-anchor="middle" x="816" y="-224.34" font-family="Times,serif" font-size="14.00">Morphism_0Gpd_sind</text>
</a>
</g>
</g>
<!-- ZeroGroupoid_Morphism_0Gpd_sind&#45;&gt;ZeroGroupoid_Build_Morphism_0Gpd -->
<g id="edge28" class="edge">
<title>ZeroGroupoid_Morphism_0Gpd_sind&#45;&gt;ZeroGroupoid_Build_Morphism_0Gpd</title>
<path fill="none" stroke="black" d="M810.85,-202.06C808.03,-188.37 804.53,-171.38 801.63,-157.35"/>
<polygon fill="black" stroke="black" points="805,-156.38 799.56,-147.29 798.15,-157.79 805,-156.38"/>
</g>
<!-- ZeroGroupoid_Morphism_0Gpd_sind&#45;&gt;ZeroGroupoid_Morphism_0Gpd -->
<g id="edge29" class="edge">
<title>ZeroGroupoid_Morphism_0Gpd_sind&#45;&gt;ZeroGroupoid_Morphism_0Gpd</title>
<path fill="none" stroke="black" d="M900.9,-209.66C915.25,-206.95 930.03,-204.3 944,-202.04 1104.58,-175.99 1147.3,-186.04 1307,-155.04 1319.02,-152.7 1331.77,-149.74 1343.91,-146.67"/>
<polygon fill="black" stroke="black" points="1345.13,-149.97 1353.94,-144.08 1343.38,-143.19 1345.13,-149.97"/>
</g>
<!-- ZeroGroupoid_Morphism_0Gpd_rec -->
<g id="node19" class="node">
<title>ZeroGroupoid_Morphism_0Gpd_rec</title>
<g id="a_node19"><a xlink:href="ZeroGroupoid.html#Morphism_0Gpd_rec" xlink:title="Morphism_0Gpd_rec">
<ellipse fill="#f070d1" stroke="black" cx="627" cy="-328.04" rx="106.67" ry="18"/>
<ellipse fill="none" stroke="black" cx="627" cy="-328.04" rx="110.68" ry="22"/>
<ellipse fill="none" stroke="black" cx="627" cy="-328.04" rx="114.68" ry="26"/>
<text text-anchor="middle" x="627" y="-324.34" font-family="Times,serif" font-size="14.00">Morphism_0Gpd_rec</text>
</a>
</g>
</g>
<!-- ZeroGroupoid_Morphism_0Gpd_rect -->
<g id="node21" class="node">
<title>ZeroGroupoid_Morphism_0Gpd_rect</title>
<g id="a_node21"><a xlink:href="ZeroGroupoid.html#Morphism_0Gpd_rect" xlink:title="Morphism_0Gpd_rect">
<ellipse fill="#f070d1" stroke="black" cx="549" cy="-228.04" rx="110.48" ry="18"/>
<text text-anchor="middle" x="549" y="-224.34" font-family="Times,serif" font-size="14.00">Morphism_0Gpd_rect</text>
</a>
</g>
</g>
<!-- ZeroGroupoid_Morphism_0Gpd_rec&#45;&gt;ZeroGroupoid_Morphism_0Gpd_rect -->
<g id="edge30" class="edge">
<title>ZeroGroupoid_Morphism_0Gpd_rec&#45;&gt;ZeroGroupoid_Morphism_0Gpd_rect</title>
<path fill="none" stroke="black" d="M607.32,-302.31C595.62,-287.61 580.83,-269.02 569.06,-254.25"/>
<polygon fill="black" stroke="black" points="571.5,-251.69 562.54,-246.05 566.03,-256.05 571.5,-251.69"/>
</g>
<!-- ZeroGroupoid_Morphism_0Gpd_ind -->
<g id="node20" class="node">
<title>ZeroGroupoid_Morphism_0Gpd_ind</title>
<g id="a_node20"><a xlink:href="ZeroGroupoid.html#Morphism_0Gpd_ind" xlink:title="Morphism_0Gpd_ind">
<ellipse fill="#7fffd4" stroke="black" cx="1068" cy="-228.04" rx="106.67" ry="18"/>
<ellipse fill="none" stroke="black" cx="1068" cy="-228.04" rx="110.68" ry="22"/>
<ellipse fill="none" stroke="black" cx="1068" cy="-228.04" rx="114.68" ry="26"/>
<text text-anchor="middle" x="1068" y="-224.34" font-family="Times,serif" font-size="14.00">Morphism_0Gpd_ind</text>
</a>
</g>
</g>
<!-- ZeroGroupoid_Morphism_0Gpd_ind&#45;&gt;ZeroGroupoid_Build_Morphism_0Gpd -->
<g id="edge31" class="edge">
<title>ZeroGroupoid_Morphism_0Gpd_ind&#45;&gt;ZeroGroupoid_Build_Morphism_0Gpd</title>
<path fill="none" stroke="black" d="M1008.31,-205.75C960.86,-188.83 895.09,-165.37 849.37,-149.07"/>
<polygon fill="black" stroke="black" points="850.53,-145.77 839.94,-145.71 848.18,-152.36 850.53,-145.77"/>
</g>
<!-- ZeroGroupoid_Morphism_0Gpd_ind&#45;&gt;ZeroGroupoid_Morphism_0Gpd -->
<g id="edge32" class="edge">
<title>ZeroGroupoid_Morphism_0Gpd_ind&#45;&gt;ZeroGroupoid_Morphism_0Gpd</title>
<path fill="none" stroke="black" d="M1136.6,-207.17C1197.94,-189.41 1286.86,-163.67 1344.8,-146.89"/>
<polygon fill="black" stroke="black" points="1345.9,-150.21 1354.54,-144.07 1343.96,-143.49 1345.9,-150.21"/>
</g>
<!-- ZeroGroupoid_Morphism_0Gpd_rect&#45;&gt;ZeroGroupoid_Build_Morphism_0Gpd -->
<g id="edge33" class="edge">
<title>ZeroGroupoid_Morphism_0Gpd_rect&#45;&gt;ZeroGroupoid_Build_Morphism_0Gpd</title>
<path fill="none" stroke="black" d="M589.23,-211.24C631.99,-194.45 699.66,-167.87 745.86,-149.73"/>
<polygon fill="black" stroke="black" points="747.34,-152.91 755.37,-145.99 744.78,-146.39 747.34,-152.91"/>
</g>
<!-- ZeroGroupoid_Morphism_0Gpd_rect&#45;&gt;ZeroGroupoid_Morphism_0Gpd -->
<g id="edge34" class="edge">
<title>ZeroGroupoid_Morphism_0Gpd_rect&#45;&gt;ZeroGroupoid_Morphism_0Gpd</title>
<path fill="none" stroke="black" d="M615.6,-213.63C638.47,-209.41 664.29,-205.06 688,-202.04 961.69,-167.13 1034.86,-200.43 1307,-155.04 1319.6,-152.94 1332.96,-149.95 1345.58,-146.78"/>
<polygon fill="black" stroke="black" points="1346.71,-150.1 1355.51,-144.2 1344.95,-143.32 1346.71,-150.1"/>
</g>
<!-- ZeroGroupoid_Build_Morphism_0Gpd&#45;&gt;ZeroGroupoid_ZeroGpd -->
<g id="edge35" class="edge">
<title>ZeroGroupoid_Build_Morphism_0Gpd&#45;&gt;ZeroGroupoid_ZeroGpd</title>
<path fill="none" stroke="black" d="M816.88,-111.3C834.57,-97.11 860.08,-76.66 879.45,-61.13"/>
<polygon fill="black" stroke="black" points="881.72,-63.79 887.33,-54.81 877.34,-58.33 881.72,-63.79"/>
</g>
<!-- ZeroGroupoid_Morphism_0Gpd&#45;&gt;ZeroGroupoid_ZeroGpd -->
<g id="edge36" class="edge">
<title>ZeroGroupoid_Morphism_0Gpd&#45;&gt;ZeroGroupoid_ZeroGpd</title>
<path fill="none" stroke="black" d="M1353.39,-114.15C1338.54,-110.25 1322.17,-106.22 1307,-103.04 1185.96,-77.66 1042.46,-56.94 964.48,-46.47"/>
<polygon fill="black" stroke="black" points="964.75,-42.97 954.38,-45.12 963.82,-49.91 964.75,-42.97"/>
</g>
<!-- ZeroGroupoid_is0gpd_carrier -->
<g id="node24" class="node">
<title>ZeroGroupoid_is0gpd_carrier</title>
<g id="a_node24"><a xlink:href="ZeroGroupoid.html#is0gpd_carrier" xlink:title="is0gpd_carrier">
<ellipse fill="#f070d1" stroke="black" cx="1212" cy="-129.04" rx="77.99" ry="18"/>
<ellipse fill="none" stroke="black" cx="1212" cy="-129.04" rx="81.99" ry="22"/>
<ellipse fill="none" stroke="black" cx="1212" cy="-129.04" rx="85.99" ry="26"/>
<text text-anchor="middle" x="1212" y="-125.34" font-family="Times,serif" font-size="14.00">is0gpd_carrier</text>
</a>
</g>
</g>
<!-- ZeroGroupoid_is0gpd_carrier&#45;&gt;ZeroGroupoid_ZeroGpd -->
<g id="edge37" class="edge">
<title>ZeroGroupoid_is0gpd_carrier&#45;&gt;ZeroGroupoid_ZeroGpd</title>
<path fill="none" stroke="black" d="M1151.74,-110.45C1094.17,-93.65 1008.5,-68.66 955.29,-53.13"/>
<polygon fill="black" stroke="black" points="956,-49.69 945.42,-50.25 954.04,-56.41 956,-49.69"/>
</g>
<!-- ZeroGroupoid_is01cat_carrier -->
<g id="node25" class="node">
<title>ZeroGroupoid_is01cat_carrier</title>
<g id="a_node25"><a xlink:href="ZeroGroupoid.html#is01cat_carrier" xlink:title="is01cat_carrier">
<ellipse fill="#f070d1" stroke="black" cx="1019" cy="-129.04" rx="80.68" ry="18"/>
<ellipse fill="none" stroke="black" cx="1019" cy="-129.04" rx="84.68" ry="22"/>
<ellipse fill="none" stroke="black" cx="1019" cy="-129.04" rx="88.69" ry="26"/>
<text text-anchor="middle" x="1019" y="-125.34" font-family="Times,serif" font-size="14.00">is01cat_carrier</text>
</a>
</g>
</g>
<!-- ZeroGroupoid_is01cat_carrier&#45;&gt;ZeroGroupoid_ZeroGpd -->
<g id="edge38" class="edge">
<title>ZeroGroupoid_is01cat_carrier&#45;&gt;ZeroGroupoid_ZeroGpd</title>
<path fill="none" stroke="black" d="M989.28,-104.42C972.5,-91.09 951.66,-74.52 935.15,-61.4"/>
<polygon fill="black" stroke="black" points="936.96,-58.37 926.95,-54.89 932.6,-63.85 936.96,-58.37"/>
</g>
<!-- ZeroGroupoid_isgraph_carrier -->
<g id="node26" class="node">
<title>ZeroGroupoid_isgraph_carrier</title>
<g id="a_node26"><a xlink:href="ZeroGroupoid.html#isgraph_carrier" xlink:title="isgraph_carrier">
<ellipse fill="#f070d1" stroke="black" cx="1618" cy="-129.04" rx="81.8" ry="18"/>
<ellipse fill="none" stroke="black" cx="1618" cy="-129.04" rx="85.79" ry="22"/>
<ellipse fill="none" stroke="black" cx="1618" cy="-129.04" rx="89.79" ry="26"/>
<text text-anchor="middle" x="1618" y="-125.34" font-family="Times,serif" font-size="14.00">isgraph_carrier</text>
</a>
</g>
</g>
<!-- ZeroGroupoid_isgraph_carrier&#45;&gt;ZeroGroupoid_ZeroGpd -->
<g id="edge39" class="edge">
<title>ZeroGroupoid_isgraph_carrier&#45;&gt;ZeroGroupoid_ZeroGpd</title>
<path fill="none" stroke="black" d="M1553.08,-111.05C1540.2,-108.07 1526.72,-105.23 1514,-103.04 1315.46,-68.86 1077.04,-50.15 967.47,-42.78"/>
<polygon fill="black" stroke="black" points="967.48,-39.27 957.27,-42.1 967.02,-46.26 967.48,-39.27"/>
</g>
<!-- ZeroGroupoid_carrier&#45;&gt;ZeroGroupoid_ZeroGpd -->
<g id="edge40" class="edge">
<title>ZeroGroupoid_carrier&#45;&gt;ZeroGroupoid_ZeroGpd</title>
<path fill="none" stroke="black" d="M1494.2,-481.06C1497.03,-468.67 1500.52,-451.43 1502,-436.04 1503.53,-420.11 1502.08,-416.04 1502,-400.04 1501.67,-334.04 1543.34,-151.93 1499,-103.04 1463.73,-64.15 1111.72,-46.68 967.82,-41.12"/>
<polygon fill="black" stroke="black" points="967.95,-37.63 957.82,-40.74 967.68,-44.62 967.95,-37.63"/>
</g>
<!-- ZeroGroupoid_ZeroGpd_sind -->
<g id="node28" class="node">
<title>ZeroGroupoid_ZeroGpd_sind</title>
<g id="a_node28"><a xlink:href="ZeroGroupoid.html#ZeroGpd_sind" xlink:title="ZeroGpd_sind">
<ellipse fill="#f070d1" stroke="black" cx="578" cy="-129.04" rx="75.3" ry="18"/>
<ellipse fill="none" stroke="black" cx="578" cy="-129.04" rx="79.29" ry="22"/>
<ellipse fill="none" stroke="black" cx="578" cy="-129.04" rx="83.29" ry="26"/>
<text text-anchor="middle" x="578" y="-125.34" font-family="Times,serif" font-size="14.00">ZeroGpd_sind</text>
</a>
</g>
</g>
<!-- ZeroGroupoid_ZeroGpd_sind&#45;&gt;ZeroGroupoid_Build_ZeroGpd -->
<g id="edge41" class="edge">
<title>ZeroGroupoid_ZeroGpd_sind&#45;&gt;ZeroGroupoid_Build_ZeroGpd</title>
<path fill="none" stroke="black" d="M523.6,-109.27C478.79,-93.82 415.69,-72.05 371.65,-56.86"/>
<polygon fill="black" stroke="black" points="372.6,-53.48 362.01,-53.53 370.32,-60.1 372.6,-53.48"/>
</g>
<!-- ZeroGroupoid_ZeroGpd_sind&#45;&gt;ZeroGroupoid_ZeroGpd -->
<g id="edge42" class="edge">
<title>ZeroGroupoid_ZeroGpd_sind&#45;&gt;ZeroGroupoid_ZeroGpd</title>
<path fill="none" stroke="black" d="M639.5,-111.4C702.61,-94.33 799.58,-68.1 857.8,-52.35"/>
<polygon fill="black" stroke="black" points="858.76,-55.71 867.5,-49.72 856.93,-48.96 858.76,-55.71"/>
</g>
<!-- ZeroGroupoid_ZeroGpd_rec -->
<g id="node29" class="node">
<title>ZeroGroupoid_ZeroGpd_rec</title>
<g id="a_node29"><a xlink:href="ZeroGroupoid.html#ZeroGpd_rec" xlink:title="ZeroGpd_rec">
<ellipse fill="#f070d1" stroke="black" cx="94" cy="-228.04" rx="70.37" ry="18"/>
<ellipse fill="none" stroke="black" cx="94" cy="-228.04" rx="74.38" ry="22"/>
<ellipse fill="none" stroke="black" cx="94" cy="-228.04" rx="78.39" ry="26"/>
<text text-anchor="middle" x="94" y="-224.34" font-family="Times,serif" font-size="14.00">ZeroGpd_rec</text>
</a>
</g>
</g>
<!-- ZeroGroupoid_ZeroGpd_rect -->
<g id="node31" class="node">
<title>ZeroGroupoid_ZeroGpd_rect</title>
<g id="a_node31"><a xlink:href="ZeroGroupoid.html#ZeroGpd_rect" xlink:title="ZeroGpd_rect">
<ellipse fill="#f070d1" stroke="black" cx="90" cy="-129.04" rx="74.19" ry="18"/>
<text text-anchor="middle" x="90" y="-125.34" font-family="Times,serif" font-size="14.00">ZeroGpd_rect</text>
</a>
</g>
</g>
<!-- ZeroGroupoid_ZeroGpd_rec&#45;&gt;ZeroGroupoid_ZeroGpd_rect -->
<g id="edge43" class="edge">
<title>ZeroGroupoid_ZeroGpd_rec&#45;&gt;ZeroGroupoid_ZeroGpd_rect</title>
<path fill="none" stroke="black" d="M92.96,-201.81C92.4,-188.12 91.7,-171.19 91.12,-157.21"/>
<polygon fill="black" stroke="black" points="94.62,-157.05 90.71,-147.2 87.62,-157.34 94.62,-157.05"/>
</g>
<!-- ZeroGroupoid_ZeroGpd_ind -->
<g id="node30" class="node">
<title>ZeroGroupoid_ZeroGpd_ind</title>
<g id="a_node30"><a xlink:href="ZeroGroupoid.html#ZeroGpd_ind" xlink:title="ZeroGpd_ind">
<ellipse fill="#7fffd4" stroke="black" cx="398" cy="-129.04" rx="70.37" ry="18"/>
<ellipse fill="none" stroke="black" cx="398" cy="-129.04" rx="74.38" ry="22"/>
<ellipse fill="none" stroke="black" cx="398" cy="-129.04" rx="78.39" ry="26"/>
<text text-anchor="middle" x="398" y="-125.34" font-family="Times,serif" font-size="14.00">ZeroGpd_ind</text>
</a>
</g>
</g>
<!-- ZeroGroupoid_ZeroGpd_ind&#45;&gt;ZeroGroupoid_Build_ZeroGpd -->
<g id="edge44" class="edge">
<title>ZeroGroupoid_ZeroGpd_ind&#45;&gt;ZeroGroupoid_Build_ZeroGpd</title>
<path fill="none" stroke="black" d="M376.69,-103.72C365.81,-91.31 352.6,-76.24 341.67,-63.77"/>
<polygon fill="black" stroke="black" points="344.09,-61.21 334.87,-56 338.83,-65.83 344.09,-61.21"/>
</g>
<!-- ZeroGroupoid_ZeroGpd_ind&#45;&gt;ZeroGroupoid_ZeroGpd -->
<g id="edge45" class="edge">
<title>ZeroGroupoid_ZeroGpd_ind&#45;&gt;ZeroGroupoid_ZeroGpd</title>
<path fill="none" stroke="black" d="M454.54,-110.84C464.95,-108 475.76,-105.26 486,-103.04 614.17,-75.21 766.89,-55.21 848.57,-45.56"/>
<polygon fill="black" stroke="black" points="849.13,-49.02 858.66,-44.38 848.32,-42.07 849.13,-49.02"/>
</g>
<!-- ZeroGroupoid_ZeroGpd_rect&#45;&gt;ZeroGroupoid_Build_ZeroGpd -->
<g id="edge46" class="edge">
<title>ZeroGroupoid_ZeroGpd_rect&#45;&gt;ZeroGroupoid_Build_ZeroGpd</title>
<path fill="none" stroke="black" d="M127.72,-113.44C167.18,-98.17 229.22,-74.17 272.11,-57.57"/>
<polygon fill="black" stroke="black" points="273.43,-60.81 281.49,-53.94 270.9,-54.28 273.43,-60.81"/>
</g>
<!-- ZeroGroupoid_ZeroGpd_rect&#45;&gt;ZeroGroupoid_ZeroGpd -->
<g id="edge47" class="edge">
<title>ZeroGroupoid_ZeroGpd_rect&#45;&gt;ZeroGroupoid_ZeroGpd</title>
<path fill="none" stroke="black" d="M130.96,-113.88C144.23,-109.79 159.11,-105.71 173,-103.04 419.2,-55.75 718.64,-43.36 845.5,-40.14"/>
<polygon fill="black" stroke="black" points="845.87,-43.64 855.78,-39.89 845.7,-36.64 845.87,-43.64"/>
</g>
</g>
</svg>
