<?xml version="1.0" encoding="UTF-8" standalone="no"?>
<!DOCTYPE svg PUBLIC "-//W3C//DTD SVG 1.1//EN"
 "http://www.w3.org/Graphics/SVG/1.1/DTD/svg11.dtd">
<!-- Generated by graphviz version 2.43.0 (0)
 -->
<!-- Title: HoTT_Algebra_AbGroups_Biproduct Pages: 1 -->
<svg width="3915pt" height="1962pt"
 viewBox="0.00 0.00 3915.00 1961.50" xmlns="http://www.w3.org/2000/svg" xmlns:xlink="http://www.w3.org/1999/xlink">
<g id="graph0" class="graph" transform="scale(1 1) rotate(0) translate(4 1957.5)">
<title>HoTT_Algebra_AbGroups_Biproduct</title>
<polygon fill="white" stroke="transparent" points="-4,4 -4,-1957.5 3911,-1957.5 3911,4 -4,4"/>
<g id="clust1" class="cluster">
<title>cluster_Biproduct</title>
<polygon fill="#ffffc3" stroke="black" points="8,-36.6 8,-1916.9 3899,-1916.9 3899,-36.6 8,-36.6"/>
<text text-anchor="middle" x="51.5" y="-1901.7" font-family="Times,serif" font-size="14.00">Biproduct</text>
</g>
<!-- Biproduct_ab_cotriagonal_twist -->
<g id="node1" class="node">
<title>Biproduct_ab_cotriagonal_twist</title>
<g id="a_node1"><a xlink:href="Biproduct.html#ab_cotriagonal_twist" xlink:title="ab_cotriagonal_twist">
<ellipse fill="#f070d1" stroke="black" cx="2636" cy="-1656.6" rx="106.67" ry="18"/>
<ellipse fill="none" stroke="black" cx="2636" cy="-1656.6" rx="110.68" ry="22"/>
<ellipse fill="none" stroke="black" cx="2636" cy="-1656.6" rx="114.68" ry="26"/>
<text text-anchor="middle" x="2636" y="-1652.9" font-family="Times,serif" font-size="14.00">ab_cotriagonal_twist</text>
</a>
</g>
</g>
<!-- Biproduct_ab_cotriagonal -->
<g id="node3" class="node">
<title>Biproduct_ab_cotriagonal</title>
<g id="a_node3"><a xlink:href="Biproduct.html#ab_cotriagonal" xlink:title="ab_cotriagonal">
<ellipse fill="#f070d1" stroke="black" cx="1228" cy="-1253.6" rx="78.79" ry="18"/>
<text text-anchor="middle" x="1228" y="-1249.9" font-family="Times,serif" font-size="14.00">ab_cotriagonal</text>
</a>
</g>
</g>
<!-- Biproduct_ab_cotriagonal_twist&#45;&gt;Biproduct_ab_cotriagonal -->
<g id="edge1" class="edge">
<title>Biproduct_ab_cotriagonal_twist&#45;&gt;Biproduct_ab_cotriagonal</title>
<path fill="none" stroke="black" d="M2566.66,-1635.85C2322.98,-1566.45 1508.66,-1334.53 1285.17,-1270.88"/>
<polygon fill="black" stroke="black" points="1285.86,-1267.44 1275.28,-1268.07 1283.94,-1274.17 1285.86,-1267.44"/>
</g>
<!-- Biproduct_ab_biprod_twist -->
<g id="node5" class="node">
<title>Biproduct_ab_biprod_twist</title>
<g id="a_node5"><a xlink:href="Biproduct.html#ab_biprod_twist" xlink:title="ab_biprod_twist">
<ellipse fill="#f070d1" stroke="black" cx="3807" cy="-1253.6" rx="84.49" ry="18"/>
<text text-anchor="middle" x="3807" y="-1249.9" font-family="Times,serif" font-size="14.00">ab_biprod_twist</text>
</a>
</g>
</g>
<!-- Biproduct_ab_cotriagonal_twist&#45;&gt;Biproduct_ab_biprod_twist -->
<g id="edge2" class="edge">
<title>Biproduct_ab_cotriagonal_twist&#45;&gt;Biproduct_ab_biprod_twist</title>
<path fill="none" stroke="black" d="M2697.31,-1634.6C2902.56,-1564.32 3563.43,-1338.01 3754.69,-1272.51"/>
<polygon fill="black" stroke="black" points="3755.91,-1275.8 3764.23,-1269.24 3753.64,-1269.17 3755.91,-1275.8"/>
</g>
<!-- Biproduct_ab_triagonal_twist -->
<g id="node2" class="node">
<title>Biproduct_ab_triagonal_twist</title>
<g id="a_node2"><a xlink:href="Biproduct.html#ab_triagonal_twist" xlink:title="ab_triagonal_twist">
<ellipse fill="#f070d1" stroke="black" cx="3453" cy="-1656.6" rx="96.37" ry="18"/>
<ellipse fill="none" stroke="black" cx="3453" cy="-1656.6" rx="100.38" ry="22"/>
<ellipse fill="none" stroke="black" cx="3453" cy="-1656.6" rx="104.38" ry="26"/>
<text text-anchor="middle" x="3453" y="-1652.9" font-family="Times,serif" font-size="14.00">ab_triagonal_twist</text>
</a>
</g>
</g>
<!-- Biproduct_ab_triagonal -->
<g id="node4" class="node">
<title>Biproduct_ab_triagonal</title>
<g id="a_node4"><a xlink:href="Biproduct.html#ab_triagonal" xlink:title="ab_triagonal">
<ellipse fill="#f070d1" stroke="black" cx="3120" cy="-1253.6" rx="68.49" ry="18"/>
<text text-anchor="middle" x="3120" y="-1249.9" font-family="Times,serif" font-size="14.00">ab_triagonal</text>
</a>
</g>
</g>
<!-- Biproduct_ab_triagonal_twist&#45;&gt;Biproduct_ab_triagonal -->
<g id="edge3" class="edge">
<title>Biproduct_ab_triagonal_twist&#45;&gt;Biproduct_ab_triagonal</title>
<path fill="none" stroke="black" d="M3432.42,-1630.82C3372.87,-1559.11 3200.84,-1351.95 3140.9,-1279.77"/>
<polygon fill="black" stroke="black" points="3143.24,-1277.11 3134.16,-1271.65 3137.85,-1281.58 3143.24,-1277.11"/>
</g>
<!-- Biproduct_ab_triagonal_twist&#45;&gt;Biproduct_ab_biprod_twist -->
<g id="edge4" class="edge">
<title>Biproduct_ab_triagonal_twist&#45;&gt;Biproduct_ab_biprod_twist</title>
<path fill="none" stroke="black" d="M3474.61,-1631.12C3537.78,-1559.57 3721.62,-1351.31 3785.12,-1279.38"/>
<polygon fill="black" stroke="black" points="3787.92,-1281.5 3791.92,-1271.69 3782.67,-1276.87 3787.92,-1281.5"/>
</g>
<!-- Biproduct_ab_codiagonal -->
<g id="node14" class="node">
<title>Biproduct_ab_codiagonal</title>
<g id="a_node14"><a xlink:href="Biproduct.html#ab_codiagonal" xlink:title="ab_codiagonal">
<ellipse fill="#f070d1" stroke="black" cx="1346" cy="-850.6" rx="76.09" ry="18"/>
<text text-anchor="middle" x="1346" y="-846.9" font-family="Times,serif" font-size="14.00">ab_codiagonal</text>
</a>
</g>
</g>
<!-- Biproduct_ab_cotriagonal&#45;&gt;Biproduct_ab_codiagonal -->
<g id="edge5" class="edge">
<title>Biproduct_ab_cotriagonal&#45;&gt;Biproduct_ab_codiagonal</title>
<path fill="none" stroke="black" d="M1232.99,-1235.63C1251.39,-1173.12 1315.44,-955.46 1338.03,-878.67"/>
<polygon fill="black" stroke="black" points="1341.47,-879.38 1340.94,-868.8 1334.76,-877.41 1341.47,-879.38"/>
</g>
<!-- Biproduct_functor_ab_biprod -->
<g id="node24" class="node">
<title>Biproduct_functor_ab_biprod</title>
<g id="a_node24"><a xlink:href="Biproduct.html#functor_ab_biprod" xlink:title="functor_ab_biprod">
<ellipse fill="#f070d1" stroke="black" cx="2039" cy="-850.6" rx="94.78" ry="18"/>
<text text-anchor="middle" x="2039" y="-846.9" font-family="Times,serif" font-size="14.00">functor_ab_biprod</text>
</a>
</g>
</g>
<!-- Biproduct_ab_cotriagonal&#45;&gt;Biproduct_functor_ab_biprod -->
<g id="edge6" class="edge">
<title>Biproduct_ab_cotriagonal&#45;&gt;Biproduct_functor_ab_biprod</title>
<path fill="none" stroke="black" d="M1259.79,-1236.88C1386.33,-1174.31 1854.21,-942.97 1997.21,-872.26"/>
<polygon fill="black" stroke="black" points="1999.13,-875.22 2006.55,-867.65 1996.03,-868.94 1999.13,-875.22"/>
</g>
<!-- Biproduct_ab_diagonal -->
<g id="node12" class="node">
<title>Biproduct_ab_diagonal</title>
<g id="a_node12"><a xlink:href="Biproduct.html#ab_diagonal" xlink:title="ab_diagonal">
<ellipse fill="#f070d1" stroke="black" cx="3120" cy="-850.6" rx="65.79" ry="18"/>
<text text-anchor="middle" x="3120" y="-846.9" font-family="Times,serif" font-size="14.00">ab_diagonal</text>
</a>
</g>
</g>
<!-- Biproduct_ab_triagonal&#45;&gt;Biproduct_ab_diagonal -->
<g id="edge7" class="edge">
<title>Biproduct_ab_triagonal&#45;&gt;Biproduct_ab_diagonal</title>
<path fill="none" stroke="black" d="M3120,-1235.37C3120,-1172.64 3120,-956.13 3120,-879.09"/>
<polygon fill="black" stroke="black" points="3123.5,-878.77 3120,-868.77 3116.5,-878.77 3123.5,-878.77"/>
</g>
<!-- Biproduct_ab_triagonal&#45;&gt;Biproduct_functor_ab_biprod -->
<g id="edge8" class="edge">
<title>Biproduct_ab_triagonal&#45;&gt;Biproduct_functor_ab_biprod</title>
<path fill="none" stroke="black" d="M3082.16,-1238.56C2919.07,-1178.06 2276.04,-939.53 2089.79,-870.44"/>
<polygon fill="black" stroke="black" points="2090.83,-867.09 2080.24,-866.9 2088.4,-873.66 2090.83,-867.09"/>
</g>
<!-- Biproduct_ab_biprod -->
<g id="node37" class="node">
<title>Biproduct_ab_biprod</title>
<g id="a_node37"><a xlink:href="Biproduct.html#ab_biprod" xlink:title="ab_biprod">
<ellipse fill="#f070d1" stroke="black" cx="2008" cy="-155.6" rx="56.59" ry="18"/>
<text text-anchor="middle" x="2008" y="-151.9" font-family="Times,serif" font-size="14.00">ab_biprod</text>
</a>
</g>
</g>
<!-- Biproduct_ab_biprod_twist&#45;&gt;Biproduct_ab_biprod -->
<g id="edge9" class="edge">
<title>Biproduct_ab_biprod_twist&#45;&gt;Biproduct_ab_biprod</title>
<path fill="none" stroke="black" d="M3788.54,-1235.97C3689.33,-1147.25 3207.24,-724.04 2755,-466.6 2505.76,-324.71 2178.69,-211.89 2056.67,-172.08"/>
<polygon fill="black" stroke="black" points="2057.46,-168.66 2046.87,-168.9 2055.3,-175.32 2057.46,-168.66"/>
</g>
<!-- Biproduct_ab_commute_id_codiagonal -->
<g id="node6" class="node">
<title>Biproduct_ab_commute_id_codiagonal</title>
<g id="a_node6"><a xlink:href="Biproduct.html#ab_commute_id_codiagonal" xlink:title="ab_commute_id_codiagonal">
<ellipse fill="#f070d1" stroke="black" cx="2360" cy="-1253.6" rx="136.48" ry="18"/>
<ellipse fill="none" stroke="black" cx="2360" cy="-1253.6" rx="140.48" ry="22"/>
<ellipse fill="none" stroke="black" cx="2360" cy="-1253.6" rx="144.48" ry="26"/>
<text text-anchor="middle" x="2360" y="-1249.9" font-family="Times,serif" font-size="14.00">ab_commute_id_codiagonal</text>
</a>
</g>
</g>
<!-- Biproduct_ab_biprod_assoc -->
<g id="node8" class="node">
<title>Biproduct_ab_biprod_assoc</title>
<g id="a_node8"><a xlink:href="Biproduct.html#ab_biprod_assoc" xlink:title="ab_biprod_assoc">
<ellipse fill="#f070d1" stroke="black" cx="2360" cy="-850.6" rx="86.38" ry="18"/>
<text text-anchor="middle" x="2360" y="-846.9" font-family="Times,serif" font-size="14.00">ab_biprod_assoc</text>
</a>
</g>
</g>
<!-- Biproduct_ab_commute_id_codiagonal&#45;&gt;Biproduct_ab_biprod_assoc -->
<g id="edge10" class="edge">
<title>Biproduct_ab_commute_id_codiagonal&#45;&gt;Biproduct_ab_biprod_assoc</title>
<path fill="none" stroke="black" d="M2360,-1227.52C2360,-1156.24 2360,-952.93 2360,-878.95"/>
<polygon fill="black" stroke="black" points="2363.5,-878.61 2360,-868.61 2356.5,-878.61 2363.5,-878.61"/>
</g>
<!-- Biproduct_ab_commute_id_codiagonal&#45;&gt;Biproduct_ab_codiagonal -->
<g id="edge11" class="edge">
<title>Biproduct_ab_commute_id_codiagonal&#45;&gt;Biproduct_ab_codiagonal</title>
<path fill="none" stroke="black" d="M2302.21,-1229.75C2119.83,-1157.62 1558.73,-935.73 1392.73,-870.08"/>
<polygon fill="black" stroke="black" points="1393.87,-866.77 1383.28,-866.34 1391.3,-873.28 1393.87,-866.77"/>
</g>
<!-- Biproduct_ab_commute_id_codiagonal&#45;&gt;Biproduct_functor_ab_biprod -->
<g id="edge12" class="edge">
<title>Biproduct_ab_commute_id_codiagonal&#45;&gt;Biproduct_functor_ab_biprod</title>
<path fill="none" stroke="black" d="M2340.16,-1227.82C2282.76,-1156.11 2116.93,-948.95 2059.15,-876.77"/>
<polygon fill="black" stroke="black" points="2061.63,-874.27 2052.65,-868.65 2056.17,-878.64 2061.63,-874.27"/>
</g>
<!-- Biproduct_ab_commute_id_diagonal -->
<g id="node7" class="node">
<title>Biproduct_ab_commute_id_diagonal</title>
<g id="a_node7"><a xlink:href="Biproduct.html#ab_commute_id_diagonal" xlink:title="ab_commute_id_diagonal">
<ellipse fill="#f070d1" stroke="black" cx="2900" cy="-1253.6" rx="126.17" ry="18"/>
<ellipse fill="none" stroke="black" cx="2900" cy="-1253.6" rx="130.18" ry="22"/>
<ellipse fill="none" stroke="black" cx="2900" cy="-1253.6" rx="134.18" ry="26"/>
<text text-anchor="middle" x="2900" y="-1249.9" font-family="Times,serif" font-size="14.00">ab_commute_id_diagonal</text>
</a>
</g>
</g>
<!-- Biproduct_ab_commute_id_diagonal&#45;&gt;Biproduct_ab_biprod_assoc -->
<g id="edge13" class="edge">
<title>Biproduct_ab_commute_id_diagonal&#45;&gt;Biproduct_ab_biprod_assoc</title>
<path fill="none" stroke="black" d="M2867.03,-1228.12C2769.66,-1155.81 2484.3,-943.9 2390.36,-874.15"/>
<polygon fill="black" stroke="black" points="2392.25,-871.19 2382.14,-868.04 2388.08,-876.81 2392.25,-871.19"/>
</g>
<!-- Biproduct_ab_commute_id_diagonal&#45;&gt;Biproduct_ab_diagonal -->
<g id="edge14" class="edge">
<title>Biproduct_ab_commute_id_diagonal&#45;&gt;Biproduct_ab_diagonal</title>
<path fill="none" stroke="black" d="M2913.76,-1227.52C2953.1,-1155.81 3065.78,-950.42 3105.74,-877.6"/>
<polygon fill="black" stroke="black" points="3108.93,-879.06 3110.67,-868.61 3102.79,-875.7 3108.93,-879.06"/>
</g>
<!-- Biproduct_ab_commute_id_diagonal&#45;&gt;Biproduct_functor_ab_biprod -->
<g id="edge15" class="edge">
<title>Biproduct_ab_commute_id_diagonal&#45;&gt;Biproduct_functor_ab_biprod</title>
<path fill="none" stroke="black" d="M2849.99,-1229.31C2695.46,-1157.34 2227.35,-939.32 2082.31,-871.77"/>
<polygon fill="black" stroke="black" points="2083.78,-868.59 2073.23,-867.54 2080.82,-874.94 2083.78,-868.59"/>
</g>
<!-- Biproduct_ab_biprod_assoc&#45;&gt;Biproduct_ab_biprod -->
<g id="edge16" class="edge">
<title>Biproduct_ab_biprod_assoc&#45;&gt;Biproduct_ab_biprod</title>
<path fill="none" stroke="black" d="M2352.58,-832.59C2328.85,-778.49 2252.23,-605.76 2181,-466.6 2126.03,-359.21 2053.98,-234.8 2023.1,-182.19"/>
<polygon fill="black" stroke="black" points="2026.09,-180.35 2018,-173.51 2020.05,-183.9 2026.09,-180.35"/>
</g>
<!-- Biproduct_ab_diagonal_swap -->
<g id="node9" class="node">
<title>Biproduct_ab_diagonal_swap</title>
<g id="a_node9"><a xlink:href="Biproduct.html#ab_diagonal_swap" xlink:title="ab_diagonal_swap">
<ellipse fill="#f070d1" stroke="black" cx="3602" cy="-1253.6" rx="94.46" ry="18"/>
<ellipse fill="none" stroke="black" cx="3602" cy="-1253.6" rx="98.47" ry="22"/>
<ellipse fill="none" stroke="black" cx="3602" cy="-1253.6" rx="102.48" ry="26"/>
<text text-anchor="middle" x="3602" y="-1249.9" font-family="Times,serif" font-size="14.00">ab_diagonal_swap</text>
</a>
</g>
</g>
<!-- Biproduct_ab_diagonal_swap&#45;&gt;Biproduct_ab_diagonal -->
<g id="edge17" class="edge">
<title>Biproduct_ab_diagonal_swap&#45;&gt;Biproduct_ab_diagonal</title>
<path fill="none" stroke="black" d="M3572.93,-1228.42C3486.46,-1156.48 3231.63,-944.47 3147.38,-874.38"/>
<polygon fill="black" stroke="black" points="3149.47,-871.57 3139.55,-867.86 3145,-876.95 3149.47,-871.57"/>
</g>
<!-- Biproduct_direct_sum_swap -->
<g id="node15" class="node">
<title>Biproduct_direct_sum_swap</title>
<g id="a_node15"><a xlink:href="Biproduct.html#direct_sum_swap" xlink:title="direct_sum_swap">
<ellipse fill="#f070d1" stroke="black" cx="2595" cy="-850.6" rx="90.18" ry="18"/>
<text text-anchor="middle" x="2595" y="-846.9" font-family="Times,serif" font-size="14.00">direct_sum_swap</text>
</a>
</g>
</g>
<!-- Biproduct_ab_diagonal_swap&#45;&gt;Biproduct_direct_sum_swap -->
<g id="edge18" class="edge">
<title>Biproduct_ab_diagonal_swap&#45;&gt;Biproduct_direct_sum_swap</title>
<path fill="none" stroke="black" d="M3548.57,-1231.32C3372.36,-1161.15 2811.28,-937.73 2643.1,-870.75"/>
<polygon fill="black" stroke="black" points="2644.11,-867.39 2633.52,-866.94 2641.52,-873.89 2644.11,-867.39"/>
</g>
<!-- Biproduct_ab_codiagonal_swap -->
<g id="node10" class="node">
<title>Biproduct_ab_codiagonal_swap</title>
<g id="a_node10"><a xlink:href="Biproduct.html#ab_codiagonal_swap" xlink:title="ab_codiagonal_swap">
<ellipse fill="#f070d1" stroke="black" cx="2635" cy="-1253.6" rx="104.77" ry="18"/>
<ellipse fill="none" stroke="black" cx="2635" cy="-1253.6" rx="108.78" ry="22"/>
<ellipse fill="none" stroke="black" cx="2635" cy="-1253.6" rx="112.78" ry="26"/>
<text text-anchor="middle" x="2635" y="-1249.9" font-family="Times,serif" font-size="14.00">ab_codiagonal_swap</text>
</a>
</g>
</g>
<!-- Biproduct_ab_codiagonal_swap&#45;&gt;Biproduct_ab_codiagonal -->
<g id="edge19" class="edge">
<title>Biproduct_ab_codiagonal_swap&#45;&gt;Biproduct_ab_codiagonal</title>
<path fill="none" stroke="black" d="M2569.75,-1232.3C2345.05,-1162.4 1605.82,-932.43 1399.75,-868.32"/>
<polygon fill="black" stroke="black" points="1400.65,-864.94 1390.06,-865.31 1398.57,-871.62 1400.65,-864.94"/>
</g>
<!-- Biproduct_ab_codiagonal_swap&#45;&gt;Biproduct_direct_sum_swap -->
<g id="edge20" class="edge">
<title>Biproduct_ab_codiagonal_swap&#45;&gt;Biproduct_direct_sum_swap</title>
<path fill="none" stroke="black" d="M2632.5,-1227.52C2625.39,-1156.24 2605.11,-952.93 2597.73,-878.95"/>
<polygon fill="black" stroke="black" points="2601.17,-878.21 2596.7,-868.61 2594.21,-878.91 2601.17,-878.21"/>
</g>
<!-- Biproduct_ab_biprod_corec_diagonal -->
<g id="node11" class="node">
<title>Biproduct_ab_biprod_corec_diagonal</title>
<g id="a_node11"><a xlink:href="Biproduct.html#ab_biprod_corec_diagonal" xlink:title="ab_biprod_corec_diagonal">
<ellipse fill="#f070d1" stroke="black" cx="3344" cy="-1253.6" rx="129.98" ry="18"/>
<ellipse fill="none" stroke="black" cx="3344" cy="-1253.6" rx="133.98" ry="22"/>
<ellipse fill="none" stroke="black" cx="3344" cy="-1253.6" rx="137.98" ry="26"/>
<text text-anchor="middle" x="3344" y="-1249.9" font-family="Times,serif" font-size="14.00">ab_biprod_corec_diagonal</text>
</a>
</g>
</g>
<!-- Biproduct_ab_biprod_corec_diagonal&#45;&gt;Biproduct_ab_diagonal -->
<g id="edge21" class="edge">
<title>Biproduct_ab_biprod_corec_diagonal&#45;&gt;Biproduct_ab_diagonal</title>
<path fill="none" stroke="black" d="M3329.99,-1227.52C3289.93,-1155.81 3175.2,-950.42 3134.52,-877.6"/>
<polygon fill="black" stroke="black" points="3137.44,-875.64 3129.5,-868.61 3131.32,-879.05 3137.44,-875.64"/>
</g>
<!-- Biproduct_ab_biprod_corec_diagonal&#45;&gt;Biproduct_functor_ab_biprod -->
<g id="edge22" class="edge">
<title>Biproduct_ab_biprod_corec_diagonal&#45;&gt;Biproduct_functor_ab_biprod</title>
<path fill="none" stroke="black" d="M3273.84,-1231.04C3042.71,-1160.02 2307.94,-934.24 2096.46,-869.26"/>
<polygon fill="black" stroke="black" points="2097.37,-865.88 2086.79,-866.28 2095.32,-872.57 2097.37,-865.88"/>
</g>
<!-- Biproduct_ab_biprod_corec -->
<g id="node26" class="node">
<title>Biproduct_ab_biprod_corec</title>
<g id="a_node26"><a xlink:href="Biproduct.html#ab_biprod_corec" xlink:title="ab_biprod_corec">
<ellipse fill="#f070d1" stroke="black" cx="2660" cy="-484.6" rx="85.59" ry="18"/>
<text text-anchor="middle" x="2660" y="-480.9" font-family="Times,serif" font-size="14.00">ab_biprod_corec</text>
</a>
</g>
</g>
<!-- Biproduct_ab_diagonal&#45;&gt;Biproduct_ab_biprod_corec -->
<g id="edge23" class="edge">
<title>Biproduct_ab_diagonal&#45;&gt;Biproduct_ab_biprod_corec</title>
<path fill="none" stroke="black" d="M3099.34,-833.25C3025.49,-774.81 2774.43,-576.15 2688.85,-508.43"/>
<polygon fill="black" stroke="black" points="2690.88,-505.57 2680.86,-502.11 2686.53,-511.06 2690.88,-505.57"/>
</g>
<!-- Biproduct_ab_codiagonal_natural -->
<g id="node13" class="node">
<title>Biproduct_ab_codiagonal_natural</title>
<g id="a_node13"><a xlink:href="Biproduct.html#ab_codiagonal_natural" xlink:title="ab_codiagonal_natural">
<ellipse fill="#f070d1" stroke="black" cx="1009" cy="-1253.6" rx="114.29" ry="18"/>
<ellipse fill="none" stroke="black" cx="1009" cy="-1253.6" rx="118.28" ry="22"/>
<ellipse fill="none" stroke="black" cx="1009" cy="-1253.6" rx="122.28" ry="26"/>
<text text-anchor="middle" x="1009" y="-1249.9" font-family="Times,serif" font-size="14.00">ab_codiagonal_natural</text>
</a>
</g>
</g>
<!-- Biproduct_ab_codiagonal_natural&#45;&gt;Biproduct_ab_codiagonal -->
<g id="edge24" class="edge">
<title>Biproduct_ab_codiagonal_natural&#45;&gt;Biproduct_ab_codiagonal</title>
<path fill="none" stroke="black" d="M1029.83,-1227.82C1090.21,-1155.97 1264.89,-948.11 1325.22,-876.33"/>
<polygon fill="black" stroke="black" points="1327.92,-878.56 1331.67,-868.65 1322.56,-874.05 1327.92,-878.56"/>
</g>
<!-- Biproduct_ab_codiagonal_natural&#45;&gt;Biproduct_functor_ab_biprod -->
<g id="edge25" class="edge">
<title>Biproduct_ab_codiagonal_natural&#45;&gt;Biproduct_functor_ab_biprod</title>
<path fill="none" stroke="black" d="M1065.84,-1230.47C1248.49,-1159.36 1818.45,-937.46 1989.8,-870.76"/>
<polygon fill="black" stroke="black" points="1991.27,-873.94 1999.32,-867.05 1988.73,-867.41 1991.27,-873.94"/>
</g>
<!-- Biproduct_ab_biprod_rec -->
<g id="node32" class="node">
<title>Biproduct_ab_biprod_rec</title>
<g id="a_node32"><a xlink:href="Biproduct.html#ab_biprod_rec" xlink:title="ab_biprod_rec">
<ellipse fill="#f070d1" stroke="black" cx="696" cy="-484.6" rx="75.29" ry="18"/>
<text text-anchor="middle" x="696" y="-480.9" font-family="Times,serif" font-size="14.00">ab_biprod_rec</text>
</a>
</g>
</g>
<!-- Biproduct_ab_codiagonal&#45;&gt;Biproduct_ab_biprod_rec -->
<g id="edge26" class="edge">
<title>Biproduct_ab_codiagonal&#45;&gt;Biproduct_ab_biprod_rec</title>
<path fill="none" stroke="black" d="M1317.65,-833.72C1213.33,-775.3 850.74,-572.25 733.14,-506.4"/>
<polygon fill="black" stroke="black" points="734.57,-503.18 724.13,-501.35 731.15,-509.29 734.57,-503.18"/>
</g>
<!-- Biproduct_direct_sum_swap&#45;&gt;Biproduct_ab_biprod -->
<g id="edge27" class="edge">
<title>Biproduct_direct_sum_swap&#45;&gt;Biproduct_ab_biprod</title>
<path fill="none" stroke="black" d="M2580.78,-832.81C2502.29,-740.14 2122.09,-291.29 2028.73,-181.08"/>
<polygon fill="black" stroke="black" points="2031.17,-178.53 2022.03,-173.17 2025.82,-183.06 2031.17,-178.53"/>
</g>
<!-- Biproduct_equiv_path_biprod_corec -->
<g id="node16" class="node">
<title>Biproduct_equiv_path_biprod_corec</title>
<g id="a_node16"><a xlink:href="Biproduct.html#equiv_path_biprod_corec" xlink:title="equiv_path_biprod_corec">
<ellipse fill="#f070d1" stroke="black" cx="735" cy="-1253.6" rx="125.38" ry="18"/>
<ellipse fill="none" stroke="black" cx="735" cy="-1253.6" rx="129.38" ry="22"/>
<ellipse fill="none" stroke="black" cx="735" cy="-1253.6" rx="133.38" ry="26"/>
<text text-anchor="middle" x="735" y="-1249.9" font-family="Times,serif" font-size="14.00">equiv_path_biprod_corec</text>
</a>
</g>
</g>
<!-- Biproduct_ab_biprod_corec_eta_ -->
<g id="node17" class="node">
<title>Biproduct_ab_biprod_corec_eta_</title>
<g id="a_node17"><a xlink:href="Biproduct.html#ab_biprod_corec_eta'" xlink:title="ab_biprod_corec_eta&#39;">
<ellipse fill="#f070d1" stroke="black" cx="1145" cy="-850.6" rx="107.48" ry="18"/>
<text text-anchor="middle" x="1145" y="-846.9" font-family="Times,serif" font-size="14.00">ab_biprod_corec_eta&#39;</text>
</a>
</g>
</g>
<!-- Biproduct_equiv_path_biprod_corec&#45;&gt;Biproduct_ab_biprod_corec_eta_ -->
<g id="edge28" class="edge">
<title>Biproduct_equiv_path_biprod_corec&#45;&gt;Biproduct_ab_biprod_corec_eta_</title>
<path fill="none" stroke="black" d="M760.34,-1227.82C833.95,-1155.82 1047.19,-947.27 1120.16,-875.89"/>
<polygon fill="black" stroke="black" points="1122.87,-878.14 1127.57,-868.65 1117.97,-873.14 1122.87,-878.14"/>
</g>
<!-- Biproduct_ab_biprod_decompose -->
<g id="node18" class="node">
<title>Biproduct_ab_biprod_decompose</title>
<g id="a_node18"><a xlink:href="Biproduct.html#ab_biprod_decompose" xlink:title="ab_biprod_decompose">
<ellipse fill="#f070d1" stroke="black" cx="1559" cy="-484.6" rx="112.38" ry="18"/>
<text text-anchor="middle" x="1559" y="-480.9" font-family="Times,serif" font-size="14.00">ab_biprod_decompose</text>
</a>
</g>
</g>
<!-- Biproduct_ab_biprod_corec_eta_&#45;&gt;Biproduct_ab_biprod_decompose -->
<g id="edge29" class="edge">
<title>Biproduct_ab_biprod_corec_eta_&#45;&gt;Biproduct_ab_biprod_decompose</title>
<path fill="none" stroke="black" d="M1164.14,-832.77C1230.88,-774.09 1453.54,-578.32 1531.64,-509.65"/>
<polygon fill="black" stroke="black" points="1534.39,-511.9 1539.59,-502.67 1529.77,-506.64 1534.39,-511.9"/>
</g>
<!-- Biproduct_ab_biprod_inr -->
<g id="node35" class="node">
<title>Biproduct_ab_biprod_inr</title>
<g id="a_node35"><a xlink:href="Biproduct.html#ab_biprod_inr" xlink:title="ab_biprod_inr">
<ellipse fill="#f070d1" stroke="black" cx="941" cy="-484.6" rx="74.19" ry="18"/>
<text text-anchor="middle" x="941" y="-480.9" font-family="Times,serif" font-size="14.00">ab_biprod_inr</text>
</a>
</g>
</g>
<!-- Biproduct_ab_biprod_corec_eta_&#45;&gt;Biproduct_ab_biprod_inr -->
<g id="edge30" class="edge">
<title>Biproduct_ab_biprod_corec_eta_&#45;&gt;Biproduct_ab_biprod_inr</title>
<path fill="none" stroke="black" d="M1135.43,-832.53C1102.71,-774.14 995.07,-582.08 955.64,-511.72"/>
<polygon fill="black" stroke="black" points="958.49,-509.64 950.55,-502.63 952.38,-513.07 958.49,-509.64"/>
</g>
<!-- Biproduct_ab_biprod_inl -->
<g id="node36" class="node">
<title>Biproduct_ab_biprod_inl</title>
<g id="a_node36"><a xlink:href="Biproduct.html#ab_biprod_inl" xlink:title="ab_biprod_inl">
<ellipse fill="#f070d1" stroke="black" cx="1106" cy="-484.6" rx="72.59" ry="18"/>
<text text-anchor="middle" x="1106" y="-480.9" font-family="Times,serif" font-size="14.00">ab_biprod_inl</text>
</a>
</g>
</g>
<!-- Biproduct_ab_biprod_corec_eta_&#45;&gt;Biproduct_ab_biprod_inl -->
<g id="edge31" class="edge">
<title>Biproduct_ab_biprod_corec_eta_&#45;&gt;Biproduct_ab_biprod_inl</title>
<path fill="none" stroke="black" d="M1143.17,-832.53C1136.94,-774.38 1116.5,-583.64 1108.89,-512.59"/>
<polygon fill="black" stroke="black" points="1112.37,-512.2 1107.82,-502.63 1105.41,-512.95 1112.37,-512.2"/>
</g>
<!-- Biproduct_ab_biprod_decompose&#45;&gt;Biproduct_ab_biprod -->
<g id="edge32" class="edge">
<title>Biproduct_ab_biprod_decompose&#45;&gt;Biproduct_ab_biprod</title>
<path fill="none" stroke="black" d="M1581.88,-466.93C1656.7,-412.44 1894.1,-239.55 1978.15,-178.34"/>
<polygon fill="black" stroke="black" points="1980.46,-180.99 1986.48,-172.27 1976.34,-175.33 1980.46,-180.99"/>
</g>
<!-- Biproduct_functor_ab_biprod_surjection -->
<g id="node19" class="node">
<title>Biproduct_functor_ab_biprod_surjection</title>
<g id="a_node19"><a xlink:href="Biproduct.html#functor_ab_biprod_surjection" xlink:title="functor_ab_biprod_surjection">
<ellipse fill="#f070d1" stroke="black" cx="430" cy="-1253.6" rx="145.67" ry="18"/>
<ellipse fill="none" stroke="black" cx="430" cy="-1253.6" rx="149.67" ry="22"/>
<ellipse fill="none" stroke="black" cx="430" cy="-1253.6" rx="153.67" ry="26"/>
<text text-anchor="middle" x="430" y="-1249.9" font-family="Times,serif" font-size="14.00">functor_ab_biprod_surjection</text>
</a>
</g>
</g>
<!-- Biproduct_functor_ab_biprod_surjection&#45;&gt;Biproduct_functor_ab_biprod -->
<g id="edge33" class="edge">
<title>Biproduct_functor_ab_biprod_surjection&#45;&gt;Biproduct_functor_ab_biprod</title>
<path fill="none" stroke="black" d="M513.68,-1231.74C797.58,-1160.99 1720.5,-930.98 1974.04,-867.79"/>
<polygon fill="black" stroke="black" points="1974.98,-871.16 1983.84,-865.35 1973.29,-864.37 1974.98,-871.16"/>
</g>
<!-- Biproduct_functor_ab_biprod_surjection&#45;&gt;Biproduct_ab_biprod_inr -->
<g id="edge34" class="edge">
<title>Biproduct_functor_ab_biprod_surjection&#45;&gt;Biproduct_ab_biprod_inr</title>
<path fill="none" stroke="black" d="M499.5,-1230.32C624.51,-1186.03 884,-1073.78 989,-876.6 1054.74,-753.15 984.82,-577.42 954.03,-511.71"/>
<polygon fill="black" stroke="black" points="957.09,-510 949.62,-502.49 950.77,-513.02 957.09,-510"/>
</g>
<!-- Biproduct_functor_ab_biprod_surjection&#45;&gt;Biproduct_ab_biprod_inl -->
<g id="edge35" class="edge">
<title>Biproduct_functor_ab_biprod_surjection&#45;&gt;Biproduct_ab_biprod_inl</title>
<path fill="none" stroke="black" d="M491.74,-1229.72C609.96,-1182.66 868.51,-1063.47 1003,-876.6 1046.08,-816.74 1087.83,-591.74 1101.41,-513.01"/>
<polygon fill="black" stroke="black" points="1104.9,-513.35 1103.14,-502.9 1098,-512.17 1104.9,-513.35"/>
</g>
<!-- Biproduct_functor_ab_biprod_embedding -->
<g id="node20" class="node">
<title>Biproduct_functor_ab_biprod_embedding</title>
<g id="a_node20"><a xlink:href="Biproduct.html#functor_ab_biprod_embedding" xlink:title="functor_ab_biprod_embedding">
<ellipse fill="#f070d1" stroke="black" cx="2039" cy="-1253.6" rx="150.58" ry="18"/>
<ellipse fill="none" stroke="black" cx="2039" cy="-1253.6" rx="154.58" ry="22"/>
<ellipse fill="none" stroke="black" cx="2039" cy="-1253.6" rx="158.57" ry="26"/>
<text text-anchor="middle" x="2039" y="-1249.9" font-family="Times,serif" font-size="14.00">functor_ab_biprod_embedding</text>
</a>
</g>
</g>
<!-- Biproduct_functor_ab_biprod_embedding&#45;&gt;Biproduct_functor_ab_biprod -->
<g id="edge36" class="edge">
<title>Biproduct_functor_ab_biprod_embedding&#45;&gt;Biproduct_functor_ab_biprod</title>
<path fill="none" stroke="black" d="M2039,-1227.52C2039,-1156.24 2039,-952.93 2039,-878.95"/>
<polygon fill="black" stroke="black" points="2042.5,-878.61 2039,-868.61 2035.5,-878.61 2042.5,-878.61"/>
</g>
<!-- Biproduct_equiv_functor_ab_biprod -->
<g id="node21" class="node">
<title>Biproduct_equiv_functor_ab_biprod</title>
<g id="a_node21"><a xlink:href="Biproduct.html#equiv_functor_ab_biprod" xlink:title="equiv_functor_ab_biprod">
<ellipse fill="#f070d1" stroke="black" cx="1457" cy="-1656.6" rx="124.27" ry="18"/>
<ellipse fill="none" stroke="black" cx="1457" cy="-1656.6" rx="128.27" ry="22"/>
<ellipse fill="none" stroke="black" cx="1457" cy="-1656.6" rx="132.28" ry="26"/>
<text text-anchor="middle" x="1457" y="-1652.9" font-family="Times,serif" font-size="14.00">equiv_functor_ab_biprod</text>
</a>
</g>
</g>
<!-- Biproduct_isequiv_functor_ab_biprod -->
<g id="node22" class="node">
<title>Biproduct_isequiv_functor_ab_biprod</title>
<g id="a_node22"><a xlink:href="Biproduct.html#isequiv_functor_ab_biprod" xlink:title="isequiv_functor_ab_biprod">
<ellipse fill="#f070d1" stroke="black" cx="1457" cy="-1253.6" rx="131.88" ry="18"/>
<text text-anchor="middle" x="1457" y="-1249.9" font-family="Times,serif" font-size="14.00">isequiv_functor_ab_biprod</text>
</a>
</g>
</g>
<!-- Biproduct_equiv_functor_ab_biprod&#45;&gt;Biproduct_isequiv_functor_ab_biprod -->
<g id="edge37" class="edge">
<title>Biproduct_equiv_functor_ab_biprod&#45;&gt;Biproduct_isequiv_functor_ab_biprod</title>
<path fill="none" stroke="black" d="M1457,-1630.52C1457,-1559.24 1457,-1355.93 1457,-1281.95"/>
<polygon fill="black" stroke="black" points="1460.5,-1281.61 1457,-1271.61 1453.5,-1281.61 1460.5,-1281.61"/>
</g>
<!-- Biproduct_isequiv_functor_ab_biprod&#45;&gt;Biproduct_functor_ab_biprod -->
<g id="edge38" class="edge">
<title>Biproduct_isequiv_functor_ab_biprod&#45;&gt;Biproduct_functor_ab_biprod</title>
<path fill="none" stroke="black" d="M1481.27,-1235.88C1573.44,-1172.37 1901.92,-946.05 2006.66,-873.88"/>
<polygon fill="black" stroke="black" points="2008.7,-876.72 2014.95,-868.17 2004.73,-870.96 2008.7,-876.72"/>
</g>
<!-- Biproduct_ab_biprod_functor_beta -->
<g id="node23" class="node">
<title>Biproduct_ab_biprod_functor_beta</title>
<g id="a_node23"><a xlink:href="Biproduct.html#ab_biprod_functor_beta" xlink:title="ab_biprod_functor_beta">
<ellipse fill="#f070d1" stroke="black" cx="1735" cy="-1253.6" rx="119.67" ry="18"/>
<ellipse fill="none" stroke="black" cx="1735" cy="-1253.6" rx="123.68" ry="22"/>
<ellipse fill="none" stroke="black" cx="1735" cy="-1253.6" rx="127.68" ry="26"/>
<text text-anchor="middle" x="1735" y="-1249.9" font-family="Times,serif" font-size="14.00">ab_biprod_functor_beta</text>
</a>
</g>
</g>
<!-- Biproduct_ab_biprod_functor_beta&#45;&gt;Biproduct_functor_ab_biprod -->
<g id="edge39" class="edge">
<title>Biproduct_ab_biprod_functor_beta&#45;&gt;Biproduct_functor_ab_biprod</title>
<path fill="none" stroke="black" d="M1753.79,-1227.82C1808.15,-1156.11 1965.2,-948.95 2019.92,-876.77"/>
<polygon fill="black" stroke="black" points="2022.82,-878.73 2026.07,-868.65 2017.24,-874.5 2022.82,-878.73"/>
</g>
<!-- Biproduct_functor_ab_biprod&#45;&gt;Biproduct_ab_biprod_corec -->
<g id="edge40" class="edge">
<title>Biproduct_functor_ab_biprod&#45;&gt;Biproduct_ab_biprod_corec</title>
<path fill="none" stroke="black" d="M2066.89,-833.25C2167.42,-774.33 2511.2,-572.82 2623.9,-506.76"/>
<polygon fill="black" stroke="black" points="2625.68,-509.77 2632.54,-501.7 2622.14,-503.73 2625.68,-509.77"/>
</g>
<!-- Biproduct_ab_biprod_pr2 -->
<g id="node33" class="node">
<title>Biproduct_ab_biprod_pr2</title>
<g id="a_node33"><a xlink:href="Biproduct.html#ab_biprod_pr2" xlink:title="ab_biprod_pr2">
<ellipse fill="#f070d1" stroke="black" cx="1922" cy="-484.6" rx="77.19" ry="18"/>
<text text-anchor="middle" x="1922" y="-480.9" font-family="Times,serif" font-size="14.00">ab_biprod_pr2</text>
</a>
</g>
</g>
<!-- Biproduct_functor_ab_biprod&#45;&gt;Biproduct_ab_biprod_pr2 -->
<g id="edge41" class="edge">
<title>Biproduct_functor_ab_biprod&#45;&gt;Biproduct_ab_biprod_pr2</title>
<path fill="none" stroke="black" d="M2033.51,-832.53C2014.78,-774.26 1953.26,-582.86 1930.54,-512.16"/>
<polygon fill="black" stroke="black" points="1933.87,-511.08 1927.47,-502.63 1927.2,-513.22 1933.87,-511.08"/>
</g>
<!-- Biproduct_ab_biprod_pr1 -->
<g id="node34" class="node">
<title>Biproduct_ab_biprod_pr1</title>
<g id="a_node34"><a xlink:href="Biproduct.html#ab_biprod_pr1" xlink:title="ab_biprod_pr1">
<ellipse fill="#f070d1" stroke="black" cx="2095" cy="-484.6" rx="77.19" ry="18"/>
<text text-anchor="middle" x="2095" y="-480.9" font-family="Times,serif" font-size="14.00">ab_biprod_pr1</text>
</a>
</g>
</g>
<!-- Biproduct_functor_ab_biprod&#45;&gt;Biproduct_ab_biprod_pr1 -->
<g id="edge42" class="edge">
<title>Biproduct_functor_ab_biprod&#45;&gt;Biproduct_ab_biprod_pr1</title>
<path fill="none" stroke="black" d="M2041.63,-832.53C2050.57,-774.38 2079.92,-583.64 2090.85,-512.59"/>
<polygon fill="black" stroke="black" points="2094.32,-513.05 2092.38,-502.63 2087.4,-511.98 2094.32,-513.05"/>
</g>
<!-- Biproduct_ab_corec_eta -->
<g id="node25" class="node">
<title>Biproduct_ab_corec_eta</title>
<g id="a_node25"><a xlink:href="Biproduct.html#ab_corec_eta" xlink:title="ab_corec_eta">
<ellipse fill="#f070d1" stroke="black" cx="2782" cy="-850.6" rx="70.37" ry="18"/>
<ellipse fill="none" stroke="black" cx="2782" cy="-850.6" rx="74.38" ry="22"/>
<ellipse fill="none" stroke="black" cx="2782" cy="-850.6" rx="78.39" ry="26"/>
<text text-anchor="middle" x="2782" y="-846.9" font-family="Times,serif" font-size="14.00">ab_corec_eta</text>
</a>
</g>
</g>
<!-- Biproduct_ab_corec_eta&#45;&gt;Biproduct_ab_biprod_corec -->
<g id="edge43" class="edge">
<title>Biproduct_ab_corec_eta&#45;&gt;Biproduct_ab_biprod_corec</title>
<path fill="none" stroke="black" d="M2773.61,-824.58C2751.49,-758.58 2691.7,-580.18 2668.95,-512.31"/>
<polygon fill="black" stroke="black" points="2672.25,-511.13 2665.75,-502.76 2665.61,-513.35 2672.25,-511.13"/>
</g>
<!-- Biproduct_ab_biprod_corec&#45;&gt;Biproduct_ab_biprod -->
<g id="edge44" class="edge">
<title>Biproduct_ab_biprod_corec&#45;&gt;Biproduct_ab_biprod</title>
<path fill="none" stroke="black" d="M2628.55,-467.83C2520.32,-413.55 2163.43,-234.55 2045.9,-175.61"/>
<polygon fill="black" stroke="black" points="2047.4,-172.44 2036.89,-171.09 2044.26,-178.7 2047.4,-172.44"/>
</g>
<!-- Biproduct_isequiv_ab_biprod_rec -->
<g id="node27" class="node">
<title>Biproduct_isequiv_ab_biprod_rec</title>
<g id="a_node27"><a xlink:href="Biproduct.html#isequiv_ab_biprod_rec" xlink:title="isequiv_ab_biprod_rec">
<ellipse fill="#f070d1" stroke="black" cx="137" cy="-1253.6" rx="113.17" ry="18"/>
<ellipse fill="none" stroke="black" cx="137" cy="-1253.6" rx="117.18" ry="22"/>
<ellipse fill="none" stroke="black" cx="137" cy="-1253.6" rx="121.18" ry="26"/>
<text text-anchor="middle" x="137" y="-1249.9" font-family="Times,serif" font-size="14.00">isequiv_ab_biprod_rec</text>
</a>
</g>
</g>
<!-- Biproduct_ab_biprod_rec_inr_beta -->
<g id="node28" class="node">
<title>Biproduct_ab_biprod_rec_inr_beta</title>
<g id="a_node28"><a xlink:href="Biproduct.html#ab_biprod_rec_inr_beta" xlink:title="ab_biprod_rec_inr_beta">
<ellipse fill="#f070d1" stroke="black" cx="403" cy="-850.6" rx="118.08" ry="18"/>
<text text-anchor="middle" x="403" y="-846.9" font-family="Times,serif" font-size="14.00">ab_biprod_rec_inr_beta</text>
</a>
</g>
</g>
<!-- Biproduct_isequiv_ab_biprod_rec&#45;&gt;Biproduct_ab_biprod_rec_inr_beta -->
<g id="edge45" class="edge">
<title>Biproduct_isequiv_ab_biprod_rec&#45;&gt;Biproduct_ab_biprod_rec_inr_beta</title>
<path fill="none" stroke="black" d="M153.44,-1227.82C200.91,-1156.26 337.86,-949.79 386.01,-877.21"/>
<polygon fill="black" stroke="black" points="389.08,-878.92 391.69,-868.65 383.25,-875.05 389.08,-878.92"/>
</g>
<!-- Biproduct_ab_biprod_rec_inl_beta -->
<g id="node29" class="node">
<title>Biproduct_ab_biprod_rec_inl_beta</title>
<g id="a_node29"><a xlink:href="Biproduct.html#ab_biprod_rec_inl_beta" xlink:title="ab_biprod_rec_inl_beta">
<ellipse fill="#f070d1" stroke="black" cx="656" cy="-850.6" rx="116.18" ry="18"/>
<text text-anchor="middle" x="656" y="-846.9" font-family="Times,serif" font-size="14.00">ab_biprod_rec_inl_beta</text>
</a>
</g>
</g>
<!-- Biproduct_isequiv_ab_biprod_rec&#45;&gt;Biproduct_ab_biprod_rec_inl_beta -->
<g id="edge46" class="edge">
<title>Biproduct_isequiv_ab_biprod_rec&#45;&gt;Biproduct_ab_biprod_rec_inl_beta</title>
<path fill="none" stroke="black" d="M168.3,-1228.42C261.38,-1156.5 535.66,-944.58 626.44,-874.44"/>
<polygon fill="black" stroke="black" points="628.62,-877.17 634.4,-868.29 624.34,-871.64 628.62,-877.17"/>
</g>
<!-- Biproduct_ab_biprod_rec_eta -->
<g id="node30" class="node">
<title>Biproduct_ab_biprod_rec_eta</title>
<g id="a_node30"><a xlink:href="Biproduct.html#ab_biprod_rec_eta" xlink:title="ab_biprod_rec_eta">
<ellipse fill="#f070d1" stroke="black" cx="885" cy="-850.6" rx="94.78" ry="18"/>
<text text-anchor="middle" x="885" y="-846.9" font-family="Times,serif" font-size="14.00">ab_biprod_rec_eta</text>
</a>
</g>
</g>
<!-- Biproduct_isequiv_ab_biprod_rec&#45;&gt;Biproduct_ab_biprod_rec_eta -->
<g id="edge47" class="edge">
<title>Biproduct_isequiv_ab_biprod_rec&#45;&gt;Biproduct_ab_biprod_rec_eta</title>
<path fill="none" stroke="black" d="M180.45,-1229.31C314.14,-1157.64 718.02,-941.12 845.8,-872.62"/>
<polygon fill="black" stroke="black" points="847.7,-875.57 854.86,-867.76 844.4,-869.4 847.7,-875.57"/>
</g>
<!-- Biproduct_ab_biprod_rec_uncurried -->
<g id="node31" class="node">
<title>Biproduct_ab_biprod_rec_uncurried</title>
<g id="a_node31"><a xlink:href="Biproduct.html#ab_biprod_rec_uncurried" xlink:title="ab_biprod_rec_uncurried">
<ellipse fill="#f070d1" stroke="black" cx="141" cy="-850.6" rx="125.38" ry="18"/>
<text text-anchor="middle" x="141" y="-846.9" font-family="Times,serif" font-size="14.00">ab_biprod_rec_uncurried</text>
</a>
</g>
</g>
<!-- Biproduct_isequiv_ab_biprod_rec&#45;&gt;Biproduct_ab_biprod_rec_uncurried -->
<g id="edge48" class="edge">
<title>Biproduct_isequiv_ab_biprod_rec&#45;&gt;Biproduct_ab_biprod_rec_uncurried</title>
<path fill="none" stroke="black" d="M137.25,-1227.52C137.96,-1156.24 139.99,-952.93 140.73,-878.95"/>
<polygon fill="black" stroke="black" points="144.23,-878.65 140.83,-868.61 137.23,-878.58 144.23,-878.65"/>
</g>
<!-- Biproduct_ab_biprod_rec_inr_beta&#45;&gt;Biproduct_ab_biprod_rec -->
<g id="edge49" class="edge">
<title>Biproduct_ab_biprod_rec_inr_beta&#45;&gt;Biproduct_ab_biprod_rec</title>
<path fill="none" stroke="black" d="M416.74,-832.53C464.03,-773.78 620.24,-579.71 676,-510.44"/>
<polygon fill="black" stroke="black" points="678.75,-512.62 682.29,-502.63 673.29,-508.23 678.75,-512.62"/>
</g>
<!-- Biproduct_ab_biprod_rec_inr_beta&#45;&gt;Biproduct_ab_biprod_inr -->
<g id="edge50" class="edge">
<title>Biproduct_ab_biprod_rec_inr_beta&#45;&gt;Biproduct_ab_biprod_inr</title>
<path fill="none" stroke="black" d="M427.87,-832.77C515.53,-773.46 810.16,-574.12 908.64,-507.49"/>
<polygon fill="black" stroke="black" points="910.69,-510.33 917.01,-501.83 906.76,-504.54 910.69,-510.33"/>
</g>
<!-- Biproduct_ab_biprod_rec_inl_beta&#45;&gt;Biproduct_ab_biprod_rec -->
<g id="edge51" class="edge">
<title>Biproduct_ab_biprod_rec_inl_beta&#45;&gt;Biproduct_ab_biprod_rec</title>
<path fill="none" stroke="black" d="M657.88,-832.53C664.27,-774.38 685.23,-583.64 693.03,-512.59"/>
<polygon fill="black" stroke="black" points="696.52,-512.95 694.13,-502.63 689.56,-512.19 696.52,-512.95"/>
</g>
<!-- Biproduct_ab_biprod_rec_inl_beta&#45;&gt;Biproduct_ab_biprod_inl -->
<g id="edge52" class="edge">
<title>Biproduct_ab_biprod_rec_inl_beta&#45;&gt;Biproduct_ab_biprod_inl</title>
<path fill="none" stroke="black" d="M676.8,-832.77C749.82,-773.71 994.52,-575.78 1077.9,-508.33"/>
<polygon fill="black" stroke="black" points="1080.1,-511.05 1085.68,-502.04 1075.7,-505.61 1080.1,-511.05"/>
</g>
<!-- Biproduct_ab_biprod_rec_eta&#45;&gt;Biproduct_ab_biprod_rec -->
<g id="edge53" class="edge">
<title>Biproduct_ab_biprod_rec_eta&#45;&gt;Biproduct_ab_biprod_rec</title>
<path fill="none" stroke="black" d="M876.14,-832.53C845.82,-774.14 746.09,-582.08 709.56,-511.72"/>
<polygon fill="black" stroke="black" points="712.56,-509.89 704.84,-502.63 706.35,-513.12 712.56,-509.89"/>
</g>
<!-- Biproduct_ab_biprod_rec_eta&#45;&gt;Biproduct_ab_biprod_inr -->
<g id="edge54" class="edge">
<title>Biproduct_ab_biprod_rec_eta&#45;&gt;Biproduct_ab_biprod_inr</title>
<path fill="none" stroke="black" d="M887.63,-832.53C896.57,-774.38 925.92,-583.64 936.85,-512.59"/>
<polygon fill="black" stroke="black" points="940.32,-513.05 938.38,-502.63 933.4,-511.98 940.32,-513.05"/>
</g>
<!-- Biproduct_ab_biprod_rec_eta&#45;&gt;Biproduct_ab_biprod_inl -->
<g id="edge55" class="edge">
<title>Biproduct_ab_biprod_rec_eta&#45;&gt;Biproduct_ab_biprod_inl</title>
<path fill="none" stroke="black" d="M895.36,-832.53C930.89,-774.02 1047.9,-581.29 1090.4,-511.29"/>
<polygon fill="black" stroke="black" points="1093.46,-513 1095.66,-502.63 1087.48,-509.36 1093.46,-513"/>
</g>
<!-- Biproduct_ab_biprod_rec_uncurried&#45;&gt;Biproduct_ab_biprod_rec -->
<g id="edge56" class="edge">
<title>Biproduct_ab_biprod_rec_uncurried&#45;&gt;Biproduct_ab_biprod_rec</title>
<path fill="none" stroke="black" d="M166.66,-832.77C257.09,-773.46 561.03,-574.12 662.62,-507.49"/>
<polygon fill="black" stroke="black" points="664.81,-510.24 671.25,-501.83 660.97,-504.39 664.81,-510.24"/>
</g>
<!-- Biproduct_ab_biprod_rec&#45;&gt;Biproduct_ab_biprod -->
<g id="edge57" class="edge">
<title>Biproduct_ab_biprod_rec&#45;&gt;Biproduct_ab_biprod</title>
<path fill="none" stroke="black" d="M746.23,-471.08C953.64,-419.39 1742.47,-222.78 1954.99,-169.81"/>
<polygon fill="black" stroke="black" points="1956.11,-173.14 1964.96,-167.33 1954.42,-166.35 1956.11,-173.14"/>
</g>
<!-- Biproduct_ab_biprod_pr2&#45;&gt;Biproduct_ab_biprod -->
<g id="edge58" class="edge">
<title>Biproduct_ab_biprod_pr2&#45;&gt;Biproduct_ab_biprod</title>
<path fill="none" stroke="black" d="M1926.5,-466.48C1940.58,-412.95 1983.84,-248.47 2000.94,-183.45"/>
<polygon fill="black" stroke="black" points="2004.38,-184.11 2003.54,-173.55 1997.61,-182.33 2004.38,-184.11"/>
</g>
<!-- Biproduct_ab_biprod_pr1&#45;&gt;Biproduct_ab_biprod -->
<g id="edge59" class="edge">
<title>Biproduct_ab_biprod_pr1&#45;&gt;Biproduct_ab_biprod</title>
<path fill="none" stroke="black" d="M2090.44,-466.48C2076.2,-412.95 2032.44,-248.47 2015.14,-183.45"/>
<polygon fill="black" stroke="black" points="2018.46,-182.31 2012.51,-173.55 2011.7,-184.11 2018.46,-182.31"/>
</g>
<!-- Biproduct_ab_biprod_inr&#45;&gt;Biproduct_ab_biprod -->
<g id="edge60" class="edge">
<title>Biproduct_ab_biprod_inr&#45;&gt;Biproduct_ab_biprod</title>
<path fill="none" stroke="black" d="M985.15,-470.07C1156.82,-417.46 1779.2,-226.72 1959.03,-171.61"/>
<polygon fill="black" stroke="black" points="1960.21,-174.91 1968.75,-168.63 1958.16,-168.21 1960.21,-174.91"/>
</g>
<!-- Biproduct_ab_biprod_inl&#45;&gt;Biproduct_ab_biprod -->
<g id="edge61" class="edge">
<title>Biproduct_ab_biprod_inl&#45;&gt;Biproduct_ab_biprod</title>
<path fill="none" stroke="black" d="M1145.34,-469.34C1291.83,-416.23 1805.29,-230.09 1962.14,-173.22"/>
<polygon fill="black" stroke="black" points="1963.74,-176.37 1971.95,-169.67 1961.36,-169.79 1963.74,-176.37"/>
</g>
</g>
</svg>
