<?xml version="1.0" encoding="UTF-8" standalone="no"?>
<!DOCTYPE svg PUBLIC "-//W3C//DTD SVG 1.1//EN"
 "http://www.w3.org/Graphics/SVG/1.1/DTD/svg11.dtd">
<!-- Generated by graphviz version 2.43.0 (0)
 -->
<!-- Title: HoTT_Universes_Rigid Pages: 1 -->
<svg width="848pt" height="428pt"
 viewBox="0.00 0.00 848.00 428.00" xmlns="http://www.w3.org/2000/svg" xmlns:xlink="http://www.w3.org/1999/xlink">
<g id="graph0" class="graph" transform="scale(1 1) rotate(0) translate(4 424)">
<title>HoTT_Universes_Rigid</title>
<polygon fill="white" stroke="transparent" points="-4,4 -4,-424 844,-424 844,4 -4,4"/>
<g id="clust1" class="cluster">
<title>cluster_Rigid</title>
<polygon fill="#ffffc3" stroke="black" points="8,-9.46 8,-410.54 832,-410.54 832,-9.46 8,-9.46"/>
<text text-anchor="middle" x="35" y="-395.34" font-family="Times,serif" font-size="14.00">Rigid</text>
</g>
<!-- Rigid_baut_prod_rigid_equiv -->
<g id="node1" class="node">
<title>Rigid_baut_prod_rigid_equiv</title>
<g id="a_node1"><a xlink:href="Rigid.html#baut_prod_rigid_equiv" xlink:title="baut_prod_rigid_equiv">
<ellipse fill="#f070d1" stroke="black" cx="512" cy="-239.46" rx="113.96" ry="18"/>
<ellipse fill="none" stroke="black" cx="512" cy="-239.46" rx="117.97" ry="22"/>
<ellipse fill="none" stroke="black" cx="512" cy="-239.46" rx="121.98" ry="26"/>
<text text-anchor="middle" x="512" y="-235.76" font-family="Times,serif" font-size="14.00">baut_prod_rigid_equiv</text>
</a>
</g>
</g>
<!-- Rigid_aut_homomorphism_end -->
<g id="node2" class="node">
<title>Rigid_aut_homomorphism_end</title>
<g id="a_node2"><a xlink:href="Rigid.html#aut_homomorphism_end" xlink:title="aut_homomorphism_end">
<ellipse fill="#f070d1" stroke="black" cx="700" cy="-134.46" rx="124.28" ry="18"/>
<text text-anchor="middle" x="700" y="-130.76" font-family="Times,serif" font-size="14.00">aut_homomorphism_end</text>
</a>
</g>
</g>
<!-- Rigid_baut_prod_rigid_equiv&#45;&gt;Rigid_aut_homomorphism_end -->
<g id="edge1" class="edge">
<title>Rigid_baut_prod_rigid_equiv&#45;&gt;Rigid_aut_homomorphism_end</title>
<path fill="none" stroke="black" d="M554.66,-215.09C586.61,-197.59 629.97,-173.83 661,-156.83"/>
<polygon fill="black" stroke="black" points="662.71,-159.88 669.8,-152.01 659.35,-153.75 662.71,-159.88"/>
</g>
<!-- Rigid_path_aut_rigid -->
<g id="node7" class="node">
<title>Rigid_path_aut_rigid</title>
<g id="a_node7"><a xlink:href="Rigid.html#path_aut_rigid" xlink:title="path_aut_rigid">
<ellipse fill="#f070d1" stroke="black" cx="93" cy="-134.46" rx="77.19" ry="18"/>
<text text-anchor="middle" x="93" y="-130.76" font-family="Times,serif" font-size="14.00">path_aut_rigid</text>
</a>
</g>
</g>
<!-- Rigid_baut_prod_rigid_equiv&#45;&gt;Rigid_path_aut_rigid -->
<g id="edge2" class="edge">
<title>Rigid_baut_prod_rigid_equiv&#45;&gt;Rigid_path_aut_rigid</title>
<path fill="none" stroke="black" d="M429.25,-220.36C361.69,-205.27 263.86,-182.72 179,-160.46 168.97,-157.83 158.33,-154.88 148.08,-151.94"/>
<polygon fill="black" stroke="black" points="148.98,-148.56 138.4,-149.15 147.04,-155.29 148.98,-148.56"/>
</g>
<!-- Rigid_rigid_ishprop -->
<g id="node3" class="node">
<title>Rigid_rigid_ishprop</title>
<g id="a_node3"><a xlink:href="Rigid.html#rigid_ishprop" xlink:title="rigid_ishprop">
<ellipse fill="#f070d1" stroke="black" cx="478" cy="-134.46" rx="72.27" ry="18"/>
<ellipse fill="none" stroke="black" cx="478" cy="-134.46" rx="76.28" ry="22"/>
<ellipse fill="none" stroke="black" cx="478" cy="-134.46" rx="80.29" ry="26"/>
<text text-anchor="middle" x="478" y="-130.76" font-family="Times,serif" font-size="14.00">rigid_ishprop</text>
</a>
</g>
</g>
<!-- Rigid_IsRigid -->
<g id="node8" class="node">
<title>Rigid_IsRigid</title>
<g id="a_node8"><a xlink:href="Rigid.html#IsRigid" xlink:title="IsRigid">
<ellipse fill="#f070d1" stroke="black" cx="284" cy="-40.46" rx="43.59" ry="18"/>
<text text-anchor="middle" x="284" y="-36.76" font-family="Times,serif" font-size="14.00">IsRigid</text>
</a>
</g>
</g>
<!-- Rigid_rigid_ishprop&#45;&gt;Rigid_IsRigid -->
<g id="edge3" class="edge">
<title>Rigid_rigid_ishprop&#45;&gt;Rigid_IsRigid</title>
<path fill="none" stroke="black" d="M433.98,-112.59C399.79,-96.38 352.94,-74.16 320.75,-58.89"/>
<polygon fill="black" stroke="black" points="322.2,-55.71 311.67,-54.59 319.2,-62.03 322.2,-55.71"/>
</g>
<!-- Rigid_rigid_contr_Baut -->
<g id="node4" class="node">
<title>Rigid_rigid_contr_Baut</title>
<g id="a_node4"><a xlink:href="Rigid.html#rigid_contr_Baut" xlink:title="rigid_contr_Baut">
<ellipse fill="#f070d1" stroke="black" cx="284" cy="-134.46" rx="87.96" ry="18"/>
<ellipse fill="none" stroke="black" cx="284" cy="-134.46" rx="91.97" ry="22"/>
<ellipse fill="none" stroke="black" cx="284" cy="-134.46" rx="95.99" ry="26"/>
<text text-anchor="middle" x="284" y="-130.76" font-family="Times,serif" font-size="14.00">rigid_contr_Baut</text>
</a>
</g>
</g>
<!-- Rigid_rigid_contr_Baut&#45;&gt;Rigid_IsRigid -->
<g id="edge4" class="edge">
<title>Rigid_rigid_contr_Baut&#45;&gt;Rigid_IsRigid</title>
<path fill="none" stroke="black" d="M284,-108.33C284,-96.15 284,-81.49 284,-69.01"/>
<polygon fill="black" stroke="black" points="287.5,-68.72 284,-58.72 280.5,-68.72 287.5,-68.72"/>
</g>
<!-- Rigid_contr_baut_rigid -->
<g id="node5" class="node">
<title>Rigid_contr_baut_rigid</title>
<g id="a_node5"><a xlink:href="Rigid.html#contr_baut_rigid" xlink:title="contr_baut_rigid">
<ellipse fill="#f070d1" stroke="black" cx="111" cy="-343.46" rx="87.18" ry="18"/>
<ellipse fill="none" stroke="black" cx="111" cy="-343.46" rx="91.18" ry="22"/>
<ellipse fill="none" stroke="black" cx="111" cy="-343.46" rx="95.18" ry="26"/>
<text text-anchor="middle" x="111" y="-339.76" font-family="Times,serif" font-size="14.00">contr_baut_rigid</text>
</a>
</g>
</g>
<!-- Rigid_contr_aut_rigid -->
<g id="node6" class="node">
<title>Rigid_contr_aut_rigid</title>
<g id="a_node6"><a xlink:href="Rigid.html#contr_aut_rigid" xlink:title="contr_aut_rigid">
<ellipse fill="#f070d1" stroke="black" cx="104" cy="-239.46" rx="81.49" ry="18"/>
<text text-anchor="middle" x="104" y="-235.76" font-family="Times,serif" font-size="14.00">contr_aut_rigid</text>
</a>
</g>
</g>
<!-- Rigid_contr_baut_rigid&#45;&gt;Rigid_contr_aut_rigid -->
<g id="edge5" class="edge">
<title>Rigid_contr_baut_rigid&#45;&gt;Rigid_contr_aut_rigid</title>
<path fill="none" stroke="black" d="M109.27,-317.25C108.25,-302.35 106.95,-283.45 105.9,-268.13"/>
<polygon fill="black" stroke="black" points="109.36,-267.46 105.18,-257.72 102.38,-267.94 109.36,-267.46"/>
</g>
<!-- Rigid_contr_aut_rigid&#45;&gt;Rigid_path_aut_rigid -->
<g id="edge6" class="edge">
<title>Rigid_contr_aut_rigid&#45;&gt;Rigid_path_aut_rigid</title>
<path fill="none" stroke="black" d="M102.18,-221.46C100.47,-205.43 97.88,-181.15 95.88,-162.48"/>
<polygon fill="black" stroke="black" points="99.36,-162.07 94.82,-152.5 92.4,-162.81 99.36,-162.07"/>
</g>
<!-- Rigid_path_aut_rigid&#45;&gt;Rigid_IsRigid -->
<g id="edge7" class="edge">
<title>Rigid_path_aut_rigid&#45;&gt;Rigid_IsRigid</title>
<path fill="none" stroke="black" d="M124.97,-118.07C158.8,-101.77 212.09,-76.1 247.53,-59.03"/>
<polygon fill="black" stroke="black" points="249.09,-62.17 256.58,-54.67 246.05,-55.86 249.09,-62.17"/>
</g>
</g>
</svg>
