<?xml version="1.0" encoding="UTF-8" standalone="no"?>
<!DOCTYPE svg PUBLIC "-//W3C//DTD SVG 1.1//EN"
 "http://www.w3.org/Graphics/SVG/1.1/DTD/svg11.dtd">
<!-- Generated by graphviz version 2.43.0 (0)
 -->
<!-- Title: HoTT_WildCat_Prod Pages: 1 -->
<svg width="2046pt" height="1027pt"
 viewBox="0.00 0.00 2046.00 1027.00" xmlns="http://www.w3.org/2000/svg" xmlns:xlink="http://www.w3.org/1999/xlink">
<g id="graph0" class="graph" transform="scale(1 1) rotate(0) translate(4 1023)">
<title>HoTT_WildCat_Prod</title>
<polygon fill="white" stroke="transparent" points="-4,4 -4,-1023 2042,-1023 2042,4 -4,4"/>
<g id="clust1" class="cluster">
<title>cluster_Prod</title>
<polygon fill="#ffffc3" stroke="black" points="8,-16.34 8,-1002.66 2030,-1002.66 2030,-16.34 8,-16.34"/>
<text text-anchor="middle" x="33" y="-987.46" font-family="Times,serif" font-size="14.00">Prod</text>
</g>
<!-- Prod_fmap11_uncurry -->
<g id="node1" class="node">
<title>Prod_fmap11_uncurry</title>
<g id="a_node1"><a xlink:href="Prod.html#fmap11_uncurry" xlink:title="fmap11_uncurry">
<ellipse fill="#f070d1" stroke="black" cx="1156" cy="-232.34" rx="87.18" ry="18"/>
<ellipse fill="none" stroke="black" cx="1156" cy="-232.34" rx="91.18" ry="22"/>
<ellipse fill="none" stroke="black" cx="1156" cy="-232.34" rx="95.18" ry="26"/>
<text text-anchor="middle" x="1156" y="-228.64" font-family="Times,serif" font-size="14.00">fmap11_uncurry</text>
</a>
</g>
</g>
<!-- Prod_isgraph_prod -->
<g id="node22" class="node">
<title>Prod_isgraph_prod</title>
<g id="a_node22"><a xlink:href="Prod.html#isgraph_prod" xlink:title="isgraph_prod">
<ellipse fill="#f070d1" stroke="black" cx="758" cy="-69.34" rx="71.49" ry="18"/>
<text text-anchor="middle" x="758" y="-65.64" font-family="Times,serif" font-size="14.00">isgraph_prod</text>
</a>
</g>
</g>
<!-- Prod_fmap11_uncurry&#45;&gt;Prod_isgraph_prod -->
<g id="edge1" class="edge">
<title>Prod_fmap11_uncurry&#45;&gt;Prod_isgraph_prod</title>
<path fill="none" stroke="black" d="M1104.38,-210.45C1026.07,-178.78 878.51,-119.09 803.81,-88.87"/>
<polygon fill="black" stroke="black" points="804.78,-85.49 794.2,-84.98 802.16,-91.98 804.78,-85.49"/>
</g>
<!-- Prod_is1functor_functor_uncurried10 -->
<g id="node2" class="node">
<title>Prod_is1functor_functor_uncurried10</title>
<g id="a_node2"><a xlink:href="Prod.html#is1functor_functor_uncurried10" xlink:title="is1functor_functor_uncurried10">
<ellipse fill="#f070d1" stroke="black" cx="1635" cy="-886.34" rx="157.08" ry="18"/>
<ellipse fill="none" stroke="black" cx="1635" cy="-886.34" rx="161.08" ry="22"/>
<ellipse fill="none" stroke="black" cx="1635" cy="-886.34" rx="165.07" ry="26"/>
<text text-anchor="middle" x="1635" y="-882.64" font-family="Times,serif" font-size="14.00">is1functor_functor_uncurried10</text>
</a>
</g>
</g>
<!-- Prod_is0functor_functor_uncurried10 -->
<g id="node3" class="node">
<title>Prod_is0functor_functor_uncurried10</title>
<g id="a_node3"><a xlink:href="Prod.html#is0functor_functor_uncurried10" xlink:title="is0functor_functor_uncurried10">
<ellipse fill="#f070d1" stroke="black" cx="1865" cy="-706.34" rx="157.07" ry="18"/>
<text text-anchor="middle" x="1865" y="-702.64" font-family="Times,serif" font-size="14.00">is0functor_functor_uncurried10</text>
</a>
</g>
</g>
<!-- Prod_is1functor_functor_uncurried10&#45;&gt;Prod_is0functor_functor_uncurried10 -->
<g id="edge2" class="edge">
<title>Prod_is1functor_functor_uncurried10&#45;&gt;Prod_is0functor_functor_uncurried10</title>
<path fill="none" stroke="black" d="M1666.98,-860.59C1711.51,-826.13 1791.59,-764.15 1835.03,-730.53"/>
<polygon fill="black" stroke="black" points="1837.18,-733.29 1842.95,-724.4 1832.9,-727.76 1837.18,-733.29"/>
</g>
<!-- Prod_is1functor_prod_include10 -->
<g id="node8" class="node">
<title>Prod_is1functor_prod_include10</title>
<g id="a_node8"><a xlink:href="Prod.html#is1functor_prod_include10" xlink:title="is1functor_prod_include10">
<ellipse fill="#f070d1" stroke="black" cx="1556" cy="-706.34" rx="133.78" ry="18"/>
<text text-anchor="middle" x="1556" y="-702.64" font-family="Times,serif" font-size="14.00">is1functor_prod_include10</text>
</a>
</g>
</g>
<!-- Prod_is1functor_functor_uncurried10&#45;&gt;Prod_is1functor_prod_include10 -->
<g id="edge3" class="edge">
<title>Prod_is1functor_functor_uncurried10&#45;&gt;Prod_is1functor_prod_include10</title>
<path fill="none" stroke="black" d="M1623.85,-860.21C1608.98,-826.72 1582.8,-767.72 1567.67,-733.64"/>
<polygon fill="black" stroke="black" points="1570.79,-732.04 1563.54,-724.32 1564.4,-734.88 1570.79,-732.04"/>
</g>
<!-- Prod_is0functor_prod_include10 -->
<g id="node9" class="node">
<title>Prod_is0functor_prod_include10</title>
<g id="a_node9"><a xlink:href="Prod.html#is0functor_prod_include10" xlink:title="is0functor_prod_include10">
<ellipse fill="#f070d1" stroke="black" cx="1556" cy="-543.34" rx="133.78" ry="18"/>
<text text-anchor="middle" x="1556" y="-539.64" font-family="Times,serif" font-size="14.00">is0functor_prod_include10</text>
</a>
</g>
</g>
<!-- Prod_is0functor_functor_uncurried10&#45;&gt;Prod_is0functor_prod_include10 -->
<g id="edge4" class="edge">
<title>Prod_is0functor_functor_uncurried10&#45;&gt;Prod_is0functor_prod_include10</title>
<path fill="none" stroke="black" d="M1832.81,-688.56C1776.2,-659.07 1658.96,-597.98 1596.78,-565.59"/>
<polygon fill="black" stroke="black" points="1598.15,-562.35 1587.66,-560.83 1594.91,-568.56 1598.15,-562.35"/>
</g>
<!-- Prod_is1functor_functor_uncurried01 -->
<g id="node4" class="node">
<title>Prod_is1functor_functor_uncurried01</title>
<g id="a_node4"><a xlink:href="Prod.html#is1functor_functor_uncurried01" xlink:title="is1functor_functor_uncurried01">
<ellipse fill="#f070d1" stroke="black" cx="1167" cy="-886.34" rx="157.08" ry="18"/>
<ellipse fill="none" stroke="black" cx="1167" cy="-886.34" rx="161.08" ry="22"/>
<ellipse fill="none" stroke="black" cx="1167" cy="-886.34" rx="165.07" ry="26"/>
<text text-anchor="middle" x="1167" y="-882.64" font-family="Times,serif" font-size="14.00">is1functor_functor_uncurried01</text>
</a>
</g>
</g>
<!-- Prod_is0functor_functor_uncurried01 -->
<g id="node5" class="node">
<title>Prod_is0functor_functor_uncurried01</title>
<g id="a_node5"><a xlink:href="Prod.html#is0functor_functor_uncurried01" xlink:title="is0functor_functor_uncurried01">
<ellipse fill="#f070d1" stroke="black" cx="1247" cy="-706.34" rx="157.07" ry="18"/>
<text text-anchor="middle" x="1247" y="-702.64" font-family="Times,serif" font-size="14.00">is0functor_functor_uncurried01</text>
</a>
</g>
</g>
<!-- Prod_is1functor_functor_uncurried01&#45;&gt;Prod_is0functor_functor_uncurried01 -->
<g id="edge5" class="edge">
<title>Prod_is1functor_functor_uncurried01&#45;&gt;Prod_is0functor_functor_uncurried01</title>
<path fill="none" stroke="black" d="M1178.29,-860.21C1193.35,-826.72 1219.86,-767.72 1235.18,-733.64"/>
<polygon fill="black" stroke="black" points="1238.46,-734.88 1239.37,-724.32 1232.07,-732.01 1238.46,-734.88"/>
</g>
<!-- Prod_is1functor_prod_include01 -->
<g id="node6" class="node">
<title>Prod_is1functor_prod_include01</title>
<g id="a_node6"><a xlink:href="Prod.html#is1functor_prod_include01" xlink:title="is1functor_prod_include01">
<ellipse fill="#f070d1" stroke="black" cx="938" cy="-706.34" rx="133.78" ry="18"/>
<text text-anchor="middle" x="938" y="-702.64" font-family="Times,serif" font-size="14.00">is1functor_prod_include01</text>
</a>
</g>
</g>
<!-- Prod_is1functor_functor_uncurried01&#45;&gt;Prod_is1functor_prod_include01 -->
<g id="edge6" class="edge">
<title>Prod_is1functor_functor_uncurried01&#45;&gt;Prod_is1functor_prod_include01</title>
<path fill="none" stroke="black" d="M1135.16,-860.59C1090.8,-826.11 1011,-764.08 967.78,-730.48"/>
<polygon fill="black" stroke="black" points="969.68,-727.53 959.64,-724.16 965.39,-733.06 969.68,-727.53"/>
</g>
<!-- Prod_is0functor_prod_include01 -->
<g id="node7" class="node">
<title>Prod_is0functor_prod_include01</title>
<g id="a_node7"><a xlink:href="Prod.html#is0functor_prod_include01" xlink:title="is0functor_prod_include01">
<ellipse fill="#f070d1" stroke="black" cx="1022" cy="-543.34" rx="133.78" ry="18"/>
<text text-anchor="middle" x="1022" y="-539.64" font-family="Times,serif" font-size="14.00">is0functor_prod_include01</text>
</a>
</g>
</g>
<!-- Prod_is0functor_functor_uncurried01&#45;&gt;Prod_is0functor_prod_include01 -->
<g id="edge7" class="edge">
<title>Prod_is0functor_functor_uncurried01&#45;&gt;Prod_is0functor_prod_include01</title>
<path fill="none" stroke="black" d="M1223.35,-688.41C1182.75,-659.36 1099.77,-599.99 1054.03,-567.26"/>
<polygon fill="black" stroke="black" points="1055.84,-564.25 1045.67,-561.28 1051.77,-569.94 1055.84,-564.25"/>
</g>
<!-- Prod_is1functor_prod_include01&#45;&gt;Prod_is0functor_prod_include01 -->
<g id="edge8" class="edge">
<title>Prod_is1functor_prod_include01&#45;&gt;Prod_is0functor_prod_include01</title>
<path fill="none" stroke="black" d="M946.99,-688.11C961.7,-659.9 991.02,-603.71 1008.33,-570.54"/>
<polygon fill="black" stroke="black" points="1011.55,-571.93 1013.08,-561.44 1005.35,-568.69 1011.55,-571.93"/>
</g>
<!-- Prod_is1cat_prod -->
<g id="node18" class="node">
<title>Prod_is1cat_prod</title>
<g id="a_node18"><a xlink:href="Prod.html#is1cat_prod" xlink:title="is1cat_prod">
<ellipse fill="#f070d1" stroke="black" cx="703" cy="-543.34" rx="64.19" ry="18"/>
<text text-anchor="middle" x="703" y="-539.64" font-family="Times,serif" font-size="14.00">is1cat_prod</text>
</a>
</g>
</g>
<!-- Prod_is1functor_prod_include01&#45;&gt;Prod_is1cat_prod -->
<g id="edge9" class="edge">
<title>Prod_is1functor_prod_include01&#45;&gt;Prod_is1cat_prod</title>
<path fill="none" stroke="black" d="M913.3,-688.41C870.36,-659 782.05,-598.49 734.68,-566.04"/>
<polygon fill="black" stroke="black" points="736.56,-563.08 726.33,-560.32 732.6,-568.86 736.56,-563.08"/>
</g>
<!-- Prod_is0functor_prod_include01&#45;&gt;Prod_isgraph_prod -->
<g id="edge10" class="edge">
<title>Prod_is0functor_prod_include01&#45;&gt;Prod_isgraph_prod</title>
<path fill="none" stroke="black" d="M1023.7,-525.07C1029.34,-464.16 1045.34,-260.17 1012,-206.34 969.71,-138.06 880.56,-101.93 819.95,-84.48"/>
<polygon fill="black" stroke="black" points="820.68,-81.05 810.11,-81.74 818.8,-87.79 820.68,-81.05"/>
</g>
<!-- Prod_is1functor_prod_include10&#45;&gt;Prod_is0functor_prod_include10 -->
<g id="edge11" class="edge">
<title>Prod_is1functor_prod_include10&#45;&gt;Prod_is0functor_prod_include10</title>
<path fill="none" stroke="black" d="M1556,-688.11C1556,-660.27 1556,-605.15 1556,-571.83"/>
<polygon fill="black" stroke="black" points="1559.5,-571.44 1556,-561.44 1552.5,-571.44 1559.5,-571.44"/>
</g>
<!-- Prod_is1functor_prod_include10&#45;&gt;Prod_is1cat_prod -->
<g id="edge12" class="edge">
<title>Prod_is1functor_prod_include10&#45;&gt;Prod_is1cat_prod</title>
<path fill="none" stroke="black" d="M1481.79,-691.33C1316.07,-660.05 918.4,-584.99 764.91,-556.02"/>
<polygon fill="black" stroke="black" points="765.2,-552.51 754.72,-554.1 763.9,-559.39 765.2,-552.51"/>
</g>
<!-- Prod_is0functor_prod_include10&#45;&gt;Prod_isgraph_prod -->
<g id="edge13" class="edge">
<title>Prod_is0functor_prod_include10&#45;&gt;Prod_isgraph_prod</title>
<path fill="none" stroke="black" d="M1509.74,-526.41C1413.76,-491.39 1190.38,-399.4 1052,-258.34 1033.62,-239.6 1042.76,-224.7 1024,-206.34 962.86,-146.49 870.07,-107.3 811.8,-87"/>
<polygon fill="black" stroke="black" points="812.64,-83.58 802.05,-83.66 810.38,-90.21 812.64,-83.58"/>
</g>
<!-- Prod_is1functor_equiv_prod_symm -->
<g id="node10" class="node">
<title>Prod_is1functor_equiv_prod_symm</title>
<g id="a_node10"><a xlink:href="Prod.html#is1functor_equiv_prod_symm" xlink:title="is1functor_equiv_prod_symm">
<ellipse fill="#f070d1" stroke="black" cx="448" cy="-706.34" rx="145.67" ry="18"/>
<ellipse fill="none" stroke="black" cx="448" cy="-706.34" rx="149.67" ry="22"/>
<ellipse fill="none" stroke="black" cx="448" cy="-706.34" rx="153.67" ry="26"/>
<text text-anchor="middle" x="448" y="-702.64" font-family="Times,serif" font-size="14.00">is1functor_equiv_prod_symm</text>
</a>
</g>
</g>
<!-- Prod_is0functor_equiv_prod_symm -->
<g id="node11" class="node">
<title>Prod_is0functor_equiv_prod_symm</title>
<g id="a_node11"><a xlink:href="Prod.html#is0functor_equiv_prod_symm" xlink:title="is0functor_equiv_prod_symm">
<ellipse fill="#f070d1" stroke="black" cx="448" cy="-396.34" rx="145.67" ry="18"/>
<text text-anchor="middle" x="448" y="-392.64" font-family="Times,serif" font-size="14.00">is0functor_equiv_prod_symm</text>
</a>
</g>
</g>
<!-- Prod_is1functor_equiv_prod_symm&#45;&gt;Prod_is0functor_equiv_prod_symm -->
<g id="edge14" class="edge">
<title>Prod_is1functor_equiv_prod_symm&#45;&gt;Prod_is0functor_equiv_prod_symm</title>
<path fill="none" stroke="black" d="M448,-680.13C448,-622.92 448,-483.64 448,-424.55"/>
<polygon fill="black" stroke="black" points="451.5,-424.49 448,-414.49 444.5,-424.49 451.5,-424.49"/>
</g>
<!-- Prod_is1functor_equiv_prod_symm&#45;&gt;Prod_is1cat_prod -->
<g id="edge15" class="edge">
<title>Prod_is1functor_equiv_prod_symm&#45;&gt;Prod_is1cat_prod</title>
<path fill="none" stroke="black" d="M486.45,-681.06C536.25,-649.62 622.25,-595.32 669.5,-565.49"/>
<polygon fill="black" stroke="black" points="671.55,-568.33 678.14,-560.03 667.81,-562.41 671.55,-568.33"/>
</g>
<!-- Prod_is0functor_equiv_prod_symm&#45;&gt;Prod_isgraph_prod -->
<g id="edge16" class="edge">
<title>Prod_is0functor_equiv_prod_symm&#45;&gt;Prod_isgraph_prod</title>
<path fill="none" stroke="black" d="M444.11,-378.32C437.02,-342.77 425.91,-259.52 463,-206.34 515.2,-131.5 619.25,-96.93 688.76,-81.63"/>
<polygon fill="black" stroke="black" points="689.7,-85.01 698.76,-79.51 688.25,-78.16 689.7,-85.01"/>
</g>
<!-- Prod_is0functor_snd -->
<g id="node12" class="node">
<title>Prod_is0functor_snd</title>
<g id="a_node12"><a xlink:href="Prod.html#is0functor_snd" xlink:title="is0functor_snd">
<ellipse fill="#f070d1" stroke="black" cx="758" cy="-232.34" rx="79.11" ry="18"/>
<ellipse fill="none" stroke="black" cx="758" cy="-232.34" rx="83.1" ry="22"/>
<ellipse fill="none" stroke="black" cx="758" cy="-232.34" rx="87.09" ry="26"/>
<text text-anchor="middle" x="758" y="-228.64" font-family="Times,serif" font-size="14.00">is0functor_snd</text>
</a>
</g>
</g>
<!-- Prod_is0functor_snd&#45;&gt;Prod_isgraph_prod -->
<g id="edge17" class="edge">
<title>Prod_is0functor_snd&#45;&gt;Prod_isgraph_prod</title>
<path fill="none" stroke="black" d="M758,-206.18C758,-176.72 758,-128.1 758,-97.71"/>
<polygon fill="black" stroke="black" points="761.5,-97.41 758,-87.41 754.5,-97.41 761.5,-97.41"/>
</g>
<!-- Prod_is0functor_fst -->
<g id="node13" class="node">
<title>Prod_is0functor_fst</title>
<g id="a_node13"><a xlink:href="Prod.html#is0functor_fst" xlink:title="is0functor_fst">
<ellipse fill="#f070d1" stroke="black" cx="570" cy="-232.34" rx="74.96" ry="18"/>
<ellipse fill="none" stroke="black" cx="570" cy="-232.34" rx="78.98" ry="22"/>
<ellipse fill="none" stroke="black" cx="570" cy="-232.34" rx="82.99" ry="26"/>
<text text-anchor="middle" x="570" y="-228.64" font-family="Times,serif" font-size="14.00">is0functor_fst</text>
</a>
</g>
</g>
<!-- Prod_is0functor_fst&#45;&gt;Prod_isgraph_prod -->
<g id="edge18" class="edge">
<title>Prod_is0functor_fst&#45;&gt;Prod_isgraph_prod</title>
<path fill="none" stroke="black" d="M597.74,-207.58C633.48,-176.97 695.23,-124.09 730.74,-93.68"/>
<polygon fill="black" stroke="black" points="733.43,-95.99 738.75,-86.82 728.88,-90.67 733.43,-95.99"/>
</g>
<!-- Prod_is1functor_prod_functor -->
<g id="node14" class="node">
<title>Prod_is1functor_prod_functor</title>
<g id="a_node14"><a xlink:href="Prod.html#is1functor_prod_functor" xlink:title="is1functor_prod_functor">
<ellipse fill="#f070d1" stroke="black" cx="146" cy="-706.34" rx="122.37" ry="18"/>
<ellipse fill="none" stroke="black" cx="146" cy="-706.34" rx="126.37" ry="22"/>
<ellipse fill="none" stroke="black" cx="146" cy="-706.34" rx="130.38" ry="26"/>
<text text-anchor="middle" x="146" y="-702.64" font-family="Times,serif" font-size="14.00">is1functor_prod_functor</text>
</a>
</g>
</g>
<!-- Prod_is0functor_prod_functor -->
<g id="node15" class="node">
<title>Prod_is0functor_prod_functor</title>
<g id="a_node15"><a xlink:href="Prod.html#is0functor_prod_functor" xlink:title="is0functor_prod_functor">
<ellipse fill="#f070d1" stroke="black" cx="158" cy="-396.34" rx="122.38" ry="18"/>
<text text-anchor="middle" x="158" y="-392.64" font-family="Times,serif" font-size="14.00">is0functor_prod_functor</text>
</a>
</g>
</g>
<!-- Prod_is1functor_prod_functor&#45;&gt;Prod_is0functor_prod_functor -->
<g id="edge19" class="edge">
<title>Prod_is1functor_prod_functor&#45;&gt;Prod_is0functor_prod_functor</title>
<path fill="none" stroke="black" d="M146.98,-680.13C149.21,-622.92 154.64,-483.64 156.94,-424.55"/>
<polygon fill="black" stroke="black" points="160.44,-424.62 157.33,-414.49 153.44,-424.35 160.44,-424.62"/>
</g>
<!-- Prod_is1functor_prod_functor&#45;&gt;Prod_is1cat_prod -->
<g id="edge20" class="edge">
<title>Prod_is1functor_prod_functor&#45;&gt;Prod_is1cat_prod</title>
<path fill="none" stroke="black" d="M217.68,-684.62C331.28,-651.78 550.05,-588.55 650.38,-559.55"/>
<polygon fill="black" stroke="black" points="651.37,-562.9 660,-556.76 649.43,-556.18 651.37,-562.9"/>
</g>
<!-- Prod_is0functor_prod_functor&#45;&gt;Prod_isgraph_prod -->
<g id="edge21" class="edge">
<title>Prod_is0functor_prod_functor&#45;&gt;Prod_isgraph_prod</title>
<path fill="none" stroke="black" d="M179.84,-378.35C225.67,-343.22 336.01,-261.26 437,-206.34 529.43,-156.07 644.33,-111.37 708.58,-87.84"/>
<polygon fill="black" stroke="black" points="709.86,-91.1 718.06,-84.39 707.47,-84.52 709.86,-91.1"/>
</g>
<!-- Prod_isequivs_prod -->
<g id="node16" class="node">
<title>Prod_isequivs_prod</title>
<g id="a_node16"><a xlink:href="Prod.html#isequivs_prod" xlink:title="isequivs_prod">
<ellipse fill="#f070d1" stroke="black" cx="703" cy="-886.34" rx="74.96" ry="18"/>
<ellipse fill="none" stroke="black" cx="703" cy="-886.34" rx="78.98" ry="22"/>
<ellipse fill="none" stroke="black" cx="703" cy="-886.34" rx="82.99" ry="26"/>
<text text-anchor="middle" x="703" y="-882.64" font-family="Times,serif" font-size="14.00">isequivs_prod</text>
</a>
</g>
</g>
<!-- Prod_hasequivs_prod -->
<g id="node17" class="node">
<title>Prod_hasequivs_prod</title>
<g id="a_node17"><a xlink:href="Prod.html#hasequivs_prod" xlink:title="hasequivs_prod">
<ellipse fill="#f070d1" stroke="black" cx="703" cy="-706.34" rx="83.39" ry="18"/>
<text text-anchor="middle" x="703" y="-702.64" font-family="Times,serif" font-size="14.00">hasequivs_prod</text>
</a>
</g>
</g>
<!-- Prod_isequivs_prod&#45;&gt;Prod_hasequivs_prod -->
<g id="edge22" class="edge">
<title>Prod_isequivs_prod&#45;&gt;Prod_hasequivs_prod</title>
<path fill="none" stroke="black" d="M703,-860.21C703,-827.09 703,-769.03 703,-734.79"/>
<polygon fill="black" stroke="black" points="706.5,-734.57 703,-724.57 699.5,-734.57 706.5,-734.57"/>
</g>
<!-- Prod_hasequivs_prod&#45;&gt;Prod_is1cat_prod -->
<g id="edge23" class="edge">
<title>Prod_hasequivs_prod&#45;&gt;Prod_is1cat_prod</title>
<path fill="none" stroke="black" d="M703,-688.11C703,-660.27 703,-605.15 703,-571.83"/>
<polygon fill="black" stroke="black" points="706.5,-571.44 703,-561.44 699.5,-571.44 706.5,-571.44"/>
</g>
<!-- Prod_is2graph_prod -->
<g id="node19" class="node">
<title>Prod_is2graph_prod</title>
<g id="a_node19"><a xlink:href="Prod.html#is2graph_prod" xlink:title="is2graph_prod">
<ellipse fill="#f070d1" stroke="black" cx="696" cy="-396.34" rx="77.19" ry="18"/>
<text text-anchor="middle" x="696" y="-392.64" font-family="Times,serif" font-size="14.00">is2graph_prod</text>
</a>
</g>
</g>
<!-- Prod_is1cat_prod&#45;&gt;Prod_is2graph_prod -->
<g id="edge24" class="edge">
<title>Prod_is1cat_prod&#45;&gt;Prod_is2graph_prod</title>
<path fill="none" stroke="black" d="M702.17,-525.13C700.97,-500.28 698.74,-454.08 697.31,-424.57"/>
<polygon fill="black" stroke="black" points="700.81,-424.34 696.83,-414.52 693.82,-424.67 700.81,-424.34"/>
</g>
<!-- Prod_is0gpd_prod -->
<g id="node20" class="node">
<title>Prod_is0gpd_prod</title>
<g id="a_node20"><a xlink:href="Prod.html#is0gpd_prod" xlink:title="is0gpd_prod">
<ellipse fill="#f070d1" stroke="black" cx="900" cy="-396.34" rx="67.69" ry="18"/>
<text text-anchor="middle" x="900" y="-392.64" font-family="Times,serif" font-size="14.00">is0gpd_prod</text>
</a>
</g>
</g>
<!-- Prod_is1cat_prod&#45;&gt;Prod_is0gpd_prod -->
<g id="edge25" class="edge">
<title>Prod_is1cat_prod&#45;&gt;Prod_is0gpd_prod</title>
<path fill="none" stroke="black" d="M724.84,-526.27C760.19,-500.24 830.02,-448.84 870.01,-419.41"/>
<polygon fill="black" stroke="black" points="872.09,-422.23 878.07,-413.48 867.94,-416.59 872.09,-422.23"/>
</g>
<!-- Prod_is2graph_prod&#45;&gt;Prod_isgraph_prod -->
<g id="edge26" class="edge">
<title>Prod_is2graph_prod&#45;&gt;Prod_isgraph_prod</title>
<path fill="none" stroke="black" d="M652.97,-381.31C575.88,-353.75 426.84,-288.07 478,-206.34 524.16,-132.59 622.99,-97.82 690,-82.16"/>
<polygon fill="black" stroke="black" points="691.06,-85.51 700.05,-79.9 689.53,-78.68 691.06,-85.51"/>
</g>
<!-- Prod_is01cat_prod -->
<g id="node21" class="node">
<title>Prod_is01cat_prod</title>
<g id="a_node21"><a xlink:href="Prod.html#is01cat_prod" xlink:title="is01cat_prod">
<ellipse fill="#f070d1" stroke="black" cx="933" cy="-232.34" rx="70.39" ry="18"/>
<text text-anchor="middle" x="933" y="-228.64" font-family="Times,serif" font-size="14.00">is01cat_prod</text>
</a>
</g>
</g>
<!-- Prod_is0gpd_prod&#45;&gt;Prod_is01cat_prod -->
<g id="edge27" class="edge">
<title>Prod_is0gpd_prod&#45;&gt;Prod_is01cat_prod</title>
<path fill="none" stroke="black" d="M903.47,-378.31C909.17,-350.3 920.58,-294.3 927.43,-260.69"/>
<polygon fill="black" stroke="black" points="930.91,-261.12 929.48,-250.63 924.05,-259.73 930.91,-261.12"/>
</g>
<!-- Prod_is01cat_prod&#45;&gt;Prod_isgraph_prod -->
<g id="edge28" class="edge">
<title>Prod_is01cat_prod&#45;&gt;Prod_isgraph_prod</title>
<path fill="none" stroke="black" d="M914.93,-214.71C883.67,-185.96 819.42,-126.85 783.59,-93.88"/>
<polygon fill="black" stroke="black" points="785.7,-91.06 775.97,-86.87 780.96,-96.22 785.7,-91.06"/>
</g>
</g>
</svg>
