<?xml version="1.0" encoding="UTF-8" standalone="no"?>
<!DOCTYPE svg PUBLIC "-//W3C//DTD SVG 1.1//EN"
 "http://www.w3.org/Graphics/SVG/1.1/DTD/svg11.dtd">
<!-- Generated by graphviz version 2.43.0 (0)
 -->
<!-- Title: HoTT_Basics_Predicate Pages: 1 -->
<svg width="3539pt" height="1774pt"
 viewBox="0.00 0.00 3539.00 1773.50" xmlns="http://www.w3.org/2000/svg" xmlns:xlink="http://www.w3.org/1999/xlink">
<g id="graph0" class="graph" transform="scale(1 1) rotate(0) translate(4 1769.5)">
<title>HoTT_Basics_Predicate</title>
<polygon fill="white" stroke="transparent" points="-4,4 -4,-1769.5 3535,-1769.5 3535,4 -4,4"/>
<g id="clust1" class="cluster">
<title>cluster_Predicate</title>
<polygon fill="#ffffc3" stroke="black" points="8,-52.9 8,-1712.6 3523,-1712.6 3523,-52.9 8,-52.9"/>
<text text-anchor="middle" x="50.5" y="-1697.4" font-family="Times,serif" font-size="14.00">Predicate</text>
</g>
<!-- Predicate_pred_and_unit_r -->
<g id="node1" class="node">
<title>Predicate_pred_and_unit_r</title>
<g id="a_node1"><a xlink:href="Predicate.html#pred_and_unit_r" xlink:title="pred_and_unit_r">
<ellipse fill="#f070d1" stroke="black" cx="2804" cy="-1335.9" rx="85.27" ry="18"/>
<ellipse fill="none" stroke="black" cx="2804" cy="-1335.9" rx="89.28" ry="22"/>
<ellipse fill="none" stroke="black" cx="2804" cy="-1335.9" rx="93.29" ry="26"/>
<text text-anchor="middle" x="2804" y="-1332.2" font-family="Times,serif" font-size="14.00">pred_and_unit_r</text>
</a>
</g>
</g>
<!-- Predicate_pred_and_is_meet -->
<g id="node8" class="node">
<title>Predicate_pred_and_is_meet</title>
<g id="a_node8"><a xlink:href="Predicate.html#pred_and_is_meet" xlink:title="pred_and_is_meet">
<ellipse fill="#f070d1" stroke="black" cx="3010" cy="-753.9" rx="93.68" ry="18"/>
<text text-anchor="middle" x="3010" y="-750.2" font-family="Times,serif" font-size="14.00">pred_and_is_meet</text>
</a>
</g>
</g>
<!-- Predicate_pred_and_unit_r&#45;&gt;Predicate_pred_and_is_meet -->
<g id="edge1" class="edge">
<title>Predicate_pred_and_unit_r&#45;&gt;Predicate_pred_and_is_meet</title>
<path fill="none" stroke="black" d="M2812.85,-1309.98C2846.44,-1215.42 2965.84,-879.22 3000.5,-781.64"/>
<polygon fill="black" stroke="black" points="3003.9,-782.54 3003.95,-771.94 2997.3,-780.19 3003.9,-782.54"/>
</g>
<!-- Predicate_pred_and_subset_l -->
<g id="node10" class="node">
<title>Predicate_pred_and_subset_l</title>
<g id="a_node10"><a xlink:href="Predicate.html#pred_and_subset_l" xlink:title="pred_and_subset_l">
<ellipse fill="#f070d1" stroke="black" cx="2802" cy="-753.9" rx="96.38" ry="18"/>
<text text-anchor="middle" x="2802" y="-750.2" font-family="Times,serif" font-size="14.00">pred_and_subset_l</text>
</a>
</g>
</g>
<!-- Predicate_pred_and_unit_r&#45;&gt;Predicate_pred_and_subset_l -->
<g id="edge2" class="edge">
<title>Predicate_pred_and_unit_r&#45;&gt;Predicate_pred_and_subset_l</title>
<path fill="none" stroke="black" d="M2803.91,-1309.6C2803.59,-1214.71 2802.43,-880.32 2802.09,-782.17"/>
<polygon fill="black" stroke="black" points="2805.59,-781.89 2802.06,-771.91 2798.59,-781.92 2805.59,-781.89"/>
</g>
<!-- Predicate_pred_unit_subset -->
<g id="node11" class="node">
<title>Predicate_pred_unit_subset</title>
<g id="a_node11"><a xlink:href="Predicate.html#pred_unit_subset" xlink:title="pred_unit_subset">
<ellipse fill="#f070d1" stroke="black" cx="3212" cy="-753.9" rx="90.18" ry="18"/>
<text text-anchor="middle" x="3212" y="-750.2" font-family="Times,serif" font-size="14.00">pred_unit_subset</text>
</a>
</g>
</g>
<!-- Predicate_pred_and_unit_r&#45;&gt;Predicate_pred_unit_subset -->
<g id="edge3" class="edge">
<title>Predicate_pred_and_unit_r&#45;&gt;Predicate_pred_unit_subset</title>
<path fill="none" stroke="black" d="M2821.27,-1310.35C2887.75,-1215.84 3126.77,-876.07 3194.18,-780.23"/>
<polygon fill="black" stroke="black" points="3197.09,-782.17 3199.98,-771.98 3191.37,-778.15 3197.09,-782.17"/>
</g>
<!-- Predicate_pred_subset_antisymm -->
<g id="node21" class="node">
<title>Predicate_pred_subset_antisymm</title>
<g id="a_node21"><a xlink:href="Predicate.html#pred_subset_antisymm" xlink:title="pred_subset_antisymm">
<ellipse fill="#f070d1" stroke="black" cx="508" cy="-753.9" rx="117.78" ry="18"/>
<text text-anchor="middle" x="508" y="-750.2" font-family="Times,serif" font-size="14.00">pred_subset_antisymm</text>
</a>
</g>
</g>
<!-- Predicate_pred_and_unit_r&#45;&gt;Predicate_pred_subset_antisymm -->
<g id="edge4" class="edge">
<title>Predicate_pred_and_unit_r&#45;&gt;Predicate_pred_subset_antisymm</title>
<path fill="none" stroke="black" d="M2736.53,-1317.85C2400.77,-1233.04 912.77,-857.15 575.94,-772.06"/>
<polygon fill="black" stroke="black" points="576.63,-768.63 566.08,-769.57 574.92,-775.41 576.63,-768.63"/>
</g>
<!-- Predicate_pred_and_unit_l -->
<g id="node2" class="node">
<title>Predicate_pred_and_unit_l</title>
<g id="a_node2"><a xlink:href="Predicate.html#pred_and_unit_l" xlink:title="pred_and_unit_l">
<ellipse fill="#f070d1" stroke="black" cx="3111" cy="-1335.9" rx="83.7" ry="18"/>
<ellipse fill="none" stroke="black" cx="3111" cy="-1335.9" rx="87.69" ry="22"/>
<ellipse fill="none" stroke="black" cx="3111" cy="-1335.9" rx="91.69" ry="26"/>
<text text-anchor="middle" x="3111" y="-1332.2" font-family="Times,serif" font-size="14.00">pred_and_unit_l</text>
</a>
</g>
</g>
<!-- Predicate_pred_and_unit_l&#45;&gt;Predicate_pred_and_is_meet -->
<g id="edge5" class="edge">
<title>Predicate_pred_and_unit_l&#45;&gt;Predicate_pred_and_is_meet</title>
<path fill="none" stroke="black" d="M3106.6,-1309.6C3090.05,-1214.61 3031.72,-879.64 3014.7,-781.88"/>
<polygon fill="black" stroke="black" points="3018.13,-781.16 3012.96,-771.91 3011.23,-782.36 3018.13,-781.16"/>
</g>
<!-- Predicate_pred_and_subset_r -->
<g id="node9" class="node">
<title>Predicate_pred_and_subset_r</title>
<g id="a_node9"><a xlink:href="Predicate.html#pred_and_subset_r" xlink:title="pred_and_subset_r">
<ellipse fill="#f070d1" stroke="black" cx="3418" cy="-753.9" rx="97.48" ry="18"/>
<text text-anchor="middle" x="3418" y="-750.2" font-family="Times,serif" font-size="14.00">pred_and_subset_r</text>
</a>
</g>
</g>
<!-- Predicate_pred_and_unit_l&#45;&gt;Predicate_pred_and_subset_r -->
<g id="edge6" class="edge">
<title>Predicate_pred_and_unit_l&#45;&gt;Predicate_pred_and_subset_r</title>
<path fill="none" stroke="black" d="M3124.19,-1309.98C3174.34,-1215.23 3352.91,-877.86 3404.16,-781.05"/>
<polygon fill="black" stroke="black" points="3407.39,-782.42 3408.98,-771.94 3401.21,-779.14 3407.39,-782.42"/>
</g>
<!-- Predicate_pred_and_unit_l&#45;&gt;Predicate_pred_unit_subset -->
<g id="edge7" class="edge">
<title>Predicate_pred_and_unit_l&#45;&gt;Predicate_pred_unit_subset</title>
<path fill="none" stroke="black" d="M3115.4,-1309.6C3131.95,-1214.61 3190.28,-879.64 3207.3,-781.88"/>
<polygon fill="black" stroke="black" points="3210.77,-782.36 3209.04,-771.91 3203.87,-781.16 3210.77,-782.36"/>
</g>
<!-- Predicate_pred_and_unit_l&#45;&gt;Predicate_pred_subset_antisymm -->
<g id="edge8" class="edge">
<title>Predicate_pred_and_unit_l&#45;&gt;Predicate_pred_subset_antisymm</title>
<path fill="none" stroke="black" d="M3040.36,-1319.16C2670.46,-1236.74 959.17,-855.43 581.78,-771.34"/>
<polygon fill="black" stroke="black" points="582.31,-767.87 571.79,-769.11 580.79,-774.7 582.31,-767.87"/>
</g>
<!-- Predicate_pred_or_comm -->
<g id="node3" class="node">
<title>Predicate_pred_or_comm</title>
<g id="a_node3"><a xlink:href="Predicate.html#pred_or_comm" xlink:title="pred_or_comm">
<ellipse fill="#f070d1" stroke="black" cx="300" cy="-1335.9" rx="78.77" ry="18"/>
<ellipse fill="none" stroke="black" cx="300" cy="-1335.9" rx="82.78" ry="22"/>
<ellipse fill="none" stroke="black" cx="300" cy="-1335.9" rx="86.79" ry="26"/>
<text text-anchor="middle" x="300" y="-1332.2" font-family="Times,serif" font-size="14.00">pred_or_comm</text>
</a>
</g>
</g>
<!-- Predicate_pred_or_comm_ -->
<g id="node4" class="node">
<title>Predicate_pred_or_comm_</title>
<g id="a_node4"><a xlink:href="Predicate.html#pred_or_comm'" xlink:title="pred_or_comm&#39;">
<ellipse fill="#f070d1" stroke="black" cx="291" cy="-753.9" rx="81.49" ry="18"/>
<text text-anchor="middle" x="291" y="-750.2" font-family="Times,serif" font-size="14.00">pred_or_comm&#39;</text>
</a>
</g>
</g>
<!-- Predicate_pred_or_comm&#45;&gt;Predicate_pred_or_comm_ -->
<g id="edge9" class="edge">
<title>Predicate_pred_or_comm&#45;&gt;Predicate_pred_or_comm_</title>
<path fill="none" stroke="black" d="M299.61,-1309.6C298.13,-1214.71 292.95,-880.32 291.42,-782.17"/>
<polygon fill="black" stroke="black" points="294.92,-781.85 291.26,-771.91 287.92,-781.96 294.92,-781.85"/>
</g>
<!-- Predicate_pred_or_comm&#45;&gt;Predicate_pred_subset_antisymm -->
<g id="edge10" class="edge">
<title>Predicate_pred_or_comm&#45;&gt;Predicate_pred_subset_antisymm</title>
<path fill="none" stroke="black" d="M308.94,-1309.98C342.85,-1215.42 463.41,-879.22 498.41,-781.64"/>
<polygon fill="black" stroke="black" points="501.81,-782.54 501.89,-771.94 495.22,-780.17 501.81,-782.54"/>
</g>
<!-- Predicate_pred_or -->
<g id="node15" class="node">
<title>Predicate_pred_or</title>
<g id="a_node15"><a xlink:href="Predicate.html#pred_or" xlink:title="pred_or">
<ellipse fill="#f070d1" stroke="black" cx="197" cy="-224.9" rx="46.29" ry="18"/>
<text text-anchor="middle" x="197" y="-221.2" font-family="Times,serif" font-size="14.00">pred_or</text>
</a>
</g>
</g>
<!-- Predicate_pred_or_comm_&#45;&gt;Predicate_pred_or -->
<g id="edge11" class="edge">
<title>Predicate_pred_or_comm_&#45;&gt;Predicate_pred_or</title>
<path fill="none" stroke="black" d="M287.93,-735.66C274.22,-658.8 218.59,-346.94 201.81,-252.88"/>
<polygon fill="black" stroke="black" points="205.25,-252.23 200.05,-243 198.36,-253.46 205.25,-252.23"/>
</g>
<!-- Predicate_pred_subset -->
<g id="node24" class="node">
<title>Predicate_pred_subset</title>
<g id="a_node24"><a xlink:href="Predicate.html#pred_subset" xlink:title="pred_subset">
<ellipse fill="#f070d1" stroke="black" cx="1793" cy="-224.9" rx="67.69" ry="18"/>
<text text-anchor="middle" x="1793" y="-221.2" font-family="Times,serif" font-size="14.00">pred_subset</text>
</a>
</g>
</g>
<!-- Predicate_pred_or_comm_&#45;&gt;Predicate_pred_subset -->
<g id="edge12" class="edge">
<title>Predicate_pred_or_comm_&#45;&gt;Predicate_pred_subset</title>
<path fill="none" stroke="black" d="M332.35,-738.39C545,-663.78 1514.48,-323.62 1744.12,-243.05"/>
<polygon fill="black" stroke="black" points="1745.59,-246.24 1753.87,-239.63 1743.27,-239.64 1745.59,-246.24"/>
</g>
<!-- Predicate_pred_or_is_join -->
<g id="node5" class="node">
<title>Predicate_pred_or_is_join</title>
<g id="a_node5"><a xlink:href="Predicate.html#pred_or_is_join" xlink:title="pred_or_is_join">
<ellipse fill="#f070d1" stroke="black" cx="104" cy="-753.9" rx="79.89" ry="18"/>
<ellipse fill="none" stroke="black" cx="104" cy="-753.9" rx="83.89" ry="22"/>
<ellipse fill="none" stroke="black" cx="104" cy="-753.9" rx="87.89" ry="26"/>
<text text-anchor="middle" x="104" y="-750.2" font-family="Times,serif" font-size="14.00">pred_or_is_join</text>
</a>
</g>
</g>
<!-- Predicate_pred_or_is_join&#45;&gt;Predicate_pred_or -->
<g id="edge13" class="edge">
<title>Predicate_pred_or_is_join&#45;&gt;Predicate_pred_or</title>
<path fill="none" stroke="black" d="M108.42,-727.84C123.98,-639.68 176.11,-344.28 192.22,-253"/>
<polygon fill="black" stroke="black" points="195.71,-253.37 194,-242.91 188.81,-252.15 195.71,-253.37"/>
</g>
<!-- Predicate_pred_or_is_join&#45;&gt;Predicate_pred_subset -->
<g id="edge14" class="edge">
<title>Predicate_pred_or_is_join&#45;&gt;Predicate_pred_subset</title>
<path fill="none" stroke="black" d="M163.12,-734.45C426.73,-652.2 1492.83,-319.56 1741.13,-242.08"/>
<polygon fill="black" stroke="black" points="1742.48,-245.33 1750.98,-239.01 1740.4,-238.65 1742.48,-245.33"/>
</g>
<!-- Predicate_pred_and_comm -->
<g id="node6" class="node">
<title>Predicate_pred_and_comm</title>
<g id="a_node6"><a xlink:href="Predicate.html#pred_and_comm" xlink:title="pred_and_comm">
<ellipse fill="#f070d1" stroke="black" cx="1553" cy="-1335.9" rx="85.6" ry="18"/>
<ellipse fill="none" stroke="black" cx="1553" cy="-1335.9" rx="89.59" ry="22"/>
<ellipse fill="none" stroke="black" cx="1553" cy="-1335.9" rx="93.59" ry="26"/>
<text text-anchor="middle" x="1553" y="-1332.2" font-family="Times,serif" font-size="14.00">pred_and_comm</text>
</a>
</g>
</g>
<!-- Predicate_pred_and_comm_ -->
<g id="node7" class="node">
<title>Predicate_pred_and_comm_</title>
<g id="a_node7"><a xlink:href="Predicate.html#pred_and_comm'" xlink:title="pred_and_comm&#39;">
<ellipse fill="#f070d1" stroke="black" cx="2599" cy="-753.9" rx="88.28" ry="18"/>
<text text-anchor="middle" x="2599" y="-750.2" font-family="Times,serif" font-size="14.00">pred_and_comm&#39;</text>
</a>
</g>
</g>
<!-- Predicate_pred_and_comm&#45;&gt;Predicate_pred_and_comm_ -->
<g id="edge15" class="edge">
<title>Predicate_pred_and_comm&#45;&gt;Predicate_pred_and_comm_</title>
<path fill="none" stroke="black" d="M1593.68,-1312.34C1761.31,-1219.39 2397.34,-866.72 2560.62,-776.18"/>
<polygon fill="black" stroke="black" points="2562.75,-779 2569.8,-771.09 2559.36,-772.88 2562.75,-779"/>
</g>
<!-- Predicate_pred_and_comm&#45;&gt;Predicate_pred_subset_antisymm -->
<g id="edge16" class="edge">
<title>Predicate_pred_and_comm&#45;&gt;Predicate_pred_subset_antisymm</title>
<path fill="none" stroke="black" d="M1512.36,-1312.34C1345.07,-1219.49 710.86,-867.49 546.89,-776.48"/>
<polygon fill="black" stroke="black" points="548.1,-773.15 537.66,-771.36 544.7,-779.27 548.1,-773.15"/>
</g>
<!-- Predicate_pred_and -->
<g id="node16" class="node">
<title>Predicate_pred_and</title>
<g id="a_node16"><a xlink:href="Predicate.html#pred_and" xlink:title="pred_and">
<ellipse fill="#f070d1" stroke="black" cx="2906" cy="-224.9" rx="53.89" ry="18"/>
<text text-anchor="middle" x="2906" y="-221.2" font-family="Times,serif" font-size="14.00">pred_and</text>
</a>
</g>
</g>
<!-- Predicate_pred_and_comm_&#45;&gt;Predicate_pred_and -->
<g id="edge17" class="edge">
<title>Predicate_pred_and_comm_&#45;&gt;Predicate_pred_and</title>
<path fill="none" stroke="black" d="M2608.87,-735.96C2653.57,-659.23 2837.23,-343.94 2891.09,-251.49"/>
<polygon fill="black" stroke="black" points="2894.16,-253.18 2896.17,-242.77 2888.11,-249.65 2894.16,-253.18"/>
</g>
<!-- Predicate_pred_and_comm_&#45;&gt;Predicate_pred_subset -->
<g id="edge18" class="edge">
<title>Predicate_pred_and_comm_&#45;&gt;Predicate_pred_subset</title>
<path fill="none" stroke="black" d="M2573.99,-736.55C2456.46,-659.7 1959.08,-334.49 1825.91,-247.42"/>
<polygon fill="black" stroke="black" points="1827.6,-244.34 1817.32,-241.8 1823.77,-250.2 1827.6,-244.34"/>
</g>
<!-- Predicate_pred_and_is_meet&#45;&gt;Predicate_pred_and -->
<g id="edge19" class="edge">
<title>Predicate_pred_and_is_meet&#45;&gt;Predicate_pred_and</title>
<path fill="none" stroke="black" d="M3006.6,-735.66C2991.43,-658.8 2929.89,-346.94 2911.32,-252.88"/>
<polygon fill="black" stroke="black" points="2914.75,-252.14 2909.38,-243 2907.88,-253.49 2914.75,-252.14"/>
</g>
<!-- Predicate_pred_and_is_meet&#45;&gt;Predicate_pred_subset -->
<g id="edge20" class="edge">
<title>Predicate_pred_and_is_meet&#45;&gt;Predicate_pred_subset</title>
<path fill="none" stroke="black" d="M2973.91,-737.27C2797.59,-660.92 2027.55,-327.47 1836.17,-244.59"/>
<polygon fill="black" stroke="black" points="1837.55,-241.38 1826.98,-240.61 1834.77,-247.8 1837.55,-241.38"/>
</g>
<!-- Predicate_pred_and_subset_r&#45;&gt;Predicate_pred_and -->
<g id="edge21" class="edge">
<title>Predicate_pred_and_subset_r&#45;&gt;Predicate_pred_and</title>
<path fill="none" stroke="black" d="M3401.54,-735.96C3326.45,-658.67 3016.21,-339.34 2928.94,-249.51"/>
<polygon fill="black" stroke="black" points="2931.36,-246.98 2921.89,-242.25 2926.34,-251.86 2931.36,-246.98"/>
</g>
<!-- Predicate_pred_and_subset_r&#45;&gt;Predicate_pred_subset -->
<g id="edge22" class="edge">
<title>Predicate_pred_and_subset_r&#45;&gt;Predicate_pred_subset</title>
<path fill="none" stroke="black" d="M3371.98,-737.98C3138.66,-662.31 2087.89,-321.53 1843.78,-242.37"/>
<polygon fill="black" stroke="black" points="1844.69,-238.98 1834.09,-239.23 1842.53,-245.64 1844.69,-238.98"/>
</g>
<!-- Predicate_pred_and_subset_l&#45;&gt;Predicate_pred_and -->
<g id="edge23" class="edge">
<title>Predicate_pred_and_subset_l&#45;&gt;Predicate_pred_and</title>
<path fill="none" stroke="black" d="M2805.4,-735.66C2820.57,-658.8 2882.11,-346.94 2900.68,-252.88"/>
<polygon fill="black" stroke="black" points="2904.12,-253.49 2902.62,-243 2897.25,-252.14 2904.12,-253.49"/>
</g>
<!-- Predicate_pred_and_subset_l&#45;&gt;Predicate_pred_subset -->
<g id="edge24" class="edge">
<title>Predicate_pred_and_subset_l&#45;&gt;Predicate_pred_subset</title>
<path fill="none" stroke="black" d="M2771.25,-736.84C2624.4,-660.14 1994.82,-331.31 1831.71,-246.12"/>
<polygon fill="black" stroke="black" points="1833.01,-242.85 1822.53,-241.32 1829.77,-249.05 1833.01,-242.85"/>
</g>
<!-- Predicate_pred_unit -->
<g id="node14" class="node">
<title>Predicate_pred_unit</title>
<g id="a_node14"><a xlink:href="Predicate.html#pred_unit" xlink:title="pred_unit">
<ellipse fill="#f070d1" stroke="black" cx="3212" cy="-224.9" rx="55.49" ry="18"/>
<text text-anchor="middle" x="3212" y="-221.2" font-family="Times,serif" font-size="14.00">pred_unit</text>
</a>
</g>
</g>
<!-- Predicate_pred_unit_subset&#45;&gt;Predicate_pred_unit -->
<g id="edge25" class="edge">
<title>Predicate_pred_unit_subset&#45;&gt;Predicate_pred_unit</title>
<path fill="none" stroke="black" d="M3212,-735.66C3212,-658.88 3212,-347.57 3212,-253.17"/>
<polygon fill="black" stroke="black" points="3215.5,-253 3212,-243 3208.5,-253 3215.5,-253"/>
</g>
<!-- Predicate_pred_unit_subset&#45;&gt;Predicate_pred_subset -->
<g id="edge26" class="edge">
<title>Predicate_pred_unit_subset&#45;&gt;Predicate_pred_subset</title>
<path fill="none" stroke="black" d="M3171.06,-737.7C2966.76,-661.82 2058.67,-324.57 1840.33,-243.48"/>
<polygon fill="black" stroke="black" points="1841.35,-240.12 1830.75,-239.92 1838.91,-246.68 1841.35,-240.12"/>
</g>
<!-- Predicate_pred_empty_subset -->
<g id="node12" class="node">
<title>Predicate_pred_empty_subset</title>
<g id="a_node12"><a xlink:href="Predicate.html#pred_empty_subset" xlink:title="pred_empty_subset">
<ellipse fill="#f070d1" stroke="black" cx="1260" cy="-753.9" rx="100.96" ry="18"/>
<ellipse fill="none" stroke="black" cx="1260" cy="-753.9" rx="104.97" ry="22"/>
<ellipse fill="none" stroke="black" cx="1260" cy="-753.9" rx="108.98" ry="26"/>
<text text-anchor="middle" x="1260" y="-750.2" font-family="Times,serif" font-size="14.00">pred_empty_subset</text>
</a>
</g>
</g>
<!-- Predicate_pred_empty -->
<g id="node13" class="node">
<title>Predicate_pred_empty</title>
<g id="a_node13"><a xlink:href="Predicate.html#pred_empty" xlink:title="pred_empty">
<ellipse fill="#f070d1" stroke="black" cx="1260" cy="-224.9" rx="65.79" ry="18"/>
<text text-anchor="middle" x="1260" y="-221.2" font-family="Times,serif" font-size="14.00">pred_empty</text>
</a>
</g>
</g>
<!-- Predicate_pred_empty_subset&#45;&gt;Predicate_pred_empty -->
<g id="edge27" class="edge">
<title>Predicate_pred_empty_subset&#45;&gt;Predicate_pred_empty</title>
<path fill="none" stroke="black" d="M1260,-727.84C1260,-639.68 1260,-344.28 1260,-253"/>
<polygon fill="black" stroke="black" points="1263.5,-252.91 1260,-242.91 1256.5,-252.91 1263.5,-252.91"/>
</g>
<!-- Predicate_pred_empty_subset&#45;&gt;Predicate_pred_subset -->
<g id="edge28" class="edge">
<title>Predicate_pred_empty_subset&#45;&gt;Predicate_pred_subset</title>
<path fill="none" stroke="black" d="M1284.64,-728.54C1374.06,-640.12 1680.86,-336.77 1769.09,-249.54"/>
<polygon fill="black" stroke="black" points="1771.59,-251.99 1776.24,-242.47 1766.67,-247.01 1771.59,-251.99"/>
</g>
<!-- Predicate_pred_subset_moveR_equiv -->
<g id="node17" class="node">
<title>Predicate_pred_subset_moveR_equiv</title>
<g id="a_node17"><a xlink:href="Predicate.html#pred_subset_moveR_equiv" xlink:title="pred_subset_moveR_equiv">
<ellipse fill="#f070d1" stroke="black" cx="2092" cy="-753.9" rx="133.46" ry="18"/>
<ellipse fill="none" stroke="black" cx="2092" cy="-753.9" rx="137.47" ry="22"/>
<ellipse fill="none" stroke="black" cx="2092" cy="-753.9" rx="141.48" ry="26"/>
<text text-anchor="middle" x="2092" y="-750.2" font-family="Times,serif" font-size="14.00">pred_subset_moveR_equiv</text>
</a>
</g>
</g>
<!-- Predicate_pred_subset_moveR_equiv&#45;&gt;Predicate_pred_subset -->
<g id="edge29" class="edge">
<title>Predicate_pred_subset_moveR_equiv&#45;&gt;Predicate_pred_subset</title>
<path fill="none" stroke="black" d="M2077.78,-727.84C2027.51,-639.23 1858.46,-341.28 1807.6,-251.63"/>
<polygon fill="black" stroke="black" points="1810.63,-249.88 1802.65,-242.91 1804.54,-253.34 1810.63,-249.88"/>
</g>
<!-- Predicate_pred_subset_moveL_equiv -->
<g id="node18" class="node">
<title>Predicate_pred_subset_moveL_equiv</title>
<g id="a_node18"><a xlink:href="Predicate.html#pred_subset_moveL_equiv" xlink:title="pred_subset_moveL_equiv">
<ellipse fill="#f070d1" stroke="black" cx="1793" cy="-753.9" rx="131.88" ry="18"/>
<ellipse fill="none" stroke="black" cx="1793" cy="-753.9" rx="135.88" ry="22"/>
<ellipse fill="none" stroke="black" cx="1793" cy="-753.9" rx="139.88" ry="26"/>
<text text-anchor="middle" x="1793" y="-750.2" font-family="Times,serif" font-size="14.00">pred_subset_moveL_equiv</text>
</a>
</g>
</g>
<!-- Predicate_pred_subset_moveL_equiv&#45;&gt;Predicate_pred_subset -->
<g id="edge30" class="edge">
<title>Predicate_pred_subset_moveL_equiv&#45;&gt;Predicate_pred_subset</title>
<path fill="none" stroke="black" d="M1793,-727.84C1793,-639.68 1793,-344.28 1793,-253"/>
<polygon fill="black" stroke="black" points="1796.5,-252.91 1793,-242.91 1789.5,-252.91 1796.5,-252.91"/>
</g>
<!-- Predicate_pred_subset_postcomp -->
<g id="node19" class="node">
<title>Predicate_pred_subset_postcomp</title>
<g id="a_node19"><a xlink:href="Predicate.html#pred_subset_postcomp" xlink:title="pred_subset_postcomp">
<ellipse fill="#f070d1" stroke="black" cx="1511" cy="-753.9" rx="116.19" ry="18"/>
<ellipse fill="none" stroke="black" cx="1511" cy="-753.9" rx="120.18" ry="22"/>
<ellipse fill="none" stroke="black" cx="1511" cy="-753.9" rx="124.18" ry="26"/>
<text text-anchor="middle" x="1511" y="-750.2" font-family="Times,serif" font-size="14.00">pred_subset_postcomp</text>
</a>
</g>
</g>
<!-- Predicate_pred_subset_postcomp&#45;&gt;Predicate_pred_subset -->
<g id="edge31" class="edge">
<title>Predicate_pred_subset_postcomp&#45;&gt;Predicate_pred_subset</title>
<path fill="none" stroke="black" d="M1524.41,-727.84C1571.78,-639.32 1730.94,-341.88 1779.09,-251.9"/>
<polygon fill="black" stroke="black" points="1782.26,-253.38 1783.9,-242.91 1776.09,-250.08 1782.26,-253.38"/>
</g>
<!-- Predicate_pred_subset_precomp -->
<g id="node20" class="node">
<title>Predicate_pred_subset_precomp</title>
<g id="a_node20"><a xlink:href="Predicate.html#pred_subset_precomp" xlink:title="pred_subset_precomp">
<ellipse fill="#f070d1" stroke="black" cx="2372" cy="-753.9" rx="112.38" ry="18"/>
<ellipse fill="none" stroke="black" cx="2372" cy="-753.9" rx="116.38" ry="22"/>
<ellipse fill="none" stroke="black" cx="2372" cy="-753.9" rx="120.38" ry="26"/>
<text text-anchor="middle" x="2372" y="-750.2" font-family="Times,serif" font-size="14.00">pred_subset_precomp</text>
</a>
</g>
</g>
<!-- Predicate_pred_subset_precomp&#45;&gt;Predicate_pred_subset -->
<g id="edge32" class="edge">
<title>Predicate_pred_subset_precomp&#45;&gt;Predicate_pred_subset</title>
<path fill="none" stroke="black" d="M2345.23,-728.54C2248,-640.03 1914.14,-336.16 1818.68,-249.28"/>
<polygon fill="black" stroke="black" points="1820.96,-246.62 1811.21,-242.47 1816.25,-251.79 1820.96,-246.62"/>
</g>
<!-- Predicate_pred_subset_antisymm&#45;&gt;Predicate_pred_subset -->
<g id="edge33" class="edge">
<title>Predicate_pred_subset_antisymm&#45;&gt;Predicate_pred_subset</title>
<path fill="none" stroke="black" d="M547.16,-736.84C735.66,-659.53 1548.7,-326.09 1748.52,-244.14"/>
<polygon fill="black" stroke="black" points="1749.91,-247.35 1757.83,-240.32 1747.25,-240.88 1749.91,-247.35"/>
</g>
<!-- Predicate_pred_eq -->
<g id="node25" class="node">
<title>Predicate_pred_eq</title>
<g id="a_node25"><a xlink:href="Predicate.html#pred_eq" xlink:title="pred_eq">
<ellipse fill="#f070d1" stroke="black" cx="763" cy="-224.9" rx="48.19" ry="18"/>
<text text-anchor="middle" x="763" y="-221.2" font-family="Times,serif" font-size="14.00">pred_eq</text>
</a>
</g>
</g>
<!-- Predicate_pred_subset_antisymm&#45;&gt;Predicate_pred_eq -->
<g id="edge34" class="edge">
<title>Predicate_pred_subset_antisymm&#45;&gt;Predicate_pred_eq</title>
<path fill="none" stroke="black" d="M516.34,-735.66C553.65,-658.56 705.38,-344.97 750.37,-252"/>
<polygon fill="black" stroke="black" points="753.65,-253.26 754.85,-242.74 747.35,-250.21 753.65,-253.26"/>
</g>
<!-- Predicate_pred_subset_pred_eq_ -->
<g id="node22" class="node">
<title>Predicate_pred_subset_pred_eq_</title>
<g id="a_node22"><a xlink:href="Predicate.html#pred_subset_pred_eq'" xlink:title="pred_subset_pred_eq&#39;">
<ellipse fill="#f070d1" stroke="black" cx="763" cy="-753.9" rx="111.27" ry="18"/>
<ellipse fill="none" stroke="black" cx="763" cy="-753.9" rx="115.28" ry="22"/>
<ellipse fill="none" stroke="black" cx="763" cy="-753.9" rx="119.28" ry="26"/>
<text text-anchor="middle" x="763" y="-750.2" font-family="Times,serif" font-size="14.00">pred_subset_pred_eq&#39;</text>
</a>
</g>
</g>
<!-- Predicate_pred_subset_pred_eq_&#45;&gt;Predicate_pred_subset -->
<g id="edge35" class="edge">
<title>Predicate_pred_subset_pred_eq_&#45;&gt;Predicate_pred_subset</title>
<path fill="none" stroke="black" d="M808.25,-729.75C980.51,-641.61 1593.65,-327.89 1754.26,-245.72"/>
<polygon fill="black" stroke="black" points="1756,-248.76 1763.31,-241.09 1752.82,-242.53 1756,-248.76"/>
</g>
<!-- Predicate_pred_subset_pred_eq_&#45;&gt;Predicate_pred_eq -->
<g id="edge36" class="edge">
<title>Predicate_pred_subset_pred_eq_&#45;&gt;Predicate_pred_eq</title>
<path fill="none" stroke="black" d="M763,-727.84C763,-639.68 763,-344.28 763,-253"/>
<polygon fill="black" stroke="black" points="766.5,-252.91 763,-242.91 759.5,-252.91 766.5,-252.91"/>
</g>
<!-- Predicate_pred_subset_pred_eq -->
<g id="node23" class="node">
<title>Predicate_pred_subset_pred_eq</title>
<g id="a_node23"><a xlink:href="Predicate.html#pred_subset_pred_eq" xlink:title="pred_subset_pred_eq">
<ellipse fill="#f070d1" stroke="black" cx="1017" cy="-753.9" rx="108.58" ry="18"/>
<ellipse fill="none" stroke="black" cx="1017" cy="-753.9" rx="112.58" ry="22"/>
<ellipse fill="none" stroke="black" cx="1017" cy="-753.9" rx="116.58" ry="26"/>
<text text-anchor="middle" x="1017" y="-750.2" font-family="Times,serif" font-size="14.00">pred_subset_pred_eq</text>
</a>
</g>
</g>
<!-- Predicate_pred_subset_pred_eq&#45;&gt;Predicate_pred_subset -->
<g id="edge37" class="edge">
<title>Predicate_pred_subset_pred_eq&#45;&gt;Predicate_pred_subset</title>
<path fill="none" stroke="black" d="M1052.1,-729.06C1182.2,-640.71 1635.75,-332.69 1760.84,-247.74"/>
<polygon fill="black" stroke="black" points="1762.96,-250.53 1769.27,-242.02 1759.03,-244.74 1762.96,-250.53"/>
</g>
<!-- Predicate_pred_subset_pred_eq&#45;&gt;Predicate_pred_eq -->
<g id="edge38" class="edge">
<title>Predicate_pred_subset_pred_eq&#45;&gt;Predicate_pred_eq</title>
<path fill="none" stroke="black" d="M1004.92,-727.84C962.25,-639.31 818.87,-341.82 775.52,-251.87"/>
<polygon fill="black" stroke="black" points="778.57,-250.14 771.08,-242.66 772.27,-253.18 778.57,-250.14"/>
</g>
</g>
</svg>
