<?xml version="1.0" encoding="UTF-8" standalone="no"?>
<!DOCTYPE svg PUBLIC "-//W3C//DTD SVG 1.1//EN"
 "http://www.w3.org/Graphics/SVG/1.1/DTD/svg11.dtd">
<!-- Generated by graphviz version 2.43.0 (0)
 -->
<!-- Title: HoTT_Colimits_Colimit_Pushout_Flattening Pages: 1 -->
<svg width="510pt" height="259pt"
 viewBox="0.00 0.00 510.00 259.00" xmlns="http://www.w3.org/2000/svg" xmlns:xlink="http://www.w3.org/1999/xlink">
<g id="graph0" class="graph" transform="scale(1 1) rotate(0) translate(4 255)">
<title>HoTT_Colimits_Colimit_Pushout_Flattening</title>
<polygon fill="white" stroke="transparent" points="-4,4 -4,-255 506,-255 506,4 -4,4"/>
<g id="clust1" class="cluster">
<title>cluster_Colimit_Pushout_Flattening</title>
<polygon fill="#ffffc3" stroke="black" points="13.52,-8 13.52,-243 488.48,-243 488.48,-8 13.52,-8"/>
<text text-anchor="middle" x="121.02" y="-227.8" font-family="Times,serif" font-size="14.00">Colimit_Pushout_Flattening</text>
</g>
<!-- Colimit_Pushout_Flattening_PO_flattening -->
<g id="node1" class="node">
<title>Colimit_Pushout_Flattening_PO_flattening</title>
<g id="a_node1"><a xlink:href="Colimit_Pushout_Flattening.html#PO_flattening" xlink:title="PO_flattening">
<ellipse fill="#f070d1" stroke="black" cx="250.26" cy="-186" rx="73.39" ry="18"/>
<ellipse fill="none" stroke="black" cx="250.26" cy="-186" rx="77.39" ry="22"/>
<ellipse fill="none" stroke="black" cx="250.26" cy="-186" rx="81.39" ry="26"/>
<text text-anchor="middle" x="250.26" y="-182.3" font-family="Times,serif" font-size="14.00">PO_flattening</text>
</a>
</g>
</g>
<!-- Colimit_Pushout_Flattening_POCase_HE -->
<g id="node2" class="node">
<title>Colimit_Pushout_Flattening_POCase_HE</title>
<g id="a_node2"><a xlink:href="Colimit_Pushout_Flattening.html#POCase_HE" xlink:title="POCase_HE">
<ellipse fill="#f070d1" stroke="black" cx="138.26" cy="-106" rx="65.79" ry="18"/>
<text text-anchor="middle" x="138.26" y="-102.3" font-family="Times,serif" font-size="14.00">POCase_HE</text>
</a>
</g>
</g>
<!-- Colimit_Pushout_Flattening_PO_flattening&#45;&gt;Colimit_Pushout_Flattening_POCase_HE -->
<g id="edge1" class="edge">
<title>Colimit_Pushout_Flattening_PO_flattening&#45;&gt;Colimit_Pushout_Flattening_POCase_HE</title>
<path fill="none" stroke="black" d="M217.26,-162.02C202.16,-151.5 184.36,-139.1 169.48,-128.74"/>
<polygon fill="black" stroke="black" points="171.3,-125.74 161.1,-122.9 167.3,-131.49 171.3,-125.74"/>
</g>
<!-- Colimit_Pushout_Flattening_POCase_P -->
<g id="node4" class="node">
<title>Colimit_Pushout_Flattening_POCase_P</title>
<g id="a_node4"><a xlink:href="Colimit_Pushout_Flattening.html#POCase_P" xlink:title="POCase_P">
<ellipse fill="#f070d1" stroke="black" cx="377.26" cy="-106" rx="57.69" ry="18"/>
<text text-anchor="middle" x="377.26" y="-102.3" font-family="Times,serif" font-size="14.00">POCase_P</text>
</a>
</g>
</g>
<!-- Colimit_Pushout_Flattening_PO_flattening&#45;&gt;Colimit_Pushout_Flattening_POCase_P -->
<g id="edge2" class="edge">
<title>Colimit_Pushout_Flattening_PO_flattening&#45;&gt;Colimit_Pushout_Flattening_POCase_P</title>
<path fill="none" stroke="black" d="M286.66,-162.65C304.51,-151.68 325.88,-138.56 343.38,-127.81"/>
<polygon fill="black" stroke="black" points="345.45,-130.65 352.14,-122.43 341.79,-124.68 345.45,-130.65"/>
</g>
<!-- Colimit_Pushout_Flattening_POCase_E -->
<g id="node3" class="node">
<title>Colimit_Pushout_Flattening_POCase_E</title>
<g id="a_node3"><a xlink:href="Colimit_Pushout_Flattening.html#POCase_E" xlink:title="POCase_E">
<ellipse fill="#f070d1" stroke="black" cx="138.26" cy="-34" rx="57.69" ry="18"/>
<text text-anchor="middle" x="138.26" y="-30.3" font-family="Times,serif" font-size="14.00">POCase_E</text>
</a>
</g>
</g>
<!-- Colimit_Pushout_Flattening_POCase_HE&#45;&gt;Colimit_Pushout_Flattening_POCase_E -->
<g id="edge3" class="edge">
<title>Colimit_Pushout_Flattening_POCase_HE&#45;&gt;Colimit_Pushout_Flattening_POCase_E</title>
<path fill="none" stroke="black" d="M138.26,-87.7C138.26,-79.98 138.26,-70.71 138.26,-62.11"/>
<polygon fill="black" stroke="black" points="141.76,-62.1 138.26,-52.1 134.76,-62.1 141.76,-62.1"/>
</g>
</g>
</svg>
