<?xml version="1.0" encoding="UTF-8" standalone="no"?>
<!DOCTYPE svg PUBLIC "-//W3C//DTD SVG 1.1//EN"
 "http://www.w3.org/Graphics/SVG/1.1/DTD/svg11.dtd">
<!-- Generated by graphviz version 2.43.0 (0)
 -->
<!-- Title: HoTT_Algebra_AbGroups_Abelianization Pages: 1 -->
<svg width="2366pt" height="1187pt"
 viewBox="0.00 0.00 2366.00 1187.00" xmlns="http://www.w3.org/2000/svg" xmlns:xlink="http://www.w3.org/1999/xlink">
<g id="graph0" class="graph" transform="scale(1 1) rotate(0) translate(4 1183)">
<title>HoTT_Algebra_AbGroups_Abelianization</title>
<polygon fill="white" stroke="transparent" points="-4,4 -4,-1183 2362,-1183 2362,4 -4,4"/>
<g id="clust1" class="cluster">
<title>cluster_Abelianization</title>
<polygon fill="#ffffc3" stroke="black" points="13.44,-8 13.44,-1171 2344.56,-1171 2344.56,-8 13.44,-8"/>
<text text-anchor="middle" x="72.44" y="-1155.8" font-family="Times,serif" font-size="14.00">Abelianization</text>
</g>
<!-- Abelianization_is1functor_abel -->
<g id="node1" class="node">
<title>Abelianization_is1functor_abel</title>
<g id="a_node1"><a xlink:href="Abelianization.html#is1functor_abel" xlink:title="is1functor_abel">
<ellipse fill="#f070d1" stroke="black" cx="1788.19" cy="-1114" rx="81.8" ry="18"/>
<ellipse fill="none" stroke="black" cx="1788.19" cy="-1114" rx="85.79" ry="22"/>
<ellipse fill="none" stroke="black" cx="1788.19" cy="-1114" rx="89.79" ry="26"/>
<text text-anchor="middle" x="1788.19" y="-1110.3" font-family="Times,serif" font-size="14.00">is1functor_abel</text>
</a>
</g>
</g>
<!-- Abelianization_is0functor_abel -->
<g id="node2" class="node">
<title>Abelianization_is0functor_abel</title>
<g id="a_node2"><a xlink:href="Abelianization.html#is0functor_abel" xlink:title="is0functor_abel">
<ellipse fill="#f070d1" stroke="black" cx="1770.19" cy="-1026" rx="81.79" ry="18"/>
<text text-anchor="middle" x="1770.19" y="-1022.3" font-family="Times,serif" font-size="14.00">is0functor_abel</text>
</a>
</g>
</g>
<!-- Abelianization_is1functor_abel&#45;&gt;Abelianization_is0functor_abel -->
<g id="edge1" class="edge">
<title>Abelianization_is1functor_abel&#45;&gt;Abelianization_is0functor_abel</title>
<path fill="none" stroke="black" d="M1782.89,-1087.66C1780.68,-1077.11 1778.11,-1064.84 1775.87,-1054.1"/>
<polygon fill="black" stroke="black" points="1779.23,-1053.07 1773.75,-1044 1772.37,-1054.51 1779.23,-1053.07"/>
</g>
<!-- Abelianization_grp_homo_abel_rec -->
<g id="node10" class="node">
<title>Abelianization_grp_homo_abel_rec</title>
<g id="a_node10"><a xlink:href="Abelianization.html#grp_homo_abel_rec" xlink:title="grp_homo_abel_rec">
<ellipse fill="#f070d1" stroke="black" cx="1829.19" cy="-946" rx="99.38" ry="18"/>
<text text-anchor="middle" x="1829.19" y="-942.3" font-family="Times,serif" font-size="14.00">grp_homo_abel_rec</text>
</a>
</g>
</g>
<!-- Abelianization_is0functor_abel&#45;&gt;Abelianization_grp_homo_abel_rec -->
<g id="edge2" class="edge">
<title>Abelianization_is0functor_abel&#45;&gt;Abelianization_grp_homo_abel_rec</title>
<path fill="none" stroke="black" d="M1782.99,-1008.08C1790.96,-997.55 1801.34,-983.82 1810.25,-972.05"/>
<polygon fill="black" stroke="black" points="1813.17,-973.98 1816.42,-963.89 1807.59,-969.76 1813.17,-973.98"/>
</g>
<!-- Abelianization_abel_unit -->
<g id="node11" class="node">
<title>Abelianization_abel_unit</title>
<g id="a_node11"><a xlink:href="Abelianization.html#abel_unit" xlink:title="abel_unit">
<ellipse fill="#f070d1" stroke="black" cx="2116.19" cy="-946" rx="53.09" ry="18"/>
<text text-anchor="middle" x="2116.19" y="-942.3" font-family="Times,serif" font-size="14.00">abel_unit</text>
</a>
</g>
</g>
<!-- Abelianization_is0functor_abel&#45;&gt;Abelianization_abel_unit -->
<g id="edge3" class="edge">
<title>Abelianization_is0functor_abel&#45;&gt;Abelianization_abel_unit</title>
<path fill="none" stroke="black" d="M1825.4,-1012.55C1890.78,-997.82 1998.9,-973.44 2063.26,-958.93"/>
<polygon fill="black" stroke="black" points="2064.22,-962.3 2073.2,-956.69 2062.68,-955.48 2064.22,-962.3"/>
</g>
<!-- Abelianization_isequiv_abgroup_abelianization -->
<g id="node3" class="node">
<title>Abelianization_isequiv_abgroup_abelianization</title>
<g id="a_node3"><a xlink:href="Abelianization.html#isequiv_abgroup_abelianization" xlink:title="isequiv_abgroup_abelianization">
<ellipse fill="#f070d1" stroke="black" cx="302.19" cy="-1114" rx="155.97" ry="18"/>
<ellipse fill="none" stroke="black" cx="302.19" cy="-1114" rx="159.97" ry="22"/>
<ellipse fill="none" stroke="black" cx="302.19" cy="-1114" rx="163.97" ry="26"/>
<text text-anchor="middle" x="302.19" y="-1110.3" font-family="Times,serif" font-size="14.00">isequiv_abgroup_abelianization</text>
</a>
</g>
</g>
<!-- Abelianization_isabelianization_identity -->
<g id="node4" class="node">
<title>Abelianization_isabelianization_identity</title>
<g id="a_node4"><a xlink:href="Abelianization.html#isabelianization_identity" xlink:title="isabelianization_identity">
<ellipse fill="#f070d1" stroke="black" cx="235.19" cy="-946" rx="124.28" ry="18"/>
<text text-anchor="middle" x="235.19" y="-942.3" font-family="Times,serif" font-size="14.00">isabelianization_identity</text>
</a>
</g>
</g>
<!-- Abelianization_isequiv_abgroup_abelianization&#45;&gt;Abelianization_isabelianization_identity -->
<g id="edge4" class="edge">
<title>Abelianization_isequiv_abgroup_abelianization&#45;&gt;Abelianization_isabelianization_identity</title>
<path fill="none" stroke="black" d="M199.7,-1093.65C177.92,-1084.63 157.5,-1071.4 144.19,-1052 131.12,-1032.94 132.67,-1020.04 144.19,-1000 152.19,-986.09 165.4,-975.48 179.31,-967.56"/>
<polygon fill="black" stroke="black" points="181.28,-970.48 188.5,-962.73 178.02,-964.28 181.28,-970.48"/>
</g>
<!-- Abelianization_homotopic_isabelianization -->
<g id="node6" class="node">
<title>Abelianization_homotopic_isabelianization</title>
<g id="a_node6"><a xlink:href="Abelianization.html#homotopic_isabelianization" xlink:title="homotopic_isabelianization">
<ellipse fill="#f070d1" stroke="black" cx="289.19" cy="-1026" rx="135.68" ry="18"/>
<text text-anchor="middle" x="289.19" y="-1022.3" font-family="Times,serif" font-size="14.00">homotopic_isabelianization</text>
</a>
</g>
</g>
<!-- Abelianization_isequiv_abgroup_abelianization&#45;&gt;Abelianization_homotopic_isabelianization -->
<g id="edge5" class="edge">
<title>Abelianization_isequiv_abgroup_abelianization&#45;&gt;Abelianization_homotopic_isabelianization</title>
<path fill="none" stroke="black" d="M298.36,-1087.66C296.77,-1077.11 294.91,-1064.84 293.29,-1054.1"/>
<polygon fill="black" stroke="black" points="296.72,-1053.37 291.76,-1044 289.8,-1054.41 296.72,-1053.37"/>
</g>
<!-- Abelianization_IsAbelianization -->
<g id="node41" class="node">
<title>Abelianization_IsAbelianization</title>
<g id="a_node41"><a xlink:href="Abelianization.html#IsAbelianization" xlink:title="IsAbelianization">
<ellipse fill="#f070d1" stroke="black" cx="737.19" cy="-786" rx="85.29" ry="18"/>
<text text-anchor="middle" x="737.19" y="-782.3" font-family="Times,serif" font-size="14.00">IsAbelianization</text>
</a>
</g>
</g>
<!-- Abelianization_isabelianization_identity&#45;&gt;Abelianization_IsAbelianization -->
<g id="edge6" class="edge">
<title>Abelianization_isabelianization_identity&#45;&gt;Abelianization_IsAbelianization</title>
<path fill="none" stroke="black" d="M284.7,-929.42C378.92,-899.76 583.4,-835.4 681.93,-804.39"/>
<polygon fill="black" stroke="black" points="683.21,-807.66 691.7,-801.32 681.11,-800.98 683.21,-807.66"/>
</g>
<!-- Abelianization_issurj_isabelianization -->
<g id="node5" class="node">
<title>Abelianization_issurj_isabelianization</title>
<g id="a_node5"><a xlink:href="Abelianization.html#issurj_isabelianization" xlink:title="issurj_isabelianization">
<ellipse fill="#f070d1" stroke="black" cx="1402.19" cy="-1114" rx="113.96" ry="18"/>
<ellipse fill="none" stroke="black" cx="1402.19" cy="-1114" rx="117.97" ry="22"/>
<ellipse fill="none" stroke="black" cx="1402.19" cy="-1114" rx="121.98" ry="26"/>
<text text-anchor="middle" x="1402.19" y="-1110.3" font-family="Times,serif" font-size="14.00">issurj_isabelianization</text>
</a>
</g>
</g>
<!-- Abelianization_issurj_isabelianization&#45;&gt;Abelianization_homotopic_isabelianization -->
<g id="edge7" class="edge">
<title>Abelianization_issurj_isabelianization&#45;&gt;Abelianization_homotopic_isabelianization</title>
<path fill="none" stroke="black" d="M1289.09,-1104.26C1079.38,-1088.06 631.77,-1053.47 413.73,-1036.62"/>
<polygon fill="black" stroke="black" points="413.76,-1033.11 403.52,-1035.83 413.22,-1040.09 413.76,-1033.11"/>
</g>
<!-- Abelianization_isabelianization_abel -->
<g id="node8" class="node">
<title>Abelianization_isabelianization_abel</title>
<g id="a_node8"><a xlink:href="Abelianization.html#isabelianization_abel" xlink:title="isabelianization_abel">
<ellipse fill="#f070d1" stroke="black" cx="1422.19" cy="-1026" rx="107.48" ry="18"/>
<text text-anchor="middle" x="1422.19" y="-1022.3" font-family="Times,serif" font-size="14.00">isabelianization_abel</text>
</a>
</g>
</g>
<!-- Abelianization_issurj_isabelianization&#45;&gt;Abelianization_isabelianization_abel -->
<g id="edge8" class="edge">
<title>Abelianization_issurj_isabelianization&#45;&gt;Abelianization_isabelianization_abel</title>
<path fill="none" stroke="black" d="M1408.08,-1087.66C1410.56,-1077 1413.45,-1064.58 1415.97,-1053.77"/>
<polygon fill="black" stroke="black" points="1419.38,-1054.54 1418.24,-1044 1412.56,-1052.95 1419.38,-1054.54"/>
</g>
<!-- Abelianization_issurj_abel_in -->
<g id="node13" class="node">
<title>Abelianization_issurj_abel_in</title>
<g id="a_node13"><a xlink:href="Abelianization.html#issurj_abel_in" xlink:title="issurj_abel_in">
<ellipse fill="#f070d1" stroke="black" cx="2118.19" cy="-498" rx="73.39" ry="18"/>
<text text-anchor="middle" x="2118.19" y="-494.3" font-family="Times,serif" font-size="14.00">issurj_abel_in</text>
</a>
</g>
</g>
<!-- Abelianization_issurj_isabelianization&#45;&gt;Abelianization_issurj_abel_in -->
<g id="edge9" class="edge">
<title>Abelianization_issurj_isabelianization&#45;&gt;Abelianization_issurj_abel_in</title>
<path fill="none" stroke="black" d="M1512.54,-1102.84C1565.88,-1098.07 1630.85,-1092.47 1689.19,-1088 1810.21,-1078.73 2124.94,-1104.87 2234.19,-1052 2290.84,-1024.59 2329.19,-1009.93 2329.19,-947 2329.19,-947 2329.19,-947 2329.19,-641 2329.19,-569.01 2243.62,-531.13 2181.47,-513.1"/>
<polygon fill="black" stroke="black" points="2182.28,-509.69 2171.71,-510.38 2180.4,-516.44 2182.28,-509.69"/>
</g>
<!-- Abelianization_groupiso_isabelianization -->
<g id="node7" class="node">
<title>Abelianization_groupiso_isabelianization</title>
<g id="a_node7"><a xlink:href="Abelianization.html#groupiso_isabelianization" xlink:title="groupiso_isabelianization">
<ellipse fill="#f070d1" stroke="black" cx="688.19" cy="-946" rx="128.08" ry="18"/>
<text text-anchor="middle" x="688.19" y="-942.3" font-family="Times,serif" font-size="14.00">groupiso_isabelianization</text>
</a>
</g>
</g>
<!-- Abelianization_homotopic_isabelianization&#45;&gt;Abelianization_groupiso_isabelianization -->
<g id="edge10" class="edge">
<title>Abelianization_homotopic_isabelianization&#45;&gt;Abelianization_groupiso_isabelianization</title>
<path fill="none" stroke="black" d="M361.91,-1010.78C431.04,-997.27 534.84,-976.98 606.72,-962.93"/>
<polygon fill="black" stroke="black" points="607.5,-966.34 616.65,-960.99 606.16,-959.47 607.5,-966.34"/>
</g>
<!-- Abelianization_issurjinj_isabel -->
<g id="node40" class="node">
<title>Abelianization_issurjinj_isabel</title>
<g id="a_node40"><a xlink:href="Abelianization.html#issurjinj_isabel" xlink:title="issurjinj_isabel">
<ellipse fill="#f070d1" stroke="black" cx="737.19" cy="-866" rx="79.89" ry="18"/>
<text text-anchor="middle" x="737.19" y="-862.3" font-family="Times,serif" font-size="14.00">issurjinj_isabel</text>
</a>
</g>
</g>
<!-- Abelianization_groupiso_isabelianization&#45;&gt;Abelianization_issurjinj_isabel -->
<g id="edge11" class="edge">
<title>Abelianization_groupiso_isabelianization&#45;&gt;Abelianization_issurjinj_isabel</title>
<path fill="none" stroke="black" d="M699.07,-927.69C705.52,-917.42 713.82,-904.21 721.03,-892.73"/>
<polygon fill="black" stroke="black" points="724.16,-894.32 726.52,-883.99 718.23,-890.6 724.16,-894.32"/>
</g>
<!-- Abelianization_isabelianization_abel&#45;&gt;Abelianization_grp_homo_abel_rec -->
<g id="edge12" class="edge">
<title>Abelianization_isabelianization_abel&#45;&gt;Abelianization_grp_homo_abel_rec</title>
<path fill="none" stroke="black" d="M1489.86,-1012.03C1562.54,-998.1 1677.78,-976.02 1753.45,-961.52"/>
<polygon fill="black" stroke="black" points="1754.23,-964.93 1763.39,-959.61 1752.91,-958.06 1754.23,-964.93"/>
</g>
<!-- Abelianization_isabelianization_abel&#45;&gt;Abelianization_abel_unit -->
<g id="edge13" class="edge">
<title>Abelianization_isabelianization_abel&#45;&gt;Abelianization_abel_unit</title>
<path fill="none" stroke="black" d="M1508.68,-1015.28C1651.64,-999.21 1933.62,-967.52 2056.55,-953.7"/>
<polygon fill="black" stroke="black" points="2056.99,-957.18 2066.53,-952.58 2056.2,-950.22 2056.99,-957.18"/>
</g>
<!-- Abelianization_isabelianization_abel&#45;&gt;Abelianization_IsAbelianization -->
<g id="edge14" class="edge">
<title>Abelianization_isabelianization_abel&#45;&gt;Abelianization_IsAbelianization</title>
<path fill="none" stroke="black" d="M1442.18,-1008.31C1464.2,-987.93 1493.92,-953.08 1473.19,-928 1392.59,-830.49 1009.71,-799.76 830.33,-790.62"/>
<polygon fill="black" stroke="black" points="830.27,-787.12 820.11,-790.11 829.93,-794.11 830.27,-787.12"/>
</g>
<!-- Abelianization_abel_ind_homotopy -->
<g id="node9" class="node">
<title>Abelianization_abel_ind_homotopy</title>
<g id="a_node9"><a xlink:href="Abelianization.html#abel_ind_homotopy" xlink:title="abel_ind_homotopy">
<ellipse fill="#f070d1" stroke="black" cx="2118.19" cy="-1026" rx="99.39" ry="18"/>
<ellipse fill="none" stroke="black" cx="2118.19" cy="-1026" rx="103.38" ry="22"/>
<ellipse fill="none" stroke="black" cx="2118.19" cy="-1026" rx="107.38" ry="26"/>
<text text-anchor="middle" x="2118.19" y="-1022.3" font-family="Times,serif" font-size="14.00">abel_ind_homotopy</text>
</a>
</g>
</g>
<!-- Abelianization_abel_ind_homotopy&#45;&gt;Abelianization_abel_unit -->
<g id="edge15" class="edge">
<title>Abelianization_abel_ind_homotopy&#45;&gt;Abelianization_abel_unit</title>
<path fill="none" stroke="black" d="M2117.55,-999.89C2117.34,-991.84 2117.11,-982.88 2116.9,-974.66"/>
<polygon fill="black" stroke="black" points="2120.39,-974.32 2116.64,-964.41 2113.4,-974.5 2120.39,-974.32"/>
</g>
<!-- Abelianization_abel -->
<g id="node12" class="node">
<title>Abelianization_abel</title>
<g id="a_node12"><a xlink:href="Abelianization.html#abel" xlink:title="abel">
<ellipse fill="#f070d1" stroke="black" cx="1715.19" cy="-866" rx="30.59" ry="18"/>
<text text-anchor="middle" x="1715.19" y="-862.3" font-family="Times,serif" font-size="14.00">abel</text>
</a>
</g>
</g>
<!-- Abelianization_grp_homo_abel_rec&#45;&gt;Abelianization_abel -->
<g id="edge16" class="edge">
<title>Abelianization_grp_homo_abel_rec&#45;&gt;Abelianization_abel</title>
<path fill="none" stroke="black" d="M1805.02,-928.46C1786.77,-915.97 1761.7,-898.82 1742.69,-885.81"/>
<polygon fill="black" stroke="black" points="1744.66,-882.92 1734.43,-880.16 1740.7,-888.7 1744.66,-882.92"/>
</g>
<!-- Abelianization_abel_unit&#45;&gt;Abelianization_abel -->
<g id="edge17" class="edge">
<title>Abelianization_abel_unit&#45;&gt;Abelianization_abel</title>
<path fill="none" stroke="black" d="M2070.97,-936.2C1991.45,-920.74 1827.96,-888.93 1753.57,-874.46"/>
<polygon fill="black" stroke="black" points="1754.16,-871.01 1743.68,-872.54 1752.83,-877.89 1754.16,-871.01"/>
</g>
<!-- Abelianization_issemigrouppreserving_abel_in -->
<g id="node14" class="node">
<title>Abelianization_issemigrouppreserving_abel_in</title>
<g id="a_node14"><a xlink:href="Abelianization.html#issemigrouppreserving_abel_in" xlink:title="issemigrouppreserving_abel_in">
<ellipse fill="#f070d1" stroke="black" cx="2037.19" cy="-786" rx="155.17" ry="18"/>
<text text-anchor="middle" x="2037.19" y="-782.3" font-family="Times,serif" font-size="14.00">issemigrouppreserving_abel_in</text>
</a>
</g>
</g>
<!-- Abelianization_abel_unit&#45;&gt;Abelianization_issemigrouppreserving_abel_in -->
<g id="edge18" class="edge">
<title>Abelianization_abel_unit&#45;&gt;Abelianization_issemigrouppreserving_abel_in</title>
<path fill="none" stroke="black" d="M2107.74,-928.09C2093.97,-900.56 2066.61,-845.84 2050.31,-813.23"/>
<polygon fill="black" stroke="black" points="2053.43,-811.65 2045.83,-804.27 2047.17,-814.78 2053.43,-811.65"/>
</g>
<!-- Abelianization_isgroup_abel -->
<g id="node16" class="node">
<title>Abelianization_isgroup_abel</title>
<g id="a_node16"><a xlink:href="Abelianization.html#isgroup_abel" xlink:title="isgroup_abel">
<ellipse fill="#f070d1" stroke="black" cx="1629.19" cy="-786" rx="69.59" ry="18"/>
<text text-anchor="middle" x="1629.19" y="-782.3" font-family="Times,serif" font-size="14.00">isgroup_abel</text>
</a>
</g>
</g>
<!-- Abelianization_abel&#45;&gt;Abelianization_isgroup_abel -->
<g id="edge19" class="edge">
<title>Abelianization_abel&#45;&gt;Abelianization_isgroup_abel</title>
<path fill="none" stroke="black" d="M1699.02,-850.33C1686.62,-839.08 1669.27,-823.35 1654.96,-810.37"/>
<polygon fill="black" stroke="black" points="1657.14,-807.62 1647.38,-803.5 1652.44,-812.81 1657.14,-807.62"/>
</g>
<!-- Abelianization_Abel_ind_hprop -->
<g id="node28" class="node">
<title>Abelianization_Abel_ind_hprop</title>
<g id="a_node28"><a xlink:href="Abelianization.html#Abel_ind_hprop" xlink:title="Abel_ind_hprop">
<ellipse fill="#f070d1" stroke="black" cx="1925.19" cy="-418" rx="81.79" ry="18"/>
<text text-anchor="middle" x="1925.19" y="-414.3" font-family="Times,serif" font-size="14.00">Abel_ind_hprop</text>
</a>
</g>
</g>
<!-- Abelianization_issurj_abel_in&#45;&gt;Abelianization_Abel_ind_hprop -->
<g id="edge20" class="edge">
<title>Abelianization_issurj_abel_in&#45;&gt;Abelianization_Abel_ind_hprop</title>
<path fill="none" stroke="black" d="M2081.89,-482.33C2050.88,-469.8 2006.07,-451.69 1972.3,-438.04"/>
<polygon fill="black" stroke="black" points="1973.23,-434.64 1962.65,-434.14 1970.61,-441.13 1973.23,-434.64"/>
</g>
<!-- Abelianization_sgop_abel -->
<g id="node27" class="node">
<title>Abelianization_sgop_abel</title>
<g id="a_node27"><a xlink:href="Abelianization.html#sgop_abel" xlink:title="sgop_abel">
<ellipse fill="#f070d1" stroke="black" cx="1780.19" cy="-498" rx="56.59" ry="18"/>
<text text-anchor="middle" x="1780.19" y="-494.3" font-family="Times,serif" font-size="14.00">sgop_abel</text>
</a>
</g>
</g>
<!-- Abelianization_issemigrouppreserving_abel_in&#45;&gt;Abelianization_sgop_abel -->
<g id="edge21" class="edge">
<title>Abelianization_issemigrouppreserving_abel_in&#45;&gt;Abelianization_sgop_abel</title>
<path fill="none" stroke="black" d="M2078.6,-768.61C2120.47,-749.53 2182.79,-713.61 2210.19,-660 2234.27,-612.9 2205.25,-579.7 2160.19,-552 2108.86,-520.45 1940.31,-507.02 1845.85,-501.86"/>
<polygon fill="black" stroke="black" points="1846,-498.36 1835.83,-501.33 1845.63,-505.35 1846,-498.36"/>
</g>
<!-- Abelianization_isabgroup_abel -->
<g id="node15" class="node">
<title>Abelianization_isabgroup_abel</title>
<g id="a_node15"><a xlink:href="Abelianization.html#isabgroup_abel" xlink:title="isabgroup_abel">
<ellipse fill="#f070d1" stroke="black" cx="1946.19" cy="-866" rx="81.46" ry="18"/>
<ellipse fill="none" stroke="black" cx="1946.19" cy="-866" rx="85.48" ry="22"/>
<ellipse fill="none" stroke="black" cx="1946.19" cy="-866" rx="89.49" ry="26"/>
<text text-anchor="middle" x="1946.19" y="-862.3" font-family="Times,serif" font-size="14.00">isabgroup_abel</text>
</a>
</g>
</g>
<!-- Abelianization_isabgroup_abel&#45;&gt;Abelianization_isgroup_abel -->
<g id="edge22" class="edge">
<title>Abelianization_isabgroup_abel&#45;&gt;Abelianization_isgroup_abel</title>
<path fill="none" stroke="black" d="M1879.35,-848.55C1822.58,-834.58 1741.9,-814.73 1687.66,-801.39"/>
<polygon fill="black" stroke="black" points="1688.39,-797.96 1677.85,-798.97 1686.72,-804.76 1688.39,-797.96"/>
</g>
<!-- Abelianization_rightinverse_abel -->
<g id="node17" class="node">
<title>Abelianization_rightinverse_abel</title>
<g id="a_node17"><a xlink:href="Abelianization.html#rightinverse_abel" xlink:title="rightinverse_abel">
<ellipse fill="#f070d1" stroke="black" cx="1086.19" cy="-714" rx="91.78" ry="18"/>
<text text-anchor="middle" x="1086.19" y="-710.3" font-family="Times,serif" font-size="14.00">rightinverse_abel</text>
</a>
</g>
</g>
<!-- Abelianization_isgroup_abel&#45;&gt;Abelianization_rightinverse_abel -->
<g id="edge23" class="edge">
<title>Abelianization_isgroup_abel&#45;&gt;Abelianization_rightinverse_abel</title>
<path fill="none" stroke="black" d="M1568.48,-777.17C1471.47,-764.67 1281.21,-740.14 1170.87,-725.92"/>
<polygon fill="black" stroke="black" points="1171.14,-722.42 1160.78,-724.61 1170.25,-729.36 1171.14,-722.42"/>
</g>
<!-- Abelianization_leftinverse_abel -->
<g id="node18" class="node">
<title>Abelianization_leftinverse_abel</title>
<g id="a_node18"><a xlink:href="Abelianization.html#leftinverse_abel" xlink:title="leftinverse_abel">
<ellipse fill="#f070d1" stroke="black" cx="1412.19" cy="-714" rx="84.49" ry="18"/>
<text text-anchor="middle" x="1412.19" y="-710.3" font-family="Times,serif" font-size="14.00">leftinverse_abel</text>
</a>
</g>
</g>
<!-- Abelianization_isgroup_abel&#45;&gt;Abelianization_leftinverse_abel -->
<g id="edge24" class="edge">
<title>Abelianization_isgroup_abel&#45;&gt;Abelianization_leftinverse_abel</title>
<path fill="none" stroke="black" d="M1587.35,-771.5C1552.98,-760.42 1504.04,-744.63 1466.63,-732.56"/>
<polygon fill="black" stroke="black" points="1467.48,-729.16 1456.89,-729.42 1465.33,-735.82 1467.48,-729.16"/>
</g>
<!-- Abelianization_ismonoid_abel -->
<g id="node21" class="node">
<title>Abelianization_ismonoid_abel</title>
<g id="a_node21"><a xlink:href="Abelianization.html#ismonoid_abel" xlink:title="ismonoid_abel">
<ellipse fill="#f070d1" stroke="black" cx="1758.19" cy="-714" rx="76.89" ry="18"/>
<text text-anchor="middle" x="1758.19" y="-710.3" font-family="Times,serif" font-size="14.00">ismonoid_abel</text>
</a>
</g>
</g>
<!-- Abelianization_isgroup_abel&#45;&gt;Abelianization_ismonoid_abel -->
<g id="edge25" class="edge">
<title>Abelianization_isgroup_abel&#45;&gt;Abelianization_ismonoid_abel</title>
<path fill="none" stroke="black" d="M1657.82,-769.46C1676.23,-759.48 1700.36,-746.38 1720.34,-735.54"/>
<polygon fill="black" stroke="black" points="1722.08,-738.58 1729.2,-730.73 1718.74,-732.43 1722.08,-738.58"/>
</g>
<!-- Abelianization_inverse_abel -->
<g id="node19" class="node">
<title>Abelianization_inverse_abel</title>
<g id="a_node19"><a xlink:href="Abelianization.html#inverse_abel" xlink:title="inverse_abel">
<ellipse fill="#f070d1" stroke="black" cx="1110.19" cy="-642" rx="68.79" ry="18"/>
<text text-anchor="middle" x="1110.19" y="-638.3" font-family="Times,serif" font-size="14.00">inverse_abel</text>
</a>
</g>
</g>
<!-- Abelianization_rightinverse_abel&#45;&gt;Abelianization_inverse_abel -->
<g id="edge26" class="edge">
<title>Abelianization_rightinverse_abel&#45;&gt;Abelianization_inverse_abel</title>
<path fill="none" stroke="black" d="M1092.12,-695.7C1094.8,-687.9 1098.02,-678.51 1100.99,-669.83"/>
<polygon fill="black" stroke="black" points="1104.4,-670.7 1104.33,-660.1 1097.77,-668.43 1104.4,-670.7"/>
</g>
<!-- Abelianization_monunit_abel_zero -->
<g id="node24" class="node">
<title>Abelianization_monunit_abel_zero</title>
<g id="a_node24"><a xlink:href="Abelianization.html#monunit_abel_zero" xlink:title="monunit_abel_zero">
<ellipse fill="#f070d1" stroke="black" cx="1463.19" cy="-570" rx="97.48" ry="18"/>
<text text-anchor="middle" x="1463.19" y="-566.3" font-family="Times,serif" font-size="14.00">monunit_abel_zero</text>
</a>
</g>
</g>
<!-- Abelianization_rightinverse_abel&#45;&gt;Abelianization_monunit_abel_zero -->
<g id="edge27" class="edge">
<title>Abelianization_rightinverse_abel&#45;&gt;Abelianization_monunit_abel_zero</title>
<path fill="none" stroke="black" d="M1063.9,-696.41C1041.27,-677.59 1012.2,-646.61 1032.19,-624 1053.65,-599.75 1240.4,-584.18 1360.94,-576.56"/>
<polygon fill="black" stroke="black" points="1361.18,-580.05 1370.94,-575.93 1360.75,-573.06 1361.18,-580.05"/>
</g>
<!-- Abelianization_leftinverse_abel&#45;&gt;Abelianization_inverse_abel -->
<g id="edge28" class="edge">
<title>Abelianization_leftinverse_abel&#45;&gt;Abelianization_inverse_abel</title>
<path fill="none" stroke="black" d="M1357.15,-700.24C1304.14,-687.95 1224.18,-669.42 1169.71,-656.8"/>
<polygon fill="black" stroke="black" points="1170.38,-653.36 1159.85,-654.51 1168.8,-660.18 1170.38,-653.36"/>
</g>
<!-- Abelianization_leftinverse_abel&#45;&gt;Abelianization_monunit_abel_zero -->
<g id="edge29" class="edge">
<title>Abelianization_leftinverse_abel&#45;&gt;Abelianization_monunit_abel_zero</title>
<path fill="none" stroke="black" d="M1381.42,-697.13C1367.65,-688.24 1352.82,-675.75 1345.19,-660 1338.22,-645.6 1336.5,-637.43 1345.19,-624 1356.1,-607.14 1373.78,-595.6 1392.17,-587.71"/>
<polygon fill="black" stroke="black" points="1393.51,-590.94 1401.52,-584.01 1390.94,-584.43 1393.51,-590.94"/>
</g>
<!-- Abelianization_commutative_abel -->
<g id="node20" class="node">
<title>Abelianization_commutative_abel</title>
<g id="a_node20"><a xlink:href="Abelianization.html#commutative_abel" xlink:title="commutative_abel">
<ellipse fill="#f070d1" stroke="black" cx="1110.19" cy="-570" rx="94.78" ry="18"/>
<text text-anchor="middle" x="1110.19" y="-566.3" font-family="Times,serif" font-size="14.00">commutative_abel</text>
</a>
</g>
</g>
<!-- Abelianization_inverse_abel&#45;&gt;Abelianization_commutative_abel -->
<g id="edge30" class="edge">
<title>Abelianization_inverse_abel&#45;&gt;Abelianization_commutative_abel</title>
<path fill="none" stroke="black" d="M1110.19,-623.7C1110.19,-615.98 1110.19,-606.71 1110.19,-598.11"/>
<polygon fill="black" stroke="black" points="1113.69,-598.1 1110.19,-588.1 1106.69,-598.1 1113.69,-598.1"/>
</g>
<!-- Abelianization_commutative_abel&#45;&gt;Abelianization_sgop_abel -->
<g id="edge31" class="edge">
<title>Abelianization_commutative_abel&#45;&gt;Abelianization_sgop_abel</title>
<path fill="none" stroke="black" d="M1191.01,-560.56C1326.08,-546.44 1594.9,-518.36 1717.1,-505.59"/>
<polygon fill="black" stroke="black" points="1717.47,-509.07 1727.06,-504.55 1716.75,-502.11 1717.47,-509.07"/>
</g>
<!-- Abelianization_rightidentity_abel -->
<g id="node22" class="node">
<title>Abelianization_rightidentity_abel</title>
<g id="a_node22"><a xlink:href="Abelianization.html#rightidentity_abel" xlink:title="rightidentity_abel">
<ellipse fill="#f070d1" stroke="black" cx="1448.19" cy="-642" rx="93.68" ry="18"/>
<text text-anchor="middle" x="1448.19" y="-638.3" font-family="Times,serif" font-size="14.00">rightidentity_abel</text>
</a>
</g>
</g>
<!-- Abelianization_ismonoid_abel&#45;&gt;Abelianization_rightidentity_abel -->
<g id="edge32" class="edge">
<title>Abelianization_ismonoid_abel&#45;&gt;Abelianization_rightidentity_abel</title>
<path fill="none" stroke="black" d="M1704.9,-700.97C1652.72,-689.18 1573.02,-671.19 1516.28,-658.37"/>
<polygon fill="black" stroke="black" points="1516.84,-654.91 1506.31,-656.12 1515.3,-661.74 1516.84,-654.91"/>
</g>
<!-- Abelianization_leftidentity_abel -->
<g id="node23" class="node">
<title>Abelianization_leftidentity_abel</title>
<g id="a_node23"><a xlink:href="Abelianization.html#leftidentity_abel" xlink:title="leftidentity_abel">
<ellipse fill="#f070d1" stroke="black" cx="1780.19" cy="-642" rx="86.38" ry="18"/>
<text text-anchor="middle" x="1780.19" y="-638.3" font-family="Times,serif" font-size="14.00">leftidentity_abel</text>
</a>
</g>
</g>
<!-- Abelianization_ismonoid_abel&#45;&gt;Abelianization_leftidentity_abel -->
<g id="edge33" class="edge">
<title>Abelianization_ismonoid_abel&#45;&gt;Abelianization_leftidentity_abel</title>
<path fill="none" stroke="black" d="M1763.63,-695.7C1766.08,-687.9 1769.03,-678.51 1771.76,-669.83"/>
<polygon fill="black" stroke="black" points="1775.16,-670.69 1774.82,-660.1 1768.48,-668.59 1775.16,-670.69"/>
</g>
<!-- Abelianization_issemigroup_abel -->
<g id="node25" class="node">
<title>Abelianization_issemigroup_abel</title>
<g id="a_node25"><a xlink:href="Abelianization.html#issemigroup_abel" xlink:title="issemigroup_abel">
<ellipse fill="#f070d1" stroke="black" cx="2109.19" cy="-642" rx="91.78" ry="18"/>
<text text-anchor="middle" x="2109.19" y="-638.3" font-family="Times,serif" font-size="14.00">issemigroup_abel</text>
</a>
</g>
</g>
<!-- Abelianization_ismonoid_abel&#45;&gt;Abelianization_issemigroup_abel -->
<g id="edge34" class="edge">
<title>Abelianization_ismonoid_abel&#45;&gt;Abelianization_issemigroup_abel</title>
<path fill="none" stroke="black" d="M1814.59,-701.75C1875.14,-689.68 1971.5,-670.46 2037.42,-657.31"/>
<polygon fill="black" stroke="black" points="2038.2,-660.73 2047.32,-655.34 2036.83,-653.86 2038.2,-660.73"/>
</g>
<!-- Abelianization_rightidentity_abel&#45;&gt;Abelianization_monunit_abel_zero -->
<g id="edge35" class="edge">
<title>Abelianization_rightidentity_abel&#45;&gt;Abelianization_monunit_abel_zero</title>
<path fill="none" stroke="black" d="M1451.9,-623.7C1453.55,-615.98 1455.54,-606.71 1457.38,-598.11"/>
<polygon fill="black" stroke="black" points="1460.85,-598.62 1459.53,-588.1 1454.01,-597.15 1460.85,-598.62"/>
</g>
<!-- Abelianization_rightidentity_abel&#45;&gt;Abelianization_sgop_abel -->
<g id="edge36" class="edge">
<title>Abelianization_rightidentity_abel&#45;&gt;Abelianization_sgop_abel</title>
<path fill="none" stroke="black" d="M1484.67,-625.4C1546.8,-598.82 1672.79,-544.94 1738.38,-516.88"/>
<polygon fill="black" stroke="black" points="1739.79,-520.09 1747.61,-512.94 1737.04,-513.65 1739.79,-520.09"/>
</g>
<!-- Abelianization_leftidentity_abel&#45;&gt;Abelianization_monunit_abel_zero -->
<g id="edge37" class="edge">
<title>Abelianization_leftidentity_abel&#45;&gt;Abelianization_monunit_abel_zero</title>
<path fill="none" stroke="black" d="M1723.15,-628.4C1669.93,-616.65 1590.38,-599.09 1533.3,-586.48"/>
<polygon fill="black" stroke="black" points="1533.8,-583.01 1523.28,-584.27 1532.29,-589.84 1533.8,-583.01"/>
</g>
<!-- Abelianization_leftidentity_abel&#45;&gt;Abelianization_sgop_abel -->
<g id="edge38" class="edge">
<title>Abelianization_leftidentity_abel&#45;&gt;Abelianization_sgop_abel</title>
<path fill="none" stroke="black" d="M1780.19,-623.87C1780.19,-599.67 1780.19,-555.21 1780.19,-526.39"/>
<polygon fill="black" stroke="black" points="1783.69,-526.19 1780.19,-516.19 1776.69,-526.19 1783.69,-526.19"/>
</g>
<!-- Abelianization_abel_in -->
<g id="node35" class="node">
<title>Abelianization_abel_in</title>
<g id="a_node35"><a xlink:href="Abelianization.html#abel_in" xlink:title="abel_in">
<ellipse fill="#f070d1" stroke="black" cx="1557.19" cy="-186" rx="43.59" ry="18"/>
<text text-anchor="middle" x="1557.19" y="-182.3" font-family="Times,serif" font-size="14.00">abel_in</text>
</a>
</g>
</g>
<!-- Abelianization_monunit_abel_zero&#45;&gt;Abelianization_abel_in -->
<g id="edge39" class="edge">
<title>Abelianization_monunit_abel_zero&#45;&gt;Abelianization_abel_in</title>
<path fill="none" stroke="black" d="M1482.67,-552.24C1510.2,-526.58 1557.19,-474.63 1557.19,-419 1557.19,-419 1557.19,-419 1557.19,-337 1557.19,-294.09 1557.19,-244.28 1557.19,-214.23"/>
<polygon fill="black" stroke="black" points="1560.69,-214.1 1557.19,-204.1 1553.69,-214.1 1560.69,-214.1"/>
</g>
<!-- Abelianization_associative_abel_sgop -->
<g id="node26" class="node">
<title>Abelianization_associative_abel_sgop</title>
<g id="a_node26"><a xlink:href="Abelianization.html#associative_abel_sgop" xlink:title="associative_abel_sgop">
<ellipse fill="#f070d1" stroke="black" cx="2039.19" cy="-570" rx="112.38" ry="18"/>
<text text-anchor="middle" x="2039.19" y="-566.3" font-family="Times,serif" font-size="14.00">associative_abel_sgop</text>
</a>
</g>
</g>
<!-- Abelianization_issemigroup_abel&#45;&gt;Abelianization_associative_abel_sgop -->
<g id="edge40" class="edge">
<title>Abelianization_issemigroup_abel&#45;&gt;Abelianization_associative_abel_sgop</title>
<path fill="none" stroke="black" d="M2092.25,-624.05C2083.69,-615.5 2073.15,-604.96 2063.73,-595.54"/>
<polygon fill="black" stroke="black" points="2066.01,-592.87 2056.47,-588.28 2061.06,-597.82 2066.01,-592.87"/>
</g>
<!-- Abelianization_associative_abel_sgop&#45;&gt;Abelianization_sgop_abel -->
<g id="edge41" class="edge">
<title>Abelianization_associative_abel_sgop&#45;&gt;Abelianization_sgop_abel</title>
<path fill="none" stroke="black" d="M1984.58,-554.24C1939.46,-542.05 1875.86,-524.86 1831.64,-512.9"/>
<polygon fill="black" stroke="black" points="1832.52,-509.52 1821.95,-510.29 1830.69,-516.27 1832.52,-509.52"/>
</g>
<!-- Abelianization_sgop_abel&#45;&gt;Abelianization_Abel_ind_hprop -->
<g id="edge42" class="edge">
<title>Abelianization_sgop_abel&#45;&gt;Abelianization_Abel_ind_hprop</title>
<path fill="none" stroke="black" d="M1807.81,-482.15C1830.2,-470.1 1862.01,-452.99 1886.87,-439.61"/>
<polygon fill="black" stroke="black" points="1888.54,-442.69 1895.69,-434.87 1885.22,-436.53 1888.54,-442.69"/>
</g>
<!-- Abelianization_Abel_rec -->
<g id="node29" class="node">
<title>Abelianization_Abel_rec</title>
<g id="a_node29"><a xlink:href="Abelianization.html#Abel_rec" xlink:title="Abel_rec">
<ellipse fill="#f070d1" stroke="black" cx="1673.19" cy="-418" rx="50.09" ry="18"/>
<text text-anchor="middle" x="1673.19" y="-414.3" font-family="Times,serif" font-size="14.00">Abel_rec</text>
</a>
</g>
</g>
<!-- Abelianization_sgop_abel&#45;&gt;Abelianization_Abel_rec -->
<g id="edge43" class="edge">
<title>Abelianization_sgop_abel&#45;&gt;Abelianization_Abel_rec</title>
<path fill="none" stroke="black" d="M1758.54,-481.22C1742.48,-469.51 1720.4,-453.42 1702.73,-440.53"/>
<polygon fill="black" stroke="black" points="1704.59,-437.56 1694.45,-434.49 1700.47,-443.21 1704.59,-437.56"/>
</g>
<!-- Abelianization_Abel_ind_hprop&#45;&gt;Abelianization_abel_in -->
<g id="edge44" class="edge">
<title>Abelianization_Abel_ind_hprop&#45;&gt;Abelianization_abel_in</title>
<path fill="none" stroke="black" d="M1899.32,-400.83C1833.58,-359.74 1660.31,-251.45 1588.77,-206.74"/>
<polygon fill="black" stroke="black" points="1590.5,-203.69 1580.17,-201.36 1586.79,-209.63 1590.5,-203.69"/>
</g>
<!-- Abelianization_Abel_ind -->
<g id="node32" class="node">
<title>Abelianization_Abel_ind</title>
<g id="a_node32"><a xlink:href="Abelianization.html#Abel_ind" xlink:title="Abel_ind">
<ellipse fill="#f070d1" stroke="black" cx="1342.19" cy="-338" rx="50.09" ry="18"/>
<text text-anchor="middle" x="1342.19" y="-334.3" font-family="Times,serif" font-size="14.00">Abel_ind</text>
</a>
</g>
</g>
<!-- Abelianization_Abel_rec&#45;&gt;Abelianization_Abel_ind -->
<g id="edge45" class="edge">
<title>Abelianization_Abel_rec&#45;&gt;Abelianization_Abel_ind</title>
<path fill="none" stroke="black" d="M1632.61,-407.44C1572.22,-393.21 1458.8,-366.48 1392.99,-350.97"/>
<polygon fill="black" stroke="black" points="1393.39,-347.47 1382.85,-348.58 1391.78,-354.28 1393.39,-347.47"/>
</g>
<!-- Abelianization_Abel_ind_beta_abel_in_comm -->
<g id="node30" class="node">
<title>Abelianization_Abel_ind_beta_abel_in_comm</title>
<g id="a_node30"><a xlink:href="Abelianization.html#Abel_ind_beta_abel_in_comm" xlink:title="Abel_ind_beta_abel_in_comm">
<ellipse fill="#f070d1" stroke="black" cx="835.19" cy="-418" rx="144.09" ry="18"/>
<ellipse fill="none" stroke="black" cx="835.19" cy="-418" rx="148.08" ry="22"/>
<ellipse fill="none" stroke="black" cx="835.19" cy="-418" rx="152.07" ry="26"/>
<text text-anchor="middle" x="835.19" y="-414.3" font-family="Times,serif" font-size="14.00">Abel_ind_beta_abel_in_comm</text>
</a>
</g>
</g>
<!-- Abelianization_Abel_ind_beta_abel_in_comm&#45;&gt;Abelianization_Abel_ind -->
<g id="edge46" class="edge">
<title>Abelianization_Abel_ind_beta_abel_in_comm&#45;&gt;Abelianization_Abel_ind</title>
<path fill="none" stroke="black" d="M945.52,-400.03C1050.97,-383.8 1205.61,-360.01 1287.16,-347.47"/>
<polygon fill="black" stroke="black" points="1287.87,-350.9 1297.22,-345.92 1286.8,-343.98 1287.87,-350.9"/>
</g>
<!-- Abelianization_Abel_ind_beta_abel_in -->
<g id="node31" class="node">
<title>Abelianization_Abel_ind_beta_abel_in</title>
<g id="a_node31"><a xlink:href="Abelianization.html#Abel_ind_beta_abel_in" xlink:title="Abel_ind_beta_abel_in">
<ellipse fill="#f070d1" stroke="black" cx="1323.19" cy="-418" rx="112.38" ry="18"/>
<ellipse fill="none" stroke="black" cx="1323.19" cy="-418" rx="116.38" ry="22"/>
<ellipse fill="none" stroke="black" cx="1323.19" cy="-418" rx="120.38" ry="26"/>
<text text-anchor="middle" x="1323.19" y="-414.3" font-family="Times,serif" font-size="14.00">Abel_ind_beta_abel_in</text>
</a>
</g>
</g>
<!-- Abelianization_Abel_ind_beta_abel_in&#45;&gt;Abelianization_Abel_ind -->
<g id="edge47" class="edge">
<title>Abelianization_Abel_ind_beta_abel_in&#45;&gt;Abelianization_Abel_ind</title>
<path fill="none" stroke="black" d="M1329.31,-391.89C1331.29,-383.75 1333.5,-374.68 1335.52,-366.38"/>
<polygon fill="black" stroke="black" points="1338.99,-366.95 1337.95,-356.41 1332.18,-365.3 1338.99,-366.95"/>
</g>
<!-- Abelianization_abel_in_comm -->
<g id="node34" class="node">
<title>Abelianization_abel_in_comm</title>
<g id="a_node34"><a xlink:href="Abelianization.html#abel_in_comm" xlink:title="abel_in_comm">
<ellipse fill="#f070d1" stroke="black" cx="1362.19" cy="-266" rx="75.29" ry="18"/>
<text text-anchor="middle" x="1362.19" y="-262.3" font-family="Times,serif" font-size="14.00">abel_in_comm</text>
</a>
</g>
</g>
<!-- Abelianization_Abel_ind&#45;&gt;Abelianization_abel_in_comm -->
<g id="edge48" class="edge">
<title>Abelianization_Abel_ind&#45;&gt;Abelianization_abel_in_comm</title>
<path fill="none" stroke="black" d="M1347.03,-320.05C1349.26,-312.26 1351.96,-302.82 1354.46,-294.08"/>
<polygon fill="black" stroke="black" points="1357.87,-294.85 1357.26,-284.28 1351.14,-292.93 1357.87,-294.85"/>
</g>
<!-- Abelianization_istrunc_abel -->
<g id="node33" class="node">
<title>Abelianization_istrunc_abel</title>
<g id="a_node33"><a xlink:href="Abelianization.html#istrunc_abel" xlink:title="istrunc_abel">
<ellipse fill="#f070d1" stroke="black" cx="1327.19" cy="-186" rx="67.68" ry="18"/>
<ellipse fill="none" stroke="black" cx="1327.19" cy="-186" rx="71.68" ry="22"/>
<ellipse fill="none" stroke="black" cx="1327.19" cy="-186" rx="75.69" ry="26"/>
<text text-anchor="middle" x="1327.19" y="-182.3" font-family="Times,serif" font-size="14.00">istrunc_abel</text>
</a>
</g>
</g>
<!-- Abelianization_Abel -->
<g id="node36" class="node">
<title>Abelianization_Abel</title>
<g id="a_node36"><a xlink:href="Abelianization.html#Abel" xlink:title="Abel">
<ellipse fill="#f070d1" stroke="black" cx="1441.19" cy="-106" rx="31.4" ry="18"/>
<text text-anchor="middle" x="1441.19" y="-102.3" font-family="Times,serif" font-size="14.00">Abel</text>
</a>
</g>
</g>
<!-- Abelianization_istrunc_abel&#45;&gt;Abelianization_Abel -->
<g id="edge49" class="edge">
<title>Abelianization_istrunc_abel&#45;&gt;Abelianization_Abel</title>
<path fill="none" stroke="black" d="M1360.17,-162.44C1377.03,-150.9 1397.34,-137.01 1413.4,-126.02"/>
<polygon fill="black" stroke="black" points="1415.56,-128.78 1421.84,-120.24 1411.61,-123 1415.56,-128.78"/>
</g>
<!-- Abelianization_abel_in_comm&#45;&gt;Abelianization_abel_in -->
<g id="edge50" class="edge">
<title>Abelianization_abel_in_comm&#45;&gt;Abelianization_abel_in</title>
<path fill="none" stroke="black" d="M1399.33,-250.15C1433.17,-236.61 1483,-216.68 1517.58,-202.84"/>
<polygon fill="black" stroke="black" points="1518.93,-206.08 1526.91,-199.11 1516.33,-199.58 1518.93,-206.08"/>
</g>
<!-- Abelianization_abel_in&#45;&gt;Abelianization_Abel -->
<g id="edge51" class="edge">
<title>Abelianization_abel_in&#45;&gt;Abelianization_Abel</title>
<path fill="none" stroke="black" d="M1535.37,-170.33C1516.74,-157.8 1489.8,-139.68 1469.5,-126.04"/>
<polygon fill="black" stroke="black" points="1471.23,-122.98 1460.98,-120.3 1467.32,-128.79 1471.23,-122.98"/>
</g>
<!-- Abelianization_uncurry2 -->
<g id="node37" class="node">
<title>Abelianization_uncurry2</title>
<g id="a_node37"><a xlink:href="Abelianization.html#uncurry2" xlink:title="uncurry2">
<ellipse fill="#f070d1" stroke="black" cx="1441.19" cy="-34" rx="53.09" ry="18"/>
<text text-anchor="middle" x="1441.19" y="-30.3" font-family="Times,serif" font-size="14.00">uncurry2</text>
</a>
</g>
</g>
<!-- Abelianization_Abel&#45;&gt;Abelianization_uncurry2 -->
<g id="edge52" class="edge">
<title>Abelianization_Abel&#45;&gt;Abelianization_uncurry2</title>
<path fill="none" stroke="black" d="M1441.19,-87.7C1441.19,-79.98 1441.19,-70.71 1441.19,-62.11"/>
<polygon fill="black" stroke="black" points="1444.69,-62.1 1441.19,-52.1 1437.69,-62.1 1444.69,-62.1"/>
</g>
<!-- Abelianization_equiv_group_precomp_isabelianization -->
<g id="node38" class="node">
<title>Abelianization_equiv_group_precomp_isabelianization</title>
<g id="a_node38"><a xlink:href="Abelianization.html#equiv_group_precomp_isabelianization" xlink:title="equiv_group_precomp_isabelianization">
<ellipse fill="#f070d1" stroke="black" cx="880.19" cy="-1026" rx="189.58" ry="18"/>
<ellipse fill="none" stroke="black" cx="880.19" cy="-1026" rx="193.57" ry="22"/>
<ellipse fill="none" stroke="black" cx="880.19" cy="-1026" rx="197.57" ry="26"/>
<text text-anchor="middle" x="880.19" y="-1022.3" font-family="Times,serif" font-size="14.00">equiv_group_precomp_isabelianization</text>
</a>
</g>
</g>
<!-- Abelianization_isequiv_group_precomp_isabelianization -->
<g id="node39" class="node">
<title>Abelianization_isequiv_group_precomp_isabelianization</title>
<g id="a_node39"><a xlink:href="Abelianization.html#isequiv_group_precomp_isabelianization" xlink:title="isequiv_group_precomp_isabelianization">
<ellipse fill="#f070d1" stroke="black" cx="1266.19" cy="-946" rx="197.66" ry="18"/>
<text text-anchor="middle" x="1266.19" y="-942.3" font-family="Times,serif" font-size="14.00">isequiv_group_precomp_isabelianization</text>
</a>
</g>
</g>
<!-- Abelianization_equiv_group_precomp_isabelianization&#45;&gt;Abelianization_isequiv_group_precomp_isabelianization -->
<g id="edge53" class="edge">
<title>Abelianization_equiv_group_precomp_isabelianization&#45;&gt;Abelianization_isequiv_group_precomp_isabelianization</title>
<path fill="none" stroke="black" d="M984.65,-1003.89C1045.54,-991.59 1121.44,-976.25 1179.09,-964.6"/>
<polygon fill="black" stroke="black" points="1179.8,-968.03 1188.91,-962.62 1178.41,-961.17 1179.8,-968.03"/>
</g>
<!-- Abelianization_isequiv_group_precomp_isabelianization&#45;&gt;Abelianization_issurjinj_isabel -->
<g id="edge54" class="edge">
<title>Abelianization_isequiv_group_precomp_isabelianization&#45;&gt;Abelianization_issurjinj_isabel</title>
<path fill="none" stroke="black" d="M1167,-930.37C1063.95,-915.18 905.03,-891.75 812.05,-878.04"/>
<polygon fill="black" stroke="black" points="812.55,-874.57 802.15,-876.58 811.53,-881.5 812.55,-874.57"/>
</g>
<!-- Abelianization_issurjinj_isabel&#45;&gt;Abelianization_IsAbelianization -->
<g id="edge55" class="edge">
<title>Abelianization_issurjinj_isabel&#45;&gt;Abelianization_IsAbelianization</title>
<path fill="none" stroke="black" d="M737.19,-847.69C737.19,-837.89 737.19,-825.42 737.19,-814.33"/>
<polygon fill="black" stroke="black" points="740.69,-814.26 737.19,-804.26 733.69,-814.26 740.69,-814.26"/>
</g>
<!-- Abelianization_group_precomp -->
<g id="node42" class="node">
<title>Abelianization_group_precomp</title>
<g id="a_node42"><a xlink:href="Abelianization.html#group_precomp" xlink:title="group_precomp">
<ellipse fill="#f070d1" stroke="black" cx="737.19" cy="-714" rx="83.39" ry="18"/>
<text text-anchor="middle" x="737.19" y="-710.3" font-family="Times,serif" font-size="14.00">group_precomp</text>
</a>
</g>
</g>
<!-- Abelianization_IsAbelianization&#45;&gt;Abelianization_group_precomp -->
<g id="edge56" class="edge">
<title>Abelianization_IsAbelianization&#45;&gt;Abelianization_group_precomp</title>
<path fill="none" stroke="black" d="M737.19,-767.7C737.19,-759.98 737.19,-750.71 737.19,-742.11"/>
<polygon fill="black" stroke="black" points="740.69,-742.1 737.19,-732.1 733.69,-742.1 740.69,-742.1"/>
</g>
</g>
</svg>
