<?xml version="1.0" encoding="UTF-8" standalone="no"?>
<!DOCTYPE svg PUBLIC "-//W3C//DTD SVG 1.1//EN"
 "http://www.w3.org/Graphics/SVG/1.1/DTD/svg11.dtd">
<!-- Generated by graphviz version 2.43.0 (0)
 -->
<!-- Title: HoTT_Homotopy_HSpace_Coherent Pages: 1 -->
<svg width="1645pt" height="827pt"
 viewBox="0.00 0.00 1645.00 826.50" xmlns="http://www.w3.org/2000/svg" xmlns:xlink="http://www.w3.org/1999/xlink">
<g id="graph0" class="graph" transform="scale(1 1) rotate(0) translate(4 822.5)">
<title>HoTT_Homotopy_HSpace_Coherent</title>
<polygon fill="white" stroke="transparent" points="-4,4 -4,-822.5 1641,-822.5 1641,4 -4,4"/>
<g id="clust1" class="cluster">
<title>cluster_Coherent</title>
<polygon fill="#ffffc3" stroke="black" points="8,-19.32 8,-799.18 1629,-799.18 1629,-19.32 8,-19.32"/>
<text text-anchor="middle" x="49.5" y="-783.98" font-family="Times,serif" font-size="14.00">Coherent</text>
</g>
<!-- Coherent_iscohhspace_loops -->
<g id="node1" class="node">
<title>Coherent_iscohhspace_loops</title>
<g id="a_node1"><a xlink:href="Coherent.html#iscohhspace_loops" xlink:title="iscohhspace_loops">
<ellipse fill="#f070d1" stroke="black" cx="797" cy="-449.32" rx="95.58" ry="18"/>
<ellipse fill="none" stroke="black" cx="797" cy="-449.32" rx="99.58" ry="22"/>
<ellipse fill="none" stroke="black" cx="797" cy="-449.32" rx="103.58" ry="26"/>
<text text-anchor="middle" x="797" y="-445.62" font-family="Times,serif" font-size="14.00">iscohhspace_loops</text>
</a>
</g>
</g>
<!-- Coherent_Build_IsCohHSpace -->
<g id="node10" class="node">
<title>Coherent_Build_IsCohHSpace</title>
<g id="a_node10"><a xlink:href="Coherent.html#Build_IsCohHSpace" xlink:title="Build_IsCohHSpace">
<ellipse fill="#7faaff" stroke="black" cx="575" cy="-256.32" rx="101.28" ry="18"/>
<text text-anchor="middle" x="575" y="-252.62" font-family="Times,serif" font-size="14.00">Build_IsCohHSpace</text>
</a>
</g>
</g>
<!-- Coherent_iscohhspace_loops&#45;&gt;Coherent_Build_IsCohHSpace -->
<g id="edge1" class="edge">
<title>Coherent_iscohhspace_loops&#45;&gt;Coherent_Build_IsCohHSpace</title>
<path fill="none" stroke="black" d="M768.88,-424.13C725.92,-387.16 644.45,-317.07 602.1,-280.63"/>
<polygon fill="black" stroke="black" points="604.28,-277.89 594.42,-274.03 599.72,-283.2 604.28,-277.89"/>
</g>
<!-- Coherent_IsCohHSpace -->
<g id="node11" class="node">
<title>Coherent_IsCohHSpace</title>
<g id="a_node11"><a xlink:href="Coherent.html#IsCohHSpace" xlink:title="IsCohHSpace">
<ellipse fill="#e2cdfa" stroke="black" cx="797" cy="-256.32" rx="72.59" ry="18"/>
<text text-anchor="middle" x="797" y="-252.62" font-family="Times,serif" font-size="14.00">IsCohHSpace</text>
</a>
</g>
</g>
<!-- Coherent_iscohhspace_loops&#45;&gt;Coherent_IsCohHSpace -->
<g id="edge2" class="edge">
<title>Coherent_iscohhspace_loops&#45;&gt;Coherent_IsCohHSpace</title>
<path fill="none" stroke="black" d="M797,-422.95C797,-387.02 797,-321.58 797,-284.62"/>
<polygon fill="black" stroke="black" points="800.5,-284.57 797,-274.57 793.5,-284.57 800.5,-284.57"/>
</g>
<!-- Coherent_iscohhspace_equiv_cohhspace -->
<g id="node2" class="node">
<title>Coherent_iscohhspace_equiv_cohhspace</title>
<g id="a_node2"><a xlink:href="Coherent.html#iscohhspace_equiv_cohhspace" xlink:title="iscohhspace_equiv_cohhspace">
<ellipse fill="#f070d1" stroke="black" cx="1239" cy="-661.32" rx="149.47" ry="18"/>
<ellipse fill="none" stroke="black" cx="1239" cy="-661.32" rx="153.47" ry="22"/>
<ellipse fill="none" stroke="black" cx="1239" cy="-661.32" rx="157.47" ry="26"/>
<text text-anchor="middle" x="1239" y="-657.62" font-family="Times,serif" font-size="14.00">iscohhspace_equiv_cohhspace</text>
</a>
</g>
</g>
<!-- Coherent_ishspace_cohhspace -->
<g id="node5" class="node">
<title>Coherent_ishspace_cohhspace</title>
<g id="a_node5"><a xlink:href="Coherent.html#ishspace_cohhspace" xlink:title="ishspace_cohhspace">
<ellipse fill="#f070d1" stroke="black" cx="1239" cy="-449.32" rx="103.18" ry="18"/>
<text text-anchor="middle" x="1239" y="-445.62" font-family="Times,serif" font-size="14.00">ishspace_cohhspace</text>
</a>
</g>
</g>
<!-- Coherent_iscohhspace_equiv_cohhspace&#45;&gt;Coherent_ishspace_cohhspace -->
<g id="edge3" class="edge">
<title>Coherent_iscohhspace_equiv_cohhspace&#45;&gt;Coherent_ishspace_cohhspace</title>
<path fill="none" stroke="black" d="M1239,-634.98C1239,-595.23 1239,-518.51 1239,-477.59"/>
<polygon fill="black" stroke="black" points="1242.5,-477.53 1239,-467.53 1235.5,-477.53 1242.5,-477.53"/>
</g>
<!-- Coherent_iscohhspace_equiv_cohhspace&#45;&gt;Coherent_Build_IsCohHSpace -->
<g id="edge4" class="edge">
<title>Coherent_iscohhspace_equiv_cohhspace&#45;&gt;Coherent_Build_IsCohHSpace</title>
<path fill="none" stroke="black" d="M1085.97,-655.1C832.59,-642.88 343.23,-602.96 237,-475.32 152.08,-373.29 379.67,-302.58 502.46,-272.93"/>
<polygon fill="black" stroke="black" points="503.28,-276.34 512.2,-270.61 501.66,-269.53 503.28,-276.34"/>
</g>
<!-- Coherent_iscoherent -->
<g id="node12" class="node">
<title>Coherent_iscoherent</title>
<g id="a_node12"><a xlink:href="Coherent.html#iscoherent" xlink:title="iscoherent">
<ellipse fill="#f070d1" stroke="black" cx="1254" cy="-256.32" rx="59.59" ry="18"/>
<text text-anchor="middle" x="1254" y="-252.62" font-family="Times,serif" font-size="14.00">iscoherent</text>
</a>
</g>
</g>
<!-- Coherent_iscohhspace_equiv_cohhspace&#45;&gt;Coherent_iscoherent -->
<g id="edge5" class="edge">
<title>Coherent_iscohhspace_equiv_cohhspace&#45;&gt;Coherent_iscoherent</title>
<path fill="none" stroke="black" d="M1338.84,-641.06C1427.28,-618.14 1551.2,-570.33 1610,-475.32 1684.85,-354.35 1435.65,-290.73 1315.3,-267.62"/>
<polygon fill="black" stroke="black" points="1315.6,-264.12 1305.12,-265.71 1314.3,-271 1315.6,-264.12"/>
</g>
<!-- Coherent_issig_iscohhspace -->
<g id="node3" class="node">
<title>Coherent_issig_iscohhspace</title>
<g id="a_node3"><a xlink:href="Coherent.html#issig_iscohhspace" xlink:title="issig_iscohhspace">
<ellipse fill="#f070d1" stroke="black" cx="575" cy="-449.32" rx="92.89" ry="18"/>
<ellipse fill="none" stroke="black" cx="575" cy="-449.32" rx="96.89" ry="22"/>
<ellipse fill="none" stroke="black" cx="575" cy="-449.32" rx="100.88" ry="26"/>
<text text-anchor="middle" x="575" y="-445.62" font-family="Times,serif" font-size="14.00">issig_iscohhspace</text>
</a>
</g>
</g>
<!-- Coherent_issig_iscohhspace&#45;&gt;Coherent_Build_IsCohHSpace -->
<g id="edge6" class="edge">
<title>Coherent_issig_iscohhspace&#45;&gt;Coherent_Build_IsCohHSpace</title>
<path fill="none" stroke="black" d="M575,-422.95C575,-387.02 575,-321.58 575,-284.62"/>
<polygon fill="black" stroke="black" points="578.5,-284.57 575,-274.57 571.5,-284.57 578.5,-284.57"/>
</g>
<!-- Coherent_issig_iscohhspace&#45;&gt;Coherent_IsCohHSpace -->
<g id="edge7" class="edge">
<title>Coherent_issig_iscohhspace&#45;&gt;Coherent_IsCohHSpace</title>
<path fill="none" stroke="black" d="M603.12,-424.13C646.19,-387.06 727.96,-316.71 770.22,-280.35"/>
<polygon fill="black" stroke="black" points="772.58,-282.94 777.88,-273.77 768.02,-277.64 772.58,-282.94"/>
</g>
<!-- Coherent_iscoherent_cohhspace -->
<g id="node4" class="node">
<title>Coherent_iscoherent_cohhspace</title>
<g id="a_node4"><a xlink:href="Coherent.html#iscoherent_cohhspace" xlink:title="iscoherent_cohhspace">
<ellipse fill="#f070d1" stroke="black" cx="1481" cy="-449.32" rx="112.38" ry="18"/>
<ellipse fill="none" stroke="black" cx="1481" cy="-449.32" rx="116.38" ry="22"/>
<ellipse fill="none" stroke="black" cx="1481" cy="-449.32" rx="120.38" ry="26"/>
<text text-anchor="middle" x="1481" y="-445.62" font-family="Times,serif" font-size="14.00">iscoherent_cohhspace</text>
</a>
</g>
</g>
<!-- Coherent_iscoherent_cohhspace&#45;&gt;Coherent_IsCohHSpace -->
<g id="edge8" class="edge">
<title>Coherent_iscoherent_cohhspace&#45;&gt;Coherent_IsCohHSpace</title>
<path fill="none" stroke="black" d="M1409.41,-428.33C1272.66,-390.14 976.88,-307.54 853.17,-273"/>
<polygon fill="black" stroke="black" points="854.08,-269.62 843.51,-270.3 852.2,-276.36 854.08,-269.62"/>
</g>
<!-- Coherent_ishspace_cohhspace&#45;&gt;Coherent_IsCohHSpace -->
<g id="edge9" class="edge">
<title>Coherent_ishspace_cohhspace&#45;&gt;Coherent_IsCohHSpace</title>
<path fill="none" stroke="black" d="M1202.08,-432.36C1121.08,-397.36 928.12,-313.98 841.01,-276.33"/>
<polygon fill="black" stroke="black" points="842.24,-273.05 831.67,-272.3 839.46,-279.48 842.24,-273.05"/>
</g>
<!-- Coherent_IsCohHSpace_sind -->
<g id="node6" class="node">
<title>Coherent_IsCohHSpace_sind</title>
<g id="a_node6"><a xlink:href="Coherent.html#IsCohHSpace_sind" xlink:title="IsCohHSpace_sind">
<ellipse fill="#f070d1" stroke="black" cx="351" cy="-449.32" rx="96.7" ry="18"/>
<ellipse fill="none" stroke="black" cx="351" cy="-449.32" rx="100.69" ry="22"/>
<ellipse fill="none" stroke="black" cx="351" cy="-449.32" rx="104.68" ry="26"/>
<text text-anchor="middle" x="351" y="-445.62" font-family="Times,serif" font-size="14.00">IsCohHSpace_sind</text>
</a>
</g>
</g>
<!-- Coherent_IsCohHSpace_sind&#45;&gt;Coherent_Build_IsCohHSpace -->
<g id="edge10" class="edge">
<title>Coherent_IsCohHSpace_sind&#45;&gt;Coherent_Build_IsCohHSpace</title>
<path fill="none" stroke="black" d="M379.37,-424.13C422.72,-387.16 504.92,-317.07 547.65,-280.63"/>
<polygon fill="black" stroke="black" points="550.07,-283.18 555.4,-274.03 545.52,-277.85 550.07,-283.18"/>
</g>
<!-- Coherent_IsCohHSpace_sind&#45;&gt;Coherent_IsCohHSpace -->
<g id="edge11" class="edge">
<title>Coherent_IsCohHSpace_sind&#45;&gt;Coherent_IsCohHSpace</title>
<path fill="none" stroke="black" d="M402.16,-426.41C490.42,-388.61 669.79,-311.79 752.9,-276.2"/>
<polygon fill="black" stroke="black" points="754.5,-279.33 762.31,-272.17 751.74,-272.89 754.5,-279.33"/>
</g>
<!-- Coherent_IsCohHSpace_rec -->
<g id="node7" class="node">
<title>Coherent_IsCohHSpace_rec</title>
<g id="a_node7"><a xlink:href="Coherent.html#IsCohHSpace_rec" xlink:title="IsCohHSpace_rec">
<ellipse fill="#f070d1" stroke="black" cx="116" cy="-661.32" rx="91.77" ry="18"/>
<ellipse fill="none" stroke="black" cx="116" cy="-661.32" rx="95.78" ry="22"/>
<ellipse fill="none" stroke="black" cx="116" cy="-661.32" rx="99.78" ry="26"/>
<text text-anchor="middle" x="116" y="-657.62" font-family="Times,serif" font-size="14.00">IsCohHSpace_rec</text>
</a>
</g>
</g>
<!-- Coherent_IsCohHSpace_rect -->
<g id="node9" class="node">
<title>Coherent_IsCohHSpace_rect</title>
<g id="a_node9"><a xlink:href="Coherent.html#IsCohHSpace_rect" xlink:title="IsCohHSpace_rect">
<ellipse fill="#f070d1" stroke="black" cx="112" cy="-449.32" rx="95.58" ry="18"/>
<text text-anchor="middle" x="112" y="-445.62" font-family="Times,serif" font-size="14.00">IsCohHSpace_rect</text>
</a>
</g>
</g>
<!-- Coherent_IsCohHSpace_rec&#45;&gt;Coherent_IsCohHSpace_rect -->
<g id="edge12" class="edge">
<title>Coherent_IsCohHSpace_rec&#45;&gt;Coherent_IsCohHSpace_rect</title>
<path fill="none" stroke="black" d="M115.52,-634.98C114.76,-595.23 113.3,-518.51 112.52,-477.59"/>
<polygon fill="black" stroke="black" points="116.02,-477.46 112.33,-467.53 109.02,-477.59 116.02,-477.46"/>
</g>
<!-- Coherent_IsCohHSpace_ind -->
<g id="node8" class="node">
<title>Coherent_IsCohHSpace_ind</title>
<g id="a_node8"><a xlink:href="Coherent.html#IsCohHSpace_ind" xlink:title="IsCohHSpace_ind">
<ellipse fill="#7fffd4" stroke="black" cx="1018" cy="-449.32" rx="91.77" ry="18"/>
<ellipse fill="none" stroke="black" cx="1018" cy="-449.32" rx="95.78" ry="22"/>
<ellipse fill="none" stroke="black" cx="1018" cy="-449.32" rx="99.78" ry="26"/>
<text text-anchor="middle" x="1018" y="-445.62" font-family="Times,serif" font-size="14.00">IsCohHSpace_ind</text>
</a>
</g>
</g>
<!-- Coherent_IsCohHSpace_ind&#45;&gt;Coherent_Build_IsCohHSpace -->
<g id="edge13" class="edge">
<title>Coherent_IsCohHSpace_ind&#45;&gt;Coherent_Build_IsCohHSpace</title>
<path fill="none" stroke="black" d="M968.04,-426.78C881.43,-389.44 704.67,-313.22 620.94,-277.12"/>
<polygon fill="black" stroke="black" points="622.25,-273.88 611.68,-273.13 619.48,-280.3 622.25,-273.88"/>
</g>
<!-- Coherent_IsCohHSpace_ind&#45;&gt;Coherent_IsCohHSpace -->
<g id="edge14" class="edge">
<title>Coherent_IsCohHSpace_ind&#45;&gt;Coherent_IsCohHSpace</title>
<path fill="none" stroke="black" d="M990.01,-424.13C947.13,-387.06 865.73,-316.71 823.66,-280.35"/>
<polygon fill="black" stroke="black" points="825.89,-277.66 816.04,-273.77 821.31,-282.95 825.89,-277.66"/>
</g>
<!-- Coherent_IsCohHSpace_rect&#45;&gt;Coherent_Build_IsCohHSpace -->
<g id="edge15" class="edge">
<title>Coherent_IsCohHSpace_rect&#45;&gt;Coherent_Build_IsCohHSpace</title>
<path fill="none" stroke="black" d="M149.89,-432.69C233.85,-398.05 435.38,-314.91 527.55,-276.89"/>
<polygon fill="black" stroke="black" points="529,-280.08 536.91,-273.03 526.33,-273.61 529,-280.08"/>
</g>
<!-- Coherent_IsCohHSpace_rect&#45;&gt;Coherent_IsCohHSpace -->
<g id="edge16" class="edge">
<title>Coherent_IsCohHSpace_rect&#45;&gt;Coherent_IsCohHSpace</title>
<path fill="none" stroke="black" d="M163.21,-434.04C288.53,-399.09 609.94,-309.47 740.55,-273.06"/>
<polygon fill="black" stroke="black" points="741.67,-276.38 750.36,-270.32 739.79,-269.63 741.67,-276.38"/>
</g>
<!-- Coherent_IsCoherent -->
<g id="node13" class="node">
<title>Coherent_IsCoherent</title>
<g id="a_node13"><a xlink:href="Coherent.html#IsCoherent" xlink:title="IsCoherent">
<ellipse fill="#f070d1" stroke="black" cx="797" cy="-82.32" rx="61.99" ry="18"/>
<text text-anchor="middle" x="797" y="-78.62" font-family="Times,serif" font-size="14.00">IsCoherent</text>
</a>
</g>
</g>
<!-- Coherent_Build_IsCohHSpace&#45;&gt;Coherent_IsCoherent -->
<g id="edge17" class="edge">
<title>Coherent_Build_IsCohHSpace&#45;&gt;Coherent_IsCoherent</title>
<path fill="none" stroke="black" d="M596.69,-238.51C636.95,-207.32 723.24,-140.47 768.28,-105.56"/>
<polygon fill="black" stroke="black" points="770.43,-108.33 776.2,-99.43 766.15,-102.79 770.43,-108.33"/>
</g>
<!-- Coherent_IsCohHSpace&#45;&gt;Coherent_IsCoherent -->
<g id="edge18" class="edge">
<title>Coherent_IsCohHSpace&#45;&gt;Coherent_IsCoherent</title>
<path fill="none" stroke="black" d="M797,-238.19C797,-208.32 797,-146.43 797,-110.59"/>
<polygon fill="black" stroke="black" points="800.5,-110.37 797,-100.37 793.5,-110.37 800.5,-110.37"/>
</g>
<!-- Coherent_iscoherent&#45;&gt;Coherent_IsCoherent -->
<g id="edge19" class="edge">
<title>Coherent_iscoherent&#45;&gt;Coherent_IsCoherent</title>
<path fill="none" stroke="black" d="M1218.14,-241.82C1135.92,-210.87 933.89,-134.84 842.83,-100.56"/>
<polygon fill="black" stroke="black" points="843.92,-97.23 833.33,-96.99 841.45,-103.79 843.92,-97.23"/>
</g>
</g>
</svg>
