<?xml version="1.0" encoding="UTF-8" standalone="no"?>
<!DOCTYPE svg PUBLIC "-//W3C//DTD SVG 1.1//EN"
 "http://www.w3.org/Graphics/SVG/1.1/DTD/svg11.dtd">
<!-- Generated by graphviz version 2.43.0 (0)
 -->
<!-- Title: HoTT_Classes_implementations_family_prod Pages: 1 -->
<svg width="702pt" height="355pt"
 viewBox="0.00 0.00 702.00 355.00" xmlns="http://www.w3.org/2000/svg" xmlns:xlink="http://www.w3.org/1999/xlink">
<g id="graph0" class="graph" transform="scale(1 1) rotate(0) translate(4 351)">
<title>HoTT_Classes_implementations_family_prod</title>
<polygon fill="white" stroke="transparent" points="-4,4 -4,-351 698,-351 698,4 -4,4"/>
<g id="clust1" class="cluster">
<title>cluster_family_prod</title>
<polygon fill="#ffffc3" stroke="black" points="8,-10.4 8,-336.6 686,-336.6 686,-10.4 8,-10.4"/>
<text text-anchor="middle" x="58.5" y="-321.4" font-family="Times,serif" font-size="14.00">family_prod</text>
</g>
<!-- family_prod_reflexive_for_all_2_family_prod -->
<g id="node1" class="node">
<title>family_prod_reflexive_for_all_2_family_prod</title>
<g id="a_node1"><a xlink:href="family_prod.html#reflexive_for_all_2_family_prod" xlink:title="reflexive_for_all_2_family_prod">
<ellipse fill="#f070d1" stroke="black" cx="517" cy="-262.4" rx="153.28" ry="18"/>
<ellipse fill="none" stroke="black" cx="517" cy="-262.4" rx="157.28" ry="22"/>
<ellipse fill="none" stroke="black" cx="517" cy="-262.4" rx="161.27" ry="26"/>
<text text-anchor="middle" x="517" y="-258.7" font-family="Times,serif" font-size="14.00">reflexive_for_all_2_family_prod</text>
</a>
</g>
</g>
<!-- family_prod_for_all_2_family_prod -->
<g id="node2" class="node">
<title>family_prod_for_all_2_family_prod</title>
<g id="a_node2"><a xlink:href="family_prod.html#for_all_2_family_prod" xlink:title="for_all_2_family_prod">
<ellipse fill="#f070d1" stroke="black" cx="569" cy="-148.4" rx="108.58" ry="18"/>
<text text-anchor="middle" x="569" y="-144.7" font-family="Times,serif" font-size="14.00">for_all_2_family_prod</text>
</a>
</g>
</g>
<!-- family_prod_reflexive_for_all_2_family_prod&#45;&gt;family_prod_for_all_2_family_prod -->
<g id="edge1" class="edge">
<title>family_prod_reflexive_for_all_2_family_prod&#45;&gt;family_prod_for_all_2_family_prod</title>
<path fill="none" stroke="black" d="M528.67,-236.26C537.05,-218.22 548.31,-193.96 556.8,-175.67"/>
<polygon fill="black" stroke="black" points="560.04,-177 561.08,-166.45 553.69,-174.05 560.04,-177"/>
</g>
<!-- family_prod_FamilyProd -->
<g id="node5" class="node">
<title>family_prod_FamilyProd</title>
<g id="a_node5"><a xlink:href="family_prod.html#FamilyProd" xlink:title="FamilyProd">
<ellipse fill="#f070d1" stroke="black" cx="336" cy="-44.4" rx="63.89" ry="18"/>
<text text-anchor="middle" x="336" y="-40.7" font-family="Times,serif" font-size="14.00">FamilyProd</text>
</a>
</g>
</g>
<!-- family_prod_for_all_2_family_prod&#45;&gt;family_prod_FamilyProd -->
<g id="edge2" class="edge">
<title>family_prod_for_all_2_family_prod&#45;&gt;family_prod_FamilyProd</title>
<path fill="none" stroke="black" d="M532.34,-131.35C490.55,-113.05 422.35,-83.2 378.34,-63.93"/>
<polygon fill="black" stroke="black" points="379.62,-60.67 369.06,-59.87 376.81,-67.09 379.62,-60.67"/>
</g>
<!-- family_prod_for_all_family_prod -->
<g id="node3" class="node">
<title>family_prod_for_all_family_prod</title>
<g id="a_node3"><a xlink:href="family_prod.html#for_all_family_prod" xlink:title="for_all_family_prod">
<ellipse fill="#f070d1" stroke="black" cx="336" cy="-148.4" rx="98.6" ry="18"/>
<ellipse fill="none" stroke="black" cx="336" cy="-148.4" rx="102.59" ry="22"/>
<ellipse fill="none" stroke="black" cx="336" cy="-148.4" rx="106.58" ry="26"/>
<text text-anchor="middle" x="336" y="-144.7" font-family="Times,serif" font-size="14.00">for_all_family_prod</text>
</a>
</g>
</g>
<!-- family_prod_for_all_family_prod&#45;&gt;family_prod_FamilyProd -->
<g id="edge3" class="edge">
<title>family_prod_for_all_family_prod&#45;&gt;family_prod_FamilyProd</title>
<path fill="none" stroke="black" d="M336,-122.18C336,-107.28 336,-88.38 336,-73.07"/>
<polygon fill="black" stroke="black" points="339.5,-72.65 336,-62.65 332.5,-72.65 339.5,-72.65"/>
</g>
<!-- family_prod_map_family_prod -->
<g id="node4" class="node">
<title>family_prod_map_family_prod</title>
<g id="a_node4"><a xlink:href="family_prod.html#map_family_prod" xlink:title="map_family_prod">
<ellipse fill="#f070d1" stroke="black" cx="114" cy="-148.4" rx="89.87" ry="18"/>
<ellipse fill="none" stroke="black" cx="114" cy="-148.4" rx="93.88" ry="22"/>
<ellipse fill="none" stroke="black" cx="114" cy="-148.4" rx="97.88" ry="26"/>
<text text-anchor="middle" x="114" y="-144.7" font-family="Times,serif" font-size="14.00">map_family_prod</text>
</a>
</g>
</g>
<!-- family_prod_map_family_prod&#45;&gt;family_prod_FamilyProd -->
<g id="edge4" class="edge">
<title>family_prod_map_family_prod&#45;&gt;family_prod_FamilyProd</title>
<path fill="none" stroke="black" d="M161.35,-125.64C201.03,-107.41 257.1,-81.65 294.91,-64.28"/>
<polygon fill="black" stroke="black" points="296.49,-67.4 304.11,-60.05 293.56,-61.04 296.49,-67.4"/>
</g>
</g>
</svg>
