<?xml version="1.0" encoding="UTF-8" standalone="no"?>
<!DOCTYPE svg PUBLIC "-//W3C//DTD SVG 1.1//EN"
 "http://www.w3.org/Graphics/SVG/1.1/DTD/svg11.dtd">
<!-- Generated by graphviz version 2.43.0 (0)
 -->
<!-- Title: HoTT_Spaces_No_Negation Pages: 1 -->
<svg width="830pt" height="419pt"
 viewBox="0.00 0.00 830.00 419.00" xmlns="http://www.w3.org/2000/svg" xmlns:xlink="http://www.w3.org/1999/xlink">
<g id="graph0" class="graph" transform="scale(1 1) rotate(0) translate(4 415)">
<title>HoTT_Spaces_No_Negation</title>
<polygon fill="white" stroke="transparent" points="-4,4 -4,-415 826,-415 826,4 -4,4"/>
<g id="clust1" class="cluster">
<title>cluster_Negation</title>
<polygon fill="#ffffc3" stroke="black" points="9.01,-8 9.01,-403 812.99,-403 812.99,-8 9.01,-8"/>
<text text-anchor="middle" x="50.01" y="-387.8" font-family="Times,serif" font-size="14.00">Negation</text>
</g>
<!-- Negation_Unnamed_thm -->
<g id="node1" class="node">
<title>Negation_Unnamed_thm</title>
<g id="a_node1"><a xlink:href="Negation.html#Unnamed_thm" xlink:title="Unnamed_thm">
<ellipse fill="#f070d1" stroke="black" cx="692.7" cy="-346" rx="78.77" ry="18"/>
<ellipse fill="none" stroke="black" cx="692.7" cy="-346" rx="82.78" ry="22"/>
<ellipse fill="none" stroke="black" cx="692.7" cy="-346" rx="86.79" ry="26"/>
<text text-anchor="middle" x="692.7" y="-342.3" font-family="Times,serif" font-size="14.00">Unnamed_thm</text>
</a>
</g>
</g>
<!-- Negation_negate_cut -->
<g id="node2" class="node">
<title>Negation_negate_cut</title>
<g id="a_node2"><a xlink:href="Negation.html#negate_cut" xlink:title="negate_cut">
<ellipse fill="#f070d1" stroke="black" cx="692.7" cy="-266" rx="61.99" ry="18"/>
<text text-anchor="middle" x="692.7" y="-262.3" font-family="Times,serif" font-size="14.00">negate_cut</text>
</a>
</g>
</g>
<!-- Negation_Unnamed_thm&#45;&gt;Negation_negate_cut -->
<g id="edge1" class="edge">
<title>Negation_Unnamed_thm&#45;&gt;Negation_negate_cut</title>
<path fill="none" stroke="black" d="M692.7,-319.89C692.7,-311.84 692.7,-302.88 692.7,-294.66"/>
<polygon fill="black" stroke="black" points="696.2,-294.41 692.7,-284.41 689.2,-294.41 696.2,-294.41"/>
</g>
<!-- Negation_negate -->
<g id="node3" class="node">
<title>Negation_negate</title>
<g id="a_node3"><a xlink:href="Negation.html#negate" xlink:title="negate">
<ellipse fill="#f070d1" stroke="black" cx="692.7" cy="-194" rx="42.49" ry="18"/>
<text text-anchor="middle" x="692.7" y="-190.3" font-family="Times,serif" font-size="14.00">negate</text>
</a>
</g>
</g>
<!-- Negation_negate_cut&#45;&gt;Negation_negate -->
<g id="edge2" class="edge">
<title>Negation_negate_cut&#45;&gt;Negation_negate</title>
<path fill="none" stroke="black" d="M692.7,-247.7C692.7,-239.98 692.7,-230.71 692.7,-222.11"/>
<polygon fill="black" stroke="black" points="696.2,-222.1 692.7,-212.1 689.2,-222.1 696.2,-222.1"/>
</g>
<!-- Negation_symmetric_options -->
<g id="node6" class="node">
<title>Negation_symmetric_options</title>
<g id="a_node6"><a xlink:href="Negation.html#symmetric_options" xlink:title="symmetric_options">
<ellipse fill="#f070d1" stroke="black" cx="692.7" cy="-114" rx="98.58" ry="18"/>
<text text-anchor="middle" x="692.7" y="-110.3" font-family="Times,serif" font-size="14.00">symmetric_options</text>
</a>
</g>
</g>
<!-- Negation_negate&#45;&gt;Negation_symmetric_options -->
<g id="edge3" class="edge">
<title>Negation_negate&#45;&gt;Negation_symmetric_options</title>
<path fill="none" stroke="black" d="M692.7,-175.69C692.7,-165.89 692.7,-153.42 692.7,-142.33"/>
<polygon fill="black" stroke="black" points="696.2,-142.26 692.7,-132.26 689.2,-142.26 696.2,-142.26"/>
</g>
<!-- Negation_hasnegation_decsort -->
<g id="node4" class="node">
<title>Negation_hasnegation_decsort</title>
<g id="a_node4"><a xlink:href="Negation.html#hasnegation_decsort" xlink:title="hasnegation_decsort">
<ellipse fill="#f070d1" stroke="black" cx="432.7" cy="-114" rx="106.67" ry="18"/>
<ellipse fill="none" stroke="black" cx="432.7" cy="-114" rx="110.68" ry="22"/>
<ellipse fill="none" stroke="black" cx="432.7" cy="-114" rx="114.68" ry="26"/>
<text text-anchor="middle" x="432.7" y="-110.3" font-family="Times,serif" font-size="14.00">hasnegation_decsort</text>
</a>
</g>
</g>
<!-- Negation_HasNegation -->
<g id="node7" class="node">
<title>Negation_HasNegation</title>
<g id="a_node7"><a xlink:href="Negation.html#HasNegation" xlink:title="HasNegation">
<ellipse fill="#f070d1" stroke="black" cx="432.7" cy="-34" rx="71.49" ry="18"/>
<text text-anchor="middle" x="432.7" y="-30.3" font-family="Times,serif" font-size="14.00">HasNegation</text>
</a>
</g>
</g>
<!-- Negation_hasnegation_decsort&#45;&gt;Negation_HasNegation -->
<g id="edge4" class="edge">
<title>Negation_hasnegation_decsort&#45;&gt;Negation_HasNegation</title>
<path fill="none" stroke="black" d="M432.7,-87.89C432.7,-79.84 432.7,-70.88 432.7,-62.66"/>
<polygon fill="black" stroke="black" points="436.2,-62.41 432.7,-52.41 429.2,-62.41 436.2,-62.41"/>
</g>
<!-- Negation_hasnegation_maxsort -->
<g id="node5" class="node">
<title>Negation_hasnegation_maxsort</title>
<g id="a_node5"><a xlink:href="Negation.html#hasnegation_maxsort" xlink:title="hasnegation_maxsort">
<ellipse fill="#f070d1" stroke="black" cx="150.7" cy="-114" rx="109.69" ry="18"/>
<ellipse fill="none" stroke="black" cx="150.7" cy="-114" rx="113.69" ry="22"/>
<ellipse fill="none" stroke="black" cx="150.7" cy="-114" rx="117.68" ry="26"/>
<text text-anchor="middle" x="150.7" y="-110.3" font-family="Times,serif" font-size="14.00">hasnegation_maxsort</text>
</a>
</g>
</g>
<!-- Negation_hasnegation_maxsort&#45;&gt;Negation_HasNegation -->
<g id="edge5" class="edge">
<title>Negation_hasnegation_maxsort&#45;&gt;Negation_HasNegation</title>
<path fill="none" stroke="black" d="M222.23,-93.22C270.17,-79.96 332.39,-62.75 376.72,-50.49"/>
<polygon fill="black" stroke="black" points="377.75,-53.83 386.46,-47.79 375.88,-47.08 377.75,-53.83"/>
</g>
<!-- Negation_symmetric_options&#45;&gt;Negation_HasNegation -->
<g id="edge6" class="edge">
<title>Negation_symmetric_options&#45;&gt;Negation_HasNegation</title>
<path fill="none" stroke="black" d="M643.8,-98.33C599.12,-84.93 533.17,-65.14 486.9,-51.26"/>
<polygon fill="black" stroke="black" points="487.64,-47.83 477.05,-48.3 485.63,-54.53 487.64,-47.83"/>
</g>
</g>
</svg>
