<?xml version="1.0" encoding="UTF-8" standalone="no"?>
<!DOCTYPE svg PUBLIC "-//W3C//DTD SVG 1.1//EN"
 "http://www.w3.org/Graphics/SVG/1.1/DTD/svg11.dtd">
<!-- Generated by graphviz version 2.43.0 (0)
 -->
<!-- Title: HoTT_Spaces_Nat_Binomial Pages: 1 -->
<svg width="1056pt" height="532pt"
 viewBox="0.00 0.00 1056.00 532.00" xmlns="http://www.w3.org/2000/svg" xmlns:xlink="http://www.w3.org/1999/xlink">
<g id="graph0" class="graph" transform="scale(1 1) rotate(0) translate(4 528)">
<title>HoTT_Spaces_Nat_Binomial</title>
<polygon fill="white" stroke="transparent" points="-4,4 -4,-528 1052,-528 1052,4 -4,4"/>
<g id="clust1" class="cluster">
<title>cluster_Binomial</title>
<polygon fill="#ffffc3" stroke="black" points="8,-8.4 8,-515.6 1040,-515.6 1040,-8.4 8,-8.4"/>
<text text-anchor="middle" x="48" y="-500.4" font-family="Times,serif" font-size="14.00">Binomial</text>
</g>
<!-- Binomial_nat_choose_sub -->
<g id="node1" class="node">
<title>Binomial_nat_choose_sub</title>
<g id="a_node1"><a xlink:href="Binomial.html#nat_choose_sub" xlink:title="nat_choose_sub">
<ellipse fill="#f070d1" stroke="black" cx="934" cy="-455.4" rx="83.37" ry="18"/>
<ellipse fill="none" stroke="black" cx="934" cy="-455.4" rx="87.38" ry="22"/>
<ellipse fill="none" stroke="black" cx="934" cy="-455.4" rx="91.39" ry="26"/>
<text text-anchor="middle" x="934" y="-451.7" font-family="Times,serif" font-size="14.00">nat_choose_sub</text>
</a>
</g>
</g>
<!-- Binomial_nat_choose_factorial -->
<g id="node3" class="node">
<title>Binomial_nat_choose_factorial</title>
<g id="a_node3"><a xlink:href="Binomial.html#nat_choose_factorial" xlink:title="nat_choose_factorial">
<ellipse fill="#f070d1" stroke="black" cx="927" cy="-363.4" rx="104.78" ry="18"/>
<text text-anchor="middle" x="927" y="-359.7" font-family="Times,serif" font-size="14.00">nat_choose_factorial</text>
</a>
</g>
</g>
<!-- Binomial_nat_choose_sub&#45;&gt;Binomial_nat_choose_factorial -->
<g id="edge1" class="edge">
<title>Binomial_nat_choose_sub&#45;&gt;Binomial_nat_choose_factorial</title>
<path fill="none" stroke="black" d="M932.05,-429.33C931.15,-417.7 930.07,-403.85 929.14,-391.93"/>
<polygon fill="black" stroke="black" points="932.61,-391.35 928.34,-381.65 925.63,-391.89 932.61,-391.35"/>
</g>
<!-- Binomial_nat_choose_succ_mul -->
<g id="node2" class="node">
<title>Binomial_nat_choose_succ_mul</title>
<g id="a_node2"><a xlink:href="Binomial.html#nat_choose_succ_mul" xlink:title="nat_choose_succ_mul">
<ellipse fill="#f070d1" stroke="black" cx="708" cy="-455.4" rx="108.58" ry="18"/>
<ellipse fill="none" stroke="black" cx="708" cy="-455.4" rx="112.58" ry="22"/>
<ellipse fill="none" stroke="black" cx="708" cy="-455.4" rx="116.58" ry="26"/>
<text text-anchor="middle" x="708" y="-451.7" font-family="Times,serif" font-size="14.00">nat_choose_succ_mul</text>
</a>
</g>
</g>
<!-- Binomial_nat_choose_succ_mul&#45;&gt;Binomial_nat_choose_factorial -->
<g id="edge2" class="edge">
<title>Binomial_nat_choose_succ_mul&#45;&gt;Binomial_nat_choose_factorial</title>
<path fill="none" stroke="black" d="M761.85,-432.27C797.74,-417.52 844.49,-398.31 879.08,-384.09"/>
<polygon fill="black" stroke="black" points="880.58,-387.26 888.5,-380.22 877.92,-380.79 880.58,-387.26"/>
</g>
<!-- Binomial_nat_choose_diag -->
<g id="node6" class="node">
<title>Binomial_nat_choose_diag</title>
<g id="a_node6"><a xlink:href="Binomial.html#nat_choose_diag" xlink:title="nat_choose_diag">
<ellipse fill="#f070d1" stroke="black" cx="927" cy="-279.4" rx="86.38" ry="18"/>
<text text-anchor="middle" x="927" y="-275.7" font-family="Times,serif" font-size="14.00">nat_choose_diag</text>
</a>
</g>
</g>
<!-- Binomial_nat_choose_factorial&#45;&gt;Binomial_nat_choose_diag -->
<g id="edge3" class="edge">
<title>Binomial_nat_choose_factorial&#45;&gt;Binomial_nat_choose_diag</title>
<path fill="none" stroke="black" d="M927,-345.01C927,-334.18 927,-320 927,-307.69"/>
<polygon fill="black" stroke="black" points="930.5,-307.48 927,-297.48 923.5,-307.48 930.5,-307.48"/>
</g>
<!-- Binomial_nat_choose_succ_l_diag -->
<g id="node4" class="node">
<title>Binomial_nat_choose_succ_l_diag</title>
<g id="a_node4"><a xlink:href="Binomial.html#nat_choose_succ_l_diag" xlink:title="nat_choose_succ_l_diag">
<ellipse fill="#f070d1" stroke="black" cx="678" cy="-363.4" rx="118.09" ry="18"/>
<ellipse fill="none" stroke="black" cx="678" cy="-363.4" rx="122.09" ry="22"/>
<ellipse fill="none" stroke="black" cx="678" cy="-363.4" rx="126.08" ry="26"/>
<text text-anchor="middle" x="678" y="-359.7" font-family="Times,serif" font-size="14.00">nat_choose_succ_l_diag</text>
</a>
</g>
</g>
<!-- Binomial_nat_choose_succ_l_diag&#45;&gt;Binomial_nat_choose_diag -->
<g id="edge4" class="edge">
<title>Binomial_nat_choose_succ_l_diag&#45;&gt;Binomial_nat_choose_diag</title>
<path fill="none" stroke="black" d="M742.77,-341.07C783.25,-327.74 834.76,-310.78 873.02,-298.18"/>
<polygon fill="black" stroke="black" points="874.54,-301.36 882.94,-294.91 872.35,-294.71 874.54,-301.36"/>
</g>
<!-- Binomial_nat_choose_one_r -->
<g id="node5" class="node">
<title>Binomial_nat_choose_one_r</title>
<g id="a_node5"><a xlink:href="Binomial.html#nat_choose_one_r" xlink:title="nat_choose_one_r">
<ellipse fill="#f070d1" stroke="black" cx="768" cy="-195.4" rx="91.77" ry="18"/>
<ellipse fill="none" stroke="black" cx="768" cy="-195.4" rx="95.78" ry="22"/>
<ellipse fill="none" stroke="black" cx="768" cy="-195.4" rx="99.78" ry="26"/>
<text text-anchor="middle" x="768" y="-191.7" font-family="Times,serif" font-size="14.00">nat_choose_one_r</text>
</a>
</g>
</g>
<!-- Binomial_nat_choose -->
<g id="node11" class="node">
<title>Binomial_nat_choose</title>
<g id="a_node11"><a xlink:href="Binomial.html#nat_choose" xlink:title="nat_choose">
<ellipse fill="#f070d1" stroke="black" cx="549" cy="-111.4" rx="61.99" ry="18"/>
<text text-anchor="middle" x="549" y="-107.7" font-family="Times,serif" font-size="14.00">nat_choose</text>
</a>
</g>
</g>
<!-- Binomial_nat_choose_one_r&#45;&gt;Binomial_nat_choose -->
<g id="edge5" class="edge">
<title>Binomial_nat_choose_one_r&#45;&gt;Binomial_nat_choose</title>
<path fill="none" stroke="black" d="M712.74,-173.71C676.41,-160.11 629.42,-142.51 595.11,-129.67"/>
<polygon fill="black" stroke="black" points="595.93,-126.24 585.34,-126.01 593.48,-132.79 595.93,-126.24"/>
</g>
<!-- Binomial_nat_choose_lt -->
<g id="node7" class="node">
<title>Binomial_nat_choose_lt</title>
<g id="a_node7"><a xlink:href="Binomial.html#nat_choose_lt" xlink:title="nat_choose_lt">
<ellipse fill="#f070d1" stroke="black" cx="959" cy="-195.4" rx="73.39" ry="18"/>
<text text-anchor="middle" x="959" y="-191.7" font-family="Times,serif" font-size="14.00">nat_choose_lt</text>
</a>
</g>
</g>
<!-- Binomial_nat_choose_diag&#45;&gt;Binomial_nat_choose_lt -->
<g id="edge6" class="edge">
<title>Binomial_nat_choose_diag&#45;&gt;Binomial_nat_choose_lt</title>
<path fill="none" stroke="black" d="M933.63,-261.41C937.96,-250.31 943.71,-235.57 948.64,-222.94"/>
<polygon fill="black" stroke="black" points="952,-223.96 952.38,-213.37 945.48,-221.41 952,-223.96"/>
</g>
<!-- Binomial_nat_choose_lt&#45;&gt;Binomial_nat_choose -->
<g id="edge7" class="edge">
<title>Binomial_nat_choose_lt&#45;&gt;Binomial_nat_choose</title>
<path fill="none" stroke="black" d="M917.14,-180.55C904.34,-176.61 890.17,-172.54 877,-169.4 786.49,-147.83 680.11,-130.85 613.6,-121.21"/>
<polygon fill="black" stroke="black" points="614.08,-117.75 603.69,-119.79 613.09,-124.67 614.08,-117.75"/>
</g>
<!-- Binomial_nat_choose_zero_l -->
<g id="node8" class="node">
<title>Binomial_nat_choose_zero_l</title>
<g id="a_node8"><a xlink:href="Binomial.html#nat_choose_zero_l" xlink:title="nat_choose_zero_l">
<ellipse fill="#f070d1" stroke="black" cx="549" cy="-195.4" rx="93.68" ry="18"/>
<ellipse fill="none" stroke="black" cx="549" cy="-195.4" rx="97.68" ry="22"/>
<ellipse fill="none" stroke="black" cx="549" cy="-195.4" rx="101.68" ry="26"/>
<text text-anchor="middle" x="549" y="-191.7" font-family="Times,serif" font-size="14.00">nat_choose_zero_l</text>
</a>
</g>
</g>
<!-- Binomial_nat_choose_zero_l&#45;&gt;Binomial_nat_choose -->
<g id="edge8" class="edge">
<title>Binomial_nat_choose_zero_l&#45;&gt;Binomial_nat_choose</title>
<path fill="none" stroke="black" d="M549,-169.35C549,-159.98 549,-149.28 549,-139.71"/>
<polygon fill="black" stroke="black" points="552.5,-139.51 549,-129.51 545.5,-139.51 552.5,-139.51"/>
</g>
<!-- Binomial_nat_choose_zero_r -->
<g id="node9" class="node">
<title>Binomial_nat_choose_zero_r</title>
<g id="a_node9"><a xlink:href="Binomial.html#nat_choose_zero_r" xlink:title="nat_choose_zero_r">
<ellipse fill="#f070d1" stroke="black" cx="327" cy="-195.4" rx="94.79" ry="18"/>
<ellipse fill="none" stroke="black" cx="327" cy="-195.4" rx="98.79" ry="22"/>
<ellipse fill="none" stroke="black" cx="327" cy="-195.4" rx="102.78" ry="26"/>
<text text-anchor="middle" x="327" y="-191.7" font-family="Times,serif" font-size="14.00">nat_choose_zero_r</text>
</a>
</g>
</g>
<!-- Binomial_nat_choose_zero_r&#45;&gt;Binomial_nat_choose -->
<g id="edge9" class="edge">
<title>Binomial_nat_choose_zero_r&#45;&gt;Binomial_nat_choose</title>
<path fill="none" stroke="black" d="M383.31,-173.6C420.29,-159.94 468.08,-142.29 502.82,-129.46"/>
<polygon fill="black" stroke="black" points="504.09,-132.72 512.26,-125.97 501.66,-126.15 504.09,-132.72"/>
</g>
<!-- Binomial_nat_choose_succ -->
<g id="node10" class="node">
<title>Binomial_nat_choose_succ</title>
<g id="a_node10"><a xlink:href="Binomial.html#nat_choose_succ" xlink:title="nat_choose_succ">
<ellipse fill="#f070d1" stroke="black" cx="111" cy="-195.4" rx="87.18" ry="18"/>
<ellipse fill="none" stroke="black" cx="111" cy="-195.4" rx="91.18" ry="22"/>
<ellipse fill="none" stroke="black" cx="111" cy="-195.4" rx="95.18" ry="26"/>
<text text-anchor="middle" x="111" y="-191.7" font-family="Times,serif" font-size="14.00">nat_choose_succ</text>
</a>
</g>
</g>
<!-- Binomial_nat_choose_succ&#45;&gt;Binomial_nat_choose -->
<g id="edge10" class="edge">
<title>Binomial_nat_choose_succ&#45;&gt;Binomial_nat_choose</title>
<path fill="none" stroke="black" d="M179.38,-177.27C191.23,-174.51 203.45,-171.77 215,-169.4 308.59,-150.19 417.86,-132.41 485.25,-121.98"/>
<polygon fill="black" stroke="black" points="485.94,-125.42 495.29,-120.43 484.87,-118.5 485.94,-125.42"/>
</g>
<!-- Binomial_nat_choose_step -->
<g id="node12" class="node">
<title>Binomial_nat_choose_step</title>
<g id="a_node12"><a xlink:href="Binomial.html#nat_choose_step" xlink:title="nat_choose_step">
<ellipse fill="#f070d1" stroke="black" cx="549" cy="-35.4" rx="86.38" ry="18"/>
<text text-anchor="middle" x="549" y="-31.7" font-family="Times,serif" font-size="14.00">nat_choose_step</text>
</a>
</g>
</g>
<!-- Binomial_nat_choose&#45;&gt;Binomial_nat_choose_step -->
<g id="edge11" class="edge">
<title>Binomial_nat_choose&#45;&gt;Binomial_nat_choose_step</title>
<path fill="none" stroke="black" d="M549,-93.24C549,-84.46 549,-73.56 549,-63.67"/>
<polygon fill="black" stroke="black" points="552.5,-63.47 549,-53.47 545.5,-63.47 552.5,-63.47"/>
</g>
</g>
</svg>
