<?xml version="1.0" encoding="UTF-8" standalone="no"?>
<!DOCTYPE svg PUBLIC "-//W3C//DTD SVG 1.1//EN"
 "http://www.w3.org/Graphics/SVG/1.1/DTD/svg11.dtd">
<!-- Generated by graphviz version 2.43.0 (0)
 -->
<!-- Title: HoTT_Spaces_Cantor Pages: 1 -->
<svg width="798pt" height="403pt"
 viewBox="0.00 0.00 798.00 403.00" xmlns="http://www.w3.org/2000/svg" xmlns:xlink="http://www.w3.org/1999/xlink">
<g id="graph0" class="graph" transform="scale(1 1) rotate(0) translate(4 399)">
<title>HoTT_Spaces_Cantor</title>
<polygon fill="white" stroke="transparent" points="-4,4 -4,-399 794,-399 794,4 -4,4"/>
<g id="clust1" class="cluster">
<title>cluster_Cantor</title>
<polygon fill="#ffffc3" stroke="black" points="19.63,-8 19.63,-387 770.37,-387 770.37,-8 19.63,-8"/>
<text text-anchor="middle" x="52.13" y="-371.8" font-family="Times,serif" font-size="14.00">Cantor</text>
</g>
<!-- Cantor_equiv_cantor_unfold -->
<g id="node1" class="node">
<title>Cantor_equiv_cantor_unfold</title>
<g id="a_node1"><a xlink:href="Cantor.html#equiv_cantor_unfold" xlink:title="equiv_cantor_unfold">
<ellipse fill="#f070d1" stroke="black" cx="394.52" cy="-330" rx="103.98" ry="18"/>
<ellipse fill="none" stroke="black" cx="394.52" cy="-330" rx="107.98" ry="22"/>
<ellipse fill="none" stroke="black" cx="394.52" cy="-330" rx="111.98" ry="26"/>
<text text-anchor="middle" x="394.52" y="-326.3" font-family="Times,serif" font-size="14.00">equiv_cantor_unfold</text>
</a>
</g>
</g>
<!-- Cantor_equiv_cantor_fold -->
<g id="node2" class="node">
<title>Cantor_equiv_cantor_fold</title>
<g id="a_node2"><a xlink:href="Cantor.html#equiv_cantor_fold" xlink:title="equiv_cantor_fold">
<ellipse fill="#f070d1" stroke="black" cx="394.52" cy="-250" rx="92.08" ry="18"/>
<text text-anchor="middle" x="394.52" y="-246.3" font-family="Times,serif" font-size="14.00">equiv_cantor_fold</text>
</a>
</g>
</g>
<!-- Cantor_equiv_cantor_unfold&#45;&gt;Cantor_equiv_cantor_fold -->
<g id="edge1" class="edge">
<title>Cantor_equiv_cantor_unfold&#45;&gt;Cantor_equiv_cantor_fold</title>
<path fill="none" stroke="black" d="M394.52,-303.89C394.52,-295.84 394.52,-286.88 394.52,-278.66"/>
<polygon fill="black" stroke="black" points="398.02,-278.41 394.52,-268.41 391.02,-278.41 398.02,-278.41"/>
</g>
<!-- Cantor_isequiv_cantor_fold -->
<g id="node3" class="node">
<title>Cantor_isequiv_cantor_fold</title>
<g id="a_node3"><a xlink:href="Cantor.html#isequiv_cantor_fold" xlink:title="isequiv_cantor_fold">
<ellipse fill="#f070d1" stroke="black" cx="394.52" cy="-178" rx="100.18" ry="18"/>
<text text-anchor="middle" x="394.52" y="-174.3" font-family="Times,serif" font-size="14.00">isequiv_cantor_fold</text>
</a>
</g>
</g>
<!-- Cantor_equiv_cantor_fold&#45;&gt;Cantor_isequiv_cantor_fold -->
<g id="edge2" class="edge">
<title>Cantor_equiv_cantor_fold&#45;&gt;Cantor_isequiv_cantor_fold</title>
<path fill="none" stroke="black" d="M394.52,-231.7C394.52,-223.98 394.52,-214.71 394.52,-206.11"/>
<polygon fill="black" stroke="black" points="398.02,-206.1 394.52,-196.1 391.02,-206.1 398.02,-206.1"/>
</g>
<!-- Cantor_cantor_unfold -->
<g id="node4" class="node">
<title>Cantor_cantor_unfold</title>
<g id="a_node4"><a xlink:href="Cantor.html#cantor_unfold" xlink:title="cantor_unfold">
<ellipse fill="#f070d1" stroke="black" cx="220.52" cy="-106" rx="74.19" ry="18"/>
<text text-anchor="middle" x="220.52" y="-102.3" font-family="Times,serif" font-size="14.00">cantor_unfold</text>
</a>
</g>
</g>
<!-- Cantor_isequiv_cantor_fold&#45;&gt;Cantor_cantor_unfold -->
<g id="edge3" class="edge">
<title>Cantor_isequiv_cantor_fold&#45;&gt;Cantor_cantor_unfold</title>
<path fill="none" stroke="black" d="M355.47,-161.29C329.12,-150.69 294.23,-136.65 266.53,-125.51"/>
<polygon fill="black" stroke="black" points="267.64,-122.19 257.06,-121.7 265.03,-128.68 267.64,-122.19"/>
</g>
<!-- Cantor_cantor_fold -->
<g id="node5" class="node">
<title>Cantor_cantor_fold</title>
<g id="a_node5"><a xlink:href="Cantor.html#cantor_fold" xlink:title="cantor_fold">
<ellipse fill="#f070d1" stroke="black" cx="598.52" cy="-106" rx="62.29" ry="18"/>
<text text-anchor="middle" x="598.52" y="-102.3" font-family="Times,serif" font-size="14.00">cantor_fold</text>
</a>
</g>
</g>
<!-- Cantor_isequiv_cantor_fold&#45;&gt;Cantor_cantor_fold -->
<g id="edge4" class="edge">
<title>Cantor_isequiv_cantor_fold&#45;&gt;Cantor_cantor_fold</title>
<path fill="none" stroke="black" d="M438.78,-161.81C471.63,-150.54 516.39,-135.18 550.18,-123.59"/>
<polygon fill="black" stroke="black" points="551.51,-126.83 559.84,-120.27 549.24,-120.21 551.51,-126.83"/>
</g>
<!-- Cantor_Cantor -->
<g id="node6" class="node">
<title>Cantor_Cantor</title>
<g id="a_node6"><a xlink:href="Cantor.html#Cantor" xlink:title="Cantor">
<ellipse fill="#f070d1" stroke="black" cx="409.52" cy="-34" rx="42.49" ry="18"/>
<text text-anchor="middle" x="409.52" y="-30.3" font-family="Times,serif" font-size="14.00">Cantor</text>
</a>
</g>
</g>
<!-- Cantor_cantor_unfold&#45;&gt;Cantor_Cantor -->
<g id="edge5" class="edge">
<title>Cantor_cantor_unfold&#45;&gt;Cantor_Cantor</title>
<path fill="none" stroke="black" d="M259.68,-90.5C291.72,-78.63 336.87,-61.91 369.21,-49.93"/>
<polygon fill="black" stroke="black" points="370.65,-53.13 378.81,-46.37 368.22,-46.56 370.65,-53.13"/>
</g>
<!-- Cantor_cantor_fold&#45;&gt;Cantor_Cantor -->
<g id="edge6" class="edge">
<title>Cantor_cantor_fold&#45;&gt;Cantor_Cantor</title>
<path fill="none" stroke="black" d="M561.63,-91.34C529.46,-79.42 482.89,-62.17 449.76,-49.91"/>
<polygon fill="black" stroke="black" points="450.97,-46.62 440.38,-46.43 448.54,-53.18 450.97,-46.62"/>
</g>
</g>
</svg>
