<?xml version="1.0" encoding="UTF-8" standalone="no"?>
<!DOCTYPE svg PUBLIC "-//W3C//DTD SVG 1.1//EN"
 "http://www.w3.org/Graphics/SVG/1.1/DTD/svg11.dtd">
<!-- Generated by graphviz version 2.43.0 (0)
 -->
<!-- Title: HoTT_WildCat_Forall Pages: 1 -->
<svg width="654pt" height="331pt"
 viewBox="0.00 0.00 654.00 331.00" xmlns="http://www.w3.org/2000/svg" xmlns:xlink="http://www.w3.org/1999/xlink">
<g id="graph0" class="graph" transform="scale(1 1) rotate(0) translate(4 327)">
<title>HoTT_WildCat_Forall</title>
<polygon fill="white" stroke="transparent" points="-4,4 -4,-327 650,-327 650,4 -4,4"/>
<g id="clust1" class="cluster">
<title>cluster_Forall</title>
<polygon fill="#ffffc3" stroke="black" points="14.44,-8 14.44,-315 631.56,-315 631.56,-8 14.44,-8"/>
<text text-anchor="middle" x="43.44" y="-299.8" font-family="Times,serif" font-size="14.00">Forall</text>
</g>
<!-- Forall_is1cat_forall -->
<g id="node1" class="node">
<title>Forall_is1cat_forall</title>
<g id="a_node1"><a xlink:href="Forall.html#is1cat_forall" xlink:title="is1cat_forall">
<ellipse fill="#f070d1" stroke="black" cx="292.21" cy="-258" rx="67.68" ry="18"/>
<ellipse fill="none" stroke="black" cx="292.21" cy="-258" rx="71.68" ry="22"/>
<ellipse fill="none" stroke="black" cx="292.21" cy="-258" rx="75.69" ry="26"/>
<text text-anchor="middle" x="292.21" y="-254.3" font-family="Times,serif" font-size="14.00">is1cat_forall</text>
</a>
</g>
</g>
<!-- Forall_is2graph_forall -->
<g id="node2" class="node">
<title>Forall_is2graph_forall</title>
<g id="a_node2"><a xlink:href="Forall.html#is2graph_forall" xlink:title="is2graph_forall">
<ellipse fill="#f070d1" stroke="black" cx="175.21" cy="-106" rx="80.69" ry="18"/>
<text text-anchor="middle" x="175.21" y="-102.3" font-family="Times,serif" font-size="14.00">is2graph_forall</text>
</a>
</g>
</g>
<!-- Forall_is1cat_forall&#45;&gt;Forall_is2graph_forall -->
<g id="edge1" class="edge">
<title>Forall_is1cat_forall&#45;&gt;Forall_is2graph_forall</title>
<path fill="none" stroke="black" d="M273.15,-232.57C251.55,-204.88 216.54,-159.99 194.74,-132.05"/>
<polygon fill="black" stroke="black" points="197.35,-129.69 188.44,-123.96 191.83,-134 197.35,-129.69"/>
</g>
<!-- Forall_is0gpd_forall -->
<g id="node3" class="node">
<title>Forall_is0gpd_forall</title>
<g id="a_node3"><a xlink:href="Forall.html#is0gpd_forall" xlink:title="is0gpd_forall">
<ellipse fill="#f070d1" stroke="black" cx="447.21" cy="-178" rx="70.69" ry="18"/>
<text text-anchor="middle" x="447.21" y="-174.3" font-family="Times,serif" font-size="14.00">is0gpd_forall</text>
</a>
</g>
</g>
<!-- Forall_is1cat_forall&#45;&gt;Forall_is0gpd_forall -->
<g id="edge2" class="edge">
<title>Forall_is1cat_forall&#45;&gt;Forall_is0gpd_forall</title>
<path fill="none" stroke="black" d="M333.74,-236.1C356.76,-224.52 385.21,-210.2 407.86,-198.8"/>
<polygon fill="black" stroke="black" points="409.51,-201.89 416.87,-194.27 406.36,-195.64 409.51,-201.89"/>
</g>
<!-- Forall_isgraph_forall -->
<g id="node5" class="node">
<title>Forall_isgraph_forall</title>
<g id="a_node5"><a xlink:href="Forall.html#isgraph_forall" xlink:title="isgraph_forall">
<ellipse fill="#f070d1" stroke="black" cx="328.21" cy="-34" rx="74.99" ry="18"/>
<text text-anchor="middle" x="328.21" y="-30.3" font-family="Times,serif" font-size="14.00">isgraph_forall</text>
</a>
</g>
</g>
<!-- Forall_is2graph_forall&#45;&gt;Forall_isgraph_forall -->
<g id="edge3" class="edge">
<title>Forall_is2graph_forall&#45;&gt;Forall_isgraph_forall</title>
<path fill="none" stroke="black" d="M209.16,-89.46C231.7,-79.15 261.46,-65.54 285.59,-54.5"/>
<polygon fill="black" stroke="black" points="287.24,-57.59 294.87,-50.25 284.32,-51.23 287.24,-57.59"/>
</g>
<!-- Forall_is01cat_forall -->
<g id="node4" class="node">
<title>Forall_is01cat_forall</title>
<g id="a_node4"><a xlink:href="Forall.html#is01cat_forall" xlink:title="is01cat_forall">
<ellipse fill="#f070d1" stroke="black" cx="485.21" cy="-106" rx="73.39" ry="18"/>
<text text-anchor="middle" x="485.21" y="-102.3" font-family="Times,serif" font-size="14.00">is01cat_forall</text>
</a>
</g>
</g>
<!-- Forall_is0gpd_forall&#45;&gt;Forall_is01cat_forall -->
<g id="edge4" class="edge">
<title>Forall_is0gpd_forall&#45;&gt;Forall_is01cat_forall</title>
<path fill="none" stroke="black" d="M456.41,-160.05C460.77,-152.01 466.1,-142.2 470.97,-133.23"/>
<polygon fill="black" stroke="black" points="474.13,-134.73 475.83,-124.28 467.98,-131.39 474.13,-134.73"/>
</g>
<!-- Forall_is01cat_forall&#45;&gt;Forall_isgraph_forall -->
<g id="edge5" class="edge">
<title>Forall_is01cat_forall&#45;&gt;Forall_isgraph_forall</title>
<path fill="none" stroke="black" d="M451.53,-89.98C428.12,-79.55 396.71,-65.54 371.45,-54.28"/>
<polygon fill="black" stroke="black" points="372.66,-50.99 362.1,-50.11 369.81,-57.38 372.66,-50.99"/>
</g>
</g>
</svg>
