<?xml version="1.0" encoding="UTF-8" standalone="no"?>
<!DOCTYPE svg PUBLIC "-//W3C//DTD SVG 1.1//EN"
 "http://www.w3.org/Graphics/SVG/1.1/DTD/svg11.dtd">
<!-- Generated by graphviz version 2.43.0 (0)
 -->
<!-- Title: HoTT_Algebra_Rings_QuotientRing Pages: 1 -->
<svg width="1294pt" height="651pt"
 viewBox="0.00 0.00 1294.00 651.00" xmlns="http://www.w3.org/2000/svg" xmlns:xlink="http://www.w3.org/1999/xlink">
<g id="graph0" class="graph" transform="scale(1 1) rotate(0) translate(4 647)">
<title>HoTT_Algebra_Rings_QuotientRing</title>
<polygon fill="white" stroke="transparent" points="-4,4 -4,-647 1290,-647 1290,4 -4,4"/>
<g id="clust1" class="cluster">
<title>cluster_QuotientRing</title>
<polygon fill="#ffffc3" stroke="black" points="9.42,-8 9.42,-635 1276.58,-635 1276.58,-8 9.42,-8"/>
<text text-anchor="middle" x="65.42" y="-619.8" font-family="Times,serif" font-size="14.00">QuotientRing</text>
</g>
<!-- QuotientRing_rng_first_iso_ -->
<g id="node1" class="node">
<title>QuotientRing_rng_first_iso_</title>
<g id="a_node1"><a xlink:href="QuotientRing.html#rng_first_iso'" xlink:title="rng_first_iso&#39;">
<ellipse fill="#f070d1" stroke="black" cx="1169.52" cy="-578" rx="70.37" ry="18"/>
<ellipse fill="none" stroke="black" cx="1169.52" cy="-578" rx="74.38" ry="22"/>
<ellipse fill="none" stroke="black" cx="1169.52" cy="-578" rx="78.39" ry="26"/>
<text text-anchor="middle" x="1169.52" y="-574.3" font-family="Times,serif" font-size="14.00">rng_first_iso&#39;</text>
</a>
</g>
</g>
<!-- QuotientRing_rng_quotient_invar -->
<g id="node2" class="node">
<title>QuotientRing_rng_quotient_invar</title>
<g id="a_node2"><a xlink:href="QuotientRing.html#rng_quotient_invar" xlink:title="rng_quotient_invar">
<ellipse fill="#f070d1" stroke="black" cx="1081.52" cy="-322" rx="98.58" ry="18"/>
<text text-anchor="middle" x="1081.52" y="-318.3" font-family="Times,serif" font-size="14.00">rng_quotient_invar</text>
</a>
</g>
</g>
<!-- QuotientRing_rng_first_iso_&#45;&gt;QuotientRing_rng_quotient_invar -->
<g id="edge1" class="edge">
<title>QuotientRing_rng_first_iso_&#45;&gt;QuotientRing_rng_quotient_invar</title>
<path fill="none" stroke="black" d="M1206.68,-554.84C1219.92,-544.8 1233.33,-531.65 1240.52,-516 1252,-491 1231.57,-378.56 1229.52,-376 1214,-356.63 1190.82,-344.33 1167.38,-336.53"/>
<polygon fill="black" stroke="black" points="1168.29,-333.14 1157.7,-333.55 1166.23,-339.83 1168.29,-333.14"/>
</g>
<!-- QuotientRing_rng_first_iso -->
<g id="node3" class="node">
<title>QuotientRing_rng_first_iso</title>
<g id="a_node3"><a xlink:href="QuotientRing.html#rng_first_iso" xlink:title="rng_first_iso">
<ellipse fill="#f070d1" stroke="black" cx="1163.52" cy="-490" rx="67.69" ry="18"/>
<text text-anchor="middle" x="1163.52" y="-486.3" font-family="Times,serif" font-size="14.00">rng_first_iso</text>
</a>
</g>
</g>
<!-- QuotientRing_rng_first_iso_&#45;&gt;QuotientRing_rng_first_iso -->
<g id="edge2" class="edge">
<title>QuotientRing_rng_first_iso_&#45;&gt;QuotientRing_rng_first_iso</title>
<path fill="none" stroke="black" d="M1167.75,-551.66C1167.02,-541.11 1166.16,-528.84 1165.41,-518.1"/>
<polygon fill="black" stroke="black" points="1168.9,-517.74 1164.71,-508 1161.91,-518.22 1168.9,-517.74"/>
</g>
<!-- QuotientRing_QuotientRing -->
<g id="node10" class="node">
<title>QuotientRing_QuotientRing</title>
<g id="a_node10"><a xlink:href="QuotientRing.html#QuotientRing" xlink:title="QuotientRing">
<ellipse fill="#f070d1" stroke="black" cx="817.52" cy="-250" rx="72.59" ry="18"/>
<text text-anchor="middle" x="817.52" y="-246.3" font-family="Times,serif" font-size="14.00">QuotientRing</text>
</a>
</g>
</g>
<!-- QuotientRing_rng_quotient_invar&#45;&gt;QuotientRing_QuotientRing -->
<g id="edge3" class="edge">
<title>QuotientRing_rng_quotient_invar&#45;&gt;QuotientRing_QuotientRing</title>
<path fill="none" stroke="black" d="M1028.1,-306.83C983.74,-295.07 920.77,-278.38 875.26,-266.31"/>
<polygon fill="black" stroke="black" points="876.1,-262.91 865.54,-263.73 874.31,-269.68 876.1,-262.91"/>
</g>
<!-- QuotientRing_QuotientRing_ind2_hprop -->
<g id="node5" class="node">
<title>QuotientRing_QuotientRing_ind2_hprop</title>
<g id="a_node5"><a xlink:href="QuotientRing.html#QuotientRing_ind2_hprop" xlink:title="QuotientRing_ind2_hprop">
<ellipse fill="#f070d1" stroke="black" cx="1091.52" cy="-402" rx="129.18" ry="18"/>
<text text-anchor="middle" x="1091.52" y="-398.3" font-family="Times,serif" font-size="14.00">QuotientRing_ind2_hprop</text>
</a>
</g>
</g>
<!-- QuotientRing_rng_first_iso&#45;&gt;QuotientRing_QuotientRing_ind2_hprop -->
<g id="edge4" class="edge">
<title>QuotientRing_rng_first_iso&#45;&gt;QuotientRing_QuotientRing_ind2_hprop</title>
<path fill="none" stroke="black" d="M1149.3,-472.01C1138.75,-459.41 1124.2,-442.03 1112.34,-427.86"/>
<polygon fill="black" stroke="black" points="1114.82,-425.38 1105.72,-419.96 1109.45,-429.87 1114.82,-425.38"/>
</g>
<!-- QuotientRing_QuotientRing_rec -->
<g id="node4" class="node">
<title>QuotientRing_QuotientRing_rec</title>
<g id="a_node4"><a xlink:href="QuotientRing.html#QuotientRing_rec" xlink:title="QuotientRing_rec">
<ellipse fill="#f070d1" stroke="black" cx="945.52" cy="-490" rx="91.77" ry="18"/>
<ellipse fill="none" stroke="black" cx="945.52" cy="-490" rx="95.78" ry="22"/>
<ellipse fill="none" stroke="black" cx="945.52" cy="-490" rx="99.78" ry="26"/>
<text text-anchor="middle" x="945.52" y="-486.3" font-family="Times,serif" font-size="14.00">QuotientRing_rec</text>
</a>
</g>
</g>
<!-- QuotientRing_QuotientRing_rec&#45;&gt;QuotientRing_QuotientRing_ind2_hprop -->
<g id="edge5" class="edge">
<title>QuotientRing_QuotientRing_rec&#45;&gt;QuotientRing_QuotientRing_ind2_hprop</title>
<path fill="none" stroke="black" d="M984.65,-465.95C1006.23,-453.24 1032.89,-437.54 1054.18,-425"/>
<polygon fill="black" stroke="black" points="1056.1,-427.92 1062.94,-419.83 1052.55,-421.89 1056.1,-427.92"/>
</g>
<!-- QuotientRing_rng_quotient_map -->
<g id="node9" class="node">
<title>QuotientRing_rng_quotient_map</title>
<g id="a_node9"><a xlink:href="QuotientRing.html#rng_quotient_map" xlink:title="rng_quotient_map">
<ellipse fill="#f070d1" stroke="black" cx="763.52" cy="-322" rx="94.78" ry="18"/>
<text text-anchor="middle" x="763.52" y="-318.3" font-family="Times,serif" font-size="14.00">rng_quotient_map</text>
</a>
</g>
</g>
<!-- QuotientRing_QuotientRing_ind2_hprop&#45;&gt;QuotientRing_rng_quotient_map -->
<g id="edge6" class="edge">
<title>QuotientRing_QuotientRing_ind2_hprop&#45;&gt;QuotientRing_rng_quotient_map</title>
<path fill="none" stroke="black" d="M1029.06,-386.15C972.13,-372.61 888.29,-352.67 830.1,-338.83"/>
<polygon fill="black" stroke="black" points="830.81,-335.4 820.27,-336.5 829.19,-342.21 830.81,-335.4"/>
</g>
<!-- QuotientRing_QuotientRing_ind_hprop -->
<g id="node6" class="node">
<title>QuotientRing_QuotientRing_ind_hprop</title>
<g id="a_node6"><a xlink:href="QuotientRing.html#QuotientRing_ind_hprop" xlink:title="QuotientRing_ind_hprop">
<ellipse fill="#f070d1" stroke="black" cx="763.52" cy="-402" rx="123.48" ry="18"/>
<ellipse fill="none" stroke="black" cx="763.52" cy="-402" rx="127.48" ry="22"/>
<ellipse fill="none" stroke="black" cx="763.52" cy="-402" rx="131.48" ry="26"/>
<text text-anchor="middle" x="763.52" y="-398.3" font-family="Times,serif" font-size="14.00">QuotientRing_ind_hprop</text>
</a>
</g>
</g>
<!-- QuotientRing_QuotientRing_ind_hprop&#45;&gt;QuotientRing_rng_quotient_map -->
<g id="edge7" class="edge">
<title>QuotientRing_QuotientRing_ind_hprop&#45;&gt;QuotientRing_rng_quotient_map</title>
<path fill="none" stroke="black" d="M763.52,-375.89C763.52,-367.84 763.52,-358.88 763.52,-350.66"/>
<polygon fill="black" stroke="black" points="767.02,-350.41 763.52,-340.41 760.02,-350.41 767.02,-350.41"/>
</g>
<!-- QuotientRing_QuotientRing_ind -->
<g id="node7" class="node">
<title>QuotientRing_QuotientRing_ind</title>
<g id="a_node7"><a xlink:href="QuotientRing.html#QuotientRing_ind" xlink:title="QuotientRing_ind">
<ellipse fill="#f070d1" stroke="black" cx="469.52" cy="-402" rx="91.77" ry="18"/>
<ellipse fill="none" stroke="black" cx="469.52" cy="-402" rx="95.78" ry="22"/>
<ellipse fill="none" stroke="black" cx="469.52" cy="-402" rx="99.78" ry="26"/>
<text text-anchor="middle" x="469.52" y="-398.3" font-family="Times,serif" font-size="14.00">QuotientRing_ind</text>
</a>
</g>
</g>
<!-- QuotientRing_QuotientRing_ind&#45;&gt;QuotientRing_rng_quotient_map -->
<g id="edge8" class="edge">
<title>QuotientRing_QuotientRing_ind&#45;&gt;QuotientRing_rng_quotient_map</title>
<path fill="none" stroke="black" d="M537.71,-382.91C586.96,-369.84 652.97,-352.33 700.89,-339.62"/>
<polygon fill="black" stroke="black" points="702.07,-342.93 710.83,-336.98 700.27,-336.16 702.07,-342.93"/>
</g>
<!-- QuotientRing_issurj_rng_quotient_map -->
<g id="node8" class="node">
<title>QuotientRing_issurj_rng_quotient_map</title>
<g id="a_node8"><a xlink:href="QuotientRing.html#issurj_rng_quotient_map" xlink:title="issurj_rng_quotient_map">
<ellipse fill="#f070d1" stroke="black" cx="175.52" cy="-402" rx="124.59" ry="18"/>
<ellipse fill="none" stroke="black" cx="175.52" cy="-402" rx="128.58" ry="22"/>
<ellipse fill="none" stroke="black" cx="175.52" cy="-402" rx="132.58" ry="26"/>
<text text-anchor="middle" x="175.52" y="-398.3" font-family="Times,serif" font-size="14.00">issurj_rng_quotient_map</text>
</a>
</g>
</g>
<!-- QuotientRing_issurj_rng_quotient_map&#45;&gt;QuotientRing_rng_quotient_map -->
<g id="edge9" class="edge">
<title>QuotientRing_issurj_rng_quotient_map&#45;&gt;QuotientRing_rng_quotient_map</title>
<path fill="none" stroke="black" d="M282.63,-386.46C308.16,-383.01 335.3,-379.36 360.52,-376 469.86,-361.42 595.93,-344.89 677.53,-334.22"/>
<polygon fill="black" stroke="black" points="678.29,-337.65 687.75,-332.88 677.38,-330.71 678.29,-337.65"/>
</g>
<!-- QuotientRing_rng_quotient_map&#45;&gt;QuotientRing_QuotientRing -->
<g id="edge10" class="edge">
<title>QuotientRing_rng_quotient_map&#45;&gt;QuotientRing_QuotientRing</title>
<path fill="none" stroke="black" d="M776.59,-304.05C783.09,-295.63 791.08,-285.28 798.26,-275.97"/>
<polygon fill="black" stroke="black" points="801.23,-277.84 804.57,-267.79 795.69,-273.57 801.23,-277.84"/>
</g>
<!-- QuotientRing_isring_quotient_abgroup -->
<g id="node11" class="node">
<title>QuotientRing_isring_quotient_abgroup</title>
<g id="a_node11"><a xlink:href="QuotientRing.html#isring_quotient_abgroup" xlink:title="isring_quotient_abgroup">
<ellipse fill="#f070d1" stroke="black" cx="817.52" cy="-178" rx="124.28" ry="18"/>
<text text-anchor="middle" x="817.52" y="-174.3" font-family="Times,serif" font-size="14.00">isring_quotient_abgroup</text>
</a>
</g>
</g>
<!-- QuotientRing_QuotientRing&#45;&gt;QuotientRing_isring_quotient_abgroup -->
<g id="edge11" class="edge">
<title>QuotientRing_QuotientRing&#45;&gt;QuotientRing_isring_quotient_abgroup</title>
<path fill="none" stroke="black" d="M817.52,-231.7C817.52,-223.98 817.52,-214.71 817.52,-206.11"/>
<polygon fill="black" stroke="black" points="821.02,-206.1 817.52,-196.1 814.02,-206.1 821.02,-206.1"/>
</g>
<!-- QuotientRing_one_quotient_abgroup -->
<g id="node12" class="node">
<title>QuotientRing_one_quotient_abgroup</title>
<g id="a_node12"><a xlink:href="QuotientRing.html#one_quotient_abgroup" xlink:title="one_quotient_abgroup">
<ellipse fill="#f070d1" stroke="black" cx="535.52" cy="-106" rx="113.98" ry="18"/>
<text text-anchor="middle" x="535.52" y="-102.3" font-family="Times,serif" font-size="14.00">one_quotient_abgroup</text>
</a>
</g>
</g>
<!-- QuotientRing_isring_quotient_abgroup&#45;&gt;QuotientRing_one_quotient_abgroup -->
<g id="edge12" class="edge">
<title>QuotientRing_isring_quotient_abgroup&#45;&gt;QuotientRing_one_quotient_abgroup</title>
<path fill="none" stroke="black" d="M757.72,-162.15C712.59,-150.95 650.62,-135.57 603.59,-123.9"/>
<polygon fill="black" stroke="black" points="604.34,-120.48 593.79,-121.46 602.65,-127.27 604.34,-120.48"/>
</g>
<!-- QuotientRing_mult_quotient_group -->
<g id="node13" class="node">
<title>QuotientRing_mult_quotient_group</title>
<g id="a_node13"><a xlink:href="QuotientRing.html#mult_quotient_group" xlink:title="mult_quotient_group">
<ellipse fill="#f070d1" stroke="black" cx="817.52" cy="-106" rx="107.48" ry="18"/>
<text text-anchor="middle" x="817.52" y="-102.3" font-family="Times,serif" font-size="14.00">mult_quotient_group</text>
</a>
</g>
</g>
<!-- QuotientRing_isring_quotient_abgroup&#45;&gt;QuotientRing_mult_quotient_group -->
<g id="edge13" class="edge">
<title>QuotientRing_isring_quotient_abgroup&#45;&gt;QuotientRing_mult_quotient_group</title>
<path fill="none" stroke="black" d="M817.52,-159.7C817.52,-151.98 817.52,-142.71 817.52,-134.11"/>
<polygon fill="black" stroke="black" points="821.02,-134.1 817.52,-124.1 814.02,-134.1 821.02,-134.1"/>
</g>
<!-- QuotientRing_plus_quotient_group -->
<g id="node15" class="node">
<title>QuotientRing_plus_quotient_group</title>
<g id="a_node15"><a xlink:href="QuotientRing.html#plus_quotient_group" xlink:title="plus_quotient_group">
<ellipse fill="#f070d1" stroke="black" cx="1089.52" cy="-106" rx="105.08" ry="18"/>
<text text-anchor="middle" x="1089.52" y="-102.3" font-family="Times,serif" font-size="14.00">plus_quotient_group</text>
</a>
</g>
</g>
<!-- QuotientRing_isring_quotient_abgroup&#45;&gt;QuotientRing_plus_quotient_group -->
<g id="edge14" class="edge">
<title>QuotientRing_isring_quotient_abgroup&#45;&gt;QuotientRing_plus_quotient_group</title>
<path fill="none" stroke="black" d="M875.54,-162.07C919.15,-150.85 978.91,-135.47 1024.19,-123.81"/>
<polygon fill="black" stroke="black" points="1025.11,-127.19 1033.92,-121.31 1023.36,-120.41 1025.11,-127.19"/>
</g>
<!-- QuotientRing_iscong_mult_incosetL -->
<g id="node14" class="node">
<title>QuotientRing_iscong_mult_incosetL</title>
<g id="a_node14"><a xlink:href="QuotientRing.html#iscong_mult_incosetL" xlink:title="iscong_mult_incosetL">
<ellipse fill="#f070d1" stroke="black" cx="817.52" cy="-34" rx="109.68" ry="18"/>
<text text-anchor="middle" x="817.52" y="-30.3" font-family="Times,serif" font-size="14.00">iscong_mult_incosetL</text>
</a>
</g>
</g>
<!-- QuotientRing_mult_quotient_group&#45;&gt;QuotientRing_iscong_mult_incosetL -->
<g id="edge15" class="edge">
<title>QuotientRing_mult_quotient_group&#45;&gt;QuotientRing_iscong_mult_incosetL</title>
<path fill="none" stroke="black" d="M817.52,-87.7C817.52,-79.98 817.52,-70.71 817.52,-62.11"/>
<polygon fill="black" stroke="black" points="821.02,-62.1 817.52,-52.1 814.02,-62.1 821.02,-62.1"/>
</g>
</g>
</svg>
