<?xml version="1.0" encoding="UTF-8" standalone="no"?>
<!DOCTYPE svg PUBLIC "-//W3C//DTD SVG 1.1//EN"
 "http://www.w3.org/Graphics/SVG/1.1/DTD/svg11.dtd">
<!-- Generated by graphviz version 2.43.0 (0)
 -->
<!-- Title: HoTT_EquivGroupoids Pages: 1 -->
<svg width="4023pt" height="2016pt"
 viewBox="0.00 0.00 4023.00 2015.50" xmlns="http://www.w3.org/2000/svg" xmlns:xlink="http://www.w3.org/1999/xlink">
<g id="graph0" class="graph" transform="scale(1 1) rotate(0) translate(4 2011.5)">
<title>HoTT_EquivGroupoids</title>
<polygon fill="white" stroke="transparent" points="-4,4 -4,-2011.5 4019,-2011.5 4019,4 -4,4"/>
<g id="clust1" class="cluster">
<title>cluster_EquivGroupoids</title>
<polygon fill="#ffffc3" stroke="black" points="8,-89.72 8,-1917.78 4007,-1917.78 4007,-89.72 8,-89.72"/>
<text text-anchor="middle" x="73.5" y="-1902.58" font-family="Times,serif" font-size="14.00">EquivGroupoids</text>
</g>
<!-- EquivGroupoids_emoveR_V1 -->
<g id="node1" class="node">
<title>EquivGroupoids_emoveR_V1</title>
<g id="a_node1"><a xlink:href="EquivGroupoids.html#emoveR_V1" xlink:title="emoveR_V1">
<ellipse fill="#f070d1" stroke="black" cx="3446" cy="-1278.72" rx="64.21" ry="18"/>
<ellipse fill="none" stroke="black" cx="3446" cy="-1278.72" rx="68.2" ry="22"/>
<ellipse fill="none" stroke="black" cx="3446" cy="-1278.72" rx="72.19" ry="26"/>
<text text-anchor="middle" x="3446" y="-1275.02" font-family="Times,serif" font-size="14.00">emoveR_V1</text>
</a>
</g>
</g>
<!-- EquivGroupoids_ecompose_V_ee -->
<g id="node25" class="node">
<title>EquivGroupoids_ecompose_V_ee</title>
<g id="a_node25"><a xlink:href="EquivGroupoids.html#ecompose_V_ee" xlink:title="ecompose_V_ee">
<ellipse fill="#f070d1" stroke="black" cx="3688" cy="-381.72" rx="82.59" ry="18"/>
<text text-anchor="middle" x="3688" y="-378.02" font-family="Times,serif" font-size="14.00">ecompose_V_ee</text>
</a>
</g>
</g>
<!-- EquivGroupoids_emoveR_V1&#45;&gt;EquivGroupoids_ecompose_V_ee -->
<g id="edge1" class="edge">
<title>EquivGroupoids_emoveR_V1&#45;&gt;EquivGroupoids_ecompose_V_ee</title>
<path fill="none" stroke="black" d="M3452.85,-1252.38C3487.68,-1123.59 3644.78,-542.57 3680.68,-409.8"/>
<polygon fill="black" stroke="black" points="3684.09,-410.58 3683.32,-400.02 3677.33,-408.76 3684.09,-410.58"/>
</g>
<!-- EquivGroupoids_ecompose_e1 -->
<g id="node31" class="node">
<title>EquivGroupoids_ecompose_e1</title>
<g id="a_node31"><a xlink:href="EquivGroupoids.html#ecompose_e1" xlink:title="ecompose_e1">
<ellipse fill="#f070d1" stroke="black" cx="3357" cy="-381.72" rx="72.29" ry="18"/>
<text text-anchor="middle" x="3357" y="-378.02" font-family="Times,serif" font-size="14.00">ecompose_e1</text>
</a>
</g>
</g>
<!-- EquivGroupoids_emoveR_V1&#45;&gt;EquivGroupoids_ecompose_e1 -->
<g id="edge2" class="edge">
<title>EquivGroupoids_emoveR_V1&#45;&gt;EquivGroupoids_ecompose_e1</title>
<path fill="none" stroke="black" d="M3443.48,-1252.38C3430.69,-1123.71 3373.01,-543.74 3359.73,-410.2"/>
<polygon fill="black" stroke="black" points="3363.19,-409.62 3358.72,-400.02 3356.23,-410.31 3363.19,-409.62"/>
</g>
<!-- EquivGroupoids_emoveR_1V -->
<g id="node2" class="node">
<title>EquivGroupoids_emoveR_1V</title>
<g id="a_node2"><a xlink:href="EquivGroupoids.html#emoveR_1V" xlink:title="emoveR_1V">
<ellipse fill="#f070d1" stroke="black" cx="2292" cy="-1278.72" rx="64.21" ry="18"/>
<ellipse fill="none" stroke="black" cx="2292" cy="-1278.72" rx="68.2" ry="22"/>
<ellipse fill="none" stroke="black" cx="2292" cy="-1278.72" rx="72.19" ry="26"/>
<text text-anchor="middle" x="2292" y="-1275.02" font-family="Times,serif" font-size="14.00">emoveR_1V</text>
</a>
</g>
</g>
<!-- EquivGroupoids_ecompose_ee_V -->
<g id="node23" class="node">
<title>EquivGroupoids_ecompose_ee_V</title>
<g id="a_node23"><a xlink:href="EquivGroupoids.html#ecompose_ee_V" xlink:title="ecompose_ee_V">
<ellipse fill="#f070d1" stroke="black" cx="2373" cy="-381.72" rx="82.59" ry="18"/>
<text text-anchor="middle" x="2373" y="-378.02" font-family="Times,serif" font-size="14.00">ecompose_ee_V</text>
</a>
</g>
</g>
<!-- EquivGroupoids_emoveR_1V&#45;&gt;EquivGroupoids_ecompose_ee_V -->
<g id="edge3" class="edge">
<title>EquivGroupoids_emoveR_1V&#45;&gt;EquivGroupoids_ecompose_ee_V</title>
<path fill="none" stroke="black" d="M2294.29,-1252.38C2305.94,-1123.71 2358.43,-543.74 2370.51,-410.2"/>
<polygon fill="black" stroke="black" points="2374.02,-410.29 2371.43,-400.02 2367.05,-409.66 2374.02,-410.29"/>
</g>
<!-- EquivGroupoids_ecompose_1e -->
<g id="node30" class="node">
<title>EquivGroupoids_ecompose_1e</title>
<g id="a_node30"><a xlink:href="EquivGroupoids.html#ecompose_1e" xlink:title="ecompose_1e">
<ellipse fill="#f070d1" stroke="black" cx="2048" cy="-381.72" rx="72.29" ry="18"/>
<text text-anchor="middle" x="2048" y="-378.02" font-family="Times,serif" font-size="14.00">ecompose_1e</text>
</a>
</g>
</g>
<!-- EquivGroupoids_emoveR_1V&#45;&gt;EquivGroupoids_ecompose_1e -->
<g id="edge4" class="edge">
<title>EquivGroupoids_emoveR_1V&#45;&gt;EquivGroupoids_ecompose_1e</title>
<path fill="none" stroke="black" d="M2285.09,-1252.38C2249.98,-1123.59 2091.58,-542.57 2055.38,-409.8"/>
<polygon fill="black" stroke="black" points="2058.72,-408.74 2052.72,-400.02 2051.97,-410.58 2058.72,-408.74"/>
</g>
<!-- EquivGroupoids_emoveR_1M -->
<g id="node3" class="node">
<title>EquivGroupoids_emoveR_1M</title>
<g id="a_node3"><a xlink:href="EquivGroupoids.html#emoveR_1M" xlink:title="emoveR_1M">
<ellipse fill="#f070d1" stroke="black" cx="1798" cy="-1278.72" rx="67.68" ry="18"/>
<ellipse fill="none" stroke="black" cx="1798" cy="-1278.72" rx="71.68" ry="22"/>
<ellipse fill="none" stroke="black" cx="1798" cy="-1278.72" rx="75.69" ry="26"/>
<text text-anchor="middle" x="1798" y="-1275.02" font-family="Times,serif" font-size="14.00">emoveR_1M</text>
</a>
</g>
</g>
<!-- EquivGroupoids_ecompose_eV_e -->
<g id="node22" class="node">
<title>EquivGroupoids_ecompose_eV_e</title>
<g id="a_node22"><a xlink:href="EquivGroupoids.html#ecompose_eV_e" xlink:title="ecompose_eV_e">
<ellipse fill="#f070d1" stroke="black" cx="1712" cy="-381.72" rx="82.59" ry="18"/>
<text text-anchor="middle" x="1712" y="-378.02" font-family="Times,serif" font-size="14.00">ecompose_eV_e</text>
</a>
</g>
</g>
<!-- EquivGroupoids_emoveR_1M&#45;&gt;EquivGroupoids_ecompose_eV_e -->
<g id="edge5" class="edge">
<title>EquivGroupoids_emoveR_1M&#45;&gt;EquivGroupoids_ecompose_eV_e</title>
<path fill="none" stroke="black" d="M1795.56,-1252.38C1783.2,-1123.71 1727.47,-543.74 1714.64,-410.2"/>
<polygon fill="black" stroke="black" points="1718.1,-409.64 1713.66,-400.02 1711.13,-410.31 1718.1,-409.64"/>
</g>
<!-- EquivGroupoids_emoveR_1M&#45;&gt;EquivGroupoids_ecompose_1e -->
<g id="edge6" class="edge">
<title>EquivGroupoids_emoveR_1M&#45;&gt;EquivGroupoids_ecompose_1e</title>
<path fill="none" stroke="black" d="M1805.08,-1252.38C1841.05,-1123.59 2003.35,-542.57 2040.44,-409.8"/>
<polygon fill="black" stroke="black" points="2043.85,-410.59 2043.17,-400.02 2037.11,-408.71 2043.85,-410.59"/>
</g>
<!-- EquivGroupoids_emoveR_M1 -->
<g id="node4" class="node">
<title>EquivGroupoids_emoveR_M1</title>
<g id="a_node4"><a xlink:href="EquivGroupoids.html#emoveR_M1" xlink:title="emoveR_M1">
<ellipse fill="#f070d1" stroke="black" cx="3280" cy="-1278.72" rx="67.68" ry="18"/>
<ellipse fill="none" stroke="black" cx="3280" cy="-1278.72" rx="71.68" ry="22"/>
<ellipse fill="none" stroke="black" cx="3280" cy="-1278.72" rx="75.69" ry="26"/>
<text text-anchor="middle" x="3280" y="-1275.02" font-family="Times,serif" font-size="14.00">emoveR_M1</text>
</a>
</g>
</g>
<!-- EquivGroupoids_ecompose_e_Ve -->
<g id="node24" class="node">
<title>EquivGroupoids_ecompose_e_Ve</title>
<g id="a_node24"><a xlink:href="EquivGroupoids.html#ecompose_e_Ve" xlink:title="ecompose_e_Ve">
<ellipse fill="#f070d1" stroke="black" cx="3028" cy="-381.72" rx="81.79" ry="18"/>
<text text-anchor="middle" x="3028" y="-378.02" font-family="Times,serif" font-size="14.00">ecompose_e_Ve</text>
</a>
</g>
</g>
<!-- EquivGroupoids_emoveR_M1&#45;&gt;EquivGroupoids_ecompose_e_Ve -->
<g id="edge7" class="edge">
<title>EquivGroupoids_emoveR_M1&#45;&gt;EquivGroupoids_ecompose_e_Ve</title>
<path fill="none" stroke="black" d="M3272.86,-1252.38C3236.6,-1123.59 3073.01,-542.57 3035.62,-409.8"/>
<polygon fill="black" stroke="black" points="3038.95,-408.69 3032.87,-400.02 3032.21,-410.59 3038.95,-408.69"/>
</g>
<!-- EquivGroupoids_emoveR_M1&#45;&gt;EquivGroupoids_ecompose_e1 -->
<g id="edge8" class="edge">
<title>EquivGroupoids_emoveR_M1&#45;&gt;EquivGroupoids_ecompose_e1</title>
<path fill="none" stroke="black" d="M3282.18,-1252.38C3293.25,-1123.71 3343.15,-543.74 3354.64,-410.2"/>
<polygon fill="black" stroke="black" points="3358.14,-410.28 3355.51,-400.02 3351.17,-409.68 3358.14,-410.28"/>
</g>
<!-- EquivGroupoids_emoveL_V1 -->
<g id="node5" class="node">
<title>EquivGroupoids_emoveL_V1</title>
<g id="a_node5"><a xlink:href="EquivGroupoids.html#emoveL_V1" xlink:title="emoveL_V1">
<ellipse fill="#f070d1" stroke="black" cx="3608" cy="-1278.72" rx="63.87" ry="18"/>
<ellipse fill="none" stroke="black" cx="3608" cy="-1278.72" rx="67.88" ry="22"/>
<ellipse fill="none" stroke="black" cx="3608" cy="-1278.72" rx="71.89" ry="26"/>
<text text-anchor="middle" x="3608" y="-1275.02" font-family="Times,serif" font-size="14.00">emoveL_V1</text>
</a>
</g>
</g>
<!-- EquivGroupoids_emoveL_V1&#45;&gt;EquivGroupoids_ecompose_V_ee -->
<g id="edge9" class="edge">
<title>EquivGroupoids_emoveL_V1&#45;&gt;EquivGroupoids_ecompose_V_ee</title>
<path fill="none" stroke="black" d="M3610.27,-1252.38C3621.77,-1123.71 3673.61,-543.74 3685.54,-410.2"/>
<polygon fill="black" stroke="black" points="3689.05,-410.29 3686.45,-400.02 3682.08,-409.66 3689.05,-410.29"/>
</g>
<!-- EquivGroupoids_emoveL_V1&#45;&gt;EquivGroupoids_ecompose_e1 -->
<g id="edge10" class="edge">
<title>EquivGroupoids_emoveL_V1&#45;&gt;EquivGroupoids_ecompose_e1</title>
<path fill="none" stroke="black" d="M3600.89,-1252.38C3564.77,-1123.59 3401.83,-542.57 3364.59,-409.8"/>
<polygon fill="black" stroke="black" points="3367.92,-408.7 3361.85,-400.02 3361.18,-410.59 3367.92,-408.7"/>
</g>
<!-- EquivGroupoids_emoveL_1V -->
<g id="node6" class="node">
<title>EquivGroupoids_emoveL_1V</title>
<g id="a_node6"><a xlink:href="EquivGroupoids.html#emoveL_1V" xlink:title="emoveL_1V">
<ellipse fill="#f070d1" stroke="black" cx="2130" cy="-1278.72" rx="63.87" ry="18"/>
<ellipse fill="none" stroke="black" cx="2130" cy="-1278.72" rx="67.88" ry="22"/>
<ellipse fill="none" stroke="black" cx="2130" cy="-1278.72" rx="71.89" ry="26"/>
<text text-anchor="middle" x="2130" y="-1275.02" font-family="Times,serif" font-size="14.00">emoveL_1V</text>
</a>
</g>
</g>
<!-- EquivGroupoids_emoveL_1V&#45;&gt;EquivGroupoids_ecompose_ee_V -->
<g id="edge11" class="edge">
<title>EquivGroupoids_emoveL_1V&#45;&gt;EquivGroupoids_ecompose_ee_V</title>
<path fill="none" stroke="black" d="M2136.88,-1252.38C2171.85,-1123.59 2329.6,-542.57 2365.65,-409.8"/>
<polygon fill="black" stroke="black" points="2369.06,-410.58 2368.3,-400.02 2362.31,-408.75 2369.06,-410.58"/>
</g>
<!-- EquivGroupoids_emoveL_1V&#45;&gt;EquivGroupoids_ecompose_1e -->
<g id="edge12" class="edge">
<title>EquivGroupoids_emoveL_1V&#45;&gt;EquivGroupoids_ecompose_1e</title>
<path fill="none" stroke="black" d="M2127.68,-1252.38C2115.89,-1123.71 2062.75,-543.74 2050.52,-410.2"/>
<polygon fill="black" stroke="black" points="2053.98,-409.66 2049.58,-400.02 2047.01,-410.29 2053.98,-409.66"/>
</g>
<!-- EquivGroupoids_emoveL_M1 -->
<g id="node7" class="node">
<title>EquivGroupoids_emoveL_M1</title>
<g id="a_node7"><a xlink:href="EquivGroupoids.html#emoveL_M1" xlink:title="emoveL_M1">
<ellipse fill="#f070d1" stroke="black" cx="3112" cy="-1278.72" rx="66.11" ry="18"/>
<ellipse fill="none" stroke="black" cx="3112" cy="-1278.72" rx="70.1" ry="22"/>
<ellipse fill="none" stroke="black" cx="3112" cy="-1278.72" rx="74.09" ry="26"/>
<text text-anchor="middle" x="3112" y="-1275.02" font-family="Times,serif" font-size="14.00">emoveL_M1</text>
</a>
</g>
</g>
<!-- EquivGroupoids_emoveL_M1&#45;&gt;EquivGroupoids_ecompose_e_Ve -->
<g id="edge13" class="edge">
<title>EquivGroupoids_emoveL_M1&#45;&gt;EquivGroupoids_ecompose_e_Ve</title>
<path fill="none" stroke="black" d="M3109.62,-1252.38C3097.55,-1123.71 3043.11,-543.74 3030.58,-410.2"/>
<polygon fill="black" stroke="black" points="3034.04,-409.65 3029.62,-400.02 3027.07,-410.3 3034.04,-409.65"/>
</g>
<!-- EquivGroupoids_emoveL_M1&#45;&gt;EquivGroupoids_ecompose_e1 -->
<g id="edge14" class="edge">
<title>EquivGroupoids_emoveL_M1&#45;&gt;EquivGroupoids_ecompose_e1</title>
<path fill="none" stroke="black" d="M3118.94,-1252.38C3154.19,-1123.59 3313.24,-542.57 3349.59,-409.8"/>
<polygon fill="black" stroke="black" points="3353,-410.59 3352.27,-400.02 3346.25,-408.74 3353,-410.59"/>
</g>
<!-- EquivGroupoids_emoveL_1M -->
<g id="node8" class="node">
<title>EquivGroupoids_emoveL_1M</title>
<g id="a_node8"><a xlink:href="EquivGroupoids.html#emoveL_1M" xlink:title="emoveL_1M">
<ellipse fill="#f070d1" stroke="black" cx="1966" cy="-1278.72" rx="66.11" ry="18"/>
<ellipse fill="none" stroke="black" cx="1966" cy="-1278.72" rx="70.1" ry="22"/>
<ellipse fill="none" stroke="black" cx="1966" cy="-1278.72" rx="74.09" ry="26"/>
<text text-anchor="middle" x="1966" y="-1275.02" font-family="Times,serif" font-size="14.00">emoveL_1M</text>
</a>
</g>
</g>
<!-- EquivGroupoids_emoveL_1M&#45;&gt;EquivGroupoids_ecompose_eV_e -->
<g id="edge15" class="edge">
<title>EquivGroupoids_emoveL_1M&#45;&gt;EquivGroupoids_ecompose_eV_e</title>
<path fill="none" stroke="black" d="M1958.81,-1252.38C1922.26,-1123.59 1757.37,-542.57 1719.68,-409.8"/>
<polygon fill="black" stroke="black" points="1723.01,-408.68 1716.91,-400.02 1716.27,-410.59 1723.01,-408.68"/>
</g>
<!-- EquivGroupoids_emoveL_1M&#45;&gt;EquivGroupoids_ecompose_1e -->
<g id="edge16" class="edge">
<title>EquivGroupoids_emoveL_1M&#45;&gt;EquivGroupoids_ecompose_1e</title>
<path fill="none" stroke="black" d="M1968.32,-1252.38C1980.11,-1123.71 2033.25,-543.74 2045.48,-410.2"/>
<polygon fill="black" stroke="black" points="2048.99,-410.29 2046.42,-400.02 2042.02,-409.66 2048.99,-410.29"/>
</g>
<!-- EquivGroupoids_emoveL_eV -->
<g id="node9" class="node">
<title>EquivGroupoids_emoveL_eV</title>
<g id="a_node9"><a xlink:href="EquivGroupoids.html#emoveL_eV" xlink:title="emoveL_eV">
<ellipse fill="#f070d1" stroke="black" cx="2615" cy="-1278.72" rx="63.08" ry="18"/>
<ellipse fill="none" stroke="black" cx="2615" cy="-1278.72" rx="67.09" ry="22"/>
<ellipse fill="none" stroke="black" cx="2615" cy="-1278.72" rx="71.09" ry="26"/>
<text text-anchor="middle" x="2615" y="-1275.02" font-family="Times,serif" font-size="14.00">emoveL_eV</text>
</a>
</g>
</g>
<!-- EquivGroupoids_emoveL_eV&#45;&gt;EquivGroupoids_ecompose_ee_V -->
<g id="edge17" class="edge">
<title>EquivGroupoids_emoveL_eV&#45;&gt;EquivGroupoids_ecompose_ee_V</title>
<path fill="none" stroke="black" d="M2608.15,-1252.38C2573.32,-1123.59 2416.22,-542.57 2380.32,-409.8"/>
<polygon fill="black" stroke="black" points="2383.67,-408.76 2377.68,-400.02 2376.91,-410.58 2383.67,-408.76"/>
</g>
<!-- EquivGroupoids_emoveL_Ve -->
<g id="node10" class="node">
<title>EquivGroupoids_emoveL_Ve</title>
<g id="a_node10"><a xlink:href="EquivGroupoids.html#emoveL_Ve" xlink:title="emoveL_Ve">
<ellipse fill="#f070d1" stroke="black" cx="3929" cy="-1278.72" rx="62.3" ry="18"/>
<ellipse fill="none" stroke="black" cx="3929" cy="-1278.72" rx="66.3" ry="22"/>
<ellipse fill="none" stroke="black" cx="3929" cy="-1278.72" rx="70.29" ry="26"/>
<text text-anchor="middle" x="3929" y="-1275.02" font-family="Times,serif" font-size="14.00">emoveL_Ve</text>
</a>
</g>
</g>
<!-- EquivGroupoids_emoveL_Ve&#45;&gt;EquivGroupoids_ecompose_V_ee -->
<g id="edge18" class="edge">
<title>EquivGroupoids_emoveL_Ve&#45;&gt;EquivGroupoids_ecompose_V_ee</title>
<path fill="none" stroke="black" d="M3922.18,-1252.38C3887.5,-1123.59 3731.04,-542.57 3695.29,-409.8"/>
<polygon fill="black" stroke="black" points="3698.64,-408.76 3692.66,-400.02 3691.88,-410.58 3698.64,-408.76"/>
</g>
<!-- EquivGroupoids_emoveL_eM -->
<g id="node11" class="node">
<title>EquivGroupoids_emoveL_eM</title>
<g id="a_node11"><a xlink:href="EquivGroupoids.html#emoveL_eM" xlink:title="emoveL_eM">
<ellipse fill="#f070d1" stroke="black" cx="1631" cy="-1278.72" rx="65.77" ry="18"/>
<ellipse fill="none" stroke="black" cx="1631" cy="-1278.72" rx="69.78" ry="22"/>
<ellipse fill="none" stroke="black" cx="1631" cy="-1278.72" rx="73.79" ry="26"/>
<text text-anchor="middle" x="1631" y="-1275.02" font-family="Times,serif" font-size="14.00">emoveL_eM</text>
</a>
</g>
</g>
<!-- EquivGroupoids_emoveL_eM&#45;&gt;EquivGroupoids_ecompose_eV_e -->
<g id="edge19" class="edge">
<title>EquivGroupoids_emoveL_eM&#45;&gt;EquivGroupoids_ecompose_eV_e</title>
<path fill="none" stroke="black" d="M1633.29,-1252.38C1644.94,-1123.71 1697.43,-543.74 1709.51,-410.2"/>
<polygon fill="black" stroke="black" points="1713.02,-410.29 1710.43,-400.02 1706.05,-409.66 1713.02,-410.29"/>
</g>
<!-- EquivGroupoids_emoveL_Me -->
<g id="node12" class="node">
<title>EquivGroupoids_emoveL_Me</title>
<g id="a_node12"><a xlink:href="EquivGroupoids.html#emoveL_Me" xlink:title="emoveL_Me">
<ellipse fill="#f070d1" stroke="black" cx="2778" cy="-1278.72" rx="65.77" ry="18"/>
<ellipse fill="none" stroke="black" cx="2778" cy="-1278.72" rx="69.78" ry="22"/>
<ellipse fill="none" stroke="black" cx="2778" cy="-1278.72" rx="73.79" ry="26"/>
<text text-anchor="middle" x="2778" y="-1275.02" font-family="Times,serif" font-size="14.00">emoveL_Me</text>
</a>
</g>
</g>
<!-- EquivGroupoids_emoveL_Me&#45;&gt;EquivGroupoids_ecompose_e_Ve -->
<g id="edge20" class="edge">
<title>EquivGroupoids_emoveL_Me&#45;&gt;EquivGroupoids_ecompose_e_Ve</title>
<path fill="none" stroke="black" d="M2785.08,-1252.38C2821.05,-1123.59 2983.35,-542.57 3020.44,-409.8"/>
<polygon fill="black" stroke="black" points="3023.85,-410.59 3023.17,-400.02 3017.11,-408.71 3023.85,-410.59"/>
</g>
<!-- EquivGroupoids_emoveR_eV -->
<g id="node13" class="node">
<title>EquivGroupoids_emoveR_eV</title>
<g id="a_node13"><a xlink:href="EquivGroupoids.html#emoveR_eV" xlink:title="emoveR_eV">
<ellipse fill="#f070d1" stroke="black" cx="2454" cy="-1278.72" rx="63.87" ry="18"/>
<ellipse fill="none" stroke="black" cx="2454" cy="-1278.72" rx="67.88" ry="22"/>
<ellipse fill="none" stroke="black" cx="2454" cy="-1278.72" rx="71.89" ry="26"/>
<text text-anchor="middle" x="2454" y="-1275.02" font-family="Times,serif" font-size="14.00">emoveR_eV</text>
</a>
</g>
</g>
<!-- EquivGroupoids_emoveR_eV&#45;&gt;EquivGroupoids_ecompose_ee_V -->
<g id="edge21" class="edge">
<title>EquivGroupoids_emoveR_eV&#45;&gt;EquivGroupoids_ecompose_ee_V</title>
<path fill="none" stroke="black" d="M2451.71,-1252.38C2440.06,-1123.71 2387.57,-543.74 2375.49,-410.2"/>
<polygon fill="black" stroke="black" points="2378.95,-409.66 2374.57,-400.02 2371.98,-410.29 2378.95,-409.66"/>
</g>
<!-- EquivGroupoids_emoveR_Ve -->
<g id="node14" class="node">
<title>EquivGroupoids_emoveR_Ve</title>
<g id="a_node14"><a xlink:href="EquivGroupoids.html#emoveR_Ve" xlink:title="emoveR_Ve">
<ellipse fill="#f070d1" stroke="black" cx="3769" cy="-1278.72" rx="63.87" ry="18"/>
<ellipse fill="none" stroke="black" cx="3769" cy="-1278.72" rx="67.88" ry="22"/>
<ellipse fill="none" stroke="black" cx="3769" cy="-1278.72" rx="71.89" ry="26"/>
<text text-anchor="middle" x="3769" y="-1275.02" font-family="Times,serif" font-size="14.00">emoveR_Ve</text>
</a>
</g>
</g>
<!-- EquivGroupoids_emoveR_Ve&#45;&gt;EquivGroupoids_ecompose_V_ee -->
<g id="edge22" class="edge">
<title>EquivGroupoids_emoveR_Ve&#45;&gt;EquivGroupoids_ecompose_V_ee</title>
<path fill="none" stroke="black" d="M3766.71,-1252.38C3755.06,-1123.71 3702.57,-543.74 3690.49,-410.2"/>
<polygon fill="black" stroke="black" points="3693.95,-409.66 3689.57,-400.02 3686.98,-410.29 3693.95,-409.66"/>
</g>
<!-- EquivGroupoids_emoveR_eM -->
<g id="node15" class="node">
<title>EquivGroupoids_emoveR_eM</title>
<g id="a_node15"><a xlink:href="EquivGroupoids.html#emoveR_eM" xlink:title="emoveR_eM">
<ellipse fill="#f070d1" stroke="black" cx="1464" cy="-1278.72" rx="66.89" ry="18"/>
<ellipse fill="none" stroke="black" cx="1464" cy="-1278.72" rx="70.89" ry="22"/>
<ellipse fill="none" stroke="black" cx="1464" cy="-1278.72" rx="74.89" ry="26"/>
<text text-anchor="middle" x="1464" y="-1275.02" font-family="Times,serif" font-size="14.00">emoveR_eM</text>
</a>
</g>
</g>
<!-- EquivGroupoids_emoveR_eM&#45;&gt;EquivGroupoids_ecompose_eV_e -->
<g id="edge23" class="edge">
<title>EquivGroupoids_emoveR_eM&#45;&gt;EquivGroupoids_ecompose_eV_e</title>
<path fill="none" stroke="black" d="M1471.02,-1252.38C1506.71,-1123.59 1667.71,-542.57 1704.5,-409.8"/>
<polygon fill="black" stroke="black" points="1707.91,-410.59 1707.21,-400.02 1701.16,-408.72 1707.91,-410.59"/>
</g>
<!-- EquivGroupoids_emoveR_Me -->
<g id="node16" class="node">
<title>EquivGroupoids_emoveR_Me</title>
<g id="a_node16"><a xlink:href="EquivGroupoids.html#emoveR_Me" xlink:title="emoveR_Me">
<ellipse fill="#f070d1" stroke="black" cx="2945" cy="-1278.72" rx="66.89" ry="18"/>
<ellipse fill="none" stroke="black" cx="2945" cy="-1278.72" rx="70.89" ry="22"/>
<ellipse fill="none" stroke="black" cx="2945" cy="-1278.72" rx="74.89" ry="26"/>
<text text-anchor="middle" x="2945" y="-1275.02" font-family="Times,serif" font-size="14.00">emoveR_Me</text>
</a>
</g>
</g>
<!-- EquivGroupoids_emoveR_Me&#45;&gt;EquivGroupoids_ecompose_e_Ve -->
<g id="edge24" class="edge">
<title>EquivGroupoids_emoveR_Me&#45;&gt;EquivGroupoids_ecompose_e_Ve</title>
<path fill="none" stroke="black" d="M2947.35,-1252.38C2959.28,-1123.71 3013.07,-543.74 3025.45,-410.2"/>
<polygon fill="black" stroke="black" points="3028.96,-410.3 3026.4,-400.02 3021.99,-409.65 3028.96,-410.3"/>
</g>
<!-- EquivGroupoids_einv_V -->
<g id="node17" class="node">
<title>EquivGroupoids_einv_V</title>
<g id="a_node17"><a xlink:href="EquivGroupoids.html#einv_V" xlink:title="einv_V">
<ellipse fill="#f070d1" stroke="black" cx="1322" cy="-1278.72" rx="40.9" ry="18"/>
<ellipse fill="none" stroke="black" cx="1322" cy="-1278.72" rx="44.9" ry="22"/>
<ellipse fill="none" stroke="black" cx="1322" cy="-1278.72" rx="48.89" ry="26"/>
<text text-anchor="middle" x="1322" y="-1275.02" font-family="Times,serif" font-size="14.00">einv_V</text>
</a>
</g>
</g>
<!-- EquivGroupoids_einv_VV -->
<g id="node18" class="node">
<title>EquivGroupoids_einv_VV</title>
<g id="a_node18"><a xlink:href="EquivGroupoids.html#einv_VV" xlink:title="einv_VV">
<ellipse fill="#f070d1" stroke="black" cx="1200" cy="-1278.72" rx="47.4" ry="18"/>
<ellipse fill="none" stroke="black" cx="1200" cy="-1278.72" rx="51.4" ry="22"/>
<ellipse fill="none" stroke="black" cx="1200" cy="-1278.72" rx="55.39" ry="26"/>
<text text-anchor="middle" x="1200" y="-1275.02" font-family="Times,serif" font-size="14.00">einv_VV</text>
</a>
</g>
</g>
<!-- EquivGroupoids_einv_eV -->
<g id="node19" class="node">
<title>EquivGroupoids_einv_eV</title>
<g id="a_node19"><a xlink:href="EquivGroupoids.html#einv_eV" xlink:title="einv_eV">
<ellipse fill="#f070d1" stroke="black" cx="1072" cy="-1278.72" rx="46.27" ry="18"/>
<ellipse fill="none" stroke="black" cx="1072" cy="-1278.72" rx="50.28" ry="22"/>
<ellipse fill="none" stroke="black" cx="1072" cy="-1278.72" rx="54.29" ry="26"/>
<text text-anchor="middle" x="1072" y="-1275.02" font-family="Times,serif" font-size="14.00">einv_eV</text>
</a>
</g>
</g>
<!-- EquivGroupoids_einv_Ve -->
<g id="node20" class="node">
<title>EquivGroupoids_einv_Ve</title>
<g id="a_node20"><a xlink:href="EquivGroupoids.html#einv_Ve" xlink:title="einv_Ve">
<ellipse fill="#f070d1" stroke="black" cx="946" cy="-1278.72" rx="46.27" ry="18"/>
<ellipse fill="none" stroke="black" cx="946" cy="-1278.72" rx="50.28" ry="22"/>
<ellipse fill="none" stroke="black" cx="946" cy="-1278.72" rx="54.29" ry="26"/>
<text text-anchor="middle" x="946" y="-1275.02" font-family="Times,serif" font-size="14.00">einv_Ve</text>
</a>
</g>
</g>
<!-- EquivGroupoids_einv_ee -->
<g id="node21" class="node">
<title>EquivGroupoids_einv_ee</title>
<g id="a_node21"><a xlink:href="EquivGroupoids.html#einv_ee" xlink:title="einv_ee">
<ellipse fill="#f070d1" stroke="black" cx="820" cy="-1278.72" rx="45.49" ry="18"/>
<ellipse fill="none" stroke="black" cx="820" cy="-1278.72" rx="49.49" ry="22"/>
<ellipse fill="none" stroke="black" cx="820" cy="-1278.72" rx="53.49" ry="26"/>
<text text-anchor="middle" x="820" y="-1275.02" font-family="Times,serif" font-size="14.00">einv_ee</text>
</a>
</g>
</g>
<!-- EquivGroupoids_ecompose_Ve -->
<g id="node26" class="node">
<title>EquivGroupoids_ecompose_Ve</title>
<g id="a_node26"><a xlink:href="EquivGroupoids.html#ecompose_Ve" xlink:title="ecompose_Ve">
<ellipse fill="#f070d1" stroke="black" cx="668" cy="-1278.72" rx="72.27" ry="18"/>
<ellipse fill="none" stroke="black" cx="668" cy="-1278.72" rx="76.28" ry="22"/>
<ellipse fill="none" stroke="black" cx="668" cy="-1278.72" rx="80.29" ry="26"/>
<text text-anchor="middle" x="668" y="-1275.02" font-family="Times,serif" font-size="14.00">ecompose_Ve</text>
</a>
</g>
</g>
<!-- EquivGroupoids_ecompose_eV -->
<g id="node27" class="node">
<title>EquivGroupoids_ecompose_eV</title>
<g id="a_node27"><a xlink:href="EquivGroupoids.html#ecompose_eV" xlink:title="ecompose_eV">
<ellipse fill="#f070d1" stroke="black" cx="489" cy="-1278.72" rx="72.61" ry="18"/>
<ellipse fill="none" stroke="black" cx="489" cy="-1278.72" rx="76.6" ry="22"/>
<ellipse fill="none" stroke="black" cx="489" cy="-1278.72" rx="80.59" ry="26"/>
<text text-anchor="middle" x="489" y="-1275.02" font-family="Times,serif" font-size="14.00">ecompose_eV</text>
</a>
</g>
</g>
<!-- EquivGroupoids_ecompose_ee_e -->
<g id="node28" class="node">
<title>EquivGroupoids_ecompose_ee_e</title>
<g id="a_node28"><a xlink:href="EquivGroupoids.html#ecompose_ee_e" xlink:title="ecompose_ee_e">
<ellipse fill="#f070d1" stroke="black" cx="301" cy="-1278.72" rx="81.46" ry="18"/>
<ellipse fill="none" stroke="black" cx="301" cy="-1278.72" rx="85.48" ry="22"/>
<ellipse fill="none" stroke="black" cx="301" cy="-1278.72" rx="89.49" ry="26"/>
<text text-anchor="middle" x="301" y="-1275.02" font-family="Times,serif" font-size="14.00">ecompose_ee_e</text>
</a>
</g>
</g>
<!-- EquivGroupoids_ecompose_e_ee -->
<g id="node29" class="node">
<title>EquivGroupoids_ecompose_e_ee</title>
<g id="a_node29"><a xlink:href="EquivGroupoids.html#ecompose_e_ee" xlink:title="ecompose_e_ee">
<ellipse fill="#f070d1" stroke="black" cx="105" cy="-1278.72" rx="81.46" ry="18"/>
<ellipse fill="none" stroke="black" cx="105" cy="-1278.72" rx="85.48" ry="22"/>
<ellipse fill="none" stroke="black" cx="105" cy="-1278.72" rx="89.49" ry="26"/>
<text text-anchor="middle" x="105" y="-1275.02" font-family="Times,serif" font-size="14.00">ecompose_e_ee</text>
</a>
</g>
</g>
</g>
</svg>
