<?xml version="1.0" encoding="UTF-8" standalone="no"?>
<!DOCTYPE svg PUBLIC "-//W3C//DTD SVG 1.1//EN"
 "http://www.w3.org/Graphics/SVG/1.1/DTD/svg11.dtd">
<!-- Generated by graphviz version 2.43.0 (0)
 -->
<!-- Title: HoTT_Colimits_Coeq Pages: 1 -->
<svg width="2319pt" height="1164pt"
 viewBox="0.00 0.00 2319.00 1163.50" xmlns="http://www.w3.org/2000/svg" xmlns:xlink="http://www.w3.org/1999/xlink">
<g id="graph0" class="graph" transform="scale(1 1) rotate(0) translate(4 1159.5)">
<title>HoTT_Colimits_Coeq</title>
<polygon fill="white" stroke="transparent" points="-4,4 -4,-1159.5 2315,-1159.5 2315,4 -4,4"/>
<g id="clust1" class="cluster">
<title>cluster_Coeq</title>
<polygon fill="#ffffc3" stroke="black" points="8,-11.51 8,-1143.99 2303,-1143.99 2303,-11.51 8,-11.51"/>
<text text-anchor="middle" x="34.5" y="-1128.79" font-family="Times,serif" font-size="14.00">Coeq</text>
</g>
<!-- Coeq_equiv_coeq_flatten -->
<g id="node1" class="node">
<title>Coeq_equiv_coeq_flatten</title>
<g id="a_node1"><a xlink:href="Coeq.html#equiv_coeq_flatten" xlink:title="equiv_coeq_flatten">
<ellipse fill="#f070d1" stroke="black" cx="1932" cy="-474.51" rx="96.7" ry="18"/>
<ellipse fill="none" stroke="black" cx="1932" cy="-474.51" rx="100.69" ry="22"/>
<ellipse fill="none" stroke="black" cx="1932" cy="-474.51" rx="104.68" ry="26"/>
<text text-anchor="middle" x="1932" y="-470.81" font-family="Times,serif" font-size="14.00">equiv_coeq_flatten</text>
</a>
</g>
</g>
<!-- Coeq_e_ -->
<g id="node2" class="node">
<title>Coeq_e_</title>
<g id="a_node2"><a xlink:href="Coeq.html#e'" xlink:title="e&#39;">
<ellipse fill="#f070d1" stroke="black" cx="2009" cy="-359.51" rx="27" ry="18"/>
<text text-anchor="middle" x="2009" y="-355.81" font-family="Times,serif" font-size="14.00">e&#39;</text>
</a>
</g>
</g>
<!-- Coeq_equiv_coeq_flatten&#45;&gt;Coeq_e_ -->
<g id="edge1" class="edge">
<title>Coeq_equiv_coeq_flatten&#45;&gt;Coeq_e_</title>
<path fill="none" stroke="black" d="M1948.9,-448.71C1961.89,-429.64 1979.74,-403.45 1992.61,-384.57"/>
<polygon fill="black" stroke="black" points="1995.57,-386.44 1998.3,-376.21 1989.78,-382.5 1995.57,-386.44"/>
</g>
<!-- Coeq_coeq_flatten_fam -->
<g id="node4" class="node">
<title>Coeq_coeq_flatten_fam</title>
<g id="a_node4"><a xlink:href="Coeq.html#coeq_flatten_fam" xlink:title="coeq_flatten_fam">
<ellipse fill="#f070d1" stroke="black" cx="1875" cy="-359.51" rx="89.08" ry="18"/>
<text text-anchor="middle" x="1875" y="-355.81" font-family="Times,serif" font-size="14.00">coeq_flatten_fam</text>
</a>
</g>
</g>
<!-- Coeq_equiv_coeq_flatten&#45;&gt;Coeq_coeq_flatten_fam -->
<g id="edge2" class="edge">
<title>Coeq_equiv_coeq_flatten&#45;&gt;Coeq_coeq_flatten_fam</title>
<path fill="none" stroke="black" d="M1919.35,-448.43C1910.08,-430.05 1897.52,-405.16 1888.14,-386.56"/>
<polygon fill="black" stroke="black" points="1891.18,-384.82 1883.55,-377.47 1884.93,-387.97 1891.18,-384.82"/>
</g>
<!-- Coeq_Coeq_rec_beta_cglue -->
<g id="node28" class="node">
<title>Coeq_Coeq_rec_beta_cglue</title>
<g id="a_node28"><a xlink:href="Coeq.html#Coeq_rec_beta_cglue" xlink:title="Coeq_rec_beta_cglue">
<ellipse fill="#f070d1" stroke="black" cx="1321" cy="-359.51" rx="107.48" ry="18"/>
<text text-anchor="middle" x="1321" y="-355.81" font-family="Times,serif" font-size="14.00">Coeq_rec_beta_cglue</text>
</a>
</g>
</g>
<!-- Coeq_equiv_coeq_flatten&#45;&gt;Coeq_Coeq_rec_beta_cglue -->
<g id="edge3" class="edge">
<title>Coeq_equiv_coeq_flatten&#45;&gt;Coeq_Coeq_rec_beta_cglue</title>
<path fill="none" stroke="black" d="M1849.92,-458.33C1732.12,-436.54 1516.54,-396.68 1400.3,-375.18"/>
<polygon fill="black" stroke="black" points="1400.87,-371.72 1390.4,-373.35 1399.59,-378.61 1400.87,-371.72"/>
</g>
<!-- Coeq_Coeq_ind -->
<g id="node31" class="node">
<title>Coeq_Coeq_ind</title>
<g id="a_node31"><a xlink:href="Coeq.html#Coeq_ind" xlink:title="Coeq_ind">
<ellipse fill="#f070d1" stroke="black" cx="1142" cy="-359.51" rx="53.09" ry="18"/>
<text text-anchor="middle" x="1142" y="-355.81" font-family="Times,serif" font-size="14.00">Coeq_ind</text>
</a>
</g>
</g>
<!-- Coeq_equiv_coeq_flatten&#45;&gt;Coeq_Coeq_ind -->
<g id="edge4" class="edge">
<title>Coeq_equiv_coeq_flatten&#45;&gt;Coeq_Coeq_ind</title>
<path fill="none" stroke="black" d="M1850.55,-458.05C1831.68,-454.69 1811.67,-451.32 1793,-448.51 1532.69,-409.42 1463.4,-427.71 1205,-377.51 1200.31,-376.6 1195.46,-375.53 1190.62,-374.37"/>
<polygon fill="black" stroke="black" points="1191.33,-370.94 1180.78,-371.91 1189.63,-377.73 1191.33,-370.94"/>
</g>
<!-- Coeq_R -->
<g id="node3" class="node">
<title>Coeq_R</title>
<g id="a_node3"><a xlink:href="Coeq.html#R" xlink:title="R">
<ellipse fill="#f070d1" stroke="black" cx="2009" cy="-256.51" rx="27" ry="18"/>
<text text-anchor="middle" x="2009" y="-252.81" font-family="Times,serif" font-size="14.00">R</text>
</a>
</g>
</g>
<!-- Coeq_e_&#45;&gt;Coeq_R -->
<g id="edge5" class="edge">
<title>Coeq_e_&#45;&gt;Coeq_R</title>
<path fill="none" stroke="black" d="M2009,-341.38C2009,-325.93 2009,-302.93 2009,-284.92"/>
<polygon fill="black" stroke="black" points="2012.5,-284.73 2009,-274.73 2005.5,-284.73 2012.5,-284.73"/>
</g>
<!-- Coeq_Coeq_rec -->
<g id="node29" class="node">
<title>Coeq_Coeq_rec</title>
<g id="a_node29"><a xlink:href="Coeq.html#Coeq_rec" xlink:title="Coeq_rec">
<ellipse fill="#f070d1" stroke="black" cx="1528" cy="-256.51" rx="53.09" ry="18"/>
<text text-anchor="middle" x="1528" y="-252.81" font-family="Times,serif" font-size="14.00">Coeq_rec</text>
</a>
</g>
</g>
<!-- Coeq_coeq_flatten_fam&#45;&gt;Coeq_Coeq_rec -->
<g id="edge6" class="edge">
<title>Coeq_coeq_flatten_fam&#45;&gt;Coeq_Coeq_rec</title>
<path fill="none" stroke="black" d="M1826.39,-344.36C1760.3,-325.13 1642.79,-290.92 1576.67,-271.68"/>
<polygon fill="black" stroke="black" points="1577.49,-268.27 1566.91,-268.84 1575.53,-274.99 1577.49,-268.27"/>
</g>
<!-- Coeq_Coeq_sym -->
<g id="node5" class="node">
<title>Coeq_Coeq_sym</title>
<g id="a_node5"><a xlink:href="Coeq.html#Coeq_sym" xlink:title="Coeq_sym">
<ellipse fill="#f070d1" stroke="black" cx="1211" cy="-728.51" rx="57.71" ry="18"/>
<ellipse fill="none" stroke="black" cx="1211" cy="-728.51" rx="61.7" ry="22"/>
<ellipse fill="none" stroke="black" cx="1211" cy="-728.51" rx="65.69" ry="26"/>
<text text-anchor="middle" x="1211" y="-724.81" font-family="Times,serif" font-size="14.00">Coeq_sym</text>
</a>
</g>
</g>
<!-- Coeq_sect_Coeq_sym_map -->
<g id="node6" class="node">
<title>Coeq_sect_Coeq_sym_map</title>
<g id="a_node6"><a xlink:href="Coeq.html#sect_Coeq_sym_map" xlink:title="sect_Coeq_sym_map">
<ellipse fill="#f070d1" stroke="black" cx="1211" cy="-601.51" rx="105.08" ry="18"/>
<text text-anchor="middle" x="1211" y="-597.81" font-family="Times,serif" font-size="14.00">sect_Coeq_sym_map</text>
</a>
</g>
</g>
<!-- Coeq_Coeq_sym&#45;&gt;Coeq_sect_Coeq_sym_map -->
<g id="edge7" class="edge">
<title>Coeq_Coeq_sym&#45;&gt;Coeq_sect_Coeq_sym_map</title>
<path fill="none" stroke="black" d="M1211,-702.22C1211,-681.22 1211,-651.42 1211,-629.88"/>
<polygon fill="black" stroke="black" points="1214.5,-629.74 1211,-619.74 1207.5,-629.74 1214.5,-629.74"/>
</g>
<!-- Coeq_sect_Coeq_sym_map_subproof -->
<g id="node7" class="node">
<title>Coeq_sect_Coeq_sym_map_subproof</title>
<g id="a_node7"><a xlink:href="Coeq.html#sect_Coeq_sym_map_subproof" xlink:title="sect_Coeq_sym_map_subproof">
<ellipse fill="#f070d1" stroke="black" cx="1352" cy="-474.51" rx="150.57" ry="18"/>
<text text-anchor="middle" x="1352" y="-470.81" font-family="Times,serif" font-size="14.00">sect_Coeq_sym_map_subproof</text>
</a>
</g>
</g>
<!-- Coeq_sect_Coeq_sym_map&#45;&gt;Coeq_sect_Coeq_sym_map_subproof -->
<g id="edge8" class="edge">
<title>Coeq_sect_Coeq_sym_map&#45;&gt;Coeq_sect_Coeq_sym_map_subproof</title>
<path fill="none" stroke="black" d="M1230.02,-583.65C1254.51,-561.94 1297.23,-524.07 1325.06,-499.39"/>
<polygon fill="black" stroke="black" points="1327.67,-501.75 1332.84,-492.5 1323.03,-496.52 1327.67,-501.75"/>
</g>
<!-- Coeq_sect_Coeq_sym_map&#45;&gt;Coeq_Coeq_ind -->
<g id="edge9" class="edge">
<title>Coeq_sect_Coeq_sym_map&#45;&gt;Coeq_Coeq_ind</title>
<path fill="none" stroke="black" d="M1199.04,-583.37C1186.29,-564.16 1166.65,-531.6 1157,-500.51 1145.24,-462.63 1142.36,-416.52 1141.83,-387.84"/>
<polygon fill="black" stroke="black" points="1145.33,-387.71 1141.73,-377.75 1138.33,-387.78 1145.33,-387.71"/>
</g>
<!-- Coeq_Coeq_sym_map -->
<g id="node8" class="node">
<title>Coeq_Coeq_sym_map</title>
<g id="a_node8"><a xlink:href="Coeq.html#Coeq_sym_map" xlink:title="Coeq_sym_map">
<ellipse fill="#f070d1" stroke="black" cx="1528" cy="-359.51" rx="81.79" ry="18"/>
<text text-anchor="middle" x="1528" y="-355.81" font-family="Times,serif" font-size="14.00">Coeq_sym_map</text>
</a>
</g>
</g>
<!-- Coeq_sect_Coeq_sym_map_subproof&#45;&gt;Coeq_Coeq_sym_map -->
<g id="edge10" class="edge">
<title>Coeq_sect_Coeq_sym_map_subproof&#45;&gt;Coeq_Coeq_sym_map</title>
<path fill="none" stroke="black" d="M1378.35,-456.59C1409.16,-436.81 1460.23,-404.02 1494,-382.34"/>
<polygon fill="black" stroke="black" points="1496.09,-385.16 1502.62,-376.81 1492.31,-379.27 1496.09,-385.16"/>
</g>
<!-- Coeq_sect_Coeq_sym_map_subproof&#45;&gt;Coeq_Coeq_rec_beta_cglue -->
<g id="edge11" class="edge">
<title>Coeq_sect_Coeq_sym_map_subproof&#45;&gt;Coeq_Coeq_rec_beta_cglue</title>
<path fill="none" stroke="black" d="M1347.29,-456.35C1342.28,-438.1 1334.29,-408.97 1328.44,-387.61"/>
<polygon fill="black" stroke="black" points="1331.77,-386.55 1325.75,-377.84 1325.02,-388.41 1331.77,-386.55"/>
</g>
<!-- Coeq_Coeq_sym_map&#45;&gt;Coeq_Coeq_rec -->
<g id="edge12" class="edge">
<title>Coeq_Coeq_sym_map&#45;&gt;Coeq_Coeq_rec</title>
<path fill="none" stroke="black" d="M1528,-341.38C1528,-325.93 1528,-302.93 1528,-284.92"/>
<polygon fill="black" stroke="black" points="1531.5,-284.73 1528,-274.73 1524.5,-284.73 1531.5,-284.73"/>
</g>
<!-- Coeq_cglue -->
<g id="node32" class="node">
<title>Coeq_cglue</title>
<g id="a_node32"><a xlink:href="Coeq.html#cglue" xlink:title="cglue">
<ellipse fill="#f070d1" stroke="black" cx="1340" cy="-256.51" rx="36" ry="18"/>
<text text-anchor="middle" x="1340" y="-252.81" font-family="Times,serif" font-size="14.00">cglue</text>
</a>
</g>
</g>
<!-- Coeq_Coeq_sym_map&#45;&gt;Coeq_cglue -->
<g id="edge13" class="edge">
<title>Coeq_Coeq_sym_map&#45;&gt;Coeq_cglue</title>
<path fill="none" stroke="black" d="M1498.21,-342.51C1464,-324.13 1408.04,-294.06 1372.66,-275.06"/>
<polygon fill="black" stroke="black" points="1374.16,-271.89 1363.7,-270.24 1370.85,-278.06 1374.16,-271.89"/>
</g>
<!-- Coeq_Coeq_ind2 -->
<g id="node9" class="node">
<title>Coeq_Coeq_ind2</title>
<g id="a_node9"><a xlink:href="Coeq.html#Coeq_ind2" xlink:title="Coeq_ind2">
<ellipse fill="#f070d1" stroke="black" cx="83" cy="-601.51" rx="59.27" ry="18"/>
<ellipse fill="none" stroke="black" cx="83" cy="-601.51" rx="63.28" ry="22"/>
<ellipse fill="none" stroke="black" cx="83" cy="-601.51" rx="67.29" ry="26"/>
<text text-anchor="middle" x="83" y="-597.81" font-family="Times,serif" font-size="14.00">Coeq_ind2</text>
</a>
</g>
</g>
<!-- Coeq_Coeq_ind_beta_cglue -->
<g id="node30" class="node">
<title>Coeq_Coeq_ind_beta_cglue</title>
<g id="a_node30"><a xlink:href="Coeq.html#Coeq_ind_beta_cglue" xlink:title="Coeq_ind_beta_cglue">
<ellipse fill="#f070d1" stroke="black" cx="436" cy="-474.51" rx="107.48" ry="18"/>
<text text-anchor="middle" x="436" y="-470.81" font-family="Times,serif" font-size="14.00">Coeq_ind_beta_cglue</text>
</a>
</g>
</g>
<!-- Coeq_Coeq_ind2&#45;&gt;Coeq_Coeq_ind_beta_cglue -->
<g id="edge14" class="edge">
<title>Coeq_Coeq_ind2&#45;&gt;Coeq_Coeq_ind_beta_cglue</title>
<path fill="none" stroke="black" d="M131.34,-583.39C197.03,-560.13 314.11,-518.67 382.41,-494.49"/>
<polygon fill="black" stroke="black" points="383.87,-497.69 392.12,-491.05 381.53,-491.09 383.87,-497.69"/>
</g>
<!-- Coeq_Coeq_rec2_beta_cgluer -->
<g id="node10" class="node">
<title>Coeq_Coeq_rec2_beta_cgluer</title>
<g id="a_node10"><a xlink:href="Coeq.html#Coeq_rec2_beta_cgluer" xlink:title="Coeq_rec2_beta_cgluer">
<ellipse fill="#f070d1" stroke="black" cx="761" cy="-601.51" rx="117.77" ry="18"/>
<ellipse fill="none" stroke="black" cx="761" cy="-601.51" rx="121.77" ry="22"/>
<ellipse fill="none" stroke="black" cx="761" cy="-601.51" rx="125.78" ry="26"/>
<text text-anchor="middle" x="761" y="-597.81" font-family="Times,serif" font-size="14.00">Coeq_rec2_beta_cgluer</text>
</a>
</g>
</g>
<!-- Coeq_Coeq_rec2 -->
<g id="node13" class="node">
<title>Coeq_Coeq_rec2</title>
<g id="a_node13"><a xlink:href="Coeq.html#Coeq_rec2" xlink:title="Coeq_rec2">
<ellipse fill="#f070d1" stroke="black" cx="1064" cy="-474.51" rx="59.29" ry="18"/>
<text text-anchor="middle" x="1064" y="-470.81" font-family="Times,serif" font-size="14.00">Coeq_rec2</text>
</a>
</g>
</g>
<!-- Coeq_Coeq_rec2_beta_cgluer&#45;&gt;Coeq_Coeq_rec2 -->
<g id="edge15" class="edge">
<title>Coeq_Coeq_rec2_beta_cgluer&#45;&gt;Coeq_Coeq_rec2</title>
<path fill="none" stroke="black" d="M815.52,-578.02C874.35,-553.75 966.83,-515.6 1020.83,-493.32"/>
<polygon fill="black" stroke="black" points="1022.21,-496.54 1030.12,-489.49 1019.54,-490.07 1022.21,-496.54"/>
</g>
<!-- Coeq_Coeq_rec2_beta_cgluel -->
<g id="node11" class="node">
<title>Coeq_Coeq_rec2_beta_cgluel</title>
<g id="a_node11"><a xlink:href="Coeq.html#Coeq_rec2_beta_cgluel" xlink:title="Coeq_rec2_beta_cgluel">
<ellipse fill="#f070d1" stroke="black" cx="493" cy="-601.51" rx="116.19" ry="18"/>
<ellipse fill="none" stroke="black" cx="493" cy="-601.51" rx="120.18" ry="22"/>
<ellipse fill="none" stroke="black" cx="493" cy="-601.51" rx="124.18" ry="26"/>
<text text-anchor="middle" x="493" y="-597.81" font-family="Times,serif" font-size="14.00">Coeq_rec2_beta_cgluel</text>
</a>
</g>
</g>
<!-- Coeq_Coeq_rec2_beta_cgluel&#45;&gt;Coeq_Coeq_rec2 -->
<g id="edge16" class="edge">
<title>Coeq_Coeq_rec2_beta_cgluel&#45;&gt;Coeq_Coeq_rec2</title>
<path fill="none" stroke="black" d="M582.81,-583.45C716.6,-557.9 956.79,-511.54 996,-500.51 1003.92,-498.28 1012.23,-495.56 1020.22,-492.74"/>
<polygon fill="black" stroke="black" points="1021.54,-495.99 1029.75,-489.29 1019.16,-489.41 1021.54,-495.99"/>
</g>
<!-- Coeq_Coeq_rec2_beta -->
<g id="node12" class="node">
<title>Coeq_Coeq_rec2_beta</title>
<g id="a_node12"><a xlink:href="Coeq.html#Coeq_rec2_beta" xlink:title="Coeq_rec2_beta">
<ellipse fill="#f070d1" stroke="black" cx="996" cy="-601.51" rx="83.7" ry="18"/>
<ellipse fill="none" stroke="black" cx="996" cy="-601.51" rx="87.69" ry="22"/>
<ellipse fill="none" stroke="black" cx="996" cy="-601.51" rx="91.69" ry="26"/>
<text text-anchor="middle" x="996" y="-597.81" font-family="Times,serif" font-size="14.00">Coeq_rec2_beta</text>
</a>
</g>
</g>
<!-- Coeq_Coeq_rec2_beta&#45;&gt;Coeq_Coeq_rec2 -->
<g id="edge17" class="edge">
<title>Coeq_Coeq_rec2_beta&#45;&gt;Coeq_Coeq_rec2</title>
<path fill="none" stroke="black" d="M1009.6,-575.52C1021.28,-554.04 1038.06,-523.2 1049.89,-501.45"/>
<polygon fill="black" stroke="black" points="1053.08,-502.92 1054.78,-492.46 1046.93,-499.57 1053.08,-502.92"/>
</g>
<!-- Coeq_Coeq_rec2&#45;&gt;Coeq_Coeq_rec_beta_cglue -->
<g id="edge18" class="edge">
<title>Coeq_Coeq_rec2&#45;&gt;Coeq_Coeq_rec_beta_cglue</title>
<path fill="none" stroke="black" d="M1096.29,-459.31C1141.47,-439.45 1223.78,-403.26 1275.26,-380.62"/>
<polygon fill="black" stroke="black" points="1276.75,-383.79 1284.5,-376.56 1273.93,-377.38 1276.75,-383.79"/>
</g>
<!-- Coeq_Coeq_rec2&#45;&gt;Coeq_Coeq_ind -->
<g id="edge19" class="edge">
<title>Coeq_Coeq_rec2&#45;&gt;Coeq_Coeq_ind</title>
<path fill="none" stroke="black" d="M1075.51,-456.84C1088.47,-438.06 1109.67,-407.34 1124.65,-385.65"/>
<polygon fill="black" stroke="black" points="1127.64,-387.47 1130.44,-377.25 1121.88,-383.5 1127.64,-387.47"/>
</g>
<!-- Coeq_equiv_functor_coeq_ -->
<g id="node14" class="node">
<title>Coeq_equiv_functor_coeq_</title>
<g id="a_node14"><a xlink:href="Coeq.html#equiv_functor_coeq'" xlink:title="equiv_functor_coeq&#39;">
<ellipse fill="#f070d1" stroke="black" cx="2070" cy="-1061.51" rx="102.87" ry="18"/>
<ellipse fill="none" stroke="black" cx="2070" cy="-1061.51" rx="106.88" ry="22"/>
<ellipse fill="none" stroke="black" cx="2070" cy="-1061.51" rx="110.88" ry="26"/>
<text text-anchor="middle" x="2070" y="-1057.81" font-family="Times,serif" font-size="14.00">equiv_functor_coeq&#39;</text>
</a>
</g>
</g>
<!-- Coeq_equiv_functor_coeq -->
<g id="node15" class="node">
<title>Coeq_equiv_functor_coeq</title>
<g id="a_node15"><a xlink:href="Coeq.html#equiv_functor_coeq" xlink:title="equiv_functor_coeq">
<ellipse fill="#f070d1" stroke="black" cx="2070" cy="-946.51" rx="100.18" ry="18"/>
<text text-anchor="middle" x="2070" y="-942.81" font-family="Times,serif" font-size="14.00">equiv_functor_coeq</text>
</a>
</g>
</g>
<!-- Coeq_equiv_functor_coeq_&#45;&gt;Coeq_equiv_functor_coeq -->
<g id="edge20" class="edge">
<title>Coeq_equiv_functor_coeq_&#45;&gt;Coeq_equiv_functor_coeq</title>
<path fill="none" stroke="black" d="M2070,-1035.43C2070,-1017.5 2070,-993.37 2070,-974.92"/>
<polygon fill="black" stroke="black" points="2073.5,-974.81 2070,-964.81 2066.5,-974.81 2073.5,-974.81"/>
</g>
<!-- Coeq_isequiv_functor_coeq -->
<g id="node16" class="node">
<title>Coeq_isequiv_functor_coeq</title>
<g id="a_node16"><a xlink:href="Coeq.html#isequiv_functor_coeq" xlink:title="isequiv_functor_coeq">
<ellipse fill="#f070d1" stroke="black" cx="2070" cy="-843.51" rx="107.78" ry="18"/>
<text text-anchor="middle" x="2070" y="-839.81" font-family="Times,serif" font-size="14.00">isequiv_functor_coeq</text>
</a>
</g>
</g>
<!-- Coeq_equiv_functor_coeq&#45;&gt;Coeq_isequiv_functor_coeq -->
<g id="edge21" class="edge">
<title>Coeq_equiv_functor_coeq&#45;&gt;Coeq_isequiv_functor_coeq</title>
<path fill="none" stroke="black" d="M2070,-928.38C2070,-912.93 2070,-889.93 2070,-871.92"/>
<polygon fill="black" stroke="black" points="2073.5,-871.73 2070,-861.73 2066.5,-871.73 2073.5,-871.73"/>
</g>
<!-- Coeq_functor_coeq_eisretr -->
<g id="node17" class="node">
<title>Coeq_functor_coeq_eisretr</title>
<g id="a_node17"><a xlink:href="Coeq.html#functor_coeq_eisretr" xlink:title="functor_coeq_eisretr">
<ellipse fill="#f070d1" stroke="black" cx="1956" cy="-728.51" rx="105.88" ry="18"/>
<text text-anchor="middle" x="1956" y="-724.81" font-family="Times,serif" font-size="14.00">functor_coeq_eisretr</text>
</a>
</g>
</g>
<!-- Coeq_isequiv_functor_coeq&#45;&gt;Coeq_functor_coeq_eisretr -->
<g id="edge22" class="edge">
<title>Coeq_isequiv_functor_coeq&#45;&gt;Coeq_functor_coeq_eisretr</title>
<path fill="none" stroke="black" d="M2052.69,-825.35C2033.41,-806.24 2002.11,-775.21 1980.36,-753.66"/>
<polygon fill="black" stroke="black" points="1982.67,-751.02 1973.1,-746.47 1977.74,-755.99 1982.67,-751.02"/>
</g>
<!-- Coeq_functor_coeq_eissect -->
<g id="node18" class="node">
<title>Coeq_functor_coeq_eissect</title>
<g id="a_node18"><a xlink:href="Coeq.html#functor_coeq_eissect" xlink:title="functor_coeq_eissect">
<ellipse fill="#f070d1" stroke="black" cx="2187" cy="-728.51" rx="106.68" ry="18"/>
<text text-anchor="middle" x="2187" y="-724.81" font-family="Times,serif" font-size="14.00">functor_coeq_eissect</text>
</a>
</g>
</g>
<!-- Coeq_isequiv_functor_coeq&#45;&gt;Coeq_functor_coeq_eissect -->
<g id="edge23" class="edge">
<title>Coeq_isequiv_functor_coeq&#45;&gt;Coeq_functor_coeq_eissect</title>
<path fill="none" stroke="black" d="M2087.52,-825.59C2107.25,-806.54 2139.48,-775.41 2161.88,-753.77"/>
<polygon fill="black" stroke="black" points="2164.6,-756.01 2169.36,-746.54 2159.74,-750.97 2164.6,-756.01"/>
</g>
<!-- Coeq_functor_coeq_inverse -->
<g id="node19" class="node">
<title>Coeq_functor_coeq_inverse</title>
<g id="a_node19"><a xlink:href="Coeq.html#functor_coeq_inverse" xlink:title="functor_coeq_inverse">
<ellipse fill="#f070d1" stroke="black" cx="2186" cy="-601.51" rx="108.58" ry="18"/>
<text text-anchor="middle" x="2186" y="-597.81" font-family="Times,serif" font-size="14.00">functor_coeq_inverse</text>
</a>
</g>
</g>
<!-- Coeq_functor_coeq_eisretr&#45;&gt;Coeq_functor_coeq_inverse -->
<g id="edge24" class="edge">
<title>Coeq_functor_coeq_eisretr&#45;&gt;Coeq_functor_coeq_inverse</title>
<path fill="none" stroke="black" d="M1986.07,-711.17C2027.31,-688.76 2101.47,-648.45 2146.95,-623.73"/>
<polygon fill="black" stroke="black" points="2148.81,-626.71 2155.92,-618.86 2145.47,-620.56 2148.81,-626.71"/>
</g>
<!-- Coeq_functor_coeq_sect -->
<g id="node20" class="node">
<title>Coeq_functor_coeq_sect</title>
<g id="a_node20"><a xlink:href="Coeq.html#functor_coeq_sect" xlink:title="functor_coeq_sect">
<ellipse fill="#f070d1" stroke="black" cx="1966" cy="-601.51" rx="93.68" ry="18"/>
<text text-anchor="middle" x="1966" y="-597.81" font-family="Times,serif" font-size="14.00">functor_coeq_sect</text>
</a>
</g>
</g>
<!-- Coeq_functor_coeq_eisretr&#45;&gt;Coeq_functor_coeq_sect -->
<g id="edge25" class="edge">
<title>Coeq_functor_coeq_eisretr&#45;&gt;Coeq_functor_coeq_sect</title>
<path fill="none" stroke="black" d="M1957.37,-710.39C1959.03,-689.66 1961.84,-654.46 1963.81,-629.93"/>
<polygon fill="black" stroke="black" points="1967.31,-630.07 1964.61,-619.82 1960.33,-629.51 1967.31,-630.07"/>
</g>
<!-- Coeq_functor_coeq_eissect&#45;&gt;Coeq_functor_coeq_inverse -->
<g id="edge26" class="edge">
<title>Coeq_functor_coeq_eissect&#45;&gt;Coeq_functor_coeq_inverse</title>
<path fill="none" stroke="black" d="M2186.86,-710.39C2186.7,-689.66 2186.42,-654.46 2186.22,-629.93"/>
<polygon fill="black" stroke="black" points="2189.72,-629.8 2186.14,-619.82 2182.72,-629.85 2189.72,-629.8"/>
</g>
<!-- Coeq_functor_coeq_eissect&#45;&gt;Coeq_functor_coeq_sect -->
<g id="edge27" class="edge">
<title>Coeq_functor_coeq_eissect&#45;&gt;Coeq_functor_coeq_sect</title>
<path fill="none" stroke="black" d="M2158.11,-711.17C2118.46,-688.74 2047.13,-648.4 2003.43,-623.68"/>
<polygon fill="black" stroke="black" points="2004.98,-620.54 1994.55,-618.66 2001.53,-626.63 2004.98,-620.54"/>
</g>
<!-- Coeq_functor_coeq -->
<g id="node24" class="node">
<title>Coeq_functor_coeq</title>
<g id="a_node24"><a xlink:href="Coeq.html#functor_coeq" xlink:title="functor_coeq">
<ellipse fill="#f070d1" stroke="black" cx="1698" cy="-359.51" rx="70.39" ry="18"/>
<text text-anchor="middle" x="1698" y="-355.81" font-family="Times,serif" font-size="14.00">functor_coeq</text>
</a>
</g>
</g>
<!-- Coeq_functor_coeq_inverse&#45;&gt;Coeq_functor_coeq -->
<g id="edge28" class="edge">
<title>Coeq_functor_coeq_inverse&#45;&gt;Coeq_functor_coeq</title>
<path fill="none" stroke="black" d="M2124.21,-586.68C2025.7,-564.19 1841.7,-520.23 1818,-500.51 1798.29,-484.11 1808.23,-469.14 1793,-448.51 1774.46,-423.39 1748.08,-399.63 1727.82,-383.15"/>
<polygon fill="black" stroke="black" points="1729.83,-380.27 1719.83,-376.76 1725.46,-385.74 1729.83,-380.27"/>
</g>
<!-- Coeq_functor_coeq_beta_cglue -->
<g id="node23" class="node">
<title>Coeq_functor_coeq_beta_cglue</title>
<g id="a_node23"><a xlink:href="Coeq.html#functor_coeq_beta_cglue" xlink:title="functor_coeq_beta_cglue">
<ellipse fill="#f070d1" stroke="black" cx="1645" cy="-474.51" rx="124.28" ry="18"/>
<text text-anchor="middle" x="1645" y="-470.81" font-family="Times,serif" font-size="14.00">functor_coeq_beta_cglue</text>
</a>
</g>
</g>
<!-- Coeq_functor_coeq_sect&#45;&gt;Coeq_functor_coeq_beta_cglue -->
<g id="edge29" class="edge">
<title>Coeq_functor_coeq_sect&#45;&gt;Coeq_functor_coeq_beta_cglue</title>
<path fill="none" stroke="black" d="M1926.32,-585.06C1868.08,-562.38 1759.47,-520.09 1695.58,-495.21"/>
<polygon fill="black" stroke="black" points="1696.7,-491.89 1686.11,-491.52 1694.16,-498.41 1696.7,-491.89"/>
</g>
<!-- Coeq_functor_coeq_sect&#45;&gt;Coeq_Coeq_ind -->
<g id="edge30" class="edge">
<title>Coeq_functor_coeq_sect&#45;&gt;Coeq_Coeq_ind</title>
<path fill="none" stroke="black" d="M1921.17,-585.58C1881.83,-570.23 1825.91,-542.59 1793,-500.51 1778.18,-481.57 1796.29,-464.13 1778,-448.51 1680.41,-365.21 1330.91,-402.17 1205,-377.51 1200.31,-376.59 1195.46,-375.52 1190.63,-374.36"/>
<polygon fill="black" stroke="black" points="1191.33,-370.93 1180.78,-371.89 1189.63,-377.72 1191.33,-370.93"/>
</g>
<!-- Coeq_functor_coeq_homotopy -->
<g id="node21" class="node">
<title>Coeq_functor_coeq_homotopy</title>
<g id="a_node21"><a xlink:href="Coeq.html#functor_coeq_homotopy" xlink:title="functor_coeq_homotopy">
<ellipse fill="#f070d1" stroke="black" cx="1726" cy="-601.51" rx="120.46" ry="18"/>
<ellipse fill="none" stroke="black" cx="1726" cy="-601.51" rx="124.47" ry="22"/>
<ellipse fill="none" stroke="black" cx="1726" cy="-601.51" rx="128.48" ry="26"/>
<text text-anchor="middle" x="1726" y="-597.81" font-family="Times,serif" font-size="14.00">functor_coeq_homotopy</text>
</a>
</g>
</g>
<!-- Coeq_functor_coeq_homotopy&#45;&gt;Coeq_functor_coeq_beta_cglue -->
<g id="edge31" class="edge">
<title>Coeq_functor_coeq_homotopy&#45;&gt;Coeq_functor_coeq_beta_cglue</title>
<path fill="none" stroke="black" d="M1709.8,-575.52C1695.76,-553.85 1675.54,-522.64 1661.43,-500.87"/>
<polygon fill="black" stroke="black" points="1664.36,-498.95 1655.98,-492.46 1658.48,-502.75 1664.36,-498.95"/>
</g>
<!-- Coeq_functor_coeq_homotopy&#45;&gt;Coeq_Coeq_ind -->
<g id="edge32" class="edge">
<title>Coeq_functor_coeq_homotopy&#45;&gt;Coeq_Coeq_ind</title>
<path fill="none" stroke="black" d="M1633.43,-583.47C1481.11,-555.4 1194.11,-502.31 1192,-500.51 1189.75,-498.59 1165.03,-427.47 1151.21,-387.36"/>
<polygon fill="black" stroke="black" points="1154.44,-385.97 1147.87,-377.65 1147.82,-388.25 1154.44,-385.97"/>
</g>
<!-- Coeq_functor_coeq_compose -->
<g id="node22" class="node">
<title>Coeq_functor_coeq_compose</title>
<g id="a_node22"><a xlink:href="Coeq.html#functor_coeq_compose" xlink:title="functor_coeq_compose">
<ellipse fill="#f070d1" stroke="black" cx="1457" cy="-601.51" rx="115.08" ry="18"/>
<ellipse fill="none" stroke="black" cx="1457" cy="-601.51" rx="119.08" ry="22"/>
<ellipse fill="none" stroke="black" cx="1457" cy="-601.51" rx="123.08" ry="26"/>
<text text-anchor="middle" x="1457" y="-597.81" font-family="Times,serif" font-size="14.00">functor_coeq_compose</text>
</a>
</g>
</g>
<!-- Coeq_functor_coeq_compose&#45;&gt;Coeq_functor_coeq_beta_cglue -->
<g id="edge33" class="edge">
<title>Coeq_functor_coeq_compose&#45;&gt;Coeq_functor_coeq_beta_cglue</title>
<path fill="none" stroke="black" d="M1493.25,-576.41C1527.43,-553.68 1578.25,-519.89 1611.5,-497.78"/>
<polygon fill="black" stroke="black" points="1613.58,-500.6 1619.97,-492.15 1609.71,-494.77 1613.58,-500.6"/>
</g>
<!-- Coeq_functor_coeq_compose&#45;&gt;Coeq_Coeq_ind -->
<g id="edge34" class="edge">
<title>Coeq_functor_coeq_compose&#45;&gt;Coeq_Coeq_ind</title>
<path fill="none" stroke="black" d="M1378.74,-581.42C1305.9,-562.13 1204.56,-530.92 1177,-500.51 1162.17,-484.15 1151.17,-423.95 1145.76,-388.03"/>
<polygon fill="black" stroke="black" points="1149.16,-387.13 1144.26,-377.74 1142.23,-388.14 1149.16,-387.13"/>
</g>
<!-- Coeq_functor_coeq_beta_cglue&#45;&gt;Coeq_functor_coeq -->
<g id="edge35" class="edge">
<title>Coeq_functor_coeq_beta_cglue&#45;&gt;Coeq_functor_coeq</title>
<path fill="none" stroke="black" d="M1653.05,-456.35C1661.74,-437.82 1675.68,-408.1 1685.74,-386.66"/>
<polygon fill="black" stroke="black" points="1688.97,-388.01 1690.05,-377.47 1682.63,-385.03 1688.97,-388.01"/>
</g>
<!-- Coeq_functor_coeq_beta_cglue&#45;&gt;Coeq_Coeq_rec_beta_cglue -->
<g id="edge36" class="edge">
<title>Coeq_functor_coeq_beta_cglue&#45;&gt;Coeq_Coeq_rec_beta_cglue</title>
<path fill="none" stroke="black" d="M1599.61,-457.68C1540.67,-437.13 1437.94,-401.3 1375.04,-379.36"/>
<polygon fill="black" stroke="black" points="1375.9,-375.95 1365.31,-375.96 1373.6,-382.56 1375.9,-375.95"/>
</g>
<!-- Coeq_functor_coeq&#45;&gt;Coeq_Coeq_rec -->
<g id="edge37" class="edge">
<title>Coeq_functor_coeq&#45;&gt;Coeq_Coeq_rec</title>
<path fill="none" stroke="black" d="M1671.44,-342.73C1641.9,-325.18 1594.13,-296.8 1561.91,-277.66"/>
<polygon fill="black" stroke="black" points="1563.65,-274.62 1553.27,-272.52 1560.08,-280.64 1563.65,-274.62"/>
</g>
<!-- Coeq_functor_coeq&#45;&gt;Coeq_cglue -->
<g id="edge38" class="edge">
<title>Coeq_functor_coeq&#45;&gt;Coeq_cglue</title>
<path fill="none" stroke="black" d="M1652.66,-345.72C1582.15,-325.83 1447.35,-287.8 1380.15,-268.84"/>
<polygon fill="black" stroke="black" points="1380.93,-265.42 1370.35,-266.08 1379.03,-272.16 1380.93,-265.42"/>
</g>
<!-- Coeq_equiv_Coeq_rec -->
<g id="node25" class="node">
<title>Coeq_equiv_Coeq_rec</title>
<g id="a_node25"><a xlink:href="Coeq.html#equiv_Coeq_rec" xlink:title="equiv_Coeq_rec">
<ellipse fill="#f070d1" stroke="black" cx="259" cy="-601.51" rx="83.37" ry="18"/>
<ellipse fill="none" stroke="black" cx="259" cy="-601.51" rx="87.38" ry="22"/>
<ellipse fill="none" stroke="black" cx="259" cy="-601.51" rx="91.39" ry="26"/>
<text text-anchor="middle" x="259" y="-597.81" font-family="Times,serif" font-size="14.00">equiv_Coeq_rec</text>
</a>
</g>
</g>
<!-- Coeq_isequiv_Coeq_rec -->
<g id="node26" class="node">
<title>Coeq_isequiv_Coeq_rec</title>
<g id="a_node26"><a xlink:href="Coeq.html#isequiv_Coeq_rec" xlink:title="isequiv_Coeq_rec">
<ellipse fill="#f070d1" stroke="black" cx="896" cy="-474.51" rx="90.98" ry="18"/>
<text text-anchor="middle" x="896" y="-470.81" font-family="Times,serif" font-size="14.00">isequiv_Coeq_rec</text>
</a>
</g>
</g>
<!-- Coeq_equiv_Coeq_rec&#45;&gt;Coeq_isequiv_Coeq_rec -->
<g id="edge39" class="edge">
<title>Coeq_equiv_Coeq_rec&#45;&gt;Coeq_isequiv_Coeq_rec</title>
<path fill="none" stroke="black" d="M325.15,-583.55C336.74,-580.75 348.7,-577.96 360,-575.51 522.5,-540.27 714.34,-506.31 818.76,-488.47"/>
<polygon fill="black" stroke="black" points="819.63,-491.87 828.9,-486.74 818.45,-484.97 819.63,-491.87"/>
</g>
<!-- Coeq_Coeq_unrec -->
<g id="node27" class="node">
<title>Coeq_Coeq_unrec</title>
<g id="a_node27"><a xlink:href="Coeq.html#Coeq_unrec" xlink:title="Coeq_unrec">
<ellipse fill="#f070d1" stroke="black" cx="951" cy="-359.51" rx="64.99" ry="18"/>
<text text-anchor="middle" x="951" y="-355.81" font-family="Times,serif" font-size="14.00">Coeq_unrec</text>
</a>
</g>
</g>
<!-- Coeq_isequiv_Coeq_rec&#45;&gt;Coeq_Coeq_unrec -->
<g id="edge40" class="edge">
<title>Coeq_isequiv_Coeq_rec&#45;&gt;Coeq_Coeq_unrec</title>
<path fill="none" stroke="black" d="M904.35,-456.35C913.37,-437.82 927.84,-408.1 938.27,-386.66"/>
<polygon fill="black" stroke="black" points="941.52,-387.99 942.75,-377.47 935.22,-384.93 941.52,-387.99"/>
</g>
<!-- Coeq_isequiv_Coeq_rec&#45;&gt;Coeq_Coeq_rec_beta_cglue -->
<g id="edge41" class="edge">
<title>Coeq_isequiv_Coeq_rec&#45;&gt;Coeq_Coeq_rec_beta_cglue</title>
<path fill="none" stroke="black" d="M948.11,-459.66C1025.94,-438.96 1172.37,-400.03 1256.72,-377.6"/>
<polygon fill="black" stroke="black" points="1257.68,-380.97 1266.44,-375.02 1255.88,-374.2 1257.68,-380.97"/>
</g>
<!-- Coeq_isequiv_Coeq_rec&#45;&gt;Coeq_Coeq_ind -->
<g id="edge42" class="edge">
<title>Coeq_isequiv_Coeq_rec&#45;&gt;Coeq_Coeq_ind</title>
<path fill="none" stroke="black" d="M930.21,-457.8C975.38,-437.05 1054.77,-400.58 1102.47,-378.67"/>
<polygon fill="black" stroke="black" points="1103.94,-381.85 1111.57,-374.49 1101.02,-375.49 1103.94,-381.85"/>
</g>
<!-- Coeq_Coeq_unrec&#45;&gt;Coeq_cglue -->
<g id="edge43" class="edge">
<title>Coeq_Coeq_unrec&#45;&gt;Coeq_cglue</title>
<path fill="none" stroke="black" d="M996.77,-346.63C1073.3,-326.76 1226.05,-287.1 1299.16,-268.12"/>
<polygon fill="black" stroke="black" points="1300.13,-271.48 1308.93,-265.58 1298.37,-264.7 1300.13,-271.48"/>
</g>
<!-- Coeq_Coeq_rec_beta_cglue&#45;&gt;Coeq_Coeq_rec -->
<g id="edge44" class="edge">
<title>Coeq_Coeq_rec_beta_cglue&#45;&gt;Coeq_Coeq_rec</title>
<path fill="none" stroke="black" d="M1354.26,-342.28C1391.13,-324.29 1450.53,-295.31 1489.42,-276.34"/>
<polygon fill="black" stroke="black" points="1491.39,-279.27 1498.84,-271.74 1488.32,-272.98 1491.39,-279.27"/>
</g>
<!-- Coeq_Coeq_rec_beta_cglue&#45;&gt;Coeq_cglue -->
<g id="edge45" class="edge">
<title>Coeq_Coeq_rec_beta_cglue&#45;&gt;Coeq_cglue</title>
<path fill="none" stroke="black" d="M1324.22,-341.38C1327.14,-325.85 1331.5,-302.71 1334.89,-284.67"/>
<polygon fill="black" stroke="black" points="1338.35,-285.2 1336.76,-274.73 1331.47,-283.91 1338.35,-285.2"/>
</g>
<!-- Coeq_Coeq -->
<g id="node34" class="node">
<title>Coeq_Coeq</title>
<g id="a_node34"><a xlink:href="Coeq.html#Coeq" xlink:title="Coeq">
<ellipse fill="#f070d1" stroke="black" cx="1404" cy="-48.51" rx="34.39" ry="18"/>
<text text-anchor="middle" x="1404" y="-44.81" font-family="Times,serif" font-size="14.00">Coeq</text>
</a>
</g>
</g>
<!-- Coeq_Coeq_rec&#45;&gt;Coeq_Coeq -->
<g id="edge46" class="edge">
<title>Coeq_Coeq_rec&#45;&gt;Coeq_Coeq</title>
<path fill="none" stroke="black" d="M1517.85,-238.65C1496.08,-202.49 1444.79,-117.28 1419.15,-74.68"/>
<polygon fill="black" stroke="black" points="1422.1,-72.79 1413.94,-66.03 1416.1,-76.4 1422.1,-72.79"/>
</g>
<!-- Coeq_Coeq_ind_beta_cglue&#45;&gt;Coeq_Coeq_ind -->
<g id="edge47" class="edge">
<title>Coeq_Coeq_ind_beta_cglue&#45;&gt;Coeq_Coeq_ind</title>
<path fill="none" stroke="black" d="M510.89,-461.53C652.9,-438.8 958.44,-389.89 1085.15,-369.61"/>
<polygon fill="black" stroke="black" points="1085.72,-373.06 1095.04,-368.03 1084.61,-366.15 1085.72,-373.06"/>
</g>
<!-- Coeq_Coeq_ind&#45;&gt;Coeq_cglue -->
<g id="edge48" class="edge">
<title>Coeq_Coeq_ind&#45;&gt;Coeq_cglue</title>
<path fill="none" stroke="black" d="M1170.37,-344.04C1206.35,-325.69 1268.3,-294.08 1306.55,-274.58"/>
<polygon fill="black" stroke="black" points="1308.41,-277.55 1315.73,-269.89 1305.23,-271.32 1308.41,-277.55"/>
</g>
<!-- Coeq_coeq -->
<g id="node33" class="node">
<title>Coeq_coeq</title>
<g id="a_node33"><a xlink:href="Coeq.html#coeq" xlink:title="coeq">
<ellipse fill="#f070d1" stroke="black" cx="1379" cy="-152.51" rx="32.49" ry="18"/>
<text text-anchor="middle" x="1379" y="-148.81" font-family="Times,serif" font-size="14.00">coeq</text>
</a>
</g>
</g>
<!-- Coeq_cglue&#45;&gt;Coeq_coeq -->
<g id="edge49" class="edge">
<title>Coeq_cglue&#45;&gt;Coeq_coeq</title>
<path fill="none" stroke="black" d="M1346.44,-238.67C1352.57,-222.65 1361.87,-198.31 1368.97,-179.75"/>
<polygon fill="black" stroke="black" points="1372.25,-180.97 1372.55,-170.38 1365.71,-178.47 1372.25,-180.97"/>
</g>
<!-- Coeq_coeq&#45;&gt;Coeq_Coeq -->
<g id="edge50" class="edge">
<title>Coeq_coeq&#45;&gt;Coeq_Coeq</title>
<path fill="none" stroke="black" d="M1383.24,-134.21C1387.13,-118.36 1392.94,-94.66 1397.42,-76.35"/>
<polygon fill="black" stroke="black" points="1400.84,-77.1 1399.82,-66.56 1394.04,-75.44 1400.84,-77.1"/>
</g>
</g>
</svg>
