<?xml version="1.0" encoding="UTF-8" standalone="no"?>
<!DOCTYPE svg PUBLIC "-//W3C//DTD SVG 1.1//EN"
 "http://www.w3.org/Graphics/SVG/1.1/DTD/svg11.dtd">
<!-- Generated by graphviz version 2.43.0 (0)
 -->
<!-- Title: HoTT_Spaces_Int_LoopExp Pages: 1 -->
<svg width="1087pt" height="548pt"
 viewBox="0.00 0.00 1087.00 547.50" xmlns="http://www.w3.org/2000/svg" xmlns:xlink="http://www.w3.org/1999/xlink">
<g id="graph0" class="graph" transform="scale(1 1) rotate(0) translate(4 543.5)">
<title>HoTT_Spaces_Int_LoopExp</title>
<polygon fill="white" stroke="transparent" points="-4,4 -4,-543.5 1083,-543.5 1083,4 -4,4"/>
<g id="clust1" class="cluster">
<title>cluster_LoopExp</title>
<polygon fill="#ffffc3" stroke="black" points="8,-12.73 8,-526.77 1071,-526.77 1071,-12.73 8,-12.73"/>
<text text-anchor="middle" x="47.5" y="-511.57" font-family="Times,serif" font-size="14.00">LoopExp</text>
</g>
<!-- LoopExp_loopexp_path_universe -->
<g id="node1" class="node">
<title>LoopExp_loopexp_path_universe</title>
<g id="a_node1"><a xlink:href="LoopExp.html#loopexp_path_universe" xlink:title="loopexp_path_universe">
<ellipse fill="#f070d1" stroke="black" cx="939" cy="-435.73" rx="116.19" ry="18"/>
<ellipse fill="none" stroke="black" cx="939" cy="-435.73" rx="120.18" ry="22"/>
<ellipse fill="none" stroke="black" cx="939" cy="-435.73" rx="124.18" ry="26"/>
<text text-anchor="middle" x="939" y="-432.03" font-family="Times,serif" font-size="14.00">loopexp_path_universe</text>
</a>
</g>
</g>
<!-- LoopExp_equiv_path_loopexp -->
<g id="node2" class="node">
<title>LoopExp_equiv_path_loopexp</title>
<g id="a_node2"><a xlink:href="LoopExp.html#equiv_path_loopexp" xlink:title="equiv_path_loopexp">
<ellipse fill="#f070d1" stroke="black" cx="961" cy="-295.73" rx="102.08" ry="18"/>
<text text-anchor="middle" x="961" y="-292.03" font-family="Times,serif" font-size="14.00">equiv_path_loopexp</text>
</a>
</g>
</g>
<!-- LoopExp_loopexp_path_universe&#45;&gt;LoopExp_equiv_path_loopexp -->
<g id="edge1" class="edge">
<title>LoopExp_loopexp_path_universe&#45;&gt;LoopExp_equiv_path_loopexp</title>
<path fill="none" stroke="black" d="M942.98,-409.74C946.84,-385.55 952.67,-348.96 956.65,-324.02"/>
<polygon fill="black" stroke="black" points="960.11,-324.54 958.23,-314.11 953.2,-323.44 960.11,-324.54"/>
</g>
<!-- LoopExp_loopexp -->
<g id="node11" class="node">
<title>LoopExp_loopexp</title>
<g id="a_node11"><a xlink:href="LoopExp.html#loopexp" xlink:title="loopexp">
<ellipse fill="#f070d1" stroke="black" cx="659" cy="-168.73" rx="46.59" ry="18"/>
<text text-anchor="middle" x="659" y="-165.03" font-family="Times,serif" font-size="14.00">loopexp</text>
</a>
</g>
</g>
<!-- LoopExp_equiv_path_loopexp&#45;&gt;LoopExp_loopexp -->
<g id="edge2" class="edge">
<title>LoopExp_equiv_path_loopexp&#45;&gt;LoopExp_loopexp</title>
<path fill="none" stroke="black" d="M922.75,-278.9C865.32,-255.13 757.32,-210.43 698.92,-186.26"/>
<polygon fill="black" stroke="black" points="700.23,-183.01 689.65,-182.42 697.55,-189.48 700.23,-183.01"/>
</g>
<!-- LoopExp_loopexp_add -->
<g id="node3" class="node">
<title>LoopExp_loopexp_add</title>
<g id="a_node3"><a xlink:href="LoopExp.html#loopexp_add" xlink:title="loopexp_add">
<ellipse fill="#f070d1" stroke="black" cx="482" cy="-435.73" rx="68.46" ry="18"/>
<ellipse fill="none" stroke="black" cx="482" cy="-435.73" rx="72.48" ry="22"/>
<ellipse fill="none" stroke="black" cx="482" cy="-435.73" rx="76.49" ry="26"/>
<text text-anchor="middle" x="482" y="-432.03" font-family="Times,serif" font-size="14.00">loopexp_add</text>
</a>
</g>
</g>
<!-- LoopExp_loopexp_int_pos_sub_r -->
<g id="node4" class="node">
<title>LoopExp_loopexp_int_pos_sub_r</title>
<g id="a_node4"><a xlink:href="LoopExp.html#loopexp_int_pos_sub_r" xlink:title="loopexp_int_pos_sub_r">
<ellipse fill="#f070d1" stroke="black" cx="727" cy="-295.73" rx="114.28" ry="18"/>
<text text-anchor="middle" x="727" y="-292.03" font-family="Times,serif" font-size="14.00">loopexp_int_pos_sub_r</text>
</a>
</g>
</g>
<!-- LoopExp_loopexp_add&#45;&gt;LoopExp_loopexp_int_pos_sub_r -->
<g id="edge3" class="edge">
<title>LoopExp_loopexp_add&#45;&gt;LoopExp_loopexp_int_pos_sub_r</title>
<path fill="none" stroke="black" d="M520.28,-413.17C566.33,-387.23 643.16,-343.95 689.06,-318.1"/>
<polygon fill="black" stroke="black" points="690.82,-321.13 697.81,-313.17 687.38,-315.03 690.82,-321.13"/>
</g>
<!-- LoopExp_loopexp_int_pos_sub_l -->
<g id="node5" class="node">
<title>LoopExp_loopexp_int_pos_sub_l</title>
<g id="a_node5"><a xlink:href="LoopExp.html#loopexp_int_pos_sub_l" xlink:title="loopexp_int_pos_sub_l">
<ellipse fill="#f070d1" stroke="black" cx="482" cy="-295.73" rx="112.38" ry="18"/>
<text text-anchor="middle" x="482" y="-292.03" font-family="Times,serif" font-size="14.00">loopexp_int_pos_sub_l</text>
</a>
</g>
</g>
<!-- LoopExp_loopexp_add&#45;&gt;LoopExp_loopexp_int_pos_sub_l -->
<g id="edge4" class="edge">
<title>LoopExp_loopexp_add&#45;&gt;LoopExp_loopexp_int_pos_sub_l</title>
<path fill="none" stroke="black" d="M482,-409.42C482,-385.29 482,-349.05 482,-324.22"/>
<polygon fill="black" stroke="black" points="485.5,-324.03 482,-314.03 478.5,-324.03 485.5,-324.03"/>
</g>
<!-- LoopExp_loopexp_pos_add -->
<g id="node6" class="node">
<title>LoopExp_loopexp_pos_add</title>
<g id="a_node6"><a xlink:href="LoopExp.html#loopexp_pos_add" xlink:title="loopexp_pos_add">
<ellipse fill="#f070d1" stroke="black" cx="263" cy="-295.73" rx="89.08" ry="18"/>
<text text-anchor="middle" x="263" y="-292.03" font-family="Times,serif" font-size="14.00">loopexp_pos_add</text>
</a>
</g>
</g>
<!-- LoopExp_loopexp_add&#45;&gt;LoopExp_loopexp_pos_add -->
<g id="edge5" class="edge">
<title>LoopExp_loopexp_add&#45;&gt;LoopExp_loopexp_pos_add</title>
<path fill="none" stroke="black" d="M446.81,-412.56C405.7,-386.65 338.12,-344.06 297.36,-318.38"/>
<polygon fill="black" stroke="black" points="299.17,-315.39 288.84,-313.02 295.44,-321.31 299.17,-315.39"/>
</g>
<!-- LoopExp_loopexp_pos_concat -->
<g id="node7" class="node">
<title>LoopExp_loopexp_pos_concat</title>
<g id="a_node7"><a xlink:href="LoopExp.html#loopexp_pos_concat" xlink:title="loopexp_pos_concat">
<ellipse fill="#f070d1" stroke="black" cx="492" cy="-168.73" rx="102.08" ry="18"/>
<text text-anchor="middle" x="492" y="-165.03" font-family="Times,serif" font-size="14.00">loopexp_pos_concat</text>
</a>
</g>
</g>
<!-- LoopExp_loopexp_int_pos_sub_r&#45;&gt;LoopExp_loopexp_pos_concat -->
<g id="edge6" class="edge">
<title>LoopExp_loopexp_int_pos_sub_r&#45;&gt;LoopExp_loopexp_pos_concat</title>
<path fill="none" stroke="black" d="M696.28,-278.39C654.06,-255.93 578.06,-215.51 531.61,-190.8"/>
<polygon fill="black" stroke="black" points="533.2,-187.68 522.73,-186.08 529.91,-193.86 533.2,-187.68"/>
</g>
<!-- LoopExp_loopexp_int_pos_sub_r&#45;&gt;LoopExp_loopexp -->
<g id="edge7" class="edge">
<title>LoopExp_loopexp_int_pos_sub_r&#45;&gt;LoopExp_loopexp</title>
<path fill="none" stroke="black" d="M717.69,-277.61C706.14,-256.39 686.35,-220.01 672.98,-195.43"/>
<polygon fill="black" stroke="black" points="676.05,-193.76 668.2,-186.64 669.9,-197.1 676.05,-193.76"/>
</g>
<!-- LoopExp_loopexp_int_pos_sub_l&#45;&gt;LoopExp_loopexp_pos_concat -->
<g id="edge8" class="edge">
<title>LoopExp_loopexp_int_pos_sub_l&#45;&gt;LoopExp_loopexp_pos_concat</title>
<path fill="none" stroke="black" d="M483.37,-277.61C485.03,-256.88 487.84,-221.68 489.81,-197.15"/>
<polygon fill="black" stroke="black" points="493.31,-197.29 490.61,-187.04 486.33,-196.73 493.31,-197.29"/>
</g>
<!-- LoopExp_loopexp_int_pos_sub_l&#45;&gt;LoopExp_loopexp -->
<g id="edge9" class="edge">
<title>LoopExp_loopexp_int_pos_sub_l&#45;&gt;LoopExp_loopexp</title>
<path fill="none" stroke="black" d="M505.87,-277.87C537.88,-255.27 594.7,-215.14 629.4,-190.64"/>
<polygon fill="black" stroke="black" points="631.57,-193.39 637.72,-184.76 627.53,-187.67 631.57,-193.39"/>
</g>
<!-- LoopExp_loopexp_pos_add&#45;&gt;LoopExp_loopexp_pos_concat -->
<g id="edge10" class="edge">
<title>LoopExp_loopexp_pos_add&#45;&gt;LoopExp_loopexp_pos_concat</title>
<path fill="none" stroke="black" d="M292.47,-278.65C333.49,-256.25 407.88,-215.65 453.32,-190.84"/>
<polygon fill="black" stroke="black" points="455.18,-193.82 462.28,-185.95 451.83,-187.67 455.18,-193.82"/>
</g>
<!-- LoopExp_loopexp_pos -->
<g id="node12" class="node">
<title>LoopExp_loopexp_pos</title>
<g id="a_node12"><a xlink:href="LoopExp.html#loopexp_pos" xlink:title="loopexp_pos">
<ellipse fill="#f070d1" stroke="black" cx="389" cy="-53.73" rx="67.69" ry="18"/>
<text text-anchor="middle" x="389" y="-50.03" font-family="Times,serif" font-size="14.00">loopexp_pos</text>
</a>
</g>
</g>
<!-- LoopExp_loopexp_pos_concat&#45;&gt;LoopExp_loopexp_pos -->
<g id="edge11" class="edge">
<title>LoopExp_loopexp_pos_concat&#45;&gt;LoopExp_loopexp_pos</title>
<path fill="none" stroke="black" d="M476.36,-150.57C458.91,-131.43 430.58,-100.35 410.93,-78.79"/>
<polygon fill="black" stroke="black" points="413.44,-76.35 404.12,-71.32 408.27,-81.07 413.44,-76.35"/>
</g>
<!-- LoopExp_ap_loopexp -->
<g id="node8" class="node">
<title>LoopExp_ap_loopexp</title>
<g id="a_node8"><a xlink:href="LoopExp.html#ap_loopexp" xlink:title="ap_loopexp">
<ellipse fill="#f070d1" stroke="black" cx="86" cy="-295.73" rx="62.3" ry="18"/>
<ellipse fill="none" stroke="black" cx="86" cy="-295.73" rx="66.3" ry="22"/>
<ellipse fill="none" stroke="black" cx="86" cy="-295.73" rx="70.29" ry="26"/>
<text text-anchor="middle" x="86" y="-292.03" font-family="Times,serif" font-size="14.00">ap_loopexp</text>
</a>
</g>
</g>
<!-- LoopExp_ap_loopexp_pos -->
<g id="node9" class="node">
<title>LoopExp_ap_loopexp_pos</title>
<g id="a_node9"><a xlink:href="LoopExp.html#ap_loopexp_pos" xlink:title="ap_loopexp_pos">
<ellipse fill="#f070d1" stroke="black" cx="99" cy="-168.73" rx="83.39" ry="18"/>
<text text-anchor="middle" x="99" y="-165.03" font-family="Times,serif" font-size="14.00">ap_loopexp_pos</text>
</a>
</g>
</g>
<!-- LoopExp_ap_loopexp&#45;&gt;LoopExp_ap_loopexp_pos -->
<g id="edge12" class="edge">
<title>LoopExp_ap_loopexp&#45;&gt;LoopExp_ap_loopexp_pos</title>
<path fill="none" stroke="black" d="M88.6,-269.74C90.78,-248.77 93.89,-218.87 96.14,-197.23"/>
<polygon fill="black" stroke="black" points="99.65,-197.36 97.2,-187.05 92.68,-196.63 99.65,-197.36"/>
</g>
<!-- LoopExp_loopexp_pos_inv -->
<g id="node10" class="node">
<title>LoopExp_loopexp_pos_inv</title>
<g id="a_node10"><a xlink:href="LoopExp.html#loopexp_pos_inv" xlink:title="loopexp_pos_inv">
<ellipse fill="#f070d1" stroke="black" cx="286" cy="-168.73" rx="85.59" ry="18"/>
<text text-anchor="middle" x="286" y="-165.03" font-family="Times,serif" font-size="14.00">loopexp_pos_inv</text>
</a>
</g>
</g>
<!-- LoopExp_ap_loopexp&#45;&gt;LoopExp_loopexp_pos_inv -->
<g id="edge13" class="edge">
<title>LoopExp_ap_loopexp&#45;&gt;LoopExp_loopexp_pos_inv</title>
<path fill="none" stroke="black" d="M120.84,-272.96C157.36,-250.13 214.42,-214.47 251.01,-191.6"/>
<polygon fill="black" stroke="black" points="253.22,-194.35 259.84,-186.08 249.51,-188.41 253.22,-194.35"/>
</g>
<!-- LoopExp_ap_loopexp&#45;&gt;LoopExp_loopexp -->
<g id="edge14" class="edge">
<title>LoopExp_ap_loopexp&#45;&gt;LoopExp_loopexp</title>
<path fill="none" stroke="black" d="M136.74,-277.69C146.08,-274.84 155.79,-272.05 165,-269.73 357.12,-221.31 410.6,-234.02 603,-186.73 606.78,-185.8 610.68,-184.77 614.58,-183.69"/>
<polygon fill="black" stroke="black" points="615.56,-187.05 624.21,-180.93 613.63,-180.32 615.56,-187.05"/>
</g>
<!-- LoopExp_ap_loopexp_pos&#45;&gt;LoopExp_loopexp_pos -->
<g id="edge15" class="edge">
<title>LoopExp_ap_loopexp_pos&#45;&gt;LoopExp_loopexp_pos</title>
<path fill="none" stroke="black" d="M137.51,-152.73C190.67,-132.01 286.39,-94.71 343.17,-72.59"/>
<polygon fill="black" stroke="black" points="344.57,-75.8 352.62,-68.91 342.03,-69.28 344.57,-75.8"/>
</g>
<!-- LoopExp_loopexp_pos_inv&#45;&gt;LoopExp_loopexp_pos -->
<g id="edge16" class="edge">
<title>LoopExp_loopexp_pos_inv&#45;&gt;LoopExp_loopexp_pos</title>
<path fill="none" stroke="black" d="M301.64,-150.57C319.09,-131.43 347.42,-100.35 367.07,-78.79"/>
<polygon fill="black" stroke="black" points="369.73,-81.07 373.88,-71.32 364.56,-76.35 369.73,-81.07"/>
</g>
<!-- LoopExp_loopexp&#45;&gt;LoopExp_loopexp_pos -->
<g id="edge17" class="edge">
<title>LoopExp_loopexp&#45;&gt;LoopExp_loopexp_pos</title>
<path fill="none" stroke="black" d="M628.55,-154.99C580.8,-135.01 488.1,-96.21 433.07,-73.17"/>
<polygon fill="black" stroke="black" points="434.15,-69.84 423.58,-69.2 431.45,-76.29 434.15,-69.84"/>
</g>
</g>
</svg>
