<?xml version="1.0" encoding="UTF-8" standalone="no"?>
<!DOCTYPE svg PUBLIC "-//W3C//DTD SVG 1.1//EN"
 "http://www.w3.org/Graphics/SVG/1.1/DTD/svg11.dtd">
<!-- Generated by graphviz version 2.43.0 (0)
 -->
<!-- Title: HoTT_WildCat_Monoidal Pages: 1 -->
<svg width="1262pt" height="635pt"
 viewBox="0.00 0.00 1262.00 635.00" xmlns="http://www.w3.org/2000/svg" xmlns:xlink="http://www.w3.org/1999/xlink">
<g id="graph0" class="graph" transform="scale(1 1) rotate(0) translate(4 631)">
<title>HoTT_WildCat_Monoidal</title>
<polygon fill="white" stroke="transparent" points="-4,4 -4,-631 1258,-631 1258,4 -4,4"/>
<g id="clust1" class="cluster">
<title>cluster_Monoidal</title>
<polygon fill="#ffffc3" stroke="black" points="8.53,-8 8.53,-619 1245.47,-619 1245.47,-8 8.53,-8"/>
<text text-anchor="middle" x="50.03" y="-603.8" font-family="Times,serif" font-size="14.00">Monoidal</text>
</g>
<!-- Monoidal_triangle_law -->
<g id="node1" class="node">
<title>Monoidal_triangle_law</title>
<g id="a_node1"><a xlink:href="Monoidal.html#triangle_law" xlink:title="triangle_law">
<ellipse fill="#f070d1" stroke="black" cx="1156.09" cy="-474" rx="67.68" ry="18"/>
<ellipse fill="none" stroke="black" cx="1156.09" cy="-474" rx="71.68" ry="22"/>
<ellipse fill="none" stroke="black" cx="1156.09" cy="-474" rx="75.69" ry="26"/>
<text text-anchor="middle" x="1156.09" y="-470.3" font-family="Times,serif" font-size="14.00">triangle_law</text>
</a>
</g>
</g>
<!-- Monoidal_MonoidalStructure -->
<g id="node8" class="node">
<title>Monoidal_MonoidalStructure</title>
<g id="a_node8"><a xlink:href="Monoidal.html#MonoidalStructure" xlink:title="MonoidalStructure">
<ellipse fill="#e2cdfa" stroke="black" cx="711.09" cy="-394" rx="98.58" ry="18"/>
<text text-anchor="middle" x="711.09" y="-390.3" font-family="Times,serif" font-size="14.00">MonoidalStructure</text>
</a>
</g>
</g>
<!-- Monoidal_triangle_law&#45;&gt;Monoidal_MonoidalStructure -->
<g id="edge1" class="edge">
<title>Monoidal_triangle_law&#45;&gt;Monoidal_MonoidalStructure</title>
<path fill="none" stroke="black" d="M1098.7,-457.02C1086.04,-453.78 1072.65,-450.58 1060.09,-448 972.69,-430.03 871.82,-415.36 801.07,-406.05"/>
<polygon fill="black" stroke="black" points="801.23,-402.54 790.86,-404.71 800.32,-409.48 801.23,-402.54"/>
</g>
<!-- Monoidal_pentagon_law -->
<g id="node2" class="node">
<title>Monoidal_pentagon_law</title>
<g id="a_node2"><a xlink:href="Monoidal.html#pentagon_law" xlink:title="pentagon_law">
<ellipse fill="#f070d1" stroke="black" cx="968.09" cy="-474" rx="74.96" ry="18"/>
<ellipse fill="none" stroke="black" cx="968.09" cy="-474" rx="78.98" ry="22"/>
<ellipse fill="none" stroke="black" cx="968.09" cy="-474" rx="82.99" ry="26"/>
<text text-anchor="middle" x="968.09" y="-470.3" font-family="Times,serif" font-size="14.00">pentagon_law</text>
</a>
</g>
</g>
<!-- Monoidal_pentagon_law&#45;&gt;Monoidal_MonoidalStructure -->
<g id="edge2" class="edge">
<title>Monoidal_pentagon_law&#45;&gt;Monoidal_MonoidalStructure</title>
<path fill="none" stroke="black" d="M910.09,-455.4C868.15,-442.67 811.7,-425.54 769.63,-412.77"/>
<polygon fill="black" stroke="black" points="770.39,-409.34 759.81,-409.79 768.36,-416.04 770.39,-409.34"/>
</g>
<!-- Monoidal_MonoidalStructure_sind -->
<g id="node3" class="node">
<title>Monoidal_MonoidalStructure_sind</title>
<g id="a_node3"><a xlink:href="Monoidal.html#MonoidalStructure_sind" xlink:title="MonoidalStructure_sind">
<ellipse fill="#f070d1" stroke="black" cx="435.09" cy="-474" rx="122.37" ry="18"/>
<ellipse fill="none" stroke="black" cx="435.09" cy="-474" rx="126.37" ry="22"/>
<ellipse fill="none" stroke="black" cx="435.09" cy="-474" rx="130.38" ry="26"/>
<text text-anchor="middle" x="435.09" y="-470.3" font-family="Times,serif" font-size="14.00">MonoidalStructure_sind</text>
</a>
</g>
</g>
<!-- Monoidal_Build_MonoidalStructure -->
<g id="node7" class="node">
<title>Monoidal_Build_MonoidalStructure</title>
<g id="a_node7"><a xlink:href="Monoidal.html#Build_MonoidalStructure" xlink:title="Build_MonoidalStructure">
<ellipse fill="#7faaff" stroke="black" cx="451.09" cy="-394" rx="127.28" ry="18"/>
<text text-anchor="middle" x="451.09" y="-390.3" font-family="Times,serif" font-size="14.00">Build_MonoidalStructure</text>
</a>
</g>
</g>
<!-- Monoidal_MonoidalStructure_sind&#45;&gt;Monoidal_Build_MonoidalStructure -->
<g id="edge3" class="edge">
<title>Monoidal_MonoidalStructure_sind&#45;&gt;Monoidal_Build_MonoidalStructure</title>
<path fill="none" stroke="black" d="M440.24,-447.89C441.91,-439.75 443.77,-430.68 445.47,-422.38"/>
<polygon fill="black" stroke="black" points="448.93,-422.91 447.52,-412.41 442.08,-421.5 448.93,-422.91"/>
</g>
<!-- Monoidal_MonoidalStructure_sind&#45;&gt;Monoidal_MonoidalStructure -->
<g id="edge4" class="edge">
<title>Monoidal_MonoidalStructure_sind&#45;&gt;Monoidal_MonoidalStructure</title>
<path fill="none" stroke="black" d="M507.96,-452.4C552.17,-439.91 607.95,-424.15 649.87,-412.3"/>
<polygon fill="black" stroke="black" points="651,-415.62 659.67,-409.53 649.09,-408.88 651,-415.62"/>
</g>
<!-- Monoidal_MonoidalStructure_rec -->
<g id="node4" class="node">
<title>Monoidal_MonoidalStructure_rec</title>
<g id="a_node4"><a xlink:href="Monoidal.html#MonoidalStructure_rec" xlink:title="MonoidalStructure_rec">
<ellipse fill="#f070d1" stroke="black" cx="151.09" cy="-562" rx="117.77" ry="18"/>
<ellipse fill="none" stroke="black" cx="151.09" cy="-562" rx="121.77" ry="22"/>
<ellipse fill="none" stroke="black" cx="151.09" cy="-562" rx="125.78" ry="26"/>
<text text-anchor="middle" x="151.09" y="-558.3" font-family="Times,serif" font-size="14.00">MonoidalStructure_rec</text>
</a>
</g>
</g>
<!-- Monoidal_MonoidalStructure_rect -->
<g id="node6" class="node">
<title>Monoidal_MonoidalStructure_rect</title>
<g id="a_node6"><a xlink:href="Monoidal.html#MonoidalStructure_rect" xlink:title="MonoidalStructure_rect">
<ellipse fill="#f070d1" stroke="black" cx="147.09" cy="-474" rx="121.58" ry="18"/>
<text text-anchor="middle" x="147.09" y="-470.3" font-family="Times,serif" font-size="14.00">MonoidalStructure_rect</text>
</a>
</g>
</g>
<!-- Monoidal_MonoidalStructure_rec&#45;&gt;Monoidal_MonoidalStructure_rect -->
<g id="edge5" class="edge">
<title>Monoidal_MonoidalStructure_rec&#45;&gt;Monoidal_MonoidalStructure_rect</title>
<path fill="none" stroke="black" d="M149.91,-535.66C149.42,-525.11 148.85,-512.84 148.35,-502.1"/>
<polygon fill="black" stroke="black" points="151.84,-501.83 147.88,-492 144.85,-502.16 151.84,-501.83"/>
</g>
<!-- Monoidal_MonoidalStructure_ind -->
<g id="node5" class="node">
<title>Monoidal_MonoidalStructure_ind</title>
<g id="a_node5"><a xlink:href="Monoidal.html#MonoidalStructure_ind" xlink:title="MonoidalStructure_ind">
<ellipse fill="#7fffd4" stroke="black" cx="727.09" cy="-474" rx="117.77" ry="18"/>
<ellipse fill="none" stroke="black" cx="727.09" cy="-474" rx="121.77" ry="22"/>
<ellipse fill="none" stroke="black" cx="727.09" cy="-474" rx="125.78" ry="26"/>
<text text-anchor="middle" x="727.09" y="-470.3" font-family="Times,serif" font-size="14.00">MonoidalStructure_ind</text>
</a>
</g>
</g>
<!-- Monoidal_MonoidalStructure_ind&#45;&gt;Monoidal_Build_MonoidalStructure -->
<g id="edge6" class="edge">
<title>Monoidal_MonoidalStructure_ind&#45;&gt;Monoidal_Build_MonoidalStructure</title>
<path fill="none" stroke="black" d="M654.93,-452.61C611.61,-440.36 556.97,-424.92 515.17,-413.11"/>
<polygon fill="black" stroke="black" points="515.96,-409.7 505.38,-410.34 514.05,-416.43 515.96,-409.7"/>
</g>
<!-- Monoidal_MonoidalStructure_ind&#45;&gt;Monoidal_MonoidalStructure -->
<g id="edge7" class="edge">
<title>Monoidal_MonoidalStructure_ind&#45;&gt;Monoidal_MonoidalStructure</title>
<path fill="none" stroke="black" d="M721.94,-447.89C720.27,-439.75 718.41,-430.68 716.7,-422.38"/>
<polygon fill="black" stroke="black" points="720.1,-421.5 714.66,-412.41 713.24,-422.91 720.1,-421.5"/>
</g>
<!-- Monoidal_MonoidalStructure_rect&#45;&gt;Monoidal_Build_MonoidalStructure -->
<g id="edge8" class="edge">
<title>Monoidal_MonoidalStructure_rect&#45;&gt;Monoidal_Build_MonoidalStructure</title>
<path fill="none" stroke="black" d="M204.98,-458.15C255.66,-445.14 329.35,-426.23 382.88,-412.5"/>
<polygon fill="black" stroke="black" points="383.81,-415.87 392.63,-410 382.07,-409.09 383.81,-415.87"/>
</g>
<!-- Monoidal_MonoidalStructure_rect&#45;&gt;Monoidal_MonoidalStructure -->
<g id="edge9" class="edge">
<title>Monoidal_MonoidalStructure_rect&#45;&gt;Monoidal_MonoidalStructure</title>
<path fill="none" stroke="black" d="M222.02,-459.78C245.68,-455.78 271.95,-451.52 296.09,-448 425.04,-429.21 457.86,-428.85 587.09,-412 599.33,-410.4 612.24,-408.68 624.93,-406.96"/>
<polygon fill="black" stroke="black" points="625.6,-410.4 635.04,-405.59 624.66,-403.47 625.6,-410.4"/>
</g>
<!-- Monoidal_TriangleLaw -->
<g id="node9" class="node">
<title>Monoidal_TriangleLaw</title>
<g id="a_node9"><a xlink:href="Monoidal.html#TriangleLaw" xlink:title="TriangleLaw">
<ellipse fill="#f070d1" stroke="black" cx="666.09" cy="-322" rx="68.49" ry="18"/>
<text text-anchor="middle" x="666.09" y="-318.3" font-family="Times,serif" font-size="14.00">TriangleLaw</text>
</a>
</g>
</g>
<!-- Monoidal_Build_MonoidalStructure&#45;&gt;Monoidal_TriangleLaw -->
<g id="edge10" class="edge">
<title>Monoidal_Build_MonoidalStructure&#45;&gt;Monoidal_TriangleLaw</title>
<path fill="none" stroke="black" d="M499.34,-377.29C533.85,-366.05 580.22,-350.96 615.3,-339.54"/>
<polygon fill="black" stroke="black" points="616.45,-342.84 624.87,-336.42 614.28,-336.19 616.45,-342.84"/>
</g>
<!-- Monoidal_PentagonLaw -->
<g id="node14" class="node">
<title>Monoidal_PentagonLaw</title>
<g id="a_node14"><a xlink:href="Monoidal.html#PentagonLaw" xlink:title="PentagonLaw">
<ellipse fill="#f070d1" stroke="black" cx="496.09" cy="-322" rx="73.39" ry="18"/>
<text text-anchor="middle" x="496.09" y="-318.3" font-family="Times,serif" font-size="14.00">PentagonLaw</text>
</a>
</g>
</g>
<!-- Monoidal_Build_MonoidalStructure&#45;&gt;Monoidal_PentagonLaw -->
<g id="edge11" class="edge">
<title>Monoidal_Build_MonoidalStructure&#45;&gt;Monoidal_PentagonLaw</title>
<path fill="none" stroke="black" d="M461.98,-376.05C467.21,-367.92 473.59,-358 479.41,-348.94"/>
<polygon fill="black" stroke="black" points="482.52,-350.58 484.98,-340.28 476.63,-346.79 482.52,-350.58"/>
</g>
<!-- Monoidal_MonoidalStructure&#45;&gt;Monoidal_TriangleLaw -->
<g id="edge12" class="edge">
<title>Monoidal_MonoidalStructure&#45;&gt;Monoidal_TriangleLaw</title>
<path fill="none" stroke="black" d="M700.19,-376.05C694.83,-367.71 688.26,-357.49 682.32,-348.25"/>
<polygon fill="black" stroke="black" points="685.23,-346.31 676.88,-339.79 679.34,-350.09 685.23,-346.31"/>
</g>
<!-- Monoidal_MonoidalStructure&#45;&gt;Monoidal_PentagonLaw -->
<g id="edge13" class="edge">
<title>Monoidal_MonoidalStructure&#45;&gt;Monoidal_PentagonLaw</title>
<path fill="none" stroke="black" d="M664.96,-377.98C630.68,-366.82 583.86,-351.58 548.22,-339.97"/>
<polygon fill="black" stroke="black" points="549.08,-336.57 538.48,-336.8 546.91,-343.23 549.08,-336.57"/>
</g>
<!-- Monoidal_right_unitor -->
<g id="node10" class="node">
<title>Monoidal_right_unitor</title>
<g id="a_node10"><a xlink:href="Monoidal.html#right_unitor" xlink:title="right_unitor">
<ellipse fill="#f070d1" stroke="black" cx="816.09" cy="-250" rx="66.09" ry="18"/>
<text text-anchor="middle" x="816.09" y="-246.3" font-family="Times,serif" font-size="14.00">right_unitor</text>
</a>
</g>
</g>
<!-- Monoidal_TriangleLaw&#45;&gt;Monoidal_right_unitor -->
<g id="edge14" class="edge">
<title>Monoidal_TriangleLaw&#45;&gt;Monoidal_right_unitor</title>
<path fill="none" stroke="black" d="M698.27,-305.98C720.68,-295.52 750.78,-281.48 774.94,-270.2"/>
<polygon fill="black" stroke="black" points="776.64,-273.27 784.22,-265.87 773.68,-266.93 776.64,-273.27"/>
</g>
<!-- Monoidal_left_unitor -->
<g id="node12" class="node">
<title>Monoidal_left_unitor</title>
<g id="a_node12"><a xlink:href="Monoidal.html#left_unitor" xlink:title="left_unitor">
<ellipse fill="#f070d1" stroke="black" cx="663.09" cy="-250" rx="59.29" ry="18"/>
<text text-anchor="middle" x="663.09" y="-246.3" font-family="Times,serif" font-size="14.00">left_unitor</text>
</a>
</g>
</g>
<!-- Monoidal_TriangleLaw&#45;&gt;Monoidal_left_unitor -->
<g id="edge15" class="edge">
<title>Monoidal_TriangleLaw&#45;&gt;Monoidal_left_unitor</title>
<path fill="none" stroke="black" d="M665.35,-303.7C665.01,-295.98 664.62,-286.71 664.25,-278.11"/>
<polygon fill="black" stroke="black" points="667.74,-277.95 663.82,-268.1 660.75,-278.25 667.74,-277.95"/>
</g>
<!-- Monoidal_Associator -->
<g id="node16" class="node">
<title>Monoidal_Associator</title>
<g id="a_node16"><a xlink:href="Monoidal.html#Associator" xlink:title="Associator">
<ellipse fill="#f070d1" stroke="black" cx="511.09" cy="-178" rx="59.29" ry="18"/>
<text text-anchor="middle" x="511.09" y="-174.3" font-family="Times,serif" font-size="14.00">Associator</text>
</a>
</g>
</g>
<!-- Monoidal_TriangleLaw&#45;&gt;Monoidal_Associator -->
<g id="edge16" class="edge">
<title>Monoidal_TriangleLaw&#45;&gt;Monoidal_Associator</title>
<path fill="none" stroke="black" d="M642.6,-305.02C628.37,-294.97 610.13,-281.4 595.09,-268 572.15,-247.56 548.32,-221.82 531.93,-203.28"/>
<polygon fill="black" stroke="black" points="534.39,-200.78 525.17,-195.57 529.13,-205.39 534.39,-200.78"/>
</g>
<!-- Monoidal_RightUnitor -->
<g id="node11" class="node">
<title>Monoidal_RightUnitor</title>
<g id="a_node11"><a xlink:href="Monoidal.html#RightUnitor" xlink:title="RightUnitor">
<ellipse fill="#f070d1" stroke="black" cx="817.09" cy="-178" rx="66.09" ry="18"/>
<text text-anchor="middle" x="817.09" y="-174.3" font-family="Times,serif" font-size="14.00">RightUnitor</text>
</a>
</g>
</g>
<!-- Monoidal_right_unitor&#45;&gt;Monoidal_RightUnitor -->
<g id="edge17" class="edge">
<title>Monoidal_right_unitor&#45;&gt;Monoidal_RightUnitor</title>
<path fill="none" stroke="black" d="M816.33,-231.7C816.44,-223.98 816.58,-214.71 816.7,-206.11"/>
<polygon fill="black" stroke="black" points="820.2,-206.15 816.84,-196.1 813.2,-206.05 820.2,-206.15"/>
</g>
<!-- Monoidal_LeftUnitor -->
<g id="node13" class="node">
<title>Monoidal_LeftUnitor</title>
<g id="a_node13"><a xlink:href="Monoidal.html#LeftUnitor" xlink:title="LeftUnitor">
<ellipse fill="#f070d1" stroke="black" cx="663.09" cy="-178" rx="59.59" ry="18"/>
<text text-anchor="middle" x="663.09" y="-174.3" font-family="Times,serif" font-size="14.00">LeftUnitor</text>
</a>
</g>
</g>
<!-- Monoidal_left_unitor&#45;&gt;Monoidal_LeftUnitor -->
<g id="edge18" class="edge">
<title>Monoidal_left_unitor&#45;&gt;Monoidal_LeftUnitor</title>
<path fill="none" stroke="black" d="M663.09,-231.7C663.09,-223.98 663.09,-214.71 663.09,-206.11"/>
<polygon fill="black" stroke="black" points="666.59,-206.1 663.09,-196.1 659.59,-206.1 666.59,-206.1"/>
</g>
<!-- Monoidal_assoc -->
<g id="node15" class="node">
<title>Monoidal_assoc</title>
<g id="a_node15"><a xlink:href="Monoidal.html#assoc" xlink:title="assoc">
<ellipse fill="#f070d1" stroke="black" cx="499.09" cy="-250" rx="36.29" ry="18"/>
<text text-anchor="middle" x="499.09" y="-246.3" font-family="Times,serif" font-size="14.00">assoc</text>
</a>
</g>
</g>
<!-- Monoidal_PentagonLaw&#45;&gt;Monoidal_assoc -->
<g id="edge19" class="edge">
<title>Monoidal_PentagonLaw&#45;&gt;Monoidal_assoc</title>
<path fill="none" stroke="black" d="M496.83,-303.7C497.16,-295.98 497.56,-286.71 497.92,-278.11"/>
<polygon fill="black" stroke="black" points="501.42,-278.25 498.35,-268.1 494.43,-277.95 501.42,-278.25"/>
</g>
<!-- Monoidal_assoc&#45;&gt;Monoidal_Associator -->
<g id="edge20" class="edge">
<title>Monoidal_assoc&#45;&gt;Monoidal_Associator</title>
<path fill="none" stroke="black" d="M501.99,-232.05C503.31,-224.35 504.91,-215.03 506.4,-206.36"/>
<polygon fill="black" stroke="black" points="509.89,-206.72 508.13,-196.28 502.99,-205.54 509.89,-206.72"/>
</g>
<!-- Monoidal_Is0Functor_left_assoc -->
<g id="node17" class="node">
<title>Monoidal_Is0Functor_left_assoc</title>
<g id="a_node17"><a xlink:href="Monoidal.html#Is0Functor_left_assoc" xlink:title="Is0Functor_left_assoc">
<ellipse fill="#f070d1" stroke="black" cx="380.09" cy="-106" rx="111.28" ry="18"/>
<text text-anchor="middle" x="380.09" y="-102.3" font-family="Times,serif" font-size="14.00">Is0Functor_left_assoc</text>
</a>
</g>
</g>
<!-- Monoidal_Associator&#45;&gt;Monoidal_Is0Functor_left_assoc -->
<g id="edge21" class="edge">
<title>Monoidal_Associator&#45;&gt;Monoidal_Is0Functor_left_assoc</title>
<path fill="none" stroke="black" d="M482.98,-161.98C464.6,-152.16 440.3,-139.18 419.94,-128.29"/>
<polygon fill="black" stroke="black" points="421.36,-125.09 410.89,-123.46 418.06,-131.26 421.36,-125.09"/>
</g>
<!-- Monoidal_Is0Functor_right_assoc -->
<g id="node18" class="node">
<title>Monoidal_Is0Functor_right_assoc</title>
<g id="a_node18"><a xlink:href="Monoidal.html#Is0Functor_right_assoc" xlink:title="Is0Functor_right_assoc">
<ellipse fill="#f070d1" stroke="black" cx="643.09" cy="-106" rx="118.08" ry="18"/>
<text text-anchor="middle" x="643.09" y="-102.3" font-family="Times,serif" font-size="14.00">Is0Functor_right_assoc</text>
</a>
</g>
</g>
<!-- Monoidal_Associator&#45;&gt;Monoidal_Is0Functor_right_assoc -->
<g id="edge22" class="edge">
<title>Monoidal_Associator&#45;&gt;Monoidal_Is0Functor_right_assoc</title>
<path fill="none" stroke="black" d="M539.4,-161.98C558.01,-152.11 582.63,-139.06 603.21,-128.15"/>
<polygon fill="black" stroke="black" points="604.85,-131.24 612.05,-123.46 601.57,-125.05 604.85,-131.24"/>
</g>
<!-- Monoidal_left_assoc -->
<g id="node20" class="node">
<title>Monoidal_left_assoc</title>
<g id="a_node20"><a xlink:href="Monoidal.html#left_assoc" xlink:title="left_assoc">
<ellipse fill="#f070d1" stroke="black" cx="380.09" cy="-34" rx="55.79" ry="18"/>
<text text-anchor="middle" x="380.09" y="-30.3" font-family="Times,serif" font-size="14.00">left_assoc</text>
</a>
</g>
</g>
<!-- Monoidal_Is0Functor_left_assoc&#45;&gt;Monoidal_left_assoc -->
<g id="edge23" class="edge">
<title>Monoidal_Is0Functor_left_assoc&#45;&gt;Monoidal_left_assoc</title>
<path fill="none" stroke="black" d="M380.09,-87.7C380.09,-79.98 380.09,-70.71 380.09,-62.11"/>
<polygon fill="black" stroke="black" points="383.59,-62.1 380.09,-52.1 376.59,-62.1 383.59,-62.1"/>
</g>
<!-- Monoidal_right_assoc -->
<g id="node19" class="node">
<title>Monoidal_right_assoc</title>
<g id="a_node19"><a xlink:href="Monoidal.html#right_assoc" xlink:title="right_assoc">
<ellipse fill="#f070d1" stroke="black" cx="643.09" cy="-34" rx="63.89" ry="18"/>
<text text-anchor="middle" x="643.09" y="-30.3" font-family="Times,serif" font-size="14.00">right_assoc</text>
</a>
</g>
</g>
<!-- Monoidal_Is0Functor_right_assoc&#45;&gt;Monoidal_right_assoc -->
<g id="edge24" class="edge">
<title>Monoidal_Is0Functor_right_assoc&#45;&gt;Monoidal_right_assoc</title>
<path fill="none" stroke="black" d="M643.09,-87.7C643.09,-79.98 643.09,-70.71 643.09,-62.11"/>
<polygon fill="black" stroke="black" points="646.59,-62.1 643.09,-52.1 639.59,-62.1 646.59,-62.1"/>
</g>
</g>
</svg>
