<?xml version="1.0" encoding="UTF-8" standalone="no"?>
<!DOCTYPE svg PUBLIC "-//W3C//DTD SVG 1.1//EN"
 "http://www.w3.org/Graphics/SVG/1.1/DTD/svg11.dtd">
<!-- Generated by graphviz version 2.43.0 (0)
 -->
<!-- Title: HoTT_Spaces_BinInt_LoopExp Pages: 1 -->
<svg width="1146pt" height="577pt"
 viewBox="0.00 0.00 1146.00 577.00" xmlns="http://www.w3.org/2000/svg" xmlns:xlink="http://www.w3.org/1999/xlink">
<g id="graph0" class="graph" transform="scale(1 1) rotate(0) translate(4 573)">
<title>HoTT_Spaces_BinInt_LoopExp</title>
<polygon fill="white" stroke="transparent" points="-4,4 -4,-573 1142,-573 1142,4 -4,4"/>
<g id="clust1" class="cluster">
<title>cluster_LoopExp</title>
<polygon fill="#ffffc3" stroke="black" points="8,-13.43 8,-555.57 1130,-555.57 1130,-13.43 8,-13.43"/>
<text text-anchor="middle" x="47.5" y="-540.37" font-family="Times,serif" font-size="14.00">LoopExp</text>
</g>
<!-- LoopExp_loopexp_path_universe -->
<g id="node1" class="node">
<title>LoopExp_loopexp_path_universe</title>
<g id="a_node1"><a xlink:href="LoopExp.html#loopexp_path_universe" xlink:title="loopexp_path_universe">
<ellipse fill="#f070d1" stroke="black" cx="998" cy="-459.43" rx="116.19" ry="18"/>
<ellipse fill="none" stroke="black" cx="998" cy="-459.43" rx="120.18" ry="22"/>
<ellipse fill="none" stroke="black" cx="998" cy="-459.43" rx="124.18" ry="26"/>
<text text-anchor="middle" x="998" y="-455.73" font-family="Times,serif" font-size="14.00">loopexp_path_universe</text>
</a>
</g>
</g>
<!-- LoopExp_equiv_path_loopexp -->
<g id="node2" class="node">
<title>LoopExp_equiv_path_loopexp</title>
<g id="a_node2"><a xlink:href="LoopExp.html#equiv_path_loopexp" xlink:title="equiv_path_loopexp">
<ellipse fill="#f070d1" stroke="black" cx="1020" cy="-312.43" rx="102.08" ry="18"/>
<text text-anchor="middle" x="1020" y="-308.73" font-family="Times,serif" font-size="14.00">equiv_path_loopexp</text>
</a>
</g>
</g>
<!-- LoopExp_loopexp_path_universe&#45;&gt;LoopExp_equiv_path_loopexp -->
<g id="edge1" class="edge">
<title>LoopExp_loopexp_path_universe&#45;&gt;LoopExp_equiv_path_loopexp</title>
<path fill="none" stroke="black" d="M1001.83,-433.17C1005.75,-407.35 1011.81,-367.38 1015.84,-340.82"/>
<polygon fill="black" stroke="black" points="1019.34,-341.09 1017.38,-330.68 1012.42,-340.04 1019.34,-341.09"/>
</g>
<!-- LoopExp_loopexp -->
<g id="node11" class="node">
<title>LoopExp_loopexp</title>
<g id="a_node11"><a xlink:href="LoopExp.html#loopexp" xlink:title="loopexp">
<ellipse fill="#f070d1" stroke="black" cx="659" cy="-177.43" rx="46.59" ry="18"/>
<text text-anchor="middle" x="659" y="-173.73" font-family="Times,serif" font-size="14.00">loopexp</text>
</a>
</g>
</g>
<!-- LoopExp_equiv_path_loopexp&#45;&gt;LoopExp_loopexp -->
<g id="edge2" class="edge">
<title>LoopExp_equiv_path_loopexp&#45;&gt;LoopExp_loopexp</title>
<path fill="none" stroke="black" d="M977.88,-295.91C908.48,-270.34 770.86,-219.64 701.32,-194.02"/>
<polygon fill="black" stroke="black" points="702.17,-190.6 691.58,-190.43 699.75,-197.17 702.17,-190.6"/>
</g>
<!-- LoopExp_loopexp_add -->
<g id="node3" class="node">
<title>LoopExp_loopexp_add</title>
<g id="a_node3"><a xlink:href="LoopExp.html#loopexp_add" xlink:title="loopexp_add">
<ellipse fill="#f070d1" stroke="black" cx="497" cy="-459.43" rx="68.46" ry="18"/>
<ellipse fill="none" stroke="black" cx="497" cy="-459.43" rx="72.48" ry="22"/>
<ellipse fill="none" stroke="black" cx="497" cy="-459.43" rx="76.49" ry="26"/>
<text text-anchor="middle" x="497" y="-455.73" font-family="Times,serif" font-size="14.00">loopexp_add</text>
</a>
</g>
</g>
<!-- LoopExp_loopexp_binint_pos_sub_r -->
<g id="node4" class="node">
<title>LoopExp_loopexp_binint_pos_sub_r</title>
<g id="a_node4"><a xlink:href="LoopExp.html#loopexp_binint_pos_sub_r" xlink:title="loopexp_binint_pos_sub_r">
<ellipse fill="#f070d1" stroke="black" cx="771" cy="-312.43" rx="128.88" ry="18"/>
<text text-anchor="middle" x="771" y="-308.73" font-family="Times,serif" font-size="14.00">loopexp_binint_pos_sub_r</text>
</a>
</g>
</g>
<!-- LoopExp_loopexp_add&#45;&gt;LoopExp_loopexp_binint_pos_sub_r -->
<g id="edge3" class="edge">
<title>LoopExp_loopexp_add&#45;&gt;LoopExp_loopexp_binint_pos_sub_r</title>
<path fill="none" stroke="black" d="M537.14,-437.19C589.02,-409.73 678.85,-362.19 730.78,-334.71"/>
<polygon fill="black" stroke="black" points="732.5,-337.76 739.7,-329.99 729.23,-331.57 732.5,-337.76"/>
</g>
<!-- LoopExp_loopexp_binint_pos_sub_l -->
<g id="node5" class="node">
<title>LoopExp_loopexp_binint_pos_sub_l</title>
<g id="a_node5"><a xlink:href="LoopExp.html#loopexp_binint_pos_sub_l" xlink:title="loopexp_binint_pos_sub_l">
<ellipse fill="#f070d1" stroke="black" cx="497" cy="-312.43" rx="127.28" ry="18"/>
<text text-anchor="middle" x="497" y="-308.73" font-family="Times,serif" font-size="14.00">loopexp_binint_pos_sub_l</text>
</a>
</g>
</g>
<!-- LoopExp_loopexp_add&#45;&gt;LoopExp_loopexp_binint_pos_sub_l -->
<g id="edge4" class="edge">
<title>LoopExp_loopexp_add&#45;&gt;LoopExp_loopexp_binint_pos_sub_l</title>
<path fill="none" stroke="black" d="M497,-433.17C497,-407.35 497,-367.38 497,-340.82"/>
<polygon fill="black" stroke="black" points="500.5,-340.68 497,-330.68 493.5,-340.68 500.5,-340.68"/>
</g>
<!-- LoopExp_loopexp_pos_add -->
<g id="node6" class="node">
<title>LoopExp_loopexp_pos_add</title>
<g id="a_node6"><a xlink:href="LoopExp.html#loopexp_pos_add" xlink:title="loopexp_pos_add">
<ellipse fill="#f070d1" stroke="black" cx="263" cy="-312.43" rx="89.08" ry="18"/>
<text text-anchor="middle" x="263" y="-308.73" font-family="Times,serif" font-size="14.00">loopexp_pos_add</text>
</a>
</g>
</g>
<!-- LoopExp_loopexp_add&#45;&gt;LoopExp_loopexp_pos_add -->
<g id="edge5" class="edge">
<title>LoopExp_loopexp_add&#45;&gt;LoopExp_loopexp_pos_add</title>
<path fill="none" stroke="black" d="M461.46,-436.41C417.2,-408.98 342.08,-362.43 298.05,-335.15"/>
<polygon fill="black" stroke="black" points="299.76,-332.09 289.41,-329.79 296.07,-338.04 299.76,-332.09"/>
</g>
<!-- LoopExp_loopexp_pos_concat -->
<g id="node7" class="node">
<title>LoopExp_loopexp_pos_concat</title>
<g id="a_node7"><a xlink:href="LoopExp.html#loopexp_pos_concat" xlink:title="loopexp_pos_concat">
<ellipse fill="#f070d1" stroke="black" cx="492" cy="-177.43" rx="102.08" ry="18"/>
<text text-anchor="middle" x="492" y="-173.73" font-family="Times,serif" font-size="14.00">loopexp_pos_concat</text>
</a>
</g>
</g>
<!-- LoopExp_loopexp_binint_pos_sub_r&#45;&gt;LoopExp_loopexp_pos_concat -->
<g id="edge6" class="edge">
<title>LoopExp_loopexp_binint_pos_sub_r&#45;&gt;LoopExp_loopexp_pos_concat</title>
<path fill="none" stroke="black" d="M736.51,-294.99C685.65,-270.74 590.6,-225.43 535.18,-199.01"/>
<polygon fill="black" stroke="black" points="536.51,-195.77 525.98,-194.62 533.5,-202.09 536.51,-195.77"/>
</g>
<!-- LoopExp_loopexp_binint_pos_sub_r&#45;&gt;LoopExp_loopexp -->
<g id="edge7" class="edge">
<title>LoopExp_loopexp_binint_pos_sub_r&#45;&gt;LoopExp_loopexp</title>
<path fill="none" stroke="black" d="M756.59,-294.31C736.88,-270.91 701.44,-228.83 679.13,-202.33"/>
<polygon fill="black" stroke="black" points="681.77,-200.04 672.66,-194.64 676.42,-204.55 681.77,-200.04"/>
</g>
<!-- LoopExp_loopexp_binint_pos_sub_l&#45;&gt;LoopExp_loopexp_pos_concat -->
<g id="edge8" class="edge">
<title>LoopExp_loopexp_binint_pos_sub_l&#45;&gt;LoopExp_loopexp_pos_concat</title>
<path fill="none" stroke="black" d="M496.36,-294.31C495.51,-271.87 494.02,-232.23 493.02,-205.64"/>
<polygon fill="black" stroke="black" points="496.51,-205.34 492.64,-195.48 489.52,-205.6 496.51,-205.34"/>
</g>
<!-- LoopExp_loopexp_binint_pos_sub_l&#45;&gt;LoopExp_loopexp -->
<g id="edge9" class="edge">
<title>LoopExp_loopexp_binint_pos_sub_l&#45;&gt;LoopExp_loopexp</title>
<path fill="none" stroke="black" d="M517.52,-294.58C546.44,-270.84 599.25,-227.48 631.53,-200.98"/>
<polygon fill="black" stroke="black" points="634.15,-203.36 639.66,-194.31 629.71,-197.95 634.15,-203.36"/>
</g>
<!-- LoopExp_loopexp_pos_add&#45;&gt;LoopExp_loopexp_pos_concat -->
<g id="edge10" class="edge">
<title>LoopExp_loopexp_pos_add&#45;&gt;LoopExp_loopexp_pos_concat</title>
<path fill="none" stroke="black" d="M291.08,-295.12C332.28,-271.19 409.19,-226.52 454.97,-199.94"/>
<polygon fill="black" stroke="black" points="456.8,-202.92 463.69,-194.87 453.29,-196.87 456.8,-202.92"/>
</g>
<!-- LoopExp_loopexp_pos -->
<g id="node12" class="node">
<title>LoopExp_loopexp_pos</title>
<g id="a_node12"><a xlink:href="LoopExp.html#loopexp_pos" xlink:title="loopexp_pos">
<ellipse fill="#f070d1" stroke="black" cx="389" cy="-57.43" rx="67.69" ry="18"/>
<text text-anchor="middle" x="389" y="-53.73" font-family="Times,serif" font-size="14.00">loopexp_pos</text>
</a>
</g>
</g>
<!-- LoopExp_loopexp_pos_concat&#45;&gt;LoopExp_loopexp_pos -->
<g id="edge11" class="edge">
<title>LoopExp_loopexp_pos_concat&#45;&gt;LoopExp_loopexp_pos</title>
<path fill="none" stroke="black" d="M477.24,-159.52C459.73,-139.46 430.38,-105.84 410.38,-82.92"/>
<polygon fill="black" stroke="black" points="412.94,-80.53 403.73,-75.3 407.67,-85.14 412.94,-80.53"/>
</g>
<!-- LoopExp_ap_loopexp -->
<g id="node8" class="node">
<title>LoopExp_ap_loopexp</title>
<g id="a_node8"><a xlink:href="LoopExp.html#ap_loopexp" xlink:title="ap_loopexp">
<ellipse fill="#f070d1" stroke="black" cx="86" cy="-312.43" rx="62.3" ry="18"/>
<ellipse fill="none" stroke="black" cx="86" cy="-312.43" rx="66.3" ry="22"/>
<ellipse fill="none" stroke="black" cx="86" cy="-312.43" rx="70.29" ry="26"/>
<text text-anchor="middle" x="86" y="-308.73" font-family="Times,serif" font-size="14.00">ap_loopexp</text>
</a>
</g>
</g>
<!-- LoopExp_ap_loopexp_pos -->
<g id="node9" class="node">
<title>LoopExp_ap_loopexp_pos</title>
<g id="a_node9"><a xlink:href="LoopExp.html#ap_loopexp_pos" xlink:title="ap_loopexp_pos">
<ellipse fill="#f070d1" stroke="black" cx="99" cy="-177.43" rx="83.39" ry="18"/>
<text text-anchor="middle" x="99" y="-173.73" font-family="Times,serif" font-size="14.00">ap_loopexp_pos</text>
</a>
</g>
</g>
<!-- LoopExp_ap_loopexp&#45;&gt;LoopExp_ap_loopexp_pos -->
<g id="edge12" class="edge">
<title>LoopExp_ap_loopexp&#45;&gt;LoopExp_ap_loopexp_pos</title>
<path fill="none" stroke="black" d="M88.45,-286.41C90.69,-263.44 94.01,-229.48 96.33,-205.79"/>
<polygon fill="black" stroke="black" points="99.82,-206.01 97.31,-195.71 92.85,-205.32 99.82,-206.01"/>
</g>
<!-- LoopExp_loopexp_pos_inv -->
<g id="node10" class="node">
<title>LoopExp_loopexp_pos_inv</title>
<g id="a_node10"><a xlink:href="LoopExp.html#loopexp_pos_inv" xlink:title="loopexp_pos_inv">
<ellipse fill="#f070d1" stroke="black" cx="286" cy="-177.43" rx="85.59" ry="18"/>
<text text-anchor="middle" x="286" y="-173.73" font-family="Times,serif" font-size="14.00">loopexp_pos_inv</text>
</a>
</g>
</g>
<!-- LoopExp_ap_loopexp&#45;&gt;LoopExp_loopexp_pos_inv -->
<g id="edge13" class="edge">
<title>LoopExp_ap_loopexp&#45;&gt;LoopExp_loopexp_pos_inv</title>
<path fill="none" stroke="black" d="M119.03,-289.47C156.11,-264.81 215.92,-225.03 252.99,-200.38"/>
<polygon fill="black" stroke="black" points="255.06,-203.21 261.45,-194.75 251.18,-197.38 255.06,-203.21"/>
</g>
<!-- LoopExp_ap_loopexp&#45;&gt;LoopExp_loopexp -->
<g id="edge14" class="edge">
<title>LoopExp_ap_loopexp&#45;&gt;LoopExp_loopexp</title>
<path fill="none" stroke="black" d="M137.2,-294.39C146.41,-291.57 155.95,-288.79 165,-286.43 357.36,-236.15 410.35,-244.58 603,-195.43 606.77,-194.47 610.66,-193.41 614.56,-192.31"/>
<polygon fill="black" stroke="black" points="615.55,-195.67 624.19,-189.53 613.61,-188.95 615.55,-195.67"/>
</g>
<!-- LoopExp_ap_loopexp_pos&#45;&gt;LoopExp_loopexp_pos -->
<g id="edge15" class="edge">
<title>LoopExp_ap_loopexp_pos&#45;&gt;LoopExp_loopexp_pos</title>
<path fill="none" stroke="black" d="M136.32,-161.24C189.54,-139.59 287.09,-99.9 344.16,-76.67"/>
<polygon fill="black" stroke="black" points="345.7,-79.83 353.64,-72.82 343.06,-73.34 345.7,-79.83"/>
</g>
<!-- LoopExp_loopexp_pos_inv&#45;&gt;LoopExp_loopexp_pos -->
<g id="edge16" class="edge">
<title>LoopExp_loopexp_pos_inv&#45;&gt;LoopExp_loopexp_pos</title>
<path fill="none" stroke="black" d="M300.76,-159.52C318.27,-139.46 347.62,-105.84 367.62,-82.92"/>
<polygon fill="black" stroke="black" points="370.33,-85.14 374.27,-75.3 365.06,-80.53 370.33,-85.14"/>
</g>
<!-- LoopExp_loopexp&#45;&gt;LoopExp_loopexp_pos -->
<g id="edge17" class="edge">
<title>LoopExp_loopexp&#45;&gt;LoopExp_loopexp_pos</title>
<path fill="none" stroke="black" d="M629.33,-163.46C581.52,-142.57 487.2,-101.35 432.01,-77.22"/>
<polygon fill="black" stroke="black" points="433.07,-73.87 422.51,-73.07 430.27,-80.28 433.07,-73.87"/>
</g>
</g>
</svg>
