<?xml version="1.0" encoding="UTF-8" standalone="no"?>
<!DOCTYPE svg PUBLIC "-//W3C//DTD SVG 1.1//EN"
 "http://www.w3.org/Graphics/SVG/1.1/DTD/svg11.dtd">
<!-- Generated by graphviz version 2.43.0 (0)
 -->
<!-- Title: HoTT_HIT_unique_choice Pages: 1 -->
<svg width="654pt" height="331pt"
 viewBox="0.00 0.00 654.00 331.00" xmlns="http://www.w3.org/2000/svg" xmlns:xlink="http://www.w3.org/1999/xlink">
<g id="graph0" class="graph" transform="scale(1 1) rotate(0) translate(4 327)">
<title>HoTT_HIT_unique_choice</title>
<polygon fill="white" stroke="transparent" points="-4,4 -4,-327 650,-327 650,4 -4,4"/>
<g id="clust1" class="cluster">
<title>cluster_unique_choice</title>
<polygon fill="#ffffc3" stroke="black" points="20.03,-8 20.03,-315 625.97,-315 625.97,-8 20.03,-8"/>
<text text-anchor="middle" x="78.53" y="-299.8" font-family="Times,serif" font-size="14.00">unique_choice</text>
</g>
<!-- unique_choice_unique_choice -->
<g id="node1" class="node">
<title>unique_choice_unique_choice</title>
<g id="a_node1"><a xlink:href="unique_choice.html#unique_choice" xlink:title="unique_choice">
<ellipse fill="#f070d1" stroke="black" cx="323.17" cy="-258" rx="76.08" ry="18"/>
<ellipse fill="none" stroke="black" cx="323.17" cy="-258" rx="80.08" ry="22"/>
<ellipse fill="none" stroke="black" cx="323.17" cy="-258" rx="84.09" ry="26"/>
<text text-anchor="middle" x="323.17" y="-254.3" font-family="Times,serif" font-size="14.00">unique_choice</text>
</a>
</g>
</g>
<!-- unique_choice_iota -->
<g id="node2" class="node">
<title>unique_choice_iota</title>
<g id="a_node2"><a xlink:href="unique_choice.html#iota" xlink:title="iota">
<ellipse fill="#f070d1" stroke="black" cx="323.17" cy="-178" rx="28.7" ry="18"/>
<text text-anchor="middle" x="323.17" y="-174.3" font-family="Times,serif" font-size="14.00">iota</text>
</a>
</g>
</g>
<!-- unique_choice_unique_choice&#45;&gt;unique_choice_iota -->
<g id="edge1" class="edge">
<title>unique_choice_unique_choice&#45;&gt;unique_choice_iota</title>
<path fill="none" stroke="black" d="M323.17,-231.89C323.17,-223.84 323.17,-214.88 323.17,-206.66"/>
<polygon fill="black" stroke="black" points="326.67,-206.41 323.17,-196.41 319.67,-206.41 326.67,-206.41"/>
</g>
<!-- unique_choice_atmost -->
<g id="node3" class="node">
<title>unique_choice_atmost</title>
<g id="a_node3"><a xlink:href="unique_choice.html#atmost" xlink:title="atmost">
<ellipse fill="#f070d1" stroke="black" cx="195.17" cy="-106" rx="42.79" ry="18"/>
<text text-anchor="middle" x="195.17" y="-102.3" font-family="Times,serif" font-size="14.00">atmost</text>
</a>
</g>
</g>
<!-- unique_choice_iota&#45;&gt;unique_choice_atmost -->
<g id="edge2" class="edge">
<title>unique_choice_iota&#45;&gt;unique_choice_atmost</title>
<path fill="none" stroke="black" d="M302.32,-165.6C282.56,-154.79 252.52,-138.36 229.27,-125.65"/>
<polygon fill="black" stroke="black" points="230.87,-122.53 220.41,-120.8 227.51,-128.67 230.87,-122.53"/>
</g>
<!-- unique_choice_hunique -->
<g id="node4" class="node">
<title>unique_choice_hunique</title>
<g id="a_node4"><a xlink:href="unique_choice.html#hunique" xlink:title="hunique">
<ellipse fill="#f070d1" stroke="black" cx="468.17" cy="-106" rx="48.19" ry="18"/>
<text text-anchor="middle" x="468.17" y="-102.3" font-family="Times,serif" font-size="14.00">hunique</text>
</a>
</g>
</g>
<!-- unique_choice_iota&#45;&gt;unique_choice_hunique -->
<g id="edge3" class="edge">
<title>unique_choice_iota&#45;&gt;unique_choice_hunique</title>
<path fill="none" stroke="black" d="M345.19,-166.37C367.87,-155.42 403.63,-138.16 430.76,-125.06"/>
<polygon fill="black" stroke="black" points="432.47,-128.12 439.96,-120.62 429.43,-121.82 432.47,-128.12"/>
</g>
<!-- unique_choice_atmost1P -->
<g id="node5" class="node">
<title>unique_choice_atmost1P</title>
<g id="a_node5"><a xlink:href="unique_choice.html#atmost1P" xlink:title="atmost1P">
<ellipse fill="#f070d1" stroke="black" cx="468.17" cy="-34" rx="55.49" ry="18"/>
<text text-anchor="middle" x="468.17" y="-30.3" font-family="Times,serif" font-size="14.00">atmost1P</text>
</a>
</g>
</g>
<!-- unique_choice_atmost&#45;&gt;unique_choice_atmost1P -->
<g id="edge4" class="edge">
<title>unique_choice_atmost&#45;&gt;unique_choice_atmost1P</title>
<path fill="none" stroke="black" d="M230.86,-95.85C278.21,-83.71 362.13,-62.19 416.43,-48.27"/>
<polygon fill="black" stroke="black" points="417.39,-51.63 426.21,-45.76 415.65,-44.85 417.39,-51.63"/>
</g>
<!-- unique_choice_atmost1 -->
<g id="node6" class="node">
<title>unique_choice_atmost1</title>
<g id="a_node6"><a xlink:href="unique_choice.html#atmost1" xlink:title="atmost1">
<ellipse fill="#f070d1" stroke="black" cx="163.17" cy="-34" rx="48.99" ry="18"/>
<text text-anchor="middle" x="163.17" y="-30.3" font-family="Times,serif" font-size="14.00">atmost1</text>
</a>
</g>
</g>
<!-- unique_choice_atmost&#45;&gt;unique_choice_atmost1 -->
<g id="edge5" class="edge">
<title>unique_choice_atmost&#45;&gt;unique_choice_atmost1</title>
<path fill="none" stroke="black" d="M187.42,-88.05C183.73,-79.97 179.23,-70.12 175.11,-61.11"/>
<polygon fill="black" stroke="black" points="178.19,-59.43 170.85,-51.79 171.82,-62.34 178.19,-59.43"/>
</g>
<!-- unique_choice_hunique&#45;&gt;unique_choice_atmost1P -->
<g id="edge6" class="edge">
<title>unique_choice_hunique&#45;&gt;unique_choice_atmost1P</title>
<path fill="none" stroke="black" d="M468.17,-87.7C468.17,-79.98 468.17,-70.71 468.17,-62.11"/>
<polygon fill="black" stroke="black" points="471.67,-62.1 468.17,-52.1 464.67,-62.1 471.67,-62.1"/>
</g>
</g>
</svg>
