<?xml version="1.0" encoding="UTF-8" standalone="no"?>
<!DOCTYPE svg PUBLIC "-//W3C//DTD SVG 1.1//EN"
 "http://www.w3.org/Graphics/SVG/1.1/DTD/svg11.dtd">
<!-- Generated by graphviz version 2.43.0 (0)
 -->
<!-- Title: HoTT_Truncations_Connectedness Pages: 1 -->
<svg width="3066pt" height="1537pt"
 viewBox="0.00 0.00 3066.00 1537.00" xmlns="http://www.w3.org/2000/svg" xmlns:xlink="http://www.w3.org/1999/xlink">
<g id="graph0" class="graph" transform="scale(1 1) rotate(0) translate(4 1533)">
<title>HoTT_Truncations_Connectedness</title>
<polygon fill="white" stroke="transparent" points="-4,4 -4,-1533 3062,-1533 3062,4 -4,4"/>
<g id="clust1" class="cluster">
<title>cluster_Connectedness</title>
<polygon fill="#ffffc3" stroke="black" points="8,-27.61 8,-1501.39 3050,-1501.39 3050,-27.61 8,-27.61"/>
<text text-anchor="middle" x="70.5" y="-1486.19" font-family="Times,serif" font-size="14.00">Connectedness</text>
</g>
<!-- Connectedness_wedge_incl_elim_uncurried -->
<g id="node1" class="node">
<title>Connectedness_wedge_incl_elim_uncurried</title>
<g id="a_node1"><a xlink:href="Connectedness.html#wedge_incl_elim_uncurried" xlink:title="wedge_incl_elim_uncurried">
<ellipse fill="#f070d1" stroke="black" cx="2898" cy="-1000.61" rx="135.69" ry="18"/>
<ellipse fill="none" stroke="black" cx="2898" cy="-1000.61" rx="139.68" ry="22"/>
<ellipse fill="none" stroke="black" cx="2898" cy="-1000.61" rx="143.68" ry="26"/>
<text text-anchor="middle" x="2898" y="-996.91" font-family="Times,serif" font-size="14.00">wedge_incl_elim_uncurried</text>
</a>
</g>
</g>
<!-- Connectedness_wedge_incl_elim -->
<g id="node5" class="node">
<title>Connectedness_wedge_incl_elim</title>
<g id="a_node5"><a xlink:href="Connectedness.html#wedge_incl_elim" xlink:title="wedge_incl_elim">
<ellipse fill="#f070d1" stroke="black" cx="2639" cy="-697.61" rx="86.38" ry="18"/>
<text text-anchor="middle" x="2639" y="-693.91" font-family="Times,serif" font-size="14.00">wedge_incl_elim</text>
</a>
</g>
</g>
<!-- Connectedness_wedge_incl_elim_uncurried&#45;&gt;Connectedness_wedge_incl_elim -->
<g id="edge1" class="edge">
<title>Connectedness_wedge_incl_elim_uncurried&#45;&gt;Connectedness_wedge_incl_elim</title>
<path fill="none" stroke="black" d="M2876.58,-974.72C2827.84,-918.07 2709.06,-780.03 2660.36,-723.44"/>
<polygon fill="black" stroke="black" points="2662.88,-720.99 2653.7,-715.7 2657.57,-725.56 2662.88,-720.99"/>
</g>
<!-- Connectedness_wedge_incl_comp3 -->
<g id="node2" class="node">
<title>Connectedness_wedge_incl_comp3</title>
<g id="a_node2"><a xlink:href="Connectedness.html#wedge_incl_comp3" xlink:title="wedge_incl_comp3">
<ellipse fill="#f070d1" stroke="black" cx="2937" cy="-1304.61" rx="96.7" ry="18"/>
<ellipse fill="none" stroke="black" cx="2937" cy="-1304.61" rx="100.69" ry="22"/>
<ellipse fill="none" stroke="black" cx="2937" cy="-1304.61" rx="104.68" ry="26"/>
<text text-anchor="middle" x="2937" y="-1300.91" font-family="Times,serif" font-size="14.00">wedge_incl_comp3</text>
</a>
</g>
</g>
<!-- Connectedness_wedge_incl_comp2 -->
<g id="node3" class="node">
<title>Connectedness_wedge_incl_comp2</title>
<g id="a_node3"><a xlink:href="Connectedness.html#wedge_incl_comp2" xlink:title="wedge_incl_comp2">
<ellipse fill="#f070d1" stroke="black" cx="2427" cy="-1000.61" rx="96.68" ry="18"/>
<text text-anchor="middle" x="2427" y="-996.91" font-family="Times,serif" font-size="14.00">wedge_incl_comp2</text>
</a>
</g>
</g>
<!-- Connectedness_wedge_incl_comp3&#45;&gt;Connectedness_wedge_incl_comp2 -->
<g id="edge2" class="edge">
<title>Connectedness_wedge_incl_comp3&#45;&gt;Connectedness_wedge_incl_comp2</title>
<path fill="none" stroke="black" d="M2897.83,-1280.42C2801.89,-1223.61 2556.25,-1078.15 2463.34,-1023.13"/>
<polygon fill="black" stroke="black" points="2464.96,-1020.03 2454.58,-1017.94 2461.4,-1026.05 2464.96,-1020.03"/>
</g>
<!-- Connectedness_wedge_incl_comp1 -->
<g id="node4" class="node">
<title>Connectedness_wedge_incl_comp1</title>
<g id="a_node4"><a xlink:href="Connectedness.html#wedge_incl_comp1" xlink:title="wedge_incl_comp1">
<ellipse fill="#f070d1" stroke="black" cx="2639" cy="-1000.61" rx="96.68" ry="18"/>
<text text-anchor="middle" x="2639" y="-996.91" font-family="Times,serif" font-size="14.00">wedge_incl_comp1</text>
</a>
</g>
</g>
<!-- Connectedness_wedge_incl_comp3&#45;&gt;Connectedness_wedge_incl_comp1 -->
<g id="edge3" class="edge">
<title>Connectedness_wedge_incl_comp3&#45;&gt;Connectedness_wedge_incl_comp1</title>
<path fill="none" stroke="black" d="M2912.87,-1279.15C2856.89,-1222.42 2718.74,-1082.42 2662.94,-1025.88"/>
<polygon fill="black" stroke="black" points="2665.15,-1023.13 2655.64,-1018.47 2660.17,-1028.05 2665.15,-1023.13"/>
</g>
<!-- Connectedness_wedge_incl_comp2&#45;&gt;Connectedness_wedge_incl_elim -->
<g id="edge4" class="edge">
<title>Connectedness_wedge_incl_comp2&#45;&gt;Connectedness_wedge_incl_elim</title>
<path fill="none" stroke="black" d="M2439.01,-982.57C2474.5,-932.17 2579.07,-783.7 2621.16,-723.95"/>
<polygon fill="black" stroke="black" points="2624.23,-725.66 2627.13,-715.47 2618.51,-721.63 2624.23,-725.66"/>
</g>
<!-- Connectedness_wedge_incl_comp1&#45;&gt;Connectedness_wedge_incl_elim -->
<g id="edge5" class="edge">
<title>Connectedness_wedge_incl_comp1&#45;&gt;Connectedness_wedge_incl_elim</title>
<path fill="none" stroke="black" d="M2639,-982.57C2639,-932.71 2639,-786.82 2639,-725.86"/>
<polygon fill="black" stroke="black" points="2642.5,-725.84 2639,-715.84 2635.5,-725.84 2642.5,-725.84"/>
</g>
<!-- Connectedness_isconn_wedge_incl -->
<g id="node6" class="node">
<title>Connectedness_isconn_wedge_incl</title>
<g id="a_node6"><a xlink:href="Connectedness.html#isconn_wedge_incl" xlink:title="isconn_wedge_incl">
<ellipse fill="#f070d1" stroke="black" cx="2639" cy="-393.61" rx="96.38" ry="18"/>
<text text-anchor="middle" x="2639" y="-389.91" font-family="Times,serif" font-size="14.00">isconn_wedge_incl</text>
</a>
</g>
</g>
<!-- Connectedness_wedge_incl_elim&#45;&gt;Connectedness_isconn_wedge_incl -->
<g id="edge6" class="edge">
<title>Connectedness_wedge_incl_elim&#45;&gt;Connectedness_isconn_wedge_incl</title>
<path fill="none" stroke="black" d="M2639,-679.51C2639,-629.48 2639,-483.11 2639,-421.95"/>
<polygon fill="black" stroke="black" points="2642.5,-421.9 2639,-411.9 2635.5,-421.9 2642.5,-421.9"/>
</g>
<!-- Connectedness_conn_point_incl -->
<g id="node25" class="node">
<title>Connectedness_conn_point_incl</title>
<g id="a_node25"><a xlink:href="Connectedness.html#conn_point_incl" xlink:title="conn_point_incl">
<ellipse fill="#f070d1" stroke="black" cx="2763" cy="-117.61" rx="81.79" ry="18"/>
<text text-anchor="middle" x="2763" y="-113.91" font-family="Times,serif" font-size="14.00">conn_point_incl</text>
</a>
</g>
</g>
<!-- Connectedness_isconn_wedge_incl&#45;&gt;Connectedness_conn_point_incl -->
<g id="edge7" class="edge">
<title>Connectedness_isconn_wedge_incl&#45;&gt;Connectedness_conn_point_incl</title>
<path fill="none" stroke="black" d="M2646.76,-375.47C2667.76,-329.05 2725.87,-200.66 2751.08,-144.96"/>
<polygon fill="black" stroke="black" points="2754.31,-146.3 2755.25,-135.75 2747.93,-143.41 2754.31,-146.3"/>
</g>
<!-- Connectedness_istrunc_extension_along_conn -->
<g id="node31" class="node">
<title>Connectedness_istrunc_extension_along_conn</title>
<g id="a_node31"><a xlink:href="Connectedness.html#istrunc_extension_along_conn" xlink:title="istrunc_extension_along_conn">
<ellipse fill="#f070d1" stroke="black" cx="2514" cy="-117.61" rx="148.67" ry="18"/>
<text text-anchor="middle" x="2514" y="-113.91" font-family="Times,serif" font-size="14.00">istrunc_extension_along_conn</text>
</a>
</g>
</g>
<!-- Connectedness_isconn_wedge_incl&#45;&gt;Connectedness_istrunc_extension_along_conn -->
<g id="edge8" class="edge">
<title>Connectedness_isconn_wedge_incl&#45;&gt;Connectedness_istrunc_extension_along_conn</title>
<path fill="none" stroke="black" d="M2631.18,-375.47C2610,-329.05 2551.43,-200.66 2526.02,-144.96"/>
<polygon fill="black" stroke="black" points="2529.15,-143.39 2521.82,-135.75 2522.78,-146.3 2529.15,-143.39"/>
</g>
<!-- Connectedness_isconnected_trunc -->
<g id="node7" class="node">
<title>Connectedness_isconnected_trunc</title>
<g id="a_node7"><a xlink:href="Connectedness.html#isconnected_trunc" xlink:title="isconnected_trunc">
<ellipse fill="#f070d1" stroke="black" cx="2711" cy="-1304.61" rx="94.79" ry="18"/>
<ellipse fill="none" stroke="black" cx="2711" cy="-1304.61" rx="98.79" ry="22"/>
<ellipse fill="none" stroke="black" cx="2711" cy="-1304.61" rx="102.78" ry="26"/>
<text text-anchor="middle" x="2711" y="-1300.91" font-family="Times,serif" font-size="14.00">isconnected_trunc</text>
</a>
</g>
</g>
<!-- Connectedness_indecomposable_0connected -->
<g id="node8" class="node">
<title>Connectedness_indecomposable_0connected</title>
<g id="a_node8"><a xlink:href="Connectedness.html#indecomposable_0connected" xlink:title="indecomposable_0connected">
<ellipse fill="#f070d1" stroke="black" cx="1760" cy="-697.61" rx="142.98" ry="18"/>
<ellipse fill="none" stroke="black" cx="1760" cy="-697.61" rx="146.97" ry="22"/>
<ellipse fill="none" stroke="black" cx="1760" cy="-697.61" rx="150.97" ry="26"/>
<text text-anchor="middle" x="1760" y="-693.91" font-family="Times,serif" font-size="14.00">indecomposable_0connected</text>
</a>
</g>
</g>
<!-- Connectedness_merely_path_is0connected -->
<g id="node13" class="node">
<title>Connectedness_merely_path_is0connected</title>
<g id="a_node13"><a xlink:href="Connectedness.html#merely_path_is0connected" xlink:title="merely_path_is0connected">
<ellipse fill="#f070d1" stroke="black" cx="1755" cy="-393.61" rx="133.78" ry="18"/>
<text text-anchor="middle" x="1755" y="-389.91" font-family="Times,serif" font-size="14.00">merely_path_is0connected</text>
</a>
</g>
</g>
<!-- Connectedness_indecomposable_0connected&#45;&gt;Connectedness_merely_path_is0connected -->
<g id="edge9" class="edge">
<title>Connectedness_indecomposable_0connected&#45;&gt;Connectedness_merely_path_is0connected</title>
<path fill="none" stroke="black" d="M1759.58,-671.38C1758.65,-615.18 1756.41,-480.07 1755.45,-421.95"/>
<polygon fill="black" stroke="black" points="1758.95,-421.66 1755.28,-411.72 1751.95,-421.77 1758.95,-421.66"/>
</g>
<!-- Connectedness_isconnected_pred -->
<g id="node23" class="node">
<title>Connectedness_isconnected_pred</title>
<g id="a_node23"><a xlink:href="Connectedness.html#isconnected_pred" xlink:title="isconnected_pred">
<ellipse fill="#f070d1" stroke="black" cx="1502" cy="-393.61" rx="91.78" ry="18"/>
<text text-anchor="middle" x="1502" y="-389.91" font-family="Times,serif" font-size="14.00">isconnected_pred</text>
</a>
</g>
</g>
<!-- Connectedness_indecomposable_0connected&#45;&gt;Connectedness_isconnected_pred -->
<g id="edge10" class="edge">
<title>Connectedness_indecomposable_0connected&#45;&gt;Connectedness_isconnected_pred</title>
<path fill="none" stroke="black" d="M1738.67,-671.64C1689.99,-614.66 1571.22,-475.64 1522.93,-419.12"/>
<polygon fill="black" stroke="black" points="1525.49,-416.72 1516.34,-411.4 1520.17,-421.27 1525.49,-416.72"/>
</g>
<!-- Connectedness_equiv_component_image_unit -->
<g id="node9" class="node">
<title>Connectedness_equiv_component_image_unit</title>
<g id="a_node9"><a xlink:href="Connectedness.html#equiv_component_image_unit" xlink:title="equiv_component_image_unit">
<ellipse fill="#f070d1" stroke="black" cx="2435" cy="-1304.61" rx="147.57" ry="18"/>
<ellipse fill="none" stroke="black" cx="2435" cy="-1304.61" rx="151.57" ry="22"/>
<ellipse fill="none" stroke="black" cx="2435" cy="-1304.61" rx="155.57" ry="26"/>
<text text-anchor="middle" x="2435" y="-1300.91" font-family="Times,serif" font-size="14.00">equiv_component_image_unit</text>
</a>
</g>
</g>
<!-- Connectedness_merely_path_component -->
<g id="node10" class="node">
<title>Connectedness_merely_path_component</title>
<g id="a_node10"><a xlink:href="Connectedness.html#merely_path_component" xlink:title="merely_path_component">
<ellipse fill="#f070d1" stroke="black" cx="2129" cy="-1304.61" rx="124.27" ry="18"/>
<ellipse fill="none" stroke="black" cx="2129" cy="-1304.61" rx="128.27" ry="22"/>
<ellipse fill="none" stroke="black" cx="2129" cy="-1304.61" rx="132.28" ry="26"/>
<text text-anchor="middle" x="2129" y="-1300.91" font-family="Times,serif" font-size="14.00">merely_path_component</text>
</a>
</g>
</g>
<!-- Connectedness_is0connected_component -->
<g id="node11" class="node">
<title>Connectedness_is0connected_component</title>
<g id="a_node11"><a xlink:href="Connectedness.html#is0connected_component" xlink:title="is0connected_component">
<ellipse fill="#f070d1" stroke="black" cx="1843" cy="-1304.61" rx="127.28" ry="18"/>
<ellipse fill="none" stroke="black" cx="1843" cy="-1304.61" rx="131.28" ry="22"/>
<ellipse fill="none" stroke="black" cx="1843" cy="-1304.61" rx="135.28" ry="26"/>
<text text-anchor="middle" x="1843" y="-1300.91" font-family="Times,serif" font-size="14.00">is0connected_component</text>
</a>
</g>
</g>
<!-- Connectedness_is0connected_merely_allpath -->
<g id="node12" class="node">
<title>Connectedness_is0connected_merely_allpath</title>
<g id="a_node12"><a xlink:href="Connectedness.html#is0connected_merely_allpath" xlink:title="is0connected_merely_allpath">
<ellipse fill="#f070d1" stroke="black" cx="737" cy="-1304.61" rx="144.88" ry="18"/>
<ellipse fill="none" stroke="black" cx="737" cy="-1304.61" rx="148.88" ry="22"/>
<ellipse fill="none" stroke="black" cx="737" cy="-1304.61" rx="152.87" ry="26"/>
<text text-anchor="middle" x="737" y="-1300.91" font-family="Times,serif" font-size="14.00">is0connected_merely_allpath</text>
</a>
</g>
</g>
<!-- Connectedness_isconnected_isconnected_allpath -->
<g id="node28" class="node">
<title>Connectedness_isconnected_isconnected_allpath</title>
<g id="a_node28"><a xlink:href="Connectedness.html#isconnected_isconnected_allpath" xlink:title="isconnected_isconnected_allpath">
<ellipse fill="#f070d1" stroke="black" cx="451" cy="-1000.61" rx="161.67" ry="18"/>
<text text-anchor="middle" x="451" y="-996.91" font-family="Times,serif" font-size="14.00">isconnected_isconnected_allpath</text>
</a>
</g>
</g>
<!-- Connectedness_is0connected_merely_allpath&#45;&gt;Connectedness_isconnected_isconnected_allpath -->
<g id="edge11" class="edge">
<title>Connectedness_is0connected_merely_allpath&#45;&gt;Connectedness_isconnected_isconnected_allpath</title>
<path fill="none" stroke="black" d="M713.6,-1278.9C659.83,-1222.12 527.99,-1082.91 474.31,-1026.23"/>
<polygon fill="black" stroke="black" points="476.69,-1023.65 467.27,-1018.79 471.61,-1028.46 476.69,-1023.65"/>
</g>
<!-- Connectedness_isconnected_paths -->
<g id="node30" class="node">
<title>Connectedness_isconnected_paths</title>
<g id="a_node30"><a xlink:href="Connectedness.html#isconnected_paths" xlink:title="isconnected_paths">
<ellipse fill="#f070d1" stroke="black" cx="1299" cy="-117.61" rx="96.38" ry="18"/>
<text text-anchor="middle" x="1299" y="-113.91" font-family="Times,serif" font-size="14.00">isconnected_paths</text>
</a>
</g>
</g>
<!-- Connectedness_merely_path_is0connected&#45;&gt;Connectedness_isconnected_paths -->
<g id="edge12" class="edge">
<title>Connectedness_merely_path_is0connected&#45;&gt;Connectedness_isconnected_paths</title>
<path fill="none" stroke="black" d="M1727.16,-375.88C1648.26,-328.47 1423.16,-193.22 1335.02,-140.25"/>
<polygon fill="black" stroke="black" points="1336.56,-137.1 1326.19,-134.95 1332.96,-143.1 1336.56,-137.1"/>
</g>
<!-- Connectedness_isconnmap_minus_two -->
<g id="node14" class="node">
<title>Connectedness_isconnmap_minus_two</title>
<g id="a_node14"><a xlink:href="Connectedness.html#isconnmap_minus_two" xlink:title="isconnmap_minus_two">
<ellipse fill="#f070d1" stroke="black" cx="1567" cy="-1304.61" rx="114.29" ry="18"/>
<ellipse fill="none" stroke="black" cx="1567" cy="-1304.61" rx="118.28" ry="22"/>
<ellipse fill="none" stroke="black" cx="1567" cy="-1304.61" rx="122.28" ry="26"/>
<text text-anchor="middle" x="1567" y="-1300.91" font-family="Times,serif" font-size="14.00">isconnmap_minus_two</text>
</a>
</g>
</g>
<!-- Connectedness_isconnected_minus_two -->
<g id="node15" class="node">
<title>Connectedness_isconnected_minus_two</title>
<g id="a_node15"><a xlink:href="Connectedness.html#isconnected_minus_two" xlink:title="isconnected_minus_two">
<ellipse fill="#f070d1" stroke="black" cx="1735" cy="-1000.61" rx="120.48" ry="18"/>
<text text-anchor="middle" x="1735" y="-996.91" font-family="Times,serif" font-size="14.00">isconnected_minus_two</text>
</a>
</g>
</g>
<!-- Connectedness_isconnmap_minus_two&#45;&gt;Connectedness_isconnected_minus_two -->
<g id="edge13" class="edge">
<title>Connectedness_isconnmap_minus_two&#45;&gt;Connectedness_isconnected_minus_two</title>
<path fill="none" stroke="black" d="M1580.89,-1278.64C1612.32,-1222.15 1688.61,-1085 1720.56,-1027.58"/>
<polygon fill="black" stroke="black" points="1723.66,-1029.19 1725.46,-1018.75 1717.54,-1025.79 1723.66,-1029.19"/>
</g>
<!-- Connectedness_isconnmap_pred_add -->
<g id="node16" class="node">
<title>Connectedness_isconnmap_pred_add</title>
<g id="a_node16"><a xlink:href="Connectedness.html#isconnmap_pred_add" xlink:title="isconnmap_pred_add">
<ellipse fill="#f070d1" stroke="black" cx="1269" cy="-1000.61" rx="107.79" ry="18"/>
<ellipse fill="none" stroke="black" cx="1269" cy="-1000.61" rx="111.78" ry="22"/>
<ellipse fill="none" stroke="black" cx="1269" cy="-1000.61" rx="115.78" ry="26"/>
<text text-anchor="middle" x="1269" y="-996.91" font-family="Times,serif" font-size="14.00">isconnmap_pred_add</text>
</a>
</g>
</g>
<!-- Connectedness_isconnected_pred_add -->
<g id="node21" class="node">
<title>Connectedness_isconnected_pred_add</title>
<g id="a_node21"><a xlink:href="Connectedness.html#isconnected_pred_add" xlink:title="isconnected_pred_add">
<ellipse fill="#f070d1" stroke="black" cx="1269" cy="-697.61" rx="113.18" ry="18"/>
<text text-anchor="middle" x="1269" y="-693.91" font-family="Times,serif" font-size="14.00">isconnected_pred_add</text>
</a>
</g>
</g>
<!-- Connectedness_isconnmap_pred_add&#45;&gt;Connectedness_isconnected_pred_add -->
<g id="edge14" class="edge">
<title>Connectedness_isconnmap_pred_add&#45;&gt;Connectedness_isconnected_pred_add</title>
<path fill="none" stroke="black" d="M1269,-974.47C1269,-918.45 1269,-783.79 1269,-725.86"/>
<polygon fill="black" stroke="black" points="1272.5,-725.66 1269,-715.66 1265.5,-725.66 1272.5,-725.66"/>
</g>
<!-- Connectedness_isconnmap_pred_ -->
<g id="node17" class="node">
<title>Connectedness_isconnmap_pred_</title>
<g id="a_node17"><a xlink:href="Connectedness.html#isconnmap_pred'" xlink:title="isconnmap_pred&#39;">
<ellipse fill="#f070d1" stroke="black" cx="1500" cy="-1000.61" rx="89.08" ry="18"/>
<ellipse fill="none" stroke="black" cx="1500" cy="-1000.61" rx="93.08" ry="22"/>
<ellipse fill="none" stroke="black" cx="1500" cy="-1000.61" rx="97.08" ry="26"/>
<text text-anchor="middle" x="1500" y="-996.91" font-family="Times,serif" font-size="14.00">isconnmap_pred&#39;</text>
</a>
</g>
</g>
<!-- Connectedness_isconnected_pred_ -->
<g id="node22" class="node">
<title>Connectedness_isconnected_pred_</title>
<g id="a_node22"><a xlink:href="Connectedness.html#isconnected_pred'" xlink:title="isconnected_pred&#39;">
<ellipse fill="#f070d1" stroke="black" cx="1497" cy="-697.61" rx="94.48" ry="18"/>
<text text-anchor="middle" x="1497" y="-693.91" font-family="Times,serif" font-size="14.00">isconnected_pred&#39;</text>
</a>
</g>
</g>
<!-- Connectedness_isconnmap_pred_&#45;&gt;Connectedness_isconnected_pred_ -->
<g id="edge15" class="edge">
<title>Connectedness_isconnmap_pred_&#45;&gt;Connectedness_isconnected_pred_</title>
<path fill="none" stroke="black" d="M1499.75,-974.47C1499.19,-918.45 1497.85,-783.79 1497.27,-725.86"/>
<polygon fill="black" stroke="black" points="1500.77,-725.62 1497.17,-715.66 1493.77,-725.69 1500.77,-725.62"/>
</g>
<!-- Connectedness_is0connected_isconnected -->
<g id="node18" class="node">
<title>Connectedness_is0connected_isconnected</title>
<g id="a_node18"><a xlink:href="Connectedness.html#is0connected_isconnected" xlink:title="is0connected_isconnected">
<ellipse fill="#f070d1" stroke="black" cx="1287" cy="-1304.61" rx="131.09" ry="18"/>
<ellipse fill="none" stroke="black" cx="1287" cy="-1304.61" rx="135.08" ry="22"/>
<ellipse fill="none" stroke="black" cx="1287" cy="-1304.61" rx="139.08" ry="26"/>
<text text-anchor="middle" x="1287" y="-1300.91" font-family="Times,serif" font-size="14.00">is0connected_isconnected</text>
</a>
</g>
</g>
<!-- Connectedness_isconnected_pred_add_ -->
<g id="node20" class="node">
<title>Connectedness_isconnected_pred_add_</title>
<g id="a_node20"><a xlink:href="Connectedness.html#isconnected_pred_add'" xlink:title="isconnected_pred_add&#39;">
<ellipse fill="#f070d1" stroke="black" cx="1019" cy="-1000.61" rx="115.88" ry="18"/>
<text text-anchor="middle" x="1019" y="-996.91" font-family="Times,serif" font-size="14.00">isconnected_pred_add&#39;</text>
</a>
</g>
</g>
<!-- Connectedness_is0connected_isconnected&#45;&gt;Connectedness_isconnected_pred_add_ -->
<g id="edge16" class="edge">
<title>Connectedness_is0connected_isconnected&#45;&gt;Connectedness_isconnected_pred_add_</title>
<path fill="none" stroke="black" d="M1265.07,-1278.9C1214.79,-1222.24 1091.65,-1083.47 1041.15,-1026.57"/>
<polygon fill="black" stroke="black" points="1043.5,-1023.95 1034.25,-1018.79 1038.27,-1028.6 1043.5,-1023.95"/>
</g>
<!-- Connectedness_merely_isconnected -->
<g id="node19" class="node">
<title>Connectedness_merely_isconnected</title>
<g id="a_node19"><a xlink:href="Connectedness.html#merely_isconnected" xlink:title="merely_isconnected">
<ellipse fill="#f070d1" stroke="black" cx="1019" cy="-1304.61" rx="102.87" ry="18"/>
<ellipse fill="none" stroke="black" cx="1019" cy="-1304.61" rx="106.88" ry="22"/>
<ellipse fill="none" stroke="black" cx="1019" cy="-1304.61" rx="110.88" ry="26"/>
<text text-anchor="middle" x="1019" y="-1300.91" font-family="Times,serif" font-size="14.00">merely_isconnected</text>
</a>
</g>
</g>
<!-- Connectedness_merely_isconnected&#45;&gt;Connectedness_isconnected_pred_add_ -->
<g id="edge17" class="edge">
<title>Connectedness_merely_isconnected&#45;&gt;Connectedness_isconnected_pred_add_</title>
<path fill="none" stroke="black" d="M1019,-1278.38C1019,-1222.18 1019,-1087.07 1019,-1028.95"/>
<polygon fill="black" stroke="black" points="1022.5,-1028.72 1019,-1018.72 1015.5,-1028.72 1022.5,-1028.72"/>
</g>
<!-- Connectedness_isconnected_pred_add_&#45;&gt;Connectedness_isconnected_pred_add -->
<g id="edge18" class="edge">
<title>Connectedness_isconnected_pred_add_&#45;&gt;Connectedness_isconnected_pred_add</title>
<path fill="none" stroke="black" d="M1033.16,-982.57C1075.08,-932.09 1198.76,-783.18 1248.22,-723.63"/>
<polygon fill="black" stroke="black" points="1250.99,-725.77 1254.69,-715.84 1245.61,-721.3 1250.99,-725.77"/>
</g>
<!-- Connectedness_isconnected_pred_add&#45;&gt;Connectedness_isconnected_pred -->
<g id="edge19" class="edge">
<title>Connectedness_isconnected_pred_add&#45;&gt;Connectedness_isconnected_pred</title>
<path fill="none" stroke="black" d="M1282.19,-679.51C1321.28,-628.85 1436.61,-479.37 1482.67,-419.66"/>
<polygon fill="black" stroke="black" points="1485.61,-421.58 1488.95,-411.53 1480.07,-417.31 1485.61,-421.58"/>
</g>
<!-- Connectedness_isconnected_pred_&#45;&gt;Connectedness_isconnected_pred -->
<g id="edge20" class="edge">
<title>Connectedness_isconnected_pred_&#45;&gt;Connectedness_isconnected_pred</title>
<path fill="none" stroke="black" d="M1497.28,-679.51C1498.11,-629.48 1500.53,-483.11 1501.55,-421.95"/>
<polygon fill="black" stroke="black" points="1505.05,-421.96 1501.71,-411.9 1498.05,-421.84 1505.05,-421.96"/>
</g>
<!-- Connectedness_conn_point_elim -->
<g id="node24" class="node">
<title>Connectedness_conn_point_elim</title>
<g id="a_node24"><a xlink:href="Connectedness.html#conn_point_elim" xlink:title="conn_point_elim">
<ellipse fill="#f070d1" stroke="black" cx="1299" cy="-393.61" rx="85.27" ry="18"/>
<ellipse fill="none" stroke="black" cx="1299" cy="-393.61" rx="89.28" ry="22"/>
<ellipse fill="none" stroke="black" cx="1299" cy="-393.61" rx="93.29" ry="26"/>
<text text-anchor="middle" x="1299" y="-389.91" font-family="Times,serif" font-size="14.00">conn_point_elim</text>
</a>
</g>
</g>
<!-- Connectedness_conn_point_elim&#45;&gt;Connectedness_isconnected_paths -->
<g id="edge21" class="edge">
<title>Connectedness_conn_point_elim&#45;&gt;Connectedness_isconnected_paths</title>
<path fill="none" stroke="black" d="M1299,-367.33C1299,-315.77 1299,-198.88 1299,-145.78"/>
<polygon fill="black" stroke="black" points="1302.5,-145.75 1299,-135.75 1295.5,-145.75 1302.5,-145.75"/>
</g>
<!-- Connectedness_conn_pointed_type -->
<g id="node26" class="node">
<title>Connectedness_conn_pointed_type</title>
<g id="a_node26"><a xlink:href="Connectedness.html#conn_pointed_type" xlink:title="conn_pointed_type">
<ellipse fill="#f070d1" stroke="black" cx="461" cy="-1304.61" rx="96.7" ry="18"/>
<ellipse fill="none" stroke="black" cx="461" cy="-1304.61" rx="100.69" ry="22"/>
<ellipse fill="none" stroke="black" cx="461" cy="-1304.61" rx="104.68" ry="26"/>
<text text-anchor="middle" x="461" y="-1300.91" font-family="Times,serif" font-size="14.00">conn_pointed_type</text>
</a>
</g>
</g>
<!-- Connectedness_isconnmap_isconnmap_ap_surj -->
<g id="node27" class="node">
<title>Connectedness_isconnmap_isconnmap_ap_surj</title>
<g id="a_node27"><a xlink:href="Connectedness.html#isconnmap_isconnmap_ap_surj" xlink:title="isconnmap_isconnmap_ap_surj">
<ellipse fill="#f070d1" stroke="black" cx="177" cy="-1304.61" rx="152.96" ry="18"/>
<ellipse fill="none" stroke="black" cx="177" cy="-1304.61" rx="156.97" ry="22"/>
<ellipse fill="none" stroke="black" cx="177" cy="-1304.61" rx="160.97" ry="26"/>
<text text-anchor="middle" x="177" y="-1300.91" font-family="Times,serif" font-size="14.00">isconnmap_isconnmap_ap_surj</text>
</a>
</g>
</g>
<!-- Connectedness_isconnmap_isconnmap_ap_surj&#45;&gt;Connectedness_isconnected_isconnected_allpath -->
<g id="edge22" class="edge">
<title>Connectedness_isconnmap_isconnmap_ap_surj&#45;&gt;Connectedness_isconnected_isconnected_allpath</title>
<path fill="none" stroke="black" d="M199.66,-1278.64C251.33,-1221.68 377.4,-1082.73 428.72,-1026.17"/>
<polygon fill="black" stroke="black" points="431.32,-1028.51 435.45,-1018.75 426.14,-1023.81 431.32,-1028.51"/>
</g>
<!-- Connectedness_isconnmap_ap_isconnmap -->
<g id="node29" class="node">
<title>Connectedness_isconnmap_ap_isconnmap</title>
<g id="a_node29"><a xlink:href="Connectedness.html#isconnmap_ap_isconnmap" xlink:title="isconnmap_ap_isconnmap">
<ellipse fill="#f070d1" stroke="black" cx="1050" cy="-393.61" rx="129.98" ry="18"/>
<ellipse fill="none" stroke="black" cx="1050" cy="-393.61" rx="133.98" ry="22"/>
<ellipse fill="none" stroke="black" cx="1050" cy="-393.61" rx="137.98" ry="26"/>
<text text-anchor="middle" x="1050" y="-389.91" font-family="Times,serif" font-size="14.00">isconnmap_ap_isconnmap</text>
</a>
</g>
</g>
<!-- Connectedness_isconnmap_ap_isconnmap&#45;&gt;Connectedness_isconnected_paths -->
<g id="edge23" class="edge">
<title>Connectedness_isconnmap_ap_isconnmap&#45;&gt;Connectedness_isconnected_paths</title>
<path fill="none" stroke="black" d="M1072.54,-367.81C1120.02,-315.56 1229.84,-194.71 1276.92,-142.91"/>
<polygon fill="black" stroke="black" points="1279.52,-145.25 1283.66,-135.49 1274.34,-140.54 1279.52,-145.25"/>
</g>
</g>
</svg>
