<?xml version="1.0" encoding="UTF-8" standalone="no"?>
<!DOCTYPE svg PUBLIC "-//W3C//DTD SVG 1.1//EN"
 "http://www.w3.org/Graphics/SVG/1.1/DTD/svg11.dtd">
<!-- Generated by graphviz version 2.43.0 (0)
 -->
<!-- Title: HoTT_Colimits_SpanPushout Pages: 1 -->
<svg width="1230pt" height="619pt"
 viewBox="0.00 0.00 1230.00 619.00" xmlns="http://www.w3.org/2000/svg" xmlns:xlink="http://www.w3.org/1999/xlink">
<g id="graph0" class="graph" transform="scale(1 1) rotate(0) translate(4 615)">
<title>HoTT_Colimits_SpanPushout</title>
<polygon fill="white" stroke="transparent" points="-4,4 -4,-615 1226,-615 1226,4 -4,4"/>
<g id="clust1" class="cluster">
<title>cluster_SpanPushout</title>
<polygon fill="#ffffc3" stroke="black" points="8,-11.45 8,-599.55 1214,-599.55 1214,-11.45 8,-11.45"/>
<text text-anchor="middle" x="63.5" y="-584.35" font-family="Times,serif" font-size="14.00">SpanPushout</text>
</g>
<!-- SpanPushout_spushout_sjoin_map -->
<g id="node1" class="node">
<title>SpanPushout_spushout_sjoin_map</title>
<g id="a_node1"><a xlink:href="SpanPushout.html#spushout_sjoin_map" xlink:title="spushout_sjoin_map">
<ellipse fill="#f070d1" stroke="black" cx="561" cy="-392.45" rx="103.98" ry="18"/>
<ellipse fill="none" stroke="black" cx="561" cy="-392.45" rx="107.98" ry="22"/>
<ellipse fill="none" stroke="black" cx="561" cy="-392.45" rx="111.98" ry="26"/>
<text text-anchor="middle" x="561" y="-388.75" font-family="Times,serif" font-size="14.00">spushout_sjoin_map</text>
</a>
</g>
</g>
<!-- SpanPushout_spglue -->
<g id="node11" class="node">
<title>SpanPushout_spglue</title>
<g id="a_node11"><a xlink:href="SpanPushout.html#spglue" xlink:title="spglue">
<ellipse fill="#f070d1" stroke="black" cx="709" cy="-277.45" rx="41.69" ry="18"/>
<text text-anchor="middle" x="709" y="-273.75" font-family="Times,serif" font-size="14.00">spglue</text>
</a>
</g>
</g>
<!-- SpanPushout_spushout_sjoin_map&#45;&gt;SpanPushout_spglue -->
<g id="edge1" class="edge">
<title>SpanPushout_spushout_sjoin_map&#45;&gt;SpanPushout_spglue</title>
<path fill="none" stroke="black" d="M592.39,-367.48C618.76,-347.34 656.1,-318.84 681.36,-299.55"/>
<polygon fill="black" stroke="black" points="683.61,-302.24 689.43,-293.39 679.36,-296.67 683.61,-302.24"/>
</g>
<!-- SpanPushout_equiv_pushout_spushout -->
<g id="node2" class="node">
<title>SpanPushout_equiv_pushout_spushout</title>
<g id="a_node2"><a xlink:href="SpanPushout.html#equiv_pushout_spushout" xlink:title="equiv_pushout_spushout">
<ellipse fill="#f070d1" stroke="black" cx="1007" cy="-163.45" rx="124.59" ry="18"/>
<ellipse fill="none" stroke="black" cx="1007" cy="-163.45" rx="128.58" ry="22"/>
<ellipse fill="none" stroke="black" cx="1007" cy="-163.45" rx="132.58" ry="26"/>
<text text-anchor="middle" x="1007" y="-159.75" font-family="Times,serif" font-size="14.00">equiv_pushout_spushout</text>
</a>
</g>
</g>
<!-- SpanPushout_SPushout -->
<g id="node14" class="node">
<title>SpanPushout_SPushout</title>
<g id="a_node14"><a xlink:href="SpanPushout.html#SPushout" xlink:title="SPushout">
<ellipse fill="#f070d1" stroke="black" cx="825" cy="-48.45" rx="55.49" ry="18"/>
<text text-anchor="middle" x="825" y="-44.75" font-family="Times,serif" font-size="14.00">SPushout</text>
</a>
</g>
</g>
<!-- SpanPushout_equiv_pushout_spushout&#45;&gt;SpanPushout_SPushout -->
<g id="edge2" class="edge">
<title>SpanPushout_equiv_pushout_spushout&#45;&gt;SpanPushout_SPushout</title>
<path fill="none" stroke="black" d="M968.4,-138.48C935.73,-118.2 889.39,-89.43 858.32,-70.14"/>
<polygon fill="black" stroke="black" points="859.93,-67.02 849.59,-64.72 856.24,-72.96 859.93,-67.02"/>
</g>
<!-- SpanPushout_functor_spushout_homotopic -->
<g id="node3" class="node">
<title>SpanPushout_functor_spushout_homotopic</title>
<g id="a_node3"><a xlink:href="SpanPushout.html#functor_spushout_homotopic" xlink:title="functor_spushout_homotopic">
<ellipse fill="#f070d1" stroke="black" cx="1054" cy="-518.45" rx="143.77" ry="18"/>
<ellipse fill="none" stroke="black" cx="1054" cy="-518.45" rx="147.77" ry="22"/>
<ellipse fill="none" stroke="black" cx="1054" cy="-518.45" rx="151.77" ry="26"/>
<text text-anchor="middle" x="1054" y="-514.75" font-family="Times,serif" font-size="14.00">functor_spushout_homotopic</text>
</a>
</g>
</g>
<!-- SpanPushout_functor_spushout -->
<g id="node6" class="node">
<title>SpanPushout_functor_spushout</title>
<g id="a_node6"><a xlink:href="SpanPushout.html#functor_spushout" xlink:title="functor_spushout">
<ellipse fill="#f070d1" stroke="black" cx="782" cy="-392.45" rx="90.98" ry="18"/>
<text text-anchor="middle" x="782" y="-388.75" font-family="Times,serif" font-size="14.00">functor_spushout</text>
</a>
</g>
</g>
<!-- SpanPushout_functor_spushout_homotopic&#45;&gt;SpanPushout_functor_spushout -->
<g id="edge3" class="edge">
<title>SpanPushout_functor_spushout_homotopic&#45;&gt;SpanPushout_functor_spushout</title>
<path fill="none" stroke="black" d="M1002.52,-493.98C951.41,-470.68 873.9,-435.34 825.7,-413.37"/>
<polygon fill="black" stroke="black" points="827.01,-410.12 816.46,-409.16 824.11,-416.49 827.01,-410.12"/>
</g>
<!-- SpanPushout_spushout_ind -->
<g id="node8" class="node">
<title>SpanPushout_spushout_ind</title>
<g id="a_node8"><a xlink:href="SpanPushout.html#spushout_ind" xlink:title="spushout_ind">
<ellipse fill="#f070d1" stroke="black" cx="359" cy="-392.45" rx="72.29" ry="18"/>
<text text-anchor="middle" x="359" y="-388.75" font-family="Times,serif" font-size="14.00">spushout_ind</text>
</a>
</g>
</g>
<!-- SpanPushout_functor_spushout_homotopic&#45;&gt;SpanPushout_spushout_ind -->
<g id="edge4" class="edge">
<title>SpanPushout_functor_spushout_homotopic&#45;&gt;SpanPushout_spushout_ind</title>
<path fill="none" stroke="black" d="M945.15,-500.3C775.39,-473.5 464.36,-424.14 440,-418.45 430.11,-416.14 419.67,-413.25 409.69,-410.28"/>
<polygon fill="black" stroke="black" points="410.49,-406.86 399.9,-407.29 408.44,-413.56 410.49,-406.86"/>
</g>
<!-- SpanPushout_spushout_rec_beta_spglue -->
<g id="node9" class="node">
<title>SpanPushout_spushout_rec_beta_spglue</title>
<g id="a_node9"><a xlink:href="SpanPushout.html#spushout_rec_beta_spglue" xlink:title="spushout_rec_beta_spglue">
<ellipse fill="#f070d1" stroke="black" cx="1023" cy="-392.45" rx="131.88" ry="18"/>
<text text-anchor="middle" x="1023" y="-388.75" font-family="Times,serif" font-size="14.00">spushout_rec_beta_spglue</text>
</a>
</g>
</g>
<!-- SpanPushout_functor_spushout_homotopic&#45;&gt;SpanPushout_spushout_rec_beta_spglue -->
<g id="edge5" class="edge">
<title>SpanPushout_functor_spushout_homotopic&#45;&gt;SpanPushout_spushout_rec_beta_spglue</title>
<path fill="none" stroke="black" d="M1047.73,-492.35C1042.5,-471.43 1035.06,-441.7 1029.71,-420.3"/>
<polygon fill="black" stroke="black" points="1033.09,-419.4 1027.27,-410.54 1026.3,-421.09 1033.09,-419.4"/>
</g>
<!-- SpanPushout_functor_spushout_idmap -->
<g id="node4" class="node">
<title>SpanPushout_functor_spushout_idmap</title>
<g id="a_node4"><a xlink:href="SpanPushout.html#functor_spushout_idmap" xlink:title="functor_spushout_idmap">
<ellipse fill="#f070d1" stroke="black" cx="752" cy="-518.45" rx="124.27" ry="18"/>
<ellipse fill="none" stroke="black" cx="752" cy="-518.45" rx="128.27" ry="22"/>
<ellipse fill="none" stroke="black" cx="752" cy="-518.45" rx="132.28" ry="26"/>
<text text-anchor="middle" x="752" y="-514.75" font-family="Times,serif" font-size="14.00">functor_spushout_idmap</text>
</a>
</g>
</g>
<!-- SpanPushout_functor_spushout_idmap&#45;&gt;SpanPushout_functor_spushout -->
<g id="edge6" class="edge">
<title>SpanPushout_functor_spushout_idmap&#45;&gt;SpanPushout_functor_spushout</title>
<path fill="none" stroke="black" d="M758.07,-492.35C763.13,-471.43 770.33,-441.7 775.5,-420.3"/>
<polygon fill="black" stroke="black" points="778.91,-421.09 777.86,-410.54 772.11,-419.44 778.91,-421.09"/>
</g>
<!-- SpanPushout_functor_spushout_idmap&#45;&gt;SpanPushout_spushout_ind -->
<g id="edge7" class="edge">
<title>SpanPushout_functor_spushout_idmap&#45;&gt;SpanPushout_spushout_ind</title>
<path fill="none" stroke="black" d="M683.99,-495.99C606.57,-471.56 481.75,-432.18 411.47,-410"/>
<polygon fill="black" stroke="black" points="412.51,-406.66 401.92,-406.99 410.41,-413.34 412.51,-406.66"/>
</g>
<!-- SpanPushout_functor_spushout_idmap&#45;&gt;SpanPushout_spushout_rec_beta_spglue -->
<g id="edge8" class="edge">
<title>SpanPushout_functor_spushout_idmap&#45;&gt;SpanPushout_spushout_rec_beta_spglue</title>
<path fill="none" stroke="black" d="M802.66,-494.27C853.07,-471.2 929.7,-436.14 978.02,-414.03"/>
<polygon fill="black" stroke="black" points="979.65,-417.13 987.29,-409.79 976.74,-410.77 979.65,-417.13"/>
</g>
<!-- SpanPushout_functor_spushout_compose -->
<g id="node5" class="node">
<title>SpanPushout_functor_spushout_compose</title>
<g id="a_node5"><a xlink:href="SpanPushout.html#functor_spushout_compose" xlink:title="functor_spushout_compose">
<ellipse fill="#f070d1" stroke="black" cx="458" cy="-518.45" rx="135.69" ry="18"/>
<ellipse fill="none" stroke="black" cx="458" cy="-518.45" rx="139.68" ry="22"/>
<ellipse fill="none" stroke="black" cx="458" cy="-518.45" rx="143.68" ry="26"/>
<text text-anchor="middle" x="458" y="-514.75" font-family="Times,serif" font-size="14.00">functor_spushout_compose</text>
</a>
</g>
</g>
<!-- SpanPushout_functor_spushout_compose&#45;&gt;SpanPushout_functor_spushout -->
<g id="edge9" class="edge">
<title>SpanPushout_functor_spushout_compose&#45;&gt;SpanPushout_functor_spushout</title>
<path fill="none" stroke="black" d="M517.43,-494.7C579.08,-471.11 674.4,-434.63 732.23,-412.5"/>
<polygon fill="black" stroke="black" points="733.78,-415.65 741.87,-408.81 731.28,-409.11 733.78,-415.65"/>
</g>
<!-- SpanPushout_functor_spushout_compose&#45;&gt;SpanPushout_spushout_ind -->
<g id="edge10" class="edge">
<title>SpanPushout_functor_spushout_compose&#45;&gt;SpanPushout_spushout_ind</title>
<path fill="none" stroke="black" d="M438.2,-492.65C420.97,-471.06 396.11,-439.93 378.85,-418.32"/>
<polygon fill="black" stroke="black" points="381.4,-415.89 372.42,-410.26 375.93,-420.26 381.4,-415.89"/>
</g>
<!-- SpanPushout_functor_spushout_compose&#45;&gt;SpanPushout_spushout_rec_beta_spglue -->
<g id="edge11" class="edge">
<title>SpanPushout_functor_spushout_compose&#45;&gt;SpanPushout_spushout_rec_beta_spglue</title>
<path fill="none" stroke="black" d="M546.9,-497.94C656.94,-473.79 842.48,-433.07 946.46,-410.24"/>
<polygon fill="black" stroke="black" points="947.25,-413.66 956.27,-408.09 945.75,-406.82 947.25,-413.66"/>
</g>
<!-- SpanPushout_spushout_rec -->
<g id="node10" class="node">
<title>SpanPushout_spushout_rec</title>
<g id="a_node10"><a xlink:href="SpanPushout.html#spushout_rec" xlink:title="spushout_rec">
<ellipse fill="#f070d1" stroke="black" cx="855" cy="-277.45" rx="72.29" ry="18"/>
<text text-anchor="middle" x="855" y="-273.75" font-family="Times,serif" font-size="14.00">spushout_rec</text>
</a>
</g>
</g>
<!-- SpanPushout_functor_spushout&#45;&gt;SpanPushout_spushout_rec -->
<g id="edge12" class="edge">
<title>SpanPushout_functor_spushout&#45;&gt;SpanPushout_spushout_rec</title>
<path fill="none" stroke="black" d="M793.09,-374.29C805.16,-355.59 824.6,-325.5 838.48,-304.02"/>
<polygon fill="black" stroke="black" points="841.56,-305.7 844.05,-295.4 835.68,-301.9 841.56,-305.7"/>
</g>
<!-- SpanPushout_functor_spushout&#45;&gt;SpanPushout_spglue -->
<g id="edge13" class="edge">
<title>SpanPushout_functor_spushout&#45;&gt;SpanPushout_spglue</title>
<path fill="none" stroke="black" d="M770.91,-374.29C758.77,-355.48 739.17,-325.15 725.28,-303.65"/>
<polygon fill="black" stroke="black" points="728.08,-301.53 719.72,-295.03 722.2,-305.33 728.08,-301.53"/>
</g>
<!-- SpanPushout_spushout_ind_beta_spglue -->
<g id="node7" class="node">
<title>SpanPushout_spushout_ind_beta_spglue</title>
<g id="a_node7"><a xlink:href="SpanPushout.html#spushout_ind_beta_spglue" xlink:title="spushout_ind_beta_spglue">
<ellipse fill="#f070d1" stroke="black" cx="156" cy="-518.45" rx="131.88" ry="18"/>
<ellipse fill="none" stroke="black" cx="156" cy="-518.45" rx="135.88" ry="22"/>
<ellipse fill="none" stroke="black" cx="156" cy="-518.45" rx="139.88" ry="26"/>
<text text-anchor="middle" x="156" y="-514.75" font-family="Times,serif" font-size="14.00">spushout_ind_beta_spglue</text>
</a>
</g>
</g>
<!-- SpanPushout_spushout_ind_beta_spglue&#45;&gt;SpanPushout_spushout_ind -->
<g id="edge14" class="edge">
<title>SpanPushout_spushout_ind_beta_spglue&#45;&gt;SpanPushout_spushout_ind</title>
<path fill="none" stroke="black" d="M195.62,-493.24C233.06,-470.37 288.67,-436.41 324.38,-414.59"/>
<polygon fill="black" stroke="black" points="326.3,-417.52 333.01,-409.33 322.65,-411.55 326.3,-417.52"/>
</g>
<!-- SpanPushout_spushout_ind&#45;&gt;SpanPushout_spglue -->
<g id="edge15" class="edge">
<title>SpanPushout_spushout_ind&#45;&gt;SpanPushout_spglue</title>
<path fill="none" stroke="black" d="M401.22,-377.82C468.49,-356.1 599.27,-313.87 666.64,-292.13"/>
<polygon fill="black" stroke="black" points="668.05,-295.35 676.49,-288.94 665.9,-288.68 668.05,-295.35"/>
</g>
<!-- SpanPushout_spushout_rec_beta_spglue&#45;&gt;SpanPushout_spushout_rec -->
<g id="edge16" class="edge">
<title>SpanPushout_spushout_rec_beta_spglue&#45;&gt;SpanPushout_spushout_rec</title>
<path fill="none" stroke="black" d="M997.85,-374.53C968.48,-354.78 919.83,-322.05 887.59,-300.37"/>
<polygon fill="black" stroke="black" points="889.21,-297.24 878.96,-294.56 885.31,-303.05 889.21,-297.24"/>
</g>
<!-- SpanPushout_spushout_rec_beta_spglue&#45;&gt;SpanPushout_spglue -->
<g id="edge17" class="edge">
<title>SpanPushout_spushout_rec_beta_spglue&#45;&gt;SpanPushout_spglue</title>
<path fill="none" stroke="black" d="M978.34,-375.38C917.36,-353.43 808.89,-314.4 749.92,-293.17"/>
<polygon fill="black" stroke="black" points="750.8,-289.77 740.21,-289.68 748.43,-296.36 750.8,-289.77"/>
</g>
<!-- SpanPushout_spushout_rec&#45;&gt;SpanPushout_SPushout -->
<g id="edge18" class="edge">
<title>SpanPushout_spushout_rec&#45;&gt;SpanPushout_SPushout</title>
<path fill="none" stroke="black" d="M854.6,-259.24C853.8,-232.88 851.48,-181 845,-137.45 841.93,-116.79 836.63,-93.78 832.26,-76.47"/>
<polygon fill="black" stroke="black" points="835.57,-75.31 829.69,-66.5 828.8,-77.06 835.57,-75.31"/>
</g>
<!-- SpanPushout_spushr -->
<g id="node12" class="node">
<title>SpanPushout_spushr</title>
<g id="a_node12"><a xlink:href="SpanPushout.html#spushr" xlink:title="spushr">
<ellipse fill="#f070d1" stroke="black" cx="694" cy="-163.45" rx="42.49" ry="18"/>
<text text-anchor="middle" x="694" y="-159.75" font-family="Times,serif" font-size="14.00">spushr</text>
</a>
</g>
</g>
<!-- SpanPushout_spglue&#45;&gt;SpanPushout_spushr -->
<g id="edge19" class="edge">
<title>SpanPushout_spglue&#45;&gt;SpanPushout_spushr</title>
<path fill="none" stroke="black" d="M706.72,-259.44C704.31,-241.43 700.47,-212.74 697.64,-191.6"/>
<polygon fill="black" stroke="black" points="701.1,-191.06 696.3,-181.62 694.16,-191.99 701.1,-191.06"/>
</g>
<!-- SpanPushout_spushl -->
<g id="node13" class="node">
<title>SpanPushout_spushl</title>
<g id="a_node13"><a xlink:href="SpanPushout.html#spushl" xlink:title="spushl">
<ellipse fill="#f070d1" stroke="black" cx="795" cy="-163.45" rx="40.89" ry="18"/>
<text text-anchor="middle" x="795" y="-159.75" font-family="Times,serif" font-size="14.00">spushl</text>
</a>
</g>
</g>
<!-- SpanPushout_spglue&#45;&gt;SpanPushout_spushl -->
<g id="edge20" class="edge">
<title>SpanPushout_spglue&#45;&gt;SpanPushout_spushl</title>
<path fill="none" stroke="black" d="M721.69,-259.92C736.13,-241.12 759.84,-210.24 776.37,-188.71"/>
<polygon fill="black" stroke="black" points="779.22,-190.74 782.54,-180.68 773.67,-186.48 779.22,-190.74"/>
</g>
<!-- SpanPushout_spushr&#45;&gt;SpanPushout_SPushout -->
<g id="edge21" class="edge">
<title>SpanPushout_spushr&#45;&gt;SpanPushout_SPushout</title>
<path fill="none" stroke="black" d="M711.94,-146.97C734.32,-127.66 772.78,-94.49 798.55,-72.26"/>
<polygon fill="black" stroke="black" points="801.15,-74.65 806.43,-65.46 796.57,-69.35 801.15,-74.65"/>
</g>
<!-- SpanPushout_spushl&#45;&gt;SpanPushout_SPushout -->
<g id="edge22" class="edge">
<title>SpanPushout_spushl&#45;&gt;SpanPushout_SPushout</title>
<path fill="none" stroke="black" d="M799.56,-145.29C804.43,-126.93 812.22,-97.57 817.9,-76.18"/>
<polygon fill="black" stroke="black" points="821.32,-76.96 820.5,-66.4 814.55,-75.17 821.32,-76.96"/>
</g>
</g>
</svg>
