<?xml version="1.0" encoding="UTF-8" standalone="no"?>
<!DOCTYPE svg PUBLIC "-//W3C//DTD SVG 1.1//EN"
 "http://www.w3.org/Graphics/SVG/1.1/DTD/svg11.dtd">
<!-- Generated by graphviz version 2.43.0 (0)
 -->
<!-- Title: HoTT_Colimits_Colimit_Sigma Pages: 1 -->
<svg width="678pt" height="343pt"
 viewBox="0.00 0.00 678.00 343.00" xmlns="http://www.w3.org/2000/svg" xmlns:xlink="http://www.w3.org/1999/xlink">
<g id="graph0" class="graph" transform="scale(1 1) rotate(0) translate(4 339)">
<title>HoTT_Colimits_Colimit_Sigma</title>
<polygon fill="white" stroke="transparent" points="-4,4 -4,-339 674,-339 674,4 -4,4"/>
<g id="clust1" class="cluster">
<title>cluster_Colimit_Sigma</title>
<polygon fill="#ffffc3" stroke="black" points="8,-10.68 8,-324.32 662,-324.32 662,-10.68 8,-10.68"/>
<text text-anchor="middle" x="68" y="-309.12" font-family="Times,serif" font-size="14.00">Colimit_Sigma</text>
</g>
<!-- Colimit_Sigma_sigma_diag_functor_equiv -->
<g id="node1" class="node">
<title>Colimit_Sigma_sigma_diag_functor_equiv</title>
<g id="a_node1"><a xlink:href="Colimit_Sigma.html#sigma_diag_functor_equiv" xlink:title="sigma_diag_functor_equiv">
<ellipse fill="#f070d1" stroke="black" cx="515" cy="-248.68" rx="130.77" ry="18"/>
<ellipse fill="none" stroke="black" cx="515" cy="-248.68" rx="134.77" ry="22"/>
<ellipse fill="none" stroke="black" cx="515" cy="-248.68" rx="138.78" ry="26"/>
<text text-anchor="middle" x="515" y="-244.98" font-family="Times,serif" font-size="14.00">sigma_diag_functor_equiv</text>
</a>
</g>
</g>
<!-- Colimit_Sigma_sigma_diagram_functor -->
<g id="node2" class="node">
<title>Colimit_Sigma_sigma_diagram_functor</title>
<g id="a_node2"><a xlink:href="Colimit_Sigma.html#sigma_diagram_functor" xlink:title="sigma_diagram_functor">
<ellipse fill="#f070d1" stroke="black" cx="534" cy="-141.68" rx="119.68" ry="18"/>
<text text-anchor="middle" x="534" y="-137.98" font-family="Times,serif" font-size="14.00">sigma_diagram_functor</text>
</a>
</g>
</g>
<!-- Colimit_Sigma_sigma_diag_functor_equiv&#45;&gt;Colimit_Sigma_sigma_diagram_functor -->
<g id="edge1" class="edge">
<title>Colimit_Sigma_sigma_diag_functor_equiv&#45;&gt;Colimit_Sigma_sigma_diagram_functor</title>
<path fill="none" stroke="black" d="M519.55,-222.53C522.43,-206.6 526.16,-186.02 529.1,-169.74"/>
<polygon fill="black" stroke="black" points="532.57,-170.22 530.91,-159.75 525.69,-168.97 532.57,-170.22"/>
</g>
<!-- Colimit_Sigma_sigma_diagram -->
<g id="node6" class="node">
<title>Colimit_Sigma_sigma_diagram</title>
<g id="a_node6"><a xlink:href="Colimit_Sigma.html#sigma_diagram" xlink:title="sigma_diagram">
<ellipse fill="#f070d1" stroke="black" cx="290" cy="-45.68" rx="81.49" ry="18"/>
<text text-anchor="middle" x="290" y="-41.98" font-family="Times,serif" font-size="14.00">sigma_diagram</text>
</a>
</g>
</g>
<!-- Colimit_Sigma_sigma_diagram_functor&#45;&gt;Colimit_Sigma_sigma_diagram -->
<g id="edge2" class="edge">
<title>Colimit_Sigma_sigma_diagram_functor&#45;&gt;Colimit_Sigma_sigma_diagram</title>
<path fill="none" stroke="black" d="M492.61,-124.73C449.92,-108.29 383.4,-82.66 338.33,-65.3"/>
<polygon fill="black" stroke="black" points="339.36,-61.94 328.77,-61.61 336.84,-68.47 339.36,-61.94"/>
</g>
<!-- Colimit_Sigma_iscolimit_sigma -->
<g id="node3" class="node">
<title>Colimit_Sigma_iscolimit_sigma</title>
<g id="a_node3"><a xlink:href="Colimit_Sigma.html#iscolimit_sigma" xlink:title="iscolimit_sigma">
<ellipse fill="#f070d1" stroke="black" cx="188" cy="-248.68" rx="82.58" ry="18"/>
<ellipse fill="none" stroke="black" cx="188" cy="-248.68" rx="86.58" ry="22"/>
<ellipse fill="none" stroke="black" cx="188" cy="-248.68" rx="90.59" ry="26"/>
<text text-anchor="middle" x="188" y="-244.98" font-family="Times,serif" font-size="14.00">iscolimit_sigma</text>
</a>
</g>
</g>
<!-- Colimit_Sigma_sigma_cocone -->
<g id="node4" class="node">
<title>Colimit_Sigma_sigma_cocone</title>
<g id="a_node4"><a xlink:href="Colimit_Sigma.html#sigma_cocone" xlink:title="sigma_cocone">
<ellipse fill="#f070d1" stroke="black" cx="91" cy="-141.68" rx="74.99" ry="18"/>
<text text-anchor="middle" x="91" y="-137.98" font-family="Times,serif" font-size="14.00">sigma_cocone</text>
</a>
</g>
</g>
<!-- Colimit_Sigma_iscolimit_sigma&#45;&gt;Colimit_Sigma_sigma_cocone -->
<g id="edge3" class="edge">
<title>Colimit_Sigma_iscolimit_sigma&#45;&gt;Colimit_Sigma_sigma_cocone</title>
<path fill="none" stroke="black" d="M165.5,-223.32C149.78,-206.3 128.88,-183.68 113.21,-166.72"/>
<polygon fill="black" stroke="black" points="115.78,-164.34 106.42,-159.37 110.64,-169.09 115.78,-164.34"/>
</g>
<!-- Colimit_Sigma_sigma_diagram_map -->
<g id="node5" class="node">
<title>Colimit_Sigma_sigma_diagram_map</title>
<g id="a_node5"><a xlink:href="Colimit_Sigma.html#sigma_diagram_map" xlink:title="sigma_diagram_map">
<ellipse fill="#f070d1" stroke="black" cx="290" cy="-141.68" rx="105.88" ry="18"/>
<text text-anchor="middle" x="290" y="-137.98" font-family="Times,serif" font-size="14.00">sigma_diagram_map</text>
</a>
</g>
</g>
<!-- Colimit_Sigma_iscolimit_sigma&#45;&gt;Colimit_Sigma_sigma_diagram_map -->
<g id="edge4" class="edge">
<title>Colimit_Sigma_iscolimit_sigma&#45;&gt;Colimit_Sigma_sigma_diagram_map</title>
<path fill="none" stroke="black" d="M211.66,-223.32C228.09,-206.41 249.9,-183.96 266.34,-167.04"/>
<polygon fill="black" stroke="black" points="269.01,-169.3 273.47,-159.69 263.99,-164.43 269.01,-169.3"/>
</g>
<!-- Colimit_Sigma_sigma_cocone&#45;&gt;Colimit_Sigma_sigma_diagram -->
<g id="edge5" class="edge">
<title>Colimit_Sigma_sigma_cocone&#45;&gt;Colimit_Sigma_sigma_diagram</title>
<path fill="none" stroke="black" d="M123.42,-125.37C157.33,-109.35 210.7,-84.14 247.86,-66.58"/>
<polygon fill="black" stroke="black" points="249.39,-69.73 256.94,-62.3 246.4,-63.4 249.39,-69.73"/>
</g>
<!-- Colimit_Sigma_sigma_diagram_map&#45;&gt;Colimit_Sigma_sigma_diagram -->
<g id="edge6" class="edge">
<title>Colimit_Sigma_sigma_diagram_map&#45;&gt;Colimit_Sigma_sigma_diagram</title>
<path fill="none" stroke="black" d="M290,-123.44C290,-109.66 290,-90.08 290,-74.14"/>
<polygon fill="black" stroke="black" points="293.5,-73.81 290,-63.81 286.5,-73.81 293.5,-73.81"/>
</g>
</g>
</svg>
