<?xml version="1.0" encoding="UTF-8" standalone="no"?>
<!DOCTYPE svg PUBLIC "-//W3C//DTD SVG 1.1//EN"
 "http://www.w3.org/Graphics/SVG/1.1/DTD/svg11.dtd">
<!-- Generated by graphviz version 2.43.0 (0)
 -->
<!-- Title: HoTT_Algebra_AbGroups_AbPushout Pages: 1 -->
<svg width="1670pt" height="839pt"
 viewBox="0.00 0.00 1670.00 839.00" xmlns="http://www.w3.org/2000/svg" xmlns:xlink="http://www.w3.org/1999/xlink">
<g id="graph0" class="graph" transform="scale(1 1) rotate(0) translate(4 835)">
<title>HoTT_Algebra_AbGroups_AbPushout</title>
<polygon fill="white" stroke="transparent" points="-4,4 -4,-835 1666,-835 1666,4 -4,4"/>
<g id="clust1" class="cluster">
<title>cluster_AbPushout</title>
<polygon fill="#ffffc3" stroke="black" points="8,-13.32 8,-817.68 1654,-817.68 1654,-13.32 8,-13.32"/>
<text text-anchor="middle" x="55" y="-802.48" font-family="Times,serif" font-size="14.00">AbPushout</text>
</g>
<!-- AbPushout_ab_pushout_surjection_inr -->
<g id="node1" class="node">
<title>AbPushout_ab_pushout_surjection_inr</title>
<g id="a_node1"><a xlink:href="AbPushout.html#ab_pushout_surjection_inr" xlink:title="ab_pushout_surjection_inr">
<ellipse fill="#f070d1" stroke="black" cx="1216" cy="-576.32" rx="131.88" ry="18"/>
<ellipse fill="none" stroke="black" cx="1216" cy="-576.32" rx="135.88" ry="22"/>
<ellipse fill="none" stroke="black" cx="1216" cy="-576.32" rx="139.88" ry="26"/>
<text text-anchor="middle" x="1216" y="-572.62" font-family="Times,serif" font-size="14.00">ab_pushout_surjection_inr</text>
</a>
</g>
</g>
<!-- AbPushout_ab_pushout_commsq -->
<g id="node9" class="node">
<title>AbPushout_ab_pushout_commsq</title>
<g id="a_node9"><a xlink:href="AbPushout.html#ab_pushout_commsq" xlink:title="ab_pushout_commsq">
<ellipse fill="#f070d1" stroke="black" cx="943" cy="-429.32" rx="106.68" ry="18"/>
<text text-anchor="middle" x="943" y="-425.62" font-family="Times,serif" font-size="14.00">ab_pushout_commsq</text>
</a>
</g>
</g>
<!-- AbPushout_ab_pushout_surjection_inr&#45;&gt;AbPushout_ab_pushout_commsq -->
<g id="edge1" class="edge">
<title>AbPushout_ab_pushout_surjection_inr&#45;&gt;AbPushout_ab_pushout_commsq</title>
<path fill="none" stroke="black" d="M1171.23,-551.54C1118.82,-523.71 1032.84,-478.04 982.72,-451.42"/>
<polygon fill="black" stroke="black" points="984.27,-448.28 973.79,-446.68 980.98,-454.46 984.27,-448.28"/>
</g>
<!-- AbPushout_functor_ab_pushout -->
<g id="node2" class="node">
<title>AbPushout_functor_ab_pushout</title>
<g id="a_node2"><a xlink:href="AbPushout.html#functor_ab_pushout" xlink:title="functor_ab_pushout">
<ellipse fill="#f070d1" stroke="black" cx="714" cy="-576.32" rx="102.08" ry="18"/>
<ellipse fill="none" stroke="black" cx="714" cy="-576.32" rx="106.08" ry="22"/>
<ellipse fill="none" stroke="black" cx="714" cy="-576.32" rx="110.08" ry="26"/>
<text text-anchor="middle" x="714" y="-572.62" font-family="Times,serif" font-size="14.00">functor_ab_pushout</text>
</a>
</g>
</g>
<!-- AbPushout_functor_ab_pushout&#45;&gt;AbPushout_ab_pushout_commsq -->
<g id="edge2" class="edge">
<title>AbPushout_functor_ab_pushout&#45;&gt;AbPushout_ab_pushout_commsq</title>
<path fill="none" stroke="black" d="M751.3,-551.7C794.73,-524.21 865.88,-479.15 908.2,-452.36"/>
<polygon fill="black" stroke="black" points="910.2,-455.23 916.78,-446.93 906.45,-449.32 910.2,-455.23"/>
</g>
<!-- AbPushout_ab_pushout_rec -->
<g id="node13" class="node">
<title>AbPushout_ab_pushout_rec</title>
<g id="a_node13"><a xlink:href="AbPushout.html#ab_pushout_rec" xlink:title="ab_pushout_rec">
<ellipse fill="#f070d1" stroke="black" cx="721" cy="-429.32" rx="83.39" ry="18"/>
<text text-anchor="middle" x="721" y="-425.62" font-family="Times,serif" font-size="14.00">ab_pushout_rec</text>
</a>
</g>
</g>
<!-- AbPushout_functor_ab_pushout&#45;&gt;AbPushout_ab_pushout_rec -->
<g id="edge3" class="edge">
<title>AbPushout_functor_ab_pushout&#45;&gt;AbPushout_ab_pushout_rec</title>
<path fill="none" stroke="black" d="M715.22,-550.07C716.47,-524.25 718.4,-484.28 719.68,-457.71"/>
<polygon fill="black" stroke="black" points="723.18,-457.73 720.17,-447.57 716.19,-457.39 723.18,-457.73"/>
</g>
<!-- AbPushout_ab_pushout_embedding_inl -->
<g id="node3" class="node">
<title>AbPushout_ab_pushout_embedding_inl</title>
<g id="a_node3"><a xlink:href="AbPushout.html#ab_pushout_embedding_inl" xlink:title="ab_pushout_embedding_inl">
<ellipse fill="#f070d1" stroke="black" cx="1232" cy="-429.32" rx="135.69" ry="18"/>
<ellipse fill="none" stroke="black" cx="1232" cy="-429.32" rx="139.68" ry="22"/>
<ellipse fill="none" stroke="black" cx="1232" cy="-429.32" rx="143.68" ry="26"/>
<text text-anchor="middle" x="1232" y="-425.62" font-family="Times,serif" font-size="14.00">ab_pushout_embedding_inl</text>
</a>
</g>
</g>
<!-- AbPushout_path_ab_pushout -->
<g id="node4" class="node">
<title>AbPushout_path_ab_pushout</title>
<g id="a_node4"><a xlink:href="AbPushout.html#path_ab_pushout" xlink:title="path_ab_pushout">
<ellipse fill="#f070d1" stroke="black" cx="1232" cy="-296.32" rx="89.08" ry="18"/>
<text text-anchor="middle" x="1232" y="-292.62" font-family="Times,serif" font-size="14.00">path_ab_pushout</text>
</a>
</g>
</g>
<!-- AbPushout_ab_pushout_embedding_inl&#45;&gt;AbPushout_path_ab_pushout -->
<g id="edge4" class="edge">
<title>AbPushout_ab_pushout_embedding_inl&#45;&gt;AbPushout_path_ab_pushout</title>
<path fill="none" stroke="black" d="M1232,-403.06C1232,-380.6 1232,-347.82 1232,-324.73"/>
<polygon fill="black" stroke="black" points="1235.5,-324.57 1232,-314.57 1228.5,-324.57 1235.5,-324.57"/>
</g>
<!-- AbPushout_ab_pushout_inl -->
<g id="node11" class="node">
<title>AbPushout_ab_pushout_inl</title>
<g id="a_node11"><a xlink:href="AbPushout.html#ab_pushout_inl" xlink:title="ab_pushout_inl">
<ellipse fill="#f070d1" stroke="black" cx="1045" cy="-296.32" rx="79.89" ry="18"/>
<text text-anchor="middle" x="1045" y="-292.62" font-family="Times,serif" font-size="14.00">ab_pushout_inl</text>
</a>
</g>
</g>
<!-- AbPushout_ab_pushout_embedding_inl&#45;&gt;AbPushout_ab_pushout_inl -->
<g id="edge5" class="edge">
<title>AbPushout_ab_pushout_embedding_inl&#45;&gt;AbPushout_ab_pushout_inl</title>
<path fill="none" stroke="black" d="M1197.26,-403.99C1162.75,-379.81 1110.26,-343.04 1076.81,-319.6"/>
<polygon fill="black" stroke="black" points="1078.52,-316.53 1068.32,-313.66 1074.5,-322.26 1078.52,-316.53"/>
</g>
<!-- AbPushout_ab_pushout -->
<g id="node14" class="node">
<title>AbPushout_ab_pushout</title>
<g id="a_node14"><a xlink:href="AbPushout.html#ab_pushout" xlink:title="ab_pushout">
<ellipse fill="#f070d1" stroke="black" cx="995" cy="-176.32" rx="63.89" ry="18"/>
<text text-anchor="middle" x="995" y="-172.62" font-family="Times,serif" font-size="14.00">ab_pushout</text>
</a>
</g>
</g>
<!-- AbPushout_path_ab_pushout&#45;&gt;AbPushout_ab_pushout -->
<g id="edge6" class="edge">
<title>AbPushout_path_ab_pushout&#45;&gt;AbPushout_ab_pushout</title>
<path fill="none" stroke="black" d="M1200.04,-279.41C1157.01,-257.99 1080.52,-219.9 1034.11,-196.79"/>
<polygon fill="black" stroke="black" points="1035.48,-193.57 1024.96,-192.24 1032.36,-199.83 1035.48,-193.57"/>
</g>
<!-- AbPushout_isequiv_ab_pushout_rec -->
<g id="node5" class="node">
<title>AbPushout_isequiv_ab_pushout_rec</title>
<g id="a_node5"><a xlink:href="AbPushout.html#isequiv_ab_pushout_rec" xlink:title="isequiv_ab_pushout_rec">
<ellipse fill="#f070d1" stroke="black" cx="701" cy="-722.32" rx="120.46" ry="18"/>
<ellipse fill="none" stroke="black" cx="701" cy="-722.32" rx="124.47" ry="22"/>
<ellipse fill="none" stroke="black" cx="701" cy="-722.32" rx="128.48" ry="26"/>
<text text-anchor="middle" x="701" y="-718.62" font-family="Times,serif" font-size="14.00">isequiv_ab_pushout_rec</text>
</a>
</g>
</g>
<!-- AbPushout_ab_pushout_rec_beta -->
<g id="node8" class="node">
<title>AbPushout_ab_pushout_rec_beta</title>
<g id="a_node8"><a xlink:href="AbPushout.html#ab_pushout_rec_beta" xlink:title="ab_pushout_rec_beta">
<ellipse fill="#f070d1" stroke="black" cx="950" cy="-576.32" rx="107.78" ry="18"/>
<text text-anchor="middle" x="950" y="-572.62" font-family="Times,serif" font-size="14.00">ab_pushout_rec_beta</text>
</a>
</g>
</g>
<!-- AbPushout_isequiv_ab_pushout_rec&#45;&gt;AbPushout_ab_pushout_rec_beta -->
<g id="edge7" class="edge">
<title>AbPushout_isequiv_ab_pushout_rec&#45;&gt;AbPushout_ab_pushout_rec_beta</title>
<path fill="none" stroke="black" d="M742.12,-697.54C789.64,-670.06 867.17,-625.22 912.92,-598.77"/>
<polygon fill="black" stroke="black" points="914.72,-601.77 921.62,-593.73 911.21,-595.71 914.72,-601.77"/>
</g>
<!-- AbPushout_ab_pushout_rec_uncurried -->
<g id="node12" class="node">
<title>AbPushout_ab_pushout_rec_uncurried</title>
<g id="a_node12"><a xlink:href="AbPushout.html#ab_pushout_rec_uncurried" xlink:title="ab_pushout_rec_uncurried">
<ellipse fill="#f070d1" stroke="black" cx="453" cy="-576.32" rx="132.68" ry="18"/>
<text text-anchor="middle" x="453" y="-572.62" font-family="Times,serif" font-size="14.00">ab_pushout_rec_uncurried</text>
</a>
</g>
</g>
<!-- AbPushout_isequiv_ab_pushout_rec&#45;&gt;AbPushout_ab_pushout_rec_uncurried -->
<g id="edge8" class="edge">
<title>AbPushout_isequiv_ab_pushout_rec&#45;&gt;AbPushout_ab_pushout_rec_uncurried</title>
<path fill="none" stroke="black" d="M660.05,-697.54C612.84,-670.13 535.92,-625.47 490.31,-598.99"/>
<polygon fill="black" stroke="black" points="492.03,-595.94 481.62,-593.94 488.51,-601.99 492.03,-595.94"/>
</g>
<!-- AbPushout_ab_pushout_rec_beta_right -->
<g id="node6" class="node">
<title>AbPushout_ab_pushout_rec_beta_right</title>
<g id="a_node6"><a xlink:href="AbPushout.html#ab_pushout_rec_beta_right" xlink:title="ab_pushout_rec_beta_right">
<ellipse fill="#f070d1" stroke="black" cx="159" cy="-576.32" rx="135.37" ry="18"/>
<ellipse fill="none" stroke="black" cx="159" cy="-576.32" rx="139.37" ry="22"/>
<ellipse fill="none" stroke="black" cx="159" cy="-576.32" rx="143.38" ry="26"/>
<text text-anchor="middle" x="159" y="-572.62" font-family="Times,serif" font-size="14.00">ab_pushout_rec_beta_right</text>
</a>
</g>
</g>
<!-- AbPushout_ab_pushout_inr -->
<g id="node10" class="node">
<title>AbPushout_ab_pushout_inr</title>
<g id="a_node10"><a xlink:href="AbPushout.html#ab_pushout_inr" xlink:title="ab_pushout_inr">
<ellipse fill="#f070d1" stroke="black" cx="846" cy="-296.32" rx="81.49" ry="18"/>
<text text-anchor="middle" x="846" y="-292.62" font-family="Times,serif" font-size="14.00">ab_pushout_inr</text>
</a>
</g>
</g>
<!-- AbPushout_ab_pushout_rec_beta_right&#45;&gt;AbPushout_ab_pushout_inr -->
<g id="edge9" class="edge">
<title>AbPushout_ab_pushout_rec_beta_right&#45;&gt;AbPushout_ab_pushout_inr</title>
<path fill="none" stroke="black" d="M215.8,-552.34C348.52,-498.63 676.91,-365.75 799.16,-316.28"/>
<polygon fill="black" stroke="black" points="800.67,-319.44 808.63,-312.44 798.05,-312.95 800.67,-319.44"/>
</g>
<!-- AbPushout_ab_pushout_rec_beta_right&#45;&gt;AbPushout_ab_pushout_rec -->
<g id="edge10" class="edge">
<title>AbPushout_ab_pushout_rec_beta_right&#45;&gt;AbPushout_ab_pushout_rec</title>
<path fill="none" stroke="black" d="M238.92,-554.7C352.42,-525.42 557.83,-472.42 659.95,-446.07"/>
<polygon fill="black" stroke="black" points="660.99,-449.42 669.8,-443.53 659.24,-442.64 660.99,-449.42"/>
</g>
<!-- AbPushout_ab_pushout_rec_beta_left -->
<g id="node7" class="node">
<title>AbPushout_ab_pushout_rec_beta_left</title>
<g id="a_node7"><a xlink:href="AbPushout.html#ab_pushout_rec_beta_left" xlink:title="ab_pushout_rec_beta_left">
<ellipse fill="#f070d1" stroke="black" cx="1510" cy="-576.32" rx="128.08" ry="18"/>
<ellipse fill="none" stroke="black" cx="1510" cy="-576.32" rx="132.08" ry="22"/>
<ellipse fill="none" stroke="black" cx="1510" cy="-576.32" rx="136.08" ry="26"/>
<text text-anchor="middle" x="1510" y="-572.62" font-family="Times,serif" font-size="14.00">ab_pushout_rec_beta_left</text>
</a>
</g>
</g>
<!-- AbPushout_ab_pushout_rec_beta_left&#45;&gt;AbPushout_ab_pushout_inl -->
<g id="edge11" class="edge">
<title>AbPushout_ab_pushout_rec_beta_left&#45;&gt;AbPushout_ab_pushout_inl</title>
<path fill="none" stroke="black" d="M1423.45,-556.26C1304.62,-529.35 1102.87,-480.66 1079,-455.32 1061.51,-436.76 1051.71,-364.86 1047.5,-324.75"/>
<polygon fill="black" stroke="black" points="1050.96,-324.19 1046.49,-314.59 1044,-324.89 1050.96,-324.19"/>
</g>
<!-- AbPushout_ab_pushout_rec_beta_left&#45;&gt;AbPushout_ab_pushout_rec -->
<g id="edge12" class="edge">
<title>AbPushout_ab_pushout_rec_beta_left&#45;&gt;AbPushout_ab_pushout_rec</title>
<path fill="none" stroke="black" d="M1411.5,-558.34C1236.25,-528.08 883.35,-466.91 827,-455.32 812.78,-452.4 797.55,-448.98 783.21,-445.63"/>
<polygon fill="black" stroke="black" points="783.97,-442.21 773.44,-443.32 782.36,-449.02 783.97,-442.21"/>
</g>
<!-- AbPushout_ab_pushout_rec_beta&#45;&gt;AbPushout_ab_pushout_commsq -->
<g id="edge13" class="edge">
<title>AbPushout_ab_pushout_rec_beta&#45;&gt;AbPushout_ab_pushout_commsq</title>
<path fill="none" stroke="black" d="M949.17,-558.12C947.97,-533.27 945.74,-487.06 944.31,-457.55"/>
<polygon fill="black" stroke="black" points="947.81,-457.32 943.83,-447.5 940.82,-457.66 947.81,-457.32"/>
</g>
<!-- AbPushout_ab_pushout_rec_beta&#45;&gt;AbPushout_ab_pushout_rec -->
<g id="edge14" class="edge">
<title>AbPushout_ab_pushout_rec_beta&#45;&gt;AbPushout_ab_pushout_rec</title>
<path fill="none" stroke="black" d="M923.73,-558.69C882.21,-532.4 801.41,-481.23 755.34,-452.07"/>
<polygon fill="black" stroke="black" points="756.93,-448.93 746.61,-446.54 753.19,-454.85 756.93,-448.93"/>
</g>
<!-- AbPushout_ab_pushout_commsq&#45;&gt;AbPushout_ab_pushout_inr -->
<g id="edge15" class="edge">
<title>AbPushout_ab_pushout_commsq&#45;&gt;AbPushout_ab_pushout_inr</title>
<path fill="none" stroke="black" d="M930.32,-411.2C913.62,-388.64 884.11,-348.79 864.81,-322.72"/>
<polygon fill="black" stroke="black" points="867.45,-320.41 858.68,-314.45 861.82,-324.57 867.45,-320.41"/>
</g>
<!-- AbPushout_ab_pushout_commsq&#45;&gt;AbPushout_ab_pushout_inl -->
<g id="edge16" class="edge">
<title>AbPushout_ab_pushout_commsq&#45;&gt;AbPushout_ab_pushout_inl</title>
<path fill="none" stroke="black" d="M956.33,-411.2C973.97,-388.54 1005.2,-348.44 1025.49,-322.38"/>
<polygon fill="black" stroke="black" points="1028.28,-324.49 1031.66,-314.45 1022.76,-320.19 1028.28,-324.49"/>
</g>
<!-- AbPushout_ab_pushout_inr&#45;&gt;AbPushout_ab_pushout -->
<g id="edge17" class="edge">
<title>AbPushout_ab_pushout_inr&#45;&gt;AbPushout_ab_pushout</title>
<path fill="none" stroke="black" d="M866.72,-278.92C892.63,-258.4 937.12,-223.16 966.3,-200.05"/>
<polygon fill="black" stroke="black" points="968.79,-202.54 974.46,-193.59 964.45,-197.06 968.79,-202.54"/>
</g>
<!-- AbPushout_ab_pushout_inl&#45;&gt;AbPushout_ab_pushout -->
<g id="edge18" class="edge">
<title>AbPushout_ab_pushout_inl&#45;&gt;AbPushout_ab_pushout</title>
<path fill="none" stroke="black" d="M1037.73,-278.16C1029.47,-258.68 1015.9,-226.64 1006.27,-203.91"/>
<polygon fill="black" stroke="black" points="1009.4,-202.34 1002.28,-194.5 1002.96,-205.07 1009.4,-202.34"/>
</g>
<!-- AbPushout_ab_pushout_rec_uncurried&#45;&gt;AbPushout_ab_pushout_rec -->
<g id="edge19" class="edge">
<title>AbPushout_ab_pushout_rec_uncurried&#45;&gt;AbPushout_ab_pushout_rec</title>
<path fill="none" stroke="black" d="M483.74,-558.69C532.87,-532.11 628.99,-480.11 682.58,-451.11"/>
<polygon fill="black" stroke="black" points="684.3,-454.16 691.43,-446.32 680.97,-448 684.3,-454.16"/>
</g>
<!-- AbPushout_ab_pushout_rec&#45;&gt;AbPushout_ab_pushout -->
<g id="edge20" class="edge">
<title>AbPushout_ab_pushout_rec&#45;&gt;AbPushout_ab_pushout</title>
<path fill="none" stroke="black" d="M767.02,-414.16C814.92,-397.32 889.31,-364.95 936,-314.32 943.9,-305.75 969.88,-241.46 984.59,-204.07"/>
<polygon fill="black" stroke="black" points="988.03,-204.89 988.42,-194.31 981.51,-202.34 988.03,-204.89"/>
</g>
<!-- AbPushout_ab_pushout_subgroup -->
<g id="node15" class="node">
<title>AbPushout_ab_pushout_subgroup</title>
<g id="a_node15"><a xlink:href="AbPushout.html#ab_pushout_subgroup" xlink:title="ab_pushout_subgroup">
<ellipse fill="#f070d1" stroke="black" cx="995" cy="-56.32" rx="112.38" ry="18"/>
<text text-anchor="middle" x="995" y="-52.62" font-family="Times,serif" font-size="14.00">ab_pushout_subgroup</text>
</a>
</g>
</g>
<!-- AbPushout_ab_pushout&#45;&gt;AbPushout_ab_pushout_subgroup -->
<g id="edge21" class="edge">
<title>AbPushout_ab_pushout&#45;&gt;AbPushout_ab_pushout_subgroup</title>
<path fill="none" stroke="black" d="M995,-158.16C995,-138.85 995,-107.21 995,-84.52"/>
<polygon fill="black" stroke="black" points="998.5,-84.5 995,-74.5 991.5,-84.5 998.5,-84.5"/>
</g>
</g>
</svg>
