<?xml version="1.0" encoding="UTF-8" standalone="no"?>
<!DOCTYPE svg PUBLIC "-//W3C//DTD SVG 1.1//EN"
 "http://www.w3.org/Graphics/SVG/1.1/DTD/svg11.dtd">
<!-- Generated by graphviz version 2.43.0 (0)
 -->
<!-- Title: HoTT_Basics_Contractible Pages: 1 -->
<svg width="1471pt" height="740pt"
 viewBox="0.00 0.00 1471.00 739.50" xmlns="http://www.w3.org/2000/svg" xmlns:xlink="http://www.w3.org/1999/xlink">
<g id="graph0" class="graph" transform="scale(1 1) rotate(0) translate(4 735.5)">
<title>HoTT_Basics_Contractible</title>
<polygon fill="white" stroke="transparent" points="-4,4 -4,-735.5 1467,-735.5 1467,4 -4,4"/>
<g id="clust1" class="cluster">
<title>cluster_Contractible</title>
<polygon fill="#ffffc3" stroke="black" points="8,-16.48 8,-715.02 1455,-715.02 1455,-16.48 8,-16.48"/>
<text text-anchor="middle" x="60.5" y="-699.82" font-family="Times,serif" font-size="14.00">Contractible</text>
</g>
<!-- Contractible_Contr_ind -->
<g id="node1" class="node">
<title>Contractible_Contr_ind</title>
<g id="a_node1"><a xlink:href="Contractible.html#Contr_ind" xlink:title="Contr_ind">
<ellipse fill="#f070d1" stroke="black" cx="1373" cy="-597.48" rx="55.8" ry="18"/>
<ellipse fill="none" stroke="black" cx="1373" cy="-597.48" rx="59.8" ry="22"/>
<ellipse fill="none" stroke="black" cx="1373" cy="-597.48" rx="63.79" ry="26"/>
<text text-anchor="middle" x="1373" y="-593.78" font-family="Times,serif" font-size="14.00">Contr_ind</text>
</a>
</g>
</g>
<!-- Contractible_contr_change_center -->
<g id="node2" class="node">
<title>Contractible_contr_change_center</title>
<g id="a_node2"><a xlink:href="Contractible.html#contr_change_center" xlink:title="contr_change_center">
<ellipse fill="#f070d1" stroke="black" cx="985" cy="-416.48" rx="106.67" ry="18"/>
<ellipse fill="none" stroke="black" cx="985" cy="-416.48" rx="110.68" ry="22"/>
<ellipse fill="none" stroke="black" cx="985" cy="-416.48" rx="114.68" ry="26"/>
<text text-anchor="middle" x="985" y="-412.78" font-family="Times,serif" font-size="14.00">contr_change_center</text>
</a>
</g>
</g>
<!-- Contractible_path_contr -->
<g id="node16" class="node">
<title>Contractible_path_contr</title>
<g id="a_node16"><a xlink:href="Contractible.html#path_contr" xlink:title="path_contr">
<ellipse fill="#f070d1" stroke="black" cx="604" cy="-234.48" rx="60.39" ry="18"/>
<text text-anchor="middle" x="604" y="-230.78" font-family="Times,serif" font-size="14.00">path_contr</text>
</a>
</g>
</g>
<!-- Contractible_contr_change_center&#45;&gt;Contractible_path_contr -->
<g id="edge1" class="edge">
<title>Contractible_contr_change_center&#45;&gt;Contractible_path_contr</title>
<path fill="none" stroke="black" d="M936.75,-392.69C860.82,-356.82 714.86,-287.86 644.24,-254.49"/>
<polygon fill="black" stroke="black" points="645.33,-251.14 634.79,-250.03 642.33,-257.47 645.33,-251.14"/>
</g>
<!-- Contractible_contr_retract -->
<g id="node3" class="node">
<title>Contractible_contr_retract</title>
<g id="a_node3"><a xlink:href="Contractible.html#contr_retract" xlink:title="contr_retract">
<ellipse fill="#f070d1" stroke="black" cx="1202" cy="-597.48" rx="71.49" ry="18"/>
<ellipse fill="none" stroke="black" cx="1202" cy="-597.48" rx="75.49" ry="22"/>
<ellipse fill="none" stroke="black" cx="1202" cy="-597.48" rx="79.49" ry="26"/>
<text text-anchor="middle" x="1202" y="-593.78" font-family="Times,serif" font-size="14.00">contr_retract</text>
</a>
</g>
</g>
<!-- Contractible_contr_dom_equiv -->
<g id="node4" class="node">
<title>Contractible_contr_dom_equiv</title>
<g id="a_node4"><a xlink:href="Contractible.html#contr_dom_equiv" xlink:title="contr_dom_equiv">
<ellipse fill="#f070d1" stroke="black" cx="987" cy="-597.48" rx="89.08" ry="18"/>
<ellipse fill="none" stroke="black" cx="987" cy="-597.48" rx="93.08" ry="22"/>
<ellipse fill="none" stroke="black" cx="987" cy="-597.48" rx="97.08" ry="26"/>
<text text-anchor="middle" x="987" y="-593.78" font-family="Times,serif" font-size="14.00">contr_dom_equiv</text>
</a>
</g>
</g>
<!-- Contractible_ap_pr1_path_basedpaths_ -->
<g id="node5" class="node">
<title>Contractible_ap_pr1_path_basedpaths_</title>
<g id="a_node5"><a xlink:href="Contractible.html#ap_pr1_path_basedpaths'" xlink:title="ap_pr1_path_basedpaths&#39;">
<ellipse fill="#f070d1" stroke="black" cx="1311" cy="-234.48" rx="128.08" ry="18"/>
<ellipse fill="none" stroke="black" cx="1311" cy="-234.48" rx="132.08" ry="22"/>
<ellipse fill="none" stroke="black" cx="1311" cy="-234.48" rx="136.08" ry="26"/>
<text text-anchor="middle" x="1311" y="-230.78" font-family="Times,serif" font-size="14.00">ap_pr1_path_basedpaths&#39;</text>
</a>
</g>
</g>
<!-- Contractible_path_basedpaths_ -->
<g id="node10" class="node">
<title>Contractible_path_basedpaths_</title>
<g id="a_node10"><a xlink:href="Contractible.html#path_basedpaths'" xlink:title="path_basedpaths&#39;">
<ellipse fill="#f070d1" stroke="black" cx="1186" cy="-70.48" rx="91.78" ry="18"/>
<text text-anchor="middle" x="1186" y="-66.78" font-family="Times,serif" font-size="14.00">path_basedpaths&#39;</text>
</a>
</g>
</g>
<!-- Contractible_ap_pr1_path_basedpaths_&#45;&gt;Contractible_path_basedpaths_ -->
<g id="edge2" class="edge">
<title>Contractible_ap_pr1_path_basedpaths_&#45;&gt;Contractible_path_basedpaths_</title>
<path fill="none" stroke="black" d="M1291.74,-208.53C1268.33,-178.19 1229.04,-127.27 1205.51,-96.77"/>
<polygon fill="black" stroke="black" points="1208.2,-94.53 1199.32,-88.75 1202.66,-98.81 1208.2,-94.53"/>
</g>
<!-- Contractible_ap_pr1_path_basedpaths -->
<g id="node6" class="node">
<title>Contractible_ap_pr1_path_basedpaths</title>
<g id="a_node6"><a xlink:href="Contractible.html#ap_pr1_path_basedpaths" xlink:title="ap_pr1_path_basedpaths">
<ellipse fill="#f070d1" stroke="black" cx="816" cy="-234.48" rx="125.38" ry="18"/>
<ellipse fill="none" stroke="black" cx="816" cy="-234.48" rx="129.38" ry="22"/>
<ellipse fill="none" stroke="black" cx="816" cy="-234.48" rx="133.38" ry="26"/>
<text text-anchor="middle" x="816" y="-230.78" font-family="Times,serif" font-size="14.00">ap_pr1_path_basedpaths</text>
</a>
</g>
</g>
<!-- Contractible_path_basedpaths -->
<g id="node13" class="node">
<title>Contractible_path_basedpaths</title>
<g id="a_node13"><a xlink:href="Contractible.html#path_basedpaths" xlink:title="path_basedpaths">
<ellipse fill="#f070d1" stroke="black" cx="624" cy="-70.48" rx="89.08" ry="18"/>
<text text-anchor="middle" x="624" y="-66.78" font-family="Times,serif" font-size="14.00">path_basedpaths</text>
</a>
</g>
</g>
<!-- Contractible_ap_pr1_path_basedpaths&#45;&gt;Contractible_path_basedpaths -->
<g id="edge3" class="edge">
<title>Contractible_ap_pr1_path_basedpaths&#45;&gt;Contractible_path_basedpaths</title>
<path fill="none" stroke="black" d="M786.84,-208.88C750.07,-177.86 687.33,-124.92 651.41,-94.61"/>
<polygon fill="black" stroke="black" points="653.64,-91.92 643.74,-88.14 649.13,-97.27 653.64,-91.92"/>
</g>
<!-- Contractible_ap_pr1_path_contr_basedpaths_ -->
<g id="node7" class="node">
<title>Contractible_ap_pr1_path_contr_basedpaths_</title>
<g id="a_node7"><a xlink:href="Contractible.html#ap_pr1_path_contr_basedpaths'" xlink:title="ap_pr1_path_contr_basedpaths&#39;">
<ellipse fill="#f070d1" stroke="black" cx="1282" cy="-416.48" rx="156.77" ry="18"/>
<ellipse fill="none" stroke="black" cx="1282" cy="-416.48" rx="160.77" ry="22"/>
<ellipse fill="none" stroke="black" cx="1282" cy="-416.48" rx="164.77" ry="26"/>
<text text-anchor="middle" x="1282" y="-412.78" font-family="Times,serif" font-size="14.00">ap_pr1_path_contr_basedpaths&#39;</text>
</a>
</g>
</g>
<!-- Contractible_contr_basedpaths_ -->
<g id="node9" class="node">
<title>Contractible_contr_basedpaths_</title>
<g id="a_node9"><a xlink:href="Contractible.html#contr_basedpaths'" xlink:title="contr_basedpaths&#39;">
<ellipse fill="#f070d1" stroke="black" cx="1062" cy="-234.48" rx="94.78" ry="18"/>
<text text-anchor="middle" x="1062" y="-230.78" font-family="Times,serif" font-size="14.00">contr_basedpaths&#39;</text>
</a>
</g>
</g>
<!-- Contractible_ap_pr1_path_contr_basedpaths_&#45;&gt;Contractible_contr_basedpaths_ -->
<g id="edge4" class="edge">
<title>Contractible_ap_pr1_path_contr_basedpaths_&#45;&gt;Contractible_contr_basedpaths_</title>
<path fill="none" stroke="black" d="M1251.87,-390.83C1209.18,-355.9 1131.65,-292.47 1090.09,-258.47"/>
<polygon fill="black" stroke="black" points="1092.24,-255.7 1082.28,-252.08 1087.81,-261.12 1092.24,-255.7"/>
</g>
<!-- Contractible_ap_pr1_path_contr_basedpaths_&#45;&gt;Contractible_path_contr -->
<g id="edge5" class="edge">
<title>Contractible_ap_pr1_path_contr_basedpaths_&#45;&gt;Contractible_path_contr</title>
<path fill="none" stroke="black" d="M1190.1,-394.88C1070.39,-367.4 855.02,-315.75 674,-260.48 666.1,-258.07 657.78,-255.31 649.74,-252.51"/>
<polygon fill="black" stroke="black" points="650.71,-249.14 640.12,-249.11 648.38,-255.74 650.71,-249.14"/>
</g>
<!-- Contractible_ap_pr1_path_contr_basedpaths -->
<g id="node8" class="node">
<title>Contractible_ap_pr1_path_contr_basedpaths</title>
<g id="a_node8"><a xlink:href="Contractible.html#ap_pr1_path_contr_basedpaths" xlink:title="ap_pr1_path_contr_basedpaths">
<ellipse fill="#f070d1" stroke="black" cx="484" cy="-416.48" rx="154.07" ry="18"/>
<ellipse fill="none" stroke="black" cx="484" cy="-416.48" rx="158.07" ry="22"/>
<ellipse fill="none" stroke="black" cx="484" cy="-416.48" rx="162.07" ry="26"/>
<text text-anchor="middle" x="484" y="-412.78" font-family="Times,serif" font-size="14.00">ap_pr1_path_contr_basedpaths</text>
</a>
</g>
</g>
<!-- Contractible_contr_basedpaths -->
<g id="node12" class="node">
<title>Contractible_contr_basedpaths</title>
<g id="a_node12"><a xlink:href="Contractible.html#contr_basedpaths" xlink:title="contr_basedpaths">
<ellipse fill="#f070d1" stroke="black" cx="433" cy="-234.48" rx="92.88" ry="18"/>
<text text-anchor="middle" x="433" y="-230.78" font-family="Times,serif" font-size="14.00">contr_basedpaths</text>
</a>
</g>
</g>
<!-- Contractible_ap_pr1_path_contr_basedpaths&#45;&gt;Contractible_contr_basedpaths -->
<g id="edge6" class="edge">
<title>Contractible_ap_pr1_path_contr_basedpaths&#45;&gt;Contractible_contr_basedpaths</title>
<path fill="none" stroke="black" d="M476.91,-390.46C467.38,-356.84 450.52,-297.33 440.7,-262.65"/>
<polygon fill="black" stroke="black" points="443.98,-261.41 437.89,-252.74 437.25,-263.32 443.98,-261.41"/>
</g>
<!-- Contractible_ap_pr1_path_contr_basedpaths&#45;&gt;Contractible_path_contr -->
<g id="edge7" class="edge">
<title>Contractible_ap_pr1_path_contr_basedpaths&#45;&gt;Contractible_path_contr</title>
<path fill="none" stroke="black" d="M500.69,-390.46C523.5,-356.23 564.22,-295.15 587.13,-260.78"/>
<polygon fill="black" stroke="black" points="590.19,-262.51 592.83,-252.25 584.37,-258.63 590.19,-262.51"/>
</g>
<!-- Contractible_contr_basedpaths_&#45;&gt;Contractible_path_basedpaths_ -->
<g id="edge8" class="edge">
<title>Contractible_contr_basedpaths_&#45;&gt;Contractible_path_basedpaths_</title>
<path fill="none" stroke="black" d="M1075.04,-216.45C1096.84,-187.97 1140.83,-130.5 1166.38,-97.11"/>
<polygon fill="black" stroke="black" points="1169.47,-98.84 1172.77,-88.77 1163.91,-94.59 1169.47,-98.84"/>
</g>
<!-- Contractible_contr_basedpaths_etashort -->
<g id="node11" class="node">
<title>Contractible_contr_basedpaths_etashort</title>
<g id="a_node11"><a xlink:href="Contractible.html#contr_basedpaths_etashort" xlink:title="contr_basedpaths_etashort">
<ellipse fill="#f070d1" stroke="black" cx="160" cy="-416.48" rx="135.69" ry="18"/>
<ellipse fill="none" stroke="black" cx="160" cy="-416.48" rx="139.68" ry="22"/>
<ellipse fill="none" stroke="black" cx="160" cy="-416.48" rx="143.68" ry="26"/>
<text text-anchor="middle" x="160" y="-412.78" font-family="Times,serif" font-size="14.00">contr_basedpaths_etashort</text>
</a>
</g>
</g>
<!-- Contractible_contr_basedpaths_etashort&#45;&gt;Contractible_contr_basedpaths -->
<g id="edge9" class="edge">
<title>Contractible_contr_basedpaths_etashort&#45;&gt;Contractible_contr_basedpaths</title>
<path fill="none" stroke="black" d="M196.82,-391.21C250.2,-356.01 348.3,-291.33 399.66,-257.47"/>
<polygon fill="black" stroke="black" points="401.67,-260.34 408.09,-251.91 397.81,-254.49 401.67,-260.34"/>
</g>
<!-- Contractible_contr_basedpaths&#45;&gt;Contractible_path_basedpaths -->
<g id="edge10" class="edge">
<title>Contractible_contr_basedpaths&#45;&gt;Contractible_path_basedpaths</title>
<path fill="none" stroke="black" d="M452.72,-216.76C486.98,-187.7 557.55,-127.85 596.56,-94.75"/>
<polygon fill="black" stroke="black" points="599.02,-97.26 604.39,-88.12 594.5,-91.92 599.02,-97.26"/>
</g>
<!-- Contractible_path2_contr -->
<g id="node14" class="node">
<title>Contractible_path2_contr</title>
<g id="a_node14"><a xlink:href="Contractible.html#path2_contr" xlink:title="path2_contr">
<ellipse fill="#f070d1" stroke="black" cx="758" cy="-597.48" rx="66.11" ry="18"/>
<ellipse fill="none" stroke="black" cx="758" cy="-597.48" rx="70.1" ry="22"/>
<ellipse fill="none" stroke="black" cx="758" cy="-597.48" rx="74.09" ry="26"/>
<text text-anchor="middle" x="758" y="-593.78" font-family="Times,serif" font-size="14.00">path2_contr</text>
</a>
</g>
</g>
<!-- Contractible_contr_paths_contr -->
<g id="node15" class="node">
<title>Contractible_contr_paths_contr</title>
<g id="a_node15"><a xlink:href="Contractible.html#contr_paths_contr" xlink:title="contr_paths_contr">
<ellipse fill="#f070d1" stroke="black" cx="758" cy="-416.48" rx="94.48" ry="18"/>
<text text-anchor="middle" x="758" y="-412.78" font-family="Times,serif" font-size="14.00">contr_paths_contr</text>
</a>
</g>
</g>
<!-- Contractible_path2_contr&#45;&gt;Contractible_contr_paths_contr -->
<g id="edge11" class="edge">
<title>Contractible_path2_contr&#45;&gt;Contractible_contr_paths_contr</title>
<path fill="none" stroke="black" d="M758,-571.22C758,-537.83 758,-479.22 758,-444.82"/>
<polygon fill="black" stroke="black" points="761.5,-444.57 758,-434.57 754.5,-444.57 761.5,-444.57"/>
</g>
<!-- Contractible_contr_paths_contr&#45;&gt;Contractible_path_contr -->
<g id="edge12" class="edge">
<title>Contractible_contr_paths_contr&#45;&gt;Contractible_path_contr</title>
<path fill="none" stroke="black" d="M743.51,-398.55C716.16,-366.57 656.8,-297.2 625.04,-260.08"/>
<polygon fill="black" stroke="black" points="627.5,-257.57 618.34,-252.24 622.18,-262.12 627.5,-257.57"/>
</g>
</g>
</svg>
