<?xml version="1.0" encoding="UTF-8" standalone="no"?>
<!DOCTYPE svg PUBLIC "-//W3C//DTD SVG 1.1//EN"
 "http://www.w3.org/Graphics/SVG/1.1/DTD/svg11.dtd">
<!-- Generated by graphviz version 2.43.0 (0)
 -->
<!-- Title: HoTT_Algebra_AbGroups_Centralizer Pages: 1 -->
<svg width="1116pt" height="562pt"
 viewBox="0.00 0.00 1116.00 562.00" xmlns="http://www.w3.org/2000/svg" xmlns:xlink="http://www.w3.org/1999/xlink">
<g id="graph0" class="graph" transform="scale(1 1) rotate(0) translate(4 558)">
<title>HoTT_Algebra_AbGroups_Centralizer</title>
<polygon fill="white" stroke="transparent" points="-4,4 -4,-558 1112,-558 1112,4 -4,4"/>
<g id="clust1" class="cluster">
<title>cluster_Centralizer</title>
<polygon fill="#ffffc3" stroke="black" points="8,-10.38 8,-543.62 1100,-543.62 1100,-10.38 8,-10.38"/>
<text text-anchor="middle" x="56.5" y="-528.42" font-family="Times,serif" font-size="14.00">Centralizer</text>
</g>
<!-- Centralizer_subtype_centralizer_subgroup -->
<g id="node1" class="node">
<title>Centralizer_subtype_centralizer_subgroup</title>
<g id="a_node1"><a xlink:href="Centralizer.html#subtype_centralizer_subgroup" xlink:title="subtype_centralizer_subgroup">
<ellipse fill="#f070d1" stroke="black" cx="933" cy="-355.38" rx="150.58" ry="18"/>
<ellipse fill="none" stroke="black" cx="933" cy="-355.38" rx="154.58" ry="22"/>
<ellipse fill="none" stroke="black" cx="933" cy="-355.38" rx="158.57" ry="26"/>
<text text-anchor="middle" x="933" y="-351.68" font-family="Times,serif" font-size="14.00">subtype_centralizer_subgroup</text>
</a>
</g>
</g>
<!-- Centralizer_issubgroup_subtype_centralizer -->
<g id="node2" class="node">
<title>Centralizer_issubgroup_subtype_centralizer</title>
<g id="a_node2"><a xlink:href="Centralizer.html#issubgroup_subtype_centralizer" xlink:title="issubgroup_subtype_centralizer">
<ellipse fill="#f070d1" stroke="black" cx="933" cy="-241.38" rx="158.67" ry="18"/>
<text text-anchor="middle" x="933" y="-237.68" font-family="Times,serif" font-size="14.00">issubgroup_subtype_centralizer</text>
</a>
</g>
</g>
<!-- Centralizer_subtype_centralizer_subgroup&#45;&gt;Centralizer_issubgroup_subtype_centralizer -->
<g id="edge1" class="edge">
<title>Centralizer_subtype_centralizer_subgroup&#45;&gt;Centralizer_issubgroup_subtype_centralizer</title>
<path fill="none" stroke="black" d="M933,-329.24C933,-311.54 933,-287.84 933,-269.67"/>
<polygon fill="black" stroke="black" points="936.5,-269.44 933,-259.44 929.5,-269.44 936.5,-269.44"/>
</g>
<!-- Centralizer_subtype_centralizer -->
<g id="node3" class="node">
<title>Centralizer_subtype_centralizer</title>
<g id="a_node3"><a xlink:href="Centralizer.html#subtype_centralizer" xlink:title="subtype_centralizer">
<ellipse fill="#f070d1" stroke="black" cx="948" cy="-137.38" rx="102.88" ry="18"/>
<text text-anchor="middle" x="948" y="-133.68" font-family="Times,serif" font-size="14.00">subtype_centralizer</text>
</a>
</g>
</g>
<!-- Centralizer_issubgroup_subtype_centralizer&#45;&gt;Centralizer_subtype_centralizer -->
<g id="edge2" class="edge">
<title>Centralizer_issubgroup_subtype_centralizer&#45;&gt;Centralizer_subtype_centralizer</title>
<path fill="none" stroke="black" d="M935.54,-223.08C937.86,-207.3 941.33,-183.74 944.02,-165.47"/>
<polygon fill="black" stroke="black" points="947.5,-165.83 945.49,-155.43 940.58,-164.81 947.5,-165.83"/>
</g>
<!-- Centralizer_centralizer_inverse -->
<g id="node12" class="node">
<title>Centralizer_centralizer_inverse</title>
<g id="a_node12"><a xlink:href="Centralizer.html#centralizer_inverse" xlink:title="centralizer_inverse">
<ellipse fill="#f070d1" stroke="black" cx="349" cy="-137.38" rx="99.38" ry="18"/>
<text text-anchor="middle" x="349" y="-133.68" font-family="Times,serif" font-size="14.00">centralizer_inverse</text>
</a>
</g>
</g>
<!-- Centralizer_issubgroup_subtype_centralizer&#45;&gt;Centralizer_centralizer_inverse -->
<g id="edge3" class="edge">
<title>Centralizer_issubgroup_subtype_centralizer&#45;&gt;Centralizer_centralizer_inverse</title>
<path fill="none" stroke="black" d="M850.57,-225.98C738.21,-206.36 538.37,-171.45 427.89,-152.16"/>
<polygon fill="black" stroke="black" points="428.26,-148.67 417.81,-150.4 427.06,-155.57 428.26,-148.67"/>
</g>
<!-- Centralizer_centralizer_sgop -->
<g id="node13" class="node">
<title>Centralizer_centralizer_sgop</title>
<g id="a_node13"><a xlink:href="Centralizer.html#centralizer_sgop" xlink:title="centralizer_sgop">
<ellipse fill="#f070d1" stroke="black" cx="554" cy="-137.38" rx="87.18" ry="18"/>
<text text-anchor="middle" x="554" y="-133.68" font-family="Times,serif" font-size="14.00">centralizer_sgop</text>
</a>
</g>
</g>
<!-- Centralizer_issubgroup_subtype_centralizer&#45;&gt;Centralizer_centralizer_sgop -->
<g id="edge4" class="edge">
<title>Centralizer_issubgroup_subtype_centralizer&#45;&gt;Centralizer_centralizer_sgop</title>
<path fill="none" stroke="black" d="M874.2,-224.55C803.6,-205.55 685.83,-173.86 614.49,-154.66"/>
<polygon fill="black" stroke="black" points="615.31,-151.25 604.74,-152.04 613.49,-158.01 615.31,-151.25"/>
</g>
<!-- Centralizer_centralizer_unit -->
<g id="node14" class="node">
<title>Centralizer_centralizer_unit</title>
<g id="a_node14"><a xlink:href="Centralizer.html#centralizer_unit" xlink:title="centralizer_unit">
<ellipse fill="#f070d1" stroke="black" cx="743" cy="-137.38" rx="83.69" ry="18"/>
<text text-anchor="middle" x="743" y="-133.68" font-family="Times,serif" font-size="14.00">centralizer_unit</text>
</a>
</g>
</g>
<!-- Centralizer_issubgroup_subtype_centralizer&#45;&gt;Centralizer_centralizer_unit -->
<g id="edge5" class="edge">
<title>Centralizer_issubgroup_subtype_centralizer&#45;&gt;Centralizer_centralizer_unit</title>
<path fill="none" stroke="black" d="M901.63,-223.54C868.73,-205.88 816.99,-178.1 781.61,-159.11"/>
<polygon fill="black" stroke="black" points="783.01,-155.89 772.54,-154.24 779.7,-162.05 783.01,-155.89"/>
</g>
<!-- Centralizer_centralizer -->
<g id="node15" class="node">
<title>Centralizer_centralizer</title>
<g id="a_node15"><a xlink:href="Centralizer.html#centralizer" xlink:title="centralizer">
<ellipse fill="#f070d1" stroke="black" cx="554" cy="-44.38" rx="61.19" ry="18"/>
<text text-anchor="middle" x="554" y="-40.68" font-family="Times,serif" font-size="14.00">centralizer</text>
</a>
</g>
</g>
<!-- Centralizer_subtype_centralizer&#45;&gt;Centralizer_centralizer -->
<g id="edge6" class="edge">
<title>Centralizer_subtype_centralizer&#45;&gt;Centralizer_centralizer</title>
<path fill="none" stroke="black" d="M888.59,-122.66C813.34,-105.28 684.59,-75.54 610.67,-58.47"/>
<polygon fill="black" stroke="black" points="611.15,-54.99 600.62,-56.15 609.57,-61.81 611.15,-54.99"/>
</g>
<!-- Centralizer_abgroup_cyclic_subgroup -->
<g id="node4" class="node">
<title>Centralizer_abgroup_cyclic_subgroup</title>
<g id="a_node4"><a xlink:href="Centralizer.html#abgroup_cyclic_subgroup" xlink:title="abgroup_cyclic_subgroup">
<ellipse fill="#f070d1" stroke="black" cx="544" cy="-469.38" rx="128.08" ry="18"/>
<ellipse fill="none" stroke="black" cx="544" cy="-469.38" rx="132.08" ry="22"/>
<ellipse fill="none" stroke="black" cx="544" cy="-469.38" rx="136.08" ry="26"/>
<text text-anchor="middle" x="544" y="-465.68" font-family="Times,serif" font-size="14.00">abgroup_cyclic_subgroup</text>
</a>
</g>
</g>
<!-- Centralizer_commutative_cyclic_subgroup -->
<g id="node5" class="node">
<title>Centralizer_commutative_cyclic_subgroup</title>
<g id="a_node5"><a xlink:href="Centralizer.html#commutative_cyclic_subgroup" xlink:title="commutative_cyclic_subgroup">
<ellipse fill="#f070d1" stroke="black" cx="418" cy="-355.38" rx="149.47" ry="18"/>
<text text-anchor="middle" x="418" y="-351.68" font-family="Times,serif" font-size="14.00">commutative_cyclic_subgroup</text>
</a>
</g>
</g>
<!-- Centralizer_abgroup_cyclic_subgroup&#45;&gt;Centralizer_commutative_cyclic_subgroup -->
<g id="edge7" class="edge">
<title>Centralizer_abgroup_cyclic_subgroup&#45;&gt;Centralizer_commutative_cyclic_subgroup</title>
<path fill="none" stroke="black" d="M516.35,-443.8C495.02,-424.84 465.71,-398.78 444.64,-380.06"/>
<polygon fill="black" stroke="black" points="446.8,-377.3 437,-373.27 442.15,-382.53 446.8,-377.3"/>
</g>
<!-- Centralizer_cyclic_subgroup -->
<g id="node6" class="node">
<title>Centralizer_cyclic_subgroup</title>
<g id="a_node6"><a xlink:href="Centralizer.html#cyclic_subgroup" xlink:title="cyclic_subgroup">
<ellipse fill="#f070d1" stroke="black" cx="671" cy="-355.38" rx="85.29" ry="18"/>
<text text-anchor="middle" x="671" y="-351.68" font-family="Times,serif" font-size="14.00">cyclic_subgroup</text>
</a>
</g>
</g>
<!-- Centralizer_abgroup_cyclic_subgroup&#45;&gt;Centralizer_cyclic_subgroup -->
<g id="edge8" class="edge">
<title>Centralizer_abgroup_cyclic_subgroup&#45;&gt;Centralizer_cyclic_subgroup</title>
<path fill="none" stroke="black" d="M571.87,-443.8C593.37,-424.84 622.92,-398.78 644.15,-380.06"/>
<polygon fill="black" stroke="black" points="646.66,-382.51 651.85,-373.27 642.03,-377.26 646.66,-382.51"/>
</g>
<!-- Centralizer_cyclic_subgroup_from_unit -->
<g id="node7" class="node">
<title>Centralizer_cyclic_subgroup_from_unit</title>
<g id="a_node7"><a xlink:href="Centralizer.html#cyclic_subgroup_from_unit" xlink:title="cyclic_subgroup_from_unit">
<ellipse fill="#f070d1" stroke="black" cx="623" cy="-241.38" rx="133.78" ry="18"/>
<text text-anchor="middle" x="623" y="-237.68" font-family="Times,serif" font-size="14.00">cyclic_subgroup_from_unit</text>
</a>
</g>
</g>
<!-- Centralizer_commutative_cyclic_subgroup&#45;&gt;Centralizer_cyclic_subgroup_from_unit -->
<g id="edge9" class="edge">
<title>Centralizer_commutative_cyclic_subgroup&#45;&gt;Centralizer_cyclic_subgroup_from_unit</title>
<path fill="none" stroke="black" d="M448.69,-337.61C484.57,-318.01 544.05,-285.51 583.38,-264.02"/>
<polygon fill="black" stroke="black" points="585.34,-266.94 592.43,-259.08 581.98,-260.8 585.34,-266.94"/>
</g>
<!-- Centralizer_issubgroup_centralizer -->
<g id="node11" class="node">
<title>Centralizer_issubgroup_centralizer</title>
<g id="a_node11"><a xlink:href="Centralizer.html#issubgroup_centralizer" xlink:title="issubgroup_centralizer">
<ellipse fill="#f070d1" stroke="black" cx="354" cy="-241.38" rx="116.98" ry="18"/>
<text text-anchor="middle" x="354" y="-237.68" font-family="Times,serif" font-size="14.00">issubgroup_centralizer</text>
</a>
</g>
</g>
<!-- Centralizer_commutative_cyclic_subgroup&#45;&gt;Centralizer_issubgroup_centralizer -->
<g id="edge10" class="edge">
<title>Centralizer_commutative_cyclic_subgroup&#45;&gt;Centralizer_issubgroup_centralizer</title>
<path fill="none" stroke="black" d="M408.28,-337.37C397.8,-319.03 381,-289.62 368.86,-268.38"/>
<polygon fill="black" stroke="black" points="371.81,-266.5 363.81,-259.55 365.73,-269.97 371.81,-266.5"/>
</g>
<!-- Centralizer_cyclic_subgroup&#45;&gt;Centralizer_cyclic_subgroup_from_unit -->
<g id="edge11" class="edge">
<title>Centralizer_cyclic_subgroup&#45;&gt;Centralizer_cyclic_subgroup_from_unit</title>
<path fill="none" stroke="black" d="M663.71,-337.37C655.92,-319.2 643.47,-290.15 634.39,-268.95"/>
<polygon fill="black" stroke="black" points="637.52,-267.36 630.36,-259.55 631.08,-270.12 637.52,-267.36"/>
</g>
<!-- Centralizer_centralizer_iso -->
<g id="node8" class="node">
<title>Centralizer_centralizer_iso</title>
<g id="a_node8"><a xlink:href="Centralizer.html#centralizer_iso" xlink:title="centralizer_iso">
<ellipse fill="#f070d1" stroke="black" cx="132" cy="-241.38" rx="78.77" ry="18"/>
<ellipse fill="none" stroke="black" cx="132" cy="-241.38" rx="82.78" ry="22"/>
<ellipse fill="none" stroke="black" cx="132" cy="-241.38" rx="86.79" ry="26"/>
<text text-anchor="middle" x="132" y="-237.68" font-family="Times,serif" font-size="14.00">centralizer_iso</text>
</a>
</g>
</g>
<!-- Centralizer_centralizer_hom -->
<g id="node9" class="node">
<title>Centralizer_centralizer_hom</title>
<g id="a_node9"><a xlink:href="Centralizer.html#centralizer_hom" xlink:title="centralizer_hom">
<ellipse fill="#f070d1" stroke="black" cx="137" cy="-137.38" rx="85.29" ry="18"/>
<text text-anchor="middle" x="137" y="-133.68" font-family="Times,serif" font-size="14.00">centralizer_hom</text>
</a>
</g>
</g>
<!-- Centralizer_centralizer_iso&#45;&gt;Centralizer_centralizer_hom -->
<g id="edge12" class="edge">
<title>Centralizer_centralizer_iso&#45;&gt;Centralizer_centralizer_hom</title>
<path fill="none" stroke="black" d="M133.24,-215.17C133.97,-200.26 134.89,-181.37 135.64,-166.05"/>
<polygon fill="black" stroke="black" points="139.16,-165.8 136.15,-155.64 132.17,-165.45 139.16,-165.8"/>
</g>
<!-- Centralizer_centralizer_hom&#45;&gt;Centralizer_centralizer -->
<g id="edge13" class="edge">
<title>Centralizer_centralizer_hom&#45;&gt;Centralizer_centralizer</title>
<path fill="none" stroke="black" d="M194.11,-123.92C273.58,-106.58 416.7,-75.34 496.42,-57.94"/>
<polygon fill="black" stroke="black" points="497.27,-61.34 506.29,-55.79 495.77,-54.5 497.27,-61.34"/>
</g>
<!-- Centralizer_centralizer_subgroup -->
<g id="node10" class="node">
<title>Centralizer_centralizer_subgroup</title>
<g id="a_node10"><a xlink:href="Centralizer.html#centralizer_subgroup" xlink:title="centralizer_subgroup">
<ellipse fill="#f070d1" stroke="black" cx="133" cy="-355.38" rx="109.37" ry="18"/>
<ellipse fill="none" stroke="black" cx="133" cy="-355.38" rx="113.37" ry="22"/>
<ellipse fill="none" stroke="black" cx="133" cy="-355.38" rx="117.38" ry="26"/>
<text text-anchor="middle" x="133" y="-351.68" font-family="Times,serif" font-size="14.00">centralizer_subgroup</text>
</a>
</g>
</g>
<!-- Centralizer_centralizer_subgroup&#45;&gt;Centralizer_issubgroup_centralizer -->
<g id="edge14" class="edge">
<title>Centralizer_centralizer_subgroup&#45;&gt;Centralizer_issubgroup_centralizer</title>
<path fill="none" stroke="black" d="M178.52,-331.31C217.9,-311.36 274.34,-282.75 312.49,-263.42"/>
<polygon fill="black" stroke="black" points="314.44,-266.35 321.77,-258.71 311.27,-260.11 314.44,-266.35"/>
</g>
<!-- Centralizer_issubgroup_centralizer&#45;&gt;Centralizer_centralizer_inverse -->
<g id="edge15" class="edge">
<title>Centralizer_issubgroup_centralizer&#45;&gt;Centralizer_centralizer_inverse</title>
<path fill="none" stroke="black" d="M353.15,-223.08C352.38,-207.3 351.22,-183.74 350.33,-165.47"/>
<polygon fill="black" stroke="black" points="353.82,-165.24 349.84,-155.43 346.83,-165.59 353.82,-165.24"/>
</g>
<!-- Centralizer_issubgroup_centralizer&#45;&gt;Centralizer_centralizer_sgop -->
<g id="edge16" class="edge">
<title>Centralizer_issubgroup_centralizer&#45;&gt;Centralizer_centralizer_sgop</title>
<path fill="none" stroke="black" d="M386.13,-223.99C420.85,-206.29 476.21,-178.05 513.79,-158.89"/>
<polygon fill="black" stroke="black" points="515.62,-161.88 522.93,-154.22 512.43,-155.65 515.62,-161.88"/>
</g>
<!-- Centralizer_issubgroup_centralizer&#45;&gt;Centralizer_centralizer_unit -->
<g id="edge17" class="edge">
<title>Centralizer_issubgroup_centralizer&#45;&gt;Centralizer_centralizer_unit</title>
<path fill="none" stroke="black" d="M410.56,-225.55C482.96,-206.56 607.89,-173.81 682.25,-154.31"/>
<polygon fill="black" stroke="black" points="683.16,-157.69 691.95,-151.77 681.39,-150.92 683.16,-157.69"/>
</g>
<!-- Centralizer_centralizer_inverse&#45;&gt;Centralizer_centralizer -->
<g id="edge18" class="edge">
<title>Centralizer_centralizer_inverse&#45;&gt;Centralizer_centralizer</title>
<path fill="none" stroke="black" d="M384.71,-120.53C420.35,-104.71 475.07,-80.42 512.59,-63.76"/>
<polygon fill="black" stroke="black" points="514.02,-66.96 521.74,-59.7 511.18,-60.56 514.02,-66.96"/>
</g>
<!-- Centralizer_centralizer_sgop&#45;&gt;Centralizer_centralizer -->
<g id="edge19" class="edge">
<title>Centralizer_centralizer_sgop&#45;&gt;Centralizer_centralizer</title>
<path fill="none" stroke="black" d="M554,-119.26C554,-106.17 554,-87.86 554,-72.74"/>
<polygon fill="black" stroke="black" points="557.5,-72.42 554,-62.42 550.5,-72.42 557.5,-72.42"/>
</g>
<!-- Centralizer_centralizer_unit&#45;&gt;Centralizer_centralizer -->
<g id="edge20" class="edge">
<title>Centralizer_centralizer_unit&#45;&gt;Centralizer_centralizer</title>
<path fill="none" stroke="black" d="M710.51,-120.74C678.19,-105.18 628.55,-81.27 593.86,-64.57"/>
<polygon fill="black" stroke="black" points="595.03,-61.25 584.5,-60.07 592,-67.56 595.03,-61.25"/>
</g>
</g>
</svg>
