<?xml version="1.0" encoding="UTF-8" standalone="no"?>
<!DOCTYPE svg PUBLIC "-//W3C//DTD SVG 1.1//EN"
 "http://www.w3.org/Graphics/SVG/1.1/DTD/svg11.dtd">
<!-- Generated by graphviz version 2.43.0 (0)
 -->
<!-- Title: HoTT_Colimits_Quotient_Choice Pages: 1 -->
<svg width="1394pt" height="701pt"
 viewBox="0.00 0.00 1394.00 701.00" xmlns="http://www.w3.org/2000/svg" xmlns:xlink="http://www.w3.org/1999/xlink">
<g id="graph0" class="graph" transform="scale(1 1) rotate(0) translate(4 697)">
<title>HoTT_Colimits_Quotient_Choice</title>
<polygon fill="white" stroke="transparent" points="-4,4 -4,-697 1390,-697 1390,4 -4,4"/>
<g id="clust1" class="cluster">
<title>cluster_Choice</title>
<polygon fill="#ffffc3" stroke="black" points="8,-9.71 8,-683.29 1378,-683.29 1378,-9.71 8,-9.71"/>
<text text-anchor="middle" x="40.5" y="-668.09" font-family="Times,serif" font-size="14.00">Choice</text>
</g>
<!-- Choice_choose_quotient_rec_compute -->
<g id="node1" class="node">
<title>Choice_choose_quotient_rec_compute</title>
<g id="a_node1"><a xlink:href="Choice.html#choose_quotient_rec_compute" xlink:title="choose_quotient_rec_compute">
<ellipse fill="#f070d1" stroke="black" cx="1103" cy="-613.71" rx="149.47" ry="18"/>
<ellipse fill="none" stroke="black" cx="1103" cy="-613.71" rx="153.47" ry="22"/>
<ellipse fill="none" stroke="black" cx="1103" cy="-613.71" rx="157.47" ry="26"/>
<text text-anchor="middle" x="1103" y="-610.01" font-family="Times,serif" font-size="14.00">choose_quotient_rec_compute</text>
</a>
</g>
</g>
<!-- Choice_choose_quotient_ind_compute -->
<g id="node2" class="node">
<title>Choice_choose_quotient_ind_compute</title>
<g id="a_node2"><a xlink:href="Choice.html#choose_quotient_ind_compute" xlink:title="choose_quotient_ind_compute">
<ellipse fill="#f070d1" stroke="black" cx="993" cy="-507.71" rx="149.47" ry="18"/>
<text text-anchor="middle" x="993" y="-504.01" font-family="Times,serif" font-size="14.00">choose_quotient_ind_compute</text>
</a>
</g>
</g>
<!-- Choice_choose_quotient_rec_compute&#45;&gt;Choice_choose_quotient_ind_compute -->
<g id="edge1" class="edge">
<title>Choice_choose_quotient_rec_compute&#45;&gt;Choice_choose_quotient_ind_compute</title>
<path fill="none" stroke="black" d="M1076.93,-588.06C1059.3,-571.39 1036.13,-549.48 1018.6,-532.91"/>
<polygon fill="black" stroke="black" points="1020.65,-530.04 1010.98,-525.71 1015.84,-535.12 1020.65,-530.04"/>
</g>
<!-- Choice_choose_quotient_rec -->
<g id="node3" class="node">
<title>Choice_choose_quotient_rec</title>
<g id="a_node3"><a xlink:href="Choice.html#choose_quotient_rec" xlink:title="choose_quotient_rec">
<ellipse fill="#f070d1" stroke="black" cx="1265" cy="-507.71" rx="104.78" ry="18"/>
<text text-anchor="middle" x="1265" y="-504.01" font-family="Times,serif" font-size="14.00">choose_quotient_rec</text>
</a>
</g>
</g>
<!-- Choice_choose_quotient_rec_compute&#45;&gt;Choice_choose_quotient_rec -->
<g id="edge2" class="edge">
<title>Choice_choose_quotient_rec_compute&#45;&gt;Choice_choose_quotient_rec</title>
<path fill="none" stroke="black" d="M1140.98,-588.33C1168.2,-570.85 1204.56,-547.51 1230.87,-530.62"/>
<polygon fill="black" stroke="black" points="1232.85,-533.51 1239.37,-525.16 1229.07,-527.62 1232.85,-533.51"/>
</g>
<!-- Choice_choose_quotient_ind -->
<g id="node5" class="node">
<title>Choice_choose_quotient_ind</title>
<g id="a_node5"><a xlink:href="Choice.html#choose_quotient_ind" xlink:title="choose_quotient_ind">
<ellipse fill="#f070d1" stroke="black" cx="1226" cy="-400.71" rx="104.78" ry="18"/>
<text text-anchor="middle" x="1226" y="-397.01" font-family="Times,serif" font-size="14.00">choose_quotient_ind</text>
</a>
</g>
</g>
<!-- Choice_choose_quotient_ind_compute&#45;&gt;Choice_choose_quotient_ind -->
<g id="edge3" class="edge">
<title>Choice_choose_quotient_ind_compute&#45;&gt;Choice_choose_quotient_ind</title>
<path fill="none" stroke="black" d="M1029.66,-490.19C1070.62,-471.73 1136.93,-441.85 1180.99,-421.99"/>
<polygon fill="black" stroke="black" points="1182.64,-425.09 1190.32,-417.79 1179.76,-418.71 1182.64,-425.09"/>
</g>
<!-- Choice_choose_quotient_rec&#45;&gt;Choice_choose_quotient_ind -->
<g id="edge4" class="edge">
<title>Choice_choose_quotient_rec&#45;&gt;Choice_choose_quotient_ind</title>
<path fill="none" stroke="black" d="M1258.56,-489.37C1252.37,-472.7 1242.93,-447.29 1235.81,-428.11"/>
<polygon fill="black" stroke="black" points="1239.08,-426.88 1232.32,-418.73 1232.52,-429.32 1239.08,-426.88"/>
</g>
<!-- Choice_choose_quotient_ind_prop -->
<g id="node4" class="node">
<title>Choice_choose_quotient_ind_prop</title>
<g id="a_node4"><a xlink:href="Choice.html#choose_quotient_ind_prop" xlink:title="choose_quotient_ind_prop">
<ellipse fill="#f070d1" stroke="black" cx="687" cy="-507.71" rx="130.77" ry="18"/>
<ellipse fill="none" stroke="black" cx="687" cy="-507.71" rx="134.77" ry="22"/>
<ellipse fill="none" stroke="black" cx="687" cy="-507.71" rx="138.78" ry="26"/>
<text text-anchor="middle" x="687" y="-504.01" font-family="Times,serif" font-size="14.00">choose_quotient_ind_prop</text>
</a>
</g>
</g>
<!-- Choice_choose_quotient_ind_prop&#45;&gt;Choice_choose_quotient_ind -->
<g id="edge5" class="edge">
<title>Choice_choose_quotient_ind_prop&#45;&gt;Choice_choose_quotient_ind</title>
<path fill="none" stroke="black" d="M780.58,-488.48C885.1,-468.12 1052.33,-435.54 1149.4,-416.63"/>
<polygon fill="black" stroke="black" points="1150.29,-420.02 1159.44,-414.68 1148.95,-413.15 1150.29,-420.02"/>
</g>
<!-- Choice_chooseprop_quotient_ind -->
<g id="node6" class="node">
<title>Choice_chooseprop_quotient_ind</title>
<g id="a_node6"><a xlink:href="Choice.html#chooseprop_quotient_ind" xlink:title="chooseprop_quotient_ind">
<ellipse fill="#f070d1" stroke="black" cx="1244" cy="-303.71" rx="126.18" ry="18"/>
<text text-anchor="middle" x="1244" y="-300.01" font-family="Times,serif" font-size="14.00">chooseprop_quotient_ind</text>
</a>
</g>
</g>
<!-- Choice_choose_quotient_ind&#45;&gt;Choice_chooseprop_quotient_ind -->
<g id="edge6" class="edge">
<title>Choice_choose_quotient_ind&#45;&gt;Choice_chooseprop_quotient_ind</title>
<path fill="none" stroke="black" d="M1229.3,-382.28C1231.98,-368.14 1235.81,-347.94 1238.89,-331.7"/>
<polygon fill="black" stroke="black" points="1242.36,-332.18 1240.78,-321.7 1235.48,-330.88 1242.36,-332.18"/>
</g>
<!-- Choice_ishprop_choose_quotient_ind_chooseprop -->
<g id="node7" class="node">
<title>Choice_ishprop_choose_quotient_ind_chooseprop</title>
<g id="a_node7"><a xlink:href="Choice.html#ishprop_choose_quotient_ind_chooseprop" xlink:title="ishprop_choose_quotient_ind_chooseprop">
<ellipse fill="#f070d1" stroke="black" cx="1168" cy="-215.71" rx="202.26" ry="18"/>
<text text-anchor="middle" x="1168" y="-212.01" font-family="Times,serif" font-size="14.00">ishprop_choose_quotient_ind_chooseprop</text>
</a>
</g>
</g>
<!-- Choice_chooseprop_quotient_ind&#45;&gt;Choice_ishprop_choose_quotient_ind_chooseprop -->
<g id="edge7" class="edge">
<title>Choice_chooseprop_quotient_ind&#45;&gt;Choice_ishprop_choose_quotient_ind_chooseprop</title>
<path fill="none" stroke="black" d="M1228.98,-285.72C1217.74,-273 1202.2,-255.41 1189.62,-241.18"/>
<polygon fill="black" stroke="black" points="1192.23,-238.84 1182.98,-233.66 1186.98,-243.48 1192.23,-238.84"/>
</g>
<!-- Choice_has_quotient_choice_tr0choice -->
<g id="node12" class="node">
<title>Choice_has_quotient_choice_tr0choice</title>
<g id="a_node12"><a xlink:href="Choice.html#has_quotient_choice_tr0choice" xlink:title="has_quotient_choice_tr0choice">
<ellipse fill="#f070d1" stroke="black" cx="796" cy="-215.71" rx="151.37" ry="18"/>
<text text-anchor="middle" x="796" y="-212.01" font-family="Times,serif" font-size="14.00">has_quotient_choice_tr0choice</text>
</a>
</g>
</g>
<!-- Choice_chooseprop_quotient_ind&#45;&gt;Choice_has_quotient_choice_tr0choice -->
<g id="edge8" class="edge">
<title>Choice_chooseprop_quotient_ind&#45;&gt;Choice_has_quotient_choice_tr0choice</title>
<path fill="none" stroke="black" d="M1172.02,-288.89C1093.11,-273.74 966.54,-249.45 882.35,-233.29"/>
<polygon fill="black" stroke="black" points="882.78,-229.8 872.3,-231.36 881.46,-236.68 882.78,-229.8"/>
</g>
<!-- Choice_ChooseProp -->
<g id="node8" class="node">
<title>Choice_ChooseProp</title>
<g id="a_node8"><a xlink:href="Choice.html#ChooseProp" xlink:title="ChooseProp">
<ellipse fill="#f070d1" stroke="black" cx="1170" cy="-128.71" rx="66.09" ry="18"/>
<text text-anchor="middle" x="1170" y="-125.01" font-family="Times,serif" font-size="14.00">ChooseProp</text>
</a>
</g>
</g>
<!-- Choice_ishprop_choose_quotient_ind_chooseprop&#45;&gt;Choice_ChooseProp -->
<g id="edge9" class="edge">
<title>Choice_ishprop_choose_quotient_ind_chooseprop&#45;&gt;Choice_ChooseProp</title>
<path fill="none" stroke="black" d="M1168.4,-197.51C1168.68,-185.87 1169.05,-170.26 1169.36,-156.95"/>
<polygon fill="black" stroke="black" points="1172.86,-156.96 1169.6,-146.88 1165.86,-156.8 1172.86,-156.96"/>
</g>
<!-- Choice_qglue_forall -->
<g id="node9" class="node">
<title>Choice_qglue_forall</title>
<g id="a_node9"><a xlink:href="Choice.html#qglue_forall" xlink:title="qglue_forall">
<ellipse fill="#f070d1" stroke="black" cx="1170" cy="-41.71" rx="65.79" ry="18"/>
<text text-anchor="middle" x="1170" y="-38.01" font-family="Times,serif" font-size="14.00">qglue_forall</text>
</a>
</g>
</g>
<!-- Choice_ChooseProp&#45;&gt;Choice_qglue_forall -->
<g id="edge10" class="edge">
<title>Choice_ChooseProp&#45;&gt;Choice_qglue_forall</title>
<path fill="none" stroke="black" d="M1170,-110.51C1170,-98.87 1170,-83.26 1170,-69.95"/>
<polygon fill="black" stroke="black" points="1173.5,-69.88 1170,-59.88 1166.5,-69.88 1173.5,-69.88"/>
</g>
<!-- Choice_equiv_has_tr0_choice_has_quotient_choice -->
<g id="node10" class="node">
<title>Choice_equiv_has_tr0_choice_has_quotient_choice</title>
<g id="a_node10"><a xlink:href="Choice.html#equiv_has_tr0_choice_has_quotient_choice" xlink:title="equiv_has_tr0_choice_has_quotient_choice">
<ellipse fill="#f070d1" stroke="black" cx="872" cy="-400.71" rx="206.06" ry="18"/>
<ellipse fill="none" stroke="black" cx="872" cy="-400.71" rx="210.06" ry="22"/>
<ellipse fill="none" stroke="black" cx="872" cy="-400.71" rx="214.06" ry="26"/>
<text text-anchor="middle" x="872" y="-397.01" font-family="Times,serif" font-size="14.00">equiv_has_tr0_choice_has_quotient_choice</text>
</a>
</g>
</g>
<!-- Choice_isequiv_has_tr0_choice_to_has_quotient_choice -->
<g id="node11" class="node">
<title>Choice_isequiv_has_tr0_choice_to_has_quotient_choice</title>
<g id="a_node11"><a xlink:href="Choice.html#isequiv_has_tr0_choice_to_has_quotient_choice" xlink:title="isequiv_has_tr0_choice_to_has_quotient_choice">
<ellipse fill="#f070d1" stroke="black" cx="872" cy="-303.71" rx="227.46" ry="18"/>
<text text-anchor="middle" x="872" y="-300.01" font-family="Times,serif" font-size="14.00">isequiv_has_tr0_choice_to_has_quotient_choice</text>
</a>
</g>
</g>
<!-- Choice_equiv_has_tr0_choice_has_quotient_choice&#45;&gt;Choice_isequiv_has_tr0_choice_to_has_quotient_choice -->
<g id="edge11" class="edge">
<title>Choice_equiv_has_tr0_choice_has_quotient_choice&#45;&gt;Choice_isequiv_has_tr0_choice_to_has_quotient_choice</title>
<path fill="none" stroke="black" d="M872,-374.25C872,-361.15 872,-345.18 872,-331.85"/>
<polygon fill="black" stroke="black" points="875.5,-331.83 872,-321.83 868.5,-331.83 875.5,-331.83"/>
</g>
<!-- Choice_isequiv_has_tr0_choice_to_has_quotient_choice&#45;&gt;Choice_has_quotient_choice_tr0choice -->
<g id="edge12" class="edge">
<title>Choice_isequiv_has_tr0_choice_to_has_quotient_choice&#45;&gt;Choice_has_quotient_choice_tr0choice</title>
<path fill="none" stroke="black" d="M856.98,-285.72C845.74,-273 830.2,-255.41 817.62,-241.18"/>
<polygon fill="black" stroke="black" points="820.23,-238.84 810.98,-233.66 814.98,-243.48 820.23,-238.84"/>
</g>
<!-- Choice_has_tr0_choice_quotientchoice -->
<g id="node13" class="node">
<title>Choice_has_tr0_choice_quotientchoice</title>
<g id="a_node13"><a xlink:href="Choice.html#has_tr0_choice_quotientchoice" xlink:title="has_tr0_choice_quotientchoice">
<ellipse fill="#f070d1" stroke="black" cx="475" cy="-215.71" rx="151.37" ry="18"/>
<text text-anchor="middle" x="475" y="-212.01" font-family="Times,serif" font-size="14.00">has_tr0_choice_quotientchoice</text>
</a>
</g>
</g>
<!-- Choice_isequiv_has_tr0_choice_to_has_quotient_choice&#45;&gt;Choice_has_tr0_choice_quotientchoice -->
<g id="edge13" class="edge">
<title>Choice_isequiv_has_tr0_choice_to_has_quotient_choice&#45;&gt;Choice_has_tr0_choice_quotientchoice</title>
<path fill="none" stroke="black" d="M797.79,-286.63C728.45,-271.61 625.25,-249.26 554.31,-233.89"/>
<polygon fill="black" stroke="black" points="555.03,-230.47 544.52,-231.77 553.55,-237.31 555.03,-230.47"/>
</g>
<!-- Choice_HasQuotientChoice -->
<g id="node26" class="node">
<title>Choice_HasQuotientChoice</title>
<g id="a_node26"><a xlink:href="Choice.html#HasQuotientChoice" xlink:title="HasQuotientChoice">
<ellipse fill="#f070d1" stroke="black" cx="985" cy="-128.71" rx="100.98" ry="18"/>
<text text-anchor="middle" x="985" y="-125.01" font-family="Times,serif" font-size="14.00">HasQuotientChoice</text>
</a>
</g>
</g>
<!-- Choice_has_quotient_choice_tr0choice&#45;&gt;Choice_HasQuotientChoice -->
<g id="edge14" class="edge">
<title>Choice_has_quotient_choice_tr0choice&#45;&gt;Choice_HasQuotientChoice</title>
<path fill="none" stroke="black" d="M832.89,-198.12C863.59,-184.31 907.41,-164.6 940.14,-149.88"/>
<polygon fill="black" stroke="black" points="941.8,-152.98 949.48,-145.68 938.93,-146.59 941.8,-152.98"/>
</g>
<!-- Choice_ishprop_quotient_relunit -->
<g id="node14" class="node">
<title>Choice_ishprop_quotient_relunit</title>
<g id="a_node14"><a xlink:href="Choice.html#ishprop_quotient_relunit" xlink:title="ishprop_quotient_relunit">
<ellipse fill="#f070d1" stroke="black" cx="741" cy="-128.71" rx="124.58" ry="18"/>
<text text-anchor="middle" x="741" y="-125.01" font-family="Times,serif" font-size="14.00">ishprop_quotient_relunit</text>
</a>
</g>
</g>
<!-- Choice_has_tr0_choice_quotientchoice&#45;&gt;Choice_ishprop_quotient_relunit -->
<g id="edge15" class="edge">
<title>Choice_has_tr0_choice_quotientchoice&#45;&gt;Choice_ishprop_quotient_relunit</title>
<path fill="none" stroke="black" d="M525.35,-198.62C570.06,-184.33 635.43,-163.44 682.46,-148.41"/>
<polygon fill="black" stroke="black" points="683.75,-151.68 692.21,-145.3 681.62,-145.01 683.75,-151.68"/>
</g>
<!-- Choice_transitive_relunit -->
<g id="node15" class="node">
<title>Choice_transitive_relunit</title>
<g id="a_node15"><a xlink:href="Choice.html#transitive_relunit" xlink:title="transitive_relunit">
<ellipse fill="#f070d1" stroke="black" cx="107" cy="-128.71" rx="90.98" ry="18"/>
<text text-anchor="middle" x="107" y="-125.01" font-family="Times,serif" font-size="14.00">transitive_relunit</text>
</a>
</g>
</g>
<!-- Choice_has_tr0_choice_quotientchoice&#45;&gt;Choice_transitive_relunit -->
<g id="edge16" class="edge">
<title>Choice_has_tr0_choice_quotientchoice&#45;&gt;Choice_transitive_relunit</title>
<path fill="none" stroke="black" d="M408.78,-199.41C342.35,-184.07 240.59,-160.57 173.91,-145.16"/>
<polygon fill="black" stroke="black" points="174.46,-141.7 163.93,-142.86 172.89,-148.52 174.46,-141.7"/>
</g>
<!-- Choice_symmetric_relunit -->
<g id="node16" class="node">
<title>Choice_symmetric_relunit</title>
<g id="a_node16"><a xlink:href="Choice.html#symmetric_relunit" xlink:title="symmetric_relunit">
<ellipse fill="#f070d1" stroke="black" cx="312" cy="-128.71" rx="95.58" ry="18"/>
<text text-anchor="middle" x="312" y="-125.01" font-family="Times,serif" font-size="14.00">symmetric_relunit</text>
</a>
</g>
</g>
<!-- Choice_has_tr0_choice_quotientchoice&#45;&gt;Choice_symmetric_relunit -->
<g id="edge17" class="edge">
<title>Choice_has_tr0_choice_quotientchoice&#45;&gt;Choice_symmetric_relunit</title>
<path fill="none" stroke="black" d="M442.8,-197.92C416.79,-184.35 380.05,-165.2 352.13,-150.64"/>
<polygon fill="black" stroke="black" points="353.52,-147.41 343.03,-145.89 350.28,-153.62 353.52,-147.41"/>
</g>
<!-- Choice_reflexive_relunit -->
<g id="node17" class="node">
<title>Choice_reflexive_relunit</title>
<g id="a_node17"><a xlink:href="Choice.html#reflexive_relunit" xlink:title="reflexive_relunit">
<ellipse fill="#f070d1" stroke="black" cx="512" cy="-128.71" rx="86.38" ry="18"/>
<text text-anchor="middle" x="512" y="-125.01" font-family="Times,serif" font-size="14.00">reflexive_relunit</text>
</a>
</g>
</g>
<!-- Choice_has_tr0_choice_quotientchoice&#45;&gt;Choice_reflexive_relunit -->
<g id="edge18" class="edge">
<title>Choice_has_tr0_choice_quotientchoice&#45;&gt;Choice_reflexive_relunit</title>
<path fill="none" stroke="black" d="M482.49,-197.51C487.65,-185.64 494.62,-169.64 500.49,-156.16"/>
<polygon fill="black" stroke="black" points="503.74,-157.45 504.52,-146.88 497.32,-154.66 503.74,-157.45"/>
</g>
<!-- Choice_has_tr0_choice_quotientchoice&#45;&gt;Choice_HasQuotientChoice -->
<g id="edge19" class="edge">
<title>Choice_has_tr0_choice_quotientchoice&#45;&gt;Choice_HasQuotientChoice</title>
<path fill="none" stroke="black" d="M558.93,-200.72C654.55,-184.78 809.74,-158.92 904.08,-143.2"/>
<polygon fill="black" stroke="black" points="904.86,-146.61 914.15,-141.52 903.71,-139.71 904.86,-146.61"/>
</g>
<!-- Choice_RelUnit -->
<g id="node18" class="node">
<title>Choice_RelUnit</title>
<g id="a_node18"><a xlink:href="Choice.html#RelUnit" xlink:title="RelUnit">
<ellipse fill="#f070d1" stroke="black" cx="412" cy="-41.71" rx="46.29" ry="18"/>
<text text-anchor="middle" x="412" y="-38.01" font-family="Times,serif" font-size="14.00">RelUnit</text>
</a>
</g>
</g>
<!-- Choice_ishprop_quotient_relunit&#45;&gt;Choice_RelUnit -->
<g id="edge20" class="edge">
<title>Choice_ishprop_quotient_relunit&#45;&gt;Choice_RelUnit</title>
<path fill="none" stroke="black" d="M682.94,-112.71C619.29,-96.26 518.38,-70.19 459.34,-54.94"/>
<polygon fill="black" stroke="black" points="460.08,-51.52 449.53,-52.4 458.33,-58.29 460.08,-51.52"/>
</g>
<!-- Choice_transitive_relunit&#45;&gt;Choice_RelUnit -->
<g id="edge21" class="edge">
<title>Choice_transitive_relunit&#45;&gt;Choice_RelUnit</title>
<path fill="none" stroke="black" d="M157.36,-113.67C215.3,-97.53 309.65,-71.23 365.78,-55.59"/>
<polygon fill="black" stroke="black" points="366.77,-58.95 375.46,-52.89 364.89,-52.21 366.77,-58.95"/>
</g>
<!-- Choice_symmetric_relunit&#45;&gt;Choice_RelUnit -->
<g id="edge22" class="edge">
<title>Choice_symmetric_relunit&#45;&gt;Choice_RelUnit</title>
<path fill="none" stroke="black" d="M331.76,-110.92C347.21,-97.78 368.85,-79.39 385.76,-65.01"/>
<polygon fill="black" stroke="black" points="388.28,-67.46 393.63,-58.32 383.75,-62.13 388.28,-67.46"/>
</g>
<!-- Choice_reflexive_relunit&#45;&gt;Choice_RelUnit -->
<g id="edge23" class="edge">
<title>Choice_reflexive_relunit&#45;&gt;Choice_RelUnit</title>
<path fill="none" stroke="black" d="M492.24,-110.92C476.79,-97.78 455.15,-79.39 438.24,-65.01"/>
<polygon fill="black" stroke="black" points="440.25,-62.13 430.37,-58.32 435.72,-67.46 440.25,-62.13"/>
</g>
<!-- Choice_choose -->
<g id="node19" class="node">
<title>Choice_choose</title>
<g id="a_node19"><a xlink:href="Choice.html#choose" xlink:title="choose">
<ellipse fill="#f070d1" stroke="black" cx="312" cy="-613.71" rx="42.45" ry="18"/>
<ellipse fill="none" stroke="black" cx="312" cy="-613.71" rx="46.47" ry="22"/>
<ellipse fill="none" stroke="black" cx="312" cy="-613.71" rx="50.49" ry="26"/>
<text text-anchor="middle" x="312" y="-610.01" font-family="Times,serif" font-size="14.00">choose</text>
</a>
</g>
</g>
<!-- Choice_prechoose -->
<g id="node20" class="node">
<title>Choice_prechoose</title>
<g id="a_node20"><a xlink:href="Choice.html#prechoose" xlink:title="prechoose">
<ellipse fill="#f070d1" stroke="black" cx="312" cy="-507.71" rx="57.69" ry="18"/>
<text text-anchor="middle" x="312" y="-504.01" font-family="Times,serif" font-size="14.00">prechoose</text>
</a>
</g>
</g>
<!-- Choice_choose&#45;&gt;Choice_prechoose -->
<g id="edge24" class="edge">
<title>Choice_choose&#45;&gt;Choice_prechoose</title>
<path fill="none" stroke="black" d="M312,-587.53C312,-572 312,-552.07 312,-536.14"/>
<polygon fill="black" stroke="black" points="315.5,-535.85 312,-525.85 308.5,-535.85 315.5,-535.85"/>
</g>
<!-- Choice_hprop_choose_cod -->
<g id="node21" class="node">
<title>Choice_hprop_choose_cod</title>
<g id="a_node21"><a xlink:href="Choice.html#hprop_choose_cod" xlink:title="hprop_choose_cod">
<ellipse fill="#f070d1" stroke="black" cx="312" cy="-400.71" rx="94.78" ry="18"/>
<text text-anchor="middle" x="312" y="-397.01" font-family="Times,serif" font-size="14.00">hprop_choose_cod</text>
</a>
</g>
</g>
<!-- Choice_prechoose&#45;&gt;Choice_hprop_choose_cod -->
<g id="edge25" class="edge">
<title>Choice_prechoose&#45;&gt;Choice_hprop_choose_cod</title>
<path fill="none" stroke="black" d="M312,-489.37C312,-472.93 312,-447.99 312,-428.9"/>
<polygon fill="black" stroke="black" points="315.5,-428.73 312,-418.73 308.5,-428.73 315.5,-428.73"/>
</g>
<!-- Choice_transitive_relclass -->
<g id="node22" class="node">
<title>Choice_transitive_relclass</title>
<g id="a_node22"><a xlink:href="Choice.html#transitive_relclass" xlink:title="transitive_relclass">
<ellipse fill="#f070d1" stroke="black" cx="312" cy="-303.71" rx="95.58" ry="18"/>
<text text-anchor="middle" x="312" y="-300.01" font-family="Times,serif" font-size="14.00">transitive_relclass</text>
</a>
</g>
</g>
<!-- Choice_hprop_choose_cod&#45;&gt;Choice_transitive_relclass -->
<g id="edge26" class="edge">
<title>Choice_hprop_choose_cod&#45;&gt;Choice_transitive_relclass</title>
<path fill="none" stroke="black" d="M312,-382.28C312,-368.36 312,-348.57 312,-332.47"/>
<polygon fill="black" stroke="black" points="315.5,-332.02 312,-322.02 308.5,-332.02 315.5,-332.02"/>
</g>
<!-- Choice_symmetric_relclass -->
<g id="node23" class="node">
<title>Choice_symmetric_relclass</title>
<g id="a_node23"><a xlink:href="Choice.html#symmetric_relclass" xlink:title="symmetric_relclass">
<ellipse fill="#f070d1" stroke="black" cx="526" cy="-303.71" rx="100.18" ry="18"/>
<text text-anchor="middle" x="526" y="-300.01" font-family="Times,serif" font-size="14.00">symmetric_relclass</text>
</a>
</g>
</g>
<!-- Choice_hprop_choose_cod&#45;&gt;Choice_symmetric_relclass -->
<g id="edge27" class="edge">
<title>Choice_hprop_choose_cod&#45;&gt;Choice_symmetric_relclass</title>
<path fill="none" stroke="black" d="M347.82,-383.81C384.39,-367.57 441.26,-342.33 480.89,-324.74"/>
<polygon fill="black" stroke="black" points="482.34,-327.92 490.06,-320.66 479.5,-321.52 482.34,-327.92"/>
</g>
<!-- Choice_reflexive_relclass -->
<g id="node24" class="node">
<title>Choice_reflexive_relclass</title>
<g id="a_node24"><a xlink:href="Choice.html#reflexive_relclass" xlink:title="reflexive_relclass">
<ellipse fill="#f070d1" stroke="black" cx="107" cy="-303.71" rx="90.98" ry="18"/>
<text text-anchor="middle" x="107" y="-300.01" font-family="Times,serif" font-size="14.00">reflexive_relclass</text>
</a>
</g>
</g>
<!-- Choice_hprop_choose_cod&#45;&gt;Choice_reflexive_relclass -->
<g id="edge28" class="edge">
<title>Choice_hprop_choose_cod&#45;&gt;Choice_reflexive_relclass</title>
<path fill="none" stroke="black" d="M277.69,-383.81C242.7,-367.59 188.3,-342.39 150.35,-324.8"/>
<polygon fill="black" stroke="black" points="151.63,-321.53 141.08,-320.5 148.68,-327.88 151.63,-321.53"/>
</g>
<!-- Choice_RelClassEquiv -->
<g id="node25" class="node">
<title>Choice_RelClassEquiv</title>
<g id="a_node25"><a xlink:href="Choice.html#RelClassEquiv" xlink:title="RelClassEquiv">
<ellipse fill="#f070d1" stroke="black" cx="228" cy="-215.71" rx="77.19" ry="18"/>
<text text-anchor="middle" x="228" y="-212.01" font-family="Times,serif" font-size="14.00">RelClassEquiv</text>
</a>
</g>
</g>
<!-- Choice_transitive_relclass&#45;&gt;Choice_RelClassEquiv -->
<g id="edge29" class="edge">
<title>Choice_transitive_relclass&#45;&gt;Choice_RelClassEquiv</title>
<path fill="none" stroke="black" d="M295.4,-285.72C282.9,-272.91 265.58,-255.18 251.63,-240.9"/>
<polygon fill="black" stroke="black" points="253.77,-238.08 244.28,-233.37 248.76,-242.97 253.77,-238.08"/>
</g>
<!-- Choice_symmetric_relclass&#45;&gt;Choice_RelClassEquiv -->
<g id="edge30" class="edge">
<title>Choice_symmetric_relclass&#45;&gt;Choice_RelClassEquiv</title>
<path fill="none" stroke="black" d="M475.45,-288.12C422.61,-272.87 339.87,-249 284.81,-233.1"/>
<polygon fill="black" stroke="black" points="285.44,-229.64 274.86,-230.23 283.5,-236.37 285.44,-229.64"/>
</g>
<!-- Choice_reflexive_relclass&#45;&gt;Choice_RelClassEquiv -->
<g id="edge31" class="edge">
<title>Choice_reflexive_relclass&#45;&gt;Choice_RelClassEquiv</title>
<path fill="none" stroke="black" d="M130.33,-286.13C149.28,-272.66 176.18,-253.54 196.95,-238.78"/>
<polygon fill="black" stroke="black" points="199.03,-241.59 205.15,-232.95 194.97,-235.89 199.03,-241.59"/>
</g>
</g>
</svg>
