<?xml version="1.0" encoding="UTF-8" standalone="no"?>
<!DOCTYPE svg PUBLIC "-//W3C//DTD SVG 1.1//EN"
 "http://www.w3.org/Graphics/SVG/1.1/DTD/svg11.dtd">
<!-- Generated by graphviz version 2.43.0 (0)
 -->
<!-- Title: HoTT_Basics_Iff Pages: 1 -->
<svg width="904pt" height="456pt"
 viewBox="0.00 0.00 904.00 456.00" xmlns="http://www.w3.org/2000/svg" xmlns:xlink="http://www.w3.org/1999/xlink">
<g id="graph0" class="graph" transform="scale(1 1) rotate(0) translate(4 452)">
<title>HoTT_Basics_Iff</title>
<polygon fill="white" stroke="transparent" points="-4,4 -4,-452 900,-452 900,4 -4,4"/>
<g id="clust1" class="cluster">
<title>cluster_Iff</title>
<polygon fill="#ffffc3" stroke="black" points="8,-13.42 8,-434.58 888,-434.58 888,-13.42 8,-13.42"/>
<text text-anchor="middle" x="24" y="-419.38" font-family="Times,serif" font-size="14.00">Iff</text>
</g>
<!-- Iff_iff_contradiction -->
<g id="node1" class="node">
<title>Iff_iff_contradiction</title>
<g id="a_node1"><a xlink:href="Iff.html#iff_contradiction" xlink:title="iff_contradiction">
<ellipse fill="#f070d1" stroke="black" cx="786" cy="-191.42" rx="85.6" ry="18"/>
<ellipse fill="none" stroke="black" cx="786" cy="-191.42" rx="89.59" ry="22"/>
<ellipse fill="none" stroke="black" cx="786" cy="-191.42" rx="93.59" ry="26"/>
<text text-anchor="middle" x="786" y="-187.72" font-family="Times,serif" font-size="14.00">iff_contradiction</text>
</a>
</g>
</g>
<!-- Iff_iff -->
<g id="node10" class="node">
<title>Iff_iff</title>
<g id="a_node10"><a xlink:href="Iff.html#iff" xlink:title="iff">
<ellipse fill="#f070d1" stroke="black" cx="384" cy="-57.42" rx="27" ry="18"/>
<text text-anchor="middle" x="384" y="-53.72" font-family="Times,serif" font-size="14.00">iff</text>
</a>
</g>
</g>
<!-- Iff_iff_contradiction&#45;&gt;Iff_iff -->
<g id="edge1" class="edge">
<title>Iff_iff_contradiction&#45;&gt;Iff_iff</title>
<path fill="none" stroke="black" d="M727.12,-171.09C641.65,-143.03 486.01,-91.92 417.68,-69.48"/>
<polygon fill="black" stroke="black" points="418.46,-66.06 407.87,-66.26 416.28,-72.71 418.46,-66.06"/>
</g>
<!-- Iff_iff_not_sum -->
<g id="node2" class="node">
<title>Iff_iff_not_sum</title>
<g id="a_node2"><a xlink:href="Iff.html#iff_not_sum" xlink:title="iff_not_sum">
<ellipse fill="#f070d1" stroke="black" cx="603" cy="-191.42" rx="63.87" ry="18"/>
<ellipse fill="none" stroke="black" cx="603" cy="-191.42" rx="67.88" ry="22"/>
<ellipse fill="none" stroke="black" cx="603" cy="-191.42" rx="71.89" ry="26"/>
<text text-anchor="middle" x="603" y="-187.72" font-family="Times,serif" font-size="14.00">iff_not_sum</text>
</a>
</g>
</g>
<!-- Iff_iff_not_sum&#45;&gt;Iff_iff -->
<g id="edge2" class="edge">
<title>Iff_iff_not_sum&#45;&gt;Iff_iff</title>
<path fill="none" stroke="black" d="M566.84,-168.63C523.53,-142.53 451.92,-99.36 412.39,-75.54"/>
<polygon fill="black" stroke="black" points="413.91,-72.36 403.53,-70.2 410.29,-78.36 413.91,-72.36"/>
</g>
<!-- Iff_iff_equiv -->
<g id="node3" class="node">
<title>Iff_iff_equiv</title>
<g id="a_node3"><a xlink:href="Iff.html#iff_equiv" xlink:title="iff_equiv">
<ellipse fill="#f070d1" stroke="black" cx="455" cy="-191.42" rx="50.08" ry="18"/>
<ellipse fill="none" stroke="black" cx="455" cy="-191.42" rx="54.09" ry="22"/>
<ellipse fill="none" stroke="black" cx="455" cy="-191.42" rx="58.09" ry="26"/>
<text text-anchor="middle" x="455" y="-187.72" font-family="Times,serif" font-size="14.00">iff_equiv</text>
</a>
</g>
</g>
<!-- Iff_iff_equiv&#45;&gt;Iff_iff -->
<g id="edge3" class="edge">
<title>Iff_iff_equiv&#45;&gt;Iff_iff</title>
<path fill="none" stroke="black" d="M441.81,-165.9C429.19,-142.45 410.25,-107.23 397.52,-83.56"/>
<polygon fill="black" stroke="black" points="400.47,-81.65 392.65,-74.5 394.3,-84.97 400.47,-81.65"/>
</g>
<!-- Iff_transitive_iff -->
<g id="node4" class="node">
<title>Iff_transitive_iff</title>
<g id="a_node4"><a xlink:href="Iff.html#transitive_iff" xlink:title="transitive_iff">
<ellipse fill="#f070d1" stroke="black" cx="437" cy="-339.42" rx="69.58" ry="18"/>
<ellipse fill="none" stroke="black" cx="437" cy="-339.42" rx="73.59" ry="22"/>
<ellipse fill="none" stroke="black" cx="437" cy="-339.42" rx="77.59" ry="26"/>
<text text-anchor="middle" x="437" y="-335.72" font-family="Times,serif" font-size="14.00">transitive_iff</text>
</a>
</g>
</g>
<!-- Iff_iff_compose -->
<g id="node5" class="node">
<title>Iff_iff_compose</title>
<g id="a_node5"><a xlink:href="Iff.html#iff_compose" xlink:title="iff_compose">
<ellipse fill="#f070d1" stroke="black" cx="314" cy="-191.42" rx="64.99" ry="18"/>
<text text-anchor="middle" x="314" y="-187.72" font-family="Times,serif" font-size="14.00">iff_compose</text>
</a>
</g>
</g>
<!-- Iff_transitive_iff&#45;&gt;Iff_iff_compose -->
<g id="edge4" class="edge">
<title>Iff_transitive_iff&#45;&gt;Iff_iff_compose</title>
<path fill="none" stroke="black" d="M416.69,-314.31C394.06,-287.45 357.65,-244.24 334.82,-217.13"/>
<polygon fill="black" stroke="black" points="337.32,-214.67 328.2,-209.27 331.96,-219.18 337.32,-214.67"/>
</g>
<!-- Iff_iff_compose&#45;&gt;Iff_iff -->
<g id="edge5" class="edge">
<title>Iff_iff_compose&#45;&gt;Iff_iff</title>
<path fill="none" stroke="black" d="M323.01,-173.44C335.11,-150.62 356.71,-109.88 370.69,-83.52"/>
<polygon fill="black" stroke="black" points="373.87,-84.99 375.46,-74.52 367.69,-81.71 373.87,-84.99"/>
</g>
<!-- Iff_symmetric_iff -->
<g id="node6" class="node">
<title>Iff_symmetric_iff</title>
<g id="a_node6"><a xlink:href="Iff.html#symmetric_iff" xlink:title="symmetric_iff">
<ellipse fill="#f070d1" stroke="black" cx="260" cy="-339.42" rx="73.39" ry="18"/>
<ellipse fill="none" stroke="black" cx="260" cy="-339.42" rx="77.39" ry="22"/>
<ellipse fill="none" stroke="black" cx="260" cy="-339.42" rx="81.39" ry="26"/>
<text text-anchor="middle" x="260" y="-335.72" font-family="Times,serif" font-size="14.00">symmetric_iff</text>
</a>
</g>
</g>
<!-- Iff_iff_inverse -->
<g id="node7" class="node">
<title>Iff_iff_inverse</title>
<g id="a_node7"><a xlink:href="Iff.html#iff_inverse" xlink:title="iff_inverse">
<ellipse fill="#f070d1" stroke="black" cx="173" cy="-191.42" rx="58.49" ry="18"/>
<text text-anchor="middle" x="173" y="-187.72" font-family="Times,serif" font-size="14.00">iff_inverse</text>
</a>
</g>
</g>
<!-- Iff_symmetric_iff&#45;&gt;Iff_iff_inverse -->
<g id="edge6" class="edge">
<title>Iff_symmetric_iff&#45;&gt;Iff_iff_inverse</title>
<path fill="none" stroke="black" d="M245.24,-313.66C229.46,-287.17 204.53,-245.34 188.48,-218.39"/>
<polygon fill="black" stroke="black" points="191.32,-216.33 183.2,-209.53 185.31,-219.92 191.32,-216.33"/>
</g>
<!-- Iff_iff_inverse&#45;&gt;Iff_iff -->
<g id="edge7" class="edge">
<title>Iff_iff_inverse&#45;&gt;Iff_iff</title>
<path fill="none" stroke="black" d="M197.62,-175.02C237.22,-150.25 314.81,-101.71 356.29,-75.76"/>
<polygon fill="black" stroke="black" points="358.19,-78.7 364.81,-70.43 354.48,-72.76 358.19,-78.7"/>
</g>
<!-- Iff_iff_reflexive -->
<g id="node8" class="node">
<title>Iff_iff_reflexive</title>
<g id="a_node8"><a xlink:href="Iff.html#iff_reflexive" xlink:title="iff_reflexive">
<ellipse fill="#f070d1" stroke="black" cx="88" cy="-339.42" rx="64.21" ry="18"/>
<ellipse fill="none" stroke="black" cx="88" cy="-339.42" rx="68.2" ry="22"/>
<ellipse fill="none" stroke="black" cx="88" cy="-339.42" rx="72.19" ry="26"/>
<text text-anchor="middle" x="88" y="-335.72" font-family="Times,serif" font-size="14.00">iff_reflexive</text>
</a>
</g>
</g>
<!-- Iff_iff_refl -->
<g id="node9" class="node">
<title>Iff_iff_refl</title>
<g id="a_node9"><a xlink:href="Iff.html#iff_refl" xlink:title="iff_refl">
<ellipse fill="#f070d1" stroke="black" cx="56" cy="-191.42" rx="40.09" ry="18"/>
<text text-anchor="middle" x="56" y="-187.72" font-family="Times,serif" font-size="14.00">iff_refl</text>
</a>
</g>
</g>
<!-- Iff_iff_reflexive&#45;&gt;Iff_iff_refl -->
<g id="edge8" class="edge">
<title>Iff_iff_reflexive&#45;&gt;Iff_iff_refl</title>
<path fill="none" stroke="black" d="M82.5,-313.32C76.76,-287.13 67.78,-246.19 61.9,-219.33"/>
<polygon fill="black" stroke="black" points="65.29,-218.47 59.73,-209.45 58.45,-219.97 65.29,-218.47"/>
</g>
<!-- Iff_iff_refl&#45;&gt;Iff_iff -->
<g id="edge9" class="edge">
<title>Iff_iff_refl&#45;&gt;Iff_iff</title>
<path fill="none" stroke="black" d="M81.21,-177.23C89.08,-173.27 97.83,-169.03 106,-165.42 193.12,-126.98 298.74,-88.48 351.17,-69.9"/>
<polygon fill="black" stroke="black" points="352.36,-73.19 360.63,-66.56 350.03,-66.59 352.36,-73.19"/>
</g>
</g>
</svg>
