<?xml version="1.0" encoding="UTF-8" standalone="no"?>
<!DOCTYPE svg PUBLIC "-//W3C//DTD SVG 1.1//EN"
 "http://www.w3.org/Graphics/SVG/1.1/DTD/svg11.dtd">
<!-- Generated by graphviz version 2.43.0 (0)
 -->
<!-- Title: HoTT_Basics_Classes Pages: 1 -->
<svg width="1708pt" height="858pt"
 viewBox="0.00 0.00 1708.00 858.00" xmlns="http://www.w3.org/2000/svg" xmlns:xlink="http://www.w3.org/1999/xlink">
<g id="graph0" class="graph" transform="scale(1 1) rotate(0) translate(4 854)">
<title>HoTT_Basics_Classes</title>
<polygon fill="white" stroke="transparent" points="-4,4 -4,-854 1704,-854 1704,4 -4,4"/>
<g id="clust1" class="cluster">
<title>cluster_Classes</title>
<polygon fill="#ffffc3" stroke="black" points="8,-25.47 8,-824.53 1692,-824.53 1692,-25.47 8,-25.47"/>
<text text-anchor="middle" x="43.5" y="-809.33" font-family="Times,serif" font-size="14.00">Classes</text>
</g>
<!-- Classes_antisymmetry -->
<g id="node1" class="node">
<title>Classes_antisymmetry</title>
<g id="a_node1"><a xlink:href="Classes.html#antisymmetry" xlink:title="antisymmetry">
<ellipse fill="#f070d1" stroke="black" cx="1601" cy="-643.47" rx="75.3" ry="18"/>
<ellipse fill="none" stroke="black" cx="1601" cy="-643.47" rx="79.29" ry="22"/>
<ellipse fill="none" stroke="black" cx="1601" cy="-643.47" rx="83.29" ry="26"/>
<text text-anchor="middle" x="1601" y="-639.77" font-family="Times,serif" font-size="14.00">antisymmetry</text>
</a>
</g>
</g>
<!-- Classes_AntiSymmetric -->
<g id="node2" class="node">
<title>Classes_AntiSymmetric</title>
<g id="a_node2"><a xlink:href="Classes.html#AntiSymmetric" xlink:title="AntiSymmetric">
<ellipse fill="#f070d1" stroke="black" cx="1603" cy="-362.47" rx="80.69" ry="18"/>
<text text-anchor="middle" x="1603" y="-358.77" font-family="Times,serif" font-size="14.00">AntiSymmetric</text>
</a>
</g>
</g>
<!-- Classes_antisymmetry&#45;&gt;Classes_AntiSymmetric -->
<g id="edge1" class="edge">
<title>Classes_antisymmetry&#45;&gt;Classes_AntiSymmetric</title>
<path fill="none" stroke="black" d="M1601.18,-617.22C1601.56,-564.89 1602.42,-444.98 1602.8,-390.86"/>
<polygon fill="black" stroke="black" points="1606.3,-390.68 1602.88,-380.66 1599.31,-390.63 1606.3,-390.68"/>
</g>
<!-- Classes_isinj_cancelL -->
<g id="node3" class="node">
<title>Classes_isinj_cancelL</title>
<g id="a_node3"><a xlink:href="Classes.html#isinj_cancelL" xlink:title="isinj_cancelL">
<ellipse fill="#f070d1" stroke="black" cx="1422" cy="-643.47" rx="69.58" ry="18"/>
<ellipse fill="none" stroke="black" cx="1422" cy="-643.47" rx="73.59" ry="22"/>
<ellipse fill="none" stroke="black" cx="1422" cy="-643.47" rx="77.59" ry="26"/>
<text text-anchor="middle" x="1422" y="-639.77" font-family="Times,serif" font-size="14.00">isinj_cancelL</text>
</a>
</g>
</g>
<!-- Classes_injective -->
<g id="node7" class="node">
<title>Classes_injective</title>
<g id="a_node7"><a xlink:href="Classes.html#injective" xlink:title="injective">
<ellipse fill="#f070d1" stroke="black" cx="1293" cy="-362.47" rx="50.09" ry="18"/>
<text text-anchor="middle" x="1293" y="-358.77" font-family="Times,serif" font-size="14.00">injective</text>
</a>
</g>
</g>
<!-- Classes_isinj_cancelL&#45;&gt;Classes_injective -->
<g id="edge2" class="edge">
<title>Classes_isinj_cancelL&#45;&gt;Classes_injective</title>
<path fill="none" stroke="black" d="M1410.55,-617.71C1386.29,-565.23 1329.88,-443.24 1305.08,-389.58"/>
<polygon fill="black" stroke="black" points="1308.2,-388 1300.83,-380.39 1301.85,-390.94 1308.2,-388"/>
</g>
<!-- Classes_isinj_compose -->
<g id="node4" class="node">
<title>Classes_isinj_compose</title>
<g id="a_node4"><a xlink:href="Classes.html#isinj_compose" xlink:title="isinj_compose">
<ellipse fill="#f070d1" stroke="black" cx="1243" cy="-643.47" rx="75.3" ry="18"/>
<ellipse fill="none" stroke="black" cx="1243" cy="-643.47" rx="79.29" ry="22"/>
<ellipse fill="none" stroke="black" cx="1243" cy="-643.47" rx="83.29" ry="26"/>
<text text-anchor="middle" x="1243" y="-639.77" font-family="Times,serif" font-size="14.00">isinj_compose</text>
</a>
</g>
</g>
<!-- Classes_isinj_compose&#45;&gt;Classes_injective -->
<g id="edge3" class="edge">
<title>Classes_isinj_compose&#45;&gt;Classes_injective</title>
<path fill="none" stroke="black" d="M1247.53,-617.22C1256.92,-564.78 1278.48,-444.48 1288.15,-390.52"/>
<polygon fill="black" stroke="black" points="1291.6,-391.12 1289.92,-380.66 1284.71,-389.88 1291.6,-391.12"/>
</g>
<!-- Classes_isinj_idmap -->
<g id="node5" class="node">
<title>Classes_isinj_idmap</title>
<g id="a_node5"><a xlink:href="Classes.html#isinj_idmap" xlink:title="isinj_idmap">
<ellipse fill="#f070d1" stroke="black" cx="1433" cy="-362.47" rx="63.87" ry="18"/>
<ellipse fill="none" stroke="black" cx="1433" cy="-362.47" rx="67.88" ry="22"/>
<ellipse fill="none" stroke="black" cx="1433" cy="-362.47" rx="71.89" ry="26"/>
<text text-anchor="middle" x="1433" y="-358.77" font-family="Times,serif" font-size="14.00">isinj_idmap</text>
</a>
</g>
</g>
<!-- Classes_IsInjective -->
<g id="node8" class="node">
<title>Classes_IsInjective</title>
<g id="a_node8"><a xlink:href="Classes.html#IsInjective" xlink:title="IsInjective">
<ellipse fill="#f070d1" stroke="black" cx="1363" cy="-108.47" rx="59.29" ry="18"/>
<text text-anchor="middle" x="1363" y="-104.77" font-family="Times,serif" font-size="14.00">IsInjective</text>
</a>
</g>
</g>
<!-- Classes_isinj_idmap&#45;&gt;Classes_IsInjective -->
<g id="edge4" class="edge">
<title>Classes_isinj_idmap&#45;&gt;Classes_IsInjective</title>
<path fill="none" stroke="black" d="M1426.03,-336.38C1412.79,-288.72 1384.1,-185.43 1370.48,-136.38"/>
<polygon fill="black" stroke="black" points="1373.78,-135.2 1367.73,-126.5 1367.04,-137.07 1373.78,-135.2"/>
</g>
<!-- Classes_neq_isinj -->
<g id="node6" class="node">
<title>Classes_neq_isinj</title>
<g id="a_node6"><a xlink:href="Classes.html#neq_isinj" xlink:title="neq_isinj">
<ellipse fill="#f070d1" stroke="black" cx="1082" cy="-643.47" rx="51.99" ry="18"/>
<ellipse fill="none" stroke="black" cx="1082" cy="-643.47" rx="55.99" ry="22"/>
<ellipse fill="none" stroke="black" cx="1082" cy="-643.47" rx="59.99" ry="26"/>
<text text-anchor="middle" x="1082" y="-639.77" font-family="Times,serif" font-size="14.00">neq_isinj</text>
</a>
</g>
</g>
<!-- Classes_neq_isinj&#45;&gt;Classes_injective -->
<g id="edge5" class="edge">
<title>Classes_neq_isinj&#45;&gt;Classes_injective</title>
<path fill="none" stroke="black" d="M1100.36,-618.2C1140.15,-565.58 1234.02,-441.46 1274.2,-388.32"/>
<polygon fill="black" stroke="black" points="1277.16,-390.22 1280.4,-380.13 1271.58,-385.99 1277.16,-390.22"/>
</g>
<!-- Classes_injective&#45;&gt;Classes_IsInjective -->
<g id="edge6" class="edge">
<title>Classes_injective&#45;&gt;Classes_IsInjective</title>
<path fill="none" stroke="black" d="M1297.7,-344.54C1309.6,-301.7 1341,-188.66 1355.49,-136.52"/>
<polygon fill="black" stroke="black" points="1358.92,-137.22 1358.23,-126.65 1352.18,-135.35 1358.92,-137.22"/>
</g>
<!-- Classes_pointwise_moveL_equiv -->
<g id="node9" class="node">
<title>Classes_pointwise_moveL_equiv</title>
<g id="a_node9"><a xlink:href="Classes.html#pointwise_moveL_equiv" xlink:title="pointwise_moveL_equiv">
<ellipse fill="#f070d1" stroke="black" cx="876" cy="-643.47" rx="120.46" ry="18"/>
<ellipse fill="none" stroke="black" cx="876" cy="-643.47" rx="124.47" ry="22"/>
<ellipse fill="none" stroke="black" cx="876" cy="-643.47" rx="128.48" ry="26"/>
<text text-anchor="middle" x="876" y="-639.77" font-family="Times,serif" font-size="14.00">pointwise_moveL_equiv</text>
</a>
</g>
</g>
<!-- Classes_pointwise_moveR_equiv -->
<g id="node10" class="node">
<title>Classes_pointwise_moveR_equiv</title>
<g id="a_node10"><a xlink:href="Classes.html#pointwise_moveR_equiv" xlink:title="pointwise_moveR_equiv">
<ellipse fill="#f070d1" stroke="black" cx="1103" cy="-362.47" rx="121.58" ry="18"/>
<text text-anchor="middle" x="1103" y="-358.77" font-family="Times,serif" font-size="14.00">pointwise_moveR_equiv</text>
</a>
</g>
</g>
<!-- Classes_pointwise_moveL_equiv&#45;&gt;Classes_pointwise_moveR_equiv -->
<g id="edge7" class="edge">
<title>Classes_pointwise_moveL_equiv&#45;&gt;Classes_pointwise_moveR_equiv</title>
<path fill="none" stroke="black" d="M896.14,-617.71C939.2,-564.79 1039.75,-441.21 1082.83,-388.26"/>
<polygon fill="black" stroke="black" points="1085.63,-390.36 1089.23,-380.39 1080.2,-385.94 1085.63,-390.36"/>
</g>
<!-- Classes_relation_pointwise -->
<g id="node15" class="node">
<title>Classes_relation_pointwise</title>
<g id="a_node15"><a xlink:href="Classes.html#relation_pointwise" xlink:title="relation_pointwise">
<ellipse fill="#f070d1" stroke="black" cx="611" cy="-108.47" rx="96.38" ry="18"/>
<text text-anchor="middle" x="611" y="-104.77" font-family="Times,serif" font-size="14.00">relation_pointwise</text>
</a>
</g>
</g>
<!-- Classes_pointwise_moveR_equiv&#45;&gt;Classes_relation_pointwise -->
<g id="edge8" class="edge">
<title>Classes_pointwise_moveR_equiv&#45;&gt;Classes_relation_pointwise</title>
<path fill="none" stroke="black" d="M1070.72,-344.93C984.13,-300.59 746.87,-179.06 651.49,-130.21"/>
<polygon fill="black" stroke="black" points="652.94,-127.02 642.44,-125.57 649.75,-133.25 652.94,-127.02"/>
</g>
<!-- Classes_pointwise_precomp -->
<g id="node11" class="node">
<title>Classes_pointwise_precomp</title>
<g id="a_node11"><a xlink:href="Classes.html#pointwise_precomp" xlink:title="pointwise_precomp">
<ellipse fill="#f070d1" stroke="black" cx="855" cy="-362.47" rx="100.96" ry="18"/>
<ellipse fill="none" stroke="black" cx="855" cy="-362.47" rx="104.97" ry="22"/>
<ellipse fill="none" stroke="black" cx="855" cy="-362.47" rx="108.98" ry="26"/>
<text text-anchor="middle" x="855" y="-358.77" font-family="Times,serif" font-size="14.00">pointwise_precomp</text>
</a>
</g>
</g>
<!-- Classes_pointwise_precomp&#45;&gt;Classes_relation_pointwise -->
<g id="edge9" class="edge">
<title>Classes_pointwise_precomp&#45;&gt;Classes_relation_pointwise</title>
<path fill="none" stroke="black" d="M831.16,-336.85C784.36,-288.51 680.99,-181.75 634.48,-133.72"/>
<polygon fill="black" stroke="black" points="636.73,-131.01 627.26,-126.26 631.7,-135.88 636.73,-131.01"/>
</g>
<!-- Classes_symmetric_pointwise -->
<g id="node12" class="node">
<title>Classes_symmetric_pointwise</title>
<g id="a_node12"><a xlink:href="Classes.html#symmetric_pointwise" xlink:title="symmetric_pointwise">
<ellipse fill="#f070d1" stroke="black" cx="611" cy="-362.47" rx="109.37" ry="18"/>
<ellipse fill="none" stroke="black" cx="611" cy="-362.47" rx="113.37" ry="22"/>
<ellipse fill="none" stroke="black" cx="611" cy="-362.47" rx="117.38" ry="26"/>
<text text-anchor="middle" x="611" y="-358.77" font-family="Times,serif" font-size="14.00">symmetric_pointwise</text>
</a>
</g>
</g>
<!-- Classes_symmetric_pointwise&#45;&gt;Classes_relation_pointwise -->
<g id="edge10" class="edge">
<title>Classes_symmetric_pointwise&#45;&gt;Classes_relation_pointwise</title>
<path fill="none" stroke="black" d="M611,-336.38C611,-288.82 611,-185.87 611,-136.69"/>
<polygon fill="black" stroke="black" points="614.5,-136.5 611,-126.5 607.5,-136.5 614.5,-136.5"/>
</g>
<!-- Classes_transitive_pointwise -->
<g id="node13" class="node">
<title>Classes_transitive_pointwise</title>
<g id="a_node13"><a xlink:href="Classes.html#transitive_pointwise" xlink:title="transitive_pointwise">
<ellipse fill="#f070d1" stroke="black" cx="363" cy="-362.47" rx="104.77" ry="18"/>
<ellipse fill="none" stroke="black" cx="363" cy="-362.47" rx="108.78" ry="22"/>
<ellipse fill="none" stroke="black" cx="363" cy="-362.47" rx="112.78" ry="26"/>
<text text-anchor="middle" x="363" y="-358.77" font-family="Times,serif" font-size="14.00">transitive_pointwise</text>
</a>
</g>
</g>
<!-- Classes_transitive_pointwise&#45;&gt;Classes_relation_pointwise -->
<g id="edge11" class="edge">
<title>Classes_transitive_pointwise&#45;&gt;Classes_relation_pointwise</title>
<path fill="none" stroke="black" d="M387.23,-336.85C434.9,-288.41 540.3,-181.31 587.43,-133.42"/>
<polygon fill="black" stroke="black" points="589.95,-135.84 594.47,-126.26 584.96,-130.93 589.95,-135.84"/>
</g>
<!-- Classes_reflexive_pointwise -->
<g id="node14" class="node">
<title>Classes_reflexive_pointwise</title>
<g id="a_node14"><a xlink:href="Classes.html#reflexive_pointwise" xlink:title="reflexive_pointwise">
<ellipse fill="#f070d1" stroke="black" cx="124" cy="-362.47" rx="100.18" ry="18"/>
<ellipse fill="none" stroke="black" cx="124" cy="-362.47" rx="104.18" ry="22"/>
<ellipse fill="none" stroke="black" cx="124" cy="-362.47" rx="108.18" ry="26"/>
<text text-anchor="middle" x="124" y="-358.77" font-family="Times,serif" font-size="14.00">reflexive_pointwise</text>
</a>
</g>
</g>
<!-- Classes_reflexive_pointwise&#45;&gt;Classes_relation_pointwise -->
<g id="edge12" class="edge">
<title>Classes_reflexive_pointwise&#45;&gt;Classes_relation_pointwise</title>
<path fill="none" stroke="black" d="M168.08,-338.66C261.92,-290.1 480.28,-177.11 570.69,-130.33"/>
<polygon fill="black" stroke="black" points="572.52,-133.32 579.79,-125.62 569.3,-127.1 572.52,-133.32"/>
</g>
</g>
</svg>
