<?xml version="1.0" encoding="UTF-8" standalone="no"?>
<!DOCTYPE svg PUBLIC "-//W3C//DTD SVG 1.1//EN"
 "http://www.w3.org/Graphics/SVG/1.1/DTD/svg11.dtd">
<!-- Generated by graphviz version 2.43.0 (0)
 -->
<!-- Title: HoTT_Algebra_AbSES_Ext Pages: 1 -->
<svg width="1185pt" height="596pt"
 viewBox="0.00 0.00 1185.00 596.50" xmlns="http://www.w3.org/2000/svg" xmlns:xlink="http://www.w3.org/1999/xlink">
<g id="graph0" class="graph" transform="scale(1 1) rotate(0) translate(4 592.5)">
<title>HoTT_Algebra_AbSES_Ext</title>
<polygon fill="white" stroke="transparent" points="-4,4 -4,-592.5 1181,-592.5 1181,4 -4,4"/>
<g id="clust1" class="cluster">
<title>cluster_Ext</title>
<polygon fill="#ffffc3" stroke="black" points="8,-9.43 8,-579.07 1169,-579.07 1169,-9.43 8,-9.43"/>
<text text-anchor="middle" x="28.5" y="-563.87" font-family="Times,serif" font-size="14.00">Ext</text>
</g>
<!-- Ext_abext_projective_trivial -->
<g id="node1" class="node">
<title>Ext_abext_projective_trivial</title>
<g id="a_node1"><a xlink:href="Ext.html#abext_projective_trivial" xlink:title="abext_projective_trivial">
<ellipse fill="#f070d1" stroke="black" cx="1033" cy="-219.43" rx="119.67" ry="18"/>
<ellipse fill="none" stroke="black" cx="1033" cy="-219.43" rx="123.68" ry="22"/>
<ellipse fill="none" stroke="black" cx="1033" cy="-219.43" rx="127.68" ry="26"/>
<text text-anchor="middle" x="1033" y="-215.73" font-family="Times,serif" font-size="14.00">abext_projective_trivial</text>
</a>
</g>
</g>
<!-- Ext_iff_ab_ext_trivial_split -->
<g id="node16" class="node">
<title>Ext_iff_ab_ext_trivial_split</title>
<g id="a_node16"><a xlink:href="Ext.html#iff_ab_ext_trivial_split" xlink:title="iff_ab_ext_trivial_split">
<ellipse fill="#f070d1" stroke="black" cx="845" cy="-125.43" rx="111.58" ry="18"/>
<text text-anchor="middle" x="845" y="-121.73" font-family="Times,serif" font-size="14.00">iff_ab_ext_trivial_split</text>
</a>
</g>
</g>
<!-- Ext_abext_projective_trivial&#45;&gt;Ext_iff_ab_ext_trivial_split -->
<g id="edge1" class="edge">
<title>Ext_abext_projective_trivial&#45;&gt;Ext_iff_ab_ext_trivial_split</title>
<path fill="none" stroke="black" d="M985.56,-195.22C955.33,-180.43 916.5,-161.42 887.32,-147.14"/>
<polygon fill="black" stroke="black" points="888.73,-143.94 878.2,-142.68 885.65,-150.22 888.73,-143.94"/>
</g>
<!-- Ext_contr_abext_projective -->
<g id="node2" class="node">
<title>Ext_contr_abext_projective</title>
<g id="a_node2"><a xlink:href="Ext.html#contr_abext_projective" xlink:title="contr_abext_projective">
<ellipse fill="#f070d1" stroke="black" cx="1037" cy="-323.43" rx="116.19" ry="18"/>
<ellipse fill="none" stroke="black" cx="1037" cy="-323.43" rx="120.18" ry="22"/>
<ellipse fill="none" stroke="black" cx="1037" cy="-323.43" rx="124.18" ry="26"/>
<text text-anchor="middle" x="1037" y="-319.73" font-family="Times,serif" font-size="14.00">contr_abext_projective</text>
</a>
</g>
</g>
<!-- Ext_abext_trivial_projective -->
<g id="node3" class="node">
<title>Ext_abext_trivial_projective</title>
<g id="a_node3"><a xlink:href="Ext.html#abext_trivial_projective" xlink:title="abext_trivial_projective">
<ellipse fill="#f070d1" stroke="black" cx="768" cy="-219.43" rx="119.68" ry="18"/>
<text text-anchor="middle" x="768" y="-215.73" font-family="Times,serif" font-size="14.00">abext_trivial_projective</text>
</a>
</g>
</g>
<!-- Ext_contr_abext_projective&#45;&gt;Ext_abext_trivial_projective -->
<g id="edge2" class="edge">
<title>Ext_contr_abext_projective&#45;&gt;Ext_abext_trivial_projective</title>
<path fill="none" stroke="black" d="M978.96,-300.43C931.52,-282.44 865.08,-257.25 819.51,-239.96"/>
<polygon fill="black" stroke="black" points="820.7,-236.68 810.11,-236.4 818.22,-243.22 820.7,-236.68"/>
</g>
<!-- Ext_abext_trivial_projective&#45;&gt;Ext_iff_ab_ext_trivial_split -->
<g id="edge3" class="edge">
<title>Ext_abext_trivial_projective&#45;&gt;Ext_iff_ab_ext_trivial_split</title>
<path fill="none" stroke="black" d="M782.12,-201.56C793.88,-187.51 810.79,-167.31 824.11,-151.39"/>
<polygon fill="black" stroke="black" points="826.97,-153.43 830.71,-143.51 821.6,-148.94 826.97,-153.43"/>
</g>
<!-- Ext_abses_pushout_ext -->
<g id="node4" class="node">
<title>Ext_abses_pushout_ext</title>
<g id="a_node4"><a xlink:href="Ext.html#abses_pushout_ext" xlink:title="abses_pushout_ext">
<ellipse fill="#f070d1" stroke="black" cx="558" cy="-323.43" rx="98.27" ry="18"/>
<ellipse fill="none" stroke="black" cx="558" cy="-323.43" rx="102.28" ry="22"/>
<ellipse fill="none" stroke="black" cx="558" cy="-323.43" rx="106.28" ry="26"/>
<text text-anchor="middle" x="558" y="-319.73" font-family="Times,serif" font-size="14.00">abses_pushout_ext</text>
</a>
</g>
</g>
<!-- Ext_ab_ext -->
<g id="node11" class="node">
<title>Ext_ab_ext</title>
<g id="a_node11"><a xlink:href="Ext.html#ab_ext" xlink:title="ab_ext">
<ellipse fill="#f070d1" stroke="black" cx="354" cy="-219.43" rx="40.89" ry="18"/>
<text text-anchor="middle" x="354" y="-215.73" font-family="Times,serif" font-size="14.00">ab_ext</text>
</a>
</g>
</g>
<!-- Ext_abses_pushout_ext&#45;&gt;Ext_ab_ext -->
<g id="edge4" class="edge">
<title>Ext_abses_pushout_ext&#45;&gt;Ext_ab_ext</title>
<path fill="none" stroke="black" d="M512.73,-299.8C475.49,-281.18 423.48,-255.17 389.28,-238.08"/>
<polygon fill="black" stroke="black" points="390.65,-234.85 380.14,-233.5 387.52,-241.11 390.65,-234.85"/>
</g>
<!-- Ext_is0bifunctor_ext_ -->
<g id="node14" class="node">
<title>Ext_is0bifunctor_ext_</title>
<g id="a_node14"><a xlink:href="Ext.html#is0bifunctor_ext'" xlink:title="is0bifunctor_ext&#39;">
<ellipse fill="#f070d1" stroke="black" cx="522" cy="-219.43" rx="88.28" ry="18"/>
<text text-anchor="middle" x="522" y="-215.73" font-family="Times,serif" font-size="14.00">is0bifunctor_ext&#39;</text>
</a>
</g>
</g>
<!-- Ext_abses_pushout_ext&#45;&gt;Ext_is0bifunctor_ext_ -->
<g id="edge5" class="edge">
<title>Ext_abses_pushout_ext&#45;&gt;Ext_is0bifunctor_ext_</title>
<path fill="none" stroke="black" d="M549.19,-297.48C543.8,-282.19 536.89,-262.64 531.39,-247.05"/>
<polygon fill="black" stroke="black" points="534.64,-245.73 528.01,-237.47 528.04,-248.06 534.64,-245.73"/>
</g>
<!-- Ext_is1bifunctor_abext -->
<g id="node5" class="node">
<title>Ext_is1bifunctor_abext</title>
<g id="a_node5"><a xlink:href="Ext.html#is1bifunctor_abext" xlink:title="is1bifunctor_abext">
<ellipse fill="#f070d1" stroke="black" cx="438" cy="-511.43" rx="96.7" ry="18"/>
<ellipse fill="none" stroke="black" cx="438" cy="-511.43" rx="100.69" ry="22"/>
<ellipse fill="none" stroke="black" cx="438" cy="-511.43" rx="104.68" ry="26"/>
<text text-anchor="middle" x="438" y="-507.73" font-family="Times,serif" font-size="14.00">is1bifunctor_abext</text>
</a>
</g>
</g>
<!-- Ext_is0bifunctor_abext -->
<g id="node6" class="node">
<title>Ext_is0bifunctor_abext</title>
<g id="a_node6"><a xlink:href="Ext.html#is0bifunctor_abext" xlink:title="is0bifunctor_abext">
<ellipse fill="#f070d1" stroke="black" cx="331" cy="-417.43" rx="96.68" ry="18"/>
<text text-anchor="middle" x="331" y="-413.73" font-family="Times,serif" font-size="14.00">is0bifunctor_abext</text>
</a>
</g>
</g>
<!-- Ext_is1bifunctor_abext&#45;&gt;Ext_is0bifunctor_abext -->
<g id="edge6" class="edge">
<title>Ext_is1bifunctor_abext&#45;&gt;Ext_is0bifunctor_abext</title>
<path fill="none" stroke="black" d="M409.89,-486.26C393.96,-472.57 374.13,-455.52 358.34,-441.94"/>
<polygon fill="black" stroke="black" points="360.35,-439.06 350.49,-435.19 355.79,-444.37 360.35,-439.06"/>
</g>
<!-- Ext_is1functor_abext10 -->
<g id="node7" class="node">
<title>Ext_is1functor_abext10</title>
<g id="a_node7"><a xlink:href="Ext.html#is1functor_abext10" xlink:title="is1functor_abext10">
<ellipse fill="#f070d1" stroke="black" cx="116" cy="-417.43" rx="100.18" ry="18"/>
<text text-anchor="middle" x="116" y="-413.73" font-family="Times,serif" font-size="14.00">is1functor_abext10</text>
</a>
</g>
</g>
<!-- Ext_is1bifunctor_abext&#45;&gt;Ext_is1functor_abext10 -->
<g id="edge7" class="edge">
<title>Ext_is1bifunctor_abext&#45;&gt;Ext_is1functor_abext10</title>
<path fill="none" stroke="black" d="M371.28,-491.37C313.94,-474.99 231.95,-451.56 176.49,-435.72"/>
<polygon fill="black" stroke="black" points="177.37,-432.33 166.79,-432.95 175.45,-439.06 177.37,-432.33"/>
</g>
<!-- Ext_is1functor_abext01 -->
<g id="node8" class="node">
<title>Ext_is1functor_abext01</title>
<g id="a_node8"><a xlink:href="Ext.html#is1functor_abext01" xlink:title="is1functor_abext01">
<ellipse fill="#f070d1" stroke="black" cx="546" cy="-417.43" rx="100.18" ry="18"/>
<text text-anchor="middle" x="546" y="-413.73" font-family="Times,serif" font-size="14.00">is1functor_abext01</text>
</a>
</g>
</g>
<!-- Ext_is1bifunctor_abext&#45;&gt;Ext_is1functor_abext01 -->
<g id="edge8" class="edge">
<title>Ext_is1bifunctor_abext&#45;&gt;Ext_is1functor_abext01</title>
<path fill="none" stroke="black" d="M466.38,-486.26C482.45,-472.57 502.46,-455.52 518.41,-441.94"/>
<polygon fill="black" stroke="black" points="520.99,-444.34 526.33,-435.19 516.45,-439.01 520.99,-444.34"/>
</g>
<!-- Ext_is1bifunctor_ext -->
<g id="node17" class="node">
<title>Ext_is1bifunctor_ext</title>
<g id="a_node17"><a xlink:href="Ext.html#is1bifunctor_ext" xlink:title="is1bifunctor_ext">
<ellipse fill="#f070d1" stroke="black" cx="822" cy="-417.43" rx="85.59" ry="18"/>
<text text-anchor="middle" x="822" y="-413.73" font-family="Times,serif" font-size="14.00">is1bifunctor_ext</text>
</a>
</g>
</g>
<!-- Ext_is1bifunctor_abext&#45;&gt;Ext_is1bifunctor_ext -->
<g id="edge9" class="edge">
<title>Ext_is1bifunctor_abext&#45;&gt;Ext_is1bifunctor_ext</title>
<path fill="none" stroke="black" d="M511.58,-492.81C582.84,-475.73 689.8,-450.11 757.72,-433.83"/>
<polygon fill="black" stroke="black" points="758.96,-437.14 767.87,-431.4 757.33,-430.33 758.96,-437.14"/>
</g>
<!-- Ext_is0functor_abext10 -->
<g id="node9" class="node">
<title>Ext_is0functor_abext10</title>
<g id="a_node9"><a xlink:href="Ext.html#is0functor_abext10" xlink:title="is0functor_abext10">
<ellipse fill="#f070d1" stroke="black" cx="116" cy="-323.43" rx="100.18" ry="18"/>
<text text-anchor="middle" x="116" y="-319.73" font-family="Times,serif" font-size="14.00">is0functor_abext10</text>
</a>
</g>
</g>
<!-- Ext_is0bifunctor_abext&#45;&gt;Ext_is0functor_abext10 -->
<g id="edge10" class="edge">
<title>Ext_is0bifunctor_abext&#45;&gt;Ext_is0functor_abext10</title>
<path fill="none" stroke="black" d="M294.04,-400.62C257.63,-385.04 201.88,-361.18 162.48,-344.32"/>
<polygon fill="black" stroke="black" points="163.41,-340.91 152.84,-340.2 160.65,-347.35 163.41,-340.91"/>
</g>
<!-- Ext_is0functor_abext01 -->
<g id="node10" class="node">
<title>Ext_is0functor_abext01</title>
<g id="a_node10"><a xlink:href="Ext.html#is0functor_abext01" xlink:title="is0functor_abext01">
<ellipse fill="#f070d1" stroke="black" cx="334" cy="-323.43" rx="100.18" ry="18"/>
<text text-anchor="middle" x="334" y="-319.73" font-family="Times,serif" font-size="14.00">is0functor_abext01</text>
</a>
</g>
</g>
<!-- Ext_is0bifunctor_abext&#45;&gt;Ext_is0functor_abext01 -->
<g id="edge11" class="edge">
<title>Ext_is0bifunctor_abext&#45;&gt;Ext_is0functor_abext01</title>
<path fill="none" stroke="black" d="M331.56,-399.13C332,-385.89 332.6,-367.38 333.1,-352.1"/>
<polygon fill="black" stroke="black" points="336.61,-351.77 333.44,-341.66 329.61,-351.54 336.61,-351.77"/>
</g>
<!-- Ext_is1functor_abext10&#45;&gt;Ext_is0functor_abext10 -->
<g id="edge12" class="edge">
<title>Ext_is1functor_abext10&#45;&gt;Ext_is0functor_abext10</title>
<path fill="none" stroke="black" d="M116,-399.13C116,-385.89 116,-367.38 116,-352.1"/>
<polygon fill="black" stroke="black" points="119.5,-351.66 116,-341.66 112.5,-351.66 119.5,-351.66"/>
</g>
<!-- Ext_is1functor_abext01&#45;&gt;Ext_is0functor_abext01 -->
<g id="edge13" class="edge">
<title>Ext_is1functor_abext01&#45;&gt;Ext_is0functor_abext01</title>
<path fill="none" stroke="black" d="M509.56,-400.62C473.76,-385.08 419.01,-361.33 380.19,-344.48"/>
<polygon fill="black" stroke="black" points="381.24,-341.12 370.68,-340.35 378.46,-347.54 381.24,-341.12"/>
</g>
<!-- Ext_is0functor_abext10&#45;&gt;Ext_ab_ext -->
<g id="edge14" class="edge">
<title>Ext_is0functor_abext10&#45;&gt;Ext_ab_ext</title>
<path fill="none" stroke="black" d="M152.93,-306.61C197.33,-287.58 271.44,-255.82 316.22,-236.63"/>
<polygon fill="black" stroke="black" points="317.77,-239.77 325.58,-232.62 315.01,-233.34 317.77,-239.77"/>
</g>
<!-- Ext_is0functor_abext01&#45;&gt;Ext_ab_ext -->
<g id="edge15" class="edge">
<title>Ext_is0functor_abext01&#45;&gt;Ext_ab_ext</title>
<path fill="none" stroke="black" d="M337.39,-305.13C340.49,-289.36 345.11,-265.8 348.69,-247.53"/>
<polygon fill="black" stroke="black" points="352.17,-247.97 350.66,-237.48 345.3,-246.62 352.17,-247.97"/>
</g>
<!-- Ext_grp_ext -->
<g id="node12" class="node">
<title>Ext_grp_ext</title>
<g id="a_node12"><a xlink:href="Ext.html#grp_ext" xlink:title="grp_ext">
<ellipse fill="#f070d1" stroke="black" cx="379" cy="-125.43" rx="46.29" ry="18"/>
<text text-anchor="middle" x="379" y="-121.73" font-family="Times,serif" font-size="14.00">grp_ext</text>
</a>
</g>
</g>
<!-- Ext_ab_ext&#45;&gt;Ext_grp_ext -->
<g id="edge16" class="edge">
<title>Ext_ab_ext&#45;&gt;Ext_grp_ext</title>
<path fill="none" stroke="black" d="M358.7,-201.13C362.36,-187.68 367.49,-168.78 371.68,-153.36"/>
<polygon fill="black" stroke="black" points="375.16,-153.92 374.4,-143.35 368.4,-152.08 375.16,-153.92"/>
</g>
<!-- Ext_Ext -->
<g id="node19" class="node">
<title>Ext_Ext</title>
<g id="a_node19"><a xlink:href="Ext.html#Ext" xlink:title="Ext">
<ellipse fill="#f070d1" stroke="black" cx="629" cy="-40.43" rx="27" ry="18"/>
<text text-anchor="middle" x="629" y="-36.73" font-family="Times,serif" font-size="14.00">Ext</text>
</a>
</g>
</g>
<!-- Ext_grp_ext&#45;&gt;Ext_Ext -->
<g id="edge17" class="edge">
<title>Ext_grp_ext&#45;&gt;Ext_Ext</title>
<path fill="none" stroke="black" d="M412.98,-113.15C460.96,-97.22 548.04,-68.31 595.67,-52.5"/>
<polygon fill="black" stroke="black" points="596.82,-55.81 605.21,-49.33 594.61,-49.16 596.82,-55.81"/>
</g>
<!-- Ext_is1bifunctor_ext_ -->
<g id="node13" class="node">
<title>Ext_is1bifunctor_ext_</title>
<g id="a_node13"><a xlink:href="Ext.html#is1bifunctor_ext'" xlink:title="is1bifunctor_ext&#39;">
<ellipse fill="#f070d1" stroke="black" cx="779" cy="-323.43" rx="88.29" ry="18"/>
<ellipse fill="none" stroke="black" cx="779" cy="-323.43" rx="92.29" ry="22"/>
<ellipse fill="none" stroke="black" cx="779" cy="-323.43" rx="96.28" ry="26"/>
<text text-anchor="middle" x="779" y="-319.73" font-family="Times,serif" font-size="14.00">is1bifunctor_ext&#39;</text>
</a>
</g>
</g>
<!-- Ext_is1bifunctor_ext_&#45;&gt;Ext_is0bifunctor_ext_ -->
<g id="edge18" class="edge">
<title>Ext_is1bifunctor_ext_&#45;&gt;Ext_is0bifunctor_ext_</title>
<path fill="none" stroke="black" d="M726.37,-301.55C680.4,-283.3 614.25,-257.05 569.78,-239.4"/>
<polygon fill="black" stroke="black" points="570.94,-236.09 560.35,-235.66 568.36,-242.6 570.94,-236.09"/>
</g>
<!-- Ext_Ext_ -->
<g id="node15" class="node">
<title>Ext_Ext_</title>
<g id="a_node15"><a xlink:href="Ext.html#Ext'" xlink:title="Ext&#39;">
<ellipse fill="#f070d1" stroke="black" cx="496" cy="-125.43" rx="29.5" ry="18"/>
<text text-anchor="middle" x="496" y="-121.73" font-family="Times,serif" font-size="14.00">Ext&#39;</text>
</a>
</g>
</g>
<!-- Ext_is0bifunctor_ext_&#45;&gt;Ext_Ext_ -->
<g id="edge19" class="edge">
<title>Ext_is0bifunctor_ext_&#45;&gt;Ext_Ext_</title>
<path fill="none" stroke="black" d="M517.11,-201.13C513.31,-187.68 507.97,-168.78 503.61,-153.36"/>
<polygon fill="black" stroke="black" points="506.87,-152.02 500.78,-143.35 500.13,-153.93 506.87,-152.02"/>
</g>
<!-- Ext_iff_ab_ext_trivial_split&#45;&gt;Ext_Ext -->
<g id="edge20" class="edge">
<title>Ext_iff_ab_ext_trivial_split&#45;&gt;Ext_Ext</title>
<path fill="none" stroke="black" d="M803.86,-108.63C762.4,-92.7 699.26,-68.43 661.28,-53.84"/>
<polygon fill="black" stroke="black" points="662.32,-50.49 651.73,-50.17 659.81,-57.02 662.32,-50.49"/>
</g>
<!-- Ext_is0bifunctor_ext -->
<g id="node18" class="node">
<title>Ext_is0bifunctor_ext</title>
<g id="a_node18"><a xlink:href="Ext.html#is0bifunctor_ext" xlink:title="is0bifunctor_ext">
<ellipse fill="#f070d1" stroke="black" cx="629" cy="-125.43" rx="85.59" ry="18"/>
<text text-anchor="middle" x="629" y="-121.73" font-family="Times,serif" font-size="14.00">is0bifunctor_ext</text>
</a>
</g>
</g>
<!-- Ext_is1bifunctor_ext&#45;&gt;Ext_is0bifunctor_ext -->
<g id="edge21" class="edge">
<title>Ext_is1bifunctor_ext&#45;&gt;Ext_is0bifunctor_ext</title>
<path fill="none" stroke="black" d="M842.13,-399.81C869.02,-375.61 910.39,-330.02 884,-297.43 813.93,-210.94 712.63,-328.92 639,-245.43 617.06,-220.56 618.64,-180.31 622.9,-153.61"/>
<polygon fill="black" stroke="black" points="626.41,-153.89 624.77,-143.42 619.53,-152.63 626.41,-153.89"/>
</g>
<!-- Ext_is0bifunctor_ext&#45;&gt;Ext_Ext -->
<g id="edge22" class="edge">
<title>Ext_is0bifunctor_ext&#45;&gt;Ext_Ext</title>
<path fill="none" stroke="black" d="M629,-107.24C629,-96.11 629,-81.38 629,-68.68"/>
<polygon fill="black" stroke="black" points="632.5,-68.61 629,-58.61 625.5,-68.61 632.5,-68.61"/>
</g>
</g>
</svg>
