<?xml version="1.0" encoding="UTF-8" standalone="no"?>
<!DOCTYPE svg PUBLIC "-//W3C//DTD SVG 1.1//EN"
 "http://www.w3.org/Graphics/SVG/1.1/DTD/svg11.dtd">
<!-- Generated by graphviz version 2.43.0 (0)
 -->
<!-- Title: HoTT_Spaces_Int_Spec Pages: 1 -->
<svg width="2268pt" height="1138pt"
 viewBox="0.00 0.00 2268.00 1138.00" xmlns="http://www.w3.org/2000/svg" xmlns:xlink="http://www.w3.org/1999/xlink">
<g id="graph0" class="graph" transform="scale(1 1) rotate(0) translate(4 1134)">
<title>HoTT_Spaces_Int_Spec</title>
<polygon fill="white" stroke="transparent" points="-4,4 -4,-1134 2264,-1134 2264,4 -4,4"/>
<g id="clust1" class="cluster">
<title>cluster_Spec</title>
<polygon fill="#ffffc3" stroke="black" points="8,-11.49 8,-1118.51 2252,-1118.51 2252,-11.49 8,-11.49"/>
<text text-anchor="middle" x="33.5" y="-1103.31" font-family="Times,serif" font-size="14.00">Spec</text>
</g>
<!-- Spec_int_mul_assoc -->
<g id="node1" class="node">
<title>Spec_int_mul_assoc</title>
<g id="a_node1"><a xlink:href="Spec.html#int_mul_assoc" xlink:title="int_mul_assoc">
<ellipse fill="#f070d1" stroke="black" cx="2161" cy="-1036.49" rx="75.3" ry="18"/>
<ellipse fill="none" stroke="black" cx="2161" cy="-1036.49" rx="79.29" ry="22"/>
<ellipse fill="none" stroke="black" cx="2161" cy="-1036.49" rx="83.29" ry="26"/>
<text text-anchor="middle" x="2161" y="-1032.79" font-family="Times,serif" font-size="14.00">int_mul_assoc</text>
</a>
</g>
</g>
<!-- Spec_int_mul_add_distr_l -->
<g id="node2" class="node">
<title>Spec_int_mul_add_distr_l</title>
<g id="a_node2"><a xlink:href="Spec.html#int_mul_add_distr_l" xlink:title="int_mul_add_distr_l">
<ellipse fill="#f070d1" stroke="black" cx="1951" cy="-1036.49" rx="100.96" ry="18"/>
<ellipse fill="none" stroke="black" cx="1951" cy="-1036.49" rx="104.97" ry="22"/>
<ellipse fill="none" stroke="black" cx="1951" cy="-1036.49" rx="108.98" ry="26"/>
<text text-anchor="middle" x="1951" y="-1032.79" font-family="Times,serif" font-size="14.00">int_mul_add_distr_l</text>
</a>
</g>
</g>
<!-- Spec_int_mul_add_distr_r -->
<g id="node3" class="node">
<title>Spec_int_mul_add_distr_r</title>
<g id="a_node3"><a xlink:href="Spec.html#int_mul_add_distr_r" xlink:title="int_mul_add_distr_r">
<ellipse fill="#f070d1" stroke="black" cx="1927" cy="-921.49" rx="102.08" ry="18"/>
<text text-anchor="middle" x="1927" y="-917.79" font-family="Times,serif" font-size="14.00">int_mul_add_distr_r</text>
</a>
</g>
</g>
<!-- Spec_int_mul_add_distr_l&#45;&gt;Spec_int_mul_add_distr_r -->
<g id="edge1" class="edge">
<title>Spec_int_mul_add_distr_l&#45;&gt;Spec_int_mul_add_distr_r</title>
<path fill="none" stroke="black" d="M1945.67,-1010.41C1941.85,-992.39 1936.69,-968.11 1932.77,-949.64"/>
<polygon fill="black" stroke="black" points="1936.17,-948.84 1930.67,-939.78 1929.33,-950.29 1936.17,-948.84"/>
</g>
<!-- Spec_int_pos_sub_mul_neg -->
<g id="node4" class="node">
<title>Spec_int_pos_sub_mul_neg</title>
<g id="a_node4"><a xlink:href="Spec.html#int_pos_sub_mul_neg" xlink:title="int_pos_sub_mul_neg">
<ellipse fill="#f070d1" stroke="black" cx="1903" cy="-806.49" rx="108.58" ry="18"/>
<text text-anchor="middle" x="1903" y="-802.79" font-family="Times,serif" font-size="14.00">int_pos_sub_mul_neg</text>
</a>
</g>
</g>
<!-- Spec_int_mul_add_distr_r&#45;&gt;Spec_int_pos_sub_mul_neg -->
<g id="edge2" class="edge">
<title>Spec_int_mul_add_distr_r&#45;&gt;Spec_int_pos_sub_mul_neg</title>
<path fill="none" stroke="black" d="M1923.35,-903.32C1919.5,-885.16 1913.35,-856.21 1908.82,-834.88"/>
<polygon fill="black" stroke="black" points="1912.18,-833.87 1906.68,-824.81 1905.33,-835.32 1912.18,-833.87"/>
</g>
<!-- Spec_int_pos_sub_mul_pos -->
<g id="node5" class="node">
<title>Spec_int_pos_sub_mul_pos</title>
<g id="a_node5"><a xlink:href="Spec.html#int_pos_sub_mul_pos" xlink:title="int_pos_sub_mul_pos">
<ellipse fill="#f070d1" stroke="black" cx="2137" cy="-806.49" rx="107.48" ry="18"/>
<text text-anchor="middle" x="2137" y="-802.79" font-family="Times,serif" font-size="14.00">int_pos_sub_mul_pos</text>
</a>
</g>
</g>
<!-- Spec_int_mul_add_distr_r&#45;&gt;Spec_int_pos_sub_mul_pos -->
<g id="edge3" class="edge">
<title>Spec_int_mul_add_distr_r&#45;&gt;Spec_int_pos_sub_mul_pos</title>
<path fill="none" stroke="black" d="M1957.54,-904.06C1994.55,-884.14 2057,-850.53 2097.61,-828.68"/>
<polygon fill="black" stroke="black" points="2099.28,-831.76 2106.43,-823.94 2095.96,-825.59 2099.28,-831.76"/>
</g>
<!-- Spec_int_mul_0_r -->
<g id="node39" class="node">
<title>Spec_int_mul_0_r</title>
<g id="a_node39"><a xlink:href="Spec.html#int_mul_0_r" xlink:title="int_mul_0_r">
<ellipse fill="#f070d1" stroke="black" cx="1712" cy="-806.49" rx="64.19" ry="18"/>
<text text-anchor="middle" x="1712" y="-802.79" font-family="Times,serif" font-size="14.00">int_mul_0_r</text>
</a>
</g>
</g>
<!-- Spec_int_mul_add_distr_r&#45;&gt;Spec_int_mul_0_r -->
<g id="edge4" class="edge">
<title>Spec_int_mul_add_distr_r&#45;&gt;Spec_int_mul_0_r</title>
<path fill="none" stroke="black" d="M1896.2,-904.3C1857.66,-884.04 1791.68,-849.37 1750.04,-827.48"/>
<polygon fill="black" stroke="black" points="1751.51,-824.3 1741.03,-822.74 1748.25,-830.49 1751.51,-824.3"/>
</g>
<!-- Spec_int_mul_comm -->
<g id="node6" class="node">
<title>Spec_int_mul_comm</title>
<g id="a_node6"><a xlink:href="Spec.html#int_mul_comm" xlink:title="int_mul_comm">
<ellipse fill="#f070d1" stroke="black" cx="1941" cy="-692.49" rx="77.19" ry="18"/>
<text text-anchor="middle" x="1941" y="-688.79" font-family="Times,serif" font-size="14.00">int_mul_comm</text>
</a>
</g>
</g>
<!-- Spec_int_pos_sub_mul_neg&#45;&gt;Spec_int_mul_comm -->
<g id="edge5" class="edge">
<title>Spec_int_pos_sub_mul_neg&#45;&gt;Spec_int_mul_comm</title>
<path fill="none" stroke="black" d="M1908.77,-788.48C1914.91,-770.39 1924.7,-741.52 1931.89,-720.35"/>
<polygon fill="black" stroke="black" points="1935.28,-721.25 1935.17,-710.66 1928.65,-719 1935.28,-721.25"/>
</g>
<!-- Spec_int_add_assoc -->
<g id="node11" class="node">
<title>Spec_int_add_assoc</title>
<g id="a_node11"><a xlink:href="Spec.html#int_add_assoc" xlink:title="int_add_assoc">
<ellipse fill="#f070d1" stroke="black" cx="1449" cy="-692.49" rx="74.99" ry="18"/>
<text text-anchor="middle" x="1449" y="-688.79" font-family="Times,serif" font-size="14.00">int_add_assoc</text>
</a>
</g>
</g>
<!-- Spec_int_pos_sub_mul_neg&#45;&gt;Spec_int_add_assoc -->
<g id="edge6" class="edge">
<title>Spec_int_pos_sub_mul_neg&#45;&gt;Spec_int_add_assoc</title>
<path fill="none" stroke="black" d="M1845.04,-791.19C1758.61,-769.87 1596.75,-729.94 1509.09,-708.31"/>
<polygon fill="black" stroke="black" points="1509.85,-704.89 1499.3,-705.89 1508.17,-711.69 1509.85,-704.89"/>
</g>
<!-- Spec_int_pos_sub_mul_pos&#45;&gt;Spec_int_mul_comm -->
<g id="edge7" class="edge">
<title>Spec_int_pos_sub_mul_pos&#45;&gt;Spec_int_mul_comm</title>
<path fill="none" stroke="black" d="M2108.08,-788.96C2073.52,-769.22 2015.66,-736.15 1977.91,-714.58"/>
<polygon fill="black" stroke="black" points="1979.19,-711.28 1968.77,-709.36 1975.72,-717.36 1979.19,-711.28"/>
</g>
<!-- Spec_int_pos_sub_mul_pos&#45;&gt;Spec_int_add_assoc -->
<g id="edge8" class="edge">
<title>Spec_int_pos_sub_mul_pos&#45;&gt;Spec_int_add_assoc</title>
<path fill="none" stroke="black" d="M2076.04,-791.61C2058.33,-787.78 2038.93,-783.78 2021,-780.49 1843.04,-747.81 1632.33,-718.04 1523.06,-703.27"/>
<polygon fill="black" stroke="black" points="1523.5,-699.8 1513.12,-701.93 1522.57,-706.74 1523.5,-699.8"/>
</g>
<!-- Spec_int_mul_1_l -->
<g id="node38" class="node">
<title>Spec_int_mul_1_l</title>
<g id="a_node38"><a xlink:href="Spec.html#int_mul_1_l" xlink:title="int_mul_1_l">
<ellipse fill="#f070d1" stroke="black" cx="2137" cy="-692.49" rx="63.09" ry="18"/>
<text text-anchor="middle" x="2137" y="-688.79" font-family="Times,serif" font-size="14.00">int_mul_1_l</text>
</a>
</g>
</g>
<!-- Spec_int_pos_sub_mul_pos&#45;&gt;Spec_int_mul_1_l -->
<g id="edge9" class="edge">
<title>Spec_int_pos_sub_mul_pos&#45;&gt;Spec_int_mul_1_l</title>
<path fill="none" stroke="black" d="M2137,-788.48C2137,-770.55 2137,-742.04 2137,-720.93"/>
<polygon fill="black" stroke="black" points="2140.5,-720.66 2137,-710.66 2133.5,-720.66 2140.5,-720.66"/>
</g>
<!-- Spec_int_add_pred_r -->
<g id="node7" class="node">
<title>Spec_int_add_pred_r</title>
<g id="a_node7"><a xlink:href="Spec.html#int_add_pred_r" xlink:title="int_add_pred_r">
<ellipse fill="#f070d1" stroke="black" cx="972" cy="-806.49" rx="79.11" ry="18"/>
<ellipse fill="none" stroke="black" cx="972" cy="-806.49" rx="83.1" ry="22"/>
<ellipse fill="none" stroke="black" cx="972" cy="-806.49" rx="87.09" ry="26"/>
<text text-anchor="middle" x="972" y="-802.79" font-family="Times,serif" font-size="14.00">int_add_pred_r</text>
</a>
</g>
</g>
<!-- Spec_int_add_pred_r&#45;&gt;Spec_int_add_assoc -->
<g id="edge10" class="edge">
<title>Spec_int_add_pred_r&#45;&gt;Spec_int_add_assoc</title>
<path fill="none" stroke="black" d="M1036.12,-788.7C1047.07,-785.91 1058.35,-783.08 1069,-780.49 1180.24,-753.42 1310.38,-724.14 1385.88,-707.39"/>
<polygon fill="black" stroke="black" points="1386.71,-710.79 1395.71,-705.21 1385.19,-703.95 1386.71,-710.79"/>
</g>
<!-- Spec_int_add_pred_l -->
<g id="node8" class="node">
<title>Spec_int_add_pred_l</title>
<g id="a_node8"><a xlink:href="Spec.html#int_add_pred_l" xlink:title="int_add_pred_l">
<ellipse fill="#f070d1" stroke="black" cx="1544" cy="-806.49" rx="77.99" ry="18"/>
<ellipse fill="none" stroke="black" cx="1544" cy="-806.49" rx="81.99" ry="22"/>
<ellipse fill="none" stroke="black" cx="1544" cy="-806.49" rx="85.99" ry="26"/>
<text text-anchor="middle" x="1544" y="-802.79" font-family="Times,serif" font-size="14.00">int_add_pred_l</text>
</a>
</g>
</g>
<!-- Spec_int_add_pred_l&#45;&gt;Spec_int_add_assoc -->
<g id="edge11" class="edge">
<title>Spec_int_add_pred_l&#45;&gt;Spec_int_add_assoc</title>
<path fill="none" stroke="black" d="M1523.39,-781.18C1507.6,-762.58 1485.92,-737.01 1470.03,-718.28"/>
<polygon fill="black" stroke="black" points="1472.54,-715.82 1463.4,-710.46 1467.2,-720.35 1472.54,-715.82"/>
</g>
<!-- Spec_int_add_succ_r -->
<g id="node9" class="node">
<title>Spec_int_add_succ_r</title>
<g id="a_node9"><a xlink:href="Spec.html#int_add_succ_r" xlink:title="int_add_succ_r">
<ellipse fill="#f070d1" stroke="black" cx="1353" cy="-806.49" rx="78.77" ry="18"/>
<ellipse fill="none" stroke="black" cx="1353" cy="-806.49" rx="82.78" ry="22"/>
<ellipse fill="none" stroke="black" cx="1353" cy="-806.49" rx="86.79" ry="26"/>
<text text-anchor="middle" x="1353" y="-802.79" font-family="Times,serif" font-size="14.00">int_add_succ_r</text>
</a>
</g>
</g>
<!-- Spec_int_add_succ_r&#45;&gt;Spec_int_add_assoc -->
<g id="edge12" class="edge">
<title>Spec_int_add_succ_r&#45;&gt;Spec_int_add_assoc</title>
<path fill="none" stroke="black" d="M1373.83,-781.18C1389.78,-762.58 1411.69,-737.01 1427.75,-718.28"/>
<polygon fill="black" stroke="black" points="1430.6,-720.33 1434.45,-710.46 1425.28,-715.78 1430.6,-720.33"/>
</g>
<!-- Spec_int_add_succ_l -->
<g id="node10" class="node">
<title>Spec_int_add_succ_l</title>
<g id="a_node10"><a xlink:href="Spec.html#int_add_succ_l" xlink:title="int_add_succ_l">
<ellipse fill="#f070d1" stroke="black" cx="1163" cy="-806.49" rx="77.2" ry="18"/>
<ellipse fill="none" stroke="black" cx="1163" cy="-806.49" rx="81.19" ry="22"/>
<ellipse fill="none" stroke="black" cx="1163" cy="-806.49" rx="85.19" ry="26"/>
<text text-anchor="middle" x="1163" y="-802.79" font-family="Times,serif" font-size="14.00">int_add_succ_l</text>
</a>
</g>
</g>
<!-- Spec_int_add_succ_l&#45;&gt;Spec_int_add_assoc -->
<g id="edge13" class="edge">
<title>Spec_int_add_succ_l&#45;&gt;Spec_int_add_assoc</title>
<path fill="none" stroke="black" d="M1213.8,-785.59C1267.03,-764.75 1349.98,-732.26 1401.82,-711.96"/>
<polygon fill="black" stroke="black" points="1403.4,-715.1 1411.43,-708.2 1400.85,-708.59 1403.4,-715.1"/>
</g>
<!-- Spec_int_add_assoc_pos -->
<g id="node12" class="node">
<title>Spec_int_add_assoc_pos</title>
<g id="a_node12"><a xlink:href="Spec.html#int_add_assoc_pos" xlink:title="int_add_assoc_pos">
<ellipse fill="#f070d1" stroke="black" cx="1449" cy="-588.49" rx="94.78" ry="18"/>
<text text-anchor="middle" x="1449" y="-584.79" font-family="Times,serif" font-size="14.00">int_add_assoc_pos</text>
</a>
</g>
</g>
<!-- Spec_int_add_assoc&#45;&gt;Spec_int_add_assoc_pos -->
<g id="edge14" class="edge">
<title>Spec_int_add_assoc&#45;&gt;Spec_int_add_assoc_pos</title>
<path fill="none" stroke="black" d="M1449,-674.18C1449,-658.41 1449,-634.85 1449,-616.58"/>
<polygon fill="black" stroke="black" points="1452.5,-616.53 1449,-606.53 1445.5,-616.53 1452.5,-616.53"/>
</g>
<!-- Spec_int_pos_sub_add -->
<g id="node13" class="node">
<title>Spec_int_pos_sub_add</title>
<g id="a_node13"><a xlink:href="Spec.html#int_pos_sub_add" xlink:title="int_pos_sub_add">
<ellipse fill="#f070d1" stroke="black" cx="1449" cy="-473.49" rx="86.38" ry="18"/>
<text text-anchor="middle" x="1449" y="-469.79" font-family="Times,serif" font-size="14.00">int_pos_sub_add</text>
</a>
</g>
</g>
<!-- Spec_int_add_assoc_pos&#45;&gt;Spec_int_pos_sub_add -->
<g id="edge15" class="edge">
<title>Spec_int_add_assoc_pos&#45;&gt;Spec_int_pos_sub_add</title>
<path fill="none" stroke="black" d="M1449,-570.32C1449,-552.16 1449,-523.21 1449,-501.88"/>
<polygon fill="black" stroke="black" points="1452.5,-501.81 1449,-491.81 1445.5,-501.81 1452.5,-501.81"/>
</g>
<!-- Spec_int_negation_add_distr -->
<g id="node23" class="node">
<title>Spec_int_negation_add_distr</title>
<g id="a_node23"><a xlink:href="Spec.html#int_negation_add_distr" xlink:title="int_negation_add_distr">
<ellipse fill="#f070d1" stroke="black" cx="1750" cy="-358.49" rx="116.18" ry="18"/>
<text text-anchor="middle" x="1750" y="-354.79" font-family="Times,serif" font-size="14.00">int_negation_add_distr</text>
</a>
</g>
</g>
<!-- Spec_int_add_assoc_pos&#45;&gt;Spec_int_negation_add_distr -->
<g id="edge16" class="edge">
<title>Spec_int_add_assoc_pos&#45;&gt;Spec_int_negation_add_distr</title>
<path fill="none" stroke="black" d="M1471.13,-570.72C1524.3,-530.45 1659.26,-428.22 1719.8,-382.36"/>
<polygon fill="black" stroke="black" points="1721.98,-385.1 1727.83,-376.28 1717.75,-379.52 1721.98,-385.1"/>
</g>
<!-- Spec_int_add_0_r -->
<g id="node41" class="node">
<title>Spec_int_add_0_r</title>
<g id="a_node41"><a xlink:href="Spec.html#int_add_0_r" xlink:title="int_add_0_r">
<ellipse fill="#f070d1" stroke="black" cx="1281" cy="-473.49" rx="63.89" ry="18"/>
<text text-anchor="middle" x="1281" y="-469.79" font-family="Times,serif" font-size="14.00">int_add_0_r</text>
</a>
</g>
</g>
<!-- Spec_int_add_assoc_pos&#45;&gt;Spec_int_add_0_r -->
<g id="edge17" class="edge">
<title>Spec_int_add_assoc_pos&#45;&gt;Spec_int_add_0_r</title>
<path fill="none" stroke="black" d="M1424.57,-571.06C1395.21,-551.3 1345.83,-518.1 1313.33,-496.23"/>
<polygon fill="black" stroke="black" points="1314.89,-493.07 1304.64,-490.39 1310.99,-498.88 1314.89,-493.07"/>
</g>
<!-- Spec_int_pred_add_r -->
<g id="node14" class="node">
<title>Spec_int_pred_add_r</title>
<g id="a_node14"><a xlink:href="Spec.html#int_pred_add_r" xlink:title="int_pred_add_r">
<ellipse fill="#f070d1" stroke="black" cx="1268" cy="-358.49" rx="79.09" ry="18"/>
<text text-anchor="middle" x="1268" y="-354.79" font-family="Times,serif" font-size="14.00">int_pred_add_r</text>
</a>
</g>
</g>
<!-- Spec_int_pos_sub_add&#45;&gt;Spec_int_pred_add_r -->
<g id="edge18" class="edge">
<title>Spec_int_pos_sub_add&#45;&gt;Spec_int_pred_add_r</title>
<path fill="none" stroke="black" d="M1423.07,-456.3C1391.35,-436.49 1337.55,-402.9 1302.39,-380.96"/>
<polygon fill="black" stroke="black" points="1304.22,-377.97 1293.88,-375.65 1300.51,-383.91 1304.22,-377.97"/>
</g>
<!-- Spec_int_negation_pred_negation_red -->
<g id="node15" class="node">
<title>Spec_int_negation_pred_negation_red</title>
<g id="a_node15"><a xlink:href="Spec.html#int_negation_pred_negation_red" xlink:title="int_negation_pred_negation_red">
<ellipse fill="#f070d1" stroke="black" cx="1523" cy="-255.49" rx="159.47" ry="18"/>
<text text-anchor="middle" x="1523" y="-251.79" font-family="Times,serif" font-size="14.00">int_negation_pred_negation_red</text>
</a>
</g>
</g>
<!-- Spec_int_pred_add_r&#45;&gt;Spec_int_negation_pred_negation_red -->
<g id="edge19" class="edge">
<title>Spec_int_pred_add_r&#45;&gt;Spec_int_negation_pred_negation_red</title>
<path fill="none" stroke="black" d="M1305.63,-342.58C1349.66,-325.14 1422.78,-296.18 1471.91,-276.72"/>
<polygon fill="black" stroke="black" points="1473.4,-279.9 1481.4,-272.96 1470.82,-273.39 1473.4,-279.9"/>
</g>
<!-- Spec_int_pred_pos_sub_r -->
<g id="node16" class="node">
<title>Spec_int_pred_pos_sub_r</title>
<g id="a_node16"><a xlink:href="Spec.html#int_pred_pos_sub_r" xlink:title="int_pred_pos_sub_r">
<ellipse fill="#f070d1" stroke="black" cx="886" cy="-255.49" rx="99.38" ry="18"/>
<text text-anchor="middle" x="886" y="-251.79" font-family="Times,serif" font-size="14.00">int_pred_pos_sub_r</text>
</a>
</g>
</g>
<!-- Spec_int_pred_add_r&#45;&gt;Spec_int_pred_pos_sub_r -->
<g id="edge20" class="edge">
<title>Spec_int_pred_add_r&#45;&gt;Spec_int_pred_pos_sub_r</title>
<path fill="none" stroke="black" d="M1218.45,-344.39C1149.67,-326.2 1025.22,-293.3 949.64,-273.31"/>
<polygon fill="black" stroke="black" points="950.33,-269.87 939.77,-270.7 948.54,-276.64 950.33,-269.87"/>
</g>
<!-- Spec_int_negation_inj -->
<g id="node22" class="node">
<title>Spec_int_negation_inj</title>
<g id="a_node22"><a xlink:href="Spec.html#int_negation_inj" xlink:title="int_negation_inj">
<ellipse fill="#f070d1" stroke="black" cx="1088" cy="-255.49" rx="84.49" ry="18"/>
<text text-anchor="middle" x="1088" y="-251.79" font-family="Times,serif" font-size="14.00">int_negation_inj</text>
</a>
</g>
</g>
<!-- Spec_int_pred_add_r&#45;&gt;Spec_int_negation_inj -->
<g id="edge21" class="edge">
<title>Spec_int_pred_add_r&#45;&gt;Spec_int_negation_inj</title>
<path fill="none" stroke="black" d="M1239.48,-341.48C1208.76,-324.25 1159.74,-296.74 1125.82,-277.71"/>
<polygon fill="black" stroke="black" points="1127.12,-274.42 1116.69,-272.58 1123.69,-280.53 1127.12,-274.42"/>
</g>
<!-- Spec_int_pred_succ -->
<g id="node26" class="node">
<title>Spec_int_pred_succ</title>
<g id="a_node26"><a xlink:href="Spec.html#int_pred_succ" xlink:title="int_pred_succ">
<ellipse fill="#f070d1" stroke="black" cx="694" cy="-255.49" rx="74.19" ry="18"/>
<text text-anchor="middle" x="694" y="-251.79" font-family="Times,serif" font-size="14.00">int_pred_succ</text>
</a>
</g>
</g>
<!-- Spec_int_pred_add_r&#45;&gt;Spec_int_pred_succ -->
<g id="edge22" class="edge">
<title>Spec_int_pred_add_r&#45;&gt;Spec_int_pred_succ</title>
<path fill="none" stroke="black" d="M1205.24,-347.34C1111.92,-332.12 931.14,-302.1 778,-273.49 771.76,-272.32 765.27,-271.07 758.78,-269.8"/>
<polygon fill="black" stroke="black" points="759.12,-266.3 748.63,-267.79 757.76,-273.16 759.12,-266.3"/>
</g>
<!-- Spec_int_pos_sub_negation -->
<g id="node28" class="node">
<title>Spec_int_pos_sub_negation</title>
<g id="a_node28"><a xlink:href="Spec.html#int_pos_sub_negation" xlink:title="int_pos_sub_negation">
<ellipse fill="#f070d1" stroke="black" cx="1810" cy="-255.49" rx="109.68" ry="18"/>
<text text-anchor="middle" x="1810" y="-251.79" font-family="Times,serif" font-size="14.00">int_pos_sub_negation</text>
</a>
</g>
</g>
<!-- Spec_int_pred_add_r&#45;&gt;Spec_int_pos_sub_negation -->
<g id="edge23" class="edge">
<title>Spec_int_pred_add_r&#45;&gt;Spec_int_pos_sub_negation</title>
<path fill="none" stroke="black" d="M1327.29,-346.44C1425.18,-328.2 1620.66,-291.77 1730.45,-271.31"/>
<polygon fill="black" stroke="black" points="1731.29,-274.71 1740.48,-269.44 1730.01,-267.83 1731.29,-274.71"/>
</g>
<!-- Spec_int_add_comm -->
<g id="node43" class="node">
<title>Spec_int_add_comm</title>
<g id="a_node43"><a xlink:href="Spec.html#int_add_comm" xlink:title="int_add_comm">
<ellipse fill="#f070d1" stroke="black" cx="1268" cy="-255.49" rx="77.19" ry="18"/>
<text text-anchor="middle" x="1268" y="-251.79" font-family="Times,serif" font-size="14.00">int_add_comm</text>
</a>
</g>
</g>
<!-- Spec_int_pred_add_r&#45;&gt;Spec_int_add_comm -->
<g id="edge24" class="edge">
<title>Spec_int_pred_add_r&#45;&gt;Spec_int_add_comm</title>
<path fill="none" stroke="black" d="M1268,-340.35C1268,-324.9 1268,-301.9 1268,-283.9"/>
<polygon fill="black" stroke="black" points="1271.5,-283.7 1268,-273.7 1264.5,-283.7 1271.5,-283.7"/>
</g>
<!-- Spec_int_pos_sub_succ_succ -->
<g id="node17" class="node">
<title>Spec_int_pos_sub_succ_succ</title>
<g id="a_node17"><a xlink:href="Spec.html#int_pos_sub_succ_succ" xlink:title="int_pos_sub_succ_succ">
<ellipse fill="#f070d1" stroke="black" cx="886" cy="-152.49" rx="114.28" ry="18"/>
<text text-anchor="middle" x="886" y="-148.79" font-family="Times,serif" font-size="14.00">int_pos_sub_succ_succ</text>
</a>
</g>
</g>
<!-- Spec_int_pred_pos_sub_r&#45;&gt;Spec_int_pos_sub_succ_succ -->
<g id="edge25" class="edge">
<title>Spec_int_pred_pos_sub_r&#45;&gt;Spec_int_pos_sub_succ_succ</title>
<path fill="none" stroke="black" d="M886,-237.35C886,-221.9 886,-198.9 886,-180.9"/>
<polygon fill="black" stroke="black" points="889.5,-180.7 886,-170.7 882.5,-180.7 889.5,-180.7"/>
</g>
<!-- Spec_int_pred_double_int_pos_sub -->
<g id="node18" class="node">
<title>Spec_int_pred_double_int_pos_sub</title>
<g id="a_node18"><a xlink:href="Spec.html#int_pred_double_int_pos_sub" xlink:title="int_pred_double_int_pos_sub">
<ellipse fill="#f070d1" stroke="black" cx="734" cy="-48.49" rx="143.77" ry="18"/>
<text text-anchor="middle" x="734" y="-44.79" font-family="Times,serif" font-size="14.00">int_pred_double_int_pos_sub</text>
</a>
</g>
</g>
<!-- Spec_int_pos_sub_succ_succ&#45;&gt;Spec_int_pred_double_int_pos_sub -->
<g id="edge26" class="edge">
<title>Spec_int_pos_sub_succ_succ&#45;&gt;Spec_int_pred_double_int_pos_sub</title>
<path fill="none" stroke="black" d="M861.24,-134.87C835.7,-117.73 795.71,-90.9 767.39,-71.89"/>
<polygon fill="black" stroke="black" points="769.26,-68.93 759,-66.26 765.36,-74.74 769.26,-68.93"/>
</g>
<!-- Spec_int_succ_double_int_pos_sub -->
<g id="node19" class="node">
<title>Spec_int_succ_double_int_pos_sub</title>
<g id="a_node19"><a xlink:href="Spec.html#int_succ_double_int_pos_sub" xlink:title="int_succ_double_int_pos_sub">
<ellipse fill="#f070d1" stroke="black" cx="1038" cy="-48.49" rx="142.17" ry="18"/>
<text text-anchor="middle" x="1038" y="-44.79" font-family="Times,serif" font-size="14.00">int_succ_double_int_pos_sub</text>
</a>
</g>
</g>
<!-- Spec_int_pos_sub_succ_succ&#45;&gt;Spec_int_succ_double_int_pos_sub -->
<g id="edge27" class="edge">
<title>Spec_int_pos_sub_succ_succ&#45;&gt;Spec_int_succ_double_int_pos_sub</title>
<path fill="none" stroke="black" d="M910.76,-134.87C936.3,-117.73 976.29,-90.9 1004.61,-71.89"/>
<polygon fill="black" stroke="black" points="1006.64,-74.74 1013,-66.26 1002.74,-68.93 1006.64,-74.74"/>
</g>
<!-- Spec_int_pos_sub_succ_r -->
<g id="node20" class="node">
<title>Spec_int_pos_sub_succ_r</title>
<g id="a_node20"><a xlink:href="Spec.html#int_pos_sub_succ_r" xlink:title="int_pos_sub_succ_r">
<ellipse fill="#f070d1" stroke="black" cx="1717" cy="-1036.49" rx="98.6" ry="18"/>
<ellipse fill="none" stroke="black" cx="1717" cy="-1036.49" rx="102.59" ry="22"/>
<ellipse fill="none" stroke="black" cx="1717" cy="-1036.49" rx="106.58" ry="26"/>
<text text-anchor="middle" x="1717" y="-1032.79" font-family="Times,serif" font-size="14.00">int_pos_sub_succ_r</text>
</a>
</g>
</g>
<!-- Spec_int_pos_sub_succ_l -->
<g id="node21" class="node">
<title>Spec_int_pos_sub_succ_l</title>
<g id="a_node21"><a xlink:href="Spec.html#int_pos_sub_succ_l" xlink:title="int_pos_sub_succ_l">
<ellipse fill="#f070d1" stroke="black" cx="1487" cy="-1036.49" rx="96.7" ry="18"/>
<ellipse fill="none" stroke="black" cx="1487" cy="-1036.49" rx="100.69" ry="22"/>
<ellipse fill="none" stroke="black" cx="1487" cy="-1036.49" rx="104.68" ry="26"/>
<text text-anchor="middle" x="1487" y="-1032.79" font-family="Times,serif" font-size="14.00">int_pos_sub_succ_l</text>
</a>
</g>
</g>
<!-- Spec_int_negation_add_distr&#45;&gt;Spec_int_pos_sub_negation -->
<g id="edge28" class="edge">
<title>Spec_int_negation_add_distr&#45;&gt;Spec_int_pos_sub_negation</title>
<path fill="none" stroke="black" d="M1760.18,-340.35C1769.57,-324.54 1783.66,-300.82 1794.47,-282.64"/>
<polygon fill="black" stroke="black" points="1797.67,-284.09 1799.77,-273.7 1791.66,-280.51 1797.67,-284.09"/>
</g>
<!-- Spec_equiv_int_succ -->
<g id="node24" class="node">
<title>Spec_equiv_int_succ</title>
<g id="a_node24"><a xlink:href="Spec.html#equiv_int_succ" xlink:title="equiv_int_succ">
<ellipse fill="#f070d1" stroke="black" cx="611" cy="-473.49" rx="77.99" ry="18"/>
<ellipse fill="none" stroke="black" cx="611" cy="-473.49" rx="81.99" ry="22"/>
<ellipse fill="none" stroke="black" cx="611" cy="-473.49" rx="85.99" ry="26"/>
<text text-anchor="middle" x="611" y="-469.79" font-family="Times,serif" font-size="14.00">equiv_int_succ</text>
</a>
</g>
</g>
<!-- Spec_isequiv_int_succ -->
<g id="node25" class="node">
<title>Spec_isequiv_int_succ</title>
<g id="a_node25"><a xlink:href="Spec.html#isequiv_int_succ" xlink:title="isequiv_int_succ">
<ellipse fill="#f070d1" stroke="black" cx="611" cy="-358.49" rx="85.59" ry="18"/>
<text text-anchor="middle" x="611" y="-354.79" font-family="Times,serif" font-size="14.00">isequiv_int_succ</text>
</a>
</g>
</g>
<!-- Spec_equiv_int_succ&#45;&gt;Spec_isequiv_int_succ -->
<g id="edge29" class="edge">
<title>Spec_equiv_int_succ&#45;&gt;Spec_isequiv_int_succ</title>
<path fill="none" stroke="black" d="M611,-447.41C611,-429.47 611,-405.34 611,-386.9"/>
<polygon fill="black" stroke="black" points="614.5,-386.78 611,-376.78 607.5,-386.78 614.5,-386.78"/>
</g>
<!-- Spec_isequiv_int_succ&#45;&gt;Spec_int_pred_succ -->
<g id="edge30" class="edge">
<title>Spec_isequiv_int_succ&#45;&gt;Spec_int_pred_succ</title>
<path fill="none" stroke="black" d="M625.08,-340.35C638.4,-324.15 658.53,-299.65 673.6,-281.31"/>
<polygon fill="black" stroke="black" points="676.48,-283.32 680.13,-273.37 671.07,-278.87 676.48,-283.32"/>
</g>
<!-- Spec_int_succ_pred -->
<g id="node27" class="node">
<title>Spec_int_succ_pred</title>
<g id="a_node27"><a xlink:href="Spec.html#int_succ_pred" xlink:title="int_succ_pred">
<ellipse fill="#f070d1" stroke="black" cx="528" cy="-255.49" rx="74.19" ry="18"/>
<text text-anchor="middle" x="528" y="-251.79" font-family="Times,serif" font-size="14.00">int_succ_pred</text>
</a>
</g>
</g>
<!-- Spec_isequiv_int_succ&#45;&gt;Spec_int_succ_pred -->
<g id="edge31" class="edge">
<title>Spec_isequiv_int_succ&#45;&gt;Spec_int_succ_pred</title>
<path fill="none" stroke="black" d="M596.92,-340.35C583.6,-324.15 563.47,-299.65 548.4,-281.31"/>
<polygon fill="black" stroke="black" points="550.93,-278.87 541.87,-273.37 545.52,-283.32 550.93,-278.87"/>
</g>
<!-- Spec_int_negation_succ_double -->
<g id="node29" class="node">
<title>Spec_int_negation_succ_double</title>
<g id="a_node29"><a xlink:href="Spec.html#int_negation_succ_double" xlink:title="int_negation_succ_double">
<ellipse fill="#f070d1" stroke="black" cx="1533" cy="-152.49" rx="128.88" ry="18"/>
<text text-anchor="middle" x="1533" y="-148.79" font-family="Times,serif" font-size="14.00">int_negation_succ_double</text>
</a>
</g>
</g>
<!-- Spec_int_pos_sub_negation&#45;&gt;Spec_int_negation_succ_double -->
<g id="edge32" class="edge">
<title>Spec_int_pos_sub_negation&#45;&gt;Spec_int_negation_succ_double</title>
<path fill="none" stroke="black" d="M1767.02,-238.82C1718.38,-221.08 1639.1,-192.17 1586.49,-172.99"/>
<polygon fill="black" stroke="black" points="1587.59,-169.67 1576.99,-169.53 1585.19,-176.24 1587.59,-169.67"/>
</g>
<!-- Spec_int_negation_pred_double -->
<g id="node30" class="node">
<title>Spec_int_negation_pred_double</title>
<g id="a_node30"><a xlink:href="Spec.html#int_negation_pred_double" xlink:title="int_negation_pred_double">
<ellipse fill="#f070d1" stroke="black" cx="1810" cy="-152.49" rx="129.98" ry="18"/>
<text text-anchor="middle" x="1810" y="-148.79" font-family="Times,serif" font-size="14.00">int_negation_pred_double</text>
</a>
</g>
</g>
<!-- Spec_int_pos_sub_negation&#45;&gt;Spec_int_negation_pred_double -->
<g id="edge33" class="edge">
<title>Spec_int_pos_sub_negation&#45;&gt;Spec_int_negation_pred_double</title>
<path fill="none" stroke="black" d="M1810,-237.35C1810,-221.9 1810,-198.9 1810,-180.9"/>
<polygon fill="black" stroke="black" points="1813.5,-180.7 1810,-170.7 1806.5,-180.7 1813.5,-180.7"/>
</g>
<!-- Spec_int_negation_double -->
<g id="node31" class="node">
<title>Spec_int_negation_double</title>
<g id="a_node31"><a xlink:href="Spec.html#int_negation_double" xlink:title="int_negation_double">
<ellipse fill="#f070d1" stroke="black" cx="2062" cy="-152.49" rx="103.98" ry="18"/>
<text text-anchor="middle" x="2062" y="-148.79" font-family="Times,serif" font-size="14.00">int_negation_double</text>
</a>
</g>
</g>
<!-- Spec_int_pos_sub_negation&#45;&gt;Spec_int_negation_double -->
<g id="edge34" class="edge">
<title>Spec_int_pos_sub_negation&#45;&gt;Spec_int_negation_double</title>
<path fill="none" stroke="black" d="M1849.65,-238.59C1893.87,-220.87 1965.43,-192.19 2013.09,-173.09"/>
<polygon fill="black" stroke="black" points="2014.6,-176.26 2022.58,-169.29 2011.99,-169.76 2014.6,-176.26"/>
</g>
<!-- Spec_int_pos_pos_succ -->
<g id="node32" class="node">
<title>Spec_int_pos_pos_succ</title>
<g id="a_node32"><a xlink:href="Spec.html#int_pos_pos_succ" xlink:title="int_pos_pos_succ">
<ellipse fill="#f070d1" stroke="black" cx="1267" cy="-1036.49" rx="89.08" ry="18"/>
<ellipse fill="none" stroke="black" cx="1267" cy="-1036.49" rx="93.08" ry="22"/>
<ellipse fill="none" stroke="black" cx="1267" cy="-1036.49" rx="97.08" ry="26"/>
<text text-anchor="middle" x="1267" y="-1032.79" font-family="Times,serif" font-size="14.00">int_pos_pos_succ</text>
</a>
</g>
</g>
<!-- Spec_int_neg_pos_succ -->
<g id="node33" class="node">
<title>Spec_int_neg_pos_succ</title>
<g id="a_node33"><a xlink:href="Spec.html#int_neg_pos_succ" xlink:title="int_neg_pos_succ">
<ellipse fill="#f070d1" stroke="black" cx="1054" cy="-1036.49" rx="90.2" ry="18"/>
<ellipse fill="none" stroke="black" cx="1054" cy="-1036.49" rx="94.19" ry="22"/>
<ellipse fill="none" stroke="black" cx="1054" cy="-1036.49" rx="98.18" ry="26"/>
<text text-anchor="middle" x="1054" y="-1032.79" font-family="Times,serif" font-size="14.00">int_neg_pos_succ</text>
</a>
</g>
</g>
<!-- Spec_int_add_negation_r -->
<g id="node34" class="node">
<title>Spec_int_add_negation_r</title>
<g id="a_node34"><a xlink:href="Spec.html#int_add_negation_r" xlink:title="int_add_negation_r">
<ellipse fill="#f070d1" stroke="black" cx="603" cy="-1036.49" rx="98.6" ry="18"/>
<ellipse fill="none" stroke="black" cx="603" cy="-1036.49" rx="102.59" ry="22"/>
<ellipse fill="none" stroke="black" cx="603" cy="-1036.49" rx="106.58" ry="26"/>
<text text-anchor="middle" x="603" y="-1032.79" font-family="Times,serif" font-size="14.00">int_add_negation_r</text>
</a>
</g>
</g>
<!-- Spec_int_pos_sub_diag -->
<g id="node36" class="node">
<title>Spec_int_pos_sub_diag</title>
<g id="a_node36"><a xlink:href="Spec.html#int_pos_sub_diag" xlink:title="int_pos_sub_diag">
<ellipse fill="#f070d1" stroke="black" cx="718" cy="-921.49" rx="89.08" ry="18"/>
<text text-anchor="middle" x="718" y="-917.79" font-family="Times,serif" font-size="14.00">int_pos_sub_diag</text>
</a>
</g>
</g>
<!-- Spec_int_add_negation_r&#45;&gt;Spec_int_pos_sub_diag -->
<g id="edge35" class="edge">
<title>Spec_int_add_negation_r&#45;&gt;Spec_int_pos_sub_diag</title>
<path fill="none" stroke="black" d="M627.95,-1010.97C647.43,-991.83 674.34,-965.39 693.66,-946.4"/>
<polygon fill="black" stroke="black" points="696.24,-948.78 700.92,-939.27 691.33,-943.78 696.24,-948.78"/>
</g>
<!-- Spec_int_add_negation_l -->
<g id="node35" class="node">
<title>Spec_int_add_negation_l</title>
<g id="a_node35"><a xlink:href="Spec.html#int_add_negation_l" xlink:title="int_add_negation_l">
<ellipse fill="#f070d1" stroke="black" cx="833" cy="-1036.49" rx="96.7" ry="18"/>
<ellipse fill="none" stroke="black" cx="833" cy="-1036.49" rx="100.69" ry="22"/>
<ellipse fill="none" stroke="black" cx="833" cy="-1036.49" rx="104.68" ry="26"/>
<text text-anchor="middle" x="833" y="-1032.79" font-family="Times,serif" font-size="14.00">int_add_negation_l</text>
</a>
</g>
</g>
<!-- Spec_int_add_negation_l&#45;&gt;Spec_int_pos_sub_diag -->
<g id="edge36" class="edge">
<title>Spec_int_add_negation_l&#45;&gt;Spec_int_pos_sub_diag</title>
<path fill="none" stroke="black" d="M808.05,-1010.97C788.57,-991.83 761.66,-965.39 742.34,-946.4"/>
<polygon fill="black" stroke="black" points="744.67,-943.78 735.08,-939.27 739.76,-948.78 744.67,-943.78"/>
</g>
<!-- Spec_int_mul_1_r -->
<g id="node37" class="node">
<title>Spec_int_mul_1_r</title>
<g id="a_node37"><a xlink:href="Spec.html#int_mul_1_r" xlink:title="int_mul_1_r">
<ellipse fill="#f070d1" stroke="black" cx="406" cy="-1036.49" rx="64.21" ry="18"/>
<ellipse fill="none" stroke="black" cx="406" cy="-1036.49" rx="68.2" ry="22"/>
<ellipse fill="none" stroke="black" cx="406" cy="-1036.49" rx="72.19" ry="26"/>
<text text-anchor="middle" x="406" y="-1032.79" font-family="Times,serif" font-size="14.00">int_mul_1_r</text>
</a>
</g>
</g>
<!-- Spec_int_mul_0_l -->
<g id="node40" class="node">
<title>Spec_int_mul_0_l</title>
<g id="a_node40"><a xlink:href="Spec.html#int_mul_0_l" xlink:title="int_mul_0_l">
<ellipse fill="#f070d1" stroke="black" cx="245" cy="-1036.49" rx="63.08" ry="18"/>
<ellipse fill="none" stroke="black" cx="245" cy="-1036.49" rx="67.09" ry="22"/>
<ellipse fill="none" stroke="black" cx="245" cy="-1036.49" rx="71.09" ry="26"/>
<text text-anchor="middle" x="245" y="-1032.79" font-family="Times,serif" font-size="14.00">int_mul_0_l</text>
</a>
</g>
</g>
<!-- Spec_int_add_0_l -->
<g id="node42" class="node">
<title>Spec_int_add_0_l</title>
<g id="a_node42"><a xlink:href="Spec.html#int_add_0_l" xlink:title="int_add_0_l">
<ellipse fill="#f070d1" stroke="black" cx="86" cy="-1036.49" rx="62.3" ry="18"/>
<ellipse fill="none" stroke="black" cx="86" cy="-1036.49" rx="66.3" ry="22"/>
<ellipse fill="none" stroke="black" cx="86" cy="-1036.49" rx="70.29" ry="26"/>
<text text-anchor="middle" x="86" y="-1032.79" font-family="Times,serif" font-size="14.00">int_add_0_l</text>
</a>
</g>
</g>
</g>
</svg>
