<?xml version="1.0" encoding="UTF-8" standalone="no"?>
<!DOCTYPE svg PUBLIC "-//W3C//DTD SVG 1.1//EN"
 "http://www.w3.org/Graphics/SVG/1.1/DTD/svg11.dtd">
<!-- Generated by graphviz version 2.43.0 (0)
 -->
<!-- Title: HoTT_Spaces_Finite_FinSeq Pages: 1 -->
<svg width="1230pt" height="619pt"
 viewBox="0.00 0.00 1230.00 619.00" xmlns="http://www.w3.org/2000/svg" xmlns:xlink="http://www.w3.org/1999/xlink">
<g id="graph0" class="graph" transform="scale(1 1) rotate(0) translate(4 615)">
<title>HoTT_Spaces_Finite_FinSeq</title>
<polygon fill="white" stroke="transparent" points="-4,4 -4,-615 1226,-615 1226,4 -4,4"/>
<g id="clust1" class="cluster">
<title>cluster_FinSeq</title>
<polygon fill="#ffffc3" stroke="black" points="9.08,-8 9.08,-603 1212.92,-603 1212.92,-8 9.08,-8"/>
<text text-anchor="middle" x="42.58" y="-587.8" font-family="Times,serif" font-size="14.00">FinSeq</text>
</g>
<!-- FinSeq_compute_finseq_ind_fscons -->
<g id="node1" class="node">
<title>FinSeq_compute_finseq_ind_fscons</title>
<g id="a_node1"><a xlink:href="FinSeq.html#compute_finseq_ind_fscons" xlink:title="compute_finseq_ind_fscons">
<ellipse fill="#f070d1" stroke="black" cx="634.26" cy="-546" rx="135.69" ry="18"/>
<ellipse fill="none" stroke="black" cx="634.26" cy="-546" rx="139.68" ry="22"/>
<ellipse fill="none" stroke="black" cx="634.26" cy="-546" rx="143.68" ry="26"/>
<text text-anchor="middle" x="634.26" y="-542.3" font-family="Times,serif" font-size="14.00">compute_finseq_ind_fscons</text>
</a>
</g>
</g>
<!-- FinSeq_finseq_ind -->
<g id="node3" class="node">
<title>FinSeq_finseq_ind</title>
<g id="a_node3"><a xlink:href="FinSeq.html#finseq_ind" xlink:title="finseq_ind">
<ellipse fill="#f070d1" stroke="black" cx="960.26" cy="-466" rx="57.69" ry="18"/>
<text text-anchor="middle" x="960.26" y="-462.3" font-family="Times,serif" font-size="14.00">finseq_ind</text>
</a>
</g>
</g>
<!-- FinSeq_compute_finseq_ind_fscons&#45;&gt;FinSeq_finseq_ind -->
<g id="edge1" class="edge">
<title>FinSeq_compute_finseq_ind_fscons&#45;&gt;FinSeq_finseq_ind</title>
<path fill="none" stroke="black" d="M718.64,-524.81C777.71,-510.68 854.9,-492.21 905.95,-479.99"/>
<polygon fill="black" stroke="black" points="906.89,-483.37 915.8,-477.64 905.26,-476.56 906.89,-483.37"/>
</g>
<!-- FinSeq_path_expand_fscons_fscons -->
<g id="node4" class="node">
<title>FinSeq_path_expand_fscons_fscons</title>
<g id="a_node4"><a xlink:href="FinSeq.html#path_expand_fscons_fscons" xlink:title="path_expand_fscons_fscons">
<ellipse fill="#f070d1" stroke="black" cx="644.26" cy="-466" rx="137.28" ry="18"/>
<text text-anchor="middle" x="644.26" y="-462.3" font-family="Times,serif" font-size="14.00">path_expand_fscons_fscons</text>
</a>
</g>
</g>
<!-- FinSeq_compute_finseq_ind_fscons&#45;&gt;FinSeq_path_expand_fscons_fscons -->
<g id="edge2" class="edge">
<title>FinSeq_compute_finseq_ind_fscons&#45;&gt;FinSeq_path_expand_fscons_fscons</title>
<path fill="none" stroke="black" d="M637.48,-519.89C638.52,-511.75 639.68,-502.68 640.75,-494.38"/>
<polygon fill="black" stroke="black" points="644.23,-494.77 642.03,-484.41 637.28,-493.88 644.23,-494.77"/>
</g>
<!-- FinSeq_compute_path_fscons -->
<g id="node6" class="node">
<title>FinSeq_compute_path_fscons</title>
<g id="a_node6"><a xlink:href="FinSeq.html#compute_path_fscons" xlink:title="compute_path_fscons">
<ellipse fill="#f070d1" stroke="black" cx="344.26" cy="-466" rx="109.68" ry="18"/>
<text text-anchor="middle" x="344.26" y="-462.3" font-family="Times,serif" font-size="14.00">compute_path_fscons</text>
</a>
</g>
</g>
<!-- FinSeq_compute_finseq_ind_fscons&#45;&gt;FinSeq_compute_path_fscons -->
<g id="edge3" class="edge">
<title>FinSeq_compute_finseq_ind_fscons&#45;&gt;FinSeq_compute_path_fscons</title>
<path fill="none" stroke="black" d="M556.54,-524.1C510.22,-511.64 452.12,-496.01 408.42,-484.26"/>
<polygon fill="black" stroke="black" points="409.33,-480.88 398.76,-481.66 407.51,-487.64 409.33,-480.88"/>
</g>
<!-- FinSeq_compute_finseq_ind_fsnil -->
<g id="node2" class="node">
<title>FinSeq_compute_finseq_ind_fsnil</title>
<g id="a_node2"><a xlink:href="FinSeq.html#compute_finseq_ind_fsnil" xlink:title="compute_finseq_ind_fsnil">
<ellipse fill="#f070d1" stroke="black" cx="970.26" cy="-546" rx="126.17" ry="18"/>
<ellipse fill="none" stroke="black" cx="970.26" cy="-546" rx="130.18" ry="22"/>
<ellipse fill="none" stroke="black" cx="970.26" cy="-546" rx="134.18" ry="26"/>
<text text-anchor="middle" x="970.26" y="-542.3" font-family="Times,serif" font-size="14.00">compute_finseq_ind_fsnil</text>
</a>
</g>
</g>
<!-- FinSeq_compute_finseq_ind_fsnil&#45;&gt;FinSeq_finseq_ind -->
<g id="edge4" class="edge">
<title>FinSeq_compute_finseq_ind_fsnil&#45;&gt;FinSeq_finseq_ind</title>
<path fill="none" stroke="black" d="M967.04,-519.89C966,-511.75 964.83,-502.68 963.77,-494.38"/>
<polygon fill="black" stroke="black" points="967.23,-493.88 962.49,-484.41 960.29,-494.77 967.23,-493.88"/>
</g>
<!-- FinSeq_path_expand_fscons -->
<g id="node10" class="node">
<title>FinSeq_path_expand_fscons</title>
<g id="a_node10"><a xlink:href="FinSeq.html#path_expand_fscons" xlink:title="path_expand_fscons">
<ellipse fill="#f070d1" stroke="black" cx="939.26" cy="-394" rx="103.18" ry="18"/>
<text text-anchor="middle" x="939.26" y="-390.3" font-family="Times,serif" font-size="14.00">path_expand_fscons</text>
</a>
</g>
</g>
<!-- FinSeq_finseq_ind&#45;&gt;FinSeq_path_expand_fscons -->
<g id="edge5" class="edge">
<title>FinSeq_finseq_ind&#45;&gt;FinSeq_path_expand_fscons</title>
<path fill="none" stroke="black" d="M955.17,-448.05C952.84,-440.26 950,-430.82 947.38,-422.08"/>
<polygon fill="black" stroke="black" points="950.67,-420.85 944.44,-412.28 943.96,-422.86 950.67,-420.85"/>
</g>
<!-- FinSeq_path_fsnil -->
<g id="node22" class="node">
<title>FinSeq_path_fsnil</title>
<g id="a_node22"><a xlink:href="FinSeq.html#path_fsnil" xlink:title="path_fsnil">
<ellipse fill="#f070d1" stroke="black" cx="1140.26" cy="-394" rx="55.79" ry="18"/>
<text text-anchor="middle" x="1140.26" y="-390.3" font-family="Times,serif" font-size="14.00">path_fsnil</text>
</a>
</g>
</g>
<!-- FinSeq_finseq_ind&#45;&gt;FinSeq_path_fsnil -->
<g id="edge6" class="edge">
<title>FinSeq_finseq_ind&#45;&gt;FinSeq_path_fsnil</title>
<path fill="none" stroke="black" d="M994.96,-451.5C1023.94,-440.23 1065.41,-424.11 1096.63,-411.97"/>
<polygon fill="black" stroke="black" points="1097.91,-415.22 1105.96,-408.34 1095.38,-408.7 1097.91,-415.22"/>
</g>
<!-- FinSeq_path_expand_fscons_fscons_ -->
<g id="node5" class="node">
<title>FinSeq_path_expand_fscons_fscons_</title>
<g id="a_node5"><a xlink:href="FinSeq.html#path_expand_fscons_fscons'" xlink:title="path_expand_fscons_fscons&#39;">
<ellipse fill="#f070d1" stroke="black" cx="620.26" cy="-394" rx="139.98" ry="18"/>
<text text-anchor="middle" x="620.26" y="-390.3" font-family="Times,serif" font-size="14.00">path_expand_fscons_fscons&#39;</text>
</a>
</g>
</g>
<!-- FinSeq_path_expand_fscons_fscons&#45;&gt;FinSeq_path_expand_fscons_fscons_ -->
<g id="edge7" class="edge">
<title>FinSeq_path_expand_fscons_fscons&#45;&gt;FinSeq_path_expand_fscons_fscons_</title>
<path fill="none" stroke="black" d="M638.33,-447.7C635.65,-439.9 632.43,-430.51 629.46,-421.83"/>
<polygon fill="black" stroke="black" points="632.68,-420.43 626.12,-412.1 626.05,-422.7 632.68,-420.43"/>
</g>
<!-- FinSeq_path_fscons -->
<g id="node7" class="node">
<title>FinSeq_path_fscons</title>
<g id="a_node7"><a xlink:href="FinSeq.html#path_fscons" xlink:title="path_fscons">
<ellipse fill="#f070d1" stroke="black" cx="367.26" cy="-394" rx="65.79" ry="18"/>
<text text-anchor="middle" x="367.26" y="-390.3" font-family="Times,serif" font-size="14.00">path_fscons</text>
</a>
</g>
</g>
<!-- FinSeq_path_expand_fscons_fscons&#45;&gt;FinSeq_path_fscons -->
<g id="edge8" class="edge">
<title>FinSeq_path_expand_fscons_fscons&#45;&gt;FinSeq_path_fscons</title>
<path fill="none" stroke="black" d="M584.15,-449.81C536.57,-437.79 470.57,-421.11 423.91,-409.32"/>
<polygon fill="black" stroke="black" points="424.52,-405.86 413.97,-406.8 422.8,-412.65 424.52,-405.86"/>
</g>
<!-- FinSeq_path_expand_fscons_fscons&#45;&gt;FinSeq_path_expand_fscons -->
<g id="edge9" class="edge">
<title>FinSeq_path_expand_fscons_fscons&#45;&gt;FinSeq_path_expand_fscons</title>
<path fill="none" stroke="black" d="M707.54,-449.98C755.53,-438.6 821.41,-422.96 870.66,-411.28"/>
<polygon fill="black" stroke="black" points="871.67,-414.64 880.59,-408.92 870.05,-407.82 871.67,-414.64"/>
</g>
<!-- FinSeq_compute_fstail -->
<g id="node12" class="node">
<title>FinSeq_compute_fstail</title>
<g id="a_node12"><a xlink:href="FinSeq.html#compute_fstail" xlink:title="compute_fstail">
<ellipse fill="#f070d1" stroke="black" cx="851.26" cy="-322" rx="78.79" ry="18"/>
<text text-anchor="middle" x="851.26" y="-318.3" font-family="Times,serif" font-size="14.00">compute_fstail</text>
</a>
</g>
</g>
<!-- FinSeq_path_expand_fscons_fscons&#45;&gt;FinSeq_compute_fstail -->
<g id="edge10" class="edge">
<title>FinSeq_path_expand_fscons_fscons&#45;&gt;FinSeq_compute_fstail</title>
<path fill="none" stroke="black" d="M694.55,-449.25C718.42,-440.42 746.62,-427.95 769.26,-412 794.39,-394.29 817.59,-367.75 832.85,-348.25"/>
<polygon fill="black" stroke="black" points="835.78,-350.18 839.08,-340.11 830.22,-345.93 835.78,-350.18"/>
</g>
<!-- FinSeq_path_fscons_ -->
<g id="node9" class="node">
<title>FinSeq_path_fscons_</title>
<g id="a_node9"><a xlink:href="FinSeq.html#path_fscons'" xlink:title="path_fscons&#39;">
<ellipse fill="#f070d1" stroke="black" cx="403.26" cy="-322" rx="67.69" ry="18"/>
<text text-anchor="middle" x="403.26" y="-318.3" font-family="Times,serif" font-size="14.00">path_fscons&#39;</text>
</a>
</g>
</g>
<!-- FinSeq_path_expand_fscons_fscons_&#45;&gt;FinSeq_path_fscons_ -->
<g id="edge11" class="edge">
<title>FinSeq_path_expand_fscons_fscons_&#45;&gt;FinSeq_path_fscons_</title>
<path fill="none" stroke="black" d="M571.02,-377.12C536.16,-365.87 489.52,-350.83 454.27,-339.45"/>
<polygon fill="black" stroke="black" points="455.24,-336.09 444.65,-336.35 453.09,-342.75 455.24,-336.09"/>
</g>
<!-- FinSeq_path_expand_fscons_ -->
<g id="node11" class="node">
<title>FinSeq_path_expand_fscons_</title>
<g id="a_node11"><a xlink:href="FinSeq.html#path_expand_fscons'" xlink:title="path_expand_fscons&#39;">
<ellipse fill="#f070d1" stroke="black" cx="620.26" cy="-322" rx="105.88" ry="18"/>
<text text-anchor="middle" x="620.26" y="-318.3" font-family="Times,serif" font-size="14.00">path_expand_fscons&#39;</text>
</a>
</g>
</g>
<!-- FinSeq_path_expand_fscons_fscons_&#45;&gt;FinSeq_path_expand_fscons_ -->
<g id="edge12" class="edge">
<title>FinSeq_path_expand_fscons_fscons_&#45;&gt;FinSeq_path_expand_fscons_</title>
<path fill="none" stroke="black" d="M620.26,-375.7C620.26,-367.98 620.26,-358.71 620.26,-350.11"/>
<polygon fill="black" stroke="black" points="623.76,-350.1 620.26,-340.1 616.76,-350.1 623.76,-350.1"/>
</g>
<!-- FinSeq_compute_path_fscons&#45;&gt;FinSeq_path_fscons -->
<g id="edge13" class="edge">
<title>FinSeq_compute_path_fscons&#45;&gt;FinSeq_path_fscons</title>
<path fill="none" stroke="black" d="M349.94,-447.7C352.51,-439.9 355.59,-430.51 358.44,-421.83"/>
<polygon fill="black" stroke="black" points="361.84,-422.7 361.64,-412.1 355.19,-420.51 361.84,-422.7"/>
</g>
<!-- FinSeq_compute_path_fscons_ -->
<g id="node8" class="node">
<title>FinSeq_compute_path_fscons_</title>
<g id="a_node8"><a xlink:href="FinSeq.html#compute_path_fscons'" xlink:title="compute_path_fscons&#39;">
<ellipse fill="#f070d1" stroke="black" cx="145.26" cy="-394" rx="112.38" ry="18"/>
<text text-anchor="middle" x="145.26" y="-390.3" font-family="Times,serif" font-size="14.00">compute_path_fscons&#39;</text>
</a>
</g>
</g>
<!-- FinSeq_compute_path_fscons&#45;&gt;FinSeq_compute_path_fscons_ -->
<g id="edge14" class="edge">
<title>FinSeq_compute_path_fscons&#45;&gt;FinSeq_compute_path_fscons_</title>
<path fill="none" stroke="black" d="M300.09,-449.46C270.31,-438.99 230.83,-425.1 199.19,-413.97"/>
<polygon fill="black" stroke="black" points="200.24,-410.63 189.64,-410.61 197.91,-417.23 200.24,-410.63"/>
</g>
<!-- FinSeq_path_fscons&#45;&gt;FinSeq_path_fscons_ -->
<g id="edge15" class="edge">
<title>FinSeq_path_fscons&#45;&gt;FinSeq_path_fscons_</title>
<path fill="none" stroke="black" d="M375.97,-376.05C380.11,-368.01 385.15,-358.2 389.77,-349.23"/>
<polygon fill="black" stroke="black" points="392.91,-350.77 394.37,-340.28 386.69,-347.57 392.91,-350.77"/>
</g>
<!-- FinSeq_compute_path_fscons_&#45;&gt;FinSeq_path_fscons_ -->
<g id="edge16" class="edge">
<title>FinSeq_compute_path_fscons_&#45;&gt;FinSeq_path_fscons_</title>
<path fill="none" stroke="black" d="M199.66,-378.24C243.14,-366.44 303.84,-349.97 347.64,-338.09"/>
<polygon fill="black" stroke="black" points="348.81,-341.4 357.55,-335.4 346.98,-334.64 348.81,-341.4"/>
</g>
<!-- FinSeq_compute_fstail_ -->
<g id="node13" class="node">
<title>FinSeq_compute_fstail_</title>
<g id="a_node13"><a xlink:href="FinSeq.html#compute_fstail'" xlink:title="compute_fstail&#39;">
<ellipse fill="#f070d1" stroke="black" cx="633.26" cy="-250" rx="81.49" ry="18"/>
<text text-anchor="middle" x="633.26" y="-246.3" font-family="Times,serif" font-size="14.00">compute_fstail&#39;</text>
</a>
</g>
</g>
<!-- FinSeq_path_fscons_&#45;&gt;FinSeq_compute_fstail_ -->
<g id="edge17" class="edge">
<title>FinSeq_path_fscons_&#45;&gt;FinSeq_compute_fstail_</title>
<path fill="none" stroke="black" d="M445.98,-308C483.19,-296.67 537.36,-280.19 577.89,-267.85"/>
<polygon fill="black" stroke="black" points="579.07,-271.15 587.61,-264.89 577.03,-264.46 579.07,-271.15"/>
</g>
<!-- FinSeq_compute_fshead -->
<g id="node16" class="node">
<title>FinSeq_compute_fshead</title>
<g id="a_node16"><a xlink:href="FinSeq.html#compute_fshead" xlink:title="compute_fshead">
<ellipse fill="#f070d1" stroke="black" cx="423.26" cy="-250" rx="85.59" ry="18"/>
<text text-anchor="middle" x="423.26" y="-246.3" font-family="Times,serif" font-size="14.00">compute_fshead</text>
</a>
</g>
</g>
<!-- FinSeq_path_fscons_&#45;&gt;FinSeq_compute_fshead -->
<g id="edge18" class="edge">
<title>FinSeq_path_fscons_&#45;&gt;FinSeq_compute_fshead</title>
<path fill="none" stroke="black" d="M408.2,-303.7C410.43,-295.9 413.11,-286.51 415.59,-277.83"/>
<polygon fill="black" stroke="black" points="418.99,-278.68 418.37,-268.1 412.26,-276.76 418.99,-278.68"/>
</g>
<!-- FinSeq_path_expand_fscons&#45;&gt;FinSeq_path_expand_fscons_ -->
<g id="edge19" class="edge">
<title>FinSeq_path_expand_fscons&#45;&gt;FinSeq_path_expand_fscons_</title>
<path fill="none" stroke="black" d="M877.75,-379.5C824.72,-367.87 748.09,-351.05 692.22,-338.79"/>
<polygon fill="black" stroke="black" points="692.91,-335.36 682.39,-336.63 691.41,-342.2 692.91,-335.36"/>
</g>
<!-- FinSeq_path_expand_fscons_&#45;&gt;FinSeq_compute_fstail_ -->
<g id="edge20" class="edge">
<title>FinSeq_path_expand_fscons_&#45;&gt;FinSeq_compute_fstail_</title>
<path fill="none" stroke="black" d="M623.47,-303.7C624.9,-295.98 626.63,-286.71 628.22,-278.11"/>
<polygon fill="black" stroke="black" points="631.7,-278.58 630.08,-268.1 624.81,-277.3 631.7,-278.58"/>
</g>
<!-- FinSeq_fstail -->
<g id="node14" class="node">
<title>FinSeq_fstail</title>
<g id="a_node14"><a xlink:href="FinSeq.html#fstail" xlink:title="fstail">
<ellipse fill="#f070d1" stroke="black" cx="791.26" cy="-250" rx="34.39" ry="18"/>
<text text-anchor="middle" x="791.26" y="-246.3" font-family="Times,serif" font-size="14.00">fstail</text>
</a>
</g>
</g>
<!-- FinSeq_path_expand_fscons_&#45;&gt;FinSeq_fstail -->
<g id="edge21" class="edge">
<title>FinSeq_path_expand_fscons_&#45;&gt;FinSeq_fstail</title>
<path fill="none" stroke="black" d="M659.06,-305.12C688.06,-293.24 727.4,-277.14 755.61,-265.59"/>
<polygon fill="black" stroke="black" points="757.16,-268.74 765.09,-261.71 754.51,-262.26 757.16,-268.74"/>
</g>
<!-- FinSeq_path_expand_fscons_&#45;&gt;FinSeq_compute_fshead -->
<g id="edge22" class="edge">
<title>FinSeq_path_expand_fscons_&#45;&gt;FinSeq_compute_fshead</title>
<path fill="none" stroke="black" d="M576.54,-305.46C546.34,-294.73 506.06,-280.42 474.37,-269.16"/>
<polygon fill="black" stroke="black" points="475.43,-265.82 464.83,-265.77 473.08,-272.42 475.43,-265.82"/>
</g>
<!-- FinSeq_compute_fstail&#45;&gt;FinSeq_compute_fstail_ -->
<g id="edge23" class="edge">
<title>FinSeq_compute_fstail&#45;&gt;FinSeq_compute_fstail_</title>
<path fill="none" stroke="black" d="M807.67,-307C772.99,-295.87 724.3,-280.23 687.18,-268.31"/>
<polygon fill="black" stroke="black" points="688.11,-264.94 677.52,-265.21 685.97,-271.6 688.11,-264.94"/>
</g>
<!-- FinSeq_compute_fstail&#45;&gt;FinSeq_fstail -->
<g id="edge24" class="edge">
<title>FinSeq_compute_fstail&#45;&gt;FinSeq_fstail</title>
<path fill="none" stroke="black" d="M836.73,-304.05C829.15,-295.2 819.74,-284.23 811.46,-274.57"/>
<polygon fill="black" stroke="black" points="813.99,-272.14 804.83,-266.83 808.68,-276.7 813.99,-272.14"/>
</g>
<!-- FinSeq_fscons -->
<g id="node20" class="node">
<title>FinSeq_fscons</title>
<g id="a_node20"><a xlink:href="FinSeq.html#fscons" xlink:title="fscons">
<ellipse fill="#f070d1" stroke="black" cx="694.26" cy="-178" rx="40.09" ry="18"/>
<text text-anchor="middle" x="694.26" y="-174.3" font-family="Times,serif" font-size="14.00">fscons</text>
</a>
</g>
</g>
<!-- FinSeq_compute_fstail&#45;&gt;FinSeq_fscons -->
<g id="edge25" class="edge">
<title>FinSeq_compute_fstail&#45;&gt;FinSeq_fscons</title>
<path fill="none" stroke="black" d="M852.64,-303.85C853.27,-284.24 851.26,-252.23 834.26,-232 821.5,-216.81 774.18,-200.89 738.05,-190.51"/>
<polygon fill="black" stroke="black" points="738.77,-187.08 728.19,-187.74 736.87,-193.82 738.77,-187.08"/>
</g>
<!-- FinSeq_fstail_ -->
<g id="node15" class="node">
<title>FinSeq_fstail_</title>
<g id="a_node15"><a xlink:href="FinSeq.html#fstail'" xlink:title="fstail&#39;">
<ellipse fill="#f070d1" stroke="black" cx="802.26" cy="-178" rx="36.29" ry="18"/>
<text text-anchor="middle" x="802.26" y="-174.3" font-family="Times,serif" font-size="14.00">fstail&#39;</text>
</a>
</g>
</g>
<!-- FinSeq_compute_fstail_&#45;&gt;FinSeq_fstail_ -->
<g id="edge26" class="edge">
<title>FinSeq_compute_fstail_&#45;&gt;FinSeq_fstail_</title>
<path fill="none" stroke="black" d="M669.93,-233.81C698.33,-222.05 737.47,-205.84 765.81,-194.1"/>
<polygon fill="black" stroke="black" points="767.45,-197.21 775.35,-190.15 764.77,-190.74 767.45,-197.21"/>
</g>
<!-- FinSeq_fscons_ -->
<g id="node21" class="node">
<title>FinSeq_fscons_</title>
<g id="a_node21"><a xlink:href="FinSeq.html#fscons'" xlink:title="fscons&#39;">
<ellipse fill="#f070d1" stroke="black" cx="653.26" cy="-106" rx="42.49" ry="18"/>
<text text-anchor="middle" x="653.26" y="-102.3" font-family="Times,serif" font-size="14.00">fscons&#39;</text>
</a>
</g>
</g>
<!-- FinSeq_compute_fstail_&#45;&gt;FinSeq_fscons_ -->
<g id="edge27" class="edge">
<title>FinSeq_compute_fstail_&#45;&gt;FinSeq_fscons_</title>
<path fill="none" stroke="black" d="M635.48,-231.93C637.83,-214 641.69,-185 645.26,-160 646.46,-151.58 647.83,-142.42 649.08,-134.11"/>
<polygon fill="black" stroke="black" points="652.55,-134.59 650.6,-124.18 645.63,-133.53 652.55,-134.59"/>
</g>
<!-- FinSeq_fstail&#45;&gt;FinSeq_fstail_ -->
<g id="edge28" class="edge">
<title>FinSeq_fstail&#45;&gt;FinSeq_fstail_</title>
<path fill="none" stroke="black" d="M793.98,-231.7C795.19,-223.98 796.65,-214.71 798,-206.11"/>
<polygon fill="black" stroke="black" points="801.48,-206.53 799.57,-196.1 794.56,-205.44 801.48,-206.53"/>
</g>
<!-- FinSeq_FinSeq -->
<g id="node24" class="node">
<title>FinSeq_FinSeq</title>
<g id="a_node24"><a xlink:href="FinSeq.html#FinSeq" xlink:title="FinSeq">
<ellipse fill="#f070d1" stroke="black" cx="713.26" cy="-34" rx="43.59" ry="18"/>
<text text-anchor="middle" x="713.26" y="-30.3" font-family="Times,serif" font-size="14.00">FinSeq</text>
</a>
</g>
</g>
<!-- FinSeq_fstail_&#45;&gt;FinSeq_FinSeq -->
<g id="edge29" class="edge">
<title>FinSeq_fstail_&#45;&gt;FinSeq_FinSeq</title>
<path fill="none" stroke="black" d="M792.05,-160.71C776.64,-136.13 747.31,-89.33 729.11,-60.29"/>
<polygon fill="black" stroke="black" points="731.9,-58.15 723.62,-51.54 725.97,-61.87 731.9,-58.15"/>
</g>
<!-- FinSeq_compute_fshead_ -->
<g id="node17" class="node">
<title>FinSeq_compute_fshead_</title>
<g id="a_node17"><a xlink:href="FinSeq.html#compute_fshead'" xlink:title="compute_fshead&#39;">
<ellipse fill="#f070d1" stroke="black" cx="506.26" cy="-178" rx="88.28" ry="18"/>
<text text-anchor="middle" x="506.26" y="-174.3" font-family="Times,serif" font-size="14.00">compute_fshead&#39;</text>
</a>
</g>
</g>
<!-- FinSeq_compute_fshead&#45;&gt;FinSeq_compute_fshead_ -->
<g id="edge30" class="edge">
<title>FinSeq_compute_fshead&#45;&gt;FinSeq_compute_fshead_</title>
<path fill="none" stroke="black" d="M442.93,-232.41C453.6,-223.41 466.96,-212.14 478.66,-202.27"/>
<polygon fill="black" stroke="black" points="481.05,-204.84 486.44,-195.71 476.54,-199.48 481.05,-204.84"/>
</g>
<!-- FinSeq_fshead -->
<g id="node18" class="node">
<title>FinSeq_fshead</title>
<g id="a_node18"><a xlink:href="FinSeq.html#fshead" xlink:title="fshead">
<ellipse fill="#f070d1" stroke="black" cx="338.26" cy="-178" rx="41.69" ry="18"/>
<text text-anchor="middle" x="338.26" y="-174.3" font-family="Times,serif" font-size="14.00">fshead</text>
</a>
</g>
</g>
<!-- FinSeq_compute_fshead&#45;&gt;FinSeq_fshead -->
<g id="edge31" class="edge">
<title>FinSeq_compute_fshead&#45;&gt;FinSeq_fshead</title>
<path fill="none" stroke="black" d="M403.11,-232.41C391.6,-222.93 377.02,-210.92 364.6,-200.69"/>
<polygon fill="black" stroke="black" points="366.75,-197.93 356.81,-194.27 362.3,-203.33 366.75,-197.93"/>
</g>
<!-- FinSeq_compute_fshead&#45;&gt;FinSeq_fscons -->
<g id="edge32" class="edge">
<title>FinSeq_compute_fshead&#45;&gt;FinSeq_fscons</title>
<path fill="none" stroke="black" d="M475.19,-235.59C525.98,-222.47 602.48,-202.71 650.33,-190.35"/>
<polygon fill="black" stroke="black" points="651.28,-193.72 660.09,-187.83 649.53,-186.94 651.28,-193.72"/>
</g>
<!-- FinSeq_fshead_ -->
<g id="node19" class="node">
<title>FinSeq_fshead_</title>
<g id="a_node19"><a xlink:href="FinSeq.html#fshead'" xlink:title="fshead&#39;">
<ellipse fill="#f070d1" stroke="black" cx="506.26" cy="-106" rx="44.39" ry="18"/>
<text text-anchor="middle" x="506.26" y="-102.3" font-family="Times,serif" font-size="14.00">fshead&#39;</text>
</a>
</g>
</g>
<!-- FinSeq_compute_fshead_&#45;&gt;FinSeq_fshead_ -->
<g id="edge33" class="edge">
<title>FinSeq_compute_fshead_&#45;&gt;FinSeq_fshead_</title>
<path fill="none" stroke="black" d="M506.26,-159.7C506.26,-151.98 506.26,-142.71 506.26,-134.11"/>
<polygon fill="black" stroke="black" points="509.76,-134.1 506.26,-124.1 502.76,-134.1 509.76,-134.1"/>
</g>
<!-- FinSeq_compute_fshead_&#45;&gt;FinSeq_fscons_ -->
<g id="edge34" class="edge">
<title>FinSeq_compute_fshead_&#45;&gt;FinSeq_fscons_</title>
<path fill="none" stroke="black" d="M539.25,-161.29C562.26,-150.33 592.99,-135.7 616.74,-124.39"/>
<polygon fill="black" stroke="black" points="618.28,-127.53 625.8,-120.08 615.27,-121.21 618.28,-127.53"/>
</g>
<!-- FinSeq_fshead&#45;&gt;FinSeq_fshead_ -->
<g id="edge35" class="edge">
<title>FinSeq_fshead&#45;&gt;FinSeq_fshead_</title>
<path fill="none" stroke="black" d="M367.14,-164.97C394.65,-153.5 436.29,-136.15 466.84,-123.42"/>
<polygon fill="black" stroke="black" points="468.46,-126.54 476.34,-119.47 465.76,-120.08 468.46,-126.54"/>
</g>
<!-- FinSeq_fshead_&#45;&gt;FinSeq_FinSeq -->
<g id="edge36" class="edge">
<title>FinSeq_fshead_&#45;&gt;FinSeq_FinSeq</title>
<path fill="none" stroke="black" d="M539.06,-93.91C574.79,-81.82 632.06,-62.46 671.1,-49.26"/>
<polygon fill="black" stroke="black" points="672.26,-52.56 680.61,-46.04 670.02,-45.93 672.26,-52.56"/>
</g>
<!-- FinSeq_fscons&#45;&gt;FinSeq_fscons_ -->
<g id="edge37" class="edge">
<title>FinSeq_fscons&#45;&gt;FinSeq_fscons_</title>
<path fill="none" stroke="black" d="M684.54,-160.41C679.71,-152.16 673.76,-142.01 668.36,-132.78"/>
<polygon fill="black" stroke="black" points="671.26,-130.82 663.19,-123.96 665.22,-134.35 671.26,-130.82"/>
</g>
<!-- FinSeq_fscons_&#45;&gt;FinSeq_FinSeq -->
<g id="edge38" class="edge">
<title>FinSeq_fscons_&#45;&gt;FinSeq_FinSeq</title>
<path fill="none" stroke="black" d="M667.17,-88.76C674.75,-79.93 684.26,-68.83 692.68,-59.01"/>
<polygon fill="black" stroke="black" points="695.57,-61.02 699.42,-51.15 690.25,-56.46 695.57,-61.02"/>
</g>
<!-- FinSeq_fsnil -->
<g id="node23" class="node">
<title>FinSeq_fsnil</title>
<g id="a_node23"><a xlink:href="FinSeq.html#fsnil" xlink:title="fsnil">
<ellipse fill="#f070d1" stroke="black" cx="960.26" cy="-106" rx="30.59" ry="18"/>
<text text-anchor="middle" x="960.26" y="-102.3" font-family="Times,serif" font-size="14.00">fsnil</text>
</a>
</g>
</g>
<!-- FinSeq_path_fsnil&#45;&gt;FinSeq_fsnil -->
<g id="edge39" class="edge">
<title>FinSeq_path_fsnil&#45;&gt;FinSeq_fsnil</title>
<path fill="none" stroke="black" d="M1129.54,-375.97C1099.07,-327.55 1011.85,-188.98 975.97,-131.97"/>
<polygon fill="black" stroke="black" points="978.76,-129.83 970.47,-123.23 972.84,-133.56 978.76,-129.83"/>
</g>
<!-- FinSeq_fsnil&#45;&gt;FinSeq_FinSeq -->
<g id="edge40" class="edge">
<title>FinSeq_fsnil&#45;&gt;FinSeq_FinSeq</title>
<path fill="none" stroke="black" d="M933.35,-97.38C891.16,-85.42 808.95,-62.12 757.82,-47.63"/>
<polygon fill="black" stroke="black" points="758.61,-44.21 748.03,-44.86 756.7,-50.95 758.61,-44.21"/>
</g>
</g>
</svg>
