<?xml version="1.0" encoding="UTF-8" standalone="no"?>
<!DOCTYPE svg PUBLIC "-//W3C//DTD SVG 1.1//EN"
 "http://www.w3.org/Graphics/SVG/1.1/DTD/svg11.dtd">
<!-- Generated by graphviz version 2.43.0 (0)
 -->
<!-- Title: HoTT_Spaces_Nat_Arithmetic Pages: 1 -->
<svg width="3775pt" height="1892pt"
 viewBox="0.00 0.00 3775.00 1891.50" xmlns="http://www.w3.org/2000/svg" xmlns:xlink="http://www.w3.org/1999/xlink">
<g id="graph0" class="graph" transform="scale(1 1) rotate(0) translate(4 1887.5)">
<title>HoTT_Spaces_Nat_Arithmetic</title>
<polygon fill="white" stroke="transparent" points="-4,4 -4,-1887.5 3771,-1887.5 3771,4 -4,4"/>
<g id="clust1" class="cluster">
<title>cluster_Arithmetic</title>
<polygon fill="#ffffc3" stroke="black" points="8,-44.45 8,-1839.05 3759,-1839.05 3759,-44.45 8,-44.45"/>
<text text-anchor="middle" x="54" y="-1823.85" font-family="Times,serif" font-size="14.00">Arithmetic</text>
</g>
<!-- Arithmetic_symmetric_rel_total_order -->
<g id="node1" class="node">
<title>Arithmetic_symmetric_rel_total_order</title>
<g id="a_node1"><a xlink:href="Arithmetic.html#symmetric_rel_total_order" xlink:title="symmetric_rel_total_order">
<ellipse fill="#f070d1" stroke="black" cx="3610" cy="-1522.45" rx="132.67" ry="18"/>
<ellipse fill="none" stroke="black" cx="3610" cy="-1522.45" rx="136.67" ry="22"/>
<ellipse fill="none" stroke="black" cx="3610" cy="-1522.45" rx="140.68" ry="26"/>
<text text-anchor="middle" x="3610" y="-1518.75" font-family="Times,serif" font-size="14.00">symmetric_rel_total_order</text>
</a>
</g>
</g>
<!-- Arithmetic_leq_wrapper -->
<g id="node2" class="node">
<title>Arithmetic_leq_wrapper</title>
<g id="a_node2"><a xlink:href="Arithmetic.html#leq_wrapper" xlink:title="leq_wrapper">
<ellipse fill="#f070d1" stroke="black" cx="3375" cy="-1522.45" rx="68.46" ry="18"/>
<ellipse fill="none" stroke="black" cx="3375" cy="-1522.45" rx="72.48" ry="22"/>
<ellipse fill="none" stroke="black" cx="3375" cy="-1522.45" rx="76.49" ry="26"/>
<text text-anchor="middle" x="3375" y="-1518.75" font-family="Times,serif" font-size="14.00">leq_wrapper</text>
</a>
</g>
</g>
<!-- Arithmetic_leq_equivalent -->
<g id="node3" class="node">
<title>Arithmetic_leq_equivalent</title>
<g id="a_node3"><a xlink:href="Arithmetic.html#leq_equivalent" xlink:title="leq_equivalent">
<ellipse fill="#f070d1" stroke="black" cx="3195" cy="-1522.45" rx="77.99" ry="18"/>
<ellipse fill="none" stroke="black" cx="3195" cy="-1522.45" rx="81.99" ry="22"/>
<ellipse fill="none" stroke="black" cx="3195" cy="-1522.45" rx="85.99" ry="26"/>
<text text-anchor="middle" x="3195" y="-1518.75" font-family="Times,serif" font-size="14.00">leq_equivalent</text>
</a>
</g>
</g>
<!-- Arithmetic_increasing_geq_S_n -->
<g id="node8" class="node">
<title>Arithmetic_increasing_geq_S_n</title>
<g id="a_node8"><a xlink:href="Arithmetic.html#increasing_geq_S_n" xlink:title="increasing_geq_S_n">
<ellipse fill="#f070d1" stroke="black" cx="2921" cy="-1033.45" rx="101.28" ry="18"/>
<text text-anchor="middle" x="2921" y="-1029.75" font-family="Times,serif" font-size="14.00">increasing_geq_S_n</text>
</a>
</g>
</g>
<!-- Arithmetic_leq_equivalent&#45;&gt;Arithmetic_increasing_geq_S_n -->
<g id="edge1" class="edge">
<title>Arithmetic_leq_equivalent&#45;&gt;Arithmetic_increasing_geq_S_n</title>
<path fill="none" stroke="black" d="M3181.04,-1496.63C3134.26,-1413.49 2983.36,-1145.29 2935.62,-1060.44"/>
<polygon fill="black" stroke="black" points="2938.65,-1058.69 2930.7,-1051.69 2932.55,-1062.12 2938.65,-1058.69"/>
</g>
<!-- Arithmetic_ineq_sub -->
<g id="node4" class="node">
<title>Arithmetic_ineq_sub</title>
<g id="a_node4"><a xlink:href="Arithmetic.html#ineq_sub" xlink:title="ineq_sub">
<ellipse fill="#f070d1" stroke="black" cx="3031" cy="-1522.45" rx="51.99" ry="18"/>
<ellipse fill="none" stroke="black" cx="3031" cy="-1522.45" rx="55.99" ry="22"/>
<ellipse fill="none" stroke="black" cx="3031" cy="-1522.45" rx="59.99" ry="26"/>
<text text-anchor="middle" x="3031" y="-1518.75" font-family="Times,serif" font-size="14.00">ineq_sub</text>
</a>
</g>
</g>
<!-- Arithmetic_ineq_sub_ -->
<g id="node5" class="node">
<title>Arithmetic_ineq_sub_</title>
<g id="a_node5"><a xlink:href="Arithmetic.html#ineq_sub'" xlink:title="ineq_sub&#39;">
<ellipse fill="#f070d1" stroke="black" cx="2748" cy="-1033.45" rx="53.89" ry="18"/>
<text text-anchor="middle" x="2748" y="-1029.75" font-family="Times,serif" font-size="14.00">ineq_sub&#39;</text>
</a>
</g>
</g>
<!-- Arithmetic_ineq_sub&#45;&gt;Arithmetic_ineq_sub_ -->
<g id="edge2" class="edge">
<title>Arithmetic_ineq_sub&#45;&gt;Arithmetic_ineq_sub_</title>
<path fill="none" stroke="black" d="M3016.77,-1496.96C2968.59,-1414.05 2811.84,-1144.31 2762.8,-1059.92"/>
<polygon fill="black" stroke="black" points="2765.81,-1058.12 2757.75,-1051.24 2759.75,-1061.64 2765.81,-1058.12"/>
</g>
<!-- Arithmetic_sub_less -->
<g id="node17" class="node">
<title>Arithmetic_sub_less</title>
<g id="a_node17"><a xlink:href="Arithmetic.html#sub_less" xlink:title="sub_less">
<ellipse fill="#f070d1" stroke="black" cx="2386" cy="-1033.45" rx="50.09" ry="18"/>
<text text-anchor="middle" x="2386" y="-1029.75" font-family="Times,serif" font-size="14.00">sub_less</text>
</a>
</g>
</g>
<!-- Arithmetic_ineq_sub&#45;&gt;Arithmetic_sub_less -->
<g id="edge3" class="edge">
<title>Arithmetic_ineq_sub&#45;&gt;Arithmetic_sub_less</title>
<path fill="none" stroke="black" d="M3002.03,-1499.58C2894.87,-1418.67 2521.6,-1136.83 2414.77,-1056.17"/>
<polygon fill="black" stroke="black" points="2416.78,-1053.3 2406.69,-1050.07 2412.56,-1058.89 2416.78,-1053.3"/>
</g>
<!-- Arithmetic_increasing_geq_minus -->
<g id="node6" class="node">
<title>Arithmetic_increasing_geq_minus</title>
<g id="a_node6"><a xlink:href="Arithmetic.html#increasing_geq_minus" xlink:title="increasing_geq_minus">
<ellipse fill="#f070d1" stroke="black" cx="3630" cy="-1033.45" rx="113.17" ry="18"/>
<ellipse fill="none" stroke="black" cx="3630" cy="-1033.45" rx="117.18" ry="22"/>
<ellipse fill="none" stroke="black" cx="3630" cy="-1033.45" rx="121.18" ry="26"/>
<text text-anchor="middle" x="3630" y="-1029.75" font-family="Times,serif" font-size="14.00">increasing_geq_minus</text>
</a>
</g>
</g>
<!-- Arithmetic_increasing_geq_S -->
<g id="node12" class="node">
<title>Arithmetic_increasing_geq_S</title>
<g id="a_node12"><a xlink:href="Arithmetic.html#increasing_geq_S" xlink:title="increasing_geq_S">
<ellipse fill="#7faaff" stroke="black" cx="3349" cy="-588.45" rx="90.98" ry="18"/>
<text text-anchor="middle" x="3349" y="-584.75" font-family="Times,serif" font-size="14.00">increasing_geq_S</text>
</a>
</g>
</g>
<!-- Arithmetic_increasing_geq_minus&#45;&gt;Arithmetic_increasing_geq_S -->
<g id="edge4" class="edge">
<title>Arithmetic_increasing_geq_minus&#45;&gt;Arithmetic_increasing_geq_S</title>
<path fill="none" stroke="black" d="M3614.09,-1007.36C3564.89,-929.8 3415.53,-694.33 3365.52,-615.49"/>
<polygon fill="black" stroke="black" points="3368.24,-613.24 3359.93,-606.67 3362.33,-616.99 3368.24,-613.24"/>
</g>
<!-- Arithmetic_increasing_geq_n -->
<g id="node13" class="node">
<title>Arithmetic_increasing_geq_n</title>
<g id="a_node13"><a xlink:href="Arithmetic.html#increasing_geq_n" xlink:title="increasing_geq_n">
<ellipse fill="#7faaff" stroke="black" cx="3149" cy="-588.45" rx="90.98" ry="18"/>
<text text-anchor="middle" x="3149" y="-584.75" font-family="Times,serif" font-size="14.00">increasing_geq_n</text>
</a>
</g>
</g>
<!-- Arithmetic_increasing_geq_minus&#45;&gt;Arithmetic_increasing_geq_n -->
<g id="edge5" class="edge">
<title>Arithmetic_increasing_geq_minus&#45;&gt;Arithmetic_increasing_geq_n</title>
<path fill="none" stroke="black" d="M3603.45,-1008C3519.12,-930.33 3258,-689.84 3174.77,-613.18"/>
<polygon fill="black" stroke="black" points="3177.01,-610.48 3167.28,-606.28 3172.26,-615.63 3177.01,-610.48"/>
</g>
<!-- Arithmetic_increasing_geq -->
<g id="node14" class="node">
<title>Arithmetic_increasing_geq</title>
<g id="a_node14"><a xlink:href="Arithmetic.html#increasing_geq" xlink:title="increasing_geq">
<ellipse fill="#e2cdfa" stroke="black" cx="3459" cy="-188.45" rx="80.69" ry="18"/>
<text text-anchor="middle" x="3459" y="-184.75" font-family="Times,serif" font-size="14.00">increasing_geq</text>
</a>
</g>
</g>
<!-- Arithmetic_increasing_geq_minus&#45;&gt;Arithmetic_increasing_geq -->
<g id="edge6" class="edge">
<title>Arithmetic_increasing_geq_minus&#45;&gt;Arithmetic_increasing_geq</title>
<path fill="none" stroke="black" d="M3624.88,-1007.22C3599.85,-883.84 3490.5,-344.76 3464.54,-216.78"/>
<polygon fill="black" stroke="black" points="3467.91,-215.76 3462.49,-206.65 3461.05,-217.15 3467.91,-215.76"/>
</g>
<!-- Arithmetic_predeqminus1 -->
<g id="node27" class="node">
<title>Arithmetic_predeqminus1</title>
<g id="a_node27"><a xlink:href="Arithmetic.html#predeqminus1" xlink:title="predeqminus1">
<ellipse fill="#f070d1" stroke="black" cx="3630" cy="-588.45" rx="77.19" ry="18"/>
<text text-anchor="middle" x="3630" y="-584.75" font-family="Times,serif" font-size="14.00">predeqminus1</text>
</a>
</g>
</g>
<!-- Arithmetic_increasing_geq_minus&#45;&gt;Arithmetic_predeqminus1 -->
<g id="edge7" class="edge">
<title>Arithmetic_increasing_geq_minus&#45;&gt;Arithmetic_predeqminus1</title>
<path fill="none" stroke="black" d="M3630,-1007.36C3630,-930.27 3630,-697.2 3630,-616.95"/>
<polygon fill="black" stroke="black" points="3633.5,-616.67 3630,-606.67 3626.5,-616.67 3633.5,-616.67"/>
</g>
<!-- Arithmetic_increasing_geq_n_0 -->
<g id="node7" class="node">
<title>Arithmetic_increasing_geq_n_0</title>
<g id="a_node7"><a xlink:href="Arithmetic.html#increasing_geq_n_0" xlink:title="increasing_geq_n_0">
<ellipse fill="#f070d1" stroke="black" cx="3149" cy="-1033.45" rx="100.96" ry="18"/>
<ellipse fill="none" stroke="black" cx="3149" cy="-1033.45" rx="104.97" ry="22"/>
<ellipse fill="none" stroke="black" cx="3149" cy="-1033.45" rx="108.98" ry="26"/>
<text text-anchor="middle" x="3149" y="-1029.75" font-family="Times,serif" font-size="14.00">increasing_geq_n_0</text>
</a>
</g>
</g>
<!-- Arithmetic_increasing_geq_rec -->
<g id="node10" class="node">
<title>Arithmetic_increasing_geq_rec</title>
<g id="a_node10"><a xlink:href="Arithmetic.html#increasing_geq_rec" xlink:title="increasing_geq_rec">
<ellipse fill="#f070d1" stroke="black" cx="2931" cy="-588.45" rx="99.38" ry="18"/>
<text text-anchor="middle" x="2931" y="-584.75" font-family="Times,serif" font-size="14.00">increasing_geq_rec</text>
</a>
</g>
</g>
<!-- Arithmetic_increasing_geq_n_0&#45;&gt;Arithmetic_increasing_geq_rec -->
<g id="edge8" class="edge">
<title>Arithmetic_increasing_geq_n_0&#45;&gt;Arithmetic_increasing_geq_rec</title>
<path fill="none" stroke="black" d="M3136.65,-1007.36C3098.56,-929.95 2983.09,-695.29 2944.05,-615.97"/>
<polygon fill="black" stroke="black" points="2947.03,-614.1 2939.48,-606.67 2940.75,-617.19 2947.03,-614.1"/>
</g>
<!-- Arithmetic_increasing_geq_n_0&#45;&gt;Arithmetic_increasing_geq_S -->
<g id="edge9" class="edge">
<title>Arithmetic_increasing_geq_n_0&#45;&gt;Arithmetic_increasing_geq_S</title>
<path fill="none" stroke="black" d="M3160.33,-1007.36C3195.27,-929.95 3301.22,-695.29 3337.03,-615.97"/>
<polygon fill="black" stroke="black" points="3340.3,-617.23 3341.22,-606.67 3333.92,-614.35 3340.3,-617.23"/>
</g>
<!-- Arithmetic_increasing_geq_n_0&#45;&gt;Arithmetic_increasing_geq_n -->
<g id="edge10" class="edge">
<title>Arithmetic_increasing_geq_n_0&#45;&gt;Arithmetic_increasing_geq_n</title>
<path fill="none" stroke="black" d="M3149,-1007.36C3149,-930.27 3149,-697.2 3149,-616.95"/>
<polygon fill="black" stroke="black" points="3152.5,-616.67 3149,-606.67 3145.5,-616.67 3152.5,-616.67"/>
</g>
<!-- Arithmetic_increasing_geq_S_n&#45;&gt;Arithmetic_increasing_geq_rec -->
<g id="edge11" class="edge">
<title>Arithmetic_increasing_geq_S_n&#45;&gt;Arithmetic_increasing_geq_rec</title>
<path fill="none" stroke="black" d="M2921.39,-1015.35C2922.91,-947.94 2928.5,-700.14 2930.38,-616.91"/>
<polygon fill="black" stroke="black" points="2933.88,-616.81 2930.61,-606.73 2926.88,-616.65 2933.88,-616.81"/>
</g>
<!-- Arithmetic_increasing_geq_S_n&#45;&gt;Arithmetic_increasing_geq_S -->
<g id="edge12" class="edge">
<title>Arithmetic_increasing_geq_S_n&#45;&gt;Arithmetic_increasing_geq_S</title>
<path fill="none" stroke="black" d="M2937.26,-1015.62C3002.8,-947.78 3247.86,-694.14 3325.35,-613.93"/>
<polygon fill="black" stroke="black" points="3328.3,-615.91 3332.73,-606.29 3323.26,-611.05 3328.3,-615.91"/>
</g>
<!-- Arithmetic_increasing_geq_S_n&#45;&gt;Arithmetic_increasing_geq_n -->
<g id="edge13" class="edge">
<title>Arithmetic_increasing_geq_S_n&#45;&gt;Arithmetic_increasing_geq_n</title>
<path fill="none" stroke="black" d="M2929.8,-1015.35C2964.64,-947.66 3093.07,-698.11 3135.38,-615.9"/>
<polygon fill="black" stroke="black" points="3138.64,-617.22 3140.11,-606.73 3132.42,-614.02 3138.64,-617.22"/>
</g>
<!-- Arithmetic_increasing_geq_rect -->
<g id="node9" class="node">
<title>Arithmetic_increasing_geq_rect</title>
<g id="a_node9"><a xlink:href="Arithmetic.html#increasing_geq_rect" xlink:title="increasing_geq_rect">
<ellipse fill="#f070d1" stroke="black" cx="2565" cy="-1033.45" rx="103.19" ry="18"/>
<ellipse fill="none" stroke="black" cx="2565" cy="-1033.45" rx="107.19" ry="22"/>
<ellipse fill="none" stroke="black" cx="2565" cy="-1033.45" rx="111.18" ry="26"/>
<text text-anchor="middle" x="2565" y="-1029.75" font-family="Times,serif" font-size="14.00">increasing_geq_rect</text>
</a>
</g>
</g>
<!-- Arithmetic_increasing_geq_rect&#45;&gt;Arithmetic_increasing_geq_rec -->
<g id="edge14" class="edge">
<title>Arithmetic_increasing_geq_rect&#45;&gt;Arithmetic_increasing_geq_rec</title>
<path fill="none" stroke="black" d="M2585.46,-1007.68C2649.52,-930.15 2845.75,-692.64 2910.23,-614.59"/>
<polygon fill="black" stroke="black" points="2913.07,-616.65 2916.74,-606.71 2907.67,-612.19 2913.07,-616.65"/>
</g>
<!-- Arithmetic_increasing_geq_rec&#45;&gt;Arithmetic_increasing_geq -->
<g id="edge15" class="edge">
<title>Arithmetic_increasing_geq_rec&#45;&gt;Arithmetic_increasing_geq</title>
<path fill="none" stroke="black" d="M2953.02,-570.85C3036.47,-507.95 3333.44,-284.09 3429.08,-212"/>
<polygon fill="black" stroke="black" points="3431.3,-214.71 3437.18,-205.89 3427.09,-209.12 3431.3,-214.71"/>
</g>
<!-- Arithmetic_increasing_geq_ind -->
<g id="node11" class="node">
<title>Arithmetic_increasing_geq_ind</title>
<g id="a_node11"><a xlink:href="Arithmetic.html#increasing_geq_ind" xlink:title="increasing_geq_ind">
<ellipse fill="#f070d1" stroke="black" cx="3383" cy="-1033.45" rx="99.39" ry="18"/>
<ellipse fill="none" stroke="black" cx="3383" cy="-1033.45" rx="103.38" ry="22"/>
<ellipse fill="none" stroke="black" cx="3383" cy="-1033.45" rx="107.38" ry="26"/>
<text text-anchor="middle" x="3383" y="-1029.75" font-family="Times,serif" font-size="14.00">increasing_geq_ind</text>
</a>
</g>
</g>
<!-- Arithmetic_increasing_geq_ind&#45;&gt;Arithmetic_increasing_geq_S -->
<g id="edge16" class="edge">
<title>Arithmetic_increasing_geq_ind&#45;&gt;Arithmetic_increasing_geq_S</title>
<path fill="none" stroke="black" d="M3381.07,-1007.36C3375.16,-930.27 3357.27,-697.2 3351.11,-616.95"/>
<polygon fill="black" stroke="black" points="3354.58,-616.37 3350.32,-606.67 3347.6,-616.91 3354.58,-616.37"/>
</g>
<!-- Arithmetic_increasing_geq_ind&#45;&gt;Arithmetic_increasing_geq_n -->
<g id="edge17" class="edge">
<title>Arithmetic_increasing_geq_ind&#45;&gt;Arithmetic_increasing_geq_n</title>
<path fill="none" stroke="black" d="M3369.75,-1007.36C3328.86,-929.95 3204.91,-695.29 3163.01,-615.97"/>
<polygon fill="black" stroke="black" points="3165.86,-613.88 3158.1,-606.67 3159.67,-617.15 3165.86,-613.88"/>
</g>
<!-- Arithmetic_increasing_geq_ind&#45;&gt;Arithmetic_increasing_geq -->
<g id="edge18" class="edge">
<title>Arithmetic_increasing_geq_ind&#45;&gt;Arithmetic_increasing_geq</title>
<path fill="none" stroke="black" d="M3388.1,-1007.14C3401.09,-941.39 3435.35,-759.64 3449,-606.45 3462.06,-459.89 3460.69,-283.28 3459.57,-216.65"/>
<polygon fill="black" stroke="black" points="3463.06,-216.51 3459.38,-206.57 3456.06,-216.63 3463.06,-216.51"/>
</g>
<!-- Arithmetic_n_leq_m_n_leq_plus_m_k -->
<g id="node15" class="node">
<title>Arithmetic_n_leq_m_n_leq_plus_m_k</title>
<g id="a_node15"><a xlink:href="Arithmetic.html#n_leq_m_n_leq_plus_m_k" xlink:title="n_leq_m_n_leq_plus_m_k">
<ellipse fill="#f070d1" stroke="black" cx="2821" cy="-1522.45" rx="124.27" ry="18"/>
<ellipse fill="none" stroke="black" cx="2821" cy="-1522.45" rx="128.27" ry="22"/>
<ellipse fill="none" stroke="black" cx="2821" cy="-1522.45" rx="132.28" ry="26"/>
<text text-anchor="middle" x="2821" y="-1518.75" font-family="Times,serif" font-size="14.00">n_leq_m_n_leq_plus_m_k</text>
</a>
</g>
</g>
<!-- Arithmetic_sub_less_strict -->
<g id="node16" class="node">
<title>Arithmetic_sub_less_strict</title>
<g id="a_node16"><a xlink:href="Arithmetic.html#sub_less_strict" xlink:title="sub_less_strict">
<ellipse fill="#f070d1" stroke="black" cx="2584" cy="-1522.45" rx="79.11" ry="18"/>
<ellipse fill="none" stroke="black" cx="2584" cy="-1522.45" rx="83.1" ry="22"/>
<ellipse fill="none" stroke="black" cx="2584" cy="-1522.45" rx="87.09" ry="26"/>
<text text-anchor="middle" x="2584" y="-1518.75" font-family="Times,serif" font-size="14.00">sub_less_strict</text>
</a>
</g>
</g>
<!-- Arithmetic_sub_less_strict&#45;&gt;Arithmetic_sub_less -->
<g id="edge19" class="edge">
<title>Arithmetic_sub_less_strict&#45;&gt;Arithmetic_sub_less</title>
<path fill="none" stroke="black" d="M2573.77,-1496.29C2539.91,-1413 2431.63,-1146.68 2396.86,-1061.16"/>
<polygon fill="black" stroke="black" points="2400,-1059.6 2392.99,-1051.65 2393.52,-1062.23 2400,-1059.6"/>
</g>
<!-- Arithmetic_pred_preserves_lt -->
<g id="node18" class="node">
<title>Arithmetic_pred_preserves_lt</title>
<g id="a_node18"><a xlink:href="Arithmetic.html#pred_preserves_lt" xlink:title="pred_preserves_lt">
<ellipse fill="#f070d1" stroke="black" cx="2377" cy="-1522.45" rx="93.68" ry="18"/>
<ellipse fill="none" stroke="black" cx="2377" cy="-1522.45" rx="97.68" ry="22"/>
<ellipse fill="none" stroke="black" cx="2377" cy="-1522.45" rx="101.68" ry="26"/>
<text text-anchor="middle" x="2377" y="-1518.75" font-family="Times,serif" font-size="14.00">pred_preserves_lt</text>
</a>
</g>
</g>
<!-- Arithmetic_pred_gt_implies_lt -->
<g id="node19" class="node">
<title>Arithmetic_pred_gt_implies_lt</title>
<g id="a_node19"><a xlink:href="Arithmetic.html#pred_gt_implies_lt" xlink:title="pred_gt_implies_lt">
<ellipse fill="#f070d1" stroke="black" cx="2154" cy="-1522.45" rx="95.58" ry="18"/>
<ellipse fill="none" stroke="black" cx="2154" cy="-1522.45" rx="99.58" ry="22"/>
<ellipse fill="none" stroke="black" cx="2154" cy="-1522.45" rx="103.58" ry="26"/>
<text text-anchor="middle" x="2154" y="-1518.75" font-family="Times,serif" font-size="14.00">pred_gt_implies_lt</text>
</a>
</g>
</g>
<!-- Arithmetic_predn_leq_n -->
<g id="node26" class="node">
<title>Arithmetic_predn_leq_n</title>
<g id="a_node26"><a xlink:href="Arithmetic.html#predn_leq_n" xlink:title="predn_leq_n">
<ellipse fill="#f070d1" stroke="black" cx="2154" cy="-1033.45" rx="66.89" ry="18"/>
<text text-anchor="middle" x="2154" y="-1029.75" font-family="Times,serif" font-size="14.00">predn_leq_n</text>
</a>
</g>
</g>
<!-- Arithmetic_pred_gt_implies_lt&#45;&gt;Arithmetic_predn_leq_n -->
<g id="edge20" class="edge">
<title>Arithmetic_pred_gt_implies_lt&#45;&gt;Arithmetic_predn_leq_n</title>
<path fill="none" stroke="black" d="M2154,-1496.29C2154,-1413.17 2154,-1147.76 2154,-1061.68"/>
<polygon fill="black" stroke="black" points="2157.5,-1061.65 2154,-1051.65 2150.5,-1061.65 2157.5,-1061.65"/>
</g>
<!-- Arithmetic_j_geq_0_lt_implies_pred_geq -->
<g id="node20" class="node">
<title>Arithmetic_j_geq_0_lt_implies_pred_geq</title>
<g id="a_node20"><a xlink:href="Arithmetic.html#j_geq_0_lt_implies_pred_geq" xlink:title="j_geq_0_lt_implies_pred_geq">
<ellipse fill="#f070d1" stroke="black" cx="1883" cy="-1522.45" rx="141.87" ry="18"/>
<ellipse fill="none" stroke="black" cx="1883" cy="-1522.45" rx="145.87" ry="22"/>
<ellipse fill="none" stroke="black" cx="1883" cy="-1522.45" rx="149.88" ry="26"/>
<text text-anchor="middle" x="1883" y="-1518.75" font-family="Times,serif" font-size="14.00">j_geq_0_lt_implies_pred_geq</text>
</a>
</g>
</g>
<!-- Arithmetic_lt_implies_pred_geq -->
<g id="node21" class="node">
<title>Arithmetic_lt_implies_pred_geq</title>
<g id="a_node21"><a xlink:href="Arithmetic.html#lt_implies_pred_geq" xlink:title="lt_implies_pred_geq">
<ellipse fill="#f070d1" stroke="black" cx="1605" cy="-1522.45" rx="102.87" ry="18"/>
<ellipse fill="none" stroke="black" cx="1605" cy="-1522.45" rx="106.88" ry="22"/>
<ellipse fill="none" stroke="black" cx="1605" cy="-1522.45" rx="110.88" ry="26"/>
<text text-anchor="middle" x="1605" y="-1518.75" font-family="Times,serif" font-size="14.00">lt_implies_pred_geq</text>
</a>
</g>
</g>
<!-- Arithmetic_pred_lt_implies_leq -->
<g id="node22" class="node">
<title>Arithmetic_pred_lt_implies_leq</title>
<g id="a_node22"><a xlink:href="Arithmetic.html#pred_lt_implies_leq" xlink:title="pred_lt_implies_leq">
<ellipse fill="#f070d1" stroke="black" cx="1368" cy="-1522.45" rx="100.18" ry="18"/>
<ellipse fill="none" stroke="black" cx="1368" cy="-1522.45" rx="104.18" ry="22"/>
<ellipse fill="none" stroke="black" cx="1368" cy="-1522.45" rx="108.18" ry="26"/>
<text text-anchor="middle" x="1368" y="-1518.75" font-family="Times,serif" font-size="14.00">pred_lt_implies_leq</text>
</a>
</g>
</g>
<!-- Arithmetic_leq_implies_pred_lt -->
<g id="node23" class="node">
<title>Arithmetic_leq_implies_pred_lt</title>
<g id="a_node23"><a xlink:href="Arithmetic.html#leq_implies_pred_lt" xlink:title="leq_implies_pred_lt">
<ellipse fill="#f070d1" stroke="black" cx="1134" cy="-1522.45" rx="100.18" ry="18"/>
<ellipse fill="none" stroke="black" cx="1134" cy="-1522.45" rx="104.18" ry="22"/>
<ellipse fill="none" stroke="black" cx="1134" cy="-1522.45" rx="108.18" ry="26"/>
<text text-anchor="middle" x="1134" y="-1518.75" font-family="Times,serif" font-size="14.00">leq_implies_pred_lt</text>
</a>
</g>
</g>
<!-- Arithmetic_n_leq_pred_Sn -->
<g id="node24" class="node">
<title>Arithmetic_n_leq_pred_Sn</title>
<g id="a_node24"><a xlink:href="Arithmetic.html#n_leq_pred_Sn" xlink:title="n_leq_pred_Sn">
<ellipse fill="#f070d1" stroke="black" cx="923" cy="-1522.45" rx="77.2" ry="18"/>
<ellipse fill="none" stroke="black" cx="923" cy="-1522.45" rx="81.19" ry="22"/>
<ellipse fill="none" stroke="black" cx="923" cy="-1522.45" rx="85.19" ry="26"/>
<text text-anchor="middle" x="923" y="-1518.75" font-family="Times,serif" font-size="14.00">n_leq_pred_Sn</text>
</a>
</g>
</g>
<!-- Arithmetic_pred_equiv -->
<g id="node25" class="node">
<title>Arithmetic_pred_equiv</title>
<g id="a_node25"><a xlink:href="Arithmetic.html#pred_equiv" xlink:title="pred_equiv">
<ellipse fill="#f070d1" stroke="black" cx="750" cy="-1522.45" rx="61.96" ry="18"/>
<ellipse fill="none" stroke="black" cx="750" cy="-1522.45" rx="65.98" ry="22"/>
<ellipse fill="none" stroke="black" cx="750" cy="-1522.45" rx="69.99" ry="26"/>
<text text-anchor="middle" x="750" y="-1518.75" font-family="Times,serif" font-size="14.00">pred_equiv</text>
</a>
</g>
</g>
<!-- Arithmetic_i_lt_n_sum_m -->
<g id="node28" class="node">
<title>Arithmetic_i_lt_n_sum_m</title>
<g id="a_node28"><a xlink:href="Arithmetic.html#i_lt_n_sum_m" xlink:title="i_lt_n_sum_m">
<ellipse fill="#f070d1" stroke="black" cx="582" cy="-1522.45" rx="72.27" ry="18"/>
<ellipse fill="none" stroke="black" cx="582" cy="-1522.45" rx="76.28" ry="22"/>
<ellipse fill="none" stroke="black" cx="582" cy="-1522.45" rx="80.29" ry="26"/>
<text text-anchor="middle" x="582" y="-1518.75" font-family="Times,serif" font-size="14.00">i_lt_n_sum_m</text>
</a>
</g>
</g>
<!-- Arithmetic_nat_sub_add_ineq -->
<g id="node29" class="node">
<title>Arithmetic_nat_sub_add_ineq</title>
<g id="a_node29"><a xlink:href="Arithmetic.html#nat_sub_add_ineq" xlink:title="nat_sub_add_ineq">
<ellipse fill="#f070d1" stroke="black" cx="383" cy="-1522.45" rx="92.89" ry="18"/>
<ellipse fill="none" stroke="black" cx="383" cy="-1522.45" rx="96.89" ry="22"/>
<ellipse fill="none" stroke="black" cx="383" cy="-1522.45" rx="100.88" ry="26"/>
<text text-anchor="middle" x="383" y="-1518.75" font-family="Times,serif" font-size="14.00">nat_sub_add_ineq</text>
</a>
</g>
</g>
<!-- Arithmetic_nataddsub_comm_ineq -->
<g id="node30" class="node">
<title>Arithmetic_nataddsub_comm_ineq</title>
<g id="a_node30"><a xlink:href="Arithmetic.html#nataddsub_comm_ineq" xlink:title="nataddsub_comm_ineq">
<ellipse fill="#f070d1" stroke="black" cx="140" cy="-1522.45" rx="116.19" ry="18"/>
<ellipse fill="none" stroke="black" cx="140" cy="-1522.45" rx="120.18" ry="22"/>
<ellipse fill="none" stroke="black" cx="140" cy="-1522.45" rx="124.18" ry="26"/>
<text text-anchor="middle" x="140" y="-1518.75" font-family="Times,serif" font-size="14.00">nataddsub_comm_ineq</text>
</a>
</g>
</g>
<!-- Arithmetic_nataddsub_comm_ineq_lemma -->
<g id="node31" class="node">
<title>Arithmetic_nataddsub_comm_ineq_lemma</title>
<g id="a_node31"><a xlink:href="Arithmetic.html#nataddsub_comm_ineq_lemma" xlink:title="nataddsub_comm_ineq_lemma">
<ellipse fill="#f070d1" stroke="black" cx="167" cy="-1033.45" rx="151.37" ry="18"/>
<text text-anchor="middle" x="167" y="-1029.75" font-family="Times,serif" font-size="14.00">nataddsub_comm_ineq_lemma</text>
</a>
</g>
</g>
<!-- Arithmetic_nataddsub_comm_ineq&#45;&gt;Arithmetic_nataddsub_comm_ineq_lemma -->
<g id="edge21" class="edge">
<title>Arithmetic_nataddsub_comm_ineq&#45;&gt;Arithmetic_nataddsub_comm_ineq_lemma</title>
<path fill="none" stroke="black" d="M141.39,-1496.29C146,-1413.17 160.72,-1147.76 165.49,-1061.68"/>
<polygon fill="black" stroke="black" points="168.99,-1061.83 166.05,-1051.65 162,-1061.44 168.99,-1061.83"/>
</g>
</g>
</svg>
