<?xml version="1.0" encoding="UTF-8" standalone="no"?>
<!DOCTYPE svg PUBLIC "-//W3C//DTD SVG 1.1//EN"
 "http://www.w3.org/Graphics/SVG/1.1/DTD/svg11.dtd">
<!-- Generated by graphviz version 2.43.0 (0)
 -->
<!-- Title: HoTT_Modalities_CoreflectiveSubuniverse Pages: 1 -->
<svg width="1773pt" height="890pt"
 viewBox="0.00 0.00 1773.00 890.50" xmlns="http://www.w3.org/2000/svg" xmlns:xlink="http://www.w3.org/1999/xlink">
<g id="graph0" class="graph" transform="scale(1 1) rotate(0) translate(4 886.5)">
<title>HoTT_Modalities_CoreflectiveSubuniverse</title>
<polygon fill="white" stroke="transparent" points="-4,4 -4,-886.5 1769,-886.5 1769,4 -4,4"/>
<g id="clust1" class="cluster">
<title>cluster_CoreflectiveSubuniverse</title>
<polygon fill="#ffffc3" stroke="black" points="8,-15.94 8,-866.56 1757,-866.56 1757,-15.94 8,-15.94"/>
<text text-anchor="middle" x="103.5" y="-851.36" font-family="Times,serif" font-size="14.00">CoreflectiveSubuniverse</text>
</g>
<!-- CoreflectiveSubuniverse_coopen_equiv_open -->
<g id="node1" class="node">
<title>CoreflectiveSubuniverse_coopen_equiv_open</title>
<g id="a_node1"><a xlink:href="CoreflectiveSubuniverse.html#coopen_equiv_open" xlink:title="coopen_equiv_open">
<ellipse fill="#f070d1" stroke="black" cx="446" cy="-577.94" rx="100.18" ry="18"/>
<ellipse fill="none" stroke="black" cx="446" cy="-577.94" rx="104.18" ry="22"/>
<ellipse fill="none" stroke="black" cx="446" cy="-577.94" rx="108.18" ry="26"/>
<text text-anchor="middle" x="446" y="-574.24" font-family="Times,serif" font-size="14.00">coopen_equiv_open</text>
</a>
</g>
</g>
<!-- CoreflectiveSubuniverse_coopen_isequiv_open -->
<g id="node2" class="node">
<title>CoreflectiveSubuniverse_coopen_isequiv_open</title>
<g id="a_node2"><a xlink:href="CoreflectiveSubuniverse.html#coopen_isequiv_open" xlink:title="coopen_isequiv_open">
<ellipse fill="#f070d1" stroke="black" cx="446" cy="-401.94" rx="107.78" ry="18"/>
<text text-anchor="middle" x="446" y="-398.24" font-family="Times,serif" font-size="14.00">coopen_isequiv_open</text>
</a>
</g>
</g>
<!-- CoreflectiveSubuniverse_coopen_equiv_open&#45;&gt;CoreflectiveSubuniverse_coopen_isequiv_open -->
<g id="edge1" class="edge">
<title>CoreflectiveSubuniverse_coopen_equiv_open&#45;&gt;CoreflectiveSubuniverse_coopen_isequiv_open</title>
<path fill="none" stroke="black" d="M446,-551.64C446,-519.46 446,-464.08 446,-430.74"/>
<polygon fill="black" stroke="black" points="449.5,-430.35 446,-420.35 442.5,-430.35 449.5,-430.35"/>
</g>
<!-- CoreflectiveSubuniverse_coOp -->
<g id="node3" class="node">
<title>CoreflectiveSubuniverse_coOp</title>
<g id="a_node3"><a xlink:href="CoreflectiveSubuniverse.html#coOp" xlink:title="coOp">
<ellipse fill="#f070d1" stroke="black" cx="364" cy="-226.94" rx="34.39" ry="18"/>
<text text-anchor="middle" x="364" y="-223.24" font-family="Times,serif" font-size="14.00">coOp</text>
</a>
</g>
</g>
<!-- CoreflectiveSubuniverse_coopen_isequiv_open&#45;&gt;CoreflectiveSubuniverse_coOp -->
<g id="edge2" class="edge">
<title>CoreflectiveSubuniverse_coopen_isequiv_open&#45;&gt;CoreflectiveSubuniverse_coOp</title>
<path fill="none" stroke="black" d="M437.84,-383.72C423.4,-353.25 393.27,-289.69 376.3,-253.89"/>
<polygon fill="black" stroke="black" points="379.33,-252.12 371.89,-244.58 373.01,-255.11 379.33,-252.12"/>
</g>
<!-- CoreflectiveSubuniverse_Build_CoreflectiveSubuniverse -->
<g id="node20" class="node">
<title>CoreflectiveSubuniverse_Build_CoreflectiveSubuniverse</title>
<g id="a_node20"><a xlink:href="CoreflectiveSubuniverse.html#Build_CoreflectiveSubuniverse" xlink:title="Build_CoreflectiveSubuniverse">
<ellipse fill="#7faaff" stroke="black" cx="468" cy="-67.94" rx="153.27" ry="18"/>
<text text-anchor="middle" x="468" y="-64.24" font-family="Times,serif" font-size="14.00">Build_CoreflectiveSubuniverse</text>
</a>
</g>
</g>
<!-- CoreflectiveSubuniverse_coOp&#45;&gt;CoreflectiveSubuniverse_Build_CoreflectiveSubuniverse -->
<g id="edge3" class="edge">
<title>CoreflectiveSubuniverse_coOp&#45;&gt;CoreflectiveSubuniverse_Build_CoreflectiveSubuniverse</title>
<path fill="none" stroke="black" d="M374.74,-209.73C392.76,-182.51 429.25,-127.43 450.86,-94.81"/>
<polygon fill="black" stroke="black" points="453.93,-96.52 456.53,-86.25 448.09,-92.65 453.93,-96.52"/>
</g>
<!-- CoreflectiveSubuniverse_CoreflectiveSubuniverse -->
<g id="node21" class="node">
<title>CoreflectiveSubuniverse_CoreflectiveSubuniverse</title>
<g id="a_node21"><a xlink:href="CoreflectiveSubuniverse.html#CoreflectiveSubuniverse" xlink:title="CoreflectiveSubuniverse">
<ellipse fill="#e2cdfa" stroke="black" cx="1104" cy="-67.94" rx="124.28" ry="18"/>
<text text-anchor="middle" x="1104" y="-64.24" font-family="Times,serif" font-size="14.00">CoreflectiveSubuniverse</text>
</a>
</g>
</g>
<!-- CoreflectiveSubuniverse_coOp&#45;&gt;CoreflectiveSubuniverse_CoreflectiveSubuniverse -->
<g id="edge4" class="edge">
<title>CoreflectiveSubuniverse_coOp&#45;&gt;CoreflectiveSubuniverse_CoreflectiveSubuniverse</title>
<path fill="none" stroke="black" d="M384.8,-212.26C391.92,-208.09 400.08,-203.85 408,-200.94 605.38,-128.43 849.55,-93.89 989.98,-78.95"/>
<polygon fill="black" stroke="black" points="990.75,-82.39 1000.33,-77.87 990.02,-75.43 990.75,-82.39"/>
</g>
<!-- CoreflectiveSubuniverse_inF_equiv_implies_funit -->
<g id="node4" class="node">
<title>CoreflectiveSubuniverse_inF_equiv_implies_funit</title>
<g id="a_node4"><a xlink:href="CoreflectiveSubuniverse.html#inF_equiv_implies_funit" xlink:title="inF_equiv_implies_funit">
<ellipse fill="#f070d1" stroke="black" cx="1373" cy="-752.94" rx="120.46" ry="18"/>
<ellipse fill="none" stroke="black" cx="1373" cy="-752.94" rx="124.47" ry="22"/>
<ellipse fill="none" stroke="black" cx="1373" cy="-752.94" rx="128.48" ry="26"/>
<text text-anchor="middle" x="1373" y="-749.24" font-family="Times,serif" font-size="14.00">inF_equiv_implies_funit</text>
</a>
</g>
</g>
<!-- CoreflectiveSubuniverse_inF_fromF_sect -->
<g id="node5" class="node">
<title>CoreflectiveSubuniverse_inF_fromF_sect</title>
<g id="a_node5"><a xlink:href="CoreflectiveSubuniverse.html#inF_fromF_sect" xlink:title="inF_fromF_sect">
<ellipse fill="#f070d1" stroke="black" cx="1667" cy="-577.94" rx="81.79" ry="18"/>
<text text-anchor="middle" x="1667" y="-574.24" font-family="Times,serif" font-size="14.00">inF_fromF_sect</text>
</a>
</g>
</g>
<!-- CoreflectiveSubuniverse_inF_equiv_implies_funit&#45;&gt;CoreflectiveSubuniverse_inF_fromF_sect -->
<g id="edge5" class="edge">
<title>CoreflectiveSubuniverse_inF_equiv_implies_funit&#45;&gt;CoreflectiveSubuniverse_inF_fromF_sect</title>
<path fill="none" stroke="black" d="M1413.26,-728.24C1470.77,-694.41 1575.55,-632.75 1630.75,-600.27"/>
<polygon fill="black" stroke="black" points="1632.65,-603.21 1639.49,-595.12 1629.1,-597.18 1632.65,-603.21"/>
</g>
<!-- CoreflectiveSubuniverse_ishprop_coreflection -->
<g id="node6" class="node">
<title>CoreflectiveSubuniverse_ishprop_coreflection</title>
<g id="a_node6"><a xlink:href="CoreflectiveSubuniverse.html#ishprop_coreflection" xlink:title="ishprop_coreflection">
<ellipse fill="#f070d1" stroke="black" cx="1462" cy="-577.94" rx="104.78" ry="18"/>
<text text-anchor="middle" x="1462" y="-574.24" font-family="Times,serif" font-size="14.00">ishprop_coreflection</text>
</a>
</g>
</g>
<!-- CoreflectiveSubuniverse_inF_equiv_implies_funit&#45;&gt;CoreflectiveSubuniverse_ishprop_coreflection -->
<g id="edge6" class="edge">
<title>CoreflectiveSubuniverse_inF_equiv_implies_funit&#45;&gt;CoreflectiveSubuniverse_ishprop_coreflection</title>
<path fill="none" stroke="black" d="M1385.94,-726.78C1402.62,-694.37 1431.47,-638.28 1448.44,-605.3"/>
<polygon fill="black" stroke="black" points="1451.63,-606.74 1453.09,-596.25 1445.41,-603.54 1451.63,-606.74"/>
</g>
<!-- CoreflectiveSubuniverse_F_functor -->
<g id="node7" class="node">
<title>CoreflectiveSubuniverse_F_functor</title>
<g id="a_node7"><a xlink:href="CoreflectiveSubuniverse.html#F_functor" xlink:title="F_functor">
<ellipse fill="#f070d1" stroke="black" cx="1284" cy="-577.94" rx="55.49" ry="18"/>
<text text-anchor="middle" x="1284" y="-574.24" font-family="Times,serif" font-size="14.00">F_functor</text>
</a>
</g>
</g>
<!-- CoreflectiveSubuniverse_inF_equiv_implies_funit&#45;&gt;CoreflectiveSubuniverse_F_functor -->
<g id="edge7" class="edge">
<title>CoreflectiveSubuniverse_inF_equiv_implies_funit&#45;&gt;CoreflectiveSubuniverse_F_functor</title>
<path fill="none" stroke="black" d="M1360.06,-726.78C1343.3,-694.2 1314.23,-637.69 1297.29,-604.78"/>
<polygon fill="black" stroke="black" points="1300.35,-603.06 1292.66,-595.77 1294.12,-606.26 1300.35,-603.06"/>
</g>
<!-- CoreflectiveSubuniverse_F_corec_beta -->
<g id="node9" class="node">
<title>CoreflectiveSubuniverse_F_corec_beta</title>
<g id="a_node9"><a xlink:href="CoreflectiveSubuniverse.html#F_corec_beta" xlink:title="F_corec_beta">
<ellipse fill="#f070d1" stroke="black" cx="1139" cy="-577.94" rx="71.49" ry="18"/>
<text text-anchor="middle" x="1139" y="-574.24" font-family="Times,serif" font-size="14.00">F_corec_beta</text>
</a>
</g>
</g>
<!-- CoreflectiveSubuniverse_inF_equiv_implies_funit&#45;&gt;CoreflectiveSubuniverse_F_corec_beta -->
<g id="edge8" class="edge">
<title>CoreflectiveSubuniverse_inF_equiv_implies_funit&#45;&gt;CoreflectiveSubuniverse_F_corec_beta</title>
<path fill="none" stroke="black" d="M1339.97,-727.52C1294.5,-693.9 1213.26,-633.84 1169.29,-601.33"/>
<polygon fill="black" stroke="black" points="1171.13,-598.34 1161.01,-595.21 1166.97,-603.97 1171.13,-598.34"/>
</g>
<!-- CoreflectiveSubuniverse_F_coindpaths -->
<g id="node8" class="node">
<title>CoreflectiveSubuniverse_F_coindpaths</title>
<g id="a_node8"><a xlink:href="CoreflectiveSubuniverse.html#F_coindpaths" xlink:title="F_coindpaths">
<ellipse fill="#f070d1" stroke="black" cx="1586" cy="-401.94" rx="72.29" ry="18"/>
<text text-anchor="middle" x="1586" y="-398.24" font-family="Times,serif" font-size="14.00">F_coindpaths</text>
</a>
</g>
</g>
<!-- CoreflectiveSubuniverse_inF_fromF_sect&#45;&gt;CoreflectiveSubuniverse_F_coindpaths -->
<g id="edge9" class="edge">
<title>CoreflectiveSubuniverse_inF_fromF_sect&#45;&gt;CoreflectiveSubuniverse_F_coindpaths</title>
<path fill="none" stroke="black" d="M1659.09,-559.94C1644.93,-529.53 1615.19,-465.64 1598.33,-429.43"/>
<polygon fill="black" stroke="black" points="1601.34,-427.6 1593.95,-420.01 1594.99,-430.55 1601.34,-427.6"/>
</g>
<!-- CoreflectiveSubuniverse_F_inF -->
<g id="node13" class="node">
<title>CoreflectiveSubuniverse_F_inF</title>
<g id="a_node13"><a xlink:href="CoreflectiveSubuniverse.html#F_inF" xlink:title="F_inF">
<ellipse fill="#f070d1" stroke="black" cx="1713" cy="-401.94" rx="36.29" ry="18"/>
<text text-anchor="middle" x="1713" y="-398.24" font-family="Times,serif" font-size="14.00">F_inF</text>
</a>
</g>
</g>
<!-- CoreflectiveSubuniverse_inF_fromF_sect&#45;&gt;CoreflectiveSubuniverse_F_inF -->
<g id="edge10" class="edge">
<title>CoreflectiveSubuniverse_inF_fromF_sect&#45;&gt;CoreflectiveSubuniverse_F_inF</title>
<path fill="none" stroke="black" d="M1671.49,-559.94C1679.5,-529.66 1696.28,-466.18 1705.87,-429.9"/>
<polygon fill="black" stroke="black" points="1709.32,-430.57 1708.49,-420.01 1702.55,-428.78 1709.32,-430.57"/>
</g>
<!-- CoreflectiveSubuniverse_ishprop_coreflection&#45;&gt;CoreflectiveSubuniverse_F_coindpaths -->
<g id="edge11" class="edge">
<title>CoreflectiveSubuniverse_ishprop_coreflection&#45;&gt;CoreflectiveSubuniverse_F_coindpaths</title>
<path fill="none" stroke="black" d="M1474.12,-559.94C1496.03,-529.19 1542.33,-464.21 1567.97,-428.23"/>
<polygon fill="black" stroke="black" points="1571.06,-429.93 1574.02,-419.75 1565.36,-425.86 1571.06,-429.93"/>
</g>
<!-- CoreflectiveSubuniverse_F_corec -->
<g id="node10" class="node">
<title>CoreflectiveSubuniverse_F_corec</title>
<g id="a_node10"><a xlink:href="CoreflectiveSubuniverse.html#F_corec" xlink:title="F_corec">
<ellipse fill="#f070d1" stroke="black" cx="1284" cy="-401.94" rx="46.29" ry="18"/>
<text text-anchor="middle" x="1284" y="-398.24" font-family="Times,serif" font-size="14.00">F_corec</text>
</a>
</g>
</g>
<!-- CoreflectiveSubuniverse_F_functor&#45;&gt;CoreflectiveSubuniverse_F_corec -->
<g id="edge12" class="edge">
<title>CoreflectiveSubuniverse_F_functor&#45;&gt;CoreflectiveSubuniverse_F_corec</title>
<path fill="none" stroke="black" d="M1284,-559.94C1284,-529.79 1284,-466.73 1284,-430.37"/>
<polygon fill="black" stroke="black" points="1287.5,-430.01 1284,-420.01 1280.5,-430.01 1287.5,-430.01"/>
</g>
<!-- CoreflectiveSubuniverse_isequiv_fromF_postcompose -->
<g id="node11" class="node">
<title>CoreflectiveSubuniverse_isequiv_fromF_postcompose</title>
<g id="a_node11"><a xlink:href="CoreflectiveSubuniverse.html#isequiv_fromF_postcompose" xlink:title="isequiv_fromF_postcompose">
<ellipse fill="#f070d1" stroke="black" cx="1587" cy="-226.94" rx="141.88" ry="18"/>
<text text-anchor="middle" x="1587" y="-223.24" font-family="Times,serif" font-size="14.00">isequiv_fromF_postcompose</text>
</a>
</g>
</g>
<!-- CoreflectiveSubuniverse_F_coindpaths&#45;&gt;CoreflectiveSubuniverse_isequiv_fromF_postcompose -->
<g id="edge13" class="edge">
<title>CoreflectiveSubuniverse_F_coindpaths&#45;&gt;CoreflectiveSubuniverse_isequiv_fromF_postcompose</title>
<path fill="none" stroke="black" d="M1586.1,-383.72C1586.27,-353.66 1586.63,-291.42 1586.84,-255.37"/>
<polygon fill="black" stroke="black" points="1590.34,-255.11 1586.9,-245.09 1583.34,-255.07 1590.34,-255.11"/>
</g>
<!-- CoreflectiveSubuniverse_F_corec_beta&#45;&gt;CoreflectiveSubuniverse_F_corec -->
<g id="edge14" class="edge">
<title>CoreflectiveSubuniverse_F_corec_beta&#45;&gt;CoreflectiveSubuniverse_F_corec</title>
<path fill="none" stroke="black" d="M1152.9,-560.25C1178.63,-529.38 1233.75,-463.24 1263.67,-427.33"/>
<polygon fill="black" stroke="black" points="1266.64,-429.24 1270.35,-419.32 1261.26,-424.76 1266.64,-429.24"/>
</g>
<!-- CoreflectiveSubuniverse_F_corec&#45;&gt;CoreflectiveSubuniverse_isequiv_fromF_postcompose -->
<g id="edge15" class="edge">
<title>CoreflectiveSubuniverse_F_corec&#45;&gt;CoreflectiveSubuniverse_isequiv_fromF_postcompose</title>
<path fill="none" stroke="black" d="M1309.05,-386.63C1362.03,-356.39 1485.7,-285.78 1548.68,-249.82"/>
<polygon fill="black" stroke="black" points="1550.56,-252.77 1557.51,-244.77 1547.09,-246.69 1550.56,-252.77"/>
</g>
<!-- CoreflectiveSubuniverse_isequiv_fromF_postcompose&#45;&gt;CoreflectiveSubuniverse_CoreflectiveSubuniverse -->
<g id="edge16" class="edge">
<title>CoreflectiveSubuniverse_isequiv_fromF_postcompose&#45;&gt;CoreflectiveSubuniverse_CoreflectiveSubuniverse</title>
<path fill="none" stroke="black" d="M1538.03,-210.02C1448.18,-180.81 1257.44,-118.81 1161.56,-87.65"/>
<polygon fill="black" stroke="black" points="1162.62,-84.31 1152.02,-84.55 1160.45,-90.97 1162.62,-84.31"/>
</g>
<!-- CoreflectiveSubuniverse_fromF -->
<g id="node12" class="node">
<title>CoreflectiveSubuniverse_fromF</title>
<g id="a_node12"><a xlink:href="CoreflectiveSubuniverse.html#fromF" xlink:title="fromF">
<ellipse fill="#f070d1" stroke="black" cx="1380" cy="-226.94" rx="38.99" ry="18"/>
<ellipse fill="none" stroke="black" cx="1380" cy="-226.94" rx="42.99" ry="22"/>
<ellipse fill="none" stroke="black" cx="1380" cy="-226.94" rx="46.99" ry="26"/>
<text text-anchor="middle" x="1380" y="-223.24" font-family="Times,serif" font-size="14.00">fromF</text>
</a>
</g>
</g>
<!-- CoreflectiveSubuniverse_fromF&#45;&gt;CoreflectiveSubuniverse_CoreflectiveSubuniverse -->
<g id="edge17" class="edge">
<title>CoreflectiveSubuniverse_fromF&#45;&gt;CoreflectiveSubuniverse_CoreflectiveSubuniverse</title>
<path fill="none" stroke="black" d="M1348.07,-207.77C1296.86,-178.64 1196.57,-121.59 1141.84,-90.46"/>
<polygon fill="black" stroke="black" points="1143.56,-87.41 1133.14,-85.51 1140.1,-93.5 1143.56,-87.41"/>
</g>
<!-- CoreflectiveSubuniverse_F_inF&#45;&gt;CoreflectiveSubuniverse_CoreflectiveSubuniverse -->
<g id="edge18" class="edge">
<title>CoreflectiveSubuniverse_F_inF&#45;&gt;CoreflectiveSubuniverse_CoreflectiveSubuniverse</title>
<path fill="none" stroke="black" d="M1722.26,-384.49C1741.86,-347.22 1782.27,-255.37 1738,-200.94 1674.77,-123.19 1392.17,-89.71 1226.37,-76.55"/>
<polygon fill="black" stroke="black" points="1226.36,-73.04 1216.12,-75.75 1225.82,-80.02 1226.36,-73.04"/>
</g>
<!-- CoreflectiveSubuniverse_F_coreflector -->
<g id="node14" class="node">
<title>CoreflectiveSubuniverse_F_coreflector</title>
<g id="a_node14"><a xlink:href="CoreflectiveSubuniverse.html#F_coreflector" xlink:title="F_coreflector">
<ellipse fill="#f070d1" stroke="black" cx="1236" cy="-226.94" rx="71.49" ry="18"/>
<ellipse fill="none" stroke="black" cx="1236" cy="-226.94" rx="75.49" ry="22"/>
<ellipse fill="none" stroke="black" cx="1236" cy="-226.94" rx="79.49" ry="26"/>
<text text-anchor="middle" x="1236" y="-223.24" font-family="Times,serif" font-size="14.00">F_coreflector</text>
</a>
</g>
</g>
<!-- CoreflectiveSubuniverse_F_coreflector&#45;&gt;CoreflectiveSubuniverse_CoreflectiveSubuniverse -->
<g id="edge19" class="edge">
<title>CoreflectiveSubuniverse_F_coreflector&#45;&gt;CoreflectiveSubuniverse_CoreflectiveSubuniverse</title>
<path fill="none" stroke="black" d="M1215.66,-201.75C1191.07,-172.5 1149.89,-123.52 1125.01,-93.92"/>
<polygon fill="black" stroke="black" points="1127.56,-91.52 1118.45,-86.12 1122.2,-96.03 1127.56,-91.52"/>
</g>
<!-- CoreflectiveSubuniverse_inF -->
<g id="node15" class="node">
<title>CoreflectiveSubuniverse_inF</title>
<g id="a_node15"><a xlink:href="CoreflectiveSubuniverse.html#inF" xlink:title="inF">
<ellipse fill="#f070d1" stroke="black" cx="1104" cy="-226.94" rx="27" ry="18"/>
<ellipse fill="none" stroke="black" cx="1104" cy="-226.94" rx="31" ry="22"/>
<ellipse fill="none" stroke="black" cx="1104" cy="-226.94" rx="35" ry="26"/>
<text text-anchor="middle" x="1104" y="-223.24" font-family="Times,serif" font-size="14.00">inF</text>
</a>
</g>
</g>
<!-- CoreflectiveSubuniverse_inF&#45;&gt;CoreflectiveSubuniverse_CoreflectiveSubuniverse -->
<g id="edge20" class="edge">
<title>CoreflectiveSubuniverse_inF&#45;&gt;CoreflectiveSubuniverse_CoreflectiveSubuniverse</title>
<path fill="none" stroke="black" d="M1104,-200.71C1104,-172.15 1104,-125.77 1104,-96.33"/>
<polygon fill="black" stroke="black" points="1107.5,-96.32 1104,-86.32 1100.5,-96.32 1107.5,-96.32"/>
</g>
<!-- CoreflectiveSubuniverse_CoreflectiveSubuniverse_sind -->
<g id="node16" class="node">
<title>CoreflectiveSubuniverse_CoreflectiveSubuniverse_sind</title>
<g id="a_node16"><a xlink:href="CoreflectiveSubuniverse.html#CoreflectiveSubuniverse_sind" xlink:title="CoreflectiveSubuniverse_sind">
<ellipse fill="#f070d1" stroke="black" cx="573" cy="-226.94" rx="148.36" ry="18"/>
<ellipse fill="none" stroke="black" cx="573" cy="-226.94" rx="152.37" ry="22"/>
<ellipse fill="none" stroke="black" cx="573" cy="-226.94" rx="156.37" ry="26"/>
<text text-anchor="middle" x="573" y="-223.24" font-family="Times,serif" font-size="14.00">CoreflectiveSubuniverse_sind</text>
</a>
</g>
</g>
<!-- CoreflectiveSubuniverse_CoreflectiveSubuniverse_sind&#45;&gt;CoreflectiveSubuniverse_Build_CoreflectiveSubuniverse -->
<g id="edge21" class="edge">
<title>CoreflectiveSubuniverse_CoreflectiveSubuniverse_sind&#45;&gt;CoreflectiveSubuniverse_Build_CoreflectiveSubuniverse</title>
<path fill="none" stroke="black" d="M556.36,-201.06C536.87,-171.91 504.74,-123.87 485.06,-94.45"/>
<polygon fill="black" stroke="black" points="487.85,-92.32 479.38,-85.96 482.03,-96.21 487.85,-92.32"/>
</g>
<!-- CoreflectiveSubuniverse_CoreflectiveSubuniverse_sind&#45;&gt;CoreflectiveSubuniverse_CoreflectiveSubuniverse -->
<g id="edge22" class="edge">
<title>CoreflectiveSubuniverse_CoreflectiveSubuniverse_sind&#45;&gt;CoreflectiveSubuniverse_CoreflectiveSubuniverse</title>
<path fill="none" stroke="black" d="M647.11,-204.02C752.58,-172.84 944.04,-116.23 1042.25,-87.19"/>
<polygon fill="black" stroke="black" points="1043.44,-90.49 1052.04,-84.3 1041.45,-83.78 1043.44,-90.49"/>
</g>
<!-- CoreflectiveSubuniverse_CoreflectiveSubuniverse_rec -->
<g id="node17" class="node">
<title>CoreflectiveSubuniverse_CoreflectiveSubuniverse_rec</title>
<g id="a_node17"><a xlink:href="CoreflectiveSubuniverse.html#CoreflectiveSubuniverse_rec" xlink:title="CoreflectiveSubuniverse_rec">
<ellipse fill="#f070d1" stroke="black" cx="168" cy="-401.94" rx="143.77" ry="18"/>
<ellipse fill="none" stroke="black" cx="168" cy="-401.94" rx="147.77" ry="22"/>
<ellipse fill="none" stroke="black" cx="168" cy="-401.94" rx="151.77" ry="26"/>
<text text-anchor="middle" x="168" y="-398.24" font-family="Times,serif" font-size="14.00">CoreflectiveSubuniverse_rec</text>
</a>
</g>
</g>
<!-- CoreflectiveSubuniverse_CoreflectiveSubuniverse_rect -->
<g id="node19" class="node">
<title>CoreflectiveSubuniverse_CoreflectiveSubuniverse_rect</title>
<g id="a_node19"><a xlink:href="CoreflectiveSubuniverse.html#CoreflectiveSubuniverse_rect" xlink:title="CoreflectiveSubuniverse_rect">
<ellipse fill="#f070d1" stroke="black" cx="164" cy="-226.94" rx="147.57" ry="18"/>
<text text-anchor="middle" x="164" y="-223.24" font-family="Times,serif" font-size="14.00">CoreflectiveSubuniverse_rect</text>
</a>
</g>
</g>
<!-- CoreflectiveSubuniverse_CoreflectiveSubuniverse_rec&#45;&gt;CoreflectiveSubuniverse_CoreflectiveSubuniverse_rect -->
<g id="edge23" class="edge">
<title>CoreflectiveSubuniverse_CoreflectiveSubuniverse_rec&#45;&gt;CoreflectiveSubuniverse_CoreflectiveSubuniverse_rect</title>
<path fill="none" stroke="black" d="M167.42,-375.78C166.68,-343.79 165.41,-288.72 164.64,-255.58"/>
<polygon fill="black" stroke="black" points="168.13,-255.17 164.4,-245.25 161.13,-255.33 168.13,-255.17"/>
</g>
<!-- CoreflectiveSubuniverse_CoreflectiveSubuniverse_ind -->
<g id="node18" class="node">
<title>CoreflectiveSubuniverse_CoreflectiveSubuniverse_ind</title>
<g id="a_node18"><a xlink:href="CoreflectiveSubuniverse.html#CoreflectiveSubuniverse_ind" xlink:title="CoreflectiveSubuniverse_ind">
<ellipse fill="#7fffd4" stroke="black" cx="899" cy="-226.94" rx="143.77" ry="18"/>
<ellipse fill="none" stroke="black" cx="899" cy="-226.94" rx="147.77" ry="22"/>
<ellipse fill="none" stroke="black" cx="899" cy="-226.94" rx="151.77" ry="26"/>
<text text-anchor="middle" x="899" y="-223.24" font-family="Times,serif" font-size="14.00">CoreflectiveSubuniverse_ind</text>
</a>
</g>
</g>
<!-- CoreflectiveSubuniverse_CoreflectiveSubuniverse_ind&#45;&gt;CoreflectiveSubuniverse_Build_CoreflectiveSubuniverse -->
<g id="edge24" class="edge">
<title>CoreflectiveSubuniverse_CoreflectiveSubuniverse_ind&#45;&gt;CoreflectiveSubuniverse_Build_CoreflectiveSubuniverse</title>
<path fill="none" stroke="black" d="M836.33,-203.11C751.64,-172.26 602.06,-117.77 522.06,-88.63"/>
<polygon fill="black" stroke="black" points="523.25,-85.34 512.65,-85.2 520.85,-91.91 523.25,-85.34"/>
</g>
<!-- CoreflectiveSubuniverse_CoreflectiveSubuniverse_ind&#45;&gt;CoreflectiveSubuniverse_CoreflectiveSubuniverse -->
<g id="edge25" class="edge">
<title>CoreflectiveSubuniverse_CoreflectiveSubuniverse_ind&#45;&gt;CoreflectiveSubuniverse_CoreflectiveSubuniverse</title>
<path fill="none" stroke="black" d="M931.03,-201.41C970.08,-171.5 1035.58,-121.34 1073.79,-92.08"/>
<polygon fill="black" stroke="black" points="1076.15,-94.67 1081.96,-85.81 1071.9,-89.11 1076.15,-94.67"/>
</g>
<!-- CoreflectiveSubuniverse_CoreflectiveSubuniverse_rect&#45;&gt;CoreflectiveSubuniverse_Build_CoreflectiveSubuniverse -->
<g id="edge26" class="edge">
<title>CoreflectiveSubuniverse_CoreflectiveSubuniverse_rect&#45;&gt;CoreflectiveSubuniverse_Build_CoreflectiveSubuniverse</title>
<path fill="none" stroke="black" d="M196.25,-209.28C251.77,-180.61 365.35,-121.95 426.62,-90.31"/>
<polygon fill="black" stroke="black" points="428.35,-93.35 435.63,-85.66 425.14,-87.13 428.35,-93.35"/>
</g>
<!-- CoreflectiveSubuniverse_CoreflectiveSubuniverse_rect&#45;&gt;CoreflectiveSubuniverse_CoreflectiveSubuniverse -->
<g id="edge27" class="edge">
<title>CoreflectiveSubuniverse_CoreflectiveSubuniverse_rect&#45;&gt;CoreflectiveSubuniverse_CoreflectiveSubuniverse</title>
<path fill="none" stroke="black" d="M247.42,-212C424.25,-182.47 835.35,-113.81 1016.08,-83.62"/>
<polygon fill="black" stroke="black" points="1016.8,-87.05 1026.08,-81.95 1015.64,-80.15 1016.8,-87.05"/>
</g>
</g>
</svg>
