<?xml version="1.0" encoding="UTF-8" standalone="no"?>
<!DOCTYPE svg PUBLIC "-//W3C//DTD SVG 1.1//EN"
 "http://www.w3.org/Graphics/SVG/1.1/DTD/svg11.dtd">
<!-- Generated by graphviz version 2.43.0 (0)
 -->
<!-- Title: HoTT_Homotopy_EncodeDecode Pages: 1 -->
<svg width="585pt" height="297pt"
 viewBox="0.00 0.00 585.00 296.50" xmlns="http://www.w3.org/2000/svg" xmlns:xlink="http://www.w3.org/1999/xlink">
<g id="graph0" class="graph" transform="scale(1 1) rotate(0) translate(4 292.5)">
<title>HoTT_Homotopy_EncodeDecode</title>
<polygon fill="white" stroke="transparent" points="-4,4 -4,-292.5 581,-292.5 581,4 -4,4"/>
<g id="clust1" class="cluster">
<title>cluster_EncodeDecode</title>
<polygon fill="#ffffc3" stroke="black" points="8,-12.89 8,-275.61 569,-275.61 569,-12.89 8,-12.89"/>
<text text-anchor="middle" x="69" y="-260.41" font-family="Times,serif" font-size="14.00">EncodeDecode</text>
</g>
<!-- EncodeDecode_encode_decode_trunc_loops -->
<g id="node1" class="node">
<title>EncodeDecode_encode_decode_trunc_loops</title>
<g id="a_node1"><a xlink:href="EncodeDecode.html#encode_decode_trunc_loops" xlink:title="encode_decode_trunc_loops">
<ellipse fill="#f070d1" stroke="black" cx="415" cy="-183.89" rx="138.38" ry="18"/>
<ellipse fill="none" stroke="black" cx="415" cy="-183.89" rx="142.38" ry="22"/>
<ellipse fill="none" stroke="black" cx="415" cy="-183.89" rx="146.38" ry="26"/>
<text text-anchor="middle" x="415" y="-180.19" font-family="Times,serif" font-size="14.00">encode_decode_trunc_loops</text>
</a>
</g>
</g>
<!-- EncodeDecode_encode_decode_trunc -->
<g id="node3" class="node">
<title>EncodeDecode_encode_decode_trunc</title>
<g id="a_node3"><a xlink:href="EncodeDecode.html#encode_decode_trunc" xlink:title="encode_decode_trunc">
<ellipse fill="#f070d1" stroke="black" cx="415" cy="-54.89" rx="109.68" ry="18"/>
<text text-anchor="middle" x="415" y="-51.19" font-family="Times,serif" font-size="14.00">encode_decode_trunc</text>
</a>
</g>
</g>
<!-- EncodeDecode_encode_decode_trunc_loops&#45;&gt;EncodeDecode_encode_decode_trunc -->
<g id="edge1" class="edge">
<title>EncodeDecode_encode_decode_trunc_loops&#45;&gt;EncodeDecode_encode_decode_trunc</title>
<path fill="none" stroke="black" d="M415,-157.8C415,-136.31 415,-105.41 415,-83.28"/>
<polygon fill="black" stroke="black" points="418.5,-83.2 415,-73.2 411.5,-83.2 418.5,-83.2"/>
</g>
<!-- EncodeDecode_encode_decode_loops -->
<g id="node2" class="node">
<title>EncodeDecode_encode_decode_loops</title>
<g id="a_node2"><a xlink:href="EncodeDecode.html#encode_decode_loops" xlink:title="encode_decode_loops">
<ellipse fill="#f070d1" stroke="black" cx="133" cy="-183.89" rx="109.37" ry="18"/>
<ellipse fill="none" stroke="black" cx="133" cy="-183.89" rx="113.37" ry="22"/>
<ellipse fill="none" stroke="black" cx="133" cy="-183.89" rx="117.38" ry="26"/>
<text text-anchor="middle" x="133" y="-180.19" font-family="Times,serif" font-size="14.00">encode_decode_loops</text>
</a>
</g>
</g>
<!-- EncodeDecode_encode_decode -->
<g id="node4" class="node">
<title>EncodeDecode_encode_decode</title>
<g id="a_node4"><a xlink:href="EncodeDecode.html#encode_decode" xlink:title="encode_decode">
<ellipse fill="#f070d1" stroke="black" cx="133" cy="-54.89" rx="80.69" ry="18"/>
<text text-anchor="middle" x="133" y="-51.19" font-family="Times,serif" font-size="14.00">encode_decode</text>
</a>
</g>
</g>
<!-- EncodeDecode_encode_decode_loops&#45;&gt;EncodeDecode_encode_decode -->
<g id="edge2" class="edge">
<title>EncodeDecode_encode_decode_loops&#45;&gt;EncodeDecode_encode_decode</title>
<path fill="none" stroke="black" d="M133,-157.8C133,-136.31 133,-105.41 133,-83.28"/>
<polygon fill="black" stroke="black" points="136.5,-83.2 133,-73.2 129.5,-83.2 136.5,-83.2"/>
</g>
</g>
</svg>
