<?xml version="1.0" encoding="UTF-8" standalone="no"?>
<!DOCTYPE svg PUBLIC "-//W3C//DTD SVG 1.1//EN"
 "http://www.w3.org/Graphics/SVG/1.1/DTD/svg11.dtd">
<!-- Generated by graphviz version 2.43.0 (0)
 -->
<!-- Title: HoTT_Diagrams_Span Pages: 1 -->
<svg width="366pt" height="187pt"
 viewBox="0.00 0.00 366.00 187.00" xmlns="http://www.w3.org/2000/svg" xmlns:xlink="http://www.w3.org/1999/xlink">
<g id="graph0" class="graph" transform="scale(1 1) rotate(0) translate(4 183)">
<title>HoTT_Diagrams_Span</title>
<polygon fill="white" stroke="transparent" points="-4,4 -4,-183 362,-183 362,4 -4,4"/>
<g id="clust1" class="cluster">
<title>cluster_Span</title>
<polygon fill="#ffffc3" stroke="black" points="17.9,-8 17.9,-171 340.1,-171 340.1,-8 17.9,-8"/>
<text text-anchor="middle" x="44.4" y="-155.8" font-family="Times,serif" font-size="14.00">Span</text>
</g>
<!-- Span_span -->
<g id="node1" class="node">
<title>Span_span</title>
<g id="a_node1"><a xlink:href="Span.html#span" xlink:title="span">
<ellipse fill="#f070d1" stroke="black" cx="179.06" cy="-114" rx="32.49" ry="18"/>
<ellipse fill="none" stroke="black" cx="179.06" cy="-114" rx="36.49" ry="22"/>
<ellipse fill="none" stroke="black" cx="179.06" cy="-114" rx="40.49" ry="26"/>
<text text-anchor="middle" x="179.06" y="-110.3" font-family="Times,serif" font-size="14.00">span</text>
</a>
</g>
</g>
<!-- Span_span_graph -->
<g id="node2" class="node">
<title>Span_span_graph</title>
<g id="a_node2"><a xlink:href="Span.html#span_graph" xlink:title="span_graph">
<ellipse fill="#f070d1" stroke="black" cx="179.06" cy="-34" rx="64.19" ry="18"/>
<text text-anchor="middle" x="179.06" y="-30.3" font-family="Times,serif" font-size="14.00">span_graph</text>
</a>
</g>
</g>
<!-- Span_span&#45;&gt;Span_span_graph -->
<g id="edge1" class="edge">
<title>Span_span&#45;&gt;Span_span_graph</title>
<path fill="none" stroke="black" d="M179.06,-87.89C179.06,-79.84 179.06,-70.88 179.06,-62.66"/>
<polygon fill="black" stroke="black" points="182.56,-62.41 179.06,-52.41 175.56,-62.41 182.56,-62.41"/>
</g>
</g>
</svg>
