<?xml version="1.0" encoding="UTF-8" standalone="no"?>
<!DOCTYPE svg PUBLIC "-//W3C//DTD SVG 1.1//EN"
 "http://www.w3.org/Graphics/SVG/1.1/DTD/svg11.dtd">
<!-- Generated by graphviz version 2.43.0 (0)
 -->
<!-- Title: HoTT_Homotopy_HSpace_Moduli Pages: 1 -->
<svg width="1558pt" height="783pt"
 viewBox="0.00 0.00 1558.00 783.00" xmlns="http://www.w3.org/2000/svg" xmlns:xlink="http://www.w3.org/1999/xlink">
<g id="graph0" class="graph" transform="scale(1 1) rotate(0) translate(4 779)">
<title>HoTT_Homotopy_HSpace_Moduli</title>
<polygon fill="white" stroke="transparent" points="-4,4 -4,-779 1554,-779 1554,4 -4,4"/>
<g id="clust1" class="cluster">
<title>cluster_Moduli</title>
<polygon fill="#ffffc3" stroke="black" points="8,-15.7 8,-759.3 1542,-759.3 1542,-15.7 8,-15.7"/>
<text text-anchor="middle" x="41" y="-744.1" font-family="Times,serif" font-size="14.00">Moduli</text>
</g>
<!-- Moduli_iscohhspace_hspace -->
<g id="node1" class="node">
<title>Moduli_iscohhspace_hspace</title>
<g id="a_node1"><a xlink:href="Moduli.html#iscohhspace_hspace" xlink:title="iscohhspace_hspace">
<ellipse fill="#f070d1" stroke="black" cx="1423" cy="-647.7" rx="103.19" ry="18"/>
<ellipse fill="none" stroke="black" cx="1423" cy="-647.7" rx="107.19" ry="22"/>
<ellipse fill="none" stroke="black" cx="1423" cy="-647.7" rx="111.18" ry="26"/>
<text text-anchor="middle" x="1423" y="-644" font-family="Times,serif" font-size="14.00">iscohhspace_hspace</text>
</a>
</g>
</g>
<!-- Moduli_iscohhspace_hspace__beta_mu -->
<g id="node2" class="node">
<title>Moduli_iscohhspace_hspace__beta_mu</title>
<g id="a_node2"><a xlink:href="Moduli.html#iscohhspace_hspace'_beta_mu" xlink:title="iscohhspace_hspace&#39;_beta_mu">
<ellipse fill="#f070d1" stroke="black" cx="1136" cy="-647.7" rx="149.47" ry="18"/>
<ellipse fill="none" stroke="black" cx="1136" cy="-647.7" rx="153.47" ry="22"/>
<ellipse fill="none" stroke="black" cx="1136" cy="-647.7" rx="157.47" ry="26"/>
<text text-anchor="middle" x="1136" y="-644" font-family="Times,serif" font-size="14.00">iscohhspace_hspace&#39;_beta_mu</text>
</a>
</g>
</g>
<!-- Moduli_iscohhspace_hspace_ -->
<g id="node3" class="node">
<title>Moduli_iscohhspace_hspace_</title>
<g id="a_node3"><a xlink:href="Moduli.html#iscohhspace_hspace'" xlink:title="iscohhspace_hspace&#39;">
<ellipse fill="#f070d1" stroke="black" cx="1428" cy="-490.7" rx="105.88" ry="18"/>
<text text-anchor="middle" x="1428" y="-487" font-family="Times,serif" font-size="14.00">iscohhspace_hspace&#39;</text>
</a>
</g>
</g>
<!-- Moduli_iscohhspace_hspace__beta_mu&#45;&gt;Moduli_iscohhspace_hspace_ -->
<g id="edge1" class="edge">
<title>Moduli_iscohhspace_hspace__beta_mu&#45;&gt;Moduli_iscohhspace_hspace_</title>
<path fill="none" stroke="black" d="M1181.3,-622.65C1238.09,-592.5 1334.5,-541.33 1388.45,-512.69"/>
<polygon fill="black" stroke="black" points="1390.17,-515.74 1397.37,-507.96 1386.89,-509.55 1390.17,-515.74"/>
</g>
<!-- Moduli_iscoherent_homogeneous -->
<g id="node4" class="node">
<title>Moduli_iscoherent_homogeneous</title>
<g id="a_node4"><a xlink:href="Moduli.html#iscoherent_homogeneous" xlink:title="iscoherent_homogeneous">
<ellipse fill="#f070d1" stroke="black" cx="1406" cy="-349.7" rx="128.08" ry="18"/>
<text text-anchor="middle" x="1406" y="-346" font-family="Times,serif" font-size="14.00">iscoherent_homogeneous</text>
</a>
</g>
</g>
<!-- Moduli_iscohhspace_hspace_&#45;&gt;Moduli_iscoherent_homogeneous -->
<g id="edge2" class="edge">
<title>Moduli_iscohhspace_hspace_&#45;&gt;Moduli_iscoherent_homogeneous</title>
<path fill="none" stroke="black" d="M1425.3,-472.65C1421.56,-449 1414.75,-405.96 1410.3,-377.85"/>
<polygon fill="black" stroke="black" points="1413.74,-377.21 1408.72,-367.88 1406.83,-378.3 1413.74,-377.21"/>
</g>
<!-- Moduli_internal_paths_rew_dep -->
<g id="node5" class="node">
<title>Moduli_internal_paths_rew_dep</title>
<g id="a_node5"><a xlink:href="Moduli.html#internal_paths_rew_dep" xlink:title="internal_paths_rew_dep">
<ellipse fill="#f070d1" stroke="black" cx="1406" cy="-207.7" rx="120.78" ry="18"/>
<text text-anchor="middle" x="1406" y="-204" font-family="Times,serif" font-size="14.00">internal_paths_rew_dep</text>
</a>
</g>
</g>
<!-- Moduli_iscoherent_homogeneous&#45;&gt;Moduli_internal_paths_rew_dep -->
<g id="edge3" class="edge">
<title>Moduli_iscoherent_homogeneous&#45;&gt;Moduli_internal_paths_rew_dep</title>
<path fill="none" stroke="black" d="M1406,-331.53C1406,-307.7 1406,-264.35 1406,-236.04"/>
<polygon fill="black" stroke="black" points="1409.5,-236 1406,-226 1402.5,-236 1409.5,-236"/>
</g>
<!-- Moduli_iscohhspace_homogeneous -->
<g id="node6" class="node">
<title>Moduli_iscohhspace_homogeneous</title>
<g id="a_node6"><a xlink:href="Moduli.html#iscohhspace_homogeneous" xlink:title="iscohhspace_homogeneous">
<ellipse fill="#f070d1" stroke="black" cx="817" cy="-647.7" rx="135.37" ry="18"/>
<ellipse fill="none" stroke="black" cx="817" cy="-647.7" rx="139.37" ry="22"/>
<ellipse fill="none" stroke="black" cx="817" cy="-647.7" rx="143.38" ry="26"/>
<text text-anchor="middle" x="817" y="-644" font-family="Times,serif" font-size="14.00">iscohhspace_homogeneous</text>
</a>
</g>
</g>
<!-- Moduli_equiv_iscohhspace_ptd_action -->
<g id="node7" class="node">
<title>Moduli_equiv_iscohhspace_ptd_action</title>
<g id="a_node7"><a xlink:href="Moduli.html#equiv_iscohhspace_ptd_action" xlink:title="equiv_iscohhspace_ptd_action">
<ellipse fill="#f070d1" stroke="black" cx="1155" cy="-490.7" rx="149.47" ry="18"/>
<text text-anchor="middle" x="1155" y="-487" font-family="Times,serif" font-size="14.00">equiv_iscohhspace_ptd_action</text>
</a>
</g>
</g>
<!-- Moduli_iscohhspace_homogeneous&#45;&gt;Moduli_equiv_iscohhspace_ptd_action -->
<g id="edge4" class="edge">
<title>Moduli_iscohhspace_homogeneous&#45;&gt;Moduli_equiv_iscohhspace_ptd_action</title>
<path fill="none" stroke="black" d="M867.97,-623.32C933.57,-593.24 1046.58,-541.42 1109.44,-512.59"/>
<polygon fill="black" stroke="black" points="1111.09,-515.68 1118.72,-508.34 1108.17,-509.32 1111.09,-515.68"/>
</g>
<!-- Moduli_equiv_cohhspace_ppmap -->
<g id="node8" class="node">
<title>Moduli_equiv_cohhspace_ppmap</title>
<g id="a_node8"><a xlink:href="Moduli.html#equiv_cohhspace_ppmap" xlink:title="equiv_cohhspace_ppmap">
<ellipse fill="#f070d1" stroke="black" cx="523" cy="-647.7" rx="124.59" ry="18"/>
<ellipse fill="none" stroke="black" cx="523" cy="-647.7" rx="128.58" ry="22"/>
<ellipse fill="none" stroke="black" cx="523" cy="-647.7" rx="132.58" ry="26"/>
<text text-anchor="middle" x="523" y="-644" font-family="Times,serif" font-size="14.00">equiv_cohhspace_ppmap</text>
</a>
</g>
</g>
<!-- Moduli_hspace_ev_trivialization -->
<g id="node9" class="node">
<title>Moduli_hspace_ev_trivialization</title>
<g id="a_node9"><a xlink:href="Moduli.html#hspace_ev_trivialization" xlink:title="hspace_ev_trivialization">
<ellipse fill="#f070d1" stroke="black" cx="595" cy="-490.7" rx="121.58" ry="18"/>
<text text-anchor="middle" x="595" y="-487" font-family="Times,serif" font-size="14.00">hspace_ev_trivialization</text>
</a>
</g>
</g>
<!-- Moduli_equiv_cohhspace_ppmap&#45;&gt;Moduli_hspace_ev_trivialization -->
<g id="edge5" class="edge">
<title>Moduli_equiv_cohhspace_ppmap&#45;&gt;Moduli_hspace_ev_trivialization</title>
<path fill="none" stroke="black" d="M534.57,-621.79C547.78,-593.35 569.31,-547 582.79,-517.98"/>
<polygon fill="black" stroke="black" points="585.99,-519.4 587.03,-508.86 579.64,-516.45 585.99,-519.4"/>
</g>
<!-- Moduli_equiv_iscohhspace_psect -->
<g id="node13" class="node">
<title>Moduli_equiv_iscohhspace_psect</title>
<g id="a_node13"><a xlink:href="Moduli.html#equiv_iscohhspace_psect" xlink:title="equiv_iscohhspace_psect">
<ellipse fill="#f070d1" stroke="black" cx="861" cy="-490.7" rx="126.18" ry="18"/>
<text text-anchor="middle" x="861" y="-487" font-family="Times,serif" font-size="14.00">equiv_iscohhspace_psect</text>
</a>
</g>
</g>
<!-- Moduli_equiv_cohhspace_ppmap&#45;&gt;Moduli_equiv_iscohhspace_psect -->
<g id="edge6" class="edge">
<title>Moduli_equiv_cohhspace_ppmap&#45;&gt;Moduli_equiv_iscohhspace_psect</title>
<path fill="none" stroke="black" d="M573.6,-623.49C639.29,-593.37 752.94,-541.25 815.84,-512.4"/>
<polygon fill="black" stroke="black" points="817.48,-515.5 825.11,-508.15 814.57,-509.14 817.48,-515.5"/>
</g>
<!-- Moduli_pequiv_map_pmap_hspace -->
<g id="node10" class="node">
<title>Moduli_pequiv_map_pmap_hspace</title>
<g id="a_node10"><a xlink:href="Moduli.html#pequiv_map_pmap_hspace" xlink:title="pequiv_map_pmap_hspace">
<ellipse fill="#f070d1" stroke="black" cx="595" cy="-349.7" rx="133.48" ry="18"/>
<text text-anchor="middle" x="595" y="-346" font-family="Times,serif" font-size="14.00">pequiv_map_pmap_hspace</text>
</a>
</g>
</g>
<!-- Moduli_hspace_ev_trivialization&#45;&gt;Moduli_pequiv_map_pmap_hspace -->
<g id="edge7" class="edge">
<title>Moduli_hspace_ev_trivialization&#45;&gt;Moduli_pequiv_map_pmap_hspace</title>
<path fill="none" stroke="black" d="M595,-472.65C595,-449.1 595,-406.34 595,-378.22"/>
<polygon fill="black" stroke="black" points="598.5,-377.88 595,-367.88 591.5,-377.88 598.5,-377.88"/>
</g>
<!-- Moduli_equiv_map_pmap_hspace -->
<g id="node11" class="node">
<title>Moduli_equiv_map_pmap_hspace</title>
<g id="a_node11"><a xlink:href="Moduli.html#equiv_map_pmap_hspace" xlink:title="equiv_map_pmap_hspace">
<ellipse fill="#f070d1" stroke="black" cx="595" cy="-207.7" rx="127.28" ry="18"/>
<text text-anchor="middle" x="595" y="-204" font-family="Times,serif" font-size="14.00">equiv_map_pmap_hspace</text>
</a>
</g>
</g>
<!-- Moduli_pequiv_map_pmap_hspace&#45;&gt;Moduli_equiv_map_pmap_hspace -->
<g id="edge8" class="edge">
<title>Moduli_pequiv_map_pmap_hspace&#45;&gt;Moduli_equiv_map_pmap_hspace</title>
<path fill="none" stroke="black" d="M595,-331.53C595,-307.7 595,-264.35 595,-236.04"/>
<polygon fill="black" stroke="black" points="598.5,-236 595,-226 591.5,-236 598.5,-236"/>
</g>
<!-- Moduli_equiv_pmap_hspace -->
<g id="node12" class="node">
<title>Moduli_equiv_pmap_hspace</title>
<g id="a_node12"><a xlink:href="Moduli.html#equiv_pmap_hspace" xlink:title="equiv_pmap_hspace">
<ellipse fill="#f070d1" stroke="black" cx="595" cy="-66.7" rx="102.88" ry="18"/>
<text text-anchor="middle" x="595" y="-63" font-family="Times,serif" font-size="14.00">equiv_pmap_hspace</text>
</a>
</g>
</g>
<!-- Moduli_equiv_map_pmap_hspace&#45;&gt;Moduli_equiv_pmap_hspace -->
<g id="edge9" class="edge">
<title>Moduli_equiv_map_pmap_hspace&#45;&gt;Moduli_equiv_pmap_hspace</title>
<path fill="none" stroke="black" d="M595,-189.65C595,-166.1 595,-123.34 595,-95.22"/>
<polygon fill="black" stroke="black" points="598.5,-94.88 595,-84.88 591.5,-94.88 598.5,-94.88"/>
</g>
<!-- Moduli_equiv_path_ishspace -->
<g id="node14" class="node">
<title>Moduli_equiv_path_ishspace</title>
<g id="a_node14"><a xlink:href="Moduli.html#equiv_path_ishspace" xlink:title="equiv_path_ishspace">
<ellipse fill="#f070d1" stroke="black" cx="194" cy="-647.7" rx="105.89" ry="18"/>
<ellipse fill="none" stroke="black" cx="194" cy="-647.7" rx="109.88" ry="22"/>
<ellipse fill="none" stroke="black" cx="194" cy="-647.7" rx="113.88" ry="26"/>
<text text-anchor="middle" x="194" y="-644" font-family="Times,serif" font-size="14.00">equiv_path_ishspace</text>
</a>
</g>
</g>
<!-- Moduli_transport_binop_lr_id -->
<g id="node15" class="node">
<title>Moduli_transport_binop_lr_id</title>
<g id="a_node15"><a xlink:href="Moduli.html#transport_binop_lr_id" xlink:title="transport_binop_lr_id">
<ellipse fill="#f070d1" stroke="black" cx="126" cy="-490.7" rx="109.68" ry="18"/>
<text text-anchor="middle" x="126" y="-487" font-family="Times,serif" font-size="14.00">transport_binop_lr_id</text>
</a>
</g>
</g>
<!-- Moduli_equiv_path_ishspace&#45;&gt;Moduli_transport_binop_lr_id -->
<g id="edge10" class="edge">
<title>Moduli_equiv_path_ishspace&#45;&gt;Moduli_transport_binop_lr_id</title>
<path fill="none" stroke="black" d="M183.07,-621.79C170.65,-593.47 150.44,-547.4 137.7,-518.36"/>
<polygon fill="black" stroke="black" points="140.75,-516.61 133.53,-508.86 134.34,-519.42 140.75,-516.61"/>
</g>
<!-- Moduli_path_ishspace_type -->
<g id="node16" class="node">
<title>Moduli_path_ishspace_type</title>
<g id="a_node16"><a xlink:href="Moduli.html#path_ishspace_type" xlink:title="path_ishspace_type">
<ellipse fill="#f070d1" stroke="black" cx="355" cy="-490.7" rx="100.98" ry="18"/>
<text text-anchor="middle" x="355" y="-487" font-family="Times,serif" font-size="14.00">path_ishspace_type</text>
</a>
</g>
</g>
<!-- Moduli_equiv_path_ishspace&#45;&gt;Moduli_path_ishspace_type -->
<g id="edge11" class="edge">
<title>Moduli_equiv_path_ishspace&#45;&gt;Moduli_path_ishspace_type</title>
<path fill="none" stroke="black" d="M219.51,-622.14C249.79,-592.99 299.95,-544.7 330,-515.76"/>
<polygon fill="black" stroke="black" points="332.77,-517.96 337.55,-508.5 327.92,-512.91 332.77,-517.96"/>
</g>
</g>
</svg>
