<?xml version="1.0" encoding="UTF-8" standalone="no"?>
<!DOCTYPE svg PUBLIC "-//W3C//DTD SVG 1.1//EN"
 "http://www.w3.org/Graphics/SVG/1.1/DTD/svg11.dtd">
<!-- Generated by graphviz version 2.43.0 (0)
 -->
<!-- Title: HoTT_Spaces_Finite_FinNat Pages: 1 -->
<svg width="1118pt" height="563pt"
 viewBox="0.00 0.00 1118.00 563.00" xmlns="http://www.w3.org/2000/svg" xmlns:xlink="http://www.w3.org/1999/xlink">
<g id="graph0" class="graph" transform="scale(1 1) rotate(0) translate(4 559)">
<title>HoTT_Spaces_Finite_FinNat</title>
<polygon fill="white" stroke="transparent" points="-4,4 -4,-559 1114,-559 1114,4 -4,4"/>
<g id="clust1" class="cluster">
<title>cluster_FinNat</title>
<polygon fill="#ffffc3" stroke="black" points="8.83,-8 8.83,-547 1101.17,-547 1101.17,-8 8.83,-8"/>
<text text-anchor="middle" x="41.83" y="-531.8" font-family="Times,serif" font-size="14.00">FinNat</text>
</g>
<!-- FinNat_equiv_fin_finnat -->
<g id="node1" class="node">
<title>FinNat_equiv_fin_finnat</title>
<g id="a_node1"><a xlink:href="FinNat.html#equiv_fin_finnat" xlink:title="equiv_fin_finnat">
<ellipse fill="#f070d1" stroke="black" cx="825.96" cy="-490" rx="83.37" ry="18"/>
<ellipse fill="none" stroke="black" cx="825.96" cy="-490" rx="87.38" ry="22"/>
<ellipse fill="none" stroke="black" cx="825.96" cy="-490" rx="91.39" ry="26"/>
<text text-anchor="middle" x="825.96" y="-486.3" font-family="Times,serif" font-size="14.00">equiv_fin_finnat</text>
</a>
</g>
</g>
<!-- FinNat_path_fin_to_finnat_to_fin -->
<g id="node2" class="node">
<title>FinNat_path_fin_to_finnat_to_fin</title>
<g id="a_node2"><a xlink:href="FinNat.html#path_fin_to_finnat_to_fin" xlink:title="path_fin_to_finnat_to_fin">
<ellipse fill="#f070d1" stroke="black" cx="497.96" cy="-410" rx="122.38" ry="18"/>
<text text-anchor="middle" x="497.96" y="-406.3" font-family="Times,serif" font-size="14.00">path_fin_to_finnat_to_fin</text>
</a>
</g>
</g>
<!-- FinNat_equiv_fin_finnat&#45;&gt;FinNat_path_fin_to_finnat_to_fin -->
<g id="edge1" class="edge">
<title>FinNat_equiv_fin_finnat&#45;&gt;FinNat_path_fin_to_finnat_to_fin</title>
<path fill="none" stroke="black" d="M757.6,-472.74C702.43,-459.62 625.06,-441.23 569.15,-427.93"/>
<polygon fill="black" stroke="black" points="569.86,-424.5 559.32,-425.59 568.24,-431.31 569.86,-424.5"/>
</g>
<!-- FinNat_path_finnat_to_fin_to_finnat -->
<g id="node3" class="node">
<title>FinNat_path_finnat_to_fin_to_finnat</title>
<g id="a_node3"><a xlink:href="FinNat.html#path_finnat_to_fin_to_finnat" xlink:title="path_finnat_to_fin_to_finnat">
<ellipse fill="#f070d1" stroke="black" cx="902.96" cy="-250" rx="137.58" ry="18"/>
<text text-anchor="middle" x="902.96" y="-246.3" font-family="Times,serif" font-size="14.00">path_finnat_to_fin_to_finnat</text>
</a>
</g>
</g>
<!-- FinNat_equiv_fin_finnat&#45;&gt;FinNat_path_finnat_to_fin_to_finnat -->
<g id="edge2" class="edge">
<title>FinNat_equiv_fin_finnat&#45;&gt;FinNat_path_finnat_to_fin_to_finnat</title>
<path fill="none" stroke="black" d="M874.32,-467.76C916.44,-446.33 974.76,-408.82 1000.96,-356 1011.23,-335.3 1012.79,-323.85 1000.96,-304 992.47,-289.76 978.68,-279.11 964.09,-271.25"/>
<polygon fill="black" stroke="black" points="965.46,-268.02 954.94,-266.71 962.34,-274.29 965.46,-268.02"/>
</g>
<!-- FinNat_path_finnat_to_fin_last -->
<g id="node4" class="node">
<title>FinNat_path_finnat_to_fin_last</title>
<g id="a_node4"><a xlink:href="FinNat.html#path_finnat_to_fin_last" xlink:title="path_finnat_to_fin_last">
<ellipse fill="#f070d1" stroke="black" cx="142.96" cy="-250" rx="114.28" ry="18"/>
<text text-anchor="middle" x="142.96" y="-246.3" font-family="Times,serif" font-size="14.00">path_finnat_to_fin_last</text>
</a>
</g>
</g>
<!-- FinNat_path_fin_to_finnat_to_fin&#45;&gt;FinNat_path_finnat_to_fin_last -->
<g id="edge3" class="edge">
<title>FinNat_path_fin_to_finnat_to_fin&#45;&gt;FinNat_path_finnat_to_fin_last</title>
<path fill="none" stroke="black" d="M399.36,-399.31C328.57,-390.8 240.48,-376.55 209.96,-356 181.89,-337.11 163.11,-302.09 152.74,-277.72"/>
<polygon fill="black" stroke="black" points="155.93,-276.27 148.93,-268.32 149.44,-278.9 155.93,-276.27"/>
</g>
<!-- FinNat_path_finnat_to_fin_incl -->
<g id="node5" class="node">
<title>FinNat_path_finnat_to_fin_incl</title>
<g id="a_node5"><a xlink:href="FinNat.html#path_finnat_to_fin_incl" xlink:title="path_finnat_to_fin_incl">
<ellipse fill="#f070d1" stroke="black" cx="332.96" cy="-330" rx="113.98" ry="18"/>
<text text-anchor="middle" x="332.96" y="-326.3" font-family="Times,serif" font-size="14.00">path_finnat_to_fin_incl</text>
</a>
</g>
</g>
<!-- FinNat_path_fin_to_finnat_to_fin&#45;&gt;FinNat_path_finnat_to_fin_incl -->
<g id="edge4" class="edge">
<title>FinNat_path_fin_to_finnat_to_fin&#45;&gt;FinNat_path_finnat_to_fin_incl</title>
<path fill="none" stroke="black" d="M463.37,-392.65C438.09,-380.7 403.64,-364.41 376.49,-351.58"/>
<polygon fill="black" stroke="black" points="377.76,-348.31 367.22,-347.2 374.76,-354.63 377.76,-348.31"/>
</g>
<!-- FinNat_fin_to_finnat -->
<g id="node10" class="node">
<title>FinNat_fin_to_finnat</title>
<g id="a_node10"><a xlink:href="FinNat.html#fin_to_finnat" xlink:title="fin_to_finnat">
<ellipse fill="#f070d1" stroke="black" cx="823.96" cy="-106" rx="67.69" ry="18"/>
<text text-anchor="middle" x="823.96" y="-102.3" font-family="Times,serif" font-size="14.00">fin_to_finnat</text>
</a>
</g>
</g>
<!-- FinNat_path_fin_to_finnat_to_fin&#45;&gt;FinNat_fin_to_finnat -->
<g id="edge5" class="edge">
<title>FinNat_path_fin_to_finnat_to_fin&#45;&gt;FinNat_fin_to_finnat</title>
<path fill="none" stroke="black" d="M619.95,-408.82C748.45,-406.44 940.42,-395.99 1000.96,-356 1077.53,-305.41 1123.49,-231.5 1065.96,-160 1045.1,-134.08 961.06,-120.13 897.82,-113.15"/>
<polygon fill="black" stroke="black" points="898.18,-109.67 887.87,-112.09 897.44,-116.63 898.18,-109.67"/>
</g>
<!-- FinNat_path_fin_to_finnat_fin_zero -->
<g id="node7" class="node">
<title>FinNat_path_fin_to_finnat_fin_zero</title>
<g id="a_node7"><a xlink:href="FinNat.html#path_fin_to_finnat_fin_zero" xlink:title="path_fin_to_finnat_fin_zero">
<ellipse fill="#f070d1" stroke="black" cx="923.96" cy="-178" rx="133.48" ry="18"/>
<text text-anchor="middle" x="923.96" y="-174.3" font-family="Times,serif" font-size="14.00">path_fin_to_finnat_fin_zero</text>
</a>
</g>
</g>
<!-- FinNat_path_finnat_to_fin_to_finnat&#45;&gt;FinNat_path_fin_to_finnat_fin_zero -->
<g id="edge6" class="edge">
<title>FinNat_path_finnat_to_fin_to_finnat&#45;&gt;FinNat_path_fin_to_finnat_fin_zero</title>
<path fill="none" stroke="black" d="M908.15,-231.7C910.49,-223.9 913.31,-214.51 915.91,-205.83"/>
<polygon fill="black" stroke="black" points="919.31,-206.69 918.83,-196.1 912.6,-204.68 919.31,-206.69"/>
</g>
<!-- FinNat_path_fin_to_finnat_fsucc -->
<g id="node8" class="node">
<title>FinNat_path_fin_to_finnat_fsucc</title>
<g id="a_node8"><a xlink:href="FinNat.html#path_fin_to_finnat_fsucc" xlink:title="path_fin_to_finnat_fsucc">
<ellipse fill="#f070d1" stroke="black" cx="622.96" cy="-178" rx="120.78" ry="18"/>
<text text-anchor="middle" x="622.96" y="-174.3" font-family="Times,serif" font-size="14.00">path_fin_to_finnat_fsucc</text>
</a>
</g>
</g>
<!-- FinNat_path_finnat_to_fin_to_finnat&#45;&gt;FinNat_path_fin_to_finnat_fsucc -->
<g id="edge7" class="edge">
<title>FinNat_path_finnat_to_fin_to_finnat&#45;&gt;FinNat_path_fin_to_finnat_fsucc</title>
<path fill="none" stroke="black" d="M842.2,-233.81C798,-222.76 738.08,-207.78 692.05,-196.27"/>
<polygon fill="black" stroke="black" points="692.7,-192.83 682.15,-193.8 691.01,-199.62 692.7,-192.83"/>
</g>
<!-- FinNat_finnat_to_fin -->
<g id="node9" class="node">
<title>FinNat_finnat_to_fin</title>
<g id="a_node9"><a xlink:href="FinNat.html#finnat_to_fin" xlink:title="finnat_to_fin">
<ellipse fill="#f070d1" stroke="black" cx="136.96" cy="-178" rx="67.69" ry="18"/>
<text text-anchor="middle" x="136.96" y="-174.3" font-family="Times,serif" font-size="14.00">finnat_to_fin</text>
</a>
</g>
</g>
<!-- FinNat_path_finnat_to_fin_to_finnat&#45;&gt;FinNat_finnat_to_fin -->
<g id="edge8" class="edge">
<title>FinNat_path_finnat_to_fin_to_finnat&#45;&gt;FinNat_finnat_to_fin</title>
<path fill="none" stroke="black" d="M794.98,-238.75C770.02,-236.46 743.57,-234.09 718.96,-232 512.42,-214.46 459.97,-218.92 253.96,-196 237.57,-194.18 219.95,-191.82 203.48,-189.45"/>
<polygon fill="black" stroke="black" points="203.8,-185.96 193.39,-187.98 202.78,-192.89 203.8,-185.96"/>
</g>
<!-- FinNat_path_finnat_to_fin_last&#45;&gt;FinNat_finnat_to_fin -->
<g id="edge9" class="edge">
<title>FinNat_path_finnat_to_fin_last&#45;&gt;FinNat_finnat_to_fin</title>
<path fill="none" stroke="black" d="M141.48,-231.7C140.81,-223.98 140.02,-214.71 139.28,-206.11"/>
<polygon fill="black" stroke="black" points="142.77,-205.77 138.42,-196.1 135.79,-206.37 142.77,-205.77"/>
</g>
<!-- FinNat_last_finnat -->
<g id="node16" class="node">
<title>FinNat_last_finnat</title>
<g id="a_node16"><a xlink:href="FinNat.html#last_finnat" xlink:title="last_finnat">
<ellipse fill="#f070d1" stroke="black" cx="82.96" cy="-106" rx="59.29" ry="18"/>
<text text-anchor="middle" x="82.96" y="-102.3" font-family="Times,serif" font-size="14.00">last_finnat</text>
</a>
</g>
</g>
<!-- FinNat_path_finnat_to_fin_last&#45;&gt;FinNat_last_finnat -->
<g id="edge10" class="edge">
<title>FinNat_path_finnat_to_fin_last&#45;&gt;FinNat_last_finnat</title>
<path fill="none" stroke="black" d="M86.05,-234.28C66.74,-226.27 47.22,-214.14 35.96,-196 22.57,-174.44 39.51,-148.69 56.67,-130.45"/>
<polygon fill="black" stroke="black" points="59.38,-132.69 63.94,-123.13 54.41,-127.75 59.38,-132.69"/>
</g>
<!-- FinNat_path_finnat_to_fin_succ -->
<g id="node6" class="node">
<title>FinNat_path_finnat_to_fin_succ</title>
<g id="a_node6"><a xlink:href="FinNat.html#path_finnat_to_fin_succ" xlink:title="path_finnat_to_fin_succ">
<ellipse fill="#f070d1" stroke="black" cx="440.96" cy="-250" rx="117.78" ry="18"/>
<text text-anchor="middle" x="440.96" y="-246.3" font-family="Times,serif" font-size="14.00">path_finnat_to_fin_succ</text>
</a>
</g>
</g>
<!-- FinNat_path_finnat_to_fin_incl&#45;&gt;FinNat_path_finnat_to_fin_succ -->
<g id="edge11" class="edge">
<title>FinNat_path_finnat_to_fin_incl&#45;&gt;FinNat_path_finnat_to_fin_succ</title>
<path fill="none" stroke="black" d="M356.13,-312.27C371.64,-301.06 392.27,-286.16 409.3,-273.87"/>
<polygon fill="black" stroke="black" points="411.77,-276.4 417.83,-267.71 407.67,-270.72 411.77,-276.4"/>
</g>
<!-- FinNat_finnat_ind -->
<g id="node14" class="node">
<title>FinNat_finnat_ind</title>
<g id="a_node14"><a xlink:href="FinNat.html#finnat_ind" xlink:title="finnat_ind">
<ellipse fill="#f070d1" stroke="black" cx="652.96" cy="-250" rx="56.59" ry="18"/>
<text text-anchor="middle" x="652.96" y="-246.3" font-family="Times,serif" font-size="14.00">finnat_ind</text>
</a>
</g>
</g>
<!-- FinNat_path_finnat_to_fin_incl&#45;&gt;FinNat_finnat_ind -->
<g id="edge12" class="edge">
<title>FinNat_path_finnat_to_fin_incl&#45;&gt;FinNat_finnat_ind</title>
<path fill="none" stroke="black" d="M392.02,-314.6C451.48,-300.11 542.37,-277.96 599.68,-263.99"/>
<polygon fill="black" stroke="black" points="600.73,-267.33 609.62,-261.56 599.08,-260.53 600.73,-267.33"/>
</g>
<!-- FinNat_incl_finnat -->
<g id="node15" class="node">
<title>FinNat_incl_finnat</title>
<g id="a_node15"><a xlink:href="FinNat.html#incl_finnat" xlink:title="incl_finnat">
<ellipse fill="#f070d1" stroke="black" cx="232.96" cy="-106" rx="58.49" ry="18"/>
<text text-anchor="middle" x="232.96" y="-102.3" font-family="Times,serif" font-size="14.00">incl_finnat</text>
</a>
</g>
</g>
<!-- FinNat_path_finnat_to_fin_incl&#45;&gt;FinNat_incl_finnat -->
<g id="edge13" class="edge">
<title>FinNat_path_finnat_to_fin_incl&#45;&gt;FinNat_incl_finnat</title>
<path fill="none" stroke="black" d="M326.14,-311.81C316.35,-289.55 296.12,-251.32 265.96,-232 187.69,-181.87 119.76,-267.15 59.96,-196 49.66,-183.75 50.44,-172.86 59.96,-160 67.28,-150.1 130.57,-132.43 178.5,-120.24"/>
<polygon fill="black" stroke="black" points="179.63,-123.56 188.47,-117.72 177.91,-116.77 179.63,-123.56"/>
</g>
<!-- FinNat_path_finnat_to_fin_succ&#45;&gt;FinNat_finnat_to_fin -->
<g id="edge14" class="edge">
<title>FinNat_path_finnat_to_fin_succ&#45;&gt;FinNat_finnat_to_fin</title>
<path fill="none" stroke="black" d="M378.71,-234.67C325.34,-222.38 248.99,-204.8 196.44,-192.7"/>
<polygon fill="black" stroke="black" points="197.12,-189.26 186.59,-190.43 195.55,-196.08 197.12,-189.26"/>
</g>
<!-- FinNat_succ_finnat -->
<g id="node18" class="node">
<title>FinNat_succ_finnat</title>
<g id="a_node18"><a xlink:href="FinNat.html#succ_finnat" xlink:title="succ_finnat">
<ellipse fill="#f070d1" stroke="black" cx="406.96" cy="-106" rx="62.29" ry="18"/>
<text text-anchor="middle" x="406.96" y="-102.3" font-family="Times,serif" font-size="14.00">succ_finnat</text>
</a>
</g>
</g>
<!-- FinNat_path_finnat_to_fin_succ&#45;&gt;FinNat_succ_finnat -->
<g id="edge15" class="edge">
<title>FinNat_path_finnat_to_fin_succ&#45;&gt;FinNat_succ_finnat</title>
<path fill="none" stroke="black" d="M362.56,-236.5C317.62,-227.56 267.52,-213.93 253.96,-196 224.39,-156.88 291.12,-131.95 345.6,-118.72"/>
<polygon fill="black" stroke="black" points="346.66,-122.07 355.6,-116.39 345.07,-115.25 346.66,-122.07"/>
</g>
<!-- FinNat_path_fin_to_finnat_fin_zero&#45;&gt;FinNat_fin_to_finnat -->
<g id="edge16" class="edge">
<title>FinNat_path_fin_to_finnat_fin_zero&#45;&gt;FinNat_fin_to_finnat</title>
<path fill="none" stroke="black" d="M900.01,-160.23C886.7,-150.92 869.99,-139.22 855.62,-129.16"/>
<polygon fill="black" stroke="black" points="857.23,-126.02 847.03,-123.15 853.21,-131.75 857.23,-126.02"/>
</g>
<!-- FinNat_zero_finnat -->
<g id="node19" class="node">
<title>FinNat_zero_finnat</title>
<g id="a_node19"><a xlink:href="FinNat.html#zero_finnat" xlink:title="zero_finnat">
<ellipse fill="#f070d1" stroke="black" cx="563.96" cy="-106" rx="61.99" ry="18"/>
<text text-anchor="middle" x="563.96" y="-102.3" font-family="Times,serif" font-size="14.00">zero_finnat</text>
</a>
</g>
</g>
<!-- FinNat_path_fin_to_finnat_fin_zero&#45;&gt;FinNat_zero_finnat -->
<g id="edge17" class="edge">
<title>FinNat_path_fin_to_finnat_fin_zero&#45;&gt;FinNat_zero_finnat</title>
<path fill="none" stroke="black" d="M851.11,-162.83C784.25,-149.84 686.4,-130.81 623.95,-118.66"/>
<polygon fill="black" stroke="black" points="624.34,-115.18 613.86,-116.7 623.01,-122.05 624.34,-115.18"/>
</g>
<!-- FinNat_path_fin_to_finnat_fsucc&#45;&gt;FinNat_fin_to_finnat -->
<g id="edge18" class="edge">
<title>FinNat_path_fin_to_finnat_fsucc&#45;&gt;FinNat_fin_to_finnat</title>
<path fill="none" stroke="black" d="M668.07,-161.29C699.74,-150.26 742.1,-135.51 774.67,-124.17"/>
<polygon fill="black" stroke="black" points="776.14,-127.36 784.44,-120.76 773.84,-120.75 776.14,-127.36"/>
</g>
<!-- FinNat_path_fin_to_finnat_fsucc&#45;&gt;FinNat_succ_finnat -->
<g id="edge19" class="edge">
<title>FinNat_path_fin_to_finnat_fsucc&#45;&gt;FinNat_succ_finnat</title>
<path fill="none" stroke="black" d="M575.02,-161.46C539.8,-150.05 492.09,-134.59 456.5,-123.06"/>
<polygon fill="black" stroke="black" points="457.4,-119.67 446.8,-119.91 455.24,-126.33 457.4,-119.67"/>
</g>
<!-- FinNat_FinNat -->
<g id="node20" class="node">
<title>FinNat_FinNat</title>
<g id="a_node20"><a xlink:href="FinNat.html#FinNat" xlink:title="FinNat">
<ellipse fill="#f070d1" stroke="black" cx="361.96" cy="-34" rx="42.79" ry="18"/>
<text text-anchor="middle" x="361.96" y="-30.3" font-family="Times,serif" font-size="14.00">FinNat</text>
</a>
</g>
</g>
<!-- FinNat_finnat_to_fin&#45;&gt;FinNat_FinNat -->
<g id="edge20" class="edge">
<title>FinNat_finnat_to_fin&#45;&gt;FinNat_FinNat</title>
<path fill="none" stroke="black" d="M193.59,-167.96C227.02,-160.46 268.77,-147.14 299.96,-124 322.05,-107.61 339.12,-80.94 349.7,-61.06"/>
<polygon fill="black" stroke="black" points="352.94,-62.42 354.37,-51.93 346.71,-59.24 352.94,-62.42"/>
</g>
<!-- FinNat_is_bounded_fin_to_nat -->
<g id="node11" class="node">
<title>FinNat_is_bounded_fin_to_nat</title>
<g id="a_node11"><a xlink:href="FinNat.html#is_bounded_fin_to_nat" xlink:title="is_bounded_fin_to_nat">
<ellipse fill="#f070d1" stroke="black" cx="823.96" cy="-34" rx="112.38" ry="18"/>
<text text-anchor="middle" x="823.96" y="-30.3" font-family="Times,serif" font-size="14.00">is_bounded_fin_to_nat</text>
</a>
</g>
</g>
<!-- FinNat_fin_to_finnat&#45;&gt;FinNat_is_bounded_fin_to_nat -->
<g id="edge21" class="edge">
<title>FinNat_fin_to_finnat&#45;&gt;FinNat_is_bounded_fin_to_nat</title>
<path fill="none" stroke="black" d="M823.96,-87.7C823.96,-79.98 823.96,-70.71 823.96,-62.11"/>
<polygon fill="black" stroke="black" points="827.46,-62.1 823.96,-52.1 820.46,-62.1 827.46,-62.1"/>
</g>
<!-- FinNat_fin_to_finnat&#45;&gt;FinNat_FinNat -->
<g id="edge22" class="edge">
<title>FinNat_fin_to_finnat&#45;&gt;FinNat_FinNat</title>
<path fill="none" stroke="black" d="M766.84,-96.35C675.56,-82.51 498.27,-55.65 411.8,-42.55"/>
<polygon fill="black" stroke="black" points="412.13,-39.06 401.72,-41.02 411.08,-45.98 412.13,-39.06"/>
</g>
<!-- FinNat_finnat_ind_beta_succ -->
<g id="node12" class="node">
<title>FinNat_finnat_ind_beta_succ</title>
<g id="a_node12"><a xlink:href="FinNat.html#finnat_ind_beta_succ" xlink:title="finnat_ind_beta_succ">
<ellipse fill="#f070d1" stroke="black" cx="876.96" cy="-330" rx="106.67" ry="18"/>
<ellipse fill="none" stroke="black" cx="876.96" cy="-330" rx="110.68" ry="22"/>
<ellipse fill="none" stroke="black" cx="876.96" cy="-330" rx="114.68" ry="26"/>
<text text-anchor="middle" x="876.96" y="-326.3" font-family="Times,serif" font-size="14.00">finnat_ind_beta_succ</text>
</a>
</g>
</g>
<!-- FinNat_finnat_ind_beta_succ&#45;&gt;FinNat_finnat_ind -->
<g id="edge23" class="edge">
<title>FinNat_finnat_ind_beta_succ&#45;&gt;FinNat_finnat_ind</title>
<path fill="none" stroke="black" d="M816.34,-307.89C779.55,-295.08 733.31,-278.98 699.42,-267.18"/>
<polygon fill="black" stroke="black" points="700.36,-263.8 689.77,-263.82 698.06,-270.41 700.36,-263.8"/>
</g>
<!-- FinNat_finnat_ind_beta_zero -->
<g id="node13" class="node">
<title>FinNat_finnat_ind_beta_zero</title>
<g id="a_node13"><a xlink:href="FinNat.html#finnat_ind_beta_zero" xlink:title="finnat_ind_beta_zero">
<ellipse fill="#f070d1" stroke="black" cx="604.96" cy="-330" rx="105.89" ry="18"/>
<ellipse fill="none" stroke="black" cx="604.96" cy="-330" rx="109.88" ry="22"/>
<ellipse fill="none" stroke="black" cx="604.96" cy="-330" rx="113.88" ry="26"/>
<text text-anchor="middle" x="604.96" y="-326.3" font-family="Times,serif" font-size="14.00">finnat_ind_beta_zero</text>
</a>
</g>
</g>
<!-- FinNat_finnat_ind_beta_zero&#45;&gt;FinNat_finnat_ind -->
<g id="edge24" class="edge">
<title>FinNat_finnat_ind_beta_zero&#45;&gt;FinNat_finnat_ind</title>
<path fill="none" stroke="black" d="M620.41,-303.89C625.78,-295.16 631.81,-285.37 637.2,-276.61"/>
<polygon fill="black" stroke="black" points="640.28,-278.28 642.54,-267.93 634.32,-274.61 640.28,-278.28"/>
</g>
<!-- FinNat_path_succ_finnat -->
<g id="node17" class="node">
<title>FinNat_path_succ_finnat</title>
<g id="a_node17"><a xlink:href="FinNat.html#path_succ_finnat" xlink:title="path_succ_finnat">
<ellipse fill="#f070d1" stroke="black" cx="350.96" cy="-178" rx="87.99" ry="18"/>
<text text-anchor="middle" x="350.96" y="-174.3" font-family="Times,serif" font-size="14.00">path_succ_finnat</text>
</a>
</g>
</g>
<!-- FinNat_finnat_ind&#45;&gt;FinNat_path_succ_finnat -->
<g id="edge25" class="edge">
<title>FinNat_finnat_ind&#45;&gt;FinNat_path_succ_finnat</title>
<path fill="none" stroke="black" d="M608.72,-238.75C558.15,-227.03 474.88,-207.72 416.71,-194.24"/>
<polygon fill="black" stroke="black" points="417.41,-190.81 406.88,-191.96 415.83,-197.63 417.41,-190.81"/>
</g>
<!-- FinNat_finnat_ind&#45;&gt;FinNat_zero_finnat -->
<g id="edge26" class="edge">
<title>FinNat_finnat_ind&#45;&gt;FinNat_zero_finnat</title>
<path fill="none" stroke="black" d="M606.12,-239.8C563.9,-230.44 506.45,-214.68 492.96,-196 483.59,-183.03 485.79,-174.3 492.96,-160 499.79,-146.37 511.98,-135.35 524.35,-126.96"/>
<polygon fill="black" stroke="black" points="526.29,-129.87 532.88,-121.57 522.55,-123.95 526.29,-129.87"/>
</g>
<!-- FinNat_incl_finnat&#45;&gt;FinNat_FinNat -->
<g id="edge27" class="edge">
<title>FinNat_incl_finnat&#45;&gt;FinNat_FinNat</title>
<path fill="none" stroke="black" d="M260.63,-89.98C280.24,-79.35 306.67,-65 327.62,-53.63"/>
<polygon fill="black" stroke="black" points="329.4,-56.65 336.52,-48.8 326.06,-50.5 329.4,-56.65"/>
</g>
<!-- FinNat_last_finnat&#45;&gt;FinNat_FinNat -->
<g id="edge28" class="edge">
<title>FinNat_last_finnat&#45;&gt;FinNat_FinNat</title>
<path fill="none" stroke="black" d="M127.17,-93.91C178.74,-80.97 263.59,-59.68 315.93,-46.55"/>
<polygon fill="black" stroke="black" points="317.09,-49.86 325.94,-44.04 315.39,-43.08 317.09,-49.86"/>
</g>
<!-- FinNat_path_succ_finnat&#45;&gt;FinNat_succ_finnat -->
<g id="edge29" class="edge">
<title>FinNat_path_succ_finnat&#45;&gt;FinNat_succ_finnat</title>
<path fill="none" stroke="black" d="M364.51,-160.05C371.32,-151.54 379.7,-141.07 387.21,-131.68"/>
<polygon fill="black" stroke="black" points="390.01,-133.78 393.53,-123.79 384.55,-129.41 390.01,-133.78"/>
</g>
<!-- FinNat_succ_finnat&#45;&gt;FinNat_FinNat -->
<g id="edge30" class="edge">
<title>FinNat_succ_finnat&#45;&gt;FinNat_FinNat</title>
<path fill="none" stroke="black" d="M396.07,-88.05C390.7,-79.71 384.13,-69.49 378.19,-60.25"/>
<polygon fill="black" stroke="black" points="381.1,-58.31 372.75,-51.79 375.21,-62.09 381.1,-58.31"/>
</g>
<!-- FinNat_zero_finnat&#45;&gt;FinNat_FinNat -->
<g id="edge31" class="edge">
<title>FinNat_zero_finnat&#45;&gt;FinNat_FinNat</title>
<path fill="none" stroke="black" d="M525.49,-91.67C490.65,-79.59 439.43,-61.85 403.63,-49.44"/>
<polygon fill="black" stroke="black" points="404.56,-46.06 393.97,-46.09 402.27,-52.67 404.56,-46.06"/>
</g>
</g>
</svg>
