<?xml version="1.0" encoding="UTF-8" standalone="no"?>
<!DOCTYPE svg PUBLIC "-//W3C//DTD SVG 1.1//EN"
 "http://www.w3.org/Graphics/SVG/1.1/DTD/svg11.dtd">
<!-- Generated by graphviz version 2.43.0 (0)
 -->
<!-- Title: HoTT_Algebra_AbGroups_Cyclic Pages: 1 -->
<svg width="1077pt" height="543pt"
 viewBox="0.00 0.00 1077.00 542.50" xmlns="http://www.w3.org/2000/svg" xmlns:xlink="http://www.w3.org/1999/xlink">
<g id="graph0" class="graph" transform="scale(1 1) rotate(0) translate(4 538.5)">
<title>HoTT_Algebra_AbGroups_Cyclic</title>
<polygon fill="white" stroke="transparent" points="-4,4 -4,-538.5 1073,-538.5 1073,4 -4,4"/>
<g id="clust1" class="cluster">
<title>cluster_Cyclic</title>
<polygon fill="#ffffc3" stroke="black" points="8,-10.4 8,-524.1 1061,-524.1 1061,-10.4 8,-10.4"/>
<text text-anchor="middle" x="37.5" y="-508.9" font-family="Times,serif" font-size="14.00">Cyclic</text>
</g>
<!-- Cyclic_cyclic -->
<g id="node1" class="node">
<title>Cyclic_cyclic</title>
<g id="a_node1"><a xlink:href="Cyclic.html#cyclic" xlink:title="cyclic">
<ellipse fill="#f070d1" stroke="black" cx="460" cy="-450.4" rx="36.31" ry="18"/>
<ellipse fill="none" stroke="black" cx="460" cy="-450.4" rx="40.3" ry="22"/>
<ellipse fill="none" stroke="black" cx="460" cy="-450.4" rx="44.29" ry="26"/>
<text text-anchor="middle" x="460" y="-446.7" font-family="Times,serif" font-size="14.00">cyclic</text>
</a>
</g>
</g>
<!-- Cyclic_Z1_mul_nat -->
<g id="node5" class="node">
<title>Cyclic_Z1_mul_nat</title>
<g id="a_node5"><a xlink:href="Cyclic.html#Z1_mul_nat" xlink:title="Z1_mul_nat">
<ellipse fill="#f070d1" stroke="black" cx="460" cy="-335.4" rx="64.19" ry="18"/>
<text text-anchor="middle" x="460" y="-331.7" font-family="Times,serif" font-size="14.00">Z1_mul_nat</text>
</a>
</g>
</g>
<!-- Cyclic_cyclic&#45;&gt;Cyclic_Z1_mul_nat -->
<g id="edge1" class="edge">
<title>Cyclic_cyclic&#45;&gt;Cyclic_Z1_mul_nat</title>
<path fill="none" stroke="black" d="M460,-424.33C460,-406.39 460,-382.26 460,-363.81"/>
<polygon fill="black" stroke="black" points="463.5,-363.7 460,-353.7 456.5,-363.7 463.5,-363.7"/>
</g>
<!-- Cyclic_Z1_to_Z -->
<g id="node2" class="node">
<title>Cyclic_Z1_to_Z</title>
<g id="a_node2"><a xlink:href="Cyclic.html#Z1_to_Z" xlink:title="Z1_to_Z">
<ellipse fill="#f070d1" stroke="black" cx="598" cy="-335.4" rx="47.4" ry="18"/>
<ellipse fill="none" stroke="black" cx="598" cy="-335.4" rx="51.4" ry="22"/>
<ellipse fill="none" stroke="black" cx="598" cy="-335.4" rx="55.39" ry="26"/>
<text text-anchor="middle" x="598" y="-331.7" font-family="Times,serif" font-size="14.00">Z1_to_Z</text>
</a>
</g>
</g>
<!-- Cyclic_ab_Z1 -->
<g id="node8" class="node">
<title>Cyclic_ab_Z1</title>
<g id="a_node8"><a xlink:href="Cyclic.html#ab_Z1" xlink:title="ab_Z1">
<ellipse fill="#f070d1" stroke="black" cx="598" cy="-231.4" rx="38.19" ry="18"/>
<text text-anchor="middle" x="598" y="-227.7" font-family="Times,serif" font-size="14.00">ab_Z1</text>
</a>
</g>
</g>
<!-- Cyclic_Z1_to_Z&#45;&gt;Cyclic_ab_Z1 -->
<g id="edge2" class="edge">
<title>Cyclic_Z1_to_Z&#45;&gt;Cyclic_ab_Z1</title>
<path fill="none" stroke="black" d="M598,-309.19C598,-294.28 598,-275.39 598,-260.07"/>
<polygon fill="black" stroke="black" points="601.5,-259.66 598,-249.66 594.5,-259.66 601.5,-259.66"/>
</g>
<!-- Cyclic_Z1_rec -->
<g id="node11" class="node">
<title>Cyclic_Z1_rec</title>
<g id="a_node11"><a xlink:href="Cyclic.html#Z1_rec" xlink:title="Z1_rec">
<ellipse fill="#f070d1" stroke="black" cx="468" cy="-231.4" rx="42.49" ry="18"/>
<text text-anchor="middle" x="468" y="-227.7" font-family="Times,serif" font-size="14.00">Z1_rec</text>
</a>
</g>
</g>
<!-- Cyclic_Z1_to_Z&#45;&gt;Cyclic_Z1_rec -->
<g id="edge3" class="edge">
<title>Cyclic_Z1_to_Z&#45;&gt;Cyclic_Z1_rec</title>
<path fill="none" stroke="black" d="M570.43,-312.77C548.36,-295.45 517.55,-271.28 495.49,-253.98"/>
<polygon fill="black" stroke="black" points="497.53,-251.13 487.51,-247.71 493.21,-256.64 497.53,-251.13"/>
</g>
<!-- Cyclic_ab_Z1_projective -->
<g id="node3" class="node">
<title>Cyclic_ab_Z1_projective</title>
<g id="a_node3"><a xlink:href="Cyclic.html#ab_Z1_projective" xlink:title="ab_Z1_projective">
<ellipse fill="#f070d1" stroke="black" cx="768" cy="-335.4" rx="89.08" ry="18"/>
<ellipse fill="none" stroke="black" cx="768" cy="-335.4" rx="93.08" ry="22"/>
<ellipse fill="none" stroke="black" cx="768" cy="-335.4" rx="97.08" ry="26"/>
<text text-anchor="middle" x="768" y="-331.7" font-family="Times,serif" font-size="14.00">ab_Z1_projective</text>
</a>
</g>
</g>
<!-- Cyclic_ab_Z1_projective&#45;&gt;Cyclic_ab_Z1 -->
<g id="edge4" class="edge">
<title>Cyclic_ab_Z1_projective&#45;&gt;Cyclic_ab_Z1</title>
<path fill="none" stroke="black" d="M729.42,-311.26C699.19,-293.12 657.66,-268.2 629.43,-251.26"/>
<polygon fill="black" stroke="black" points="631.14,-248.21 620.76,-246.06 627.54,-254.21 631.14,-248.21"/>
</g>
<!-- Cyclic_ab_Z1_projective&#45;&gt;Cyclic_Z1_rec -->
<g id="edge5" class="edge">
<title>Cyclic_ab_Z1_projective&#45;&gt;Cyclic_Z1_rec</title>
<path fill="none" stroke="black" d="M709.44,-314.5C650.65,-294.51 561.56,-264.21 509.63,-246.56"/>
<polygon fill="black" stroke="black" points="510.66,-243.21 500.07,-243.31 508.41,-249.84 510.66,-243.21"/>
</g>
<!-- Cyclic_Z1_gen -->
<g id="node12" class="node">
<title>Cyclic_Z1_gen</title>
<g id="a_node12"><a xlink:href="Cyclic.html#Z1_gen" xlink:title="Z1_gen">
<ellipse fill="#f070d1" stroke="black" cx="378" cy="-137.4" rx="44.39" ry="18"/>
<text text-anchor="middle" x="378" y="-133.7" font-family="Times,serif" font-size="14.00">Z1_gen</text>
</a>
</g>
</g>
<!-- Cyclic_ab_Z1_projective&#45;&gt;Cyclic_Z1_gen -->
<g id="edge6" class="edge">
<title>Cyclic_ab_Z1_projective&#45;&gt;Cyclic_Z1_gen</title>
<path fill="none" stroke="black" d="M749.43,-309.8C727.43,-282.34 688.27,-238.5 645,-213.4 576.58,-173.72 486.02,-154.09 429.92,-145.11"/>
<polygon fill="black" stroke="black" points="430.27,-141.62 419.85,-143.55 429.2,-148.54 430.27,-141.62"/>
</g>
<!-- Cyclic_Z1_mul_nat_beta -->
<g id="node4" class="node">
<title>Cyclic_Z1_mul_nat_beta</title>
<g id="a_node4"><a xlink:href="Cyclic.html#Z1_mul_nat_beta" xlink:title="Z1_mul_nat_beta">
<ellipse fill="#f070d1" stroke="black" cx="281" cy="-335.4" rx="89.08" ry="18"/>
<ellipse fill="none" stroke="black" cx="281" cy="-335.4" rx="93.08" ry="22"/>
<ellipse fill="none" stroke="black" cx="281" cy="-335.4" rx="97.08" ry="26"/>
<text text-anchor="middle" x="281" y="-331.7" font-family="Times,serif" font-size="14.00">Z1_mul_nat_beta</text>
</a>
</g>
</g>
<!-- Cyclic_nat_to_Z1 -->
<g id="node6" class="node">
<title>Cyclic_nat_to_Z1</title>
<g id="a_node6"><a xlink:href="Cyclic.html#nat_to_Z1" xlink:title="nat_to_Z1">
<ellipse fill="#f070d1" stroke="black" cx="352" cy="-231.4" rx="55.79" ry="18"/>
<text text-anchor="middle" x="352" y="-227.7" font-family="Times,serif" font-size="14.00">nat_to_Z1</text>
</a>
</g>
</g>
<!-- Cyclic_Z1_mul_nat_beta&#45;&gt;Cyclic_nat_to_Z1 -->
<g id="edge7" class="edge">
<title>Cyclic_Z1_mul_nat_beta&#45;&gt;Cyclic_nat_to_Z1</title>
<path fill="none" stroke="black" d="M298.19,-309.71C309.2,-293.89 323.45,-273.42 334.52,-257.52"/>
<polygon fill="black" stroke="black" points="337.46,-259.42 340.3,-249.21 331.71,-255.42 337.46,-259.42"/>
</g>
<!-- Cyclic_Z1_mul_nat_beta&#45;&gt;Cyclic_Z1_rec -->
<g id="edge8" class="edge">
<title>Cyclic_Z1_mul_nat_beta&#45;&gt;Cyclic_Z1_rec</title>
<path fill="none" stroke="black" d="M322.5,-311.77C356.09,-293.44 402.81,-267.96 434.16,-250.86"/>
<polygon fill="black" stroke="black" points="435.87,-253.92 442.97,-246.06 432.52,-247.77 435.87,-253.92"/>
</g>
<!-- Cyclic_Z1_mul_nat&#45;&gt;Cyclic_nat_to_Z1 -->
<g id="edge9" class="edge">
<title>Cyclic_Z1_mul_nat&#45;&gt;Cyclic_nat_to_Z1</title>
<path fill="none" stroke="black" d="M442.65,-318.02C424.78,-301.14 396.77,-274.68 376.61,-255.65"/>
<polygon fill="black" stroke="black" points="378.98,-253.07 369.31,-248.75 374.18,-258.16 378.98,-253.07"/>
</g>
<!-- Cyclic_Z1_mul_nat&#45;&gt;Cyclic_ab_Z1 -->
<g id="edge10" class="edge">
<title>Cyclic_Z1_mul_nat&#45;&gt;Cyclic_ab_Z1</title>
<path fill="none" stroke="black" d="M481.87,-318.24C505.63,-300.68 543.68,-272.56 569.7,-253.32"/>
<polygon fill="black" stroke="black" points="572.07,-255.92 578.03,-247.17 567.91,-250.3 572.07,-255.92"/>
</g>
<!-- Cyclic_Z1_mul_nat&#45;&gt;Cyclic_Z1_rec -->
<g id="edge11" class="edge">
<title>Cyclic_Z1_mul_nat&#45;&gt;Cyclic_Z1_rec</title>
<path fill="none" stroke="black" d="M461.36,-317.1C462.59,-301.33 464.44,-277.77 465.87,-259.5"/>
<polygon fill="black" stroke="black" points="469.37,-259.69 466.66,-249.45 462.39,-259.15 469.37,-259.69"/>
</g>
<!-- Cyclic_nat_to_Z1&#45;&gt;Cyclic_Z1_gen -->
<g id="edge12" class="edge">
<title>Cyclic_nat_to_Z1&#45;&gt;Cyclic_Z1_gen</title>
<path fill="none" stroke="black" d="M356.89,-213.1C360.69,-199.65 366.03,-180.75 370.39,-165.33"/>
<polygon fill="black" stroke="black" points="373.87,-165.89 373.22,-155.32 367.13,-163.99 373.87,-165.89"/>
</g>
<!-- Cyclic_equiv_Z1_hom -->
<g id="node7" class="node">
<title>Cyclic_equiv_Z1_hom</title>
<g id="a_node7"><a xlink:href="Cyclic.html#equiv_Z1_hom" xlink:title="equiv_Z1_hom">
<ellipse fill="#f070d1" stroke="black" cx="968" cy="-335.4" rx="77.2" ry="18"/>
<ellipse fill="none" stroke="black" cx="968" cy="-335.4" rx="81.19" ry="22"/>
<ellipse fill="none" stroke="black" cx="968" cy="-335.4" rx="85.19" ry="26"/>
<text text-anchor="middle" x="968" y="-331.7" font-family="Times,serif" font-size="14.00">equiv_Z1_hom</text>
</a>
</g>
</g>
<!-- Cyclic_equiv_Z1_hom&#45;&gt;Cyclic_ab_Z1 -->
<g id="edge13" class="edge">
<title>Cyclic_equiv_Z1_hom&#45;&gt;Cyclic_ab_Z1</title>
<path fill="none" stroke="black" d="M906.07,-317.33C830.69,-296.55 705.43,-262.02 640.28,-244.06"/>
<polygon fill="black" stroke="black" points="640.93,-240.61 630.36,-241.33 639.07,-247.36 640.93,-240.61"/>
</g>
<!-- Cyclic_Z1_commutative -->
<g id="node9" class="node">
<title>Cyclic_Z1_commutative</title>
<g id="a_node9"><a xlink:href="Cyclic.html#Z1_commutative" xlink:title="Z1_commutative">
<ellipse fill="#f070d1" stroke="black" cx="590" cy="-137.4" rx="87.99" ry="18"/>
<text text-anchor="middle" x="590" y="-133.7" font-family="Times,serif" font-size="14.00">Z1_commutative</text>
</a>
</g>
</g>
<!-- Cyclic_ab_Z1&#45;&gt;Cyclic_Z1_commutative -->
<g id="edge14" class="edge">
<title>Cyclic_ab_Z1&#45;&gt;Cyclic_Z1_commutative</title>
<path fill="none" stroke="black" d="M596.5,-213.1C595.33,-199.74 593.7,-180.99 592.37,-165.62"/>
<polygon fill="black" stroke="black" points="595.85,-165.29 591.5,-155.63 588.88,-165.9 595.85,-165.29"/>
</g>
<!-- Cyclic_Z1 -->
<g id="node13" class="node">
<title>Cyclic_Z1</title>
<g id="a_node13"><a xlink:href="Cyclic.html#Z1" xlink:title="Z1">
<ellipse fill="#f070d1" stroke="black" cx="468" cy="-44.4" rx="27" ry="18"/>
<text text-anchor="middle" x="468" y="-40.7" font-family="Times,serif" font-size="14.00">Z1</text>
</a>
</g>
</g>
<!-- Cyclic_Z1_commutative&#45;&gt;Cyclic_Z1 -->
<g id="edge15" class="edge">
<title>Cyclic_Z1_commutative&#45;&gt;Cyclic_Z1</title>
<path fill="none" stroke="black" d="M567.91,-119.92C547.05,-104.37 515.79,-81.05 493.8,-64.65"/>
<polygon fill="black" stroke="black" points="495.69,-61.69 485.58,-58.52 491.5,-67.3 495.69,-61.69"/>
</g>
<!-- Cyclic_Z1_rec_beta -->
<g id="node10" class="node">
<title>Cyclic_Z1_rec_beta</title>
<g id="a_node10"><a xlink:href="Cyclic.html#Z1_rec_beta" xlink:title="Z1_rec_beta">
<ellipse fill="#f070d1" stroke="black" cx="91" cy="-335.4" rx="66.89" ry="18"/>
<ellipse fill="none" stroke="black" cx="91" cy="-335.4" rx="70.89" ry="22"/>
<ellipse fill="none" stroke="black" cx="91" cy="-335.4" rx="74.89" ry="26"/>
<text text-anchor="middle" x="91" y="-331.7" font-family="Times,serif" font-size="14.00">Z1_rec_beta</text>
</a>
</g>
</g>
<!-- Cyclic_Z1_rec_beta&#45;&gt;Cyclic_Z1_rec -->
<g id="edge16" class="edge">
<title>Cyclic_Z1_rec_beta&#45;&gt;Cyclic_Z1_rec</title>
<path fill="none" stroke="black" d="M146.02,-317.63C155.66,-314.81 165.6,-311.97 175,-309.4 281.91,-280.26 310.58,-280.28 417,-249.4 420.14,-248.49 423.37,-247.51 426.61,-246.5"/>
<polygon fill="black" stroke="black" points="427.84,-249.79 436.29,-243.4 425.7,-243.12 427.84,-249.79"/>
</g>
<!-- Cyclic_Z1_rec_beta&#45;&gt;Cyclic_Z1_gen -->
<g id="edge17" class="edge">
<title>Cyclic_Z1_rec_beta&#45;&gt;Cyclic_Z1_gen</title>
<path fill="none" stroke="black" d="M123.92,-311.92C180.13,-273.53 293.77,-195.93 347.95,-158.93"/>
<polygon fill="black" stroke="black" points="350.14,-161.67 356.42,-153.14 346.19,-155.89 350.14,-161.67"/>
</g>
<!-- Cyclic_Z1_rec&#45;&gt;Cyclic_Z1 -->
<g id="edge18" class="edge">
<title>Cyclic_Z1_rec&#45;&gt;Cyclic_Z1</title>
<path fill="none" stroke="black" d="M468,-213.33C468,-181.12 468,-111.14 468,-72.46"/>
<polygon fill="black" stroke="black" points="471.5,-72.44 468,-62.44 464.5,-72.44 471.5,-72.44"/>
</g>
<!-- Cyclic_Z1_gen&#45;&gt;Cyclic_Z1 -->
<g id="edge19" class="edge">
<title>Cyclic_Z1_gen&#45;&gt;Cyclic_Z1</title>
<path fill="none" stroke="black" d="M393.68,-120.55C408.22,-105.85 430,-83.83 446.23,-67.42"/>
<polygon fill="black" stroke="black" points="449.15,-69.44 453.69,-59.87 444.17,-64.52 449.15,-69.44"/>
</g>
</g>
</svg>
