<?xml version="1.0" encoding="UTF-8" standalone="no"?>
<!DOCTYPE svg PUBLIC "-//W3C//DTD SVG 1.1//EN"
 "http://www.w3.org/Graphics/SVG/1.1/DTD/svg11.dtd">
<!-- Generated by graphviz version 2.43.0 (0)
 -->
<!-- Title: HoTT_Homotopy_Wedge Pages: 1 -->
<svg width="1764pt" height="886pt"
 viewBox="0.00 0.00 1764.00 886.00" xmlns="http://www.w3.org/2000/svg" xmlns:xlink="http://www.w3.org/1999/xlink">
<g id="graph0" class="graph" transform="scale(1 1) rotate(0) translate(4 882)">
<title>HoTT_Homotopy_Wedge</title>
<polygon fill="white" stroke="transparent" points="-4,4 -4,-882 1760,-882 1760,4 -4,4"/>
<g id="clust1" class="cluster">
<title>cluster_Wedge</title>
<polygon fill="#ffffc3" stroke="black" points="8,-14.08 8,-863.92 1748,-863.92 1748,-14.08 8,-14.08"/>
<text text-anchor="middle" x="40.5" y="-848.72" font-family="Times,serif" font-size="14.00">Wedge</text>
</g>
<!-- Wedge_wedge_pr2_psusp_pinch -->
<g id="node1" class="node">
<title>Wedge_wedge_pr2_psusp_pinch</title>
<g id="a_node1"><a xlink:href="Wedge.html#wedge_pr2_psusp_pinch" xlink:title="wedge_pr2_psusp_pinch">
<ellipse fill="#f070d1" stroke="black" cx="858" cy="-609.08" rx="122.69" ry="18"/>
<ellipse fill="none" stroke="black" cx="858" cy="-609.08" rx="126.68" ry="22"/>
<ellipse fill="none" stroke="black" cx="858" cy="-609.08" rx="130.68" ry="26"/>
<text text-anchor="middle" x="858" y="-605.38" font-family="Times,serif" font-size="14.00">wedge_pr2_psusp_pinch</text>
</a>
</g>
</g>
<!-- Wedge_psusp_pinch_beta_merid -->
<g id="node3" class="node">
<title>Wedge_psusp_pinch_beta_merid</title>
<g id="a_node3"><a xlink:href="Wedge.html#psusp_pinch_beta_merid" xlink:title="psusp_pinch_beta_merid">
<ellipse fill="#f070d1" stroke="black" cx="879" cy="-454.08" rx="124.28" ry="18"/>
<text text-anchor="middle" x="879" y="-450.38" font-family="Times,serif" font-size="14.00">psusp_pinch_beta_merid</text>
</a>
</g>
</g>
<!-- Wedge_wedge_pr2_psusp_pinch&#45;&gt;Wedge_psusp_pinch_beta_merid -->
<g id="edge1" class="edge">
<title>Wedge_wedge_pr2_psusp_pinch&#45;&gt;Wedge_psusp_pinch_beta_merid</title>
<path fill="none" stroke="black" d="M861.47,-582.81C865.27,-555.12 871.35,-510.84 875.25,-482.36"/>
<polygon fill="black" stroke="black" points="878.74,-482.68 876.64,-472.29 871.81,-481.72 878.74,-482.68"/>
</g>
<!-- Wedge_wedge_pr2 -->
<g id="node19" class="node">
<title>Wedge_wedge_pr2</title>
<g id="a_node19"><a xlink:href="Wedge.html#wedge_pr2" xlink:title="wedge_pr2">
<ellipse fill="#f070d1" stroke="black" cx="514" cy="-454.08" rx="61.99" ry="18"/>
<text text-anchor="middle" x="514" y="-450.38" font-family="Times,serif" font-size="14.00">wedge_pr2</text>
</a>
</g>
</g>
<!-- Wedge_wedge_pr2_psusp_pinch&#45;&gt;Wedge_wedge_pr2 -->
<g id="edge2" class="edge">
<title>Wedge_wedge_pr2_psusp_pinch&#45;&gt;Wedge_wedge_pr2</title>
<path fill="none" stroke="black" d="M806.5,-585.17C738.22,-554.8 619.02,-501.79 555.93,-473.73"/>
<polygon fill="black" stroke="black" points="557.24,-470.48 546.68,-469.61 554.39,-476.87 557.24,-470.48"/>
</g>
<!-- Wedge_wedge_rec_beta_wglue -->
<g id="node21" class="node">
<title>Wedge_wedge_rec_beta_wglue</title>
<g id="a_node21"><a xlink:href="Wedge.html#wedge_rec_beta_wglue" xlink:title="wedge_rec_beta_wglue">
<ellipse fill="#f070d1" stroke="black" cx="1138" cy="-454.08" rx="116.98" ry="18"/>
<text text-anchor="middle" x="1138" y="-450.38" font-family="Times,serif" font-size="14.00">wedge_rec_beta_wglue</text>
</a>
</g>
</g>
<!-- Wedge_wedge_pr2_psusp_pinch&#45;&gt;Wedge_wedge_rec_beta_wglue -->
<g id="edge3" class="edge">
<title>Wedge_wedge_pr2_psusp_pinch&#45;&gt;Wedge_wedge_rec_beta_wglue</title>
<path fill="none" stroke="black" d="M901.14,-584.51C955.11,-555.01 1046.77,-504.92 1098.83,-476.48"/>
<polygon fill="black" stroke="black" points="1100.66,-479.47 1107.76,-471.6 1097.3,-473.33 1100.66,-479.47"/>
</g>
<!-- Wedge_wedge_pr1_psusp_pinch -->
<g id="node2" class="node">
<title>Wedge_wedge_pr1_psusp_pinch</title>
<g id="a_node2"><a xlink:href="Wedge.html#wedge_pr1_psusp_pinch" xlink:title="wedge_pr1_psusp_pinch">
<ellipse fill="#f070d1" stroke="black" cx="1138" cy="-609.08" rx="122.69" ry="18"/>
<ellipse fill="none" stroke="black" cx="1138" cy="-609.08" rx="126.68" ry="22"/>
<ellipse fill="none" stroke="black" cx="1138" cy="-609.08" rx="130.68" ry="26"/>
<text text-anchor="middle" x="1138" y="-605.38" font-family="Times,serif" font-size="14.00">wedge_pr1_psusp_pinch</text>
</a>
</g>
</g>
<!-- Wedge_wedge_pr1_psusp_pinch&#45;&gt;Wedge_psusp_pinch_beta_merid -->
<g id="edge4" class="edge">
<title>Wedge_wedge_pr1_psusp_pinch&#45;&gt;Wedge_psusp_pinch_beta_merid</title>
<path fill="none" stroke="black" d="M1097.53,-584.17C1047.81,-554.8 964.15,-505.38 916.05,-476.96"/>
<polygon fill="black" stroke="black" points="917.6,-473.81 907.21,-471.74 914.04,-479.84 917.6,-473.81"/>
</g>
<!-- Wedge_wedge_pr1 -->
<g id="node20" class="node">
<title>Wedge_wedge_pr1</title>
<g id="a_node20"><a xlink:href="Wedge.html#wedge_pr1" xlink:title="wedge_pr1">
<ellipse fill="#f070d1" stroke="black" cx="655" cy="-454.08" rx="61.99" ry="18"/>
<text text-anchor="middle" x="655" y="-450.38" font-family="Times,serif" font-size="14.00">wedge_pr1</text>
</a>
</g>
</g>
<!-- Wedge_wedge_pr1_psusp_pinch&#45;&gt;Wedge_wedge_pr1 -->
<g id="edge5" class="edge">
<title>Wedge_wedge_pr1_psusp_pinch&#45;&gt;Wedge_wedge_pr1</title>
<path fill="none" stroke="black" d="M1070.59,-586.72C972.29,-555.59 791.88,-498.44 704.73,-470.83"/>
<polygon fill="black" stroke="black" points="705.67,-467.45 695.08,-467.77 703.55,-474.13 705.67,-467.45"/>
</g>
<!-- Wedge_wedge_pr1_psusp_pinch&#45;&gt;Wedge_wedge_rec_beta_wglue -->
<g id="edge6" class="edge">
<title>Wedge_wedge_pr1_psusp_pinch&#45;&gt;Wedge_wedge_rec_beta_wglue</title>
<path fill="none" stroke="black" d="M1138,-582.81C1138,-555.12 1138,-510.84 1138,-482.36"/>
<polygon fill="black" stroke="black" points="1141.5,-482.29 1138,-472.29 1134.5,-482.29 1141.5,-482.29"/>
</g>
<!-- Wedge_psusp_pinch -->
<g id="node4" class="node">
<title>Wedge_psusp_pinch</title>
<g id="a_node4"><a xlink:href="Wedge.html#psusp_pinch" xlink:title="psusp_pinch">
<ellipse fill="#f070d1" stroke="black" cx="837" cy="-313.08" rx="67.69" ry="18"/>
<text text-anchor="middle" x="837" y="-309.38" font-family="Times,serif" font-size="14.00">psusp_pinch</text>
</a>
</g>
</g>
<!-- Wedge_psusp_pinch_beta_merid&#45;&gt;Wedge_psusp_pinch -->
<g id="edge7" class="edge">
<title>Wedge_psusp_pinch_beta_merid&#45;&gt;Wedge_psusp_pinch</title>
<path fill="none" stroke="black" d="M873.85,-436.03C866.67,-412.27 853.58,-368.96 845.09,-340.86"/>
<polygon fill="black" stroke="black" points="848.44,-339.82 842.19,-331.26 841.73,-341.84 848.44,-339.82"/>
</g>
<!-- Wedge_wglue -->
<g id="node24" class="node">
<title>Wedge_wglue</title>
<g id="a_node24"><a xlink:href="Wedge.html#wglue" xlink:title="wglue">
<ellipse fill="#f070d1" stroke="black" cx="851" cy="-186.08" rx="38.19" ry="18"/>
<text text-anchor="middle" x="851" y="-182.38" font-family="Times,serif" font-size="14.00">wglue</text>
</a>
</g>
</g>
<!-- Wedge_psusp_pinch&#45;&gt;Wedge_wglue -->
<g id="edge8" class="edge">
<title>Wedge_psusp_pinch&#45;&gt;Wedge_wglue</title>
<path fill="none" stroke="black" d="M838.92,-294.96C841.24,-274.22 845.18,-239.03 847.93,-214.5"/>
<polygon fill="black" stroke="black" points="851.43,-214.72 849.06,-204.39 844.47,-213.94 851.43,-214.72"/>
</g>
<!-- Wedge_wedge_inr -->
<g id="node25" class="node">
<title>Wedge_wedge_inr</title>
<g id="a_node25"><a xlink:href="Wedge.html#wedge_inr" xlink:title="wedge_inr">
<ellipse fill="#f070d1" stroke="black" cx="736" cy="-186.08" rx="58.49" ry="18"/>
<text text-anchor="middle" x="736" y="-182.38" font-family="Times,serif" font-size="14.00">wedge_inr</text>
</a>
</g>
</g>
<!-- Wedge_psusp_pinch&#45;&gt;Wedge_wedge_inr -->
<g id="edge9" class="edge">
<title>Wedge_psusp_pinch&#45;&gt;Wedge_wedge_inr</title>
<path fill="none" stroke="black" d="M823.38,-295.22C805.96,-273.66 775.68,-236.19 755.74,-211.51"/>
<polygon fill="black" stroke="black" points="758.41,-209.25 749.41,-203.67 752.97,-213.65 758.41,-209.25"/>
</g>
<!-- Wedge_wedge_inl -->
<g id="node26" class="node">
<title>Wedge_wedge_inl</title>
<g id="a_node26"><a xlink:href="Wedge.html#wedge_inl" xlink:title="wedge_inl">
<ellipse fill="#f070d1" stroke="black" cx="388" cy="-186.08" rx="57.39" ry="18"/>
<text text-anchor="middle" x="388" y="-182.38" font-family="Times,serif" font-size="14.00">wedge_inl</text>
</a>
</g>
</g>
<!-- Wedge_psusp_pinch&#45;&gt;Wedge_wedge_inl -->
<g id="edge10" class="edge">
<title>Wedge_psusp_pinch&#45;&gt;Wedge_wedge_inl</title>
<path fill="none" stroke="black" d="M791.89,-299.52C707.85,-276.12 527.81,-226 439.29,-201.35"/>
<polygon fill="black" stroke="black" points="440.04,-197.93 429.47,-198.62 438.17,-204.68 440.04,-197.93"/>
</g>
<!-- Wedge_fwedge_incl -->
<g id="node5" class="node">
<title>Wedge_fwedge_incl</title>
<g id="a_node5"><a xlink:href="Wedge.html#fwedge_incl" xlink:title="fwedge_incl">
<ellipse fill="#f070d1" stroke="black" cx="1620" cy="-764.08" rx="65.77" ry="18"/>
<ellipse fill="none" stroke="black" cx="1620" cy="-764.08" rx="69.78" ry="22"/>
<ellipse fill="none" stroke="black" cx="1620" cy="-764.08" rx="73.79" ry="26"/>
<text text-anchor="middle" x="1620" y="-760.38" font-family="Times,serif" font-size="14.00">fwedge_incl</text>
</a>
</g>
</g>
<!-- Wedge_hasallcoproducts_ptype -->
<g id="node6" class="node">
<title>Wedge_hasallcoproducts_ptype</title>
<g id="a_node6"><a xlink:href="Wedge.html#hasallcoproducts_ptype" xlink:title="hasallcoproducts_ptype">
<ellipse fill="#f070d1" stroke="black" cx="1620" cy="-609.08" rx="120.48" ry="18"/>
<text text-anchor="middle" x="1620" y="-605.38" font-family="Times,serif" font-size="14.00">hasallcoproducts_ptype</text>
</a>
</g>
</g>
<!-- Wedge_fwedge_incl&#45;&gt;Wedge_hasallcoproducts_ptype -->
<g id="edge11" class="edge">
<title>Wedge_fwedge_incl&#45;&gt;Wedge_hasallcoproducts_ptype</title>
<path fill="none" stroke="black" d="M1620,-737.81C1620,-710.12 1620,-665.84 1620,-637.36"/>
<polygon fill="black" stroke="black" points="1623.5,-637.29 1620,-627.29 1616.5,-637.29 1623.5,-637.29"/>
</g>
<!-- Wedge_fwedge_rec -->
<g id="node7" class="node">
<title>Wedge_fwedge_rec</title>
<g id="a_node7"><a xlink:href="Wedge.html#fwedge_rec" xlink:title="fwedge_rec">
<ellipse fill="#f070d1" stroke="black" cx="1531" cy="-454.08" rx="63.89" ry="18"/>
<text text-anchor="middle" x="1531" y="-450.38" font-family="Times,serif" font-size="14.00">fwedge_rec</text>
</a>
</g>
</g>
<!-- Wedge_hasallcoproducts_ptype&#45;&gt;Wedge_fwedge_rec -->
<g id="edge12" class="edge">
<title>Wedge_hasallcoproducts_ptype&#45;&gt;Wedge_fwedge_rec</title>
<path fill="none" stroke="black" d="M1610.14,-591.12C1594.63,-564.47 1564.45,-512.58 1546.17,-481.15"/>
<polygon fill="black" stroke="black" points="1548.96,-478.99 1540.91,-472.11 1542.91,-482.51 1548.96,-478.99"/>
</g>
<!-- Wedge_fwedge_in_ -->
<g id="node9" class="node">
<title>Wedge_fwedge_in_</title>
<g id="a_node9"><a xlink:href="Wedge.html#fwedge_in'" xlink:title="fwedge_in&#39;">
<ellipse fill="#f070d1" stroke="black" cx="1672" cy="-454.08" rx="59.59" ry="18"/>
<text text-anchor="middle" x="1672" y="-450.38" font-family="Times,serif" font-size="14.00">fwedge_in&#39;</text>
</a>
</g>
</g>
<!-- Wedge_hasallcoproducts_ptype&#45;&gt;Wedge_fwedge_in_ -->
<g id="edge13" class="edge">
<title>Wedge_hasallcoproducts_ptype&#45;&gt;Wedge_fwedge_in_</title>
<path fill="none" stroke="black" d="M1625.86,-590.82C1634.88,-564.28 1652.24,-513.23 1662.9,-481.85"/>
<polygon fill="black" stroke="black" points="1666.33,-482.63 1666.24,-472.03 1659.7,-480.38 1666.33,-482.63"/>
</g>
<!-- Wedge_FamilyWedge -->
<g id="node10" class="node">
<title>Wedge_FamilyWedge</title>
<g id="a_node10"><a xlink:href="Wedge.html#FamilyWedge" xlink:title="FamilyWedge">
<ellipse fill="#f070d1" stroke="black" cx="1531" cy="-313.08" rx="73.39" ry="18"/>
<text text-anchor="middle" x="1531" y="-309.38" font-family="Times,serif" font-size="14.00">FamilyWedge</text>
</a>
</g>
</g>
<!-- Wedge_fwedge_rec&#45;&gt;Wedge_FamilyWedge -->
<g id="edge14" class="edge">
<title>Wedge_fwedge_rec&#45;&gt;Wedge_FamilyWedge</title>
<path fill="none" stroke="black" d="M1531,-436.03C1531,-412.48 1531,-369.72 1531,-341.6"/>
<polygon fill="black" stroke="black" points="1534.5,-341.26 1531,-331.26 1527.5,-341.26 1534.5,-341.26"/>
</g>
<!-- Wedge_fwedge_in -->
<g id="node8" class="node">
<title>Wedge_fwedge_in</title>
<g id="a_node8"><a xlink:href="Wedge.html#fwedge_in" xlink:title="fwedge_in">
<ellipse fill="#f070d1" stroke="black" cx="1383" cy="-454.08" rx="57.71" ry="18"/>
<ellipse fill="none" stroke="black" cx="1383" cy="-454.08" rx="61.7" ry="22"/>
<ellipse fill="none" stroke="black" cx="1383" cy="-454.08" rx="65.69" ry="26"/>
<text text-anchor="middle" x="1383" y="-450.38" font-family="Times,serif" font-size="14.00">fwedge_in</text>
</a>
</g>
</g>
<!-- Wedge_fwedge_in&#45;&gt;Wedge_FamilyWedge -->
<g id="edge15" class="edge">
<title>Wedge_fwedge_in&#45;&gt;Wedge_FamilyWedge</title>
<path fill="none" stroke="black" d="M1407.77,-429.81C1434.88,-404.35 1478.13,-363.73 1505.52,-338.01"/>
<polygon fill="black" stroke="black" points="1508.24,-340.25 1513.14,-330.85 1503.45,-335.15 1508.24,-340.25"/>
</g>
<!-- Wedge_fwedge_in_&#45;&gt;Wedge_FamilyWedge -->
<g id="edge16" class="edge">
<title>Wedge_fwedge_in_&#45;&gt;Wedge_FamilyWedge</title>
<path fill="none" stroke="black" d="M1655.27,-436.59C1630.5,-412.16 1583.9,-366.23 1555.34,-338.07"/>
<polygon fill="black" stroke="black" points="1557.72,-335.51 1548.15,-330.98 1552.81,-340.49 1557.72,-335.51"/>
</g>
<!-- Wedge_wedge_pr2_inr -->
<g id="node11" class="node">
<title>Wedge_wedge_pr2_inr</title>
<g id="a_node11"><a xlink:href="Wedge.html#wedge_pr2_inr" xlink:title="wedge_pr2_inr">
<ellipse fill="#f070d1" stroke="black" cx="622" cy="-609.08" rx="79.11" ry="18"/>
<ellipse fill="none" stroke="black" cx="622" cy="-609.08" rx="83.1" ry="22"/>
<ellipse fill="none" stroke="black" cx="622" cy="-609.08" rx="87.09" ry="26"/>
<text text-anchor="middle" x="622" y="-605.38" font-family="Times,serif" font-size="14.00">wedge_pr2_inr</text>
</a>
</g>
</g>
<!-- Wedge_wedge_pr2_inr&#45;&gt;Wedge_wedge_pr2 -->
<g id="edge17" class="edge">
<title>Wedge_wedge_pr2_inr&#45;&gt;Wedge_wedge_pr2</title>
<path fill="none" stroke="black" d="M604.65,-583.49C584.65,-555.17 551.97,-508.87 531.79,-480.28"/>
<polygon fill="black" stroke="black" points="534.59,-478.17 525.96,-472.02 528.87,-482.21 534.59,-478.17"/>
</g>
<!-- Wedge_wedge_pr2_inr&#45;&gt;Wedge_wedge_rec_beta_wglue -->
<g id="edge18" class="edge">
<title>Wedge_wedge_pr2_inr&#45;&gt;Wedge_wedge_rec_beta_wglue</title>
<path fill="none" stroke="black" d="M682.2,-590.23C781.26,-560.86 977.52,-502.66 1077.06,-473.15"/>
<polygon fill="black" stroke="black" points="1078.08,-476.49 1086.67,-470.3 1076.09,-469.78 1078.08,-476.49"/>
</g>
<!-- Wedge_wedge_pr2_inr&#45;&gt;Wedge_wedge_inr -->
<g id="edge19" class="edge">
<title>Wedge_wedge_pr2_inr&#45;&gt;Wedge_wedge_inr</title>
<path fill="none" stroke="black" d="M649.56,-584.34C674.69,-560.78 710.24,-522.18 726,-480.08 760.56,-387.77 748.55,-267.45 740.66,-214.32"/>
<polygon fill="black" stroke="black" points="744.1,-213.67 739.1,-204.33 737.18,-214.75 744.1,-213.67"/>
</g>
<!-- Wedge_wedge_pr2_inl -->
<g id="node12" class="node">
<title>Wedge_wedge_pr2_inl</title>
<g id="a_node12"><a xlink:href="Wedge.html#wedge_pr2_inl" xlink:title="wedge_pr2_inl">
<ellipse fill="#f070d1" stroke="black" cx="101" cy="-609.08" rx="77.2" ry="18"/>
<ellipse fill="none" stroke="black" cx="101" cy="-609.08" rx="81.19" ry="22"/>
<ellipse fill="none" stroke="black" cx="101" cy="-609.08" rx="85.19" ry="26"/>
<text text-anchor="middle" x="101" y="-605.38" font-family="Times,serif" font-size="14.00">wedge_pr2_inl</text>
</a>
</g>
</g>
<!-- Wedge_wedge_pr2_inl&#45;&gt;Wedge_wedge_pr2 -->
<g id="edge20" class="edge">
<title>Wedge_wedge_pr2_inl&#45;&gt;Wedge_wedge_pr2</title>
<path fill="none" stroke="black" d="M153.73,-588.54C235.27,-558.34 390.6,-500.79 467.91,-472.15"/>
<polygon fill="black" stroke="black" points="469.23,-475.39 477.39,-468.64 466.8,-468.83 469.23,-475.39"/>
</g>
<!-- Wedge_wedge_pr2_inl&#45;&gt;Wedge_wedge_inl -->
<g id="edge21" class="edge">
<title>Wedge_wedge_pr2_inl&#45;&gt;Wedge_wedge_inl</title>
<path fill="none" stroke="black" d="M107.78,-583.06C123.93,-526.83 169.06,-388.14 244,-295.08 274.06,-257.75 319.78,-226.38 351.61,-207.24"/>
<polygon fill="black" stroke="black" points="353.77,-210.03 360.61,-201.93 350.22,-204 353.77,-210.03"/>
</g>
<!-- Wedge_wedge_pr1_inr -->
<g id="node13" class="node">
<title>Wedge_wedge_pr1_inr</title>
<g id="a_node13"><a xlink:href="Wedge.html#wedge_pr1_inr" xlink:title="wedge_pr1_inr">
<ellipse fill="#f070d1" stroke="black" cx="1394" cy="-609.08" rx="79.11" ry="18"/>
<ellipse fill="none" stroke="black" cx="1394" cy="-609.08" rx="83.1" ry="22"/>
<ellipse fill="none" stroke="black" cx="1394" cy="-609.08" rx="87.09" ry="26"/>
<text text-anchor="middle" x="1394" y="-605.38" font-family="Times,serif" font-size="14.00">wedge_pr1_inr</text>
</a>
</g>
</g>
<!-- Wedge_wedge_pr1_inr&#45;&gt;Wedge_wedge_pr1 -->
<g id="edge22" class="edge">
<title>Wedge_wedge_pr1_inr&#45;&gt;Wedge_wedge_pr1</title>
<path fill="none" stroke="black" d="M1325.04,-592.97C1309.58,-589.65 1293.24,-586.19 1278,-583.08 1042.05,-534.82 980.51,-534.91 746,-480.08 733.29,-477.1 719.67,-473.56 706.94,-470.09"/>
<polygon fill="black" stroke="black" points="707.53,-466.62 696.96,-467.33 705.67,-473.37 707.53,-466.62"/>
</g>
<!-- Wedge_wedge_pr1_inr&#45;&gt;Wedge_wedge_rec_beta_wglue -->
<g id="edge23" class="edge">
<title>Wedge_wedge_pr1_inr&#45;&gt;Wedge_wedge_rec_beta_wglue</title>
<path fill="none" stroke="black" d="M1356.23,-585.5C1307.36,-556.29 1222.79,-505.75 1174.54,-476.91"/>
<polygon fill="black" stroke="black" points="1176.06,-473.74 1165.68,-471.62 1172.47,-479.75 1176.06,-473.74"/>
</g>
<!-- Wedge_wedge_pr1_inr&#45;&gt;Wedge_wedge_inr -->
<g id="edge24" class="edge">
<title>Wedge_wedge_pr1_inr&#45;&gt;Wedge_wedge_inr</title>
<path fill="none" stroke="black" d="M1377.12,-583.24C1345.31,-536.69 1278.42,-439.9 1264,-428.08 1113.37,-304.57 889.15,-230.17 788.38,-201.14"/>
<polygon fill="black" stroke="black" points="789.31,-197.76 778.73,-198.39 787.39,-204.49 789.31,-197.76"/>
</g>
<!-- Wedge_wedge_pr1_inl -->
<g id="node14" class="node">
<title>Wedge_wedge_pr1_inl</title>
<g id="a_node14"><a xlink:href="Wedge.html#wedge_pr1_inl" xlink:title="wedge_pr1_inl">
<ellipse fill="#f070d1" stroke="black" cx="290" cy="-609.08" rx="77.2" ry="18"/>
<ellipse fill="none" stroke="black" cx="290" cy="-609.08" rx="81.19" ry="22"/>
<ellipse fill="none" stroke="black" cx="290" cy="-609.08" rx="85.19" ry="26"/>
<text text-anchor="middle" x="290" y="-605.38" font-family="Times,serif" font-size="14.00">wedge_pr1_inl</text>
</a>
</g>
</g>
<!-- Wedge_wedge_pr1_inl&#45;&gt;Wedge_wedge_pr1 -->
<g id="edge25" class="edge">
<title>Wedge_wedge_pr1_inl&#45;&gt;Wedge_wedge_pr1</title>
<path fill="none" stroke="black" d="M338.85,-587.6C410.59,-557.53 543.34,-501.88 611.75,-473.21"/>
<polygon fill="black" stroke="black" points="613.49,-476.27 621.36,-469.18 610.79,-469.81 613.49,-476.27"/>
</g>
<!-- Wedge_wedge_pr1_inl&#45;&gt;Wedge_wedge_inl -->
<g id="edge26" class="edge">
<title>Wedge_wedge_pr1_inl&#45;&gt;Wedge_wedge_inl</title>
<path fill="none" stroke="black" d="M262.3,-584.44C226.74,-551.04 171.98,-487.48 193,-428.08 226.54,-333.31 314.95,-248.53 360.3,-209.62"/>
<polygon fill="black" stroke="black" points="362.61,-212.25 367.98,-203.11 358.09,-206.9 362.61,-212.25"/>
</g>
<!-- Wedge_hasbinarycoproducts -->
<g id="node15" class="node">
<title>Wedge_hasbinarycoproducts</title>
<g id="a_node15"><a xlink:href="Wedge.html#hasbinarycoproducts" xlink:title="hasbinarycoproducts">
<ellipse fill="#f070d1" stroke="black" cx="318" cy="-454.08" rx="107.79" ry="18"/>
<ellipse fill="none" stroke="black" cx="318" cy="-454.08" rx="111.78" ry="22"/>
<ellipse fill="none" stroke="black" cx="318" cy="-454.08" rx="115.78" ry="26"/>
<text text-anchor="middle" x="318" y="-450.38" font-family="Times,serif" font-size="14.00">hasbinarycoproducts</text>
</a>
</g>
</g>
<!-- Wedge_wedge_up -->
<g id="node16" class="node">
<title>Wedge_wedge_up</title>
<g id="a_node16"><a xlink:href="Wedge.html#wedge_up" xlink:title="wedge_up">
<ellipse fill="#f070d1" stroke="black" cx="388" cy="-313.08" rx="57.39" ry="18"/>
<text text-anchor="middle" x="388" y="-309.38" font-family="Times,serif" font-size="14.00">wedge_up</text>
</a>
</g>
</g>
<!-- Wedge_hasbinarycoproducts&#45;&gt;Wedge_wedge_up -->
<g id="edge27" class="edge">
<title>Wedge_hasbinarycoproducts&#45;&gt;Wedge_wedge_up</title>
<path fill="none" stroke="black" d="M330.51,-428.23C343,-403.44 362.1,-365.51 374.81,-340.26"/>
<polygon fill="black" stroke="black" points="377.98,-341.76 379.35,-331.26 371.72,-338.61 377.98,-341.76"/>
</g>
<!-- Wedge_wedge_rec -->
<g id="node22" class="node">
<title>Wedge_wedge_rec</title>
<g id="a_node22"><a xlink:href="Wedge.html#wedge_rec" xlink:title="wedge_rec">
<ellipse fill="#f070d1" stroke="black" cx="597" cy="-313.08" rx="59.59" ry="18"/>
<text text-anchor="middle" x="597" y="-309.38" font-family="Times,serif" font-size="14.00">wedge_rec</text>
</a>
</g>
</g>
<!-- Wedge_hasbinarycoproducts&#45;&gt;Wedge_wedge_rec -->
<g id="edge28" class="edge">
<title>Wedge_hasbinarycoproducts&#45;&gt;Wedge_wedge_rec</title>
<path fill="none" stroke="black" d="M364.07,-430.12C418.27,-403.12 507.3,-358.76 558.16,-333.43"/>
<polygon fill="black" stroke="black" points="559.8,-336.52 567.19,-328.93 556.68,-330.25 559.8,-336.52"/>
</g>
<!-- Wedge_wedge_up&#45;&gt;Wedge_wedge_inr -->
<g id="edge29" class="edge">
<title>Wedge_wedge_up&#45;&gt;Wedge_wedge_inr</title>
<path fill="none" stroke="black" d="M424.26,-299.05C488.02,-276.15 620.09,-228.71 690.11,-203.56"/>
<polygon fill="black" stroke="black" points="691.33,-206.84 699.56,-200.16 688.97,-200.25 691.33,-206.84"/>
</g>
<!-- Wedge_wedge_up&#45;&gt;Wedge_wedge_inl -->
<g id="edge30" class="edge">
<title>Wedge_wedge_up&#45;&gt;Wedge_wedge_inl</title>
<path fill="none" stroke="black" d="M388,-294.96C388,-274.22 388,-239.03 388,-214.5"/>
<polygon fill="black" stroke="black" points="391.5,-214.39 388,-204.39 384.5,-214.39 391.5,-214.39"/>
</g>
<!-- Wedge_wedge_incl_beta_wglue -->
<g id="node17" class="node">
<title>Wedge_wedge_incl_beta_wglue</title>
<g id="a_node17"><a xlink:href="Wedge.html#wedge_incl_beta_wglue" xlink:title="wedge_incl_beta_wglue">
<ellipse fill="#f070d1" stroke="black" cx="871" cy="-764.08" rx="118.88" ry="18"/>
<ellipse fill="none" stroke="black" cx="871" cy="-764.08" rx="122.88" ry="22"/>
<ellipse fill="none" stroke="black" cx="871" cy="-764.08" rx="126.88" ry="26"/>
<text text-anchor="middle" x="871" y="-760.38" font-family="Times,serif" font-size="14.00">wedge_incl_beta_wglue</text>
</a>
</g>
</g>
<!-- Wedge_wedge_incl -->
<g id="node18" class="node">
<title>Wedge_wedge_incl</title>
<g id="a_node18"><a xlink:href="Wedge.html#wedge_incl" xlink:title="wedge_incl">
<ellipse fill="#f070d1" stroke="black" cx="455" cy="-609.08" rx="61.99" ry="18"/>
<text text-anchor="middle" x="455" y="-605.38" font-family="Times,serif" font-size="14.00">wedge_incl</text>
</a>
</g>
</g>
<!-- Wedge_wedge_incl_beta_wglue&#45;&gt;Wedge_wedge_incl -->
<g id="edge31" class="edge">
<title>Wedge_wedge_incl_beta_wglue&#45;&gt;Wedge_wedge_incl</title>
<path fill="none" stroke="black" d="M810.95,-740.99C727.3,-710.22 577.43,-655.1 501.63,-627.23"/>
<polygon fill="black" stroke="black" points="502.48,-623.81 491.88,-623.64 500.06,-630.38 502.48,-623.81"/>
</g>
<!-- Wedge_wedge_incl_beta_wglue&#45;&gt;Wedge_wedge_rec_beta_wglue -->
<g id="edge32" class="edge">
<title>Wedge_wedge_incl_beta_wglue&#45;&gt;Wedge_wedge_rec_beta_wglue</title>
<path fill="none" stroke="black" d="M965.32,-746.63C1073.5,-725.63 1240.75,-685.84 1278,-635.08 1320.6,-577.03 1232,-510.61 1177.13,-477.01"/>
<polygon fill="black" stroke="black" points="1178.68,-473.86 1168.31,-471.71 1175.08,-479.86 1178.68,-473.86"/>
</g>
<!-- Wedge_wedge_incl&#45;&gt;Wedge_wedge_pr2 -->
<g id="edge33" class="edge">
<title>Wedge_wedge_incl&#45;&gt;Wedge_wedge_pr2</title>
<path fill="none" stroke="black" d="M461.54,-591.12C471.77,-564.58 491.65,-513.03 503.79,-481.56"/>
<polygon fill="black" stroke="black" points="507.1,-482.7 507.43,-472.11 500.57,-480.18 507.1,-482.7"/>
</g>
<!-- Wedge_wedge_incl&#45;&gt;Wedge_wedge_pr1 -->
<g id="edge34" class="edge">
<title>Wedge_wedge_incl&#45;&gt;Wedge_wedge_pr1</title>
<path fill="none" stroke="black" d="M476.03,-591.99C511.89,-564.56 584.95,-508.67 625.76,-477.44"/>
<polygon fill="black" stroke="black" points="628.14,-480.03 633.96,-471.17 623.89,-474.47 628.14,-480.03"/>
</g>
<!-- Wedge_wedge_pr2&#45;&gt;Wedge_wedge_rec -->
<g id="edge35" class="edge">
<title>Wedge_wedge_pr2&#45;&gt;Wedge_wedge_rec</title>
<path fill="none" stroke="black" d="M524.01,-436.31C538.34,-412.31 564.83,-367.95 581.65,-339.78"/>
<polygon fill="black" stroke="black" points="584.83,-341.28 586.95,-330.9 578.82,-337.69 584.83,-341.28"/>
</g>
<!-- Wedge_wedge_pr1&#45;&gt;Wedge_wedge_rec -->
<g id="edge36" class="edge">
<title>Wedge_wedge_pr1&#45;&gt;Wedge_wedge_rec</title>
<path fill="none" stroke="black" d="M647.89,-436.03C637.93,-412.17 619.74,-368.58 608.02,-340.49"/>
<polygon fill="black" stroke="black" points="611.25,-339.14 604.17,-331.26 604.79,-341.84 611.25,-339.14"/>
</g>
<!-- Wedge_wedge_rec_beta_wglue&#45;&gt;Wedge_wedge_rec -->
<g id="edge37" class="edge">
<title>Wedge_wedge_rec_beta_wglue&#45;&gt;Wedge_wedge_rec</title>
<path fill="none" stroke="black" d="M1080.62,-438.33C975.48,-411.32 753.36,-354.25 650.88,-327.92"/>
<polygon fill="black" stroke="black" points="651.61,-324.49 641.05,-325.39 649.86,-331.27 651.61,-324.49"/>
</g>
<!-- Wedge_wedge_rec_beta_wglue&#45;&gt;Wedge_wglue -->
<g id="edge38" class="edge">
<title>Wedge_wedge_rec_beta_wglue&#45;&gt;Wedge_wglue</title>
<path fill="none" stroke="black" d="M1119.61,-436.03C1069.63,-389.71 931.28,-261.49 875.14,-209.45"/>
<polygon fill="black" stroke="black" points="877.5,-206.86 867.78,-202.63 872.74,-212 877.5,-206.86"/>
</g>
<!-- Wedge_wedge_rec_ -->
<g id="node23" class="node">
<title>Wedge_wedge_rec_</title>
<g id="a_node23"><a xlink:href="Wedge.html#wedge_rec'" xlink:title="wedge_rec&#39;">
<ellipse fill="#f070d1" stroke="black" cx="597" cy="-186.08" rx="62.29" ry="18"/>
<text text-anchor="middle" x="597" y="-182.38" font-family="Times,serif" font-size="14.00">wedge_rec&#39;</text>
</a>
</g>
</g>
<!-- Wedge_wedge_rec&#45;&gt;Wedge_wedge_rec_ -->
<g id="edge39" class="edge">
<title>Wedge_wedge_rec&#45;&gt;Wedge_wedge_rec_</title>
<path fill="none" stroke="black" d="M597,-294.96C597,-274.22 597,-239.03 597,-214.5"/>
<polygon fill="black" stroke="black" points="600.5,-214.39 597,-204.39 593.5,-214.39 600.5,-214.39"/>
</g>
<!-- Wedge_Wedge -->
<g id="node27" class="node">
<title>Wedge_Wedge</title>
<g id="a_node27"><a xlink:href="Wedge.html#Wedge" xlink:title="Wedge">
<ellipse fill="#f070d1" stroke="black" cx="666" cy="-60.08" rx="42.49" ry="18"/>
<text text-anchor="middle" x="666" y="-56.38" font-family="Times,serif" font-size="14.00">Wedge</text>
</a>
</g>
</g>
<!-- Wedge_wedge_rec_&#45;&gt;Wedge_Wedge -->
<g id="edge40" class="edge">
<title>Wedge_wedge_rec_&#45;&gt;Wedge_Wedge</title>
<path fill="none" stroke="black" d="M606.45,-168.09C618.11,-147.13 638.07,-111.27 651.63,-86.89"/>
<polygon fill="black" stroke="black" points="654.86,-88.29 656.66,-77.85 648.74,-84.89 654.86,-88.29"/>
</g>
<!-- Wedge_wglue&#45;&gt;Wedge_Wedge -->
<g id="edge41" class="edge">
<title>Wedge_wglue&#45;&gt;Wedge_Wedge</title>
<path fill="none" stroke="black" d="M829.78,-170.85C797,-148.88 733.94,-106.61 696.35,-81.42"/>
<polygon fill="black" stroke="black" points="698.09,-78.37 687.83,-75.71 694.19,-84.18 698.09,-78.37"/>
</g>
<!-- Wedge_wedge_inr&#45;&gt;Wedge_Wedge -->
<g id="edge42" class="edge">
<title>Wedge_wedge_inr&#45;&gt;Wedge_Wedge</title>
<path fill="none" stroke="black" d="M726.41,-168.09C714.53,-147.04 694.16,-110.95 680.39,-86.57"/>
<polygon fill="black" stroke="black" points="683.43,-84.84 675.47,-77.85 677.34,-88.28 683.43,-84.84"/>
</g>
<!-- Wedge_wedge_inl&#45;&gt;Wedge_Wedge -->
<g id="edge43" class="edge">
<title>Wedge_wedge_inl&#45;&gt;Wedge_Wedge</title>
<path fill="none" stroke="black" d="M419.62,-170.97C471.17,-147.98 573.11,-102.51 628.33,-77.88"/>
<polygon fill="black" stroke="black" points="630.04,-80.95 637.75,-73.68 627.19,-74.55 630.04,-80.95"/>
</g>
</g>
</svg>
