<?xml version="1.0" encoding="UTF-8" standalone="no"?>
<!DOCTYPE svg PUBLIC "-//W3C//DTD SVG 1.1//EN"
 "http://www.w3.org/Graphics/SVG/1.1/DTD/svg11.dtd">
<!-- Generated by graphviz version 2.43.0 (0)
 -->
<!-- Title: HoTT_Classes_orders_sum Pages: 1 -->
<svg width="513pt" height="261pt"
 viewBox="0.00 0.00 513.00 260.50" xmlns="http://www.w3.org/2000/svg" xmlns:xlink="http://www.w3.org/1999/xlink">
<g id="graph0" class="graph" transform="scale(1 1) rotate(0) translate(4 256.5)">
<title>HoTT_Classes_orders_sum</title>
<polygon fill="white" stroke="transparent" points="-4,4 -4,-256.5 509,-256.5 509,4 -4,4"/>
<g id="clust1" class="cluster">
<title>cluster_sum</title>
<polygon fill="#ffffc3" stroke="black" points="8,-11.28 8,-241.22 497,-241.22 497,-11.28 8,-11.28"/>
<text text-anchor="middle" x="31.5" y="-226.02" font-family="Times,serif" font-size="14.00">sum</text>
</g>
<!-- sum_sum_tricho -->
<g id="node1" class="node">
<title>sum_sum_tricho</title>
<g id="a_node1"><a xlink:href="sum.html#sum_tricho" xlink:title="sum_tricho">
<ellipse fill="#f070d1" stroke="black" cx="419" cy="-161.28" rx="61.96" ry="18"/>
<ellipse fill="none" stroke="black" cx="419" cy="-161.28" rx="65.98" ry="22"/>
<ellipse fill="none" stroke="black" cx="419" cy="-161.28" rx="69.99" ry="26"/>
<text text-anchor="middle" x="419" y="-157.58" font-family="Times,serif" font-size="14.00">sum_tricho</text>
</a>
</g>
</g>
<!-- sum_sum_lt -->
<g id="node2" class="node">
<title>sum_sum_lt</title>
<g id="a_node2"><a xlink:href="sum.html#sum_lt" xlink:title="sum_lt">
<ellipse fill="#f070d1" stroke="black" cx="419" cy="-48.28" rx="41.69" ry="18"/>
<text text-anchor="middle" x="419" y="-44.58" font-family="Times,serif" font-size="14.00">sum_lt</text>
</a>
</g>
</g>
<!-- sum_sum_tricho&#45;&gt;sum_sum_lt -->
<g id="edge1" class="edge">
<title>sum_sum_tricho&#45;&gt;sum_sum_lt</title>
<path fill="none" stroke="black" d="M419,-135.1C419,-117.64 419,-94.41 419,-76.53"/>
<polygon fill="black" stroke="black" points="422.5,-76.44 419,-66.44 415.5,-76.44 422.5,-76.44"/>
</g>
<!-- sum_unit_tricho -->
<g id="node3" class="node">
<title>sum_unit_tricho</title>
<g id="a_node3"><a xlink:href="sum.html#unit_tricho" xlink:title="unit_tricho">
<ellipse fill="#f070d1" stroke="black" cx="262" cy="-161.28" rx="61.18" ry="18"/>
<ellipse fill="none" stroke="black" cx="262" cy="-161.28" rx="65.18" ry="22"/>
<ellipse fill="none" stroke="black" cx="262" cy="-161.28" rx="69.19" ry="26"/>
<text text-anchor="middle" x="262" y="-157.58" font-family="Times,serif" font-size="14.00">unit_tricho</text>
</a>
</g>
</g>
<!-- sum_Unit_lt -->
<g id="node5" class="node">
<title>sum_Unit_lt</title>
<g id="a_node5"><a xlink:href="sum.html#Unit_lt" xlink:title="Unit_lt">
<ellipse fill="#f070d1" stroke="black" cx="262" cy="-48.28" rx="42.49" ry="18"/>
<text text-anchor="middle" x="262" y="-44.58" font-family="Times,serif" font-size="14.00">Unit_lt</text>
</a>
</g>
</g>
<!-- sum_unit_tricho&#45;&gt;sum_Unit_lt -->
<g id="edge2" class="edge">
<title>sum_unit_tricho&#45;&gt;sum_Unit_lt</title>
<path fill="none" stroke="black" d="M262,-135.1C262,-117.64 262,-94.41 262,-76.53"/>
<polygon fill="black" stroke="black" points="265.5,-76.44 262,-66.44 258.5,-76.44 265.5,-76.44"/>
</g>
<!-- sum_empty_tricho -->
<g id="node4" class="node">
<title>sum_empty_tricho</title>
<g id="a_node4"><a xlink:href="sum.html#empty_tricho" xlink:title="empty_tricho">
<ellipse fill="#f070d1" stroke="black" cx="95" cy="-161.28" rx="71.49" ry="18"/>
<ellipse fill="none" stroke="black" cx="95" cy="-161.28" rx="75.49" ry="22"/>
<ellipse fill="none" stroke="black" cx="95" cy="-161.28" rx="79.49" ry="26"/>
<text text-anchor="middle" x="95" y="-157.58" font-family="Times,serif" font-size="14.00">empty_tricho</text>
</a>
</g>
</g>
<!-- sum_Empty_lt -->
<g id="node6" class="node">
<title>sum_Empty_lt</title>
<g id="a_node6"><a xlink:href="sum.html#Empty_lt" xlink:title="Empty_lt">
<ellipse fill="#f070d1" stroke="black" cx="95" cy="-48.28" rx="52.79" ry="18"/>
<text text-anchor="middle" x="95" y="-44.58" font-family="Times,serif" font-size="14.00">Empty_lt</text>
</a>
</g>
</g>
<!-- sum_empty_tricho&#45;&gt;sum_Empty_lt -->
<g id="edge3" class="edge">
<title>sum_empty_tricho&#45;&gt;sum_Empty_lt</title>
<path fill="none" stroke="black" d="M95,-135.1C95,-117.64 95,-94.41 95,-76.53"/>
<polygon fill="black" stroke="black" points="98.5,-76.44 95,-66.44 91.5,-76.44 98.5,-76.44"/>
</g>
</g>
</svg>
