<?xml version="1.0" encoding="UTF-8" standalone="no"?>
<!DOCTYPE svg PUBLIC "-//W3C//DTD SVG 1.1//EN"
 "http://www.w3.org/Graphics/SVG/1.1/DTD/svg11.dtd">
<!-- Generated by graphviz version 2.43.0 (0)
 -->
<!-- Title: HoTT_Algebra_Groups_QuotientGroup Pages: 1 -->
<svg width="1758pt" height="883pt"
 viewBox="0.00 0.00 1758.00 883.00" xmlns="http://www.w3.org/2000/svg" xmlns:xlink="http://www.w3.org/1999/xlink">
<g id="graph0" class="graph" transform="scale(1 1) rotate(0) translate(4 879)">
<title>HoTT_Algebra_Groups_QuotientGroup</title>
<polygon fill="white" stroke="transparent" points="-4,4 -4,-879 1754,-879 1754,4 -4,4"/>
<g id="clust1" class="cluster">
<title>cluster_QuotientGroup</title>
<polygon fill="#ffffc3" stroke="black" points="8.82,-8 8.82,-867 1741.18,-867 1741.18,-8 8.82,-8"/>
<text text-anchor="middle" x="70.32" y="-851.8" font-family="Times,serif" font-size="14.00">QuotientGroup</text>
</g>
<!-- QuotientGroup_grp_kernel_quotient_iso -->
<g id="node1" class="node">
<title>QuotientGroup_grp_kernel_quotient_iso</title>
<g id="a_node1"><a xlink:href="QuotientGroup.html#grp_kernel_quotient_iso" xlink:title="grp_kernel_quotient_iso">
<ellipse fill="#f070d1" stroke="black" cx="777.34" cy="-634" rx="121.58" ry="18"/>
<ellipse fill="none" stroke="black" cx="777.34" cy="-634" rx="125.58" ry="22"/>
<ellipse fill="none" stroke="black" cx="777.34" cy="-634" rx="129.58" ry="26"/>
<text text-anchor="middle" x="777.34" y="-630.3" font-family="Times,serif" font-size="14.00">grp_kernel_quotient_iso</text>
</a>
</g>
</g>
<!-- QuotientGroup_grp_quotient_map -->
<g id="node13" class="node">
<title>QuotientGroup_grp_quotient_map</title>
<g id="a_node13"><a xlink:href="QuotientGroup.html#grp_quotient_map" xlink:title="grp_quotient_map">
<ellipse fill="#f070d1" stroke="black" cx="815.34" cy="-546" rx="94.78" ry="18"/>
<text text-anchor="middle" x="815.34" y="-542.3" font-family="Times,serif" font-size="14.00">grp_quotient_map</text>
</a>
</g>
</g>
<!-- QuotientGroup_grp_kernel_quotient_iso&#45;&gt;QuotientGroup_grp_quotient_map -->
<g id="edge1" class="edge">
<title>QuotientGroup_grp_kernel_quotient_iso&#45;&gt;QuotientGroup_grp_quotient_map</title>
<path fill="none" stroke="black" d="M788.53,-607.66C793.29,-596.89 798.84,-584.33 803.66,-573.44"/>
<polygon fill="black" stroke="black" points="806.98,-574.57 807.82,-564 800.58,-571.74 806.98,-574.57"/>
</g>
<!-- QuotientGroup_finite_quotientgroup -->
<g id="node2" class="node">
<title>QuotientGroup_finite_quotientgroup</title>
<g id="a_node2"><a xlink:href="QuotientGroup.html#finite_quotientgroup" xlink:title="finite_quotientgroup">
<ellipse fill="#f070d1" stroke="black" cx="1319.34" cy="-546" rx="105.1" ry="18"/>
<ellipse fill="none" stroke="black" cx="1319.34" cy="-546" rx="109.09" ry="22"/>
<ellipse fill="none" stroke="black" cx="1319.34" cy="-546" rx="113.08" ry="26"/>
<text text-anchor="middle" x="1319.34" y="-542.3" font-family="Times,serif" font-size="14.00">finite_quotientgroup</text>
</a>
</g>
</g>
<!-- QuotientGroup_QuotientGroup -->
<g id="node14" class="node">
<title>QuotientGroup_QuotientGroup</title>
<g id="a_node14"><a xlink:href="QuotientGroup.html#QuotientGroup" xlink:title="QuotientGroup">
<ellipse fill="#f070d1" stroke="black" cx="815.34" cy="-466" rx="79.89" ry="18"/>
<text text-anchor="middle" x="815.34" y="-462.3" font-family="Times,serif" font-size="14.00">QuotientGroup</text>
</a>
</g>
</g>
<!-- QuotientGroup_finite_quotientgroup&#45;&gt;QuotientGroup_QuotientGroup -->
<g id="edge2" class="edge">
<title>QuotientGroup_finite_quotientgroup&#45;&gt;QuotientGroup_QuotientGroup</title>
<path fill="none" stroke="black" d="M1231.6,-529.52C1212.72,-526.29 1192.88,-522.97 1174.34,-520 1076.75,-504.39 963.96,-488.01 891.24,-477.66"/>
<polygon fill="black" stroke="black" points="891.64,-474.18 881.25,-476.24 890.66,-481.12 891.64,-474.18"/>
</g>
<!-- QuotientGroup_grp_first_iso -->
<g id="node3" class="node">
<title>QuotientGroup_grp_first_iso</title>
<g id="a_node3"><a xlink:href="QuotientGroup.html#grp_first_iso" xlink:title="grp_first_iso">
<ellipse fill="#f070d1" stroke="black" cx="1578.34" cy="-810" rx="67.68" ry="18"/>
<ellipse fill="none" stroke="black" cx="1578.34" cy="-810" rx="71.68" ry="22"/>
<ellipse fill="none" stroke="black" cx="1578.34" cy="-810" rx="75.69" ry="26"/>
<text text-anchor="middle" x="1578.34" y="-806.3" font-family="Times,serif" font-size="14.00">grp_first_iso</text>
</a>
</g>
</g>
<!-- QuotientGroup_isequiv_grp_image_quotient -->
<g id="node4" class="node">
<title>QuotientGroup_isequiv_grp_image_quotient</title>
<g id="a_node4"><a xlink:href="QuotientGroup.html#isequiv_grp_image_quotient" xlink:title="isequiv_grp_image_quotient">
<ellipse fill="#f070d1" stroke="black" cx="1578.34" cy="-722" rx="140.28" ry="18"/>
<text text-anchor="middle" x="1578.34" y="-718.3" font-family="Times,serif" font-size="14.00">isequiv_grp_image_quotient</text>
</a>
</g>
</g>
<!-- QuotientGroup_grp_first_iso&#45;&gt;QuotientGroup_isequiv_grp_image_quotient -->
<g id="edge3" class="edge">
<title>QuotientGroup_grp_first_iso&#45;&gt;QuotientGroup_isequiv_grp_image_quotient</title>
<path fill="none" stroke="black" d="M1578.34,-783.66C1578.34,-773.11 1578.34,-760.84 1578.34,-750.1"/>
<polygon fill="black" stroke="black" points="1581.84,-750 1578.34,-740 1574.84,-750 1581.84,-750"/>
</g>
<!-- QuotientGroup_grp_image_quotient -->
<g id="node5" class="node">
<title>QuotientGroup_grp_image_quotient</title>
<g id="a_node5"><a xlink:href="QuotientGroup.html#grp_image_quotient" xlink:title="grp_image_quotient">
<ellipse fill="#f070d1" stroke="black" cx="1619.34" cy="-634" rx="102.88" ry="18"/>
<text text-anchor="middle" x="1619.34" y="-630.3" font-family="Times,serif" font-size="14.00">grp_image_quotient</text>
</a>
</g>
</g>
<!-- QuotientGroup_isequiv_grp_image_quotient&#45;&gt;QuotientGroup_grp_image_quotient -->
<g id="edge4" class="edge">
<title>QuotientGroup_isequiv_grp_image_quotient&#45;&gt;QuotientGroup_grp_image_quotient</title>
<path fill="none" stroke="black" d="M1586.44,-704.01C1592.28,-691.76 1600.27,-675 1606.91,-661.06"/>
<polygon fill="black" stroke="black" points="1610.11,-662.49 1611.25,-651.96 1603.79,-659.48 1610.11,-662.49"/>
</g>
<!-- QuotientGroup_grp_quotient_rec -->
<g id="node12" class="node">
<title>QuotientGroup_grp_quotient_rec</title>
<g id="a_node12"><a xlink:href="QuotientGroup.html#grp_quotient_rec" xlink:title="grp_quotient_rec">
<ellipse fill="#f070d1" stroke="black" cx="1076.34" cy="-546" rx="89.08" ry="18"/>
<text text-anchor="middle" x="1076.34" y="-542.3" font-family="Times,serif" font-size="14.00">grp_quotient_rec</text>
</a>
</g>
</g>
<!-- QuotientGroup_grp_image_quotient&#45;&gt;QuotientGroup_grp_quotient_rec -->
<g id="edge5" class="edge">
<title>QuotientGroup_grp_image_quotient&#45;&gt;QuotientGroup_grp_quotient_rec</title>
<path fill="none" stroke="black" d="M1553.4,-620.1C1531.19,-615.97 1506.23,-611.54 1483.34,-608 1356.73,-588.41 1323.72,-592.98 1197.34,-572 1179.91,-569.11 1161.18,-565.49 1143.78,-561.91"/>
<polygon fill="black" stroke="black" points="1144.22,-558.43 1133.71,-559.82 1142.79,-565.28 1144.22,-558.43"/>
</g>
<!-- QuotientGroup_equiv_grp_quotient_ump -->
<g id="node6" class="node">
<title>QuotientGroup_equiv_grp_quotient_ump</title>
<g id="a_node6"><a xlink:href="QuotientGroup.html#equiv_grp_quotient_ump" xlink:title="equiv_grp_quotient_ump">
<ellipse fill="#f070d1" stroke="black" cx="1257.34" cy="-722" rx="124.59" ry="18"/>
<ellipse fill="none" stroke="black" cx="1257.34" cy="-722" rx="128.58" ry="22"/>
<ellipse fill="none" stroke="black" cx="1257.34" cy="-722" rx="132.58" ry="26"/>
<text text-anchor="middle" x="1257.34" y="-718.3" font-family="Times,serif" font-size="14.00">equiv_grp_quotient_ump</text>
</a>
</g>
</g>
<!-- QuotientGroup_grp_quotient_rec_beta -->
<g id="node9" class="node">
<title>QuotientGroup_grp_quotient_rec_beta</title>
<g id="a_node9"><a xlink:href="QuotientGroup.html#grp_quotient_rec_beta" xlink:title="grp_quotient_rec_beta">
<ellipse fill="#f070d1" stroke="black" cx="1360.34" cy="-634" rx="114.28" ry="18"/>
<text text-anchor="middle" x="1360.34" y="-630.3" font-family="Times,serif" font-size="14.00">grp_quotient_rec_beta</text>
</a>
</g>
</g>
<!-- QuotientGroup_equiv_grp_quotient_ump&#45;&gt;QuotientGroup_grp_quotient_rec_beta -->
<g id="edge6" class="edge">
<title>QuotientGroup_equiv_grp_quotient_ump&#45;&gt;QuotientGroup_grp_quotient_rec_beta</title>
<path fill="none" stroke="black" d="M1286.58,-696.59C1300.9,-684.63 1318.06,-670.3 1332.22,-658.47"/>
<polygon fill="black" stroke="black" points="1334.74,-660.93 1340.17,-651.84 1330.25,-655.56 1334.74,-660.93"/>
</g>
<!-- QuotientGroup_grp_iso_quotient_normal -->
<g id="node7" class="node">
<title>QuotientGroup_grp_iso_quotient_normal</title>
<g id="a_node7"><a xlink:href="QuotientGroup.html#grp_iso_quotient_normal" xlink:title="grp_iso_quotient_normal">
<ellipse fill="#f070d1" stroke="black" cx="164.34" cy="-634" rx="124.59" ry="18"/>
<ellipse fill="none" stroke="black" cx="164.34" cy="-634" rx="128.58" ry="22"/>
<ellipse fill="none" stroke="black" cx="164.34" cy="-634" rx="132.58" ry="26"/>
<text text-anchor="middle" x="164.34" y="-630.3" font-family="Times,serif" font-size="14.00">grp_iso_quotient_normal</text>
</a>
</g>
</g>
<!-- QuotientGroup_QuotientGroup_ -->
<g id="node10" class="node">
<title>QuotientGroup_QuotientGroup_</title>
<g id="a_node10"><a xlink:href="QuotientGroup.html#QuotientGroup'" xlink:title="QuotientGroup&#39;">
<ellipse fill="#f070d1" stroke="black" cx="363.34" cy="-546" rx="82.59" ry="18"/>
<text text-anchor="middle" x="363.34" y="-542.3" font-family="Times,serif" font-size="14.00">QuotientGroup&#39;</text>
</a>
</g>
</g>
<!-- QuotientGroup_grp_iso_quotient_normal&#45;&gt;QuotientGroup_QuotientGroup_ -->
<g id="edge7" class="edge">
<title>QuotientGroup_grp_iso_quotient_normal&#45;&gt;QuotientGroup_QuotientGroup_</title>
<path fill="none" stroke="black" d="M217.4,-610.07C248.99,-596.42 288.62,-579.29 318.61,-566.33"/>
<polygon fill="black" stroke="black" points="320.19,-569.46 327.98,-562.28 317.41,-563.03 320.19,-569.46"/>
</g>
<!-- QuotientGroup_grp_quotient_rec_beta_ -->
<g id="node8" class="node">
<title>QuotientGroup_grp_quotient_rec_beta_</title>
<g id="a_node8"><a xlink:href="QuotientGroup.html#grp_quotient_rec_beta'" xlink:title="grp_quotient_rec_beta&#39;">
<ellipse fill="#f070d1" stroke="black" cx="1076.34" cy="-634" rx="116.19" ry="18"/>
<ellipse fill="none" stroke="black" cx="1076.34" cy="-634" rx="120.18" ry="22"/>
<ellipse fill="none" stroke="black" cx="1076.34" cy="-634" rx="124.18" ry="26"/>
<text text-anchor="middle" x="1076.34" y="-630.3" font-family="Times,serif" font-size="14.00">grp_quotient_rec_beta&#39;</text>
</a>
</g>
</g>
<!-- QuotientGroup_grp_quotient_rec_beta_&#45;&gt;QuotientGroup_grp_quotient_rec -->
<g id="edge8" class="edge">
<title>QuotientGroup_grp_quotient_rec_beta_&#45;&gt;QuotientGroup_grp_quotient_rec</title>
<path fill="none" stroke="black" d="M1076.34,-607.66C1076.34,-597.11 1076.34,-584.84 1076.34,-574.1"/>
<polygon fill="black" stroke="black" points="1079.84,-574 1076.34,-564 1072.84,-574 1079.84,-574"/>
</g>
<!-- QuotientGroup_grp_quotient_rec_beta_&#45;&gt;QuotientGroup_grp_quotient_map -->
<g id="edge9" class="edge">
<title>QuotientGroup_grp_quotient_rec_beta_&#45;&gt;QuotientGroup_grp_quotient_map</title>
<path fill="none" stroke="black" d="M1011.82,-611.74C968.36,-597.42 911.64,-578.73 870.33,-565.12"/>
<polygon fill="black" stroke="black" points="871.29,-561.75 860.7,-561.95 869.1,-568.4 871.29,-561.75"/>
</g>
<!-- QuotientGroup_grp_quotient_rec_beta&#45;&gt;QuotientGroup_grp_quotient_rec -->
<g id="edge10" class="edge">
<title>QuotientGroup_grp_quotient_rec_beta&#45;&gt;QuotientGroup_grp_quotient_rec</title>
<path fill="none" stroke="black" d="M1309.89,-617.72C1260.33,-602.71 1184.82,-579.85 1133.16,-564.21"/>
<polygon fill="black" stroke="black" points="1134.07,-560.83 1123.48,-561.28 1132.04,-567.52 1134.07,-560.83"/>
</g>
<!-- QuotientGroup_grp_quotient_rec_beta&#45;&gt;QuotientGroup_grp_quotient_map -->
<g id="edge11" class="edge">
<title>QuotientGroup_grp_quotient_rec_beta&#45;&gt;QuotientGroup_grp_quotient_map</title>
<path fill="none" stroke="black" d="M1285.09,-620.38C1260.91,-616.37 1234,-611.95 1209.34,-608 1150.75,-598.62 993.94,-574.44 896.74,-559.5"/>
<polygon fill="black" stroke="black" points="897.06,-556.01 886.65,-557.95 896,-562.93 897.06,-556.01"/>
</g>
<!-- QuotientGroup_QuotientGroup_&#45;&gt;QuotientGroup_QuotientGroup -->
<g id="edge12" class="edge">
<title>QuotientGroup_QuotientGroup_&#45;&gt;QuotientGroup_QuotientGroup</title>
<path fill="none" stroke="black" d="M426.19,-534.15C509.49,-519.78 656.11,-494.48 743.64,-479.37"/>
<polygon fill="black" stroke="black" points="744.49,-482.78 753.75,-477.63 743.3,-475.88 744.49,-482.78"/>
</g>
<!-- QuotientGroup_grp_quotient_ind_hprop -->
<g id="node11" class="node">
<title>QuotientGroup_grp_quotient_ind_hprop</title>
<g id="a_node11"><a xlink:href="QuotientGroup.html#grp_quotient_ind_hprop" xlink:title="grp_quotient_ind_hprop">
<ellipse fill="#f070d1" stroke="black" cx="472.34" cy="-634" rx="120.79" ry="18"/>
<ellipse fill="none" stroke="black" cx="472.34" cy="-634" rx="124.78" ry="22"/>
<ellipse fill="none" stroke="black" cx="472.34" cy="-634" rx="128.78" ry="26"/>
<text text-anchor="middle" x="472.34" y="-630.3" font-family="Times,serif" font-size="14.00">grp_quotient_ind_hprop</text>
</a>
</g>
</g>
<!-- QuotientGroup_grp_quotient_ind_hprop&#45;&gt;QuotientGroup_grp_quotient_map -->
<g id="edge13" class="edge">
<title>QuotientGroup_grp_quotient_ind_hprop&#45;&gt;QuotientGroup_grp_quotient_map</title>
<path fill="none" stroke="black" d="M551.03,-613.27C611.48,-598.11 693.95,-577.44 750.6,-563.23"/>
<polygon fill="black" stroke="black" points="751.67,-566.57 760.52,-560.74 749.97,-559.78 751.67,-566.57"/>
</g>
<!-- QuotientGroup_grp_quotient_rec&#45;&gt;QuotientGroup_QuotientGroup -->
<g id="edge14" class="edge">
<title>QuotientGroup_grp_quotient_rec&#45;&gt;QuotientGroup_QuotientGroup</title>
<path fill="none" stroke="black" d="M1028.47,-530.69C984.09,-517.43 918.05,-497.7 871.27,-483.71"/>
<polygon fill="black" stroke="black" points="872.17,-480.33 861.59,-480.82 870.17,-487.04 872.17,-480.33"/>
</g>
<!-- QuotientGroup_grp_quotient_map&#45;&gt;QuotientGroup_QuotientGroup -->
<g id="edge15" class="edge">
<title>QuotientGroup_grp_quotient_map&#45;&gt;QuotientGroup_QuotientGroup</title>
<path fill="none" stroke="black" d="M815.34,-527.69C815.34,-517.89 815.34,-505.42 815.34,-494.33"/>
<polygon fill="black" stroke="black" points="818.84,-494.26 815.34,-484.26 811.84,-494.26 818.84,-494.26"/>
</g>
<!-- QuotientGroup_iscongruence_in_cosetL -->
<g id="node16" class="node">
<title>QuotientGroup_iscongruence_in_cosetL</title>
<g id="a_node16"><a xlink:href="QuotientGroup.html#iscongruence_in_cosetL" xlink:title="iscongruence_in_cosetL">
<ellipse fill="#f070d1" stroke="black" cx="534.34" cy="-394" rx="120.48" ry="18"/>
<text text-anchor="middle" x="534.34" y="-390.3" font-family="Times,serif" font-size="14.00">iscongruence_in_cosetL</text>
</a>
</g>
</g>
<!-- QuotientGroup_QuotientGroup&#45;&gt;QuotientGroup_iscongruence_in_cosetL -->
<g id="edge16" class="edge">
<title>QuotientGroup_QuotientGroup&#45;&gt;QuotientGroup_iscongruence_in_cosetL</title>
<path fill="none" stroke="black" d="M763.8,-452.16C718.74,-440.94 652.93,-424.54 603.34,-412.19"/>
<polygon fill="black" stroke="black" points="603.88,-408.72 593.33,-409.7 602.19,-415.51 603.88,-408.72"/>
</g>
<!-- QuotientGroup_isgroup_quotientgroup -->
<g id="node17" class="node">
<title>QuotientGroup_isgroup_quotientgroup</title>
<g id="a_node17"><a xlink:href="QuotientGroup.html#isgroup_quotientgroup" xlink:title="isgroup_quotientgroup">
<ellipse fill="#f070d1" stroke="black" cx="815.34" cy="-394" rx="116.18" ry="18"/>
<text text-anchor="middle" x="815.34" y="-390.3" font-family="Times,serif" font-size="14.00">isgroup_quotientgroup</text>
</a>
</g>
</g>
<!-- QuotientGroup_QuotientGroup&#45;&gt;QuotientGroup_isgroup_quotientgroup -->
<g id="edge17" class="edge">
<title>QuotientGroup_QuotientGroup&#45;&gt;QuotientGroup_isgroup_quotientgroup</title>
<path fill="none" stroke="black" d="M815.34,-447.7C815.34,-439.98 815.34,-430.71 815.34,-422.11"/>
<polygon fill="black" stroke="black" points="818.84,-422.1 815.34,-412.1 811.84,-422.1 818.84,-422.1"/>
</g>
<!-- QuotientGroup_iscongruence_in_cosetR -->
<g id="node15" class="node">
<title>QuotientGroup_iscongruence_in_cosetR</title>
<g id="a_node15"><a xlink:href="QuotientGroup.html#iscongruence_in_cosetR" xlink:title="iscongruence_in_cosetR">
<ellipse fill="#f070d1" stroke="black" cx="747.34" cy="-810" rx="120.79" ry="18"/>
<ellipse fill="none" stroke="black" cx="747.34" cy="-810" rx="124.78" ry="22"/>
<ellipse fill="none" stroke="black" cx="747.34" cy="-810" rx="128.78" ry="26"/>
<text text-anchor="middle" x="747.34" y="-806.3" font-family="Times,serif" font-size="14.00">iscongruence_in_cosetR</text>
</a>
</g>
</g>
<!-- QuotientGroup_quotientgroup_rightinverse -->
<g id="node18" class="node">
<title>QuotientGroup_quotientgroup_rightinverse</title>
<g id="a_node18"><a xlink:href="QuotientGroup.html#quotientgroup_rightinverse" xlink:title="quotientgroup_rightinverse">
<ellipse fill="#f070d1" stroke="black" cx="411.34" cy="-178" rx="138.38" ry="18"/>
<text text-anchor="middle" x="411.34" y="-174.3" font-family="Times,serif" font-size="14.00">quotientgroup_rightinverse</text>
</a>
</g>
</g>
<!-- QuotientGroup_isgroup_quotientgroup&#45;&gt;QuotientGroup_quotientgroup_rightinverse -->
<g id="edge18" class="edge">
<title>QuotientGroup_isgroup_quotientgroup&#45;&gt;QuotientGroup_quotientgroup_rightinverse</title>
<path fill="none" stroke="black" d="M784.31,-376.56C711.99,-338.25 532.27,-243.06 451.62,-200.34"/>
<polygon fill="black" stroke="black" points="453.23,-197.23 442.75,-195.64 449.95,-203.41 453.23,-197.23"/>
</g>
<!-- QuotientGroup_quotientgroup_leftinverse -->
<g id="node19" class="node">
<title>QuotientGroup_quotientgroup_leftinverse</title>
<g id="a_node19"><a xlink:href="QuotientGroup.html#quotientgroup_leftinverse" xlink:title="quotientgroup_leftinverse">
<ellipse fill="#f070d1" stroke="black" cx="728.34" cy="-178" rx="131.08" ry="18"/>
<text text-anchor="middle" x="728.34" y="-174.3" font-family="Times,serif" font-size="14.00">quotientgroup_leftinverse</text>
</a>
</g>
</g>
<!-- QuotientGroup_isgroup_quotientgroup&#45;&gt;QuotientGroup_quotientgroup_leftinverse -->
<g id="edge19" class="edge">
<title>QuotientGroup_isgroup_quotientgroup&#45;&gt;QuotientGroup_quotientgroup_leftinverse</title>
<path fill="none" stroke="black" d="M808.37,-375.85C793.22,-338.6 757.23,-250.07 739.13,-205.54"/>
<polygon fill="black" stroke="black" points="742.35,-204.18 735.34,-196.23 735.87,-206.81 742.35,-204.18"/>
</g>
<!-- QuotientGroup_ismonoid_quotientgroup -->
<g id="node20" class="node">
<title>QuotientGroup_ismonoid_quotientgroup</title>
<g id="a_node20"><a xlink:href="QuotientGroup.html#ismonoid_quotientgroup" xlink:title="ismonoid_quotientgroup">
<ellipse fill="#f070d1" stroke="black" cx="1148.34" cy="-322" rx="123.48" ry="18"/>
<text text-anchor="middle" x="1148.34" y="-318.3" font-family="Times,serif" font-size="14.00">ismonoid_quotientgroup</text>
</a>
</g>
</g>
<!-- QuotientGroup_isgroup_quotientgroup&#45;&gt;QuotientGroup_ismonoid_quotientgroup -->
<g id="edge20" class="edge">
<title>QuotientGroup_isgroup_quotientgroup&#45;&gt;QuotientGroup_ismonoid_quotientgroup</title>
<path fill="none" stroke="black" d="M881.53,-379.09C936.1,-367.61 1013.6,-351.32 1071.02,-339.25"/>
<polygon fill="black" stroke="black" points="1072.07,-342.61 1081.13,-337.13 1070.63,-335.76 1072.07,-342.61"/>
</g>
<!-- QuotientGroup_congquot_negate -->
<g id="node25" class="node">
<title>QuotientGroup_congquot_negate</title>
<g id="a_node25"><a xlink:href="QuotientGroup.html#congquot_negate" xlink:title="congquot_negate">
<ellipse fill="#f070d1" stroke="black" cx="565.34" cy="-106" rx="89.88" ry="18"/>
<text text-anchor="middle" x="565.34" y="-102.3" font-family="Times,serif" font-size="14.00">congquot_negate</text>
</a>
</g>
</g>
<!-- QuotientGroup_quotientgroup_rightinverse&#45;&gt;QuotientGroup_congquot_negate -->
<g id="edge21" class="edge">
<title>QuotientGroup_quotientgroup_rightinverse&#45;&gt;QuotientGroup_congquot_negate</title>
<path fill="none" stroke="black" d="M447.44,-160.59C469.56,-150.54 498.01,-137.6 521.42,-126.96"/>
<polygon fill="black" stroke="black" points="523.13,-130.03 530.78,-122.71 520.23,-123.66 523.13,-130.03"/>
</g>
<!-- QuotientGroup_congquot_mon_unit -->
<g id="node26" class="node">
<title>QuotientGroup_congquot_mon_unit</title>
<g id="a_node26"><a xlink:href="QuotientGroup.html#congquot_mon_unit" xlink:title="congquot_mon_unit">
<ellipse fill="#f070d1" stroke="black" cx="794.34" cy="-106" rx="100.98" ry="18"/>
<text text-anchor="middle" x="794.34" y="-102.3" font-family="Times,serif" font-size="14.00">congquot_mon_unit</text>
</a>
</g>
</g>
<!-- QuotientGroup_quotientgroup_rightinverse&#45;&gt;QuotientGroup_congquot_mon_unit -->
<g id="edge22" class="edge">
<title>QuotientGroup_quotientgroup_rightinverse&#45;&gt;QuotientGroup_congquot_mon_unit</title>
<path fill="none" stroke="black" d="M487.92,-163C554.26,-150.88 649.8,-133.42 716.51,-121.23"/>
<polygon fill="black" stroke="black" points="717.33,-124.63 726.54,-119.39 716.08,-117.75 717.33,-124.63"/>
</g>
<!-- QuotientGroup_congquot_sgop -->
<g id="node27" class="node">
<title>QuotientGroup_congquot_sgop</title>
<g id="a_node27"><a xlink:href="QuotientGroup.html#congquot_sgop" xlink:title="congquot_sgop">
<ellipse fill="#f070d1" stroke="black" cx="1014.34" cy="-106" rx="79.89" ry="18"/>
<text text-anchor="middle" x="1014.34" y="-102.3" font-family="Times,serif" font-size="14.00">congquot_sgop</text>
</a>
</g>
</g>
<!-- QuotientGroup_quotientgroup_rightinverse&#45;&gt;QuotientGroup_congquot_sgop -->
<g id="edge23" class="edge">
<title>QuotientGroup_quotientgroup_rightinverse&#45;&gt;QuotientGroup_congquot_sgop</title>
<path fill="none" stroke="black" d="M520.19,-166.76C620.2,-157 772.46,-141.27 904.34,-124 916.31,-122.43 929,-120.62 941.33,-118.77"/>
<polygon fill="black" stroke="black" points="942.22,-122.17 951.59,-117.21 941.17,-115.25 942.22,-122.17"/>
</g>
<!-- QuotientGroup_quotientgroup_leftinverse&#45;&gt;QuotientGroup_congquot_negate -->
<g id="edge24" class="edge">
<title>QuotientGroup_quotientgroup_leftinverse&#45;&gt;QuotientGroup_congquot_negate</title>
<path fill="none" stroke="black" d="M690.12,-160.59C666.42,-150.41 635.85,-137.28 610.9,-126.57"/>
<polygon fill="black" stroke="black" points="612.21,-123.32 601.64,-122.59 609.44,-129.75 612.21,-123.32"/>
</g>
<!-- QuotientGroup_quotientgroup_leftinverse&#45;&gt;QuotientGroup_congquot_mon_unit -->
<g id="edge25" class="edge">
<title>QuotientGroup_quotientgroup_leftinverse&#45;&gt;QuotientGroup_congquot_mon_unit</title>
<path fill="none" stroke="black" d="M744.31,-160.05C752.5,-151.37 762.62,-140.64 771.6,-131.11"/>
<polygon fill="black" stroke="black" points="774.19,-133.47 778.51,-123.79 769.1,-128.66 774.19,-133.47"/>
</g>
<!-- QuotientGroup_quotientgroup_leftinverse&#45;&gt;QuotientGroup_congquot_sgop -->
<g id="edge26" class="edge">
<title>QuotientGroup_quotientgroup_leftinverse&#45;&gt;QuotientGroup_congquot_sgop</title>
<path fill="none" stroke="black" d="M789.69,-161.98C837.65,-150.24 904.04,-133.99 952.2,-122.21"/>
<polygon fill="black" stroke="black" points="953.31,-125.54 962.19,-119.76 951.65,-118.74 953.31,-125.54"/>
</g>
<!-- QuotientGroup_congquot_rightidentity -->
<g id="node21" class="node">
<title>QuotientGroup_congquot_rightidentity</title>
<g id="a_node21"><a xlink:href="QuotientGroup.html#congquot_rightidentity" xlink:title="congquot_rightidentity">
<ellipse fill="#f070d1" stroke="black" cx="1284.34" cy="-178" rx="116.98" ry="18"/>
<text text-anchor="middle" x="1284.34" y="-174.3" font-family="Times,serif" font-size="14.00">congquot_rightidentity</text>
</a>
</g>
</g>
<!-- QuotientGroup_ismonoid_quotientgroup&#45;&gt;QuotientGroup_congquot_rightidentity -->
<g id="edge27" class="edge">
<title>QuotientGroup_ismonoid_quotientgroup&#45;&gt;QuotientGroup_congquot_rightidentity</title>
<path fill="none" stroke="black" d="M1164.47,-304.15C1188.37,-279.2 1233.31,-232.28 1260.86,-203.52"/>
<polygon fill="black" stroke="black" points="1263.41,-205.91 1267.8,-196.27 1258.35,-201.07 1263.41,-205.91"/>
</g>
<!-- QuotientGroup_congquot_leftidentity -->
<g id="node22" class="node">
<title>QuotientGroup_congquot_leftidentity</title>
<g id="a_node22"><a xlink:href="QuotientGroup.html#congquot_leftidentity" xlink:title="congquot_leftidentity">
<ellipse fill="#f070d1" stroke="black" cx="1014.34" cy="-178" rx="109.68" ry="18"/>
<text text-anchor="middle" x="1014.34" y="-174.3" font-family="Times,serif" font-size="14.00">congquot_leftidentity</text>
</a>
</g>
</g>
<!-- QuotientGroup_ismonoid_quotientgroup&#45;&gt;QuotientGroup_congquot_leftidentity -->
<g id="edge28" class="edge">
<title>QuotientGroup_ismonoid_quotientgroup&#45;&gt;QuotientGroup_congquot_leftidentity</title>
<path fill="none" stroke="black" d="M1132.17,-303.87C1108.63,-278.92 1064.78,-232.45 1037.71,-203.77"/>
<polygon fill="black" stroke="black" points="1039.97,-201.06 1030.56,-196.19 1034.88,-205.86 1039.97,-201.06"/>
</g>
<!-- QuotientGroup_issemigroup_congquot -->
<g id="node23" class="node">
<title>QuotientGroup_issemigroup_congquot</title>
<g id="a_node23"><a xlink:href="QuotientGroup.html#issemigroup_congquot" xlink:title="issemigroup_congquot">
<ellipse fill="#f070d1" stroke="black" cx="1506.34" cy="-250" rx="115.08" ry="18"/>
<text text-anchor="middle" x="1506.34" y="-246.3" font-family="Times,serif" font-size="14.00">issemigroup_congquot</text>
</a>
</g>
</g>
<!-- QuotientGroup_ismonoid_quotientgroup&#45;&gt;QuotientGroup_issemigroup_congquot -->
<g id="edge29" class="edge">
<title>QuotientGroup_ismonoid_quotientgroup&#45;&gt;QuotientGroup_issemigroup_congquot</title>
<path fill="none" stroke="black" d="M1219.07,-307.17C1279.1,-295.43 1365.15,-278.61 1427.41,-266.43"/>
<polygon fill="black" stroke="black" points="1428.44,-269.8 1437.58,-264.44 1427.09,-262.93 1428.44,-269.8"/>
</g>
<!-- QuotientGroup_congquot_rightidentity&#45;&gt;QuotientGroup_congquot_mon_unit -->
<g id="edge30" class="edge">
<title>QuotientGroup_congquot_rightidentity&#45;&gt;QuotientGroup_congquot_mon_unit</title>
<path fill="none" stroke="black" d="M1201.77,-165.2C1112.52,-152.45 970.92,-132.23 880.35,-119.29"/>
<polygon fill="black" stroke="black" points="880.78,-115.81 870.39,-117.86 879.79,-122.74 880.78,-115.81"/>
</g>
<!-- QuotientGroup_congquot_rightidentity&#45;&gt;QuotientGroup_congquot_sgop -->
<g id="edge31" class="edge">
<title>QuotientGroup_congquot_rightidentity&#45;&gt;QuotientGroup_congquot_sgop</title>
<path fill="none" stroke="black" d="M1227.41,-162.24C1182.58,-150.62 1120.25,-134.46 1074.59,-122.62"/>
<polygon fill="black" stroke="black" points="1075.38,-119.21 1064.82,-120.09 1073.62,-125.99 1075.38,-119.21"/>
</g>
<!-- QuotientGroup_congquot_leftidentity&#45;&gt;QuotientGroup_congquot_mon_unit -->
<g id="edge32" class="edge">
<title>QuotientGroup_congquot_leftidentity&#45;&gt;QuotientGroup_congquot_mon_unit</title>
<path fill="none" stroke="black" d="M966.33,-161.72C932.47,-150.95 886.97,-136.47 851.28,-125.12"/>
<polygon fill="black" stroke="black" points="852.08,-121.7 841.49,-122 849.96,-128.37 852.08,-121.7"/>
</g>
<!-- QuotientGroup_congquot_leftidentity&#45;&gt;QuotientGroup_congquot_sgop -->
<g id="edge33" class="edge">
<title>QuotientGroup_congquot_leftidentity&#45;&gt;QuotientGroup_congquot_sgop</title>
<path fill="none" stroke="black" d="M1014.34,-159.7C1014.34,-151.98 1014.34,-142.71 1014.34,-134.11"/>
<polygon fill="black" stroke="black" points="1017.84,-134.1 1014.34,-124.1 1010.84,-134.1 1017.84,-134.1"/>
</g>
<!-- QuotientGroup_congquot_sgop_associative -->
<g id="node24" class="node">
<title>QuotientGroup_congquot_sgop_associative</title>
<g id="a_node24"><a xlink:href="QuotientGroup.html#congquot_sgop_associative" xlink:title="congquot_sgop_associative">
<ellipse fill="#f070d1" stroke="black" cx="1582.34" cy="-178" rx="135.68" ry="18"/>
<text text-anchor="middle" x="1582.34" y="-174.3" font-family="Times,serif" font-size="14.00">congquot_sgop_associative</text>
</a>
</g>
</g>
<!-- QuotientGroup_issemigroup_congquot&#45;&gt;QuotientGroup_congquot_sgop_associative -->
<g id="edge34" class="edge">
<title>QuotientGroup_issemigroup_congquot&#45;&gt;QuotientGroup_congquot_sgop_associative</title>
<path fill="none" stroke="black" d="M1524.74,-232.05C1534.19,-223.35 1545.87,-212.59 1556.23,-203.04"/>
<polygon fill="black" stroke="black" points="1558.86,-205.38 1563.85,-196.03 1554.12,-200.23 1558.86,-205.38"/>
</g>
<!-- QuotientGroup_congquot_sgop_associative&#45;&gt;QuotientGroup_congquot_sgop -->
<g id="edge35" class="edge">
<title>QuotientGroup_congquot_sgop_associative&#45;&gt;QuotientGroup_congquot_sgop</title>
<path fill="none" stroke="black" d="M1486.63,-165.2C1375.86,-151.55 1195.56,-129.33 1092.73,-116.66"/>
<polygon fill="black" stroke="black" points="1093.08,-113.18 1082.73,-115.43 1092.22,-120.13 1093.08,-113.18"/>
</g>
<!-- QuotientGroup_CongruenceQuotient -->
<g id="node28" class="node">
<title>QuotientGroup_CongruenceQuotient</title>
<g id="a_node28"><a xlink:href="QuotientGroup.html#CongruenceQuotient" xlink:title="CongruenceQuotient">
<ellipse fill="#f070d1" stroke="black" cx="794.34" cy="-34" rx="106.68" ry="18"/>
<text text-anchor="middle" x="794.34" y="-30.3" font-family="Times,serif" font-size="14.00">CongruenceQuotient</text>
</a>
</g>
</g>
<!-- QuotientGroup_congquot_negate&#45;&gt;QuotientGroup_CongruenceQuotient -->
<g id="edge36" class="edge">
<title>QuotientGroup_congquot_negate&#45;&gt;QuotientGroup_CongruenceQuotient</title>
<path fill="none" stroke="black" d="M612.51,-90.58C648.09,-79.71 697.11,-64.72 735.29,-53.05"/>
<polygon fill="black" stroke="black" points="736.71,-56.28 745.25,-50 734.66,-49.58 736.71,-56.28"/>
</g>
<!-- QuotientGroup_congquot_mon_unit&#45;&gt;QuotientGroup_CongruenceQuotient -->
<g id="edge37" class="edge">
<title>QuotientGroup_congquot_mon_unit&#45;&gt;QuotientGroup_CongruenceQuotient</title>
<path fill="none" stroke="black" d="M794.34,-87.7C794.34,-79.98 794.34,-70.71 794.34,-62.11"/>
<polygon fill="black" stroke="black" points="797.84,-62.1 794.34,-52.1 790.84,-62.1 797.84,-62.1"/>
</g>
<!-- QuotientGroup_congquot_sgop&#45;&gt;QuotientGroup_CongruenceQuotient -->
<g id="edge38" class="edge">
<title>QuotientGroup_congquot_sgop&#45;&gt;QuotientGroup_CongruenceQuotient</title>
<path fill="none" stroke="black" d="M970.08,-90.92C935.99,-80.07 888.58,-64.99 851.6,-53.22"/>
<polygon fill="black" stroke="black" points="852.54,-49.85 841.95,-50.15 850.42,-56.52 852.54,-49.85"/>
</g>
</g>
</svg>
