<?xml version="1.0" encoding="UTF-8" standalone="no"?>
<!DOCTYPE svg PUBLIC "-//W3C//DTD SVG 1.1//EN"
 "http://www.w3.org/Graphics/SVG/1.1/DTD/svg11.dtd">
<!-- Generated by graphviz version 2.43.0 (0)
 -->
<!-- Title: HoTT_Algebra_Groups_Lagrange Pages: 1 -->
<svg width="510pt" height="259pt"
 viewBox="0.00 0.00 510.00 259.00" xmlns="http://www.w3.org/2000/svg" xmlns:xlink="http://www.w3.org/1999/xlink">
<g id="graph0" class="graph" transform="scale(1 1) rotate(0) translate(4 255)">
<title>HoTT_Algebra_Groups_Lagrange</title>
<polygon fill="white" stroke="transparent" points="-4,4 -4,-255 506,-255 506,4 -4,4"/>
<g id="clust1" class="cluster">
<title>cluster_Lagrange</title>
<polygon fill="#ffffc3" stroke="black" points="17.77,-8 17.77,-243 484.23,-243 484.23,-8 17.77,-8"/>
<text text-anchor="middle" x="59.77" y="-227.8" font-family="Times,serif" font-size="14.00">Lagrange</text>
</g>
<!-- Lagrange_lagrange_normal -->
<g id="node1" class="node">
<title>Lagrange_lagrange_normal</title>
<g id="a_node1"><a xlink:href="Lagrange.html#lagrange_normal" xlink:title="lagrange_normal">
<ellipse fill="#f070d1" stroke="black" cx="250.82" cy="-186" rx="89.08" ry="18"/>
<ellipse fill="none" stroke="black" cx="250.82" cy="-186" rx="93.08" ry="22"/>
<ellipse fill="none" stroke="black" cx="250.82" cy="-186" rx="97.08" ry="26"/>
<text text-anchor="middle" x="250.82" y="-182.3" font-family="Times,serif" font-size="14.00">lagrange_normal</text>
</a>
</g>
</g>
<!-- Lagrange_lagrange -->
<g id="node2" class="node">
<title>Lagrange_lagrange</title>
<g id="a_node2"><a xlink:href="Lagrange.html#lagrange" xlink:title="lagrange">
<ellipse fill="#f070d1" stroke="black" cx="250.82" cy="-106" rx="51.99" ry="18"/>
<text text-anchor="middle" x="250.82" y="-102.3" font-family="Times,serif" font-size="14.00">lagrange</text>
</a>
</g>
</g>
<!-- Lagrange_lagrange_normal&#45;&gt;Lagrange_lagrange -->
<g id="edge1" class="edge">
<title>Lagrange_lagrange_normal&#45;&gt;Lagrange_lagrange</title>
<path fill="none" stroke="black" d="M250.82,-159.89C250.82,-151.84 250.82,-142.88 250.82,-134.66"/>
<polygon fill="black" stroke="black" points="254.32,-134.41 250.82,-124.41 247.32,-134.41 254.32,-134.41"/>
</g>
<!-- Lagrange_subgroup_index -->
<g id="node3" class="node">
<title>Lagrange_subgroup_index</title>
<g id="a_node3"><a xlink:href="Lagrange.html#subgroup_index" xlink:title="subgroup_index">
<ellipse fill="#f070d1" stroke="black" cx="250.82" cy="-34" rx="84.49" ry="18"/>
<text text-anchor="middle" x="250.82" y="-30.3" font-family="Times,serif" font-size="14.00">subgroup_index</text>
</a>
</g>
</g>
<!-- Lagrange_lagrange&#45;&gt;Lagrange_subgroup_index -->
<g id="edge2" class="edge">
<title>Lagrange_lagrange&#45;&gt;Lagrange_subgroup_index</title>
<path fill="none" stroke="black" d="M250.82,-87.7C250.82,-79.98 250.82,-70.71 250.82,-62.11"/>
<polygon fill="black" stroke="black" points="254.32,-62.1 250.82,-52.1 247.32,-62.1 254.32,-62.1"/>
</g>
</g>
</svg>
