<?xml version="1.0" encoding="UTF-8" standalone="no"?>
<!DOCTYPE svg PUBLIC "-//W3C//DTD SVG 1.1//EN"
 "http://www.w3.org/Graphics/SVG/1.1/DTD/svg11.dtd">
<!-- Generated by graphviz version 2.43.0 (0)
 -->
<!-- Title: HoTT_WildCat_MonoidalTwistConstruction Pages: 1 -->
<svg width="1149pt" height="579pt"
 viewBox="0.00 0.00 1149.00 578.50" xmlns="http://www.w3.org/2000/svg" xmlns:xlink="http://www.w3.org/1999/xlink">
<g id="graph0" class="graph" transform="scale(1 1) rotate(0) translate(4 574.5)">
<title>HoTT_WildCat_MonoidalTwistConstruction</title>
<polygon fill="white" stroke="transparent" points="-4,4 -4,-574.5 1145,-574.5 1145,4 -4,4"/>
<g id="clust1" class="cluster">
<title>cluster_MonoidalTwistConstruction</title>
<polygon fill="#ffffc3" stroke="black" points="8,-8.22 8,-562.28 1133,-562.28 1133,-8.22 8,-8.22"/>
<text text-anchor="middle" x="115" y="-547.08" font-family="Times,serif" font-size="14.00">MonoidalTwistConstruction</text>
</g>
<!-- MonoidalTwistConstruction_issymmetricmonoidal_twist -->
<g id="node1" class="node">
<title>MonoidalTwistConstruction_issymmetricmonoidal_twist</title>
<g id="a_node1"><a xlink:href="MonoidalTwistConstruction.html#issymmetricmonoidal_twist" xlink:title="issymmetricmonoidal_twist">
<ellipse fill="#f070d1" stroke="black" cx="832" cy="-503.22" rx="137.59" ry="18"/>
<ellipse fill="none" stroke="black" cx="832" cy="-503.22" rx="141.58" ry="22"/>
<ellipse fill="none" stroke="black" cx="832" cy="-503.22" rx="145.58" ry="26"/>
<text text-anchor="middle" x="832" y="-499.52" font-family="Times,serif" font-size="14.00">issymmetricmonoidal_twist</text>
</a>
</g>
</g>
<!-- MonoidalTwistConstruction_ismonoidal_twist -->
<g id="node2" class="node">
<title>MonoidalTwistConstruction_ismonoidal_twist</title>
<g id="a_node2"><a xlink:href="MonoidalTwistConstruction.html#ismonoidal_twist" xlink:title="ismonoidal_twist">
<ellipse fill="#f070d1" stroke="black" cx="910" cy="-421.22" rx="89.08" ry="18"/>
<text text-anchor="middle" x="910" y="-417.52" font-family="Times,serif" font-size="14.00">ismonoidal_twist</text>
</a>
</g>
</g>
<!-- MonoidalTwistConstruction_issymmetricmonoidal_twist&#45;&gt;MonoidalTwistConstruction_ismonoidal_twist -->
<g id="edge1" class="edge">
<title>MonoidalTwistConstruction_issymmetricmonoidal_twist&#45;&gt;MonoidalTwistConstruction_ismonoidal_twist</title>
<path fill="none" stroke="black" d="M856.25,-477.35C865.95,-467.41 877.06,-456 886.66,-446.16"/>
<polygon fill="black" stroke="black" points="889.19,-448.59 893.66,-438.98 884.17,-443.7 889.19,-448.59"/>
</g>
<!-- MonoidalTwistConstruction_hexagon_twist -->
<g id="node3" class="node">
<title>MonoidalTwistConstruction_hexagon_twist</title>
<g id="a_node3"><a xlink:href="MonoidalTwistConstruction.html#hexagon_twist" xlink:title="hexagon_twist">
<ellipse fill="#f070d1" stroke="black" cx="726" cy="-421.22" rx="77.19" ry="18"/>
<text text-anchor="middle" x="726" y="-417.52" font-family="Times,serif" font-size="14.00">hexagon_twist</text>
</a>
</g>
</g>
<!-- MonoidalTwistConstruction_issymmetricmonoidal_twist&#45;&gt;MonoidalTwistConstruction_hexagon_twist -->
<g id="edge2" class="edge">
<title>MonoidalTwistConstruction_issymmetricmonoidal_twist&#45;&gt;MonoidalTwistConstruction_hexagon_twist</title>
<path fill="none" stroke="black" d="M799.62,-477.79C785.7,-467.28 769.54,-455.09 755.91,-444.8"/>
<polygon fill="black" stroke="black" points="757.88,-441.9 747.79,-438.67 753.67,-447.49 757.88,-441.9"/>
</g>
<!-- MonoidalTwistConstruction_pentagon_twist -->
<g id="node4" class="node">
<title>MonoidalTwistConstruction_pentagon_twist</title>
<g id="a_node4"><a xlink:href="MonoidalTwistConstruction.html#pentagon_twist" xlink:title="pentagon_twist">
<ellipse fill="#f070d1" stroke="black" cx="613" cy="-347.22" rx="81.79" ry="18"/>
<text text-anchor="middle" x="613" y="-343.52" font-family="Times,serif" font-size="14.00">pentagon_twist</text>
</a>
</g>
</g>
<!-- MonoidalTwistConstruction_ismonoidal_twist&#45;&gt;MonoidalTwistConstruction_pentagon_twist -->
<g id="edge3" class="edge">
<title>MonoidalTwistConstruction_ismonoidal_twist&#45;&gt;MonoidalTwistConstruction_pentagon_twist</title>
<path fill="none" stroke="black" d="M855.18,-406.93C804.48,-394.64 729.15,-376.38 675.99,-363.49"/>
<polygon fill="black" stroke="black" points="676.55,-360.03 666,-361.07 674.9,-366.83 676.55,-360.03"/>
</g>
<!-- MonoidalTwistConstruction_triangle_twist -->
<g id="node5" class="node">
<title>MonoidalTwistConstruction_triangle_twist</title>
<g id="a_node5"><a xlink:href="MonoidalTwistConstruction.html#triangle_twist" xlink:title="triangle_twist">
<ellipse fill="#f070d1" stroke="black" cx="910" cy="-347.22" rx="75.29" ry="18"/>
<text text-anchor="middle" x="910" y="-343.52" font-family="Times,serif" font-size="14.00">triangle_twist</text>
</a>
</g>
</g>
<!-- MonoidalTwistConstruction_ismonoidal_twist&#45;&gt;MonoidalTwistConstruction_triangle_twist -->
<g id="edge4" class="edge">
<title>MonoidalTwistConstruction_ismonoidal_twist&#45;&gt;MonoidalTwistConstruction_triangle_twist</title>
<path fill="none" stroke="black" d="M910,-403.16C910,-395.03 910,-385.1 910,-375.93"/>
<polygon fill="black" stroke="black" points="913.5,-375.66 910,-365.66 906.5,-375.66 913.5,-375.66"/>
</g>
<!-- MonoidalTwistConstruction_associator_twist -->
<g id="node7" class="node">
<title>MonoidalTwistConstruction_associator_twist</title>
<g id="a_node7"><a xlink:href="MonoidalTwistConstruction.html#associator_twist" xlink:title="associator_twist">
<ellipse fill="#f070d1" stroke="black" cx="847" cy="-273.22" rx="85.59" ry="18"/>
<text text-anchor="middle" x="847" y="-269.52" font-family="Times,serif" font-size="14.00">associator_twist</text>
</a>
</g>
</g>
<!-- MonoidalTwistConstruction_hexagon_twist&#45;&gt;MonoidalTwistConstruction_associator_twist -->
<g id="edge5" class="edge">
<title>MonoidalTwistConstruction_hexagon_twist&#45;&gt;MonoidalTwistConstruction_associator_twist</title>
<path fill="none" stroke="black" d="M739.88,-403.48C761.1,-377.87 801.74,-328.83 826.41,-299.07"/>
<polygon fill="black" stroke="black" points="829.22,-301.16 832.91,-291.23 823.83,-296.69 829.22,-301.16"/>
</g>
<!-- MonoidalTwistConstruction_pentagon_twist&#45;&gt;MonoidalTwistConstruction_associator_twist -->
<g id="edge6" class="edge">
<title>MonoidalTwistConstruction_pentagon_twist&#45;&gt;MonoidalTwistConstruction_associator_twist</title>
<path fill="none" stroke="black" d="M658.67,-332.17C696.52,-320.53 750.46,-303.93 790.93,-291.48"/>
<polygon fill="black" stroke="black" points="792.11,-294.77 800.64,-288.49 790.06,-288.08 792.11,-294.77"/>
</g>
<!-- MonoidalTwistConstruction_moveR_fmap01_twistR -->
<g id="node10" class="node">
<title>MonoidalTwistConstruction_moveR_fmap01_twistR</title>
<g id="a_node10"><a xlink:href="MonoidalTwistConstruction.html#moveR_fmap01_twistR" xlink:title="moveR_fmap01_twistR">
<ellipse fill="#f070d1" stroke="black" cx="132" cy="-273.22" rx="116.18" ry="18"/>
<text text-anchor="middle" x="132" y="-269.52" font-family="Times,serif" font-size="14.00">moveR_fmap01_twistR</text>
</a>
</g>
</g>
<!-- MonoidalTwistConstruction_pentagon_twist&#45;&gt;MonoidalTwistConstruction_moveR_fmap01_twistR -->
<g id="edge7" class="edge">
<title>MonoidalTwistConstruction_pentagon_twist&#45;&gt;MonoidalTwistConstruction_moveR_fmap01_twistR</title>
<path fill="none" stroke="black" d="M547.38,-336.4C463.29,-323.81 317.12,-301.93 222.51,-287.77"/>
<polygon fill="black" stroke="black" points="222.78,-284.27 212.37,-286.25 221.75,-291.2 222.78,-284.27"/>
</g>
<!-- MonoidalTwistConstruction_moveR_twistR -->
<g id="node14" class="node">
<title>MonoidalTwistConstruction_moveR_twistR</title>
<g id="a_node14"><a xlink:href="MonoidalTwistConstruction.html#moveR_twistR" xlink:title="moveR_twistR">
<ellipse fill="#f070d1" stroke="black" cx="344" cy="-273.22" rx="77.19" ry="18"/>
<text text-anchor="middle" x="344" y="-269.52" font-family="Times,serif" font-size="14.00">moveR_twistR</text>
</a>
</g>
</g>
<!-- MonoidalTwistConstruction_pentagon_twist&#45;&gt;MonoidalTwistConstruction_moveR_twistR -->
<g id="edge8" class="edge">
<title>MonoidalTwistConstruction_pentagon_twist&#45;&gt;MonoidalTwistConstruction_moveR_twistR</title>
<path fill="none" stroke="black" d="M563.03,-332.85C517.64,-320.7 450.65,-302.77 402.72,-289.94"/>
<polygon fill="black" stroke="black" points="403.36,-286.49 392.79,-287.28 401.55,-293.25 403.36,-286.49"/>
</g>
<!-- MonoidalTwistConstruction_moveR_twistL -->
<g id="node15" class="node">
<title>MonoidalTwistConstruction_moveR_twistL</title>
<g id="a_node15"><a xlink:href="MonoidalTwistConstruction.html#moveR_twistL" xlink:title="moveR_twistL">
<ellipse fill="#f070d1" stroke="black" cx="515" cy="-273.22" rx="76.09" ry="18"/>
<text text-anchor="middle" x="515" y="-269.52" font-family="Times,serif" font-size="14.00">moveR_twistL</text>
</a>
</g>
</g>
<!-- MonoidalTwistConstruction_pentagon_twist&#45;&gt;MonoidalTwistConstruction_moveR_twistL -->
<g id="edge9" class="edge">
<title>MonoidalTwistConstruction_pentagon_twist&#45;&gt;MonoidalTwistConstruction_moveR_twistL</title>
<path fill="none" stroke="black" d="M590.76,-329.89C577.36,-320.04 560.09,-307.35 545.43,-296.58"/>
<polygon fill="black" stroke="black" points="547.28,-293.6 537.15,-290.5 543.14,-299.24 547.28,-293.6"/>
</g>
<!-- MonoidalTwistConstruction_twist_nat_m -->
<g id="node19" class="node">
<title>MonoidalTwistConstruction_twist_nat_m</title>
<g id="a_node19"><a xlink:href="MonoidalTwistConstruction.html#twist_nat_m" xlink:title="twist_nat_m">
<ellipse fill="#f070d1" stroke="black" cx="676" cy="-273.22" rx="66.89" ry="18"/>
<text text-anchor="middle" x="676" y="-269.52" font-family="Times,serif" font-size="14.00">twist_nat_m</text>
</a>
</g>
</g>
<!-- MonoidalTwistConstruction_pentagon_twist&#45;&gt;MonoidalTwistConstruction_twist_nat_m -->
<g id="edge10" class="edge">
<title>MonoidalTwistConstruction_pentagon_twist&#45;&gt;MonoidalTwistConstruction_twist_nat_m</title>
<path fill="none" stroke="black" d="M627.93,-329.16C635.85,-320.1 645.73,-308.81 654.47,-298.83"/>
<polygon fill="black" stroke="black" points="657.23,-300.99 661.18,-291.16 651.96,-296.38 657.23,-300.99"/>
</g>
<!-- MonoidalTwistConstruction_left_unitor_twist -->
<g id="node6" class="node">
<title>MonoidalTwistConstruction_left_unitor_twist</title>
<g id="a_node6"><a xlink:href="MonoidalTwistConstruction.html#left_unitor_twist" xlink:title="left_unitor_twist">
<ellipse fill="#f070d1" stroke="black" cx="1038" cy="-273.22" rx="87.18" ry="18"/>
<text text-anchor="middle" x="1038" y="-269.52" font-family="Times,serif" font-size="14.00">left_unitor_twist</text>
</a>
</g>
</g>
<!-- MonoidalTwistConstruction_triangle_twist&#45;&gt;MonoidalTwistConstruction_left_unitor_twist -->
<g id="edge11" class="edge">
<title>MonoidalTwistConstruction_triangle_twist&#45;&gt;MonoidalTwistConstruction_left_unitor_twist</title>
<path fill="none" stroke="black" d="M938.09,-330.42C956.47,-320.08 980.69,-306.46 1000.68,-295.21"/>
<polygon fill="black" stroke="black" points="1002.53,-298.19 1009.53,-290.24 999.1,-292.09 1002.53,-298.19"/>
</g>
<!-- MonoidalTwistConstruction_triangle_twist&#45;&gt;MonoidalTwistConstruction_associator_twist -->
<g id="edge12" class="edge">
<title>MonoidalTwistConstruction_triangle_twist&#45;&gt;MonoidalTwistConstruction_associator_twist</title>
<path fill="none" stroke="black" d="M895.39,-329.52C887.47,-320.48 877.54,-309.12 868.73,-299.06"/>
<polygon fill="black" stroke="black" points="871.19,-296.55 861.97,-291.33 865.92,-301.16 871.19,-296.55"/>
</g>
<!-- MonoidalTwistConstruction_associator_twist__unfold -->
<g id="node8" class="node">
<title>MonoidalTwistConstruction_associator_twist__unfold</title>
<g id="a_node8"><a xlink:href="MonoidalTwistConstruction.html#associator_twist'_unfold" xlink:title="associator_twist&#39;_unfold">
<ellipse fill="#f070d1" stroke="black" cx="832" cy="-191.22" rx="122.38" ry="18"/>
<text text-anchor="middle" x="832" y="-187.52" font-family="Times,serif" font-size="14.00">associator_twist&#39;_unfold</text>
</a>
</g>
</g>
<!-- MonoidalTwistConstruction_associator_twist&#45;&gt;MonoidalTwistConstruction_associator_twist__unfold -->
<g id="edge13" class="edge">
<title>MonoidalTwistConstruction_associator_twist&#45;&gt;MonoidalTwistConstruction_associator_twist__unfold</title>
<path fill="none" stroke="black" d="M843.75,-254.86C841.81,-244.52 839.3,-231.16 837.1,-219.44"/>
<polygon fill="black" stroke="black" points="840.48,-218.46 835.2,-209.27 833.6,-219.75 840.48,-218.46"/>
</g>
<!-- MonoidalTwistConstruction_associator_twist_ -->
<g id="node9" class="node">
<title>MonoidalTwistConstruction_associator_twist_</title>
<g id="a_node9"><a xlink:href="MonoidalTwistConstruction.html#associator_twist'" xlink:title="associator_twist&#39;">
<ellipse fill="#f070d1" stroke="black" cx="818" cy="-109.22" rx="88.28" ry="18"/>
<text text-anchor="middle" x="818" y="-105.52" font-family="Times,serif" font-size="14.00">associator_twist&#39;</text>
</a>
</g>
</g>
<!-- MonoidalTwistConstruction_associator_twist__unfold&#45;&gt;MonoidalTwistConstruction_associator_twist_ -->
<g id="edge14" class="edge">
<title>MonoidalTwistConstruction_associator_twist__unfold&#45;&gt;MonoidalTwistConstruction_associator_twist_</title>
<path fill="none" stroke="black" d="M828.96,-172.86C827.15,-162.52 824.81,-149.16 822.76,-137.44"/>
<polygon fill="black" stroke="black" points="826.16,-136.52 820.98,-127.27 819.26,-137.73 826.16,-136.52"/>
</g>
<!-- MonoidalTwistConstruction_twiste -->
<g id="node21" class="node">
<title>MonoidalTwistConstruction_twiste</title>
<g id="a_node21"><a xlink:href="MonoidalTwistConstruction.html#twiste" xlink:title="twiste">
<ellipse fill="#f070d1" stroke="black" cx="588" cy="-35.22" rx="39.79" ry="18"/>
<text text-anchor="middle" x="588" y="-31.52" font-family="Times,serif" font-size="14.00">twiste</text>
</a>
</g>
</g>
<!-- MonoidalTwistConstruction_associator_twist_&#45;&gt;MonoidalTwistConstruction_twiste -->
<g id="edge15" class="edge">
<title>MonoidalTwistConstruction_associator_twist_&#45;&gt;MonoidalTwistConstruction_twiste</title>
<path fill="none" stroke="black" d="M772.01,-93.83C730.44,-80.81 669.77,-61.82 629.61,-49.25"/>
<polygon fill="black" stroke="black" points="630.46,-45.85 619.87,-46.2 628.36,-52.53 630.46,-45.85"/>
</g>
<!-- MonoidalTwistConstruction_moveL_fmap01_twistR -->
<g id="node12" class="node">
<title>MonoidalTwistConstruction_moveL_fmap01_twistR</title>
<g id="a_node12"><a xlink:href="MonoidalTwistConstruction.html#moveL_fmap01_twistR" xlink:title="moveL_fmap01_twistR">
<ellipse fill="#f070d1" stroke="black" cx="378" cy="-109.22" rx="115.88" ry="18"/>
<text text-anchor="middle" x="378" y="-105.52" font-family="Times,serif" font-size="14.00">moveL_fmap01_twistR</text>
</a>
</g>
</g>
<!-- MonoidalTwistConstruction_moveR_fmap01_twistR&#45;&gt;MonoidalTwistConstruction_moveL_fmap01_twistR -->
<g id="edge16" class="edge">
<title>MonoidalTwistConstruction_moveR_fmap01_twistR&#45;&gt;MonoidalTwistConstruction_moveL_fmap01_twistR</title>
<path fill="none" stroke="black" d="M185.8,-257.19C213.24,-248.09 246.36,-234.81 273,-217.22 307.39,-194.52 339.41,-158.97 358.83,-135.15"/>
<polygon fill="black" stroke="black" points="361.64,-137.25 365.16,-127.25 356.17,-132.87 361.64,-137.25"/>
</g>
<!-- MonoidalTwistConstruction_moveR_fmap01_twistL -->
<g id="node11" class="node">
<title>MonoidalTwistConstruction_moveR_fmap01_twistL</title>
<g id="a_node11"><a xlink:href="MonoidalTwistConstruction.html#moveR_fmap01_twistL" xlink:title="moveR_fmap01_twistL">
<ellipse fill="#f070d1" stroke="black" cx="140" cy="-191.22" rx="115.87" ry="18"/>
<ellipse fill="none" stroke="black" cx="140" cy="-191.22" rx="119.87" ry="22"/>
<ellipse fill="none" stroke="black" cx="140" cy="-191.22" rx="123.88" ry="26"/>
<text text-anchor="middle" x="140" y="-187.52" font-family="Times,serif" font-size="14.00">moveR_fmap01_twistL</text>
</a>
</g>
</g>
<!-- MonoidalTwistConstruction_moveL_fmap01_twistL -->
<g id="node13" class="node">
<title>MonoidalTwistConstruction_moveL_fmap01_twistL</title>
<g id="a_node13"><a xlink:href="MonoidalTwistConstruction.html#moveL_fmap01_twistL" xlink:title="moveL_fmap01_twistL">
<ellipse fill="#f070d1" stroke="black" cx="130" cy="-109.22" rx="114.28" ry="18"/>
<text text-anchor="middle" x="130" y="-105.52" font-family="Times,serif" font-size="14.00">moveL_fmap01_twistL</text>
</a>
</g>
</g>
<!-- MonoidalTwistConstruction_moveR_fmap01_twistL&#45;&gt;MonoidalTwistConstruction_moveL_fmap01_twistL -->
<g id="edge17" class="edge">
<title>MonoidalTwistConstruction_moveR_fmap01_twistL&#45;&gt;MonoidalTwistConstruction_moveL_fmap01_twistL</title>
<path fill="none" stroke="black" d="M136.84,-164.91C135.73,-156.09 134.49,-146.17 133.37,-137.22"/>
<polygon fill="black" stroke="black" points="136.85,-136.78 132.13,-127.29 129.9,-137.64 136.85,-136.78"/>
</g>
<!-- MonoidalTwistConstruction_moveL_fmap01_twistR&#45;&gt;MonoidalTwistConstruction_twiste -->
<g id="edge18" class="edge">
<title>MonoidalTwistConstruction_moveL_fmap01_twistR&#45;&gt;MonoidalTwistConstruction_twiste</title>
<path fill="none" stroke="black" d="M423.57,-92.6C460.62,-79.9 512.38,-62.15 547.88,-49.98"/>
<polygon fill="black" stroke="black" points="549.11,-53.26 557.44,-46.7 546.84,-46.63 549.11,-53.26"/>
</g>
<!-- MonoidalTwistConstruction_moveL_fmap01_twistL&#45;&gt;MonoidalTwistConstruction_twiste -->
<g id="edge19" class="edge">
<title>MonoidalTwistConstruction_moveL_fmap01_twistL&#45;&gt;MonoidalTwistConstruction_twiste</title>
<path fill="none" stroke="black" d="M207.69,-96.01C303.19,-81 462.24,-55.99 540.94,-43.62"/>
<polygon fill="black" stroke="black" points="541.7,-47.04 551.04,-42.03 540.62,-40.13 541.7,-47.04"/>
</g>
<!-- MonoidalTwistConstruction_moveL_twistR -->
<g id="node16" class="node">
<title>MonoidalTwistConstruction_moveL_twistR</title>
<g id="a_node16"><a xlink:href="MonoidalTwistConstruction.html#moveL_twistR" xlink:title="moveL_twistR">
<ellipse fill="#f070d1" stroke="black" cx="588" cy="-109.22" rx="76.09" ry="18"/>
<text text-anchor="middle" x="588" y="-105.52" font-family="Times,serif" font-size="14.00">moveL_twistR</text>
</a>
</g>
</g>
<!-- MonoidalTwistConstruction_moveR_twistR&#45;&gt;MonoidalTwistConstruction_moveL_twistR -->
<g id="edge20" class="edge">
<title>MonoidalTwistConstruction_moveR_twistR&#45;&gt;MonoidalTwistConstruction_moveL_twistR</title>
<path fill="none" stroke="black" d="M363.1,-255.41C388.82,-233.23 436.51,-193.68 481,-165.22 501.36,-152.21 525.16,-139.72 545.15,-129.95"/>
<polygon fill="black" stroke="black" points="546.84,-133.02 554.32,-125.52 543.8,-126.71 546.84,-133.02"/>
</g>
<!-- MonoidalTwistConstruction_moveL_twistL -->
<g id="node17" class="node">
<title>MonoidalTwistConstruction_moveL_twistL</title>
<g id="a_node17"><a xlink:href="MonoidalTwistConstruction.html#moveL_twistL" xlink:title="moveL_twistL">
<ellipse fill="#f070d1" stroke="black" cx="565" cy="-191.22" rx="75.29" ry="18"/>
<text text-anchor="middle" x="565" y="-187.52" font-family="Times,serif" font-size="14.00">moveL_twistL</text>
</a>
</g>
</g>
<!-- MonoidalTwistConstruction_moveR_twistL&#45;&gt;MonoidalTwistConstruction_moveL_twistL -->
<g id="edge21" class="edge">
<title>MonoidalTwistConstruction_moveR_twistL&#45;&gt;MonoidalTwistConstruction_moveL_twistL</title>
<path fill="none" stroke="black" d="M525.6,-255.26C532.43,-244.33 541.43,-229.93 549.11,-217.65"/>
<polygon fill="black" stroke="black" points="552.08,-219.5 554.41,-209.16 546.14,-215.79 552.08,-219.5"/>
</g>
<!-- MonoidalTwistConstruction_moveL_twistR&#45;&gt;MonoidalTwistConstruction_twiste -->
<g id="edge22" class="edge">
<title>MonoidalTwistConstruction_moveL_twistR&#45;&gt;MonoidalTwistConstruction_twiste</title>
<path fill="none" stroke="black" d="M588,-91.16C588,-83.03 588,-73.1 588,-63.93"/>
<polygon fill="black" stroke="black" points="591.5,-63.66 588,-53.66 584.5,-63.66 591.5,-63.66"/>
</g>
<!-- MonoidalTwistConstruction_moveL_twistL&#45;&gt;MonoidalTwistConstruction_twiste -->
<g id="edge23" class="edge">
<title>MonoidalTwistConstruction_moveL_twistL&#45;&gt;MonoidalTwistConstruction_twiste</title>
<path fill="none" stroke="black" d="M609.17,-176.56C632.58,-166.82 659.27,-151.13 673,-127.22 680.97,-113.35 680.65,-105.28 673,-91.22 663.22,-73.25 644.75,-60.24 627.52,-51.41"/>
<polygon fill="black" stroke="black" points="628.67,-48.08 618.14,-46.93 625.65,-54.4 628.67,-48.08"/>
</g>
<!-- MonoidalTwistConstruction_twist_nat_r -->
<g id="node18" class="node">
<title>MonoidalTwistConstruction_twist_nat_r</title>
<g id="a_node18"><a xlink:href="MonoidalTwistConstruction.html#twist_nat_r" xlink:title="twist_nat_r">
<ellipse fill="#f070d1" stroke="black" cx="505" cy="-503.22" rx="62.3" ry="18"/>
<ellipse fill="none" stroke="black" cx="505" cy="-503.22" rx="66.3" ry="22"/>
<ellipse fill="none" stroke="black" cx="505" cy="-503.22" rx="70.29" ry="26"/>
<text text-anchor="middle" x="505" y="-499.52" font-family="Times,serif" font-size="14.00">twist_nat_r</text>
</a>
</g>
</g>
<!-- MonoidalTwistConstruction_twist_nat_l -->
<g id="node20" class="node">
<title>MonoidalTwistConstruction_twist_nat_l</title>
<g id="a_node20"><a xlink:href="MonoidalTwistConstruction.html#twist_nat_l" xlink:title="twist_nat_l">
<ellipse fill="#f070d1" stroke="black" cx="163" cy="-503.22" rx="61.18" ry="18"/>
<ellipse fill="none" stroke="black" cx="163" cy="-503.22" rx="65.18" ry="22"/>
<ellipse fill="none" stroke="black" cx="163" cy="-503.22" rx="69.19" ry="26"/>
<text text-anchor="middle" x="163" y="-499.52" font-family="Times,serif" font-size="14.00">twist_nat_l</text>
</a>
</g>
</g>
</g>
</svg>
