<?xml version="1.0" encoding="UTF-8" standalone="no"?>
<!DOCTYPE svg PUBLIC "-//W3C//DTD SVG 1.1//EN"
 "http://www.w3.org/Graphics/SVG/1.1/DTD/svg11.dtd">
<!-- Generated by graphviz version 2.43.0 (0)
 -->
<!-- Title: HoTT_Spaces_Int_Core Pages: 1 -->
<svg width="2717pt" height="1363pt"
 viewBox="0.00 0.00 2717.00 1362.50" xmlns="http://www.w3.org/2000/svg" xmlns:xlink="http://www.w3.org/1999/xlink">
<g id="graph0" class="graph" transform="scale(1 1) rotate(0) translate(4 1358.5)">
<title>HoTT_Spaces_Int_Core</title>
<polygon fill="white" stroke="transparent" points="-4,4 -4,-1358.5 2713,-1358.5 2713,4 -4,4"/>
<g id="clust1" class="cluster">
<title>cluster_Core</title>
<polygon fill="#ffffc3" stroke="black" points="8,-24.46 8,-1330.04 2701,-1330.04 2701,-24.46 8,-24.46"/>
<text text-anchor="middle" x="33" y="-1314.84" font-family="Times,serif" font-size="14.00">Core</text>
</g>
<!-- Core_hset_int -->
<g id="node1" class="node">
<title>Core_hset_int</title>
<g id="a_node1"><a xlink:href="Core.html#hset_int" xlink:title="hset_int">
<ellipse fill="#f070d1" stroke="black" cx="1755" cy="-1155.46" rx="48.18" ry="18"/>
<ellipse fill="none" stroke="black" cx="1755" cy="-1155.46" rx="52.18" ry="22"/>
<ellipse fill="none" stroke="black" cx="1755" cy="-1155.46" rx="56.19" ry="26"/>
<text text-anchor="middle" x="1755" y="-1151.76" font-family="Times,serif" font-size="14.00">hset_int</text>
</a>
</g>
</g>
<!-- Core_decpaths_int -->
<g id="node2" class="node">
<title>Core_decpaths_int</title>
<g id="a_node2"><a xlink:href="Core.html#decpaths_int" xlink:title="decpaths_int">
<ellipse fill="#f070d1" stroke="black" cx="1755" cy="-886.46" rx="69.59" ry="18"/>
<text text-anchor="middle" x="1755" y="-882.76" font-family="Times,serif" font-size="14.00">decpaths_int</text>
</a>
</g>
</g>
<!-- Core_hset_int&#45;&gt;Core_decpaths_int -->
<g id="edge1" class="edge">
<title>Core_hset_int&#45;&gt;Core_decpaths_int</title>
<path fill="none" stroke="black" d="M1755,-1129.34C1755,-1079.17 1755,-966.9 1755,-914.89"/>
<polygon fill="black" stroke="black" points="1758.5,-914.75 1755,-904.75 1751.5,-914.75 1758.5,-914.75"/>
</g>
<!-- Core_pos_neq_neg -->
<g id="node22" class="node">
<title>Core_pos_neq_neg</title>
<g id="a_node22"><a xlink:href="Core.html#pos_neq_neg" xlink:title="pos_neq_neg">
<ellipse fill="#f070d1" stroke="black" cx="2178" cy="-617.46" rx="69.59" ry="18"/>
<text text-anchor="middle" x="2178" y="-613.76" font-family="Times,serif" font-size="14.00">pos_neq_neg</text>
</a>
</g>
</g>
<!-- Core_decpaths_int&#45;&gt;Core_pos_neq_neg -->
<g id="edge2" class="edge">
<title>Core_decpaths_int&#45;&gt;Core_pos_neq_neg</title>
<path fill="none" stroke="black" d="M1780.19,-869.56C1852.64,-823.83 2061.57,-691.95 2143.99,-639.93"/>
<polygon fill="black" stroke="black" points="2146.35,-642.58 2152.94,-634.28 2142.61,-636.66 2146.35,-642.58"/>
</g>
<!-- Core_zero_neq_pos -->
<g id="node23" class="node">
<title>Core_zero_neq_pos</title>
<g id="a_node23"><a xlink:href="Core.html#zero_neq_pos" xlink:title="zero_neq_pos">
<ellipse fill="#f070d1" stroke="black" cx="635" cy="-617.46" rx="72.59" ry="18"/>
<text text-anchor="middle" x="635" y="-613.76" font-family="Times,serif" font-size="14.00">zero_neq_pos</text>
</a>
</g>
</g>
<!-- Core_decpaths_int&#45;&gt;Core_zero_neq_pos -->
<g id="edge3" class="edge">
<title>Core_decpaths_int&#45;&gt;Core_zero_neq_pos</title>
<path fill="none" stroke="black" d="M1702.58,-874.54C1549.8,-842.42 1092.05,-744.23 717,-643.46 707.41,-640.88 697.24,-637.95 687.45,-635.02"/>
<polygon fill="black" stroke="black" points="688.41,-631.66 677.83,-632.11 686.38,-638.36 688.41,-631.66"/>
</g>
<!-- Core_zero_neq_neg -->
<g id="node24" class="node">
<title>Core_zero_neq_neg</title>
<g id="a_node24"><a xlink:href="Core.html#zero_neq_neg" xlink:title="zero_neq_neg">
<ellipse fill="#f070d1" stroke="black" cx="1755" cy="-617.46" rx="73.39" ry="18"/>
<text text-anchor="middle" x="1755" y="-613.76" font-family="Times,serif" font-size="14.00">zero_neq_neg</text>
</a>
</g>
</g>
<!-- Core_decpaths_int&#45;&gt;Core_zero_neq_neg -->
<g id="edge4" class="edge">
<title>Core_decpaths_int&#45;&gt;Core_zero_neq_neg</title>
<path fill="none" stroke="black" d="M1755,-868.35C1755,-823.25 1755,-700.8 1755,-645.82"/>
<polygon fill="black" stroke="black" points="1758.5,-645.77 1755,-635.77 1751.5,-645.77 1758.5,-645.77"/>
</g>
<!-- Core_pos_inj -->
<g id="node28" class="node">
<title>Core_pos_inj</title>
<g id="a_node28"><a xlink:href="Core.html#pos_inj" xlink:title="pos_inj">
<ellipse fill="#f070d1" stroke="black" cx="1266" cy="-348.46" rx="42.79" ry="18"/>
<text text-anchor="middle" x="1266" y="-344.76" font-family="Times,serif" font-size="14.00">pos_inj</text>
</a>
</g>
</g>
<!-- Core_decpaths_int&#45;&gt;Core_pos_inj -->
<g id="edge5" class="edge">
<title>Core_decpaths_int&#45;&gt;Core_pos_inj</title>
<path fill="none" stroke="black" d="M1739.83,-868.83C1669.02,-791.22 1370.97,-464.52 1287.7,-373.24"/>
<polygon fill="black" stroke="black" points="1290.08,-370.66 1280.75,-365.63 1284.91,-375.38 1290.08,-370.66"/>
</g>
<!-- Core_neg_inj -->
<g id="node29" class="node">
<title>Core_neg_inj</title>
<g id="a_node29"><a xlink:href="Core.html#neg_inj" xlink:title="neg_inj">
<ellipse fill="#f070d1" stroke="black" cx="2629" cy="-348.46" rx="44.39" ry="18"/>
<text text-anchor="middle" x="2629" y="-344.76" font-family="Times,serif" font-size="14.00">neg_inj</text>
</a>
</g>
</g>
<!-- Core_decpaths_int&#45;&gt;Core_neg_inj -->
<g id="edge6" class="edge">
<title>Core_decpaths_int&#45;&gt;Core_neg_inj</title>
<path fill="none" stroke="black" d="M1813.48,-876.64C1984.78,-849.59 2479.84,-762.38 2584,-643.46 2651.12,-566.83 2641.51,-433.7 2633.58,-376.67"/>
<polygon fill="black" stroke="black" points="2637.02,-376 2632.08,-366.63 2630.09,-377.03 2637.02,-376"/>
</g>
<!-- Core_sgn -->
<g id="node3" class="node">
<title>Core_sgn</title>
<g id="a_node3"><a xlink:href="Core.html#sgn" xlink:title="sgn">
<ellipse fill="#f070d1" stroke="black" cx="1628" cy="-348.46" rx="27.14" ry="18"/>
<ellipse fill="none" stroke="black" cx="1628" cy="-348.46" rx="31.12" ry="22"/>
<ellipse fill="none" stroke="black" cx="1628" cy="-348.46" rx="35.1" ry="26"/>
<text text-anchor="middle" x="1628" y="-344.76" font-family="Times,serif" font-size="14.00">sgn</text>
</a>
</g>
</g>
<!-- Core_pos -->
<g id="node35" class="node">
<title>Core_pos</title>
<g id="a_node35"><a xlink:href="Core.html#pos" xlink:title="pos">
<ellipse fill="#7faaff" stroke="black" cx="1204" cy="-103.46" rx="27" ry="18"/>
<text text-anchor="middle" x="1204" y="-99.76" font-family="Times,serif" font-size="14.00">pos</text>
</a>
</g>
</g>
<!-- Core_sgn&#45;&gt;Core_pos -->
<g id="edge7" class="edge">
<title>Core_sgn&#45;&gt;Core_pos</title>
<path fill="none" stroke="black" d="M1600.51,-331.7C1524.15,-287.94 1310.03,-165.23 1232.49,-120.79"/>
<polygon fill="black" stroke="black" points="1234.15,-117.7 1223.73,-115.77 1230.67,-123.78 1234.15,-117.7"/>
</g>
<!-- Core_zero -->
<g id="node36" class="node">
<title>Core_zero</title>
<g id="a_node36"><a xlink:href="Core.html#zero" xlink:title="zero">
<ellipse fill="#7faaff" stroke="black" cx="950" cy="-103.46" rx="30.59" ry="18"/>
<text text-anchor="middle" x="950" y="-99.76" font-family="Times,serif" font-size="14.00">zero</text>
</a>
</g>
</g>
<!-- Core_sgn&#45;&gt;Core_zero -->
<g id="edge8" class="edge">
<title>Core_sgn&#45;&gt;Core_zero</title>
<path fill="none" stroke="black" d="M1601.42,-331.31C1595.77,-328.18 1589.77,-325.06 1584,-322.46 1364.73,-223.5 1086.25,-142.23 987.1,-114.6"/>
<polygon fill="black" stroke="black" points="987.83,-111.17 977.26,-111.86 985.96,-117.91 987.83,-111.17"/>
</g>
<!-- Core_neg -->
<g id="node37" class="node">
<title>Core_neg</title>
<g id="a_node37"><a xlink:href="Core.html#neg" xlink:title="neg">
<ellipse fill="#7faaff" stroke="black" cx="1628" cy="-103.46" rx="27.9" ry="18"/>
<text text-anchor="middle" x="1628" y="-99.76" font-family="Times,serif" font-size="14.00">neg</text>
</a>
</g>
</g>
<!-- Core_sgn&#45;&gt;Core_neg -->
<g id="edge9" class="edge">
<title>Core_sgn&#45;&gt;Core_neg</title>
<path fill="none" stroke="black" d="M1628,-322.37C1628,-276.47 1628,-179.34 1628,-131.81"/>
<polygon fill="black" stroke="black" points="1631.5,-131.66 1628,-121.66 1624.5,-131.66 1631.5,-131.66"/>
</g>
<!-- Core_Int -->
<g id="node38" class="node">
<title>Core_Int</title>
<g id="a_node38"><a xlink:href="Core.html#Int" xlink:title="Int">
<ellipse fill="#e2cdfa" stroke="black" cx="1326" cy="-103.46" rx="27" ry="18"/>
<text text-anchor="middle" x="1326" y="-99.76" font-family="Times,serif" font-size="14.00">Int</text>
</a>
</g>
</g>
<!-- Core_sgn&#45;&gt;Core_Int -->
<g id="edge10" class="edge">
<title>Core_sgn&#45;&gt;Core_Int</title>
<path fill="none" stroke="black" d="M1604.8,-328.8C1548.99,-283.88 1407.59,-170.11 1350.48,-124.16"/>
<polygon fill="black" stroke="black" points="1352.67,-121.43 1342.69,-117.89 1348.28,-126.88 1352.67,-121.43"/>
</g>
<!-- Core_int_square -->
<g id="node4" class="node">
<title>Core_int_square</title>
<g id="a_node4"><a xlink:href="Core.html#int_square" xlink:title="int_square">
<ellipse fill="#f070d1" stroke="black" cx="84" cy="-348.46" rx="59.61" ry="18"/>
<ellipse fill="none" stroke="black" cx="84" cy="-348.46" rx="63.6" ry="22"/>
<ellipse fill="none" stroke="black" cx="84" cy="-348.46" rx="67.59" ry="26"/>
<text text-anchor="middle" x="84" y="-344.76" font-family="Times,serif" font-size="14.00">int_square</text>
</a>
</g>
</g>
<!-- Core_int_square&#45;&gt;Core_pos -->
<g id="edge11" class="edge">
<title>Core_int_square&#45;&gt;Core_pos</title>
<path fill="none" stroke="black" d="M133.47,-330.53C142.58,-327.66 152.04,-324.85 161,-322.46 550.89,-218.74 1033.45,-133.53 1167.81,-110.56"/>
<polygon fill="black" stroke="black" points="1168.68,-113.96 1177.95,-108.83 1167.51,-107.06 1168.68,-113.96"/>
</g>
<!-- Core_int_square&#45;&gt;Core_zero -->
<g id="edge12" class="edge">
<title>Core_int_square&#45;&gt;Core_zero</title>
<path fill="none" stroke="black" d="M134.02,-330.87C142.98,-327.99 152.25,-325.09 161,-322.46 448.73,-236.05 799.29,-143.69 912.7,-114.14"/>
<polygon fill="black" stroke="black" points="913.82,-117.46 922.62,-111.55 912.06,-110.69 913.82,-117.46"/>
</g>
<!-- Core_int_square&#45;&gt;Core_Int -->
<g id="edge13" class="edge">
<title>Core_int_square&#45;&gt;Core_Int</title>
<path fill="none" stroke="black" d="M133.01,-330.5C142.25,-327.6 151.87,-324.78 161,-322.46 633.75,-202.22 760.94,-213.43 1240,-121.46 1256.52,-118.29 1274.8,-114.69 1290.24,-111.62"/>
<polygon fill="black" stroke="black" points="1291.3,-114.98 1300.43,-109.59 1289.93,-108.11 1291.3,-114.98"/>
</g>
<!-- Core_int_pow -->
<g id="node5" class="node">
<title>Core_int_pow</title>
<g id="a_node5"><a xlink:href="Core.html#int_pow" xlink:title="int_pow">
<ellipse fill="#f070d1" stroke="black" cx="781" cy="-617.46" rx="46.62" ry="18"/>
<ellipse fill="none" stroke="black" cx="781" cy="-617.46" rx="50.61" ry="22"/>
<ellipse fill="none" stroke="black" cx="781" cy="-617.46" rx="54.59" ry="26"/>
<text text-anchor="middle" x="781" y="-613.76" font-family="Times,serif" font-size="14.00">int_pow</text>
</a>
</g>
</g>
<!-- Core_int_mul -->
<g id="node6" class="node">
<title>Core_int_mul</title>
<g id="a_node6"><a xlink:href="Core.html#int_mul" xlink:title="int_mul">
<ellipse fill="#f070d1" stroke="black" cx="774" cy="-348.46" rx="45.49" ry="18"/>
<text text-anchor="middle" x="774" y="-344.76" font-family="Times,serif" font-size="14.00">int_mul</text>
</a>
</g>
</g>
<!-- Core_int_pow&#45;&gt;Core_int_mul -->
<g id="edge14" class="edge">
<title>Core_int_pow&#45;&gt;Core_int_mul</title>
<path fill="none" stroke="black" d="M780.34,-591.34C779.03,-541.17 776.08,-428.9 774.72,-376.89"/>
<polygon fill="black" stroke="black" points="778.21,-376.65 774.45,-366.75 771.22,-376.83 778.21,-376.65"/>
</g>
<!-- Core_int_mul&#45;&gt;Core_pos -->
<g id="edge15" class="edge">
<title>Core_int_mul&#45;&gt;Core_pos</title>
<path fill="none" stroke="black" d="M798.98,-333.35C873.73,-291.1 1095.43,-165.82 1175.09,-120.8"/>
<polygon fill="black" stroke="black" points="1177.1,-123.68 1184.08,-115.72 1173.65,-117.59 1177.1,-123.68"/>
</g>
<!-- Core_int_mul&#45;&gt;Core_zero -->
<g id="edge16" class="edge">
<title>Core_int_mul&#45;&gt;Core_zero</title>
<path fill="none" stroke="black" d="M786.1,-330.76C816.65,-288.58 897.01,-177.63 932.6,-128.48"/>
<polygon fill="black" stroke="black" points="935.48,-130.48 938.51,-120.32 929.81,-126.37 935.48,-130.48"/>
</g>
<!-- Core_int_mul&#45;&gt;Core_neg -->
<g id="edge17" class="edge">
<title>Core_int_mul&#45;&gt;Core_neg</title>
<path fill="none" stroke="black" d="M801.1,-333.84C809.59,-329.86 819.07,-325.72 828,-322.46 1115.53,-217.57 1477.27,-136.54 1591.63,-112.08"/>
<polygon fill="black" stroke="black" points="1592.55,-115.47 1601.61,-109.96 1591.1,-108.62 1592.55,-115.47"/>
</g>
<!-- Core_int_mul&#45;&gt;Core_Int -->
<g id="edge18" class="edge">
<title>Core_int_mul&#45;&gt;Core_Int</title>
<path fill="none" stroke="black" d="M802.25,-334.24C810.54,-330.41 819.62,-326.24 828,-322.46 1003.37,-243.49 1215.11,-152.11 1294.18,-118.11"/>
<polygon fill="black" stroke="black" points="1295.78,-121.24 1303.59,-114.07 1293.02,-114.8 1295.78,-121.24"/>
</g>
<!-- Core_int_sub -->
<g id="node7" class="node">
<title>Core_int_sub</title>
<g id="a_node7"><a xlink:href="Core.html#int_sub" xlink:title="int_sub">
<ellipse fill="#f070d1" stroke="black" cx="1191" cy="-1155.46" rx="44.36" ry="18"/>
<ellipse fill="none" stroke="black" cx="1191" cy="-1155.46" rx="48.38" ry="22"/>
<ellipse fill="none" stroke="black" cx="1191" cy="-1155.46" rx="52.39" ry="26"/>
<text text-anchor="middle" x="1191" y="-1151.76" font-family="Times,serif" font-size="14.00">int_sub</text>
</a>
</g>
</g>
<!-- Core_int_add -->
<g id="node10" class="node">
<title>Core_int_add</title>
<g id="a_node10"><a xlink:href="Core.html#int_add" xlink:title="int_add">
<ellipse fill="#f070d1" stroke="black" cx="1558" cy="-886.46" rx="44.69" ry="18"/>
<text text-anchor="middle" x="1558" y="-882.76" font-family="Times,serif" font-size="14.00">int_add</text>
</a>
</g>
</g>
<!-- Core_int_sub&#45;&gt;Core_int_add -->
<g id="edge19" class="edge">
<title>Core_int_sub&#45;&gt;Core_int_add</title>
<path fill="none" stroke="black" d="M1219.8,-1133.51C1288.34,-1083.64 1460.57,-958.34 1529.16,-908.44"/>
<polygon fill="black" stroke="black" points="1531.35,-911.18 1537.37,-902.47 1527.23,-905.52 1531.35,-911.18"/>
</g>
<!-- Core_int_negation -->
<g id="node12" class="node">
<title>Core_int_negation</title>
<g id="a_node12"><a xlink:href="Core.html#int_negation" xlink:title="int_negation">
<ellipse fill="#f070d1" stroke="black" cx="1017" cy="-348.46" rx="68.49" ry="18"/>
<text text-anchor="middle" x="1017" y="-344.76" font-family="Times,serif" font-size="14.00">int_negation</text>
</a>
</g>
</g>
<!-- Core_int_sub&#45;&gt;Core_int_negation -->
<g id="edge20" class="edge">
<title>Core_int_sub&#45;&gt;Core_int_negation</title>
<path fill="none" stroke="black" d="M1180.38,-1129.82C1149.62,-1057.12 1060.58,-836.46 1027,-643.46 1010.12,-546.46 1012.99,-428.82 1015.44,-376.64"/>
<polygon fill="black" stroke="black" points="1018.94,-376.7 1015.95,-366.53 1011.95,-376.34 1018.94,-376.7"/>
</g>
<!-- Core_int_pred -->
<g id="node8" class="node">
<title>Core_int_pred</title>
<g id="a_node8"><a xlink:href="Core.html#int_pred" xlink:title="int_pred">
<ellipse fill="#f070d1" stroke="black" cx="1493" cy="-1155.46" rx="49.31" ry="18"/>
<ellipse fill="none" stroke="black" cx="1493" cy="-1155.46" rx="53.3" ry="22"/>
<ellipse fill="none" stroke="black" cx="1493" cy="-1155.46" rx="57.29" ry="26"/>
<text text-anchor="middle" x="1493" y="-1151.76" font-family="Times,serif" font-size="14.00">int_pred</text>
</a>
</g>
</g>
<!-- Core_int_pred&#45;&gt;Core_int_add -->
<g id="edge21" class="edge">
<title>Core_int_pred&#45;&gt;Core_int_add</title>
<path fill="none" stroke="black" d="M1499.12,-1129.34C1511.39,-1078.94 1538.91,-965.89 1551.49,-914.19"/>
<polygon fill="black" stroke="black" points="1554.91,-914.96 1553.87,-904.42 1548.11,-913.3 1554.91,-914.96"/>
</g>
<!-- Core_int_succ -->
<g id="node9" class="node">
<title>Core_int_succ</title>
<g id="a_node9"><a xlink:href="Core.html#int_succ" xlink:title="int_succ">
<ellipse fill="#f070d1" stroke="black" cx="1624" cy="-1155.46" rx="48.18" ry="18"/>
<ellipse fill="none" stroke="black" cx="1624" cy="-1155.46" rx="52.18" ry="22"/>
<ellipse fill="none" stroke="black" cx="1624" cy="-1155.46" rx="56.19" ry="26"/>
<text text-anchor="middle" x="1624" y="-1151.76" font-family="Times,serif" font-size="14.00">int_succ</text>
</a>
</g>
</g>
<!-- Core_int_succ&#45;&gt;Core_int_add -->
<g id="edge22" class="edge">
<title>Core_int_succ&#45;&gt;Core_int_add</title>
<path fill="none" stroke="black" d="M1617.79,-1129.34C1605.33,-1078.94 1577.39,-965.89 1564.61,-914.19"/>
<polygon fill="black" stroke="black" points="1567.99,-913.28 1562.19,-904.42 1561.19,-914.96 1567.99,-913.28"/>
</g>
<!-- Core_int_pos_sub -->
<g id="node13" class="node">
<title>Core_int_pos_sub</title>
<g id="a_node13"><a xlink:href="Core.html#int_pos_sub" xlink:title="int_pos_sub">
<ellipse fill="#f070d1" stroke="black" cx="1921" cy="-617.46" rx="64.99" ry="18"/>
<text text-anchor="middle" x="1921" y="-613.76" font-family="Times,serif" font-size="14.00">int_pos_sub</text>
</a>
</g>
</g>
<!-- Core_int_add&#45;&gt;Core_int_pos_sub -->
<g id="edge23" class="edge">
<title>Core_int_add&#45;&gt;Core_int_pos_sub</title>
<path fill="none" stroke="black" d="M1578.56,-870.34C1639.38,-825.61 1818.67,-693.73 1890.62,-640.81"/>
<polygon fill="black" stroke="black" points="1892.86,-643.5 1898.84,-634.76 1888.71,-637.86 1892.86,-643.5"/>
</g>
<!-- Core_int_negation_negation -->
<g id="node11" class="node">
<title>Core_int_negation_negation</title>
<g id="a_node11"><a xlink:href="Core.html#int_negation_negation" xlink:title="int_negation_negation">
<ellipse fill="#f070d1" stroke="black" cx="1157" cy="-617.46" rx="113.17" ry="18"/>
<ellipse fill="none" stroke="black" cx="1157" cy="-617.46" rx="117.18" ry="22"/>
<ellipse fill="none" stroke="black" cx="1157" cy="-617.46" rx="121.18" ry="26"/>
<text text-anchor="middle" x="1157" y="-613.76" font-family="Times,serif" font-size="14.00">int_negation_negation</text>
</a>
</g>
</g>
<!-- Core_int_negation_negation&#45;&gt;Core_int_negation -->
<g id="edge24" class="edge">
<title>Core_int_negation_negation&#45;&gt;Core_int_negation</title>
<path fill="none" stroke="black" d="M1143.83,-591.34C1117.29,-540.73 1057.63,-426.95 1030.68,-375.54"/>
<polygon fill="black" stroke="black" points="1033.63,-373.65 1025.89,-366.42 1027.43,-376.9 1033.63,-373.65"/>
</g>
<!-- Core_int_negation&#45;&gt;Core_pos -->
<g id="edge25" class="edge">
<title>Core_int_negation&#45;&gt;Core_pos</title>
<path fill="none" stroke="black" d="M1029.85,-330.76C1062.47,-288.37 1148.52,-176.56 1186.06,-127.78"/>
<polygon fill="black" stroke="black" points="1188.95,-129.76 1192.27,-119.7 1183.4,-125.49 1188.95,-129.76"/>
</g>
<!-- Core_int_negation&#45;&gt;Core_zero -->
<g id="edge26" class="edge">
<title>Core_int_negation&#45;&gt;Core_zero</title>
<path fill="none" stroke="black" d="M1012.29,-330.37C1000.8,-288.72 971.29,-181.68 957.42,-131.36"/>
<polygon fill="black" stroke="black" points="960.74,-130.24 954.71,-121.53 953.99,-132.1 960.74,-130.24"/>
</g>
<!-- Core_int_negation&#45;&gt;Core_neg -->
<g id="edge27" class="edge">
<title>Core_int_negation&#45;&gt;Core_neg</title>
<path fill="none" stroke="black" d="M1053.39,-332.99C1163.27,-289.29 1490.55,-159.13 1595.34,-117.45"/>
<polygon fill="black" stroke="black" points="1596.77,-120.65 1604.77,-113.7 1594.18,-114.14 1596.77,-120.65"/>
</g>
<!-- Core_int_negation&#45;&gt;Core_Int -->
<g id="edge28" class="edge">
<title>Core_int_negation&#45;&gt;Core_Int</title>
<path fill="none" stroke="black" d="M1037.75,-331.14C1092.7,-287.93 1241.77,-170.7 1301.13,-124.02"/>
<polygon fill="black" stroke="black" points="1303.52,-126.59 1309.21,-117.66 1299.19,-121.09 1303.52,-126.59"/>
</g>
<!-- Core_int_pred_double -->
<g id="node14" class="node">
<title>Core_int_pred_double</title>
<g id="a_node14"><a xlink:href="Core.html#int_pred_double" xlink:title="int_pred_double">
<ellipse fill="#f070d1" stroke="black" cx="2117" cy="-348.46" rx="85.29" ry="18"/>
<text text-anchor="middle" x="2117" y="-344.76" font-family="Times,serif" font-size="14.00">int_pred_double</text>
</a>
</g>
</g>
<!-- Core_int_pos_sub&#45;&gt;Core_int_pred_double -->
<g id="edge29" class="edge">
<title>Core_int_pos_sub&#45;&gt;Core_int_pred_double</title>
<path fill="none" stroke="black" d="M1933.26,-599.76C1966.52,-554.45 2058.63,-428.97 2098.36,-374.85"/>
<polygon fill="black" stroke="black" points="2101.4,-376.63 2104.49,-366.5 2095.75,-372.49 2101.4,-376.63"/>
</g>
<!-- Core_int_succ_double -->
<g id="node15" class="node">
<title>Core_int_succ_double</title>
<g id="a_node15"><a xlink:href="Core.html#int_succ_double" xlink:title="int_succ_double">
<ellipse fill="#f070d1" stroke="black" cx="1930" cy="-348.46" rx="83.69" ry="18"/>
<text text-anchor="middle" x="1930" y="-344.76" font-family="Times,serif" font-size="14.00">int_succ_double</text>
</a>
</g>
</g>
<!-- Core_int_pos_sub&#45;&gt;Core_int_succ_double -->
<g id="edge30" class="edge">
<title>Core_int_pos_sub&#45;&gt;Core_int_succ_double</title>
<path fill="none" stroke="black" d="M1921.58,-599.35C1923.1,-554.25 1927.22,-431.8 1929.08,-376.82"/>
<polygon fill="black" stroke="black" points="1932.58,-376.88 1929.42,-366.77 1925.58,-376.65 1932.58,-376.88"/>
</g>
<!-- Core_int_double -->
<g id="node16" class="node">
<title>Core_int_double</title>
<g id="a_node16"><a xlink:href="Core.html#int_double" xlink:title="int_double">
<ellipse fill="#f070d1" stroke="black" cx="1386" cy="-348.46" rx="59.29" ry="18"/>
<text text-anchor="middle" x="1386" y="-344.76" font-family="Times,serif" font-size="14.00">int_double</text>
</a>
</g>
</g>
<!-- Core_int_pos_sub&#45;&gt;Core_int_double -->
<g id="edge31" class="edge">
<title>Core_int_pos_sub&#45;&gt;Core_int_double</title>
<path fill="none" stroke="black" d="M1890.7,-601.34C1799.28,-555.71 1526.23,-419.44 1424.64,-368.74"/>
<polygon fill="black" stroke="black" points="1426.15,-365.58 1415.64,-364.25 1423.02,-371.85 1426.15,-365.58"/>
</g>
<!-- Core_int_pred_double&#45;&gt;Core_pos -->
<g id="edge32" class="edge">
<title>Core_int_pred_double&#45;&gt;Core_pos</title>
<path fill="none" stroke="black" d="M2066.29,-333.96C1900.52,-289.84 1377.37,-150.6 1238.25,-113.58"/>
<polygon fill="black" stroke="black" points="1239.11,-110.18 1228.54,-110.99 1237.31,-116.95 1239.11,-110.18"/>
</g>
<!-- Core_int_pred_double&#45;&gt;Core_neg -->
<g id="edge33" class="edge">
<title>Core_int_pred_double&#45;&gt;Core_neg</title>
<path fill="none" stroke="black" d="M2085.29,-331.7C1996.45,-287.56 1745.91,-163.05 1658.53,-119.63"/>
<polygon fill="black" stroke="black" points="1659.92,-116.41 1649.4,-115.1 1656.8,-122.68 1659.92,-116.41"/>
</g>
<!-- Core_int_pred_double&#45;&gt;Core_Int -->
<g id="edge34" class="edge">
<title>Core_int_pred_double&#45;&gt;Core_Int</title>
<path fill="none" stroke="black" d="M2070.76,-333.26C1926.29,-288.87 1485.48,-153.46 1359.78,-114.84"/>
<polygon fill="black" stroke="black" points="1360.53,-111.41 1349.94,-111.82 1358.48,-118.1 1360.53,-111.41"/>
</g>
<!-- Core_int_succ_double&#45;&gt;Core_pos -->
<g id="edge35" class="edge">
<title>Core_int_succ_double&#45;&gt;Core_pos</title>
<path fill="none" stroke="black" d="M1886.76,-332.99C1754.17,-288.61 1355.19,-155.07 1237.21,-115.58"/>
<polygon fill="black" stroke="black" points="1238.21,-112.22 1227.62,-112.37 1235.99,-118.86 1238.21,-112.22"/>
</g>
<!-- Core_int_succ_double&#45;&gt;Core_neg -->
<g id="edge36" class="edge">
<title>Core_int_succ_double&#45;&gt;Core_neg</title>
<path fill="none" stroke="black" d="M1909.24,-330.76C1855.39,-287.42 1711.33,-171.51 1653.02,-124.59"/>
<polygon fill="black" stroke="black" points="1655.05,-121.73 1645.06,-118.19 1650.66,-127.18 1655.05,-121.73"/>
</g>
<!-- Core_int_succ_double&#45;&gt;Core_Int -->
<g id="edge37" class="edge">
<title>Core_int_succ_double&#45;&gt;Core_Int</title>
<path fill="none" stroke="black" d="M1892.22,-332.26C1781.74,-287.81 1460.65,-158.63 1357.97,-117.32"/>
<polygon fill="black" stroke="black" points="1359.04,-113.98 1348.46,-113.49 1356.43,-120.47 1359.04,-113.98"/>
</g>
<!-- Core_int_double&#45;&gt;Core_pos -->
<g id="edge38" class="edge">
<title>Core_int_double&#45;&gt;Core_pos</title>
<path fill="none" stroke="black" d="M1373.49,-330.76C1341.82,-288.48 1258.4,-177.09 1221.73,-128.13"/>
<polygon fill="black" stroke="black" points="1224.44,-125.92 1215.65,-120.01 1218.84,-130.11 1224.44,-125.92"/>
</g>
<!-- Core_int_double&#45;&gt;Core_zero -->
<g id="edge39" class="edge">
<title>Core_int_double&#45;&gt;Core_zero</title>
<path fill="none" stroke="black" d="M1358.73,-332.26C1281.51,-289.23 1061.77,-166.76 980.61,-121.52"/>
<polygon fill="black" stroke="black" points="981.86,-118.21 971.42,-116.4 978.45,-124.32 981.86,-118.21"/>
</g>
<!-- Core_int_double&#45;&gt;Core_neg -->
<g id="edge40" class="edge">
<title>Core_int_double&#45;&gt;Core_neg</title>
<path fill="none" stroke="black" d="M1402.25,-331.14C1444.6,-288.61 1558.37,-174.38 1606.27,-126.28"/>
<polygon fill="black" stroke="black" points="1608.79,-128.71 1613.37,-119.15 1603.83,-123.77 1608.79,-128.71"/>
</g>
<!-- Core_int_double&#45;&gt;Core_Int -->
<g id="edge41" class="edge">
<title>Core_int_double&#45;&gt;Core_Int</title>
<path fill="none" stroke="black" d="M1381.78,-330.37C1371.5,-288.72 1345.07,-181.68 1332.64,-131.36"/>
<polygon fill="black" stroke="black" points="1336.01,-130.4 1330.21,-121.53 1329.21,-132.08 1336.01,-130.4"/>
</g>
<!-- Core_int_of_number_int -->
<g id="node17" class="node">
<title>Core_int_of_number_int</title>
<g id="a_node17"><a xlink:href="Core.html#int_of_number_int" xlink:title="int_of_number_int">
<ellipse fill="#f070d1" stroke="black" cx="448" cy="-886.46" rx="94.46" ry="18"/>
<ellipse fill="none" stroke="black" cx="448" cy="-886.46" rx="98.47" ry="22"/>
<ellipse fill="none" stroke="black" cx="448" cy="-886.46" rx="102.48" ry="26"/>
<text text-anchor="middle" x="448" y="-882.76" font-family="Times,serif" font-size="14.00">int_of_number_int</text>
</a>
</g>
</g>
<!-- Core_int_of_decimal_int -->
<g id="node18" class="node">
<title>Core_int_of_decimal_int</title>
<g id="a_node18"><a xlink:href="Core.html#int_of_decimal_int" xlink:title="int_of_decimal_int">
<ellipse fill="#f070d1" stroke="black" cx="448" cy="-617.46" rx="94.48" ry="18"/>
<text text-anchor="middle" x="448" y="-613.76" font-family="Times,serif" font-size="14.00">int_of_decimal_int</text>
</a>
</g>
</g>
<!-- Core_int_of_number_int&#45;&gt;Core_int_of_decimal_int -->
<g id="edge42" class="edge">
<title>Core_int_of_number_int&#45;&gt;Core_int_of_decimal_int</title>
<path fill="none" stroke="black" d="M448,-860.34C448,-810.17 448,-697.9 448,-645.89"/>
<polygon fill="black" stroke="black" points="451.5,-645.75 448,-635.75 444.5,-645.75 451.5,-645.75"/>
</g>
<!-- Core_int_of_decimal_uint -->
<g id="node19" class="node">
<title>Core_int_of_decimal_uint</title>
<g id="a_node19"><a xlink:href="Core.html#int_of_decimal_uint" xlink:title="int_of_decimal_uint">
<ellipse fill="#f070d1" stroke="black" cx="447" cy="-348.46" rx="100.18" ry="18"/>
<text text-anchor="middle" x="447" y="-344.76" font-family="Times,serif" font-size="14.00">int_of_decimal_uint</text>
</a>
</g>
</g>
<!-- Core_int_of_decimal_int&#45;&gt;Core_int_of_decimal_uint -->
<g id="edge43" class="edge">
<title>Core_int_of_decimal_int&#45;&gt;Core_int_of_decimal_uint</title>
<path fill="none" stroke="black" d="M447.94,-599.35C447.77,-554.25 447.31,-431.8 447.1,-376.82"/>
<polygon fill="black" stroke="black" points="450.6,-376.76 447.06,-366.77 443.6,-376.78 450.6,-376.76"/>
</g>
<!-- Core_int_of_decimal_int&#45;&gt;Core_neg -->
<g id="edge44" class="edge">
<title>Core_int_of_decimal_int&#45;&gt;Core_neg</title>
<path fill="none" stroke="black" d="M500.6,-602.5C517.26,-598.46 535.82,-594.37 553,-591.46 1021.89,-512.1 2363.23,-727.37 2682,-374.46 2826.91,-214.02 1869.98,-124.63 1665.79,-107.5"/>
<polygon fill="black" stroke="black" points="1665.82,-103.99 1655.57,-106.65 1665.24,-110.97 1665.82,-103.99"/>
</g>
<!-- Core_int_of_decimal_uint&#45;&gt;Core_pos -->
<g id="edge45" class="edge">
<title>Core_int_of_decimal_uint&#45;&gt;Core_pos</title>
<path fill="none" stroke="black" d="M493.78,-332.44C634.11,-287.4 1049.22,-154.15 1170.42,-115.24"/>
<polygon fill="black" stroke="black" points="1171.8,-118.47 1180.25,-112.08 1169.66,-111.81 1171.8,-118.47"/>
</g>
<!-- Core_int_of_decimal_uint&#45;&gt;Core_zero -->
<g id="edge46" class="edge">
<title>Core_int_of_decimal_uint&#45;&gt;Core_zero</title>
<path fill="none" stroke="black" d="M480.39,-331.33C572.17,-286.99 827.39,-163.69 917.77,-120.03"/>
<polygon fill="black" stroke="black" points="919.49,-123.09 926.98,-115.58 916.45,-116.78 919.49,-123.09"/>
</g>
<!-- Core_int_of_decimal_uint&#45;&gt;Core_Int -->
<g id="edge47" class="edge">
<title>Core_int_of_decimal_uint&#45;&gt;Core_Int</title>
<path fill="none" stroke="black" d="M499.03,-333.08C661.49,-288.16 1156.58,-151.3 1291.65,-113.96"/>
<polygon fill="black" stroke="black" points="1292.75,-117.28 1301.46,-111.24 1290.89,-110.54 1292.75,-117.28"/>
</g>
<!-- Core_int_to_number_int -->
<g id="node20" class="node">
<title>Core_int_to_number_int</title>
<g id="a_node20"><a xlink:href="Core.html#int_to_number_int" xlink:title="int_to_number_int">
<ellipse fill="#f070d1" stroke="black" cx="2472" cy="-617.46" rx="94.79" ry="18"/>
<ellipse fill="none" stroke="black" cx="2472" cy="-617.46" rx="98.79" ry="22"/>
<ellipse fill="none" stroke="black" cx="2472" cy="-617.46" rx="102.78" ry="26"/>
<text text-anchor="middle" x="2472" y="-613.76" font-family="Times,serif" font-size="14.00">int_to_number_int</text>
</a>
</g>
</g>
<!-- Core_int_to_decimal_int -->
<g id="node21" class="node">
<title>Core_int_to_decimal_int</title>
<g id="a_node21"><a xlink:href="Core.html#int_to_decimal_int" xlink:title="int_to_decimal_int">
<ellipse fill="#f070d1" stroke="black" cx="2472" cy="-348.46" rx="94.78" ry="18"/>
<text text-anchor="middle" x="2472" y="-344.76" font-family="Times,serif" font-size="14.00">int_to_decimal_int</text>
</a>
</g>
</g>
<!-- Core_int_to_number_int&#45;&gt;Core_int_to_decimal_int -->
<g id="edge48" class="edge">
<title>Core_int_to_number_int&#45;&gt;Core_int_to_decimal_int</title>
<path fill="none" stroke="black" d="M2472,-591.34C2472,-541.17 2472,-428.9 2472,-376.89"/>
<polygon fill="black" stroke="black" points="2475.5,-376.75 2472,-366.75 2468.5,-376.75 2475.5,-376.75"/>
</g>
<!-- Core_int_to_decimal_int&#45;&gt;Core_Int -->
<g id="edge49" class="edge">
<title>Core_int_to_decimal_int&#45;&gt;Core_Int</title>
<path fill="none" stroke="black" d="M2417.02,-333.77C2401.51,-330 2384.62,-325.99 2369,-322.46 1975.02,-233.5 1494.39,-137.71 1361.5,-111.45"/>
<polygon fill="black" stroke="black" points="1361.97,-107.98 1351.48,-109.47 1360.61,-114.84 1361.97,-107.98"/>
</g>
<!-- Core_neg_neq_pos -->
<g id="node25" class="node">
<title>Core_neg_neq_pos</title>
<g id="a_node25"><a xlink:href="Core.html#neg_neq_pos" xlink:title="neg_neq_pos">
<ellipse fill="#f070d1" stroke="black" cx="2290" cy="-348.46" rx="69.59" ry="18"/>
<text text-anchor="middle" x="2290" y="-344.76" font-family="Times,serif" font-size="14.00">neg_neq_pos</text>
</a>
</g>
</g>
<!-- Core_pos_neq_neg&#45;&gt;Core_neg_neq_pos -->
<g id="edge50" class="edge">
<title>Core_pos_neq_neg&#45;&gt;Core_neg_neq_pos</title>
<path fill="none" stroke="black" d="M2185.18,-599.35C2204.22,-553.95 2256.14,-430.19 2278.97,-375.75"/>
<polygon fill="black" stroke="black" points="2282.24,-377 2282.88,-366.43 2275.79,-374.29 2282.24,-377"/>
</g>
<!-- Core_pos_neq_zero -->
<g id="node26" class="node">
<title>Core_pos_neq_zero</title>
<g id="a_node26"><a xlink:href="Core.html#pos_neq_zero" xlink:title="pos_neq_zero">
<ellipse fill="#f070d1" stroke="black" cx="638" cy="-348.46" rx="72.59" ry="18"/>
<text text-anchor="middle" x="638" y="-344.76" font-family="Times,serif" font-size="14.00">pos_neq_zero</text>
</a>
</g>
</g>
<!-- Core_zero_neq_pos&#45;&gt;Core_pos_neq_zero -->
<g id="edge51" class="edge">
<title>Core_zero_neq_pos&#45;&gt;Core_pos_neq_zero</title>
<path fill="none" stroke="black" d="M635.19,-599.35C635.7,-554.25 637.07,-431.8 637.69,-376.82"/>
<polygon fill="black" stroke="black" points="641.19,-376.81 637.81,-366.77 634.19,-376.73 641.19,-376.81"/>
</g>
<!-- Core_neg_neq_zero -->
<g id="node27" class="node">
<title>Core_neg_neq_zero</title>
<g id="a_node27"><a xlink:href="Core.html#neg_neq_zero" xlink:title="neg_neq_zero">
<ellipse fill="#f070d1" stroke="black" cx="1755" cy="-348.46" rx="73.39" ry="18"/>
<text text-anchor="middle" x="1755" y="-344.76" font-family="Times,serif" font-size="14.00">neg_neq_zero</text>
</a>
</g>
</g>
<!-- Core_zero_neq_neg&#45;&gt;Core_neg_neq_zero -->
<g id="edge52" class="edge">
<title>Core_zero_neq_neg&#45;&gt;Core_neg_neq_zero</title>
<path fill="none" stroke="black" d="M1755,-599.35C1755,-554.25 1755,-431.8 1755,-376.82"/>
<polygon fill="black" stroke="black" points="1758.5,-376.77 1755,-366.77 1751.5,-376.77 1758.5,-376.77"/>
</g>
<!-- Core_neg_neq_pos&#45;&gt;Core_pos -->
<g id="edge53" class="edge">
<title>Core_neg_neq_pos&#45;&gt;Core_pos</title>
<path fill="none" stroke="black" d="M2249.21,-333.75C2236.99,-329.86 2223.51,-325.79 2211,-322.46 2017.93,-271.13 1395.14,-143.41 1239.5,-111.68"/>
<polygon fill="black" stroke="black" points="1240.02,-108.22 1229.53,-109.65 1238.63,-115.08 1240.02,-108.22"/>
</g>
<!-- Core_neg_neq_pos&#45;&gt;Core_neg -->
<g id="edge54" class="edge">
<title>Core_neg_neq_pos&#45;&gt;Core_neg</title>
<path fill="none" stroke="black" d="M2251.55,-333.35C2132.73,-289.73 1772.79,-157.61 1661.29,-116.68"/>
<polygon fill="black" stroke="black" points="1662.19,-113.28 1651.59,-113.12 1659.77,-119.85 1662.19,-113.28"/>
</g>
<!-- Core_neg_neq_pos&#45;&gt;Core_Int -->
<g id="edge55" class="edge">
<title>Core_neg_neq_pos&#45;&gt;Core_Int</title>
<path fill="none" stroke="black" d="M2248.74,-333.85C2236.63,-330 2223.33,-325.92 2211,-322.46 1883.09,-230.3 1480.92,-138.99 1361.2,-112.27"/>
<polygon fill="black" stroke="black" points="1361.67,-108.78 1351.14,-110.02 1360.14,-115.62 1361.67,-108.78"/>
</g>
<!-- Core_pos_neq_zero&#45;&gt;Core_pos -->
<g id="edge56" class="edge">
<title>Core_pos_neq_zero&#45;&gt;Core_pos</title>
<path fill="none" stroke="black" d="M672.98,-332.44C775.51,-288.43 1074.23,-160.18 1172.36,-118.05"/>
<polygon fill="black" stroke="black" points="1173.93,-121.18 1181.74,-114.02 1171.17,-114.75 1173.93,-121.18"/>
</g>
<!-- Core_pos_neq_zero&#45;&gt;Core_zero -->
<g id="edge57" class="edge">
<title>Core_pos_neq_zero&#45;&gt;Core_zero</title>
<path fill="none" stroke="black" d="M658.96,-331.14C714.17,-288.13 863.54,-171.8 924.04,-124.68"/>
<polygon fill="black" stroke="black" points="926.56,-127.15 932.3,-118.25 922.26,-121.63 926.56,-127.15"/>
</g>
<!-- Core_pos_neq_zero&#45;&gt;Core_Int -->
<g id="edge58" class="edge">
<title>Core_pos_neq_zero&#45;&gt;Core_Int</title>
<path fill="none" stroke="black" d="M677.96,-333.35C801.99,-289.54 1178.81,-156.45 1292.91,-116.15"/>
<polygon fill="black" stroke="black" points="1294.25,-119.39 1302.51,-112.76 1291.91,-112.79 1294.25,-119.39"/>
</g>
<!-- Core_neg_neq_zero&#45;&gt;Core_zero -->
<g id="edge59" class="edge">
<title>Core_neg_neq_zero&#45;&gt;Core_zero</title>
<path fill="none" stroke="black" d="M1710.57,-334.05C1566.98,-290.7 1117.1,-154.9 986.11,-115.36"/>
<polygon fill="black" stroke="black" points="987.12,-112.01 976.54,-112.47 985.1,-118.71 987.12,-112.01"/>
</g>
<!-- Core_neg_neq_zero&#45;&gt;Core_neg -->
<g id="edge60" class="edge">
<title>Core_neg_neq_zero&#45;&gt;Core_neg</title>
<path fill="none" stroke="black" d="M1746.07,-330.37C1724.1,-288.34 1667.34,-179.74 1641.35,-130.01"/>
<polygon fill="black" stroke="black" points="1644.32,-128.13 1636.58,-120.89 1638.11,-131.37 1644.32,-128.13"/>
</g>
<!-- Core_neg_neq_zero&#45;&gt;Core_Int -->
<g id="edge61" class="edge">
<title>Core_neg_neq_zero&#45;&gt;Core_Int</title>
<path fill="none" stroke="black" d="M1727.18,-331.7C1649.93,-287.94 1433.29,-165.23 1354.83,-120.79"/>
<polygon fill="black" stroke="black" points="1356.39,-117.65 1345.96,-115.77 1352.94,-123.74 1356.39,-117.65"/>
</g>
<!-- Core_pos_inj&#45;&gt;Core_pos -->
<g id="edge62" class="edge">
<title>Core_pos_inj&#45;&gt;Core_pos</title>
<path fill="none" stroke="black" d="M1261.64,-330.37C1251.01,-288.72 1223.7,-181.68 1210.86,-131.36"/>
<polygon fill="black" stroke="black" points="1214.22,-130.35 1208.35,-121.53 1207.44,-132.08 1214.22,-130.35"/>
</g>
<!-- Core_pos_inj&#45;&gt;Core_Int -->
<g id="edge63" class="edge">
<title>Core_pos_inj&#45;&gt;Core_Int</title>
<path fill="none" stroke="black" d="M1270.22,-330.37C1280.5,-288.72 1306.93,-181.68 1319.36,-131.36"/>
<polygon fill="black" stroke="black" points="1322.79,-132.08 1321.79,-121.53 1315.99,-130.4 1322.79,-132.08"/>
</g>
<!-- Core_neg_inj&#45;&gt;Core_neg -->
<g id="edge64" class="edge">
<title>Core_neg_inj&#45;&gt;Core_neg</title>
<path fill="none" stroke="black" d="M2603.05,-333.86C2594.58,-329.79 2585.04,-325.59 2576,-322.46 2231.42,-203.13 1793.67,-130.01 1665.08,-110.04"/>
<polygon fill="black" stroke="black" points="1665.39,-106.55 1654.98,-108.48 1664.33,-113.47 1665.39,-106.55"/>
</g>
<!-- Core_neg_inj&#45;&gt;Core_Int -->
<g id="edge65" class="edge">
<title>Core_neg_inj&#45;&gt;Core_Int</title>
<path fill="none" stroke="black" d="M2603.41,-333.7C2594.89,-329.57 2585.21,-325.38 2576,-322.46 2111.48,-175.35 1516.49,-119.71 1363.28,-107.3"/>
<polygon fill="black" stroke="black" points="1363.27,-103.78 1353.02,-106.48 1362.71,-110.76 1363.27,-103.78"/>
</g>
<!-- Core_ispointed_Int -->
<g id="node30" class="node">
<title>Core_ispointed_Int</title>
<g id="a_node30"><a xlink:href="Core.html#ispointed_Int" xlink:title="ispointed_Int">
<ellipse fill="#f070d1" stroke="black" cx="249" cy="-348.46" rx="71.49" ry="18"/>
<ellipse fill="none" stroke="black" cx="249" cy="-348.46" rx="75.49" ry="22"/>
<ellipse fill="none" stroke="black" cx="249" cy="-348.46" rx="79.49" ry="26"/>
<text text-anchor="middle" x="249" y="-344.76" font-family="Times,serif" font-size="14.00">ispointed_Int</text>
</a>
</g>
</g>
<!-- Core_ispointed_Int&#45;&gt;Core_zero -->
<g id="edge66" class="edge">
<title>Core_ispointed_Int&#45;&gt;Core_zero</title>
<path fill="none" stroke="black" d="M302.26,-329C439.04,-281.58 799.9,-156.49 914.52,-116.76"/>
<polygon fill="black" stroke="black" points="915.91,-119.98 924.22,-113.4 913.62,-113.37 915.91,-119.98"/>
</g>
<!-- Core_ispointed_Int&#45;&gt;Core_Int -->
<g id="edge67" class="edge">
<title>Core_ispointed_Int&#45;&gt;Core_Int</title>
<path fill="none" stroke="black" d="M307.28,-330.58C317.49,-327.77 328.04,-324.96 338,-322.46 707.99,-229.76 1161.16,-137.47 1290.2,-111.6"/>
<polygon fill="black" stroke="black" points="1291.19,-114.97 1300.3,-109.57 1289.81,-108.1 1291.19,-114.97"/>
</g>
<!-- Core_Int_sind -->
<g id="node31" class="node">
<title>Core_Int_sind</title>
<g id="a_node31"><a xlink:href="Core.html#Int_sind" xlink:title="Int_sind">
<ellipse fill="#f070d1" stroke="black" cx="1519" cy="-348.46" rx="48.18" ry="18"/>
<ellipse fill="none" stroke="black" cx="1519" cy="-348.46" rx="52.18" ry="22"/>
<ellipse fill="none" stroke="black" cx="1519" cy="-348.46" rx="56.19" ry="26"/>
<text text-anchor="middle" x="1519" y="-344.76" font-family="Times,serif" font-size="14.00">Int_sind</text>
</a>
</g>
</g>
<!-- Core_Int_sind&#45;&gt;Core_pos -->
<g id="edge68" class="edge">
<title>Core_Int_sind&#45;&gt;Core_pos</title>
<path fill="none" stroke="black" d="M1491.05,-325.9C1430.34,-279.07 1287.25,-168.68 1229.16,-123.87"/>
<polygon fill="black" stroke="black" points="1231.29,-121.09 1221.23,-117.75 1227.01,-126.63 1231.29,-121.09"/>
</g>
<!-- Core_Int_sind&#45;&gt;Core_zero -->
<g id="edge69" class="edge">
<title>Core_Int_sind&#45;&gt;Core_zero</title>
<path fill="none" stroke="black" d="M1478.54,-330.18C1371.51,-284.47 1082.47,-161.03 983.65,-118.83"/>
<polygon fill="black" stroke="black" points="984.73,-115.49 974.16,-114.78 981.98,-121.93 984.73,-115.49"/>
</g>
<!-- Core_Int_sind&#45;&gt;Core_neg -->
<g id="edge70" class="edge">
<title>Core_Int_sind&#45;&gt;Core_neg</title>
<path fill="none" stroke="black" d="M1530.05,-322.82C1550.77,-276.64 1595.25,-177.46 1616.39,-130.34"/>
<polygon fill="black" stroke="black" points="1619.63,-131.67 1620.53,-121.12 1613.24,-128.81 1619.63,-131.67"/>
</g>
<!-- Core_Int_sind&#45;&gt;Core_Int -->
<g id="edge71" class="edge">
<title>Core_Int_sind&#45;&gt;Core_Int</title>
<path fill="none" stroke="black" d="M1500.14,-323.72C1463.09,-277.06 1381.19,-173.94 1344.46,-127.7"/>
<polygon fill="black" stroke="black" points="1347.1,-125.4 1338.14,-119.75 1341.62,-129.76 1347.1,-125.4"/>
</g>
<!-- Core_Int_rec -->
<g id="node32" class="node">
<title>Core_Int_rec</title>
<g id="a_node32"><a xlink:href="Core.html#Int_rec" xlink:title="Int_rec">
<ellipse fill="#f070d1" stroke="black" cx="905" cy="-617.46" rx="42.81" ry="18"/>
<ellipse fill="none" stroke="black" cx="905" cy="-617.46" rx="46.8" ry="22"/>
<ellipse fill="none" stroke="black" cx="905" cy="-617.46" rx="50.79" ry="26"/>
<text text-anchor="middle" x="905" y="-613.76" font-family="Times,serif" font-size="14.00">Int_rec</text>
</a>
</g>
</g>
<!-- Core_Int_rect -->
<g id="node34" class="node">
<title>Core_Int_rect</title>
<g id="a_node34"><a xlink:href="Core.html#Int_rect" xlink:title="Int_rect">
<ellipse fill="#f070d1" stroke="black" cx="884" cy="-348.46" rx="46.59" ry="18"/>
<text text-anchor="middle" x="884" y="-344.76" font-family="Times,serif" font-size="14.00">Int_rect</text>
</a>
</g>
</g>
<!-- Core_Int_rec&#45;&gt;Core_Int_rect -->
<g id="edge72" class="edge">
<title>Core_Int_rec&#45;&gt;Core_Int_rect</title>
<path fill="none" stroke="black" d="M903.02,-591.34C899.08,-541.17 890.25,-428.9 886.16,-376.89"/>
<polygon fill="black" stroke="black" points="889.63,-376.44 885.36,-366.75 882.65,-376.99 889.63,-376.44"/>
</g>
<!-- Core_Int_ind -->
<g id="node33" class="node">
<title>Core_Int_ind</title>
<g id="a_node33"><a xlink:href="Core.html#Int_ind" xlink:title="Int_ind">
<ellipse fill="#7fffd4" stroke="black" cx="1154" cy="-348.46" rx="42.81" ry="18"/>
<ellipse fill="none" stroke="black" cx="1154" cy="-348.46" rx="46.8" ry="22"/>
<ellipse fill="none" stroke="black" cx="1154" cy="-348.46" rx="50.79" ry="26"/>
<text text-anchor="middle" x="1154" y="-344.76" font-family="Times,serif" font-size="14.00">Int_ind</text>
</a>
</g>
</g>
<!-- Core_Int_ind&#45;&gt;Core_pos -->
<g id="edge73" class="edge">
<title>Core_Int_ind&#45;&gt;Core_pos</title>
<path fill="none" stroke="black" d="M1159.16,-322.37C1168.65,-276.26 1188.78,-178.45 1198.51,-131.17"/>
<polygon fill="black" stroke="black" points="1201.94,-131.85 1200.53,-121.35 1195.08,-130.44 1201.94,-131.85"/>
</g>
<!-- Core_Int_ind&#45;&gt;Core_zero -->
<g id="edge74" class="edge">
<title>Core_Int_ind&#45;&gt;Core_zero</title>
<path fill="none" stroke="black" d="M1134.44,-324.16C1095.4,-277.65 1008.23,-173.82 969.35,-127.51"/>
<polygon fill="black" stroke="black" points="972.01,-125.23 962.9,-119.82 966.64,-129.73 972.01,-125.23"/>
</g>
<!-- Core_Int_ind&#45;&gt;Core_neg -->
<g id="edge75" class="edge">
<title>Core_Int_ind&#45;&gt;Core_neg</title>
<path fill="none" stroke="black" d="M1189.24,-329.39C1278.8,-283.48 1513.95,-162.93 1597.78,-119.95"/>
<polygon fill="black" stroke="black" points="1599.48,-123.02 1606.78,-115.34 1596.28,-116.79 1599.48,-123.02"/>
</g>
<!-- Core_Int_ind&#45;&gt;Core_Int -->
<g id="edge76" class="edge">
<title>Core_Int_ind&#45;&gt;Core_Int</title>
<path fill="none" stroke="black" d="M1170.81,-323.72C1203.68,-277.27 1276.16,-174.87 1309.11,-128.32"/>
<polygon fill="black" stroke="black" points="1312.04,-130.23 1314.97,-120.05 1306.33,-126.19 1312.04,-130.23"/>
</g>
<!-- Core_Int_rect&#45;&gt;Core_pos -->
<g id="edge77" class="edge">
<title>Core_Int_rect&#45;&gt;Core_pos</title>
<path fill="none" stroke="black" d="M904.5,-331.89C960.76,-289.17 1117.41,-170.21 1178.83,-123.57"/>
<polygon fill="black" stroke="black" points="1181,-126.32 1186.85,-117.49 1176.77,-120.75 1181,-126.32"/>
</g>
<!-- Core_Int_rect&#45;&gt;Core_zero -->
<g id="edge78" class="edge">
<title>Core_Int_rect&#45;&gt;Core_zero</title>
<path fill="none" stroke="black" d="M888.64,-330.37C899.95,-288.72 929.03,-181.68 942.69,-131.36"/>
<polygon fill="black" stroke="black" points="946.12,-132.1 945.36,-121.53 939.37,-130.26 946.12,-132.1"/>
</g>
<!-- Core_Int_rect&#45;&gt;Core_neg -->
<g id="edge79" class="edge">
<title>Core_Int_rect&#45;&gt;Core_neg</title>
<path fill="none" stroke="black" d="M912.52,-333.98C921.25,-330.06 930.94,-325.9 940,-322.46 1185.7,-229.03 1490.75,-142.33 1592.87,-114.07"/>
<polygon fill="black" stroke="black" points="1593.95,-117.4 1602.66,-111.37 1592.09,-110.66 1593.95,-117.4"/>
</g>
<!-- Core_Int_rect&#45;&gt;Core_Int -->
<g id="edge80" class="edge">
<title>Core_Int_rect&#45;&gt;Core_Int</title>
<path fill="none" stroke="black" d="M909.67,-333.35C986.51,-291.1 1214.4,-165.82 1296.28,-120.8"/>
<polygon fill="black" stroke="black" points="1298.45,-123.6 1305.52,-115.72 1295.08,-117.47 1298.45,-123.6"/>
</g>
</g>
</svg>
