<?xml version="1.0" encoding="UTF-8" standalone="no"?>
<!DOCTYPE svg PUBLIC "-//W3C//DTD SVG 1.1//EN"
 "http://www.w3.org/Graphics/SVG/1.1/DTD/svg11.dtd">
<!-- Generated by graphviz version 2.43.0 (0)
 -->
<!-- Title: HoTT_Modalities_Lex Pages: 1 -->
<svg width="4426pt" height="2217pt"
 viewBox="0.00 0.00 4426.00 2217.00" xmlns="http://www.w3.org/2000/svg" xmlns:xlink="http://www.w3.org/1999/xlink">
<g id="graph0" class="graph" transform="scale(1 1) rotate(0) translate(4 2213)">
<title>HoTT_Modalities_Lex</title>
<polygon fill="white" stroke="transparent" points="-4,4 -4,-2213 4422,-2213 4422,4 -4,4"/>
<g id="clust1" class="cluster">
<title>cluster_Lex</title>
<polygon fill="#ffffc3" stroke="black" points="8,-43 8,-2166 4410,-2166 4410,-43 8,-43"/>
<text text-anchor="middle" x="29" y="-2150.8" font-family="Times,serif" font-size="14.00">Lex</text>
</g>
<!-- Lex_nsep_iff_trunc_to_O -->
<g id="node1" class="node">
<title>Lex_nsep_iff_trunc_to_O</title>
<g id="a_node1"><a xlink:href="Lex.html#nsep_iff_trunc_to_O" xlink:title="nsep_iff_trunc_to_O">
<ellipse fill="#f070d1" stroke="black" cx="4293" cy="-1860" rx="100.96" ry="18"/>
<ellipse fill="none" stroke="black" cx="4293" cy="-1860" rx="104.97" ry="22"/>
<ellipse fill="none" stroke="black" cx="4293" cy="-1860" rx="108.98" ry="26"/>
<text text-anchor="middle" x="4293" y="-1856.3" font-family="Times,serif" font-size="14.00">nsep_iff_trunc_to_O</text>
</a>
</g>
</g>
<!-- Lex_nSep -->
<g id="node2" class="node">
<title>Lex_nSep</title>
<g id="a_node2"><a xlink:href="Lex.html#nSep" xlink:title="nSep">
<ellipse fill="#f070d1" stroke="black" cx="4368" cy="-1387" rx="34.39" ry="18"/>
<text text-anchor="middle" x="4368" y="-1383.3" font-family="Times,serif" font-size="14.00">nSep</text>
</a>
</g>
</g>
<!-- Lex_nsep_iff_trunc_to_O&#45;&gt;Lex_nSep -->
<g id="edge1" class="edge">
<title>Lex_nsep_iff_trunc_to_O&#45;&gt;Lex_nSep</title>
<path fill="none" stroke="black" d="M4296.98,-1834.01C4309.86,-1753.11 4350.36,-1498.8 4363.69,-1415.04"/>
<polygon fill="black" stroke="black" points="4367.17,-1415.47 4365.29,-1405.04 4360.26,-1414.37 4367.17,-1415.47"/>
</g>
<!-- Lex_equiv_path_O_to_O -->
<g id="node21" class="node">
<title>Lex_equiv_path_O_to_O</title>
<g id="a_node21"><a xlink:href="Lex.html#equiv_path_O_to_O" xlink:title="equiv_path_O_to_O">
<ellipse fill="#f070d1" stroke="black" cx="4217" cy="-1387" rx="98.58" ry="18"/>
<text text-anchor="middle" x="4217" y="-1383.3" font-family="Times,serif" font-size="14.00">equiv_path_O_to_O</text>
</a>
</g>
</g>
<!-- Lex_nsep_iff_trunc_to_O&#45;&gt;Lex_equiv_path_O_to_O -->
<g id="edge2" class="edge">
<title>Lex_nsep_iff_trunc_to_O&#45;&gt;Lex_equiv_path_O_to_O</title>
<path fill="none" stroke="black" d="M4288.97,-1834.01C4275.91,-1753.11 4234.88,-1498.8 4221.36,-1415.04"/>
<polygon fill="black" stroke="black" points="4224.8,-1414.36 4219.75,-1405.04 4217.89,-1415.47 4224.8,-1414.36"/>
</g>
<!-- Lex_lex_gen -->
<g id="node3" class="node">
<title>Lex_lex_gen</title>
<g id="a_node3"><a xlink:href="Lex.html#lex_gen" xlink:title="lex_gen">
<ellipse fill="#f070d1" stroke="black" cx="4112" cy="-1860" rx="46.27" ry="18"/>
<ellipse fill="none" stroke="black" cx="4112" cy="-1860" rx="50.28" ry="22"/>
<ellipse fill="none" stroke="black" cx="4112" cy="-1860" rx="54.29" ry="26"/>
<text text-anchor="middle" x="4112" y="-1856.3" font-family="Times,serif" font-size="14.00">lex_gen</text>
</a>
</g>
</g>
<!-- Lex_lex_from_inO_typeO -->
<g id="node10" class="node">
<title>Lex_lex_from_inO_typeO</title>
<g id="a_node10"><a xlink:href="Lex.html#lex_from_inO_typeO" xlink:title="lex_from_inO_typeO">
<ellipse fill="#f070d1" stroke="black" cx="3997" cy="-1387" rx="103.18" ry="18"/>
<text text-anchor="middle" x="3997" y="-1383.3" font-family="Times,serif" font-size="14.00">lex_from_inO_typeO</text>
</a>
</g>
</g>
<!-- Lex_lex_gen&#45;&gt;Lex_lex_from_inO_typeO -->
<g id="edge3" class="edge">
<title>Lex_lex_gen&#45;&gt;Lex_lex_from_inO_typeO</title>
<path fill="none" stroke="black" d="M4105.9,-1834.01C4086.13,-1753.03 4023.93,-1498.28 4003.54,-1414.79"/>
<polygon fill="black" stroke="black" points="4006.93,-1413.93 4001.16,-1405.04 4000.13,-1415.59 4006.93,-1413.93"/>
</g>
<!-- Lex_ismodality_isequiv_O_functor_hfiber -->
<g id="node4" class="node">
<title>Lex_ismodality_isequiv_O_functor_hfiber</title>
<g id="a_node4"><a xlink:href="Lex.html#ismodality_isequiv_O_functor_hfiber" xlink:title="ismodality_isequiv_O_functor_hfiber">
<ellipse fill="#f070d1" stroke="black" cx="3854" cy="-1860" rx="178.16" ry="18"/>
<ellipse fill="none" stroke="black" cx="3854" cy="-1860" rx="182.17" ry="22"/>
<ellipse fill="none" stroke="black" cx="3854" cy="-1860" rx="186.17" ry="26"/>
<text text-anchor="middle" x="3854" y="-1856.3" font-family="Times,serif" font-size="14.00">ismodality_isequiv_O_functor_hfiber</text>
</a>
</g>
</g>
<!-- Lex_lex_from_ispullback_connmap_mapino_commsq -->
<g id="node5" class="node">
<title>Lex_lex_from_ispullback_connmap_mapino_commsq</title>
<g id="a_node5"><a xlink:href="Lex.html#lex_from_ispullback_connmap_mapino_commsq" xlink:title="lex_from_ispullback_connmap_mapino_commsq">
<ellipse fill="#f070d1" stroke="black" cx="3412" cy="-1860" rx="229.36" ry="18"/>
<ellipse fill="none" stroke="black" cx="3412" cy="-1860" rx="233.36" ry="22"/>
<ellipse fill="none" stroke="black" cx="3412" cy="-1860" rx="237.36" ry="26"/>
<text text-anchor="middle" x="3412" y="-1856.3" font-family="Times,serif" font-size="14.00">lex_from_ispullback_connmap_mapino_commsq</text>
</a>
</g>
</g>
<!-- Lex_lex_from_isequiv_ismodal_isconnected_types -->
<g id="node6" class="node">
<title>Lex_lex_from_isequiv_ismodal_isconnected_types</title>
<g id="a_node6"><a xlink:href="Lex.html#lex_from_isequiv_ismodal_isconnected_types" xlink:title="lex_from_isequiv_ismodal_isconnected_types">
<ellipse fill="#f070d1" stroke="black" cx="3412" cy="-1387" rx="217.96" ry="18"/>
<text text-anchor="middle" x="3412" y="-1383.3" font-family="Times,serif" font-size="14.00">lex_from_isequiv_ismodal_isconnected_types</text>
</a>
</g>
</g>
<!-- Lex_lex_from_ispullback_connmap_mapino_commsq&#45;&gt;Lex_lex_from_isequiv_ismodal_isconnected_types -->
<g id="edge4" class="edge">
<title>Lex_lex_from_ispullback_connmap_mapino_commsq&#45;&gt;Lex_lex_from_isequiv_ismodal_isconnected_types</title>
<path fill="none" stroke="black" d="M3412,-1833.67C3412,-1752.48 3412,-1499.09 3412,-1415.24"/>
<polygon fill="black" stroke="black" points="3415.5,-1415 3412,-1405 3408.5,-1415 3415.5,-1415"/>
</g>
<!-- Lex_lex_from_conn_map_lex -->
<g id="node8" class="node">
<title>Lex_lex_from_conn_map_lex</title>
<g id="a_node8"><a xlink:href="Lex.html#lex_from_conn_map_lex" xlink:title="lex_from_conn_map_lex">
<ellipse fill="#f070d1" stroke="black" cx="3220" cy="-957" rx="119.68" ry="18"/>
<text text-anchor="middle" x="3220" y="-953.3" font-family="Times,serif" font-size="14.00">lex_from_conn_map_lex</text>
</a>
</g>
</g>
<!-- Lex_lex_from_isequiv_ismodal_isconnected_types&#45;&gt;Lex_lex_from_conn_map_lex -->
<g id="edge5" class="edge">
<title>Lex_lex_from_isequiv_ismodal_isconnected_types&#45;&gt;Lex_lex_from_conn_map_lex</title>
<path fill="none" stroke="black" d="M3404.35,-1368.96C3374.79,-1303.05 3267.83,-1064.61 3231.88,-984.48"/>
<polygon fill="black" stroke="black" points="3234.95,-982.78 3227.67,-975.09 3228.57,-985.65 3234.95,-982.78"/>
</g>
<!-- Lex_lex_from_isconnected_paths -->
<g id="node7" class="node">
<title>Lex_lex_from_isconnected_paths</title>
<g id="a_node7"><a xlink:href="Lex.html#lex_from_isconnected_paths" xlink:title="lex_from_isconnected_paths">
<ellipse fill="#f070d1" stroke="black" cx="3028" cy="-1387" rx="140.28" ry="18"/>
<ellipse fill="none" stroke="black" cx="3028" cy="-1387" rx="144.28" ry="22"/>
<ellipse fill="none" stroke="black" cx="3028" cy="-1387" rx="148.28" ry="26"/>
<text text-anchor="middle" x="3028" y="-1383.3" font-family="Times,serif" font-size="14.00">lex_from_isconnected_paths</text>
</a>
</g>
</g>
<!-- Lex_lex_from_isconnected_paths&#45;&gt;Lex_lex_from_conn_map_lex -->
<g id="edge6" class="edge">
<title>Lex_lex_from_isconnected_paths&#45;&gt;Lex_lex_from_conn_map_lex</title>
<path fill="none" stroke="black" d="M3039.29,-1360.82C3073.14,-1285.37 3173.55,-1061.55 3208.13,-984.45"/>
<polygon fill="black" stroke="black" points="3211.48,-985.53 3212.38,-974.98 3205.1,-982.67 3211.48,-985.53"/>
</g>
<!-- Lex_lex_from_cancelL_conn_map -->
<g id="node9" class="node">
<title>Lex_lex_from_cancelL_conn_map</title>
<g id="a_node9"><a xlink:href="Lex.html#lex_from_cancelL_conn_map" xlink:title="lex_from_cancelL_conn_map">
<ellipse fill="#f070d1" stroke="black" cx="3220" cy="-570" rx="141.07" ry="18"/>
<text text-anchor="middle" x="3220" y="-566.3" font-family="Times,serif" font-size="14.00">lex_from_cancelL_conn_map</text>
</a>
</g>
</g>
<!-- Lex_lex_from_conn_map_lex&#45;&gt;Lex_lex_from_cancelL_conn_map -->
<g id="edge7" class="edge">
<title>Lex_lex_from_conn_map_lex&#45;&gt;Lex_lex_from_cancelL_conn_map</title>
<path fill="none" stroke="black" d="M3220,-938.96C3220,-878.34 3220,-672.84 3220,-598.29"/>
<polygon fill="black" stroke="black" points="3223.5,-598.28 3220,-588.28 3216.5,-598.28 3223.5,-598.28"/>
</g>
<!-- Lex_lex_from_modal_over_connected_isconst -->
<g id="node11" class="node">
<title>Lex_lex_from_modal_over_connected_isconst</title>
<g id="a_node11"><a xlink:href="Lex.html#lex_from_modal_over_connected_isconst" xlink:title="lex_from_modal_over_connected_isconst">
<ellipse fill="#f070d1" stroke="black" cx="3220" cy="-183" rx="196.87" ry="18"/>
<text text-anchor="middle" x="3220" y="-179.3" font-family="Times,serif" font-size="14.00">lex_from_modal_over_connected_isconst</text>
</a>
</g>
</g>
<!-- Lex_lex_from_cancelL_conn_map&#45;&gt;Lex_lex_from_modal_over_connected_isconst -->
<g id="edge8" class="edge">
<title>Lex_lex_from_cancelL_conn_map&#45;&gt;Lex_lex_from_modal_over_connected_isconst</title>
<path fill="none" stroke="black" d="M3220,-551.96C3220,-491.34 3220,-285.84 3220,-211.29"/>
<polygon fill="black" stroke="black" points="3223.5,-211.28 3220,-201.28 3216.5,-211.28 3223.5,-211.28"/>
</g>
<!-- Lex_istrunc_O_lex -->
<g id="node12" class="node">
<title>Lex_istrunc_O_lex</title>
<g id="a_node12"><a xlink:href="Lex.html#istrunc_O_lex" xlink:title="istrunc_O_lex">
<ellipse fill="#f070d1" stroke="black" cx="3794" cy="-1387" rx="73.39" ry="18"/>
<ellipse fill="none" stroke="black" cx="3794" cy="-1387" rx="77.39" ry="22"/>
<ellipse fill="none" stroke="black" cx="3794" cy="-1387" rx="81.39" ry="26"/>
<text text-anchor="middle" x="3794" y="-1383.3" font-family="Times,serif" font-size="14.00">istrunc_O_lex</text>
</a>
</g>
</g>
<!-- Lex_equiv_path_O -->
<g id="node22" class="node">
<title>Lex_equiv_path_O</title>
<g id="a_node22"><a xlink:href="Lex.html#equiv_path_O" xlink:title="equiv_path_O">
<ellipse fill="#f070d1" stroke="black" cx="4005" cy="-957" rx="73.39" ry="18"/>
<text text-anchor="middle" x="4005" y="-953.3" font-family="Times,serif" font-size="14.00">equiv_path_O</text>
</a>
</g>
</g>
<!-- Lex_istrunc_O_lex&#45;&gt;Lex_equiv_path_O -->
<g id="edge9" class="edge">
<title>Lex_istrunc_O_lex&#45;&gt;Lex_equiv_path_O</title>
<path fill="none" stroke="black" d="M3806.26,-1361.14C3843.37,-1285.86 3954.29,-1060.85 3992.16,-984.03"/>
<polygon fill="black" stroke="black" points="3995.33,-985.53 3996.61,-975.01 3989.05,-982.44 3995.33,-985.53"/>
</g>
<!-- Lex_inO_typeO_lex -->
<g id="node13" class="node">
<title>Lex_inO_typeO_lex</title>
<g id="a_node13"><a xlink:href="Lex.html#inO_typeO_lex" xlink:title="inO_typeO_lex">
<ellipse fill="#f070d1" stroke="black" cx="3071" cy="-1860" rx="77.2" ry="18"/>
<ellipse fill="none" stroke="black" cx="3071" cy="-1860" rx="81.19" ry="22"/>
<ellipse fill="none" stroke="black" cx="3071" cy="-1860" rx="85.19" ry="26"/>
<text text-anchor="middle" x="3071" y="-1856.3" font-family="Times,serif" font-size="14.00">inO_typeO_lex</text>
</a>
</g>
</g>
<!-- Lex_modal_over_connected_isconst_lex -->
<g id="node14" class="node">
<title>Lex_modal_over_connected_isconst_lex</title>
<g id="a_node14"><a xlink:href="Lex.html#modal_over_connected_isconst_lex" xlink:title="modal_over_connected_isconst_lex">
<ellipse fill="#f070d1" stroke="black" cx="2789" cy="-1860" rx="170.87" ry="18"/>
<ellipse fill="none" stroke="black" cx="2789" cy="-1860" rx="174.87" ry="22"/>
<ellipse fill="none" stroke="black" cx="2789" cy="-1860" rx="178.87" ry="26"/>
<text text-anchor="middle" x="2789" y="-1856.3" font-family="Times,serif" font-size="14.00">modal_over_connected_isconst_lex</text>
</a>
</g>
</g>
<!-- Lex_conn_map_O_inverts -->
<g id="node15" class="node">
<title>Lex_conn_map_O_inverts</title>
<g id="a_node15"><a xlink:href="Lex.html#conn_map_O_inverts" xlink:title="conn_map_O_inverts">
<ellipse fill="#f070d1" stroke="black" cx="2478" cy="-1860" rx="105.89" ry="18"/>
<ellipse fill="none" stroke="black" cx="2478" cy="-1860" rx="109.88" ry="22"/>
<ellipse fill="none" stroke="black" cx="2478" cy="-1860" rx="113.88" ry="26"/>
<text text-anchor="middle" x="2478" y="-1856.3" font-family="Times,serif" font-size="14.00">conn_map_O_inverts</text>
</a>
</g>
</g>
<!-- Lex_cancelL_conn_map -->
<g id="node16" class="node">
<title>Lex_cancelL_conn_map</title>
<g id="a_node16"><a xlink:href="Lex.html#cancelL_conn_map" xlink:title="cancelL_conn_map">
<ellipse fill="#f070d1" stroke="black" cx="2241" cy="-1860" rx="96.7" ry="18"/>
<ellipse fill="none" stroke="black" cx="2241" cy="-1860" rx="100.69" ry="22"/>
<ellipse fill="none" stroke="black" cx="2241" cy="-1860" rx="104.68" ry="26"/>
<text text-anchor="middle" x="2241" y="-1856.3" font-family="Times,serif" font-size="14.00">cancelL_conn_map</text>
</a>
</g>
</g>
<!-- Lex_diagonal_O_functor -->
<g id="node17" class="node">
<title>Lex_diagonal_O_functor</title>
<g id="a_node17"><a xlink:href="Lex.html#diagonal_O_functor" xlink:title="diagonal_O_functor">
<ellipse fill="#f070d1" stroke="black" cx="2010" cy="-1860" rx="100.18" ry="18"/>
<ellipse fill="none" stroke="black" cx="2010" cy="-1860" rx="104.18" ry="22"/>
<ellipse fill="none" stroke="black" cx="2010" cy="-1860" rx="108.18" ry="26"/>
<text text-anchor="middle" x="2010" y="-1856.3" font-family="Times,serif" font-size="14.00">diagonal_O_functor</text>
</a>
</g>
</g>
<!-- Lex_equiv_O_pullback -->
<g id="node19" class="node">
<title>Lex_equiv_O_pullback</title>
<g id="a_node19"><a xlink:href="Lex.html#equiv_O_pullback" xlink:title="equiv_O_pullback">
<ellipse fill="#f070d1" stroke="black" cx="2019" cy="-1387" rx="90.98" ry="18"/>
<text text-anchor="middle" x="2019" y="-1383.3" font-family="Times,serif" font-size="14.00">equiv_O_pullback</text>
</a>
</g>
</g>
<!-- Lex_diagonal_O_functor&#45;&gt;Lex_equiv_O_pullback -->
<g id="edge10" class="edge">
<title>Lex_diagonal_O_functor&#45;&gt;Lex_equiv_O_pullback</title>
<path fill="none" stroke="black" d="M2010.48,-1833.67C2012.04,-1752.48 2016.88,-1499.09 2018.48,-1415.24"/>
<polygon fill="black" stroke="black" points="2021.98,-1415.07 2018.68,-1405 2014.98,-1414.94 2021.98,-1415.07"/>
</g>
<!-- Lex_O_functor_pullback -->
<g id="node18" class="node">
<title>Lex_O_functor_pullback</title>
<g id="a_node18"><a xlink:href="Lex.html#O_functor_pullback" xlink:title="O_functor_pullback">
<ellipse fill="#f070d1" stroke="black" cx="1803" cy="-1387" rx="99.39" ry="18"/>
<ellipse fill="none" stroke="black" cx="1803" cy="-1387" rx="103.38" ry="22"/>
<ellipse fill="none" stroke="black" cx="1803" cy="-1387" rx="107.38" ry="26"/>
<text text-anchor="middle" x="1803" y="-1383.3" font-family="Times,serif" font-size="14.00">O_functor_pullback</text>
</a>
</g>
</g>
<!-- Lex_O_inverts_functor_pullback_to_O -->
<g id="node20" class="node">
<title>Lex_O_inverts_functor_pullback_to_O</title>
<g id="a_node20"><a xlink:href="Lex.html#O_inverts_functor_pullback_to_O" xlink:title="O_inverts_functor_pullback_to_O">
<ellipse fill="#f070d1" stroke="black" cx="1952" cy="-957" rx="161.67" ry="18"/>
<text text-anchor="middle" x="1952" y="-953.3" font-family="Times,serif" font-size="14.00">O_inverts_functor_pullback_to_O</text>
</a>
</g>
</g>
<!-- Lex_O_functor_pullback&#45;&gt;Lex_O_inverts_functor_pullback_to_O -->
<g id="edge11" class="edge">
<title>Lex_O_functor_pullback&#45;&gt;Lex_O_inverts_functor_pullback_to_O</title>
<path fill="none" stroke="black" d="M1811.76,-1360.82C1837.97,-1285.54 1915.6,-1062.57 1942.61,-984.98"/>
<polygon fill="black" stroke="black" points="1945.95,-986.03 1945.93,-975.43 1939.34,-983.72 1945.95,-986.03"/>
</g>
<!-- Lex_equiv_O_pullback&#45;&gt;Lex_O_inverts_functor_pullback_to_O -->
<g id="edge12" class="edge">
<title>Lex_equiv_O_pullback&#45;&gt;Lex_O_inverts_functor_pullback_to_O</title>
<path fill="none" stroke="black" d="M2016.33,-1368.96C2006.06,-1303.32 1968.99,-1066.55 1956.3,-985.46"/>
<polygon fill="black" stroke="black" points="1959.68,-984.43 1954.68,-975.09 1952.76,-985.51 1959.68,-984.43"/>
</g>
<!-- Lex_equiv_path_O_to_O&#45;&gt;Lex_equiv_path_O -->
<g id="edge13" class="edge">
<title>Lex_equiv_path_O_to_O&#45;&gt;Lex_equiv_path_O</title>
<path fill="none" stroke="black" d="M4208.56,-1368.96C4175.92,-1303.05 4057.81,-1064.61 4018.12,-984.48"/>
<polygon fill="black" stroke="black" points="4021.04,-982.5 4013.47,-975.09 4014.77,-985.6 4021.04,-982.5"/>
</g>
<!-- Lex_isequiv_path_O -->
<g id="node23" class="node">
<title>Lex_isequiv_path_O</title>
<g id="a_node23"><a xlink:href="Lex.html#isequiv_path_O" xlink:title="isequiv_path_O">
<ellipse fill="#f070d1" stroke="black" cx="1795" cy="-1860" rx="81.46" ry="18"/>
<ellipse fill="none" stroke="black" cx="1795" cy="-1860" rx="85.48" ry="22"/>
<ellipse fill="none" stroke="black" cx="1795" cy="-1860" rx="89.49" ry="26"/>
<text text-anchor="middle" x="1795" y="-1856.3" font-family="Times,serif" font-size="14.00">isequiv_path_O</text>
</a>
</g>
</g>
<!-- Lex_equiv_O_functor_hfiber -->
<g id="node24" class="node">
<title>Lex_equiv_O_functor_hfiber</title>
<g id="a_node24"><a xlink:href="Lex.html#equiv_O_functor_hfiber" xlink:title="equiv_O_functor_hfiber">
<ellipse fill="#f070d1" stroke="black" cx="1562" cy="-1860" rx="117.77" ry="18"/>
<ellipse fill="none" stroke="black" cx="1562" cy="-1860" rx="121.77" ry="22"/>
<ellipse fill="none" stroke="black" cx="1562" cy="-1860" rx="125.78" ry="26"/>
<text text-anchor="middle" x="1562" y="-1856.3" font-family="Times,serif" font-size="14.00">equiv_O_functor_hfiber</text>
</a>
</g>
</g>
<!-- Lex_isequiv_O_functor_hfiber -->
<g id="node25" class="node">
<title>Lex_isequiv_O_functor_hfiber</title>
<g id="a_node25"><a xlink:href="Lex.html#isequiv_O_functor_hfiber" xlink:title="isequiv_O_functor_hfiber">
<ellipse fill="#f070d1" stroke="black" cx="1552" cy="-1387" rx="125.38" ry="18"/>
<text text-anchor="middle" x="1552" y="-1383.3" font-family="Times,serif" font-size="14.00">isequiv_O_functor_hfiber</text>
</a>
</g>
</g>
<!-- Lex_equiv_O_functor_hfiber&#45;&gt;Lex_isequiv_O_functor_hfiber -->
<g id="edge14" class="edge">
<title>Lex_equiv_O_functor_hfiber&#45;&gt;Lex_isequiv_O_functor_hfiber</title>
<path fill="none" stroke="black" d="M1561.46,-1833.67C1559.74,-1752.48 1554.36,-1499.09 1552.58,-1415.24"/>
<polygon fill="black" stroke="black" points="1556.07,-1414.93 1552.36,-1405 1549.07,-1415.08 1556.07,-1414.93"/>
</g>
<!-- Lex_conn_map_functor_hfiber_to_O -->
<g id="node26" class="node">
<title>Lex_conn_map_functor_hfiber_to_O</title>
<g id="a_node26"><a xlink:href="Lex.html#conn_map_functor_hfiber_to_O" xlink:title="conn_map_functor_hfiber_to_O">
<ellipse fill="#f070d1" stroke="black" cx="1552" cy="-957" rx="152.17" ry="18"/>
<text text-anchor="middle" x="1552" y="-953.3" font-family="Times,serif" font-size="14.00">conn_map_functor_hfiber_to_O</text>
</a>
</g>
</g>
<!-- Lex_isequiv_O_functor_hfiber&#45;&gt;Lex_conn_map_functor_hfiber_to_O -->
<g id="edge15" class="edge">
<title>Lex_isequiv_O_functor_hfiber&#45;&gt;Lex_conn_map_functor_hfiber_to_O</title>
<path fill="none" stroke="black" d="M1552,-1368.96C1552,-1303.32 1552,-1066.55 1552,-985.46"/>
<polygon fill="black" stroke="black" points="1555.5,-985.09 1552,-975.09 1548.5,-985.09 1555.5,-985.09"/>
</g>
<!-- Lex_ispullback_connmap_mapino_commsq -->
<g id="node27" class="node">
<title>Lex_ispullback_connmap_mapino_commsq</title>
<g id="a_node27"><a xlink:href="Lex.html#ispullback_connmap_mapino_commsq" xlink:title="ispullback_connmap_mapino_commsq">
<ellipse fill="#f070d1" stroke="black" cx="1225" cy="-1860" rx="185.46" ry="18"/>
<ellipse fill="none" stroke="black" cx="1225" cy="-1860" rx="189.46" ry="22"/>
<ellipse fill="none" stroke="black" cx="1225" cy="-1860" rx="193.47" ry="26"/>
<text text-anchor="middle" x="1225" y="-1856.3" font-family="Times,serif" font-size="14.00">ispullback_connmap_mapino_commsq</text>
</a>
</g>
</g>
<!-- Lex_conn_map_functor_hfiber -->
<g id="node28" class="node">
<title>Lex_conn_map_functor_hfiber</title>
<g id="a_node28"><a xlink:href="Lex.html#conn_map_functor_hfiber" xlink:title="conn_map_functor_hfiber">
<ellipse fill="#f070d1" stroke="black" cx="879" cy="-1860" rx="126.96" ry="18"/>
<ellipse fill="none" stroke="black" cx="879" cy="-1860" rx="130.97" ry="22"/>
<ellipse fill="none" stroke="black" cx="879" cy="-1860" rx="134.98" ry="26"/>
<text text-anchor="middle" x="879" y="-1856.3" font-family="Times,serif" font-size="14.00">conn_map_functor_hfiber</text>
</a>
</g>
</g>
<!-- Lex_isequiv_mapino_isconnected -->
<g id="node29" class="node">
<title>Lex_isequiv_mapino_isconnected</title>
<g id="a_node29"><a xlink:href="Lex.html#isequiv_mapino_isconnected" xlink:title="isequiv_mapino_isconnected">
<ellipse fill="#f070d1" stroke="black" cx="577" cy="-1860" rx="141.87" ry="18"/>
<ellipse fill="none" stroke="black" cx="577" cy="-1860" rx="145.87" ry="22"/>
<ellipse fill="none" stroke="black" cx="577" cy="-1860" rx="149.88" ry="26"/>
<text text-anchor="middle" x="577" y="-1856.3" font-family="Times,serif" font-size="14.00">isequiv_mapino_isconnected</text>
</a>
</g>
</g>
<!-- Lex_conn_map_lex -->
<g id="node30" class="node">
<title>Lex_conn_map_lex</title>
<g id="a_node30"><a xlink:href="Lex.html#conn_map_lex" xlink:title="conn_map_lex">
<ellipse fill="#f070d1" stroke="black" cx="326" cy="-1860" rx="75.3" ry="18"/>
<ellipse fill="none" stroke="black" cx="326" cy="-1860" rx="79.29" ry="22"/>
<ellipse fill="none" stroke="black" cx="326" cy="-1860" rx="83.29" ry="26"/>
<text text-anchor="middle" x="326" y="-1856.3" font-family="Times,serif" font-size="14.00">conn_map_lex</text>
</a>
</g>
</g>
<!-- Lex_isconnected_paths -->
<g id="node31" class="node">
<title>Lex_isconnected_paths</title>
<g id="a_node31"><a xlink:href="Lex.html#isconnected_paths" xlink:title="isconnected_paths">
<ellipse fill="#f070d1" stroke="black" cx="120" cy="-1860" rx="96.37" ry="18"/>
<ellipse fill="none" stroke="black" cx="120" cy="-1860" rx="100.38" ry="22"/>
<ellipse fill="none" stroke="black" cx="120" cy="-1860" rx="104.38" ry="26"/>
<text text-anchor="middle" x="120" y="-1856.3" font-family="Times,serif" font-size="14.00">isconnected_paths</text>
</a>
</g>
</g>
</g>
</svg>
