<?xml version="1.0" encoding="UTF-8" standalone="no"?>
<!DOCTYPE svg PUBLIC "-//W3C//DTD SVG 1.1//EN"
 "http://www.w3.org/Graphics/SVG/1.1/DTD/svg11.dtd">
<!-- Generated by graphviz version 2.43.0 (0)
 -->
<!-- Title: HoTT_Limits_Pullback Pages: 1 -->
<svg width="3666pt" height="1837pt"
 viewBox="0.00 0.00 3666.00 1837.00" xmlns="http://www.w3.org/2000/svg" xmlns:xlink="http://www.w3.org/1999/xlink">
<g id="graph0" class="graph" transform="scale(1 1) rotate(0) translate(4 1833)">
<title>HoTT_Limits_Pullback</title>
<polygon fill="white" stroke="transparent" points="-4,4 -4,-1833 3662,-1833 3662,4 -4,4"/>
<g id="clust1" class="cluster">
<title>cluster_Pullback</title>
<polygon fill="#ffffc3" stroke="black" points="8,-33.03 8,-1795.97 3650,-1795.97 3650,-33.03 8,-33.03"/>
<text text-anchor="middle" x="46.5" y="-1780.77" font-family="Times,serif" font-size="14.00">Pullback</text>
</g>
<!-- Pullback_ispullback_pasting_outer -->
<g id="node1" class="node">
<title>Pullback_ispullback_pasting_outer</title>
<g id="a_node1"><a xlink:href="Pullback.html#ispullback_pasting_outer" xlink:title="ispullback_pasting_outer">
<ellipse fill="#f070d1" stroke="black" cx="1080" cy="-1561.03" rx="126.17" ry="18"/>
<ellipse fill="none" stroke="black" cx="1080" cy="-1561.03" rx="130.18" ry="22"/>
<ellipse fill="none" stroke="black" cx="1080" cy="-1561.03" rx="134.18" ry="26"/>
<text text-anchor="middle" x="1080" y="-1557.33" font-family="Times,serif" font-size="14.00">ispullback_pasting_outer</text>
</a>
</g>
</g>
<!-- Pullback_isequiv_functor_hfiber_ispullback -->
<g id="node18" class="node">
<title>Pullback_isequiv_functor_hfiber_ispullback</title>
<g id="a_node18"><a xlink:href="Pullback.html#isequiv_functor_hfiber_ispullback" xlink:title="isequiv_functor_hfiber_ispullback">
<ellipse fill="#f070d1" stroke="black" cx="664" cy="-1197.03" rx="165.17" ry="18"/>
<text text-anchor="middle" x="664" y="-1193.33" font-family="Times,serif" font-size="14.00">isequiv_functor_hfiber_ispullback</text>
</a>
</g>
</g>
<!-- Pullback_ispullback_pasting_outer&#45;&gt;Pullback_isequiv_functor_hfiber_ispullback -->
<g id="edge1" class="edge">
<title>Pullback_ispullback_pasting_outer&#45;&gt;Pullback_isequiv_functor_hfiber_ispullback</title>
<path fill="none" stroke="black" d="M1051.73,-1535.43C975.51,-1469.1 766.43,-1287.16 691.32,-1221.8"/>
<polygon fill="black" stroke="black" points="693.5,-1219.06 683.65,-1215.13 688.9,-1224.34 693.5,-1219.06"/>
</g>
<!-- Pullback_ispullback_isequiv_functor_hfiber -->
<g id="node19" class="node">
<title>Pullback_ispullback_isequiv_functor_hfiber</title>
<g id="a_node19"><a xlink:href="Pullback.html#ispullback_isequiv_functor_hfiber" xlink:title="ispullback_isequiv_functor_hfiber">
<ellipse fill="#f070d1" stroke="black" cx="1220" cy="-1197.03" rx="165.17" ry="18"/>
<text text-anchor="middle" x="1220" y="-1193.33" font-family="Times,serif" font-size="14.00">ispullback_isequiv_functor_hfiber</text>
</a>
</g>
</g>
<!-- Pullback_ispullback_pasting_outer&#45;&gt;Pullback_ispullback_isequiv_functor_hfiber -->
<g id="edge2" class="edge">
<title>Pullback_ispullback_pasting_outer&#45;&gt;Pullback_ispullback_isequiv_functor_hfiber</title>
<path fill="none" stroke="black" d="M1089.73,-1534.86C1115.21,-1468.98 1183.7,-1291.89 1209.75,-1224.53"/>
<polygon fill="black" stroke="black" points="1213.07,-1225.65 1213.41,-1215.06 1206.54,-1223.12 1213.07,-1225.65"/>
</g>
<!-- Pullback_ispullback_pasting_left -->
<g id="node2" class="node">
<title>Pullback_ispullback_pasting_left</title>
<g id="a_node2"><a xlink:href="Pullback.html#ispullback_pasting_left" xlink:title="ispullback_pasting_left">
<ellipse fill="#f070d1" stroke="black" cx="734" cy="-1561.03" rx="116.19" ry="18"/>
<ellipse fill="none" stroke="black" cx="734" cy="-1561.03" rx="120.18" ry="22"/>
<ellipse fill="none" stroke="black" cx="734" cy="-1561.03" rx="124.18" ry="26"/>
<text text-anchor="middle" x="734" y="-1557.33" font-family="Times,serif" font-size="14.00">ispullback_pasting_left</text>
</a>
</g>
</g>
<!-- Pullback_ispullback_pasting_left&#45;&gt;Pullback_isequiv_functor_hfiber_ispullback -->
<g id="edge3" class="edge">
<title>Pullback_ispullback_pasting_left&#45;&gt;Pullback_isequiv_functor_hfiber_ispullback</title>
<path fill="none" stroke="black" d="M729.13,-1534.86C716.42,-1469.11 682.29,-1292.62 669.21,-1224.95"/>
<polygon fill="black" stroke="black" points="672.63,-1224.21 667.29,-1215.06 665.75,-1225.54 672.63,-1224.21"/>
</g>
<!-- Pullback_ispullback_pasting_left&#45;&gt;Pullback_ispullback_isequiv_functor_hfiber -->
<g id="edge4" class="edge">
<title>Pullback_ispullback_pasting_left&#45;&gt;Pullback_ispullback_isequiv_functor_hfiber</title>
<path fill="none" stroke="black" d="M766.64,-1535.72C855.72,-1469.36 1102.14,-1285.82 1189.11,-1221.03"/>
<polygon fill="black" stroke="black" points="1191.33,-1223.75 1197.26,-1214.97 1187.15,-1218.13 1191.33,-1223.75"/>
</g>
<!-- Pullback_pullback3x3 -->
<g id="node3" class="node">
<title>Pullback_pullback3x3</title>
<g id="a_node3"><a xlink:href="Pullback.html#pullback3x3" xlink:title="pullback3x3">
<ellipse fill="#f070d1" stroke="black" cx="2654" cy="-834.03" rx="66.89" ry="18"/>
<ellipse fill="none" stroke="black" cx="2654" cy="-834.03" rx="70.89" ry="22"/>
<ellipse fill="none" stroke="black" cx="2654" cy="-834.03" rx="74.89" ry="26"/>
<text text-anchor="middle" x="2654" y="-830.33" font-family="Times,serif" font-size="14.00">pullback3x3</text>
</a>
</g>
</g>
<!-- Pullback_equiv_path_pullback -->
<g id="node7" class="node">
<title>Pullback_equiv_path_pullback</title>
<g id="a_node7"><a xlink:href="Pullback.html#equiv_path_pullback" xlink:title="equiv_path_pullback">
<ellipse fill="#f070d1" stroke="black" cx="2428" cy="-471.03" rx="104.78" ry="18"/>
<text text-anchor="middle" x="2428" y="-467.33" font-family="Times,serif" font-size="14.00">equiv_path_pullback</text>
</a>
</g>
</g>
<!-- Pullback_pullback3x3&#45;&gt;Pullback_equiv_path_pullback -->
<g id="edge5" class="edge">
<title>Pullback_pullback3x3&#45;&gt;Pullback_equiv_path_pullback</title>
<path fill="none" stroke="black" d="M2638.64,-808.5C2597.65,-743.02 2485.94,-564.57 2444.1,-497.75"/>
<polygon fill="black" stroke="black" points="2446.95,-495.7 2438.68,-489.08 2441.02,-499.42 2446.95,-495.7"/>
</g>
<!-- Pullback_functor_pullback -->
<g id="node12" class="node">
<title>Pullback_functor_pullback</title>
<g id="a_node12"><a xlink:href="Pullback.html#functor_pullback" xlink:title="functor_pullback">
<ellipse fill="#f070d1" stroke="black" cx="2638" cy="-471.03" rx="87.99" ry="18"/>
<text text-anchor="middle" x="2638" y="-467.33" font-family="Times,serif" font-size="14.00">functor_pullback</text>
</a>
</g>
</g>
<!-- Pullback_pullback3x3&#45;&gt;Pullback_functor_pullback -->
<g id="edge6" class="edge">
<title>Pullback_pullback3x3&#45;&gt;Pullback_functor_pullback</title>
<path fill="none" stroke="black" d="M2652.89,-807.93C2649.99,-742.65 2642.25,-567.9 2639.23,-499.77"/>
<polygon fill="black" stroke="black" points="2642.71,-499.25 2638.77,-489.42 2635.72,-499.56 2642.71,-499.25"/>
</g>
<!-- Pullback_equiv_path_pullback_rec_hset -->
<g id="node4" class="node">
<title>Pullback_equiv_path_pullback_rec_hset</title>
<g id="a_node4"><a xlink:href="Pullback.html#equiv_path_pullback_rec_hset" xlink:title="equiv_path_pullback_rec_hset">
<ellipse fill="#f070d1" stroke="black" cx="2284" cy="-1197.03" rx="148.36" ry="18"/>
<ellipse fill="none" stroke="black" cx="2284" cy="-1197.03" rx="152.37" ry="22"/>
<ellipse fill="none" stroke="black" cx="2284" cy="-1197.03" rx="156.37" ry="26"/>
<text text-anchor="middle" x="2284" y="-1193.33" font-family="Times,serif" font-size="14.00">equiv_path_pullback_rec_hset</text>
</a>
</g>
</g>
<!-- Pullback_equiv_path_pullback_hset -->
<g id="node5" class="node">
<title>Pullback_equiv_path_pullback_hset</title>
<g id="a_node5"><a xlink:href="Pullback.html#equiv_path_pullback_hset" xlink:title="equiv_path_pullback_hset">
<ellipse fill="#f070d1" stroke="black" cx="2432" cy="-834.03" rx="129.18" ry="18"/>
<text text-anchor="middle" x="2432" y="-830.33" font-family="Times,serif" font-size="14.00">equiv_path_pullback_hset</text>
</a>
</g>
</g>
<!-- Pullback_equiv_path_pullback_rec_hset&#45;&gt;Pullback_equiv_path_pullback_hset -->
<g id="edge7" class="edge">
<title>Pullback_equiv_path_pullback_rec_hset&#45;&gt;Pullback_equiv_path_pullback_hset</title>
<path fill="none" stroke="black" d="M2294.29,-1170.93C2321.23,-1105.23 2393.62,-928.63 2421.16,-861.46"/>
<polygon fill="black" stroke="black" points="2424.48,-862.59 2425.04,-852.01 2418.01,-859.93 2424.48,-862.59"/>
</g>
<!-- Pullback_pullback_pr2 -->
<g id="node39" class="node">
<title>Pullback_pullback_pr2</title>
<g id="a_node39"><a xlink:href="Pullback.html#pullback_pr2" xlink:title="pullback_pr2">
<ellipse fill="#f070d1" stroke="black" cx="2077" cy="-471.03" rx="70.39" ry="18"/>
<text text-anchor="middle" x="2077" y="-467.33" font-family="Times,serif" font-size="14.00">pullback_pr2</text>
</a>
</g>
</g>
<!-- Pullback_equiv_path_pullback_rec_hset&#45;&gt;Pullback_pullback_pr2 -->
<g id="edge8" class="edge">
<title>Pullback_equiv_path_pullback_rec_hset&#45;&gt;Pullback_pullback_pr2</title>
<path fill="none" stroke="black" d="M2256.2,-1171.21C2200.92,-1119.76 2078.69,-994.97 2034,-860.03 1990.82,-729.65 2042.95,-562.54 2066.55,-498.56"/>
<polygon fill="black" stroke="black" points="2069.83,-499.79 2070.08,-489.2 2063.28,-497.33 2069.83,-499.79"/>
</g>
<!-- Pullback_pullback_pr1 -->
<g id="node40" class="node">
<title>Pullback_pullback_pr1</title>
<g id="a_node40"><a xlink:href="Pullback.html#pullback_pr1" xlink:title="pullback_pr1">
<ellipse fill="#f070d1" stroke="black" cx="2235" cy="-471.03" rx="70.39" ry="18"/>
<text text-anchor="middle" x="2235" y="-467.33" font-family="Times,serif" font-size="14.00">pullback_pr1</text>
</a>
</g>
</g>
<!-- Pullback_equiv_path_pullback_rec_hset&#45;&gt;Pullback_pullback_pr1 -->
<g id="edge9" class="edge">
<title>Pullback_equiv_path_pullback_rec_hset&#45;&gt;Pullback_pullback_pr1</title>
<path fill="none" stroke="black" d="M2284.13,-1171.03C2284.29,-1109.31 2283.68,-944.81 2274,-808.03 2265.84,-692.74 2247.18,-556.12 2238.98,-499.12"/>
<polygon fill="black" stroke="black" points="2242.43,-498.51 2237.53,-489.11 2235.5,-499.51 2242.43,-498.51"/>
</g>
<!-- Pullback_equiv_path_pullback_hset&#45;&gt;Pullback_equiv_path_pullback -->
<g id="edge10" class="edge">
<title>Pullback_equiv_path_pullback_hset&#45;&gt;Pullback_equiv_path_pullback</title>
<path fill="none" stroke="black" d="M2431.81,-815.62C2431.16,-757.6 2429.09,-570.51 2428.31,-499.61"/>
<polygon fill="black" stroke="black" points="2431.8,-499.23 2428.19,-489.27 2424.8,-499.3 2431.8,-499.23"/>
</g>
<!-- Pullback_pullback_homotopic -->
<g id="node6" class="node">
<title>Pullback_pullback_homotopic</title>
<g id="a_node6"><a xlink:href="Pullback.html#pullback_homotopic" xlink:title="pullback_homotopic">
<ellipse fill="#f070d1" stroke="black" cx="2154" cy="-834.03" rx="102.87" ry="18"/>
<ellipse fill="none" stroke="black" cx="2154" cy="-834.03" rx="106.88" ry="22"/>
<ellipse fill="none" stroke="black" cx="2154" cy="-834.03" rx="110.88" ry="26"/>
<text text-anchor="middle" x="2154" y="-830.33" font-family="Times,serif" font-size="14.00">pullback_homotopic</text>
</a>
</g>
</g>
<!-- Pullback_pullback_homotopic&#45;&gt;Pullback_equiv_path_pullback -->
<g id="edge11" class="edge">
<title>Pullback_pullback_homotopic&#45;&gt;Pullback_equiv_path_pullback</title>
<path fill="none" stroke="black" d="M2172.83,-808.22C2222.82,-742.36 2358.46,-563.65 2408.83,-497.29"/>
<polygon fill="black" stroke="black" points="2411.83,-499.13 2415.08,-489.05 2406.25,-494.9 2411.83,-499.13"/>
</g>
<!-- Pullback_pullback_homotopic&#45;&gt;Pullback_pullback_pr2 -->
<g id="edge12" class="edge">
<title>Pullback_pullback_homotopic&#45;&gt;Pullback_pullback_pr2</title>
<path fill="none" stroke="black" d="M2148.65,-807.93C2134.66,-742.36 2097.12,-566.36 2082.73,-498.88"/>
<polygon fill="black" stroke="black" points="2086.13,-498.06 2080.62,-489.01 2079.28,-499.52 2086.13,-498.06"/>
</g>
<!-- Pullback_pullback_homotopic&#45;&gt;Pullback_pullback_pr1 -->
<g id="edge13" class="edge">
<title>Pullback_pullback_homotopic&#45;&gt;Pullback_pullback_pr1</title>
<path fill="none" stroke="black" d="M2159.63,-807.93C2174.34,-742.36 2213.83,-566.36 2228.98,-498.88"/>
<polygon fill="black" stroke="black" points="2232.42,-499.53 2231.19,-489.01 2225.59,-498 2232.42,-499.53"/>
</g>
<!-- Pullback_Pullback -->
<g id="node41" class="node">
<title>Pullback_Pullback</title>
<g id="a_node41"><a xlink:href="Pullback.html#Pullback" xlink:title="Pullback">
<ellipse fill="#f070d1" stroke="black" cx="1825" cy="-140.03" rx="50.09" ry="18"/>
<text text-anchor="middle" x="1825" y="-136.33" font-family="Times,serif" font-size="14.00">Pullback</text>
</a>
</g>
</g>
<!-- Pullback_equiv_path_pullback&#45;&gt;Pullback_Pullback -->
<g id="edge14" class="edge">
<title>Pullback_equiv_path_pullback&#45;&gt;Pullback_Pullback</title>
<path fill="none" stroke="black" d="M2398.1,-453.71C2297.07,-398.59 1968.72,-219.45 1860.19,-160.23"/>
<polygon fill="black" stroke="black" points="1861.72,-157.08 1851.27,-155.36 1858.37,-163.22 1861.72,-157.08"/>
</g>
<!-- Pullback_equiv_sigma_pullback -->
<g id="node8" class="node">
<title>Pullback_equiv_sigma_pullback</title>
<g id="a_node8"><a xlink:href="Pullback.html#equiv_sigma_pullback" xlink:title="equiv_sigma_pullback">
<ellipse fill="#f070d1" stroke="black" cx="3056" cy="-471.03" rx="111.59" ry="18"/>
<ellipse fill="none" stroke="black" cx="3056" cy="-471.03" rx="115.59" ry="22"/>
<ellipse fill="none" stroke="black" cx="3056" cy="-471.03" rx="119.58" ry="26"/>
<text text-anchor="middle" x="3056" y="-467.33" font-family="Times,serif" font-size="14.00">equiv_sigma_pullback</text>
</a>
</g>
</g>
<!-- Pullback_equiv_sigma_pullback&#45;&gt;Pullback_Pullback -->
<g id="edge15" class="edge">
<title>Pullback_equiv_sigma_pullback&#45;&gt;Pullback_Pullback</title>
<path fill="none" stroke="black" d="M2982.68,-450.43C2754.87,-389.55 2063.26,-204.71 1873.57,-154.01"/>
<polygon fill="black" stroke="black" points="1874.44,-150.62 1863.87,-151.42 1872.63,-157.38 1874.44,-150.62"/>
</g>
<!-- Pullback_equiv_pullback -->
<g id="node9" class="node">
<title>Pullback_equiv_pullback</title>
<g id="a_node9"><a xlink:href="Pullback.html#equiv_pullback" xlink:title="equiv_pullback">
<ellipse fill="#f070d1" stroke="black" cx="2831" cy="-471.03" rx="79.11" ry="18"/>
<ellipse fill="none" stroke="black" cx="2831" cy="-471.03" rx="83.1" ry="22"/>
<ellipse fill="none" stroke="black" cx="2831" cy="-471.03" rx="87.09" ry="26"/>
<text text-anchor="middle" x="2831" y="-467.33" font-family="Times,serif" font-size="14.00">equiv_pullback</text>
</a>
</g>
</g>
<!-- Pullback_equiv_pullback&#45;&gt;Pullback_Pullback -->
<g id="edge16" class="edge">
<title>Pullback_equiv_pullback&#45;&gt;Pullback_Pullback</title>
<path fill="none" stroke="black" d="M2773.67,-451.28C2592.4,-392 2034.02,-209.39 1870.46,-155.9"/>
<polygon fill="black" stroke="black" points="1871.31,-152.49 1860.72,-152.71 1869.13,-159.14 1871.31,-152.49"/>
</g>
<!-- Pullback_hfiber_functor_pullback -->
<g id="node10" class="node">
<title>Pullback_hfiber_functor_pullback</title>
<g id="a_node10"><a xlink:href="Pullback.html#hfiber_functor_pullback" xlink:title="hfiber_functor_pullback">
<ellipse fill="#f070d1" stroke="black" cx="3094" cy="-834.03" rx="119.67" ry="18"/>
<ellipse fill="none" stroke="black" cx="3094" cy="-834.03" rx="123.68" ry="22"/>
<ellipse fill="none" stroke="black" cx="3094" cy="-834.03" rx="127.68" ry="26"/>
<text text-anchor="middle" x="3094" y="-830.33" font-family="Times,serif" font-size="14.00">hfiber_functor_pullback</text>
</a>
</g>
</g>
<!-- Pullback_hfiber_functor_pullback_subproof -->
<g id="node11" class="node">
<title>Pullback_hfiber_functor_pullback_subproof</title>
<g id="a_node11"><a xlink:href="Pullback.html#hfiber_functor_pullback_subproof" xlink:title="hfiber_functor_pullback_subproof">
<ellipse fill="#f070d1" stroke="black" cx="3359" cy="-471.03" rx="165.17" ry="18"/>
<text text-anchor="middle" x="3359" y="-467.33" font-family="Times,serif" font-size="14.00">hfiber_functor_pullback_subproof</text>
</a>
</g>
</g>
<!-- Pullback_hfiber_functor_pullback&#45;&gt;Pullback_hfiber_functor_pullback_subproof -->
<g id="edge17" class="edge">
<title>Pullback_hfiber_functor_pullback&#45;&gt;Pullback_hfiber_functor_pullback_subproof</title>
<path fill="none" stroke="black" d="M3112.21,-808.22C3160.56,-742.36 3291.74,-563.65 3340.46,-497.29"/>
<polygon fill="black" stroke="black" points="3343.41,-499.18 3346.51,-489.05 3337.77,-495.04 3343.41,-499.18"/>
</g>
<!-- Pullback_hfiber_functor_pullback&#45;&gt;Pullback_functor_pullback -->
<g id="edge18" class="edge">
<title>Pullback_hfiber_functor_pullback&#45;&gt;Pullback_functor_pullback</title>
<path fill="none" stroke="black" d="M3063.37,-808.78C2979.85,-742.66 2748.92,-559.84 2667.16,-495.11"/>
<polygon fill="black" stroke="black" points="2668.84,-491.98 2658.83,-488.52 2664.49,-497.47 2668.84,-491.98"/>
</g>
<!-- Pullback_functor_pullback&#45;&gt;Pullback_Pullback -->
<g id="edge19" class="edge">
<title>Pullback_functor_pullback&#45;&gt;Pullback_Pullback</title>
<path fill="none" stroke="black" d="M2600.15,-454.71C2465.15,-400.08 2007.84,-215.02 1866.78,-157.94"/>
<polygon fill="black" stroke="black" points="1867.76,-154.56 1857.18,-154.05 1865.14,-161.05 1867.76,-154.56"/>
</g>
<!-- Pullback_hfiber_pullback_along_pointed -->
<g id="node13" class="node">
<title>Pullback_hfiber_pullback_along_pointed</title>
<g id="a_node13"><a xlink:href="Pullback.html#hfiber_pullback_along_pointed" xlink:title="hfiber_pullback_along_pointed">
<ellipse fill="#f070d1" stroke="black" cx="1812" cy="-1197.03" rx="150.58" ry="18"/>
<ellipse fill="none" stroke="black" cx="1812" cy="-1197.03" rx="154.58" ry="22"/>
<ellipse fill="none" stroke="black" cx="1812" cy="-1197.03" rx="158.57" ry="26"/>
<text text-anchor="middle" x="1812" y="-1193.33" font-family="Times,serif" font-size="14.00">hfiber_pullback_along_pointed</text>
</a>
</g>
</g>
<!-- Pullback_hfiber_pullback_along_ -->
<g id="node14" class="node">
<title>Pullback_hfiber_pullback_along_</title>
<g id="a_node14"><a xlink:href="Pullback.html#hfiber_pullback_along'" xlink:title="hfiber_pullback_along&#39;">
<ellipse fill="#f070d1" stroke="black" cx="1687" cy="-834.03" rx="113.98" ry="18"/>
<text text-anchor="middle" x="1687" y="-830.33" font-family="Times,serif" font-size="14.00">hfiber_pullback_along&#39;</text>
</a>
</g>
</g>
<!-- Pullback_hfiber_pullback_along_pointed&#45;&gt;Pullback_hfiber_pullback_along_ -->
<g id="edge20" class="edge">
<title>Pullback_hfiber_pullback_along_pointed&#45;&gt;Pullback_hfiber_pullback_along_</title>
<path fill="none" stroke="black" d="M1803.31,-1170.93C1780.56,-1105.23 1719.41,-928.63 1696.15,-861.46"/>
<polygon fill="black" stroke="black" points="1699.46,-860.31 1692.88,-852.01 1692.84,-862.6 1699.46,-860.31"/>
</g>
<!-- Pullback_pullback_along_ -->
<g id="node15" class="node">
<title>Pullback_pullback_along_</title>
<g id="a_node15"><a xlink:href="Pullback.html#pullback_along'" xlink:title="pullback_along&#39;">
<ellipse fill="#f070d1" stroke="black" cx="1562" cy="-471.03" rx="81.79" ry="18"/>
<text text-anchor="middle" x="1562" y="-467.33" font-family="Times,serif" font-size="14.00">pullback_along&#39;</text>
</a>
</g>
</g>
<!-- Pullback_hfiber_pullback_along_&#45;&gt;Pullback_pullback_along_ -->
<g id="edge21" class="edge">
<title>Pullback_hfiber_pullback_along_&#45;&gt;Pullback_pullback_along_</title>
<path fill="none" stroke="black" d="M1680.97,-815.62C1660.8,-757.36 1595.56,-568.96 1571.25,-498.74"/>
<polygon fill="black" stroke="black" points="1574.55,-497.57 1567.97,-489.27 1567.93,-499.86 1574.55,-497.57"/>
</g>
<!-- Pullback_pullback_along_&#45;&gt;Pullback_Pullback -->
<g id="edge22" class="edge">
<title>Pullback_pullback_along_&#45;&gt;Pullback_Pullback</title>
<path fill="none" stroke="black" d="M1575.4,-453.26C1618.58,-399.25 1754.18,-229.62 1805.27,-165.71"/>
<polygon fill="black" stroke="black" points="1808.11,-167.76 1811.62,-157.76 1802.65,-163.39 1808.11,-167.76"/>
</g>
<!-- Pullback_hfiber_pullback_along -->
<g id="node16" class="node">
<title>Pullback_hfiber_pullback_along</title>
<g id="a_node16"><a xlink:href="Pullback.html#hfiber_pullback_along" xlink:title="hfiber_pullback_along">
<ellipse fill="#f070d1" stroke="black" cx="1436" cy="-834.03" rx="111.27" ry="18"/>
<ellipse fill="none" stroke="black" cx="1436" cy="-834.03" rx="115.28" ry="22"/>
<ellipse fill="none" stroke="black" cx="1436" cy="-834.03" rx="119.28" ry="26"/>
<text text-anchor="middle" x="1436" y="-830.33" font-family="Times,serif" font-size="14.00">hfiber_pullback_along</text>
</a>
</g>
</g>
<!-- Pullback_pullback_along -->
<g id="node17" class="node">
<title>Pullback_pullback_along</title>
<g id="a_node17"><a xlink:href="Pullback.html#pullback_along" xlink:title="pullback_along">
<ellipse fill="#f070d1" stroke="black" cx="1383" cy="-471.03" rx="79.09" ry="18"/>
<text text-anchor="middle" x="1383" y="-467.33" font-family="Times,serif" font-size="14.00">pullback_along</text>
</a>
</g>
</g>
<!-- Pullback_hfiber_pullback_along&#45;&gt;Pullback_pullback_along -->
<g id="edge23" class="edge">
<title>Pullback_hfiber_pullback_along&#45;&gt;Pullback_pullback_along</title>
<path fill="none" stroke="black" d="M1432.32,-807.93C1422.71,-742.52 1396.97,-567.17 1387.01,-499.35"/>
<polygon fill="black" stroke="black" points="1390.47,-498.8 1385.55,-489.42 1383.54,-499.82 1390.47,-498.8"/>
</g>
<!-- Pullback_pullback_along&#45;&gt;Pullback_Pullback -->
<g id="edge24" class="edge">
<title>Pullback_pullback_along&#45;&gt;Pullback_Pullback</title>
<path fill="none" stroke="black" d="M1404.92,-453.71C1478.02,-399.3 1713.49,-224.03 1796.06,-162.57"/>
<polygon fill="black" stroke="black" points="1798.31,-165.26 1804.24,-156.48 1794.13,-159.64 1798.31,-165.26"/>
</g>
<!-- Pullback_IsPullback -->
<g id="node25" class="node">
<title>Pullback_IsPullback</title>
<g id="a_node25"><a xlink:href="Pullback.html#IsPullback" xlink:title="IsPullback">
<ellipse fill="#f070d1" stroke="black" cx="695" cy="-834.03" rx="58.49" ry="18"/>
<text text-anchor="middle" x="695" y="-830.33" font-family="Times,serif" font-size="14.00">IsPullback</text>
</a>
</g>
</g>
<!-- Pullback_isequiv_functor_hfiber_ispullback&#45;&gt;Pullback_IsPullback -->
<g id="edge25" class="edge">
<title>Pullback_isequiv_functor_hfiber_ispullback&#45;&gt;Pullback_IsPullback</title>
<path fill="none" stroke="black" d="M665.5,-1178.62C670.48,-1120.6 686.54,-933.51 692.63,-862.61"/>
<polygon fill="black" stroke="black" points="696.15,-862.53 693.52,-852.27 689.18,-861.93 696.15,-862.53"/>
</g>
<!-- Pullback_hfiber_pullback_corec -->
<g id="node20" class="node">
<title>Pullback_hfiber_pullback_corec</title>
<g id="a_node20"><a xlink:href="Pullback.html#hfiber_pullback_corec" xlink:title="hfiber_pullback_corec">
<ellipse fill="#f070d1" stroke="black" cx="913" cy="-834.03" rx="110.48" ry="18"/>
<text text-anchor="middle" x="913" y="-830.33" font-family="Times,serif" font-size="14.00">hfiber_pullback_corec</text>
</a>
</g>
</g>
<!-- Pullback_ispullback_isequiv_functor_hfiber&#45;&gt;Pullback_hfiber_pullback_corec -->
<g id="edge26" class="edge">
<title>Pullback_ispullback_isequiv_functor_hfiber&#45;&gt;Pullback_hfiber_pullback_corec</title>
<path fill="none" stroke="black" d="M1205.19,-1178.62C1155.24,-1119.88 992.8,-928.87 934.27,-860.04"/>
<polygon fill="black" stroke="black" points="936.8,-857.62 927.66,-852.27 931.47,-862.15 936.8,-857.62"/>
</g>
<!-- Pullback_ispullback_isequiv_functor_hfiber&#45;&gt;Pullback_IsPullback -->
<g id="edge27" class="edge">
<title>Pullback_ispullback_isequiv_functor_hfiber&#45;&gt;Pullback_IsPullback</title>
<path fill="none" stroke="black" d="M1195.38,-1179.1C1109.28,-1119.89 821.68,-922.13 726.15,-856.45"/>
<polygon fill="black" stroke="black" points="728,-853.47 717.77,-850.69 724.03,-859.24 728,-853.47"/>
</g>
<!-- Pullback_pullback_corec -->
<g id="node37" class="node">
<title>Pullback_pullback_corec</title>
<g id="a_node37"><a xlink:href="Pullback.html#pullback_corec" xlink:title="pullback_corec">
<ellipse fill="#f070d1" stroke="black" cx="917" cy="-471.03" rx="79.09" ry="18"/>
<text text-anchor="middle" x="917" y="-467.33" font-family="Times,serif" font-size="14.00">pullback_corec</text>
</a>
</g>
</g>
<!-- Pullback_hfiber_pullback_corec&#45;&gt;Pullback_pullback_corec -->
<g id="edge28" class="edge">
<title>Pullback_hfiber_pullback_corec&#45;&gt;Pullback_pullback_corec</title>
<path fill="none" stroke="black" d="M913.19,-815.62C913.84,-757.6 915.91,-570.51 916.69,-499.61"/>
<polygon fill="black" stroke="black" points="920.2,-499.3 916.81,-489.27 913.2,-499.23 920.2,-499.3"/>
</g>
<!-- Pullback_equiv_sigprod_pullback -->
<g id="node21" class="node">
<title>Pullback_equiv_sigprod_pullback</title>
<g id="a_node21"><a xlink:href="Pullback.html#equiv_sigprod_pullback" xlink:title="equiv_sigprod_pullback">
<ellipse fill="#f070d1" stroke="black" cx="384" cy="-1561.03" rx="118.88" ry="18"/>
<ellipse fill="none" stroke="black" cx="384" cy="-1561.03" rx="122.88" ry="22"/>
<ellipse fill="none" stroke="black" cx="384" cy="-1561.03" rx="126.88" ry="26"/>
<text text-anchor="middle" x="384" y="-1557.33" font-family="Times,serif" font-size="14.00">equiv_sigprod_pullback</text>
</a>
</g>
</g>
<!-- Pullback_ispullback_sigprod -->
<g id="node22" class="node">
<title>Pullback_ispullback_sigprod</title>
<g id="a_node22"><a xlink:href="Pullback.html#ispullback_sigprod" xlink:title="ispullback_sigprod">
<ellipse fill="#f070d1" stroke="black" cx="384" cy="-1197.03" rx="96.68" ry="18"/>
<text text-anchor="middle" x="384" y="-1193.33" font-family="Times,serif" font-size="14.00">ispullback_sigprod</text>
</a>
</g>
</g>
<!-- Pullback_equiv_sigprod_pullback&#45;&gt;Pullback_ispullback_sigprod -->
<g id="edge29" class="edge">
<title>Pullback_equiv_sigprod_pullback&#45;&gt;Pullback_ispullback_sigprod</title>
<path fill="none" stroke="black" d="M384,-1534.86C384,-1469.25 384,-1293.35 384,-1225.37"/>
<polygon fill="black" stroke="black" points="387.5,-1225.06 384,-1215.06 380.5,-1225.06 387.5,-1225.06"/>
</g>
<!-- Pullback_ispullback_sigprod&#45;&gt;Pullback_IsPullback -->
<g id="edge30" class="edge">
<title>Pullback_ispullback_sigprod&#45;&gt;Pullback_IsPullback</title>
<path fill="none" stroke="black" d="M398.58,-1179.1C448.9,-1120.7 615.35,-927.48 674.18,-859.2"/>
<polygon fill="black" stroke="black" points="676.93,-861.37 680.81,-851.5 671.63,-856.8 676.93,-861.37"/>
</g>
<!-- Pullback_ispullback_symm -->
<g id="node23" class="node">
<title>Pullback_ispullback_symm</title>
<g id="a_node23"><a xlink:href="Pullback.html#ispullback_symm" xlink:title="ispullback_symm">
<ellipse fill="#f070d1" stroke="black" cx="171" cy="-1197.03" rx="89.87" ry="18"/>
<ellipse fill="none" stroke="black" cx="171" cy="-1197.03" rx="93.88" ry="22"/>
<ellipse fill="none" stroke="black" cx="171" cy="-1197.03" rx="97.88" ry="26"/>
<text text-anchor="middle" x="171" y="-1193.33" font-family="Times,serif" font-size="14.00">ispullback_symm</text>
</a>
</g>
</g>
<!-- Pullback_ispullback_symm&#45;&gt;Pullback_IsPullback -->
<g id="edge31" class="edge">
<title>Pullback_ispullback_symm&#45;&gt;Pullback_IsPullback</title>
<path fill="none" stroke="black" d="M204.98,-1172.62C300.77,-1106.63 572,-919.77 664.02,-856.37"/>
<polygon fill="black" stroke="black" points="666.1,-859.19 672.35,-850.63 662.13,-853.42 666.1,-859.19"/>
</g>
<!-- Pullback_equiv_pullback_symm -->
<g id="node30" class="node">
<title>Pullback_equiv_pullback_symm</title>
<g id="a_node30"><a xlink:href="Pullback.html#equiv_pullback_symm" xlink:title="equiv_pullback_symm">
<ellipse fill="#f070d1" stroke="black" cx="414" cy="-471.03" rx="111.58" ry="18"/>
<text text-anchor="middle" x="414" y="-467.33" font-family="Times,serif" font-size="14.00">equiv_pullback_symm</text>
</a>
</g>
</g>
<!-- Pullback_ispullback_symm&#45;&gt;Pullback_equiv_pullback_symm -->
<g id="edge32" class="edge">
<title>Pullback_ispullback_symm&#45;&gt;Pullback_equiv_pullback_symm</title>
<path fill="none" stroke="black" d="M185.95,-1171.28C218.16,-1116.91 294.51,-982.18 336,-860.03 380.6,-728.73 403.36,-563.3 410.99,-499.16"/>
<polygon fill="black" stroke="black" points="414.49,-499.41 412.17,-489.08 407.53,-498.6 414.49,-499.41"/>
</g>
<!-- Pullback_equiv_ispullback -->
<g id="node24" class="node">
<title>Pullback_equiv_ispullback</title>
<g id="a_node24"><a xlink:href="Pullback.html#equiv_ispullback" xlink:title="equiv_ispullback">
<ellipse fill="#f070d1" stroke="black" cx="942" cy="-1197.03" rx="87.18" ry="18"/>
<ellipse fill="none" stroke="black" cx="942" cy="-1197.03" rx="91.18" ry="22"/>
<ellipse fill="none" stroke="black" cx="942" cy="-1197.03" rx="95.18" ry="26"/>
<text text-anchor="middle" x="942" y="-1193.33" font-family="Times,serif" font-size="14.00">equiv_ispullback</text>
</a>
</g>
</g>
<!-- Pullback_equiv_ispullback&#45;&gt;Pullback_IsPullback -->
<g id="edge33" class="edge">
<title>Pullback_equiv_ispullback&#45;&gt;Pullback_IsPullback</title>
<path fill="none" stroke="black" d="M925.02,-1171.22C880.05,-1105.49 758.19,-927.38 712.56,-860.69"/>
<polygon fill="black" stroke="black" points="715.18,-858.32 706.64,-852.05 709.4,-862.28 715.18,-858.32"/>
</g>
<!-- Pullback_IsPullback&#45;&gt;Pullback_pullback_corec -->
<g id="edge34" class="edge">
<title>Pullback_IsPullback&#45;&gt;Pullback_pullback_corec</title>
<path fill="none" stroke="black" d="M705.41,-816.1C741.1,-758.07 858.64,-566.93 901.33,-497.51"/>
<polygon fill="black" stroke="black" points="904.36,-499.27 906.61,-488.92 898.39,-495.61 904.36,-499.27"/>
</g>
<!-- Pullback_equiv_pullback_unit_unit_paths -->
<g id="node26" class="node">
<title>Pullback_equiv_pullback_unit_unit_paths</title>
<g id="a_node26"><a xlink:href="Pullback.html#equiv_pullback_unit_unit_paths" xlink:title="equiv_pullback_unit_unit_paths">
<ellipse fill="#f070d1" stroke="black" cx="1825" cy="-471.03" rx="155.18" ry="18"/>
<ellipse fill="none" stroke="black" cx="1825" cy="-471.03" rx="159.18" ry="22"/>
<ellipse fill="none" stroke="black" cx="1825" cy="-471.03" rx="163.17" ry="26"/>
<text text-anchor="middle" x="1825" y="-467.33" font-family="Times,serif" font-size="14.00">equiv_pullback_unit_unit_paths</text>
</a>
</g>
</g>
<!-- Pullback_equiv_pullback_unit_unit_paths&#45;&gt;Pullback_Pullback -->
<g id="edge35" class="edge">
<title>Pullback_equiv_pullback_unit_unit_paths&#45;&gt;Pullback_Pullback</title>
<path fill="none" stroke="black" d="M1825,-444.76C1825,-384.15 1825,-230.91 1825,-168.31"/>
<polygon fill="black" stroke="black" points="1828.5,-168.05 1825,-158.05 1821.5,-168.05 1828.5,-168.05"/>
</g>
<!-- Pullback_equiv_pullback_unit_hfiber_ -->
<g id="node27" class="node">
<title>Pullback_equiv_pullback_unit_hfiber_</title>
<g id="a_node27"><a xlink:href="Pullback.html#equiv_pullback_unit_hfiber'" xlink:title="equiv_pullback_unit_hfiber&#39;">
<ellipse fill="#f070d1" stroke="black" cx="183" cy="-834.03" rx="136.48" ry="18"/>
<ellipse fill="none" stroke="black" cx="183" cy="-834.03" rx="140.48" ry="22"/>
<ellipse fill="none" stroke="black" cx="183" cy="-834.03" rx="144.48" ry="26"/>
<text text-anchor="middle" x="183" y="-830.33" font-family="Times,serif" font-size="14.00">equiv_pullback_unit_hfiber&#39;</text>
</a>
</g>
</g>
<!-- Pullback_equiv_pullback_unit_hfiber -->
<g id="node28" class="node">
<title>Pullback_equiv_pullback_unit_hfiber</title>
<g id="a_node28"><a xlink:href="Pullback.html#equiv_pullback_unit_hfiber" xlink:title="equiv_pullback_unit_hfiber">
<ellipse fill="#f070d1" stroke="black" cx="150" cy="-471.03" rx="133.78" ry="18"/>
<text text-anchor="middle" x="150" y="-467.33" font-family="Times,serif" font-size="14.00">equiv_pullback_unit_hfiber</text>
</a>
</g>
</g>
<!-- Pullback_equiv_pullback_unit_hfiber_&#45;&gt;Pullback_equiv_pullback_unit_hfiber -->
<g id="edge36" class="edge">
<title>Pullback_equiv_pullback_unit_hfiber_&#45;&gt;Pullback_equiv_pullback_unit_hfiber</title>
<path fill="none" stroke="black" d="M180.71,-807.93C174.74,-742.65 158.76,-567.9 152.54,-499.77"/>
<polygon fill="black" stroke="black" points="155.99,-499.06 151.59,-489.42 149.01,-499.69 155.99,-499.06"/>
</g>
<!-- Pullback_equiv_pullback_unit_hfiber_&#45;&gt;Pullback_equiv_pullback_symm -->
<g id="edge37" class="edge">
<title>Pullback_equiv_pullback_unit_hfiber_&#45;&gt;Pullback_equiv_pullback_symm</title>
<path fill="none" stroke="black" d="M199.06,-807.93C241.27,-741.96 355.03,-564.18 397.61,-497.64"/>
<polygon fill="black" stroke="black" points="400.69,-499.32 403.13,-489.01 394.8,-495.55 400.69,-499.32"/>
</g>
<!-- Pullback_equiv_pullback_unit_hfiber&#45;&gt;Pullback_Pullback -->
<g id="edge38" class="edge">
<title>Pullback_equiv_pullback_unit_hfiber&#45;&gt;Pullback_Pullback</title>
<path fill="none" stroke="black" d="M222.24,-455.84C504.13,-400.47 1526.59,-199.64 1771.85,-151.47"/>
<polygon fill="black" stroke="black" points="1772.8,-154.85 1781.94,-149.49 1771.45,-147.98 1772.8,-154.85"/>
</g>
<!-- Pullback_equiv_pullback_unit_prod -->
<g id="node29" class="node">
<title>Pullback_equiv_pullback_unit_prod</title>
<g id="a_node29"><a xlink:href="Pullback.html#equiv_pullback_unit_prod" xlink:title="equiv_pullback_unit_prod">
<ellipse fill="#f070d1" stroke="black" cx="1150" cy="-471.03" rx="128.08" ry="18"/>
<ellipse fill="none" stroke="black" cx="1150" cy="-471.03" rx="132.08" ry="22"/>
<ellipse fill="none" stroke="black" cx="1150" cy="-471.03" rx="136.08" ry="26"/>
<text text-anchor="middle" x="1150" y="-467.33" font-family="Times,serif" font-size="14.00">equiv_pullback_unit_prod</text>
</a>
</g>
</g>
<!-- Pullback_equiv_pullback_unit_prod&#45;&gt;Pullback_Pullback -->
<g id="edge39" class="edge">
<title>Pullback_equiv_pullback_unit_prod&#45;&gt;Pullback_Pullback</title>
<path fill="none" stroke="black" d="M1198,-446.63C1325.73,-384.38 1672.02,-215.59 1787.18,-159.46"/>
<polygon fill="black" stroke="black" points="1788.88,-162.53 1796.34,-155 1785.81,-156.24 1788.88,-162.53"/>
</g>
<!-- Pullback_equiv_pullback_symm&#45;&gt;Pullback_Pullback -->
<g id="edge40" class="edge">
<title>Pullback_equiv_pullback_symm&#45;&gt;Pullback_Pullback</title>
<path fill="none" stroke="black" d="M474.63,-455.89C709.59,-401.11 1557.78,-203.34 1774.37,-152.84"/>
<polygon fill="black" stroke="black" points="1775.25,-156.22 1784.2,-150.54 1773.67,-149.41 1775.25,-156.22"/>
</g>
<!-- Pullback_hfiber_diagonal -->
<g id="node31" class="node">
<title>Pullback_hfiber_diagonal</title>
<g id="a_node31"><a xlink:href="Pullback.html#hfiber_diagonal" xlink:title="hfiber_diagonal">
<ellipse fill="#f070d1" stroke="black" cx="3552" cy="-834.03" rx="81.8" ry="18"/>
<ellipse fill="none" stroke="black" cx="3552" cy="-834.03" rx="85.79" ry="22"/>
<ellipse fill="none" stroke="black" cx="3552" cy="-834.03" rx="89.79" ry="26"/>
<text text-anchor="middle" x="3552" y="-830.33" font-family="Times,serif" font-size="14.00">hfiber_diagonal</text>
</a>
</g>
</g>
<!-- Pullback_diagonal -->
<g id="node32" class="node">
<title>Pullback_diagonal</title>
<g id="a_node32"><a xlink:href="Pullback.html#diagonal" xlink:title="diagonal">
<ellipse fill="#f070d1" stroke="black" cx="3592" cy="-471.03" rx="50.09" ry="18"/>
<text text-anchor="middle" x="3592" y="-467.33" font-family="Times,serif" font-size="14.00">diagonal</text>
</a>
</g>
</g>
<!-- Pullback_hfiber_diagonal&#45;&gt;Pullback_diagonal -->
<g id="edge41" class="edge">
<title>Pullback_hfiber_diagonal&#45;&gt;Pullback_diagonal</title>
<path fill="none" stroke="black" d="M3554.78,-807.93C3562.01,-742.65 3581.38,-567.9 3588.93,-499.77"/>
<polygon fill="black" stroke="black" points="3592.45,-499.74 3590.07,-489.42 3585.49,-498.97 3592.45,-499.74"/>
</g>
<!-- Pullback_diagonal&#45;&gt;Pullback_Pullback -->
<g id="edge42" class="edge">
<title>Pullback_diagonal&#45;&gt;Pullback_Pullback</title>
<path fill="none" stroke="black" d="M3563.07,-456.24C3553.64,-452.17 3543.03,-448 3533,-445.03 2901.3,-257.57 2101.88,-168.49 1882.76,-146.55"/>
<polygon fill="black" stroke="black" points="1883.07,-143.07 1872.77,-145.56 1882.37,-150.03 1883.07,-143.07"/>
</g>
<!-- Pullback_equiv_ispullback_commsq -->
<g id="node33" class="node">
<title>Pullback_equiv_ispullback_commsq</title>
<g id="a_node33"><a xlink:href="Pullback.html#equiv_ispullback_commsq" xlink:title="equiv_ispullback_commsq">
<ellipse fill="#f070d1" stroke="black" cx="682" cy="-471.03" rx="129.98" ry="18"/>
<ellipse fill="none" stroke="black" cx="682" cy="-471.03" rx="133.98" ry="22"/>
<ellipse fill="none" stroke="black" cx="682" cy="-471.03" rx="137.98" ry="26"/>
<text text-anchor="middle" x="682" y="-467.33" font-family="Times,serif" font-size="14.00">equiv_ispullback_commsq</text>
</a>
</g>
</g>
<!-- Pullback_equiv_ispullback_commsq&#45;&gt;Pullback_Pullback -->
<g id="edge43" class="edge">
<title>Pullback_equiv_ispullback_commsq&#45;&gt;Pullback_Pullback</title>
<path fill="none" stroke="black" d="M755.24,-448.95C970.81,-386.9 1599.08,-206.06 1777.34,-154.75"/>
<polygon fill="black" stroke="black" points="1778.57,-158.04 1787.21,-151.91 1776.63,-151.31 1778.57,-158.04"/>
</g>
<!-- Pullback_equiv_pullback_corec -->
<g id="node34" class="node">
<title>Pullback_equiv_pullback_corec</title>
<g id="a_node34"><a xlink:href="Pullback.html#equiv_pullback_corec" xlink:title="equiv_pullback_corec">
<ellipse fill="#f070d1" stroke="black" cx="1519" cy="-1561.03" rx="108.58" ry="18"/>
<ellipse fill="none" stroke="black" cx="1519" cy="-1561.03" rx="112.58" ry="22"/>
<ellipse fill="none" stroke="black" cx="1519" cy="-1561.03" rx="116.58" ry="26"/>
<text text-anchor="middle" x="1519" y="-1557.33" font-family="Times,serif" font-size="14.00">equiv_pullback_corec</text>
</a>
</g>
</g>
<!-- Pullback_isequiv_pullback_corec -->
<g id="node35" class="node">
<title>Pullback_isequiv_pullback_corec</title>
<g id="a_node35"><a xlink:href="Pullback.html#isequiv_pullback_corec" xlink:title="isequiv_pullback_corec">
<ellipse fill="#f070d1" stroke="black" cx="1519" cy="-1197.03" rx="116.18" ry="18"/>
<text text-anchor="middle" x="1519" y="-1193.33" font-family="Times,serif" font-size="14.00">isequiv_pullback_corec</text>
</a>
</g>
</g>
<!-- Pullback_equiv_pullback_corec&#45;&gt;Pullback_isequiv_pullback_corec -->
<g id="edge44" class="edge">
<title>Pullback_equiv_pullback_corec&#45;&gt;Pullback_isequiv_pullback_corec</title>
<path fill="none" stroke="black" d="M1519,-1534.86C1519,-1469.25 1519,-1293.35 1519,-1225.37"/>
<polygon fill="black" stroke="black" points="1522.5,-1225.06 1519,-1215.06 1515.5,-1225.06 1522.5,-1225.06"/>
</g>
<!-- Pullback_pullback_corec_uncurried -->
<g id="node36" class="node">
<title>Pullback_pullback_corec_uncurried</title>
<g id="a_node36"><a xlink:href="Pullback.html#pullback_corec_uncurried" xlink:title="pullback_corec_uncurried">
<ellipse fill="#f070d1" stroke="black" cx="1170" cy="-834.03" rx="128.88" ry="18"/>
<text text-anchor="middle" x="1170" y="-830.33" font-family="Times,serif" font-size="14.00">pullback_corec_uncurried</text>
</a>
</g>
</g>
<!-- Pullback_isequiv_pullback_corec&#45;&gt;Pullback_pullback_corec_uncurried -->
<g id="edge45" class="edge">
<title>Pullback_isequiv_pullback_corec&#45;&gt;Pullback_pullback_corec_uncurried</title>
<path fill="none" stroke="black" d="M1502.64,-1179.1C1446.19,-1120.71 1259.48,-927.59 1193.42,-859.25"/>
<polygon fill="black" stroke="black" points="1195.8,-856.68 1186.33,-851.92 1190.76,-861.54 1195.8,-856.68"/>
</g>
<!-- Pullback_pullback_commsq -->
<g id="node38" class="node">
<title>Pullback_pullback_commsq</title>
<g id="a_node38"><a xlink:href="Pullback.html#pullback_commsq" xlink:title="pullback_commsq">
<ellipse fill="#f070d1" stroke="black" cx="1912" cy="-834.03" rx="92.88" ry="18"/>
<text text-anchor="middle" x="1912" y="-830.33" font-family="Times,serif" font-size="14.00">pullback_commsq</text>
</a>
</g>
</g>
<!-- Pullback_isequiv_pullback_corec&#45;&gt;Pullback_pullback_commsq -->
<g id="edge46" class="edge">
<title>Pullback_isequiv_pullback_corec&#45;&gt;Pullback_pullback_commsq</title>
<path fill="none" stroke="black" d="M1537.43,-1179.1C1601.12,-1120.6 1812.09,-926.8 1886.08,-858.84"/>
<polygon fill="black" stroke="black" points="1888.61,-861.26 1893.61,-851.92 1883.88,-856.11 1888.61,-861.26"/>
</g>
<!-- Pullback_pullback_corec_uncurried&#45;&gt;Pullback_pullback_corec -->
<g id="edge47" class="edge">
<title>Pullback_pullback_corec_uncurried&#45;&gt;Pullback_pullback_corec</title>
<path fill="none" stroke="black" d="M1158.14,-816.1C1117.47,-758.07 983.51,-566.93 934.86,-497.51"/>
<polygon fill="black" stroke="black" points="937.44,-495.1 928.84,-488.92 931.71,-499.12 937.44,-495.1"/>
</g>
<!-- Pullback_pullback_corec&#45;&gt;Pullback_Pullback -->
<g id="edge48" class="edge">
<title>Pullback_pullback_corec&#45;&gt;Pullback_Pullback</title>
<path fill="none" stroke="black" d="M957.19,-455.47C1106.13,-401.5 1626.05,-213.12 1781.06,-156.95"/>
<polygon fill="black" stroke="black" points="1782.52,-160.14 1790.73,-153.45 1780.14,-153.56 1782.52,-160.14"/>
</g>
<!-- Pullback_pullback_commsq&#45;&gt;Pullback_pullback_pr2 -->
<g id="edge49" class="edge">
<title>Pullback_pullback_commsq&#45;&gt;Pullback_pullback_pr2</title>
<path fill="none" stroke="black" d="M1919.96,-815.62C1946.59,-757.36 2032.69,-568.96 2064.79,-498.74"/>
<polygon fill="black" stroke="black" points="2068.15,-499.82 2069.12,-489.27 2061.78,-496.91 2068.15,-499.82"/>
</g>
<!-- Pullback_pullback_commsq&#45;&gt;Pullback_pullback_pr1 -->
<g id="edge50" class="edge">
<title>Pullback_pullback_commsq&#45;&gt;Pullback_pullback_pr1</title>
<path fill="none" stroke="black" d="M1927.15,-816.1C1979.28,-757.83 2151.49,-565.37 2212.96,-496.67"/>
<polygon fill="black" stroke="black" points="2215.83,-498.71 2219.89,-488.92 2210.61,-494.04 2215.83,-498.71"/>
</g>
<!-- Pullback_pullback_pr2&#45;&gt;Pullback_Pullback -->
<g id="edge51" class="edge">
<title>Pullback_pullback_pr2&#45;&gt;Pullback_Pullback</title>
<path fill="none" stroke="black" d="M2064.16,-453.26C2022.79,-399.25 1892.85,-229.62 1843.91,-165.71"/>
<polygon fill="black" stroke="black" points="1846.68,-163.57 1837.82,-157.76 1841.12,-167.83 1846.68,-163.57"/>
</g>
<!-- Pullback_pullback_pr1&#45;&gt;Pullback_Pullback -->
<g id="edge52" class="edge">
<title>Pullback_pullback_pr1&#45;&gt;Pullback_Pullback</title>
<path fill="none" stroke="black" d="M2214.67,-453.71C2147.01,-399.42 1929.38,-224.78 1852.34,-162.97"/>
<polygon fill="black" stroke="black" points="1854.48,-160.2 1844.49,-156.67 1850.1,-165.66 1854.48,-160.2"/>
</g>
</g>
</svg>
