<?xml version="1.0" encoding="UTF-8" standalone="no"?>
<!DOCTYPE svg PUBLIC "-//W3C//DTD SVG 1.1//EN"
 "http://www.w3.org/Graphics/SVG/1.1/DTD/svg11.dtd">
<!-- Generated by graphviz version 2.43.0 (0)
 -->
<!-- Title: HoTT_Homotopy_HomotopyGroup Pages: 1 -->
<svg width="2567pt" height="1288pt"
 viewBox="0.00 0.00 2567.00 1287.50" xmlns="http://www.w3.org/2000/svg" xmlns:xlink="http://www.w3.org/1999/xlink">
<g id="graph0" class="graph" transform="scale(1 1) rotate(0) translate(4 1283.5)">
<title>HoTT_Homotopy_HomotopyGroup</title>
<polygon fill="white" stroke="transparent" points="-4,4 -4,-1283.5 2563,-1283.5 2563,4 -4,4"/>
<g id="clust1" class="cluster">
<title>cluster_HomotopyGroup</title>
<polygon fill="#ffffc3" stroke="black" points="8,-15.53 8,-1263.97 2551,-1263.97 2551,-15.53 8,-15.53"/>
<text text-anchor="middle" x="75" y="-1248.77" font-family="Times,serif" font-size="14.00">HomotopyGroup</text>
</g>
<!-- HomotopyGroup_isembedding_pi_psect -->
<g id="node1" class="node">
<title>HomotopyGroup_isembedding_pi_psect</title>
<g id="a_node1"><a xlink:href="HomotopyGroup.html#isembedding_pi_psect" xlink:title="isembedding_pi_psect">
<ellipse fill="#f070d1" stroke="black" cx="1572" cy="-982.53" rx="112.38" ry="18"/>
<ellipse fill="none" stroke="black" cx="1572" cy="-982.53" rx="116.38" ry="22"/>
<ellipse fill="none" stroke="black" cx="1572" cy="-982.53" rx="120.38" ry="26"/>
<text text-anchor="middle" x="1572" y="-978.83" font-family="Times,serif" font-size="14.00">isembedding_pi_psect</text>
</a>
</g>
</g>
<!-- HomotopyGroup_is1functor_ppi -->
<g id="node21" class="node">
<title>HomotopyGroup_is1functor_ppi</title>
<g id="a_node21"><a xlink:href="HomotopyGroup.html#is1functor_ppi" xlink:title="is1functor_ppi">
<ellipse fill="#f070d1" stroke="black" cx="1228" cy="-811.53" rx="77.19" ry="18"/>
<text text-anchor="middle" x="1228" y="-807.83" font-family="Times,serif" font-size="14.00">is1functor_ppi</text>
</a>
</g>
</g>
<!-- HomotopyGroup_isembedding_pi_psect&#45;&gt;HomotopyGroup_is1functor_ppi -->
<g id="edge1" class="edge">
<title>HomotopyGroup_isembedding_pi_psect&#45;&gt;HomotopyGroup_is1functor_ppi</title>
<path fill="none" stroke="black" d="M1525.25,-958.56C1457.49,-925.28 1333.08,-864.16 1268.82,-832.59"/>
<polygon fill="black" stroke="black" points="1270.31,-829.42 1259.79,-828.15 1267.22,-835.7 1270.31,-829.42"/>
</g>
<!-- HomotopyGroup_ishset_pi -->
<g id="node30" class="node">
<title>HomotopyGroup_ishset_pi</title>
<g id="a_node30"><a xlink:href="HomotopyGroup.html#ishset_pi" xlink:title="ishset_pi">
<ellipse fill="#f070d1" stroke="black" cx="2491" cy="-640.53" rx="51.99" ry="18"/>
<text text-anchor="middle" x="2491" y="-636.83" font-family="Times,serif" font-size="14.00">ishset_pi</text>
</a>
</g>
</g>
<!-- HomotopyGroup_isembedding_pi_psect&#45;&gt;HomotopyGroup_ishset_pi -->
<g id="edge2" class="edge">
<title>HomotopyGroup_isembedding_pi_psect&#45;&gt;HomotopyGroup_ishset_pi</title>
<path fill="none" stroke="black" d="M1685.42,-973.66C1869.1,-958.64 2220.16,-919.79 2310,-837.53 2327.74,-821.29 2312.05,-805.8 2325,-785.53 2359.42,-731.66 2419.9,-686.62 2457.58,-661.93"/>
<polygon fill="black" stroke="black" points="2459.67,-664.74 2466.18,-656.39 2455.88,-658.86 2459.67,-664.74"/>
</g>
<!-- HomotopyGroup_issurj_pi_connmap -->
<g id="node2" class="node">
<title>HomotopyGroup_issurj_pi_connmap</title>
<g id="a_node2"><a xlink:href="HomotopyGroup.html#issurj_pi_connmap" xlink:title="issurj_pi_connmap">
<ellipse fill="#f070d1" stroke="black" cx="1552" cy="-811.53" rx="96.37" ry="18"/>
<ellipse fill="none" stroke="black" cx="1552" cy="-811.53" rx="100.38" ry="22"/>
<ellipse fill="none" stroke="black" cx="1552" cy="-811.53" rx="104.38" ry="26"/>
<text text-anchor="middle" x="1552" y="-807.83" font-family="Times,serif" font-size="14.00">issurj_pi_connmap</text>
</a>
</g>
</g>
<!-- HomotopyGroup_issurj_iterated_loops_connmap -->
<g id="node3" class="node">
<title>HomotopyGroup_issurj_iterated_loops_connmap</title>
<g id="a_node3"><a xlink:href="HomotopyGroup.html#issurj_iterated_loops_connmap" xlink:title="issurj_iterated_loops_connmap">
<ellipse fill="#f070d1" stroke="black" cx="1931" cy="-640.53" rx="153.27" ry="18"/>
<text text-anchor="middle" x="1931" y="-636.83" font-family="Times,serif" font-size="14.00">issurj_iterated_loops_connmap</text>
</a>
</g>
</g>
<!-- HomotopyGroup_issurj_pi_connmap&#45;&gt;HomotopyGroup_issurj_iterated_loops_connmap -->
<g id="edge3" class="edge">
<title>HomotopyGroup_issurj_pi_connmap&#45;&gt;HomotopyGroup_issurj_iterated_loops_connmap</title>
<path fill="none" stroke="black" d="M1601.55,-788.44C1675.29,-755.56 1812.9,-694.19 1884.71,-662.17"/>
<polygon fill="black" stroke="black" points="1886.26,-665.31 1893.97,-658.04 1883.41,-658.92 1886.26,-665.31"/>
</g>
<!-- HomotopyGroup_is0functor_ppi -->
<g id="node22" class="node">
<title>HomotopyGroup_is0functor_ppi</title>
<g id="a_node22"><a xlink:href="HomotopyGroup.html#is0functor_ppi" xlink:title="is0functor_ppi">
<ellipse fill="#f070d1" stroke="black" cx="1419" cy="-640.53" rx="77.19" ry="18"/>
<text text-anchor="middle" x="1419" y="-636.83" font-family="Times,serif" font-size="14.00">is0functor_ppi</text>
</a>
</g>
</g>
<!-- HomotopyGroup_issurj_pi_connmap&#45;&gt;HomotopyGroup_is0functor_ppi -->
<g id="edge4" class="edge">
<title>HomotopyGroup_issurj_pi_connmap&#45;&gt;HomotopyGroup_is0functor_ppi</title>
<path fill="none" stroke="black" d="M1532.66,-785.96C1507.53,-754.02 1463.88,-698.57 1438.62,-666.46"/>
<polygon fill="black" stroke="black" points="1441.24,-664.14 1432.31,-658.44 1435.74,-668.47 1441.24,-664.14"/>
</g>
<!-- HomotopyGroup_grp_iso_pi_Tr -->
<g id="node4" class="node">
<title>HomotopyGroup_grp_iso_pi_Tr</title>
<g id="a_node4"><a xlink:href="HomotopyGroup.html#grp_iso_pi_Tr" xlink:title="grp_iso_pi_Tr">
<ellipse fill="#f070d1" stroke="black" cx="1203" cy="-1153.53" rx="72.27" ry="18"/>
<ellipse fill="none" stroke="black" cx="1203" cy="-1153.53" rx="76.28" ry="22"/>
<ellipse fill="none" stroke="black" cx="1203" cy="-1153.53" rx="80.29" ry="26"/>
<text text-anchor="middle" x="1203" y="-1149.83" font-family="Times,serif" font-size="14.00">grp_iso_pi_Tr</text>
</a>
</g>
</g>
<!-- HomotopyGroup_grp_iso_pi_connmap -->
<g id="node7" class="node">
<title>HomotopyGroup_grp_iso_pi_connmap</title>
<g id="a_node7"><a xlink:href="HomotopyGroup.html#grp_iso_pi_connmap" xlink:title="grp_iso_pi_connmap">
<ellipse fill="#f070d1" stroke="black" cx="1203" cy="-982.53" rx="103.98" ry="18"/>
<text text-anchor="middle" x="1203" y="-978.83" font-family="Times,serif" font-size="14.00">grp_iso_pi_connmap</text>
</a>
</g>
</g>
<!-- HomotopyGroup_grp_iso_pi_Tr&#45;&gt;HomotopyGroup_grp_iso_pi_connmap -->
<g id="edge5" class="edge">
<title>HomotopyGroup_grp_iso_pi_Tr&#45;&gt;HomotopyGroup_grp_iso_pi_connmap</title>
<path fill="none" stroke="black" d="M1203,-1127.23C1203,-1095.96 1203,-1042.95 1203,-1010.8"/>
<polygon fill="black" stroke="black" points="1206.5,-1010.76 1203,-1000.76 1199.5,-1010.76 1206.5,-1010.76"/>
</g>
<!-- HomotopyGroup_pequiv_pi_Tr -->
<g id="node5" class="node">
<title>HomotopyGroup_pequiv_pi_Tr</title>
<g id="a_node5"><a xlink:href="HomotopyGroup.html#pequiv_pi_Tr" xlink:title="pequiv_pi_Tr">
<ellipse fill="#f070d1" stroke="black" cx="1003" cy="-982.53" rx="69.58" ry="18"/>
<ellipse fill="none" stroke="black" cx="1003" cy="-982.53" rx="73.59" ry="22"/>
<ellipse fill="none" stroke="black" cx="1003" cy="-982.53" rx="77.59" ry="26"/>
<text text-anchor="middle" x="1003" y="-978.83" font-family="Times,serif" font-size="14.00">pequiv_pi_Tr</text>
</a>
</g>
</g>
<!-- HomotopyGroup_isequiv_pi_connmap -->
<g id="node9" class="node">
<title>HomotopyGroup_isequiv_pi_connmap</title>
<g id="a_node9"><a xlink:href="HomotopyGroup.html#isequiv_pi_connmap" xlink:title="isequiv_pi_connmap">
<ellipse fill="#f070d1" stroke="black" cx="916" cy="-811.53" rx="103.18" ry="18"/>
<text text-anchor="middle" x="916" y="-807.83" font-family="Times,serif" font-size="14.00">isequiv_pi_connmap</text>
</a>
</g>
</g>
<!-- HomotopyGroup_pequiv_pi_Tr&#45;&gt;HomotopyGroup_isequiv_pi_connmap -->
<g id="edge6" class="edge">
<title>HomotopyGroup_pequiv_pi_Tr&#45;&gt;HomotopyGroup_isequiv_pi_connmap</title>
<path fill="none" stroke="black" d="M990.16,-956.6C973.97,-925.14 946.25,-871.29 929.67,-839.09"/>
<polygon fill="black" stroke="black" points="932.6,-837.13 924.91,-829.84 926.37,-840.33 932.6,-837.13"/>
</g>
<!-- HomotopyGroup_isequiv_pi_Tr -->
<g id="node6" class="node">
<title>HomotopyGroup_isequiv_pi_Tr</title>
<g id="a_node6"><a xlink:href="HomotopyGroup.html#isequiv_pi_Tr" xlink:title="isequiv_pi_Tr">
<ellipse fill="#f070d1" stroke="black" cx="828" cy="-982.53" rx="71.49" ry="18"/>
<ellipse fill="none" stroke="black" cx="828" cy="-982.53" rx="75.49" ry="22"/>
<ellipse fill="none" stroke="black" cx="828" cy="-982.53" rx="79.49" ry="26"/>
<text text-anchor="middle" x="828" y="-978.83" font-family="Times,serif" font-size="14.00">isequiv_pi_Tr</text>
</a>
</g>
</g>
<!-- HomotopyGroup_isequiv_pi_Tr&#45;&gt;HomotopyGroup_isequiv_pi_connmap -->
<g id="edge7" class="edge">
<title>HomotopyGroup_isequiv_pi_Tr&#45;&gt;HomotopyGroup_isequiv_pi_connmap</title>
<path fill="none" stroke="black" d="M840.98,-956.6C857.36,-925.14 885.41,-871.29 902.17,-839.09"/>
<polygon fill="black" stroke="black" points="905.47,-840.33 906.99,-829.84 899.27,-837.09 905.47,-840.33"/>
</g>
<!-- HomotopyGroup_grp_iso_pi_connmap&#45;&gt;HomotopyGroup_isequiv_pi_connmap -->
<g id="edge8" class="edge">
<title>HomotopyGroup_grp_iso_pi_connmap&#45;&gt;HomotopyGroup_isequiv_pi_connmap</title>
<path fill="none" stroke="black" d="M1175.22,-965.17C1123.14,-934.51 1010.86,-868.39 952.65,-834.12"/>
<polygon fill="black" stroke="black" points="954.19,-830.96 943.79,-828.9 950.64,-836.99 954.19,-830.96"/>
</g>
<!-- HomotopyGroup_pequiv_pi_connmap -->
<g id="node8" class="node">
<title>HomotopyGroup_pequiv_pi_connmap</title>
<g id="a_node8"><a xlink:href="HomotopyGroup.html#pequiv_pi_connmap" xlink:title="pequiv_pi_connmap">
<ellipse fill="#f070d1" stroke="black" cx="621" cy="-982.53" rx="101.29" ry="18"/>
<ellipse fill="none" stroke="black" cx="621" cy="-982.53" rx="105.29" ry="22"/>
<ellipse fill="none" stroke="black" cx="621" cy="-982.53" rx="109.28" ry="26"/>
<text text-anchor="middle" x="621" y="-978.83" font-family="Times,serif" font-size="14.00">pequiv_pi_connmap</text>
</a>
</g>
</g>
<!-- HomotopyGroup_pequiv_pi_connmap&#45;&gt;HomotopyGroup_isequiv_pi_connmap -->
<g id="edge9" class="edge">
<title>HomotopyGroup_pequiv_pi_connmap&#45;&gt;HomotopyGroup_isequiv_pi_connmap</title>
<path fill="none" stroke="black" d="M661.71,-958.21C719.05,-925.36 822.81,-865.92 878.41,-834.07"/>
<polygon fill="black" stroke="black" points="880.3,-837.02 887.24,-829.01 876.82,-830.95 880.3,-837.02"/>
</g>
<!-- HomotopyGroup_isequiv_pi_connmap_ -->
<g id="node10" class="node">
<title>HomotopyGroup_isequiv_pi_connmap_</title>
<g id="a_node10"><a xlink:href="HomotopyGroup.html#isequiv_pi_connmap'" xlink:title="isequiv_pi_connmap&#39;">
<ellipse fill="#f070d1" stroke="black" cx="818" cy="-640.53" rx="105.88" ry="18"/>
<text text-anchor="middle" x="818" y="-636.83" font-family="Times,serif" font-size="14.00">isequiv_pi_connmap&#39;</text>
</a>
</g>
</g>
<!-- HomotopyGroup_isequiv_pi_connmap&#45;&gt;HomotopyGroup_isequiv_pi_connmap_ -->
<g id="edge10" class="edge">
<title>HomotopyGroup_isequiv_pi_connmap&#45;&gt;HomotopyGroup_isequiv_pi_connmap_</title>
<path fill="none" stroke="black" d="M906.06,-793.4C888.78,-763.59 853.08,-702.03 832.85,-667.14"/>
<polygon fill="black" stroke="black" points="835.86,-665.36 827.82,-658.46 829.81,-668.87 835.86,-665.36"/>
</g>
<!-- HomotopyGroup_isequiv_pi_connmap&#45;&gt;HomotopyGroup_is0functor_ppi -->
<g id="edge11" class="edge">
<title>HomotopyGroup_isequiv_pi_connmap&#45;&gt;HomotopyGroup_is0functor_ppi</title>
<path fill="none" stroke="black" d="M961.53,-795.24C1055.05,-763.82 1268.28,-692.17 1367.03,-658.99"/>
<polygon fill="black" stroke="black" points="1368.43,-662.22 1376.79,-655.71 1366.2,-655.58 1368.43,-662.22"/>
</g>
<!-- HomotopyGroup_grp_iso_pi_prod -->
<g id="node11" class="node">
<title>HomotopyGroup_grp_iso_pi_prod</title>
<g id="a_node11"><a xlink:href="HomotopyGroup.html#grp_iso_pi_prod" xlink:title="grp_iso_pi_prod">
<ellipse fill="#f070d1" stroke="black" cx="2067" cy="-1153.53" rx="83.37" ry="18"/>
<ellipse fill="none" stroke="black" cx="2067" cy="-1153.53" rx="87.38" ry="22"/>
<ellipse fill="none" stroke="black" cx="2067" cy="-1153.53" rx="91.39" ry="26"/>
<text text-anchor="middle" x="2067" y="-1149.83" font-family="Times,serif" font-size="14.00">grp_iso_pi_prod</text>
</a>
</g>
</g>
<!-- HomotopyGroup_pi_prod -->
<g id="node12" class="node">
<title>HomotopyGroup_pi_prod</title>
<g id="a_node12"><a xlink:href="HomotopyGroup.html#pi_prod" xlink:title="pi_prod">
<ellipse fill="#f070d1" stroke="black" cx="2067" cy="-982.53" rx="45.49" ry="18"/>
<text text-anchor="middle" x="2067" y="-978.83" font-family="Times,serif" font-size="14.00">pi_prod</text>
</a>
</g>
</g>
<!-- HomotopyGroup_grp_iso_pi_prod&#45;&gt;HomotopyGroup_pi_prod -->
<g id="edge12" class="edge">
<title>HomotopyGroup_grp_iso_pi_prod&#45;&gt;HomotopyGroup_pi_prod</title>
<path fill="none" stroke="black" d="M2067,-1127.23C2067,-1095.96 2067,-1042.95 2067,-1010.8"/>
<polygon fill="black" stroke="black" points="2070.5,-1010.76 2067,-1000.76 2063.5,-1010.76 2070.5,-1010.76"/>
</g>
<!-- HomotopyGroup_pi_prod_ -->
<g id="node13" class="node">
<title>HomotopyGroup_pi_prod_</title>
<g id="a_node13"><a xlink:href="HomotopyGroup.html#pi_prod'" xlink:title="pi_prod&#39;">
<ellipse fill="#f070d1" stroke="black" cx="2067" cy="-811.53" rx="48.19" ry="18"/>
<text text-anchor="middle" x="2067" y="-807.83" font-family="Times,serif" font-size="14.00">pi_prod&#39;</text>
</a>
</g>
</g>
<!-- HomotopyGroup_pi_prod&#45;&gt;HomotopyGroup_pi_prod_ -->
<g id="edge13" class="edge">
<title>HomotopyGroup_pi_prod&#45;&gt;HomotopyGroup_pi_prod_</title>
<path fill="none" stroke="black" d="M2067,-964.4C2067,-935.04 2067,-874.91 2067,-839.76"/>
<polygon fill="black" stroke="black" points="2070.5,-839.71 2067,-829.71 2063.5,-839.71 2070.5,-839.71"/>
</g>
<!-- HomotopyGroup_pi_prod&#45;&gt;HomotopyGroup_is0functor_ppi -->
<g id="edge14" class="edge">
<title>HomotopyGroup_pi_prod&#45;&gt;HomotopyGroup_is0functor_ppi</title>
<path fill="none" stroke="black" d="M2022.85,-977.95C1893.09,-966.45 1517.13,-925.98 1439,-837.53 1397.55,-790.6 1405.15,-710.57 1412.85,-668.77"/>
<polygon fill="black" stroke="black" points="1416.32,-669.26 1414.83,-658.77 1409.45,-667.9 1416.32,-669.26"/>
</g>
<!-- HomotopyGroup_pi_prod&#45;&gt;HomotopyGroup_ishset_pi -->
<g id="edge15" class="edge">
<title>HomotopyGroup_pi_prod&#45;&gt;HomotopyGroup_ishset_pi</title>
<path fill="none" stroke="black" d="M2100.96,-970.24C2154.77,-950.83 2260.15,-906.46 2325,-837.53 2342.57,-818.86 2335.28,-806.53 2350,-785.53 2383.56,-737.67 2433.37,-690.95 2463.93,-664.26"/>
<polygon fill="black" stroke="black" points="2466.35,-666.79 2471.63,-657.6 2461.78,-661.49 2466.35,-666.79"/>
</g>
<!-- HomotopyGroup_pequiv_ppi_ptr_iterated_loops -->
<g id="node19" class="node">
<title>HomotopyGroup_pequiv_ppi_ptr_iterated_loops</title>
<g id="a_node19"><a xlink:href="HomotopyGroup.html#pequiv_ppi_ptr_iterated_loops" xlink:title="pequiv_ppi_ptr_iterated_loops">
<ellipse fill="#f070d1" stroke="black" cx="2252" cy="-640.53" rx="149.47" ry="18"/>
<text text-anchor="middle" x="2252" y="-636.83" font-family="Times,serif" font-size="14.00">pequiv_ppi_ptr_iterated_loops</text>
</a>
</g>
</g>
<!-- HomotopyGroup_pi_prod_&#45;&gt;HomotopyGroup_pequiv_ppi_ptr_iterated_loops -->
<g id="edge16" class="edge">
<title>HomotopyGroup_pi_prod_&#45;&gt;HomotopyGroup_pequiv_ppi_ptr_iterated_loops</title>
<path fill="none" stroke="black" d="M2084.4,-794.63C2116.99,-764.87 2187.35,-700.59 2225.73,-665.53"/>
<polygon fill="black" stroke="black" points="2228.39,-667.84 2233.41,-658.51 2223.67,-662.67 2228.39,-667.84"/>
</g>
<!-- HomotopyGroup_fmap_pi_loops -->
<g id="node14" class="node">
<title>HomotopyGroup_fmap_pi_loops</title>
<g id="a_node14"><a xlink:href="HomotopyGroup.html#fmap_pi_loops" xlink:title="fmap_pi_loops">
<ellipse fill="#f070d1" stroke="black" cx="2217" cy="-811.53" rx="76.08" ry="18"/>
<ellipse fill="none" stroke="black" cx="2217" cy="-811.53" rx="80.08" ry="22"/>
<ellipse fill="none" stroke="black" cx="2217" cy="-811.53" rx="84.09" ry="26"/>
<text text-anchor="middle" x="2217" y="-807.83" font-family="Times,serif" font-size="14.00">fmap_pi_loops</text>
</a>
</g>
</g>
<!-- HomotopyGroup_pi_loops -->
<g id="node16" class="node">
<title>HomotopyGroup_pi_loops</title>
<g id="a_node16"><a xlink:href="HomotopyGroup.html#pi_loops" xlink:title="pi_loops">
<ellipse fill="#f070d1" stroke="black" cx="1532" cy="-485.53" rx="48.19" ry="18"/>
<text text-anchor="middle" x="1532" y="-481.83" font-family="Times,serif" font-size="14.00">pi_loops</text>
</a>
</g>
</g>
<!-- HomotopyGroup_fmap_pi_loops&#45;&gt;HomotopyGroup_pi_loops -->
<g id="edge17" class="edge">
<title>HomotopyGroup_fmap_pi_loops&#45;&gt;HomotopyGroup_pi_loops</title>
<path fill="none" stroke="black" d="M2264.53,-790.07C2338.85,-755.33 2468.34,-681.99 2410,-614.53 2355.92,-552 1775.04,-504.33 1588.98,-490.57"/>
<polygon fill="black" stroke="black" points="1589.09,-487.07 1578.86,-489.83 1588.58,-494.05 1589.09,-487.07"/>
</g>
<!-- HomotopyGroup_fmap_pi_loops&#45;&gt;HomotopyGroup_is0functor_ppi -->
<g id="edge18" class="edge">
<title>HomotopyGroup_fmap_pi_loops&#45;&gt;HomotopyGroup_is0functor_ppi</title>
<path fill="none" stroke="black" d="M2156.13,-793.49C2145.45,-790.7 2134.43,-787.93 2124,-785.53 1851.43,-722.74 1778.02,-731.67 1506,-666.53 1495.47,-664.01 1484.3,-661.04 1473.61,-658.03"/>
<polygon fill="black" stroke="black" points="1474.53,-654.66 1463.95,-655.28 1472.61,-661.39 1474.53,-654.66"/>
</g>
<!-- HomotopyGroup_fmap_pi_loops&#45;&gt;HomotopyGroup_ishset_pi -->
<g id="edge19" class="edge">
<title>HomotopyGroup_fmap_pi_loops&#45;&gt;HomotopyGroup_ishset_pi</title>
<path fill="none" stroke="black" d="M2253.39,-788.09C2306.94,-755.06 2406.22,-693.82 2457.86,-661.97"/>
<polygon fill="black" stroke="black" points="2459.95,-664.79 2466.63,-656.57 2456.28,-658.84 2459.95,-664.79"/>
</g>
<!-- HomotopyGroup_groupiso_pi_loops -->
<g id="node15" class="node">
<title>HomotopyGroup_groupiso_pi_loops</title>
<g id="a_node15"><a xlink:href="HomotopyGroup.html#groupiso_pi_loops" xlink:title="groupiso_pi_loops">
<ellipse fill="#f070d1" stroke="black" cx="240" cy="-982.53" rx="92.89" ry="18"/>
<ellipse fill="none" stroke="black" cx="240" cy="-982.53" rx="96.89" ry="22"/>
<ellipse fill="none" stroke="black" cx="240" cy="-982.53" rx="100.88" ry="26"/>
<text text-anchor="middle" x="240" y="-978.83" font-family="Times,serif" font-size="14.00">groupiso_pi_loops</text>
</a>
</g>
</g>
<!-- HomotopyGroup_groupiso_pi_functor -->
<g id="node17" class="node">
<title>HomotopyGroup_groupiso_pi_functor</title>
<g id="a_node17"><a xlink:href="HomotopyGroup.html#groupiso_pi_functor" xlink:title="groupiso_pi_functor">
<ellipse fill="#f070d1" stroke="black" cx="240" cy="-811.53" rx="102.88" ry="18"/>
<text text-anchor="middle" x="240" y="-807.83" font-family="Times,serif" font-size="14.00">groupiso_pi_functor</text>
</a>
</g>
</g>
<!-- HomotopyGroup_groupiso_pi_loops&#45;&gt;HomotopyGroup_groupiso_pi_functor -->
<g id="edge20" class="edge">
<title>HomotopyGroup_groupiso_pi_loops&#45;&gt;HomotopyGroup_groupiso_pi_functor</title>
<path fill="none" stroke="black" d="M240,-956.23C240,-924.96 240,-871.95 240,-839.8"/>
<polygon fill="black" stroke="black" points="243.5,-839.76 240,-829.76 236.5,-839.76 243.5,-839.76"/>
</g>
<!-- HomotopyGroup_Pi -->
<g id="node32" class="node">
<title>HomotopyGroup_Pi</title>
<g id="a_node32"><a xlink:href="HomotopyGroup.html#Pi" xlink:title="Pi">
<ellipse fill="#f070d1" stroke="black" cx="1158" cy="-345.53" rx="27" ry="18"/>
<text text-anchor="middle" x="1158" y="-341.83" font-family="Times,serif" font-size="14.00">Pi</text>
</a>
</g>
</g>
<!-- HomotopyGroup_pi_loops&#45;&gt;HomotopyGroup_Pi -->
<g id="edge21" class="edge">
<title>HomotopyGroup_pi_loops&#45;&gt;HomotopyGroup_Pi</title>
<path fill="none" stroke="black" d="M1498.81,-472.29C1427.76,-446.07 1261.64,-384.78 1190.87,-358.66"/>
<polygon fill="black" stroke="black" points="1191.74,-355.25 1181.15,-355.07 1189.32,-361.82 1191.74,-355.25"/>
</g>
<!-- HomotopyGroup_HomotopyGroup_type_ptype -->
<g id="node41" class="node">
<title>HomotopyGroup_HomotopyGroup_type_ptype</title>
<g id="a_node41"><a xlink:href="HomotopyGroup.html#HomotopyGroup_type_ptype" xlink:title="HomotopyGroup_type_ptype">
<ellipse fill="#f070d1" stroke="black" cx="1419" cy="-345.53" rx="142.97" ry="18"/>
<text text-anchor="middle" x="1419" y="-341.83" font-family="Times,serif" font-size="14.00">HomotopyGroup_type_ptype</text>
</a>
</g>
</g>
<!-- HomotopyGroup_pi_loops&#45;&gt;HomotopyGroup_HomotopyGroup_type_ptype -->
<g id="edge22" class="edge">
<title>HomotopyGroup_pi_loops&#45;&gt;HomotopyGroup_HomotopyGroup_type_ptype</title>
<path fill="none" stroke="black" d="M1518.59,-468.16C1499.01,-444.25 1462.43,-399.57 1439.47,-371.53"/>
<polygon fill="black" stroke="black" points="1442.14,-369.27 1433.1,-363.75 1436.72,-373.7 1442.14,-369.27"/>
</g>
<!-- HomotopyGroup_is1functor_pi -->
<g id="node24" class="node">
<title>HomotopyGroup_is1functor_pi</title>
<g id="a_node24"><a xlink:href="HomotopyGroup.html#is1functor_pi" xlink:title="is1functor_pi">
<ellipse fill="#f070d1" stroke="black" cx="424" cy="-640.53" rx="71.49" ry="18"/>
<text text-anchor="middle" x="424" y="-636.83" font-family="Times,serif" font-size="14.00">is1functor_pi</text>
</a>
</g>
</g>
<!-- HomotopyGroup_groupiso_pi_functor&#45;&gt;HomotopyGroup_is1functor_pi -->
<g id="edge23" class="edge">
<title>HomotopyGroup_groupiso_pi_functor&#45;&gt;HomotopyGroup_is1functor_pi</title>
<path fill="none" stroke="black" d="M258.32,-793.71C291.33,-763.39 360.87,-699.52 398.51,-664.95"/>
<polygon fill="black" stroke="black" points="401.03,-667.38 406.03,-658.04 396.3,-662.22 401.03,-667.38"/>
</g>
<!-- HomotopyGroup_hasequivs_homotopygroup_type -->
<g id="node36" class="node">
<title>HomotopyGroup_hasequivs_homotopygroup_type</title>
<g id="a_node36"><a xlink:href="HomotopyGroup.html#hasequivs_homotopygroup_type" xlink:title="hasequivs_homotopygroup_type">
<ellipse fill="#f070d1" stroke="black" cx="175" cy="-640.53" rx="159.47" ry="18"/>
<text text-anchor="middle" x="175" y="-636.83" font-family="Times,serif" font-size="14.00">hasequivs_homotopygroup_type</text>
</a>
</g>
</g>
<!-- HomotopyGroup_groupiso_pi_functor&#45;&gt;HomotopyGroup_hasequivs_homotopygroup_type -->
<g id="edge24" class="edge">
<title>HomotopyGroup_groupiso_pi_functor&#45;&gt;HomotopyGroup_hasequivs_homotopygroup_type</title>
<path fill="none" stroke="black" d="M233.41,-793.4C222.07,-763.92 198.79,-703.39 185.3,-668.3"/>
<polygon fill="black" stroke="black" points="188.46,-666.79 181.61,-658.71 181.93,-669.3 188.46,-666.79"/>
</g>
<!-- HomotopyGroup_fmap_ppi_ptr_iterated_loops -->
<g id="node18" class="node">
<title>HomotopyGroup_fmap_ppi_ptr_iterated_loops</title>
<g id="a_node18"><a xlink:href="HomotopyGroup.html#fmap_ppi_ptr_iterated_loops" xlink:title="fmap_ppi_ptr_iterated_loops">
<ellipse fill="#f070d1" stroke="black" cx="1842" cy="-811.53" rx="141.87" ry="18"/>
<ellipse fill="none" stroke="black" cx="1842" cy="-811.53" rx="145.87" ry="22"/>
<ellipse fill="none" stroke="black" cx="1842" cy="-811.53" rx="149.88" ry="26"/>
<text text-anchor="middle" x="1842" y="-807.83" font-family="Times,serif" font-size="14.00">fmap_ppi_ptr_iterated_loops</text>
</a>
</g>
</g>
<!-- HomotopyGroup_fmap_ppi_ptr_iterated_loops&#45;&gt;HomotopyGroup_pequiv_ppi_ptr_iterated_loops -->
<g id="edge25" class="edge">
<title>HomotopyGroup_fmap_ppi_ptr_iterated_loops&#45;&gt;HomotopyGroup_pequiv_ppi_ptr_iterated_loops</title>
<path fill="none" stroke="black" d="M1898.15,-787.39C1978.81,-754.14 2126.16,-693.4 2202.78,-661.82"/>
<polygon fill="black" stroke="black" points="2204.3,-664.98 2212.22,-657.93 2201.64,-658.51 2204.3,-664.98"/>
</g>
<!-- HomotopyGroup_fmap_ppi_ptr_iterated_loops&#45;&gt;HomotopyGroup_is0functor_ppi -->
<g id="edge26" class="edge">
<title>HomotopyGroup_fmap_ppi_ptr_iterated_loops&#45;&gt;HomotopyGroup_is0functor_ppi</title>
<path fill="none" stroke="black" d="M1784.07,-787.39C1699.45,-753.58 1543.65,-691.34 1465.82,-660.24"/>
<polygon fill="black" stroke="black" points="1466.86,-656.88 1456.27,-656.42 1464.26,-663.39 1466.86,-656.88"/>
</g>
<!-- HomotopyGroup_pPi -->
<g id="node23" class="node">
<title>HomotopyGroup_pPi</title>
<g id="a_node23"><a xlink:href="HomotopyGroup.html#pPi" xlink:title="pPi">
<ellipse fill="#f070d1" stroke="black" cx="1419" cy="-485.53" rx="27" ry="18"/>
<text text-anchor="middle" x="1419" y="-481.83" font-family="Times,serif" font-size="14.00">pPi</text>
</a>
</g>
</g>
<!-- HomotopyGroup_pequiv_ppi_ptr_iterated_loops&#45;&gt;HomotopyGroup_pPi -->
<g id="edge27" class="edge">
<title>HomotopyGroup_pequiv_ppi_ptr_iterated_loops&#45;&gt;HomotopyGroup_pPi</title>
<path fill="none" stroke="black" d="M2165.58,-625.81C1974.39,-595.29 1527.14,-522.95 1460,-503.53 1456.82,-502.61 1453.55,-501.52 1450.31,-500.34"/>
<polygon fill="black" stroke="black" points="1451.39,-497.01 1440.81,-496.63 1448.85,-503.53 1451.39,-497.01"/>
</g>
<!-- HomotopyGroup_ppi_ptr_iterated_loops -->
<g id="node20" class="node">
<title>HomotopyGroup_ppi_ptr_iterated_loops</title>
<g id="a_node20"><a xlink:href="HomotopyGroup.html#ppi_ptr_iterated_loops" xlink:title="ppi_ptr_iterated_loops">
<ellipse fill="#f070d1" stroke="black" cx="1637" cy="-640.53" rx="114.29" ry="18"/>
<ellipse fill="none" stroke="black" cx="1637" cy="-640.53" rx="118.28" ry="22"/>
<ellipse fill="none" stroke="black" cx="1637" cy="-640.53" rx="122.28" ry="26"/>
<text text-anchor="middle" x="1637" y="-636.83" font-family="Times,serif" font-size="14.00">ppi_ptr_iterated_loops</text>
</a>
</g>
</g>
<!-- HomotopyGroup_ppi_ptr_iterated_loops&#45;&gt;HomotopyGroup_pPi -->
<g id="edge28" class="edge">
<title>HomotopyGroup_ppi_ptr_iterated_loops&#45;&gt;HomotopyGroup_pPi</title>
<path fill="none" stroke="black" d="M1602.46,-615.29C1558.81,-584.66 1484.67,-532.62 1445.33,-505.01"/>
<polygon fill="black" stroke="black" points="1447.23,-502.07 1437.03,-499.19 1443.21,-507.8 1447.23,-502.07"/>
</g>
<!-- HomotopyGroup_is1functor_ppi&#45;&gt;HomotopyGroup_is0functor_ppi -->
<g id="edge29" class="edge">
<title>HomotopyGroup_is1functor_ppi&#45;&gt;HomotopyGroup_is0functor_ppi</title>
<path fill="none" stroke="black" d="M1246.66,-794.02C1280.75,-763.86 1353.19,-699.76 1392.42,-665.05"/>
<polygon fill="black" stroke="black" points="1395.09,-667.36 1400.26,-658.11 1390.45,-662.12 1395.09,-667.36"/>
</g>
<!-- HomotopyGroup_is1functor_ppi&#45;&gt;HomotopyGroup_is1functor_pi -->
<g id="edge30" class="edge">
<title>HomotopyGroup_is1functor_ppi&#45;&gt;HomotopyGroup_is1functor_pi</title>
<path fill="none" stroke="black" d="M1166.59,-800.5C1041.3,-779.54 747.56,-727.95 505,-666.53 495.37,-664.09 485.19,-661.2 475.41,-658.27"/>
<polygon fill="black" stroke="black" points="476.39,-654.91 465.81,-655.33 474.35,-661.6 476.39,-654.91"/>
</g>
<!-- HomotopyGroup_is1functor_homotopygroup_type_ptype -->
<g id="node34" class="node">
<title>HomotopyGroup_is1functor_homotopygroup_type_ptype</title>
<g id="a_node34"><a xlink:href="HomotopyGroup.html#is1functor_homotopygroup_type_ptype" xlink:title="is1functor_homotopygroup_type_ptype">
<ellipse fill="#f070d1" stroke="black" cx="1133" cy="-640.53" rx="191.17" ry="18"/>
<text text-anchor="middle" x="1133" y="-636.83" font-family="Times,serif" font-size="14.00">is1functor_homotopygroup_type_ptype</text>
</a>
</g>
</g>
<!-- HomotopyGroup_is1functor_ppi&#45;&gt;HomotopyGroup_is1functor_homotopygroup_type_ptype -->
<g id="edge31" class="edge">
<title>HomotopyGroup_is1functor_ppi&#45;&gt;HomotopyGroup_is1functor_homotopygroup_type_ptype</title>
<path fill="none" stroke="black" d="M1218.37,-793.4C1201.72,-763.79 1167.48,-702.87 1147.8,-667.85"/>
<polygon fill="black" stroke="black" points="1150.61,-665.71 1142.66,-658.71 1144.51,-669.14 1150.61,-665.71"/>
</g>
<!-- HomotopyGroup_is0functor_ppi&#45;&gt;HomotopyGroup_pPi -->
<g id="edge32" class="edge">
<title>HomotopyGroup_is0functor_ppi&#45;&gt;HomotopyGroup_pPi</title>
<path fill="none" stroke="black" d="M1419,-622.28C1419,-595.99 1419,-545.66 1419,-514.22"/>
<polygon fill="black" stroke="black" points="1422.5,-513.96 1419,-503.96 1415.5,-513.96 1422.5,-513.96"/>
</g>
<!-- HomotopyGroup_is0functor_pi -->
<g id="node27" class="node">
<title>HomotopyGroup_is0functor_pi</title>
<g id="a_node27"><a xlink:href="HomotopyGroup.html#is0functor_pi" xlink:title="is0functor_pi">
<ellipse fill="#f070d1" stroke="black" cx="649" cy="-485.53" rx="71.49" ry="18"/>
<text text-anchor="middle" x="649" y="-481.83" font-family="Times,serif" font-size="14.00">is0functor_pi</text>
</a>
</g>
</g>
<!-- HomotopyGroup_is0functor_ppi&#45;&gt;HomotopyGroup_is0functor_pi -->
<g id="edge33" class="edge">
<title>HomotopyGroup_is0functor_ppi&#45;&gt;HomotopyGroup_is0functor_pi</title>
<path fill="none" stroke="black" d="M1374.59,-625.72C1361.28,-621.83 1346.61,-617.78 1333,-614.53 1110.39,-561.48 842.72,-516.86 718.55,-497.24"/>
<polygon fill="black" stroke="black" points="718.85,-493.74 708.42,-495.64 717.76,-500.65 718.85,-493.74"/>
</g>
<!-- HomotopyGroup_is0functor_homotopygroup_type_ptype -->
<g id="node35" class="node">
<title>HomotopyGroup_is0functor_homotopygroup_type_ptype</title>
<g id="a_node35"><a xlink:href="HomotopyGroup.html#is0functor_homotopygroup_type_ptype" xlink:title="is0functor_homotopygroup_type_ptype">
<ellipse fill="#f070d1" stroke="black" cx="1158" cy="-485.53" rx="191.17" ry="18"/>
<text text-anchor="middle" x="1158" y="-481.83" font-family="Times,serif" font-size="14.00">is0functor_homotopygroup_type_ptype</text>
</a>
</g>
</g>
<!-- HomotopyGroup_is0functor_ppi&#45;&gt;HomotopyGroup_is0functor_homotopygroup_type_ptype -->
<g id="edge34" class="edge">
<title>HomotopyGroup_is0functor_ppi&#45;&gt;HomotopyGroup_is0functor_homotopygroup_type_ptype</title>
<path fill="none" stroke="black" d="M1391.56,-623.45C1344.67,-595.96 1249.04,-539.9 1195.84,-508.72"/>
<polygon fill="black" stroke="black" points="1197.45,-505.6 1187.05,-503.56 1193.91,-511.64 1197.45,-505.6"/>
</g>
<!-- HomotopyGroup_pPi&#45;&gt;HomotopyGroup_Pi -->
<g id="edge35" class="edge">
<title>HomotopyGroup_pPi&#45;&gt;HomotopyGroup_Pi</title>
<path fill="none" stroke="black" d="M1398.52,-473.7C1352.61,-449.43 1241.29,-390.57 1187.74,-362.26"/>
<polygon fill="black" stroke="black" points="1189.22,-359.08 1178.75,-357.5 1185.95,-365.27 1189.22,-359.08"/>
</g>
<!-- HomotopyGroup_pPi&#45;&gt;HomotopyGroup_HomotopyGroup_type_ptype -->
<g id="edge36" class="edge">
<title>HomotopyGroup_pPi&#45;&gt;HomotopyGroup_HomotopyGroup_type_ptype</title>
<path fill="none" stroke="black" d="M1419,-467.33C1419,-443.99 1419,-402 1419,-374.19"/>
<polygon fill="black" stroke="black" points="1422.5,-373.95 1419,-363.95 1415.5,-373.95 1422.5,-373.95"/>
</g>
<!-- HomotopyGroup_is1functor_pi1 -->
<g id="node25" class="node">
<title>HomotopyGroup_is1functor_pi1</title>
<g id="a_node25"><a xlink:href="HomotopyGroup.html#is1functor_pi1" xlink:title="is1functor_pi1">
<ellipse fill="#f070d1" stroke="black" cx="482" cy="-485.53" rx="77.19" ry="18"/>
<text text-anchor="middle" x="482" y="-481.83" font-family="Times,serif" font-size="14.00">is1functor_pi1</text>
</a>
</g>
</g>
<!-- HomotopyGroup_is1functor_pi&#45;&gt;HomotopyGroup_is1functor_pi1 -->
<g id="edge37" class="edge">
<title>HomotopyGroup_is1functor_pi&#45;&gt;HomotopyGroup_is1functor_pi1</title>
<path fill="none" stroke="black" d="M430.43,-622.57C440.49,-596.04 460.03,-544.48 471.96,-513.02"/>
<polygon fill="black" stroke="black" points="475.27,-514.16 475.54,-503.57 468.73,-511.68 475.27,-514.16"/>
</g>
<!-- HomotopyGroup_is1functor_pi&#45;&gt;HomotopyGroup_is0functor_pi -->
<g id="edge38" class="edge">
<title>HomotopyGroup_is1functor_pi&#45;&gt;HomotopyGroup_is0functor_pi</title>
<path fill="none" stroke="black" d="M447.65,-623.45C488.25,-595.84 571.23,-539.42 616.97,-508.32"/>
<polygon fill="black" stroke="black" points="619.02,-511.15 625.33,-502.63 615.09,-505.36 619.02,-511.15"/>
</g>
<!-- HomotopyGroup_is1cat_homotopygroup_type -->
<g id="node37" class="node">
<title>HomotopyGroup_is1cat_homotopygroup_type</title>
<g id="a_node37"><a xlink:href="HomotopyGroup.html#is1cat_homotopygroup_type" xlink:title="is1cat_homotopygroup_type">
<ellipse fill="#f070d1" stroke="black" cx="246" cy="-485.53" rx="141.07" ry="18"/>
<text text-anchor="middle" x="246" y="-481.83" font-family="Times,serif" font-size="14.00">is1cat_homotopygroup_type</text>
</a>
</g>
</g>
<!-- HomotopyGroup_is1functor_pi&#45;&gt;HomotopyGroup_is1cat_homotopygroup_type -->
<g id="edge39" class="edge">
<title>HomotopyGroup_is1functor_pi&#45;&gt;HomotopyGroup_is1cat_homotopygroup_type</title>
<path fill="none" stroke="black" d="M404.95,-623.16C373.35,-596 309.96,-541.51 273.51,-510.18"/>
<polygon fill="black" stroke="black" points="275.59,-507.35 265.72,-503.49 271.03,-512.66 275.59,-507.35"/>
</g>
<!-- HomotopyGroup_is0functor_pi1 -->
<g id="node28" class="node">
<title>HomotopyGroup_is0functor_pi1</title>
<g id="a_node28"><a xlink:href="HomotopyGroup.html#is0functor_pi1" xlink:title="is0functor_pi1">
<ellipse fill="#f070d1" stroke="black" cx="816" cy="-345.53" rx="77.19" ry="18"/>
<text text-anchor="middle" x="816" y="-341.83" font-family="Times,serif" font-size="14.00">is0functor_pi1</text>
</a>
</g>
</g>
<!-- HomotopyGroup_is1functor_pi1&#45;&gt;HomotopyGroup_is0functor_pi1 -->
<g id="edge40" class="edge">
<title>HomotopyGroup_is1functor_pi1&#45;&gt;HomotopyGroup_is0functor_pi1</title>
<path fill="none" stroke="black" d="M518.38,-469.5C579.62,-444.2 703.15,-393.16 770.2,-365.46"/>
<polygon fill="black" stroke="black" points="771.76,-368.6 779.67,-361.55 769.09,-362.13 771.76,-368.6"/>
</g>
<!-- HomotopyGroup_fmap_pi_succ -->
<g id="node26" class="node">
<title>HomotopyGroup_fmap_pi_succ</title>
<g id="a_node26"><a xlink:href="HomotopyGroup.html#fmap_pi_succ" xlink:title="fmap_pi_succ">
<ellipse fill="#f070d1" stroke="black" cx="594" cy="-640.53" rx="72.27" ry="18"/>
<ellipse fill="none" stroke="black" cx="594" cy="-640.53" rx="76.28" ry="22"/>
<ellipse fill="none" stroke="black" cx="594" cy="-640.53" rx="80.29" ry="26"/>
<text text-anchor="middle" x="594" y="-636.83" font-family="Times,serif" font-size="14.00">fmap_pi_succ</text>
</a>
</g>
</g>
<!-- HomotopyGroup_fmap_pi_succ&#45;&gt;HomotopyGroup_is0functor_pi -->
<g id="edge41" class="edge">
<title>HomotopyGroup_fmap_pi_succ&#45;&gt;HomotopyGroup_is0functor_pi</title>
<path fill="none" stroke="black" d="M602.96,-614.61C612.94,-586.86 629.01,-542.15 639.28,-513.57"/>
<polygon fill="black" stroke="black" points="642.69,-514.43 642.78,-503.83 636.1,-512.06 642.69,-514.43"/>
</g>
<!-- HomotopyGroup_is0functor_pi&#45;&gt;HomotopyGroup_is0functor_pi1 -->
<g id="edge42" class="edge">
<title>HomotopyGroup_is0functor_pi&#45;&gt;HomotopyGroup_is0functor_pi1</title>
<path fill="none" stroke="black" d="M668.81,-468.16C698.36,-443.74 754.11,-397.67 787.87,-369.78"/>
<polygon fill="black" stroke="black" points="790.47,-372.17 795.95,-363.1 786.01,-366.77 790.47,-372.17"/>
</g>
<!-- HomotopyGroup_is0functor_pi&#45;&gt;HomotopyGroup_Pi -->
<g id="edge43" class="edge">
<title>HomotopyGroup_is0functor_pi&#45;&gt;HomotopyGroup_Pi</title>
<path fill="none" stroke="black" d="M695.97,-471.8C797.3,-444.33 1034.41,-380.04 1123.42,-355.91"/>
<polygon fill="black" stroke="black" points="1124.54,-359.23 1133.28,-353.24 1122.71,-352.47 1124.54,-359.23"/>
</g>
<!-- HomotopyGroup_isgraph_homotopygroup_type -->
<g id="node40" class="node">
<title>HomotopyGroup_isgraph_homotopygroup_type</title>
<g id="a_node40"><a xlink:href="HomotopyGroup.html#isgraph_homotopygroup_type" xlink:title="isgraph_homotopygroup_type">
<ellipse fill="#f070d1" stroke="black" cx="720" cy="-205.53" rx="148.37" ry="18"/>
<text text-anchor="middle" x="720" y="-201.83" font-family="Times,serif" font-size="14.00">isgraph_homotopygroup_type</text>
</a>
</g>
</g>
<!-- HomotopyGroup_is0functor_pi&#45;&gt;HomotopyGroup_isgraph_homotopygroup_type -->
<g id="edge44" class="edge">
<title>HomotopyGroup_is0functor_pi&#45;&gt;HomotopyGroup_isgraph_homotopygroup_type</title>
<path fill="none" stroke="black" d="M660.46,-467.4C674.94,-444.74 699.27,-403.03 710,-363.53 721.98,-319.44 722.57,-265.94 721.55,-234.15"/>
<polygon fill="black" stroke="black" points="725.03,-233.71 721.13,-223.86 718.04,-233.99 725.03,-233.71"/>
</g>
<!-- HomotopyGroup_Pi1 -->
<g id="node33" class="node">
<title>HomotopyGroup_Pi1</title>
<g id="a_node33"><a xlink:href="HomotopyGroup.html#Pi1" xlink:title="Pi1">
<ellipse fill="#f070d1" stroke="black" cx="1046" cy="-205.53" rx="27" ry="18"/>
<text text-anchor="middle" x="1046" y="-201.83" font-family="Times,serif" font-size="14.00">Pi1</text>
</a>
</g>
</g>
<!-- HomotopyGroup_is0functor_pi1&#45;&gt;HomotopyGroup_Pi1 -->
<g id="edge45" class="edge">
<title>HomotopyGroup_is0functor_pi1&#45;&gt;HomotopyGroup_Pi1</title>
<path fill="none" stroke="black" d="M842.83,-328.43C886.74,-302.09 973.48,-250.05 1018.08,-223.29"/>
<polygon fill="black" stroke="black" points="1019.89,-226.28 1026.67,-218.13 1016.29,-220.28 1019.89,-226.28"/>
</g>
<!-- HomotopyGroup_commutative_pi -->
<g id="node29" class="node">
<title>HomotopyGroup_commutative_pi</title>
<g id="a_node29"><a xlink:href="HomotopyGroup.html#commutative_pi" xlink:title="commutative_pi">
<ellipse fill="#f070d1" stroke="black" cx="2451" cy="-811.53" rx="84.49" ry="18"/>
<ellipse fill="none" stroke="black" cx="2451" cy="-811.53" rx="88.49" ry="22"/>
<ellipse fill="none" stroke="black" cx="2451" cy="-811.53" rx="92.49" ry="26"/>
<text text-anchor="middle" x="2451" y="-807.83" font-family="Times,serif" font-size="14.00">commutative_pi</text>
</a>
</g>
</g>
<!-- HomotopyGroup_commutative_pi&#45;&gt;HomotopyGroup_ishset_pi -->
<g id="edge46" class="edge">
<title>HomotopyGroup_commutative_pi&#45;&gt;HomotopyGroup_ishset_pi</title>
<path fill="none" stroke="black" d="M2456.99,-785.23C2464.39,-753.96 2476.94,-700.95 2484.55,-668.8"/>
<polygon fill="black" stroke="black" points="2488.03,-669.29 2486.92,-658.76 2481.21,-667.68 2488.03,-669.29"/>
</g>
<!-- HomotopyGroup_ishset_pi&#45;&gt;HomotopyGroup_Pi -->
<g id="edge47" class="edge">
<title>HomotopyGroup_ishset_pi&#45;&gt;HomotopyGroup_Pi</title>
<path fill="none" stroke="black" d="M2455.88,-627.17C2441.77,-622.61 2425.26,-617.77 2410,-614.53 2205.31,-571.17 1648.75,-620.11 1475,-503.53 1459.8,-493.34 1468.7,-479.67 1455,-467.53 1377.02,-398.4 1254.3,-365.68 1193.95,-353.08"/>
<polygon fill="black" stroke="black" points="1194.62,-349.64 1184.12,-351.09 1193.23,-356.5 1194.62,-349.64"/>
</g>
<!-- HomotopyGroup_ishset_pi&#45;&gt;HomotopyGroup_HomotopyGroup_type_ptype -->
<g id="edge48" class="edge">
<title>HomotopyGroup_ishset_pi&#45;&gt;HomotopyGroup_HomotopyGroup_type_ptype</title>
<path fill="none" stroke="black" d="M2457.51,-626.74C2446.29,-622.63 2433.67,-618.2 2422,-614.53 2078.44,-506.62 1660.22,-403.91 1493.13,-364.01"/>
<polygon fill="black" stroke="black" points="1493.75,-360.56 1483.21,-361.64 1492.13,-367.37 1493.75,-360.56"/>
</g>
<!-- HomotopyGroup_pi_succ -->
<g id="node31" class="node">
<title>HomotopyGroup_pi_succ</title>
<g id="a_node31"><a xlink:href="HomotopyGroup.html#pi_succ" xlink:title="pi_succ">
<ellipse fill="#f070d1" stroke="black" cx="594" cy="-811.53" rx="44.36" ry="18"/>
<ellipse fill="none" stroke="black" cx="594" cy="-811.53" rx="48.38" ry="22"/>
<ellipse fill="none" stroke="black" cx="594" cy="-811.53" rx="52.39" ry="26"/>
<text text-anchor="middle" x="594" y="-807.83" font-family="Times,serif" font-size="14.00">pi_succ</text>
</a>
</g>
</g>
<!-- HomotopyGroup_pi_succ&#45;&gt;HomotopyGroup_Pi -->
<g id="edge49" class="edge">
<title>HomotopyGroup_pi_succ&#45;&gt;HomotopyGroup_Pi</title>
<path fill="none" stroke="black" d="M610.54,-786.86C629.59,-758.96 661.06,-710.77 683,-666.53 694,-644.35 686.99,-633.43 703,-614.53 824.03,-471.67 1041.53,-386.18 1124.55,-357.45"/>
<polygon fill="black" stroke="black" points="1125.89,-360.69 1134.22,-354.15 1123.63,-354.07 1125.89,-360.69"/>
</g>
<!-- HomotopyGroup_pi_succ&#45;&gt;HomotopyGroup_hasequivs_homotopygroup_type -->
<g id="edge50" class="edge">
<title>HomotopyGroup_pi_succ&#45;&gt;HomotopyGroup_hasequivs_homotopygroup_type</title>
<path fill="none" stroke="black" d="M554.2,-794.48C477.49,-763.54 309.32,-695.71 225.11,-661.74"/>
<polygon fill="black" stroke="black" points="226.34,-658.47 215.76,-657.97 223.73,-664.96 226.34,-658.47"/>
</g>
<!-- HomotopyGroup_Pi&#45;&gt;HomotopyGroup_Pi1 -->
<g id="edge51" class="edge">
<title>HomotopyGroup_Pi&#45;&gt;HomotopyGroup_Pi1</title>
<path fill="none" stroke="black" d="M1145.59,-329.24C1125.99,-305.09 1087.77,-257.99 1064.79,-229.69"/>
<polygon fill="black" stroke="black" points="1067.49,-227.46 1058.47,-221.9 1062.05,-231.87 1067.49,-227.46"/>
</g>
<!-- HomotopyGroup_HomotopyGroup_type -->
<g id="node42" class="node">
<title>HomotopyGroup_HomotopyGroup_type</title>
<g id="a_node42"><a xlink:href="HomotopyGroup.html#HomotopyGroup_type" xlink:title="HomotopyGroup_type">
<ellipse fill="#f070d1" stroke="black" cx="1158" cy="-65.53" rx="112.38" ry="18"/>
<text text-anchor="middle" x="1158" y="-61.83" font-family="Times,serif" font-size="14.00">HomotopyGroup_type</text>
</a>
</g>
</g>
<!-- HomotopyGroup_Pi&#45;&gt;HomotopyGroup_HomotopyGroup_type -->
<g id="edge52" class="edge">
<title>HomotopyGroup_Pi&#45;&gt;HomotopyGroup_HomotopyGroup_type</title>
<path fill="none" stroke="black" d="M1158,-327.14C1158,-280.13 1158,-150.24 1158,-93.56"/>
<polygon fill="black" stroke="black" points="1161.5,-93.56 1158,-83.56 1154.5,-93.56 1161.5,-93.56"/>
</g>
<!-- HomotopyGroup_is1functor_homotopygroup_type_ptype&#45;&gt;HomotopyGroup_is0functor_homotopygroup_type_ptype -->
<g id="edge53" class="edge">
<title>HomotopyGroup_is1functor_homotopygroup_type_ptype&#45;&gt;HomotopyGroup_is0functor_homotopygroup_type_ptype</title>
<path fill="none" stroke="black" d="M1135.82,-622.28C1140.11,-595.99 1148.34,-545.66 1153.48,-514.22"/>
<polygon fill="black" stroke="black" points="1156.99,-514.39 1155.15,-503.96 1150.09,-513.26 1156.99,-514.39"/>
</g>
<!-- HomotopyGroup_is1functor_homotopygroup_type_ptype&#45;&gt;HomotopyGroup_is1cat_homotopygroup_type -->
<g id="edge54" class="edge">
<title>HomotopyGroup_is1functor_homotopygroup_type_ptype&#45;&gt;HomotopyGroup_is1cat_homotopygroup_type</title>
<path fill="none" stroke="black" d="M1045.52,-624.44C876.68,-595.32 507.48,-531.64 336.37,-502.12"/>
<polygon fill="black" stroke="black" points="336.84,-498.65 326.39,-500.4 335.65,-505.55 336.84,-498.65"/>
</g>
<!-- HomotopyGroup_is0functor_homotopygroup_type_ptype&#45;&gt;HomotopyGroup_isgraph_homotopygroup_type -->
<g id="edge55" class="edge">
<title>HomotopyGroup_is0functor_homotopygroup_type_ptype&#45;&gt;HomotopyGroup_isgraph_homotopygroup_type</title>
<path fill="none" stroke="black" d="M1131.26,-467.56C1055.56,-419.51 839.77,-282.55 754.9,-228.68"/>
<polygon fill="black" stroke="black" points="756.71,-225.69 746.39,-223.28 752.96,-231.6 756.71,-225.69"/>
</g>
<!-- HomotopyGroup_is0functor_homotopygroup_type_ptype&#45;&gt;HomotopyGroup_HomotopyGroup_type_ptype -->
<g id="edge56" class="edge">
<title>HomotopyGroup_is0functor_homotopygroup_type_ptype&#45;&gt;HomotopyGroup_HomotopyGroup_type_ptype</title>
<path fill="none" stroke="black" d="M1189.74,-467.75C1237.16,-442.68 1326.47,-395.45 1378.52,-367.93"/>
<polygon fill="black" stroke="black" points="1380.27,-370.97 1387.48,-363.2 1377,-364.78 1380.27,-370.97"/>
</g>
<!-- HomotopyGroup_hasequivs_homotopygroup_type&#45;&gt;HomotopyGroup_is1cat_homotopygroup_type -->
<g id="edge57" class="edge">
<title>HomotopyGroup_hasequivs_homotopygroup_type&#45;&gt;HomotopyGroup_is1cat_homotopygroup_type</title>
<path fill="none" stroke="black" d="M183.01,-622.28C195.31,-595.76 218.97,-544.78 233.53,-513.4"/>
<polygon fill="black" stroke="black" points="236.88,-514.5 237.91,-503.96 230.53,-511.56 236.88,-514.5"/>
</g>
<!-- HomotopyGroup_is01cat_homotopygroup_type -->
<g id="node38" class="node">
<title>HomotopyGroup_is01cat_homotopygroup_type</title>
<g id="a_node38"><a xlink:href="HomotopyGroup.html#is01cat_homotopygroup_type" xlink:title="is01cat_homotopygroup_type">
<ellipse fill="#f070d1" stroke="black" cx="228" cy="-345.53" rx="146.77" ry="18"/>
<text text-anchor="middle" x="228" y="-341.83" font-family="Times,serif" font-size="14.00">is01cat_homotopygroup_type</text>
</a>
</g>
</g>
<!-- HomotopyGroup_is1cat_homotopygroup_type&#45;&gt;HomotopyGroup_is01cat_homotopygroup_type -->
<g id="edge58" class="edge">
<title>HomotopyGroup_is1cat_homotopygroup_type&#45;&gt;HomotopyGroup_is01cat_homotopygroup_type</title>
<path fill="none" stroke="black" d="M243.76,-467.33C240.71,-443.99 235.23,-402 231.61,-374.19"/>
<polygon fill="black" stroke="black" points="235.04,-373.41 230.27,-363.95 228.09,-374.32 235.04,-373.41"/>
</g>
<!-- HomotopyGroup_is2graph_homotopygroup_type -->
<g id="node39" class="node">
<title>HomotopyGroup_is2graph_homotopygroup_type</title>
<g id="a_node39"><a xlink:href="HomotopyGroup.html#is2graph_homotopygroup_type" xlink:title="is2graph_homotopygroup_type">
<ellipse fill="#f070d1" stroke="black" cx="547" cy="-345.53" rx="154.07" ry="18"/>
<text text-anchor="middle" x="547" y="-341.83" font-family="Times,serif" font-size="14.00">is2graph_homotopygroup_type</text>
</a>
</g>
</g>
<!-- HomotopyGroup_is1cat_homotopygroup_type&#45;&gt;HomotopyGroup_is2graph_homotopygroup_type -->
<g id="edge59" class="edge">
<title>HomotopyGroup_is1cat_homotopygroup_type&#45;&gt;HomotopyGroup_is2graph_homotopygroup_type</title>
<path fill="none" stroke="black" d="M282.01,-468.02C336.96,-442.83 441.68,-394.82 501.71,-367.3"/>
<polygon fill="black" stroke="black" points="503.32,-370.41 510.95,-363.06 500.4,-364.05 503.32,-370.41"/>
</g>
<!-- HomotopyGroup_is01cat_homotopygroup_type&#45;&gt;HomotopyGroup_isgraph_homotopygroup_type -->
<g id="edge60" class="edge">
<title>HomotopyGroup_is01cat_homotopygroup_type&#45;&gt;HomotopyGroup_isgraph_homotopygroup_type</title>
<path fill="none" stroke="black" d="M283.96,-328.84C375.52,-303.16 556.87,-252.29 654.35,-224.95"/>
<polygon fill="black" stroke="black" points="655.41,-228.28 664.09,-222.21 653.52,-221.54 655.41,-228.28"/>
</g>
<!-- HomotopyGroup_is2graph_homotopygroup_type&#45;&gt;HomotopyGroup_isgraph_homotopygroup_type -->
<g id="edge61" class="edge">
<title>HomotopyGroup_is2graph_homotopygroup_type&#45;&gt;HomotopyGroup_isgraph_homotopygroup_type</title>
<path fill="none" stroke="black" d="M568.21,-327.61C599.04,-303.02 656.3,-257.35 691,-229.67"/>
<polygon fill="black" stroke="black" points="693.25,-232.35 698.88,-223.38 688.88,-226.88 693.25,-232.35"/>
</g>
<!-- HomotopyGroup_isgraph_homotopygroup_type&#45;&gt;HomotopyGroup_HomotopyGroup_type -->
<g id="edge62" class="edge">
<title>HomotopyGroup_isgraph_homotopygroup_type&#45;&gt;HomotopyGroup_HomotopyGroup_type</title>
<path fill="none" stroke="black" d="M770.67,-188.57C852.53,-162.78 1013.38,-112.1 1099.8,-84.87"/>
<polygon fill="black" stroke="black" points="1100.97,-88.17 1109.45,-81.83 1098.87,-81.49 1100.97,-88.17"/>
</g>
<!-- HomotopyGroup_HomotopyGroup_type_ptype&#45;&gt;HomotopyGroup_HomotopyGroup_type -->
<g id="edge63" class="edge">
<title>HomotopyGroup_HomotopyGroup_type_ptype&#45;&gt;HomotopyGroup_HomotopyGroup_type</title>
<path fill="none" stroke="black" d="M1403.07,-327.56C1358.66,-280.26 1233.33,-146.77 1181.2,-91.24"/>
<polygon fill="black" stroke="black" points="1183.45,-88.53 1174.06,-83.64 1178.35,-93.32 1183.45,-88.53"/>
</g>
</g>
</svg>
