<?xml version="1.0" encoding="UTF-8" standalone="no"?>
<!DOCTYPE svg PUBLIC "-//W3C//DTD SVG 1.1//EN"
 "http://www.w3.org/Graphics/SVG/1.1/DTD/svg11.dtd">
<!-- Generated by graphviz version 2.43.0 (0)
 -->
<!-- Title: HoTT_WildCat_Sum Pages: 1 -->
<svg width="510pt" height="259pt"
 viewBox="0.00 0.00 510.00 259.00" xmlns="http://www.w3.org/2000/svg" xmlns:xlink="http://www.w3.org/1999/xlink">
<g id="graph0" class="graph" transform="scale(1 1) rotate(0) translate(4 255)">
<title>HoTT_WildCat_Sum</title>
<polygon fill="white" stroke="transparent" points="-4,4 -4,-255 506,-255 506,4 -4,4"/>
<g id="clust1" class="cluster">
<title>cluster_Sum</title>
<polygon fill="#ffffc3" stroke="black" points="11.92,-8 11.92,-243 490.08,-243 490.08,-8 11.92,-8"/>
<text text-anchor="middle" x="36.42" y="-227.8" font-family="Times,serif" font-size="14.00">Sum</text>
</g>
<!-- Sum_is1cat_sum -->
<g id="node1" class="node">
<title>Sum_is1cat_sum</title>
<g id="a_node1"><a xlink:href="Sum.html#is1cat_sum" xlink:title="is1cat_sum">
<ellipse fill="#f070d1" stroke="black" cx="254.62" cy="-186" rx="62.3" ry="18"/>
<ellipse fill="none" stroke="black" cx="254.62" cy="-186" rx="66.3" ry="22"/>
<ellipse fill="none" stroke="black" cx="254.62" cy="-186" rx="70.29" ry="26"/>
<text text-anchor="middle" x="254.62" y="-182.3" font-family="Times,serif" font-size="14.00">is1cat_sum</text>
</a>
</g>
</g>
<!-- Sum_is2graph_sum -->
<g id="node2" class="node">
<title>Sum_is2graph_sum</title>
<g id="a_node2"><a xlink:href="Sum.html#is2graph_sum" xlink:title="is2graph_sum">
<ellipse fill="#f070d1" stroke="black" cx="135.62" cy="-106" rx="75.29" ry="18"/>
<text text-anchor="middle" x="135.62" y="-102.3" font-family="Times,serif" font-size="14.00">is2graph_sum</text>
</a>
</g>
</g>
<!-- Sum_is1cat_sum&#45;&gt;Sum_is2graph_sum -->
<g id="edge1" class="edge">
<title>Sum_is1cat_sum&#45;&gt;Sum_is2graph_sum</title>
<path fill="none" stroke="black" d="M221.15,-163.07C204.8,-152.34 185.17,-139.48 168.84,-128.78"/>
<polygon fill="black" stroke="black" points="170.44,-125.64 160.16,-123.08 166.6,-131.49 170.44,-125.64"/>
</g>
<!-- Sum_is01cat_sum -->
<g id="node3" class="node">
<title>Sum_is01cat_sum</title>
<g id="a_node3"><a xlink:href="Sum.html#is01cat_sum" xlink:title="is01cat_sum">
<ellipse fill="#f070d1" stroke="black" cx="376.62" cy="-106" rx="68.49" ry="18"/>
<text text-anchor="middle" x="376.62" y="-102.3" font-family="Times,serif" font-size="14.00">is01cat_sum</text>
</a>
</g>
</g>
<!-- Sum_is1cat_sum&#45;&gt;Sum_is01cat_sum -->
<g id="edge2" class="edge">
<title>Sum_is1cat_sum&#45;&gt;Sum_is01cat_sum</title>
<path fill="none" stroke="black" d="M288.93,-163.07C305.97,-152.17 326.48,-139.06 343.37,-128.25"/>
<polygon fill="black" stroke="black" points="345.3,-131.17 351.84,-122.84 341.53,-125.28 345.3,-131.17"/>
</g>
<!-- Sum_isgraph_sum -->
<g id="node4" class="node">
<title>Sum_isgraph_sum</title>
<g id="a_node4"><a xlink:href="Sum.html#isgraph_sum" xlink:title="isgraph_sum">
<ellipse fill="#f070d1" stroke="black" cx="254.62" cy="-34" rx="69.59" ry="18"/>
<text text-anchor="middle" x="254.62" y="-30.3" font-family="Times,serif" font-size="14.00">isgraph_sum</text>
</a>
</g>
</g>
<!-- Sum_is2graph_sum&#45;&gt;Sum_isgraph_sum -->
<g id="edge3" class="edge">
<title>Sum_is2graph_sum&#45;&gt;Sum_isgraph_sum</title>
<path fill="none" stroke="black" d="M162.62,-89.12C179.2,-79.36 200.65,-66.75 218.66,-56.15"/>
<polygon fill="black" stroke="black" points="220.88,-58.91 227.72,-50.82 217.33,-52.87 220.88,-58.91"/>
</g>
<!-- Sum_is01cat_sum&#45;&gt;Sum_isgraph_sum -->
<g id="edge4" class="edge">
<title>Sum_is01cat_sum&#45;&gt;Sum_isgraph_sum</title>
<path fill="none" stroke="black" d="M349.54,-89.46C332.29,-79.57 309.72,-66.62 290.93,-55.83"/>
<polygon fill="black" stroke="black" points="292.45,-52.67 282.04,-50.73 288.97,-58.75 292.45,-52.67"/>
</g>
</g>
</svg>
