<?xml version="1.0" encoding="UTF-8" standalone="no"?>
<!DOCTYPE svg PUBLIC "-//W3C//DTD SVG 1.1//EN"
 "http://www.w3.org/Graphics/SVG/1.1/DTD/svg11.dtd">
<!-- Generated by graphviz version 2.43.0 (0)
 -->
<!-- Title: HoTT_Algebra_Universal_Homomorphism Pages: 1 -->
<svg width="2066pt" height="1037pt"
 viewBox="0.00 0.00 2066.00 1037.00" xmlns="http://www.w3.org/2000/svg" xmlns:xlink="http://www.w3.org/1999/xlink">
<g id="graph0" class="graph" transform="scale(1 1) rotate(0) translate(4 1033)">
<title>HoTT_Algebra_Universal_Homomorphism</title>
<polygon fill="white" stroke="transparent" points="-4,4 -4,-1033 2062,-1033 2062,4 -4,4"/>
<g id="clust1" class="cluster">
<title>cluster_Homomorphism</title>
<polygon fill="#ffffc3" stroke="black" points="8,-12.49 8,-1016.51 2050,-1016.51 2050,-12.49 8,-12.49"/>
<text text-anchor="middle" x="73.5" y="-1001.31" font-family="Times,serif" font-size="14.00">Homomorphism</text>
</g>
<!-- Homomorphism_is1cat_strong_algebra -->
<g id="node1" class="node">
<title>Homomorphism_is1cat_strong_algebra</title>
<g id="a_node1"><a xlink:href="Homomorphism.html#is1cat_strong_algebra" xlink:title="is1cat_strong_algebra">
<ellipse fill="#f070d1" stroke="black" cx="1012" cy="-927.49" rx="112.38" ry="18"/>
<ellipse fill="none" stroke="black" cx="1012" cy="-927.49" rx="116.38" ry="22"/>
<ellipse fill="none" stroke="black" cx="1012" cy="-927.49" rx="120.38" ry="26"/>
<text text-anchor="middle" x="1012" y="-923.79" font-family="Times,serif" font-size="14.00">is1cat_strong_algebra</text>
</a>
</g>
</g>
<!-- Homomorphism_is0functor_precomp_homomorphism -->
<g id="node3" class="node">
<title>Homomorphism_is0functor_precomp_homomorphism</title>
<g id="a_node3"><a xlink:href="Homomorphism.html#is0functor_precomp_homomorphism" xlink:title="is0functor_precomp_homomorphism">
<ellipse fill="#f070d1" stroke="black" cx="450" cy="-802.49" rx="179.27" ry="18"/>
<text text-anchor="middle" x="450" y="-798.79" font-family="Times,serif" font-size="14.00">is0functor_precomp_homomorphism</text>
</a>
</g>
</g>
<!-- Homomorphism_is1cat_strong_algebra&#45;&gt;Homomorphism_is0functor_precomp_homomorphism -->
<g id="edge1" class="edge">
<title>Homomorphism_is1cat_strong_algebra&#45;&gt;Homomorphism_is0functor_precomp_homomorphism</title>
<path fill="none" stroke="black" d="M929.68,-908.47C822.76,-885.07 637.27,-844.48 531,-821.22"/>
<polygon fill="black" stroke="black" points="531.49,-817.74 520.97,-819.02 529.99,-824.58 531.49,-817.74"/>
</g>
<!-- Homomorphism_is0functor_postcomp_homomorphism -->
<g id="node4" class="node">
<title>Homomorphism_is0functor_postcomp_homomorphism</title>
<g id="a_node4"><a xlink:href="Homomorphism.html#is0functor_postcomp_homomorphism" xlink:title="is0functor_postcomp_homomorphism">
<ellipse fill="#f070d1" stroke="black" cx="831" cy="-802.49" rx="183.87" ry="18"/>
<text text-anchor="middle" x="831" y="-798.79" font-family="Times,serif" font-size="14.00">is0functor_postcomp_homomorphism</text>
</a>
</g>
</g>
<!-- Homomorphism_is1cat_strong_algebra&#45;&gt;Homomorphism_is0functor_postcomp_homomorphism -->
<g id="edge2" class="edge">
<title>Homomorphism_is1cat_strong_algebra&#45;&gt;Homomorphism_is0functor_postcomp_homomorphism</title>
<path fill="none" stroke="black" d="M976.67,-902.48C944.13,-880.37 896.21,-847.81 864.33,-826.14"/>
<polygon fill="black" stroke="black" points="866.02,-823.06 855.78,-820.33 862.09,-828.85 866.02,-823.06"/>
</g>
<!-- Homomorphism_is0gpd_homomorphism -->
<g id="node5" class="node">
<title>Homomorphism_is0gpd_homomorphism</title>
<g id="a_node5"><a xlink:href="Homomorphism.html#is0gpd_homomorphism" xlink:title="is0gpd_homomorphism">
<ellipse fill="#f070d1" stroke="black" cx="134" cy="-802.49" rx="118.08" ry="18"/>
<text text-anchor="middle" x="134" y="-798.79" font-family="Times,serif" font-size="14.00">is0gpd_homomorphism</text>
</a>
</g>
</g>
<!-- Homomorphism_is1cat_strong_algebra&#45;&gt;Homomorphism_is0gpd_homomorphism -->
<g id="edge3" class="edge">
<title>Homomorphism_is1cat_strong_algebra&#45;&gt;Homomorphism_is0gpd_homomorphism</title>
<path fill="none" stroke="black" d="M912.99,-912.62C742.24,-888.7 394.7,-840.01 227.7,-816.62"/>
<polygon fill="black" stroke="black" points="228.08,-813.14 217.69,-815.22 227.11,-820.07 228.08,-813.14"/>
</g>
<!-- Homomorphism_right_id_homomorphism_compose -->
<g id="node8" class="node">
<title>Homomorphism_right_id_homomorphism_compose</title>
<g id="a_node8"><a xlink:href="Homomorphism.html#right_id_homomorphism_compose" xlink:title="right_id_homomorphism_compose">
<ellipse fill="#f070d1" stroke="black" cx="1874" cy="-802.49" rx="168.17" ry="18"/>
<text text-anchor="middle" x="1874" y="-798.79" font-family="Times,serif" font-size="14.00">right_id_homomorphism_compose</text>
</a>
</g>
</g>
<!-- Homomorphism_is1cat_strong_algebra&#45;&gt;Homomorphism_right_id_homomorphism_compose -->
<g id="edge4" class="edge">
<title>Homomorphism_is1cat_strong_algebra&#45;&gt;Homomorphism_right_id_homomorphism_compose</title>
<path fill="none" stroke="black" d="M1110.46,-912.44C1273.67,-889.15 1598.9,-842.75 1767.35,-818.71"/>
<polygon fill="black" stroke="black" points="1768.07,-822.14 1777.48,-817.26 1767.08,-815.21 1768.07,-822.14"/>
</g>
<!-- Homomorphism_left_id_homomorphism_compose -->
<g id="node9" class="node">
<title>Homomorphism_left_id_homomorphism_compose</title>
<g id="a_node9"><a xlink:href="Homomorphism.html#left_id_homomorphism_compose" xlink:title="left_id_homomorphism_compose">
<ellipse fill="#f070d1" stroke="black" cx="1194" cy="-802.49" rx="161.37" ry="18"/>
<text text-anchor="middle" x="1194" y="-798.79" font-family="Times,serif" font-size="14.00">left_id_homomorphism_compose</text>
</a>
</g>
</g>
<!-- Homomorphism_is1cat_strong_algebra&#45;&gt;Homomorphism_left_id_homomorphism_compose -->
<g id="edge5" class="edge">
<title>Homomorphism_is1cat_strong_algebra&#45;&gt;Homomorphism_left_id_homomorphism_compose</title>
<path fill="none" stroke="black" d="M1047.52,-902.48C1080.24,-880.37 1128.43,-847.81 1160.49,-826.14"/>
<polygon fill="black" stroke="black" points="1162.75,-828.83 1169.08,-820.33 1158.83,-823.03 1162.75,-828.83"/>
</g>
<!-- Homomorphism_assoc_homomorphism_compose -->
<g id="node10" class="node">
<title>Homomorphism_assoc_homomorphism_compose</title>
<g id="a_node10"><a xlink:href="Homomorphism.html#assoc_homomorphism_compose" xlink:title="assoc_homomorphism_compose">
<ellipse fill="#f070d1" stroke="black" cx="1530" cy="-802.49" rx="157.07" ry="18"/>
<text text-anchor="middle" x="1530" y="-798.79" font-family="Times,serif" font-size="14.00">assoc_homomorphism_compose</text>
</a>
</g>
</g>
<!-- Homomorphism_is1cat_strong_algebra&#45;&gt;Homomorphism_assoc_homomorphism_compose -->
<g id="edge6" class="edge">
<title>Homomorphism_is1cat_strong_algebra&#45;&gt;Homomorphism_assoc_homomorphism_compose</title>
<path fill="none" stroke="black" d="M1090.95,-907.74C1189.84,-884.26 1358.02,-844.33 1455.01,-821.3"/>
<polygon fill="black" stroke="black" points="1456.11,-824.63 1465.04,-818.92 1454.5,-817.82 1456.11,-824.63"/>
</g>
<!-- Homomorphism_is1cat_algebra -->
<g id="node2" class="node">
<title>Homomorphism_is1cat_algebra</title>
<g id="a_node2"><a xlink:href="Homomorphism.html#is1cat_algebra" xlink:title="is1cat_algebra">
<ellipse fill="#f070d1" stroke="black" cx="450" cy="-927.49" rx="77.99" ry="18"/>
<ellipse fill="none" stroke="black" cx="450" cy="-927.49" rx="81.99" ry="22"/>
<ellipse fill="none" stroke="black" cx="450" cy="-927.49" rx="85.99" ry="26"/>
<text text-anchor="middle" x="450" y="-923.79" font-family="Times,serif" font-size="14.00">is1cat_algebra</text>
</a>
</g>
</g>
<!-- Homomorphism_is1cat_algebra&#45;&gt;Homomorphism_is0functor_precomp_homomorphism -->
<g id="edge7" class="edge">
<title>Homomorphism_is1cat_algebra&#45;&gt;Homomorphism_is0functor_precomp_homomorphism</title>
<path fill="none" stroke="black" d="M450,-901.3C450,-880.83 450,-852 450,-830.95"/>
<polygon fill="black" stroke="black" points="453.5,-830.73 450,-820.73 446.5,-830.73 453.5,-830.73"/>
</g>
<!-- Homomorphism_is1cat_algebra&#45;&gt;Homomorphism_is0functor_postcomp_homomorphism -->
<g id="edge8" class="edge">
<title>Homomorphism_is1cat_algebra&#45;&gt;Homomorphism_is0functor_postcomp_homomorphism</title>
<path fill="none" stroke="black" d="M507.45,-907.94C578.33,-885.06 698.3,-846.33 770.53,-823.01"/>
<polygon fill="black" stroke="black" points="771.96,-826.23 780.4,-819.83 769.81,-819.57 771.96,-826.23"/>
</g>
<!-- Homomorphism_is1cat_algebra&#45;&gt;Homomorphism_is0gpd_homomorphism -->
<g id="edge9" class="edge">
<title>Homomorphism_is1cat_algebra&#45;&gt;Homomorphism_is0gpd_homomorphism</title>
<path fill="none" stroke="black" d="M398.53,-906.46C339.38,-883.44 242.97,-845.91 184.32,-823.08"/>
<polygon fill="black" stroke="black" points="185.47,-819.77 174.89,-819.41 182.93,-826.29 185.47,-819.77"/>
</g>
<!-- Homomorphism_is2graph_algebra -->
<g id="node7" class="node">
<title>Homomorphism_is2graph_algebra</title>
<g id="a_node7"><a xlink:href="Homomorphism.html#is2graph_algebra" xlink:title="is2graph_algebra">
<ellipse fill="#f070d1" stroke="black" cx="453" cy="-540.49" rx="90.98" ry="18"/>
<text text-anchor="middle" x="453" y="-536.79" font-family="Times,serif" font-size="14.00">is2graph_algebra</text>
</a>
</g>
</g>
<!-- Homomorphism_is0functor_precomp_homomorphism&#45;&gt;Homomorphism_is2graph_algebra -->
<g id="edge10" class="edge">
<title>Homomorphism_is0functor_precomp_homomorphism&#45;&gt;Homomorphism_is2graph_algebra</title>
<path fill="none" stroke="black" d="M450.2,-784.43C450.71,-740.36 452.07,-622.4 452.69,-568.74"/>
<polygon fill="black" stroke="black" points="456.19,-568.65 452.8,-558.61 449.19,-568.57 456.19,-568.65"/>
</g>
<!-- Homomorphism_is01cat_algebra -->
<g id="node11" class="node">
<title>Homomorphism_is01cat_algebra</title>
<g id="a_node11"><a xlink:href="Homomorphism.html#is01cat_algebra" xlink:title="is01cat_algebra">
<ellipse fill="#f070d1" stroke="black" cx="1059" cy="-677.49" rx="83.69" ry="18"/>
<text text-anchor="middle" x="1059" y="-673.79" font-family="Times,serif" font-size="14.00">is01cat_algebra</text>
</a>
</g>
</g>
<!-- Homomorphism_is0functor_precomp_homomorphism&#45;&gt;Homomorphism_is01cat_algebra -->
<g id="edge11" class="edge">
<title>Homomorphism_is0functor_precomp_homomorphism&#45;&gt;Homomorphism_is01cat_algebra</title>
<path fill="none" stroke="black" d="M525.9,-786.16C645.22,-762.06 874.89,-715.68 989.87,-692.45"/>
<polygon fill="black" stroke="black" points="990.85,-695.83 999.96,-690.42 989.47,-688.96 990.85,-695.83"/>
</g>
<!-- Homomorphism_is0functor_postcomp_homomorphism&#45;&gt;Homomorphism_is2graph_algebra -->
<g id="edge12" class="edge">
<title>Homomorphism_is0functor_postcomp_homomorphism&#45;&gt;Homomorphism_is2graph_algebra</title>
<path fill="none" stroke="black" d="M806.49,-784.63C740.62,-739.32 559.75,-614.92 485.48,-563.83"/>
<polygon fill="black" stroke="black" points="487.19,-560.76 476.97,-557.98 483.22,-566.53 487.19,-560.76"/>
</g>
<!-- Homomorphism_is0functor_postcomp_homomorphism&#45;&gt;Homomorphism_is01cat_algebra -->
<g id="edge13" class="edge">
<title>Homomorphism_is0functor_postcomp_homomorphism&#45;&gt;Homomorphism_is01cat_algebra</title>
<path fill="none" stroke="black" d="M862.22,-784.65C903.44,-762.41 975.98,-723.28 1020.54,-699.24"/>
<polygon fill="black" stroke="black" points="1022.46,-702.18 1029.6,-694.35 1019.13,-696.02 1022.46,-702.18"/>
</g>
<!-- Homomorphism_is01cat_homomorphism -->
<g id="node6" class="node">
<title>Homomorphism_is01cat_homomorphism</title>
<g id="a_node6"><a xlink:href="Homomorphism.html#is01cat_homomorphism" xlink:title="is01cat_homomorphism">
<ellipse fill="#f070d1" stroke="black" cx="225" cy="-677.49" rx="120.78" ry="18"/>
<text text-anchor="middle" x="225" y="-673.79" font-family="Times,serif" font-size="14.00">is01cat_homomorphism</text>
</a>
</g>
</g>
<!-- Homomorphism_is0gpd_homomorphism&#45;&gt;Homomorphism_is01cat_homomorphism -->
<g id="edge14" class="edge">
<title>Homomorphism_is0gpd_homomorphism&#45;&gt;Homomorphism_is01cat_homomorphism</title>
<path fill="none" stroke="black" d="M146.65,-784.39C162.14,-763.46 188.49,-727.84 206.31,-703.75"/>
<polygon fill="black" stroke="black" points="209.32,-705.57 212.45,-695.45 203.69,-701.41 209.32,-705.57"/>
</g>
<!-- Homomorphism_is01cat_homomorphism&#45;&gt;Homomorphism_is2graph_algebra -->
<g id="edge15" class="edge">
<title>Homomorphism_is01cat_homomorphism&#45;&gt;Homomorphism_is2graph_algebra</title>
<path fill="none" stroke="black" d="M252.96,-659.94C294.2,-635.52 371.38,-589.82 416.87,-562.88"/>
<polygon fill="black" stroke="black" points="418.7,-565.87 425.53,-557.76 415.14,-559.84 418.7,-565.87"/>
</g>
<!-- Homomorphism_isgraph_algebra -->
<g id="node21" class="node">
<title>Homomorphism_isgraph_algebra</title>
<g id="a_node21"><a xlink:href="Homomorphism.html#isgraph_algebra" xlink:title="isgraph_algebra">
<ellipse fill="#f070d1" stroke="black" cx="453" cy="-402.49" rx="85.29" ry="18"/>
<text text-anchor="middle" x="453" y="-398.79" font-family="Times,serif" font-size="14.00">isgraph_algebra</text>
</a>
</g>
</g>
<!-- Homomorphism_is2graph_algebra&#45;&gt;Homomorphism_isgraph_algebra -->
<g id="edge16" class="edge">
<title>Homomorphism_is2graph_algebra&#45;&gt;Homomorphism_isgraph_algebra</title>
<path fill="none" stroke="black" d="M453,-522.27C453,-499.17 453,-457.92 453,-430.63"/>
<polygon fill="black" stroke="black" points="456.5,-430.58 453,-420.58 449.5,-430.58 456.5,-430.58"/>
</g>
<!-- Homomorphism_right_id_homomorphism_compose&#45;&gt;Homomorphism_is01cat_algebra -->
<g id="edge17" class="edge">
<title>Homomorphism_right_id_homomorphism_compose&#45;&gt;Homomorphism_is01cat_algebra</title>
<path fill="none" stroke="black" d="M1758.56,-789.36C1617.05,-773.62 1370.26,-743.41 1161,-703.49 1147.38,-700.89 1132.85,-697.63 1119.16,-694.33"/>
<polygon fill="black" stroke="black" points="1119.9,-690.91 1109.36,-691.93 1118.24,-697.71 1119.9,-690.91"/>
</g>
<!-- Homomorphism_path_homomorphism -->
<g id="node16" class="node">
<title>Homomorphism_path_homomorphism</title>
<g id="a_node16"><a xlink:href="Homomorphism.html#path_homomorphism" xlink:title="path_homomorphism">
<ellipse fill="#f070d1" stroke="black" cx="1530" cy="-677.49" rx="108.58" ry="18"/>
<text text-anchor="middle" x="1530" y="-673.79" font-family="Times,serif" font-size="14.00">path_homomorphism</text>
</a>
</g>
</g>
<!-- Homomorphism_right_id_homomorphism_compose&#45;&gt;Homomorphism_path_homomorphism -->
<g id="edge18" class="edge">
<title>Homomorphism_right_id_homomorphism_compose&#45;&gt;Homomorphism_path_homomorphism</title>
<path fill="none" stroke="black" d="M1828.32,-785.16C1764.82,-762.46 1650.15,-721.45 1582.98,-697.43"/>
<polygon fill="black" stroke="black" points="1584.02,-694.09 1573.42,-694.02 1581.66,-700.68 1584.02,-694.09"/>
</g>
<!-- Homomorphism_left_id_homomorphism_compose&#45;&gt;Homomorphism_is01cat_algebra -->
<g id="edge19" class="edge">
<title>Homomorphism_left_id_homomorphism_compose&#45;&gt;Homomorphism_is01cat_algebra</title>
<path fill="none" stroke="black" d="M1175.23,-784.39C1151.75,-763 1111.44,-726.27 1085.01,-702.19"/>
<polygon fill="black" stroke="black" points="1087.36,-699.6 1077.61,-695.45 1082.65,-704.77 1087.36,-699.6"/>
</g>
<!-- Homomorphism_left_id_homomorphism_compose&#45;&gt;Homomorphism_path_homomorphism -->
<g id="edge20" class="edge">
<title>Homomorphism_left_id_homomorphism_compose&#45;&gt;Homomorphism_path_homomorphism</title>
<path fill="none" stroke="black" d="M1238.62,-785.16C1300.42,-762.53 1411.88,-721.73 1477.58,-697.68"/>
<polygon fill="black" stroke="black" points="1479.14,-700.84 1487.32,-694.11 1476.73,-694.27 1479.14,-700.84"/>
</g>
<!-- Homomorphism_assoc_homomorphism_compose&#45;&gt;Homomorphism_is01cat_algebra -->
<g id="edge21" class="edge">
<title>Homomorphism_assoc_homomorphism_compose&#45;&gt;Homomorphism_is01cat_algebra</title>
<path fill="none" stroke="black" d="M1469.87,-785.79C1379.75,-762.25 1210.59,-718.08 1119.98,-694.42"/>
<polygon fill="black" stroke="black" points="1120.69,-690.98 1110.13,-691.84 1118.92,-697.76 1120.69,-690.98"/>
</g>
<!-- Homomorphism_assoc_homomorphism_compose&#45;&gt;Homomorphism_path_homomorphism -->
<g id="edge22" class="edge">
<title>Homomorphism_assoc_homomorphism_compose&#45;&gt;Homomorphism_path_homomorphism</title>
<path fill="none" stroke="black" d="M1530,-784.39C1530,-764.13 1530,-730.09 1530,-706.08"/>
<polygon fill="black" stroke="black" points="1533.5,-705.85 1530,-695.85 1526.5,-705.85 1533.5,-705.85"/>
</g>
<!-- Homomorphism_homomorphism_compose -->
<g id="node12" class="node">
<title>Homomorphism_homomorphism_compose</title>
<g id="a_node12"><a xlink:href="Homomorphism.html#homomorphism_compose" xlink:title="homomorphism_compose">
<ellipse fill="#f070d1" stroke="black" cx="817" cy="-540.49" rx="128.08" ry="18"/>
<text text-anchor="middle" x="817" y="-536.79" font-family="Times,serif" font-size="14.00">homomorphism_compose</text>
</a>
</g>
</g>
<!-- Homomorphism_is01cat_algebra&#45;&gt;Homomorphism_homomorphism_compose -->
<g id="edge23" class="edge">
<title>Homomorphism_is01cat_algebra&#45;&gt;Homomorphism_homomorphism_compose</title>
<path fill="none" stroke="black" d="M1030.29,-660.48C986.89,-636.26 904.48,-590.29 855.78,-563.13"/>
<polygon fill="black" stroke="black" points="857.25,-559.94 846.81,-558.12 853.84,-566.05 857.25,-559.94"/>
</g>
<!-- Homomorphism_homomorphism_id -->
<g id="node14" class="node">
<title>Homomorphism_homomorphism_id</title>
<g id="a_node14"><a xlink:href="Homomorphism.html#homomorphism_id" xlink:title="homomorphism_id">
<ellipse fill="#f070d1" stroke="black" cx="1059" cy="-540.49" rx="96.38" ry="18"/>
<text text-anchor="middle" x="1059" y="-536.79" font-family="Times,serif" font-size="14.00">homomorphism_id</text>
</a>
</g>
</g>
<!-- Homomorphism_is01cat_algebra&#45;&gt;Homomorphism_homomorphism_id -->
<g id="edge24" class="edge">
<title>Homomorphism_is01cat_algebra&#45;&gt;Homomorphism_homomorphism_id</title>
<path fill="none" stroke="black" d="M1059,-659.39C1059,-636.59 1059,-595.97 1059,-568.88"/>
<polygon fill="black" stroke="black" points="1062.5,-568.88 1059,-558.88 1055.5,-568.88 1062.5,-568.88"/>
</g>
<!-- Homomorphism_is_homomorphism_compose -->
<g id="node13" class="node">
<title>Homomorphism_is_homomorphism_compose</title>
<g id="a_node13"><a xlink:href="Homomorphism.html#is_homomorphism_compose" xlink:title="is_homomorphism_compose">
<ellipse fill="#f070d1" stroke="black" cx="918" cy="-402.49" rx="139.98" ry="18"/>
<text text-anchor="middle" x="918" y="-398.79" font-family="Times,serif" font-size="14.00">is_homomorphism_compose</text>
</a>
</g>
</g>
<!-- Homomorphism_homomorphism_compose&#45;&gt;Homomorphism_is_homomorphism_compose -->
<g id="edge25" class="edge">
<title>Homomorphism_homomorphism_compose&#45;&gt;Homomorphism_is_homomorphism_compose</title>
<path fill="none" stroke="black" d="M829.59,-522.54C847.05,-499.03 878.77,-456.31 899.09,-428.95"/>
<polygon fill="black" stroke="black" points="902.1,-430.77 905.25,-420.65 896.48,-426.6 902.1,-430.77"/>
</g>
<!-- Homomorphism_homomorphism_compose&#45;&gt;Homomorphism_isgraph_algebra -->
<g id="edge26" class="edge">
<title>Homomorphism_homomorphism_compose&#45;&gt;Homomorphism_isgraph_algebra</title>
<path fill="none" stroke="black" d="M774.17,-523.49C706.42,-498.18 574.82,-449.01 502.9,-422.14"/>
<polygon fill="black" stroke="black" points="503.75,-418.72 493.16,-418.5 501.3,-425.28 503.75,-418.72"/>
</g>
<!-- Homomorphism_def_homomorphism -->
<g id="node23" class="node">
<title>Homomorphism_def_homomorphism</title>
<g id="a_node23"><a xlink:href="Homomorphism.html#def_homomorphism" xlink:title="def_homomorphism">
<ellipse fill="#f070d1" stroke="black" cx="658" cy="-402.49" rx="102.08" ry="18"/>
<text text-anchor="middle" x="658" y="-398.79" font-family="Times,serif" font-size="14.00">def_homomorphism</text>
</a>
</g>
</g>
<!-- Homomorphism_homomorphism_compose&#45;&gt;Homomorphism_def_homomorphism -->
<g id="edge27" class="edge">
<title>Homomorphism_homomorphism_compose&#45;&gt;Homomorphism_def_homomorphism</title>
<path fill="none" stroke="black" d="M797.18,-522.54C768.94,-498.39 717.02,-453.97 685.2,-426.75"/>
<polygon fill="black" stroke="black" points="687.44,-424.07 677.57,-420.23 682.89,-429.39 687.44,-424.07"/>
</g>
<!-- Homomorphism_Build_Homomorphism -->
<g id="node24" class="node">
<title>Homomorphism_Build_Homomorphism</title>
<g id="a_node24"><a xlink:href="Homomorphism.html#Build_Homomorphism" xlink:title="Build_Homomorphism">
<ellipse fill="#7faaff" stroke="black" cx="1189" cy="-402.49" rx="113.98" ry="18"/>
<text text-anchor="middle" x="1189" y="-398.79" font-family="Times,serif" font-size="14.00">Build_Homomorphism</text>
</a>
</g>
</g>
<!-- Homomorphism_homomorphism_compose&#45;&gt;Homomorphism_Build_Homomorphism -->
<g id="edge28" class="edge">
<title>Homomorphism_homomorphism_compose&#45;&gt;Homomorphism_Build_Homomorphism</title>
<path fill="none" stroke="black" d="M860.77,-523.49C929.51,-498.36 1062.55,-449.72 1136.4,-422.72"/>
<polygon fill="black" stroke="black" points="1137.78,-425.94 1145.97,-419.22 1135.38,-419.37 1137.78,-425.94"/>
</g>
<!-- Homomorphism_oppreserving_hom -->
<g id="node27" class="node">
<title>Homomorphism_oppreserving_hom</title>
<g id="a_node27"><a xlink:href="Homomorphism.html#oppreserving_hom" xlink:title="oppreserving_hom">
<ellipse fill="#f070d1" stroke="black" cx="923" cy="-277.49" rx="96.68" ry="18"/>
<text text-anchor="middle" x="923" y="-273.79" font-family="Times,serif" font-size="14.00">oppreserving_hom</text>
</a>
</g>
</g>
<!-- Homomorphism_is_homomorphism_compose&#45;&gt;Homomorphism_oppreserving_hom -->
<g id="edge29" class="edge">
<title>Homomorphism_is_homomorphism_compose&#45;&gt;Homomorphism_oppreserving_hom</title>
<path fill="none" stroke="black" d="M918.7,-384.39C919.52,-364.13 920.9,-330.09 921.88,-306.08"/>
<polygon fill="black" stroke="black" points="925.39,-305.98 922.29,-295.85 918.39,-305.7 925.39,-305.98"/>
</g>
<!-- Homomorphism_is_homomorphism_id -->
<g id="node15" class="node">
<title>Homomorphism_is_homomorphism_id</title>
<g id="a_node15"><a xlink:href="Homomorphism.html#is_homomorphism_id" xlink:title="is_homomorphism_id">
<ellipse fill="#f070d1" stroke="black" cx="1169" cy="-277.49" rx="108.58" ry="18"/>
<text text-anchor="middle" x="1169" y="-273.79" font-family="Times,serif" font-size="14.00">is_homomorphism_id</text>
</a>
</g>
</g>
<!-- Homomorphism_homomorphism_id&#45;&gt;Homomorphism_is_homomorphism_id -->
<g id="edge30" class="edge">
<title>Homomorphism_homomorphism_id&#45;&gt;Homomorphism_is_homomorphism_id</title>
<path fill="none" stroke="black" d="M1108.08,-524.99C1174.82,-504.16 1288.59,-464.33 1312,-428.49 1346.13,-376.24 1268.35,-325.93 1214.65,-298.92"/>
<polygon fill="black" stroke="black" points="1216.12,-295.74 1205.6,-294.47 1213.03,-302.02 1216.12,-295.74"/>
</g>
<!-- Homomorphism_homomorphism_id&#45;&gt;Homomorphism_isgraph_algebra -->
<g id="edge31" class="edge">
<title>Homomorphism_homomorphism_id&#45;&gt;Homomorphism_isgraph_algebra</title>
<path fill="none" stroke="black" d="M1002.93,-525.86C987.13,-522.1 969.91,-518.07 954,-514.49 773.61,-473.97 726.84,-471.38 547,-428.49 535.82,-425.83 523.94,-422.81 512.52,-419.82"/>
<polygon fill="black" stroke="black" points="513.2,-416.38 502.64,-417.21 511.41,-423.15 513.2,-416.38"/>
</g>
<!-- Homomorphism_homomorphism_id&#45;&gt;Homomorphism_Build_Homomorphism -->
<g id="edge32" class="edge">
<title>Homomorphism_homomorphism_id&#45;&gt;Homomorphism_Build_Homomorphism</title>
<path fill="none" stroke="black" d="M1075.2,-522.54C1097.97,-498.72 1139.57,-455.2 1165.67,-427.9"/>
<polygon fill="black" stroke="black" points="1168.21,-430.3 1172.59,-420.65 1163.15,-425.47 1168.21,-430.3"/>
</g>
<!-- Homomorphism_IsHomomorphism -->
<g id="node28" class="node">
<title>Homomorphism_IsHomomorphism</title>
<g id="a_node28"><a xlink:href="Homomorphism.html#IsHomomorphism" xlink:title="IsHomomorphism">
<ellipse fill="#f070d1" stroke="black" cx="1169" cy="-165.49" rx="92.88" ry="18"/>
<text text-anchor="middle" x="1169" y="-161.79" font-family="Times,serif" font-size="14.00">IsHomomorphism</text>
</a>
</g>
</g>
<!-- Homomorphism_is_homomorphism_id&#45;&gt;Homomorphism_IsHomomorphism -->
<g id="edge33" class="edge">
<title>Homomorphism_is_homomorphism_id&#45;&gt;Homomorphism_IsHomomorphism</title>
<path fill="none" stroke="black" d="M1169,-259.3C1169,-241.71 1169,-214.1 1169,-193.56"/>
<polygon fill="black" stroke="black" points="1172.5,-193.56 1169,-183.56 1165.5,-193.56 1172.5,-193.56"/>
</g>
<!-- Homomorphism_issig_homomorphism -->
<g id="node18" class="node">
<title>Homomorphism_issig_homomorphism</title>
<g id="a_node18"><a xlink:href="Homomorphism.html#issig_homomorphism" xlink:title="issig_homomorphism">
<ellipse fill="#f070d1" stroke="black" cx="1282" cy="-540.49" rx="108.58" ry="18"/>
<text text-anchor="middle" x="1282" y="-536.79" font-family="Times,serif" font-size="14.00">issig_homomorphism</text>
</a>
</g>
</g>
<!-- Homomorphism_path_homomorphism&#45;&gt;Homomorphism_issig_homomorphism -->
<g id="edge34" class="edge">
<title>Homomorphism_path_homomorphism&#45;&gt;Homomorphism_issig_homomorphism</title>
<path fill="none" stroke="black" d="M1499.59,-659.94C1454.66,-635.48 1370.53,-589.69 1321.08,-562.77"/>
<polygon fill="black" stroke="black" points="1322.73,-559.68 1312.27,-557.97 1319.38,-565.82 1322.73,-559.68"/>
</g>
<!-- Homomorphism_hprop_is_homomorphism -->
<g id="node26" class="node">
<title>Homomorphism_hprop_is_homomorphism</title>
<g id="a_node26"><a xlink:href="Homomorphism.html#hprop_is_homomorphism" xlink:title="hprop_is_homomorphism">
<ellipse fill="#f070d1" stroke="black" cx="1535" cy="-540.49" rx="126.98" ry="18"/>
<text text-anchor="middle" x="1535" y="-536.79" font-family="Times,serif" font-size="14.00">hprop_is_homomorphism</text>
</a>
</g>
</g>
<!-- Homomorphism_path_homomorphism&#45;&gt;Homomorphism_hprop_is_homomorphism -->
<g id="edge35" class="edge">
<title>Homomorphism_path_homomorphism&#45;&gt;Homomorphism_hprop_is_homomorphism</title>
<path fill="none" stroke="black" d="M1530.63,-659.39C1531.48,-636.59 1532.98,-595.97 1533.99,-568.88"/>
<polygon fill="black" stroke="black" points="1537.48,-569 1534.36,-558.88 1530.49,-568.74 1537.48,-569"/>
</g>
<!-- Homomorphism_hset_homomorphism -->
<g id="node17" class="node">
<title>Homomorphism_hset_homomorphism</title>
<g id="a_node17"><a xlink:href="Homomorphism.html#hset_homomorphism" xlink:title="hset_homomorphism">
<ellipse fill="#f070d1" stroke="black" cx="1285" cy="-677.49" rx="107.46" ry="18"/>
<ellipse fill="none" stroke="black" cx="1285" cy="-677.49" rx="111.47" ry="22"/>
<ellipse fill="none" stroke="black" cx="1285" cy="-677.49" rx="115.48" ry="26"/>
<text text-anchor="middle" x="1285" y="-673.79" font-family="Times,serif" font-size="14.00">hset_homomorphism</text>
</a>
</g>
</g>
<!-- Homomorphism_hset_homomorphism&#45;&gt;Homomorphism_issig_homomorphism -->
<g id="edge36" class="edge">
<title>Homomorphism_hset_homomorphism&#45;&gt;Homomorphism_issig_homomorphism</title>
<path fill="none" stroke="black" d="M1284.44,-651.42C1283.92,-628.01 1283.15,-593.15 1282.61,-568.99"/>
<polygon fill="black" stroke="black" points="1286.1,-568.64 1282.38,-558.72 1279.11,-568.8 1286.1,-568.64"/>
</g>
<!-- Homomorphism_hset_homomorphism&#45;&gt;Homomorphism_hprop_is_homomorphism -->
<g id="edge37" class="edge">
<title>Homomorphism_hset_homomorphism&#45;&gt;Homomorphism_hprop_is_homomorphism</title>
<path fill="none" stroke="black" d="M1327.98,-653.28C1375,-627.89 1449.74,-587.53 1495.38,-562.88"/>
<polygon fill="black" stroke="black" points="1497.25,-565.86 1504.38,-558.02 1493.92,-559.7 1497.25,-565.86"/>
</g>
<!-- Homomorphism_SigHomomorphism -->
<g id="node19" class="node">
<title>Homomorphism_SigHomomorphism</title>
<g id="a_node19"><a xlink:href="Homomorphism.html#SigHomomorphism" xlink:title="SigHomomorphism">
<ellipse fill="#f070d1" stroke="black" cx="1396" cy="-277.49" rx="100.18" ry="18"/>
<text text-anchor="middle" x="1396" y="-273.79" font-family="Times,serif" font-size="14.00">SigHomomorphism</text>
</a>
</g>
</g>
<!-- Homomorphism_issig_homomorphism&#45;&gt;Homomorphism_SigHomomorphism -->
<g id="edge38" class="edge">
<title>Homomorphism_issig_homomorphism&#45;&gt;Homomorphism_SigHomomorphism</title>
<path fill="none" stroke="black" d="M1289.48,-522.37C1308.93,-477.85 1361.17,-358.23 1384.49,-304.84"/>
<polygon fill="black" stroke="black" points="1387.7,-306.24 1388.49,-295.68 1381.28,-303.44 1387.7,-306.24"/>
</g>
<!-- Homomorphism_issig_homomorphism&#45;&gt;Homomorphism_isgraph_algebra -->
<g id="edge39" class="edge">
<title>Homomorphism_issig_homomorphism&#45;&gt;Homomorphism_isgraph_algebra</title>
<path fill="none" stroke="black" d="M1220.61,-525.63C1202.44,-521.76 1182.46,-517.73 1164,-514.49 891.29,-466.66 818.4,-483.29 547,-428.49 535.23,-426.12 522.75,-423.13 510.86,-420.06"/>
<polygon fill="black" stroke="black" points="511.6,-416.64 501.04,-417.47 509.82,-423.4 511.6,-416.64"/>
</g>
<!-- Homomorphism_issig_homomorphism&#45;&gt;Homomorphism_Build_Homomorphism -->
<g id="edge40" class="edge">
<title>Homomorphism_issig_homomorphism&#45;&gt;Homomorphism_Build_Homomorphism</title>
<path fill="none" stroke="black" d="M1270.41,-522.54C1254.33,-499.03 1225.12,-456.31 1206.41,-428.95"/>
<polygon fill="black" stroke="black" points="1209.27,-426.93 1200.74,-420.65 1203.49,-430.88 1209.27,-426.93"/>
</g>
<!-- Homomorphism_SigHomomorphism&#45;&gt;Homomorphism_IsHomomorphism -->
<g id="edge41" class="edge">
<title>Homomorphism_SigHomomorphism&#45;&gt;Homomorphism_IsHomomorphism</title>
<path fill="none" stroke="black" d="M1362.99,-260.5C1322.9,-241.07 1255.19,-208.26 1211.3,-186.99"/>
<polygon fill="black" stroke="black" points="1212.57,-183.72 1202.05,-182.51 1209.52,-190.02 1212.57,-183.72"/>
</g>
<!-- Homomorphism_apD10_homomorphism -->
<g id="node20" class="node">
<title>Homomorphism_apD10_homomorphism</title>
<g id="a_node20"><a xlink:href="Homomorphism.html#apD10_homomorphism" xlink:title="apD10_homomorphism">
<ellipse fill="#f070d1" stroke="black" cx="218" cy="-540.49" rx="117.77" ry="18"/>
<ellipse fill="none" stroke="black" cx="218" cy="-540.49" rx="121.77" ry="22"/>
<ellipse fill="none" stroke="black" cx="218" cy="-540.49" rx="125.78" ry="26"/>
<text text-anchor="middle" x="218" y="-536.79" font-family="Times,serif" font-size="14.00">apD10_homomorphism</text>
</a>
</g>
</g>
<!-- Homomorphism_apD10_homomorphism&#45;&gt;Homomorphism_isgraph_algebra -->
<g id="edge42" class="edge">
<title>Homomorphism_apD10_homomorphism&#45;&gt;Homomorphism_isgraph_algebra</title>
<path fill="none" stroke="black" d="M258.93,-515.8C303.38,-490.08 373.7,-449.38 416.38,-424.68"/>
<polygon fill="black" stroke="black" points="418.14,-427.71 425.05,-419.67 414.64,-421.65 418.14,-427.71"/>
</g>
<!-- Homomorphism_Homomorphism -->
<g id="node25" class="node">
<title>Homomorphism_Homomorphism</title>
<g id="a_node25"><a xlink:href="Homomorphism.html#Homomorphism" xlink:title="Homomorphism">
<ellipse fill="#e2cdfa" stroke="black" cx="556" cy="-277.49" rx="85.29" ry="18"/>
<text text-anchor="middle" x="556" y="-273.79" font-family="Times,serif" font-size="14.00">Homomorphism</text>
</a>
</g>
</g>
<!-- Homomorphism_isgraph_algebra&#45;&gt;Homomorphism_Homomorphism -->
<g id="edge43" class="edge">
<title>Homomorphism_isgraph_algebra&#45;&gt;Homomorphism_Homomorphism</title>
<path fill="none" stroke="black" d="M467.11,-384.65C484.73,-363.6 515.02,-327.42 535.28,-303.23"/>
<polygon fill="black" stroke="black" points="538,-305.44 541.73,-295.53 532.63,-300.95 538,-305.44"/>
</g>
<!-- Homomorphism_is_homomorphism -->
<g id="node22" class="node">
<title>Homomorphism_is_homomorphism</title>
<g id="a_node22"><a xlink:href="Homomorphism.html#is_homomorphism" xlink:title="is_homomorphism">
<ellipse fill="#f070d1" stroke="black" cx="247" cy="-402.49" rx="94.79" ry="18"/>
<ellipse fill="none" stroke="black" cx="247" cy="-402.49" rx="98.79" ry="22"/>
<ellipse fill="none" stroke="black" cx="247" cy="-402.49" rx="102.78" ry="26"/>
<text text-anchor="middle" x="247" y="-398.79" font-family="Times,serif" font-size="14.00">is_homomorphism</text>
</a>
</g>
</g>
<!-- Homomorphism_is_homomorphism&#45;&gt;Homomorphism_Homomorphism -->
<g id="edge44" class="edge">
<title>Homomorphism_is_homomorphism&#45;&gt;Homomorphism_Homomorphism</title>
<path fill="none" stroke="black" d="M300.47,-380.21C359.09,-356.87 452.27,-319.78 508.43,-297.43"/>
<polygon fill="black" stroke="black" points="509.8,-300.65 517.8,-293.7 507.21,-294.15 509.8,-300.65"/>
</g>
<!-- Homomorphism_def_homomorphism&#45;&gt;Homomorphism_Homomorphism -->
<g id="edge45" class="edge">
<title>Homomorphism_def_homomorphism&#45;&gt;Homomorphism_Homomorphism</title>
<path fill="none" stroke="black" d="M644.03,-384.65C626.58,-363.6 596.58,-327.42 576.52,-303.23"/>
<polygon fill="black" stroke="black" points="579.2,-300.99 570.13,-295.53 573.82,-305.46 579.2,-300.99"/>
</g>
<!-- Homomorphism_Build_Homomorphism&#45;&gt;Homomorphism_IsHomomorphism -->
<g id="edge46" class="edge">
<title>Homomorphism_Build_Homomorphism&#45;&gt;Homomorphism_IsHomomorphism</title>
<path fill="none" stroke="black" d="M1152.46,-385.28C1119.12,-368.26 1071.97,-338.04 1051,-295.49 1029,-250.85 1083.59,-210.47 1125.68,-187.21"/>
<polygon fill="black" stroke="black" points="1127.55,-190.18 1134.71,-182.37 1124.25,-184.01 1127.55,-190.18"/>
</g>
<!-- Homomorphism_Homomorphism&#45;&gt;Homomorphism_IsHomomorphism -->
<g id="edge47" class="edge">
<title>Homomorphism_Homomorphism&#45;&gt;Homomorphism_IsHomomorphism</title>
<path fill="none" stroke="black" d="M618.72,-265.24C732.1,-244.89 970.71,-202.07 1093.09,-180.11"/>
<polygon fill="black" stroke="black" points="1093.91,-183.52 1103.13,-178.31 1092.67,-176.63 1093.91,-183.52"/>
</g>
<!-- Homomorphism_hprop_is_homomorphism&#45;&gt;Homomorphism_IsHomomorphism -->
<g id="edge48" class="edge">
<title>Homomorphism_hprop_is_homomorphism&#45;&gt;Homomorphism_IsHomomorphism</title>
<path fill="none" stroke="black" d="M1534.26,-522.19C1531.65,-464.26 1522.04,-279.57 1505,-259.49 1472.38,-221.06 1339.94,-193.26 1251.41,-178.54"/>
<polygon fill="black" stroke="black" points="1251.81,-175.06 1241.37,-176.89 1250.67,-181.96 1251.81,-175.06"/>
</g>
<!-- Homomorphism_hprop_oppreserving -->
<g id="node29" class="node">
<title>Homomorphism_hprop_oppreserving</title>
<g id="a_node29"><a xlink:href="Homomorphism.html#hprop_oppreserving" xlink:title="hprop_oppreserving">
<ellipse fill="#f070d1" stroke="black" cx="1459" cy="-165.49" rx="103.98" ry="18"/>
<text text-anchor="middle" x="1459" y="-161.79" font-family="Times,serif" font-size="14.00">hprop_oppreserving</text>
</a>
</g>
</g>
<!-- Homomorphism_hprop_is_homomorphism&#45;&gt;Homomorphism_hprop_oppreserving -->
<g id="edge49" class="edge">
<title>Homomorphism_hprop_is_homomorphism&#45;&gt;Homomorphism_hprop_oppreserving</title>
<path fill="none" stroke="black" d="M1537.12,-522.2C1541.97,-477.42 1551.19,-354.55 1520,-259.49 1511.72,-234.26 1494.74,-209.31 1480.79,-191.61"/>
<polygon fill="black" stroke="black" points="1483.26,-189.09 1474.24,-183.53 1477.82,-193.5 1483.26,-189.09"/>
</g>
<!-- Homomorphism_oppreserving_hom&#45;&gt;Homomorphism_IsHomomorphism -->
<g id="edge50" class="edge">
<title>Homomorphism_oppreserving_hom&#45;&gt;Homomorphism_IsHomomorphism</title>
<path fill="none" stroke="black" d="M958.51,-260.61C1002.42,-240.98 1077.17,-207.56 1124.76,-186.27"/>
<polygon fill="black" stroke="black" points="1126.2,-189.46 1133.9,-182.19 1123.34,-183.07 1126.2,-189.46"/>
</g>
<!-- Homomorphism_OpPreserving -->
<g id="node30" class="node">
<title>Homomorphism_OpPreserving</title>
<g id="a_node30"><a xlink:href="Homomorphism.html#OpPreserving" xlink:title="OpPreserving">
<ellipse fill="#f070d1" stroke="black" cx="1314" cy="-53.49" rx="74.99" ry="18"/>
<text text-anchor="middle" x="1314" y="-49.79" font-family="Times,serif" font-size="14.00">OpPreserving</text>
</a>
</g>
</g>
<!-- Homomorphism_IsHomomorphism&#45;&gt;Homomorphism_OpPreserving -->
<g id="edge51" class="edge">
<title>Homomorphism_IsHomomorphism&#45;&gt;Homomorphism_OpPreserving</title>
<path fill="none" stroke="black" d="M1191.02,-147.79C1215.86,-128.94 1256.4,-98.19 1284.1,-77.18"/>
<polygon fill="black" stroke="black" points="1286.39,-79.83 1292.25,-71 1282.16,-74.25 1286.39,-79.83"/>
</g>
<!-- Homomorphism_hprop_oppreserving&#45;&gt;Homomorphism_OpPreserving -->
<g id="edge52" class="edge">
<title>Homomorphism_hprop_oppreserving&#45;&gt;Homomorphism_OpPreserving</title>
<path fill="none" stroke="black" d="M1436.98,-147.79C1412.14,-128.94 1371.6,-98.19 1343.9,-77.18"/>
<polygon fill="black" stroke="black" points="1345.84,-74.25 1335.75,-71 1341.61,-79.83 1345.84,-74.25"/>
</g>
</g>
</svg>
