<?xml version="1.0" encoding="UTF-8" standalone="no"?>
<!DOCTYPE svg PUBLIC "-//W3C//DTD SVG 1.1//EN"
 "http://www.w3.org/Graphics/SVG/1.1/DTD/svg11.dtd">
<!-- Generated by graphviz version 2.43.0 (0)
 -->
<!-- Title: HoTT_Spaces_Card Pages: 1 -->
<svg width="3395pt" height="1702pt"
 viewBox="0.00 0.00 3395.00 1701.50" xmlns="http://www.w3.org/2000/svg" xmlns:xlink="http://www.w3.org/1999/xlink">
<g id="graph0" class="graph" transform="scale(1 1) rotate(0) translate(4 1697.5)">
<title>HoTT_Spaces_Card</title>
<polygon fill="white" stroke="transparent" points="-4,4 -4,-1697.5 3391,-1697.5 3391,4 -4,4"/>
<g id="clust1" class="cluster">
<title>cluster_Card</title>
<polygon fill="#ffffc3" stroke="black" points="8,-31.73 8,-1661.77 3379,-1661.77 3379,-31.73 8,-31.73"/>
<text text-anchor="middle" x="33.5" y="-1646.57" font-family="Times,serif" font-size="14.00">Card</text>
</g>
<!-- Card_infinite -->
<g id="node1" class="node">
<title>Card_infinite</title>
<g id="a_node1"><a xlink:href="Card.html#infinite" xlink:title="infinite">
<ellipse fill="#f070d1" stroke="black" cx="3319" cy="-1086.73" rx="43.59" ry="18"/>
<ellipse fill="none" stroke="black" cx="3319" cy="-1086.73" rx="47.59" ry="22"/>
<ellipse fill="none" stroke="black" cx="3319" cy="-1086.73" rx="51.59" ry="26"/>
<text text-anchor="middle" x="3319" y="-1083.03" font-family="Times,serif" font-size="14.00">infinite</text>
</a>
</g>
</g>
<!-- Card_Injection -->
<g id="node7" class="node">
<title>Card_Injection</title>
<g id="a_node7"><a xlink:href="Card.html#Injection" xlink:title="Injection">
<ellipse fill="#f070d1" stroke="black" cx="3114" cy="-769.73" rx="51.19" ry="18"/>
<text text-anchor="middle" x="3114" y="-766.03" font-family="Times,serif" font-size="14.00">Injection</text>
</a>
</g>
</g>
<!-- Card_infinite&#45;&gt;Card_Injection -->
<g id="edge1" class="edge">
<title>Card_infinite&#45;&gt;Card_Injection</title>
<path fill="none" stroke="black" d="M3303.42,-1061.79C3265.56,-1003.62 3168.99,-855.22 3130.35,-795.85"/>
<polygon fill="black" stroke="black" points="3133.26,-793.9 3124.87,-787.43 3127.39,-797.72 3133.26,-793.9"/>
</g>
<!-- Card_InjectsInto_trans -->
<g id="node2" class="node">
<title>Card_InjectsInto_trans</title>
<g id="a_node2"><a xlink:href="Card.html#InjectsInto_trans" xlink:title="InjectsInto_trans">
<ellipse fill="#f070d1" stroke="black" cx="3243" cy="-1435.73" rx="89.08" ry="18"/>
<ellipse fill="none" stroke="black" cx="3243" cy="-1435.73" rx="93.08" ry="22"/>
<ellipse fill="none" stroke="black" cx="3243" cy="-1435.73" rx="97.08" ry="26"/>
<text text-anchor="middle" x="3243" y="-1432.03" font-family="Times,serif" font-size="14.00">InjectsInto_trans</text>
</a>
</g>
</g>
<!-- Card_InjectsInto -->
<g id="node4" class="node">
<title>Card_InjectsInto</title>
<g id="a_node4"><a xlink:href="Card.html#InjectsInto" xlink:title="InjectsInto">
<ellipse fill="#f070d1" stroke="black" cx="3189" cy="-1086.73" rx="60.39" ry="18"/>
<text text-anchor="middle" x="3189" y="-1083.03" font-family="Times,serif" font-size="14.00">InjectsInto</text>
</a>
</g>
</g>
<!-- Card_InjectsInto_trans&#45;&gt;Card_InjectsInto -->
<g id="edge2" class="edge">
<title>Card_InjectsInto_trans&#45;&gt;Card_InjectsInto</title>
<path fill="none" stroke="black" d="M3239.07,-1409.49C3229.21,-1346.12 3203.46,-1180.64 3193.25,-1115.07"/>
<polygon fill="black" stroke="black" points="3196.7,-1114.42 3191.7,-1105.08 3189.78,-1115.5 3196.7,-1114.42"/>
</g>
<!-- Card_InjectsInto_refl -->
<g id="node3" class="node">
<title>Card_InjectsInto_refl</title>
<g id="a_node3"><a xlink:href="Card.html#InjectsInto_refl" xlink:title="InjectsInto_refl">
<ellipse fill="#f070d1" stroke="black" cx="3039" cy="-1435.73" rx="80.68" ry="18"/>
<ellipse fill="none" stroke="black" cx="3039" cy="-1435.73" rx="84.68" ry="22"/>
<ellipse fill="none" stroke="black" cx="3039" cy="-1435.73" rx="88.69" ry="26"/>
<text text-anchor="middle" x="3039" y="-1432.03" font-family="Times,serif" font-size="14.00">InjectsInto_refl</text>
</a>
</g>
</g>
<!-- Card_InjectsInto_refl&#45;&gt;Card_InjectsInto -->
<g id="edge3" class="edge">
<title>Card_InjectsInto_refl&#45;&gt;Card_InjectsInto</title>
<path fill="none" stroke="black" d="M3049.79,-1409.77C3077.21,-1346.34 3149.38,-1179.38 3177.53,-1114.27"/>
<polygon fill="black" stroke="black" points="3180.9,-1115.29 3181.65,-1104.72 3174.47,-1112.51 3180.9,-1115.29"/>
</g>
<!-- Card_Injection_refl -->
<g id="node6" class="node">
<title>Card_Injection_refl</title>
<g id="a_node6"><a xlink:href="Card.html#Injection_refl" xlink:title="Injection_refl">
<ellipse fill="#f070d1" stroke="black" cx="3039" cy="-1086.73" rx="71.49" ry="18"/>
<text text-anchor="middle" x="3039" y="-1083.03" font-family="Times,serif" font-size="14.00">Injection_refl</text>
</a>
</g>
</g>
<!-- Card_InjectsInto_refl&#45;&gt;Card_Injection_refl -->
<g id="edge4" class="edge">
<title>Card_InjectsInto_refl&#45;&gt;Card_Injection_refl</title>
<path fill="none" stroke="black" d="M3039,-1409.49C3039,-1346.25 3039,-1181.32 3039,-1115.47"/>
<polygon fill="black" stroke="black" points="3042.5,-1115.08 3039,-1105.08 3035.5,-1115.08 3042.5,-1115.08"/>
</g>
<!-- Card_InjectsInto&#45;&gt;Card_Injection -->
<g id="edge5" class="edge">
<title>Card_InjectsInto&#45;&gt;Card_Injection</title>
<path fill="none" stroke="black" d="M3184.86,-1068.34C3172.44,-1016.16 3135.4,-860.6 3120.41,-797.64"/>
<polygon fill="black" stroke="black" points="3123.76,-796.59 3118.03,-787.67 3116.95,-798.21 3123.76,-796.59"/>
</g>
<!-- Card_Injection_trans -->
<g id="node5" class="node">
<title>Card_Injection_trans</title>
<g id="a_node5"><a xlink:href="Card.html#Injection_trans" xlink:title="Injection_trans">
<ellipse fill="#f070d1" stroke="black" cx="2862" cy="-1086.73" rx="79.89" ry="18"/>
<ellipse fill="none" stroke="black" cx="2862" cy="-1086.73" rx="83.89" ry="22"/>
<ellipse fill="none" stroke="black" cx="2862" cy="-1086.73" rx="87.89" ry="26"/>
<text text-anchor="middle" x="2862" y="-1083.03" font-family="Times,serif" font-size="14.00">Injection_trans</text>
</a>
</g>
</g>
<!-- Card_Injection_trans&#45;&gt;Card_Injection -->
<g id="edge6" class="edge">
<title>Card_Injection_trans&#45;&gt;Card_Injection</title>
<path fill="none" stroke="black" d="M2881.56,-1061.27C2928.52,-1002.58 3047.18,-854.26 3094.29,-795.37"/>
<polygon fill="black" stroke="black" points="3097.19,-797.35 3100.7,-787.35 3091.72,-792.98 3097.19,-797.35"/>
</g>
<!-- Card_Injection_refl&#45;&gt;Card_Injection -->
<g id="edge7" class="edge">
<title>Card_Injection_refl&#45;&gt;Card_Injection</title>
<path fill="none" stroke="black" d="M3043.14,-1068.34C3055.56,-1016.16 3092.6,-860.6 3107.59,-797.64"/>
<polygon fill="black" stroke="black" points="3111.05,-798.21 3109.97,-787.67 3104.24,-796.59 3111.05,-798.21"/>
</g>
<!-- Card_preorder_card -->
<g id="node8" class="node">
<title>Card_preorder_card</title>
<g id="a_node8"><a xlink:href="Card.html#preorder_card" xlink:title="preorder_card">
<ellipse fill="#f070d1" stroke="black" cx="2671" cy="-1086.73" rx="76.87" ry="18"/>
<ellipse fill="none" stroke="black" cx="2671" cy="-1086.73" rx="80.88" ry="22"/>
<ellipse fill="none" stroke="black" cx="2671" cy="-1086.73" rx="84.89" ry="26"/>
<text text-anchor="middle" x="2671" y="-1083.03" font-family="Times,serif" font-size="14.00">preorder_card</text>
</a>
</g>
</g>
<!-- Card_transitive_card -->
<g id="node9" class="node">
<title>Card_transitive_card</title>
<g id="a_node9"><a xlink:href="Card.html#transitive_card" xlink:title="transitive_card">
<ellipse fill="#f070d1" stroke="black" cx="2428" cy="-769.73" rx="80.69" ry="18"/>
<text text-anchor="middle" x="2428" y="-766.03" font-family="Times,serif" font-size="14.00">transitive_card</text>
</a>
</g>
</g>
<!-- Card_preorder_card&#45;&gt;Card_transitive_card -->
<g id="edge8" class="edge">
<title>Card_preorder_card&#45;&gt;Card_transitive_card</title>
<path fill="none" stroke="black" d="M2652.13,-1061.27C2606.96,-1002.72 2492.97,-854.95 2447.33,-795.79"/>
<polygon fill="black" stroke="black" points="2449.99,-793.5 2441.11,-787.72 2444.45,-797.78 2449.99,-793.5"/>
</g>
<!-- Card_reflexive_card -->
<g id="node10" class="node">
<title>Card_reflexive_card</title>
<g id="a_node10"><a xlink:href="Card.html#reflexive_card" xlink:title="reflexive_card">
<ellipse fill="#f070d1" stroke="black" cx="2602" cy="-769.73" rx="75.29" ry="18"/>
<text text-anchor="middle" x="2602" y="-766.03" font-family="Times,serif" font-size="14.00">reflexive_card</text>
</a>
</g>
</g>
<!-- Card_preorder_card&#45;&gt;Card_reflexive_card -->
<g id="edge9" class="edge">
<title>Card_preorder_card&#45;&gt;Card_reflexive_card</title>
<path fill="none" stroke="black" d="M2665.53,-1060.75C2652.78,-1002.54 2621.18,-858.28 2607.96,-797.94"/>
<polygon fill="black" stroke="black" points="2611.35,-797.04 2605.79,-788.02 2604.51,-798.54 2611.35,-797.04"/>
</g>
<!-- Card_le_card -->
<g id="node26" class="node">
<title>Card_le_card</title>
<g id="a_node26"><a xlink:href="Card.html#le_card" xlink:title="le_card">
<ellipse fill="#f070d1" stroke="black" cx="2740" cy="-769.73" rx="44.39" ry="18"/>
<text text-anchor="middle" x="2740" y="-766.03" font-family="Times,serif" font-size="14.00">le_card</text>
</a>
</g>
</g>
<!-- Card_preorder_card&#45;&gt;Card_le_card -->
<g id="edge10" class="edge">
<title>Card_preorder_card&#45;&gt;Card_le_card</title>
<path fill="none" stroke="black" d="M2676.47,-1060.75C2689.22,-1002.54 2720.82,-858.28 2734.04,-797.94"/>
<polygon fill="black" stroke="black" points="2737.49,-798.54 2736.21,-788.02 2730.65,-797.04 2737.49,-798.54"/>
</g>
<!-- Card_leq_card -->
<g id="node31" class="node">
<title>Card_leq_card</title>
<g id="a_node31"><a xlink:href="Card.html#leq_card" xlink:title="leq_card">
<ellipse fill="#f070d1" stroke="black" cx="2515" cy="-451.73" rx="50.09" ry="18"/>
<text text-anchor="middle" x="2515" y="-448.03" font-family="Times,serif" font-size="14.00">leq_card</text>
</a>
</g>
</g>
<!-- Card_transitive_card&#45;&gt;Card_leq_card -->
<g id="edge11" class="edge">
<title>Card_transitive_card&#45;&gt;Card_leq_card</title>
<path fill="none" stroke="black" d="M2432.68,-751.74C2446.99,-699.76 2490.25,-542.61 2507.64,-479.44"/>
<polygon fill="black" stroke="black" points="2511.02,-480.37 2510.3,-469.8 2504.27,-478.51 2511.02,-480.37"/>
</g>
<!-- Card_reflexive_card&#45;&gt;Card_leq_card -->
<g id="edge12" class="edge">
<title>Card_reflexive_card&#45;&gt;Card_leq_card</title>
<path fill="none" stroke="black" d="M2597.32,-751.74C2583.01,-699.76 2539.75,-542.61 2522.36,-479.44"/>
<polygon fill="black" stroke="black" points="2525.73,-478.51 2519.7,-469.8 2518.98,-480.37 2525.73,-478.51"/>
</g>
<!-- Card_exp_card_mult_mult -->
<g id="node11" class="node">
<title>Card_exp_card_mult_mult</title>
<g id="a_node11"><a xlink:href="Card.html#exp_card_mult_mult" xlink:title="exp_card_mult_mult">
<ellipse fill="#f070d1" stroke="black" cx="1733" cy="-1086.73" rx="103.98" ry="18"/>
<ellipse fill="none" stroke="black" cx="1733" cy="-1086.73" rx="107.98" ry="22"/>
<ellipse fill="none" stroke="black" cx="1733" cy="-1086.73" rx="111.98" ry="26"/>
<text text-anchor="middle" x="1733" y="-1083.03" font-family="Times,serif" font-size="14.00">exp_card_mult_mult</text>
</a>
</g>
</g>
<!-- Card_mult_card -->
<g id="node29" class="node">
<title>Card_mult_card</title>
<g id="a_node29"><a xlink:href="Card.html#mult_card" xlink:title="mult_card">
<ellipse fill="#f070d1" stroke="black" cx="1343" cy="-769.73" rx="57.39" ry="18"/>
<text text-anchor="middle" x="1343" y="-766.03" font-family="Times,serif" font-size="14.00">mult_card</text>
</a>
</g>
</g>
<!-- Card_exp_card_mult_mult&#45;&gt;Card_mult_card -->
<g id="edge13" class="edge">
<title>Card_exp_card_mult_mult&#45;&gt;Card_mult_card</title>
<path fill="none" stroke="black" d="M1703.04,-1061.53C1629.69,-1002.28 1441.86,-850.58 1370.8,-793.18"/>
<polygon fill="black" stroke="black" points="1372.71,-790.22 1362.73,-786.66 1368.31,-795.67 1372.71,-790.22"/>
</g>
<!-- Card_exp_card -->
<g id="node32" class="node">
<title>Card_exp_card</title>
<g id="a_node32"><a xlink:href="Card.html#exp_card" xlink:title="exp_card">
<ellipse fill="#f070d1" stroke="black" cx="1948" cy="-769.73" rx="51.99" ry="18"/>
<text text-anchor="middle" x="1948" y="-766.03" font-family="Times,serif" font-size="14.00">exp_card</text>
</a>
</g>
</g>
<!-- Card_exp_card_mult_mult&#45;&gt;Card_exp_card -->
<g id="edge14" class="edge">
<title>Card_exp_card_mult_mult&#45;&gt;Card_exp_card</title>
<path fill="none" stroke="black" d="M1749.87,-1061.01C1789.98,-1002.24 1890.7,-854.68 1930.97,-795.68"/>
<polygon fill="black" stroke="black" points="1933.93,-797.55 1936.68,-787.32 1928.15,-793.6 1933.93,-797.55"/>
</g>
<!-- Card_exp_mult_card_exp -->
<g id="node12" class="node">
<title>Card_exp_mult_card_exp</title>
<g id="a_node12"><a xlink:href="Card.html#exp_mult_card_exp" xlink:title="exp_mult_card_exp">
<ellipse fill="#f070d1" stroke="black" cx="1737" cy="-1435.73" rx="98.6" ry="18"/>
<ellipse fill="none" stroke="black" cx="1737" cy="-1435.73" rx="102.59" ry="22"/>
<ellipse fill="none" stroke="black" cx="1737" cy="-1435.73" rx="106.58" ry="26"/>
<text text-anchor="middle" x="1737" y="-1432.03" font-family="Times,serif" font-size="14.00">exp_mult_card_exp</text>
</a>
</g>
</g>
<!-- Card_commutative_prod -->
<g id="node20" class="node">
<title>Card_commutative_prod</title>
<g id="a_node20"><a xlink:href="Card.html#commutative_prod" xlink:title="commutative_prod">
<ellipse fill="#f070d1" stroke="black" cx="1268" cy="-1086.73" rx="96.68" ry="18"/>
<text text-anchor="middle" x="1268" y="-1083.03" font-family="Times,serif" font-size="14.00">commutative_prod</text>
</a>
</g>
</g>
<!-- Card_exp_mult_card_exp&#45;&gt;Card_commutative_prod -->
<g id="edge15" class="edge">
<title>Card_exp_mult_card_exp&#45;&gt;Card_commutative_prod</title>
<path fill="none" stroke="black" d="M1704.76,-1410.88C1618.43,-1347 1382.82,-1172.68 1298.51,-1110.3"/>
<polygon fill="black" stroke="black" points="1300.49,-1107.42 1290.37,-1104.28 1296.33,-1113.04 1300.49,-1107.42"/>
</g>
<!-- Card_exp_mult_card_exp&#45;&gt;Card_exp_card -->
<g id="edge16" class="edge">
<title>Card_exp_mult_card_exp&#45;&gt;Card_exp_card</title>
<path fill="none" stroke="black" d="M1796.6,-1413.96C1900.28,-1374.19 2110.9,-1276.38 2196,-1112.73 2265.13,-979.78 2065.96,-841.21 1982.71,-790.67"/>
<polygon fill="black" stroke="black" points="1984.47,-787.64 1974.09,-785.5 1980.87,-793.64 1984.47,-787.64"/>
</g>
<!-- Card_exp_card_sum_mult -->
<g id="node13" class="node">
<title>Card_exp_card_sum_mult</title>
<g id="a_node13"><a xlink:href="Card.html#exp_card_sum_mult" xlink:title="exp_card_sum_mult">
<ellipse fill="#f070d1" stroke="black" cx="1493" cy="-1086.73" rx="102.08" ry="18"/>
<ellipse fill="none" stroke="black" cx="1493" cy="-1086.73" rx="106.08" ry="22"/>
<ellipse fill="none" stroke="black" cx="1493" cy="-1086.73" rx="110.08" ry="26"/>
<text text-anchor="middle" x="1493" y="-1083.03" font-family="Times,serif" font-size="14.00">exp_card_sum_mult</text>
</a>
</g>
</g>
<!-- Card_exp_card_sum_mult&#45;&gt;Card_mult_card -->
<g id="edge17" class="edge">
<title>Card_exp_card_sum_mult&#45;&gt;Card_mult_card</title>
<path fill="none" stroke="black" d="M1481.1,-1060.75C1453.21,-1002.16 1383.8,-856.4 1355.4,-796.77"/>
<polygon fill="black" stroke="black" points="1358.52,-795.17 1351.06,-787.65 1352.2,-798.18 1358.52,-795.17"/>
</g>
<!-- Card_plus_card -->
<g id="node30" class="node">
<title>Card_plus_card</title>
<g id="a_node30"><a xlink:href="Card.html#plus_card" xlink:title="plus_card">
<ellipse fill="#f070d1" stroke="black" cx="575" cy="-769.73" rx="55.49" ry="18"/>
<text text-anchor="middle" x="575" y="-766.03" font-family="Times,serif" font-size="14.00">plus_card</text>
</a>
</g>
</g>
<!-- Card_exp_card_sum_mult&#45;&gt;Card_plus_card -->
<g id="edge18" class="edge">
<title>Card_exp_card_sum_mult&#45;&gt;Card_plus_card</title>
<path fill="none" stroke="black" d="M1432.41,-1064.94C1260.73,-1006.03 773.58,-838.87 621.17,-786.57"/>
<polygon fill="black" stroke="black" points="622.21,-783.23 611.62,-783.29 619.94,-789.85 622.21,-783.23"/>
</g>
<!-- Card_exp_card_sum_mult&#45;&gt;Card_exp_card -->
<g id="edge19" class="edge">
<title>Card_exp_card_sum_mult&#45;&gt;Card_exp_card</title>
<path fill="none" stroke="black" d="M1527.57,-1061.79C1613.51,-1002.3 1835.75,-848.44 1917.36,-791.94"/>
<polygon fill="black" stroke="black" points="1919.48,-794.73 1925.71,-786.16 1915.49,-788.98 1919.48,-794.73"/>
</g>
<!-- Card_exp_one_card -->
<g id="node14" class="node">
<title>Card_exp_one_card</title>
<g id="a_node14"><a xlink:href="Card.html#exp_one_card" xlink:title="exp_one_card">
<ellipse fill="#f070d1" stroke="black" cx="2487" cy="-1086.73" rx="73.39" ry="18"/>
<ellipse fill="none" stroke="black" cx="2487" cy="-1086.73" rx="77.39" ry="22"/>
<ellipse fill="none" stroke="black" cx="2487" cy="-1086.73" rx="81.39" ry="26"/>
<text text-anchor="middle" x="2487" y="-1083.03" font-family="Times,serif" font-size="14.00">exp_one_card</text>
</a>
</g>
</g>
<!-- Card_one_card -->
<g id="node27" class="node">
<title>Card_one_card</title>
<g id="a_node27"><a xlink:href="Card.html#one_card" xlink:title="one_card">
<ellipse fill="#f070d1" stroke="black" cx="2119" cy="-769.73" rx="51.99" ry="18"/>
<text text-anchor="middle" x="2119" y="-766.03" font-family="Times,serif" font-size="14.00">one_card</text>
</a>
</g>
</g>
<!-- Card_exp_one_card&#45;&gt;Card_one_card -->
<g id="edge20" class="edge">
<title>Card_exp_one_card&#45;&gt;Card_one_card</title>
<path fill="none" stroke="black" d="M2459.34,-1062.05C2390.59,-1003.21 2212.68,-850.92 2145.35,-793.28"/>
<polygon fill="black" stroke="black" points="2147.57,-790.58 2137.7,-786.73 2143.02,-795.9 2147.57,-790.58"/>
</g>
<!-- Card_exp_one_card&#45;&gt;Card_exp_card -->
<g id="edge21" class="edge">
<title>Card_exp_one_card&#45;&gt;Card_exp_card</title>
<path fill="none" stroke="black" d="M2449.1,-1063.58C2348.82,-1004.97 2077.68,-846.52 1982,-790.6"/>
<polygon fill="black" stroke="black" points="1983.7,-787.54 1973.3,-785.51 1980.16,-793.58 1983.7,-787.54"/>
</g>
<!-- Card_exp_card_one -->
<g id="node15" class="node">
<title>Card_exp_card_one</title>
<g id="a_node15"><a xlink:href="Card.html#exp_card_one" xlink:title="exp_card_one">
<ellipse fill="#f070d1" stroke="black" cx="2306" cy="-1086.73" rx="73.39" ry="18"/>
<ellipse fill="none" stroke="black" cx="2306" cy="-1086.73" rx="77.39" ry="22"/>
<ellipse fill="none" stroke="black" cx="2306" cy="-1086.73" rx="81.39" ry="26"/>
<text text-anchor="middle" x="2306" y="-1083.03" font-family="Times,serif" font-size="14.00">exp_card_one</text>
</a>
</g>
</g>
<!-- Card_exp_card_one&#45;&gt;Card_one_card -->
<g id="edge22" class="edge">
<title>Card_exp_card_one&#45;&gt;Card_one_card</title>
<path fill="none" stroke="black" d="M2291.33,-1061.01C2256.59,-1002.5 2169.61,-855.98 2134.28,-796.46"/>
<polygon fill="black" stroke="black" points="2137.18,-794.5 2129.07,-787.69 2131.16,-798.07 2137.18,-794.5"/>
</g>
<!-- Card_exp_card_one&#45;&gt;Card_exp_card -->
<g id="edge23" class="edge">
<title>Card_exp_card_one&#45;&gt;Card_exp_card</title>
<path fill="none" stroke="black" d="M2279.09,-1062.05C2212.35,-1003.33 2039.84,-851.54 1974.03,-793.63"/>
<polygon fill="black" stroke="black" points="1976.01,-790.71 1966.19,-786.73 1971.39,-795.97 1976.01,-790.71"/>
</g>
<!-- Card_exp_zero_card -->
<g id="node16" class="node">
<title>Card_exp_zero_card</title>
<g id="a_node16"><a xlink:href="Card.html#exp_zero_card" xlink:title="exp_zero_card">
<ellipse fill="#f070d1" stroke="black" cx="1948" cy="-1086.73" rx="76.87" ry="18"/>
<ellipse fill="none" stroke="black" cx="1948" cy="-1086.73" rx="80.88" ry="22"/>
<ellipse fill="none" stroke="black" cx="1948" cy="-1086.73" rx="84.89" ry="26"/>
<text text-anchor="middle" x="1948" y="-1083.03" font-family="Times,serif" font-size="14.00">exp_zero_card</text>
</a>
</g>
</g>
<!-- Card_exp_zero_card&#45;&gt;Card_one_card -->
<g id="edge24" class="edge">
<title>Card_exp_zero_card&#45;&gt;Card_one_card</title>
<path fill="none" stroke="black" d="M1961.42,-1061.01C1993.12,-1002.62 2072.39,-856.58 2104.83,-796.83"/>
<polygon fill="black" stroke="black" points="2108.1,-798.14 2109.79,-787.69 2101.95,-794.8 2108.1,-798.14"/>
</g>
<!-- Card_zero_card -->
<g id="node28" class="node">
<title>Card_zero_card</title>
<g id="a_node28"><a xlink:href="Card.html#zero_card" xlink:title="zero_card">
<ellipse fill="#f070d1" stroke="black" cx="1044" cy="-769.73" rx="55.79" ry="18"/>
<text text-anchor="middle" x="1044" y="-766.03" font-family="Times,serif" font-size="14.00">zero_card</text>
</a>
</g>
</g>
<!-- Card_exp_zero_card&#45;&gt;Card_zero_card -->
<g id="edge25" class="edge">
<title>Card_exp_zero_card&#45;&gt;Card_zero_card</title>
<path fill="none" stroke="black" d="M1893.49,-1066.73C1729.51,-1009.59 1242.71,-839.97 1090.22,-786.83"/>
<polygon fill="black" stroke="black" points="1091.26,-783.49 1080.66,-783.5 1088.95,-790.1 1091.26,-783.49"/>
</g>
<!-- Card_exp_zero_card&#45;&gt;Card_exp_card -->
<g id="edge26" class="edge">
<title>Card_exp_zero_card&#45;&gt;Card_exp_card</title>
<path fill="none" stroke="black" d="M1948,-1060.48C1948,-1002.21 1948,-858.69 1948,-798.26"/>
<polygon fill="black" stroke="black" points="1951.5,-797.98 1948,-787.98 1944.5,-797.98 1951.5,-797.98"/>
</g>
<!-- Card_issemiring_card -->
<g id="node17" class="node">
<title>Card_issemiring_card</title>
<g id="a_node17"><a xlink:href="Card.html#issemiring_card" xlink:title="issemiring_card">
<ellipse fill="#f070d1" stroke="black" cx="773" cy="-1435.73" rx="84.49" ry="18"/>
<ellipse fill="none" stroke="black" cx="773" cy="-1435.73" rx="88.49" ry="22"/>
<ellipse fill="none" stroke="black" cx="773" cy="-1435.73" rx="92.49" ry="26"/>
<text text-anchor="middle" x="773" y="-1432.03" font-family="Times,serif" font-size="14.00">issemiring_card</text>
</a>
</g>
</g>
<!-- Card_leftabsorb_card -->
<g id="node18" class="node">
<title>Card_leftabsorb_card</title>
<g id="a_node18"><a xlink:href="Card.html#leftabsorb_card" xlink:title="leftabsorb_card">
<ellipse fill="#f070d1" stroke="black" cx="876" cy="-1086.73" rx="83.39" ry="18"/>
<text text-anchor="middle" x="876" y="-1083.03" font-family="Times,serif" font-size="14.00">leftabsorb_card</text>
</a>
</g>
</g>
<!-- Card_issemiring_card&#45;&gt;Card_leftabsorb_card -->
<g id="edge27" class="edge">
<title>Card_issemiring_card&#45;&gt;Card_leftabsorb_card</title>
<path fill="none" stroke="black" d="M780.41,-1409.77C799.2,-1346.48 848.59,-1180.07 868,-1114.67"/>
<polygon fill="black" stroke="black" points="871.47,-1115.3 870.96,-1104.72 864.75,-1113.31 871.47,-1115.3"/>
</g>
<!-- Card_leftdistributive_card -->
<g id="node19" class="node">
<title>Card_leftdistributive_card</title>
<g id="a_node19"><a xlink:href="Card.html#leftdistributive_card" xlink:title="leftdistributive_card">
<ellipse fill="#f070d1" stroke="black" cx="670" cy="-1086.73" rx="105.08" ry="18"/>
<text text-anchor="middle" x="670" y="-1083.03" font-family="Times,serif" font-size="14.00">leftdistributive_card</text>
</a>
</g>
</g>
<!-- Card_issemiring_card&#45;&gt;Card_leftdistributive_card -->
<g id="edge28" class="edge">
<title>Card_issemiring_card&#45;&gt;Card_leftdistributive_card</title>
<path fill="none" stroke="black" d="M765.59,-1409.77C746.8,-1346.48 697.41,-1180.07 678,-1114.67"/>
<polygon fill="black" stroke="black" points="681.25,-1113.31 675.04,-1104.72 674.53,-1115.3 681.25,-1113.31"/>
</g>
<!-- Card_issemiring_card&#45;&gt;Card_commutative_prod -->
<g id="edge29" class="edge">
<title>Card_issemiring_card&#45;&gt;Card_commutative_prod</title>
<path fill="none" stroke="black" d="M806.25,-1411.42C896.77,-1347.97 1146.8,-1172.69 1235.93,-1110.21"/>
<polygon fill="black" stroke="black" points="1238.1,-1112.96 1244.28,-1104.35 1234.08,-1107.23 1238.1,-1112.96"/>
</g>
<!-- Card_rightid_prod -->
<g id="node21" class="node">
<title>Card_rightid_prod</title>
<g id="a_node21"><a xlink:href="Card.html#rightid_prod" xlink:title="rightid_prod">
<ellipse fill="#f070d1" stroke="black" cx="2119" cy="-1086.73" rx="68.49" ry="18"/>
<text text-anchor="middle" x="2119" y="-1083.03" font-family="Times,serif" font-size="14.00">rightid_prod</text>
</a>
</g>
</g>
<!-- Card_issemiring_card&#45;&gt;Card_rightid_prod -->
<g id="edge30" class="edge">
<title>Card_issemiring_card&#45;&gt;Card_rightid_prod</title>
<path fill="none" stroke="black" d="M842.9,-1418.69C1035.27,-1374.19 1588.35,-1243.78 2042,-1112.73 2050.83,-1110.18 2060.16,-1107.3 2069.18,-1104.43"/>
<polygon fill="black" stroke="black" points="2070.35,-1107.73 2078.79,-1101.33 2068.2,-1101.07 2070.35,-1107.73"/>
</g>
<!-- Card_associative_prod -->
<g id="node22" class="node">
<title>Card_associative_prod</title>
<g id="a_node22"><a xlink:href="Card.html#associative_prod" xlink:title="associative_prod">
<ellipse fill="#f070d1" stroke="black" cx="1065" cy="-1086.73" rx="87.99" ry="18"/>
<text text-anchor="middle" x="1065" y="-1083.03" font-family="Times,serif" font-size="14.00">associative_prod</text>
</a>
</g>
</g>
<!-- Card_issemiring_card&#45;&gt;Card_associative_prod -->
<g id="edge31" class="edge">
<title>Card_issemiring_card&#45;&gt;Card_associative_prod</title>
<path fill="none" stroke="black" d="M793.53,-1410.33C846.95,-1346.84 989.87,-1177 1043.91,-1112.79"/>
<polygon fill="black" stroke="black" points="1046.88,-1114.7 1050.64,-1104.8 1041.52,-1110.2 1046.88,-1114.7"/>
</g>
<!-- Card_commutative_sum -->
<g id="node23" class="node">
<title>Card_commutative_sum</title>
<g id="a_node23"><a xlink:href="Card.html#commutative_sum" xlink:title="commutative_sum">
<ellipse fill="#f070d1" stroke="black" cx="111" cy="-1086.73" rx="94.78" ry="18"/>
<text text-anchor="middle" x="111" y="-1083.03" font-family="Times,serif" font-size="14.00">commutative_sum</text>
</a>
</g>
</g>
<!-- Card_issemiring_card&#45;&gt;Card_commutative_sum -->
<g id="edge32" class="edge">
<title>Card_issemiring_card&#45;&gt;Card_commutative_sum</title>
<path fill="none" stroke="black" d="M730.58,-1412.49C610.27,-1349.43 268.02,-1170.03 150.89,-1108.64"/>
<polygon fill="black" stroke="black" points="152.36,-1105.45 141.87,-1103.91 149.11,-1111.65 152.36,-1105.45"/>
</g>
<!-- Card_rightid_sum -->
<g id="node24" class="node">
<title>Card_rightid_sum</title>
<g id="a_node24"><a xlink:href="Card.html#rightid_sum" xlink:title="rightid_sum">
<ellipse fill="#f070d1" stroke="black" cx="480" cy="-1086.73" rx="66.09" ry="18"/>
<text text-anchor="middle" x="480" y="-1083.03" font-family="Times,serif" font-size="14.00">rightid_sum</text>
</a>
</g>
</g>
<!-- Card_issemiring_card&#45;&gt;Card_rightid_sum -->
<g id="edge33" class="edge">
<title>Card_issemiring_card&#45;&gt;Card_rightid_sum</title>
<path fill="none" stroke="black" d="M752.4,-1410.33C698.67,-1346.7 554.71,-1176.21 500.78,-1112.34"/>
<polygon fill="black" stroke="black" points="503.21,-1109.79 494.08,-1104.4 497.86,-1114.3 503.21,-1109.79"/>
</g>
<!-- Card_associative_sum -->
<g id="node25" class="node">
<title>Card_associative_sum</title>
<g id="a_node25"><a xlink:href="Card.html#associative_sum" xlink:title="associative_sum">
<ellipse fill="#f070d1" stroke="black" cx="310" cy="-1086.73" rx="85.59" ry="18"/>
<text text-anchor="middle" x="310" y="-1083.03" font-family="Times,serif" font-size="14.00">associative_sum</text>
</a>
</g>
</g>
<!-- Card_issemiring_card&#45;&gt;Card_associative_sum -->
<g id="edge34" class="edge">
<title>Card_issemiring_card&#45;&gt;Card_associative_sum</title>
<path fill="none" stroke="black" d="M741.54,-1411.15C656.63,-1347.51 423.6,-1172.86 340.19,-1110.35"/>
<polygon fill="black" stroke="black" points="342.24,-1107.51 332.14,-1104.32 338.04,-1113.12 342.24,-1107.51"/>
</g>
<!-- Card_leftabsorb_card&#45;&gt;Card_zero_card -->
<g id="edge35" class="edge">
<title>Card_leftabsorb_card&#45;&gt;Card_zero_card</title>
<path fill="none" stroke="black" d="M885.03,-1068.79C912.78,-1016.77 996.9,-859.03 1030.21,-796.58"/>
<polygon fill="black" stroke="black" points="1033.31,-798.22 1034.92,-787.75 1027.13,-794.92 1033.31,-798.22"/>
</g>
<!-- Card_leftabsorb_card&#45;&gt;Card_mult_card -->
<g id="edge36" class="edge">
<title>Card_leftabsorb_card&#45;&gt;Card_mult_card</title>
<path fill="none" stroke="black" d="M900.12,-1069.46C978.13,-1016.84 1223.57,-851.28 1311.38,-792.06"/>
<polygon fill="black" stroke="black" points="1313.52,-794.84 1319.85,-786.34 1309.6,-789.03 1313.52,-794.84"/>
</g>
<!-- Card_leftdistributive_card&#45;&gt;Card_mult_card -->
<g id="edge37" class="edge">
<title>Card_leftdistributive_card&#45;&gt;Card_mult_card</title>
<path fill="none" stroke="black" d="M704.3,-1069.67C817.88,-1016.51 1181.38,-846.37 1302.96,-789.47"/>
<polygon fill="black" stroke="black" points="1304.72,-792.51 1312.3,-785.1 1301.76,-786.17 1304.72,-792.51"/>
</g>
<!-- Card_leftdistributive_card&#45;&gt;Card_plus_card -->
<g id="edge38" class="edge">
<title>Card_leftdistributive_card&#45;&gt;Card_plus_card</title>
<path fill="none" stroke="black" d="M664.76,-1068.34C649.02,-1016.16 602.11,-860.6 583.11,-797.64"/>
<polygon fill="black" stroke="black" points="586.35,-796.24 580.11,-787.67 579.65,-798.26 586.35,-796.24"/>
</g>
<!-- Card_commutative_prod&#45;&gt;Card_mult_card -->
<g id="edge39" class="edge">
<title>Card_commutative_prod&#45;&gt;Card_mult_card</title>
<path fill="none" stroke="black" d="M1272.14,-1068.34C1284.53,-1016.28 1321.43,-861.33 1336.49,-798.08"/>
<polygon fill="black" stroke="black" points="1339.96,-798.6 1338.87,-788.06 1333.15,-796.98 1339.96,-798.6"/>
</g>
<!-- Card_rightid_prod&#45;&gt;Card_one_card -->
<g id="edge40" class="edge">
<title>Card_rightid_prod&#45;&gt;Card_one_card</title>
<path fill="none" stroke="black" d="M2119,-1068.34C2119,-1016.28 2119,-861.33 2119,-798.08"/>
<polygon fill="black" stroke="black" points="2122.5,-798.06 2119,-788.06 2115.5,-798.06 2122.5,-798.06"/>
</g>
<!-- Card_rightid_prod&#45;&gt;Card_mult_card -->
<g id="edge41" class="edge">
<title>Card_rightid_prod&#45;&gt;Card_mult_card</title>
<path fill="none" stroke="black" d="M2083.38,-1071.27C1956.22,-1019.65 1524.8,-844.52 1386.23,-788.28"/>
<polygon fill="black" stroke="black" points="1387.35,-784.95 1376.77,-784.44 1384.72,-791.44 1387.35,-784.95"/>
</g>
<!-- Card_associative_prod&#45;&gt;Card_mult_card -->
<g id="edge42" class="edge">
<title>Card_associative_prod&#45;&gt;Card_mult_card</title>
<path fill="none" stroke="black" d="M1079.95,-1068.79C1126.25,-1016.33 1267.44,-856.34 1321.57,-795.01"/>
<polygon fill="black" stroke="black" points="1324.32,-797.18 1328.32,-787.37 1319.08,-792.55 1324.32,-797.18"/>
</g>
<!-- Card_commutative_sum&#45;&gt;Card_plus_card -->
<g id="edge43" class="edge">
<title>Card_commutative_sum&#45;&gt;Card_plus_card</title>
<path fill="none" stroke="black" d="M135.29,-1069.24C213.17,-1016.37 456.59,-851.12 543.65,-792.01"/>
<polygon fill="black" stroke="black" points="545.74,-794.82 552.05,-786.31 541.81,-789.03 545.74,-794.82"/>
</g>
<!-- Card_rightid_sum&#45;&gt;Card_zero_card -->
<g id="edge44" class="edge">
<title>Card_rightid_sum&#45;&gt;Card_zero_card</title>
<path fill="none" stroke="black" d="M507.58,-1070.32C600.76,-1018.28 903.77,-849.05 1008.22,-790.71"/>
<polygon fill="black" stroke="black" points="1010.1,-793.67 1017.13,-785.74 1006.69,-787.56 1010.1,-793.67"/>
</g>
<!-- Card_rightid_sum&#45;&gt;Card_plus_card -->
<g id="edge45" class="edge">
<title>Card_rightid_sum&#45;&gt;Card_plus_card</title>
<path fill="none" stroke="black" d="M485.24,-1068.34C500.98,-1016.16 547.89,-860.6 566.89,-797.64"/>
<polygon fill="black" stroke="black" points="570.35,-798.26 569.89,-787.67 563.65,-796.24 570.35,-798.26"/>
</g>
<!-- Card_associative_sum&#45;&gt;Card_plus_card -->
<g id="edge46" class="edge">
<title>Card_associative_sum&#45;&gt;Card_plus_card</title>
<path fill="none" stroke="black" d="M324.25,-1068.79C368.3,-1016.43 502.43,-856.99 554.25,-795.39"/>
<polygon fill="black" stroke="black" points="557.24,-797.27 561,-787.37 551.89,-792.76 557.24,-797.27"/>
</g>
<!-- Card_le_card&#45;&gt;Card_leq_card -->
<g id="edge47" class="edge">
<title>Card_le_card&#45;&gt;Card_leq_card</title>
<path fill="none" stroke="black" d="M2728.22,-752.18C2691.25,-700.26 2577.34,-540.28 2532.96,-477.95"/>
<polygon fill="black" stroke="black" points="2535.59,-475.61 2526.94,-469.49 2529.88,-479.67 2535.59,-475.61"/>
</g>
<!-- Card_Card -->
<g id="node36" class="node">
<title>Card_Card</title>
<g id="a_node36"><a xlink:href="Card.html#Card" xlink:title="Card">
<ellipse fill="#f070d1" stroke="black" cx="1494" cy="-134.73" rx="33.29" ry="18"/>
<text text-anchor="middle" x="1494" y="-131.03" font-family="Times,serif" font-size="14.00">Card</text>
</a>
</g>
</g>
<!-- Card_one_card&#45;&gt;Card_Card -->
<g id="edge48" class="edge">
<title>Card_one_card&#45;&gt;Card_Card</title>
<path fill="none" stroke="black" d="M2102.92,-752.44C2017.36,-665.78 1615.62,-258.9 1516.26,-158.28"/>
<polygon fill="black" stroke="black" points="1518.64,-155.7 1509.12,-151.05 1513.66,-160.62 1518.64,-155.7"/>
</g>
<!-- Card_zero_card&#45;&gt;Card_Card -->
<g id="edge49" class="edge">
<title>Card_zero_card&#45;&gt;Card_Card</title>
<path fill="none" stroke="black" d="M1072.92,-754.24C1142.34,-717.91 1319.18,-615.88 1408,-477.73 1425.35,-450.74 1471.96,-238.61 1488.27,-162.66"/>
<polygon fill="black" stroke="black" points="1491.69,-163.39 1490.36,-152.88 1484.85,-161.92 1491.69,-163.39"/>
</g>
<!-- Card_prod_card -->
<g id="node33" class="node">
<title>Card_prod_card</title>
<g id="a_node33"><a xlink:href="Card.html#prod_card" xlink:title="prod_card">
<ellipse fill="#f070d1" stroke="black" cx="1494" cy="-451.73" rx="57.39" ry="18"/>
<text text-anchor="middle" x="1494" y="-448.03" font-family="Times,serif" font-size="14.00">prod_card</text>
</a>
</g>
</g>
<!-- Card_mult_card&#45;&gt;Card_prod_card -->
<g id="edge50" class="edge">
<title>Card_mult_card&#45;&gt;Card_prod_card</title>
<path fill="none" stroke="black" d="M1351.12,-751.74C1376.01,-699.66 1451.36,-541.96 1481.42,-479.05"/>
<polygon fill="black" stroke="black" points="1484.69,-480.33 1485.84,-469.8 1478.37,-477.32 1484.69,-480.33"/>
</g>
<!-- Card_sum_card -->
<g id="node34" class="node">
<title>Card_sum_card</title>
<g id="a_node34"><a xlink:href="Card.html#sum_card" xlink:title="sum_card">
<ellipse fill="#f070d1" stroke="black" cx="1344" cy="-451.73" rx="55.49" ry="18"/>
<text text-anchor="middle" x="1344" y="-448.03" font-family="Times,serif" font-size="14.00">sum_card</text>
</a>
</g>
</g>
<!-- Card_plus_card&#45;&gt;Card_sum_card -->
<g id="edge51" class="edge">
<title>Card_plus_card&#45;&gt;Card_sum_card</title>
<path fill="none" stroke="black" d="M608.04,-755.15C731.29,-704.51 1164.13,-526.64 1301.69,-470.11"/>
<polygon fill="black" stroke="black" points="1303.16,-473.29 1311.08,-466.26 1300.5,-466.82 1303.16,-473.29"/>
</g>
<!-- Card_leq_card&#45;&gt;Card_Card -->
<g id="edge52" class="edge">
<title>Card_leq_card&#45;&gt;Card_Card</title>
<path fill="none" stroke="black" d="M2478.36,-439.42C2319.87,-390.53 1694.01,-197.44 1532.3,-147.54"/>
<polygon fill="black" stroke="black" points="1532.92,-144.07 1522.33,-144.47 1530.85,-150.76 1532.92,-144.07"/>
</g>
<!-- Card_exp_card&#45;&gt;Card_Card -->
<g id="edge53" class="edge">
<title>Card_exp_card&#45;&gt;Card_Card</title>
<path fill="none" stroke="black" d="M1936.09,-752.12C1873.83,-665.31 1585.8,-263.72 1511.52,-160.15"/>
<polygon fill="black" stroke="black" points="1514.25,-157.96 1505.58,-151.87 1508.56,-162.04 1514.25,-157.96"/>
</g>
<!-- Card_prod_card&#45;&gt;Card_Card -->
<g id="edge54" class="edge">
<title>Card_prod_card&#45;&gt;Card_Card</title>
<path fill="none" stroke="black" d="M1494,-433.34C1494,-381.28 1494,-226.33 1494,-163.08"/>
<polygon fill="black" stroke="black" points="1497.5,-163.06 1494,-153.06 1490.5,-163.06 1497.5,-163.06"/>
</g>
<!-- Card_sum_card&#45;&gt;Card_Card -->
<g id="edge55" class="edge">
<title>Card_sum_card&#45;&gt;Card_Card</title>
<path fill="none" stroke="black" d="M1352.06,-433.79C1376.84,-381.75 1451.99,-223.95 1481.71,-161.53"/>
<polygon fill="black" stroke="black" points="1484.94,-162.9 1486.08,-152.37 1478.62,-159.89 1484.94,-162.9"/>
</g>
<!-- Card_card -->
<g id="node35" class="node">
<title>Card_card</title>
<g id="a_node35"><a xlink:href="Card.html#card" xlink:title="card">
<ellipse fill="#f070d1" stroke="black" cx="1232" cy="-451.73" rx="31.36" ry="18"/>
<ellipse fill="none" stroke="black" cx="1232" cy="-451.73" rx="35.38" ry="22"/>
<ellipse fill="none" stroke="black" cx="1232" cy="-451.73" rx="39.4" ry="26"/>
<text text-anchor="middle" x="1232" y="-448.03" font-family="Times,serif" font-size="14.00">card</text>
</a>
</g>
</g>
<!-- Card_card&#45;&gt;Card_Card -->
<g id="edge56" class="edge">
<title>Card_card&#45;&gt;Card_Card</title>
<path fill="none" stroke="black" d="M1250.42,-428.58C1298.05,-371.32 1424.96,-218.74 1474.14,-159.61"/>
<polygon fill="black" stroke="black" points="1477.11,-161.51 1480.81,-151.58 1471.73,-157.03 1477.11,-161.51"/>
</g>
</g>
</svg>
