<?xml version="1.0" encoding="UTF-8" standalone="no"?>
<!DOCTYPE svg PUBLIC "-//W3C//DTD SVG 1.1//EN"
 "http://www.w3.org/Graphics/SVG/1.1/DTD/svg11.dtd">
<!-- Generated by graphviz version 2.43.0 (0)
 -->
<!-- Title: HoTT_Classes_orders_dec_fields Pages: 1 -->
<svg width="1451pt" height="730pt"
 viewBox="0.00 0.00 1451.00 729.50" xmlns="http://www.w3.org/2000/svg" xmlns:xlink="http://www.w3.org/1999/xlink">
<g id="graph0" class="graph" transform="scale(1 1) rotate(0) translate(4 725.5)">
<title>HoTT_Classes_orders_dec_fields</title>
<polygon fill="white" stroke="transparent" points="-4,4 -4,-725.5 1447,-725.5 1447,4 -4,4"/>
<g id="clust1" class="cluster">
<title>cluster_dec_fields</title>
<polygon fill="#ffffc3" stroke="black" points="8,-21.62 8,-699.88 1435,-699.88 1435,-21.62 8,-21.62"/>
<text text-anchor="middle" x="51" y="-684.68" font-family="Times,serif" font-size="14.00">dec_fields</text>
</g>
<!-- dec_fields_flip_lt_dec_recip_r -->
<g id="node1" class="node">
<title>dec_fields_flip_lt_dec_recip_r</title>
<g id="a_node1"><a xlink:href="dec_fields.html#flip_lt_dec_recip_r" xlink:title="flip_lt_dec_recip_r">
<ellipse fill="#f070d1" stroke="black" cx="1325" cy="-307.62" rx="93.68" ry="18"/>
<ellipse fill="none" stroke="black" cx="1325" cy="-307.62" rx="97.68" ry="22"/>
<ellipse fill="none" stroke="black" cx="1325" cy="-307.62" rx="101.68" ry="26"/>
<text text-anchor="middle" x="1325" y="-303.92" font-family="Times,serif" font-size="14.00">flip_lt_dec_recip_r</text>
</a>
</g>
</g>
<!-- dec_fields_flip_lt_dec_recip -->
<g id="node3" class="node">
<title>dec_fields_flip_lt_dec_recip</title>
<g id="a_node3"><a xlink:href="dec_fields.html#flip_lt_dec_recip" xlink:title="flip_lt_dec_recip">
<ellipse fill="#f070d1" stroke="black" cx="1215" cy="-91.62" rx="85.29" ry="18"/>
<text text-anchor="middle" x="1215" y="-87.92" font-family="Times,serif" font-size="14.00">flip_lt_dec_recip</text>
</a>
</g>
</g>
<!-- dec_fields_flip_lt_dec_recip_r&#45;&gt;dec_fields_flip_lt_dec_recip -->
<g id="edge1" class="edge">
<title>dec_fields_flip_lt_dec_recip_r&#45;&gt;dec_fields_flip_lt_dec_recip</title>
<path fill="none" stroke="black" d="M1312.17,-281.65C1291.19,-240.84 1249.75,-160.23 1228.41,-118.7"/>
<polygon fill="black" stroke="black" points="1231.49,-117.04 1223.81,-109.75 1225.26,-120.24 1231.49,-117.04"/>
</g>
<!-- dec_fields_flip_lt_dec_recip_l -->
<g id="node2" class="node">
<title>dec_fields_flip_lt_dec_recip_l</title>
<g id="a_node2"><a xlink:href="dec_fields.html#flip_lt_dec_recip_l" xlink:title="flip_lt_dec_recip_l">
<ellipse fill="#f070d1" stroke="black" cx="1105" cy="-307.62" rx="92.1" ry="18"/>
<ellipse fill="none" stroke="black" cx="1105" cy="-307.62" rx="96.09" ry="22"/>
<ellipse fill="none" stroke="black" cx="1105" cy="-307.62" rx="100.08" ry="26"/>
<text text-anchor="middle" x="1105" y="-303.92" font-family="Times,serif" font-size="14.00">flip_lt_dec_recip_l</text>
</a>
</g>
</g>
<!-- dec_fields_flip_lt_dec_recip_l&#45;&gt;dec_fields_flip_lt_dec_recip -->
<g id="edge2" class="edge">
<title>dec_fields_flip_lt_dec_recip_l&#45;&gt;dec_fields_flip_lt_dec_recip</title>
<path fill="none" stroke="black" d="M1117.83,-281.65C1138.81,-240.84 1180.25,-160.23 1201.59,-118.7"/>
<polygon fill="black" stroke="black" points="1204.74,-120.24 1206.19,-109.75 1198.51,-117.04 1204.74,-120.24"/>
</g>
<!-- dec_fields_pos_dec_recip_compat -->
<g id="node10" class="node">
<title>dec_fields_pos_dec_recip_compat</title>
<g id="a_node10"><a xlink:href="dec_fields.html#pos_dec_recip_compat" xlink:title="pos_dec_recip_compat">
<ellipse fill="#f070d1" stroke="black" cx="482" cy="-91.62" rx="113.98" ry="18"/>
<text text-anchor="middle" x="482" y="-87.92" font-family="Times,serif" font-size="14.00">pos_dec_recip_compat</text>
</a>
</g>
</g>
<!-- dec_fields_flip_lt_dec_recip_l&#45;&gt;dec_fields_pos_dec_recip_compat -->
<g id="edge3" class="edge">
<title>dec_fields_flip_lt_dec_recip_l&#45;&gt;dec_fields_pos_dec_recip_compat</title>
<path fill="none" stroke="black" d="M1046.39,-286.49C926.33,-245.25 653.92,-151.67 537,-111.51"/>
<polygon fill="black" stroke="black" points="538.1,-108.19 527.51,-108.25 535.83,-114.81 538.1,-108.19"/>
</g>
<!-- dec_fields_flip_le_dec_recip_r -->
<g id="node4" class="node">
<title>dec_fields_flip_le_dec_recip_r</title>
<g id="a_node4"><a xlink:href="dec_fields.html#flip_le_dec_recip_r" xlink:title="flip_le_dec_recip_r">
<ellipse fill="#f070d1" stroke="black" cx="884" cy="-307.62" rx="94.79" ry="18"/>
<ellipse fill="none" stroke="black" cx="884" cy="-307.62" rx="98.79" ry="22"/>
<ellipse fill="none" stroke="black" cx="884" cy="-307.62" rx="102.78" ry="26"/>
<text text-anchor="middle" x="884" y="-303.92" font-family="Times,serif" font-size="14.00">flip_le_dec_recip_r</text>
</a>
</g>
</g>
<!-- dec_fields_flip_le_dec_recip -->
<g id="node6" class="node">
<title>dec_fields_flip_le_dec_recip</title>
<g id="a_node6"><a xlink:href="dec_fields.html#flip_le_dec_recip" xlink:title="flip_le_dec_recip">
<ellipse fill="#f070d1" stroke="black" cx="773" cy="-91.62" rx="86.38" ry="18"/>
<text text-anchor="middle" x="773" y="-87.92" font-family="Times,serif" font-size="14.00">flip_le_dec_recip</text>
</a>
</g>
</g>
<!-- dec_fields_flip_le_dec_recip_r&#45;&gt;dec_fields_flip_le_dec_recip -->
<g id="edge4" class="edge">
<title>dec_fields_flip_le_dec_recip_r&#45;&gt;dec_fields_flip_le_dec_recip</title>
<path fill="none" stroke="black" d="M871.05,-281.65C849.88,-240.84 808.07,-160.23 786.53,-118.7"/>
<polygon fill="black" stroke="black" points="789.6,-117.01 781.89,-109.75 783.38,-120.24 789.6,-117.01"/>
</g>
<!-- dec_fields_flip_le_dec_recip_l -->
<g id="node5" class="node">
<title>dec_fields_flip_le_dec_recip_l</title>
<g id="a_node5"><a xlink:href="dec_fields.html#flip_le_dec_recip_l" xlink:title="flip_le_dec_recip_l">
<ellipse fill="#f070d1" stroke="black" cx="662" cy="-307.62" rx="93.68" ry="18"/>
<ellipse fill="none" stroke="black" cx="662" cy="-307.62" rx="97.68" ry="22"/>
<ellipse fill="none" stroke="black" cx="662" cy="-307.62" rx="101.68" ry="26"/>
<text text-anchor="middle" x="662" y="-303.92" font-family="Times,serif" font-size="14.00">flip_le_dec_recip_l</text>
</a>
</g>
</g>
<!-- dec_fields_flip_le_dec_recip_l&#45;&gt;dec_fields_flip_le_dec_recip -->
<g id="edge5" class="edge">
<title>dec_fields_flip_le_dec_recip_l&#45;&gt;dec_fields_flip_le_dec_recip</title>
<path fill="none" stroke="black" d="M674.95,-281.65C696.12,-240.84 737.93,-160.23 759.47,-118.7"/>
<polygon fill="black" stroke="black" points="762.62,-120.24 764.11,-109.75 756.4,-117.01 762.62,-120.24"/>
</g>
<!-- dec_fields_flip_le_dec_recip_l&#45;&gt;dec_fields_pos_dec_recip_compat -->
<g id="edge6" class="edge">
<title>dec_fields_flip_le_dec_recip_l&#45;&gt;dec_fields_pos_dec_recip_compat</title>
<path fill="none" stroke="black" d="M641.35,-282.07C606.72,-240.9 537.34,-158.41 502.68,-117.21"/>
<polygon fill="black" stroke="black" points="505.35,-114.94 496.24,-109.54 500,-119.45 505.35,-114.94"/>
</g>
<!-- dec_fields_nonpos_dec_recip_compat -->
<g id="node7" class="node">
<title>dec_fields_nonpos_dec_recip_compat</title>
<g id="a_node7"><a xlink:href="dec_fields.html#nonpos_dec_recip_compat" xlink:title="nonpos_dec_recip_compat">
<ellipse fill="#f070d1" stroke="black" cx="410" cy="-545.62" rx="130.77" ry="18"/>
<ellipse fill="none" stroke="black" cx="410" cy="-545.62" rx="134.77" ry="22"/>
<ellipse fill="none" stroke="black" cx="410" cy="-545.62" rx="138.78" ry="26"/>
<text text-anchor="middle" x="410" y="-541.92" font-family="Times,serif" font-size="14.00">nonpos_dec_recip_compat</text>
</a>
</g>
</g>
<!-- dec_fields_nonneg_dec_recip_compat -->
<g id="node9" class="node">
<title>dec_fields_nonneg_dec_recip_compat</title>
<g id="a_node9"><a xlink:href="dec_fields.html#nonneg_dec_recip_compat" xlink:title="nonneg_dec_recip_compat">
<ellipse fill="#f070d1" stroke="black" cx="410" cy="-307.62" rx="131.88" ry="18"/>
<text text-anchor="middle" x="410" y="-303.92" font-family="Times,serif" font-size="14.00">nonneg_dec_recip_compat</text>
</a>
</g>
</g>
<!-- dec_fields_nonpos_dec_recip_compat&#45;&gt;dec_fields_nonneg_dec_recip_compat -->
<g id="edge7" class="edge">
<title>dec_fields_nonpos_dec_recip_compat&#45;&gt;dec_fields_nonneg_dec_recip_compat</title>
<path fill="none" stroke="black" d="M410,-519.36C410,-474.67 410,-382.02 410,-335.91"/>
<polygon fill="black" stroke="black" points="413.5,-335.77 410,-325.77 406.5,-335.77 413.5,-335.77"/>
</g>
<!-- dec_fields_neg_dec_recip_compat -->
<g id="node8" class="node">
<title>dec_fields_neg_dec_recip_compat</title>
<g id="a_node8"><a xlink:href="dec_fields.html#neg_dec_recip_compat" xlink:title="neg_dec_recip_compat">
<ellipse fill="#f070d1" stroke="black" cx="138" cy="-307.62" rx="114.29" ry="18"/>
<ellipse fill="none" stroke="black" cx="138" cy="-307.62" rx="118.28" ry="22"/>
<ellipse fill="none" stroke="black" cx="138" cy="-307.62" rx="122.28" ry="26"/>
<text text-anchor="middle" x="138" y="-303.92" font-family="Times,serif" font-size="14.00">neg_dec_recip_compat</text>
</a>
</g>
</g>
<!-- dec_fields_neg_dec_recip_compat&#45;&gt;dec_fields_pos_dec_recip_compat -->
<g id="edge8" class="edge">
<title>dec_fields_neg_dec_recip_compat&#45;&gt;dec_fields_pos_dec_recip_compat</title>
<path fill="none" stroke="black" d="M176.13,-282.9C243.29,-241.12 381.73,-155 446.77,-114.53"/>
<polygon fill="black" stroke="black" points="448.81,-117.39 455.45,-109.14 445.11,-111.45 448.81,-117.39"/>
</g>
<!-- dec_fields_nonneg_dec_recip_compat&#45;&gt;dec_fields_pos_dec_recip_compat -->
<g id="edge9" class="edge">
<title>dec_fields_nonneg_dec_recip_compat&#45;&gt;dec_fields_pos_dec_recip_compat</title>
<path fill="none" stroke="black" d="M415.77,-289.47C428.28,-252.29 457.96,-164.06 472.98,-119.44"/>
<polygon fill="black" stroke="black" points="476.33,-120.44 476.2,-109.85 469.7,-118.21 476.33,-120.44"/>
</g>
</g>
</svg>
