<?xml version="1.0" encoding="UTF-8" standalone="no"?>
<!DOCTYPE svg PUBLIC "-//W3C//DTD SVG 1.1//EN"
 "http://www.w3.org/Graphics/SVG/1.1/DTD/svg11.dtd">
<!-- Generated by graphviz version 2.43.0 (0)
 -->
<!-- Title: HoTT_Classes_theory_integers Pages: 1 -->
<svg width="1182pt" height="595pt"
 viewBox="0.00 0.00 1182.00 595.00" xmlns="http://www.w3.org/2000/svg" xmlns:xlink="http://www.w3.org/1999/xlink">
<g id="graph0" class="graph" transform="scale(1 1) rotate(0) translate(4 591)">
<title>HoTT_Classes_theory_integers</title>
<polygon fill="white" stroke="transparent" points="-4,4 -4,-591 1178,-591 1178,4 -4,4"/>
<g id="clust1" class="cluster">
<title>cluster_integers</title>
<polygon fill="#ffffc3" stroke="black" points="9.56,-8 9.56,-579 1164.44,-579 1164.44,-8 9.56,-8"/>
<text text-anchor="middle" x="47.56" y="-563.8" font-family="Times,serif" font-size="14.00">integers</text>
</g>
<!-- integers_int_integral_domain -->
<g id="node1" class="node">
<title>integers_int_integral_domain</title>
<g id="a_node1"><a xlink:href="integers.html#int_integral_domain" xlink:title="int_integral_domain">
<ellipse fill="#f070d1" stroke="black" cx="881.16" cy="-522" rx="102.87" ry="18"/>
<ellipse fill="none" stroke="black" cx="881.16" cy="-522" rx="106.88" ry="22"/>
<ellipse fill="none" stroke="black" cx="881.16" cy="-522" rx="110.88" ry="26"/>
<text text-anchor="middle" x="881.16" y="-518.3" font-family="Times,serif" font-size="14.00">int_integral_domain</text>
</a>
</g>
</g>
<!-- integers_int_zero_product -->
<g id="node2" class="node">
<title>integers_int_zero_product</title>
<g id="a_node2"><a xlink:href="integers.html#int_zero_product" xlink:title="int_zero_product">
<ellipse fill="#f070d1" stroke="black" cx="763.16" cy="-434" rx="88.28" ry="18"/>
<text text-anchor="middle" x="763.16" y="-430.3" font-family="Times,serif" font-size="14.00">int_zero_product</text>
</a>
</g>
</g>
<!-- integers_int_integral_domain&#45;&gt;integers_int_zero_product -->
<g id="edge1" class="edge">
<title>integers_int_integral_domain&#45;&gt;integers_int_zero_product</title>
<path fill="none" stroke="black" d="M848.29,-497.04C831.33,-484.69 810.76,-469.7 794.1,-457.55"/>
<polygon fill="black" stroke="black" points="795.92,-454.54 785.77,-451.48 791.79,-460.2 795.92,-454.54"/>
</g>
<!-- integers_int_nontrivial -->
<g id="node3" class="node">
<title>integers_int_nontrivial</title>
<g id="a_node3"><a xlink:href="integers.html#int_nontrivial" xlink:title="int_nontrivial">
<ellipse fill="#f070d1" stroke="black" cx="977.16" cy="-434" rx="72.59" ry="18"/>
<text text-anchor="middle" x="977.16" y="-430.3" font-family="Times,serif" font-size="14.00">int_nontrivial</text>
</a>
</g>
</g>
<!-- integers_int_integral_domain&#45;&gt;integers_int_nontrivial -->
<g id="edge2" class="edge">
<title>integers_int_integral_domain&#45;&gt;integers_int_nontrivial</title>
<path fill="none" stroke="black" d="M908.41,-496.59C921.72,-484.66 937.67,-470.37 950.85,-458.56"/>
<polygon fill="black" stroke="black" points="953.54,-460.85 958.66,-451.57 948.87,-455.64 953.54,-460.85"/>
</g>
<!-- integers_integers_to_integers_injective -->
<g id="node13" class="node">
<title>integers_integers_to_integers_injective</title>
<g id="a_node13"><a xlink:href="integers.html#integers_to_integers_injective" xlink:title="integers_to_integers_injective">
<ellipse fill="#f070d1" stroke="black" cx="598.16" cy="-346" rx="149.47" ry="18"/>
<text text-anchor="middle" x="598.16" y="-342.3" font-family="Times,serif" font-size="14.00">integers_to_integers_injective</text>
</a>
</g>
</g>
<!-- integers_int_zero_product&#45;&gt;integers_integers_to_integers_injective -->
<g id="edge3" class="edge">
<title>integers_int_zero_product&#45;&gt;integers_integers_to_integers_injective</title>
<path fill="none" stroke="black" d="M732.51,-417.03C706.19,-403.31 668.02,-383.41 639.09,-368.33"/>
<polygon fill="black" stroke="black" points="640.53,-365.14 630.05,-363.62 637.3,-371.35 640.53,-365.14"/>
</g>
<!-- integers_naturals_to_integers_injective -->
<g id="node12" class="node">
<title>integers_naturals_to_integers_injective</title>
<g id="a_node12"><a xlink:href="integers.html#naturals_to_integers_injective" xlink:title="naturals_to_integers_injective">
<ellipse fill="#f070d1" stroke="black" cx="977.16" cy="-346" rx="149.47" ry="18"/>
<text text-anchor="middle" x="977.16" y="-342.3" font-family="Times,serif" font-size="14.00">naturals_to_integers_injective</text>
</a>
</g>
</g>
<!-- integers_int_nontrivial&#45;&gt;integers_naturals_to_integers_injective -->
<g id="edge4" class="edge">
<title>integers_int_nontrivial&#45;&gt;integers_naturals_to_integers_injective</title>
<path fill="none" stroke="black" d="M977.16,-415.6C977.16,-403.75 977.16,-387.82 977.16,-374.29"/>
<polygon fill="black" stroke="black" points="980.66,-374.08 977.16,-364.08 973.66,-374.08 980.66,-374.08"/>
</g>
<!-- integers_slow_int_abs -->
<g id="node4" class="node">
<title>integers_slow_int_abs</title>
<g id="a_node4"><a xlink:href="integers.html#slow_int_abs" xlink:title="slow_int_abs">
<ellipse fill="#f070d1" stroke="black" cx="543.16" cy="-434" rx="69.58" ry="18"/>
<ellipse fill="none" stroke="black" cx="543.16" cy="-434" rx="73.59" ry="22"/>
<ellipse fill="none" stroke="black" cx="543.16" cy="-434" rx="77.59" ry="26"/>
<text text-anchor="middle" x="543.16" y="-430.3" font-family="Times,serif" font-size="14.00">slow_int_abs</text>
</a>
</g>
</g>
<!-- integers_slow_int_abs&#45;&gt;integers_integers_to_integers_injective -->
<g id="edge5" class="edge">
<title>integers_slow_int_abs&#45;&gt;integers_integers_to_integers_injective</title>
<path fill="none" stroke="black" d="M559.07,-408.13C566.17,-397.01 574.55,-383.91 581.72,-372.7"/>
<polygon fill="black" stroke="black" points="584.73,-374.5 587.17,-364.19 578.83,-370.73 584.73,-374.5"/>
</g>
<!-- integers_int_dec -->
<g id="node5" class="node">
<title>integers_int_dec</title>
<g id="a_node5"><a xlink:href="integers.html#int_dec" xlink:title="int_dec">
<ellipse fill="#f070d1" stroke="black" cx="335.16" cy="-346" rx="44.36" ry="18"/>
<ellipse fill="none" stroke="black" cx="335.16" cy="-346" rx="48.38" ry="22"/>
<ellipse fill="none" stroke="black" cx="335.16" cy="-346" rx="52.39" ry="26"/>
<text text-anchor="middle" x="335.16" y="-342.3" font-family="Times,serif" font-size="14.00">int_dec</text>
</a>
</g>
</g>
<!-- integers_int_to_int_equiv -->
<g id="node7" class="node">
<title>integers_int_to_int_equiv</title>
<g id="a_node7"><a xlink:href="integers.html#int_to_int_equiv" xlink:title="int_to_int_equiv">
<ellipse fill="#f070d1" stroke="black" cx="335.16" cy="-266" rx="83.69" ry="18"/>
<text text-anchor="middle" x="335.16" y="-262.3" font-family="Times,serif" font-size="14.00">int_to_int_equiv</text>
</a>
</g>
</g>
<!-- integers_int_dec&#45;&gt;integers_int_to_int_equiv -->
<g id="edge6" class="edge">
<title>integers_int_dec&#45;&gt;integers_int_to_int_equiv</title>
<path fill="none" stroke="black" d="M335.16,-319.89C335.16,-311.84 335.16,-302.88 335.16,-294.66"/>
<polygon fill="black" stroke="black" points="338.66,-294.41 335.16,-284.41 331.66,-294.41 338.66,-294.41"/>
</g>
<!-- integers_from_int_stmt -->
<g id="node6" class="node">
<title>integers_from_int_stmt</title>
<g id="a_node6"><a xlink:href="integers.html#from_int_stmt" xlink:title="from_int_stmt">
<ellipse fill="#f070d1" stroke="black" cx="150.16" cy="-346" rx="75.3" ry="18"/>
<ellipse fill="none" stroke="black" cx="150.16" cy="-346" rx="79.29" ry="22"/>
<ellipse fill="none" stroke="black" cx="150.16" cy="-346" rx="83.29" ry="26"/>
<text text-anchor="middle" x="150.16" y="-342.3" font-family="Times,serif" font-size="14.00">from_int_stmt</text>
</a>
</g>
</g>
<!-- integers_from_int_stmt&#45;&gt;integers_int_to_int_equiv -->
<g id="edge7" class="edge">
<title>integers_from_int_stmt&#45;&gt;integers_int_to_int_equiv</title>
<path fill="none" stroke="black" d="M198.28,-324.71C226.44,-312.84 261.78,-297.94 289.5,-286.25"/>
<polygon fill="black" stroke="black" points="291.11,-289.37 298.96,-282.26 288.39,-282.92 291.11,-289.37"/>
</g>
<!-- integers_to_ring_involutive -->
<g id="node18" class="node">
<title>integers_to_ring_involutive</title>
<g id="a_node18"><a xlink:href="integers.html#to_ring_involutive" xlink:title="to_ring_involutive">
<ellipse fill="#f070d1" stroke="black" cx="635.16" cy="-186" rx="93.68" ry="18"/>
<text text-anchor="middle" x="635.16" y="-182.3" font-family="Times,serif" font-size="14.00">to_ring_involutive</text>
</a>
</g>
</g>
<!-- integers_int_to_int_equiv&#45;&gt;integers_to_ring_involutive -->
<g id="edge8" class="edge">
<title>integers_int_to_int_equiv&#45;&gt;integers_to_ring_involutive</title>
<path fill="none" stroke="black" d="M386.39,-251.68C437.67,-238.35 516.67,-217.81 571.85,-203.46"/>
<polygon fill="black" stroke="black" points="573.07,-206.76 581.86,-200.86 571.3,-199.99 573.07,-206.76"/>
</g>
<!-- integers_retract_is_int -->
<g id="node8" class="node">
<title>integers_retract_is_int</title>
<g id="a_node8"><a xlink:href="integers.html#retract_is_int" xlink:title="retract_is_int">
<ellipse fill="#f070d1" stroke="black" cx="1059.16" cy="-186" rx="72.27" ry="18"/>
<ellipse fill="none" stroke="black" cx="1059.16" cy="-186" rx="76.28" ry="22"/>
<ellipse fill="none" stroke="black" cx="1059.16" cy="-186" rx="80.29" ry="26"/>
<text text-anchor="middle" x="1059.16" y="-182.3" font-family="Times,serif" font-size="14.00">retract_is_int</text>
</a>
</g>
</g>
<!-- integers_same_morphism -->
<g id="node9" class="node">
<title>integers_same_morphism</title>
<g id="a_node9"><a xlink:href="integers.html#same_morphism" xlink:title="same_morphism">
<ellipse fill="#f070d1" stroke="black" cx="769.16" cy="-106" rx="86.38" ry="18"/>
<text text-anchor="middle" x="769.16" y="-102.3" font-family="Times,serif" font-size="14.00">same_morphism</text>
</a>
</g>
</g>
<!-- integers_retract_is_int&#45;&gt;integers_same_morphism -->
<g id="edge9" class="edge">
<title>integers_retract_is_int&#45;&gt;integers_same_morphism</title>
<path fill="none" stroke="black" d="M998.72,-168.74C949.18,-155.42 879.39,-136.65 829.8,-123.31"/>
<polygon fill="black" stroke="black" points="830.42,-119.85 819.85,-120.63 828.6,-126.61 830.42,-119.85"/>
</g>
<!-- integers_retract_is_int_to_ring -->
<g id="node11" class="node">
<title>integers_retract_is_int_to_ring</title>
<g id="a_node11"><a xlink:href="integers.html#retract_is_int_to_ring" xlink:title="retract_is_int_to_ring">
<ellipse fill="#f070d1" stroke="black" cx="1024.16" cy="-106" rx="109.38" ry="18"/>
<text text-anchor="middle" x="1024.16" y="-102.3" font-family="Times,serif" font-size="14.00">retract_is_int_to_ring</text>
</a>
</g>
</g>
<!-- integers_retract_is_int&#45;&gt;integers_retract_is_int_to_ring -->
<g id="edge10" class="edge">
<title>integers_retract_is_int&#45;&gt;integers_retract_is_int_to_ring</title>
<path fill="none" stroke="black" d="M1047.89,-159.89C1044.11,-151.48 1039.89,-142.07 1036.07,-133.55"/>
<polygon fill="black" stroke="black" points="1039.26,-132.1 1031.97,-124.41 1032.87,-134.97 1039.26,-132.1"/>
</g>
<!-- integers_to_ring_unique -->
<g id="node20" class="node">
<title>integers_to_ring_unique</title>
<g id="a_node20"><a xlink:href="integers.html#to_ring_unique" xlink:title="to_ring_unique">
<ellipse fill="#f070d1" stroke="black" cx="648.16" cy="-34" rx="79.09" ry="18"/>
<text text-anchor="middle" x="648.16" y="-30.3" font-family="Times,serif" font-size="14.00">to_ring_unique</text>
</a>
</g>
</g>
<!-- integers_same_morphism&#45;&gt;integers_to_ring_unique -->
<g id="edge11" class="edge">
<title>integers_same_morphism&#45;&gt;integers_to_ring_unique</title>
<path fill="none" stroke="black" d="M741.4,-88.94C724.64,-79.25 703.09,-66.78 684.93,-56.27"/>
<polygon fill="black" stroke="black" points="686.2,-52.96 675.79,-50.98 682.69,-59.02 686.2,-52.96"/>
</g>
<!-- integers_IsSemiRingPreserving_instance_0 -->
<g id="node10" class="node">
<title>integers_IsSemiRingPreserving_instance_0</title>
<g id="a_node10"><a xlink:href="integers.html#IsSemiRingPreserving_instance_0" xlink:title="IsSemiRingPreserving_instance_0">
<ellipse fill="#f070d1" stroke="black" cx="325.16" cy="-522" rx="168.18" ry="18"/>
<ellipse fill="none" stroke="black" cx="325.16" cy="-522" rx="172.17" ry="22"/>
<ellipse fill="none" stroke="black" cx="325.16" cy="-522" rx="176.17" ry="26"/>
<text text-anchor="middle" x="325.16" y="-518.3" font-family="Times,serif" font-size="14.00">IsSemiRingPreserving_instance_0</text>
</a>
</g>
</g>
<!-- integers_to_ring_injective -->
<g id="node14" class="node">
<title>integers_to_ring_injective</title>
<g id="a_node14"><a xlink:href="integers.html#to_ring_injective" xlink:title="to_ring_injective">
<ellipse fill="#f070d1" stroke="black" cx="726.16" cy="-266" rx="87.18" ry="18"/>
<text text-anchor="middle" x="726.16" y="-262.3" font-family="Times,serif" font-size="14.00">to_ring_injective</text>
</a>
</g>
</g>
<!-- integers_integers_to_integers_injective&#45;&gt;integers_to_ring_injective -->
<g id="edge12" class="edge">
<title>integers_integers_to_integers_injective&#45;&gt;integers_to_ring_injective</title>
<path fill="none" stroke="black" d="M625.62,-328.27C644.68,-316.65 670.26,-301.06 690.85,-288.52"/>
<polygon fill="black" stroke="black" points="692.9,-291.36 699.62,-283.17 689.26,-285.39 692.9,-291.36"/>
</g>
<!-- integers_to_ring_twice -->
<g id="node16" class="node">
<title>integers_to_ring_twice</title>
<g id="a_node16"><a xlink:href="integers.html#to_ring_twice" xlink:title="to_ring_twice">
<ellipse fill="#f070d1" stroke="black" cx="855.16" cy="-186" rx="72.59" ry="18"/>
<text text-anchor="middle" x="855.16" y="-182.3" font-family="Times,serif" font-size="14.00">to_ring_twice</text>
</a>
</g>
</g>
<!-- integers_to_ring_injective&#45;&gt;integers_to_ring_twice -->
<g id="edge13" class="edge">
<title>integers_to_ring_injective&#45;&gt;integers_to_ring_twice</title>
<path fill="none" stroke="black" d="M752.89,-248.84C772.39,-237.05 799,-220.95 820.19,-208.14"/>
<polygon fill="black" stroke="black" points="822.16,-211.04 828.9,-202.87 818.54,-205.05 822.16,-211.04"/>
</g>
<!-- integers_to_ring_self -->
<g id="node15" class="node">
<title>integers_to_ring_self</title>
<g id="a_node15"><a xlink:href="integers.html#to_ring_self" xlink:title="to_ring_self">
<ellipse fill="#f070d1" stroke="black" cx="415.16" cy="-186" rx="64.21" ry="18"/>
<ellipse fill="none" stroke="black" cx="415.16" cy="-186" rx="68.2" ry="22"/>
<ellipse fill="none" stroke="black" cx="415.16" cy="-186" rx="72.19" ry="26"/>
<text text-anchor="middle" x="415.16" y="-182.3" font-family="Times,serif" font-size="14.00">to_ring_self</text>
</a>
</g>
</g>
<!-- integers_to_ring_unique_alt -->
<g id="node19" class="node">
<title>integers_to_ring_unique_alt</title>
<g id="a_node19"><a xlink:href="integers.html#to_ring_unique_alt" xlink:title="to_ring_unique_alt">
<ellipse fill="#f070d1" stroke="black" cx="528.16" cy="-106" rx="96.38" ry="18"/>
<text text-anchor="middle" x="528.16" y="-102.3" font-family="Times,serif" font-size="14.00">to_ring_unique_alt</text>
</a>
</g>
</g>
<!-- integers_to_ring_self&#45;&gt;integers_to_ring_unique_alt -->
<g id="edge14" class="edge">
<title>integers_to_ring_self&#45;&gt;integers_to_ring_unique_alt</title>
<path fill="none" stroke="black" d="M447.54,-162.65C462.58,-152.26 480.44,-139.94 495.52,-129.53"/>
<polygon fill="black" stroke="black" points="497.79,-132.21 504.03,-123.65 493.82,-126.45 497.79,-132.21"/>
</g>
<!-- integers_to_ring_twice&#45;&gt;integers_to_ring_unique_alt -->
<g id="edge15" class="edge">
<title>integers_to_ring_twice&#45;&gt;integers_to_ring_unique_alt</title>
<path fill="none" stroke="black" d="M804.78,-172.98C748.52,-159.56 657.22,-137.79 595.02,-122.95"/>
<polygon fill="black" stroke="black" points="595.45,-119.45 584.91,-120.54 593.83,-126.26 595.45,-119.45"/>
</g>
<!-- integers_morphisms_involutive -->
<g id="node17" class="node">
<title>integers_morphisms_involutive</title>
<g id="a_node17"><a xlink:href="integers.html#morphisms_involutive" xlink:title="morphisms_involutive">
<ellipse fill="#f070d1" stroke="black" cx="162.16" cy="-186" rx="112.38" ry="18"/>
<ellipse fill="none" stroke="black" cx="162.16" cy="-186" rx="116.38" ry="22"/>
<ellipse fill="none" stroke="black" cx="162.16" cy="-186" rx="120.38" ry="26"/>
<text text-anchor="middle" x="162.16" y="-182.3" font-family="Times,serif" font-size="14.00">morphisms_involutive</text>
</a>
</g>
</g>
<!-- integers_morphisms_involutive&#45;&gt;integers_to_ring_unique_alt -->
<g id="edge16" class="edge">
<title>integers_morphisms_involutive&#45;&gt;integers_to_ring_unique_alt</title>
<path fill="none" stroke="black" d="M245.67,-167.2C309.62,-153.57 396.86,-134.98 457.4,-122.08"/>
<polygon fill="black" stroke="black" points="458.21,-125.49 467.26,-119.98 456.75,-118.64 458.21,-125.49"/>
</g>
<!-- integers_to_ring_involutive&#45;&gt;integers_to_ring_unique_alt -->
<g id="edge17" class="edge">
<title>integers_to_ring_involutive&#45;&gt;integers_to_ring_unique_alt</title>
<path fill="none" stroke="black" d="M612.46,-168.46C597,-157.19 576.33,-142.12 559.33,-129.72"/>
<polygon fill="black" stroke="black" points="560.96,-126.58 550.82,-123.52 556.84,-132.24 560.96,-126.58"/>
</g>
<!-- integers_to_ring_unique_alt&#45;&gt;integers_to_ring_unique -->
<g id="edge18" class="edge">
<title>integers_to_ring_unique_alt&#45;&gt;integers_to_ring_unique</title>
<path fill="none" stroke="black" d="M555.99,-88.76C572.62,-79.07 593.92,-66.64 611.86,-56.17"/>
<polygon fill="black" stroke="black" points="614.02,-58.97 620.89,-50.91 610.49,-52.92 614.02,-58.97"/>
</g>
</g>
</svg>
