<?xml version="1.0" encoding="UTF-8" standalone="no"?>
<!DOCTYPE svg PUBLIC "-//W3C//DTD SVG 1.1//EN"
 "http://www.w3.org/Graphics/SVG/1.1/DTD/svg11.dtd">
<!-- Generated by graphviz version 2.43.0 (0)
 -->
<!-- Title: HoTT_Algebra_Rings_QuotientRing Pages: 1 -->
<svg width="1262pt" height="635pt"
 viewBox="0.00 0.00 1262.00 635.00" xmlns="http://www.w3.org/2000/svg" xmlns:xlink="http://www.w3.org/1999/xlink">
<g id="graph0" class="graph" transform="scale(1 1) rotate(0) translate(4 631)">
<title>HoTT_Algebra_Rings_QuotientRing</title>
<polygon fill="white" stroke="transparent" points="-4,4 -4,-631 1258,-631 1258,4 -4,4"/>
<g id="clust1" class="cluster">
<title>cluster_QuotientRing</title>
<polygon fill="#ffffc3" stroke="black" points="10.31,-8 10.31,-619 1243.69,-619 1243.69,-8 10.31,-8"/>
<text text-anchor="middle" x="66.31" y="-603.8" font-family="Times,serif" font-size="14.00">QuotientRing</text>
</g>
<!-- QuotientRing_rng_first_iso_ -->
<g id="node1" class="node">
<title>QuotientRing_rng_first_iso_</title>
<g id="a_node1"><a xlink:href="QuotientRing.html#rng_first_iso'" xlink:title="rng_first_iso&#39;">
<ellipse fill="#f070d1" stroke="black" cx="928.86" cy="-562" rx="70.37" ry="18"/>
<ellipse fill="none" stroke="black" cx="928.86" cy="-562" rx="74.38" ry="22"/>
<ellipse fill="none" stroke="black" cx="928.86" cy="-562" rx="78.39" ry="26"/>
<text text-anchor="middle" x="928.86" y="-558.3" font-family="Times,serif" font-size="14.00">rng_first_iso&#39;</text>
</a>
</g>
</g>
<!-- QuotientRing_rng_quotient_invar -->
<g id="node2" class="node">
<title>QuotientRing_rng_quotient_invar</title>
<g id="a_node2"><a xlink:href="QuotientRing.html#rng_quotient_invar" xlink:title="rng_quotient_invar">
<ellipse fill="#f070d1" stroke="black" cx="810.86" cy="-482" rx="98.58" ry="18"/>
<text text-anchor="middle" x="810.86" y="-478.3" font-family="Times,serif" font-size="14.00">rng_quotient_invar</text>
</a>
</g>
</g>
<!-- QuotientRing_rng_first_iso_&#45;&gt;QuotientRing_rng_quotient_invar -->
<g id="edge1" class="edge">
<title>QuotientRing_rng_first_iso_&#45;&gt;QuotientRing_rng_quotient_invar</title>
<path fill="none" stroke="black" d="M894.73,-538.44C878.88,-527.96 860.09,-515.55 844.33,-505.12"/>
<polygon fill="black" stroke="black" points="846.19,-502.16 835.91,-499.56 842.33,-508 846.19,-502.16"/>
</g>
<!-- QuotientRing_rng_first_iso -->
<g id="node3" class="node">
<title>QuotientRing_rng_first_iso</title>
<g id="a_node3"><a xlink:href="QuotientRing.html#rng_first_iso" xlink:title="rng_first_iso">
<ellipse fill="#f070d1" stroke="black" cx="1047.86" cy="-482" rx="67.69" ry="18"/>
<text text-anchor="middle" x="1047.86" y="-478.3" font-family="Times,serif" font-size="14.00">rng_first_iso</text>
</a>
</g>
</g>
<!-- QuotientRing_rng_first_iso_&#45;&gt;QuotientRing_rng_first_iso -->
<g id="edge2" class="edge">
<title>QuotientRing_rng_first_iso_&#45;&gt;QuotientRing_rng_first_iso</title>
<path fill="none" stroke="black" d="M963.28,-538.44C979.61,-527.73 999.03,-515.01 1015.14,-504.45"/>
<polygon fill="black" stroke="black" points="1017.26,-507.24 1023.71,-498.83 1013.43,-501.38 1017.26,-507.24"/>
</g>
<!-- QuotientRing_QuotientRing_ind_hprop -->
<g id="node4" class="node">
<title>QuotientRing_QuotientRing_ind_hprop</title>
<g id="a_node4"><a xlink:href="QuotientRing.html#QuotientRing_ind_hprop" xlink:title="QuotientRing_ind_hprop">
<ellipse fill="#f070d1" stroke="black" cx="949.86" cy="-402" rx="123.48" ry="18"/>
<text text-anchor="middle" x="949.86" y="-398.3" font-family="Times,serif" font-size="14.00">QuotientRing_ind_hprop</text>
</a>
</g>
</g>
<!-- QuotientRing_rng_quotient_invar&#45;&gt;QuotientRing_QuotientRing_ind_hprop -->
<g id="edge3" class="edge">
<title>QuotientRing_rng_quotient_invar&#45;&gt;QuotientRing_QuotientRing_ind_hprop</title>
<path fill="none" stroke="black" d="M840,-464.65C860.71,-453.03 888.74,-437.3 911.3,-424.64"/>
<polygon fill="black" stroke="black" points="913.27,-427.54 920.28,-419.6 909.85,-421.44 913.27,-427.54"/>
</g>
<!-- QuotientRing_rng_first_iso&#45;&gt;QuotientRing_QuotientRing_ind_hprop -->
<g id="edge4" class="edge">
<title>QuotientRing_rng_first_iso&#45;&gt;QuotientRing_QuotientRing_ind_hprop</title>
<path fill="none" stroke="black" d="M1027.07,-464.46C1013.14,-453.37 994.58,-438.59 979.15,-426.31"/>
<polygon fill="black" stroke="black" points="980.95,-423.28 970.95,-419.79 976.59,-428.75 980.95,-423.28"/>
</g>
<!-- QuotientRing_rng_quotient_map -->
<g id="node7" class="node">
<title>QuotientRing_rng_quotient_map</title>
<g id="a_node7"><a xlink:href="QuotientRing.html#rng_quotient_map" xlink:title="rng_quotient_map">
<ellipse fill="#f070d1" stroke="black" cx="638.86" cy="-322" rx="94.78" ry="18"/>
<text text-anchor="middle" x="638.86" y="-318.3" font-family="Times,serif" font-size="14.00">rng_quotient_map</text>
</a>
</g>
</g>
<!-- QuotientRing_QuotientRing_ind_hprop&#45;&gt;QuotientRing_rng_quotient_map -->
<g id="edge5" class="edge">
<title>QuotientRing_QuotientRing_ind_hprop&#45;&gt;QuotientRing_rng_quotient_map</title>
<path fill="none" stroke="black" d="M890.63,-386.15C837.21,-372.75 758.79,-353.08 703.7,-339.26"/>
<polygon fill="black" stroke="black" points="704.25,-335.79 693.7,-336.75 702.54,-342.58 704.25,-335.79"/>
</g>
<!-- QuotientRing_QuotientRing_ind -->
<g id="node5" class="node">
<title>QuotientRing_QuotientRing_ind</title>
<g id="a_node5"><a xlink:href="QuotientRing.html#QuotientRing_ind" xlink:title="QuotientRing_ind">
<ellipse fill="#f070d1" stroke="black" cx="638.86" cy="-402" rx="91.77" ry="18"/>
<ellipse fill="none" stroke="black" cx="638.86" cy="-402" rx="95.78" ry="22"/>
<ellipse fill="none" stroke="black" cx="638.86" cy="-402" rx="99.78" ry="26"/>
<text text-anchor="middle" x="638.86" y="-398.3" font-family="Times,serif" font-size="14.00">QuotientRing_ind</text>
</a>
</g>
</g>
<!-- QuotientRing_QuotientRing_ind&#45;&gt;QuotientRing_rng_quotient_map -->
<g id="edge6" class="edge">
<title>QuotientRing_QuotientRing_ind&#45;&gt;QuotientRing_rng_quotient_map</title>
<path fill="none" stroke="black" d="M638.86,-375.89C638.86,-367.84 638.86,-358.88 638.86,-350.66"/>
<polygon fill="black" stroke="black" points="642.36,-350.41 638.86,-340.41 635.36,-350.41 642.36,-350.41"/>
</g>
<!-- QuotientRing_issurj_rng_quotient_map -->
<g id="node6" class="node">
<title>QuotientRing_issurj_rng_quotient_map</title>
<g id="a_node6"><a xlink:href="QuotientRing.html#issurj_rng_quotient_map" xlink:title="issurj_rng_quotient_map">
<ellipse fill="#f070d1" stroke="black" cx="316.86" cy="-402" rx="124.59" ry="18"/>
<ellipse fill="none" stroke="black" cx="316.86" cy="-402" rx="128.58" ry="22"/>
<ellipse fill="none" stroke="black" cx="316.86" cy="-402" rx="132.58" ry="26"/>
<text text-anchor="middle" x="316.86" y="-398.3" font-family="Times,serif" font-size="14.00">issurj_rng_quotient_map</text>
</a>
</g>
</g>
<!-- QuotientRing_issurj_rng_quotient_map&#45;&gt;QuotientRing_rng_quotient_map -->
<g id="edge7" class="edge">
<title>QuotientRing_issurj_rng_quotient_map&#45;&gt;QuotientRing_rng_quotient_map</title>
<path fill="none" stroke="black" d="M398.11,-381.32C452.08,-368.24 522.05,-351.3 572.63,-339.04"/>
<polygon fill="black" stroke="black" points="573.59,-342.41 582.48,-336.66 571.94,-335.61 573.59,-342.41"/>
</g>
<!-- QuotientRing_QuotientRing -->
<g id="node8" class="node">
<title>QuotientRing_QuotientRing</title>
<g id="a_node8"><a xlink:href="QuotientRing.html#QuotientRing" xlink:title="QuotientRing">
<ellipse fill="#f070d1" stroke="black" cx="638.86" cy="-250" rx="72.59" ry="18"/>
<text text-anchor="middle" x="638.86" y="-246.3" font-family="Times,serif" font-size="14.00">QuotientRing</text>
</a>
</g>
</g>
<!-- QuotientRing_rng_quotient_map&#45;&gt;QuotientRing_QuotientRing -->
<g id="edge8" class="edge">
<title>QuotientRing_rng_quotient_map&#45;&gt;QuotientRing_QuotientRing</title>
<path fill="none" stroke="black" d="M638.86,-303.7C638.86,-295.98 638.86,-286.71 638.86,-278.11"/>
<polygon fill="black" stroke="black" points="642.36,-278.1 638.86,-268.1 635.36,-278.1 642.36,-278.1"/>
</g>
<!-- QuotientRing_isring_quotient_abgroup -->
<g id="node9" class="node">
<title>QuotientRing_isring_quotient_abgroup</title>
<g id="a_node9"><a xlink:href="QuotientRing.html#isring_quotient_abgroup" xlink:title="isring_quotient_abgroup">
<ellipse fill="#f070d1" stroke="black" cx="638.86" cy="-178" rx="124.28" ry="18"/>
<text text-anchor="middle" x="638.86" y="-174.3" font-family="Times,serif" font-size="14.00">isring_quotient_abgroup</text>
</a>
</g>
</g>
<!-- QuotientRing_QuotientRing&#45;&gt;QuotientRing_isring_quotient_abgroup -->
<g id="edge9" class="edge">
<title>QuotientRing_QuotientRing&#45;&gt;QuotientRing_isring_quotient_abgroup</title>
<path fill="none" stroke="black" d="M638.86,-231.7C638.86,-223.98 638.86,-214.71 638.86,-206.11"/>
<polygon fill="black" stroke="black" points="642.36,-206.1 638.86,-196.1 635.36,-206.1 642.36,-206.1"/>
</g>
<!-- QuotientRing_one_quotient_abgroup -->
<g id="node10" class="node">
<title>QuotientRing_one_quotient_abgroup</title>
<g id="a_node10"><a xlink:href="QuotientRing.html#one_quotient_abgroup" xlink:title="one_quotient_abgroup">
<ellipse fill="#f070d1" stroke="black" cx="167.86" cy="-106" rx="113.98" ry="18"/>
<text text-anchor="middle" x="167.86" y="-102.3" font-family="Times,serif" font-size="14.00">one_quotient_abgroup</text>
</a>
</g>
</g>
<!-- QuotientRing_isring_quotient_abgroup&#45;&gt;QuotientRing_one_quotient_abgroup -->
<g id="edge10" class="edge">
<title>QuotientRing_isring_quotient_abgroup&#45;&gt;QuotientRing_one_quotient_abgroup</title>
<path fill="none" stroke="black" d="M555.47,-164.61C471.85,-152.18 343.51,-133.11 257.69,-120.35"/>
<polygon fill="black" stroke="black" points="258.1,-116.87 247.7,-118.87 257.07,-123.8 258.1,-116.87"/>
</g>
<!-- QuotientRing_zero_quotient_abgroup -->
<g id="node11" class="node">
<title>QuotientRing_zero_quotient_abgroup</title>
<g id="a_node11"><a xlink:href="QuotientRing.html#zero_quotient_abgroup" xlink:title="zero_quotient_abgroup">
<ellipse fill="#f070d1" stroke="black" cx="488.86" cy="-106" rx="116.98" ry="18"/>
<text text-anchor="middle" x="488.86" y="-102.3" font-family="Times,serif" font-size="14.00">zero_quotient_abgroup</text>
</a>
</g>
</g>
<!-- QuotientRing_isring_quotient_abgroup&#45;&gt;QuotientRing_zero_quotient_abgroup -->
<g id="edge11" class="edge">
<title>QuotientRing_isring_quotient_abgroup&#45;&gt;QuotientRing_zero_quotient_abgroup</title>
<path fill="none" stroke="black" d="M603.69,-160.59C582.63,-150.76 555.66,-138.17 533.15,-127.67"/>
<polygon fill="black" stroke="black" points="534.35,-124.37 523.81,-123.31 531.39,-130.71 534.35,-124.37"/>
</g>
<!-- QuotientRing_mult_quotient_group -->
<g id="node12" class="node">
<title>QuotientRing_mult_quotient_group</title>
<g id="a_node12"><a xlink:href="QuotientRing.html#mult_quotient_group" xlink:title="mult_quotient_group">
<ellipse fill="#f070d1" stroke="black" cx="799.86" cy="-106" rx="107.48" ry="18"/>
<text text-anchor="middle" x="799.86" y="-102.3" font-family="Times,serif" font-size="14.00">mult_quotient_group</text>
</a>
</g>
</g>
<!-- QuotientRing_isring_quotient_abgroup&#45;&gt;QuotientRing_mult_quotient_group -->
<g id="edge12" class="edge">
<title>QuotientRing_isring_quotient_abgroup&#45;&gt;QuotientRing_mult_quotient_group</title>
<path fill="none" stroke="black" d="M676.2,-160.76C699.24,-150.75 728.99,-137.81 753.53,-127.14"/>
<polygon fill="black" stroke="black" points="755.22,-130.22 763,-123.03 752.43,-123.8 755.22,-130.22"/>
</g>
<!-- QuotientRing_plus_quotient_group -->
<g id="node14" class="node">
<title>QuotientRing_plus_quotient_group</title>
<g id="a_node14"><a xlink:href="QuotientRing.html#plus_quotient_group" xlink:title="plus_quotient_group">
<ellipse fill="#f070d1" stroke="black" cx="1097.86" cy="-106" rx="105.08" ry="18"/>
<text text-anchor="middle" x="1097.86" y="-102.3" font-family="Times,serif" font-size="14.00">plus_quotient_group</text>
</a>
</g>
</g>
<!-- QuotientRing_isring_quotient_abgroup&#45;&gt;QuotientRing_plus_quotient_group -->
<g id="edge13" class="edge">
<title>QuotientRing_isring_quotient_abgroup&#45;&gt;QuotientRing_plus_quotient_group</title>
<path fill="none" stroke="black" d="M720.92,-164.49C803.06,-151.96 928.9,-132.77 1012.27,-120.05"/>
<polygon fill="black" stroke="black" points="1012.86,-123.5 1022.22,-118.54 1011.8,-116.58 1012.86,-123.5"/>
</g>
<!-- QuotientRing_iscong_mult_incosetL -->
<g id="node13" class="node">
<title>QuotientRing_iscong_mult_incosetL</title>
<g id="a_node13"><a xlink:href="QuotientRing.html#iscong_mult_incosetL" xlink:title="iscong_mult_incosetL">
<ellipse fill="#f070d1" stroke="black" cx="799.86" cy="-34" rx="109.68" ry="18"/>
<text text-anchor="middle" x="799.86" y="-30.3" font-family="Times,serif" font-size="14.00">iscong_mult_incosetL</text>
</a>
</g>
</g>
<!-- QuotientRing_mult_quotient_group&#45;&gt;QuotientRing_iscong_mult_incosetL -->
<g id="edge14" class="edge">
<title>QuotientRing_mult_quotient_group&#45;&gt;QuotientRing_iscong_mult_incosetL</title>
<path fill="none" stroke="black" d="M799.86,-87.7C799.86,-79.98 799.86,-70.71 799.86,-62.11"/>
<polygon fill="black" stroke="black" points="803.36,-62.1 799.86,-52.1 796.36,-62.1 803.36,-62.1"/>
</g>
</g>
</svg>
