<?xml version="1.0" encoding="UTF-8" standalone="no"?>
<!DOCTYPE svg PUBLIC "-//W3C//DTD SVG 1.1//EN"
 "http://www.w3.org/Graphics/SVG/1.1/DTD/svg11.dtd">
<!-- Generated by graphviz version 2.43.0 (0)
 -->
<!-- Title: HoTT_Classes_interfaces_round Pages: 1 -->
<svg width="366pt" height="187pt"
 viewBox="0.00 0.00 366.00 187.00" xmlns="http://www.w3.org/2000/svg" xmlns:xlink="http://www.w3.org/1999/xlink">
<g id="graph0" class="graph" transform="scale(1 1) rotate(0) translate(4 183)">
<title>HoTT_Classes_interfaces_round</title>
<polygon fill="white" stroke="transparent" points="-4,4 -4,-183 362,-183 362,4 -4,4"/>
<g id="clust1" class="cluster">
<title>cluster_round</title>
<polygon fill="#ffffc3" stroke="black" points="13.38,-8 13.38,-171 344.62,-171 344.62,-8 13.38,-8"/>
<text text-anchor="middle" x="42.88" y="-155.8" font-family="Times,serif" font-size="14.00">round</text>
</g>
<!-- round_round_up_strict -->
<g id="node1" class="node">
<title>round_round_up_strict</title>
<g id="a_node1"><a xlink:href="round.html#round_up_strict" xlink:title="round_up_strict">
<ellipse fill="#f070d1" stroke="black" cx="178.6" cy="-114" rx="83.37" ry="18"/>
<ellipse fill="none" stroke="black" cx="178.6" cy="-114" rx="87.38" ry="22"/>
<ellipse fill="none" stroke="black" cx="178.6" cy="-114" rx="91.39" ry="26"/>
<text text-anchor="middle" x="178.6" y="-110.3" font-family="Times,serif" font-size="14.00">round_up_strict</text>
</a>
</g>
</g>
<!-- round_RoundUpStrict -->
<g id="node2" class="node">
<title>round_RoundUpStrict</title>
<g id="a_node2"><a xlink:href="round.html#RoundUpStrict" xlink:title="RoundUpStrict">
<ellipse fill="#f070d1" stroke="black" cx="178.6" cy="-34" rx="80.69" ry="18"/>
<text text-anchor="middle" x="178.6" y="-30.3" font-family="Times,serif" font-size="14.00">RoundUpStrict</text>
</a>
</g>
</g>
<!-- round_round_up_strict&#45;&gt;round_RoundUpStrict -->
<g id="edge1" class="edge">
<title>round_round_up_strict&#45;&gt;round_RoundUpStrict</title>
<path fill="none" stroke="black" d="M178.6,-87.89C178.6,-79.84 178.6,-70.88 178.6,-62.66"/>
<polygon fill="black" stroke="black" points="182.1,-62.41 178.6,-52.41 175.1,-62.41 182.1,-62.41"/>
</g>
</g>
</svg>
