<?xml version="1.0" encoding="UTF-8" standalone="no"?>
<!DOCTYPE svg PUBLIC "-//W3C//DTD SVG 1.1//EN"
 "http://www.w3.org/Graphics/SVG/1.1/DTD/svg11.dtd">
<!-- Generated by graphviz version 2.43.0 (0)
 -->
<!-- Title: HoTT_Functorish Pages: 1 -->
<svg width="1039pt" height="524pt"
 viewBox="0.00 0.00 1039.00 523.50" xmlns="http://www.w3.org/2000/svg" xmlns:xlink="http://www.w3.org/1999/xlink">
<g id="graph0" class="graph" transform="scale(1 1) rotate(0) translate(4 519.5)">
<title>HoTT_Functorish</title>
<polygon fill="white" stroke="transparent" points="-4,4 -4,-519.5 1035,-519.5 1035,4 -4,4"/>
<g id="clust1" class="cluster">
<title>cluster_Functorish</title>
<polygon fill="#ffffc3" stroke="black" points="8,-15.45 8,-500.05 1023,-500.05 1023,-15.45 8,-15.45"/>
<text text-anchor="middle" x="55" y="-484.85" font-family="Times,serif" font-size="14.00">Functorish</text>
</g>
<!-- Functorish_fmap_agrees_with_univalence -->
<g id="node1" class="node">
<title>Functorish_fmap_agrees_with_univalence</title>
<g id="a_node1"><a xlink:href="Functorish.html#fmap_agrees_with_univalence" xlink:title="fmap_agrees_with_univalence">
<ellipse fill="#f070d1" stroke="black" cx="858" cy="-390.45" rx="148.68" ry="18"/>
<ellipse fill="none" stroke="black" cx="858" cy="-390.45" rx="152.68" ry="22"/>
<ellipse fill="none" stroke="black" cx="858" cy="-390.45" rx="156.67" ry="26"/>
<text text-anchor="middle" x="858" y="-386.75" font-family="Times,serif" font-size="14.00">fmap_agrees_with_univalence</text>
</a>
</g>
</g>
<!-- Functorish_fmap_idmap -->
<g id="node3" class="node">
<title>Functorish_fmap_idmap</title>
<g id="a_node3"><a xlink:href="Functorish.html#fmap_idmap" xlink:title="fmap_idmap">
<ellipse fill="#f070d1" stroke="black" cx="947" cy="-220.45" rx="67.69" ry="18"/>
<text text-anchor="middle" x="947" y="-216.75" font-family="Times,serif" font-size="14.00">fmap_idmap</text>
</a>
</g>
</g>
<!-- Functorish_fmap_agrees_with_univalence&#45;&gt;Functorish_fmap_idmap -->
<g id="edge1" class="edge">
<title>Functorish_fmap_agrees_with_univalence&#45;&gt;Functorish_fmap_idmap</title>
<path fill="none" stroke="black" d="M871.32,-364.29C887.94,-332.94 916.2,-279.59 933.08,-247.72"/>
<polygon fill="black" stroke="black" points="936.34,-249.04 937.93,-238.57 930.16,-245.77 936.34,-249.04"/>
</g>
<!-- Functorish_isequiv_fmap -->
<g id="node2" class="node">
<title>Functorish_isequiv_fmap</title>
<g id="a_node2"><a xlink:href="Functorish.html#isequiv_fmap" xlink:title="isequiv_fmap">
<ellipse fill="#f070d1" stroke="black" cx="782" cy="-220.45" rx="71.49" ry="18"/>
<ellipse fill="none" stroke="black" cx="782" cy="-220.45" rx="75.49" ry="22"/>
<ellipse fill="none" stroke="black" cx="782" cy="-220.45" rx="79.49" ry="26"/>
<text text-anchor="middle" x="782" y="-216.75" font-family="Times,serif" font-size="14.00">isequiv_fmap</text>
</a>
</g>
</g>
<!-- Functorish_Functorish -->
<g id="node10" class="node">
<title>Functorish_Functorish</title>
<g id="a_node10"><a xlink:href="Functorish.html#Functorish" xlink:title="Functorish">
<ellipse fill="#e2cdfa" stroke="black" cx="570" cy="-65.45" rx="61.19" ry="18"/>
<text text-anchor="middle" x="570" y="-61.75" font-family="Times,serif" font-size="14.00">Functorish</text>
</a>
</g>
</g>
<!-- Functorish_isequiv_fmap&#45;&gt;Functorish_Functorish -->
<g id="edge2" class="edge">
<title>Functorish_isequiv_fmap&#45;&gt;Functorish_Functorish</title>
<path fill="none" stroke="black" d="M750.26,-196.54C709.69,-167.26 639.95,-116.93 600.16,-88.21"/>
<polygon fill="black" stroke="black" points="602.06,-85.27 591.91,-82.25 597.97,-90.95 602.06,-85.27"/>
</g>
<!-- Functorish_fmap_idmap&#45;&gt;Functorish_Functorish -->
<g id="edge3" class="edge">
<title>Functorish_fmap_idmap&#45;&gt;Functorish_Functorish</title>
<path fill="none" stroke="black" d="M911.53,-205.05C842.33,-176.97 689.48,-114.93 613.97,-84.29"/>
<polygon fill="black" stroke="black" points="614.86,-80.88 604.28,-80.36 612.23,-87.36 614.86,-80.88"/>
</g>
<!-- Functorish_fmap -->
<g id="node4" class="node">
<title>Functorish_fmap</title>
<g id="a_node4"><a xlink:href="Functorish.html#fmap" xlink:title="fmap">
<ellipse fill="#f070d1" stroke="black" cx="642" cy="-220.45" rx="34.4" ry="18"/>
<ellipse fill="none" stroke="black" cx="642" cy="-220.45" rx="38.4" ry="22"/>
<ellipse fill="none" stroke="black" cx="642" cy="-220.45" rx="42.39" ry="26"/>
<text text-anchor="middle" x="642" y="-216.75" font-family="Times,serif" font-size="14.00">fmap</text>
</a>
</g>
</g>
<!-- Functorish_fmap&#45;&gt;Functorish_Functorish -->
<g id="edge4" class="edge">
<title>Functorish_fmap&#45;&gt;Functorish_Functorish</title>
<path fill="none" stroke="black" d="M630.59,-195.2C617.47,-167.31 595.99,-121.68 582.45,-92.89"/>
<polygon fill="black" stroke="black" points="585.44,-91.03 578.01,-83.47 579.1,-94.01 585.44,-91.03"/>
</g>
<!-- Functorish_Functorish_sind -->
<g id="node5" class="node">
<title>Functorish_Functorish_sind</title>
<g id="a_node5"><a xlink:href="Functorish.html#Functorish_sind" xlink:title="Functorish_sind">
<ellipse fill="#f070d1" stroke="black" cx="109" cy="-220.45" rx="85.27" ry="18"/>
<ellipse fill="none" stroke="black" cx="109" cy="-220.45" rx="89.28" ry="22"/>
<ellipse fill="none" stroke="black" cx="109" cy="-220.45" rx="93.29" ry="26"/>
<text text-anchor="middle" x="109" y="-216.75" font-family="Times,serif" font-size="14.00">Functorish_sind</text>
</a>
</g>
</g>
<!-- Functorish_Build_Functorish -->
<g id="node9" class="node">
<title>Functorish_Build_Functorish</title>
<g id="a_node9"><a xlink:href="Functorish.html#Build_Functorish" xlink:title="Build_Functorish">
<ellipse fill="#7faaff" stroke="black" cx="308" cy="-65.45" rx="89.88" ry="18"/>
<text text-anchor="middle" x="308" y="-61.75" font-family="Times,serif" font-size="14.00">Build_Functorish</text>
</a>
</g>
</g>
<!-- Functorish_Functorish_sind&#45;&gt;Functorish_Build_Functorish -->
<g id="edge5" class="edge">
<title>Functorish_Functorish_sind&#45;&gt;Functorish_Build_Functorish</title>
<path fill="none" stroke="black" d="M139.66,-195.87C177.46,-166.81 241.28,-117.74 278.53,-89.1"/>
<polygon fill="black" stroke="black" points="280.71,-91.84 286.51,-82.97 276.45,-86.29 280.71,-91.84"/>
</g>
<!-- Functorish_Functorish_sind&#45;&gt;Functorish_Functorish -->
<g id="edge6" class="edge">
<title>Functorish_Functorish_sind&#45;&gt;Functorish_Functorish</title>
<path fill="none" stroke="black" d="M167.39,-200.07C259.21,-169.59 435.7,-111.02 521.2,-82.64"/>
<polygon fill="black" stroke="black" points="522.52,-85.89 530.91,-79.42 520.32,-79.25 522.52,-85.89"/>
</g>
<!-- Functorish_Functorish_rec -->
<g id="node6" class="node">
<title>Functorish_Functorish_rec</title>
<g id="a_node6"><a xlink:href="Functorish.html#Functorish_rec" xlink:title="Functorish_rec">
<ellipse fill="#f070d1" stroke="black" cx="498" cy="-390.45" rx="79.89" ry="18"/>
<ellipse fill="none" stroke="black" cx="498" cy="-390.45" rx="83.89" ry="22"/>
<ellipse fill="none" stroke="black" cx="498" cy="-390.45" rx="87.89" ry="26"/>
<text text-anchor="middle" x="498" y="-386.75" font-family="Times,serif" font-size="14.00">Functorish_rec</text>
</a>
</g>
</g>
<!-- Functorish_Functorish_rect -->
<g id="node8" class="node">
<title>Functorish_Functorish_rect</title>
<g id="a_node8"><a xlink:href="Functorish.html#Functorish_rect" xlink:title="Functorish_rect">
<ellipse fill="#f070d1" stroke="black" cx="498" cy="-220.45" rx="83.69" ry="18"/>
<text text-anchor="middle" x="498" y="-216.75" font-family="Times,serif" font-size="14.00">Functorish_rect</text>
</a>
</g>
</g>
<!-- Functorish_Functorish_rec&#45;&gt;Functorish_Functorish_rect -->
<g id="edge7" class="edge">
<title>Functorish_Functorish_rec&#45;&gt;Functorish_Functorish_rect</title>
<path fill="none" stroke="black" d="M498,-364.29C498,-333.34 498,-280.97 498,-248.97"/>
<polygon fill="black" stroke="black" points="501.5,-248.57 498,-238.57 494.5,-248.57 501.5,-248.57"/>
</g>
<!-- Functorish_Functorish_ind -->
<g id="node7" class="node">
<title>Functorish_Functorish_ind</title>
<g id="a_node7"><a xlink:href="Functorish.html#Functorish_ind" xlink:title="Functorish_ind">
<ellipse fill="#7fffd4" stroke="black" cx="308" cy="-220.45" rx="79.89" ry="18"/>
<ellipse fill="none" stroke="black" cx="308" cy="-220.45" rx="83.89" ry="22"/>
<ellipse fill="none" stroke="black" cx="308" cy="-220.45" rx="87.89" ry="26"/>
<text text-anchor="middle" x="308" y="-216.75" font-family="Times,serif" font-size="14.00">Functorish_ind</text>
</a>
</g>
</g>
<!-- Functorish_Functorish_ind&#45;&gt;Functorish_Build_Functorish -->
<g id="edge8" class="edge">
<title>Functorish_Functorish_ind&#45;&gt;Functorish_Build_Functorish</title>
<path fill="none" stroke="black" d="M308,-194.18C308,-166.48 308,-122.21 308,-93.73"/>
<polygon fill="black" stroke="black" points="311.5,-93.66 308,-83.66 304.5,-93.66 311.5,-93.66"/>
</g>
<!-- Functorish_Functorish_ind&#45;&gt;Functorish_Functorish -->
<g id="edge9" class="edge">
<title>Functorish_Functorish_ind&#45;&gt;Functorish_Functorish</title>
<path fill="none" stroke="black" d="M346.38,-197.03C397.22,-167.34 486.19,-115.39 535.18,-86.78"/>
<polygon fill="black" stroke="black" points="536.97,-89.79 543.84,-81.72 533.44,-83.74 536.97,-89.79"/>
</g>
<!-- Functorish_Functorish_rect&#45;&gt;Functorish_Build_Functorish -->
<g id="edge10" class="edge">
<title>Functorish_Functorish_rect&#45;&gt;Functorish_Build_Functorish</title>
<path fill="none" stroke="black" d="M477.3,-202.78C443.33,-175.42 375.63,-120.91 336.93,-89.74"/>
<polygon fill="black" stroke="black" points="338.65,-86.64 328.67,-83.09 334.26,-92.09 338.65,-86.64"/>
</g>
<!-- Functorish_Functorish_rect&#45;&gt;Functorish_Functorish -->
<g id="edge11" class="edge">
<title>Functorish_Functorish_rect&#45;&gt;Functorish_Functorish</title>
<path fill="none" stroke="black" d="M505.98,-202.49C518.47,-175.95 542.73,-124.39 557.54,-92.93"/>
<polygon fill="black" stroke="black" points="560.89,-94.02 561.98,-83.48 554.56,-91.04 560.89,-94.02"/>
</g>
</g>
</svg>
