<?xml version="1.0" encoding="UTF-8" standalone="no"?>
<!DOCTYPE svg PUBLIC "-//W3C//DTD SVG 1.1//EN"
 "http://www.w3.org/Graphics/SVG/1.1/DTD/svg11.dtd">
<!-- Generated by graphviz version 2.43.0 (0)
 -->
<!-- Title: HoTT_Modalities_Separated Pages: 1 -->
<svg width="2264pt" height="1136pt"
 viewBox="0.00 0.00 2264.00 1136.00" xmlns="http://www.w3.org/2000/svg" xmlns:xlink="http://www.w3.org/1999/xlink">
<g id="graph0" class="graph" transform="scale(1 1) rotate(0) translate(4 1132)">
<title>HoTT_Modalities_Separated</title>
<polygon fill="white" stroke="transparent" points="-4,4 -4,-1132 2260,-1132 2260,4 -4,4"/>
<g id="clust1" class="cluster">
<title>cluster_Separated</title>
<polygon fill="#ffffc3" stroke="black" points="8,-21.13 8,-1106.87 2248,-1106.87 2248,-21.13 8,-21.13"/>
<text text-anchor="middle" x="53" y="-1091.67" font-family="Times,serif" font-size="14.00">Separated</text>
</g>
<!-- Separated_SepO_lex_leq -->
<g id="node1" class="node">
<title>Separated_SepO_lex_leq</title>
<g id="a_node1"><a xlink:href="Separated.html#SepO_lex_leq" xlink:title="SepO_lex_leq">
<ellipse fill="#f070d1" stroke="black" cx="1960" cy="-724.13" rx="72.27" ry="18"/>
<ellipse fill="none" stroke="black" cx="1960" cy="-724.13" rx="76.28" ry="22"/>
<ellipse fill="none" stroke="black" cx="1960" cy="-724.13" rx="80.29" ry="26"/>
<text text-anchor="middle" x="1960" y="-720.43" font-family="Times,serif" font-size="14.00">SepO_lex_leq</text>
</a>
</g>
</g>
<!-- Separated_jc_factor2_isemb -->
<g id="node2" class="node">
<title>Separated_jc_factor2_isemb</title>
<g id="a_node2"><a xlink:href="Separated.html#jc_factor2_isemb" xlink:title="jc_factor2_isemb">
<ellipse fill="#facdef" stroke="black" cx="2152" cy="-491.13" rx="88.28" ry="18"/>
<text text-anchor="middle" x="2152" y="-487.43" font-family="Times,serif" font-size="14.00">jc_factor2_isemb</text>
</a>
</g>
</g>
<!-- Separated_SepO_lex_leq&#45;&gt;Separated_jc_factor2_isemb -->
<g id="edge1" class="edge">
<title>Separated_SepO_lex_leq&#45;&gt;Separated_jc_factor2_isemb</title>
<path fill="none" stroke="black" d="M1980.18,-698.85C2016.98,-654.58 2094.59,-561.21 2131.57,-516.71"/>
<polygon fill="black" stroke="black" points="2134.28,-518.93 2137.98,-509 2128.9,-514.45 2134.28,-518.93"/>
</g>
<!-- Separated_jc_factors -->
<g id="node4" class="node">
<title>Separated_jc_factors</title>
<g id="a_node4"><a xlink:href="Separated.html#jc_factors" xlink:title="jc_factors">
<ellipse fill="#facdef" stroke="black" cx="1990" cy="-491.13" rx="55.49" ry="18"/>
<text text-anchor="middle" x="1990" y="-487.43" font-family="Times,serif" font-size="14.00">jc_factors</text>
</a>
</g>
</g>
<!-- Separated_SepO_lex_leq&#45;&gt;Separated_jc_factors -->
<g id="edge2" class="edge">
<title>Separated_SepO_lex_leq&#45;&gt;Separated_jc_factors</title>
<path fill="none" stroke="black" d="M1963.27,-697.97C1968.96,-654.13 1980.65,-564.11 1986.5,-519.06"/>
<polygon fill="black" stroke="black" points="1989.97,-519.51 1987.79,-509.14 1983.03,-518.61 1989.97,-519.51"/>
</g>
<!-- Separated_reflectsD_SepO -->
<g id="node10" class="node">
<title>Separated_reflectsD_SepO</title>
<g id="a_node10"><a xlink:href="Separated.html#reflectsD_SepO" xlink:title="reflectsD_SepO">
<ellipse fill="#f070d1" stroke="black" cx="1385" cy="-491.13" rx="81.79" ry="18"/>
<text text-anchor="middle" x="1385" y="-487.43" font-family="Times,serif" font-size="14.00">reflectsD_SepO</text>
</a>
</g>
</g>
<!-- Separated_SepO_lex_leq&#45;&gt;Separated_reflectsD_SepO -->
<g id="edge3" class="edge">
<title>Separated_SepO_lex_leq&#45;&gt;Separated_reflectsD_SepO</title>
<path fill="none" stroke="black" d="M1910.98,-703.44C1801.7,-659.54 1539.35,-554.14 1432,-511.01"/>
<polygon fill="black" stroke="black" points="1433.29,-507.76 1422.71,-507.28 1430.68,-514.26 1433.29,-507.76"/>
</g>
<!-- Separated_almost_inSepO_typeO -->
<g id="node12" class="node">
<title>Separated_almost_inSepO_typeO</title>
<g id="a_node12"><a xlink:href="Separated.html#almost_inSepO_typeO" xlink:title="almost_inSepO_typeO">
<ellipse fill="#f070d1" stroke="black" cx="1804" cy="-491.13" rx="112.38" ry="18"/>
<text text-anchor="middle" x="1804" y="-487.43" font-family="Times,serif" font-size="14.00">almost_inSepO_typeO</text>
</a>
</g>
</g>
<!-- Separated_SepO_lex_leq&#45;&gt;Separated_almost_inSepO_typeO -->
<g id="edge4" class="edge">
<title>Separated_SepO_lex_leq&#45;&gt;Separated_almost_inSepO_typeO</title>
<path fill="none" stroke="black" d="M1943.31,-698.41C1913.52,-654.31 1851.53,-562.52 1821.31,-517.77"/>
<polygon fill="black" stroke="black" points="1824.04,-515.55 1815.54,-509.22 1818.23,-519.47 1824.04,-515.55"/>
</g>
<!-- Separated_jc_factor2 -->
<g id="node5" class="node">
<title>Separated_jc_factor2</title>
<g id="a_node5"><a xlink:href="Separated.html#jc_factor2" xlink:title="jc_factor2">
<ellipse fill="#facdef" stroke="black" cx="2055" cy="-280.13" rx="55.79" ry="18"/>
<text text-anchor="middle" x="2055" y="-276.43" font-family="Times,serif" font-size="14.00">jc_factor2</text>
</a>
</g>
</g>
<!-- Separated_jc_factor2_isemb&#45;&gt;Separated_jc_factor2 -->
<g id="edge5" class="edge">
<title>Separated_jc_factor2_isemb&#45;&gt;Separated_jc_factor2</title>
<path fill="none" stroke="black" d="M2144.06,-473.03C2127.11,-436.5 2087.28,-350.68 2067.13,-307.26"/>
<polygon fill="black" stroke="black" points="2070.3,-305.78 2062.91,-298.18 2063.95,-308.72 2070.3,-305.78"/>
</g>
<!-- Separated_jc_factor1_issurj -->
<g id="node3" class="node">
<title>Separated_jc_factor1_issurj</title>
<g id="a_node3"><a xlink:href="Separated.html#jc_factor1_issurj" xlink:title="jc_factor1_issurj">
<ellipse fill="#facdef" stroke="black" cx="1579" cy="-491.13" rx="86.39" ry="18"/>
<ellipse fill="none" stroke="black" cx="1579" cy="-491.13" rx="90.39" ry="22"/>
<ellipse fill="none" stroke="black" cx="1579" cy="-491.13" rx="94.38" ry="26"/>
<text text-anchor="middle" x="1579" y="-487.43" font-family="Times,serif" font-size="14.00">jc_factor1_issurj</text>
</a>
</g>
</g>
<!-- Separated_jc_factor1 -->
<g id="node6" class="node">
<title>Separated_jc_factor1</title>
<g id="a_node6"><a xlink:href="Separated.html#jc_factor1" xlink:title="jc_factor1">
<ellipse fill="#facdef" stroke="black" cx="1925" cy="-280.13" rx="55.79" ry="18"/>
<text text-anchor="middle" x="1925" y="-276.43" font-family="Times,serif" font-size="14.00">jc_factor1</text>
</a>
</g>
</g>
<!-- Separated_jc_factor1_issurj&#45;&gt;Separated_jc_factor1 -->
<g id="edge6" class="edge">
<title>Separated_jc_factor1_issurj&#45;&gt;Separated_jc_factor1</title>
<path fill="none" stroke="black" d="M1617.02,-467.17C1684.92,-426.15 1826.01,-340.93 1890.94,-301.71"/>
<polygon fill="black" stroke="black" points="1892.83,-304.65 1899.58,-296.49 1889.22,-298.66 1892.83,-304.65"/>
</g>
<!-- Separated_jc_factors&#45;&gt;Separated_jc_factor2 -->
<g id="edge7" class="edge">
<title>Separated_jc_factors&#45;&gt;Separated_jc_factor2</title>
<path fill="none" stroke="black" d="M1995.32,-473.03C2006.63,-436.66 2033.15,-351.4 2046.7,-307.81"/>
<polygon fill="black" stroke="black" points="2050.07,-308.77 2049.7,-298.18 2043.39,-306.69 2050.07,-308.77"/>
</g>
<!-- Separated_jc_factors&#45;&gt;Separated_jc_factor1 -->
<g id="edge8" class="edge">
<title>Separated_jc_factors&#45;&gt;Separated_jc_factor1</title>
<path fill="none" stroke="black" d="M1984.68,-473.03C1973.37,-436.66 1946.85,-351.4 1933.3,-307.81"/>
<polygon fill="black" stroke="black" points="1936.61,-306.69 1930.3,-298.18 1929.93,-308.77 1936.61,-306.69"/>
</g>
<!-- Separated_jc_image -->
<g id="node7" class="node">
<title>Separated_jc_image</title>
<g id="a_node7"><a xlink:href="Separated.html#jc_image" xlink:title="jc_image">
<ellipse fill="#facdef" stroke="black" cx="1990" cy="-90.13" rx="51.19" ry="18"/>
<text text-anchor="middle" x="1990" y="-86.43" font-family="Times,serif" font-size="14.00">jc_image</text>
</a>
</g>
</g>
<!-- Separated_jc_factor2&#45;&gt;Separated_jc_image -->
<g id="edge9" class="edge">
<title>Separated_jc_factor2&#45;&gt;Separated_jc_image</title>
<path fill="none" stroke="black" d="M2049.12,-262.12C2037.79,-229.34 2012.85,-157.23 1999.27,-117.94"/>
<polygon fill="black" stroke="black" points="2002.49,-116.55 1995.92,-108.25 1995.88,-118.84 2002.49,-116.55"/>
</g>
<!-- Separated_jc_factor1&#45;&gt;Separated_jc_image -->
<g id="edge10" class="edge">
<title>Separated_jc_factor1&#45;&gt;Separated_jc_image</title>
<path fill="none" stroke="black" d="M1930.88,-262.12C1942.21,-229.34 1967.15,-157.23 1980.73,-117.94"/>
<polygon fill="black" stroke="black" points="1984.12,-118.84 1984.08,-108.25 1977.51,-116.55 1984.12,-118.84"/>
</g>
<!-- Separated_equiv_toSepO_inO -->
<g id="node8" class="node">
<title>Separated_equiv_toSepO_inO</title>
<g id="a_node8"><a xlink:href="Separated.html#equiv_toSepO_inO" xlink:title="equiv_toSepO_inO">
<ellipse fill="#f070d1" stroke="black" cx="2137" cy="-956.13" rx="94.79" ry="18"/>
<ellipse fill="none" stroke="black" cx="2137" cy="-956.13" rx="98.79" ry="22"/>
<ellipse fill="none" stroke="black" cx="2137" cy="-956.13" rx="102.78" ry="26"/>
<text text-anchor="middle" x="2137" y="-952.43" font-family="Times,serif" font-size="14.00">equiv_toSepO_inO</text>
</a>
</g>
</g>
<!-- Separated_isequiv_toSepO_inO -->
<g id="node9" class="node">
<title>Separated_isequiv_toSepO_inO</title>
<g id="a_node9"><a xlink:href="Separated.html#isequiv_toSepO_inO" xlink:title="isequiv_toSepO_inO">
<ellipse fill="#f070d1" stroke="black" cx="1698" cy="-724.13" rx="102.88" ry="18"/>
<text text-anchor="middle" x="1698" y="-720.43" font-family="Times,serif" font-size="14.00">isequiv_toSepO_inO</text>
</a>
</g>
</g>
<!-- Separated_equiv_toSepO_inO&#45;&gt;Separated_isequiv_toSepO_inO -->
<g id="edge11" class="edge">
<title>Separated_equiv_toSepO_inO&#45;&gt;Separated_isequiv_toSepO_inO</title>
<path fill="none" stroke="black" d="M2093.71,-932.45C2008.62,-887.87 1820.72,-789.43 1738.2,-746.19"/>
<polygon fill="black" stroke="black" points="1739.62,-742.99 1729.14,-741.45 1736.37,-749.19 1739.62,-742.99"/>
</g>
<!-- Separated_isequiv_toSepO_inO&#45;&gt;Separated_reflectsD_SepO -->
<g id="edge12" class="edge">
<title>Separated_isequiv_toSepO_inO&#45;&gt;Separated_reflectsD_SepO</title>
<path fill="none" stroke="black" d="M1675.49,-706.52C1620.33,-665.81 1478.38,-561.05 1415.62,-514.73"/>
<polygon fill="black" stroke="black" points="1417.43,-511.72 1407.31,-508.6 1413.27,-517.35 1417.43,-511.72"/>
</g>
<!-- Separated_inSepO_sigma -->
<g id="node11" class="node">
<title>Separated_inSepO_sigma</title>
<g id="a_node11"><a xlink:href="Separated.html#inSepO_sigma" xlink:title="inSepO_sigma">
<ellipse fill="#f070d1" stroke="black" cx="1385" cy="-280.13" rx="76.89" ry="18"/>
<text text-anchor="middle" x="1385" y="-276.43" font-family="Times,serif" font-size="14.00">inSepO_sigma</text>
</a>
</g>
</g>
<!-- Separated_reflectsD_SepO&#45;&gt;Separated_inSepO_sigma -->
<g id="edge13" class="edge">
<title>Separated_reflectsD_SepO&#45;&gt;Separated_inSepO_sigma</title>
<path fill="none" stroke="black" d="M1385,-473.03C1385,-436.81 1385,-352.12 1385,-308.37"/>
<polygon fill="black" stroke="black" points="1388.5,-308.18 1385,-298.18 1381.5,-308.18 1388.5,-308.18"/>
</g>
<!-- Separated_issurjective_to_SepO -->
<g id="node13" class="node">
<title>Separated_issurjective_to_SepO</title>
<g id="a_node13"><a xlink:href="Separated.html#issurjective_to_SepO" xlink:title="issurjective_to_SepO">
<ellipse fill="#f070d1" stroke="black" cx="1901" cy="-956.13" rx="107.46" ry="18"/>
<ellipse fill="none" stroke="black" cx="1901" cy="-956.13" rx="111.47" ry="22"/>
<ellipse fill="none" stroke="black" cx="1901" cy="-956.13" rx="115.48" ry="26"/>
<text text-anchor="middle" x="1901" y="-952.43" font-family="Times,serif" font-size="14.00">issurjective_to_SepO</text>
</a>
</g>
</g>
<!-- Separated_in_SepO_embedding -->
<g id="node17" class="node">
<title>Separated_in_SepO_embedding</title>
<g id="a_node17"><a xlink:href="Separated.html#in_SepO_embedding" xlink:title="in_SepO_embedding">
<ellipse fill="#f070d1" stroke="black" cx="1442" cy="-724.13" rx="104.78" ry="18"/>
<text text-anchor="middle" x="1442" y="-720.43" font-family="Times,serif" font-size="14.00">in_SepO_embedding</text>
</a>
</g>
</g>
<!-- Separated_issurjective_to_SepO&#45;&gt;Separated_in_SepO_embedding -->
<g id="edge14" class="edge">
<title>Separated_issurjective_to_SepO&#45;&gt;Separated_in_SepO_embedding</title>
<path fill="none" stroke="black" d="M1855.31,-932.24C1765.92,-887.45 1569.16,-788.85 1483.36,-745.86"/>
<polygon fill="black" stroke="black" points="1484.7,-742.61 1474.19,-741.26 1481.56,-748.87 1484.7,-742.61"/>
</g>
<!-- Separated_sigma_closed_SepO -->
<g id="node14" class="node">
<title>Separated_sigma_closed_SepO</title>
<g id="a_node14"><a xlink:href="Separated.html#sigma_closed_SepO" xlink:title="sigma_closed_SepO">
<ellipse fill="#f070d1" stroke="black" cx="1658" cy="-956.13" rx="101.29" ry="18"/>
<ellipse fill="none" stroke="black" cx="1658" cy="-956.13" rx="105.29" ry="22"/>
<ellipse fill="none" stroke="black" cx="1658" cy="-956.13" rx="109.28" ry="26"/>
<text text-anchor="middle" x="1658" y="-952.43" font-family="Times,serif" font-size="14.00">sigma_closed_SepO</text>
</a>
</g>
</g>
<!-- Separated_in_SepO_hprop -->
<g id="node15" class="node">
<title>Separated_in_SepO_hprop</title>
<g id="a_node15"><a xlink:href="Separated.html#in_SepO_hprop" xlink:title="in_SepO_hprop">
<ellipse fill="#f070d1" stroke="black" cx="1442" cy="-956.13" rx="80.68" ry="18"/>
<ellipse fill="none" stroke="black" cx="1442" cy="-956.13" rx="84.68" ry="22"/>
<ellipse fill="none" stroke="black" cx="1442" cy="-956.13" rx="88.69" ry="26"/>
<text text-anchor="middle" x="1442" y="-952.43" font-family="Times,serif" font-size="14.00">in_SepO_hprop</text>
</a>
</g>
</g>
<!-- Separated_in_SepO_hprop&#45;&gt;Separated_in_SepO_embedding -->
<g id="edge15" class="edge">
<title>Separated_in_SepO_hprop&#45;&gt;Separated_in_SepO_embedding</title>
<path fill="none" stroke="black" d="M1442,-930.08C1442,-886.63 1442,-797.62 1442,-752.56"/>
<polygon fill="black" stroke="black" points="1445.5,-752.36 1442,-742.36 1438.5,-752.37 1445.5,-752.36"/>
</g>
<!-- Separated_istrunc_embedding_trunc -->
<g id="node16" class="node">
<title>Separated_istrunc_embedding_trunc</title>
<g id="a_node16"><a xlink:href="Separated.html#istrunc_embedding_trunc" xlink:title="istrunc_embedding_trunc">
<ellipse fill="#f070d1" stroke="black" cx="1199" cy="-956.13" rx="128.87" ry="18"/>
<ellipse fill="none" stroke="black" cx="1199" cy="-956.13" rx="132.87" ry="22"/>
<ellipse fill="none" stroke="black" cx="1199" cy="-956.13" rx="136.88" ry="26"/>
<text text-anchor="middle" x="1199" y="-952.43" font-family="Times,serif" font-size="14.00">istrunc_embedding_trunc</text>
</a>
</g>
</g>
<!-- Separated_istrunc_embedding_trunc&#45;&gt;Separated_in_SepO_embedding -->
<g id="edge16" class="edge">
<title>Separated_istrunc_embedding_trunc&#45;&gt;Separated_in_SepO_embedding</title>
<path fill="none" stroke="black" d="M1225.01,-930.52C1271.88,-886.15 1369.98,-793.3 1416.49,-749.28"/>
<polygon fill="black" stroke="black" points="1419.17,-751.56 1424.03,-742.15 1414.36,-746.48 1419.17,-751.56"/>
</g>
<!-- Separated_O_leq_SepO -->
<g id="node18" class="node">
<title>Separated_O_leq_SepO</title>
<g id="a_node18"><a xlink:href="Separated.html#O_leq_SepO" xlink:title="O_leq_SepO">
<ellipse fill="#f070d1" stroke="black" cx="971" cy="-956.13" rx="65.77" ry="18"/>
<ellipse fill="none" stroke="black" cx="971" cy="-956.13" rx="69.78" ry="22"/>
<ellipse fill="none" stroke="black" cx="971" cy="-956.13" rx="73.79" ry="26"/>
<text text-anchor="middle" x="971" y="-952.43" font-family="Times,serif" font-size="14.00">O_leq_SepO</text>
</a>
</g>
</g>
<!-- Separated_isaccmodality_sep -->
<g id="node19" class="node">
<title>Separated_isaccmodality_sep</title>
<g id="a_node19"><a xlink:href="Separated.html#isaccmodality_sep" xlink:title="isaccmodality_sep">
<ellipse fill="#f070d1" stroke="black" cx="776" cy="-956.13" rx="94.79" ry="18"/>
<ellipse fill="none" stroke="black" cx="776" cy="-956.13" rx="98.79" ry="22"/>
<ellipse fill="none" stroke="black" cx="776" cy="-956.13" rx="102.78" ry="26"/>
<text text-anchor="middle" x="776" y="-952.43" font-family="Times,serif" font-size="14.00">isaccmodality_sep</text>
</a>
</g>
</g>
<!-- Separated_susp_nullgen -->
<g id="node20" class="node">
<title>Separated_susp_nullgen</title>
<g id="a_node20"><a xlink:href="Separated.html#susp_nullgen" xlink:title="susp_nullgen">
<ellipse fill="#f070d1" stroke="black" cx="776" cy="-724.13" rx="71.49" ry="18"/>
<text text-anchor="middle" x="776" y="-720.43" font-family="Times,serif" font-size="14.00">susp_nullgen</text>
</a>
</g>
</g>
<!-- Separated_isaccmodality_sep&#45;&gt;Separated_susp_nullgen -->
<g id="edge17" class="edge">
<title>Separated_isaccmodality_sep&#45;&gt;Separated_susp_nullgen</title>
<path fill="none" stroke="black" d="M776,-930.08C776,-886.63 776,-797.62 776,-752.56"/>
<polygon fill="black" stroke="black" points="779.5,-752.36 776,-742.36 772.5,-752.37 779.5,-752.36"/>
</g>
<!-- Separated_isaccrsu_sep -->
<g id="node21" class="node">
<title>Separated_isaccrsu_sep</title>
<g id="a_node21"><a xlink:href="Separated.html#isaccrsu_sep" xlink:title="isaccrsu_sep">
<ellipse fill="#f070d1" stroke="black" cx="578" cy="-956.13" rx="69.58" ry="18"/>
<ellipse fill="none" stroke="black" cx="578" cy="-956.13" rx="73.59" ry="22"/>
<ellipse fill="none" stroke="black" cx="578" cy="-956.13" rx="77.59" ry="26"/>
<text text-anchor="middle" x="578" y="-952.43" font-family="Times,serif" font-size="14.00">isaccrsu_sep</text>
</a>
</g>
</g>
<!-- Separated_susp_localgen -->
<g id="node22" class="node">
<title>Separated_susp_localgen</title>
<g id="a_node22"><a xlink:href="Separated.html#susp_localgen" xlink:title="susp_localgen">
<ellipse fill="#f070d1" stroke="black" cx="578" cy="-724.13" rx="75.29" ry="18"/>
<text text-anchor="middle" x="578" y="-720.43" font-family="Times,serif" font-size="14.00">susp_localgen</text>
</a>
</g>
</g>
<!-- Separated_isaccrsu_sep&#45;&gt;Separated_susp_localgen -->
<g id="edge18" class="edge">
<title>Separated_isaccrsu_sep&#45;&gt;Separated_susp_localgen</title>
<path fill="none" stroke="black" d="M578,-930.08C578,-886.63 578,-797.62 578,-752.56"/>
<polygon fill="black" stroke="black" points="581.5,-752.36 578,-742.36 574.5,-752.37 581.5,-752.36"/>
</g>
<!-- Separated_mapinO_from_diagonal -->
<g id="node23" class="node">
<title>Separated_mapinO_from_diagonal</title>
<g id="a_node23"><a xlink:href="Separated.html#mapinO_from_diagonal" xlink:title="mapinO_from_diagonal">
<ellipse fill="#f070d1" stroke="black" cx="357" cy="-956.13" rx="116.98" ry="18"/>
<ellipse fill="none" stroke="black" cx="357" cy="-956.13" rx="120.98" ry="22"/>
<ellipse fill="none" stroke="black" cx="357" cy="-956.13" rx="124.98" ry="26"/>
<text text-anchor="middle" x="357" y="-952.43" font-family="Times,serif" font-size="14.00">mapinO_from_diagonal</text>
</a>
</g>
</g>
<!-- Separated_mapinO_diagonal -->
<g id="node24" class="node">
<title>Separated_mapinO_diagonal</title>
<g id="a_node24"><a xlink:href="Separated.html#mapinO_diagonal" xlink:title="mapinO_diagonal">
<ellipse fill="#f070d1" stroke="black" cx="115" cy="-956.13" rx="90.98" ry="18"/>
<ellipse fill="none" stroke="black" cx="115" cy="-956.13" rx="94.98" ry="22"/>
<ellipse fill="none" stroke="black" cx="115" cy="-956.13" rx="98.98" ry="26"/>
<text text-anchor="middle" x="115" y="-952.43" font-family="Times,serif" font-size="14.00">mapinO_diagonal</text>
</a>
</g>
</g>
</g>
</svg>
