<?xml version="1.0" encoding="UTF-8" standalone="no"?>
<!DOCTYPE svg PUBLIC "-//W3C//DTD SVG 1.1//EN"
 "http://www.w3.org/Graphics/SVG/1.1/DTD/svg11.dtd">
<!-- Generated by graphviz version 2.43.0 (0)
 -->
<!-- Title: HoTT_Algebra_Groups_GroupCoeq Pages: 1 -->
<svg width="366pt" height="187pt"
 viewBox="0.00 0.00 366.00 187.00" xmlns="http://www.w3.org/2000/svg" xmlns:xlink="http://www.w3.org/1999/xlink">
<g id="graph0" class="graph" transform="scale(1 1) rotate(0) translate(4 183)">
<title>HoTT_Algebra_Groups_GroupCoeq</title>
<polygon fill="white" stroke="transparent" points="-4,4 -4,-183 362,-183 362,4 -4,4"/>
<g id="clust1" class="cluster">
<title>cluster_GroupCoeq</title>
<polygon fill="#ffffc3" stroke="black" points="10.77,-8 10.77,-171 347.23,-171 347.23,-8 10.77,-8"/>
<text text-anchor="middle" x="59.27" y="-155.8" font-family="Times,serif" font-size="14.00">GroupCoeq</text>
</g>
<!-- GroupCoeq_equiv_groupcoeq_rec -->
<g id="node1" class="node">
<title>GroupCoeq_equiv_groupcoeq_rec</title>
<g id="a_node1"><a xlink:href="GroupCoeq.html#equiv_groupcoeq_rec" xlink:title="equiv_groupcoeq_rec">
<ellipse fill="#f070d1" stroke="black" cx="178.98" cy="-114" rx="108.58" ry="18"/>
<ellipse fill="none" stroke="black" cx="178.98" cy="-114" rx="112.58" ry="22"/>
<ellipse fill="none" stroke="black" cx="178.98" cy="-114" rx="116.58" ry="26"/>
<text text-anchor="middle" x="178.98" y="-110.3" font-family="Times,serif" font-size="14.00">equiv_groupcoeq_rec</text>
</a>
</g>
</g>
<!-- GroupCoeq_GroupCoeq -->
<g id="node2" class="node">
<title>GroupCoeq_GroupCoeq</title>
<g id="a_node2"><a xlink:href="GroupCoeq.html#GroupCoeq" xlink:title="GroupCoeq">
<ellipse fill="#f070d1" stroke="black" cx="178.98" cy="-34" rx="63.09" ry="18"/>
<text text-anchor="middle" x="178.98" y="-30.3" font-family="Times,serif" font-size="14.00">GroupCoeq</text>
</a>
</g>
</g>
<!-- GroupCoeq_equiv_groupcoeq_rec&#45;&gt;GroupCoeq_GroupCoeq -->
<g id="edge1" class="edge">
<title>GroupCoeq_equiv_groupcoeq_rec&#45;&gt;GroupCoeq_GroupCoeq</title>
<path fill="none" stroke="black" d="M178.98,-87.89C178.98,-79.84 178.98,-70.88 178.98,-62.66"/>
<polygon fill="black" stroke="black" points="182.48,-62.41 178.98,-52.41 175.48,-62.41 182.48,-62.41"/>
</g>
</g>
</svg>
