<?xml version="1.0" encoding="UTF-8" standalone="no"?>
<!DOCTYPE svg PUBLIC "-//W3C//DTD SVG 1.1//EN"
 "http://www.w3.org/Graphics/SVG/1.1/DTD/svg11.dtd">
<!-- Generated by graphviz version 2.43.0 (0)
 -->
<!-- Title: HoTT_Classes_theory_fields Pages: 1 -->
<svg width="2733pt" height="1371pt"
 viewBox="0.00 0.00 2733.00 1370.50" xmlns="http://www.w3.org/2000/svg" xmlns:xlink="http://www.w3.org/1999/xlink">
<g id="graph0" class="graph" transform="scale(1 1) rotate(0) translate(4 1366.5)">
<title>HoTT_Classes_theory_fields</title>
<polygon fill="white" stroke="transparent" points="-4,4 -4,-1366.5 2729,-1366.5 2729,4 -4,4"/>
<g id="clust1" class="cluster">
<title>cluster_fields</title>
<polygon fill="#ffffc3" stroke="black" points="8,-30.7 8,-1331.8 2717,-1331.8 2717,-30.7 8,-30.7"/>
<text text-anchor="middle" x="35.5" y="-1316.6" font-family="Times,serif" font-size="14.00">fields</text>
</g>
<!-- fields_preserves_recip -->
<g id="node1" class="node">
<title>fields_preserves_recip</title>
<g id="a_node1"><a xlink:href="fields.html#preserves_recip" xlink:title="preserves_recip">
<ellipse fill="#f070d1" stroke="black" cx="2617" cy="-1112.7" rx="84.49" ry="18"/>
<ellipse fill="none" stroke="black" cx="2617" cy="-1112.7" rx="88.49" ry="22"/>
<ellipse fill="none" stroke="black" cx="2617" cy="-1112.7" rx="92.49" ry="26"/>
<text text-anchor="middle" x="2617" y="-1109" font-family="Times,serif" font-size="14.00">preserves_recip</text>
</a>
</g>
</g>
<!-- fields_IsIntegralDomain_instance_0 -->
<g id="node16" class="node">
<title>fields_IsIntegralDomain_instance_0</title>
<g id="a_node16"><a xlink:href="fields.html#IsIntegralDomain_instance_0" xlink:title="IsIntegralDomain_instance_0">
<ellipse fill="#f070d1" stroke="black" cx="1566" cy="-775.7" rx="145.67" ry="18"/>
<text text-anchor="middle" x="1566" y="-772" font-family="Times,serif" font-size="14.00">IsIntegralDomain_instance_0</text>
</a>
</g>
</g>
<!-- fields_preserves_recip&#45;&gt;fields_IsIntegralDomain_instance_0 -->
<g id="edge1" class="edge">
<title>fields_preserves_recip&#45;&gt;fields_IsIntegralDomain_instance_0</title>
<path fill="none" stroke="black" d="M2557.48,-1092.73C2372.76,-1033.85 1810.58,-854.66 1625.66,-795.72"/>
<polygon fill="black" stroke="black" points="1626.69,-792.38 1616.1,-792.67 1624.57,-799.05 1626.69,-792.38"/>
</g>
<!-- fields_IsStrongInjective_instance_2 -->
<g id="node2" class="node">
<title>fields_IsStrongInjective_instance_2</title>
<g id="a_node2"><a xlink:href="fields.html#IsStrongInjective_instance_2" xlink:title="IsStrongInjective_instance_2">
<ellipse fill="#f070d1" stroke="black" cx="2554" cy="-437.7" rx="144.09" ry="18"/>
<ellipse fill="none" stroke="black" cx="2554" cy="-437.7" rx="148.08" ry="22"/>
<ellipse fill="none" stroke="black" cx="2554" cy="-437.7" rx="152.07" ry="26"/>
<text text-anchor="middle" x="2554" y="-434" font-family="Times,serif" font-size="14.00">IsStrongInjective_instance_2</text>
</a>
</g>
</g>
<!-- fields_strong_injective_preserves_0 -->
<g id="node3" class="node">
<title>fields_strong_injective_preserves_0</title>
<g id="a_node3"><a xlink:href="fields.html#strong_injective_preserves_0" xlink:title="strong_injective_preserves_0">
<ellipse fill="#f070d1" stroke="black" cx="2359" cy="-130.7" rx="145.67" ry="18"/>
<text text-anchor="middle" x="2359" y="-127" font-family="Times,serif" font-size="14.00">strong_injective_preserves_0</text>
</a>
</g>
</g>
<!-- fields_IsStrongInjective_instance_2&#45;&gt;fields_strong_injective_preserves_0 -->
<g id="edge2" class="edge">
<title>fields_IsStrongInjective_instance_2&#45;&gt;fields_strong_injective_preserves_0</title>
<path fill="none" stroke="black" d="M2538.04,-411.74C2501.52,-354.62 2412.17,-214.87 2375.31,-157.22"/>
<polygon fill="black" stroke="black" points="2378.2,-155.23 2369.86,-148.69 2372.3,-159 2378.2,-155.23"/>
</g>
<!-- fields_mult_apart_zero_l -->
<g id="node20" class="node">
<title>fields_mult_apart_zero_l</title>
<g id="a_node20"><a xlink:href="fields.html#mult_apart_zero_l" xlink:title="mult_apart_zero_l">
<ellipse fill="#f070d1" stroke="black" cx="2616" cy="-130.7" rx="92.88" ry="18"/>
<text text-anchor="middle" x="2616" y="-127" font-family="Times,serif" font-size="14.00">mult_apart_zero_l</text>
</a>
</g>
</g>
<!-- fields_IsStrongInjective_instance_2&#45;&gt;fields_mult_apart_zero_l -->
<g id="edge3" class="edge">
<title>fields_IsStrongInjective_instance_2&#45;&gt;fields_mult_apart_zero_l</title>
<path fill="none" stroke="black" d="M2559.13,-411.49C2570.65,-354.79 2598.53,-217.63 2610.45,-159.01"/>
<polygon fill="black" stroke="black" points="2613.92,-159.51 2612.48,-149.02 2607.06,-158.12 2613.92,-159.51"/>
</g>
<!-- fields_reciperse_alt -->
<g id="node31" class="node">
<title>fields_reciperse_alt</title>
<g id="a_node31"><a xlink:href="fields.html#reciperse_alt" xlink:title="reciperse_alt">
<ellipse fill="#f070d1" stroke="black" cx="1465" cy="-130.7" rx="70.69" ry="18"/>
<text text-anchor="middle" x="1465" y="-127" font-family="Times,serif" font-size="14.00">reciperse_alt</text>
</a>
</g>
</g>
<!-- fields_IsStrongInjective_instance_2&#45;&gt;fields_reciperse_alt -->
<g id="edge4" class="edge">
<title>fields_IsStrongInjective_instance_2&#45;&gt;fields_reciperse_alt</title>
<path fill="none" stroke="black" d="M2476.99,-415.14C2269.2,-356.94 1700.64,-197.7 1520.51,-147.25"/>
<polygon fill="black" stroke="black" points="1521.29,-143.83 1510.72,-144.51 1519.4,-150.58 1521.29,-143.83"/>
</g>
<!-- fields_recip_involutive -->
<g id="node4" class="node">
<title>fields_recip_involutive</title>
<g id="a_node4"><a xlink:href="fields.html#recip_involutive" xlink:title="recip_involutive">
<ellipse fill="#f070d1" stroke="black" cx="2054" cy="-775.7" rx="84.49" ry="18"/>
<ellipse fill="none" stroke="black" cx="2054" cy="-775.7" rx="88.49" ry="22"/>
<ellipse fill="none" stroke="black" cx="2054" cy="-775.7" rx="92.49" ry="26"/>
<text text-anchor="middle" x="2054" y="-772" font-family="Times,serif" font-size="14.00">recip_involutive</text>
</a>
</g>
</g>
<!-- fields_recip_on_apart -->
<g id="node5" class="node">
<title>fields_recip_on_apart</title>
<g id="a_node5"><a xlink:href="fields.html#recip_on_apart" xlink:title="recip_on_apart">
<ellipse fill="#f070d1" stroke="black" cx="2111" cy="-437.7" rx="79.09" ry="18"/>
<text text-anchor="middle" x="2111" y="-434" font-family="Times,serif" font-size="14.00">recip_on_apart</text>
</a>
</g>
</g>
<!-- fields_recip_involutive&#45;&gt;fields_recip_on_apart -->
<g id="edge5" class="edge">
<title>fields_recip_involutive&#45;&gt;fields_recip_on_apart</title>
<path fill="none" stroke="black" d="M2058.24,-749.72C2068.68,-688.19 2095.56,-529.69 2106.39,-465.9"/>
<polygon fill="black" stroke="black" points="2109.88,-466.26 2108.1,-455.82 2102.97,-465.09 2109.88,-466.26"/>
</g>
<!-- fields_recip_apart_zero -->
<g id="node14" class="node">
<title>fields_recip_apart_zero</title>
<g id="a_node14"><a xlink:href="fields.html#recip_apart_zero" xlink:title="recip_apart_zero">
<ellipse fill="#f070d1" stroke="black" cx="2296" cy="-437.7" rx="87.99" ry="18"/>
<text text-anchor="middle" x="2296" y="-434" font-family="Times,serif" font-size="14.00">recip_apart_zero</text>
</a>
</g>
</g>
<!-- fields_recip_involutive&#45;&gt;fields_recip_apart_zero -->
<g id="edge6" class="edge">
<title>fields_recip_involutive&#45;&gt;fields_recip_apart_zero</title>
<path fill="none" stroke="black" d="M2071.79,-750C2116.41,-688.05 2232.7,-526.59 2277.78,-464.01"/>
<polygon fill="black" stroke="black" points="2280.64,-466.01 2283.65,-455.85 2274.96,-461.92 2280.64,-466.01"/>
</g>
<!-- fields_NoZeroDivisors_instance_0 -->
<g id="node17" class="node">
<title>fields_NoZeroDivisors_instance_0</title>
<g id="a_node17"><a xlink:href="fields.html#NoZeroDivisors_instance_0" xlink:title="NoZeroDivisors_instance_0">
<ellipse fill="#f070d1" stroke="black" cx="1341" cy="-437.7" rx="137.28" ry="18"/>
<text text-anchor="middle" x="1341" y="-434" font-family="Times,serif" font-size="14.00">NoZeroDivisors_instance_0</text>
</a>
</g>
</g>
<!-- fields_recip_involutive&#45;&gt;fields_NoZeroDivisors_instance_0 -->
<g id="edge7" class="edge">
<title>fields_recip_involutive&#45;&gt;fields_NoZeroDivisors_instance_0</title>
<path fill="none" stroke="black" d="M2008.04,-753.05C1878.55,-692.02 1511.86,-519.22 1384.91,-459.4"/>
<polygon fill="black" stroke="black" points="1386.37,-456.22 1375.84,-455.12 1383.39,-462.55 1386.37,-456.22"/>
</g>
<!-- fields_recip_inverse_ -->
<g id="node32" class="node">
<title>fields_recip_inverse_</title>
<g id="a_node32"><a xlink:href="fields.html#recip_inverse'" xlink:title="recip_inverse&#39;">
<ellipse fill="#f070d1" stroke="black" cx="1938" cy="-437.7" rx="75.29" ry="18"/>
<text text-anchor="middle" x="1938" y="-434" font-family="Times,serif" font-size="14.00">recip_inverse&#39;</text>
</a>
</g>
</g>
<!-- fields_recip_involutive&#45;&gt;fields_recip_inverse_ -->
<g id="edge8" class="edge">
<title>fields_recip_involutive&#45;&gt;fields_recip_inverse_</title>
<path fill="none" stroke="black" d="M2045.38,-749.72C2024.09,-688.06 1969.19,-529.04 1947.25,-465.5"/>
<polygon fill="black" stroke="black" points="1950.48,-464.13 1943.91,-455.82 1943.86,-466.41 1950.48,-464.13"/>
</g>
<!-- fields_recip_apart -->
<g id="node6" class="node">
<title>fields_recip_apart</title>
<g id="a_node6"><a xlink:href="fields.html#recip_apart" xlink:title="recip_apart">
<ellipse fill="#f070d1" stroke="black" cx="1924" cy="-130.7" rx="63.89" ry="18"/>
<text text-anchor="middle" x="1924" y="-127" font-family="Times,serif" font-size="14.00">recip_apart</text>
</a>
</g>
</g>
<!-- fields_recip_on_apart&#45;&gt;fields_recip_apart -->
<g id="edge9" class="edge">
<title>fields_recip_on_apart&#45;&gt;fields_recip_apart</title>
<path fill="none" stroke="black" d="M2100.41,-419.43C2069.1,-368.37 1976.86,-217.92 1939.74,-157.37"/>
<polygon fill="black" stroke="black" points="1942.68,-155.48 1934.47,-148.79 1936.72,-159.14 1942.68,-155.48"/>
</g>
<!-- fields_recip_negate -->
<g id="node7" class="node">
<title>fields_recip_negate</title>
<g id="a_node7"><a xlink:href="fields.html#recip_negate" xlink:title="recip_negate">
<ellipse fill="#f070d1" stroke="black" cx="1808" cy="-775.7" rx="70.37" ry="18"/>
<ellipse fill="none" stroke="black" cx="1808" cy="-775.7" rx="74.38" ry="22"/>
<ellipse fill="none" stroke="black" cx="1808" cy="-775.7" rx="78.39" ry="26"/>
<text text-anchor="middle" x="1808" y="-772" font-family="Times,serif" font-size="14.00">recip_negate</text>
</a>
</g>
</g>
<!-- fields_negate_apart -->
<g id="node8" class="node">
<title>fields_negate_apart</title>
<g id="a_node8"><a xlink:href="fields.html#negate_apart" xlink:title="negate_apart">
<ellipse fill="#f070d1" stroke="black" cx="1773" cy="-437.7" rx="71.49" ry="18"/>
<text text-anchor="middle" x="1773" y="-434" font-family="Times,serif" font-size="14.00">negate_apart</text>
</a>
</g>
</g>
<!-- fields_recip_negate&#45;&gt;fields_negate_apart -->
<g id="edge10" class="edge">
<title>fields_recip_negate&#45;&gt;fields_negate_apart</title>
<path fill="none" stroke="black" d="M1805.37,-749.45C1798.94,-687.7 1782.46,-529.5 1775.83,-465.84"/>
<polygon fill="black" stroke="black" points="1779.3,-465.36 1774.78,-455.78 1772.33,-466.09 1779.3,-465.36"/>
</g>
<!-- fields_recip_negate&#45;&gt;fields_NoZeroDivisors_instance_0 -->
<g id="edge11" class="edge">
<title>fields_recip_negate&#45;&gt;fields_NoZeroDivisors_instance_0</title>
<path fill="none" stroke="black" d="M1776.27,-751.87C1691.02,-690.54 1457.75,-522.71 1372.63,-461.46"/>
<polygon fill="black" stroke="black" points="1374.56,-458.53 1364.39,-455.54 1370.47,-464.22 1374.56,-458.53"/>
</g>
<!-- fields_apart_negate -->
<g id="node9" class="node">
<title>fields_apart_negate</title>
<g id="a_node9"><a xlink:href="fields.html#apart_negate" xlink:title="apart_negate">
<ellipse fill="#f070d1" stroke="black" cx="1771" cy="-130.7" rx="71.49" ry="18"/>
<text text-anchor="middle" x="1771" y="-127" font-family="Times,serif" font-size="14.00">apart_negate</text>
</a>
</g>
</g>
<!-- fields_negate_apart&#45;&gt;fields_apart_negate -->
<g id="edge12" class="edge">
<title>fields_negate_apart&#45;&gt;fields_apart_negate</title>
<path fill="none" stroke="black" d="M1772.89,-419.43C1772.55,-368.79 1771.58,-220.38 1771.18,-158.88"/>
<polygon fill="black" stroke="black" points="1774.68,-158.76 1771.11,-148.79 1767.68,-158.81 1774.68,-158.76"/>
</g>
<!-- fields_recip_distr_alt -->
<g id="node10" class="node">
<title>fields_recip_distr_alt</title>
<g id="a_node10"><a xlink:href="fields.html#recip_distr_alt" xlink:title="recip_distr_alt">
<ellipse fill="#f070d1" stroke="black" cx="1317" cy="-775.7" rx="77.2" ry="18"/>
<ellipse fill="none" stroke="black" cx="1317" cy="-775.7" rx="81.19" ry="22"/>
<ellipse fill="none" stroke="black" cx="1317" cy="-775.7" rx="85.19" ry="26"/>
<text text-anchor="middle" x="1317" y="-772" font-family="Times,serif" font-size="14.00">recip_distr_alt</text>
</a>
</g>
</g>
<!-- fields_recip_distr_alt&#45;&gt;fields_NoZeroDivisors_instance_0 -->
<g id="edge13" class="edge">
<title>fields_recip_distr_alt&#45;&gt;fields_NoZeroDivisors_instance_0</title>
<path fill="none" stroke="black" d="M1318.8,-749.45C1323.21,-687.7 1334.51,-529.5 1339.06,-465.84"/>
<polygon fill="black" stroke="black" points="1342.56,-466 1339.78,-455.78 1335.58,-465.5 1342.56,-466"/>
</g>
<!-- fields_equal_quotients -->
<g id="node11" class="node">
<title>fields_equal_quotients</title>
<g id="a_node11"><a xlink:href="fields.html#equal_quotients" xlink:title="equal_quotients">
<ellipse fill="#f070d1" stroke="black" cx="2414" cy="-1112.7" rx="84.49" ry="18"/>
<ellipse fill="none" stroke="black" cx="2414" cy="-1112.7" rx="88.49" ry="22"/>
<ellipse fill="none" stroke="black" cx="2414" cy="-1112.7" rx="92.49" ry="26"/>
<text text-anchor="middle" x="2414" y="-1109" font-family="Times,serif" font-size="14.00">equal_quotients</text>
</a>
</g>
</g>
<!-- fields_field_div_diag -->
<g id="node12" class="node">
<title>fields_field_div_diag</title>
<g id="a_node12"><a xlink:href="fields.html#field_div_diag" xlink:title="field_div_diag">
<ellipse fill="#f070d1" stroke="black" cx="2222" cy="-1112.7" rx="73.39" ry="18"/>
<ellipse fill="none" stroke="black" cx="2222" cy="-1112.7" rx="77.39" ry="22"/>
<ellipse fill="none" stroke="black" cx="2222" cy="-1112.7" rx="81.39" ry="26"/>
<text text-anchor="middle" x="2222" y="-1109" font-family="Times,serif" font-size="14.00">field_div_diag</text>
</a>
</g>
</g>
<!-- fields_field_div_0_l -->
<g id="node13" class="node">
<title>fields_field_div_0_l</title>
<g id="a_node13"><a xlink:href="fields.html#field_div_0_l" xlink:title="field_div_0_l">
<ellipse fill="#f070d1" stroke="black" cx="2048" cy="-1112.7" rx="66.89" ry="18"/>
<ellipse fill="none" stroke="black" cx="2048" cy="-1112.7" rx="70.89" ry="22"/>
<ellipse fill="none" stroke="black" cx="2048" cy="-1112.7" rx="74.89" ry="26"/>
<text text-anchor="middle" x="2048" y="-1109" font-family="Times,serif" font-size="14.00">field_div_0_l</text>
</a>
</g>
</g>
<!-- fields_mult_apart_zero_r -->
<g id="node19" class="node">
<title>fields_mult_apart_zero_r</title>
<g id="a_node19"><a xlink:href="fields.html#mult_apart_zero_r" xlink:title="mult_apart_zero_r">
<ellipse fill="#f070d1" stroke="black" cx="2101" cy="-130.7" rx="94.78" ry="18"/>
<text text-anchor="middle" x="2101" y="-127" font-family="Times,serif" font-size="14.00">mult_apart_zero_r</text>
</a>
</g>
</g>
<!-- fields_recip_apart_zero&#45;&gt;fields_mult_apart_zero_r -->
<g id="edge14" class="edge">
<title>fields_recip_apart_zero&#45;&gt;fields_mult_apart_zero_r</title>
<path fill="none" stroke="black" d="M2284.96,-419.43C2252.31,-368.37 2156.12,-217.92 2117.41,-157.37"/>
<polygon fill="black" stroke="black" points="2120.26,-155.33 2111.92,-148.79 2114.36,-159.1 2120.26,-155.33"/>
</g>
<!-- fields_apart_0_sig_apart_0 -->
<g id="node15" class="node">
<title>fields_apart_0_sig_apart_0</title>
<g id="a_node15"><a xlink:href="fields.html#apart_0_sig_apart_0" xlink:title="apart_0_sig_apart_0">
<ellipse fill="#f070d1" stroke="black" cx="1844" cy="-1112.7" rx="103.19" ry="18"/>
<ellipse fill="none" stroke="black" cx="1844" cy="-1112.7" rx="107.19" ry="22"/>
<ellipse fill="none" stroke="black" cx="1844" cy="-1112.7" rx="111.18" ry="26"/>
<text text-anchor="middle" x="1844" y="-1109" font-family="Times,serif" font-size="14.00">apart_0_sig_apart_0</text>
</a>
</g>
</g>
<!-- fields_IsIntegralDomain_instance_0&#45;&gt;fields_NoZeroDivisors_instance_0 -->
<g id="edge15" class="edge">
<title>fields_IsIntegralDomain_instance_0&#45;&gt;fields_NoZeroDivisors_instance_0</title>
<path fill="none" stroke="black" d="M1554.53,-757.58C1517.67,-702.53 1402.06,-529.88 1358.15,-464.31"/>
<polygon fill="black" stroke="black" points="1360.92,-462.16 1352.44,-455.79 1355.1,-466.05 1360.92,-462.16"/>
</g>
<!-- fields_NoZeroDivisors_instance_0&#45;&gt;fields_reciperse_alt -->
<g id="edge16" class="edge">
<title>fields_NoZeroDivisors_instance_0&#45;&gt;fields_reciperse_alt</title>
<path fill="none" stroke="black" d="M1348.02,-419.43C1368.7,-368.58 1429.45,-219.15 1454.26,-158.13"/>
<polygon fill="black" stroke="black" points="1457.53,-159.37 1458.05,-148.79 1451.05,-156.73 1457.53,-159.37"/>
</g>
<!-- fields_mult_apart_zero -->
<g id="node18" class="node">
<title>fields_mult_apart_zero</title>
<g id="a_node18"><a xlink:href="fields.html#mult_apart_zero" xlink:title="mult_apart_zero">
<ellipse fill="#f070d1" stroke="black" cx="1590" cy="-437.7" rx="85.6" ry="18"/>
<ellipse fill="none" stroke="black" cx="1590" cy="-437.7" rx="89.59" ry="22"/>
<ellipse fill="none" stroke="black" cx="1590" cy="-437.7" rx="93.59" ry="26"/>
<text text-anchor="middle" x="1590" y="-434" font-family="Times,serif" font-size="14.00">mult_apart_zero</text>
</a>
</g>
</g>
<!-- fields_mult_apart_zero&#45;&gt;fields_reciperse_alt -->
<g id="edge17" class="edge">
<title>fields_mult_apart_zero&#45;&gt;fields_reciperse_alt</title>
<path fill="none" stroke="black" d="M1579.77,-411.74C1556.5,-354.97 1499.79,-216.59 1475.9,-158.29"/>
<polygon fill="black" stroke="black" points="1478.99,-156.62 1471.96,-148.69 1472.52,-159.27 1478.99,-156.62"/>
</g>
<!-- fields_StrongRightCancellation_instance_1 -->
<g id="node21" class="node">
<title>fields_StrongRightCancellation_instance_1</title>
<g id="a_node21"><a xlink:href="fields.html#StrongRightCancellation_instance_1" xlink:title="StrongRightCancellation_instance_1">
<ellipse fill="#f070d1" stroke="black" cx="1027" cy="-775.7" rx="178.96" ry="18"/>
<ellipse fill="none" stroke="black" cx="1027" cy="-775.7" rx="182.96" ry="22"/>
<ellipse fill="none" stroke="black" cx="1027" cy="-775.7" rx="186.97" ry="26"/>
<text text-anchor="middle" x="1027" y="-772" font-family="Times,serif" font-size="14.00">StrongRightCancellation_instance_1</text>
</a>
</g>
</g>
<!-- fields_StrongLeftCancellation_instance_1 -->
<g id="node22" class="node">
<title>fields_StrongLeftCancellation_instance_1</title>
<g id="a_node22"><a xlink:href="fields.html#StrongLeftCancellation_instance_1" xlink:title="StrongLeftCancellation_instance_1">
<ellipse fill="#f070d1" stroke="black" cx="1014" cy="-437.7" rx="172.47" ry="18"/>
<text text-anchor="middle" x="1014" y="-434" font-family="Times,serif" font-size="14.00">StrongLeftCancellation_instance_1</text>
</a>
</g>
</g>
<!-- fields_StrongRightCancellation_instance_1&#45;&gt;fields_StrongLeftCancellation_instance_1 -->
<g id="edge18" class="edge">
<title>fields_StrongRightCancellation_instance_1&#45;&gt;fields_StrongLeftCancellation_instance_1</title>
<path fill="none" stroke="black" d="M1026.02,-749.45C1023.63,-687.7 1017.51,-529.5 1015.05,-465.84"/>
<polygon fill="black" stroke="black" points="1018.54,-465.63 1014.66,-455.78 1011.55,-465.91 1018.54,-465.63"/>
</g>
<!-- fields_StrongLeftCancellation_instance_1&#45;&gt;fields_reciperse_alt -->
<g id="edge19" class="edge">
<title>fields_StrongLeftCancellation_instance_1&#45;&gt;fields_reciperse_alt</title>
<path fill="none" stroke="black" d="M1038.89,-419.87C1115.4,-368.13 1347.13,-211.41 1432.75,-153.51"/>
<polygon fill="black" stroke="black" points="1434.96,-156.25 1441.28,-147.74 1431.04,-150.45 1434.96,-156.25"/>
</g>
<!-- fields_StrongRightCancellation_instance_0 -->
<g id="node23" class="node">
<title>fields_StrongRightCancellation_instance_0</title>
<g id="a_node23"><a xlink:href="fields.html#StrongRightCancellation_instance_0" xlink:title="StrongRightCancellation_instance_0">
<ellipse fill="#f070d1" stroke="black" cx="1528" cy="-1112.7" rx="178.96" ry="18"/>
<ellipse fill="none" stroke="black" cx="1528" cy="-1112.7" rx="182.96" ry="22"/>
<ellipse fill="none" stroke="black" cx="1528" cy="-1112.7" rx="186.97" ry="26"/>
<text text-anchor="middle" x="1528" y="-1109" font-family="Times,serif" font-size="14.00">StrongRightCancellation_instance_0</text>
</a>
</g>
</g>
<!-- fields_StrongLeftCancellation_instance_0 -->
<g id="node24" class="node">
<title>fields_StrongLeftCancellation_instance_0</title>
<g id="a_node24"><a xlink:href="fields.html#StrongLeftCancellation_instance_0" xlink:title="StrongLeftCancellation_instance_0">
<ellipse fill="#f070d1" stroke="black" cx="650" cy="-775.7" rx="172.47" ry="18"/>
<text text-anchor="middle" x="650" y="-772" font-family="Times,serif" font-size="14.00">StrongLeftCancellation_instance_0</text>
</a>
</g>
</g>
<!-- fields_StrongRightCancellation_instance_0&#45;&gt;fields_StrongLeftCancellation_instance_0 -->
<g id="edge20" class="edge">
<title>fields_StrongRightCancellation_instance_0&#45;&gt;fields_StrongLeftCancellation_instance_0</title>
<path fill="none" stroke="black" d="M1466.26,-1088.15C1302.02,-1025.48 856.46,-855.48 702.88,-796.88"/>
<polygon fill="black" stroke="black" points="703.78,-793.48 693.19,-793.18 701.28,-800.02 703.78,-793.48"/>
</g>
<!-- fields_IsStrongInjective_instance_1 -->
<g id="node25" class="node">
<title>fields_IsStrongInjective_instance_1</title>
<g id="a_node25"><a xlink:href="fields.html#IsStrongInjective_instance_1" xlink:title="IsStrongInjective_instance_1">
<ellipse fill="#f070d1" stroke="black" cx="1171" cy="-1112.7" rx="144.09" ry="18"/>
<ellipse fill="none" stroke="black" cx="1171" cy="-1112.7" rx="148.08" ry="22"/>
<ellipse fill="none" stroke="black" cx="1171" cy="-1112.7" rx="152.07" ry="26"/>
<text text-anchor="middle" x="1171" y="-1109" font-family="Times,serif" font-size="14.00">IsStrongInjective_instance_1</text>
</a>
</g>
</g>
<!-- fields_IsStrongInjective_instance_0 -->
<g id="node26" class="node">
<title>fields_IsStrongInjective_instance_0</title>
<g id="a_node26"><a xlink:href="fields.html#IsStrongInjective_instance_0" xlink:title="IsStrongInjective_instance_0">
<ellipse fill="#f070d1" stroke="black" cx="848" cy="-1112.7" rx="144.09" ry="18"/>
<ellipse fill="none" stroke="black" cx="848" cy="-1112.7" rx="148.08" ry="22"/>
<ellipse fill="none" stroke="black" cx="848" cy="-1112.7" rx="152.07" ry="26"/>
<text text-anchor="middle" x="848" y="-1109" font-family="Times,serif" font-size="14.00">IsStrongInjective_instance_0</text>
</a>
</g>
</g>
<!-- fields_apart_0_proper -->
<g id="node27" class="node">
<title>fields_apart_0_proper</title>
<g id="a_node27"><a xlink:href="fields.html#apart_0_proper" xlink:title="apart_0_proper">
<ellipse fill="#f070d1" stroke="black" cx="588" cy="-1112.7" rx="81.46" ry="18"/>
<ellipse fill="none" stroke="black" cx="588" cy="-1112.7" rx="85.48" ry="22"/>
<ellipse fill="none" stroke="black" cx="588" cy="-1112.7" rx="89.49" ry="26"/>
<text text-anchor="middle" x="588" y="-1109" font-family="Times,serif" font-size="14.00">apart_0_proper</text>
</a>
</g>
</g>
<!-- fields_recip_irrelevant -->
<g id="node28" class="node">
<title>fields_recip_irrelevant</title>
<g id="a_node28"><a xlink:href="fields.html#recip_irrelevant" xlink:title="recip_irrelevant">
<ellipse fill="#f070d1" stroke="black" cx="388" cy="-1112.7" rx="84.49" ry="18"/>
<ellipse fill="none" stroke="black" cx="388" cy="-1112.7" rx="88.49" ry="22"/>
<ellipse fill="none" stroke="black" cx="388" cy="-1112.7" rx="92.49" ry="26"/>
<text text-anchor="middle" x="388" y="-1109" font-family="Times,serif" font-size="14.00">recip_irrelevant</text>
</a>
</g>
</g>
<!-- fields_recip_proper_alt -->
<g id="node30" class="node">
<title>fields_recip_proper_alt</title>
<g id="a_node30"><a xlink:href="fields.html#recip_proper_alt" xlink:title="recip_proper_alt">
<ellipse fill="#f070d1" stroke="black" cx="373" cy="-775.7" rx="86.38" ry="18"/>
<text text-anchor="middle" x="373" y="-772" font-family="Times,serif" font-size="14.00">recip_proper_alt</text>
</a>
</g>
</g>
<!-- fields_recip_irrelevant&#45;&gt;fields_recip_proper_alt -->
<g id="edge21" class="edge">
<title>fields_recip_irrelevant&#45;&gt;fields_recip_proper_alt</title>
<path fill="none" stroke="black" d="M386.87,-1086.52C384.12,-1024.96 377.05,-867.23 374.21,-803.76"/>
<polygon fill="black" stroke="black" points="377.71,-803.56 373.76,-793.73 370.71,-803.87 377.71,-803.56"/>
</g>
<!-- fields_recip_proper -->
<g id="node29" class="node">
<title>fields_recip_proper</title>
<g id="a_node29"><a xlink:href="fields.html#recip_proper" xlink:title="recip_proper">
<ellipse fill="#f070d1" stroke="black" cx="200" cy="-1112.7" rx="69.58" ry="18"/>
<ellipse fill="none" stroke="black" cx="200" cy="-1112.7" rx="73.59" ry="22"/>
<ellipse fill="none" stroke="black" cx="200" cy="-1112.7" rx="77.59" ry="26"/>
<text text-anchor="middle" x="200" y="-1109" font-family="Times,serif" font-size="14.00">recip_proper</text>
</a>
</g>
</g>
<!-- fields_recip_ -->
<g id="node33" class="node">
<title>fields_recip_</title>
<g id="a_node33"><a xlink:href="fields.html#recip'" xlink:title="recip&#39;">
<ellipse fill="#f070d1" stroke="black" cx="60" cy="-1112.7" rx="36.31" ry="18"/>
<ellipse fill="none" stroke="black" cx="60" cy="-1112.7" rx="40.3" ry="22"/>
<ellipse fill="none" stroke="black" cx="60" cy="-1112.7" rx="44.29" ry="26"/>
<text text-anchor="middle" x="60" y="-1109" font-family="Times,serif" font-size="14.00">recip&#39;</text>
</a>
</g>
</g>
</g>
</svg>
