<?xml version="1.0" encoding="UTF-8" standalone="no"?>
<!DOCTYPE svg PUBLIC "-//W3C//DTD SVG 1.1//EN"
 "http://www.w3.org/Graphics/SVG/1.1/DTD/svg11.dtd">
<!-- Generated by graphviz version 2.43.0 (0)
 -->
<!-- Title: HoTT_Classes_implementations_hprop_lattice Pages: 1 -->
<svg width="3026pt" height="1517pt"
 viewBox="0.00 0.00 3026.00 1517.00" xmlns="http://www.w3.org/2000/svg" xmlns:xlink="http://www.w3.org/1999/xlink">
<g id="graph0" class="graph" transform="scale(1 1) rotate(0) translate(4 1513)">
<title>HoTT_Classes_implementations_hprop_lattice</title>
<polygon fill="white" stroke="transparent" points="-4,4 -4,-1513 3022,-1513 3022,4 -4,4"/>
<g id="clust1" class="cluster">
<title>cluster_hprop_lattice</title>
<polygon fill="#ffffc3" stroke="black" points="8,-48.1 8,-1460.9 3010,-1460.9 3010,-48.1 8,-48.1"/>
<text text-anchor="middle" x="63" y="-1445.7" font-family="Times,serif" font-size="14.00">hprop_lattice</text>
</g>
<!-- hprop_lattice_boundedlattice_hprop -->
<g id="node1" class="node">
<title>hprop_lattice_boundedlattice_hprop</title>
<g id="a_node1"><a xlink:href="hprop_lattice.html#boundedlattice_hprop" xlink:title="boundedlattice_hprop">
<ellipse fill="#f070d1" stroke="black" cx="1653" cy="-1118.1" rx="111.59" ry="18"/>
<ellipse fill="none" stroke="black" cx="1653" cy="-1118.1" rx="115.59" ry="22"/>
<ellipse fill="none" stroke="black" cx="1653" cy="-1118.1" rx="119.58" ry="26"/>
<text text-anchor="middle" x="1653" y="-1114.4" font-family="Times,serif" font-size="14.00">boundedlattice_hprop</text>
</a>
</g>
</g>
<!-- hprop_lattice_absorption_hand_hor -->
<g id="node2" class="node">
<title>hprop_lattice_absorption_hand_hor</title>
<g id="a_node2"><a xlink:href="hprop_lattice.html#absorption_hand_hor" xlink:title="absorption_hand_hor">
<ellipse fill="#f070d1" stroke="black" cx="124" cy="-637.1" rx="107.78" ry="18"/>
<text text-anchor="middle" x="124" y="-633.4" font-family="Times,serif" font-size="14.00">absorption_hand_hor</text>
</a>
</g>
</g>
<!-- hprop_lattice_boundedlattice_hprop&#45;&gt;hprop_lattice_absorption_hand_hor -->
<g id="edge1" class="edge">
<title>hprop_lattice_boundedlattice_hprop&#45;&gt;hprop_lattice_absorption_hand_hor</title>
<path fill="none" stroke="black" d="M1586.81,-1096.36C1332.68,-1016.75 421.81,-731.39 182.13,-656.31"/>
<polygon fill="black" stroke="black" points="183.14,-652.96 172.55,-653.31 181.05,-659.64 183.14,-652.96"/>
</g>
<!-- hprop_lattice_absorption_hor_hand -->
<g id="node3" class="node">
<title>hprop_lattice_absorption_hor_hand</title>
<g id="a_node3"><a xlink:href="hprop_lattice.html#absorption_hor_hand" xlink:title="absorption_hor_hand">
<ellipse fill="#f070d1" stroke="black" cx="358" cy="-637.1" rx="107.78" ry="18"/>
<text text-anchor="middle" x="358" y="-633.4" font-family="Times,serif" font-size="14.00">absorption_hor_hand</text>
</a>
</g>
</g>
<!-- hprop_lattice_boundedlattice_hprop&#45;&gt;hprop_lattice_absorption_hor_hand -->
<g id="edge2" class="edge">
<title>hprop_lattice_boundedlattice_hprop&#45;&gt;hprop_lattice_absorption_hor_hand</title>
<path fill="none" stroke="black" d="M1593.99,-1095.27C1375.66,-1014.51 615.66,-733.4 409.78,-657.25"/>
<polygon fill="black" stroke="black" points="410.99,-653.96 400.4,-653.78 408.56,-660.53 410.99,-653.96"/>
</g>
<!-- hprop_lattice_rightidentity_hand -->
<g id="node4" class="node">
<title>hprop_lattice_rightidentity_hand</title>
<g id="a_node4"><a xlink:href="hprop_lattice.html#rightidentity_hand" xlink:title="rightidentity_hand">
<ellipse fill="#f070d1" stroke="black" cx="581" cy="-637.1" rx="96.68" ry="18"/>
<text text-anchor="middle" x="581" y="-633.4" font-family="Times,serif" font-size="14.00">rightidentity_hand</text>
</a>
</g>
</g>
<!-- hprop_lattice_boundedlattice_hprop&#45;&gt;hprop_lattice_rightidentity_hand -->
<g id="edge3" class="edge">
<title>hprop_lattice_boundedlattice_hprop&#45;&gt;hprop_lattice_rightidentity_hand</title>
<path fill="none" stroke="black" d="M1602.38,-1094.48C1420,-1012.98 798.28,-735.18 625.74,-658.08"/>
<polygon fill="black" stroke="black" points="626.99,-654.81 616.44,-653.93 624.14,-661.2 626.99,-654.81"/>
</g>
<!-- hprop_lattice_leftidentity_hand -->
<g id="node5" class="node">
<title>hprop_lattice_leftidentity_hand</title>
<g id="a_node5"><a xlink:href="hprop_lattice.html#leftidentity_hand" xlink:title="leftidentity_hand">
<ellipse fill="#f070d1" stroke="black" cx="786" cy="-637.1" rx="89.88" ry="18"/>
<text text-anchor="middle" x="786" y="-633.4" font-family="Times,serif" font-size="14.00">leftidentity_hand</text>
</a>
</g>
</g>
<!-- hprop_lattice_boundedlattice_hprop&#45;&gt;hprop_lattice_leftidentity_hand -->
<g id="edge4" class="edge">
<title>hprop_lattice_boundedlattice_hprop&#45;&gt;hprop_lattice_leftidentity_hand</title>
<path fill="none" stroke="black" d="M1610.6,-1093.67C1461.89,-1011.51 965.46,-737.24 823.95,-659.06"/>
<polygon fill="black" stroke="black" points="825.59,-655.97 815.15,-654.2 822.21,-662.1 825.59,-655.97"/>
</g>
<!-- hprop_lattice_rightidentity_hor -->
<g id="node6" class="node">
<title>hprop_lattice_rightidentity_hor</title>
<g id="a_node6"><a xlink:href="hprop_lattice.html#rightidentity_hor" xlink:title="rightidentity_hor">
<ellipse fill="#f070d1" stroke="black" cx="983" cy="-637.1" rx="89.88" ry="18"/>
<text text-anchor="middle" x="983" y="-633.4" font-family="Times,serif" font-size="14.00">rightidentity_hor</text>
</a>
</g>
</g>
<!-- hprop_lattice_boundedlattice_hprop&#45;&gt;hprop_lattice_rightidentity_hor -->
<g id="edge5" class="edge">
<title>hprop_lattice_boundedlattice_hprop&#45;&gt;hprop_lattice_rightidentity_hor</title>
<path fill="none" stroke="black" d="M1619.32,-1093.01C1503.97,-1010.55 1125.84,-740.22 1014.26,-660.45"/>
<polygon fill="black" stroke="black" points="1016.27,-657.58 1006.09,-654.61 1012.19,-663.27 1016.27,-657.58"/>
</g>
<!-- hprop_lattice_leftidentity_hor -->
<g id="node7" class="node">
<title>hprop_lattice_leftidentity_hor</title>
<g id="a_node7"><a xlink:href="hprop_lattice.html#leftidentity_hor" xlink:title="leftidentity_hor">
<ellipse fill="#f070d1" stroke="black" cx="1173" cy="-637.1" rx="82.59" ry="18"/>
<text text-anchor="middle" x="1173" y="-633.4" font-family="Times,serif" font-size="14.00">leftidentity_hor</text>
</a>
</g>
</g>
<!-- hprop_lattice_boundedlattice_hprop&#45;&gt;hprop_lattice_leftidentity_hor -->
<g id="edge6" class="edge">
<title>hprop_lattice_boundedlattice_hprop&#45;&gt;hprop_lattice_leftidentity_hor</title>
<path fill="none" stroke="black" d="M1628.2,-1092.35C1545.45,-1009.76 1279.34,-744.22 1197.31,-662.35"/>
<polygon fill="black" stroke="black" points="1199.51,-659.6 1189.96,-655.02 1194.56,-664.56 1199.51,-659.6"/>
</g>
<!-- hprop_lattice_idempotent_hand -->
<g id="node8" class="node">
<title>hprop_lattice_idempotent_hand</title>
<g id="a_node8"><a xlink:href="hprop_lattice.html#idempotent_hand" xlink:title="idempotent_hand">
<ellipse fill="#f070d1" stroke="black" cx="1365" cy="-637.1" rx="90.98" ry="18"/>
<text text-anchor="middle" x="1365" y="-633.4" font-family="Times,serif" font-size="14.00">idempotent_hand</text>
</a>
</g>
</g>
<!-- hprop_lattice_boundedlattice_hprop&#45;&gt;hprop_lattice_idempotent_hand -->
<g id="edge7" class="edge">
<title>hprop_lattice_boundedlattice_hprop&#45;&gt;hprop_lattice_idempotent_hand</title>
<path fill="none" stroke="black" d="M1637.92,-1092.02C1588.39,-1009.64 1430.98,-747.84 1380.64,-664.11"/>
<polygon fill="black" stroke="black" points="1383.6,-662.23 1375.44,-655.47 1377.6,-665.84 1383.6,-662.23"/>
</g>
<!-- hprop_lattice_idempotent_hor -->
<g id="node9" class="node">
<title>hprop_lattice_idempotent_hor</title>
<g id="a_node9"><a xlink:href="hprop_lattice.html#idempotent_hor" xlink:title="idempotent_hor">
<ellipse fill="#f070d1" stroke="black" cx="1558" cy="-637.1" rx="83.69" ry="18"/>
<text text-anchor="middle" x="1558" y="-633.4" font-family="Times,serif" font-size="14.00">idempotent_hor</text>
</a>
</g>
</g>
<!-- hprop_lattice_boundedlattice_hprop&#45;&gt;hprop_lattice_idempotent_hor -->
<g id="edge8" class="edge">
<title>hprop_lattice_boundedlattice_hprop&#45;&gt;hprop_lattice_idempotent_hor</title>
<path fill="none" stroke="black" d="M1648.03,-1092.02C1631.77,-1010.05 1580.29,-750.49 1563.42,-665.4"/>
<polygon fill="black" stroke="black" points="1566.82,-664.59 1561.45,-655.47 1559.96,-665.96 1566.82,-664.59"/>
</g>
<!-- hprop_lattice_associative_hand -->
<g id="node10" class="node">
<title>hprop_lattice_associative_hand</title>
<g id="a_node10"><a xlink:href="hprop_lattice.html#associative_hand" xlink:title="associative_hand">
<ellipse fill="#f070d1" stroke="black" cx="1749" cy="-637.1" rx="89.08" ry="18"/>
<text text-anchor="middle" x="1749" y="-633.4" font-family="Times,serif" font-size="14.00">associative_hand</text>
</a>
</g>
</g>
<!-- hprop_lattice_boundedlattice_hprop&#45;&gt;hprop_lattice_associative_hand -->
<g id="edge9" class="edge">
<title>hprop_lattice_boundedlattice_hprop&#45;&gt;hprop_lattice_associative_hand</title>
<path fill="none" stroke="black" d="M1658.03,-1092.02C1674.45,-1010.05 1726.47,-750.49 1743.53,-665.4"/>
<polygon fill="black" stroke="black" points="1746.99,-665.96 1745.52,-655.47 1740.12,-664.58 1746.99,-665.96"/>
</g>
<!-- hprop_lattice_associative_hor -->
<g id="node11" class="node">
<title>hprop_lattice_associative_hor</title>
<g id="a_node11"><a xlink:href="hprop_lattice.html#associative_hor" xlink:title="associative_hor">
<ellipse fill="#f070d1" stroke="black" cx="1938" cy="-637.1" rx="81.79" ry="18"/>
<text text-anchor="middle" x="1938" y="-633.4" font-family="Times,serif" font-size="14.00">associative_hor</text>
</a>
</g>
</g>
<!-- hprop_lattice_boundedlattice_hprop&#45;&gt;hprop_lattice_associative_hor -->
<g id="edge10" class="edge">
<title>hprop_lattice_boundedlattice_hprop&#45;&gt;hprop_lattice_associative_hor</title>
<path fill="none" stroke="black" d="M1667.92,-1092.02C1717,-1009.54 1873.09,-747.19 1922.7,-663.8"/>
<polygon fill="black" stroke="black" points="1925.85,-665.36 1927.95,-654.98 1919.83,-661.78 1925.85,-665.36"/>
</g>
<!-- hprop_lattice_commutative_hand -->
<g id="node12" class="node">
<title>hprop_lattice_commutative_hand</title>
<g id="a_node12"><a xlink:href="hprop_lattice.html#commutative_hand" xlink:title="commutative_hand">
<ellipse fill="#f070d1" stroke="black" cx="2137" cy="-637.1" rx="98.58" ry="18"/>
<text text-anchor="middle" x="2137" y="-633.4" font-family="Times,serif" font-size="14.00">commutative_hand</text>
</a>
</g>
</g>
<!-- hprop_lattice_boundedlattice_hprop&#45;&gt;hprop_lattice_commutative_hand -->
<g id="edge11" class="edge">
<title>hprop_lattice_boundedlattice_hprop&#45;&gt;hprop_lattice_commutative_hand</title>
<path fill="none" stroke="black" d="M1678,-1092.35C1761.45,-1009.76 2029.77,-744.22 2112.49,-662.35"/>
<polygon fill="black" stroke="black" points="2115.26,-664.54 2119.9,-655.02 2110.33,-659.56 2115.26,-664.54"/>
</g>
<!-- hprop_lattice_commutative_hor -->
<g id="node13" class="node">
<title>hprop_lattice_commutative_hor</title>
<g id="a_node13"><a xlink:href="hprop_lattice.html#commutative_hor" xlink:title="commutative_hor">
<ellipse fill="#f070d1" stroke="black" cx="2345" cy="-637.1" rx="90.98" ry="18"/>
<text text-anchor="middle" x="2345" y="-633.4" font-family="Times,serif" font-size="14.00">commutative_hor</text>
</a>
</g>
</g>
<!-- hprop_lattice_boundedlattice_hprop&#45;&gt;hprop_lattice_commutative_hor -->
<g id="edge12" class="edge">
<title>hprop_lattice_boundedlattice_hprop&#45;&gt;hprop_lattice_commutative_hor</title>
<path fill="none" stroke="black" d="M1687.79,-1093.01C1806.92,-1010.55 2197.47,-740.22 2312.71,-660.45"/>
<polygon fill="black" stroke="black" points="2314.92,-663.18 2321.15,-654.61 2310.93,-657.42 2314.92,-663.18"/>
</g>
<!-- hprop_lattice_top_hprop -->
<g id="node14" class="node">
<title>hprop_lattice_top_hprop</title>
<g id="a_node14"><a xlink:href="hprop_lattice.html#top_hprop" xlink:title="top_hprop">
<ellipse fill="#f070d1" stroke="black" cx="2512" cy="-637.1" rx="57.69" ry="18"/>
<text text-anchor="middle" x="2512" y="-633.4" font-family="Times,serif" font-size="14.00">top_hprop</text>
</a>
</g>
</g>
<!-- hprop_lattice_boundedlattice_hprop&#45;&gt;hprop_lattice_top_hprop -->
<g id="edge13" class="edge">
<title>hprop_lattice_boundedlattice_hprop&#45;&gt;hprop_lattice_top_hprop</title>
<path fill="none" stroke="black" d="M1695.01,-1093.67C1842.86,-1011.23 2337.61,-735.34 2475.85,-658.25"/>
<polygon fill="black" stroke="black" points="2477.78,-661.19 2484.8,-653.26 2474.37,-655.07 2477.78,-661.19"/>
</g>
<!-- hprop_lattice_bottom_hprop -->
<g id="node15" class="node">
<title>hprop_lattice_bottom_hprop</title>
<g id="a_node15"><a xlink:href="hprop_lattice.html#bottom_hprop" xlink:title="bottom_hprop">
<ellipse fill="#f070d1" stroke="black" cx="2663" cy="-637.1" rx="75.29" ry="18"/>
<text text-anchor="middle" x="2663" y="-633.4" font-family="Times,serif" font-size="14.00">bottom_hprop</text>
</a>
</g>
</g>
<!-- hprop_lattice_boundedlattice_hprop&#45;&gt;hprop_lattice_bottom_hprop -->
<g id="edge14" class="edge">
<title>hprop_lattice_boundedlattice_hprop&#45;&gt;hprop_lattice_bottom_hprop</title>
<path fill="none" stroke="black" d="M1701.37,-1094.15C1874.21,-1012.19 2459.51,-734.6 2621.27,-657.89"/>
<polygon fill="black" stroke="black" points="2622.89,-660.99 2630.43,-653.54 2619.89,-654.67 2622.89,-660.99"/>
</g>
<!-- hprop_lattice_meet_hprop -->
<g id="node16" class="node">
<title>hprop_lattice_meet_hprop</title>
<g id="a_node16"><a xlink:href="hprop_lattice.html#meet_hprop" xlink:title="meet_hprop">
<ellipse fill="#f070d1" stroke="black" cx="2822" cy="-637.1" rx="65.79" ry="18"/>
<text text-anchor="middle" x="2822" y="-633.4" font-family="Times,serif" font-size="14.00">meet_hprop</text>
</a>
</g>
</g>
<!-- hprop_lattice_boundedlattice_hprop&#45;&gt;hprop_lattice_meet_hprop -->
<g id="edge15" class="edge">
<title>hprop_lattice_boundedlattice_hprop&#45;&gt;hprop_lattice_meet_hprop</title>
<path fill="none" stroke="black" d="M1707.43,-1094.79C1906.91,-1013.06 2595.81,-730.78 2777.68,-656.25"/>
<polygon fill="black" stroke="black" points="2779.03,-659.49 2786.95,-652.46 2776.37,-653.01 2779.03,-659.49"/>
</g>
<!-- hprop_lattice_join_hor -->
<g id="node18" class="node">
<title>hprop_lattice_join_hor</title>
<g id="a_node18"><a xlink:href="hprop_lattice.html#join_hor" xlink:title="join_hor">
<ellipse fill="#f070d1" stroke="black" cx="2954" cy="-637.1" rx="48.19" ry="18"/>
<text text-anchor="middle" x="2954" y="-633.4" font-family="Times,serif" font-size="14.00">join_hor</text>
</a>
</g>
</g>
<!-- hprop_lattice_boundedlattice_hprop&#45;&gt;hprop_lattice_join_hor -->
<g id="edge16" class="edge">
<title>hprop_lattice_boundedlattice_hprop&#45;&gt;hprop_lattice_join_hor</title>
<path fill="none" stroke="black" d="M1711.85,-1095.43C1934.18,-1013.57 2719.98,-724.26 2911.62,-653.7"/>
<polygon fill="black" stroke="black" points="2912.9,-656.96 2921.07,-650.22 2910.48,-650.39 2912.9,-656.96"/>
</g>
<!-- hprop_lattice_hand -->
<g id="node17" class="node">
<title>hprop_lattice_hand</title>
<g id="a_node17"><a xlink:href="hprop_lattice.html#hand" xlink:title="hand">
<ellipse fill="#f070d1" stroke="black" cx="1075" cy="-204.1" rx="33.6" ry="18"/>
<text text-anchor="middle" x="1075" y="-200.4" font-family="Times,serif" font-size="14.00">hand</text>
</a>
</g>
</g>
<!-- hprop_lattice_absorption_hand_hor&#45;&gt;hprop_lattice_hand -->
<g id="edge17" class="edge">
<title>hprop_lattice_absorption_hand_hor&#45;&gt;hprop_lattice_hand</title>
<path fill="none" stroke="black" d="M159.54,-619.99C309.85,-551.87 892.34,-287.88 1040.54,-220.71"/>
<polygon fill="black" stroke="black" points="1042.4,-223.71 1050.06,-216.4 1039.51,-217.34 1042.4,-223.71"/>
</g>
<!-- hprop_lattice_absorption_hor_hand&#45;&gt;hprop_lattice_hand -->
<g id="edge18" class="edge">
<title>hprop_lattice_absorption_hor_hand&#45;&gt;hprop_lattice_hand</title>
<path fill="none" stroke="black" d="M385.67,-619.46C498.92,-551.39 926.68,-294.26 1044.69,-223.32"/>
<polygon fill="black" stroke="black" points="1046.5,-226.31 1053.27,-218.16 1042.89,-220.31 1046.5,-226.31"/>
</g>
<!-- hprop_lattice_rightidentity_hand&#45;&gt;hprop_lattice_hand -->
<g id="edge19" class="edge">
<title>hprop_lattice_rightidentity_hand&#45;&gt;hprop_lattice_hand</title>
<path fill="none" stroke="black" d="M600.37,-619.2C677.7,-551.73 964.35,-301.64 1050.41,-226.55"/>
<polygon fill="black" stroke="black" points="1052.87,-229.05 1058.1,-219.84 1048.26,-223.78 1052.87,-229.05"/>
</g>
<!-- hprop_lattice_leftidentity_hand&#45;&gt;hprop_lattice_hand -->
<g id="edge20" class="edge">
<title>hprop_lattice_leftidentity_hand&#45;&gt;hprop_lattice_hand</title>
<path fill="none" stroke="black" d="M797.33,-619.2C841.95,-552.66 1005.65,-308.51 1058.46,-229.76"/>
<polygon fill="black" stroke="black" points="1061.4,-231.67 1064.06,-221.41 1055.58,-227.77 1061.4,-231.67"/>
</g>
<!-- hprop_lattice_idempotent_hand&#45;&gt;hprop_lattice_hand -->
<g id="edge21" class="edge">
<title>hprop_lattice_idempotent_hand&#45;&gt;hprop_lattice_hand</title>
<path fill="none" stroke="black" d="M1353.63,-619.2C1308.86,-552.66 1144.59,-308.51 1091.6,-229.76"/>
<polygon fill="black" stroke="black" points="1094.46,-227.75 1085.98,-221.41 1088.66,-231.66 1094.46,-227.75"/>
</g>
<!-- hprop_lattice_associative_hand&#45;&gt;hprop_lattice_hand -->
<g id="edge22" class="edge">
<title>hprop_lattice_associative_hand&#45;&gt;hprop_lattice_hand</title>
<path fill="none" stroke="black" d="M1723.4,-619.73C1617.81,-552.21 1216.42,-295.53 1104.26,-223.81"/>
<polygon fill="black" stroke="black" points="1106.11,-220.84 1095.8,-218.4 1102.34,-226.73 1106.11,-220.84"/>
</g>
<!-- hprop_lattice_commutative_hand&#45;&gt;hprop_lattice_hand -->
<g id="edge23" class="edge">
<title>hprop_lattice_commutative_hand&#45;&gt;hprop_lattice_hand</title>
<path fill="none" stroke="black" d="M2098.58,-620.5C1931.75,-552.8 1271.46,-284.83 1110.52,-219.51"/>
<polygon fill="black" stroke="black" points="1111.65,-216.19 1101.07,-215.68 1109.02,-222.68 1111.65,-216.19"/>
</g>
<!-- hprop_lattice_meet_hprop&#45;&gt;hprop_lattice_hand -->
<g id="edge24" class="edge">
<title>hprop_lattice_meet_hprop&#45;&gt;hprop_lattice_hand</title>
<path fill="none" stroke="black" d="M2774.82,-624.46C2523.75,-562.51 1347.26,-272.26 1114.92,-214.94"/>
<polygon fill="black" stroke="black" points="1115.73,-211.54 1105.19,-212.54 1114.06,-218.34 1115.73,-211.54"/>
</g>
</g>
</svg>
