<?xml version="1.0" encoding="UTF-8" standalone="no"?>
<!DOCTYPE svg PUBLIC "-//W3C//DTD SVG 1.1//EN"
 "http://www.w3.org/Graphics/SVG/1.1/DTD/svg11.dtd">
<!-- Generated by graphviz version 2.43.0 (0)
 -->
<!-- Title: HoTT_PropResizing_ImpredicativeTruncation Pages: 1 -->
<svg width="1425pt" height="717pt"
 viewBox="0.00 0.00 1425.00 716.50" xmlns="http://www.w3.org/2000/svg" xmlns:xlink="http://www.w3.org/1999/xlink">
<g id="graph0" class="graph" transform="scale(1 1) rotate(0) translate(4 712.5)">
<title>HoTT_PropResizing_ImpredicativeTruncation</title>
<polygon fill="white" stroke="transparent" points="-4,4 -4,-712.5 1421,-712.5 1421,4 -4,4"/>
<g id="clust1" class="cluster">
<title>cluster_ImpredicativeTruncation</title>
<polygon fill="#ffffc3" stroke="black" points="8,-17.55 8,-690.95 1409,-690.95 1409,-17.55 8,-17.55"/>
<text text-anchor="middle" x="104.5" y="-675.75" font-family="Times,serif" font-size="14.00">ImpredicativeTruncation</text>
</g>
<!-- ImpredicativeTruncation_functor_merely_weak_sameuniv_weak -->
<g id="node1" class="node">
<title>ImpredicativeTruncation_functor_merely_weak_sameuniv_weak</title>
<g id="a_node1"><a xlink:href="ImpredicativeTruncation.html#functor_merely_weak_sameuniv_weak" xlink:title="functor_merely_weak_sameuniv_weak">
<ellipse fill="#f070d1" stroke="black" cx="1206" cy="-565.55" rx="186.57" ry="18"/>
<ellipse fill="none" stroke="black" cx="1206" cy="-565.55" rx="190.57" ry="22"/>
<ellipse fill="none" stroke="black" cx="1206" cy="-565.55" rx="194.57" ry="26"/>
<text text-anchor="middle" x="1206" y="-561.85" font-family="Times,serif" font-size="14.00">functor_merely_weak_sameuniv_weak</text>
</a>
</g>
</g>
<!-- ImpredicativeTruncation_functor_merely_weak -->
<g id="node3" class="node">
<title>ImpredicativeTruncation_functor_merely_weak</title>
<g id="a_node3"><a xlink:href="ImpredicativeTruncation.html#functor_merely_weak" xlink:title="functor_merely_weak">
<ellipse fill="#f070d1" stroke="black" cx="799" cy="-390.55" rx="109.38" ry="18"/>
<text text-anchor="middle" x="799" y="-386.85" font-family="Times,serif" font-size="14.00">functor_merely_weak</text>
</a>
</g>
</g>
<!-- ImpredicativeTruncation_functor_merely_weak_sameuniv_weak&#45;&gt;ImpredicativeTruncation_functor_merely_weak -->
<g id="edge1" class="edge">
<title>ImpredicativeTruncation_functor_merely_weak_sameuniv_weak&#45;&gt;ImpredicativeTruncation_functor_merely_weak</title>
<path fill="none" stroke="black" d="M1149.41,-540.49C1068.45,-506.08 921.07,-443.44 845.87,-411.47"/>
<polygon fill="black" stroke="black" points="847.19,-408.23 836.62,-407.54 844.46,-414.67 847.19,-408.23"/>
</g>
<!-- ImpredicativeTruncation_functor_merely_weak_sameargs_weak -->
<g id="node2" class="node">
<title>ImpredicativeTruncation_functor_merely_weak_sameargs_weak</title>
<g id="a_node2"><a xlink:href="ImpredicativeTruncation.html#functor_merely_weak_sameargs_weak" xlink:title="functor_merely_weak_sameargs_weak">
<ellipse fill="#f070d1" stroke="black" cx="799" cy="-565.55" rx="186.57" ry="18"/>
<ellipse fill="none" stroke="black" cx="799" cy="-565.55" rx="190.57" ry="22"/>
<ellipse fill="none" stroke="black" cx="799" cy="-565.55" rx="194.57" ry="26"/>
<text text-anchor="middle" x="799" y="-561.85" font-family="Times,serif" font-size="14.00">functor_merely_weak_sameargs_weak</text>
</a>
</g>
</g>
<!-- ImpredicativeTruncation_functor_merely_weak_sameargs_weak&#45;&gt;ImpredicativeTruncation_functor_merely_weak -->
<g id="edge2" class="edge">
<title>ImpredicativeTruncation_functor_merely_weak_sameargs_weak&#45;&gt;ImpredicativeTruncation_functor_merely_weak</title>
<path fill="none" stroke="black" d="M799,-539.39C799,-507.4 799,-452.34 799,-419.19"/>
<polygon fill="black" stroke="black" points="802.5,-418.86 799,-408.86 795.5,-418.86 802.5,-418.86"/>
</g>
<!-- ImpredicativeTruncation_typeofid -->
<g id="node7" class="node">
<title>ImpredicativeTruncation_typeofid</title>
<g id="a_node7"><a xlink:href="ImpredicativeTruncation.html#typeofid" xlink:title="typeofid">
<ellipse fill="#f070d1" stroke="black" cx="610" cy="-390.55" rx="48.19" ry="18"/>
<text text-anchor="middle" x="610" y="-386.85" font-family="Times,serif" font-size="14.00">typeofid</text>
</a>
</g>
</g>
<!-- ImpredicativeTruncation_functor_merely_weak_sameargs_weak&#45;&gt;ImpredicativeTruncation_typeofid -->
<g id="edge3" class="edge">
<title>ImpredicativeTruncation_functor_merely_weak_sameargs_weak&#45;&gt;ImpredicativeTruncation_typeofid</title>
<path fill="none" stroke="black" d="M771.92,-539.76C735.29,-506.23 670.46,-446.89 634.96,-414.4"/>
<polygon fill="black" stroke="black" points="637.17,-411.68 627.43,-407.51 632.45,-416.84 637.17,-411.68"/>
</g>
<!-- ImpredicativeTruncation_merely_rec_naive -->
<g id="node4" class="node">
<title>ImpredicativeTruncation_merely_rec_naive</title>
<g id="a_node4"><a xlink:href="ImpredicativeTruncation.html#merely_rec_naive" xlink:title="merely_rec_naive">
<ellipse fill="#f070d1" stroke="black" cx="837" cy="-232.55" rx="90.98" ry="18"/>
<text text-anchor="middle" x="837" y="-228.85" font-family="Times,serif" font-size="14.00">merely_rec_naive</text>
</a>
</g>
</g>
<!-- ImpredicativeTruncation_functor_merely_weak&#45;&gt;ImpredicativeTruncation_merely_rec_naive -->
<g id="edge4" class="edge">
<title>ImpredicativeTruncation_functor_merely_weak&#45;&gt;ImpredicativeTruncation_merely_rec_naive</title>
<path fill="none" stroke="black" d="M803.14,-372.56C809.67,-345.74 822.44,-293.34 830.29,-261.09"/>
<polygon fill="black" stroke="black" points="833.78,-261.54 832.75,-250.99 826.98,-259.88 833.78,-261.54"/>
</g>
<!-- ImpredicativeTruncation_ishprop_merely -->
<g id="node10" class="node">
<title>ImpredicativeTruncation_ishprop_merely</title>
<g id="a_node10"><a xlink:href="ImpredicativeTruncation.html#ishprop_merely" xlink:title="ishprop_merely">
<ellipse fill="#f070d1" stroke="black" cx="572" cy="-232.55" rx="82.59" ry="18"/>
<text text-anchor="middle" x="572" y="-228.85" font-family="Times,serif" font-size="14.00">ishprop_merely</text>
</a>
</g>
</g>
<!-- ImpredicativeTruncation_functor_merely_weak&#45;&gt;ImpredicativeTruncation_ishprop_merely -->
<g id="edge5" class="edge">
<title>ImpredicativeTruncation_functor_merely_weak&#45;&gt;ImpredicativeTruncation_ishprop_merely</title>
<path fill="none" stroke="black" d="M774.71,-372.85C733.55,-344.57 650.13,-287.24 604.17,-255.66"/>
<polygon fill="black" stroke="black" points="606,-252.67 595.78,-249.89 602.04,-258.44 606,-252.67"/>
</g>
<!-- ImpredicativeTruncation_trm -->
<g id="node11" class="node">
<title>ImpredicativeTruncation_trm</title>
<g id="a_node11"><a xlink:href="ImpredicativeTruncation.html#trm" xlink:title="trm">
<ellipse fill="#f070d1" stroke="black" cx="700" cy="-232.55" rx="27.9" ry="18"/>
<text text-anchor="middle" x="700" y="-228.85" font-family="Times,serif" font-size="14.00">trm</text>
</a>
</g>
</g>
<!-- ImpredicativeTruncation_functor_merely_weak&#45;&gt;ImpredicativeTruncation_trm -->
<g id="edge6" class="edge">
<title>ImpredicativeTruncation_functor_merely_weak&#45;&gt;ImpredicativeTruncation_trm</title>
<path fill="none" stroke="black" d="M788.22,-372.56C770.7,-344.96 735.99,-290.26 715.73,-258.33"/>
<polygon fill="black" stroke="black" points="718.49,-256.15 710.18,-249.58 712.58,-259.9 718.49,-256.15"/>
</g>
<!-- ImpredicativeTruncation_merely -->
<g id="node12" class="node">
<title>ImpredicativeTruncation_merely</title>
<g id="a_node12"><a xlink:href="ImpredicativeTruncation.html#merely" xlink:title="merely">
<ellipse fill="#f070d1" stroke="black" cx="636" cy="-74.55" rx="42.79" ry="18"/>
<text text-anchor="middle" x="636" y="-70.85" font-family="Times,serif" font-size="14.00">merely</text>
</a>
</g>
</g>
<!-- ImpredicativeTruncation_merely_rec_naive&#45;&gt;ImpredicativeTruncation_merely -->
<g id="edge7" class="edge">
<title>ImpredicativeTruncation_merely_rec_naive&#45;&gt;ImpredicativeTruncation_merely</title>
<path fill="none" stroke="black" d="M815.49,-214.85C778.8,-186.38 704.19,-128.47 663.67,-97.02"/>
<polygon fill="black" stroke="black" points="665.62,-94.1 655.57,-90.74 661.32,-99.63 665.62,-94.1"/>
</g>
<!-- ImpredicativeTruncation_functor_merely_sameuniv -->
<g id="node5" class="node">
<title>ImpredicativeTruncation_functor_merely_sameuniv</title>
<g id="a_node5"><a xlink:href="ImpredicativeTruncation.html#functor_merely_sameuniv" xlink:title="functor_merely_sameuniv">
<ellipse fill="#f070d1" stroke="black" cx="154" cy="-565.55" rx="129.98" ry="18"/>
<ellipse fill="none" stroke="black" cx="154" cy="-565.55" rx="133.98" ry="22"/>
<ellipse fill="none" stroke="black" cx="154" cy="-565.55" rx="137.98" ry="26"/>
<text text-anchor="middle" x="154" y="-561.85" font-family="Times,serif" font-size="14.00">functor_merely_sameuniv</text>
</a>
</g>
</g>
<!-- ImpredicativeTruncation_functor_merely -->
<g id="node8" class="node">
<title>ImpredicativeTruncation_functor_merely</title>
<g id="a_node8"><a xlink:href="ImpredicativeTruncation.html#functor_merely" xlink:title="functor_merely">
<ellipse fill="#f070d1" stroke="black" cx="448" cy="-390.55" rx="81.49" ry="18"/>
<text text-anchor="middle" x="448" y="-386.85" font-family="Times,serif" font-size="14.00">functor_merely</text>
</a>
</g>
</g>
<!-- ImpredicativeTruncation_functor_merely_sameuniv&#45;&gt;ImpredicativeTruncation_functor_merely -->
<g id="edge8" class="edge">
<title>ImpredicativeTruncation_functor_merely_sameuniv&#45;&gt;ImpredicativeTruncation_functor_merely</title>
<path fill="none" stroke="black" d="M194.57,-540.67C252.17,-506.78 356.75,-445.24 411.83,-412.83"/>
<polygon fill="black" stroke="black" points="413.71,-415.78 420.56,-407.7 410.16,-409.75 413.71,-415.78"/>
</g>
<!-- ImpredicativeTruncation_functor_merely_sameargs -->
<g id="node6" class="node">
<title>ImpredicativeTruncation_functor_merely_sameargs</title>
<g id="a_node6"><a xlink:href="ImpredicativeTruncation.html#functor_merely_sameargs" xlink:title="functor_merely_sameargs">
<ellipse fill="#f070d1" stroke="black" cx="448" cy="-565.55" rx="129.98" ry="18"/>
<ellipse fill="none" stroke="black" cx="448" cy="-565.55" rx="133.98" ry="22"/>
<ellipse fill="none" stroke="black" cx="448" cy="-565.55" rx="137.98" ry="26"/>
<text text-anchor="middle" x="448" y="-561.85" font-family="Times,serif" font-size="14.00">functor_merely_sameargs</text>
</a>
</g>
</g>
<!-- ImpredicativeTruncation_functor_merely_sameargs&#45;&gt;ImpredicativeTruncation_typeofid -->
<g id="edge9" class="edge">
<title>ImpredicativeTruncation_functor_merely_sameargs&#45;&gt;ImpredicativeTruncation_typeofid</title>
<path fill="none" stroke="black" d="M471.21,-539.76C502.31,-506.55 557.14,-448 587.74,-415.32"/>
<polygon fill="black" stroke="black" points="590.33,-417.67 594.61,-407.98 585.22,-412.89 590.33,-417.67"/>
</g>
<!-- ImpredicativeTruncation_functor_merely_sameargs&#45;&gt;ImpredicativeTruncation_functor_merely -->
<g id="edge10" class="edge">
<title>ImpredicativeTruncation_functor_merely_sameargs&#45;&gt;ImpredicativeTruncation_functor_merely</title>
<path fill="none" stroke="black" d="M448,-539.39C448,-507.4 448,-452.34 448,-419.19"/>
<polygon fill="black" stroke="black" points="451.5,-418.86 448,-408.86 444.5,-418.86 451.5,-418.86"/>
</g>
<!-- ImpredicativeTruncation_merely_rec -->
<g id="node9" class="node">
<title>ImpredicativeTruncation_merely_rec</title>
<g id="a_node9"><a xlink:href="ImpredicativeTruncation.html#merely_rec" xlink:title="merely_rec">
<ellipse fill="#f070d1" stroke="black" cx="410" cy="-232.55" rx="61.99" ry="18"/>
<text text-anchor="middle" x="410" y="-228.85" font-family="Times,serif" font-size="14.00">merely_rec</text>
</a>
</g>
</g>
<!-- ImpredicativeTruncation_functor_merely&#45;&gt;ImpredicativeTruncation_merely_rec -->
<g id="edge11" class="edge">
<title>ImpredicativeTruncation_functor_merely&#45;&gt;ImpredicativeTruncation_merely_rec</title>
<path fill="none" stroke="black" d="M443.86,-372.56C437.29,-345.6 424.43,-292.78 416.59,-260.58"/>
<polygon fill="black" stroke="black" points="419.9,-259.41 414.13,-250.52 413.1,-261.06 419.9,-259.41"/>
</g>
<!-- ImpredicativeTruncation_functor_merely&#45;&gt;ImpredicativeTruncation_ishprop_merely -->
<g id="edge12" class="edge">
<title>ImpredicativeTruncation_functor_merely&#45;&gt;ImpredicativeTruncation_ishprop_merely</title>
<path fill="none" stroke="black" d="M461.51,-372.56C483.4,-345.01 526.75,-290.47 552.16,-258.51"/>
<polygon fill="black" stroke="black" points="555.03,-260.52 558.51,-250.52 549.55,-256.17 555.03,-260.52"/>
</g>
<!-- ImpredicativeTruncation_functor_merely&#45;&gt;ImpredicativeTruncation_trm -->
<g id="edge13" class="edge">
<title>ImpredicativeTruncation_functor_merely&#45;&gt;ImpredicativeTruncation_trm</title>
<path fill="none" stroke="black" d="M474.02,-373.44C521.73,-343.91 622.81,-281.33 671.97,-250.9"/>
<polygon fill="black" stroke="black" points="673.87,-253.84 680.53,-245.6 670.18,-247.89 673.87,-253.84"/>
</g>
<!-- ImpredicativeTruncation_merely_rec&#45;&gt;ImpredicativeTruncation_merely -->
<g id="edge14" class="edge">
<title>ImpredicativeTruncation_merely_rec&#45;&gt;ImpredicativeTruncation_merely</title>
<path fill="none" stroke="black" d="M432.91,-215.73C474.13,-187.28 560.74,-127.5 606.39,-95.99"/>
<polygon fill="black" stroke="black" points="608.44,-98.82 614.69,-90.26 604.47,-93.06 608.44,-98.82"/>
</g>
<!-- ImpredicativeTruncation_ishprop_merely&#45;&gt;ImpredicativeTruncation_merely -->
<g id="edge15" class="edge">
<title>ImpredicativeTruncation_ishprop_merely&#45;&gt;ImpredicativeTruncation_merely</title>
<path fill="none" stroke="black" d="M578.97,-214.56C590.08,-187.48 611.89,-134.32 625.08,-102.16"/>
<polygon fill="black" stroke="black" points="628.48,-103.1 629.04,-92.52 622,-100.44 628.48,-103.1"/>
</g>
<!-- ImpredicativeTruncation_trm&#45;&gt;ImpredicativeTruncation_merely -->
<g id="edge16" class="edge">
<title>ImpredicativeTruncation_trm&#45;&gt;ImpredicativeTruncation_merely</title>
<path fill="none" stroke="black" d="M693.15,-214.85C682.05,-187.79 660.02,-134.11 646.8,-101.86"/>
<polygon fill="black" stroke="black" points="650.03,-100.52 642.99,-92.6 643.55,-103.18 650.03,-100.52"/>
</g>
</g>
</svg>
