<?xml version="1.0" encoding="UTF-8" standalone="no"?>
<!DOCTYPE svg PUBLIC "-//W3C//DTD SVG 1.1//EN"
 "http://www.w3.org/Graphics/SVG/1.1/DTD/svg11.dtd">
<!-- Generated by graphviz version 2.43.0 (0)
 -->
<!-- Title: HoTT_Universes_ObjectClassifier Pages: 1 -->
<svg width="1262pt" height="635pt"
 viewBox="0.00 0.00 1262.00 635.00" xmlns="http://www.w3.org/2000/svg" xmlns:xlink="http://www.w3.org/1999/xlink">
<g id="graph0" class="graph" transform="scale(1 1) rotate(0) translate(4 631)">
<title>HoTT_Universes_ObjectClassifier</title>
<polygon fill="white" stroke="transparent" points="-4,4 -4,-631 1258,-631 1258,4 -4,4"/>
<g id="clust1" class="cluster">
<title>cluster_ObjectClassifier</title>
<polygon fill="#ffffc3" stroke="black" points="8.04,-8 8.04,-619 1245.96,-619 1245.96,-8 8.04,-8"/>
<text text-anchor="middle" x="73.04" y="-603.8" font-family="Times,serif" font-size="14.00">ObjectClassifier</text>
</g>
<!-- ObjectClassifier_equiv_pmap_typeO_type_connected -->
<g id="node1" class="node">
<title>ObjectClassifier_equiv_pmap_typeO_type_connected</title>
<g id="a_node1"><a xlink:href="ObjectClassifier.html#equiv_pmap_typeO_type_connected" xlink:title="equiv_pmap_typeO_type_connected">
<ellipse fill="#f070d1" stroke="black" cx="1032.63" cy="-562" rx="174.68" ry="18"/>
<ellipse fill="none" stroke="black" cx="1032.63" cy="-562" rx="178.67" ry="22"/>
<ellipse fill="none" stroke="black" cx="1032.63" cy="-562" rx="182.67" ry="26"/>
<text text-anchor="middle" x="1032.63" y="-558.3" font-family="Times,serif" font-size="14.00">equiv_pmap_typeO_type_connected</text>
</a>
</g>
</g>
<!-- ObjectClassifier_equiv_sigma_fibration_Op_connected -->
<g id="node4" class="node">
<title>ObjectClassifier_equiv_sigma_fibration_Op_connected</title>
<g id="a_node4"><a xlink:href="ObjectClassifier.html#equiv_sigma_fibration_Op_connected" xlink:title="equiv_sigma_fibration_Op_connected">
<ellipse fill="#f070d1" stroke="black" cx="1055.63" cy="-474" rx="181.17" ry="18"/>
<text text-anchor="middle" x="1055.63" y="-470.3" font-family="Times,serif" font-size="14.00">equiv_sigma_fibration_Op_connected</text>
</a>
</g>
</g>
<!-- ObjectClassifier_equiv_pmap_typeO_type_connected&#45;&gt;ObjectClassifier_equiv_sigma_fibration_Op_connected -->
<g id="edge1" class="edge">
<title>ObjectClassifier_equiv_pmap_typeO_type_connected&#45;&gt;ObjectClassifier_equiv_sigma_fibration_Op_connected</title>
<path fill="none" stroke="black" d="M1039.41,-535.66C1042.26,-525 1045.58,-512.58 1048.47,-501.77"/>
<polygon fill="black" stroke="black" points="1051.88,-502.57 1051.08,-492 1045.12,-500.76 1051.88,-502.57"/>
</g>
<!-- ObjectClassifier_equiv_sigma_fibration_p -->
<g id="node9" class="node">
<title>ObjectClassifier_equiv_sigma_fibration_p</title>
<g id="a_node9"><a xlink:href="ObjectClassifier.html#equiv_sigma_fibration_p" xlink:title="equiv_sigma_fibration_p">
<ellipse fill="#f070d1" stroke="black" cx="625.63" cy="-394" rx="122.38" ry="18"/>
<text text-anchor="middle" x="625.63" y="-390.3" font-family="Times,serif" font-size="14.00">equiv_sigma_fibration_p</text>
</a>
</g>
</g>
<!-- ObjectClassifier_equiv_pmap_typeO_type_connected&#45;&gt;ObjectClassifier_equiv_sigma_fibration_p -->
<g id="edge2" class="edge">
<title>ObjectClassifier_equiv_pmap_typeO_type_connected&#45;&gt;ObjectClassifier_equiv_sigma_fibration_p</title>
<path fill="none" stroke="black" d="M894.31,-544.93C760.17,-529.02 576.04,-506.17 570.63,-500 555.39,-482.62 561.59,-469.27 570.63,-448 575.4,-436.77 583.86,-426.76 592.72,-418.55"/>
<polygon fill="black" stroke="black" points="595.25,-420.99 600.54,-411.81 590.68,-415.69 595.25,-420.99"/>
</g>
<!-- ObjectClassifier_equiv_sigma_pfibration_O_connected -->
<g id="node2" class="node">
<title>ObjectClassifier_equiv_sigma_pfibration_O_connected</title>
<g id="a_node2"><a xlink:href="ObjectClassifier.html#equiv_sigma_pfibration_O_connected" xlink:title="equiv_sigma_pfibration_O_connected">
<ellipse fill="#f070d1" stroke="black" cx="619.63" cy="-562" rx="181.17" ry="18"/>
<ellipse fill="none" stroke="black" cx="619.63" cy="-562" rx="185.17" ry="22"/>
<ellipse fill="none" stroke="black" cx="619.63" cy="-562" rx="189.17" ry="26"/>
<text text-anchor="middle" x="619.63" y="-558.3" font-family="Times,serif" font-size="14.00">equiv_sigma_pfibration_O_connected</text>
</a>
</g>
</g>
<!-- ObjectClassifier_equiv_sigma_pfibration_O_connected&#45;&gt;ObjectClassifier_equiv_sigma_fibration_Op_connected -->
<g id="edge3" class="edge">
<title>ObjectClassifier_equiv_sigma_pfibration_O_connected&#45;&gt;ObjectClassifier_equiv_sigma_fibration_Op_connected</title>
<path fill="none" stroke="black" d="M724.62,-540.29C798.95,-525.63 897.51,-506.19 967.7,-492.34"/>
<polygon fill="black" stroke="black" points="968.71,-495.71 977.85,-490.34 967.36,-488.84 968.71,-495.71"/>
</g>
<!-- ObjectClassifier_equiv_pfiber_fibration_pfibration -->
<g id="node8" class="node">
<title>ObjectClassifier_equiv_pfiber_fibration_pfibration</title>
<g id="a_node8"><a xlink:href="ObjectClassifier.html#equiv_pfiber_fibration_pfibration" xlink:title="equiv_pfiber_fibration_pfibration">
<ellipse fill="#f070d1" stroke="black" cx="323.63" cy="-394" rx="161.37" ry="18"/>
<text text-anchor="middle" x="323.63" y="-390.3" font-family="Times,serif" font-size="14.00">equiv_pfiber_fibration_pfibration</text>
</a>
</g>
</g>
<!-- ObjectClassifier_equiv_sigma_pfibration_O_connected&#45;&gt;ObjectClassifier_equiv_pfiber_fibration_pfibration -->
<g id="edge4" class="edge">
<title>ObjectClassifier_equiv_sigma_pfibration_O_connected&#45;&gt;ObjectClassifier_equiv_pfiber_fibration_pfibration</title>
<path fill="none" stroke="black" d="M479.46,-544.46C391.42,-532.63 292.04,-516.03 278.63,-500 263.8,-482.28 270.66,-469.69 278.63,-448 282.48,-437.52 289.41,-427.7 296.71,-419.43"/>
<polygon fill="black" stroke="black" points="299.4,-421.67 303.72,-412 294.31,-416.87 299.4,-421.67"/>
</g>
<!-- ObjectClassifier_equiv_sigma_pfibration_O -->
<g id="node3" class="node">
<title>ObjectClassifier_equiv_sigma_pfibration_O</title>
<g id="a_node3"><a xlink:href="ObjectClassifier.html#equiv_sigma_pfibration_O" xlink:title="equiv_sigma_pfibration_O">
<ellipse fill="#f070d1" stroke="black" cx="717.63" cy="-474" rx="129.98" ry="18"/>
<ellipse fill="none" stroke="black" cx="717.63" cy="-474" rx="133.98" ry="22"/>
<ellipse fill="none" stroke="black" cx="717.63" cy="-474" rx="137.98" ry="26"/>
<text text-anchor="middle" x="717.63" y="-470.3" font-family="Times,serif" font-size="14.00">equiv_sigma_pfibration_O</text>
</a>
</g>
</g>
<!-- ObjectClassifier_equiv_sigma_fibration_Op -->
<g id="node5" class="node">
<title>ObjectClassifier_equiv_sigma_fibration_Op</title>
<g id="a_node5"><a xlink:href="ObjectClassifier.html#equiv_sigma_fibration_Op" xlink:title="equiv_sigma_fibration_Op">
<ellipse fill="#f070d1" stroke="black" cx="897.63" cy="-394" rx="129.98" ry="18"/>
<text text-anchor="middle" x="897.63" y="-390.3" font-family="Times,serif" font-size="14.00">equiv_sigma_fibration_Op</text>
</a>
</g>
</g>
<!-- ObjectClassifier_equiv_sigma_pfibration_O&#45;&gt;ObjectClassifier_equiv_sigma_fibration_Op -->
<g id="edge5" class="edge">
<title>ObjectClassifier_equiv_sigma_pfibration_O&#45;&gt;ObjectClassifier_equiv_sigma_fibration_Op</title>
<path fill="none" stroke="black" d="M771.15,-449.81C796.4,-438.87 826.26,-425.93 850.63,-415.37"/>
<polygon fill="black" stroke="black" points="852.23,-418.49 860.02,-411.3 849.45,-412.06 852.23,-418.49"/>
</g>
<!-- ObjectClassifier_equiv_sigma_pfibration_O&#45;&gt;ObjectClassifier_equiv_pfiber_fibration_pfibration -->
<g id="edge6" class="edge">
<title>ObjectClassifier_equiv_sigma_pfibration_O&#45;&gt;ObjectClassifier_equiv_pfiber_fibration_pfibration</title>
<path fill="none" stroke="black" d="M624.76,-454.61C559.43,-441.68 472.67,-424.5 409.06,-411.91"/>
<polygon fill="black" stroke="black" points="409.54,-408.44 399.05,-409.93 408.18,-415.31 409.54,-408.44"/>
</g>
<!-- ObjectClassifier_equiv_sigma_fibration_Op_connected&#45;&gt;ObjectClassifier_equiv_sigma_fibration_Op -->
<g id="edge7" class="edge">
<title>ObjectClassifier_equiv_sigma_fibration_Op_connected&#45;&gt;ObjectClassifier_equiv_sigma_fibration_Op</title>
<path fill="none" stroke="black" d="M1021.73,-456.27C997.83,-444.47 965.64,-428.57 940.03,-415.93"/>
<polygon fill="black" stroke="black" points="941.44,-412.73 930.93,-411.44 938.34,-419 941.44,-412.73"/>
</g>
<!-- ObjectClassifier_equiv_sigma_fibration_O -->
<g id="node6" class="node">
<title>ObjectClassifier_equiv_sigma_fibration_O</title>
<g id="a_node6"><a xlink:href="ObjectClassifier.html#equiv_sigma_fibration_O" xlink:title="equiv_sigma_fibration_O">
<ellipse fill="#f070d1" stroke="black" cx="837.63" cy="-322" rx="124.28" ry="18"/>
<text text-anchor="middle" x="837.63" y="-318.3" font-family="Times,serif" font-size="14.00">equiv_sigma_fibration_O</text>
</a>
</g>
</g>
<!-- ObjectClassifier_equiv_sigma_fibration_Op&#45;&gt;ObjectClassifier_equiv_sigma_fibration_O -->
<g id="edge8" class="edge">
<title>ObjectClassifier_equiv_sigma_fibration_Op&#45;&gt;ObjectClassifier_equiv_sigma_fibration_O</title>
<path fill="none" stroke="black" d="M883.11,-376.05C875.92,-367.67 867.09,-357.38 859.14,-348.1"/>
<polygon fill="black" stroke="black" points="861.6,-345.59 852.44,-340.28 856.29,-350.15 861.6,-345.59"/>
</g>
<!-- ObjectClassifier_equiv_sigma_fibration -->
<g id="node13" class="node">
<title>ObjectClassifier_equiv_sigma_fibration</title>
<g id="a_node13"><a xlink:href="ObjectClassifier.html#equiv_sigma_fibration" xlink:title="equiv_sigma_fibration">
<ellipse fill="#f070d1" stroke="black" cx="641.63" cy="-250" rx="112.38" ry="18"/>
<text text-anchor="middle" x="641.63" y="-246.3" font-family="Times,serif" font-size="14.00">equiv_sigma_fibration</text>
</a>
</g>
</g>
<!-- ObjectClassifier_equiv_sigma_fibration_O&#45;&gt;ObjectClassifier_equiv_sigma_fibration -->
<g id="edge9" class="edge">
<title>ObjectClassifier_equiv_sigma_fibration_O&#45;&gt;ObjectClassifier_equiv_sigma_fibration</title>
<path fill="none" stroke="black" d="M793.15,-305.12C764.11,-294.74 726.01,-281.14 695.29,-270.16"/>
<polygon fill="black" stroke="black" points="696.19,-266.77 685.59,-266.7 693.83,-273.36 696.19,-266.77"/>
</g>
<!-- ObjectClassifier_equiv_sigma_pfibration -->
<g id="node7" class="node">
<title>ObjectClassifier_equiv_sigma_pfibration</title>
<g id="a_node7"><a xlink:href="ObjectClassifier.html#equiv_sigma_pfibration" xlink:title="equiv_sigma_pfibration">
<ellipse fill="#f070d1" stroke="black" cx="413.63" cy="-474" rx="118.09" ry="18"/>
<ellipse fill="none" stroke="black" cx="413.63" cy="-474" rx="122.09" ry="22"/>
<ellipse fill="none" stroke="black" cx="413.63" cy="-474" rx="126.08" ry="26"/>
<text text-anchor="middle" x="413.63" y="-470.3" font-family="Times,serif" font-size="14.00">equiv_sigma_pfibration</text>
</a>
</g>
</g>
<!-- ObjectClassifier_equiv_sigma_pfibration&#45;&gt;ObjectClassifier_equiv_pfiber_fibration_pfibration -->
<g id="edge10" class="edge">
<title>ObjectClassifier_equiv_sigma_pfibration&#45;&gt;ObjectClassifier_equiv_pfiber_fibration_pfibration</title>
<path fill="none" stroke="black" d="M385.15,-448.32C374.13,-438.77 361.57,-427.88 350.69,-418.45"/>
<polygon fill="black" stroke="black" points="352.95,-415.78 343.1,-411.88 348.37,-421.07 352.95,-415.78"/>
</g>
<!-- ObjectClassifier_equiv_sigma_pfibration&#45;&gt;ObjectClassifier_equiv_sigma_fibration_p -->
<g id="edge11" class="edge">
<title>ObjectClassifier_equiv_sigma_pfibration&#45;&gt;ObjectClassifier_equiv_sigma_fibration_p</title>
<path fill="none" stroke="black" d="M473.25,-451.07C504.52,-439.56 542.51,-425.58 572.73,-414.46"/>
<polygon fill="black" stroke="black" points="574.07,-417.7 582.25,-410.96 571.65,-411.13 574.07,-417.7"/>
</g>
<!-- ObjectClassifier_pSlice -->
<g id="node17" class="node">
<title>ObjectClassifier_pSlice</title>
<g id="a_node17"><a xlink:href="ObjectClassifier.html#pSlice" xlink:title="pSlice">
<ellipse fill="#f070d1" stroke="black" cx="294.63" cy="-322" rx="38.99" ry="18"/>
<text text-anchor="middle" x="294.63" y="-318.3" font-family="Times,serif" font-size="14.00">pSlice</text>
</a>
</g>
</g>
<!-- ObjectClassifier_equiv_pfiber_fibration_pfibration&#45;&gt;ObjectClassifier_pSlice -->
<g id="edge12" class="edge">
<title>ObjectClassifier_equiv_pfiber_fibration_pfibration&#45;&gt;ObjectClassifier_pSlice</title>
<path fill="none" stroke="black" d="M316.46,-375.7C313.2,-367.81 309.26,-358.3 305.63,-349.55"/>
<polygon fill="black" stroke="black" points="308.78,-348 301.72,-340.1 302.31,-350.68 308.78,-348"/>
</g>
<!-- ObjectClassifier_Slice -->
<g id="node18" class="node">
<title>ObjectClassifier_Slice</title>
<g id="a_node18"><a xlink:href="ObjectClassifier.html#Slice" xlink:title="Slice">
<ellipse fill="#f070d1" stroke="black" cx="455.63" cy="-34" rx="33.29" ry="18"/>
<text text-anchor="middle" x="455.63" y="-30.3" font-family="Times,serif" font-size="14.00">Slice</text>
</a>
</g>
</g>
<!-- ObjectClassifier_equiv_pfiber_fibration_pfibration&#45;&gt;ObjectClassifier_Slice -->
<g id="edge13" class="edge">
<title>ObjectClassifier_equiv_pfiber_fibration_pfibration&#45;&gt;ObjectClassifier_Slice</title>
<path fill="none" stroke="black" d="M331.01,-375.64C335.05,-365.44 339.8,-352.19 342.63,-340 351.63,-301.23 352.63,-290.8 352.63,-251 352.63,-251 352.63,-251 352.63,-177 352.63,-137.14 341.6,-121.22 363.63,-88 376.27,-68.94 398.26,-55.91 417.57,-47.54"/>
<polygon fill="black" stroke="black" points="419.12,-50.69 427.07,-43.69 416.49,-44.2 419.12,-50.69"/>
</g>
<!-- ObjectClassifier_equiv_sigma_fibration_p&#45;&gt;ObjectClassifier_equiv_sigma_fibration -->
<g id="edge14" class="edge">
<title>ObjectClassifier_equiv_sigma_fibration_p&#45;&gt;ObjectClassifier_equiv_sigma_fibration</title>
<path fill="none" stroke="black" d="M627.56,-375.87C630.29,-351.67 635.3,-307.21 638.54,-278.39"/>
<polygon fill="black" stroke="black" points="642.05,-278.52 639.69,-268.19 635.1,-277.73 642.05,-278.52"/>
</g>
<!-- ObjectClassifier_ispullback_objectclassifier_square -->
<g id="node10" class="node">
<title>ObjectClassifier_ispullback_objectclassifier_square</title>
<g id="a_node10"><a xlink:href="ObjectClassifier.html#ispullback_objectclassifier_square" xlink:title="ispullback_objectclassifier_square">
<ellipse fill="#f070d1" stroke="black" cx="192.63" cy="-562" rx="167.86" ry="18"/>
<ellipse fill="none" stroke="black" cx="192.63" cy="-562" rx="171.87" ry="22"/>
<ellipse fill="none" stroke="black" cx="192.63" cy="-562" rx="175.87" ry="26"/>
<text text-anchor="middle" x="192.63" y="-558.3" font-family="Times,serif" font-size="14.00">ispullback_objectclassifier_square</text>
</a>
</g>
</g>
<!-- ObjectClassifier_objectclassifier_square -->
<g id="node11" class="node">
<title>ObjectClassifier_objectclassifier_square</title>
<g id="a_node11"><a xlink:href="ObjectClassifier.html#objectclassifier_square" xlink:title="objectclassifier_square">
<ellipse fill="#f070d1" stroke="black" cx="132.63" cy="-474" rx="116.18" ry="18"/>
<text text-anchor="middle" x="132.63" y="-470.3" font-family="Times,serif" font-size="14.00">objectclassifier_square</text>
</a>
</g>
</g>
<!-- ObjectClassifier_ispullback_objectclassifier_square&#45;&gt;ObjectClassifier_objectclassifier_square -->
<g id="edge15" class="edge">
<title>ObjectClassifier_ispullback_objectclassifier_square&#45;&gt;ObjectClassifier_objectclassifier_square</title>
<path fill="none" stroke="black" d="M175.28,-536.13C167.39,-524.82 158.07,-511.47 150.16,-500.13"/>
<polygon fill="black" stroke="black" points="153.03,-498.12 144.44,-491.92 147.29,-502.13 153.03,-498.12"/>
</g>
<!-- ObjectClassifier_topmap -->
<g id="node12" class="node">
<title>ObjectClassifier_topmap</title>
<g id="a_node12"><a xlink:href="ObjectClassifier.html#topmap" xlink:title="topmap">
<ellipse fill="#f070d1" stroke="black" cx="97.63" cy="-394" rx="46.29" ry="18"/>
<text text-anchor="middle" x="97.63" y="-390.3" font-family="Times,serif" font-size="14.00">topmap</text>
</a>
</g>
</g>
<!-- ObjectClassifier_objectclassifier_square&#45;&gt;ObjectClassifier_topmap -->
<g id="edge16" class="edge">
<title>ObjectClassifier_objectclassifier_square&#45;&gt;ObjectClassifier_topmap</title>
<path fill="none" stroke="black" d="M124.86,-455.69C120.35,-445.62 114.56,-432.73 109.48,-421.42"/>
<polygon fill="black" stroke="black" points="112.54,-419.68 105.26,-411.99 106.16,-422.55 112.54,-419.68"/>
</g>
<!-- ObjectClassifier_isequiv_sigma_fibration -->
<g id="node14" class="node">
<title>ObjectClassifier_isequiv_sigma_fibration</title>
<g id="a_node14"><a xlink:href="ObjectClassifier.html#isequiv_sigma_fibration" xlink:title="isequiv_sigma_fibration">
<ellipse fill="#f070d1" stroke="black" cx="641.63" cy="-178" rx="120.48" ry="18"/>
<text text-anchor="middle" x="641.63" y="-174.3" font-family="Times,serif" font-size="14.00">isequiv_sigma_fibration</text>
</a>
</g>
</g>
<!-- ObjectClassifier_equiv_sigma_fibration&#45;&gt;ObjectClassifier_isequiv_sigma_fibration -->
<g id="edge17" class="edge">
<title>ObjectClassifier_equiv_sigma_fibration&#45;&gt;ObjectClassifier_isequiv_sigma_fibration</title>
<path fill="none" stroke="black" d="M641.63,-231.7C641.63,-223.98 641.63,-214.71 641.63,-206.11"/>
<polygon fill="black" stroke="black" points="645.13,-206.1 641.63,-196.1 638.13,-206.1 645.13,-206.1"/>
</g>
<!-- ObjectClassifier_sigma_fibration_inverse -->
<g id="node15" class="node">
<title>ObjectClassifier_sigma_fibration_inverse</title>
<g id="a_node15"><a xlink:href="ObjectClassifier.html#sigma_fibration_inverse" xlink:title="sigma_fibration_inverse">
<ellipse fill="#f070d1" stroke="black" cx="677.63" cy="-106" rx="120.78" ry="18"/>
<text text-anchor="middle" x="677.63" y="-102.3" font-family="Times,serif" font-size="14.00">sigma_fibration_inverse</text>
</a>
</g>
</g>
<!-- ObjectClassifier_isequiv_sigma_fibration&#45;&gt;ObjectClassifier_sigma_fibration_inverse -->
<g id="edge18" class="edge">
<title>ObjectClassifier_isequiv_sigma_fibration&#45;&gt;ObjectClassifier_sigma_fibration_inverse</title>
<path fill="none" stroke="black" d="M650.53,-159.7C654.63,-151.73 659.58,-142.1 664.12,-133.26"/>
<polygon fill="black" stroke="black" points="667.37,-134.6 668.83,-124.1 661.15,-131.4 667.37,-134.6"/>
</g>
<!-- ObjectClassifier_sigma_fibration -->
<g id="node16" class="node">
<title>ObjectClassifier_sigma_fibration</title>
<g id="a_node16"><a xlink:href="ObjectClassifier.html#sigma_fibration" xlink:title="sigma_fibration">
<ellipse fill="#f070d1" stroke="black" cx="455.63" cy="-106" rx="82.59" ry="18"/>
<text text-anchor="middle" x="455.63" y="-102.3" font-family="Times,serif" font-size="14.00">sigma_fibration</text>
</a>
</g>
</g>
<!-- ObjectClassifier_isequiv_sigma_fibration&#45;&gt;ObjectClassifier_sigma_fibration -->
<g id="edge19" class="edge">
<title>ObjectClassifier_isequiv_sigma_fibration&#45;&gt;ObjectClassifier_sigma_fibration</title>
<path fill="none" stroke="black" d="M599.42,-161.12C571.3,-150.53 534.25,-136.59 504.8,-125.5"/>
<polygon fill="black" stroke="black" points="505.72,-122.11 495.13,-121.86 503.25,-128.66 505.72,-122.11"/>
</g>
<!-- ObjectClassifier_sigma_fibration_inverse&#45;&gt;ObjectClassifier_Slice -->
<g id="edge20" class="edge">
<title>ObjectClassifier_sigma_fibration_inverse&#45;&gt;ObjectClassifier_Slice</title>
<path fill="none" stroke="black" d="M628.36,-89.46C587.73,-76.65 530.91,-58.74 493.7,-47.01"/>
<polygon fill="black" stroke="black" points="494.35,-43.54 483.76,-43.87 492.24,-50.22 494.35,-43.54"/>
</g>
<!-- ObjectClassifier_sigma_fibration&#45;&gt;ObjectClassifier_Slice -->
<g id="edge21" class="edge">
<title>ObjectClassifier_sigma_fibration&#45;&gt;ObjectClassifier_Slice</title>
<path fill="none" stroke="black" d="M455.63,-87.7C455.63,-79.98 455.63,-70.71 455.63,-62.11"/>
<polygon fill="black" stroke="black" points="459.13,-62.1 455.63,-52.1 452.13,-62.1 459.13,-62.1"/>
</g>
</g>
</svg>
