<?xml version="1.0" encoding="UTF-8" standalone="no"?>
<!DOCTYPE svg PUBLIC "-//W3C//DTD SVG 1.1//EN"
 "http://www.w3.org/Graphics/SVG/1.1/DTD/svg11.dtd">
<!-- Generated by graphviz version 2.43.0 (0)
 -->
<!-- Title: HoTT_Algebra_Groups_ShortExactSequence Pages: 1 -->
<svg width="536pt" height="272pt"
 viewBox="0.00 0.00 536.00 272.00" xmlns="http://www.w3.org/2000/svg" xmlns:xlink="http://www.w3.org/1999/xlink">
<g id="graph0" class="graph" transform="scale(1 1) rotate(0) translate(4 268)">
<title>HoTT_Algebra_Groups_ShortExactSequence</title>
<polygon fill="white" stroke="transparent" points="-4,4 -4,-268 532,-268 532,4 -4,4"/>
<g id="clust1" class="cluster">
<title>cluster_ShortExactSequence</title>
<polygon fill="#ffffc3" stroke="black" points="8,-8.41 8,-255.59 520,-255.59 520,-8.41 8,-8.41"/>
<text text-anchor="middle" x="91" y="-240.39" font-family="Times,serif" font-size="14.00">ShortExactSequence</text>
</g>
<!-- ShortExactSequence_equiv_grp_isexact_kernel -->
<g id="node1" class="node">
<title>ShortExactSequence_equiv_grp_isexact_kernel</title>
<g id="a_node1"><a xlink:href="ShortExactSequence.html#equiv_grp_isexact_kernel" xlink:title="equiv_grp_isexact_kernel">
<ellipse fill="#f070d1" stroke="black" cx="377" cy="-195.41" rx="127.28" ry="18"/>
<ellipse fill="none" stroke="black" cx="377" cy="-195.41" rx="131.28" ry="22"/>
<ellipse fill="none" stroke="black" cx="377" cy="-195.41" rx="135.28" ry="26"/>
<text text-anchor="middle" x="377" y="-191.71" font-family="Times,serif" font-size="14.00">equiv_grp_isexact_kernel</text>
</a>
</g>
</g>
<!-- ShortExactSequence_iff_grp_isexact_isembedding -->
<g id="node2" class="node">
<title>ShortExactSequence_iff_grp_isexact_isembedding</title>
<g id="a_node2"><a xlink:href="ShortExactSequence.html#iff_grp_isexact_isembedding" xlink:title="iff_grp_isexact_isembedding">
<ellipse fill="#f070d1" stroke="black" cx="370" cy="-111.41" rx="141.88" ry="18"/>
<text text-anchor="middle" x="370" y="-107.71" font-family="Times,serif" font-size="14.00">iff_grp_isexact_isembedding</text>
</a>
</g>
</g>
<!-- ShortExactSequence_equiv_grp_isexact_kernel&#45;&gt;ShortExactSequence_iff_grp_isexact_isembedding -->
<g id="edge1" class="edge">
<title>ShortExactSequence_equiv_grp_isexact_kernel&#45;&gt;ShortExactSequence_iff_grp_isexact_isembedding</title>
<path fill="none" stroke="black" d="M374.86,-169.37C374.06,-159.99 373.15,-149.29 372.33,-139.72"/>
<polygon fill="black" stroke="black" points="375.8,-139.19 371.46,-129.53 368.82,-139.79 375.8,-139.19"/>
</g>
<!-- ShortExactSequence_grp_iscomplex_trivial -->
<g id="node3" class="node">
<title>ShortExactSequence_grp_iscomplex_trivial</title>
<g id="a_node3"><a xlink:href="ShortExactSequence.html#grp_iscomplex_trivial" xlink:title="grp_iscomplex_trivial">
<ellipse fill="#f070d1" stroke="black" cx="370" cy="-35.41" rx="109.68" ry="18"/>
<text text-anchor="middle" x="370" y="-31.71" font-family="Times,serif" font-size="14.00">grp_iscomplex_trivial</text>
</a>
</g>
</g>
<!-- ShortExactSequence_iff_grp_isexact_isembedding&#45;&gt;ShortExactSequence_grp_iscomplex_trivial -->
<g id="edge2" class="edge">
<title>ShortExactSequence_iff_grp_isexact_isembedding&#45;&gt;ShortExactSequence_grp_iscomplex_trivial</title>
<path fill="none" stroke="black" d="M370,-93.25C370,-84.47 370,-73.58 370,-63.68"/>
<polygon fill="black" stroke="black" points="373.5,-63.48 370,-53.48 366.5,-63.48 373.5,-63.48"/>
</g>
<!-- ShortExactSequence_grp_iso_cxfib_beta -->
<g id="node4" class="node">
<title>ShortExactSequence_grp_iso_cxfib_beta</title>
<g id="a_node4"><a xlink:href="ShortExactSequence.html#grp_iso_cxfib_beta" xlink:title="grp_iso_cxfib_beta">
<ellipse fill="#f070d1" stroke="black" cx="120" cy="-195.41" rx="95.58" ry="18"/>
<ellipse fill="none" stroke="black" cx="120" cy="-195.41" rx="99.58" ry="22"/>
<ellipse fill="none" stroke="black" cx="120" cy="-195.41" rx="103.58" ry="26"/>
<text text-anchor="middle" x="120" y="-191.71" font-family="Times,serif" font-size="14.00">grp_iso_cxfib_beta</text>
</a>
</g>
</g>
<!-- ShortExactSequence_grp_iso_cxfib -->
<g id="node5" class="node">
<title>ShortExactSequence_grp_iso_cxfib</title>
<g id="a_node5"><a xlink:href="ShortExactSequence.html#grp_iso_cxfib" xlink:title="grp_iso_cxfib">
<ellipse fill="#f070d1" stroke="black" cx="120" cy="-111.41" rx="70.69" ry="18"/>
<text text-anchor="middle" x="120" y="-107.71" font-family="Times,serif" font-size="14.00">grp_iso_cxfib</text>
</a>
</g>
</g>
<!-- ShortExactSequence_grp_iso_cxfib_beta&#45;&gt;ShortExactSequence_grp_iso_cxfib -->
<g id="edge3" class="edge">
<title>ShortExactSequence_grp_iso_cxfib_beta&#45;&gt;ShortExactSequence_grp_iso_cxfib</title>
<path fill="none" stroke="black" d="M120,-169.37C120,-159.99 120,-149.29 120,-139.72"/>
<polygon fill="black" stroke="black" points="123.5,-139.53 120,-129.53 116.5,-139.53 123.5,-139.53"/>
</g>
<!-- ShortExactSequence_grp_cxfib -->
<g id="node6" class="node">
<title>ShortExactSequence_grp_cxfib</title>
<g id="a_node6"><a xlink:href="ShortExactSequence.html#grp_cxfib" xlink:title="grp_cxfib">
<ellipse fill="#f070d1" stroke="black" cx="120" cy="-35.41" rx="53.09" ry="18"/>
<text text-anchor="middle" x="120" y="-31.71" font-family="Times,serif" font-size="14.00">grp_cxfib</text>
</a>
</g>
</g>
<!-- ShortExactSequence_grp_iso_cxfib&#45;&gt;ShortExactSequence_grp_cxfib -->
<g id="edge4" class="edge">
<title>ShortExactSequence_grp_iso_cxfib&#45;&gt;ShortExactSequence_grp_cxfib</title>
<path fill="none" stroke="black" d="M120,-93.25C120,-84.47 120,-73.58 120,-63.68"/>
<polygon fill="black" stroke="black" points="123.5,-63.48 120,-53.48 116.5,-63.48 123.5,-63.48"/>
</g>
</g>
</svg>
