<?xml version="1.0" encoding="UTF-8" standalone="no"?>
<!DOCTYPE svg PUBLIC "-//W3C//DTD SVG 1.1//EN"
 "http://www.w3.org/Graphics/SVG/1.1/DTD/svg11.dtd">
<!-- Generated by graphviz version 2.43.0 (0)
 -->
<!-- Title: HoTT_Colimits_Quotient Pages: 1 -->
<svg width="2139pt" height="1074pt"
 viewBox="0.00 0.00 2139.00 1073.50" xmlns="http://www.w3.org/2000/svg" xmlns:xlink="http://www.w3.org/1999/xlink">
<g id="graph0" class="graph" transform="scale(1 1) rotate(0) translate(4 1069.5)">
<title>HoTT_Colimits_Quotient</title>
<polygon fill="white" stroke="transparent" points="-4,4 -4,-1069.5 2135,-1069.5 2135,4 -4,4"/>
<g id="clust1" class="cluster">
<title>cluster_Quotient</title>
<polygon fill="#ffffc3" stroke="black" points="8,-12.63 8,-1052.87 2123,-1052.87 2123,-12.63 8,-12.63"/>
<text text-anchor="middle" x="47.5" y="-1037.67" font-family="Times,serif" font-size="14.00">Quotient</text>
</g>
<!-- Quotient_quotient_kernel_factor_small -->
<g id="node1" class="node">
<title>Quotient_quotient_kernel_factor_small</title>
<g id="a_node1"><a xlink:href="Quotient.html#quotient_kernel_factor_small" xlink:title="quotient_kernel_factor_small">
<ellipse fill="#f070d1" stroke="black" cx="1832" cy="-962.63" rx="144.09" ry="18"/>
<ellipse fill="none" stroke="black" cx="1832" cy="-962.63" rx="148.08" ry="22"/>
<ellipse fill="none" stroke="black" cx="1832" cy="-962.63" rx="152.07" ry="26"/>
<text text-anchor="middle" x="1832" y="-958.93" font-family="Times,serif" font-size="14.00">quotient_kernel_factor_small</text>
</a>
</g>
</g>
<!-- Quotient_quotient_kernel_factor_general -->
<g id="node3" class="node">
<title>Quotient_quotient_kernel_factor_general</title>
<g id="a_node3"><a xlink:href="Quotient.html#quotient_kernel_factor_general" xlink:title="quotient_kernel_factor_general">
<ellipse fill="#f070d1" stroke="black" cx="1701" cy="-823.63" rx="154.87" ry="18"/>
<text text-anchor="middle" x="1701" y="-819.93" font-family="Times,serif" font-size="14.00">quotient_kernel_factor_general</text>
</a>
</g>
</g>
<!-- Quotient_quotient_kernel_factor_small&#45;&gt;Quotient_quotient_kernel_factor_general -->
<g id="edge1" class="edge">
<title>Quotient_quotient_kernel_factor_small&#45;&gt;Quotient_quotient_kernel_factor_general</title>
<path fill="none" stroke="black" d="M1808.28,-936.82C1784.59,-912.05 1748.4,-874.2 1724.72,-849.43"/>
<polygon fill="black" stroke="black" points="1726.94,-846.69 1717.5,-841.88 1721.88,-851.53 1726.94,-846.69"/>
</g>
<!-- Quotient_quotient_kernel_factor -->
<g id="node2" class="node">
<title>Quotient_quotient_kernel_factor</title>
<g id="a_node2"><a xlink:href="Quotient.html#quotient_kernel_factor" xlink:title="quotient_kernel_factor">
<ellipse fill="#f070d1" stroke="black" cx="1539" cy="-962.63" rx="115.08" ry="18"/>
<ellipse fill="none" stroke="black" cx="1539" cy="-962.63" rx="119.08" ry="22"/>
<ellipse fill="none" stroke="black" cx="1539" cy="-962.63" rx="123.08" ry="26"/>
<text text-anchor="middle" x="1539" y="-958.93" font-family="Times,serif" font-size="14.00">quotient_kernel_factor</text>
</a>
</g>
</g>
<!-- Quotient_quotient_kernel_factor&#45;&gt;Quotient_quotient_kernel_factor_general -->
<g id="edge2" class="edge">
<title>Quotient_quotient_kernel_factor&#45;&gt;Quotient_quotient_kernel_factor_general</title>
<path fill="none" stroke="black" d="M1567.96,-937.14C1597.74,-911.95 1643.8,-873 1673.16,-848.17"/>
<polygon fill="black" stroke="black" points="1675.6,-850.69 1680.98,-841.56 1671.08,-845.35 1675.6,-850.69"/>
</g>
<!-- Quotient_issurj_class_of -->
<g id="node13" class="node">
<title>Quotient_issurj_class_of</title>
<g id="a_node13"><a xlink:href="Quotient.html#issurj_class_of" xlink:title="issurj_class_of">
<ellipse fill="#f070d1" stroke="black" cx="1355" cy="-684.63" rx="77.19" ry="18"/>
<text text-anchor="middle" x="1355" y="-680.93" font-family="Times,serif" font-size="14.00">issurj_class_of</text>
</a>
</g>
</g>
<!-- Quotient_quotient_kernel_factor_general&#45;&gt;Quotient_issurj_class_of -->
<g id="edge3" class="edge">
<title>Quotient_quotient_kernel_factor_general&#45;&gt;Quotient_issurj_class_of</title>
<path fill="none" stroke="black" d="M1659.61,-806.24C1594.9,-780.62 1470.15,-731.22 1402.1,-704.28"/>
<polygon fill="black" stroke="black" points="1403.07,-700.9 1392.48,-700.47 1400.49,-707.4 1403.07,-700.9"/>
</g>
<!-- Quotient_ishset_quotient -->
<g id="node28" class="node">
<title>Quotient_ishset_quotient</title>
<g id="a_node28"><a xlink:href="Quotient.html#ishset_quotient" xlink:title="ishset_quotient">
<ellipse fill="#f070d1" stroke="black" cx="2022" cy="-407.63" rx="81.79" ry="18"/>
<text text-anchor="middle" x="2022" y="-403.93" font-family="Times,serif" font-size="14.00">ishset_quotient</text>
</a>
</g>
</g>
<!-- Quotient_quotient_kernel_factor_general&#45;&gt;Quotient_ishset_quotient -->
<g id="edge4" class="edge">
<title>Quotient_quotient_kernel_factor_general&#45;&gt;Quotient_ishset_quotient</title>
<path fill="none" stroke="black" d="M1795.44,-809.29C1901.14,-792.2 2062.43,-758.91 2099,-710.63 2149.99,-643.31 2124.05,-601.27 2099,-520.63 2088.51,-486.86 2063.92,-454.25 2045.33,-433.01"/>
<polygon fill="black" stroke="black" points="2047.82,-430.55 2038.54,-425.45 2042.61,-435.23 2047.82,-430.55"/>
</g>
<!-- Quotient_quotient_kernel_factor_internal -->
<g id="node4" class="node">
<title>Quotient_quotient_kernel_factor_internal</title>
<g id="a_node4"><a xlink:href="Quotient.html#quotient_kernel_factor_internal" xlink:title="quotient_kernel_factor_internal">
<ellipse fill="#f070d1" stroke="black" cx="1364" cy="-823.63" rx="155.97" ry="18"/>
<ellipse fill="none" stroke="black" cx="1364" cy="-823.63" rx="159.97" ry="22"/>
<ellipse fill="none" stroke="black" cx="1364" cy="-823.63" rx="163.97" ry="26"/>
<text text-anchor="middle" x="1364" y="-819.93" font-family="Times,serif" font-size="14.00">quotient_kernel_factor_internal</text>
</a>
</g>
</g>
<!-- Quotient_quotient_kernel_factor_internal&#45;&gt;Quotient_issurj_class_of -->
<g id="edge5" class="edge">
<title>Quotient_quotient_kernel_factor_internal&#45;&gt;Quotient_issurj_class_of</title>
<path fill="none" stroke="black" d="M1362.35,-797.5C1360.78,-773.55 1358.41,-737.57 1356.79,-712.92"/>
<polygon fill="black" stroke="black" points="1360.28,-712.55 1356.13,-702.8 1353.29,-713.01 1360.28,-712.55"/>
</g>
<!-- Quotient_quotient_kernel_factor_internal&#45;&gt;Quotient_ishset_quotient -->
<g id="edge6" class="edge">
<title>Quotient_quotient_kernel_factor_internal&#45;&gt;Quotient_ishset_quotient</title>
<path fill="none" stroke="black" d="M1481.12,-805.39C1683.84,-775.42 2079.11,-716.34 2084,-710.63 2119.61,-669.05 2058.73,-501.1 2032.82,-435.28"/>
<polygon fill="black" stroke="black" points="2035.93,-433.62 2028.98,-425.62 2029.42,-436.21 2035.93,-433.62"/>
</g>
<!-- Quotient_equiv_quotient_functor_ -->
<g id="node5" class="node">
<title>Quotient_equiv_quotient_functor_</title>
<g id="a_node5"><a xlink:href="Quotient.html#equiv_quotient_functor'" xlink:title="equiv_quotient_functor&#39;">
<ellipse fill="#f070d1" stroke="black" cx="144" cy="-962.63" rx="120.46" ry="18"/>
<ellipse fill="none" stroke="black" cx="144" cy="-962.63" rx="124.47" ry="22"/>
<ellipse fill="none" stroke="black" cx="144" cy="-962.63" rx="128.48" ry="26"/>
<text text-anchor="middle" x="144" y="-958.93" font-family="Times,serif" font-size="14.00">equiv_quotient_functor&#39;</text>
</a>
</g>
</g>
<!-- Quotient_equiv_quotient_functor -->
<g id="node6" class="node">
<title>Quotient_equiv_quotient_functor</title>
<g id="a_node6"><a xlink:href="Quotient.html#equiv_quotient_functor" xlink:title="equiv_quotient_functor">
<ellipse fill="#f070d1" stroke="black" cx="143" cy="-823.63" rx="117.78" ry="18"/>
<text text-anchor="middle" x="143" y="-819.93" font-family="Times,serif" font-size="14.00">equiv_quotient_functor</text>
</a>
</g>
</g>
<!-- Quotient_equiv_quotient_functor_&#45;&gt;Quotient_equiv_quotient_functor -->
<g id="edge7" class="edge">
<title>Quotient_equiv_quotient_functor_&#45;&gt;Quotient_equiv_quotient_functor</title>
<path fill="none" stroke="black" d="M143.82,-936.5C143.64,-912.55 143.38,-876.57 143.2,-851.92"/>
<polygon fill="black" stroke="black" points="146.7,-851.77 143.13,-841.8 139.7,-851.82 146.7,-851.77"/>
</g>
<!-- Quotient_isequiv_quotient_functor -->
<g id="node7" class="node">
<title>Quotient_isequiv_quotient_functor</title>
<g id="a_node7"><a xlink:href="Quotient.html#isequiv_quotient_functor" xlink:title="isequiv_quotient_functor">
<ellipse fill="#f070d1" stroke="black" cx="141" cy="-684.63" rx="125.38" ry="18"/>
<text text-anchor="middle" x="141" y="-680.93" font-family="Times,serif" font-size="14.00">isequiv_quotient_functor</text>
</a>
</g>
</g>
<!-- Quotient_equiv_quotient_functor&#45;&gt;Quotient_isequiv_quotient_functor -->
<g id="edge8" class="edge">
<title>Quotient_equiv_quotient_functor&#45;&gt;Quotient_isequiv_quotient_functor</title>
<path fill="none" stroke="black" d="M142.75,-805.55C142.41,-782.38 141.8,-740.69 141.4,-713.09"/>
<polygon fill="black" stroke="black" points="144.9,-712.87 141.25,-702.92 137.9,-712.97 144.9,-712.87"/>
</g>
<!-- Quotient_isequiv_quotient_functor_subproof -->
<g id="node8" class="node">
<title>Quotient_isequiv_quotient_functor_subproof</title>
<g id="a_node8"><a xlink:href="Quotient.html#isequiv_quotient_functor_subproof" xlink:title="isequiv_quotient_functor_subproof">
<ellipse fill="#f070d1" stroke="black" cx="187" cy="-546.63" rx="170.87" ry="18"/>
<text text-anchor="middle" x="187" y="-542.93" font-family="Times,serif" font-size="14.00">isequiv_quotient_functor_subproof</text>
</a>
</g>
</g>
<!-- Quotient_isequiv_quotient_functor&#45;&gt;Quotient_isequiv_quotient_functor_subproof -->
<g id="edge9" class="edge">
<title>Quotient_isequiv_quotient_functor&#45;&gt;Quotient_isequiv_quotient_functor_subproof</title>
<path fill="none" stroke="black" d="M146.83,-666.4C154.67,-643.21 168.71,-601.7 177.94,-574.41"/>
<polygon fill="black" stroke="black" points="181.33,-575.31 181.22,-564.71 174.7,-573.06 181.33,-575.31"/>
</g>
<!-- Quotient_Quotient_functor -->
<g id="node11" class="node">
<title>Quotient_Quotient_functor</title>
<g id="a_node11"><a xlink:href="Quotient.html#Quotient_functor" xlink:title="Quotient_functor">
<ellipse fill="#f070d1" stroke="black" cx="909" cy="-546.63" rx="89.08" ry="18"/>
<text text-anchor="middle" x="909" y="-542.93" font-family="Times,serif" font-size="14.00">Quotient_functor</text>
</a>
</g>
</g>
<!-- Quotient_isequiv_quotient_functor&#45;&gt;Quotient_Quotient_functor -->
<g id="edge10" class="edge">
<title>Quotient_isequiv_quotient_functor&#45;&gt;Quotient_Quotient_functor</title>
<path fill="none" stroke="black" d="M213.65,-669.92C233.53,-666.21 255.09,-662.23 275,-658.63 476.41,-622.21 714.16,-581.08 833.15,-560.63"/>
<polygon fill="black" stroke="black" points="833.98,-564.04 843.24,-558.89 832.79,-557.14 833.98,-564.04"/>
</g>
<!-- Quotient_Quotient_ind -->
<g id="node27" class="node">
<title>Quotient_Quotient_ind</title>
<g id="a_node27"><a xlink:href="Quotient.html#Quotient_ind" xlink:title="Quotient_ind">
<ellipse fill="#f070d1" stroke="black" cx="1371" cy="-407.63" rx="70.39" ry="18"/>
<text text-anchor="middle" x="1371" y="-403.93" font-family="Times,serif" font-size="14.00">Quotient_ind</text>
</a>
</g>
</g>
<!-- Quotient_isequiv_quotient_functor&#45;&gt;Quotient_Quotient_ind -->
<g id="edge11" class="edge">
<title>Quotient_isequiv_quotient_functor&#45;&gt;Quotient_Quotient_ind</title>
<path fill="none" stroke="black" d="M198.57,-668.55C314.2,-638.5 583.11,-569.82 811,-520.63 1014.81,-476.64 1068.38,-478.51 1272,-433.63 1285.65,-430.62 1300.29,-427.09 1314,-423.65"/>
<polygon fill="black" stroke="black" points="1314.97,-427.02 1323.8,-421.17 1313.25,-420.23 1314.97,-427.02"/>
</g>
<!-- Quotient_Quotient_functor_compose -->
<g id="node9" class="node">
<title>Quotient_Quotient_functor_compose</title>
<g id="a_node9"><a xlink:href="Quotient.html#Quotient_functor_compose" xlink:title="Quotient_functor_compose">
<ellipse fill="#f070d1" stroke="black" cx="948" cy="-684.63" rx="133.78" ry="18"/>
<ellipse fill="none" stroke="black" cx="948" cy="-684.63" rx="137.78" ry="22"/>
<ellipse fill="none" stroke="black" cx="948" cy="-684.63" rx="141.78" ry="26"/>
<text text-anchor="middle" x="948" y="-680.93" font-family="Times,serif" font-size="14.00">Quotient_functor_compose</text>
</a>
</g>
</g>
<!-- Quotient_Quotient_functor_compose&#45;&gt;Quotient_Quotient_functor -->
<g id="edge12" class="edge">
<title>Quotient_Quotient_functor_compose&#45;&gt;Quotient_Quotient_functor</title>
<path fill="none" stroke="black" d="M940.76,-658.37C933.93,-634.57 923.74,-599.04 916.76,-574.68"/>
<polygon fill="black" stroke="black" points="920.1,-573.64 913.98,-564.99 913.37,-575.56 920.1,-573.64"/>
</g>
<!-- Quotient_Quotient_ind_hprop -->
<g id="node23" class="node">
<title>Quotient_Quotient_ind_hprop</title>
<g id="a_node23"><a xlink:href="Quotient.html#Quotient_ind_hprop" xlink:title="Quotient_ind_hprop">
<ellipse fill="#f070d1" stroke="black" cx="1118" cy="-546.63" rx="102.08" ry="18"/>
<text text-anchor="middle" x="1118" y="-542.93" font-family="Times,serif" font-size="14.00">Quotient_ind_hprop</text>
</a>
</g>
</g>
<!-- Quotient_Quotient_functor_compose&#45;&gt;Quotient_Quotient_ind_hprop -->
<g id="edge13" class="edge">
<title>Quotient_Quotient_functor_compose&#45;&gt;Quotient_Quotient_ind_hprop</title>
<path fill="none" stroke="black" d="M978.79,-659C1010.1,-633.95 1058.25,-595.43 1088.93,-570.89"/>
<polygon fill="black" stroke="black" points="1091.47,-573.34 1097.09,-564.36 1087.09,-567.87 1091.47,-573.34"/>
</g>
<!-- Quotient_Quotient_functor_idmap -->
<g id="node10" class="node">
<title>Quotient_Quotient_functor_idmap</title>
<g id="a_node10"><a xlink:href="Quotient.html#Quotient_functor_idmap" xlink:title="Quotient_functor_idmap">
<ellipse fill="#f070d1" stroke="black" cx="658" cy="-684.63" rx="122.37" ry="18"/>
<ellipse fill="none" stroke="black" cx="658" cy="-684.63" rx="126.37" ry="22"/>
<ellipse fill="none" stroke="black" cx="658" cy="-684.63" rx="130.38" ry="26"/>
<text text-anchor="middle" x="658" y="-680.93" font-family="Times,serif" font-size="14.00">Quotient_functor_idmap</text>
</a>
</g>
</g>
<!-- Quotient_Quotient_functor_idmap&#45;&gt;Quotient_Quotient_functor -->
<g id="edge14" class="edge">
<title>Quotient_Quotient_functor_idmap&#45;&gt;Quotient_Quotient_functor</title>
<path fill="none" stroke="black" d="M701.43,-660.09C749.08,-634.28 824.84,-593.23 870.46,-568.51"/>
<polygon fill="black" stroke="black" points="872.31,-571.49 879.44,-563.65 868.98,-565.33 872.31,-571.49"/>
</g>
<!-- Quotient_Quotient_functor_idmap&#45;&gt;Quotient_Quotient_ind_hprop -->
<g id="edge15" class="edge">
<title>Quotient_Quotient_functor_idmap&#45;&gt;Quotient_Quotient_ind_hprop</title>
<path fill="none" stroke="black" d="M728.62,-662.75C818.86,-636.07 973.5,-590.35 1058.2,-565.31"/>
<polygon fill="black" stroke="black" points="1059.33,-568.62 1067.93,-562.43 1057.34,-561.91 1059.33,-568.62"/>
</g>
<!-- Quotient_Quotient_rec -->
<g id="node25" class="node">
<title>Quotient_Quotient_rec</title>
<g id="a_node25"><a xlink:href="Quotient.html#Quotient_rec" xlink:title="Quotient_rec">
<ellipse fill="#f070d1" stroke="black" cx="1130" cy="-280.63" rx="70.39" ry="18"/>
<text text-anchor="middle" x="1130" y="-276.93" font-family="Times,serif" font-size="14.00">Quotient_rec</text>
</a>
</g>
</g>
<!-- Quotient_Quotient_functor&#45;&gt;Quotient_Quotient_rec -->
<g id="edge16" class="edge">
<title>Quotient_Quotient_functor&#45;&gt;Quotient_Quotient_rec</title>
<path fill="none" stroke="black" d="M914.07,-528.43C924.08,-496.66 948.87,-427.8 988,-381.63 1016.83,-347.61 1059.75,-319.52 1090.85,-301.86"/>
<polygon fill="black" stroke="black" points="1092.65,-304.87 1099.69,-296.94 1089.25,-298.75 1092.65,-304.87"/>
</g>
<!-- Quotient_Quotient_functor&#45;&gt;Quotient_ishset_quotient -->
<g id="edge17" class="edge">
<title>Quotient_Quotient_functor&#45;&gt;Quotient_ishset_quotient</title>
<path fill="none" stroke="black" d="M958.31,-531.62C973.79,-527.6 991.02,-523.53 1007,-520.63 1185.59,-488.16 1727.89,-435.97 1937.79,-416.39"/>
<polygon fill="black" stroke="black" points="1938.2,-419.86 1947.83,-415.45 1937.55,-412.89 1938.2,-419.86"/>
</g>
<!-- Quotient_qglue -->
<g id="node29" class="node">
<title>Quotient_qglue</title>
<g id="a_node29"><a xlink:href="Quotient.html#qglue" xlink:title="qglue">
<ellipse fill="#f070d1" stroke="black" cx="1371" cy="-280.63" rx="36.29" ry="18"/>
<text text-anchor="middle" x="1371" y="-276.93" font-family="Times,serif" font-size="14.00">qglue</text>
</a>
</g>
</g>
<!-- Quotient_Quotient_functor&#45;&gt;Quotient_qglue -->
<g id="edge18" class="edge">
<title>Quotient_Quotient_functor&#45;&gt;Quotient_qglue</title>
<path fill="none" stroke="black" d="M961.75,-532.08C1056.75,-507.3 1248.9,-455.21 1272,-433.63 1290.09,-416.72 1279.74,-403.14 1292,-381.63 1308.27,-353.07 1332.25,-323.99 1349.52,-304.6"/>
<polygon fill="black" stroke="black" points="1352.13,-306.94 1356.24,-297.17 1346.94,-302.24 1352.13,-306.94"/>
</g>
<!-- Quotient_equiv_quotient_ump -->
<g id="node12" class="node">
<title>Quotient_equiv_quotient_ump</title>
<g id="a_node12"><a xlink:href="Quotient.html#equiv_quotient_ump" xlink:title="equiv_quotient_ump">
<ellipse fill="#f070d1" stroke="black" cx="397" cy="-684.63" rx="104.77" ry="18"/>
<ellipse fill="none" stroke="black" cx="397" cy="-684.63" rx="108.78" ry="22"/>
<ellipse fill="none" stroke="black" cx="397" cy="-684.63" rx="112.78" ry="26"/>
<text text-anchor="middle" x="397" y="-680.93" font-family="Times,serif" font-size="14.00">equiv_quotient_ump</text>
</a>
</g>
</g>
<!-- Quotient_equiv_quotient_ump&#45;&gt;Quotient_Quotient_ind_hprop -->
<g id="edge19" class="edge">
<title>Quotient_equiv_quotient_ump&#45;&gt;Quotient_Quotient_ind_hprop</title>
<path fill="none" stroke="black" d="M478.64,-666.57C492.11,-663.85 505.94,-661.12 519,-658.63 735.34,-617.41 791.07,-615.95 1007,-572.63 1020.71,-569.88 1035.34,-566.73 1049.31,-563.63"/>
<polygon fill="black" stroke="black" points="1050.36,-566.98 1059.35,-561.38 1048.83,-560.15 1050.36,-566.98"/>
</g>
<!-- Quotient_equiv_quotient_ump&#45;&gt;Quotient_Quotient_rec -->
<g id="edge20" class="edge">
<title>Quotient_equiv_quotient_ump&#45;&gt;Quotient_Quotient_rec</title>
<path fill="none" stroke="black" d="M439.31,-660.42C570.48,-588.49 968.9,-369.98 1092.82,-302.02"/>
<polygon fill="black" stroke="black" points="1094.51,-305.08 1101.59,-297.21 1091.14,-298.95 1094.51,-305.08"/>
</g>
<!-- Quotient_issurj_class_of&#45;&gt;Quotient_Quotient_ind_hprop -->
<g id="edge21" class="edge">
<title>Quotient_issurj_class_of&#45;&gt;Quotient_Quotient_ind_hprop</title>
<path fill="none" stroke="black" d="M1327.35,-667.76C1284.79,-643.34 1203.16,-596.5 1155.38,-569.08"/>
<polygon fill="black" stroke="black" points="1156.99,-565.97 1146.58,-564.03 1153.51,-572.04 1156.99,-565.97"/>
</g>
<!-- Quotient_path_quotient -->
<g id="node14" class="node">
<title>Quotient_path_quotient</title>
<g id="a_node14"><a xlink:href="Quotient.html#path_quotient" xlink:title="path_quotient">
<ellipse fill="#f070d1" stroke="black" cx="1992" cy="-684.63" rx="75.3" ry="18"/>
<ellipse fill="none" stroke="black" cx="1992" cy="-684.63" rx="79.29" ry="22"/>
<ellipse fill="none" stroke="black" cx="1992" cy="-684.63" rx="83.29" ry="26"/>
<text text-anchor="middle" x="1992" y="-680.93" font-family="Times,serif" font-size="14.00">path_quotient</text>
</a>
</g>
</g>
<!-- Quotient_related_quotient_paths -->
<g id="node15" class="node">
<title>Quotient_related_quotient_paths</title>
<g id="a_node15"><a xlink:href="Quotient.html#related_quotient_paths" xlink:title="related_quotient_paths">
<ellipse fill="#f070d1" stroke="black" cx="1865" cy="-546.63" rx="117.78" ry="18"/>
<text text-anchor="middle" x="1865" y="-542.93" font-family="Times,serif" font-size="14.00">related_quotient_paths</text>
</a>
</g>
</g>
<!-- Quotient_path_quotient&#45;&gt;Quotient_related_quotient_paths -->
<g id="edge22" class="edge">
<title>Quotient_path_quotient&#45;&gt;Quotient_related_quotient_paths</title>
<path fill="none" stroke="black" d="M1969.29,-659.31C1946.38,-634.77 1911.16,-597.06 1888.1,-572.37"/>
<polygon fill="black" stroke="black" points="1890.46,-569.76 1881.07,-564.84 1885.34,-574.54 1890.46,-569.76"/>
</g>
<!-- Quotient_path_quotient&#45;&gt;Quotient_ishset_quotient -->
<g id="edge23" class="edge">
<title>Quotient_path_quotient&#45;&gt;Quotient_ishset_quotient</title>
<path fill="none" stroke="black" d="M1995.7,-658.54C1998.95,-636.07 2003.65,-602.19 2007,-572.63 2012.43,-524.64 2017.23,-468.58 2019.86,-436"/>
<polygon fill="black" stroke="black" points="2023.36,-436.14 2020.67,-425.89 2016.38,-435.58 2023.36,-436.14"/>
</g>
<!-- Quotient_path_quotient&#45;&gt;Quotient_qglue -->
<g id="edge24" class="edge">
<title>Quotient_path_quotient&#45;&gt;Quotient_qglue</title>
<path fill="none" stroke="black" d="M1995.09,-658.46C1999.47,-618.59 2005.56,-543.1 1992,-520.63 1868.73,-316.42 1540.32,-286.14 1417.88,-282.07"/>
<polygon fill="black" stroke="black" points="1417.81,-278.57 1407.71,-281.78 1417.6,-285.57 1417.81,-278.57"/>
</g>
<!-- Quotient_in_class -->
<g id="node18" class="node">
<title>Quotient_in_class</title>
<g id="a_node18"><a xlink:href="Quotient.html#in_class" xlink:title="in_class">
<ellipse fill="#f070d1" stroke="black" cx="1672" cy="-407.63" rx="46.59" ry="18"/>
<text text-anchor="middle" x="1672" y="-403.93" font-family="Times,serif" font-size="14.00">in_class</text>
</a>
</g>
</g>
<!-- Quotient_related_quotient_paths&#45;&gt;Quotient_in_class -->
<g id="edge25" class="edge">
<title>Quotient_related_quotient_paths&#45;&gt;Quotient_in_class</title>
<path fill="none" stroke="black" d="M1841.33,-528.83C1806.15,-503.85 1740.08,-456.95 1701.69,-429.71"/>
<polygon fill="black" stroke="black" points="1703.67,-426.81 1693.48,-423.88 1699.61,-432.52 1703.67,-426.81"/>
</g>
<!-- Quotient_class_of -->
<g id="node30" class="node">
<title>Quotient_class_of</title>
<g id="a_node30"><a xlink:href="Quotient.html#class_of" xlink:title="class_of">
<ellipse fill="#f070d1" stroke="black" cx="1723" cy="-167.63" rx="46.59" ry="18"/>
<text text-anchor="middle" x="1723" y="-163.93" font-family="Times,serif" font-size="14.00">class_of</text>
</a>
</g>
</g>
<!-- Quotient_related_quotient_paths&#45;&gt;Quotient_class_of -->
<g id="edge26" class="edge">
<title>Quotient_related_quotient_paths&#45;&gt;Quotient_class_of</title>
<path fill="none" stroke="black" d="M1858.53,-528.45C1835.93,-468.45 1760.41,-267.94 1733.02,-195.24"/>
<polygon fill="black" stroke="black" points="1736.15,-193.6 1729.35,-185.48 1729.6,-196.07 1736.15,-193.6"/>
</g>
<!-- Quotient_path_in_class_of -->
<g id="node16" class="node">
<title>Quotient_path_in_class_of</title>
<g id="a_node16"><a xlink:href="Quotient.html#path_in_class_of" xlink:title="path_in_class_of">
<ellipse fill="#f070d1" stroke="black" cx="1616" cy="-546.63" rx="85.27" ry="18"/>
<ellipse fill="none" stroke="black" cx="1616" cy="-546.63" rx="89.28" ry="22"/>
<ellipse fill="none" stroke="black" cx="1616" cy="-546.63" rx="93.29" ry="26"/>
<text text-anchor="middle" x="1616" y="-542.93" font-family="Times,serif" font-size="14.00">path_in_class_of</text>
</a>
</g>
</g>
<!-- Quotient_path_in_class_of&#45;&gt;Quotient_in_class -->
<g id="edge27" class="edge">
<title>Quotient_path_in_class_of&#45;&gt;Quotient_in_class</title>
<path fill="none" stroke="black" d="M1626.27,-520.5C1636.15,-496.33 1651.03,-459.92 1661.11,-435.26"/>
<polygon fill="black" stroke="black" points="1664.44,-436.38 1664.98,-425.8 1657.96,-433.73 1664.44,-436.38"/>
</g>
<!-- Quotient_path_in_class_of&#45;&gt;Quotient_Quotient_ind -->
<g id="edge28" class="edge">
<title>Quotient_path_in_class_of&#45;&gt;Quotient_Quotient_ind</title>
<path fill="none" stroke="black" d="M1575.82,-523.16C1529.21,-497.1 1453,-454.48 1407.86,-429.24"/>
<polygon fill="black" stroke="black" points="1409.43,-426.11 1398.99,-424.28 1406.01,-432.21 1409.43,-426.11"/>
</g>
<!-- Quotient_path_in_class_of&#45;&gt;Quotient_ishset_quotient -->
<g id="edge29" class="edge">
<title>Quotient_path_in_class_of&#45;&gt;Quotient_ishset_quotient</title>
<path fill="none" stroke="black" d="M1673.74,-526.14C1752.73,-499.49 1893.33,-452.05 1969.49,-426.35"/>
<polygon fill="black" stroke="black" points="1970.99,-429.53 1979.35,-423.02 1968.75,-422.9 1970.99,-429.53"/>
</g>
<!-- Quotient_decidable_in_class -->
<g id="node17" class="node">
<title>Quotient_decidable_in_class</title>
<g id="a_node17"><a xlink:href="Quotient.html#decidable_in_class" xlink:title="decidable_in_class">
<ellipse fill="#f070d1" stroke="black" cx="1787" cy="-684.63" rx="95.58" ry="18"/>
<ellipse fill="none" stroke="black" cx="1787" cy="-684.63" rx="99.58" ry="22"/>
<ellipse fill="none" stroke="black" cx="1787" cy="-684.63" rx="103.58" ry="26"/>
<text text-anchor="middle" x="1787" y="-680.93" font-family="Times,serif" font-size="14.00">decidable_in_class</text>
</a>
</g>
</g>
<!-- Quotient_decidable_in_class&#45;&gt;Quotient_in_class -->
<g id="edge30" class="edge">
<title>Quotient_decidable_in_class&#45;&gt;Quotient_in_class</title>
<path fill="none" stroke="black" d="M1775.56,-658.65C1765.4,-636.25 1750.3,-602.42 1738,-572.63 1728.55,-549.74 1727.15,-543.64 1718,-520.63 1706.3,-491.19 1692.43,-457.6 1683.01,-434.95"/>
<polygon fill="black" stroke="black" points="1686.21,-433.54 1679.13,-425.66 1679.75,-436.23 1686.21,-433.54"/>
</g>
<!-- Quotient_decidable_in_class&#45;&gt;Quotient_Quotient_ind_hprop -->
<g id="edge31" class="edge">
<title>Quotient_decidable_in_class&#45;&gt;Quotient_Quotient_ind_hprop</title>
<path fill="none" stroke="black" d="M1712.06,-666.58C1699.69,-663.86 1687,-661.12 1675,-658.63 1477.36,-617.52 1426.61,-613.92 1229,-572.63 1215.46,-569.8 1201.03,-566.65 1187.2,-563.56"/>
<polygon fill="black" stroke="black" points="1187.78,-560.11 1177.26,-561.33 1186.25,-566.94 1187.78,-560.11"/>
</g>
<!-- Quotient_in_class&#45;&gt;Quotient_Quotient_rec -->
<g id="edge32" class="edge">
<title>Quotient_in_class&#45;&gt;Quotient_Quotient_rec</title>
<path fill="none" stroke="black" d="M1633.02,-397.64C1539.6,-376.09 1302.38,-321.38 1190.35,-295.55"/>
<polygon fill="black" stroke="black" points="1191.08,-292.12 1180.55,-293.29 1189.51,-298.94 1191.08,-292.12"/>
</g>
<!-- Quotient_Quotient_rec2 -->
<g id="node19" class="node">
<title>Quotient_Quotient_rec2</title>
<g id="a_node19"><a xlink:href="Quotient.html#Quotient_rec2" xlink:title="Quotient_rec2">
<ellipse fill="#f070d1" stroke="black" cx="1098" cy="-823.63" rx="76.08" ry="18"/>
<ellipse fill="none" stroke="black" cx="1098" cy="-823.63" rx="80.08" ry="22"/>
<ellipse fill="none" stroke="black" cx="1098" cy="-823.63" rx="84.09" ry="26"/>
<text text-anchor="middle" x="1098" y="-819.93" font-family="Times,serif" font-size="14.00">Quotient_rec2</text>
</a>
</g>
</g>
<!-- Quotient_Quotient_ind2 -->
<g id="node20" class="node">
<title>Quotient_Quotient_ind2</title>
<g id="a_node20"><a xlink:href="Quotient.html#Quotient_ind2" xlink:title="Quotient_ind2">
<ellipse fill="#f070d1" stroke="black" cx="1184" cy="-684.63" rx="76.09" ry="18"/>
<text text-anchor="middle" x="1184" y="-680.93" font-family="Times,serif" font-size="14.00">Quotient_ind2</text>
</a>
</g>
</g>
<!-- Quotient_Quotient_rec2&#45;&gt;Quotient_Quotient_ind2 -->
<g id="edge33" class="edge">
<title>Quotient_Quotient_rec2&#45;&gt;Quotient_Quotient_ind2</title>
<path fill="none" stroke="black" d="M1113.57,-797.82C1129.01,-773.23 1152.53,-735.76 1168.08,-710.99"/>
<polygon fill="black" stroke="black" points="1171.07,-712.81 1173.42,-702.48 1165.14,-709.09 1171.07,-712.81"/>
</g>
<!-- Quotient_Quotient_ind2&#45;&gt;Quotient_Quotient_ind_hprop -->
<g id="edge34" class="edge">
<title>Quotient_Quotient_ind2&#45;&gt;Quotient_Quotient_ind_hprop</title>
<path fill="none" stroke="black" d="M1175.77,-666.68C1164.46,-643.37 1143.99,-601.19 1130.7,-573.81"/>
<polygon fill="black" stroke="black" points="1133.84,-572.26 1126.33,-564.79 1127.55,-575.32 1133.84,-572.26"/>
</g>
<!-- Quotient_Quotient_ind3_hprop -->
<g id="node21" class="node">
<title>Quotient_Quotient_ind3_hprop</title>
<g id="a_node21"><a xlink:href="Quotient.html#Quotient_ind3_hprop" xlink:title="Quotient_ind3_hprop">
<ellipse fill="#f070d1" stroke="black" cx="1990" cy="-823.63" rx="107.79" ry="18"/>
<ellipse fill="none" stroke="black" cx="1990" cy="-823.63" rx="111.78" ry="22"/>
<ellipse fill="none" stroke="black" cx="1990" cy="-823.63" rx="115.78" ry="26"/>
<text text-anchor="middle" x="1990" y="-819.93" font-family="Times,serif" font-size="14.00">Quotient_ind3_hprop</text>
</a>
</g>
</g>
<!-- Quotient_Quotient_ind2_hprop -->
<g id="node22" class="node">
<title>Quotient_Quotient_ind2_hprop</title>
<g id="a_node22"><a xlink:href="Quotient.html#Quotient_ind2_hprop" xlink:title="Quotient_ind2_hprop">
<ellipse fill="#f070d1" stroke="black" cx="1558" cy="-684.63" rx="107.78" ry="18"/>
<text text-anchor="middle" x="1558" y="-680.93" font-family="Times,serif" font-size="14.00">Quotient_ind2_hprop</text>
</a>
</g>
</g>
<!-- Quotient_Quotient_ind3_hprop&#45;&gt;Quotient_Quotient_ind2_hprop -->
<g id="edge35" class="edge">
<title>Quotient_Quotient_ind3_hprop&#45;&gt;Quotient_Quotient_ind2_hprop</title>
<path fill="none" stroke="black" d="M1924.86,-801.97C1840.88,-775.34 1696.15,-729.44 1615.87,-703.98"/>
<polygon fill="black" stroke="black" points="1616.52,-700.52 1605.93,-700.83 1614.41,-707.19 1616.52,-700.52"/>
</g>
<!-- Quotient_Quotient_ind2_hprop&#45;&gt;Quotient_Quotient_ind_hprop -->
<g id="edge36" class="edge">
<title>Quotient_Quotient_ind2_hprop&#45;&gt;Quotient_Quotient_ind_hprop</title>
<path fill="none" stroke="black" d="M1509.23,-668.55C1427.58,-643.32 1263.56,-592.62 1176.08,-565.58"/>
<polygon fill="black" stroke="black" points="1176.9,-562.17 1166.32,-562.56 1174.84,-568.86 1176.9,-562.17"/>
</g>
<!-- Quotient_Quotient_ind_hprop&#45;&gt;Quotient_Quotient_ind -->
<g id="edge37" class="edge">
<title>Quotient_Quotient_ind_hprop&#45;&gt;Quotient_Quotient_ind</title>
<path fill="none" stroke="black" d="M1148.02,-529.37C1194.22,-504.35 1282.72,-456.43 1333.22,-429.08"/>
<polygon fill="black" stroke="black" points="1335.06,-432.07 1342.19,-424.23 1331.73,-425.91 1335.06,-432.07"/>
</g>
<!-- Quotient_Quotient_rec_beta_qglue -->
<g id="node24" class="node">
<title>Quotient_Quotient_rec_beta_qglue</title>
<g id="a_node24"><a xlink:href="Quotient.html#Quotient_rec_beta_qglue" xlink:title="Quotient_rec_beta_qglue">
<ellipse fill="#f070d1" stroke="black" cx="1130" cy="-407.63" rx="125.38" ry="18"/>
<ellipse fill="none" stroke="black" cx="1130" cy="-407.63" rx="129.38" ry="22"/>
<ellipse fill="none" stroke="black" cx="1130" cy="-407.63" rx="133.38" ry="26"/>
<text text-anchor="middle" x="1130" y="-403.93" font-family="Times,serif" font-size="14.00">Quotient_rec_beta_qglue</text>
</a>
</g>
</g>
<!-- Quotient_Quotient_rec_beta_qglue&#45;&gt;Quotient_Quotient_rec -->
<g id="edge38" class="edge">
<title>Quotient_Quotient_rec_beta_qglue&#45;&gt;Quotient_Quotient_rec</title>
<path fill="none" stroke="black" d="M1130,-381.33C1130,-360.34 1130,-330.54 1130,-308.99"/>
<polygon fill="black" stroke="black" points="1133.5,-308.86 1130,-298.86 1126.5,-308.86 1133.5,-308.86"/>
</g>
<!-- Quotient_Quotient_rec_beta_qglue&#45;&gt;Quotient_qglue -->
<g id="edge39" class="edge">
<title>Quotient_Quotient_rec_beta_qglue&#45;&gt;Quotient_qglue</title>
<path fill="none" stroke="black" d="M1175.33,-383.12C1222.61,-358.59 1295.61,-320.73 1337.79,-298.85"/>
<polygon fill="black" stroke="black" points="1339.55,-301.89 1346.81,-294.17 1336.32,-295.67 1339.55,-301.89"/>
</g>
<!-- Quotient_Quotient -->
<g id="node31" class="node">
<title>Quotient_Quotient</title>
<g id="a_node31"><a xlink:href="Quotient.html#Quotient" xlink:title="Quotient">
<ellipse fill="#f070d1" stroke="black" cx="1723" cy="-53.63" rx="51.19" ry="18"/>
<text text-anchor="middle" x="1723" y="-49.93" font-family="Times,serif" font-size="14.00">Quotient</text>
</a>
</g>
</g>
<!-- Quotient_Quotient_rec&#45;&gt;Quotient_Quotient -->
<g id="edge40" class="edge">
<title>Quotient_Quotient_rec&#45;&gt;Quotient_Quotient</title>
<path fill="none" stroke="black" d="M1167.54,-265.38C1272.45,-225.58 1568.28,-113.33 1679.77,-71.03"/>
<polygon fill="black" stroke="black" points="1681.24,-74.22 1689.35,-67.4 1678.75,-67.67 1681.24,-74.22"/>
</g>
<!-- Quotient_Quotient_ind_beta_qglue -->
<g id="node26" class="node">
<title>Quotient_Quotient_ind_beta_qglue</title>
<g id="a_node26"><a xlink:href="Quotient.html#Quotient_ind_beta_qglue" xlink:title="Quotient_ind_beta_qglue">
<ellipse fill="#f070d1" stroke="black" cx="1371" cy="-546.63" rx="125.38" ry="18"/>
<ellipse fill="none" stroke="black" cx="1371" cy="-546.63" rx="129.38" ry="22"/>
<ellipse fill="none" stroke="black" cx="1371" cy="-546.63" rx="133.38" ry="26"/>
<text text-anchor="middle" x="1371" y="-542.93" font-family="Times,serif" font-size="14.00">Quotient_ind_beta_qglue</text>
</a>
</g>
</g>
<!-- Quotient_Quotient_ind_beta_qglue&#45;&gt;Quotient_Quotient_ind -->
<g id="edge41" class="edge">
<title>Quotient_Quotient_ind_beta_qglue&#45;&gt;Quotient_Quotient_ind</title>
<path fill="none" stroke="black" d="M1371,-520.5C1371,-496.55 1371,-460.57 1371,-435.92"/>
<polygon fill="black" stroke="black" points="1374.5,-435.8 1371,-425.8 1367.5,-435.8 1374.5,-435.8"/>
</g>
<!-- Quotient_Quotient_ind&#45;&gt;Quotient_qglue -->
<g id="edge42" class="edge">
<title>Quotient_Quotient_ind&#45;&gt;Quotient_qglue</title>
<path fill="none" stroke="black" d="M1371,-389.51C1371,-368.77 1371,-333.58 1371,-309.05"/>
<polygon fill="black" stroke="black" points="1374.5,-308.94 1371,-298.94 1367.5,-308.94 1374.5,-308.94"/>
</g>
<!-- Quotient_ishset_quotient&#45;&gt;Quotient_Quotient -->
<g id="edge43" class="edge">
<title>Quotient_ishset_quotient&#45;&gt;Quotient_Quotient</title>
<path fill="none" stroke="black" d="M2007.58,-389.65C1958.92,-332.36 1800.64,-146.03 1743.67,-78.96"/>
<polygon fill="black" stroke="black" points="1746.07,-76.38 1736.93,-71.03 1740.74,-80.92 1746.07,-76.38"/>
</g>
<!-- Quotient_qglue&#45;&gt;Quotient_class_of -->
<g id="edge44" class="edge">
<title>Quotient_qglue&#45;&gt;Quotient_class_of</title>
<path fill="none" stroke="black" d="M1401.01,-270.16C1462.94,-250.64 1605.18,-205.78 1678.1,-182.79"/>
<polygon fill="black" stroke="black" points="1679.43,-186.04 1687.91,-179.69 1677.32,-179.36 1679.43,-186.04"/>
</g>
<!-- Quotient_class_of&#45;&gt;Quotient_Quotient -->
<g id="edge45" class="edge">
<title>Quotient_class_of&#45;&gt;Quotient_Quotient</title>
<path fill="none" stroke="black" d="M1723,-149.62C1723,-131.69 1723,-103.18 1723,-82.07"/>
<polygon fill="black" stroke="black" points="1726.5,-81.8 1723,-71.8 1719.5,-81.8 1726.5,-81.8"/>
</g>
</g>
</svg>
