<?xml version="1.0" encoding="UTF-8" standalone="no"?>
<!DOCTYPE svg PUBLIC "-//W3C//DTD SVG 1.1//EN"
 "http://www.w3.org/Graphics/SVG/1.1/DTD/svg11.dtd">
<!-- Generated by graphviz version 2.43.0 (0)
 -->
<!-- Title: HoTT_Colimits_GraphQuotient Pages: 1 -->
<svg width="1460pt" height="734pt"
 viewBox="0.00 0.00 1460.00 734.00" xmlns="http://www.w3.org/2000/svg" xmlns:xlink="http://www.w3.org/1999/xlink">
<g id="graph0" class="graph" transform="scale(1 1) rotate(0) translate(4 730)">
<title>HoTT_Colimits_GraphQuotient</title>
<polygon fill="white" stroke="transparent" points="-4,4 -4,-730 1456,-730 1456,4 -4,4"/>
<g id="clust1" class="cluster">
<title>cluster_GraphQuotient</title>
<polygon fill="#ffffc3" stroke="black" points="11.39,-8 11.39,-718 1440.61,-718 1440.61,-8 11.39,-8"/>
<text text-anchor="middle" x="72.89" y="-702.8" font-family="Times,serif" font-size="14.00">GraphQuotient</text>
</g>
<g id="clust2" class="cluster">
<title>cluster_GraphQuotient_GraphQuotient</title>
<polygon fill="#ffffa3" stroke="black" points="720.31,-16 720.31,-307 1198.61,-307 1198.61,-16 720.31,-16"/>
<text text-anchor="middle" x="781.81" y="-291.8" font-family="Times,serif" font-size="14.00">GraphQuotient</text>
</g>
<!-- GraphQuotient_GraphQuotient_GraphQuotient_ind_beta_gqglue -->
<g id="node1" class="node">
<title>GraphQuotient_GraphQuotient_GraphQuotient_ind_beta_gqglue</title>
<g id="a_node1"><a xlink:href="GraphQuotient.html#GraphQuotient.GraphQuotient_ind_beta_gqglue" xlink:title="GraphQuotient_ind_beta_gqglue">
<ellipse fill="#facdef" stroke="black" cx="959.59" cy="-258" rx="159.77" ry="18"/>
<text text-anchor="middle" x="959.59" y="-254.3" font-family="Times,serif" font-size="14.00">GraphQuotient_ind_beta_gqglue</text>
</a>
</g>
</g>
<!-- GraphQuotient_GraphQuotient_GraphQuotient_ind -->
<g id="node2" class="node">
<title>GraphQuotient_GraphQuotient_GraphQuotient_ind</title>
<g id="a_node2"><a xlink:href="GraphQuotient.html#GraphQuotient.GraphQuotient_ind" xlink:title="GraphQuotient_ind">
<ellipse fill="#f070d1" stroke="black" cx="909.59" cy="-186" rx="98.58" ry="18"/>
<text text-anchor="middle" x="909.59" y="-182.3" font-family="Times,serif" font-size="14.00">GraphQuotient_ind</text>
</a>
</g>
</g>
<!-- GraphQuotient_GraphQuotient_GraphQuotient_ind_beta_gqglue&#45;&gt;GraphQuotient_GraphQuotient_GraphQuotient_ind -->
<g id="edge1" class="edge">
<title>GraphQuotient_GraphQuotient_GraphQuotient_ind_beta_gqglue&#45;&gt;GraphQuotient_GraphQuotient_GraphQuotient_ind</title>
<path fill="none" stroke="black" d="M947.23,-239.7C941.36,-231.47 934.22,-221.48 927.75,-212.42"/>
<polygon fill="black" stroke="black" points="930.47,-210.21 921.81,-204.1 924.77,-214.28 930.47,-210.21"/>
</g>
<!-- GraphQuotient_GraphQuotient_gqglue -->
<g id="node3" class="node">
<title>GraphQuotient_GraphQuotient_gqglue</title>
<g id="a_node3"><a xlink:href="GraphQuotient.html#GraphQuotient.gqglue" xlink:title="gqglue">
<ellipse fill="#facdef" stroke="black" cx="909.59" cy="-114" rx="42.49" ry="18"/>
<text text-anchor="middle" x="909.59" y="-110.3" font-family="Times,serif" font-size="14.00">gqglue</text>
</a>
</g>
</g>
<!-- GraphQuotient_GraphQuotient_GraphQuotient_ind&#45;&gt;GraphQuotient_GraphQuotient_gqglue -->
<g id="edge2" class="edge">
<title>GraphQuotient_GraphQuotient_GraphQuotient_ind&#45;&gt;GraphQuotient_GraphQuotient_gqglue</title>
<path fill="none" stroke="black" d="M909.59,-167.7C909.59,-159.98 909.59,-150.71 909.59,-142.11"/>
<polygon fill="black" stroke="black" points="913.09,-142.1 909.59,-132.1 906.09,-142.1 913.09,-142.1"/>
</g>
<!-- GraphQuotient_GraphQuotient_gq -->
<g id="node4" class="node">
<title>GraphQuotient_GraphQuotient_gq</title>
<g id="a_node4"><a xlink:href="GraphQuotient.html#GraphQuotient.gq" xlink:title="gq">
<ellipse fill="#7faaff" stroke="black" cx="832.59" cy="-42" rx="27" ry="18"/>
<text text-anchor="middle" x="832.59" y="-38.3" font-family="Times,serif" font-size="14.00">gq</text>
</a>
</g>
</g>
<!-- GraphQuotient_GraphQuotient_gqglue&#45;&gt;GraphQuotient_GraphQuotient_gq -->
<g id="edge3" class="edge">
<title>GraphQuotient_GraphQuotient_gqglue&#45;&gt;GraphQuotient_GraphQuotient_gq</title>
<path fill="none" stroke="black" d="M892.5,-97.46C881.7,-87.65 867.6,-74.83 855.8,-64.1"/>
<polygon fill="black" stroke="black" points="857.81,-61.2 848.06,-57.07 853.11,-66.38 857.81,-61.2"/>
</g>
<!-- GraphQuotient_GraphQuotient_GraphQuotient -->
<g id="node5" class="node">
<title>GraphQuotient_GraphQuotient_GraphQuotient</title>
<g id="a_node5"><a xlink:href="GraphQuotient.html#GraphQuotient.GraphQuotient" xlink:title="GraphQuotient">
<ellipse fill="#e2cdfa" stroke="black" cx="1010.59" cy="-42" rx="79.89" ry="18"/>
<text text-anchor="middle" x="1010.59" y="-38.3" font-family="Times,serif" font-size="14.00">GraphQuotient</text>
</a>
</g>
</g>
<!-- GraphQuotient_GraphQuotient_gqglue&#45;&gt;GraphQuotient_GraphQuotient_GraphQuotient -->
<g id="edge4" class="edge">
<title>GraphQuotient_GraphQuotient_gqglue&#45;&gt;GraphQuotient_GraphQuotient_GraphQuotient</title>
<path fill="none" stroke="black" d="M931.01,-98.15C944.88,-88.54 963.2,-75.84 978.77,-65.05"/>
<polygon fill="black" stroke="black" points="980.86,-67.86 987.08,-59.29 976.87,-62.11 980.86,-67.86"/>
</g>
<!-- GraphQuotient_equiv_functor_gq -->
<g id="node6" class="node">
<title>GraphQuotient_equiv_functor_gq</title>
<g id="a_node6"><a xlink:href="GraphQuotient.html#equiv_functor_gq" xlink:title="equiv_functor_gq">
<ellipse fill="#f070d1" stroke="black" cx="434.59" cy="-573" rx="90.2" ry="18"/>
<ellipse fill="none" stroke="black" cx="434.59" cy="-573" rx="94.19" ry="22"/>
<ellipse fill="none" stroke="black" cx="434.59" cy="-573" rx="98.18" ry="26"/>
<text text-anchor="middle" x="434.59" y="-569.3" font-family="Times,serif" font-size="14.00">equiv_functor_gq</text>
</a>
</g>
</g>
<!-- GraphQuotient_isequiv_functor_gq -->
<g id="node7" class="node">
<title>GraphQuotient_isequiv_functor_gq</title>
<g id="a_node7"><a xlink:href="GraphQuotient.html#isequiv_functor_gq" xlink:title="isequiv_functor_gq">
<ellipse fill="#f070d1" stroke="black" cx="434.59" cy="-485" rx="98.28" ry="18"/>
<text text-anchor="middle" x="434.59" y="-481.3" font-family="Times,serif" font-size="14.00">isequiv_functor_gq</text>
</a>
</g>
</g>
<!-- GraphQuotient_equiv_functor_gq&#45;&gt;GraphQuotient_isequiv_functor_gq -->
<g id="edge5" class="edge">
<title>GraphQuotient_equiv_functor_gq&#45;&gt;GraphQuotient_isequiv_functor_gq</title>
<path fill="none" stroke="black" d="M434.59,-546.66C434.59,-536.11 434.59,-523.84 434.59,-513.1"/>
<polygon fill="black" stroke="black" points="438.09,-513 434.59,-503 431.09,-513 438.09,-513"/>
</g>
<!-- GraphQuotient_functor2_gq -->
<g id="node8" class="node">
<title>GraphQuotient_functor2_gq</title>
<g id="a_node8"><a xlink:href="GraphQuotient.html#functor2_gq" xlink:title="functor2_gq">
<ellipse fill="#f070d1" stroke="black" cx="734.59" cy="-405" rx="66.09" ry="18"/>
<text text-anchor="middle" x="734.59" y="-401.3" font-family="Times,serif" font-size="14.00">functor2_gq</text>
</a>
</g>
</g>
<!-- GraphQuotient_isequiv_functor_gq&#45;&gt;GraphQuotient_functor2_gq -->
<g id="edge6" class="edge">
<title>GraphQuotient_isequiv_functor_gq&#45;&gt;GraphQuotient_functor2_gq</title>
<path fill="none" stroke="black" d="M488.57,-469.97C542.25,-456.01 624.23,-434.69 678.6,-420.56"/>
<polygon fill="black" stroke="black" points="679.62,-423.91 688.42,-418 677.86,-417.13 679.62,-423.91"/>
</g>
<!-- GraphQuotient_functor_gq_compose -->
<g id="node9" class="node">
<title>GraphQuotient_functor_gq_compose</title>
<g id="a_node9"><a xlink:href="GraphQuotient.html#functor_gq_compose" xlink:title="functor_gq_compose">
<ellipse fill="#f070d1" stroke="black" cx="172.59" cy="-405" rx="105.08" ry="18"/>
<text text-anchor="middle" x="172.59" y="-401.3" font-family="Times,serif" font-size="14.00">functor_gq_compose</text>
</a>
</g>
</g>
<!-- GraphQuotient_isequiv_functor_gq&#45;&gt;GraphQuotient_functor_gq_compose -->
<g id="edge7" class="edge">
<title>GraphQuotient_isequiv_functor_gq&#45;&gt;GraphQuotient_functor_gq_compose</title>
<path fill="none" stroke="black" d="M385.31,-469.33C341.85,-456.39 278.43,-437.51 232.14,-423.73"/>
<polygon fill="black" stroke="black" points="233.12,-420.37 222.54,-420.87 231.12,-427.08 233.12,-420.37"/>
</g>
<!-- GraphQuotient_functor_gq_idmap -->
<g id="node10" class="node">
<title>GraphQuotient_functor_gq_idmap</title>
<g id="a_node10"><a xlink:href="GraphQuotient.html#functor_gq_idmap" xlink:title="functor_gq_idmap">
<ellipse fill="#f070d1" stroke="black" cx="481.59" cy="-405" rx="93.68" ry="18"/>
<text text-anchor="middle" x="481.59" y="-401.3" font-family="Times,serif" font-size="14.00">functor_gq_idmap</text>
</a>
</g>
</g>
<!-- GraphQuotient_isequiv_functor_gq&#45;&gt;GraphQuotient_functor_gq_idmap -->
<g id="edge8" class="edge">
<title>GraphQuotient_isequiv_functor_gq&#45;&gt;GraphQuotient_functor_gq_idmap</title>
<path fill="none" stroke="black" d="M444.79,-467.08C450.96,-456.82 458.97,-443.53 465.94,-431.97"/>
<polygon fill="black" stroke="black" points="469.08,-433.53 471.25,-423.16 463.09,-429.92 469.08,-433.53"/>
</g>
<!-- GraphQuotient_functor_gq -->
<g id="node11" class="node">
<title>GraphQuotient_functor_gq</title>
<g id="a_node11"><a xlink:href="GraphQuotient.html#functor_gq" xlink:title="functor_gq">
<ellipse fill="#f070d1" stroke="black" cx="395.59" cy="-333" rx="60.39" ry="18"/>
<text text-anchor="middle" x="395.59" y="-329.3" font-family="Times,serif" font-size="14.00">functor_gq</text>
</a>
</g>
</g>
<!-- GraphQuotient_functor2_gq&#45;&gt;GraphQuotient_functor_gq -->
<g id="edge9" class="edge">
<title>GraphQuotient_functor2_gq&#45;&gt;GraphQuotient_functor_gq</title>
<path fill="none" stroke="black" d="M683.47,-393.44C621.84,-380.72 518.52,-359.38 453.86,-346.03"/>
<polygon fill="black" stroke="black" points="454.33,-342.55 443.82,-343.96 452.91,-349.41 454.33,-342.55"/>
</g>
<!-- GraphQuotient_GraphQuotient_rec_beta_gqglue -->
<g id="node21" class="node">
<title>GraphQuotient_GraphQuotient_rec_beta_gqglue</title>
<g id="a_node21"><a xlink:href="GraphQuotient.html#GraphQuotient_rec_beta_gqglue" xlink:title="GraphQuotient_rec_beta_gqglue">
<ellipse fill="#f070d1" stroke="black" cx="734.59" cy="-333" rx="159.77" ry="18"/>
<text text-anchor="middle" x="734.59" y="-329.3" font-family="Times,serif" font-size="14.00">GraphQuotient_rec_beta_gqglue</text>
</a>
</g>
</g>
<!-- GraphQuotient_functor2_gq&#45;&gt;GraphQuotient_GraphQuotient_rec_beta_gqglue -->
<g id="edge10" class="edge">
<title>GraphQuotient_functor2_gq&#45;&gt;GraphQuotient_GraphQuotient_rec_beta_gqglue</title>
<path fill="none" stroke="black" d="M734.59,-386.7C734.59,-378.98 734.59,-369.71 734.59,-361.11"/>
<polygon fill="black" stroke="black" points="738.09,-361.1 734.59,-351.1 731.09,-361.1 738.09,-361.1"/>
</g>
<!-- GraphQuotient_functor_gq_compose&#45;&gt;GraphQuotient_functor_gq -->
<g id="edge11" class="edge">
<title>GraphQuotient_functor_gq_compose&#45;&gt;GraphQuotient_functor_gq</title>
<path fill="none" stroke="black" d="M220.7,-388.9C257.61,-377.31 308.39,-361.37 345.72,-349.65"/>
<polygon fill="black" stroke="black" points="346.9,-352.95 355.39,-346.62 344.8,-346.27 346.9,-352.95"/>
</g>
<!-- GraphQuotient_functor_gq_compose&#45;&gt;GraphQuotient_GraphQuotient_rec_beta_gqglue -->
<g id="edge12" class="edge">
<title>GraphQuotient_functor_gq_compose&#45;&gt;GraphQuotient_GraphQuotient_rec_beta_gqglue</title>
<path fill="none" stroke="black" d="M254.91,-393.75C351.74,-381.69 513,-361.6 621.51,-348.08"/>
<polygon fill="black" stroke="black" points="622.02,-351.55 631.51,-346.84 621.16,-344.6 622.02,-351.55"/>
</g>
<!-- GraphQuotient_functor_gq_idmap&#45;&gt;GraphQuotient_functor_gq -->
<g id="edge13" class="edge">
<title>GraphQuotient_functor_gq_idmap&#45;&gt;GraphQuotient_functor_gq</title>
<path fill="none" stroke="black" d="M461.21,-387.41C449.88,-378.19 435.63,-366.59 423.3,-356.55"/>
<polygon fill="black" stroke="black" points="425.49,-353.83 415.53,-350.23 421.07,-359.26 425.49,-353.83"/>
</g>
<!-- GraphQuotient_functor_gq_idmap&#45;&gt;GraphQuotient_GraphQuotient_rec_beta_gqglue -->
<g id="edge14" class="edge">
<title>GraphQuotient_functor_gq_idmap&#45;&gt;GraphQuotient_GraphQuotient_rec_beta_gqglue</title>
<path fill="none" stroke="black" d="M532.79,-389.83C571.63,-379.09 625.38,-364.22 667.63,-352.52"/>
<polygon fill="black" stroke="black" points="668.58,-355.89 677.29,-349.85 666.72,-349.15 668.58,-355.89"/>
</g>
<!-- GraphQuotient_GraphQuotient_rec -->
<g id="node22" class="node">
<title>GraphQuotient_GraphQuotient_rec</title>
<g id="a_node22"><a xlink:href="GraphQuotient.html#GraphQuotient_rec" xlink:title="GraphQuotient_rec">
<ellipse fill="#f070d1" stroke="black" cx="565.59" cy="-258" rx="98.58" ry="18"/>
<text text-anchor="middle" x="565.59" y="-254.3" font-family="Times,serif" font-size="14.00">GraphQuotient_rec</text>
</a>
</g>
</g>
<!-- GraphQuotient_functor_gq&#45;&gt;GraphQuotient_GraphQuotient_rec -->
<g id="edge15" class="edge">
<title>GraphQuotient_functor_gq&#45;&gt;GraphQuotient_GraphQuotient_rec</title>
<path fill="none" stroke="black" d="M428.77,-317.75C454.64,-306.64 490.87,-291.09 519.54,-278.77"/>
<polygon fill="black" stroke="black" points="521.15,-281.89 528.95,-274.73 518.38,-275.46 521.15,-281.89"/>
</g>
<!-- GraphQuotient_equiv_gq_flatten -->
<g id="node12" class="node">
<title>GraphQuotient_equiv_gq_flatten</title>
<g id="a_node12"><a xlink:href="GraphQuotient.html#equiv_gq_flatten" xlink:title="equiv_gq_flatten">
<ellipse fill="#f070d1" stroke="black" cx="1164.59" cy="-661" rx="87.18" ry="18"/>
<ellipse fill="none" stroke="black" cx="1164.59" cy="-661" rx="91.18" ry="22"/>
<ellipse fill="none" stroke="black" cx="1164.59" cy="-661" rx="95.18" ry="26"/>
<text text-anchor="middle" x="1164.59" y="-657.3" font-family="Times,serif" font-size="14.00">equiv_gq_flatten</text>
</a>
</g>
</g>
<!-- GraphQuotient_flatten_rec_beta_gqglue -->
<g id="node13" class="node">
<title>GraphQuotient_flatten_rec_beta_gqglue</title>
<g id="a_node13"><a xlink:href="GraphQuotient.html#flatten_rec_beta_gqglue" xlink:title="flatten_rec_beta_gqglue">
<ellipse fill="#f070d1" stroke="black" cx="1036.59" cy="-573" rx="120.78" ry="18"/>
<text text-anchor="middle" x="1036.59" y="-569.3" font-family="Times,serif" font-size="14.00">flatten_rec_beta_gqglue</text>
</a>
</g>
</g>
<!-- GraphQuotient_equiv_gq_flatten&#45;&gt;GraphQuotient_flatten_rec_beta_gqglue -->
<g id="edge16" class="edge">
<title>GraphQuotient_equiv_gq_flatten&#45;&gt;GraphQuotient_flatten_rec_beta_gqglue</title>
<path fill="none" stroke="black" d="M1129.95,-636.73C1111.29,-624.19 1088.37,-608.79 1069.91,-596.39"/>
<polygon fill="black" stroke="black" points="1071.76,-593.42 1061.51,-590.75 1067.86,-599.23 1071.76,-593.42"/>
</g>
<!-- GraphQuotient_flatten_ind -->
<g id="node15" class="node">
<title>GraphQuotient_flatten_ind</title>
<g id="a_node15"><a xlink:href="GraphQuotient.html#flatten_ind" xlink:title="flatten_ind">
<ellipse fill="#f070d1" stroke="black" cx="1319.59" cy="-573" rx="59.59" ry="18"/>
<text text-anchor="middle" x="1319.59" y="-569.3" font-family="Times,serif" font-size="14.00">flatten_ind</text>
</a>
</g>
</g>
<!-- GraphQuotient_equiv_gq_flatten&#45;&gt;GraphQuotient_flatten_ind -->
<g id="edge17" class="edge">
<title>GraphQuotient_equiv_gq_flatten&#45;&gt;GraphQuotient_flatten_ind</title>
<path fill="none" stroke="black" d="M1205.31,-637.4C1229.54,-623.96 1260.02,-607.05 1283.4,-594.08"/>
<polygon fill="black" stroke="black" points="1285.26,-597.05 1292.31,-589.14 1281.86,-590.93 1285.26,-597.05"/>
</g>
<!-- GraphQuotient_flatten_rec -->
<g id="node14" class="node">
<title>GraphQuotient_flatten_rec</title>
<g id="a_node14"><a xlink:href="GraphQuotient.html#flatten_rec" xlink:title="flatten_rec">
<ellipse fill="#f070d1" stroke="black" cx="684.59" cy="-485" rx="59.59" ry="18"/>
<text text-anchor="middle" x="684.59" y="-481.3" font-family="Times,serif" font-size="14.00">flatten_rec</text>
</a>
</g>
</g>
<!-- GraphQuotient_flatten_rec_beta_gqglue&#45;&gt;GraphQuotient_flatten_rec -->
<g id="edge18" class="edge">
<title>GraphQuotient_flatten_rec_beta_gqglue&#45;&gt;GraphQuotient_flatten_rec</title>
<path fill="none" stroke="black" d="M976.48,-557.31C909.94,-541.06 803.61,-515.08 739.32,-499.37"/>
<polygon fill="black" stroke="black" points="739.92,-495.91 729.37,-496.94 738.25,-502.71 739.92,-495.91"/>
</g>
<!-- GraphQuotient_flatten_gqglue -->
<g id="node17" class="node">
<title>GraphQuotient_flatten_gqglue</title>
<g id="a_node17"><a xlink:href="GraphQuotient.html#flatten_gqglue" xlink:title="flatten_gqglue">
<ellipse fill="#f070d1" stroke="black" cx="1319.59" cy="-485" rx="77.19" ry="18"/>
<text text-anchor="middle" x="1319.59" y="-481.3" font-family="Times,serif" font-size="14.00">flatten_gqglue</text>
</a>
</g>
</g>
<!-- GraphQuotient_flatten_rec_beta_gqglue&#45;&gt;GraphQuotient_flatten_gqglue -->
<g id="edge19" class="edge">
<title>GraphQuotient_flatten_rec_beta_gqglue&#45;&gt;GraphQuotient_flatten_gqglue</title>
<path fill="none" stroke="black" d="M1087.18,-556.62C1137.22,-541.42 1213.55,-518.22 1264.95,-502.6"/>
<polygon fill="black" stroke="black" points="1266.01,-505.94 1274.56,-499.68 1263.98,-499.24 1266.01,-505.94"/>
</g>
<!-- GraphQuotient_transport_DGraphQuotient -->
<g id="node19" class="node">
<title>GraphQuotient_transport_DGraphQuotient</title>
<g id="a_node19"><a xlink:href="GraphQuotient.html#transport_DGraphQuotient" xlink:title="transport_DGraphQuotient">
<ellipse fill="#f070d1" stroke="black" cx="1047.59" cy="-405" rx="135.68" ry="18"/>
<text text-anchor="middle" x="1047.59" y="-401.3" font-family="Times,serif" font-size="14.00">transport_DGraphQuotient</text>
</a>
</g>
</g>
<!-- GraphQuotient_flatten_rec&#45;&gt;GraphQuotient_transport_DGraphQuotient -->
<g id="edge20" class="edge">
<title>GraphQuotient_flatten_rec&#45;&gt;GraphQuotient_transport_DGraphQuotient</title>
<path fill="none" stroke="black" d="M731.67,-473.88C791.95,-460.93 897.23,-438.31 969.57,-422.76"/>
<polygon fill="black" stroke="black" points="970.51,-426.14 979.55,-420.62 969.04,-419.3 970.51,-426.14"/>
</g>
<!-- GraphQuotient_flatten_ind&#45;&gt;GraphQuotient_flatten_gqglue -->
<g id="edge21" class="edge">
<title>GraphQuotient_flatten_ind&#45;&gt;GraphQuotient_flatten_gqglue</title>
<path fill="none" stroke="black" d="M1319.59,-554.6C1319.59,-542.75 1319.59,-526.82 1319.59,-513.29"/>
<polygon fill="black" stroke="black" points="1323.09,-513.08 1319.59,-503.08 1316.09,-513.08 1323.09,-513.08"/>
</g>
<!-- GraphQuotient_equiv_dp_dgraphquotient -->
<g id="node16" class="node">
<title>GraphQuotient_equiv_dp_dgraphquotient</title>
<g id="a_node16"><a xlink:href="GraphQuotient.html#equiv_dp_dgraphquotient" xlink:title="equiv_dp_dgraphquotient">
<ellipse fill="#f070d1" stroke="black" cx="989.59" cy="-485" rx="128.87" ry="18"/>
<ellipse fill="none" stroke="black" cx="989.59" cy="-485" rx="132.87" ry="22"/>
<ellipse fill="none" stroke="black" cx="989.59" cy="-485" rx="136.88" ry="26"/>
<text text-anchor="middle" x="989.59" y="-481.3" font-family="Times,serif" font-size="14.00">equiv_dp_dgraphquotient</text>
</a>
</g>
</g>
<!-- GraphQuotient_equiv_dp_dgraphquotient&#45;&gt;GraphQuotient_transport_DGraphQuotient -->
<g id="edge22" class="edge">
<title>GraphQuotient_equiv_dp_dgraphquotient&#45;&gt;GraphQuotient_transport_DGraphQuotient</title>
<path fill="none" stroke="black" d="M1008.26,-458.89C1014.88,-449.98 1022.34,-439.96 1028.96,-431.05"/>
<polygon fill="black" stroke="black" points="1031.84,-433.04 1035,-422.93 1026.22,-428.87 1031.84,-433.04"/>
</g>
<!-- GraphQuotient_flatten_gq -->
<g id="node18" class="node">
<title>GraphQuotient_flatten_gq</title>
<g id="a_node18"><a xlink:href="GraphQuotient.html#flatten_gq" xlink:title="flatten_gq">
<ellipse fill="#f070d1" stroke="black" cx="1347.59" cy="-405" rx="57.39" ry="18"/>
<text text-anchor="middle" x="1347.59" y="-401.3" font-family="Times,serif" font-size="14.00">flatten_gq</text>
</a>
</g>
</g>
<!-- GraphQuotient_flatten_gqglue&#45;&gt;GraphQuotient_flatten_gq -->
<g id="edge23" class="edge">
<title>GraphQuotient_flatten_gqglue&#45;&gt;GraphQuotient_flatten_gq</title>
<path fill="none" stroke="black" d="M1325.8,-466.69C1329.42,-456.62 1334.04,-443.73 1338.11,-432.42"/>
<polygon fill="black" stroke="black" points="1341.4,-433.59 1341.49,-422.99 1334.81,-431.22 1341.4,-433.59"/>
</g>
<!-- GraphQuotient_flatten_gqglue&#45;&gt;GraphQuotient_transport_DGraphQuotient -->
<g id="edge24" class="edge">
<title>GraphQuotient_flatten_gqglue&#45;&gt;GraphQuotient_transport_DGraphQuotient</title>
<path fill="none" stroke="black" d="M1272.83,-470.59C1228.4,-457.85 1161.22,-438.59 1111.79,-424.41"/>
<polygon fill="black" stroke="black" points="1112.73,-421.04 1102.15,-421.65 1110.8,-427.77 1112.73,-421.04"/>
</g>
<!-- GraphQuotient_DGraphQuotient -->
<g id="node20" class="node">
<title>GraphQuotient_DGraphQuotient</title>
<g id="a_node20"><a xlink:href="GraphQuotient.html#DGraphQuotient" xlink:title="DGraphQuotient">
<ellipse fill="#f070d1" stroke="black" cx="1111.59" cy="-333" rx="87.18" ry="18"/>
<text text-anchor="middle" x="1111.59" y="-329.3" font-family="Times,serif" font-size="14.00">DGraphQuotient</text>
</a>
</g>
</g>
<!-- GraphQuotient_flatten_gq&#45;&gt;GraphQuotient_DGraphQuotient -->
<g id="edge25" class="edge">
<title>GraphQuotient_flatten_gq&#45;&gt;GraphQuotient_DGraphQuotient</title>
<path fill="none" stroke="black" d="M1307.55,-392.13C1269.49,-380.83 1211.83,-363.73 1168.9,-351"/>
<polygon fill="black" stroke="black" points="1169.73,-347.6 1159.15,-348.11 1167.74,-354.31 1169.73,-347.6"/>
</g>
<!-- GraphQuotient_transport_DGraphQuotient&#45;&gt;GraphQuotient_DGraphQuotient -->
<g id="edge26" class="edge">
<title>GraphQuotient_transport_DGraphQuotient&#45;&gt;GraphQuotient_DGraphQuotient</title>
<path fill="none" stroke="black" d="M1063.08,-387.05C1070.94,-378.46 1080.63,-367.86 1089.28,-358.4"/>
<polygon fill="black" stroke="black" points="1092.07,-360.53 1096.24,-350.79 1086.91,-355.81 1092.07,-360.53"/>
</g>
<!-- GraphQuotient_transport_DGraphQuotient&#45;&gt;GraphQuotient_GraphQuotient_rec_beta_gqglue -->
<g id="edge27" class="edge">
<title>GraphQuotient_transport_DGraphQuotient&#45;&gt;GraphQuotient_GraphQuotient_rec_beta_gqglue</title>
<path fill="none" stroke="black" d="M981.59,-389.24C932.31,-378.22 864.78,-363.12 812.78,-351.49"/>
<polygon fill="black" stroke="black" points="813.45,-348.05 802.93,-349.28 811.92,-354.88 813.45,-348.05"/>
</g>
<!-- GraphQuotient_DGraphQuotient&#45;&gt;GraphQuotient_GraphQuotient_rec -->
<g id="edge28" class="edge">
<title>GraphQuotient_DGraphQuotient&#45;&gt;GraphQuotient_GraphQuotient_rec</title>
<path fill="none" stroke="black" d="M1033.61,-324.91C994.59,-321.54 946.62,-317.68 903.59,-315 820.56,-309.83 798.5,-321.51 716.59,-307 681.55,-300.79 643.36,-288.6 614.15,-278.06"/>
<polygon fill="black" stroke="black" points="615.2,-274.72 604.61,-274.56 612.79,-281.29 615.2,-274.72"/>
</g>
<!-- GraphQuotient_GraphQuotient_rec_beta_gqglue&#45;&gt;GraphQuotient_GraphQuotient_GraphQuotient_ind_beta_gqglue -->
<g id="edge29" class="edge">
<title>GraphQuotient_GraphQuotient_rec_beta_gqglue&#45;&gt;GraphQuotient_GraphQuotient_GraphQuotient_ind_beta_gqglue</title>
<path fill="none" stroke="black" d="M784.24,-315.89C818.31,-304.84 863.7,-290.11 899.76,-278.41"/>
<polygon fill="black" stroke="black" points="901.24,-281.61 909.67,-275.2 899.08,-274.95 901.24,-281.61"/>
</g>
<!-- GraphQuotient_GraphQuotient_rec_beta_gqglue&#45;&gt;GraphQuotient_GraphQuotient_rec -->
<g id="edge30" class="edge">
<title>GraphQuotient_GraphQuotient_rec_beta_gqglue&#45;&gt;GraphQuotient_GraphQuotient_rec</title>
<path fill="none" stroke="black" d="M696.24,-315.44C671.09,-304.57 638.06,-290.31 611.51,-278.84"/>
<polygon fill="black" stroke="black" points="612.62,-275.5 602.05,-274.75 609.84,-281.93 612.62,-275.5"/>
</g>
<!-- GraphQuotient_GraphQuotient_rec&#45;&gt;GraphQuotient_GraphQuotient_GraphQuotient_ind -->
<g id="edge31" class="edge">
<title>GraphQuotient_GraphQuotient_rec&#45;&gt;GraphQuotient_GraphQuotient_GraphQuotient_ind</title>
<path fill="none" stroke="black" d="M629.08,-244.08C687.66,-232.16 774.6,-214.47 836.14,-201.95"/>
<polygon fill="black" stroke="black" points="837.07,-205.33 846.17,-199.9 835.67,-198.47 837.07,-205.33"/>
</g>
</g>
</svg>
