<?xml version="1.0" encoding="UTF-8" standalone="no"?>
<!DOCTYPE svg PUBLIC "-//W3C//DTD SVG 1.1//EN"
 "http://www.w3.org/Graphics/SVG/1.1/DTD/svg11.dtd">
<!-- Generated by graphviz version 2.43.0 (0)
 -->
<!-- Title: HoTT_Colimits_Colimit Pages: 1 -->
<svg width="2542pt" height="1275pt"
 viewBox="0.00 0.00 2542.00 1275.00" xmlns="http://www.w3.org/2000/svg" xmlns:xlink="http://www.w3.org/1999/xlink">
<g id="graph0" class="graph" transform="scale(1 1) rotate(0) translate(4 1271)">
<title>HoTT_Colimits_Colimit</title>
<polygon fill="white" stroke="transparent" points="-4,4 -4,-1271 2538,-1271 2538,4 -4,4"/>
<g id="clust1" class="cluster">
<title>cluster_Colimit</title>
<polygon fill="#ffffc3" stroke="black" points="9.63,-8 9.63,-1259 2524.37,-1259 2524.37,-8 9.63,-8"/>
<text text-anchor="middle" x="43.63" y="-1243.8" font-family="Times,serif" font-size="14.00">Colimit</text>
</g>
<!-- Colimit_colimit_adjoint -->
<g id="node1" class="node">
<title>Colimit_colimit_adjoint</title>
<g id="a_node1"><a xlink:href="Colimit.html#colimit_adjoint" xlink:title="colimit_adjoint">
<ellipse fill="#f070d1" stroke="black" cx="1565.16" cy="-722" rx="79.11" ry="18"/>
<ellipse fill="none" stroke="black" cx="1565.16" cy="-722" rx="83.1" ry="22"/>
<ellipse fill="none" stroke="black" cx="1565.16" cy="-722" rx="87.09" ry="26"/>
<text text-anchor="middle" x="1565.16" y="-718.3" font-family="Times,serif" font-size="14.00">colimit_adjoint</text>
</a>
</g>
</g>
<!-- Colimit_equiv_colimit_rec -->
<g id="node22" class="node">
<title>Colimit_equiv_colimit_rec</title>
<g id="a_node22"><a xlink:href="Colimit.html#equiv_colimit_rec" xlink:title="equiv_colimit_rec">
<ellipse fill="#f070d1" stroke="black" cx="1565.16" cy="-642" rx="90.98" ry="18"/>
<text text-anchor="middle" x="1565.16" y="-638.3" font-family="Times,serif" font-size="14.00">equiv_colimit_rec</text>
</a>
</g>
</g>
<!-- Colimit_colimit_adjoint&#45;&gt;Colimit_equiv_colimit_rec -->
<g id="edge1" class="edge">
<title>Colimit_colimit_adjoint&#45;&gt;Colimit_equiv_colimit_rec</title>
<path fill="none" stroke="black" d="M1565.16,-695.89C1565.16,-687.84 1565.16,-678.88 1565.16,-670.66"/>
<polygon fill="black" stroke="black" points="1568.66,-670.41 1565.16,-660.41 1561.66,-670.41 1568.66,-670.41"/>
</g>
<!-- Colimit_colimit_unicity -->
<g id="node2" class="node">
<title>Colimit_colimit_unicity</title>
<g id="a_node2"><a xlink:href="Colimit.html#colimit_unicity" xlink:title="colimit_unicity">
<ellipse fill="#f070d1" stroke="black" cx="2264.16" cy="-1202" rx="78.77" ry="18"/>
<ellipse fill="none" stroke="black" cx="2264.16" cy="-1202" rx="82.78" ry="22"/>
<ellipse fill="none" stroke="black" cx="2264.16" cy="-1202" rx="86.79" ry="26"/>
<text text-anchor="middle" x="2264.16" y="-1198.3" font-family="Times,serif" font-size="14.00">colimit_unicity</text>
</a>
</g>
</g>
<!-- Colimit_equiv_functor_colimit -->
<g id="node3" class="node">
<title>Colimit_equiv_functor_colimit</title>
<g id="a_node3"><a xlink:href="Colimit.html#equiv_functor_colimit" xlink:title="equiv_functor_colimit">
<ellipse fill="#f070d1" stroke="black" cx="2264.16" cy="-1122" rx="110.48" ry="18"/>
<text text-anchor="middle" x="2264.16" y="-1118.3" font-family="Times,serif" font-size="14.00">equiv_functor_colimit</text>
</a>
</g>
</g>
<!-- Colimit_colimit_unicity&#45;&gt;Colimit_equiv_functor_colimit -->
<g id="edge2" class="edge">
<title>Colimit_colimit_unicity&#45;&gt;Colimit_equiv_functor_colimit</title>
<path fill="none" stroke="black" d="M2264.16,-1175.89C2264.16,-1167.84 2264.16,-1158.88 2264.16,-1150.66"/>
<polygon fill="black" stroke="black" points="2267.66,-1150.41 2264.16,-1140.41 2260.66,-1150.41 2267.66,-1150.41"/>
</g>
<!-- Colimit_isequiv_functor_colimit -->
<g id="node4" class="node">
<title>Colimit_isequiv_functor_colimit</title>
<g id="a_node4"><a xlink:href="Colimit.html#isequiv_functor_colimit" xlink:title="isequiv_functor_colimit">
<ellipse fill="#f070d1" stroke="black" cx="2264.16" cy="-1050" rx="118.08" ry="18"/>
<text text-anchor="middle" x="2264.16" y="-1046.3" font-family="Times,serif" font-size="14.00">isequiv_functor_colimit</text>
</a>
</g>
</g>
<!-- Colimit_equiv_functor_colimit&#45;&gt;Colimit_isequiv_functor_colimit -->
<g id="edge3" class="edge">
<title>Colimit_equiv_functor_colimit&#45;&gt;Colimit_isequiv_functor_colimit</title>
<path fill="none" stroke="black" d="M2264.16,-1103.7C2264.16,-1095.98 2264.16,-1086.71 2264.16,-1078.11"/>
<polygon fill="black" stroke="black" points="2267.66,-1078.1 2264.16,-1068.1 2260.66,-1078.1 2267.66,-1078.1"/>
</g>
<!-- Colimit_functor_colimit_eisretr -->
<g id="node5" class="node">
<title>Colimit_functor_colimit_eisretr</title>
<g id="a_node5"><a xlink:href="Colimit.html#functor_colimit_eisretr" xlink:title="functor_colimit_eisretr">
<ellipse fill="#f070d1" stroke="black" cx="2375.16" cy="-978" rx="116.18" ry="18"/>
<text text-anchor="middle" x="2375.16" y="-974.3" font-family="Times,serif" font-size="14.00">functor_colimit_eisretr</text>
</a>
</g>
</g>
<!-- Colimit_isequiv_functor_colimit&#45;&gt;Colimit_functor_colimit_eisretr -->
<g id="edge4" class="edge">
<title>Colimit_isequiv_functor_colimit&#45;&gt;Colimit_functor_colimit_eisretr</title>
<path fill="none" stroke="black" d="M2290.47,-1032.41C2305.29,-1023.06 2323.99,-1011.27 2340.05,-1001.14"/>
<polygon fill="black" stroke="black" points="2342.07,-1004.01 2348.66,-995.71 2338.34,-998.09 2342.07,-1004.01"/>
</g>
<!-- Colimit_functor_colimit_eissect -->
<g id="node6" class="node">
<title>Colimit_functor_colimit_eissect</title>
<g id="a_node6"><a xlink:href="Colimit.html#functor_colimit_eissect" xlink:title="functor_colimit_eissect">
<ellipse fill="#f070d1" stroke="black" cx="2073.16" cy="-978" rx="116.98" ry="18"/>
<text text-anchor="middle" x="2073.16" y="-974.3" font-family="Times,serif" font-size="14.00">functor_colimit_eissect</text>
</a>
</g>
</g>
<!-- Colimit_isequiv_functor_colimit&#45;&gt;Colimit_functor_colimit_eissect -->
<g id="edge5" class="edge">
<title>Colimit_isequiv_functor_colimit&#45;&gt;Colimit_functor_colimit_eissect</title>
<path fill="none" stroke="black" d="M2220.82,-1033.12C2192.62,-1022.78 2155.65,-1009.23 2125.77,-998.28"/>
<polygon fill="black" stroke="black" points="2126.93,-994.98 2116.33,-994.82 2124.52,-1001.55 2126.93,-994.98"/>
</g>
<!-- Colimit_functor_colimit -->
<g id="node11" class="node">
<title>Colimit_functor_colimit</title>
<g id="a_node11"><a xlink:href="Colimit.html#functor_colimit" xlink:title="functor_colimit">
<ellipse fill="#f070d1" stroke="black" cx="2093.16" cy="-898" rx="80.69" ry="18"/>
<text text-anchor="middle" x="2093.16" y="-894.3" font-family="Times,serif" font-size="14.00">functor_colimit</text>
</a>
</g>
</g>
<!-- Colimit_functor_colimit_eisretr&#45;&gt;Colimit_functor_colimit -->
<g id="edge6" class="edge">
<title>Colimit_functor_colimit_eisretr&#45;&gt;Colimit_functor_colimit</title>
<path fill="none" stroke="black" d="M2321.12,-962.05C2272.55,-948.62 2201.37,-928.93 2151.51,-915.14"/>
<polygon fill="black" stroke="black" points="2152.41,-911.76 2141.84,-912.46 2150.54,-918.5 2152.41,-911.76"/>
</g>
<!-- Colimit_functor_colimit_eissect&#45;&gt;Colimit_functor_colimit -->
<g id="edge7" class="edge">
<title>Colimit_functor_colimit_eissect&#45;&gt;Colimit_functor_colimit</title>
<path fill="none" stroke="black" d="M2077.6,-959.69C2080.16,-949.72 2083.42,-936.99 2086.3,-925.76"/>
<polygon fill="black" stroke="black" points="2089.71,-926.55 2088.81,-915.99 2082.93,-924.81 2089.71,-926.55"/>
</g>
<!-- Colimit_functor_colimit_compose -->
<g id="node7" class="node">
<title>Colimit_functor_colimit_compose</title>
<g id="a_node7"><a xlink:href="Colimit.html#functor_colimit_compose" xlink:title="functor_colimit_compose">
<ellipse fill="#f070d1" stroke="black" cx="1756.16" cy="-1202" rx="125.38" ry="18"/>
<ellipse fill="none" stroke="black" cx="1756.16" cy="-1202" rx="129.38" ry="22"/>
<ellipse fill="none" stroke="black" cx="1756.16" cy="-1202" rx="133.38" ry="26"/>
<text text-anchor="middle" x="1756.16" y="-1198.3" font-family="Times,serif" font-size="14.00">functor_colimit_compose</text>
</a>
</g>
</g>
<!-- Colimit_postcompose_functor_colimit_compose -->
<g id="node8" class="node">
<title>Colimit_postcompose_functor_colimit_compose</title>
<g id="a_node8"><a xlink:href="Colimit.html#postcompose_functor_colimit_compose" xlink:title="postcompose_functor_colimit_compose">
<ellipse fill="#f070d1" stroke="black" cx="1756.16" cy="-1122" rx="190.37" ry="18"/>
<text text-anchor="middle" x="1756.16" y="-1118.3" font-family="Times,serif" font-size="14.00">postcompose_functor_colimit_compose</text>
</a>
</g>
</g>
<!-- Colimit_functor_colimit_compose&#45;&gt;Colimit_postcompose_functor_colimit_compose -->
<g id="edge8" class="edge">
<title>Colimit_functor_colimit_compose&#45;&gt;Colimit_postcompose_functor_colimit_compose</title>
<path fill="none" stroke="black" d="M1756.16,-1175.89C1756.16,-1167.84 1756.16,-1158.88 1756.16,-1150.66"/>
<polygon fill="black" stroke="black" points="1759.66,-1150.41 1756.16,-1140.41 1752.66,-1150.41 1759.66,-1150.41"/>
</g>
<!-- Colimit_cocone_precompose_postcompose_comp -->
<g id="node9" class="node">
<title>Colimit_cocone_precompose_postcompose_comp</title>
<g id="a_node9"><a xlink:href="Colimit.html#cocone_precompose_postcompose_comp" xlink:title="cocone_precompose_postcompose_comp">
<ellipse fill="#f070d1" stroke="black" cx="1756.16" cy="-1050" rx="196.87" ry="18"/>
<text text-anchor="middle" x="1756.16" y="-1046.3" font-family="Times,serif" font-size="14.00">cocone_precompose_postcompose_comp</text>
</a>
</g>
</g>
<!-- Colimit_postcompose_functor_colimit_compose&#45;&gt;Colimit_cocone_precompose_postcompose_comp -->
<g id="edge9" class="edge">
<title>Colimit_postcompose_functor_colimit_compose&#45;&gt;Colimit_cocone_precompose_postcompose_comp</title>
<path fill="none" stroke="black" d="M1756.16,-1103.7C1756.16,-1095.98 1756.16,-1086.71 1756.16,-1078.11"/>
<polygon fill="black" stroke="black" points="1759.66,-1078.1 1756.16,-1068.1 1752.66,-1078.1 1759.66,-1078.1"/>
</g>
<!-- Colimit_functor_colimit_commute -->
<g id="node10" class="node">
<title>Colimit_functor_colimit_commute</title>
<g id="a_node10"><a xlink:href="Colimit.html#functor_colimit_commute" xlink:title="functor_colimit_commute">
<ellipse fill="#f070d1" stroke="black" cx="1756.16" cy="-978" rx="128.08" ry="18"/>
<text text-anchor="middle" x="1756.16" y="-974.3" font-family="Times,serif" font-size="14.00">functor_colimit_commute</text>
</a>
</g>
</g>
<!-- Colimit_cocone_precompose_postcompose_comp&#45;&gt;Colimit_functor_colimit_commute -->
<g id="edge10" class="edge">
<title>Colimit_cocone_precompose_postcompose_comp&#45;&gt;Colimit_functor_colimit_commute</title>
<path fill="none" stroke="black" d="M1756.16,-1031.7C1756.16,-1023.98 1756.16,-1014.71 1756.16,-1006.11"/>
<polygon fill="black" stroke="black" points="1759.66,-1006.1 1756.16,-996.1 1752.66,-1006.1 1759.66,-1006.1"/>
</g>
<!-- Colimit_functor_colimit_commute&#45;&gt;Colimit_functor_colimit -->
<g id="edge11" class="edge">
<title>Colimit_functor_colimit_commute&#45;&gt;Colimit_functor_colimit</title>
<path fill="none" stroke="black" d="M1819.55,-962.33C1879.6,-948.43 1969.31,-927.67 2029.47,-913.74"/>
<polygon fill="black" stroke="black" points="2030.28,-917.15 2039.23,-911.48 2028.7,-910.33 2030.28,-917.15"/>
</g>
<!-- Colimit_cocone_postcompose_inv -->
<g id="node35" class="node">
<title>Colimit_cocone_postcompose_inv</title>
<g id="a_node35"><a xlink:href="Colimit.html#cocone_postcompose_inv" xlink:title="cocone_postcompose_inv">
<ellipse fill="#f070d1" stroke="black" cx="2114.16" cy="-810" rx="126.18" ry="18"/>
<text text-anchor="middle" x="2114.16" y="-806.3" font-family="Times,serif" font-size="14.00">cocone_postcompose_inv</text>
</a>
</g>
</g>
<!-- Colimit_functor_colimit&#45;&gt;Colimit_cocone_postcompose_inv -->
<g id="edge12" class="edge">
<title>Colimit_functor_colimit&#45;&gt;Colimit_cocone_postcompose_inv</title>
<path fill="none" stroke="black" d="M2097.31,-880.01C2100.23,-868.07 2104.19,-851.85 2107.54,-838.14"/>
<polygon fill="black" stroke="black" points="2110.98,-838.79 2109.95,-828.25 2104.18,-837.13 2110.98,-838.79"/>
</g>
<!-- Colimit_iscolimit_postcompose_equiv -->
<g id="node12" class="node">
<title>Colimit_iscolimit_postcompose_equiv</title>
<g id="a_node12"><a xlink:href="Colimit.html#iscolimit_postcompose_equiv" xlink:title="iscolimit_postcompose_equiv">
<ellipse fill="#f070d1" stroke="black" cx="1223.16" cy="-810" rx="144.88" ry="18"/>
<ellipse fill="none" stroke="black" cx="1223.16" cy="-810" rx="148.88" ry="22"/>
<ellipse fill="none" stroke="black" cx="1223.16" cy="-810" rx="152.87" ry="26"/>
<text text-anchor="middle" x="1223.16" y="-806.3" font-family="Times,serif" font-size="14.00">iscolimit_postcompose_equiv</text>
</a>
</g>
</g>
<!-- Colimit_Build_IsColimit -->
<g id="node42" class="node">
<title>Colimit_Build_IsColimit</title>
<g id="a_node42"><a xlink:href="Colimit.html#Build_IsColimit" xlink:title="Build_IsColimit">
<ellipse fill="#7faaff" stroke="black" cx="687.16" cy="-722" rx="81.49" ry="18"/>
<text text-anchor="middle" x="687.16" y="-718.3" font-family="Times,serif" font-size="14.00">Build_IsColimit</text>
</a>
</g>
</g>
<!-- Colimit_iscolimit_postcompose_equiv&#45;&gt;Colimit_Build_IsColimit -->
<g id="edge13" class="edge">
<title>Colimit_iscolimit_postcompose_equiv&#45;&gt;Colimit_Build_IsColimit</title>
<path fill="none" stroke="black" d="M1114.69,-791.6C1009.43,-774.71 852.55,-749.54 760.98,-734.84"/>
<polygon fill="black" stroke="black" points="761.39,-731.36 750.96,-733.24 760.28,-738.28 761.39,-731.36"/>
</g>
<!-- Colimit_IsColimit -->
<g id="node43" class="node">
<title>Colimit_IsColimit</title>
<g id="a_node43"><a xlink:href="Colimit.html#IsColimit" xlink:title="IsColimit">
<ellipse fill="#e2cdfa" stroke="black" cx="1223.16" cy="-722" rx="52.79" ry="18"/>
<text text-anchor="middle" x="1223.16" y="-718.3" font-family="Times,serif" font-size="14.00">IsColimit</text>
</a>
</g>
</g>
<!-- Colimit_iscolimit_postcompose_equiv&#45;&gt;Colimit_IsColimit -->
<g id="edge14" class="edge">
<title>Colimit_iscolimit_postcompose_equiv&#45;&gt;Colimit_IsColimit</title>
<path fill="none" stroke="black" d="M1223.16,-783.66C1223.16,-773.11 1223.16,-760.84 1223.16,-750.1"/>
<polygon fill="black" stroke="black" points="1226.66,-750 1223.16,-740 1219.66,-750 1226.66,-750"/>
</g>
<!-- Colimit_iscolimit_precompose_equiv -->
<g id="node13" class="node">
<title>Colimit_iscolimit_precompose_equiv</title>
<g id="a_node13"><a xlink:href="Colimit.html#iscolimit_precompose_equiv" xlink:title="iscolimit_precompose_equiv">
<ellipse fill="#f070d1" stroke="black" cx="839.16" cy="-810" rx="140.28" ry="18"/>
<ellipse fill="none" stroke="black" cx="839.16" cy="-810" rx="144.28" ry="22"/>
<ellipse fill="none" stroke="black" cx="839.16" cy="-810" rx="148.28" ry="26"/>
<text text-anchor="middle" x="839.16" y="-806.3" font-family="Times,serif" font-size="14.00">iscolimit_precompose_equiv</text>
</a>
</g>
</g>
<!-- Colimit_iscolimit_precompose_equiv&#45;&gt;Colimit_Build_IsColimit -->
<g id="edge15" class="edge">
<title>Colimit_iscolimit_precompose_equiv&#45;&gt;Colimit_Build_IsColimit</title>
<path fill="none" stroke="black" d="M796.82,-785.04C773.97,-772.11 746.03,-756.31 724.07,-743.88"/>
<polygon fill="black" stroke="black" points="725.79,-740.83 715.36,-738.96 722.34,-746.93 725.79,-740.83"/>
</g>
<!-- Colimit_iscolimit_precompose_equiv&#45;&gt;Colimit_IsColimit -->
<g id="edge16" class="edge">
<title>Colimit_iscolimit_precompose_equiv&#45;&gt;Colimit_IsColimit</title>
<path fill="none" stroke="black" d="M928.22,-789.05C1003.25,-772.25 1108.06,-748.78 1170.43,-734.81"/>
<polygon fill="black" stroke="black" points="1171.45,-738.17 1180.44,-732.57 1169.92,-731.34 1171.45,-738.17"/>
</g>
<!-- Colimit_functor_Colimit_half_compose -->
<g id="node14" class="node">
<title>Colimit_functor_Colimit_half_compose</title>
<g id="a_node14"><a xlink:href="Colimit.html#functor_Colimit_half_compose" xlink:title="functor_Colimit_half_compose">
<ellipse fill="#f070d1" stroke="black" cx="2211.16" cy="-562" rx="149.47" ry="18"/>
<ellipse fill="none" stroke="black" cx="2211.16" cy="-562" rx="153.47" ry="22"/>
<ellipse fill="none" stroke="black" cx="2211.16" cy="-562" rx="157.47" ry="26"/>
<text text-anchor="middle" x="2211.16" y="-558.3" font-family="Times,serif" font-size="14.00">functor_Colimit_half_compose</text>
</a>
</g>
</g>
<!-- Colimit_functor_Colimit -->
<g id="node16" class="node">
<title>Colimit_functor_Colimit</title>
<g id="a_node16"><a xlink:href="Colimit.html#functor_Colimit" xlink:title="functor_Colimit">
<ellipse fill="#f070d1" stroke="black" cx="1974.16" cy="-482" rx="82.59" ry="18"/>
<text text-anchor="middle" x="1974.16" y="-478.3" font-family="Times,serif" font-size="14.00">functor_Colimit</text>
</a>
</g>
</g>
<!-- Colimit_functor_Colimit_half_compose&#45;&gt;Colimit_functor_Colimit -->
<g id="edge17" class="edge">
<title>Colimit_functor_Colimit_half_compose&#45;&gt;Colimit_functor_Colimit</title>
<path fill="none" stroke="black" d="M2142.93,-538.54C2106.21,-526.46 2061.59,-511.78 2027.46,-500.54"/>
<polygon fill="black" stroke="black" points="2028.27,-497.12 2017.67,-497.32 2026.08,-503.77 2028.27,-497.12"/>
</g>
<!-- Colimit_functor_Colimit_half_beta_colimp -->
<g id="node18" class="node">
<title>Colimit_functor_Colimit_half_beta_colimp</title>
<g id="a_node18"><a xlink:href="Colimit.html#functor_Colimit_half_beta_colimp" xlink:title="functor_Colimit_half_beta_colimp">
<ellipse fill="#f070d1" stroke="black" cx="2293.16" cy="-482" rx="164.37" ry="18"/>
<text text-anchor="middle" x="2293.16" y="-478.3" font-family="Times,serif" font-size="14.00">functor_Colimit_half_beta_colimp</text>
</a>
</g>
</g>
<!-- Colimit_functor_Colimit_half_compose&#45;&gt;Colimit_functor_Colimit_half_beta_colimp -->
<g id="edge18" class="edge">
<title>Colimit_functor_Colimit_half_compose&#45;&gt;Colimit_functor_Colimit_half_beta_colimp</title>
<path fill="none" stroke="black" d="M2237.11,-536.32C2246.88,-527.02 2257.98,-516.46 2267.71,-507.21"/>
<polygon fill="black" stroke="black" points="2270.33,-509.55 2275.17,-500.12 2265.51,-504.47 2270.33,-509.55"/>
</g>
<!-- Colimit_Colimit_rec_homotopy -->
<g id="node25" class="node">
<title>Colimit_Colimit_rec_homotopy</title>
<g id="a_node25"><a xlink:href="Colimit.html#Colimit_rec_homotopy" xlink:title="Colimit_rec_homotopy">
<ellipse fill="#f070d1" stroke="black" cx="1716.16" cy="-482" rx="113.98" ry="18"/>
<text text-anchor="middle" x="1716.16" y="-478.3" font-family="Times,serif" font-size="14.00">Colimit_rec_homotopy</text>
</a>
</g>
</g>
<!-- Colimit_functor_Colimit_half_compose&#45;&gt;Colimit_Colimit_rec_homotopy -->
<g id="edge19" class="edge">
<title>Colimit_functor_Colimit_half_compose&#45;&gt;Colimit_Colimit_rec_homotopy</title>
<path fill="none" stroke="black" d="M2100.07,-543.5C2010.6,-529.4 1886.53,-509.85 1803.92,-496.83"/>
<polygon fill="black" stroke="black" points="1804.22,-493.33 1793.8,-495.23 1803.14,-500.25 1804.22,-493.33"/>
</g>
<!-- Colimit_functor_Colimit_homotopy -->
<g id="node15" class="node">
<title>Colimit_functor_Colimit_homotopy</title>
<g id="a_node15"><a xlink:href="Colimit.html#functor_Colimit_homotopy" xlink:title="functor_Colimit_homotopy">
<ellipse fill="#f070d1" stroke="black" cx="2162.16" cy="-722" rx="132.67" ry="18"/>
<ellipse fill="none" stroke="black" cx="2162.16" cy="-722" rx="136.67" ry="22"/>
<ellipse fill="none" stroke="black" cx="2162.16" cy="-722" rx="140.68" ry="26"/>
<text text-anchor="middle" x="2162.16" y="-718.3" font-family="Times,serif" font-size="14.00">functor_Colimit_homotopy</text>
</a>
</g>
</g>
<!-- Colimit_functor_Colimit_homotopy&#45;&gt;Colimit_functor_Colimit -->
<g id="edge20" class="edge">
<title>Colimit_functor_Colimit_homotopy&#45;&gt;Colimit_functor_Colimit</title>
<path fill="none" stroke="black" d="M2099.78,-698.55C2080.28,-689.09 2060,-676.39 2045.16,-660 2005.72,-616.44 1986.84,-548.21 1978.97,-510.45"/>
<polygon fill="black" stroke="black" points="1982.32,-509.34 1976.95,-500.21 1975.45,-510.7 1982.32,-509.34"/>
</g>
<!-- Colimit_functor_Colimit_half_homotopy -->
<g id="node17" class="node">
<title>Colimit_functor_Colimit_half_homotopy</title>
<g id="a_node17"><a xlink:href="Colimit.html#functor_Colimit_half_homotopy" xlink:title="functor_Colimit_half_homotopy">
<ellipse fill="#f070d1" stroke="black" cx="2209.16" cy="-642" rx="154.87" ry="18"/>
<text text-anchor="middle" x="2209.16" y="-638.3" font-family="Times,serif" font-size="14.00">functor_Colimit_half_homotopy</text>
</a>
</g>
</g>
<!-- Colimit_functor_Colimit_homotopy&#45;&gt;Colimit_functor_Colimit_half_homotopy -->
<g id="edge21" class="edge">
<title>Colimit_functor_Colimit_homotopy&#45;&gt;Colimit_functor_Colimit_half_homotopy</title>
<path fill="none" stroke="black" d="M2177.29,-695.89C2182.47,-687.3 2188.27,-677.67 2193.49,-669.01"/>
<polygon fill="black" stroke="black" points="2196.51,-670.78 2198.67,-660.41 2190.51,-667.17 2196.51,-670.78"/>
</g>
<!-- Colimit_functor_Colimit_half -->
<g id="node19" class="node">
<title>Colimit_functor_Colimit_half</title>
<g id="a_node19"><a xlink:href="Colimit.html#functor_Colimit_half" xlink:title="functor_Colimit_half">
<ellipse fill="#f070d1" stroke="black" cx="2293.16" cy="-410" rx="104.78" ry="18"/>
<text text-anchor="middle" x="2293.16" y="-406.3" font-family="Times,serif" font-size="14.00">functor_Colimit_half</text>
</a>
</g>
</g>
<!-- Colimit_functor_Colimit&#45;&gt;Colimit_functor_Colimit_half -->
<g id="edge22" class="edge">
<title>Colimit_functor_Colimit&#45;&gt;Colimit_functor_Colimit_half</title>
<path fill="none" stroke="black" d="M2030.09,-468.73C2083.3,-457.05 2163.6,-439.43 2221.48,-426.73"/>
<polygon fill="black" stroke="black" points="2222.28,-430.14 2231.29,-424.58 2220.78,-423.3 2222.28,-430.14"/>
</g>
<!-- Colimit_cocone_colimit -->
<g id="node26" class="node">
<title>Colimit_cocone_colimit</title>
<g id="a_node26"><a xlink:href="Colimit.html#cocone_colimit" xlink:title="cocone_colimit">
<ellipse fill="#f070d1" stroke="black" cx="1732.16" cy="-410" rx="78.79" ry="18"/>
<text text-anchor="middle" x="1732.16" y="-406.3" font-family="Times,serif" font-size="14.00">cocone_colimit</text>
</a>
</g>
</g>
<!-- Colimit_functor_Colimit&#45;&gt;Colimit_cocone_colimit -->
<g id="edge23" class="edge">
<title>Colimit_functor_Colimit&#45;&gt;Colimit_cocone_colimit</title>
<path fill="none" stroke="black" d="M1926.64,-467.25C1887.14,-455.83 1830.81,-439.54 1788.94,-427.42"/>
<polygon fill="black" stroke="black" points="1789.74,-424.01 1779.16,-424.6 1787.8,-430.74 1789.74,-424.01"/>
</g>
<!-- Colimit_functor_Colimit_half_homotopy&#45;&gt;Colimit_functor_Colimit_half -->
<g id="edge24" class="edge">
<title>Colimit_functor_Colimit_half_homotopy&#45;&gt;Colimit_functor_Colimit_half</title>
<path fill="none" stroke="black" d="M2284.35,-626.21C2348.81,-608.77 2435.92,-572.44 2466.16,-500 2472.33,-485.24 2475.68,-476.86 2466.16,-464 2449.61,-441.62 2423.79,-428.38 2397.1,-420.64"/>
<polygon fill="black" stroke="black" points="2397.8,-417.21 2387.24,-418.03 2396.01,-423.97 2397.8,-417.21"/>
</g>
<!-- Colimit_Colimit_rec_homotopy_ -->
<g id="node24" class="node">
<title>Colimit_Colimit_rec_homotopy_</title>
<g id="a_node24"><a xlink:href="Colimit.html#Colimit_rec_homotopy'" xlink:title="Colimit_rec_homotopy&#39;">
<ellipse fill="#f070d1" stroke="black" cx="1837.16" cy="-562" rx="116.18" ry="18"/>
<text text-anchor="middle" x="1837.16" y="-558.3" font-family="Times,serif" font-size="14.00">Colimit_rec_homotopy&#39;</text>
</a>
</g>
</g>
<!-- Colimit_functor_Colimit_half_homotopy&#45;&gt;Colimit_Colimit_rec_homotopy_ -->
<g id="edge25" class="edge">
<title>Colimit_functor_Colimit_half_homotopy&#45;&gt;Colimit_Colimit_rec_homotopy_</title>
<path fill="none" stroke="black" d="M2137.44,-625.96C2073.07,-612.47 1978.9,-592.72 1913.24,-578.95"/>
<polygon fill="black" stroke="black" points="1913.87,-575.51 1903.36,-576.88 1912.43,-582.36 1913.87,-575.51"/>
</g>
<!-- Colimit_functor_Colimit_half_beta_colimp&#45;&gt;Colimit_functor_Colimit_half -->
<g id="edge26" class="edge">
<title>Colimit_functor_Colimit_half_beta_colimp&#45;&gt;Colimit_functor_Colimit_half</title>
<path fill="none" stroke="black" d="M2293.16,-463.7C2293.16,-455.98 2293.16,-446.71 2293.16,-438.11"/>
<polygon fill="black" stroke="black" points="2296.66,-438.1 2293.16,-428.1 2289.66,-438.1 2296.66,-438.1"/>
</g>
<!-- Colimit_Colimit_rec_beta_colimp -->
<g id="node27" class="node">
<title>Colimit_Colimit_rec_beta_colimp</title>
<g id="a_node27"><a xlink:href="Colimit.html#Colimit_rec_beta_colimp" xlink:title="Colimit_rec_beta_colimp">
<ellipse fill="#f070d1" stroke="black" cx="1997.16" cy="-410" rx="123.48" ry="18"/>
<text text-anchor="middle" x="1997.16" y="-406.3" font-family="Times,serif" font-size="14.00">Colimit_rec_beta_colimp</text>
</a>
</g>
</g>
<!-- Colimit_functor_Colimit_half_beta_colimp&#45;&gt;Colimit_Colimit_rec_beta_colimp -->
<g id="edge27" class="edge">
<title>Colimit_functor_Colimit_half_beta_colimp&#45;&gt;Colimit_Colimit_rec_beta_colimp</title>
<path fill="none" stroke="black" d="M2227.47,-465.46C2180.38,-454.33 2117,-439.34 2068.65,-427.91"/>
<polygon fill="black" stroke="black" points="2069.42,-424.49 2058.88,-425.6 2067.8,-431.3 2069.42,-424.49"/>
</g>
<!-- Colimit_Colimit_rec -->
<g id="node28" class="node">
<title>Colimit_Colimit_rec</title>
<g id="a_node28"><a xlink:href="Colimit.html#Colimit_rec" xlink:title="Colimit_rec">
<ellipse fill="#f070d1" stroke="black" cx="2220.16" cy="-338" rx="63.89" ry="18"/>
<text text-anchor="middle" x="2220.16" y="-334.3" font-family="Times,serif" font-size="14.00">Colimit_rec</text>
</a>
</g>
</g>
<!-- Colimit_functor_Colimit_half&#45;&gt;Colimit_Colimit_rec -->
<g id="edge28" class="edge">
<title>Colimit_functor_Colimit_half&#45;&gt;Colimit_Colimit_rec</title>
<path fill="none" stroke="black" d="M2275.49,-392.05C2266.35,-383.28 2255.03,-372.43 2245.02,-362.83"/>
<polygon fill="black" stroke="black" points="2247.31,-360.18 2237.67,-355.79 2242.47,-365.24 2247.31,-360.18"/>
</g>
<!-- Colimit_iscolimit_colimit -->
<g id="node20" class="node">
<title>Colimit_iscolimit_colimit</title>
<g id="a_node20"><a xlink:href="Colimit.html#iscolimit_colimit" xlink:title="iscolimit_colimit">
<ellipse fill="#f070d1" stroke="black" cx="1826.16" cy="-810" rx="86.39" ry="18"/>
<ellipse fill="none" stroke="black" cx="1826.16" cy="-810" rx="90.39" ry="22"/>
<ellipse fill="none" stroke="black" cx="1826.16" cy="-810" rx="94.38" ry="26"/>
<text text-anchor="middle" x="1826.16" y="-806.3" font-family="Times,serif" font-size="14.00">iscolimit_colimit</text>
</a>
</g>
</g>
<!-- Colimit_unicocone_colimit -->
<g id="node21" class="node">
<title>Colimit_unicocone_colimit</title>
<g id="a_node21"><a xlink:href="Colimit.html#unicocone_colimit" xlink:title="unicocone_colimit">
<ellipse fill="#f070d1" stroke="black" cx="1810.16" cy="-722" rx="92.88" ry="18"/>
<text text-anchor="middle" x="1810.16" y="-718.3" font-family="Times,serif" font-size="14.00">unicocone_colimit</text>
</a>
</g>
</g>
<!-- Colimit_iscolimit_colimit&#45;&gt;Colimit_unicocone_colimit -->
<g id="edge29" class="edge">
<title>Colimit_iscolimit_colimit&#45;&gt;Colimit_unicocone_colimit</title>
<path fill="none" stroke="black" d="M1821.45,-783.66C1819.49,-773.11 1817.2,-760.84 1815.21,-750.1"/>
<polygon fill="black" stroke="black" points="1818.6,-749.19 1813.33,-740 1811.71,-750.48 1818.6,-749.19"/>
</g>
<!-- Colimit_iscolimit_colimit&#45;&gt;Colimit_Build_IsColimit -->
<g id="edge30" class="edge">
<title>Colimit_iscolimit_colimit&#45;&gt;Colimit_Build_IsColimit</title>
<path fill="none" stroke="black" d="M1749.95,-794.54C1726.95,-790.61 1701.59,-786.69 1678.16,-784 1589.88,-773.86 1000.84,-740.48 775.04,-727.87"/>
<polygon fill="black" stroke="black" points="775.07,-724.37 764.89,-727.31 774.68,-731.36 775.07,-724.37"/>
</g>
<!-- Colimit_iscolimit_colimit&#45;&gt;Colimit_IsColimit -->
<g id="edge31" class="edge">
<title>Colimit_iscolimit_colimit&#45;&gt;Colimit_IsColimit</title>
<path fill="none" stroke="black" d="M1747.9,-795.27C1725.41,-791.46 1700.84,-787.43 1678.16,-784 1536.18,-762.5 1368.67,-741.05 1281.9,-730.22"/>
<polygon fill="black" stroke="black" points="1282.08,-726.72 1271.72,-728.96 1281.21,-733.67 1282.08,-726.72"/>
</g>
<!-- Colimit_unicocone_colimit&#45;&gt;Colimit_equiv_colimit_rec -->
<g id="edge32" class="edge">
<title>Colimit_unicocone_colimit&#45;&gt;Colimit_equiv_colimit_rec</title>
<path fill="none" stroke="black" d="M1764.08,-706.33C1723.36,-693.36 1663.88,-674.43 1620.57,-660.64"/>
<polygon fill="black" stroke="black" points="1621.63,-657.3 1611.04,-657.61 1619.51,-663.97 1621.63,-657.3"/>
</g>
<!-- Colimit_isequiv_colimit_rec -->
<g id="node23" class="node">
<title>Colimit_isequiv_colimit_rec</title>
<g id="a_node23"><a xlink:href="Colimit.html#isequiv_colimit_rec" xlink:title="isequiv_colimit_rec">
<ellipse fill="#f070d1" stroke="black" cx="1556.16" cy="-562" rx="98.58" ry="18"/>
<text text-anchor="middle" x="1556.16" y="-558.3" font-family="Times,serif" font-size="14.00">isequiv_colimit_rec</text>
</a>
</g>
</g>
<!-- Colimit_equiv_colimit_rec&#45;&gt;Colimit_isequiv_colimit_rec -->
<g id="edge33" class="edge">
<title>Colimit_equiv_colimit_rec&#45;&gt;Colimit_isequiv_colimit_rec</title>
<path fill="none" stroke="black" d="M1563.17,-623.69C1562.03,-613.89 1560.6,-601.42 1559.32,-590.33"/>
<polygon fill="black" stroke="black" points="1562.78,-589.8 1558.15,-580.26 1555.82,-590.6 1562.78,-589.8"/>
</g>
<!-- Colimit_isequiv_colimit_rec&#45;&gt;Colimit_Colimit_rec_homotopy -->
<g id="edge34" class="edge">
<title>Colimit_isequiv_colimit_rec&#45;&gt;Colimit_Colimit_rec_homotopy</title>
<path fill="none" stroke="black" d="M1589.31,-544.84C1613.8,-532.9 1647.32,-516.56 1673.75,-503.68"/>
<polygon fill="black" stroke="black" points="1675.32,-506.8 1682.78,-499.27 1672.26,-500.51 1675.32,-506.8"/>
</g>
<!-- Colimit_isequiv_colimit_rec&#45;&gt;Colimit_cocone_colimit -->
<g id="edge35" class="edge">
<title>Colimit_isequiv_colimit_rec&#45;&gt;Colimit_cocone_colimit</title>
<path fill="none" stroke="black" d="M1558.36,-543.98C1561.97,-522.59 1571.11,-486.05 1593.16,-464 1612.11,-445.06 1638.52,-432.76 1663.24,-424.84"/>
<polygon fill="black" stroke="black" points="1664.41,-428.15 1672.97,-421.91 1662.39,-421.44 1664.41,-428.15"/>
</g>
<!-- Colimit_Colimit_rec_homotopy_&#45;&gt;Colimit_Colimit_rec_homotopy -->
<g id="edge36" class="edge">
<title>Colimit_Colimit_rec_homotopy_&#45;&gt;Colimit_Colimit_rec_homotopy</title>
<path fill="none" stroke="black" d="M1811.2,-544.27C1793.5,-532.85 1769.86,-517.62 1750.59,-505.19"/>
<polygon fill="black" stroke="black" points="1752.38,-502.18 1742.08,-499.71 1748.59,-508.07 1752.38,-502.18"/>
</g>
<!-- Colimit_Colimit_rec_homotopy&#45;&gt;Colimit_Colimit_rec_beta_colimp -->
<g id="edge37" class="edge">
<title>Colimit_Colimit_rec_homotopy&#45;&gt;Colimit_Colimit_rec_beta_colimp</title>
<path fill="none" stroke="black" d="M1774.39,-466.5C1818.96,-455.39 1880.59,-440.04 1927.73,-428.3"/>
<polygon fill="black" stroke="black" points="1928.7,-431.66 1937.56,-425.85 1927.01,-424.87 1928.7,-431.66"/>
</g>
<!-- Colimit_colimp -->
<g id="node32" class="node">
<title>Colimit_colimp</title>
<g id="a_node32"><a xlink:href="Colimit.html#colimp" xlink:title="colimp">
<ellipse fill="#f070d1" stroke="black" cx="1755.16" cy="-178" rx="41.69" ry="18"/>
<text text-anchor="middle" x="1755.16" y="-174.3" font-family="Times,serif" font-size="14.00">colimp</text>
</a>
</g>
</g>
<!-- Colimit_cocone_colimit&#45;&gt;Colimit_colimp -->
<g id="edge38" class="edge">
<title>Colimit_cocone_colimit&#45;&gt;Colimit_colimp</title>
<path fill="none" stroke="black" d="M1733.89,-391.71C1737.86,-352.07 1747.63,-254.36 1752.42,-206.42"/>
<polygon fill="black" stroke="black" points="1755.93,-206.47 1753.45,-196.17 1748.97,-205.78 1755.93,-206.47"/>
</g>
<!-- Colimit_Colimit_rec_beta_colimp&#45;&gt;Colimit_Colimit_rec -->
<g id="edge39" class="edge">
<title>Colimit_Colimit_rec_beta_colimp&#45;&gt;Colimit_Colimit_rec</title>
<path fill="none" stroke="black" d="M2046.65,-393.46C2083.01,-382.05 2132.27,-366.59 2169.01,-355.06"/>
<polygon fill="black" stroke="black" points="2170.53,-358.25 2179.03,-351.91 2168.44,-351.57 2170.53,-358.25"/>
</g>
<!-- Colimit_Colimit_ind_beta_colimp -->
<g id="node29" class="node">
<title>Colimit_Colimit_ind_beta_colimp</title>
<g id="a_node29"><a xlink:href="Colimit.html#Colimit_ind_beta_colimp" xlink:title="Colimit_ind_beta_colimp">
<ellipse fill="#f070d1" stroke="black" cx="1973.16" cy="-338" rx="123.48" ry="18"/>
<text text-anchor="middle" x="1973.16" y="-334.3" font-family="Times,serif" font-size="14.00">Colimit_ind_beta_colimp</text>
</a>
</g>
</g>
<!-- Colimit_Colimit_rec_beta_colimp&#45;&gt;Colimit_Colimit_ind_beta_colimp -->
<g id="edge40" class="edge">
<title>Colimit_Colimit_rec_beta_colimp&#45;&gt;Colimit_Colimit_ind_beta_colimp</title>
<path fill="none" stroke="black" d="M1991.23,-391.7C1988.56,-383.9 1985.34,-374.51 1982.36,-365.83"/>
<polygon fill="black" stroke="black" points="1985.58,-364.43 1979.03,-356.1 1978.96,-366.7 1985.58,-364.43"/>
</g>
<!-- Colimit_Colimit_ind -->
<g id="node30" class="node">
<title>Colimit_Colimit_ind</title>
<g id="a_node30"><a xlink:href="Colimit.html#Colimit_ind" xlink:title="Colimit_ind">
<ellipse fill="#f070d1" stroke="black" cx="1973.16" cy="-258" rx="63.89" ry="18"/>
<text text-anchor="middle" x="1973.16" y="-254.3" font-family="Times,serif" font-size="14.00">Colimit_ind</text>
</a>
</g>
</g>
<!-- Colimit_Colimit_rec&#45;&gt;Colimit_Colimit_ind -->
<g id="edge41" class="edge">
<title>Colimit_Colimit_rec&#45;&gt;Colimit_Colimit_ind</title>
<path fill="none" stroke="black" d="M2179.38,-324.12C2136.74,-310.66 2069.76,-289.5 2023.78,-274.98"/>
<polygon fill="black" stroke="black" points="2024.6,-271.57 2014.01,-271.9 2022.49,-278.25 2024.6,-271.57"/>
</g>
<!-- Colimit_Colimit_ind_beta_colimp&#45;&gt;Colimit_Colimit_ind -->
<g id="edge42" class="edge">
<title>Colimit_Colimit_ind_beta_colimp&#45;&gt;Colimit_Colimit_ind</title>
<path fill="none" stroke="black" d="M1973.16,-319.69C1973.16,-309.89 1973.16,-297.42 1973.16,-286.33"/>
<polygon fill="black" stroke="black" points="1976.66,-286.26 1973.16,-276.26 1969.66,-286.26 1976.66,-286.26"/>
</g>
<!-- Colimit_Colimit_ind&#45;&gt;Colimit_colimp -->
<g id="edge43" class="edge">
<title>Colimit_Colimit_ind&#45;&gt;Colimit_colimp</title>
<path fill="none" stroke="black" d="M1935.19,-243.41C1896.2,-229.46 1835.72,-207.82 1795.79,-193.54"/>
<polygon fill="black" stroke="black" points="1796.95,-190.23 1786.35,-190.16 1794.59,-196.82 1796.95,-190.23"/>
</g>
<!-- Colimit_ap_colim_homotopic -->
<g id="node31" class="node">
<title>Colimit_ap_colim_homotopic</title>
<g id="a_node31"><a xlink:href="Colimit.html#ap_colim_homotopic" xlink:title="ap_colim_homotopic">
<ellipse fill="#f070d1" stroke="black" cx="1597.16" cy="-258" rx="103.98" ry="18"/>
<ellipse fill="none" stroke="black" cx="1597.16" cy="-258" rx="107.98" ry="22"/>
<ellipse fill="none" stroke="black" cx="1597.16" cy="-258" rx="111.98" ry="26"/>
<text text-anchor="middle" x="1597.16" y="-254.3" font-family="Times,serif" font-size="14.00">ap_colim_homotopic</text>
</a>
</g>
</g>
<!-- Colimit_ap_colim_homotopic&#45;&gt;Colimit_colimp -->
<g id="edge44" class="edge">
<title>Colimit_ap_colim_homotopic&#45;&gt;Colimit_colimp</title>
<path fill="none" stroke="black" d="M1643.29,-234.23C1667.52,-222.27 1696.77,-207.83 1719.28,-196.71"/>
<polygon fill="black" stroke="black" points="1721.07,-199.74 1728.48,-192.17 1717.97,-193.46 1721.07,-199.74"/>
</g>
<!-- Colimit_colim -->
<g id="node33" class="node">
<title>Colimit_colim</title>
<g id="a_node33"><a xlink:href="Colimit.html#colim" xlink:title="colim">
<ellipse fill="#f070d1" stroke="black" cx="1755.16" cy="-106" rx="36" ry="18"/>
<text text-anchor="middle" x="1755.16" y="-102.3" font-family="Times,serif" font-size="14.00">colim</text>
</a>
</g>
</g>
<!-- Colimit_colimp&#45;&gt;Colimit_colim -->
<g id="edge45" class="edge">
<title>Colimit_colimp&#45;&gt;Colimit_colim</title>
<path fill="none" stroke="black" d="M1755.16,-159.7C1755.16,-151.98 1755.16,-142.71 1755.16,-134.11"/>
<polygon fill="black" stroke="black" points="1758.66,-134.1 1755.16,-124.1 1751.66,-134.1 1758.66,-134.1"/>
</g>
<!-- Colimit_Colimit -->
<g id="node34" class="node">
<title>Colimit_Colimit</title>
<g id="a_node34"><a xlink:href="Colimit.html#Colimit" xlink:title="Colimit">
<ellipse fill="#f070d1" stroke="black" cx="1755.16" cy="-34" rx="44.39" ry="18"/>
<text text-anchor="middle" x="1755.16" y="-30.3" font-family="Times,serif" font-size="14.00">Colimit</text>
</a>
</g>
</g>
<!-- Colimit_colim&#45;&gt;Colimit_Colimit -->
<g id="edge46" class="edge">
<title>Colimit_colim&#45;&gt;Colimit_Colimit</title>
<path fill="none" stroke="black" d="M1755.16,-87.7C1755.16,-79.98 1755.16,-70.71 1755.16,-62.11"/>
<polygon fill="black" stroke="black" points="1758.66,-62.1 1755.16,-52.1 1751.66,-62.1 1758.66,-62.1"/>
</g>
<!-- Colimit_cocone_postcompose_inv&#45;&gt;Colimit_IsColimit -->
<g id="edge47" class="edge">
<title>Colimit_cocone_postcompose_inv&#45;&gt;Colimit_IsColimit</title>
<path fill="none" stroke="black" d="M2029.55,-796.55C1998.08,-792.19 1962.03,-787.5 1929.16,-784 1725.25,-762.26 1673.41,-766.37 1469.16,-748 1405.36,-742.26 1332.36,-734.72 1282.56,-729.43"/>
<polygon fill="black" stroke="black" points="1282.92,-725.94 1272.6,-728.36 1282.18,-732.9 1282.92,-725.94"/>
</g>
<!-- Colimit_iscolimit_unicocone -->
<g id="node36" class="node">
<title>Colimit_iscolimit_unicocone</title>
<g id="a_node36"><a xlink:href="Colimit.html#iscolimit_unicocone" xlink:title="iscolimit_unicocone">
<ellipse fill="#f070d1" stroke="black" cx="1560.16" cy="-810" rx="100.96" ry="18"/>
<ellipse fill="none" stroke="black" cx="1560.16" cy="-810" rx="104.97" ry="22"/>
<ellipse fill="none" stroke="black" cx="1560.16" cy="-810" rx="108.98" ry="26"/>
<text text-anchor="middle" x="1560.16" y="-806.3" font-family="Times,serif" font-size="14.00">iscolimit_unicocone</text>
</a>
</g>
</g>
<!-- Colimit_iscolimit_unicocone&#45;&gt;Colimit_IsColimit -->
<g id="edge48" class="edge">
<title>Colimit_iscolimit_unicocone&#45;&gt;Colimit_IsColimit</title>
<path fill="none" stroke="black" d="M1487.87,-790.55C1423.46,-774.12 1330.86,-750.48 1273.98,-735.97"/>
<polygon fill="black" stroke="black" points="1274.69,-732.54 1264.14,-733.46 1272.96,-739.32 1274.69,-732.54"/>
</g>
<!-- Colimit_iscolimit_cocone -->
<g id="node37" class="node">
<title>Colimit_iscolimit_cocone</title>
<g id="a_node37"><a xlink:href="Colimit.html#iscolimit_cocone" xlink:title="iscolimit_cocone">
<ellipse fill="#f070d1" stroke="black" cx="2401.16" cy="-810" rx="86.39" ry="18"/>
<ellipse fill="none" stroke="black" cx="2401.16" cy="-810" rx="90.39" ry="22"/>
<ellipse fill="none" stroke="black" cx="2401.16" cy="-810" rx="94.38" ry="26"/>
<text text-anchor="middle" x="2401.16" y="-806.3" font-family="Times,serif" font-size="14.00">iscolimit_cocone</text>
</a>
</g>
</g>
<!-- Colimit_iscolimit_cocone&#45;&gt;Colimit_IsColimit -->
<g id="edge49" class="edge">
<title>Colimit_iscolimit_cocone&#45;&gt;Colimit_IsColimit</title>
<path fill="none" stroke="black" d="M2324.85,-794.66C2300.72,-790.61 2273.9,-786.6 2249.16,-784 1904.02,-747.78 1815.26,-773.55 1469.16,-748 1405.08,-743.27 1331.83,-735.52 1282.05,-729.91"/>
<polygon fill="black" stroke="black" points="1282.43,-726.43 1272.1,-728.78 1281.64,-733.38 1282.43,-726.43"/>
</g>
<!-- Colimit_IsColimit_sind -->
<g id="node38" class="node">
<title>Colimit_IsColimit_sind</title>
<g id="a_node38"><a xlink:href="Colimit.html#IsColimit_sind" xlink:title="IsColimit_sind">
<ellipse fill="#f070d1" stroke="black" cx="537.16" cy="-810" rx="76.87" ry="18"/>
<ellipse fill="none" stroke="black" cx="537.16" cy="-810" rx="80.88" ry="22"/>
<ellipse fill="none" stroke="black" cx="537.16" cy="-810" rx="84.89" ry="26"/>
<text text-anchor="middle" x="537.16" y="-806.3" font-family="Times,serif" font-size="14.00">IsColimit_sind</text>
</a>
</g>
</g>
<!-- Colimit_IsColimit_sind&#45;&gt;Colimit_Build_IsColimit -->
<g id="edge50" class="edge">
<title>Colimit_IsColimit_sind&#45;&gt;Colimit_Build_IsColimit</title>
<path fill="none" stroke="black" d="M575.79,-786.85C598.68,-773.73 627.53,-757.19 650.13,-744.23"/>
<polygon fill="black" stroke="black" points="652.15,-747.11 659.09,-739.1 648.67,-741.03 652.15,-747.11"/>
</g>
<!-- Colimit_IsColimit_sind&#45;&gt;Colimit_IsColimit -->
<g id="edge51" class="edge">
<title>Colimit_IsColimit_sind&#45;&gt;Colimit_IsColimit</title>
<path fill="none" stroke="black" d="M608.57,-795.83C631.98,-791.75 658.14,-787.42 682.16,-784 856.14,-759.22 1062.76,-738.26 1162.85,-728.64"/>
<polygon fill="black" stroke="black" points="1163.44,-732.1 1173.07,-727.66 1162.78,-725.13 1163.44,-732.1"/>
</g>
<!-- Colimit_IsColimit_rec -->
<g id="node39" class="node">
<title>Colimit_IsColimit_rec</title>
<g id="a_node39"><a xlink:href="Colimit.html#IsColimit_rec" xlink:title="IsColimit_rec">
<ellipse fill="#f070d1" stroke="black" cx="322.16" cy="-898" rx="71.49" ry="18"/>
<ellipse fill="none" stroke="black" cx="322.16" cy="-898" rx="75.49" ry="22"/>
<ellipse fill="none" stroke="black" cx="322.16" cy="-898" rx="79.49" ry="26"/>
<text text-anchor="middle" x="322.16" y="-894.3" font-family="Times,serif" font-size="14.00">IsColimit_rec</text>
</a>
</g>
</g>
<!-- Colimit_IsColimit_rect -->
<g id="node41" class="node">
<title>Colimit_IsColimit_rect</title>
<g id="a_node41"><a xlink:href="Colimit.html#IsColimit_rect" xlink:title="IsColimit_rect">
<ellipse fill="#f070d1" stroke="black" cx="322.16" cy="-810" rx="75.29" ry="18"/>
<text text-anchor="middle" x="322.16" y="-806.3" font-family="Times,serif" font-size="14.00">IsColimit_rect</text>
</a>
</g>
</g>
<!-- Colimit_IsColimit_rec&#45;&gt;Colimit_IsColimit_rect -->
<g id="edge52" class="edge">
<title>Colimit_IsColimit_rec&#45;&gt;Colimit_IsColimit_rect</title>
<path fill="none" stroke="black" d="M322.16,-871.66C322.16,-861.11 322.16,-848.84 322.16,-838.1"/>
<polygon fill="black" stroke="black" points="325.66,-838 322.16,-828 318.66,-838 325.66,-838"/>
</g>
<!-- Colimit_IsColimit_ind -->
<g id="node40" class="node">
<title>Colimit_IsColimit_ind</title>
<g id="a_node40"><a xlink:href="Colimit.html#IsColimit_ind" xlink:title="IsColimit_ind">
<ellipse fill="#7fffd4" stroke="black" cx="114.16" cy="-810" rx="71.49" ry="18"/>
<ellipse fill="none" stroke="black" cx="114.16" cy="-810" rx="75.49" ry="22"/>
<ellipse fill="none" stroke="black" cx="114.16" cy="-810" rx="79.49" ry="26"/>
<text text-anchor="middle" x="114.16" y="-806.3" font-family="Times,serif" font-size="14.00">IsColimit_ind</text>
</a>
</g>
</g>
<!-- Colimit_IsColimit_ind&#45;&gt;Colimit_Build_IsColimit -->
<g id="edge53" class="edge">
<title>Colimit_IsColimit_ind&#45;&gt;Colimit_Build_IsColimit</title>
<path fill="none" stroke="black" d="M179.34,-795.05C198.26,-791.22 219,-787.23 238.16,-784 366.64,-762.34 516.8,-743.18 606.82,-732.34"/>
<polygon fill="black" stroke="black" points="607.44,-735.79 616.96,-731.13 606.61,-728.84 607.44,-735.79"/>
</g>
<!-- Colimit_IsColimit_ind&#45;&gt;Colimit_IsColimit -->
<g id="edge54" class="edge">
<title>Colimit_IsColimit_ind&#45;&gt;Colimit_IsColimit</title>
<path fill="none" stroke="black" d="M177.92,-794.4C197.19,-790.47 218.46,-786.58 238.16,-784 284,-777.99 952.84,-738.75 1161.48,-726.59"/>
<polygon fill="black" stroke="black" points="1161.86,-730.07 1171.64,-725.99 1161.46,-723.08 1161.86,-730.07"/>
</g>
<!-- Colimit_IsColimit_rect&#45;&gt;Colimit_Build_IsColimit -->
<g id="edge55" class="edge">
<title>Colimit_IsColimit_rect&#45;&gt;Colimit_Build_IsColimit</title>
<path fill="none" stroke="black" d="M374.07,-796.77C439.73,-781.3 552.74,-754.67 623.53,-737.99"/>
<polygon fill="black" stroke="black" points="624.72,-741.31 633.65,-735.61 623.12,-734.49 624.72,-741.31"/>
</g>
<!-- Colimit_IsColimit_rect&#45;&gt;Colimit_IsColimit -->
<g id="edge56" class="edge">
<title>Colimit_IsColimit_rect&#45;&gt;Colimit_IsColimit</title>
<path fill="none" stroke="black" d="M373.73,-796.86C395.11,-792.21 420.23,-787.25 443.16,-784 708.31,-746.39 1027.7,-730.53 1160.51,-725.23"/>
<polygon fill="black" stroke="black" points="1161.03,-728.71 1170.88,-724.82 1160.75,-721.71 1161.03,-728.71"/>
</g>
</g>
</svg>
