<?xml version="1.0" encoding="UTF-8" standalone="no"?>
<!DOCTYPE svg PUBLIC "-//W3C//DTD SVG 1.1//EN"
 "http://www.w3.org/Graphics/SVG/1.1/DTD/svg11.dtd">
<!-- Generated by graphviz version 2.43.0 (0)
 -->
<!-- Title: HoTT_Homotopy_Wedge Pages: 1 -->
<svg width="2570pt" height="1289pt"
 viewBox="0.00 0.00 2570.00 1289.00" xmlns="http://www.w3.org/2000/svg" xmlns:xlink="http://www.w3.org/1999/xlink">
<g id="graph0" class="graph" transform="scale(1 1) rotate(0) translate(4 1285)">
<title>HoTT_Homotopy_Wedge</title>
<polygon fill="white" stroke="transparent" points="-4,4 -4,-1285 2566,-1285 2566,4 -4,4"/>
<g id="clust1" class="cluster">
<title>cluster_Wedge</title>
<polygon fill="#ffffc3" stroke="black" points="8,-15.55 8,-1265.45 2554,-1265.45 2554,-15.55 8,-15.55"/>
<text text-anchor="middle" x="40.5" y="-1250.25" font-family="Times,serif" font-size="14.00">Wedge</text>
</g>
<!-- Wedge_conn_map_wedge_incl -->
<g id="node1" class="node">
<title>Wedge_conn_map_wedge_incl</title>
<g id="a_node1"><a xlink:href="Wedge.html#conn_map_wedge_incl" xlink:title="conn_map_wedge_incl">
<ellipse fill="#f070d1" stroke="black" cx="1256" cy="-1154.55" rx="112.38" ry="18"/>
<ellipse fill="none" stroke="black" cx="1256" cy="-1154.55" rx="116.38" ry="22"/>
<ellipse fill="none" stroke="black" cx="1256" cy="-1154.55" rx="120.38" ry="26"/>
<text text-anchor="middle" x="1256" y="-1150.85" font-family="Times,serif" font-size="14.00">conn_map_wedge_incl</text>
</a>
</g>
</g>
<!-- Wedge_extension_wedge_incl -->
<g id="node2" class="node">
<title>Wedge_extension_wedge_incl</title>
<g id="a_node2"><a xlink:href="Wedge.html#extension_wedge_incl" xlink:title="extension_wedge_incl">
<ellipse fill="#f070d1" stroke="black" cx="1256" cy="-983.55" rx="111.28" ry="18"/>
<text text-anchor="middle" x="1256" y="-979.85" font-family="Times,serif" font-size="14.00">extension_wedge_incl</text>
</a>
</g>
</g>
<!-- Wedge_conn_map_wedge_incl&#45;&gt;Wedge_extension_wedge_incl -->
<g id="edge1" class="edge">
<title>Wedge_conn_map_wedge_incl&#45;&gt;Wedge_extension_wedge_incl</title>
<path fill="none" stroke="black" d="M1256,-1128.25C1256,-1096.98 1256,-1043.97 1256,-1011.82"/>
<polygon fill="black" stroke="black" points="1259.5,-1011.77 1256,-1001.78 1252.5,-1011.78 1259.5,-1011.77"/>
</g>
<!-- Wedge_wedge_ind -->
<g id="node23" class="node">
<title>Wedge_wedge_ind</title>
<g id="a_node23"><a xlink:href="Wedge.html#wedge_ind" xlink:title="wedge_ind">
<ellipse fill="#f070d1" stroke="black" cx="697" cy="-485.55" rx="59.59" ry="18"/>
<text text-anchor="middle" x="697" y="-481.85" font-family="Times,serif" font-size="14.00">wedge_ind</text>
</a>
</g>
</g>
<!-- Wedge_extension_wedge_incl&#45;&gt;Wedge_wedge_ind -->
<g id="edge2" class="edge">
<title>Wedge_extension_wedge_incl&#45;&gt;Wedge_wedge_ind</title>
<path fill="none" stroke="black" d="M1158.18,-974.98C989.98,-956.09 649.75,-890.79 501,-667.55 453.13,-595.71 578.86,-532.54 650.78,-503.49"/>
<polygon fill="black" stroke="black" points="652.11,-506.72 660.12,-499.79 649.53,-500.22 652.11,-506.72"/>
</g>
<!-- Wedge_wedge_incl_beta_wglue -->
<g id="node24" class="node">
<title>Wedge_wedge_incl_beta_wglue</title>
<g id="a_node24"><a xlink:href="Wedge.html#wedge_incl_beta_wglue" xlink:title="wedge_incl_beta_wglue">
<ellipse fill="#f070d1" stroke="black" cx="1926" cy="-812.55" rx="118.88" ry="18"/>
<text text-anchor="middle" x="1926" y="-808.85" font-family="Times,serif" font-size="14.00">wedge_incl_beta_wglue</text>
</a>
</g>
</g>
<!-- Wedge_extension_wedge_incl&#45;&gt;Wedge_wedge_incl_beta_wglue -->
<g id="edge3" class="edge">
<title>Wedge_extension_wedge_incl&#45;&gt;Wedge_wedge_incl_beta_wglue</title>
<path fill="none" stroke="black" d="M1313.41,-968.07C1436.51,-937.02 1725.34,-864.16 1857.64,-830.79"/>
<polygon fill="black" stroke="black" points="1858.82,-834.11 1867.66,-828.27 1857.1,-827.32 1858.82,-834.11"/>
</g>
<!-- Wedge_wedge_pr2_psusp_pinch -->
<g id="node3" class="node">
<title>Wedge_wedge_pr2_psusp_pinch</title>
<g id="a_node3"><a xlink:href="Wedge.html#wedge_pr2_psusp_pinch" xlink:title="wedge_pr2_psusp_pinch">
<ellipse fill="#f070d1" stroke="black" cx="1658" cy="-812.55" rx="122.69" ry="18"/>
<ellipse fill="none" stroke="black" cx="1658" cy="-812.55" rx="126.68" ry="22"/>
<ellipse fill="none" stroke="black" cx="1658" cy="-812.55" rx="130.68" ry="26"/>
<text text-anchor="middle" x="1658" y="-808.85" font-family="Times,serif" font-size="14.00">wedge_pr2_psusp_pinch</text>
</a>
</g>
</g>
<!-- Wedge_psusp_pinch_beta_merid -->
<g id="node5" class="node">
<title>Wedge_psusp_pinch_beta_merid</title>
<g id="a_node5"><a xlink:href="Wedge.html#psusp_pinch_beta_merid" xlink:title="psusp_pinch_beta_merid">
<ellipse fill="#f070d1" stroke="black" cx="1219" cy="-641.55" rx="124.28" ry="18"/>
<text text-anchor="middle" x="1219" y="-637.85" font-family="Times,serif" font-size="14.00">psusp_pinch_beta_merid</text>
</a>
</g>
</g>
<!-- Wedge_wedge_pr2_psusp_pinch&#45;&gt;Wedge_psusp_pinch_beta_merid -->
<g id="edge4" class="edge">
<title>Wedge_wedge_pr2_psusp_pinch&#45;&gt;Wedge_psusp_pinch_beta_merid</title>
<path fill="none" stroke="black" d="M1599.7,-789.11C1513.3,-755.85 1352.64,-694 1270.4,-662.34"/>
<polygon fill="black" stroke="black" points="1271.36,-658.96 1260.77,-658.63 1268.84,-665.49 1271.36,-658.96"/>
</g>
<!-- Wedge_wedge_pr2 -->
<g id="node26" class="node">
<title>Wedge_wedge_pr2</title>
<g id="a_node26"><a xlink:href="Wedge.html#wedge_pr2" xlink:title="wedge_pr2">
<ellipse fill="#f070d1" stroke="black" cx="1608" cy="-485.55" rx="61.99" ry="18"/>
<text text-anchor="middle" x="1608" y="-481.85" font-family="Times,serif" font-size="14.00">wedge_pr2</text>
</a>
</g>
</g>
<!-- Wedge_wedge_pr2_psusp_pinch&#45;&gt;Wedge_wedge_pr2 -->
<g id="edge5" class="edge">
<title>Wedge_wedge_pr2_psusp_pinch&#45;&gt;Wedge_wedge_pr2</title>
<path fill="none" stroke="black" d="M1672.15,-786.39C1691.46,-748.7 1721.55,-675.57 1702,-615.55 1688.37,-573.71 1655.48,-534.13 1632.46,-510.12"/>
<polygon fill="black" stroke="black" points="1634.88,-507.58 1625.38,-502.88 1629.88,-512.48 1634.88,-507.58"/>
</g>
<!-- Wedge_wedge_rec_beta_wglue -->
<g id="node30" class="node">
<title>Wedge_wedge_rec_beta_wglue</title>
<g id="a_node30"><a xlink:href="Wedge.html#wedge_rec_beta_wglue" xlink:title="wedge_rec_beta_wglue">
<ellipse fill="#f070d1" stroke="black" cx="2044" cy="-485.55" rx="116.98" ry="18"/>
<text text-anchor="middle" x="2044" y="-481.85" font-family="Times,serif" font-size="14.00">wedge_rec_beta_wglue</text>
</a>
</g>
</g>
<!-- Wedge_wedge_pr2_psusp_pinch&#45;&gt;Wedge_wedge_rec_beta_wglue -->
<g id="edge6" class="edge">
<title>Wedge_wedge_pr2_psusp_pinch&#45;&gt;Wedge_wedge_rec_beta_wglue</title>
<path fill="none" stroke="black" d="M1738.65,-792.03C1865.28,-760.59 2098.78,-699.06 2122,-667.55 2158.85,-617.53 2104.18,-547.4 2069.28,-510.86"/>
<polygon fill="black" stroke="black" points="2071.67,-508.3 2062.18,-503.59 2066.66,-513.19 2071.67,-508.3"/>
</g>
<!-- Wedge_wedge_pr1_psusp_pinch -->
<g id="node4" class="node">
<title>Wedge_wedge_pr1_psusp_pinch</title>
<g id="a_node4"><a xlink:href="Wedge.html#wedge_pr1_psusp_pinch" xlink:title="wedge_pr1_psusp_pinch">
<ellipse fill="#f070d1" stroke="black" cx="1362" cy="-812.55" rx="122.69" ry="18"/>
<ellipse fill="none" stroke="black" cx="1362" cy="-812.55" rx="126.68" ry="22"/>
<ellipse fill="none" stroke="black" cx="1362" cy="-812.55" rx="130.68" ry="26"/>
<text text-anchor="middle" x="1362" y="-808.85" font-family="Times,serif" font-size="14.00">wedge_pr1_psusp_pinch</text>
</a>
</g>
</g>
<!-- Wedge_wedge_pr1_psusp_pinch&#45;&gt;Wedge_psusp_pinch_beta_merid -->
<g id="edge7" class="edge">
<title>Wedge_wedge_pr1_psusp_pinch&#45;&gt;Wedge_psusp_pinch_beta_merid</title>
<path fill="none" stroke="black" d="M1340.9,-786.61C1313.94,-754.75 1267.53,-699.91 1240.42,-667.87"/>
<polygon fill="black" stroke="black" points="1242.78,-665.23 1233.64,-659.86 1237.43,-669.75 1242.78,-665.23"/>
</g>
<!-- Wedge_wedge_pr1 -->
<g id="node27" class="node">
<title>Wedge_wedge_pr1</title>
<g id="a_node27"><a xlink:href="Wedge.html#wedge_pr1" xlink:title="wedge_pr1">
<ellipse fill="#f070d1" stroke="black" cx="1443" cy="-485.55" rx="61.99" ry="18"/>
<text text-anchor="middle" x="1443" y="-481.85" font-family="Times,serif" font-size="14.00">wedge_pr1</text>
</a>
</g>
</g>
<!-- Wedge_wedge_pr1_psusp_pinch&#45;&gt;Wedge_wedge_pr1 -->
<g id="edge8" class="edge">
<title>Wedge_wedge_pr1_psusp_pinch&#45;&gt;Wedge_wedge_pr1</title>
<path fill="none" stroke="black" d="M1359.75,-786.53C1357.13,-748.69 1355.08,-675.03 1372,-615.55 1383.02,-576.79 1407.39,-536.85 1424.49,-511.88"/>
<polygon fill="black" stroke="black" points="1427.57,-513.59 1430.42,-503.39 1421.83,-509.58 1427.57,-513.59"/>
</g>
<!-- Wedge_wedge_pr1_psusp_pinch&#45;&gt;Wedge_wedge_rec_beta_wglue -->
<g id="edge9" class="edge">
<title>Wedge_wedge_pr1_psusp_pinch&#45;&gt;Wedge_wedge_rec_beta_wglue</title>
<path fill="none" stroke="black" d="M1457.42,-794.73C1656.08,-759.49 2096.62,-680.13 2107,-667.55 2145.59,-620.79 2097.32,-548.89 2066.3,-511.34"/>
<polygon fill="black" stroke="black" points="2068.73,-508.8 2059.6,-503.43 2063.39,-513.32 2068.73,-508.8"/>
</g>
<!-- Wedge_psusp_pinch -->
<g id="node6" class="node">
<title>Wedge_psusp_pinch</title>
<g id="a_node6"><a xlink:href="Wedge.html#psusp_pinch" xlink:title="psusp_pinch">
<ellipse fill="#f070d1" stroke="black" cx="1219" cy="-485.55" rx="67.69" ry="18"/>
<text text-anchor="middle" x="1219" y="-481.85" font-family="Times,serif" font-size="14.00">psusp_pinch</text>
</a>
</g>
</g>
<!-- Wedge_psusp_pinch_beta_merid&#45;&gt;Wedge_psusp_pinch -->
<g id="edge10" class="edge">
<title>Wedge_psusp_pinch_beta_merid&#45;&gt;Wedge_psusp_pinch</title>
<path fill="none" stroke="black" d="M1219,-623.48C1219,-597 1219,-545.78 1219,-514.04"/>
<polygon fill="black" stroke="black" points="1222.5,-513.7 1219,-503.7 1215.5,-513.7 1222.5,-513.7"/>
</g>
<!-- Wedge_wedge_inr -->
<g id="node33" class="node">
<title>Wedge_wedge_inr</title>
<g id="a_node33"><a xlink:href="Wedge.html#wedge_inr" xlink:title="wedge_inr">
<ellipse fill="#f070d1" stroke="black" cx="1818" cy="-345.55" rx="58.49" ry="18"/>
<text text-anchor="middle" x="1818" y="-341.85" font-family="Times,serif" font-size="14.00">wedge_inr</text>
</a>
</g>
</g>
<!-- Wedge_psusp_pinch&#45;&gt;Wedge_wedge_inr -->
<g id="edge11" class="edge">
<title>Wedge_psusp_pinch&#45;&gt;Wedge_wedge_inr</title>
<path fill="none" stroke="black" d="M1268.27,-473.2C1378.95,-447.7 1646.63,-386.03 1762.74,-359.28"/>
<polygon fill="black" stroke="black" points="1763.54,-362.69 1772.49,-357.03 1761.96,-355.87 1763.54,-362.69"/>
</g>
<!-- Wedge_wedge_inl -->
<g id="node34" class="node">
<title>Wedge_wedge_inl</title>
<g id="a_node34"><a xlink:href="Wedge.html#wedge_inl" xlink:title="wedge_inl">
<ellipse fill="#f070d1" stroke="black" cx="1106" cy="-345.55" rx="57.39" ry="18"/>
<text text-anchor="middle" x="1106" y="-341.85" font-family="Times,serif" font-size="14.00">wedge_inl</text>
</a>
</g>
</g>
<!-- Wedge_psusp_pinch&#45;&gt;Wedge_wedge_inl -->
<g id="edge12" class="edge">
<title>Wedge_psusp_pinch&#45;&gt;Wedge_wedge_inl</title>
<path fill="none" stroke="black" d="M1205.37,-467.9C1185.69,-443.87 1149.16,-399.27 1126.3,-371.34"/>
<polygon fill="black" stroke="black" points="1128.72,-368.78 1119.68,-363.26 1123.31,-373.21 1128.72,-368.78"/>
</g>
<!-- Wedge_fwedge_incl -->
<g id="node7" class="node">
<title>Wedge_fwedge_incl</title>
<g id="a_node7"><a xlink:href="Wedge.html#fwedge_incl" xlink:title="fwedge_incl">
<ellipse fill="#f070d1" stroke="black" cx="2385" cy="-1154.55" rx="65.77" ry="18"/>
<ellipse fill="none" stroke="black" cx="2385" cy="-1154.55" rx="69.78" ry="22"/>
<ellipse fill="none" stroke="black" cx="2385" cy="-1154.55" rx="73.79" ry="26"/>
<text text-anchor="middle" x="2385" y="-1150.85" font-family="Times,serif" font-size="14.00">fwedge_incl</text>
</a>
</g>
</g>
<!-- Wedge_hasallcoproducts_ptype -->
<g id="node8" class="node">
<title>Wedge_hasallcoproducts_ptype</title>
<g id="a_node8"><a xlink:href="Wedge.html#hasallcoproducts_ptype" xlink:title="hasallcoproducts_ptype">
<ellipse fill="#f070d1" stroke="black" cx="2385" cy="-983.55" rx="120.48" ry="18"/>
<text text-anchor="middle" x="2385" y="-979.85" font-family="Times,serif" font-size="14.00">hasallcoproducts_ptype</text>
</a>
</g>
</g>
<!-- Wedge_fwedge_incl&#45;&gt;Wedge_hasallcoproducts_ptype -->
<g id="edge13" class="edge">
<title>Wedge_fwedge_incl&#45;&gt;Wedge_hasallcoproducts_ptype</title>
<path fill="none" stroke="black" d="M2385,-1128.25C2385,-1096.98 2385,-1043.97 2385,-1011.82"/>
<polygon fill="black" stroke="black" points="2388.5,-1011.77 2385,-1001.78 2381.5,-1011.78 2388.5,-1011.77"/>
</g>
<!-- Wedge_fwedge_rec -->
<g id="node9" class="node">
<title>Wedge_fwedge_rec</title>
<g id="a_node9"><a xlink:href="Wedge.html#fwedge_rec" xlink:title="fwedge_rec">
<ellipse fill="#f070d1" stroke="black" cx="2345" cy="-812.55" rx="63.89" ry="18"/>
<text text-anchor="middle" x="2345" y="-808.85" font-family="Times,serif" font-size="14.00">fwedge_rec</text>
</a>
</g>
</g>
<!-- Wedge_hasallcoproducts_ptype&#45;&gt;Wedge_fwedge_rec -->
<g id="edge14" class="edge">
<title>Wedge_hasallcoproducts_ptype&#45;&gt;Wedge_fwedge_rec</title>
<path fill="none" stroke="black" d="M2380.94,-965.42C2374,-936.06 2359.76,-875.93 2351.44,-840.78"/>
<polygon fill="black" stroke="black" points="2354.78,-839.66 2349.07,-830.73 2347.96,-841.27 2354.78,-839.66"/>
</g>
<!-- Wedge_fwedge_in_ -->
<g id="node11" class="node">
<title>Wedge_fwedge_in_</title>
<g id="a_node11"><a xlink:href="Wedge.html#fwedge_in'" xlink:title="fwedge_in&#39;">
<ellipse fill="#f070d1" stroke="black" cx="2486" cy="-812.55" rx="59.59" ry="18"/>
<text text-anchor="middle" x="2486" y="-808.85" font-family="Times,serif" font-size="14.00">fwedge_in&#39;</text>
</a>
</g>
</g>
<!-- Wedge_hasallcoproducts_ptype&#45;&gt;Wedge_fwedge_in_ -->
<g id="edge15" class="edge">
<title>Wedge_hasallcoproducts_ptype&#45;&gt;Wedge_fwedge_in_</title>
<path fill="none" stroke="black" d="M2395.24,-965.42C2413.06,-935.6 2449.84,-874.05 2470.7,-839.15"/>
<polygon fill="black" stroke="black" points="2473.76,-840.86 2475.88,-830.48 2467.75,-837.27 2473.76,-840.86"/>
</g>
<!-- Wedge_FamilyWedge -->
<g id="node12" class="node">
<title>Wedge_FamilyWedge</title>
<g id="a_node12"><a xlink:href="Wedge.html#FamilyWedge" xlink:title="FamilyWedge">
<ellipse fill="#f070d1" stroke="black" cx="2473" cy="-641.55" rx="73.39" ry="18"/>
<text text-anchor="middle" x="2473" y="-637.85" font-family="Times,serif" font-size="14.00">FamilyWedge</text>
</a>
</g>
</g>
<!-- Wedge_fwedge_rec&#45;&gt;Wedge_FamilyWedge -->
<g id="edge16" class="edge">
<title>Wedge_fwedge_rec&#45;&gt;Wedge_FamilyWedge</title>
<path fill="none" stroke="black" d="M2357.74,-794.73C2380.36,-764.87 2427.63,-702.46 2454.07,-667.55"/>
<polygon fill="black" stroke="black" points="2457.06,-669.39 2460.31,-659.31 2451.48,-665.16 2457.06,-669.39"/>
</g>
<!-- Wedge_fwedge_in -->
<g id="node10" class="node">
<title>Wedge_fwedge_in</title>
<g id="a_node10"><a xlink:href="Wedge.html#fwedge_in" xlink:title="fwedge_in">
<ellipse fill="#f070d1" stroke="black" cx="2197" cy="-812.55" rx="57.71" ry="18"/>
<ellipse fill="none" stroke="black" cx="2197" cy="-812.55" rx="61.7" ry="22"/>
<ellipse fill="none" stroke="black" cx="2197" cy="-812.55" rx="65.69" ry="26"/>
<text text-anchor="middle" x="2197" y="-808.85" font-family="Times,serif" font-size="14.00">fwedge_in</text>
</a>
</g>
</g>
<!-- Wedge_fwedge_in&#45;&gt;Wedge_FamilyWedge -->
<g id="edge17" class="edge">
<title>Wedge_fwedge_in&#45;&gt;Wedge_FamilyWedge</title>
<path fill="none" stroke="black" d="M2231.68,-790.32C2284.64,-757.89 2385.12,-696.36 2438.18,-663.87"/>
<polygon fill="black" stroke="black" points="2440.19,-666.75 2446.89,-658.54 2436.53,-660.78 2440.19,-666.75"/>
</g>
<!-- Wedge_fwedge_in_&#45;&gt;Wedge_FamilyWedge -->
<g id="edge18" class="edge">
<title>Wedge_fwedge_in_&#45;&gt;Wedge_FamilyWedge</title>
<path fill="none" stroke="black" d="M2484.68,-794.42C2482.42,-765.06 2477.8,-704.93 2475.09,-669.78"/>
<polygon fill="black" stroke="black" points="2478.58,-669.43 2474.32,-659.73 2471.6,-669.97 2478.58,-669.43"/>
</g>
<!-- Wedge_wedge_pr2_inr -->
<g id="node13" class="node">
<title>Wedge_wedge_pr2_inr</title>
<g id="a_node13"><a xlink:href="Wedge.html#wedge_pr2_inr" xlink:title="wedge_pr2_inr">
<ellipse fill="#f070d1" stroke="black" cx="2011" cy="-641.55" rx="79.11" ry="18"/>
<ellipse fill="none" stroke="black" cx="2011" cy="-641.55" rx="83.1" ry="22"/>
<ellipse fill="none" stroke="black" cx="2011" cy="-641.55" rx="87.09" ry="26"/>
<text text-anchor="middle" x="2011" y="-637.85" font-family="Times,serif" font-size="14.00">wedge_pr2_inr</text>
</a>
</g>
</g>
<!-- Wedge_wedge_pr2_inr&#45;&gt;Wedge_wedge_pr2 -->
<g id="edge19" class="edge">
<title>Wedge_wedge_pr2_inr&#45;&gt;Wedge_wedge_pr2</title>
<path fill="none" stroke="black" d="M1958.73,-620.58C1879.14,-590.16 1728.87,-532.74 1653.51,-503.94"/>
<polygon fill="black" stroke="black" points="1654.42,-500.54 1643.83,-500.24 1651.92,-507.08 1654.42,-500.54"/>
</g>
<!-- Wedge_wedge_pr2_inr&#45;&gt;Wedge_wedge_rec_beta_wglue -->
<g id="edge20" class="edge">
<title>Wedge_wedge_pr2_inr&#45;&gt;Wedge_wedge_rec_beta_wglue</title>
<path fill="none" stroke="black" d="M2016.38,-615.47C2022.36,-587.53 2032,-542.53 2038.17,-513.77"/>
<polygon fill="black" stroke="black" points="2041.6,-514.48 2040.27,-503.96 2034.75,-513.01 2041.6,-514.48"/>
</g>
<!-- Wedge_wedge_pr2_inr&#45;&gt;Wedge_wedge_inr -->
<g id="edge21" class="edge">
<title>Wedge_wedge_pr2_inr&#45;&gt;Wedge_wedge_inr</title>
<path fill="none" stroke="black" d="M1993.98,-615.95C1975.16,-588.64 1944.06,-543.18 1918,-503.55 1887.78,-457.6 1853.54,-403.35 1833.98,-372.15"/>
<polygon fill="black" stroke="black" points="1836.91,-370.23 1828.64,-363.62 1830.98,-373.95 1836.91,-370.23"/>
</g>
<!-- Wedge_wedge_pr2_inl -->
<g id="node14" class="node">
<title>Wedge_wedge_pr2_inl</title>
<g id="a_node14"><a xlink:href="Wedge.html#wedge_pr2_inl" xlink:title="wedge_pr2_inl">
<ellipse fill="#f070d1" stroke="black" cx="1608" cy="-641.55" rx="77.2" ry="18"/>
<ellipse fill="none" stroke="black" cx="1608" cy="-641.55" rx="81.19" ry="22"/>
<ellipse fill="none" stroke="black" cx="1608" cy="-641.55" rx="85.19" ry="26"/>
<text text-anchor="middle" x="1608" y="-637.85" font-family="Times,serif" font-size="14.00">wedge_pr2_inl</text>
</a>
</g>
</g>
<!-- Wedge_wedge_pr2_inl&#45;&gt;Wedge_wedge_pr2 -->
<g id="edge22" class="edge">
<title>Wedge_wedge_pr2_inl&#45;&gt;Wedge_wedge_pr2</title>
<path fill="none" stroke="black" d="M1608,-615.47C1608,-587.65 1608,-542.93 1608,-514.15"/>
<polygon fill="black" stroke="black" points="1611.5,-513.96 1608,-503.96 1604.5,-513.96 1611.5,-513.96"/>
</g>
<!-- Wedge_wedge_pr2_inl&#45;&gt;Wedge_wedge_inl -->
<g id="edge23" class="edge">
<title>Wedge_wedge_pr2_inl&#45;&gt;Wedge_wedge_inl</title>
<path fill="none" stroke="black" d="M1595.08,-615.58C1570.84,-568.93 1520.43,-472.75 1514,-467.55 1413.2,-385.93 1258.79,-359.35 1171.69,-350.71"/>
<polygon fill="black" stroke="black" points="1171.96,-347.22 1161.67,-349.76 1171.3,-354.18 1171.96,-347.22"/>
</g>
<!-- Wedge_wedge_pr1_inr -->
<g id="node15" class="node">
<title>Wedge_wedge_pr1_inr</title>
<g id="a_node15"><a xlink:href="Wedge.html#wedge_pr1_inr" xlink:title="wedge_pr1_inr">
<ellipse fill="#f070d1" stroke="black" cx="1818" cy="-641.55" rx="79.11" ry="18"/>
<ellipse fill="none" stroke="black" cx="1818" cy="-641.55" rx="83.1" ry="22"/>
<ellipse fill="none" stroke="black" cx="1818" cy="-641.55" rx="87.09" ry="26"/>
<text text-anchor="middle" x="1818" y="-637.85" font-family="Times,serif" font-size="14.00">wedge_pr1_inr</text>
</a>
</g>
</g>
<!-- Wedge_wedge_pr1_inr&#45;&gt;Wedge_wedge_pr1 -->
<g id="edge24" class="edge">
<title>Wedge_wedge_pr1_inr&#45;&gt;Wedge_wedge_pr1</title>
<path fill="none" stroke="black" d="M1768.2,-620.1C1694.28,-589.74 1556.71,-533.25 1486.56,-504.44"/>
<polygon fill="black" stroke="black" points="1487.71,-501.13 1477.13,-500.56 1485.05,-507.6 1487.71,-501.13"/>
</g>
<!-- Wedge_wedge_pr1_inr&#45;&gt;Wedge_wedge_rec_beta_wglue -->
<g id="edge25" class="edge">
<title>Wedge_wedge_pr1_inr&#45;&gt;Wedge_wedge_rec_beta_wglue</title>
<path fill="none" stroke="black" d="M1851.83,-617.5C1894.8,-588.22 1968.47,-538.02 2011.02,-509.02"/>
<polygon fill="black" stroke="black" points="2013.06,-511.87 2019.36,-503.34 2009.12,-506.08 2013.06,-511.87"/>
</g>
<!-- Wedge_wedge_pr1_inr&#45;&gt;Wedge_wedge_inr -->
<g id="edge26" class="edge">
<title>Wedge_wedge_pr1_inr&#45;&gt;Wedge_wedge_inr</title>
<path fill="none" stroke="black" d="M1818,-615.48C1818,-560.69 1818,-430.63 1818,-373.86"/>
<polygon fill="black" stroke="black" points="1821.5,-373.83 1818,-363.83 1814.5,-373.83 1821.5,-373.83"/>
</g>
<!-- Wedge_wedge_pr1_inl -->
<g id="node16" class="node">
<title>Wedge_wedge_pr1_inl</title>
<g id="a_node16"><a xlink:href="Wedge.html#wedge_pr1_inl" xlink:title="wedge_pr1_inl">
<ellipse fill="#f070d1" stroke="black" cx="992" cy="-641.55" rx="77.2" ry="18"/>
<ellipse fill="none" stroke="black" cx="992" cy="-641.55" rx="81.19" ry="22"/>
<ellipse fill="none" stroke="black" cx="992" cy="-641.55" rx="85.19" ry="26"/>
<text text-anchor="middle" x="992" y="-637.85" font-family="Times,serif" font-size="14.00">wedge_pr1_inl</text>
</a>
</g>
</g>
<!-- Wedge_wedge_pr1_inl&#45;&gt;Wedge_wedge_pr1 -->
<g id="edge27" class="edge">
<title>Wedge_wedge_pr1_inl&#45;&gt;Wedge_wedge_pr1</title>
<path fill="none" stroke="black" d="M1047.3,-621.67C1136.45,-591.23 1310.43,-531.82 1394.81,-503.01"/>
<polygon fill="black" stroke="black" points="1396.07,-506.27 1404.4,-499.73 1393.81,-499.65 1396.07,-506.27"/>
</g>
<!-- Wedge_wedge_pr1_inl&#45;&gt;Wedge_wedge_inl -->
<g id="edge28" class="edge">
<title>Wedge_wedge_pr1_inl&#45;&gt;Wedge_wedge_inl</title>
<path fill="none" stroke="black" d="M1001.72,-615.48C1023.06,-560.45 1073.85,-429.47 1095.71,-373.1"/>
<polygon fill="black" stroke="black" points="1099.08,-374.07 1099.44,-363.48 1092.56,-371.54 1099.08,-374.07"/>
</g>
<!-- Wedge_hasbinarycoproducts -->
<g id="node17" class="node">
<title>Wedge_hasbinarycoproducts</title>
<g id="a_node17"><a xlink:href="Wedge.html#hasbinarycoproducts" xlink:title="hasbinarycoproducts">
<ellipse fill="#f070d1" stroke="black" cx="388" cy="-983.55" rx="107.79" ry="18"/>
<ellipse fill="none" stroke="black" cx="388" cy="-983.55" rx="111.78" ry="22"/>
<ellipse fill="none" stroke="black" cx="388" cy="-983.55" rx="115.78" ry="26"/>
<text text-anchor="middle" x="388" y="-979.85" font-family="Times,serif" font-size="14.00">hasbinarycoproducts</text>
</a>
</g>
</g>
<!-- Wedge_wedge_up -->
<g id="node18" class="node">
<title>Wedge_wedge_up</title>
<g id="a_node18"><a xlink:href="Wedge.html#wedge_up" xlink:title="wedge_up">
<ellipse fill="#f070d1" stroke="black" cx="388" cy="-812.55" rx="57.39" ry="18"/>
<text text-anchor="middle" x="388" y="-808.85" font-family="Times,serif" font-size="14.00">wedge_up</text>
</a>
</g>
</g>
<!-- Wedge_hasbinarycoproducts&#45;&gt;Wedge_wedge_up -->
<g id="edge29" class="edge">
<title>Wedge_hasbinarycoproducts&#45;&gt;Wedge_wedge_up</title>
<path fill="none" stroke="black" d="M388,-957.25C388,-925.98 388,-872.97 388,-840.82"/>
<polygon fill="black" stroke="black" points="391.5,-840.77 388,-830.78 384.5,-840.78 391.5,-840.77"/>
</g>
<!-- Wedge_wedge_rec_beta_inr -->
<g id="node28" class="node">
<title>Wedge_wedge_rec_beta_inr</title>
<g id="a_node28"><a xlink:href="Wedge.html#wedge_rec_beta_inr" xlink:title="wedge_rec_beta_inr">
<ellipse fill="#f070d1" stroke="black" cx="2279" cy="-641.55" rx="102.88" ry="18"/>
<text text-anchor="middle" x="2279" y="-637.85" font-family="Times,serif" font-size="14.00">wedge_rec_beta_inr</text>
</a>
</g>
</g>
<!-- Wedge_hasbinarycoproducts&#45;&gt;Wedge_wedge_rec_beta_inr -->
<g id="edge30" class="edge">
<title>Wedge_hasbinarycoproducts&#45;&gt;Wedge_wedge_rec_beta_inr</title>
<path fill="none" stroke="black" d="M500.25,-976.89C851,-958.64 1911.57,-899.01 2054,-838.55 2077.63,-828.52 2199.6,-716.48 2253.42,-666.44"/>
<polygon fill="black" stroke="black" points="2255.92,-668.9 2260.85,-659.53 2251.15,-663.78 2255.92,-668.9"/>
</g>
<!-- Wedge_wedge_rec_beta_inl -->
<g id="node29" class="node">
<title>Wedge_wedge_rec_beta_inl</title>
<g id="a_node29"><a xlink:href="Wedge.html#wedge_rec_beta_inl" xlink:title="wedge_rec_beta_inl">
<ellipse fill="#f070d1" stroke="black" cx="518" cy="-485.55" rx="100.98" ry="18"/>
<text text-anchor="middle" x="518" y="-481.85" font-family="Times,serif" font-size="14.00">wedge_rec_beta_inl</text>
</a>
</g>
</g>
<!-- Wedge_hasbinarycoproducts&#45;&gt;Wedge_wedge_rec_beta_inl -->
<g id="edge31" class="edge">
<title>Wedge_hasbinarycoproducts&#45;&gt;Wedge_wedge_rec_beta_inl</title>
<path fill="none" stroke="black" d="M333.74,-960.35C208.12,-905.81 -83.8,-759.22 27,-615.55 75.34,-552.87 297.6,-514.64 425.9,-497.41"/>
<polygon fill="black" stroke="black" points="426.66,-500.84 436.11,-496.05 425.74,-493.9 426.66,-500.84"/>
</g>
<!-- Wedge_wedge_ind_FlFr -->
<g id="node21" class="node">
<title>Wedge_wedge_ind_FlFr</title>
<g id="a_node21"><a xlink:href="Wedge.html#wedge_ind_FlFr" xlink:title="wedge_ind_FlFr">
<ellipse fill="#f070d1" stroke="black" cx="388" cy="-641.55" rx="84.49" ry="18"/>
<text text-anchor="middle" x="388" y="-637.85" font-family="Times,serif" font-size="14.00">wedge_ind_FlFr</text>
</a>
</g>
</g>
<!-- Wedge_wedge_up&#45;&gt;Wedge_wedge_ind_FlFr -->
<g id="edge32" class="edge">
<title>Wedge_wedge_up&#45;&gt;Wedge_wedge_ind_FlFr</title>
<path fill="none" stroke="black" d="M388,-794.42C388,-765.06 388,-704.93 388,-669.78"/>
<polygon fill="black" stroke="black" points="391.5,-669.73 388,-659.73 384.5,-669.73 391.5,-669.73"/>
</g>
<!-- Wedge_wedge_ind_FFlr -->
<g id="node19" class="node">
<title>Wedge_wedge_ind_FFlr</title>
<g id="a_node19"><a xlink:href="Wedge.html#wedge_ind_FFlr" xlink:title="wedge_ind_FFlr">
<ellipse fill="#f070d1" stroke="black" cx="796" cy="-641.55" rx="84.49" ry="18"/>
<ellipse fill="none" stroke="black" cx="796" cy="-641.55" rx="88.49" ry="22"/>
<ellipse fill="none" stroke="black" cx="796" cy="-641.55" rx="92.49" ry="26"/>
<text text-anchor="middle" x="796" y="-637.85" font-family="Times,serif" font-size="14.00">wedge_ind_FFlr</text>
</a>
</g>
</g>
<!-- Wedge_wedge_ind_FFlr&#45;&gt;Wedge_wedge_ind -->
<g id="edge33" class="edge">
<title>Wedge_wedge_ind_FFlr&#45;&gt;Wedge_wedge_ind</title>
<path fill="none" stroke="black" d="M780.09,-615.81C761.85,-587.42 732.06,-541.09 713.55,-512.29"/>
<polygon fill="black" stroke="black" points="716.31,-510.12 707.96,-503.6 710.43,-513.91 716.31,-510.12"/>
</g>
<!-- Wedge_wedge_ind_FFl -->
<g id="node20" class="node">
<title>Wedge_wedge_ind_FFl</title>
<g id="a_node20"><a xlink:href="Wedge.html#wedge_ind_FFl" xlink:title="wedge_ind_FFl">
<ellipse fill="#f070d1" stroke="black" cx="598" cy="-641.55" rx="79.89" ry="18"/>
<ellipse fill="none" stroke="black" cx="598" cy="-641.55" rx="83.89" ry="22"/>
<ellipse fill="none" stroke="black" cx="598" cy="-641.55" rx="87.89" ry="26"/>
<text text-anchor="middle" x="598" y="-637.85" font-family="Times,serif" font-size="14.00">wedge_ind_FFl</text>
</a>
</g>
</g>
<!-- Wedge_wedge_ind_FFl&#45;&gt;Wedge_wedge_ind -->
<g id="edge34" class="edge">
<title>Wedge_wedge_ind_FFl&#45;&gt;Wedge_wedge_ind</title>
<path fill="none" stroke="black" d="M613.91,-615.81C632.15,-587.42 661.94,-541.09 680.45,-512.29"/>
<polygon fill="black" stroke="black" points="683.57,-513.91 686.04,-503.6 677.69,-510.12 683.57,-513.91"/>
</g>
<!-- Wedge_wedge_ind_FlFr&#45;&gt;Wedge_wedge_ind -->
<g id="edge35" class="edge">
<title>Wedge_wedge_ind_FlFr&#45;&gt;Wedge_wedge_ind</title>
<path fill="none" stroke="black" d="M419.62,-624.79C476.68,-596.36 596.66,-536.56 658.44,-505.77"/>
<polygon fill="black" stroke="black" points="660.09,-508.86 667.48,-501.27 656.96,-502.59 660.09,-508.86"/>
</g>
<!-- Wedge_wedge_ind_beta_wglue -->
<g id="node22" class="node">
<title>Wedge_wedge_ind_beta_wglue</title>
<g id="a_node22"><a xlink:href="Wedge.html#wedge_ind_beta_wglue" xlink:title="wedge_ind_beta_wglue">
<ellipse fill="#f070d1" stroke="black" cx="161" cy="-641.55" rx="116.98" ry="18"/>
<ellipse fill="none" stroke="black" cx="161" cy="-641.55" rx="120.98" ry="22"/>
<ellipse fill="none" stroke="black" cx="161" cy="-641.55" rx="124.98" ry="26"/>
<text text-anchor="middle" x="161" y="-637.85" font-family="Times,serif" font-size="14.00">wedge_ind_beta_wglue</text>
</a>
</g>
</g>
<!-- Wedge_wedge_ind_beta_wglue&#45;&gt;Wedge_wedge_ind -->
<g id="edge36" class="edge">
<title>Wedge_wedge_ind_beta_wglue&#45;&gt;Wedge_wedge_ind</title>
<path fill="none" stroke="black" d="M232.18,-620.1C341.78,-588.61 549.26,-529 645.54,-501.34"/>
<polygon fill="black" stroke="black" points="646.69,-504.65 655.33,-498.52 644.75,-497.92 646.69,-504.65"/>
</g>
<!-- Wedge_wedge_ind&#45;&gt;Wedge_wedge_inr -->
<g id="edge37" class="edge">
<title>Wedge_wedge_ind&#45;&gt;Wedge_wedge_inr</title>
<path fill="none" stroke="black" d="M751.45,-477.85C938.6,-454.81 1554.94,-378.94 1754.81,-354.33"/>
<polygon fill="black" stroke="black" points="1755.36,-357.79 1764.86,-353.09 1754.5,-350.84 1755.36,-357.79"/>
</g>
<!-- Wedge_wedge_ind&#45;&gt;Wedge_wedge_inl -->
<g id="edge38" class="edge">
<title>Wedge_wedge_ind&#45;&gt;Wedge_wedge_inl</title>
<path fill="none" stroke="black" d="M735.48,-471.57C810.77,-446.16 977.32,-389.97 1058.99,-362.41"/>
<polygon fill="black" stroke="black" points="1060.16,-365.71 1068.51,-359.2 1057.92,-359.08 1060.16,-365.71"/>
</g>
<!-- Wedge_wedge_incl -->
<g id="node25" class="node">
<title>Wedge_wedge_incl</title>
<g id="a_node25"><a xlink:href="Wedge.html#wedge_incl" xlink:title="wedge_incl">
<ellipse fill="#f070d1" stroke="black" cx="1443" cy="-641.55" rx="61.99" ry="18"/>
<text text-anchor="middle" x="1443" y="-637.85" font-family="Times,serif" font-size="14.00">wedge_incl</text>
</a>
</g>
</g>
<!-- Wedge_wedge_incl_beta_wglue&#45;&gt;Wedge_wedge_incl -->
<g id="edge39" class="edge">
<title>Wedge_wedge_incl_beta_wglue&#45;&gt;Wedge_wedge_incl</title>
<path fill="none" stroke="black" d="M1880.87,-795.82C1805.07,-769.38 1647.35,-714.33 1514,-667.55 1506.37,-664.88 1498.29,-662.03 1490.41,-659.26"/>
<polygon fill="black" stroke="black" points="1491.54,-655.95 1480.95,-655.93 1489.22,-662.55 1491.54,-655.95"/>
</g>
<!-- Wedge_wedge_incl_beta_wglue&#45;&gt;Wedge_wedge_rec_beta_wglue -->
<g id="edge40" class="edge">
<title>Wedge_wedge_incl_beta_wglue&#45;&gt;Wedge_wedge_rec_beta_wglue</title>
<path fill="none" stroke="black" d="M1972.36,-795.87C2024.41,-775.46 2106.27,-734.31 2142,-667.55 2172.22,-611.08 2112.08,-544.95 2073.29,-510.37"/>
<polygon fill="black" stroke="black" points="2075.22,-507.41 2065.38,-503.49 2070.63,-512.69 2075.22,-507.41"/>
</g>
<!-- Wedge_wedge_incl&#45;&gt;Wedge_wedge_pr2 -->
<g id="edge41" class="edge">
<title>Wedge_wedge_incl&#45;&gt;Wedge_wedge_pr2</title>
<path fill="none" stroke="black" d="M1460.66,-624.07C1490.06,-596.63 1549.14,-541.49 1582.87,-510"/>
<polygon fill="black" stroke="black" points="1585.55,-512.29 1590.47,-502.91 1580.77,-507.18 1585.55,-512.29"/>
</g>
<!-- Wedge_wedge_incl&#45;&gt;Wedge_wedge_pr1 -->
<g id="edge42" class="edge">
<title>Wedge_wedge_incl&#45;&gt;Wedge_wedge_pr1</title>
<path fill="none" stroke="black" d="M1443,-623.48C1443,-597 1443,-545.78 1443,-514.04"/>
<polygon fill="black" stroke="black" points="1446.5,-513.7 1443,-503.7 1439.5,-513.7 1446.5,-513.7"/>
</g>
<!-- Wedge_wedge_rec -->
<g id="node31" class="node">
<title>Wedge_wedge_rec</title>
<g id="a_node31"><a xlink:href="Wedge.html#wedge_rec" xlink:title="wedge_rec">
<ellipse fill="#f070d1" stroke="black" cx="1525" cy="-345.55" rx="59.59" ry="18"/>
<text text-anchor="middle" x="1525" y="-341.85" font-family="Times,serif" font-size="14.00">wedge_rec</text>
</a>
</g>
</g>
<!-- Wedge_wedge_pr2&#45;&gt;Wedge_wedge_rec -->
<g id="edge43" class="edge">
<title>Wedge_wedge_pr2&#45;&gt;Wedge_wedge_rec</title>
<path fill="none" stroke="black" d="M1597.82,-467.63C1583.51,-443.83 1557.32,-400.28 1540.55,-372.41"/>
<polygon fill="black" stroke="black" points="1543.41,-370.38 1535.26,-363.61 1537.42,-373.98 1543.41,-370.38"/>
</g>
<!-- Wedge_wedge_pr1&#45;&gt;Wedge_wedge_rec -->
<g id="edge44" class="edge">
<title>Wedge_wedge_pr1&#45;&gt;Wedge_wedge_rec</title>
<path fill="none" stroke="black" d="M1453.05,-467.63C1467.19,-443.83 1493.07,-400.28 1509.63,-372.41"/>
<polygon fill="black" stroke="black" points="1512.76,-374 1514.86,-363.61 1506.75,-370.42 1512.76,-374"/>
</g>
<!-- Wedge_wedge_rec_beta_inr&#45;&gt;Wedge_wedge_rec_beta_wglue -->
<g id="edge45" class="edge">
<title>Wedge_wedge_rec_beta_inr&#45;&gt;Wedge_wedge_rec_beta_wglue</title>
<path fill="none" stroke="black" d="M2253.85,-624.07C2211.38,-596.24 2125.43,-539.91 2077.76,-508.67"/>
<polygon fill="black" stroke="black" points="2079.61,-505.7 2069.32,-503.15 2075.77,-511.55 2079.61,-505.7"/>
</g>
<!-- Wedge_wedge_rec_beta_inr&#45;&gt;Wedge_wedge_inr -->
<g id="edge46" class="edge">
<title>Wedge_wedge_rec_beta_inr&#45;&gt;Wedge_wedge_inr</title>
<path fill="none" stroke="black" d="M2272.73,-623.35C2259.28,-588.81 2224.41,-510.64 2170,-467.55 2083.76,-399.25 1956.55,-368.28 1881,-355.19"/>
<polygon fill="black" stroke="black" points="1881.14,-351.67 1870.7,-353.47 1879.98,-358.57 1881.14,-351.67"/>
</g>
<!-- Wedge_wedge_rec_beta_inl&#45;&gt;Wedge_wedge_rec -->
<g id="edge47" class="edge">
<title>Wedge_wedge_rec_beta_inl&#45;&gt;Wedge_wedge_rec</title>
<path fill="none" stroke="black" d="M591.04,-473.06C603.37,-471.18 616.05,-469.28 628,-467.55 939.91,-422.42 1313.66,-373.73 1460.9,-354.77"/>
<polygon fill="black" stroke="black" points="1461.64,-358.2 1471.11,-353.45 1460.74,-351.26 1461.64,-358.2"/>
</g>
<!-- Wedge_wedge_rec_beta_inl&#45;&gt;Wedge_wedge_inl -->
<g id="edge48" class="edge">
<title>Wedge_wedge_rec_beta_inl&#45;&gt;Wedge_wedge_inl</title>
<path fill="none" stroke="black" d="M576.53,-470.81C690.61,-444.04 941.21,-385.22 1051.77,-359.28"/>
<polygon fill="black" stroke="black" points="1052.77,-362.64 1061.71,-356.95 1051.17,-355.82 1052.77,-362.64"/>
</g>
<!-- Wedge_wedge_rec_beta_wglue&#45;&gt;Wedge_wedge_rec -->
<g id="edge49" class="edge">
<title>Wedge_wedge_rec_beta_wglue&#45;&gt;Wedge_wedge_rec</title>
<path fill="none" stroke="black" d="M1987.96,-469.65C1887.23,-442.87 1676.89,-386.94 1578.23,-360.71"/>
<polygon fill="black" stroke="black" points="1579.04,-357.3 1568.47,-358.11 1577.24,-364.06 1579.04,-357.3"/>
</g>
<!-- Wedge_wglue -->
<g id="node35" class="node">
<title>Wedge_wglue</title>
<g id="a_node35"><a xlink:href="Wedge.html#wglue" xlink:title="wglue">
<ellipse fill="#f070d1" stroke="black" cx="1818" cy="-205.55" rx="38.19" ry="18"/>
<text text-anchor="middle" x="1818" y="-201.85" font-family="Times,serif" font-size="14.00">wglue</text>
</a>
</g>
</g>
<!-- Wedge_wedge_rec_beta_wglue&#45;&gt;Wedge_wglue -->
<g id="edge50" class="edge">
<title>Wedge_wedge_rec_beta_wglue&#45;&gt;Wedge_wglue</title>
<path fill="none" stroke="black" d="M2030.2,-467.58C1991.55,-420.04 1882.13,-285.44 1837.41,-230.42"/>
<polygon fill="black" stroke="black" points="1840.07,-228.16 1831.05,-222.6 1834.64,-232.57 1840.07,-228.16"/>
</g>
<!-- Wedge_wedge_rec_ -->
<g id="node32" class="node">
<title>Wedge_wedge_rec_</title>
<g id="a_node32"><a xlink:href="Wedge.html#wedge_rec'" xlink:title="wedge_rec&#39;">
<ellipse fill="#f070d1" stroke="black" cx="1525" cy="-205.55" rx="62.29" ry="18"/>
<text text-anchor="middle" x="1525" y="-201.85" font-family="Times,serif" font-size="14.00">wedge_rec&#39;</text>
</a>
</g>
</g>
<!-- Wedge_wedge_rec&#45;&gt;Wedge_wedge_rec_ -->
<g id="edge51" class="edge">
<title>Wedge_wedge_rec&#45;&gt;Wedge_wedge_rec_</title>
<path fill="none" stroke="black" d="M1525,-327.35C1525,-304.01 1525,-262.02 1525,-234.21"/>
<polygon fill="black" stroke="black" points="1528.5,-233.97 1525,-223.97 1521.5,-233.97 1528.5,-233.97"/>
</g>
<!-- Wedge_Wedge -->
<g id="node36" class="node">
<title>Wedge_Wedge</title>
<g id="a_node36"><a xlink:href="Wedge.html#Wedge" xlink:title="Wedge">
<ellipse fill="#f070d1" stroke="black" cx="1525" cy="-66.55" rx="42.49" ry="18"/>
<text text-anchor="middle" x="1525" y="-62.85" font-family="Times,serif" font-size="14.00">Wedge</text>
</a>
</g>
</g>
<!-- Wedge_wedge_rec_&#45;&gt;Wedge_Wedge -->
<g id="edge52" class="edge">
<title>Wedge_wedge_rec_&#45;&gt;Wedge_Wedge</title>
<path fill="none" stroke="black" d="M1525,-187.48C1525,-164.3 1525,-122.62 1525,-95.01"/>
<polygon fill="black" stroke="black" points="1528.5,-94.84 1525,-84.84 1521.5,-94.84 1528.5,-94.84"/>
</g>
<!-- Wedge_wedge_inr&#45;&gt;Wedge_wglue -->
<g id="edge53" class="edge">
<title>Wedge_wedge_inr&#45;&gt;Wedge_wglue</title>
<path fill="none" stroke="black" d="M1818,-327.35C1818,-304.01 1818,-262.02 1818,-234.21"/>
<polygon fill="black" stroke="black" points="1821.5,-233.97 1818,-223.97 1814.5,-233.97 1821.5,-233.97"/>
</g>
<!-- Wedge_wedge_inl&#45;&gt;Wedge_Wedge -->
<g id="edge54" class="edge">
<title>Wedge_wedge_inl&#45;&gt;Wedge_Wedge</title>
<path fill="none" stroke="black" d="M1129.43,-329.06C1200.62,-282 1414.42,-140.65 1494.38,-87.79"/>
<polygon fill="black" stroke="black" points="1496.6,-90.52 1503.01,-82.09 1492.74,-84.68 1496.6,-90.52"/>
</g>
<!-- Wedge_wglue&#45;&gt;Wedge_Wedge -->
<g id="edge55" class="edge">
<title>Wedge_wglue&#45;&gt;Wedge_Wedge</title>
<path fill="none" stroke="black" d="M1791.74,-192.27C1739.34,-167.77 1621.7,-112.76 1561.7,-84.71"/>
<polygon fill="black" stroke="black" points="1563.12,-81.51 1552.58,-80.45 1560.16,-87.85 1563.12,-81.51"/>
</g>
</g>
</svg>
