<?xml version="1.0" encoding="UTF-8" standalone="no"?>
<!DOCTYPE svg PUBLIC "-//W3C//DTD SVG 1.1//EN"
 "http://www.w3.org/Graphics/SVG/1.1/DTD/svg11.dtd">
<!-- Generated by graphviz version 2.43.0 (0)
 -->
<!-- Title: HoTT_Modalities_Fracture Pages: 1 -->
<svg width="1366pt" height="687pt"
 viewBox="0.00 0.00 1366.00 687.00" xmlns="http://www.w3.org/2000/svg" xmlns:xlink="http://www.w3.org/1999/xlink">
<g id="graph0" class="graph" transform="scale(1 1) rotate(0) translate(4 683)">
<title>HoTT_Modalities_Fracture</title>
<polygon fill="white" stroke="transparent" points="-4,4 -4,-683 1362,-683 1362,4 -4,4"/>
<g id="clust1" class="cluster">
<title>cluster_Fracture</title>
<polygon fill="#ffffc3" stroke="black" points="8,-12.72 8,-666.28 1350,-666.28 1350,-12.72 8,-12.72"/>
<text text-anchor="middle" x="47.5" y="-651.08" font-family="Times,serif" font-size="14.00">Fracture</text>
</g>
<!-- Fracture_disjoint_open_closed_ -->
<g id="node1" class="node">
<title>Fracture_disjoint_open_closed_</title>
<g id="a_node1"><a xlink:href="Fracture.html#disjoint_open_closed'" xlink:title="disjoint_open_closed&#39;">
<ellipse fill="#f070d1" stroke="black" cx="1120" cy="-320.72" rx="108.58" ry="18"/>
<ellipse fill="none" stroke="black" cx="1120" cy="-320.72" rx="112.58" ry="22"/>
<ellipse fill="none" stroke="black" cx="1120" cy="-320.72" rx="116.58" ry="26"/>
<text text-anchor="middle" x="1120" y="-317.02" font-family="Times,serif" font-size="14.00">disjoint_open_closed&#39;</text>
</a>
</g>
</g>
<!-- Fracture_Disjoint -->
<g id="node12" class="node">
<title>Fracture_Disjoint</title>
<g id="a_node12"><a xlink:href="Fracture.html#Disjoint" xlink:title="Disjoint">
<ellipse fill="#f070d1" stroke="black" cx="801" cy="-181.72" rx="46.59" ry="18"/>
<text text-anchor="middle" x="801" y="-178.02" font-family="Times,serif" font-size="14.00">Disjoint</text>
</a>
</g>
</g>
<!-- Fracture_disjoint_open_closed_&#45;&gt;Fracture_Disjoint -->
<g id="edge1" class="edge">
<title>Fracture_disjoint_open_closed_&#45;&gt;Fracture_Disjoint</title>
<path fill="none" stroke="black" d="M1066.99,-297.46C1013.79,-275.05 929.56,-239.36 857,-207.72 851.44,-205.29 845.57,-202.71 839.82,-200.16"/>
<polygon fill="black" stroke="black" points="840.87,-196.79 830.31,-195.92 838.02,-203.19 840.87,-196.79"/>
</g>
<!-- Fracture_gluable_open_closed_ -->
<g id="node2" class="node">
<title>Fracture_gluable_open_closed_</title>
<g id="a_node2"><a xlink:href="Fracture.html#gluable_open_closed'" xlink:title="gluable_open_closed&#39;">
<ellipse fill="#f070d1" stroke="black" cx="1226" cy="-181.72" rx="107.79" ry="18"/>
<ellipse fill="none" stroke="black" cx="1226" cy="-181.72" rx="111.78" ry="22"/>
<ellipse fill="none" stroke="black" cx="1226" cy="-181.72" rx="115.78" ry="26"/>
<text text-anchor="middle" x="1226" y="-178.02" font-family="Times,serif" font-size="14.00">gluable_open_closed&#39;</text>
</a>
</g>
</g>
<!-- Fracture_Gluable -->
<g id="node14" class="node">
<title>Fracture_Gluable</title>
<g id="a_node14"><a xlink:href="Fracture.html#Gluable" xlink:title="Gluable">
<ellipse fill="#f070d1" stroke="black" cx="979" cy="-53.72" rx="46.29" ry="18"/>
<text text-anchor="middle" x="979" y="-50.02" font-family="Times,serif" font-size="14.00">Gluable</text>
</a>
</g>
</g>
<!-- Fracture_gluable_open_closed_&#45;&gt;Fracture_Gluable -->
<g id="edge2" class="edge">
<title>Fracture_gluable_open_closed_&#45;&gt;Fracture_Gluable</title>
<path fill="none" stroke="black" d="M1180.98,-157.76C1133.28,-133.42 1058.89,-95.48 1014.95,-73.06"/>
<polygon fill="black" stroke="black" points="1016.29,-69.82 1005.79,-68.39 1013.11,-76.05 1016.29,-69.82"/>
</g>
<!-- Fracture_disjoint_open_closed -->
<g id="node3" class="node">
<title>Fracture_disjoint_open_closed</title>
<g id="a_node3"><a xlink:href="Fracture.html#disjoint_open_closed" xlink:title="disjoint_open_closed">
<ellipse fill="#f070d1" stroke="black" cx="872" cy="-320.72" rx="105.89" ry="18"/>
<ellipse fill="none" stroke="black" cx="872" cy="-320.72" rx="109.88" ry="22"/>
<ellipse fill="none" stroke="black" cx="872" cy="-320.72" rx="113.88" ry="26"/>
<text text-anchor="middle" x="872" y="-317.02" font-family="Times,serif" font-size="14.00">disjoint_open_closed</text>
</a>
</g>
</g>
<!-- Fracture_disjoint_open_closed&#45;&gt;Fracture_Disjoint -->
<g id="edge3" class="edge">
<title>Fracture_disjoint_open_closed&#45;&gt;Fracture_Disjoint</title>
<path fill="none" stroke="black" d="M858.98,-294.59C846.33,-270.18 827.2,-233.28 814.42,-208.61"/>
<polygon fill="black" stroke="black" points="817.4,-206.76 809.69,-199.49 811.18,-209.98 817.4,-206.76"/>
</g>
<!-- Fracture_gluable_open_closed -->
<g id="node4" class="node">
<title>Fracture_gluable_open_closed</title>
<g id="a_node4"><a xlink:href="Fracture.html#gluable_open_closed" xlink:title="gluable_open_closed">
<ellipse fill="#f070d1" stroke="black" cx="979" cy="-181.72" rx="105.1" ry="18"/>
<ellipse fill="none" stroke="black" cx="979" cy="-181.72" rx="109.09" ry="22"/>
<ellipse fill="none" stroke="black" cx="979" cy="-181.72" rx="113.08" ry="26"/>
<text text-anchor="middle" x="979" y="-178.02" font-family="Times,serif" font-size="14.00">gluable_open_closed</text>
</a>
</g>
</g>
<!-- Fracture_gluable_open_closed&#45;&gt;Fracture_Gluable -->
<g id="edge4" class="edge">
<title>Fracture_gluable_open_closed&#45;&gt;Fracture_Gluable</title>
<path fill="none" stroke="black" d="M979,-155.53C979,-134.27 979,-103.9 979,-82.06"/>
<polygon fill="black" stroke="black" points="982.5,-81.8 979,-71.8 975.5,-81.8 982.5,-81.8"/>
</g>
<!-- Fracture_equiv_fracture_unglue -->
<g id="node5" class="node">
<title>Fracture_equiv_fracture_unglue</title>
<g id="a_node5"><a xlink:href="Fracture.html#equiv_fracture_unglue" xlink:title="equiv_fracture_unglue">
<ellipse fill="#f070d1" stroke="black" cx="502" cy="-575.72" rx="114.29" ry="18"/>
<ellipse fill="none" stroke="black" cx="502" cy="-575.72" rx="118.28" ry="22"/>
<ellipse fill="none" stroke="black" cx="502" cy="-575.72" rx="122.28" ry="26"/>
<text text-anchor="middle" x="502" y="-572.02" font-family="Times,serif" font-size="14.00">equiv_fracture_unglue</text>
</a>
</g>
</g>
<!-- Fracture_isequiv_fracture_unglue -->
<g id="node6" class="node">
<title>Fracture_isequiv_fracture_unglue</title>
<g id="a_node6"><a xlink:href="Fracture.html#isequiv_fracture_unglue" xlink:title="isequiv_fracture_unglue">
<ellipse fill="#f070d1" stroke="black" cx="502" cy="-448.72" rx="122.38" ry="18"/>
<text text-anchor="middle" x="502" y="-445.02" font-family="Times,serif" font-size="14.00">isequiv_fracture_unglue</text>
</a>
</g>
</g>
<!-- Fracture_equiv_fracture_unglue&#45;&gt;Fracture_isequiv_fracture_unglue -->
<g id="edge5" class="edge">
<title>Fracture_equiv_fracture_unglue&#45;&gt;Fracture_isequiv_fracture_unglue</title>
<path fill="none" stroke="black" d="M502,-549.43C502,-528.43 502,-498.63 502,-477.09"/>
<polygon fill="black" stroke="black" points="505.5,-476.95 502,-466.95 498.5,-476.95 505.5,-476.95"/>
</g>
<!-- Fracture_fracture_unglue_issect -->
<g id="node7" class="node">
<title>Fracture_fracture_unglue_issect</title>
<g id="a_node7"><a xlink:href="Fracture.html#fracture_unglue_issect" xlink:title="fracture_unglue_issect">
<ellipse fill="#f070d1" stroke="black" cx="378" cy="-320.72" rx="115.88" ry="18"/>
<text text-anchor="middle" x="378" y="-317.02" font-family="Times,serif" font-size="14.00">fracture_unglue_issect</text>
</a>
</g>
</g>
<!-- Fracture_isequiv_fracture_unglue&#45;&gt;Fracture_fracture_unglue_issect -->
<g id="edge6" class="edge">
<title>Fracture_isequiv_fracture_unglue&#45;&gt;Fracture_fracture_unglue_issect</title>
<path fill="none" stroke="black" d="M485.28,-430.73C463.83,-408.93 426.49,-370.99 402.01,-346.12"/>
<polygon fill="black" stroke="black" points="404.36,-343.52 394.85,-338.85 399.37,-348.43 404.36,-343.52"/>
</g>
<!-- Fracture_fracture_unglue_isretr -->
<g id="node8" class="node">
<title>Fracture_fracture_unglue_isretr</title>
<g id="a_node8"><a xlink:href="Fracture.html#fracture_unglue_isretr" xlink:title="fracture_unglue_isretr">
<ellipse fill="#f070d1" stroke="black" cx="626" cy="-320.72" rx="114.28" ry="18"/>
<text text-anchor="middle" x="626" y="-317.02" font-family="Times,serif" font-size="14.00">fracture_unglue_isretr</text>
</a>
</g>
</g>
<!-- Fracture_isequiv_fracture_unglue&#45;&gt;Fracture_fracture_unglue_isretr -->
<g id="edge7" class="edge">
<title>Fracture_isequiv_fracture_unglue&#45;&gt;Fracture_fracture_unglue_isretr</title>
<path fill="none" stroke="black" d="M518.72,-430.73C540.17,-408.93 577.51,-370.99 601.99,-346.12"/>
<polygon fill="black" stroke="black" points="604.63,-348.43 609.15,-338.85 599.64,-343.52 604.63,-348.43"/>
</g>
<!-- Fracture_fracture_unglue -->
<g id="node9" class="node">
<title>Fracture_fracture_unglue</title>
<g id="a_node9"><a xlink:href="Fracture.html#fracture_unglue" xlink:title="fracture_unglue">
<ellipse fill="#f070d1" stroke="black" cx="652" cy="-181.72" rx="84.49" ry="18"/>
<text text-anchor="middle" x="652" y="-178.02" font-family="Times,serif" font-size="14.00">fracture_unglue</text>
</a>
</g>
</g>
<!-- Fracture_fracture_unglue_issect&#45;&gt;Fracture_fracture_unglue -->
<g id="edge8" class="edge">
<title>Fracture_fracture_unglue_issect&#45;&gt;Fracture_fracture_unglue</title>
<path fill="none" stroke="black" d="M410.78,-303.33C461,-278.22 556.88,-230.28 611.42,-203.01"/>
<polygon fill="black" stroke="black" points="613.07,-206.1 620.45,-198.49 609.94,-199.84 613.07,-206.1"/>
</g>
<!-- Fracture_fracture_glue_uncurried -->
<g id="node11" class="node">
<title>Fracture_fracture_glue_uncurried</title>
<g id="a_node11"><a xlink:href="Fracture.html#fracture_glue_uncurried" xlink:title="fracture_glue_uncurried">
<ellipse fill="#f070d1" stroke="black" cx="138" cy="-181.72" rx="122.38" ry="18"/>
<text text-anchor="middle" x="138" y="-178.02" font-family="Times,serif" font-size="14.00">fracture_glue_uncurried</text>
</a>
</g>
</g>
<!-- Fracture_fracture_unglue_issect&#45;&gt;Fracture_fracture_glue_uncurried -->
<g id="edge9" class="edge">
<title>Fracture_fracture_unglue_issect&#45;&gt;Fracture_fracture_glue_uncurried</title>
<path fill="none" stroke="black" d="M349.05,-303.2C305.71,-278.46 223.95,-231.78 175.9,-204.36"/>
<polygon fill="black" stroke="black" points="177.47,-201.22 167.05,-199.31 174,-207.3 177.47,-201.22"/>
</g>
<!-- Fracture_ispullback_fracture_square -->
<g id="node13" class="node">
<title>Fracture_ispullback_fracture_square</title>
<g id="a_node13"><a xlink:href="Fracture.html#ispullback_fracture_square" xlink:title="ispullback_fracture_square">
<ellipse fill="#f070d1" stroke="black" cx="414" cy="-181.72" rx="135.68" ry="18"/>
<text text-anchor="middle" x="414" y="-178.02" font-family="Times,serif" font-size="14.00">ispullback_fracture_square</text>
</a>
</g>
</g>
<!-- Fracture_fracture_unglue_issect&#45;&gt;Fracture_ispullback_fracture_square -->
<g id="edge10" class="edge">
<title>Fracture_fracture_unglue_issect&#45;&gt;Fracture_ispullback_fracture_square</title>
<path fill="none" stroke="black" d="M382.49,-302.65C388.6,-279.37 399.63,-237.42 406.88,-209.82"/>
<polygon fill="black" stroke="black" points="410.3,-210.57 409.46,-200.01 403.53,-208.79 410.3,-210.57"/>
</g>
<!-- Fracture_fracture_unglue_isretr&#45;&gt;Fracture_fracture_unglue -->
<g id="edge11" class="edge">
<title>Fracture_fracture_unglue_isretr&#45;&gt;Fracture_fracture_unglue</title>
<path fill="none" stroke="black" d="M629.24,-302.65C633.64,-279.47 641.55,-237.79 646.79,-210.18"/>
<polygon fill="black" stroke="black" points="650.29,-210.49 648.72,-200.01 643.42,-209.18 650.29,-210.49"/>
</g>
<!-- Fracture_fracture_unglue_isretr&#45;&gt;Fracture_fracture_glue_uncurried -->
<g id="edge12" class="edge">
<title>Fracture_fracture_unglue_isretr&#45;&gt;Fracture_fracture_glue_uncurried</title>
<path fill="none" stroke="black" d="M572.38,-304.67C481.78,-279.23 298.8,-227.86 201.77,-200.62"/>
<polygon fill="black" stroke="black" points="202.66,-197.24 192.08,-197.9 200.76,-203.98 202.66,-197.24"/>
</g>
<!-- Fracture_fracture_unglue_isretr&#45;&gt;Fracture_Disjoint -->
<g id="edge13" class="edge">
<title>Fracture_fracture_unglue_isretr&#45;&gt;Fracture_Disjoint</title>
<path fill="none" stroke="black" d="M647.46,-302.92C679.14,-278.12 738.45,-231.69 773.36,-204.36"/>
<polygon fill="black" stroke="black" points="775.54,-207.1 781.25,-198.18 771.22,-201.59 775.54,-207.1"/>
</g>
<!-- Fracture_fracture_glue -->
<g id="node10" class="node">
<title>Fracture_fracture_glue</title>
<g id="a_node10"><a xlink:href="Fracture.html#fracture_glue" xlink:title="fracture_glue">
<ellipse fill="#f070d1" stroke="black" cx="138" cy="-320.72" rx="72.61" ry="18"/>
<ellipse fill="none" stroke="black" cx="138" cy="-320.72" rx="76.6" ry="22"/>
<ellipse fill="none" stroke="black" cx="138" cy="-320.72" rx="80.59" ry="26"/>
<text text-anchor="middle" x="138" y="-317.02" font-family="Times,serif" font-size="14.00">fracture_glue</text>
</a>
</g>
</g>
<!-- Fracture_fracture_glue&#45;&gt;Fracture_fracture_glue_uncurried -->
<g id="edge14" class="edge">
<title>Fracture_fracture_glue&#45;&gt;Fracture_fracture_glue_uncurried</title>
<path fill="none" stroke="black" d="M138,-294.59C138,-270.64 138,-234.66 138,-210.01"/>
<polygon fill="black" stroke="black" points="141.5,-209.89 138,-199.89 134.5,-209.89 141.5,-209.89"/>
</g>
<!-- Fracture_ispullback_fracture_square&#45;&gt;Fracture_Gluable -->
<g id="edge15" class="edge">
<title>Fracture_ispullback_fracture_square&#45;&gt;Fracture_Gluable</title>
<path fill="none" stroke="black" d="M480.2,-165.96C595,-140.36 828.46,-88.29 930,-65.65"/>
<polygon fill="black" stroke="black" points="930.99,-69.01 939.99,-63.42 929.46,-62.18 930.99,-69.01"/>
</g>
<!-- Fracture_fracture_square -->
<g id="node15" class="node">
<title>Fracture_fracture_square</title>
<g id="a_node15"><a xlink:href="Fracture.html#fracture_square" xlink:title="fracture_square">
<ellipse fill="#f070d1" stroke="black" cx="414" cy="-53.72" rx="84.49" ry="18"/>
<text text-anchor="middle" x="414" y="-50.02" font-family="Times,serif" font-size="14.00">fracture_square</text>
</a>
</g>
</g>
<!-- Fracture_ispullback_fracture_square&#45;&gt;Fracture_fracture_square -->
<g id="edge16" class="edge">
<title>Fracture_ispullback_fracture_square&#45;&gt;Fracture_fracture_square</title>
<path fill="none" stroke="black" d="M414,-163.47C414,-142.45 414,-106.69 414,-81.95"/>
<polygon fill="black" stroke="black" points="417.5,-81.77 414,-71.77 410.5,-81.77 417.5,-81.77"/>
</g>
</g>
</svg>
