<?xml version="1.0" encoding="UTF-8" standalone="no"?>
<!DOCTYPE svg PUBLIC "-//W3C//DTD SVG 1.1//EN"
 "http://www.w3.org/Graphics/SVG/1.1/DTD/svg11.dtd">
<!-- Generated by graphviz version 2.43.0 (0)
 -->
<!-- Title: HoTT_Algebra_AbGroups_AbHom Pages: 1 -->
<svg width="974pt" height="491pt"
 viewBox="0.00 0.00 974.00 491.00" xmlns="http://www.w3.org/2000/svg" xmlns:xlink="http://www.w3.org/1999/xlink">
<g id="graph0" class="graph" transform="scale(1 1) rotate(0) translate(4 487)">
<title>HoTT_Algebra_AbGroups_AbHom</title>
<polygon fill="white" stroke="transparent" points="-4,4 -4,-487 970,-487 970,4 -4,4"/>
<g id="clust1" class="cluster">
<title>cluster_AbHom</title>
<polygon fill="#ffffc3" stroke="black" points="8.01,-8 8.01,-475 957.99,-475 957.99,-8 8.01,-8"/>
<text text-anchor="middle" x="42.51" y="-459.8" font-family="Times,serif" font-size="14.00">AbHom</text>
</g>
<!-- AbHom_isembedding_precompose_surjection_ab -->
<g id="node1" class="node">
<title>AbHom_isembedding_precompose_surjection_ab</title>
<g id="a_node1"><a xlink:href="AbHom.html#isembedding_precompose_surjection_ab" xlink:title="isembedding_precompose_surjection_ab">
<ellipse fill="#f070d1" stroke="black" cx="745.13" cy="-418" rx="196.87" ry="18"/>
<ellipse fill="none" stroke="black" cx="745.13" cy="-418" rx="200.87" ry="22"/>
<ellipse fill="none" stroke="black" cx="745.13" cy="-418" rx="204.87" ry="26"/>
<text text-anchor="middle" x="745.13" y="-414.3" font-family="Times,serif" font-size="14.00">isembedding_precompose_surjection_ab</text>
</a>
</g>
</g>
<!-- AbHom_is0bifunctor_ab_hom -->
<g id="node3" class="node">
<title>AbHom_is0bifunctor_ab_hom</title>
<g id="a_node3"><a xlink:href="AbHom.html#is0bifunctor_ab_hom" xlink:title="is0bifunctor_ab_hom">
<ellipse fill="#f070d1" stroke="black" cx="792.13" cy="-338" rx="106.68" ry="18"/>
<text text-anchor="middle" x="792.13" y="-334.3" font-family="Times,serif" font-size="14.00">is0bifunctor_ab_hom</text>
</a>
</g>
</g>
<!-- AbHom_isembedding_precompose_surjection_ab&#45;&gt;AbHom_is0bifunctor_ab_hom -->
<g id="edge1" class="edge">
<title>AbHom_isembedding_precompose_surjection_ab&#45;&gt;AbHom_is0bifunctor_ab_hom</title>
<path fill="none" stroke="black" d="M760.26,-391.89C765.52,-383.16 771.42,-373.37 776.71,-364.61"/>
<polygon fill="black" stroke="black" points="779.77,-366.3 781.93,-355.93 773.77,-362.69 779.77,-366.3"/>
</g>
<!-- AbHom_is1bifunctor_ab_hom -->
<g id="node2" class="node">
<title>AbHom_is1bifunctor_ab_hom</title>
<g id="a_node2"><a xlink:href="AbHom.html#is1bifunctor_ab_hom" xlink:title="is1bifunctor_ab_hom">
<ellipse fill="#f070d1" stroke="black" cx="406.13" cy="-418" rx="106.67" ry="18"/>
<ellipse fill="none" stroke="black" cx="406.13" cy="-418" rx="110.68" ry="22"/>
<ellipse fill="none" stroke="black" cx="406.13" cy="-418" rx="114.68" ry="26"/>
<text text-anchor="middle" x="406.13" y="-414.3" font-family="Times,serif" font-size="14.00">is1bifunctor_ab_hom</text>
</a>
</g>
</g>
<!-- AbHom_is1bifunctor_ab_hom&#45;&gt;AbHom_is0bifunctor_ab_hom -->
<g id="edge2" class="edge">
<title>AbHom_is1bifunctor_ab_hom&#45;&gt;AbHom_is0bifunctor_ab_hom</title>
<path fill="none" stroke="black" d="M489.89,-400.08C557.38,-386.44 651.44,-367.43 716.63,-354.26"/>
<polygon fill="black" stroke="black" points="717.33,-357.69 726.44,-352.28 715.94,-350.83 717.33,-357.69"/>
</g>
<!-- AbHom_is1functor_ab_hom10 -->
<g id="node4" class="node">
<title>AbHom_is1functor_ab_hom10</title>
<g id="a_node4"><a xlink:href="AbHom.html#is1functor_ab_hom10" xlink:title="is1functor_ab_hom10">
<ellipse fill="#f070d1" stroke="black" cx="319.13" cy="-338" rx="109.68" ry="18"/>
<text text-anchor="middle" x="319.13" y="-334.3" font-family="Times,serif" font-size="14.00">is1functor_ab_hom10</text>
</a>
</g>
</g>
<!-- AbHom_is1bifunctor_ab_hom&#45;&gt;AbHom_is1functor_ab_hom10 -->
<g id="edge3" class="edge">
<title>AbHom_is1bifunctor_ab_hom&#45;&gt;AbHom_is1functor_ab_hom10</title>
<path fill="none" stroke="black" d="M378.61,-392.32C368.06,-382.86 356.05,-372.09 345.6,-362.72"/>
<polygon fill="black" stroke="black" points="347.74,-359.95 337.96,-355.88 343.07,-365.16 347.74,-359.95"/>
</g>
<!-- AbHom_is1functor_ab_hom01 -->
<g id="node5" class="node">
<title>AbHom_is1functor_ab_hom01</title>
<g id="a_node5"><a xlink:href="AbHom.html#is1functor_ab_hom01" xlink:title="is1functor_ab_hom01">
<ellipse fill="#f070d1" stroke="black" cx="557.13" cy="-338" rx="109.68" ry="18"/>
<text text-anchor="middle" x="557.13" y="-334.3" font-family="Times,serif" font-size="14.00">is1functor_ab_hom01</text>
</a>
</g>
</g>
<!-- AbHom_is1bifunctor_ab_hom&#45;&gt;AbHom_is1functor_ab_hom01 -->
<g id="edge4" class="edge">
<title>AbHom_is1bifunctor_ab_hom&#45;&gt;AbHom_is1functor_ab_hom01</title>
<path fill="none" stroke="black" d="M450.62,-394.02C471.44,-383.26 496.07,-370.54 516.4,-360.04"/>
<polygon fill="black" stroke="black" points="518.13,-363.09 525.41,-355.39 514.92,-356.87 518.13,-363.09"/>
</g>
<!-- AbHom_is0functor_ab_hom10 -->
<g id="node6" class="node">
<title>AbHom_is0functor_ab_hom10</title>
<g id="a_node6"><a xlink:href="AbHom.html#is0functor_ab_hom10" xlink:title="is0functor_ab_hom10">
<ellipse fill="#f070d1" stroke="black" cx="601.13" cy="-258" rx="109.68" ry="18"/>
<text text-anchor="middle" x="601.13" y="-254.3" font-family="Times,serif" font-size="14.00">is0functor_ab_hom10</text>
</a>
</g>
</g>
<!-- AbHom_is0bifunctor_ab_hom&#45;&gt;AbHom_is0functor_ab_hom10 -->
<g id="edge5" class="edge">
<title>AbHom_is0bifunctor_ab_hom&#45;&gt;AbHom_is0functor_ab_hom10</title>
<path fill="none" stroke="black" d="M753.48,-321.22C723.55,-308.99 681.9,-291.98 649.72,-278.84"/>
<polygon fill="black" stroke="black" points="650.64,-275.44 640.06,-274.89 647.99,-281.92 650.64,-275.44"/>
</g>
<!-- AbHom_is0functor_ab_hom01 -->
<g id="node7" class="node">
<title>AbHom_is0functor_ab_hom01</title>
<g id="a_node7"><a xlink:href="AbHom.html#is0functor_ab_hom01" xlink:title="is0functor_ab_hom01">
<ellipse fill="#f070d1" stroke="black" cx="840.13" cy="-258" rx="109.68" ry="18"/>
<text text-anchor="middle" x="840.13" y="-254.3" font-family="Times,serif" font-size="14.00">is0functor_ab_hom01</text>
</a>
</g>
</g>
<!-- AbHom_is0bifunctor_ab_hom&#45;&gt;AbHom_is0functor_ab_hom01 -->
<g id="edge6" class="edge">
<title>AbHom_is0bifunctor_ab_hom&#45;&gt;AbHom_is0functor_ab_hom01</title>
<path fill="none" stroke="black" d="M802.55,-320.08C808.86,-309.82 817.04,-296.53 824.15,-284.97"/>
<polygon fill="black" stroke="black" points="827.31,-286.51 829.57,-276.16 821.35,-282.84 827.31,-286.51"/>
</g>
<!-- AbHom_is1functor_ab_hom10&#45;&gt;AbHom_is0functor_ab_hom10 -->
<g id="edge7" class="edge">
<title>AbHom_is1functor_ab_hom10&#45;&gt;AbHom_is0functor_ab_hom10</title>
<path fill="none" stroke="black" d="M372.51,-322.24C419.51,-309.24 488.04,-290.28 537.81,-276.52"/>
<polygon fill="black" stroke="black" points="538.8,-279.87 547.5,-273.84 536.93,-273.13 538.8,-279.87"/>
</g>
<!-- AbHom_is1functor_ab_hom01&#45;&gt;AbHom_is0functor_ab_hom01 -->
<g id="edge8" class="edge">
<title>AbHom_is1functor_ab_hom01&#45;&gt;AbHom_is0functor_ab_hom01</title>
<path fill="none" stroke="black" d="M610.7,-322.24C657.87,-309.24 726.64,-290.28 776.58,-276.52"/>
<polygon fill="black" stroke="black" points="777.6,-279.87 786.31,-273.84 775.74,-273.12 777.6,-279.87"/>
</g>
<!-- AbHom_ab_hom -->
<g id="node13" class="node">
<title>AbHom_ab_hom</title>
<g id="a_node13"><a xlink:href="AbHom.html#ab_hom" xlink:title="ab_hom">
<ellipse fill="#f070d1" stroke="black" cx="601.13" cy="-178" rx="46.29" ry="18"/>
<text text-anchor="middle" x="601.13" y="-174.3" font-family="Times,serif" font-size="14.00">ab_hom</text>
</a>
</g>
</g>
<!-- AbHom_is0functor_ab_hom10&#45;&gt;AbHom_ab_hom -->
<g id="edge9" class="edge">
<title>AbHom_is0functor_ab_hom10&#45;&gt;AbHom_ab_hom</title>
<path fill="none" stroke="black" d="M601.13,-239.69C601.13,-229.89 601.13,-217.42 601.13,-206.33"/>
<polygon fill="black" stroke="black" points="604.63,-206.26 601.13,-196.26 597.63,-206.26 604.63,-206.26"/>
</g>
<!-- AbHom_is0functor_ab_hom01&#45;&gt;AbHom_ab_hom -->
<g id="edge10" class="edge">
<title>AbHom_is0functor_ab_hom01&#45;&gt;AbHom_ab_hom</title>
<path fill="none" stroke="black" d="M793.2,-241.68C750.28,-227.68 687.27,-207.11 645.26,-193.4"/>
<polygon fill="black" stroke="black" points="646.18,-190.02 635.58,-190.24 644,-196.67 646.18,-190.02"/>
</g>
<!-- AbHom_ab_coeq_ind_hprop -->
<g id="node8" class="node">
<title>AbHom_ab_coeq_ind_hprop</title>
<g id="a_node8"><a xlink:href="AbHom.html#ab_coeq_ind_hprop" xlink:title="ab_coeq_ind_hprop">
<ellipse fill="#f070d1" stroke="black" cx="366.13" cy="-258" rx="98.6" ry="18"/>
<ellipse fill="none" stroke="black" cx="366.13" cy="-258" rx="102.59" ry="22"/>
<ellipse fill="none" stroke="black" cx="366.13" cy="-258" rx="106.58" ry="26"/>
<text text-anchor="middle" x="366.13" y="-254.3" font-family="Times,serif" font-size="14.00">ab_coeq_ind_hprop</text>
</a>
</g>
</g>
<!-- AbHom_ab_coeq_in -->
<g id="node11" class="node">
<title>AbHom_ab_coeq_in</title>
<g id="a_node11"><a xlink:href="AbHom.html#ab_coeq_in" xlink:title="ab_coeq_in">
<ellipse fill="#f070d1" stroke="black" cx="343.13" cy="-178" rx="61.19" ry="18"/>
<text text-anchor="middle" x="343.13" y="-174.3" font-family="Times,serif" font-size="14.00">ab_coeq_in</text>
</a>
</g>
</g>
<!-- AbHom_ab_coeq_ind_hprop&#45;&gt;AbHom_ab_coeq_in -->
<g id="edge11" class="edge">
<title>AbHom_ab_coeq_ind_hprop&#45;&gt;AbHom_ab_coeq_in</title>
<path fill="none" stroke="black" d="M358.73,-231.89C356.3,-223.66 353.6,-214.48 351.13,-206.1"/>
<polygon fill="black" stroke="black" points="354.45,-205.01 348.27,-196.41 347.74,-206.99 354.45,-205.01"/>
</g>
<!-- AbHom_ab_coeq_rec_beta_in -->
<g id="node9" class="node">
<title>AbHom_ab_coeq_rec_beta_in</title>
<g id="a_node9"><a xlink:href="AbHom.html#ab_coeq_rec_beta_in" xlink:title="ab_coeq_rec_beta_in">
<ellipse fill="#f070d1" stroke="black" cx="129.13" cy="-258" rx="104.77" ry="18"/>
<ellipse fill="none" stroke="black" cx="129.13" cy="-258" rx="108.78" ry="22"/>
<ellipse fill="none" stroke="black" cx="129.13" cy="-258" rx="112.78" ry="26"/>
<text text-anchor="middle" x="129.13" y="-254.3" font-family="Times,serif" font-size="14.00">ab_coeq_rec_beta_in</text>
</a>
</g>
</g>
<!-- AbHom_ab_coeq_rec -->
<g id="node10" class="node">
<title>AbHom_ab_coeq_rec</title>
<g id="a_node10"><a xlink:href="AbHom.html#ab_coeq_rec" xlink:title="ab_coeq_rec">
<ellipse fill="#f070d1" stroke="black" cx="152.13" cy="-178" rx="66.89" ry="18"/>
<text text-anchor="middle" x="152.13" y="-174.3" font-family="Times,serif" font-size="14.00">ab_coeq_rec</text>
</a>
</g>
</g>
<!-- AbHom_ab_coeq_rec_beta_in&#45;&gt;AbHom_ab_coeq_rec -->
<g id="edge12" class="edge">
<title>AbHom_ab_coeq_rec_beta_in&#45;&gt;AbHom_ab_coeq_rec</title>
<path fill="none" stroke="black" d="M136.54,-231.89C138.97,-223.66 141.67,-214.48 144.14,-206.1"/>
<polygon fill="black" stroke="black" points="147.53,-206.99 147,-196.41 140.82,-205.01 147.53,-206.99"/>
</g>
<!-- AbHom_ab_coeq_rec_beta_in&#45;&gt;AbHom_ab_coeq_in -->
<g id="edge13" class="edge">
<title>AbHom_ab_coeq_rec_beta_in&#45;&gt;AbHom_ab_coeq_in</title>
<path fill="none" stroke="black" d="M187.61,-235.69C221.93,-223.18 264.7,-207.59 296.69,-195.93"/>
<polygon fill="black" stroke="black" points="298.06,-199.15 306.26,-192.44 295.66,-192.58 298.06,-199.15"/>
</g>
<!-- AbHom_ab_coeq -->
<g id="node12" class="node">
<title>AbHom_ab_coeq</title>
<g id="a_node12"><a xlink:href="AbHom.html#ab_coeq" xlink:title="ab_coeq">
<ellipse fill="#f070d1" stroke="black" cx="343.13" cy="-106" rx="48.19" ry="18"/>
<text text-anchor="middle" x="343.13" y="-102.3" font-family="Times,serif" font-size="14.00">ab_coeq</text>
</a>
</g>
</g>
<!-- AbHom_ab_coeq_rec&#45;&gt;AbHom_ab_coeq -->
<g id="edge14" class="edge">
<title>AbHom_ab_coeq_rec&#45;&gt;AbHom_ab_coeq</title>
<path fill="none" stroke="black" d="M190.33,-163C222.23,-151.31 267.68,-134.65 300.71,-122.55"/>
<polygon fill="black" stroke="black" points="301.92,-125.83 310.11,-119.11 299.51,-119.26 301.92,-125.83"/>
</g>
<!-- AbHom_ab_coeq_in&#45;&gt;AbHom_ab_coeq -->
<g id="edge15" class="edge">
<title>AbHom_ab_coeq_in&#45;&gt;AbHom_ab_coeq</title>
<path fill="none" stroke="black" d="M343.13,-159.7C343.13,-151.98 343.13,-142.71 343.13,-134.11"/>
<polygon fill="black" stroke="black" points="346.63,-134.1 343.13,-124.1 339.63,-134.1 346.63,-134.1"/>
</g>
<!-- AbHom_negate_hom -->
<g id="node15" class="node">
<title>AbHom_negate_hom</title>
<g id="a_node15"><a xlink:href="AbHom.html#negate_hom" xlink:title="negate_hom">
<ellipse fill="#f070d1" stroke="black" cx="343.13" cy="-34" rx="66.89" ry="18"/>
<text text-anchor="middle" x="343.13" y="-30.3" font-family="Times,serif" font-size="14.00">negate_hom</text>
</a>
</g>
</g>
<!-- AbHom_ab_coeq&#45;&gt;AbHom_negate_hom -->
<g id="edge16" class="edge">
<title>AbHom_ab_coeq&#45;&gt;AbHom_negate_hom</title>
<path fill="none" stroke="black" d="M343.13,-87.7C343.13,-79.98 343.13,-70.71 343.13,-62.11"/>
<polygon fill="black" stroke="black" points="346.63,-62.1 343.13,-52.1 339.63,-62.1 346.63,-62.1"/>
</g>
<!-- AbHom_ab_homo_add -->
<g id="node16" class="node">
<title>AbHom_ab_homo_add</title>
<g id="a_node16"><a xlink:href="AbHom.html#ab_homo_add" xlink:title="ab_homo_add">
<ellipse fill="#f070d1" stroke="black" cx="501.13" cy="-34" rx="73.39" ry="18"/>
<text text-anchor="middle" x="501.13" y="-30.3" font-family="Times,serif" font-size="14.00">ab_homo_add</text>
</a>
</g>
</g>
<!-- AbHom_ab_coeq&#45;&gt;AbHom_ab_homo_add -->
<g id="edge17" class="edge">
<title>AbHom_ab_coeq&#45;&gt;AbHom_ab_homo_add</title>
<path fill="none" stroke="black" d="M372.85,-91.83C396.84,-81.21 430.93,-66.11 457.93,-54.14"/>
<polygon fill="black" stroke="black" points="459.44,-57.3 467.16,-50.05 456.6,-50.9 459.44,-57.3"/>
</g>
<!-- AbHom_grp_hom -->
<g id="node14" class="node">
<title>AbHom_grp_hom</title>
<g id="a_node14"><a xlink:href="AbHom.html#grp_hom" xlink:title="grp_hom">
<ellipse fill="#f070d1" stroke="black" cx="501.13" cy="-106" rx="51.19" ry="18"/>
<text text-anchor="middle" x="501.13" y="-102.3" font-family="Times,serif" font-size="14.00">grp_hom</text>
</a>
</g>
</g>
<!-- AbHom_ab_hom&#45;&gt;AbHom_grp_hom -->
<g id="edge18" class="edge">
<title>AbHom_ab_hom&#45;&gt;AbHom_grp_hom</title>
<path fill="none" stroke="black" d="M579.44,-161.81C565.38,-151.97 546.88,-139.02 531.38,-128.18"/>
<polygon fill="black" stroke="black" points="533.34,-125.27 523.14,-122.4 529.32,-131 533.34,-125.27"/>
</g>
<!-- AbHom_grp_hom&#45;&gt;AbHom_negate_hom -->
<g id="edge19" class="edge">
<title>AbHom_grp_hom&#45;&gt;AbHom_negate_hom</title>
<path fill="none" stroke="black" d="M470.67,-91.5C446.45,-80.77 412.28,-65.63 385.41,-53.73"/>
<polygon fill="black" stroke="black" points="386.79,-50.51 376.23,-49.66 383.96,-56.91 386.79,-50.51"/>
</g>
<!-- AbHom_grp_hom&#45;&gt;AbHom_ab_homo_add -->
<g id="edge20" class="edge">
<title>AbHom_grp_hom&#45;&gt;AbHom_ab_homo_add</title>
<path fill="none" stroke="black" d="M501.13,-87.7C501.13,-79.98 501.13,-70.71 501.13,-62.11"/>
<polygon fill="black" stroke="black" points="504.63,-62.1 501.13,-52.1 497.63,-62.1 504.63,-62.1"/>
</g>
</g>
</svg>
