<?xml version="1.0" encoding="UTF-8" standalone="no"?>
<!DOCTYPE svg PUBLIC "-//W3C//DTD SVG 1.1//EN"
 "http://www.w3.org/Graphics/SVG/1.1/DTD/svg11.dtd">
<!-- Generated by graphviz version 2.43.0 (0)
 -->
<!-- Title: HoTT_Classes_interfaces_monad Pages: 1 -->
<svg width="1131pt" height="569pt"
 viewBox="0.00 0.00 1131.00 569.50" xmlns="http://www.w3.org/2000/svg" xmlns:xlink="http://www.w3.org/1999/xlink">
<g id="graph0" class="graph" transform="scale(1 1) rotate(0) translate(4 565.5)">
<title>HoTT_Classes_interfaces_monad</title>
<polygon fill="white" stroke="transparent" points="-4,4 -4,-565.5 1127,-565.5 1127,4 -4,4"/>
<g id="clust1" class="cluster">
<title>cluster_monad</title>
<polygon fill="#ffffc3" stroke="black" points="8,-16.82 8,-544.68 1115,-544.68 1115,-16.82 8,-16.82"/>
<text text-anchor="middle" x="40.5" y="-529.48" font-family="Times,serif" font-size="14.00">monad</text>
</g>
<!-- monad_monad_bind_assoc -->
<g id="node1" class="node">
<title>monad_monad_bind_assoc</title>
<g id="a_node1"><a xlink:href="monad.html#monad_bind_assoc" xlink:title="monad_bind_assoc">
<ellipse fill="#f070d1" stroke="black" cx="1002" cy="-239.82" rx="96.7" ry="18"/>
<ellipse fill="none" stroke="black" cx="1002" cy="-239.82" rx="100.69" ry="22"/>
<ellipse fill="none" stroke="black" cx="1002" cy="-239.82" rx="104.68" ry="26"/>
<text text-anchor="middle" x="1002" y="-236.12" font-family="Times,serif" font-size="14.00">monad_bind_assoc</text>
</a>
</g>
</g>
<!-- monad_Monad -->
<g id="node9" class="node">
<title>monad_Monad</title>
<g id="a_node9"><a xlink:href="monad.html#Monad" xlink:title="Monad">
<ellipse fill="#e2cdfa" stroke="black" cx="493" cy="-71.82" rx="42.49" ry="18"/>
<text text-anchor="middle" x="493" y="-68.12" font-family="Times,serif" font-size="14.00">Monad</text>
</a>
</g>
</g>
<!-- monad_monad_bind_assoc&#45;&gt;monad_Monad -->
<g id="edge1" class="edge">
<title>monad_monad_bind_assoc&#45;&gt;monad_Monad</title>
<path fill="none" stroke="black" d="M940.35,-218.72C835.5,-184.52 625.09,-115.9 535.24,-86.6"/>
<polygon fill="black" stroke="black" points="536.25,-83.25 525.66,-83.47 534.08,-89.9 536.25,-83.25"/>
</g>
<!-- monad_monad_bind_ret -->
<g id="node2" class="node">
<title>monad_monad_bind_ret</title>
<g id="a_node2"><a xlink:href="monad.html#monad_bind_ret" xlink:title="monad_bind_ret">
<ellipse fill="#f070d1" stroke="black" cx="786" cy="-239.82" rx="85.27" ry="18"/>
<ellipse fill="none" stroke="black" cx="786" cy="-239.82" rx="89.28" ry="22"/>
<ellipse fill="none" stroke="black" cx="786" cy="-239.82" rx="93.29" ry="26"/>
<text text-anchor="middle" x="786" y="-236.12" font-family="Times,serif" font-size="14.00">monad_bind_ret</text>
</a>
</g>
</g>
<!-- monad_monad_bind_ret&#45;&gt;monad_Monad -->
<g id="edge2" class="edge">
<title>monad_monad_bind_ret&#45;&gt;monad_Monad</title>
<path fill="none" stroke="black" d="M746.18,-216.26C687.9,-183.25 580.44,-122.36 526.18,-91.62"/>
<polygon fill="black" stroke="black" points="527.75,-88.49 517.32,-86.6 524.3,-94.58 527.75,-88.49"/>
</g>
<!-- monad_monad_ret_bind -->
<g id="node3" class="node">
<title>monad_monad_ret_bind</title>
<g id="a_node3"><a xlink:href="monad.html#monad_ret_bind" xlink:title="monad_ret_bind">
<ellipse fill="#f070d1" stroke="black" cx="582" cy="-239.82" rx="85.27" ry="18"/>
<ellipse fill="none" stroke="black" cx="582" cy="-239.82" rx="89.28" ry="22"/>
<ellipse fill="none" stroke="black" cx="582" cy="-239.82" rx="93.29" ry="26"/>
<text text-anchor="middle" x="582" y="-236.12" font-family="Times,serif" font-size="14.00">monad_ret_bind</text>
</a>
</g>
</g>
<!-- monad_monad_ret_bind&#45;&gt;monad_Monad -->
<g id="edge3" class="edge">
<title>monad_monad_ret_bind&#45;&gt;monad_Monad</title>
<path fill="none" stroke="black" d="M568.68,-213.97C552.06,-182.99 523.8,-130.28 506.92,-98.79"/>
<polygon fill="black" stroke="black" points="509.88,-96.9 502.07,-89.74 503.71,-100.21 509.88,-96.9"/>
</g>
<!-- monad_Monad_sind -->
<g id="node4" class="node">
<title>monad_Monad_sind</title>
<g id="a_node4"><a xlink:href="monad.html#Monad_sind" xlink:title="Monad_sind">
<ellipse fill="#f070d1" stroke="black" cx="90" cy="-239.82" rx="66.11" ry="18"/>
<ellipse fill="none" stroke="black" cx="90" cy="-239.82" rx="70.1" ry="22"/>
<ellipse fill="none" stroke="black" cx="90" cy="-239.82" rx="74.09" ry="26"/>
<text text-anchor="middle" x="90" y="-236.12" font-family="Times,serif" font-size="14.00">Monad_sind</text>
</a>
</g>
</g>
<!-- monad_Build_Monad -->
<g id="node8" class="node">
<title>monad_Build_Monad</title>
<g id="a_node8"><a xlink:href="monad.html#Build_Monad" xlink:title="Build_Monad">
<ellipse fill="#7faaff" stroke="black" cx="252" cy="-71.82" rx="71.49" ry="18"/>
<text text-anchor="middle" x="252" y="-68.12" font-family="Times,serif" font-size="14.00">Build_Monad</text>
</a>
</g>
</g>
<!-- monad_Monad_sind&#45;&gt;monad_Build_Monad -->
<g id="edge4" class="edge">
<title>monad_Monad_sind&#45;&gt;monad_Build_Monad</title>
<path fill="none" stroke="black" d="M113.21,-215.04C143.86,-183.63 197.54,-128.63 228.39,-97.02"/>
<polygon fill="black" stroke="black" points="231.23,-99.12 235.71,-89.52 226.22,-94.23 231.23,-99.12"/>
</g>
<!-- monad_Monad_sind&#45;&gt;monad_Monad -->
<g id="edge5" class="edge">
<title>monad_Monad_sind&#45;&gt;monad_Monad</title>
<path fill="none" stroke="black" d="M137.02,-219.46C217.4,-186.35 379.73,-119.48 454.14,-88.83"/>
<polygon fill="black" stroke="black" points="455.7,-91.97 463.62,-84.93 453.04,-85.5 455.7,-91.97"/>
</g>
<!-- monad_Monad_rec -->
<g id="node5" class="node">
<title>monad_Monad_rec</title>
<g id="a_node5"><a xlink:href="monad.html#Monad_rec" xlink:title="Monad_rec">
<ellipse fill="#f070d1" stroke="black" cx="405" cy="-424.82" rx="61.96" ry="18"/>
<ellipse fill="none" stroke="black" cx="405" cy="-424.82" rx="65.98" ry="22"/>
<ellipse fill="none" stroke="black" cx="405" cy="-424.82" rx="69.99" ry="26"/>
<text text-anchor="middle" x="405" y="-421.12" font-family="Times,serif" font-size="14.00">Monad_rec</text>
</a>
</g>
</g>
<!-- monad_Monad_rect -->
<g id="node7" class="node">
<title>monad_Monad_rect</title>
<g id="a_node7"><a xlink:href="monad.html#Monad_rect" xlink:title="Monad_rect">
<ellipse fill="#f070d1" stroke="black" cx="405" cy="-239.82" rx="65.79" ry="18"/>
<text text-anchor="middle" x="405" y="-236.12" font-family="Times,serif" font-size="14.00">Monad_rect</text>
</a>
</g>
</g>
<!-- monad_Monad_rec&#45;&gt;monad_Monad_rect -->
<g id="edge6" class="edge">
<title>monad_Monad_rec&#45;&gt;monad_Monad_rect</title>
<path fill="none" stroke="black" d="M405,-398.76C405,-364.52 405,-303.34 405,-268.02"/>
<polygon fill="black" stroke="black" points="408.5,-267.95 405,-257.95 401.5,-267.95 408.5,-267.95"/>
</g>
<!-- monad_Monad_ind -->
<g id="node6" class="node">
<title>monad_Monad_ind</title>
<g id="a_node6"><a xlink:href="monad.html#Monad_ind" xlink:title="Monad_ind">
<ellipse fill="#7fffd4" stroke="black" cx="252" cy="-239.82" rx="61.96" ry="18"/>
<ellipse fill="none" stroke="black" cx="252" cy="-239.82" rx="65.98" ry="22"/>
<ellipse fill="none" stroke="black" cx="252" cy="-239.82" rx="69.99" ry="26"/>
<text text-anchor="middle" x="252" y="-236.12" font-family="Times,serif" font-size="14.00">Monad_ind</text>
</a>
</g>
</g>
<!-- monad_Monad_ind&#45;&gt;monad_Build_Monad -->
<g id="edge7" class="edge">
<title>monad_Monad_ind&#45;&gt;monad_Build_Monad</title>
<path fill="none" stroke="black" d="M252,-213.61C252,-183.11 252,-131.92 252,-100.4"/>
<polygon fill="black" stroke="black" points="255.5,-100.13 252,-90.13 248.5,-100.13 255.5,-100.13"/>
</g>
<!-- monad_Monad_ind&#45;&gt;monad_Monad -->
<g id="edge8" class="edge">
<title>monad_Monad_ind&#45;&gt;monad_Monad</title>
<path fill="none" stroke="black" d="M284.5,-216.44C331.58,-184.01 418.05,-124.45 463.42,-93.2"/>
<polygon fill="black" stroke="black" points="465.41,-96.08 471.66,-87.52 461.44,-90.31 465.41,-96.08"/>
</g>
<!-- monad_Monad_rect&#45;&gt;monad_Build_Monad -->
<g id="edge9" class="edge">
<title>monad_Monad_rect&#45;&gt;monad_Build_Monad</title>
<path fill="none" stroke="black" d="M389.77,-222.3C362.76,-192.99 306.34,-131.78 274.72,-97.48"/>
<polygon fill="black" stroke="black" points="276.97,-94.76 267.62,-89.77 271.83,-99.5 276.97,-94.76"/>
</g>
<!-- monad_Monad_rect&#45;&gt;monad_Monad -->
<g id="edge10" class="edge">
<title>monad_Monad_rect&#45;&gt;monad_Monad</title>
<path fill="none" stroke="black" d="M414.09,-221.68C429.58,-192.46 461.19,-132.82 479.35,-98.57"/>
<polygon fill="black" stroke="black" points="482.5,-100.1 484.09,-89.62 476.32,-96.82 482.5,-100.1"/>
</g>
</g>
</svg>
