<?xml version="1.0" encoding="UTF-8" standalone="no"?>
<!DOCTYPE svg PUBLIC "-//W3C//DTD SVG 1.1//EN"
 "http://www.w3.org/Graphics/SVG/1.1/DTD/svg11.dtd">
<!-- Generated by graphviz version 2.43.0 (0)
 -->
<!-- Title: HoTT_WildCat_TwoOneCat Pages: 1 -->
<svg width="3550pt" height="1779pt"
 viewBox="0.00 0.00 3550.00 1779.00" xmlns="http://www.w3.org/2000/svg" xmlns:xlink="http://www.w3.org/1999/xlink">
<g id="graph0" class="graph" transform="scale(1 1) rotate(0) translate(4 1775)">
<title>HoTT_WildCat_TwoOneCat</title>
<polygon fill="white" stroke="transparent" points="-4,4 -4,-1775 3546,-1775 3546,4 -4,4"/>
<g id="clust1" class="cluster">
<title>cluster_TwoOneCat</title>
<polygon fill="#ffffc3" stroke="black" points="8,-53.06 8,-1717.94 3534,-1717.94 3534,-53.06 8,-53.06"/>
<text text-anchor="middle" x="57.5" y="-1702.74" font-family="Times,serif" font-size="14.00">TwoOneCat</text>
</g>
<!-- TwoOneCat_cat_exchange -->
<g id="node1" class="node">
<title>TwoOneCat_cat_exchange</title>
<g id="a_node1"><a xlink:href="TwoOneCat.html#cat_exchange" xlink:title="cat_exchange">
<ellipse fill="#f070d1" stroke="black" cx="720" cy="-1340.06" rx="73.39" ry="18"/>
<ellipse fill="none" stroke="black" cx="720" cy="-1340.06" rx="77.39" ry="22"/>
<ellipse fill="none" stroke="black" cx="720" cy="-1340.06" rx="81.39" ry="26"/>
<text text-anchor="middle" x="720" y="-1336.36" font-family="Times,serif" font-size="14.00">cat_exchange</text>
</a>
</g>
</g>
<!-- TwoOneCat_cat_prewhisker_pp -->
<g id="node2" class="node">
<title>TwoOneCat_cat_prewhisker_pp</title>
<g id="a_node2"><a xlink:href="TwoOneCat.html#cat_prewhisker_pp" xlink:title="cat_prewhisker_pp">
<ellipse fill="#f070d1" stroke="black" cx="611" cy="-756.06" rx="97.48" ry="18"/>
<text text-anchor="middle" x="611" y="-752.36" font-family="Times,serif" font-size="14.00">cat_prewhisker_pp</text>
</a>
</g>
</g>
<!-- TwoOneCat_cat_exchange&#45;&gt;TwoOneCat_cat_prewhisker_pp -->
<g id="edge1" class="edge">
<title>TwoOneCat_cat_exchange&#45;&gt;TwoOneCat_cat_prewhisker_pp</title>
<path fill="none" stroke="black" d="M715.32,-1314.06C697.56,-1219.27 634.49,-882.5 616.08,-784.19"/>
<polygon fill="black" stroke="black" points="619.48,-783.35 614.2,-774.17 612.6,-784.64 619.48,-783.35"/>
</g>
<!-- TwoOneCat_cat_postwhisker_pp -->
<g id="node3" class="node">
<title>TwoOneCat_cat_postwhisker_pp</title>
<g id="a_node3"><a xlink:href="TwoOneCat.html#cat_postwhisker_pp" xlink:title="cat_postwhisker_pp">
<ellipse fill="#f070d1" stroke="black" cx="829" cy="-756.06" rx="102.08" ry="18"/>
<text text-anchor="middle" x="829" y="-752.36" font-family="Times,serif" font-size="14.00">cat_postwhisker_pp</text>
</a>
</g>
</g>
<!-- TwoOneCat_cat_exchange&#45;&gt;TwoOneCat_cat_postwhisker_pp -->
<g id="edge2" class="edge">
<title>TwoOneCat_cat_exchange&#45;&gt;TwoOneCat_cat_postwhisker_pp</title>
<path fill="none" stroke="black" d="M724.68,-1314.06C742.44,-1219.27 805.51,-882.5 823.92,-784.19"/>
<polygon fill="black" stroke="black" points="827.4,-784.64 825.8,-774.17 820.52,-783.35 827.4,-784.64"/>
</g>
<!-- TwoOneCat_Is21Cat -->
<g id="node21" class="node">
<title>TwoOneCat_Is21Cat</title>
<g id="a_node21"><a xlink:href="TwoOneCat.html#Is21Cat" xlink:title="Is21Cat">
<ellipse fill="#e2cdfa" stroke="black" cx="1635" cy="-225.06" rx="46.59" ry="18"/>
<text text-anchor="middle" x="1635" y="-221.36" font-family="Times,serif" font-size="14.00">Is21Cat</text>
</a>
</g>
</g>
<!-- TwoOneCat_cat_prewhisker_pp&#45;&gt;TwoOneCat_Is21Cat -->
<g id="edge3" class="edge">
<title>TwoOneCat_cat_prewhisker_pp&#45;&gt;TwoOneCat_Is21Cat</title>
<path fill="none" stroke="black" d="M642.21,-738.94C792.23,-661.44 1438.65,-327.5 1598.93,-244.7"/>
<polygon fill="black" stroke="black" points="1600.65,-247.75 1607.93,-240.05 1597.44,-241.53 1600.65,-247.75"/>
</g>
<!-- TwoOneCat_cat_postwhisker_pp&#45;&gt;TwoOneCat_Is21Cat -->
<g id="edge4" class="edge">
<title>TwoOneCat_cat_postwhisker_pp&#45;&gt;TwoOneCat_Is21Cat</title>
<path fill="none" stroke="black" d="M854.45,-738.36C973.34,-660.33 1473.65,-331.96 1603.9,-246.48"/>
<polygon fill="black" stroke="black" points="1605.84,-249.39 1612.28,-240.98 1602,-243.54 1605.84,-249.39"/>
</g>
<!-- TwoOneCat_cat_tril -->
<g id="node4" class="node">
<title>TwoOneCat_cat_tril</title>
<g id="a_node4"><a xlink:href="TwoOneCat.html#cat_tril" xlink:title="cat_tril">
<ellipse fill="#f070d1" stroke="black" cx="3474" cy="-756.06" rx="43.59" ry="18"/>
<ellipse fill="none" stroke="black" cx="3474" cy="-756.06" rx="47.59" ry="22"/>
<ellipse fill="none" stroke="black" cx="3474" cy="-756.06" rx="51.59" ry="26"/>
<text text-anchor="middle" x="3474" y="-752.36" font-family="Times,serif" font-size="14.00">cat_tril</text>
</a>
</g>
</g>
<!-- TwoOneCat_cat_tril&#45;&gt;TwoOneCat_Is21Cat -->
<g id="edge5" class="edge">
<title>TwoOneCat_cat_tril&#45;&gt;TwoOneCat_Is21Cat</title>
<path fill="none" stroke="black" d="M3435.85,-738.37C3428.65,-735.45 3421.14,-732.55 3414,-730.06 2739.24,-494.84 1892.83,-287.61 1683.48,-237.55"/>
<polygon fill="black" stroke="black" points="1684.25,-234.13 1673.71,-235.22 1682.62,-240.94 1684.25,-234.13"/>
</g>
<!-- TwoOneCat_cat_pentagon -->
<g id="node5" class="node">
<title>TwoOneCat_cat_pentagon</title>
<g id="a_node5"><a xlink:href="TwoOneCat.html#cat_pentagon" xlink:title="cat_pentagon">
<ellipse fill="#f070d1" stroke="black" cx="3324" cy="-756.06" rx="72.61" ry="18"/>
<ellipse fill="none" stroke="black" cx="3324" cy="-756.06" rx="76.6" ry="22"/>
<ellipse fill="none" stroke="black" cx="3324" cy="-756.06" rx="80.59" ry="26"/>
<text text-anchor="middle" x="3324" y="-752.36" font-family="Times,serif" font-size="14.00">cat_pentagon</text>
</a>
</g>
</g>
<!-- TwoOneCat_cat_pentagon&#45;&gt;TwoOneCat_Is21Cat -->
<g id="edge6" class="edge">
<title>TwoOneCat_cat_pentagon&#45;&gt;TwoOneCat_Is21Cat</title>
<path fill="none" stroke="black" d="M3267.32,-737.31C3005.32,-655.25 1914.31,-313.54 1679.61,-240.03"/>
<polygon fill="black" stroke="black" points="1680.62,-236.68 1670.03,-237.03 1678.52,-243.36 1680.62,-236.68"/>
</g>
<!-- TwoOneCat_is1natural_cat_idr -->
<g id="node6" class="node">
<title>TwoOneCat_is1natural_cat_idr</title>
<g id="a_node6"><a xlink:href="TwoOneCat.html#is1natural_cat_idr" xlink:title="is1natural_cat_idr">
<ellipse fill="#f070d1" stroke="black" cx="3123" cy="-756.06" rx="94.46" ry="18"/>
<ellipse fill="none" stroke="black" cx="3123" cy="-756.06" rx="98.47" ry="22"/>
<ellipse fill="none" stroke="black" cx="3123" cy="-756.06" rx="102.48" ry="26"/>
<text text-anchor="middle" x="3123" y="-752.36" font-family="Times,serif" font-size="14.00">is1natural_cat_idr</text>
</a>
</g>
</g>
<!-- TwoOneCat_is1natural_cat_idr&#45;&gt;TwoOneCat_Is21Cat -->
<g id="edge7" class="edge">
<title>TwoOneCat_is1natural_cat_idr&#45;&gt;TwoOneCat_Is21Cat</title>
<path fill="none" stroke="black" d="M3065.13,-734.49C2822.42,-648.2 1889.44,-316.52 1677.85,-241.3"/>
<polygon fill="black" stroke="black" points="1678.92,-237.96 1668.32,-237.91 1676.57,-244.56 1678.92,-237.96"/>
</g>
<!-- TwoOneCat_is1natural_cat_idl -->
<g id="node7" class="node">
<title>TwoOneCat_is1natural_cat_idl</title>
<g id="a_node7"><a xlink:href="TwoOneCat.html#is1natural_cat_idl" xlink:title="is1natural_cat_idl">
<ellipse fill="#f070d1" stroke="black" cx="2902" cy="-756.06" rx="92.89" ry="18"/>
<ellipse fill="none" stroke="black" cx="2902" cy="-756.06" rx="96.89" ry="22"/>
<ellipse fill="none" stroke="black" cx="2902" cy="-756.06" rx="100.88" ry="26"/>
<text text-anchor="middle" x="2902" y="-752.36" font-family="Times,serif" font-size="14.00">is1natural_cat_idl</text>
</a>
</g>
</g>
<!-- TwoOneCat_is1natural_cat_idl&#45;&gt;TwoOneCat_Is21Cat -->
<g id="edge8" class="edge">
<title>TwoOneCat_is1natural_cat_idl&#45;&gt;TwoOneCat_Is21Cat</title>
<path fill="none" stroke="black" d="M2850.37,-733.51C2641.45,-646.28 1861.1,-320.46 1675.02,-242.77"/>
<polygon fill="black" stroke="black" points="1676.19,-239.47 1665.61,-238.84 1673.49,-245.93 1676.19,-239.47"/>
</g>
<!-- TwoOneCat_is1natural_cat_assoc_r -->
<g id="node8" class="node">
<title>TwoOneCat_is1natural_cat_assoc_r</title>
<g id="a_node8"><a xlink:href="TwoOneCat.html#is1natural_cat_assoc_r" xlink:title="is1natural_cat_assoc_r">
<ellipse fill="#f070d1" stroke="black" cx="2660" cy="-756.06" rx="115.08" ry="18"/>
<ellipse fill="none" stroke="black" cx="2660" cy="-756.06" rx="119.08" ry="22"/>
<ellipse fill="none" stroke="black" cx="2660" cy="-756.06" rx="123.08" ry="26"/>
<text text-anchor="middle" x="2660" y="-752.36" font-family="Times,serif" font-size="14.00">is1natural_cat_assoc_r</text>
</a>
</g>
</g>
<!-- TwoOneCat_is1natural_cat_assoc_r&#45;&gt;TwoOneCat_Is21Cat -->
<g id="edge9" class="edge">
<title>TwoOneCat_is1natural_cat_assoc_r&#45;&gt;TwoOneCat_Is21Cat</title>
<path fill="none" stroke="black" d="M2614.97,-731.82C2442.58,-642.85 1826.5,-324.9 1670.9,-244.59"/>
<polygon fill="black" stroke="black" points="1672.23,-241.34 1661.74,-239.86 1669.02,-247.56 1672.23,-241.34"/>
</g>
<!-- TwoOneCat_is1natural_cat_assoc_m -->
<g id="node9" class="node">
<title>TwoOneCat_is1natural_cat_assoc_m</title>
<g id="a_node9"><a xlink:href="TwoOneCat.html#is1natural_cat_assoc_m" xlink:title="is1natural_cat_assoc_m">
<ellipse fill="#f070d1" stroke="black" cx="2391" cy="-756.06" rx="119.67" ry="18"/>
<ellipse fill="none" stroke="black" cx="2391" cy="-756.06" rx="123.68" ry="22"/>
<ellipse fill="none" stroke="black" cx="2391" cy="-756.06" rx="127.68" ry="26"/>
<text text-anchor="middle" x="2391" y="-752.36" font-family="Times,serif" font-size="14.00">is1natural_cat_assoc_m</text>
</a>
</g>
</g>
<!-- TwoOneCat_is1natural_cat_assoc_m&#45;&gt;TwoOneCat_Is21Cat -->
<g id="edge10" class="edge">
<title>TwoOneCat_is1natural_cat_assoc_m&#45;&gt;TwoOneCat_Is21Cat</title>
<path fill="none" stroke="black" d="M2356.55,-730.96C2229.03,-641.73 1785,-331.03 1665.06,-247.1"/>
<polygon fill="black" stroke="black" points="1666.87,-244.09 1656.67,-241.23 1662.86,-249.83 1666.87,-244.09"/>
</g>
<!-- TwoOneCat_is1natural_cat_assoc_l -->
<g id="node10" class="node">
<title>TwoOneCat_is1natural_cat_assoc_l</title>
<g id="a_node10"><a xlink:href="TwoOneCat.html#is1natural_cat_assoc_l" xlink:title="is1natural_cat_assoc_l">
<ellipse fill="#f070d1" stroke="black" cx="2124" cy="-756.06" rx="113.96" ry="18"/>
<ellipse fill="none" stroke="black" cx="2124" cy="-756.06" rx="117.97" ry="22"/>
<ellipse fill="none" stroke="black" cx="2124" cy="-756.06" rx="121.98" ry="26"/>
<text text-anchor="middle" x="2124" y="-752.36" font-family="Times,serif" font-size="14.00">is1natural_cat_assoc_l</text>
</a>
</g>
</g>
<!-- TwoOneCat_is1natural_cat_assoc_l&#45;&gt;TwoOneCat_Is21Cat -->
<g id="edge11" class="edge">
<title>TwoOneCat_is1natural_cat_assoc_l&#45;&gt;TwoOneCat_Is21Cat</title>
<path fill="none" stroke="black" d="M2101.07,-730.26C2018.58,-641.02 1737.55,-337 1656.84,-249.69"/>
<polygon fill="black" stroke="black" points="1659.23,-247.12 1649.88,-242.16 1654.09,-251.88 1659.23,-247.12"/>
</g>
<!-- TwoOneCat_bifunctor_coh_comp -->
<g id="node11" class="node">
<title>TwoOneCat_bifunctor_coh_comp</title>
<g id="a_node11"><a xlink:href="TwoOneCat.html#bifunctor_coh_comp" xlink:title="bifunctor_coh_comp">
<ellipse fill="#f070d1" stroke="black" cx="1874" cy="-756.06" rx="102.87" ry="18"/>
<ellipse fill="none" stroke="black" cx="1874" cy="-756.06" rx="106.88" ry="22"/>
<ellipse fill="none" stroke="black" cx="1874" cy="-756.06" rx="110.88" ry="26"/>
<text text-anchor="middle" x="1874" y="-752.36" font-family="Times,serif" font-size="14.00">bifunctor_coh_comp</text>
</a>
</g>
</g>
<!-- TwoOneCat_bifunctor_coh_comp&#45;&gt;TwoOneCat_Is21Cat -->
<g id="edge12" class="edge">
<title>TwoOneCat_bifunctor_coh_comp&#45;&gt;TwoOneCat_Is21Cat</title>
<path fill="none" stroke="black" d="M1862.63,-729.9C1822.49,-641.04 1687.57,-342.42 1646.78,-252.14"/>
<polygon fill="black" stroke="black" points="1649.91,-250.56 1642.6,-242.88 1643.53,-253.44 1649.91,-250.56"/>
</g>
<!-- TwoOneCat_is1functor_precomp -->
<g id="node12" class="node">
<title>TwoOneCat_is1functor_precomp</title>
<g id="a_node12"><a xlink:href="TwoOneCat.html#is1functor_precomp" xlink:title="is1functor_precomp">
<ellipse fill="#f070d1" stroke="black" cx="1635" cy="-756.06" rx="102.87" ry="18"/>
<ellipse fill="none" stroke="black" cx="1635" cy="-756.06" rx="106.88" ry="22"/>
<ellipse fill="none" stroke="black" cx="1635" cy="-756.06" rx="110.88" ry="26"/>
<text text-anchor="middle" x="1635" y="-752.36" font-family="Times,serif" font-size="14.00">is1functor_precomp</text>
</a>
</g>
</g>
<!-- TwoOneCat_is1functor_precomp&#45;&gt;TwoOneCat_Is21Cat -->
<g id="edge13" class="edge">
<title>TwoOneCat_is1functor_precomp&#45;&gt;TwoOneCat_Is21Cat</title>
<path fill="none" stroke="black" d="M1635,-729.9C1635,-641.41 1635,-344.9 1635,-253.27"/>
<polygon fill="black" stroke="black" points="1638.5,-253.14 1635,-243.14 1631.5,-253.14 1638.5,-253.14"/>
</g>
<!-- TwoOneCat_is1functor_postcomp -->
<g id="node13" class="node">
<title>TwoOneCat_is1functor_postcomp</title>
<g id="a_node13"><a xlink:href="TwoOneCat.html#is1functor_postcomp" xlink:title="is1functor_postcomp">
<ellipse fill="#f070d1" stroke="black" cx="1391" cy="-756.06" rx="107.46" ry="18"/>
<ellipse fill="none" stroke="black" cx="1391" cy="-756.06" rx="111.47" ry="22"/>
<ellipse fill="none" stroke="black" cx="1391" cy="-756.06" rx="115.48" ry="26"/>
<text text-anchor="middle" x="1391" y="-752.36" font-family="Times,serif" font-size="14.00">is1functor_postcomp</text>
</a>
</g>
</g>
<!-- TwoOneCat_is1functor_postcomp&#45;&gt;TwoOneCat_Is21Cat -->
<g id="edge14" class="edge">
<title>TwoOneCat_is1functor_postcomp&#45;&gt;TwoOneCat_Is21Cat</title>
<path fill="none" stroke="black" d="M1402.6,-729.9C1443.59,-641.04 1581.33,-342.42 1622.97,-252.14"/>
<polygon fill="black" stroke="black" points="1626.23,-253.43 1627.24,-242.88 1619.87,-250.5 1626.23,-253.43"/>
</g>
<!-- TwoOneCat_is1gpd_hom -->
<g id="node14" class="node">
<title>TwoOneCat_is1gpd_hom</title>
<g id="a_node14"><a xlink:href="TwoOneCat.html#is1gpd_hom" xlink:title="is1gpd_hom">
<ellipse fill="#f070d1" stroke="black" cx="1183" cy="-756.06" rx="66.11" ry="18"/>
<ellipse fill="none" stroke="black" cx="1183" cy="-756.06" rx="70.1" ry="22"/>
<ellipse fill="none" stroke="black" cx="1183" cy="-756.06" rx="74.09" ry="26"/>
<text text-anchor="middle" x="1183" y="-752.36" font-family="Times,serif" font-size="14.00">is1gpd_hom</text>
</a>
</g>
</g>
<!-- TwoOneCat_is1gpd_hom&#45;&gt;TwoOneCat_Is21Cat -->
<g id="edge15" class="edge">
<title>TwoOneCat_is1gpd_hom&#45;&gt;TwoOneCat_Is21Cat</title>
<path fill="none" stroke="black" d="M1203.6,-730.96C1278.88,-642.85 1538.71,-338.75 1614.25,-250.35"/>
<polygon fill="black" stroke="black" points="1617.14,-252.36 1620.97,-242.48 1611.82,-247.81 1617.14,-252.36"/>
</g>
<!-- TwoOneCat_is1cat_hom -->
<g id="node15" class="node">
<title>TwoOneCat_is1cat_hom</title>
<g id="a_node15"><a xlink:href="TwoOneCat.html#is1cat_hom" xlink:title="is1cat_hom">
<ellipse fill="#f070d1" stroke="black" cx="1020" cy="-756.06" rx="63.08" ry="18"/>
<ellipse fill="none" stroke="black" cx="1020" cy="-756.06" rx="67.09" ry="22"/>
<ellipse fill="none" stroke="black" cx="1020" cy="-756.06" rx="71.09" ry="26"/>
<text text-anchor="middle" x="1020" y="-752.36" font-family="Times,serif" font-size="14.00">is1cat_hom</text>
</a>
</g>
</g>
<!-- TwoOneCat_is1cat_hom&#45;&gt;TwoOneCat_Is21Cat -->
<g id="edge16" class="edge">
<title>TwoOneCat_is1cat_hom&#45;&gt;TwoOneCat_Is21Cat</title>
<path fill="none" stroke="black" d="M1047.22,-731.65C1149.31,-643.84 1508.69,-334.71 1608.89,-248.52"/>
<polygon fill="black" stroke="black" points="1611.42,-250.97 1616.71,-241.79 1606.85,-245.66 1611.42,-250.97"/>
</g>
<!-- TwoOneCat_Is21Cat_sind -->
<g id="node16" class="node">
<title>TwoOneCat_Is21Cat_sind</title>
<g id="a_node16"><a xlink:href="TwoOneCat.html#Is21Cat_sind" xlink:title="Is21Cat_sind">
<ellipse fill="#f070d1" stroke="black" cx="252" cy="-756.06" rx="70.7" ry="18"/>
<ellipse fill="none" stroke="black" cx="252" cy="-756.06" rx="74.7" ry="22"/>
<ellipse fill="none" stroke="black" cx="252" cy="-756.06" rx="78.69" ry="26"/>
<text text-anchor="middle" x="252" y="-752.36" font-family="Times,serif" font-size="14.00">Is21Cat_sind</text>
</a>
</g>
</g>
<!-- TwoOneCat_Build_Is21Cat -->
<g id="node20" class="node">
<title>TwoOneCat_Build_Is21Cat</title>
<g id="a_node20"><a xlink:href="TwoOneCat.html#Build_Is21Cat" xlink:title="Build_Is21Cat">
<ellipse fill="#7faaff" stroke="black" cx="252" cy="-225.06" rx="75.29" ry="18"/>
<text text-anchor="middle" x="252" y="-221.36" font-family="Times,serif" font-size="14.00">Build_Is21Cat</text>
</a>
</g>
</g>
<!-- TwoOneCat_Is21Cat_sind&#45;&gt;TwoOneCat_Build_Is21Cat -->
<g id="edge17" class="edge">
<title>TwoOneCat_Is21Cat_sind&#45;&gt;TwoOneCat_Build_Is21Cat</title>
<path fill="none" stroke="black" d="M252,-729.9C252,-641.41 252,-344.9 252,-253.27"/>
<polygon fill="black" stroke="black" points="255.5,-253.14 252,-243.14 248.5,-253.14 255.5,-253.14"/>
</g>
<!-- TwoOneCat_Is21Cat_sind&#45;&gt;TwoOneCat_Is21Cat -->
<g id="edge18" class="edge">
<title>TwoOneCat_Is21Cat_sind&#45;&gt;TwoOneCat_Is21Cat</title>
<path fill="none" stroke="black" d="M302.04,-735.92C520.86,-652.22 1391.7,-319.13 1593.22,-242.04"/>
<polygon fill="black" stroke="black" points="1594.76,-245.2 1602.85,-238.36 1592.26,-238.67 1594.76,-245.2"/>
</g>
<!-- TwoOneCat_Is21Cat_rec -->
<g id="node17" class="node">
<title>TwoOneCat_Is21Cat_rec</title>
<g id="a_node17"><a xlink:href="TwoOneCat.html#Is21Cat_rec" xlink:title="Is21Cat_rec">
<ellipse fill="#f070d1" stroke="black" cx="90" cy="-1340.06" rx="65.77" ry="18"/>
<ellipse fill="none" stroke="black" cx="90" cy="-1340.06" rx="69.78" ry="22"/>
<ellipse fill="none" stroke="black" cx="90" cy="-1340.06" rx="73.79" ry="26"/>
<text text-anchor="middle" x="90" y="-1336.36" font-family="Times,serif" font-size="14.00">Is21Cat_rec</text>
</a>
</g>
</g>
<!-- TwoOneCat_Is21Cat_rect -->
<g id="node19" class="node">
<title>TwoOneCat_Is21Cat_rect</title>
<g id="a_node19"><a xlink:href="TwoOneCat.html#Is21Cat_rect" xlink:title="Is21Cat_rect">
<ellipse fill="#f070d1" stroke="black" cx="86" cy="-756.06" rx="69.59" ry="18"/>
<text text-anchor="middle" x="86" y="-752.36" font-family="Times,serif" font-size="14.00">Is21Cat_rect</text>
</a>
</g>
</g>
<!-- TwoOneCat_Is21Cat_rec&#45;&gt;TwoOneCat_Is21Cat_rect -->
<g id="edge19" class="edge">
<title>TwoOneCat_Is21Cat_rec&#45;&gt;TwoOneCat_Is21Cat_rect</title>
<path fill="none" stroke="black" d="M89.83,-1314.06C89.18,-1219.27 86.86,-882.5 86.19,-784.19"/>
<polygon fill="black" stroke="black" points="89.69,-784.14 86.12,-774.17 82.69,-784.19 89.69,-784.14"/>
</g>
<!-- TwoOneCat_Is21Cat_ind -->
<g id="node18" class="node">
<title>TwoOneCat_Is21Cat_ind</title>
<g id="a_node18"><a xlink:href="TwoOneCat.html#Is21Cat_ind" xlink:title="Is21Cat_ind">
<ellipse fill="#7fffd4" stroke="black" cx="422" cy="-756.06" rx="65.77" ry="18"/>
<ellipse fill="none" stroke="black" cx="422" cy="-756.06" rx="69.78" ry="22"/>
<ellipse fill="none" stroke="black" cx="422" cy="-756.06" rx="73.79" ry="26"/>
<text text-anchor="middle" x="422" y="-752.36" font-family="Times,serif" font-size="14.00">Is21Cat_ind</text>
</a>
</g>
</g>
<!-- TwoOneCat_Is21Cat_ind&#45;&gt;TwoOneCat_Build_Is21Cat -->
<g id="edge20" class="edge">
<title>TwoOneCat_Is21Cat_ind&#45;&gt;TwoOneCat_Build_Is21Cat</title>
<path fill="none" stroke="black" d="M413.91,-729.9C385.42,-641.23 289.8,-343.69 260.57,-252.72"/>
<polygon fill="black" stroke="black" points="263.88,-251.59 257.49,-243.14 257.22,-253.73 263.88,-251.59"/>
</g>
<!-- TwoOneCat_Is21Cat_ind&#45;&gt;TwoOneCat_Is21Cat -->
<g id="edge21" class="edge">
<title>TwoOneCat_Is21Cat_ind&#45;&gt;TwoOneCat_Is21Cat</title>
<path fill="none" stroke="black" d="M466.97,-735.45C659.8,-651.36 1415.05,-321.98 1595.92,-243.11"/>
<polygon fill="black" stroke="black" points="1597.55,-246.22 1605.32,-239.01 1594.75,-239.8 1597.55,-246.22"/>
</g>
<!-- TwoOneCat_Is21Cat_rect&#45;&gt;TwoOneCat_Build_Is21Cat -->
<g id="edge22" class="edge">
<title>TwoOneCat_Is21Cat_rect&#45;&gt;TwoOneCat_Build_Is21Cat</title>
<path fill="none" stroke="black" d="M91.34,-738.06C115.41,-661.36 214,-347.17 243.57,-252.92"/>
<polygon fill="black" stroke="black" points="246.95,-253.86 246.6,-243.27 240.27,-251.76 246.95,-253.86"/>
</g>
<!-- TwoOneCat_Is21Cat_rect&#45;&gt;TwoOneCat_Is21Cat -->
<g id="edge23" class="edge">
<title>TwoOneCat_Is21Cat_rect&#45;&gt;TwoOneCat_Is21Cat</title>
<path fill="none" stroke="black" d="M126.24,-741.32C342.69,-667.4 1367.07,-317.56 1591.48,-240.93"/>
<polygon fill="black" stroke="black" points="1592.93,-244.13 1601.26,-237.59 1590.66,-237.51 1592.93,-244.13"/>
</g>
</g>
</svg>
