<?xml version="1.0" encoding="UTF-8" standalone="no"?>
<!DOCTYPE svg PUBLIC "-//W3C//DTD SVG 1.1//EN"
 "http://www.w3.org/Graphics/SVG/1.1/DTD/svg11.dtd">
<!-- Generated by graphviz version 2.43.0 (0)
 -->
<!-- Title: HoTT_Algebra_Groups_Perfect Pages: 1 -->
<svg width="788pt" height="398pt"
 viewBox="0.00 0.00 788.00 398.00" xmlns="http://www.w3.org/2000/svg" xmlns:xlink="http://www.w3.org/1999/xlink">
<g id="graph0" class="graph" transform="scale(1 1) rotate(0) translate(4 394)">
<title>HoTT_Algebra_Groups_Perfect</title>
<polygon fill="white" stroke="transparent" points="-4,4 -4,-394 784,-394 784,4 -4,4"/>
<g id="clust1" class="cluster">
<title>cluster_Perfect</title>
<polygon fill="#ffffc3" stroke="black" points="8,-9.66 8,-380.34 772,-380.34 772,-9.66 8,-9.66"/>
<text text-anchor="middle" x="42" y="-365.14" font-family="Times,serif" font-size="14.00">Perfect</text>
</g>
<!-- Perfect_isperfect_grp_quotient -->
<g id="node1" class="node">
<title>Perfect_isperfect_grp_quotient</title>
<g id="a_node1"><a xlink:href="Perfect.html#isperfect_grp_quotient" xlink:title="isperfect_grp_quotient">
<ellipse fill="#f070d1" stroke="black" cx="510" cy="-311.66" rx="115.87" ry="18"/>
<ellipse fill="none" stroke="black" cx="510" cy="-311.66" rx="119.87" ry="22"/>
<ellipse fill="none" stroke="black" cx="510" cy="-311.66" rx="123.88" ry="26"/>
<text text-anchor="middle" x="510" y="-307.96" font-family="Times,serif" font-size="14.00">isperfect_grp_quotient</text>
</a>
</g>
</g>
<!-- Perfect_ismaximalsubgroup_commutator_isperfect -->
<g id="node3" class="node">
<title>Perfect_ismaximalsubgroup_commutator_isperfect</title>
<g id="a_node3"><a xlink:href="Perfect.html#ismaximalsubgroup_commutator_isperfect" xlink:title="ismaximalsubgroup_commutator_isperfect">
<ellipse fill="#f070d1" stroke="black" cx="556" cy="-214.66" rx="207.96" ry="18"/>
<text text-anchor="middle" x="556" y="-210.96" font-family="Times,serif" font-size="14.00">ismaximalsubgroup_commutator_isperfect</text>
</a>
</g>
</g>
<!-- Perfect_isperfect_grp_quotient&#45;&gt;Perfect_ismaximalsubgroup_commutator_isperfect -->
<g id="edge1" class="edge">
<title>Perfect_isperfect_grp_quotient&#45;&gt;Perfect_ismaximalsubgroup_commutator_isperfect</title>
<path fill="none" stroke="black" d="M522.09,-285.7C528.6,-272.25 536.63,-255.67 543.24,-242.01"/>
<polygon fill="black" stroke="black" points="546.55,-243.2 547.76,-232.67 540.25,-240.15 546.55,-243.2"/>
</g>
<!-- Perfect_isperfect_maximal_commutator -->
<g id="node4" class="node">
<title>Perfect_isperfect_maximal_commutator</title>
<g id="a_node4"><a xlink:href="Perfect.html#isperfect_maximal_commutator" xlink:title="isperfect_maximal_commutator">
<ellipse fill="#f070d1" stroke="black" cx="173" cy="-214.66" rx="156.77" ry="18"/>
<text text-anchor="middle" x="173" y="-210.96" font-family="Times,serif" font-size="14.00">isperfect_maximal_commutator</text>
</a>
</g>
</g>
<!-- Perfect_isperfect_grp_quotient&#45;&gt;Perfect_isperfect_maximal_commutator -->
<g id="edge2" class="edge">
<title>Perfect_isperfect_grp_quotient&#45;&gt;Perfect_isperfect_maximal_commutator</title>
<path fill="none" stroke="black" d="M438.12,-290.4C379.09,-273.76 296.18,-250.38 238.86,-234.23"/>
<polygon fill="black" stroke="black" points="239.76,-230.84 229.18,-231.5 237.86,-237.58 239.76,-230.84"/>
</g>
<!-- Perfect_isperfect_simple_nonabelian -->
<g id="node2" class="node">
<title>Perfect_isperfect_simple_nonabelian</title>
<g id="a_node2"><a xlink:href="Perfect.html#isperfect_simple_nonabelian" xlink:title="isperfect_simple_nonabelian">
<ellipse fill="#f070d1" stroke="black" cx="173" cy="-311.66" rx="141.87" ry="18"/>
<ellipse fill="none" stroke="black" cx="173" cy="-311.66" rx="145.87" ry="22"/>
<ellipse fill="none" stroke="black" cx="173" cy="-311.66" rx="149.88" ry="26"/>
<text text-anchor="middle" x="173" y="-307.96" font-family="Times,serif" font-size="14.00">isperfect_simple_nonabelian</text>
</a>
</g>
</g>
<!-- Perfect_isperfect_simple_nonabelian&#45;&gt;Perfect_isperfect_maximal_commutator -->
<g id="edge3" class="edge">
<title>Perfect_isperfect_simple_nonabelian&#45;&gt;Perfect_isperfect_maximal_commutator</title>
<path fill="none" stroke="black" d="M173,-285.2C173,-272.1 173,-256.13 173,-242.8"/>
<polygon fill="black" stroke="black" points="176.5,-242.78 173,-232.78 169.5,-242.78 176.5,-242.78"/>
</g>
<!-- Perfect_contr_abel_isperfect -->
<g id="node5" class="node">
<title>Perfect_contr_abel_isperfect</title>
<g id="a_node5"><a xlink:href="Perfect.html#contr_abel_isperfect" xlink:title="contr_abel_isperfect">
<ellipse fill="#f070d1" stroke="black" cx="491" cy="-127.66" rx="104.78" ry="18"/>
<text text-anchor="middle" x="491" y="-123.96" font-family="Times,serif" font-size="14.00">contr_abel_isperfect</text>
</a>
</g>
</g>
<!-- Perfect_ismaximalsubgroup_commutator_isperfect&#45;&gt;Perfect_contr_abel_isperfect -->
<g id="edge4" class="edge">
<title>Perfect_ismaximalsubgroup_commutator_isperfect&#45;&gt;Perfect_contr_abel_isperfect</title>
<path fill="none" stroke="black" d="M542.85,-196.46C533.45,-184.17 520.65,-167.43 510.12,-153.67"/>
<polygon fill="black" stroke="black" points="512.77,-151.36 503.91,-145.54 507.21,-155.61 512.77,-151.36"/>
</g>
<!-- Perfect_IsPerfect -->
<g id="node6" class="node">
<title>Perfect_IsPerfect</title>
<g id="a_node6"><a xlink:href="Perfect.html#IsPerfect" xlink:title="IsPerfect">
<ellipse fill="#f070d1" stroke="black" cx="300" cy="-40.66" rx="51.99" ry="18"/>
<text text-anchor="middle" x="300" y="-36.96" font-family="Times,serif" font-size="14.00">IsPerfect</text>
</a>
</g>
</g>
<!-- Perfect_isperfect_maximal_commutator&#45;&gt;Perfect_IsPerfect -->
<g id="edge5" class="edge">
<title>Perfect_isperfect_maximal_commutator&#45;&gt;Perfect_IsPerfect</title>
<path fill="none" stroke="black" d="M185.64,-196.54C208.2,-165.99 255.47,-101.97 281.62,-66.56"/>
<polygon fill="black" stroke="black" points="284.66,-68.33 287.78,-58.21 279.03,-64.17 284.66,-68.33"/>
</g>
<!-- Perfect_contr_abel_isperfect&#45;&gt;Perfect_IsPerfect -->
<g id="edge6" class="edge">
<title>Perfect_contr_abel_isperfect&#45;&gt;Perfect_IsPerfect</title>
<path fill="none" stroke="black" d="M455.07,-110.67C422.28,-96.08 373.88,-74.54 339.9,-59.42"/>
<polygon fill="black" stroke="black" points="341.28,-56.2 330.72,-55.33 338.43,-62.59 341.28,-56.2"/>
</g>
</g>
</svg>
