<?xml version="1.0" encoding="UTF-8" standalone="no"?>
<!DOCTYPE svg PUBLIC "-//W3C//DTD SVG 1.1//EN"
 "http://www.w3.org/Graphics/SVG/1.1/DTD/svg11.dtd">
<!-- Generated by graphviz version 2.43.0 (0)
 -->
<!-- Title: HoTT_Colimits_Colimit_Prod Pages: 1 -->
<svg width="510pt" height="259pt"
 viewBox="0.00 0.00 510.00 259.00" xmlns="http://www.w3.org/2000/svg" xmlns:xlink="http://www.w3.org/1999/xlink">
<g id="graph0" class="graph" transform="scale(1 1) rotate(0) translate(4 255)">
<title>HoTT_Colimits_Colimit_Prod</title>
<polygon fill="white" stroke="transparent" points="-4,4 -4,-255 506,-255 506,4 -4,4"/>
<g id="clust1" class="cluster">
<title>cluster_Colimit_Prod</title>
<polygon fill="#ffffc3" stroke="black" points="13.12,-8 13.12,-243 488.88,-243 488.88,-8 13.12,-8"/>
<text text-anchor="middle" x="67.62" y="-227.8" font-family="Times,serif" font-size="14.00">Colimit_Prod</text>
</g>
<!-- Colimit_Prod_iscolimit_prod -->
<g id="node1" class="node">
<title>Colimit_Prod_iscolimit_prod</title>
<g id="a_node1"><a xlink:href="Colimit_Prod.html#iscolimit_prod" xlink:title="iscolimit_prod">
<ellipse fill="#f070d1" stroke="black" cx="251.41" cy="-186" rx="76.08" ry="18"/>
<ellipse fill="none" stroke="black" cx="251.41" cy="-186" rx="80.08" ry="22"/>
<ellipse fill="none" stroke="black" cx="251.41" cy="-186" rx="84.09" ry="26"/>
<text text-anchor="middle" x="251.41" y="-182.3" font-family="Times,serif" font-size="14.00">iscolimit_prod</text>
</a>
</g>
</g>
<!-- Colimit_Prod_diagram_equiv_prod_sigma -->
<g id="node2" class="node">
<title>Colimit_Prod_diagram_equiv_prod_sigma</title>
<g id="a_node2"><a xlink:href="Colimit_Prod.html#diagram_equiv_prod_sigma" xlink:title="diagram_equiv_prod_sigma">
<ellipse fill="#f070d1" stroke="black" cx="251.41" cy="-106" rx="137.28" ry="18"/>
<text text-anchor="middle" x="251.41" y="-102.3" font-family="Times,serif" font-size="14.00">diagram_equiv_prod_sigma</text>
</a>
</g>
</g>
<!-- Colimit_Prod_iscolimit_prod&#45;&gt;Colimit_Prod_diagram_equiv_prod_sigma -->
<g id="edge1" class="edge">
<title>Colimit_Prod_iscolimit_prod&#45;&gt;Colimit_Prod_diagram_equiv_prod_sigma</title>
<path fill="none" stroke="black" d="M251.41,-159.89C251.41,-151.84 251.41,-142.88 251.41,-134.66"/>
<polygon fill="black" stroke="black" points="254.91,-134.41 251.41,-124.41 247.91,-134.41 254.91,-134.41"/>
</g>
<!-- Colimit_Prod_prod_diagram -->
<g id="node3" class="node">
<title>Colimit_Prod_prod_diagram</title>
<g id="a_node3"><a xlink:href="Colimit_Prod.html#prod_diagram" xlink:title="prod_diagram">
<ellipse fill="#f070d1" stroke="black" cx="251.41" cy="-34" rx="75.29" ry="18"/>
<text text-anchor="middle" x="251.41" y="-30.3" font-family="Times,serif" font-size="14.00">prod_diagram</text>
</a>
</g>
</g>
<!-- Colimit_Prod_diagram_equiv_prod_sigma&#45;&gt;Colimit_Prod_prod_diagram -->
<g id="edge2" class="edge">
<title>Colimit_Prod_diagram_equiv_prod_sigma&#45;&gt;Colimit_Prod_prod_diagram</title>
<path fill="none" stroke="black" d="M251.41,-87.7C251.41,-79.98 251.41,-70.71 251.41,-62.11"/>
<polygon fill="black" stroke="black" points="254.91,-62.1 251.41,-52.1 247.91,-62.1 254.91,-62.1"/>
</g>
</g>
</svg>
