<?xml version="1.0" encoding="UTF-8" standalone="no"?>
<!DOCTYPE svg PUBLIC "-//W3C//DTD SVG 1.1//EN"
 "http://www.w3.org/Graphics/SVG/1.1/DTD/svg11.dtd">
<!-- Generated by graphviz version 2.43.0 (0)
 -->
<!-- Title: HoTT_Homotopy_HSpace_Pointwise Pages: 1 -->
<svg width="1238pt" height="623pt"
 viewBox="0.00 0.00 1238.00 623.00" xmlns="http://www.w3.org/2000/svg" xmlns:xlink="http://www.w3.org/1999/xlink">
<g id="graph0" class="graph" transform="scale(1 1) rotate(0) translate(4 619)">
<title>HoTT_Homotopy_HSpace_Pointwise</title>
<polygon fill="white" stroke="transparent" points="-4,4 -4,-619 1234,-619 1234,4 -4,4"/>
<g id="clust1" class="cluster">
<title>cluster_Pointwise</title>
<polygon fill="#ffffc3" stroke="black" points="8,-27.49 8,-587.51 1222,-587.51 1222,-27.49 8,-27.49"/>
<text text-anchor="middle" x="51" y="-572.31" font-family="Times,serif" font-size="14.00">Pointwise</text>
</g>
<!-- Pointwise_isleftinvertible_hspace_pmap -->
<g id="node1" class="node">
<title>Pointwise_isleftinvertible_hspace_pmap</title>
<g id="a_node1"><a xlink:href="Pointwise.html#isleftinvertible_hspace_pmap" xlink:title="isleftinvertible_hspace_pmap">
<ellipse fill="#f070d1" stroke="black" cx="1060" cy="-391.49" rx="145.67" ry="18"/>
<ellipse fill="none" stroke="black" cx="1060" cy="-391.49" rx="149.67" ry="22"/>
<ellipse fill="none" stroke="black" cx="1060" cy="-391.49" rx="153.67" ry="26"/>
<text text-anchor="middle" x="1060" y="-387.79" font-family="Times,serif" font-size="14.00">isleftinvertible_hspace_pmap</text>
</a>
</g>
</g>
<!-- Pointwise_ishspace_pmap -->
<g id="node3" class="node">
<title>Pointwise_ishspace_pmap</title>
<g id="a_node3"><a xlink:href="Pointwise.html#ishspace_pmap" xlink:title="ishspace_pmap">
<ellipse fill="#f070d1" stroke="black" cx="907" cy="-116.49" rx="81.49" ry="18"/>
<text text-anchor="middle" x="907" y="-112.79" font-family="Times,serif" font-size="14.00">ishspace_pmap</text>
</a>
</g>
</g>
<!-- Pointwise_isleftinvertible_hspace_pmap&#45;&gt;Pointwise_ishspace_pmap -->
<g id="edge1" class="edge">
<title>Pointwise_isleftinvertible_hspace_pmap&#45;&gt;Pointwise_ishspace_pmap</title>
<path fill="none" stroke="black" d="M1045.88,-365.29C1016.91,-313.6 951,-196 921.62,-143.57"/>
<polygon fill="black" stroke="black" points="924.51,-141.58 916.57,-134.56 918.41,-145 924.51,-141.58"/>
</g>
<!-- Pointwise_iscoherent_hspace_pmap -->
<g id="node2" class="node">
<title>Pointwise_iscoherent_hspace_pmap</title>
<g id="a_node2"><a xlink:href="Pointwise.html#iscoherent_hspace_pmap" xlink:title="iscoherent_hspace_pmap">
<ellipse fill="#f070d1" stroke="black" cx="754" cy="-391.49" rx="126.17" ry="18"/>
<ellipse fill="none" stroke="black" cx="754" cy="-391.49" rx="130.18" ry="22"/>
<ellipse fill="none" stroke="black" cx="754" cy="-391.49" rx="134.18" ry="26"/>
<text text-anchor="middle" x="754" y="-387.79" font-family="Times,serif" font-size="14.00">iscoherent_hspace_pmap</text>
</a>
</g>
</g>
<!-- Pointwise_iscoherent_hspace_pmap&#45;&gt;Pointwise_ishspace_pmap -->
<g id="edge2" class="edge">
<title>Pointwise_iscoherent_hspace_pmap&#45;&gt;Pointwise_ishspace_pmap</title>
<path fill="none" stroke="black" d="M768.12,-365.29C797.09,-313.6 863,-196 892.38,-143.57"/>
<polygon fill="black" stroke="black" points="895.59,-145 897.43,-134.56 889.49,-141.58 895.59,-145"/>
</g>
<!-- Pointwise_isleftinvertible_hspace_map -->
<g id="node4" class="node">
<title>Pointwise_isleftinvertible_hspace_map</title>
<g id="a_node4"><a xlink:href="Pointwise.html#isleftinvertible_hspace_map" xlink:title="isleftinvertible_hspace_map">
<ellipse fill="#f070d1" stroke="black" cx="454" cy="-391.49" rx="139.96" ry="18"/>
<ellipse fill="none" stroke="black" cx="454" cy="-391.49" rx="143.97" ry="22"/>
<ellipse fill="none" stroke="black" cx="454" cy="-391.49" rx="147.98" ry="26"/>
<text text-anchor="middle" x="454" y="-387.79" font-family="Times,serif" font-size="14.00">isleftinvertible_hspace_map</text>
</a>
</g>
</g>
<!-- Pointwise_ishspace_map -->
<g id="node6" class="node">
<title>Pointwise_ishspace_map</title>
<g id="a_node6"><a xlink:href="Pointwise.html#ishspace_map" xlink:title="ishspace_map">
<ellipse fill="#f070d1" stroke="black" cx="303" cy="-116.49" rx="75.29" ry="18"/>
<text text-anchor="middle" x="303" y="-112.79" font-family="Times,serif" font-size="14.00">ishspace_map</text>
</a>
</g>
</g>
<!-- Pointwise_isleftinvertible_hspace_map&#45;&gt;Pointwise_ishspace_map -->
<g id="edge3" class="edge">
<title>Pointwise_isleftinvertible_hspace_map&#45;&gt;Pointwise_ishspace_map</title>
<path fill="none" stroke="black" d="M440.06,-365.29C411.47,-313.6 346.43,-196 317.43,-143.57"/>
<polygon fill="black" stroke="black" points="320.35,-141.62 312.45,-134.56 314.22,-145.01 320.35,-141.62"/>
</g>
<!-- Pointwise_iscoherent_ishspace_map -->
<g id="node5" class="node">
<title>Pointwise_iscoherent_ishspace_map</title>
<g id="a_node5"><a xlink:href="Pointwise.html#iscoherent_ishspace_map" xlink:title="iscoherent_ishspace_map">
<ellipse fill="#f070d1" stroke="black" cx="152" cy="-391.49" rx="128.08" ry="18"/>
<ellipse fill="none" stroke="black" cx="152" cy="-391.49" rx="132.08" ry="22"/>
<ellipse fill="none" stroke="black" cx="152" cy="-391.49" rx="136.08" ry="26"/>
<text text-anchor="middle" x="152" y="-387.79" font-family="Times,serif" font-size="14.00">iscoherent_ishspace_map</text>
</a>
</g>
</g>
<!-- Pointwise_iscoherent_ishspace_map&#45;&gt;Pointwise_ishspace_map -->
<g id="edge4" class="edge">
<title>Pointwise_iscoherent_ishspace_map&#45;&gt;Pointwise_ishspace_map</title>
<path fill="none" stroke="black" d="M165.94,-365.29C194.53,-313.6 259.57,-196 288.57,-143.57"/>
<polygon fill="black" stroke="black" points="291.78,-145.01 293.55,-134.56 285.65,-141.62 291.78,-145.01"/>
</g>
</g>
</svg>
