<?xml version="1.0" encoding="UTF-8" standalone="no"?>
<!DOCTYPE svg PUBLIC "-//W3C//DTD SVG 1.1//EN"
 "http://www.w3.org/Graphics/SVG/1.1/DTD/svg11.dtd">
<!-- Generated by graphviz version 2.43.0 (0)
 -->
<!-- Title: HoTT_Homotopy_Hopf Pages: 1 -->
<svg width="974pt" height="491pt"
 viewBox="0.00 0.00 974.00 491.00" xmlns="http://www.w3.org/2000/svg" xmlns:xlink="http://www.w3.org/1999/xlink">
<g id="graph0" class="graph" transform="scale(1 1) rotate(0) translate(4 487)">
<title>HoTT_Homotopy_Hopf</title>
<polygon fill="white" stroke="transparent" points="-4,4 -4,-487 970,-487 970,4 -4,4"/>
<g id="clust1" class="cluster">
<title>cluster_Hopf</title>
<polygon fill="#ffffc3" stroke="black" points="8.78,-8 8.78,-475 957.22,-475 957.22,-8 8.78,-8"/>
<text text-anchor="middle" x="34.28" y="-459.8" font-family="Times,serif" font-size="14.00">Hopf</text>
</g>
<!-- Hopf_conn_map_loop_susp_counit -->
<g id="node1" class="node">
<title>Hopf_conn_map_loop_susp_counit</title>
<g id="a_node1"><a xlink:href="Hopf.html#conn_map_loop_susp_counit" xlink:title="conn_map_loop_susp_counit">
<ellipse fill="#f070d1" stroke="black" cx="786.19" cy="-258" rx="139.96" ry="18"/>
<ellipse fill="none" stroke="black" cx="786.19" cy="-258" rx="143.97" ry="22"/>
<ellipse fill="none" stroke="black" cx="786.19" cy="-258" rx="147.98" ry="26"/>
<text text-anchor="middle" x="786.19" y="-254.3" font-family="Times,serif" font-size="14.00">conn_map_loop_susp_counit</text>
</a>
</g>
</g>
<!-- Hopf_pequiv_pfiber_loops_susp_counit_join -->
<g id="node2" class="node">
<title>Hopf_pequiv_pfiber_loops_susp_counit_join</title>
<g id="a_node2"><a xlink:href="Hopf.html#pequiv_pfiber_loops_susp_counit_join" xlink:title="pequiv_pfiber_loops_susp_counit_join">
<ellipse fill="#f070d1" stroke="black" cx="747.19" cy="-178" rx="182.77" ry="18"/>
<text text-anchor="middle" x="747.19" y="-174.3" font-family="Times,serif" font-size="14.00">pequiv_pfiber_loops_susp_counit_join</text>
</a>
</g>
</g>
<!-- Hopf_conn_map_loop_susp_counit&#45;&gt;Hopf_pequiv_pfiber_loops_susp_counit_join -->
<g id="edge1" class="edge">
<title>Hopf_conn_map_loop_susp_counit&#45;&gt;Hopf_pequiv_pfiber_loops_susp_counit_join</title>
<path fill="none" stroke="black" d="M773.63,-231.89C769.43,-223.48 764.72,-214.07 760.46,-205.55"/>
<polygon fill="black" stroke="black" points="763.49,-203.79 755.89,-196.41 757.23,-206.92 763.49,-203.79"/>
</g>
<!-- Hopf_pequiv_hopf_total_join -->
<g id="node9" class="node">
<title>Hopf_pequiv_hopf_total_join</title>
<g id="a_node9"><a xlink:href="Hopf.html#pequiv_hopf_total_join" xlink:title="pequiv_hopf_total_join">
<ellipse fill="#f070d1" stroke="black" cx="745.19" cy="-106" rx="114.28" ry="18"/>
<text text-anchor="middle" x="745.19" y="-102.3" font-family="Times,serif" font-size="14.00">pequiv_hopf_total_join</text>
</a>
</g>
</g>
<!-- Hopf_pequiv_pfiber_loops_susp_counit_join&#45;&gt;Hopf_pequiv_hopf_total_join -->
<g id="edge2" class="edge">
<title>Hopf_pequiv_pfiber_loops_susp_counit_join&#45;&gt;Hopf_pequiv_hopf_total_join</title>
<path fill="none" stroke="black" d="M746.69,-159.7C746.47,-151.98 746.21,-142.71 745.96,-134.11"/>
<polygon fill="black" stroke="black" points="749.46,-134 745.68,-124.1 742.46,-134.2 749.46,-134"/>
</g>
<!-- Hopf_licata_finster -->
<g id="node3" class="node">
<title>Hopf_licata_finster</title>
<g id="a_node3"><a xlink:href="Hopf.html#licata_finster" xlink:title="licata_finster">
<ellipse fill="#f070d1" stroke="black" cx="489.19" cy="-418" rx="70.7" ry="18"/>
<ellipse fill="none" stroke="black" cx="489.19" cy="-418" rx="74.7" ry="22"/>
<ellipse fill="none" stroke="black" cx="489.19" cy="-418" rx="78.69" ry="26"/>
<text text-anchor="middle" x="489.19" y="-414.3" font-family="Times,serif" font-size="14.00">licata_finster</text>
</a>
</g>
</g>
<!-- Hopf_freudenthal_hspace -->
<g id="node4" class="node">
<title>Hopf_freudenthal_hspace</title>
<g id="a_node4"><a xlink:href="Hopf.html#freudenthal_hspace" xlink:title="freudenthal_hspace">
<ellipse fill="#f070d1" stroke="black" cx="489.19" cy="-338" rx="101.28" ry="18"/>
<text text-anchor="middle" x="489.19" y="-334.3" font-family="Times,serif" font-size="14.00">freudenthal_hspace</text>
</a>
</g>
</g>
<!-- Hopf_licata_finster&#45;&gt;Hopf_freudenthal_hspace -->
<g id="edge3" class="edge">
<title>Hopf_licata_finster&#45;&gt;Hopf_freudenthal_hspace</title>
<path fill="none" stroke="black" d="M489.19,-391.89C489.19,-383.84 489.19,-374.88 489.19,-366.66"/>
<polygon fill="black" stroke="black" points="492.69,-366.41 489.19,-356.41 485.69,-366.41 492.69,-366.41"/>
</g>
<!-- Hopf_freudenthal_hspace_ -->
<g id="node5" class="node">
<title>Hopf_freudenthal_hspace_</title>
<g id="a_node5"><a xlink:href="Hopf.html#freudenthal_hspace'" xlink:title="freudenthal_hspace&#39;">
<ellipse fill="#f070d1" stroke="black" cx="489.19" cy="-258" rx="103.98" ry="18"/>
<text text-anchor="middle" x="489.19" y="-254.3" font-family="Times,serif" font-size="14.00">freudenthal_hspace&#39;</text>
</a>
</g>
</g>
<!-- Hopf_freudenthal_hspace&#45;&gt;Hopf_freudenthal_hspace_ -->
<g id="edge4" class="edge">
<title>Hopf_freudenthal_hspace&#45;&gt;Hopf_freudenthal_hspace_</title>
<path fill="none" stroke="black" d="M489.19,-319.69C489.19,-309.89 489.19,-297.42 489.19,-286.33"/>
<polygon fill="black" stroke="black" points="492.69,-286.26 489.19,-276.26 485.69,-286.26 492.69,-286.26"/>
</g>
<!-- Hopf_hopf_retraction -->
<g id="node7" class="node">
<title>Hopf_hopf_retraction</title>
<g id="a_node7"><a xlink:href="Hopf.html#hopf_retraction" xlink:title="hopf_retraction">
<ellipse fill="#f070d1" stroke="black" cx="437.19" cy="-178" rx="81.79" ry="18"/>
<text text-anchor="middle" x="437.19" y="-174.3" font-family="Times,serif" font-size="14.00">hopf_retraction</text>
</a>
</g>
</g>
<!-- Hopf_freudenthal_hspace_&#45;&gt;Hopf_hopf_retraction -->
<g id="edge5" class="edge">
<title>Hopf_freudenthal_hspace_&#45;&gt;Hopf_hopf_retraction</title>
<path fill="none" stroke="black" d="M477.9,-240.08C470.95,-229.65 461.91,-216.09 454.11,-204.39"/>
<polygon fill="black" stroke="black" points="456.91,-202.27 448.45,-195.89 451.08,-206.15 456.91,-202.27"/>
</g>
<!-- Hopf_isequiv_Pi_connected_hspace -->
<g id="node6" class="node">
<title>Hopf_isequiv_Pi_connected_hspace</title>
<g id="a_node6"><a xlink:href="Hopf.html#isequiv_Pi_connected_hspace" xlink:title="isequiv_Pi_connected_hspace">
<ellipse fill="#f070d1" stroke="black" cx="186.19" cy="-258" rx="145.67" ry="18"/>
<ellipse fill="none" stroke="black" cx="186.19" cy="-258" rx="149.67" ry="22"/>
<ellipse fill="none" stroke="black" cx="186.19" cy="-258" rx="153.67" ry="26"/>
<text text-anchor="middle" x="186.19" y="-254.3" font-family="Times,serif" font-size="14.00">isequiv_Pi_connected_hspace</text>
</a>
</g>
</g>
<!-- Hopf_isequiv_Pi_connected_hspace&#45;&gt;Hopf_hopf_retraction -->
<g id="edge6" class="edge">
<title>Hopf_isequiv_Pi_connected_hspace&#45;&gt;Hopf_hopf_retraction</title>
<path fill="none" stroke="black" d="M257.44,-234.86C296.92,-222.59 345.27,-207.56 381.87,-196.19"/>
<polygon fill="black" stroke="black" points="383.36,-199.39 391.87,-193.08 381.28,-192.71 383.36,-199.39"/>
</g>
<!-- Hopf_transport_hopf_construction -->
<g id="node8" class="node">
<title>Hopf_transport_hopf_construction</title>
<g id="a_node8"><a xlink:href="Hopf.html#transport_hopf_construction" xlink:title="transport_hopf_construction">
<ellipse fill="#f070d1" stroke="black" cx="441.19" cy="-106" rx="141.88" ry="18"/>
<text text-anchor="middle" x="441.19" y="-102.3" font-family="Times,serif" font-size="14.00">transport_hopf_construction</text>
</a>
</g>
</g>
<!-- Hopf_hopf_retraction&#45;&gt;Hopf_transport_hopf_construction -->
<g id="edge7" class="edge">
<title>Hopf_hopf_retraction&#45;&gt;Hopf_transport_hopf_construction</title>
<path fill="none" stroke="black" d="M438.18,-159.7C438.62,-151.98 439.15,-142.71 439.64,-134.11"/>
<polygon fill="black" stroke="black" points="443.13,-134.29 440.21,-124.1 436.14,-133.89 443.13,-134.29"/>
</g>
<!-- Hopf_hopf_construction -->
<g id="node10" class="node">
<title>Hopf_hopf_construction</title>
<g id="a_node10"><a xlink:href="Hopf.html#hopf_construction" xlink:title="hopf_construction">
<ellipse fill="#f070d1" stroke="black" cx="594.19" cy="-34" rx="93.68" ry="18"/>
<text text-anchor="middle" x="594.19" y="-30.3" font-family="Times,serif" font-size="14.00">hopf_construction</text>
</a>
</g>
</g>
<!-- Hopf_transport_hopf_construction&#45;&gt;Hopf_hopf_construction -->
<g id="edge8" class="edge">
<title>Hopf_transport_hopf_construction&#45;&gt;Hopf_hopf_construction</title>
<path fill="none" stroke="black" d="M477.45,-88.41C499.35,-78.39 527.4,-65.56 550.52,-54.98"/>
<polygon fill="black" stroke="black" points="552.13,-58.09 559.76,-50.75 549.21,-51.73 552.13,-58.09"/>
</g>
<!-- Hopf_pequiv_hopf_total_join&#45;&gt;Hopf_hopf_construction -->
<g id="edge9" class="edge">
<title>Hopf_pequiv_hopf_total_join&#45;&gt;Hopf_hopf_construction</title>
<path fill="none" stroke="black" d="M710.16,-88.76C688.49,-78.72 660.51,-65.74 637.46,-55.06"/>
<polygon fill="black" stroke="black" points="638.78,-51.82 628.24,-50.79 635.84,-58.17 638.78,-51.82"/>
</g>
</g>
</svg>
