<?xml version="1.0" encoding="UTF-8" standalone="no"?>
<!DOCTYPE svg PUBLIC "-//W3C//DTD SVG 1.1//EN"
 "http://www.w3.org/Graphics/SVG/1.1/DTD/svg11.dtd">
<!-- Generated by graphviz version 2.43.0 (0)
 -->
<!-- Title: HoTT_Universes_Automorphisms Pages: 1 -->
<svg width="1362pt" height="685pt"
 viewBox="0.00 0.00 1362.00 685.00" xmlns="http://www.w3.org/2000/svg" xmlns:xlink="http://www.w3.org/1999/xlink">
<g id="graph0" class="graph" transform="scale(1 1) rotate(0) translate(4 681)">
<title>HoTT_Universes_Automorphisms</title>
<polygon fill="white" stroke="transparent" points="-4,4 -4,-681 1358,-681 1358,4 -4,4"/>
<g id="clust1" class="cluster">
<title>cluster_Automorphisms</title>
<polygon fill="#ffffc3" stroke="black" points="8,-15.98 8,-661.02 1346,-661.02 1346,-15.98 8,-15.98"/>
<text text-anchor="middle" x="72.5" y="-645.82" font-family="Times,serif" font-size="14.00">Automorphisms</text>
</g>
<!-- Automorphisms_lem_beers -->
<g id="node1" class="node">
<title>Automorphisms_lem_beers</title>
<g id="a_node1"><a xlink:href="Automorphisms.html#lem_beers" xlink:title="lem_beers">
<ellipse fill="#f070d1" stroke="black" cx="1272" cy="-546.98" rx="57.71" ry="18"/>
<ellipse fill="none" stroke="black" cx="1272" cy="-546.98" rx="61.7" ry="22"/>
<ellipse fill="none" stroke="black" cx="1272" cy="-546.98" rx="65.69" ry="26"/>
<text text-anchor="middle" x="1272" y="-543.28" font-family="Times,serif" font-size="14.00">lem_beers</text>
</a>
</g>
</g>
<!-- Automorphisms_zero_beers -->
<g id="node2" class="node">
<title>Automorphisms_zero_beers</title>
<g id="a_node2"><a xlink:href="Automorphisms.html#zero_beers" xlink:title="zero_beers">
<ellipse fill="#f070d1" stroke="black" cx="1214" cy="-370.98" rx="61.19" ry="18"/>
<text text-anchor="middle" x="1214" y="-367.28" font-family="Times,serif" font-size="14.00">zero_beers</text>
</a>
</g>
</g>
<!-- Automorphisms_lem_beers&#45;&gt;Automorphisms_zero_beers -->
<g id="edge1" class="edge">
<title>Automorphisms_lem_beers&#45;&gt;Automorphisms_zero_beers</title>
<path fill="none" stroke="black" d="M1263.69,-521.05C1252.85,-488.52 1233.95,-431.82 1222.85,-398.52"/>
<polygon fill="black" stroke="black" points="1226.15,-397.36 1219.67,-388.98 1219.51,-399.58 1226.15,-397.36"/>
</g>
<!-- Automorphisms_lem_from_aut_type_inhabited_empty -->
<g id="node3" class="node">
<title>Automorphisms_lem_from_aut_type_inhabited_empty</title>
<g id="a_node3"><a xlink:href="Automorphisms.html#lem_from_aut_type_inhabited_empty" xlink:title="lem_from_aut_type_inhabited_empty">
<ellipse fill="#f070d1" stroke="black" cx="1157" cy="-211.98" rx="180.87" ry="18"/>
<text text-anchor="middle" x="1157" y="-208.28" font-family="Times,serif" font-size="14.00">lem_from_aut_type_inhabited_empty</text>
</a>
</g>
</g>
<!-- Automorphisms_zero_beers&#45;&gt;Automorphisms_lem_from_aut_type_inhabited_empty -->
<g id="edge2" class="edge">
<title>Automorphisms_zero_beers&#45;&gt;Automorphisms_lem_from_aut_type_inhabited_empty</title>
<path fill="none" stroke="black" d="M1207.79,-352.88C1197.9,-325.62 1178.48,-272.13 1166.72,-239.76"/>
<polygon fill="black" stroke="black" points="1169.9,-238.26 1163.2,-230.06 1163.32,-240.65 1169.9,-238.26"/>
</g>
<!-- Automorphisms_equiv_hprop_idprod -->
<g id="node4" class="node">
<title>Automorphisms_equiv_hprop_idprod</title>
<g id="a_node4"><a xlink:href="Automorphisms.html#equiv_hprop_idprod" xlink:title="equiv_hprop_idprod">
<ellipse fill="#f070d1" stroke="black" cx="1157" cy="-67.98" rx="102.88" ry="18"/>
<text text-anchor="middle" x="1157" y="-64.28" font-family="Times,serif" font-size="14.00">equiv_hprop_idprod</text>
</a>
</g>
</g>
<!-- Automorphisms_lem_from_aut_type_inhabited_empty&#45;&gt;Automorphisms_equiv_hprop_idprod -->
<g id="edge3" class="edge">
<title>Automorphisms_lem_from_aut_type_inhabited_empty&#45;&gt;Automorphisms_equiv_hprop_idprod</title>
<path fill="none" stroke="black" d="M1157,-193.85C1157,-169.65 1157,-125.19 1157,-96.37"/>
<polygon fill="black" stroke="black" points="1160.5,-96.17 1157,-86.17 1153.5,-96.17 1160.5,-96.17"/>
</g>
<!-- Automorphisms_lem_from_aut_type_unit_empty -->
<g id="node5" class="node">
<title>Automorphisms_lem_from_aut_type_unit_empty</title>
<g id="a_node5"><a xlink:href="Automorphisms.html#lem_from_aut_type_unit_empty" xlink:title="lem_from_aut_type_unit_empty">
<ellipse fill="#f070d1" stroke="black" cx="1025" cy="-546.98" rx="155.18" ry="18"/>
<ellipse fill="none" stroke="black" cx="1025" cy="-546.98" rx="159.18" ry="22"/>
<ellipse fill="none" stroke="black" cx="1025" cy="-546.98" rx="163.17" ry="26"/>
<text text-anchor="middle" x="1025" y="-543.28" font-family="Times,serif" font-size="14.00">lem_from_aut_type_unit_empty</text>
</a>
</g>
</g>
<!-- Automorphisms_equiv_swap_prod_rigid -->
<g id="node6" class="node">
<title>Automorphisms_equiv_swap_prod_rigid</title>
<g id="a_node6"><a xlink:href="Automorphisms.html#equiv_swap_prod_rigid" xlink:title="equiv_swap_prod_rigid">
<ellipse fill="#f070d1" stroke="black" cx="666" cy="-370.98" rx="116.19" ry="18"/>
<ellipse fill="none" stroke="black" cx="666" cy="-370.98" rx="120.18" ry="22"/>
<ellipse fill="none" stroke="black" cx="666" cy="-370.98" rx="124.18" ry="26"/>
<text text-anchor="middle" x="666" y="-367.28" font-family="Times,serif" font-size="14.00">equiv_swap_prod_rigid</text>
</a>
</g>
</g>
<!-- Automorphisms_equiv_swap_types -->
<g id="node12" class="node">
<title>Automorphisms_equiv_swap_types</title>
<g id="a_node12"><a xlink:href="Automorphisms.html#equiv_swap_types" xlink:title="equiv_swap_types">
<ellipse fill="#f070d1" stroke="black" cx="433" cy="-211.98" rx="94.48" ry="18"/>
<text text-anchor="middle" x="433" y="-208.28" font-family="Times,serif" font-size="14.00">equiv_swap_types</text>
</a>
</g>
</g>
<!-- Automorphisms_equiv_swap_prod_rigid&#45;&gt;Automorphisms_equiv_swap_types -->
<g id="edge4" class="edge">
<title>Automorphisms_equiv_swap_prod_rigid&#45;&gt;Automorphisms_equiv_swap_types</title>
<path fill="none" stroke="black" d="M630.36,-345.96C585.63,-315.82 509.54,-264.55 466.06,-235.25"/>
<polygon fill="black" stroke="black" points="467.81,-232.21 457.56,-229.53 463.9,-238.02 467.81,-232.21"/>
</g>
<!-- Automorphisms_equiv_swap_rigid_swaps -->
<g id="node7" class="node">
<title>Automorphisms_equiv_swap_rigid_swaps</title>
<g id="a_node7"><a xlink:href="Automorphisms.html#equiv_swap_rigid_swaps" xlink:title="equiv_swap_rigid_swaps">
<ellipse fill="#f070d1" stroke="black" cx="712" cy="-546.98" rx="124.27" ry="18"/>
<ellipse fill="none" stroke="black" cx="712" cy="-546.98" rx="128.27" ry="22"/>
<ellipse fill="none" stroke="black" cx="712" cy="-546.98" rx="132.28" ry="26"/>
<text text-anchor="middle" x="712" y="-543.28" font-family="Times,serif" font-size="14.00">equiv_swap_rigid_swaps</text>
</a>
</g>
</g>
<!-- Automorphisms_equiv_swap_rigid -->
<g id="node9" class="node">
<title>Automorphisms_equiv_swap_rigid</title>
<g id="a_node9"><a xlink:href="Automorphisms.html#equiv_swap_rigid" xlink:title="equiv_swap_rigid">
<ellipse fill="#f070d1" stroke="black" cx="433" cy="-370.98" rx="90.98" ry="18"/>
<text text-anchor="middle" x="433" y="-367.28" font-family="Times,serif" font-size="14.00">equiv_swap_rigid</text>
</a>
</g>
</g>
<!-- Automorphisms_equiv_swap_rigid_swaps&#45;&gt;Automorphisms_equiv_swap_rigid -->
<g id="edge5" class="edge">
<title>Automorphisms_equiv_swap_rigid_swaps&#45;&gt;Automorphisms_equiv_swap_rigid</title>
<path fill="none" stroke="black" d="M673.5,-521.97C619.09,-488.04 520.52,-426.56 468.05,-393.84"/>
<polygon fill="black" stroke="black" points="469.77,-390.78 459.43,-388.46 466.06,-396.72 469.77,-390.78"/>
</g>
<!-- Automorphisms_equiv_swap_empty_unit -->
<g id="node8" class="node">
<title>Automorphisms_equiv_swap_empty_unit</title>
<g id="a_node8"><a xlink:href="Automorphisms.html#equiv_swap_empty_unit" xlink:title="equiv_swap_empty_unit">
<ellipse fill="#f070d1" stroke="black" cx="433" cy="-546.98" rx="120.79" ry="18"/>
<ellipse fill="none" stroke="black" cx="433" cy="-546.98" rx="124.78" ry="22"/>
<ellipse fill="none" stroke="black" cx="433" cy="-546.98" rx="128.78" ry="26"/>
<text text-anchor="middle" x="433" y="-543.28" font-family="Times,serif" font-size="14.00">equiv_swap_empty_unit</text>
</a>
</g>
</g>
<!-- Automorphisms_equiv_swap_empty_unit&#45;&gt;Automorphisms_equiv_swap_rigid -->
<g id="edge6" class="edge">
<title>Automorphisms_equiv_swap_empty_unit&#45;&gt;Automorphisms_equiv_swap_rigid</title>
<path fill="none" stroke="black" d="M433,-520.68C433,-488.5 433,-433.12 433,-399.78"/>
<polygon fill="black" stroke="black" points="436.5,-399.39 433,-389.39 429.5,-399.39 436.5,-399.39"/>
</g>
<!-- Automorphisms_equiv_swap_rigid&#45;&gt;Automorphisms_equiv_swap_types -->
<g id="edge7" class="edge">
<title>Automorphisms_equiv_swap_rigid&#45;&gt;Automorphisms_equiv_swap_types</title>
<path fill="none" stroke="black" d="M433,-352.88C433,-325.74 433,-272.59 433,-240.18"/>
<polygon fill="black" stroke="black" points="436.5,-240.06 433,-230.06 429.5,-240.06 436.5,-240.06"/>
</g>
<!-- Automorphisms_equiv_swap_types_not_id -->
<g id="node10" class="node">
<title>Automorphisms_equiv_swap_types_not_id</title>
<g id="a_node10"><a xlink:href="Automorphisms.html#equiv_swap_types_not_id" xlink:title="equiv_swap_types_not_id">
<ellipse fill="#f070d1" stroke="black" cx="151" cy="-546.98" rx="126.96" ry="18"/>
<ellipse fill="none" stroke="black" cx="151" cy="-546.98" rx="130.97" ry="22"/>
<ellipse fill="none" stroke="black" cx="151" cy="-546.98" rx="134.98" ry="26"/>
<text text-anchor="middle" x="151" y="-543.28" font-family="Times,serif" font-size="14.00">equiv_swap_types_not_id</text>
</a>
</g>
</g>
<!-- Automorphisms_equiv_swap_types_swaps -->
<g id="node11" class="node">
<title>Automorphisms_equiv_swap_types_swaps</title>
<g id="a_node11"><a xlink:href="Automorphisms.html#equiv_swap_types_swaps" xlink:title="equiv_swap_types_swaps">
<ellipse fill="#f070d1" stroke="black" cx="174" cy="-370.98" rx="127.28" ry="18"/>
<text text-anchor="middle" x="174" y="-367.28" font-family="Times,serif" font-size="14.00">equiv_swap_types_swaps</text>
</a>
</g>
</g>
<!-- Automorphisms_equiv_swap_types_not_id&#45;&gt;Automorphisms_equiv_swap_types_swaps -->
<g id="edge8" class="edge">
<title>Automorphisms_equiv_swap_types_not_id&#45;&gt;Automorphisms_equiv_swap_types_swaps</title>
<path fill="none" stroke="black" d="M154.34,-520.68C158.62,-488.36 165.98,-432.63 170.38,-399.35"/>
<polygon fill="black" stroke="black" points="173.86,-399.76 171.7,-389.39 166.92,-398.84 173.86,-399.76"/>
</g>
<!-- Automorphisms_equiv_swap_types_swaps&#45;&gt;Automorphisms_equiv_swap_types -->
<g id="edge9" class="edge">
<title>Automorphisms_equiv_swap_types_swaps&#45;&gt;Automorphisms_equiv_swap_types</title>
<path fill="none" stroke="black" d="M201.72,-353.17C248.96,-324.53 345.04,-266.29 397.27,-234.64"/>
<polygon fill="black" stroke="black" points="399.13,-237.6 405.87,-229.42 395.51,-231.61 399.13,-237.6"/>
</g>
</g>
</svg>
