<?xml version="1.0" encoding="UTF-8" standalone="no"?>
<!DOCTYPE svg PUBLIC "-//W3C//DTD SVG 1.1//EN"
 "http://www.w3.org/Graphics/SVG/1.1/DTD/svg11.dtd">
<!-- Generated by graphviz version 2.43.0 (0)
 -->
<!-- Title: HoTT_Spaces_Pos_Spec Pages: 1 -->
<svg width="1728pt" height="868pt"
 viewBox="0.00 0.00 1728.00 868.00" xmlns="http://www.w3.org/2000/svg" xmlns:xlink="http://www.w3.org/1999/xlink">
<g id="graph0" class="graph" transform="scale(1 1) rotate(0) translate(4 864)">
<title>HoTT_Spaces_Pos_Spec</title>
<polygon fill="white" stroke="transparent" points="-4,4 -4,-864 1724,-864 1724,4 -4,4"/>
<g id="clust1" class="cluster">
<title>cluster_Spec</title>
<polygon fill="#ffffc3" stroke="black" points="8,-9.84 8,-850.16 1712,-850.16 1712,-9.84 8,-9.84"/>
<text text-anchor="middle" x="33.5" y="-834.96" font-family="Times,serif" font-size="14.00">Spec</text>
</g>
<!-- Spec_pos_mul_succ_r -->
<g id="node1" class="node">
<title>Spec_pos_mul_succ_r</title>
<g id="a_node1"><a xlink:href="Spec.html#pos_mul_succ_r" xlink:title="pos_mul_succ_r">
<ellipse fill="#f070d1" stroke="black" cx="1215" cy="-582.84" rx="82.58" ry="18"/>
<ellipse fill="none" stroke="black" cx="1215" cy="-582.84" rx="86.58" ry="22"/>
<ellipse fill="none" stroke="black" cx="1215" cy="-582.84" rx="90.59" ry="26"/>
<text text-anchor="middle" x="1215" y="-579.14" font-family="Times,serif" font-size="14.00">pos_mul_succ_r</text>
</a>
</g>
</g>
<!-- Spec_pos_mul_add_distr_l -->
<g id="node5" class="node">
<title>Spec_pos_mul_add_distr_l</title>
<g id="a_node5"><a xlink:href="Spec.html#pos_mul_add_distr_l" xlink:title="pos_mul_add_distr_l">
<ellipse fill="#f070d1" stroke="black" cx="1027" cy="-484.84" rx="103.98" ry="18"/>
<text text-anchor="middle" x="1027" y="-481.14" font-family="Times,serif" font-size="14.00">pos_mul_add_distr_l</text>
</a>
</g>
</g>
<!-- Spec_pos_mul_succ_r&#45;&gt;Spec_pos_mul_add_distr_l -->
<g id="edge1" class="edge">
<title>Spec_pos_mul_succ_r&#45;&gt;Spec_pos_mul_add_distr_l</title>
<path fill="none" stroke="black" d="M1171.87,-559.82C1140.63,-543.87 1098.66,-522.43 1067.94,-506.75"/>
<polygon fill="black" stroke="black" points="1069.28,-503.5 1058.79,-502.07 1066.1,-509.74 1069.28,-503.5"/>
</g>
<!-- Spec_pos_mul_1_r -->
<g id="node13" class="node">
<title>Spec_pos_mul_1_r</title>
<g id="a_node13"><a xlink:href="Spec.html#pos_mul_1_r" xlink:title="pos_mul_1_r">
<ellipse fill="#f070d1" stroke="black" cx="1366" cy="-484.84" rx="67.69" ry="18"/>
<text text-anchor="middle" x="1366" y="-481.14" font-family="Times,serif" font-size="14.00">pos_mul_1_r</text>
</a>
</g>
</g>
<!-- Spec_pos_mul_succ_r&#45;&gt;Spec_pos_mul_1_r -->
<g id="edge2" class="edge">
<title>Spec_pos_mul_succ_r&#45;&gt;Spec_pos_mul_1_r</title>
<path fill="none" stroke="black" d="M1251.17,-558.85C1275.88,-543.14 1308.39,-522.47 1332.51,-507.14"/>
<polygon fill="black" stroke="black" points="1334.42,-510.07 1340.98,-501.75 1330.67,-504.16 1334.42,-510.07"/>
</g>
<!-- Spec_pos_add_1_l -->
<g id="node25" class="node">
<title>Spec_pos_add_1_l</title>
<g id="a_node25"><a xlink:href="Spec.html#pos_add_1_l" xlink:title="pos_add_1_l">
<ellipse fill="#f070d1" stroke="black" cx="1215" cy="-484.84" rx="65.79" ry="18"/>
<text text-anchor="middle" x="1215" y="-481.14" font-family="Times,serif" font-size="14.00">pos_add_1_l</text>
</a>
</g>
</g>
<!-- Spec_pos_mul_succ_r&#45;&gt;Spec_pos_add_1_l -->
<g id="edge3" class="edge">
<title>Spec_pos_mul_succ_r&#45;&gt;Spec_pos_add_1_l</title>
<path fill="none" stroke="black" d="M1215,-556.62C1215,-543.29 1215,-526.92 1215,-513.28"/>
<polygon fill="black" stroke="black" points="1218.5,-513.03 1215,-503.03 1211.5,-513.03 1218.5,-513.03"/>
</g>
<!-- Spec_pos_mul_succ_l -->
<g id="node2" class="node">
<title>Spec_pos_mul_succ_l</title>
<g id="a_node2"><a xlink:href="Spec.html#pos_mul_succ_l" xlink:title="pos_mul_succ_l">
<ellipse fill="#f070d1" stroke="black" cx="1615" cy="-779.84" rx="81.46" ry="18"/>
<ellipse fill="none" stroke="black" cx="1615" cy="-779.84" rx="85.48" ry="22"/>
<ellipse fill="none" stroke="black" cx="1615" cy="-779.84" rx="89.49" ry="26"/>
<text text-anchor="middle" x="1615" y="-776.14" font-family="Times,serif" font-size="14.00">pos_mul_succ_l</text>
</a>
</g>
</g>
<!-- Spec_pos_mul_add_distr_r -->
<g id="node4" class="node">
<title>Spec_pos_mul_add_distr_r</title>
<g id="a_node4"><a xlink:href="Spec.html#pos_mul_add_distr_r" xlink:title="pos_mul_add_distr_r">
<ellipse fill="#f070d1" stroke="black" cx="1423" cy="-681.84" rx="105.08" ry="18"/>
<text text-anchor="middle" x="1423" y="-678.14" font-family="Times,serif" font-size="14.00">pos_mul_add_distr_r</text>
</a>
</g>
</g>
<!-- Spec_pos_mul_succ_l&#45;&gt;Spec_pos_mul_add_distr_r -->
<g id="edge4" class="edge">
<title>Spec_pos_mul_succ_l&#45;&gt;Spec_pos_mul_add_distr_r</title>
<path fill="none" stroke="black" d="M1571.43,-757.06C1539.31,-741 1495.89,-719.29 1464.31,-703.5"/>
<polygon fill="black" stroke="black" points="1465.84,-700.35 1455.33,-699.01 1462.71,-706.61 1465.84,-700.35"/>
</g>
<!-- Spec_pos_mul_1_l -->
<g id="node14" class="node">
<title>Spec_pos_mul_1_l</title>
<g id="a_node14"><a xlink:href="Spec.html#pos_mul_1_l" xlink:title="pos_mul_1_l">
<ellipse fill="#f070d1" stroke="black" cx="1615" cy="-681.84" rx="66.09" ry="18"/>
<text text-anchor="middle" x="1615" y="-678.14" font-family="Times,serif" font-size="14.00">pos_mul_1_l</text>
</a>
</g>
</g>
<!-- Spec_pos_mul_succ_l&#45;&gt;Spec_pos_mul_1_l -->
<g id="edge5" class="edge">
<title>Spec_pos_mul_succ_l&#45;&gt;Spec_pos_mul_1_l</title>
<path fill="none" stroke="black" d="M1615,-753.62C1615,-740.29 1615,-723.92 1615,-710.28"/>
<polygon fill="black" stroke="black" points="1618.5,-710.03 1615,-700.03 1611.5,-710.03 1618.5,-710.03"/>
</g>
<!-- Spec_pos_mul_assoc -->
<g id="node3" class="node">
<title>Spec_pos_mul_assoc</title>
<g id="a_node3"><a xlink:href="Spec.html#pos_mul_assoc" xlink:title="pos_mul_assoc">
<ellipse fill="#f070d1" stroke="black" cx="1421" cy="-779.84" rx="78.77" ry="18"/>
<ellipse fill="none" stroke="black" cx="1421" cy="-779.84" rx="82.78" ry="22"/>
<ellipse fill="none" stroke="black" cx="1421" cy="-779.84" rx="86.79" ry="26"/>
<text text-anchor="middle" x="1421" y="-776.14" font-family="Times,serif" font-size="14.00">pos_mul_assoc</text>
</a>
</g>
</g>
<!-- Spec_pos_mul_assoc&#45;&gt;Spec_pos_mul_add_distr_r -->
<g id="edge6" class="edge">
<title>Spec_pos_mul_assoc&#45;&gt;Spec_pos_mul_add_distr_r</title>
<path fill="none" stroke="black" d="M1421.53,-753.62C1421.8,-740.29 1422.14,-723.92 1422.43,-710.28"/>
<polygon fill="black" stroke="black" points="1425.93,-710.1 1422.64,-700.03 1418.93,-709.96 1425.93,-710.1"/>
</g>
<!-- Spec_pos_mul_add_distr_r&#45;&gt;Spec_pos_mul_add_distr_l -->
<g id="edge7" class="edge">
<title>Spec_pos_mul_add_distr_r&#45;&gt;Spec_pos_mul_add_distr_l</title>
<path fill="none" stroke="black" d="M1323.98,-675.55C1259.81,-668.03 1176.95,-650.3 1115,-608.84 1079.08,-584.81 1052.97,-540.83 1038.91,-512.5"/>
<polygon fill="black" stroke="black" points="1041.92,-510.68 1034.44,-503.18 1035.61,-513.71 1041.92,-510.68"/>
</g>
<!-- Spec_pos_mul_comm -->
<g id="node6" class="node">
<title>Spec_pos_mul_comm</title>
<g id="a_node6"><a xlink:href="Spec.html#pos_mul_comm" xlink:title="pos_mul_comm">
<ellipse fill="#f070d1" stroke="black" cx="1478" cy="-582.84" rx="81.49" ry="18"/>
<text text-anchor="middle" x="1478" y="-579.14" font-family="Times,serif" font-size="14.00">pos_mul_comm</text>
</a>
</g>
</g>
<!-- Spec_pos_mul_add_distr_r&#45;&gt;Spec_pos_mul_comm -->
<g id="edge8" class="edge">
<title>Spec_pos_mul_add_distr_r&#45;&gt;Spec_pos_mul_comm</title>
<path fill="none" stroke="black" d="M1432.83,-663.5C1441.28,-648.6 1453.58,-626.91 1463.22,-609.92"/>
<polygon fill="black" stroke="black" points="1466.36,-611.46 1468.25,-601.03 1460.28,-608.01 1466.36,-611.46"/>
</g>
<!-- Spec_pos_add_assoc -->
<g id="node15" class="node">
<title>Spec_pos_add_assoc</title>
<g id="a_node15"><a xlink:href="Spec.html#pos_add_assoc" xlink:title="pos_add_assoc">
<ellipse fill="#f070d1" stroke="black" cx="1211" cy="-395.84" rx="77.99" ry="18"/>
<text text-anchor="middle" x="1211" y="-392.14" font-family="Times,serif" font-size="14.00">pos_add_assoc</text>
</a>
</g>
</g>
<!-- Spec_pos_mul_add_distr_l&#45;&gt;Spec_pos_add_assoc -->
<g id="edge9" class="edge">
<title>Spec_pos_mul_add_distr_l&#45;&gt;Spec_pos_add_assoc</title>
<path fill="none" stroke="black" d="M1061.18,-467.68C1091.64,-453.28 1136.31,-432.16 1168.95,-416.72"/>
<polygon fill="black" stroke="black" points="1170.7,-419.77 1178.24,-412.33 1167.71,-413.44 1170.7,-419.77"/>
</g>
<!-- Spec_mul_xI_r -->
<g id="node7" class="node">
<title>Spec_mul_xI_r</title>
<g id="a_node7"><a xlink:href="Spec.html#mul_xI_r" xlink:title="mul_xI_r">
<ellipse fill="#f070d1" stroke="black" cx="1628" cy="-484.84" rx="50.09" ry="18"/>
<text text-anchor="middle" x="1628" y="-481.14" font-family="Times,serif" font-size="14.00">mul_xI_r</text>
</a>
</g>
</g>
<!-- Spec_pos_mul_comm&#45;&gt;Spec_mul_xI_r -->
<g id="edge10" class="edge">
<title>Spec_pos_mul_comm&#45;&gt;Spec_mul_xI_r</title>
<path fill="none" stroke="black" d="M1503.45,-565.56C1528.94,-549.24 1568.26,-524.08 1595.88,-506.4"/>
<polygon fill="black" stroke="black" points="1597.87,-509.28 1604.41,-500.94 1594.1,-503.38 1597.87,-509.28"/>
</g>
<!-- Spec_mul_xO_r -->
<g id="node8" class="node">
<title>Spec_mul_xO_r</title>
<g id="a_node8"><a xlink:href="Spec.html#mul_xO_r" xlink:title="mul_xO_r">
<ellipse fill="#f070d1" stroke="black" cx="1506" cy="-484.84" rx="53.89" ry="18"/>
<text text-anchor="middle" x="1506" y="-481.14" font-family="Times,serif" font-size="14.00">mul_xO_r</text>
</a>
</g>
</g>
<!-- Spec_pos_mul_comm&#45;&gt;Spec_mul_xO_r -->
<g id="edge11" class="edge">
<title>Spec_pos_mul_comm&#45;&gt;Spec_mul_xO_r</title>
<path fill="none" stroke="black" d="M1483.01,-564.68C1487.23,-550.21 1493.34,-529.25 1498.2,-512.59"/>
<polygon fill="black" stroke="black" points="1501.6,-513.44 1501.04,-502.86 1494.88,-511.48 1501.6,-513.44"/>
</g>
<!-- Spec_pos_mul_comm&#45;&gt;Spec_pos_mul_1_r -->
<g id="edge12" class="edge">
<title>Spec_pos_mul_comm&#45;&gt;Spec_pos_mul_1_r</title>
<path fill="none" stroke="black" d="M1458.75,-565.34C1440.53,-549.72 1413.01,-526.14 1392.68,-508.71"/>
<polygon fill="black" stroke="black" points="1394.87,-505.98 1385,-502.13 1390.32,-511.3 1394.87,-505.98"/>
</g>
<!-- Spec_mul_xI_r&#45;&gt;Spec_pos_add_assoc -->
<g id="edge13" class="edge">
<title>Spec_mul_xI_r&#45;&gt;Spec_pos_add_assoc</title>
<path fill="none" stroke="black" d="M1590.99,-472.64C1583.73,-470.6 1576.15,-468.57 1569,-466.84 1470.22,-443 1354.63,-421.55 1282.1,-408.85"/>
<polygon fill="black" stroke="black" points="1282.61,-405.39 1272.16,-407.12 1281.41,-412.29 1282.61,-405.39"/>
</g>
<!-- Spec_pos_iter_succ_r -->
<g id="node9" class="node">
<title>Spec_pos_iter_succ_r</title>
<g id="a_node9"><a xlink:href="Spec.html#pos_iter_succ_r" xlink:title="pos_iter_succ_r">
<ellipse fill="#f070d1" stroke="black" cx="1227" cy="-779.84" rx="81.46" ry="18"/>
<ellipse fill="none" stroke="black" cx="1227" cy="-779.84" rx="85.48" ry="22"/>
<ellipse fill="none" stroke="black" cx="1227" cy="-779.84" rx="89.49" ry="26"/>
<text text-anchor="middle" x="1227" y="-776.14" font-family="Times,serif" font-size="14.00">pos_iter_succ_r</text>
</a>
</g>
</g>
<!-- Spec_pos_iter_succ_l -->
<g id="node10" class="node">
<title>Spec_pos_iter_succ_l</title>
<g id="a_node10"><a xlink:href="Spec.html#pos_iter_succ_l" xlink:title="pos_iter_succ_l">
<ellipse fill="#f070d1" stroke="black" cx="1032" cy="-779.84" rx="79.89" ry="18"/>
<ellipse fill="none" stroke="black" cx="1032" cy="-779.84" rx="83.89" ry="22"/>
<ellipse fill="none" stroke="black" cx="1032" cy="-779.84" rx="87.89" ry="26"/>
<text text-anchor="middle" x="1032" y="-776.14" font-family="Times,serif" font-size="14.00">pos_iter_succ_l</text>
</a>
</g>
</g>
<!-- Spec_pos_succ_pred_double -->
<g id="node11" class="node">
<title>Spec_pos_succ_pred_double</title>
<g id="a_node11"><a xlink:href="Spec.html#pos_succ_pred_double" xlink:title="pos_succ_pred_double">
<ellipse fill="#f070d1" stroke="black" cx="805" cy="-779.84" rx="113.17" ry="18"/>
<ellipse fill="none" stroke="black" cx="805" cy="-779.84" rx="117.18" ry="22"/>
<ellipse fill="none" stroke="black" cx="805" cy="-779.84" rx="121.18" ry="26"/>
<text text-anchor="middle" x="805" y="-776.14" font-family="Times,serif" font-size="14.00">pos_succ_pred_double</text>
</a>
</g>
</g>
<!-- Spec_pos_pred_double_succ -->
<g id="node12" class="node">
<title>Spec_pos_pred_double_succ</title>
<g id="a_node12"><a xlink:href="Spec.html#pos_pred_double_succ" xlink:title="pos_pred_double_succ">
<ellipse fill="#f070d1" stroke="black" cx="545" cy="-779.84" rx="113.17" ry="18"/>
<ellipse fill="none" stroke="black" cx="545" cy="-779.84" rx="117.18" ry="22"/>
<ellipse fill="none" stroke="black" cx="545" cy="-779.84" rx="121.18" ry="26"/>
<text text-anchor="middle" x="545" y="-776.14" font-family="Times,serif" font-size="14.00">pos_pred_double_succ</text>
</a>
</g>
</g>
<!-- Spec_pos_add_carry_spec_r -->
<g id="node18" class="node">
<title>Spec_pos_add_carry_spec_r</title>
<g id="a_node18"><a xlink:href="Spec.html#pos_add_carry_spec_r" xlink:title="pos_add_carry_spec_r">
<ellipse fill="#f070d1" stroke="black" cx="1119" cy="-218.84" rx="111.28" ry="18"/>
<text text-anchor="middle" x="1119" y="-215.14" font-family="Times,serif" font-size="14.00">pos_add_carry_spec_r</text>
</a>
</g>
</g>
<!-- Spec_pos_add_assoc&#45;&gt;Spec_pos_add_carry_spec_r -->
<g id="edge14" class="edge">
<title>Spec_pos_add_assoc&#45;&gt;Spec_pos_add_carry_spec_r</title>
<path fill="none" stroke="black" d="M1182.39,-378.87C1163.81,-366.86 1140.92,-348.59 1129,-325.84 1116.24,-301.5 1114.93,-269.68 1116.07,-247.28"/>
<polygon fill="black" stroke="black" points="1119.58,-247.33 1116.79,-237.11 1112.6,-246.84 1119.58,-247.33"/>
</g>
<!-- Spec_pos_add_carry_spec_l -->
<g id="node19" class="node">
<title>Spec_pos_add_carry_spec_l</title>
<g id="a_node19"><a xlink:href="Spec.html#pos_add_carry_spec_l" xlink:title="pos_add_carry_spec_l">
<ellipse fill="#f070d1" stroke="black" cx="1412" cy="-307.84" rx="109.68" ry="18"/>
<text text-anchor="middle" x="1412" y="-304.14" font-family="Times,serif" font-size="14.00">pos_add_carry_spec_l</text>
</a>
</g>
</g>
<!-- Spec_pos_add_assoc&#45;&gt;Spec_pos_add_carry_spec_l -->
<g id="edge15" class="edge">
<title>Spec_pos_add_assoc&#45;&gt;Spec_pos_add_carry_spec_l</title>
<path fill="none" stroke="black" d="M1246.47,-379.67C1279.47,-365.55 1328.87,-344.41 1365.12,-328.9"/>
<polygon fill="black" stroke="black" points="1366.68,-332.04 1374.5,-324.89 1363.93,-325.6 1366.68,-332.04"/>
</g>
<!-- Spec_pos_add_succ -->
<g id="node20" class="node">
<title>Spec_pos_add_succ</title>
<g id="a_node20"><a xlink:href="Spec.html#pos_add_succ" xlink:title="pos_add_succ">
<ellipse fill="#f070d1" stroke="black" cx="1211" cy="-307.84" rx="73.39" ry="18"/>
<text text-anchor="middle" x="1211" y="-304.14" font-family="Times,serif" font-size="14.00">pos_add_succ</text>
</a>
</g>
</g>
<!-- Spec_pos_add_assoc&#45;&gt;Spec_pos_add_succ -->
<g id="edge16" class="edge">
<title>Spec_pos_add_assoc&#45;&gt;Spec_pos_add_succ</title>
<path fill="none" stroke="black" d="M1211,-377.44C1211,-365.59 1211,-349.66 1211,-336.13"/>
<polygon fill="black" stroke="black" points="1214.5,-335.93 1211,-325.93 1207.5,-335.93 1214.5,-335.93"/>
</g>
<!-- Spec_pos_succ_inj -->
<g id="node16" class="node">
<title>Spec_pos_succ_inj</title>
<g id="a_node16"><a xlink:href="Spec.html#pos_succ_inj" xlink:title="pos_succ_inj">
<ellipse fill="#f070d1" stroke="black" cx="330" cy="-779.84" rx="67.68" ry="18"/>
<ellipse fill="none" stroke="black" cx="330" cy="-779.84" rx="71.68" ry="22"/>
<ellipse fill="none" stroke="black" cx="330" cy="-779.84" rx="75.69" ry="26"/>
<text text-anchor="middle" x="330" y="-776.14" font-family="Times,serif" font-size="14.00">pos_succ_inj</text>
</a>
</g>
</g>
<!-- Spec_pos_add_no_neutral -->
<g id="node17" class="node">
<title>Spec_pos_add_no_neutral</title>
<g id="a_node17"><a xlink:href="Spec.html#pos_add_no_neutral" xlink:title="pos_add_no_neutral">
<ellipse fill="#f070d1" stroke="black" cx="126" cy="-779.84" rx="102.08" ry="18"/>
<ellipse fill="none" stroke="black" cx="126" cy="-779.84" rx="106.08" ry="22"/>
<ellipse fill="none" stroke="black" cx="126" cy="-779.84" rx="110.08" ry="26"/>
<text text-anchor="middle" x="126" y="-776.14" font-family="Times,serif" font-size="14.00">pos_add_no_neutral</text>
</a>
</g>
</g>
<!-- Spec_pos_add_succ_r -->
<g id="node22" class="node">
<title>Spec_pos_add_succ_r</title>
<g id="a_node22"><a xlink:href="Spec.html#pos_add_succ_r" xlink:title="pos_add_succ_r">
<ellipse fill="#f070d1" stroke="black" cx="1145" cy="-130.84" rx="81.79" ry="18"/>
<text text-anchor="middle" x="1145" y="-127.14" font-family="Times,serif" font-size="14.00">pos_add_succ_r</text>
</a>
</g>
</g>
<!-- Spec_pos_add_carry_spec_r&#45;&gt;Spec_pos_add_succ_r -->
<g id="edge17" class="edge">
<title>Spec_pos_add_carry_spec_r&#45;&gt;Spec_pos_add_succ_r</title>
<path fill="none" stroke="black" d="M1124.14,-200.85C1127.75,-188.92 1132.65,-172.7 1136.8,-158.98"/>
<polygon fill="black" stroke="black" points="1140.24,-159.68 1139.78,-149.09 1133.54,-157.65 1140.24,-159.68"/>
</g>
<!-- Spec_pos_add_succ_l -->
<g id="node21" class="node">
<title>Spec_pos_add_succ_l</title>
<g id="a_node21"><a xlink:href="Spec.html#pos_add_succ_l" xlink:title="pos_add_succ_l">
<ellipse fill="#f070d1" stroke="black" cx="1329" cy="-218.84" rx="80.69" ry="18"/>
<text text-anchor="middle" x="1329" y="-215.14" font-family="Times,serif" font-size="14.00">pos_add_succ_l</text>
</a>
</g>
</g>
<!-- Spec_pos_add_carry_spec_l&#45;&gt;Spec_pos_add_succ_l -->
<g id="edge18" class="edge">
<title>Spec_pos_add_carry_spec_l&#45;&gt;Spec_pos_add_succ_l</title>
<path fill="none" stroke="black" d="M1395.6,-289.65C1383.24,-276.7 1366.13,-258.76 1352.35,-244.31"/>
<polygon fill="black" stroke="black" points="1354.52,-241.52 1345.08,-236.7 1349.45,-246.35 1354.52,-241.52"/>
</g>
<!-- Spec_pos_add_succ&#45;&gt;Spec_pos_add_succ_l -->
<g id="edge19" class="edge">
<title>Spec_pos_add_succ&#45;&gt;Spec_pos_add_succ_l</title>
<path fill="none" stroke="black" d="M1233.19,-290.48C1251.62,-276.89 1278.02,-257.43 1298.44,-242.37"/>
<polygon fill="black" stroke="black" points="1300.53,-245.18 1306.5,-236.43 1296.38,-239.55 1300.53,-245.18"/>
</g>
<!-- Spec_pos_add_succ_l&#45;&gt;Spec_pos_add_succ_r -->
<g id="edge20" class="edge">
<title>Spec_pos_add_succ_l&#45;&gt;Spec_pos_add_succ_r</title>
<path fill="none" stroke="black" d="M1295.68,-202.27C1265.42,-188.13 1220.63,-167.19 1187.75,-151.82"/>
<polygon fill="black" stroke="black" points="1188.92,-148.51 1178.38,-147.45 1185.96,-154.85 1188.92,-148.51"/>
</g>
<!-- Spec_pos_add_comm -->
<g id="node23" class="node">
<title>Spec_pos_add_comm</title>
<g id="a_node23"><a xlink:href="Spec.html#pos_add_comm" xlink:title="pos_add_comm">
<ellipse fill="#f070d1" stroke="black" cx="1329" cy="-130.84" rx="80.69" ry="18"/>
<text text-anchor="middle" x="1329" y="-127.14" font-family="Times,serif" font-size="14.00">pos_add_comm</text>
</a>
</g>
</g>
<!-- Spec_pos_add_succ_l&#45;&gt;Spec_pos_add_comm -->
<g id="edge21" class="edge">
<title>Spec_pos_add_succ_l&#45;&gt;Spec_pos_add_comm</title>
<path fill="none" stroke="black" d="M1329,-200.44C1329,-188.59 1329,-172.66 1329,-159.13"/>
<polygon fill="black" stroke="black" points="1332.5,-158.93 1329,-148.93 1325.5,-158.93 1332.5,-158.93"/>
</g>
<!-- Spec_pos_add_carry_spec -->
<g id="node24" class="node">
<title>Spec_pos_add_carry_spec</title>
<g id="a_node24"><a xlink:href="Spec.html#pos_add_carry_spec" xlink:title="pos_add_carry_spec">
<ellipse fill="#f070d1" stroke="black" cx="1329" cy="-41.84" rx="102.88" ry="18"/>
<text text-anchor="middle" x="1329" y="-38.14" font-family="Times,serif" font-size="14.00">pos_add_carry_spec</text>
</a>
</g>
</g>
<!-- Spec_pos_add_succ_r&#45;&gt;Spec_pos_add_carry_spec -->
<g id="edge22" class="edge">
<title>Spec_pos_add_succ_r&#45;&gt;Spec_pos_add_carry_spec</title>
<path fill="none" stroke="black" d="M1177.9,-114.29C1208,-100.05 1252.75,-78.89 1285.74,-63.3"/>
<polygon fill="black" stroke="black" points="1287.6,-66.29 1295.14,-58.85 1284.61,-59.96 1287.6,-66.29"/>
</g>
<!-- Spec_pos_add_1_r -->
<g id="node26" class="node">
<title>Spec_pos_add_1_r</title>
<g id="a_node26"><a xlink:href="Spec.html#pos_add_1_r" xlink:title="pos_add_1_r">
<ellipse fill="#f070d1" stroke="black" cx="1141" cy="-41.84" rx="67.69" ry="18"/>
<text text-anchor="middle" x="1141" y="-38.14" font-family="Times,serif" font-size="14.00">pos_add_1_r</text>
</a>
</g>
</g>
<!-- Spec_pos_add_succ_r&#45;&gt;Spec_pos_add_1_r -->
<g id="edge23" class="edge">
<title>Spec_pos_add_succ_r&#45;&gt;Spec_pos_add_1_r</title>
<path fill="none" stroke="black" d="M1144.21,-112.65C1143.65,-100.5 1142.89,-83.96 1142.25,-70.02"/>
<polygon fill="black" stroke="black" points="1145.74,-69.82 1141.79,-60 1138.75,-70.15 1145.74,-69.82"/>
</g>
<!-- Spec_pos_add_comm&#45;&gt;Spec_pos_add_carry_spec -->
<g id="edge24" class="edge">
<title>Spec_pos_add_comm&#45;&gt;Spec_pos_add_carry_spec</title>
<path fill="none" stroke="black" d="M1329,-112.65C1329,-100.5 1329,-83.96 1329,-70.02"/>
<polygon fill="black" stroke="black" points="1332.5,-70 1329,-60 1325.5,-70 1332.5,-70"/>
</g>
</g>
</svg>
