<?xml version="1.0" encoding="UTF-8" standalone="no"?>
<!DOCTYPE svg PUBLIC "-//W3C//DTD SVG 1.1//EN"
 "http://www.w3.org/Graphics/SVG/1.1/DTD/svg11.dtd">
<!-- Generated by graphviz version 2.43.0 (0)
 -->
<!-- Title: HoTT_Basics_Datatypes Pages: 1 -->
<svg width="1176pt" height="592pt"
 viewBox="0.00 0.00 1176.00 592.00" xmlns="http://www.w3.org/2000/svg" xmlns:xlink="http://www.w3.org/1999/xlink">
<g id="graph0" class="graph" transform="scale(1 1) rotate(0) translate(4 588)">
<title>HoTT_Basics_Datatypes</title>
<polygon fill="white" stroke="transparent" points="-4,4 -4,-588 1172,-588 1172,4 -4,4"/>
<g id="clust1" class="cluster">
<title>cluster_Basics</title>
<polygon fill="#ffffc3" stroke="black" points="8,-21.43 8,-562.57 908,-562.57 908,-21.43 8,-21.43"/>
<text text-anchor="middle" x="39" y="-547.37" font-family="Times,serif" font-size="14.00">Basics</text>
</g>
<g id="clust2" class="cluster">
<title>cluster_Basics_Datatypes</title>
<polygon fill="#ffffa3" stroke="black" points="16,-42.86 16,-479.52 900,-479.52 900,-42.86 16,-42.86"/>
<text text-anchor="middle" x="60.5" y="-464.32" font-family="Times,serif" font-size="14.00">Datatypes</text>
</g>
<g id="clust3" class="cluster">
<title>cluster_Datatypes</title>
<polygon fill="#ffffc3" stroke="black" points="916,-235.74 916,-479.52 1160,-479.52 1160,-235.74 916,-235.74"/>
<text text-anchor="middle" x="960.5" y="-464.32" font-family="Times,serif" font-size="14.00">Datatypes</text>
</g>
<!-- Basics_Datatypes_app -->
<g id="node1" class="node">
<title>Basics_Datatypes_app</title>
<g id="a_node1"><a xlink:href="Basics.html#Datatypes.app" xlink:title="app">
<ellipse fill="#f070d1" stroke="black" cx="856" cy="-326.43" rx="27.91" ry="18"/>
<ellipse fill="none" stroke="black" cx="856" cy="-326.43" rx="31.9" ry="22"/>
<ellipse fill="none" stroke="black" cx="856" cy="-326.43" rx="35.9" ry="26"/>
<text text-anchor="middle" x="856" y="-322.73" font-family="Times,serif" font-size="14.00">app</text>
</a>
</g>
</g>
<!-- Basics_Datatypes_cons -->
<g id="node3" class="node">
<title>Basics_Datatypes_cons</title>
<g id="a_node3"><a xlink:href="Basics.html#Datatypes.cons" xlink:title="cons">
<ellipse fill="#7faaff" stroke="black" cx="788" cy="-112.43" rx="31.7" ry="18"/>
<text text-anchor="middle" x="788" y="-108.73" font-family="Times,serif" font-size="14.00">cons</text>
</a>
</g>
</g>
<!-- Basics_Datatypes_app&#45;&gt;Basics_Datatypes_cons -->
<g id="edge1" class="edge">
<title>Basics_Datatypes_app&#45;&gt;Basics_Datatypes_cons</title>
<path fill="none" stroke="black" d="M848.07,-300.7C835.18,-260.52 809.81,-181.42 796.54,-140.06"/>
<polygon fill="black" stroke="black" points="799.83,-138.85 793.44,-130.4 793.16,-140.99 799.83,-138.85"/>
</g>
<!-- Basics_Datatypes_list -->
<g id="node5" class="node">
<title>Basics_Datatypes_list</title>
<g id="a_node5"><a xlink:href="Basics.html#Datatypes.list" xlink:title="list">
<ellipse fill="#e2cdfa" stroke="black" cx="865" cy="-112.43" rx="27" ry="18"/>
<text text-anchor="middle" x="865" y="-108.73" font-family="Times,serif" font-size="14.00">list</text>
</a>
</g>
</g>
<!-- Basics_Datatypes_app&#45;&gt;Basics_Datatypes_list -->
<g id="edge2" class="edge">
<title>Basics_Datatypes_app&#45;&gt;Basics_Datatypes_list</title>
<path fill="none" stroke="black" d="M857.07,-300.28C858.77,-260.21 862.08,-182.18 863.84,-140.77"/>
<polygon fill="black" stroke="black" points="867.34,-140.74 864.27,-130.6 860.35,-140.45 867.34,-140.74"/>
</g>
<!-- Basics_Datatypes_list_rect -->
<g id="node2" class="node">
<title>Basics_Datatypes_list_rect</title>
<g id="a_node2"><a xlink:href="Basics.html#Datatypes.list_rect" xlink:title="list_rect">
<ellipse fill="#f070d1" stroke="black" cx="746" cy="-326.43" rx="48.18" ry="18"/>
<ellipse fill="none" stroke="black" cx="746" cy="-326.43" rx="52.18" ry="22"/>
<ellipse fill="none" stroke="black" cx="746" cy="-326.43" rx="56.19" ry="26"/>
<text text-anchor="middle" x="746" y="-322.73" font-family="Times,serif" font-size="14.00">list_rect</text>
</a>
</g>
</g>
<!-- Basics_Datatypes_list_rect&#45;&gt;Basics_Datatypes_cons -->
<g id="edge3" class="edge">
<title>Basics_Datatypes_list_rect&#45;&gt;Basics_Datatypes_cons</title>
<path fill="none" stroke="black" d="M750.98,-300.28C758.94,-260.12 774.45,-181.85 782.64,-140.51"/>
<polygon fill="black" stroke="black" points="786.09,-141.09 784.6,-130.6 779.22,-139.73 786.09,-141.09"/>
</g>
<!-- Basics_Datatypes_nil -->
<g id="node4" class="node">
<title>Basics_Datatypes_nil</title>
<g id="a_node4"><a xlink:href="Basics.html#Datatypes.nil" xlink:title="nil">
<ellipse fill="#7faaff" stroke="black" cx="711" cy="-112.43" rx="27" ry="18"/>
<text text-anchor="middle" x="711" y="-108.73" font-family="Times,serif" font-size="14.00">nil</text>
</a>
</g>
</g>
<!-- Basics_Datatypes_list_rect&#45;&gt;Basics_Datatypes_nil -->
<g id="edge4" class="edge">
<title>Basics_Datatypes_list_rect&#45;&gt;Basics_Datatypes_nil</title>
<path fill="none" stroke="black" d="M741.85,-300.28C735.22,-260.12 722.3,-181.85 715.47,-140.51"/>
<polygon fill="black" stroke="black" points="718.92,-139.9 713.84,-130.6 712.01,-141.04 718.92,-139.9"/>
</g>
<!-- Basics_Datatypes_list_rect&#45;&gt;Basics_Datatypes_list -->
<g id="edge5" class="edge">
<title>Basics_Datatypes_list_rect&#45;&gt;Basics_Datatypes_list</title>
<path fill="none" stroke="black" d="M759.65,-301.11C782.42,-260.55 827.92,-179.5 850.95,-138.47"/>
<polygon fill="black" stroke="black" points="854.06,-140.08 855.9,-129.64 847.95,-136.65 854.06,-140.08"/>
</g>
<!-- Datatypes_iff -->
<g id="node6" class="node">
<title>Datatypes_iff</title>
<g id="a_node6"><a xlink:href="Datatypes.html#iff" xlink:title="iff">
<ellipse fill="#f070d1" stroke="black" cx="1117" cy="-326.43" rx="27" ry="18"/>
<ellipse fill="none" stroke="black" cx="1117" cy="-326.43" rx="31" ry="22"/>
<ellipse fill="none" stroke="black" cx="1117" cy="-326.43" rx="35" ry="26"/>
<text text-anchor="middle" x="1117" y="-322.73" font-family="Times,serif" font-size="14.00">iff</text>
</a>
</g>
</g>
<!-- Basics_Datatypes_prod -->
<g id="node12" class="node">
<title>Basics_Datatypes_prod</title>
<g id="a_node12"><a xlink:href="Basics.html#Datatypes.prod" xlink:title="prod">
<ellipse fill="#e2cdfa" stroke="black" cx="634" cy="-112.43" rx="32.49" ry="18"/>
<text text-anchor="middle" x="634" y="-108.73" font-family="Times,serif" font-size="14.00">prod</text>
</a>
</g>
</g>
<!-- Datatypes_iff&#45;&gt;Basics_Datatypes_prod -->
<g id="edge6" class="edge">
<title>Datatypes_iff&#45;&gt;Basics_Datatypes_prod</title>
<path fill="none" stroke="black" d="M1094.01,-306.45C1087.46,-301.53 1080.15,-296.48 1073,-292.43 906.79,-198.36 851.65,-203.01 675,-130.43 672.92,-129.57 670.77,-128.69 668.61,-127.8"/>
<polygon fill="black" stroke="black" points="669.72,-124.47 659.14,-123.89 667.05,-130.94 669.72,-124.47"/>
</g>
<!-- Datatypes_prod_curry -->
<g id="node7" class="node">
<title>Datatypes_prod_curry</title>
<g id="a_node7"><a xlink:href="Datatypes.html#prod_curry" xlink:title="prod_curry">
<ellipse fill="#f070d1" stroke="black" cx="994" cy="-326.43" rx="61.96" ry="18"/>
<ellipse fill="none" stroke="black" cx="994" cy="-326.43" rx="65.98" ry="22"/>
<ellipse fill="none" stroke="black" cx="994" cy="-326.43" rx="69.99" ry="26"/>
<text text-anchor="middle" x="994" y="-322.73" font-family="Times,serif" font-size="14.00">prod_curry</text>
</a>
</g>
</g>
<!-- Datatypes_prod_curry&#45;&gt;Basics_Datatypes_prod -->
<g id="edge7" class="edge">
<title>Datatypes_prod_curry&#45;&gt;Basics_Datatypes_prod</title>
<path fill="none" stroke="black" d="M957.83,-304.13C886.82,-262.31 730.34,-170.17 664.33,-131.29"/>
<polygon fill="black" stroke="black" points="666.02,-128.23 655.63,-126.17 662.47,-134.26 666.02,-128.23"/>
</g>
<!-- Basics_Datatypes_prod_rect -->
<g id="node8" class="node">
<title>Basics_Datatypes_prod_rect</title>
<g id="a_node8"><a xlink:href="Basics.html#Datatypes.prod_rect" xlink:title="prod_rect">
<ellipse fill="#f070d1" stroke="black" cx="433" cy="-326.43" rx="55.46" ry="18"/>
<ellipse fill="none" stroke="black" cx="433" cy="-326.43" rx="59.48" ry="22"/>
<ellipse fill="none" stroke="black" cx="433" cy="-326.43" rx="63.49" ry="26"/>
<text text-anchor="middle" x="433" y="-322.73" font-family="Times,serif" font-size="14.00">prod_rect</text>
</a>
</g>
</g>
<!-- Basics_Datatypes_pair -->
<g id="node11" class="node">
<title>Basics_Datatypes_pair</title>
<g id="a_node11"><a xlink:href="Basics.html#Datatypes.pair" xlink:title="pair">
<ellipse fill="#7faaff" stroke="black" cx="554" cy="-112.43" rx="29.5" ry="18"/>
<text text-anchor="middle" x="554" y="-108.73" font-family="Times,serif" font-size="14.00">pair</text>
</a>
</g>
</g>
<!-- Basics_Datatypes_prod_rect&#45;&gt;Basics_Datatypes_pair -->
<g id="edge8" class="edge">
<title>Basics_Datatypes_prod_rect&#45;&gt;Basics_Datatypes_pair</title>
<path fill="none" stroke="black" d="M447.12,-300.7C470.37,-259.96 516.46,-179.21 539.78,-138.35"/>
<polygon fill="black" stroke="black" points="542.87,-139.99 544.79,-129.57 536.79,-136.52 542.87,-139.99"/>
</g>
<!-- Basics_Datatypes_prod_rect&#45;&gt;Basics_Datatypes_prod -->
<g id="edge9" class="edge">
<title>Basics_Datatypes_prod_rect&#45;&gt;Basics_Datatypes_prod</title>
<path fill="none" stroke="black" d="M455.28,-301.93C494.18,-260.9 574.02,-176.7 612.42,-136.19"/>
<polygon fill="black" stroke="black" points="615.19,-138.36 619.53,-128.7 610.11,-133.55 615.19,-138.36"/>
</g>
<!-- Basics_Datatypes_snd -->
<g id="node9" class="node">
<title>Basics_Datatypes_snd</title>
<g id="a_node9"><a xlink:href="Basics.html#Datatypes.snd" xlink:title="snd">
<ellipse fill="#f070d1" stroke="black" cx="637" cy="-326.43" rx="27.14" ry="18"/>
<ellipse fill="none" stroke="black" cx="637" cy="-326.43" rx="31.12" ry="22"/>
<ellipse fill="none" stroke="black" cx="637" cy="-326.43" rx="35.1" ry="26"/>
<text text-anchor="middle" x="637" y="-322.73" font-family="Times,serif" font-size="14.00">snd</text>
</a>
</g>
</g>
<!-- Basics_Datatypes_snd&#45;&gt;Basics_Datatypes_prod -->
<g id="edge10" class="edge">
<title>Basics_Datatypes_snd&#45;&gt;Basics_Datatypes_prod</title>
<path fill="none" stroke="black" d="M636.64,-300.28C636.08,-260.21 634.97,-182.18 634.39,-140.77"/>
<polygon fill="black" stroke="black" points="637.88,-140.55 634.24,-130.6 630.88,-140.65 637.88,-140.55"/>
</g>
<!-- Basics_Datatypes_fst -->
<g id="node10" class="node">
<title>Basics_Datatypes_fst</title>
<g id="a_node10"><a xlink:href="Basics.html#Datatypes.fst" xlink:title="fst">
<ellipse fill="#f070d1" stroke="black" cx="549" cy="-326.43" rx="27" ry="18"/>
<ellipse fill="none" stroke="black" cx="549" cy="-326.43" rx="31" ry="22"/>
<ellipse fill="none" stroke="black" cx="549" cy="-326.43" rx="35" ry="26"/>
<text text-anchor="middle" x="549" y="-322.73" font-family="Times,serif" font-size="14.00">fst</text>
</a>
</g>
</g>
<!-- Basics_Datatypes_fst&#45;&gt;Basics_Datatypes_prod -->
<g id="edge11" class="edge">
<title>Basics_Datatypes_fst&#45;&gt;Basics_Datatypes_prod</title>
<path fill="none" stroke="black" d="M558.75,-301.11C574.86,-260.92 606.92,-180.98 623.51,-139.6"/>
<polygon fill="black" stroke="black" points="626.8,-140.78 627.28,-130.2 620.31,-138.18 626.8,-140.78"/>
</g>
<!-- Basics_Datatypes_sum_rect -->
<g id="node13" class="node">
<title>Basics_Datatypes_sum_rect</title>
<g id="a_node13"><a xlink:href="Basics.html#Datatypes.sum_rect" xlink:title="sum_rect">
<ellipse fill="#f070d1" stroke="black" cx="290" cy="-326.43" rx="53.12" ry="18"/>
<ellipse fill="none" stroke="black" cx="290" cy="-326.43" rx="57.1" ry="22"/>
<ellipse fill="none" stroke="black" cx="290" cy="-326.43" rx="61.09" ry="26"/>
<text text-anchor="middle" x="290" y="-322.73" font-family="Times,serif" font-size="14.00">sum_rect</text>
</a>
</g>
</g>
<!-- Basics_Datatypes_inr -->
<g id="node14" class="node">
<title>Basics_Datatypes_inr</title>
<g id="a_node14"><a xlink:href="Basics.html#Datatypes.inr" xlink:title="inr">
<ellipse fill="#7faaff" stroke="black" cx="328" cy="-112.43" rx="27" ry="18"/>
<text text-anchor="middle" x="328" y="-108.73" font-family="Times,serif" font-size="14.00">inr</text>
</a>
</g>
</g>
<!-- Basics_Datatypes_sum_rect&#45;&gt;Basics_Datatypes_inr -->
<g id="edge12" class="edge">
<title>Basics_Datatypes_sum_rect&#45;&gt;Basics_Datatypes_inr</title>
<path fill="none" stroke="black" d="M294.51,-300.28C301.72,-260.02 315.81,-181.46 323.2,-140.2"/>
<polygon fill="black" stroke="black" points="326.65,-140.78 324.97,-130.32 319.76,-139.55 326.65,-140.78"/>
</g>
<!-- Basics_Datatypes_inl -->
<g id="node15" class="node">
<title>Basics_Datatypes_inl</title>
<g id="a_node15"><a xlink:href="Basics.html#Datatypes.inl" xlink:title="inl">
<ellipse fill="#7faaff" stroke="black" cx="400" cy="-112.43" rx="27" ry="18"/>
<text text-anchor="middle" x="400" y="-108.73" font-family="Times,serif" font-size="14.00">inl</text>
</a>
</g>
</g>
<!-- Basics_Datatypes_sum_rect&#45;&gt;Basics_Datatypes_inl -->
<g id="edge13" class="edge">
<title>Basics_Datatypes_sum_rect&#45;&gt;Basics_Datatypes_inl</title>
<path fill="none" stroke="black" d="M302.83,-300.7C323.93,-260.05 365.69,-179.55 386.94,-138.61"/>
<polygon fill="black" stroke="black" points="390.13,-140.06 391.63,-129.57 383.91,-136.83 390.13,-140.06"/>
</g>
<!-- Basics_Datatypes_sum -->
<g id="node16" class="node">
<title>Basics_Datatypes_sum</title>
<g id="a_node16"><a xlink:href="Basics.html#Datatypes.sum" xlink:title="sum">
<ellipse fill="#e2cdfa" stroke="black" cx="476" cy="-112.43" rx="30.59" ry="18"/>
<text text-anchor="middle" x="476" y="-108.73" font-family="Times,serif" font-size="14.00">sum</text>
</a>
</g>
</g>
<!-- Basics_Datatypes_sum_rect&#45;&gt;Basics_Datatypes_sum -->
<g id="edge14" class="edge">
<title>Basics_Datatypes_sum_rect&#45;&gt;Basics_Datatypes_sum</title>
<path fill="none" stroke="black" d="M310.62,-301.93C346.54,-260.99 420.18,-177.05 455.81,-136.44"/>
<polygon fill="black" stroke="black" points="458.64,-138.52 462.61,-128.7 453.38,-133.91 458.64,-138.52"/>
</g>
<!-- Basics_Datatypes_option_rect -->
<g id="node17" class="node">
<title>Basics_Datatypes_option_rect</title>
<g id="a_node17"><a xlink:href="Basics.html#Datatypes.option_rect" xlink:title="option_rect">
<ellipse fill="#f070d1" stroke="black" cx="140" cy="-326.43" rx="63.08" ry="18"/>
<ellipse fill="none" stroke="black" cx="140" cy="-326.43" rx="67.09" ry="22"/>
<ellipse fill="none" stroke="black" cx="140" cy="-326.43" rx="71.09" ry="26"/>
<text text-anchor="middle" x="140" y="-322.73" font-family="Times,serif" font-size="14.00">option_rect</text>
</a>
</g>
</g>
<!-- Basics_Datatypes_None -->
<g id="node18" class="node">
<title>Basics_Datatypes_None</title>
<g id="a_node18"><a xlink:href="Basics.html#Datatypes.None" xlink:title="None">
<ellipse fill="#7faaff" stroke="black" cx="59" cy="-112.43" rx="35.19" ry="18"/>
<text text-anchor="middle" x="59" y="-108.73" font-family="Times,serif" font-size="14.00">None</text>
</a>
</g>
</g>
<!-- Basics_Datatypes_option_rect&#45;&gt;Basics_Datatypes_None -->
<g id="edge15" class="edge">
<title>Basics_Datatypes_option_rect&#45;&gt;Basics_Datatypes_None</title>
<path fill="none" stroke="black" d="M130.39,-300.28C114.94,-259.85 84.74,-180.79 69.03,-139.68"/>
<polygon fill="black" stroke="black" points="72.29,-138.42 65.45,-130.32 65.75,-140.91 72.29,-138.42"/>
</g>
<!-- Basics_Datatypes_Some -->
<g id="node19" class="node">
<title>Basics_Datatypes_Some</title>
<g id="a_node19"><a xlink:href="Basics.html#Datatypes.Some" xlink:title="Some">
<ellipse fill="#7faaff" stroke="black" cx="148" cy="-112.43" rx="36.29" ry="18"/>
<text text-anchor="middle" x="148" y="-108.73" font-family="Times,serif" font-size="14.00">Some</text>
</a>
</g>
</g>
<!-- Basics_Datatypes_option_rect&#45;&gt;Basics_Datatypes_Some -->
<g id="edge16" class="edge">
<title>Basics_Datatypes_option_rect&#45;&gt;Basics_Datatypes_Some</title>
<path fill="none" stroke="black" d="M140.95,-300.28C142.46,-260.21 145.41,-182.18 146.97,-140.77"/>
<polygon fill="black" stroke="black" points="150.47,-140.73 147.35,-130.6 143.48,-140.46 150.47,-140.73"/>
</g>
<!-- Basics_Datatypes_option -->
<g id="node20" class="node">
<title>Basics_Datatypes_option</title>
<g id="a_node20"><a xlink:href="Basics.html#Datatypes.option" xlink:title="option">
<ellipse fill="#e2cdfa" stroke="black" cx="243" cy="-112.43" rx="40.09" ry="18"/>
<text text-anchor="middle" x="243" y="-108.73" font-family="Times,serif" font-size="14.00">option</text>
</a>
</g>
</g>
<!-- Basics_Datatypes_option_rect&#45;&gt;Basics_Datatypes_option -->
<g id="edge17" class="edge">
<title>Basics_Datatypes_option_rect&#45;&gt;Basics_Datatypes_option</title>
<path fill="none" stroke="black" d="M152.02,-300.7C171.67,-260.25 210.49,-180.35 230.47,-139.22"/>
<polygon fill="black" stroke="black" points="233.67,-140.65 234.89,-130.12 227.37,-137.59 233.67,-140.65"/>
</g>
</g>
</svg>
