<?xml version="1.0" encoding="UTF-8" standalone="no"?>
<!DOCTYPE svg PUBLIC "-//W3C//DTD SVG 1.1//EN"
 "http://www.w3.org/Graphics/SVG/1.1/DTD/svg11.dtd">
<!-- Generated by graphviz version 2.43.0 (0)
 -->
<!-- Title: HoTT_Spaces_TwoSphere Pages: 1 -->
<svg width="820pt" height="414pt"
 viewBox="0.00 0.00 820.00 414.00" xmlns="http://www.w3.org/2000/svg" xmlns:xlink="http://www.w3.org/1999/xlink">
<g id="graph0" class="graph" transform="scale(1 1) rotate(0) translate(4 410)">
<title>HoTT_Spaces_TwoSphere</title>
<polygon fill="white" stroke="transparent" points="-4,4 -4,-410 816,-410 816,4 -4,4"/>
<g id="clust1" class="cluster">
<title>cluster_TwoSphere</title>
<polygon fill="#ffffc3" stroke="black" points="13.48,-8 13.48,-398 798.52,-398 798.52,-8 13.48,-8"/>
<text text-anchor="middle" x="61.98" y="-382.8" font-family="Times,serif" font-size="14.00">TwoSphere</text>
</g>
<g id="clust2" class="cluster">
<title>cluster_TwoSphere_TwoSphere</title>
<polygon fill="#ffffa3" stroke="black" points="26.95,-16 26.95,-307 491.92,-307 491.92,-16 26.95,-16"/>
<text text-anchor="middle" x="75.45" y="-291.8" font-family="Times,serif" font-size="14.00">TwoSphere</text>
</g>
<!-- TwoSphere_TwoSphere_TwoSphere_ind_beta_surf -->
<g id="node1" class="node">
<title>TwoSphere_TwoSphere_TwoSphere_ind_beta_surf</title>
<g id="a_node1"><a xlink:href="TwoSphere.html#TwoSphere.TwoSphere_ind_beta_surf" xlink:title="TwoSphere_ind_beta_surf">
<ellipse fill="#facdef" stroke="black" cx="259.75" cy="-258" rx="129.98" ry="18"/>
<text text-anchor="middle" x="259.75" y="-254.3" font-family="Times,serif" font-size="14.00">TwoSphere_ind_beta_surf</text>
</a>
</g>
</g>
<!-- TwoSphere_TwoSphere_TwoSphere_ind -->
<g id="node2" class="node">
<title>TwoSphere_TwoSphere_TwoSphere_ind</title>
<g id="a_node2"><a xlink:href="TwoSphere.html#TwoSphere.TwoSphere_ind" xlink:title="TwoSphere_ind">
<ellipse fill="#f070d1" stroke="black" cx="294.75" cy="-186" rx="81.79" ry="18"/>
<text text-anchor="middle" x="294.75" y="-182.3" font-family="Times,serif" font-size="14.00">TwoSphere_ind</text>
</a>
</g>
</g>
<!-- TwoSphere_TwoSphere_TwoSphere_ind_beta_surf&#45;&gt;TwoSphere_TwoSphere_TwoSphere_ind -->
<g id="edge1" class="edge">
<title>TwoSphere_TwoSphere_TwoSphere_ind_beta_surf&#45;&gt;TwoSphere_TwoSphere_TwoSphere_ind</title>
<path fill="none" stroke="black" d="M268.4,-239.7C272.39,-231.73 277.2,-222.1 281.62,-213.26"/>
<polygon fill="black" stroke="black" points="284.86,-214.61 286.2,-204.1 278.6,-211.48 284.86,-214.61"/>
</g>
<!-- TwoSphere_TwoSphere_surf -->
<g id="node3" class="node">
<title>TwoSphere_TwoSphere_surf</title>
<g id="a_node3"><a xlink:href="TwoSphere.html#TwoSphere.surf" xlink:title="surf">
<ellipse fill="#facdef" stroke="black" cx="294.75" cy="-114" rx="29.5" ry="18"/>
<text text-anchor="middle" x="294.75" y="-110.3" font-family="Times,serif" font-size="14.00">surf</text>
</a>
</g>
</g>
<!-- TwoSphere_TwoSphere_TwoSphere_ind&#45;&gt;TwoSphere_TwoSphere_surf -->
<g id="edge2" class="edge">
<title>TwoSphere_TwoSphere_TwoSphere_ind&#45;&gt;TwoSphere_TwoSphere_surf</title>
<path fill="none" stroke="black" d="M294.75,-167.7C294.75,-159.98 294.75,-150.71 294.75,-142.11"/>
<polygon fill="black" stroke="black" points="298.25,-142.1 294.75,-132.1 291.25,-142.1 298.25,-142.1"/>
</g>
<!-- TwoSphere_TwoSphere_base -->
<g id="node4" class="node">
<title>TwoSphere_TwoSphere_base</title>
<g id="a_node4"><a xlink:href="TwoSphere.html#TwoSphere.base" xlink:title="base">
<ellipse fill="#7faaff" stroke="black" cx="137.75" cy="-42" rx="32.49" ry="18"/>
<text text-anchor="middle" x="137.75" y="-38.3" font-family="Times,serif" font-size="14.00">base</text>
</a>
</g>
</g>
<!-- TwoSphere_TwoSphere_surf&#45;&gt;TwoSphere_TwoSphere_base -->
<g id="edge3" class="edge">
<title>TwoSphere_TwoSphere_surf&#45;&gt;TwoSphere_TwoSphere_base</title>
<path fill="none" stroke="black" d="M271.59,-102.67C245.19,-90.9 201.8,-71.56 171.61,-58.09"/>
<polygon fill="black" stroke="black" points="172.87,-54.82 162.31,-53.95 170.01,-61.22 172.87,-54.82"/>
</g>
<!-- TwoSphere_TwoSphere_TwoSphere -->
<g id="node5" class="node">
<title>TwoSphere_TwoSphere_TwoSphere</title>
<g id="a_node5"><a xlink:href="TwoSphere.html#TwoSphere.TwoSphere" xlink:title="TwoSphere">
<ellipse fill="#e2cdfa" stroke="black" cx="329.75" cy="-42" rx="63.09" ry="18"/>
<text text-anchor="middle" x="329.75" y="-38.3" font-family="Times,serif" font-size="14.00">TwoSphere</text>
</a>
</g>
</g>
<!-- TwoSphere_TwoSphere_surf&#45;&gt;TwoSphere_TwoSphere_TwoSphere -->
<g id="edge4" class="edge">
<title>TwoSphere_TwoSphere_surf&#45;&gt;TwoSphere_TwoSphere_TwoSphere</title>
<path fill="none" stroke="black" d="M303.05,-96.41C307.13,-88.25 312.14,-78.22 316.72,-69.07"/>
<polygon fill="black" stroke="black" points="319.93,-70.47 321.27,-59.96 313.67,-67.34 319.93,-70.47"/>
</g>
<!-- TwoSphere_TwoSphere_rec_beta_surf -->
<g id="node6" class="node">
<title>TwoSphere_TwoSphere_rec_beta_surf</title>
<g id="a_node6"><a xlink:href="TwoSphere.html#TwoSphere_rec_beta_surf" xlink:title="TwoSphere_rec_beta_surf">
<ellipse fill="#f070d1" stroke="black" cx="405.75" cy="-341" rx="129.98" ry="18"/>
<ellipse fill="none" stroke="black" cx="405.75" cy="-341" rx="133.98" ry="22"/>
<ellipse fill="none" stroke="black" cx="405.75" cy="-341" rx="137.98" ry="26"/>
<text text-anchor="middle" x="405.75" y="-337.3" font-family="Times,serif" font-size="14.00">TwoSphere_rec_beta_surf</text>
</a>
</g>
</g>
<!-- TwoSphere_TwoSphere_rec_beta_surf&#45;&gt;TwoSphere_TwoSphere_TwoSphere_ind_beta_surf -->
<g id="edge5" class="edge">
<title>TwoSphere_TwoSphere_rec_beta_surf&#45;&gt;TwoSphere_TwoSphere_TwoSphere_ind_beta_surf</title>
<path fill="none" stroke="black" d="M362.74,-316.14C342.55,-304.94 318.66,-291.68 298.97,-280.76"/>
<polygon fill="black" stroke="black" points="300.41,-277.56 289.97,-275.76 297.02,-283.68 300.41,-277.56"/>
</g>
<!-- TwoSphere_TwoSphere_rec -->
<g id="node7" class="node">
<title>TwoSphere_TwoSphere_rec</title>
<g id="a_node7"><a xlink:href="TwoSphere.html#TwoSphere_rec" xlink:title="TwoSphere_rec">
<ellipse fill="#f070d1" stroke="black" cx="646.75" cy="-258" rx="81.79" ry="18"/>
<text text-anchor="middle" x="646.75" y="-254.3" font-family="Times,serif" font-size="14.00">TwoSphere_rec</text>
</a>
</g>
</g>
<!-- TwoSphere_TwoSphere_rec_beta_surf&#45;&gt;TwoSphere_TwoSphere_rec -->
<g id="edge6" class="edge">
<title>TwoSphere_TwoSphere_rec_beta_surf&#45;&gt;TwoSphere_TwoSphere_rec</title>
<path fill="none" stroke="black" d="M470.97,-318.08C509.58,-305.1 557.85,-288.88 594.04,-276.72"/>
<polygon fill="black" stroke="black" points="595.54,-279.9 603.91,-273.4 593.31,-273.27 595.54,-279.9"/>
</g>
<!-- TwoSphere_TwoSphere_rec&#45;&gt;TwoSphere_TwoSphere_TwoSphere_ind -->
<g id="edge7" class="edge">
<title>TwoSphere_TwoSphere_rec&#45;&gt;TwoSphere_TwoSphere_TwoSphere_ind</title>
<path fill="none" stroke="black" d="M588.23,-245.36C526.31,-233.05 428.68,-213.63 363.23,-200.62"/>
<polygon fill="black" stroke="black" points="363.9,-197.18 353.41,-198.67 362.54,-204.05 363.9,-197.18"/>
</g>
</g>
</svg>
