<?xml version="1.0" encoding="UTF-8" standalone="no"?>
<!DOCTYPE svg PUBLIC "-//W3C//DTD SVG 1.1//EN"
 "http://www.w3.org/Graphics/SVG/1.1/DTD/svg11.dtd">
<!-- Generated by graphviz version 2.43.0 (0)
 -->
<!-- Title: HoTT_WildCat_Opposite Pages: 1 -->
<svg width="1059pt" height="534pt"
 viewBox="0.00 0.00 1059.00 533.50" xmlns="http://www.w3.org/2000/svg" xmlns:xlink="http://www.w3.org/1999/xlink">
<g id="graph0" class="graph" transform="scale(1 1) rotate(0) translate(4 529.5)">
<title>HoTT_WildCat_Opposite</title>
<polygon fill="white" stroke="transparent" points="-4,4 -4,-529.5 1055,-529.5 1055,4 -4,4"/>
<g id="clust1" class="cluster">
<title>cluster_Opposite</title>
<polygon fill="#ffffc3" stroke="black" points="8,-8.16 8,-517.34 1043,-517.34 1043,-8.16 8,-8.16"/>
<text text-anchor="middle" x="48" y="-502.14" font-family="Times,serif" font-size="14.00">Opposite</text>
</g>
<!-- Opposite_isterminal_op_isinitial -->
<g id="node1" class="node">
<title>Opposite_isterminal_op_isinitial</title>
<g id="a_node1"><a xlink:href="Opposite.html#isterminal_op_isinitial" xlink:title="isterminal_op_isinitial">
<ellipse fill="#f070d1" stroke="black" cx="136" cy="-369.16" rx="112.38" ry="18"/>
<ellipse fill="none" stroke="black" cx="136" cy="-369.16" rx="116.38" ry="22"/>
<ellipse fill="none" stroke="black" cx="136" cy="-369.16" rx="120.38" ry="26"/>
<text text-anchor="middle" x="136" y="-365.46" font-family="Times,serif" font-size="14.00">isterminal_op_isinitial</text>
</a>
</g>
</g>
<!-- Opposite_is1cat_op -->
<g id="node11" class="node">
<title>Opposite_is1cat_op</title>
<g id="a_node11"><a xlink:href="Opposite.html#is1cat_op" xlink:title="is1cat_op">
<ellipse fill="#f070d1" stroke="black" cx="479" cy="-279.16" rx="53.89" ry="18"/>
<text text-anchor="middle" x="479" y="-275.46" font-family="Times,serif" font-size="14.00">is1cat_op</text>
</a>
</g>
</g>
<!-- Opposite_isterminal_op_isinitial&#45;&gt;Opposite_is1cat_op -->
<g id="edge1" class="edge">
<title>Opposite_isterminal_op_isinitial&#45;&gt;Opposite_is1cat_op</title>
<path fill="none" stroke="black" d="M220.87,-350.59C289.4,-336.12 380.12,-316.25 416,-305.16 423.11,-302.97 430.55,-300.33 437.73,-297.6"/>
<polygon fill="black" stroke="black" points="439.26,-300.77 447.3,-293.86 436.71,-294.25 439.26,-300.77"/>
</g>
<!-- Opposite_isinitial_op_isterminal -->
<g id="node2" class="node">
<title>Opposite_isinitial_op_isterminal</title>
<g id="a_node2"><a xlink:href="Opposite.html#isinitial_op_isterminal" xlink:title="isinitial_op_isterminal">
<ellipse fill="#f070d1" stroke="black" cx="580" cy="-369.16" rx="112.38" ry="18"/>
<ellipse fill="none" stroke="black" cx="580" cy="-369.16" rx="116.38" ry="22"/>
<ellipse fill="none" stroke="black" cx="580" cy="-369.16" rx="120.38" ry="26"/>
<text text-anchor="middle" x="580" y="-365.46" font-family="Times,serif" font-size="14.00">isinitial_op_isterminal</text>
</a>
</g>
</g>
<!-- Opposite_isinitial_op_isterminal&#45;&gt;Opposite_is1cat_op -->
<g id="edge2" class="edge">
<title>Opposite_isinitial_op_isterminal&#45;&gt;Opposite_is1cat_op</title>
<path fill="none" stroke="black" d="M551.87,-343.65C537.19,-330.86 519.36,-315.32 505,-302.82"/>
<polygon fill="black" stroke="black" points="507.27,-300.15 497.43,-296.22 502.67,-305.43 507.27,-300.15"/>
</g>
<!-- Opposite_hasmorext_op -->
<g id="node3" class="node">
<title>Opposite_hasmorext_op</title>
<g id="a_node3"><a xlink:href="Opposite.html#hasmorext_op" xlink:title="hasmorext_op">
<ellipse fill="#f070d1" stroke="black" cx="358" cy="-369.16" rx="75.3" ry="18"/>
<ellipse fill="none" stroke="black" cx="358" cy="-369.16" rx="79.29" ry="22"/>
<ellipse fill="none" stroke="black" cx="358" cy="-369.16" rx="83.29" ry="26"/>
<text text-anchor="middle" x="358" y="-365.46" font-family="Times,serif" font-size="14.00">hasmorext_op</text>
</a>
</g>
</g>
<!-- Opposite_hasmorext_op&#45;&gt;Opposite_is1cat_op -->
<g id="edge3" class="edge">
<title>Opposite_hasmorext_op&#45;&gt;Opposite_is1cat_op</title>
<path fill="none" stroke="black" d="M389.79,-345.04C408.08,-331.74 430.94,-315.12 448.93,-302.03"/>
<polygon fill="black" stroke="black" points="451.3,-304.63 457.33,-295.92 447.19,-298.97 451.3,-304.63"/>
</g>
<!-- Opposite_is1functor_op_ -->
<g id="node4" class="node">
<title>Opposite_is1functor_op_</title>
<g id="a_node4"><a xlink:href="Opposite.html#is1functor_op'" xlink:title="is1functor_op&#39;">
<ellipse fill="#f070d1" stroke="black" cx="871" cy="-459.16" rx="76.08" ry="18"/>
<ellipse fill="none" stroke="black" cx="871" cy="-459.16" rx="80.08" ry="22"/>
<ellipse fill="none" stroke="black" cx="871" cy="-459.16" rx="84.09" ry="26"/>
<text text-anchor="middle" x="871" y="-455.46" font-family="Times,serif" font-size="14.00">is1functor_op&#39;</text>
</a>
</g>
</g>
<!-- Opposite_is0functor_op_ -->
<g id="node5" class="node">
<title>Opposite_is0functor_op_</title>
<g id="a_node5"><a xlink:href="Opposite.html#is0functor_op'" xlink:title="is0functor_op&#39;">
<ellipse fill="#f070d1" stroke="black" cx="959" cy="-369.16" rx="76.09" ry="18"/>
<text text-anchor="middle" x="959" y="-365.46" font-family="Times,serif" font-size="14.00">is0functor_op&#39;</text>
</a>
</g>
</g>
<!-- Opposite_is1functor_op_&#45;&gt;Opposite_is0functor_op_ -->
<g id="edge4" class="edge">
<title>Opposite_is1functor_op_&#45;&gt;Opposite_is0functor_op_</title>
<path fill="none" stroke="black" d="M895.05,-434.12C907.44,-421.73 922.5,-406.66 934.9,-394.26"/>
<polygon fill="black" stroke="black" points="937.63,-396.48 942.23,-386.94 932.68,-391.53 937.63,-396.48"/>
</g>
<!-- Opposite_is1functor_op -->
<g id="node6" class="node">
<title>Opposite_is1functor_op</title>
<g id="a_node6"><a xlink:href="Opposite.html#is1functor_op" xlink:title="is1functor_op">
<ellipse fill="#f070d1" stroke="black" cx="792" cy="-369.16" rx="73.39" ry="18"/>
<text text-anchor="middle" x="792" y="-365.46" font-family="Times,serif" font-size="14.00">is1functor_op</text>
</a>
</g>
</g>
<!-- Opposite_is1functor_op_&#45;&gt;Opposite_is1functor_op -->
<g id="edge5" class="edge">
<title>Opposite_is1functor_op_&#45;&gt;Opposite_is1functor_op</title>
<path fill="none" stroke="black" d="M848.99,-433.65C838.06,-421.47 824.88,-406.79 813.95,-394.62"/>
<polygon fill="black" stroke="black" points="816.43,-392.13 807.14,-387.03 811.22,-396.81 816.43,-392.13"/>
</g>
<!-- Opposite_is0functor_op -->
<g id="node7" class="node">
<title>Opposite_is0functor_op</title>
<g id="a_node7"><a xlink:href="Opposite.html#is0functor_op" xlink:title="is0functor_op">
<ellipse fill="#f070d1" stroke="black" cx="875" cy="-279.16" rx="73.39" ry="18"/>
<text text-anchor="middle" x="875" y="-275.46" font-family="Times,serif" font-size="14.00">is0functor_op</text>
</a>
</g>
</g>
<!-- Opposite_is0functor_op_&#45;&gt;Opposite_is0functor_op -->
<g id="edge6" class="edge">
<title>Opposite_is0functor_op_&#45;&gt;Opposite_is0functor_op</title>
<path fill="none" stroke="black" d="M942.8,-351.2C930.06,-337.84 912.13,-319.06 897.91,-304.17"/>
<polygon fill="black" stroke="black" points="900.3,-301.6 890.86,-296.78 895.23,-306.43 900.3,-301.6"/>
</g>
<!-- Opposite_is1functor_op&#45;&gt;Opposite_is0functor_op -->
<g id="edge7" class="edge">
<title>Opposite_is1functor_op&#45;&gt;Opposite_is0functor_op</title>
<path fill="none" stroke="black" d="M808,-351.2C820.6,-337.84 838.31,-319.06 852.36,-304.17"/>
<polygon fill="black" stroke="black" points="855.01,-306.46 859.33,-296.78 849.92,-301.65 855.01,-306.46"/>
</g>
<!-- Opposite_is1functor_op&#45;&gt;Opposite_is1cat_op -->
<g id="edge8" class="edge">
<title>Opposite_is1functor_op&#45;&gt;Opposite_is1cat_op</title>
<path fill="none" stroke="black" d="M748.65,-354.49C735.93,-350.65 721.95,-346.58 709,-343.16 635.4,-323.73 614.7,-327.71 542,-305.16 534.89,-302.96 527.45,-300.32 520.27,-297.59"/>
<polygon fill="black" stroke="black" points="521.3,-294.23 510.71,-293.85 518.75,-300.75 521.3,-294.23"/>
</g>
<!-- Opposite_isgraph_op -->
<g id="node14" class="node">
<title>Opposite_isgraph_op</title>
<g id="a_node14"><a xlink:href="Opposite.html#isgraph_op" xlink:title="isgraph_op">
<ellipse fill="#f070d1" stroke="black" cx="703" cy="-108.16" rx="61.99" ry="18"/>
<text text-anchor="middle" x="703" y="-104.46" font-family="Times,serif" font-size="14.00">isgraph_op</text>
</a>
</g>
</g>
<!-- Opposite_is0functor_op&#45;&gt;Opposite_isgraph_op -->
<g id="edge9" class="edge">
<title>Opposite_is0functor_op&#45;&gt;Opposite_isgraph_op</title>
<path fill="none" stroke="black" d="M878.79,-261.02C883.1,-236.73 886.96,-192.14 865,-164.16 842.9,-136 805.69,-122.17 772.51,-115.41"/>
<polygon fill="black" stroke="black" points="772.83,-111.91 762.36,-113.53 771.56,-118.79 772.83,-111.91"/>
</g>
<!-- Opposite_op0gpd_fun -->
<g id="node8" class="node">
<title>Opposite_op0gpd_fun</title>
<g id="a_node8"><a xlink:href="Opposite.html#op0gpd_fun" xlink:title="op0gpd_fun">
<ellipse fill="#f070d1" stroke="black" cx="783" cy="-190.16" rx="64.99" ry="18"/>
<ellipse fill="none" stroke="black" cx="783" cy="-190.16" rx="68.99" ry="22"/>
<ellipse fill="none" stroke="black" cx="783" cy="-190.16" rx="72.99" ry="26"/>
<text text-anchor="middle" x="783" y="-186.46" font-family="Times,serif" font-size="14.00">op0gpd_fun</text>
</a>
</g>
</g>
<!-- Opposite_op0gpd_fun&#45;&gt;Opposite_isgraph_op -->
<g id="edge10" class="edge">
<title>Opposite_op0gpd_fun&#45;&gt;Opposite_isgraph_op</title>
<path fill="none" stroke="black" d="M759,-165.16C748.87,-155.04 737.12,-143.28 726.99,-133.16"/>
<polygon fill="black" stroke="black" points="729.17,-130.39 719.63,-125.79 724.22,-135.34 729.17,-130.39"/>
</g>
<!-- Opposite_is0gpd_op -->
<g id="node9" class="node">
<title>Opposite_is0gpd_op</title>
<g id="a_node9"><a xlink:href="Opposite.html#is0gpd_op" xlink:title="is0gpd_op">
<ellipse fill="#f070d1" stroke="black" cx="341" cy="-279.16" rx="57.71" ry="18"/>
<ellipse fill="none" stroke="black" cx="341" cy="-279.16" rx="61.7" ry="22"/>
<ellipse fill="none" stroke="black" cx="341" cy="-279.16" rx="65.69" ry="26"/>
<text text-anchor="middle" x="341" y="-275.46" font-family="Times,serif" font-size="14.00">is0gpd_op</text>
</a>
</g>
</g>
<!-- Opposite_is01cat_op -->
<g id="node13" class="node">
<title>Opposite_is01cat_op</title>
<g id="a_node13"><a xlink:href="Opposite.html#is01cat_op" xlink:title="is01cat_op">
<ellipse fill="#f070d1" stroke="black" cx="479" cy="-190.16" rx="59.59" ry="18"/>
<text text-anchor="middle" x="479" y="-186.46" font-family="Times,serif" font-size="14.00">is01cat_op</text>
</a>
</g>
</g>
<!-- Opposite_is0gpd_op&#45;&gt;Opposite_is01cat_op -->
<g id="edge11" class="edge">
<title>Opposite_is0gpd_op&#45;&gt;Opposite_is01cat_op</title>
<path fill="none" stroke="black" d="M375.11,-256.66C396.62,-243.1 424.27,-225.67 445.64,-212.2"/>
<polygon fill="black" stroke="black" points="447.78,-214.98 454.37,-206.69 444.05,-209.06 447.78,-214.98"/>
</g>
<!-- Opposite_is1cat_strong_op -->
<g id="node10" class="node">
<title>Opposite_is1cat_strong_op</title>
<g id="a_node10"><a xlink:href="Opposite.html#is1cat_strong_op" xlink:title="is1cat_strong_op">
<ellipse fill="#f070d1" stroke="black" cx="648" cy="-279.16" rx="89.08" ry="18"/>
<ellipse fill="none" stroke="black" cx="648" cy="-279.16" rx="93.08" ry="22"/>
<ellipse fill="none" stroke="black" cx="648" cy="-279.16" rx="97.08" ry="26"/>
<text text-anchor="middle" x="648" y="-275.46" font-family="Times,serif" font-size="14.00">is1cat_strong_op</text>
</a>
</g>
</g>
<!-- Opposite_is2graph_op -->
<g id="node12" class="node">
<title>Opposite_is2graph_op</title>
<g id="a_node12"><a xlink:href="Opposite.html#is2graph_op" xlink:title="is2graph_op">
<ellipse fill="#f070d1" stroke="black" cx="624" cy="-190.16" rx="67.69" ry="18"/>
<text text-anchor="middle" x="624" y="-186.46" font-family="Times,serif" font-size="14.00">is2graph_op</text>
</a>
</g>
</g>
<!-- Opposite_is1cat_strong_op&#45;&gt;Opposite_is2graph_op -->
<g id="edge12" class="edge">
<title>Opposite_is1cat_strong_op&#45;&gt;Opposite_is2graph_op</title>
<path fill="none" stroke="black" d="M641.06,-253C638.03,-242.01 634.47,-229.11 631.39,-217.94"/>
<polygon fill="black" stroke="black" points="634.76,-216.99 628.72,-208.28 628.01,-218.85 634.76,-216.99"/>
</g>
<!-- Opposite_is1cat_strong_op&#45;&gt;Opposite_is01cat_op -->
<g id="edge13" class="edge">
<title>Opposite_is1cat_strong_op&#45;&gt;Opposite_is01cat_op</title>
<path fill="none" stroke="black" d="M604.48,-255.76C577.39,-241.81 542.89,-224.05 516.92,-210.68"/>
<polygon fill="black" stroke="black" points="518.26,-207.44 507.77,-205.97 515.06,-213.66 518.26,-207.44"/>
</g>
<!-- Opposite_is1cat_op&#45;&gt;Opposite_is2graph_op -->
<g id="edge14" class="edge">
<title>Opposite_is1cat_op&#45;&gt;Opposite_is2graph_op</title>
<path fill="none" stroke="black" d="M504.26,-263.01C527.63,-248.99 562.6,-228 588.73,-212.33"/>
<polygon fill="black" stroke="black" points="590.79,-215.17 597.56,-207.03 587.19,-209.17 590.79,-215.17"/>
</g>
<!-- Opposite_is1cat_op&#45;&gt;Opposite_is01cat_op -->
<g id="edge15" class="edge">
<title>Opposite_is1cat_op&#45;&gt;Opposite_is01cat_op</title>
<path fill="none" stroke="black" d="M479,-260.97C479,-248.82 479,-232.28 479,-218.34"/>
<polygon fill="black" stroke="black" points="482.5,-218.32 479,-208.32 475.5,-218.32 482.5,-218.32"/>
</g>
<!-- Opposite_is2graph_op&#45;&gt;Opposite_isgraph_op -->
<g id="edge16" class="edge">
<title>Opposite_is2graph_op&#45;&gt;Opposite_isgraph_op</title>
<path fill="none" stroke="black" d="M640.37,-172.59C651.7,-161.11 666.96,-145.66 679.58,-132.88"/>
<polygon fill="black" stroke="black" points="682.12,-135.29 686.65,-125.72 677.14,-130.37 682.12,-135.29"/>
</g>
<!-- Opposite_is01cat_op&#45;&gt;Opposite_isgraph_op -->
<g id="edge17" class="edge">
<title>Opposite_is01cat_op&#45;&gt;Opposite_isgraph_op</title>
<path fill="none" stroke="black" d="M515.32,-175.71C525.55,-171.95 536.7,-167.87 547,-164.16 583.2,-151.13 624.25,-136.67 655.15,-125.85"/>
<polygon fill="black" stroke="black" points="656.52,-129.08 664.8,-122.47 654.21,-122.47 656.52,-129.08"/>
</g>
<!-- Opposite_op -->
<g id="node15" class="node">
<title>Opposite_op</title>
<g id="a_node15"><a xlink:href="Opposite.html#op" xlink:title="op">
<ellipse fill="#f070d1" stroke="black" cx="703" cy="-35.16" rx="27" ry="18"/>
<text text-anchor="middle" x="703" y="-31.46" font-family="Times,serif" font-size="14.00">op</text>
</a>
</g>
</g>
<!-- Opposite_isgraph_op&#45;&gt;Opposite_op -->
<g id="edge18" class="edge">
<title>Opposite_isgraph_op&#45;&gt;Opposite_op</title>
<path fill="none" stroke="black" d="M703,-89.98C703,-81.95 703,-72.21 703,-63.23"/>
<polygon fill="black" stroke="black" points="706.5,-63.19 703,-53.19 699.5,-63.19 706.5,-63.19"/>
</g>
</g>
</svg>
