<?xml version="1.0" encoding="UTF-8" standalone="no"?>
<!DOCTYPE svg PUBLIC "-//W3C//DTD SVG 1.1//EN"
 "http://www.w3.org/Graphics/SVG/1.1/DTD/svg11.dtd">
<!-- Generated by graphviz version 2.43.0 (0)
 -->
<!-- Title: HoTT_Modalities_Meet Pages: 1 -->
<svg width="1688pt" height="848pt"
 viewBox="0.00 0.00 1688.00 848.00" xmlns="http://www.w3.org/2000/svg" xmlns:xlink="http://www.w3.org/1999/xlink">
<g id="graph0" class="graph" transform="scale(1 1) rotate(0) translate(4 844)">
<title>HoTT_Modalities_Meet</title>
<polygon fill="white" stroke="transparent" points="-4,4 -4,-844 1684,-844 1684,4 -4,4"/>
<g id="clust1" class="cluster">
<title>cluster_Meet</title>
<polygon fill="#ffffc3" stroke="black" points="8,-8.54 8,-831.46 1672,-831.46 1672,-8.54 8,-8.54"/>
<text text-anchor="middle" x="34.5" y="-816.26" font-family="Times,serif" font-size="14.00">Meet</text>
</g>
<!-- Meet_reflects_plus_nsep -->
<g id="node1" class="node">
<title>Meet_reflects_plus_nsep</title>
<g id="a_node1"><a xlink:href="Meet.html#reflects_plus_nsep" xlink:title="reflects_plus_nsep">
<ellipse fill="#f070d1" stroke="black" cx="708" cy="-770.54" rx="95.58" ry="18"/>
<ellipse fill="none" stroke="black" cx="708" cy="-770.54" rx="99.58" ry="22"/>
<ellipse fill="none" stroke="black" cx="708" cy="-770.54" rx="103.58" ry="26"/>
<text text-anchor="middle" x="708" y="-766.84" font-family="Times,serif" font-size="14.00">reflects_plus_nsep</text>
</a>
</g>
</g>
<!-- Meet_prereflects_plus_nsep -->
<g id="node2" class="node">
<title>Meet_prereflects_plus_nsep</title>
<g id="a_node2"><a xlink:href="Meet.html#prereflects_plus_nsep" xlink:title="prereflects_plus_nsep">
<ellipse fill="#f070d1" stroke="black" cx="844" cy="-685.54" rx="111.28" ry="18"/>
<text text-anchor="middle" x="844" y="-681.84" font-family="Times,serif" font-size="14.00">prereflects_plus_nsep</text>
</a>
</g>
</g>
<!-- Meet_reflects_plus_nsep&#45;&gt;Meet_prereflects_plus_nsep -->
<g id="edge1" class="edge">
<title>Meet_reflects_plus_nsep&#45;&gt;Meet_prereflects_plus_nsep</title>
<path fill="none" stroke="black" d="M746.25,-746.2C765.64,-734.36 789.06,-720.07 808.12,-708.44"/>
<polygon fill="black" stroke="black" points="810.1,-711.33 816.81,-703.13 806.45,-705.36 810.1,-711.33"/>
</g>
<!-- Meet_ooextendable_plus -->
<g id="node26" class="node">
<title>Meet_ooextendable_plus</title>
<g id="a_node26"><a xlink:href="Meet.html#ooextendable_plus" xlink:title="ooextendable_plus">
<ellipse fill="#f070d1" stroke="black" cx="214" cy="-266.54" rx="96.68" ry="18"/>
<text text-anchor="middle" x="214" y="-262.84" font-family="Times,serif" font-size="14.00">ooextendable_plus</text>
</a>
</g>
</g>
<!-- Meet_reflects_plus_nsep&#45;&gt;Meet_ooextendable_plus -->
<g id="edge2" class="edge">
<title>Meet_reflects_plus_nsep&#45;&gt;Meet_ooextendable_plus</title>
<path fill="none" stroke="black" d="M619.34,-756.95C486.45,-735.56 251,-686.77 251,-609.54 251,-609.54 251,-609.54 251,-530.54 251,-443.52 230.89,-341.87 220.32,-294.45"/>
<polygon fill="black" stroke="black" points="223.73,-293.63 218.1,-284.65 216.9,-295.18 223.73,-293.63"/>
</g>
<!-- Meet_nsep_plus -->
<g id="node3" class="node">
<title>Meet_nsep_plus</title>
<g id="a_node3"><a xlink:href="Meet.html#nsep_plus" xlink:title="nsep_plus">
<ellipse fill="#f070d1" stroke="black" cx="979" cy="-608.54" rx="56.59" ry="18"/>
<text text-anchor="middle" x="979" y="-604.84" font-family="Times,serif" font-size="14.00">nsep_plus</text>
</a>
</g>
</g>
<!-- Meet_prereflects_plus_nsep&#45;&gt;Meet_nsep_plus -->
<g id="edge3" class="edge">
<title>Meet_prereflects_plus_nsep&#45;&gt;Meet_nsep_plus</title>
<path fill="none" stroke="black" d="M873.63,-668.08C894.14,-656.69 921.54,-641.46 943.27,-629.39"/>
<polygon fill="black" stroke="black" points="945.15,-632.35 952.19,-624.43 941.75,-626.23 945.15,-632.35"/>
</g>
<!-- Meet_istruncmap_plus_functor -->
<g id="node4" class="node">
<title>Meet_istruncmap_plus_functor</title>
<g id="a_node4"><a xlink:href="Meet.html#istruncmap_plus_functor" xlink:title="istruncmap_plus_functor">
<ellipse fill="#f070d1" stroke="black" cx="1310" cy="-531.54" rx="125.38" ry="18"/>
<text text-anchor="middle" x="1310" y="-527.84" font-family="Times,serif" font-size="14.00">istruncmap_plus_functor</text>
</a>
</g>
</g>
<!-- Meet_nsep_plus&#45;&gt;Meet_istruncmap_plus_functor -->
<g id="edge4" class="edge">
<title>Meet_nsep_plus&#45;&gt;Meet_istruncmap_plus_functor</title>
<path fill="none" stroke="black" d="M1023.64,-597.42C1078.11,-585.08 1170.97,-564.04 1236.15,-549.27"/>
<polygon fill="black" stroke="black" points="1236.98,-552.67 1245.95,-547.05 1235.43,-545.85 1236.98,-552.67"/>
</g>
<!-- Meet_nsep_iff_trunc_plus -->
<g id="node5" class="node">
<title>Meet_nsep_iff_trunc_plus</title>
<g id="a_node5"><a xlink:href="Meet.html#nsep_iff_trunc_plus" xlink:title="nsep_iff_trunc_plus">
<ellipse fill="#f070d1" stroke="black" cx="689" cy="-352.54" rx="99.38" ry="18"/>
<text text-anchor="middle" x="689" y="-348.84" font-family="Times,serif" font-size="14.00">nsep_iff_trunc_plus</text>
</a>
</g>
</g>
<!-- Meet_nsep_plus&#45;&gt;Meet_nsep_iff_trunc_plus -->
<g id="edge5" class="edge">
<title>Meet_nsep_plus&#45;&gt;Meet_nsep_iff_trunc_plus</title>
<path fill="none" stroke="black" d="M960.42,-591.26C910.63,-547.66 774.07,-428.05 715.86,-377.06"/>
<polygon fill="black" stroke="black" points="718.01,-374.29 708.18,-370.34 713.4,-379.56 718.01,-374.29"/>
</g>
<!-- Meet_plusconnmap_to_plus -->
<g id="node6" class="node">
<title>Meet_plusconnmap_to_plus</title>
<g id="a_node6"><a xlink:href="Meet.html#plusconnmap_to_plus" xlink:title="plusconnmap_to_plus">
<ellipse fill="#f070d1" stroke="black" cx="1212" cy="-352.54" rx="109.68" ry="18"/>
<text text-anchor="middle" x="1212" y="-348.84" font-family="Times,serif" font-size="14.00">plusconnmap_to_plus</text>
</a>
</g>
</g>
<!-- Meet_nsep_plus&#45;&gt;Meet_plusconnmap_to_plus -->
<g id="edge6" class="edge">
<title>Meet_nsep_plus&#45;&gt;Meet_plusconnmap_to_plus</title>
<path fill="none" stroke="black" d="M1005.92,-592.67C1043.7,-570.66 1112.65,-526.2 1156,-472.54 1178.57,-444.6 1194.55,-406.06 1203.52,-380.5"/>
<polygon fill="black" stroke="black" points="1206.93,-381.33 1206.82,-370.73 1200.3,-379.08 1206.93,-381.33"/>
</g>
<!-- Meet_diagonal_plus_functor -->
<g id="node7" class="node">
<title>Meet_diagonal_plus_functor</title>
<g id="a_node7"><a xlink:href="Meet.html#diagonal_plus_functor" xlink:title="diagonal_plus_functor">
<ellipse fill="#f070d1" stroke="black" cx="1378" cy="-446.54" rx="112.38" ry="18"/>
<text text-anchor="middle" x="1378" y="-442.84" font-family="Times,serif" font-size="14.00">diagonal_plus_functor</text>
</a>
</g>
</g>
<!-- Meet_istruncmap_plus_functor&#45;&gt;Meet_diagonal_plus_functor -->
<g id="edge7" class="edge">
<title>Meet_istruncmap_plus_functor&#45;&gt;Meet_diagonal_plus_functor</title>
<path fill="none" stroke="black" d="M1324.09,-513.34C1333.82,-501.47 1346.91,-485.49 1357.75,-472.26"/>
<polygon fill="black" stroke="black" points="1360.53,-474.38 1364.16,-464.43 1355.12,-469.95 1360.53,-474.38"/>
</g>
<!-- Meet_plusconnmap_diagonal -->
<g id="node11" class="node">
<title>Meet_plusconnmap_diagonal</title>
<g id="a_node11"><a xlink:href="Meet.html#plusconnmap_diagonal" xlink:title="plusconnmap_diagonal">
<ellipse fill="#f070d1" stroke="black" cx="1031" cy="-446.54" rx="116.18" ry="18"/>
<text text-anchor="middle" x="1031" y="-442.84" font-family="Times,serif" font-size="14.00">plusconnmap_diagonal</text>
</a>
</g>
</g>
<!-- Meet_istruncmap_plus_functor&#45;&gt;Meet_plusconnmap_diagonal -->
<g id="edge8" class="edge">
<title>Meet_istruncmap_plus_functor&#45;&gt;Meet_plusconnmap_diagonal</title>
<path fill="none" stroke="black" d="M1258.18,-515.12C1211.05,-501.1 1141.47,-480.4 1091.74,-465.61"/>
<polygon fill="black" stroke="black" points="1092.66,-462.23 1082.08,-462.73 1090.66,-468.94 1092.66,-462.23"/>
</g>
<!-- Meet_plus_path_to_plus -->
<g id="node13" class="node">
<title>Meet_plus_path_to_plus</title>
<g id="a_node13"><a xlink:href="Meet.html#plus_path_to_plus" xlink:title="plus_path_to_plus">
<ellipse fill="#f070d1" stroke="black" cx="689" cy="-266.54" rx="92.88" ry="18"/>
<text text-anchor="middle" x="689" y="-262.84" font-family="Times,serif" font-size="14.00">plus_path_to_plus</text>
</a>
</g>
</g>
<!-- Meet_nsep_iff_trunc_plus&#45;&gt;Meet_plus_path_to_plus -->
<g id="edge9" class="edge">
<title>Meet_nsep_iff_trunc_plus&#45;&gt;Meet_plus_path_to_plus</title>
<path fill="none" stroke="black" d="M689,-334.13C689,-322.8 689,-307.77 689,-294.85"/>
<polygon fill="black" stroke="black" points="692.5,-294.63 689,-284.63 685.5,-294.63 692.5,-294.63"/>
</g>
<!-- Meet_inmeet_isequiv_plus -->
<g id="node20" class="node">
<title>Meet_inmeet_isequiv_plus</title>
<g id="a_node20"><a xlink:href="Meet.html#inmeet_isequiv_plus" xlink:title="inmeet_isequiv_plus">
<ellipse fill="#f070d1" stroke="black" cx="671" cy="-189.54" rx="104.78" ry="18"/>
<text text-anchor="middle" x="671" y="-185.84" font-family="Times,serif" font-size="14.00">inmeet_isequiv_plus</text>
</a>
</g>
</g>
<!-- Meet_nsep_iff_trunc_plus&#45;&gt;Meet_inmeet_isequiv_plus -->
<g id="edge10" class="edge">
<title>Meet_nsep_iff_trunc_plus&#45;&gt;Meet_inmeet_isequiv_plus</title>
<path fill="none" stroke="black" d="M647.92,-336.06C625.58,-325.29 599.93,-308.5 587,-284.54 579.4,-270.46 579.57,-262.71 587,-248.54 595.11,-233.07 609.43,-220.92 623.97,-211.82"/>
<polygon fill="black" stroke="black" points="626.13,-214.61 633,-206.55 622.6,-208.57 626.13,-214.61"/>
</g>
<!-- Meet_isequiv_plus_inmeet -->
<g id="node21" class="node">
<title>Meet_isequiv_plus_inmeet</title>
<g id="a_node21"><a xlink:href="Meet.html#isequiv_plus_inmeet" xlink:title="isequiv_plus_inmeet">
<ellipse fill="#f070d1" stroke="black" cx="433" cy="-266.54" rx="104.78" ry="18"/>
<text text-anchor="middle" x="433" y="-262.84" font-family="Times,serif" font-size="14.00">isequiv_plus_inmeet</text>
</a>
</g>
</g>
<!-- Meet_nsep_iff_trunc_plus&#45;&gt;Meet_isequiv_plus_inmeet -->
<g id="edge11" class="edge">
<title>Meet_nsep_iff_trunc_plus&#45;&gt;Meet_isequiv_plus_inmeet</title>
<path fill="none" stroke="black" d="M643.23,-336.52C600,-322.34 535.06,-301.03 488.81,-285.85"/>
<polygon fill="black" stroke="black" points="489.83,-282.5 479.23,-282.71 487.64,-289.15 489.83,-282.5"/>
</g>
<!-- Meet_plus_hfiber_to_plus -->
<g id="node9" class="node">
<title>Meet_plus_hfiber_to_plus</title>
<g id="a_node9"><a xlink:href="Meet.html#plus_hfiber_to_plus" xlink:title="plus_hfiber_to_plus">
<ellipse fill="#f070d1" stroke="black" cx="1340" cy="-266.54" rx="99.38" ry="18"/>
<text text-anchor="middle" x="1340" y="-262.84" font-family="Times,serif" font-size="14.00">plus_hfiber_to_plus</text>
</a>
</g>
</g>
<!-- Meet_plusconnmap_to_plus&#45;&gt;Meet_plus_hfiber_to_plus -->
<g id="edge12" class="edge">
<title>Meet_plusconnmap_to_plus&#45;&gt;Meet_plus_hfiber_to_plus</title>
<path fill="none" stroke="black" d="M1237.29,-334.94C1257.01,-322 1284.59,-303.9 1306.21,-289.72"/>
<polygon fill="black" stroke="black" points="1308.32,-292.51 1314.76,-284.1 1304.48,-286.66 1308.32,-292.51"/>
</g>
<!-- Meet_PlusConnMap -->
<g id="node15" class="node">
<title>Meet_PlusConnMap</title>
<g id="a_node15"><a xlink:href="Meet.html#PlusConnMap" xlink:title="PlusConnMap">
<ellipse fill="#f070d1" stroke="black" cx="895" cy="-266.54" rx="75.29" ry="18"/>
<text text-anchor="middle" x="895" y="-262.84" font-family="Times,serif" font-size="14.00">PlusConnMap</text>
</a>
</g>
</g>
<!-- Meet_plusconnmap_to_plus&#45;&gt;Meet_PlusConnMap -->
<g id="edge13" class="edge">
<title>Meet_plusconnmap_to_plus&#45;&gt;Meet_PlusConnMap</title>
<path fill="none" stroke="black" d="M1156.78,-336.91C1099.77,-321.8 1011.18,-298.32 953.12,-282.94"/>
<polygon fill="black" stroke="black" points="953.92,-279.53 943.36,-280.35 952.13,-286.3 953.92,-279.53"/>
</g>
<!-- Meet_wellpointed_plus -->
<g id="node27" class="node">
<title>Meet_wellpointed_plus</title>
<g id="a_node27"><a xlink:href="Meet.html#wellpointed_plus" xlink:title="wellpointed_plus">
<ellipse fill="#f070d1" stroke="black" cx="1231" cy="-189.54" rx="89.08" ry="18"/>
<text text-anchor="middle" x="1231" y="-185.84" font-family="Times,serif" font-size="14.00">wellpointed_plus</text>
</a>
</g>
</g>
<!-- Meet_plusconnmap_to_plus&#45;&gt;Meet_wellpointed_plus -->
<g id="edge14" class="edge">
<title>Meet_plusconnmap_to_plus&#45;&gt;Meet_wellpointed_plus</title>
<path fill="none" stroke="black" d="M1214.03,-334.31C1217.33,-306.35 1223.88,-250.87 1227.81,-217.6"/>
<polygon fill="black" stroke="black" points="1231.29,-217.99 1228.98,-207.64 1224.33,-217.17 1231.29,-217.99"/>
</g>
<!-- Meet_equiv_plus_pullback -->
<g id="node8" class="node">
<title>Meet_equiv_plus_pullback</title>
<g id="a_node8"><a xlink:href="Meet.html#equiv_plus_pullback" xlink:title="equiv_plus_pullback">
<ellipse fill="#f070d1" stroke="black" cx="1561" cy="-266.54" rx="103.18" ry="18"/>
<text text-anchor="middle" x="1561" y="-262.84" font-family="Times,serif" font-size="14.00">equiv_plus_pullback</text>
</a>
</g>
</g>
<!-- Meet_diagonal_plus_functor&#45;&gt;Meet_equiv_plus_pullback -->
<g id="edge15" class="edge">
<title>Meet_diagonal_plus_functor&#45;&gt;Meet_equiv_plus_pullback</title>
<path fill="none" stroke="black" d="M1395.55,-428.47C1428.29,-396.63 1498.75,-328.08 1536.29,-291.57"/>
<polygon fill="black" stroke="black" points="1539.05,-293.78 1543.77,-284.29 1534.16,-288.76 1539.05,-293.78"/>
</g>
<!-- Meet_plus_functor -->
<g id="node29" class="node">
<title>Meet_plus_functor</title>
<g id="a_node29"><a xlink:href="Meet.html#plus_functor" xlink:title="plus_functor">
<ellipse fill="#f070d1" stroke="black" cx="1420" cy="-113.54" rx="68.49" ry="18"/>
<text text-anchor="middle" x="1420" y="-109.84" font-family="Times,serif" font-size="14.00">plus_functor</text>
</a>
</g>
</g>
<!-- Meet_equiv_plus_pullback&#45;&gt;Meet_plus_functor -->
<g id="edge16" class="edge">
<title>Meet_equiv_plus_pullback&#45;&gt;Meet_plus_functor</title>
<path fill="none" stroke="black" d="M1603.48,-249.92C1622.19,-240.66 1642.33,-226.88 1653,-207.54 1660.73,-193.53 1662.88,-184.13 1653,-171.54 1633.21,-146.33 1552.98,-130.82 1492.15,-122.47"/>
<polygon fill="black" stroke="black" points="1492.55,-119 1482.18,-121.14 1491.63,-125.93 1492.55,-119"/>
</g>
<!-- Meet_plus_hfiber -->
<g id="node10" class="node">
<title>Meet_plus_hfiber</title>
<g id="a_node10"><a xlink:href="Meet.html#plus_hfiber" xlink:title="plus_hfiber">
<ellipse fill="#f070d1" stroke="black" cx="1582" cy="-189.54" rx="61.99" ry="18"/>
<text text-anchor="middle" x="1582" y="-185.84" font-family="Times,serif" font-size="14.00">plus_hfiber</text>
</a>
</g>
</g>
<!-- Meet_plus_hfiber_to_plus&#45;&gt;Meet_plus_hfiber -->
<g id="edge17" class="edge">
<title>Meet_plus_hfiber_to_plus&#45;&gt;Meet_plus_hfiber</title>
<path fill="none" stroke="black" d="M1387.81,-250.72C1429.26,-237.88 1489.05,-219.35 1531.32,-206.25"/>
<polygon fill="black" stroke="black" points="1532.61,-209.51 1541.13,-203.21 1530.54,-202.82 1532.61,-209.51"/>
</g>
<!-- Meet_to_plus_natural -->
<g id="node28" class="node">
<title>Meet_to_plus_natural</title>
<g id="a_node28"><a xlink:href="Meet.html#to_plus_natural" xlink:title="to_plus_natural">
<ellipse fill="#f070d1" stroke="black" cx="1420" cy="-189.54" rx="81.79" ry="18"/>
<text text-anchor="middle" x="1420" y="-185.84" font-family="Times,serif" font-size="14.00">to_plus_natural</text>
</a>
</g>
</g>
<!-- Meet_plus_hfiber_to_plus&#45;&gt;Meet_to_plus_natural -->
<g id="edge18" class="edge">
<title>Meet_plus_hfiber_to_plus&#45;&gt;Meet_to_plus_natural</title>
<path fill="none" stroke="black" d="M1358.15,-248.52C1368.97,-238.38 1382.86,-225.36 1394.73,-214.23"/>
<polygon fill="black" stroke="black" points="1397.29,-216.62 1402.19,-207.23 1392.5,-211.52 1397.29,-216.62"/>
</g>
<!-- Meet_plus_hfiber&#45;&gt;Meet_plus_functor -->
<g id="edge19" class="edge">
<title>Meet_plus_hfiber&#45;&gt;Meet_plus_functor</title>
<path fill="none" stroke="black" d="M1549.99,-173.92C1524.75,-162.39 1489.35,-146.22 1461.86,-133.66"/>
<polygon fill="black" stroke="black" points="1463.04,-130.35 1452.49,-129.38 1460.14,-136.72 1463.04,-130.35"/>
</g>
<!-- Meet_to_plus -->
<g id="node30" class="node">
<title>Meet_to_plus</title>
<g id="a_node30"><a xlink:href="Meet.html#to_plus" xlink:title="to_plus">
<ellipse fill="#f070d1" stroke="black" cx="890" cy="-113.54" rx="44.39" ry="18"/>
<text text-anchor="middle" x="890" y="-109.84" font-family="Times,serif" font-size="14.00">to_plus</text>
</a>
</g>
</g>
<!-- Meet_plus_hfiber&#45;&gt;Meet_to_plus -->
<g id="edge20" class="edge">
<title>Meet_plus_hfiber&#45;&gt;Meet_to_plus</title>
<path fill="none" stroke="black" d="M1537.89,-176.94C1529.03,-174.91 1519.75,-172.98 1511,-171.54 1302.99,-137.27 1052.14,-122.16 943.96,-116.88"/>
<polygon fill="black" stroke="black" points="944.1,-113.39 933.94,-116.4 943.76,-120.38 944.1,-113.39"/>
</g>
<!-- Meet_plusconnected_path -->
<g id="node12" class="node">
<title>Meet_plusconnected_path</title>
<g id="a_node12"><a xlink:href="Meet.html#plusconnected_path" xlink:title="plusconnected_path">
<ellipse fill="#f070d1" stroke="black" cx="909" cy="-352.54" rx="102.88" ry="18"/>
<text text-anchor="middle" x="909" y="-348.84" font-family="Times,serif" font-size="14.00">plusconnected_path</text>
</a>
</g>
</g>
<!-- Meet_plusconnmap_diagonal&#45;&gt;Meet_plusconnected_path -->
<g id="edge21" class="edge">
<title>Meet_plusconnmap_diagonal&#45;&gt;Meet_plusconnected_path</title>
<path fill="none" stroke="black" d="M1008.62,-428.66C989.19,-414.01 960.87,-392.66 939.39,-376.46"/>
<polygon fill="black" stroke="black" points="941.33,-373.53 931.23,-370.31 937.11,-379.12 941.33,-373.53"/>
</g>
<!-- Meet_plusconnmap_diagonal&#45;&gt;Meet_PlusConnMap -->
<g id="edge22" class="edge">
<title>Meet_plusconnmap_diagonal&#45;&gt;Meet_PlusConnMap</title>
<path fill="none" stroke="black" d="M1034.52,-428.4C1038.61,-403.55 1042.33,-357.16 1021,-326.54 1006.2,-305.29 981.69,-291.49 958.2,-282.62"/>
<polygon fill="black" stroke="black" points="959.18,-279.26 948.58,-279.24 956.85,-285.86 959.18,-279.26"/>
</g>
<!-- Meet_plusconnected_equiv -->
<g id="node16" class="node">
<title>Meet_plusconnected_equiv</title>
<g id="a_node16"><a xlink:href="Meet.html#plusconnected_equiv" xlink:title="plusconnected_equiv">
<ellipse fill="#f070d1" stroke="black" cx="1096" cy="-266.54" rx="107.48" ry="18"/>
<text text-anchor="middle" x="1096" y="-262.84" font-family="Times,serif" font-size="14.00">plusconnected_equiv</text>
</a>
</g>
</g>
<!-- Meet_plusconnmap_diagonal&#45;&gt;Meet_plusconnected_equiv -->
<g id="edge23" class="edge">
<title>Meet_plusconnmap_diagonal&#45;&gt;Meet_plusconnected_equiv</title>
<path fill="none" stroke="black" d="M1037.23,-428.47C1048.59,-397.37 1072.73,-331.27 1086.27,-294.19"/>
<polygon fill="black" stroke="black" points="1089.64,-295.15 1089.79,-284.55 1083.07,-292.75 1089.64,-295.15"/>
</g>
<!-- Meet_plusconnected_path&#45;&gt;Meet_plus_path_to_plus -->
<g id="edge24" class="edge">
<title>Meet_plusconnected_path&#45;&gt;Meet_plus_path_to_plus</title>
<path fill="none" stroke="black" d="M868.14,-335.94C831.59,-321.98 777.93,-301.49 738.87,-286.58"/>
<polygon fill="black" stroke="black" points="739.87,-283.21 729.27,-282.92 737.37,-289.75 739.87,-283.21"/>
</g>
<!-- Meet_PlusConnected -->
<g id="node17" class="node">
<title>Meet_PlusConnected</title>
<g id="a_node17"><a xlink:href="Meet.html#PlusConnected" xlink:title="PlusConnected">
<ellipse fill="#f070d1" stroke="black" cx="1044" cy="-189.54" rx="79.89" ry="18"/>
<text text-anchor="middle" x="1044" y="-185.84" font-family="Times,serif" font-size="14.00">PlusConnected</text>
</a>
</g>
</g>
<!-- Meet_plusconnected_path&#45;&gt;Meet_PlusConnected -->
<g id="edge25" class="edge">
<title>Meet_plusconnected_path&#45;&gt;Meet_PlusConnected</title>
<path fill="none" stroke="black" d="M874.17,-335.5C836.55,-315.97 785.24,-281.5 811,-248.54 816.29,-241.77 911.32,-219.68 978.36,-204.8"/>
<polygon fill="black" stroke="black" points="979.44,-208.15 988.45,-202.57 977.93,-201.31 979.44,-208.15"/>
</g>
<!-- Meet_plus_path -->
<g id="node14" class="node">
<title>Meet_plus_path</title>
<g id="a_node14"><a xlink:href="Meet.html#plus_path" xlink:title="plus_path">
<ellipse fill="#f070d1" stroke="black" cx="890" cy="-189.54" rx="55.79" ry="18"/>
<text text-anchor="middle" x="890" y="-185.84" font-family="Times,serif" font-size="14.00">plus_path</text>
</a>
</g>
</g>
<!-- Meet_plus_path_to_plus&#45;&gt;Meet_plus_path -->
<g id="edge26" class="edge">
<title>Meet_plus_path_to_plus&#45;&gt;Meet_plus_path</title>
<path fill="none" stroke="black" d="M730.16,-250.18C763.61,-237.7 810.73,-220.12 845.14,-207.28"/>
<polygon fill="black" stroke="black" points="846.79,-210.4 854.93,-203.62 844.34,-203.84 846.79,-210.4"/>
</g>
<!-- Meet_plus_path&#45;&gt;Meet_to_plus -->
<g id="edge27" class="edge">
<title>Meet_plus_path&#45;&gt;Meet_to_plus</title>
<path fill="none" stroke="black" d="M890,-171.38C890,-162.6 890,-151.7 890,-141.81"/>
<polygon fill="black" stroke="black" points="893.5,-141.61 890,-131.61 886.5,-141.61 893.5,-141.61"/>
</g>
<!-- Meet_PlusConnMap&#45;&gt;Meet_PlusConnected -->
<g id="edge28" class="edge">
<title>Meet_PlusConnMap&#45;&gt;Meet_PlusConnected</title>
<path fill="none" stroke="black" d="M925.87,-250C948.47,-238.62 979.34,-223.08 1003.86,-210.75"/>
<polygon fill="black" stroke="black" points="1005.55,-213.81 1012.91,-206.19 1002.4,-207.56 1005.55,-213.81"/>
</g>
<!-- Meet_plusconnected_equiv&#45;&gt;Meet_PlusConnected -->
<g id="edge29" class="edge">
<title>Meet_plusconnected_equiv&#45;&gt;Meet_PlusConnected</title>
<path fill="none" stroke="black" d="M1084.2,-248.52C1077.49,-238.83 1068.95,-226.52 1061.47,-215.73"/>
<polygon fill="black" stroke="black" points="1064.33,-213.71 1055.75,-207.49 1058.57,-217.7 1064.33,-213.71"/>
</g>
<!-- Meet_plusconnected_equiv&#45;&gt;Meet_to_plus_natural -->
<g id="edge30" class="edge">
<title>Meet_plusconnected_equiv&#45;&gt;Meet_to_plus_natural</title>
<path fill="none" stroke="black" d="M1156.18,-251.61C1213.01,-238.45 1297.95,-218.79 1356,-205.35"/>
<polygon fill="black" stroke="black" points="1356.84,-208.75 1365.79,-203.09 1355.26,-201.93 1356.84,-208.75"/>
</g>
<!-- Meet_PlusConnected&#45;&gt;Meet_to_plus -->
<g id="edge31" class="edge">
<title>Meet_PlusConnected&#45;&gt;Meet_to_plus</title>
<path fill="none" stroke="black" d="M1011.72,-173.03C986.89,-161.1 952.58,-144.61 926.72,-132.18"/>
<polygon fill="black" stroke="black" points="928.13,-128.98 917.6,-127.8 925.1,-135.29 928.13,-128.98"/>
</g>
<!-- Meet_reflects_plus_inO -->
<g id="node18" class="node">
<title>Meet_reflects_plus_inO</title>
<g id="a_node18"><a xlink:href="Meet.html#reflects_plus_inO" xlink:title="reflects_plus_inO">
<ellipse fill="#f070d1" stroke="black" cx="474" cy="-352.54" rx="89.87" ry="18"/>
<ellipse fill="none" stroke="black" cx="474" cy="-352.54" rx="93.88" ry="22"/>
<ellipse fill="none" stroke="black" cx="474" cy="-352.54" rx="97.88" ry="26"/>
<text text-anchor="middle" x="474" y="-348.84" font-family="Times,serif" font-size="14.00">reflects_plus_inO</text>
</a>
</g>
</g>
<!-- Meet_prereflects_plus_inO -->
<g id="node19" class="node">
<title>Meet_prereflects_plus_inO</title>
<g id="a_node19"><a xlink:href="Meet.html#prereflects_plus_inO" xlink:title="prereflects_plus_inO">
<ellipse fill="#f070d1" stroke="black" cx="443" cy="-189.54" rx="105.08" ry="18"/>
<text text-anchor="middle" x="443" y="-185.84" font-family="Times,serif" font-size="14.00">prereflects_plus_inO</text>
</a>
</g>
</g>
<!-- Meet_reflects_plus_inO&#45;&gt;Meet_prereflects_plus_inO -->
<g id="edge32" class="edge">
<title>Meet_reflects_plus_inO&#45;&gt;Meet_prereflects_plus_inO</title>
<path fill="none" stroke="black" d="M509.23,-328.17C535.35,-307.78 563.76,-277.08 547,-248.54 536.84,-231.23 519.43,-218.71 501.73,-209.84"/>
<polygon fill="black" stroke="black" points="503.02,-206.58 492.48,-205.52 500.06,-212.92 503.02,-206.58"/>
</g>
<!-- Meet_reflects_plus_inO&#45;&gt;Meet_ooextendable_plus -->
<g id="edge33" class="edge">
<title>Meet_reflects_plus_inO&#45;&gt;Meet_ooextendable_plus</title>
<path fill="none" stroke="black" d="M413.7,-332.06C370.28,-318.03 312.13,-299.24 269.78,-285.56"/>
<polygon fill="black" stroke="black" points="270.77,-282.2 260.18,-282.46 268.62,-288.86 270.77,-282.2"/>
</g>
<!-- Meet_prereflects_plus_inO&#45;&gt;Meet_to_plus -->
<g id="edge34" class="edge">
<title>Meet_prereflects_plus_inO&#45;&gt;Meet_to_plus</title>
<path fill="none" stroke="black" d="M515.81,-176.48C606.97,-161.39 760.71,-135.94 839.75,-122.86"/>
<polygon fill="black" stroke="black" points="840.64,-126.26 849.93,-121.17 839.5,-119.35 840.64,-126.26"/>
</g>
<!-- Meet_inO_plus_l -->
<g id="node31" class="node">
<title>Meet_inO_plus_l</title>
<g id="a_node31"><a xlink:href="Meet.html#inO_plus_l" xlink:title="inO_plus_l">
<ellipse fill="#f070d1" stroke="black" cx="720" cy="-113.54" rx="57.69" ry="18"/>
<text text-anchor="middle" x="720" y="-109.84" font-family="Times,serif" font-size="14.00">inO_plus_l</text>
</a>
</g>
</g>
<!-- Meet_prereflects_plus_inO&#45;&gt;Meet_inO_plus_l -->
<g id="edge35" class="edge">
<title>Meet_prereflects_plus_inO&#45;&gt;Meet_inO_plus_l</title>
<path fill="none" stroke="black" d="M497.4,-174.01C546.78,-160.82 619.11,-141.49 667.8,-128.48"/>
<polygon fill="black" stroke="black" points="668.75,-131.85 677.51,-125.89 666.94,-125.09 668.75,-131.85"/>
</g>
<!-- Meet_Meet -->
<g id="node35" class="node">
<title>Meet_Meet</title>
<g id="a_node35"><a xlink:href="Meet.html#Meet" xlink:title="Meet">
<ellipse fill="#f070d1" stroke="black" cx="346" cy="-113.54" rx="34.39" ry="18"/>
<text text-anchor="middle" x="346" y="-109.84" font-family="Times,serif" font-size="14.00">Meet</text>
</a>
</g>
</g>
<!-- Meet_prereflects_plus_inO&#45;&gt;Meet_Meet -->
<g id="edge36" class="edge">
<title>Meet_prereflects_plus_inO&#45;&gt;Meet_Meet</title>
<path fill="none" stroke="black" d="M420.99,-171.75C406.65,-160.81 387.86,-146.47 372.67,-134.89"/>
<polygon fill="black" stroke="black" points="374.73,-132.06 364.66,-128.77 370.49,-137.62 374.73,-132.06"/>
</g>
<!-- Meet_inmeet_isequiv_plus&#45;&gt;Meet_to_plus -->
<g id="edge37" class="edge">
<title>Meet_inmeet_isequiv_plus&#45;&gt;Meet_to_plus</title>
<path fill="none" stroke="black" d="M716.11,-173.3C754.62,-160.28 809.6,-141.71 847.37,-128.94"/>
<polygon fill="black" stroke="black" points="848.71,-132.19 857.06,-125.67 846.47,-125.55 848.71,-132.19"/>
</g>
<!-- Meet_inmeet_isequiv_plus&#45;&gt;Meet_inO_plus_l -->
<g id="edge38" class="edge">
<title>Meet_inmeet_isequiv_plus&#45;&gt;Meet_inO_plus_l</title>
<path fill="none" stroke="black" d="M682.36,-171.38C688.59,-161.97 696.43,-150.13 703.34,-139.7"/>
<polygon fill="black" stroke="black" points="706.26,-141.62 708.87,-131.35 700.43,-137.76 706.26,-141.62"/>
</g>
<!-- Meet_inmeet_isequiv_plus&#45;&gt;Meet_Meet -->
<g id="edge39" class="edge">
<title>Meet_inmeet_isequiv_plus&#45;&gt;Meet_Meet</title>
<path fill="none" stroke="black" d="M610.63,-174.79C545.48,-159.96 443.5,-136.74 387.05,-123.89"/>
<polygon fill="black" stroke="black" points="387.59,-120.42 377.06,-121.61 386.03,-127.24 387.59,-120.42"/>
</g>
<!-- Meet_isequiv_plus_inmeet&#45;&gt;Meet_to_plus -->
<g id="edge40" class="edge">
<title>Meet_isequiv_plus_inmeet&#45;&gt;Meet_to_plus</title>
<path fill="none" stroke="black" d="M517.14,-255.77C617.99,-243.52 776.43,-222.32 800,-207.54 816.5,-197.19 812.03,-186.07 825,-171.54 836.21,-158.99 850.07,-146.49 862.11,-136.42"/>
<polygon fill="black" stroke="black" points="864.59,-138.91 870.09,-129.86 860.15,-133.5 864.59,-138.91"/>
</g>
<!-- Meet_inO_inmeet_r -->
<g id="node33" class="node">
<title>Meet_inO_inmeet_r</title>
<g id="a_node33"><a xlink:href="Meet.html#inO_inmeet_r" xlink:title="inO_inmeet_r">
<ellipse fill="#f070d1" stroke="black" cx="88" cy="-189.54" rx="72.29" ry="18"/>
<text text-anchor="middle" x="88" y="-185.84" font-family="Times,serif" font-size="14.00">inO_inmeet_r</text>
</a>
</g>
</g>
<!-- Meet_isequiv_plus_inmeet&#45;&gt;Meet_inO_inmeet_r -->
<g id="edge41" class="edge">
<title>Meet_isequiv_plus_inmeet&#45;&gt;Meet_inO_inmeet_r</title>
<path fill="none" stroke="black" d="M370.92,-252.04C308.62,-238.5 213.18,-217.75 150.67,-204.16"/>
<polygon fill="black" stroke="black" points="151.07,-200.67 140.55,-201.96 149.58,-207.51 151.07,-200.67"/>
</g>
<!-- Meet_inO_inmeet_l -->
<g id="node34" class="node">
<title>Meet_inO_inmeet_l</title>
<g id="a_node34"><a xlink:href="Meet.html#inO_inmeet_l" xlink:title="inO_inmeet_l">
<ellipse fill="#f070d1" stroke="black" cx="249" cy="-189.54" rx="70.69" ry="18"/>
<text text-anchor="middle" x="249" y="-185.84" font-family="Times,serif" font-size="14.00">inO_inmeet_l</text>
</a>
</g>
</g>
<!-- Meet_isequiv_plus_inmeet&#45;&gt;Meet_inO_inmeet_l -->
<g id="edge42" class="edge">
<title>Meet_isequiv_plus_inmeet&#45;&gt;Meet_inO_inmeet_l</title>
<path fill="none" stroke="black" d="M393.98,-249.63C364.85,-237.76 324.97,-221.51 294.41,-209.05"/>
<polygon fill="black" stroke="black" points="295.43,-205.68 284.85,-205.15 292.78,-212.17 295.43,-205.68"/>
</g>
<!-- Meet_plus_indpaths_beta -->
<g id="node22" class="node">
<title>Meet_plus_indpaths_beta</title>
<g id="a_node22"><a xlink:href="Meet.html#plus_indpaths_beta" xlink:title="plus_indpaths_beta">
<ellipse fill="#f070d1" stroke="black" cx="124" cy="-446.54" rx="100.18" ry="18"/>
<ellipse fill="none" stroke="black" cx="124" cy="-446.54" rx="104.18" ry="22"/>
<ellipse fill="none" stroke="black" cx="124" cy="-446.54" rx="108.18" ry="26"/>
<text text-anchor="middle" x="124" y="-442.84" font-family="Times,serif" font-size="14.00">plus_indpaths_beta</text>
</a>
</g>
</g>
<!-- Meet_plus_indpaths -->
<g id="node23" class="node">
<title>Meet_plus_indpaths</title>
<g id="a_node23"><a xlink:href="Meet.html#plus_indpaths" xlink:title="plus_indpaths">
<ellipse fill="#f070d1" stroke="black" cx="135" cy="-352.54" rx="75.29" ry="18"/>
<text text-anchor="middle" x="135" y="-348.84" font-family="Times,serif" font-size="14.00">plus_indpaths</text>
</a>
</g>
</g>
<!-- Meet_plus_indpaths_beta&#45;&gt;Meet_plus_indpaths -->
<g id="edge43" class="edge">
<title>Meet_plus_indpaths_beta&#45;&gt;Meet_plus_indpaths</title>
<path fill="none" stroke="black" d="M127.01,-420.4C128.46,-408.22 130.21,-393.56 131.71,-381.08"/>
<polygon fill="black" stroke="black" points="135.23,-381.13 132.94,-370.79 128.27,-380.3 135.23,-381.13"/>
</g>
<!-- Meet_plus_indpaths&#45;&gt;Meet_ooextendable_plus -->
<g id="edge44" class="edge">
<title>Meet_plus_indpaths&#45;&gt;Meet_ooextendable_plus</title>
<path fill="none" stroke="black" d="M150.99,-334.54C162.44,-322.36 178.05,-305.76 190.87,-292.14"/>
<polygon fill="black" stroke="black" points="193.74,-294.19 198.04,-284.51 188.64,-289.4 193.74,-294.19"/>
</g>
<!-- Meet_plus_rec_beta -->
<g id="node24" class="node">
<title>Meet_plus_rec_beta</title>
<g id="a_node24"><a xlink:href="Meet.html#plus_rec_beta" xlink:title="plus_rec_beta">
<ellipse fill="#f070d1" stroke="black" cx="352" cy="-446.54" rx="74.18" ry="18"/>
<ellipse fill="none" stroke="black" cx="352" cy="-446.54" rx="78.18" ry="22"/>
<ellipse fill="none" stroke="black" cx="352" cy="-446.54" rx="82.19" ry="26"/>
<text text-anchor="middle" x="352" y="-442.84" font-family="Times,serif" font-size="14.00">plus_rec_beta</text>
</a>
</g>
</g>
<!-- Meet_plus_rec -->
<g id="node25" class="node">
<title>Meet_plus_rec</title>
<g id="a_node25"><a xlink:href="Meet.html#plus_rec" xlink:title="plus_rec">
<ellipse fill="#f070d1" stroke="black" cx="309" cy="-352.54" rx="49.29" ry="18"/>
<text text-anchor="middle" x="309" y="-348.84" font-family="Times,serif" font-size="14.00">plus_rec</text>
</a>
</g>
</g>
<!-- Meet_plus_rec_beta&#45;&gt;Meet_plus_rec -->
<g id="edge45" class="edge">
<title>Meet_plus_rec_beta&#45;&gt;Meet_plus_rec</title>
<path fill="none" stroke="black" d="M340.25,-420.4C334.35,-407.77 327.2,-392.47 321.23,-379.7"/>
<polygon fill="black" stroke="black" points="324.34,-378.08 316.93,-370.51 317.99,-381.05 324.34,-378.08"/>
</g>
<!-- Meet_plus_rec&#45;&gt;Meet_ooextendable_plus -->
<g id="edge46" class="edge">
<title>Meet_plus_rec&#45;&gt;Meet_ooextendable_plus</title>
<path fill="none" stroke="black" d="M291.13,-335.74C276.9,-323.16 256.77,-305.36 240.65,-291.1"/>
<polygon fill="black" stroke="black" points="242.9,-288.42 233.09,-284.42 238.27,-293.67 242.9,-288.42"/>
</g>
<!-- Meet_ooextendable_plus&#45;&gt;Meet_to_plus -->
<g id="edge47" class="edge">
<title>Meet_ooextendable_plus&#45;&gt;Meet_to_plus</title>
<path fill="none" stroke="black" d="M282.24,-253.75C294.46,-251.85 307.09,-250.02 319,-248.54 422.16,-235.67 701.12,-268.94 785,-207.54 798.99,-197.3 788.83,-184.79 800,-171.54 814.01,-154.92 834.12,-141.55 851.78,-131.95"/>
<polygon fill="black" stroke="black" points="853.5,-135 860.75,-127.27 850.26,-128.79 853.5,-135"/>
</g>
<!-- Meet_ooextendable_plus&#45;&gt;Meet_inO_inmeet_r -->
<g id="edge48" class="edge">
<title>Meet_ooextendable_plus&#45;&gt;Meet_inO_inmeet_r</title>
<path fill="none" stroke="black" d="M186.66,-249.26C168.21,-238.28 143.67,-223.67 123.68,-211.78"/>
<polygon fill="black" stroke="black" points="125.24,-208.63 114.85,-206.52 121.66,-214.65 125.24,-208.63"/>
</g>
<!-- Meet_ooextendable_plus&#45;&gt;Meet_inO_inmeet_l -->
<g id="edge49" class="edge">
<title>Meet_ooextendable_plus&#45;&gt;Meet_inO_inmeet_l</title>
<path fill="none" stroke="black" d="M221.94,-248.52C226.33,-239.12 231.87,-227.25 236.79,-216.7"/>
<polygon fill="black" stroke="black" points="240.03,-218.03 241.09,-207.49 233.69,-215.07 240.03,-218.03"/>
</g>
<!-- Meet_wellpointed_plus&#45;&gt;Meet_plus_functor -->
<g id="edge50" class="edge">
<title>Meet_wellpointed_plus&#45;&gt;Meet_plus_functor</title>
<path fill="none" stroke="black" d="M1270.16,-173.21C1300.34,-161.39 1342.15,-145.02 1373.93,-132.57"/>
<polygon fill="black" stroke="black" points="1375.42,-135.75 1383.45,-128.85 1372.87,-129.23 1375.42,-135.75"/>
</g>
<!-- Meet_wellpointed_plus&#45;&gt;Meet_to_plus -->
<g id="edge51" class="edge">
<title>Meet_wellpointed_plus&#45;&gt;Meet_to_plus</title>
<path fill="none" stroke="black" d="M1172.77,-175.9C1106.64,-161.55 999.95,-138.4 938.26,-125.01"/>
<polygon fill="black" stroke="black" points="938.91,-121.57 928.39,-122.87 937.42,-128.41 938.91,-121.57"/>
</g>
<!-- Meet_wellpointed_plus&#45;&gt;Meet_inO_plus_l -->
<g id="edge52" class="edge">
<title>Meet_wellpointed_plus&#45;&gt;Meet_inO_plus_l</title>
<path fill="none" stroke="black" d="M1166.74,-177.04C1155.51,-175.13 1143.92,-173.22 1133,-171.54 1001.8,-151.3 968.47,-149.97 837,-131.54 818.9,-129 799.25,-126.17 781.3,-123.56"/>
<polygon fill="black" stroke="black" points="781.64,-120.08 771.24,-122.1 780.63,-127 781.64,-120.08"/>
</g>
<!-- Meet_to_plus_natural&#45;&gt;Meet_plus_functor -->
<g id="edge53" class="edge">
<title>Meet_to_plus_natural&#45;&gt;Meet_plus_functor</title>
<path fill="none" stroke="black" d="M1420,-171.38C1420,-162.6 1420,-151.7 1420,-141.81"/>
<polygon fill="black" stroke="black" points="1423.5,-141.61 1420,-131.61 1416.5,-141.61 1423.5,-141.61"/>
</g>
<!-- Meet_to_plus_natural&#45;&gt;Meet_to_plus -->
<g id="edge54" class="edge">
<title>Meet_to_plus_natural&#45;&gt;Meet_to_plus</title>
<path fill="none" stroke="black" d="M1360.85,-177C1350.26,-175.07 1339.32,-173.17 1329,-171.54 1189.77,-149.51 1024.71,-129.79 942.3,-120.38"/>
<polygon fill="black" stroke="black" points="942.51,-116.88 932.18,-119.23 941.72,-123.83 942.51,-116.88"/>
</g>
<!-- Meet_Plus -->
<g id="node32" class="node">
<title>Meet_Plus</title>
<g id="a_node32"><a xlink:href="Meet.html#Plus" xlink:title="Plus">
<ellipse fill="#f070d1" stroke="black" cx="890" cy="-36.54" rx="30.59" ry="18"/>
<text text-anchor="middle" x="890" y="-32.84" font-family="Times,serif" font-size="14.00">Plus</text>
</a>
</g>
</g>
<!-- Meet_plus_functor&#45;&gt;Meet_Plus -->
<g id="edge55" class="edge">
<title>Meet_plus_functor&#45;&gt;Meet_Plus</title>
<path fill="none" stroke="black" d="M1361.51,-104.26C1252.77,-88.87 1022.13,-56.24 929.62,-43.14"/>
<polygon fill="black" stroke="black" points="929.94,-39.66 919.55,-41.72 928.96,-46.59 929.94,-39.66"/>
</g>
<!-- Meet_to_plus&#45;&gt;Meet_Plus -->
<g id="edge56" class="edge">
<title>Meet_to_plus&#45;&gt;Meet_Plus</title>
<path fill="none" stroke="black" d="M890,-95.52C890,-86.47 890,-75.14 890,-64.89"/>
<polygon fill="black" stroke="black" points="893.5,-64.75 890,-54.75 886.5,-64.75 893.5,-64.75"/>
</g>
<!-- Meet_inO_plus_l&#45;&gt;Meet_Plus -->
<g id="edge57" class="edge">
<title>Meet_inO_plus_l&#45;&gt;Meet_Plus</title>
<path fill="none" stroke="black" d="M751.98,-98.43C782,-85.18 826.73,-65.45 857.07,-52.07"/>
<polygon fill="black" stroke="black" points="858.64,-55.2 866.38,-47.96 855.81,-48.8 858.64,-55.2"/>
</g>
<!-- Meet_inO_inmeet_r&#45;&gt;Meet_Meet -->
<g id="edge58" class="edge">
<title>Meet_inO_inmeet_r&#45;&gt;Meet_Meet</title>
<path fill="none" stroke="black" d="M133.53,-175.48C182.72,-161.37 260.29,-139.12 306.85,-125.77"/>
<polygon fill="black" stroke="black" points="307.92,-129.1 316.57,-122.98 305.99,-122.37 307.92,-129.1"/>
</g>
<!-- Meet_inO_inmeet_l&#45;&gt;Meet_Meet -->
<g id="edge59" class="edge">
<title>Meet_inO_inmeet_l&#45;&gt;Meet_Meet</title>
<path fill="none" stroke="black" d="M270.53,-172.12C284.84,-161.19 303.76,-146.76 319.07,-135.08"/>
<polygon fill="black" stroke="black" points="321.33,-137.76 327.15,-128.92 317.08,-132.2 321.33,-137.76"/>
</g>
</g>
</svg>
