<?xml version="1.0" encoding="UTF-8" standalone="no"?>
<!DOCTYPE svg PUBLIC "-//W3C//DTD SVG 1.1//EN"
 "http://www.w3.org/Graphics/SVG/1.1/DTD/svg11.dtd">
<!-- Generated by graphviz version 2.43.0 (0)
 -->
<!-- Title: HoTT_WildCat_Sigma Pages: 1 -->
<svg width="542pt" height="275pt"
 viewBox="0.00 0.00 542.00 275.00" xmlns="http://www.w3.org/2000/svg" xmlns:xlink="http://www.w3.org/1999/xlink">
<g id="graph0" class="graph" transform="scale(1 1) rotate(0) translate(4 271)">
<title>HoTT_WildCat_Sigma</title>
<polygon fill="white" stroke="transparent" points="-4,4 -4,-271 538,-271 538,4 -4,4"/>
<g id="clust1" class="cluster">
<title>cluster_Sigma</title>
<polygon fill="#ffffc3" stroke="black" points="10.68,-8 10.68,-259 523.32,-259 523.32,-8 10.68,-8"/>
<text text-anchor="middle" x="41.68" y="-243.8" font-family="Times,serif" font-size="14.00">Sigma</text>
</g>
<!-- Sigma_is0functor_sigma -->
<g id="node1" class="node">
<title>Sigma_is0functor_sigma</title>
<g id="a_node1"><a xlink:href="Sigma.html#is0functor_sigma" xlink:title="is0functor_sigma">
<ellipse fill="#f070d1" stroke="black" cx="381.82" cy="-114" rx="90.2" ry="18"/>
<ellipse fill="none" stroke="black" cx="381.82" cy="-114" rx="94.19" ry="22"/>
<ellipse fill="none" stroke="black" cx="381.82" cy="-114" rx="98.18" ry="26"/>
<text text-anchor="middle" x="381.82" y="-110.3" font-family="Times,serif" font-size="14.00">is0functor_sigma</text>
</a>
</g>
</g>
<!-- Sigma_isgraph_sigma -->
<g id="node4" class="node">
<title>Sigma_isgraph_sigma</title>
<g id="a_node4"><a xlink:href="Sigma.html#isgraph_sigma" xlink:title="isgraph_sigma">
<ellipse fill="#f070d1" stroke="black" cx="253.82" cy="-34" rx="77.99" ry="18"/>
<text text-anchor="middle" x="253.82" y="-30.3" font-family="Times,serif" font-size="14.00">isgraph_sigma</text>
</a>
</g>
</g>
<!-- Sigma_is0functor_sigma&#45;&gt;Sigma_isgraph_sigma -->
<g id="edge1" class="edge">
<title>Sigma_is0functor_sigma&#45;&gt;Sigma_isgraph_sigma</title>
<path fill="none" stroke="black" d="M343.76,-89.81C326.32,-79.18 305.78,-66.66 288.73,-56.27"/>
<polygon fill="black" stroke="black" points="290.53,-53.27 280.17,-51.06 286.89,-59.25 290.53,-53.27"/>
</g>
<!-- Sigma_is0gpd_sigma -->
<g id="node2" class="node">
<title>Sigma_is0gpd_sigma</title>
<g id="a_node2"><a xlink:href="Sigma.html#is0gpd_sigma" xlink:title="is0gpd_sigma">
<ellipse fill="#f070d1" stroke="black" cx="130.82" cy="-202" rx="74.18" ry="18"/>
<ellipse fill="none" stroke="black" cx="130.82" cy="-202" rx="78.18" ry="22"/>
<ellipse fill="none" stroke="black" cx="130.82" cy="-202" rx="82.19" ry="26"/>
<text text-anchor="middle" x="130.82" y="-198.3" font-family="Times,serif" font-size="14.00">is0gpd_sigma</text>
</a>
</g>
</g>
<!-- Sigma_is01cat_sigma -->
<g id="node3" class="node">
<title>Sigma_is01cat_sigma</title>
<g id="a_node3"><a xlink:href="Sigma.html#is01cat_sigma" xlink:title="is01cat_sigma">
<ellipse fill="#f070d1" stroke="black" cx="123.82" cy="-114" rx="76.89" ry="18"/>
<text text-anchor="middle" x="123.82" y="-110.3" font-family="Times,serif" font-size="14.00">is01cat_sigma</text>
</a>
</g>
</g>
<!-- Sigma_is0gpd_sigma&#45;&gt;Sigma_is01cat_sigma -->
<g id="edge2" class="edge">
<title>Sigma_is0gpd_sigma&#45;&gt;Sigma_is01cat_sigma</title>
<path fill="none" stroke="black" d="M128.76,-175.66C127.9,-165.11 126.9,-152.84 126.03,-142.1"/>
<polygon fill="black" stroke="black" points="129.5,-141.69 125.2,-132 122.53,-142.25 129.5,-141.69"/>
</g>
<!-- Sigma_is01cat_sigma&#45;&gt;Sigma_isgraph_sigma -->
<g id="edge3" class="edge">
<title>Sigma_is01cat_sigma&#45;&gt;Sigma_isgraph_sigma</title>
<path fill="none" stroke="black" d="M150.44,-97.03C170.07,-85.25 196.98,-69.11 218.42,-56.24"/>
<polygon fill="black" stroke="black" points="220.46,-59.1 227.23,-50.95 216.86,-53.1 220.46,-59.1"/>
</g>
</g>
</svg>
