<?xml version="1.0" encoding="UTF-8" standalone="no"?>
<!DOCTYPE svg PUBLIC "-//W3C//DTD SVG 1.1//EN"
 "http://www.w3.org/Graphics/SVG/1.1/DTD/svg11.dtd">
<!-- Generated by graphviz version 2.43.0 (0)
 -->
<!-- Title: HoTT_Diagrams_Graph Pages: 1 -->
<svg width="721pt" height="365pt"
 viewBox="0.00 0.00 721.00 364.50" xmlns="http://www.w3.org/2000/svg" xmlns:xlink="http://www.w3.org/1999/xlink">
<g id="graph0" class="graph" transform="scale(1 1) rotate(0) translate(4 360.5)">
<title>HoTT_Diagrams_Graph</title>
<polygon fill="white" stroke="transparent" points="-4,4 -4,-360.5 717,-360.5 717,4 -4,4"/>
<g id="clust1" class="cluster">
<title>cluster_Graph</title>
<polygon fill="#ffffc3" stroke="black" points="8,-10.68 8,-345.82 705,-345.82 705,-10.68 8,-10.68"/>
<text text-anchor="middle" x="38.5" y="-330.62" font-family="Times,serif" font-size="14.00">Graph</text>
</g>
<!-- Graph_graph1 -->
<g id="node1" class="node">
<title>Graph_graph1</title>
<g id="a_node1"><a xlink:href="Graph.html#graph1" xlink:title="graph1">
<ellipse fill="#f070d1" stroke="black" cx="645" cy="-152.68" rx="44.36" ry="18"/>
<ellipse fill="none" stroke="black" cx="645" cy="-152.68" rx="48.38" ry="22"/>
<ellipse fill="none" stroke="black" cx="645" cy="-152.68" rx="52.39" ry="26"/>
<text text-anchor="middle" x="645" y="-148.98" font-family="Times,serif" font-size="14.00">graph1</text>
</a>
</g>
</g>
<!-- Graph_Graph -->
<g id="node8" class="node">
<title>Graph_Graph</title>
<g id="a_node8"><a xlink:href="Graph.html#Graph" xlink:title="Graph">
<ellipse fill="#e2cdfa" stroke="black" cx="386" cy="-45.68" rx="39.79" ry="18"/>
<text text-anchor="middle" x="386" y="-41.98" font-family="Times,serif" font-size="14.00">Graph</text>
</a>
</g>
</g>
<!-- Graph_graph1&#45;&gt;Graph_Graph -->
<g id="edge1" class="edge">
<title>Graph_graph1&#45;&gt;Graph_Graph</title>
<path fill="none" stroke="black" d="M605.64,-135.51C598.44,-132.57 591,-129.53 584,-126.68 528.48,-104.09 464.12,-78.13 424.22,-62.06"/>
<polygon fill="black" stroke="black" points="425.46,-58.78 414.87,-58.3 422.84,-65.28 425.46,-58.78"/>
</g>
<!-- Graph_graph0 -->
<g id="node2" class="node">
<title>Graph_graph0</title>
<g id="a_node2"><a xlink:href="Graph.html#graph0" xlink:title="graph0">
<ellipse fill="#f070d1" stroke="black" cx="523" cy="-152.68" rx="44.36" ry="18"/>
<ellipse fill="none" stroke="black" cx="523" cy="-152.68" rx="48.38" ry="22"/>
<ellipse fill="none" stroke="black" cx="523" cy="-152.68" rx="52.39" ry="26"/>
<text text-anchor="middle" x="523" y="-148.98" font-family="Times,serif" font-size="14.00">graph0</text>
</a>
</g>
</g>
<!-- Graph_graph0&#45;&gt;Graph_Graph -->
<g id="edge2" class="edge">
<title>Graph_graph0&#45;&gt;Graph_Graph</title>
<path fill="none" stroke="black" d="M495.28,-130.43C471.46,-112.18 437.31,-86 413.54,-67.79"/>
<polygon fill="black" stroke="black" points="415.36,-64.78 405.3,-61.47 411.11,-70.33 415.36,-64.78"/>
</g>
<!-- Graph_Graph_sind -->
<g id="node3" class="node">
<title>Graph_Graph_sind</title>
<g id="a_node3"><a xlink:href="Graph.html#Graph_sind" xlink:title="Graph_sind">
<ellipse fill="#f070d1" stroke="black" cx="230" cy="-152.68" rx="63.87" ry="18"/>
<ellipse fill="none" stroke="black" cx="230" cy="-152.68" rx="67.88" ry="22"/>
<ellipse fill="none" stroke="black" cx="230" cy="-152.68" rx="71.89" ry="26"/>
<text text-anchor="middle" x="230" y="-148.98" font-family="Times,serif" font-size="14.00">Graph_sind</text>
</a>
</g>
</g>
<!-- Graph_Build_Graph -->
<g id="node7" class="node">
<title>Graph_Build_Graph</title>
<g id="a_node7"><a xlink:href="Graph.html#Build_Graph" xlink:title="Build_Graph">
<ellipse fill="#7faaff" stroke="black" cx="230" cy="-45.68" rx="68.49" ry="18"/>
<text text-anchor="middle" x="230" y="-41.98" font-family="Times,serif" font-size="14.00">Build_Graph</text>
</a>
</g>
</g>
<!-- Graph_Graph_sind&#45;&gt;Graph_Build_Graph -->
<g id="edge3" class="edge">
<title>Graph_Graph_sind&#45;&gt;Graph_Build_Graph</title>
<path fill="none" stroke="black" d="M230,-126.53C230,-110.76 230,-90.41 230,-74.21"/>
<polygon fill="black" stroke="black" points="233.5,-73.76 230,-63.76 226.5,-73.76 233.5,-73.76"/>
</g>
<!-- Graph_Graph_sind&#45;&gt;Graph_Graph -->
<g id="edge4" class="edge">
<title>Graph_Graph_sind&#45;&gt;Graph_Graph</title>
<path fill="none" stroke="black" d="M263.08,-129.41C290.56,-110.92 329.33,-84.82 355.94,-66.92"/>
<polygon fill="black" stroke="black" points="358.12,-69.67 364.46,-61.18 354.21,-63.86 358.12,-69.67"/>
</g>
<!-- Graph_Graph_rec -->
<g id="node4" class="node">
<title>Graph_Graph_rec</title>
<g id="a_node4"><a xlink:href="Graph.html#Graph_rec" xlink:title="Graph_rec">
<ellipse fill="#f070d1" stroke="black" cx="82" cy="-269.68" rx="58.49" ry="18"/>
<ellipse fill="none" stroke="black" cx="82" cy="-269.68" rx="62.49" ry="22"/>
<ellipse fill="none" stroke="black" cx="82" cy="-269.68" rx="66.49" ry="26"/>
<text text-anchor="middle" x="82" y="-265.98" font-family="Times,serif" font-size="14.00">Graph_rec</text>
</a>
</g>
</g>
<!-- Graph_Graph_rect -->
<g id="node6" class="node">
<title>Graph_Graph_rect</title>
<g id="a_node6"><a xlink:href="Graph.html#Graph_rect" xlink:title="Graph_rect">
<ellipse fill="#f070d1" stroke="black" cx="78" cy="-152.68" rx="62.29" ry="18"/>
<text text-anchor="middle" x="78" y="-148.98" font-family="Times,serif" font-size="14.00">Graph_rect</text>
</a>
</g>
</g>
<!-- Graph_Graph_rec&#45;&gt;Graph_Graph_rect -->
<g id="edge5" class="edge">
<title>Graph_Graph_rec&#45;&gt;Graph_Graph_rect</title>
<path fill="none" stroke="black" d="M81.12,-243.44C80.48,-225.01 79.61,-200.03 78.95,-181.11"/>
<polygon fill="black" stroke="black" points="82.45,-180.9 78.6,-171.02 75.45,-181.14 82.45,-180.9"/>
</g>
<!-- Graph_Graph_ind -->
<g id="node5" class="node">
<title>Graph_Graph_ind</title>
<g id="a_node5"><a xlink:href="Graph.html#Graph_ind" xlink:title="Graph_ind">
<ellipse fill="#7fffd4" stroke="black" cx="386" cy="-152.68" rx="58.49" ry="18"/>
<ellipse fill="none" stroke="black" cx="386" cy="-152.68" rx="62.49" ry="22"/>
<ellipse fill="none" stroke="black" cx="386" cy="-152.68" rx="66.49" ry="26"/>
<text text-anchor="middle" x="386" y="-148.98" font-family="Times,serif" font-size="14.00">Graph_ind</text>
</a>
</g>
</g>
<!-- Graph_Graph_ind&#45;&gt;Graph_Build_Graph -->
<g id="edge6" class="edge">
<title>Graph_Graph_ind&#45;&gt;Graph_Build_Graph</title>
<path fill="none" stroke="black" d="M353.68,-129.93C326.9,-111.9 289.02,-86.41 262.26,-68.4"/>
<polygon fill="black" stroke="black" points="263.89,-65.28 253.64,-62.6 259.98,-71.08 263.89,-65.28"/>
</g>
<!-- Graph_Graph_ind&#45;&gt;Graph_Graph -->
<g id="edge7" class="edge">
<title>Graph_Graph_ind&#45;&gt;Graph_Graph</title>
<path fill="none" stroke="black" d="M386,-126.53C386,-110.76 386,-90.41 386,-74.21"/>
<polygon fill="black" stroke="black" points="389.5,-73.76 386,-63.76 382.5,-73.76 389.5,-73.76"/>
</g>
<!-- Graph_Graph_rect&#45;&gt;Graph_Build_Graph -->
<g id="edge8" class="edge">
<title>Graph_Graph_rect&#45;&gt;Graph_Build_Graph</title>
<path fill="none" stroke="black" d="M101.09,-135.73C126.98,-117.85 169.13,-88.73 198.15,-68.69"/>
<polygon fill="black" stroke="black" points="200.46,-71.34 206.7,-62.78 196.48,-65.58 200.46,-71.34"/>
</g>
<!-- Graph_Graph_rect&#45;&gt;Graph_Graph -->
<g id="edge9" class="edge">
<title>Graph_Graph_rect&#45;&gt;Graph_Graph</title>
<path fill="none" stroke="black" d="M115.92,-138.23C126.61,-134.46 138.25,-130.39 149,-126.68 217.8,-102.96 298.08,-76.01 345.33,-60.23"/>
<polygon fill="black" stroke="black" points="346.52,-63.52 354.9,-57.04 344.31,-56.88 346.52,-63.52"/>
</g>
</g>
</svg>
