<?xml version="1.0" encoding="UTF-8" standalone="no"?>
<!DOCTYPE svg PUBLIC "-//W3C//DTD SVG 1.1//EN"
 "http://www.w3.org/Graphics/SVG/1.1/DTD/svg11.dtd">
<!-- Generated by graphviz version 2.43.0 (0)
 -->
<!-- Title: HoTT_Pointed_pFiber Pages: 1 -->
<svg width="1237pt" height="622pt"
 viewBox="0.00 0.00 1237.00 622.50" xmlns="http://www.w3.org/2000/svg" xmlns:xlink="http://www.w3.org/1999/xlink">
<g id="graph0" class="graph" transform="scale(1 1) rotate(0) translate(4 618.5)">
<title>HoTT_Pointed_pFiber</title>
<polygon fill="white" stroke="transparent" points="-4,4 -4,-618.5 1233,-618.5 1233,4 -4,4"/>
<g id="clust1" class="cluster">
<title>cluster_pFiber</title>
<polygon fill="#ffffc3" stroke="black" points="8,-11.96 8,-602.54 1221,-602.54 1221,-11.96 8,-11.96"/>
<text text-anchor="middle" x="40" y="-587.34" font-family="Times,serif" font-size="14.00">pFiber</text>
</g>
<!-- pFiber_pfiber2_fmap_loops -->
<g id="node1" class="node">
<title>pFiber_pfiber2_fmap_loops</title>
<g id="a_node1"><a xlink:href="pFiber.html#pfiber2_fmap_loops" xlink:title="pfiber2_fmap_loops">
<ellipse fill="#f070d1" stroke="black" cx="496" cy="-516.96" rx="100.96" ry="18"/>
<ellipse fill="none" stroke="black" cx="496" cy="-516.96" rx="104.97" ry="22"/>
<ellipse fill="none" stroke="black" cx="496" cy="-516.96" rx="108.98" ry="26"/>
<text text-anchor="middle" x="496" y="-513.26" font-family="Times,serif" font-size="14.00">pfiber2_fmap_loops</text>
</a>
</g>
</g>
<!-- pFiber_pfiber2_loops -->
<g id="node11" class="node">
<title>pFiber_pfiber2_loops</title>
<g id="a_node11"><a xlink:href="pFiber.html#pfiber2_loops" xlink:title="pfiber2_loops">
<ellipse fill="#f070d1" stroke="black" cx="496" cy="-385.96" rx="72.59" ry="18"/>
<text text-anchor="middle" x="496" y="-382.26" font-family="Times,serif" font-size="14.00">pfiber2_loops</text>
</a>
</g>
</g>
<!-- pFiber_pfiber2_fmap_loops&#45;&gt;pFiber_pfiber2_loops -->
<g id="edge1" class="edge">
<title>pFiber_pfiber2_fmap_loops&#45;&gt;pFiber_pfiber2_loops</title>
<path fill="none" stroke="black" d="M496,-490.78C496,-468.85 496,-437.12 496,-414.52"/>
<polygon fill="black" stroke="black" points="499.5,-414.24 496,-404.24 492.5,-414.24 499.5,-414.24"/>
</g>
<!-- pFiber_square_pequiv_pfiber -->
<g id="node2" class="node">
<title>pFiber_square_pequiv_pfiber</title>
<g id="a_node2"><a xlink:href="pFiber.html#square_pequiv_pfiber" xlink:title="square_pequiv_pfiber">
<ellipse fill="#f070d1" stroke="black" cx="193" cy="-516.96" rx="109.69" ry="18"/>
<ellipse fill="none" stroke="black" cx="193" cy="-516.96" rx="113.69" ry="22"/>
<ellipse fill="none" stroke="black" cx="193" cy="-516.96" rx="117.68" ry="26"/>
<text text-anchor="middle" x="193" y="-513.26" font-family="Times,serif" font-size="14.00">square_pequiv_pfiber</text>
</a>
</g>
</g>
<!-- pFiber_square_functor_pfiber -->
<g id="node3" class="node">
<title>pFiber_square_functor_pfiber</title>
<g id="a_node3"><a xlink:href="pFiber.html#square_functor_pfiber" xlink:title="square_functor_pfiber">
<ellipse fill="#f070d1" stroke="black" cx="128" cy="-385.96" rx="112.38" ry="18"/>
<text text-anchor="middle" x="128" y="-382.26" font-family="Times,serif" font-size="14.00">square_functor_pfiber</text>
</a>
</g>
</g>
<!-- pFiber_square_pequiv_pfiber&#45;&gt;pFiber_square_functor_pfiber -->
<g id="edge2" class="edge">
<title>pFiber_square_pequiv_pfiber&#45;&gt;pFiber_square_functor_pfiber</title>
<path fill="none" stroke="black" d="M180.47,-491.09C169.17,-468.67 152.62,-435.81 141.14,-413.03"/>
<polygon fill="black" stroke="black" points="144.18,-411.3 136.56,-403.94 137.93,-414.45 144.18,-411.3"/>
</g>
<!-- pFiber_pequiv_pfiber -->
<g id="node5" class="node">
<title>pFiber_pequiv_pfiber</title>
<g id="a_node5"><a xlink:href="pFiber.html#pequiv_pfiber" xlink:title="pequiv_pfiber">
<ellipse fill="#f070d1" stroke="black" cx="332" cy="-385.96" rx="73.39" ry="18"/>
<text text-anchor="middle" x="332" y="-382.26" font-family="Times,serif" font-size="14.00">pequiv_pfiber</text>
</a>
</g>
</g>
<!-- pFiber_square_pequiv_pfiber&#45;&gt;pFiber_pequiv_pfiber -->
<g id="edge3" class="edge">
<title>pFiber_square_pequiv_pfiber&#45;&gt;pFiber_pequiv_pfiber</title>
<path fill="none" stroke="black" d="M219.47,-491.39C244.49,-468.17 281.77,-433.57 306.48,-410.65"/>
<polygon fill="black" stroke="black" points="309.08,-413.01 314.02,-403.64 304.31,-407.88 309.08,-413.01"/>
</g>
<!-- pFiber_square_functor_pfiber_subproof -->
<g id="node4" class="node">
<title>pFiber_square_functor_pfiber_subproof</title>
<g id="a_node4"><a xlink:href="pFiber.html#square_functor_pfiber_subproof" xlink:title="square_functor_pfiber_subproof">
<ellipse fill="#f070d1" stroke="black" cx="217" cy="-158.96" rx="157.07" ry="18"/>
<text text-anchor="middle" x="217" y="-155.26" font-family="Times,serif" font-size="14.00">square_functor_pfiber_subproof</text>
</a>
</g>
</g>
<!-- pFiber_square_functor_pfiber&#45;&gt;pFiber_square_functor_pfiber_subproof -->
<g id="edge4" class="edge">
<title>pFiber_square_functor_pfiber&#45;&gt;pFiber_square_functor_pfiber_subproof</title>
<path fill="none" stroke="black" d="M134.84,-367.68C150.31,-328.56 188.09,-233.04 206.53,-186.42"/>
<polygon fill="black" stroke="black" points="209.84,-187.58 210.26,-176.99 203.33,-185.01 209.84,-187.58"/>
</g>
<!-- pFiber_functor_pfiber -->
<g id="node6" class="node">
<title>pFiber_functor_pfiber</title>
<g id="a_node6"><a xlink:href="pFiber.html#functor_pfiber" xlink:title="functor_pfiber">
<ellipse fill="#f070d1" stroke="black" cx="332" cy="-265.96" rx="76.09" ry="18"/>
<text text-anchor="middle" x="332" y="-262.26" font-family="Times,serif" font-size="14.00">functor_pfiber</text>
</a>
</g>
</g>
<!-- pFiber_square_functor_pfiber&#45;&gt;pFiber_functor_pfiber -->
<g id="edge5" class="edge">
<title>pFiber_square_functor_pfiber&#45;&gt;pFiber_functor_pfiber</title>
<path fill="none" stroke="black" d="M156.8,-368.3C193.27,-347.21 256.15,-310.83 295.83,-287.88"/>
<polygon fill="black" stroke="black" points="297.75,-290.82 304.65,-282.78 294.25,-284.76 297.75,-290.82"/>
</g>
<!-- pFiber_pfib -->
<g id="node12" class="node">
<title>pFiber_pfib</title>
<g id="a_node12"><a xlink:href="pFiber.html#pfib" xlink:title="pfib">
<ellipse fill="#f070d1" stroke="black" cx="476" cy="-265.96" rx="28.7" ry="18"/>
<text text-anchor="middle" x="476" y="-262.26" font-family="Times,serif" font-size="14.00">pfib</text>
</a>
</g>
</g>
<!-- pFiber_square_functor_pfiber&#45;&gt;pFiber_pfib -->
<g id="edge6" class="edge">
<title>pFiber_square_functor_pfiber&#45;&gt;pFiber_pfib</title>
<path fill="none" stroke="black" d="M173.85,-369.41C244.48,-345.46 378.33,-300.08 441.44,-278.68"/>
<polygon fill="black" stroke="black" points="442.95,-281.86 451.29,-275.34 440.7,-275.24 442.95,-281.86"/>
</g>
<!-- pFiber_ispointed_fiber -->
<g id="node14" class="node">
<title>pFiber_ispointed_fiber</title>
<g id="a_node14"><a xlink:href="pFiber.html#ispointed_fiber" xlink:title="ispointed_fiber">
<ellipse fill="#f070d1" stroke="black" cx="346" cy="-50.96" rx="79.09" ry="18"/>
<text text-anchor="middle" x="346" y="-47.26" font-family="Times,serif" font-size="14.00">ispointed_fiber</text>
</a>
</g>
</g>
<!-- pFiber_square_functor_pfiber_subproof&#45;&gt;pFiber_ispointed_fiber -->
<g id="edge7" class="edge">
<title>pFiber_square_functor_pfiber_subproof&#45;&gt;pFiber_ispointed_fiber</title>
<path fill="none" stroke="black" d="M237.73,-140.93C259.48,-123.05 293.82,-94.84 317.98,-74.99"/>
<polygon fill="black" stroke="black" points="320.25,-77.65 325.75,-68.6 315.8,-72.24 320.25,-77.65"/>
</g>
<!-- pFiber_pequiv_pfiber&#45;&gt;pFiber_functor_pfiber -->
<g id="edge8" class="edge">
<title>pFiber_pequiv_pfiber&#45;&gt;pFiber_functor_pfiber</title>
<path fill="none" stroke="black" d="M332,-367.8C332,-348.49 332,-316.85 332,-294.16"/>
<polygon fill="black" stroke="black" points="335.5,-294.14 332,-284.14 328.5,-294.14 335.5,-294.14"/>
</g>
<!-- pFiber_pfiber -->
<g id="node13" class="node">
<title>pFiber_pfiber</title>
<g id="a_node13"><a xlink:href="pFiber.html#pfiber" xlink:title="pfiber">
<ellipse fill="#f070d1" stroke="black" cx="454" cy="-158.96" rx="38.19" ry="18"/>
<text text-anchor="middle" x="454" y="-155.26" font-family="Times,serif" font-size="14.00">pfiber</text>
</a>
</g>
</g>
<!-- pFiber_functor_pfiber&#45;&gt;pFiber_pfiber -->
<g id="edge9" class="edge">
<title>pFiber_functor_pfiber&#45;&gt;pFiber_pfiber</title>
<path fill="none" stroke="black" d="M351.33,-248.32C372.25,-230.32 405.68,-201.55 428.68,-181.75"/>
<polygon fill="black" stroke="black" points="431.05,-184.33 436.34,-175.16 426.48,-179.03 431.05,-184.33"/>
</g>
<!-- pFiber_pfiber_fmap_iterated_loops -->
<g id="node7" class="node">
<title>pFiber_pfiber_fmap_iterated_loops</title>
<g id="a_node7"><a xlink:href="pFiber.html#pfiber_fmap_iterated_loops" xlink:title="pfiber_fmap_iterated_loops">
<ellipse fill="#f070d1" stroke="black" cx="1069" cy="-385.96" rx="135.69" ry="18"/>
<ellipse fill="none" stroke="black" cx="1069" cy="-385.96" rx="139.68" ry="22"/>
<ellipse fill="none" stroke="black" cx="1069" cy="-385.96" rx="143.68" ry="26"/>
<text text-anchor="middle" x="1069" y="-382.26" font-family="Times,serif" font-size="14.00">pfiber_fmap_iterated_loops</text>
</a>
</g>
</g>
<!-- pFiber_pfiber_fmap_loops -->
<g id="node10" class="node">
<title>pFiber_pfiber_fmap_loops</title>
<g id="a_node10"><a xlink:href="pFiber.html#pfiber_fmap_loops" xlink:title="pfiber_fmap_loops">
<ellipse fill="#f070d1" stroke="black" cx="747" cy="-265.96" rx="94.78" ry="18"/>
<text text-anchor="middle" x="747" y="-262.26" font-family="Times,serif" font-size="14.00">pfiber_fmap_loops</text>
</a>
</g>
</g>
<!-- pFiber_pfiber_fmap_iterated_loops&#45;&gt;pFiber_pfiber_fmap_loops -->
<g id="edge10" class="edge">
<title>pFiber_pfiber_fmap_iterated_loops&#45;&gt;pFiber_pfiber_fmap_loops</title>
<path fill="none" stroke="black" d="M1007.3,-362.35C946.53,-340.08 854.81,-306.47 798.03,-285.66"/>
<polygon fill="black" stroke="black" points="799.13,-282.34 788.54,-282.18 796.72,-288.91 799.13,-282.34"/>
</g>
<!-- pFiber_pr1_pfiber_fmap_loops -->
<g id="node8" class="node">
<title>pFiber_pr1_pfiber_fmap_loops</title>
<g id="a_node8"><a xlink:href="pFiber.html#pr1_pfiber_fmap_loops" xlink:title="pr1_pfiber_fmap_loops">
<ellipse fill="#f070d1" stroke="black" cx="747" cy="-516.96" rx="115.08" ry="18"/>
<ellipse fill="none" stroke="black" cx="747" cy="-516.96" rx="119.08" ry="22"/>
<ellipse fill="none" stroke="black" cx="747" cy="-516.96" rx="123.08" ry="26"/>
<text text-anchor="middle" x="747" y="-513.26" font-family="Times,serif" font-size="14.00">pr1_pfiber_fmap_loops</text>
</a>
</g>
</g>
<!-- pFiber_pr1_pfiber_fmap_loops_subproof -->
<g id="node9" class="node">
<title>pFiber_pr1_pfiber_fmap_loops_subproof</title>
<g id="a_node9"><a xlink:href="pFiber.html#pr1_pfiber_fmap_loops_subproof" xlink:title="pr1_pfiber_fmap_loops_subproof">
<ellipse fill="#f070d1" stroke="black" cx="747" cy="-385.96" rx="160.57" ry="18"/>
<text text-anchor="middle" x="747" y="-382.26" font-family="Times,serif" font-size="14.00">pr1_pfiber_fmap_loops_subproof</text>
</a>
</g>
</g>
<!-- pFiber_pr1_pfiber_fmap_loops&#45;&gt;pFiber_pr1_pfiber_fmap_loops_subproof -->
<g id="edge11" class="edge">
<title>pFiber_pr1_pfiber_fmap_loops&#45;&gt;pFiber_pr1_pfiber_fmap_loops_subproof</title>
<path fill="none" stroke="black" d="M747,-490.78C747,-468.85 747,-437.12 747,-414.52"/>
<polygon fill="black" stroke="black" points="750.5,-414.24 747,-404.24 743.5,-414.24 750.5,-414.24"/>
</g>
<!-- pFiber_pr1_pfiber_fmap_loops_subproof&#45;&gt;pFiber_pfiber_fmap_loops -->
<g id="edge12" class="edge">
<title>pFiber_pr1_pfiber_fmap_loops_subproof&#45;&gt;pFiber_pfiber_fmap_loops</title>
<path fill="none" stroke="black" d="M747,-367.8C747,-348.49 747,-316.85 747,-294.16"/>
<polygon fill="black" stroke="black" points="750.5,-294.14 747,-284.14 743.5,-294.14 750.5,-294.14"/>
</g>
<!-- pFiber_pr1_pfiber_fmap_loops_subproof&#45;&gt;pFiber_pfib -->
<g id="edge13" class="edge">
<title>pFiber_pr1_pfiber_fmap_loops_subproof&#45;&gt;pFiber_pfib</title>
<path fill="none" stroke="black" d="M709.03,-368.43C655.5,-345.12 558.76,-303 508.42,-281.08"/>
<polygon fill="black" stroke="black" points="509.56,-277.76 498.99,-276.97 506.76,-284.17 509.56,-277.76"/>
</g>
<!-- pFiber_pfiber_fmap_loops&#45;&gt;pFiber_pfiber -->
<g id="edge14" class="edge">
<title>pFiber_pfiber_fmap_loops&#45;&gt;pFiber_pfiber</title>
<path fill="none" stroke="black" d="M704.71,-249.81C648.16,-229.54 548.68,-193.89 493.56,-174.14"/>
<polygon fill="black" stroke="black" points="494.4,-170.72 483.8,-170.64 492.04,-177.31 494.4,-170.72"/>
</g>
<!-- pFiber_pfiber2_loops&#45;&gt;pFiber_pfib -->
<g id="edge15" class="edge">
<title>pFiber_pfiber2_loops&#45;&gt;pFiber_pfib</title>
<path fill="none" stroke="black" d="M493.09,-367.8C489.82,-348.49 484.46,-316.85 480.61,-294.16"/>
<polygon fill="black" stroke="black" points="484.03,-293.41 478.91,-284.14 477.13,-294.58 484.03,-293.41"/>
</g>
<!-- pFiber_pfib&#45;&gt;pFiber_pfiber -->
<g id="edge16" class="edge">
<title>pFiber_pfib&#45;&gt;pFiber_pfiber</title>
<path fill="none" stroke="black" d="M472.47,-248.09C469.02,-231.66 463.73,-206.4 459.69,-187.13"/>
<polygon fill="black" stroke="black" points="463.08,-186.21 457.6,-177.14 456.22,-187.64 463.08,-186.21"/>
</g>
<!-- pFiber_pfiber&#45;&gt;pFiber_ispointed_fiber -->
<g id="edge17" class="edge">
<title>pFiber_pfiber&#45;&gt;pFiber_ispointed_fiber</title>
<path fill="none" stroke="black" d="M438.06,-142.32C420.19,-124.78 391,-96.13 370.28,-75.8"/>
<polygon fill="black" stroke="black" points="372.66,-73.22 363.07,-68.72 367.76,-78.22 372.66,-73.22"/>
</g>
</g>
</svg>
