<?xml version="1.0" encoding="UTF-8" standalone="no"?>
<!DOCTYPE svg PUBLIC "-//W3C//DTD SVG 1.1//EN"
 "http://www.w3.org/Graphics/SVG/1.1/DTD/svg11.dtd">
<!-- Generated by graphviz version 2.43.0 (0)
 -->
<!-- Title: HoTT_Truncations_Connectedness Pages: 1 -->
<svg width="2462pt" height="1235pt"
 viewBox="0.00 0.00 2462.00 1235.00" xmlns="http://www.w3.org/2000/svg" xmlns:xlink="http://www.w3.org/1999/xlink">
<g id="graph0" class="graph" transform="scale(1 1) rotate(0) translate(4 1231)">
<title>HoTT_Truncations_Connectedness</title>
<polygon fill="white" stroke="transparent" points="-4,4 -4,-1231 2458,-1231 2458,4 -4,4"/>
<g id="clust1" class="cluster">
<title>cluster_Connectedness</title>
<polygon fill="#ffffc3" stroke="black" points="8,-22.16 8,-1204.84 2446,-1204.84 2446,-22.16 8,-22.16"/>
<text text-anchor="middle" x="70.5" y="-1189.64" font-family="Times,serif" font-size="14.00">Connectedness</text>
</g>
<!-- Connectedness_wedge_incl_elim_uncurried -->
<g id="node1" class="node">
<title>Connectedness_wedge_incl_elim_uncurried</title>
<g id="a_node1"><a xlink:href="Connectedness.html#wedge_incl_elim_uncurried" xlink:title="wedge_incl_elim_uncurried">
<ellipse fill="#f070d1" stroke="black" cx="2294" cy="-803.16" rx="135.69" ry="18"/>
<ellipse fill="none" stroke="black" cx="2294" cy="-803.16" rx="139.68" ry="22"/>
<ellipse fill="none" stroke="black" cx="2294" cy="-803.16" rx="143.68" ry="26"/>
<text text-anchor="middle" x="2294" y="-799.46" font-family="Times,serif" font-size="14.00">wedge_incl_elim_uncurried</text>
</a>
</g>
</g>
<!-- Connectedness_wedge_incl_elim -->
<g id="node5" class="node">
<title>Connectedness_wedge_incl_elim</title>
<g id="a_node5"><a xlink:href="Connectedness.html#wedge_incl_elim" xlink:title="wedge_incl_elim">
<ellipse fill="#f070d1" stroke="black" cx="2035" cy="-559.16" rx="86.38" ry="18"/>
<text text-anchor="middle" x="2035" y="-555.46" font-family="Times,serif" font-size="14.00">wedge_incl_elim</text>
</a>
</g>
</g>
<!-- Connectedness_wedge_incl_elim_uncurried&#45;&gt;Connectedness_wedge_incl_elim -->
<g id="edge1" class="edge">
<title>Connectedness_wedge_incl_elim_uncurried&#45;&gt;Connectedness_wedge_incl_elim</title>
<path fill="none" stroke="black" d="M2267.26,-777.17C2217.08,-730.29 2109.46,-629.73 2060.36,-583.85"/>
<polygon fill="black" stroke="black" points="2062.7,-581.25 2053,-576.98 2057.92,-586.36 2062.7,-581.25"/>
</g>
<!-- Connectedness_wedge_incl_comp3 -->
<g id="node2" class="node">
<title>Connectedness_wedge_incl_comp3</title>
<g id="a_node2"><a xlink:href="Connectedness.html#wedge_incl_comp3" xlink:title="wedge_incl_comp3">
<ellipse fill="#f070d1" stroke="black" cx="2333" cy="-1047.16" rx="96.7" ry="18"/>
<ellipse fill="none" stroke="black" cx="2333" cy="-1047.16" rx="100.69" ry="22"/>
<ellipse fill="none" stroke="black" cx="2333" cy="-1047.16" rx="104.68" ry="26"/>
<text text-anchor="middle" x="2333" y="-1043.46" font-family="Times,serif" font-size="14.00">wedge_incl_comp3</text>
</a>
</g>
</g>
<!-- Connectedness_wedge_incl_comp2 -->
<g id="node3" class="node">
<title>Connectedness_wedge_incl_comp2</title>
<g id="a_node3"><a xlink:href="Connectedness.html#wedge_incl_comp2" xlink:title="wedge_incl_comp2">
<ellipse fill="#f070d1" stroke="black" cx="1823" cy="-803.16" rx="96.68" ry="18"/>
<text text-anchor="middle" x="1823" y="-799.46" font-family="Times,serif" font-size="14.00">wedge_incl_comp2</text>
</a>
</g>
</g>
<!-- Connectedness_wedge_incl_comp3&#45;&gt;Connectedness_wedge_incl_comp2 -->
<g id="edge2" class="edge">
<title>Connectedness_wedge_incl_comp3&#45;&gt;Connectedness_wedge_incl_comp2</title>
<path fill="none" stroke="black" d="M2285.93,-1023.83C2187.35,-977.05 1960.49,-869.4 1865.77,-824.45"/>
<polygon fill="black" stroke="black" points="1867.02,-821.17 1856.49,-820.05 1864.02,-827.5 1867.02,-821.17"/>
</g>
<!-- Connectedness_wedge_incl_comp1 -->
<g id="node4" class="node">
<title>Connectedness_wedge_incl_comp1</title>
<g id="a_node4"><a xlink:href="Connectedness.html#wedge_incl_comp1" xlink:title="wedge_incl_comp1">
<ellipse fill="#f070d1" stroke="black" cx="2035" cy="-803.16" rx="96.68" ry="18"/>
<text text-anchor="middle" x="2035" y="-799.46" font-family="Times,serif" font-size="14.00">wedge_incl_comp1</text>
</a>
</g>
</g>
<!-- Connectedness_wedge_incl_comp3&#45;&gt;Connectedness_wedge_incl_comp1 -->
<g id="edge3" class="edge">
<title>Connectedness_wedge_incl_comp3&#45;&gt;Connectedness_wedge_incl_comp1</title>
<path fill="none" stroke="black" d="M2303.34,-1022.07C2245.81,-975.35 2119.78,-873 2063.33,-827.16"/>
<polygon fill="black" stroke="black" points="2065.49,-824.41 2055.52,-820.82 2061.08,-829.84 2065.49,-824.41"/>
</g>
<!-- Connectedness_wedge_incl_comp2&#45;&gt;Connectedness_wedge_incl_elim -->
<g id="edge4" class="edge">
<title>Connectedness_wedge_incl_comp2&#45;&gt;Connectedness_wedge_incl_elim</title>
<path fill="none" stroke="black" d="M1837.91,-785.14C1874.78,-743.05 1970.38,-633.93 2013.43,-584.78"/>
<polygon fill="black" stroke="black" points="2016.15,-586.98 2020.11,-577.16 2010.89,-582.37 2016.15,-586.98"/>
</g>
<!-- Connectedness_wedge_incl_comp1&#45;&gt;Connectedness_wedge_incl_elim -->
<g id="edge5" class="edge">
<title>Connectedness_wedge_incl_comp1&#45;&gt;Connectedness_wedge_incl_elim</title>
<path fill="none" stroke="black" d="M2035,-785.14C2035,-743.85 2035,-638.02 2035,-587.63"/>
<polygon fill="black" stroke="black" points="2038.5,-587.48 2035,-577.48 2031.5,-587.48 2038.5,-587.48"/>
</g>
<!-- Connectedness_isconn_wedge_incl -->
<g id="node6" class="node">
<title>Connectedness_isconn_wedge_incl</title>
<g id="a_node6"><a xlink:href="Connectedness.html#isconn_wedge_incl" xlink:title="isconn_wedge_incl">
<ellipse fill="#f070d1" stroke="black" cx="2035" cy="-316.16" rx="96.38" ry="18"/>
<text text-anchor="middle" x="2035" y="-312.46" font-family="Times,serif" font-size="14.00">isconn_wedge_incl</text>
</a>
</g>
</g>
<!-- Connectedness_wedge_incl_elim&#45;&gt;Connectedness_isconn_wedge_incl -->
<g id="edge6" class="edge">
<title>Connectedness_wedge_incl_elim&#45;&gt;Connectedness_isconn_wedge_incl</title>
<path fill="none" stroke="black" d="M2035,-540.83C2035,-499.4 2035,-394.38 2035,-344.4"/>
<polygon fill="black" stroke="black" points="2038.5,-344.33 2035,-334.33 2031.5,-344.33 2038.5,-344.33"/>
</g>
<!-- Connectedness_conn_point_incl -->
<g id="node21" class="node">
<title>Connectedness_conn_point_incl</title>
<g id="a_node21"><a xlink:href="Connectedness.html#conn_point_incl" xlink:title="conn_point_incl">
<ellipse fill="#f070d1" stroke="black" cx="1910" cy="-94.16" rx="81.79" ry="18"/>
<text text-anchor="middle" x="1910" y="-90.46" font-family="Times,serif" font-size="14.00">conn_point_incl</text>
</a>
</g>
</g>
<!-- Connectedness_isconn_wedge_incl&#45;&gt;Connectedness_conn_point_incl -->
<g id="edge7" class="edge">
<title>Connectedness_isconn_wedge_incl&#45;&gt;Connectedness_conn_point_incl</title>
<path fill="none" stroke="black" d="M2025.19,-297.89C2003.32,-259.41 1950.47,-166.38 1924.67,-120.97"/>
<polygon fill="black" stroke="black" points="1927.57,-119 1919.59,-112.04 1921.49,-122.46 1927.57,-119"/>
</g>
<!-- Connectedness_istrunc_extension_along_conn -->
<g id="node24" class="node">
<title>Connectedness_istrunc_extension_along_conn</title>
<g id="a_node24"><a xlink:href="Connectedness.html#istrunc_extension_along_conn" xlink:title="istrunc_extension_along_conn">
<ellipse fill="#f070d1" stroke="black" cx="2159" cy="-94.16" rx="148.67" ry="18"/>
<text text-anchor="middle" x="2159" y="-90.46" font-family="Times,serif" font-size="14.00">istrunc_extension_along_conn</text>
</a>
</g>
</g>
<!-- Connectedness_isconn_wedge_incl&#45;&gt;Connectedness_istrunc_extension_along_conn -->
<g id="edge8" class="edge">
<title>Connectedness_isconn_wedge_incl&#45;&gt;Connectedness_istrunc_extension_along_conn</title>
<path fill="none" stroke="black" d="M2044.73,-297.89C2066.37,-259.5 2118.6,-166.84 2144.26,-121.31"/>
<polygon fill="black" stroke="black" points="2147.45,-122.77 2149.32,-112.34 2141.36,-119.33 2147.45,-122.77"/>
</g>
<!-- Connectedness_isconnected_trunc -->
<g id="node7" class="node">
<title>Connectedness_isconnected_trunc</title>
<g id="a_node7"><a xlink:href="Connectedness.html#isconnected_trunc" xlink:title="isconnected_trunc">
<ellipse fill="#f070d1" stroke="black" cx="2107" cy="-1047.16" rx="94.79" ry="18"/>
<ellipse fill="none" stroke="black" cx="2107" cy="-1047.16" rx="98.79" ry="22"/>
<ellipse fill="none" stroke="black" cx="2107" cy="-1047.16" rx="102.78" ry="26"/>
<text text-anchor="middle" x="2107" y="-1043.46" font-family="Times,serif" font-size="14.00">isconnected_trunc</text>
</a>
</g>
</g>
<!-- Connectedness_indecomposable_0connected -->
<g id="node8" class="node">
<title>Connectedness_indecomposable_0connected</title>
<g id="a_node8"><a xlink:href="Connectedness.html#indecomposable_0connected" xlink:title="indecomposable_0connected">
<ellipse fill="#f070d1" stroke="black" cx="896" cy="-559.16" rx="142.98" ry="18"/>
<ellipse fill="none" stroke="black" cx="896" cy="-559.16" rx="146.97" ry="22"/>
<ellipse fill="none" stroke="black" cx="896" cy="-559.16" rx="150.97" ry="26"/>
<text text-anchor="middle" x="896" y="-555.46" font-family="Times,serif" font-size="14.00">indecomposable_0connected</text>
</a>
</g>
</g>
<!-- Connectedness_merely_path_is0connected -->
<g id="node13" class="node">
<title>Connectedness_merely_path_is0connected</title>
<g id="a_node13"><a xlink:href="Connectedness.html#merely_path_is0connected" xlink:title="merely_path_is0connected">
<ellipse fill="#f070d1" stroke="black" cx="896" cy="-316.16" rx="133.78" ry="18"/>
<text text-anchor="middle" x="896" y="-312.46" font-family="Times,serif" font-size="14.00">merely_path_is0connected</text>
</a>
</g>
</g>
<!-- Connectedness_indecomposable_0connected&#45;&gt;Connectedness_merely_path_is0connected -->
<g id="edge9" class="edge">
<title>Connectedness_indecomposable_0connected&#45;&gt;Connectedness_merely_path_is0connected</title>
<path fill="none" stroke="black" d="M896,-532.82C896,-487.19 896,-391.57 896,-344.51"/>
<polygon fill="black" stroke="black" points="899.5,-344.44 896,-334.44 892.5,-344.44 899.5,-344.44"/>
</g>
<!-- Connectedness_isconnected_pred -->
<g id="node19" class="node">
<title>Connectedness_isconnected_pred</title>
<g id="a_node19"><a xlink:href="Connectedness.html#isconnected_pred" xlink:title="isconnected_pred">
<ellipse fill="#f070d1" stroke="black" cx="652" cy="-316.16" rx="91.78" ry="18"/>
<text text-anchor="middle" x="652" y="-312.46" font-family="Times,serif" font-size="14.00">isconnected_pred</text>
</a>
</g>
</g>
<!-- Connectedness_indecomposable_0connected&#45;&gt;Connectedness_isconnected_pred -->
<g id="edge10" class="edge">
<title>Connectedness_indecomposable_0connected&#45;&gt;Connectedness_isconnected_pred</title>
<path fill="none" stroke="black" d="M870.81,-533.27C823.63,-486.68 722.56,-386.85 676.18,-341.04"/>
<polygon fill="black" stroke="black" points="678.53,-338.44 668.96,-333.91 673.61,-343.42 678.53,-338.44"/>
</g>
<!-- Connectedness_equiv_component_image_unit -->
<g id="node9" class="node">
<title>Connectedness_equiv_component_image_unit</title>
<g id="a_node9"><a xlink:href="Connectedness.html#equiv_component_image_unit" xlink:title="equiv_component_image_unit">
<ellipse fill="#f070d1" stroke="black" cx="1831" cy="-1047.16" rx="147.57" ry="18"/>
<ellipse fill="none" stroke="black" cx="1831" cy="-1047.16" rx="151.57" ry="22"/>
<ellipse fill="none" stroke="black" cx="1831" cy="-1047.16" rx="155.57" ry="26"/>
<text text-anchor="middle" x="1831" y="-1043.46" font-family="Times,serif" font-size="14.00">equiv_component_image_unit</text>
</a>
</g>
</g>
<!-- Connectedness_merely_path_component -->
<g id="node10" class="node">
<title>Connectedness_merely_path_component</title>
<g id="a_node10"><a xlink:href="Connectedness.html#merely_path_component" xlink:title="merely_path_component">
<ellipse fill="#f070d1" stroke="black" cx="1525" cy="-1047.16" rx="124.27" ry="18"/>
<ellipse fill="none" stroke="black" cx="1525" cy="-1047.16" rx="128.27" ry="22"/>
<ellipse fill="none" stroke="black" cx="1525" cy="-1047.16" rx="132.28" ry="26"/>
<text text-anchor="middle" x="1525" y="-1043.46" font-family="Times,serif" font-size="14.00">merely_path_component</text>
</a>
</g>
</g>
<!-- Connectedness_is0connected_component -->
<g id="node11" class="node">
<title>Connectedness_is0connected_component</title>
<g id="a_node11"><a xlink:href="Connectedness.html#is0connected_component" xlink:title="is0connected_component">
<ellipse fill="#f070d1" stroke="black" cx="1239" cy="-1047.16" rx="127.28" ry="18"/>
<ellipse fill="none" stroke="black" cx="1239" cy="-1047.16" rx="131.28" ry="22"/>
<ellipse fill="none" stroke="black" cx="1239" cy="-1047.16" rx="135.28" ry="26"/>
<text text-anchor="middle" x="1239" y="-1043.46" font-family="Times,serif" font-size="14.00">is0connected_component</text>
</a>
</g>
</g>
<!-- Connectedness_is0connected_merely_allpath -->
<g id="node12" class="node">
<title>Connectedness_is0connected_merely_allpath</title>
<g id="a_node12"><a xlink:href="Connectedness.html#is0connected_merely_allpath" xlink:title="is0connected_merely_allpath">
<ellipse fill="#f070d1" stroke="black" cx="933" cy="-1047.16" rx="144.88" ry="18"/>
<ellipse fill="none" stroke="black" cx="933" cy="-1047.16" rx="148.88" ry="22"/>
<ellipse fill="none" stroke="black" cx="933" cy="-1047.16" rx="152.87" ry="26"/>
<text text-anchor="middle" x="933" y="-1043.46" font-family="Times,serif" font-size="14.00">is0connected_merely_allpath</text>
</a>
</g>
</g>
<!-- Connectedness_isconnected_paths -->
<g id="node23" class="node">
<title>Connectedness_isconnected_paths</title>
<g id="a_node23"><a xlink:href="Connectedness.html#isconnected_paths" xlink:title="isconnected_paths">
<ellipse fill="#f070d1" stroke="black" cx="673" cy="-94.16" rx="96.38" ry="18"/>
<text text-anchor="middle" x="673" y="-90.46" font-family="Times,serif" font-size="14.00">isconnected_paths</text>
</a>
</g>
</g>
<!-- Connectedness_merely_path_is0connected&#45;&gt;Connectedness_isconnected_paths -->
<g id="edge11" class="edge">
<title>Connectedness_merely_path_is0connected&#45;&gt;Connectedness_isconnected_paths</title>
<path fill="none" stroke="black" d="M878.87,-298.26C839.63,-259.55 743.11,-164.33 697.56,-119.39"/>
<polygon fill="black" stroke="black" points="699.76,-116.64 690.19,-112.11 694.85,-121.63 699.76,-116.64"/>
</g>
<!-- Connectedness_isconnmap_pred_add -->
<g id="node14" class="node">
<title>Connectedness_isconnmap_pred_add</title>
<g id="a_node14"><a xlink:href="Connectedness.html#isconnmap_pred_add" xlink:title="isconnmap_pred_add">
<ellipse fill="#f070d1" stroke="black" cx="739" cy="-803.16" rx="107.79" ry="18"/>
<ellipse fill="none" stroke="black" cx="739" cy="-803.16" rx="111.78" ry="22"/>
<ellipse fill="none" stroke="black" cx="739" cy="-803.16" rx="115.78" ry="26"/>
<text text-anchor="middle" x="739" y="-799.46" font-family="Times,serif" font-size="14.00">isconnmap_pred_add</text>
</a>
</g>
</g>
<!-- Connectedness_isconnected_pred_add -->
<g id="node18" class="node">
<title>Connectedness_isconnected_pred_add</title>
<g id="a_node18"><a xlink:href="Connectedness.html#isconnected_pred_add" xlink:title="isconnected_pred_add">
<ellipse fill="#f070d1" stroke="black" cx="614" cy="-559.16" rx="113.18" ry="18"/>
<text text-anchor="middle" x="614" y="-555.46" font-family="Times,serif" font-size="14.00">isconnected_pred_add</text>
</a>
</g>
</g>
<!-- Connectedness_isconnmap_pred_add&#45;&gt;Connectedness_isconnected_pred_add -->
<g id="edge12" class="edge">
<title>Connectedness_isconnmap_pred_add&#45;&gt;Connectedness_isconnected_pred_add</title>
<path fill="none" stroke="black" d="M726.09,-777.17C702.28,-731.08 651.67,-633.1 627.46,-586.21"/>
<polygon fill="black" stroke="black" points="630.54,-584.56 622.85,-577.28 624.33,-587.77 630.54,-584.56"/>
</g>
<!-- Connectedness_is0connected_isconnected -->
<g id="node15" class="node">
<title>Connectedness_is0connected_isconnected</title>
<g id="a_node15"><a xlink:href="Connectedness.html#is0connected_isconnected" xlink:title="is0connected_isconnected">
<ellipse fill="#f070d1" stroke="black" cx="623" cy="-1047.16" rx="131.09" ry="18"/>
<ellipse fill="none" stroke="black" cx="623" cy="-1047.16" rx="135.08" ry="22"/>
<ellipse fill="none" stroke="black" cx="623" cy="-1047.16" rx="139.08" ry="26"/>
<text text-anchor="middle" x="623" y="-1043.46" font-family="Times,serif" font-size="14.00">is0connected_isconnected</text>
</a>
</g>
</g>
<!-- Connectedness_isconnected_pred_add_ -->
<g id="node17" class="node">
<title>Connectedness_isconnected_pred_add_</title>
<g id="a_node17"><a xlink:href="Connectedness.html#isconnected_pred_add'" xlink:title="isconnected_pred_add&#39;">
<ellipse fill="#f070d1" stroke="black" cx="489" cy="-803.16" rx="115.88" ry="18"/>
<text text-anchor="middle" x="489" y="-799.46" font-family="Times,serif" font-size="14.00">isconnected_pred_add&#39;</text>
</a>
</g>
</g>
<!-- Connectedness_is0connected_isconnected&#45;&gt;Connectedness_isconnected_pred_add_ -->
<g id="edge13" class="edge">
<title>Connectedness_is0connected_isconnected&#45;&gt;Connectedness_isconnected_pred_add_</title>
<path fill="none" stroke="black" d="M609.16,-1021.17C583.64,-975.08 529.39,-877.1 503.43,-830.21"/>
<polygon fill="black" stroke="black" points="506.39,-828.34 498.48,-821.28 500.26,-831.73 506.39,-828.34"/>
</g>
<!-- Connectedness_merely_isconnected -->
<g id="node16" class="node">
<title>Connectedness_merely_isconnected</title>
<g id="a_node16"><a xlink:href="Connectedness.html#merely_isconnected" xlink:title="merely_isconnected">
<ellipse fill="#f070d1" stroke="black" cx="355" cy="-1047.16" rx="102.87" ry="18"/>
<ellipse fill="none" stroke="black" cx="355" cy="-1047.16" rx="106.88" ry="22"/>
<ellipse fill="none" stroke="black" cx="355" cy="-1047.16" rx="110.88" ry="26"/>
<text text-anchor="middle" x="355" y="-1043.46" font-family="Times,serif" font-size="14.00">merely_isconnected</text>
</a>
</g>
</g>
<!-- Connectedness_merely_isconnected&#45;&gt;Connectedness_isconnected_pred_add_ -->
<g id="edge14" class="edge">
<title>Connectedness_merely_isconnected&#45;&gt;Connectedness_isconnected_pred_add_</title>
<path fill="none" stroke="black" d="M368.84,-1021.17C394.36,-975.08 448.61,-877.1 474.57,-830.21"/>
<polygon fill="black" stroke="black" points="477.74,-831.73 479.52,-821.28 471.61,-828.34 477.74,-831.73"/>
</g>
<!-- Connectedness_isconnected_pred_add_&#45;&gt;Connectedness_isconnected_pred_add -->
<g id="edge15" class="edge">
<title>Connectedness_isconnected_pred_add_&#45;&gt;Connectedness_isconnected_pred_add</title>
<path fill="none" stroke="black" d="M497.79,-785.14C519.31,-743.48 574.74,-636.17 600.49,-586.32"/>
<polygon fill="black" stroke="black" points="603.74,-587.65 605.22,-577.16 597.52,-584.43 603.74,-587.65"/>
</g>
<!-- Connectedness_isconnected_pred_add&#45;&gt;Connectedness_isconnected_pred -->
<g id="edge16" class="edge">
<title>Connectedness_isconnected_pred_add&#45;&gt;Connectedness_isconnected_pred</title>
<path fill="none" stroke="black" d="M616.73,-540.83C623.26,-499.4 639.82,-394.38 647.7,-344.4"/>
<polygon fill="black" stroke="black" points="651.19,-344.76 649.29,-334.33 644.28,-343.67 651.19,-344.76"/>
</g>
<!-- Connectedness_conn_point_elim -->
<g id="node20" class="node">
<title>Connectedness_conn_point_elim</title>
<g id="a_node20"><a xlink:href="Connectedness.html#conn_point_elim" xlink:title="conn_point_elim">
<ellipse fill="#f070d1" stroke="black" cx="449" cy="-316.16" rx="85.27" ry="18"/>
<ellipse fill="none" stroke="black" cx="449" cy="-316.16" rx="89.28" ry="22"/>
<ellipse fill="none" stroke="black" cx="449" cy="-316.16" rx="93.29" ry="26"/>
<text text-anchor="middle" x="449" y="-312.46" font-family="Times,serif" font-size="14.00">conn_point_elim</text>
</a>
</g>
</g>
<!-- Connectedness_conn_point_elim&#45;&gt;Connectedness_isconnected_paths -->
<g id="edge17" class="edge">
<title>Connectedness_conn_point_elim&#45;&gt;Connectedness_isconnected_paths</title>
<path fill="none" stroke="black" d="M473.83,-290.77C517.03,-248.35 605.5,-161.45 648.48,-119.24"/>
<polygon fill="black" stroke="black" points="651.03,-121.64 655.71,-112.14 646.12,-116.65 651.03,-121.64"/>
</g>
<!-- Connectedness_conn_pointed_type -->
<g id="node22" class="node">
<title>Connectedness_conn_pointed_type</title>
<g id="a_node22"><a xlink:href="Connectedness.html#conn_pointed_type" xlink:title="conn_pointed_type">
<ellipse fill="#f070d1" stroke="black" cx="121" cy="-1047.16" rx="96.7" ry="18"/>
<ellipse fill="none" stroke="black" cx="121" cy="-1047.16" rx="100.69" ry="22"/>
<ellipse fill="none" stroke="black" cx="121" cy="-1047.16" rx="104.68" ry="26"/>
<text text-anchor="middle" x="121" y="-1043.46" font-family="Times,serif" font-size="14.00">conn_pointed_type</text>
</a>
</g>
</g>
</g>
</svg>
