<?xml version="1.0" encoding="UTF-8" standalone="no"?>
<!DOCTYPE svg PUBLIC "-//W3C//DTD SVG 1.1//EN"
 "http://www.w3.org/Graphics/SVG/1.1/DTD/svg11.dtd">
<!-- Generated by graphviz version 2.43.0 (0)
 -->
<!-- Title: HoTT_Truncations_Core Pages: 1 -->
<svg width="3604pt" height="1806pt"
 viewBox="0.00 0.00 3604.00 1806.00" xmlns="http://www.w3.org/2000/svg" xmlns:xlink="http://www.w3.org/1999/xlink">
<g id="graph0" class="graph" transform="scale(1 1) rotate(0) translate(4 1802)">
<title>HoTT_Truncations_Core</title>
<polygon fill="white" stroke="transparent" points="-4,4 -4,-1802 3600,-1802 3600,4 -4,4"/>
<g id="clust1" class="cluster">
<title>cluster_Core</title>
<polygon fill="#ffffc3" stroke="black" points="8,-20.97 8,-1777.03 3588,-1777.03 3588,-20.97 8,-20.97"/>
<text text-anchor="middle" x="33" y="-1761.83" font-family="Times,serif" font-size="14.00">Core</text>
</g>
<g id="clust2" class="cluster">
<title>cluster_Core_Trunc</title>
<polygon fill="#ffffa3" stroke="black" points="1879,-41.94 1879,-427.22 2219,-427.22 2219,-41.94 1879,-41.94"/>
<text text-anchor="middle" x="1908" y="-412.02" font-family="Times,serif" font-size="14.00">Trunc</text>
</g>
<!-- Core_Trunc_Trunc_ind -->
<g id="node1" class="node">
<title>Core_Trunc_Trunc_ind</title>
<g id="a_node1"><a xlink:href="Core.html#Trunc.Trunc_ind" xlink:title="Trunc_ind">
<ellipse fill="#f070d1" stroke="black" cx="2154" cy="-298.97" rx="56.59" ry="18"/>
<text text-anchor="middle" x="2154" y="-295.27" font-family="Times,serif" font-size="14.00">Trunc_ind</text>
</a>
</g>
</g>
<!-- Core_Trunc_tr -->
<g id="node3" class="node">
<title>Core_Trunc_tr</title>
<g id="a_node3"><a xlink:href="Core.html#Trunc.tr" xlink:title="tr">
<ellipse fill="#7faaff" stroke="black" cx="2154" cy="-109.97" rx="27" ry="18"/>
<text text-anchor="middle" x="2154" y="-106.27" font-family="Times,serif" font-size="14.00">tr</text>
</a>
</g>
</g>
<!-- Core_Trunc_Trunc_ind&#45;&gt;Core_Trunc_tr -->
<g id="edge1" class="edge">
<title>Core_Trunc_Trunc_ind&#45;&gt;Core_Trunc_tr</title>
<path fill="none" stroke="black" d="M2154,-280.71C2154,-248.15 2154,-177.41 2154,-138.31"/>
<polygon fill="black" stroke="black" points="2157.5,-138.18 2154,-128.18 2150.5,-138.18 2157.5,-138.18"/>
</g>
<!-- Core_Trunc_Trunc -->
<g id="node4" class="node">
<title>Core_Trunc_Trunc</title>
<g id="a_node4"><a xlink:href="Core.html#Trunc.Trunc" xlink:title="Trunc">
<ellipse fill="#e2cdfa" stroke="black" cx="2027" cy="-109.97" rx="37.89" ry="18"/>
<text text-anchor="middle" x="2027" y="-106.27" font-family="Times,serif" font-size="14.00">Trunc</text>
</a>
</g>
</g>
<!-- Core_Trunc_Trunc_ind&#45;&gt;Core_Trunc_Trunc -->
<g id="edge2" class="edge">
<title>Core_Trunc_Trunc_ind&#45;&gt;Core_Trunc_Trunc</title>
<path fill="none" stroke="black" d="M2142.51,-281.04C2120.01,-247.92 2070.07,-174.39 2043.84,-135.76"/>
<polygon fill="black" stroke="black" points="2046.53,-133.49 2038.01,-127.19 2040.74,-137.43 2046.53,-133.49"/>
</g>
<!-- Core_Trunc_istrunc_truncation -->
<g id="node2" class="node">
<title>Core_Trunc_istrunc_truncation</title>
<g id="a_node2"><a xlink:href="Core.html#Trunc.istrunc_truncation" xlink:title="istrunc_truncation">
<ellipse fill="#facdef" stroke="black" cx="1983" cy="-298.97" rx="96.38" ry="18"/>
<text text-anchor="middle" x="1983" y="-295.27" font-family="Times,serif" font-size="14.00">istrunc_truncation</text>
</a>
</g>
</g>
<!-- Core_Trunc_istrunc_truncation&#45;&gt;Core_Trunc_Trunc -->
<g id="edge3" class="edge">
<title>Core_Trunc_istrunc_truncation&#45;&gt;Core_Trunc_Trunc</title>
<path fill="none" stroke="black" d="M1987.06,-280.71C1994.74,-248.07 2011.45,-177.05 2020.64,-138.02"/>
<polygon fill="black" stroke="black" points="2024.13,-138.45 2023.01,-127.91 2017.32,-136.85 2024.13,-138.45"/>
</g>
<!-- Core_Trunc_swap -->
<g id="node5" class="node">
<title>Core_Trunc_swap</title>
<g id="a_node5"><a xlink:href="Core.html#Trunc_swap" xlink:title="Trunc_swap">
<ellipse fill="#f070d1" stroke="black" cx="1690" cy="-1627.97" rx="65.77" ry="18"/>
<ellipse fill="none" stroke="black" cx="1690" cy="-1627.97" rx="69.78" ry="22"/>
<ellipse fill="none" stroke="black" cx="1690" cy="-1627.97" rx="73.79" ry="26"/>
<text text-anchor="middle" x="1690" y="-1624.27" font-family="Times,serif" font-size="14.00">Trunc_swap</text>
</a>
</g>
</g>
<!-- Core_Trunc_min -->
<g id="node6" class="node">
<title>Core_Trunc_min</title>
<g id="a_node6"><a xlink:href="Core.html#Trunc_min" xlink:title="Trunc_min">
<ellipse fill="#f070d1" stroke="black" cx="1690" cy="-1396.97" rx="59.59" ry="18"/>
<text text-anchor="middle" x="1690" y="-1393.27" font-family="Times,serif" font-size="14.00">Trunc_min</text>
</a>
</g>
</g>
<!-- Core_Trunc_swap&#45;&gt;Core_Trunc_min -->
<g id="edge4" class="edge">
<title>Core_Trunc_swap&#45;&gt;Core_Trunc_min</title>
<path fill="none" stroke="black" d="M1690,-1601.59C1690,-1558.12 1690,-1469.83 1690,-1425.16"/>
<polygon fill="black" stroke="black" points="1693.5,-1425.05 1690,-1415.05 1686.5,-1425.05 1693.5,-1425.05"/>
</g>
<!-- Core_O_leq_Tr_leq -->
<g id="node7" class="node">
<title>Core_O_leq_Tr_leq</title>
<g id="a_node7"><a xlink:href="Core.html#O_leq_Tr_leq" xlink:title="O_leq_Tr_leq">
<ellipse fill="#f070d1" stroke="black" cx="1690" cy="-1165.97" rx="69.59" ry="18"/>
<text text-anchor="middle" x="1690" y="-1162.27" font-family="Times,serif" font-size="14.00">O_leq_Tr_leq</text>
</a>
</g>
</g>
<!-- Core_Trunc_min&#45;&gt;Core_O_leq_Tr_leq -->
<g id="edge5" class="edge">
<title>Core_Trunc_min&#45;&gt;Core_O_leq_Tr_leq</title>
<path fill="none" stroke="black" d="M1690,-1378.76C1690,-1339.29 1690,-1242 1690,-1194.27"/>
<polygon fill="black" stroke="black" points="1693.5,-1194.07 1690,-1184.07 1686.5,-1194.07 1693.5,-1194.07"/>
</g>
<!-- Core_Trunc_functor -->
<g id="node38" class="node">
<title>Core_Trunc_functor</title>
<g id="a_node38"><a xlink:href="Core.html#Trunc_functor" xlink:title="Trunc_functor">
<ellipse fill="#f070d1" stroke="black" cx="2176" cy="-704.97" rx="75.29" ry="18"/>
<text text-anchor="middle" x="2176" y="-701.27" font-family="Times,serif" font-size="14.00">Trunc_functor</text>
</a>
</g>
</g>
<!-- Core_Trunc_min&#45;&gt;Core_Trunc_functor -->
<g id="edge6" class="edge">
<title>Core_Trunc_min&#45;&gt;Core_Trunc_functor</title>
<path fill="none" stroke="black" d="M1741.41,-1387.69C1891.16,-1360.29 2323.48,-1256.86 2435,-961.97 2478.06,-848.11 2309.85,-760.71 2223.8,-724.38"/>
<polygon fill="black" stroke="black" points="2225.07,-721.11 2214.49,-720.51 2222.38,-727.58 2225.07,-721.11"/>
</g>
<!-- Core_equiv_tr -->
<g id="node40" class="node">
<title>Core_equiv_tr</title>
<g id="a_node40"><a xlink:href="Core.html#equiv_tr" xlink:title="equiv_tr">
<ellipse fill="#f070d1" stroke="black" cx="1351" cy="-1165.97" rx="48.99" ry="18"/>
<text text-anchor="middle" x="1351" y="-1162.27" font-family="Times,serif" font-size="14.00">equiv_tr</text>
</a>
</g>
</g>
<!-- Core_Trunc_min&#45;&gt;Core_equiv_tr -->
<g id="edge7" class="edge">
<title>Core_Trunc_min&#45;&gt;Core_equiv_tr</title>
<path fill="none" stroke="black" d="M1666.7,-1380.23C1607.14,-1340 1449.32,-1233.39 1382.07,-1187.95"/>
<polygon fill="black" stroke="black" points="1383.82,-1184.91 1373.57,-1182.22 1379.9,-1190.71 1383.82,-1184.91"/>
</g>
<!-- Core_Tr -->
<g id="node43" class="node">
<title>Core_Tr</title>
<g id="a_node43"><a xlink:href="Core.html#Tr" xlink:title="Tr">
<ellipse fill="#f070d1" stroke="black" cx="1752" cy="-494.97" rx="27" ry="18"/>
<text text-anchor="middle" x="1752" y="-491.27" font-family="Times,serif" font-size="14.00">Tr</text>
</a>
</g>
</g>
<!-- Core_O_leq_Tr_leq&#45;&gt;Core_Tr -->
<g id="edge8" class="edge">
<title>Core_O_leq_Tr_leq&#45;&gt;Core_Tr</title>
<path fill="none" stroke="black" d="M1664.45,-1149.19C1602.21,-1108.81 1452.44,-998.62 1517,-909.97 1669.57,-700.45 1919.43,-940.48 2072,-730.97 2157.43,-613.65 1885.88,-530.35 1786.76,-504.47"/>
<polygon fill="black" stroke="black" points="1787.46,-501.03 1776.91,-501.94 1785.72,-507.81 1787.46,-501.03"/>
</g>
<!-- Core_isembedding_paths -->
<g id="node8" class="node">
<title>Core_isembedding_paths</title>
<g id="a_node8"><a xlink:href="Core.html#isembedding_paths" xlink:title="isembedding_paths">
<ellipse fill="#f070d1" stroke="black" cx="2701" cy="-1396.97" rx="100.96" ry="18"/>
<ellipse fill="none" stroke="black" cx="2701" cy="-1396.97" rx="104.97" ry="22"/>
<ellipse fill="none" stroke="black" cx="2701" cy="-1396.97" rx="108.98" ry="26"/>
<text text-anchor="middle" x="2701" y="-1393.27" font-family="Times,serif" font-size="14.00">isembedding_paths</text>
</a>
</g>
</g>
<!-- Core_ap_paths_inverse -->
<g id="node9" class="node">
<title>Core_ap_paths_inverse</title>
<g id="a_node9"><a xlink:href="Core.html#ap_paths_inverse" xlink:title="ap_paths_inverse">
<ellipse fill="#f070d1" stroke="black" cx="2555" cy="-1165.97" rx="90.98" ry="18"/>
<text text-anchor="middle" x="2555" y="-1162.27" font-family="Times,serif" font-size="14.00">ap_paths_inverse</text>
</a>
</g>
</g>
<!-- Core_isembedding_paths&#45;&gt;Core_ap_paths_inverse -->
<g id="edge9" class="edge">
<title>Core_isembedding_paths&#45;&gt;Core_ap_paths_inverse</title>
<path fill="none" stroke="black" d="M2685.1,-1371.02C2657.16,-1327.21 2599.58,-1236.88 2571.34,-1192.59"/>
<polygon fill="black" stroke="black" points="2574.27,-1190.68 2565.94,-1184.12 2568.36,-1194.44 2574.27,-1190.68"/>
</g>
<!-- Core_isequiv_isequiv_compose_embedding -->
<g id="node11" class="node">
<title>Core_isequiv_isequiv_compose_embedding</title>
<g id="a_node11"><a xlink:href="Core.html#isequiv_isequiv_compose_embedding" xlink:title="isequiv_isequiv_compose_embedding">
<ellipse fill="#f070d1" stroke="black" cx="2847" cy="-1165.97" rx="182.77" ry="18"/>
<text text-anchor="middle" x="2847" y="-1162.27" font-family="Times,serif" font-size="14.00">isequiv_isequiv_compose_embedding</text>
</a>
</g>
</g>
<!-- Core_isembedding_paths&#45;&gt;Core_isequiv_isequiv_compose_embedding -->
<g id="edge10" class="edge">
<title>Core_isembedding_paths&#45;&gt;Core_isequiv_isequiv_compose_embedding</title>
<path fill="none" stroke="black" d="M2716.9,-1371.02C2744.84,-1327.21 2802.42,-1236.88 2830.66,-1192.59"/>
<polygon fill="black" stroke="black" points="2833.64,-1194.44 2836.06,-1184.12 2827.73,-1190.68 2833.64,-1194.44"/>
</g>
<!-- Core_isembedding_precompose_surjection_hset -->
<g id="node10" class="node">
<title>Core_isembedding_precompose_surjection_hset</title>
<g id="a_node10"><a xlink:href="Core.html#isembedding_precompose_surjection_hset" xlink:title="isembedding_precompose_surjection_hset">
<ellipse fill="#f070d1" stroke="black" cx="1142" cy="-935.97" rx="206.06" ry="18"/>
<ellipse fill="none" stroke="black" cx="1142" cy="-935.97" rx="210.06" ry="22"/>
<ellipse fill="none" stroke="black" cx="1142" cy="-935.97" rx="214.06" ry="26"/>
<text text-anchor="middle" x="1142" y="-932.27" font-family="Times,serif" font-size="14.00">isembedding_precompose_surjection_hset</text>
</a>
</g>
</g>
<!-- Core_inO_tr_istrunc -->
<g id="node30" class="node">
<title>Core_inO_tr_istrunc</title>
<g id="a_node30"><a xlink:href="Core.html#inO_tr_istrunc" xlink:title="inO_tr_istrunc">
<ellipse fill="#f070d1" stroke="black" cx="1413" cy="-704.97" rx="76.89" ry="18"/>
<text text-anchor="middle" x="1413" y="-701.27" font-family="Times,serif" font-size="14.00">inO_tr_istrunc</text>
</a>
</g>
</g>
<!-- Core_isembedding_precompose_surjection_hset&#45;&gt;Core_inO_tr_istrunc -->
<g id="edge11" class="edge">
<title>Core_isembedding_precompose_surjection_hset&#45;&gt;Core_inO_tr_istrunc</title>
<path fill="none" stroke="black" d="M1171.52,-910.02C1224.39,-865.35 1334.48,-772.32 1385.7,-729.04"/>
<polygon fill="black" stroke="black" points="1388.02,-731.66 1393.4,-722.53 1383.5,-726.31 1388.02,-731.66"/>
</g>
<!-- Core_isequiv_surj_emb -->
<g id="node12" class="node">
<title>Core_isequiv_surj_emb</title>
<g id="a_node12"><a xlink:href="Core.html#isequiv_surj_emb" xlink:title="isequiv_surj_emb">
<ellipse fill="#f070d1" stroke="black" cx="2783" cy="-935.97" rx="90.98" ry="18"/>
<text text-anchor="middle" x="2783" y="-932.27" font-family="Times,serif" font-size="14.00">isequiv_surj_emb</text>
</a>
</g>
</g>
<!-- Core_isequiv_isequiv_compose_embedding&#45;&gt;Core_isequiv_surj_emb -->
<g id="edge12" class="edge">
<title>Core_isequiv_isequiv_compose_embedding&#45;&gt;Core_isequiv_surj_emb</title>
<path fill="none" stroke="black" d="M2842.19,-1147.83C2831.14,-1108.45 2803.85,-1011.26 2790.55,-963.85"/>
<polygon fill="black" stroke="black" points="2793.85,-962.67 2787.78,-953.99 2787.11,-964.57 2793.85,-962.67"/>
</g>
<!-- Core_cancelR_issurjection -->
<g id="node15" class="node">
<title>Core_cancelR_issurjection</title>
<g id="a_node15"><a xlink:href="Core.html#cancelR_issurjection" xlink:title="cancelR_issurjection">
<ellipse fill="#f070d1" stroke="black" cx="2569" cy="-935.97" rx="105.08" ry="18"/>
<text text-anchor="middle" x="2569" y="-932.27" font-family="Times,serif" font-size="14.00">cancelR_issurjection</text>
</a>
</g>
</g>
<!-- Core_isequiv_isequiv_compose_embedding&#45;&gt;Core_cancelR_issurjection -->
<g id="edge13" class="edge">
<title>Core_isequiv_isequiv_compose_embedding&#45;&gt;Core_cancelR_issurjection</title>
<path fill="none" stroke="black" d="M2826.1,-1147.83C2776.86,-1107.44 2653.47,-1006.25 2597.46,-960.31"/>
<polygon fill="black" stroke="black" points="2599.33,-957.32 2589.38,-953.68 2594.89,-962.73 2599.33,-957.32"/>
</g>
<!-- Core_isequiv_surj_emb&#45;&gt;Core_Tr -->
<g id="edge14" class="edge">
<title>Core_isequiv_surj_emb&#45;&gt;Core_Tr</title>
<path fill="none" stroke="black" d="M2734.2,-920.63C2621.31,-886.63 2346.69,-798.88 2280,-730.97 2262.65,-713.3 2277.7,-696.29 2260,-678.97 2123.06,-544.93 1880.93,-508.27 1788.9,-498.94"/>
<polygon fill="black" stroke="black" points="1788.98,-495.43 1778.69,-497.95 1788.31,-502.4 1788.98,-495.43"/>
</g>
<!-- Core_contr_hfiber_emb -->
<g id="node13" class="node">
<title>Core_contr_hfiber_emb</title>
<g id="a_node13"><a xlink:href="Core.html#contr_hfiber_emb" xlink:title="contr_hfiber_emb">
<ellipse fill="#f070d1" stroke="black" cx="847" cy="-1627.97" rx="90.98" ry="18"/>
<ellipse fill="none" stroke="black" cx="847" cy="-1627.97" rx="94.98" ry="22"/>
<ellipse fill="none" stroke="black" cx="847" cy="-1627.97" rx="98.98" ry="26"/>
<text text-anchor="middle" x="847" y="-1624.27" font-family="Times,serif" font-size="14.00">contr_hfiber_emb</text>
</a>
</g>
</g>
<!-- Core_issurj_retr -->
<g id="node14" class="node">
<title>Core_issurj_retr</title>
<g id="a_node14"><a xlink:href="Core.html#issurj_retr" xlink:title="issurj_retr">
<ellipse fill="#f070d1" stroke="black" cx="1996" cy="-704.97" rx="59.27" ry="18"/>
<ellipse fill="none" stroke="black" cx="1996" cy="-704.97" rx="63.28" ry="22"/>
<ellipse fill="none" stroke="black" cx="1996" cy="-704.97" rx="67.29" ry="26"/>
<text text-anchor="middle" x="1996" y="-701.27" font-family="Times,serif" font-size="14.00">issurj_retr</text>
</a>
</g>
</g>
<!-- Core_issurj_retr&#45;&gt;Core_Tr -->
<g id="edge15" class="edge">
<title>Core_issurj_retr&#45;&gt;Core_Tr</title>
<path fill="none" stroke="black" d="M1968.96,-680.91C1920.95,-639.99 1821.6,-555.3 1775.92,-516.36"/>
<polygon fill="black" stroke="black" points="1777.92,-513.47 1768.04,-509.64 1773.38,-518.8 1777.92,-513.47"/>
</g>
<!-- Core_cancelR_issurjection&#45;&gt;Core_Trunc_functor -->
<g id="edge16" class="edge">
<title>Core_cancelR_issurjection&#45;&gt;Core_Trunc_functor</title>
<path fill="none" stroke="black" d="M2540.74,-918.5C2470.8,-877.75 2289.74,-772.24 2212.16,-727.04"/>
<polygon fill="black" stroke="black" points="2213.63,-723.84 2203.22,-721.83 2210.1,-729.89 2213.63,-723.84"/>
</g>
<!-- Core_equiv_merely_issurjection -->
<g id="node16" class="node">
<title>Core_equiv_merely_issurjection</title>
<g id="a_node16"><a xlink:href="Core.html#equiv_merely_issurjection" xlink:title="equiv_merely_issurjection">
<ellipse fill="#f070d1" stroke="black" cx="435" cy="-1165.97" rx="131.09" ry="18"/>
<ellipse fill="none" stroke="black" cx="435" cy="-1165.97" rx="135.08" ry="22"/>
<ellipse fill="none" stroke="black" cx="435" cy="-1165.97" rx="139.08" ry="26"/>
<text text-anchor="middle" x="435" y="-1162.27" font-family="Times,serif" font-size="14.00">equiv_merely_issurjection</text>
</a>
</g>
</g>
<!-- Core_iff_merely_issurjection -->
<g id="node17" class="node">
<title>Core_iff_merely_issurjection</title>
<g id="a_node17"><a xlink:href="Core.html#iff_merely_issurjection" xlink:title="iff_merely_issurjection">
<ellipse fill="#f070d1" stroke="black" cx="435" cy="-935.97" rx="115.08" ry="18"/>
<text text-anchor="middle" x="435" y="-932.27" font-family="Times,serif" font-size="14.00">iff_merely_issurjection</text>
</a>
</g>
</g>
<!-- Core_equiv_merely_issurjection&#45;&gt;Core_iff_merely_issurjection -->
<g id="edge17" class="edge">
<title>Core_equiv_merely_issurjection&#45;&gt;Core_iff_merely_issurjection</title>
<path fill="none" stroke="black" d="M435,-1139.7C435,-1096.42 435,-1008.51 435,-964.04"/>
<polygon fill="black" stroke="black" points="438.5,-963.97 435,-953.97 431.5,-963.97 438.5,-963.97"/>
</g>
<!-- Core_merely -->
<g id="node22" class="node">
<title>Core_merely</title>
<g id="a_node22"><a xlink:href="Core.html#merely" xlink:title="merely">
<ellipse fill="#f070d1" stroke="black" cx="1104" cy="-704.97" rx="42.79" ry="18"/>
<text text-anchor="middle" x="1104" y="-701.27" font-family="Times,serif" font-size="14.00">merely</text>
</a>
</g>
</g>
<!-- Core_iff_merely_issurjection&#45;&gt;Core_merely -->
<g id="edge18" class="edge">
<title>Core_iff_merely_issurjection&#45;&gt;Core_merely</title>
<path fill="none" stroke="black" d="M488.24,-919.89C596.14,-888.78 847.74,-813.44 1052,-730.97 1057.47,-728.76 1063.18,-726.24 1068.73,-723.67"/>
<polygon fill="black" stroke="black" points="1070.3,-726.8 1077.84,-719.35 1067.31,-720.48 1070.3,-726.8"/>
</g>
<!-- Core_BuildIsSurjection -->
<g id="node18" class="node">
<title>Core_BuildIsSurjection</title>
<g id="a_node18"><a xlink:href="Core.html#BuildIsSurjection" xlink:title="BuildIsSurjection">
<ellipse fill="#f070d1" stroke="black" cx="203" cy="-935.97" rx="90.98" ry="18"/>
<ellipse fill="none" stroke="black" cx="203" cy="-935.97" rx="94.98" ry="22"/>
<ellipse fill="none" stroke="black" cx="203" cy="-935.97" rx="98.98" ry="26"/>
<text text-anchor="middle" x="203" y="-932.27" font-family="Times,serif" font-size="14.00">BuildIsSurjection</text>
</a>
</g>
</g>
<!-- Core_BuildIsSurjection&#45;&gt;Core_merely -->
<g id="edge19" class="edge">
<title>Core_BuildIsSurjection&#45;&gt;Core_merely</title>
<path fill="none" stroke="black" d="M275.28,-918.04C473.72,-871.51 1014.73,-744.23 1052,-730.97 1057.68,-728.95 1063.57,-726.49 1069.25,-723.92"/>
<polygon fill="black" stroke="black" points="1070.99,-726.97 1078.54,-719.54 1068,-720.64 1070.99,-726.97"/>
</g>
<!-- Core_himage -->
<g id="node19" class="node">
<title>Core_himage</title>
<g id="a_node19"><a xlink:href="Core.html#himage" xlink:title="himage">
<ellipse fill="#f070d1" stroke="black" cx="1858" cy="-704.97" rx="44.72" ry="18"/>
<ellipse fill="none" stroke="black" cx="1858" cy="-704.97" rx="48.7" ry="22"/>
<ellipse fill="none" stroke="black" cx="1858" cy="-704.97" rx="52.69" ry="26"/>
<text text-anchor="middle" x="1858" y="-701.27" font-family="Times,serif" font-size="14.00">himage</text>
</a>
</g>
</g>
<!-- Core_himage&#45;&gt;Core_Tr -->
<g id="edge20" class="edge">
<title>Core_himage&#45;&gt;Core_Tr</title>
<path fill="none" stroke="black" d="M1845.42,-679.29C1825.16,-639.53 1785.48,-561.67 1764.97,-521.41"/>
<polygon fill="black" stroke="black" points="1767.97,-519.59 1760.31,-512.27 1761.73,-522.77 1767.97,-519.59"/>
</g>
<!-- Core_hor -->
<g id="node20" class="node">
<title>Core_hor</title>
<g id="a_node20"><a xlink:href="Core.html#hor" xlink:title="hor">
<ellipse fill="#f070d1" stroke="black" cx="51" cy="-935.97" rx="27" ry="18"/>
<ellipse fill="none" stroke="black" cx="51" cy="-935.97" rx="31" ry="22"/>
<ellipse fill="none" stroke="black" cx="51" cy="-935.97" rx="35" ry="26"/>
<text text-anchor="middle" x="51" y="-932.27" font-family="Times,serif" font-size="14.00">hor</text>
</a>
</g>
</g>
<!-- Core_hor&#45;&gt;Core_merely -->
<g id="edge21" class="edge">
<title>Core_hor&#45;&gt;Core_merely</title>
<path fill="none" stroke="black" d="M76.84,-918.41C82.64,-915.23 88.89,-912.2 95,-909.97 501.36,-761.27 640.79,-865.66 1052,-730.97 1057.79,-729.07 1063.77,-726.66 1069.52,-724.09"/>
<polygon fill="black" stroke="black" points="1071.34,-727.1 1078.9,-719.68 1068.36,-720.77 1071.34,-727.1"/>
</g>
<!-- Core_hexists -->
<g id="node21" class="node">
<title>Core_hexists</title>
<g id="a_node21"><a xlink:href="Core.html#hexists" xlink:title="hexists">
<ellipse fill="#f070d1" stroke="black" cx="620" cy="-935.97" rx="44.36" ry="18"/>
<ellipse fill="none" stroke="black" cx="620" cy="-935.97" rx="48.38" ry="22"/>
<ellipse fill="none" stroke="black" cx="620" cy="-935.97" rx="52.39" ry="26"/>
<text text-anchor="middle" x="620" y="-932.27" font-family="Times,serif" font-size="14.00">hexists</text>
</a>
</g>
</g>
<!-- Core_hexists&#45;&gt;Core_merely -->
<g id="edge22" class="edge">
<title>Core_hexists&#45;&gt;Core_merely</title>
<path fill="none" stroke="black" d="M657.02,-917.59C731.76,-882.49 905.99,-800.54 1052,-730.97 1057.09,-728.54 1062.45,-725.98 1067.72,-723.45"/>
<polygon fill="black" stroke="black" points="1069.53,-726.46 1077.03,-718.98 1066.5,-720.15 1069.53,-726.46"/>
</g>
<!-- Core_merely&#45;&gt;Core_Tr -->
<g id="edge23" class="edge">
<title>Core_merely&#45;&gt;Core_Tr</title>
<path fill="none" stroke="black" d="M1129.85,-690.6C1138.09,-686.59 1147.32,-682.36 1156,-678.97 1364.18,-597.5 1624.39,-528.37 1717.17,-504.7"/>
<polygon fill="black" stroke="black" points="1718.31,-508.02 1727.14,-502.17 1716.58,-501.24 1718.31,-508.02"/>
</g>
<!-- Core_contr_tr_minus_two -->
<g id="node23" class="node">
<title>Core_contr_tr_minus_two</title>
<g id="a_node23"><a xlink:href="Core.html#contr_tr_minus_two" xlink:title="contr_tr_minus_two">
<ellipse fill="#f070d1" stroke="black" cx="800" cy="-935.97" rx="102.08" ry="18"/>
<ellipse fill="none" stroke="black" cx="800" cy="-935.97" rx="106.08" ry="22"/>
<ellipse fill="none" stroke="black" cx="800" cy="-935.97" rx="110.08" ry="26"/>
<text text-anchor="middle" x="800" y="-932.27" font-family="Times,serif" font-size="14.00">contr_tr_minus_two</text>
</a>
</g>
</g>
<!-- Core_istrunc_inO_tr -->
<g id="node29" class="node">
<title>Core_istrunc_inO_tr</title>
<g id="a_node29"><a xlink:href="Core.html#istrunc_inO_tr" xlink:title="istrunc_inO_tr">
<ellipse fill="#f070d1" stroke="black" cx="1242" cy="-704.97" rx="76.89" ry="18"/>
<text text-anchor="middle" x="1242" y="-701.27" font-family="Times,serif" font-size="14.00">istrunc_inO_tr</text>
</a>
</g>
</g>
<!-- Core_contr_tr_minus_two&#45;&gt;Core_istrunc_inO_tr -->
<g id="edge24" class="edge">
<title>Core_contr_tr_minus_two&#45;&gt;Core_istrunc_inO_tr</title>
<path fill="none" stroke="black" d="M844.4,-911.96C930.93,-867.13 1120.83,-768.75 1202.92,-726.22"/>
<polygon fill="black" stroke="black" points="1204.64,-729.26 1211.91,-721.56 1201.42,-723.05 1204.64,-729.26"/>
</g>
<!-- Core_contr_tr_minus_two&#45;&gt;Core_inO_tr_istrunc -->
<g id="edge25" class="edge">
<title>Core_contr_tr_minus_two&#45;&gt;Core_inO_tr_istrunc</title>
<path fill="none" stroke="black" d="M857.12,-913.63C976.85,-868.9 1252.29,-766 1364.3,-724.16"/>
<polygon fill="black" stroke="black" points="1365.84,-727.32 1373.99,-720.54 1363.39,-720.76 1365.84,-727.32"/>
</g>
<!-- Core_decidable_trunc_decidable -->
<g id="node24" class="node">
<title>Core_decidable_trunc_decidable</title>
<g id="a_node24"><a xlink:href="Core.html#decidable_trunc_decidable" xlink:title="decidable_trunc_decidable">
<ellipse fill="#f070d1" stroke="black" cx="3033" cy="-935.97" rx="133.46" ry="18"/>
<ellipse fill="none" stroke="black" cx="3033" cy="-935.97" rx="137.47" ry="22"/>
<ellipse fill="none" stroke="black" cx="3033" cy="-935.97" rx="141.48" ry="26"/>
<text text-anchor="middle" x="3033" y="-932.27" font-family="Times,serif" font-size="14.00">decidable_trunc_decidable</text>
</a>
</g>
</g>
<!-- Core_trunc_inhabited_iff_inhabited_stable -->
<g id="node26" class="node">
<title>Core_trunc_inhabited_iff_inhabited_stable</title>
<g id="a_node26"><a xlink:href="Core.html#trunc_inhabited_iff_inhabited_stable" xlink:title="trunc_inhabited_iff_inhabited_stable">
<ellipse fill="#f070d1" stroke="black" cx="2468" cy="-704.97" rx="178.97" ry="18"/>
<text text-anchor="middle" x="2468" y="-701.27" font-family="Times,serif" font-size="14.00">trunc_inhabited_iff_inhabited_stable</text>
</a>
</g>
</g>
<!-- Core_decidable_trunc_decidable&#45;&gt;Core_trunc_inhabited_iff_inhabited_stable -->
<g id="edge26" class="edge">
<title>Core_decidable_trunc_decidable&#45;&gt;Core_trunc_inhabited_iff_inhabited_stable</title>
<path fill="none" stroke="black" d="M2976.5,-912.07C2866.19,-867.36 2623.79,-769.11 2518.49,-726.43"/>
<polygon fill="black" stroke="black" points="2519.62,-723.11 2509.03,-722.6 2516.99,-729.6 2519.62,-723.11"/>
</g>
<!-- Core_merely_inhabited_iff_inhabited_stable -->
<g id="node25" class="node">
<title>Core_merely_inhabited_iff_inhabited_stable</title>
<g id="a_node25"><a xlink:href="Core.html#merely_inhabited_iff_inhabited_stable" xlink:title="merely_inhabited_iff_inhabited_stable">
<ellipse fill="#f070d1" stroke="black" cx="3386" cy="-935.97" rx="185.77" ry="18"/>
<ellipse fill="none" stroke="black" cx="3386" cy="-935.97" rx="189.77" ry="22"/>
<ellipse fill="none" stroke="black" cx="3386" cy="-935.97" rx="193.77" ry="26"/>
<text text-anchor="middle" x="3386" y="-932.27" font-family="Times,serif" font-size="14.00">merely_inhabited_iff_inhabited_stable</text>
</a>
</g>
</g>
<!-- Core_merely_inhabited_iff_inhabited_stable&#45;&gt;Core_trunc_inhabited_iff_inhabited_stable -->
<g id="edge27" class="edge">
<title>Core_merely_inhabited_iff_inhabited_stable&#45;&gt;Core_trunc_inhabited_iff_inhabited_stable</title>
<path fill="none" stroke="black" d="M3297.14,-912.8C3116.35,-867.7 2708.7,-766.01 2541.58,-724.32"/>
<polygon fill="black" stroke="black" points="2542.19,-720.87 2531.64,-721.84 2540.5,-727.66 2542.19,-720.87"/>
</g>
<!-- Core_trunc_inhabited_iff_inhabited_stable&#45;&gt;Core_Tr -->
<g id="edge28" class="edge">
<title>Core_trunc_inhabited_iff_inhabited_stable&#45;&gt;Core_Tr</title>
<path fill="none" stroke="black" d="M2412.41,-687.82C2270.96,-646.73 1900.47,-539.1 1786.12,-505.88"/>
<polygon fill="black" stroke="black" points="1787.05,-502.51 1776.48,-503.08 1785.1,-509.23 1787.05,-502.51"/>
</g>
<!-- Core_istruncmap_mapinO_tr -->
<g id="node27" class="node">
<title>Core_istruncmap_mapinO_tr</title>
<g id="a_node27"><a xlink:href="Core.html#istruncmap_mapinO_tr" xlink:title="istruncmap_mapinO_tr">
<ellipse fill="#f070d1" stroke="black" cx="919" cy="-704.97" rx="116.19" ry="18"/>
<ellipse fill="none" stroke="black" cx="919" cy="-704.97" rx="120.18" ry="22"/>
<ellipse fill="none" stroke="black" cx="919" cy="-704.97" rx="124.18" ry="26"/>
<text text-anchor="middle" x="919" y="-701.27" font-family="Times,serif" font-size="14.00">istruncmap_mapinO_tr</text>
</a>
</g>
</g>
<!-- Core_istruncmap_mapinO_tr&#45;&gt;Core_Tr -->
<g id="edge29" class="edge">
<title>Core_istruncmap_mapinO_tr&#45;&gt;Core_Tr</title>
<path fill="none" stroke="black" d="M996.62,-684.59C1172.02,-640.79 1593.35,-535.58 1717.2,-504.66"/>
<polygon fill="black" stroke="black" points="1718.08,-508.05 1726.93,-502.23 1716.38,-501.25 1718.08,-508.05"/>
</g>
<!-- Core_mapinO_tr_istruncmap -->
<g id="node28" class="node">
<title>Core_mapinO_tr_istruncmap</title>
<g id="a_node28"><a xlink:href="Core.html#mapinO_tr_istruncmap" xlink:title="mapinO_tr_istruncmap">
<ellipse fill="#f070d1" stroke="black" cx="652" cy="-704.97" rx="116.19" ry="18"/>
<ellipse fill="none" stroke="black" cx="652" cy="-704.97" rx="120.18" ry="22"/>
<ellipse fill="none" stroke="black" cx="652" cy="-704.97" rx="124.18" ry="26"/>
<text text-anchor="middle" x="652" y="-701.27" font-family="Times,serif" font-size="14.00">mapinO_tr_istruncmap</text>
</a>
</g>
</g>
<!-- Core_mapinO_tr_istruncmap&#45;&gt;Core_Tr -->
<g id="edge30" class="edge">
<title>Core_mapinO_tr_istruncmap&#45;&gt;Core_Tr</title>
<path fill="none" stroke="black" d="M742.02,-686.95C970.26,-643.79 1564.25,-531.47 1716.19,-502.74"/>
<polygon fill="black" stroke="black" points="1717.18,-506.11 1726.36,-500.82 1715.88,-499.24 1717.18,-506.11"/>
</g>
<!-- Core_istrunc_inO_tr&#45;&gt;Core_Tr -->
<g id="edge31" class="edge">
<title>Core_istrunc_inO_tr&#45;&gt;Core_Tr</title>
<path fill="none" stroke="black" d="M1278.68,-689.01C1374.33,-650 1630.19,-545.65 1720.17,-508.95"/>
<polygon fill="black" stroke="black" points="1721.63,-512.13 1729.57,-505.12 1718.99,-505.65 1721.63,-512.13"/>
</g>
<!-- Core_inO_tr_istrunc&#45;&gt;Core_Tr -->
<g id="edge32" class="edge">
<title>Core_inO_tr_istrunc&#45;&gt;Core_Tr</title>
<path fill="none" stroke="black" d="M1439.04,-687.99C1501.55,-649.64 1659.67,-552.62 1724.06,-513.11"/>
<polygon fill="black" stroke="black" points="1726.17,-515.92 1732.86,-507.71 1722.51,-509.96 1726.17,-515.92"/>
</g>
<!-- Core_is1functor_Tr -->
<g id="node31" class="node">
<title>Core_is1functor_Tr</title>
<g id="a_node31"><a xlink:href="Core.html#is1functor_Tr" xlink:title="is1functor_Tr">
<ellipse fill="#f070d1" stroke="black" cx="2142" cy="-1165.97" rx="72.61" ry="18"/>
<ellipse fill="none" stroke="black" cx="2142" cy="-1165.97" rx="76.6" ry="22"/>
<ellipse fill="none" stroke="black" cx="2142" cy="-1165.97" rx="80.59" ry="26"/>
<text text-anchor="middle" x="2142" y="-1162.27" font-family="Times,serif" font-size="14.00">is1functor_Tr</text>
</a>
</g>
</g>
<!-- Core_Trunc_functor_idmap -->
<g id="node33" class="node">
<title>Core_Trunc_functor_idmap</title>
<g id="a_node33"><a xlink:href="Core.html#Trunc_functor_idmap" xlink:title="Trunc_functor_idmap">
<ellipse fill="#f070d1" stroke="black" cx="1895" cy="-935.97" rx="108.58" ry="18"/>
<text text-anchor="middle" x="1895" y="-932.27" font-family="Times,serif" font-size="14.00">Trunc_functor_idmap</text>
</a>
</g>
</g>
<!-- Core_is1functor_Tr&#45;&gt;Core_Trunc_functor_idmap -->
<g id="edge33" class="edge">
<title>Core_is1functor_Tr&#45;&gt;Core_Trunc_functor_idmap</title>
<path fill="none" stroke="black" d="M2116.03,-1141C2068.52,-1097.14 1968.11,-1004.45 1920.75,-960.74"/>
<polygon fill="black" stroke="black" points="1923.08,-958.12 1913.35,-953.91 1918.33,-963.26 1923.08,-958.12"/>
</g>
<!-- Core_Trunc_functor_compose -->
<g id="node34" class="node">
<title>Core_Trunc_functor_compose</title>
<g id="a_node34"><a xlink:href="Core.html#Trunc_functor_compose" xlink:title="Trunc_functor_compose">
<ellipse fill="#f070d1" stroke="black" cx="2142" cy="-935.97" rx="120.48" ry="18"/>
<text text-anchor="middle" x="2142" y="-932.27" font-family="Times,serif" font-size="14.00">Trunc_functor_compose</text>
</a>
</g>
</g>
<!-- Core_is1functor_Tr&#45;&gt;Core_Trunc_functor_compose -->
<g id="edge34" class="edge">
<title>Core_is1functor_Tr&#45;&gt;Core_Trunc_functor_compose</title>
<path fill="none" stroke="black" d="M2142,-1139.7C2142,-1096.42 2142,-1008.51 2142,-964.04"/>
<polygon fill="black" stroke="black" points="2145.5,-963.97 2142,-953.97 2138.5,-963.97 2145.5,-963.97"/>
</g>
<!-- Core_is0functor_Tr -->
<g id="node37" class="node">
<title>Core_is0functor_Tr</title>
<g id="a_node37"><a xlink:href="Core.html#is0functor_Tr" xlink:title="is0functor_Tr">
<ellipse fill="#f070d1" stroke="black" cx="2353" cy="-935.97" rx="72.59" ry="18"/>
<text text-anchor="middle" x="2353" y="-932.27" font-family="Times,serif" font-size="14.00">is0functor_Tr</text>
</a>
</g>
</g>
<!-- Core_is1functor_Tr&#45;&gt;Core_is0functor_Tr -->
<g id="edge35" class="edge">
<title>Core_is1functor_Tr&#45;&gt;Core_is0functor_Tr</title>
<path fill="none" stroke="black" d="M2164.58,-1140.57C2205.2,-1096.68 2290.12,-1004.92 2330.6,-961.17"/>
<polygon fill="black" stroke="black" points="2333.17,-963.55 2337.39,-953.83 2328.03,-958.79 2333.17,-963.55"/>
</g>
<!-- Core_equiv_Trunc_prod_cmp -->
<g id="node32" class="node">
<title>Core_equiv_Trunc_prod_cmp</title>
<g id="a_node32"><a xlink:href="Core.html#equiv_Trunc_prod_cmp" xlink:title="equiv_Trunc_prod_cmp">
<ellipse fill="#f070d1" stroke="black" cx="385" cy="-704.97" rx="116.98" ry="18"/>
<ellipse fill="none" stroke="black" cx="385" cy="-704.97" rx="120.98" ry="22"/>
<ellipse fill="none" stroke="black" cx="385" cy="-704.97" rx="124.98" ry="26"/>
<text text-anchor="middle" x="385" y="-701.27" font-family="Times,serif" font-size="14.00">equiv_Trunc_prod_cmp</text>
</a>
</g>
</g>
<!-- Core_equiv_Trunc_prod_cmp&#45;&gt;Core_Tr -->
<g id="edge36" class="edge">
<title>Core_equiv_Trunc_prod_cmp&#45;&gt;Core_Tr</title>
<path fill="none" stroke="black" d="M474.66,-686.77C489.45,-684.06 504.65,-681.37 519,-678.97 990.58,-600.01 1566.6,-521.03 1715.5,-500.88"/>
<polygon fill="black" stroke="black" points="1716.04,-504.34 1725.48,-499.53 1715.1,-497.4 1716.04,-504.34"/>
</g>
<!-- Core_Trunc_functor_idmap&#45;&gt;Core_Trunc_functor -->
<g id="edge37" class="edge">
<title>Core_Trunc_functor_idmap&#45;&gt;Core_Trunc_functor</title>
<path fill="none" stroke="black" d="M1915.66,-918.13C1965.31,-877.67 2091.39,-774.92 2147.87,-728.89"/>
<polygon fill="black" stroke="black" points="2150.15,-731.55 2155.69,-722.52 2145.72,-726.13 2150.15,-731.55"/>
</g>
<!-- Core_Trunc_functor_compose&#45;&gt;Core_Trunc_functor -->
<g id="edge38" class="edge">
<title>Core_Trunc_functor_compose&#45;&gt;Core_Trunc_functor</title>
<path fill="none" stroke="black" d="M2144.56,-917.76C2150.43,-878.2 2164.92,-780.59 2171.99,-732.97"/>
<polygon fill="black" stroke="black" points="2175.45,-733.47 2173.46,-723.07 2168.53,-732.45 2175.45,-733.47"/>
</g>
<!-- Core_Trunc_functor_equiv -->
<g id="node35" class="node">
<title>Core_Trunc_functor_equiv</title>
<g id="a_node35"><a xlink:href="Core.html#Trunc_functor_equiv" xlink:title="Trunc_functor_equiv">
<ellipse fill="#f070d1" stroke="black" cx="129" cy="-704.97" rx="105.1" ry="18"/>
<ellipse fill="none" stroke="black" cx="129" cy="-704.97" rx="109.09" ry="22"/>
<ellipse fill="none" stroke="black" cx="129" cy="-704.97" rx="113.08" ry="26"/>
<text text-anchor="middle" x="129" y="-701.27" font-family="Times,serif" font-size="14.00">Trunc_functor_equiv</text>
</a>
</g>
</g>
<!-- Core_Trunc_functor_equiv&#45;&gt;Core_Tr -->
<g id="edge39" class="edge">
<title>Core_Trunc_functor_equiv&#45;&gt;Core_Tr</title>
<path fill="none" stroke="black" d="M209.22,-686.57C223.12,-683.83 237.45,-681.18 251,-678.97 831.87,-584.2 1546.52,-515.07 1715.14,-499.35"/>
<polygon fill="black" stroke="black" points="1715.6,-502.83 1725.23,-498.42 1714.95,-495.86 1715.6,-502.83"/>
</g>
<!-- Core_Trunc_functor_isequiv -->
<g id="node36" class="node">
<title>Core_Trunc_functor_isequiv</title>
<g id="a_node36"><a xlink:href="Core.html#Trunc_functor_isequiv" xlink:title="Trunc_functor_isequiv">
<ellipse fill="#f070d1" stroke="black" cx="1647" cy="-935.97" rx="113.17" ry="18"/>
<ellipse fill="none" stroke="black" cx="1647" cy="-935.97" rx="117.18" ry="22"/>
<ellipse fill="none" stroke="black" cx="1647" cy="-935.97" rx="121.18" ry="26"/>
<text text-anchor="middle" x="1647" y="-932.27" font-family="Times,serif" font-size="14.00">Trunc_functor_isequiv</text>
</a>
</g>
</g>
<!-- Core_Trunc_functor_isequiv&#45;&gt;Core_Trunc_functor -->
<g id="edge40" class="edge">
<title>Core_Trunc_functor_isequiv&#45;&gt;Core_Trunc_functor</title>
<path fill="none" stroke="black" d="M1699.17,-912.38C1803.23,-867.34 2034.9,-767.05 2131.92,-725.05"/>
<polygon fill="black" stroke="black" points="2133.37,-728.24 2141.16,-721.05 2130.59,-721.81 2133.37,-728.24"/>
</g>
<!-- Core_is0functor_Tr&#45;&gt;Core_Trunc_functor -->
<g id="edge41" class="edge">
<title>Core_is0functor_Tr&#45;&gt;Core_Trunc_functor</title>
<path fill="none" stroke="black" d="M2339.98,-918.13C2309.17,-878.26 2231.62,-777.93 2195.31,-730.96"/>
<polygon fill="black" stroke="black" points="2197.92,-728.6 2189.03,-722.83 2192.38,-732.88 2197.92,-728.6"/>
</g>
<!-- Core_Trunc_functor&#45;&gt;Core_Tr -->
<g id="edge42" class="edge">
<title>Core_Trunc_functor&#45;&gt;Core_Tr</title>
<path fill="none" stroke="black" d="M2144.48,-688.5C2065.52,-649.77 1860.05,-548.97 1782.35,-510.86"/>
<polygon fill="black" stroke="black" points="1783.63,-507.58 1773.11,-506.32 1780.54,-513.87 1783.63,-507.58"/>
</g>
<!-- Core_untrunc_istrunc -->
<g id="node39" class="node">
<title>Core_untrunc_istrunc</title>
<g id="a_node39"><a xlink:href="Core.html#untrunc_istrunc" xlink:title="untrunc_istrunc">
<ellipse fill="#f070d1" stroke="black" cx="1510" cy="-1165.97" rx="84.49" ry="18"/>
<ellipse fill="none" stroke="black" cx="1510" cy="-1165.97" rx="88.49" ry="22"/>
<ellipse fill="none" stroke="black" cx="1510" cy="-1165.97" rx="92.49" ry="26"/>
<text text-anchor="middle" x="1510" y="-1162.27" font-family="Times,serif" font-size="14.00">untrunc_istrunc</text>
</a>
</g>
</g>
<!-- Core_isequiv_tr -->
<g id="node41" class="node">
<title>Core_isequiv_tr</title>
<g id="a_node41"><a xlink:href="Core.html#isequiv_tr" xlink:title="isequiv_tr">
<ellipse fill="#f070d1" stroke="black" cx="1431" cy="-935.97" rx="56.59" ry="18"/>
<text text-anchor="middle" x="1431" y="-932.27" font-family="Times,serif" font-size="14.00">isequiv_tr</text>
</a>
</g>
</g>
<!-- Core_untrunc_istrunc&#45;&gt;Core_isequiv_tr -->
<g id="edge43" class="edge">
<title>Core_untrunc_istrunc&#45;&gt;Core_isequiv_tr</title>
<path fill="none" stroke="black" d="M1501.24,-1139.7C1486.19,-1096.24 1455.53,-1007.77 1440.18,-963.48"/>
<polygon fill="black" stroke="black" points="1443.47,-962.27 1436.89,-953.97 1436.86,-964.57 1443.47,-962.27"/>
</g>
<!-- Core_equiv_tr&#45;&gt;Core_isequiv_tr -->
<g id="edge44" class="edge">
<title>Core_equiv_tr&#45;&gt;Core_isequiv_tr</title>
<path fill="none" stroke="black" d="M1357.01,-1147.83C1370.86,-1108.37 1405.07,-1010.85 1421.67,-963.55"/>
<polygon fill="black" stroke="black" points="1425.02,-964.59 1425.03,-953.99 1418.41,-962.27 1425.02,-964.59"/>
</g>
<!-- Core_trunc_iff_isequiv_truncation -->
<g id="node42" class="node">
<title>Core_trunc_iff_isequiv_truncation</title>
<g id="a_node42"><a xlink:href="Core.html#trunc_iff_isequiv_truncation" xlink:title="trunc_iff_isequiv_truncation">
<ellipse fill="#f070d1" stroke="black" cx="1647" cy="-704.97" rx="139.98" ry="18"/>
<text text-anchor="middle" x="1647" y="-701.27" font-family="Times,serif" font-size="14.00">trunc_iff_isequiv_truncation</text>
</a>
</g>
</g>
<!-- Core_isequiv_tr&#45;&gt;Core_trunc_iff_isequiv_truncation -->
<g id="edge45" class="edge">
<title>Core_isequiv_tr&#45;&gt;Core_trunc_iff_isequiv_truncation</title>
<path fill="none" stroke="black" d="M1446.53,-918.5C1484.1,-878.67 1580.02,-776.97 1624.15,-730.19"/>
<polygon fill="black" stroke="black" points="1626.71,-732.58 1631.02,-722.91 1621.62,-727.78 1626.71,-732.58"/>
</g>
<!-- Core_trunc_iff_isequiv_truncation&#45;&gt;Core_Tr -->
<g id="edge46" class="edge">
<title>Core_trunc_iff_isequiv_truncation&#45;&gt;Core_Tr</title>
<path fill="none" stroke="black" d="M1655.59,-686.95C1674.03,-650.41 1717.49,-564.33 1739.2,-521.33"/>
<polygon fill="black" stroke="black" points="1742.35,-522.86 1743.73,-512.36 1736.1,-519.71 1742.35,-522.86"/>
</g>
<!-- Core_Tr&#45;&gt;Core_Trunc_Trunc_ind -->
<g id="edge47" class="edge">
<title>Core_Tr&#45;&gt;Core_Trunc_Trunc_ind</title>
<path fill="none" stroke="black" d="M1775.66,-485.73C1831.75,-465.77 1976.46,-411.73 2088,-347.97 2101.04,-340.52 2114.59,-331.01 2126,-322.42"/>
<polygon fill="black" stroke="black" points="2128.46,-324.95 2134.26,-316.09 2124.2,-319.39 2128.46,-324.95"/>
</g>
<!-- Core_Tr&#45;&gt;Core_Trunc_istrunc_truncation -->
<g id="edge48" class="edge">
<title>Core_Tr&#45;&gt;Core_Trunc_istrunc_truncation</title>
<path fill="none" stroke="black" d="M1768.24,-480.33C1807.17,-447.63 1906.18,-364.49 1954.96,-323.52"/>
<polygon fill="black" stroke="black" points="1957.5,-325.96 1962.9,-316.85 1952.99,-320.6 1957.5,-325.96"/>
</g>
<!-- Core_Trunc_rec_tr -->
<g id="node44" class="node">
<title>Core_Trunc_rec_tr</title>
<g id="a_node44"><a xlink:href="Core.html#Trunc_rec_tr" xlink:title="Trunc_rec_tr">
<ellipse fill="#f070d1" stroke="black" cx="2742" cy="-704.97" rx="69.58" ry="18"/>
<ellipse fill="none" stroke="black" cx="2742" cy="-704.97" rx="73.59" ry="22"/>
<ellipse fill="none" stroke="black" cx="2742" cy="-704.97" rx="77.59" ry="26"/>
<text text-anchor="middle" x="2742" y="-701.27" font-family="Times,serif" font-size="14.00">Trunc_rec_tr</text>
</a>
</g>
</g>
<!-- Core_Trunc_rec_tr&#45;&gt;Core_Trunc_istrunc_truncation -->
<g id="edge49" class="edge">
<title>Core_Trunc_rec_tr&#45;&gt;Core_Trunc_istrunc_truncation</title>
<path fill="none" stroke="black" d="M2702,-682.67C2570.47,-612.67 2152.41,-390.14 2022.14,-320.8"/>
<polygon fill="black" stroke="black" points="2023.74,-317.69 2013.27,-316.08 2020.45,-323.87 2023.74,-317.69"/>
</g>
<!-- Core_Trunc_rec -->
<g id="node45" class="node">
<title>Core_Trunc_rec</title>
<g id="a_node45"><a xlink:href="Core.html#Trunc_rec" xlink:title="Trunc_rec">
<ellipse fill="#f070d1" stroke="black" cx="2616" cy="-494.97" rx="56.59" ry="18"/>
<text text-anchor="middle" x="2616" y="-491.27" font-family="Times,serif" font-size="14.00">Trunc_rec</text>
</a>
</g>
</g>
<!-- Core_Trunc_rec_tr&#45;&gt;Core_Trunc_rec -->
<g id="edge50" class="edge">
<title>Core_Trunc_rec_tr&#45;&gt;Core_Trunc_rec</title>
<path fill="none" stroke="black" d="M2727.05,-679.29C2702.98,-639.56 2655.87,-561.79 2631.47,-521.51"/>
<polygon fill="black" stroke="black" points="2634.38,-519.56 2626.21,-512.82 2628.39,-523.18 2634.38,-519.56"/>
</g>
<!-- Core_Trunc_rec&#45;&gt;Core_Trunc_Trunc_ind -->
<g id="edge51" class="edge">
<title>Core_Trunc_rec&#45;&gt;Core_Trunc_Trunc_ind</title>
<path fill="none" stroke="black" d="M2583.14,-480.17C2501.1,-445.72 2287.29,-355.94 2196.15,-317.67"/>
<polygon fill="black" stroke="black" points="2197.26,-314.34 2186.69,-313.69 2194.55,-320.79 2197.26,-314.34"/>
</g>
</g>
</svg>
