<?xml version="1.0" encoding="UTF-8" standalone="no"?>
<!DOCTYPE svg PUBLIC "-//W3C//DTD SVG 1.1//EN"
 "http://www.w3.org/Graphics/SVG/1.1/DTD/svg11.dtd">
<!-- Generated by graphviz version 2.43.0 (0)
 -->
<!-- Title: HoTT_Algebra_AbGroups_FreeAbelianGroup Pages: 1 -->
<svg width="1094pt" height="551pt"
 viewBox="0.00 0.00 1094.00 551.00" xmlns="http://www.w3.org/2000/svg" xmlns:xlink="http://www.w3.org/1999/xlink">
<g id="graph0" class="graph" transform="scale(1 1) rotate(0) translate(4 547)">
<title>HoTT_Algebra_AbGroups_FreeAbelianGroup</title>
<polygon fill="white" stroke="transparent" points="-4,4 -4,-547 1090,-547 1090,4 -4,4"/>
<g id="clust1" class="cluster">
<title>cluster_FreeAbelianGroup</title>
<polygon fill="#ffffc3" stroke="black" points="8,-12.81 8,-530.19 1078,-530.19 1078,-12.81 8,-12.81"/>
<text text-anchor="middle" x="81.5" y="-514.99" font-family="Times,serif" font-size="14.00">FreeAbelianGroup</text>
</g>
<!-- FreeAbelianGroup_isfreeabgroup_freeabgroup -->
<g id="node1" class="node">
<title>FreeAbelianGroup_isfreeabgroup_freeabgroup</title>
<g id="a_node1"><a xlink:href="FreeAbelianGroup.html#isfreeabgroup_freeabgroup" xlink:title="isfreeabgroup_freeabgroup">
<ellipse fill="#f070d1" stroke="black" cx="669" cy="-438.81" rx="137.27" ry="18"/>
<ellipse fill="none" stroke="black" cx="669" cy="-438.81" rx="141.27" ry="22"/>
<ellipse fill="none" stroke="black" cx="669" cy="-438.81" rx="145.28" ry="26"/>
<text text-anchor="middle" x="669" y="-435.11" font-family="Times,serif" font-size="14.00">isfreeabgroup_freeabgroup</text>
</a>
</g>
</g>
<!-- FreeAbelianGroup_isfreeabgroupon_isabelianization_isfreegroup -->
<g id="node2" class="node">
<title>FreeAbelianGroup_isfreeabgroupon_isabelianization_isfreegroup</title>
<g id="a_node2"><a xlink:href="FreeAbelianGroup.html#isfreeabgroupon_isabelianization_isfreegroup" xlink:title="isfreeabgroupon_isabelianization_isfreegroup">
<ellipse fill="#f070d1" stroke="black" cx="418" cy="-297.81" rx="221.76" ry="18"/>
<text text-anchor="middle" x="418" y="-294.11" font-family="Times,serif" font-size="14.00">isfreeabgroupon_isabelianization_isfreegroup</text>
</a>
</g>
</g>
<!-- FreeAbelianGroup_isfreeabgroup_freeabgroup&#45;&gt;FreeAbelianGroup_isfreeabgroupon_isabelianization_isfreegroup -->
<g id="edge1" class="edge">
<title>FreeAbelianGroup_isfreeabgroup_freeabgroup&#45;&gt;FreeAbelianGroup_isfreeabgroupon_isabelianization_isfreegroup</title>
<path fill="none" stroke="black" d="M625.85,-413.92C578.55,-387.72 503.29,-346.05 457.49,-320.68"/>
<polygon fill="black" stroke="black" points="459.18,-317.62 448.74,-315.84 455.79,-323.74 459.18,-317.62"/>
</g>
<!-- FreeAbelianGroup_FreeAbGroup -->
<g id="node4" class="node">
<title>FreeAbelianGroup_FreeAbGroup</title>
<g id="a_node4"><a xlink:href="FreeAbelianGroup.html#FreeAbGroup" xlink:title="FreeAbGroup">
<ellipse fill="#f070d1" stroke="black" cx="731" cy="-297.81" rx="73.39" ry="18"/>
<text text-anchor="middle" x="731" y="-294.11" font-family="Times,serif" font-size="14.00">FreeAbGroup</text>
</a>
</g>
</g>
<!-- FreeAbelianGroup_isfreeabgroup_freeabgroup&#45;&gt;FreeAbelianGroup_FreeAbGroup -->
<g id="edge2" class="edge">
<title>FreeAbelianGroup_isfreeabgroup_freeabgroup&#45;&gt;FreeAbelianGroup_FreeAbGroup</title>
<path fill="none" stroke="black" d="M680.23,-412.64C691.26,-387.92 708.02,-350.34 719.23,-325.21"/>
<polygon fill="black" stroke="black" points="722.5,-326.47 723.37,-315.91 716.1,-323.62 722.5,-326.47"/>
</g>
<!-- FreeAbelianGroup_IsFreeAbGroup -->
<g id="node7" class="node">
<title>FreeAbelianGroup_IsFreeAbGroup</title>
<g id="a_node7"><a xlink:href="FreeAbelianGroup.html#IsFreeAbGroup" xlink:title="IsFreeAbGroup">
<ellipse fill="#f070d1" stroke="black" cx="97" cy="-297.81" rx="81.49" ry="18"/>
<text text-anchor="middle" x="97" y="-294.11" font-family="Times,serif" font-size="14.00">IsFreeAbGroup</text>
</a>
</g>
</g>
<!-- FreeAbelianGroup_isfreeabgroup_freeabgroup&#45;&gt;FreeAbelianGroup_IsFreeAbGroup -->
<g id="edge3" class="edge">
<title>FreeAbelianGroup_isfreeabgroup_freeabgroup&#45;&gt;FreeAbelianGroup_IsFreeAbGroup</title>
<path fill="none" stroke="black" d="M580.79,-418.03C483.95,-396.06 324,-359.03 187,-323.81 176.54,-321.13 165.43,-318.14 154.71,-315.2"/>
<polygon fill="black" stroke="black" points="155.59,-311.81 145.02,-312.52 153.72,-318.56 155.59,-311.81"/>
</g>
<!-- FreeAbelianGroup_IsFreeAbGroupOn -->
<g id="node9" class="node">
<title>FreeAbelianGroup_IsFreeAbGroupOn</title>
<g id="a_node9"><a xlink:href="FreeAbelianGroup.html#IsFreeAbGroupOn" xlink:title="IsFreeAbGroupOn">
<ellipse fill="#f070d1" stroke="black" cx="418" cy="-169.81" rx="94.78" ry="18"/>
<text text-anchor="middle" x="418" y="-166.11" font-family="Times,serif" font-size="14.00">IsFreeAbGroupOn</text>
</a>
</g>
</g>
<!-- FreeAbelianGroup_isfreeabgroupon_isabelianization_isfreegroup&#45;&gt;FreeAbelianGroup_IsFreeAbGroupOn -->
<g id="edge4" class="edge">
<title>FreeAbelianGroup_isfreeabgroupon_isabelianization_isfreegroup&#45;&gt;FreeAbelianGroup_IsFreeAbGroupOn</title>
<path fill="none" stroke="black" d="M418,-279.56C418,-258.54 418,-222.78 418,-198.04"/>
<polygon fill="black" stroke="black" points="421.5,-197.86 418,-187.86 414.5,-197.86 421.5,-197.86"/>
</g>
<!-- FreeAbelianGroup_freeabgroup_in -->
<g id="node3" class="node">
<title>FreeAbelianGroup_freeabgroup_in</title>
<g id="a_node3"><a xlink:href="FreeAbelianGroup.html#freeabgroup_in" xlink:title="freeabgroup_in">
<ellipse fill="#f070d1" stroke="black" cx="921" cy="-438.81" rx="81.46" ry="18"/>
<ellipse fill="none" stroke="black" cx="921" cy="-438.81" rx="85.48" ry="22"/>
<ellipse fill="none" stroke="black" cx="921" cy="-438.81" rx="89.49" ry="26"/>
<text text-anchor="middle" x="921" y="-435.11" font-family="Times,serif" font-size="14.00">freeabgroup_in</text>
</a>
</g>
</g>
<!-- FreeAbelianGroup_freeabgroup_in&#45;&gt;FreeAbelianGroup_FreeAbGroup -->
<g id="edge5" class="edge">
<title>FreeAbelianGroup_freeabgroup_in&#45;&gt;FreeAbelianGroup_FreeAbGroup</title>
<path fill="none" stroke="black" d="M888.77,-414.23C853.24,-388.24 796.51,-346.74 761.64,-321.23"/>
<polygon fill="black" stroke="black" points="763.4,-318.18 753.27,-315.1 759.27,-323.83 763.4,-318.18"/>
</g>
<!-- FreeAbelianGroup_isfreeabgroup_isfreeabgroupon -->
<g id="node5" class="node">
<title>FreeAbelianGroup_isfreeabgroup_isfreeabgroupon</title>
<g id="a_node5"><a xlink:href="FreeAbelianGroup.html#isfreeabgroup_isfreeabgroupon" xlink:title="isfreeabgroup_isfreeabgroupon">
<ellipse fill="#f070d1" stroke="black" cx="342" cy="-438.81" rx="155.97" ry="18"/>
<ellipse fill="none" stroke="black" cx="342" cy="-438.81" rx="159.97" ry="22"/>
<ellipse fill="none" stroke="black" cx="342" cy="-438.81" rx="163.97" ry="26"/>
<text text-anchor="middle" x="342" y="-435.11" font-family="Times,serif" font-size="14.00">isfreeabgroup_isfreeabgroupon</text>
</a>
</g>
</g>
<!-- FreeAbelianGroup_isfreeabgroup_isfreeabgroupon&#45;&gt;FreeAbelianGroup_IsFreeAbGroup -->
<g id="edge6" class="edge">
<title>FreeAbelianGroup_isfreeabgroup_isfreeabgroupon&#45;&gt;FreeAbelianGroup_IsFreeAbGroup</title>
<path fill="none" stroke="black" d="M299.32,-413.6C252.51,-387.04 178.14,-344.85 133.8,-319.69"/>
<polygon fill="black" stroke="black" points="135.51,-316.64 125.08,-314.75 132.05,-322.73 135.51,-316.64"/>
</g>
<!-- FreeAbelianGroup_isfreegroup -->
<g id="node6" class="node">
<title>FreeAbelianGroup_isfreegroup</title>
<g id="a_node6"><a xlink:href="FreeAbelianGroup.html#isfreegroup" xlink:title="isfreegroup">
<ellipse fill="#f070d1" stroke="black" cx="88" cy="-438.81" rx="64.21" ry="18"/>
<ellipse fill="none" stroke="black" cx="88" cy="-438.81" rx="68.2" ry="22"/>
<ellipse fill="none" stroke="black" cx="88" cy="-438.81" rx="72.19" ry="26"/>
<text text-anchor="middle" x="88" y="-435.11" font-family="Times,serif" font-size="14.00">isfreegroup</text>
</a>
</g>
</g>
<!-- FreeAbelianGroup_isfreegroup&#45;&gt;FreeAbelianGroup_IsFreeAbGroup -->
<g id="edge7" class="edge">
<title>FreeAbelianGroup_isfreegroup&#45;&gt;FreeAbelianGroup_IsFreeAbGroup</title>
<path fill="none" stroke="black" d="M89.63,-412.64C91.21,-388.24 93.6,-351.34 95.23,-326.21"/>
<polygon fill="black" stroke="black" points="98.74,-326.12 95.89,-315.91 91.75,-325.66 98.74,-326.12"/>
</g>
<!-- FreeAbelianGroup_IsFreeAbGroup&#45;&gt;FreeAbelianGroup_IsFreeAbGroupOn -->
<g id="edge8" class="edge">
<title>FreeAbelianGroup_IsFreeAbGroup&#45;&gt;FreeAbelianGroup_IsFreeAbGroupOn</title>
<path fill="none" stroke="black" d="M135.08,-281.87C193.45,-258.95 305,-215.17 369.21,-189.96"/>
<polygon fill="black" stroke="black" points="370.68,-193.15 378.71,-186.24 368.13,-186.63 370.68,-193.15"/>
</g>
<!-- FreeAbelianGroup_contr_isfreeabgroupon -->
<g id="node8" class="node">
<title>FreeAbelianGroup_contr_isfreeabgroupon</title>
<g id="a_node8"><a xlink:href="FreeAbelianGroup.html#contr_isfreeabgroupon" xlink:title="contr_isfreeabgroupon">
<ellipse fill="#f070d1" stroke="black" cx="946" cy="-297.81" rx="115.87" ry="18"/>
<ellipse fill="none" stroke="black" cx="946" cy="-297.81" rx="119.87" ry="22"/>
<ellipse fill="none" stroke="black" cx="946" cy="-297.81" rx="123.88" ry="26"/>
<text text-anchor="middle" x="946" y="-294.11" font-family="Times,serif" font-size="14.00">contr_isfreeabgroupon</text>
</a>
</g>
</g>
<!-- FreeAbelianGroup_contr_isfreeabgroupon&#45;&gt;FreeAbelianGroup_IsFreeAbGroupOn -->
<g id="edge9" class="edge">
<title>FreeAbelianGroup_contr_isfreeabgroupon&#45;&gt;FreeAbelianGroup_IsFreeAbGroupOn</title>
<path fill="none" stroke="black" d="M866.38,-277.81C762.32,-252.98 581.91,-209.93 484.68,-186.73"/>
<polygon fill="black" stroke="black" points="485.22,-183.26 474.68,-184.34 483.59,-190.07 485.22,-183.26"/>
</g>
<!-- FreeAbelianGroup_FactorsThroughFreeAbGroup -->
<g id="node10" class="node">
<title>FreeAbelianGroup_FactorsThroughFreeAbGroup</title>
<g id="a_node10"><a xlink:href="FreeAbelianGroup.html#FactorsThroughFreeAbGroup" xlink:title="FactorsThroughFreeAbGroup">
<ellipse fill="#f070d1" stroke="black" cx="418" cy="-54.81" rx="146.77" ry="18"/>
<text text-anchor="middle" x="418" y="-51.11" font-family="Times,serif" font-size="14.00">FactorsThroughFreeAbGroup</text>
</a>
</g>
</g>
<!-- FreeAbelianGroup_IsFreeAbGroupOn&#45;&gt;FreeAbelianGroup_FactorsThroughFreeAbGroup -->
<g id="edge10" class="edge">
<title>FreeAbelianGroup_IsFreeAbGroupOn&#45;&gt;FreeAbelianGroup_FactorsThroughFreeAbGroup</title>
<path fill="none" stroke="black" d="M418,-151.65C418,-133.48 418,-104.54 418,-83.21"/>
<polygon fill="black" stroke="black" points="421.5,-83.14 418,-73.14 414.5,-83.14 421.5,-83.14"/>
</g>
</g>
</svg>
