<?xml version="1.0" encoding="UTF-8" standalone="no"?>
<!DOCTYPE svg PUBLIC "-//W3C//DTD SVG 1.1//EN"
 "http://www.w3.org/Graphics/SVG/1.1/DTD/svg11.dtd">
<!-- Generated by graphviz version 2.43.0 (0)
 -->
<!-- Title: HoTT_Classes_tactics_ring_pol Pages: 1 -->
<svg width="1934pt" height="971pt"
 viewBox="0.00 0.00 1934.00 971.00" xmlns="http://www.w3.org/2000/svg" xmlns:xlink="http://www.w3.org/1999/xlink">
<g id="graph0" class="graph" transform="scale(1 1) rotate(0) translate(4 967)">
<title>HoTT_Classes_tactics_ring_pol</title>
<polygon fill="white" stroke="transparent" points="-4,4 -4,-967 1930,-967 1930,4 -4,4"/>
<g id="clust1" class="cluster">
<title>cluster_ring_pol</title>
<polygon fill="#ffffc3" stroke="black" points="15.17,-8 15.17,-955 1910.83,-955 1910.83,-8 15.17,-8"/>
<text text-anchor="middle" x="52.17" y="-939.8" font-family="Times,serif" font-size="14.00">ring_pol</text>
</g>
<!-- ring_pol_eval_toPol -->
<g id="node1" class="node">
<title>ring_pol_eval_toPol</title>
<g id="a_node1"><a xlink:href="ring_pol.html#eval_toPol" xlink:title="eval_toPol">
<ellipse fill="#f070d1" stroke="black" cx="991.01" cy="-898" rx="57.71" ry="18"/>
<ellipse fill="none" stroke="black" cx="991.01" cy="-898" rx="61.7" ry="22"/>
<ellipse fill="none" stroke="black" cx="991.01" cy="-898" rx="65.69" ry="26"/>
<text text-anchor="middle" x="991.01" y="-894.3" font-family="Times,serif" font-size="14.00">eval_toPol</text>
</a>
</g>
</g>
<!-- ring_pol_toPol -->
<g id="node2" class="node">
<title>ring_pol_toPol</title>
<g id="a_node2"><a xlink:href="ring_pol.html#toPol" xlink:title="toPol">
<ellipse fill="#f070d1" stroke="black" cx="1062.01" cy="-586" rx="34.39" ry="18"/>
<text text-anchor="middle" x="1062.01" y="-582.3" font-family="Times,serif" font-size="14.00">toPol</text>
</a>
</g>
</g>
<!-- ring_pol_eval_toPol&#45;&gt;ring_pol_toPol -->
<g id="edge1" class="edge">
<title>ring_pol_eval_toPol&#45;&gt;ring_pol_toPol</title>
<path fill="none" stroke="black" d="M996.76,-871.89C1009.94,-814.36 1042.23,-673.38 1055.82,-614.03"/>
<polygon fill="black" stroke="black" points="1059.31,-614.47 1058.13,-603.94 1052.49,-612.91 1059.31,-614.47"/>
</g>
<!-- ring_pol_eval_mul -->
<g id="node3" class="node">
<title>ring_pol_eval_mul</title>
<g id="a_node3"><a xlink:href="ring_pol.html#eval_mul" xlink:title="eval_mul">
<ellipse fill="#f070d1" stroke="black" cx="925.01" cy="-818" rx="51.99" ry="18"/>
<text text-anchor="middle" x="925.01" y="-814.3" font-family="Times,serif" font-size="14.00">eval_mul</text>
</a>
</g>
</g>
<!-- ring_pol_eval_toPol&#45;&gt;ring_pol_eval_mul -->
<g id="edge2" class="edge">
<title>ring_pol_eval_toPol&#45;&gt;ring_pol_eval_mul</title>
<path fill="none" stroke="black" d="M970.85,-873.17C962.87,-863.75 953.71,-852.92 945.69,-843.44"/>
<polygon fill="black" stroke="black" points="948.12,-840.89 938.99,-835.52 942.77,-845.41 948.12,-840.89"/>
</g>
<!-- ring_pol_mul -->
<g id="node5" class="node">
<title>ring_pol_mul</title>
<g id="a_node5"><a xlink:href="ring_pol.html#mul" xlink:title="mul">
<ellipse fill="#f070d1" stroke="black" cx="993.01" cy="-514" rx="28.7" ry="18"/>
<text text-anchor="middle" x="993.01" y="-510.3" font-family="Times,serif" font-size="14.00">mul</text>
</a>
</g>
</g>
<!-- ring_pol_toPol&#45;&gt;ring_pol_mul -->
<g id="edge3" class="edge">
<title>ring_pol_toPol&#45;&gt;ring_pol_mul</title>
<path fill="none" stroke="black" d="M1046.7,-569.46C1037.37,-560 1025.29,-547.75 1014.96,-537.27"/>
<polygon fill="black" stroke="black" points="1017.32,-534.68 1007.81,-530.01 1012.33,-539.59 1017.32,-534.68"/>
</g>
<!-- ring_pol_P1 -->
<g id="node31" class="node">
<title>ring_pol_P1</title>
<g id="a_node31"><a xlink:href="ring_pol.html#P1" xlink:title="P1">
<ellipse fill="#f070d1" stroke="black" cx="1844.01" cy="-186" rx="27" ry="18"/>
<text text-anchor="middle" x="1844.01" y="-182.3" font-family="Times,serif" font-size="14.00">P1</text>
</a>
</g>
</g>
<!-- ring_pol_toPol&#45;&gt;ring_pol_P1 -->
<g id="edge4" class="edge">
<title>ring_pol_toPol&#45;&gt;ring_pol_P1</title>
<path fill="none" stroke="black" d="M1096.5,-584.61C1227.53,-582.22 1687.01,-565.12 1687.01,-443 1687.01,-443 1687.01,-443 1687.01,-361 1687.01,-285.82 1768.8,-228.52 1814.31,-202.46"/>
<polygon fill="black" stroke="black" points="1816.13,-205.45 1823.16,-197.52 1812.72,-199.33 1816.13,-205.45"/>
</g>
<!-- ring_pol_eval_mul_ -->
<g id="node4" class="node">
<title>ring_pol_eval_mul_</title>
<g id="a_node4"><a xlink:href="ring_pol.html#eval_mul'" xlink:title="eval_mul&#39;">
<ellipse fill="#f070d1" stroke="black" cx="923.01" cy="-738" rx="53.89" ry="18"/>
<text text-anchor="middle" x="923.01" y="-734.3" font-family="Times,serif" font-size="14.00">eval_mul&#39;</text>
</a>
</g>
</g>
<!-- ring_pol_eval_mul&#45;&gt;ring_pol_eval_mul_ -->
<g id="edge5" class="edge">
<title>ring_pol_eval_mul&#45;&gt;ring_pol_eval_mul_</title>
<path fill="none" stroke="black" d="M924.57,-799.69C924.31,-789.89 924,-777.42 923.71,-766.33"/>
<polygon fill="black" stroke="black" points="927.21,-766.17 923.45,-756.26 920.21,-766.35 927.21,-766.17"/>
</g>
<!-- ring_pol_eval_mul_&#45;&gt;ring_pol_mul -->
<g id="edge6" class="edge">
<title>ring_pol_eval_mul_&#45;&gt;ring_pol_mul</title>
<path fill="none" stroke="black" d="M924.04,-719.52C926.4,-688.05 933.83,-620.29 956.01,-568 960.46,-557.51 967.2,-547 973.72,-538.14"/>
<polygon fill="black" stroke="black" points="976.5,-540.27 979.81,-530.21 970.94,-536.01 976.5,-540.27"/>
</g>
<!-- ring_pol_eval_mulX -->
<g id="node8" class="node">
<title>ring_pol_eval_mulX</title>
<g id="a_node8"><a xlink:href="ring_pol.html#eval_mulX" xlink:title="eval_mulX">
<ellipse fill="#f070d1" stroke="black" cx="318.01" cy="-658" rx="57.69" ry="18"/>
<text text-anchor="middle" x="318.01" y="-654.3" font-family="Times,serif" font-size="14.00">eval_mulX</text>
</a>
</g>
</g>
<!-- ring_pol_eval_mul_&#45;&gt;ring_pol_eval_mulX -->
<g id="edge7" class="edge">
<title>ring_pol_eval_mul_&#45;&gt;ring_pol_eval_mulX</title>
<path fill="none" stroke="black" d="M873.76,-730.65C764.38,-716.55 501.4,-682.64 380.6,-667.07"/>
<polygon fill="black" stroke="black" points="380.77,-663.56 370.41,-665.76 379.88,-670.51 380.77,-663.56"/>
</g>
<!-- ring_pol_eval_add -->
<g id="node10" class="node">
<title>ring_pol_eval_add</title>
<g id="a_node10"><a xlink:href="ring_pol.html#eval_add" xlink:title="eval_add">
<ellipse fill="#f070d1" stroke="black" cx="603.01" cy="-658" rx="51.19" ry="18"/>
<text text-anchor="middle" x="603.01" y="-654.3" font-family="Times,serif" font-size="14.00">eval_add</text>
</a>
</g>
</g>
<!-- ring_pol_eval_mul_&#45;&gt;ring_pol_eval_add -->
<g id="edge8" class="edge">
<title>ring_pol_eval_mul_&#45;&gt;ring_pol_eval_add</title>
<path fill="none" stroke="black" d="M880.85,-726.72C822.41,-712.48 716.91,-686.76 654.08,-671.45"/>
<polygon fill="black" stroke="black" points="654.54,-667.96 644,-668.99 652.89,-674.76 654.54,-667.96"/>
</g>
<!-- ring_pol_eval_mulC -->
<g id="node15" class="node">
<title>ring_pol_eval_mulC</title>
<g id="a_node15"><a xlink:href="ring_pol.html#eval_mulC" xlink:title="eval_mulC">
<ellipse fill="#f070d1" stroke="black" cx="1192.01" cy="-514" rx="58.49" ry="18"/>
<text text-anchor="middle" x="1192.01" y="-510.3" font-family="Times,serif" font-size="14.00">eval_mulC</text>
</a>
</g>
</g>
<!-- ring_pol_eval_mul_&#45;&gt;ring_pol_eval_mulC -->
<g id="edge9" class="edge">
<title>ring_pol_eval_mul_&#45;&gt;ring_pol_eval_mulC</title>
<path fill="none" stroke="black" d="M927.94,-720.06C938.69,-686.06 967.54,-609.26 1019.01,-568 1050.02,-543.14 1092.63,-529.91 1127.8,-522.88"/>
<polygon fill="black" stroke="black" points="1128.8,-526.26 1137.98,-520.98 1127.51,-519.38 1128.8,-526.26"/>
</g>
<!-- ring_pol_mulX -->
<g id="node9" class="node">
<title>ring_pol_mulX</title>
<g id="a_node9"><a xlink:href="ring_pol.html#mulX" xlink:title="mulX">
<ellipse fill="#f070d1" stroke="black" cx="354.01" cy="-442" rx="34.39" ry="18"/>
<text text-anchor="middle" x="354.01" y="-438.3" font-family="Times,serif" font-size="14.00">mulX</text>
</a>
</g>
</g>
<!-- ring_pol_mul&#45;&gt;ring_pol_mulX -->
<g id="edge10" class="edge">
<title>ring_pol_mul&#45;&gt;ring_pol_mulX</title>
<path fill="none" stroke="black" d="M965.16,-509.52C936.17,-505.94 889.44,-500.3 849.01,-496 680.32,-478.05 637.42,-480.41 469.01,-460 445.08,-457.1 418.44,-453.2 396.83,-449.87"/>
<polygon fill="black" stroke="black" points="397.08,-446.37 386.66,-448.29 396.01,-453.29 397.08,-446.37"/>
</g>
<!-- ring_pol_add -->
<g id="node13" class="node">
<title>ring_pol_add</title>
<g id="a_node13"><a xlink:href="ring_pol.html#add" xlink:title="add">
<ellipse fill="#f070d1" stroke="black" cx="506.01" cy="-442" rx="27.9" ry="18"/>
<text text-anchor="middle" x="506.01" y="-438.3" font-family="Times,serif" font-size="14.00">add</text>
</a>
</g>
</g>
<!-- ring_pol_mul&#45;&gt;ring_pol_add -->
<g id="edge11" class="edge">
<title>ring_pol_mul&#45;&gt;ring_pol_add</title>
<path fill="none" stroke="black" d="M965.43,-509.04C882.8,-497.16 637.15,-461.85 543.16,-448.34"/>
<polygon fill="black" stroke="black" points="543.38,-444.84 532.99,-446.88 542.39,-451.76 543.38,-444.84"/>
</g>
<!-- ring_pol_mulC -->
<g id="node16" class="node">
<title>ring_pol_mulC</title>
<g id="a_node16"><a xlink:href="ring_pol.html#mulC" xlink:title="mulC">
<ellipse fill="#f070d1" stroke="black" cx="1141.01" cy="-442" rx="35.19" ry="18"/>
<text text-anchor="middle" x="1141.01" y="-438.3" font-family="Times,serif" font-size="14.00">mulC</text>
</a>
</g>
</g>
<!-- ring_pol_mul&#45;&gt;ring_pol_mulC -->
<g id="edge12" class="edge">
<title>ring_pol_mul&#45;&gt;ring_pol_mulC</title>
<path fill="none" stroke="black" d="M1015.17,-502.52C1039.44,-491.04 1078.66,-472.49 1106.87,-459.15"/>
<polygon fill="black" stroke="black" points="1108.43,-462.28 1115.97,-454.84 1105.44,-455.95 1108.43,-462.28"/>
</g>
<!-- ring_pol_eval_mkPX -->
<g id="node6" class="node">
<title>ring_pol_eval_mkPX</title>
<g id="a_node6"><a xlink:href="ring_pol.html#eval_mkPX" xlink:title="eval_mkPX">
<ellipse fill="#f070d1" stroke="black" cx="464.01" cy="-738" rx="61.18" ry="18"/>
<ellipse fill="none" stroke="black" cx="464.01" cy="-738" rx="65.18" ry="22"/>
<ellipse fill="none" stroke="black" cx="464.01" cy="-738" rx="69.19" ry="26"/>
<text text-anchor="middle" x="464.01" y="-734.3" font-family="Times,serif" font-size="14.00">eval_mkPX</text>
</a>
</g>
</g>
<!-- ring_pol_mkPX -->
<g id="node7" class="node">
<title>ring_pol_mkPX</title>
<g id="a_node7"><a xlink:href="ring_pol.html#mkPX" xlink:title="mkPX">
<ellipse fill="#f070d1" stroke="black" cx="449.01" cy="-514" rx="37.89" ry="18"/>
<text text-anchor="middle" x="449.01" y="-510.3" font-family="Times,serif" font-size="14.00">mkPX</text>
</a>
</g>
</g>
<!-- ring_pol_eval_mkPX&#45;&gt;ring_pol_mkPX -->
<g id="edge13" class="edge">
<title>ring_pol_eval_mkPX&#45;&gt;ring_pol_mkPX</title>
<path fill="none" stroke="black" d="M462.32,-711.97C459.48,-669.94 453.78,-585.56 450.84,-542.16"/>
<polygon fill="black" stroke="black" points="454.33,-541.8 450.16,-532.06 447.34,-542.27 454.33,-541.8"/>
</g>
<!-- ring_pol_eval_mkPX&#45;&gt;ring_pol_eval_mulX -->
<g id="edge14" class="edge">
<title>ring_pol_eval_mkPX&#45;&gt;ring_pol_eval_mulX</title>
<path fill="none" stroke="black" d="M425.27,-716.3C403.39,-704.61 376.2,-690.09 354.67,-678.58"/>
<polygon fill="black" stroke="black" points="356.29,-675.48 345.82,-673.86 352.99,-681.66 356.29,-675.48"/>
</g>
<!-- ring_pol_eval_mkPX&#45;&gt;ring_pol_eval_add -->
<g id="edge15" class="edge">
<title>ring_pol_eval_mkPX&#45;&gt;ring_pol_eval_add</title>
<path fill="none" stroke="black" d="M501.26,-716.1C521.9,-704.51 547.42,-690.19 567.74,-678.79"/>
<polygon fill="black" stroke="black" points="569.66,-681.73 576.67,-673.78 566.24,-675.62 569.66,-681.73"/>
</g>
<!-- ring_pol_mkPX&#45;&gt;ring_pol_mulX -->
<g id="edge16" class="edge">
<title>ring_pol_mkPX&#45;&gt;ring_pol_mulX</title>
<path fill="none" stroke="black" d="M429.33,-498.5C415.48,-488.29 396.76,-474.5 381.45,-463.22"/>
<polygon fill="black" stroke="black" points="383.47,-460.36 373.34,-457.25 379.32,-466 383.47,-460.36"/>
</g>
<!-- ring_pol_mkPX&#45;&gt;ring_pol_add -->
<g id="edge17" class="edge">
<title>ring_pol_mkPX&#45;&gt;ring_pol_add</title>
<path fill="none" stroke="black" d="M462.23,-496.76C469.63,-487.68 478.98,-476.19 487.14,-466.18"/>
<polygon fill="black" stroke="black" points="490.04,-468.15 493.64,-458.19 484.61,-463.73 490.04,-468.15"/>
</g>
<!-- ring_pol_eval_mulX&#45;&gt;ring_pol_mulX -->
<g id="edge18" class="edge">
<title>ring_pol_eval_mulX&#45;&gt;ring_pol_mulX</title>
<path fill="none" stroke="black" d="M320.9,-639.85C327.14,-602.75 341.93,-514.81 349.45,-470.1"/>
<polygon fill="black" stroke="black" points="352.9,-470.67 351.11,-460.23 346,-469.51 352.9,-470.67"/>
</g>
<!-- ring_pol_eval_addX -->
<g id="node19" class="node">
<title>ring_pol_eval_addX</title>
<g id="a_node19"><a xlink:href="ring_pol.html#eval_addX" xlink:title="eval_addX">
<ellipse fill="#f070d1" stroke="black" cx="146.01" cy="-442" rx="57.69" ry="18"/>
<text text-anchor="middle" x="146.01" y="-438.3" font-family="Times,serif" font-size="14.00">eval_addX</text>
</a>
</g>
</g>
<!-- ring_pol_eval_mulX&#45;&gt;ring_pol_eval_addX -->
<g id="edge19" class="edge">
<title>ring_pol_eval_mulX&#45;&gt;ring_pol_eval_addX</title>
<path fill="none" stroke="black" d="M304.51,-640.21C274.31,-602.63 201.14,-511.6 165.79,-467.61"/>
<polygon fill="black" stroke="black" points="168.44,-465.32 159.44,-459.71 162.98,-469.7 168.44,-465.32"/>
</g>
<!-- ring_pol_addX -->
<g id="node21" class="node">
<title>ring_pol_addX</title>
<g id="a_node21"><a xlink:href="ring_pol.html#addX" xlink:title="addX">
<ellipse fill="#f070d1" stroke="black" cx="356.01" cy="-362" rx="34.39" ry="18"/>
<text text-anchor="middle" x="356.01" y="-358.3" font-family="Times,serif" font-size="14.00">addX</text>
</a>
</g>
</g>
<!-- ring_pol_mulX&#45;&gt;ring_pol_addX -->
<g id="edge20" class="edge">
<title>ring_pol_mulX&#45;&gt;ring_pol_addX</title>
<path fill="none" stroke="black" d="M354.45,-423.69C354.7,-413.89 355.02,-401.42 355.31,-390.33"/>
<polygon fill="black" stroke="black" points="358.81,-390.35 355.57,-380.26 351.81,-390.17 358.81,-390.35"/>
</g>
<!-- ring_pol_P0 -->
<g id="node32" class="node">
<title>ring_pol_P0</title>
<g id="a_node32"><a xlink:href="ring_pol.html#P0" xlink:title="P0">
<ellipse fill="#f070d1" stroke="black" cx="282.01" cy="-186" rx="27" ry="18"/>
<text text-anchor="middle" x="282.01" y="-182.3" font-family="Times,serif" font-size="14.00">P0</text>
</a>
</g>
</g>
<!-- ring_pol_mulX&#45;&gt;ring_pol_P0 -->
<g id="edge21" class="edge">
<title>ring_pol_mulX&#45;&gt;ring_pol_P0</title>
<path fill="none" stroke="black" d="M371.59,-426.27C381.72,-416.58 393.52,-402.96 399.01,-388 406.98,-366.31 406.56,-357.84 399.01,-336 380.54,-282.58 334.15,-233.74 305.64,-207.4"/>
<polygon fill="black" stroke="black" points="307.88,-204.7 298.11,-200.58 303.18,-209.89 307.88,-204.7"/>
</g>
<!-- ring_pol_eval_add_ -->
<g id="node11" class="node">
<title>ring_pol_eval_add_</title>
<g id="a_node11"><a xlink:href="ring_pol.html#eval_add'" xlink:title="eval_add&#39;">
<ellipse fill="#f070d1" stroke="black" cx="603.01" cy="-586" rx="53.89" ry="18"/>
<text text-anchor="middle" x="603.01" y="-582.3" font-family="Times,serif" font-size="14.00">eval_add&#39;</text>
</a>
</g>
</g>
<!-- ring_pol_eval_add&#45;&gt;ring_pol_eval_add_ -->
<g id="edge22" class="edge">
<title>ring_pol_eval_add&#45;&gt;ring_pol_eval_add_</title>
<path fill="none" stroke="black" d="M603.01,-639.7C603.01,-631.98 603.01,-622.71 603.01,-614.11"/>
<polygon fill="black" stroke="black" points="606.51,-614.1 603.01,-604.1 599.51,-614.1 606.51,-614.1"/>
</g>
<!-- ring_pol_eval_add_aux -->
<g id="node12" class="node">
<title>ring_pol_eval_add_aux</title>
<g id="a_node12"><a xlink:href="ring_pol.html#eval_add_aux" xlink:title="eval_add_aux">
<ellipse fill="#f070d1" stroke="black" cx="768.01" cy="-514" rx="72.29" ry="18"/>
<text text-anchor="middle" x="768.01" y="-510.3" font-family="Times,serif" font-size="14.00">eval_add_aux</text>
</a>
</g>
</g>
<!-- ring_pol_eval_add_&#45;&gt;ring_pol_eval_add_aux -->
<g id="edge23" class="edge">
<title>ring_pol_eval_add_&#45;&gt;ring_pol_eval_add_aux</title>
<path fill="none" stroke="black" d="M635.22,-571.34C660.38,-560.66 695.65,-545.7 723.51,-533.88"/>
<polygon fill="black" stroke="black" points="725.19,-536.97 733.03,-529.84 722.46,-530.52 725.19,-536.97"/>
</g>
<!-- ring_pol_eval_add_&#45;&gt;ring_pol_add -->
<g id="edge24" class="edge">
<title>ring_pol_eval_add_&#45;&gt;ring_pol_add</title>
<path fill="none" stroke="black" d="M591.5,-568.15C574.4,-543.12 542.2,-495.97 522.57,-467.24"/>
<polygon fill="black" stroke="black" points="525.44,-465.24 516.91,-458.95 519.66,-469.18 525.44,-465.24"/>
</g>
<!-- ring_pol_eval_addC -->
<g id="node23" class="node">
<title>ring_pol_eval_addC</title>
<g id="a_node23"><a xlink:href="ring_pol.html#eval_addC" xlink:title="eval_addC">
<ellipse fill="#f070d1" stroke="black" cx="483.01" cy="-274" rx="57.69" ry="18"/>
<text text-anchor="middle" x="483.01" y="-270.3" font-family="Times,serif" font-size="14.00">eval_addC</text>
</a>
</g>
</g>
<!-- ring_pol_eval_add_&#45;&gt;ring_pol_eval_addC -->
<g id="edge25" class="edge">
<title>ring_pol_eval_add_&#45;&gt;ring_pol_eval_addC</title>
<path fill="none" stroke="black" d="M596.85,-568.02C586.14,-538.61 563.28,-476.29 543.01,-424 526.26,-380.78 505.97,-330.87 493.79,-301.18"/>
<polygon fill="black" stroke="black" points="497.03,-299.85 489.99,-291.93 490.55,-302.51 497.03,-299.85"/>
</g>
<!-- ring_pol_add_aux -->
<g id="node14" class="node">
<title>ring_pol_add_aux</title>
<g id="a_node14"><a xlink:href="ring_pol.html#add_aux" xlink:title="add_aux">
<ellipse fill="#f070d1" stroke="black" cx="724.01" cy="-362" rx="48.99" ry="18"/>
<text text-anchor="middle" x="724.01" y="-358.3" font-family="Times,serif" font-size="14.00">add_aux</text>
</a>
</g>
</g>
<!-- ring_pol_eval_add_aux&#45;&gt;ring_pol_add_aux -->
<g id="edge26" class="edge">
<title>ring_pol_eval_add_aux&#45;&gt;ring_pol_add_aux</title>
<path fill="none" stroke="black" d="M762.96,-495.79C755.34,-469.8 740.82,-420.3 731.82,-389.63"/>
<polygon fill="black" stroke="black" points="735.17,-388.62 729,-380.01 728.45,-390.59 735.17,-388.62"/>
</g>
<!-- ring_pol_eval_PXguard -->
<g id="node17" class="node">
<title>ring_pol_eval_PXguard</title>
<g id="a_node17"><a xlink:href="ring_pol.html#eval_PXguard" xlink:title="eval_PXguard">
<ellipse fill="#f070d1" stroke="black" cx="900.01" cy="-442" rx="74.19" ry="18"/>
<text text-anchor="middle" x="900.01" y="-438.3" font-family="Times,serif" font-size="14.00">eval_PXguard</text>
</a>
</g>
</g>
<!-- ring_pol_eval_add_aux&#45;&gt;ring_pol_eval_PXguard -->
<g id="edge27" class="edge">
<title>ring_pol_eval_add_aux&#45;&gt;ring_pol_eval_PXguard</title>
<path fill="none" stroke="black" d="M797.3,-497.46C816.14,-487.48 840.83,-474.38 861.28,-463.54"/>
<polygon fill="black" stroke="black" points="863.15,-466.51 870.34,-458.73 859.87,-460.33 863.15,-466.51"/>
</g>
<!-- ring_pol_add&#45;&gt;ring_pol_add_aux -->
<g id="edge28" class="edge">
<title>ring_pol_add&#45;&gt;ring_pol_add_aux</title>
<path fill="none" stroke="black" d="M529.75,-432.5C565.94,-419.56 635.47,-394.68 680.78,-378.47"/>
<polygon fill="black" stroke="black" points="682.1,-381.71 690.34,-375.05 679.74,-375.12 682.1,-381.71"/>
</g>
<!-- ring_pol_addC -->
<g id="node24" class="node">
<title>ring_pol_addC</title>
<g id="a_node24"><a xlink:href="ring_pol.html#addC" xlink:title="addC">
<ellipse fill="#f070d1" stroke="black" cx="95.01" cy="-186" rx="34.39" ry="18"/>
<text text-anchor="middle" x="95.01" y="-182.3" font-family="Times,serif" font-size="14.00">addC</text>
</a>
</g>
</g>
<!-- ring_pol_add&#45;&gt;ring_pol_addC -->
<g id="edge29" class="edge">
<title>ring_pol_add&#45;&gt;ring_pol_addC</title>
<path fill="none" stroke="black" d="M493.43,-425.89C474.61,-403.98 437.25,-363.06 399.01,-336 310.39,-273.29 191.38,-223.5 131.98,-200.64"/>
<polygon fill="black" stroke="black" points="133.22,-197.36 122.63,-197.07 130.73,-203.9 133.22,-197.36"/>
</g>
<!-- ring_pol_PXguard -->
<g id="node18" class="node">
<title>ring_pol_PXguard</title>
<g id="a_node18"><a xlink:href="ring_pol.html#PXguard" xlink:title="PXguard">
<ellipse fill="#f070d1" stroke="black" cx="724.01" cy="-274" rx="50.89" ry="18"/>
<text text-anchor="middle" x="724.01" y="-270.3" font-family="Times,serif" font-size="14.00">PXguard</text>
</a>
</g>
</g>
<!-- ring_pol_add_aux&#45;&gt;ring_pol_PXguard -->
<g id="edge30" class="edge">
<title>ring_pol_add_aux&#45;&gt;ring_pol_PXguard</title>
<path fill="none" stroke="black" d="M724.01,-343.6C724.01,-331.75 724.01,-315.82 724.01,-302.29"/>
<polygon fill="black" stroke="black" points="727.51,-302.08 724.01,-292.08 720.51,-302.08 727.51,-302.08"/>
</g>
<!-- ring_pol_eval_mulC&#45;&gt;ring_pol_mulC -->
<g id="edge31" class="edge">
<title>ring_pol_eval_mulC&#45;&gt;ring_pol_mulC</title>
<path fill="none" stroke="black" d="M1179.66,-496.05C1173.43,-487.5 1165.76,-476.97 1158.9,-467.56"/>
<polygon fill="black" stroke="black" points="1161.61,-465.33 1152.89,-459.31 1155.95,-469.45 1161.61,-465.33"/>
</g>
<!-- ring_pol_eval_mulC&#45;&gt;ring_pol_eval_PXguard -->
<g id="edge32" class="edge">
<title>ring_pol_eval_mulC&#45;&gt;ring_pol_eval_PXguard</title>
<path fill="none" stroke="black" d="M1147.34,-502.29C1097.38,-490.32 1016.18,-470.85 960.54,-457.51"/>
<polygon fill="black" stroke="black" points="961.35,-454.11 950.81,-455.18 959.72,-460.91 961.35,-454.11"/>
</g>
<!-- ring_pol_mulC&#45;&gt;ring_pol_PXguard -->
<g id="edge33" class="edge">
<title>ring_pol_mulC&#45;&gt;ring_pol_PXguard</title>
<path fill="none" stroke="black" d="M1131.67,-424.45C1117.36,-400.74 1087.67,-357.61 1050.01,-336 1026.89,-322.74 866.66,-296.75 779.76,-283.38"/>
<polygon fill="black" stroke="black" points="780.21,-279.91 769.8,-281.85 779.15,-286.83 780.21,-279.91"/>
</g>
<!-- ring_pol_eval_PXguard&#45;&gt;ring_pol_PXguard -->
<g id="edge34" class="edge">
<title>ring_pol_eval_PXguard&#45;&gt;ring_pol_PXguard</title>
<path fill="none" stroke="black" d="M882.49,-424.48C850.97,-394.74 784.61,-332.16 748.57,-298.16"/>
<polygon fill="black" stroke="black" points="750.62,-295.28 740.94,-290.97 745.81,-300.38 750.62,-295.28"/>
</g>
<!-- ring_pol_eval_0 -->
<g id="node25" class="node">
<title>ring_pol_eval_0</title>
<g id="a_node25"><a xlink:href="ring_pol.html#eval_0" xlink:title="eval_0">
<ellipse fill="#f070d1" stroke="black" cx="1001.01" cy="-362" rx="40.09" ry="18"/>
<text text-anchor="middle" x="1001.01" y="-358.3" font-family="Times,serif" font-size="14.00">eval_0</text>
</a>
</g>
</g>
<!-- ring_pol_eval_PXguard&#45;&gt;ring_pol_eval_0 -->
<g id="edge35" class="edge">
<title>ring_pol_eval_PXguard&#45;&gt;ring_pol_eval_0</title>
<path fill="none" stroke="black" d="M921.43,-424.46C936.62,-412.73 957.13,-396.89 973.52,-384.23"/>
<polygon fill="black" stroke="black" points="975.9,-386.82 981.67,-377.94 971.62,-381.28 975.9,-386.82"/>
</g>
<!-- ring_pol_PXguard&#45;&gt;ring_pol_P0 -->
<g id="edge36" class="edge">
<title>ring_pol_PXguard&#45;&gt;ring_pol_P0</title>
<path fill="none" stroke="black" d="M679.95,-264.92C617.89,-253.47 501.2,-231.73 402.01,-212 373.47,-206.32 341.17,-199.58 317.28,-194.52"/>
<polygon fill="black" stroke="black" points="317.77,-191.05 307.27,-192.4 316.32,-197.9 317.77,-191.05"/>
</g>
<!-- ring_pol_Peqb_instance -->
<g id="node33" class="node">
<title>ring_pol_Peqb_instance</title>
<g id="a_node33"><a xlink:href="ring_pol.html#Peqb_instance" xlink:title="Peqb_instance">
<ellipse fill="#f070d1" stroke="black" cx="1359.01" cy="-186" rx="77.19" ry="18"/>
<text text-anchor="middle" x="1359.01" y="-182.3" font-family="Times,serif" font-size="14.00">Peqb_instance</text>
</a>
</g>
</g>
<!-- ring_pol_PXguard&#45;&gt;ring_pol_Peqb_instance -->
<g id="edge37" class="edge">
<title>ring_pol_PXguard&#45;&gt;ring_pol_Peqb_instance</title>
<path fill="none" stroke="black" d="M769.53,-266.06C803.53,-260.92 851.15,-253.84 893.01,-248 1030.1,-228.89 1190.13,-208.32 1282.5,-196.62"/>
<polygon fill="black" stroke="black" points="1283.12,-200.07 1292.6,-195.34 1282.24,-193.12 1283.12,-200.07"/>
</g>
<!-- ring_pol_PX -->
<g id="node39" class="node">
<title>ring_pol_PX</title>
<g id="a_node39"><a xlink:href="ring_pol.html#PX" xlink:title="PX">
<ellipse fill="#7faaff" stroke="black" cx="459.01" cy="-106" rx="27" ry="18"/>
<text text-anchor="middle" x="459.01" y="-102.3" font-family="Times,serif" font-size="14.00">PX</text>
</a>
</g>
</g>
<!-- ring_pol_PXguard&#45;&gt;ring_pol_PX -->
<g id="edge38" class="edge">
<title>ring_pol_PXguard&#45;&gt;ring_pol_PX</title>
<path fill="none" stroke="black" d="M678.26,-266.11C643.19,-260.91 593.58,-253.71 550.01,-248 482.56,-239.16 291.2,-262.85 246.01,-212 230.66,-194.72 231.78,-178.21 246.01,-160 267.51,-132.5 367.31,-117.22 422.34,-110.75"/>
<polygon fill="black" stroke="black" points="422.85,-114.21 432.39,-109.61 422.06,-107.26 422.85,-114.21"/>
</g>
<!-- ring_pol_eval_addX_ -->
<g id="node20" class="node">
<title>ring_pol_eval_addX_</title>
<g id="a_node20"><a xlink:href="ring_pol.html#eval_addX'" xlink:title="eval_addX&#39;">
<ellipse fill="#f070d1" stroke="black" cx="144.01" cy="-362" rx="59.59" ry="18"/>
<text text-anchor="middle" x="144.01" y="-358.3" font-family="Times,serif" font-size="14.00">eval_addX&#39;</text>
</a>
</g>
</g>
<!-- ring_pol_eval_addX&#45;&gt;ring_pol_eval_addX_ -->
<g id="edge39" class="edge">
<title>ring_pol_eval_addX&#45;&gt;ring_pol_eval_addX_</title>
<path fill="none" stroke="black" d="M145.57,-423.69C145.31,-413.89 145,-401.42 144.71,-390.33"/>
<polygon fill="black" stroke="black" points="148.21,-390.17 144.45,-380.26 141.21,-390.35 148.21,-390.17"/>
</g>
<!-- ring_pol_eval_addX&#45;&gt;ring_pol_addX -->
<g id="edge40" class="edge">
<title>ring_pol_eval_addX&#45;&gt;ring_pol_addX</title>
<path fill="none" stroke="black" d="M181.63,-427.77C219.77,-413.6 280,-391.23 318.75,-376.84"/>
<polygon fill="black" stroke="black" points="320.44,-379.95 328.59,-373.18 318,-373.38 320.44,-379.95"/>
</g>
<!-- ring_pol_addX_ -->
<g id="node22" class="node">
<title>ring_pol_addX_</title>
<g id="a_node22"><a xlink:href="ring_pol.html#addX'" xlink:title="addX&#39;">
<ellipse fill="#f070d1" stroke="black" cx="144.01" cy="-274" rx="36.29" ry="18"/>
<text text-anchor="middle" x="144.01" y="-270.3" font-family="Times,serif" font-size="14.00">addX&#39;</text>
</a>
</g>
</g>
<!-- ring_pol_eval_addX_&#45;&gt;ring_pol_addX_ -->
<g id="edge41" class="edge">
<title>ring_pol_eval_addX_&#45;&gt;ring_pol_addX_</title>
<path fill="none" stroke="black" d="M144.01,-343.6C144.01,-331.75 144.01,-315.82 144.01,-302.29"/>
<polygon fill="black" stroke="black" points="147.51,-302.08 144.01,-292.08 140.51,-302.08 147.51,-302.08"/>
</g>
<!-- ring_pol_eval_addX_&#45;&gt;ring_pol_eval_addC -->
<g id="edge42" class="edge">
<title>ring_pol_eval_addX_&#45;&gt;ring_pol_eval_addC</title>
<path fill="none" stroke="black" d="M188.33,-349.76C250.47,-333.99 363.32,-305.36 429.88,-288.48"/>
<polygon fill="black" stroke="black" points="430.92,-291.83 439.75,-285.97 429.2,-285.04 430.92,-291.83"/>
</g>
<!-- ring_pol_addX&#45;&gt;ring_pol_addX_ -->
<g id="edge43" class="edge">
<title>ring_pol_addX&#45;&gt;ring_pol_addX_</title>
<path fill="none" stroke="black" d="M329.59,-350.28C292.11,-335.08 223.34,-307.18 180.86,-289.95"/>
<polygon fill="black" stroke="black" points="182.02,-286.64 171.44,-286.13 179.39,-293.13 182.02,-286.64"/>
</g>
<!-- ring_pol_addX_&#45;&gt;ring_pol_addC -->
<g id="edge44" class="edge">
<title>ring_pol_addX_&#45;&gt;ring_pol_addC</title>
<path fill="none" stroke="black" d="M134.56,-256.42C127.44,-243.93 117.56,-226.58 109.45,-212.35"/>
<polygon fill="black" stroke="black" points="112.42,-210.49 104.43,-203.53 106.34,-213.95 112.42,-210.49"/>
</g>
<!-- ring_pol_eval_addC&#45;&gt;ring_pol_addC -->
<g id="edge45" class="edge">
<title>ring_pol_eval_addC&#45;&gt;ring_pol_addC</title>
<path fill="none" stroke="black" d="M435.14,-263.83C376.98,-252.5 275.99,-232.25 190.01,-212 171.86,-207.73 151.89,-202.54 134.96,-198.01"/>
<polygon fill="black" stroke="black" points="135.43,-194.51 124.86,-195.28 133.6,-201.27 135.43,-194.51"/>
</g>
<!-- ring_pol_eval -->
<g id="node30" class="node">
<title>ring_pol_eval</title>
<g id="a_node30"><a xlink:href="ring_pol.html#eval" xlink:title="eval">
<ellipse fill="#f070d1" stroke="black" cx="1122.01" cy="-186" rx="29.8" ry="18"/>
<text text-anchor="middle" x="1122.01" y="-182.3" font-family="Times,serif" font-size="14.00">eval</text>
</a>
</g>
</g>
<!-- ring_pol_eval_addC&#45;&gt;ring_pol_eval -->
<g id="edge46" class="edge">
<title>ring_pol_eval_addC&#45;&gt;ring_pol_eval</title>
<path fill="none" stroke="black" d="M534.45,-265.52C570.65,-260.35 620.25,-253.44 664.01,-248 808.23,-230.06 845.27,-233.44 989.01,-212 1021.32,-207.18 1057.77,-200.22 1084.33,-194.87"/>
<polygon fill="black" stroke="black" points="1085.25,-198.25 1094.35,-192.83 1083.85,-191.39 1085.25,-198.25"/>
</g>
<!-- ring_pol_Pol_rect -->
<g id="node38" class="node">
<title>ring_pol_Pol_rect</title>
<g id="a_node38"><a xlink:href="ring_pol.html#Pol_rect" xlink:title="Pol_rect">
<ellipse fill="#f070d1" stroke="black" cx="459.01" cy="-186" rx="48.19" ry="18"/>
<text text-anchor="middle" x="459.01" y="-182.3" font-family="Times,serif" font-size="14.00">Pol_rect</text>
</a>
</g>
</g>
<!-- ring_pol_eval_addC&#45;&gt;ring_pol_Pol_rect -->
<g id="edge47" class="edge">
<title>ring_pol_eval_addC&#45;&gt;ring_pol_Pol_rect</title>
<path fill="none" stroke="black" d="M478.27,-256.01C474.92,-243.99 470.35,-227.64 466.51,-213.87"/>
<polygon fill="black" stroke="black" points="469.8,-212.65 463.74,-203.96 463.06,-214.53 469.8,-212.65"/>
</g>
<!-- ring_pol_addC&#45;&gt;ring_pol_PX -->
<g id="edge48" class="edge">
<title>ring_pol_addC&#45;&gt;ring_pol_PX</title>
<path fill="none" stroke="black" d="M124.84,-176.64C143.5,-171.53 168.07,-165.04 190.01,-160 273.12,-140.9 371.65,-122.57 423.31,-113.3"/>
<polygon fill="black" stroke="black" points="424.08,-116.71 433.3,-111.51 422.84,-109.82 424.08,-116.71"/>
</g>
<!-- ring_pol_Pconst -->
<g id="node40" class="node">
<title>ring_pol_Pconst</title>
<g id="a_node40"><a xlink:href="ring_pol.html#Pconst" xlink:title="Pconst">
<ellipse fill="#7faaff" stroke="black" cx="677.01" cy="-106" rx="42.49" ry="18"/>
<text text-anchor="middle" x="677.01" y="-102.3" font-family="Times,serif" font-size="14.00">Pconst</text>
</a>
</g>
</g>
<!-- ring_pol_addC&#45;&gt;ring_pol_Pconst -->
<g id="edge49" class="edge">
<title>ring_pol_addC&#45;&gt;ring_pol_Pconst</title>
<path fill="none" stroke="black" d="M127.06,-179.3C157.58,-173.96 204.85,-165.94 246.01,-160 383.12,-140.23 545.45,-121.53 626.16,-112.56"/>
<polygon fill="black" stroke="black" points="626.98,-115.99 636.53,-111.41 626.2,-109.03 626.98,-115.99"/>
</g>
<!-- ring_pol_Pol -->
<g id="node41" class="node">
<title>ring_pol_Pol</title>
<g id="a_node41"><a xlink:href="ring_pol.html#Pol" xlink:title="Pol">
<ellipse fill="#e2cdfa" stroke="black" cx="868.01" cy="-34" rx="27" ry="18"/>
<text text-anchor="middle" x="868.01" y="-30.3" font-family="Times,serif" font-size="14.00">Pol</text>
</a>
</g>
</g>
<!-- ring_pol_addC&#45;&gt;ring_pol_Pol -->
<g id="edge50" class="edge">
<title>ring_pol_addC&#45;&gt;ring_pol_Pol</title>
<path fill="none" stroke="black" d="M119.61,-173.3C164.74,-152.4 264.27,-108.88 353.01,-88 528.58,-46.69 745.34,-37.58 830.84,-35.57"/>
<polygon fill="black" stroke="black" points="831.15,-39.06 841.07,-35.35 831,-32.06 831.15,-39.06"/>
</g>
<!-- ring_pol_eval_0_ -->
<g id="node26" class="node">
<title>ring_pol_eval_0_</title>
<g id="a_node26"><a xlink:href="ring_pol.html#eval_0'" xlink:title="eval_0&#39;">
<ellipse fill="#f070d1" stroke="black" cx="1166.01" cy="-274" rx="42.49" ry="18"/>
<text text-anchor="middle" x="1166.01" y="-270.3" font-family="Times,serif" font-size="14.00">eval_0&#39;</text>
</a>
</g>
</g>
<!-- ring_pol_eval_0&#45;&gt;ring_pol_eval_0_ -->
<g id="edge51" class="edge">
<title>ring_pol_eval_0&#45;&gt;ring_pol_eval_0_</title>
<path fill="none" stroke="black" d="M1026.43,-347.75C1054.45,-333.15 1099.69,-309.57 1131.04,-293.23"/>
<polygon fill="black" stroke="black" points="1133.04,-296.13 1140.29,-288.41 1129.8,-289.92 1133.04,-296.13"/>
</g>
<!-- ring_pol_eval_0_&#45;&gt;ring_pol_eval -->
<g id="edge52" class="edge">
<title>ring_pol_eval_0_&#45;&gt;ring_pol_eval</title>
<path fill="none" stroke="black" d="M1157.32,-256.01C1150.97,-243.6 1142.25,-226.56 1135.07,-212.52"/>
<polygon fill="black" stroke="black" points="1138.06,-210.68 1130.39,-203.37 1131.83,-213.87 1138.06,-210.68"/>
</g>
<!-- ring_pol_eval_0_&#45;&gt;ring_pol_P0 -->
<g id="edge53" class="edge">
<title>ring_pol_eval_0_&#45;&gt;ring_pol_P0</title>
<path fill="none" stroke="black" d="M1128.31,-265.62C1097.86,-259.94 1053.83,-252.34 1015.01,-248 743.79,-217.67 672.55,-247.93 402.01,-212 373.16,-208.17 340.89,-201.3 317.08,-195.72"/>
<polygon fill="black" stroke="black" points="317.65,-192.26 307.11,-193.35 316.03,-199.07 317.65,-192.26"/>
</g>
<!-- ring_pol_eval_0_&#45;&gt;ring_pol_Peqb_instance -->
<g id="edge54" class="edge">
<title>ring_pol_eval_0_&#45;&gt;ring_pol_Peqb_instance</title>
<path fill="none" stroke="black" d="M1194.07,-260.49C1225.84,-246.34 1277.99,-223.1 1315.14,-206.55"/>
<polygon fill="black" stroke="black" points="1317.01,-209.55 1324.72,-202.28 1314.16,-203.15 1317.01,-209.55"/>
</g>
<!-- ring_pol_eval_0_&#45;&gt;ring_pol_Pol_rect -->
<g id="edge55" class="edge">
<title>ring_pol_eval_0_&#45;&gt;ring_pol_Pol_rect</title>
<path fill="none" stroke="black" d="M1127.96,-265.91C1097.49,-260.42 1053.62,-252.95 1015.01,-248 840.6,-225.62 795.54,-233.42 621.01,-212 584.44,-207.51 543.41,-201.17 511.8,-195.99"/>
<polygon fill="black" stroke="black" points="512.32,-192.53 501.89,-194.36 511.18,-199.44 512.32,-192.53"/>
</g>
<!-- ring_pol_eval_eqb -->
<g id="node27" class="node">
<title>ring_pol_eval_eqb</title>
<g id="a_node27"><a xlink:href="ring_pol.html#eval_eqb" xlink:title="eval_eqb">
<ellipse fill="#f070d1" stroke="black" cx="1382.01" cy="-362" rx="51.21" ry="18"/>
<ellipse fill="none" stroke="black" cx="1382.01" cy="-362" rx="55.2" ry="22"/>
<ellipse fill="none" stroke="black" cx="1382.01" cy="-362" rx="59.19" ry="26"/>
<text text-anchor="middle" x="1382.01" y="-358.3" font-family="Times,serif" font-size="14.00">eval_eqb</text>
</a>
</g>
</g>
<!-- ring_pol_eval_eqb_ -->
<g id="node28" class="node">
<title>ring_pol_eval_eqb_</title>
<g id="a_node28"><a xlink:href="ring_pol.html#eval_eqb'" xlink:title="eval_eqb&#39;">
<ellipse fill="#f070d1" stroke="black" cx="1382.01" cy="-274" rx="53.89" ry="18"/>
<text text-anchor="middle" x="1382.01" y="-270.3" font-family="Times,serif" font-size="14.00">eval_eqb&#39;</text>
</a>
</g>
</g>
<!-- ring_pol_eval_eqb&#45;&gt;ring_pol_eval_eqb_ -->
<g id="edge56" class="edge">
<title>ring_pol_eval_eqb&#45;&gt;ring_pol_eval_eqb_</title>
<path fill="none" stroke="black" d="M1382.01,-335.66C1382.01,-325.11 1382.01,-312.84 1382.01,-302.1"/>
<polygon fill="black" stroke="black" points="1385.51,-302 1382.01,-292 1378.51,-302 1385.51,-302"/>
</g>
<!-- ring_pol_andb_true -->
<g id="node29" class="node">
<title>ring_pol_andb_true</title>
<g id="a_node29"><a xlink:href="ring_pol.html#andb_true" xlink:title="andb_true">
<ellipse fill="#f070d1" stroke="black" cx="1649.01" cy="-186" rx="57.69" ry="18"/>
<text text-anchor="middle" x="1649.01" y="-182.3" font-family="Times,serif" font-size="14.00">andb_true</text>
</a>
</g>
</g>
<!-- ring_pol_eval_eqb_&#45;&gt;ring_pol_andb_true -->
<g id="edge57" class="edge">
<title>ring_pol_eval_eqb_&#45;&gt;ring_pol_andb_true</title>
<path fill="none" stroke="black" d="M1419.42,-260.95C1466.74,-245.71 1548.34,-219.43 1600.44,-202.65"/>
<polygon fill="black" stroke="black" points="1601.68,-205.92 1610.12,-199.53 1599.53,-199.26 1601.68,-205.92"/>
</g>
<!-- ring_pol_eval_eqb_&#45;&gt;ring_pol_eval -->
<g id="edge58" class="edge">
<title>ring_pol_eval_eqb_&#45;&gt;ring_pol_eval</title>
<path fill="none" stroke="black" d="M1345.03,-260.77C1294.93,-244.2 1206.11,-214.82 1157.04,-198.59"/>
<polygon fill="black" stroke="black" points="1158.08,-195.24 1147.48,-195.43 1155.88,-201.89 1158.08,-195.24"/>
</g>
<!-- ring_pol_eval_eqb_&#45;&gt;ring_pol_Peqb_instance -->
<g id="edge59" class="edge">
<title>ring_pol_eval_eqb_&#45;&gt;ring_pol_Peqb_instance</title>
<path fill="none" stroke="black" d="M1377.47,-256.01C1374.27,-244.07 1369.94,-227.85 1366.27,-214.14"/>
<polygon fill="black" stroke="black" points="1369.59,-213.01 1363.62,-204.25 1362.83,-214.81 1369.59,-213.01"/>
</g>
<!-- ring_pol_eval_eqb_&#45;&gt;ring_pol_Pol_rect -->
<g id="edge60" class="edge">
<title>ring_pol_eval_eqb_&#45;&gt;ring_pol_Pol_rect</title>
<path fill="none" stroke="black" d="M1335.57,-264.82C1302.59,-259.29 1257.2,-252.25 1217.01,-248 953.11,-220.09 884.87,-240.27 621.01,-212 584.24,-208.06 543.06,-201.68 511.42,-196.35"/>
<polygon fill="black" stroke="black" points="511.95,-192.89 501.5,-194.66 510.77,-199.79 511.95,-192.89"/>
</g>
<!-- ring_pol_eval&#45;&gt;ring_pol_Pol -->
<g id="edge61" class="edge">
<title>ring_pol_eval&#45;&gt;ring_pol_Pol</title>
<path fill="none" stroke="black" d="M1101.22,-172.72C1055.85,-145.93 947.85,-82.15 896.32,-51.72"/>
<polygon fill="black" stroke="black" points="898.06,-48.68 887.67,-46.61 894.5,-54.71 898.06,-48.68"/>
</g>
<!-- ring_pol_P1&#45;&gt;ring_pol_Pconst -->
<g id="edge62" class="edge">
<title>ring_pol_P1&#45;&gt;ring_pol_Pconst</title>
<path fill="none" stroke="black" d="M1818.68,-178.95C1792.98,-173.07 1751.97,-164.41 1716.01,-160 1521.79,-136.2 912.06,-114.72 729.3,-108.68"/>
<polygon fill="black" stroke="black" points="729.25,-105.18 719.14,-108.35 729.02,-112.18 729.25,-105.18"/>
</g>
<!-- ring_pol_P1&#45;&gt;ring_pol_Pol -->
<g id="edge63" class="edge">
<title>ring_pol_P1&#45;&gt;ring_pol_Pol</title>
<path fill="none" stroke="black" d="M1818.55,-179.82C1792.74,-174.62 1751.65,-166.47 1716.01,-160 1525.79,-125.47 1478.28,-116.14 1287.01,-88 1145.96,-67.25 977.46,-47.45 904.58,-39.12"/>
<polygon fill="black" stroke="black" points="904.86,-35.63 894.53,-37.98 904.07,-42.59 904.86,-35.63"/>
</g>
<!-- ring_pol_P0&#45;&gt;ring_pol_Pconst -->
<g id="edge64" class="edge">
<title>ring_pol_P0&#45;&gt;ring_pol_Pconst</title>
<path fill="none" stroke="black" d="M307.27,-179.62C331.54,-174.48 369.25,-166.57 402.01,-160 481.51,-144.06 574.12,-126.4 629.03,-116.02"/>
<polygon fill="black" stroke="black" points="629.99,-119.4 639.16,-114.11 628.69,-112.52 629.99,-119.4"/>
</g>
<!-- ring_pol_P0&#45;&gt;ring_pol_Pol -->
<g id="edge65" class="edge">
<title>ring_pol_P0&#45;&gt;ring_pol_Pol</title>
<path fill="none" stroke="black" d="M297.06,-170.87C321.39,-148.96 371.85,-107.29 423.01,-88 497.66,-59.85 738.32,-42.79 831.08,-37.11"/>
<polygon fill="black" stroke="black" points="831.35,-40.6 841.12,-36.51 830.93,-33.62 831.35,-40.6"/>
</g>
<!-- ring_pol_Peqb -->
<g id="node34" class="node">
<title>ring_pol_Peqb</title>
<g id="a_node34"><a xlink:href="ring_pol.html#Peqb" xlink:title="Peqb">
<ellipse fill="#f070d1" stroke="black" cx="1244.01" cy="-106" rx="33.6" ry="18"/>
<text text-anchor="middle" x="1244.01" y="-102.3" font-family="Times,serif" font-size="14.00">Peqb</text>
</a>
</g>
</g>
<!-- ring_pol_Peqb_instance&#45;&gt;ring_pol_Peqb -->
<g id="edge66" class="edge">
<title>ring_pol_Peqb_instance&#45;&gt;ring_pol_Peqb</title>
<path fill="none" stroke="black" d="M1335.18,-168.84C1316.93,-156.46 1291.68,-139.33 1272.38,-126.24"/>
<polygon fill="black" stroke="black" points="1274.22,-123.26 1263.98,-120.54 1270.29,-129.05 1274.22,-123.26"/>
</g>
<!-- ring_pol_Peqb&#45;&gt;ring_pol_Pol -->
<g id="edge67" class="edge">
<title>ring_pol_Peqb&#45;&gt;ring_pol_Pol</title>
<path fill="none" stroke="black" d="M1212.6,-99.15C1143.29,-86.25 977.6,-55.4 904.14,-41.73"/>
<polygon fill="black" stroke="black" points="904.46,-38.23 893.99,-39.84 903.18,-45.11 904.46,-38.23"/>
</g>
<!-- ring_pol_Pol_sind -->
<g id="node35" class="node">
<title>ring_pol_Pol_sind</title>
<g id="a_node35"><a xlink:href="ring_pol.html#Pol_sind" xlink:title="Pol_sind">
<ellipse fill="#f070d1" stroke="black" cx="923.01" cy="-186" rx="48.96" ry="18"/>
<ellipse fill="none" stroke="black" cx="923.01" cy="-186" rx="52.98" ry="22"/>
<ellipse fill="none" stroke="black" cx="923.01" cy="-186" rx="56.99" ry="26"/>
<text text-anchor="middle" x="923.01" y="-182.3" font-family="Times,serif" font-size="14.00">Pol_sind</text>
</a>
</g>
</g>
<!-- ring_pol_Pol_sind&#45;&gt;ring_pol_PX -->
<g id="edge68" class="edge">
<title>ring_pol_Pol_sind&#45;&gt;ring_pol_PX</title>
<path fill="none" stroke="black" d="M870.23,-176.13C774.99,-160.12 576.69,-126.78 495.19,-113.08"/>
<polygon fill="black" stroke="black" points="495.37,-109.56 484.93,-111.36 494.21,-116.47 495.37,-109.56"/>
</g>
<!-- ring_pol_Pol_sind&#45;&gt;ring_pol_Pconst -->
<g id="edge69" class="edge">
<title>ring_pol_Pol_sind&#45;&gt;ring_pol_Pconst</title>
<path fill="none" stroke="black" d="M877.32,-170.51C832.1,-156.18 763.46,-134.41 719.42,-120.45"/>
<polygon fill="black" stroke="black" points="720.46,-117.11 709.87,-117.42 718.35,-123.78 720.46,-117.11"/>
</g>
<!-- ring_pol_Pol_sind&#45;&gt;ring_pol_Pol -->
<g id="edge70" class="edge">
<title>ring_pol_Pol_sind&#45;&gt;ring_pol_Pol</title>
<path fill="none" stroke="black" d="M913.93,-160.23C903.93,-132.96 887.91,-89.29 877.68,-61.38"/>
<polygon fill="black" stroke="black" points="880.93,-60.06 874.2,-51.88 874.36,-62.47 880.93,-60.06"/>
</g>
<!-- ring_pol_Pol_rec -->
<g id="node36" class="node">
<title>ring_pol_Pol_rec</title>
<g id="a_node36"><a xlink:href="ring_pol.html#Pol_rec" xlink:title="Pol_rec">
<ellipse fill="#f070d1" stroke="black" cx="954.01" cy="-274" rx="44.36" ry="18"/>
<ellipse fill="none" stroke="black" cx="954.01" cy="-274" rx="48.38" ry="22"/>
<ellipse fill="none" stroke="black" cx="954.01" cy="-274" rx="52.39" ry="26"/>
<text text-anchor="middle" x="954.01" y="-270.3" font-family="Times,serif" font-size="14.00">Pol_rec</text>
</a>
</g>
</g>
<!-- ring_pol_Pol_rec&#45;&gt;ring_pol_Pol_rect -->
<g id="edge71" class="edge">
<title>ring_pol_Pol_rec&#45;&gt;ring_pol_Pol_rect</title>
<path fill="none" stroke="black" d="M905.19,-264.52C811.77,-248.29 608.4,-212.95 511.89,-196.19"/>
<polygon fill="black" stroke="black" points="512.22,-192.69 501.77,-194.43 511.03,-199.59 512.22,-192.69"/>
</g>
<!-- ring_pol_Pol_ind -->
<g id="node37" class="node">
<title>ring_pol_Pol_ind</title>
<g id="a_node37"><a xlink:href="ring_pol.html#Pol_ind" xlink:title="Pol_ind">
<ellipse fill="#7fffd4" stroke="black" cx="682.01" cy="-186" rx="44.36" ry="18"/>
<ellipse fill="none" stroke="black" cx="682.01" cy="-186" rx="48.38" ry="22"/>
<ellipse fill="none" stroke="black" cx="682.01" cy="-186" rx="52.39" ry="26"/>
<text text-anchor="middle" x="682.01" y="-182.3" font-family="Times,serif" font-size="14.00">Pol_ind</text>
</a>
</g>
</g>
<!-- ring_pol_Pol_ind&#45;&gt;ring_pol_PX -->
<g id="edge72" class="edge">
<title>ring_pol_Pol_ind&#45;&gt;ring_pol_PX</title>
<path fill="none" stroke="black" d="M640.07,-170.33C597.12,-155.31 531.26,-132.27 491.93,-118.51"/>
<polygon fill="black" stroke="black" points="492.89,-115.14 482.29,-115.14 490.58,-121.75 492.89,-115.14"/>
</g>
<!-- ring_pol_Pol_ind&#45;&gt;ring_pol_Pconst -->
<g id="edge73" class="edge">
<title>ring_pol_Pol_ind&#45;&gt;ring_pol_Pconst</title>
<path fill="none" stroke="black" d="M680.4,-159.89C679.88,-151.84 679.31,-142.88 678.78,-134.66"/>
<polygon fill="black" stroke="black" points="682.26,-134.17 678.13,-124.41 675.27,-134.61 682.26,-134.17"/>
</g>
<!-- ring_pol_Pol_ind&#45;&gt;ring_pol_Pol -->
<g id="edge74" class="edge">
<title>ring_pol_Pol_ind&#45;&gt;ring_pol_Pol</title>
<path fill="none" stroke="black" d="M708.66,-163.51C744.74,-134.41 808.63,-82.89 843.55,-54.73"/>
<polygon fill="black" stroke="black" points="845.77,-57.43 851.36,-48.43 841.37,-51.98 845.77,-57.43"/>
</g>
<!-- ring_pol_Pol_rect&#45;&gt;ring_pol_PX -->
<g id="edge75" class="edge">
<title>ring_pol_Pol_rect&#45;&gt;ring_pol_PX</title>
<path fill="none" stroke="black" d="M459.01,-167.69C459.01,-157.89 459.01,-145.42 459.01,-134.33"/>
<polygon fill="black" stroke="black" points="462.51,-134.26 459.01,-124.26 455.51,-134.26 462.51,-134.26"/>
</g>
<!-- ring_pol_Pol_rect&#45;&gt;ring_pol_Pconst -->
<g id="edge76" class="edge">
<title>ring_pol_Pol_rect&#45;&gt;ring_pol_Pconst</title>
<path fill="none" stroke="black" d="M492.59,-172.98C531.18,-159.18 594.51,-136.52 635.98,-121.68"/>
<polygon fill="black" stroke="black" points="637.28,-124.93 645.51,-118.27 634.92,-118.34 637.28,-124.93"/>
</g>
<!-- ring_pol_Pol_rect&#45;&gt;ring_pol_Pol -->
<g id="edge77" class="edge">
<title>ring_pol_Pol_rect&#45;&gt;ring_pol_Pol</title>
<path fill="none" stroke="black" d="M480.32,-169.68C511.05,-148.29 570.23,-109.69 626.01,-88 696.03,-60.77 783.17,-46.02 831.46,-39.4"/>
<polygon fill="black" stroke="black" points="831.99,-42.86 841.45,-38.07 831.07,-35.92 831.99,-42.86"/>
</g>
</g>
</svg>
