<?xml version="1.0" encoding="UTF-8" standalone="no"?>
<!DOCTYPE svg PUBLIC "-//W3C//DTD SVG 1.1//EN"
 "http://www.w3.org/Graphics/SVG/1.1/DTD/svg11.dtd">
<!-- Generated by graphviz version 2.43.0 (0)
 -->
<!-- Title: HoTT_Algebra_AbGroups_AbelianGroup Pages: 1 -->
<svg width="3106pt" height="1551pt"
 viewBox="0.00 0.00 3106.27 1550.50" xmlns="http://www.w3.org/2000/svg" xmlns:xlink="http://www.w3.org/1999/xlink">
<g id="graph0" class="graph" transform="scale(1 1) rotate(0) translate(4 1546.5)">
<title>HoTT_Algebra_AbGroups_AbelianGroup</title>
<polygon fill="white" stroke="transparent" points="-4,4 -4,-1546.5 3102.27,-1546.5 3102.27,4 -4,4"/>
<g id="clust1" class="cluster">
<title>cluster_AbelianGroup</title>
<polygon fill="#ffffc3" stroke="black" points="8,-23.24 8,-1519.26 3077,-1519.26 3077,-23.24 8,-23.24"/>
<text text-anchor="middle" x="65" y="-1504.06" font-family="Times,serif" font-size="14.00">AbelianGroup</text>
</g>
<!-- AbelianGroup_ab_cokernel_embedding_rec -->
<g id="node1" class="node">
<title>AbelianGroup_ab_cokernel_embedding_rec</title>
<g id="a_node1"><a xlink:href="AbelianGroup.html#ab_cokernel_embedding_rec" xlink:title="ab_cokernel_embedding_rec">
<ellipse fill="#f070d1" stroke="black" cx="1402" cy="-1353.24" rx="141.07" ry="18"/>
<ellipse fill="none" stroke="black" cx="1402" cy="-1353.24" rx="145.07" ry="22"/>
<ellipse fill="none" stroke="black" cx="1402" cy="-1353.24" rx="149.07" ry="26"/>
<text text-anchor="middle" x="1402" y="-1349.54" font-family="Times,serif" font-size="14.00">ab_cokernel_embedding_rec</text>
</a>
</g>
</g>
<!-- AbelianGroup_ab_cokernel_embedding -->
<g id="node2" class="node">
<title>AbelianGroup_ab_cokernel_embedding</title>
<g id="a_node2"><a xlink:href="AbelianGroup.html#ab_cokernel_embedding" xlink:title="ab_cokernel_embedding">
<ellipse fill="#f070d1" stroke="black" cx="633" cy="-1098.24" rx="122.38" ry="18"/>
<text text-anchor="middle" x="633" y="-1094.54" font-family="Times,serif" font-size="14.00">ab_cokernel_embedding</text>
</a>
</g>
</g>
<!-- AbelianGroup_ab_cokernel_embedding_rec&#45;&gt;AbelianGroup_ab_cokernel_embedding -->
<g id="edge1" class="edge">
<title>AbelianGroup_ab_cokernel_embedding_rec&#45;&gt;AbelianGroup_ab_cokernel_embedding</title>
<path fill="none" stroke="black" d="M1334.43,-1330.01C1185.18,-1280.91 829.62,-1163.93 690.35,-1118.11"/>
<polygon fill="black" stroke="black" points="691.29,-1114.73 680.7,-1114.93 689.1,-1121.38 691.29,-1114.73"/>
</g>
<!-- AbelianGroup_isgraph_abgroup -->
<g id="node25" class="node">
<title>AbelianGroup_isgraph_abgroup</title>
<g id="a_node25"><a xlink:href="AbelianGroup.html#isgraph_abgroup" xlink:title="isgraph_abgroup">
<ellipse fill="#f070d1" stroke="black" cx="2179" cy="-587.24" rx="89.08" ry="18"/>
<text text-anchor="middle" x="2179" y="-583.54" font-family="Times,serif" font-size="14.00">isgraph_abgroup</text>
</a>
</g>
</g>
<!-- AbelianGroup_ab_cokernel_embedding_rec&#45;&gt;AbelianGroup_isgraph_abgroup -->
<g id="edge2" class="edge">
<title>AbelianGroup_ab_cokernel_embedding_rec&#45;&gt;AbelianGroup_isgraph_abgroup</title>
<path fill="none" stroke="black" d="M1522.36,-1337.79C1734.65,-1309.56 2161.59,-1239.55 2250,-1124.24 2307.12,-1049.74 2174.94,-1085.46 2106,-868.24 2076.66,-775.8 2133.09,-663.54 2162.61,-613.93"/>
<polygon fill="black" stroke="black" points="2165.75,-615.5 2167.95,-605.14 2159.77,-611.87 2165.75,-615.5"/>
</g>
<!-- AbelianGroup_QuotientAbGroup -->
<g id="node28" class="node">
<title>AbelianGroup_QuotientAbGroup</title>
<g id="a_node28"><a xlink:href="AbelianGroup.html#QuotientAbGroup" xlink:title="QuotientAbGroup">
<ellipse fill="#f070d1" stroke="black" cx="439" cy="-842.24" rx="92.08" ry="18"/>
<text text-anchor="middle" x="439" y="-838.54" font-family="Times,serif" font-size="14.00">QuotientAbGroup</text>
</a>
</g>
</g>
<!-- AbelianGroup_ab_cokernel_embedding&#45;&gt;AbelianGroup_QuotientAbGroup -->
<g id="edge3" class="edge">
<title>AbelianGroup_ab_cokernel_embedding&#45;&gt;AbelianGroup_QuotientAbGroup</title>
<path fill="none" stroke="black" d="M619.97,-1080.18C586.49,-1036.35 497.35,-919.63 458.05,-868.19"/>
<polygon fill="black" stroke="black" points="460.82,-866.05 451.97,-860.22 455.26,-870.3 460.82,-866.05"/>
</g>
<!-- AbelianGroup_ab_cokernel -->
<g id="node3" class="node">
<title>AbelianGroup_ab_cokernel</title>
<g id="a_node3"><a xlink:href="AbelianGroup.html#ab_cokernel" xlink:title="ab_cokernel">
<ellipse fill="#f070d1" stroke="black" cx="419" cy="-1098.24" rx="65.77" ry="18"/>
<ellipse fill="none" stroke="black" cx="419" cy="-1098.24" rx="69.78" ry="22"/>
<ellipse fill="none" stroke="black" cx="419" cy="-1098.24" rx="73.79" ry="26"/>
<text text-anchor="middle" x="419" y="-1094.54" font-family="Times,serif" font-size="14.00">ab_cokernel</text>
</a>
</g>
</g>
<!-- AbelianGroup_ab_cokernel&#45;&gt;AbelianGroup_QuotientAbGroup -->
<g id="edge4" class="edge">
<title>AbelianGroup_ab_cokernel&#45;&gt;AbelianGroup_QuotientAbGroup</title>
<path fill="none" stroke="black" d="M420.99,-1071.96C424.77,-1024.01 432.94,-920.24 436.84,-870.68"/>
<polygon fill="black" stroke="black" points="440.35,-870.65 437.65,-860.41 433.37,-870.1 440.35,-870.65"/>
</g>
<!-- AbelianGroup_ab_image_in_embedding -->
<g id="node4" class="node">
<title>AbelianGroup_ab_image_in_embedding</title>
<g id="a_node4"><a xlink:href="AbelianGroup.html#ab_image_in_embedding" xlink:title="ab_image_in_embedding">
<ellipse fill="#f070d1" stroke="black" cx="2917" cy="-1098.24" rx="124.27" ry="18"/>
<ellipse fill="none" stroke="black" cx="2917" cy="-1098.24" rx="128.27" ry="22"/>
<ellipse fill="none" stroke="black" cx="2917" cy="-1098.24" rx="132.28" ry="26"/>
<text text-anchor="middle" x="2917" y="-1094.54" font-family="Times,serif" font-size="14.00">ab_image_in_embedding</text>
</a>
</g>
</g>
<!-- AbelianGroup_ab_image_embedding -->
<g id="node5" class="node">
<title>AbelianGroup_ab_image_embedding</title>
<g id="a_node5"><a xlink:href="AbelianGroup.html#ab_image_embedding" xlink:title="ab_image_embedding">
<ellipse fill="#f070d1" stroke="black" cx="2939" cy="-842.24" rx="110.48" ry="18"/>
<text text-anchor="middle" x="2939" y="-838.54" font-family="Times,serif" font-size="14.00">ab_image_embedding</text>
</a>
</g>
</g>
<!-- AbelianGroup_ab_image_in_embedding&#45;&gt;AbelianGroup_ab_image_embedding -->
<g id="edge5" class="edge">
<title>AbelianGroup_ab_image_in_embedding&#45;&gt;AbelianGroup_ab_image_embedding</title>
<path fill="none" stroke="black" d="M2919.19,-1071.96C2923.34,-1024.01 2932.33,-920.24 2936.62,-870.68"/>
<polygon fill="black" stroke="black" points="2940.14,-870.67 2937.51,-860.41 2933.16,-870.07 2940.14,-870.67"/>
</g>
<!-- AbelianGroup_ab_image_embedding&#45;&gt;AbelianGroup_isgraph_abgroup -->
<g id="edge6" class="edge">
<title>AbelianGroup_ab_image_embedding&#45;&gt;AbelianGroup_isgraph_abgroup</title>
<path fill="none" stroke="black" d="M2892.6,-825.79C2759.32,-781.42 2375.75,-653.73 2233.2,-606.28"/>
<polygon fill="black" stroke="black" points="2233.95,-602.84 2223.36,-603.01 2231.74,-609.49 2233.95,-602.84"/>
</g>
<!-- AbelianGroup_isnormal_ab_subgroup -->
<g id="node30" class="node">
<title>AbelianGroup_isnormal_ab_subgroup</title>
<g id="a_node30"><a xlink:href="AbelianGroup.html#isnormal_ab_subgroup" xlink:title="isnormal_ab_subgroup">
<ellipse fill="#f070d1" stroke="black" cx="1678" cy="-331.24" rx="115.08" ry="18"/>
<text text-anchor="middle" x="1678" y="-327.54" font-family="Times,serif" font-size="14.00">isnormal_ab_subgroup</text>
</a>
</g>
</g>
<!-- AbelianGroup_ab_image_embedding&#45;&gt;AbelianGroup_isnormal_ab_subgroup -->
<g id="edge7" class="edge">
<title>AbelianGroup_ab_image_embedding&#45;&gt;AbelianGroup_isnormal_ab_subgroup</title>
<path fill="none" stroke="black" d="M2902.22,-825.15C2802.25,-781.53 2516.92,-657.8 2277,-561.24 2076.14,-480.4 1834.77,-390.22 1730.36,-351.55"/>
<polygon fill="black" stroke="black" points="1731.28,-348.16 1720.69,-347.97 1728.85,-354.73 1731.28,-348.16"/>
</g>
<!-- AbelianGroup_ab_mul_nat_homo -->
<g id="node6" class="node">
<title>AbelianGroup_ab_mul_nat_homo</title>
<g id="a_node6"><a xlink:href="AbelianGroup.html#ab_mul_nat_homo" xlink:title="ab_mul_nat_homo">
<ellipse fill="#f070d1" stroke="black" cx="2968" cy="-587.24" rx="92.89" ry="18"/>
<ellipse fill="none" stroke="black" cx="2968" cy="-587.24" rx="96.89" ry="22"/>
<ellipse fill="none" stroke="black" cx="2968" cy="-587.24" rx="100.88" ry="26"/>
<text text-anchor="middle" x="2968" y="-583.54" font-family="Times,serif" font-size="14.00">ab_mul_nat_homo</text>
</a>
</g>
</g>
<!-- AbelianGroup_ab_mul_nat -->
<g id="node7" class="node">
<title>AbelianGroup_ab_mul_nat</title>
<g id="a_node7"><a xlink:href="AbelianGroup.html#ab_mul_nat" xlink:title="ab_mul_nat">
<ellipse fill="#f070d1" stroke="black" cx="2717" cy="-331.24" rx="63.89" ry="18"/>
<text text-anchor="middle" x="2717" y="-327.54" font-family="Times,serif" font-size="14.00">ab_mul_nat</text>
</a>
</g>
</g>
<!-- AbelianGroup_ab_mul_nat_homo&#45;&gt;AbelianGroup_ab_mul_nat -->
<g id="edge8" class="edge">
<title>AbelianGroup_ab_mul_nat_homo&#45;&gt;AbelianGroup_ab_mul_nat</title>
<path fill="none" stroke="black" d="M2943.93,-561.88C2895.83,-513.21 2788.35,-404.44 2740.62,-356.14"/>
<polygon fill="black" stroke="black" points="2743.01,-353.58 2733.49,-348.92 2738.03,-358.5 2743.01,-353.58"/>
</g>
<!-- AbelianGroup_AbGroup -->
<g id="node43" class="node">
<title>AbelianGroup_AbGroup</title>
<g id="a_node43"><a xlink:href="AbelianGroup.html#AbGroup" xlink:title="AbGroup">
<ellipse fill="#e2cdfa" stroke="black" cx="1862" cy="-99.24" rx="51.99" ry="18"/>
<text text-anchor="middle" x="1862" y="-95.54" font-family="Times,serif" font-size="14.00">AbGroup</text>
</a>
</g>
</g>
<!-- AbelianGroup_ab_mul_nat&#45;&gt;AbelianGroup_AbGroup -->
<g id="edge9" class="edge">
<title>AbelianGroup_ab_mul_nat&#45;&gt;AbelianGroup_AbGroup</title>
<path fill="none" stroke="black" d="M2679.28,-316.73C2667.99,-312.85 2655.54,-308.72 2644,-305.24 2371.24,-222.9 2039.33,-142.24 1913.6,-112.37"/>
<polygon fill="black" stroke="black" points="1914.38,-108.96 1903.84,-110.06 1912.76,-115.77 1914.38,-108.96"/>
</g>
<!-- AbelianGroup_ab_homo_negation -->
<g id="node8" class="node">
<title>AbelianGroup_ab_homo_negation</title>
<g id="a_node8"><a xlink:href="AbelianGroup.html#ab_homo_negation" xlink:title="ab_homo_negation">
<ellipse fill="#f070d1" stroke="black" cx="2530" cy="-331.24" rx="96.7" ry="18"/>
<ellipse fill="none" stroke="black" cx="2530" cy="-331.24" rx="100.69" ry="22"/>
<ellipse fill="none" stroke="black" cx="2530" cy="-331.24" rx="104.68" ry="26"/>
<text text-anchor="middle" x="2530" y="-327.54" font-family="Times,serif" font-size="14.00">ab_homo_negation</text>
</a>
</g>
</g>
<!-- AbelianGroup_ab_homo_negation&#45;&gt;AbelianGroup_AbGroup -->
<g id="edge10" class="edge">
<title>AbelianGroup_ab_homo_negation&#45;&gt;AbelianGroup_AbGroup</title>
<path fill="none" stroke="black" d="M2470.43,-309.73C2338.68,-264.37 2025.01,-156.36 1907.49,-115.9"/>
<polygon fill="black" stroke="black" points="1908.32,-112.49 1897.73,-112.54 1906.04,-119.11 1908.32,-112.49"/>
</g>
<!-- AbelianGroup_transport_iso_abgrouphomomorphism_to_const -->
<g id="node9" class="node">
<title>AbelianGroup_transport_iso_abgrouphomomorphism_to_const</title>
<g id="a_node9"><a xlink:href="AbelianGroup.html#transport_iso_abgrouphomomorphism_to_const" xlink:title="transport_iso_abgrouphomomorphism_to_const">
<ellipse fill="#f070d1" stroke="black" cx="1483" cy="-1098.24" rx="230.16" ry="18"/>
<ellipse fill="none" stroke="black" cx="1483" cy="-1098.24" rx="234.16" ry="22"/>
<ellipse fill="none" stroke="black" cx="1483" cy="-1098.24" rx="238.16" ry="26"/>
<text text-anchor="middle" x="1483" y="-1094.54" font-family="Times,serif" font-size="14.00">transport_iso_abgrouphomomorphism_to_const</text>
</a>
</g>
</g>
<!-- AbelianGroup_transport_abgrouphomomorphism_to_const -->
<g id="node10" class="node">
<title>AbelianGroup_transport_abgrouphomomorphism_to_const</title>
<g id="a_node10"><a xlink:href="AbelianGroup.html#transport_abgrouphomomorphism_to_const" xlink:title="transport_abgrouphomomorphism_to_const">
<ellipse fill="#f070d1" stroke="black" cx="1395" cy="-842.24" rx="212.56" ry="18"/>
<text text-anchor="middle" x="1395" y="-838.54" font-family="Times,serif" font-size="14.00">transport_abgrouphomomorphism_to_const</text>
</a>
</g>
</g>
<!-- AbelianGroup_transport_iso_abgrouphomomorphism_to_const&#45;&gt;AbelianGroup_transport_abgrouphomomorphism_to_const -->
<g id="edge11" class="edge">
<title>AbelianGroup_transport_iso_abgrouphomomorphism_to_const&#45;&gt;AbelianGroup_transport_abgrouphomomorphism_to_const</title>
<path fill="none" stroke="black" d="M1474.24,-1071.96C1457.56,-1023.81 1421.38,-919.37 1404.29,-870.05"/>
<polygon fill="black" stroke="black" points="1407.53,-868.71 1400.95,-860.41 1400.91,-871 1407.53,-868.71"/>
</g>
<!-- AbelianGroup_transport_abgrouphomomorphism_to_const&#45;&gt;AbelianGroup_isgraph_abgroup -->
<g id="edge12" class="edge">
<title>AbelianGroup_transport_abgrouphomomorphism_to_const&#45;&gt;AbelianGroup_isgraph_abgroup</title>
<path fill="none" stroke="black" d="M1446.14,-824.74C1586.89,-779.32 1979.16,-652.73 2124.19,-605.93"/>
<polygon fill="black" stroke="black" points="2125.35,-609.23 2133.79,-602.83 2123.2,-602.57 2125.35,-609.23"/>
</g>
<!-- AbelianGroup_equiv_path_abgroup -->
<g id="node33" class="node">
<title>AbelianGroup_equiv_path_abgroup</title>
<g id="a_node33"><a xlink:href="AbelianGroup.html#equiv_path_abgroup" xlink:title="equiv_path_abgroup">
<ellipse fill="#f070d1" stroke="black" cx="1420" cy="-587.24" rx="104.78" ry="18"/>
<text text-anchor="middle" x="1420" y="-583.54" font-family="Times,serif" font-size="14.00">equiv_path_abgroup</text>
</a>
</g>
</g>
<!-- AbelianGroup_transport_abgrouphomomorphism_to_const&#45;&gt;AbelianGroup_equiv_path_abgroup -->
<g id="edge13" class="edge">
<title>AbelianGroup_transport_abgrouphomomorphism_to_const&#45;&gt;AbelianGroup_equiv_path_abgroup</title>
<path fill="none" stroke="black" d="M1396.72,-823.85C1400.99,-780.6 1412.13,-667.89 1417.3,-615.61"/>
<polygon fill="black" stroke="black" points="1420.8,-615.71 1418.3,-605.42 1413.84,-615.02 1420.8,-615.71"/>
</g>
<!-- AbelianGroup_transport_iso_abgrouphomomorphism_from_const -->
<g id="node11" class="node">
<title>AbelianGroup_transport_iso_abgrouphomomorphism_from_const</title>
<g id="a_node11"><a xlink:href="AbelianGroup.html#transport_iso_abgrouphomomorphism_from_const" xlink:title="transport_iso_abgrouphomomorphism_from_const">
<ellipse fill="#f070d1" stroke="black" cx="1990" cy="-1098.24" rx="243.15" ry="18"/>
<ellipse fill="none" stroke="black" cx="1990" cy="-1098.24" rx="247.16" ry="22"/>
<ellipse fill="none" stroke="black" cx="1990" cy="-1098.24" rx="251.16" ry="26"/>
<text text-anchor="middle" x="1990" y="-1094.54" font-family="Times,serif" font-size="14.00">transport_iso_abgrouphomomorphism_from_const</text>
</a>
</g>
</g>
<!-- AbelianGroup_transport_abgrouphomomorphism_from_const -->
<g id="node12" class="node">
<title>AbelianGroup_transport_abgrouphomomorphism_from_const</title>
<g id="a_node12"><a xlink:href="AbelianGroup.html#transport_abgrouphomomorphism_from_const" xlink:title="transport_abgrouphomomorphism_from_const">
<ellipse fill="#f070d1" stroke="black" cx="1851" cy="-842.24" rx="225.56" ry="18"/>
<text text-anchor="middle" x="1851" y="-838.54" font-family="Times,serif" font-size="14.00">transport_abgrouphomomorphism_from_const</text>
</a>
</g>
</g>
<!-- AbelianGroup_transport_iso_abgrouphomomorphism_from_const&#45;&gt;AbelianGroup_transport_abgrouphomomorphism_from_const -->
<g id="edge14" class="edge">
<title>AbelianGroup_transport_iso_abgrouphomomorphism_from_const&#45;&gt;AbelianGroup_transport_abgrouphomomorphism_from_const</title>
<path fill="none" stroke="black" d="M1976.16,-1071.96C1949.71,-1023.61 1892.18,-918.5 1865.34,-869.44"/>
<polygon fill="black" stroke="black" points="1868.27,-867.5 1860.4,-860.41 1862.13,-870.86 1868.27,-867.5"/>
</g>
<!-- AbelianGroup_transport_abgrouphomomorphism_from_const&#45;&gt;AbelianGroup_isgraph_abgroup -->
<g id="edge15" class="edge">
<title>AbelianGroup_transport_abgrouphomomorphism_from_const&#45;&gt;AbelianGroup_isgraph_abgroup</title>
<path fill="none" stroke="black" d="M1873.03,-824.25C1930.35,-780.03 2084.21,-661.36 2149.28,-611.16"/>
<polygon fill="black" stroke="black" points="2151.71,-613.71 2157.49,-604.83 2147.44,-608.16 2151.71,-613.71"/>
</g>
<!-- AbelianGroup_transport_abgrouphomomorphism_from_const&#45;&gt;AbelianGroup_equiv_path_abgroup -->
<g id="edge16" class="edge">
<title>AbelianGroup_transport_abgrouphomomorphism_from_const&#45;&gt;AbelianGroup_equiv_path_abgroup</title>
<path fill="none" stroke="black" d="M1822.05,-824.25C1746.02,-779.62 1540.76,-659.13 1456.68,-609.77"/>
<polygon fill="black" stroke="black" points="1458.38,-606.71 1447.98,-604.66 1454.83,-612.74 1458.38,-606.71"/>
</g>
<!-- AbelianGroup_ab_kernel -->
<g id="node13" class="node">
<title>AbelianGroup_ab_kernel</title>
<g id="a_node13"><a xlink:href="AbelianGroup.html#ab_kernel" xlink:title="ab_kernel">
<ellipse fill="#f070d1" stroke="black" cx="795" cy="-842.24" rx="55.8" ry="18"/>
<ellipse fill="none" stroke="black" cx="795" cy="-842.24" rx="59.8" ry="22"/>
<ellipse fill="none" stroke="black" cx="795" cy="-842.24" rx="63.79" ry="26"/>
<text text-anchor="middle" x="795" y="-838.54" font-family="Times,serif" font-size="14.00">ab_kernel</text>
</a>
</g>
</g>
<!-- AbelianGroup_ab_kernel&#45;&gt;AbelianGroup_isgraph_abgroup -->
<g id="edge17" class="edge">
<title>AbelianGroup_ab_kernel&#45;&gt;AbelianGroup_isgraph_abgroup</title>
<path fill="none" stroke="black" d="M841.4,-824.13C850.16,-821.24 859.31,-818.47 868,-816.24 1323.76,-699.35 1884.11,-624.14 2094.17,-598.27"/>
<polygon fill="black" stroke="black" points="2094.71,-601.73 2104.21,-597.04 2093.86,-594.79 2094.71,-601.73"/>
</g>
<!-- AbelianGroup_isabgroup_subgroup -->
<g id="node31" class="node">
<title>AbelianGroup_isabgroup_subgroup</title>
<g id="a_node31"><a xlink:href="AbelianGroup.html#isabgroup_subgroup" xlink:title="isabgroup_subgroup">
<ellipse fill="#f070d1" stroke="black" cx="795" cy="-587.24" rx="105.08" ry="18"/>
<text text-anchor="middle" x="795" y="-583.54" font-family="Times,serif" font-size="14.00">isabgroup_subgroup</text>
</a>
</g>
</g>
<!-- AbelianGroup_ab_kernel&#45;&gt;AbelianGroup_isabgroup_subgroup -->
<g id="edge18" class="edge">
<title>AbelianGroup_ab_kernel&#45;&gt;AbelianGroup_isabgroup_subgroup</title>
<path fill="none" stroke="black" d="M795,-816.06C795,-768.3 795,-664.94 795,-615.57"/>
<polygon fill="black" stroke="black" points="798.5,-615.34 795,-605.34 791.5,-615.34 798.5,-615.34"/>
</g>
<!-- AbelianGroup_Build_AbGroup -->
<g id="node42" class="node">
<title>AbelianGroup_Build_AbGroup</title>
<g id="a_node42"><a xlink:href="AbelianGroup.html#Build_AbGroup" xlink:title="Build_AbGroup">
<ellipse fill="#7faaff" stroke="black" cx="1036" cy="-99.24" rx="80.69" ry="18"/>
<text text-anchor="middle" x="1036" y="-95.54" font-family="Times,serif" font-size="14.00">Build_AbGroup</text>
</a>
</g>
</g>
<!-- AbelianGroup_ab_kernel&#45;&gt;AbelianGroup_Build_AbGroup -->
<g id="edge19" class="edge">
<title>AbelianGroup_ab_kernel&#45;&gt;AbelianGroup_Build_AbGroup</title>
<path fill="none" stroke="black" d="M811.88,-817.07C838.75,-776.96 890.14,-693.14 909,-613.24 940.88,-478.2 809.44,-435.22 858,-305.24 887.61,-225.97 963.23,-157.06 1005.77,-122.97"/>
<polygon fill="black" stroke="black" points="1008.13,-125.56 1013.81,-116.62 1003.79,-120.07 1008.13,-125.56"/>
</g>
<!-- AbelianGroup_abgroup_first_iso -->
<g id="node14" class="node">
<title>AbelianGroup_abgroup_first_iso</title>
<g id="a_node14"><a xlink:href="AbelianGroup.html#abgroup_first_iso" xlink:title="abgroup_first_iso">
<ellipse fill="#f070d1" stroke="black" cx="1129" cy="-1098.24" rx="90.2" ry="18"/>
<ellipse fill="none" stroke="black" cx="1129" cy="-1098.24" rx="94.19" ry="22"/>
<ellipse fill="none" stroke="black" cx="1129" cy="-1098.24" rx="98.18" ry="26"/>
<text text-anchor="middle" x="1129" y="-1094.54" font-family="Times,serif" font-size="14.00">abgroup_first_iso</text>
</a>
</g>
</g>
<!-- AbelianGroup_abgroup_image -->
<g id="node15" class="node">
<title>AbelianGroup_abgroup_image</title>
<g id="a_node15"><a xlink:href="AbelianGroup.html#abgroup_image" xlink:title="abgroup_image">
<ellipse fill="#f070d1" stroke="black" cx="631" cy="-842.24" rx="81.79" ry="18"/>
<text text-anchor="middle" x="631" y="-838.54" font-family="Times,serif" font-size="14.00">abgroup_image</text>
</a>
</g>
</g>
<!-- AbelianGroup_abgroup_first_iso&#45;&gt;AbelianGroup_abgroup_image -->
<g id="edge20" class="edge">
<title>AbelianGroup_abgroup_first_iso&#45;&gt;AbelianGroup_abgroup_image</title>
<path fill="none" stroke="black" d="M1085.24,-1074.92C989.56,-1026.12 762.92,-910.52 670.89,-863.58"/>
<polygon fill="black" stroke="black" points="672.39,-860.42 661.89,-858.99 669.21,-866.66 672.39,-860.42"/>
</g>
<!-- AbelianGroup_abgroup_first_iso&#45;&gt;AbelianGroup_QuotientAbGroup -->
<g id="edge21" class="edge">
<title>AbelianGroup_abgroup_first_iso&#45;&gt;AbelianGroup_QuotientAbGroup</title>
<path fill="none" stroke="black" d="M1073.41,-1076.78C942.45,-1028.57 616.11,-908.44 489.93,-861.99"/>
<polygon fill="black" stroke="black" points="491.07,-858.68 480.48,-858.51 488.66,-865.25 491.07,-858.68"/>
</g>
<!-- AbelianGroup_abgroup_image&#45;&gt;AbelianGroup_isgraph_abgroup -->
<g id="edge22" class="edge">
<title>AbelianGroup_abgroup_image&#45;&gt;AbelianGroup_isgraph_abgroup</title>
<path fill="none" stroke="black" d="M677.51,-827.37C691.71,-823.44 707.42,-819.37 722,-816.24 1238.17,-705.32 1868.12,-625.16 2093.66,-598.17"/>
<polygon fill="black" stroke="black" points="2094.25,-601.63 2103.77,-596.97 2093.42,-594.68 2094.25,-601.63"/>
</g>
<!-- AbelianGroup_abgroup_image&#45;&gt;AbelianGroup_isabgroup_subgroup -->
<g id="edge23" class="edge">
<title>AbelianGroup_abgroup_image&#45;&gt;AbelianGroup_isabgroup_subgroup</title>
<path fill="none" stroke="black" d="M642.02,-824.25C670.2,-780.77 745.06,-665.29 778.48,-613.73"/>
<polygon fill="black" stroke="black" points="781.53,-615.45 784.03,-605.16 775.66,-611.65 781.53,-615.45"/>
</g>
<!-- AbelianGroup_abgroup_image&#45;&gt;AbelianGroup_Build_AbGroup -->
<g id="edge24" class="edge">
<title>AbelianGroup_abgroup_image&#45;&gt;AbelianGroup_Build_AbGroup</title>
<path fill="none" stroke="black" d="M582.39,-827.68C470.2,-793.75 208.5,-697.97 285,-561.24 437.35,-288.96 823.57,-157.93 974.36,-115.9"/>
<polygon fill="black" stroke="black" points="975.66,-119.17 984.37,-113.14 973.8,-112.42 975.66,-119.17"/>
</g>
<!-- AbelianGroup_ispointedcat_abgroup -->
<g id="node16" class="node">
<title>AbelianGroup_ispointedcat_abgroup</title>
<g id="a_node16"><a xlink:href="AbelianGroup.html#ispointedcat_abgroup" xlink:title="ispointedcat_abgroup">
<ellipse fill="#f070d1" stroke="black" cx="2946" cy="-1353.24" rx="110.48" ry="18"/>
<ellipse fill="none" stroke="black" cx="2946" cy="-1353.24" rx="114.48" ry="22"/>
<ellipse fill="none" stroke="black" cx="2946" cy="-1353.24" rx="118.48" ry="26"/>
<text text-anchor="middle" x="2946" y="-1349.54" font-family="Times,serif" font-size="14.00">ispointedcat_abgroup</text>
</a>
</g>
</g>
<!-- AbelianGroup_abgroup_trivial -->
<g id="node17" class="node">
<title>AbelianGroup_abgroup_trivial</title>
<g id="a_node17"><a xlink:href="AbelianGroup.html#abgroup_trivial" xlink:title="abgroup_trivial">
<ellipse fill="#f070d1" stroke="black" cx="1912" cy="-331.24" rx="81.49" ry="18"/>
<text text-anchor="middle" x="1912" y="-327.54" font-family="Times,serif" font-size="14.00">abgroup_trivial</text>
</a>
</g>
</g>
<!-- AbelianGroup_ispointedcat_abgroup&#45;&gt;AbelianGroup_abgroup_trivial -->
<g id="edge25" class="edge">
<title>AbelianGroup_ispointedcat_abgroup&#45;&gt;AbelianGroup_abgroup_trivial</title>
<path fill="none" stroke="black" d="M2963.13,-1327.38C3016.63,-1246.42 3170.44,-985.78 3058,-816.24 2991.72,-716.3 2177.86,-425.47 1963.48,-350.2"/>
<polygon fill="black" stroke="black" points="1964.32,-346.78 1953.73,-346.78 1962.01,-353.39 1964.32,-346.78"/>
</g>
<!-- AbelianGroup_is1cat_abgroup -->
<g id="node20" class="node">
<title>AbelianGroup_is1cat_abgroup</title>
<g id="a_node20"><a xlink:href="AbelianGroup.html#is1cat_abgroup" xlink:title="is1cat_abgroup">
<ellipse fill="#f070d1" stroke="black" cx="2686" cy="-1098.24" rx="81.49" ry="18"/>
<text text-anchor="middle" x="2686" y="-1094.54" font-family="Times,serif" font-size="14.00">is1cat_abgroup</text>
</a>
</g>
</g>
<!-- AbelianGroup_ispointedcat_abgroup&#45;&gt;AbelianGroup_is1cat_abgroup -->
<g id="edge26" class="edge">
<title>AbelianGroup_ispointedcat_abgroup&#45;&gt;AbelianGroup_is1cat_abgroup</title>
<path fill="none" stroke="black" d="M2920.6,-1327.52C2870.63,-1278.89 2760.12,-1171.37 2710.71,-1123.29"/>
<polygon fill="black" stroke="black" points="2712.93,-1120.57 2703.33,-1116.1 2708.05,-1125.58 2712.93,-1120.57"/>
</g>
<!-- AbelianGroup_abgroup_trivial&#45;&gt;AbelianGroup_Build_AbGroup -->
<g id="edge27" class="edge">
<title>AbelianGroup_abgroup_trivial&#45;&gt;AbelianGroup_Build_AbGroup</title>
<path fill="none" stroke="black" d="M1861.76,-317.05C1710.42,-277.31 1259.3,-158.87 1095.92,-115.97"/>
<polygon fill="black" stroke="black" points="1096.6,-112.53 1086.04,-113.38 1094.82,-119.3 1096.6,-112.53"/>
</g>
<!-- AbelianGroup_abgroup_trivial&#45;&gt;AbelianGroup_AbGroup -->
<g id="edge28" class="edge">
<title>AbelianGroup_abgroup_trivial&#45;&gt;AbelianGroup_AbGroup</title>
<path fill="none" stroke="black" d="M1908.24,-312.95C1899.61,-273.23 1878.29,-175.19 1867.9,-127.36"/>
<polygon fill="black" stroke="black" points="1871.28,-126.44 1865.73,-117.41 1864.44,-127.93 1871.28,-126.44"/>
</g>
<!-- AbelianGroup_hasequivs_abgroup -->
<g id="node18" class="node">
<title>AbelianGroup_hasequivs_abgroup</title>
<g id="a_node18"><a xlink:href="AbelianGroup.html#hasequivs_abgroup" xlink:title="hasequivs_abgroup">
<ellipse fill="#f070d1" stroke="black" cx="2691" cy="-1353.24" rx="100.18" ry="18"/>
<ellipse fill="none" stroke="black" cx="2691" cy="-1353.24" rx="104.18" ry="22"/>
<ellipse fill="none" stroke="black" cx="2691" cy="-1353.24" rx="108.18" ry="26"/>
<text text-anchor="middle" x="2691" y="-1349.54" font-family="Times,serif" font-size="14.00">hasequivs_abgroup</text>
</a>
</g>
</g>
<!-- AbelianGroup_hasequivs_abgroup&#45;&gt;AbelianGroup_is1cat_abgroup -->
<g id="edge29" class="edge">
<title>AbelianGroup_hasequivs_abgroup&#45;&gt;AbelianGroup_is1cat_abgroup</title>
<path fill="none" stroke="black" d="M2690.5,-1327.06C2689.56,-1279.3 2687.52,-1175.94 2686.54,-1126.57"/>
<polygon fill="black" stroke="black" points="2690.03,-1126.27 2686.34,-1116.34 2683.04,-1126.41 2690.03,-1126.27"/>
</g>
<!-- AbelianGroup_hasmorext_abgroup -->
<g id="node19" class="node">
<title>AbelianGroup_hasmorext_abgroup</title>
<g id="a_node19"><a xlink:href="AbelianGroup.html#hasmorext_abgroup" xlink:title="hasmorext_abgroup">
<ellipse fill="#f070d1" stroke="black" cx="2454" cy="-1353.24" rx="102.87" ry="18"/>
<ellipse fill="none" stroke="black" cx="2454" cy="-1353.24" rx="106.88" ry="22"/>
<ellipse fill="none" stroke="black" cx="2454" cy="-1353.24" rx="110.88" ry="26"/>
<text text-anchor="middle" x="2454" y="-1349.54" font-family="Times,serif" font-size="14.00">hasmorext_abgroup</text>
</a>
</g>
</g>
<!-- AbelianGroup_hasmorext_abgroup&#45;&gt;AbelianGroup_is1cat_abgroup -->
<g id="edge30" class="edge">
<title>AbelianGroup_hasmorext_abgroup&#45;&gt;AbelianGroup_is1cat_abgroup</title>
<path fill="none" stroke="black" d="M2476.67,-1327.52C2521.17,-1278.99 2619.45,-1171.81 2663.68,-1123.58"/>
<polygon fill="black" stroke="black" points="2666.36,-1125.84 2670.54,-1116.1 2661.2,-1121.1 2666.36,-1125.84"/>
</g>
<!-- AbelianGroup_is2graph_abgroup -->
<g id="node21" class="node">
<title>AbelianGroup_is2graph_abgroup</title>
<g id="a_node21"><a xlink:href="AbelianGroup.html#is2graph_abgroup" xlink:title="is2graph_abgroup">
<ellipse fill="#f070d1" stroke="black" cx="2716" cy="-842.24" rx="94.78" ry="18"/>
<text text-anchor="middle" x="2716" y="-838.54" font-family="Times,serif" font-size="14.00">is2graph_abgroup</text>
</a>
</g>
</g>
<!-- AbelianGroup_is1cat_abgroup&#45;&gt;AbelianGroup_is2graph_abgroup -->
<g id="edge31" class="edge">
<title>AbelianGroup_is1cat_abgroup&#45;&gt;AbelianGroup_is2graph_abgroup</title>
<path fill="none" stroke="black" d="M2688.01,-1080.18C2693.12,-1036.99 2706.57,-923.06 2712.78,-870.5"/>
<polygon fill="black" stroke="black" points="2716.26,-870.9 2713.95,-860.56 2709.31,-870.08 2716.26,-870.9"/>
</g>
<!-- AbelianGroup_is01cat_abgroup -->
<g id="node24" class="node">
<title>AbelianGroup_is01cat_abgroup</title>
<g id="a_node24"><a xlink:href="AbelianGroup.html#is01cat_abgroup" xlink:title="is01cat_abgroup">
<ellipse fill="#f070d1" stroke="black" cx="2516" cy="-842.24" rx="87.18" ry="18"/>
<text text-anchor="middle" x="2516" y="-838.54" font-family="Times,serif" font-size="14.00">is01cat_abgroup</text>
</a>
</g>
</g>
<!-- AbelianGroup_is1cat_abgroup&#45;&gt;AbelianGroup_is01cat_abgroup -->
<g id="edge32" class="edge">
<title>AbelianGroup_is1cat_abgroup&#45;&gt;AbelianGroup_is01cat_abgroup</title>
<path fill="none" stroke="black" d="M2674.58,-1080.18C2645.37,-1036.53 2567.77,-920.59 2533.12,-868.83"/>
<polygon fill="black" stroke="black" points="2535.84,-866.59 2527.37,-860.22 2530.02,-870.48 2535.84,-866.59"/>
</g>
<!-- AbelianGroup_is2graph_abgroup&#45;&gt;AbelianGroup_isgraph_abgroup -->
<g id="edge33" class="edge">
<title>AbelianGroup_is2graph_abgroup&#45;&gt;AbelianGroup_isgraph_abgroup</title>
<path fill="none" stroke="black" d="M2682,-825.22C2588.1,-780.98 2325.3,-657.17 2221.73,-608.37"/>
<polygon fill="black" stroke="black" points="2223.04,-605.12 2212.51,-604.03 2220.06,-611.45 2223.04,-605.12"/>
</g>
<!-- AbelianGroup_is0gpd_grouphomomorphism -->
<g id="node22" class="node">
<title>AbelianGroup_is0gpd_grouphomomorphism</title>
<g id="a_node22"><a xlink:href="AbelianGroup.html#is0gpd_grouphomomorphism" xlink:title="is0gpd_grouphomomorphism">
<ellipse fill="#f070d1" stroke="black" cx="2433" cy="-1098.24" rx="145.67" ry="18"/>
<ellipse fill="none" stroke="black" cx="2433" cy="-1098.24" rx="149.67" ry="22"/>
<ellipse fill="none" stroke="black" cx="2433" cy="-1098.24" rx="153.67" ry="26"/>
<text text-anchor="middle" x="2433" y="-1094.54" font-family="Times,serif" font-size="14.00">is0gpd_grouphomomorphism</text>
</a>
</g>
</g>
<!-- AbelianGroup_is01cat_grouphomomorphism -->
<g id="node23" class="node">
<title>AbelianGroup_is01cat_grouphomomorphism</title>
<g id="a_node23"><a xlink:href="AbelianGroup.html#is01cat_grouphomomorphism" xlink:title="is01cat_grouphomomorphism">
<ellipse fill="#f070d1" stroke="black" cx="2263" cy="-842.24" rx="148.37" ry="18"/>
<text text-anchor="middle" x="2263" y="-838.54" font-family="Times,serif" font-size="14.00">is01cat_grouphomomorphism</text>
</a>
</g>
</g>
<!-- AbelianGroup_is0gpd_grouphomomorphism&#45;&gt;AbelianGroup_is01cat_grouphomomorphism -->
<g id="edge34" class="edge">
<title>AbelianGroup_is0gpd_grouphomomorphism&#45;&gt;AbelianGroup_is01cat_grouphomomorphism</title>
<path fill="none" stroke="black" d="M2416.08,-1071.96C2383.58,-1023.41 2312.78,-917.62 2280.13,-868.83"/>
<polygon fill="black" stroke="black" points="2282.96,-866.77 2274.49,-860.41 2277.14,-870.66 2282.96,-866.77"/>
</g>
<!-- AbelianGroup_is01cat_grouphomomorphism&#45;&gt;AbelianGroup_isgraph_abgroup -->
<g id="edge35" class="edge">
<title>AbelianGroup_is01cat_grouphomomorphism&#45;&gt;AbelianGroup_isgraph_abgroup</title>
<path fill="none" stroke="black" d="M2257.36,-824.25C2243.05,-781.14 2205.24,-667.27 2187.91,-615.07"/>
<polygon fill="black" stroke="black" points="2191.2,-613.88 2184.73,-605.49 2184.56,-616.08 2191.2,-613.88"/>
</g>
<!-- AbelianGroup_is01cat_abgroup&#45;&gt;AbelianGroup_isgraph_abgroup -->
<g id="edge36" class="edge">
<title>AbelianGroup_is01cat_abgroup&#45;&gt;AbelianGroup_isgraph_abgroup</title>
<path fill="none" stroke="black" d="M2493.89,-824.64C2435.33,-780.68 2276.15,-661.18 2209.26,-610.95"/>
<polygon fill="black" stroke="black" points="2211.29,-608.11 2201.19,-604.9 2207.09,-613.7 2211.29,-608.11"/>
</g>
<!-- AbelianGroup_abgroup_group -->
<g id="node37" class="node">
<title>AbelianGroup_abgroup_group</title>
<g id="a_node37"><a xlink:href="AbelianGroup.html#abgroup_group" xlink:title="abgroup_group">
<ellipse fill="#f070d1" stroke="black" cx="2326" cy="-331.24" rx="81.49" ry="18"/>
<text text-anchor="middle" x="2326" y="-327.54" font-family="Times,serif" font-size="14.00">abgroup_group</text>
</a>
</g>
</g>
<!-- AbelianGroup_isgraph_abgroup&#45;&gt;AbelianGroup_abgroup_group -->
<g id="edge37" class="edge">
<title>AbelianGroup_isgraph_abgroup&#45;&gt;AbelianGroup_abgroup_group</title>
<path fill="none" stroke="black" d="M2188.87,-569.18C2214.08,-525.62 2280.95,-410.07 2311.01,-358.15"/>
<polygon fill="black" stroke="black" points="2314.19,-359.63 2316.17,-349.22 2308.13,-356.13 2314.19,-359.63"/>
</g>
<!-- AbelianGroup_equiv_quotient_abgroup_ump -->
<g id="node26" class="node">
<title>AbelianGroup_equiv_quotient_abgroup_ump</title>
<g id="a_node26"><a xlink:href="AbelianGroup.html#equiv_quotient_abgroup_ump" xlink:title="equiv_quotient_abgroup_ump">
<ellipse fill="#f070d1" stroke="black" cx="172" cy="-1098.24" rx="147.57" ry="18"/>
<ellipse fill="none" stroke="black" cx="172" cy="-1098.24" rx="151.57" ry="22"/>
<ellipse fill="none" stroke="black" cx="172" cy="-1098.24" rx="155.57" ry="26"/>
<text text-anchor="middle" x="172" y="-1094.54" font-family="Times,serif" font-size="14.00">equiv_quotient_abgroup_ump</text>
</a>
</g>
</g>
<!-- AbelianGroup_equiv_quotient_abgroup_ump&#45;&gt;AbelianGroup_QuotientAbGroup -->
<g id="edge38" class="edge">
<title>AbelianGroup_equiv_quotient_abgroup_ump&#45;&gt;AbelianGroup_QuotientAbGroup</title>
<path fill="none" stroke="black" d="M198.09,-1072.42C249.51,-1023.5 363.35,-915.21 413.93,-867.09"/>
<polygon fill="black" stroke="black" points="416.37,-869.59 421.21,-860.17 411.55,-864.52 416.37,-869.59"/>
</g>
<!-- AbelianGroup_quotient_abgroup_rec -->
<g id="node27" class="node">
<title>AbelianGroup_quotient_abgroup_rec</title>
<g id="a_node27"><a xlink:href="AbelianGroup.html#quotient_abgroup_rec" xlink:title="quotient_abgroup_rec">
<ellipse fill="#f070d1" stroke="black" cx="893" cy="-1098.24" rx="111.59" ry="18"/>
<ellipse fill="none" stroke="black" cx="893" cy="-1098.24" rx="115.59" ry="22"/>
<ellipse fill="none" stroke="black" cx="893" cy="-1098.24" rx="119.58" ry="26"/>
<text text-anchor="middle" x="893" y="-1094.54" font-family="Times,serif" font-size="14.00">quotient_abgroup_rec</text>
</a>
</g>
</g>
<!-- AbelianGroup_quotient_abgroup_rec&#45;&gt;AbelianGroup_QuotientAbGroup -->
<g id="edge39" class="edge">
<title>AbelianGroup_quotient_abgroup_rec&#45;&gt;AbelianGroup_QuotientAbGroup</title>
<path fill="none" stroke="black" d="M851.1,-1073.8C763.3,-1024.67 561.16,-911.58 476.92,-864.46"/>
<polygon fill="black" stroke="black" points="478.4,-861.27 467.96,-859.44 474.98,-867.38 478.4,-861.27"/>
</g>
<!-- AbelianGroup_isabgroup_quotient -->
<g id="node29" class="node">
<title>AbelianGroup_isabgroup_quotient</title>
<g id="a_node29"><a xlink:href="AbelianGroup.html#isabgroup_quotient" xlink:title="isabgroup_quotient">
<ellipse fill="#f070d1" stroke="black" cx="571" cy="-587.24" rx="100.98" ry="18"/>
<text text-anchor="middle" x="571" y="-583.54" font-family="Times,serif" font-size="14.00">isabgroup_quotient</text>
</a>
</g>
</g>
<!-- AbelianGroup_QuotientAbGroup&#45;&gt;AbelianGroup_isabgroup_quotient -->
<g id="edge40" class="edge">
<title>AbelianGroup_QuotientAbGroup&#45;&gt;AbelianGroup_isabgroup_quotient</title>
<path fill="none" stroke="black" d="M447.87,-824.25C470.45,-780.96 530.26,-666.32 557.34,-614.42"/>
<polygon fill="black" stroke="black" points="560.48,-615.98 562,-605.49 554.27,-612.74 560.48,-615.98"/>
</g>
<!-- AbelianGroup_QuotientAbGroup&#45;&gt;AbelianGroup_Build_AbGroup -->
<g id="edge41" class="edge">
<title>AbelianGroup_QuotientAbGroup&#45;&gt;AbelianGroup_Build_AbGroup</title>
<path fill="none" stroke="black" d="M419.99,-824.43C382.18,-789.58 298.59,-705.01 268,-613.24 216.79,-459.62 436.06,-331.08 472,-305.24 628.02,-193.08 851.97,-136.13 964.99,-113.05"/>
<polygon fill="black" stroke="black" points="965.8,-116.45 974.92,-111.05 964.42,-109.59 965.8,-116.45"/>
</g>
<!-- AbelianGroup_isabgroup_quotient&#45;&gt;AbelianGroup_isnormal_ab_subgroup -->
<g id="edge42" class="edge">
<title>AbelianGroup_isabgroup_quotient&#45;&gt;AbelianGroup_isnormal_ab_subgroup</title>
<path fill="none" stroke="black" d="M630.52,-572.58C818.88,-529.36 1401.55,-395.67 1606.12,-348.73"/>
<polygon fill="black" stroke="black" points="1607.18,-352.08 1616.15,-346.43 1605.62,-345.26 1607.18,-352.08"/>
</g>
<!-- AbelianGroup_isnormal_ab_subgroup&#45;&gt;AbelianGroup_AbGroup -->
<g id="edge43" class="edge">
<title>AbelianGroup_isnormal_ab_subgroup&#45;&gt;AbelianGroup_AbGroup</title>
<path fill="none" stroke="black" d="M1691.53,-313.33C1723.71,-273.1 1804.91,-171.6 1842.43,-124.7"/>
<polygon fill="black" stroke="black" points="1845.18,-126.86 1848.7,-116.87 1839.72,-122.49 1845.18,-126.86"/>
</g>
<!-- AbelianGroup_isabgroup_subgroup&#45;&gt;AbelianGroup_AbGroup -->
<g id="edge44" class="edge">
<title>AbelianGroup_isabgroup_subgroup&#45;&gt;AbelianGroup_AbGroup</title>
<path fill="none" stroke="black" d="M885.08,-577.86C1107.1,-555.38 1672,-486.5 1802,-357.24 1818.43,-340.9 1846.36,-189.9 1857.36,-127.27"/>
<polygon fill="black" stroke="black" points="1860.82,-127.78 1859.09,-117.33 1853.92,-126.58 1860.82,-127.78"/>
</g>
<!-- AbelianGroup_equiv_path_abgroup_group -->
<g id="node32" class="node">
<title>AbelianGroup_equiv_path_abgroup_group</title>
<g id="a_node32"><a xlink:href="AbelianGroup.html#equiv_path_abgroup_group" xlink:title="equiv_path_abgroup_group">
<ellipse fill="#f070d1" stroke="black" cx="1021" cy="-842.24" rx="135.69" ry="18"/>
<ellipse fill="none" stroke="black" cx="1021" cy="-842.24" rx="139.68" ry="22"/>
<ellipse fill="none" stroke="black" cx="1021" cy="-842.24" rx="143.68" ry="26"/>
<text text-anchor="middle" x="1021" y="-838.54" font-family="Times,serif" font-size="14.00">equiv_path_abgroup_group</text>
</a>
</g>
</g>
<!-- AbelianGroup_equiv_path_abgroup_group&#45;&gt;AbelianGroup_equiv_path_abgroup -->
<g id="edge45" class="edge">
<title>AbelianGroup_equiv_path_abgroup_group&#45;&gt;AbelianGroup_equiv_path_abgroup</title>
<path fill="none" stroke="black" d="M1059.26,-816.98C1136.67,-767.9 1310.82,-657.47 1385.22,-610.29"/>
<polygon fill="black" stroke="black" points="1387.22,-613.17 1393.79,-604.86 1383.47,-607.26 1387.22,-613.17"/>
</g>
<!-- AbelianGroup_issig_abgroup -->
<g id="node34" class="node">
<title>AbelianGroup_issig_abgroup</title>
<g id="a_node34"><a xlink:href="AbelianGroup.html#issig_abgroup" xlink:title="issig_abgroup">
<ellipse fill="#f070d1" stroke="black" cx="1470" cy="-331.24" rx="75.29" ry="18"/>
<text text-anchor="middle" x="1470" y="-327.54" font-family="Times,serif" font-size="14.00">issig_abgroup</text>
</a>
</g>
</g>
<!-- AbelianGroup_equiv_path_abgroup&#45;&gt;AbelianGroup_issig_abgroup -->
<g id="edge46" class="edge">
<title>AbelianGroup_equiv_path_abgroup&#45;&gt;AbelianGroup_issig_abgroup</title>
<path fill="none" stroke="black" d="M1423.36,-569.18C1431.88,-525.89 1454.4,-411.51 1464.71,-359.13"/>
<polygon fill="black" stroke="black" points="1468.16,-359.71 1466.66,-349.22 1461.29,-358.36 1468.16,-359.71"/>
</g>
<!-- AbelianGroup_issig_abgroup&#45;&gt;AbelianGroup_Build_AbGroup -->
<g id="edge47" class="edge">
<title>AbelianGroup_issig_abgroup&#45;&gt;AbelianGroup_Build_AbGroup</title>
<path fill="none" stroke="black" d="M1440.51,-314.61C1364.21,-274.18 1160.3,-166.11 1074.69,-120.74"/>
<polygon fill="black" stroke="black" points="1076.29,-117.63 1065.82,-116.04 1073.01,-123.82 1076.29,-117.63"/>
</g>
<!-- AbelianGroup_issig_abgroup&#45;&gt;AbelianGroup_AbGroup -->
<g id="edge48" class="edge">
<title>AbelianGroup_issig_abgroup&#45;&gt;AbelianGroup_AbGroup</title>
<path fill="none" stroke="black" d="M1497.25,-314.25C1566.91,-273.38 1751.36,-165.16 1827.93,-120.23"/>
<polygon fill="black" stroke="black" points="1829.86,-123.15 1836.72,-115.07 1826.32,-117.11 1829.86,-123.15"/>
</g>
<!-- AbelianGroup_isabgroup_abgroup -->
<g id="node35" class="node">
<title>AbelianGroup_isabgroup_abgroup</title>
<g id="a_node35"><a xlink:href="AbelianGroup.html#isabgroup_abgroup" xlink:title="isabgroup_abgroup">
<ellipse fill="#f070d1" stroke="black" cx="2119" cy="-331.24" rx="100.18" ry="18"/>
<ellipse fill="none" stroke="black" cx="2119" cy="-331.24" rx="104.18" ry="22"/>
<ellipse fill="none" stroke="black" cx="2119" cy="-331.24" rx="108.18" ry="26"/>
<text text-anchor="middle" x="2119" y="-327.54" font-family="Times,serif" font-size="14.00">isabgroup_abgroup</text>
</a>
</g>
</g>
<!-- AbelianGroup_isabgroup_abgroup&#45;&gt;AbelianGroup_AbGroup -->
<g id="edge49" class="edge">
<title>AbelianGroup_isabgroup_abgroup&#45;&gt;AbelianGroup_AbGroup</title>
<path fill="none" stroke="black" d="M2091.98,-306.06C2042.17,-261.48 1936.52,-166.93 1887.71,-123.25"/>
<polygon fill="black" stroke="black" points="1889.89,-120.5 1880.1,-116.44 1885.22,-125.72 1889.89,-120.5"/>
</g>
<!-- AbelianGroup_abgroup_commutative -->
<g id="node36" class="node">
<title>AbelianGroup_abgroup_commutative</title>
<g id="a_node36"><a xlink:href="AbelianGroup.html#abgroup_commutative" xlink:title="abgroup_commutative">
<ellipse fill="#f070d1" stroke="black" cx="2921" cy="-331.24" rx="114.29" ry="18"/>
<ellipse fill="none" stroke="black" cx="2921" cy="-331.24" rx="118.28" ry="22"/>
<ellipse fill="none" stroke="black" cx="2921" cy="-331.24" rx="122.28" ry="26"/>
<text text-anchor="middle" x="2921" y="-327.54" font-family="Times,serif" font-size="14.00">abgroup_commutative</text>
</a>
</g>
</g>
<!-- AbelianGroup_abgroup_commutative&#45;&gt;AbelianGroup_AbGroup -->
<g id="edge50" class="edge">
<title>AbelianGroup_abgroup_commutative&#45;&gt;AbelianGroup_AbGroup</title>
<path fill="none" stroke="black" d="M2837.46,-312.1C2628.2,-266.65 2086.05,-148.9 1914.71,-111.69"/>
<polygon fill="black" stroke="black" points="1915.44,-108.26 1904.92,-109.56 1913.95,-115.1 1915.44,-108.26"/>
</g>
<!-- AbelianGroup_abgroup_group&#45;&gt;AbelianGroup_AbGroup -->
<g id="edge51" class="edge">
<title>AbelianGroup_abgroup_group&#45;&gt;AbelianGroup_AbGroup</title>
<path fill="none" stroke="black" d="M2294.47,-314.61C2211.82,-273.64 1989.09,-163.23 1899.79,-118.97"/>
<polygon fill="black" stroke="black" points="1901.09,-115.71 1890.57,-114.4 1897.98,-121.98 1901.09,-115.71"/>
</g>
<!-- AbelianGroup_AbGroup_sind -->
<g id="node38" class="node">
<title>AbelianGroup_AbGroup_sind</title>
<g id="a_node38"><a xlink:href="AbelianGroup.html#AbGroup_sind" xlink:title="AbGroup_sind">
<ellipse fill="#f070d1" stroke="black" cx="1126" cy="-331.24" rx="75.3" ry="18"/>
<ellipse fill="none" stroke="black" cx="1126" cy="-331.24" rx="79.29" ry="22"/>
<ellipse fill="none" stroke="black" cx="1126" cy="-331.24" rx="83.29" ry="26"/>
<text text-anchor="middle" x="1126" y="-327.54" font-family="Times,serif" font-size="14.00">AbGroup_sind</text>
</a>
</g>
</g>
<!-- AbelianGroup_AbGroup_sind&#45;&gt;AbelianGroup_Build_AbGroup -->
<g id="edge52" class="edge">
<title>AbelianGroup_AbGroup_sind&#45;&gt;AbelianGroup_Build_AbGroup</title>
<path fill="none" stroke="black" d="M1116.2,-305.19C1099.09,-261.46 1063.92,-171.6 1046.4,-126.82"/>
<polygon fill="black" stroke="black" points="1049.65,-125.51 1042.74,-117.47 1043.13,-128.06 1049.65,-125.51"/>
</g>
<!-- AbelianGroup_AbGroup_sind&#45;&gt;AbelianGroup_AbGroup -->
<g id="edge53" class="edge">
<title>AbelianGroup_AbGroup_sind&#45;&gt;AbelianGroup_AbGroup</title>
<path fill="none" stroke="black" d="M1183.45,-312.29C1324.4,-268.24 1685.29,-155.46 1814.83,-114.98"/>
<polygon fill="black" stroke="black" points="1815.97,-118.29 1824.47,-111.97 1813.88,-111.61 1815.97,-118.29"/>
</g>
<!-- AbelianGroup_AbGroup_rec -->
<g id="node39" class="node">
<title>AbelianGroup_AbGroup_rec</title>
<g id="a_node39"><a xlink:href="AbelianGroup.html#AbGroup_rec" xlink:title="AbGroup_rec">
<ellipse fill="#f070d1" stroke="black" cx="373" cy="-587.24" rx="70.7" ry="18"/>
<ellipse fill="none" stroke="black" cx="373" cy="-587.24" rx="74.7" ry="22"/>
<ellipse fill="none" stroke="black" cx="373" cy="-587.24" rx="78.69" ry="26"/>
<text text-anchor="middle" x="373" y="-583.54" font-family="Times,serif" font-size="14.00">AbGroup_rec</text>
</a>
</g>
</g>
<!-- AbelianGroup_AbGroup_rect -->
<g id="node41" class="node">
<title>AbelianGroup_AbGroup_rect</title>
<g id="a_node41"><a xlink:href="AbelianGroup.html#AbGroup_rect" xlink:title="AbGroup_rect">
<ellipse fill="#f070d1" stroke="black" cx="1302" cy="-331.24" rx="74.99" ry="18"/>
<text text-anchor="middle" x="1302" y="-327.54" font-family="Times,serif" font-size="14.00">AbGroup_rect</text>
</a>
</g>
</g>
<!-- AbelianGroup_AbGroup_rec&#45;&gt;AbelianGroup_AbGroup_rect -->
<g id="edge54" class="edge">
<title>AbelianGroup_AbGroup_rec&#45;&gt;AbelianGroup_AbGroup_rect</title>
<path fill="none" stroke="black" d="M431.19,-569.59C441.13,-566.78 451.36,-563.91 461,-561.24 796.82,-468.29 882.76,-452.28 1218,-357.24 1227.55,-354.53 1237.69,-351.58 1247.5,-348.68"/>
<polygon fill="black" stroke="black" points="1248.57,-352.02 1257.16,-345.82 1246.58,-345.31 1248.57,-352.02"/>
</g>
<!-- AbelianGroup_AbGroup_ind -->
<g id="node40" class="node">
<title>AbelianGroup_AbGroup_ind</title>
<g id="a_node40"><a xlink:href="AbelianGroup.html#AbGroup_ind" xlink:title="AbGroup_ind">
<ellipse fill="#7fffd4" stroke="black" cx="946" cy="-331.24" rx="70.7" ry="18"/>
<ellipse fill="none" stroke="black" cx="946" cy="-331.24" rx="74.7" ry="22"/>
<ellipse fill="none" stroke="black" cx="946" cy="-331.24" rx="78.69" ry="26"/>
<text text-anchor="middle" x="946" y="-327.54" font-family="Times,serif" font-size="14.00">AbGroup_ind</text>
</a>
</g>
</g>
<!-- AbelianGroup_AbGroup_ind&#45;&gt;AbelianGroup_Build_AbGroup -->
<g id="edge55" class="edge">
<title>AbelianGroup_AbGroup_ind&#45;&gt;AbelianGroup_Build_AbGroup</title>
<path fill="none" stroke="black" d="M955.8,-305.19C972.91,-261.46 1008.08,-171.6 1025.6,-126.82"/>
<polygon fill="black" stroke="black" points="1028.87,-128.06 1029.26,-117.47 1022.35,-125.51 1028.87,-128.06"/>
</g>
<!-- AbelianGroup_AbGroup_ind&#45;&gt;AbelianGroup_AbGroup -->
<g id="edge56" class="edge">
<title>AbelianGroup_AbGroup_ind&#45;&gt;AbelianGroup_AbGroup</title>
<path fill="none" stroke="black" d="M1004.15,-313.42C1014.09,-310.63 1024.33,-307.81 1034,-305.24 1326.58,-227.49 1679.87,-143.19 1810.34,-112.38"/>
<polygon fill="black" stroke="black" points="1811.15,-115.79 1820.08,-110.08 1809.55,-108.97 1811.15,-115.79"/>
</g>
<!-- AbelianGroup_AbGroup_rect&#45;&gt;AbelianGroup_Build_AbGroup -->
<g id="edge57" class="edge">
<title>AbelianGroup_AbGroup_rect&#45;&gt;AbelianGroup_Build_AbGroup</title>
<path fill="none" stroke="black" d="M1282.87,-313.7C1236.3,-273.43 1116.92,-170.21 1063.07,-123.65"/>
<polygon fill="black" stroke="black" points="1065.17,-120.83 1055.31,-116.94 1060.59,-126.13 1065.17,-120.83"/>
</g>
<!-- AbelianGroup_AbGroup_rect&#45;&gt;AbelianGroup_AbGroup -->
<g id="edge58" class="edge">
<title>AbelianGroup_AbGroup_rect&#45;&gt;AbelianGroup_AbGroup</title>
<path fill="none" stroke="black" d="M1338.31,-315.33C1437.85,-274.44 1714.64,-160.76 1820.29,-117.37"/>
<polygon fill="black" stroke="black" points="1821.75,-120.55 1829.67,-113.52 1819.09,-114.08 1821.75,-120.55"/>
</g>
</g>
</svg>
