<?xml version="1.0" encoding="UTF-8" standalone="no"?>
<!DOCTYPE svg PUBLIC "-//W3C//DTD SVG 1.1//EN"
 "http://www.w3.org/Graphics/SVG/1.1/DTD/svg11.dtd">
<!-- Generated by graphviz version 2.43.0 (0)
 -->
<!-- Title: HoTT_Algebra_Groups_GrpPullback Pages: 1 -->
<svg width="1408pt" height="708pt"
 viewBox="0.00 0.00 1408.00 708.00" xmlns="http://www.w3.org/2000/svg" xmlns:xlink="http://www.w3.org/1999/xlink">
<g id="graph0" class="graph" transform="scale(1 1) rotate(0) translate(4 704)">
<title>HoTT_Algebra_Groups_GrpPullback</title>
<polygon fill="white" stroke="transparent" points="-4,4 -4,-704 1404,-704 1404,4 -4,4"/>
<g id="clust1" class="cluster">
<title>cluster_GrpPullback</title>
<polygon fill="#ffffc3" stroke="black" points="8,-8.2 8,-691.8 1392,-691.8 1392,-8.2 8,-8.2"/>
<text text-anchor="middle" x="60" y="-676.6" font-family="Times,serif" font-size="14.00">GrpPullback</text>
</g>
<!-- GrpPullback_haspullbacks_group -->
<g id="node1" class="node">
<title>GrpPullback_haspullbacks_group</title>
<g id="a_node1"><a xlink:href="GrpPullback.html#haspullbacks_group" xlink:title="haspullbacks_group">
<ellipse fill="#f070d1" stroke="black" cx="1246" cy="-633.2" rx="102.87" ry="18"/>
<ellipse fill="none" stroke="black" cx="1246" cy="-633.2" rx="106.88" ry="22"/>
<ellipse fill="none" stroke="black" cx="1246" cy="-633.2" rx="110.88" ry="26"/>
<text text-anchor="middle" x="1246" y="-629.5" font-family="Times,serif" font-size="14.00">haspullbacks_group</text>
</a>
</g>
</g>
<!-- GrpPullback_grp_pullback_corec_ -->
<g id="node8" class="node">
<title>GrpPullback_grp_pullback_corec_</title>
<g id="a_node8"><a xlink:href="GrpPullback.html#grp_pullback_corec'" xlink:title="grp_pullback_corec&#39;">
<ellipse fill="#f070d1" stroke="black" cx="797" cy="-551.2" rx="102.08" ry="18"/>
<text text-anchor="middle" x="797" y="-547.5" font-family="Times,serif" font-size="14.00">grp_pullback_corec&#39;</text>
</a>
</g>
</g>
<!-- GrpPullback_haspullbacks_group&#45;&gt;GrpPullback_grp_pullback_corec_ -->
<g id="edge1" class="edge">
<title>GrpPullback_haspullbacks_group&#45;&gt;GrpPullback_grp_pullback_corec_</title>
<path fill="none" stroke="black" d="M1166.4,-614.99C1153.26,-612.29 1139.76,-609.6 1127,-607.2 1043.66,-591.51 948.04,-575.82 881.26,-565.24"/>
<polygon fill="black" stroke="black" points="881.63,-561.76 871.21,-563.66 880.54,-568.67 881.63,-561.76"/>
</g>
<!-- GrpPullback_grp_pullback_pr2 -->
<g id="node10" class="node">
<title>GrpPullback_grp_pullback_pr2</title>
<g id="a_node10"><a xlink:href="GrpPullback.html#grp_pullback_pr2" xlink:title="grp_pullback_pr2">
<ellipse fill="#f070d1" stroke="black" cx="1178" cy="-477.2" rx="90.98" ry="18"/>
<text text-anchor="middle" x="1178" y="-473.5" font-family="Times,serif" font-size="14.00">grp_pullback_pr2</text>
</a>
</g>
</g>
<!-- GrpPullback_haspullbacks_group&#45;&gt;GrpPullback_grp_pullback_pr2 -->
<g id="edge2" class="edge">
<title>GrpPullback_haspullbacks_group&#45;&gt;GrpPullback_grp_pullback_pr2</title>
<path fill="none" stroke="black" d="M1234.92,-607.11C1222.47,-578.9 1202.33,-533.3 1189.64,-504.57"/>
<polygon fill="black" stroke="black" points="1192.73,-502.9 1185.49,-495.17 1186.33,-505.73 1192.73,-502.9"/>
</g>
<!-- GrpPullback_grp_pullback_pr1 -->
<g id="node11" class="node">
<title>GrpPullback_grp_pullback_pr1</title>
<g id="a_node11"><a xlink:href="GrpPullback.html#grp_pullback_pr1" xlink:title="grp_pullback_pr1">
<ellipse fill="#f070d1" stroke="black" cx="978" cy="-477.2" rx="90.98" ry="18"/>
<text text-anchor="middle" x="978" y="-473.5" font-family="Times,serif" font-size="14.00">grp_pullback_pr1</text>
</a>
</g>
</g>
<!-- GrpPullback_haspullbacks_group&#45;&gt;GrpPullback_grp_pullback_pr1 -->
<g id="edge3" class="edge">
<title>GrpPullback_haspullbacks_group&#45;&gt;GrpPullback_grp_pullback_pr1</title>
<path fill="none" stroke="black" d="M1226.17,-607.39C1207.2,-585.14 1176.71,-553.04 1144,-533.2 1114.37,-515.23 1078.16,-502.35 1047.13,-493.59"/>
<polygon fill="black" stroke="black" points="1047.82,-490.15 1037.25,-490.89 1045.97,-496.9 1047.82,-490.15"/>
</g>
<!-- GrpPullback_isequiv_grp_pullback_corec -->
<g id="node2" class="node">
<title>GrpPullback_isequiv_grp_pullback_corec</title>
<g id="a_node2"><a xlink:href="GrpPullback.html#isequiv_grp_pullback_corec" xlink:title="isequiv_grp_pullback_corec">
<ellipse fill="#f070d1" stroke="black" cx="322" cy="-633.2" rx="137.27" ry="18"/>
<ellipse fill="none" stroke="black" cx="322" cy="-633.2" rx="141.27" ry="22"/>
<ellipse fill="none" stroke="black" cx="322" cy="-633.2" rx="145.28" ry="26"/>
<text text-anchor="middle" x="322" y="-629.5" font-family="Times,serif" font-size="14.00">isequiv_grp_pullback_corec</text>
</a>
</g>
</g>
<!-- GrpPullback_grp_pullback_corec_pr2 -->
<g id="node3" class="node">
<title>GrpPullback_grp_pullback_corec_pr2</title>
<g id="a_node3"><a xlink:href="GrpPullback.html#grp_pullback_corec_pr2" xlink:title="grp_pullback_corec_pr2">
<ellipse fill="#f070d1" stroke="black" cx="557" cy="-551.2" rx="120.48" ry="18"/>
<text text-anchor="middle" x="557" y="-547.5" font-family="Times,serif" font-size="14.00">grp_pullback_corec_pr2</text>
</a>
</g>
</g>
<!-- GrpPullback_isequiv_grp_pullback_corec&#45;&gt;GrpPullback_grp_pullback_corec_pr2 -->
<g id="edge4" class="edge">
<title>GrpPullback_isequiv_grp_pullback_corec&#45;&gt;GrpPullback_grp_pullback_corec_pr2</title>
<path fill="none" stroke="black" d="M387.46,-609.91C423.18,-597.75 466.95,-582.86 501.06,-571.24"/>
<polygon fill="black" stroke="black" points="502.53,-574.44 510.87,-567.9 500.27,-567.81 502.53,-574.44"/>
</g>
<!-- GrpPullback_grp_pullback_corec_pr1 -->
<g id="node4" class="node">
<title>GrpPullback_grp_pullback_corec_pr1</title>
<g id="a_node4"><a xlink:href="GrpPullback.html#grp_pullback_corec_pr1" xlink:title="grp_pullback_corec_pr1">
<ellipse fill="#f070d1" stroke="black" cx="299" cy="-551.2" rx="120.48" ry="18"/>
<text text-anchor="middle" x="299" y="-547.5" font-family="Times,serif" font-size="14.00">grp_pullback_corec_pr1</text>
</a>
</g>
</g>
<!-- GrpPullback_isequiv_grp_pullback_corec&#45;&gt;GrpPullback_grp_pullback_corec_pr1 -->
<g id="edge5" class="edge">
<title>GrpPullback_isequiv_grp_pullback_corec&#45;&gt;GrpPullback_grp_pullback_corec_pr1</title>
<path fill="none" stroke="black" d="M314.72,-606.89C312.16,-597.97 309.27,-587.93 306.68,-578.9"/>
<polygon fill="black" stroke="black" points="310.03,-577.91 303.91,-569.26 303.31,-579.84 310.03,-577.91"/>
</g>
<!-- GrpPullback_isequiv_grp_pullback_corec&#45;&gt;GrpPullback_grp_pullback_corec_ -->
<g id="edge6" class="edge">
<title>GrpPullback_isequiv_grp_pullback_corec&#45;&gt;GrpPullback_grp_pullback_corec_</title>
<path fill="none" stroke="black" d="M425.07,-614.84C512.33,-600.14 635.7,-579.37 716.02,-565.84"/>
<polygon fill="black" stroke="black" points="716.8,-569.26 726.08,-564.14 715.64,-562.35 716.8,-569.26"/>
</g>
<!-- GrpPullback_grp_pullback_corec -->
<g id="node9" class="node">
<title>GrpPullback_grp_pullback_corec</title>
<g id="a_node9"><a xlink:href="GrpPullback.html#grp_pullback_corec" xlink:title="grp_pullback_corec">
<ellipse fill="#f070d1" stroke="black" cx="770" cy="-477.2" rx="99.38" ry="18"/>
<text text-anchor="middle" x="770" y="-473.5" font-family="Times,serif" font-size="14.00">grp_pullback_corec</text>
</a>
</g>
</g>
<!-- GrpPullback_grp_pullback_corec_pr2&#45;&gt;GrpPullback_grp_pullback_corec -->
<g id="edge7" class="edge">
<title>GrpPullback_grp_pullback_corec_pr2&#45;&gt;GrpPullback_grp_pullback_corec</title>
<path fill="none" stroke="black" d="M603.22,-534.58C636.32,-523.39 681.01,-508.28 715.8,-496.52"/>
<polygon fill="black" stroke="black" points="716.98,-499.82 725.33,-493.3 714.74,-493.18 716.98,-499.82"/>
</g>
<!-- GrpPullback_grp_pullback_corec_pr2&#45;&gt;GrpPullback_grp_pullback_pr2 -->
<g id="edge8" class="edge">
<title>GrpPullback_grp_pullback_corec_pr2&#45;&gt;GrpPullback_grp_pullback_pr2</title>
<path fill="none" stroke="black" d="M642.65,-538.49C657.11,-536.64 671.97,-534.8 686,-533.2 859.91,-513.32 904.5,-518.33 1078,-495.2 1086.22,-494.1 1094.8,-492.84 1103.32,-491.5"/>
<polygon fill="black" stroke="black" points="1103.96,-494.94 1113.28,-489.9 1102.85,-488.03 1103.96,-494.94"/>
</g>
<!-- GrpPullback_grp_pullback_corec_pr1&#45;&gt;GrpPullback_grp_pullback_corec -->
<g id="edge9" class="edge">
<title>GrpPullback_grp_pullback_corec_pr1&#45;&gt;GrpPullback_grp_pullback_corec</title>
<path fill="none" stroke="black" d="M379.97,-537.82C465.61,-524.73 600.07,-504.18 686.61,-490.95"/>
<polygon fill="black" stroke="black" points="687.31,-494.38 696.66,-489.41 686.25,-487.46 687.31,-494.38"/>
</g>
<!-- GrpPullback_grp_pullback_corec_pr1&#45;&gt;GrpPullback_grp_pullback_pr1 -->
<g id="edge10" class="edge">
<title>GrpPullback_grp_pullback_corec_pr1&#45;&gt;GrpPullback_grp_pullback_pr1</title>
<path fill="none" stroke="black" d="M383.94,-538.43C398.62,-536.56 413.74,-534.74 428,-533.2 627.55,-511.64 678.89,-520.49 878,-495.2 886.29,-494.15 894.94,-492.9 903.53,-491.57"/>
<polygon fill="black" stroke="black" points="904.24,-495 913.57,-489.97 903.14,-488.09 904.24,-495"/>
</g>
<!-- GrpPullback_equiv_grp_pullback_compose_r -->
<g id="node5" class="node">
<title>GrpPullback_equiv_grp_pullback_compose_r</title>
<g id="a_node5"><a xlink:href="GrpPullback.html#equiv_grp_pullback_compose_r" xlink:title="equiv_grp_pullback_compose_r">
<ellipse fill="#f070d1" stroke="black" cx="647" cy="-633.2" rx="153.28" ry="18"/>
<ellipse fill="none" stroke="black" cx="647" cy="-633.2" rx="157.28" ry="22"/>
<ellipse fill="none" stroke="black" cx="647" cy="-633.2" rx="161.27" ry="26"/>
<text text-anchor="middle" x="647" y="-629.5" font-family="Times,serif" font-size="14.00">equiv_grp_pullback_compose_r</text>
</a>
</g>
</g>
<!-- GrpPullback_functor_grp_pullback -->
<g id="node7" class="node">
<title>GrpPullback_functor_grp_pullback</title>
<g id="a_node7"><a xlink:href="GrpPullback.html#functor_grp_pullback" xlink:title="functor_grp_pullback">
<ellipse fill="#f070d1" stroke="black" cx="1026" cy="-551.2" rx="108.58" ry="18"/>
<text text-anchor="middle" x="1026" y="-547.5" font-family="Times,serif" font-size="14.00">functor_grp_pullback</text>
</a>
</g>
</g>
<!-- GrpPullback_equiv_grp_pullback_compose_r&#45;&gt;GrpPullback_functor_grp_pullback -->
<g id="edge11" class="edge">
<title>GrpPullback_equiv_grp_pullback_compose_r&#45;&gt;GrpPullback_functor_grp_pullback</title>
<path fill="none" stroke="black" d="M742.15,-612.12C807.03,-598.42 891.72,-580.54 951.65,-567.89"/>
<polygon fill="black" stroke="black" points="952.73,-571.24 961.8,-565.75 951.29,-564.39 952.73,-571.24"/>
</g>
<!-- GrpPullback_equiv_functor_grp_pullback -->
<g id="node6" class="node">
<title>GrpPullback_equiv_functor_grp_pullback</title>
<g id="a_node6"><a xlink:href="GrpPullback.html#equiv_functor_grp_pullback" xlink:title="equiv_functor_grp_pullback">
<ellipse fill="#f070d1" stroke="black" cx="972" cy="-633.2" rx="137.59" ry="18"/>
<ellipse fill="none" stroke="black" cx="972" cy="-633.2" rx="141.58" ry="22"/>
<ellipse fill="none" stroke="black" cx="972" cy="-633.2" rx="145.58" ry="26"/>
<text text-anchor="middle" x="972" y="-629.5" font-family="Times,serif" font-size="14.00">equiv_functor_grp_pullback</text>
</a>
</g>
</g>
<!-- GrpPullback_equiv_functor_grp_pullback&#45;&gt;GrpPullback_functor_grp_pullback -->
<g id="edge12" class="edge">
<title>GrpPullback_equiv_functor_grp_pullback&#45;&gt;GrpPullback_functor_grp_pullback</title>
<path fill="none" stroke="black" d="M988.79,-607.33C995.08,-598.01 1002.23,-587.41 1008.58,-578.01"/>
<polygon fill="black" stroke="black" points="1011.66,-579.7 1014.36,-569.45 1005.86,-575.78 1011.66,-579.7"/>
</g>
<!-- GrpPullback_functor_grp_pullback&#45;&gt;GrpPullback_grp_pullback_corec -->
<g id="edge13" class="edge">
<title>GrpPullback_functor_grp_pullback&#45;&gt;GrpPullback_grp_pullback_corec</title>
<path fill="none" stroke="black" d="M973.27,-535.37C931.99,-523.76 874.51,-507.59 831.2,-495.41"/>
<polygon fill="black" stroke="black" points="831.93,-491.98 821.35,-492.64 830.03,-498.72 831.93,-491.98"/>
</g>
<!-- GrpPullback_functor_grp_pullback&#45;&gt;GrpPullback_grp_pullback_pr2 -->
<g id="edge14" class="edge">
<title>GrpPullback_functor_grp_pullback&#45;&gt;GrpPullback_grp_pullback_pr2</title>
<path fill="none" stroke="black" d="M1060.11,-534.04C1082.37,-523.5 1111.59,-509.66 1135.37,-498.39"/>
<polygon fill="black" stroke="black" points="1136.99,-501.5 1144.53,-494.06 1133.99,-495.17 1136.99,-501.5"/>
</g>
<!-- GrpPullback_functor_grp_pullback&#45;&gt;GrpPullback_grp_pullback_pr1 -->
<g id="edge15" class="edge">
<title>GrpPullback_functor_grp_pullback&#45;&gt;GrpPullback_grp_pullback_pr1</title>
<path fill="none" stroke="black" d="M1014.62,-533.14C1008.77,-524.35 1001.51,-513.46 995,-503.69"/>
<polygon fill="black" stroke="black" points="997.75,-501.52 989.29,-495.14 991.93,-505.4 997.75,-501.52"/>
</g>
<!-- GrpPullback_grp_pullback_corec_&#45;&gt;GrpPullback_grp_pullback_corec -->
<g id="edge16" class="edge">
<title>GrpPullback_grp_pullback_corec_&#45;&gt;GrpPullback_grp_pullback_corec</title>
<path fill="none" stroke="black" d="M790.6,-533.14C787.45,-524.74 783.58,-514.43 780.05,-505.01"/>
<polygon fill="black" stroke="black" points="783.33,-503.77 776.54,-495.64 776.77,-506.23 783.33,-503.77"/>
</g>
<!-- GrpPullback_grp_pullback -->
<g id="node12" class="node">
<title>GrpPullback_grp_pullback</title>
<g id="a_node12"><a xlink:href="GrpPullback.html#grp_pullback" xlink:title="grp_pullback">
<ellipse fill="#f070d1" stroke="black" cx="978" cy="-404.2" rx="70.39" ry="18"/>
<text text-anchor="middle" x="978" y="-400.5" font-family="Times,serif" font-size="14.00">grp_pullback</text>
</a>
</g>
</g>
<!-- GrpPullback_grp_pullback_corec&#45;&gt;GrpPullback_grp_pullback -->
<g id="edge17" class="edge">
<title>GrpPullback_grp_pullback_corec&#45;&gt;GrpPullback_grp_pullback</title>
<path fill="none" stroke="black" d="M814.37,-461.05C847.6,-449.71 893.09,-434.18 927.68,-422.38"/>
<polygon fill="black" stroke="black" points="929.25,-425.54 937.58,-419 926.98,-418.92 929.25,-425.54"/>
</g>
<!-- GrpPullback_grp_pullback_pr2&#45;&gt;GrpPullback_grp_pullback -->
<g id="edge18" class="edge">
<title>GrpPullback_grp_pullback_pr2&#45;&gt;GrpPullback_grp_pullback</title>
<path fill="none" stroke="black" d="M1135.59,-461.14C1103.75,-449.84 1060.12,-434.35 1026.83,-422.53"/>
<polygon fill="black" stroke="black" points="1027.89,-419.2 1017.3,-419.15 1025.55,-425.79 1027.89,-419.2"/>
</g>
<!-- GrpPullback_grp_pullback_pr1&#45;&gt;GrpPullback_grp_pullback -->
<g id="edge19" class="edge">
<title>GrpPullback_grp_pullback_pr1&#45;&gt;GrpPullback_grp_pullback</title>
<path fill="none" stroke="black" d="M978,-459.01C978,-450.99 978,-441.25 978,-432.27"/>
<polygon fill="black" stroke="black" points="981.5,-432.23 978,-422.23 974.5,-432.23 981.5,-432.23"/>
</g>
<!-- GrpPullback_isgroup_grp_pullback -->
<g id="node13" class="node">
<title>GrpPullback_isgroup_grp_pullback</title>
<g id="a_node13"><a xlink:href="GrpPullback.html#isgroup_grp_pullback" xlink:title="isgroup_grp_pullback">
<ellipse fill="#f070d1" stroke="black" cx="978" cy="-330.2" rx="109.68" ry="18"/>
<text text-anchor="middle" x="978" y="-326.5" font-family="Times,serif" font-size="14.00">isgroup_grp_pullback</text>
</a>
</g>
</g>
<!-- GrpPullback_grp_pullback&#45;&gt;GrpPullback_isgroup_grp_pullback -->
<g id="edge20" class="edge">
<title>GrpPullback_grp_pullback&#45;&gt;GrpPullback_isgroup_grp_pullback</title>
<path fill="none" stroke="black" d="M978,-386.14C978,-378.01 978,-368.08 978,-358.9"/>
<polygon fill="black" stroke="black" points="981.5,-358.64 978,-348.64 974.5,-358.64 981.5,-358.64"/>
</g>
<!-- GrpPullback_grp_pullback_rightinverse -->
<g id="node14" class="node">
<title>GrpPullback_grp_pullback_rightinverse</title>
<g id="a_node14"><a xlink:href="GrpPullback.html#grp_pullback_rightinverse" xlink:title="grp_pullback_rightinverse">
<ellipse fill="#f070d1" stroke="black" cx="1252" cy="-182.2" rx="131.88" ry="18"/>
<text text-anchor="middle" x="1252" y="-178.5" font-family="Times,serif" font-size="14.00">grp_pullback_rightinverse</text>
</a>
</g>
</g>
<!-- GrpPullback_isgroup_grp_pullback&#45;&gt;GrpPullback_grp_pullback_rightinverse -->
<g id="edge21" class="edge">
<title>GrpPullback_isgroup_grp_pullback&#45;&gt;GrpPullback_grp_pullback_rightinverse</title>
<path fill="none" stroke="black" d="M1008.63,-312.88C1058.27,-286.43 1156.28,-234.21 1211.57,-204.74"/>
<polygon fill="black" stroke="black" points="1213.54,-207.66 1220.72,-199.86 1210.25,-201.48 1213.54,-207.66"/>
</g>
<!-- GrpPullback_grp_pullback_leftinverse -->
<g id="node15" class="node">
<title>GrpPullback_grp_pullback_leftinverse</title>
<g id="a_node15"><a xlink:href="GrpPullback.html#grp_pullback_leftinverse" xlink:title="grp_pullback_leftinverse">
<ellipse fill="#f070d1" stroke="black" cx="978" cy="-182.2" rx="124.28" ry="18"/>
<text text-anchor="middle" x="978" y="-178.5" font-family="Times,serif" font-size="14.00">grp_pullback_leftinverse</text>
</a>
</g>
</g>
<!-- GrpPullback_isgroup_grp_pullback&#45;&gt;GrpPullback_grp_pullback_leftinverse -->
<g id="edge22" class="edge">
<title>GrpPullback_isgroup_grp_pullback&#45;&gt;GrpPullback_grp_pullback_leftinverse</title>
<path fill="none" stroke="black" d="M978,-312.17C978,-287.24 978,-240.57 978,-210.74"/>
<polygon fill="black" stroke="black" points="981.5,-210.58 978,-200.58 974.5,-210.58 981.5,-210.58"/>
</g>
<!-- GrpPullback_ismonoid_grp_pullback -->
<g id="node17" class="node">
<title>GrpPullback_ismonoid_grp_pullback</title>
<g id="a_node17"><a xlink:href="GrpPullback.html#ismonoid_grp_pullback" xlink:title="ismonoid_grp_pullback">
<ellipse fill="#f070d1" stroke="black" cx="571" cy="-256.2" rx="116.18" ry="18"/>
<text text-anchor="middle" x="571" y="-252.5" font-family="Times,serif" font-size="14.00">ismonoid_grp_pullback</text>
</a>
</g>
</g>
<!-- GrpPullback_isgroup_grp_pullback&#45;&gt;GrpPullback_ismonoid_grp_pullback -->
<g id="edge23" class="edge">
<title>GrpPullback_isgroup_grp_pullback&#45;&gt;GrpPullback_ismonoid_grp_pullback</title>
<path fill="none" stroke="black" d="M906.17,-316.49C835.88,-304.06 728.86,-285.13 654.74,-272.01"/>
<polygon fill="black" stroke="black" points="654.97,-268.5 644.51,-270.2 653.75,-275.39 654.97,-268.5"/>
</g>
<!-- GrpPullback_grp_pullback_inverse -->
<g id="node16" class="node">
<title>GrpPullback_grp_pullback_inverse</title>
<g id="a_node16"><a xlink:href="GrpPullback.html#grp_pullback_inverse" xlink:title="grp_pullback_inverse">
<ellipse fill="#f070d1" stroke="black" cx="1115" cy="-108.2" rx="108.58" ry="18"/>
<text text-anchor="middle" x="1115" y="-104.5" font-family="Times,serif" font-size="14.00">grp_pullback_inverse</text>
</a>
</g>
</g>
<!-- GrpPullback_grp_pullback_rightinverse&#45;&gt;GrpPullback_grp_pullback_inverse -->
<g id="edge24" class="edge">
<title>GrpPullback_grp_pullback_rightinverse&#45;&gt;GrpPullback_grp_pullback_inverse</title>
<path fill="none" stroke="black" d="M1220.57,-164.68C1201.16,-154.48 1176.08,-141.3 1155.23,-130.34"/>
<polygon fill="black" stroke="black" points="1156.76,-127.19 1146.28,-125.64 1153.51,-133.39 1156.76,-127.19"/>
</g>
<!-- GrpPullback_grp_pullback_mon_unit -->
<g id="node20" class="node">
<title>GrpPullback_grp_pullback_mon_unit</title>
<g id="a_node20"><a xlink:href="GrpPullback.html#grp_pullback_mon_unit" xlink:title="grp_pullback_mon_unit">
<ellipse fill="#f070d1" stroke="black" cx="841" cy="-108.2" rx="117.78" ry="18"/>
<text text-anchor="middle" x="841" y="-104.5" font-family="Times,serif" font-size="14.00">grp_pullback_mon_unit</text>
</a>
</g>
</g>
<!-- GrpPullback_grp_pullback_rightinverse&#45;&gt;GrpPullback_grp_pullback_mon_unit -->
<g id="edge25" class="edge">
<title>GrpPullback_grp_pullback_rightinverse&#45;&gt;GrpPullback_grp_pullback_mon_unit</title>
<path fill="none" stroke="black" d="M1174.21,-167.57C1103.2,-155.13 998.47,-136.79 925.44,-123.99"/>
<polygon fill="black" stroke="black" points="925.81,-120.5 915.36,-122.22 924.6,-127.4 925.81,-120.5"/>
</g>
<!-- GrpPullback_grp_pullback_sgop -->
<g id="node23" class="node">
<title>GrpPullback_grp_pullback_sgop</title>
<g id="a_node23"><a xlink:href="GrpPullback.html#grp_pullback_sgop" xlink:title="grp_pullback_sgop">
<ellipse fill="#f070d1" stroke="black" cx="704" cy="-35.2" rx="96.68" ry="18"/>
<text text-anchor="middle" x="704" y="-31.5" font-family="Times,serif" font-size="14.00">grp_pullback_sgop</text>
</a>
</g>
</g>
<!-- GrpPullback_grp_pullback_rightinverse&#45;&gt;GrpPullback_grp_pullback_sgop -->
<g id="edge26" class="edge">
<title>GrpPullback_grp_pullback_rightinverse&#45;&gt;GrpPullback_grp_pullback_sgop</title>
<path fill="none" stroke="black" d="M1253.89,-163.87C1255.09,-143.07 1253.5,-108.67 1233,-90.2 1202.13,-62.38 953,-46.98 807.9,-40.29"/>
<polygon fill="black" stroke="black" points="807.78,-36.78 797.63,-39.83 807.46,-43.78 807.78,-36.78"/>
</g>
<!-- GrpPullback_grp_pullback_leftinverse&#45;&gt;GrpPullback_grp_pullback_inverse -->
<g id="edge27" class="edge">
<title>GrpPullback_grp_pullback_leftinverse&#45;&gt;GrpPullback_grp_pullback_inverse</title>
<path fill="none" stroke="black" d="M1009.43,-164.68C1028.84,-154.48 1053.92,-141.3 1074.77,-130.34"/>
<polygon fill="black" stroke="black" points="1076.49,-133.39 1083.72,-125.64 1073.24,-127.19 1076.49,-133.39"/>
</g>
<!-- GrpPullback_grp_pullback_leftinverse&#45;&gt;GrpPullback_grp_pullback_mon_unit -->
<g id="edge28" class="edge">
<title>GrpPullback_grp_pullback_leftinverse&#45;&gt;GrpPullback_grp_pullback_mon_unit</title>
<path fill="none" stroke="black" d="M946.57,-164.68C927.16,-154.48 902.08,-141.3 881.23,-130.34"/>
<polygon fill="black" stroke="black" points="882.76,-127.19 872.28,-125.64 879.51,-133.39 882.76,-127.19"/>
</g>
<!-- GrpPullback_grp_pullback_leftinverse&#45;&gt;GrpPullback_grp_pullback_sgop -->
<g id="edge29" class="edge">
<title>GrpPullback_grp_pullback_leftinverse&#45;&gt;GrpPullback_grp_pullback_sgop</title>
<path fill="none" stroke="black" d="M981.54,-164.05C984.64,-143.74 986.2,-110.17 968,-90.2 945.63,-65.66 866.88,-51.73 801.17,-44.19"/>
<polygon fill="black" stroke="black" points="801.49,-40.7 791.16,-43.08 800.71,-47.66 801.49,-40.7"/>
</g>
<!-- GrpPullback_grp_pullback_rightidentity -->
<g id="node18" class="node">
<title>GrpPullback_grp_pullback_rightidentity</title>
<g id="a_node18"><a xlink:href="GrpPullback.html#grp_pullback_rightidentity" xlink:title="grp_pullback_rightidentity">
<ellipse fill="#f070d1" stroke="black" cx="432" cy="-182.2" rx="133.78" ry="18"/>
<text text-anchor="middle" x="432" y="-178.5" font-family="Times,serif" font-size="14.00">grp_pullback_rightidentity</text>
</a>
</g>
</g>
<!-- GrpPullback_ismonoid_grp_pullback&#45;&gt;GrpPullback_grp_pullback_rightidentity -->
<g id="edge30" class="edge">
<title>GrpPullback_ismonoid_grp_pullback&#45;&gt;GrpPullback_grp_pullback_rightidentity</title>
<path fill="none" stroke="black" d="M539.46,-238.86C519.78,-228.67 494.25,-215.44 473.01,-204.44"/>
<polygon fill="black" stroke="black" points="474.39,-201.21 463.9,-199.72 471.17,-207.43 474.39,-201.21"/>
</g>
<!-- GrpPullback_grp_pullback_leftidentity -->
<g id="node19" class="node">
<title>GrpPullback_grp_pullback_leftidentity</title>
<g id="a_node19"><a xlink:href="GrpPullback.html#grp_pullback_leftidentity" xlink:title="grp_pullback_leftidentity">
<ellipse fill="#f070d1" stroke="black" cx="710" cy="-182.2" rx="126.18" ry="18"/>
<text text-anchor="middle" x="710" y="-178.5" font-family="Times,serif" font-size="14.00">grp_pullback_leftidentity</text>
</a>
</g>
</g>
<!-- GrpPullback_ismonoid_grp_pullback&#45;&gt;GrpPullback_grp_pullback_leftidentity -->
<g id="edge31" class="edge">
<title>GrpPullback_ismonoid_grp_pullback&#45;&gt;GrpPullback_grp_pullback_leftidentity</title>
<path fill="none" stroke="black" d="M602.54,-238.86C622.22,-228.67 647.75,-215.44 668.99,-204.44"/>
<polygon fill="black" stroke="black" points="670.83,-207.43 678.1,-199.72 667.61,-201.21 670.83,-207.43"/>
</g>
<!-- GrpPullback_grp_pullback_issemigroup -->
<g id="node21" class="node">
<title>GrpPullback_grp_pullback_issemigroup</title>
<g id="a_node21"><a xlink:href="GrpPullback.html#grp_pullback_issemigroup" xlink:title="grp_pullback_issemigroup">
<ellipse fill="#f070d1" stroke="black" cx="148" cy="-182.2" rx="131.88" ry="18"/>
<text text-anchor="middle" x="148" y="-178.5" font-family="Times,serif" font-size="14.00">grp_pullback_issemigroup</text>
</a>
</g>
</g>
<!-- GrpPullback_ismonoid_grp_pullback&#45;&gt;GrpPullback_grp_pullback_issemigroup -->
<g id="edge32" class="edge">
<title>GrpPullback_ismonoid_grp_pullback&#45;&gt;GrpPullback_grp_pullback_issemigroup</title>
<path fill="none" stroke="black" d="M495.86,-242.41C423.5,-230.09 314,-211.45 237.24,-198.39"/>
<polygon fill="black" stroke="black" points="237.55,-194.89 227.1,-196.66 236.37,-201.79 237.55,-194.89"/>
</g>
<!-- GrpPullback_grp_pullback_rightidentity&#45;&gt;GrpPullback_grp_pullback_mon_unit -->
<g id="edge33" class="edge">
<title>GrpPullback_grp_pullback_rightidentity&#45;&gt;GrpPullback_grp_pullback_mon_unit</title>
<path fill="none" stroke="black" d="M509.89,-167.49C580.51,-155.06 684.33,-136.78 756.83,-124.02"/>
<polygon fill="black" stroke="black" points="757.6,-127.43 766.84,-122.25 756.39,-120.54 757.6,-127.43"/>
</g>
<!-- GrpPullback_grp_pullback_rightidentity&#45;&gt;GrpPullback_grp_pullback_sgop -->
<g id="edge34" class="edge">
<title>GrpPullback_grp_pullback_rightidentity&#45;&gt;GrpPullback_grp_pullback_sgop</title>
<path fill="none" stroke="black" d="M463.2,-164.57C512.93,-138.06 610.1,-86.26 664.57,-57.22"/>
<polygon fill="black" stroke="black" points="666.4,-60.21 673.58,-52.42 663.11,-54.03 666.4,-60.21"/>
</g>
<!-- GrpPullback_grp_pullback_leftidentity&#45;&gt;GrpPullback_grp_pullback_mon_unit -->
<g id="edge35" class="edge">
<title>GrpPullback_grp_pullback_leftidentity&#45;&gt;GrpPullback_grp_pullback_mon_unit</title>
<path fill="none" stroke="black" d="M740.05,-164.68C758.53,-154.53 782.38,-141.42 802.26,-130.49"/>
<polygon fill="black" stroke="black" points="804.01,-133.52 811.09,-125.64 800.64,-127.39 804.01,-133.52"/>
</g>
<!-- GrpPullback_grp_pullback_leftidentity&#45;&gt;GrpPullback_grp_pullback_sgop -->
<g id="edge36" class="edge">
<title>GrpPullback_grp_pullback_leftidentity&#45;&gt;GrpPullback_grp_pullback_sgop</title>
<path fill="none" stroke="black" d="M709.29,-164C708.26,-139.14 706.35,-92.94 705.13,-63.43"/>
<polygon fill="black" stroke="black" points="708.62,-63.23 704.71,-53.38 701.63,-63.52 708.62,-63.23"/>
</g>
<!-- GrpPullback_grp_pullback_sgop_associative -->
<g id="node22" class="node">
<title>GrpPullback_grp_pullback_sgop_associative</title>
<g id="a_node22"><a xlink:href="GrpPullback.html#grp_pullback_sgop_associative" xlink:title="grp_pullback_sgop_associative">
<ellipse fill="#f070d1" stroke="black" cx="255" cy="-108.2" rx="152.17" ry="18"/>
<text text-anchor="middle" x="255" y="-104.5" font-family="Times,serif" font-size="14.00">grp_pullback_sgop_associative</text>
</a>
</g>
</g>
<!-- GrpPullback_grp_pullback_issemigroup&#45;&gt;GrpPullback_grp_pullback_sgop_associative -->
<g id="edge37" class="edge">
<title>GrpPullback_grp_pullback_issemigroup&#45;&gt;GrpPullback_grp_pullback_sgop_associative</title>
<path fill="none" stroke="black" d="M172.82,-164.5C187.3,-154.76 205.76,-142.33 221.51,-131.73"/>
<polygon fill="black" stroke="black" points="223.6,-134.54 229.95,-126.06 219.7,-128.74 223.6,-134.54"/>
</g>
<!-- GrpPullback_grp_pullback_sgop_associative&#45;&gt;GrpPullback_grp_pullback_sgop -->
<g id="edge38" class="edge">
<title>GrpPullback_grp_pullback_sgop_associative&#45;&gt;GrpPullback_grp_pullback_sgop</title>
<path fill="none" stroke="black" d="M342.1,-93.43C423.3,-80.59 543.45,-61.59 622.72,-49.05"/>
<polygon fill="black" stroke="black" points="623.33,-52.5 632.66,-47.48 622.23,-45.59 623.33,-52.5"/>
</g>
</g>
</svg>
