<?xml version="1.0" encoding="UTF-8" standalone="no"?>
<!DOCTYPE svg PUBLIC "-//W3C//DTD SVG 1.1//EN"
 "http://www.w3.org/Graphics/SVG/1.1/DTD/svg11.dtd">
<!-- Generated by graphviz version 2.43.0 (0)
 -->
<!-- Title: HoTT_Classes_interfaces_ua_algebra Pages: 1 -->
<svg width="1593pt" height="801pt"
 viewBox="0.00 0.00 1593.00 800.50" xmlns="http://www.w3.org/2000/svg" xmlns:xlink="http://www.w3.org/1999/xlink">
<g id="graph0" class="graph" transform="scale(1 1) rotate(0) translate(4 796.5)">
<title>HoTT_Classes_interfaces_ua_algebra</title>
<polygon fill="white" stroke="transparent" points="-4,4 -4,-796.5 1589,-796.5 1589,4 -4,4"/>
<g id="clust1" class="cluster">
<title>cluster_ua_algebra</title>
<polygon fill="#ffffc3" stroke="black" points="8,-9.18 8,-783.32 1577,-783.32 1577,-9.18 8,-9.18"/>
<text text-anchor="middle" x="55.5" y="-768.12" font-family="Times,serif" font-size="14.00">ua_algebra</text>
</g>
<!-- ua_algebra_path_path_hset_algebra -->
<g id="node1" class="node">
<title>ua_algebra_path_path_hset_algebra</title>
<g id="a_node1"><a xlink:href="ua_algebra.html#path_path_hset_algebra" xlink:title="path_path_hset_algebra">
<ellipse fill="#f070d1" stroke="black" cx="853" cy="-718.18" rx="120.79" ry="18"/>
<ellipse fill="none" stroke="black" cx="853" cy="-718.18" rx="124.78" ry="22"/>
<ellipse fill="none" stroke="black" cx="853" cy="-718.18" rx="128.78" ry="26"/>
<text text-anchor="middle" x="853" y="-714.48" font-family="Times,serif" font-size="14.00">path_path_hset_algebra</text>
</a>
</g>
</g>
<!-- ua_algebra_path_path_algebra -->
<g id="node2" class="node">
<title>ua_algebra_path_path_algebra</title>
<g id="a_node2"><a xlink:href="ua_algebra.html#path_path_algebra" xlink:title="path_path_algebra">
<ellipse fill="#f070d1" stroke="black" cx="1168" cy="-617.18" rx="96.68" ry="18"/>
<text text-anchor="middle" x="1168" y="-613.48" font-family="Times,serif" font-size="14.00">path_path_algebra</text>
</a>
</g>
</g>
<!-- ua_algebra_path_path_hset_algebra&#45;&gt;ua_algebra_path_path_algebra -->
<g id="edge1" class="edge">
<title>ua_algebra_path_path_hset_algebra&#45;&gt;ua_algebra_path_path_algebra</title>
<path fill="none" stroke="black" d="M920.58,-695.94C977.42,-678.07 1057.76,-652.82 1111.3,-636"/>
<polygon fill="black" stroke="black" points="1112.48,-639.29 1120.97,-632.96 1110.38,-632.61 1112.48,-639.29"/>
</g>
<!-- ua_algebra_trunc_carriers_algebra -->
<g id="node7" class="node">
<title>ua_algebra_trunc_carriers_algebra</title>
<g id="a_node7"><a xlink:href="ua_algebra.html#trunc_carriers_algebra" xlink:title="trunc_carriers_algebra">
<ellipse fill="#f070d1" stroke="black" cx="132" cy="-617.18" rx="116.18" ry="18"/>
<text text-anchor="middle" x="132" y="-613.48" font-family="Times,serif" font-size="14.00">trunc_carriers_algebra</text>
</a>
</g>
</g>
<!-- ua_algebra_path_path_hset_algebra&#45;&gt;ua_algebra_trunc_carriers_algebra -->
<g id="edge2" class="edge">
<title>ua_algebra_path_path_hset_algebra&#45;&gt;ua_algebra_trunc_carriers_algebra</title>
<path fill="none" stroke="black" d="M739.77,-705.64C619.62,-692.8 424.39,-670.27 257,-643.18 240.81,-640.55 223.51,-637.36 207.11,-634.13"/>
<polygon fill="black" stroke="black" points="207.53,-630.65 197.03,-632.13 206.16,-637.51 207.53,-630.65"/>
</g>
<!-- ua_algebra_carriers -->
<g id="node12" class="node">
<title>ua_algebra_carriers</title>
<g id="a_node12"><a xlink:href="ua_algebra.html#carriers" xlink:title="carriers">
<ellipse fill="#f070d1" stroke="black" cx="399" cy="-516.18" rx="47.39" ry="18"/>
<text text-anchor="middle" x="399" y="-512.48" font-family="Times,serif" font-size="14.00">carriers</text>
</a>
</g>
</g>
<!-- ua_algebra_path_path_hset_algebra&#45;&gt;ua_algebra_carriers -->
<g id="edge3" class="edge">
<title>ua_algebra_path_path_hset_algebra&#45;&gt;ua_algebra_carriers</title>
<path fill="none" stroke="black" d="M749.74,-702.5C673.79,-689.81 578.83,-669.4 549,-643.18 530.4,-626.83 545.14,-609.95 529,-591.18 515.77,-575.79 470.23,-551.6 436.77,-535.1"/>
<polygon fill="black" stroke="black" points="438.21,-531.91 427.69,-530.66 435.14,-538.2 438.21,-531.91"/>
</g>
<!-- ua_algebra_trunc_operation -->
<g id="node21" class="node">
<title>ua_algebra_trunc_operation</title>
<g id="a_node21"><a xlink:href="ua_algebra.html#trunc_operation" xlink:title="trunc_operation">
<ellipse fill="#f070d1" stroke="black" cx="1109" cy="-415.18" rx="84.49" ry="18"/>
<text text-anchor="middle" x="1109" y="-411.48" font-family="Times,serif" font-size="14.00">trunc_operation</text>
</a>
</g>
</g>
<!-- ua_algebra_path_path_hset_algebra&#45;&gt;ua_algebra_trunc_operation -->
<g id="edge4" class="edge">
<title>ua_algebra_path_path_hset_algebra&#45;&gt;ua_algebra_trunc_operation</title>
<path fill="none" stroke="black" d="M978.76,-712.4C1088.83,-705.26 1236.81,-687.47 1274,-643.18 1295.86,-617.14 1292.48,-518.72 1274,-490.18 1261.23,-470.45 1206.99,-448.5 1164.13,-433.66"/>
<polygon fill="black" stroke="black" points="1165.22,-430.33 1154.63,-430.42 1162.96,-436.96 1165.22,-430.33"/>
</g>
<!-- ua_algebra_issig_algebra -->
<g id="node9" class="node">
<title>ua_algebra_issig_algebra</title>
<g id="a_node9"><a xlink:href="ua_algebra.html#issig_algebra" xlink:title="issig_algebra">
<ellipse fill="#f070d1" stroke="black" cx="1194" cy="-516.18" rx="71.49" ry="18"/>
<text text-anchor="middle" x="1194" y="-512.48" font-family="Times,serif" font-size="14.00">issig_algebra</text>
</a>
</g>
</g>
<!-- ua_algebra_path_path_algebra&#45;&gt;ua_algebra_issig_algebra -->
<g id="edge5" class="edge">
<title>ua_algebra_path_path_algebra&#45;&gt;ua_algebra_issig_algebra</title>
<path fill="none" stroke="black" d="M1172.53,-598.93C1176.48,-583.88 1182.28,-561.79 1186.86,-544.36"/>
<polygon fill="black" stroke="black" points="1190.37,-544.78 1189.52,-534.22 1183.6,-543 1190.37,-544.78"/>
</g>
<!-- ua_algebra_path_ap_carriers_path_algebra -->
<g id="node3" class="node">
<title>ua_algebra_path_ap_carriers_path_algebra</title>
<g id="a_node3"><a xlink:href="ua_algebra.html#path_ap_carriers_path_algebra" xlink:title="path_ap_carriers_path_algebra">
<ellipse fill="#f070d1" stroke="black" cx="719" cy="-617.18" rx="153.28" ry="18"/>
<ellipse fill="none" stroke="black" cx="719" cy="-617.18" rx="157.28" ry="22"/>
<ellipse fill="none" stroke="black" cx="719" cy="-617.18" rx="161.27" ry="26"/>
<text text-anchor="middle" x="719" y="-613.48" font-family="Times,serif" font-size="14.00">path_ap_carriers_path_algebra</text>
</a>
</g>
</g>
<!-- ua_algebra_path_algebra -->
<g id="node4" class="node">
<title>ua_algebra_path_algebra</title>
<g id="a_node4"><a xlink:href="ua_algebra.html#path_algebra" xlink:title="path_algebra">
<ellipse fill="#f070d1" stroke="black" cx="536" cy="-516.18" rx="71.49" ry="18"/>
<text text-anchor="middle" x="536" y="-512.48" font-family="Times,serif" font-size="14.00">path_algebra</text>
</a>
</g>
</g>
<!-- ua_algebra_path_ap_carriers_path_algebra&#45;&gt;ua_algebra_path_algebra -->
<g id="edge6" class="edge">
<title>ua_algebra_path_ap_carriers_path_algebra&#45;&gt;ua_algebra_path_algebra</title>
<path fill="none" stroke="black" d="M674.23,-591.96C643.49,-575.32 603.12,-553.49 573.95,-537.71"/>
<polygon fill="black" stroke="black" points="575.36,-534.49 564.9,-532.81 572.03,-540.65 575.36,-534.49"/>
</g>
<!-- ua_algebra_path_ap_carriers_path_algebra&#45;&gt;ua_algebra_carriers -->
<g id="edge7" class="edge">
<title>ua_algebra_path_ap_carriers_path_algebra&#45;&gt;ua_algebra_carriers</title>
<path fill="none" stroke="black" d="M632.77,-595.15C580.97,-581.72 514.05,-562.96 456,-542.18 449.86,-539.98 443.44,-537.42 437.22,-534.81"/>
<polygon fill="black" stroke="black" points="438.25,-531.44 427.68,-530.68 435.47,-537.86 438.25,-531.44"/>
</g>
<!-- ua_algebra_BuildAlgebra -->
<g id="node17" class="node">
<title>ua_algebra_BuildAlgebra</title>
<g id="a_node17"><a xlink:href="ua_algebra.html#BuildAlgebra" xlink:title="BuildAlgebra">
<ellipse fill="#7faaff" stroke="black" cx="794" cy="-415.18" rx="71.49" ry="18"/>
<text text-anchor="middle" x="794" y="-411.48" font-family="Times,serif" font-size="14.00">BuildAlgebra</text>
</a>
</g>
</g>
<!-- ua_algebra_path_algebra&#45;&gt;ua_algebra_BuildAlgebra -->
<g id="edge8" class="edge">
<title>ua_algebra_path_algebra&#45;&gt;ua_algebra_BuildAlgebra</title>
<path fill="none" stroke="black" d="M573.52,-500.78C619.37,-483.18 697.01,-453.39 746.86,-434.26"/>
<polygon fill="black" stroke="black" points="748.36,-437.44 756.44,-430.59 745.85,-430.9 748.36,-437.44"/>
</g>
<!-- ua_algebra_Algebra -->
<g id="node18" class="node">
<title>ua_algebra_Algebra</title>
<g id="a_node18"><a xlink:href="ua_algebra.html#Algebra" xlink:title="Algebra">
<ellipse fill="#e2cdfa" stroke="black" cx="658" cy="-415.18" rx="46.59" ry="18"/>
<text text-anchor="middle" x="658" y="-411.48" font-family="Times,serif" font-size="14.00">Algebra</text>
</a>
</g>
</g>
<!-- ua_algebra_path_algebra&#45;&gt;ua_algebra_Algebra -->
<g id="edge9" class="edge">
<title>ua_algebra_path_algebra&#45;&gt;ua_algebra_Algebra</title>
<path fill="none" stroke="black" d="M556.15,-498.83C576.52,-482.29 608.15,-456.63 630.75,-438.29"/>
<polygon fill="black" stroke="black" points="633.07,-440.91 638.63,-431.89 628.66,-435.48 633.07,-440.91"/>
</g>
<!-- ua_algebra_trunc_algebra_succ -->
<g id="node5" class="node">
<title>ua_algebra_trunc_algebra_succ</title>
<g id="a_node5"><a xlink:href="ua_algebra.html#trunc_algebra_succ" xlink:title="trunc_algebra_succ">
<ellipse fill="#f070d1" stroke="black" cx="132" cy="-718.18" rx="100.18" ry="18"/>
<ellipse fill="none" stroke="black" cx="132" cy="-718.18" rx="104.18" ry="22"/>
<ellipse fill="none" stroke="black" cx="132" cy="-718.18" rx="108.18" ry="26"/>
<text text-anchor="middle" x="132" y="-714.48" font-family="Times,serif" font-size="14.00">trunc_algebra_succ</text>
</a>
</g>
</g>
<!-- ua_algebra_trunc_algebra_succ&#45;&gt;ua_algebra_trunc_carriers_algebra -->
<g id="edge10" class="edge">
<title>ua_algebra_trunc_algebra_succ&#45;&gt;ua_algebra_trunc_carriers_algebra</title>
<path fill="none" stroke="black" d="M132,-691.94C132,-677.79 132,-660.12 132,-645.62"/>
<polygon fill="black" stroke="black" points="135.5,-645.27 132,-635.27 128.5,-645.27 135.5,-645.27"/>
</g>
<!-- ua_algebra_hprop_is_trunc_algebra -->
<g id="node6" class="node">
<title>ua_algebra_hprop_is_trunc_algebra</title>
<g id="a_node6"><a xlink:href="ua_algebra.html#hprop_is_trunc_algebra" xlink:title="hprop_is_trunc_algebra">
<ellipse fill="#f070d1" stroke="black" cx="393" cy="-617.18" rx="118.88" ry="18"/>
<ellipse fill="none" stroke="black" cx="393" cy="-617.18" rx="122.88" ry="22"/>
<ellipse fill="none" stroke="black" cx="393" cy="-617.18" rx="126.88" ry="26"/>
<text text-anchor="middle" x="393" y="-613.48" font-family="Times,serif" font-size="14.00">hprop_is_trunc_algebra</text>
</a>
</g>
</g>
<!-- ua_algebra_IsTruncAlgebra -->
<g id="node8" class="node">
<title>ua_algebra_IsTruncAlgebra</title>
<g id="a_node8"><a xlink:href="ua_algebra.html#IsTruncAlgebra" xlink:title="IsTruncAlgebra">
<ellipse fill="#f070d1" stroke="black" cx="98" cy="-516.18" rx="81.79" ry="18"/>
<text text-anchor="middle" x="98" y="-512.48" font-family="Times,serif" font-size="14.00">IsTruncAlgebra</text>
</a>
</g>
</g>
<!-- ua_algebra_hprop_is_trunc_algebra&#45;&gt;ua_algebra_IsTruncAlgebra -->
<g id="edge11" class="edge">
<title>ua_algebra_hprop_is_trunc_algebra&#45;&gt;ua_algebra_IsTruncAlgebra</title>
<path fill="none" stroke="black" d="M328.99,-594.69C275.61,-576.78 200.48,-551.57 150.57,-534.82"/>
<polygon fill="black" stroke="black" points="151.53,-531.45 140.93,-531.58 149.3,-538.08 151.53,-531.45"/>
</g>
<!-- ua_algebra_trunc_carriers_algebra&#45;&gt;ua_algebra_IsTruncAlgebra -->
<g id="edge12" class="edge">
<title>ua_algebra_trunc_carriers_algebra&#45;&gt;ua_algebra_IsTruncAlgebra</title>
<path fill="none" stroke="black" d="M126.08,-598.93C120.86,-583.74 113.18,-561.37 107.17,-543.87"/>
<polygon fill="black" stroke="black" points="110.41,-542.54 103.85,-534.22 103.79,-544.82 110.41,-542.54"/>
</g>
<!-- ua_algebra_IsTruncAlgebra&#45;&gt;ua_algebra_Algebra -->
<g id="edge13" class="edge">
<title>ua_algebra_IsTruncAlgebra&#45;&gt;ua_algebra_Algebra</title>
<path fill="none" stroke="black" d="M144.52,-501.32C158.71,-497.38 174.43,-493.32 189,-490.18 338.02,-458.05 516.48,-433.73 604.08,-422.69"/>
<polygon fill="black" stroke="black" points="604.57,-426.16 614.05,-421.44 603.7,-419.21 604.57,-426.16"/>
</g>
<!-- ua_algebra_SigAlgebra -->
<g id="node10" class="node">
<title>ua_algebra_SigAlgebra</title>
<g id="a_node10"><a xlink:href="ua_algebra.html#SigAlgebra" xlink:title="SigAlgebra">
<ellipse fill="#f070d1" stroke="black" cx="945" cy="-415.18" rx="61.99" ry="18"/>
<text text-anchor="middle" x="945" y="-411.48" font-family="Times,serif" font-size="14.00">SigAlgebra</text>
</a>
</g>
</g>
<!-- ua_algebra_issig_algebra&#45;&gt;ua_algebra_SigAlgebra -->
<g id="edge14" class="edge">
<title>ua_algebra_issig_algebra&#45;&gt;ua_algebra_SigAlgebra</title>
<path fill="none" stroke="black" d="M1157.53,-500.67C1112.92,-482.94 1037.43,-452.93 989.47,-433.85"/>
<polygon fill="black" stroke="black" points="990.55,-430.52 979.96,-430.08 987.96,-437.02 990.55,-430.52"/>
</g>
<!-- ua_algebra_issig_algebra&#45;&gt;ua_algebra_BuildAlgebra -->
<g id="edge15" class="edge">
<title>ua_algebra_issig_algebra&#45;&gt;ua_algebra_BuildAlgebra</title>
<path fill="none" stroke="black" d="M1152.71,-501.39C1140.33,-497.5 1126.68,-493.44 1114,-490.18 1008.58,-463.02 979.42,-468.34 874,-441.18 864.59,-438.75 854.64,-435.89 845.08,-432.98"/>
<polygon fill="black" stroke="black" points="845.88,-429.57 835.29,-429.96 843.81,-436.26 845.88,-429.57"/>
</g>
<!-- ua_algebra_issig_algebra&#45;&gt;ua_algebra_Algebra -->
<g id="edge16" class="edge">
<title>ua_algebra_issig_algebra&#45;&gt;ua_algebra_Algebra</title>
<path fill="none" stroke="black" d="M1154.09,-501.15C1141.4,-497.11 1127.23,-493.03 1114,-490.18 938.92,-452.42 886.58,-489.1 714,-441.18 707.38,-439.34 700.55,-436.84 694.02,-434.13"/>
<polygon fill="black" stroke="black" points="695.3,-430.87 684.74,-430.06 692.49,-437.28 695.3,-430.87"/>
</g>
<!-- ua_algebra_Operation -->
<g id="node22" class="node">
<title>ua_algebra_Operation</title>
<g id="a_node22"><a xlink:href="ua_algebra.html#Operation" xlink:title="Operation">
<ellipse fill="#f070d1" stroke="black" cx="1027" cy="-314.18" rx="57.39" ry="18"/>
<text text-anchor="middle" x="1027" y="-310.48" font-family="Times,serif" font-size="14.00">Operation</text>
</a>
</g>
</g>
<!-- ua_algebra_SigAlgebra&#45;&gt;ua_algebra_Operation -->
<g id="edge17" class="edge">
<title>ua_algebra_SigAlgebra&#45;&gt;ua_algebra_Operation</title>
<path fill="none" stroke="black" d="M958.91,-397.38C972.07,-381.5 991.96,-357.48 1006.85,-339.51"/>
<polygon fill="black" stroke="black" points="1009.61,-341.66 1013.3,-331.72 1004.22,-337.19 1009.61,-341.66"/>
</g>
<!-- ua_algebra_operations -->
<g id="node11" class="node">
<title>ua_algebra_operations</title>
<g id="a_node11"><a xlink:href="ua_algebra.html#operations" xlink:title="operations">
<ellipse fill="#f070d1" stroke="black" cx="266" cy="-516.18" rx="59.61" ry="18"/>
<ellipse fill="none" stroke="black" cx="266" cy="-516.18" rx="63.6" ry="22"/>
<ellipse fill="none" stroke="black" cx="266" cy="-516.18" rx="67.59" ry="26"/>
<text text-anchor="middle" x="266" y="-512.48" font-family="Times,serif" font-size="14.00">operations</text>
</a>
</g>
</g>
<!-- ua_algebra_operations&#45;&gt;ua_algebra_Algebra -->
<g id="edge18" class="edge">
<title>ua_algebra_operations&#45;&gt;ua_algebra_Algebra</title>
<path fill="none" stroke="black" d="M315.93,-498.3C324.91,-495.45 334.2,-492.63 343,-490.18 435.51,-464.34 544.96,-440 607.46,-426.69"/>
<polygon fill="black" stroke="black" points="608.39,-430.07 617.45,-424.57 606.94,-423.22 608.39,-430.07"/>
</g>
<!-- ua_algebra_carriers&#45;&gt;ua_algebra_Algebra -->
<g id="edge19" class="edge">
<title>ua_algebra_carriers&#45;&gt;ua_algebra_Algebra</title>
<path fill="none" stroke="black" d="M428.44,-501.85C437.25,-497.97 446.98,-493.8 456,-490.18 510.22,-468.38 573.61,-445.58 614.72,-431.15"/>
<polygon fill="black" stroke="black" points="615.88,-434.46 624.16,-427.85 613.56,-427.85 615.88,-434.46"/>
</g>
<!-- ua_algebra_Algebra_sind -->
<g id="node13" class="node">
<title>ua_algebra_Algebra_sind</title>
<g id="a_node13"><a xlink:href="ua_algebra.html#Algebra_sind" xlink:title="Algebra_sind">
<ellipse fill="#f070d1" stroke="black" cx="704" cy="-516.18" rx="70.7" ry="18"/>
<ellipse fill="none" stroke="black" cx="704" cy="-516.18" rx="74.7" ry="22"/>
<ellipse fill="none" stroke="black" cx="704" cy="-516.18" rx="78.69" ry="26"/>
<text text-anchor="middle" x="704" y="-512.48" font-family="Times,serif" font-size="14.00">Algebra_sind</text>
</a>
</g>
</g>
<!-- ua_algebra_Algebra_sind&#45;&gt;ua_algebra_BuildAlgebra -->
<g id="edge20" class="edge">
<title>ua_algebra_Algebra_sind&#45;&gt;ua_algebra_BuildAlgebra</title>
<path fill="none" stroke="black" d="M726.02,-490.96C739.93,-475.65 757.85,-455.94 771.8,-440.59"/>
<polygon fill="black" stroke="black" points="774.56,-442.77 778.69,-433.01 769.38,-438.06 774.56,-442.77"/>
</g>
<!-- ua_algebra_Algebra_sind&#45;&gt;ua_algebra_Algebra -->
<g id="edge21" class="edge">
<title>ua_algebra_Algebra_sind&#45;&gt;ua_algebra_Algebra</title>
<path fill="none" stroke="black" d="M692.51,-490.45C685.7,-475.79 677.07,-457.23 670.15,-442.33"/>
<polygon fill="black" stroke="black" points="673.27,-440.74 665.88,-433.14 666.92,-443.68 673.27,-440.74"/>
</g>
<!-- ua_algebra_Algebra_rec -->
<g id="node14" class="node">
<title>ua_algebra_Algebra_rec</title>
<g id="a_node14"><a xlink:href="ua_algebra.html#Algebra_rec" xlink:title="Algebra_rec">
<ellipse fill="#f070d1" stroke="black" cx="980" cy="-617.18" rx="65.77" ry="18"/>
<ellipse fill="none" stroke="black" cx="980" cy="-617.18" rx="69.78" ry="22"/>
<ellipse fill="none" stroke="black" cx="980" cy="-617.18" rx="73.79" ry="26"/>
<text text-anchor="middle" x="980" y="-613.48" font-family="Times,serif" font-size="14.00">Algebra_rec</text>
</a>
</g>
</g>
<!-- ua_algebra_Algebra_rect -->
<g id="node16" class="node">
<title>ua_algebra_Algebra_rect</title>
<g id="a_node16"><a xlink:href="ua_algebra.html#Algebra_rect" xlink:title="Algebra_rect">
<ellipse fill="#f070d1" stroke="black" cx="1035" cy="-516.18" rx="69.59" ry="18"/>
<text text-anchor="middle" x="1035" y="-512.48" font-family="Times,serif" font-size="14.00">Algebra_rect</text>
</a>
</g>
</g>
<!-- ua_algebra_Algebra_rec&#45;&gt;ua_algebra_Algebra_rect -->
<g id="edge22" class="edge">
<title>ua_algebra_Algebra_rec&#45;&gt;ua_algebra_Algebra_rect</title>
<path fill="none" stroke="black" d="M993.74,-591.45C1001.96,-576.65 1012.39,-557.87 1020.71,-542.9"/>
<polygon fill="black" stroke="black" points="1023.78,-544.58 1025.57,-534.14 1017.66,-541.18 1023.78,-544.58"/>
</g>
<!-- ua_algebra_Algebra_ind -->
<g id="node15" class="node">
<title>ua_algebra_Algebra_ind</title>
<g id="a_node15"><a xlink:href="ua_algebra.html#Algebra_ind" xlink:title="Algebra_ind">
<ellipse fill="#7fffd4" stroke="black" cx="874" cy="-516.18" rx="65.77" ry="18"/>
<ellipse fill="none" stroke="black" cx="874" cy="-516.18" rx="69.78" ry="22"/>
<ellipse fill="none" stroke="black" cx="874" cy="-516.18" rx="73.79" ry="26"/>
<text text-anchor="middle" x="874" y="-512.48" font-family="Times,serif" font-size="14.00">Algebra_ind</text>
</a>
</g>
</g>
<!-- ua_algebra_Algebra_ind&#45;&gt;ua_algebra_BuildAlgebra -->
<g id="edge23" class="edge">
<title>ua_algebra_Algebra_ind&#45;&gt;ua_algebra_BuildAlgebra</title>
<path fill="none" stroke="black" d="M854.43,-490.96C842.17,-475.79 826.42,-456.3 814.07,-441.01"/>
<polygon fill="black" stroke="black" points="816.61,-438.59 807.61,-433.01 811.17,-442.99 816.61,-438.59"/>
</g>
<!-- ua_algebra_Algebra_ind&#45;&gt;ua_algebra_Algebra -->
<g id="edge24" class="edge">
<title>ua_algebra_Algebra_ind&#45;&gt;ua_algebra_Algebra</title>
<path fill="none" stroke="black" d="M830.29,-495.14C790.86,-477.07 733.44,-450.75 695.91,-433.55"/>
<polygon fill="black" stroke="black" points="697.37,-430.37 686.82,-429.38 694.45,-436.73 697.37,-430.37"/>
</g>
<!-- ua_algebra_Algebra_rect&#45;&gt;ua_algebra_BuildAlgebra -->
<g id="edge25" class="edge">
<title>ua_algebra_Algebra_rect&#45;&gt;ua_algebra_BuildAlgebra</title>
<path fill="none" stroke="black" d="M999.44,-500.57C956.9,-483.09 885.63,-453.81 839.21,-434.75"/>
<polygon fill="black" stroke="black" points="840.29,-431.41 829.71,-430.84 837.63,-437.88 840.29,-431.41"/>
</g>
<!-- ua_algebra_Algebra_rect&#45;&gt;ua_algebra_Algebra -->
<g id="edge26" class="edge">
<title>ua_algebra_Algebra_rect&#45;&gt;ua_algebra_Algebra</title>
<path fill="none" stroke="black" d="M994.77,-501.34C982.7,-497.44 969.39,-493.4 957,-490.18 850.38,-462.43 818.94,-474.72 714,-441.18 707.74,-439.18 701.25,-436.69 695,-434.06"/>
<polygon fill="black" stroke="black" points="696.01,-430.68 685.44,-429.88 693.2,-437.09 696.01,-430.68"/>
</g>
<!-- ua_algebra_BuildAlgebra&#45;&gt;ua_algebra_Operation -->
<g id="edge27" class="edge">
<title>ua_algebra_BuildAlgebra&#45;&gt;ua_algebra_Operation</title>
<path fill="none" stroke="black" d="M828.88,-399.35C870.51,-381.66 940.09,-352.1 984.74,-333.13"/>
<polygon fill="black" stroke="black" points="986.31,-336.27 994.14,-329.14 983.57,-329.83 986.31,-336.27"/>
</g>
<!-- ua_algebra_Algebra&#45;&gt;ua_algebra_Operation -->
<g id="edge28" class="edge">
<title>ua_algebra_Algebra&#45;&gt;ua_algebra_Operation</title>
<path fill="none" stroke="black" d="M685.79,-400.53C694.66,-396.51 704.62,-392.35 714,-389.18 800.86,-359.81 905.08,-337.67 968.64,-325.57"/>
<polygon fill="black" stroke="black" points="969.31,-329 978.49,-323.71 968.01,-322.12 969.31,-329"/>
</g>
<!-- ua_algebra_path_forall_ap_operation -->
<g id="node19" class="node">
<title>ua_algebra_path_forall_ap_operation</title>
<g id="a_node19"><a xlink:href="ua_algebra.html#path_forall_ap_operation" xlink:title="path_forall_ap_operation">
<ellipse fill="#f070d1" stroke="black" cx="1436" cy="-516.18" rx="124.59" ry="18"/>
<ellipse fill="none" stroke="black" cx="1436" cy="-516.18" rx="128.58" ry="22"/>
<ellipse fill="none" stroke="black" cx="1436" cy="-516.18" rx="132.58" ry="26"/>
<text text-anchor="middle" x="1436" y="-512.48" font-family="Times,serif" font-size="14.00">path_forall_ap_operation</text>
</a>
</g>
</g>
<!-- ua_algebra_ap_operation -->
<g id="node20" class="node">
<title>ua_algebra_ap_operation</title>
<g id="a_node20"><a xlink:href="ua_algebra.html#ap_operation" xlink:title="ap_operation">
<ellipse fill="#f070d1" stroke="black" cx="1282" cy="-415.18" rx="70.69" ry="18"/>
<text text-anchor="middle" x="1282" y="-411.48" font-family="Times,serif" font-size="14.00">ap_operation</text>
</a>
</g>
</g>
<!-- ua_algebra_path_forall_ap_operation&#45;&gt;ua_algebra_ap_operation -->
<g id="edge29" class="edge">
<title>ua_algebra_path_forall_ap_operation&#45;&gt;ua_algebra_ap_operation</title>
<path fill="none" stroke="black" d="M1398.72,-491.21C1373.35,-474.9 1340.06,-453.5 1315.53,-437.73"/>
<polygon fill="black" stroke="black" points="1317.22,-434.65 1306.91,-432.19 1313.43,-440.54 1317.22,-434.65"/>
</g>
<!-- ua_algebra_ap_operation&#45;&gt;ua_algebra_Operation -->
<g id="edge30" class="edge">
<title>ua_algebra_ap_operation&#45;&gt;ua_algebra_Operation</title>
<path fill="none" stroke="black" d="M1244.92,-399.78C1198.82,-381.88 1120.22,-351.37 1071.08,-332.29"/>
<polygon fill="black" stroke="black" points="1072.26,-328.99 1061.67,-328.63 1069.72,-335.52 1072.26,-328.99"/>
</g>
<!-- ua_algebra_dom_symboltype -->
<g id="node24" class="node">
<title>ua_algebra_dom_symboltype</title>
<g id="a_node24"><a xlink:href="ua_algebra.html#dom_symboltype" xlink:title="dom_symboltype">
<ellipse fill="#f070d1" stroke="black" cx="1470" cy="-314.18" rx="89.08" ry="18"/>
<text text-anchor="middle" x="1470" y="-310.48" font-family="Times,serif" font-size="14.00">dom_symboltype</text>
</a>
</g>
</g>
<!-- ua_algebra_ap_operation&#45;&gt;ua_algebra_dom_symboltype -->
<g id="edge31" class="edge">
<title>ua_algebra_ap_operation&#45;&gt;ua_algebra_dom_symboltype</title>
<path fill="none" stroke="black" d="M1311.38,-398.71C1343.42,-381.83 1394.88,-354.73 1430.45,-336"/>
<polygon fill="black" stroke="black" points="1432.37,-338.95 1439.59,-331.19 1429.11,-332.75 1432.37,-338.95"/>
</g>
<!-- ua_algebra_cod_symboltype -->
<g id="node25" class="node">
<title>ua_algebra_cod_symboltype</title>
<g id="a_node25"><a xlink:href="ua_algebra.html#cod_symboltype" xlink:title="cod_symboltype">
<ellipse fill="#f070d1" stroke="black" cx="1278" cy="-314.18" rx="85.29" ry="18"/>
<text text-anchor="middle" x="1278" y="-310.48" font-family="Times,serif" font-size="14.00">cod_symboltype</text>
</a>
</g>
</g>
<!-- ua_algebra_ap_operation&#45;&gt;ua_algebra_cod_symboltype -->
<g id="edge32" class="edge">
<title>ua_algebra_ap_operation&#45;&gt;ua_algebra_cod_symboltype</title>
<path fill="none" stroke="black" d="M1281.3,-396.93C1280.7,-381.88 1279.8,-359.79 1279.1,-342.36"/>
<polygon fill="black" stroke="black" points="1282.59,-342.07 1278.69,-332.22 1275.6,-342.36 1282.59,-342.07"/>
</g>
<!-- ua_algebra_trunc_operation&#45;&gt;ua_algebra_Operation -->
<g id="edge33" class="edge">
<title>ua_algebra_trunc_operation&#45;&gt;ua_algebra_Operation</title>
<path fill="none" stroke="black" d="M1095.09,-397.38C1081.93,-381.5 1062.04,-357.48 1047.15,-339.51"/>
<polygon fill="black" stroke="black" points="1049.78,-337.19 1040.7,-331.72 1044.39,-341.66 1049.78,-337.19"/>
</g>
<!-- ua_algebra_SymbolType -->
<g id="node26" class="node">
<title>ua_algebra_SymbolType</title>
<g id="a_node26"><a xlink:href="ua_algebra.html#SymbolType" xlink:title="SymbolType">
<ellipse fill="#f070d1" stroke="black" cx="1359" cy="-213.18" rx="67.69" ry="18"/>
<text text-anchor="middle" x="1359" y="-209.48" font-family="Times,serif" font-size="14.00">SymbolType</text>
</a>
</g>
</g>
<!-- ua_algebra_Operation&#45;&gt;ua_algebra_SymbolType -->
<g id="edge34" class="edge">
<title>ua_algebra_Operation&#45;&gt;ua_algebra_SymbolType</title>
<path fill="none" stroke="black" d="M1068.19,-301.65C1118.71,-287.42 1206.87,-262.27 1282,-239.18 1290.68,-236.51 1299.89,-233.59 1308.8,-230.73"/>
<polygon fill="black" stroke="black" points="1309.88,-234.06 1318.32,-227.65 1307.72,-227.4 1309.88,-234.06"/>
</g>
<!-- ua_algebra_arity_symboltype -->
<g id="node23" class="node">
<title>ua_algebra_arity_symboltype</title>
<g id="a_node23"><a xlink:href="ua_algebra.html#arity_symboltype" xlink:title="arity_symboltype">
<ellipse fill="#f070d1" stroke="black" cx="1470" cy="-415.18" rx="90.98" ry="18"/>
<ellipse fill="none" stroke="black" cx="1470" cy="-415.18" rx="94.98" ry="22"/>
<ellipse fill="none" stroke="black" cx="1470" cy="-415.18" rx="98.98" ry="26"/>
<text text-anchor="middle" x="1470" y="-411.48" font-family="Times,serif" font-size="14.00">arity_symboltype</text>
</a>
</g>
</g>
<!-- ua_algebra_arity_symboltype&#45;&gt;ua_algebra_dom_symboltype -->
<g id="edge35" class="edge">
<title>ua_algebra_arity_symboltype&#45;&gt;ua_algebra_dom_symboltype</title>
<path fill="none" stroke="black" d="M1470,-388.94C1470,-374.79 1470,-357.12 1470,-342.62"/>
<polygon fill="black" stroke="black" points="1473.5,-342.27 1470,-332.27 1466.5,-342.27 1473.5,-342.27"/>
</g>
<!-- ua_algebra_dom_symboltype&#45;&gt;ua_algebra_SymbolType -->
<g id="edge36" class="edge">
<title>ua_algebra_dom_symboltype&#45;&gt;ua_algebra_SymbolType</title>
<path fill="none" stroke="black" d="M1451.17,-296.38C1433.04,-280.21 1405.46,-255.62 1385.2,-237.54"/>
<polygon fill="black" stroke="black" points="1387.34,-234.77 1377.55,-230.72 1382.68,-239.99 1387.34,-234.77"/>
</g>
<!-- ua_algebra_cod_symboltype&#45;&gt;ua_algebra_SymbolType -->
<g id="edge37" class="edge">
<title>ua_algebra_cod_symboltype&#45;&gt;ua_algebra_SymbolType</title>
<path fill="none" stroke="black" d="M1291.74,-296.38C1304.66,-280.59 1324.15,-256.77 1338.83,-238.83"/>
<polygon fill="black" stroke="black" points="1341.57,-241.01 1345.19,-231.05 1336.15,-236.57 1341.57,-241.01"/>
</g>
<!-- ua_algebra_Signature -->
<g id="node36" class="node">
<title>ua_algebra_Signature</title>
<g id="a_node36"><a xlink:href="ua_algebra.html#Signature" xlink:title="Signature">
<ellipse fill="#e2cdfa" stroke="black" cx="784" cy="-121.18" rx="56.59" ry="18"/>
<text text-anchor="middle" x="784" y="-117.48" font-family="Times,serif" font-size="14.00">Signature</text>
</a>
</g>
</g>
<!-- ua_algebra_SymbolType&#45;&gt;ua_algebra_Signature -->
<g id="edge38" class="edge">
<title>ua_algebra_SymbolType&#45;&gt;ua_algebra_Signature</title>
<path fill="none" stroke="black" d="M1320.61,-198.17C1308.4,-194.14 1294.75,-190.05 1282,-187.18 1128.74,-152.6 944.52,-134.5 848.84,-126.8"/>
<polygon fill="black" stroke="black" points="848.98,-123.31 838.74,-126.01 848.43,-130.28 848.98,-123.31"/>
</g>
<!-- ua_algebra_BuildSingleSortedSignature -->
<g id="node27" class="node">
<title>ua_algebra_BuildSingleSortedSignature</title>
<g id="a_node27"><a xlink:href="ua_algebra.html#BuildSingleSortedSignature" xlink:title="BuildSingleSortedSignature">
<ellipse fill="#f070d1" stroke="black" cx="166" cy="-213.18" rx="141.87" ry="18"/>
<ellipse fill="none" stroke="black" cx="166" cy="-213.18" rx="145.87" ry="22"/>
<ellipse fill="none" stroke="black" cx="166" cy="-213.18" rx="149.88" ry="26"/>
<text text-anchor="middle" x="166" y="-209.48" font-family="Times,serif" font-size="14.00">BuildSingleSortedSignature</text>
</a>
</g>
</g>
<!-- ua_algebra_BuildSignature -->
<g id="node35" class="node">
<title>ua_algebra_BuildSignature</title>
<g id="a_node35"><a xlink:href="ua_algebra.html#BuildSignature" xlink:title="BuildSignature">
<ellipse fill="#7faaff" stroke="black" cx="598" cy="-121.18" rx="81.49" ry="18"/>
<text text-anchor="middle" x="598" y="-117.48" font-family="Times,serif" font-size="14.00">BuildSignature</text>
</a>
</g>
</g>
<!-- ua_algebra_BuildSingleSortedSignature&#45;&gt;ua_algebra_BuildSignature -->
<g id="edge39" class="edge">
<title>ua_algebra_BuildSingleSortedSignature&#45;&gt;ua_algebra_BuildSignature</title>
<path fill="none" stroke="black" d="M259.21,-192.76C341.05,-175.71 458.13,-151.32 531.02,-136.13"/>
<polygon fill="black" stroke="black" points="531.93,-139.51 541.01,-134.05 530.5,-132.66 531.93,-139.51"/>
</g>
<!-- ua_algebra_BuildSingleSortedSignature&#45;&gt;ua_algebra_Signature -->
<g id="edge40" class="edge">
<title>ua_algebra_BuildSingleSortedSignature&#45;&gt;ua_algebra_Signature</title>
<path fill="none" stroke="black" d="M273.28,-194.94C290.57,-192.27 308.27,-189.6 325,-187.18 486.06,-163.87 527.17,-164.04 688,-139.18 700.41,-137.26 713.68,-135.02 726.28,-132.82"/>
<polygon fill="black" stroke="black" points="726.98,-136.25 736.21,-131.06 725.76,-129.36 726.98,-136.25"/>
</g>
<!-- ua_algebra_symbol_types -->
<g id="node28" class="node">
<title>ua_algebra_symbol_types</title>
<g id="a_node28"><a xlink:href="ua_algebra.html#symbol_types" xlink:title="symbol_types">
<ellipse fill="#f070d1" stroke="black" cx="1192" cy="-213.18" rx="73.39" ry="18"/>
<ellipse fill="none" stroke="black" cx="1192" cy="-213.18" rx="77.39" ry="22"/>
<ellipse fill="none" stroke="black" cx="1192" cy="-213.18" rx="81.39" ry="26"/>
<text text-anchor="middle" x="1192" y="-209.48" font-family="Times,serif" font-size="14.00">symbol_types</text>
</a>
</g>
</g>
<!-- ua_algebra_symbol_types&#45;&gt;ua_algebra_Signature -->
<g id="edge41" class="edge">
<title>ua_algebra_symbol_types&#45;&gt;ua_algebra_Signature</title>
<path fill="none" stroke="black" d="M1132.43,-195.2C1121.98,-192.4 1111.2,-189.62 1101,-187.18 1010.9,-165.58 905.32,-144.84 841.6,-132.8"/>
<polygon fill="black" stroke="black" points="842.22,-129.36 831.75,-130.95 840.93,-136.24 842.22,-129.36"/>
</g>
<!-- ua_algebra_Symbol -->
<g id="node29" class="node">
<title>ua_algebra_Symbol</title>
<g id="a_node29"><a xlink:href="ua_algebra.html#Symbol" xlink:title="Symbol">
<ellipse fill="#f070d1" stroke="black" cx="1039" cy="-213.18" rx="45.49" ry="18"/>
<ellipse fill="none" stroke="black" cx="1039" cy="-213.18" rx="49.49" ry="22"/>
<ellipse fill="none" stroke="black" cx="1039" cy="-213.18" rx="53.49" ry="26"/>
<text text-anchor="middle" x="1039" y="-209.48" font-family="Times,serif" font-size="14.00">Symbol</text>
</a>
</g>
</g>
<!-- ua_algebra_Symbol&#45;&gt;ua_algebra_Signature -->
<g id="edge42" class="edge">
<title>ua_algebra_Symbol&#45;&gt;ua_algebra_Signature</title>
<path fill="none" stroke="black" d="M999.11,-195.69C991.79,-192.78 984.18,-189.83 977,-187.18 928.08,-169.09 871.47,-150.27 832.26,-137.56"/>
<polygon fill="black" stroke="black" points="833.27,-134.21 822.68,-134.47 831.12,-140.87 833.27,-134.21"/>
</g>
<!-- ua_algebra_Sort -->
<g id="node30" class="node">
<title>ua_algebra_Sort</title>
<g id="a_node30"><a xlink:href="ua_algebra.html#Sort" xlink:title="Sort">
<ellipse fill="#f070d1" stroke="black" cx="929" cy="-213.18" rx="30.58" ry="18"/>
<ellipse fill="none" stroke="black" cx="929" cy="-213.18" rx="34.59" ry="22"/>
<ellipse fill="none" stroke="black" cx="929" cy="-213.18" rx="38.59" ry="26"/>
<text text-anchor="middle" x="929" y="-209.48" font-family="Times,serif" font-size="14.00">Sort</text>
</a>
</g>
</g>
<!-- ua_algebra_Sort&#45;&gt;ua_algebra_Signature -->
<g id="edge43" class="edge">
<title>ua_algebra_Sort&#45;&gt;ua_algebra_Signature</title>
<path fill="none" stroke="black" d="M901.04,-194.82C877.19,-180.02 842.84,-158.7 817.52,-142.98"/>
<polygon fill="black" stroke="black" points="819.31,-139.97 808.97,-137.67 815.62,-145.92 819.31,-139.97"/>
</g>
<!-- ua_algebra_Signature_sind -->
<g id="node31" class="node">
<title>ua_algebra_Signature_sind</title>
<g id="a_node31"><a xlink:href="ua_algebra.html#Signature_sind" xlink:title="Signature_sind">
<ellipse fill="#f070d1" stroke="black" cx="784" cy="-213.18" rx="80.68" ry="18"/>
<ellipse fill="none" stroke="black" cx="784" cy="-213.18" rx="84.68" ry="22"/>
<ellipse fill="none" stroke="black" cx="784" cy="-213.18" rx="88.69" ry="26"/>
<text text-anchor="middle" x="784" y="-209.48" font-family="Times,serif" font-size="14.00">Signature_sind</text>
</a>
</g>
</g>
<!-- ua_algebra_Signature_sind&#45;&gt;ua_algebra_BuildSignature -->
<g id="edge44" class="edge">
<title>ua_algebra_Signature_sind&#45;&gt;ua_algebra_BuildSignature</title>
<path fill="none" stroke="black" d="M739.45,-190.62C709.09,-175.93 669.19,-156.62 639.5,-142.26"/>
<polygon fill="black" stroke="black" points="640.77,-138.98 630.25,-137.78 637.73,-145.29 640.77,-138.98"/>
</g>
<!-- ua_algebra_Signature_sind&#45;&gt;ua_algebra_Signature -->
<g id="edge45" class="edge">
<title>ua_algebra_Signature_sind&#45;&gt;ua_algebra_Signature</title>
<path fill="none" stroke="black" d="M784,-187.11C784,-175.48 784,-161.62 784,-149.71"/>
<polygon fill="black" stroke="black" points="787.5,-149.42 784,-139.42 780.5,-149.42 787.5,-149.42"/>
</g>
<!-- ua_algebra_Signature_rec -->
<g id="node32" class="node">
<title>ua_algebra_Signature_rec</title>
<g id="a_node32"><a xlink:href="ua_algebra.html#Signature_rec" xlink:title="Signature_rec">
<ellipse fill="#f070d1" stroke="black" cx="598" cy="-314.18" rx="75.3" ry="18"/>
<ellipse fill="none" stroke="black" cx="598" cy="-314.18" rx="79.29" ry="22"/>
<ellipse fill="none" stroke="black" cx="598" cy="-314.18" rx="83.29" ry="26"/>
<text text-anchor="middle" x="598" y="-310.48" font-family="Times,serif" font-size="14.00">Signature_rec</text>
</a>
</g>
</g>
<!-- ua_algebra_Signature_rect -->
<g id="node34" class="node">
<title>ua_algebra_Signature_rect</title>
<g id="a_node34"><a xlink:href="ua_algebra.html#Signature_rect" xlink:title="Signature_rect">
<ellipse fill="#f070d1" stroke="black" cx="598" cy="-213.18" rx="79.09" ry="18"/>
<text text-anchor="middle" x="598" y="-209.48" font-family="Times,serif" font-size="14.00">Signature_rect</text>
</a>
</g>
</g>
<!-- ua_algebra_Signature_rec&#45;&gt;ua_algebra_Signature_rect -->
<g id="edge46" class="edge">
<title>ua_algebra_Signature_rec&#45;&gt;ua_algebra_Signature_rect</title>
<path fill="none" stroke="black" d="M598,-287.94C598,-273.79 598,-256.12 598,-241.62"/>
<polygon fill="black" stroke="black" points="601.5,-241.27 598,-231.27 594.5,-241.27 601.5,-241.27"/>
</g>
<!-- ua_algebra_Signature_ind -->
<g id="node33" class="node">
<title>ua_algebra_Signature_ind</title>
<g id="a_node33"><a xlink:href="ua_algebra.html#Signature_ind" xlink:title="Signature_ind">
<ellipse fill="#7fffd4" stroke="black" cx="417" cy="-213.18" rx="75.3" ry="18"/>
<ellipse fill="none" stroke="black" cx="417" cy="-213.18" rx="79.29" ry="22"/>
<ellipse fill="none" stroke="black" cx="417" cy="-213.18" rx="83.29" ry="26"/>
<text text-anchor="middle" x="417" y="-209.48" font-family="Times,serif" font-size="14.00">Signature_ind</text>
</a>
</g>
</g>
<!-- ua_algebra_Signature_ind&#45;&gt;ua_algebra_BuildSignature -->
<g id="edge47" class="edge">
<title>ua_algebra_Signature_ind&#45;&gt;ua_algebra_BuildSignature</title>
<path fill="none" stroke="black" d="M459.89,-190.85C489.42,-176.17 528.4,-156.78 557.41,-142.36"/>
<polygon fill="black" stroke="black" points="559.06,-145.45 566.46,-137.86 555.95,-139.18 559.06,-145.45"/>
</g>
<!-- ua_algebra_Signature_ind&#45;&gt;ua_algebra_Signature -->
<g id="edge48" class="edge">
<title>ua_algebra_Signature_ind&#45;&gt;ua_algebra_Signature</title>
<path fill="none" stroke="black" d="M478.21,-195.44C488.8,-192.63 499.71,-189.78 510,-187.18 585.85,-167.99 673.95,-147.39 729.34,-134.64"/>
<polygon fill="black" stroke="black" points="730.33,-138 739.29,-132.35 728.76,-131.18 730.33,-138"/>
</g>
<!-- ua_algebra_Signature_rect&#45;&gt;ua_algebra_BuildSignature -->
<g id="edge49" class="edge">
<title>ua_algebra_Signature_rect&#45;&gt;ua_algebra_BuildSignature</title>
<path fill="none" stroke="black" d="M598,-194.82C598,-182 598,-164.28 598,-149.56"/>
<polygon fill="black" stroke="black" points="601.5,-149.47 598,-139.47 594.5,-149.47 601.5,-149.47"/>
</g>
<!-- ua_algebra_Signature_rect&#45;&gt;ua_algebra_Signature -->
<g id="edge50" class="edge">
<title>ua_algebra_Signature_rect&#45;&gt;ua_algebra_Signature</title>
<path fill="none" stroke="black" d="M630.4,-196.5C662.27,-181.08 710.96,-157.52 744.95,-141.07"/>
<polygon fill="black" stroke="black" points="746.65,-144.14 754.12,-136.63 743.6,-137.84 746.65,-144.14"/>
</g>
<!-- ua_algebra_SymbolType_internal -->
<g id="node37" class="node">
<title>ua_algebra_SymbolType_internal</title>
<g id="a_node37"><a xlink:href="ua_algebra.html#SymbolType_internal" xlink:title="SymbolType_internal">
<ellipse fill="#f070d1" stroke="black" cx="691" cy="-39.18" rx="108.58" ry="18"/>
<text text-anchor="middle" x="691" y="-35.48" font-family="Times,serif" font-size="14.00">SymbolType_internal</text>
</a>
</g>
</g>
<!-- ua_algebra_BuildSignature&#45;&gt;ua_algebra_SymbolType_internal -->
<g id="edge51" class="edge">
<title>ua_algebra_BuildSignature&#45;&gt;ua_algebra_SymbolType_internal</title>
<path fill="none" stroke="black" d="M617.27,-103.6C630.65,-92.09 648.67,-76.59 663.54,-63.79"/>
<polygon fill="black" stroke="black" points="666.14,-66.18 671.44,-57.01 661.57,-60.87 666.14,-66.18"/>
</g>
<!-- ua_algebra_Signature&#45;&gt;ua_algebra_SymbolType_internal -->
<g id="edge52" class="edge">
<title>ua_algebra_Signature&#45;&gt;ua_algebra_SymbolType_internal</title>
<path fill="none" stroke="black" d="M765.18,-103.99C751.75,-92.43 733.46,-76.7 718.41,-63.75"/>
<polygon fill="black" stroke="black" points="720.3,-60.76 710.43,-56.89 715.73,-66.07 720.3,-60.76"/>
</g>
</g>
</svg>
