<?xml version="1.0" encoding="UTF-8" standalone="no"?>
<!DOCTYPE svg PUBLIC "-//W3C//DTD SVG 1.1//EN"
 "http://www.w3.org/Graphics/SVG/1.1/DTD/svg11.dtd">
<!-- Generated by graphviz version 2.43.0 (0)
 -->
<!-- Title: HoTT_Colimits_SpanPushout Pages: 1 -->
<svg width="830pt" height="419pt"
 viewBox="0.00 0.00 830.00 419.00" xmlns="http://www.w3.org/2000/svg" xmlns:xlink="http://www.w3.org/1999/xlink">
<g id="graph0" class="graph" transform="scale(1 1) rotate(0) translate(4 415)">
<title>HoTT_Colimits_SpanPushout</title>
<polygon fill="white" stroke="transparent" points="-4,4 -4,-415 826,-415 826,4 -4,4"/>
<g id="clust1" class="cluster">
<title>cluster_SpanPushout</title>
<polygon fill="#ffffc3" stroke="black" points="16.52,-8 16.52,-403 805.48,-403 805.48,-8 16.52,-8"/>
<text text-anchor="middle" x="72.02" y="-387.8" font-family="Times,serif" font-size="14.00">SpanPushout</text>
</g>
<!-- SpanPushout_spushout_ind_beta_sglue -->
<g id="node1" class="node">
<title>SpanPushout_spushout_ind_beta_sglue</title>
<g id="a_node1"><a xlink:href="SpanPushout.html#spushout_ind_beta_sglue" xlink:title="spushout_ind_beta_sglue">
<ellipse fill="#f070d1" stroke="black" cx="503.81" cy="-346" rx="126.17" ry="18"/>
<ellipse fill="none" stroke="black" cx="503.81" cy="-346" rx="130.18" ry="22"/>
<ellipse fill="none" stroke="black" cx="503.81" cy="-346" rx="134.18" ry="26"/>
<text text-anchor="middle" x="503.81" y="-342.3" font-family="Times,serif" font-size="14.00">spushout_ind_beta_sglue</text>
</a>
</g>
</g>
<!-- SpanPushout_SPushout_ind -->
<g id="node2" class="node">
<title>SpanPushout_SPushout_ind</title>
<g id="a_node2"><a xlink:href="SpanPushout.html#SPushout_ind" xlink:title="SPushout_ind">
<ellipse fill="#f070d1" stroke="black" cx="503.81" cy="-266" rx="74.19" ry="18"/>
<text text-anchor="middle" x="503.81" y="-262.3" font-family="Times,serif" font-size="14.00">SPushout_ind</text>
</a>
</g>
</g>
<!-- SpanPushout_spushout_ind_beta_sglue&#45;&gt;SpanPushout_SPushout_ind -->
<g id="edge1" class="edge">
<title>SpanPushout_spushout_ind_beta_sglue&#45;&gt;SpanPushout_SPushout_ind</title>
<path fill="none" stroke="black" d="M503.81,-319.89C503.81,-311.84 503.81,-302.88 503.81,-294.66"/>
<polygon fill="black" stroke="black" points="507.31,-294.41 503.81,-284.41 500.31,-294.41 507.31,-294.41"/>
</g>
<!-- SpanPushout_spglue -->
<g id="node4" class="node">
<title>SpanPushout_spglue</title>
<g id="a_node4"><a xlink:href="SpanPushout.html#spglue" xlink:title="spglue">
<ellipse fill="#f070d1" stroke="black" cx="503.81" cy="-194" rx="41.69" ry="18"/>
<text text-anchor="middle" x="503.81" y="-190.3" font-family="Times,serif" font-size="14.00">spglue</text>
</a>
</g>
</g>
<!-- SpanPushout_SPushout_ind&#45;&gt;SpanPushout_spglue -->
<g id="edge2" class="edge">
<title>SpanPushout_SPushout_ind&#45;&gt;SpanPushout_spglue</title>
<path fill="none" stroke="black" d="M503.81,-247.7C503.81,-239.98 503.81,-230.71 503.81,-222.11"/>
<polygon fill="black" stroke="black" points="507.31,-222.1 503.81,-212.1 500.31,-222.1 507.31,-222.1"/>
</g>
<!-- SpanPushout_SPushout_rec -->
<g id="node3" class="node">
<title>SpanPushout_SPushout_rec</title>
<g id="a_node3"><a xlink:href="SpanPushout.html#SPushout_rec" xlink:title="SPushout_rec">
<ellipse fill="#f070d1" stroke="black" cx="202.81" cy="-114" rx="74.18" ry="18"/>
<ellipse fill="none" stroke="black" cx="202.81" cy="-114" rx="78.18" ry="22"/>
<ellipse fill="none" stroke="black" cx="202.81" cy="-114" rx="82.19" ry="26"/>
<text text-anchor="middle" x="202.81" y="-110.3" font-family="Times,serif" font-size="14.00">SPushout_rec</text>
</a>
</g>
</g>
<!-- SpanPushout_SPushout -->
<g id="node7" class="node">
<title>SpanPushout_SPushout</title>
<g id="a_node7"><a xlink:href="SpanPushout.html#SPushout" xlink:title="SPushout">
<ellipse fill="#f070d1" stroke="black" cx="495.81" cy="-34" rx="55.49" ry="18"/>
<text text-anchor="middle" x="495.81" y="-30.3" font-family="Times,serif" font-size="14.00">SPushout</text>
</a>
</g>
</g>
<!-- SpanPushout_SPushout_rec&#45;&gt;SpanPushout_SPushout -->
<g id="edge3" class="edge">
<title>SpanPushout_SPushout_rec&#45;&gt;SpanPushout_SPushout</title>
<path fill="none" stroke="black" d="M264.24,-96.65C317.72,-82.41 394.37,-62.01 444.61,-48.63"/>
<polygon fill="black" stroke="black" points="445.52,-52.01 454.29,-46.06 443.72,-45.25 445.52,-52.01"/>
</g>
<!-- SpanPushout_spushr -->
<g id="node5" class="node">
<title>SpanPushout_spushr</title>
<g id="a_node5"><a xlink:href="SpanPushout.html#spushr" xlink:title="spushr">
<ellipse fill="#f070d1" stroke="black" cx="495.81" cy="-114" rx="42.49" ry="18"/>
<text text-anchor="middle" x="495.81" y="-110.3" font-family="Times,serif" font-size="14.00">spushr</text>
</a>
</g>
</g>
<!-- SpanPushout_spglue&#45;&gt;SpanPushout_spushr -->
<g id="edge4" class="edge">
<title>SpanPushout_spglue&#45;&gt;SpanPushout_spushr</title>
<path fill="none" stroke="black" d="M502.04,-175.69C501.03,-165.83 499.74,-153.25 498.59,-142.1"/>
<polygon fill="black" stroke="black" points="502.06,-141.58 497.56,-131.99 495.1,-142.3 502.06,-141.58"/>
</g>
<!-- SpanPushout_spushl -->
<g id="node6" class="node">
<title>SpanPushout_spushl</title>
<g id="a_node6"><a xlink:href="SpanPushout.html#spushl" xlink:title="spushl">
<ellipse fill="#f070d1" stroke="black" cx="703.81" cy="-114" rx="40.89" ry="18"/>
<text text-anchor="middle" x="703.81" y="-110.3" font-family="Times,serif" font-size="14.00">spushl</text>
</a>
</g>
</g>
<!-- SpanPushout_spglue&#45;&gt;SpanPushout_spushl -->
<g id="edge5" class="edge">
<title>SpanPushout_spglue&#45;&gt;SpanPushout_spushl</title>
<path fill="none" stroke="black" d="M533.76,-181.32C568.57,-167.75 626.14,-145.29 664.52,-130.32"/>
<polygon fill="black" stroke="black" points="666.28,-133.4 674.32,-126.5 663.73,-126.88 666.28,-133.4"/>
</g>
<!-- SpanPushout_spushr&#45;&gt;SpanPushout_SPushout -->
<g id="edge6" class="edge">
<title>SpanPushout_spushr&#45;&gt;SpanPushout_SPushout</title>
<path fill="none" stroke="black" d="M495.81,-95.69C495.81,-85.89 495.81,-73.42 495.81,-62.33"/>
<polygon fill="black" stroke="black" points="499.31,-62.26 495.81,-52.26 492.31,-62.26 499.31,-62.26"/>
</g>
<!-- SpanPushout_spushl&#45;&gt;SpanPushout_SPushout -->
<g id="edge7" class="edge">
<title>SpanPushout_spushl&#45;&gt;SpanPushout_SPushout</title>
<path fill="none" stroke="black" d="M673.57,-101.66C638.49,-88.5 580.35,-66.7 540.16,-51.63"/>
<polygon fill="black" stroke="black" points="541.2,-48.28 530.61,-48.05 538.74,-54.84 541.2,-48.28"/>
</g>
</g>
</svg>
