<?xml version="1.0" encoding="UTF-8" standalone="no"?>
<!DOCTYPE svg PUBLIC "-//W3C//DTD SVG 1.1//EN"
 "http://www.w3.org/Graphics/SVG/1.1/DTD/svg11.dtd">
<!-- Generated by graphviz version 2.43.0 (0)
 -->
<!-- Title: HoTT_WildCat_FunctorCat Pages: 1 -->
<svg width="2889pt" height="1448pt"
 viewBox="0.00 0.00 2888.66 1447.50" xmlns="http://www.w3.org/2000/svg" xmlns:xlink="http://www.w3.org/1999/xlink">
<g id="graph0" class="graph" transform="scale(1 1) rotate(0) translate(4 1443.5)">
<title>HoTT_WildCat_FunctorCat</title>
<polygon fill="white" stroke="transparent" points="-4,4 -4,-1443.5 2884.66,-1443.5 2884.66,4 -4,4"/>
<g id="clust1" class="cluster">
<title>cluster_FunctorCat</title>
<polygon fill="#ffffc3" stroke="black" points="8,-19.62 8,-1419.88 2871,-1419.88 2871,-19.62 8,-19.62"/>
<text text-anchor="middle" x="57" y="-1404.68" font-family="Times,serif" font-size="14.00">FunctorCat</text>
</g>
<!-- FunctorCat_fun11_compose -->
<g id="node1" class="node">
<title>FunctorCat_fun11_compose</title>
<g id="a_node1"><a xlink:href="FunctorCat.html#fun11_compose" xlink:title="fun11_compose">
<ellipse fill="#f070d1" stroke="black" cx="2607" cy="-279.62" rx="82.58" ry="18"/>
<ellipse fill="none" stroke="black" cx="2607" cy="-279.62" rx="86.58" ry="22"/>
<ellipse fill="none" stroke="black" cx="2607" cy="-279.62" rx="90.59" ry="26"/>
<text text-anchor="middle" x="2607" y="-275.92" font-family="Times,serif" font-size="14.00">fun11_compose</text>
</a>
</g>
</g>
<!-- FunctorCat_Build_Fun11 -->
<g id="node22" class="node">
<title>FunctorCat_Build_Fun11</title>
<g id="a_node22"><a xlink:href="FunctorCat.html#Build_Fun11" xlink:title="Build_Fun11">
<ellipse fill="#7faaff" stroke="black" cx="2519" cy="-83.62" rx="69.59" ry="18"/>
<text text-anchor="middle" x="2519" y="-79.92" font-family="Times,serif" font-size="14.00">Build_Fun11</text>
</a>
</g>
</g>
<!-- FunctorCat_fun11_compose&#45;&gt;FunctorCat_Build_Fun11 -->
<g id="edge1" class="edge">
<title>FunctorCat_fun11_compose&#45;&gt;FunctorCat_Build_Fun11</title>
<path fill="none" stroke="black" d="M2595.68,-253.65C2578.97,-216.83 2547.87,-148.27 2530.86,-110.77"/>
<polygon fill="black" stroke="black" points="2533.98,-109.17 2526.66,-101.51 2527.61,-112.06 2533.98,-109.17"/>
</g>
<!-- FunctorCat_Fun11 -->
<g id="node23" class="node">
<title>FunctorCat_Fun11</title>
<g id="a_node23"><a xlink:href="FunctorCat.html#Fun11" xlink:title="Fun11">
<ellipse fill="#e2cdfa" stroke="black" cx="2138" cy="-83.62" rx="40.09" ry="18"/>
<text text-anchor="middle" x="2138" y="-79.92" font-family="Times,serif" font-size="14.00">Fun11</text>
</a>
</g>
</g>
<!-- FunctorCat_fun11_compose&#45;&gt;FunctorCat_Fun11 -->
<g id="edge2" class="edge">
<title>FunctorCat_fun11_compose&#45;&gt;FunctorCat_Fun11</title>
<path fill="none" stroke="black" d="M2556.81,-257.86C2462.36,-218.79 2260.16,-135.15 2175.99,-100.33"/>
<polygon fill="black" stroke="black" points="2177.14,-97.02 2166.56,-96.43 2174.46,-103.49 2177.14,-97.02"/>
</g>
<!-- FunctorCat_fun11_fun01_postcomp -->
<g id="node2" class="node">
<title>FunctorCat_fun11_fun01_postcomp</title>
<g id="a_node2"><a xlink:href="FunctorCat.html#fun11_fun01_postcomp" xlink:title="fun11_fun01_postcomp">
<ellipse fill="#f070d1" stroke="black" cx="2009" cy="-1279.62" rx="118.09" ry="18"/>
<ellipse fill="none" stroke="black" cx="2009" cy="-1279.62" rx="122.09" ry="22"/>
<ellipse fill="none" stroke="black" cx="2009" cy="-1279.62" rx="126.08" ry="26"/>
<text text-anchor="middle" x="2009" y="-1275.92" font-family="Times,serif" font-size="14.00">fun11_fun01_postcomp</text>
</a>
</g>
</g>
<!-- FunctorCat_is1functor_fun01_postcomp -->
<g id="node3" class="node">
<title>FunctorCat_is1functor_fun01_postcomp</title>
<g id="a_node3"><a xlink:href="FunctorCat.html#is1functor_fun01_postcomp" xlink:title="is1functor_fun01_postcomp">
<ellipse fill="#f070d1" stroke="black" cx="1281" cy="-1064.62" rx="138.38" ry="18"/>
<text text-anchor="middle" x="1281" y="-1060.92" font-family="Times,serif" font-size="14.00">is1functor_fun01_postcomp</text>
</a>
</g>
</g>
<!-- FunctorCat_fun11_fun01_postcomp&#45;&gt;FunctorCat_is1functor_fun01_postcomp -->
<g id="edge3" class="edge">
<title>FunctorCat_fun11_fun01_postcomp&#45;&gt;FunctorCat_is1functor_fun01_postcomp</title>
<path fill="none" stroke="black" d="M1938.53,-1258C1797.02,-1216.6 1480.24,-1123.91 1344.61,-1084.23"/>
<polygon fill="black" stroke="black" points="1345.35,-1080.8 1334.77,-1081.35 1343.39,-1087.52 1345.35,-1080.8"/>
</g>
<!-- FunctorCat_fun11_fun01_postcomp&#45;&gt;FunctorCat_Build_Fun11 -->
<g id="edge4" class="edge">
<title>FunctorCat_fun11_fun01_postcomp&#45;&gt;FunctorCat_Build_Fun11</title>
<path fill="none" stroke="black" d="M2133.03,-1274.33C2369.61,-1258.84 2862,-1188.2 2862,-868.62 2862,-868.62 2862,-868.62 2862,-494.62 2862,-387.42 2909.97,-343.8 2852,-253.62 2791.74,-159.87 2662.26,-115.82 2583.69,-97"/>
<polygon fill="black" stroke="black" points="2584.43,-93.58 2573.9,-94.72 2582.85,-100.4 2584.43,-93.58"/>
</g>
<!-- FunctorCat_is0functor_fun01_postcomp -->
<g id="node4" class="node">
<title>FunctorCat_is0functor_fun01_postcomp</title>
<g id="a_node4"><a xlink:href="FunctorCat.html#is0functor_fun01_postcomp" xlink:title="is0functor_fun01_postcomp">
<ellipse fill="#f070d1" stroke="black" cx="1281" cy="-867.62" rx="138.38" ry="18"/>
<text text-anchor="middle" x="1281" y="-863.92" font-family="Times,serif" font-size="14.00">is0functor_fun01_postcomp</text>
</a>
</g>
</g>
<!-- FunctorCat_is1functor_fun01_postcomp&#45;&gt;FunctorCat_is0functor_fun01_postcomp -->
<g id="edge5" class="edge">
<title>FunctorCat_is1functor_fun01_postcomp&#45;&gt;FunctorCat_is0functor_fun01_postcomp</title>
<path fill="none" stroke="black" d="M1281,-1046.31C1281,-1012.34 1281,-936.71 1281,-895.93"/>
<polygon fill="black" stroke="black" points="1284.5,-895.88 1281,-885.88 1277.5,-895.88 1284.5,-895.88"/>
</g>
<!-- FunctorCat_is1cat_fun01 -->
<g id="node25" class="node">
<title>FunctorCat_is1cat_fun01</title>
<g id="a_node25"><a xlink:href="FunctorCat.html#is1cat_fun01" xlink:title="is1cat_fun01">
<ellipse fill="#f070d1" stroke="black" cx="1017" cy="-691.62" rx="69.59" ry="18"/>
<text text-anchor="middle" x="1017" y="-687.92" font-family="Times,serif" font-size="14.00">is1cat_fun01</text>
</a>
</g>
</g>
<!-- FunctorCat_is1functor_fun01_postcomp&#45;&gt;FunctorCat_is1cat_fun01 -->
<g id="edge6" class="edge">
<title>FunctorCat_is1functor_fun01_postcomp&#45;&gt;FunctorCat_is1cat_fun01</title>
<path fill="none" stroke="black" d="M1264.84,-1046.28C1236.47,-1015.39 1176.69,-948.19 1134,-885.62 1123.68,-870.5 1123.26,-865.41 1114,-849.62 1086.54,-802.78 1052.93,-749.15 1033.34,-718.25"/>
<polygon fill="black" stroke="black" points="1036.05,-715.99 1027.74,-709.42 1030.14,-719.74 1036.05,-715.99"/>
</g>
<!-- FunctorCat_fun01_postcomp -->
<g id="node5" class="node">
<title>FunctorCat_fun01_postcomp</title>
<g id="a_node5"><a xlink:href="FunctorCat.html#fun01_postcomp" xlink:title="fun01_postcomp">
<ellipse fill="#f070d1" stroke="black" cx="1281" cy="-691.62" rx="87.18" ry="18"/>
<text text-anchor="middle" x="1281" y="-687.92" font-family="Times,serif" font-size="14.00">fun01_postcomp</text>
</a>
</g>
</g>
<!-- FunctorCat_is0functor_fun01_postcomp&#45;&gt;FunctorCat_fun01_postcomp -->
<g id="edge7" class="edge">
<title>FunctorCat_is0functor_fun01_postcomp&#45;&gt;FunctorCat_fun01_postcomp</title>
<path fill="none" stroke="black" d="M1281,-849.62C1281,-819.47 1281,-756.41 1281,-720.05"/>
<polygon fill="black" stroke="black" points="1284.5,-719.69 1281,-709.69 1277.5,-719.69 1284.5,-719.69"/>
</g>
<!-- FunctorCat_isgraph_fun01 -->
<g id="node28" class="node">
<title>FunctorCat_isgraph_fun01</title>
<g id="a_node28"><a xlink:href="FunctorCat.html#isgraph_fun01" xlink:title="isgraph_fun01">
<ellipse fill="#f070d1" stroke="black" cx="451" cy="-279.62" rx="77.19" ry="18"/>
<text text-anchor="middle" x="451" y="-275.92" font-family="Times,serif" font-size="14.00">isgraph_fun01</text>
</a>
</g>
</g>
<!-- FunctorCat_is0functor_fun01_postcomp&#45;&gt;FunctorCat_isgraph_fun01 -->
<g id="edge8" class="edge">
<title>FunctorCat_is0functor_fun01_postcomp&#45;&gt;FunctorCat_isgraph_fun01</title>
<path fill="none" stroke="black" d="M1268.6,-849.5C1248.73,-821.44 1209.52,-763.4 1185,-709.62 1138.59,-607.81 1189.19,-547.64 1109,-469.62 919.45,-285.2 791.09,-378.97 537,-305.62 527.36,-302.84 517.13,-299.87 507.2,-296.99"/>
<polygon fill="black" stroke="black" points="507.99,-293.57 497.41,-294.14 506.04,-300.29 507.99,-293.57"/>
</g>
<!-- FunctorCat_fun01_compose -->
<g id="node6" class="node">
<title>FunctorCat_fun01_compose</title>
<g id="a_node6"><a xlink:href="FunctorCat.html#fun01_compose" xlink:title="fun01_compose">
<ellipse fill="#f070d1" stroke="black" cx="1265" cy="-495.62" rx="82.59" ry="18"/>
<text text-anchor="middle" x="1265" y="-491.92" font-family="Times,serif" font-size="14.00">fun01_compose</text>
</a>
</g>
</g>
<!-- FunctorCat_fun01_postcomp&#45;&gt;FunctorCat_fun01_compose -->
<g id="edge9" class="edge">
<title>FunctorCat_fun01_postcomp&#45;&gt;FunctorCat_fun01_compose</title>
<path fill="none" stroke="black" d="M1279.58,-673.4C1276.79,-639.61 1270.59,-564.36 1267.24,-523.79"/>
<polygon fill="black" stroke="black" points="1270.73,-523.47 1266.42,-513.8 1263.75,-524.05 1270.73,-523.47"/>
</g>
<!-- FunctorCat_fun01_fun11 -->
<g id="node14" class="node">
<title>FunctorCat_fun01_fun11</title>
<g id="a_node14"><a xlink:href="FunctorCat.html#fun01_fun11" xlink:title="fun01_fun11">
<ellipse fill="#f070d1" stroke="black" cx="1367" cy="-279.62" rx="68.79" ry="18"/>
<text text-anchor="middle" x="1367" y="-275.92" font-family="Times,serif" font-size="14.00">fun01_fun11</text>
</a>
</g>
</g>
<!-- FunctorCat_fun01_postcomp&#45;&gt;FunctorCat_fun01_fun11 -->
<g id="edge10" class="edge">
<title>FunctorCat_fun01_postcomp&#45;&gt;FunctorCat_fun01_fun11</title>
<path fill="none" stroke="black" d="M1291.29,-673.64C1308.62,-644.03 1343.09,-580.48 1357,-521.62 1374.88,-445.94 1372.08,-353.25 1369.2,-308.05"/>
<polygon fill="black" stroke="black" points="1372.68,-307.6 1368.49,-297.87 1365.69,-308.09 1372.68,-307.6"/>
</g>
<!-- FunctorCat_fun01_F -->
<g id="node31" class="node">
<title>FunctorCat_fun01_F</title>
<g id="a_node31"><a xlink:href="FunctorCat.html#fun01_F" xlink:title="fun01_F">
<ellipse fill="#f070d1" stroke="black" cx="594" cy="-279.62" rx="48.19" ry="18"/>
<text text-anchor="middle" x="594" y="-275.92" font-family="Times,serif" font-size="14.00">fun01_F</text>
</a>
</g>
</g>
<!-- FunctorCat_fun01_compose&#45;&gt;FunctorCat_fun01_F -->
<g id="edge11" class="edge">
<title>FunctorCat_fun01_compose&#45;&gt;FunctorCat_fun01_F</title>
<path fill="none" stroke="black" d="M1214.61,-481.22C1108.88,-452.66 856.68,-382.09 651,-305.62 644.95,-303.37 638.62,-300.81 632.47,-298.21"/>
<polygon fill="black" stroke="black" points="633.59,-294.88 623.03,-294.12 630.81,-301.3 633.59,-294.88"/>
</g>
<!-- FunctorCat_Build_Fun01 -->
<g id="node36" class="node">
<title>FunctorCat_Build_Fun01</title>
<g id="a_node36"><a xlink:href="FunctorCat.html#Build_Fun01" xlink:title="Build_Fun01">
<ellipse fill="#7faaff" stroke="black" cx="1192" cy="-83.62" rx="69.59" ry="18"/>
<text text-anchor="middle" x="1192" y="-79.92" font-family="Times,serif" font-size="14.00">Build_Fun01</text>
</a>
</g>
</g>
<!-- FunctorCat_fun01_compose&#45;&gt;FunctorCat_Build_Fun01 -->
<g id="edge12" class="edge">
<title>FunctorCat_fun01_compose&#45;&gt;FunctorCat_Build_Fun01</title>
<path fill="none" stroke="black" d="M1295.87,-478.87C1362.99,-442.42 1512.12,-348.11 1460,-253.62 1414.51,-171.16 1310,-123.4 1245.75,-100.82"/>
<polygon fill="black" stroke="black" points="1246.79,-97.47 1236.19,-97.54 1244.51,-104.09 1246.79,-97.47"/>
</g>
<!-- FunctorCat_fun11_id -->
<g id="node7" class="node">
<title>FunctorCat_fun11_id</title>
<g id="a_node7"><a xlink:href="FunctorCat.html#fun11_id" xlink:title="fun11_id">
<ellipse fill="#f070d1" stroke="black" cx="2287" cy="-279.62" rx="50.86" ry="18"/>
<ellipse fill="none" stroke="black" cx="2287" cy="-279.62" rx="54.88" ry="22"/>
<ellipse fill="none" stroke="black" cx="2287" cy="-279.62" rx="58.89" ry="26"/>
<text text-anchor="middle" x="2287" y="-275.92" font-family="Times,serif" font-size="14.00">fun11_id</text>
</a>
</g>
</g>
<!-- FunctorCat_fun11_id&#45;&gt;FunctorCat_Build_Fun11 -->
<g id="edge13" class="edge">
<title>FunctorCat_fun11_id&#45;&gt;FunctorCat_Build_Fun11</title>
<path fill="none" stroke="black" d="M2313.61,-256.36C2357.98,-219.26 2446.63,-145.14 2491.55,-107.57"/>
<polygon fill="black" stroke="black" points="2493.98,-110.1 2499.41,-101 2489.49,-104.73 2493.98,-110.1"/>
</g>
<!-- FunctorCat_fun11_id&#45;&gt;FunctorCat_Fun11 -->
<g id="edge14" class="edge">
<title>FunctorCat_fun11_id&#45;&gt;FunctorCat_Fun11</title>
<path fill="none" stroke="black" d="M2268.73,-254.83C2240.31,-217.83 2185.8,-146.86 2156.96,-109.31"/>
<polygon fill="black" stroke="black" points="2159.42,-106.76 2150.55,-100.96 2153.87,-111.02 2159.42,-106.76"/>
</g>
<!-- FunctorCat_fun01_id -->
<g id="node8" class="node">
<title>FunctorCat_fun01_id</title>
<g id="a_node8"><a xlink:href="FunctorCat.html#fun01_id" xlink:title="fun01_id">
<ellipse fill="#f070d1" stroke="black" cx="881" cy="-279.62" rx="50.86" ry="18"/>
<ellipse fill="none" stroke="black" cx="881" cy="-279.62" rx="54.88" ry="22"/>
<ellipse fill="none" stroke="black" cx="881" cy="-279.62" rx="58.89" ry="26"/>
<text text-anchor="middle" x="881" y="-275.92" font-family="Times,serif" font-size="14.00">fun01_id</text>
</a>
</g>
</g>
<!-- FunctorCat_fun01_id&#45;&gt;FunctorCat_Build_Fun01 -->
<g id="edge15" class="edge">
<title>FunctorCat_fun01_id&#45;&gt;FunctorCat_Build_Fun01</title>
<path fill="none" stroke="black" d="M913.99,-258.04C973.32,-221.03 1097.44,-143.6 1157.71,-106.01"/>
<polygon fill="black" stroke="black" points="1159.83,-108.81 1166.47,-100.55 1156.13,-102.87 1159.83,-108.81"/>
</g>
<!-- FunctorCat_Fun01 -->
<g id="node37" class="node">
<title>FunctorCat_Fun01</title>
<g id="a_node37"><a xlink:href="FunctorCat.html#Fun01" xlink:title="Fun01">
<ellipse fill="#e2cdfa" stroke="black" cx="732" cy="-83.62" rx="40.09" ry="18"/>
<text text-anchor="middle" x="732" y="-79.92" font-family="Times,serif" font-size="14.00">Fun01</text>
</a>
</g>
</g>
<!-- FunctorCat_fun01_id&#45;&gt;FunctorCat_Fun01 -->
<g id="edge16" class="edge">
<title>FunctorCat_fun01_id&#45;&gt;FunctorCat_Fun01</title>
<path fill="none" stroke="black" d="M862.73,-254.83C834.31,-217.83 779.8,-146.86 750.96,-109.31"/>
<polygon fill="black" stroke="black" points="753.42,-106.76 744.55,-100.96 747.87,-111.02 753.42,-106.76"/>
</g>
<!-- FunctorCat_hasequivs_fun11 -->
<g id="node9" class="node">
<title>FunctorCat_hasequivs_fun11</title>
<g id="a_node9"><a xlink:href="FunctorCat.html#hasequivs_fun11" xlink:title="hasequivs_fun11">
<ellipse fill="#f070d1" stroke="black" cx="929" cy="-1064.62" rx="88.29" ry="18"/>
<ellipse fill="none" stroke="black" cx="929" cy="-1064.62" rx="92.29" ry="22"/>
<ellipse fill="none" stroke="black" cx="929" cy="-1064.62" rx="96.28" ry="26"/>
<text text-anchor="middle" x="929" y="-1060.92" font-family="Times,serif" font-size="14.00">hasequivs_fun11</text>
</a>
</g>
</g>
<!-- FunctorCat_is1cat_fun11 -->
<g id="node10" class="node">
<title>FunctorCat_is1cat_fun11</title>
<g id="a_node10"><a xlink:href="FunctorCat.html#is1cat_fun11" xlink:title="is1cat_fun11">
<ellipse fill="#f070d1" stroke="black" cx="841" cy="-867.62" rx="69.59" ry="18"/>
<text text-anchor="middle" x="841" y="-863.92" font-family="Times,serif" font-size="14.00">is1cat_fun11</text>
</a>
</g>
</g>
<!-- FunctorCat_hasequivs_fun11&#45;&gt;FunctorCat_is1cat_fun11 -->
<g id="edge17" class="edge">
<title>FunctorCat_hasequivs_fun11&#45;&gt;FunctorCat_is1cat_fun11</title>
<path fill="none" stroke="black" d="M917.68,-1038.52C900.97,-1001.51 869.87,-932.6 852.86,-894.91"/>
<polygon fill="black" stroke="black" points="855.97,-893.27 848.66,-885.6 849.59,-896.15 855.97,-893.27"/>
</g>
<!-- FunctorCat_hasequivs_fun01 -->
<g id="node24" class="node">
<title>FunctorCat_hasequivs_fun01</title>
<g id="a_node24"><a xlink:href="FunctorCat.html#hasequivs_fun01" xlink:title="hasequivs_fun01">
<ellipse fill="#f070d1" stroke="black" cx="1017" cy="-867.62" rx="88.28" ry="18"/>
<text text-anchor="middle" x="1017" y="-863.92" font-family="Times,serif" font-size="14.00">hasequivs_fun01</text>
</a>
</g>
</g>
<!-- FunctorCat_hasequivs_fun11&#45;&gt;FunctorCat_hasequivs_fun01 -->
<g id="edge18" class="edge">
<title>FunctorCat_hasequivs_fun11&#45;&gt;FunctorCat_hasequivs_fun01</title>
<path fill="none" stroke="black" d="M940.32,-1038.52C957.03,-1001.51 988.13,-932.6 1005.14,-894.91"/>
<polygon fill="black" stroke="black" points="1008.41,-896.15 1009.34,-885.6 1002.03,-893.27 1008.41,-896.15"/>
</g>
<!-- FunctorCat_is2graph_fun11 -->
<g id="node11" class="node">
<title>FunctorCat_is2graph_fun11</title>
<g id="a_node11"><a xlink:href="FunctorCat.html#is2graph_fun11" xlink:title="is2graph_fun11">
<ellipse fill="#f070d1" stroke="black" cx="846" cy="-691.62" rx="83.39" ry="18"/>
<text text-anchor="middle" x="846" y="-687.92" font-family="Times,serif" font-size="14.00">is2graph_fun11</text>
</a>
</g>
</g>
<!-- FunctorCat_is1cat_fun11&#45;&gt;FunctorCat_is2graph_fun11 -->
<g id="edge19" class="edge">
<title>FunctorCat_is1cat_fun11&#45;&gt;FunctorCat_is2graph_fun11</title>
<path fill="none" stroke="black" d="M841.49,-849.62C842.35,-819.47 844.17,-756.41 845.21,-720.05"/>
<polygon fill="black" stroke="black" points="848.72,-719.78 845.51,-709.69 841.72,-719.58 848.72,-719.78"/>
</g>
<!-- FunctorCat_is01cat_fun11 -->
<g id="node12" class="node">
<title>FunctorCat_is01cat_fun11</title>
<g id="a_node12"><a xlink:href="FunctorCat.html#is01cat_fun11" xlink:title="is01cat_fun11">
<ellipse fill="#f070d1" stroke="black" cx="669" cy="-691.62" rx="75.29" ry="18"/>
<text text-anchor="middle" x="669" y="-687.92" font-family="Times,serif" font-size="14.00">is01cat_fun11</text>
</a>
</g>
</g>
<!-- FunctorCat_is1cat_fun11&#45;&gt;FunctorCat_is01cat_fun11 -->
<g id="edge20" class="edge">
<title>FunctorCat_is1cat_fun11&#45;&gt;FunctorCat_is01cat_fun11</title>
<path fill="none" stroke="black" d="M824.51,-849.93C793.81,-818.88 727.84,-752.14 692.5,-716.39"/>
<polygon fill="black" stroke="black" points="694.96,-713.9 685.44,-709.25 689.98,-718.82 694.96,-713.9"/>
</g>
<!-- FunctorCat_is1cat_fun11&#45;&gt;FunctorCat_is1cat_fun01 -->
<g id="edge21" class="edge">
<title>FunctorCat_is1cat_fun11&#45;&gt;FunctorCat_is1cat_fun01</title>
<path fill="none" stroke="black" d="M857.88,-849.93C889.28,-818.88 956.79,-752.14 992.96,-716.39"/>
<polygon fill="black" stroke="black" points="995.52,-718.77 1000.18,-709.25 990.6,-713.79 995.52,-718.77"/>
</g>
<!-- FunctorCat_isgraph_fun11 -->
<g id="node13" class="node">
<title>FunctorCat_isgraph_fun11</title>
<g id="a_node13"><a xlink:href="FunctorCat.html#isgraph_fun11" xlink:title="isgraph_fun11">
<ellipse fill="#f070d1" stroke="black" cx="669" cy="-495.62" rx="77.19" ry="18"/>
<text text-anchor="middle" x="669" y="-491.92" font-family="Times,serif" font-size="14.00">isgraph_fun11</text>
</a>
</g>
</g>
<!-- FunctorCat_is2graph_fun11&#45;&gt;FunctorCat_isgraph_fun11 -->
<g id="edge22" class="edge">
<title>FunctorCat_is2graph_fun11&#45;&gt;FunctorCat_isgraph_fun11</title>
<path fill="none" stroke="black" d="M830.6,-673.74C799.14,-639.26 727.39,-560.62 691.02,-520.75"/>
<polygon fill="black" stroke="black" points="693.56,-518.35 684.24,-513.32 688.39,-523.06 693.56,-518.35"/>
</g>
<!-- FunctorCat_is2graph_fun01 -->
<g id="node26" class="node">
<title>FunctorCat_is2graph_fun01</title>
<g id="a_node26"><a xlink:href="FunctorCat.html#is2graph_fun01" xlink:title="is2graph_fun01">
<ellipse fill="#f070d1" stroke="black" cx="1017" cy="-495.62" rx="83.39" ry="18"/>
<text text-anchor="middle" x="1017" y="-491.92" font-family="Times,serif" font-size="14.00">is2graph_fun01</text>
</a>
</g>
</g>
<!-- FunctorCat_is2graph_fun11&#45;&gt;FunctorCat_is2graph_fun01 -->
<g id="edge23" class="edge">
<title>FunctorCat_is2graph_fun11&#45;&gt;FunctorCat_is2graph_fun01</title>
<path fill="none" stroke="black" d="M860.88,-673.74C891.13,-639.42 959.95,-561.34 995.24,-521.3"/>
<polygon fill="black" stroke="black" points="998.05,-523.41 1002.04,-513.59 992.8,-518.78 998.05,-523.41"/>
</g>
<!-- FunctorCat_is01cat_fun11&#45;&gt;FunctorCat_isgraph_fun11 -->
<g id="edge24" class="edge">
<title>FunctorCat_is01cat_fun11&#45;&gt;FunctorCat_isgraph_fun11</title>
<path fill="none" stroke="black" d="M669,-673.4C669,-639.68 669,-564.68 669,-524.05"/>
<polygon fill="black" stroke="black" points="672.5,-523.8 669,-513.8 665.5,-523.8 672.5,-523.8"/>
</g>
<!-- FunctorCat_is01cat_fun01 -->
<g id="node27" class="node">
<title>FunctorCat_is01cat_fun01</title>
<g id="a_node27"><a xlink:href="FunctorCat.html#is01cat_fun01" xlink:title="is01cat_fun01">
<ellipse fill="#f070d1" stroke="black" cx="840" cy="-495.62" rx="75.29" ry="18"/>
<text text-anchor="middle" x="840" y="-491.92" font-family="Times,serif" font-size="14.00">is01cat_fun01</text>
</a>
</g>
</g>
<!-- FunctorCat_is01cat_fun11&#45;&gt;FunctorCat_is01cat_fun01 -->
<g id="edge25" class="edge">
<title>FunctorCat_is01cat_fun11&#45;&gt;FunctorCat_is01cat_fun01</title>
<path fill="none" stroke="black" d="M683.88,-673.74C714.21,-639.33 783.3,-560.95 818.51,-521"/>
<polygon fill="black" stroke="black" points="821.29,-523.13 825.28,-513.32 816.04,-518.51 821.29,-523.13"/>
</g>
<!-- FunctorCat_isgraph_fun11&#45;&gt;FunctorCat_fun01_fun11 -->
<g id="edge26" class="edge">
<title>FunctorCat_isgraph_fun11&#45;&gt;FunctorCat_fun01_fun11</title>
<path fill="none" stroke="black" d="M713.72,-480.91C837.04,-443.1 1181.49,-337.49 1314.07,-296.85"/>
<polygon fill="black" stroke="black" points="1315.45,-300.08 1323.99,-293.81 1313.4,-293.39 1315.45,-300.08"/>
</g>
<!-- FunctorCat_isgraph_fun11&#45;&gt;FunctorCat_isgraph_fun01 -->
<g id="edge27" class="edge">
<title>FunctorCat_isgraph_fun11&#45;&gt;FunctorCat_isgraph_fun01</title>
<path fill="none" stroke="black" d="M651.89,-477.83C613.37,-440.01 519.72,-348.08 475.23,-304.41"/>
<polygon fill="black" stroke="black" points="477.61,-301.84 468.03,-297.33 472.71,-306.84 477.61,-301.84"/>
</g>
<!-- FunctorCat_fun01_fun11&#45;&gt;FunctorCat_Fun11 -->
<g id="edge28" class="edge">
<title>FunctorCat_fun01_fun11&#45;&gt;FunctorCat_Fun11</title>
<path fill="none" stroke="black" d="M1414.94,-266.56C1554.42,-231.46 1958.67,-129.74 2093.58,-95.79"/>
<polygon fill="black" stroke="black" points="2094.72,-99.12 2103.57,-93.28 2093.02,-92.33 2094.72,-99.12"/>
</g>
<!-- FunctorCat_fun01_fun11&#45;&gt;FunctorCat_Build_Fun01 -->
<g id="edge29" class="edge">
<title>FunctorCat_fun01_fun11&#45;&gt;FunctorCat_Build_Fun01</title>
<path fill="none" stroke="black" d="M1351.78,-261.74C1320.67,-227.26 1249.73,-148.62 1213.77,-108.75"/>
<polygon fill="black" stroke="black" points="1216.36,-106.4 1207.06,-101.32 1211.16,-111.09 1216.36,-106.4"/>
</g>
<!-- FunctorCat_fun01_fun11&#45;&gt;FunctorCat_Fun01 -->
<g id="edge30" class="edge">
<title>FunctorCat_fun01_fun11&#45;&gt;FunctorCat_Fun01</title>
<path fill="none" stroke="black" d="M1323.85,-265.44C1207.74,-229.96 889.67,-132.79 774.42,-97.58"/>
<polygon fill="black" stroke="black" points="775.13,-94.14 764.55,-94.56 773.09,-100.83 775.13,-94.14"/>
</g>
<!-- FunctorCat_is1functor_fun11 -->
<g id="node15" class="node">
<title>FunctorCat_is1functor_fun11</title>
<g id="a_node15"><a xlink:href="FunctorCat.html#is1functor_fun11" xlink:title="is1functor_fun11">
<ellipse fill="#f070d1" stroke="black" cx="1951" cy="-279.62" rx="89.08" ry="18"/>
<ellipse fill="none" stroke="black" cx="1951" cy="-279.62" rx="93.08" ry="22"/>
<ellipse fill="none" stroke="black" cx="1951" cy="-279.62" rx="97.08" ry="26"/>
<text text-anchor="middle" x="1951" y="-275.92" font-family="Times,serif" font-size="14.00">is1functor_fun11</text>
</a>
</g>
</g>
<!-- FunctorCat_is1functor_fun11&#45;&gt;FunctorCat_Fun11 -->
<g id="edge31" class="edge">
<title>FunctorCat_is1functor_fun11&#45;&gt;FunctorCat_Fun11</title>
<path fill="none" stroke="black" d="M1974.68,-254.05C2011.02,-216.35 2080.03,-144.76 2115.59,-107.87"/>
<polygon fill="black" stroke="black" points="2118.22,-110.18 2122.64,-100.55 2113.18,-105.32 2118.22,-110.18"/>
</g>
<!-- FunctorCat_is0functor_fun11 -->
<g id="node16" class="node">
<title>FunctorCat_is0functor_fun11</title>
<g id="a_node16"><a xlink:href="FunctorCat.html#is0functor_fun11" xlink:title="is0functor_fun11">
<ellipse fill="#f070d1" stroke="black" cx="1739" cy="-279.62" rx="89.08" ry="18"/>
<ellipse fill="none" stroke="black" cx="1739" cy="-279.62" rx="93.08" ry="22"/>
<ellipse fill="none" stroke="black" cx="1739" cy="-279.62" rx="97.08" ry="26"/>
<text text-anchor="middle" x="1739" y="-275.92" font-family="Times,serif" font-size="14.00">is0functor_fun11</text>
</a>
</g>
</g>
<!-- FunctorCat_is0functor_fun11&#45;&gt;FunctorCat_Fun11 -->
<g id="edge32" class="edge">
<title>FunctorCat_is0functor_fun11&#45;&gt;FunctorCat_Fun11</title>
<path fill="none" stroke="black" d="M1784.38,-256.55C1864.53,-217.59 2029.52,-137.36 2102.24,-102.01"/>
<polygon fill="black" stroke="black" points="2104,-105.04 2111.46,-97.52 2100.94,-98.75 2104,-105.04"/>
</g>
<!-- FunctorCat_fun11_fun -->
<g id="node17" class="node">
<title>FunctorCat_fun11_fun</title>
<g id="a_node17"><a xlink:href="FunctorCat.html#fun11_fun" xlink:title="fun11_fun">
<ellipse fill="#f070d1" stroke="black" cx="1559" cy="-279.62" rx="57.37" ry="18"/>
<ellipse fill="none" stroke="black" cx="1559" cy="-279.62" rx="61.38" ry="22"/>
<ellipse fill="none" stroke="black" cx="1559" cy="-279.62" rx="65.39" ry="26"/>
<text text-anchor="middle" x="1559" y="-275.92" font-family="Times,serif" font-size="14.00">fun11_fun</text>
</a>
</g>
</g>
<!-- FunctorCat_fun11_fun&#45;&gt;FunctorCat_Fun11 -->
<g id="edge33" class="edge">
<title>FunctorCat_fun11_fun&#45;&gt;FunctorCat_Fun11</title>
<path fill="none" stroke="black" d="M1607.56,-262.19C1616.04,-259.33 1624.77,-256.38 1633,-253.62 1805.38,-195.66 2011.02,-126.99 2097.02,-98.29"/>
<polygon fill="black" stroke="black" points="2098.29,-101.55 2106.67,-95.07 2096.07,-94.91 2098.29,-101.55"/>
</g>
<!-- FunctorCat_Fun11_sind -->
<g id="node18" class="node">
<title>FunctorCat_Fun11_sind</title>
<g id="a_node18"><a xlink:href="FunctorCat.html#Fun11_sind" xlink:title="Fun11_sind">
<ellipse fill="#f070d1" stroke="black" cx="2138" cy="-279.62" rx="64.21" ry="18"/>
<ellipse fill="none" stroke="black" cx="2138" cy="-279.62" rx="68.2" ry="22"/>
<ellipse fill="none" stroke="black" cx="2138" cy="-279.62" rx="72.19" ry="26"/>
<text text-anchor="middle" x="2138" y="-275.92" font-family="Times,serif" font-size="14.00">Fun11_sind</text>
</a>
</g>
</g>
<!-- FunctorCat_Fun11_sind&#45;&gt;FunctorCat_Build_Fun11 -->
<g id="edge34" class="edge">
<title>FunctorCat_Fun11_sind&#45;&gt;FunctorCat_Build_Fun11</title>
<path fill="none" stroke="black" d="M2178.41,-258.04C2252,-220.57 2406.96,-141.67 2479.71,-104.62"/>
<polygon fill="black" stroke="black" points="2481.68,-107.55 2489,-99.89 2478.5,-101.31 2481.68,-107.55"/>
</g>
<!-- FunctorCat_Fun11_sind&#45;&gt;FunctorCat_Fun11 -->
<g id="edge35" class="edge">
<title>FunctorCat_Fun11_sind&#45;&gt;FunctorCat_Fun11</title>
<path fill="none" stroke="black" d="M2138,-253.26C2138,-216.71 2138,-149.49 2138,-111.9"/>
<polygon fill="black" stroke="black" points="2141.5,-111.69 2138,-101.69 2134.5,-111.69 2141.5,-111.69"/>
</g>
<!-- FunctorCat_Fun11_rec -->
<g id="node19" class="node">
<title>FunctorCat_Fun11_rec</title>
<g id="a_node19"><a xlink:href="FunctorCat.html#Fun11_rec" xlink:title="Fun11_rec">
<ellipse fill="#f070d1" stroke="black" cx="2775" cy="-495.62" rx="59.61" ry="18"/>
<ellipse fill="none" stroke="black" cx="2775" cy="-495.62" rx="63.6" ry="22"/>
<ellipse fill="none" stroke="black" cx="2775" cy="-495.62" rx="67.59" ry="26"/>
<text text-anchor="middle" x="2775" y="-491.92" font-family="Times,serif" font-size="14.00">Fun11_rec</text>
</a>
</g>
</g>
<!-- FunctorCat_Fun11_rect -->
<g id="node21" class="node">
<title>FunctorCat_Fun11_rect</title>
<g id="a_node21"><a xlink:href="FunctorCat.html#Fun11_rect" xlink:title="Fun11_rect">
<ellipse fill="#f070d1" stroke="black" cx="2779" cy="-279.62" rx="63.89" ry="18"/>
<text text-anchor="middle" x="2779" y="-275.92" font-family="Times,serif" font-size="14.00">Fun11_rect</text>
</a>
</g>
</g>
<!-- FunctorCat_Fun11_rec&#45;&gt;FunctorCat_Fun11_rect -->
<g id="edge36" class="edge">
<title>FunctorCat_Fun11_rec&#45;&gt;FunctorCat_Fun11_rect</title>
<path fill="none" stroke="black" d="M2775.47,-469.23C2776.23,-428.68 2777.71,-349.62 2778.49,-307.9"/>
<polygon fill="black" stroke="black" points="2781.99,-307.73 2778.68,-297.67 2774.99,-307.6 2781.99,-307.73"/>
</g>
<!-- FunctorCat_Fun11_ind -->
<g id="node20" class="node">
<title>FunctorCat_Fun11_ind</title>
<g id="a_node20"><a xlink:href="FunctorCat.html#Fun11_ind" xlink:title="Fun11_ind">
<ellipse fill="#7fffd4" stroke="black" cx="2431" cy="-279.62" rx="59.61" ry="18"/>
<ellipse fill="none" stroke="black" cx="2431" cy="-279.62" rx="63.6" ry="22"/>
<ellipse fill="none" stroke="black" cx="2431" cy="-279.62" rx="67.59" ry="26"/>
<text text-anchor="middle" x="2431" y="-275.92" font-family="Times,serif" font-size="14.00">Fun11_ind</text>
</a>
</g>
</g>
<!-- FunctorCat_Fun11_ind&#45;&gt;FunctorCat_Build_Fun11 -->
<g id="edge37" class="edge">
<title>FunctorCat_Fun11_ind&#45;&gt;FunctorCat_Build_Fun11</title>
<path fill="none" stroke="black" d="M2442.32,-253.65C2459.03,-216.83 2490.13,-148.27 2507.14,-110.77"/>
<polygon fill="black" stroke="black" points="2510.39,-112.06 2511.34,-101.51 2504.02,-109.17 2510.39,-112.06"/>
</g>
<!-- FunctorCat_Fun11_ind&#45;&gt;FunctorCat_Fun11 -->
<g id="edge38" class="edge">
<title>FunctorCat_Fun11_ind&#45;&gt;FunctorCat_Fun11</title>
<path fill="none" stroke="black" d="M2397.96,-256.74C2340.68,-218.82 2223.79,-141.42 2168.41,-104.75"/>
<polygon fill="black" stroke="black" points="2170.02,-101.62 2159.75,-99.02 2166.16,-107.46 2170.02,-101.62"/>
</g>
<!-- FunctorCat_Fun11_rect&#45;&gt;FunctorCat_Build_Fun11 -->
<g id="edge39" class="edge">
<title>FunctorCat_Fun11_rect&#45;&gt;FunctorCat_Build_Fun11</title>
<path fill="none" stroke="black" d="M2757.28,-262.41C2710.92,-227.82 2602.2,-146.69 2549.16,-107.12"/>
<polygon fill="black" stroke="black" points="2550.95,-104.09 2540.84,-100.92 2546.76,-109.7 2550.95,-104.09"/>
</g>
<!-- FunctorCat_Fun11_rect&#45;&gt;FunctorCat_Fun11 -->
<g id="edge40" class="edge">
<title>FunctorCat_Fun11_rect&#45;&gt;FunctorCat_Fun11</title>
<path fill="none" stroke="black" d="M2740.99,-265.06C2730.06,-261.26 2718.08,-257.19 2707,-253.62 2511.8,-190.78 2276.25,-123.51 2181.03,-96.68"/>
<polygon fill="black" stroke="black" points="2181.77,-93.25 2171.19,-93.91 2179.87,-99.98 2181.77,-93.25"/>
</g>
<!-- FunctorCat_hasequivs_fun01&#45;&gt;FunctorCat_is1cat_fun01 -->
<g id="edge41" class="edge">
<title>FunctorCat_hasequivs_fun01&#45;&gt;FunctorCat_is1cat_fun01</title>
<path fill="none" stroke="black" d="M1017,-849.62C1017,-819.47 1017,-756.41 1017,-720.05"/>
<polygon fill="black" stroke="black" points="1020.5,-719.69 1017,-709.69 1013.5,-719.69 1020.5,-719.69"/>
</g>
<!-- FunctorCat_is1cat_fun01&#45;&gt;FunctorCat_is2graph_fun01 -->
<g id="edge42" class="edge">
<title>FunctorCat_is1cat_fun01&#45;&gt;FunctorCat_is2graph_fun01</title>
<path fill="none" stroke="black" d="M1017,-673.4C1017,-639.68 1017,-564.68 1017,-524.05"/>
<polygon fill="black" stroke="black" points="1020.5,-523.8 1017,-513.8 1013.5,-523.8 1020.5,-523.8"/>
</g>
<!-- FunctorCat_is1cat_fun01&#45;&gt;FunctorCat_is01cat_fun01 -->
<g id="edge43" class="edge">
<title>FunctorCat_is1cat_fun01&#45;&gt;FunctorCat_is01cat_fun01</title>
<path fill="none" stroke="black" d="M1001.6,-673.74C970.14,-639.26 898.39,-560.62 862.02,-520.75"/>
<polygon fill="black" stroke="black" points="864.56,-518.35 855.24,-513.32 859.39,-523.06 864.56,-518.35"/>
</g>
<!-- FunctorCat_is2graph_fun01&#45;&gt;FunctorCat_isgraph_fun01 -->
<g id="edge44" class="edge">
<title>FunctorCat_is2graph_fun01&#45;&gt;FunctorCat_isgraph_fun01</title>
<path fill="none" stroke="black" d="M977.65,-479.74C876.78,-441.6 609.21,-340.44 499.23,-298.86"/>
<polygon fill="black" stroke="black" points="500.31,-295.52 489.72,-295.26 497.83,-302.07 500.31,-295.52"/>
</g>
<!-- FunctorCat_is2graph_fun01&#45;&gt;FunctorCat_Build_Fun01 -->
<g id="edge45" class="edge">
<title>FunctorCat_is2graph_fun01&#45;&gt;FunctorCat_Build_Fun01</title>
<path fill="none" stroke="black" d="M1089.16,-486.54C1188.99,-471.06 1365.85,-427.1 1445,-305.62 1506.13,-211.8 1333.25,-134.39 1242.99,-101.56"/>
<polygon fill="black" stroke="black" points="1244.06,-98.22 1233.47,-98.15 1241.7,-104.81 1244.06,-98.22"/>
</g>
<!-- FunctorCat_is01cat_fun01&#45;&gt;FunctorCat_isgraph_fun01 -->
<g id="edge46" class="edge">
<title>FunctorCat_is01cat_fun01&#45;&gt;FunctorCat_isgraph_fun01</title>
<path fill="none" stroke="black" d="M811.4,-478.88C742.27,-440.85 566.13,-343.95 488.6,-301.3"/>
<polygon fill="black" stroke="black" points="490.09,-298.13 479.65,-296.38 486.72,-304.26 490.09,-298.13"/>
</g>
<!-- FunctorCat_is01cat_fun01&#45;&gt;FunctorCat_Build_Fun01 -->
<g id="edge47" class="edge">
<title>FunctorCat_is01cat_fun01&#45;&gt;FunctorCat_Build_Fun01</title>
<path fill="none" stroke="black" d="M886.22,-481.23C987.71,-450.8 1224.54,-373.79 1269,-305.62 1310.91,-241.36 1249.1,-151.65 1213.78,-109.01"/>
<polygon fill="black" stroke="black" points="1216.44,-106.74 1207.31,-101.37 1211.1,-111.26 1216.44,-106.74"/>
</g>
<!-- FunctorCat_isgraph_fun01&#45;&gt;FunctorCat_Fun01 -->
<g id="edge48" class="edge">
<title>FunctorCat_isgraph_fun01&#45;&gt;FunctorCat_Fun01</title>
<path fill="none" stroke="black" d="M474.47,-262.41C525.56,-227.14 646.71,-143.5 702.7,-104.85"/>
<polygon fill="black" stroke="black" points="704.86,-107.61 711.1,-99.05 700.88,-101.85 704.86,-107.61"/>
</g>
<!-- FunctorCat_issig_Fun01 -->
<g id="node29" class="node">
<title>FunctorCat_issig_Fun01</title>
<g id="a_node29"><a xlink:href="FunctorCat.html#issig_Fun01" xlink:title="issig_Fun01">
<ellipse fill="#f070d1" stroke="black" cx="1032" cy="-279.62" rx="66.11" ry="18"/>
<ellipse fill="none" stroke="black" cx="1032" cy="-279.62" rx="70.1" ry="22"/>
<ellipse fill="none" stroke="black" cx="1032" cy="-279.62" rx="74.09" ry="26"/>
<text text-anchor="middle" x="1032" y="-275.92" font-family="Times,serif" font-size="14.00">issig_Fun01</text>
</a>
</g>
</g>
<!-- FunctorCat_issig_Fun01&#45;&gt;FunctorCat_Build_Fun01 -->
<g id="edge49" class="edge">
<title>FunctorCat_issig_Fun01&#45;&gt;FunctorCat_Build_Fun01</title>
<path fill="none" stroke="black" d="M1051.94,-254.44C1082.55,-217.33 1140.8,-146.7 1171.65,-109.3"/>
<polygon fill="black" stroke="black" points="1174.49,-111.35 1178.15,-101.41 1169.09,-106.89 1174.49,-111.35"/>
</g>
<!-- FunctorCat_issig_Fun01&#45;&gt;FunctorCat_Fun01 -->
<g id="edge50" class="edge">
<title>FunctorCat_issig_Fun01&#45;&gt;FunctorCat_Fun01</title>
<path fill="none" stroke="black" d="M997.59,-256.36C938.57,-218.2 818.97,-140.86 762.64,-104.43"/>
<polygon fill="black" stroke="black" points="764.46,-101.44 754.17,-98.95 760.66,-107.32 764.46,-101.44"/>
</g>
<!-- FunctorCat_fun01_is0functor -->
<g id="node30" class="node">
<title>FunctorCat_fun01_is0functor</title>
<g id="a_node30"><a xlink:href="FunctorCat.html#fun01_is0functor" xlink:title="fun01_is0functor">
<ellipse fill="#f070d1" stroke="black" cx="113" cy="-279.62" rx="89.08" ry="18"/>
<ellipse fill="none" stroke="black" cx="113" cy="-279.62" rx="93.08" ry="22"/>
<ellipse fill="none" stroke="black" cx="113" cy="-279.62" rx="97.08" ry="26"/>
<text text-anchor="middle" x="113" y="-275.92" font-family="Times,serif" font-size="14.00">fun01_is0functor</text>
</a>
</g>
</g>
<!-- FunctorCat_fun01_is0functor&#45;&gt;FunctorCat_Fun01 -->
<g id="edge51" class="edge">
<title>FunctorCat_fun01_is0functor&#45;&gt;FunctorCat_Fun01</title>
<path fill="none" stroke="black" d="M174.33,-259.4C299.92,-220.04 583.53,-131.15 690.29,-97.69"/>
<polygon fill="black" stroke="black" points="691.57,-100.96 700.06,-94.63 689.47,-94.28 691.57,-100.96"/>
</g>
<!-- FunctorCat_fun01_F&#45;&gt;FunctorCat_Fun01 -->
<g id="edge52" class="edge">
<title>FunctorCat_fun01_F&#45;&gt;FunctorCat_Fun01</title>
<path fill="none" stroke="black" d="M605.77,-262.08C630.06,-227.93 685.86,-149.48 714.44,-109.31"/>
<polygon fill="black" stroke="black" points="717.32,-111.29 720.26,-101.12 711.62,-107.24 717.32,-111.29"/>
</g>
<!-- FunctorCat_Fun01_sind -->
<g id="node32" class="node">
<title>FunctorCat_Fun01_sind</title>
<g id="a_node32"><a xlink:href="FunctorCat.html#Fun01_sind" xlink:title="Fun01_sind">
<ellipse fill="#f070d1" stroke="black" cx="732" cy="-279.62" rx="64.21" ry="18"/>
<ellipse fill="none" stroke="black" cx="732" cy="-279.62" rx="68.2" ry="22"/>
<ellipse fill="none" stroke="black" cx="732" cy="-279.62" rx="72.19" ry="26"/>
<text text-anchor="middle" x="732" y="-275.92" font-family="Times,serif" font-size="14.00">Fun01_sind</text>
</a>
</g>
</g>
<!-- FunctorCat_Fun01_sind&#45;&gt;FunctorCat_Build_Fun01 -->
<g id="edge53" class="edge">
<title>FunctorCat_Fun01_sind&#45;&gt;FunctorCat_Build_Fun01</title>
<path fill="none" stroke="black" d="M777.79,-259.31C866.5,-221.9 1060.72,-139.98 1148,-103.18"/>
<polygon fill="black" stroke="black" points="1149.49,-106.34 1157.35,-99.23 1146.77,-99.89 1149.49,-106.34"/>
</g>
<!-- FunctorCat_Fun01_sind&#45;&gt;FunctorCat_Fun01 -->
<g id="edge54" class="edge">
<title>FunctorCat_Fun01_sind&#45;&gt;FunctorCat_Fun01</title>
<path fill="none" stroke="black" d="M732,-253.26C732,-216.71 732,-149.49 732,-111.9"/>
<polygon fill="black" stroke="black" points="735.5,-111.69 732,-101.69 728.5,-111.69 735.5,-111.69"/>
</g>
<!-- FunctorCat_Fun01_rec -->
<g id="node33" class="node">
<title>FunctorCat_Fun01_rec</title>
<g id="a_node33"><a xlink:href="FunctorCat.html#Fun01_rec" xlink:title="Fun01_rec">
<ellipse fill="#f070d1" stroke="black" cx="292" cy="-495.62" rx="59.61" ry="18"/>
<ellipse fill="none" stroke="black" cx="292" cy="-495.62" rx="63.6" ry="22"/>
<ellipse fill="none" stroke="black" cx="292" cy="-495.62" rx="67.59" ry="26"/>
<text text-anchor="middle" x="292" y="-491.92" font-family="Times,serif" font-size="14.00">Fun01_rec</text>
</a>
</g>
</g>
<!-- FunctorCat_Fun01_rect -->
<g id="node35" class="node">
<title>FunctorCat_Fun01_rect</title>
<g id="a_node35"><a xlink:href="FunctorCat.html#Fun01_rect" xlink:title="Fun01_rect">
<ellipse fill="#f070d1" stroke="black" cx="292" cy="-279.62" rx="63.89" ry="18"/>
<text text-anchor="middle" x="292" y="-275.92" font-family="Times,serif" font-size="14.00">Fun01_rect</text>
</a>
</g>
</g>
<!-- FunctorCat_Fun01_rec&#45;&gt;FunctorCat_Fun01_rect -->
<g id="edge55" class="edge">
<title>FunctorCat_Fun01_rec&#45;&gt;FunctorCat_Fun01_rect</title>
<path fill="none" stroke="black" d="M292,-469.23C292,-428.68 292,-349.62 292,-307.9"/>
<polygon fill="black" stroke="black" points="295.5,-307.67 292,-297.67 288.5,-307.67 295.5,-307.67"/>
</g>
<!-- FunctorCat_Fun01_ind -->
<g id="node34" class="node">
<title>FunctorCat_Fun01_ind</title>
<g id="a_node34"><a xlink:href="FunctorCat.html#Fun01_ind" xlink:title="Fun01_ind">
<ellipse fill="#7fffd4" stroke="black" cx="1192" cy="-279.62" rx="59.61" ry="18"/>
<ellipse fill="none" stroke="black" cx="1192" cy="-279.62" rx="63.6" ry="22"/>
<ellipse fill="none" stroke="black" cx="1192" cy="-279.62" rx="67.59" ry="26"/>
<text text-anchor="middle" x="1192" y="-275.92" font-family="Times,serif" font-size="14.00">Fun01_ind</text>
</a>
</g>
</g>
<!-- FunctorCat_Fun01_ind&#45;&gt;FunctorCat_Build_Fun01 -->
<g id="edge56" class="edge">
<title>FunctorCat_Fun01_ind&#45;&gt;FunctorCat_Build_Fun01</title>
<path fill="none" stroke="black" d="M1192,-253.26C1192,-216.71 1192,-149.49 1192,-111.9"/>
<polygon fill="black" stroke="black" points="1195.5,-111.69 1192,-101.69 1188.5,-111.69 1195.5,-111.69"/>
</g>
<!-- FunctorCat_Fun01_ind&#45;&gt;FunctorCat_Fun01 -->
<g id="edge57" class="edge">
<title>FunctorCat_Fun01_ind&#45;&gt;FunctorCat_Fun01</title>
<path fill="none" stroke="black" d="M1147.48,-259.84C1057.14,-221.74 853.78,-135.98 769.6,-100.47"/>
<polygon fill="black" stroke="black" points="770.74,-97.16 760.17,-96.5 768.02,-103.61 770.74,-97.16"/>
</g>
<!-- FunctorCat_Fun01_rect&#45;&gt;FunctorCat_Build_Fun01 -->
<g id="edge58" class="edge">
<title>FunctorCat_Fun01_rect&#45;&gt;FunctorCat_Build_Fun01</title>
<path fill="none" stroke="black" d="M329.23,-264.84C340.61,-260.9 353.24,-256.82 365,-253.62 643.14,-177.91 982.1,-118.77 1124.21,-95.43"/>
<polygon fill="black" stroke="black" points="1125.2,-98.82 1134.51,-93.75 1124.07,-91.91 1125.2,-98.82"/>
</g>
<!-- FunctorCat_Fun01_rect&#45;&gt;FunctorCat_Fun01 -->
<g id="edge59" class="edge">
<title>FunctorCat_Fun01_rect&#45;&gt;FunctorCat_Fun01</title>
<path fill="none" stroke="black" d="M325.07,-264.04C405.51,-228.57 610.95,-137.99 695.15,-100.86"/>
<polygon fill="black" stroke="black" points="696.6,-104.05 704.34,-96.82 693.77,-97.65 696.6,-104.05"/>
</g>
</g>
</svg>
