<?xml version="1.0" encoding="UTF-8" standalone="no"?>
<!DOCTYPE svg PUBLIC "-//W3C//DTD SVG 1.1//EN"
 "http://www.w3.org/Graphics/SVG/1.1/DTD/svg11.dtd">
<!-- Generated by graphviz version 2.43.0 (0)
 -->
<!-- Title: HoTT_Spaces_List Pages: 1 -->
<svg width="565pt" height="287pt"
 viewBox="0.00 0.00 565.00 286.50" xmlns="http://www.w3.org/2000/svg" xmlns:xlink="http://www.w3.org/1999/xlink">
<g id="graph0" class="graph" transform="scale(1 1) rotate(0) translate(4 282.5)">
<title>HoTT_Spaces_List</title>
<polygon fill="white" stroke="transparent" points="-4,4 -4,-282.5 561,-282.5 561,4 -4,4"/>
<g id="clust1" class="cluster">
<title>cluster_List</title>
<polygon fill="#ffffc3" stroke="black" points="8,-12.45 8,-266.05 549,-266.05 549,-12.45 8,-12.45"/>
<text text-anchor="middle" x="30" y="-250.85" font-family="Times,serif" font-size="14.00">List</text>
</g>
<!-- List_list_pentagon -->
<g id="node1" class="node">
<title>List_list_pentagon</title>
<g id="a_node1"><a xlink:href="List.html#list_pentagon" xlink:title="list_pentagon">
<ellipse fill="#f070d1" stroke="black" cx="460" cy="-177.45" rx="73.39" ry="18"/>
<ellipse fill="none" stroke="black" cx="460" cy="-177.45" rx="77.39" ry="22"/>
<ellipse fill="none" stroke="black" cx="460" cy="-177.45" rx="81.39" ry="26"/>
<text text-anchor="middle" x="460" y="-173.75" font-family="Times,serif" font-size="14.00">list_pentagon</text>
</a>
</g>
</g>
<!-- List_fold_right_app -->
<g id="node2" class="node">
<title>List_fold_right_app</title>
<g id="a_node2"><a xlink:href="List.html#fold_right_app" xlink:title="fold_right_app">
<ellipse fill="#f070d1" stroke="black" cx="275" cy="-177.45" rx="77.2" ry="18"/>
<ellipse fill="none" stroke="black" cx="275" cy="-177.45" rx="81.19" ry="22"/>
<ellipse fill="none" stroke="black" cx="275" cy="-177.45" rx="85.19" ry="26"/>
<text text-anchor="middle" x="275" y="-173.75" font-family="Times,serif" font-size="14.00">fold_right_app</text>
</a>
</g>
</g>
<!-- List_fold_right -->
<g id="node3" class="node">
<title>List_fold_right</title>
<g id="a_node3"><a xlink:href="List.html#fold_right" xlink:title="fold_right">
<ellipse fill="#f070d1" stroke="black" cx="275" cy="-52.45" rx="55.79" ry="18"/>
<text text-anchor="middle" x="275" y="-48.75" font-family="Times,serif" font-size="14.00">fold_right</text>
</a>
</g>
</g>
<!-- List_fold_right_app&#45;&gt;List_fold_right -->
<g id="edge1" class="edge">
<title>List_fold_right_app&#45;&gt;List_fold_right</title>
<path fill="none" stroke="black" d="M275,-151.26C275,-130.79 275,-101.96 275,-80.9"/>
<polygon fill="black" stroke="black" points="278.5,-80.69 275,-70.69 271.5,-80.69 278.5,-80.69"/>
</g>
<!-- List_fold_left_app -->
<g id="node4" class="node">
<title>List_fold_left_app</title>
<g id="a_node4"><a xlink:href="List.html#fold_left_app" xlink:title="fold_left_app">
<ellipse fill="#f070d1" stroke="black" cx="94" cy="-177.45" rx="69.58" ry="18"/>
<ellipse fill="none" stroke="black" cx="94" cy="-177.45" rx="73.59" ry="22"/>
<ellipse fill="none" stroke="black" cx="94" cy="-177.45" rx="77.59" ry="26"/>
<text text-anchor="middle" x="94" y="-173.75" font-family="Times,serif" font-size="14.00">fold_left_app</text>
</a>
</g>
</g>
<!-- List_fold_left -->
<g id="node5" class="node">
<title>List_fold_left</title>
<g id="a_node5"><a xlink:href="List.html#fold_left" xlink:title="fold_left">
<ellipse fill="#f070d1" stroke="black" cx="94" cy="-52.45" rx="48.19" ry="18"/>
<text text-anchor="middle" x="94" y="-48.75" font-family="Times,serif" font-size="14.00">fold_left</text>
</a>
</g>
</g>
<!-- List_fold_left_app&#45;&gt;List_fold_left -->
<g id="edge2" class="edge">
<title>List_fold_left_app&#45;&gt;List_fold_left</title>
<path fill="none" stroke="black" d="M94,-151.26C94,-130.79 94,-101.96 94,-80.9"/>
<polygon fill="black" stroke="black" points="97.5,-80.69 94,-70.69 90.5,-80.69 97.5,-80.69"/>
</g>
</g>
</svg>
