<?xml version="1.0" encoding="UTF-8" standalone="no"?>
<!DOCTYPE svg PUBLIC "-//W3C//DTD SVG 1.1//EN"
 "http://www.w3.org/Graphics/SVG/1.1/DTD/svg11.dtd">
<!-- Generated by graphviz version 2.43.0 (0)
 -->
<!-- Title: HoTT_Algebra_AbGroups_Centralizer Pages: 1 -->
<svg width="830pt" height="419pt"
 viewBox="0.00 0.00 830.00 419.00" xmlns="http://www.w3.org/2000/svg" xmlns:xlink="http://www.w3.org/1999/xlink">
<g id="graph0" class="graph" transform="scale(1 1) rotate(0) translate(4 415)">
<title>HoTT_Algebra_AbGroups_Centralizer</title>
<polygon fill="white" stroke="transparent" points="-4,4 -4,-415 826,-415 826,4 -4,4"/>
<g id="clust1" class="cluster">
<title>cluster_Centralizer</title>
<polygon fill="#ffffc3" stroke="black" points="8.52,-8 8.52,-403 813.48,-403 813.48,-8 8.52,-8"/>
<text text-anchor="middle" x="57.02" y="-387.8" font-family="Times,serif" font-size="14.00">Centralizer</text>
</g>
<!-- Centralizer_abgroup_cyclic_subgroup -->
<g id="node1" class="node">
<title>Centralizer_abgroup_cyclic_subgroup</title>
<g id="a_node1"><a xlink:href="Centralizer.html#abgroup_cyclic_subgroup" xlink:title="abgroup_cyclic_subgroup">
<ellipse fill="#f070d1" stroke="black" cx="552.78" cy="-346" rx="128.08" ry="18"/>
<ellipse fill="none" stroke="black" cx="552.78" cy="-346" rx="132.08" ry="22"/>
<ellipse fill="none" stroke="black" cx="552.78" cy="-346" rx="136.08" ry="26"/>
<text text-anchor="middle" x="552.78" y="-342.3" font-family="Times,serif" font-size="14.00">abgroup_cyclic_subgroup</text>
</a>
</g>
</g>
<!-- Centralizer_commutative_cyclic_subgroup -->
<g id="node2" class="node">
<title>Centralizer_commutative_cyclic_subgroup</title>
<g id="a_node2"><a xlink:href="Centralizer.html#commutative_cyclic_subgroup" xlink:title="commutative_cyclic_subgroup">
<ellipse fill="#f070d1" stroke="black" cx="444.78" cy="-258" rx="149.47" ry="18"/>
<text text-anchor="middle" x="444.78" y="-254.3" font-family="Times,serif" font-size="14.00">commutative_cyclic_subgroup</text>
</a>
</g>
</g>
<!-- Centralizer_abgroup_cyclic_subgroup&#45;&gt;Centralizer_commutative_cyclic_subgroup -->
<g id="edge1" class="edge">
<title>Centralizer_abgroup_cyclic_subgroup&#45;&gt;Centralizer_commutative_cyclic_subgroup</title>
<path fill="none" stroke="black" d="M522.12,-320.59C506.97,-308.52 488.78,-294.03 473.84,-282.14"/>
<polygon fill="black" stroke="black" points="475.93,-279.33 465.92,-275.84 471.57,-284.8 475.93,-279.33"/>
</g>
<!-- Centralizer_cyclic_subgroup -->
<g id="node3" class="node">
<title>Centralizer_cyclic_subgroup</title>
<g id="a_node3"><a xlink:href="Centralizer.html#cyclic_subgroup" xlink:title="cyclic_subgroup">
<ellipse fill="#f070d1" stroke="black" cx="714.78" cy="-258" rx="85.29" ry="18"/>
<text text-anchor="middle" x="714.78" y="-254.3" font-family="Times,serif" font-size="14.00">cyclic_subgroup</text>
</a>
</g>
</g>
<!-- Centralizer_abgroup_cyclic_subgroup&#45;&gt;Centralizer_cyclic_subgroup -->
<g id="edge2" class="edge">
<title>Centralizer_abgroup_cyclic_subgroup&#45;&gt;Centralizer_cyclic_subgroup</title>
<path fill="none" stroke="black" d="M597.48,-321.27C621.95,-308.28 652,-292.33 675.55,-279.82"/>
<polygon fill="black" stroke="black" points="677.37,-282.82 684.56,-275.04 674.09,-276.64 677.37,-282.82"/>
</g>
<!-- Centralizer_cyclic_subgroup_from_unit -->
<g id="node4" class="node">
<title>Centralizer_cyclic_subgroup_from_unit</title>
<g id="a_node4"><a xlink:href="Centralizer.html#cyclic_subgroup_from_unit" xlink:title="cyclic_subgroup_from_unit">
<ellipse fill="#f070d1" stroke="black" cx="652.78" cy="-178" rx="133.78" ry="18"/>
<text text-anchor="middle" x="652.78" y="-174.3" font-family="Times,serif" font-size="14.00">cyclic_subgroup_from_unit</text>
</a>
</g>
</g>
<!-- Centralizer_commutative_cyclic_subgroup&#45;&gt;Centralizer_cyclic_subgroup_from_unit -->
<g id="edge3" class="edge">
<title>Centralizer_commutative_cyclic_subgroup&#45;&gt;Centralizer_cyclic_subgroup_from_unit</title>
<path fill="none" stroke="black" d="M488.13,-240.74C520.78,-228.5 565.68,-211.66 600.35,-198.66"/>
<polygon fill="black" stroke="black" points="601.71,-201.89 609.84,-195.1 599.25,-195.34 601.71,-201.89"/>
</g>
<!-- Centralizer_issubgroup_centralizer -->
<g id="node6" class="node">
<title>Centralizer_issubgroup_centralizer</title>
<g id="a_node6"><a xlink:href="Centralizer.html#issubgroup_centralizer" xlink:title="issubgroup_centralizer">
<ellipse fill="#f070d1" stroke="black" cx="348.78" cy="-178" rx="116.98" ry="18"/>
<text text-anchor="middle" x="348.78" y="-174.3" font-family="Times,serif" font-size="14.00">issubgroup_centralizer</text>
</a>
</g>
</g>
<!-- Centralizer_commutative_cyclic_subgroup&#45;&gt;Centralizer_issubgroup_centralizer -->
<g id="edge4" class="edge">
<title>Centralizer_commutative_cyclic_subgroup&#45;&gt;Centralizer_issubgroup_centralizer</title>
<path fill="none" stroke="black" d="M423.95,-240.08C410.36,-229.04 392.45,-214.48 377.51,-202.35"/>
<polygon fill="black" stroke="black" points="379.54,-199.48 369.57,-195.89 375.12,-204.91 379.54,-199.48"/>
</g>
<!-- Centralizer_cyclic_subgroup&#45;&gt;Centralizer_cyclic_subgroup_from_unit -->
<g id="edge5" class="edge">
<title>Centralizer_cyclic_subgroup&#45;&gt;Centralizer_cyclic_subgroup_from_unit</title>
<path fill="none" stroke="black" d="M701.33,-240.08C693.02,-229.62 682.2,-216.01 672.88,-204.29"/>
<polygon fill="black" stroke="black" points="675.38,-201.81 666.42,-196.16 669.9,-206.17 675.38,-201.81"/>
</g>
<!-- Centralizer_centralizer_subgroup -->
<g id="node5" class="node">
<title>Centralizer_centralizer_subgroup</title>
<g id="a_node5"><a xlink:href="Centralizer.html#centralizer_subgroup" xlink:title="centralizer_subgroup">
<ellipse fill="#f070d1" stroke="black" cx="141.78" cy="-258" rx="109.37" ry="18"/>
<ellipse fill="none" stroke="black" cx="141.78" cy="-258" rx="113.37" ry="22"/>
<ellipse fill="none" stroke="black" cx="141.78" cy="-258" rx="117.38" ry="26"/>
<text text-anchor="middle" x="141.78" y="-254.3" font-family="Times,serif" font-size="14.00">centralizer_subgroup</text>
</a>
</g>
</g>
<!-- Centralizer_centralizer_subgroup&#45;&gt;Centralizer_issubgroup_centralizer -->
<g id="edge6" class="edge">
<title>Centralizer_centralizer_subgroup&#45;&gt;Centralizer_issubgroup_centralizer</title>
<path fill="none" stroke="black" d="M199.44,-235.27C229.96,-223.77 267.15,-209.76 296.79,-198.59"/>
<polygon fill="black" stroke="black" points="298.4,-201.72 306.52,-194.92 295.93,-195.17 298.4,-201.72"/>
</g>
<!-- Centralizer_centralizer_inverse -->
<g id="node7" class="node">
<title>Centralizer_centralizer_inverse</title>
<g id="a_node7"><a xlink:href="Centralizer.html#centralizer_inverse" xlink:title="centralizer_inverse">
<ellipse fill="#f070d1" stroke="black" cx="130.78" cy="-106" rx="99.38" ry="18"/>
<text text-anchor="middle" x="130.78" y="-102.3" font-family="Times,serif" font-size="14.00">centralizer_inverse</text>
</a>
</g>
</g>
<!-- Centralizer_issubgroup_centralizer&#45;&gt;Centralizer_centralizer_inverse -->
<g id="edge7" class="edge">
<title>Centralizer_issubgroup_centralizer&#45;&gt;Centralizer_centralizer_inverse</title>
<path fill="none" stroke="black" d="M300.67,-161.55C267.09,-150.77 222.15,-136.34 186.93,-125.03"/>
<polygon fill="black" stroke="black" points="187.86,-121.65 177.27,-121.93 185.72,-128.32 187.86,-121.65"/>
</g>
<!-- Centralizer_centralizer_sgop -->
<g id="node8" class="node">
<title>Centralizer_centralizer_sgop</title>
<g id="a_node8"><a xlink:href="Centralizer.html#centralizer_sgop" xlink:title="centralizer_sgop">
<ellipse fill="#f070d1" stroke="black" cx="348.78" cy="-106" rx="87.18" ry="18"/>
<text text-anchor="middle" x="348.78" y="-102.3" font-family="Times,serif" font-size="14.00">centralizer_sgop</text>
</a>
</g>
</g>
<!-- Centralizer_issubgroup_centralizer&#45;&gt;Centralizer_centralizer_sgop -->
<g id="edge8" class="edge">
<title>Centralizer_issubgroup_centralizer&#45;&gt;Centralizer_centralizer_sgop</title>
<path fill="none" stroke="black" d="M348.78,-159.7C348.78,-151.98 348.78,-142.71 348.78,-134.11"/>
<polygon fill="black" stroke="black" points="352.28,-134.1 348.78,-124.1 345.28,-134.1 352.28,-134.1"/>
</g>
<!-- Centralizer_centralizer_unit -->
<g id="node9" class="node">
<title>Centralizer_centralizer_unit</title>
<g id="a_node9"><a xlink:href="Centralizer.html#centralizer_unit" xlink:title="centralizer_unit">
<ellipse fill="#f070d1" stroke="black" cx="550.78" cy="-106" rx="83.69" ry="18"/>
<text text-anchor="middle" x="550.78" y="-102.3" font-family="Times,serif" font-size="14.00">centralizer_unit</text>
</a>
</g>
</g>
<!-- Centralizer_issubgroup_centralizer&#45;&gt;Centralizer_centralizer_unit -->
<g id="edge9" class="edge">
<title>Centralizer_issubgroup_centralizer&#45;&gt;Centralizer_centralizer_unit</title>
<path fill="none" stroke="black" d="M393.86,-161.38C424.95,-150.61 466.35,-136.26 498.83,-125"/>
<polygon fill="black" stroke="black" points="500.29,-128.2 508.6,-121.62 498,-121.59 500.29,-128.2"/>
</g>
<!-- Centralizer_centralizer -->
<g id="node10" class="node">
<title>Centralizer_centralizer</title>
<g id="a_node10"><a xlink:href="Centralizer.html#centralizer" xlink:title="centralizer">
<ellipse fill="#f070d1" stroke="black" cx="348.78" cy="-34" rx="61.19" ry="18"/>
<text text-anchor="middle" x="348.78" y="-30.3" font-family="Times,serif" font-size="14.00">centralizer</text>
</a>
</g>
</g>
<!-- Centralizer_centralizer_inverse&#45;&gt;Centralizer_centralizer -->
<g id="edge10" class="edge">
<title>Centralizer_centralizer_inverse&#45;&gt;Centralizer_centralizer</title>
<path fill="none" stroke="black" d="M177.28,-90.07C213.06,-78.58 262.4,-62.74 298.98,-50.99"/>
<polygon fill="black" stroke="black" points="300.48,-54.18 308.93,-47.79 298.34,-47.52 300.48,-54.18"/>
</g>
<!-- Centralizer_centralizer_sgop&#45;&gt;Centralizer_centralizer -->
<g id="edge11" class="edge">
<title>Centralizer_centralizer_sgop&#45;&gt;Centralizer_centralizer</title>
<path fill="none" stroke="black" d="M348.78,-87.7C348.78,-79.98 348.78,-70.71 348.78,-62.11"/>
<polygon fill="black" stroke="black" points="352.28,-62.1 348.78,-52.1 345.28,-62.1 352.28,-62.1"/>
</g>
<!-- Centralizer_centralizer_unit&#45;&gt;Centralizer_centralizer -->
<g id="edge12" class="edge">
<title>Centralizer_centralizer_unit&#45;&gt;Centralizer_centralizer</title>
<path fill="none" stroke="black" d="M508.43,-90.33C475.79,-79.01 430.64,-63.37 396.68,-51.6"/>
<polygon fill="black" stroke="black" points="397.57,-48.2 386.98,-48.24 395.28,-54.82 397.57,-48.2"/>
</g>
</g>
</svg>
