<?xml version="1.0" encoding="UTF-8" standalone="no"?>
<!DOCTYPE svg PUBLIC "-//W3C//DTD SVG 1.1//EN"
 "http://www.w3.org/Graphics/SVG/1.1/DTD/svg11.dtd">
<!-- Generated by graphviz version 2.43.0 (0)
 -->
<!-- Title: HoTT_Algebra_Rings_CRing Pages: 1 -->
<svg width="1829pt" height="918pt"
 viewBox="0.00 0.00 1829.00 918.50" xmlns="http://www.w3.org/2000/svg" xmlns:xlink="http://www.w3.org/1999/xlink">
<g id="graph0" class="graph" transform="scale(1 1) rotate(0) translate(4 914.5)">
<title>HoTT_Algebra_Rings_CRing</title>
<polygon fill="white" stroke="transparent" points="-4,4 -4,-914.5 1825,-914.5 1825,4 -4,4"/>
<g id="clust1" class="cluster">
<title>cluster_CRing</title>
<polygon fill="#ffffc3" stroke="black" points="8,-12.08 8,-898.42 1813,-898.42 1813,-12.08 8,-12.08"/>
<text text-anchor="middle" x="38" y="-883.22" font-family="Times,serif" font-size="14.00">CRing</text>
</g>
<!-- CRing_hasequiv_CRing -->
<g id="node1" class="node">
<title>CRing_hasequiv_CRing</title>
<g id="a_node1"><a xlink:href="CRing.html#hasequiv_CRing" xlink:title="hasequiv_CRing">
<ellipse fill="#f070d1" stroke="black" cx="1502" cy="-679.08" rx="85.27" ry="18"/>
<ellipse fill="none" stroke="black" cx="1502" cy="-679.08" rx="89.28" ry="22"/>
<ellipse fill="none" stroke="black" cx="1502" cy="-679.08" rx="93.29" ry="26"/>
<text text-anchor="middle" x="1502" y="-675.38" font-family="Times,serif" font-size="14.00">hasequiv_CRing</text>
</a>
</g>
</g>
<!-- CRing_is1cat_CRing -->
<g id="node2" class="node">
<title>CRing_is1cat_CRing</title>
<g id="a_node2"><a xlink:href="CRing.html#is1cat_CRing" xlink:title="is1cat_CRing">
<ellipse fill="#f070d1" stroke="black" cx="1502" cy="-559.08" rx="71.49" ry="18"/>
<text text-anchor="middle" x="1502" y="-555.38" font-family="Times,serif" font-size="14.00">is1cat_CRing</text>
</a>
</g>
</g>
<!-- CRing_hasequiv_CRing&#45;&gt;CRing_is1cat_CRing -->
<g id="edge1" class="edge">
<title>CRing_hasequiv_CRing&#45;&gt;CRing_is1cat_CRing</title>
<path fill="none" stroke="black" d="M1502,-653.05C1502,-633.88 1502,-607.43 1502,-587.65"/>
<polygon fill="black" stroke="black" points="1505.5,-587.43 1502,-577.43 1498.5,-587.43 1505.5,-587.43"/>
</g>
<!-- CRing_is2graph_CRing -->
<g id="node3" class="node">
<title>CRing_is2graph_CRing</title>
<g id="a_node3"><a xlink:href="CRing.html#is2graph_CRing" xlink:title="is2graph_CRing">
<ellipse fill="#f070d1" stroke="black" cx="1412" cy="-438.08" rx="84.49" ry="18"/>
<text text-anchor="middle" x="1412" y="-434.38" font-family="Times,serif" font-size="14.00">is2graph_CRing</text>
</a>
</g>
</g>
<!-- CRing_is1cat_CRing&#45;&gt;CRing_is2graph_CRing -->
<g id="edge2" class="edge">
<title>CRing_is1cat_CRing&#45;&gt;CRing_is2graph_CRing</title>
<path fill="none" stroke="black" d="M1489.3,-541.28C1474.11,-521.2 1448.54,-487.39 1431,-464.2"/>
<polygon fill="black" stroke="black" points="1433.75,-462.04 1424.93,-456.18 1428.17,-466.26 1433.75,-462.04"/>
</g>
<!-- CRing_is01cat_CRing -->
<g id="node4" class="node">
<title>CRing_is01cat_CRing</title>
<g id="a_node4"><a xlink:href="CRing.html#is01cat_CRing" xlink:title="is01cat_CRing">
<ellipse fill="#f070d1" stroke="black" cx="1592" cy="-438.08" rx="77.19" ry="18"/>
<text text-anchor="middle" x="1592" y="-434.38" font-family="Times,serif" font-size="14.00">is01cat_CRing</text>
</a>
</g>
</g>
<!-- CRing_is1cat_CRing&#45;&gt;CRing_is01cat_CRing -->
<g id="edge3" class="edge">
<title>CRing_is1cat_CRing&#45;&gt;CRing_is01cat_CRing</title>
<path fill="none" stroke="black" d="M1514.7,-541.28C1529.89,-521.2 1555.46,-487.39 1573,-464.2"/>
<polygon fill="black" stroke="black" points="1575.83,-466.26 1579.07,-456.18 1570.25,-462.04 1575.83,-466.26"/>
</g>
<!-- CRing_isgraph_CRing -->
<g id="node5" class="node">
<title>CRing_isgraph_CRing</title>
<g id="a_node5"><a xlink:href="CRing.html#isgraph_CRing" xlink:title="isgraph_CRing">
<ellipse fill="#f070d1" stroke="black" cx="1502" cy="-305.08" rx="78.79" ry="18"/>
<text text-anchor="middle" x="1502" y="-301.38" font-family="Times,serif" font-size="14.00">isgraph_CRing</text>
</a>
</g>
</g>
<!-- CRing_is2graph_CRing&#45;&gt;CRing_isgraph_CRing -->
<g id="edge4" class="edge">
<title>CRing_is2graph_CRing&#45;&gt;CRing_isgraph_CRing</title>
<path fill="none" stroke="black" d="M1423.58,-420.22C1439.02,-397.75 1466.49,-357.77 1484.47,-331.59"/>
<polygon fill="black" stroke="black" points="1487.4,-333.51 1490.18,-323.29 1481.63,-329.55 1487.4,-333.51"/>
</g>
<!-- CRing_is01cat_CRing&#45;&gt;CRing_isgraph_CRing -->
<g id="edge5" class="edge">
<title>CRing_is01cat_CRing&#45;&gt;CRing_isgraph_CRing</title>
<path fill="none" stroke="black" d="M1580.42,-420.22C1564.98,-397.75 1537.51,-357.77 1519.53,-331.59"/>
<polygon fill="black" stroke="black" points="1522.37,-329.55 1513.82,-323.29 1516.6,-333.51 1522.37,-329.55"/>
</g>
<!-- CRing_cring_ring -->
<g id="node22" class="node">
<title>CRing_cring_ring</title>
<g id="a_node22"><a xlink:href="CRing.html#cring_ring" xlink:title="cring_ring">
<ellipse fill="#f070d1" stroke="black" cx="1364" cy="-172.08" rx="57.69" ry="18"/>
<text text-anchor="middle" x="1364" y="-168.38" font-family="Times,serif" font-size="14.00">cring_ring</text>
</a>
</g>
</g>
<!-- CRing_isgraph_CRing&#45;&gt;CRing_cring_ring -->
<g id="edge6" class="edge">
<title>CRing_isgraph_CRing&#45;&gt;CRing_cring_ring</title>
<path fill="none" stroke="black" d="M1484.52,-287.49C1460.26,-264.46 1416.25,-222.68 1388.65,-196.48"/>
<polygon fill="black" stroke="black" points="1391,-193.88 1381.34,-189.54 1386.18,-198.96 1391,-193.88"/>
</g>
<!-- CRing_ideal_quotient_product_left -->
<g id="node6" class="node">
<title>CRing_ideal_quotient_product_left</title>
<g id="a_node6"><a xlink:href="CRing.html#ideal_quotient_product_left" xlink:title="ideal_quotient_product_left">
<ellipse fill="#f070d1" stroke="black" cx="793" cy="-438.08" rx="137.27" ry="18"/>
<ellipse fill="none" stroke="black" cx="793" cy="-438.08" rx="141.27" ry="22"/>
<ellipse fill="none" stroke="black" cx="793" cy="-438.08" rx="145.28" ry="26"/>
<text text-anchor="middle" x="793" y="-434.38" font-family="Times,serif" font-size="14.00">ideal_quotient_product_left</text>
</a>
</g>
</g>
<!-- CRing_ideal_quotient_subset_prod -->
<g id="node7" class="node">
<title>CRing_ideal_quotient_subset_prod</title>
<g id="a_node7"><a xlink:href="CRing.html#ideal_quotient_subset_prod" xlink:title="ideal_quotient_subset_prod">
<ellipse fill="#f070d1" stroke="black" cx="793" cy="-305.08" rx="137.58" ry="18"/>
<text text-anchor="middle" x="793" y="-301.38" font-family="Times,serif" font-size="14.00">ideal_quotient_subset_prod</text>
</a>
</g>
</g>
<!-- CRing_ideal_quotient_product_left&#45;&gt;CRing_ideal_quotient_subset_prod -->
<g id="edge7" class="edge">
<title>CRing_ideal_quotient_product_left&#45;&gt;CRing_ideal_quotient_subset_prod</title>
<path fill="none" stroke="black" d="M793,-411.82C793,-389.36 793,-356.58 793,-333.49"/>
<polygon fill="black" stroke="black" points="796.5,-333.32 793,-323.32 789.5,-333.32 796.5,-333.32"/>
</g>
<!-- CRing_rng_mult_comm -->
<g id="node15" class="node">
<title>CRing_rng_mult_comm</title>
<g id="a_node15"><a xlink:href="CRing.html#rng_mult_comm" xlink:title="rng_mult_comm">
<ellipse fill="#f070d1" stroke="black" cx="1043" cy="-172.08" rx="85.29" ry="18"/>
<text text-anchor="middle" x="1043" y="-168.38" font-family="Times,serif" font-size="14.00">rng_mult_comm</text>
</a>
</g>
</g>
<!-- CRing_ideal_quotient_subset_prod&#45;&gt;CRing_rng_mult_comm -->
<g id="edge8" class="edge">
<title>CRing_ideal_quotient_subset_prod&#45;&gt;CRing_rng_mult_comm</title>
<path fill="none" stroke="black" d="M824.66,-287.49C870.21,-263.62 954.17,-219.63 1003.65,-193.7"/>
<polygon fill="black" stroke="black" points="1005.53,-196.66 1012.76,-188.92 1002.28,-190.46 1005.53,-196.66"/>
</g>
<!-- CRing_ideal_quotient_product -->
<g id="node8" class="node">
<title>CRing_ideal_quotient_product</title>
<g id="a_node8"><a xlink:href="CRing.html#ideal_quotient_product" xlink:title="ideal_quotient_product">
<ellipse fill="#f070d1" stroke="black" cx="1280" cy="-305.08" rx="116.98" ry="18"/>
<ellipse fill="none" stroke="black" cx="1280" cy="-305.08" rx="120.98" ry="22"/>
<ellipse fill="none" stroke="black" cx="1280" cy="-305.08" rx="124.98" ry="26"/>
<text text-anchor="middle" x="1280" y="-301.38" font-family="Times,serif" font-size="14.00">ideal_quotient_product</text>
</a>
</g>
</g>
<!-- CRing_ideal_quotient_product&#45;&gt;CRing_rng_mult_comm -->
<g id="edge9" class="edge">
<title>CRing_ideal_quotient_product&#45;&gt;CRing_rng_mult_comm</title>
<path fill="none" stroke="black" d="M1237.36,-280.51C1192.78,-255.87 1123.51,-217.58 1080.82,-193.99"/>
<polygon fill="black" stroke="black" points="1082.32,-190.82 1071.88,-189.04 1078.94,-196.94 1082.32,-190.82"/>
</g>
<!-- CRing_cring_negate -->
<g id="node17" class="node">
<title>CRing_cring_negate</title>
<g id="a_node17"><a xlink:href="CRing.html#cring_negate" xlink:title="cring_negate">
<ellipse fill="#f070d1" stroke="black" cx="1217" cy="-172.08" rx="70.69" ry="18"/>
<text text-anchor="middle" x="1217" y="-168.38" font-family="Times,serif" font-size="14.00">cring_negate</text>
</a>
</g>
</g>
<!-- CRing_ideal_quotient_product&#45;&gt;CRing_cring_negate -->
<g id="edge10" class="edge">
<title>CRing_ideal_quotient_product&#45;&gt;CRing_cring_negate</title>
<path fill="none" stroke="black" d="M1268,-279.13C1257.01,-256.27 1240.78,-222.53 1229.6,-199.28"/>
<polygon fill="black" stroke="black" points="1232.64,-197.52 1225.15,-190.02 1226.33,-200.55 1232.64,-197.52"/>
</g>
<!-- CRing_ideal_intersection_is_product -->
<g id="node9" class="node">
<title>CRing_ideal_intersection_is_product</title>
<g id="a_node9"><a xlink:href="CRing.html#ideal_intersection_is_product" xlink:title="ideal_intersection_is_product">
<ellipse fill="#f070d1" stroke="black" cx="423" cy="-812.08" rx="145.67" ry="18"/>
<ellipse fill="none" stroke="black" cx="423" cy="-812.08" rx="149.67" ry="22"/>
<ellipse fill="none" stroke="black" cx="423" cy="-812.08" rx="153.67" ry="26"/>
<text text-anchor="middle" x="423" y="-808.38" font-family="Times,serif" font-size="14.00">ideal_intersection_is_product</text>
</a>
</g>
</g>
<!-- CRing_ideal_intersection_subset_product -->
<g id="node10" class="node">
<title>CRing_ideal_intersection_subset_product</title>
<g id="a_node10"><a xlink:href="CRing.html#ideal_intersection_subset_product" xlink:title="ideal_intersection_subset_product">
<ellipse fill="#f070d1" stroke="black" cx="423" cy="-679.08" rx="168.97" ry="18"/>
<text text-anchor="middle" x="423" y="-675.38" font-family="Times,serif" font-size="14.00">ideal_intersection_subset_product</text>
</a>
</g>
</g>
<!-- CRing_ideal_intersection_is_product&#45;&gt;CRing_ideal_intersection_subset_product -->
<g id="edge11" class="edge">
<title>CRing_ideal_intersection_is_product&#45;&gt;CRing_ideal_intersection_subset_product</title>
<path fill="none" stroke="black" d="M423,-785.82C423,-763.36 423,-730.58 423,-707.49"/>
<polygon fill="black" stroke="black" points="426.5,-707.32 423,-697.32 419.5,-707.32 426.5,-707.32"/>
</g>
<!-- CRing_ideal_product_intersection_sum_subset_ -->
<g id="node11" class="node">
<title>CRing_ideal_product_intersection_sum_subset_</title>
<g id="a_node11"><a xlink:href="CRing.html#ideal_product_intersection_sum_subset'" xlink:title="ideal_product_intersection_sum_subset&#39;">
<ellipse fill="#f070d1" stroke="black" cx="423" cy="-559.08" rx="194.97" ry="18"/>
<text text-anchor="middle" x="423" y="-555.38" font-family="Times,serif" font-size="14.00">ideal_product_intersection_sum_subset&#39;</text>
</a>
</g>
</g>
<!-- CRing_ideal_intersection_subset_product&#45;&gt;CRing_ideal_product_intersection_sum_subset_ -->
<g id="edge12" class="edge">
<title>CRing_ideal_intersection_subset_product&#45;&gt;CRing_ideal_product_intersection_sum_subset_</title>
<path fill="none" stroke="black" d="M423,-660.92C423,-641.61 423,-609.97 423,-587.28"/>
<polygon fill="black" stroke="black" points="426.5,-587.26 423,-577.26 419.5,-587.26 426.5,-587.26"/>
</g>
<!-- CRing_ideal_product_comm -->
<g id="node12" class="node">
<title>CRing_ideal_product_comm</title>
<g id="a_node12"><a xlink:href="CRing.html#ideal_product_comm" xlink:title="ideal_product_comm">
<ellipse fill="#f070d1" stroke="black" cx="423" cy="-438.08" rx="105.88" ry="18"/>
<text text-anchor="middle" x="423" y="-434.38" font-family="Times,serif" font-size="14.00">ideal_product_comm</text>
</a>
</g>
</g>
<!-- CRing_ideal_product_intersection_sum_subset_&#45;&gt;CRing_ideal_product_comm -->
<g id="edge13" class="edge">
<title>CRing_ideal_product_intersection_sum_subset_&#45;&gt;CRing_ideal_product_comm</title>
<path fill="none" stroke="black" d="M423,-541.03C423,-521.5 423,-489.24 423,-466.24"/>
<polygon fill="black" stroke="black" points="426.5,-466.1 423,-456.1 419.5,-466.1 426.5,-466.1"/>
</g>
<!-- CRing_ideal_product_subset_product_commutative -->
<g id="node13" class="node">
<title>CRing_ideal_product_subset_product_commutative</title>
<g id="a_node13"><a xlink:href="CRing.html#ideal_product_subset_product_commutative" xlink:title="ideal_product_subset_product_commutative">
<ellipse fill="#f070d1" stroke="black" cx="423" cy="-305.08" rx="213.66" ry="18"/>
<text text-anchor="middle" x="423" y="-301.38" font-family="Times,serif" font-size="14.00">ideal_product_subset_product_commutative</text>
</a>
</g>
</g>
<!-- CRing_ideal_product_comm&#45;&gt;CRing_ideal_product_subset_product_commutative -->
<g id="edge14" class="edge">
<title>CRing_ideal_product_comm&#45;&gt;CRing_ideal_product_subset_product_commutative</title>
<path fill="none" stroke="black" d="M423,-419.95C423,-397.99 423,-359.62 423,-333.55"/>
<polygon fill="black" stroke="black" points="426.5,-333.21 423,-323.21 419.5,-333.21 426.5,-333.21"/>
</g>
<!-- CRing_ideal_product_subset_product_commutative&#45;&gt;CRing_rng_mult_comm -->
<g id="edge15" class="edge">
<title>CRing_ideal_product_subset_product_commutative&#45;&gt;CRing_rng_mult_comm</title>
<path fill="none" stroke="black" d="M508.53,-288.51C612.9,-269.12 794.56,-234.14 949,-198.08 960.19,-195.47 972.08,-192.48 983.5,-189.49"/>
<polygon fill="black" stroke="black" points="984.61,-192.82 993.38,-186.88 982.82,-186.05 984.61,-192.82"/>
</g>
<!-- CRing_rng_power_mult -->
<g id="node14" class="node">
<title>CRing_rng_power_mult</title>
<g id="a_node14"><a xlink:href="CRing.html#rng_power_mult" xlink:title="rng_power_mult">
<ellipse fill="#f070d1" stroke="black" cx="1043" cy="-305.08" rx="85.6" ry="18"/>
<ellipse fill="none" stroke="black" cx="1043" cy="-305.08" rx="89.59" ry="22"/>
<ellipse fill="none" stroke="black" cx="1043" cy="-305.08" rx="93.59" ry="26"/>
<text text-anchor="middle" x="1043" y="-301.38" font-family="Times,serif" font-size="14.00">rng_power_mult</text>
</a>
</g>
</g>
<!-- CRing_rng_power_mult&#45;&gt;CRing_rng_mult_comm -->
<g id="edge16" class="edge">
<title>CRing_rng_power_mult&#45;&gt;CRing_rng_mult_comm</title>
<path fill="none" stroke="black" d="M1043,-278.82C1043,-256.36 1043,-223.58 1043,-200.49"/>
<polygon fill="black" stroke="black" points="1046.5,-200.32 1043,-190.32 1039.5,-200.32 1046.5,-200.32"/>
</g>
<!-- CRing_CRing -->
<g id="node28" class="node">
<title>CRing_CRing</title>
<g id="a_node28"><a xlink:href="CRing.html#CRing" xlink:title="CRing">
<ellipse fill="#e2cdfa" stroke="black" cx="873" cy="-51.08" rx="38.99" ry="18"/>
<text text-anchor="middle" x="873" y="-47.38" font-family="Times,serif" font-size="14.00">CRing</text>
</a>
</g>
</g>
<!-- CRing_rng_mult_comm&#45;&gt;CRing_CRing -->
<g id="edge17" class="edge">
<title>CRing_rng_mult_comm&#45;&gt;CRing_CRing</title>
<path fill="none" stroke="black" d="M1019.36,-154.53C988.63,-133.02 934.97,-95.46 901.86,-72.28"/>
<polygon fill="black" stroke="black" points="903.71,-69.3 893.51,-66.44 899.7,-75.04 903.71,-69.3"/>
</g>
<!-- CRing_Build_CRing_ -->
<g id="node16" class="node">
<title>CRing_Build_CRing_</title>
<g id="a_node16"><a xlink:href="CRing.html#Build_CRing'" xlink:title="Build_CRing&#39;">
<ellipse fill="#f070d1" stroke="black" cx="258" cy="-172.08" rx="70.37" ry="18"/>
<ellipse fill="none" stroke="black" cx="258" cy="-172.08" rx="74.38" ry="22"/>
<ellipse fill="none" stroke="black" cx="258" cy="-172.08" rx="78.39" ry="26"/>
<text text-anchor="middle" x="258" y="-168.38" font-family="Times,serif" font-size="14.00">Build_CRing&#39;</text>
</a>
</g>
</g>
<!-- CRing_Build_CRing -->
<g id="node27" class="node">
<title>CRing_Build_CRing</title>
<g id="a_node27"><a xlink:href="CRing.html#Build_CRing" xlink:title="Build_CRing">
<ellipse fill="#7faaff" stroke="black" cx="420" cy="-51.08" rx="67.69" ry="18"/>
<text text-anchor="middle" x="420" y="-47.38" font-family="Times,serif" font-size="14.00">Build_CRing</text>
</a>
</g>
</g>
<!-- CRing_Build_CRing_&#45;&gt;CRing_Build_CRing -->
<g id="edge18" class="edge">
<title>CRing_Build_CRing_&#45;&gt;CRing_Build_CRing</title>
<path fill="none" stroke="black" d="M289.24,-148.14C318.07,-126.96 360.63,-95.69 389.29,-74.64"/>
<polygon fill="black" stroke="black" points="391.72,-77.2 397.71,-68.45 387.58,-71.55 391.72,-77.2"/>
</g>
<!-- CRing_Build_CRing_&#45;&gt;CRing_CRing -->
<g id="edge19" class="edge">
<title>CRing_Build_CRing_&#45;&gt;CRing_CRing</title>
<path fill="none" stroke="black" d="M314.4,-153.95C324.54,-151.14 335.05,-148.39 345,-146.08 520.98,-105.25 733.5,-72.31 826.09,-58.76"/>
<polygon fill="black" stroke="black" points="826.86,-62.19 836.25,-57.28 825.85,-55.26 826.86,-62.19"/>
</g>
<!-- CRing_cring_negate&#45;&gt;CRing_CRing -->
<g id="edge20" class="edge">
<title>CRing_cring_negate&#45;&gt;CRing_CRing</title>
<path fill="none" stroke="black" d="M1176.87,-157.2C1110.61,-134.28 979.13,-88.79 912.98,-65.91"/>
<polygon fill="black" stroke="black" points="913.92,-62.53 903.33,-62.57 911.63,-69.15 913.92,-62.53"/>
</g>
<!-- CRing_cring_zero -->
<g id="node18" class="node">
<title>CRing_cring_zero</title>
<g id="a_node18"><a xlink:href="CRing.html#cring_zero" xlink:title="cring_zero">
<ellipse fill="#f070d1" stroke="black" cx="873" cy="-172.08" rx="59.27" ry="18"/>
<ellipse fill="none" stroke="black" cx="873" cy="-172.08" rx="63.28" ry="22"/>
<ellipse fill="none" stroke="black" cx="873" cy="-172.08" rx="67.29" ry="26"/>
<text text-anchor="middle" x="873" y="-168.38" font-family="Times,serif" font-size="14.00">cring_zero</text>
</a>
</g>
</g>
<!-- CRing_cring_zero&#45;&gt;CRing_CRing -->
<g id="edge21" class="edge">
<title>CRing_cring_zero&#45;&gt;CRing_CRing</title>
<path fill="none" stroke="black" d="M873,-145.84C873,-126.3 873,-99.26 873,-79.25"/>
<polygon fill="black" stroke="black" points="876.5,-79.22 873,-69.22 869.5,-79.22 876.5,-79.22"/>
</g>
<!-- CRing_cring_plus -->
<g id="node19" class="node">
<title>CRing_cring_plus</title>
<g id="a_node19"><a xlink:href="CRing.html#cring_plus" xlink:title="cring_plus">
<ellipse fill="#f070d1" stroke="black" cx="1739" cy="-172.08" rx="58.49" ry="18"/>
<ellipse fill="none" stroke="black" cx="1739" cy="-172.08" rx="62.49" ry="22"/>
<ellipse fill="none" stroke="black" cx="1739" cy="-172.08" rx="66.49" ry="26"/>
<text text-anchor="middle" x="1739" y="-168.38" font-family="Times,serif" font-size="14.00">cring_plus</text>
</a>
</g>
</g>
<!-- CRing_cring_plus&#45;&gt;CRing_CRing -->
<g id="edge22" class="edge">
<title>CRing_cring_plus&#45;&gt;CRing_CRing</title>
<path fill="none" stroke="black" d="M1691.16,-153.74C1681.91,-150.85 1672.22,-148.12 1663,-146.08 1386.58,-84.81 1046.31,-61.39 921.68,-54.49"/>
<polygon fill="black" stroke="black" points="921.86,-51 911.68,-53.95 921.48,-57.99 921.86,-51"/>
</g>
<!-- CRing_issig_CRing -->
<g id="node20" class="node">
<title>CRing_issig_CRing</title>
<g id="a_node20"><a xlink:href="CRing.html#issig_CRing" xlink:title="issig_CRing">
<ellipse fill="#f070d1" stroke="black" cx="89" cy="-172.08" rx="64.99" ry="18"/>
<ellipse fill="none" stroke="black" cx="89" cy="-172.08" rx="68.99" ry="22"/>
<ellipse fill="none" stroke="black" cx="89" cy="-172.08" rx="72.99" ry="26"/>
<text text-anchor="middle" x="89" y="-168.38" font-family="Times,serif" font-size="14.00">issig_CRing</text>
</a>
</g>
</g>
<!-- CRing_issig_CRing&#45;&gt;CRing_Build_CRing -->
<g id="edge23" class="edge">
<title>CRing_issig_CRing&#45;&gt;CRing_Build_CRing</title>
<path fill="none" stroke="black" d="M139.27,-153.01C202.27,-130.36 309.5,-91.8 371.61,-69.48"/>
<polygon fill="black" stroke="black" points="372.95,-72.71 381.18,-66.04 370.58,-66.13 372.95,-72.71"/>
</g>
<!-- CRing_issig_CRing&#45;&gt;CRing_CRing -->
<g id="edge24" class="edge">
<title>CRing_issig_CRing&#45;&gt;CRing_CRing</title>
<path fill="none" stroke="black" d="M141.16,-153.79C151,-150.93 161.26,-148.2 171,-146.08 413.33,-93.28 709.59,-65.33 824.36,-55.85"/>
<polygon fill="black" stroke="black" points="824.89,-59.31 834.57,-55.01 824.32,-52.34 824.89,-59.31"/>
</g>
<!-- CRing_cring_commutative -->
<g id="node21" class="node">
<title>CRing_cring_commutative</title>
<g id="a_node21"><a xlink:href="CRing.html#cring_commutative" xlink:title="cring_commutative">
<ellipse fill="#f070d1" stroke="black" cx="1547" cy="-172.08" rx="99.39" ry="18"/>
<ellipse fill="none" stroke="black" cx="1547" cy="-172.08" rx="103.38" ry="22"/>
<ellipse fill="none" stroke="black" cx="1547" cy="-172.08" rx="107.38" ry="26"/>
<text text-anchor="middle" x="1547" y="-168.38" font-family="Times,serif" font-size="14.00">cring_commutative</text>
</a>
</g>
</g>
<!-- CRing_cring_commutative&#45;&gt;CRing_CRing -->
<g id="edge25" class="edge">
<title>CRing_cring_commutative&#45;&gt;CRing_CRing</title>
<path fill="none" stroke="black" d="M1469.73,-153.92C1456.82,-151.19 1443.54,-148.49 1431,-146.08 1242.03,-109.82 1015.59,-74.02 919.63,-59.2"/>
<polygon fill="black" stroke="black" points="920.08,-55.73 909.66,-57.67 919.01,-62.65 920.08,-55.73"/>
</g>
<!-- CRing_cring_ring&#45;&gt;CRing_CRing -->
<g id="edge26" class="edge">
<title>CRing_cring_ring&#45;&gt;CRing_CRing</title>
<path fill="none" stroke="black" d="M1330.22,-157.43C1319.69,-153.46 1307.95,-149.32 1297,-146.08 1161.55,-106.01 997.28,-74.24 918.91,-60.09"/>
<polygon fill="black" stroke="black" points="919.34,-56.61 908.88,-58.29 918.11,-63.5 919.34,-56.61"/>
</g>
<!-- CRing_CRing_sind -->
<g id="node23" class="node">
<title>CRing_CRing_sind</title>
<g id="a_node23"><a xlink:href="CRing.html#CRing_sind" xlink:title="CRing_sind">
<ellipse fill="#f070d1" stroke="black" cx="717" cy="-172.08" rx="63.08" ry="18"/>
<ellipse fill="none" stroke="black" cx="717" cy="-172.08" rx="67.09" ry="22"/>
<ellipse fill="none" stroke="black" cx="717" cy="-172.08" rx="71.09" ry="26"/>
<text text-anchor="middle" x="717" y="-168.38" font-family="Times,serif" font-size="14.00">CRing_sind</text>
</a>
</g>
</g>
<!-- CRing_CRing_sind&#45;&gt;CRing_Build_CRing -->
<g id="edge27" class="edge">
<title>CRing_CRing_sind&#45;&gt;CRing_Build_CRing</title>
<path fill="none" stroke="black" d="M670.27,-152.35C614.17,-129.88 520.75,-92.45 465.3,-70.23"/>
<polygon fill="black" stroke="black" points="466.32,-66.87 455.74,-66.4 463.72,-73.37 466.32,-66.87"/>
</g>
<!-- CRing_CRing_sind&#45;&gt;CRing_CRing -->
<g id="edge28" class="edge">
<title>CRing_CRing_sind&#45;&gt;CRing_CRing</title>
<path fill="none" stroke="black" d="M746.71,-148.42C775.23,-126.66 817.95,-94.07 845.65,-72.94"/>
<polygon fill="black" stroke="black" points="847.91,-75.62 853.74,-66.77 843.66,-70.06 847.91,-75.62"/>
</g>
<!-- CRing_CRing_rec -->
<g id="node24" class="node">
<title>CRing_CRing_rec</title>
<g id="a_node24"><a xlink:href="CRing.html#CRing_rec" xlink:title="CRing_rec">
<ellipse fill="#f070d1" stroke="black" cx="125" cy="-305.08" rx="57.71" ry="18"/>
<ellipse fill="none" stroke="black" cx="125" cy="-305.08" rx="61.7" ry="22"/>
<ellipse fill="none" stroke="black" cx="125" cy="-305.08" rx="65.69" ry="26"/>
<text text-anchor="middle" x="125" y="-301.38" font-family="Times,serif" font-size="14.00">CRing_rec</text>
</a>
</g>
</g>
<!-- CRing_CRing_rect -->
<g id="node26" class="node">
<title>CRing_CRing_rect</title>
<g id="a_node26"><a xlink:href="CRing.html#CRing_rect" xlink:title="CRing_rect">
<ellipse fill="#f070d1" stroke="black" cx="566" cy="-172.08" rx="61.99" ry="18"/>
<text text-anchor="middle" x="566" y="-168.38" font-family="Times,serif" font-size="14.00">CRing_rect</text>
</a>
</g>
</g>
<!-- CRing_CRing_rec&#45;&gt;CRing_CRing_rect -->
<g id="edge29" class="edge">
<title>CRing_CRing_rec&#45;&gt;CRing_CRing_rect</title>
<path fill="none" stroke="black" d="M173.69,-287.43C182.43,-284.56 191.46,-281.67 200,-279.08 330.1,-239.57 365.24,-238.68 495,-198.08 502.89,-195.61 511.22,-192.83 519.29,-190.05"/>
<polygon fill="black" stroke="black" points="520.66,-193.28 528.95,-186.68 518.35,-186.67 520.66,-193.28"/>
</g>
<!-- CRing_CRing_ind -->
<g id="node25" class="node">
<title>CRing_CRing_ind</title>
<g id="a_node25"><a xlink:href="CRing.html#CRing_ind" xlink:title="CRing_ind">
<ellipse fill="#7fffd4" stroke="black" cx="420" cy="-172.08" rx="57.71" ry="18"/>
<ellipse fill="none" stroke="black" cx="420" cy="-172.08" rx="61.7" ry="22"/>
<ellipse fill="none" stroke="black" cx="420" cy="-172.08" rx="65.69" ry="26"/>
<text text-anchor="middle" x="420" y="-168.38" font-family="Times,serif" font-size="14.00">CRing_ind</text>
</a>
</g>
</g>
<!-- CRing_CRing_ind&#45;&gt;CRing_Build_CRing -->
<g id="edge30" class="edge">
<title>CRing_CRing_ind&#45;&gt;CRing_Build_CRing</title>
<path fill="none" stroke="black" d="M420,-145.84C420,-126.3 420,-99.26 420,-79.25"/>
<polygon fill="black" stroke="black" points="423.5,-79.22 420,-69.22 416.5,-79.22 423.5,-79.22"/>
</g>
<!-- CRing_CRing_ind&#45;&gt;CRing_CRing -->
<g id="edge31" class="edge">
<title>CRing_CRing_ind&#45;&gt;CRing_CRing</title>
<path fill="none" stroke="black" d="M468.64,-154.25C477.38,-151.41 486.43,-148.57 495,-146.08 614.61,-111.33 757.78,-77.92 828.69,-61.92"/>
<polygon fill="black" stroke="black" points="829.63,-65.29 838.62,-59.68 828.1,-58.46 829.63,-65.29"/>
</g>
<!-- CRing_CRing_rect&#45;&gt;CRing_Build_CRing -->
<g id="edge32" class="edge">
<title>CRing_CRing_rect&#45;&gt;CRing_Build_CRing</title>
<path fill="none" stroke="black" d="M546.01,-154.78C520.7,-134.16 476.96,-98.51 448.25,-75.11"/>
<polygon fill="black" stroke="black" points="450.18,-72.17 440.22,-68.56 445.76,-77.59 450.18,-72.17"/>
</g>
<!-- CRing_CRing_rect&#45;&gt;CRing_CRing -->
<g id="edge33" class="edge">
<title>CRing_CRing_rect&#45;&gt;CRing_CRing</title>
<path fill="none" stroke="black" d="M601.52,-157.31C659.68,-134.77 774.74,-90.17 834.68,-66.93"/>
<polygon fill="black" stroke="black" points="836.1,-70.14 844.15,-63.26 833.57,-63.61 836.1,-70.14"/>
</g>
</g>
</svg>
