<?xml version="1.0" encoding="UTF-8" standalone="no"?>
<!DOCTYPE svg PUBLIC "-//W3C//DTD SVG 1.1//EN"
 "http://www.w3.org/Graphics/SVG/1.1/DTD/svg11.dtd">
<!-- Generated by graphviz version 2.43.0 (0)
 -->
<!-- Title: HoTT_Types_Arrow Pages: 1 -->
<svg width="4129pt" height="2069pt"
 viewBox="0.00 0.00 4129.00 2068.50" xmlns="http://www.w3.org/2000/svg" xmlns:xlink="http://www.w3.org/1999/xlink">
<g id="graph0" class="graph" transform="scale(1 1) rotate(0) translate(4 2064.5)">
<title>HoTT_Types_Arrow</title>
<polygon fill="white" stroke="transparent" points="-4,4 -4,-2064.5 4125,-2064.5 4125,4 -4,4"/>
<g id="clust1" class="cluster">
<title>cluster_Arrow</title>
<polygon fill="#ffffc3" stroke="black" points="8,-46.43 8,-2014.07 4113,-2014.07 4113,-46.43 8,-46.43"/>
<text text-anchor="middle" x="38" y="-1998.87" font-family="Times,serif" font-size="14.00">Arrow</text>
</g>
<!-- Arrow_decidable_arrow -->
<g id="node1" class="node">
<title>Arrow_decidable_arrow</title>
<g id="a_node1"><a xlink:href="Arrow.html#decidable_arrow" xlink:title="decidable_arrow">
<ellipse fill="#f070d1" stroke="black" cx="4010" cy="-1683.43" rx="87.18" ry="18"/>
<ellipse fill="none" stroke="black" cx="4010" cy="-1683.43" rx="91.18" ry="22"/>
<ellipse fill="none" stroke="black" cx="4010" cy="-1683.43" rx="95.18" ry="26"/>
<text text-anchor="middle" x="4010" y="-1679.73" font-family="Times,serif" font-size="14.00">decidable_arrow</text>
</a>
</g>
</g>
<!-- Arrow_equiv_functor_arrow_ -->
<g id="node2" class="node">
<title>Arrow_equiv_functor_arrow_</title>
<g id="a_node2"><a xlink:href="Arrow.html#equiv_functor_arrow'" xlink:title="equiv_functor_arrow&#39;">
<ellipse fill="#f070d1" stroke="black" cx="3780" cy="-1683.43" rx="108.58" ry="18"/>
<ellipse fill="none" stroke="black" cx="3780" cy="-1683.43" rx="112.58" ry="22"/>
<ellipse fill="none" stroke="black" cx="3780" cy="-1683.43" rx="116.58" ry="26"/>
<text text-anchor="middle" x="3780" y="-1679.73" font-family="Times,serif" font-size="14.00">equiv_functor_arrow&#39;</text>
</a>
</g>
</g>
<!-- Arrow_equiv_functor_arrow -->
<g id="node3" class="node">
<title>Arrow_equiv_functor_arrow</title>
<g id="a_node3"><a xlink:href="Arrow.html#equiv_functor_arrow" xlink:title="equiv_functor_arrow">
<ellipse fill="#f070d1" stroke="black" cx="3532" cy="-1683.43" rx="105.89" ry="18"/>
<ellipse fill="none" stroke="black" cx="3532" cy="-1683.43" rx="109.88" ry="22"/>
<ellipse fill="none" stroke="black" cx="3532" cy="-1683.43" rx="113.88" ry="26"/>
<text text-anchor="middle" x="3532" y="-1679.73" font-family="Times,serif" font-size="14.00">equiv_functor_arrow</text>
</a>
</g>
</g>
<!-- Arrow_isequiv_functor_arrow -->
<g id="node4" class="node">
<title>Arrow_isequiv_functor_arrow</title>
<g id="a_node4"><a xlink:href="Arrow.html#isequiv_functor_arrow" xlink:title="isequiv_functor_arrow">
<ellipse fill="#f070d1" stroke="black" cx="3663" cy="-661.43" rx="113.96" ry="18"/>
<ellipse fill="none" stroke="black" cx="3663" cy="-661.43" rx="117.97" ry="22"/>
<ellipse fill="none" stroke="black" cx="3663" cy="-661.43" rx="121.98" ry="26"/>
<text text-anchor="middle" x="3663" y="-657.73" font-family="Times,serif" font-size="14.00">isequiv_functor_arrow</text>
</a>
</g>
</g>
<!-- Arrow_functor_arrow -->
<g id="node11" class="node">
<title>Arrow_functor_arrow</title>
<g id="a_node11"><a xlink:href="Arrow.html#functor_arrow" xlink:title="functor_arrow">
<ellipse fill="#f070d1" stroke="black" cx="3663" cy="-197.43" rx="76.09" ry="18"/>
<text text-anchor="middle" x="3663" y="-193.73" font-family="Times,serif" font-size="14.00">functor_arrow</text>
</a>
</g>
</g>
<!-- Arrow_isequiv_functor_arrow&#45;&gt;Arrow_functor_arrow -->
<g id="edge1" class="edge">
<title>Arrow_isequiv_functor_arrow&#45;&gt;Arrow_functor_arrow</title>
<path fill="none" stroke="black" d="M3663,-635.27C3663,-555.43 3663,-308.29 3663,-225.66"/>
<polygon fill="black" stroke="black" points="3666.5,-225.55 3663,-215.55 3659.5,-225.55 3666.5,-225.55"/>
</g>
<!-- Arrow_equiv_arrow_from_contr -->
<g id="node5" class="node">
<title>Arrow_equiv_arrow_from_contr</title>
<g id="a_node5"><a xlink:href="Arrow.html#equiv_arrow_from_contr" xlink:title="equiv_arrow_from_contr">
<ellipse fill="#f070d1" stroke="black" cx="3269" cy="-1683.43" rx="122.69" ry="18"/>
<ellipse fill="none" stroke="black" cx="3269" cy="-1683.43" rx="126.68" ry="22"/>
<ellipse fill="none" stroke="black" cx="3269" cy="-1683.43" rx="130.68" ry="26"/>
<text text-anchor="middle" x="3269" y="-1679.73" font-family="Times,serif" font-size="14.00">equiv_arrow_from_contr</text>
</a>
</g>
</g>
<!-- Arrow_istrunc_arrow -->
<g id="node6" class="node">
<title>Arrow_istrunc_arrow</title>
<g id="a_node6"><a xlink:href="Arrow.html#istrunc_arrow" xlink:title="istrunc_arrow">
<ellipse fill="#f070d1" stroke="black" cx="3037" cy="-1683.43" rx="75.3" ry="18"/>
<ellipse fill="none" stroke="black" cx="3037" cy="-1683.43" rx="79.29" ry="22"/>
<ellipse fill="none" stroke="black" cx="3037" cy="-1683.43" rx="83.29" ry="26"/>
<text text-anchor="middle" x="3037" y="-1679.73" font-family="Times,serif" font-size="14.00">istrunc_arrow</text>
</a>
</g>
</g>
<!-- Arrow_contr_arrow -->
<g id="node7" class="node">
<title>Arrow_contr_arrow</title>
<g id="a_node7"><a xlink:href="Arrow.html#contr_arrow" xlink:title="contr_arrow">
<ellipse fill="#f070d1" stroke="black" cx="2861" cy="-1683.43" rx="66.89" ry="18"/>
<ellipse fill="none" stroke="black" cx="2861" cy="-1683.43" rx="70.89" ry="22"/>
<ellipse fill="none" stroke="black" cx="2861" cy="-1683.43" rx="74.89" ry="26"/>
<text text-anchor="middle" x="2861" y="-1679.73" font-family="Times,serif" font-size="14.00">contr_arrow</text>
</a>
</g>
</g>
<!-- Arrow_ap_functor_arrow -->
<g id="node8" class="node">
<title>Arrow_ap_functor_arrow</title>
<g id="a_node8"><a xlink:href="Arrow.html#ap_functor_arrow" xlink:title="ap_functor_arrow">
<ellipse fill="#f070d1" stroke="black" cx="3424" cy="-661.43" rx="91.77" ry="18"/>
<ellipse fill="none" stroke="black" cx="3424" cy="-661.43" rx="95.78" ry="22"/>
<ellipse fill="none" stroke="black" cx="3424" cy="-661.43" rx="99.78" ry="26"/>
<text text-anchor="middle" x="3424" y="-657.73" font-family="Times,serif" font-size="14.00">ap_functor_arrow</text>
</a>
</g>
</g>
<!-- Arrow_ap_functor_arrow&#45;&gt;Arrow_functor_arrow -->
<g id="edge2" class="edge">
<title>Arrow_ap_functor_arrow&#45;&gt;Arrow_functor_arrow</title>
<path fill="none" stroke="black" d="M3436.85,-635.59C3478.12,-555.81 3607.1,-306.49 3649.41,-224.71"/>
<polygon fill="black" stroke="black" points="3652.64,-226.08 3654.13,-215.59 3646.42,-222.86 3652.64,-226.08"/>
</g>
<!-- Arrow_path_arrow -->
<g id="node36" class="node">
<title>Arrow_path_arrow</title>
<g id="a_node36"><a xlink:href="Arrow.html#path_arrow" xlink:title="path_arrow">
<ellipse fill="#f070d1" stroke="black" cx="2306" cy="-197.43" rx="63.89" ry="18"/>
<text text-anchor="middle" x="2306" y="-193.73" font-family="Times,serif" font-size="14.00">path_arrow</text>
</a>
</g>
</g>
<!-- Arrow_ap_functor_arrow&#45;&gt;Arrow_path_arrow -->
<g id="edge3" class="edge">
<title>Arrow_ap_functor_arrow&#45;&gt;Arrow_path_arrow</title>
<path fill="none" stroke="black" d="M3372.32,-639.08C3182.55,-560.66 2526.05,-289.37 2349.83,-216.54"/>
<polygon fill="black" stroke="black" points="2350.93,-213.21 2340.35,-212.63 2348.26,-219.68 2350.93,-213.21"/>
</g>
<!-- Arrow_iff_not -->
<g id="node9" class="node">
<title>Arrow_iff_not</title>
<g id="a_node9"><a xlink:href="Arrow.html#iff_not" xlink:title="iff_not">
<ellipse fill="#f070d1" stroke="black" cx="3900" cy="-1172.43" rx="39.77" ry="18"/>
<ellipse fill="none" stroke="black" cx="3900" cy="-1172.43" rx="43.78" ry="22"/>
<ellipse fill="none" stroke="black" cx="3900" cy="-1172.43" rx="47.79" ry="26"/>
<text text-anchor="middle" x="3900" y="-1168.73" font-family="Times,serif" font-size="14.00">iff_not</text>
</a>
</g>
</g>
<!-- Arrow_not_contrapositive -->
<g id="node10" class="node">
<title>Arrow_not_contrapositive</title>
<g id="a_node10"><a xlink:href="Arrow.html#not_contrapositive" xlink:title="not_contrapositive">
<ellipse fill="#f070d1" stroke="black" cx="3900" cy="-661.43" rx="96.68" ry="18"/>
<text text-anchor="middle" x="3900" y="-657.73" font-family="Times,serif" font-size="14.00">not_contrapositive</text>
</a>
</g>
</g>
<!-- Arrow_iff_not&#45;&gt;Arrow_not_contrapositive -->
<g id="edge4" class="edge">
<title>Arrow_iff_not&#45;&gt;Arrow_not_contrapositive</title>
<path fill="none" stroke="black" d="M3900,-1146.19C3900,-1060.12 3900,-778.53 3900,-689.6"/>
<polygon fill="black" stroke="black" points="3903.5,-689.51 3900,-679.51 3896.5,-689.51 3903.5,-689.51"/>
</g>
<!-- Arrow_not_contrapositive&#45;&gt;Arrow_functor_arrow -->
<g id="edge5" class="edge">
<title>Arrow_not_contrapositive&#45;&gt;Arrow_functor_arrow</title>
<path fill="none" stroke="black" d="M3891.28,-643.44C3855.5,-573.69 3719.72,-309.01 3676.38,-224.52"/>
<polygon fill="black" stroke="black" points="3679.47,-222.88 3671.8,-215.58 3673.25,-226.07 3679.47,-222.88"/>
</g>
<!-- Arrow_ap_lambda -->
<g id="node12" class="node">
<title>Arrow_ap_lambda</title>
<g id="a_node12"><a xlink:href="Arrow.html#ap_lambda" xlink:title="ap_lambda">
<ellipse fill="#f070d1" stroke="black" cx="1713" cy="-1683.43" rx="60.4" ry="18"/>
<ellipse fill="none" stroke="black" cx="1713" cy="-1683.43" rx="64.39" ry="22"/>
<ellipse fill="none" stroke="black" cx="1713" cy="-1683.43" rx="68.39" ry="26"/>
<text text-anchor="middle" x="1713" y="-1679.73" font-family="Times,serif" font-size="14.00">ap_lambda</text>
</a>
</g>
</g>
<!-- Arrow_path_arrow_1 -->
<g id="node31" class="node">
<title>Arrow_path_arrow_1</title>
<g id="a_node31"><a xlink:href="Arrow.html#path_arrow_1" xlink:title="path_arrow_1">
<ellipse fill="#f070d1" stroke="black" cx="1726" cy="-1172.43" rx="73.39" ry="18"/>
<text text-anchor="middle" x="1726" y="-1168.73" font-family="Times,serif" font-size="14.00">path_arrow_1</text>
</a>
</g>
</g>
<!-- Arrow_ap_lambda&#45;&gt;Arrow_path_arrow_1 -->
<g id="edge6" class="edge">
<title>Arrow_ap_lambda&#45;&gt;Arrow_path_arrow_1</title>
<path fill="none" stroke="black" d="M1713.64,-1657.19C1715.84,-1571.12 1723.03,-1289.53 1725.31,-1200.6"/>
<polygon fill="black" stroke="black" points="1728.81,-1200.6 1725.56,-1190.51 1721.81,-1200.42 1728.81,-1200.6"/>
</g>
<!-- Arrow_ap_apply_FlFr -->
<g id="node13" class="node">
<title>Arrow_ap_apply_FlFr</title>
<g id="a_node13"><a xlink:href="Arrow.html#ap_apply_FlFr" xlink:title="ap_apply_FlFr">
<ellipse fill="#f070d1" stroke="black" cx="2370" cy="-1683.43" rx="76.08" ry="18"/>
<ellipse fill="none" stroke="black" cx="2370" cy="-1683.43" rx="80.08" ry="22"/>
<ellipse fill="none" stroke="black" cx="2370" cy="-1683.43" rx="84.09" ry="26"/>
<text text-anchor="middle" x="2370" y="-1679.73" font-family="Times,serif" font-size="14.00">ap_apply_FlFr</text>
</a>
</g>
</g>
<!-- Arrow_ap_apply_Fr -->
<g id="node14" class="node">
<title>Arrow_ap_apply_Fr</title>
<g id="a_node14"><a xlink:href="Arrow.html#ap_apply_Fr" xlink:title="ap_apply_Fr">
<ellipse fill="#f070d1" stroke="black" cx="2193" cy="-1683.43" rx="66.89" ry="18"/>
<ellipse fill="none" stroke="black" cx="2193" cy="-1683.43" rx="70.89" ry="22"/>
<ellipse fill="none" stroke="black" cx="2193" cy="-1683.43" rx="74.89" ry="26"/>
<text text-anchor="middle" x="2193" y="-1679.73" font-family="Times,serif" font-size="14.00">ap_apply_Fr</text>
</a>
</g>
</g>
<!-- Arrow_ap_apply_Fl -->
<g id="node15" class="node">
<title>Arrow_ap_apply_Fl</title>
<g id="a_node15"><a xlink:href="Arrow.html#ap_apply_Fl" xlink:title="ap_apply_Fl">
<ellipse fill="#f070d1" stroke="black" cx="2026" cy="-1683.43" rx="65.77" ry="18"/>
<ellipse fill="none" stroke="black" cx="2026" cy="-1683.43" rx="69.78" ry="22"/>
<ellipse fill="none" stroke="black" cx="2026" cy="-1683.43" rx="73.79" ry="26"/>
<text text-anchor="middle" x="2026" y="-1679.73" font-family="Times,serif" font-size="14.00">ap_apply_Fl</text>
</a>
</g>
</g>
<!-- Arrow_ap_apply_l -->
<g id="node16" class="node">
<title>Arrow_ap_apply_l</title>
<g id="a_node16"><a xlink:href="Arrow.html#ap_apply_l" xlink:title="ap_apply_l">
<ellipse fill="#f070d1" stroke="black" cx="1867" cy="-1683.43" rx="59.27" ry="18"/>
<ellipse fill="none" stroke="black" cx="1867" cy="-1683.43" rx="63.28" ry="22"/>
<ellipse fill="none" stroke="black" cx="1867" cy="-1683.43" rx="67.29" ry="26"/>
<text text-anchor="middle" x="1867" y="-1679.73" font-family="Times,serif" font-size="14.00">ap_apply_l</text>
</a>
</g>
</g>
<!-- Arrow_ap10_dpath_arrow -->
<g id="node17" class="node">
<title>Arrow_ap10_dpath_arrow</title>
<g id="a_node17"><a xlink:href="Arrow.html#ap10_dpath_arrow" xlink:title="ap10_dpath_arrow">
<ellipse fill="#f070d1" stroke="black" cx="3157" cy="-1172.43" rx="96.7" ry="18"/>
<ellipse fill="none" stroke="black" cx="3157" cy="-1172.43" rx="100.69" ry="22"/>
<ellipse fill="none" stroke="black" cx="3157" cy="-1172.43" rx="104.68" ry="26"/>
<text text-anchor="middle" x="3157" y="-1168.73" font-family="Times,serif" font-size="14.00">ap10_dpath_arrow</text>
</a>
</g>
</g>
<!-- Arrow_dpath_arrow -->
<g id="node18" class="node">
<title>Arrow_dpath_arrow</title>
<g id="a_node18"><a xlink:href="Arrow.html#dpath_arrow" xlink:title="dpath_arrow">
<ellipse fill="#f070d1" stroke="black" cx="3046" cy="-661.43" rx="69.59" ry="18"/>
<text text-anchor="middle" x="3046" y="-657.73" font-family="Times,serif" font-size="14.00">dpath_arrow</text>
</a>
</g>
</g>
<!-- Arrow_ap10_dpath_arrow&#45;&gt;Arrow_dpath_arrow -->
<g id="edge7" class="edge">
<title>Arrow_ap10_dpath_arrow&#45;&gt;Arrow_dpath_arrow</title>
<path fill="none" stroke="black" d="M3151.5,-1146.19C3132.71,-1060.03 3071.19,-777.96 3051.87,-689.33"/>
<polygon fill="black" stroke="black" points="3055.27,-688.53 3049.72,-679.51 3048.43,-690.03 3055.27,-688.53"/>
</g>
<!-- Arrow_transport_arrow -->
<g id="node24" class="node">
<title>Arrow_transport_arrow</title>
<g id="a_node24"><a xlink:href="Arrow.html#transport_arrow" xlink:title="transport_arrow">
<ellipse fill="#f070d1" stroke="black" cx="3220" cy="-661.43" rx="86.38" ry="18"/>
<text text-anchor="middle" x="3220" y="-657.73" font-family="Times,serif" font-size="14.00">transport_arrow</text>
</a>
</g>
</g>
<!-- Arrow_ap10_dpath_arrow&#45;&gt;Arrow_transport_arrow -->
<g id="edge8" class="edge">
<title>Arrow_ap10_dpath_arrow&#45;&gt;Arrow_transport_arrow</title>
<path fill="none" stroke="black" d="M3160.12,-1146.19C3170.78,-1060.12 3205.63,-778.53 3216.64,-689.6"/>
<polygon fill="black" stroke="black" points="3220.13,-689.86 3217.89,-679.51 3213.18,-689 3220.13,-689.86"/>
</g>
<!-- Arrow_equiv_path_arrow -->
<g id="node28" class="node">
<title>Arrow_equiv_path_arrow</title>
<g id="a_node28"><a xlink:href="Arrow.html#equiv_path_arrow" xlink:title="equiv_path_arrow">
<ellipse fill="#f070d1" stroke="black" cx="2953" cy="-197.43" rx="92.88" ry="18"/>
<text text-anchor="middle" x="2953" y="-193.73" font-family="Times,serif" font-size="14.00">equiv_path_arrow</text>
</a>
</g>
</g>
<!-- Arrow_dpath_arrow&#45;&gt;Arrow_equiv_path_arrow -->
<g id="edge9" class="edge">
<title>Arrow_dpath_arrow&#45;&gt;Arrow_equiv_path_arrow</title>
<path fill="none" stroke="black" d="M3042.58,-643.44C3028.6,-573.97 2975.69,-311.16 2958.46,-225.56"/>
<polygon fill="black" stroke="black" points="2961.86,-224.69 2956.45,-215.58 2954.99,-226.07 2961.86,-224.69"/>
</g>
<!-- Arrow_ap_transport_arrow_toconst -->
<g id="node19" class="node">
<title>Arrow_ap_transport_arrow_toconst</title>
<g id="a_node19"><a xlink:href="Arrow.html#ap_transport_arrow_toconst" xlink:title="ap_transport_arrow_toconst">
<ellipse fill="#f070d1" stroke="black" cx="2620" cy="-1683.43" rx="140.28" ry="18"/>
<ellipse fill="none" stroke="black" cx="2620" cy="-1683.43" rx="144.28" ry="22"/>
<ellipse fill="none" stroke="black" cx="2620" cy="-1683.43" rx="148.28" ry="26"/>
<text text-anchor="middle" x="2620" y="-1679.73" font-family="Times,serif" font-size="14.00">ap_transport_arrow_toconst</text>
</a>
</g>
</g>
<!-- Arrow_transport_arrow_toconst -->
<g id="node22" class="node">
<title>Arrow_transport_arrow_toconst</title>
<g id="a_node22"><a xlink:href="Arrow.html#transport_arrow_toconst" xlink:title="transport_arrow_toconst">
<ellipse fill="#f070d1" stroke="black" cx="2607" cy="-1172.43" rx="124.58" ry="18"/>
<text text-anchor="middle" x="2607" y="-1168.73" font-family="Times,serif" font-size="14.00">transport_arrow_toconst</text>
</a>
</g>
</g>
<!-- Arrow_ap_transport_arrow_toconst&#45;&gt;Arrow_transport_arrow_toconst -->
<g id="edge10" class="edge">
<title>Arrow_ap_transport_arrow_toconst&#45;&gt;Arrow_transport_arrow_toconst</title>
<path fill="none" stroke="black" d="M2619.36,-1657.19C2617.16,-1571.12 2609.97,-1289.53 2607.69,-1200.6"/>
<polygon fill="black" stroke="black" points="2611.19,-1200.42 2607.44,-1190.51 2604.19,-1200.6 2611.19,-1200.42"/>
</g>
<!-- Arrow_transport_arrow_fromconst -->
<g id="node20" class="node">
<title>Arrow_transport_arrow_fromconst</title>
<g id="a_node20"><a xlink:href="Arrow.html#transport_arrow_fromconst" xlink:title="transport_arrow_fromconst">
<ellipse fill="#f070d1" stroke="black" cx="1481" cy="-1683.43" rx="137.59" ry="18"/>
<ellipse fill="none" stroke="black" cx="1481" cy="-1683.43" rx="141.58" ry="22"/>
<ellipse fill="none" stroke="black" cx="1481" cy="-1683.43" rx="145.58" ry="26"/>
<text text-anchor="middle" x="1481" y="-1679.73" font-family="Times,serif" font-size="14.00">transport_arrow_fromconst</text>
</a>
</g>
</g>
<!-- Arrow_transport_arrow_toconst_ -->
<g id="node21" class="node">
<title>Arrow_transport_arrow_toconst_</title>
<g id="a_node21"><a xlink:href="Arrow.html#transport_arrow_toconst'" xlink:title="transport_arrow_toconst&#39;">
<ellipse fill="#f070d1" stroke="black" cx="1182" cy="-1683.43" rx="127.28" ry="18"/>
<ellipse fill="none" stroke="black" cx="1182" cy="-1683.43" rx="131.28" ry="22"/>
<ellipse fill="none" stroke="black" cx="1182" cy="-1683.43" rx="135.28" ry="26"/>
<text text-anchor="middle" x="1182" y="-1679.73" font-family="Times,serif" font-size="14.00">transport_arrow_toconst&#39;</text>
</a>
</g>
</g>
<!-- Arrow_transport_arrow_ -->
<g id="node23" class="node">
<title>Arrow_transport_arrow_</title>
<g id="a_node23"><a xlink:href="Arrow.html#transport_arrow'" xlink:title="transport_arrow&#39;">
<ellipse fill="#f070d1" stroke="black" cx="932" cy="-1683.43" rx="89.08" ry="18"/>
<ellipse fill="none" stroke="black" cx="932" cy="-1683.43" rx="93.08" ry="22"/>
<ellipse fill="none" stroke="black" cx="932" cy="-1683.43" rx="97.08" ry="26"/>
<text text-anchor="middle" x="932" y="-1679.73" font-family="Times,serif" font-size="14.00">transport_arrow&#39;</text>
</a>
</g>
</g>
<!-- Arrow_path_arrow_pp -->
<g id="node25" class="node">
<title>Arrow_path_arrow_pp</title>
<g id="a_node25"><a xlink:href="Arrow.html#path_arrow_pp" xlink:title="path_arrow_pp">
<ellipse fill="#f070d1" stroke="black" cx="2204" cy="-661.43" rx="79.11" ry="18"/>
<ellipse fill="none" stroke="black" cx="2204" cy="-661.43" rx="83.1" ry="22"/>
<ellipse fill="none" stroke="black" cx="2204" cy="-661.43" rx="87.09" ry="26"/>
<text text-anchor="middle" x="2204" y="-657.73" font-family="Times,serif" font-size="14.00">path_arrow_pp</text>
</a>
</g>
</g>
<!-- Arrow_path_arrow_pp&#45;&gt;Arrow_path_arrow -->
<g id="edge11" class="edge">
<title>Arrow_path_arrow_pp&#45;&gt;Arrow_path_arrow</title>
<path fill="none" stroke="black" d="M2209.56,-635.27C2227.2,-555.35 2281.86,-307.78 2300.05,-225.4"/>
<polygon fill="black" stroke="black" points="2303.48,-226.07 2302.22,-215.55 2296.65,-224.56 2303.48,-226.07"/>
</g>
<!-- Arrow_ap100_path_arrow2 -->
<g id="node26" class="node">
<title>Arrow_ap100_path_arrow2</title>
<g id="a_node26"><a xlink:href="Arrow.html#ap100_path_arrow2" xlink:title="ap100_path_arrow2">
<ellipse fill="#f070d1" stroke="black" cx="2860" cy="-1172.43" rx="102.87" ry="18"/>
<ellipse fill="none" stroke="black" cx="2860" cy="-1172.43" rx="106.88" ry="22"/>
<ellipse fill="none" stroke="black" cx="2860" cy="-1172.43" rx="110.88" ry="26"/>
<text text-anchor="middle" x="2860" y="-1168.73" font-family="Times,serif" font-size="14.00">ap100_path_arrow2</text>
</a>
</g>
</g>
<!-- Arrow_equiv_path_arrow2 -->
<g id="node27" class="node">
<title>Arrow_equiv_path_arrow2</title>
<g id="a_node27"><a xlink:href="Arrow.html#equiv_path_arrow2" xlink:title="equiv_path_arrow2">
<ellipse fill="#f070d1" stroke="black" cx="2860" cy="-661.43" rx="98.58" ry="18"/>
<text text-anchor="middle" x="2860" y="-657.73" font-family="Times,serif" font-size="14.00">equiv_path_arrow2</text>
</a>
</g>
</g>
<!-- Arrow_ap100_path_arrow2&#45;&gt;Arrow_equiv_path_arrow2 -->
<g id="edge12" class="edge">
<title>Arrow_ap100_path_arrow2&#45;&gt;Arrow_equiv_path_arrow2</title>
<path fill="none" stroke="black" d="M2860,-1146.19C2860,-1060.12 2860,-778.53 2860,-689.6"/>
<polygon fill="black" stroke="black" points="2863.5,-689.51 2860,-679.51 2856.5,-689.51 2863.5,-689.51"/>
</g>
<!-- Arrow_apD10_path_arrow -->
<g id="node34" class="node">
<title>Arrow_apD10_path_arrow</title>
<g id="a_node34"><a xlink:href="Arrow.html#apD10_path_arrow" xlink:title="apD10_path_arrow">
<ellipse fill="#f070d1" stroke="black" cx="2001" cy="-661.43" rx="98.28" ry="18"/>
<text text-anchor="middle" x="2001" y="-657.73" font-family="Times,serif" font-size="14.00">apD10_path_arrow</text>
</a>
</g>
</g>
<!-- Arrow_ap100_path_arrow2&#45;&gt;Arrow_apD10_path_arrow -->
<g id="edge13" class="edge">
<title>Arrow_ap100_path_arrow2&#45;&gt;Arrow_apD10_path_arrow</title>
<path fill="none" stroke="black" d="M2820.58,-1148.07C2676.15,-1062.49 2177.16,-766.82 2037.55,-684.09"/>
<polygon fill="black" stroke="black" points="2039.27,-681.04 2028.88,-678.96 2035.7,-687.06 2039.27,-681.04"/>
</g>
<!-- Arrow_equiv_path_arrow2&#45;&gt;Arrow_equiv_path_arrow -->
<g id="edge14" class="edge">
<title>Arrow_equiv_path_arrow2&#45;&gt;Arrow_equiv_path_arrow</title>
<path fill="none" stroke="black" d="M2863.42,-643.44C2877.4,-573.97 2930.31,-311.16 2947.54,-225.56"/>
<polygon fill="black" stroke="black" points="2951.01,-226.07 2949.55,-215.58 2944.14,-224.69 2951.01,-226.07"/>
</g>
<!-- Arrow_isequiv_path_arrow -->
<g id="node29" class="node">
<title>Arrow_isequiv_path_arrow</title>
<g id="a_node29"><a xlink:href="Arrow.html#isequiv_path_arrow" xlink:title="isequiv_path_arrow">
<ellipse fill="#f070d1" stroke="black" cx="2634" cy="-661.43" rx="100.96" ry="18"/>
<ellipse fill="none" stroke="black" cx="2634" cy="-661.43" rx="104.97" ry="22"/>
<ellipse fill="none" stroke="black" cx="2634" cy="-661.43" rx="108.98" ry="26"/>
<text text-anchor="middle" x="2634" y="-657.73" font-family="Times,serif" font-size="14.00">isequiv_path_arrow</text>
</a>
</g>
</g>
<!-- Arrow_isequiv_path_arrow&#45;&gt;Arrow_path_arrow -->
<g id="edge15" class="edge">
<title>Arrow_isequiv_path_arrow&#45;&gt;Arrow_path_arrow</title>
<path fill="none" stroke="black" d="M2616.37,-635.59C2559.61,-555.65 2382,-305.48 2324.3,-224.21"/>
<polygon fill="black" stroke="black" points="2326.82,-221.72 2318.18,-215.59 2321.11,-225.77 2326.82,-221.72"/>
</g>
<!-- Arrow_equiv_ap10 -->
<g id="node30" class="node">
<title>Arrow_equiv_ap10</title>
<g id="a_node30"><a xlink:href="Arrow.html#equiv_ap10" xlink:title="equiv_ap10">
<ellipse fill="#f070d1" stroke="black" cx="745" cy="-1683.43" rx="63.87" ry="18"/>
<ellipse fill="none" stroke="black" cx="745" cy="-1683.43" rx="67.88" ry="22"/>
<ellipse fill="none" stroke="black" cx="745" cy="-1683.43" rx="71.89" ry="26"/>
<text text-anchor="middle" x="745" y="-1679.73" font-family="Times,serif" font-size="14.00">equiv_ap10</text>
</a>
</g>
</g>
<!-- Arrow_eta_path_arrow -->
<g id="node32" class="node">
<title>Arrow_eta_path_arrow</title>
<g id="a_node32"><a xlink:href="Arrow.html#eta_path_arrow" xlink:title="eta_path_arrow">
<ellipse fill="#f070d1" stroke="black" cx="1751" cy="-661.43" rx="82.59" ry="18"/>
<text text-anchor="middle" x="1751" y="-657.73" font-family="Times,serif" font-size="14.00">eta_path_arrow</text>
</a>
</g>
</g>
<!-- Arrow_path_arrow_1&#45;&gt;Arrow_eta_path_arrow -->
<g id="edge16" class="edge">
<title>Arrow_path_arrow_1&#45;&gt;Arrow_eta_path_arrow</title>
<path fill="none" stroke="black" d="M1726.85,-1154.21C1730.52,-1079.36 1745.12,-782.07 1749.65,-689.86"/>
<polygon fill="black" stroke="black" points="1753.16,-689.82 1750.15,-679.66 1746.17,-689.47 1753.16,-689.82"/>
</g>
<!-- Arrow_eta_path_arrow&#45;&gt;Arrow_path_arrow -->
<g id="edge17" class="edge">
<title>Arrow_eta_path_arrow&#45;&gt;Arrow_path_arrow</title>
<path fill="none" stroke="black" d="M1771.08,-643.72C1855.49,-573.45 2181.64,-301.95 2278.64,-221.21"/>
<polygon fill="black" stroke="black" points="2281.08,-223.73 2286.53,-214.65 2276.6,-218.35 2281.08,-223.73"/>
</g>
<!-- Arrow_ap10_path_forall -->
<g id="node33" class="node">
<title>Arrow_ap10_path_forall</title>
<g id="a_node33"><a xlink:href="Arrow.html#ap10_path_forall" xlink:title="ap10_path_forall">
<ellipse fill="#f070d1" stroke="black" cx="560" cy="-1683.43" rx="87.96" ry="18"/>
<ellipse fill="none" stroke="black" cx="560" cy="-1683.43" rx="91.97" ry="22"/>
<ellipse fill="none" stroke="black" cx="560" cy="-1683.43" rx="95.99" ry="26"/>
<text text-anchor="middle" x="560" y="-1679.73" font-family="Times,serif" font-size="14.00">ap10_path_forall</text>
</a>
</g>
</g>
<!-- Arrow_apD10_path_arrow&#45;&gt;Arrow_path_arrow -->
<g id="edge18" class="edge">
<title>Arrow_apD10_path_arrow&#45;&gt;Arrow_path_arrow</title>
<path fill="none" stroke="black" d="M2012.22,-643.44C2058.36,-573.55 2233.71,-307.94 2289.11,-224.01"/>
<polygon fill="black" stroke="black" points="2292.09,-225.85 2294.68,-215.58 2286.25,-222 2292.09,-225.85"/>
</g>
<!-- Arrow_ap10_path_arrow -->
<g id="node35" class="node">
<title>Arrow_ap10_path_arrow</title>
<g id="a_node35"><a xlink:href="Arrow.html#ap10_path_arrow" xlink:title="ap10_path_arrow">
<ellipse fill="#f070d1" stroke="black" cx="2408" cy="-661.43" rx="90.98" ry="18"/>
<ellipse fill="none" stroke="black" cx="2408" cy="-661.43" rx="94.98" ry="22"/>
<ellipse fill="none" stroke="black" cx="2408" cy="-661.43" rx="98.98" ry="26"/>
<text text-anchor="middle" x="2408" y="-657.73" font-family="Times,serif" font-size="14.00">ap10_path_arrow</text>
</a>
</g>
</g>
<!-- Arrow_ap10_path_arrow&#45;&gt;Arrow_path_arrow -->
<g id="edge19" class="edge">
<title>Arrow_ap10_path_arrow&#45;&gt;Arrow_path_arrow</title>
<path fill="none" stroke="black" d="M2402.44,-635.27C2384.8,-555.35 2330.14,-307.78 2311.95,-225.4"/>
<polygon fill="black" stroke="black" points="2315.35,-224.56 2309.78,-215.55 2308.52,-226.07 2315.35,-224.56"/>
</g>
<!-- Arrow_IsTransitive_arrow -->
<g id="node37" class="node">
<title>Arrow_IsTransitive_arrow</title>
<g id="a_node37"><a xlink:href="Arrow.html#IsTransitive_arrow" xlink:title="IsTransitive_arrow">
<ellipse fill="#f070d1" stroke="black" cx="121" cy="-1683.43" rx="97.48" ry="18"/>
<ellipse fill="none" stroke="black" cx="121" cy="-1683.43" rx="101.48" ry="22"/>
<ellipse fill="none" stroke="black" cx="121" cy="-1683.43" rx="105.48" ry="26"/>
<text text-anchor="middle" x="121" y="-1679.73" font-family="Times,serif" font-size="14.00">IsTransitive_arrow</text>
</a>
</g>
</g>
<!-- Arrow_arrow -->
<g id="node39" class="node">
<title>Arrow_arrow</title>
<g id="a_node39"><a xlink:href="Arrow.html#arrow" xlink:title="arrow">
<ellipse fill="#f070d1" stroke="black" cx="233" cy="-1172.43" rx="38.19" ry="18"/>
<text text-anchor="middle" x="233" y="-1168.73" font-family="Times,serif" font-size="14.00">arrow</text>
</a>
</g>
</g>
<!-- Arrow_IsTransitive_arrow&#45;&gt;Arrow_arrow -->
<g id="edge20" class="edge">
<title>Arrow_IsTransitive_arrow&#45;&gt;Arrow_arrow</title>
<path fill="none" stroke="black" d="M126.55,-1657.19C145.51,-1571.03 207.58,-1288.96 227.08,-1200.33"/>
<polygon fill="black" stroke="black" points="230.51,-1201.03 229.24,-1190.51 223.68,-1199.52 230.51,-1201.03"/>
</g>
<!-- Arrow_IsReflexive_arrow -->
<g id="node38" class="node">
<title>Arrow_IsReflexive_arrow</title>
<g id="a_node38"><a xlink:href="Arrow.html#IsReflexive_arrow" xlink:title="IsReflexive_arrow">
<ellipse fill="#f070d1" stroke="black" cx="345" cy="-1683.43" rx="92.89" ry="18"/>
<ellipse fill="none" stroke="black" cx="345" cy="-1683.43" rx="96.89" ry="22"/>
<ellipse fill="none" stroke="black" cx="345" cy="-1683.43" rx="100.88" ry="26"/>
<text text-anchor="middle" x="345" y="-1679.73" font-family="Times,serif" font-size="14.00">IsReflexive_arrow</text>
</a>
</g>
</g>
<!-- Arrow_IsReflexive_arrow&#45;&gt;Arrow_arrow -->
<g id="edge21" class="edge">
<title>Arrow_IsReflexive_arrow&#45;&gt;Arrow_arrow</title>
<path fill="none" stroke="black" d="M339.45,-1657.19C320.49,-1571.03 258.42,-1288.96 238.92,-1200.33"/>
<polygon fill="black" stroke="black" points="242.32,-1199.52 236.76,-1190.51 235.49,-1201.03 242.32,-1199.52"/>
</g>
</g>
</svg>
