<?xml version="1.0" encoding="UTF-8" standalone="no"?>
<!DOCTYPE svg PUBLIC "-//W3C//DTD SVG 1.1//EN"
 "http://www.w3.org/Graphics/SVG/1.1/DTD/svg11.dtd">
<!-- Generated by graphviz version 2.43.0 (0)
 -->
<!-- Title: HoTT_Misc_CompactTypes Pages: 1 -->
<svg width="4415pt" height="2212pt"
 viewBox="0.00 0.00 4415.00 2211.50" xmlns="http://www.w3.org/2000/svg" xmlns:xlink="http://www.w3.org/1999/xlink">
<g id="graph0" class="graph" transform="scale(1 1) rotate(0) translate(4 2207.5)">
<title>HoTT_Misc_CompactTypes</title>
<polygon fill="white" stroke="transparent" points="-4,4 -4,-2207.5 4411,-2207.5 4411,4 -4,4"/>
<g id="clust1" class="cluster">
<title>cluster_CompactTypes</title>
<polygon fill="#ffffc3" stroke="black" points="8,-34.23 8,-2169.27 4399,-2169.27 4399,-34.23 8,-34.23"/>
<text text-anchor="middle" x="69" y="-2154.07" font-family="Times,serif" font-size="14.00">CompactTypes</text>
</g>
<!-- CompactTypes_has_uniformly_searchable_seq_issearchable -->
<g id="node1" class="node">
<title>CompactTypes_has_uniformly_searchable_seq_issearchable</title>
<g id="a_node1"><a xlink:href="CompactTypes.html#has_uniformly_searchable_seq_issearchable" xlink:title="has_uniformly_searchable_seq_issearchable">
<ellipse fill="#f070d1" stroke="black" cx="3508" cy="-1925.23" rx="213.67" ry="18"/>
<ellipse fill="none" stroke="black" cx="3508" cy="-1925.23" rx="217.67" ry="22"/>
<ellipse fill="none" stroke="black" cx="3508" cy="-1925.23" rx="221.66" ry="26"/>
<text text-anchor="middle" x="3508" y="-1921.53" font-family="Times,serif" font-size="14.00">has_uniformly_searchable_seq_issearchable</text>
</a>
</g>
</g>
<!-- CompactTypes_uniformsearch_witness_spec -->
<g id="node2" class="node">
<title>CompactTypes_uniformsearch_witness_spec</title>
<g id="a_node2"><a xlink:href="CompactTypes.html#uniformsearch_witness_spec" xlink:title="uniformsearch_witness_spec">
<ellipse fill="#f070d1" stroke="black" cx="3372" cy="-1583.23" rx="143.77" ry="18"/>
<text text-anchor="middle" x="3372" y="-1579.53" font-family="Times,serif" font-size="14.00">uniformsearch_witness_spec</text>
</a>
</g>
</g>
<!-- CompactTypes_has_uniformly_searchable_seq_issearchable&#45;&gt;CompactTypes_uniformsearch_witness_spec -->
<g id="edge1" class="edge">
<title>CompactTypes_has_uniformly_searchable_seq_issearchable&#45;&gt;CompactTypes_uniformsearch_witness_spec</title>
<path fill="none" stroke="black" d="M3498,-1899.23C3473.08,-1836.92 3408.37,-1675.16 3382.71,-1611.01"/>
<polygon fill="black" stroke="black" points="3385.91,-1609.57 3378.94,-1601.58 3379.41,-1612.17 3385.91,-1609.57"/>
</g>
<!-- CompactTypes_uniformly_searchable -->
<g id="node5" class="node">
<title>CompactTypes_uniformly_searchable</title>
<g id="a_node5"><a xlink:href="CompactTypes.html#uniformly_searchable" xlink:title="uniformly_searchable">
<ellipse fill="#f070d1" stroke="black" cx="3644" cy="-1583.23" rx="110.48" ry="18"/>
<text text-anchor="middle" x="3644" y="-1579.53" font-family="Times,serif" font-size="14.00">uniformly_searchable</text>
</a>
</g>
</g>
<!-- CompactTypes_has_uniformly_searchable_seq_issearchable&#45;&gt;CompactTypes_uniformly_searchable -->
<g id="edge2" class="edge">
<title>CompactTypes_has_uniformly_searchable_seq_issearchable&#45;&gt;CompactTypes_uniformly_searchable</title>
<path fill="none" stroke="black" d="M3518,-1899.23C3542.92,-1836.92 3607.63,-1675.16 3633.29,-1611.01"/>
<polygon fill="black" stroke="black" points="3636.59,-1612.17 3637.06,-1601.58 3630.09,-1609.57 3636.59,-1612.17"/>
</g>
<!-- CompactTypes_pred_uniformsearch_witness -->
<g id="node3" class="node">
<title>CompactTypes_pred_uniformsearch_witness</title>
<g id="a_node3"><a xlink:href="CompactTypes.html#pred_uniformsearch_witness" xlink:title="pred_uniformsearch_witness">
<ellipse fill="#f070d1" stroke="black" cx="3372" cy="-1241.23" rx="143.77" ry="18"/>
<text text-anchor="middle" x="3372" y="-1237.53" font-family="Times,serif" font-size="14.00">pred_uniformsearch_witness</text>
</a>
</g>
</g>
<!-- CompactTypes_uniformsearch_witness_spec&#45;&gt;CompactTypes_pred_uniformsearch_witness -->
<g id="edge3" class="edge">
<title>CompactTypes_uniformsearch_witness_spec&#45;&gt;CompactTypes_pred_uniformsearch_witness</title>
<path fill="none" stroke="black" d="M3372,-1564.9C3372,-1509.65 3372,-1337.34 3372,-1269.79"/>
<polygon fill="black" stroke="black" points="3375.5,-1269.52 3372,-1259.52 3368.5,-1269.52 3375.5,-1269.52"/>
</g>
<!-- CompactTypes_uniformsearch_witness -->
<g id="node4" class="node">
<title>CompactTypes_uniformsearch_witness</title>
<g id="a_node4"><a xlink:href="CompactTypes.html#uniformsearch_witness" xlink:title="uniformsearch_witness">
<ellipse fill="#f070d1" stroke="black" cx="3372" cy="-864.23" rx="118.08" ry="18"/>
<text text-anchor="middle" x="3372" y="-860.53" font-family="Times,serif" font-size="14.00">uniformsearch_witness</text>
</a>
</g>
</g>
<!-- CompactTypes_pred_uniformsearch_witness&#45;&gt;CompactTypes_uniformsearch_witness -->
<g id="edge4" class="edge">
<title>CompactTypes_pred_uniformsearch_witness&#45;&gt;CompactTypes_uniformsearch_witness</title>
<path fill="none" stroke="black" d="M3372,-1223.14C3372,-1163.72 3372,-965.74 3372,-892.65"/>
<polygon fill="black" stroke="black" points="3375.5,-892.42 3372,-882.42 3368.5,-892.42 3375.5,-892.42"/>
</g>
<!-- CompactTypes_inhabited_issearchable -->
<g id="node18" class="node">
<title>CompactTypes_inhabited_issearchable</title>
<g id="a_node18"><a xlink:href="CompactTypes.html#inhabited_issearchable" xlink:title="inhabited_issearchable">
<ellipse fill="#f070d1" stroke="black" cx="3628" cy="-488.23" rx="116.98" ry="18"/>
<text text-anchor="middle" x="3628" y="-484.53" font-family="Times,serif" font-size="14.00">inhabited_issearchable</text>
</a>
</g>
</g>
<!-- CompactTypes_uniformsearch_witness&#45;&gt;CompactTypes_inhabited_issearchable -->
<g id="edge5" class="edge">
<title>CompactTypes_uniformsearch_witness&#45;&gt;CompactTypes_inhabited_issearchable</title>
<path fill="none" stroke="black" d="M3383.67,-846.19C3424.56,-786.44 3561.61,-586.22 3610.49,-514.81"/>
<polygon fill="black" stroke="black" points="3613.51,-516.6 3616.27,-506.37 3607.73,-512.65 3613.51,-516.6"/>
</g>
<!-- CompactTypes_iscompact_image -->
<g id="node6" class="node">
<title>CompactTypes_iscompact_image</title>
<g id="a_node6"><a xlink:href="CompactTypes.html#iscompact_image" xlink:title="iscompact_image">
<ellipse fill="#f070d1" stroke="black" cx="2998" cy="-1241.23" rx="90.2" ry="18"/>
<ellipse fill="none" stroke="black" cx="2998" cy="-1241.23" rx="94.19" ry="22"/>
<ellipse fill="none" stroke="black" cx="2998" cy="-1241.23" rx="98.18" ry="26"/>
<text text-anchor="middle" x="2998" y="-1237.53" font-family="Times,serif" font-size="14.00">iscompact_image</text>
</a>
</g>
</g>
<!-- CompactTypes_issearchable_image -->
<g id="node9" class="node">
<title>CompactTypes_issearchable_image</title>
<g id="a_node9"><a xlink:href="CompactTypes.html#issearchable_image" xlink:title="issearchable_image">
<ellipse fill="#f070d1" stroke="black" cx="4263" cy="-864.23" rx="101.28" ry="18"/>
<text text-anchor="middle" x="4263" y="-860.53" font-family="Times,serif" font-size="14.00">issearchable_image</text>
</a>
</g>
</g>
<!-- CompactTypes_iscompact_image&#45;&gt;CompactTypes_issearchable_image -->
<g id="edge6" class="edge">
<title>CompactTypes_iscompact_image&#45;&gt;CompactTypes_issearchable_image</title>
<path fill="none" stroke="black" d="M3061.6,-1221.38C3279.22,-1156.86 3992.25,-945.49 4203.51,-882.87"/>
<polygon fill="black" stroke="black" points="4204.59,-886.19 4213.18,-880 4202.6,-879.48 4204.59,-886.19"/>
</g>
<!-- CompactTypes_iscompact_iff_not_or_issearchable -->
<g id="node12" class="node">
<title>CompactTypes_iscompact_iff_not_or_issearchable</title>
<g id="a_node12"><a xlink:href="CompactTypes.html#iscompact_iff_not_or_issearchable" xlink:title="iscompact_iff_not_or_issearchable">
<ellipse fill="#f070d1" stroke="black" cx="2885" cy="-864.23" rx="167.07" ry="18"/>
<text text-anchor="middle" x="2885" y="-860.53" font-family="Times,serif" font-size="14.00">iscompact_iff_not_or_issearchable</text>
</a>
</g>
</g>
<!-- CompactTypes_iscompact_image&#45;&gt;CompactTypes_iscompact_iff_not_or_issearchable -->
<g id="edge7" class="edge">
<title>CompactTypes_iscompact_image&#45;&gt;CompactTypes_iscompact_iff_not_or_issearchable</title>
<path fill="none" stroke="black" d="M2990.41,-1215.04C2970.03,-1147.41 2914.23,-962.23 2893.18,-892.38"/>
<polygon fill="black" stroke="black" points="2896.46,-891.13 2890.22,-882.57 2889.76,-893.15 2896.46,-891.13"/>
</g>
<!-- CompactTypes_issearchable_suspension -->
<g id="node7" class="node">
<title>CompactTypes_issearchable_suspension</title>
<g id="a_node7"><a xlink:href="CompactTypes.html#issearchable_suspension" xlink:title="issearchable_suspension">
<ellipse fill="#f070d1" stroke="black" cx="4198" cy="-1241.23" rx="124.59" ry="18"/>
<ellipse fill="none" stroke="black" cx="4198" cy="-1241.23" rx="128.58" ry="22"/>
<ellipse fill="none" stroke="black" cx="4198" cy="-1241.23" rx="132.58" ry="26"/>
<text text-anchor="middle" x="4198" y="-1237.53" font-family="Times,serif" font-size="14.00">issearchable_suspension</text>
</a>
</g>
</g>
<!-- CompactTypes_issearchable_suspension&#45;&gt;CompactTypes_issearchable_image -->
<g id="edge8" class="edge">
<title>CompactTypes_issearchable_suspension&#45;&gt;CompactTypes_issearchable_image</title>
<path fill="none" stroke="black" d="M4202.37,-1215.04C4214.06,-1147.55 4246.05,-962.99 4258.22,-892.81"/>
<polygon fill="black" stroke="black" points="4261.74,-893.02 4260,-882.57 4254.84,-891.82 4261.74,-893.02"/>
</g>
<!-- CompactTypes_issearchable_Bool -->
<g id="node15" class="node">
<title>CompactTypes_issearchable_Bool</title>
<g id="a_node15"><a xlink:href="CompactTypes.html#issearchable_Bool" xlink:title="issearchable_Bool">
<ellipse fill="#f070d1" stroke="black" cx="3815" cy="-864.23" rx="93.68" ry="18"/>
<text text-anchor="middle" x="3815" y="-860.53" font-family="Times,serif" font-size="14.00">issearchable_Bool</text>
</a>
</g>
</g>
<!-- CompactTypes_issearchable_suspension&#45;&gt;CompactTypes_issearchable_Bool -->
<g id="edge9" class="edge">
<title>CompactTypes_issearchable_suspension&#45;&gt;CompactTypes_issearchable_Bool</title>
<path fill="none" stroke="black" d="M4172.87,-1215.62C4103.32,-1147.53 3908.9,-957.17 3839.78,-889.49"/>
<polygon fill="black" stroke="black" points="3841.95,-886.72 3832.36,-882.22 3837.05,-891.72 3841.95,-886.72"/>
</g>
<!-- CompactTypes_issearchable_isconnected_ptype -->
<g id="node8" class="node">
<title>CompactTypes_issearchable_isconnected_ptype</title>
<g id="a_node8"><a xlink:href="CompactTypes.html#issearchable_isconnected_ptype" xlink:title="issearchable_isconnected_ptype">
<ellipse fill="#f070d1" stroke="black" cx="3820" cy="-1241.23" rx="159.46" ry="18"/>
<ellipse fill="none" stroke="black" cx="3820" cy="-1241.23" rx="163.47" ry="22"/>
<ellipse fill="none" stroke="black" cx="3820" cy="-1241.23" rx="167.47" ry="26"/>
<text text-anchor="middle" x="3820" y="-1237.53" font-family="Times,serif" font-size="14.00">issearchable_isconnected_ptype</text>
</a>
</g>
</g>
<!-- CompactTypes_issearchable_isconnected_ptype&#45;&gt;CompactTypes_issearchable_image -->
<g id="edge10" class="edge">
<title>CompactTypes_issearchable_isconnected_ptype&#45;&gt;CompactTypes_issearchable_image</title>
<path fill="none" stroke="black" d="M3849.07,-1215.62C3929.67,-1147.39 4155.3,-956.39 4234.83,-889.08"/>
<polygon fill="black" stroke="black" points="4237.55,-891.36 4242.92,-882.22 4233.03,-886.01 4237.55,-891.36"/>
</g>
<!-- CompactTypes_issearchable_contr -->
<g id="node16" class="node">
<title>CompactTypes_issearchable_contr</title>
<g id="a_node16"><a xlink:href="CompactTypes.html#issearchable_contr" xlink:title="issearchable_contr">
<ellipse fill="#f070d1" stroke="black" cx="3606" cy="-864.23" rx="97.48" ry="18"/>
<text text-anchor="middle" x="3606" y="-860.53" font-family="Times,serif" font-size="14.00">issearchable_contr</text>
</a>
</g>
</g>
<!-- CompactTypes_issearchable_isconnected_ptype&#45;&gt;CompactTypes_issearchable_contr -->
<g id="edge11" class="edge">
<title>CompactTypes_issearchable_isconnected_ptype&#45;&gt;CompactTypes_issearchable_contr</title>
<path fill="none" stroke="black" d="M3805.63,-1215.04C3766.78,-1146.97 3659.99,-959.85 3620.73,-891.05"/>
<polygon fill="black" stroke="black" points="3623.65,-889.1 3615.66,-882.15 3617.57,-892.57 3623.65,-889.1"/>
</g>
<!-- CompactTypes_issearchableprops_image -->
<g id="node10" class="node">
<title>CompactTypes_issearchableprops_image</title>
<g id="a_node10"><a xlink:href="CompactTypes.html#issearchableprops_image" xlink:title="issearchableprops_image">
<ellipse fill="#f070d1" stroke="black" cx="4263" cy="-488.23" rx="128.08" ry="18"/>
<text text-anchor="middle" x="4263" y="-484.53" font-family="Times,serif" font-size="14.00">issearchableprops_image</text>
</a>
</g>
</g>
<!-- CompactTypes_issearchable_image&#45;&gt;CompactTypes_issearchableprops_image -->
<g id="edge12" class="edge">
<title>CompactTypes_issearchable_image&#45;&gt;CompactTypes_issearchableprops_image</title>
<path fill="none" stroke="black" d="M4263,-846.19C4263,-786.92 4263,-589.48 4263,-516.58"/>
<polygon fill="black" stroke="black" points="4266.5,-516.37 4263,-506.37 4259.5,-516.37 4266.5,-516.37"/>
</g>
<!-- CompactTypes_issearchable_issearchableprops -->
<g id="node21" class="node">
<title>CompactTypes_issearchable_issearchableprops</title>
<g id="a_node21"><a xlink:href="CompactTypes.html#issearchable_issearchableprops" xlink:title="issearchable_issearchableprops">
<ellipse fill="#f070d1" stroke="black" cx="3960" cy="-488.23" rx="157.07" ry="18"/>
<text text-anchor="middle" x="3960" y="-484.53" font-family="Times,serif" font-size="14.00">issearchable_issearchableprops</text>
</a>
</g>
</g>
<!-- CompactTypes_issearchable_image&#45;&gt;CompactTypes_issearchable_issearchableprops -->
<g id="edge13" class="edge">
<title>CompactTypes_issearchable_image&#45;&gt;CompactTypes_issearchable_issearchableprops</title>
<path fill="none" stroke="black" d="M4249.19,-846.19C4200.69,-786.32 4037.92,-585.41 3980.37,-514.37"/>
<polygon fill="black" stroke="black" points="3982.9,-511.94 3973.89,-506.37 3977.46,-516.34 3982.9,-511.94"/>
</g>
<!-- CompactTypes_IsSearchableProps -->
<g id="node22" class="node">
<title>CompactTypes_IsSearchableProps</title>
<g id="a_node22"><a xlink:href="CompactTypes.html#IsSearchableProps" xlink:title="IsSearchableProps">
<ellipse fill="#f070d1" stroke="black" cx="4111" cy="-145.23" rx="97.48" ry="18"/>
<text text-anchor="middle" x="4111" y="-141.53" font-family="Times,serif" font-size="14.00">IsSearchableProps</text>
</a>
</g>
</g>
<!-- CompactTypes_issearchableprops_image&#45;&gt;CompactTypes_IsSearchableProps -->
<g id="edge14" class="edge">
<title>CompactTypes_issearchableprops_image&#45;&gt;CompactTypes_IsSearchableProps</title>
<path fill="none" stroke="black" d="M4255.25,-469.85C4230.45,-414.21 4152.88,-240.19 4122.95,-173.04"/>
<polygon fill="black" stroke="black" points="4126,-171.28 4118.73,-163.57 4119.61,-174.13 4126,-171.28"/>
</g>
<!-- CompactTypes_issearchable_hprop -->
<g id="node11" class="node">
<title>CompactTypes_issearchable_hprop</title>
<g id="a_node11"><a xlink:href="CompactTypes.html#issearchable_hprop" xlink:title="issearchable_hprop">
<ellipse fill="#f070d1" stroke="black" cx="4035" cy="-864.23" rx="100.96" ry="18"/>
<ellipse fill="none" stroke="black" cx="4035" cy="-864.23" rx="104.97" ry="22"/>
<ellipse fill="none" stroke="black" cx="4035" cy="-864.23" rx="108.98" ry="26"/>
<text text-anchor="middle" x="4035" y="-860.53" font-family="Times,serif" font-size="14.00">issearchable_hprop</text>
</a>
</g>
</g>
<!-- CompactTypes_issearchable_hprop&#45;&gt;CompactTypes_issearchable_issearchableprops -->
<g id="edge15" class="edge">
<title>CompactTypes_issearchable_hprop&#45;&gt;CompactTypes_issearchable_issearchableprops</title>
<path fill="none" stroke="black" d="M4029.96,-838.11C4016.46,-770.79 3979.55,-586.73 3965.52,-516.74"/>
<polygon fill="black" stroke="black" points="3968.87,-515.64 3963.47,-506.52 3962,-517.01 3968.87,-515.64"/>
</g>
<!-- CompactTypes_iscompact_empty_ -->
<g id="node13" class="node">
<title>CompactTypes_iscompact_empty_</title>
<g id="a_node13"><a xlink:href="CompactTypes.html#iscompact_empty'" xlink:title="iscompact_empty&#39;">
<ellipse fill="#f070d1" stroke="black" cx="2555" cy="-488.23" rx="93.68" ry="18"/>
<text text-anchor="middle" x="2555" y="-484.53" font-family="Times,serif" font-size="14.00">iscompact_empty&#39;</text>
</a>
</g>
</g>
<!-- CompactTypes_iscompact_iff_not_or_issearchable&#45;&gt;CompactTypes_iscompact_empty_ -->
<g id="edge16" class="edge">
<title>CompactTypes_iscompact_iff_not_or_issearchable&#45;&gt;CompactTypes_iscompact_empty_</title>
<path fill="none" stroke="black" d="M2869.96,-846.19C2817.03,-786.19 2639.14,-584.59 2576.8,-513.94"/>
<polygon fill="black" stroke="black" points="2579.37,-511.55 2570.13,-506.37 2574.12,-516.19 2579.37,-511.55"/>
</g>
<!-- CompactTypes_iscompact_issearchable -->
<g id="node19" class="node">
<title>CompactTypes_iscompact_issearchable</title>
<g id="a_node19"><a xlink:href="CompactTypes.html#iscompact_issearchable" xlink:title="iscompact_issearchable">
<ellipse fill="#f070d1" stroke="black" cx="3018" cy="-488.23" rx="120.48" ry="18"/>
<text text-anchor="middle" x="3018" y="-484.53" font-family="Times,serif" font-size="14.00">iscompact_issearchable</text>
</a>
</g>
</g>
<!-- CompactTypes_iscompact_iff_not_or_issearchable&#45;&gt;CompactTypes_iscompact_issearchable -->
<g id="edge17" class="edge">
<title>CompactTypes_iscompact_iff_not_or_issearchable&#45;&gt;CompactTypes_iscompact_issearchable</title>
<path fill="none" stroke="black" d="M2891.06,-846.19C2912.18,-786.8 2982.64,-588.66 3008.43,-516.13"/>
<polygon fill="black" stroke="black" points="3011.85,-516.97 3011.9,-506.37 3005.26,-514.62 3011.85,-516.97"/>
</g>
<!-- CompactTypes_issearchable_iscompact_inhabited -->
<g id="node20" class="node">
<title>CompactTypes_issearchable_iscompact_inhabited</title>
<g id="a_node20"><a xlink:href="CompactTypes.html#issearchable_iscompact_inhabited" xlink:title="issearchable_iscompact_inhabited">
<ellipse fill="#f070d1" stroke="black" cx="3325" cy="-488.23" rx="168.17" ry="18"/>
<text text-anchor="middle" x="3325" y="-484.53" font-family="Times,serif" font-size="14.00">issearchable_iscompact_inhabited</text>
</a>
</g>
</g>
<!-- CompactTypes_iscompact_iff_not_or_issearchable&#45;&gt;CompactTypes_issearchable_iscompact_inhabited -->
<g id="edge18" class="edge">
<title>CompactTypes_iscompact_iff_not_or_issearchable&#45;&gt;CompactTypes_issearchable_iscompact_inhabited</title>
<path fill="none" stroke="black" d="M2905.05,-846.19C2975.99,-785.89 3215.22,-582.54 3297.18,-512.88"/>
<polygon fill="black" stroke="black" points="3299.48,-515.51 3304.83,-506.37 3294.95,-510.18 3299.48,-515.51"/>
</g>
<!-- CompactTypes_decidable_iscompact -->
<g id="node38" class="node">
<title>CompactTypes_decidable_iscompact</title>
<g id="a_node38"><a xlink:href="CompactTypes.html#decidable_iscompact" xlink:title="decidable_iscompact">
<ellipse fill="#f070d1" stroke="black" cx="2773" cy="-488.23" rx="106.68" ry="18"/>
<text text-anchor="middle" x="2773" y="-484.53" font-family="Times,serif" font-size="14.00">decidable_iscompact</text>
</a>
</g>
</g>
<!-- CompactTypes_iscompact_iff_not_or_issearchable&#45;&gt;CompactTypes_decidable_iscompact -->
<g id="edge19" class="edge">
<title>CompactTypes_iscompact_iff_not_or_issearchable&#45;&gt;CompactTypes_decidable_iscompact</title>
<path fill="none" stroke="black" d="M2879.9,-846.19C2862.11,-786.8 2802.78,-588.66 2781.06,-516.13"/>
<polygon fill="black" stroke="black" points="2784.36,-514.95 2778.13,-506.37 2777.65,-516.95 2784.36,-514.95"/>
</g>
<!-- CompactTypes_IsCompact -->
<g id="node39" class="node">
<title>CompactTypes_IsCompact</title>
<g id="a_node39"><a xlink:href="CompactTypes.html#IsCompact" xlink:title="IsCompact">
<ellipse fill="#f070d1" stroke="black" cx="2449" cy="-145.23" rx="59.59" ry="18"/>
<text text-anchor="middle" x="2449" y="-141.53" font-family="Times,serif" font-size="14.00">IsCompact</text>
</a>
</g>
</g>
<!-- CompactTypes_iscompact_empty_&#45;&gt;CompactTypes_IsCompact -->
<g id="edge20" class="edge">
<title>CompactTypes_iscompact_empty_&#45;&gt;CompactTypes_IsCompact</title>
<path fill="none" stroke="black" d="M2549.6,-469.85C2532.3,-414.2 2478.18,-240.1 2457.32,-172.99"/>
<polygon fill="black" stroke="black" points="2460.58,-171.68 2454.27,-163.17 2453.89,-173.76 2460.58,-171.68"/>
</g>
<!-- CompactTypes_iscompact_empty -->
<g id="node14" class="node">
<title>CompactTypes_iscompact_empty</title>
<g id="a_node14"><a xlink:href="CompactTypes.html#iscompact_empty" xlink:title="iscompact_empty">
<ellipse fill="#f070d1" stroke="black" cx="2344" cy="-488.23" rx="90.98" ry="18"/>
<ellipse fill="none" stroke="black" cx="2344" cy="-488.23" rx="94.98" ry="22"/>
<ellipse fill="none" stroke="black" cx="2344" cy="-488.23" rx="98.98" ry="26"/>
<text text-anchor="middle" x="2344" y="-484.53" font-family="Times,serif" font-size="14.00">iscompact_empty</text>
</a>
</g>
</g>
<!-- CompactTypes_iscompact_empty&#45;&gt;CompactTypes_IsCompact -->
<g id="edge21" class="edge">
<title>CompactTypes_iscompact_empty&#45;&gt;CompactTypes_IsCompact</title>
<path fill="none" stroke="black" d="M2351.72,-462.15C2370.97,-399.65 2420.94,-237.34 2440.75,-173.04"/>
<polygon fill="black" stroke="black" points="2444.16,-173.83 2443.76,-163.24 2437.47,-171.77 2444.16,-173.83"/>
</g>
<!-- CompactTypes_IsSearchable -->
<g id="node23" class="node">
<title>CompactTypes_IsSearchable</title>
<g id="a_node23"><a xlink:href="CompactTypes.html#IsSearchable" xlink:title="IsSearchable">
<ellipse fill="#f070d1" stroke="black" cx="3696" cy="-145.23" rx="70.69" ry="18"/>
<text text-anchor="middle" x="3696" y="-141.53" font-family="Times,serif" font-size="14.00">IsSearchable</text>
</a>
</g>
</g>
<!-- CompactTypes_issearchable_Bool&#45;&gt;CompactTypes_IsSearchable -->
<g id="edge22" class="edge">
<title>CompactTypes_issearchable_Bool&#45;&gt;CompactTypes_IsSearchable</title>
<path fill="none" stroke="black" d="M3813.18,-845.96C3807.22,-790.21 3787.17,-610.03 3762,-462.23 3743.66,-354.49 3714.96,-227.54 3702.33,-173.15"/>
<polygon fill="black" stroke="black" points="3705.71,-172.21 3700.03,-163.27 3698.89,-173.8 3705.71,-172.21"/>
</g>
<!-- CompactTypes_issearchable_contr&#45;&gt;CompactTypes_IsSearchable -->
<g id="edge23" class="edge">
<title>CompactTypes_issearchable_contr&#45;&gt;CompactTypes_IsSearchable</title>
<path fill="none" stroke="black" d="M3616.16,-846.24C3644.9,-797.04 3726.53,-649.34 3754,-514.23 3779.82,-387.21 3729.67,-233.54 3706.67,-172.79"/>
<polygon fill="black" stroke="black" points="3709.84,-171.27 3702.97,-163.2 3703.31,-173.79 3709.84,-171.27"/>
</g>
<!-- CompactTypes_searchable_iff -->
<g id="node17" class="node">
<title>CompactTypes_searchable_iff</title>
<g id="a_node17"><a xlink:href="CompactTypes.html#searchable_iff" xlink:title="searchable_iff">
<ellipse fill="#f070d1" stroke="black" cx="3153" cy="-864.23" rx="74.96" ry="18"/>
<ellipse fill="none" stroke="black" cx="3153" cy="-864.23" rx="78.98" ry="22"/>
<ellipse fill="none" stroke="black" cx="3153" cy="-864.23" rx="82.99" ry="26"/>
<text text-anchor="middle" x="3153" y="-860.53" font-family="Times,serif" font-size="14.00">searchable_iff</text>
</a>
</g>
</g>
<!-- CompactTypes_searchable_iff&#45;&gt;CompactTypes_inhabited_issearchable -->
<g id="edge24" class="edge">
<title>CompactTypes_searchable_iff&#45;&gt;CompactTypes_inhabited_issearchable</title>
<path fill="none" stroke="black" d="M3182.71,-839.83C3268.12,-772.59 3513.59,-579.31 3598.6,-512.38"/>
<polygon fill="black" stroke="black" points="3600.86,-515.06 3606.55,-506.12 3596.53,-509.56 3600.86,-515.06"/>
</g>
<!-- CompactTypes_searchable_iff&#45;&gt;CompactTypes_iscompact_issearchable -->
<g id="edge25" class="edge">
<title>CompactTypes_searchable_iff&#45;&gt;CompactTypes_iscompact_issearchable</title>
<path fill="none" stroke="black" d="M3143.93,-838.11C3119.58,-770.66 3052.92,-585.97 3027.77,-516.31"/>
<polygon fill="black" stroke="black" points="3030.93,-514.74 3024.24,-506.52 3024.34,-517.11 3030.93,-514.74"/>
</g>
<!-- CompactTypes_searchable_iff&#45;&gt;CompactTypes_issearchable_iscompact_inhabited -->
<g id="edge26" class="edge">
<title>CompactTypes_searchable_iff&#45;&gt;CompactTypes_issearchable_iscompact_inhabited</title>
<path fill="none" stroke="black" d="M3164.42,-838.4C3195.38,-771.07 3280.76,-585.42 3312.72,-515.94"/>
<polygon fill="black" stroke="black" points="3316.03,-517.1 3317.03,-506.56 3309.67,-514.18 3316.03,-517.1"/>
</g>
<!-- CompactTypes_inhabited_issearchable&#45;&gt;CompactTypes_IsSearchable -->
<g id="edge27" class="edge">
<title>CompactTypes_inhabited_issearchable&#45;&gt;CompactTypes_IsSearchable</title>
<path fill="none" stroke="black" d="M3631.47,-469.85C3642.54,-414.32 3677.12,-240.91 3690.57,-173.46"/>
<polygon fill="black" stroke="black" points="3694.02,-174.06 3692.54,-163.57 3687.15,-172.7 3694.02,-174.06"/>
</g>
<!-- CompactTypes_iscompact_issearchable&#45;&gt;CompactTypes_IsSearchable -->
<g id="edge28" class="edge">
<title>CompactTypes_iscompact_issearchable&#45;&gt;CompactTypes_IsSearchable</title>
<path fill="none" stroke="black" d="M3050.7,-470.78C3163.23,-414.18 3534.26,-227.57 3656.53,-166.08"/>
<polygon fill="black" stroke="black" points="3658.21,-169.15 3665.57,-161.53 3655.07,-162.9 3658.21,-169.15"/>
</g>
<!-- CompactTypes_iscompact_issearchable&#45;&gt;CompactTypes_IsCompact -->
<g id="edge29" class="edge">
<title>CompactTypes_iscompact_issearchable&#45;&gt;CompactTypes_IsCompact</title>
<path fill="none" stroke="black" d="M2990.17,-470.55C2895.74,-413.96 2587.65,-229.32 2483.65,-166.99"/>
<polygon fill="black" stroke="black" points="2485.18,-163.83 2474.8,-161.69 2481.58,-169.83 2485.18,-163.83"/>
</g>
<!-- CompactTypes_issearchable_iscompact_inhabited&#45;&gt;CompactTypes_IsSearchable -->
<g id="edge30" class="edge">
<title>CompactTypes_issearchable_iscompact_inhabited&#45;&gt;CompactTypes_IsSearchable</title>
<path fill="none" stroke="black" d="M3343.4,-470.32C3404.36,-414.29 3599.85,-234.6 3670.35,-169.81"/>
<polygon fill="black" stroke="black" points="3672.93,-172.18 3677.93,-162.84 3668.2,-167.03 3672.93,-172.18"/>
</g>
<!-- CompactTypes_issearchable_iscompact_inhabited&#45;&gt;CompactTypes_IsCompact -->
<g id="edge31" class="edge">
<title>CompactTypes_issearchable_iscompact_inhabited&#45;&gt;CompactTypes_IsCompact</title>
<path fill="none" stroke="black" d="M3282.75,-470.78C3135.27,-413.37 2644.13,-222.19 2493.39,-163.51"/>
<polygon fill="black" stroke="black" points="2494.55,-160.2 2483.96,-159.84 2492.01,-166.73 2494.55,-160.2"/>
</g>
<!-- CompactTypes_issearchable_issearchableprops&#45;&gt;CompactTypes_IsSearchableProps -->
<g id="edge32" class="edge">
<title>CompactTypes_issearchable_issearchableprops&#45;&gt;CompactTypes_IsSearchableProps</title>
<path fill="none" stroke="black" d="M3967.7,-469.85C3992.33,-414.21 4069.39,-240.19 4099.13,-173.04"/>
<polygon fill="black" stroke="black" points="4102.47,-174.13 4103.32,-163.57 4096.07,-171.3 4102.47,-174.13"/>
</g>
<!-- CompactTypes_issearchable_issearchableprops&#45;&gt;CompactTypes_IsSearchable -->
<g id="edge33" class="edge">
<title>CompactTypes_issearchable_issearchableprops&#45;&gt;CompactTypes_IsSearchable</title>
<path fill="none" stroke="black" d="M3946.55,-469.85C3903.1,-413.74 3766.45,-237.23 3715.45,-171.35"/>
<polygon fill="black" stroke="black" points="3718,-168.93 3709.11,-163.17 3712.47,-173.22 3718,-168.93"/>
</g>
<!-- CompactTypes_compact_set_trunc_compact -->
<g id="node24" class="node">
<title>CompactTypes_compact_set_trunc_compact</title>
<g id="a_node24"><a xlink:href="CompactTypes.html#compact_set_trunc_compact" xlink:title="compact_set_trunc_compact">
<ellipse fill="#f070d1" stroke="black" cx="2008" cy="-1241.23" rx="141.07" ry="18"/>
<ellipse fill="none" stroke="black" cx="2008" cy="-1241.23" rx="145.07" ry="22"/>
<ellipse fill="none" stroke="black" cx="2008" cy="-1241.23" rx="149.07" ry="26"/>
<text text-anchor="middle" x="2008" y="-1237.53" font-family="Times,serif" font-size="14.00">compact_set_trunc_compact</text>
</a>
</g>
</g>
<!-- CompactTypes_iscompact_retract_ -->
<g id="node25" class="node">
<title>CompactTypes_iscompact_retract_</title>
<g id="a_node25"><a xlink:href="CompactTypes.html#iscompact_retract'" xlink:title="iscompact_retract&#39;">
<ellipse fill="#f070d1" stroke="black" cx="2133" cy="-864.23" rx="96.68" ry="18"/>
<text text-anchor="middle" x="2133" y="-860.53" font-family="Times,serif" font-size="14.00">iscompact_retract&#39;</text>
</a>
</g>
</g>
<!-- CompactTypes_compact_set_trunc_compact&#45;&gt;CompactTypes_iscompact_retract_ -->
<g id="edge34" class="edge">
<title>CompactTypes_compact_set_trunc_compact&#45;&gt;CompactTypes_iscompact_retract_</title>
<path fill="none" stroke="black" d="M2016.4,-1215.04C2038.94,-1147.41 2100.67,-962.23 2123.95,-892.38"/>
<polygon fill="black" stroke="black" points="2127.38,-893.16 2127.22,-882.57 2120.74,-890.95 2127.38,-893.16"/>
</g>
<!-- CompactTypes_iscompact_iscompactprops -->
<g id="node36" class="node">
<title>CompactTypes_iscompact_iscompactprops</title>
<g id="a_node36"><a xlink:href="CompactTypes.html#iscompact_iscompactprops" xlink:title="iscompact_iscompactprops">
<ellipse fill="#f070d1" stroke="black" cx="1883" cy="-864.23" rx="135.38" ry="18"/>
<text text-anchor="middle" x="1883" y="-860.53" font-family="Times,serif" font-size="14.00">iscompact_iscompactprops</text>
</a>
</g>
</g>
<!-- CompactTypes_compact_set_trunc_compact&#45;&gt;CompactTypes_iscompact_iscompactprops -->
<g id="edge35" class="edge">
<title>CompactTypes_compact_set_trunc_compact&#45;&gt;CompactTypes_iscompact_iscompactprops</title>
<path fill="none" stroke="black" d="M1999.6,-1215.04C1977.06,-1147.41 1915.33,-962.23 1892.05,-892.38"/>
<polygon fill="black" stroke="black" points="1895.26,-890.95 1888.78,-882.57 1888.62,-893.16 1895.26,-890.95"/>
</g>
<!-- CompactTypes_iscompact_retract -->
<g id="node26" class="node">
<title>CompactTypes_iscompact_retract</title>
<g id="a_node26"><a xlink:href="CompactTypes.html#iscompact_retract" xlink:title="iscompact_retract">
<ellipse fill="#f070d1" stroke="black" cx="2133" cy="-488.23" rx="94.48" ry="18"/>
<text text-anchor="middle" x="2133" y="-484.53" font-family="Times,serif" font-size="14.00">iscompact_retract</text>
</a>
</g>
</g>
<!-- CompactTypes_iscompact_retract_&#45;&gt;CompactTypes_iscompact_retract -->
<g id="edge36" class="edge">
<title>CompactTypes_iscompact_retract_&#45;&gt;CompactTypes_iscompact_retract</title>
<path fill="none" stroke="black" d="M2133,-846.19C2133,-786.92 2133,-589.48 2133,-516.58"/>
<polygon fill="black" stroke="black" points="2136.5,-516.37 2133,-506.37 2129.5,-516.37 2136.5,-516.37"/>
</g>
<!-- CompactTypes_iscompact_retract&#45;&gt;CompactTypes_IsCompact -->
<g id="edge37" class="edge">
<title>CompactTypes_iscompact_retract&#45;&gt;CompactTypes_IsCompact</title>
<path fill="none" stroke="black" d="M2148.67,-470.32C2200.49,-414.4 2366.43,-235.33 2426.79,-170.2"/>
<polygon fill="black" stroke="black" points="2429.38,-172.55 2433.61,-162.84 2424.24,-167.8 2429.38,-172.55"/>
</g>
<!-- CompactTypes_ispicompact_issigmacompact -->
<g id="node27" class="node">
<title>CompactTypes_ispicompact_issigmacompact</title>
<g id="a_node27"><a xlink:href="CompactTypes.html#ispicompact_issigmacompact" xlink:title="ispicompact_issigmacompact">
<ellipse fill="#f070d1" stroke="black" cx="999" cy="-488.23" rx="145.67" ry="18"/>
<ellipse fill="none" stroke="black" cx="999" cy="-488.23" rx="149.67" ry="22"/>
<ellipse fill="none" stroke="black" cx="999" cy="-488.23" rx="153.67" ry="26"/>
<text text-anchor="middle" x="999" y="-484.53" font-family="Times,serif" font-size="14.00">ispicompact_issigmacompact</text>
</a>
</g>
</g>
<!-- CompactTypes_IsPiCompact -->
<g id="node28" class="node">
<title>CompactTypes_IsPiCompact</title>
<g id="a_node28"><a xlink:href="CompactTypes.html#IsPiCompact" xlink:title="IsPiCompact">
<ellipse fill="#f070d1" stroke="black" cx="999" cy="-145.23" rx="69.59" ry="18"/>
<text text-anchor="middle" x="999" y="-141.53" font-family="Times,serif" font-size="14.00">IsPiCompact</text>
</a>
</g>
</g>
<!-- CompactTypes_ispicompact_issigmacompact&#45;&gt;CompactTypes_IsPiCompact -->
<g id="edge38" class="edge">
<title>CompactTypes_ispicompact_issigmacompact&#45;&gt;CompactTypes_IsPiCompact</title>
<path fill="none" stroke="black" d="M999,-462.15C999,-399.78 999,-238.01 999,-173.44"/>
<polygon fill="black" stroke="black" points="1002.5,-173.24 999,-163.24 995.5,-173.24 1002.5,-173.24"/>
</g>
<!-- CompactTypes_IsSigmaCompact -->
<g id="node33" class="node">
<title>CompactTypes_IsSigmaCompact</title>
<g id="a_node33"><a xlink:href="CompactTypes.html#IsSigmaCompact" xlink:title="IsSigmaCompact">
<ellipse fill="#f070d1" stroke="black" cx="725" cy="-145.23" rx="89.08" ry="18"/>
<text text-anchor="middle" x="725" y="-141.53" font-family="Times,serif" font-size="14.00">IsSigmaCompact</text>
</a>
</g>
</g>
<!-- CompactTypes_ispicompact_issigmacompact&#45;&gt;CompactTypes_IsSigmaCompact -->
<g id="edge39" class="edge">
<title>CompactTypes_ispicompact_issigmacompact&#45;&gt;CompactTypes_IsSigmaCompact</title>
<path fill="none" stroke="black" d="M979.07,-462.43C928.51,-399.51 795.66,-234.17 745.01,-171.13"/>
<polygon fill="black" stroke="black" points="747.69,-168.88 738.7,-163.28 742.24,-173.27 747.69,-168.88"/>
</g>
<!-- CompactTypes_issigmacompact_issigmacompactprops -->
<g id="node29" class="node">
<title>CompactTypes_issigmacompact_issigmacompactprops</title>
<g id="a_node29"><a xlink:href="CompactTypes.html#issigmacompact_issigmacompactprops" xlink:title="issigmacompact_issigmacompactprops">
<ellipse fill="#f070d1" stroke="black" cx="214" cy="-488.23" rx="190.37" ry="18"/>
<ellipse fill="none" stroke="black" cx="214" cy="-488.23" rx="194.37" ry="22"/>
<ellipse fill="none" stroke="black" cx="214" cy="-488.23" rx="198.37" ry="26"/>
<text text-anchor="middle" x="214" y="-484.53" font-family="Times,serif" font-size="14.00">issigmacompact_issigmacompactprops</text>
</a>
</g>
</g>
<!-- CompactTypes_IsSigmaCompactProps -->
<g id="node31" class="node">
<title>CompactTypes_IsSigmaCompactProps</title>
<g id="a_node31"><a xlink:href="CompactTypes.html#IsSigmaCompactProps" xlink:title="IsSigmaCompactProps">
<ellipse fill="#f070d1" stroke="black" cx="310" cy="-145.23" rx="116.18" ry="18"/>
<text text-anchor="middle" x="310" y="-141.53" font-family="Times,serif" font-size="14.00">IsSigmaCompactProps</text>
</a>
</g>
</g>
<!-- CompactTypes_issigmacompact_issigmacompactprops&#45;&gt;CompactTypes_IsSigmaCompactProps -->
<g id="edge40" class="edge">
<title>CompactTypes_issigmacompact_issigmacompactprops&#45;&gt;CompactTypes_IsSigmaCompactProps</title>
<path fill="none" stroke="black" d="M221.06,-462.15C238.66,-399.65 284.35,-237.34 302.45,-173.04"/>
<polygon fill="black" stroke="black" points="305.87,-173.82 305.21,-163.24 299.13,-171.92 305.87,-173.82"/>
</g>
<!-- CompactTypes_issigmacompact_issigmacompactprops&#45;&gt;CompactTypes_IsSigmaCompact -->
<g id="edge41" class="edge">
<title>CompactTypes_issigmacompact_issigmacompactprops&#45;&gt;CompactTypes_IsSigmaCompact</title>
<path fill="none" stroke="black" d="M251.16,-462.43C346.85,-398.58 600.56,-229.27 691.76,-168.41"/>
<polygon fill="black" stroke="black" points="693.94,-171.16 700.32,-162.7 690.06,-165.34 693.94,-171.16"/>
</g>
<!-- CompactTypes_issigmacompactprops_issigmacompact -->
<g id="node30" class="node">
<title>CompactTypes_issigmacompactprops_issigmacompact</title>
<g id="a_node30"><a xlink:href="CompactTypes.html#issigmacompactprops_issigmacompact" xlink:title="issigmacompactprops_issigmacompact">
<ellipse fill="#f070d1" stroke="black" cx="629" cy="-488.23" rx="190.37" ry="18"/>
<ellipse fill="none" stroke="black" cx="629" cy="-488.23" rx="194.37" ry="22"/>
<ellipse fill="none" stroke="black" cx="629" cy="-488.23" rx="198.37" ry="26"/>
<text text-anchor="middle" x="629" y="-484.53" font-family="Times,serif" font-size="14.00">issigmacompactprops_issigmacompact</text>
</a>
</g>
</g>
<!-- CompactTypes_issigmacompactprops_issigmacompact&#45;&gt;CompactTypes_IsSigmaCompactProps -->
<g id="edge42" class="edge">
<title>CompactTypes_issigmacompactprops_issigmacompact&#45;&gt;CompactTypes_IsSigmaCompactProps</title>
<path fill="none" stroke="black" d="M605.54,-462.15C546.35,-398.88 391.46,-233.31 332.89,-170.7"/>
<polygon fill="black" stroke="black" points="335.3,-168.15 325.92,-163.24 330.19,-172.94 335.3,-168.15"/>
</g>
<!-- CompactTypes_issigmacompactprops_issigmacompact&#45;&gt;CompactTypes_IsSigmaCompact -->
<g id="edge43" class="edge">
<title>CompactTypes_issigmacompactprops_issigmacompact&#45;&gt;CompactTypes_IsSigmaCompact</title>
<path fill="none" stroke="black" d="M636.06,-462.15C653.66,-399.65 699.35,-237.34 717.45,-173.04"/>
<polygon fill="black" stroke="black" points="720.87,-173.82 720.21,-163.24 714.13,-171.92 720.87,-173.82"/>
</g>
<!-- CompactTypes_equiv_iscompact__issigmacompact -->
<g id="node32" class="node">
<title>CompactTypes_equiv_iscompact__issigmacompact</title>
<g id="a_node32"><a xlink:href="CompactTypes.html#equiv_iscompact'_issigmacompact" xlink:title="equiv_iscompact&#39;_issigmacompact">
<ellipse fill="#f070d1" stroke="black" cx="1348" cy="-488.23" rx="168.97" ry="18"/>
<ellipse fill="none" stroke="black" cx="1348" cy="-488.23" rx="172.97" ry="22"/>
<ellipse fill="none" stroke="black" cx="1348" cy="-488.23" rx="176.97" ry="26"/>
<text text-anchor="middle" x="1348" y="-484.53" font-family="Times,serif" font-size="14.00">equiv_iscompact&#39;_issigmacompact</text>
</a>
</g>
</g>
<!-- CompactTypes_equiv_iscompact__issigmacompact&#45;&gt;CompactTypes_IsSigmaCompact -->
<g id="edge44" class="edge">
<title>CompactTypes_equiv_iscompact__issigmacompact&#45;&gt;CompactTypes_IsSigmaCompact</title>
<path fill="none" stroke="black" d="M1303.69,-462.98C1187.14,-399.18 873.4,-227.46 763.59,-167.35"/>
<polygon fill="black" stroke="black" points="764.97,-164.12 754.52,-162.39 761.61,-170.26 764.97,-164.12"/>
</g>
<!-- CompactTypes_IsCompact_ -->
<g id="node35" class="node">
<title>CompactTypes_IsCompact_</title>
<g id="a_node35"><a xlink:href="CompactTypes.html#IsCompact'" xlink:title="IsCompact&#39;">
<ellipse fill="#f070d1" stroke="black" cx="1512" cy="-145.23" rx="62.29" ry="18"/>
<text text-anchor="middle" x="1512" y="-141.53" font-family="Times,serif" font-size="14.00">IsCompact&#39;</text>
</a>
</g>
</g>
<!-- CompactTypes_equiv_iscompact__issigmacompact&#45;&gt;CompactTypes_IsCompact_ -->
<g id="edge45" class="edge">
<title>CompactTypes_equiv_iscompact__issigmacompact&#45;&gt;CompactTypes_IsCompact_</title>
<path fill="none" stroke="black" d="M1360.06,-462.15C1390.18,-399.52 1468.5,-236.67 1499.3,-172.64"/>
<polygon fill="black" stroke="black" points="1502.64,-173.77 1503.82,-163.24 1496.33,-170.74 1502.64,-173.77"/>
</g>
<!-- CompactTypes_iff_iscompact_iscompact_ -->
<g id="node34" class="node">
<title>CompactTypes_iff_iscompact_iscompact_</title>
<g id="a_node34"><a xlink:href="CompactTypes.html#iff_iscompact_iscompact'" xlink:title="iff_iscompact_iscompact&#39;">
<ellipse fill="#f070d1" stroke="black" cx="1676" cy="-488.23" rx="124.59" ry="18"/>
<ellipse fill="none" stroke="black" cx="1676" cy="-488.23" rx="128.58" ry="22"/>
<ellipse fill="none" stroke="black" cx="1676" cy="-488.23" rx="132.58" ry="26"/>
<text text-anchor="middle" x="1676" y="-484.53" font-family="Times,serif" font-size="14.00">iff_iscompact_iscompact&#39;</text>
</a>
</g>
</g>
<!-- CompactTypes_iff_iscompact_iscompact_&#45;&gt;CompactTypes_IsCompact_ -->
<g id="edge46" class="edge">
<title>CompactTypes_iff_iscompact_iscompact_&#45;&gt;CompactTypes_IsCompact_</title>
<path fill="none" stroke="black" d="M1663.94,-462.15C1633.82,-399.52 1555.5,-236.67 1524.7,-172.64"/>
<polygon fill="black" stroke="black" points="1527.67,-170.74 1520.18,-163.24 1521.36,-173.77 1527.67,-170.74"/>
</g>
<!-- CompactTypes_iff_iscompact_iscompact_&#45;&gt;CompactTypes_IsCompact -->
<g id="edge47" class="edge">
<title>CompactTypes_iff_iscompact_iscompact_&#45;&gt;CompactTypes_IsCompact</title>
<path fill="none" stroke="black" d="M1728.22,-464.19C1872.82,-400.41 2276.36,-222.39 2407.36,-164.6"/>
<polygon fill="black" stroke="black" points="2408.94,-167.73 2416.67,-160.49 2406.11,-161.32 2408.94,-167.73"/>
</g>
<!-- CompactTypes_IsCompactProps -->
<g id="node37" class="node">
<title>CompactTypes_IsCompactProps</title>
<g id="a_node37"><a xlink:href="CompactTypes.html#IsCompactProps" xlink:title="IsCompactProps">
<ellipse fill="#f070d1" stroke="black" cx="1934" cy="-488.23" rx="87.18" ry="18"/>
<text text-anchor="middle" x="1934" y="-484.53" font-family="Times,serif" font-size="14.00">IsCompactProps</text>
</a>
</g>
</g>
<!-- CompactTypes_iscompact_iscompactprops&#45;&gt;CompactTypes_IsCompactProps -->
<g id="edge48" class="edge">
<title>CompactTypes_iscompact_iscompactprops&#45;&gt;CompactTypes_IsCompactProps</title>
<path fill="none" stroke="black" d="M1885.32,-846.19C1893.41,-786.92 1920.33,-589.48 1930.27,-516.58"/>
<polygon fill="black" stroke="black" points="1933.78,-516.75 1931.66,-506.37 1926.84,-515.81 1933.78,-516.75"/>
</g>
<!-- CompactTypes_iscompact_iscompactprops&#45;&gt;CompactTypes_IsCompact -->
<g id="edge49" class="edge">
<title>CompactTypes_iscompact_iscompactprops&#45;&gt;CompactTypes_IsCompact</title>
<path fill="none" stroke="black" d="M1878.33,-846.04C1860.25,-778.02 1797.84,-528.21 1838,-462.23 1960.72,-260.6 2258.15,-181.95 2387.36,-156.57"/>
<polygon fill="black" stroke="black" points="2388.33,-159.95 2397.49,-154.63 2387,-153.08 2388.33,-159.95"/>
</g>
<!-- CompactTypes_decidable_iscompact&#45;&gt;CompactTypes_IsCompact -->
<g id="edge50" class="edge">
<title>CompactTypes_decidable_iscompact&#45;&gt;CompactTypes_IsCompact</title>
<path fill="none" stroke="black" d="M2756.93,-470.32C2703.8,-414.4 2533.66,-235.33 2471.78,-170.2"/>
<polygon fill="black" stroke="black" points="2474.21,-167.68 2464.78,-162.84 2469.13,-172.5 2474.21,-167.68"/>
</g>
</g>
</svg>
