<?xml version="1.0" encoding="UTF-8" standalone="no"?>
<!DOCTYPE svg PUBLIC "-//W3C//DTD SVG 1.1//EN"
 "http://www.w3.org/Graphics/SVG/1.1/DTD/svg11.dtd">
<!-- Generated by graphviz version 2.43.0 (0)
 -->
<!-- Title: HoTT_Classes_implementations_assume_rationals Pages: 1 -->
<svg width="1337pt" height="672pt"
 viewBox="0.00 0.00 1337.00 672.50" xmlns="http://www.w3.org/2000/svg" xmlns:xlink="http://www.w3.org/1999/xlink">
<g id="graph0" class="graph" transform="scale(1 1) rotate(0) translate(4 668.5)">
<title>HoTT_Classes_implementations_assume_rationals</title>
<polygon fill="white" stroke="transparent" points="-4,4 -4,-668.5 1333,-668.5 1333,4 -4,4"/>
<g id="clust1" class="cluster">
<title>cluster_assume_rationals</title>
<polygon fill="#ffffc3" stroke="black" points="8,-19.91 8,-644.59 1321,-644.59 1321,-19.91 8,-19.91"/>
<text text-anchor="middle" x="78" y="-629.39" font-family="Times,serif" font-size="14.00">assume_rationals</text>
</g>
<!-- assume_rationals_Qenum -->
<g id="node1" class="node">
<title>assume_rationals_Qenum</title>
<g id="a_node1"><a xlink:href="assume_rationals.html#Qenum" xlink:title="Qenum">
<ellipse fill="#facdef" stroke="black" cx="1261" cy="-283.91" rx="44.36" ry="18"/>
<ellipse fill="none" stroke="black" cx="1261" cy="-283.91" rx="48.38" ry="22"/>
<ellipse fill="none" stroke="black" cx="1261" cy="-283.91" rx="52.39" ry="26"/>
<text text-anchor="middle" x="1261" y="-280.21" font-family="Times,serif" font-size="14.00">Qenum</text>
</a>
</g>
</g>
<!-- assume_rationals_Q -->
<g id="node20" class="node">
<title>assume_rationals_Q</title>
<g id="a_node20"><a xlink:href="assume_rationals.html#Q" xlink:title="Q">
<ellipse fill="#facdef" stroke="black" cx="656" cy="-84.91" rx="27" ry="18"/>
<text text-anchor="middle" x="656" y="-81.21" font-family="Times,serif" font-size="14.00">Q</text>
</a>
</g>
</g>
<!-- assume_rationals_Qenum&#45;&gt;assume_rationals_Q -->
<g id="edge1" class="edge">
<title>assume_rationals_Qenum&#45;&gt;assume_rationals_Q</title>
<path fill="none" stroke="black" d="M1222.14,-266.42C1214.82,-263.48 1207.21,-260.52 1200,-257.91 1009.61,-188.93 776.37,-120.43 690.14,-95.64"/>
<polygon fill="black" stroke="black" points="690.95,-92.23 680.37,-92.83 689.02,-98.95 690.95,-92.23"/>
</g>
<!-- assume_rationals_Qabs -->
<g id="node2" class="node">
<title>assume_rationals_Qabs</title>
<g id="a_node2"><a xlink:href="assume_rationals.html#Qabs" xlink:title="Qabs">
<ellipse fill="#facdef" stroke="black" cx="771" cy="-502.91" rx="34.4" ry="18"/>
<ellipse fill="none" stroke="black" cx="771" cy="-502.91" rx="38.4" ry="22"/>
<ellipse fill="none" stroke="black" cx="771" cy="-502.91" rx="42.39" ry="26"/>
<text text-anchor="middle" x="771" y="-499.21" font-family="Times,serif" font-size="14.00">Qabs</text>
</a>
</g>
</g>
<!-- assume_rationals_Qle -->
<g id="node12" class="node">
<title>assume_rationals_Qle</title>
<g id="a_node12"><a xlink:href="assume_rationals.html#Qle" xlink:title="Qle">
<ellipse fill="#facdef" stroke="black" cx="871" cy="-283.91" rx="27" ry="18"/>
<text text-anchor="middle" x="871" y="-280.21" font-family="Times,serif" font-size="14.00">Qle</text>
</a>
</g>
</g>
<!-- assume_rationals_Qabs&#45;&gt;assume_rationals_Qle -->
<g id="edge2" class="edge">
<title>assume_rationals_Qabs&#45;&gt;assume_rationals_Qle</title>
<path fill="none" stroke="black" d="M782.28,-477.44C801.33,-436.09 839.73,-352.77 859.16,-310.6"/>
<polygon fill="black" stroke="black" points="862.44,-311.85 863.45,-301.3 856.08,-308.92 862.44,-311.85"/>
</g>
<!-- assume_rationals_Qneg -->
<g id="node14" class="node">
<title>assume_rationals_Qneg</title>
<g id="a_node14"><a xlink:href="assume_rationals.html#Qneg" xlink:title="Qneg">
<ellipse fill="#facdef" stroke="black" cx="697" cy="-283.91" rx="35.19" ry="18"/>
<text text-anchor="middle" x="697" y="-280.21" font-family="Times,serif" font-size="14.00">Qneg</text>
</a>
</g>
</g>
<!-- assume_rationals_Qabs&#45;&gt;assume_rationals_Qneg -->
<g id="edge3" class="edge">
<title>assume_rationals_Qabs&#45;&gt;assume_rationals_Qneg</title>
<path fill="none" stroke="black" d="M762.51,-477.02C748.45,-435.78 720.44,-353.64 706.03,-311.38"/>
<polygon fill="black" stroke="black" points="709.3,-310.12 702.76,-301.79 702.67,-312.38 709.3,-310.12"/>
</g>
<!-- assume_rationals_Qzero -->
<g id="node16" class="node">
<title>assume_rationals_Qzero</title>
<g id="a_node16"><a xlink:href="assume_rationals.html#Qzero" xlink:title="Qzero">
<ellipse fill="#facdef" stroke="black" cx="788" cy="-283.91" rx="38.19" ry="18"/>
<text text-anchor="middle" x="788" y="-280.21" font-family="Times,serif" font-size="14.00">Qzero</text>
</a>
</g>
</g>
<!-- assume_rationals_Qabs&#45;&gt;assume_rationals_Qzero -->
<g id="edge4" class="edge">
<title>assume_rationals_Qabs&#45;&gt;assume_rationals_Qzero</title>
<path fill="none" stroke="black" d="M772.98,-476.59C776.21,-435.45 782.55,-354.44 785.87,-312.12"/>
<polygon fill="black" stroke="black" points="789.37,-312.24 786.66,-301.99 782.39,-311.69 789.37,-312.24"/>
</g>
<!-- assume_rationals_Qle_total -->
<g id="node3" class="node">
<title>assume_rationals_Qle_total</title>
<g id="a_node3"><a xlink:href="assume_rationals.html#Qle_total" xlink:title="Qle_total">
<ellipse fill="#facdef" stroke="black" cx="891" cy="-502.91" rx="51.99" ry="18"/>
<ellipse fill="none" stroke="black" cx="891" cy="-502.91" rx="55.99" ry="22"/>
<ellipse fill="none" stroke="black" cx="891" cy="-502.91" rx="59.99" ry="26"/>
<text text-anchor="middle" x="891" y="-499.21" font-family="Times,serif" font-size="14.00">Qle_total</text>
</a>
</g>
</g>
<!-- assume_rationals_Qle_total&#45;&gt;assume_rationals_Qle -->
<g id="edge5" class="edge">
<title>assume_rationals_Qle_total&#45;&gt;assume_rationals_Qle</title>
<path fill="none" stroke="black" d="M888.67,-476.59C884.87,-435.45 877.41,-354.44 873.51,-312.12"/>
<polygon fill="black" stroke="black" points="876.98,-311.63 872.57,-301.99 870.01,-312.27 876.98,-311.63"/>
</g>
<!-- assume_rationals_Qlattice -->
<g id="node4" class="node">
<title>assume_rationals_Qlattice</title>
<g id="a_node4"><a xlink:href="assume_rationals.html#Qlattice" xlink:title="Qlattice">
<ellipse fill="#facdef" stroke="black" cx="1054" cy="-502.91" rx="47.4" ry="18"/>
<ellipse fill="none" stroke="black" cx="1054" cy="-502.91" rx="51.4" ry="22"/>
<ellipse fill="none" stroke="black" cx="1054" cy="-502.91" rx="55.39" ry="26"/>
<text text-anchor="middle" x="1054" y="-499.21" font-family="Times,serif" font-size="14.00">Qlattice</text>
</a>
</g>
</g>
<!-- assume_rationals_Qjoin -->
<g id="node5" class="node">
<title>assume_rationals_Qjoin</title>
<g id="a_node5"><a xlink:href="assume_rationals.html#Qjoin" xlink:title="Qjoin">
<ellipse fill="#facdef" stroke="black" cx="1054" cy="-283.91" rx="35.19" ry="18"/>
<text text-anchor="middle" x="1054" y="-280.21" font-family="Times,serif" font-size="14.00">Qjoin</text>
</a>
</g>
</g>
<!-- assume_rationals_Qlattice&#45;&gt;assume_rationals_Qjoin -->
<g id="edge6" class="edge">
<title>assume_rationals_Qlattice&#45;&gt;assume_rationals_Qjoin</title>
<path fill="none" stroke="black" d="M1054,-476.59C1054,-435.45 1054,-354.44 1054,-312.12"/>
<polygon fill="black" stroke="black" points="1057.5,-311.99 1054,-301.99 1050.5,-311.99 1057.5,-311.99"/>
</g>
<!-- assume_rationals_Qmeet -->
<g id="node6" class="node">
<title>assume_rationals_Qmeet</title>
<g id="a_node6"><a xlink:href="assume_rationals.html#Qmeet" xlink:title="Qmeet">
<ellipse fill="#facdef" stroke="black" cx="1149" cy="-283.91" rx="41.69" ry="18"/>
<text text-anchor="middle" x="1149" y="-280.21" font-family="Times,serif" font-size="14.00">Qmeet</text>
</a>
</g>
</g>
<!-- assume_rationals_Qlattice&#45;&gt;assume_rationals_Qmeet -->
<g id="edge7" class="edge">
<title>assume_rationals_Qlattice&#45;&gt;assume_rationals_Qmeet</title>
<path fill="none" stroke="black" d="M1064.9,-477.02C1082.99,-435.69 1119.06,-353.3 1137.53,-311.12"/>
<polygon fill="black" stroke="black" points="1140.81,-312.35 1141.61,-301.79 1134.39,-309.55 1140.81,-312.35"/>
</g>
<!-- assume_rationals_Qlattice&#45;&gt;assume_rationals_Qle -->
<g id="edge8" class="edge">
<title>assume_rationals_Qlattice&#45;&gt;assume_rationals_Qle</title>
<path fill="none" stroke="black" d="M1034.07,-478.27C998.71,-436.35 925.44,-349.46 890.44,-307.96"/>
<polygon fill="black" stroke="black" points="892.9,-305.44 883.77,-300.06 887.54,-309.96 892.9,-305.44"/>
</g>
<!-- assume_rationals_Qjoin&#45;&gt;assume_rationals_Q -->
<g id="edge9" class="edge">
<title>assume_rationals_Qjoin&#45;&gt;assume_rationals_Q</title>
<path fill="none" stroke="black" d="M1031.24,-269.95C1024.15,-266.01 1016.29,-261.71 1009,-257.91 891.35,-196.62 748.6,-129.13 686.88,-100.27"/>
<polygon fill="black" stroke="black" points="688.23,-97.04 677.69,-95.98 685.27,-103.38 688.23,-97.04"/>
</g>
<!-- assume_rationals_Qmeet&#45;&gt;assume_rationals_Q -->
<g id="edge10" class="edge">
<title>assume_rationals_Qmeet&#45;&gt;assume_rationals_Q</title>
<path fill="none" stroke="black" d="M1123.25,-269.76C1115.23,-265.81 1106.31,-261.55 1098,-257.91 947.49,-191.88 762.97,-124.25 688.98,-97.66"/>
<polygon fill="black" stroke="black" points="689.88,-94.26 679.29,-94.18 687.52,-100.85 689.88,-94.26"/>
</g>
<!-- assume_rationals_Qdec -->
<g id="node7" class="node">
<title>assume_rationals_Qdec</title>
<g id="a_node7"><a xlink:href="assume_rationals.html#Qdec" xlink:title="Qdec">
<ellipse fill="#facdef" stroke="black" cx="958" cy="-283.91" rx="34.4" ry="18"/>
<ellipse fill="none" stroke="black" cx="958" cy="-283.91" rx="38.4" ry="22"/>
<ellipse fill="none" stroke="black" cx="958" cy="-283.91" rx="42.39" ry="26"/>
<text text-anchor="middle" x="958" y="-280.21" font-family="Times,serif" font-size="14.00">Qdec</text>
</a>
</g>
</g>
<!-- assume_rationals_Qdec&#45;&gt;assume_rationals_Q -->
<g id="edge11" class="edge">
<title>assume_rationals_Qdec&#45;&gt;assume_rationals_Q</title>
<path fill="none" stroke="black" d="M929.59,-264.38C871.61,-226.55 740.33,-140.92 683.3,-103.72"/>
<polygon fill="black" stroke="black" points="685.09,-100.71 674.81,-98.18 681.27,-106.57 685.09,-100.71"/>
</g>
<!-- assume_rationals_Qtrivialapart -->
<g id="node8" class="node">
<title>assume_rationals_Qtrivialapart</title>
<g id="a_node8"><a xlink:href="assume_rationals.html#Qtrivialapart" xlink:title="Qtrivialapart">
<ellipse fill="#facdef" stroke="black" cx="615" cy="-502.91" rx="70.7" ry="18"/>
<ellipse fill="none" stroke="black" cx="615" cy="-502.91" rx="74.7" ry="22"/>
<ellipse fill="none" stroke="black" cx="615" cy="-502.91" rx="78.69" ry="26"/>
<text text-anchor="middle" x="615" y="-499.21" font-family="Times,serif" font-size="14.00">Qtrivialapart</text>
</a>
</g>
</g>
<!-- assume_rationals_Qap -->
<g id="node19" class="node">
<title>assume_rationals_Qap</title>
<g id="a_node19"><a xlink:href="assume_rationals.html#Qap" xlink:title="Qap">
<ellipse fill="#facdef" stroke="black" cx="615" cy="-283.91" rx="29.5" ry="18"/>
<text text-anchor="middle" x="615" y="-280.21" font-family="Times,serif" font-size="14.00">Qap</text>
</a>
</g>
</g>
<!-- assume_rationals_Qtrivialapart&#45;&gt;assume_rationals_Qap -->
<g id="edge12" class="edge">
<title>assume_rationals_Qtrivialapart&#45;&gt;assume_rationals_Qap</title>
<path fill="none" stroke="black" d="M615,-476.59C615,-435.45 615,-354.44 615,-312.12"/>
<polygon fill="black" stroke="black" points="618.5,-311.99 615,-301.99 611.5,-311.99 618.5,-311.99"/>
</g>
<!-- assume_rationals_Qrats -->
<g id="node9" class="node">
<title>assume_rationals_Qrats</title>
<g id="a_node9"><a xlink:href="assume_rationals.html#Qrats" xlink:title="Qrats">
<ellipse fill="#facdef" stroke="black" cx="464" cy="-502.91" rx="36.31" ry="18"/>
<ellipse fill="none" stroke="black" cx="464" cy="-502.91" rx="40.3" ry="22"/>
<ellipse fill="none" stroke="black" cx="464" cy="-502.91" rx="44.29" ry="26"/>
<text text-anchor="middle" x="464" y="-499.21" font-family="Times,serif" font-size="14.00">Qrats</text>
</a>
</g>
</g>
<!-- assume_rationals_QtoField -->
<g id="node10" class="node">
<title>assume_rationals_QtoField</title>
<g id="a_node10"><a xlink:href="assume_rationals.html#QtoField" xlink:title="QtoField">
<ellipse fill="#facdef" stroke="black" cx="67" cy="-283.91" rx="50.89" ry="18"/>
<text text-anchor="middle" x="67" y="-280.21" font-family="Times,serif" font-size="14.00">QtoField</text>
</a>
</g>
</g>
<!-- assume_rationals_Qrats&#45;&gt;assume_rationals_QtoField -->
<g id="edge13" class="edge">
<title>assume_rationals_Qrats&#45;&gt;assume_rationals_QtoField</title>
<path fill="none" stroke="black" d="M432.18,-484.52C358.9,-444.46 178.63,-345.93 102.18,-304.14"/>
<polygon fill="black" stroke="black" points="103.84,-301.06 93.39,-299.33 100.48,-307.2 103.84,-301.06"/>
</g>
<!-- assume_rationals_Qlt -->
<g id="node11" class="node">
<title>assume_rationals_Qlt</title>
<g id="a_node11"><a xlink:href="assume_rationals.html#Qlt" xlink:title="Qlt">
<ellipse fill="#facdef" stroke="black" cx="454" cy="-283.91" rx="27" ry="18"/>
<text text-anchor="middle" x="454" y="-280.21" font-family="Times,serif" font-size="14.00">Qlt</text>
</a>
</g>
</g>
<!-- assume_rationals_Qrats&#45;&gt;assume_rationals_Qlt -->
<g id="edge14" class="edge">
<title>assume_rationals_Qrats&#45;&gt;assume_rationals_Qlt</title>
<path fill="none" stroke="black" d="M462.83,-476.59C460.94,-435.45 457.2,-354.44 455.25,-312.12"/>
<polygon fill="black" stroke="black" points="458.74,-311.82 454.79,-301.99 451.75,-312.14 458.74,-311.82"/>
</g>
<!-- assume_rationals_Qrats&#45;&gt;assume_rationals_Qle -->
<g id="edge15" class="edge">
<title>assume_rationals_Qrats&#45;&gt;assume_rationals_Qle</title>
<path fill="none" stroke="black" d="M498.05,-486.12C564.35,-454.97 714.8,-382.33 835,-309.91 838.25,-307.95 841.61,-305.8 844.9,-303.62"/>
<polygon fill="black" stroke="black" points="847.07,-306.37 853.36,-297.84 843.13,-300.59 847.07,-306.37"/>
</g>
<!-- assume_rationals_Qrecip -->
<g id="node13" class="node">
<title>assume_rationals_Qrecip</title>
<g id="a_node13"><a xlink:href="assume_rationals.html#Qrecip" xlink:title="Qrecip">
<ellipse fill="#facdef" stroke="black" cx="367" cy="-283.91" rx="41.69" ry="18"/>
<text text-anchor="middle" x="367" y="-280.21" font-family="Times,serif" font-size="14.00">Qrecip</text>
</a>
</g>
</g>
<!-- assume_rationals_Qrats&#45;&gt;assume_rationals_Qrecip -->
<g id="edge16" class="edge">
<title>assume_rationals_Qrats&#45;&gt;assume_rationals_Qrecip</title>
<path fill="none" stroke="black" d="M453.06,-477.44C434.67,-436.29 397.7,-353.59 378.77,-311.23"/>
<polygon fill="black" stroke="black" points="381.86,-309.57 374.58,-301.87 375.47,-312.42 381.86,-309.57"/>
</g>
<!-- assume_rationals_Qrats&#45;&gt;assume_rationals_Qneg -->
<g id="edge17" class="edge">
<title>assume_rationals_Qrats&#45;&gt;assume_rationals_Qneg</title>
<path fill="none" stroke="black" d="M487.19,-480.31C531.6,-438.95 628.23,-348.96 673.15,-307.12"/>
<polygon fill="black" stroke="black" points="675.73,-309.51 680.66,-300.13 670.96,-304.38 675.73,-309.51"/>
</g>
<!-- assume_rationals_Qone -->
<g id="node15" class="node">
<title>assume_rationals_Qone</title>
<g id="a_node15"><a xlink:href="assume_rationals.html#Qone" xlink:title="Qone">
<ellipse fill="#facdef" stroke="black" cx="533" cy="-283.91" rx="34.39" ry="18"/>
<text text-anchor="middle" x="533" y="-280.21" font-family="Times,serif" font-size="14.00">Qone</text>
</a>
</g>
</g>
<!-- assume_rationals_Qrats&#45;&gt;assume_rationals_Qone -->
<g id="edge18" class="edge">
<title>assume_rationals_Qrats&#45;&gt;assume_rationals_Qone</title>
<path fill="none" stroke="black" d="M471.92,-477.02C485.03,-435.78 511.14,-353.64 524.58,-311.38"/>
<polygon fill="black" stroke="black" points="527.94,-312.38 527.63,-301.79 521.27,-310.26 527.94,-312.38"/>
</g>
<!-- assume_rationals_Qrats&#45;&gt;assume_rationals_Qzero -->
<g id="edge19" class="edge">
<title>assume_rationals_Qrats&#45;&gt;assume_rationals_Qzero</title>
<path fill="none" stroke="black" d="M492.47,-482.84C553.4,-442.03 695.95,-346.56 758.12,-304.92"/>
<polygon fill="black" stroke="black" points="760.33,-307.66 766.69,-299.18 756.43,-301.84 760.33,-307.66"/>
</g>
<!-- assume_rationals_Qmult -->
<g id="node17" class="node">
<title>assume_rationals_Qmult</title>
<g id="a_node17"><a xlink:href="assume_rationals.html#Qmult" xlink:title="Qmult">
<ellipse fill="#facdef" stroke="black" cx="175" cy="-283.91" rx="39.79" ry="18"/>
<text text-anchor="middle" x="175" y="-280.21" font-family="Times,serif" font-size="14.00">Qmult</text>
</a>
</g>
</g>
<!-- assume_rationals_Qrats&#45;&gt;assume_rationals_Qmult -->
<g id="edge20" class="edge">
<title>assume_rationals_Qrats&#45;&gt;assume_rationals_Qmult</title>
<path fill="none" stroke="black" d="M437.33,-481.88C382.7,-440.87 258.56,-347.65 202.9,-305.86"/>
<polygon fill="black" stroke="black" points="204.99,-303.05 194.89,-299.85 200.79,-308.65 204.99,-303.05"/>
</g>
<!-- assume_rationals_Qplus -->
<g id="node18" class="node">
<title>assume_rationals_Qplus</title>
<g id="a_node18"><a xlink:href="assume_rationals.html#Qplus" xlink:title="Qplus">
<ellipse fill="#facdef" stroke="black" cx="270" cy="-283.91" rx="37.89" ry="18"/>
<text text-anchor="middle" x="270" y="-280.21" font-family="Times,serif" font-size="14.00">Qplus</text>
</a>
</g>
</g>
<!-- assume_rationals_Qrats&#45;&gt;assume_rationals_Qplus -->
<g id="edge21" class="edge">
<title>assume_rationals_Qrats&#45;&gt;assume_rationals_Qplus</title>
<path fill="none" stroke="black" d="M443.97,-479.5C407.04,-438.2 328.59,-350.44 290.97,-308.37"/>
<polygon fill="black" stroke="black" points="293.5,-305.95 284.23,-300.83 288.28,-310.61 293.5,-305.95"/>
</g>
<!-- assume_rationals_Qrats&#45;&gt;assume_rationals_Qap -->
<g id="edge22" class="edge">
<title>assume_rationals_Qrats&#45;&gt;assume_rationals_Qap</title>
<path fill="none" stroke="black" d="M480.16,-478.69C509,-437.24 569.04,-350.96 598.28,-308.94"/>
<polygon fill="black" stroke="black" points="601.19,-310.89 604.03,-300.68 595.44,-306.89 601.19,-310.89"/>
</g>
<!-- assume_rationals_QtoField&#45;&gt;assume_rationals_Q -->
<g id="edge23" class="edge">
<title>assume_rationals_QtoField&#45;&gt;assume_rationals_Q</title>
<path fill="none" stroke="black" d="M97.42,-269.42C106.54,-265.54 116.62,-261.41 126,-257.91 310.66,-188.97 537.11,-120.81 621.86,-95.86"/>
<polygon fill="black" stroke="black" points="623.1,-99.15 631.71,-92.97 621.13,-92.43 623.1,-99.15"/>
</g>
<!-- assume_rationals_Qlt&#45;&gt;assume_rationals_Q -->
<g id="edge24" class="edge">
<title>assume_rationals_Qlt&#45;&gt;assume_rationals_Q</title>
<path fill="none" stroke="black" d="M468.85,-268.42C504.03,-234.12 592.59,-147.75 634,-107.36"/>
<polygon fill="black" stroke="black" points="636.68,-109.64 641.4,-100.15 631.79,-104.63 636.68,-109.64"/>
</g>
<!-- assume_rationals_Qle&#45;&gt;assume_rationals_Q -->
<g id="edge25" class="edge">
<title>assume_rationals_Qle&#45;&gt;assume_rationals_Q</title>
<path fill="none" stroke="black" d="M855.54,-268.74C818.19,-234.52 722.92,-147.23 678.92,-106.91"/>
<polygon fill="black" stroke="black" points="681.06,-104.12 671.32,-99.95 676.33,-109.29 681.06,-104.12"/>
</g>
<!-- assume_rationals_Qrecip&#45;&gt;assume_rationals_Q -->
<g id="edge26" class="edge">
<title>assume_rationals_Qrecip&#45;&gt;assume_rationals_Q</title>
<path fill="none" stroke="black" d="M388.25,-268.42C439.97,-233.17 572.33,-142.95 629.28,-104.12"/>
<polygon fill="black" stroke="black" points="631.46,-106.88 637.75,-98.35 627.51,-101.09 631.46,-106.88"/>
</g>
<!-- assume_rationals_Qneg&#45;&gt;assume_rationals_Q -->
<g id="edge27" class="edge">
<title>assume_rationals_Qneg&#45;&gt;assume_rationals_Q</title>
<path fill="none" stroke="black" d="M693.43,-265.77C686.28,-231.41 670.15,-153.88 661.58,-112.73"/>
<polygon fill="black" stroke="black" points="664.99,-111.95 659.53,-102.87 658.14,-113.37 664.99,-111.95"/>
</g>
<!-- assume_rationals_Qone&#45;&gt;assume_rationals_Q -->
<g id="edge28" class="edge">
<title>assume_rationals_Qone&#45;&gt;assume_rationals_Q</title>
<path fill="none" stroke="black" d="M543.28,-266.45C564.91,-231.81 615.24,-151.19 640.69,-110.43"/>
<polygon fill="black" stroke="black" points="643.68,-112.24 646.01,-101.91 637.75,-108.54 643.68,-112.24"/>
</g>
<!-- assume_rationals_Qzero&#45;&gt;assume_rationals_Q -->
<g id="edge29" class="edge">
<title>assume_rationals_Qzero&#45;&gt;assume_rationals_Q</title>
<path fill="none" stroke="black" d="M776.97,-266.45C753.7,-231.72 699.47,-150.79 672.23,-110.13"/>
<polygon fill="black" stroke="black" points="675.01,-107.99 666.54,-101.63 669.19,-111.89 675.01,-107.99"/>
</g>
<!-- assume_rationals_Qmult&#45;&gt;assume_rationals_Q -->
<g id="edge30" class="edge">
<title>assume_rationals_Qmult&#45;&gt;assume_rationals_Q</title>
<path fill="none" stroke="black" d="M199.67,-269.45C207.1,-265.56 215.31,-261.43 223,-257.91 369.47,-190.89 550.07,-124.06 623.08,-97.68"/>
<polygon fill="black" stroke="black" points="624.43,-100.91 632.65,-94.23 622.06,-94.33 624.43,-100.91"/>
</g>
<!-- assume_rationals_Qplus&#45;&gt;assume_rationals_Q -->
<g id="edge31" class="edge">
<title>assume_rationals_Qplus&#45;&gt;assume_rationals_Q</title>
<path fill="none" stroke="black" d="M293.8,-269.8C300.92,-265.93 308.76,-261.71 316,-257.91 429.48,-198.39 565.9,-130.46 625.57,-100.93"/>
<polygon fill="black" stroke="black" points="627.39,-103.93 634.8,-96.36 624.29,-97.66 627.39,-103.93"/>
</g>
<!-- assume_rationals_Qap&#45;&gt;assume_rationals_Q -->
<g id="edge32" class="edge">
<title>assume_rationals_Qap&#45;&gt;assume_rationals_Q</title>
<path fill="none" stroke="black" d="M618.57,-265.77C625.72,-231.41 641.85,-153.88 650.42,-112.73"/>
<polygon fill="black" stroke="black" points="653.86,-113.37 652.47,-102.87 647.01,-111.95 653.86,-113.37"/>
</g>
</g>
</svg>
