<?xml version="1.0" encoding="UTF-8" standalone="no"?>
<!DOCTYPE svg PUBLIC "-//W3C//DTD SVG 1.1//EN"
 "http://www.w3.org/Graphics/SVG/1.1/DTD/svg11.dtd">
<!-- Generated by graphviz version 2.43.0 (0)
 -->
<!-- Title: HoTT_Algebra_Congruence Pages: 1 -->
<svg width="802pt" height="405pt"
 viewBox="0.00 0.00 802.00 405.00" xmlns="http://www.w3.org/2000/svg" xmlns:xlink="http://www.w3.org/1999/xlink">
<g id="graph0" class="graph" transform="scale(1 1) rotate(0) translate(4 401)">
<title>HoTT_Algebra_Congruence</title>
<polygon fill="white" stroke="transparent" points="-4,4 -4,-401 798,-401 798,4 -4,4"/>
<g id="clust1" class="cluster">
<title>cluster_Congruence</title>
<polygon fill="#ffffc3" stroke="black" points="8,-11.9 8,-385.1 786,-385.1 786,-11.9 8,-11.9"/>
<text text-anchor="middle" x="59" y="-369.9" font-family="Times,serif" font-size="14.00">Congruence</text>
</g>
<!-- Congruence_iscong -->
<g id="node1" class="node">
<title>Congruence_iscong</title>
<g id="a_node1"><a xlink:href="Congruence.html#iscong" xlink:title="iscong">
<ellipse fill="#f070d1" stroke="black" cx="730" cy="-169.9" rx="40.13" ry="18"/>
<ellipse fill="none" stroke="black" cx="730" cy="-169.9" rx="44.11" ry="22"/>
<ellipse fill="none" stroke="black" cx="730" cy="-169.9" rx="48.09" ry="26"/>
<text text-anchor="middle" x="730" y="-166.2" font-family="Times,serif" font-size="14.00">iscong</text>
</a>
</g>
</g>
<!-- Congruence_IsCongruence -->
<g id="node7" class="node">
<title>Congruence_IsCongruence</title>
<g id="a_node7"><a xlink:href="Congruence.html#IsCongruence" xlink:title="IsCongruence">
<ellipse fill="#e2cdfa" stroke="black" cx="544" cy="-50.9" rx="74.99" ry="18"/>
<text text-anchor="middle" x="544" y="-47.2" font-family="Times,serif" font-size="14.00">IsCongruence</text>
</a>
</g>
</g>
<!-- Congruence_iscong&#45;&gt;Congruence_IsCongruence -->
<g id="edge1" class="edge">
<title>Congruence_iscong&#45;&gt;Congruence_IsCongruence</title>
<path fill="none" stroke="black" d="M699.29,-149.57C665.95,-128.6 612.84,-95.2 578.19,-73.4"/>
<polygon fill="black" stroke="black" points="579.7,-70.22 569.38,-67.86 575.98,-76.14 579.7,-70.22"/>
</g>
<!-- Congruence_IsCongruence_sind -->
<g id="node2" class="node">
<title>Congruence_IsCongruence_sind</title>
<g id="a_node2"><a xlink:href="Congruence.html#IsCongruence_sind" xlink:title="IsCongruence_sind">
<ellipse fill="#f070d1" stroke="black" cx="557" cy="-169.9" rx="98.6" ry="18"/>
<ellipse fill="none" stroke="black" cx="557" cy="-169.9" rx="102.59" ry="22"/>
<ellipse fill="none" stroke="black" cx="557" cy="-169.9" rx="106.58" ry="26"/>
<text text-anchor="middle" x="557" y="-166.2" font-family="Times,serif" font-size="14.00">IsCongruence_sind</text>
</a>
</g>
</g>
<!-- Congruence_Build_IsCongruence -->
<g id="node6" class="node">
<title>Congruence_Build_IsCongruence</title>
<g id="a_node6"><a xlink:href="Congruence.html#Build_IsCongruence" xlink:title="Build_IsCongruence">
<ellipse fill="#7faaff" stroke="black" cx="335" cy="-50.9" rx="103.18" ry="18"/>
<text text-anchor="middle" x="335" y="-47.2" font-family="Times,serif" font-size="14.00">Build_IsCongruence</text>
</a>
</g>
</g>
<!-- Congruence_IsCongruence_sind&#45;&gt;Congruence_Build_IsCongruence -->
<g id="edge2" class="edge">
<title>Congruence_IsCongruence_sind&#45;&gt;Congruence_Build_IsCongruence</title>
<path fill="none" stroke="black" d="M513.67,-146.06C473.37,-124.82 413.82,-93.43 374.72,-72.83"/>
<polygon fill="black" stroke="black" points="376.21,-69.66 365.73,-68.09 372.95,-75.85 376.21,-69.66"/>
</g>
<!-- Congruence_IsCongruence_sind&#45;&gt;Congruence_IsCongruence -->
<g id="edge3" class="edge">
<title>Congruence_IsCongruence_sind&#45;&gt;Congruence_IsCongruence</title>
<path fill="none" stroke="black" d="M554.21,-143.8C552.1,-124.76 549.19,-98.63 547.02,-79.1"/>
<polygon fill="black" stroke="black" points="550.48,-78.56 545.9,-69.01 543.53,-79.34 550.48,-78.56"/>
</g>
<!-- Congruence_IsCongruence_rec -->
<g id="node3" class="node">
<title>Congruence_IsCongruence_rec</title>
<g id="a_node3"><a xlink:href="Congruence.html#IsCongruence_rec" xlink:title="IsCongruence_rec">
<ellipse fill="#f070d1" stroke="black" cx="335" cy="-299.9" rx="93.68" ry="18"/>
<ellipse fill="none" stroke="black" cx="335" cy="-299.9" rx="97.68" ry="22"/>
<ellipse fill="none" stroke="black" cx="335" cy="-299.9" rx="101.68" ry="26"/>
<text text-anchor="middle" x="335" y="-296.2" font-family="Times,serif" font-size="14.00">IsCongruence_rec</text>
</a>
</g>
</g>
<!-- Congruence_IsCongruence_rect -->
<g id="node5" class="node">
<title>Congruence_IsCongruence_rect</title>
<g id="a_node5"><a xlink:href="Congruence.html#IsCongruence_rect" xlink:title="IsCongruence_rect">
<ellipse fill="#f070d1" stroke="black" cx="335" cy="-169.9" rx="97.48" ry="18"/>
<text text-anchor="middle" x="335" y="-166.2" font-family="Times,serif" font-size="14.00">IsCongruence_rect</text>
</a>
</g>
</g>
<!-- Congruence_IsCongruence_rec&#45;&gt;Congruence_IsCongruence_rect -->
<g id="edge4" class="edge">
<title>Congruence_IsCongruence_rec&#45;&gt;Congruence_IsCongruence_rect</title>
<path fill="none" stroke="black" d="M335,-273.61C335,-251.82 335,-220.44 335,-198.11"/>
<polygon fill="black" stroke="black" points="338.5,-197.95 335,-187.95 331.5,-197.95 338.5,-197.95"/>
</g>
<!-- Congruence_IsCongruence_ind -->
<g id="node4" class="node">
<title>Congruence_IsCongruence_ind</title>
<g id="a_node4"><a xlink:href="Congruence.html#IsCongruence_ind" xlink:title="IsCongruence_ind">
<ellipse fill="#7fffd4" stroke="black" cx="118" cy="-169.9" rx="93.68" ry="18"/>
<ellipse fill="none" stroke="black" cx="118" cy="-169.9" rx="97.68" ry="22"/>
<ellipse fill="none" stroke="black" cx="118" cy="-169.9" rx="101.68" ry="26"/>
<text text-anchor="middle" x="118" y="-166.2" font-family="Times,serif" font-size="14.00">IsCongruence_ind</text>
</a>
</g>
</g>
<!-- Congruence_IsCongruence_ind&#45;&gt;Congruence_Build_IsCongruence -->
<g id="edge5" class="edge">
<title>Congruence_IsCongruence_ind&#45;&gt;Congruence_Build_IsCongruence</title>
<path fill="none" stroke="black" d="M160.1,-146.2C199.46,-124.97 257.78,-93.53 296.08,-72.88"/>
<polygon fill="black" stroke="black" points="297.75,-75.96 304.89,-68.13 294.42,-69.8 297.75,-75.96"/>
</g>
<!-- Congruence_IsCongruence_ind&#45;&gt;Congruence_IsCongruence -->
<g id="edge6" class="edge">
<title>Congruence_IsCongruence_ind&#45;&gt;Congruence_IsCongruence</title>
<path fill="none" stroke="black" d="M185.5,-150.36C268.75,-127.49 408.79,-89.03 486.92,-67.57"/>
<polygon fill="black" stroke="black" points="487.88,-70.94 496.6,-64.91 486.03,-64.19 487.88,-70.94"/>
</g>
<!-- Congruence_IsCongruence_rect&#45;&gt;Congruence_Build_IsCongruence -->
<g id="edge7" class="edge">
<title>Congruence_IsCongruence_rect&#45;&gt;Congruence_Build_IsCongruence</title>
<path fill="none" stroke="black" d="M335,-151.88C335,-132.82 335,-101.65 335,-79.17"/>
<polygon fill="black" stroke="black" points="338.5,-78.93 335,-68.93 331.5,-78.93 338.5,-78.93"/>
</g>
<!-- Congruence_IsCongruence_rect&#45;&gt;Congruence_IsCongruence -->
<g id="edge8" class="edge">
<title>Congruence_IsCongruence_rect&#45;&gt;Congruence_IsCongruence</title>
<path fill="none" stroke="black" d="M364.06,-152.63C401.39,-131.73 466.23,-95.43 507.03,-72.59"/>
<polygon fill="black" stroke="black" points="508.84,-75.59 515.85,-67.65 505.42,-69.48 508.84,-75.59"/>
</g>
</g>
</svg>
