<?xml version="1.0" encoding="UTF-8" standalone="no"?>
<!DOCTYPE svg PUBLIC "-//W3C//DTD SVG 1.1//EN"
 "http://www.w3.org/Graphics/SVG/1.1/DTD/svg11.dtd">
<!-- Generated by graphviz version 2.43.0 (0)
 -->
<!-- Title: HoTT_Spaces_Finite_FinInduction Pages: 1 -->
<svg width="531pt" height="270pt"
 viewBox="0.00 0.00 531.00 269.50" xmlns="http://www.w3.org/2000/svg" xmlns:xlink="http://www.w3.org/1999/xlink">
<g id="graph0" class="graph" transform="scale(1 1) rotate(0) translate(4 265.5)">
<title>HoTT_Spaces_Finite_FinInduction</title>
<polygon fill="white" stroke="transparent" points="-4,4 -4,-265.5 527,-265.5 527,4 -4,4"/>
<g id="clust1" class="cluster">
<title>cluster_FinInduction</title>
<polygon fill="#ffffc3" stroke="black" points="8,-8.33 8,-253.17 515,-253.17 515,-8.33 8,-8.33"/>
<text text-anchor="middle" x="61.5" y="-237.97" font-family="Times,serif" font-size="14.00">FinInduction</text>
</g>
<!-- FinInduction_fin_rec_beta_fsucc -->
<g id="node1" class="node">
<title>FinInduction_fin_rec_beta_fsucc</title>
<g id="a_node1"><a xlink:href="FinInduction.html#fin_rec_beta_fsucc" xlink:title="fin_rec_beta_fsucc">
<ellipse fill="#f070d1" stroke="black" cx="386" cy="-193.33" rx="94.79" ry="18"/>
<ellipse fill="none" stroke="black" cx="386" cy="-193.33" rx="98.79" ry="22"/>
<ellipse fill="none" stroke="black" cx="386" cy="-193.33" rx="102.78" ry="26"/>
<text text-anchor="middle" x="386" y="-189.63" font-family="Times,serif" font-size="14.00">fin_rec_beta_fsucc</text>
</a>
</g>
</g>
<!-- FinInduction_fin_rec -->
<g id="node3" class="node">
<title>FinInduction_fin_rec</title>
<g id="a_node3"><a xlink:href="FinInduction.html#fin_rec" xlink:title="fin_rec">
<ellipse fill="#f070d1" stroke="black" cx="258" cy="-110.33" rx="41.69" ry="18"/>
<text text-anchor="middle" x="258" y="-106.63" font-family="Times,serif" font-size="14.00">fin_rec</text>
</a>
</g>
</g>
<!-- FinInduction_fin_rec_beta_fsucc&#45;&gt;FinInduction_fin_rec -->
<g id="edge1" class="edge">
<title>FinInduction_fin_rec_beta_fsucc&#45;&gt;FinInduction_fin_rec</title>
<path fill="none" stroke="black" d="M348.98,-168.91C330.11,-156.97 307.43,-142.61 289.42,-131.22"/>
<polygon fill="black" stroke="black" points="290.81,-127.95 280.48,-125.56 287.06,-133.87 290.81,-127.95"/>
</g>
<!-- FinInduction_fin_ind_beta_fsucc -->
<g id="node4" class="node">
<title>FinInduction_fin_ind_beta_fsucc</title>
<g id="a_node4"><a xlink:href="FinInduction.html#fin_ind_beta_fsucc" xlink:title="fin_ind_beta_fsucc">
<ellipse fill="#f070d1" stroke="black" cx="412" cy="-110.33" rx="94.78" ry="18"/>
<text text-anchor="middle" x="412" y="-106.63" font-family="Times,serif" font-size="14.00">fin_ind_beta_fsucc</text>
</a>
</g>
</g>
<!-- FinInduction_fin_rec_beta_fsucc&#45;&gt;FinInduction_fin_ind_beta_fsucc -->
<g id="edge2" class="edge">
<title>FinInduction_fin_rec_beta_fsucc&#45;&gt;FinInduction_fin_ind_beta_fsucc</title>
<path fill="none" stroke="black" d="M394.08,-167.15C397.04,-157.94 400.39,-147.49 403.39,-138.15"/>
<polygon fill="black" stroke="black" points="406.75,-139.14 406.47,-128.55 400.08,-137 406.75,-139.14"/>
</g>
<!-- FinInduction_fin_rec_beta_zero -->
<g id="node2" class="node">
<title>FinInduction_fin_rec_beta_zero</title>
<g id="a_node2"><a xlink:href="FinInduction.html#fin_rec_beta_zero" xlink:title="fin_rec_beta_zero">
<ellipse fill="#f070d1" stroke="black" cx="149" cy="-193.33" rx="90.98" ry="18"/>
<ellipse fill="none" stroke="black" cx="149" cy="-193.33" rx="94.98" ry="22"/>
<ellipse fill="none" stroke="black" cx="149" cy="-193.33" rx="98.98" ry="26"/>
<text text-anchor="middle" x="149" y="-189.63" font-family="Times,serif" font-size="14.00">fin_rec_beta_zero</text>
</a>
</g>
</g>
<!-- FinInduction_fin_rec_beta_zero&#45;&gt;FinInduction_fin_rec -->
<g id="edge3" class="edge">
<title>FinInduction_fin_rec_beta_zero&#45;&gt;FinInduction_fin_rec</title>
<path fill="none" stroke="black" d="M180.82,-168.69C196.26,-157.21 214.66,-143.54 229.62,-132.42"/>
<polygon fill="black" stroke="black" points="232.05,-134.98 237.99,-126.21 227.87,-129.36 232.05,-134.98"/>
</g>
<!-- FinInduction_fin_ind_beta_zero -->
<g id="node5" class="node">
<title>FinInduction_fin_ind_beta_zero</title>
<g id="a_node5"><a xlink:href="FinInduction.html#fin_ind_beta_zero" xlink:title="fin_ind_beta_zero">
<ellipse fill="#f070d1" stroke="black" cx="107" cy="-110.33" rx="90.98" ry="18"/>
<text text-anchor="middle" x="107" y="-106.63" font-family="Times,serif" font-size="14.00">fin_ind_beta_zero</text>
</a>
</g>
</g>
<!-- FinInduction_fin_rec_beta_zero&#45;&gt;FinInduction_fin_ind_beta_zero -->
<g id="edge4" class="edge">
<title>FinInduction_fin_rec_beta_zero&#45;&gt;FinInduction_fin_ind_beta_zero</title>
<path fill="none" stroke="black" d="M135.94,-167.15C131.03,-157.68 125.44,-146.89 120.49,-137.34"/>
<polygon fill="black" stroke="black" points="123.51,-135.57 115.8,-128.3 117.29,-138.79 123.51,-135.57"/>
</g>
<!-- FinInduction_fin_ind -->
<g id="node6" class="node">
<title>FinInduction_fin_ind</title>
<g id="a_node6"><a xlink:href="FinInduction.html#fin_ind" xlink:title="fin_ind">
<ellipse fill="#f070d1" stroke="black" cx="258" cy="-35.33" rx="41.69" ry="18"/>
<text text-anchor="middle" x="258" y="-31.63" font-family="Times,serif" font-size="14.00">fin_ind</text>
</a>
</g>
</g>
<!-- FinInduction_fin_rec&#45;&gt;FinInduction_fin_ind -->
<g id="edge5" class="edge">
<title>FinInduction_fin_rec&#45;&gt;FinInduction_fin_ind</title>
<path fill="none" stroke="black" d="M258,-92.03C258,-83.58 258,-73.2 258,-63.71"/>
<polygon fill="black" stroke="black" points="261.5,-63.51 258,-53.51 254.5,-63.51 261.5,-63.51"/>
</g>
<!-- FinInduction_fin_ind_beta_fsucc&#45;&gt;FinInduction_fin_ind -->
<g id="edge6" class="edge">
<title>FinInduction_fin_ind_beta_fsucc&#45;&gt;FinInduction_fin_ind</title>
<path fill="none" stroke="black" d="M378.2,-93.31C353.39,-81.55 319.74,-65.6 294.35,-53.57"/>
<polygon fill="black" stroke="black" points="295.59,-50.28 285.06,-49.16 292.6,-56.61 295.59,-50.28"/>
</g>
<!-- FinInduction_fin_ind_beta_zero&#45;&gt;FinInduction_fin_ind -->
<g id="edge7" class="edge">
<title>FinInduction_fin_ind_beta_zero&#45;&gt;FinInduction_fin_ind</title>
<path fill="none" stroke="black" d="M139.76,-93.49C164.07,-81.74 197.18,-65.74 222.19,-53.65"/>
<polygon fill="black" stroke="black" points="223.86,-56.73 231.34,-49.23 220.81,-50.43 223.86,-56.73"/>
</g>
</g>
</svg>
