<?xml version="1.0" encoding="UTF-8" standalone="no"?>
<!DOCTYPE svg PUBLIC "-//W3C//DTD SVG 1.1//EN"
 "http://www.w3.org/Graphics/SVG/1.1/DTD/svg11.dtd">
<!-- Generated by graphviz version 2.43.0 (0)
 -->
<!-- Title: HoTT_Algebra_Rings_ChineseRemainder Pages: 1 -->
<svg width="836pt" height="422pt"
 viewBox="0.00 0.00 836.00 422.00" xmlns="http://www.w3.org/2000/svg" xmlns:xlink="http://www.w3.org/1999/xlink">
<g id="graph0" class="graph" transform="scale(1 1) rotate(0) translate(4 418)">
<title>HoTT_Algebra_Rings_ChineseRemainder</title>
<polygon fill="white" stroke="transparent" points="-4,4 -4,-418 832,-418 832,4 -4,4"/>
<g id="clust1" class="cluster">
<title>cluster_ChineseRemainder</title>
<polygon fill="#ffffc3" stroke="black" points="8,-8.38 8,-405.62 820,-405.62 820,-8.38 8,-8.38"/>
<text text-anchor="middle" x="84" y="-390.42" font-family="Times,serif" font-size="14.00">ChineseRemainder</text>
</g>
<!-- ChineseRemainder_chinese_remainder_prod -->
<g id="node1" class="node">
<title>ChineseRemainder_chinese_remainder_prod</title>
<g id="a_node1"><a xlink:href="ChineseRemainder.html#chinese_remainder_prod" xlink:title="chinese_remainder_prod">
<ellipse fill="#f070d1" stroke="black" cx="405" cy="-345.38" rx="124.27" ry="18"/>
<ellipse fill="none" stroke="black" cx="405" cy="-345.38" rx="128.27" ry="22"/>
<ellipse fill="none" stroke="black" cx="405" cy="-345.38" rx="132.28" ry="26"/>
<text text-anchor="middle" x="405" y="-341.68" font-family="Times,serif" font-size="14.00">chinese_remainder_prod</text>
</a>
</g>
</g>
<!-- ChineseRemainder_chinese_remainder -->
<g id="node2" class="node">
<title>ChineseRemainder_chinese_remainder</title>
<g id="a_node2"><a xlink:href="ChineseRemainder.html#chinese_remainder" xlink:title="chinese_remainder">
<ellipse fill="#f070d1" stroke="black" cx="405" cy="-262.38" rx="98.58" ry="18"/>
<text text-anchor="middle" x="405" y="-258.68" font-family="Times,serif" font-size="14.00">chinese_remainder</text>
</a>
</g>
</g>
<!-- ChineseRemainder_chinese_remainder_prod&#45;&gt;ChineseRemainder_chinese_remainder -->
<g id="edge1" class="edge">
<title>ChineseRemainder_chinese_remainder_prod&#45;&gt;ChineseRemainder_chinese_remainder</title>
<path fill="none" stroke="black" d="M405,-319.2C405,-310.19 405,-299.99 405,-290.8"/>
<polygon fill="black" stroke="black" points="408.5,-290.6 405,-280.6 401.5,-290.6 408.5,-290.6"/>
</g>
<!-- ChineseRemainder_issurjection_rng_homo_crt -->
<g id="node3" class="node">
<title>ChineseRemainder_issurjection_rng_homo_crt</title>
<g id="a_node3"><a xlink:href="ChineseRemainder.html#issurjection_rng_homo_crt" xlink:title="issurjection_rng_homo_crt">
<ellipse fill="#f070d1" stroke="black" cx="405" cy="-186.38" rx="132.68" ry="18"/>
<text text-anchor="middle" x="405" y="-182.68" font-family="Times,serif" font-size="14.00">issurjection_rng_homo_crt</text>
</a>
</g>
</g>
<!-- ChineseRemainder_chinese_remainder&#45;&gt;ChineseRemainder_issurjection_rng_homo_crt -->
<g id="edge2" class="edge">
<title>ChineseRemainder_chinese_remainder&#45;&gt;ChineseRemainder_issurjection_rng_homo_crt</title>
<path fill="none" stroke="black" d="M405,-244.22C405,-235.44 405,-224.55 405,-214.65"/>
<polygon fill="black" stroke="black" points="408.5,-214.45 405,-204.45 401.5,-214.45 408.5,-214.45"/>
</g>
<!-- ChineseRemainder_rng_homo_crt_beta_right -->
<g id="node4" class="node">
<title>ChineseRemainder_rng_homo_crt_beta_right</title>
<g id="a_node4"><a xlink:href="ChineseRemainder.html#rng_homo_crt_beta_right" xlink:title="rng_homo_crt_beta_right">
<ellipse fill="#f070d1" stroke="black" cx="142" cy="-111.38" rx="126.18" ry="18"/>
<text text-anchor="middle" x="142" y="-107.68" font-family="Times,serif" font-size="14.00">rng_homo_crt_beta_right</text>
</a>
</g>
</g>
<!-- ChineseRemainder_issurjection_rng_homo_crt&#45;&gt;ChineseRemainder_rng_homo_crt_beta_right -->
<g id="edge3" class="edge">
<title>ChineseRemainder_issurjection_rng_homo_crt&#45;&gt;ChineseRemainder_rng_homo_crt_beta_right</title>
<path fill="none" stroke="black" d="M349.55,-169.99C307.79,-158.4 250.46,-142.49 206.63,-130.32"/>
<polygon fill="black" stroke="black" points="207.5,-126.93 196.93,-127.63 205.63,-133.68 207.5,-126.93"/>
</g>
<!-- ChineseRemainder_rng_homo_crt_beta_left -->
<g id="node5" class="node">
<title>ChineseRemainder_rng_homo_crt_beta_left</title>
<g id="a_node5"><a xlink:href="ChineseRemainder.html#rng_homo_crt_beta_left" xlink:title="rng_homo_crt_beta_left">
<ellipse fill="#f070d1" stroke="black" cx="405" cy="-111.38" rx="118.88" ry="18"/>
<text text-anchor="middle" x="405" y="-107.68" font-family="Times,serif" font-size="14.00">rng_homo_crt_beta_left</text>
</a>
</g>
</g>
<!-- ChineseRemainder_issurjection_rng_homo_crt&#45;&gt;ChineseRemainder_rng_homo_crt_beta_left -->
<g id="edge4" class="edge">
<title>ChineseRemainder_issurjection_rng_homo_crt&#45;&gt;ChineseRemainder_rng_homo_crt_beta_left</title>
<path fill="none" stroke="black" d="M405,-168.08C405,-159.63 405,-149.25 405,-139.76"/>
<polygon fill="black" stroke="black" points="408.5,-139.56 405,-129.56 401.5,-139.56 408.5,-139.56"/>
</g>
<!-- ChineseRemainder_issurjection_rng_homo_crt_ -->
<g id="node6" class="node">
<title>ChineseRemainder_issurjection_rng_homo_crt_</title>
<g id="a_node6"><a xlink:href="ChineseRemainder.html#issurjection_rng_homo_crt'" xlink:title="issurjection_rng_homo_crt&#39;">
<ellipse fill="#f070d1" stroke="black" cx="677" cy="-111.38" rx="135.38" ry="18"/>
<text text-anchor="middle" x="677" y="-107.68" font-family="Times,serif" font-size="14.00">issurjection_rng_homo_crt&#39;</text>
</a>
</g>
</g>
<!-- ChineseRemainder_issurjection_rng_homo_crt&#45;&gt;ChineseRemainder_issurjection_rng_homo_crt_ -->
<g id="edge5" class="edge">
<title>ChineseRemainder_issurjection_rng_homo_crt&#45;&gt;ChineseRemainder_issurjection_rng_homo_crt_</title>
<path fill="none" stroke="black" d="M462.02,-170.08C505.12,-158.51 564.43,-142.6 609.83,-130.41"/>
<polygon fill="black" stroke="black" points="610.84,-133.77 619.59,-127.79 609.02,-127.01 610.84,-133.77"/>
</g>
<!-- ChineseRemainder_rng_homo_crt -->
<g id="node7" class="node">
<title>ChineseRemainder_rng_homo_crt</title>
<g id="a_node7"><a xlink:href="ChineseRemainder.html#rng_homo_crt" xlink:title="rng_homo_crt">
<ellipse fill="#f070d1" stroke="black" cx="405" cy="-35.38" rx="74.19" ry="18"/>
<text text-anchor="middle" x="405" y="-31.68" font-family="Times,serif" font-size="14.00">rng_homo_crt</text>
</a>
</g>
</g>
<!-- ChineseRemainder_rng_homo_crt_beta_right&#45;&gt;ChineseRemainder_rng_homo_crt -->
<g id="edge6" class="edge">
<title>ChineseRemainder_rng_homo_crt_beta_right&#45;&gt;ChineseRemainder_rng_homo_crt</title>
<path fill="none" stroke="black" d="M196.49,-95.05C240.98,-82.54 303.61,-64.91 348.6,-52.25"/>
<polygon fill="black" stroke="black" points="349.81,-55.55 358.49,-49.47 347.91,-48.81 349.81,-55.55"/>
</g>
<!-- ChineseRemainder_rng_homo_crt_beta_left&#45;&gt;ChineseRemainder_rng_homo_crt -->
<g id="edge7" class="edge">
<title>ChineseRemainder_rng_homo_crt_beta_left&#45;&gt;ChineseRemainder_rng_homo_crt</title>
<path fill="none" stroke="black" d="M405,-93.22C405,-84.44 405,-73.55 405,-63.65"/>
<polygon fill="black" stroke="black" points="408.5,-63.45 405,-53.45 401.5,-63.45 408.5,-63.45"/>
</g>
<!-- ChineseRemainder_issurjection_rng_homo_crt_&#45;&gt;ChineseRemainder_rng_homo_crt -->
<g id="edge8" class="edge">
<title>ChineseRemainder_issurjection_rng_homo_crt_&#45;&gt;ChineseRemainder_rng_homo_crt</title>
<path fill="none" stroke="black" d="M620.31,-94.96C574.04,-82.37 508.94,-64.66 462.46,-52.02"/>
<polygon fill="black" stroke="black" points="463.11,-48.57 452.55,-49.32 461.28,-55.32 463.11,-48.57"/>
</g>
</g>
</svg>
